<?xml version="1.0" standalone="no"?>
<!DOCTYPE svg PUBLIC "-//W3C//DTD SVG 20010904//EN"
 "http://www.w3.org/TR/2001/REC-SVG-20010904/DTD/svg10.dtd">
<svg version="1.0" xmlns="http://www.w3.org/2000/svg"
 width="50.000000pt" height="725.000000pt" viewBox="0 0 50.000000 725.000000"
 preserveAspectRatio="xMidYMid meet">
<metadata>
Created by potrace 1.16, written by Peter Selinger 2001-2019
</metadata>
<g transform="translate(0.000000,725.000000) scale(0.100000,-0.100000)"
fill="#000000" stroke="none">
<path d="M203 7127 c-72 -13 -69 -32 3 -23 l57 6 -17 -26 c-25 -37 -14 -40 33
-8 43 28 52 48 25 58 -19 7 -34 6 -101 -7z"/>
<path d="M203 6677 c-72 -13 -69 -32 2 -23 54 6 55 6 45 -14 -6 -11 -18 -20
-27 -20 -11 0 -14 -6 -8 -22 21 -69 17 -128 -10 -128 -8 0 -15 -4 -15 -9 0
-15 29 -33 45 -27 12 4 15 24 15 90 l0 84 35 22 c37 23 45 44 19 54 -19 7 -34
6 -101 -7z"/>
<path d="M203 6227 c-72 -13 -69 -32 2 -23 54 6 55 6 45 -14 -6 -11 -18 -20
-27 -20 -11 0 -14 -6 -8 -22 21 -69 17 -128 -10 -128 -8 0 -15 -4 -15 -9 0
-15 29 -33 45 -27 12 4 15 24 15 90 l0 84 35 22 c37 23 45 44 19 54 -19 7 -34
6 -101 -7z"/>
<path d="M128 6117 c-48 -13 -50 -32 -3 -24 39 6 39 5 -3 -51 -42 -55 -13 -50
39 7 67 72 56 94 -33 68z"/>
<path d="M203 5777 c-72 -13 -69 -32 2 -23 54 6 55 6 45 -14 -6 -11 -18 -20
-27 -20 -11 0 -14 -6 -8 -22 21 -69 17 -128 -10 -128 -8 0 -15 -4 -15 -9 0
-15 29 -33 45 -27 12 4 15 24 15 90 l0 84 35 22 c37 23 45 44 19 54 -19 7 -34
6 -101 -7z"/>
<path d="M305 5680 c-10 -11 -16 -23 -12 -26 10 -10 78 17 74 29 -6 20 -42 19
-62 -3z"/>
<path d="M128 5667 c-48 -13 -50 -32 -3 -24 39 6 39 5 -3 -51 -42 -55 -13 -50
39 7 67 72 56 94 -33 68z"/>
<path d="M203 5327 c-72 -13 -69 -32 2 -23 54 6 55 6 45 -14 -6 -11 -18 -20
-27 -20 -11 0 -14 -6 -8 -22 21 -69 17 -128 -10 -128 -19 0 -19 -14 0 -30 29
-24 45 -4 45 57 l0 58 51 -53 c42 -45 55 -53 81 -50 31 3 54 28 26 28 -8 0
-36 14 -64 32 l-49 32 38 14 c21 8 36 20 34 26 -6 19 -43 18 -61 -3 -14 -16
-23 -18 -37 -10 -28 15 -23 35 16 59 37 23 45 44 19 54 -19 7 -34 6 -101 -7z"/>
<path d="M128 5217 c-48 -13 -50 -32 -3 -24 39 6 39 5 -3 -51 -42 -55 -13 -50
39 7 67 72 56 94 -33 68z"/>
<path d="M203 4877 c-72 -13 -69 -32 2 -23 54 6 55 6 45 -14 -6 -11 -18 -20
-27 -20 -11 0 -14 -6 -8 -22 21 -69 17 -128 -10 -128 -18 0 -19 -12 -4 -27 8
-8 -1 -13 -35 -18 -25 -4 -46 -11 -46 -16 0 -8 219 -1 229 7 1 1 0 8 -4 14 -5
8 -23 10 -54 6 l-46 -6 3 62 4 62 49 -53 c42 -44 55 -52 81 -49 31 3 54 28 26
28 -8 0 -36 14 -64 32 l-49 32 38 14 c21 8 36 20 34 26 -6 19 -43 18 -61 -3
-14 -16 -23 -18 -37 -10 -28 15 -23 35 16 59 37 23 45 44 19 54 -19 7 -34 6
-101 -7z"/>
<path d="M128 4767 c-48 -13 -50 -32 -3 -24 39 6 39 5 -3 -51 -42 -55 -13 -50
39 7 67 72 56 94 -33 68z"/>
</g>
</svg>
