<?xml version="1.0" standalone="no"?>
<!DOCTYPE svg PUBLIC "-//W3C//DTD SVG 20010904//EN"
 "http://www.w3.org/TR/2001/REC-SVG-20010904/DTD/svg10.dtd">
<svg version="1.0" xmlns="http://www.w3.org/2000/svg"
 width="50.000000pt" height="725.000000pt" viewBox="0 0 50.000000 725.000000"
 preserveAspectRatio="xMidYMid meet">
<metadata>
Created by potrace 1.16, written by Peter Selinger 2001-2019
</metadata>
<g transform="translate(0.000000,725.000000) scale(0.100000,-0.100000)"
fill="#000000" stroke="none">
<path d="M198 7112 c-93 -60 -73 -66 45 -15 59 27 68 37 41 47 -22 9 -23 8
-86 -32z"/>
<path d="M205 6665 c-27 -19 -54 -36 -60 -39 -5 -2 -7 -6 -4 -10 3 -4 18 -2
32 3 22 8 28 6 41 -15 9 -13 23 -24 31 -24 20 0 19 37 -2 48 -14 8 -11 12 18
27 45 23 46 24 29 35 -22 14 -31 12 -85 -25z"/>
<path d="M205 6215 c-27 -19 -54 -36 -60 -39 -5 -2 -7 -6 -4 -10 3 -4 18 -2
32 3 22 8 28 6 41 -14 15 -23 15 -23 -34 -35 -51 -12 -68 -30 -29 -30 36 0
179 42 179 53 0 5 -15 7 -35 4 -26 -4 -35 -2 -35 8 0 8 -8 18 -17 23 -14 8
-11 12 18 27 45 23 46 24 29 35 -22 14 -31 12 -85 -25z"/>
<path d="M205 5765 c-27 -19 -54 -36 -60 -39 -5 -2 -7 -6 -4 -10 3 -4 18 -2
32 3 22 8 28 6 41 -14 15 -23 15 -23 -34 -35 -52 -12 -67 -30 -27 -30 13 0 46
7 72 15 27 8 50 13 51 12 2 -1 -22 -20 -52 -42 -57 -41 -70 -61 -31 -49 35 11
157 98 153 109 -1 6 -22 10 -45 9 -27 0 -41 4 -41 12 0 7 -8 17 -17 22 -14 8
-11 12 18 27 45 23 46 24 29 35 -22 14 -31 12 -85 -25z"/>
<path d="M205 5315 c-27 -19 -54 -36 -60 -39 -5 -2 -7 -6 -4 -10 3 -4 18 -2
32 3 22 8 28 6 41 -14 15 -23 15 -23 -34 -35 -52 -12 -67 -30 -27 -30 13 0 46
7 72 15 27 8 50 13 51 12 2 -1 -23 -21 -54 -44 -46 -35 -65 -43 -100 -43 -64
0 -50 -25 15 -27 34 -1 71 -12 111 -32 34 -17 75 -31 91 -31 32 0 81 18 81 30
0 4 -31 10 -70 14 -60 5 -188 44 -152 45 21 1 152 95 148 106 -1 6 -22 10 -45
9 -27 0 -41 4 -41 12 0 7 -8 17 -17 22 -14 8 -11 12 18 27 45 23 46 24 29 35
-22 14 -31 12 -85 -25z"/>
</g>
</svg>
