<?xml version="1.0" standalone="no"?>
<!DOCTYPE svg PUBLIC "-//W3C//DTD SVG 20010904//EN"
 "http://www.w3.org/TR/2001/REC-SVG-20010904/DTD/svg10.dtd">
<svg version="1.0" xmlns="http://www.w3.org/2000/svg"
 width="50.000000pt" height="725.000000pt" viewBox="0 0 50.000000 725.000000"
 preserveAspectRatio="xMidYMid meet">
<metadata>
Created by potrace 1.16, written by Peter Selinger 2001-2019
</metadata>
<g transform="translate(0.000000,725.000000) scale(0.100000,-0.100000)"
fill="#000000" stroke="none">
<path d="M220 7152 c0 -16 32 -52 46 -52 21 0 17 38 -5 50 -23 12 -41 13 -41
2z"/>
<path d="M220 6702 c0 -4 7 -17 15 -29 15 -21 14 -21 -60 -28 -41 -4 -75 -12
-75 -18 0 -6 21 -7 58 -3 31 4 101 9 155 13 53 3 97 9 97 14 0 13 -23 17 -77
11 -44 -4 -53 -2 -53 11 0 9 -9 21 -19 27 -23 12 -41 13 -41 2z"/>
<path d="M220 6252 c0 -4 7 -17 15 -29 15 -21 14 -21 -60 -28 -41 -4 -75 -12
-75 -18 0 -6 23 -7 65 -3 l66 7 -15 -28 c-7 -16 -23 -37 -35 -47 -35 -31 -27
-50 17 -42 20 3 43 6 50 6 24 0 12 19 -15 22 l-26 3 26 31 c15 18 27 39 27 48
0 13 13 16 75 16 41 0 75 4 75 9 0 15 -22 19 -77 13 -44 -4 -53 -2 -53 11 0 9
-9 21 -19 27 -23 12 -41 13 -41 2z"/>
<path d="M220 5802 c0 -4 7 -17 15 -29 15 -21 14 -21 -60 -28 -41 -4 -75 -12
-75 -18 0 -6 23 -7 65 -3 l66 7 -15 -28 c-7 -16 -23 -37 -35 -47 -36 -33 -27
-50 22 -42 l42 7 -45 -40 c-25 -22 -53 -43 -62 -46 -10 -4 -18 -11 -18 -16 0
-34 100 29 164 104 40 48 46 60 36 72 -16 19 -30 19 -30 1 0 -26 -35 -58 -59
-54 l-24 3 26 31 c15 18 27 39 27 48 0 13 13 16 75 16 41 0 75 4 75 9 0 15
-22 19 -77 13 -44 -4 -53 -2 -53 11 0 9 -9 21 -19 27 -23 12 -41 13 -41 2z"/>
<path d="M220 5352 c0 -4 7 -17 15 -29 15 -21 14 -21 -60 -28 -41 -4 -75 -12
-75 -18 0 -6 23 -7 65 -3 l66 7 -15 -28 c-7 -16 -23 -37 -35 -47 -36 -33 -27
-50 22 -42 l42 7 -45 -40 c-25 -22 -53 -43 -62 -46 -10 -4 -18 -11 -18 -16 0
-34 100 29 164 104 40 48 46 60 36 72 -16 19 -30 19 -30 1 0 -26 -35 -58 -59
-54 l-24 3 26 31 c15 18 27 39 27 48 0 13 13 16 75 16 41 0 75 4 75 9 0 15
-22 19 -77 13 -44 -4 -53 -2 -53 11 0 9 -9 21 -19 27 -23 12 -41 13 -41 2z"/>
<path d="M315 5181 c-3 -11 -33 -45 -67 -76 -33 -31 -58 -59 -55 -62 4 -3 26
6 51 21 50 29 108 94 104 115 -5 23 -26 24 -33 2z"/>
<path d="M220 4902 c0 -4 7 -17 15 -29 15 -21 14 -21 -60 -28 -41 -4 -75 -12
-75 -18 0 -6 23 -7 65 -3 l66 7 -15 -28 c-7 -16 -23 -37 -35 -47 -36 -33 -27
-50 22 -42 l42 7 -45 -40 c-25 -22 -53 -43 -62 -46 -10 -4 -18 -11 -18 -16 0
-34 100 29 164 104 40 48 46 60 36 72 -16 19 -30 19 -30 1 0 -26 -35 -58 -59
-54 l-24 3 26 31 c15 18 27 39 27 48 0 13 13 16 75 16 41 0 75 4 75 9 0 15
-22 19 -77 13 -44 -4 -53 -2 -53 11 0 9 -9 21 -19 27 -23 12 -41 13 -41 2z"/>
<path d="M315 4731 c-3 -11 -33 -45 -67 -76 -33 -31 -58 -59 -55 -62 4 -3 26
6 50 20 l43 26 28 -30 c29 -30 41 -35 50 -20 11 16 -5 39 -34 51 l-29 12 25
34 c15 19 24 41 20 49 -8 21 -23 19 -31 -4z"/>
</g>
</svg>
