<?xml version="1.0" standalone="no"?>
<!DOCTYPE svg PUBLIC "-//W3C//DTD SVG 20010904//EN"
 "http://www.w3.org/TR/2001/REC-SVG-20010904/DTD/svg10.dtd">
<svg version="1.0" xmlns="http://www.w3.org/2000/svg"
 width="50.000000pt" height="725.000000pt" viewBox="0 0 50.000000 725.000000"
 preserveAspectRatio="xMidYMid meet">
<metadata>
Created by potrace 1.16, written by Peter Selinger 2001-2019
</metadata>
<g transform="translate(0.000000,725.000000) scale(0.100000,-0.100000)"
fill="#000000" stroke="none">
<path d="M167 7105 c-10 -24 -35 -65 -54 -90 -19 -26 -32 -49 -29 -53 19 -18
146 154 131 178 -13 21 -31 8 -48 -35z"/>
<path d="M167 6655 c-10 -24 -35 -65 -54 -90 -43 -57 -35 -71 13 -24 l36 34
-7 -94 c-6 -77 -5 -93 6 -89 11 4 14 31 16 109 1 88 5 111 23 142 12 20 19 41
15 47 -13 21 -31 9 -48 -35z"/>
<path d="M167 6205 c-10 -24 -35 -65 -54 -90 -43 -57 -35 -71 13 -24 l36 34
-7 -94 c-6 -77 -5 -93 6 -89 11 4 14 31 16 109 1 88 5 111 23 142 12 20 19 41
15 47 -13 21 -31 9 -48 -35z"/>
<path d="M293 6157 c-35 -6 -53 -15 -53 -24 0 -12 9 -13 43 -8 77 11 97 17 97
25 0 7 -28 23 -33 19 -1 -1 -26 -6 -54 -12z"/>
<path d="M167 5755 c-10 -24 -35 -65 -54 -90 -43 -57 -35 -71 13 -24 l36 34
-7 -94 c-6 -77 -5 -93 6 -89 11 4 14 31 16 109 1 88 5 111 23 142 12 20 19 41
15 47 -13 21 -31 9 -48 -35z"/>
<path d="M293 5707 c-35 -6 -53 -15 -53 -24 0 -12 9 -13 43 -8 77 11 97 17 97
25 0 7 -28 23 -33 19 -1 -1 -26 -6 -54 -12z"/>
<path d="M288 5586 c-76 -12 -97 -20 -85 -32 11 -11 228 18 224 30 -5 15 -49
16 -139 2z"/>
</g>
</svg>
