<?xml version="1.0" standalone="no"?>
<!DOCTYPE svg PUBLIC "-//W3C//DTD SVG 20010904//EN"
 "http://www.w3.org/TR/2001/REC-SVG-20010904/DTD/svg10.dtd">
<svg version="1.0" xmlns="http://www.w3.org/2000/svg"
 width="50.000000pt" height="725.000000pt" viewBox="0 0 50.000000 725.000000"
 preserveAspectRatio="xMidYMid meet">
<metadata>
Created by potrace 1.16, written by Peter Selinger 2001-2019
</metadata>
<g transform="translate(0.000000,725.000000) scale(0.100000,-0.100000)"
fill="#000000" stroke="none">
<path d="M180 7143 c0 -22 -34 -79 -68 -115 -26 -28 -25 -45 2 -35 21 8 106
119 106 138 0 9 -7 20 -16 23 -22 9 -24 8 -24 -11z"/>
<path d="M180 6692 c0 -21 -48 -100 -73 -121 -9 -7 -17 -17 -17 -22 0 -16 23
-9 48 14 l24 22 -7 -94 c-6 -77 -5 -93 6 -89 10 3 15 31 17 108 2 83 6 108 22
131 24 33 25 55 4 63 -23 9 -24 8 -24 -12z"/>
<path d="M180 6242 c0 -21 -48 -100 -73 -121 -9 -7 -17 -17 -17 -22 0 -16 23
-9 48 14 l24 22 -7 -94 c-6 -77 -5 -93 6 -89 10 3 15 31 17 108 2 83 6 108 22
131 24 33 25 55 4 63 -23 9 -24 8 -24 -12z"/>
<path d="M302 6186 c-69 -12 -91 -20 -80 -31 9 -10 208 19 205 30 -5 14 -41
15 -125 1z"/>
<path d="M180 5792 c0 -21 -48 -100 -73 -121 -9 -7 -17 -17 -17 -22 0 -16 23
-9 48 14 l24 22 -7 -94 c-6 -77 -5 -93 6 -89 10 3 15 31 17 108 2 83 6 108 22
131 24 33 25 55 4 63 -23 9 -24 8 -24 -12z"/>
<path d="M300 5735 c-41 -8 -76 -14 -77 -14 -2 -1 -3 -6 -3 -12 0 -8 15 -9 45
-5 l45 7 0 -86 c0 -78 -2 -87 -20 -92 -25 -7 -25 -15 0 -38 16 -15 22 -15 35
-5 12 10 15 36 15 121 l0 109 46 0 c32 0 44 4 42 13 -6 17 -40 17 -128 2z"/>
</g>
</svg>
