<?xml version="1.0" standalone="no"?>
<!DOCTYPE svg PUBLIC "-//W3C//DTD SVG 20010904//EN"
 "http://www.w3.org/TR/2001/REC-SVG-20010904/DTD/svg10.dtd">
<svg version="1.0" xmlns="http://www.w3.org/2000/svg"
 width="50.000000pt" height="725.000000pt" viewBox="0 0 50.000000 725.000000"
 preserveAspectRatio="xMidYMid meet">
<metadata>
Created by potrace 1.16, written by Peter Selinger 2001-2019
</metadata>
<g transform="translate(0.000000,725.000000) scale(0.100000,-0.100000)"
fill="#000000" stroke="none">
<path d="M212 7126 c-7 -19 -37 -60 -67 -90 -30 -31 -55 -58 -55 -61 0 -31
113 60 150 121 22 35 21 64 -3 64 -7 0 -19 -15 -25 -34z"/>
<path d="M212 6676 c-7 -19 -37 -60 -67 -90 -30 -31 -55 -58 -55 -61 0 -3 7
-5 16 -5 9 0 45 29 81 65 36 36 66 65 67 65 1 0 22 -27 46 -60 43 -59 44 -60
92 -60 56 0 62 14 13 30 -41 13 -133 94 -146 127 -12 33 -33 28 -47 -11z"/>
<path d="M212 6226 c-7 -19 -37 -60 -67 -90 -30 -31 -55 -58 -55 -61 0 -3 7
-5 16 -5 9 0 45 29 81 65 36 36 66 65 67 65 1 0 22 -27 46 -60 43 -59 44 -60
92 -60 56 0 62 14 13 30 -41 13 -133 94 -146 127 -12 33 -33 28 -47 -11z"/>
<path d="M213 6123 c-13 -2 -23 -9 -23 -14 0 -5 10 -9 23 -9 33 0 67 11 67 21
0 9 -27 10 -67 2z"/>
<path d="M212 5776 c-7 -19 -37 -60 -67 -90 -30 -31 -55 -58 -55 -61 0 -3 7
-5 16 -5 9 0 45 29 81 65 36 36 66 65 67 65 1 0 22 -27 46 -60 43 -59 44 -60
92 -60 56 0 62 14 13 30 -41 13 -133 94 -146 127 -12 33 -33 28 -47 -11z"/>
<path d="M213 5673 c-13 -2 -23 -9 -23 -14 0 -5 10 -9 23 -9 33 0 67 11 67 21
0 9 -27 10 -67 2z"/>
<path d="M223 5612 c-79 -19 -83 -37 -8 -28 63 7 66 3 33 -55 -21 -38 -20 -58
1 -44 6 3 27 32 47 63 34 52 35 56 18 69 -10 7 -20 12 -23 12 -3 -1 -34 -9
-68 -17z"/>
</g>
</svg>
