<?xml version="1.0" standalone="no"?>
<!DOCTYPE svg PUBLIC "-//W3C//DTD SVG 20010904//EN"
 "http://www.w3.org/TR/2001/REC-SVG-20010904/DTD/svg10.dtd">
<svg version="1.0" xmlns="http://www.w3.org/2000/svg"
 width="50.000000pt" height="725.000000pt" viewBox="0 0 50.000000 725.000000"
 preserveAspectRatio="xMidYMid meet">
<metadata>
Created by potrace 1.16, written by Peter Selinger 2001-2019
</metadata>
<g transform="translate(0.000000,725.000000) scale(0.100000,-0.100000)"
fill="#000000" stroke="none">
<path d="M165 7101 c-3 -16 -24 -55 -47 -86 -22 -31 -37 -59 -33 -63 9 -9 85
74 110 122 17 32 18 38 5 46 -23 15 -28 12 -35 -19z"/>
<path d="M165 6651 c-3 -16 -24 -55 -47 -86 -45 -63 -44 -83 3 -39 l31 29 -4
-77 c-5 -81 4 -115 22 -88 6 8 10 57 9 108 -1 74 2 100 17 128 17 30 17 36 4
44 -23 15 -28 12 -35 -19z"/>
<path d="M165 6201 c-3 -16 -24 -55 -47 -86 -45 -63 -44 -83 3 -39 l31 29 -4
-77 c-5 -81 4 -115 22 -88 6 8 10 57 9 108 -1 74 2 100 17 128 17 30 17 36 4
44 -23 15 -28 12 -35 -19z"/>
<path d="M268 6131 c-80 -27 -104 -47 -45 -38 68 11 167 42 164 52 -6 18 -40
14 -119 -14z"/>
<path d="M245 5803 c11 -30 25 -115 20 -123 -3 -4 -21 -11 -40 -14 -19 -4 -35
-11 -35 -16 0 -13 46 -13 69 0 15 8 20 3 30 -33 17 -55 53 -108 91 -131 43
-25 61 -16 53 26 -8 43 -12 47 -25 25 -9 -18 -11 -17 -35 5 -28 26 -63 89 -63
112 0 11 14 18 40 22 22 4 40 11 40 16 0 15 -29 20 -59 10 -35 -12 -41 -3 -41
63 0 30 -5 45 -16 49 -27 10 -36 7 -29 -11z"/>
<path d="M165 5751 c-3 -16 -24 -55 -47 -86 -45 -63 -44 -83 3 -39 l31 29 -4
-77 c-5 -81 4 -115 22 -88 6 8 10 57 9 108 -1 74 2 100 17 128 17 30 17 36 4
44 -23 15 -28 12 -35 -19z"/>
<path d="M245 5353 c11 -30 25 -115 20 -123 -3 -4 -21 -11 -40 -14 -19 -4 -35
-11 -35 -16 0 -13 46 -13 69 0 15 8 20 3 30 -33 17 -55 53 -108 91 -131 43
-25 61 -16 53 26 -8 43 -12 47 -25 25 -9 -18 -11 -17 -35 5 -28 26 -63 89 -63
112 0 11 14 18 40 22 22 4 40 11 40 16 0 15 -29 20 -59 10 -35 -12 -41 -3 -41
63 0 30 -5 45 -16 49 -27 10 -36 7 -29 -11z"/>
<path d="M165 5301 c-3 -16 -24 -55 -47 -86 -45 -63 -44 -83 3 -39 l31 29 -4
-77 c-5 -81 4 -115 22 -88 6 8 10 57 9 108 -1 74 2 100 17 128 17 30 17 36 4
44 -23 15 -28 12 -35 -19z"/>
<path d="M320 5322 c0 -5 9 -17 20 -27 23 -21 47 -8 37 19 -7 16 -57 23 -57 8z"/>
</g>
</svg>
