<?xml version="1.0" standalone="no"?>
<!DOCTYPE svg PUBLIC "-//W3C//DTD SVG 20010904//EN"
 "http://www.w3.org/TR/2001/REC-SVG-20010904/DTD/svg10.dtd">
<svg version="1.0" xmlns="http://www.w3.org/2000/svg"
 width="50.000000pt" height="725.000000pt" viewBox="0 0 50.000000 725.000000"
 preserveAspectRatio="xMidYMid meet">
<metadata>
Created by potrace 1.16, written by Peter Selinger 2001-2019
</metadata>
<g transform="translate(0.000000,725.000000) scale(0.100000,-0.100000)"
fill="#000000" stroke="none">
<path d="M151 7093 c-14 -31 -36 -69 -49 -85 -26 -30 -25 -43 1 -32 19 7 54
52 87 112 21 37 22 45 10 52 -23 14 -23 14 -49 -47z"/>
<path d="M151 6643 c-14 -31 -36 -69 -49 -85 -29 -35 -23 -47 13 -24 l25 16 0
-81 c0 -60 3 -80 13 -77 8 3 14 39 17 114 4 85 9 116 25 142 17 29 18 34 5 42
-23 14 -23 14 -49 -47z"/>
<path d="M151 6193 c-14 -31 -36 -69 -49 -85 -29 -35 -23 -47 13 -24 l25 16 0
-81 c0 -60 3 -80 13 -77 8 3 14 39 17 114 4 85 9 116 25 142 17 29 18 34 5 42
-23 14 -23 14 -49 -47z"/>
<path d="M277 6210 c-27 -5 -52 -11 -55 -14 -14 -14 11 -17 63 -8 l57 9 -7
-64 c-5 -52 -4 -64 7 -61 11 4 34 76 41 128 2 18 -37 22 -106 10z"/>
<path d="M151 5743 c-14 -31 -36 -69 -49 -85 -29 -35 -23 -47 13 -24 l25 16 0
-81 c0 -60 3 -80 13 -77 8 3 14 39 17 114 4 85 9 116 25 142 17 29 18 34 5 42
-23 14 -23 14 -49 -47z"/>
<path d="M277 5760 c-27 -5 -52 -11 -55 -14 -13 -14 11 -17 62 -9 55 10 56 9
56 -14 0 -16 -6 -23 -20 -23 -11 0 -20 -4 -20 -10 0 -5 7 -10 15 -10 10 0 15
-10 15 -31 0 -36 21 -35 30 2 5 19 13 25 44 27 45 4 44 26 -2 30 -28 3 -31 6
-22 23 21 39 -3 45 -103 29z"/>
<path d="M203 5683 c-40 -8 -26 -26 15 -19 20 3 45 6 55 6 9 0 17 5 17 10 0
10 -44 11 -87 3z"/>
<path d="M151 5293 c-14 -31 -36 -69 -49 -85 -29 -35 -23 -47 13 -24 l25 16 0
-81 c0 -60 3 -80 13 -77 8 3 14 39 17 114 4 85 9 116 25 142 17 29 18 34 5 42
-23 14 -23 14 -49 -47z"/>
<path d="M277 5310 c-27 -5 -52 -11 -55 -14 -13 -14 11 -17 62 -9 55 10 56 9
56 -14 0 -16 -6 -23 -20 -23 -11 0 -20 -4 -20 -10 0 -5 7 -10 15 -10 21 0 19
-38 -2 -43 -10 -3 -39 -8 -65 -12 -75 -10 -58 -26 20 -19 88 8 90 8 94 41 3
25 8 28 41 31 46 4 45 26 -1 30 -28 3 -31 6 -22 23 21 39 -3 45 -103 29z"/>
<path d="M203 5233 c-40 -8 -26 -26 15 -19 20 3 45 6 55 6 9 0 17 5 17 10 0
10 -44 11 -87 3z"/>
<path d="M151 4843 c-14 -31 -36 -69 -49 -85 -29 -35 -23 -47 13 -24 l25 16 0
-81 c0 -60 3 -80 13 -77 8 3 14 39 17 114 4 85 9 116 25 142 17 29 18 34 5 42
-23 14 -23 14 -49 -47z"/>
<path d="M310 4865 c-8 -2 -32 -6 -52 -10 -40 -6 -53 -25 -18 -25 13 0 20 -7
20 -19 0 -15 -10 -21 -40 -26 -22 -4 -40 -11 -40 -17 0 -7 14 -8 36 -5 32 5
35 4 32 -16 -2 -14 -11 -23 -25 -25 -28 -4 -30 -22 -3 -22 25 0 25 -3 -2 -51
-12 -21 -18 -42 -14 -46 9 -10 42 32 58 74 10 28 17 32 52 35 37 3 41 6 46 33
4 26 10 30 43 33 46 4 45 26 -1 30 -28 3 -31 6 -22 23 6 11 8 24 5 29 -6 9
-42 12 -75 5z m30 -40 c0 -18 -5 -25 -20 -25 -11 0 -20 -4 -20 -10 0 -5 7 -10
15 -10 23 0 18 -38 -6 -45 -11 -4 -22 -5 -24 -3 -1 1 -1 26 2 55 5 43 9 53 27
56 11 2 22 5 24 6 1 0 2 -10 2 -24z"/>
</g>
</svg>
