<?xml version="1.0" standalone="no"?>
<!DOCTYPE svg PUBLIC "-//W3C//DTD SVG 20010904//EN"
 "http://www.w3.org/TR/2001/REC-SVG-20010904/DTD/svg10.dtd">
<svg version="1.0" xmlns="http://www.w3.org/2000/svg"
 width="50.000000pt" height="725.000000pt" viewBox="0 0 50.000000 725.000000"
 preserveAspectRatio="xMidYMid meet">
<metadata>
Created by potrace 1.16, written by Peter Selinger 2001-2019
</metadata>
<g transform="translate(0.000000,725.000000) scale(0.100000,-0.100000)"
fill="#000000" stroke="none">
<path d="M180 7132 c0 -11 -20 -51 -45 -88 -25 -37 -43 -69 -41 -71 18 -18
130 124 124 156 -5 24 -38 26 -38 3z"/>
<path d="M180 6681 c0 -11 -20 -50 -45 -87 -25 -36 -45 -68 -45 -70 0 -11 20
-1 45 22 l28 26 -7 -91 c-7 -79 -5 -91 8 -91 13 0 16 15 17 88 2 125 2 124 22
160 10 19 16 40 13 48 -8 21 -36 17 -36 -5z"/>
<path d="M180 6231 c0 -11 -20 -50 -45 -87 -25 -36 -45 -68 -45 -70 0 -11 20
-1 45 22 l28 26 -7 -91 c-7 -79 -5 -91 8 -91 13 0 16 15 17 88 2 125 2 124 22
160 10 19 16 40 13 48 -8 21 -36 17 -36 -5z"/>
<path d="M296 6144 c-90 -14 -104 -19 -93 -30 11 -11 228 18 224 30 -5 16 -30
16 -131 0z"/>
<path d="M180 5781 c0 -11 -20 -50 -45 -87 -25 -36 -45 -68 -45 -70 0 -11 20
-1 45 22 l28 26 -7 -91 c-7 -79 -5 -91 8 -91 13 0 16 15 17 88 2 125 2 124 22
160 10 19 16 40 13 48 -8 21 -36 17 -36 -5z"/>
<path d="M300 5758 c0 -56 -7 -64 -57 -73 -59 -9 -56 -29 3 -22 l46 5 -5 -34
c-8 -47 20 -47 28 0 7 35 29 46 92 46 15 0 23 5 20 13 -3 8 -20 11 -51 9 l-46
-3 3 48 c2 38 -1 48 -15 51 -15 3 -18 -4 -18 -40z"/>
<path d="M180 5331 c0 -11 -20 -50 -45 -87 -25 -36 -45 -68 -45 -70 0 -11 20
-1 45 22 l28 26 -7 -91 c-7 -79 -5 -91 8 -91 13 0 16 15 17 88 2 125 2 124 22
160 10 19 16 40 13 48 -8 21 -36 17 -36 -5z"/>
<path d="M300 5308 c0 -56 -7 -64 -57 -73 -59 -9 -56 -29 3 -22 l46 5 -5 -34
c-8 -47 20 -47 28 0 7 35 29 46 92 46 15 0 23 5 20 13 -3 8 -20 11 -51 9 l-46
-3 3 48 c2 38 -1 48 -15 51 -15 3 -18 -4 -18 -40z"/>
<path d="M230 5155 c0 -2 5 -27 11 -55 12 -56 29 -67 29 -17 0 47 -10 77 -26
77 -8 0 -14 -2 -14 -5z"/>
<path d="M180 4881 c0 -11 -20 -50 -45 -87 -25 -36 -45 -68 -45 -70 0 -11 20
-1 45 22 l28 26 -7 -91 c-7 -79 -5 -91 8 -91 13 0 16 15 17 88 2 125 2 124 22
160 10 19 16 40 13 48 -8 21 -36 17 -36 -5z"/>
<path d="M300 4858 c0 -56 -7 -64 -57 -73 -59 -9 -56 -29 3 -22 44 5 45 4 42
-22 -2 -20 -9 -27 -30 -29 -16 -2 -28 -5 -28 -7 0 -24 24 -105 31 -105 5 0 9
20 9 45 0 36 3 45 18 45 9 0 28 3 41 7 23 6 24 4 18 -30 -7 -47 15 -51 38 -6
23 43 13 59 -33 59 -36 0 -39 2 -35 24 5 24 34 36 90 36 15 0 23 5 20 13 -3 8
-20 11 -51 9 l-46 -3 3 48 c2 38 -1 48 -15 51 -15 3 -18 -4 -18 -40z"/>
<path d="M180 4431 c0 -11 -20 -50 -45 -87 -25 -36 -45 -68 -45 -70 0 -11 20
-1 45 22 l28 26 -7 -91 c-7 -79 -5 -91 8 -91 13 0 16 15 17 88 2 125 2 124 22
160 10 19 16 40 13 48 -8 21 -36 17 -36 -5z"/>
<path d="M300 4408 c0 -56 -7 -64 -57 -73 -59 -9 -56 -29 3 -22 44 5 45 4 42
-22 -2 -20 -9 -27 -30 -29 -16 -2 -28 -5 -28 -7 0 -2 5 -27 11 -55 8 -40 14
-50 27 -46 10 3 37 8 62 11 43 6 46 9 58 46 16 50 10 59 -37 59 -35 0 -38 2
-34 24 5 24 34 36 90 36 15 0 23 5 20 13 -3 8 -20 11 -51 9 l-46 -3 3 48 c2
38 -1 48 -15 51 -15 3 -18 -4 -18 -40z m50 -183 c0 -26 -4 -29 -52 -39 -26 -6
-28 -4 -28 23 0 30 3 32 68 40 7 0 12 -10 12 -24z"/>
</g>
</svg>
