<?xml version="1.0" standalone="no"?>
<!DOCTYPE svg PUBLIC "-//W3C//DTD SVG 20010904//EN"
 "http://www.w3.org/TR/2001/REC-SVG-20010904/DTD/svg10.dtd">
<svg version="1.0" xmlns="http://www.w3.org/2000/svg"
 width="50.000000pt" height="725.000000pt" viewBox="0 0 50.000000 725.000000"
 preserveAspectRatio="xMidYMid meet">
<metadata>
Created by potrace 1.16, written by Peter Selinger 2001-2019
</metadata>
<g transform="translate(0.000000,725.000000) scale(0.100000,-0.100000)"
fill="#000000" stroke="none">
<path d="M167 7122 c-3 -15 -22 -52 -41 -81 -36 -53 -43 -71 -28 -71 13 0 47
40 82 98 26 43 30 55 20 67 -18 22 -27 18 -33 -13z"/>
<path d="M167 6672 c-3 -15 -22 -52 -41 -81 -49 -72 -48 -94 2 -48 l25 22 -7
-82 c-5 -71 -4 -83 9 -83 15 0 15 4 20 175 1 22 9 52 19 68 15 22 16 30 6 42
-18 22 -27 19 -33 -13z"/>
<path d="M167 6222 c-3 -15 -22 -52 -41 -81 -49 -72 -48 -94 2 -48 l25 22 -7
-82 c-5 -71 -4 -83 9 -83 15 0 15 4 20 175 1 22 9 52 19 68 15 22 16 30 6 42
-18 22 -27 19 -33 -13z"/>
<path d="M220 6188 c0 -16 19 -38 33 -38 4 0 7 10 5 22 -3 25 -38 39 -38 16z"/>
<path d="M167 5772 c-3 -15 -22 -52 -41 -81 -49 -72 -48 -94 2 -48 l25 22 -7
-82 c-5 -71 -4 -83 9 -83 15 0 15 4 20 175 1 22 9 52 19 68 15 22 16 30 6 42
-18 22 -27 19 -33 -13z"/>
<path d="M346 5750 c-10 -17 -16 -34 -13 -37 9 -9 68 38 64 51 -8 23 -33 16
-51 -14z"/>
<path d="M220 5738 c0 -16 19 -38 33 -38 4 0 7 10 5 22 -3 25 -38 39 -38 16z"/>
<path d="M167 5322 c-3 -15 -22 -52 -41 -81 -49 -72 -48 -94 2 -48 l25 22 -7
-82 c-5 -71 -4 -83 9 -83 15 0 15 4 20 175 1 22 9 52 19 68 15 22 16 30 6 42
-18 22 -27 19 -33 -13z"/>
<path d="M346 5300 c-10 -17 -16 -34 -13 -37 9 -9 68 38 64 51 -8 23 -33 16
-51 -14z"/>
<path d="M220 5288 c0 -16 19 -38 33 -38 4 0 7 10 5 22 -3 25 -38 39 -38 16z"/>
<path d="M273 5237 c-74 -14 -68 -31 8 -23 68 8 89 14 89 27 0 11 -27 10 -97
-4z"/>
<path d="M167 4872 c-3 -15 -22 -52 -41 -81 -49 -72 -48 -94 2 -48 l25 22 -7
-82 c-5 -71 -4 -83 9 -83 15 0 15 4 20 175 1 22 9 52 19 68 15 22 16 30 6 42
-18 22 -27 19 -33 -13z"/>
<path d="M346 4850 c-10 -17 -16 -34 -13 -37 9 -9 68 38 64 51 -8 23 -33 16
-51 -14z"/>
<path d="M220 4838 c0 -16 19 -38 33 -38 4 0 7 10 5 22 -3 25 -38 39 -38 16z"/>
<path d="M273 4787 c-74 -14 -68 -31 8 -23 68 8 89 14 89 27 0 11 -27 10 -97
-4z"/>
<path d="M296 4731 c-63 -10 -101 -22 -104 -30 -4 -11 3 -12 32 -7 19 4 72 11
117 16 45 5 84 12 88 15 5 6 -19 26 -29 24 -3 -1 -50 -9 -104 -18z"/>
<path d="M278 4403 c-3 -66 -4 -68 -30 -71 -38 -4 -35 -22 3 -22 24 0 30 -4
27 -17 -2 -12 -16 -20 -42 -23 -22 -3 -41 -11 -44 -18 -3 -11 6 -12 42 -7 l46
7 0 -62 c0 -45 3 -61 13 -58 7 3 13 28 15 65 l3 60 55 6 c31 3 59 9 62 12 11
10 -22 24 -45 20 -13 -3 -34 -7 -48 -10 -20 -4 -25 -1 -25 14 0 13 9 20 30 25
40 8 40 30 -1 24 l-31 -5 4 61 c2 51 0 61 -14 64 -15 3 -18 -7 -20 -65z"/>
<path d="M167 4422 c-3 -15 -22 -52 -41 -81 -49 -72 -48 -94 2 -48 l25 22 -7
-82 c-5 -71 -4 -83 9 -83 15 0 15 4 20 175 1 22 9 52 19 68 15 22 16 30 6 42
-18 22 -27 19 -33 -13z"/>
<path d="M346 4400 c-10 -17 -16 -34 -13 -37 9 -9 68 38 64 51 -8 23 -33 16
-51 -14z"/>
<path d="M220 4388 c0 -16 19 -38 33 -38 4 0 7 10 5 22 -3 25 -38 39 -38 16z"/>
</g>
</svg>
