<?xml version="1.0" standalone="no"?>
<!DOCTYPE svg PUBLIC "-//W3C//DTD SVG 20010904//EN"
 "http://www.w3.org/TR/2001/REC-SVG-20010904/DTD/svg10.dtd">
<svg version="1.0" xmlns="http://www.w3.org/2000/svg"
 width="50.000000pt" height="725.000000pt" viewBox="0 0 50.000000 725.000000"
 preserveAspectRatio="xMidYMid meet">
<metadata>
Created by potrace 1.16, written by Peter Selinger 2001-2019
</metadata>
<g transform="translate(0.000000,725.000000) scale(0.100000,-0.100000)"
fill="#000000" stroke="none">
<path d="M171 7118 c-6 -18 -29 -57 -51 -86 -42 -54 -45 -62 -32 -62 21 0 132
134 132 159 0 7 -23 21 -35 21 -2 0 -8 -15 -14 -32z"/>
<path d="M171 6668 c-6 -18 -29 -57 -51 -86 -22 -29 -40 -55 -40 -57 0 -12 17
-3 44 22 l29 27 -6 -87 c-4 -54 -2 -89 4 -93 6 -3 12 -4 14 -2 2 2 6 52 9 113
5 88 9 115 26 137 24 33 25 44 4 52 -22 9 -21 9 -33 -26z"/>
<path d="M171 6218 c-6 -18 -29 -57 -51 -86 -22 -29 -40 -55 -40 -57 0 -12 17
-3 44 22 l29 27 -6 -87 c-4 -54 -2 -89 4 -93 6 -3 12 -4 14 -2 2 2 6 52 9 113
5 88 9 115 26 137 24 33 25 44 4 52 -22 9 -21 9 -33 -26z"/>
<path d="M223 6168 c3 -13 9 -47 13 -75 3 -29 10 -53 15 -53 12 0 11 93 -1
124 -12 32 -34 35 -27 4z"/>
<path d="M171 5768 c-6 -18 -29 -57 -51 -86 -22 -29 -40 -55 -40 -57 0 -12 17
-3 44 22 l29 27 -6 -87 c-4 -54 -2 -89 4 -93 6 -3 12 -4 14 -2 2 2 6 52 9 113
5 88 9 115 26 137 24 33 25 44 4 52 -22 9 -21 9 -33 -26z"/>
<path d="M318 5747 c-60 -13 -63 -29 -5 -25 47 3 49 -1 33 -91 -13 -69 13 -47
40 34 21 64 21 71 6 83 -9 6 -18 11 -21 11 -3 -1 -27 -6 -53 -12z"/>
<path d="M223 5718 c3 -13 9 -47 13 -75 3 -29 11 -53 16 -53 13 0 7 133 -6
142 -20 14 -28 8 -23 -14z"/>
<path d="M171 5318 c-6 -18 -29 -57 -51 -86 -22 -29 -40 -55 -40 -57 0 -12 17
-3 44 22 l29 27 -6 -87 c-4 -54 -2 -89 4 -93 6 -3 12 -4 14 -2 2 2 6 52 9 113
5 88 9 115 26 137 24 33 25 44 4 52 -22 9 -21 9 -33 -26z"/>
<path d="M318 5297 c-59 -13 -63 -29 -6 -25 33 2 43 -1 46 -14 2 -13 -7 -18
-44 -24 -47 -7 -68 4 -58 31 5 11 -24 30 -32 22 -1 -1 2 -35 8 -75 12 -72 28
-98 28 -43 0 31 14 41 61 41 29 0 30 -1 23 -36 -12 -63 17 -35 42 41 21 64 21
71 6 83 -9 6 -18 11 -21 11 -3 -1 -27 -6 -53 -12z"/>
<path d="M171 4868 c-6 -18 -29 -57 -51 -86 -22 -29 -40 -55 -40 -57 0 -12 17
-3 44 22 l29 27 -6 -87 c-4 -54 -2 -89 4 -93 6 -3 12 -4 14 -2 2 2 6 52 9 113
5 88 9 115 26 137 24 33 25 44 4 52 -22 9 -21 9 -33 -26z"/>
<path d="M318 4847 c-59 -13 -63 -29 -6 -25 33 2 43 -1 46 -14 2 -13 -7 -18
-44 -24 -47 -7 -68 4 -58 31 5 11 -24 30 -32 22 -1 -1 2 -34 8 -73 l11 -70 60
2 60 1 23 69 c21 63 21 70 6 82 -9 6 -18 11 -21 11 -3 -1 -27 -6 -53 -12z m30
-104 c-4 -24 -88 -32 -88 -9 0 18 15 24 58 25 27 1 33 -3 30 -16z"/>
<path d="M171 4418 c-6 -18 -29 -57 -51 -86 -22 -29 -40 -55 -40 -57 0 -12 17
-3 44 22 l29 27 -6 -87 c-4 -54 -2 -89 4 -93 6 -3 12 -4 14 -2 2 2 6 52 9 113
5 88 9 115 26 137 24 33 25 44 4 52 -22 9 -21 9 -33 -26z"/>
<path d="M318 4397 c-59 -13 -63 -29 -6 -25 33 2 43 -1 46 -14 2 -13 -7 -18
-44 -24 -47 -7 -68 4 -58 31 5 11 -24 30 -32 22 -1 -1 2 -34 8 -73 l11 -70 60
2 60 1 23 69 c21 63 21 70 6 82 -9 6 -18 11 -21 11 -3 -1 -27 -6 -53 -12z m30
-104 c-4 -24 -88 -32 -88 -9 0 18 15 24 58 25 27 1 33 -3 30 -16z"/>
<path d="M282 4207 c-62 -6 -92 -13 -89 -21 4 -12 16 -12 150 -1 48 5 87 11
87 15 0 9 -27 21 -43 19 -7 -1 -54 -6 -105 -12z"/>
</g>
</svg>
