<?xml version="1.0" standalone="no"?>
<!DOCTYPE svg PUBLIC "-//W3C//DTD SVG 20010904//EN"
 "http://www.w3.org/TR/2001/REC-SVG-20010904/DTD/svg10.dtd">
<svg version="1.0" xmlns="http://www.w3.org/2000/svg"
 width="50.000000pt" height="725.000000pt" viewBox="0 0 50.000000 725.000000"
 preserveAspectRatio="xMidYMid meet">
<metadata>
Created by potrace 1.16, written by Peter Selinger 2001-2019
</metadata>
<g transform="translate(0.000000,725.000000) scale(0.100000,-0.100000)"
fill="#000000" stroke="none">
<path d="M168 7102 c-10 -26 -34 -67 -54 -90 -20 -24 -34 -46 -30 -49 12 -13
61 35 100 96 31 50 36 64 26 76 -19 23 -24 19 -42 -33z"/>
<path d="M168 6652 c-10 -26 -33 -66 -53 -89 -19 -23 -35 -44 -35 -47 0 -13
20 -5 50 21 l32 27 -7 -82 c-6 -72 -5 -82 9 -82 13 0 16 14 18 83 0 45 0 90
-1 101 0 10 8 34 20 52 17 28 19 37 9 49 -19 23 -24 19 -42 -33z"/>
<path d="M168 6202 c-10 -26 -33 -66 -53 -89 -19 -23 -35 -44 -35 -47 0 -13
20 -5 50 21 l32 27 -7 -82 c-6 -72 -5 -82 9 -82 13 0 16 14 18 83 0 45 0 90
-1 101 0 10 8 34 20 52 17 28 19 37 9 49 -19 23 -24 19 -42 -33z"/>
<path d="M270 6207 c0 -17 29 -57 41 -57 17 0 9 49 -10 60 -26 13 -31 13 -31
-3z"/>
<path d="M168 5752 c-10 -26 -33 -66 -53 -89 -19 -23 -35 -44 -35 -47 0 -13
20 -5 50 21 l32 27 -7 -82 c-6 -72 -5 -82 9 -82 13 0 16 14 18 83 0 45 0 90
-1 101 0 10 8 34 20 52 17 28 19 37 9 49 -19 23 -24 19 -42 -33z"/>
<path d="M270 5758 c0 -7 4 -20 10 -28 11 -18 -5 -30 -42 -30 -16 0 -28 -5
-28 -11 0 -11 111 -6 168 8 36 9 25 23 -18 23 -28 0 -40 4 -40 15 0 8 -9 19
-19 25 -25 13 -31 13 -31 -2z"/>
<path d="M168 5302 c-10 -26 -33 -66 -53 -89 -19 -23 -35 -44 -35 -47 0 -13
20 -5 50 21 l32 27 -7 -82 c-6 -72 -5 -82 9 -82 13 0 16 14 18 83 0 45 0 90
-1 101 0 10 8 34 20 52 17 28 19 37 9 49 -19 23 -24 19 -42 -33z"/>
<path d="M270 5308 c0 -7 4 -20 10 -28 11 -18 -5 -30 -42 -30 -16 0 -28 -4
-28 -10 0 -5 6 -10 14 -10 15 0 20 -11 31 -70 10 -55 16 -70 26 -70 14 0 11
66 -5 105 l-15 34 32 5 c18 3 49 8 70 11 49 8 48 25 -3 25 -28 0 -40 4 -40 15
0 8 -9 19 -19 25 -25 13 -31 13 -31 -2z"/>
<path d="M168 4852 c-10 -26 -33 -66 -53 -89 -19 -23 -35 -44 -35 -47 0 -13
20 -5 50 21 l32 27 -7 -82 c-6 -72 -5 -82 9 -82 13 0 16 14 18 83 0 45 0 90
-1 101 0 10 8 34 20 52 17 28 19 37 9 49 -19 23 -24 19 -42 -33z"/>
<path d="M270 4858 c0 -7 4 -20 10 -28 11 -18 -5 -30 -42 -30 -16 0 -28 -4
-28 -10 0 -5 6 -10 14 -10 15 0 20 -11 31 -70 10 -55 16 -70 26 -70 14 0 11
66 -5 104 -13 32 -13 34 7 40 51 13 60 8 53 -29 -3 -19 -9 -51 -12 -70 -3 -19
-2 -35 2 -35 12 0 56 128 49 140 -4 6 1 10 9 10 9 0 16 5 16 10 0 6 -18 10
-40 10 -28 0 -40 4 -40 15 0 8 -9 19 -19 25 -25 13 -31 13 -31 -2z"/>
<path d="M168 4402 c-10 -26 -33 -66 -53 -89 -19 -23 -35 -44 -35 -47 0 -13
20 -5 50 21 l32 27 -7 -82 c-6 -72 -5 -82 9 -82 13 0 16 14 18 83 0 45 0 90
-1 101 0 10 8 34 20 52 17 28 19 37 9 49 -19 23 -24 19 -42 -33z"/>
<path d="M270 4408 c0 -7 4 -20 10 -28 11 -18 -5 -30 -42 -30 -16 0 -28 -4
-28 -10 0 -5 7 -10 15 -10 8 0 17 -10 20 -22 26 -115 25 -118 -26 -118 -10 0
-19 -4 -19 -9 0 -16 25 -19 71 -10 24 4 70 8 102 9 43 0 57 3 54 13 -2 7 -21
12 -46 11 -22 0 -41 3 -41 7 0 5 9 33 21 63 11 31 18 60 14 66 -3 5 1 10 9 10
9 0 16 5 16 10 0 6 -18 10 -40 10 -28 0 -40 4 -40 15 0 8 -9 19 -19 25 -25 13
-31 13 -31 -2z m70 -75 c0 -3 -5 -35 -11 -70 -7 -42 -16 -63 -25 -63 -9 0 -14
11 -14 30 0 17 -6 46 -14 65 -13 30 -13 34 2 38 28 7 62 8 62 0z"/>
</g>
</svg>
