<?xml version="1.0" standalone="no"?>
<!DOCTYPE svg PUBLIC "-//W3C//DTD SVG 20010904//EN"
 "http://www.w3.org/TR/2001/REC-SVG-20010904/DTD/svg10.dtd">
<svg version="1.0" xmlns="http://www.w3.org/2000/svg"
 width="50.000000pt" height="725.000000pt" viewBox="0 0 50.000000 725.000000"
 preserveAspectRatio="xMidYMid meet">
<metadata>
Created by potrace 1.16, written by Peter Selinger 2001-2019
</metadata>
<g transform="translate(0.000000,725.000000) scale(0.100000,-0.100000)"
fill="#000000" stroke="none">
<path d="M168 7102 c-10 -26 -34 -67 -54 -90 -42 -49 -39 -64 5 -33 37 26 105
136 97 156 -11 29 -31 14 -48 -33z"/>
<path d="M168 6652 c-10 -26 -34 -67 -54 -90 -44 -52 -38 -65 12 -27 l37 28
-5 -76 c-5 -71 3 -110 17 -95 4 4 8 55 9 115 2 84 6 114 20 136 10 15 16 34
12 42 -11 29 -31 15 -48 -33z"/>
<path d="M168 6202 c-10 -26 -34 -67 -54 -90 -44 -52 -38 -65 12 -27 l37 28
-5 -76 c-5 -71 3 -110 17 -95 4 4 8 55 9 115 2 84 6 114 20 136 10 15 16 34
12 42 -11 29 -31 15 -48 -33z"/>
<path d="M280 6230 c0 -15 31 -60 41 -60 13 0 11 44 -3 58 -15 15 -38 16 -38
2z"/>
<path d="M168 5752 c-10 -26 -34 -67 -54 -90 -44 -52 -38 -65 12 -27 l37 28
-5 -76 c-5 -71 3 -110 17 -95 4 4 8 55 9 115 2 84 6 114 20 136 10 15 16 34
12 42 -11 29 -31 15 -48 -33z"/>
<path d="M280 5780 c0 -15 31 -60 41 -60 13 0 11 44 -3 58 -15 15 -38 16 -38
2z"/>
<path d="M220 5700 c-15 -44 -9 -60 15 -40 16 13 21 80 7 80 -5 0 -15 -18 -22
-40z"/>
<path d="M168 5302 c-10 -26 -34 -67 -54 -90 -44 -52 -38 -65 12 -27 l37 28
-5 -76 c-5 -71 3 -110 17 -95 4 4 8 55 9 115 2 84 6 114 20 136 10 15 16 34
12 42 -11 29 -31 15 -48 -33z"/>
<path d="M280 5326 c0 -8 5 -18 10 -21 6 -3 10 -15 10 -26 0 -12 7 -19 20 -19
17 0 19 4 14 28 -4 15 -11 33 -17 40 -13 17 -37 15 -37 -2z"/>
<path d="M220 5250 c-7 -22 -10 -43 -7 -46 9 -9 37 15 37 32 0 8 9 14 20 14
11 0 20 5 20 10 0 6 -9 10 -20 10 -11 0 -20 5 -20 10 0 24 -18 6 -30 -30z"/>
<path d="M350 5280 c0 -5 6 -10 14 -10 9 0 12 -7 9 -21 -5 -19 -3 -20 18 -14
36 11 44 22 29 40 -14 17 -70 21 -70 5z"/>
<path d="M168 4852 c-10 -26 -34 -67 -54 -90 -44 -52 -38 -65 12 -27 l37 28
-5 -76 c-5 -71 3 -110 17 -95 4 4 8 55 9 115 2 84 6 114 20 136 10 15 16 34
12 42 -11 29 -31 15 -48 -33z"/>
<path d="M280 4876 c0 -8 5 -18 10 -21 6 -3 10 -15 10 -26 0 -12 7 -19 20 -19
17 0 19 4 14 28 -4 15 -11 33 -17 40 -13 17 -37 15 -37 -2z"/>
<path d="M220 4800 c-7 -22 -10 -43 -7 -46 9 -9 37 15 37 32 0 8 9 14 20 14
11 0 20 5 20 10 0 6 -9 10 -20 10 -11 0 -20 5 -20 10 0 24 -18 6 -30 -30z"/>
<path d="M350 4830 c0 -5 6 -10 14 -10 9 0 12 -7 9 -21 -5 -19 -3 -20 18 -14
36 11 44 22 29 40 -14 17 -70 21 -70 5z"/>
<path d="M311 4725 c-13 -20 -21 -38 -18 -41 9 -9 78 47 74 60 -8 23 -33 15
-56 -19z"/>
<path d="M168 4402 c-10 -26 -34 -67 -54 -90 -44 -52 -38 -65 12 -27 l37 28
-5 -76 c-5 -71 3 -110 17 -95 4 4 8 55 9 115 2 84 6 114 20 136 10 15 16 34
12 42 -11 29 -31 15 -48 -33z"/>
<path d="M280 4426 c0 -8 5 -18 10 -21 6 -3 10 -15 10 -26 0 -12 7 -19 20 -19
17 0 19 4 14 28 -4 15 -11 33 -17 40 -13 17 -37 15 -37 -2z"/>
<path d="M220 4350 c-7 -22 -10 -43 -7 -46 9 -9 37 15 37 32 0 8 9 14 20 14
11 0 20 5 20 10 0 6 -9 10 -20 10 -11 0 -20 5 -20 10 0 24 -18 6 -30 -30z"/>
<path d="M350 4380 c0 -5 6 -10 14 -10 9 0 12 -7 9 -21 -5 -19 -3 -20 18 -14
36 11 44 22 29 40 -14 17 -70 21 -70 5z"/>
<path d="M260 4252 c0 -88 11 -102 84 -102 29 0 60 6 70 13 15 11 16 17 5 40
-15 33 -21 34 -34 5 -12 -26 -67 -37 -91 -17 -21 17 -18 23 31 58 25 18 45 37
45 42 0 19 -31 21 -45 3 -44 -62 -43 -61 -41 -20 0 23 -4 41 -11 43 -10 4 -13
-14 -13 -65z"/>
</g>
</svg>
