<?xml version="1.0" standalone="no"?>
<!DOCTYPE svg PUBLIC "-//W3C//DTD SVG 20010904//EN"
 "http://www.w3.org/TR/2001/REC-SVG-20010904/DTD/svg10.dtd">
<svg version="1.0" xmlns="http://www.w3.org/2000/svg"
 width="50.000000pt" height="725.000000pt" viewBox="0 0 50.000000 725.000000"
 preserveAspectRatio="xMidYMid meet">
<metadata>
Created by potrace 1.16, written by Peter Selinger 2001-2019
</metadata>
<g transform="translate(0.000000,725.000000) scale(0.100000,-0.100000)"
fill="#000000" stroke="none">
<path d="M170 7132 c0 -11 -18 -47 -41 -82 -40 -62 -45 -86 -13 -59 23 19 94
129 94 146 0 7 -9 13 -20 13 -13 0 -20 -7 -20 -18z"/>
<path d="M170 6682 c0 -11 -18 -47 -41 -82 -43 -67 -45 -88 -3 -49 l27 24 -7
-87 c-5 -59 -3 -88 4 -93 6 -4 13 -5 15 -3 2 2 5 53 8 113 2 78 8 119 20 142
22 42 21 53 -3 53 -13 0 -20 -7 -20 -18z"/>
<path d="M170 6232 c0 -11 -18 -47 -41 -82 -43 -67 -45 -88 -3 -49 l27 24 -7
-87 c-5 -59 -3 -88 4 -93 6 -4 13 -5 15 -3 2 2 5 53 8 113 2 78 8 119 20 142
22 42 21 53 -3 53 -13 0 -20 -7 -20 -18z"/>
<path d="M240 6229 c0 -17 20 -49 30 -49 17 0 11 47 -6 54 -21 8 -24 8 -24 -5z"/>
<path d="M331 5784 c-7 -19 -10 -38 -7 -41 8 -8 56 37 56 53 0 9 -21 24 -34
24 -1 0 -8 -16 -15 -36z"/>
<path d="M170 5782 c0 -11 -18 -47 -41 -82 -43 -67 -45 -88 -3 -49 l27 24 -7
-87 c-5 -59 -3 -88 4 -93 6 -4 13 -5 15 -3 2 2 5 53 8 113 2 78 8 119 20 142
22 42 21 53 -3 53 -13 0 -20 -7 -20 -18z"/>
<path d="M240 5779 c0 -17 20 -49 30 -49 17 0 11 47 -6 54 -21 8 -24 8 -24 -5z"/>
<path d="M331 5334 c-7 -19 -10 -38 -7 -41 8 -8 56 37 56 53 0 9 -21 24 -34
24 -1 0 -8 -16 -15 -36z"/>
<path d="M170 5332 c0 -11 -18 -47 -41 -82 -43 -67 -45 -88 -3 -49 l27 24 -7
-87 c-5 -59 -3 -88 4 -93 6 -4 13 -5 15 -3 2 2 5 53 8 113 2 78 8 119 20 142
22 42 21 53 -3 53 -13 0 -20 -7 -20 -18z"/>
<path d="M240 5329 c0 -17 20 -49 30 -49 17 0 11 47 -6 54 -21 8 -24 8 -24 -5z"/>
<path d="M325 5280 c-16 -4 -47 -8 -67 -9 -53 -1 -48 -21 5 -20 64 0 120 13
125 27 4 13 -16 14 -63 2z"/>
<path d="M331 4884 c-7 -19 -10 -38 -7 -41 8 -8 56 37 56 53 0 9 -21 24 -34
24 -1 0 -8 -16 -15 -36z"/>
<path d="M170 4882 c0 -11 -18 -47 -41 -82 -43 -67 -45 -88 -3 -49 l27 24 -7
-87 c-5 -59 -3 -88 4 -93 6 -4 13 -5 15 -3 2 2 5 53 8 113 2 78 8 119 20 142
22 42 21 53 -3 53 -13 0 -20 -7 -20 -18z"/>
<path d="M240 4879 c0 -17 20 -49 30 -49 17 0 11 47 -6 54 -21 8 -24 8 -24 -5z"/>
<path d="M325 4830 c-16 -4 -47 -8 -67 -9 -53 -1 -48 -21 5 -20 64 0 120 13
125 27 4 13 -16 14 -63 2z"/>
<path d="M293 4746 c-87 -11 -113 -19 -101 -31 10 -10 239 18 235 29 -5 15
-28 15 -134 2z"/>
<path d="M331 4434 c-7 -19 -10 -38 -7 -41 8 -8 56 37 56 53 0 9 -21 24 -34
24 -1 0 -8 -16 -15 -36z"/>
<path d="M170 4432 c0 -11 -18 -47 -41 -82 -43 -67 -45 -88 -3 -49 l27 24 -7
-87 c-5 -59 -3 -88 4 -93 6 -4 13 -5 15 -3 2 2 5 53 8 113 2 78 8 119 20 142
22 42 21 53 -3 53 -13 0 -20 -7 -20 -18z"/>
<path d="M240 4429 c0 -17 20 -49 30 -49 17 0 11 47 -6 54 -21 8 -24 8 -24 -5z"/>
<path d="M325 4380 c-16 -4 -47 -8 -67 -9 -42 -1 -45 -5 -23 -27 25 -26 18
-51 -15 -57 -36 -8 -40 -27 -5 -27 31 0 33 -21 4 -62 -12 -16 -18 -32 -14 -36
11 -12 65 57 65 82 0 23 4 25 80 32 53 4 79 11 77 18 -4 11 -77 11 -124 1 -20
-5 -23 -1 -23 24 0 28 3 30 52 38 28 4 53 14 56 21 4 13 -16 14 -63 2z"/>
<path d="M331 3984 c-7 -19 -10 -38 -7 -41 8 -8 56 37 56 53 0 9 -21 24 -34
24 -1 0 -8 -16 -15 -36z"/>
<path d="M170 3982 c0 -11 -18 -47 -41 -82 -43 -67 -45 -88 -3 -49 l27 24 -7
-87 c-5 -59 -3 -88 4 -93 6 -4 13 -5 15 -3 2 2 5 53 8 113 2 78 8 119 20 142
22 42 21 53 -3 53 -13 0 -20 -7 -20 -18z"/>
<path d="M240 3979 c0 -17 20 -49 30 -49 17 0 11 47 -6 54 -21 8 -24 8 -24 -5z"/>
<path d="M325 3930 c-16 -4 -47 -8 -67 -9 -42 -1 -45 -5 -23 -27 25 -26 18
-51 -15 -57 -36 -8 -40 -27 -5 -27 31 0 33 -21 4 -62 -12 -16 -18 -32 -14 -36
11 -12 65 57 65 83 0 20 5 25 25 25 24 0 25 -2 25 -75 0 -41 4 -75 9 -75 10 0
21 59 21 118 l0 42 41 0 c28 0 39 4 36 13 -2 7 -19 11 -41 10 -33 -2 -36 0
-36 26 0 20 6 30 20 34 11 3 20 10 20 16 0 12 -20 12 -65 1z m-5 -54 c0 -20
-16 -36 -36 -36 -2 0 -4 14 -4 30 0 23 4 30 20 30 14 0 20 -7 20 -24z"/>
</g>
</svg>
