<?xml version="1.0" standalone="no"?>
<!DOCTYPE svg PUBLIC "-//W3C//DTD SVG 20010904//EN"
 "http://www.w3.org/TR/2001/REC-SVG-20010904/DTD/svg10.dtd">
<svg version="1.0" xmlns="http://www.w3.org/2000/svg"
 width="50.000000pt" height="725.000000pt" viewBox="0 0 50.000000 725.000000"
 preserveAspectRatio="xMidYMid meet">
<metadata>
Created by potrace 1.16, written by Peter Selinger 2001-2019
</metadata>
<g transform="translate(0.000000,725.000000) scale(0.100000,-0.100000)"
fill="#000000" stroke="none">
<path d="M180 7128 c0 -22 -50 -107 -76 -128 -16 -14 -19 -30 -4 -30 14 0 83
75 104 114 20 37 16 66 -9 66 -9 0 -15 -9 -15 -22z"/>
<path d="M180 6678 c0 -22 -50 -107 -76 -128 -16 -14 -19 -30 -5 -30 4 0 20
11 35 25 l28 25 -8 -91 c-6 -76 -4 -91 7 -87 10 3 15 32 19 109 4 78 10 112
24 135 20 34 16 64 -9 64 -9 0 -15 -9 -15 -22z"/>
<path d="M180 6228 c0 -22 -50 -107 -76 -128 -16 -14 -19 -30 -5 -30 4 0 20
11 35 25 l28 25 -8 -91 c-6 -76 -4 -91 7 -87 10 3 15 32 19 109 4 78 10 112
24 135 20 34 16 64 -9 64 -9 0 -15 -9 -15 -22z"/>
<path d="M295 6163 c-43 -8 -81 -16 -84 -18 -13 -14 17 -15 108 -4 70 9 101
17 101 26 0 16 -21 15 -125 -4z"/>
<path d="M180 5778 c0 -22 -50 -107 -76 -128 -16 -14 -19 -30 -5 -30 4 0 20
11 35 25 l28 25 -8 -91 c-6 -76 -4 -91 7 -87 10 3 15 32 19 109 4 78 10 112
24 135 20 34 16 64 -9 64 -9 0 -15 -9 -15 -22z"/>
<path d="M296 5756 l6 -43 -46 -7 c-25 -4 -46 -12 -46 -18 0 -7 16 -9 45 -5
45 7 45 6 45 -23 0 -17 5 -30 10 -30 6 0 10 13 10 29 0 32 14 41 66 41 25 0
34 4 34 16 0 14 -7 15 -45 10 l-45 -7 0 40 c0 34 -3 41 -20 41 -17 0 -19 -5
-14 -44z"/>
<path d="M180 5328 c0 -22 -50 -107 -76 -128 -16 -14 -19 -30 -5 -30 4 0 20
11 35 25 l28 25 -8 -91 c-6 -76 -4 -91 7 -87 10 3 15 32 19 109 4 78 10 112
24 135 20 34 16 64 -9 64 -9 0 -15 -9 -15 -22z"/>
<path d="M296 5306 l6 -43 -46 -7 c-25 -4 -46 -12 -46 -18 0 -7 16 -9 46 -4
43 5 45 5 42 -17 -2 -16 -11 -23 -30 -25 -16 -2 -28 -8 -28 -14 0 -7 16 -9 46
-4 26 3 60 6 75 6 20 0 29 5 29 16 0 13 -7 15 -35 11 -29 -5 -35 -3 -35 13 0
21 19 30 66 30 25 0 34 4 34 16 0 14 -7 15 -45 10 l-45 -7 0 40 c0 34 -3 41
-20 41 -17 0 -19 -5 -14 -44z"/>
<path d="M180 4878 c0 -22 -50 -107 -76 -128 -16 -14 -19 -30 -5 -30 4 0 20
11 35 25 l28 25 -8 -91 c-6 -76 -4 -91 7 -87 10 3 15 32 19 109 4 78 10 112
24 135 20 34 16 64 -9 64 -9 0 -15 -9 -15 -22z"/>
<path d="M296 4856 l6 -43 -46 -7 c-25 -4 -46 -12 -46 -18 0 -7 16 -9 46 -4
43 5 45 5 42 -17 -2 -16 -11 -23 -30 -25 -16 -2 -28 -8 -28 -14 0 -7 16 -9 46
-4 26 3 60 6 75 6 20 0 29 5 29 16 0 13 -7 15 -35 11 -29 -5 -35 -3 -35 13 0
21 19 30 66 30 25 0 34 4 34 16 0 14 -7 15 -45 10 l-45 -7 0 40 c0 34 -3 41
-20 41 -17 0 -19 -5 -14 -44z"/>
<path d="M235 4674 c4 -11 10 -34 13 -51 7 -51 23 -39 20 14 -2 38 -7 49 -22
51 -15 3 -17 0 -11 -14z"/>
<path d="M180 4428 c0 -22 -50 -107 -76 -128 -16 -14 -19 -30 -5 -30 4 0 20
11 35 25 l28 25 -8 -91 c-6 -76 -4 -91 7 -87 10 3 15 32 19 109 4 78 10 112
24 135 20 34 16 64 -9 64 -9 0 -15 -9 -15 -22z"/>
<path d="M296 4406 l6 -43 -46 -7 c-25 -4 -46 -12 -46 -18 0 -7 16 -9 46 -4
43 5 45 5 42 -17 -2 -16 -11 -23 -30 -25 -16 -2 -28 -8 -28 -14 0 -7 16 -9 46
-4 26 3 60 6 75 6 20 0 29 5 29 16 0 13 -7 15 -35 11 -29 -5 -35 -3 -35 13 0
21 19 30 66 30 25 0 34 4 34 16 0 14 -7 15 -45 10 l-45 -7 0 40 c0 34 -3 41
-20 41 -17 0 -19 -5 -14 -44z"/>
<path d="M320 4240 c0 -5 9 -10 21 -10 18 0 20 -4 14 -30 -5 -23 -3 -30 8 -30
17 0 42 54 32 69 -8 14 -75 14 -75 1z"/>
<path d="M235 4223 c5 -10 10 -33 13 -50 6 -46 22 -41 22 7 0 33 3 40 20 40
11 0 20 5 20 10 0 6 -18 10 -41 10 -35 0 -40 -2 -34 -17z"/>
<path d="M180 3978 c0 -22 -50 -107 -76 -128 -16 -14 -19 -30 -5 -30 4 0 20
11 35 25 l28 25 -8 -91 c-6 -76 -4 -91 7 -87 10 3 15 32 19 109 4 78 10 112
24 135 20 34 16 64 -9 64 -9 0 -15 -9 -15 -22z"/>
<path d="M296 3956 l6 -43 -46 -7 c-25 -4 -46 -12 -46 -18 0 -7 16 -9 46 -4
43 5 45 5 42 -17 -2 -16 -11 -23 -30 -25 -16 -2 -28 -8 -28 -14 0 -7 16 -9 46
-4 26 3 60 6 75 6 20 0 29 5 29 16 0 13 -7 15 -35 11 -29 -5 -35 -3 -35 13 0
21 19 30 66 30 25 0 34 4 34 16 0 14 -7 15 -45 10 l-45 -7 0 40 c0 34 -3 41
-20 41 -17 0 -19 -5 -14 -44z"/>
<path d="M320 3790 c0 -5 9 -10 20 -10 20 0 26 -16 12 -36 -4 -6 -24 -14 -44
-18 -36 -7 -38 -5 -38 19 0 18 5 25 20 25 11 0 20 5 20 10 0 6 -18 10 -41 10
-35 0 -40 -2 -34 -17 5 -10 10 -33 13 -51 3 -23 9 -32 18 -28 8 3 36 8 62 12
44 6 50 9 61 40 7 19 9 38 6 44 -8 13 -75 13 -75 0z"/>
</g>
</svg>
