<?xml version="1.0" standalone="no"?>
<!DOCTYPE svg PUBLIC "-//W3C//DTD SVG 20010904//EN"
 "http://www.w3.org/TR/2001/REC-SVG-20010904/DTD/svg10.dtd">
<svg version="1.0" xmlns="http://www.w3.org/2000/svg"
 width="50.000000pt" height="725.000000pt" viewBox="0 0 50.000000 725.000000"
 preserveAspectRatio="xMidYMid meet">
<metadata>
Created by potrace 1.16, written by Peter Selinger 2001-2019
</metadata>
<g transform="translate(0.000000,725.000000) scale(0.100000,-0.100000)"
fill="#000000" stroke="none">
<path d="M170 7128 c0 -27 -31 -81 -68 -120 -30 -32 -23 -48 11 -25 32 21 99
123 95 145 -5 27 -38 28 -38 0z"/>
<path d="M170 6678 c0 -27 -31 -81 -68 -120 -33 -36 -21 -48 20 -18 l31 23 -7
-82 c-6 -68 -5 -81 8 -81 11 0 15 18 18 83 2 45 0 86 -4 91 -3 5 5 26 18 48
28 43 28 71 1 76 -12 3 -17 -3 -17 -20z"/>
<path d="M170 6228 c0 -27 -31 -81 -68 -120 -33 -36 -21 -48 20 -18 l31 23 -7
-82 c-6 -68 -5 -81 8 -81 11 0 15 18 18 83 2 45 0 86 -4 91 -3 5 5 26 18 48
28 43 28 71 1 76 -12 3 -17 -3 -17 -20z"/>
<path d="M288 6217 c-80 -14 -75 -31 7 -23 72 7 95 14 95 27 0 11 -25 10 -102
-4z"/>
<path d="M170 5778 c0 -27 -31 -81 -68 -120 -33 -36 -21 -48 20 -18 l31 23 -7
-82 c-6 -68 -5 -81 8 -81 11 0 15 18 18 83 2 45 0 86 -4 91 -3 5 5 26 18 48
28 43 28 71 1 76 -12 3 -17 -3 -17 -20z"/>
<path d="M288 5767 c-59 -10 -79 -27 -33 -27 14 0 25 -5 25 -10 0 -14 -46 -60
-60 -60 -12 0 -13 -27 -1 -34 12 -8 141 26 141 37 0 5 -21 6 -47 2 l-48 -7 28
29 c15 16 27 34 27 41 0 7 9 12 19 12 26 0 51 10 51 21 0 11 -25 10 -102 -4z"/>
<path d="M170 5328 c0 -27 -31 -81 -68 -120 -33 -36 -21 -48 20 -18 l31 23 -7
-82 c-6 -68 -5 -81 8 -81 11 0 15 18 18 83 2 45 0 86 -4 91 -3 5 5 26 18 48
28 43 28 71 1 76 -12 3 -17 -3 -17 -20z"/>
<path d="M288 5317 c-59 -10 -79 -27 -33 -27 14 0 25 -5 25 -10 0 -14 -46 -60
-60 -60 -13 0 -13 -27 -1 -35 6 -3 37 2 71 12 49 13 66 14 81 5 41 -26 55 2
19 38 -23 23 -55 27 -47 6 4 -9 -4 -16 -25 -20 -50 -10 -53 -7 -25 22 15 15
27 33 27 40 0 7 9 12 19 12 26 0 51 10 51 21 0 11 -25 10 -102 -4z"/>
<path d="M170 4878 c0 -27 -31 -81 -68 -120 -33 -36 -21 -48 20 -18 l31 23 -7
-82 c-6 -68 -5 -81 8 -81 11 0 15 18 18 83 2 45 0 86 -4 91 -3 5 5 26 18 48
28 43 28 71 1 76 -12 3 -17 -3 -17 -20z"/>
<path d="M288 4867 c-59 -10 -79 -27 -33 -27 14 0 25 -5 25 -10 0 -14 -46 -60
-60 -60 -13 0 -13 -27 -1 -35 6 -3 37 2 71 12 49 13 66 14 81 5 41 -26 55 2
19 38 -23 23 -55 27 -47 6 4 -9 -4 -16 -25 -20 -50 -10 -53 -7 -25 22 15 15
27 33 27 40 0 7 9 12 19 12 26 0 51 10 51 21 0 11 -25 10 -102 -4z"/>
<path d="M291 4701 c-25 -3 -46 -12 -49 -20 -3 -10 5 -12 39 -6 96 14 109 18
109 26 0 10 -28 10 -99 0z"/>
<path d="M170 4428 c0 -27 -31 -81 -68 -120 -33 -36 -21 -48 20 -18 l31 23 -7
-82 c-6 -68 -5 -81 8 -81 11 0 15 18 18 83 2 45 0 86 -4 91 -3 5 5 26 18 48
28 43 28 71 1 76 -12 3 -17 -3 -17 -20z"/>
<path d="M288 4417 c-59 -10 -79 -27 -33 -27 14 0 25 -5 25 -10 0 -14 -46 -60
-60 -60 -15 0 -12 -30 3 -36 8 -3 26 0 40 5 25 10 27 8 27 -14 0 -17 -6 -25
-22 -27 -12 -2 -23 -9 -26 -17 -3 -10 2 -13 21 -9 22 4 26 1 29 -20 4 -38 28
-40 28 -3 0 27 4 31 35 37 45 8 46 27 1 22 -33 -4 -35 -2 -33 24 2 22 7 28 24
28 12 0 25 -4 28 -10 10 -15 35 -12 35 5 0 8 -9 24 -20 35 -23 23 -55 27 -47
6 4 -9 -4 -16 -25 -20 -50 -10 -53 -7 -25 22 15 15 27 33 27 40 0 7 9 12 19
12 26 0 51 10 51 21 0 11 -25 10 -102 -4z"/>
<path d="M170 3978 c0 -27 -31 -81 -68 -120 -33 -36 -21 -48 20 -18 l31 23 -7
-82 c-6 -68 -5 -81 8 -81 11 0 15 18 18 83 2 45 0 86 -4 91 -3 5 5 26 18 48
28 43 28 71 1 76 -12 3 -17 -3 -17 -20z"/>
<path d="M288 3967 c-59 -10 -79 -27 -33 -27 14 0 25 -5 25 -10 0 -14 -46 -60
-60 -60 -15 0 -12 -30 3 -36 8 -3 26 0 40 5 25 10 27 8 27 -14 0 -17 -6 -25
-22 -27 -12 -2 -23 -9 -26 -17 -3 -10 2 -13 22 -9 20 4 26 1 26 -12 0 -21 -19
-30 -61 -30 -16 0 -29 -5 -29 -10 0 -10 229 -3 240 7 13 12 -31 22 -72 17 -44
-6 -48 -5 -48 14 0 16 8 23 35 28 45 8 46 27 1 22 -33 -4 -35 -2 -33 24 2 22
7 28 24 28 12 0 25 -4 28 -10 10 -15 35 -12 35 5 0 8 -9 24 -20 35 -23 23 -55
27 -47 6 4 -9 -4 -16 -25 -20 -50 -10 -53 -7 -25 22 15 15 27 33 27 40 0 7 9
12 19 12 26 0 51 10 51 21 0 11 -25 10 -102 -4z"/>
</g>
</svg>
