<?xml version="1.0" standalone="no"?>
<!DOCTYPE svg PUBLIC "-//W3C//DTD SVG 20010904//EN"
 "http://www.w3.org/TR/2001/REC-SVG-20010904/DTD/svg10.dtd">
<svg version="1.0" xmlns="http://www.w3.org/2000/svg"
 width="50.000000pt" height="725.000000pt" viewBox="0 0 50.000000 725.000000"
 preserveAspectRatio="xMidYMid meet">
<metadata>
Created by potrace 1.16, written by Peter Selinger 2001-2019
</metadata>
<g transform="translate(0.000000,725.000000) scale(0.100000,-0.100000)"
fill="#000000" stroke="none">
<path d="M177 7106 c-10 -24 -34 -62 -54 -85 -19 -23 -33 -45 -29 -48 12 -12
61 33 99 91 32 46 37 59 27 71 -18 22 -23 19 -43 -29z"/>
<path d="M177 6656 c-10 -24 -34 -62 -54 -85 -41 -49 -37 -65 9 -31 l31 23 -5
-76 c-5 -80 4 -114 22 -87 6 8 10 56 9 107 -1 78 2 97 20 129 17 28 19 39 10
50 -17 21 -22 18 -42 -30z"/>
<path d="M267 6227 c-39 -41 -42 -53 -10 -43 35 12 76 53 70 70 -9 22 -17 19
-60 -27z"/>
<path d="M177 6206 c-10 -24 -34 -62 -54 -85 -41 -49 -37 -65 9 -31 l31 23 -5
-76 c-5 -80 4 -114 22 -87 6 8 10 56 9 107 -1 78 2 97 20 129 17 28 19 39 10
50 -17 21 -22 18 -42 -30z"/>
<path d="M267 5777 c-39 -41 -42 -53 -10 -43 35 12 76 53 70 70 -9 22 -17 19
-60 -27z"/>
<path d="M177 5756 c-10 -24 -34 -62 -54 -85 -41 -49 -37 -65 9 -31 l31 23 -5
-76 c-5 -80 4 -114 22 -87 6 8 10 56 9 107 -1 78 2 97 20 129 17 28 19 39 10
50 -17 21 -22 18 -42 -30z"/>
<path d="M283 5722 c-51 -54 -56 -75 -15 -66 34 8 41 15 23 22 -10 3 -2 15 24
37 23 19 35 36 31 43 -11 18 -17 14 -63 -36z"/>
<path d="M310 5680 c0 -5 5 -10 10 -10 6 0 10 5 10 10 0 6 -4 10 -10 10 -5 0
-10 -4 -10 -10z"/>
<path d="M267 5327 c-39 -41 -42 -53 -10 -43 35 12 76 53 70 70 -9 22 -17 19
-60 -27z"/>
<path d="M177 5306 c-10 -24 -34 -62 -54 -85 -41 -49 -37 -65 9 -31 l31 23 -5
-76 c-5 -80 4 -114 22 -87 6 8 10 56 9 107 -1 78 2 97 20 129 17 28 19 39 10
50 -17 21 -22 18 -42 -30z"/>
<path d="M283 5272 c-48 -51 -56 -77 -20 -67 21 6 21 6 3 -9 -11 -9 -23 -16
-28 -16 -4 0 -8 -9 -8 -21 0 -16 4 -19 18 -14 9 4 32 9 50 12 37 6 43 20 10
25 -19 2 -15 7 25 28 29 15 47 32 47 42 0 23 -16 23 -47 -2 -45 -35 -62 -23
-19 13 24 20 36 38 32 45 -11 18 -17 14 -63 -36z"/>
<path d="M340 5180 c0 -5 9 -10 20 -10 11 0 20 5 20 10 0 6 -9 10 -20 10 -11
0 -20 -4 -20 -10z"/>
<path d="M267 4877 c-39 -41 -42 -53 -10 -43 35 12 76 53 70 70 -9 22 -17 19
-60 -27z"/>
<path d="M177 4856 c-10 -24 -34 -62 -54 -85 -41 -49 -37 -65 9 -31 l31 23 -5
-76 c-5 -80 4 -114 22 -87 6 8 10 56 9 107 -1 78 2 97 20 129 17 28 19 39 10
50 -17 21 -22 18 -42 -30z"/>
<path d="M283 4822 c-48 -51 -56 -77 -20 -67 21 6 21 6 3 -9 -11 -9 -23 -16
-28 -16 -4 0 -8 -9 -8 -21 0 -16 4 -19 18 -14 9 4 32 9 50 12 37 6 43 20 10
25 -19 2 -15 7 25 28 29 15 47 32 47 42 0 23 -16 23 -47 -2 -45 -35 -62 -23
-19 13 24 20 36 38 32 45 -11 18 -17 14 -63 -36z"/>
<path d="M353 4745 c-18 -20 -16 -25 6 -25 11 0 23 -4 26 -10 10 -16 25 -11
25 8 0 20 -18 42 -34 42 -6 -1 -17 -7 -23 -15z"/>
<path d="M267 4427 c-39 -41 -42 -53 -10 -43 35 12 76 53 70 70 -9 22 -17 19
-60 -27z"/>
<path d="M177 4406 c-10 -24 -34 -62 -54 -85 -41 -49 -37 -65 9 -31 l31 23 -5
-76 c-5 -80 4 -114 22 -87 6 8 10 56 9 107 -1 78 2 97 20 129 17 28 19 39 10
50 -17 21 -22 18 -42 -30z"/>
<path d="M283 4372 c-48 -51 -56 -77 -20 -67 21 6 21 6 3 -9 -11 -9 -23 -16
-28 -16 -4 0 -8 -9 -8 -21 0 -17 4 -19 23 -13 46 15 52 11 55 -33 2 -34 0 -43
-12 -43 -21 0 -20 -24 0 -41 24 -20 47 15 40 61 -7 48 2 80 25 80 10 0 21 -4
24 -10 11 -18 26 -10 23 11 -5 33 -32 46 -53 26 -9 -9 -28 -17 -43 -17 -26 1
-25 2 13 25 22 14 43 25 48 25 4 0 7 9 7 20 0 11 -5 20 -11 20 -6 0 -22 -9
-36 -20 -45 -35 -62 -23 -19 13 24 20 36 38 32 45 -11 18 -17 14 -63 -36z"/>
<path d="M267 3977 c-39 -41 -42 -53 -10 -43 35 12 76 53 70 70 -9 22 -17 19
-60 -27z"/>
<path d="M177 3956 c-10 -24 -34 -62 -54 -85 -41 -49 -37 -65 9 -31 l31 23 -5
-76 c-5 -80 4 -114 22 -87 6 8 10 56 9 107 -1 78 2 97 20 129 17 28 19 39 10
50 -17 21 -22 18 -42 -30z"/>
<path d="M283 3922 c-48 -51 -56 -77 -20 -67 21 6 21 6 3 -9 -11 -9 -23 -16
-28 -16 -4 0 -8 -9 -8 -21 0 -17 4 -19 23 -13 46 15 52 11 55 -33 2 -34 0 -43
-12 -43 -21 0 -20 -24 0 -41 24 -20 47 15 40 61 -7 48 2 80 25 80 10 0 21 -4
24 -10 11 -18 26 -10 23 11 -5 33 -32 46 -53 26 -9 -9 -28 -17 -43 -17 -26 1
-25 2 13 25 22 14 43 25 48 25 4 0 7 9 7 20 0 11 -5 20 -11 20 -6 0 -22 -9
-36 -20 -45 -35 -62 -23 -19 13 24 20 36 38 32 45 -11 18 -17 14 -63 -36z"/>
<path d="M226 3755 c-19 -30 -20 -35 -3 -35 16 0 47 32 47 48 0 21 -27 13 -44
-13z"/>
<path d="M267 3527 c-39 -41 -42 -53 -10 -43 35 12 76 53 70 70 -9 22 -17 19
-60 -27z"/>
<path d="M177 3506 c-10 -24 -34 -62 -54 -85 -41 -49 -37 -65 9 -31 l31 23 -5
-76 c-5 -80 4 -114 22 -87 6 8 10 56 9 107 -1 78 2 97 20 129 17 28 19 39 10
50 -17 21 -22 18 -42 -30z"/>
<path d="M283 3472 c-48 -51 -56 -77 -20 -67 21 6 21 6 3 -9 -11 -9 -23 -16
-28 -16 -4 0 -8 -9 -8 -21 0 -17 4 -19 23 -13 46 15 52 11 55 -33 2 -34 0 -43
-12 -43 -21 0 -20 -24 0 -41 24 -20 47 15 40 61 -7 48 2 80 25 80 10 0 21 -4
24 -10 11 -18 26 -10 23 11 -5 33 -32 46 -53 26 -9 -9 -28 -17 -43 -17 -26 1
-25 2 13 25 22 14 43 25 48 25 4 0 7 9 7 20 0 11 -5 20 -11 20 -6 0 -22 -9
-36 -20 -45 -35 -62 -23 -19 13 24 20 36 38 32 45 -11 18 -17 14 -63 -36z"/>
<path d="M226 3305 c-19 -30 -20 -35 -3 -35 16 0 47 32 47 48 0 21 -27 13 -44
-13z"/>
<path d="M370 3318 c1 -21 26 -48 44 -48 21 0 20 23 -2 43 -22 20 -42 22 -42
5z"/>
</g>
</svg>
