<?xml version="1.0" standalone="no"?>
<!DOCTYPE svg PUBLIC "-//W3C//DTD SVG 20010904//EN"
 "http://www.w3.org/TR/2001/REC-SVG-20010904/DTD/svg10.dtd">
<svg version="1.0" xmlns="http://www.w3.org/2000/svg"
 width="50.000000pt" height="725.000000pt" viewBox="0 0 50.000000 725.000000"
 preserveAspectRatio="xMidYMid meet">
<metadata>
Created by potrace 1.16, written by Peter Selinger 2001-2019
</metadata>
<g transform="translate(0.000000,725.000000) scale(0.100000,-0.100000)"
fill="#000000" stroke="none">
<path d="M150 7119 c0 -12 -12 -43 -27 -70 -27 -50 -26 -72 3 -49 23 20 66
110 60 126 -8 22 -36 17 -36 -7z"/>
<path d="M150 6669 c0 -12 -12 -43 -27 -70 -30 -57 -23 -77 13 -35 l25 28 23
-21 c28 -26 36 -26 36 -1 0 11 -11 27 -25 36 -20 13 -23 19 -14 36 13 24 5 48
-16 48 -9 0 -15 -9 -15 -21z"/>
<path d="M150 6219 c0 -12 -12 -43 -27 -70 -30 -57 -23 -77 13 -35 l25 28 23
-21 c28 -26 36 -26 36 -1 0 11 -11 27 -25 36 -20 13 -23 19 -14 36 13 24 5 48
-16 48 -9 0 -15 -9 -15 -21z"/>
<path d="M150 6091 c0 -10 -16 -43 -35 -71 -39 -58 -40 -70 -2 -45 31 20 72
97 64 118 -9 23 -27 21 -27 -2z"/>
<path d="M150 5769 c0 -12 -12 -43 -27 -70 -30 -57 -23 -77 13 -35 l25 28 23
-21 c28 -26 36 -26 36 -1 0 11 -11 27 -25 36 -20 13 -23 19 -14 36 13 24 5 48
-16 48 -9 0 -15 -9 -15 -21z"/>
<path d="M150 5642 c0 -11 -16 -43 -35 -72 -19 -29 -35 -54 -35 -56 0 -12 22
0 50 27 29 29 32 30 49 15 10 -9 23 -16 29 -16 21 0 13 30 -12 41 -18 9 -23
19 -22 42 0 16 -5 32 -11 34 -8 3 -13 -4 -13 -15z"/>
<path d="M150 5319 c0 -12 -12 -43 -27 -70 -30 -57 -23 -77 13 -35 l25 28 23
-21 c28 -26 36 -26 36 -1 0 11 -11 27 -25 36 -20 13 -23 19 -14 36 13 24 5 48
-16 48 -9 0 -15 -9 -15 -21z"/>
<path d="M237 5213 c4 -112 9 -143 23 -143 6 0 10 48 10 120 0 109 -2 120 -18
120 -16 0 -18 -9 -15 -97z"/>
<path d="M150 5192 c0 -11 -16 -43 -35 -72 -19 -29 -35 -54 -35 -56 0 -12 22
0 50 27 29 29 32 30 49 15 10 -9 23 -16 29 -16 21 0 13 30 -12 41 -18 9 -23
19 -22 42 0 16 -5 32 -11 34 -8 3 -13 -4 -13 -15z"/>
<path d="M150 4869 c0 -12 -12 -43 -27 -70 -30 -57 -23 -77 13 -35 l25 28 23
-21 c28 -26 36 -26 36 -1 0 11 -11 27 -25 36 -20 13 -23 19 -14 36 13 24 5 48
-16 48 -9 0 -15 -9 -15 -21z"/>
<path d="M310 4860 c0 -5 7 -10 15 -10 12 0 15 -19 15 -115 0 -69 4 -115 10
-115 13 0 18 28 24 148 l6 102 -35 0 c-19 0 -35 -4 -35 -10z"/>
<path d="M237 4763 c4 -112 9 -143 23 -143 6 0 10 45 10 110 0 91 3 110 15
110 8 0 15 5 15 10 0 6 -15 10 -33 10 l-33 0 3 -97z"/>
<path d="M150 4742 c0 -11 -16 -43 -35 -72 -19 -29 -35 -54 -35 -56 0 -12 22
0 50 27 29 29 32 30 49 15 10 -9 23 -16 29 -16 21 0 13 30 -12 41 -18 9 -23
19 -22 42 0 16 -5 32 -11 34 -8 3 -13 -4 -13 -15z"/>
<path d="M150 4419 c0 -12 -12 -43 -27 -70 -30 -57 -23 -77 13 -35 l25 28 23
-21 c28 -26 36 -26 36 -1 0 11 -11 27 -25 36 -20 13 -23 19 -14 36 13 24 5 48
-16 48 -9 0 -15 -9 -15 -21z"/>
<path d="M310 4410 c0 -5 7 -10 15 -10 10 0 15 -10 15 -30 0 -23 -5 -30 -19
-30 -11 0 -26 -3 -35 -6 -13 -5 -16 1 -16 25 0 21 5 31 15 31 8 0 15 5 15 10
0 6 -15 10 -33 10 l-33 0 3 -97 c4 -112 9 -143 23 -143 6 0 10 31 10 69 0 63
2 69 23 75 45 12 47 10 47 -69 0 -42 4 -75 10 -75 13 0 18 28 24 148 l6 102
-35 0 c-19 0 -35 -4 -35 -10z"/>
<path d="M150 4292 c0 -11 -16 -43 -35 -72 -19 -29 -35 -54 -35 -56 0 -12 22
0 50 27 29 29 32 30 49 15 10 -9 23 -16 29 -16 21 0 13 30 -12 41 -18 9 -23
19 -22 42 0 16 -5 32 -11 34 -8 3 -13 -4 -13 -15z"/>
<path d="M150 3969 c0 -12 -12 -43 -27 -70 -30 -57 -23 -77 13 -35 l25 28 23
-21 c28 -26 36 -26 36 -1 0 11 -11 27 -25 36 -20 13 -23 19 -14 36 13 24 5 48
-16 48 -9 0 -15 -9 -15 -21z"/>
<path d="M310 3960 c0 -5 7 -10 15 -10 10 0 15 -10 15 -30 0 -23 -5 -30 -19
-30 -11 0 -26 -3 -35 -6 -13 -5 -16 1 -16 25 0 21 5 31 15 31 8 0 15 5 15 10
0 6 -15 10 -33 10 l-33 0 3 -97 c2 -54 6 -108 9 -120 7 -35 24 -27 24 11 0 35
13 46 51 46 16 0 19 -7 19 -40 0 -43 17 -55 24 -17 3 12 7 68 10 125 l6 102
-35 0 c-19 0 -35 -4 -35 -10z m30 -114 c0 -20 -6 -25 -35 -28 -31 -3 -35 -1
-35 18 0 22 14 30 53 33 12 1 17 -6 17 -23z"/>
<path d="M150 3842 c0 -11 -16 -43 -35 -72 -19 -29 -35 -54 -35 -56 0 -12 22
0 50 27 29 29 32 30 49 15 10 -9 23 -16 29 -16 21 0 13 30 -12 41 -18 9 -23
19 -22 42 0 16 -5 32 -11 34 -8 3 -13 -4 -13 -15z"/>
<path d="M150 3519 c0 -12 -12 -43 -27 -70 -30 -57 -23 -77 13 -35 l25 28 23
-21 c28 -26 36 -26 36 -1 0 11 -11 27 -25 36 -20 13 -23 19 -14 36 13 24 5 48
-16 48 -9 0 -15 -9 -15 -21z"/>
<path d="M310 3510 c0 -5 7 -10 15 -10 10 0 15 -10 15 -30 0 -23 -5 -30 -19
-30 -11 0 -26 -3 -35 -6 -13 -5 -16 1 -16 25 0 21 5 31 15 31 8 0 15 5 15 10
0 6 -15 10 -33 10 l-32 0 4 -115 3 -115 -32 0 c-21 0 -30 -4 -27 -12 4 -14 18
-15 160 -3 53 4 97 11 97 15 0 13 -31 21 -53 14 -20 -6 -20 -4 -14 110 l6 116
-34 0 c-19 0 -35 -4 -35 -10z m30 -114 c0 -20 -6 -25 -35 -28 -31 -3 -35 -1
-35 18 0 22 14 30 53 33 12 1 17 -6 17 -23z m0 -76 c0 -23 -5 -30 -19 -30 -11
0 -26 -3 -35 -6 -12 -5 -16 1 -16 24 0 32 10 40 48 41 18 1 22 -4 22 -29z"/>
<path d="M150 3392 c0 -11 -16 -43 -35 -72 -19 -29 -35 -54 -35 -56 0 -12 22
0 50 27 29 29 32 30 49 15 10 -9 23 -16 29 -16 21 0 13 30 -12 41 -18 9 -23
19 -22 42 0 16 -5 32 -11 34 -8 3 -13 -4 -13 -15z"/>
</g>
</svg>
