<?xml version="1.0" standalone="no"?>
<!DOCTYPE svg PUBLIC "-//W3C//DTD SVG 20010904//EN"
 "http://www.w3.org/TR/2001/REC-SVG-20010904/DTD/svg10.dtd">
<svg version="1.0" xmlns="http://www.w3.org/2000/svg"
 width="50.000000pt" height="725.000000pt" viewBox="0 0 50.000000 725.000000"
 preserveAspectRatio="xMidYMid meet">
<metadata>
Created by potrace 1.16, written by Peter Selinger 2001-2019
</metadata>
<g transform="translate(0.000000,725.000000) scale(0.100000,-0.100000)"
fill="#000000" stroke="none">
<path d="M160 7141 c0 -10 -16 -42 -35 -71 -36 -53 -42 -70 -26 -70 11 0 59
60 87 108 16 29 17 34 4 42 -22 14 -30 12 -30 -9z"/>
<path d="M160 6691 c0 -10 -16 -42 -35 -71 -19 -29 -35 -56 -35 -61 0 -12 17
-11 25 1 16 26 21 3 17 -81 -4 -75 -2 -91 9 -87 11 4 14 31 16 111 1 89 5 113
22 143 25 42 26 50 5 58 -23 9 -24 8 -24 -13z"/>
<path d="M160 6241 c0 -10 -16 -42 -35 -71 -19 -29 -35 -56 -35 -61 0 -12 17
-11 25 1 16 26 21 3 17 -81 -4 -75 -2 -91 9 -87 11 4 14 31 16 111 1 89 5 113
22 143 25 42 26 50 5 58 -23 9 -24 8 -24 -13z"/>
<path d="M268 6217 c-54 -10 -80 -27 -40 -27 58 0 122 14 122 26 0 15 -1 15
-82 1z"/>
<path d="M160 5791 c0 -10 -16 -42 -35 -71 -19 -29 -35 -56 -35 -61 0 -12 17
-11 25 1 16 26 21 3 17 -81 -4 -75 -2 -91 9 -87 11 4 14 31 16 111 1 89 5 113
22 143 25 42 26 50 5 58 -23 9 -24 8 -24 -13z"/>
<path d="M268 5767 c-54 -10 -80 -27 -40 -27 58 0 122 14 122 26 0 15 -1 15
-82 1z"/>
<path d="M253 5723 c-18 -2 -33 -9 -33 -15 0 -7 16 -9 46 -4 26 3 53 6 60 6 8
0 14 5 14 10 0 10 -24 11 -87 3z"/>
<path d="M160 5341 c0 -10 -16 -42 -35 -71 -19 -29 -35 -56 -35 -61 0 -12 17
-11 25 1 16 26 21 3 17 -81 -4 -75 -2 -91 9 -87 11 4 14 31 16 111 1 89 5 113
22 143 25 42 26 50 5 58 -23 9 -24 8 -24 -13z"/>
<path d="M268 5317 c-54 -10 -80 -27 -40 -27 58 0 122 14 122 26 0 15 -1 15
-82 1z"/>
<path d="M253 5273 c-18 -2 -33 -9 -33 -15 0 -7 16 -9 46 -4 26 3 53 6 60 6 8
0 14 5 14 10 0 10 -24 11 -87 3z"/>
<path d="M328 5243 c-58 -6 -45 -23 18 -23 40 0 55 3 52 13 -5 14 -17 15 -70
10z"/>
<path d="M190 5214 c0 -11 5 -14 16 -10 9 3 29 6 45 6 16 0 29 5 29 10 0 6
-20 10 -45 10 -35 0 -45 -4 -45 -16z"/>
<path d="M268 4893 c-2 -22 -9 -29 -30 -31 -35 -4 -37 -22 -3 -22 14 0 25 -4
25 -10 0 -5 -9 -10 -20 -10 -11 0 -20 -4 -20 -10 0 -5 7 -10 16 -10 8 0 12 -4
9 -10 -3 -5 -17 -10 -31 -10 -15 0 -24 -6 -24 -16 0 -11 6 -14 23 -8 21 6 20
5 -5 -23 -30 -31 -35 -43 -17 -43 16 0 86 75 91 96 2 12 13 20 31 22 34 4 36
22 1 22 -14 0 -23 4 -19 10 3 6 17 10 31 10 15 0 24 6 24 16 0 12 -6 15 -25
10 -21 -5 -24 -3 -22 16 1 14 -4 23 -15 26 -12 2 -17 -5 -20 -25z"/>
<path d="M160 4891 c0 -10 -16 -42 -35 -71 -19 -29 -35 -56 -35 -61 0 -12 17
-11 25 1 16 26 21 3 17 -81 -4 -75 -2 -91 9 -87 11 4 14 31 16 111 1 89 5 113
22 143 25 42 26 50 5 58 -23 9 -24 8 -24 -13z"/>
<path d="M328 4793 c-58 -6 -45 -23 18 -23 40 0 55 3 52 13 -5 14 -17 15 -70
10z"/>
<path d="M268 4443 c-2 -22 -9 -29 -30 -31 -35 -4 -37 -22 -3 -22 14 0 25 -4
25 -10 0 -5 -9 -10 -20 -10 -11 0 -20 -4 -20 -10 0 -5 7 -10 16 -10 8 0 12 -4
9 -10 -3 -5 -17 -10 -31 -10 -15 0 -24 -6 -24 -16 0 -11 6 -14 23 -8 21 6 20
5 -5 -23 -30 -31 -35 -43 -17 -43 16 0 86 75 91 96 2 12 13 20 31 22 34 4 36
22 1 22 -14 0 -23 4 -19 10 3 6 17 10 31 10 15 0 24 6 24 16 0 12 -6 15 -25
10 -21 -5 -24 -3 -22 16 1 14 -4 23 -15 26 -12 2 -17 -5 -20 -25z"/>
<path d="M160 4441 c0 -10 -16 -42 -35 -71 -19 -29 -35 -56 -35 -61 0 -12 17
-11 25 1 16 26 21 3 17 -81 -4 -75 -2 -91 9 -87 11 4 14 31 16 111 1 89 5 113
22 143 25 42 26 50 5 58 -23 9 -24 8 -24 -13z"/>
<path d="M328 4343 c-21 -2 -38 -7 -38 -11 0 -4 22 -30 49 -56 41 -41 54 -48
75 -42 35 9 33 20 -8 34 -18 7 -41 21 -51 32 -18 20 -17 20 14 20 22 0 31 4
29 13 -5 14 -17 15 -70 10z"/>
<path d="M268 3993 c-2 -22 -9 -29 -30 -31 -35 -4 -37 -22 -3 -22 14 0 25 -4
25 -10 0 -5 -9 -10 -20 -10 -11 0 -20 -4 -20 -10 0 -5 7 -10 16 -10 8 0 12 -4
9 -10 -3 -5 -17 -10 -31 -10 -15 0 -24 -6 -24 -16 0 -11 6 -14 23 -8 21 6 20
5 -5 -23 -30 -31 -35 -43 -17 -43 16 0 86 75 91 96 2 12 13 20 31 22 34 4 36
22 1 22 -14 0 -23 4 -19 10 3 6 17 10 31 10 15 0 24 6 24 16 0 12 -6 15 -25
10 -21 -5 -24 -3 -22 16 1 14 -4 23 -15 26 -12 2 -17 -5 -20 -25z"/>
<path d="M160 3991 c0 -10 -16 -42 -35 -71 -19 -29 -35 -56 -35 -61 0 -12 17
-11 25 1 16 26 21 3 17 -81 -4 -75 -2 -91 9 -87 11 4 14 31 16 111 1 89 5 113
22 143 25 42 26 50 5 58 -23 9 -24 8 -24 -13z"/>
<path d="M328 3893 c-21 -2 -38 -7 -38 -11 0 -4 22 -30 49 -56 41 -41 54 -48
75 -42 35 9 33 20 -8 34 -18 7 -41 21 -51 32 -18 20 -17 20 14 20 22 0 31 4
29 13 -5 14 -17 15 -70 10z"/>
<path d="M258 3813 c-16 -2 -28 -9 -28 -15 0 -7 14 -8 38 -4 20 3 45 6 55 6 9
0 17 5 17 10 0 10 -29 11 -82 3z"/>
<path d="M268 3543 c-2 -22 -9 -29 -30 -31 -35 -4 -37 -22 -3 -22 14 0 25 -4
25 -10 0 -5 -9 -10 -20 -10 -11 0 -20 -4 -20 -10 0 -5 7 -10 16 -10 8 0 12 -4
9 -10 -3 -5 -17 -10 -31 -10 -15 0 -24 -6 -24 -16 0 -11 6 -14 23 -8 21 6 20
5 -5 -23 -30 -31 -35 -43 -17 -43 16 0 86 75 91 96 2 12 13 20 31 22 34 4 36
22 1 22 -14 0 -23 4 -19 10 3 6 17 10 31 10 15 0 24 6 24 16 0 12 -6 15 -25
10 -21 -5 -24 -3 -22 16 1 14 -4 23 -15 26 -12 2 -17 -5 -20 -25z"/>
<path d="M160 3541 c0 -10 -16 -42 -35 -71 -19 -29 -35 -56 -35 -61 0 -12 17
-11 25 1 16 26 21 3 17 -81 -4 -75 -2 -91 9 -87 11 4 14 31 16 111 1 89 5 113
22 143 25 42 26 50 5 58 -23 9 -24 8 -24 -13z"/>
<path d="M328 3443 c-21 -2 -38 -7 -38 -11 0 -4 22 -30 49 -56 41 -41 54 -48
75 -42 35 9 33 20 -8 34 -18 7 -41 21 -51 32 -18 20 -17 20 14 20 22 0 31 4
29 13 -5 14 -17 15 -70 10z"/>
<path d="M258 3363 c-16 -2 -28 -9 -28 -15 0 -7 14 -8 38 -4 20 3 45 6 55 6 9
0 17 5 17 10 0 10 -29 11 -82 3z"/>
<path d="M261 3321 c-25 -3 -46 -12 -49 -20 -3 -10 2 -12 19 -8 13 3 50 9 82
12 31 4 57 11 57 16 0 10 -38 10 -109 0z"/>
<path d="M268 3093 c-2 -22 -9 -29 -30 -31 -35 -4 -37 -22 -3 -22 14 0 25 -4
25 -10 0 -5 -9 -10 -20 -10 -11 0 -20 -4 -20 -10 0 -5 7 -10 16 -10 8 0 12 -4
9 -10 -3 -5 -17 -10 -31 -10 -15 0 -24 -6 -24 -16 0 -11 6 -14 23 -8 21 6 20
5 -5 -23 -30 -31 -35 -43 -17 -43 16 0 86 75 91 96 2 12 13 20 31 22 34 4 36
22 1 22 -14 0 -23 4 -19 10 3 6 17 10 31 10 15 0 24 6 24 16 0 12 -6 15 -25
10 -21 -5 -24 -3 -22 16 1 14 -4 23 -15 26 -12 2 -17 -5 -20 -25z"/>
<path d="M160 3091 c0 -10 -16 -42 -35 -71 -19 -29 -35 -56 -35 -61 0 -12 17
-11 25 1 16 26 21 3 17 -81 -4 -75 -2 -91 9 -87 11 4 14 31 16 111 1 89 5 113
22 143 25 42 26 50 5 58 -23 9 -24 8 -24 -13z"/>
<path d="M328 2993 c-21 -2 -38 -7 -38 -11 0 -4 22 -30 49 -56 41 -41 54 -48
75 -42 35 9 33 20 -8 34 -18 7 -41 21 -51 32 -18 20 -17 20 14 20 22 0 31 4
29 13 -5 14 -17 15 -70 10z"/>
<path d="M270 2930 c0 -13 -7 -20 -20 -20 -11 0 -20 -4 -20 -10 0 -5 9 -10 20
-10 30 0 24 -18 -7 -22 -14 -2 -28 -9 -31 -17 -3 -10 3 -11 27 -6 31 7 31 6
31 -34 0 -53 15 -52 26 2 8 38 12 42 42 45 43 4 41 22 -3 22 -19 0 -35 5 -35
10 0 6 9 10 20 10 11 0 20 5 20 10 0 6 -9 10 -20 10 -11 0 -20 7 -20 15 0 8
-7 15 -15 15 -8 0 -15 -9 -15 -20z"/>
</g>
</svg>
