<?xml version="1.0" standalone="no"?>
<!DOCTYPE svg PUBLIC "-//W3C//DTD SVG 20010904//EN"
 "http://www.w3.org/TR/2001/REC-SVG-20010904/DTD/svg10.dtd">
<svg version="1.0" xmlns="http://www.w3.org/2000/svg"
 width="50.000000pt" height="725.000000pt" viewBox="0 0 50.000000 725.000000"
 preserveAspectRatio="xMidYMid meet">
<metadata>
Created by potrace 1.16, written by Peter Selinger 2001-2019
</metadata>
<g transform="translate(0.000000,725.000000) scale(0.100000,-0.100000)"
fill="#000000" stroke="none">
<path d="M170 7142 c0 -10 -16 -44 -35 -76 -40 -66 -40 -66 -22 -66 18 0 100
128 93 145 -8 21 -36 18 -36 -3z"/>
<path d="M170 6692 c0 -10 -16 -44 -35 -76 -19 -32 -35 -60 -35 -62 0 -11 25
-2 37 14 13 15 14 6 8 -70 -5 -76 -4 -88 9 -88 13 0 16 15 17 83 2 123 3 132
23 161 10 15 15 34 12 42 -8 20 -36 17 -36 -4z"/>
<path d="M170 6242 c0 -10 -16 -44 -35 -76 -19 -32 -35 -60 -35 -62 0 -11 25
-2 37 14 13 15 14 6 8 -70 -5 -76 -4 -88 9 -88 13 0 16 15 17 83 2 123 3 132
23 161 10 15 15 34 12 42 -8 20 -36 17 -36 -4z"/>
<path d="M248 6208 c-69 -15 -61 -32 10 -23 62 8 72 11 72 26 0 11 -18 10 -82
-3z"/>
<path d="M170 5792 c0 -10 -16 -44 -35 -76 -19 -32 -35 -60 -35 -62 0 -11 25
-2 37 14 13 15 14 6 8 -70 -5 -76 -4 -88 9 -88 13 0 16 15 17 83 2 123 3 132
23 161 10 15 15 34 12 42 -8 20 -36 17 -36 -4z"/>
<path d="M248 5758 c-49 -10 -65 -28 -27 -28 20 0 21 -1 5 -22 -40 -56 -34
-66 29 -48 47 13 64 36 20 27 -17 -3 -24 0 -20 7 3 6 8 19 11 28 3 9 18 18 32
20 29 3 44 29 15 27 -10 -1 -39 -6 -65 -11z"/>
<path d="M170 5342 c0 -10 -16 -44 -35 -76 -19 -32 -35 -60 -35 -62 0 -11 25
-2 37 14 13 15 14 6 8 -70 -5 -76 -4 -88 9 -88 13 0 16 15 17 83 2 123 3 132
23 161 10 15 15 34 12 42 -8 20 -36 17 -36 -4z"/>
<path d="M248 5308 c-50 -11 -63 -24 -27 -30 l21 -3 -21 -27 c-31 -39 -27 -52
12 -43 17 5 47 8 65 7 25 0 32 3 30 15 -5 28 -34 39 -53 19 -23 -22 -28 -16
-12 17 7 16 22 27 36 29 29 3 42 29 14 27 -10 -1 -39 -6 -65 -11z"/>
<path d="M170 4892 c0 -10 -16 -44 -35 -76 -19 -32 -35 -60 -35 -62 0 -11 25
-2 37 14 13 15 14 6 8 -70 -5 -76 -4 -88 9 -88 13 0 16 15 17 83 2 123 3 132
23 161 10 15 15 34 12 42 -8 20 -36 17 -36 -4z"/>
<path d="M248 4858 c-50 -11 -63 -24 -27 -30 l21 -3 -21 -27 c-31 -39 -27 -52
12 -43 17 5 47 8 65 7 25 0 32 3 30 15 -5 28 -34 39 -53 19 -23 -22 -28 -16
-12 17 7 16 22 27 36 29 29 3 42 29 14 27 -10 -1 -39 -6 -65 -11z"/>
<path d="M223 4723 c-40 -8 -26 -26 15 -19 20 3 43 6 50 6 6 0 12 5 12 10 0
10 -34 11 -77 3z"/>
<path d="M170 4442 c0 -10 -16 -44 -35 -76 -19 -32 -35 -60 -35 -62 0 -11 25
-2 37 14 13 15 14 6 8 -70 -5 -76 -4 -88 9 -88 13 0 16 15 17 83 2 123 3 132
23 161 10 15 15 34 12 42 -8 20 -36 17 -36 -4z"/>
<path d="M248 4408 c-50 -11 -63 -24 -27 -30 l21 -3 -21 -27 c-27 -34 -27 -46
2 -50 12 -2 22 -7 22 -13 0 -5 -10 -11 -22 -13 -31 -5 -29 -22 2 -22 16 0 25
-6 25 -15 0 -8 5 -15 10 -15 6 0 10 9 10 20 0 11 7 20 15 20 8 0 15 5 15 10 0
6 -7 10 -15 10 -9 0 -15 9 -15 21 0 18 4 20 31 14 26 -6 30 -4 27 10 -5 30
-33 41 -53 21 -23 -22 -28 -16 -12 17 7 16 22 27 36 29 29 3 42 29 14 27 -10
-1 -39 -6 -65 -11z"/>
<path d="M170 3992 c0 -10 -16 -44 -35 -76 -19 -32 -35 -60 -35 -62 0 -11 25
-2 37 14 13 15 14 6 8 -70 -5 -76 -4 -88 9 -88 13 0 16 15 17 83 2 123 3 132
23 161 10 15 15 34 12 42 -8 20 -36 17 -36 -4z"/>
<path d="M248 3958 c-50 -11 -63 -24 -27 -30 l21 -3 -21 -27 c-27 -34 -27 -46
2 -50 12 -2 22 -7 22 -13 0 -5 -10 -11 -22 -13 -32 -5 -29 -22 3 -22 37 0 25
-24 -14 -28 -32 -3 -41 -15 -21 -27 13 -8 129 27 129 39 0 4 -11 6 -25 4 -17
-4 -25 -1 -25 8 0 8 7 14 15 14 8 0 15 5 15 10 0 6 -7 10 -15 10 -9 0 -15 9
-15 21 0 18 4 20 31 14 26 -6 30 -4 27 10 -5 30 -33 41 -53 21 -23 -22 -28
-16 -12 17 7 16 22 27 36 29 29 3 42 29 14 27 -10 -1 -39 -6 -65 -11z"/>
<path d="M170 3542 c0 -10 -16 -44 -35 -76 -19 -32 -35 -60 -35 -62 0 -11 25
-2 37 14 13 15 14 6 8 -70 -5 -76 -4 -88 9 -88 13 0 16 15 17 83 2 123 3 132
23 161 10 15 15 34 12 42 -8 20 -36 17 -36 -4z"/>
<path d="M248 3508 c-50 -11 -63 -24 -27 -30 l21 -3 -21 -27 c-27 -34 -27 -46
2 -50 12 -2 22 -7 22 -13 0 -5 -10 -11 -22 -13 -32 -5 -29 -22 3 -22 37 0 25
-24 -14 -28 -32 -3 -41 -15 -21 -27 13 -8 129 27 129 39 0 4 -11 6 -25 4 -17
-4 -25 -1 -25 8 0 8 7 14 15 14 8 0 15 5 15 10 0 6 -7 10 -15 10 -9 0 -15 9
-15 21 0 18 4 20 31 14 26 -6 30 -4 27 10 -5 30 -33 41 -53 21 -23 -22 -28
-16 -12 17 7 16 22 27 36 29 29 3 42 29 14 27 -10 -1 -39 -6 -65 -11z"/>
<path d="M340 3395 c0 -36 4 -65 9 -65 14 0 21 27 21 81 0 37 -4 49 -15 49
-12 0 -15 -14 -15 -65z"/>
<path d="M170 3092 c0 -10 -16 -44 -35 -76 -19 -32 -35 -60 -35 -62 0 -11 25
-2 37 14 13 15 14 6 8 -70 -5 -76 -4 -88 9 -88 13 0 16 15 17 83 2 123 3 132
23 161 10 15 15 34 12 42 -8 20 -36 17 -36 -4z"/>
<path d="M388 2970 c3 -123 2 -140 -12 -140 -21 0 -20 -13 2 -33 37 -34 41
-23 44 136 2 123 0 154 -11 165 -8 6 -17 12 -20 12 -3 0 -4 -63 -3 -140z"/>
<path d="M248 3058 c-50 -11 -63 -24 -27 -30 l21 -3 -21 -27 c-27 -34 -27 -46
2 -50 12 -2 22 -7 22 -13 0 -5 -10 -11 -22 -13 -32 -5 -29 -22 3 -22 37 0 25
-24 -14 -28 -32 -3 -41 -15 -21 -27 13 -8 129 27 129 39 0 4 -11 6 -25 4 -17
-4 -25 -1 -25 8 0 8 7 14 15 14 8 0 15 5 15 10 0 6 -7 10 -15 10 -9 0 -15 9
-15 21 0 18 4 20 31 14 26 -6 30 -4 27 10 -5 30 -33 41 -53 21 -23 -22 -28
-16 -12 17 7 16 22 27 36 29 29 3 42 29 14 27 -10 -1 -39 -6 -65 -11z"/>
<path d="M340 2945 c0 -36 4 -65 9 -65 14 0 21 27 21 81 0 37 -4 49 -15 49
-12 0 -15 -14 -15 -65z"/>
</g>
</svg>
