<?xml version="1.0" standalone="no"?>
<!DOCTYPE svg PUBLIC "-//W3C//DTD SVG 20010904//EN"
 "http://www.w3.org/TR/2001/REC-SVG-20010904/DTD/svg10.dtd">
<svg version="1.0" xmlns="http://www.w3.org/2000/svg"
 width="50.000000pt" height="725.000000pt" viewBox="0 0 50.000000 725.000000"
 preserveAspectRatio="xMidYMid meet">
<metadata>
Created by potrace 1.16, written by Peter Selinger 2001-2019
</metadata>
<g transform="translate(0.000000,725.000000) scale(0.100000,-0.100000)"
fill="#000000" stroke="none">
<path d="M177 7122 c-3 -15 -22 -52 -42 -81 -19 -30 -33 -56 -30 -59 9 -9 46
31 82 86 28 43 32 56 22 68 -17 21 -26 17 -32 -14z"/>
<path d="M177 6672 c-3 -15 -22 -52 -42 -81 -38 -57 -39 -77 -4 -45 l22 19 -5
-77 c-5 -71 2 -111 17 -96 3 3 8 52 11 109 3 79 8 110 24 137 16 26 18 37 9
48 -17 21 -26 17 -32 -14z"/>
<path d="M177 6222 c-3 -15 -22 -52 -42 -81 -38 -57 -39 -77 -4 -45 l22 19 -5
-77 c-5 -71 2 -111 17 -96 3 3 8 52 11 109 3 79 8 110 24 137 16 26 18 37 9
48 -17 21 -26 17 -32 -14z"/>
<path d="M338 6243 c-38 -6 -35 -23 3 -23 29 0 31 -2 25 -26 -9 -34 13 -28 34
10 13 24 13 28 0 36 -8 5 -19 9 -25 8 -5 0 -22 -3 -37 -5z"/>
<path d="M260 6220 c0 -5 9 -10 20 -10 11 0 20 5 20 10 0 6 -9 10 -20 10 -11
0 -20 -4 -20 -10z"/>
<path d="M177 5772 c-3 -15 -22 -52 -42 -81 -38 -57 -39 -77 -4 -45 l22 19 -5
-77 c-5 -71 2 -111 17 -96 3 3 8 52 11 109 3 79 8 110 24 137 16 26 18 37 9
48 -17 21 -26 17 -32 -14z"/>
<path d="M338 5793 c-37 -6 -36 -23 2 -23 45 0 39 -28 -7 -35 -56 -10 -73 -15
-73 -25 0 -7 55 -5 106 5 29 6 53 63 33 76 -8 5 -18 8 -24 7 -5 0 -22 -3 -37
-5z"/>
<path d="M260 5770 c0 -5 9 -10 20 -10 11 0 20 5 20 10 0 6 -9 10 -20 10 -11
0 -20 -4 -20 -10z"/>
<path d="M177 5322 c-3 -15 -22 -52 -42 -81 -38 -57 -39 -77 -4 -45 l22 19 -5
-77 c-5 -71 2 -111 17 -96 3 3 8 52 11 109 3 79 8 110 24 137 16 26 18 37 9
48 -17 21 -26 17 -32 -14z"/>
<path d="M338 5343 c-37 -6 -36 -23 2 -23 20 0 30 -5 30 -15 0 -8 -3 -15 -7
-15 -5 -1 -27 -5 -50 -9 -38 -7 -43 -6 -43 10 0 11 7 19 15 19 8 0 15 5 15 10
0 6 -13 10 -29 10 -28 0 -28 -1 -34 -72 -3 -40 -15 -97 -26 -127 -12 -29 -19
-56 -16 -59 14 -15 65 97 65 143 0 32 19 45 66 45 45 0 68 15 79 51 7 21 -9
40 -30 37 -5 0 -22 -3 -37 -5z"/>
<path d="M177 4872 c-3 -15 -22 -52 -42 -81 -38 -57 -39 -77 -4 -45 l22 19 -5
-77 c-5 -71 2 -111 17 -96 3 3 8 52 11 109 3 79 8 110 24 137 16 26 18 37 9
48 -17 21 -26 17 -32 -14z"/>
<path d="M338 4893 c-37 -6 -36 -23 2 -23 20 0 30 -5 30 -15 0 -8 -3 -15 -7
-15 -5 -1 -27 -5 -50 -9 -38 -7 -43 -6 -43 10 0 11 7 19 15 19 8 0 15 5 15 10
0 6 -13 10 -29 10 -28 0 -28 -1 -34 -72 -3 -40 -15 -97 -26 -127 -12 -29 -19
-56 -16 -59 14 -15 65 97 65 143 0 32 19 45 66 45 45 0 68 15 79 51 7 21 -9
40 -30 37 -5 0 -22 -3 -37 -5z"/>
<path d="M328 4718 c4 -79 7 -97 16 -87 2 2 5 40 7 84 3 65 1 80 -11 83 -13 2
-15 -11 -12 -80z"/>
<path d="M177 4422 c-3 -15 -22 -52 -42 -81 -38 -57 -39 -77 -4 -45 l22 19 -5
-77 c-5 -71 2 -111 17 -96 3 3 8 52 11 109 3 79 8 110 24 137 16 26 18 37 9
48 -17 21 -26 17 -32 -14z"/>
<path d="M338 4443 c-37 -6 -36 -23 2 -23 20 0 30 -5 30 -15 0 -8 -3 -15 -7
-15 -5 -1 -27 -5 -50 -9 -38 -7 -43 -6 -43 10 0 11 7 19 15 19 8 0 15 5 15 10
0 6 -13 10 -29 10 -28 0 -28 -1 -34 -72 -3 -40 -15 -97 -26 -127 -12 -29 -19
-56 -16 -59 14 -15 65 97 65 143 0 32 19 45 66 45 45 0 68 15 79 51 7 21 -9
40 -30 37 -5 0 -22 -3 -37 -5z"/>
<path d="M324 4314 c1 -21 -4 -39 -11 -41 -8 -3 -13 4 -13 16 0 12 -6 21 -15
21 -8 0 -15 -6 -15 -12 0 -7 -3 -24 -7 -37 -6 -23 -4 -23 30 -17 37 7 37 7 37
-29 0 -19 5 -35 10 -35 6 0 10 18 10 40 0 33 3 40 20 40 11 0 20 5 20 10 0 6
-9 10 -19 10 -15 0 -19 7 -17 32 1 23 -4 33 -15 36 -13 2 -16 -5 -15 -34z"/>
<path d="M177 3972 c-3 -15 -22 -52 -42 -81 -38 -57 -39 -77 -4 -45 l22 19 -5
-77 c-5 -71 2 -111 17 -96 3 3 8 52 11 109 3 79 8 110 24 137 16 26 18 37 9
48 -17 21 -26 17 -32 -14z"/>
<path d="M338 3993 c-37 -6 -36 -23 2 -23 20 0 30 -5 30 -15 0 -8 -3 -15 -7
-15 -5 -1 -27 -5 -50 -9 -38 -7 -43 -6 -43 10 0 11 7 19 15 19 8 0 15 5 15 10
0 6 -13 10 -29 10 -28 0 -28 -1 -34 -72 -3 -40 -15 -97 -26 -127 -12 -29 -19
-56 -16 -59 14 -15 65 97 65 143 0 32 19 45 66 45 45 0 68 15 79 51 7 21 -9
40 -30 37 -5 0 -22 -3 -37 -5z"/>
<path d="M324 3864 c1 -21 -4 -39 -11 -41 -8 -3 -13 4 -13 16 0 12 -6 21 -15
21 -8 0 -15 -6 -15 -12 0 -7 -3 -24 -7 -37 -6 -23 -4 -23 30 -17 37 7 37 7 37
-29 0 -19 5 -35 10 -35 6 0 10 18 10 40 0 33 3 40 19 40 11 0 21 -6 24 -12 7
-19 14 -7 22 35 6 30 4 37 -9 37 -9 0 -16 -8 -16 -20 0 -13 -7 -20 -19 -20
-15 0 -19 7 -17 32 1 23 -4 33 -15 36 -13 2 -16 -5 -15 -34z"/>
<path d="M177 3522 c-3 -15 -22 -52 -42 -81 -38 -57 -39 -77 -4 -45 l22 19 -5
-77 c-5 -71 2 -111 17 -96 3 3 8 52 11 109 3 79 8 110 24 137 16 26 18 37 9
48 -17 21 -26 17 -32 -14z"/>
<path d="M338 3543 c-37 -6 -36 -23 2 -23 20 0 30 -5 30 -15 0 -8 -3 -15 -7
-15 -5 -1 -27 -5 -50 -9 -38 -7 -43 -6 -43 10 0 11 7 19 15 19 8 0 15 5 15 10
0 6 -13 10 -29 10 -28 0 -28 -1 -34 -72 -3 -40 -15 -97 -26 -127 -12 -29 -19
-56 -16 -59 14 -15 65 97 65 143 0 32 19 45 66 45 45 0 68 15 79 51 7 21 -9
40 -30 37 -5 0 -22 -3 -37 -5z"/>
<path d="M324 3414 c1 -21 -4 -39 -11 -41 -8 -3 -13 4 -13 16 0 12 -6 21 -15
21 -8 0 -15 -6 -15 -12 0 -7 -3 -24 -7 -37 -6 -23 -4 -23 30 -17 36 7 37 6 37
-22 0 -18 -6 -32 -16 -36 -26 -10 -32 -7 -27 14 4 13 0 20 -10 20 -13 0 -33
-57 -23 -67 7 -7 116 21 116 29 0 5 -4 8 -10 8 -5 0 -10 16 -10 35 0 28 4 35
19 35 11 0 21 -6 24 -12 7 -19 14 -7 22 35 6 30 4 37 -9 37 -9 0 -16 -8 -16
-20 0 -13 -7 -20 -19 -20 -15 0 -19 7 -17 32 1 23 -4 33 -15 36 -13 2 -16 -5
-15 -34z"/>
<path d="M177 3072 c-3 -15 -22 -52 -42 -81 -38 -57 -39 -77 -4 -45 l22 19 -5
-77 c-5 -71 2 -111 17 -96 3 3 8 52 11 109 3 79 8 110 24 137 16 26 18 37 9
48 -17 21 -26 17 -32 -14z"/>
<path d="M338 3093 c-37 -6 -36 -23 2 -23 20 0 30 -5 30 -15 0 -8 -3 -15 -7
-15 -5 -1 -27 -5 -50 -9 -38 -7 -43 -6 -43 10 0 11 7 19 15 19 8 0 15 5 15 10
0 6 -13 10 -29 10 -28 0 -28 -1 -34 -72 -3 -40 -15 -97 -26 -127 -12 -29 -19
-56 -16 -59 14 -15 65 97 65 143 0 32 19 45 66 45 45 0 68 15 79 51 7 21 -9
40 -30 37 -5 0 -22 -3 -37 -5z"/>
<path d="M324 2964 c1 -21 -4 -39 -11 -41 -8 -3 -13 4 -13 16 0 12 -6 21 -15
21 -8 0 -15 -6 -15 -12 0 -7 -3 -24 -7 -37 -6 -23 -4 -23 30 -17 36 7 37 6 37
-22 0 -18 -6 -32 -16 -36 -26 -10 -32 -7 -27 14 4 13 0 20 -10 20 -13 0 -33
-57 -23 -67 7 -7 116 21 116 29 0 5 -4 8 -10 8 -5 0 -10 16 -10 35 0 28 4 35
20 35 18 0 20 -7 20 -55 0 -30 5 -55 10 -55 12 0 12 3 15 98 1 54 -2 72 -12
72 -7 0 -13 -9 -13 -20 0 -13 -7 -20 -19 -20 -15 0 -19 7 -17 32 1 23 -4 33
-15 36 -13 2 -16 -5 -15 -34z"/>
</g>
</svg>
