<?xml version="1.0" standalone="no"?>
<!DOCTYPE svg PUBLIC "-//W3C//DTD SVG 20010904//EN"
 "http://www.w3.org/TR/2001/REC-SVG-20010904/DTD/svg10.dtd">
<svg version="1.0" xmlns="http://www.w3.org/2000/svg"
 width="50.000000pt" height="725.000000pt" viewBox="0 0 50.000000 725.000000"
 preserveAspectRatio="xMidYMid meet">
<metadata>
Created by potrace 1.16, written by Peter Selinger 2001-2019
</metadata>
<g transform="translate(0.000000,725.000000) scale(0.100000,-0.100000)"
fill="#000000" stroke="none">
<path d="M170 7130 c0 -25 -23 -73 -57 -118 -14 -18 -22 -36 -19 -39 18 -19
123 133 112 162 -8 23 -36 18 -36 -5z"/>
<path d="M170 6680 c0 -25 -23 -73 -57 -118 -32 -43 -21 -54 17 -17 l30 29 -7
-93 c-5 -78 -4 -93 8 -89 11 4 14 29 15 109 1 78 5 113 18 138 10 18 15 39 12
47 -8 22 -36 17 -36 -6z"/>
<path d="M170 6230 c0 -25 -23 -73 -57 -118 -32 -43 -21 -54 17 -17 l30 29 -7
-93 c-5 -78 -4 -93 8 -89 11 4 14 29 15 109 1 78 5 113 18 138 10 18 15 39 12
47 -8 22 -36 17 -36 -6z"/>
<path d="M235 6214 c4 -11 10 -38 12 -61 8 -64 24 -52 21 14 -2 47 -6 58 -22
61 -15 3 -17 0 -11 -14z"/>
<path d="M170 5780 c0 -25 -23 -73 -57 -118 -32 -43 -21 -54 17 -17 l30 29 -7
-93 c-5 -78 -4 -93 8 -89 11 4 14 29 15 109 1 78 5 113 18 138 10 18 15 39 12
47 -8 22 -36 17 -36 -6z"/>
<path d="M333 5793 c-29 -6 -30 -23 -2 -23 20 0 21 -4 16 -45 -7 -51 7 -61 24
-17 6 15 16 36 21 46 8 15 6 23 -8 33 -10 7 -20 12 -23 12 -3 -1 -16 -4 -28
-6z"/>
<path d="M235 5763 c4 -10 10 -37 12 -60 8 -59 23 -54 23 7 0 38 4 50 15 50 8
0 15 5 15 10 0 6 -16 10 -36 10 -30 0 -35 -3 -29 -17z"/>
<path d="M170 5330 c0 -25 -23 -73 -57 -118 -32 -43 -21 -54 17 -17 l30 29 -7
-93 c-5 -78 -4 -93 8 -89 11 4 14 29 15 109 1 78 5 113 18 138 10 18 15 39 12
47 -8 22 -36 17 -36 -6z"/>
<path d="M333 5343 c-28 -5 -30 -23 -3 -23 27 0 25 -16 -2 -24 -34 -9 -58 -7
-58 4 0 6 7 10 15 10 8 0 15 5 15 10 0 6 -16 10 -36 10 -30 0 -35 -3 -29 -17
4 -10 10 -37 12 -60 6 -49 23 -58 23 -13 0 25 4 30 24 30 13 0 32 3 41 6 13 5
15 2 9 -20 -9 -35 13 -34 27 2 6 15 16 36 21 46 8 15 6 23 -8 33 -10 7 -20 12
-23 12 -3 -1 -16 -4 -28 -6z"/>
<path d="M170 4880 c0 -25 -23 -73 -57 -118 -32 -43 -21 -54 17 -17 l30 29 -7
-93 c-5 -78 -4 -93 8 -89 11 4 14 29 15 109 1 78 5 113 18 138 10 18 15 39 12
47 -8 22 -36 17 -36 -6z"/>
<path d="M333 4893 c-28 -5 -30 -23 -3 -23 27 0 25 -16 -2 -24 -34 -9 -58 -7
-58 4 0 6 7 10 15 10 8 0 15 5 15 10 0 6 -16 10 -36 10 -30 0 -35 -3 -29 -17
4 -10 10 -37 12 -61 4 -32 9 -42 20 -38 8 4 19 6 24 6 5 0 9 5 9 10 0 6 -7 10
-15 10 -8 0 -15 7 -15 15 0 9 9 15 24 15 13 0 31 3 40 6 9 4 16 1 16 -6 0 -6
-9 -14 -20 -17 -30 -8 -24 -23 9 -23 25 0 30 5 36 33 4 17 12 38 18 46 9 10 7
17 -8 27 -10 8 -21 13 -24 13 -3 -1 -16 -4 -28 -6z"/>
<path d="M170 4430 c0 -25 -23 -73 -57 -118 -32 -43 -21 -54 17 -17 l30 29 -7
-93 c-5 -78 -4 -93 8 -89 11 4 14 29 15 109 1 78 5 113 18 138 10 18 15 39 12
47 -8 22 -36 17 -36 -6z"/>
<path d="M333 4443 c-28 -5 -30 -23 -3 -23 27 0 25 -16 -2 -24 -34 -9 -58 -7
-58 4 0 6 7 10 15 10 8 0 15 5 15 10 0 6 -16 10 -36 10 -30 0 -35 -3 -29 -17
4 -10 10 -37 12 -61 4 -32 9 -42 20 -38 8 4 19 6 24 6 5 0 9 5 9 10 0 6 -7 10
-15 10 -8 0 -15 7 -15 15 0 9 9 15 24 15 13 0 31 3 40 6 9 4 16 1 16 -6 0 -6
-9 -14 -20 -17 -30 -8 -24 -23 9 -23 25 0 30 5 36 33 4 17 12 38 18 46 9 10 7
17 -8 27 -10 8 -21 13 -24 13 -3 -1 -16 -4 -28 -6z"/>
<path d="M215 4274 c4 -11 10 -40 12 -66 8 -70 24 -58 21 14 -3 52 -6 63 -22
66 -15 3 -17 0 -11 -14z"/>
<path d="M170 3980 c0 -25 -23 -73 -57 -118 -32 -43 -21 -54 17 -17 l30 29 -7
-93 c-5 -78 -4 -93 8 -89 11 4 14 29 15 109 1 78 5 113 18 138 10 18 15 39 12
47 -8 22 -36 17 -36 -6z"/>
<path d="M333 3993 c-28 -5 -30 -23 -3 -23 27 0 25 -16 -2 -24 -34 -9 -58 -7
-58 4 0 6 7 10 15 10 8 0 15 5 15 10 0 6 -16 10 -36 10 -30 0 -35 -3 -29 -17
4 -10 10 -37 12 -61 4 -32 9 -42 20 -38 8 4 19 6 24 6 5 0 9 5 9 10 0 6 -7 10
-15 10 -8 0 -15 7 -15 15 0 9 9 15 24 15 13 0 31 3 40 6 9 4 16 1 16 -6 0 -6
-9 -14 -20 -17 -30 -8 -24 -23 9 -23 25 0 30 5 36 33 4 17 12 38 18 46 9 10 7
17 -8 27 -10 8 -21 13 -24 13 -3 -1 -16 -4 -28 -6z"/>
<path d="M340 3849 c-19 -5 -57 -9 -83 -10 -40 -1 -47 -4 -41 -18 3 -9 9 -37
11 -63 7 -66 23 -60 23 7 0 47 3 55 19 55 10 0 40 3 66 7 l48 6 -6 -34 c-12
-65 -12 -74 2 -74 8 0 22 23 32 55 17 51 17 56 2 68 -19 13 -23 14 -73 1z"/>
<path d="M170 3530 c0 -25 -23 -73 -57 -118 -32 -43 -21 -54 17 -17 l30 29 -7
-93 c-5 -78 -4 -93 8 -89 11 4 14 29 15 109 1 78 5 113 18 138 10 18 15 39 12
47 -8 22 -36 17 -36 -6z"/>
<path d="M333 3543 c-28 -5 -30 -23 -3 -23 27 0 25 -16 -2 -24 -34 -9 -58 -7
-58 4 0 6 7 10 15 10 8 0 15 5 15 10 0 6 -16 10 -36 10 -30 0 -35 -3 -29 -17
4 -10 10 -37 12 -61 4 -32 9 -42 20 -38 8 4 19 6 24 6 5 0 9 5 9 10 0 6 -7 10
-15 10 -8 0 -15 7 -15 15 0 9 9 15 24 15 13 0 31 3 40 6 9 4 16 1 16 -6 0 -6
-9 -14 -20 -17 -30 -8 -24 -23 9 -23 25 0 30 5 36 33 4 17 12 38 18 46 9 10 7
17 -8 27 -10 8 -21 13 -24 13 -3 -1 -16 -4 -28 -6z"/>
<path d="M340 3399 c-19 -5 -57 -9 -83 -10 -40 -1 -47 -4 -41 -18 3 -9 9 -37
11 -63 6 -53 23 -66 23 -18 0 24 4 30 23 30 12 0 39 3 60 7 37 6 38 5 35 -23
-5 -51 23 -34 43 26 17 51 17 56 2 68 -19 13 -23 14 -73 1z m40 -34 c0 -8 -8
-15 -19 -15 -10 0 -39 -3 -65 -6 -38 -6 -46 -4 -46 9 0 11 12 17 38 20 81 8
92 7 92 -8z"/>
<path d="M170 3080 c0 -25 -23 -73 -57 -118 -32 -43 -21 -54 17 -17 l30 29 -7
-93 c-5 -78 -4 -93 8 -89 11 4 14 29 15 109 1 78 5 113 18 138 10 18 15 39 12
47 -8 22 -36 17 -36 -6z"/>
<path d="M333 3093 c-28 -5 -30 -23 -3 -23 27 0 25 -16 -2 -24 -34 -9 -58 -7
-58 4 0 6 7 10 15 10 8 0 15 5 15 10 0 6 -16 10 -36 10 -30 0 -35 -3 -29 -17
4 -10 10 -37 12 -61 4 -32 9 -42 20 -38 8 4 19 6 24 6 5 0 9 5 9 10 0 6 -7 10
-15 10 -8 0 -15 7 -15 15 0 9 9 15 24 15 13 0 31 3 40 6 9 4 16 1 16 -6 0 -6
-9 -14 -20 -17 -30 -8 -24 -23 9 -23 25 0 30 5 36 33 4 17 12 38 18 46 9 10 7
17 -8 27 -10 8 -21 13 -24 13 -3 -1 -16 -4 -28 -6z"/>
<path d="M340 2949 c-19 -5 -57 -9 -83 -10 -40 -1 -47 -4 -41 -18 3 -9 9 -38
12 -64 4 -40 8 -47 21 -41 9 4 45 8 80 9 l65 2 17 54 c17 50 17 55 2 67 -19
13 -23 14 -73 1z m40 -34 c0 -8 -8 -15 -19 -15 -10 0 -39 -3 -65 -6 -38 -6
-46 -4 -46 9 0 11 12 17 38 20 81 8 92 7 92 -8z m-10 -50 c0 -11 -12 -15 -45
-16 -25 -1 -50 -2 -57 -3 -6 -1 -13 4 -15 11 -4 11 17 16 95 21 14 1 22 -4 22
-13z"/>
</g>
</svg>
