<?xml version="1.0" standalone="no"?>
<!DOCTYPE svg PUBLIC "-//W3C//DTD SVG 20010904//EN"
 "http://www.w3.org/TR/2001/REC-SVG-20010904/DTD/svg10.dtd">
<svg version="1.0" xmlns="http://www.w3.org/2000/svg"
 width="50.000000pt" height="725.000000pt" viewBox="0 0 50.000000 725.000000"
 preserveAspectRatio="xMidYMid meet">
<metadata>
Created by potrace 1.16, written by Peter Selinger 2001-2019
</metadata>
<g transform="translate(0.000000,725.000000) scale(0.100000,-0.100000)"
fill="#000000" stroke="none">
<path d="M160 7124 c-6 -14 -10 -28 -10 -32 0 -4 -16 -31 -36 -60 -37 -56 -39
-79 -4 -47 28 25 90 128 90 149 0 26 -30 19 -40 -10z"/>
<path d="M160 6674 c-6 -14 -10 -28 -10 -32 0 -4 -16 -31 -36 -60 -39 -59 -38
-79 2 -41 l26 24 -4 -82 c-4 -79 2 -116 19 -100 4 5 8 60 10 122 1 85 6 120
17 137 9 12 16 30 16 40 0 27 -29 21 -40 -8z"/>
<path d="M283 6243 c-33 -17 -43 -33 -22 -33 28 0 89 24 86 34 -6 17 -29 16
-64 -1z"/>
<path d="M160 6224 c-6 -14 -10 -28 -10 -32 0 -4 -16 -31 -36 -60 -39 -59 -38
-79 2 -41 l26 24 -4 -82 c-4 -79 2 -116 19 -100 4 5 8 60 10 122 1 85 6 120
17 137 9 12 16 30 16 40 0 27 -29 21 -40 -8z"/>
<path d="M283 5793 c-33 -17 -43 -33 -22 -33 28 0 89 24 86 34 -6 17 -29 16
-64 -1z"/>
<path d="M160 5774 c-6 -14 -10 -28 -10 -32 0 -4 -16 -31 -36 -60 -39 -59 -38
-79 2 -41 l26 24 -4 -82 c-4 -79 2 -116 19 -100 4 5 8 60 10 122 1 85 6 120
17 137 9 12 16 30 16 40 0 27 -29 21 -40 -8z"/>
<path d="M278 5737 c-48 -7 -68 -14 -68 -25 0 -10 6 -12 23 -8 12 4 52 10 90
13 47 4 67 10 67 19 0 16 -14 16 -112 1z"/>
<path d="M283 5343 c-35 -18 -43 -33 -17 -33 29 0 8 -25 -24 -28 -20 -2 -32
-9 -32 -18 0 -12 8 -13 35 -8 35 6 35 6 35 -30 0 -20 5 -36 10 -36 6 0 10 18
10 40 l0 40 45 0 c35 0 45 4 45 16 0 14 -7 15 -45 10 -37 -6 -45 -4 -45 8 0 9
11 18 25 22 27 7 29 27 4 31 -8 1 -29 -5 -46 -14z"/>
<path d="M160 5324 c-6 -14 -10 -28 -10 -32 0 -4 -16 -31 -36 -60 -39 -59 -38
-79 2 -41 l26 24 -4 -82 c-4 -79 2 -116 19 -100 4 5 8 60 10 122 1 85 6 120
17 137 9 12 16 30 16 40 0 27 -29 21 -40 -8z"/>
<path d="M283 4893 c-35 -18 -43 -33 -17 -33 29 0 8 -25 -24 -28 -21 -2 -32
-9 -32 -19 0 -12 6 -14 28 -8 25 6 25 5 -10 -22 -21 -15 -37 -31 -38 -35 0
-15 24 -8 57 18 l33 25 0 -25 c0 -15 5 -26 10 -26 6 0 10 18 10 40 l0 40 45 0
c35 0 45 4 45 16 0 14 -7 15 -45 10 -37 -6 -45 -4 -45 8 0 9 11 18 25 22 27 7
29 27 4 31 -8 1 -29 -5 -46 -14z"/>
<path d="M160 4874 c-6 -14 -10 -28 -10 -32 0 -4 -16 -31 -36 -60 -39 -59 -38
-79 2 -41 l26 24 -4 -82 c-4 -79 2 -116 19 -100 4 5 8 60 10 122 1 85 6 120
17 137 9 12 16 30 16 40 0 27 -29 21 -40 -8z"/>
<path d="M283 4443 c-35 -18 -43 -33 -17 -33 29 0 8 -25 -24 -28 -21 -2 -32
-9 -32 -19 0 -12 6 -14 28 -8 25 6 25 5 -10 -22 -21 -15 -37 -31 -38 -35 0
-15 24 -8 57 18 l33 25 0 -25 c0 -15 5 -26 10 -26 6 0 10 14 10 31 l0 30 33
-25 c39 -30 57 -33 57 -11 0 9 -19 25 -42 35 l-43 20 43 0 c32 0 42 4 42 16 0
14 -7 15 -45 10 -37 -6 -45 -4 -45 8 0 9 11 18 25 22 27 7 29 27 4 31 -8 1
-29 -5 -46 -14z"/>
<path d="M160 4424 c-6 -14 -10 -28 -10 -32 0 -4 -16 -31 -36 -60 -39 -59 -38
-79 2 -41 l26 24 -4 -82 c-4 -79 2 -116 19 -100 4 5 8 60 10 122 1 85 6 120
17 137 9 12 16 30 16 40 0 27 -29 21 -40 -8z"/>
<path d="M283 3993 c-35 -18 -43 -33 -17 -33 29 0 8 -25 -24 -28 -21 -2 -32
-9 -32 -19 0 -12 6 -14 28 -8 25 6 25 5 -10 -22 -21 -15 -37 -31 -38 -35 0
-15 24 -8 57 18 32 24 33 24 33 5 0 -12 -3 -21 -8 -21 -6 0 -16 -24 -39 -92
-4 -13 0 -18 12 -18 10 0 44 -14 76 -32 58 -32 83 -32 63 0 -9 14 -51 32 -112
48 -10 3 -9 12 7 38 12 18 21 50 21 70 l0 37 33 -25 c39 -30 57 -33 57 -11 0
9 -19 25 -42 35 l-43 20 43 0 c32 0 42 4 42 16 0 14 -7 15 -45 10 -37 -6 -45
-4 -45 8 0 9 11 18 25 22 27 7 29 27 4 31 -8 1 -29 -5 -46 -14z"/>
<path d="M160 3974 c-6 -14 -10 -28 -10 -32 0 -4 -16 -31 -36 -60 -39 -59 -38
-79 2 -41 l26 24 -4 -82 c-4 -79 2 -116 19 -100 4 5 8 60 10 122 1 85 6 120
17 137 9 12 16 30 16 40 0 27 -29 21 -40 -8z"/>
<path d="M283 3543 c-35 -18 -43 -33 -17 -33 29 0 8 -25 -24 -28 -21 -2 -32
-9 -32 -19 0 -12 6 -14 28 -8 25 6 25 5 -10 -22 -21 -15 -37 -31 -38 -35 0
-15 24 -8 57 18 32 24 33 24 33 5 0 -12 -3 -21 -8 -21 -6 0 -15 -22 -38 -92
-4 -12 1 -17 18 -20 21 -4 20 -6 -14 -23 -21 -10 -38 -22 -38 -27 0 -10 45 0
81 18 22 11 29 10 55 -7 16 -10 35 -19 42 -19 23 0 12 31 -18 48 -20 11 -28
22 -24 32 16 36 16 70 1 70 -8 0 -17 -12 -20 -27 -9 -41 -23 -57 -42 -49 -15
5 -15 9 4 40 12 18 21 50 21 70 l0 37 33 -25 c39 -30 57 -33 57 -11 0 9 -19
25 -42 35 l-43 20 43 0 c32 0 42 4 42 16 0 14 -7 15 -45 10 -37 -6 -45 -4 -45
8 0 9 11 18 25 22 27 7 29 27 4 31 -8 1 -29 -5 -46 -14z"/>
<path d="M160 3524 c-6 -14 -10 -28 -10 -32 0 -4 -16 -31 -36 -60 -39 -59 -38
-79 2 -41 l26 24 -4 -82 c-4 -79 2 -116 19 -100 4 5 8 60 10 122 1 85 6 120
17 137 9 12 16 30 16 40 0 27 -29 21 -40 -8z"/>
<path d="M283 3093 c-35 -18 -43 -33 -17 -33 29 0 8 -25 -24 -28 -21 -2 -32
-9 -32 -19 0 -12 6 -14 28 -8 25 6 25 5 -10 -22 -21 -15 -37 -31 -38 -35 0
-15 24 -8 57 18 32 24 33 24 33 5 0 -12 -4 -21 -9 -21 -5 0 -11 -10 -13 -22
-2 -19 -10 -24 -45 -26 l-41 -3 -4 57 c-2 41 2 63 14 83 23 34 23 64 1 59 -9
-2 -22 -20 -29 -40 -7 -21 -27 -58 -44 -84 -36 -52 -33 -69 6 -33 l26 24 -4
-82 c-5 -86 3 -121 22 -93 5 8 7 35 4 59 -6 41 -5 42 13 33 11 -6 29 -9 41 -5
17 4 20 1 15 -15 -4 -16 1 -21 19 -24 21 -4 20 -6 -14 -23 -21 -10 -38 -22
-38 -27 0 -10 45 0 81 18 22 11 29 10 55 -7 16 -10 35 -19 42 -19 22 0 13 29
-15 47 -16 9 -29 18 -31 19 -2 1 1 12 8 23 8 17 20 21 55 21 25 0 45 4 45 9 0
14 -35 23 -64 15 -16 -4 -26 -2 -26 5 0 6 -7 11 -15 11 -8 0 -15 -4 -15 -10 0
-5 -6 -10 -13 -10 -8 0 -11 14 -9 45 l4 45 32 -25 c38 -29 56 -32 56 -10 0 9
-19 25 -42 35 l-43 20 43 0 c32 0 42 4 42 16 0 14 -7 15 -45 10 -37 -6 -45 -4
-45 8 0 9 11 18 25 22 27 7 29 27 4 31 -8 1 -29 -5 -46 -14z m27 -210 c-1 -20
-19 -35 -35 -29 -14 5 -15 9 -5 21 13 16 40 21 40 8z"/>
</g>
</svg>
