<?xml version="1.0" standalone="no"?>
<!DOCTYPE svg PUBLIC "-//W3C//DTD SVG 20010904//EN"
 "http://www.w3.org/TR/2001/REC-SVG-20010904/DTD/svg10.dtd">
<svg version="1.0" xmlns="http://www.w3.org/2000/svg"
 width="50.000000pt" height="725.000000pt" viewBox="0 0 50.000000 725.000000"
 preserveAspectRatio="xMidYMid meet">
<metadata>
Created by potrace 1.16, written by Peter Selinger 2001-2019
</metadata>
<g transform="translate(0.000000,725.000000) scale(0.100000,-0.100000)"
fill="#000000" stroke="none">
<path d="M150 7113 c-7 -21 -26 -60 -42 -87 -31 -51 -30 -73 2 -40 27 28 91
144 84 155 -12 20 -33 7 -44 -28z"/>
<path d="M150 6663 c-7 -21 -26 -60 -42 -87 -34 -56 -28 -75 9 -31 l26 29 -4
-89 c-3 -64 -1 -89 9 -92 9 -4 12 17 14 79 1 46 2 99 2 118 1 20 9 48 19 63
19 29 16 47 -8 47 -7 0 -19 -17 -25 -37z"/>
<path d="M150 6213 c-7 -21 -26 -60 -42 -87 -34 -56 -28 -75 9 -31 l26 29 -4
-89 c-3 -64 -1 -89 9 -92 9 -4 12 17 14 79 2 91 4 138 6 153 1 6 21 10 45 11
78 1 197 17 197 26 0 18 -30 19 -110 4 -107 -21 -126 -21 -110 -1 6 8 9 19 5
25 -13 21 -34 9 -45 -27z"/>
<path d="M150 5763 c-7 -21 -26 -60 -42 -87 -34 -56 -28 -75 9 -31 l26 29 -4
-89 c-3 -64 -1 -89 9 -92 9 -4 12 17 14 79 2 91 4 138 6 153 1 6 21 10 45 11
78 1 197 17 197 26 0 18 -30 19 -110 4 -107 -21 -126 -21 -110 -1 6 8 9 19 5
25 -13 21 -34 9 -45 -27z"/>
<path d="M254 5703 c15 -55 18 -63 27 -63 5 0 9 8 9 18 0 34 -13 62 -27 62 -9
0 -12 -7 -9 -17z"/>
<path d="M150 5313 c-7 -21 -26 -60 -42 -87 -34 -56 -28 -75 9 -31 l26 29 -4
-89 c-3 -64 -1 -89 9 -92 9 -4 12 17 14 79 2 91 4 138 6 153 1 6 21 10 45 11
78 1 197 17 197 26 0 18 -30 19 -110 4 -107 -21 -126 -21 -110 -1 6 8 9 19 5
25 -13 21 -34 9 -45 -27z"/>
<path d="M330 5270 c0 -5 5 -10 10 -10 7 0 8 -13 4 -35 -3 -19 -2 -35 3 -35
11 0 44 71 37 82 -7 11 -54 10 -54 -2z"/>
<path d="M254 5253 c2 -10 7 -28 11 -40 10 -34 28 -28 23 7 -3 20 0 30 9 30 7
0 13 5 13 10 0 6 -14 10 -31 10 -24 0 -29 -4 -25 -17z"/>
<path d="M150 4863 c-7 -21 -26 -60 -42 -87 -34 -56 -28 -75 9 -31 l26 29 -4
-89 c-3 -64 -1 -89 9 -92 9 -4 12 17 14 79 2 91 4 138 6 153 1 6 21 10 45 11
78 1 197 17 197 26 0 18 -30 19 -110 4 -107 -21 -126 -21 -110 -1 6 8 9 19 5
25 -13 21 -34 9 -45 -27z"/>
<path d="M330 4820 c0 -5 5 -10 10 -10 7 0 8 -13 4 -35 -3 -19 -2 -35 3 -35
11 0 44 71 37 82 -7 11 -54 10 -54 -2z"/>
<path d="M254 4803 c15 -55 18 -63 27 -63 5 0 9 6 9 14 0 8 11 17 25 20 34 9
32 26 -2 22 -16 -2 -22 -1 -15 1 23 8 12 23 -19 23 -24 0 -29 -4 -25 -17z"/>
<path d="M150 4413 c-7 -21 -26 -60 -42 -87 -34 -56 -28 -75 9 -31 l26 29 -4
-89 c-3 -64 -1 -89 9 -92 9 -4 12 17 14 79 2 91 4 138 6 153 1 6 21 10 45 11
78 1 197 17 197 26 0 18 -30 19 -110 4 -107 -21 -126 -21 -110 -1 6 8 9 19 5
25 -13 21 -34 9 -45 -27z"/>
<path d="M330 4371 c0 -5 5 -11 11 -13 7 -2 9 -13 5 -26 -5 -16 -15 -22 -34
-21 l-27 1 28 10 c15 5 27 14 27 19 0 4 -12 7 -27 5 -16 -2 -22 -1 -15 1 23 8
12 23 -19 23 -26 0 -29 -3 -25 -20 3 -11 9 -29 12 -40 4 -16 14 -20 48 -20 39
0 43 3 58 37 10 20 15 40 12 45 -7 11 -54 10 -54 -1z"/>
<path d="M150 3963 c-7 -21 -26 -60 -42 -87 -34 -56 -28 -75 9 -31 l26 29 -4
-89 c-3 -64 -1 -89 9 -92 9 -4 12 17 14 79 2 91 4 138 6 153 1 6 21 10 45 11
78 1 197 17 197 26 0 18 -30 19 -110 4 -107 -21 -126 -21 -110 -1 6 8 9 19 5
25 -13 21 -34 9 -45 -27z"/>
<path d="M330 3921 c0 -5 5 -11 11 -13 7 -2 9 -13 5 -26 -5 -16 -15 -22 -34
-21 l-27 1 28 10 c15 5 27 14 27 19 0 4 -12 7 -27 5 -16 -2 -22 -1 -15 1 23 8
12 23 -19 23 -26 0 -29 -3 -25 -20 3 -11 9 -29 12 -40 3 -11 10 -20 15 -20 6
0 7 -14 3 -35 -5 -26 -3 -35 7 -35 8 0 25 -9 39 -20 29 -23 50 -26 50 -6 0 8
-18 21 -39 30 -37 14 -39 17 -28 41 7 13 19 25 27 25 17 0 53 68 44 82 -7 11
-54 10 -54 -1z"/>
<path d="M150 3513 c-7 -21 -26 -60 -42 -87 -34 -56 -28 -75 9 -31 l26 29 -4
-89 c-3 -64 -1 -89 9 -92 9 -4 12 17 14 79 2 91 4 138 6 153 1 6 21 10 45 11
78 1 197 17 197 26 0 18 -30 19 -110 4 -107 -21 -126 -21 -110 -1 6 8 9 19 5
25 -13 21 -34 9 -45 -27z"/>
<path d="M330 3471 c0 -5 5 -11 11 -13 7 -2 9 -13 5 -26 -5 -16 -15 -22 -34
-21 l-27 1 28 10 c15 5 27 14 27 19 0 4 -12 7 -27 5 -16 -2 -22 -1 -15 1 23 8
12 23 -19 23 -26 0 -29 -3 -25 -20 3 -11 9 -29 12 -40 3 -11 10 -20 15 -20 7
0 8 -12 4 -31 -5 -22 -3 -34 6 -40 11 -7 9 -10 -8 -15 -13 -4 -23 -10 -23 -15
0 -12 27 -11 52 2 14 8 23 8 31 0 6 -6 17 -11 24 -11 18 0 16 27 -2 34 -13 4
-14 10 -5 26 12 23 6 40 -16 40 -8 0 -14 -9 -14 -19 0 -20 -13 -35 -22 -25
-10 9 17 54 32 54 17 0 53 68 44 82 -7 11 -54 10 -54 -1z"/>
<path d="M150 3063 c-7 -21 -26 -60 -42 -87 -34 -56 -28 -75 9 -31 l26 29 -4
-89 c-3 -64 -1 -89 9 -92 9 -4 12 17 14 79 2 91 4 138 6 153 1 6 21 10 45 11
78 1 197 17 197 26 0 18 -30 19 -110 4 -107 -21 -126 -21 -110 -1 6 8 9 19 5
25 -13 21 -34 9 -45 -27z"/>
<path d="M330 3021 c0 -5 5 -11 11 -13 7 -2 9 -13 5 -26 -5 -16 -15 -22 -34
-21 l-27 1 28 10 c15 5 27 14 27 19 0 4 -12 7 -27 5 -16 -2 -22 -1 -15 1 23 8
12 23 -19 23 -26 0 -29 -3 -25 -20 3 -11 9 -29 12 -40 3 -11 9 -20 14 -20 5 0
7 -14 3 -31 -4 -21 -1 -34 8 -40 11 -7 9 -10 -8 -15 -13 -4 -23 -10 -23 -15 0
-12 27 -11 52 2 14 8 23 8 31 0 6 -6 17 -11 24 -11 18 0 16 27 -2 34 -22 8 -1
46 25 46 11 0 20 5 20 11 0 7 -17 10 -45 7 -25 -2 -45 0 -45 4 0 5 8 8 18 8
18 0 56 66 46 82 -7 11 -54 10 -54 -1z m0 -125 c0 -11 -19 -15 -25 -6 -3 5 1
10 9 10 9 0 16 -2 16 -4z"/>
<path d="M230 2900 c0 -5 9 -10 20 -10 11 0 20 5 20 10 0 6 -9 10 -20 10 -11
0 -20 -4 -20 -10z"/>
<path d="M150 2613 c-7 -21 -26 -60 -42 -87 -34 -56 -28 -75 9 -31 l26 29 -4
-89 c-3 -64 -1 -89 9 -92 9 -4 12 17 14 79 4 165 4 169 23 162 12 -5 15 -27
15 -109 0 -135 5 -140 133 -137 91 2 126 14 97 32 -8 6 -22 7 -30 4 -8 -4 -45
-9 -81 -11 -82 -7 -99 6 -99 76 0 80 11 139 28 146 8 3 48 8 88 12 69 6 92 17
60 29 -7 3 -51 -2 -96 -10 -107 -21 -126 -21 -110 -1 6 8 9 19 5 25 -13 21
-34 9 -45 -27z"/>
<path d="M330 2571 c0 -5 5 -11 11 -13 7 -2 9 -13 5 -26 -5 -16 -15 -22 -34
-21 l-27 1 28 10 c15 5 27 14 27 19 0 4 -12 7 -27 5 -16 -2 -22 -1 -15 1 23 8
12 23 -19 23 -26 0 -29 -3 -25 -20 3 -11 9 -29 12 -40 3 -11 9 -20 14 -20 5 0
7 -14 3 -31 -4 -21 -1 -34 8 -40 11 -7 9 -10 -8 -15 -13 -4 -23 -10 -23 -15 0
-12 27 -11 52 2 14 8 23 8 31 0 6 -6 17 -11 24 -11 18 0 16 27 -2 34 -22 8 -1
46 25 46 11 0 20 5 20 11 0 7 -17 10 -45 7 -25 -2 -45 0 -45 4 0 5 8 8 18 8
18 0 56 66 46 82 -7 11 -54 10 -54 -1z m0 -125 c0 -11 -19 -15 -25 -6 -3 5 1
10 9 10 9 0 16 -2 16 -4z"/>
<path d="M230 2450 c0 -5 9 -10 20 -10 11 0 20 5 20 10 0 6 -9 10 -20 10 -11
0 -20 -4 -20 -10z"/>
</g>
</svg>
