<?xml version="1.0" standalone="no"?>
<!DOCTYPE svg PUBLIC "-//W3C//DTD SVG 20010904//EN"
 "http://www.w3.org/TR/2001/REC-SVG-20010904/DTD/svg10.dtd">
<svg version="1.0" xmlns="http://www.w3.org/2000/svg"
 width="50.000000pt" height="725.000000pt" viewBox="0 0 50.000000 725.000000"
 preserveAspectRatio="xMidYMid meet">
<metadata>
Created by potrace 1.16, written by Peter Selinger 2001-2019
</metadata>
<g transform="translate(0.000000,725.000000) scale(0.100000,-0.100000)"
fill="#000000" stroke="none">
<path d="M146 7116 c-4 -18 -20 -52 -36 -75 -34 -46 -35 -51 -16 -51 15 0 96
114 96 135 0 10 -20 25 -35 25 -1 0 -6 -15 -9 -34z"/>
<path d="M146 6666 c-4 -18 -20 -52 -36 -75 -17 -22 -30 -43 -30 -46 0 -13 30
-3 40 13 8 13 10 -5 5 -70 -5 -76 -4 -88 9 -88 13 0 16 15 18 78 1 42 2 88 2
102 1 14 10 42 21 63 17 33 17 39 5 47 -23 15 -27 12 -34 -24z"/>
<path d="M146 6216 c-4 -18 -20 -52 -36 -75 -17 -22 -30 -43 -30 -46 0 -13 30
-3 40 13 8 13 10 -5 5 -70 -5 -76 -4 -88 9 -88 13 0 16 15 18 78 1 42 2 88 2
102 1 14 10 42 21 63 17 33 17 39 5 47 -23 15 -27 12 -34 -24z"/>
<path d="M212 6150 c-35 -8 -49 -17 -41 -25 10 -9 92 10 97 23 4 13 -7 14 -56
2z"/>
<path d="M146 5766 c-4 -18 -20 -52 -36 -75 -17 -22 -30 -43 -30 -46 0 -13 30
-3 40 13 8 13 10 -5 5 -70 -5 -76 -4 -88 9 -88 13 0 16 15 18 78 1 42 2 88 2
102 1 14 10 42 21 63 17 33 17 39 5 47 -23 15 -27 12 -34 -24z"/>
<path d="M210 5746 c0 -36 -4 -46 -20 -51 -11 -3 -20 -11 -20 -17 0 -6 9 -8
20 -5 17 4 20 0 20 -24 0 -16 5 -29 10 -29 6 0 10 11 10 25 0 14 8 29 20 35
24 13 26 30 4 30 -12 0 -14 7 -9 31 5 22 3 34 -6 40 -25 15 -29 10 -29 -35z"/>
<path d="M146 5316 c-4 -18 -20 -52 -36 -75 -17 -22 -30 -43 -30 -46 0 -13 30
-3 40 13 8 13 10 -5 5 -70 -5 -76 -4 -88 9 -88 13 0 16 15 18 78 1 42 2 88 2
102 1 14 10 42 21 63 17 33 17 39 5 47 -23 15 -27 12 -34 -24z"/>
<path d="M210 5296 c0 -36 -4 -46 -20 -51 -11 -3 -20 -11 -20 -17 0 -6 9 -8
20 -5 17 4 20 0 20 -24 0 -16 5 -29 10 -29 6 0 10 11 10 25 0 14 8 29 20 35
24 13 26 30 4 30 -12 0 -14 7 -9 31 5 22 3 34 -6 40 -25 15 -29 10 -29 -35z"/>
<path d="M174 5139 c3 -17 6 -38 6 -45 0 -8 5 -14 10 -14 11 0 14 49 4 74 -11
29 -27 17 -20 -15z"/>
<path d="M146 4866 c-4 -18 -20 -52 -36 -75 -17 -22 -30 -43 -30 -46 0 -13 30
-3 40 13 8 13 10 -5 5 -70 -5 -76 -4 -88 9 -88 13 0 16 15 18 78 1 42 2 88 2
102 1 14 10 42 21 63 17 33 17 39 5 47 -23 15 -27 12 -34 -24z"/>
<path d="M210 4846 c0 -36 -4 -46 -20 -51 -11 -3 -20 -11 -20 -17 0 -6 9 -8
20 -5 16 4 20 0 20 -20 0 -17 -7 -27 -21 -30 -17 -5 -20 -11 -15 -36 3 -16 6
-36 6 -43 0 -8 5 -14 10 -14 6 0 10 18 10 40 0 34 3 40 21 40 18 0 20 -4 14
-30 -9 -39 10 -39 30 0 18 34 13 50 -16 50 -26 0 -25 36 1 50 24 13 26 30 4
30 -12 0 -14 7 -9 31 5 22 3 34 -6 40 -25 15 -29 10 -29 -35z"/>
<path d="M146 4416 c-4 -18 -20 -52 -36 -75 -17 -22 -30 -43 -30 -46 0 -13 30
-3 40 13 8 13 10 -5 5 -70 -5 -76 -4 -88 9 -88 13 0 16 15 18 78 1 42 2 88 2
102 1 14 10 42 21 63 17 33 17 39 5 47 -23 15 -27 12 -34 -24z"/>
<path d="M210 4396 c0 -36 -4 -46 -20 -51 -11 -3 -20 -11 -20 -17 0 -6 9 -8
20 -5 16 4 20 0 20 -20 0 -17 -7 -27 -21 -30 -18 -5 -19 -11 -14 -47 4 -22 8
-42 9 -43 1 -1 17 4 37 10 26 8 39 20 47 40 13 35 8 47 -19 47 -26 0 -25 36 1
50 24 13 26 30 4 30 -12 0 -14 7 -9 31 5 22 3 34 -6 40 -25 15 -29 10 -29 -35z
m30 -149 c0 -14 -20 -37 -32 -37 -4 0 -8 11 -8 25 0 18 5 25 20 25 11 0 20 -6
20 -13z"/>
<path d="M146 3966 c-4 -18 -20 -52 -36 -75 -17 -22 -30 -43 -30 -46 0 -13 30
-3 40 13 8 13 10 -5 5 -70 -5 -76 -4 -88 9 -88 13 0 16 15 18 78 1 42 2 88 2
102 1 14 10 42 21 63 17 33 17 39 5 47 -23 15 -27 12 -34 -24z"/>
<path d="M310 3976 c0 -13 -7 -43 -15 -66 -18 -50 -18 -50 -5 -50 16 0 64 105
57 124 -10 25 -37 20 -37 -8z"/>
<path d="M210 3946 c0 -36 -4 -46 -20 -51 -11 -3 -20 -11 -20 -17 0 -6 9 -8
20 -5 16 4 20 0 20 -20 0 -17 -7 -27 -21 -30 -18 -5 -19 -11 -14 -47 4 -22 8
-42 9 -43 1 -1 17 4 37 10 26 8 39 20 47 40 13 35 8 47 -19 47 -26 0 -25 36 1
50 24 13 26 30 4 30 -12 0 -14 7 -9 31 5 22 3 34 -6 40 -25 15 -29 10 -29 -35z
m30 -149 c0 -14 -20 -37 -32 -37 -4 0 -8 11 -8 25 0 18 5 25 20 25 11 0 20 -6
20 -13z"/>
<path d="M146 3516 c-4 -18 -20 -52 -36 -75 -17 -22 -30 -43 -30 -46 0 -13 30
-3 40 13 8 13 10 -5 5 -70 -5 -76 -4 -88 9 -88 13 0 16 15 18 78 1 42 2 88 2
102 1 14 10 42 21 63 17 33 17 39 5 47 -23 15 -27 12 -34 -24z"/>
<path d="M310 3527 c0 -13 -7 -44 -15 -67 -17 -49 -13 -61 13 -37 10 10 30 17
44 17 34 0 58 9 58 22 0 7 -16 8 -41 4 -37 -6 -41 -5 -34 11 15 33 11 67 -7
71 -13 3 -18 -3 -18 -21z"/>
<path d="M210 3496 c0 -36 -4 -46 -20 -51 -11 -3 -20 -11 -20 -17 0 -6 9 -8
20 -5 16 4 20 0 20 -20 0 -17 -7 -27 -21 -30 -18 -5 -19 -11 -14 -47 4 -22 8
-42 9 -43 1 -1 17 4 37 10 26 8 39 20 47 40 13 35 8 47 -19 47 -26 0 -25 36 1
50 24 13 26 30 4 30 -12 0 -14 7 -9 31 5 22 3 34 -6 40 -25 15 -29 10 -29 -35z
m30 -149 c0 -14 -20 -37 -32 -37 -4 0 -8 11 -8 25 0 18 5 25 20 25 11 0 20 -6
20 -13z"/>
<path d="M146 3066 c-4 -18 -20 -52 -36 -75 -17 -22 -30 -43 -30 -46 0 -13 30
-3 40 13 8 13 10 -5 5 -70 -5 -76 -4 -88 9 -88 13 0 16 15 18 78 1 42 2 88 2
102 1 14 10 42 21 63 17 33 17 39 5 47 -23 15 -27 12 -34 -24z"/>
<path d="M310 3077 c0 -13 -7 -44 -15 -67 -18 -50 -13 -61 15 -35 18 17 20 17
26 1 15 -39 -24 -117 -72 -144 -32 -18 -8 -24 30 -8 40 17 60 52 72 125 4 27
13 42 25 46 37 12 20 28 -22 21 -37 -6 -41 -5 -34 11 15 33 11 67 -7 71 -13 3
-18 -3 -18 -21z"/>
<path d="M210 3046 c0 -36 -4 -46 -20 -51 -11 -3 -20 -11 -20 -17 0 -6 9 -8
20 -5 16 4 20 0 20 -20 0 -17 -7 -27 -21 -30 -18 -5 -19 -11 -14 -47 4 -22 8
-42 9 -43 1 -1 17 4 37 10 26 8 39 20 47 40 13 35 8 47 -19 47 -26 0 -25 36 1
50 24 13 26 30 4 30 -12 0 -14 7 -9 31 5 22 3 34 -6 40 -25 15 -29 10 -29 -35z
m30 -149 c0 -14 -20 -37 -32 -37 -4 0 -8 11 -8 25 0 18 5 25 20 25 11 0 20 -6
20 -13z"/>
<path d="M146 2616 c-4 -18 -20 -52 -36 -75 -17 -22 -30 -43 -30 -46 0 -13 30
-3 40 13 8 13 10 -5 5 -70 -5 -76 -4 -88 9 -88 13 0 16 15 18 78 1 42 2 88 2
102 1 14 10 42 21 63 17 33 17 39 5 47 -23 15 -27 12 -34 -24z"/>
<path d="M310 2627 c0 -13 -7 -44 -15 -67 -18 -50 -13 -61 15 -35 18 16 20 16
26 1 3 -9 3 -28 0 -42 -6 -21 -9 -24 -22 -13 -21 17 -27 6 -12 -26 13 -28 7
-37 -42 -65 -33 -19 2 -21 39 -3 l40 20 18 -25 c15 -21 23 -23 51 -18 41 10
41 19 -2 34 -52 19 -57 30 -44 95 8 39 18 59 30 63 36 11 19 27 -23 20 -37 -6
-41 -5 -34 11 15 33 11 67 -7 71 -13 3 -18 -3 -18 -21z"/>
<path d="M210 2596 c0 -36 -4 -46 -20 -51 -11 -3 -20 -11 -20 -17 0 -6 9 -8
20 -5 16 4 20 0 20 -20 0 -17 -7 -27 -21 -30 -18 -5 -19 -11 -14 -47 4 -22 8
-42 9 -43 1 -1 17 4 37 10 26 8 39 20 47 40 13 35 8 47 -19 47 -26 0 -25 36 1
50 24 13 26 30 4 30 -12 0 -14 7 -9 31 5 22 3 34 -6 40 -25 15 -29 10 -29 -35z
m30 -149 c0 -14 -20 -37 -32 -37 -4 0 -8 11 -8 25 0 18 5 25 20 25 11 0 20 -6
20 -13z"/>
</g>
</svg>
