<?xml version="1.0" standalone="no"?>
<!DOCTYPE svg PUBLIC "-//W3C//DTD SVG 20010904//EN"
 "http://www.w3.org/TR/2001/REC-SVG-20010904/DTD/svg10.dtd">
<svg version="1.0" xmlns="http://www.w3.org/2000/svg"
 width="50.000000pt" height="725.000000pt" viewBox="0 0 50.000000 725.000000"
 preserveAspectRatio="xMidYMid meet">
<metadata>
Created by potrace 1.16, written by Peter Selinger 2001-2019
</metadata>
<g transform="translate(0.000000,725.000000) scale(0.100000,-0.100000)"
fill="#000000" stroke="none">
<path d="M190 7108 c-7 -18 -31 -57 -52 -86 -43 -58 -44 -80 -2 -41 34 30 94
123 94 144 0 27 -27 16 -40 -17z"/>
<path d="M190 6658 c-7 -18 -31 -57 -52 -86 -45 -61 -43 -80 3 -36 l32 29 -7
-87 c-4 -57 -2 -89 5 -93 6 -4 12 -5 14 -4 1 2 5 55 8 117 4 79 10 120 21 137
9 13 16 31 16 40 0 27 -27 16 -40 -17z"/>
<path d="M294 6255 c3 -9 6 -37 6 -62 0 -31 4 -43 13 -40 7 2 12 23 12 58 0
45 -3 54 -19 57 -14 3 -17 0 -12 -13z"/>
<path d="M190 6208 c-7 -18 -31 -57 -52 -86 -45 -61 -43 -80 3 -36 l32 29 -7
-87 c-4 -57 -2 -89 5 -93 6 -4 12 -5 14 -4 1 2 5 55 8 117 4 79 10 120 21 137
9 13 16 31 16 40 0 27 -27 16 -40 -17z"/>
<path d="M294 5805 c3 -9 6 -37 6 -62 0 -31 4 -43 13 -41 6 3 13 14 15 26 2
14 11 22 22 22 26 0 50 11 50 22 0 6 -14 8 -34 5 -30 -5 -35 -3 -38 16 -2 12
-12 23 -22 25 -14 3 -17 0 -12 -13z"/>
<path d="M190 5758 c-7 -18 -31 -57 -52 -86 -45 -61 -43 -80 3 -36 l32 29 -7
-87 c-4 -57 -2 -89 5 -93 6 -4 12 -5 14 -4 1 2 5 55 8 117 4 79 10 120 21 137
9 13 16 31 16 40 0 27 -27 16 -40 -17z"/>
<path d="M294 5355 c3 -9 6 -37 6 -62 0 -31 4 -43 13 -41 6 3 13 14 15 26 2
14 11 22 22 22 26 0 50 11 50 22 0 6 -14 8 -34 5 -30 -5 -35 -3 -38 16 -2 12
-12 23 -22 25 -14 3 -17 0 -12 -13z"/>
<path d="M190 5308 c-7 -18 -31 -57 -52 -86 -45 -61 -43 -80 3 -36 l32 29 -7
-87 c-4 -57 -2 -89 5 -93 6 -4 12 -5 14 -4 1 2 5 55 8 117 4 79 10 120 21 137
9 13 16 31 16 40 0 27 -27 16 -40 -17z"/>
<path d="M244 5180 c-1 -61 2 -80 12 -80 11 0 14 19 14 80 0 57 -4 80 -12 80
-9 0 -13 -23 -14 -80z"/>
<path d="M298 4865 l4 -55 -28 0 -29 0 -1 -80 c-1 -61 2 -80 12 -80 11 0 14
18 14 70 l0 69 35 7 c59 11 65 3 65 -77 0 -52 3 -70 13 -67 7 3 14 33 18 79 6
82 -5 103 -48 93 -17 -5 -23 -2 -23 10 0 9 8 16 19 16 27 0 51 10 51 22 0 6
-14 8 -34 5 -30 -5 -35 -3 -38 16 -2 12 -10 23 -19 25 -13 2 -15 -6 -11 -53z"/>
<path d="M190 4858 c-7 -18 -31 -57 -52 -86 -45 -61 -43 -80 3 -36 l32 29 -7
-87 c-4 -57 -2 -89 5 -93 6 -4 12 -5 14 -4 1 2 5 55 8 117 4 79 10 120 21 137
9 13 16 31 16 40 0 27 -27 16 -40 -17z"/>
<path d="M298 4415 l4 -55 -28 0 -29 0 -1 -80 c-1 -61 2 -80 12 -80 10 0 14
15 14 50 0 48 1 50 28 50 15 0 37 3 50 6 21 6 22 4 22 -51 0 -41 3 -56 13 -53
7 3 14 33 18 79 6 82 -5 103 -48 93 -17 -5 -23 -2 -23 10 0 9 8 16 19 16 27 0
51 10 51 22 0 6 -14 8 -34 5 -30 -5 -35 -3 -38 16 -2 12 -10 23 -19 25 -13 2
-15 -6 -11 -53z m66 -74 c6 -8 -39 -21 -75 -21 -24 0 -25 17 -1 23 31 8 71 7
76 -2z"/>
<path d="M190 4408 c-7 -18 -31 -57 -52 -86 -45 -61 -43 -80 3 -36 l32 29 -7
-87 c-4 -57 -2 -89 5 -93 6 -4 12 -5 14 -4 1 2 5 55 8 117 4 79 10 120 21 137
9 13 16 31 16 40 0 27 -27 16 -40 -17z"/>
<path d="M298 3965 l4 -55 -28 0 -29 0 -1 -80 c-1 -61 2 -80 12 -80 8 0 14 11
14 24 0 22 6 26 45 32 25 3 45 11 45 16 0 7 -17 8 -45 5 -36 -5 -45 -4 -45 8
0 10 10 15 28 15 15 0 37 3 50 6 21 6 22 4 22 -51 0 -41 3 -56 13 -53 7 3 14
33 18 79 6 82 -5 103 -48 93 -17 -5 -23 -2 -23 10 0 9 8 16 19 16 27 0 51 10
51 22 0 6 -14 8 -34 5 -30 -5 -35 -3 -38 16 -2 12 -10 23 -19 25 -13 2 -15 -6
-11 -53z m66 -74 c6 -8 -39 -21 -75 -21 -24 0 -25 17 -1 23 31 8 71 7 76 -2z"/>
<path d="M190 3958 c-7 -18 -31 -57 -52 -86 -45 -61 -43 -80 3 -36 l32 29 -7
-87 c-4 -57 -2 -89 5 -93 6 -4 12 -5 14 -4 1 2 5 55 8 117 4 79 10 120 21 137
9 13 16 31 16 40 0 27 -27 16 -40 -17z"/>
<path d="M298 3515 l4 -55 -28 0 -29 0 -1 -78 -1 -77 76 1 76 2 6 73 c6 82 -5
103 -48 93 -17 -5 -23 -2 -23 10 0 9 8 16 19 16 27 0 51 10 51 22 0 6 -14 8
-34 5 -30 -5 -35 -3 -38 16 -2 12 -10 23 -19 25 -13 2 -15 -6 -11 -53z m66
-74 c6 -8 -39 -21 -75 -21 -24 0 -25 17 -1 23 31 8 71 7 76 -2z m6 -66 c0 -21
-5 -35 -12 -35 -7 0 -30 -3 -50 -6 -24 -4 -38 -3 -38 4 0 6 20 14 45 18 25 3
45 11 45 16 0 7 -17 8 -45 5 -35 -5 -45 -3 -45 8 0 9 14 15 38 18 20 2 43 4
50 5 7 1 12 -11 12 -33z"/>
<path d="M190 3508 c-7 -18 -31 -57 -52 -86 -45 -61 -43 -80 3 -36 l32 29 -7
-87 c-4 -57 -2 -89 5 -93 6 -4 12 -5 14 -4 1 2 5 55 8 117 4 79 10 120 21 137
9 13 16 31 16 40 0 27 -27 16 -40 -17z"/>
<path d="M298 3065 l4 -55 -28 0 -29 0 -1 -80 c-1 -66 2 -80 14 -80 12 0 8 -8
-11 -28 -29 -30 -33 -42 -15 -42 19 0 78 50 78 66 0 12 9 15 43 12 l42 -3 6
75 c6 83 -5 104 -48 94 -17 -5 -23 -2 -23 10 0 9 8 16 19 16 27 0 51 10 51 22
0 6 -14 8 -34 5 -30 -5 -35 -3 -38 16 -2 12 -10 23 -19 25 -13 2 -15 -6 -11
-53z m66 -74 c6 -8 -39 -21 -75 -21 -24 0 -25 17 -1 23 31 8 71 7 76 -2z m6
-66 c0 -21 -5 -35 -12 -35 -7 0 -30 -3 -50 -6 -24 -4 -38 -3 -38 4 0 6 20 14
45 18 25 3 45 11 45 16 0 7 -17 8 -45 5 -35 -5 -45 -3 -45 8 0 9 14 15 38 18
20 2 43 4 50 5 7 1 12 -11 12 -33z"/>
<path d="M190 3058 c-7 -18 -31 -57 -52 -86 -45 -61 -43 -80 3 -36 l32 29 -7
-87 c-4 -57 -2 -89 5 -93 6 -4 12 -5 14 -4 1 2 5 55 8 117 4 79 10 120 21 137
9 13 16 31 16 40 0 27 -27 16 -40 -17z"/>
<path d="M298 2615 l4 -55 -28 0 -29 0 -1 -80 c-1 -66 2 -80 14 -80 12 0 8 -8
-11 -28 -29 -30 -33 -42 -15 -42 19 0 78 50 78 66 0 12 9 15 43 12 l42 -3 6
75 c6 83 -5 104 -48 94 -17 -5 -23 -2 -23 10 0 9 8 16 19 16 27 0 51 10 51 22
0 6 -14 8 -34 5 -30 -5 -35 -3 -38 16 -2 12 -10 23 -19 25 -13 2 -15 -6 -11
-53z m66 -74 c6 -8 -39 -21 -75 -21 -24 0 -25 17 -1 23 31 8 71 7 76 -2z m6
-66 c0 -21 -5 -35 -12 -35 -7 0 -30 -3 -50 -6 -24 -4 -38 -3 -38 4 0 6 20 14
45 18 25 3 45 11 45 16 0 7 -17 8 -45 5 -35 -5 -45 -3 -45 8 0 9 14 15 38 18
20 2 43 4 50 5 7 1 12 -11 12 -33z"/>
<path d="M190 2608 c-7 -18 -31 -57 -52 -86 -45 -61 -43 -80 3 -36 l32 29 -7
-87 c-4 -57 -2 -89 5 -93 6 -4 12 -5 14 -4 1 2 5 55 8 117 4 79 10 120 21 137
9 13 16 31 16 40 0 27 -27 16 -40 -17z"/>
<path d="M340 2394 c0 -12 56 -74 68 -74 22 0 13 38 -14 59 -25 20 -54 28 -54
15z"/>
</g>
</svg>
