<?xml version="1.0" standalone="no"?>
<!DOCTYPE svg PUBLIC "-//W3C//DTD SVG 20010904//EN"
 "http://www.w3.org/TR/2001/REC-SVG-20010904/DTD/svg10.dtd">
<svg version="1.0" xmlns="http://www.w3.org/2000/svg"
 width="50.000000pt" height="725.000000pt" viewBox="0 0 50.000000 725.000000"
 preserveAspectRatio="xMidYMid meet">
<metadata>
Created by potrace 1.16, written by Peter Selinger 2001-2019
</metadata>
<g transform="translate(0.000000,725.000000) scale(0.100000,-0.100000)"
fill="#000000" stroke="none">
<path d="M163 7117 c-7 -23 -28 -64 -48 -90 -20 -27 -34 -51 -30 -55 10 -10
75 66 105 122 22 40 23 48 10 56 -23 15 -25 13 -37 -33z"/>
<path d="M163 6667 c-7 -23 -28 -64 -48 -90 -41 -53 -40 -74 1 -36 l26 24 -3
-82 c-3 -76 3 -105 17 -91 3 4 7 53 8 110 2 88 6 109 27 146 21 37 22 44 9 52
-23 15 -25 13 -37 -33z"/>
<path d="M163 6217 c-7 -23 -28 -64 -48 -90 -41 -53 -40 -74 1 -36 l26 24 -3
-82 c-3 -76 3 -105 17 -91 3 4 7 53 8 110 2 88 6 109 27 146 21 37 22 44 9 52
-23 15 -25 13 -37 -33z"/>
<path d="M220 6234 c0 -16 23 -44 35 -44 18 0 18 5 5 31 -10 17 -40 27 -40 13z"/>
<path d="M285 5783 c-7 -38 -7 -38 -22 -15 -14 20 -43 31 -43 16 0 -16 23 -44
36 -44 12 0 10 -8 -7 -42 -12 -24 -33 -60 -47 -80 -29 -45 -22 -61 13 -28 32
30 118 197 111 216 -11 27 -34 14 -41 -23z"/>
<path d="M163 5767 c-7 -23 -28 -64 -48 -90 -41 -53 -40 -74 1 -36 l26 24 -3
-82 c-3 -76 3 -105 17 -91 3 4 7 53 8 110 2 88 6 109 27 146 21 37 22 44 9 52
-23 15 -25 13 -37 -33z"/>
<path d="M285 5333 c-7 -38 -7 -38 -22 -15 -14 20 -43 31 -43 16 0 -17 23 -44
38 -44 15 0 15 -2 2 -10 -8 -5 -25 -10 -37 -10 -31 0 -29 -18 2 -22 l26 -3
-37 -58 c-20 -32 -33 -61 -29 -65 20 -20 154 201 141 234 -11 28 -34 14 -41
-23z"/>
<path d="M163 5317 c-7 -23 -28 -64 -48 -90 -41 -53 -40 -74 1 -36 l26 24 -3
-82 c-3 -76 3 -105 17 -91 3 4 7 53 8 110 2 88 6 109 27 146 21 37 22 44 9 52
-23 15 -25 13 -37 -33z"/>
<path d="M313 5250 c-2 -46 8 -51 32 -14 19 30 14 54 -13 54 -14 0 -18 -9 -19
-40z"/>
<path d="M285 4883 c-7 -38 -7 -38 -22 -15 -14 20 -43 31 -43 16 0 -17 23 -44
38 -44 15 0 15 -2 2 -10 -8 -5 -25 -10 -37 -10 -31 0 -29 -18 2 -22 l26 -3
-37 -58 c-44 -70 -36 -88 15 -30 25 29 47 44 72 48 35 7 36 6 32 -19 -7 -34
10 -33 28 0 12 23 11 27 -3 38 -13 9 -14 16 -6 24 16 16 2 42 -23 42 -15 0
-19 -4 -15 -16 8 -20 -10 -54 -29 -54 -10 0 -6 16 16 61 30 61 32 89 5 89 -8
0 -17 -15 -21 -37z"/>
<path d="M163 4867 c-7 -23 -28 -64 -48 -90 -41 -53 -40 -74 1 -36 l26 24 -3
-82 c-3 -76 3 -105 17 -91 3 4 7 53 8 110 2 88 6 109 27 146 21 37 22 44 9 52
-23 15 -25 13 -37 -33z"/>
<path d="M285 4433 c-7 -38 -7 -38 -22 -15 -14 20 -43 31 -43 16 0 -17 23 -44
38 -44 15 0 15 -2 2 -10 -8 -5 -25 -10 -37 -10 -31 0 -29 -18 2 -22 l26 -3
-37 -58 c-34 -55 -40 -82 -12 -60 13 11 127 33 166 33 25 0 29 -29 12 -75 -8
-20 -15 -25 -30 -20 -23 7 -25 2 -10 -26 25 -46 63 -13 79 72 14 68 6 83 -36
73 -18 -5 -21 -2 -16 15 3 14 0 23 -11 27 -13 5 -14 9 -5 20 16 19 4 44 -22
44 -15 0 -19 -4 -15 -16 8 -20 -10 -54 -29 -54 -10 0 -6 16 16 61 30 61 32 89
5 89 -8 0 -17 -15 -21 -37z m46 -142 c-7 -12 -24 -20 -51 -23 -22 -2 -40 -1
-40 3 0 17 40 35 83 38 14 1 16 -3 8 -18z"/>
<path d="M163 4417 c-7 -23 -28 -64 -48 -90 -41 -53 -40 -74 1 -36 l26 24 -3
-82 c-3 -76 3 -105 17 -91 3 4 7 53 8 110 2 88 6 109 27 146 21 37 22 44 9 52
-23 15 -25 13 -37 -33z"/>
<path d="M285 3983 c-7 -38 -7 -38 -22 -15 -14 20 -43 31 -43 16 0 -17 23 -44
38 -44 15 0 15 -2 2 -10 -8 -5 -25 -10 -37 -10 -31 0 -29 -18 2 -22 l26 -3
-37 -58 c-34 -55 -40 -82 -12 -60 13 11 127 33 166 33 25 0 29 -29 12 -75 -8
-20 -15 -25 -30 -20 -23 7 -25 2 -10 -26 25 -46 63 -13 79 72 14 68 6 83 -36
73 -18 -5 -21 -2 -16 15 3 14 0 23 -11 27 -13 5 -14 9 -5 20 16 19 4 44 -22
44 -15 0 -19 -4 -15 -16 8 -20 -10 -54 -29 -54 -10 0 -6 16 16 61 30 61 32 89
5 89 -8 0 -17 -15 -21 -37z m46 -142 c-7 -12 -24 -20 -51 -23 -22 -2 -40 -1
-40 3 0 17 40 35 83 38 14 1 16 -3 8 -18z"/>
<path d="M163 3967 c-7 -23 -28 -64 -48 -90 -41 -53 -40 -74 1 -36 l26 24 -3
-82 c-3 -76 3 -105 17 -91 3 4 7 53 8 110 2 88 6 109 27 146 21 37 22 44 9 52
-23 15 -25 13 -37 -33z"/>
<path d="M204 3745 c-7 -29 -1 -41 15 -30 14 8 14 55 1 55 -5 0 -12 -11 -16
-25z"/>
<path d="M285 3533 c-7 -38 -7 -38 -22 -15 -14 20 -43 31 -43 16 0 -17 23 -44
38 -44 15 0 15 -2 2 -10 -8 -5 -25 -10 -37 -10 -31 0 -29 -18 2 -22 l26 -3
-37 -58 c-34 -55 -40 -82 -12 -60 13 11 127 33 166 33 25 0 29 -29 12 -75 -8
-20 -15 -25 -30 -20 -23 7 -25 2 -10 -26 25 -46 63 -13 79 72 14 68 6 83 -36
73 -18 -5 -21 -2 -16 15 3 14 0 23 -11 27 -13 5 -14 9 -5 20 16 19 4 44 -22
44 -15 0 -19 -4 -15 -16 8 -20 -10 -54 -29 -54 -10 0 -6 16 16 61 30 61 32 89
5 89 -8 0 -17 -15 -21 -37z m46 -142 c-7 -12 -24 -20 -51 -23 -22 -2 -40 -1
-40 3 0 17 40 35 83 38 14 1 16 -3 8 -18z"/>
<path d="M163 3517 c-7 -23 -28 -64 -48 -90 -41 -53 -40 -74 1 -36 l26 24 -3
-82 c-3 -76 3 -105 17 -91 3 4 7 53 8 110 2 88 6 109 27 146 21 37 22 44 9 52
-23 15 -25 13 -37 -33z"/>
<path d="M204 3295 c-7 -29 -1 -41 15 -30 14 8 14 55 1 55 -5 0 -12 -11 -16
-25z"/>
<path d="M250 3312 c0 -19 12 -42 22 -42 14 0 5 43 -9 48 -7 2 -13 -1 -13 -6z"/>
<path d="M285 3083 c-7 -38 -7 -38 -22 -15 -14 20 -43 31 -43 16 0 -17 23 -44
38 -44 15 0 15 -2 2 -10 -8 -5 -25 -10 -37 -10 -31 0 -29 -18 2 -22 l26 -3
-37 -58 c-34 -55 -40 -82 -12 -60 13 11 127 33 166 33 25 0 29 -29 12 -75 -8
-20 -15 -25 -30 -20 -23 7 -25 2 -10 -26 25 -46 63 -13 79 72 14 68 6 83 -36
73 -18 -5 -21 -2 -16 15 3 14 0 23 -11 27 -13 5 -14 9 -5 20 16 19 4 44 -22
44 -15 0 -19 -4 -15 -16 8 -20 -10 -54 -29 -54 -10 0 -6 16 16 61 30 61 32 89
5 89 -8 0 -17 -15 -21 -37z m46 -142 c-7 -12 -24 -20 -51 -23 -22 -2 -40 -1
-40 3 0 17 40 35 83 38 14 1 16 -3 8 -18z"/>
<path d="M163 3067 c-7 -23 -28 -64 -48 -90 -41 -53 -40 -74 1 -36 l26 24 -3
-82 c-3 -76 3 -105 17 -91 3 4 7 53 8 110 2 88 6 109 27 146 21 37 22 44 9 52
-23 15 -25 13 -37 -33z"/>
<path d="M290 2872 c0 -19 12 -42 22 -42 14 0 5 43 -9 48 -7 2 -13 -1 -13 -6z"/>
<path d="M204 2845 c-7 -29 -1 -41 15 -30 14 8 14 55 1 55 -5 0 -12 -11 -16
-25z"/>
<path d="M250 2862 c0 -19 12 -42 22 -42 14 0 5 43 -9 48 -7 2 -13 -1 -13 -6z"/>
<path d="M285 2633 c-7 -38 -7 -38 -22 -15 -14 20 -43 31 -43 16 0 -17 23 -44
38 -44 15 0 15 -2 2 -10 -8 -5 -25 -10 -37 -10 -31 0 -29 -18 2 -22 l26 -3
-37 -58 c-34 -55 -40 -82 -12 -60 13 11 127 33 166 33 25 0 29 -29 12 -75 -8
-20 -15 -25 -30 -20 -23 7 -25 2 -10 -26 25 -46 63 -13 79 72 14 68 6 83 -36
73 -18 -5 -21 -2 -16 15 3 14 0 23 -11 27 -13 5 -14 9 -5 20 16 19 4 44 -22
44 -15 0 -19 -4 -15 -16 8 -20 -10 -54 -29 -54 -10 0 -6 16 16 61 30 61 32 89
5 89 -8 0 -17 -15 -21 -37z m46 -142 c-7 -12 -24 -20 -51 -23 -22 -2 -40 -1
-40 3 0 17 40 35 83 38 14 1 16 -3 8 -18z"/>
<path d="M163 2617 c-7 -23 -28 -64 -48 -90 -41 -53 -40 -74 1 -36 l26 24 -3
-82 c-3 -76 3 -105 17 -91 3 4 7 53 8 110 2 88 6 109 27 146 21 37 22 44 9 52
-23 15 -25 13 -37 -33z"/>
<path d="M330 2428 c0 -16 19 -38 33 -38 4 0 7 10 5 22 -3 25 -38 39 -38 16z"/>
<path d="M290 2422 c0 -19 12 -42 22 -42 14 0 5 43 -9 48 -7 2 -13 -1 -13 -6z"/>
<path d="M204 2395 c-7 -29 -1 -41 15 -30 14 8 14 55 1 55 -5 0 -12 -11 -16
-25z"/>
<path d="M250 2412 c0 -19 12 -42 22 -42 14 0 5 43 -9 48 -7 2 -13 -1 -13 -6z"/>
</g>
</svg>
