<?xml version="1.0" standalone="no"?>
<!DOCTYPE svg PUBLIC "-//W3C//DTD SVG 20010904//EN"
 "http://www.w3.org/TR/2001/REC-SVG-20010904/DTD/svg10.dtd">
<svg version="1.0" xmlns="http://www.w3.org/2000/svg"
 width="50.000000pt" height="725.000000pt" viewBox="0 0 50.000000 725.000000"
 preserveAspectRatio="xMidYMid meet">
<metadata>
Created by potrace 1.16, written by Peter Selinger 2001-2019
</metadata>
<g transform="translate(0.000000,725.000000) scale(0.100000,-0.100000)"
fill="#000000" stroke="none">
<path d="M156 7104 c-11 -26 -33 -62 -49 -81 -32 -36 -31 -51 1 -34 23 12 94
116 96 139 0 9 -6 18 -14 19 -10 2 -22 -13 -34 -43z"/>
<path d="M156 6653 c-11 -25 -33 -61 -49 -80 -34 -39 -30 -54 9 -28 l27 17 -7
-86 c-6 -74 -5 -86 8 -86 13 0 16 15 18 80 3 128 4 136 27 174 12 19 20 40 16
46 -13 21 -31 8 -49 -37z"/>
<path d="M255 6220 c-10 -22 -15 -44 -11 -48 10 -9 57 49 54 67 -6 29 -25 20
-43 -19z"/>
<path d="M156 6203 c-11 -25 -33 -61 -49 -80 -34 -39 -30 -54 9 -28 l27 17 -7
-86 c-6 -74 -5 -86 8 -86 13 0 16 15 18 80 3 128 4 136 27 174 12 19 20 40 16
46 -13 21 -31 8 -49 -37z"/>
<path d="M255 5770 c-10 -22 -15 -44 -11 -48 10 -9 57 49 54 67 -6 29 -25 20
-43 -19z"/>
<path d="M156 5753 c-11 -25 -33 -61 -49 -80 -34 -39 -30 -54 9 -28 l27 17 -7
-86 c-6 -74 -5 -86 8 -86 13 0 16 15 18 80 3 128 4 136 27 174 12 19 20 40 16
46 -13 21 -31 8 -49 -37z"/>
<path d="M195 5714 c5 -11 10 -36 13 -56 6 -58 23 -45 20 14 -2 43 -7 54 -22
56 -15 3 -17 0 -11 -14z"/>
<path d="M255 5320 c-14 -31 -24 -40 -43 -40 -19 0 -23 -3 -16 -17 4 -10 9
-35 12 -55 6 -53 22 -47 22 7 0 36 3 45 18 45 19 1 57 73 47 90 -11 18 -22 11
-40 -30z"/>
<path d="M156 5303 c-11 -25 -33 -61 -49 -80 -34 -39 -30 -54 9 -28 l27 17 -7
-86 c-6 -74 -5 -86 8 -86 13 0 16 15 18 80 3 128 4 136 27 174 12 19 20 40 16
46 -13 21 -31 8 -49 -37z"/>
<path d="M308 5293 c-37 -6 -36 -23 1 -23 28 0 29 -1 20 -37 -11 -49 -11 -53
1 -53 5 0 18 21 30 46 15 36 17 50 9 60 -6 8 -17 13 -23 13 -6 -1 -23 -4 -38
-6z"/>
<path d="M255 4870 c-14 -31 -24 -40 -43 -40 -19 0 -23 -3 -16 -17 4 -10 9
-35 12 -55 5 -42 22 -52 22 -13 0 21 5 25 28 25 15 0 37 3 50 6 21 6 22 4 16
-20 -11 -44 13 -30 36 21 26 58 14 76 -43 66 -45 -7 -49 -23 -5 -23 47 0 22
-18 -35 -26 -32 -5 -47 -3 -47 5 0 6 8 11 18 11 19 1 57 73 47 90 -11 18 -22
11 -40 -30z"/>
<path d="M156 4853 c-11 -25 -33 -61 -49 -80 -34 -39 -30 -54 9 -28 l27 17 -7
-86 c-6 -74 -5 -86 8 -86 13 0 16 15 18 80 3 128 4 136 27 174 12 19 20 40 16
46 -13 21 -31 8 -49 -37z"/>
<path d="M255 4420 c-14 -31 -24 -40 -43 -40 -19 0 -23 -3 -16 -17 4 -10 9
-35 12 -55 5 -42 22 -52 22 -13 0 28 27 35 36 10 8 -21 21 -19 27 5 3 11 12
20 21 20 12 0 15 -6 10 -25 -11 -43 14 -28 36 22 27 61 14 79 -49 64 l-42 -9
16 25 c16 24 14 53 -3 53 -5 0 -17 -18 -27 -40z m80 -60 c-3 -5 -13 -10 -21
-10 -8 0 -14 5 -14 10 0 6 9 10 21 10 11 0 17 -4 14 -10z m-75 -10 c0 -5 -7
-10 -15 -10 -8 0 -15 5 -15 10 0 6 7 10 15 10 8 0 15 -4 15 -10z"/>
<path d="M156 4403 c-11 -25 -33 -61 -49 -80 -34 -39 -30 -54 9 -28 l27 17 -7
-86 c-6 -74 -5 -86 8 -86 13 0 16 15 18 80 3 128 4 136 27 174 12 19 20 40 16
46 -13 21 -31 8 -49 -37z"/>
<path d="M255 3970 c-14 -31 -24 -40 -43 -40 -19 0 -23 -3 -16 -17 4 -10 9
-35 12 -56 2 -23 9 -36 16 -34 6 2 10 14 9 26 -3 22 20 30 32 11 3 -5 1 -10
-4 -10 -6 0 -11 -4 -11 -10 0 -5 20 -10 45 -10 43 0 45 1 65 47 27 61 14 79
-49 64 l-42 -9 16 25 c16 24 14 53 -3 53 -5 0 -17 -18 -27 -40z m80 -60 c-3
-5 -13 -10 -21 -10 -8 0 -14 5 -14 10 0 6 9 10 21 10 11 0 17 -4 14 -10z m-75
-10 c0 -5 -7 -10 -15 -10 -8 0 -15 5 -15 10 0 6 7 10 15 10 8 0 15 -4 15 -10z
m70 -30 c0 -12 -28 -25 -36 -17 -9 9 6 27 22 27 8 0 14 -5 14 -10z"/>
<path d="M156 3953 c-11 -25 -33 -61 -49 -80 -34 -39 -30 -54 9 -28 l27 17 -7
-86 c-6 -74 -5 -86 8 -86 13 0 16 15 18 80 3 128 4 136 27 174 12 19 20 40 16
46 -13 21 -31 8 -49 -37z"/>
<path d="M255 3520 c-14 -31 -24 -40 -43 -40 -19 0 -23 -3 -16 -17 4 -10 9
-35 12 -56 3 -28 8 -37 19 -33 19 8 9 -27 -24 -77 -13 -22 -22 -41 -19 -45 11
-10 55 40 73 84 16 39 22 44 50 44 29 0 34 5 53 47 27 61 14 79 -49 64 l-42
-9 16 25 c16 24 14 53 -3 53 -5 0 -17 -18 -27 -40z m80 -60 c-3 -5 -13 -10
-21 -10 -8 0 -14 5 -14 10 0 6 9 10 21 10 11 0 17 -4 14 -10z m-75 -10 c0 -5
-7 -10 -15 -10 -8 0 -15 5 -15 10 0 6 7 10 15 10 8 0 15 -4 15 -10z m70 -30
c0 -12 -28 -25 -36 -17 -9 9 6 27 22 27 8 0 14 -5 14 -10z m-66 -9 c3 -5 0
-11 -8 -14 -15 -6 -26 1 -26 15 0 11 27 10 34 -1z"/>
<path d="M156 3503 c-11 -25 -33 -61 -49 -80 -34 -39 -30 -54 9 -28 l27 17 -7
-86 c-6 -74 -5 -86 8 -86 13 0 16 15 18 80 3 128 4 136 27 174 12 19 20 40 16
46 -13 21 -31 8 -49 -37z"/>
<path d="M255 3070 c-14 -31 -24 -40 -43 -40 -19 0 -23 -3 -16 -17 4 -10 9
-35 12 -56 3 -28 8 -37 19 -33 19 8 9 -27 -24 -77 -13 -22 -22 -41 -19 -45 11
-10 49 33 72 83 l24 50 -2 -62 c-4 -78 6 -88 82 -88 69 0 83 10 74 53 -8 37
-21 42 -26 10 -2 -19 -10 -24 -47 -26 -24 -2 -48 1 -54 7 -14 14 1 101 18 101
8 0 23 21 35 47 27 61 14 79 -49 64 l-42 -9 16 25 c16 24 14 53 -3 53 -5 0
-17 -18 -27 -40z m80 -60 c-3 -5 -13 -10 -21 -10 -8 0 -14 5 -14 10 0 6 9 10
21 10 11 0 17 -4 14 -10z m-75 -10 c0 -5 -7 -10 -15 -10 -8 0 -15 5 -15 10 0
6 7 10 15 10 8 0 15 -4 15 -10z m70 -30 c0 -12 -28 -25 -36 -17 -9 9 6 27 22
27 8 0 14 -5 14 -10z m-66 -9 c3 -5 0 -11 -8 -14 -15 -6 -26 1 -26 15 0 11 27
10 34 -1z"/>
<path d="M156 3053 c-11 -25 -33 -61 -49 -80 -34 -39 -30 -54 9 -28 l27 17 -7
-86 c-6 -74 -5 -86 8 -86 13 0 16 15 18 80 3 128 4 136 27 174 12 19 20 40 16
46 -13 21 -31 8 -49 -37z"/>
<path d="M255 2620 c-14 -31 -24 -40 -43 -40 -19 0 -23 -3 -16 -17 4 -10 9
-35 12 -56 3 -28 8 -37 19 -33 19 8 9 -27 -24 -77 -13 -22 -22 -41 -19 -45 11
-10 49 33 72 83 l24 50 -2 -62 c-4 -78 6 -88 82 -88 69 0 83 10 74 53 -8 37
-21 42 -26 10 -3 -20 -9 -23 -52 -23 -50 0 -77 19 -30 21 31 2 43 12 25 23 -9
6 -10 11 -2 15 15 10 14 36 -2 36 -8 0 -19 -12 -26 -26 -14 -33 -21 -28 -14 9
3 15 11 27 19 27 7 0 22 21 34 47 27 61 14 79 -49 64 l-42 -9 16 25 c16 24 14
53 -3 53 -5 0 -17 -18 -27 -40z m80 -60 c-3 -5 -13 -10 -21 -10 -8 0 -14 5
-14 10 0 6 9 10 21 10 11 0 17 -4 14 -10z m-75 -10 c0 -5 -7 -10 -15 -10 -8 0
-15 5 -15 10 0 6 7 10 15 10 8 0 15 -4 15 -10z m70 -30 c0 -12 -28 -25 -36
-17 -9 9 6 27 22 27 8 0 14 -5 14 -10z m-66 -9 c3 -5 0 -11 -8 -14 -15 -6 -26
1 -26 15 0 11 27 10 34 -1z"/>
<path d="M156 2603 c-11 -25 -33 -61 -49 -80 -34 -39 -30 -54 9 -28 l27 17 -7
-86 c-6 -74 -5 -86 8 -86 13 0 16 15 18 80 3 128 4 136 27 174 12 19 20 40 16
46 -13 21 -31 8 -49 -37z"/>
<path d="M255 2170 c-14 -31 -24 -40 -43 -40 -19 0 -23 -3 -16 -17 4 -10 9
-35 12 -56 3 -28 8 -37 19 -33 19 8 9 -27 -24 -77 -13 -22 -22 -41 -19 -45 11
-10 49 33 72 83 l24 50 -2 -62 c-4 -78 6 -88 82 -88 69 0 83 10 74 53 -8 37
-21 42 -26 10 -3 -20 -9 -23 -52 -23 -27 0 -51 5 -53 10 -3 10 10 13 70 15 31
1 34 11 10 31 -13 11 -17 11 -20 2 -3 -7 -10 -13 -16 -13 -8 0 -7 4 1 12 16
16 15 38 -1 38 -8 0 -19 -12 -26 -26 -14 -33 -21 -28 -14 9 3 15 11 27 19 27
7 0 22 21 34 47 27 61 14 79 -49 64 l-42 -9 16 25 c16 24 14 53 -3 53 -5 0
-17 -18 -27 -40z m80 -60 c-3 -5 -13 -10 -21 -10 -8 0 -14 5 -14 10 0 6 9 10
21 10 11 0 17 -4 14 -10z m-75 -10 c0 -5 -7 -10 -15 -10 -8 0 -15 5 -15 10 0
6 7 10 15 10 8 0 15 -4 15 -10z m70 -30 c0 -12 -28 -25 -36 -17 -9 9 6 27 22
27 8 0 14 -5 14 -10z m-66 -9 c3 -5 0 -11 -8 -14 -15 -6 -26 1 -26 15 0 11 27
10 34 -1z"/>
<path d="M156 2153 c-11 -25 -33 -61 -49 -80 -34 -39 -30 -54 9 -28 l27 17 -7
-86 c-6 -74 -5 -86 8 -86 13 0 16 15 18 80 3 128 4 136 27 174 12 19 20 40 16
46 -13 21 -31 8 -49 -37z"/>
</g>
</svg>
