<?xml version="1.0" standalone="no"?>
<!DOCTYPE svg PUBLIC "-//W3C//DTD SVG 20010904//EN"
 "http://www.w3.org/TR/2001/REC-SVG-20010904/DTD/svg10.dtd">
<svg version="1.0" xmlns="http://www.w3.org/2000/svg"
 width="50.000000pt" height="725.000000pt" viewBox="0 0 50.000000 725.000000"
 preserveAspectRatio="xMidYMid meet">
<metadata>
Created by potrace 1.16, written by Peter Selinger 2001-2019
</metadata>
<g transform="translate(0.000000,725.000000) scale(0.100000,-0.100000)"
fill="#000000" stroke="none">
<path d="M170 7155 c0 -15 -38 -93 -62 -127 -22 -31 3 -34 28 -3 47 58 75 117
63 131 -15 18 -29 18 -29 -1z"/>
<path d="M170 6705 c0 -15 -38 -93 -62 -127 -19 -27 2 -36 23 -9 l19 23 0 -48
c0 -27 -4 -65 -10 -84 -10 -36 -5 -70 10 -70 14 0 19 30 21 135 2 77 6 108 21
134 14 25 16 36 7 47 -15 18 -29 18 -29 -1z"/>
<path d="M170 6255 c0 -15 -38 -93 -62 -127 -19 -27 2 -36 23 -9 l19 23 0 -48
c0 -27 -4 -65 -10 -84 -10 -36 -5 -70 10 -70 14 0 19 30 21 135 2 77 6 108 21
134 14 25 16 36 7 47 -15 18 -29 18 -29 -1z"/>
<path d="M221 6208 c-11 -23 -18 -44 -15 -47 9 -10 54 49 54 70 0 31 -17 22
-39 -23z"/>
<path d="M170 5805 c0 -15 -38 -93 -62 -127 -19 -27 2 -36 23 -9 l19 23 0 -48
c0 -27 -4 -65 -10 -84 -10 -36 -5 -70 10 -70 14 0 19 30 21 135 2 77 6 108 21
134 14 25 16 36 7 47 -15 18 -29 18 -29 -1z"/>
<path d="M221 5758 c-24 -49 -20 -60 12 -30 13 12 26 22 30 22 11 0 -22 -61
-46 -87 -24 -27 -18 -39 11 -24 25 13 85 109 77 122 -4 5 -15 9 -26 9 -10 0
-19 7 -19 15 0 28 -18 15 -39 -27z"/>
<path d="M170 5355 c0 -15 -38 -93 -62 -127 -19 -27 2 -36 23 -9 l19 23 0 -48
c0 -27 -4 -65 -10 -84 -10 -36 -5 -70 10 -70 14 0 19 30 21 135 2 77 6 108 21
134 14 25 16 36 7 47 -15 18 -29 18 -29 -1z"/>
<path d="M222 5308 c-19 -36 -19 -43 -7 -61 13 -18 13 -23 -2 -39 -20 -22 -12
-33 15 -19 25 13 85 109 77 122 -4 5 -15 9 -26 9 -10 0 -19 7 -19 15 0 28 -18
15 -38 -27z m36 -33 c-8 -17 -15 -22 -21 -16 -7 7 -6 15 3 26 20 24 31 18 18
-10z"/>
<path d="M170 4905 c0 -15 -38 -93 -62 -127 -19 -27 2 -36 23 -9 l19 23 0 -48
c0 -27 -4 -65 -10 -84 -10 -36 -5 -70 10 -70 14 0 19 30 21 135 2 77 6 108 21
134 14 25 16 36 7 47 -15 18 -29 18 -29 -1z"/>
<path d="M222 4858 c-19 -36 -19 -43 -7 -61 13 -18 13 -23 -2 -39 -20 -22 -12
-33 15 -19 25 13 85 109 77 122 -4 5 -15 9 -26 9 -10 0 -19 7 -19 15 0 28 -18
15 -38 -27z m36 -33 c-8 -17 -15 -22 -21 -16 -7 7 -6 15 3 26 20 24 31 18 18
-10z"/>
<path d="M330 4850 c-8 -5 -12 -11 -10 -14 9 -8 90 6 90 15 0 12 -61 11 -80
-1z"/>
<path d="M170 4455 c0 -15 -38 -93 -62 -127 -19 -27 2 -36 23 -9 l19 23 0 -48
c0 -27 -4 -65 -10 -84 -10 -36 -5 -70 10 -70 14 0 19 30 21 135 2 77 6 108 21
134 14 25 16 36 7 47 -15 18 -29 18 -29 -1z"/>
<path d="M222 4408 c-19 -36 -19 -43 -7 -61 13 -18 13 -23 -2 -39 -9 -10 -14
-21 -10 -24 12 -12 47 18 73 61 30 53 38 57 29 15 -6 -27 -4 -30 19 -30 14 0
26 5 26 10 0 6 -4 10 -10 10 -16 0 -11 27 6 34 9 3 27 6 40 6 13 0 24 5 24 11
0 8 -16 10 -50 6 -27 -3 -52 -2 -55 4 -4 5 -15 9 -26 9 -10 0 -19 7 -19 15 0
28 -18 15 -38 -27z m36 -33 c-8 -17 -15 -22 -21 -16 -7 7 -6 15 3 26 20 24 31
18 18 -10z"/>
<path d="M360 4350 c0 -5 14 -10 30 -10 17 0 30 5 30 10 0 6 -13 10 -30 10
-16 0 -30 -4 -30 -10z"/>
<path d="M170 4005 c0 -15 -38 -93 -62 -127 -19 -27 2 -36 23 -9 l19 23 0 -48
c0 -27 -4 -65 -10 -84 -10 -36 -5 -70 10 -70 14 0 19 30 21 135 2 77 6 108 21
134 14 25 16 36 7 47 -15 18 -29 18 -29 -1z"/>
<path d="M356 3986 c4 -19 1 -26 -16 -31 -12 -4 -27 -2 -33 4 -6 6 -19 11 -29
11 -10 0 -18 7 -18 15 0 28 -18 15 -38 -27 -19 -36 -19 -43 -7 -61 13 -18 13
-23 -2 -39 -9 -10 -14 -21 -10 -24 12 -12 47 18 73 61 30 53 38 57 29 15 -6
-28 -5 -30 24 -30 21 0 31 -5 31 -15 0 -8 5 -15 10 -15 6 0 10 9 10 20 0 13 7
20 20 20 11 0 20 5 20 10 0 6 -9 10 -20 10 -11 0 -20 7 -20 15 0 8 7 15 15 15
8 0 15 5 15 10 0 6 -7 10 -15 10 -11 0 -14 7 -9 25 5 21 3 25 -15 25 -18 0
-20 -4 -15 -24z m-98 -61 c-8 -17 -15 -22 -21 -16 -7 7 -6 15 3 26 20 24 31
18 18 -10z m100 -7 c-6 -18 -28 -21 -28 -4 0 9 7 16 16 16 9 0 14 -5 12 -12z"/>
<path d="M170 3555 c0 -15 -38 -93 -62 -127 -19 -27 2 -36 23 -9 l19 23 0 -48
c0 -27 -4 -65 -10 -84 -10 -36 -5 -70 10 -70 14 0 19 30 21 135 2 77 6 108 21
134 14 25 16 36 7 47 -15 18 -29 18 -29 -1z"/>
<path d="M356 3536 c4 -19 1 -26 -16 -31 -12 -4 -27 -2 -33 4 -6 6 -19 11 -29
11 -10 0 -18 7 -18 15 0 28 -18 15 -38 -27 -19 -36 -19 -43 -7 -61 13 -18 13
-23 -2 -39 -9 -10 -14 -21 -10 -24 12 -12 47 18 73 61 30 53 38 57 29 15 -6
-28 -5 -30 24 -30 21 0 31 -5 31 -15 0 -8 5 -15 10 -15 6 0 10 9 10 20 0 13 7
20 20 20 11 0 20 5 20 10 0 6 -9 10 -20 10 -11 0 -20 7 -20 15 0 8 7 15 15 15
8 0 15 5 15 10 0 6 -7 10 -15 10 -11 0 -14 7 -9 25 5 21 3 25 -15 25 -18 0
-20 -4 -15 -24z m-98 -61 c-8 -17 -15 -22 -21 -16 -7 7 -6 15 3 26 20 24 31
18 18 -10z m100 -7 c-6 -18 -28 -21 -28 -4 0 9 7 16 16 16 9 0 14 -5 12 -12z"/>
<path d="M267 3370 c-54 -7 -76 -15 -66 -24 2 -2 53 -2 112 1 72 4 106 10 104
17 -4 14 -73 16 -150 6z"/>
<path d="M170 3105 c0 -15 -38 -93 -62 -127 -19 -27 2 -36 23 -9 l19 23 0 -48
c0 -27 -4 -65 -10 -84 -10 -36 -5 -70 10 -70 14 0 19 30 21 135 2 77 6 108 21
134 14 25 16 36 7 47 -15 18 -29 18 -29 -1z"/>
<path d="M356 3086 c4 -19 1 -26 -16 -31 -12 -4 -27 -2 -33 4 -6 6 -19 11 -29
11 -10 0 -18 7 -18 15 0 28 -18 15 -38 -27 -19 -36 -19 -43 -7 -61 13 -18 13
-23 -2 -39 -9 -10 -14 -21 -10 -24 12 -12 47 18 73 61 30 53 38 57 29 15 -6
-28 -5 -30 24 -30 21 0 31 -5 31 -15 0 -8 5 -15 10 -15 6 0 10 9 10 20 0 13 7
20 20 20 11 0 20 5 20 10 0 6 -9 10 -20 10 -11 0 -20 7 -20 15 0 8 7 15 15 15
8 0 15 5 15 10 0 6 -7 10 -15 10 -11 0 -14 7 -9 25 5 21 3 25 -15 25 -18 0
-20 -4 -15 -24z m-98 -61 c-8 -17 -15 -22 -21 -16 -7 7 -6 15 3 26 20 24 31
18 18 -10z m100 -7 c-6 -18 -28 -21 -28 -4 0 9 7 16 16 16 9 0 14 -5 12 -12z"/>
<path d="M286 2945 c5 -21 3 -25 -17 -25 -36 0 -69 -11 -69 -23 0 -6 17 -7 46
-3 l46 6 -2 -53 c-3 -68 -2 -77 10 -77 6 0 10 19 10 43 0 79 6 87 62 87 64 0
61 24 -4 28 -36 2 -47 7 -51 23 -3 10 -12 19 -21 19 -12 0 -15 -6 -10 -25z"/>
<path d="M170 2655 c0 -15 -38 -93 -62 -127 -19 -27 2 -36 23 -9 l19 23 0 -48
c0 -27 -4 -65 -10 -84 -10 -36 -5 -70 10 -70 14 0 19 30 21 135 2 77 6 108 21
134 14 25 16 36 7 47 -15 18 -29 18 -29 -1z"/>
<path d="M356 2636 c4 -19 1 -26 -16 -31 -12 -4 -27 -2 -33 4 -6 6 -19 11 -29
11 -10 0 -18 7 -18 15 0 28 -18 15 -38 -27 -19 -36 -19 -43 -7 -61 13 -18 13
-23 -2 -39 -9 -10 -14 -21 -10 -24 12 -12 47 18 73 61 30 53 38 57 29 15 -6
-28 -5 -30 24 -30 21 0 31 -5 31 -15 0 -8 5 -15 10 -15 6 0 10 9 10 20 0 13 7
20 20 20 11 0 20 5 20 10 0 6 -9 10 -20 10 -11 0 -20 7 -20 15 0 8 7 15 15 15
8 0 15 5 15 10 0 6 -7 10 -15 10 -11 0 -14 7 -9 25 5 21 3 25 -15 25 -18 0
-20 -4 -15 -24z m-98 -61 c-8 -17 -15 -22 -21 -16 -7 7 -6 15 3 26 20 24 31
18 18 -10z m100 -7 c-6 -18 -28 -21 -28 -4 0 9 7 16 16 16 9 0 14 -5 12 -12z"/>
<path d="M286 2495 c5 -21 3 -25 -17 -25 -36 0 -69 -11 -69 -23 0 -6 17 -7 46
-3 l46 6 -2 -53 c-3 -68 -2 -77 10 -77 6 0 10 19 10 43 0 79 6 87 62 87 64 0
61 24 -4 28 -36 2 -47 7 -51 23 -3 10 -12 19 -21 19 -12 0 -15 -6 -10 -25z"/>
<path d="M225 2411 c-3 -11 -12 -22 -20 -25 -18 -7 -20 -26 -2 -26 21 0 71 46
63 58 -11 18 -34 14 -41 -7z"/>
<path d="M170 2205 c0 -15 -38 -93 -62 -127 -19 -27 2 -36 23 -9 l19 23 0 -48
c0 -27 -4 -65 -10 -84 -10 -36 -5 -70 10 -70 14 0 19 30 21 135 2 77 6 108 21
134 14 25 16 36 7 47 -15 18 -29 18 -29 -1z"/>
<path d="M356 2186 c4 -19 1 -26 -16 -31 -12 -4 -27 -2 -33 4 -6 6 -19 11 -29
11 -10 0 -18 7 -18 15 0 28 -18 15 -38 -27 -19 -36 -19 -43 -7 -61 13 -18 13
-23 -2 -39 -9 -10 -14 -21 -10 -24 12 -12 47 18 73 61 30 53 38 57 29 15 -6
-28 -5 -30 24 -30 21 0 31 -5 31 -15 0 -8 5 -15 10 -15 6 0 10 9 10 20 0 13 7
20 20 20 11 0 20 5 20 10 0 6 -9 10 -20 10 -11 0 -20 7 -20 15 0 8 7 15 15 15
8 0 15 5 15 10 0 6 -7 10 -15 10 -11 0 -14 7 -9 25 5 21 3 25 -15 25 -18 0
-20 -4 -15 -24z m-98 -61 c-8 -17 -15 -22 -21 -16 -7 7 -6 15 3 26 20 24 31
18 18 -10z m100 -7 c-6 -18 -28 -21 -28 -4 0 9 7 16 16 16 9 0 14 -5 12 -12z"/>
<path d="M286 2045 c5 -21 3 -25 -17 -25 -36 0 -69 -11 -69 -23 0 -6 17 -7 46
-3 l46 6 -2 -53 c-3 -68 -2 -77 10 -77 6 0 10 19 10 43 0 79 6 87 62 87 64 0
61 24 -4 28 -36 2 -47 7 -51 23 -3 10 -12 19 -21 19 -12 0 -15 -6 -10 -25z"/>
<path d="M225 1961 c-3 -11 -12 -22 -20 -25 -18 -7 -20 -26 -2 -26 21 0 71 46
63 58 -11 18 -34 14 -41 -7z"/>
<path d="M340 1975 c0 -14 45 -65 57 -65 21 0 15 38 -9 54 -22 16 -48 21 -48
11z"/>
</g>
</svg>
