<?xml version="1.0" standalone="no"?>
<!DOCTYPE svg PUBLIC "-//W3C//DTD SVG 20010904//EN"
 "http://www.w3.org/TR/2001/REC-SVG-20010904/DTD/svg10.dtd">
<svg version="1.0" xmlns="http://www.w3.org/2000/svg"
 width="50.000000pt" height="725.000000pt" viewBox="0 0 50.000000 725.000000"
 preserveAspectRatio="xMidYMid meet">
<metadata>
Created by potrace 1.16, written by Peter Selinger 2001-2019
</metadata>
<g transform="translate(0.000000,725.000000) scale(0.100000,-0.100000)"
fill="#000000" stroke="none">
<path d="M160 7125 c-6 -19 -27 -58 -47 -86 -19 -28 -32 -53 -29 -57 17 -16
116 123 116 162 0 30 -28 16 -40 -19z"/>
<path d="M160 6675 c-6 -19 -27 -58 -47 -86 -40 -59 -36 -75 8 -33 l31 29 -7
-99 c-6 -82 -5 -98 6 -94 15 5 30 181 18 207 -4 8 2 28 12 45 10 17 19 39 19
49 0 30 -28 18 -40 -18z"/>
<path d="M160 6225 c-6 -19 -27 -58 -47 -86 -40 -59 -36 -75 8 -33 l31 29 -7
-99 c-6 -82 -5 -98 6 -94 15 5 30 181 18 207 -4 8 2 28 12 45 10 17 19 39 19
49 0 30 -28 18 -40 -18z"/>
<path d="M268 6233 c-54 -5 -66 -23 -15 -23 57 0 137 13 137 21 0 9 -28 9
-122 2z"/>
<path d="M160 5775 c-6 -19 -27 -58 -47 -86 -40 -59 -36 -75 8 -33 l31 29 -7
-99 c-6 -82 -5 -98 6 -94 15 5 30 181 18 207 -4 8 2 28 12 45 10 17 19 39 19
49 0 30 -28 18 -40 -18z"/>
<path d="M268 5783 c-54 -5 -66 -23 -15 -23 57 0 137 13 137 21 0 9 -28 9
-122 2z"/>
<path d="M224 5718 c3 -13 6 -31 6 -40 0 -10 5 -18 10 -18 6 0 10 18 10 40 0
30 -4 40 -16 40 -12 0 -15 -6 -10 -22z"/>
<path d="M160 5325 c-6 -19 -27 -58 -47 -86 -40 -59 -36 -75 8 -33 l31 29 -7
-99 c-6 -82 -5 -98 6 -94 15 5 30 181 18 207 -4 8 2 28 12 45 10 17 19 39 19
49 0 30 -28 18 -40 -18z"/>
<path d="M268 5333 c-54 -5 -66 -23 -15 -23 57 0 137 13 137 21 0 9 -28 9
-122 2z"/>
<path d="M333 5303 c-32 -6 -29 -23 3 -23 21 0 25 -3 19 -17 -16 -40 -17 -53
-3 -53 8 0 23 18 33 41 16 35 17 42 4 50 -15 9 -19 9 -56 2z"/>
<path d="M224 5268 c3 -13 6 -31 6 -40 0 -10 5 -18 10 -18 6 0 10 14 10 30 0
25 4 30 25 30 14 0 25 5 25 10 0 6 -19 10 -41 10 -38 0 -41 -2 -35 -22z"/>
<path d="M160 4875 c-6 -19 -27 -58 -47 -86 -40 -59 -36 -75 8 -33 l31 29 -7
-99 c-6 -82 -5 -98 6 -94 15 5 30 181 18 207 -4 8 2 28 12 45 10 17 19 39 19
49 0 30 -28 18 -40 -18z"/>
<path d="M268 4883 c-54 -5 -66 -23 -15 -23 57 0 137 13 137 21 0 9 -28 9
-122 2z"/>
<path d="M333 4853 c-32 -6 -29 -21 5 -26 l27 -4 -27 -2 c-31 -1 -39 -21 -9
-21 14 0 18 -5 14 -20 -10 -38 23 -21 42 21 16 35 17 42 4 50 -15 9 -19 9 -56
2z"/>
<path d="M224 4818 c3 -13 6 -31 6 -40 0 -10 5 -18 10 -18 6 0 10 7 10 15 0 9
9 15 25 15 34 0 32 18 -2 23 l-28 4 28 2 c43 2 31 21 -14 21 -38 0 -41 -2 -35
-22z"/>
<path d="M160 4425 c-6 -19 -27 -58 -47 -86 -40 -59 -36 -75 8 -33 l31 29 -7
-99 c-6 -82 -5 -98 6 -94 15 5 30 181 18 207 -4 8 2 28 12 45 10 17 19 39 19
49 0 30 -28 18 -40 -18z"/>
<path d="M268 4433 c-54 -5 -66 -23 -15 -23 57 0 137 13 137 21 0 9 -28 9
-122 2z"/>
<path d="M333 4403 c-32 -6 -29 -21 5 -26 l27 -4 -27 -2 c-33 -1 -38 -21 -5
-22 16 -1 18 -2 5 -6 -22 -6 -23 -19 -2 -27 26 -10 30 -7 49 35 16 35 17 42 4
50 -15 9 -19 9 -56 2z"/>
<path d="M224 4368 c3 -13 6 -31 6 -40 0 -14 9 -18 40 -18 48 0 54 19 8 21
-31 2 -31 2 -5 6 15 2 27 8 27 13 0 5 -12 11 -27 13 l-28 4 28 2 c43 2 31 21
-14 21 -38 0 -41 -2 -35 -22z"/>
<path d="M280 4005 c0 -21 -5 -25 -30 -25 -16 0 -30 -4 -30 -10 0 -5 14 -10
30 -10 17 0 30 -4 30 -10 0 -5 -14 -10 -31 -10 -28 0 -31 -3 -25 -22 3 -13 6
-31 6 -40 0 -12 8 -18 25 -18 16 0 25 -6 25 -15 0 -22 27 -18 33 5 4 16 11 19
29 15 21 -5 27 -1 43 35 22 50 11 63 -44 53 -24 -4 -32 -2 -27 6 4 6 23 11 42
11 19 0 34 5 34 10 0 6 -15 10 -34 10 -25 0 -35 5 -39 20 -8 29 -37 26 -37 -5z
m73 -82 c-7 -2 -21 -2 -30 0 -10 3 -4 5 12 5 17 0 24 -2 18 -5z m-76 -9 c-3
-3 -12 -4 -19 -1 -8 3 -5 6 6 6 11 1 17 -2 13 -5z m73 -18 c0 -2 -9 -6 -20 -9
-11 -3 -20 -1 -20 4 0 5 9 9 20 9 11 0 20 -2 20 -4z m-73 -12 c-3 -3 -12 -4
-19 -1 -8 3 -5 6 6 6 11 1 17 -2 13 -5z"/>
<path d="M160 3975 c-6 -19 -27 -58 -47 -86 -40 -59 -36 -75 8 -33 l31 29 -7
-99 c-6 -82 -5 -98 6 -94 15 5 30 181 18 207 -4 8 2 28 12 45 10 17 19 39 19
49 0 30 -28 18 -40 -18z"/>
<path d="M280 3555 c0 -21 -5 -25 -30 -25 -16 0 -30 -4 -30 -10 0 -5 14 -10
30 -10 17 0 30 -4 30 -10 0 -5 -14 -10 -31 -10 -28 0 -31 -3 -25 -22 3 -13 6
-31 6 -40 0 -12 8 -18 25 -18 14 0 25 -4 25 -10 0 -5 -13 -10 -30 -10 -16 0
-30 -4 -30 -9 0 -17 19 -22 54 -15 25 4 36 12 38 28 2 16 9 20 29 18 22 -2 29
4 44 39 22 49 11 62 -44 52 -24 -4 -32 -2 -27 6 4 6 23 11 42 11 19 0 34 5 34
10 0 6 -15 10 -34 10 -25 0 -35 5 -39 20 -8 29 -37 26 -37 -5z m73 -82 c-7 -2
-21 -2 -30 0 -10 3 -4 5 12 5 17 0 24 -2 18 -5z m-76 -9 c-3 -3 -12 -4 -19 -1
-8 3 -5 6 6 6 11 1 17 -2 13 -5z m73 -18 c0 -2 -9 -6 -20 -9 -11 -3 -20 -1
-20 4 0 5 9 9 20 9 11 0 20 -2 20 -4z m-73 -12 c-3 -3 -12 -4 -19 -1 -8 3 -5
6 6 6 11 1 17 -2 13 -5z"/>
<path d="M160 3525 c-6 -19 -27 -58 -47 -86 -40 -59 -36 -75 8 -33 l31 29 -7
-99 c-6 -82 -5 -98 6 -94 15 5 30 181 18 207 -4 8 2 28 12 45 10 17 19 39 19
49 0 30 -28 18 -40 -18z"/>
<path d="M320 3390 c0 -5 7 -10 15 -10 8 0 15 5 15 10 0 6 -7 10 -15 10 -8 0
-15 -4 -15 -10z"/>
<path d="M280 3105 c0 -21 -5 -25 -30 -25 -16 0 -30 -4 -30 -10 0 -5 14 -10
30 -10 17 0 30 -4 30 -10 0 -5 -14 -10 -31 -10 -28 0 -31 -3 -25 -22 3 -13 6
-31 6 -40 0 -12 8 -18 25 -18 14 0 25 -4 25 -10 0 -5 -13 -10 -30 -10 -29 0
-40 -13 -20 -25 5 -3 25 -3 45 1 25 4 35 12 35 25 0 19 17 35 28 24 3 -3 0
-10 -8 -15 -18 -11 -13 -16 24 -26 27 -6 29 -5 22 19 -4 16 0 40 11 62 15 31
15 37 3 45 -8 6 -30 7 -49 3 -24 -4 -32 -2 -27 6 4 6 23 11 42 11 19 0 34 5
34 10 0 6 -15 10 -34 10 -25 0 -35 5 -39 20 -8 29 -37 26 -37 -5z m73 -82 c-7
-2 -21 -2 -30 0 -10 3 -4 5 12 5 17 0 24 -2 18 -5z m-76 -9 c-3 -3 -12 -4 -19
-1 -8 3 -5 6 6 6 11 1 17 -2 13 -5z m73 -18 c0 -2 -9 -6 -20 -9 -11 -3 -20 -1
-20 4 0 5 9 9 20 9 11 0 20 -2 20 -4z m-73 -12 c-3 -3 -12 -4 -19 -1 -8 3 -5
6 6 6 11 1 17 -2 13 -5z"/>
<path d="M160 3075 c-6 -19 -27 -58 -47 -86 -40 -59 -36 -75 8 -33 l31 29 -7
-99 c-6 -82 -5 -98 6 -94 15 5 30 181 18 207 -4 8 2 28 12 45 10 17 19 39 19
49 0 30 -28 18 -40 -18z"/>
<path d="M280 2655 c0 -21 -5 -25 -30 -25 -16 0 -30 -4 -30 -10 0 -5 14 -10
30 -10 17 0 30 -4 30 -10 0 -5 -14 -10 -31 -10 -28 0 -31 -3 -25 -22 3 -13 6
-31 6 -40 0 -12 8 -18 25 -18 14 0 25 -4 25 -10 0 -5 -13 -10 -30 -10 -29 0
-40 -13 -20 -25 5 -3 25 -3 45 1 25 4 35 12 35 25 0 19 17 35 28 24 3 -3 0
-10 -8 -15 -18 -11 -13 -16 24 -26 27 -6 29 -5 22 19 -4 16 0 40 11 62 15 31
15 37 3 45 -8 6 -30 7 -49 3 -24 -4 -32 -2 -27 6 4 6 23 11 42 11 19 0 34 5
34 10 0 6 -15 10 -34 10 -25 0 -35 5 -39 20 -8 29 -37 26 -37 -5z m73 -82 c-7
-2 -21 -2 -30 0 -10 3 -4 5 12 5 17 0 24 -2 18 -5z m-76 -9 c-3 -3 -12 -4 -19
-1 -8 3 -5 6 6 6 11 1 17 -2 13 -5z m73 -18 c0 -2 -9 -6 -20 -9 -11 -3 -20 -1
-20 4 0 5 9 9 20 9 11 0 20 -2 20 -4z m-73 -12 c-3 -3 -12 -4 -19 -1 -8 3 -5
6 6 6 11 1 17 -2 13 -5z"/>
<path d="M160 2625 c-6 -19 -27 -58 -47 -86 -40 -59 -36 -75 8 -33 l31 29 -7
-99 c-6 -82 -5 -98 6 -94 15 5 30 181 18 207 -4 8 2 28 12 45 10 17 19 39 19
49 0 30 -28 18 -40 -18z"/>
<path d="M267 2448 c-57 -7 -86 -14 -84 -22 2 -6 15 -10 28 -8 13 1 68 5 122
8 65 5 97 10 94 18 -5 15 -53 16 -160 4z"/>
<path d="M280 2205 c0 -21 -5 -25 -30 -25 -16 0 -30 -4 -30 -10 0 -5 14 -10
30 -10 17 0 30 -4 30 -10 0 -5 -14 -10 -31 -10 -28 0 -31 -3 -25 -22 3 -13 6
-31 6 -40 0 -12 8 -18 25 -18 14 0 25 -4 25 -10 0 -5 -14 -10 -31 -10 -20 0
-29 -4 -26 -12 3 -8 19 -12 45 -10 72 4 56 -16 -18 -24 -45 -4 -69 -11 -67
-18 4 -12 20 -13 90 -1 l47 7 0 -42 c0 -37 -2 -41 -20 -35 -25 8 -26 -7 -2
-28 37 -33 52 -16 52 59 l0 44 41 0 c53 0 48 23 -7 31 -21 3 -31 7 -20 8 14 1
17 6 12 26 -4 14 1 39 11 60 15 31 15 37 3 45 -8 6 -30 7 -49 3 -24 -4 -32 -2
-27 6 4 6 23 11 42 11 19 0 34 5 34 10 0 6 -15 10 -34 10 -25 0 -35 5 -39 20
-8 29 -37 26 -37 -5z m73 -82 c-7 -2 -21 -2 -30 0 -10 3 -4 5 12 5 17 0 24 -2
18 -5z m-76 -9 c-3 -3 -12 -4 -19 -1 -8 3 -5 6 6 6 11 1 17 -2 13 -5z m73 -18
c0 -2 -9 -6 -20 -9 -11 -3 -20 -1 -20 4 0 5 9 9 20 9 11 0 20 -2 20 -4z m-73
-12 c-3 -3 -12 -4 -19 -1 -8 3 -5 6 6 6 11 1 17 -2 13 -5z m63 -20 c0 -3 -7
-12 -15 -20 -12 -13 -15 -13 -15 -1 0 7 3 17 7 20 8 8 23 9 23 1z"/>
<path d="M160 2175 c-6 -19 -27 -58 -47 -86 -40 -59 -36 -75 8 -33 l31 29 -7
-99 c-6 -82 -5 -98 6 -94 15 5 30 181 18 207 -4 8 2 28 12 45 10 17 19 39 19
49 0 30 -28 18 -40 -18z"/>
<path d="M280 1755 c0 -21 -5 -25 -30 -25 -16 0 -30 -4 -30 -10 0 -5 14 -10
30 -10 17 0 30 -4 30 -10 0 -5 -14 -10 -31 -10 -28 0 -31 -3 -25 -22 3 -13 6
-31 6 -40 0 -12 8 -18 25 -18 14 0 25 -4 25 -10 0 -5 -14 -10 -31 -10 -20 0
-29 -4 -26 -12 3 -8 19 -12 45 -10 72 4 56 -16 -18 -24 -45 -4 -69 -11 -67
-18 2 -6 15 -10 29 -9 16 1 27 -6 34 -20 13 -29 34 -34 34 -8 0 12 -5 21 -11
21 -5 0 -7 5 -4 10 3 6 17 10 31 10 21 0 24 -4 24 -41 0 -36 -2 -40 -20 -34
-25 8 -26 -7 -2 -28 37 -33 52 -16 52 59 l0 44 41 0 c53 0 48 23 -7 31 -21 3
-31 7 -20 8 14 1 17 6 12 26 -4 14 1 39 11 60 15 31 15 37 3 45 -8 6 -30 7
-49 3 -24 -4 -32 -2 -27 6 4 6 23 11 42 11 19 0 34 5 34 10 0 6 -15 10 -34 10
-25 0 -35 5 -39 20 -8 29 -37 26 -37 -5z m73 -82 c-7 -2 -21 -2 -30 0 -10 3
-4 5 12 5 17 0 24 -2 18 -5z m-76 -9 c-3 -3 -12 -4 -19 -1 -8 3 -5 6 6 6 11 1
17 -2 13 -5z m73 -18 c0 -2 -9 -6 -20 -9 -11 -3 -20 -1 -20 4 0 5 9 9 20 9 11
0 20 -2 20 -4z m-73 -12 c-3 -3 -12 -4 -19 -1 -8 3 -5 6 6 6 11 1 17 -2 13 -5z
m63 -20 c0 -3 -7 -12 -15 -20 -12 -13 -15 -13 -15 -1 0 7 3 17 7 20 8 8 23 9
23 1z"/>
<path d="M160 1725 c-6 -19 -27 -58 -47 -86 -40 -59 -36 -75 8 -33 l31 29 -7
-99 c-6 -82 -5 -98 6 -94 15 5 30 181 18 207 -4 8 2 28 12 45 10 17 19 39 19
49 0 30 -28 18 -40 -18z"/>
</g>
</svg>
