<?xml version="1.0" standalone="no"?>
<!DOCTYPE svg PUBLIC "-//W3C//DTD SVG 20010904//EN"
 "http://www.w3.org/TR/2001/REC-SVG-20010904/DTD/svg10.dtd">
<svg version="1.0" xmlns="http://www.w3.org/2000/svg"
 width="50.000000pt" height="725.000000pt" viewBox="0 0 50.000000 725.000000"
 preserveAspectRatio="xMidYMid meet">
<metadata>
Created by potrace 1.16, written by Peter Selinger 2001-2019
</metadata>
<g transform="translate(0.000000,725.000000) scale(0.100000,-0.100000)"
fill="#000000" stroke="none">
<path d="M166 7123 c-4 -16 -23 -52 -42 -81 -38 -58 -38 -79 -1 -44 32 30 90
129 82 141 -12 20 -33 11 -39 -16z"/>
<path d="M166 6673 c-4 -16 -23 -52 -42 -81 -39 -60 -38 -78 2 -41 l27 24 -7
-92 c-5 -61 -4 -93 3 -93 17 0 20 13 23 120 2 80 7 113 21 137 10 18 16 37 12
43 -12 19 -33 10 -39 -17z"/>
<path d="M166 6223 c-4 -16 -23 -52 -42 -81 -39 -60 -38 -78 2 -41 l27 24 -7
-92 c-5 -61 -4 -93 3 -93 17 0 20 13 23 120 2 80 7 113 21 137 10 18 16 37 12
43 -12 19 -33 10 -39 -17z"/>
<path d="M240 6140 c0 -5 9 -10 20 -10 11 0 20 5 20 10 0 6 -9 10 -20 10 -11
0 -20 -4 -20 -10z"/>
<path d="M166 5773 c-4 -16 -23 -52 -42 -81 -39 -60 -38 -78 2 -41 l27 24 -7
-92 c-5 -61 -4 -93 3 -93 17 0 20 13 23 120 2 80 7 113 21 137 10 18 16 37 12
43 -12 19 -33 10 -39 -17z"/>
<path d="M200 5650 c0 -44 4 -80 8 -80 11 0 52 43 52 54 0 5 -7 6 -15 2 -12
-4 -15 5 -15 49 0 42 -3 55 -15 55 -12 0 -15 -16 -15 -80z"/>
<path d="M240 5690 c0 -5 9 -10 20 -10 11 0 20 5 20 10 0 6 -9 10 -20 10 -11
0 -20 -4 -20 -10z"/>
<path d="M166 5323 c-4 -16 -23 -52 -42 -81 -39 -60 -38 -78 2 -41 l27 24 -7
-92 c-5 -61 -4 -93 3 -93 17 0 20 13 23 120 2 80 7 113 21 137 10 18 16 37 12
43 -12 19 -33 10 -39 -17z"/>
<path d="M333 5337 c-78 -15 -65 -29 20 -21 79 7 88 11 67 24 -17 11 -15 11
-87 -3z"/>
<path d="M200 5200 c0 -44 4 -80 8 -80 11 0 52 43 52 54 0 5 -7 6 -15 2 -12
-4 -15 5 -15 49 0 42 -3 55 -15 55 -12 0 -15 -16 -15 -80z"/>
<path d="M240 5240 c0 -5 9 -10 20 -10 11 0 20 5 20 10 0 6 -9 10 -20 10 -11
0 -20 -4 -20 -10z"/>
<path d="M166 4873 c-4 -16 -23 -52 -42 -81 -39 -60 -38 -78 2 -41 l27 24 -7
-92 c-5 -61 -4 -93 3 -93 17 0 20 13 23 120 2 80 7 113 21 137 10 18 16 37 12
43 -12 19 -33 10 -39 -17z"/>
<path d="M333 4887 c-53 -11 -72 -27 -32 -27 18 0 20 -4 15 -25 -9 -35 11 -32
32 5 13 24 24 30 50 30 34 0 43 14 16 24 -9 3 -19 5 -22 4 -4 0 -31 -6 -59
-11z"/>
<path d="M200 4750 c0 -44 4 -80 8 -80 11 0 52 43 52 54 0 5 -7 6 -15 2 -12
-4 -15 5 -15 49 0 42 -3 55 -15 55 -12 0 -15 -16 -15 -80z"/>
<path d="M240 4790 c0 -5 9 -10 20 -10 11 0 20 5 20 10 0 6 -9 10 -20 10 -11
0 -20 -4 -20 -10z"/>
<path d="M166 4423 c-4 -16 -23 -52 -42 -81 -39 -60 -38 -78 2 -41 l27 24 -7
-92 c-5 -61 -4 -93 3 -93 17 0 20 13 23 120 2 80 7 113 21 137 10 18 16 37 12
43 -12 19 -33 10 -39 -17z"/>
<path d="M333 4437 c-52 -10 -72 -27 -33 -27 25 0 27 -30 3 -36 -15 -4 -18
-18 -20 -85 -2 -59 1 -79 10 -76 7 2 13 29 15 67 2 50 8 70 28 92 13 16 24 34
24 39 0 5 16 9 35 9 36 0 47 13 19 24 -9 3 -19 5 -22 4 -4 0 -31 -6 -59 -11z"/>
<path d="M200 4300 c0 -44 4 -80 8 -80 11 0 52 43 52 54 0 5 -7 6 -15 2 -12
-4 -15 5 -15 49 0 42 -3 55 -15 55 -12 0 -15 -16 -15 -80z"/>
<path d="M240 4340 c0 -5 9 -10 20 -10 11 0 20 5 20 10 0 6 -9 10 -20 10 -11
0 -20 -4 -20 -10z"/>
<path d="M166 3973 c-4 -16 -23 -52 -42 -81 -39 -60 -38 -78 2 -41 l27 24 -7
-92 c-5 -61 -4 -93 3 -93 17 0 20 13 23 120 2 80 7 113 21 137 10 18 16 37 12
43 -12 19 -33 10 -39 -17z"/>
<path d="M333 3987 c-52 -10 -72 -27 -33 -27 25 0 27 -30 3 -36 -15 -4 -18
-18 -20 -85 -2 -59 1 -79 10 -76 7 2 13 29 15 70 2 44 7 67 15 67 7 0 22 3 35
6 21 6 22 4 22 -70 0 -61 3 -76 15 -76 12 0 15 15 17 70 0 39 1 76 2 83 1 7
-12 12 -35 12 -34 0 -36 1 -26 23 8 16 19 22 44 22 34 0 44 13 17 24 -9 3 -19
5 -22 4 -4 0 -31 -6 -59 -11z"/>
<path d="M200 3850 c0 -44 4 -80 8 -80 11 0 52 43 52 54 0 5 -7 6 -15 2 -12
-4 -15 5 -15 49 0 42 -3 55 -15 55 -12 0 -15 -16 -15 -80z"/>
<path d="M240 3890 c0 -5 9 -10 20 -10 11 0 20 5 20 10 0 6 -9 10 -20 10 -11
0 -20 -4 -20 -10z"/>
<path d="M166 3523 c-4 -16 -23 -52 -42 -81 -39 -60 -38 -78 2 -41 l27 24 -7
-92 c-5 -61 -4 -93 3 -93 17 0 20 13 23 120 2 80 7 113 21 137 10 18 16 37 12
43 -12 19 -33 10 -39 -17z"/>
<path d="M333 3537 c-52 -10 -72 -27 -33 -27 25 0 27 -30 3 -36 -15 -4 -18
-18 -20 -85 -2 -59 1 -79 10 -76 7 2 13 21 15 43 4 42 14 54 50 54 20 0 22 -5
22 -50 0 -38 4 -50 15 -50 12 0 15 15 17 70 0 39 1 76 2 83 1 7 -12 12 -35 12
-34 0 -36 1 -26 23 8 16 19 22 44 22 34 0 44 13 17 24 -9 3 -19 5 -22 4 -4 0
-31 -6 -59 -11z m47 -92 c0 -8 -9 -15 -19 -15 -11 0 -26 -3 -35 -6 -10 -4 -16
-1 -16 9 0 14 17 21 58 26 6 0 12 -6 12 -14z"/>
<path d="M200 3400 c0 -44 4 -80 8 -80 11 0 52 43 52 54 0 5 -7 6 -15 2 -12
-4 -15 5 -15 49 0 42 -3 55 -15 55 -12 0 -15 -16 -15 -80z"/>
<path d="M240 3440 c0 -5 9 -10 20 -10 11 0 20 5 20 10 0 6 -9 10 -20 10 -11
0 -20 -4 -20 -10z"/>
<path d="M166 3073 c-4 -16 -23 -52 -42 -81 -39 -60 -38 -78 2 -41 l27 24 -7
-92 c-5 -61 -4 -93 3 -93 17 0 20 13 23 120 2 80 7 113 21 137 10 18 16 37 12
43 -12 19 -33 10 -39 -17z"/>
<path d="M333 3087 c-52 -10 -72 -27 -33 -27 25 0 27 -30 3 -36 -15 -4 -18
-18 -20 -85 -2 -59 1 -79 10 -76 7 2 14 12 16 23 4 23 19 34 49 34 18 0 22 -6
22 -30 0 -20 5 -30 15 -30 12 0 15 15 17 70 0 39 1 76 2 83 1 7 -12 12 -35 12
-34 0 -36 1 -26 23 8 16 19 22 44 22 34 0 44 13 17 24 -9 3 -19 5 -22 4 -4 0
-31 -6 -59 -11z m47 -92 c0 -8 -9 -15 -19 -15 -11 0 -26 -3 -35 -6 -10 -4 -16
-1 -16 9 0 14 17 21 58 26 6 0 12 -6 12 -14z m0 -44 c0 -9 -62 -22 -70 -14 -8
7 24 23 48 23 12 0 22 -4 22 -9z"/>
<path d="M200 2950 c0 -44 4 -80 8 -80 11 0 52 43 52 54 0 5 -7 6 -15 2 -12
-4 -15 5 -15 49 0 42 -3 55 -15 55 -12 0 -15 -16 -15 -80z"/>
<path d="M240 2990 c0 -5 9 -10 20 -10 11 0 20 5 20 10 0 6 -9 10 -20 10 -11
0 -20 -4 -20 -10z"/>
<path d="M166 2623 c-4 -16 -23 -52 -42 -81 -39 -60 -38 -78 2 -41 l27 24 -7
-92 c-5 -61 -4 -93 3 -93 17 0 20 13 23 120 2 80 7 113 21 137 10 18 16 37 12
43 -12 19 -33 10 -39 -17z"/>
<path d="M333 2637 c-52 -10 -72 -27 -33 -27 25 0 27 -30 3 -36 -15 -4 -18
-18 -20 -85 -2 -77 -2 -79 20 -74 39 8 62 8 80 0 10 -4 19 -6 21 -4 2 2 6 40
7 84 l4 80 -36 0 c-34 0 -36 1 -26 23 8 16 19 22 44 22 34 0 44 13 17 24 -9 3
-19 5 -22 4 -4 0 -31 -6 -59 -11z m47 -92 c0 -8 -9 -15 -19 -15 -11 0 -26 -3
-35 -6 -10 -4 -16 -1 -16 9 0 14 17 21 58 26 6 0 12 -6 12 -14z m0 -44 c0 -9
-62 -22 -70 -14 -8 7 24 23 48 23 12 0 22 -4 22 -9z m0 -40 c0 -11 -59 -25
-68 -16 -3 3 0 10 8 15 19 12 60 13 60 1z"/>
<path d="M200 2500 c0 -44 4 -80 8 -80 11 0 52 43 52 54 0 5 -7 6 -15 2 -12
-4 -15 5 -15 49 0 42 -3 55 -15 55 -12 0 -15 -16 -15 -80z"/>
<path d="M240 2540 c0 -5 9 -10 20 -10 11 0 20 5 20 10 0 6 -9 10 -20 10 -11
0 -20 -4 -20 -10z"/>
<path d="M166 2173 c-4 -16 -23 -52 -42 -81 -39 -60 -38 -78 2 -41 l27 24 -7
-92 c-5 -61 -4 -93 3 -93 17 0 20 13 23 120 2 80 7 113 21 137 10 18 16 37 12
43 -12 19 -33 10 -39 -17z"/>
<path d="M333 2187 c-52 -10 -72 -27 -33 -27 25 0 27 -30 3 -36 -15 -4 -18
-18 -20 -85 -1 -54 1 -79 9 -79 7 0 0 -13 -15 -28 -15 -15 -27 -31 -27 -35 0
-17 22 -4 66 37 39 38 49 43 65 33 10 -6 20 -9 23 -7 2 3 6 41 7 85 l4 80 -36
0 c-34 0 -36 1 -26 23 8 16 19 22 44 22 34 0 44 13 17 24 -9 3 -19 5 -22 4 -4
0 -31 -6 -59 -11z m47 -92 c0 -8 -9 -15 -19 -15 -11 0 -26 -3 -35 -6 -10 -4
-16 -1 -16 9 0 14 17 21 58 26 6 0 12 -6 12 -14z m0 -44 c0 -9 -62 -22 -70
-14 -8 7 24 23 48 23 12 0 22 -4 22 -9z m0 -40 c0 -11 -59 -25 -68 -16 -3 3 0
10 8 15 19 12 60 13 60 1z"/>
<path d="M200 2050 c0 -44 4 -80 8 -80 11 0 52 43 52 54 0 5 -7 6 -15 2 -12
-4 -15 5 -15 49 0 42 -3 55 -15 55 -12 0 -15 -16 -15 -80z"/>
<path d="M240 2090 c0 -5 9 -10 20 -10 11 0 20 5 20 10 0 6 -9 10 -20 10 -11
0 -20 -4 -20 -10z"/>
<path d="M166 1723 c-4 -16 -23 -52 -42 -81 -39 -60 -38 -78 2 -41 l27 24 -7
-92 c-5 -61 -4 -93 3 -93 17 0 20 13 23 120 2 80 7 113 21 137 10 18 16 37 12
43 -12 19 -33 10 -39 -17z"/>
<path d="M333 1737 c-52 -10 -72 -27 -33 -27 25 0 27 -30 3 -36 -15 -4 -18
-18 -20 -85 -1 -54 1 -79 9 -79 7 0 0 -13 -15 -28 -15 -15 -27 -31 -27 -35 0
-17 22 -4 66 37 39 38 49 43 65 33 10 -6 20 -9 23 -7 2 3 6 41 7 85 l4 80 -36
0 c-34 0 -36 1 -26 23 8 16 19 22 44 22 34 0 44 13 17 24 -9 3 -19 5 -22 4 -4
0 -31 -6 -59 -11z m47 -92 c0 -8 -9 -15 -19 -15 -11 0 -26 -3 -35 -6 -10 -4
-16 -1 -16 9 0 14 17 21 58 26 6 0 12 -6 12 -14z m0 -44 c0 -9 -62 -22 -70
-14 -8 7 24 23 48 23 12 0 22 -4 22 -9z m0 -40 c0 -11 -59 -25 -68 -16 -3 3 0
10 8 15 19 12 60 13 60 1z"/>
<path d="M200 1600 c0 -44 4 -80 8 -80 11 0 52 43 52 54 0 5 -7 6 -15 2 -12
-4 -15 5 -15 49 0 42 -3 55 -15 55 -12 0 -15 -16 -15 -80z"/>
<path d="M240 1640 c0 -5 9 -10 20 -10 11 0 20 5 20 10 0 6 -9 10 -20 10 -11
0 -20 -4 -20 -10z"/>
<path d="M360 1505 c0 -14 45 -65 57 -65 25 0 13 39 -17 55 -31 16 -40 18 -40
10z"/>
</g>
</svg>
