<?xml version="1.0" standalone="no"?>
<!DOCTYPE svg PUBLIC "-//W3C//DTD SVG 20010904//EN"
 "http://www.w3.org/TR/2001/REC-SVG-20010904/DTD/svg10.dtd">
<svg version="1.0" xmlns="http://www.w3.org/2000/svg"
 width="50.000000pt" height="725.000000pt" viewBox="0 0 50.000000 725.000000"
 preserveAspectRatio="xMidYMid meet">
<metadata>
Created by potrace 1.16, written by Peter Selinger 2001-2019
</metadata>
<g transform="translate(0.000000,725.000000) scale(0.100000,-0.100000)"
fill="#000000" stroke="none">
<path d="M170 7124 c-6 -14 -10 -28 -10 -31 0 -3 -18 -33 -40 -66 -22 -33 -38
-62 -35 -65 15 -16 125 135 125 172 0 26 -30 19 -40 -10z"/>
<path d="M170 6674 c-6 -14 -10 -28 -10 -31 0 -3 -18 -33 -40 -66 -46 -68 -45
-85 1 -41 l32 29 -6 -87 c-4 -55 -2 -90 4 -94 19 -11 23 6 26 122 2 82 7 122
18 137 8 12 15 29 15 39 0 27 -29 21 -40 -8z"/>
<path d="M170 6224 c-6 -14 -10 -28 -10 -31 0 -3 -18 -33 -40 -66 -46 -68 -45
-85 1 -41 l32 29 -6 -87 c-4 -55 -2 -90 4 -94 19 -11 23 6 26 123 2 64 5 119
8 121 5 5 17 6 158 10 58 1 78 5 74 15 -4 14 -29 14 -138 3 l-77 -7 5 25 c7
35 -24 35 -37 0z"/>
<path d="M170 5774 c-6 -14 -10 -28 -10 -31 0 -3 -18 -33 -40 -66 -46 -68 -45
-85 1 -41 l32 29 -6 -87 c-4 -55 -2 -90 4 -94 19 -11 23 6 26 122 2 64 5 119
7 123 3 4 21 5 40 3 27 -3 36 -9 36 -23 0 -10 5 -19 10 -19 6 0 10 11 10 25 0
24 2 25 71 25 52 0 70 3 66 13 -3 8 -24 11 -70 9 -62 -4 -67 -2 -67 17 0 12
-6 21 -16 21 -10 0 -14 -7 -12 -22 2 -18 -2 -24 -23 -26 -23 -3 -26 0 -22 22
7 35 -24 35 -37 0z"/>
<path d="M338 5338 c-4 -32 -58 -39 -58 -9 0 12 -6 21 -16 21 -10 0 -14 -7
-12 -22 2 -18 -2 -24 -23 -26 -24 -3 -26 0 -21 23 4 22 1 26 -13 23 -10 -1
-23 -16 -28 -33 -5 -16 -27 -57 -49 -89 -44 -67 -43 -83 3 -40 l32 29 -6 -87
c-4 -55 -2 -90 4 -94 19 -11 23 6 26 122 2 64 5 119 7 123 3 4 21 5 40 3 27
-3 36 -9 36 -23 0 -10 5 -19 10 -19 6 0 10 11 10 25 0 20 5 25 25 25 18 0 25
-5 25 -20 0 -11 4 -20 9 -20 5 0 11 9 14 20 4 15 14 20 37 20 36 0 38 23 2 28
-14 2 -22 11 -22 23 0 27 -28 24 -32 -3z"/>
<path d="M338 4888 c-4 -32 -58 -39 -58 -9 0 12 -6 21 -16 21 -10 0 -14 -7
-12 -22 2 -18 -2 -24 -23 -26 -24 -3 -26 0 -21 23 4 22 1 26 -13 23 -10 -1
-23 -16 -28 -33 -5 -16 -27 -57 -49 -89 -44 -67 -43 -83 3 -40 l32 29 -6 -87
c-4 -55 -2 -90 4 -94 19 -11 23 6 26 122 2 64 5 119 7 123 3 4 21 5 40 3 27
-3 36 -9 36 -23 0 -10 7 -19 15 -19 11 0 14 7 9 25 -5 22 -3 25 20 25 14 0 26
-4 26 -10 0 -5 -7 -10 -15 -10 -8 0 -15 -4 -15 -10 0 -20 48 -11 53 10 4 15
14 20 37 20 36 0 38 23 2 28 -14 2 -22 11 -22 23 0 27 -28 24 -32 -3z"/>
<path d="M338 4438 c-4 -32 -58 -39 -58 -9 0 12 -6 21 -16 21 -10 0 -14 -7
-12 -22 2 -18 -2 -24 -23 -26 -24 -3 -26 0 -21 23 4 22 1 26 -13 23 -10 -1
-23 -16 -28 -33 -5 -16 -27 -57 -49 -89 -44 -67 -43 -83 3 -40 l32 29 -6 -87
c-4 -55 -2 -90 4 -94 19 -11 23 6 26 122 2 64 5 119 7 123 3 4 21 5 40 3 27
-3 36 -9 36 -23 0 -10 7 -19 15 -19 11 0 14 7 9 25 -5 22 -3 25 20 25 14 0 26
-4 26 -10 0 -5 -7 -10 -15 -10 -8 0 -15 -4 -15 -10 0 -20 48 -11 53 10 4 15
14 20 37 20 36 0 38 23 2 28 -14 2 -22 11 -22 23 0 27 -28 24 -32 -3z"/>
<path d="M220 4316 c0 -1 5 -17 11 -35 11 -31 29 -43 29 -18 0 29 -13 57 -26
57 -8 0 -14 -2 -14 -4z"/>
<path d="M338 3988 c-4 -32 -58 -39 -58 -9 0 12 -6 21 -16 21 -10 0 -14 -7
-12 -22 2 -18 -2 -24 -23 -26 -24 -3 -26 0 -21 23 4 22 1 26 -13 23 -10 -1
-23 -16 -28 -33 -5 -16 -27 -57 -49 -89 -44 -67 -43 -83 3 -40 l32 29 -6 -87
c-4 -55 -2 -90 4 -94 19 -11 23 6 26 122 2 64 5 119 7 123 3 4 21 5 40 3 27
-3 36 -9 36 -23 0 -10 7 -19 15 -19 11 0 14 7 9 25 -5 22 -3 25 20 25 14 0 26
-4 26 -10 0 -5 -7 -10 -15 -10 -8 0 -15 -4 -15 -10 0 -20 48 -11 53 10 4 15
14 20 37 20 36 0 38 23 2 28 -14 2 -22 11 -22 23 0 27 -28 24 -32 -3z"/>
<path d="M300 3870 c0 -5 14 -10 30 -10 23 0 30 -4 30 -20 0 -25 9 -25 26 -2
25 32 17 42 -36 42 -27 0 -50 -4 -50 -10z"/>
<path d="M220 3866 c0 -1 5 -17 11 -35 13 -37 33 -42 27 -6 -4 17 -1 25 8 25
8 0 14 5 14 10 0 6 -13 10 -30 10 -16 0 -30 -2 -30 -4z"/>
<path d="M338 3538 c-4 -32 -58 -39 -58 -9 0 12 -6 21 -16 21 -10 0 -14 -7
-12 -22 2 -18 -2 -24 -23 -26 -24 -3 -26 0 -21 23 4 22 1 26 -13 23 -10 -1
-23 -16 -28 -33 -5 -16 -27 -57 -49 -89 -44 -67 -43 -83 3 -40 l32 29 -6 -87
c-4 -55 -2 -90 4 -94 19 -11 23 6 26 122 2 64 5 119 7 123 3 4 21 5 40 3 27
-3 36 -9 36 -23 0 -10 7 -19 15 -19 11 0 14 7 9 25 -5 22 -3 25 20 25 14 0 26
-4 26 -10 0 -5 -7 -10 -15 -10 -8 0 -15 -4 -15 -10 0 -20 48 -11 53 10 4 15
14 20 37 20 36 0 38 23 2 28 -14 2 -22 11 -22 23 0 27 -28 24 -32 -3z"/>
<path d="M300 3420 c0 -5 14 -10 30 -10 46 0 35 -18 -16 -26 -29 -4 -50 -2
-57 5 -8 8 -7 11 6 11 9 0 17 5 17 10 0 6 -13 10 -30 10 -16 0 -30 -2 -30 -4
0 -1 5 -17 11 -35 8 -22 16 -30 28 -27 9 2 38 7 66 11 47 7 74 25 75 53 0 8
-16 12 -50 12 -27 0 -50 -4 -50 -10z"/>
<path d="M338 3088 c-4 -32 -58 -39 -58 -9 0 12 -6 21 -16 21 -10 0 -14 -7
-12 -22 2 -18 -2 -24 -23 -26 -24 -3 -26 0 -21 23 4 22 1 26 -13 23 -10 -1
-23 -16 -28 -33 -5 -16 -27 -57 -49 -89 -44 -67 -43 -83 3 -40 l32 29 -6 -87
c-4 -55 -2 -90 4 -94 19 -11 23 6 26 122 2 64 5 119 7 123 3 4 21 5 40 3 27
-3 36 -9 36 -23 0 -10 7 -19 15 -19 11 0 14 7 9 25 -5 22 -3 25 20 25 14 0 26
-4 26 -10 0 -5 -7 -10 -15 -10 -8 0 -15 -4 -15 -10 0 -20 48 -11 53 10 4 15
14 20 37 20 36 0 38 23 2 28 -14 2 -22 11 -22 23 0 27 -28 24 -32 -3z"/>
<path d="M300 2970 c0 -5 14 -10 30 -10 46 0 35 -18 -16 -26 -29 -4 -50 -2
-57 5 -8 8 -7 11 6 11 9 0 17 5 17 10 0 6 -13 10 -30 10 -16 0 -30 -2 -30 -4
0 -1 5 -17 11 -35 8 -22 16 -30 28 -27 9 2 38 7 66 11 47 7 74 25 75 53 0 8
-16 12 -50 12 -27 0 -50 -4 -50 -10z"/>
<path d="M273 2893 c-51 -5 -58 -23 -9 -23 55 0 126 12 126 21 0 9 -34 9 -117
2z"/>
<path d="M338 2638 c-4 -32 -58 -39 -58 -9 0 12 -6 21 -16 21 -10 0 -14 -7
-12 -22 2 -18 -2 -24 -23 -26 -24 -3 -26 0 -21 23 4 22 1 26 -13 23 -10 -1
-23 -16 -28 -33 -5 -16 -27 -57 -49 -89 -44 -67 -43 -83 3 -40 l32 29 -6 -87
c-4 -55 -2 -90 4 -94 19 -11 23 6 26 122 2 64 5 119 7 123 3 4 21 5 40 3 27
-3 36 -9 36 -23 0 -10 7 -19 15 -19 11 0 14 7 9 25 -5 22 -3 25 20 25 14 0 26
-4 26 -10 0 -5 -7 -10 -15 -10 -8 0 -15 -4 -15 -10 0 -20 48 -11 53 10 4 15
14 20 37 20 36 0 38 23 2 28 -14 2 -22 11 -22 23 0 27 -28 24 -32 -3z"/>
<path d="M300 2520 c0 -5 14 -10 30 -10 46 0 35 -18 -16 -26 -29 -4 -50 -2
-57 5 -8 8 -7 11 6 11 9 0 17 5 17 10 0 6 -13 10 -30 10 -16 0 -30 -2 -30 -4
0 -1 5 -17 11 -35 8 -22 16 -30 28 -27 9 2 38 7 66 11 47 7 74 25 75 53 0 8
-16 12 -50 12 -27 0 -50 -4 -50 -10z"/>
<path d="M273 2443 c-51 -5 -58 -23 -9 -23 55 0 126 12 126 21 0 9 -34 9 -117
2z"/>
<path d="M273 2403 c-48 -5 -59 -23 -14 -23 50 0 121 12 121 21 0 9 -24 9
-107 2z"/>
<path d="M338 2188 c-4 -32 -58 -39 -58 -9 0 12 -6 21 -16 21 -10 0 -14 -7
-12 -22 2 -18 -2 -24 -23 -26 -24 -3 -26 0 -21 23 4 22 1 26 -13 23 -10 -1
-23 -16 -28 -33 -5 -16 -27 -57 -49 -89 -44 -67 -43 -83 3 -40 l32 29 -6 -87
c-4 -55 -2 -90 4 -94 19 -11 23 6 26 122 2 64 5 119 7 123 3 4 21 5 40 3 27
-3 36 -9 36 -23 0 -10 7 -19 15 -19 10 0 15 -10 15 -30 0 -30 -21 -42 -35 -20
-3 6 1 10 9 10 9 0 16 5 16 10 0 6 -13 10 -30 10 -16 0 -30 -2 -30 -4 0 -1 5
-17 11 -34 9 -27 15 -31 35 -26 15 4 24 2 24 -5 0 -6 -13 -11 -30 -11 -16 0
-30 -4 -30 -10 0 -5 14 -10 30 -10 17 0 30 -4 30 -10 0 -5 -13 -10 -30 -10
-16 0 -30 -4 -30 -10 0 -5 14 -10 30 -10 20 0 30 -5 30 -15 0 -22 27 -18 33 5
3 14 14 20 31 20 14 0 26 5 26 10 0 6 -14 10 -31 10 -17 0 -28 4 -24 10 3 6
19 10 36 10 16 0 29 5 29 10 0 6 -16 10 -36 10 -21 0 -33 4 -29 10 3 6 16 10
27 10 21 0 47 26 48 48 0 7 -13 12 -35 12 -19 0 -35 5 -35 10 0 6 4 10 9 10 5
0 11 9 14 20 4 15 14 20 37 20 36 0 38 23 2 28 -14 2 -22 11 -22 23 0 27 -28
24 -32 -3z m-8 -58 c0 -5 -4 -10 -9 -10 -5 0 -16 -3 -25 -6 -11 -4 -16 -1 -16
10 0 10 9 16 25 16 14 0 25 -4 25 -10z m30 -80 c0 -5 -9 -10 -20 -10 -11 0
-20 5 -20 10 0 6 9 10 20 10 11 0 20 -4 20 -10z"/>
<path d="M338 1738 c-4 -32 -58 -39 -58 -9 0 12 -6 21 -16 21 -10 0 -14 -7
-12 -22 2 -18 -2 -24 -23 -26 -24 -3 -26 0 -21 23 4 22 1 26 -13 23 -10 -1
-23 -16 -28 -33 -5 -16 -27 -57 -49 -89 -44 -67 -43 -83 3 -40 l32 29 -6 -87
c-4 -55 -2 -90 4 -94 19 -11 23 6 26 122 2 64 5 119 7 123 3 4 21 5 40 3 27
-3 36 -9 36 -23 0 -10 7 -19 15 -19 10 0 15 -10 15 -30 0 -30 -21 -42 -35 -20
-3 6 1 10 9 10 9 0 16 5 16 10 0 6 -13 10 -30 10 -16 0 -30 -2 -30 -4 0 -1 5
-17 11 -34 9 -27 15 -31 35 -26 15 4 24 2 24 -5 0 -6 -13 -11 -30 -11 -16 0
-30 -4 -30 -10 0 -5 14 -10 30 -10 17 0 30 -4 30 -10 0 -5 -13 -10 -30 -10
-16 0 -30 -4 -30 -10 0 -5 14 -10 30 -10 17 0 30 -4 30 -10 0 -5 -22 -10 -50
-10 -27 0 -50 -4 -50 -10 0 -6 47 -10 121 -10 92 0 120 3 117 13 -3 7 -26 13
-57 15 -51 3 -64 22 -15 22 13 0 24 5 24 10 0 6 -14 10 -31 10 -17 0 -28 4
-24 10 3 6 19 10 36 10 16 0 29 5 29 10 0 6 -16 10 -36 10 -21 0 -33 4 -29 10
3 6 16 10 27 10 21 0 47 26 48 48 0 7 -13 12 -35 12 -19 0 -35 5 -35 10 0 6 4
10 9 10 5 0 11 9 14 20 4 15 14 20 37 20 36 0 38 23 2 28 -14 2 -22 11 -22 23
0 27 -28 24 -32 -3z m-8 -58 c0 -5 -4 -10 -9 -10 -5 0 -16 -3 -25 -6 -11 -4
-16 -1 -16 10 0 10 9 16 25 16 14 0 25 -4 25 -10z m30 -80 c0 -5 -9 -10 -20
-10 -11 0 -20 5 -20 10 0 6 9 10 20 10 11 0 20 -4 20 -10z"/>
</g>
</svg>
