<?xml version="1.0" standalone="no"?>
<!DOCTYPE svg PUBLIC "-//W3C//DTD SVG 20010904//EN"
 "http://www.w3.org/TR/2001/REC-SVG-20010904/DTD/svg10.dtd">
<svg version="1.0" xmlns="http://www.w3.org/2000/svg"
 width="50.000000pt" height="725.000000pt" viewBox="0 0 50.000000 725.000000"
 preserveAspectRatio="xMidYMid meet">
<metadata>
Created by potrace 1.16, written by Peter Selinger 2001-2019
</metadata>
<g transform="translate(0.000000,725.000000) scale(0.100000,-0.100000)"
fill="#000000" stroke="none">
<path d="M150 7115 c-7 -20 -27 -59 -46 -87 -19 -28 -32 -53 -29 -56 18 -19
122 134 111 163 -9 25 -24 17 -36 -20z"/>
<path d="M150 6665 c-7 -20 -27 -59 -46 -87 -40 -59 -37 -74 7 -32 l31 29 -7
-50 c-3 -27 -8 -66 -11 -85 -4 -37 9 -70 23 -56 4 4 10 60 13 124 3 70 10 126
18 140 14 24 10 52 -7 52 -5 0 -15 -16 -21 -35z"/>
<path d="M268 6252 c-30 -18 -36 -32 -15 -32 31 0 88 22 84 33 -6 18 -39 18
-69 -1z"/>
<path d="M150 6215 c-7 -20 -27 -59 -46 -87 -40 -59 -37 -74 7 -32 l31 29 -7
-50 c-3 -27 -8 -66 -11 -85 -4 -37 9 -70 23 -56 4 4 10 60 13 124 3 70 10 126
18 140 14 24 10 52 -7 52 -5 0 -15 -16 -21 -35z"/>
<path d="M268 5802 c-30 -18 -36 -32 -15 -32 31 0 88 22 84 33 -6 18 -39 18
-69 -1z"/>
<path d="M150 5765 c-7 -20 -27 -59 -46 -87 -40 -59 -37 -74 7 -32 l31 29 -7
-50 c-3 -27 -8 -66 -11 -85 -4 -37 9 -70 23 -56 4 4 10 60 13 124 3 70 10 126
18 140 14 24 10 52 -7 52 -5 0 -15 -16 -21 -35z"/>
<path d="M263 5747 c-105 -15 -91 -30 20 -21 50 3 94 8 96 10 1 1 0 7 -4 13
-7 12 -9 12 -112 -2z"/>
<path d="M276 5355 c-10 -8 -24 -16 -30 -19 -7 -3 -6 -8 3 -14 20 -14 4 -32
-30 -32 -16 0 -29 -4 -29 -10 0 -5 11 -10 25 -10 32 0 31 -7 -2 -42 -14 -15
-24 -30 -21 -34 10 -10 48 20 69 54 19 29 25 32 71 32 35 0 48 4 45 13 -3 7
-19 11 -44 9 -51 -3 -68 23 -21 32 18 3 28 11 26 18 -6 19 -40 20 -62 3z"/>
<path d="M150 5315 c-7 -20 -27 -59 -46 -87 -40 -59 -37 -74 7 -32 l31 29 -7
-50 c-3 -27 -8 -66 -11 -85 -4 -37 9 -70 23 -56 4 4 10 60 13 124 3 70 10 126
18 140 14 24 10 52 -7 52 -5 0 -15 -16 -21 -35z"/>
<path d="M276 4905 c-10 -8 -24 -16 -30 -19 -7 -3 -6 -8 3 -14 20 -14 4 -32
-30 -32 -16 0 -29 -4 -29 -10 0 -5 11 -10 25 -10 32 0 31 -7 -2 -42 -14 -15
-24 -30 -21 -34 10 -10 48 20 69 54 12 17 24 32 29 32 5 0 25 -20 46 -46 29
-35 43 -44 62 -42 33 4 39 24 10 32 -13 3 -36 17 -53 30 l-30 25 28 1 c19 0
27 4 24 13 -3 7 -19 11 -44 9 -51 -3 -68 23 -21 32 18 3 28 11 26 18 -6 19
-40 20 -62 3z"/>
<path d="M150 4865 c-7 -20 -27 -59 -46 -87 -40 -59 -37 -74 7 -32 l31 29 -7
-50 c-3 -27 -8 -66 -11 -85 -4 -37 9 -70 23 -56 4 4 10 60 13 124 3 70 10 126
18 140 14 24 10 52 -7 52 -5 0 -15 -16 -21 -35z"/>
<path d="M276 4455 c-10 -8 -24 -16 -30 -19 -7 -3 -6 -8 3 -14 20 -14 4 -32
-30 -32 -16 0 -29 -4 -29 -10 0 -5 11 -10 25 -10 32 0 31 -7 -2 -42 -28 -29
-25 -51 3 -27 13 11 18 11 21 2 8 -24 23 -13 23 15 0 16 7 37 15 48 15 18 17
17 58 -29 33 -37 49 -48 67 -45 31 4 37 24 8 32 -13 3 -36 17 -53 30 l-30 25
28 1 c19 0 27 4 24 13 -3 7 -19 11 -44 9 -51 -3 -68 23 -21 32 18 3 28 11 26
18 -6 19 -40 20 -62 3z"/>
<path d="M150 4415 c-7 -20 -27 -59 -46 -87 -40 -59 -37 -74 7 -32 l31 29 -7
-50 c-3 -27 -8 -66 -11 -85 -4 -37 9 -70 23 -56 4 4 10 60 13 124 3 70 10 126
18 140 14 24 10 52 -7 52 -5 0 -15 -16 -21 -35z"/>
<path d="M276 4005 c-10 -8 -24 -16 -30 -19 -7 -3 -6 -8 3 -14 20 -14 4 -32
-30 -32 -16 0 -29 -4 -29 -10 0 -5 11 -10 25 -10 32 0 31 -7 -2 -42 -28 -29
-25 -51 3 -27 13 11 18 11 21 2 6 -17 23 -16 23 1 0 7 9 16 20 19 15 4 20 0
20 -14 0 -24 16 -25 29 -2 9 17 10 17 29 -1 21 -19 63 -19 69 0 2 7 -6 14 -19
18 -13 3 -36 17 -53 30 l-30 25 28 1 c19 0 27 4 24 13 -3 7 -19 11 -44 9 -51
-3 -68 23 -21 32 18 3 28 11 26 18 -6 19 -40 20 -62 3z m33 -89 c9 -11 7 -15
-11 -20 -36 -9 -39 -7 -28 14 13 23 23 25 39 6z"/>
<path d="M150 3965 c-7 -20 -27 -59 -46 -87 -40 -59 -37 -74 7 -32 l31 29 -7
-50 c-3 -27 -8 -66 -11 -85 -4 -37 9 -70 23 -56 4 4 10 60 13 124 3 70 10 126
18 140 14 24 10 52 -7 52 -5 0 -15 -16 -21 -35z"/>
<path d="M276 3555 c-10 -8 -24 -16 -30 -19 -7 -3 -6 -8 3 -14 20 -14 4 -32
-30 -32 -16 0 -29 -4 -29 -10 0 -5 11 -10 25 -10 32 0 31 -7 -2 -42 -28 -29
-26 -51 3 -27 14 11 17 10 26 -5 7 -13 17 -16 41 -11 18 4 38 14 44 23 12 14
15 14 32 -2 21 -19 62 -18 68 0 2 7 -6 14 -19 18 -13 3 -36 17 -53 30 l-30 25
28 1 c19 0 27 4 24 13 -3 7 -19 11 -44 9 -51 -3 -68 23 -21 32 18 3 28 11 26
18 -6 19 -40 20 -62 3z m33 -89 c9 -11 7 -15 -11 -20 -36 -9 -39 -7 -28 14 13
23 23 25 39 6z m-19 -56 c-19 -12 -30 -12 -30 -1 0 10 31 20 40 14 2 -2 -2 -8
-10 -13z"/>
<path d="M150 3515 c-7 -20 -27 -59 -46 -87 -40 -59 -37 -74 7 -32 l31 29 -7
-50 c-3 -27 -8 -66 -11 -85 -4 -37 9 -70 23 -56 4 4 10 60 13 124 3 70 10 126
18 140 14 24 10 52 -7 52 -5 0 -15 -16 -21 -35z"/>
<path d="M276 3105 c-10 -8 -24 -16 -30 -19 -7 -3 -6 -8 3 -14 20 -14 4 -32
-30 -32 -16 0 -29 -4 -29 -10 0 -5 11 -10 25 -10 32 0 31 -7 -2 -42 -28 -29
-26 -51 3 -27 14 11 17 10 26 -5 7 -13 17 -16 41 -11 18 4 38 14 44 23 12 14
15 14 32 -2 21 -19 62 -18 68 0 2 7 -6 14 -19 18 -13 3 -36 17 -53 30 l-30 25
28 1 c19 0 27 4 24 13 -3 7 -19 11 -44 9 -51 -3 -68 23 -21 32 18 3 28 11 26
18 -6 19 -40 20 -62 3z m33 -89 c9 -11 7 -15 -11 -20 -36 -9 -39 -7 -28 14 13
23 23 25 39 6z m-19 -56 c-19 -12 -30 -12 -30 -1 0 10 31 20 40 14 2 -2 -2 -8
-10 -13z"/>
<path d="M150 3065 c-7 -20 -27 -59 -46 -87 -40 -59 -37 -74 7 -32 l31 29 -7
-50 c-3 -27 -8 -66 -11 -85 -4 -37 9 -70 23 -56 4 4 10 60 13 124 3 70 10 126
18 140 14 24 10 52 -7 52 -5 0 -15 -16 -21 -35z"/>
<path d="M184 2894 c3 -9 6 -36 6 -60 0 -34 4 -44 16 -44 14 0 15 7 10 38 -3
20 -6 47 -6 60 0 13 -6 22 -16 22 -11 0 -14 -5 -10 -16z"/>
<path d="M276 2655 c-10 -8 -24 -16 -30 -19 -7 -3 -6 -8 3 -14 20 -14 4 -32
-30 -32 -16 0 -29 -4 -29 -10 0 -5 11 -10 25 -10 32 0 31 -7 -2 -42 -28 -29
-26 -51 3 -27 14 11 17 10 26 -5 7 -13 17 -16 41 -11 18 4 38 14 44 23 12 14
15 14 32 -2 21 -19 62 -18 68 0 2 7 -6 14 -19 18 -13 3 -36 17 -53 30 l-30 25
28 1 c19 0 27 4 24 13 -3 7 -19 11 -44 9 -51 -3 -68 23 -21 32 18 3 28 11 26
18 -6 19 -40 20 -62 3z m33 -89 c9 -11 7 -15 -11 -20 -36 -9 -39 -7 -28 14 13
23 23 25 39 6z m-19 -56 c-19 -12 -30 -12 -30 -1 0 10 31 20 40 14 2 -2 -2 -8
-10 -13z"/>
<path d="M150 2615 c-7 -20 -27 -59 -46 -87 -40 -59 -37 -74 7 -32 l31 29 -7
-50 c-3 -27 -8 -66 -11 -85 -4 -37 9 -70 23 -56 4 4 10 60 13 124 3 70 10 126
18 140 14 24 10 52 -7 52 -5 0 -15 -16 -21 -35z"/>
<path d="M323 2473 c-45 -6 -42 -21 5 -25 39 -3 40 -5 26 -66 -3 -18 -9 -22
-24 -17 -23 7 -25 -2 -6 -27 29 -39 60 -4 70 78 5 42 3 53 -10 58 -8 3 -19 5
-22 4 -4 0 -22 -3 -39 -5z"/>
<path d="M184 2444 c3 -9 6 -36 6 -60 0 -34 4 -44 16 -44 13 0 15 8 9 50 -7
49 -6 50 19 50 14 0 26 5 26 10 0 6 -18 10 -41 10 -33 0 -40 -3 -35 -16z"/>
<path d="M276 2205 c-10 -8 -24 -16 -30 -19 -7 -3 -6 -8 3 -14 20 -14 4 -32
-30 -32 -16 0 -29 -4 -29 -10 0 -5 11 -10 25 -10 32 0 31 -7 -2 -42 -28 -29
-26 -51 3 -27 14 11 17 10 26 -5 7 -13 17 -16 41 -11 18 4 38 14 44 23 12 14
15 14 32 -2 21 -19 62 -18 68 0 2 7 -6 14 -19 18 -13 3 -36 17 -53 30 l-30 25
28 1 c19 0 27 4 24 13 -3 7 -19 11 -44 9 -51 -3 -68 23 -21 32 18 3 28 11 26
18 -6 19 -40 20 -62 3z m33 -89 c9 -11 7 -15 -11 -20 -36 -9 -39 -7 -28 14 13
23 23 25 39 6z m-19 -56 c-19 -12 -30 -12 -30 -1 0 10 31 20 40 14 2 -2 -2 -8
-10 -13z"/>
<path d="M150 2165 c-7 -20 -27 -59 -46 -87 -40 -59 -37 -74 7 -32 l31 29 -7
-50 c-3 -27 -8 -66 -11 -85 -4 -37 9 -70 23 -56 4 4 10 60 13 124 3 70 10 126
18 140 14 24 10 52 -7 52 -5 0 -15 -16 -21 -35z"/>
<path d="M323 2023 c-45 -6 -42 -21 5 -25 39 -3 40 -5 26 -66 -3 -18 -9 -22
-24 -17 -23 7 -25 -2 -6 -27 29 -39 60 -4 70 78 5 42 3 53 -10 58 -8 3 -19 5
-22 4 -4 0 -22 -3 -39 -5z"/>
<path d="M184 1994 c3 -9 6 -36 6 -60 0 -34 4 -44 16 -44 13 0 15 8 9 50 -7
49 -6 50 19 50 14 0 26 5 26 10 0 6 -18 10 -41 10 -33 0 -40 -3 -35 -16z"/>
<path d="M240 1963 c0 -23 17 -49 26 -41 9 10 -4 58 -16 58 -6 0 -10 -8 -10
-17z"/>
<path d="M276 1755 c-10 -8 -24 -16 -30 -19 -7 -3 -6 -8 3 -14 20 -14 4 -32
-30 -32 -16 0 -29 -4 -29 -10 0 -5 11 -10 25 -10 32 0 31 -7 -2 -42 -28 -29
-26 -51 3 -27 14 11 17 10 26 -5 7 -13 17 -16 41 -11 18 4 38 14 44 23 12 14
15 14 32 -2 21 -19 62 -18 68 0 2 7 -6 14 -19 18 -13 3 -36 17 -53 30 l-30 25
28 1 c19 0 27 4 24 13 -3 7 -19 11 -44 9 -51 -3 -68 23 -21 32 18 3 28 11 26
18 -6 19 -40 20 -62 3z m33 -89 c9 -11 7 -15 -11 -20 -36 -9 -39 -7 -28 14 13
23 23 25 39 6z m-19 -56 c-19 -12 -30 -12 -30 -1 0 10 31 20 40 14 2 -2 -2 -8
-10 -13z"/>
<path d="M150 1715 c-7 -20 -27 -59 -46 -87 -40 -59 -37 -74 7 -32 l31 29 -7
-50 c-3 -27 -8 -66 -11 -85 -4 -37 9 -70 23 -56 4 4 10 60 13 124 3 70 10 126
18 140 14 24 10 52 -7 52 -5 0 -15 -16 -21 -35z"/>
<path d="M323 1573 c-45 -6 -42 -21 5 -25 39 -3 40 -5 26 -66 -3 -18 -9 -22
-24 -17 -23 7 -25 -2 -6 -27 29 -39 60 -4 70 78 5 42 3 53 -10 58 -8 3 -19 5
-22 4 -4 0 -22 -3 -39 -5z"/>
<path d="M184 1544 c3 -9 6 -36 6 -60 0 -34 4 -44 16 -44 13 0 15 8 9 50 -7
49 -6 50 19 50 14 0 26 5 26 10 0 6 -18 10 -41 10 -33 0 -40 -3 -35 -16z"/>
<path d="M296 1518 c9 -31 12 -34 25 -21 15 15 4 43 -16 43 -12 0 -15 -6 -9
-22z"/>
<path d="M240 1516 c0 -22 11 -46 21 -46 5 0 9 14 9 30 0 20 -5 30 -15 30 -8
0 -15 -6 -15 -14z"/>
<path d="M276 1305 c-10 -8 -24 -16 -30 -19 -7 -3 -6 -8 3 -14 20 -14 4 -32
-30 -32 -16 0 -29 -4 -29 -10 0 -5 11 -10 25 -10 32 0 31 -7 -2 -42 -28 -29
-26 -51 3 -27 14 11 17 10 26 -5 7 -13 17 -16 41 -11 18 4 38 14 44 23 12 14
15 14 32 -2 21 -19 62 -18 68 0 2 7 -6 14 -19 18 -13 3 -36 17 -53 30 l-30 25
28 1 c19 0 27 4 24 13 -3 7 -19 11 -44 9 -51 -3 -68 23 -21 32 18 3 28 11 26
18 -6 19 -40 20 -62 3z m33 -89 c9 -11 7 -15 -11 -20 -36 -9 -39 -7 -28 14 13
23 23 25 39 6z m-19 -56 c-19 -12 -30 -12 -30 -1 0 10 31 20 40 14 2 -2 -2 -8
-10 -13z"/>
<path d="M150 1265 c-7 -20 -27 -59 -46 -87 -40 -59 -37 -74 7 -32 l31 29 -7
-50 c-3 -27 -8 -66 -11 -85 -4 -37 9 -70 23 -56 4 4 10 60 13 124 3 70 10 126
18 140 14 24 10 52 -7 52 -5 0 -15 -16 -21 -35z"/>
<path d="M323 1123 c-45 -6 -42 -21 5 -25 39 -3 40 -5 26 -66 -3 -18 -9 -22
-24 -17 -23 7 -25 -2 -6 -27 29 -39 60 -4 70 78 5 42 3 53 -10 58 -8 3 -19 5
-22 4 -4 0 -22 -3 -39 -5z"/>
<path d="M184 1094 c3 -9 6 -36 6 -60 0 -34 4 -44 16 -44 13 0 15 8 9 50 -7
49 -6 50 19 50 14 0 26 5 26 10 0 6 -18 10 -41 10 -33 0 -40 -3 -35 -16z"/>
<path d="M295 1070 c4 -11 2 -20 -4 -20 -6 0 -11 -4 -11 -10 0 -19 39 -10 45
10 8 24 -1 40 -21 40 -11 0 -13 -6 -9 -20z"/>
<path d="M240 1066 c0 -22 11 -46 21 -46 5 0 9 14 9 30 0 20 -5 30 -15 30 -8
0 -15 -6 -15 -14z"/>
</g>
</svg>
