<?xml version="1.0" standalone="no"?>
<!DOCTYPE svg PUBLIC "-//W3C//DTD SVG 20010904//EN"
 "http://www.w3.org/TR/2001/REC-SVG-20010904/DTD/svg10.dtd">
<svg version="1.0" xmlns="http://www.w3.org/2000/svg"
 width="50.000000pt" height="725.000000pt" viewBox="0 0 50.000000 725.000000"
 preserveAspectRatio="xMidYMid meet">
<metadata>
Created by potrace 1.16, written by Peter Selinger 2001-2019
</metadata>
<g transform="translate(0.000000,725.000000) scale(0.100000,-0.100000)"
fill="#000000" stroke="none">
<path d="M157 7143 c-4 -3 -7 -14 -7 -23 0 -9 -16 -42 -35 -75 -20 -32 -33
-60 -30 -63 15 -16 105 113 105 151 0 17 -20 23 -33 10z"/>
<path d="M157 6693 c-4 -3 -7 -14 -7 -23 0 -9 -16 -42 -35 -75 -38 -62 -39
-81 -4 -49 l22 19 -5 -82 c-4 -73 2 -116 15 -103 3 3 7 55 9 115 3 76 10 120
21 142 9 18 17 39 17 48 0 15 -21 21 -33 8z"/>
<path d="M157 6243 c-4 -3 -7 -14 -7 -23 0 -9 -16 -42 -35 -75 -38 -62 -39
-81 -4 -49 l22 19 -5 -82 c-4 -73 2 -116 15 -103 3 3 7 55 9 115 3 76 10 120
21 142 9 18 17 39 17 48 0 15 -21 21 -33 8z"/>
<path d="M263 6218 c-75 -14 -68 -31 10 -22 67 7 77 10 77 25 0 11 -16 10 -87
-3z"/>
<path d="M258 5798 c-2 -25 -8 -34 -25 -36 -25 -4 -32 -22 -8 -22 8 0 15 -4
15 -9 0 -11 -40 -62 -60 -78 -8 -6 -12 -15 -8 -19 13 -12 58 26 86 71 20 34
33 45 56 47 16 2 32 9 34 17 4 11 -2 13 -27 8 -29 -6 -32 -5 -26 14 5 14 2 25
-6 30 -23 14 -28 11 -31 -23z"/>
<path d="M157 5793 c-4 -3 -7 -14 -7 -23 0 -9 -16 -42 -35 -75 -38 -62 -39
-81 -4 -49 l22 19 -5 -82 c-4 -73 2 -116 15 -103 3 3 7 55 9 115 3 76 10 120
21 142 9 18 17 39 17 48 0 15 -21 21 -33 8z"/>
<path d="M258 5348 c-2 -25 -8 -34 -25 -36 -25 -4 -32 -22 -8 -22 8 0 15 -4
15 -9 0 -11 -40 -62 -60 -78 -8 -6 -12 -15 -8 -19 12 -12 57 24 84 68 l26 41
35 -41 c41 -50 67 -65 93 -57 30 9 24 20 -19 40 -22 10 -49 28 -61 40 l-21 22
20 6 c35 9 25 30 -10 23 -27 -5 -30 -4 -24 15 5 14 2 25 -6 30 -23 14 -28 11
-31 -23z"/>
<path d="M157 5343 c-4 -3 -7 -14 -7 -23 0 -9 -16 -42 -35 -75 -38 -62 -39
-81 -4 -49 l22 19 -5 -82 c-4 -73 2 -116 15 -103 3 3 7 55 9 115 3 76 10 120
21 142 9 18 17 39 17 48 0 15 -21 21 -33 8z"/>
<path d="M258 4898 c-2 -25 -8 -34 -25 -36 -25 -4 -32 -22 -8 -22 8 0 15 -4
15 -8 0 -17 -13 -21 -31 -9 -25 16 -36 1 -15 -22 16 -18 16 -20 -5 -40 -12
-11 -20 -24 -16 -27 11 -12 56 25 83 68 l26 41 35 -41 c41 -50 67 -65 93 -57
30 9 24 20 -19 40 -22 10 -49 28 -61 40 l-21 22 20 6 c35 9 25 30 -10 23 -27
-5 -30 -4 -24 15 5 14 2 25 -6 30 -23 14 -28 11 -31 -23z"/>
<path d="M157 4893 c-4 -3 -7 -14 -7 -23 0 -9 -16 -42 -35 -75 -38 -62 -39
-81 -4 -49 l22 19 -5 -82 c-4 -73 2 -116 15 -103 3 3 7 55 9 115 3 76 10 120
21 142 9 18 17 39 17 48 0 15 -21 21 -33 8z"/>
<path d="M258 4448 c-2 -25 -8 -34 -25 -36 -25 -4 -32 -22 -8 -22 8 0 15 -4
15 -8 0 -17 -13 -21 -31 -9 -25 16 -36 1 -15 -22 16 -18 16 -20 -5 -40 -12
-11 -20 -24 -16 -27 11 -12 56 25 83 68 l26 41 35 -41 c41 -50 67 -65 93 -57
30 9 24 20 -21 40 -37 17 -39 20 -20 27 12 4 21 12 21 18 0 13 -37 13 -45 0
-5 -8 -12 -7 -22 1 -13 11 -12 14 6 21 34 12 26 31 -10 24 -27 -5 -30 -4 -24
15 5 14 2 25 -6 30 -23 14 -28 11 -31 -23z"/>
<path d="M157 4443 c-4 -3 -7 -14 -7 -23 0 -9 -16 -42 -35 -75 -38 -62 -39
-81 -4 -49 l22 19 -5 -82 c-4 -73 2 -116 15 -103 3 3 7 55 9 115 3 76 10 120
21 142 9 18 17 39 17 48 0 15 -21 21 -33 8z"/>
<path d="M258 3998 c-2 -25 -8 -34 -25 -36 -25 -4 -32 -22 -8 -22 8 0 15 -4
15 -8 0 -17 -13 -21 -31 -9 -26 16 -36 1 -15 -22 17 -19 17 -20 -3 -38 -28
-24 -26 -35 4 -27 23 6 25 3 25 -25 0 -17 5 -31 11 -31 6 0 9 17 8 43 -2 31 4
55 20 82 l23 39 35 -42 c41 -50 67 -65 93 -57 30 9 24 20 -21 40 -37 17 -39
20 -20 27 12 4 21 12 21 18 0 13 -37 13 -45 0 -5 -8 -12 -7 -22 1 -13 11 -12
14 6 21 34 12 26 31 -10 24 -27 -5 -30 -4 -24 15 5 14 2 25 -6 30 -23 14 -28
11 -31 -23z"/>
<path d="M157 3993 c-4 -3 -7 -14 -7 -23 0 -9 -16 -42 -35 -75 -38 -62 -39
-81 -4 -49 l22 19 -5 -82 c-4 -73 2 -116 15 -103 3 3 7 55 9 115 3 76 10 120
21 142 9 18 17 39 17 48 0 15 -21 21 -33 8z"/>
<path d="M258 3548 c-2 -25 -8 -34 -25 -36 -25 -4 -32 -22 -8 -22 8 0 15 -4
15 -8 0 -17 -13 -21 -31 -9 -26 16 -36 1 -15 -22 17 -19 17 -20 -3 -38 -28
-24 -26 -35 4 -27 23 6 25 3 25 -25 0 -17 5 -31 11 -31 6 0 9 17 8 43 -2 31 4
55 20 83 l23 39 24 -30 c25 -32 19 -45 -23 -45 -13 0 -23 -4 -23 -10 0 -5 13
-10 29 -10 28 0 29 -1 24 -40 -7 -52 9 -52 30 1 13 33 20 39 35 35 21 -7 52 1
52 14 0 4 -18 15 -41 25 -37 17 -39 20 -20 27 12 4 21 12 21 18 0 13 -37 13
-45 0 -5 -8 -12 -7 -22 1 -13 11 -12 14 6 21 34 12 26 31 -10 24 -27 -5 -30
-4 -24 15 5 14 2 25 -6 30 -23 14 -28 11 -31 -23z"/>
<path d="M157 3543 c-4 -3 -7 -14 -7 -23 0 -9 -16 -42 -35 -75 -38 -62 -39
-81 -4 -49 l22 19 -5 -82 c-4 -73 2 -116 15 -103 3 3 7 55 9 115 3 76 10 120
21 142 9 18 17 39 17 48 0 15 -21 21 -33 8z"/>
<path d="M258 3098 c-2 -25 -8 -34 -25 -36 -25 -4 -32 -22 -8 -22 8 0 15 -4
15 -8 0 -17 -13 -21 -31 -9 -26 16 -36 1 -15 -22 17 -19 17 -20 -3 -38 -28
-24 -26 -35 4 -27 23 6 25 3 25 -25 0 -17 5 -31 10 -31 6 0 10 6 10 14 0 13
28 26 58 26 6 0 12 -11 12 -25 0 -37 15 -30 33 16 13 33 20 39 35 35 21 -7 52
1 52 14 0 4 -18 15 -41 25 -37 17 -39 20 -20 27 12 4 21 12 21 18 0 13 -37 13
-45 0 -5 -8 -12 -7 -22 1 -13 11 -12 14 6 21 34 12 26 31 -10 24 -27 -5 -30
-4 -24 15 5 14 2 25 -6 30 -23 14 -28 11 -31 -23z m59 -120 c-7 -4 -22 -8 -34
-8 -13 0 -23 -4 -23 -10 0 -5 14 -10 32 -10 39 0 34 -5 -13 -14 -48 -9 -55 15
-21 69 l25 39 23 -29 c17 -21 20 -31 11 -37z"/>
<path d="M157 3093 c-4 -3 -7 -14 -7 -23 0 -9 -16 -42 -35 -75 -38 -62 -39
-81 -4 -49 l22 19 -5 -82 c-4 -73 2 -116 15 -103 3 3 7 55 9 115 3 76 10 120
21 142 9 18 17 39 17 48 0 15 -21 21 -33 8z"/>
<path d="M258 2648 c-2 -25 -8 -34 -25 -36 -25 -4 -32 -22 -8 -22 8 0 15 -4
15 -8 0 -17 -13 -21 -31 -9 -26 16 -36 1 -15 -22 17 -19 17 -20 -3 -38 -28
-23 -27 -35 3 -27 22 5 25 2 28 -27 2 -18 9 -35 17 -37 10 -3 12 1 9 16 -4 15
0 22 16 26 31 8 46 7 46 -4 0 -5 -11 -10 -25 -10 -14 0 -25 -4 -25 -10 0 -5 9
-10 19 -10 11 0 26 -2 33 -5 10 -4 20 8 31 35 13 33 20 40 35 36 21 -7 52 1
52 14 0 4 -18 15 -41 25 -37 17 -39 20 -20 27 12 4 21 12 21 18 0 13 -37 13
-45 0 -5 -8 -12 -7 -22 1 -13 11 -12 14 6 21 34 12 26 31 -10 24 -27 -5 -30
-4 -24 15 5 14 2 25 -6 30 -23 14 -28 11 -31 -23z m59 -120 c-7 -4 -22 -8 -34
-8 -13 0 -23 -4 -23 -10 0 -5 14 -10 32 -10 39 0 34 -5 -13 -14 -48 -9 -55 15
-21 69 l25 39 23 -29 c17 -21 20 -31 11 -37z"/>
<path d="M157 2643 c-4 -3 -7 -14 -7 -23 0 -9 -16 -42 -35 -75 -38 -62 -39
-81 -4 -49 l22 19 -5 -82 c-4 -73 2 -116 15 -103 3 3 7 55 9 115 3 76 10 120
21 142 9 18 17 39 17 48 0 15 -21 21 -33 8z"/>
<path d="M258 2198 c-2 -25 -8 -34 -25 -36 -25 -4 -32 -22 -8 -22 8 0 15 -4
15 -8 0 -17 -13 -21 -31 -9 -26 16 -36 1 -15 -22 17 -19 17 -20 -3 -38 -28
-24 -26 -35 4 -27 23 6 25 3 25 -26 0 -23 5 -33 20 -37 15 -4 20 -14 20 -38 0
-18 -6 -35 -12 -38 -10 -3 -10 -7 -1 -17 18 -20 43 -4 43 27 0 43 11 72 24 67
8 -3 19 12 29 36 13 33 20 40 35 36 21 -7 52 1 52 14 0 4 -18 15 -41 25 -37
17 -39 20 -20 27 12 4 21 12 21 18 0 13 -37 13 -45 0 -5 -8 -12 -7 -22 1 -13
11 -12 14 6 21 34 12 26 31 -10 24 -27 -5 -30 -4 -24 15 5 14 2 25 -6 30 -23
14 -28 11 -31 -23z m59 -120 c-7 -4 -22 -8 -34 -8 -13 0 -23 -4 -23 -10 0 -5
14 -10 32 -10 39 0 34 -5 -13 -14 -48 -9 -55 15 -21 69 l25 39 23 -29 c17 -21
20 -31 11 -37z m-7 -67 c0 -11 -59 -20 -66 -10 -2 4 4 10 13 12 31 8 53 7 53
-2z"/>
<path d="M157 2193 c-4 -3 -7 -14 -7 -23 0 -9 -16 -42 -35 -75 -38 -62 -39
-81 -4 -49 l22 19 -5 -82 c-4 -73 2 -116 15 -103 3 3 7 55 9 115 3 76 10 120
21 142 9 18 17 39 17 48 0 15 -21 21 -33 8z"/>
<path d="M258 1748 c-2 -25 -8 -34 -25 -36 -25 -4 -32 -22 -8 -22 8 0 15 -4
15 -8 0 -17 -13 -21 -31 -9 -26 16 -36 1 -15 -22 17 -19 17 -20 -3 -38 -28
-24 -26 -35 4 -27 23 6 25 3 25 -26 0 -23 5 -33 20 -37 15 -4 20 -14 20 -38 0
-18 -6 -35 -12 -38 -10 -3 -10 -7 -1 -17 18 -20 43 -4 43 27 0 43 11 72 24 67
8 -3 19 12 29 36 13 33 20 40 35 36 21 -7 52 1 52 14 0 4 -18 15 -41 25 -37
17 -39 20 -20 27 12 4 21 12 21 18 0 13 -37 13 -45 0 -5 -8 -12 -7 -22 1 -13
11 -12 14 6 21 34 12 26 31 -10 24 -27 -5 -30 -4 -24 15 5 14 2 25 -6 30 -23
14 -28 11 -31 -23z m59 -120 c-7 -4 -22 -8 -34 -8 -13 0 -23 -4 -23 -10 0 -5
14 -10 32 -10 39 0 34 -5 -13 -14 -48 -9 -55 15 -21 69 l25 39 23 -29 c17 -21
20 -31 11 -37z m-7 -67 c0 -11 -59 -20 -66 -10 -2 4 4 10 13 12 31 8 53 7 53
-2z"/>
<path d="M157 1743 c-4 -3 -7 -14 -7 -23 0 -9 -16 -42 -35 -75 -38 -62 -39
-81 -4 -49 l22 19 -5 -82 c-4 -73 2 -116 15 -103 3 3 7 55 9 115 3 76 10 120
21 142 9 18 17 39 17 48 0 15 -21 21 -33 8z"/>
<path d="M200 1496 c0 -7 -7 -19 -15 -26 -16 -13 -20 -30 -7 -30 14 0 52 40
52 55 0 8 -7 15 -15 15 -8 0 -15 -6 -15 -14z"/>
<path d="M258 1298 c-2 -25 -8 -34 -25 -36 -25 -4 -32 -22 -8 -22 8 0 15 -4
15 -8 0 -17 -13 -21 -31 -9 -26 16 -36 1 -15 -22 17 -19 17 -20 -3 -38 -28
-24 -26 -35 4 -27 23 6 25 3 25 -26 0 -23 5 -33 20 -37 15 -4 20 -14 20 -38 0
-18 -6 -35 -12 -38 -10 -3 -10 -7 -1 -17 18 -20 43 -4 43 27 0 43 11 72 24 67
8 -3 19 12 29 36 13 33 20 40 35 36 21 -7 52 1 52 14 0 4 -18 15 -41 25 -37
17 -39 20 -20 27 12 4 21 12 21 18 0 13 -37 13 -45 0 -5 -8 -12 -7 -22 1 -13
11 -12 14 6 21 34 12 26 31 -10 24 -27 -5 -30 -4 -24 15 5 14 2 25 -6 30 -23
14 -28 11 -31 -23z m59 -120 c-7 -4 -22 -8 -34 -8 -13 0 -23 -4 -23 -10 0 -5
14 -10 32 -10 39 0 34 -5 -13 -14 -48 -9 -55 15 -21 69 l25 39 23 -29 c17 -21
20 -31 11 -37z m-7 -67 c0 -11 -59 -20 -66 -10 -2 4 4 10 13 12 31 8 53 7 53
-2z"/>
<path d="M157 1293 c-4 -3 -7 -14 -7 -23 0 -9 -16 -42 -35 -75 -38 -62 -39
-81 -4 -49 l22 19 -5 -82 c-4 -73 2 -116 15 -103 3 3 7 55 9 115 3 76 10 120
21 142 9 18 17 39 17 48 0 15 -21 21 -33 8z"/>
<path d="M200 1046 c0 -7 -7 -19 -15 -26 -16 -13 -20 -30 -7 -30 14 0 52 40
52 55 0 8 -7 15 -15 15 -8 0 -15 -6 -15 -14z"/>
<path d="M320 1052 c0 -12 44 -52 58 -52 16 0 15 25 0 38 -19 15 -58 25 -58
14z"/>
</g>
</svg>
