<?xml version="1.0" standalone="no"?>
<!DOCTYPE svg PUBLIC "-//W3C//DTD SVG 20010904//EN"
 "http://www.w3.org/TR/2001/REC-SVG-20010904/DTD/svg10.dtd">
<svg version="1.0" xmlns="http://www.w3.org/2000/svg"
 width="50.000000pt" height="725.000000pt" viewBox="0 0 50.000000 725.000000"
 preserveAspectRatio="xMidYMid meet">
<metadata>
Created by potrace 1.16, written by Peter Selinger 2001-2019
</metadata>
<g transform="translate(0.000000,725.000000) scale(0.100000,-0.100000)"
fill="#000000" stroke="none">
<path d="M166 7114 c-4 -15 -23 -51 -42 -81 -37 -58 -38 -79 -3 -47 28 26 91
133 84 145 -12 18 -33 9 -39 -17z"/>
<path d="M166 6664 c-4 -15 -23 -51 -42 -81 -39 -61 -38 -79 2 -42 l27 24 -7
-92 c-6 -80 -5 -93 9 -93 12 0 15 16 17 88 0 48 1 101 2 117 1 17 9 43 19 58
10 15 15 32 12 37 -12 19 -33 10 -39 -16z"/>
<path d="M166 6214 c-4 -15 -23 -51 -42 -81 -39 -61 -38 -79 2 -42 l27 24 -7
-92 c-6 -80 -5 -93 9 -93 12 0 15 16 17 88 0 48 1 101 2 117 1 17 9 43 19 58
10 15 15 32 12 37 -12 19 -33 10 -39 -16z"/>
<path d="M288 6223 c-21 -2 -38 -9 -38 -15 0 -7 17 -9 46 -5 l45 5 -6 -40 c-9
-53 13 -48 32 6 19 57 17 59 -79 49z"/>
<path d="M166 5764 c-4 -15 -23 -51 -42 -81 -39 -61 -38 -79 2 -42 l27 24 -7
-92 c-6 -80 -5 -93 9 -93 12 0 15 16 17 88 0 48 1 101 2 117 1 17 9 43 19 58
10 15 15 32 12 37 -12 19 -33 10 -39 -16z"/>
<path d="M288 5773 c-21 -2 -38 -9 -38 -15 0 -7 17 -9 45 -6 25 3 45 2 45 -3
0 -10 -23 -16 -92 -25 -84 -9 -73 -27 12 -18 61 6 70 4 70 -10 0 -23 21 -20
27 4 4 15 14 20 39 20 19 0 34 4 34 9 0 12 -27 22 -44 15 -9 -3 -13 1 -13 13
2 20 -18 23 -85 16z"/>
<path d="M166 5314 c-4 -15 -23 -51 -42 -81 -39 -61 -38 -79 2 -42 l27 24 -7
-92 c-6 -80 -5 -93 9 -93 12 0 15 16 17 88 0 48 1 101 2 117 1 17 9 43 19 58
10 15 15 32 12 37 -12 19 -33 10 -39 -16z"/>
<path d="M288 5323 c-21 -2 -38 -9 -38 -15 0 -7 17 -9 45 -6 25 3 45 2 45 -3
0 -10 -23 -16 -92 -25 -85 -10 -72 -26 15 -19 52 5 68 4 57 -4 -8 -6 -30 -11
-47 -11 -18 0 -33 -4 -33 -10 0 -11 42 -13 89 -4 21 5 31 12 31 25 0 15 7 19
35 19 19 0 35 4 35 9 0 12 -27 22 -44 15 -9 -3 -13 1 -13 13 2 20 -18 23 -85
16z"/>
<path d="M276 4895 c5 -19 2 -25 -10 -25 -9 0 -16 -4 -16 -10 0 -5 7 -10 15
-10 8 0 15 -4 15 -9 0 -10 -34 -21 -67 -21 -13 0 -23 -5 -23 -11 0 -8 14 -10
45 -6 27 4 45 3 45 -3 0 -6 -9 -10 -20 -10 -11 0 -20 -4 -20 -10 0 -5 9 -10
20 -10 11 0 20 -7 20 -15 0 -8 5 -15 10 -15 6 0 10 7 10 15 0 9 12 18 30 22
21 4 30 11 30 24 0 15 7 19 35 19 19 0 35 4 35 9 0 12 -27 22 -44 15 -9 -3
-13 1 -13 13 2 14 -5 18 -30 18 -28 0 -33 4 -33 22 0 16 -6 23 -20 23 -17 0
-19 -5 -14 -25z m64 -44 c0 -5 -7 -11 -15 -15 -15 -5 -20 5 -8 17 9 10 23 9
23 -2z"/>
<path d="M166 4864 c-4 -15 -23 -51 -42 -81 -39 -61 -38 -79 2 -42 l27 24 -7
-92 c-6 -80 -5 -93 9 -93 12 0 15 16 17 88 0 48 1 101 2 117 1 17 9 43 19 58
10 15 15 32 12 37 -12 19 -33 10 -39 -16z"/>
<path d="M276 4445 c5 -19 2 -25 -10 -25 -9 0 -16 -4 -16 -10 0 -5 7 -10 15
-10 8 0 15 -4 15 -9 0 -10 -34 -21 -67 -21 -13 0 -23 -5 -23 -11 0 -8 14 -10
45 -6 27 4 45 3 45 -3 0 -6 -9 -10 -20 -10 -11 0 -20 -4 -20 -10 0 -5 9 -10
21 -10 11 0 17 -4 14 -10 -3 -5 -17 -10 -31 -10 -13 0 -24 -4 -24 -10 0 -9
149 -3 160 7 11 10 -27 21 -55 17 -23 -4 -27 -3 -15 5 8 6 23 11 33 11 10 0
17 8 17 20 0 16 7 20 35 20 19 0 35 4 35 9 0 12 -27 22 -44 15 -9 -3 -13 1
-13 13 2 14 -5 18 -30 18 -28 0 -33 4 -33 22 0 16 -6 23 -20 23 -17 0 -19 -5
-14 -25z m64 -44 c0 -5 -7 -11 -15 -15 -15 -5 -20 5 -8 17 9 10 23 9 23 -2z"/>
<path d="M166 4414 c-4 -15 -23 -51 -42 -81 -39 -61 -38 -79 2 -42 l27 24 -7
-92 c-6 -80 -5 -93 9 -93 12 0 15 16 17 88 0 48 1 101 2 117 1 17 9 43 19 58
10 15 15 32 12 37 -12 19 -33 10 -39 -16z"/>
<path d="M276 3995 c5 -19 2 -25 -10 -25 -9 0 -16 -4 -16 -10 0 -5 7 -10 15
-10 8 0 15 -4 15 -9 0 -10 -34 -21 -67 -21 -13 0 -23 -5 -23 -11 0 -8 14 -10
45 -6 27 4 45 3 45 -3 0 -6 -9 -10 -20 -10 -11 0 -20 -4 -20 -10 0 -5 9 -10
21 -10 11 0 17 -4 14 -10 -3 -5 -16 -10 -27 -10 -22 0 -58 -35 -58 -57 0 -7 7
-13 15 -13 9 0 15 9 15 24 0 19 6 24 38 30 20 3 56 6 80 6 23 0 42 4 42 9 0
14 -23 19 -56 14 -22 -3 -26 -2 -14 6 8 6 23 11 33 11 10 0 17 8 17 20 0 16 7
20 35 20 19 0 35 4 35 9 0 12 -27 22 -44 15 -9 -3 -13 1 -13 13 2 14 -5 18
-30 18 -28 0 -33 4 -33 22 0 16 -6 23 -20 23 -17 0 -19 -5 -14 -25z m64 -44
c0 -5 -7 -11 -15 -15 -15 -5 -20 5 -8 17 9 10 23 9 23 -2z"/>
<path d="M166 3964 c-4 -15 -23 -51 -42 -81 -39 -61 -38 -79 2 -42 l27 24 -7
-92 c-6 -80 -5 -93 9 -93 12 0 15 16 17 88 0 48 1 101 2 117 1 17 9 43 19 58
10 15 15 32 12 37 -12 19 -33 10 -39 -16z"/>
<path d="M276 3545 c5 -19 2 -25 -10 -25 -9 0 -16 -4 -16 -10 0 -5 7 -10 15
-10 8 0 15 -4 15 -9 0 -10 -34 -21 -67 -21 -13 0 -23 -5 -23 -11 0 -8 14 -10
45 -6 27 4 45 3 45 -3 0 -6 -9 -10 -20 -10 -11 0 -20 -4 -20 -10 0 -5 9 -10
21 -10 11 0 17 -4 14 -10 -3 -5 -16 -10 -27 -10 -22 0 -58 -35 -58 -57 0 -7 7
-13 15 -13 9 0 15 9 15 24 0 19 6 24 38 30 20 3 56 6 80 6 23 0 42 4 42 9 0
14 -23 19 -56 14 -22 -3 -26 -2 -14 6 8 6 23 11 33 11 10 0 17 8 17 20 0 16 7
20 35 20 19 0 35 4 35 9 0 12 -27 22 -44 15 -9 -3 -13 1 -13 13 2 14 -5 18
-30 18 -28 0 -33 4 -33 22 0 16 -6 23 -20 23 -17 0 -19 -5 -14 -25z m64 -44
c0 -5 -7 -11 -15 -15 -15 -5 -20 5 -8 17 9 10 23 9 23 -2z"/>
<path d="M166 3514 c-4 -15 -23 -51 -42 -81 -39 -61 -38 -79 2 -42 l27 24 -7
-92 c-6 -80 -5 -93 9 -93 12 0 15 16 17 88 0 48 1 101 2 117 1 17 9 43 19 58
10 15 15 32 12 37 -12 19 -33 10 -39 -16z"/>
<path d="M250 3355 c0 -8 7 -15 15 -15 8 0 15 7 15 15 0 8 -7 15 -15 15 -8 0
-15 -7 -15 -15z"/>
<path d="M276 3095 c5 -19 2 -25 -10 -25 -9 0 -16 -4 -16 -10 0 -5 7 -10 15
-10 8 0 15 -4 15 -9 0 -10 -34 -21 -67 -21 -13 0 -23 -5 -23 -11 0 -8 14 -10
45 -6 27 4 45 3 45 -3 0 -6 -9 -10 -20 -10 -11 0 -20 -4 -20 -10 0 -5 9 -10
21 -10 11 0 17 -4 14 -10 -3 -5 -16 -10 -27 -10 -22 0 -58 -35 -58 -57 0 -7 7
-13 15 -13 9 0 15 9 15 24 0 19 6 24 38 30 20 3 56 6 80 6 23 0 42 4 42 9 0
14 -23 19 -56 14 -22 -3 -26 -2 -14 6 8 6 23 11 33 11 10 0 17 8 17 20 0 16 7
20 35 20 19 0 35 4 35 9 0 12 -27 22 -44 15 -9 -3 -13 1 -13 13 2 14 -5 18
-30 18 -28 0 -33 4 -33 22 0 16 -6 23 -20 23 -17 0 -19 -5 -14 -25z m64 -44
c0 -5 -7 -11 -15 -15 -15 -5 -20 5 -8 17 9 10 23 9 23 -2z"/>
<path d="M166 3064 c-4 -15 -23 -51 -42 -81 -39 -61 -38 -79 2 -42 l27 24 -7
-92 c-6 -80 -5 -93 9 -93 12 0 15 16 17 88 0 48 1 101 2 117 1 17 9 43 19 58
10 15 15 32 12 37 -12 19 -33 10 -39 -16z"/>
<path d="M294 2914 c3 -9 6 -18 6 -20 0 -2 7 -4 15 -4 20 0 19 26 -1 34 -24 9
-27 8 -20 -10z"/>
<path d="M250 2905 c0 -8 7 -15 15 -15 8 0 15 7 15 15 0 8 -7 15 -15 15 -8 0
-15 -7 -15 -15z"/>
<path d="M276 2645 c5 -19 2 -25 -10 -25 -9 0 -16 -4 -16 -10 0 -5 7 -10 15
-10 8 0 15 -4 15 -9 0 -10 -34 -21 -67 -21 -13 0 -23 -5 -23 -11 0 -8 14 -10
45 -6 27 4 45 3 45 -3 0 -6 -9 -10 -20 -10 -11 0 -20 -4 -20 -10 0 -5 9 -10
21 -10 11 0 17 -4 14 -10 -3 -5 -16 -10 -27 -10 -22 0 -58 -35 -58 -57 0 -7 7
-13 15 -13 9 0 15 9 15 24 0 19 6 24 38 30 63 10 78 7 92 -19 15 -28 50 -34
50 -9 0 9 -9 18 -21 21 -16 4 -18 8 -7 14 21 14 -10 29 -47 23 -23 -4 -27 -3
-15 5 8 6 23 11 33 11 10 0 17 8 17 20 0 16 7 20 35 20 19 0 35 4 35 9 0 12
-27 22 -44 15 -9 -3 -13 1 -13 13 2 14 -5 18 -30 18 -28 0 -33 4 -33 22 0 16
-6 23 -20 23 -17 0 -19 -5 -14 -25z m64 -44 c0 -5 -7 -11 -15 -15 -15 -5 -20
5 -8 17 9 10 23 9 23 -2z"/>
<path d="M166 2614 c-4 -15 -23 -51 -42 -81 -39 -61 -38 -79 2 -42 l27 24 -7
-92 c-6 -80 -5 -93 9 -93 12 0 15 16 17 88 0 48 1 101 2 117 1 17 9 43 19 58
10 15 15 32 12 37 -12 19 -33 10 -39 -16z"/>
<path d="M294 2464 c3 -9 6 -18 6 -20 0 -2 7 -4 15 -4 20 0 19 26 -1 34 -24 9
-27 8 -20 -10z"/>
<path d="M250 2455 c0 -8 7 -15 15 -15 8 0 15 7 15 15 0 8 -7 15 -15 15 -8 0
-15 -7 -15 -15z"/>
<path d="M276 2195 c5 -19 2 -25 -10 -25 -9 0 -16 -4 -16 -10 0 -5 7 -10 15
-10 8 0 15 -4 15 -9 0 -10 -34 -21 -67 -21 -13 0 -23 -5 -23 -11 0 -8 14 -10
45 -6 27 4 45 3 45 -3 0 -6 -9 -10 -20 -10 -11 0 -20 -4 -20 -10 0 -5 9 -10
21 -10 11 0 17 -4 14 -10 -3 -5 -16 -10 -27 -10 -26 0 -61 -39 -54 -60 24 -72
32 -90 38 -90 12 0 10 68 -2 75 -5 3 -10 17 -10 29 0 19 7 25 38 30 63 10 78
7 92 -19 15 -28 50 -34 50 -9 0 9 -9 18 -21 21 -16 4 -18 8 -7 14 21 14 -10
29 -47 23 -23 -4 -27 -3 -15 5 8 6 23 11 33 11 10 0 17 8 17 20 0 16 7 20 35
20 19 0 35 4 35 9 0 12 -27 22 -44 15 -9 -3 -13 1 -13 13 2 14 -5 18 -30 18
-28 0 -33 4 -33 22 0 16 -6 23 -20 23 -17 0 -19 -5 -14 -25z m64 -44 c0 -5 -7
-11 -15 -15 -15 -5 -20 5 -8 17 9 10 23 9 23 -2z"/>
<path d="M166 2164 c-4 -15 -23 -51 -42 -81 -39 -61 -38 -79 2 -42 l27 24 -7
-92 c-6 -80 -5 -93 9 -93 12 0 15 16 17 88 0 48 1 101 2 117 1 17 9 43 19 58
10 15 15 32 12 37 -12 19 -33 10 -39 -16z"/>
<path d="M294 2014 c3 -9 6 -18 6 -20 0 -2 7 -4 15 -4 20 0 19 26 -1 34 -24 9
-27 8 -20 -10z"/>
<path d="M250 2005 c0 -8 7 -15 15 -15 8 0 15 7 15 15 0 8 -7 15 -15 15 -8 0
-15 -7 -15 -15z"/>
<path d="M276 1745 c5 -19 2 -25 -10 -25 -9 0 -16 -4 -16 -10 0 -5 7 -10 15
-10 8 0 15 -4 15 -9 0 -10 -34 -21 -67 -21 -13 0 -23 -5 -23 -11 0 -8 14 -10
45 -6 27 4 45 3 45 -3 0 -6 -9 -10 -20 -10 -11 0 -20 -4 -20 -10 0 -5 9 -10
21 -10 11 0 17 -4 14 -10 -3 -5 -16 -10 -27 -10 -26 0 -61 -39 -54 -60 34
-100 46 -116 46 -60 0 27 3 30 30 30 17 0 30 5 30 11 0 6 -15 9 -37 7 -35 -3
-38 -1 -41 24 -3 25 -1 27 53 33 48 6 58 5 70 -11 19 -25 19 -34 0 -34 -8 0
-15 6 -15 14 0 13 -29 31 -37 23 -6 -7 9 -37 19 -37 23 0 39 -31 33 -60 -4
-19 -3 -30 4 -30 15 0 44 59 37 76 -3 8 -1 14 4 14 19 0 10 32 -11 37 -16 4
-18 8 -7 14 21 14 -10 29 -47 23 -23 -4 -27 -3 -15 5 8 6 23 11 33 11 10 0 17
8 17 20 0 16 7 20 35 20 19 0 35 4 35 9 0 12 -27 22 -44 15 -9 -3 -13 1 -13
13 2 14 -5 18 -30 18 -28 0 -33 4 -33 22 0 16 -6 23 -20 23 -17 0 -19 -5 -14
-25z m64 -44 c0 -5 -7 -11 -15 -15 -15 -5 -20 5 -8 17 9 10 23 9 23 -2z"/>
<path d="M166 1714 c-4 -15 -23 -51 -42 -81 -39 -61 -38 -79 2 -42 l27 24 -7
-92 c-6 -80 -5 -93 9 -93 12 0 15 16 17 88 0 48 1 101 2 117 1 17 9 43 19 58
10 15 15 32 12 37 -12 19 -33 10 -39 -16z"/>
<path d="M250 1555 c0 -8 7 -15 15 -15 8 0 15 7 15 15 0 8 -7 15 -15 15 -8 0
-15 -7 -15 -15z"/>
<path d="M276 1295 c5 -19 2 -25 -10 -25 -9 0 -16 -4 -16 -10 0 -5 7 -10 15
-10 8 0 15 -4 15 -9 0 -10 -34 -21 -67 -21 -13 0 -23 -5 -23 -11 0 -8 14 -10
45 -6 27 4 45 3 45 -3 0 -6 -9 -10 -20 -10 -11 0 -20 -4 -20 -10 0 -5 9 -10
21 -10 11 0 17 -4 14 -10 -3 -5 -16 -10 -27 -10 -26 0 -61 -39 -54 -60 34
-100 46 -116 46 -59 0 17 4 28 10 24 6 -3 10 -17 10 -31 0 -13 5 -24 10 -24 6
0 10 14 10 30 0 17 5 30 10 30 6 0 10 5 10 11 0 6 -15 9 -37 7 -35 -3 -38 -1
-41 24 -3 25 -1 27 53 33 48 6 58 5 70 -11 19 -25 19 -34 0 -34 -8 0 -15 6
-15 14 0 13 -29 31 -37 23 -6 -7 9 -37 19 -37 23 0 39 -31 33 -60 -4 -19 -3
-30 4 -30 15 0 44 59 37 76 -3 8 -1 14 4 14 19 0 10 32 -11 37 -16 4 -18 8 -7
14 21 14 -10 29 -47 23 -23 -4 -27 -3 -15 5 8 6 23 11 33 11 10 0 17 8 17 20
0 16 7 20 35 20 19 0 35 4 35 9 0 12 -27 22 -44 15 -9 -3 -13 1 -13 13 2 14
-5 18 -30 18 -28 0 -33 4 -33 22 0 16 -6 23 -20 23 -17 0 -19 -5 -14 -25z m64
-44 c0 -5 -7 -11 -15 -15 -15 -5 -20 5 -8 17 9 10 23 9 23 -2z"/>
<path d="M166 1264 c-4 -15 -23 -51 -42 -81 -39 -61 -38 -79 2 -42 l27 24 -7
-92 c-6 -80 -5 -93 9 -93 12 0 15 16 17 88 0 48 1 101 2 117 1 17 9 43 19 58
10 15 15 32 12 37 -12 19 -33 10 -39 -16z"/>
<path d="M250 1105 c0 -8 7 -15 15 -15 8 0 15 7 15 15 0 8 -7 15 -15 15 -8 0
-15 -7 -15 -15z"/>
<path d="M276 845 c5 -19 2 -25 -10 -25 -9 0 -16 -4 -16 -10 0 -5 7 -10 15
-10 8 0 15 -4 15 -9 0 -10 -34 -21 -67 -21 -13 0 -23 -5 -23 -11 0 -8 14 -10
45 -6 27 4 45 3 45 -3 0 -6 -9 -10 -20 -10 -11 0 -20 -4 -20 -10 0 -5 9 -10
21 -10 11 0 17 -4 14 -10 -3 -5 -16 -10 -27 -10 -26 0 -61 -39 -54 -60 34
-100 46 -116 46 -59 0 17 4 28 10 24 6 -3 10 -17 10 -31 0 -13 5 -24 10 -24 6
0 10 14 10 30 0 17 5 30 10 30 6 0 10 -11 10 -25 0 -35 17 -31 25 5 9 43 29
38 21 -5 -4 -21 -3 -35 3 -35 15 0 43 59 37 76 -3 8 -1 14 4 14 19 0 10 32
-11 37 -16 4 -18 8 -7 14 21 14 -10 29 -47 23 -23 -4 -27 -3 -15 5 8 6 23 11
33 11 10 0 17 8 17 20 0 16 7 20 35 20 19 0 35 4 35 9 0 12 -27 22 -44 15 -9
-3 -13 1 -13 13 2 14 -5 18 -30 18 -28 0 -33 4 -33 22 0 16 -6 23 -20 23 -17
0 -19 -5 -14 -25z m64 -44 c0 -5 -7 -11 -15 -15 -15 -5 -20 5 -8 17 9 10 23 9
23 -2z m8 -132 c7 -12 11 -23 8 -26 -7 -7 -125 -20 -131 -15 -3 3 -5 16 -5 28
0 17 7 24 28 27 66 10 87 7 100 -14z"/>
<path d="M294 664 c3 -9 6 -18 6 -20 0 -2 7 -4 15 -4 20 0 19 26 -1 34 -24 9
-27 8 -20 -10z"/>
<path d="M250 655 c0 -8 7 -15 15 -15 8 0 15 7 15 15 0 8 -7 15 -15 15 -8 0
-15 -7 -15 -15z"/>
<path d="M166 814 c-4 -15 -23 -51 -42 -81 -39 -61 -38 -79 2 -42 l27 24 -7
-92 c-6 -80 -5 -93 9 -93 12 0 15 16 17 88 0 48 1 101 2 117 1 17 9 43 19 58
10 15 15 32 12 37 -12 19 -33 10 -39 -16z"/>
<path d="M276 395 c5 -19 2 -25 -10 -25 -9 0 -16 -4 -16 -10 0 -5 7 -10 15
-10 8 0 15 -4 15 -9 0 -10 -34 -21 -67 -21 -13 0 -23 -5 -23 -11 0 -8 14 -10
45 -6 27 4 45 3 45 -3 0 -6 -9 -10 -20 -10 -11 0 -20 -4 -20 -10 0 -5 9 -10
21 -10 11 0 17 -4 14 -10 -3 -5 -16 -10 -27 -10 -20 0 -58 -34 -58 -51 0 -5 8
-25 17 -45 17 -35 17 -36 -1 -50 -11 -8 -18 -15 -15 -17 2 -2 57 -1 122 1 82
3 117 8 114 16 -2 6 -16 12 -30 14 -24 3 -26 6 -16 23 6 12 8 27 5 35 -3 8 -1
14 4 14 19 0 10 32 -11 37 -16 4 -18 8 -7 14 21 14 -10 29 -47 23 -23 -4 -27
-3 -15 5 8 6 23 11 33 11 10 0 17 8 17 20 0 16 7 20 35 20 19 0 35 4 35 9 0
12 -27 22 -44 15 -9 -3 -13 1 -13 13 2 14 -5 18 -30 18 -28 0 -33 4 -33 22 0
16 -6 23 -20 23 -17 0 -19 -5 -14 -25z m64 -44 c0 -5 -7 -11 -15 -15 -15 -5
-20 5 -8 17 9 10 23 9 23 -2z m8 -132 c7 -12 11 -23 8 -26 -7 -7 -125 -20
-131 -15 -3 3 -5 16 -5 28 0 17 7 24 28 27 66 10 87 7 100 -14z m2 -66 c0 -22
-17 -49 -25 -41 -8 8 5 58 16 58 5 0 9 -8 9 -17z m-90 -24 c0 -10 -4 -19 -10
-19 -5 0 -10 12 -10 26 0 14 4 23 10 19 6 -3 10 -15 10 -26z m40 6 c0 -14 -4
-25 -10 -25 -5 0 -10 11 -10 25 0 14 5 25 10 25 6 0 10 -11 10 -25z"/>
<path d="M294 214 c3 -9 6 -18 6 -20 0 -2 7 -4 15 -4 20 0 19 26 -1 34 -24 9
-27 8 -20 -10z"/>
<path d="M250 205 c0 -8 7 -15 15 -15 8 0 15 7 15 15 0 8 -7 15 -15 15 -8 0
-15 -7 -15 -15z"/>
<path d="M166 364 c-4 -15 -23 -51 -42 -81 -39 -61 -38 -79 2 -42 l27 24 -7
-92 c-6 -80 -5 -93 9 -93 12 0 15 16 17 88 0 48 1 101 2 117 1 17 9 43 19 58
10 15 15 32 12 37 -12 19 -33 10 -39 -16z"/>
</g>
</svg>
