<?xml version="1.0" standalone="no"?>
<!DOCTYPE svg PUBLIC "-//W3C//DTD SVG 20010904//EN"
 "http://www.w3.org/TR/2001/REC-SVG-20010904/DTD/svg10.dtd">
<svg version="1.0" xmlns="http://www.w3.org/2000/svg"
 width="50.000000pt" height="725.000000pt" viewBox="0 0 50.000000 725.000000"
 preserveAspectRatio="xMidYMid meet">
<metadata>
Created by potrace 1.16, written by Peter Selinger 2001-2019
</metadata>
<g transform="translate(0.000000,725.000000) scale(0.100000,-0.100000)"
fill="#000000" stroke="none">
<path d="M220 7080 c0 -64 3 -80 15 -80 10 0 15 10 15 34 0 18 3 54 6 80 6 42
5 46 -15 46 -20 0 -21 -5 -21 -80z"/>
<path d="M220 6630 c0 -64 3 -80 15 -80 10 0 15 10 15 34 0 18 3 54 6 80 6 42
5 46 -15 46 -20 0 -21 -5 -21 -80z"/>
<path d="M150 6634 c0 -16 23 -44 35 -44 20 0 19 36 -1 44 -20 8 -34 8 -34 0z"/>
<path d="M220 6180 c0 -64 3 -80 15 -80 10 0 15 10 15 34 0 18 3 54 6 80 6 42
5 46 -15 46 -20 0 -21 -5 -21 -80z"/>
<path d="M297 6194 c-23 -31 -17 -39 20 -27 18 6 28 17 28 29 0 28 -27 27 -48
-2z"/>
<path d="M150 6184 c0 -16 23 -44 35 -44 20 0 19 36 -1 44 -20 8 -34 8 -34 0z"/>
<path d="M220 5736 l0 -74 -55 -7 c-95 -11 -64 -27 43 -20 124 8 162 14 162
25 0 12 -10 13 -74 10 l-49 -2 7 71 c7 67 6 71 -13 71 -19 0 -21 -6 -21 -74z"/>
<path d="M297 5744 c-23 -31 -17 -39 20 -27 18 6 28 17 28 29 0 28 -27 27 -48
-2z"/>
<path d="M150 5734 c0 -16 23 -44 35 -44 20 0 19 36 -1 44 -20 8 -34 8 -34 0z"/>
<path d="M220 5286 l0 -74 -55 -7 c-61 -7 -75 -25 -20 -25 19 0 35 -3 35 -6 0
-14 -26 -52 -58 -86 -41 -43 -37 -58 8 -31 31 18 90 96 90 119 0 8 24 13 69
16 39 2 73 7 78 11 14 15 -18 24 -69 19 l-51 -5 7 72 c7 67 6 71 -13 71 -19 0
-21 -6 -21 -74z"/>
<path d="M297 5294 c-23 -31 -17 -39 20 -27 18 6 28 17 28 29 0 28 -27 27 -48
-2z"/>
<path d="M150 5284 c0 -16 23 -44 35 -44 20 0 19 36 -1 44 -20 8 -34 8 -34 0z"/>
<path d="M220 4836 l0 -74 -55 -7 c-61 -7 -75 -25 -20 -25 19 0 35 -3 35 -6 0
-14 -26 -52 -58 -86 -41 -43 -37 -58 8 -31 32 18 90 96 90 120 0 7 5 13 10 13
6 0 10 -23 10 -51 0 -50 12 -87 34 -101 18 -13 111 -9 130 5 13 10 16 21 10
55 -7 48 -21 56 -26 15 -4 -34 -44 -59 -81 -50 -31 8 -41 35 -32 86 6 36 9 39
46 44 80 11 58 37 -23 29 l-51 -5 7 72 c7 67 6 71 -13 71 -19 0 -21 -6 -21
-74z"/>
<path d="M297 4844 c-23 -31 -17 -39 20 -27 18 6 28 17 28 29 0 28 -27 27 -48
-2z"/>
<path d="M150 4834 c0 -16 23 -44 35 -44 20 0 19 36 -1 44 -20 8 -34 8 -34 0z"/>
</g>
</svg>
