<?xml version="1.0" standalone="no"?>
<!DOCTYPE svg PUBLIC "-//W3C//DTD SVG 20010904//EN"
 "http://www.w3.org/TR/2001/REC-SVG-20010904/DTD/svg10.dtd">
<svg version="1.0" xmlns="http://www.w3.org/2000/svg"
 width="50.000000pt" height="725.000000pt" viewBox="0 0 50.000000 725.000000"
 preserveAspectRatio="xMidYMid meet">
<metadata>
Created by potrace 1.16, written by Peter Selinger 2001-2019
</metadata>
<g transform="translate(0.000000,725.000000) scale(0.100000,-0.100000)"
fill="#000000" stroke="none">
<path d="M187 7125 c-16 -20 -27 -39 -24 -41 8 -8 97 50 94 61 -8 24 -43 14
-70 -20z"/>
<path d="M192 6680 c-12 -16 -30 -30 -38 -30 -13 0 -15 -6 -9 -27 5 -16 11
-46 14 -67 3 -22 12 -41 19 -44 10 -3 11 10 6 61 l-6 64 41 24 c43 24 49 42
15 47 -12 2 -28 -8 -42 -28z"/>
<path d="M192 6230 c-12 -16 -30 -30 -38 -30 -13 0 -15 -6 -9 -27 5 -16 11
-46 14 -67 3 -22 12 -41 20 -44 11 -4 13 3 8 32 -5 31 -3 36 14 36 11 0 19 7
19 16 0 11 -6 14 -20 9 -15 -5 -20 -2 -20 14 0 13 14 28 40 42 42 24 47 42 14
47 -12 2 -28 -8 -42 -28z"/>
<path d="M192 5780 c-12 -16 -30 -30 -38 -30 -13 0 -15 -6 -9 -27 5 -16 11
-46 14 -67 3 -22 12 -41 20 -44 11 -4 13 3 8 32 -5 31 -3 36 14 36 11 0 19 7
19 16 0 11 -6 14 -20 9 -15 -5 -20 -2 -20 14 0 13 14 28 40 42 42 24 47 42 14
47 -12 2 -28 -8 -42 -28z"/>
<path d="M316 5742 c3 -16 -1 -45 -10 -67 -11 -26 -13 -42 -6 -49 14 -14 25 0
45 62 19 59 15 82 -14 82 -17 0 -20 -5 -15 -28z"/>
<path d="M260 5750 c0 -5 9 -10 20 -10 11 0 20 5 20 10 0 6 -9 10 -20 10 -11
0 -20 -4 -20 -10z"/>
<path d="M192 5330 c-12 -16 -30 -30 -38 -30 -13 0 -15 -6 -9 -27 5 -16 11
-46 14 -67 3 -22 12 -41 20 -44 11 -4 13 3 8 32 -5 31 -3 36 14 36 11 0 19 7
19 16 0 11 -6 14 -20 9 -15 -5 -20 -2 -20 14 0 13 14 28 40 42 42 24 47 42 14
47 -12 2 -28 -8 -42 -28z"/>
<path d="M317 5290 c5 -26 3 -30 -16 -30 -11 0 -21 -4 -21 -10 0 -5 7 -10 16
-10 11 0 14 -5 9 -17 -12 -30 -11 -48 4 -48 17 0 56 108 47 130 -3 8 -14 15
-25 15 -17 0 -20 -5 -14 -30z"/>
<path d="M260 5300 c0 -5 9 -10 20 -10 11 0 20 5 20 10 0 6 -9 10 -20 10 -11
0 -20 -4 -20 -10z"/>
<path d="M192 4880 c-12 -16 -30 -30 -38 -30 -13 0 -15 -6 -9 -27 5 -16 11
-46 14 -68 l6 -40 50 4 c28 2 63 5 79 5 27 1 31 6 49 59 21 64 18 87 -12 87
-17 0 -20 -5 -14 -30 5 -26 3 -30 -16 -30 -11 0 -21 -4 -21 -10 0 -5 7 -10 15
-10 16 0 19 -9 7 -26 -12 -18 -103 -28 -113 -12 -14 21 -11 28 11 28 11 0 20
7 20 16 0 11 -6 14 -20 9 -15 -5 -20 -2 -20 14 0 13 14 28 40 42 42 24 47 42
14 47 -12 2 -28 -8 -42 -28z"/>
<path d="M260 4850 c0 -5 9 -10 20 -10 11 0 20 5 20 10 0 6 -9 10 -20 10 -11
0 -20 -4 -20 -10z"/>
<path d="M192 4430 c-12 -16 -30 -30 -38 -30 -13 0 -15 -6 -9 -27 5 -16 11
-46 14 -68 5 -29 11 -40 23 -39 16 2 16 -1 3 -27 -12 -23 -41 -49 -94 -86 -2
-2 -2 -6 1 -9 20 -20 138 75 138 111 0 14 8 16 69 19 20 1 27 10 44 59 21 64
18 87 -12 87 -17 0 -20 -5 -14 -30 5 -26 3 -30 -16 -30 -11 0 -21 -4 -21 -10
0 -5 7 -10 15 -10 16 0 19 -9 7 -26 -12 -18 -103 -28 -113 -12 -14 21 -11 28
11 28 11 0 20 7 20 16 0 11 -6 14 -20 9 -15 -5 -20 -2 -20 14 0 13 14 28 40
42 42 24 47 42 14 47 -12 2 -28 -8 -42 -28z"/>
<path d="M260 4400 c0 -5 9 -10 20 -10 11 0 20 5 20 10 0 6 -9 10 -20 10 -11
0 -20 -4 -20 -10z"/>
<path d="M192 3980 c-12 -16 -30 -30 -38 -30 -13 0 -15 -6 -9 -27 5 -16 11
-46 14 -68 5 -29 11 -40 23 -39 16 2 16 -1 3 -27 -12 -23 -41 -49 -94 -86 -2
-2 -2 -6 1 -9 20 -20 138 75 138 111 0 8 5 15 10 15 6 0 10 -24 10 -53 0 -70
17 -87 91 -87 72 0 98 17 81 54 -14 32 -24 33 -37 4 -7 -17 -20 -24 -46 -26
-47 -4 -73 20 -63 57 4 14 7 33 8 42 0 8 9 15 20 15 14 -1 24 13 38 57 22 64
19 87 -11 87 -17 0 -20 -5 -14 -30 5 -26 3 -30 -16 -30 -11 0 -21 -4 -21 -10
0 -5 7 -10 15 -10 16 0 19 -9 7 -26 -12 -18 -103 -28 -113 -12 -14 21 -11 28
11 28 11 0 20 7 20 16 0 11 -6 14 -20 9 -15 -5 -20 -2 -20 14 0 13 14 28 40
42 42 24 47 42 14 47 -12 2 -28 -8 -42 -28z"/>
<path d="M260 3950 c0 -5 9 -10 20 -10 11 0 20 5 20 10 0 6 -9 10 -20 10 -11
0 -20 -4 -20 -10z"/>
</g>
</svg>
