<?xml version="1.0" standalone="no"?>
<!DOCTYPE svg PUBLIC "-//W3C//DTD SVG 20010904//EN"
 "http://www.w3.org/TR/2001/REC-SVG-20010904/DTD/svg10.dtd">
<svg version="1.0" xmlns="http://www.w3.org/2000/svg"
 width="50.000000pt" height="725.000000pt" viewBox="0 0 50.000000 725.000000"
 preserveAspectRatio="xMidYMid meet">
<metadata>
Created by potrace 1.16, written by Peter Selinger 2001-2019
</metadata>
<g transform="translate(0.000000,725.000000) scale(0.100000,-0.100000)"
fill="#000000" stroke="none">
<path d="M275 7155 c-5 -2 -36 -6 -67 -10 -91 -10 -73 -29 20 -21 92 8 122 15
122 27 0 9 -54 11 -75 4z"/>
<path d="M275 6705 c-5 -2 -36 -6 -67 -10 -91 -10 -73 -29 20 -21 92 8 122 15
122 27 0 9 -54 11 -75 4z"/>
<path d="M153 6548 c-1 -46 -3 -96 -5 -112 -4 -35 19 -47 26 -14 3 13 7 63 8
113 2 73 0 90 -12 92 -12 3 -15 -12 -17 -79z"/>
<path d="M275 6255 c-5 -2 -36 -6 -67 -10 -91 -10 -73 -29 20 -21 92 8 122 15
122 27 0 9 -54 11 -75 4z"/>
<path d="M303 6193 c-28 -5 -31 -23 -4 -23 25 0 34 -48 25 -135 -6 -58 -9 -65
-25 -60 -25 8 -24 -7 1 -30 38 -35 47 -16 52 117 4 113 0 142 -22 136 -3 0
-15 -3 -27 -5z"/>
<path d="M158 6118 c3 -32 -1 -79 -8 -104 -10 -35 -10 -48 -1 -57 19 -19 31
10 32 78 2 105 9 120 52 123 60 5 43 22 -21 20 l-58 -1 4 -59z"/>
<path d="M275 5805 c-5 -2 -36 -6 -67 -10 -91 -10 -73 -29 20 -21 92 8 122 15
122 27 0 9 -54 11 -75 4z"/>
<path d="M303 5743 c-28 -5 -30 -23 -3 -23 13 0 20 -7 20 -19 0 -15 -11 -19
-62 -25 -67 -7 -73 -5 -65 19 4 9 19 15 42 15 19 0 35 4 35 10 0 5 -25 9 -58
8 l-58 -1 4 -59 c3 -32 -1 -79 -8 -104 -10 -33 -10 -48 -2 -56 19 -19 27 -1
32 70 l5 67 68 9 c37 5 70 6 73 3 3 -2 2 -34 -2 -71 -6 -59 -9 -66 -25 -61
-25 8 -24 -7 1 -30 38 -35 47 -16 52 117 4 113 0 142 -22 136 -3 0 -15 -3 -27
-5z"/>
<path d="M275 5355 c-5 -2 -36 -6 -67 -10 -65 -7 -79 -25 -19 -25 27 0 41 -5
45 -16 9 -23 3 -27 -42 -27 l-38 0 4 -59 c3 -32 -1 -79 -8 -104 -10 -33 -10
-48 -2 -56 19 -19 27 -1 32 70 5 64 6 67 33 70 23 3 27 0 27 -22 0 -36 16 -33
24 4 5 26 10 30 37 30 l32 0 -7 -46 c-3 -26 -6 -58 -6 -71 0 -20 -4 -23 -20
-18 -26 8 -26 -7 0 -30 38 -34 50 -14 50 82 0 48 3 104 6 124 7 41 -5 50 -49
42 -31 -6 -36 -23 -7 -23 13 0 20 -7 20 -20 0 -15 -7 -20 -25 -20 -23 0 -25 3
-25 49 l0 48 40 7 c22 3 40 11 40 16 0 9 -53 13 -75 5z m-37 -112 c-4 -22 -48
-31 -48 -10 0 19 10 27 32 27 13 0 18 -6 16 -17z"/>
<path d="M275 4905 c-5 -2 -36 -6 -67 -10 -65 -7 -79 -25 -19 -25 27 0 41 -5
45 -16 9 -23 3 -27 -42 -27 l-38 0 4 -58 4 -59 -42 0 c-50 0 -51 -23 -1 -28
30 -3 31 -5 25 -37 -4 -21 -1 -35 6 -40 16 -10 30 13 30 51 0 27 4 32 31 38
17 3 49 6 70 6 39 0 39 0 39 -41 0 -36 -2 -40 -20 -34 -26 8 -26 -7 0 -30 33
-30 50 -13 50 50 l0 55 41 0 c53 0 48 24 -5 28 l-38 3 6 53 c8 59 1 68 -47 59
-31 -6 -36 -23 -7 -23 13 0 20 -7 20 -20 0 -15 -7 -20 -25 -20 -23 0 -25 3
-25 49 l0 48 40 7 c22 3 40 11 40 16 0 9 -53 13 -75 5z m-37 -112 c-4 -22 -48
-31 -48 -10 0 19 10 27 32 27 13 0 18 -6 16 -17z m92 -47 c0 -15 -21 -26 -51
-26 -21 0 -22 1 -13 24 8 20 64 22 64 2z m-90 -10 c0 -15 -48 -28 -56 -15 -9
15 6 29 32 29 14 0 24 -6 24 -14z"/>
</g>
</svg>
