<?xml version="1.0" standalone="no"?>
<!DOCTYPE svg PUBLIC "-//W3C//DTD SVG 20010904//EN"
 "http://www.w3.org/TR/2001/REC-SVG-20010904/DTD/svg10.dtd">
<svg version="1.0" xmlns="http://www.w3.org/2000/svg"
 width="50.000000pt" height="725.000000pt" viewBox="0 0 50.000000 725.000000"
 preserveAspectRatio="xMidYMid meet">
<metadata>
Created by potrace 1.16, written by Peter Selinger 2001-2019
</metadata>
<g transform="translate(0.000000,725.000000) scale(0.100000,-0.100000)"
fill="#000000" stroke="none">
<path d="M144 7129 c3 -17 6 -42 6 -55 0 -13 5 -24 10 -24 6 0 10 25 10 55 0
44 -3 55 -16 55 -13 0 -15 -7 -10 -31z"/>
<path d="M260 6710 c0 -5 10 -10 21 -10 20 0 21 -4 15 -45 -6 -35 -4 -45 7
-45 16 0 52 84 42 100 -8 13 -85 13 -85 0z"/>
<path d="M146 6658 c10 -81 20 -82 25 -3 3 41 1 50 -14 53 -16 3 -17 -2 -11
-50z"/>
<path d="M190 6700 c0 -5 14 -10 30 -10 17 0 30 5 30 10 0 6 -13 10 -30 10
-16 0 -30 -4 -30 -10z"/>
<path d="M260 6260 c0 -5 10 -10 21 -10 20 0 21 -4 15 -45 -6 -35 -4 -45 7
-45 16 0 52 84 42 100 -8 13 -85 13 -85 0z"/>
<path d="M146 6208 c10 -81 20 -82 25 -3 3 41 1 50 -14 53 -16 3 -17 -2 -11
-50z"/>
<path d="M190 6250 c0 -5 14 -10 30 -10 17 0 30 5 30 10 0 6 -13 10 -30 10
-16 0 -30 -4 -30 -10z"/>
<path d="M208 6223 c-31 -5 -38 -23 -9 -23 34 0 81 12 81 21 0 9 -22 10 -72 2z"/>
<path d="M260 5810 c0 -5 10 -10 21 -10 20 0 21 -4 15 -45 -6 -35 -4 -45 7
-45 16 0 52 84 42 100 -8 13 -85 13 -85 0z"/>
<path d="M146 5758 c10 -81 20 -82 25 -3 3 41 1 50 -14 53 -16 3 -17 -2 -11
-50z"/>
<path d="M190 5800 c0 -5 14 -10 30 -10 17 0 30 5 30 10 0 6 -13 10 -30 10
-16 0 -30 -4 -30 -10z"/>
<path d="M208 5773 c-31 -5 -38 -23 -9 -23 34 0 81 12 81 21 0 9 -22 10 -72 2z"/>
<path d="M218 5743 c-16 -2 -28 -9 -28 -14 0 -15 73 -6 78 9 4 12 0 12 -50 5z"/>
<path d="M260 5360 c0 -5 10 -10 21 -10 20 0 21 -4 15 -45 -6 -35 -4 -45 7
-45 16 0 52 84 42 100 -8 13 -85 13 -85 0z"/>
<path d="M146 5308 c10 -81 20 -82 25 -3 3 41 1 50 -14 53 -16 3 -17 -2 -11
-50z"/>
<path d="M190 5350 c0 -5 14 -10 30 -10 17 0 30 5 30 10 0 6 -13 10 -30 10
-16 0 -30 -4 -30 -10z"/>
<path d="M208 5323 c-31 -5 -38 -23 -9 -23 34 0 81 12 81 21 0 9 -22 10 -72 2z"/>
<path d="M218 5293 c-16 -2 -28 -9 -28 -14 0 -15 73 -6 78 9 4 12 0 12 -50 5z"/>
<path d="M187 5232 c-28 -29 -33 -42 -18 -42 13 0 71 50 71 61 0 18 -27 8 -53
-19z"/>
<path d="M260 4910 c0 -5 10 -10 21 -10 20 0 21 -4 15 -45 -6 -35 -4 -45 7
-45 16 0 52 84 42 100 -8 13 -85 13 -85 0z"/>
<path d="M146 4858 c10 -81 20 -82 25 -3 3 41 1 50 -14 53 -16 3 -17 -2 -11
-50z"/>
<path d="M190 4900 c0 -5 14 -10 30 -10 17 0 30 5 30 10 0 6 -13 10 -30 10
-16 0 -30 -4 -30 -10z"/>
<path d="M208 4873 c-31 -5 -38 -23 -9 -23 34 0 81 12 81 21 0 9 -22 10 -72 2z"/>
<path d="M218 4843 c-16 -2 -28 -9 -28 -14 0 -15 73 -6 78 9 4 12 0 12 -50 5z"/>
<path d="M185 4780 c-33 -34 -27 -50 9 -26 14 9 33 16 42 16 14 0 14 -3 4 -15
-21 -26 -3 -28 29 -4 41 30 41 54 1 46 -17 -4 -30 -2 -30 3 0 19 -27 10 -55
-20z"/>
<path d="M260 4460 c0 -5 10 -10 21 -10 20 0 21 -4 15 -45 -6 -35 -4 -45 7
-45 16 0 52 84 42 100 -8 13 -85 13 -85 0z"/>
<path d="M146 4408 c10 -81 20 -82 25 -3 3 41 1 50 -14 53 -16 3 -17 -2 -11
-50z"/>
<path d="M190 4450 c0 -5 14 -10 30 -10 17 0 30 5 30 10 0 6 -13 10 -30 10
-16 0 -30 -4 -30 -10z"/>
<path d="M208 4423 c-31 -5 -38 -23 -9 -23 34 0 81 12 81 21 0 9 -22 10 -72 2z"/>
<path d="M218 4393 c-16 -2 -28 -9 -28 -14 0 -15 73 -6 78 9 4 12 0 12 -50 5z"/>
<path d="M185 4330 c-33 -34 -27 -50 9 -26 14 9 33 16 42 16 14 0 14 -3 4 -15
-21 -26 -3 -28 29 -4 41 30 41 54 1 46 -17 -4 -30 -2 -30 3 0 19 -27 10 -55
-20z"/>
<path d="M135 4273 c4 -10 10 -28 12 -40 8 -35 23 -27 23 11 0 22 -6 36 -16
40 -24 9 -27 7 -19 -11z"/>
<path d="M260 4010 c0 -5 10 -10 21 -10 20 0 21 -4 15 -45 -6 -35 -4 -45 7
-45 16 0 52 84 42 100 -8 13 -85 13 -85 0z"/>
<path d="M146 3958 c10 -81 20 -82 25 -3 3 41 1 50 -14 53 -16 3 -17 -2 -11
-50z"/>
<path d="M190 4000 c0 -5 14 -10 30 -10 17 0 30 5 30 10 0 6 -13 10 -30 10
-16 0 -30 -4 -30 -10z"/>
<path d="M208 3973 c-31 -5 -38 -23 -9 -23 34 0 81 12 81 21 0 9 -22 10 -72 2z"/>
<path d="M218 3943 c-16 -2 -28 -9 -28 -14 0 -15 73 -6 78 9 4 12 0 12 -50 5z"/>
<path d="M186 3881 c-16 -17 -25 -34 -21 -41 5 -9 1 -10 -15 -5 -20 6 -22 5
-15 -11 4 -11 10 -29 12 -41 8 -33 23 -28 23 7 0 23 5 30 19 30 10 0 39 3 65
6 47 7 47 7 40 -20 -7 -30 6 -34 29 -8 29 32 22 52 -20 52 -31 1 -35 3 -20 11
9 5 17 17 17 26 0 12 -7 14 -30 10 -17 -4 -30 -2 -30 3 0 19 -27 10 -54 -19z
m54 -26 c-7 -8 -24 -15 -38 -15 -25 0 -25 1 -6 15 10 8 27 15 38 15 15 0 16
-3 6 -15z"/>
<path d="M260 3560 c0 -5 10 -10 21 -10 20 0 21 -4 15 -45 -6 -35 -4 -45 7
-45 16 0 52 84 42 100 -8 13 -85 13 -85 0z"/>
<path d="M146 3508 c10 -81 20 -82 25 -3 3 41 1 50 -14 53 -16 3 -17 -2 -11
-50z"/>
<path d="M190 3550 c0 -5 14 -10 30 -10 17 0 30 5 30 10 0 6 -13 10 -30 10
-16 0 -30 -4 -30 -10z"/>
<path d="M208 3523 c-31 -5 -38 -23 -9 -23 34 0 81 12 81 21 0 9 -22 10 -72 2z"/>
<path d="M218 3493 c-16 -2 -28 -9 -28 -14 0 -15 73 -6 78 9 4 12 0 12 -50 5z"/>
<path d="M186 3431 c-16 -17 -25 -34 -21 -41 5 -9 1 -10 -15 -5 -20 6 -22 5
-15 -11 4 -11 10 -29 12 -41 4 -17 11 -21 37 -18 17 2 53 7 80 10 50 5 75 24
76 58 0 13 -8 17 -37 17 -31 1 -35 3 -20 11 9 5 17 17 17 26 0 12 -7 14 -30
10 -17 -4 -30 -2 -30 3 0 19 -27 10 -54 -19z m54 -26 c-7 -8 -24 -15 -38 -15
-25 0 -25 1 -6 15 10 8 27 15 38 15 15 0 16 -3 6 -15z m60 -35 c0 -15 -45 -30
-91 -30 -53 0 -54 27 -1 33 73 7 92 7 92 -3z"/>
<path d="M260 3110 c0 -5 10 -10 21 -10 20 0 21 -4 15 -45 -6 -35 -4 -45 7
-45 16 0 52 84 42 100 -8 13 -85 13 -85 0z"/>
<path d="M146 3058 c10 -81 20 -82 25 -3 3 41 1 50 -14 53 -16 3 -17 -2 -11
-50z"/>
<path d="M190 3100 c0 -5 14 -10 30 -10 17 0 30 5 30 10 0 6 -13 10 -30 10
-16 0 -30 -4 -30 -10z"/>
<path d="M208 3073 c-31 -5 -38 -23 -9 -23 34 0 81 12 81 21 0 9 -22 10 -72 2z"/>
<path d="M218 3043 c-16 -2 -28 -9 -28 -14 0 -15 73 -6 78 9 4 12 0 12 -50 5z"/>
<path d="M186 2981 c-16 -17 -25 -34 -21 -41 5 -9 1 -10 -15 -5 -20 6 -22 5
-15 -11 4 -11 10 -29 12 -41 4 -19 10 -22 31 -16 l26 6 -21 -29 c-12 -16 -33
-36 -47 -44 -24 -12 -35 -30 -20 -30 20 0 88 49 100 71 10 20 24 28 55 33 44
7 68 28 69 59 0 13 -8 17 -37 17 -31 1 -35 3 -20 11 9 5 17 17 17 26 0 12 -7
14 -30 10 -17 -4 -30 -2 -30 3 0 19 -27 10 -54 -19z m54 -26 c-7 -8 -24 -15
-38 -15 -25 0 -25 1 -6 15 10 8 27 15 38 15 15 0 16 -3 6 -15z m60 -35 c0 -6
-12 -15 -26 -20 -34 -13 -34 -13 -34 10 0 16 7 20 30 20 17 0 30 -5 30 -10z
m-100 -15 c0 -8 -7 -15 -15 -15 -8 0 -15 7 -15 15 0 8 7 15 15 15 8 0 15 -7
15 -15z"/>
<path d="M260 2660 c0 -5 10 -10 21 -10 20 0 21 -4 15 -45 -6 -35 -4 -45 7
-45 16 0 52 84 42 100 -8 13 -85 13 -85 0z"/>
<path d="M146 2608 c10 -81 20 -82 25 -3 3 41 1 50 -14 53 -16 3 -17 -2 -11
-50z"/>
<path d="M190 2650 c0 -5 14 -10 30 -10 17 0 30 5 30 10 0 6 -13 10 -30 10
-16 0 -30 -4 -30 -10z"/>
<path d="M208 2623 c-31 -5 -38 -23 -9 -23 34 0 81 12 81 21 0 9 -22 10 -72 2z"/>
<path d="M218 2593 c-16 -2 -28 -9 -28 -14 0 -15 73 -6 78 9 4 12 0 12 -50 5z"/>
<path d="M186 2531 c-16 -17 -25 -34 -21 -41 5 -9 1 -10 -15 -5 -20 6 -22 5
-15 -11 4 -11 10 -29 12 -41 4 -19 10 -22 31 -16 l26 6 -21 -29 c-12 -16 -33
-36 -47 -44 -24 -12 -35 -30 -20 -30 21 0 89 50 102 75 l16 30 8 -44 c4 -25
12 -49 18 -55 6 -6 38 -10 71 -10 65 1 95 18 83 47 -8 22 -20 21 -44 -3 -21
-21 -65 -26 -88 -11 -21 13 -11 75 13 80 23 4 44 29 45 54 0 13 -8 17 -37 17
-31 1 -35 3 -20 11 9 5 17 17 17 26 0 12 -7 14 -30 10 -17 -4 -30 -2 -30 3 0
19 -27 10 -54 -19z m54 -26 c-7 -8 -24 -15 -38 -15 -25 0 -25 1 -6 15 10 8 27
15 38 15 15 0 16 -3 6 -15z m60 -35 c0 -6 -12 -15 -26 -20 -34 -13 -34 -13
-34 10 0 16 7 20 30 20 17 0 30 -5 30 -10z m-100 -15 c0 -8 -7 -15 -15 -15 -8
0 -15 7 -15 15 0 8 7 15 15 15 8 0 15 -7 15 -15z"/>
</g>
</svg>
