<?xml version="1.0" standalone="no"?>
<!DOCTYPE svg PUBLIC "-//W3C//DTD SVG 20010904//EN"
 "http://www.w3.org/TR/2001/REC-SVG-20010904/DTD/svg10.dtd">
<svg version="1.0" xmlns="http://www.w3.org/2000/svg"
 width="50.000000pt" height="725.000000pt" viewBox="0 0 50.000000 725.000000"
 preserveAspectRatio="xMidYMid meet">
<metadata>
Created by potrace 1.16, written by Peter Selinger 2001-2019
</metadata>
<g transform="translate(0.000000,725.000000) scale(0.100000,-0.100000)"
fill="#000000" stroke="none">
<path d="M120 7124 c-13 -32 -13 -54 0 -54 13 0 30 34 30 59 0 29 -19 26 -30
-5z"/>
<path d="M300 6700 c0 -5 10 -10 22 -10 17 0 19 -3 10 -12 -20 -20 -14 -29 16
-22 38 9 47 20 32 39 -14 17 -80 21 -80 5z"/>
<path d="M120 6675 c-20 -53 -1 -80 22 -30 6 14 19 25 30 25 10 0 18 5 18 10
0 6 -6 10 -14 10 -8 0 -21 3 -30 6 -11 4 -19 -2 -26 -21z"/>
<path d="M210 6690 c0 -5 16 -10 35 -10 19 0 35 5 35 10 0 6 -16 10 -35 10
-19 0 -35 -4 -35 -10z"/>
<path d="M300 6250 c0 -5 10 -10 22 -10 17 0 19 -3 10 -12 -20 -20 -14 -29 16
-22 38 9 47 20 32 39 -14 17 -80 21 -80 5z"/>
<path d="M120 6225 c-20 -53 -1 -80 22 -30 6 14 19 25 30 25 10 0 18 5 18 10
0 6 -6 10 -14 10 -8 0 -21 3 -30 6 -11 4 -19 -2 -26 -21z"/>
<path d="M210 6240 c0 -5 16 -10 35 -10 19 0 35 5 35 10 0 6 -16 10 -35 10
-19 0 -35 -4 -35 -10z"/>
<path d="M208 6193 c-53 -6 -48 -23 6 -23 49 0 76 7 76 21 0 9 -11 9 -82 2z"/>
<path d="M300 5800 c0 -5 10 -10 22 -10 17 0 19 -3 10 -12 -20 -20 -14 -29 16
-22 38 9 47 20 32 39 -14 17 -80 21 -80 5z"/>
<path d="M120 5775 c-20 -53 -1 -80 22 -30 6 14 19 25 30 25 10 0 18 5 18 10
0 6 -6 10 -14 10 -8 0 -21 3 -30 6 -11 4 -19 -2 -26 -21z"/>
<path d="M210 5790 c0 -5 16 -10 35 -10 19 0 35 5 35 10 0 6 -16 10 -35 10
-19 0 -35 -4 -35 -10z"/>
<path d="M208 5743 c-39 -4 -51 -19 -20 -25 13 -3 8 -10 -20 -28 -42 -28 -50
-45 -15 -35 31 10 87 45 87 55 0 4 11 11 25 14 14 4 25 11 25 16 0 10 -10 10
-82 3z"/>
<path d="M300 5350 c0 -5 10 -10 22 -10 17 0 19 -3 10 -12 -20 -20 -14 -29 16
-22 38 9 47 20 32 39 -14 17 -80 21 -80 5z"/>
<path d="M120 5325 c-20 -53 -1 -80 22 -30 6 14 19 25 30 25 10 0 18 5 18 10
0 6 -6 10 -14 10 -8 0 -21 3 -30 6 -11 4 -19 -2 -26 -21z"/>
<path d="M210 5340 c0 -5 16 -10 35 -10 19 0 35 5 35 10 0 6 -16 10 -35 10
-19 0 -35 -4 -35 -10z"/>
<path d="M208 5293 c-38 -4 -54 -23 -20 -23 14 -1 13 -4 -7 -21 -13 -11 -31
-24 -40 -29 -26 -14 -6 -22 25 -10 25 10 31 8 46 -10 29 -35 22 -130 -8 -130
-17 0 -18 -12 -2 -28 31 -31 58 9 58 88 0 37 -6 56 -23 76 -23 26 -23 28 -6
45 9 9 26 20 38 24 12 3 21 11 21 16 0 9 -11 9 -82 2z"/>
<path d="M300 4900 c0 -5 10 -10 22 -10 17 0 19 -3 10 -12 -20 -20 -14 -29 16
-22 38 9 47 20 32 39 -14 17 -80 21 -80 5z"/>
<path d="M120 4875 c-20 -53 -1 -80 22 -30 6 14 19 25 30 25 10 0 18 5 18 10
0 6 -6 10 -14 10 -8 0 -21 3 -30 6 -11 4 -19 -2 -26 -21z"/>
<path d="M210 4890 c0 -5 16 -10 35 -10 19 0 35 5 35 10 0 6 -16 10 -35 10
-19 0 -35 -4 -35 -10z"/>
<path d="M208 4843 c-39 -4 -51 -19 -20 -25 13 -3 8 -10 -20 -28 -42 -28 -50
-45 -15 -34 12 4 29 9 37 11 8 3 -2 -11 -22 -30 -57 -52 -48 -65 15 -23 19 13
38 22 41 18 8 -7 8 -76 0 -96 -3 -9 -12 -16 -20 -16 -17 0 -18 -12 -2 -28 31
-31 58 9 58 88 0 37 -6 56 -23 76 -23 26 -23 28 -6 45 9 9 26 20 38 24 12 3
21 11 21 16 0 9 -11 9 -82 2z"/>
<path d="M300 4450 c0 -5 10 -10 22 -10 17 0 19 -3 10 -12 -20 -20 -14 -29 16
-22 38 9 47 20 32 39 -14 17 -80 21 -80 5z"/>
<path d="M120 4425 c-20 -53 -1 -80 22 -30 6 14 19 25 30 25 10 0 18 5 18 10
0 6 -6 10 -14 10 -8 0 -21 3 -30 6 -11 4 -19 -2 -26 -21z"/>
<path d="M210 4440 c0 -5 16 -10 35 -10 19 0 35 5 35 10 0 6 -16 10 -35 10
-19 0 -35 -4 -35 -10z"/>
<path d="M208 4393 c-39 -4 -51 -19 -20 -25 13 -3 8 -10 -20 -28 -42 -28 -50
-45 -15 -34 12 4 29 9 37 11 8 3 -2 -11 -22 -30 -58 -52 -48 -65 16 -22 20 13
36 20 36 16 0 -13 -56 -58 -80 -66 -22 -7 -27 -25 -7 -25 6 0 31 11 55 25 39
22 42 22 42 5 0 -29 -11 -50 -26 -50 -17 0 -18 -12 -2 -28 31 -31 58 9 58 88
0 37 -6 56 -23 76 -23 26 -23 28 -6 45 9 9 26 20 38 24 12 3 21 11 21 16 0 9
-11 9 -82 2z"/>
<path d="M300 4000 c0 -5 10 -10 22 -10 17 0 19 -3 10 -12 -20 -20 -14 -29 16
-22 38 9 47 20 32 39 -14 17 -80 21 -80 5z"/>
<path d="M120 3975 c-20 -53 -1 -80 22 -30 6 14 19 25 30 25 10 0 18 5 18 10
0 6 -6 10 -14 10 -8 0 -21 3 -30 6 -11 4 -19 -2 -26 -21z"/>
<path d="M210 3990 c0 -5 16 -10 35 -10 19 0 35 5 35 10 0 6 -16 10 -35 10
-19 0 -35 -4 -35 -10z"/>
<path d="M208 3943 c-39 -4 -51 -19 -20 -25 13 -3 8 -10 -20 -28 -58 -39 -49
-47 22 -22 11 4 10 -1 -4 -16 -11 -12 -25 -22 -31 -22 -7 0 -16 -7 -19 -16 -9
-23 -8 -27 9 -20 9 3 15 0 15 -9 0 -7 -9 -17 -20 -20 -11 -3 -20 -11 -20 -17
0 -6 9 -8 23 -3 12 4 32 6 43 6 14 0 24 7 29 22 4 14 8 17 12 9 8 -21 -6 -62
-22 -62 -18 0 -19 -12 -3 -28 31 -31 58 9 58 88 0 37 -6 56 -23 76 -23 26 -23
28 -6 45 9 9 26 20 38 24 12 3 21 11 21 16 0 9 -11 9 -82 2z m2 -128 c-7 -9
-15 -13 -18 -10 -3 2 1 11 8 20 7 9 15 13 18 10 3 -2 -1 -11 -8 -20z"/>
<path d="M300 3550 c0 -5 10 -10 22 -10 17 0 19 -3 10 -12 -20 -20 -14 -29 16
-22 38 9 47 20 32 39 -14 17 -80 21 -80 5z"/>
<path d="M120 3525 c-20 -53 -1 -80 22 -30 6 14 19 25 30 25 10 0 18 5 18 10
0 6 -6 10 -14 10 -8 0 -21 3 -30 6 -11 4 -19 -2 -26 -21z"/>
<path d="M210 3540 c0 -5 16 -10 35 -10 19 0 35 5 35 10 0 6 -16 10 -35 10
-19 0 -35 -4 -35 -10z"/>
<path d="M208 3493 c-39 -4 -51 -19 -20 -25 13 -3 8 -10 -20 -28 -58 -39 -49
-47 22 -22 11 4 10 -1 -4 -16 -11 -12 -25 -22 -31 -22 -7 0 -16 -7 -19 -16 -9
-23 -8 -27 9 -20 9 3 15 0 15 -9 0 -7 -9 -17 -20 -20 -11 -3 -20 -11 -20 -17
0 -6 9 -8 23 -3 12 4 32 6 43 6 14 0 24 7 29 22 4 14 8 17 12 9 8 -21 -6 -62
-22 -62 -18 0 -19 -12 -3 -28 31 -31 58 9 58 88 0 37 -6 56 -23 76 -23 26 -23
28 -6 45 9 9 26 20 38 24 12 3 21 11 21 16 0 9 -11 9 -82 2z m2 -128 c-7 -9
-15 -13 -18 -10 -3 2 1 11 8 20 7 9 15 13 18 10 3 -2 -1 -11 -8 -20z"/>
<path d="M280 3425 c-7 -14 -11 -28 -8 -31 11 -11 49 17 46 33 -5 26 -23 25
-38 -2z"/>
<path d="M300 3100 c0 -5 10 -10 22 -10 17 0 19 -3 10 -12 -20 -20 -14 -29 16
-22 38 9 47 20 32 39 -14 17 -80 21 -80 5z"/>
<path d="M120 3075 c-20 -53 -1 -80 22 -30 6 14 19 25 30 25 10 0 18 5 18 10
0 6 -6 10 -14 10 -8 0 -21 3 -30 6 -11 4 -19 -2 -26 -21z"/>
<path d="M210 3090 c0 -5 16 -10 35 -10 19 0 35 5 35 10 0 6 -16 10 -35 10
-19 0 -35 -4 -35 -10z"/>
<path d="M208 3043 c-39 -4 -51 -19 -20 -25 13 -3 8 -10 -20 -28 -58 -39 -49
-47 22 -22 11 4 10 -1 -4 -16 -11 -12 -25 -22 -31 -22 -7 0 -16 -7 -19 -16 -9
-23 -8 -27 9 -20 9 3 15 0 15 -9 0 -7 -9 -17 -20 -20 -11 -3 -20 -11 -20 -17
0 -6 9 -8 23 -3 12 4 32 6 43 6 14 0 24 7 29 22 4 14 8 17 12 9 8 -21 -6 -62
-22 -62 -18 0 -19 -12 -3 -28 30 -30 58 9 58 81 l0 41 44 -43 c39 -38 48 -42
75 -36 40 9 39 18 -3 33 -19 7 -50 25 -70 41 l-35 28 25 12 c15 7 24 18 22 28
-5 26 -23 26 -38 -2 -16 -29 -27 -31 -51 -9 -17 15 -16 17 1 34 10 10 27 21
39 25 12 3 21 11 21 16 0 9 -11 9 -82 2z m2 -128 c-7 -9 -15 -13 -18 -10 -3 2
1 11 8 20 7 9 15 13 18 10 3 -2 -1 -11 -8 -20z"/>
</g>
</svg>
