<?xml version="1.0" standalone="no"?>
<!DOCTYPE svg PUBLIC "-//W3C//DTD SVG 20010904//EN"
 "http://www.w3.org/TR/2001/REC-SVG-20010904/DTD/svg10.dtd">
<svg version="1.0" xmlns="http://www.w3.org/2000/svg"
 width="50.000000pt" height="725.000000pt" viewBox="0 0 50.000000 725.000000"
 preserveAspectRatio="xMidYMid meet">
<metadata>
Created by potrace 1.16, written by Peter Selinger 2001-2019
</metadata>
<g transform="translate(0.000000,725.000000) scale(0.100000,-0.100000)"
fill="#000000" stroke="none">
<path d="M120 7087 c0 -16 32 -47 48 -47 24 0 12 40 -14 50 -33 13 -34 13 -34
-3z"/>
<path d="M120 6637 c0 -16 32 -47 48 -47 24 0 12 40 -14 50 -33 13 -34 13 -34
-3z"/>
<path d="M143 6500 c-34 -51 -43 -90 -20 -90 10 0 26 32 64 128 12 30 -15 7
-44 -38z"/>
<path d="M276 6215 c-10 -24 -31 -59 -47 -76 -52 -56 -35 -67 66 -43 41 10 75
21 75 26 0 10 -15 10 -69 -3 -24 -5 -46 -7 -49 -5 -3 3 14 31 37 61 34 45 40
59 31 71 -19 22 -26 17 -44 -31z"/>
<path d="M120 6187 c0 -16 32 -47 48 -47 24 0 12 40 -14 50 -33 13 -34 13 -34
-3z"/>
<path d="M143 6050 c-34 -51 -43 -90 -20 -90 10 0 26 32 64 128 12 30 -15 7
-44 -38z"/>
<path d="M276 5765 c-10 -24 -31 -59 -47 -76 -52 -55 -34 -67 64 -43 51 12 72
14 75 6 7 -23 32 -12 32 13 0 17 -9 29 -30 40 -38 20 -40 19 -37 -7 2 -18 -5
-23 -37 -30 -21 -5 -41 -6 -44 -3 -3 2 14 30 37 60 34 45 40 59 31 71 -19 22
-26 17 -44 -31z"/>
<path d="M120 5737 c0 -16 32 -47 48 -47 24 0 12 40 -14 50 -33 13 -34 13 -34
-3z"/>
<path d="M143 5600 c-34 -51 -43 -90 -20 -90 10 0 26 32 64 128 12 30 -15 7
-44 -38z"/>
<path d="M276 5315 c-10 -24 -31 -59 -47 -76 -52 -55 -34 -67 64 -43 51 12 72
14 75 6 7 -23 32 -12 32 13 0 17 -9 29 -30 40 -38 20 -40 19 -37 -7 2 -18 -5
-23 -37 -30 -21 -5 -41 -6 -44 -3 -3 2 14 30 37 60 34 45 40 59 31 71 -19 22
-26 17 -44 -31z"/>
<path d="M120 5287 c0 -16 32 -47 48 -47 24 0 12 40 -14 50 -33 13 -34 13 -34
-3z"/>
<path d="M143 5150 c-34 -51 -43 -90 -20 -90 10 0 26 32 64 128 12 30 -15 7
-44 -38z"/>
<path d="M224 5133 c3 -16 8 -45 12 -65 3 -21 10 -38 15 -38 12 0 11 72 -1
104 -13 35 -33 34 -26 -1z"/>
<path d="M276 4865 c-10 -24 -31 -59 -47 -76 -52 -55 -34 -67 64 -43 51 12 72
14 75 6 7 -23 32 -12 32 13 0 17 -9 29 -30 40 -38 20 -40 19 -37 -7 2 -18 -5
-23 -37 -30 -21 -5 -41 -6 -44 -3 -3 2 14 30 37 60 34 45 40 59 31 71 -19 22
-26 17 -44 -31z"/>
<path d="M120 4837 c0 -16 32 -47 48 -47 24 0 12 40 -14 50 -33 13 -34 13 -34
-3z"/>
<path d="M143 4700 c-34 -51 -43 -90 -20 -90 10 0 26 32 64 128 12 30 -15 7
-44 -38z"/>
<path d="M318 4713 c-38 -6 -35 -23 3 -23 30 0 31 -1 24 -40 -10 -58 18 -55
35 4 18 64 11 70 -62 59z"/>
<path d="M224 4684 c3 -16 8 -46 12 -66 9 -56 27 -47 22 12 -2 35 1 50 10 50
6 0 12 5 12 10 0 6 -6 10 -14 10 -8 0 -22 3 -31 7 -15 5 -16 1 -11 -23z"/>
<path d="M276 4415 c-10 -24 -31 -59 -47 -76 -52 -55 -34 -67 64 -43 51 12 72
14 75 6 7 -23 32 -12 32 13 0 17 -9 29 -30 40 -38 20 -40 19 -37 -7 2 -18 -5
-23 -37 -30 -21 -5 -41 -6 -44 -3 -3 2 14 30 37 60 34 45 40 59 31 71 -19 22
-26 17 -44 -31z"/>
<path d="M120 4387 c0 -16 32 -47 48 -47 24 0 12 40 -14 50 -33 13 -34 13 -34
-3z"/>
<path d="M143 4250 c-34 -51 -43 -90 -20 -90 10 0 26 32 64 128 12 30 -15 7
-44 -38z"/>
<path d="M318 4263 c-37 -6 -36 -23 2 -23 31 0 34 -7 24 -47 -5 -19 -13 -23
-44 -23 -34 0 -38 3 -42 30 -3 20 0 30 9 30 24 0 13 18 -14 23 -16 3 -29 4
-30 3 -2 -1 2 -30 8 -64 11 -59 20 -74 34 -52 3 6 30 10 59 10 50 0 53 1 54
28 1 15 3 41 5 57 2 32 -9 37 -65 28z"/>
</g>
</svg>
