<?xml version="1.0" standalone="no"?>
<!DOCTYPE svg PUBLIC "-//W3C//DTD SVG 20010904//EN"
 "http://www.w3.org/TR/2001/REC-SVG-20010904/DTD/svg10.dtd">
<svg version="1.0" xmlns="http://www.w3.org/2000/svg"
 width="50.000000pt" height="725.000000pt" viewBox="0 0 50.000000 725.000000"
 preserveAspectRatio="xMidYMid meet">
<metadata>
Created by potrace 1.16, written by Peter Selinger 2001-2019
</metadata>
<g transform="translate(0.000000,725.000000) scale(0.100000,-0.100000)"
fill="#000000" stroke="none">
<path d="M165 7052 c0 -60 -4 -75 -33 -122 -18 -29 -30 -55 -27 -58 8 -9 46
30 65 68 24 47 42 162 26 172 -25 17 -31 5 -31 -60z"/>
<path d="M241 6669 c-14 -5 -36 -7 -50 -4 -26 5 -26 5 -26 -63 0 -60 -4 -75
-33 -122 -35 -56 -35 -75 -1 -44 33 29 58 87 65 148 4 31 12 56 18 56 6 0 21
3 33 6 21 6 22 5 20 -101 -2 -124 5 -135 83 -135 66 0 82 15 67 63 -7 20 -14
37 -17 37 -3 0 -10 -15 -15 -32 -8 -26 -16 -34 -38 -36 -49 -6 -60 13 -54 94
3 40 11 82 17 94 23 44 -10 63 -69 39z"/>
</g>
</svg>
