<?xml version="1.0" standalone="no"?>
<!DOCTYPE svg PUBLIC "-//W3C//DTD SVG 20010904//EN"
 "http://www.w3.org/TR/2001/REC-SVG-20010904/DTD/svg10.dtd">
<svg version="1.0" xmlns="http://www.w3.org/2000/svg"
 width="50.000000pt" height="725.000000pt" viewBox="0 0 50.000000 725.000000"
 preserveAspectRatio="xMidYMid meet">
<metadata>
Created by potrace 1.16, written by Peter Selinger 2001-2019
</metadata>
<g transform="translate(0.000000,725.000000) scale(0.100000,-0.100000)"
fill="#000000" stroke="none">
<path d="M180 7108 c0 -50 13 -128 21 -128 5 0 9 34 9 75 0 60 -3 75 -15 75
-9 0 -15 -9 -15 -22z"/>
<path d="M184 6615 l7 -65 -31 -6 c-43 -9 -37 -26 8 -22 l37 3 3 78 c2 67 1
77 -14 77 -15 0 -16 -8 -10 -65z"/>
<path d="M184 6166 c7 -69 2 -76 -51 -76 -22 0 -24 -3 -18 -22 3 -13 9 -44 12
-70 4 -33 10 -48 20 -48 12 0 14 11 8 59 l-7 59 29 4 c28 3 28 4 31 81 2 67 1
77 -14 77 -15 0 -16 -8 -10 -64z"/>
<path d="M216 5783 l-39 -4 7 -64 c7 -68 2 -75 -51 -75 -22 0 -24 -3 -18 -22
3 -13 9 -44 12 -70 4 -33 10 -48 20 -48 12 0 14 11 8 59 l-7 59 29 4 c27 3 28
5 31 69 3 66 3 67 32 71 17 3 32 2 35 0 3 -3 2 -34 -1 -69 l-7 -63 47 0 c45 0
46 -1 40 -27 -3 -16 -10 -41 -15 -57 -12 -39 -11 -46 5 -46 15 0 29 30 46 98
14 56 7 65 -47 59 l-45 -5 6 47 c13 89 14 86 -19 87 -16 1 -47 -1 -69 -3z"/>
<path d="M216 5333 l-39 -4 7 -64 c7 -68 2 -75 -51 -75 -22 0 -24 -3 -18 -22
3 -13 9 -45 12 -71 5 -45 7 -48 32 -43 70 13 171 17 171 7 0 -22 28 -10 38 17
20 50 33 112 26 123 -4 7 -24 9 -51 6 l-45 -5 6 47 c13 89 14 86 -19 87 -16 1
-47 -1 -69 -3z m58 -89 l-7 -64 47 0 c40 0 47 -3 43 -17 -3 -10 -8 -30 -11
-44 -6 -26 -9 -27 -93 -31 -49 -3 -90 -4 -91 -2 -2 1 -6 20 -9 42 -5 39 -4 41
23 44 28 3 29 4 32 70 3 64 4 67 30 70 15 2 30 2 35 0 4 -2 4 -32 1 -68z"/>
</g>
</svg>
