<?xml version="1.0" standalone="no"?>
<!DOCTYPE svg PUBLIC "-//W3C//DTD SVG 20010904//EN"
 "http://www.w3.org/TR/2001/REC-SVG-20010904/DTD/svg10.dtd">
<svg version="1.0" xmlns="http://www.w3.org/2000/svg"
 width="50.000000pt" height="725.000000pt" viewBox="0 0 50.000000 725.000000"
 preserveAspectRatio="xMidYMid meet">
<metadata>
Created by potrace 1.16, written by Peter Selinger 2001-2019
</metadata>
<g transform="translate(0.000000,725.000000) scale(0.100000,-0.100000)"
fill="#000000" stroke="none">
<path d="M188 7127 c-61 -11 -78 -27 -29 -27 58 0 122 13 118 24 -5 15 -21 15
-89 3z"/>
<path d="M188 6677 c-59 -10 -79 -27 -33 -27 33 0 32 -8 -10 -70 -20 -29 -33
-56 -29 -59 8 -8 80 73 96 110 10 22 19 29 41 29 19 0 27 4 25 13 -6 16 -21
16 -90 4z"/>
<path d="M188 6227 c-59 -10 -79 -27 -33 -27 33 0 32 -8 -10 -70 -20 -29 -33
-55 -31 -58 3 -3 24 12 46 32 41 37 70 46 70 23 0 -17 -55 -105 -88 -139 -30
-33 -23 -48 12 -25 26 17 66 72 106 145 21 37 22 45 10 53 -8 5 -27 6 -42 3
-26 -5 -26 -4 -15 20 9 19 20 26 40 26 19 0 27 4 25 13 -6 16 -21 16 -90 4z"/>
<path d="M188 5777 c-59 -10 -79 -27 -33 -27 33 0 32 -8 -10 -70 -34 -51 -40
-75 -13 -52 10 8 19 4 34 -13 l22 -24 -35 -41 c-39 -45 -38 -62 1 -37 26 17
66 72 106 145 21 37 22 45 10 53 -8 5 -27 6 -42 3 -26 -5 -26 -4 -15 20 9 19
20 26 40 26 19 0 27 4 25 13 -6 16 -21 16 -90 4z m42 -99 c-1 -17 -29 -66 -30
-51 0 6 -10 15 -22 19 l-22 7 23 18 c27 22 51 25 51 7z"/>
<path d="M188 5327 c-59 -10 -79 -27 -33 -27 33 0 32 -8 -10 -70 -34 -51 -40
-75 -13 -52 10 8 19 4 34 -13 l22 -24 -35 -41 c-39 -45 -38 -62 1 -37 26 17
66 72 106 145 21 37 22 45 10 53 -8 5 -27 6 -42 3 -26 -5 -26 -4 -15 20 9 19
20 26 40 26 19 0 27 4 25 13 -6 16 -21 16 -90 4z m42 -99 c-1 -17 -29 -66 -30
-51 0 6 -10 15 -22 19 l-22 7 23 18 c27 22 51 25 51 7z"/>
<path d="M305 5213 c0 -44 4 -68 13 -71 9 -3 12 15 12 67 0 51 -4 71 -13 71
-9 0 -12 -19 -12 -67z"/>
<path d="M356 4893 c4 -10 10 -70 12 -132 3 -99 1 -117 -13 -127 -13 -10 -14
-16 -5 -34 6 -12 19 -20 28 -18 15 3 17 21 17 163 l0 160 -24 3 c-20 3 -22 1
-15 -15z"/>
<path d="M188 4877 c-59 -10 -79 -27 -33 -27 33 0 32 -8 -10 -70 -34 -51 -40
-75 -13 -52 10 8 19 4 34 -13 l22 -24 -35 -41 c-39 -45 -38 -62 1 -37 26 17
66 72 106 145 21 37 22 45 10 53 -8 5 -27 6 -42 3 -26 -5 -26 -4 -15 20 9 19
20 26 40 26 19 0 27 4 25 13 -6 16 -21 16 -90 4z m42 -99 c-1 -17 -29 -66 -30
-51 0 6 -10 15 -22 19 l-22 7 23 18 c27 22 51 25 51 7z"/>
<path d="M305 4763 c0 -44 4 -68 13 -71 9 -3 12 15 12 67 0 51 -4 71 -13 71
-9 0 -12 -19 -12 -67z"/>
</g>
</svg>
