<?xml version="1.0" standalone="no"?>
<!DOCTYPE svg PUBLIC "-//W3C//DTD SVG 20010904//EN"
 "http://www.w3.org/TR/2001/REC-SVG-20010904/DTD/svg10.dtd">
<svg version="1.0" xmlns="http://www.w3.org/2000/svg"
 width="50.000000pt" height="725.000000pt" viewBox="0 0 50.000000 725.000000"
 preserveAspectRatio="xMidYMid meet">
<metadata>
Created by potrace 1.16, written by Peter Selinger 2001-2019
</metadata>
<g transform="translate(0.000000,725.000000) scale(0.100000,-0.100000)"
fill="#000000" stroke="none">
<path d="M203 7107 c-54 -12 -58 -32 -5 -23 20 3 45 6 55 6 9 0 17 7 17 15 0
17 -7 17 -67 2z"/>
<path d="M203 6657 c-54 -12 -58 -32 -5 -23 20 3 45 6 55 6 9 0 17 7 17 15 0
17 -7 17 -67 2z"/>
<path d="M144 6584 c3 -9 6 -27 6 -40 0 -13 5 -24 10 -24 6 0 10 18 10 40 0
30 -4 40 -16 40 -11 0 -14 -5 -10 -16z"/>
<path d="M203 6207 c-54 -12 -58 -32 -5 -23 20 3 45 6 55 6 9 0 17 7 17 15 0
17 -7 17 -67 2z"/>
<path d="M228 6163 c-37 -6 -36 -23 2 -23 23 0 30 -5 30 -19 0 -11 -5 -21 -11
-23 -12 -4 -1 -38 12 -38 13 0 27 31 31 70 3 38 -5 42 -64 33z"/>
<path d="M144 6134 c3 -9 6 -27 6 -40 0 -13 5 -24 10 -24 6 0 10 14 10 30 0
17 5 30 10 30 6 0 10 5 10 10 0 6 -12 10 -26 10 -20 0 -25 -4 -20 -16z"/>
<path d="M200 5785 c0 -28 -4 -35 -20 -35 -11 0 -20 -4 -20 -10 0 -5 9 -10 21
-10 20 0 21 -4 18 -122 -3 -86 -1 -122 8 -125 15 -5 26 31 18 58 -12 36 4 149
21 149 16 0 19 -37 3 -42 -12 -4 -1 -38 12 -38 13 0 27 31 31 70 3 34 2 35
-29 34 -22 -1 -33 3 -33 12 0 8 9 14 20 14 12 0 20 7 20 16 0 12 -6 15 -21 11
-16 -4 -19 -2 -15 10 7 16 -10 43 -25 43 -5 0 -9 -16 -9 -35z"/>
<path d="M144 5684 c3 -9 6 -27 6 -40 0 -13 5 -24 10 -24 6 0 10 14 10 30 0
17 5 30 10 30 6 0 10 5 10 10 0 6 -12 10 -26 10 -20 0 -25 -4 -20 -16z"/>
<path d="M200 5335 c0 -28 -4 -35 -20 -35 -11 0 -20 -4 -20 -10 0 -5 9 -10 20
-10 17 0 20 -7 20 -47 0 -50 -35 -114 -72 -134 -19 -10 -25 -29 -8 -29 5 0 26
15 46 32 l37 33 -7 -47 c-5 -31 -3 -49 5 -53 18 -12 30 17 23 57 -8 55 5 148
22 148 16 0 19 -37 3 -42 -12 -4 -1 -38 12 -38 13 0 27 31 31 70 3 34 2 35
-29 34 -22 -1 -33 3 -33 12 0 8 9 14 20 14 12 0 20 7 20 16 0 12 -6 15 -21 11
-16 -4 -19 -2 -15 10 7 16 -10 43 -25 43 -5 0 -9 -16 -9 -35z"/>
<path d="M144 5234 c3 -9 6 -27 6 -40 0 -13 5 -24 10 -24 6 0 10 14 10 30 0
17 5 30 10 30 6 0 10 5 10 10 0 6 -12 10 -26 10 -20 0 -25 -4 -20 -16z"/>
<path d="M200 4885 c0 -28 -4 -35 -20 -35 -11 0 -20 -4 -20 -10 0 -5 9 -10 20
-10 17 0 20 -7 20 -47 0 -50 -35 -114 -72 -134 -19 -10 -25 -29 -8 -29 5 0 26
15 46 32 l37 33 -7 -47 c-5 -31 -3 -49 5 -53 19 -12 29 17 23 65 l-7 45 25
-22 c13 -13 30 -23 36 -23 17 0 15 25 -3 40 -12 10 -12 15 0 33 7 12 15 38 17
57 3 34 2 35 -29 34 -22 -1 -33 3 -33 12 0 8 9 14 20 14 12 0 20 7 20 16 0 12
-6 15 -21 11 -16 -4 -19 -2 -15 10 7 16 -10 43 -25 43 -5 0 -9 -16 -9 -35z
m60 -115 c0 -11 -5 -20 -11 -20 -6 0 -8 -9 -4 -21 5 -14 3 -20 -5 -17 -6 2
-11 7 -11 11 1 4 1 21 1 37 0 20 5 30 15 30 8 0 15 -9 15 -20z"/>
<path d="M144 4784 c3 -9 6 -27 6 -40 0 -13 5 -24 10 -24 6 0 10 14 10 30 0
17 5 30 10 30 6 0 10 5 10 10 0 6 -12 10 -26 10 -20 0 -25 -4 -20 -16z"/>
<path d="M200 4435 c0 -28 -4 -35 -20 -35 -11 0 -20 -4 -20 -10 0 -5 9 -10 20
-10 17 0 20 -7 20 -47 0 -50 -35 -114 -72 -134 -19 -10 -25 -29 -8 -29 5 0 26
15 46 32 l37 33 -7 -47 c-5 -31 -3 -49 5 -53 19 -12 29 17 23 65 l-7 45 25
-22 c13 -13 30 -23 36 -23 17 0 15 25 -3 40 -12 10 -12 15 0 33 7 12 15 38 17
57 3 34 2 35 -29 34 -22 -1 -33 3 -33 12 0 8 9 14 20 14 12 0 20 7 20 16 0 12
-6 15 -21 11 -16 -4 -19 -2 -15 10 7 16 -10 43 -25 43 -5 0 -9 -16 -9 -35z
m60 -115 c0 -11 -5 -20 -11 -20 -6 0 -8 -9 -4 -21 5 -14 3 -20 -5 -17 -6 2
-11 7 -11 11 1 4 1 21 1 37 0 20 5 30 15 30 8 0 15 -9 15 -20z"/>
<path d="M322 4313 c2 -42 8 -68 16 -71 9 -3 12 15 12 67 0 57 -3 71 -15 71
-13 0 -15 -12 -13 -67z"/>
<path d="M144 4334 c3 -9 6 -27 6 -40 0 -13 5 -24 10 -24 6 0 10 14 10 30 0
17 5 30 10 30 6 0 10 5 10 10 0 6 -12 10 -26 10 -20 0 -25 -4 -20 -16z"/>
<path d="M200 3985 c0 -28 -4 -35 -20 -35 -11 0 -20 -4 -20 -10 0 -5 9 -10 20
-10 17 0 20 -7 20 -47 0 -50 -35 -114 -72 -134 -19 -10 -25 -29 -8 -29 5 0 26
15 46 32 l37 33 -7 -47 c-5 -31 -3 -49 5 -53 19 -12 29 17 23 65 l-7 45 25
-22 c13 -13 30 -23 36 -23 17 0 15 25 -3 40 -12 10 -12 15 0 33 7 12 15 38 17
57 3 34 2 35 -29 34 -22 -1 -33 3 -33 12 0 8 9 14 20 14 12 0 20 7 20 16 0 12
-6 15 -21 11 -16 -4 -19 -2 -15 10 7 16 -10 43 -25 43 -5 0 -9 -16 -9 -35z
m60 -115 c0 -11 -5 -20 -11 -20 -6 0 -8 -9 -4 -21 5 -14 3 -20 -5 -17 -6 2
-11 7 -11 11 1 4 1 21 1 37 0 20 5 30 15 30 8 0 15 -9 15 -20z"/>
<path d="M378 3870 c4 -137 3 -140 -17 -140 -28 0 -26 -11 4 -40 16 -15 29
-20 35 -14 5 5 10 81 11 169 2 150 1 160 -17 163 -18 3 -19 -4 -16 -138z"/>
<path d="M322 3863 c2 -42 8 -68 16 -71 9 -3 12 15 12 67 0 57 -3 71 -15 71
-13 0 -15 -12 -13 -67z"/>
<path d="M144 3884 c3 -9 6 -27 6 -40 0 -13 5 -24 10 -24 6 0 10 14 10 30 0
17 5 30 10 30 6 0 10 5 10 10 0 6 -12 10 -26 10 -20 0 -25 -4 -20 -16z"/>
</g>
</svg>
