<?xml version="1.0" standalone="no"?>
<!DOCTYPE svg PUBLIC "-//W3C//DTD SVG 20010904//EN"
 "http://www.w3.org/TR/2001/REC-SVG-20010904/DTD/svg10.dtd">
<svg version="1.0" xmlns="http://www.w3.org/2000/svg"
 width="50.000000pt" height="725.000000pt" viewBox="0 0 50.000000 725.000000"
 preserveAspectRatio="xMidYMid meet">
<metadata>
Created by potrace 1.16, written by Peter Selinger 2001-2019
</metadata>
<g transform="translate(0.000000,725.000000) scale(0.100000,-0.100000)"
fill="#000000" stroke="none">
<path d="M187 7103 c3 -32 7 -60 9 -62 8 -9 12 6 19 62 7 53 6 57 -13 57 -19
0 -20 -4 -15 -57z"/>
<path d="M187 6653 c3 -32 7 -60 9 -62 8 -9 12 6 19 62 7 53 6 57 -13 57 -19
0 -20 -4 -15 -57z"/>
<path d="M120 6665 c0 -16 26 -55 37 -55 20 0 16 38 -6 50 -21 11 -31 13 -31
5z"/>
<path d="M187 6203 c3 -32 7 -60 9 -62 8 -9 12 6 19 62 7 53 6 57 -13 57 -19
0 -20 -4 -15 -57z"/>
<path d="M243 6213 c-7 -14 -11 -29 -8 -31 10 -10 56 22 53 37 -5 26 -32 23
-45 -6z"/>
<path d="M120 6215 c0 -16 26 -55 37 -55 20 0 16 38 -6 50 -21 11 -31 13 -31
5z"/>
<path d="M187 5753 c3 -32 7 -60 9 -62 8 -9 12 6 19 62 7 53 6 57 -13 57 -19
0 -20 -4 -15 -57z"/>
<path d="M243 5763 c-7 -14 -11 -29 -8 -31 10 -10 56 22 53 37 -5 26 -32 23
-45 -6z"/>
<path d="M120 5765 c0 -16 26 -55 37 -55 20 0 16 38 -6 50 -21 11 -31 13 -31
5z"/>
<path d="M135 5668 c5 -30 -3 -88 -20 -145 -11 -36 11 -27 29 11 22 47 22 166
1 166 -12 0 -15 -7 -10 -32z"/>
<path d="M185 5295 c0 -64 0 -65 28 -65 27 0 27 0 27 -70 0 -54 -4 -71 -17
-78 -21 -12 -9 -45 14 -40 15 3 19 19 25 103 3 55 4 104 1 108 -3 5 -16 6 -30
2 -24 -6 -25 -6 -18 50 7 50 5 55 -12 55 -16 0 -18 -8 -18 -65z"/>
<path d="M243 5313 c-7 -14 -11 -29 -8 -31 10 -10 56 22 53 37 -5 26 -32 23
-45 -6z"/>
<path d="M120 5315 c0 -16 26 -55 37 -55 20 0 16 38 -6 50 -21 11 -31 13 -31
5z"/>
<path d="M135 5218 c5 -30 -3 -88 -20 -145 -4 -13 -3 -23 3 -23 18 0 40 65 44
130 3 56 1 65 -15 68 -16 3 -17 -1 -12 -30z"/>
<path d="M185 4845 c0 -64 0 -65 28 -65 27 0 27 0 27 -70 0 -54 -4 -71 -17
-78 -21 -12 -9 -45 14 -40 15 3 19 19 25 103 3 55 4 104 1 108 -3 5 -16 6 -30
2 -24 -6 -25 -6 -18 50 7 50 5 55 -12 55 -16 0 -18 -8 -18 -65z"/>
<path d="M243 4863 c-7 -14 -11 -29 -8 -31 10 -10 56 22 53 37 -5 26 -32 23
-45 -6z"/>
<path d="M120 4865 c0 -16 26 -55 37 -55 20 0 16 38 -6 50 -21 11 -31 13 -31
5z"/>
<path d="M135 4768 c5 -30 -3 -88 -20 -145 -4 -13 -3 -23 3 -23 18 0 40 65 44
130 3 56 1 65 -15 68 -16 3 -17 -1 -12 -30z"/>
<path d="M170 4740 c0 -11 40 -34 47 -26 3 3 3 12 0 21 -7 16 -47 21 -47 5z"/>
<path d="M185 4395 c0 -64 0 -65 28 -65 27 0 27 0 27 -70 0 -54 -4 -71 -17
-78 -21 -12 -9 -45 14 -40 15 3 19 19 25 103 3 55 4 104 1 108 -3 5 -16 6 -30
2 -24 -6 -25 -6 -18 50 7 50 5 55 -12 55 -16 0 -18 -8 -18 -65z"/>
<path d="M243 4413 c-7 -14 -11 -29 -8 -31 10 -10 56 22 53 37 -5 26 -32 23
-45 -6z"/>
<path d="M120 4415 c0 -16 26 -55 37 -55 20 0 16 38 -6 50 -21 11 -31 13 -31
5z"/>
<path d="M135 4318 c5 -30 -3 -88 -20 -145 -11 -33 11 -29 26 5 8 18 24 32 43
38 43 13 49 38 6 29 l-32 -7 4 53 c2 45 0 54 -15 57 -16 3 -17 -1 -12 -30z"/>
<path d="M170 4290 c0 -11 40 -34 47 -26 3 3 3 12 0 21 -7 16 -47 21 -47 5z"/>
<path d="M185 3945 c0 -64 0 -65 28 -65 27 0 27 0 27 -70 0 -54 -4 -71 -17
-78 -21 -12 -9 -45 14 -40 15 3 19 19 25 103 3 55 4 104 1 108 -3 5 -16 6 -30
2 -24 -6 -25 -6 -18 50 7 50 5 55 -12 55 -16 0 -18 -8 -18 -65z"/>
<path d="M243 3963 c-7 -14 -11 -29 -8 -31 10 -10 56 22 53 37 -5 26 -32 23
-45 -6z"/>
<path d="M120 3965 c0 -16 26 -55 37 -55 20 0 16 38 -6 50 -21 11 -31 13 -31
5z"/>
<path d="M310 3855 c0 -51 3 -65 15 -65 12 0 15 14 15 65 0 51 -3 65 -15 65
-12 0 -15 -14 -15 -65z"/>
<path d="M135 3868 c5 -30 -3 -88 -20 -145 -11 -33 11 -29 26 5 8 18 24 32 43
38 43 13 49 38 6 29 l-32 -7 4 53 c2 45 0 54 -15 57 -16 3 -17 -1 -12 -30z"/>
<path d="M170 3840 c0 -11 40 -34 47 -26 3 3 3 12 0 21 -7 16 -47 21 -47 5z"/>
<path d="M185 3495 c0 -64 0 -65 28 -65 27 0 27 0 27 -70 0 -54 -4 -71 -17
-78 -21 -12 -9 -45 14 -40 15 3 19 19 25 103 3 55 4 104 1 108 -3 5 -16 6 -30
2 -24 -6 -25 -6 -18 50 7 50 5 55 -12 55 -16 0 -18 -8 -18 -65z"/>
<path d="M364 3533 c10 -54 18 -211 11 -232 -3 -12 -13 -21 -21 -21 -19 0 -18
-14 4 -33 19 -18 42 -22 43 -9 0 4 1 76 2 159 2 119 -1 154 -11 158 -27 10
-34 5 -28 -22z"/>
<path d="M243 3513 c-7 -14 -11 -29 -8 -31 10 -10 56 22 53 37 -5 26 -32 23
-45 -6z"/>
<path d="M120 3515 c0 -16 26 -55 37 -55 20 0 16 38 -6 50 -21 11 -31 13 -31
5z"/>
<path d="M310 3405 c0 -51 3 -65 15 -65 12 0 15 14 15 65 0 51 -3 65 -15 65
-12 0 -15 -14 -15 -65z"/>
<path d="M135 3418 c5 -30 -3 -88 -20 -145 -11 -33 11 -29 26 5 8 18 24 32 43
38 43 13 49 38 6 29 l-32 -7 4 53 c2 45 0 54 -15 57 -16 3 -17 -1 -12 -30z"/>
<path d="M170 3390 c0 -11 40 -34 47 -26 3 3 3 12 0 21 -7 16 -47 21 -47 5z"/>
</g>
</svg>
