<?xml version="1.0" standalone="no"?>
<!DOCTYPE svg PUBLIC "-//W3C//DTD SVG 20010904//EN"
 "http://www.w3.org/TR/2001/REC-SVG-20010904/DTD/svg10.dtd">
<svg version="1.0" xmlns="http://www.w3.org/2000/svg"
 width="50.000000pt" height="725.000000pt" viewBox="0 0 50.000000 725.000000"
 preserveAspectRatio="xMidYMid meet">
<metadata>
Created by potrace 1.16, written by Peter Selinger 2001-2019
</metadata>
<g transform="translate(0.000000,725.000000) scale(0.100000,-0.100000)"
fill="#000000" stroke="none">
<path d="M150 7095 c0 -52 14 -60 24 -14 9 47 7 59 -9 59 -11 0 -15 -12 -15
-45z"/>
<path d="M210 6690 c0 -5 4 -10 10 -10 5 0 7 -21 3 -50 -8 -67 11 -66 31 2 12
40 12 54 3 60 -17 11 -47 10 -47 -2z"/>
<path d="M150 6645 c0 -53 15 -60 24 -10 4 19 11 35 16 35 6 0 10 5 10 10 0 6
-11 10 -25 10 -23 0 -25 -4 -25 -45z"/>
<path d="M210 6240 c0 -5 5 -10 10 -10 6 0 10 -7 10 -15 0 -9 -9 -15 -25 -15
-14 0 -25 5 -25 10 0 6 5 10 10 10 6 0 10 5 10 10 0 6 -11 10 -25 10 -23 0
-25 -4 -25 -45 0 -44 12 -60 24 -30 3 8 15 15 26 15 15 0 20 -7 20 -25 0 -42
18 -28 34 27 12 40 12 54 3 60 -17 11 -47 10 -47 -2z"/>
<path d="M210 5790 c0 -5 5 -10 10 -10 6 0 10 -7 10 -15 0 -9 -9 -15 -25 -15
-14 0 -25 5 -25 10 0 6 5 10 10 10 6 0 10 5 10 10 0 6 -11 10 -25 10 -23 0
-25 -4 -25 -42 0 -57 8 -66 52 -66 36 0 38 2 52 51 12 40 12 53 3 59 -17 11
-47 10 -47 -2z m10 -69 c0 -11 -39 -21 -45 -11 -2 4 -2 10 2 14 10 9 43 7 43
-3z"/>
<path d="M210 5340 c0 -5 5 -10 10 -10 6 0 10 -7 10 -15 0 -9 -9 -15 -25 -15
-14 0 -25 5 -25 10 0 6 5 10 10 10 6 0 10 5 10 10 0 6 -12 10 -26 10 -25 0
-25 -2 -22 -59 2 -52 -1 -63 -21 -85 -14 -14 -22 -29 -18 -32 10 -10 59 26 64
47 5 19 14 23 45 20 22 -2 54 99 35 111 -17 11 -47 10 -47 -2z m10 -69 c0 -11
-39 -21 -45 -11 -2 4 -2 10 2 14 10 9 43 7 43 -3z"/>
<path d="M210 4890 c0 -5 5 -10 10 -10 6 0 10 -7 10 -15 0 -9 -9 -15 -25 -15
-14 0 -25 5 -25 10 0 6 5 10 10 10 6 0 10 5 10 10 0 6 -12 10 -26 10 -25 0
-25 -2 -22 -59 2 -52 -1 -63 -21 -85 -14 -14 -23 -28 -20 -30 7 -7 99 17 99
26 0 4 -7 8 -15 8 -8 0 -15 7 -15 15 0 15 10 19 42 16 22 -2 54 99 35 111 -17
11 -47 10 -47 -2z m10 -69 c0 -11 -39 -21 -45 -11 -2 4 -2 10 2 14 10 9 43 7
43 -3z"/>
<path d="M230 4750 c0 -5 7 -10 16 -10 12 0 14 -7 9 -32 -13 -59 -23 -78 -40
-72 -19 8 -19 -7 0 -32 15 -19 15 -19 34 4 17 20 41 100 41 137 0 10 -10 15
-30 15 -16 0 -30 -4 -30 -10z"/>
<path d="M210 4440 c0 -5 5 -10 10 -10 6 0 10 -7 10 -15 0 -9 -9 -15 -25 -15
-14 0 -25 5 -25 10 0 6 5 10 10 10 6 0 10 5 10 10 0 6 -12 10 -26 10 -25 0
-25 -2 -22 -59 2 -50 -1 -63 -20 -84 -27 -29 -28 -40 -2 -32 24 8 26 -2 3 -27
-34 -37 -1 -31 37 7 43 44 48 55 25 55 -8 0 -15 7 -15 15 0 15 10 19 42 16 22
-2 54 99 35 111 -17 11 -47 10 -47 -2z m10 -69 c0 -11 -39 -21 -45 -11 -2 4
-2 10 2 14 10 9 43 7 43 -3z"/>
<path d="M230 4300 c0 -5 7 -10 16 -10 12 0 14 -7 9 -32 -13 -59 -23 -78 -40
-72 -19 8 -19 -7 0 -32 15 -19 15 -19 34 4 17 20 41 100 41 137 0 10 -10 15
-30 15 -16 0 -30 -4 -30 -10z"/>
<path d="M210 3990 c0 -5 5 -10 10 -10 6 0 10 -7 10 -15 0 -9 -9 -15 -25 -15
-14 0 -25 5 -25 10 0 6 5 10 10 10 6 0 10 5 10 10 0 6 -12 10 -26 10 -25 0
-25 -2 -22 -59 2 -50 -1 -63 -20 -84 -27 -29 -28 -40 -2 -32 24 8 26 -2 3 -27
-9 -10 -13 -21 -9 -26 4 -4 23 10 42 31 19 20 36 37 39 37 13 0 1 -22 -36 -64
-42 -48 -47 -70 -10 -44 28 20 81 88 81 104 0 8 5 14 11 14 7 0 8 -12 4 -32
-13 -59 -23 -78 -40 -72 -19 8 -19 -7 0 -32 15 -19 15 -19 34 4 11 12 24 45
30 73 18 83 19 82 -44 74 -46 -5 -55 -4 -55 9 0 16 10 20 42 17 22 -2 54 99
35 111 -17 11 -47 10 -47 -2z m10 -69 c0 -11 -39 -21 -45 -11 -2 4 -2 10 2 14
10 9 43 7 43 -3z"/>
<path d="M210 3540 c0 -5 5 -10 10 -10 6 0 10 -7 10 -15 0 -9 -9 -15 -25 -15
-14 0 -25 5 -25 10 0 6 5 10 10 10 6 0 10 5 10 10 0 6 -12 10 -26 10 -25 0
-25 -2 -22 -59 2 -50 -1 -63 -20 -84 -27 -29 -28 -40 -2 -32 24 8 26 -2 3 -27
-9 -10 -13 -21 -9 -26 4 -4 23 10 42 31 19 20 36 37 39 37 13 0 1 -22 -36 -64
-42 -48 -47 -70 -10 -44 28 20 81 88 81 104 0 8 5 14 11 14 7 0 8 -12 4 -32
-13 -59 -23 -78 -40 -72 -19 8 -19 -7 0 -32 15 -19 15 -19 34 4 11 12 24 45
30 73 18 83 19 82 -44 74 -46 -5 -55 -4 -55 9 0 16 10 20 42 17 22 -2 54 99
35 111 -17 11 -47 10 -47 -2z m10 -69 c0 -11 -39 -21 -45 -11 -2 4 -2 10 2 14
10 9 43 7 43 -3z"/>
<path d="M315 3423 c1 -42 5 -68 13 -71 9 -3 12 16 12 67 0 51 -4 71 -13 71
-9 0 -12 -19 -12 -67z"/>
<path d="M378 2970 c4 -124 2 -140 -12 -140 -20 0 -20 -10 -2 -35 8 -11 19
-16 30 -12 15 6 16 25 14 164 -3 132 -6 158 -18 161 -13 2 -15 -16 -12 -138z"/>
<path d="M210 3090 c0 -5 5 -10 10 -10 6 0 10 -7 10 -15 0 -9 -9 -15 -25 -15
-14 0 -25 5 -25 10 0 6 5 10 10 10 6 0 10 5 10 10 0 6 -12 10 -26 10 -25 0
-25 -2 -22 -59 2 -50 -1 -63 -20 -84 -27 -29 -28 -40 -2 -32 24 8 26 -2 3 -27
-9 -10 -13 -21 -9 -26 4 -4 23 10 42 31 19 20 36 37 39 37 13 0 1 -22 -36 -64
-42 -48 -47 -70 -10 -44 28 20 81 88 81 104 0 8 5 14 11 14 7 0 8 -12 4 -32
-13 -59 -23 -78 -40 -72 -19 8 -19 -7 0 -32 15 -19 15 -19 34 4 11 12 24 45
30 73 18 83 19 82 -44 74 -46 -5 -55 -4 -55 9 0 16 10 20 42 17 22 -2 54 99
35 111 -17 11 -47 10 -47 -2z m10 -69 c0 -11 -39 -21 -45 -11 -2 4 -2 10 2 14
10 9 43 7 43 -3z"/>
<path d="M315 2973 c1 -42 5 -68 13 -71 9 -3 12 16 12 67 0 51 -4 71 -13 71
-9 0 -12 -19 -12 -67z"/>
</g>
</svg>
