<?xml version="1.0" standalone="no"?>
<!DOCTYPE svg PUBLIC "-//W3C//DTD SVG 20010904//EN"
 "http://www.w3.org/TR/2001/REC-SVG-20010904/DTD/svg10.dtd">
<svg version="1.0" xmlns="http://www.w3.org/2000/svg"
 width="50.000000pt" height="725.000000pt" viewBox="0 0 50.000000 725.000000"
 preserveAspectRatio="xMidYMid meet">
<metadata>
Created by potrace 1.16, written by Peter Selinger 2001-2019
</metadata>
<g transform="translate(0.000000,725.000000) scale(0.100000,-0.100000)"
fill="#000000" stroke="none">
<path d="M206 7137 c-3 -14 -27 -48 -52 -76 -49 -55 -52 -79 -6 -44 34 25 103
115 99 128 -7 21 -35 16 -41 -8z"/>
<path d="M206 6686 c-3 -13 -27 -47 -52 -75 -26 -29 -44 -54 -41 -58 10 -9 53
23 88 67 32 39 32 39 60 23 16 -9 31 -14 35 -10 12 11 -5 37 -25 37 -10 0 -21
9 -24 20 -7 28 -34 25 -41 -4z"/>
<path d="M206 6236 c-3 -13 -27 -47 -52 -75 -50 -55 -53 -76 -7 -45 15 10 37
18 48 19 11 1 32 2 48 3 17 1 27 8 27 18 0 16 -19 15 -66 -3 -15 -6 -15 -2 5
25 22 32 23 32 51 15 16 -9 32 -14 36 -10 12 11 -5 37 -25 37 -10 0 -21 9 -24
20 -7 28 -34 25 -41 -4z"/>
<path d="M206 5786 c-3 -13 -27 -47 -53 -76 -41 -45 -45 -53 -30 -62 9 -5 17
-18 17 -28 0 -11 5 -20 11 -20 8 0 10 12 6 35 -6 37 3 48 38 50 69 4 75 6 75
21 0 16 -19 15 -66 -3 -15 -6 -15 -2 5 25 22 32 23 32 51 15 16 -9 32 -14 36
-10 12 11 -5 37 -25 37 -10 0 -21 9 -24 20 -7 28 -34 25 -41 -4z"/>
<path d="M206 5336 c-3 -13 -27 -47 -53 -76 -41 -45 -45 -53 -30 -62 9 -5 17
-18 17 -28 0 -11 5 -20 10 -20 6 0 10 9 10 20 0 11 5 20 10 20 6 0 10 -7 10
-15 0 -22 17 -18 30 5 16 29 3 42 -33 35 -26 -6 -30 -5 -19 6 6 7 22 14 35 14
69 4 77 6 77 21 0 16 -19 15 -66 -3 -15 -6 -15 -2 5 25 22 32 23 32 51 15 16
-9 32 -14 36 -10 12 11 -5 37 -25 37 -10 0 -21 9 -24 20 -7 28 -34 25 -41 -4z"/>
<path d="M206 4886 c-3 -13 -27 -47 -53 -76 -41 -45 -45 -53 -30 -62 9 -5 17
-18 17 -28 0 -24 11 -31 37 -24 22 6 47 49 37 65 -3 6 -20 7 -37 4 -26 -6 -30
-5 -19 6 6 7 22 14 35 14 69 4 77 6 77 21 0 16 -19 15 -66 -3 -15 -6 -15 -2 5
25 22 32 23 32 51 15 16 -9 32 -14 36 -10 12 11 -5 37 -25 37 -10 0 -21 9 -24
20 -7 28 -34 25 -41 -4z m-26 -156 c0 -5 -4 -10 -10 -10 -5 0 -10 5 -10 10 0
6 5 10 10 10 6 0 10 -4 10 -10z"/>
<path d="M206 4436 c-3 -13 -27 -47 -53 -76 -41 -45 -45 -53 -30 -62 9 -5 17
-18 17 -28 0 -40 50 -34 71 8 l13 27 4 -27 c5 -39 24 -35 20 5 -3 32 -4 32
-52 30 -36 -1 -46 1 -37 10 6 6 21 12 34 12 69 4 77 6 77 21 0 16 -19 15 -66
-3 -15 -6 -15 -2 5 25 22 32 23 32 51 15 16 -9 32 -14 36 -10 12 11 -5 37 -25
37 -10 0 -21 9 -24 20 -7 28 -34 25 -41 -4z m-26 -156 c0 -5 -4 -10 -10 -10
-5 0 -10 5 -10 10 0 6 5 10 10 10 6 0 10 -4 10 -10z"/>
<path d="M206 3986 c-3 -13 -27 -47 -53 -76 -41 -45 -45 -53 -30 -62 9 -5 17
-18 17 -28 0 -40 50 -34 71 8 l13 27 4 -27 c4 -32 22 -38 22 -9 0 11 3 27 6
36 6 14 0 16 -51 11 -45 -4 -56 -3 -47 6 7 7 22 13 35 13 69 4 77 6 77 21 0
16 -19 15 -66 -3 -15 -6 -15 -2 5 25 22 32 23 32 51 15 16 -9 32 -14 36 -10
12 11 -5 37 -25 37 -10 0 -21 9 -24 20 -7 28 -34 25 -41 -4z m-26 -156 c0 -5
-4 -10 -10 -10 -5 0 -10 5 -10 10 0 6 5 10 10 10 6 0 10 -4 10 -10z"/>
<path d="M270 3850 c0 -32 14 -40 24 -14 10 27 7 44 -9 44 -10 0 -15 -10 -15
-30z"/>
<path d="M206 3536 c-3 -13 -27 -47 -53 -76 -41 -45 -45 -53 -30 -62 9 -5 17
-18 17 -28 0 -40 50 -34 71 8 l13 27 4 -28 c3 -24 6 -26 30 -21 34 8 31 5 38
42 5 25 3 32 -10 32 -10 0 -16 -9 -16 -25 0 -14 -5 -25 -11 -25 -6 0 -8 9 -4
21 6 19 4 20 -51 15 -44 -4 -55 -3 -46 6 7 7 22 13 35 13 69 4 77 6 77 21 0
16 -19 15 -66 -3 -15 -6 -15 -2 5 25 22 32 23 32 51 15 16 -9 32 -14 36 -10
12 11 -5 37 -25 37 -10 0 -21 9 -24 20 -7 28 -34 25 -41 -4z m-26 -156 c0 -5
-4 -10 -10 -10 -5 0 -10 5 -10 10 0 6 5 10 10 10 6 0 10 -4 10 -10z"/>
<path d="M206 3086 c-3 -13 -27 -47 -53 -76 -41 -45 -45 -53 -30 -62 9 -5 17
-17 17 -26 0 -10 5 -23 11 -29 8 -8 6 -18 -6 -37 -10 -15 -15 -30 -11 -33 11
-11 66 49 66 72 0 12 7 30 15 41 14 18 14 18 15 -9 0 -25 3 -27 28 -21 34 8
31 5 38 42 5 25 3 32 -10 32 -10 0 -16 -9 -16 -25 0 -14 -5 -25 -11 -25 -6 0
-8 9 -4 21 6 19 4 20 -51 15 -44 -4 -55 -3 -46 6 7 7 22 13 35 13 69 4 77 6
77 21 0 16 -19 15 -66 -3 -15 -6 -15 -2 5 25 22 32 23 32 51 15 16 -9 32 -14
36 -10 12 11 -5 37 -25 37 -10 0 -21 9 -24 20 -7 28 -34 25 -41 -4z m-26 -156
c0 -5 -4 -10 -10 -10 -5 0 -10 5 -10 10 0 6 5 10 10 10 6 0 10 -4 10 -10z"/>
<path d="M206 2636 c-3 -13 -27 -47 -53 -76 -41 -45 -45 -53 -30 -62 9 -5 17
-17 17 -26 0 -10 5 -23 11 -29 8 -8 6 -18 -6 -37 -18 -27 -13 -48 6 -29 9 9
16 9 30 0 23 -14 37 -2 23 21 -12 19 -2 78 15 95 8 8 11 4 11 -16 0 -25 3 -27
28 -21 34 8 31 5 38 42 5 25 3 32 -10 32 -10 0 -16 -9 -16 -25 0 -14 -5 -25
-11 -25 -6 0 -8 9 -4 21 6 19 4 20 -51 15 -44 -4 -55 -3 -46 6 7 7 22 13 35
13 69 4 77 6 77 21 0 16 -19 15 -66 -3 -15 -6 -15 -2 5 25 22 32 23 32 51 15
16 -9 32 -14 36 -10 12 11 -5 37 -25 37 -10 0 -21 9 -24 20 -7 28 -34 25 -41
-4z m-26 -156 c0 -5 -4 -10 -10 -10 -5 0 -10 5 -10 10 0 6 5 10 10 10 6 0 10
-4 10 -10z"/>
<path d="M206 2186 c-3 -13 -27 -47 -53 -76 -41 -45 -45 -53 -30 -62 9 -5 17
-17 17 -26 0 -10 5 -23 11 -29 8 -8 6 -18 -6 -37 -18 -27 -13 -48 6 -29 9 9
16 9 30 0 23 -14 37 -2 23 21 -12 19 -2 78 15 95 8 8 11 3 11 -17 0 -22 4 -27
16 -22 13 5 12 0 -5 -29 -24 -41 -25 -45 -12 -45 19 0 59 66 66 108 6 35 4 42
-9 42 -10 0 -16 -9 -16 -25 0 -14 -5 -25 -11 -25 -6 0 -8 9 -4 21 6 19 4 20
-51 15 -44 -4 -55 -3 -46 6 7 7 22 13 35 13 69 4 77 6 77 21 0 16 -19 15 -66
-3 -15 -6 -15 -2 5 25 22 32 23 32 51 15 16 -9 32 -14 36 -10 12 11 -5 37 -25
37 -10 0 -21 9 -24 20 -7 28 -34 25 -41 -4z m-26 -156 c0 -5 -4 -10 -10 -10
-5 0 -10 5 -10 10 0 6 5 10 10 10 6 0 10 -4 10 -10z"/>
<path d="M206 1736 c-3 -13 -27 -47 -53 -76 -41 -45 -45 -53 -30 -62 9 -5 17
-17 17 -26 0 -10 5 -23 11 -29 8 -8 6 -18 -6 -37 -18 -27 -13 -48 6 -29 9 9
16 9 30 0 23 -14 37 -2 23 21 -12 19 -2 78 15 95 8 8 11 3 11 -17 0 -22 4 -27
16 -22 13 5 12 -1 -5 -30 -24 -40 -21 -55 5 -33 14 11 17 10 25 -4 6 -9 14
-17 19 -17 17 0 11 37 -6 44 -11 4 -13 10 -6 19 5 6 13 31 17 55 6 35 4 42 -9
42 -10 0 -16 -9 -16 -25 0 -14 -5 -25 -11 -25 -6 0 -8 9 -4 21 6 19 4 20 -51
15 -44 -4 -55 -3 -46 6 7 7 22 13 35 13 69 4 77 6 77 21 0 16 -19 15 -66 -3
-15 -6 -15 -2 5 25 22 32 23 32 51 15 16 -9 32 -14 36 -10 12 11 -5 37 -25 37
-10 0 -21 9 -24 20 -7 28 -34 25 -41 -4z m-26 -156 c0 -5 -4 -10 -10 -10 -5 0
-10 5 -10 10 0 6 5 10 10 10 6 0 10 -4 10 -10z"/>
<path d="M206 1286 c-3 -13 -27 -47 -53 -76 -41 -45 -45 -53 -30 -62 9 -5 17
-17 17 -26 0 -10 5 -23 11 -29 8 -8 6 -18 -6 -37 -18 -27 -13 -48 6 -29 9 9
16 9 30 0 23 -14 37 -2 23 21 -12 19 -2 78 15 95 8 8 11 3 11 -17 0 -22 4 -27
16 -22 13 5 12 -1 -5 -30 -24 -40 -21 -55 5 -33 14 11 17 10 25 -4 6 -9 14
-17 19 -17 17 0 11 37 -6 44 -11 4 -13 10 -6 19 5 6 13 31 17 55 6 35 4 42 -9
42 -10 0 -16 -9 -16 -25 0 -14 -5 -25 -11 -25 -6 0 -8 9 -4 21 6 19 4 20 -51
15 -44 -4 -55 -3 -46 6 7 7 22 13 35 13 69 4 77 6 77 21 0 16 -19 15 -66 -3
-15 -6 -15 -2 5 25 22 32 23 32 51 15 16 -9 32 -14 36 -10 12 11 -5 37 -25 37
-10 0 -21 9 -24 20 -7 28 -34 25 -41 -4z m-26 -156 c0 -5 -4 -10 -10 -10 -5 0
-10 5 -10 10 0 6 5 10 10 10 6 0 10 -4 10 -10z"/>
<path d="M328 1173 c2 -37 6 -70 8 -72 9 -9 12 7 15 69 3 52 1 65 -11 68 -14
2 -15 -8 -12 -65z"/>
<path d="M206 836 c-3 -13 -27 -47 -53 -76 -41 -45 -45 -53 -30 -62 9 -5 17
-17 17 -26 0 -10 5 -23 11 -29 8 -8 6 -18 -6 -37 -18 -27 -13 -48 6 -29 9 9
16 9 30 0 23 -14 37 -2 23 21 -12 19 -2 78 15 95 8 8 11 3 11 -17 0 -22 4 -27
16 -22 13 5 12 -1 -5 -30 -24 -40 -21 -55 5 -33 14 11 17 10 25 -4 6 -9 14
-17 19 -17 17 0 11 37 -6 44 -11 4 -13 10 -6 19 5 6 13 31 17 55 6 35 4 42 -9
42 -10 0 -16 -9 -16 -25 0 -14 -5 -25 -11 -25 -6 0 -8 9 -4 21 6 19 4 20 -51
15 -44 -4 -55 -3 -46 6 7 7 22 13 35 13 69 4 77 6 77 21 0 16 -19 15 -66 -3
-15 -6 -15 -2 5 25 22 32 23 32 51 15 16 -9 32 -14 36 -10 12 11 -5 37 -25 37
-10 0 -21 9 -24 20 -7 28 -34 25 -41 -4z m-26 -156 c0 -5 -4 -10 -10 -10 -5 0
-10 5 -10 10 0 6 5 10 10 10 6 0 10 -4 10 -10z"/>
<path d="M378 720 c3 -123 2 -140 -12 -140 -9 0 -16 -4 -16 -8 0 -12 34 -42
48 -42 14 0 21 312 7 322 -27 20 -30 3 -27 -132z"/>
<path d="M328 723 c2 -37 6 -70 8 -72 9 -9 12 7 15 69 3 52 1 65 -11 68 -14 2
-15 -8 -12 -65z"/>
</g>
</svg>
