<?xml version="1.0" standalone="no"?>
<!DOCTYPE svg PUBLIC "-//W3C//DTD SVG 20010904//EN"
 "http://www.w3.org/TR/2001/REC-SVG-20010904/DTD/svg10.dtd">
<svg version="1.0" xmlns="http://www.w3.org/2000/svg"
 width="50.000000pt" height="725.000000pt" viewBox="0 0 50.000000 725.000000"
 preserveAspectRatio="xMidYMid meet">
<metadata>
Created by potrace 1.16, written by Peter Selinger 2001-2019
</metadata>
<g transform="translate(0.000000,725.000000) scale(0.100000,-0.100000)"
fill="#000000" stroke="none">
<path d="M128 7008 c2 -57 6 -105 8 -107 11 -12 16 16 17 105 2 80 -1 99 -13
101 -13 3 -14 -12 -12 -99z"/>
<path d="M128 6558 c2 -57 6 -105 8 -107 9 -9 13 8 22 99 9 94 5 109 -23 110
-6 0 -9 -38 -7 -102z"/>
<path d="M180 6650 c0 -5 7 -10 15 -10 12 0 15 -16 15 -86 0 -64 3 -85 13 -82
11 4 29 163 20 181 -6 11 -63 9 -63 -3z"/>
<path d="M124 6194 c3 -9 6 -56 6 -105 0 -101 14 -119 24 -30 6 52 10 59 31
64 24 4 25 2 25 -50 0 -39 4 -54 13 -51 11 4 29 163 20 181 -6 11 -63 9 -63
-3 0 -5 7 -10 15 -10 20 0 19 -36 -1 -44 -30 -11 -37 -6 -31 23 4 21 2 31 -9
35 -26 10 -36 7 -30 -10z"/>
<path d="M124 5744 c3 -9 6 -56 6 -105 0 -53 4 -89 10 -89 6 0 10 13 10 29 0
17 6 31 16 35 31 12 44 6 44 -20 0 -16 5 -24 13 -22 11 4 29 163 20 181 -6 11
-63 9 -63 -3 0 -5 7 -10 15 -10 20 0 19 -36 -1 -44 -30 -11 -37 -6 -31 23 4
21 2 31 -9 35 -26 10 -36 7 -30 -10z m86 -83 c0 -12 -9 -20 -25 -23 -19 -4
-25 -1 -25 13 0 10 9 19 23 22 12 2 23 5 25 6 1 0 2 -7 2 -18z"/>
<path d="M128 5210 c4 -96 3 -100 -17 -100 -25 0 -28 -18 -5 -27 17 -6 154 37
154 49 0 5 -5 8 -11 8 -7 0 -10 27 -8 83 l4 82 -32 3 c-19 2 -33 -1 -33 -7 0
-6 7 -11 15 -11 20 0 19 -36 -1 -44 -30 -11 -37 -6 -31 23 6 27 -5 41 -31 41
-4 0 -5 -45 -4 -100z m82 1 c0 -12 -9 -20 -25 -23 -19 -4 -25 -1 -25 13 0 10
9 19 23 22 12 2 23 5 25 6 1 0 2 -7 2 -18z m0 -61 c0 -11 -3 -20 -7 -20 -5 0
-18 -3 -30 -6 -18 -5 -23 -2 -23 14 0 21 12 30 43 31 11 1 17 -6 17 -19z"/>
<path d="M128 4760 c4 -96 3 -100 -17 -100 -25 0 -28 -18 -5 -27 17 -6 154 37
154 49 0 5 -5 8 -11 8 -7 0 -10 27 -8 83 l4 82 -32 3 c-19 2 -33 -1 -33 -7 0
-6 7 -11 15 -11 20 0 19 -36 -1 -44 -30 -11 -37 -6 -31 23 6 27 -5 41 -31 41
-4 0 -5 -45 -4 -100z m82 1 c0 -12 -9 -20 -25 -23 -19 -4 -25 -1 -25 13 0 10
9 19 23 22 12 2 23 5 25 6 1 0 2 -7 2 -18z m0 -61 c0 -11 -3 -20 -7 -20 -5 0
-18 -3 -30 -6 -18 -5 -23 -2 -23 14 0 21 12 30 43 31 11 1 17 -6 17 -19z"/>
<path d="M335 4805 c-5 -2 -22 -6 -37 -9 -16 -4 -28 -11 -28 -17 0 -7 10 -9
26 -5 15 4 40 10 57 13 l30 6 -7 -57 c-8 -74 -21 -99 -47 -91 -24 8 -25 -7 -1
-28 43 -39 62 -14 81 104 6 36 11 71 11 77 0 11 -59 16 -85 7z"/>
<path d="M320 4405 c0 -39 -4 -47 -25 -57 -30 -13 -34 -33 -5 -25 19 5 19 4 0
-45 -10 -28 -31 -68 -45 -90 -28 -42 -27 -60 1 -37 26 22 59 79 78 137 14 40
22 52 38 52 19 0 20 -4 14 -56 -8 -72 -21 -97 -47 -89 -24 8 -25 -7 -1 -28 43
-39 62 -14 81 104 15 91 16 89 -25 89 l-35 0 7 45 c6 41 5 45 -15 45 -18 0
-21 -6 -21 -45z"/>
<path d="M128 4310 c4 -96 3 -100 -17 -100 -25 0 -28 -18 -5 -27 17 -6 154 37
154 49 0 5 -5 8 -11 8 -7 0 -10 27 -8 83 l4 82 -32 3 c-19 2 -33 -1 -33 -7 0
-6 7 -11 15 -11 20 0 19 -36 -1 -44 -30 -11 -37 -6 -31 23 6 27 -5 41 -31 41
-4 0 -5 -45 -4 -100z m82 1 c0 -12 -9 -20 -25 -23 -19 -4 -25 -1 -25 13 0 10
9 19 23 22 12 2 23 5 25 6 1 0 2 -7 2 -18z m0 -61 c0 -11 -3 -20 -7 -20 -5 0
-18 -3 -30 -6 -18 -5 -23 -2 -23 14 0 21 12 30 43 31 11 1 17 -6 17 -19z"/>
</g>
</svg>
