<?xml version="1.0" standalone="no"?>
<!DOCTYPE svg PUBLIC "-//W3C//DTD SVG 20010904//EN"
 "http://www.w3.org/TR/2001/REC-SVG-20010904/DTD/svg10.dtd">
<svg version="1.0" xmlns="http://www.w3.org/2000/svg"
 width="50.000000pt" height="725.000000pt" viewBox="0 0 50.000000 725.000000"
 preserveAspectRatio="xMidYMid meet">
<metadata>
Created by potrace 1.16, written by Peter Selinger 2001-2019
</metadata>
<g transform="translate(0.000000,725.000000) scale(0.100000,-0.100000)"
fill="#000000" stroke="none">
<path d="M153 7138 c-39 -8 -60 -28 -31 -28 34 0 138 23 138 31 0 11 -51 10
-107 -3z"/>
<path d="M153 6688 c-39 -8 -60 -28 -31 -28 34 0 138 23 138 31 0 11 -51 10
-107 -3z"/>
<path d="M111 6609 c-11 -36 -10 -43 5 -60 9 -10 21 -19 26 -19 14 0 9 22 -8
35 -15 11 -15 14 1 38 16 24 14 47 -4 47 -4 0 -13 -18 -20 -41z"/>
<path d="M153 6238 c-39 -8 -60 -28 -31 -28 34 0 138 23 138 31 0 11 -51 10
-107 -3z"/>
<path d="M111 6159 c-11 -36 -10 -43 5 -60 9 -10 21 -19 26 -19 14 0 9 22 -8
35 -15 11 -15 14 1 38 16 24 14 47 -4 47 -4 0 -13 -18 -20 -41z"/>
<path d="M163 6163 c-10 -32 -9 -41 4 -55 9 -10 20 -18 25 -18 14 0 9 30 -7
36 -13 5 -13 8 0 27 18 26 19 47 2 47 -6 0 -17 -17 -24 -37z"/>
<path d="M153 5788 c-39 -8 -60 -28 -31 -28 34 0 138 23 138 31 0 11 -51 10
-107 -3z"/>
<path d="M219 5720 c-13 -42 -2 -70 27 -70 19 0 18 26 -2 34 -15 6 -15 8 0 31
16 25 14 45 -4 45 -5 0 -15 -18 -21 -40z"/>
<path d="M111 5709 c-11 -36 -10 -43 5 -60 9 -10 21 -19 26 -19 14 0 9 22 -8
35 -15 11 -15 14 1 38 16 24 14 47 -4 47 -4 0 -13 -18 -20 -41z"/>
<path d="M163 5713 c-10 -32 -9 -41 4 -55 9 -10 20 -18 25 -18 14 0 9 30 -7
36 -13 5 -13 8 0 27 18 26 19 47 2 47 -6 0 -17 -17 -24 -37z"/>
<path d="M153 5338 c-39 -8 -60 -28 -31 -28 34 0 138 23 138 31 0 11 -51 10
-107 -3z"/>
<path d="M219 5270 c-13 -42 -2 -70 27 -70 19 0 18 26 -2 34 -15 6 -15 8 0 31
16 25 14 45 -4 45 -5 0 -15 -18 -21 -40z"/>
<path d="M111 5259 c-11 -36 -10 -43 5 -60 9 -10 21 -19 26 -19 14 0 9 22 -8
35 -15 11 -15 14 1 38 16 24 14 47 -4 47 -4 0 -13 -18 -20 -41z"/>
<path d="M163 5263 c-10 -32 -9 -41 4 -55 9 -10 20 -18 25 -18 14 0 9 30 -7
36 -13 5 -13 8 0 27 18 26 19 47 2 47 -6 0 -17 -17 -24 -37z"/>
<path d="M178 5177 c-68 -15 -61 -31 10 -22 31 4 59 8 61 10 5 5 -9 25 -17 24
-4 -1 -28 -6 -54 -12z"/>
<path d="M153 4888 c-39 -8 -60 -28 -31 -28 34 0 138 23 138 31 0 11 -51 10
-107 -3z"/>
<path d="M219 4820 c-13 -42 -2 -70 27 -70 19 0 18 26 -2 34 -15 6 -15 8 0 31
16 25 14 45 -4 45 -5 0 -15 -18 -21 -40z"/>
<path d="M111 4809 c-11 -36 -10 -43 5 -60 9 -10 21 -19 26 -19 14 0 9 22 -8
35 -15 11 -15 14 1 38 16 24 14 47 -4 47 -4 0 -13 -18 -20 -41z"/>
<path d="M163 4813 c-10 -32 -9 -41 4 -55 9 -10 20 -18 25 -18 14 0 9 30 -7
36 -13 5 -13 8 0 27 18 26 19 47 2 47 -6 0 -17 -17 -24 -37z"/>
<path d="M178 4727 c-51 -11 -64 -27 -23 -27 22 0 25 -3 19 -25 -5 -19 -2 -25
9 -25 10 0 17 11 19 28 2 19 9 28 26 30 13 2 21 9 19 15 -5 15 -15 16 -69 4z"/>
<path d="M153 4438 c-39 -8 -60 -28 -31 -28 34 0 138 23 138 31 0 11 -51 10
-107 -3z"/>
<path d="M219 4370 c-13 -42 -2 -70 27 -70 19 0 18 26 -2 34 -15 6 -15 8 0 31
16 25 14 45 -4 45 -5 0 -15 -18 -21 -40z"/>
<path d="M111 4359 c-11 -36 -10 -43 5 -60 9 -10 21 -19 26 -19 14 0 9 22 -8
35 -15 11 -15 14 1 38 16 24 14 47 -4 47 -4 0 -13 -18 -20 -41z"/>
<path d="M163 4363 c-10 -32 -9 -41 4 -55 9 -10 20 -18 25 -18 14 0 9 30 -7
36 -13 5 -13 8 0 27 18 26 19 47 2 47 -6 0 -17 -17 -24 -37z"/>
<path d="M178 4277 c-52 -11 -64 -27 -22 -27 20 0 25 -4 20 -16 -3 -9 -6 -19
-6 -24 0 -5 -18 -11 -40 -15 -39 -7 -50 -18 -30 -30 14 -9 140 34 140 47 0 6
-9 8 -21 5 -16 -4 -20 -1 -17 16 2 14 11 23 26 25 13 2 21 9 19 15 -5 15 -15
16 -69 4z"/>
<path d="M153 3988 c-39 -8 -60 -28 -31 -28 34 0 138 23 138 31 0 11 -51 10
-107 -3z"/>
<path d="M219 3920 c-9 -31 -9 -43 1 -55 14 -17 40 -20 40 -5 0 6 11 10 25 10
14 0 25 5 25 11 0 8 -12 10 -34 6 -43 -7 -50 0 -31 30 15 23 13 43 -5 43 -5 0
-15 -18 -21 -40z"/>
<path d="M111 3909 c-11 -36 -10 -43 5 -60 9 -10 21 -19 26 -19 14 0 9 22 -8
35 -15 11 -15 14 1 38 16 24 14 47 -4 47 -4 0 -13 -18 -20 -41z"/>
<path d="M163 3913 c-10 -32 -9 -41 4 -55 9 -10 20 -18 25 -18 14 0 9 30 -7
36 -13 5 -13 8 0 27 18 26 19 47 2 47 -6 0 -17 -17 -24 -37z"/>
<path d="M343 3903 c-33 -6 -28 -25 5 -21 26 3 27 1 25 -40 -3 -58 -21 -112
-39 -112 -19 0 -18 -29 2 -37 26 -10 43 19 60 97 24 108 23 115 -6 116 -14 1
-35 0 -47 -3z"/>
<path d="M178 3827 c-52 -11 -64 -27 -22 -27 20 0 25 -4 20 -16 -3 -9 -6 -19
-6 -24 0 -5 -18 -11 -40 -15 -39 -7 -50 -18 -30 -30 14 -9 140 34 140 47 0 6
-9 8 -21 5 -16 -4 -20 -1 -17 16 2 14 11 23 26 25 13 2 21 9 19 15 -5 15 -15
16 -69 4z"/>
<path d="M153 3538 c-39 -8 -60 -28 -31 -28 34 0 138 23 138 31 0 11 -51 10
-107 -3z"/>
<path d="M318 3493 c-3 -45 -5 -48 -38 -54 -45 -10 -55 -2 -35 27 15 24 13 44
-5 44 -5 0 -15 -18 -21 -40 -9 -31 -9 -43 1 -55 14 -17 40 -20 40 -5 0 6 12
10 26 10 22 0 24 -3 18 -22 -9 -31 -33 -77 -56 -111 -11 -16 -17 -31 -13 -35
13 -13 72 65 90 119 18 55 32 72 48 62 20 -12 -16 -153 -39 -153 -19 0 -18
-29 2 -37 26 -10 43 19 60 97 25 113 25 115 -14 115 -32 0 -33 1 -30 40 2 30
-1 40 -14 43 -14 3 -17 -6 -20 -45z"/>
<path d="M111 3459 c-11 -36 -10 -43 5 -60 9 -10 21 -19 26 -19 14 0 9 22 -8
35 -15 11 -15 14 1 38 16 24 14 47 -4 47 -4 0 -13 -18 -20 -41z"/>
<path d="M163 3463 c-10 -32 -9 -41 4 -55 9 -10 20 -18 25 -18 14 0 9 30 -7
36 -13 5 -13 8 0 27 18 26 19 47 2 47 -6 0 -17 -17 -24 -37z"/>
<path d="M178 3377 c-52 -11 -64 -27 -22 -27 20 0 25 -4 20 -16 -3 -9 -6 -19
-6 -24 0 -5 -18 -11 -40 -15 -39 -7 -50 -18 -30 -30 14 -9 140 34 140 47 0 6
-9 8 -21 5 -16 -4 -20 -1 -17 16 2 14 11 23 26 25 13 2 21 9 19 15 -5 15 -15
16 -69 4z"/>
</g>
</svg>
