<?xml version="1.0" standalone="no"?>
<!DOCTYPE svg PUBLIC "-//W3C//DTD SVG 20010904//EN"
 "http://www.w3.org/TR/2001/REC-SVG-20010904/DTD/svg10.dtd">
<svg version="1.0" xmlns="http://www.w3.org/2000/svg"
 width="50.000000pt" height="725.000000pt" viewBox="0 0 50.000000 725.000000"
 preserveAspectRatio="xMidYMid meet">
<metadata>
Created by potrace 1.16, written by Peter Selinger 2001-2019
</metadata>
<g transform="translate(0.000000,725.000000) scale(0.100000,-0.100000)"
fill="#000000" stroke="none">
<path d="M188 7116 c-15 -13 -33 -26 -40 -29 -7 -2 -10 -8 -5 -12 11 -13 101
28 105 48 5 25 -28 21 -60 -7z"/>
<path d="M195 6670 c-10 -11 -26 -22 -36 -25 -25 -8 -24 -25 1 -25 18 0 20 -7
20 -56 0 -58 -9 -84 -43 -121 -26 -30 -15 -41 19 -19 35 23 51 67 56 150 3 50
9 71 21 78 9 5 17 16 17 23 0 22 -34 18 -55 -5z"/>
<path d="M195 6220 c-10 -11 -26 -22 -36 -25 -25 -8 -24 -25 1 -25 15 0 20 -7
20 -25 0 -23 -3 -25 -51 -25 -36 0 -49 -4 -46 -12 3 -8 21 -12 51 -11 40 1 46
-1 46 -19 0 -24 -16 -56 -43 -85 -28 -31 -13 -42 21 -16 23 17 41 55 58 121 2
9 33 12 110 12 80 0 105 3 101 13 -3 9 -32 11 -109 9 l-106 -3 3 32 c1 17 10
36 19 41 9 5 16 16 16 23 0 22 -34 18 -55 -5z"/>
<path d="M290 5751 l0 -71 -39 0 c-37 0 -39 1 -36 31 1 18 10 36 19 41 9 5 16
16 16 23 0 22 -34 18 -55 -5 -10 -11 -26 -22 -36 -25 -25 -8 -24 -25 1 -25 15
0 20 -7 20 -25 0 -23 -3 -25 -51 -25 -36 0 -49 -4 -46 -12 3 -8 21 -12 51 -11
40 1 46 -1 46 -19 0 -24 -16 -56 -43 -85 -28 -31 -13 -42 21 -16 23 17 41 55
58 121 2 7 19 12 39 12 l35 0 0 -95 c0 -52 4 -95 9 -95 14 0 21 39 21 118 l0
72 56 0 c74 0 70 24 -5 28 l-53 3 4 62 c2 52 0 62 -14 65 -16 3 -18 -5 -18
-67z"/>
</g>
</svg>
