<?xml version="1.0" standalone="no"?>
<!DOCTYPE svg PUBLIC "-//W3C//DTD SVG 20010904//EN"
 "http://www.w3.org/TR/2001/REC-SVG-20010904/DTD/svg10.dtd">
<svg version="1.0" xmlns="http://www.w3.org/2000/svg"
 width="50.000000pt" height="725.000000pt" viewBox="0 0 50.000000 725.000000"
 preserveAspectRatio="xMidYMid meet">
<metadata>
Created by potrace 1.16, written by Peter Selinger 2001-2019
</metadata>
<g transform="translate(0.000000,725.000000) scale(0.100000,-0.100000)"
fill="#000000" stroke="none">
<path d="M222 7144 c-13 -20 -21 -38 -18 -41 9 -9 77 48 73 60 -8 25 -33 16
-55 -19z"/>
<path d="M222 6694 c-13 -20 -21 -38 -18 -41 9 -9 77 48 73 60 -8 25 -33 16
-55 -19z"/>
<path d="M155 6644 c4 -11 11 -36 15 -57 15 -76 37 -62 24 15 -7 40 -14 54
-28 56 -15 3 -17 0 -11 -14z"/>
<path d="M218 6240 c-21 -31 -31 -37 -49 -33 -19 5 -21 3 -15 -13 8 -19 9 -23
21 -76 10 -51 28 -32 21 22 l-7 50 36 0 c19 0 35 5 35 10 0 6 -7 10 -16 10
-10 0 -7 7 12 23 16 14 24 29 20 35 -13 21 -30 12 -58 -28z"/>
<path d="M270 6210 c0 -5 12 -10 26 -10 24 0 26 -3 21 -32 -3 -18 -8 -41 -12
-50 -5 -12 -2 -18 8 -18 16 0 60 96 51 111 -7 12 -94 11 -94 -1z"/>
<path d="M218 5790 c-21 -31 -31 -37 -49 -33 -19 5 -21 3 -15 -13 8 -19 9 -23
21 -76 7 -35 25 -37 25 -3 0 20 5 25 24 25 13 0 38 3 56 7 32 6 33 5 26 -20
-5 -20 -3 -27 7 -27 16 0 60 97 51 111 -7 12 -94 11 -94 -1 0 -5 11 -10 25
-10 45 0 28 -27 -21 -34 -69 -9 -84 -8 -84 9 0 10 11 15 35 15 19 0 35 5 35
10 0 6 -7 10 -16 10 -10 0 -7 7 12 23 16 14 24 29 20 35 -13 21 -30 12 -58
-28z"/>
<path d="M218 5340 c-21 -31 -31 -37 -49 -33 -19 5 -21 3 -15 -13 8 -19 9 -23
21 -76 7 -35 25 -37 25 -3 0 20 5 25 24 25 13 0 38 3 55 6 24 5 31 3 31 -10 0
-13 -11 -16 -50 -16 -27 0 -50 -4 -50 -10 0 -6 26 -10 59 -10 l58 0 22 51 c11
28 18 55 15 60 -7 12 -94 11 -94 -1 0 -5 11 -10 25 -10 45 0 28 -27 -21 -34
-69 -9 -84 -8 -84 9 0 10 11 15 35 15 19 0 35 5 35 10 0 6 -7 10 -16 10 -10 0
-7 7 12 23 16 14 24 29 20 35 -13 21 -30 12 -58 -28z"/>
<path d="M218 4890 c-21 -31 -31 -37 -49 -33 -19 5 -21 3 -15 -13 8 -19 9 -23
21 -76 7 -35 25 -37 25 -3 0 16 6 25 15 25 8 0 15 -4 15 -10 0 -5 -4 -10 -10
-10 -5 0 -10 -8 -10 -17 0 -9 -7 -25 -17 -35 -9 -10 -13 -21 -9 -26 4 -4 21 8
37 26 23 26 36 32 68 32 37 0 39 2 60 51 11 28 18 55 15 60 -7 12 -94 11 -94
-1 0 -5 11 -10 25 -10 16 0 25 -6 25 -15 0 -23 -47 -19 -53 5 -3 11 -13 20
-22 20 -12 0 -9 6 11 23 16 14 24 29 20 35 -13 21 -30 12 -58 -28z m12 -65 c0
-8 -9 -15 -20 -15 -11 0 -20 7 -20 15 0 8 9 15 20 15 11 0 20 -7 20 -15z m80
-40 c0 -10 -10 -15 -31 -15 -27 0 -30 2 -19 15 7 8 21 15 31 15 11 0 19 -7 19
-15z"/>
<path d="M218 4440 c-21 -31 -31 -37 -49 -33 -19 5 -21 3 -15 -13 8 -19 9 -23
21 -76 7 -35 25 -37 25 -3 0 16 6 25 15 25 8 0 15 -4 15 -10 0 -5 -4 -10 -10
-10 -5 0 -10 -8 -10 -18 0 -29 -33 -52 -73 -52 -28 0 -37 -4 -37 -16 0 -14 7
-16 47 -10 27 4 99 9 161 13 75 4 111 10 109 17 -4 11 -136 11 -185 0 -23 -5
-23 -5 -5 20 14 20 27 25 59 26 40 0 42 1 63 51 11 28 18 55 15 60 -7 12 -94
11 -94 -1 0 -5 11 -10 25 -10 16 0 25 -6 25 -15 0 -23 -47 -19 -53 5 -3 11
-13 20 -22 20 -12 0 -9 6 11 23 16 14 24 29 20 35 -13 21 -30 12 -58 -28z m12
-65 c0 -8 -9 -15 -20 -15 -11 0 -20 7 -20 15 0 8 9 15 20 15 11 0 20 -7 20
-15z m80 -40 c0 -10 -10 -15 -31 -15 -27 0 -30 2 -19 15 7 8 21 15 31 15 11 0
19 -7 19 -15z"/>
<path d="M218 3990 c-21 -31 -31 -37 -49 -33 -19 5 -21 3 -15 -13 8 -19 9 -23
21 -76 7 -35 25 -37 25 -3 0 16 6 25 15 25 8 0 15 -4 15 -10 0 -5 -4 -10 -10
-10 -5 0 -10 -8 -10 -18 0 -29 -33 -52 -73 -52 -27 0 -37 -4 -37 -15 0 -13 12
-14 80 -9 l80 7 0 -57 c0 -74 18 -73 22 2 l3 57 68 3 c48 2 67 7 64 15 -3 8
-25 11 -64 10 -53 -2 -61 0 -66 17 -4 16 0 20 18 20 18 0 27 11 44 51 11 28
18 55 15 60 -7 12 -94 11 -94 -1 0 -5 11 -10 25 -10 16 0 25 -6 25 -15 0 -23
-47 -19 -53 5 -3 11 -13 20 -22 20 -12 0 -9 6 11 23 16 14 24 29 20 35 -13 21
-30 12 -58 -28z m12 -65 c0 -8 -9 -15 -20 -15 -11 0 -20 7 -20 15 0 8 9 15 20
15 11 0 20 -7 20 -15z m80 -40 c0 -10 -10 -15 -31 -15 -27 0 -30 2 -19 15 7 8
21 15 31 15 11 0 19 -7 19 -15z m-69 -77 c-29 -12 -32 -8 -14 16 15 21 19 22
24 8 4 -11 0 -20 -10 -24z"/>
</g>
</svg>
