<?xml version="1.0" standalone="no"?>
<!DOCTYPE svg PUBLIC "-//W3C//DTD SVG 20010904//EN"
 "http://www.w3.org/TR/2001/REC-SVG-20010904/DTD/svg10.dtd">
<svg version="1.0" xmlns="http://www.w3.org/2000/svg"
 width="50.000000pt" height="725.000000pt" viewBox="0 0 50.000000 725.000000"
 preserveAspectRatio="xMidYMid meet">
<metadata>
Created by potrace 1.16, written by Peter Selinger 2001-2019
</metadata>
<g transform="translate(0.000000,725.000000) scale(0.100000,-0.100000)"
fill="#000000" stroke="none">
<path d="M163 7093 c-40 -5 -44 -23 -5 -23 45 0 102 12 102 21 0 9 -35 9 -97
2z"/>
<path d="M177 6680 c5 -38 4 -40 -21 -40 -14 0 -26 -4 -26 -10 0 -5 11 -10 25
-10 20 0 25 -5 25 -26 0 -34 24 -26 28 9 3 21 9 27 28 27 13 0 24 5 24 10 0 6
-11 10 -25 10 -22 0 -25 4 -25 35 0 28 -4 35 -19 35 -16 0 -18 -5 -14 -40z"/>
<path d="M177 6230 c5 -38 4 -40 -21 -40 -14 0 -26 -4 -26 -10 0 -5 12 -10 26
-10 42 0 27 -33 -19 -41 -39 -6 -54 -15 -44 -25 11 -11 180 21 185 35 3 9 -5
11 -32 6 -32 -6 -36 -5 -36 14 0 16 6 21 25 21 14 0 25 5 25 10 0 6 -11 10
-25 10 -22 0 -25 4 -25 35 0 28 -4 35 -19 35 -16 0 -18 -5 -14 -40z"/>
<path d="M177 5780 c5 -38 4 -40 -21 -40 -14 0 -26 -4 -26 -10 0 -5 12 -10 26
-10 42 0 27 -33 -19 -41 -39 -6 -54 -15 -44 -25 11 -11 180 21 185 35 3 9 -5
11 -32 6 -32 -6 -36 -5 -36 14 0 16 6 21 25 21 14 0 25 5 25 10 0 6 -11 10
-25 10 -22 0 -25 4 -25 35 0 28 -4 35 -19 35 -16 0 -18 -5 -14 -40z"/>
<path d="M163 5613 c-40 -5 -44 -23 -5 -23 45 0 102 12 102 21 0 9 -35 9 -97
2z"/>
<path d="M177 5330 c5 -38 4 -40 -21 -40 -14 0 -26 -4 -26 -10 0 -5 12 -10 26
-10 19 0 25 -5 22 -17 -2 -10 -12 -19 -23 -21 -48 -7 -65 -13 -65 -24 0 -7 14
-9 39 -5 29 4 41 1 45 -10 10 -26 6 -33 -19 -33 -14 0 -25 -4 -25 -10 0 -5 11
-10 25 -10 20 0 25 -5 25 -25 0 -35 19 -31 27 5 4 23 11 30 29 30 13 0 24 5
24 10 0 6 -11 10 -24 10 -17 0 -25 7 -28 24 -5 22 -1 25 30 28 20 2 37 9 40
16 3 10 -4 12 -32 7 -32 -6 -36 -5 -36 14 0 16 6 21 25 21 14 0 25 5 25 10 0
6 -11 10 -25 10 -22 0 -25 4 -25 35 0 28 -4 35 -19 35 -16 0 -18 -5 -14 -40z"/>
<path d="M177 4880 c5 -38 4 -40 -21 -40 -14 0 -26 -4 -26 -10 0 -5 12 -10 26
-10 19 0 25 -5 22 -17 -2 -10 -12 -19 -23 -21 -48 -7 -65 -13 -65 -24 0 -7 14
-9 39 -5 29 4 41 1 45 -10 10 -26 6 -33 -19 -33 -14 0 -25 -4 -25 -10 0 -5 11
-10 25 -10 18 0 25 -5 25 -19 0 -21 -19 -31 -61 -31 -32 0 -37 -11 -14 -30 11
-9 27 -6 79 14 35 14 69 26 75 26 6 0 11 5 11 11 0 7 -11 8 -30 4 -26 -6 -30
-4 -30 14 0 16 6 21 25 21 14 0 25 5 25 10 0 6 -11 10 -24 10 -17 0 -25 7 -28
24 -5 22 -1 25 30 28 20 2 37 9 40 16 3 10 -4 12 -32 7 -32 -6 -36 -5 -36 14
0 16 6 21 25 21 14 0 25 5 25 10 0 6 -11 10 -25 10 -22 0 -25 4 -25 35 0 28
-4 35 -19 35 -16 0 -18 -5 -14 -40z"/>
<path d="M177 4430 c5 -38 4 -40 -21 -40 -14 0 -26 -4 -26 -10 0 -5 12 -10 26
-10 19 0 25 -5 22 -17 -2 -10 -12 -19 -23 -21 -48 -7 -65 -13 -65 -24 0 -7 14
-9 39 -5 29 4 41 1 45 -10 10 -26 6 -33 -19 -33 -14 0 -25 -4 -25 -10 0 -5 11
-10 25 -10 18 0 25 -5 25 -19 0 -21 -19 -31 -61 -31 -32 0 -37 -11 -14 -30 11
-9 27 -6 79 14 35 14 69 26 75 26 6 0 11 5 11 11 0 7 -11 8 -30 4 -26 -6 -30
-4 -30 14 0 16 6 21 25 21 14 0 25 5 25 10 0 6 -11 10 -24 10 -17 0 -25 7 -28
24 -5 22 -1 25 30 28 20 2 37 9 40 16 3 10 -4 12 -32 7 -32 -6 -36 -5 -36 14
0 16 6 21 25 21 14 0 25 5 25 10 0 6 -11 10 -25 10 -22 0 -25 4 -25 35 0 28
-4 35 -19 35 -16 0 -18 -5 -14 -40z"/>
<path d="M303 4295 c-2 -154 3 -196 20 -167 3 4 6 81 8 172 3 140 2 165 -11
168 -13 2 -15 -23 -17 -173z"/>
<path d="M177 3980 c5 -38 4 -40 -21 -40 -14 0 -26 -4 -26 -10 0 -5 12 -10 26
-10 19 0 25 -5 22 -17 -2 -10 -12 -19 -23 -21 -48 -7 -65 -13 -65 -24 0 -7 14
-9 39 -5 29 4 41 1 45 -10 10 -26 6 -33 -19 -33 -14 0 -25 -4 -25 -10 0 -5 11
-10 25 -10 18 0 25 -5 25 -19 0 -21 -19 -31 -61 -31 -32 0 -37 -11 -14 -30 11
-9 27 -6 79 14 35 14 69 26 75 26 6 0 11 5 11 11 0 7 -11 8 -30 4 -26 -6 -30
-4 -30 14 0 16 6 21 25 21 14 0 25 5 25 10 0 6 -11 10 -24 10 -17 0 -25 7 -28
24 -5 22 -1 25 30 28 20 2 37 9 40 16 3 10 -4 12 -32 7 -32 -6 -36 -5 -36 14
0 16 6 21 25 21 14 0 25 5 25 10 0 6 -11 10 -25 10 -22 0 -25 4 -25 35 0 28
-4 35 -19 35 -16 0 -18 -5 -14 -40z"/>
<path d="M303 3844 c-2 -134 1 -174 10 -171 8 2 13 37 15 106 l3 102 35 -30
c37 -33 64 -40 64 -17 0 21 -25 43 -65 56 -35 12 -35 12 -33 68 2 43 0 57 -12
59 -13 3 -15 -22 -17 -173z"/>
</g>
</svg>
