<?xml version="1.0" standalone="no"?>
<!DOCTYPE svg PUBLIC "-//W3C//DTD SVG 20010904//EN"
 "http://www.w3.org/TR/2001/REC-SVG-20010904/DTD/svg10.dtd">
<svg version="1.0" xmlns="http://www.w3.org/2000/svg"
 width="50.000000pt" height="725.000000pt" viewBox="0 0 50.000000 725.000000"
 preserveAspectRatio="xMidYMid meet">
<metadata>
Created by potrace 1.16, written by Peter Selinger 2001-2019
</metadata>
<g transform="translate(0.000000,725.000000) scale(0.100000,-0.100000)"
fill="#000000" stroke="none">
<path d="M228 7132 c-74 -15 -105 -32 -55 -32 41 1 159 18 165 25 6 6 -17 26
-28 24 -3 -1 -40 -8 -82 -17z"/>
<path d="M230 6682 l-75 -15 -2 -57 c-1 -59 -29 -138 -60 -172 -23 -25 -8 -35
18 -12 32 28 56 82 70 154 6 36 13 67 15 68 1 2 32 7 69 12 37 5 69 11 73 15
6 6 -17 26 -28 24 -3 -1 -39 -8 -80 -17z"/>
<path d="M230 6232 l-75 -15 -2 -57 c-1 -59 -29 -138 -60 -172 -23 -25 -8 -35
18 -12 23 21 48 65 59 103 5 20 16 27 61 37 29 7 56 10 59 8 13 -13 -48 -100
-87 -123 -41 -25 -54 -41 -33 -41 18 0 84 37 101 56 18 22 69 113 69 124 0 16
-29 18 -86 4 -32 -7 -62 -14 -66 -14 -7 0 0 59 8 68 1 2 32 7 69 12 37 5 69
11 73 15 6 6 -17 26 -28 24 -3 -1 -39 -8 -80 -17z"/>
<path d="M230 5782 l-75 -15 -2 -57 c-1 -59 -29 -138 -60 -172 -24 -27 -7 -35
21 -9 21 20 42 60 61 116 6 18 10 16 41 -20 l35 -40 -28 -22 c-15 -13 -36 -26
-45 -29 -21 -6 -24 -24 -5 -24 6 0 31 11 54 24 l41 24 24 -25 c13 -14 31 -29
41 -35 19 -10 97 -2 97 10 0 4 -20 15 -45 25 -24 11 -56 28 -70 39 l-26 20 26
45 c14 25 25 49 25 53 0 16 -29 18 -86 4 -32 -7 -62 -14 -66 -14 -7 0 0 59 8
68 1 2 32 7 69 12 37 5 69 11 73 15 6 6 -17 26 -28 24 -3 -1 -39 -8 -80 -17z
m60 -114 c-1 -7 -6 -23 -13 -36 l-13 -23 -23 25 c-18 20 -21 27 -10 30 8 2 21
7 29 9 25 9 30 8 30 -5z"/>
</g>
</svg>
