<?xml version="1.0" standalone="no"?>
<!DOCTYPE svg PUBLIC "-//W3C//DTD SVG 20010904//EN"
 "http://www.w3.org/TR/2001/REC-SVG-20010904/DTD/svg10.dtd">
<svg version="1.0" xmlns="http://www.w3.org/2000/svg"
 width="50.000000pt" height="725.000000pt" viewBox="0 0 50.000000 725.000000"
 preserveAspectRatio="xMidYMid meet">
<metadata>
Created by potrace 1.16, written by Peter Selinger 2001-2019
</metadata>
<g transform="translate(0.000000,725.000000) scale(0.100000,-0.100000)"
fill="#000000" stroke="none">
<path d="M232 7145 c-18 -13 -38 -26 -45 -28 -7 -2 -9 -7 -6 -11 5 -5 108 20
118 30 5 5 -20 34 -28 33 -3 0 -21 -11 -39 -24z"/>
<path d="M232 6695 c-18 -13 -38 -26 -45 -28 -7 -2 -9 -7 -6 -11 5 -5 108 20
118 30 5 5 -20 34 -28 33 -3 0 -21 -11 -39 -24z"/>
<path d="M150 6634 c0 -16 23 -44 35 -44 18 0 20 21 3 38 -12 12 -38 17 -38 6z"/>
<path d="M232 6245 c-18 -13 -38 -26 -45 -28 -7 -2 -9 -7 -6 -11 5 -5 108 20
118 30 5 5 -20 34 -28 33 -3 0 -21 -11 -39 -24z"/>
<path d="M210 6195 c0 -14 21 -45 31 -45 18 0 5 45 -13 48 -10 2 -18 1 -18 -3z"/>
<path d="M150 6184 c0 -16 23 -44 35 -44 18 0 20 21 3 38 -12 12 -38 17 -38 6z"/>
<path d="M232 5795 c-18 -13 -38 -26 -45 -28 -7 -2 -9 -7 -6 -11 5 -5 108 20
118 30 5 5 -20 34 -28 33 -3 0 -21 -11 -39 -24z"/>
<path d="M298 5745 c-18 -24 -24 -50 -10 -43 52 26 62 34 60 47 -5 25 -31 23
-50 -4z"/>
<path d="M210 5745 c0 -14 21 -45 31 -45 18 0 5 45 -13 48 -10 2 -18 1 -18 -3z"/>
<path d="M150 5734 c0 -16 23 -44 35 -44 18 0 20 21 3 38 -12 12 -38 17 -38 6z"/>
<path d="M232 5345 c-18 -13 -38 -26 -45 -28 -7 -2 -9 -7 -6 -11 5 -5 108 20
118 30 5 5 -20 34 -28 33 -3 0 -21 -11 -39 -24z"/>
<path d="M298 5295 c-18 -24 -24 -50 -10 -43 52 26 62 34 60 47 -5 25 -31 23
-50 -4z"/>
<path d="M210 5295 c0 -14 21 -45 31 -45 18 0 5 45 -13 48 -10 2 -18 1 -18 -3z"/>
<path d="M150 5284 c0 -16 23 -44 35 -44 18 0 20 21 3 38 -12 12 -38 17 -38 6z"/>
<path d="M105 5199 c-4 -17 -4 -33 0 -37 9 -9 35 28 35 50 0 30 -28 20 -35
-13z"/>
<path d="M232 4895 c-18 -13 -38 -26 -45 -28 -7 -2 -9 -7 -6 -11 5 -5 108 20
118 30 5 5 -20 34 -28 33 -3 0 -21 -11 -39 -24z"/>
<path d="M298 4845 c-18 -24 -24 -50 -10 -43 52 26 62 34 60 47 -5 25 -31 23
-50 -4z"/>
<path d="M210 4845 c0 -14 21 -45 31 -45 18 0 5 45 -13 48 -10 2 -18 1 -18 -3z"/>
<path d="M150 4834 c0 -16 23 -44 35 -44 18 0 20 21 3 38 -12 12 -38 17 -38 6z"/>
<path d="M320 4790 c0 -5 7 -10 16 -10 14 0 14 -3 4 -15 -17 -21 -9 -26 28
-19 33 7 40 22 20 42 -14 14 -68 16 -68 2z"/>
<path d="M240 4780 c0 -5 14 -10 30 -10 17 0 30 5 30 10 0 6 -13 10 -30 10
-16 0 -30 -4 -30 -10z"/>
<path d="M105 4749 c-9 -40 2 -50 23 -21 10 13 33 25 55 29 55 9 45 23 -17 23
-53 0 -55 -1 -61 -31z"/>
<path d="M232 4445 c-18 -13 -38 -26 -45 -28 -7 -2 -9 -7 -6 -11 5 -5 108 20
118 30 5 5 -20 34 -28 33 -3 0 -21 -11 -39 -24z"/>
<path d="M298 4395 c-18 -24 -24 -50 -10 -43 52 26 62 34 60 47 -5 25 -31 23
-50 -4z"/>
<path d="M210 4395 c0 -14 21 -45 31 -45 18 0 5 45 -13 48 -10 2 -18 1 -18 -3z"/>
<path d="M150 4384 c0 -16 23 -44 35 -44 18 0 20 21 3 38 -12 12 -38 17 -38 6z"/>
<path d="M320 4340 c0 -5 7 -10 16 -10 14 0 14 -3 4 -15 -17 -21 -9 -26 28
-19 33 7 40 22 20 42 -14 14 -68 16 -68 2z"/>
<path d="M240 4330 c0 -5 14 -10 30 -10 17 0 30 5 30 10 0 6 -13 10 -30 10
-16 0 -30 -4 -30 -10z"/>
<path d="M105 4299 c-9 -40 2 -50 23 -21 10 13 33 25 55 29 55 9 45 23 -17 23
-53 0 -55 -1 -61 -31z"/>
<path d="M218 4287 c-61 -13 -63 -32 -3 -24 25 4 45 4 45 0 0 -19 -45 -72 -75
-89 -34 -18 -46 -34 -25 -34 6 0 29 9 51 20 39 21 103 103 96 125 -5 14 -33
15 -89 2z"/>
<path d="M232 3995 c-18 -13 -38 -26 -45 -28 -7 -2 -9 -7 -6 -11 5 -5 108 20
118 30 5 5 -20 34 -28 33 -3 0 -21 -11 -39 -24z"/>
<path d="M298 3945 c-18 -24 -24 -50 -10 -43 52 26 62 34 60 47 -5 25 -31 23
-50 -4z"/>
<path d="M210 3945 c0 -14 21 -45 31 -45 18 0 5 45 -13 48 -10 2 -18 1 -18 -3z"/>
<path d="M150 3934 c0 -16 23 -44 35 -44 18 0 20 21 3 38 -12 12 -38 17 -38 6z"/>
<path d="M320 3890 c0 -5 7 -10 16 -10 14 0 14 -3 4 -15 -17 -21 -9 -26 28
-19 33 7 40 22 20 42 -14 14 -68 16 -68 2z"/>
<path d="M240 3880 c0 -5 14 -10 30 -10 17 0 30 5 30 10 0 6 -13 10 -30 10
-16 0 -30 -4 -30 -10z"/>
<path d="M105 3849 c-9 -40 2 -50 23 -21 10 13 33 25 55 29 55 9 45 23 -17 23
-53 0 -55 -1 -61 -31z"/>
<path d="M220 3837 c-25 -5 -47 -12 -49 -14 -3 -2 10 -19 28 -37 l33 -34 -41
-24 c-66 -37 -51 -54 18 -18 39 19 39 19 57 -1 10 -12 27 -25 37 -30 20 -11
107 -1 107 11 0 5 -24 16 -52 24 -29 9 -61 22 -71 30 -17 13 -17 15 3 50 33
55 20 64 -70 43z m40 -21 c0 -2 -3 -12 -6 -20 -5 -13 -9 -14 -20 -5 -16 13 -9
29 12 29 8 0 14 -2 14 -4z"/>
</g>
</svg>
