<?xml version="1.0" standalone="no"?>
<!DOCTYPE svg PUBLIC "-//W3C//DTD SVG 20010904//EN"
 "http://www.w3.org/TR/2001/REC-SVG-20010904/DTD/svg10.dtd">
<svg version="1.0" xmlns="http://www.w3.org/2000/svg"
 width="50.000000pt" height="725.000000pt" viewBox="0 0 50.000000 725.000000"
 preserveAspectRatio="xMidYMid meet">
<metadata>
Created by potrace 1.16, written by Peter Selinger 2001-2019
</metadata>
<g transform="translate(0.000000,725.000000) scale(0.100000,-0.100000)"
fill="#000000" stroke="none">
<path d="M170 7120 c0 -29 4 -40 15 -40 11 0 15 11 15 40 0 29 -4 40 -15 40
-11 0 -15 -11 -15 -40z"/>
<path d="M170 6670 c0 -29 4 -40 15 -40 8 0 15 7 15 15 0 9 9 15 25 15 14 0
25 5 25 10 0 6 -11 10 -25 10 -16 0 -25 6 -25 15 0 8 -7 15 -15 15 -11 0 -15
-11 -15 -40z"/>
<path d="M170 6220 c0 -29 4 -40 15 -40 8 0 15 7 15 15 0 9 9 15 25 15 14 0
25 5 25 10 0 6 -11 10 -25 10 -16 0 -25 6 -25 15 0 8 -7 15 -15 15 -11 0 -15
-11 -15 -40z"/>
<path d="M96 6158 c-7 -34 -3 -44 13 -33 13 7 15 65 2 65 -5 0 -11 -14 -15
-32z"/>
<path d="M170 5764 l0 -47 40 7 c32 5 40 3 40 -9 0 -19 11 -19 35 -2 30 23 9
40 -41 34 -24 -2 -44 -1 -44 4 0 5 11 9 25 9 14 0 25 5 25 10 0 6 -11 10 -25
10 -16 0 -25 6 -25 15 0 8 -7 15 -15 15 -11 0 -15 -12 -15 -46z"/>
<path d="M100 5729 c0 -8 -3 -24 -6 -36 -4 -15 -2 -23 6 -23 6 0 14 9 17 20 3
11 14 20 24 20 11 0 19 5 19 10 0 6 -6 10 -14 10 -8 0 -21 3 -30 6 -10 4 -16
1 -16 -7z"/>
<path d="M170 5314 l0 -47 40 7 c32 5 40 3 40 -9 0 -19 11 -19 35 -2 30 23 9
40 -41 34 -24 -2 -44 -1 -44 4 0 5 11 9 25 9 14 0 25 5 25 10 0 6 -11 10 -25
10 -16 0 -25 6 -25 15 0 8 -7 15 -15 15 -11 0 -15 -12 -15 -46z"/>
<path d="M100 5279 c0 -8 -3 -24 -6 -36 -4 -15 -2 -23 6 -23 6 0 14 9 17 20 3
11 14 20 24 20 11 0 19 5 19 10 0 6 -6 10 -14 10 -8 0 -21 3 -30 6 -10 4 -16
1 -16 -7z"/>
<path d="M170 5250 c0 -5 14 -10 30 -10 17 0 30 5 30 10 0 6 -13 10 -30 10
-16 0 -30 -4 -30 -10z"/>
<path d="M170 4864 l0 -47 40 7 c32 5 40 3 40 -9 0 -19 11 -19 35 -2 30 23 9
40 -41 34 -24 -2 -44 -1 -44 4 0 5 11 9 25 9 14 0 25 5 25 10 0 6 -11 10 -25
10 -16 0 -25 6 -25 15 0 8 -7 15 -15 15 -11 0 -15 -12 -15 -46z"/>
<path d="M100 4829 c0 -8 -3 -24 -6 -36 -4 -15 -2 -23 6 -23 6 0 14 9 17 20 3
11 14 20 24 20 11 0 19 5 19 10 0 6 -6 10 -14 10 -8 0 -21 3 -30 6 -10 4 -16
1 -16 -7z"/>
<path d="M170 4800 c0 -5 14 -10 30 -10 17 0 30 5 30 10 0 6 -13 10 -30 10
-16 0 -30 -4 -30 -10z"/>
<path d="M132 4768 c-14 -14 -16 -38 -4 -38 12 0 32 23 32 37 0 16 -12 17 -28
1z"/>
<path d="M170 4414 l0 -47 40 7 c32 5 40 3 40 -9 0 -19 11 -19 35 -2 30 23 9
40 -41 34 -24 -2 -44 -1 -44 4 0 5 11 9 25 9 14 0 25 5 25 10 0 6 -11 10 -25
10 -16 0 -25 6 -25 15 0 8 -7 15 -15 15 -11 0 -15 -12 -15 -46z"/>
<path d="M100 4379 c0 -8 -3 -24 -6 -36 -4 -15 -2 -23 6 -23 6 0 14 9 17 20 3
11 14 20 24 20 11 0 19 5 19 10 0 6 -6 10 -14 10 -8 0 -21 3 -30 6 -10 4 -16
1 -16 -7z"/>
<path d="M170 4350 c0 -5 8 -10 18 -10 9 0 23 -9 30 -20 12 -19 42 -28 42 -12
-1 4 -9 17 -19 30 -19 22 -71 31 -71 12z"/>
<path d="M132 4318 c-14 -14 -16 -38 -4 -38 12 0 32 23 32 37 0 16 -12 17 -28
1z"/>
<path d="M170 3964 l0 -47 40 7 c32 5 40 3 40 -9 0 -19 11 -19 35 -2 30 23 9
40 -41 34 -24 -2 -44 -1 -44 4 0 5 11 9 25 9 14 0 25 5 25 10 0 6 -11 10 -25
10 -16 0 -25 6 -25 15 0 8 -7 15 -15 15 -11 0 -15 -12 -15 -46z"/>
<path d="M100 3929 c0 -8 -3 -24 -6 -36 -4 -15 -2 -23 6 -23 6 0 14 9 17 20 3
11 14 20 24 20 11 0 19 5 19 10 0 6 -6 10 -14 10 -8 0 -21 3 -30 6 -10 4 -16
1 -16 -7z"/>
<path d="M170 3900 c0 -5 8 -10 18 -10 9 0 23 -9 30 -20 12 -19 42 -28 42 -12
-1 4 -9 17 -19 30 -19 22 -71 31 -71 12z"/>
<path d="M132 3868 c-14 -14 -16 -38 -4 -38 12 0 32 23 32 37 0 16 -12 17 -28
1z"/>
<path d="M170 3863 c0 -9 -21 -36 -46 -60 -52 -50 -52 -66 0 -33 59 36 100
110 61 110 -8 0 -15 -8 -15 -17z"/>
<path d="M170 3514 l0 -47 40 7 c32 5 40 3 40 -9 0 -19 11 -19 35 -2 30 23 9
40 -41 34 -24 -2 -44 -1 -44 4 0 5 11 9 25 9 14 0 25 5 25 10 0 6 -11 10 -25
10 -16 0 -25 6 -25 15 0 8 -7 15 -15 15 -11 0 -15 -12 -15 -46z"/>
<path d="M100 3479 c0 -8 -3 -24 -6 -36 -4 -15 -2 -23 6 -23 6 0 14 9 17 20 3
11 14 20 24 20 11 0 19 5 19 10 0 6 -6 10 -14 10 -8 0 -21 3 -30 6 -10 4 -16
1 -16 -7z"/>
<path d="M170 3450 c0 -5 8 -10 18 -10 9 0 23 -9 30 -20 7 -13 8 -20 2 -20 -6
0 -13 7 -16 15 -8 20 -34 19 -34 -2 0 -9 -21 -36 -46 -60 -25 -25 -43 -47 -40
-50 8 -9 73 36 94 64 l19 26 31 -21 c16 -12 35 -22 41 -22 20 0 11 28 -10 35
-16 5 -18 9 -9 15 21 13 -20 59 -52 60 -16 0 -28 -4 -28 -10z"/>
<path d="M132 3418 c-14 -14 -16 -38 -4 -38 12 0 32 23 32 37 0 16 -12 17 -28
1z"/>
<path d="M170 3064 l0 -47 40 7 c32 5 40 3 40 -9 0 -19 11 -19 35 -2 30 23 9
40 -41 34 -24 -2 -44 -1 -44 4 0 5 11 9 25 9 14 0 25 5 25 10 0 6 -11 10 -25
10 -16 0 -25 6 -25 15 0 8 -7 15 -15 15 -11 0 -15 -12 -15 -46z"/>
<path d="M100 3029 c0 -8 -3 -24 -6 -36 -4 -15 -2 -23 6 -23 6 0 14 9 17 20 3
11 14 20 24 20 11 0 19 5 19 10 0 6 -6 10 -14 10 -8 0 -21 3 -30 6 -10 4 -16
1 -16 -7z"/>
<path d="M170 3000 c0 -5 8 -10 18 -10 9 0 23 -9 30 -20 7 -13 8 -20 2 -20 -6
0 -13 7 -16 15 -8 20 -34 19 -34 -2 0 -9 -21 -36 -46 -60 -48 -47 -53 -68 -8
-38 l27 17 -7 -46 c-6 -38 -5 -46 8 -46 13 0 16 12 16 53 0 35 6 60 19 76 l18
24 31 -21 c16 -12 35 -22 41 -22 20 0 11 28 -10 35 -16 5 -18 9 -9 15 21 13
-20 59 -52 60 -16 0 -28 -4 -28 -10z"/>
<path d="M132 2968 c-14 -14 -16 -38 -4 -38 12 0 32 23 32 37 0 16 -12 17 -28
1z"/>
<path d="M170 2614 l0 -47 40 7 c32 5 40 3 40 -9 0 -19 11 -19 35 -2 30 23 9
40 -41 34 -24 -2 -44 -1 -44 4 0 5 11 9 25 9 14 0 25 5 25 10 0 6 -11 10 -25
10 -16 0 -25 6 -25 15 0 8 -7 15 -15 15 -11 0 -15 -12 -15 -46z"/>
<path d="M100 2579 c0 -8 -3 -24 -6 -36 -4 -15 -2 -23 6 -23 6 0 14 9 17 20 3
11 14 20 24 20 11 0 19 5 19 10 0 6 -6 10 -14 10 -8 0 -21 3 -30 6 -10 4 -16
1 -16 -7z"/>
<path d="M170 2550 c0 -5 8 -10 18 -10 9 0 23 -9 30 -20 7 -13 8 -20 2 -20 -6
0 -13 7 -16 15 -8 20 -34 19 -34 -2 0 -9 -21 -36 -46 -60 -48 -47 -53 -68 -8
-38 l27 17 -7 -46 c-6 -38 -5 -46 8 -46 12 0 16 11 16 45 0 32 4 45 14 45 8 0
21 3 30 6 13 5 16 -3 16 -50 0 -44 3 -56 15 -56 13 0 15 11 13 63 l-3 62 -38
-2 c-34 -2 -37 -1 -27 17 13 25 19 25 50 0 14 -11 31 -20 38 -20 21 0 13 28
-9 35 -16 5 -18 9 -9 15 21 13 -20 59 -52 60 -16 0 -28 -4 -28 -10z"/>
<path d="M132 2518 c-14 -14 -16 -38 -4 -38 12 0 32 23 32 37 0 16 -12 17 -28
1z"/>
<path d="M170 2164 l0 -47 40 7 c32 5 40 3 40 -9 0 -19 11 -19 35 -2 30 23 9
40 -41 34 -24 -2 -44 -1 -44 4 0 5 11 9 25 9 14 0 25 5 25 10 0 6 -11 10 -25
10 -16 0 -25 6 -25 15 0 8 -7 15 -15 15 -11 0 -15 -12 -15 -46z"/>
<path d="M100 2129 c0 -8 -3 -24 -6 -36 -4 -15 -2 -23 6 -23 6 0 14 9 17 20 3
11 14 20 24 20 11 0 19 5 19 10 0 6 -6 10 -14 10 -8 0 -21 3 -30 6 -10 4 -16
1 -16 -7z"/>
<path d="M170 2100 c0 -5 8 -10 18 -10 9 0 23 -9 30 -20 7 -13 8 -20 2 -20 -6
0 -13 7 -16 15 -8 20 -34 19 -34 -2 0 -9 -21 -36 -46 -60 -48 -47 -53 -68 -8
-38 l27 17 -7 -46 c-6 -38 -5 -46 8 -46 12 0 16 11 16 45 0 32 4 45 14 45 8 0
21 3 30 6 9 3 16 1 16 -5 0 -6 -11 -11 -25 -11 -14 0 -25 -4 -25 -10 0 -5 11
-10 25 -10 22 0 25 -4 25 -35 0 -25 4 -35 15 -35 13 0 15 11 13 63 l-3 62 -38
-2 c-34 -2 -37 -1 -27 17 13 25 19 25 50 0 14 -11 31 -20 38 -20 21 0 13 28
-9 35 -16 5 -18 9 -9 15 21 13 -20 59 -52 60 -16 0 -28 -4 -28 -10z"/>
<path d="M132 2068 c-14 -14 -16 -38 -4 -38 12 0 32 23 32 37 0 16 -12 17 -28
1z"/>
<path d="M170 1714 l0 -47 40 7 c32 5 40 3 40 -9 0 -19 11 -19 35 -2 30 23 9
40 -41 34 -24 -2 -44 -1 -44 4 0 5 11 9 25 9 14 0 25 5 25 10 0 6 -11 10 -25
10 -16 0 -25 6 -25 15 0 8 -7 15 -15 15 -11 0 -15 -12 -15 -46z"/>
<path d="M100 1679 c0 -8 -3 -24 -6 -36 -4 -15 -2 -23 6 -23 6 0 14 9 17 20 3
11 14 20 24 20 11 0 19 5 19 10 0 6 -6 10 -14 10 -8 0 -21 3 -30 6 -10 4 -16
1 -16 -7z"/>
<path d="M170 1650 c0 -5 8 -10 18 -10 9 0 23 -9 30 -20 7 -13 8 -20 2 -20 -6
0 -13 7 -16 15 -8 20 -34 19 -34 -2 0 -9 -21 -36 -46 -60 -48 -47 -53 -68 -8
-38 l27 17 -7 -46 c-6 -38 -5 -46 8 -46 9 0 16 7 16 15 0 10 10 15 30 15 23 0
30 -4 30 -20 0 -11 7 -20 15 -20 13 0 15 11 13 63 l-3 62 -38 -2 c-34 -2 -37
-1 -27 17 13 25 19 25 50 0 14 -11 31 -20 38 -20 21 0 13 28 -9 35 -16 5 -18
9 -9 15 21 13 -20 59 -52 60 -16 0 -28 -4 -28 -10z m50 -120 c0 -5 -11 -10
-25 -10 -34 0 -32 -18 3 -23 25 -4 25 -4 -5 -6 -26 -1 -33 3 -33 18 0 18 6 21
53 30 4 0 7 -3 7 -9z"/>
<path d="M132 1618 c-14 -14 -16 -38 -4 -38 12 0 32 23 32 37 0 16 -12 17 -28
1z"/>
<path d="M170 1264 l0 -47 40 7 c32 5 40 3 40 -9 0 -19 11 -19 35 -2 30 23 9
40 -41 34 -24 -2 -44 -1 -44 4 0 5 11 9 25 9 14 0 25 5 25 10 0 6 -11 10 -25
10 -16 0 -25 6 -25 15 0 8 -7 15 -15 15 -11 0 -15 -12 -15 -46z"/>
<path d="M100 1229 c0 -8 -3 -24 -6 -36 -4 -15 -2 -23 6 -23 6 0 14 9 17 20 3
11 14 20 24 20 11 0 19 5 19 10 0 6 -6 10 -14 10 -8 0 -21 3 -30 6 -10 4 -16
1 -16 -7z"/>
<path d="M170 1200 c0 -5 8 -10 18 -10 9 0 23 -9 30 -20 7 -13 8 -20 2 -20 -6
0 -13 7 -16 15 -8 20 -34 19 -34 -2 0 -9 -21 -36 -46 -60 -48 -47 -53 -68 -9
-39 l26 17 -3 -48 -3 -48 58 -1 58 0 -3 60 -3 61 -38 -2 c-34 -2 -37 -1 -27
17 13 25 19 25 50 0 14 -11 31 -20 38 -20 21 0 13 28 -9 35 -16 5 -18 9 -9 15
21 13 -20 59 -52 60 -16 0 -28 -4 -28 -10z m50 -120 c0 -5 -11 -10 -25 -10
-34 0 -32 -18 3 -23 25 -4 25 -4 -5 -6 -26 -1 -33 3 -33 18 0 18 6 21 53 30 4
0 7 -3 7 -9z m-1 -64 c-12 -10 -59 -15 -59 -6 0 5 14 10 32 10 17 0 29 -2 27
-4z"/>
<path d="M132 1168 c-14 -14 -16 -38 -4 -38 12 0 32 23 32 37 0 16 -12 17 -28
1z"/>
<path d="M170 814 l0 -47 40 7 c32 5 40 3 40 -9 0 -19 11 -19 35 -2 30 23 9
40 -41 34 -24 -2 -44 -1 -44 4 0 5 11 9 25 9 14 0 25 5 25 10 0 6 -11 10 -25
10 -16 0 -25 6 -25 15 0 8 -7 15 -15 15 -11 0 -15 -12 -15 -46z"/>
<path d="M100 779 c0 -8 -3 -24 -6 -36 -4 -15 -2 -23 6 -23 6 0 14 9 17 20 3
11 14 20 24 20 11 0 19 5 19 10 0 6 -6 10 -14 10 -8 0 -21 3 -30 6 -10 4 -16
1 -16 -7z"/>
<path d="M170 750 c0 -5 8 -10 18 -10 9 0 23 -9 30 -20 7 -13 8 -20 2 -20 -6
0 -13 7 -16 15 -8 20 -34 19 -34 -2 0 -9 -21 -36 -46 -60 -48 -47 -53 -68 -9
-39 l26 17 -3 -48 -3 -48 58 -1 58 0 -3 60 -3 61 -38 -2 c-34 -2 -37 -1 -27
17 13 25 19 25 50 0 14 -11 31 -20 38 -20 21 0 13 28 -9 35 -16 5 -18 9 -9 15
21 13 -20 59 -52 60 -16 0 -28 -4 -28 -10z m50 -120 c0 -5 -11 -10 -25 -10
-34 0 -32 -18 3 -23 25 -4 25 -4 -5 -6 -26 -1 -33 3 -33 18 0 18 6 21 53 30 4
0 7 -3 7 -9z m-1 -64 c-12 -10 -59 -15 -59 -6 0 5 14 10 32 10 17 0 29 -2 27
-4z"/>
<path d="M313 749 c-18 -5 -33 -14 -33 -20 0 -6 9 -8 20 -5 11 3 29 9 40 12
13 3 20 1 20 -8 -1 -29 -39 -95 -70 -121 -18 -15 -30 -30 -28 -33 9 -8 52 13
75 37 20 22 63 117 63 139 0 12 -44 11 -87 -1z"/>
<path d="M132 718 c-14 -14 -16 -38 -4 -38 12 0 32 23 32 37 0 16 -12 17 -28
1z"/>
<path d="M170 364 l0 -47 40 7 c32 5 40 3 40 -9 0 -19 11 -19 35 -2 30 23 9
40 -41 34 -24 -2 -44 -1 -44 4 0 5 11 9 25 9 14 0 25 5 25 10 0 6 -11 10 -25
10 -16 0 -25 6 -25 15 0 8 -7 15 -15 15 -11 0 -15 -12 -15 -46z"/>
<path d="M100 329 c0 -8 -3 -24 -6 -36 -4 -15 -2 -23 6 -23 6 0 14 9 17 20 3
11 14 20 24 20 11 0 19 5 19 10 0 6 -6 10 -14 10 -8 0 -21 3 -30 6 -10 4 -16
1 -16 -7z"/>
<path d="M170 300 c0 -5 8 -10 18 -10 9 0 23 -9 30 -20 7 -13 8 -20 2 -20 -6
0 -13 7 -16 15 -8 20 -34 19 -34 -2 0 -9 -21 -36 -46 -60 -48 -47 -53 -68 -9
-39 l26 17 -3 -48 -3 -48 58 -1 58 0 -3 60 -3 61 -38 -2 c-34 -2 -37 -1 -27
17 13 25 19 25 50 0 14 -11 31 -20 38 -20 21 0 13 28 -9 35 -16 5 -18 9 -9 15
21 13 -20 59 -52 60 -16 0 -28 -4 -28 -10z m50 -120 c0 -5 -11 -10 -25 -10
-34 0 -32 -18 3 -23 25 -4 25 -4 -5 -6 -26 -1 -33 3 -33 18 0 18 6 21 53 30 4
0 7 -3 7 -9z m-1 -64 c-12 -10 -59 -15 -59 -6 0 5 14 10 32 10 17 0 29 -2 27
-4z"/>
<path d="M310 298 c-19 -5 -37 -11 -39 -13 -2 -2 9 -25 24 -51 l28 -48 -32
-28 c-17 -15 -31 -30 -31 -34 0 -9 43 7 61 22 13 12 19 9 41 -16 28 -32 35
-35 58 -20 12 7 7 15 -24 42 l-38 33 21 53 c12 29 21 57 21 62 0 12 -44 11
-90 -2z m50 -17 c0 -5 -5 -22 -11 -38 l-10 -28 -19 25 c-29 37 -29 38 33 49 4
0 7 -3 7 -8z"/>
<path d="M132 268 c-14 -14 -16 -38 -4 -38 12 0 32 23 32 37 0 16 -12 17 -28
1z"/>
</g>
</svg>
