<?xml version="1.0" standalone="no"?>
<!DOCTYPE svg PUBLIC "-//W3C//DTD SVG 20010904//EN"
 "http://www.w3.org/TR/2001/REC-SVG-20010904/DTD/svg10.dtd">
<svg version="1.0" xmlns="http://www.w3.org/2000/svg"
 width="50.000000pt" height="725.000000pt" viewBox="0 0 50.000000 725.000000"
 preserveAspectRatio="xMidYMid meet">
<metadata>
Created by potrace 1.16, written by Peter Selinger 2001-2019
</metadata>
<g transform="translate(0.000000,725.000000) scale(0.100000,-0.100000)"
fill="#000000" stroke="none">
<path d="M228 7046 c-110 -10 -139 -18 -125 -32 3 -3 51 -1 107 5 55 6 123 11
151 11 36 0 49 4 47 13 -6 16 -41 17 -180 3z"/>
<path d="M240 6662 c0 -59 -12 -72 -66 -72 -48 0 -74 -8 -74 -22 0 -7 23 -8
64 -3 l64 6 -5 -42 c-5 -33 -3 -41 8 -37 7 2 16 18 20 35 10 50 16 53 90 53
52 0 70 3 66 13 -3 8 -24 11 -71 9 -72 -4 -76 0 -56 54 11 29 -1 54 -26 54
-10 0 -14 -14 -14 -48z"/>
<path d="M240 6212 c0 -59 -12 -72 -66 -72 -48 0 -74 -8 -74 -22 0 -7 23 -8
64 -3 l64 6 -5 -42 c-5 -33 -3 -41 8 -37 7 2 16 18 20 35 10 50 16 53 90 53
52 0 70 3 66 13 -3 8 -24 11 -71 9 -72 -4 -76 0 -56 54 11 29 -1 54 -26 54
-10 0 -14 -14 -14 -48z"/>
<path d="M164 6021 c3 -17 9 -44 12 -61 10 -52 25 -33 22 27 -2 47 -7 58 -21
61 -16 3 -18 -1 -13 -27z"/>
<path d="M240 5762 c0 -59 -12 -72 -66 -72 -48 0 -74 -8 -74 -22 0 -7 24 -8
66 -3 60 6 66 5 60 -10 -3 -9 -6 -25 -6 -36 0 -15 -7 -19 -31 -19 -33 0 -32 8
-13 -90 9 -47 24 -35 24 19 0 48 0 48 38 55 65 10 65 10 58 -34 -5 -30 -3 -40
7 -40 17 0 52 74 43 89 -4 6 -27 11 -52 11 -47 0 -55 11 -34 51 9 16 22 19 81
19 52 0 70 3 66 13 -3 8 -24 11 -71 9 -72 -4 -76 0 -56 54 11 29 -1 54 -26 54
-10 0 -14 -14 -14 -48z"/>
<path d="M240 5312 c0 -59 -12 -72 -66 -72 -48 0 -74 -8 -74 -22 0 -7 24 -8
66 -3 60 6 66 5 60 -10 -3 -9 -6 -25 -6 -36 0 -15 -7 -19 -31 -19 -33 0 -32 8
-13 -90 5 -28 24 -43 24 -20 0 6 29 10 66 10 48 0 64 3 61 13 -2 6 2 25 10 40
21 43 11 57 -42 57 -48 0 -56 11 -35 51 9 16 22 19 81 19 52 0 70 3 66 13 -3
8 -24 11 -71 9 -72 -4 -76 0 -56 54 11 29 -1 54 -26 54 -10 0 -14 -14 -14 -48z
m60 -191 c0 -41 -11 -51 -56 -51 -42 0 -44 1 -44 29 0 25 5 30 28 34 61 9 72
7 72 -12z"/>
</g>
</svg>
