<?xml version="1.0" standalone="no"?>
<!DOCTYPE svg PUBLIC "-//W3C//DTD SVG 20010904//EN"
 "http://www.w3.org/TR/2001/REC-SVG-20010904/DTD/svg10.dtd">
<svg version="1.0" xmlns="http://www.w3.org/2000/svg"
 width="50.000000pt" height="725.000000pt" viewBox="0 0 50.000000 725.000000"
 preserveAspectRatio="xMidYMid meet">
<metadata>
Created by potrace 1.16, written by Peter Selinger 2001-2019
</metadata>
<g transform="translate(0.000000,725.000000) scale(0.100000,-0.100000)"
fill="#000000" stroke="none">
<path d="M174 7080 c3 -16 9 -43 12 -60 8 -42 24 -37 24 8 0 52 -10 82 -27 82
-11 0 -13 -8 -9 -30z"/>
<path d="M278 6673 c-40 -6 -34 -23 8 -23 l35 0 -7 -45 c-5 -38 -4 -45 10 -45
9 0 19 8 22 18 3 9 12 30 20 46 25 48 0 62 -88 49z"/>
<path d="M174 6630 c3 -16 9 -43 12 -60 9 -50 26 -35 22 20 -2 42 0 50 15 50
9 0 17 5 17 10 0 6 -16 10 -36 10 -34 0 -35 -1 -30 -30z"/>
<path d="M278 6223 c-41 -6 -34 -23 8 -23 36 0 36 -1 30 -32 -8 -40 -7 -39
-59 -45 l-45 -5 -4 36 c-3 30 -1 36 14 36 10 0 18 5 18 10 0 6 -16 10 -36 10
-39 0 -37 9 -18 -91 5 -26 10 -30 27 -25 12 3 48 6 80 6 56 0 57 1 57 28 0 15
7 38 16 50 12 18 13 26 4 37 -12 15 -36 16 -92 8z"/>
<path d="M278 5773 c-41 -6 -34 -23 8 -23 36 0 36 -1 30 -32 -8 -40 -7 -39
-59 -45 l-45 -5 -4 36 c-3 30 -1 36 14 36 10 0 18 5 18 10 0 6 -16 10 -36 10
-39 0 -37 9 -18 -91 5 -26 10 -30 27 -25 12 3 48 6 80 6 56 0 57 1 57 28 0 15
7 38 16 50 12 18 13 26 4 37 -12 15 -36 16 -92 8z"/>
<path d="M156 5564 c-45 -51 -42 -66 6 -35 54 34 80 60 73 71 -12 20 -41 7
-79 -36z"/>
<path d="M278 5323 c-41 -6 -34 -23 8 -23 36 0 36 -1 30 -32 -8 -40 -7 -39
-59 -45 l-45 -5 -4 36 c-3 30 -1 36 14 36 10 0 18 5 18 10 0 6 -16 10 -36 10
-39 0 -37 9 -18 -91 5 -26 10 -30 27 -25 12 3 48 6 80 6 56 0 57 1 57 28 0 15
7 38 16 50 12 18 13 26 4 37 -12 15 -36 16 -92 8z"/>
<path d="M156 5114 c-45 -51 -42 -66 6 -35 54 34 80 60 73 71 -12 20 -41 7
-79 -36z"/>
<path d="M300 5154 c0 -14 74 -94 87 -94 28 0 10 53 -26 77 -32 22 -61 30 -61
17z"/>
</g>
</svg>
