<?xml version="1.0" standalone="no"?>
<!DOCTYPE svg PUBLIC "-//W3C//DTD SVG 20010904//EN"
 "http://www.w3.org/TR/2001/REC-SVG-20010904/DTD/svg10.dtd">
<svg version="1.0" xmlns="http://www.w3.org/2000/svg"
 width="50.000000pt" height="725.000000pt" viewBox="0 0 50.000000 725.000000"
 preserveAspectRatio="xMidYMid meet">
<metadata>
Created by potrace 1.16, written by Peter Selinger 2001-2019
</metadata>
<g transform="translate(0.000000,725.000000) scale(0.100000,-0.100000)"
fill="#000000" stroke="none">
<path d="M84 7048 c3 -13 8 -40 11 -60 3 -21 11 -38 17 -38 7 0 8 13 4 38 -3
20 -6 47 -6 60 0 13 -6 22 -15 22 -11 0 -14 -7 -11 -22z"/>
<path d="M140 6630 c-8 -5 -25 -10 -38 -10 -18 0 -21 -4 -18 -22 3 -13 8 -40
11 -60 3 -21 11 -38 17 -38 7 0 8 16 3 46 -5 34 -3 49 7 55 23 15 28 10 28
-31 0 -53 11 -51 32 7 13 36 14 49 5 55 -16 10 -29 10 -47 -2z"/>
<path d="M140 6180 c-8 -5 -25 -10 -38 -10 -18 0 -21 -4 -18 -22 3 -13 8 -40
11 -60 3 -21 10 -38 15 -38 6 0 10 4 10 9 0 5 9 11 21 13 27 4 66 97 46 110
-16 10 -29 10 -47 -2z m8 -52 c-2 -21 -8 -33 -18 -33 -19 0 -26 45 -8 56 23
15 29 10 26 -23z"/>
<path d="M140 5730 c-8 -5 -25 -10 -38 -10 -18 0 -21 -4 -18 -22 3 -13 8 -40
11 -60 3 -21 10 -38 15 -38 6 0 10 4 10 9 0 5 9 11 21 13 27 4 66 97 46 110
-16 10 -29 10 -47 -2z m8 -52 c-2 -21 -8 -33 -18 -33 -19 0 -26 45 -8 56 23
15 29 10 26 -23z"/>
<path d="M281 5704 c-40 -7 -76 -16 -79 -19 -15 -14 14 -17 72 -7 35 7 82 12
105 12 30 0 41 4 41 15 0 18 -35 18 -139 -1z"/>
<path d="M316 5316 l7 -54 -32 -6 c-17 -3 -44 -9 -61 -12 -16 -3 -30 -10 -30
-15 0 -11 33 -11 83 0 l37 9 0 -48 c0 -79 -10 -111 -31 -105 -25 8 -23 -4 6
-40 20 -24 27 -27 37 -17 12 12 15 39 17 165 1 47 1 47 36 47 24 0 35 5 35 15
0 11 -11 15 -36 15 l-37 0 7 40 c5 32 3 41 -13 50 -30 16 -32 14 -25 -44z"/>
<path d="M140 5280 c-8 -5 -25 -10 -38 -10 -18 0 -21 -4 -18 -22 3 -13 8 -40
11 -60 3 -21 10 -38 15 -38 6 0 10 4 10 9 0 5 9 11 21 13 27 4 66 97 46 110
-16 10 -29 10 -47 -2z m8 -52 c-2 -21 -8 -33 -18 -33 -19 0 -26 45 -8 56 23
15 29 10 26 -23z"/>
<path d="M316 4866 l7 -54 -32 -6 c-17 -3 -44 -9 -61 -12 -16 -3 -30 -10 -30
-15 0 -11 33 -11 83 0 l37 9 0 -48 c0 -79 -10 -111 -31 -105 -25 8 -23 -4 6
-40 20 -24 27 -27 37 -17 12 12 15 39 17 165 1 47 1 47 36 47 24 0 35 5 35 15
0 11 -11 15 -36 15 l-37 0 7 40 c5 32 3 41 -13 50 -30 16 -32 14 -25 -44z"/>
<path d="M140 4830 c-8 -5 -25 -10 -38 -10 -18 0 -21 -4 -18 -22 3 -13 8 -40
11 -60 3 -21 10 -38 15 -38 6 0 10 4 10 9 0 5 9 11 21 13 27 4 66 97 46 110
-16 10 -29 10 -47 -2z m8 -52 c-2 -21 -8 -33 -18 -33 -19 0 -26 45 -8 56 23
15 29 10 26 -23z"/>
<path d="M230 4738 c0 -18 20 -38 38 -38 24 0 10 45 -15 48 -14 2 -23 -2 -23
-10z"/>
</g>
</svg>
