<?xml version="1.0" standalone="no"?>
<!DOCTYPE svg PUBLIC "-//W3C//DTD SVG 20010904//EN"
 "http://www.w3.org/TR/2001/REC-SVG-20010904/DTD/svg10.dtd">
<svg version="1.0" xmlns="http://www.w3.org/2000/svg"
 width="50.000000pt" height="725.000000pt" viewBox="0 0 50.000000 725.000000"
 preserveAspectRatio="xMidYMid meet">
<metadata>
Created by potrace 1.16, written by Peter Selinger 2001-2019
</metadata>
<g transform="translate(0.000000,725.000000) scale(0.100000,-0.100000)"
fill="#000000" stroke="none">
<path d="M165 7123 c5 -10 10 -33 13 -50 2 -19 10 -33 17 -33 10 0 12 10 9 38
-8 55 -12 62 -30 62 -12 0 -14 -5 -9 -17z"/>
<path d="M273 6703 c-44 -6 -42 -23 2 -23 33 0 34 -1 29 -30 -5 -22 -3 -30 8
-30 15 0 38 39 38 64 0 13 -24 28 -38 24 -4 0 -22 -3 -39 -5z"/>
<path d="M165 6673 c5 -10 10 -33 13 -50 2 -18 10 -33 17 -33 9 0 12 11 8 40
-5 33 -3 40 11 40 9 0 16 5 16 10 0 6 -16 10 -36 10 -31 0 -35 -3 -29 -17z"/>
<path d="M273 6253 c-44 -6 -42 -23 3 -23 32 0 35 -2 28 -22 -9 -31 -7 -30
-59 -35 -43 -5 -45 -5 -45 21 0 16 5 26 15 26 8 0 15 5 15 10 0 6 -16 10 -36
10 -31 0 -35 -3 -29 -17 5 -10 10 -33 13 -50 4 -32 5 -33 46 -27 106 14 102
12 116 55 12 35 12 42 -1 50 -8 5 -18 8 -24 7 -5 -1 -25 -3 -42 -5z"/>
<path d="M273 5803 c-44 -6 -42 -23 3 -23 32 0 35 -2 28 -22 -9 -31 -7 -30
-59 -35 -43 -5 -45 -5 -45 21 0 16 5 26 15 26 8 0 15 5 15 10 0 6 -16 10 -36
10 -31 0 -35 -3 -29 -17 5 -10 10 -33 13 -50 4 -32 5 -33 46 -27 106 14 102
12 116 55 12 35 12 42 -1 50 -8 5 -18 8 -24 7 -5 -1 -25 -3 -42 -5z"/>
<path d="M212 5657 c-67 -6 -101 -14 -99 -21 2 -6 17 -10 33 -8 16 1 80 5 142
8 85 5 112 10 112 20 0 16 -30 16 -188 1z"/>
<path d="M273 5353 c-44 -6 -42 -23 3 -23 32 0 35 -2 28 -22 -9 -31 -7 -30
-59 -35 -43 -5 -45 -5 -45 21 0 16 5 26 15 26 8 0 15 5 15 10 0 6 -16 10 -36
10 -31 0 -35 -3 -29 -17 5 -10 10 -33 13 -51 4 -31 6 -33 33 -27 24 6 29 3 29
-13 0 -23 -25 -32 -88 -32 -31 0 -42 -4 -39 -12 4 -14 33 -16 91 -4 l39 7 -5
-69 c-5 -68 3 -105 19 -89 4 5 9 42 11 83 l4 74 64 0 c53 0 64 3 64 16 0 15
-9 16 -65 11 -59 -6 -65 -5 -65 13 0 12 9 20 29 25 22 5 31 15 41 46 12 35 12
42 -1 50 -8 5 -18 8 -24 7 -5 -1 -25 -3 -42 -5z"/>
<path d="M273 4903 c-44 -6 -42 -23 3 -23 32 0 35 -2 28 -22 -9 -31 -7 -30
-59 -35 -43 -5 -45 -5 -45 21 0 16 5 26 15 26 8 0 15 5 15 10 0 6 -16 10 -36
10 -31 0 -35 -3 -29 -17 5 -10 10 -33 13 -51 4 -31 6 -33 33 -27 24 6 29 3 29
-13 0 -23 -25 -32 -88 -32 -31 0 -42 -4 -39 -12 4 -14 33 -16 91 -4 l39 7 -5
-69 c-5 -68 3 -105 19 -89 4 5 9 42 11 83 l4 74 64 0 c53 0 64 3 64 16 0 15
-9 16 -65 11 -59 -6 -65 -5 -65 13 0 12 9 20 29 25 22 5 31 15 41 46 12 35 12
42 -1 50 -8 5 -18 8 -24 7 -5 -1 -25 -3 -42 -5z"/>
<path d="M141 4669 c-38 -46 -36 -57 6 -36 37 20 67 53 58 66 -12 20 -30 11
-64 -30z"/>
<path d="M273 4453 c-44 -6 -42 -23 3 -23 32 0 35 -2 28 -22 -9 -31 -7 -30
-59 -35 -43 -5 -45 -5 -45 21 0 16 5 26 15 26 8 0 15 5 15 10 0 6 -16 10 -36
10 -31 0 -35 -3 -29 -17 5 -10 10 -33 13 -51 4 -31 6 -33 33 -27 24 6 29 3 29
-13 0 -23 -25 -32 -88 -32 -31 0 -42 -4 -39 -12 4 -14 33 -16 91 -4 l39 7 -5
-69 c-5 -68 3 -105 19 -89 4 5 9 42 11 83 l4 74 64 0 c53 0 64 3 64 16 0 15
-9 16 -65 11 -59 -6 -65 -5 -65 13 0 12 9 20 29 25 22 5 31 15 41 46 12 35 12
42 -1 50 -8 5 -18 8 -24 7 -5 -1 -25 -3 -42 -5z"/>
<path d="M141 4219 c-38 -46 -36 -57 6 -36 37 20 67 53 58 66 -12 20 -30 11
-64 -30z"/>
<path d="M310 4243 c0 -15 52 -73 66 -73 23 0 16 29 -12 55 -25 23 -54 33 -54
18z"/>
</g>
</svg>
