<?xml version="1.0" standalone="no"?>
<!DOCTYPE svg PUBLIC "-//W3C//DTD SVG 20010904//EN"
 "http://www.w3.org/TR/2001/REC-SVG-20010904/DTD/svg10.dtd">
<svg version="1.0" xmlns="http://www.w3.org/2000/svg"
 width="50.000000pt" height="725.000000pt" viewBox="0 0 50.000000 725.000000"
 preserveAspectRatio="xMidYMid meet">
<metadata>
Created by potrace 1.16, written by Peter Selinger 2001-2019
</metadata>
<g transform="translate(0.000000,725.000000) scale(0.100000,-0.100000)"
fill="#000000" stroke="none">
<path d="M212 7146 c-7 -19 -42 -62 -78 -96 -68 -63 -77 -83 -27 -57 62 33
160 145 149 172 -10 26 -31 16 -44 -19z"/>
<path d="M212 6696 c-7 -19 -42 -62 -78 -96 -37 -34 -64 -64 -61 -66 11 -11
69 28 122 83 l56 58 50 -58 c46 -51 55 -57 90 -57 49 0 52 21 5 38 -47 17
-125 79 -136 108 -13 34 -34 30 -48 -10z"/>
<path d="M212 6246 c-7 -19 -42 -62 -78 -96 -37 -34 -64 -64 -61 -66 11 -11
69 28 122 83 l56 58 50 -58 c46 -51 55 -57 90 -57 49 0 52 21 5 38 -47 17
-125 79 -136 108 -13 34 -34 30 -48 -10z"/>
<path d="M205 6149 c-4 -6 -5 -12 -4 -13 9 -7 89 7 89 15 0 13 -77 11 -85 -2z"/>
<path d="M212 5796 c-7 -19 -42 -62 -78 -96 -37 -34 -64 -64 -61 -66 11 -11
69 28 122 83 l56 58 50 -58 c46 -51 55 -57 90 -57 49 0 52 21 5 38 -47 17
-125 79 -136 108 -13 34 -34 30 -48 -10z"/>
<path d="M205 5699 c-4 -6 -5 -12 -4 -13 9 -7 89 7 89 15 0 13 -77 11 -85 -2z"/>
<path d="M134 5618 c3 -13 6 -33 6 -45 0 -13 5 -23 10 -23 6 0 10 20 10 45 0
35 -4 45 -16 45 -12 0 -15 -6 -10 -22z"/>
<path d="M212 5346 c-7 -19 -42 -62 -78 -96 -37 -34 -64 -64 -61 -66 11 -11
69 28 122 83 l56 58 50 -58 c46 -51 55 -57 90 -57 49 0 52 21 5 38 -47 17
-125 79 -136 108 -13 34 -34 30 -48 -10z"/>
<path d="M205 5249 c-4 -6 -5 -12 -4 -13 9 -7 89 7 89 15 0 13 -77 11 -85 -2z"/>
<path d="M162 5197 c-27 -8 -32 -14 -28 -31 3 -12 6 -31 6 -43 0 -13 5 -23 10
-23 6 0 10 18 10 40 0 29 4 40 15 40 9 0 15 -9 15 -25 0 -35 16 -31 29 7 9 24
8 34 -1 40 -15 9 -13 9 -56 -5z"/>
<path d="M212 4896 c-7 -19 -42 -62 -78 -96 -37 -34 -64 -64 -61 -66 11 -11
69 28 122 83 l56 58 50 -58 c46 -51 55 -57 90 -57 49 0 52 21 5 38 -47 17
-125 79 -136 108 -13 34 -34 30 -48 -10z"/>
<path d="M205 4799 c-4 -6 -5 -12 -4 -13 9 -7 89 7 89 15 0 13 -77 11 -85 -2z"/>
<path d="M163 4748 c-32 -10 -33 -12 -27 -52 4 -23 8 -42 9 -43 1 -2 15 3 32
9 35 13 63 75 40 90 -14 9 -12 9 -54 -4z m27 -37 c0 -10 -7 -21 -15 -25 -11
-4 -15 1 -15 19 0 16 6 25 15 25 8 0 15 -9 15 -19z"/>
<path d="M212 4446 c-7 -19 -42 -62 -78 -96 -37 -34 -64 -64 -61 -66 11 -11
68 28 120 81 29 30 56 55 58 55 3 0 27 -26 54 -57 28 -31 45 -54 38 -50 -14 9
-73 -3 -73 -14 0 -5 11 -9 25 -9 14 0 25 -4 25 -9 0 -21 -13 -41 -26 -41 -17
0 -18 -12 -2 -28 23 -23 38 -12 53 43 16 53 18 55 51 55 45 0 45 22 0 38 -47
17 -125 79 -136 108 -13 34 -34 30 -48 -10z"/>
<path d="M205 4349 c-4 -6 -5 -12 -4 -13 9 -7 89 7 89 15 0 13 -77 11 -85 -2z"/>
<path d="M163 4298 c-32 -10 -33 -12 -27 -52 4 -23 8 -42 9 -43 1 -2 15 3 32
9 35 13 63 75 40 90 -14 9 -12 9 -54 -4z m27 -37 c0 -10 -7 -21 -15 -25 -11
-4 -15 1 -15 19 0 16 6 25 15 25 8 0 15 -9 15 -19z"/>
<path d="M212 3996 c-7 -19 -42 -62 -78 -96 -37 -34 -64 -64 -61 -66 11 -11
68 28 120 81 29 30 56 55 58 55 3 0 26 -24 51 -53 33 -38 41 -53 30 -53 -10 0
-34 -1 -54 -2 l-38 -2 0 -100 c0 -59 4 -100 10 -100 13 0 19 31 22 110 3 59 5
65 26 68 12 2 22 -1 22 -6 0 -22 -13 -42 -26 -42 -17 0 -18 -12 -2 -28 23 -23
38 -12 53 43 16 53 18 55 51 55 45 0 45 22 0 38 -47 17 -125 79 -136 108 -13
34 -34 30 -48 -10z"/>
<path d="M205 3899 c-4 -6 -5 -12 -4 -13 9 -7 89 7 89 15 0 13 -77 11 -85 -2z"/>
<path d="M163 3848 c-32 -10 -33 -12 -27 -52 4 -23 8 -42 9 -43 1 -2 15 3 32
9 35 13 63 75 40 90 -14 9 -12 9 -54 -4z m27 -37 c0 -10 -7 -21 -15 -25 -11
-4 -15 1 -15 19 0 16 6 25 15 25 8 0 15 -9 15 -19z"/>
</g>
</svg>
