<?xml version="1.0" standalone="no"?>
<!DOCTYPE svg PUBLIC "-//W3C//DTD SVG 20010904//EN"
 "http://www.w3.org/TR/2001/REC-SVG-20010904/DTD/svg10.dtd">
<svg version="1.0" xmlns="http://www.w3.org/2000/svg"
 width="50.000000pt" height="725.000000pt" viewBox="0 0 50.000000 725.000000"
 preserveAspectRatio="xMidYMid meet">
<metadata>
Created by potrace 1.16, written by Peter Selinger 2001-2019
</metadata>
<g transform="translate(0.000000,725.000000) scale(0.100000,-0.100000)"
fill="#000000" stroke="none">
<path d="M94 7068 c3 -13 6 -33 6 -45 0 -13 5 -23 10 -23 6 0 10 20 10 45 0
35 -4 45 -16 45 -12 0 -15 -6 -10 -22z"/>
<path d="M122 6643 c-29 -4 -33 -7 -28 -26 3 -12 6 -32 6 -44 0 -13 5 -23 10
-23 6 0 10 16 10 35 0 27 4 35 18 35 15 0 18 -6 14 -31 -6 -41 18 -35 30 7 9
34 4 55 -14 52 -7 0 -28 -3 -46 -5z"/>
<path d="M122 6193 c-29 -4 -33 -7 -28 -26 3 -12 6 -32 6 -44 0 -19 6 -23 29
-23 35 0 50 16 53 60 3 37 -2 40 -60 33z m29 -45 c-12 -32 -31 -34 -31 -4 0
19 5 26 20 26 16 0 18 -4 11 -22z"/>
<path d="M252 5780 c-36 -8 -49 -17 -39 -26 10 -10 110 10 115 24 4 14 -24 14
-76 2z"/>
<path d="M122 5743 c-29 -4 -33 -7 -28 -26 3 -12 6 -32 6 -44 0 -19 6 -23 29
-23 35 0 50 16 53 60 3 37 -2 40 -60 33z m29 -45 c-12 -32 -31 -34 -31 -4 0
19 5 26 20 26 16 0 18 -4 11 -22z"/>
<path d="M275 5335 c-5 -2 -22 -6 -37 -9 -30 -7 -39 -26 -12 -26 12 0 10 -10
-12 -50 -15 -28 -24 -53 -20 -57 9 -10 53 44 68 84 8 23 19 33 37 35 32 4 41
28 9 27 -12 0 -27 -2 -33 -4z"/>
<path d="M122 5293 c-29 -4 -33 -7 -28 -26 3 -12 6 -32 6 -44 0 -19 6 -23 29
-23 35 0 50 16 53 60 3 37 -2 40 -60 33z m29 -45 c-12 -32 -31 -34 -31 -4 0
19 5 26 20 26 16 0 18 -4 11 -22z"/>
<path d="M275 4885 c-5 -2 -22 -6 -37 -9 -30 -7 -39 -26 -12 -26 12 0 10 -10
-12 -50 -30 -55 -24 -81 8 -37 17 23 48 37 48 22 0 -15 -52 -103 -74 -127 -30
-31 -32 -38 -12 -38 33 0 134 155 122 187 -4 10 -14 13 -27 10 -15 -4 -19 -2
-15 10 3 8 6 18 6 23 0 5 12 10 27 12 34 4 44 28 11 27 -12 0 -27 -2 -33 -4z"/>
<path d="M122 4843 c-29 -4 -33 -7 -28 -26 3 -12 6 -32 6 -44 0 -19 6 -23 29
-23 35 0 50 16 53 60 3 37 -2 40 -60 33z m29 -45 c-12 -32 -31 -34 -31 -4 0
19 5 26 20 26 16 0 18 -4 11 -22z"/>
<path d="M275 4435 c-5 -2 -22 -6 -37 -9 -30 -7 -39 -26 -12 -26 13 0 11 -8
-10 -46 -30 -53 -32 -64 -12 -64 27 0 30 -40 4 -68 -12 -15 -26 -28 -30 -30
-13 -6 -9 -22 6 -22 33 0 134 155 122 187 -4 10 -14 13 -27 10 -15 -4 -19 -2
-15 10 3 8 6 18 6 23 0 5 12 10 27 12 34 4 44 28 11 27 -12 0 -27 -2 -33 -4z
m-5 -102 c-1 -19 -18 -33 -34 -27 -13 5 -14 9 -5 20 12 15 39 19 39 7z"/>
<path d="M122 4393 c-29 -4 -33 -7 -28 -26 3 -12 6 -32 6 -44 0 -19 6 -23 29
-23 35 0 50 16 53 60 3 37 -2 40 -60 33z m29 -45 c-12 -32 -31 -34 -31 -4 0
19 5 26 20 26 16 0 18 -4 11 -22z"/>
<path d="M275 3985 c-5 -2 -22 -6 -37 -9 -30 -7 -39 -26 -12 -26 13 0 11 -8
-10 -46 -30 -53 -32 -64 -12 -64 27 0 30 -40 4 -68 -12 -15 -26 -28 -30 -30
-13 -6 -9 -22 6 -22 33 0 134 155 122 187 -4 10 -14 13 -27 10 -15 -4 -19 -2
-15 10 3 8 6 18 6 23 0 5 12 10 27 12 34 4 44 28 11 27 -12 0 -27 -2 -33 -4z
m-5 -102 c-1 -19 -18 -33 -34 -27 -13 5 -14 9 -5 20 12 15 39 19 39 7z"/>
<path d="M122 3943 c-29 -4 -33 -7 -28 -26 3 -12 6 -32 6 -44 0 -19 6 -23 29
-23 35 0 50 16 53 60 3 37 -2 40 -60 33z m29 -45 c-12 -32 -31 -34 -31 -4 0
19 5 26 20 26 16 0 18 -4 11 -22z"/>
<path d="M330 3864 c0 -48 3 -65 13 -62 7 3 13 28 15 66 2 51 0 62 -13 62 -12
0 -15 -13 -15 -66z"/>
<path d="M380 3473 c2 -49 2 -111 2 -140 -2 -46 -4 -51 -22 -46 -27 7 -25 -9
5 -37 16 -15 29 -20 34 -14 5 5 11 78 13 161 3 150 1 163 -29 163 -3 0 -4 -39
-3 -87z"/>
<path d="M275 3535 c-5 -2 -22 -6 -37 -9 -30 -7 -39 -26 -12 -26 13 0 11 -8
-10 -46 -30 -53 -32 -64 -12 -64 27 0 30 -40 4 -68 -12 -15 -26 -28 -30 -30
-13 -6 -9 -22 6 -22 33 0 134 155 122 187 -4 10 -14 13 -27 10 -15 -4 -19 -2
-15 10 3 8 6 18 6 23 0 5 12 10 27 12 34 4 44 28 11 27 -12 0 -27 -2 -33 -4z
m-5 -102 c-1 -19 -18 -33 -34 -27 -13 5 -14 9 -5 20 12 15 39 19 39 7z"/>
<path d="M122 3493 c-29 -4 -33 -7 -28 -26 3 -12 6 -32 6 -44 0 -19 6 -23 29
-23 35 0 50 16 53 60 3 37 -2 40 -60 33z m29 -45 c-12 -32 -31 -34 -31 -4 0
19 5 26 20 26 16 0 18 -4 11 -22z"/>
<path d="M330 3414 c0 -48 3 -65 13 -62 7 3 13 28 15 66 2 51 0 62 -13 62 -12
0 -15 -13 -15 -66z"/>
</g>
</svg>
