<?xml version="1.0" standalone="no"?>
<!DOCTYPE svg PUBLIC "-//W3C//DTD SVG 20010904//EN"
 "http://www.w3.org/TR/2001/REC-SVG-20010904/DTD/svg10.dtd">
<svg version="1.0" xmlns="http://www.w3.org/2000/svg"
 width="50.000000pt" height="725.000000pt" viewBox="0 0 50.000000 725.000000"
 preserveAspectRatio="xMidYMid meet">
<metadata>
Created by potrace 1.16, written by Peter Selinger 2001-2019
</metadata>
<g transform="translate(0.000000,725.000000) scale(0.100000,-0.100000)"
fill="#000000" stroke="none">
<path d="M90 7028 c0 -42 10 -78 21 -78 10 0 12 70 3 94 -10 27 -24 18 -24
-16z"/>
<path d="M128 6618 c-34 -9 -38 -13 -38 -41 0 -42 10 -77 21 -77 5 0 9 23 9
50 0 43 3 50 19 50 16 0 18 -5 14 -40 -4 -30 -2 -40 8 -40 19 0 42 92 25 102
-13 9 -9 9 -58 -4z"/>
<path d="M126 6168 l-38 -11 4 -48 c3 -27 7 -51 9 -53 2 -2 21 -1 42 2 31 3
37 8 37 27 0 13 5 36 10 51 8 21 8 29 -2 36 -15 9 -11 9 -62 -4z m30 -34 c-3
-9 -6 -24 -6 -35 0 -10 -7 -19 -15 -19 -10 0 -15 11 -15 35 0 29 4 35 21 35
15 0 19 -4 15 -16z"/>
<path d="M230 5794 c0 -16 23 -44 35 -44 20 0 19 36 -1 44 -20 8 -34 8 -34 0z"/>
<path d="M126 5718 l-38 -11 4 -48 c3 -27 7 -51 9 -53 2 -2 21 -1 42 2 31 3
37 8 37 27 0 13 5 36 10 51 8 21 8 29 -2 36 -15 9 -11 9 -62 -4z m30 -34 c-3
-9 -6 -24 -6 -35 0 -10 -7 -19 -15 -19 -10 0 -15 11 -15 35 0 29 4 35 21 35
15 0 19 -4 15 -16z"/>
<path d="M325 5340 c-9 -18 -14 -34 -12 -37 9 -8 68 40 64 52 -8 23 -36 15
-52 -15z"/>
<path d="M230 5344 c0 -16 23 -44 35 -44 20 0 19 36 -1 44 -20 8 -34 8 -34 0z"/>
<path d="M126 5268 l-38 -11 4 -48 c3 -27 7 -51 9 -53 2 -2 21 -1 42 2 31 3
37 8 37 27 0 13 5 36 10 51 8 21 8 29 -2 36 -15 9 -11 9 -62 -4z m30 -34 c-3
-9 -6 -24 -6 -35 0 -10 -7 -19 -15 -19 -10 0 -15 11 -15 35 0 29 4 35 21 35
15 0 19 -4 15 -16z"/>
<path d="M325 4890 c-9 -18 -14 -34 -12 -37 9 -8 68 40 64 52 -8 23 -36 15
-52 -15z"/>
<path d="M230 4894 c0 -16 23 -44 35 -44 20 0 19 36 -1 44 -20 8 -34 8 -34 0z"/>
<path d="M283 4837 c-110 -18 -64 -36 51 -21 27 4 45 11 43 18 -5 15 -20 15
-94 3z"/>
<path d="M126 4818 l-38 -11 4 -48 c3 -27 7 -51 9 -53 2 -2 21 -1 42 2 31 3
37 8 37 27 0 13 5 36 10 51 8 21 8 29 -2 36 -15 9 -11 9 -62 -4z m30 -34 c-3
-9 -6 -24 -6 -35 0 -10 -7 -19 -15 -19 -10 0 -15 11 -15 35 0 29 4 35 21 35
15 0 19 -4 15 -16z"/>
<path d="M325 4440 c-9 -18 -14 -34 -12 -37 9 -8 68 40 64 52 -8 23 -36 15
-52 -15z"/>
<path d="M230 4444 c0 -16 23 -44 35 -44 20 0 19 36 -1 44 -20 8 -34 8 -34 0z"/>
<path d="M283 4387 c-110 -18 -64 -36 51 -21 27 4 45 11 43 18 -5 15 -20 15
-94 3z"/>
<path d="M126 4368 l-38 -11 4 -48 c3 -27 7 -51 9 -53 2 -2 21 -1 42 2 31 3
37 8 37 27 0 13 5 36 10 51 8 21 8 29 -2 36 -15 9 -11 9 -62 -4z m30 -34 c-3
-9 -6 -24 -6 -35 0 -10 -7 -19 -15 -19 -10 0 -15 11 -15 35 0 29 4 35 21 35
15 0 19 -4 15 -16z"/>
<path d="M253 4323 c-40 -5 -44 -23 -5 -23 53 0 132 13 132 21 0 9 -64 10
-127 2z"/>
<path d="M325 3990 c-9 -18 -14 -34 -12 -37 9 -8 68 40 64 52 -8 23 -36 15
-52 -15z"/>
<path d="M230 3994 c0 -16 23 -44 35 -44 20 0 19 36 -1 44 -20 8 -34 8 -34 0z"/>
<path d="M283 3937 c-110 -18 -64 -36 51 -21 27 4 45 11 43 18 -5 15 -20 15
-94 3z"/>
<path d="M126 3918 l-38 -11 4 -48 c3 -27 7 -51 9 -53 2 -2 21 -1 42 2 31 3
37 8 37 27 0 13 5 36 10 51 8 21 8 29 -2 36 -15 9 -11 9 -62 -4z m30 -34 c-3
-9 -6 -24 -6 -35 0 -10 -7 -19 -15 -19 -10 0 -15 11 -15 35 0 29 4 35 21 35
15 0 19 -4 15 -16z"/>
<path d="M253 3873 c-40 -5 -44 -23 -5 -23 53 0 132 13 132 21 0 9 -64 10
-127 2z"/>
<path d="M320 3823 c-85 -8 -120 -15 -120 -23 0 -8 220 -2 230 7 2 2 -2 8 -10
13 -15 10 -32 10 -100 3z"/>
<path d="M325 3540 c-9 -18 -14 -34 -12 -37 9 -8 68 40 64 52 -8 23 -36 15
-52 -15z"/>
<path d="M230 3544 c0 -16 23 -44 35 -44 20 0 19 36 -1 44 -20 8 -34 8 -34 0z"/>
<path d="M283 3487 c-66 -11 -85 -27 -33 -27 23 0 30 -4 30 -20 0 -16 -7 -20
-30 -20 -16 0 -30 -4 -30 -10 0 -5 14 -10 30 -10 46 0 38 -27 -10 -35 -22 -4
-40 -11 -40 -17 0 -7 15 -9 40 -5 l40 5 0 -64 c0 -63 12 -85 24 -41 3 12 6 41
6 65 l0 42 60 0 c33 0 60 4 60 9 0 16 -38 23 -81 16 -36 -6 -40 -5 -37 11 2
13 13 20 36 22 43 4 41 22 -2 22 -29 0 -33 3 -29 20 4 14 14 20 35 20 19 0 28
4 26 13 -6 16 -20 16 -95 4z"/>
<path d="M126 3468 l-38 -11 4 -48 c3 -27 7 -51 9 -53 2 -2 21 -1 42 2 31 3
37 8 37 27 0 13 5 36 10 51 8 21 8 29 -2 36 -15 9 -11 9 -62 -4z m30 -34 c-3
-9 -6 -24 -6 -35 0 -10 -7 -19 -15 -19 -10 0 -15 11 -15 35 0 29 4 35 21 35
15 0 19 -4 15 -16z"/>
</g>
</svg>
