<?xml version="1.0" standalone="no"?>
<!DOCTYPE svg PUBLIC "-//W3C//DTD SVG 20010904//EN"
 "http://www.w3.org/TR/2001/REC-SVG-20010904/DTD/svg10.dtd">
<svg version="1.0" xmlns="http://www.w3.org/2000/svg"
 width="50.000000pt" height="725.000000pt" viewBox="0 0 50.000000 725.000000"
 preserveAspectRatio="xMidYMid meet">
<metadata>
Created by potrace 1.16, written by Peter Selinger 2001-2019
</metadata>
<g transform="translate(0.000000,725.000000) scale(0.100000,-0.100000)"
fill="#000000" stroke="none">
<path d="M74 7063 c2 -10 7 -33 11 -50 7 -35 25 -45 25 -14 0 41 -13 81 -27
81 -9 0 -12 -7 -9 -17z"/>
<path d="M130 6640 c-8 -5 -25 -10 -38 -10 -17 0 -22 -4 -18 -17 2 -10 7 -33
11 -50 10 -48 29 -42 22 6 -4 29 -1 41 10 45 24 9 25 8 18 -24 -10 -45 17 -39
32 7 9 29 9 40 0 45 -15 10 -19 10 -37 -2z"/>
<path d="M130 6190 c-8 -5 -25 -10 -38 -10 -17 0 -22 -4 -18 -17 2 -10 7 -33
11 -50 7 -33 18 -42 30 -23 3 6 15 10 26 10 13 0 19 7 19 21 0 11 5 30 11 41
9 16 8 23 -2 29 -18 11 -21 11 -39 -1z m10 -31 c0 -6 -5 -20 -11 -32 l-12 -21
-9 24 c-6 16 -5 26 4 32 18 11 28 10 28 -3z"/>
<path d="M220 5788 c0 -7 -14 -40 -30 -73 -25 -50 -38 -46 -16 6 9 21 -19 33
-44 19 -10 -6 -28 -10 -40 -10 -16 0 -20 -5 -16 -17 2 -10 7 -33 11 -50 7 -37
8 -38 35 -21 27 17 37 2 15 -22 -27 -30 -9 -37 21 -9 28 26 94 148 94 174 0 8
-7 15 -15 15 -8 0 -15 -6 -15 -12z m-80 -79 c0 -6 -5 -20 -11 -32 l-12 -21 -9
24 c-6 16 -5 26 4 32 18 11 28 10 28 -3z"/>
<path d="M220 5338 c0 -7 -14 -40 -30 -73 -25 -50 -38 -46 -16 6 9 21 -19 33
-44 19 -10 -6 -28 -10 -40 -10 -16 0 -20 -5 -16 -17 2 -10 7 -33 11 -50 7 -37
8 -38 35 -21 27 17 37 2 15 -22 -30 -33 -8 -36 26 -4 l31 29 -4 -69 c-2 -49 1
-70 10 -73 9 -4 12 15 14 69 3 124 4 132 21 165 21 40 22 63 2 63 -8 0 -15 -6
-15 -12z m-80 -79 c0 -6 -5 -20 -11 -32 l-12 -21 -9 24 c-6 16 -5 26 4 32 18
11 28 10 28 -3z"/>
<path d="M220 4888 c0 -7 -14 -40 -30 -73 -25 -50 -38 -46 -16 6 9 21 -19 33
-44 19 -10 -6 -28 -10 -40 -10 -16 0 -20 -5 -16 -17 2 -10 7 -33 11 -50 7 -37
8 -38 35 -21 27 17 37 2 15 -22 -30 -33 -8 -36 26 -4 l31 29 -4 -69 c-2 -49 1
-70 10 -73 9 -4 12 15 14 69 3 124 4 132 21 165 21 40 22 63 2 63 -8 0 -15 -6
-15 -12z m-80 -79 c0 -6 -5 -20 -11 -32 l-12 -21 -9 24 c-6 16 -5 26 4 32 18
11 28 10 28 -3z"/>
<path d="M288 4797 c-65 -12 -77 -27 -20 -26 59 0 115 13 120 27 4 14 -16 14
-100 -1z"/>
<path d="M293 4403 l2 -58 -32 -3 c-42 -4 -43 -22 -2 -22 l32 0 -7 -89 c-4
-61 -3 -92 4 -96 20 -12 25 5 30 98 l5 92 29 5 c16 3 31 11 34 19 4 11 -3 13
-31 8 l-36 -6 2 52 c2 41 -1 52 -15 55 -15 3 -17 -5 -15 -55z"/>
<path d="M220 4438 c0 -7 -14 -40 -30 -73 -25 -50 -38 -46 -16 6 9 21 -19 33
-44 19 -10 -6 -28 -10 -40 -10 -16 0 -20 -5 -16 -17 2 -10 7 -33 11 -50 7 -37
8 -38 35 -21 27 17 37 2 15 -22 -30 -33 -8 -36 26 -4 l31 29 -4 -69 c-2 -49 1
-70 10 -73 9 -4 12 15 14 69 3 124 4 132 21 165 21 40 22 63 2 63 -8 0 -15 -6
-15 -12z m-80 -79 c0 -6 -5 -20 -11 -32 l-12 -21 -9 24 c-6 16 -5 26 4 32 18
11 28 10 28 -3z"/>
<path d="M293 3953 l2 -58 -32 -3 c-38 -4 -45 -22 -8 -22 32 0 32 -8 -6 -53
-38 -47 -30 -61 12 -21 l31 29 -7 -66 c-5 -47 -4 -69 5 -74 20 -12 25 4 30 98
l5 92 29 5 c16 3 31 11 34 19 4 11 -3 13 -31 8 l-36 -6 2 52 c2 41 -1 52 -15
55 -15 3 -17 -5 -15 -55z"/>
<path d="M220 3988 c0 -7 -14 -40 -30 -73 -25 -50 -38 -46 -16 6 9 21 -19 33
-44 19 -10 -6 -28 -10 -40 -10 -16 0 -20 -5 -16 -17 2 -10 7 -33 11 -50 7 -37
8 -38 35 -21 27 17 37 2 15 -22 -30 -33 -8 -36 26 -4 l31 29 -4 -69 c-2 -49 1
-70 10 -73 9 -4 12 15 14 69 3 124 4 132 21 165 21 40 22 63 2 63 -8 0 -15 -6
-15 -12z m-80 -79 c0 -6 -5 -20 -11 -32 l-12 -21 -9 24 c-6 16 -5 26 4 32 18
11 28 10 28 -3z"/>
<path d="M293 3503 l2 -58 -32 -3 c-38 -4 -45 -22 -8 -22 32 0 32 -8 -6 -53
-38 -47 -30 -61 12 -21 l31 29 -7 -66 c-5 -48 -4 -69 5 -74 20 -12 30 16 30
90 l0 70 28 -50 c21 -39 33 -51 55 -53 15 -2 27 1 27 5 0 5 -22 33 -50 61 -27
29 -50 56 -50 61 0 5 12 11 27 13 14 2 29 9 31 17 4 11 -3 13 -31 8 l-36 -6 2
52 c2 41 -1 52 -15 55 -15 3 -17 -5 -15 -55z"/>
<path d="M220 3538 c0 -7 -14 -40 -30 -73 -25 -50 -38 -46 -16 6 9 21 -19 33
-44 19 -10 -6 -28 -10 -40 -10 -16 0 -20 -5 -16 -17 2 -10 7 -33 11 -50 7 -37
8 -38 35 -21 27 17 37 2 15 -22 -30 -33 -8 -36 26 -4 l31 29 -4 -69 c-2 -49 1
-70 10 -73 9 -4 12 15 14 69 3 124 4 132 21 165 21 40 22 63 2 63 -8 0 -15 -6
-15 -12z m-80 -79 c0 -6 -5 -20 -11 -32 l-12 -21 -9 24 c-6 16 -5 26 4 32 18
11 28 10 28 -3z"/>
</g>
</svg>
