<?xml version="1.0" standalone="no"?>
<!DOCTYPE svg PUBLIC "-//W3C//DTD SVG 20010904//EN"
 "http://www.w3.org/TR/2001/REC-SVG-20010904/DTD/svg10.dtd">
<svg version="1.0" xmlns="http://www.w3.org/2000/svg"
 width="50.000000pt" height="725.000000pt" viewBox="0 0 50.000000 725.000000"
 preserveAspectRatio="xMidYMid meet">
<metadata>
Created by potrace 1.16, written by Peter Selinger 2001-2019
</metadata>
<g transform="translate(0.000000,725.000000) scale(0.100000,-0.100000)"
fill="#000000" stroke="none">
<path d="M86 7033 c4 -10 9 -37 12 -60 6 -61 22 -53 22 11 0 40 -4 55 -16 60
-24 9 -27 7 -18 -11z"/>
<path d="M147 6599 c-10 -6 -30 -8 -44 -4 -22 5 -24 3 -18 -12 5 -10 10 -37
13 -60 5 -56 22 -55 22 1 0 31 5 46 16 50 24 9 24 9 24 -30 0 -45 21 -41 33 5
14 55 -4 74 -46 50z"/>
<path d="M147 6149 c-10 -6 -30 -8 -44 -4 -22 5 -24 3 -18 -12 5 -10 10 -37
13 -61 3 -34 7 -42 21 -38 9 3 28 8 42 11 22 6 27 13 33 52 8 63 -4 77 -47 52z
m11 -51 c-4 -45 -38 -53 -38 -10 0 27 9 39 33 41 5 1 7 -14 5 -31z"/>
<path d="M277 5720 c-39 -7 -54 -16 -45 -26 10 -10 121 11 126 24 4 13 -20 14
-81 2z"/>
<path d="M147 5699 c-10 -6 -30 -8 -44 -4 -22 5 -24 3 -18 -12 5 -10 10 -37
13 -61 3 -34 7 -42 21 -38 9 3 28 8 42 11 22 6 27 13 33 52 8 63 -4 77 -47 52z
m11 -51 c-4 -45 -38 -53 -38 -10 0 27 9 39 33 41 5 1 7 -14 5 -31z"/>
<path d="M273 5316 c6 -41 4 -44 -18 -50 -32 -8 -32 -26 0 -26 18 0 25 -5 25
-20 0 -27 18 -25 22 2 2 14 12 24 27 28 34 8 39 30 7 30 -23 0 -26 4 -26 34 0
30 -13 46 -37 46 -3 0 -3 -20 0 -44z"/>
<path d="M147 5249 c-10 -6 -30 -8 -44 -4 -22 5 -24 3 -18 -12 5 -10 10 -37
13 -61 3 -34 7 -42 21 -38 9 3 28 8 42 11 22 6 27 13 33 52 8 63 -4 77 -47 52z
m11 -51 c-4 -45 -38 -53 -38 -10 0 27 9 39 33 41 5 1 7 -14 5 -31z"/>
<path d="M273 4866 c6 -41 4 -44 -18 -50 -32 -8 -32 -26 0 -26 15 0 25 -6 25
-14 0 -16 -21 -26 -56 -26 -13 0 -24 -5 -24 -11 0 -11 48 -9 168 7 64 9 53 28
-14 21 -48 -5 -55 -3 -52 11 2 9 14 19 27 22 34 8 39 30 7 30 -23 0 -26 4 -26
34 0 30 -13 46 -37 46 -3 0 -3 -20 0 -44z"/>
<path d="M147 4799 c-10 -6 -30 -8 -44 -4 -22 5 -24 3 -18 -12 5 -10 10 -37
13 -61 3 -34 7 -42 21 -38 9 3 28 8 42 11 22 6 27 13 33 52 8 63 -4 77 -47 52z
m11 -51 c-4 -45 -38 -53 -38 -10 0 27 9 39 33 41 5 1 7 -14 5 -31z"/>
<path d="M273 4416 c6 -41 4 -44 -18 -50 -32 -8 -32 -26 0 -26 15 0 25 -6 25
-14 0 -16 -21 -26 -56 -26 -13 0 -24 -5 -24 -11 0 -11 48 -9 168 7 64 9 53 28
-14 21 -48 -5 -55 -3 -52 11 2 9 14 19 27 22 34 8 39 30 7 30 -23 0 -26 4 -26
34 0 30 -13 46 -37 46 -3 0 -3 -20 0 -44z"/>
<path d="M147 4349 c-10 -6 -30 -8 -44 -4 -22 5 -24 3 -18 -12 5 -10 10 -37
13 -61 3 -34 7 -42 21 -38 9 3 28 8 42 11 22 6 27 13 33 52 8 63 -4 77 -47 52z
m11 -51 c-4 -45 -38 -53 -38 -10 0 27 9 39 33 41 5 1 7 -14 5 -31z"/>
<path d="M268 4228 c-66 -14 -62 -33 5 -24 28 3 60 6 70 6 9 0 17 7 17 15 0
17 -21 18 -92 3z"/>
<path d="M273 3966 c6 -41 4 -44 -18 -50 -32 -8 -32 -26 0 -26 15 0 25 -6 25
-14 0 -16 -21 -26 -56 -26 -13 0 -24 -4 -24 -10 0 -5 15 -10 34 -10 26 0 35
-5 39 -22 7 -24 -7 -38 -35 -38 -10 0 -18 -4 -18 -10 0 -5 14 -10 30 -10 23 0
30 -4 30 -20 0 -11 7 -20 15 -20 9 0 15 9 15 25 0 20 5 25 25 25 16 0 25 6 25
15 0 9 -9 15 -25 15 -18 0 -25 5 -25 19 0 11 -6 21 -12 24 -7 2 15 7 50 11 34
4 62 12 62 18 0 7 -19 9 -56 5 -48 -5 -55 -3 -52 11 2 9 14 19 27 22 34 8 39
30 7 30 -23 0 -26 4 -26 34 0 30 -13 46 -37 46 -3 0 -3 -20 0 -44z"/>
<path d="M147 3899 c-10 -6 -30 -8 -44 -4 -22 5 -24 3 -18 -12 5 -10 10 -37
13 -61 3 -34 7 -42 21 -38 9 3 28 8 42 11 22 6 27 13 33 52 8 63 -4 77 -47 52z
m11 -51 c-4 -45 -38 -53 -38 -10 0 27 9 39 33 41 5 1 7 -14 5 -31z"/>
<path d="M273 3516 c6 -41 4 -44 -18 -50 -32 -8 -32 -26 0 -26 15 0 25 -6 25
-14 0 -16 -21 -26 -56 -26 -13 0 -24 -4 -24 -10 0 -5 15 -10 34 -10 26 0 35
-5 39 -22 7 -24 -7 -38 -35 -38 -10 0 -18 -4 -18 -10 0 -5 14 -10 30 -10 19 0
30 -5 30 -14 0 -16 -30 -26 -77 -26 -18 0 -33 -4 -33 -9 0 -17 30 -20 81 -11
29 6 80 10 115 10 35 0 64 4 64 9 0 16 -32 22 -77 15 -39 -6 -43 -4 -43 15 0
16 6 21 25 21 16 0 25 6 25 15 0 9 -9 15 -25 15 -18 0 -25 5 -25 19 0 11 -6
21 -12 24 -7 2 15 7 50 11 34 4 62 12 62 18 0 7 -19 9 -56 5 -48 -5 -55 -3
-52 11 2 9 14 19 27 22 34 8 39 30 7 30 -23 0 -26 4 -26 34 0 30 -13 46 -37
46 -3 0 -3 -20 0 -44z"/>
<path d="M147 3449 c-10 -6 -30 -8 -44 -4 -22 5 -24 3 -18 -12 5 -10 10 -37
13 -61 3 -34 7 -42 21 -38 9 3 28 8 42 11 22 6 27 13 33 52 8 63 -4 77 -47 52z
m11 -51 c-4 -45 -38 -53 -38 -10 0 27 9 39 33 41 5 1 7 -14 5 -31z"/>
</g>
</svg>
