<?xml version="1.0" standalone="no"?>
<!DOCTYPE svg PUBLIC "-//W3C//DTD SVG 20010904//EN"
 "http://www.w3.org/TR/2001/REC-SVG-20010904/DTD/svg10.dtd">
<svg version="1.0" xmlns="http://www.w3.org/2000/svg"
 width="50.000000pt" height="725.000000pt" viewBox="0 0 50.000000 725.000000"
 preserveAspectRatio="xMidYMid meet">
<metadata>
Created by potrace 1.16, written by Peter Selinger 2001-2019
</metadata>
<g transform="translate(0.000000,725.000000) scale(0.100000,-0.100000)"
fill="#000000" stroke="none">
<path d="M105 7045 c3 -14 7 -36 10 -50 3 -14 10 -25 16 -25 7 0 9 9 5 23 -3
12 -6 34 -6 50 0 17 -5 27 -15 27 -11 0 -14 -7 -10 -25z"/>
<path d="M133 6627 c-28 -9 -32 -15 -27 -36 3 -15 7 -36 10 -48 8 -39 23 -25
21 19 -2 34 2 43 17 46 16 3 18 0 13 -27 -9 -44 15 -41 32 4 19 55 4 65 -66
42z"/>
<path d="M132 6176 c-21 -6 -31 -15 -27 -24 3 -7 5 -23 5 -35 0 -38 13 -48 46
-37 22 8 32 20 42 51 19 60 6 69 -66 45z m38 -30 c0 -25 -12 -46 -26 -46 -14
0 -20 41 -7 53 12 12 33 7 33 -7z"/>
<path d="M287 5753 c3 -37 8 -70 10 -73 11 -13 23 31 21 80 -2 42 -7 56 -19
58 -15 3 -16 -6 -12 -65z"/>
<path d="M132 5726 c-21 -6 -31 -15 -27 -24 3 -7 5 -23 5 -35 0 -38 13 -48 46
-37 22 8 32 20 42 51 19 60 6 69 -66 45z m38 -30 c0 -25 -12 -46 -26 -46 -14
0 -20 41 -7 53 12 12 33 7 33 -7z"/>
<path d="M287 5303 c3 -37 8 -70 10 -73 11 -13 23 31 21 80 -2 42 -7 56 -19
58 -15 3 -16 -6 -12 -65z"/>
<path d="M220 5304 c0 -16 23 -44 35 -44 18 0 20 21 3 38 -12 12 -38 17 -38 6z"/>
<path d="M132 5276 c-21 -6 -31 -15 -27 -24 3 -7 5 -23 5 -35 0 -38 13 -48 46
-37 22 8 32 20 42 51 19 60 6 69 -66 45z m38 -30 c0 -25 -12 -46 -26 -46 -14
0 -20 41 -7 53 12 12 33 7 33 -7z"/>
<path d="M287 4853 c3 -37 8 -70 10 -73 11 -13 23 31 21 80 -2 42 -7 56 -19
58 -15 3 -16 -6 -12 -65z"/>
<path d="M360 4859 c-28 -38 -21 -45 22 -23 43 22 43 21 28 39 -18 21 -26 19
-50 -16z"/>
<path d="M220 4854 c0 -16 23 -44 35 -44 18 0 20 21 3 38 -12 12 -38 17 -38 6z"/>
<path d="M132 4826 c-21 -6 -31 -15 -27 -24 3 -7 5 -23 5 -35 0 -38 13 -48 46
-37 22 8 32 20 42 51 19 60 6 69 -66 45z m38 -30 c0 -25 -12 -46 -26 -46 -14
0 -20 41 -7 53 12 12 33 7 33 -7z"/>
<path d="M287 4403 c3 -37 8 -70 10 -73 11 -13 23 31 21 80 -2 42 -7 56 -19
58 -15 3 -16 -6 -12 -65z"/>
<path d="M360 4409 c-28 -38 -21 -45 22 -23 43 22 43 21 28 39 -18 21 -26 19
-50 -16z"/>
<path d="M220 4404 c0 -16 23 -44 35 -44 18 0 20 21 3 38 -12 12 -38 17 -38 6z"/>
<path d="M132 4376 c-21 -6 -31 -15 -27 -24 3 -7 5 -23 5 -35 0 -38 13 -48 46
-37 22 8 32 20 42 51 19 60 6 69 -66 45z m38 -30 c0 -25 -12 -46 -26 -46 -14
0 -20 41 -7 53 12 12 33 7 33 -7z"/>
<path d="M234 4270 c-1 -47 -7 -78 -18 -96 -22 -33 -12 -44 15 -17 14 14 23
42 30 93 9 74 7 90 -14 90 -8 0 -12 -23 -13 -70z"/>
<path d="M287 3956 l6 -66 -29 0 -29 0 -1 -70 c-1 -47 -7 -78 -18 -96 -22 -33
-12 -44 15 -17 14 14 23 41 29 87 5 37 10 69 12 71 1 2 19 5 38 7 l35 3 3 -77
c3 -73 1 -78 -18 -78 -25 0 -26 -12 -2 -33 42 -38 49 -22 54 113 l3 95 -32 3
c-32 3 -32 4 -35 60 -2 43 -7 58 -19 60 -15 3 -16 -5 -12 -62z"/>
<path d="M360 3959 c-28 -38 -21 -45 22 -23 43 22 43 21 28 39 -18 21 -26 19
-50 -16z"/>
<path d="M220 3954 c0 -16 23 -44 35 -44 18 0 20 21 3 38 -12 12 -38 17 -38 6z"/>
<path d="M132 3926 c-21 -6 -31 -15 -27 -24 3 -7 5 -23 5 -35 0 -38 13 -48 46
-37 22 8 32 20 42 51 19 60 6 69 -66 45z m38 -30 c0 -25 -12 -46 -26 -46 -14
0 -20 41 -7 53 12 12 33 7 33 -7z"/>
<path d="M287 3506 l6 -66 -29 0 -29 0 -1 -70 c-1 -47 -7 -78 -18 -96 -22 -33
-12 -44 16 -17 14 14 22 39 26 73 4 42 7 50 21 44 38 -16 51 -16 51 -1 0 8
-13 17 -30 21 -16 3 -30 10 -30 15 0 9 67 21 75 12 3 -2 5 -37 5 -78 0 -66 -2
-73 -20 -73 -25 0 -26 -12 -2 -33 42 -38 49 -22 54 113 l3 95 -32 3 c-32 3
-32 4 -35 60 -2 43 -7 58 -19 60 -15 3 -16 -5 -12 -62z"/>
<path d="M360 3509 c-28 -38 -21 -45 22 -23 43 22 43 21 28 39 -18 21 -26 19
-50 -16z"/>
<path d="M220 3504 c0 -16 23 -44 35 -44 18 0 20 21 3 38 -12 12 -38 17 -38 6z"/>
<path d="M132 3476 c-21 -6 -31 -15 -27 -24 3 -7 5 -23 5 -35 0 -38 13 -48 46
-37 22 8 32 20 42 51 19 60 6 69 -66 45z m38 -30 c0 -25 -12 -46 -26 -46 -14
0 -20 41 -7 53 12 12 33 7 33 -7z"/>
<path d="M287 3056 l6 -66 -29 0 -29 0 -1 -70 c-1 -47 -7 -78 -18 -96 -10 -14
-15 -28 -12 -31 8 -9 46 27 46 44 0 7 10 13 23 13 23 1 57 21 57 35 0 4 -16 4
-35 1 -33 -7 -35 -5 -35 20 0 21 3 25 18 19 40 -17 52 -17 52 -2 0 8 -13 17
-30 21 -16 3 -30 10 -30 15 0 9 67 21 75 12 3 -2 5 -37 5 -78 0 -66 -2 -73
-20 -73 -25 0 -26 -12 -2 -33 42 -38 49 -22 54 113 l3 95 -32 3 c-32 3 -32 4
-35 60 -2 43 -7 58 -19 60 -15 3 -16 -5 -12 -62z"/>
<path d="M360 3059 c-28 -38 -21 -45 22 -23 43 22 43 21 28 39 -18 21 -26 19
-50 -16z"/>
<path d="M220 3054 c0 -16 23 -44 35 -44 18 0 20 21 3 38 -12 12 -38 17 -38 6z"/>
<path d="M132 3026 c-21 -6 -31 -15 -27 -24 3 -7 5 -23 5 -35 0 -38 13 -48 46
-37 22 8 32 20 42 51 19 60 6 69 -66 45z m38 -30 c0 -25 -12 -46 -26 -46 -14
0 -20 41 -7 53 12 12 33 7 33 -7z"/>
</g>
</svg>
