<?xml version="1.0" standalone="no"?>
<!DOCTYPE svg PUBLIC "-//W3C//DTD SVG 20010904//EN"
 "http://www.w3.org/TR/2001/REC-SVG-20010904/DTD/svg10.dtd">
<svg version="1.0" xmlns="http://www.w3.org/2000/svg"
 width="50.000000pt" height="725.000000pt" viewBox="0 0 50.000000 725.000000"
 preserveAspectRatio="xMidYMid meet">
<metadata>
Created by potrace 1.16, written by Peter Selinger 2001-2019
</metadata>
<g transform="translate(0.000000,725.000000) scale(0.100000,-0.100000)"
fill="#000000" stroke="none">
<path d="M84 7048 c3 -13 8 -40 11 -60 3 -21 10 -38 15 -38 13 0 13 76 0 101
-15 26 -31 24 -26 -3z"/>
<path d="M140 6619 c-11 -8 -12 -12 -2 -16 6 -2 12 -20 12 -39 0 -46 17 -43
31 7 11 34 10 42 -2 50 -18 11 -21 11 -39 -2z"/>
<path d="M84 6598 c3 -13 8 -40 11 -60 9 -56 25 -46 25 16 0 40 -4 55 -16 60
-23 9 -25 8 -20 -16z"/>
<path d="M140 6169 c-11 -8 -12 -12 -2 -16 18 -7 16 -63 -3 -63 -10 0 -15 10
-15 34 0 22 -6 36 -16 40 -9 4 -18 5 -19 4 -4 -4 13 -109 18 -114 2 -2 17 2
34 8 25 9 34 21 44 56 10 37 10 45 -2 53 -18 11 -21 11 -39 -2z"/>
<path d="M270 5810 c0 -5 -16 -27 -35 -49 -54 -60 -49 -70 31 -50 49 13 61 34
14 27 l-30 -5 26 28 c16 17 24 34 21 43 -7 18 -27 22 -27 6z"/>
<path d="M320 5740 c0 -5 7 -10 15 -10 8 0 15 5 15 10 0 6 -7 10 -15 10 -8 0
-15 -4 -15 -10z"/>
<path d="M140 5719 c-11 -8 -12 -12 -2 -16 18 -7 16 -63 -3 -63 -10 0 -15 10
-15 34 0 22 -6 36 -16 40 -9 4 -18 5 -19 4 -4 -4 13 -109 18 -114 2 -2 17 2
34 8 25 9 34 21 44 56 10 37 10 45 -2 53 -18 11 -21 11 -39 -2z"/>
<path d="M270 5360 c0 -5 -16 -27 -35 -49 -54 -60 -49 -70 31 -50 49 13 61 34
14 27 l-30 -5 26 28 c16 17 24 34 21 43 -7 18 -27 22 -27 6z"/>
<path d="M326 5304 c-9 -22 -8 -24 9 -24 8 0 15 -4 15 -10 0 -5 7 -10 15 -10
18 0 20 31 3 48 -17 17 -35 15 -42 -4z"/>
<path d="M140 5269 c-11 -8 -12 -12 -2 -16 18 -7 16 -63 -3 -63 -10 0 -15 10
-15 34 0 22 -6 36 -16 40 -9 4 -18 5 -19 4 -4 -4 13 -109 18 -114 2 -2 17 2
34 8 25 9 34 21 44 56 10 37 10 45 -2 53 -18 11 -21 11 -39 -2z"/>
<path d="M270 4910 c0 -5 -16 -27 -35 -49 -40 -44 -44 -61 -14 -61 21 0 21 -1
4 -26 -9 -14 -14 -28 -11 -31 9 -9 47 28 57 55 5 12 15 22 24 22 8 0 15 5 15
11 0 7 -12 10 -30 7 l-30 -5 26 28 c16 17 24 34 21 43 -7 18 -27 22 -27 6z"/>
<path d="M326 4854 c-9 -22 -8 -24 9 -24 8 0 15 -4 15 -10 0 -5 7 -10 15 -10
18 0 20 31 3 48 -17 17 -35 15 -42 -4z"/>
<path d="M140 4819 c-11 -8 -12 -12 -2 -16 18 -7 16 -63 -3 -63 -10 0 -15 10
-15 34 0 22 -6 36 -16 40 -9 4 -18 5 -19 4 -4 -4 13 -109 18 -114 2 -2 17 2
34 8 25 9 34 21 44 56 10 37 10 45 -2 53 -18 11 -21 11 -39 -2z"/>
<path d="M270 4460 c0 -5 -16 -27 -35 -49 -40 -44 -44 -61 -14 -61 21 0 21 -1
4 -26 -9 -14 -14 -28 -11 -31 9 -9 47 28 59 57 l11 25 4 -25 c6 -38 21 -50 63
-50 28 0 39 4 39 15 0 10 -11 15 -35 15 -31 0 -35 3 -35 25 0 16 6 25 15 25 8
0 15 -4 15 -10 0 -5 7 -10 16 -10 21 0 15 39 -8 54 -13 8 -20 7 -30 -6 -7 -9
-28 -18 -46 -20 l-32 -5 26 28 c16 17 24 34 21 43 -7 18 -27 22 -27 6z"/>
<path d="M140 4369 c-11 -8 -12 -12 -2 -16 18 -7 16 -63 -3 -63 -10 0 -15 10
-15 34 0 22 -6 36 -16 40 -9 4 -18 5 -19 4 -4 -4 13 -109 18 -114 2 -2 17 2
34 8 25 9 34 21 44 56 10 37 10 45 -2 53 -18 11 -21 11 -39 -2z"/>
<path d="M270 4010 c0 -5 -16 -27 -35 -49 -40 -44 -44 -61 -14 -61 21 0 21 -1
4 -26 -9 -14 -14 -28 -11 -31 9 -9 47 28 59 57 l11 25 4 -25 c6 -38 21 -50 63
-50 28 0 39 4 39 15 0 10 -11 15 -35 15 -31 0 -35 3 -35 25 0 16 6 25 15 25 8
0 15 -4 15 -10 0 -5 7 -10 16 -10 21 0 15 39 -8 54 -13 8 -20 7 -30 -6 -7 -9
-28 -18 -46 -20 l-32 -5 26 28 c16 17 24 34 21 43 -7 18 -27 22 -27 6z"/>
<path d="M140 3919 c-11 -8 -12 -12 -2 -16 18 -7 16 -63 -3 -63 -10 0 -15 10
-15 34 0 22 -6 36 -16 40 -9 4 -18 5 -19 4 -4 -4 13 -109 18 -114 2 -2 17 2
34 8 25 9 34 21 44 56 10 37 10 45 -2 53 -18 11 -21 11 -39 -2z"/>
<path d="M260 3848 c0 -6 -12 -26 -26 -45 -27 -35 -27 -52 -1 -36 25 14 69 72
62 83 -8 14 -35 13 -35 -2z"/>
<path d="M270 3560 c0 -5 -16 -27 -35 -49 -40 -44 -44 -61 -14 -61 21 0 21 -1
4 -26 -9 -14 -14 -28 -11 -31 9 -9 47 28 59 57 l11 25 4 -25 c6 -38 21 -50 63
-50 28 0 39 4 39 15 0 10 -11 15 -35 15 -31 0 -35 3 -35 25 0 16 6 25 15 25 8
0 15 -4 15 -10 0 -5 7 -10 16 -10 21 0 15 39 -8 54 -13 8 -20 7 -30 -6 -7 -9
-28 -18 -46 -20 l-32 -5 26 28 c16 17 24 34 21 43 -7 18 -27 22 -27 6z"/>
<path d="M140 3469 c-11 -8 -12 -12 -2 -16 18 -7 16 -63 -3 -63 -10 0 -15 10
-15 34 0 22 -6 36 -16 40 -9 4 -18 5 -19 4 -4 -4 13 -109 18 -114 2 -2 17 2
34 8 25 9 34 21 44 56 10 37 10 45 -2 53 -18 11 -21 11 -39 -2z"/>
<path d="M260 3399 c0 -7 -12 -27 -26 -46 -14 -19 -24 -37 -21 -40 3 -2 26 7
51 22 25 15 46 23 46 18 0 -19 -42 -74 -65 -85 -26 -12 -34 -28 -12 -28 27 0
77 41 97 79 27 54 26 64 -9 59 -21 -3 -28 0 -27 11 1 8 -7 17 -16 19 -10 2
-18 -2 -18 -9z"/>
<path d="M190 3240 c0 -5 5 -10 10 -10 6 0 10 5 10 10 0 6 -4 10 -10 10 -5 0
-10 -4 -10 -10z"/>
<path d="M270 3110 c0 -5 -16 -27 -35 -49 -40 -44 -44 -61 -14 -61 21 0 21 -1
4 -26 -9 -14 -14 -28 -11 -31 9 -9 47 28 59 57 l11 25 4 -25 c6 -38 21 -50 63
-50 28 0 39 4 39 15 0 10 -11 15 -35 15 -31 0 -35 3 -35 25 0 16 6 25 15 25 8
0 15 -4 15 -10 0 -5 7 -10 16 -10 21 0 15 39 -8 54 -13 8 -20 7 -30 -6 -7 -9
-28 -18 -46 -20 l-32 -5 26 28 c16 17 24 34 21 43 -7 18 -27 22 -27 6z"/>
<path d="M140 3019 c-11 -8 -12 -12 -2 -16 18 -7 16 -63 -3 -63 -10 0 -15 10
-15 34 0 22 -6 36 -16 40 -9 4 -18 5 -19 4 -4 -4 13 -109 18 -114 2 -2 17 2
34 8 25 9 34 21 44 56 10 37 10 45 -2 53 -18 11 -21 11 -39 -2z"/>
<path d="M255 2938 c-7 -16 -18 -22 -33 -21 -22 3 -30 -11 -12 -22 5 -3 6 -13
3 -22 -5 -12 -2 -15 9 -10 9 3 23 -2 33 -13 17 -18 16 -20 -9 -31 -26 -12 -35
-29 -15 -29 6 0 19 5 30 11 15 8 25 6 46 -10 25 -21 66 -27 97 -15 20 8 21 24
1 24 -8 0 -33 7 -55 16 l-39 16 19 39 c27 52 26 62 -9 57 -21 -3 -28 0 -27 11
2 25 -28 24 -39 -1z m45 -58 c-11 -21 -31 -23 -37 -4 -3 10 38 35 45 29 2 -2
-2 -13 -8 -25z"/>
<path d="M190 2790 c0 -5 5 -10 10 -10 6 0 10 5 10 10 0 6 -4 10 -10 10 -5 0
-10 -4 -10 -10z"/>
</g>
</svg>
