<?xml version="1.0" standalone="no"?>
<!DOCTYPE svg PUBLIC "-//W3C//DTD SVG 20010904//EN"
 "http://www.w3.org/TR/2001/REC-SVG-20010904/DTD/svg10.dtd">
<svg version="1.0" xmlns="http://www.w3.org/2000/svg"
 width="50.000000pt" height="725.000000pt" viewBox="0 0 50.000000 725.000000"
 preserveAspectRatio="xMidYMid meet">
<metadata>
Created by potrace 1.16, written by Peter Selinger 2001-2019
</metadata>
<g transform="translate(0.000000,725.000000) scale(0.100000,-0.100000)"
fill="#000000" stroke="none">
<path d="M75 7064 c4 -11 10 -34 13 -51 7 -51 23 -39 20 14 -2 38 -7 49 -22
51 -15 3 -17 0 -11 -14z"/>
<path d="M102 6633 c-27 -4 -32 -8 -26 -21 4 -9 9 -32 12 -49 6 -46 22 -41 22
6 0 31 4 40 21 44 19 5 21 3 16 -29 -8 -48 17 -45 31 5 7 21 12 41 12 45 0 6
-30 6 -88 -1z"/>
<path d="M102 6183 c-27 -4 -32 -8 -26 -21 4 -9 9 -32 12 -50 4 -29 8 -33 26
-28 11 3 28 6 37 6 10 0 19 11 23 28 3 15 8 37 12 50 7 24 -1 25 -84 15z m44
-59 c-3 -8 -12 -14 -21 -14 -22 0 -20 48 3 52 18 4 27 -14 18 -38z"/>
<path d="M239 5783 c-16 -52 -59 -136 -66 -130 -3 3 0 22 7 42 7 20 10 39 7
41 -3 3 -31 2 -62 -1 -47 -6 -55 -10 -49 -24 4 -9 9 -30 11 -47 5 -30 6 -31
53 -29 27 1 55 7 63 14 24 19 80 139 73 156 -9 26 -24 17 -37 -22z m-93 -109
c-3 -8 -12 -14 -21 -14 -22 0 -20 48 3 52 18 4 27 -14 18 -38z"/>
<path d="M239 5333 c-16 -52 -59 -136 -66 -130 -3 3 0 22 7 42 7 20 10 39 7
41 -3 3 -31 2 -62 -1 -47 -6 -55 -10 -49 -24 4 -9 9 -30 11 -47 5 -30 6 -31
55 -29 41 1 55 7 71 26 l19 24 -3 -104 c-3 -77 -1 -105 9 -108 9 -4 13 19 14
89 4 153 4 161 17 200 12 37 9 58 -9 58 -5 0 -14 -17 -21 -37z m-93 -109 c-3
-8 -12 -14 -21 -14 -22 0 -20 48 3 52 18 4 27 -14 18 -38z"/>
<path d="M239 4883 c-16 -52 -59 -136 -66 -130 -3 3 0 22 7 42 7 20 10 39 7
41 -3 3 -31 2 -62 -1 -47 -6 -55 -10 -49 -24 4 -9 9 -30 11 -47 5 -30 6 -31
55 -29 41 1 55 7 71 26 l19 24 -3 -104 c-3 -77 -1 -105 9 -108 9 -4 13 19 14
89 4 153 4 161 17 200 12 37 9 58 -9 58 -5 0 -14 -17 -21 -37z m-93 -109 c-3
-8 -12 -14 -21 -14 -22 0 -20 48 3 52 18 4 27 -14 18 -38z"/>
<path d="M302 4864 c4 -20 34 -41 45 -31 10 11 -11 41 -31 45 -12 3 -17 -2
-14 -14z"/>
<path d="M239 4433 c-16 -52 -59 -136 -66 -130 -3 3 0 22 7 42 7 20 10 39 7
41 -3 3 -31 2 -62 -1 -47 -6 -55 -10 -49 -24 4 -9 9 -30 11 -47 5 -30 6 -31
55 -29 41 1 55 7 71 26 l19 24 -3 -104 c-3 -77 -1 -105 9 -108 9 -4 12 15 12
74 0 43 3 95 6 115 6 37 6 37 75 48 66 11 95 30 46 30 -12 0 -28 9 -35 20 -7
11 -19 20 -27 20 -18 0 -20 -26 -3 -36 13 -8 -14 -22 -44 -23 -16 -1 -16 2 -2
35 15 36 13 64 -5 64 -5 0 -15 -17 -22 -37z m-93 -109 c-3 -8 -12 -14 -21 -14
-22 0 -20 48 3 52 18 4 27 -14 18 -38z"/>
<path d="M239 3983 c-16 -52 -59 -136 -66 -130 -3 3 0 22 7 42 7 20 10 39 7
41 -3 3 -31 2 -62 -1 -47 -6 -55 -10 -49 -24 4 -9 9 -30 11 -47 5 -30 6 -31
55 -29 41 1 55 7 71 26 l19 24 -3 -104 c-3 -77 -1 -105 9 -108 9 -4 12 17 12
80 l0 85 65 7 c47 5 65 11 65 22 0 11 -8 13 -30 9 -16 -3 -43 -9 -60 -12 -25
-5 -30 -2 -30 14 0 17 11 22 70 32 66 11 96 30 47 30 -12 0 -28 9 -35 20 -7
11 -19 20 -27 20 -18 0 -20 -26 -3 -36 13 -8 -14 -22 -44 -23 -16 -1 -16 2 -2
35 15 36 13 64 -5 64 -5 0 -15 -17 -22 -37z m-93 -109 c-3 -8 -12 -14 -21 -14
-22 0 -20 48 3 52 18 4 27 -14 18 -38z"/>
<path d="M239 3533 c-16 -52 -59 -136 -66 -130 -3 3 0 22 7 42 7 20 10 39 7
41 -3 3 -31 2 -62 -1 -47 -6 -55 -10 -49 -24 4 -9 9 -30 11 -47 5 -30 6 -31
55 -29 41 1 55 7 71 26 l19 24 -3 -104 c-3 -77 -1 -105 9 -108 9 -4 12 12 12
56 0 60 0 61 29 61 53 0 121 13 121 23 0 6 -28 7 -75 2 -63 -6 -75 -4 -75 8 0
12 17 17 65 22 47 5 65 11 65 22 0 11 -8 13 -30 9 -16 -3 -43 -9 -60 -12 -25
-5 -30 -2 -30 14 0 17 11 22 70 32 66 11 96 30 47 30 -12 0 -28 9 -35 20 -7
11 -19 20 -27 20 -18 0 -20 -26 -3 -36 13 -8 -14 -22 -44 -23 -16 -1 -16 2 -2
35 15 36 13 64 -5 64 -5 0 -15 -17 -22 -37z m-93 -109 c-3 -8 -12 -14 -21 -14
-22 0 -20 48 3 52 18 4 27 -14 18 -38z"/>
<path d="M239 3083 c-16 -52 -59 -136 -66 -130 -3 3 0 22 7 42 7 20 10 39 7
41 -3 3 -31 2 -62 -1 -47 -6 -55 -10 -49 -24 4 -9 9 -30 11 -47 5 -30 6 -31
55 -29 41 1 55 7 71 26 l19 24 -3 -104 c-3 -77 -1 -105 9 -108 9 -4 12 12 12
56 l0 61 30 0 c26 0 30 -4 30 -26 0 -34 24 -26 28 9 3 22 8 27 33 27 16 0 29
5 29 10 0 6 -13 10 -30 10 -20 0 -30 5 -30 15 0 8 9 15 20 15 12 0 20 7 20 16
0 11 -6 15 -20 11 -15 -4 -20 0 -20 14 0 14 9 21 30 26 35 7 40 23 7 23 -12 0
-28 9 -35 20 -7 11 -19 20 -27 20 -18 0 -20 -26 -3 -36 13 -8 -14 -22 -44 -23
-16 -1 -16 2 -2 35 15 36 13 64 -5 64 -5 0 -15 -17 -22 -37z m-93 -109 c-3 -8
-12 -14 -21 -14 -22 0 -20 48 3 52 18 4 27 -14 18 -38z m160 15 c7 -12 -12
-29 -33 -29 -7 0 -13 9 -13 20 0 22 34 28 46 9z m4 -64 c0 -10 -10 -15 -30
-15 -20 0 -30 5 -30 15 0 10 10 15 30 15 20 0 30 -5 30 -15z"/>
<path d="M239 2633 c-16 -52 -59 -136 -66 -130 -3 3 0 22 7 42 7 20 10 39 7
41 -3 3 -31 2 -62 -1 -47 -6 -55 -10 -49 -24 4 -9 9 -30 11 -47 5 -30 6 -31
55 -29 41 1 55 7 71 26 l19 24 -3 -104 c-3 -77 -1 -105 9 -108 7 -3 12 5 12
20 0 29 16 37 75 37 55 0 105 10 105 21 0 5 -20 9 -45 9 -38 0 -45 3 -45 20 0
16 7 20 30 20 17 0 30 5 30 10 0 6 -13 10 -30 10 -20 0 -30 5 -30 15 0 8 9 15
20 15 12 0 20 7 20 16 0 11 -6 15 -20 11 -15 -4 -20 0 -20 14 0 14 9 21 30 26
35 7 40 23 7 23 -12 0 -28 9 -35 20 -7 11 -19 20 -27 20 -18 0 -20 -26 -3 -36
13 -8 -14 -22 -44 -23 -16 -1 -16 2 -2 35 15 36 13 64 -5 64 -5 0 -15 -17 -22
-37z m-93 -109 c-3 -8 -12 -14 -21 -14 -22 0 -20 48 3 52 18 4 27 -14 18 -38z
m160 15 c7 -12 -12 -29 -33 -29 -7 0 -13 9 -13 20 0 22 34 28 46 9z m4 -64 c0
-10 -10 -15 -30 -15 -20 0 -30 5 -30 15 0 10 10 15 30 15 20 0 30 -5 30 -15z
m0 -55 c0 -16 -7 -20 -30 -20 -23 0 -30 4 -30 20 0 16 7 20 30 20 23 0 30 -4
30 -20z"/>
</g>
</svg>
