<?xml version="1.0" standalone="no"?>
<!DOCTYPE svg PUBLIC "-//W3C//DTD SVG 20010904//EN"
 "http://www.w3.org/TR/2001/REC-SVG-20010904/DTD/svg10.dtd">
<svg version="1.0" xmlns="http://www.w3.org/2000/svg"
 width="50.000000pt" height="725.000000pt" viewBox="0 0 50.000000 725.000000"
 preserveAspectRatio="xMidYMid meet">
<metadata>
Created by potrace 1.16, written by Peter Selinger 2001-2019
</metadata>
<g transform="translate(0.000000,725.000000) scale(0.100000,-0.100000)"
fill="#000000" stroke="none">
<path d="M84 7039 c3 -17 6 -40 6 -50 0 -11 5 -19 10 -19 11 0 14 59 4 84 -11
29 -27 17 -20 -15z"/>
<path d="M130 6629 c-11 -8 -12 -12 -2 -16 6 -2 12 -20 12 -40 0 -44 21 -40
33 6 14 54 -6 76 -43 50z"/>
<path d="M84 6589 c3 -17 6 -40 6 -50 0 -11 5 -19 10 -19 6 0 10 23 10 50 0
39 -3 50 -16 50 -13 0 -15 -7 -10 -31z"/>
<path d="M130 6179 c-11 -8 -12 -12 -2 -16 18 -7 16 -63 -3 -63 -10 0 -15 11
-15 35 0 25 -4 35 -16 35 -13 0 -14 -8 -8 -47 3 -27 7 -48 8 -49 0 -1 17 1 37
3 35 5 37 7 43 50 8 62 -6 79 -44 52z"/>
<path d="M213 5773 c-13 -2 -23 -9 -23 -15 0 -6 12 -8 29 -5 25 5 28 3 24 -14
-3 -10 -19 -31 -35 -45 -35 -28 -30 -43 7 -26 28 13 65 67 65 95 0 17 -17 20
-67 10z"/>
<path d="M130 5729 c-11 -8 -12 -12 -2 -16 18 -7 16 -63 -3 -63 -10 0 -15 11
-15 35 0 25 -4 35 -16 35 -13 0 -14 -8 -8 -47 3 -27 7 -48 8 -49 0 -1 17 1 37
3 35 5 37 7 43 50 8 62 -6 79 -44 52z"/>
<path d="M213 5323 c-28 -5 -29 -11 -2 -39 l20 -22 -27 -21 c-33 -26 -24 -39
13 -21 16 7 35 12 44 11 12 -1 15 9 16 49 1 54 -1 55 -64 43z m37 -17 c0 -3
-4 -8 -10 -11 -5 -3 -10 -1 -10 4 0 6 5 11 10 11 6 0 10 -2 10 -4z"/>
<path d="M130 5279 c-11 -8 -12 -12 -2 -16 18 -7 16 -63 -3 -63 -10 0 -15 11
-15 35 0 25 -4 35 -16 35 -13 0 -14 -8 -8 -47 3 -27 7 -48 8 -49 0 -1 17 1 37
3 35 5 37 7 43 50 8 62 -6 79 -44 52z"/>
<path d="M323 4889 c-41 -12 -43 -31 -3 -22 41 8 40 -18 0 -59 -35 -34 -32
-47 5 -30 27 13 69 86 61 108 -6 16 -17 16 -63 3z"/>
<path d="M213 4873 c-28 -5 -29 -11 -2 -39 l20 -22 -27 -21 c-33 -26 -24 -39
13 -21 16 7 35 12 44 11 12 -1 15 9 16 49 1 54 -1 55 -64 43z m37 -17 c0 -3
-4 -8 -10 -11 -5 -3 -10 -1 -10 4 0 6 5 11 10 11 6 0 10 -2 10 -4z"/>
<path d="M130 4829 c-11 -8 -12 -12 -2 -16 18 -7 16 -63 -3 -63 -10 0 -15 11
-15 35 0 25 -4 35 -16 35 -13 0 -14 -8 -8 -47 3 -27 7 -48 8 -49 0 -1 17 1 37
3 35 5 37 7 43 50 8 62 -6 79 -44 52z"/>
<path d="M323 4439 c-39 -11 -40 -15 -10 -47 l22 -24 -24 -19 c-31 -26 -18
-38 19 -17 24 14 29 14 34 2 3 -8 10 -14 16 -14 13 0 13 47 0 55 -7 4 -6 13 1
26 12 24 5 49 -13 48 -7 0 -28 -5 -45 -10z m27 -29 c0 -5 -7 -7 -15 -4 -8 4
-15 8 -15 10 0 2 7 4 15 4 8 0 15 -4 15 -10z"/>
<path d="M213 4423 c-28 -5 -29 -11 -2 -39 l20 -22 -27 -21 c-33 -26 -24 -39
13 -21 16 7 35 12 44 11 12 -1 15 9 16 49 1 54 -1 55 -64 43z m37 -17 c0 -3
-4 -8 -10 -11 -5 -3 -10 -1 -10 4 0 6 5 11 10 11 6 0 10 -2 10 -4z"/>
<path d="M130 4379 c-11 -8 -12 -12 -2 -16 18 -7 16 -63 -3 -63 -10 0 -15 11
-15 35 0 25 -4 35 -16 35 -13 0 -14 -8 -8 -47 3 -27 7 -48 8 -49 0 -1 17 1 37
3 35 5 37 7 43 50 8 62 -6 79 -44 52z"/>
<path d="M323 3989 c-39 -11 -40 -15 -10 -47 l22 -24 -24 -19 c-31 -26 -18
-38 19 -17 24 14 29 14 34 2 3 -8 10 -14 16 -14 13 0 13 47 0 55 -7 4 -6 13 1
26 12 24 5 49 -13 48 -7 0 -28 -5 -45 -10z m27 -29 c0 -5 -7 -7 -15 -4 -8 4
-15 8 -15 10 0 2 7 4 15 4 8 0 15 -4 15 -10z"/>
<path d="M213 3973 c-28 -5 -29 -11 -2 -39 l20 -22 -27 -21 c-33 -26 -24 -39
13 -21 16 7 35 12 44 11 12 -1 15 9 16 49 1 54 -1 55 -64 43z m37 -17 c0 -3
-4 -8 -10 -11 -5 -3 -10 -1 -10 4 0 6 5 11 10 11 6 0 10 -2 10 -4z"/>
<path d="M130 3929 c-11 -8 -12 -12 -2 -16 18 -7 16 -63 -3 -63 -10 0 -15 11
-15 35 0 26 -4 35 -16 35 -13 0 -15 -7 -10 -31 3 -17 6 -40 6 -49 0 -15 6 -17
40 -13 28 4 40 2 40 -6 0 -9 10 -10 30 -6 24 5 30 3 30 -10 0 -18 -55 -78 -80
-87 -8 -3 -12 -8 -9 -12 8 -9 59 11 83 32 10 9 27 34 38 56 25 49 14 61 -38
47 -56 -16 -56 -16 -52 41 3 55 -10 70 -42 47z"/>
<path d="M323 3539 c-39 -11 -40 -15 -10 -47 l22 -24 -24 -19 c-31 -26 -18
-38 19 -17 24 14 29 14 34 2 3 -8 10 -14 16 -14 13 0 13 47 0 55 -7 4 -6 13 1
26 12 24 5 49 -13 48 -7 0 -28 -5 -45 -10z m27 -29 c0 -5 -7 -7 -15 -4 -8 4
-15 8 -15 10 0 2 7 4 15 4 8 0 15 -4 15 -10z"/>
<path d="M213 3523 c-28 -5 -29 -11 -2 -39 l20 -22 -27 -21 c-33 -26 -24 -39
13 -21 16 7 35 12 44 11 12 -1 15 9 16 49 1 54 -1 55 -64 43z m37 -17 c0 -3
-4 -8 -10 -11 -5 -3 -10 -1 -10 4 0 6 5 11 10 11 6 0 10 -2 10 -4z"/>
<path d="M130 3479 c-11 -8 -12 -12 -2 -16 18 -7 16 -63 -3 -63 -10 0 -15 11
-15 35 0 26 -4 35 -16 35 -13 0 -15 -7 -10 -31 3 -17 6 -40 6 -49 0 -15 7 -17
38 -14 32 4 40 0 61 -27 l25 -32 -26 -22 c-15 -13 -33 -25 -40 -28 -7 -2 -10
-8 -6 -12 4 -4 26 2 50 14 28 13 46 17 52 11 6 -6 14 -10 18 -10 12 0 10 38
-2 45 -6 4 -4 18 6 37 21 41 8 53 -42 39 -56 -16 -56 -16 -52 41 3 55 -10 70
-42 47z m100 -119 c0 -5 -7 -7 -15 -4 -8 4 -15 8 -15 10 0 2 7 4 15 4 8 0 15
-4 15 -10z"/>
<path d="M323 3089 c-39 -11 -40 -15 -10 -47 l22 -24 -24 -19 c-31 -26 -18
-38 19 -17 24 14 29 14 34 2 3 -8 10 -14 16 -14 13 0 13 47 0 55 -7 4 -6 13 1
26 12 24 5 49 -13 48 -7 0 -28 -5 -45 -10z m27 -29 c0 -5 -7 -7 -15 -4 -8 4
-15 8 -15 10 0 2 7 4 15 4 8 0 15 -4 15 -10z"/>
<path d="M213 3073 c-28 -5 -29 -11 -2 -39 l20 -22 -27 -21 c-33 -26 -24 -39
13 -21 16 7 35 12 44 11 12 -1 15 9 16 49 1 54 -1 55 -64 43z m37 -17 c0 -3
-4 -8 -10 -11 -5 -3 -10 -1 -10 4 0 6 5 11 10 11 6 0 10 -2 10 -4z"/>
<path d="M130 3029 c-11 -8 -12 -12 -2 -16 18 -7 16 -63 -3 -63 -10 0 -15 11
-15 35 0 26 -4 35 -16 35 -13 0 -15 -7 -10 -31 3 -17 6 -40 6 -49 0 -15 7 -17
38 -14 32 4 40 0 61 -27 l25 -32 -26 -22 c-15 -13 -33 -25 -40 -28 -7 -2 -10
-8 -6 -12 4 -4 26 2 50 14 l43 21 18 -22 19 -22 36 19 c39 21 98 117 86 137
-4 6 -21 7 -43 3 -20 -4 -54 -8 -76 -9 -22 -1 -55 -6 -73 -10 l-34 -8 4 53 c3
56 -10 71 -42 48z m214 -121 c-10 -34 -34 -67 -55 -79 -16 -8 -19 -6 -19 10 0
11 -4 22 -10 26 -17 11 11 54 39 58 52 8 53 8 45 -15z m-114 2 c0 -5 -7 -7
-15 -4 -8 4 -15 8 -15 10 0 2 7 4 15 4 8 0 15 -4 15 -10z"/>
<path d="M323 2639 c-39 -11 -40 -15 -10 -47 l22 -24 -24 -19 c-31 -26 -18
-38 19 -17 24 14 29 14 34 2 3 -8 10 -14 16 -14 13 0 13 47 0 55 -7 4 -6 13 1
26 12 24 5 49 -13 48 -7 0 -28 -5 -45 -10z m27 -29 c0 -5 -7 -7 -15 -4 -8 4
-15 8 -15 10 0 2 7 4 15 4 8 0 15 -4 15 -10z"/>
<path d="M213 2623 c-28 -5 -29 -11 -2 -39 l20 -22 -27 -21 c-33 -26 -24 -39
13 -21 16 7 35 12 44 11 12 -1 15 9 16 49 1 54 -1 55 -64 43z m37 -17 c0 -3
-4 -8 -10 -11 -5 -3 -10 -1 -10 4 0 6 5 11 10 11 6 0 10 -2 10 -4z"/>
<path d="M130 2579 c-11 -8 -12 -12 -2 -16 18 -7 16 -63 -3 -63 -10 0 -15 11
-15 35 0 26 -4 35 -16 35 -13 0 -15 -7 -10 -31 3 -17 6 -40 6 -49 0 -15 7 -17
38 -14 32 4 40 0 61 -27 l25 -32 -26 -22 c-15 -13 -33 -25 -40 -28 -7 -2 -10
-8 -6 -12 4 -4 26 2 50 14 l43 21 18 -21 c17 -21 19 -22 51 -7 31 15 34 15 49
-3 17 -20 77 -27 77 -9 0 5 -13 16 -29 25 -42 21 -44 29 -22 76 25 52 19 63
-28 54 -20 -4 -54 -8 -76 -9 -22 -1 -55 -6 -73 -10 l-34 -8 4 53 c3 56 -10 71
-42 48z m220 -106 c0 -10 -20 -40 -20 -31 0 3 -3 13 -6 22 -4 11 -1 16 10 16
9 0 16 -3 16 -7z m-120 -13 c0 -5 -7 -7 -15 -4 -8 4 -15 8 -15 10 0 2 7 4 15
4 8 0 15 -4 15 -10z m76 -22 c16 -31 16 -32 -7 -51 -23 -19 -24 -19 -27 -1 -2
11 -8 23 -12 28 -9 9 8 56 21 56 5 0 16 -14 25 -32z"/>
</g>
</svg>
