<?xml version="1.0" standalone="no"?>
<!DOCTYPE svg PUBLIC "-//W3C//DTD SVG 20010904//EN"
 "http://www.w3.org/TR/2001/REC-SVG-20010904/DTD/svg10.dtd">
<svg version="1.0" xmlns="http://www.w3.org/2000/svg"
 width="50.000000pt" height="725.000000pt" viewBox="0 0 50.000000 725.000000"
 preserveAspectRatio="xMidYMid meet">
<metadata>
Created by potrace 1.16, written by Peter Selinger 2001-2019
</metadata>
<g transform="translate(0.000000,725.000000) scale(0.100000,-0.100000)"
fill="#000000" stroke="none">
<path d="M85 7038 c11 -56 16 -68 27 -68 6 0 8 10 4 23 -3 12 -6 34 -6 50 0
18 -5 27 -16 27 -12 0 -14 -7 -9 -32z"/>
<path d="M107 6623 c-29 -5 -31 -15 -11 -85 10 -34 25 -18 18 18 -5 26 -3 39
7 45 28 17 39 10 33 -21 -8 -38 12 -41 26 -4 21 54 12 60 -73 47z"/>
<path d="M107 6173 c-26 -4 -28 -7 -22 -36 12 -60 16 -69 32 -63 8 3 21 6 29
6 15 0 44 56 44 85 0 15 -21 17 -83 8z m48 -35 c-10 -31 -21 -42 -34 -34 -15
10 -14 43 2 49 28 12 38 7 32 -15z"/>
<path d="M257 5733 c5 -56 -8 -180 -22 -215 -4 -10 -3 -18 3 -18 21 0 42 86
44 185 3 86 1 100 -14 103 -14 3 -16 -5 -11 -55z"/>
<path d="M107 5723 c-26 -4 -28 -7 -22 -36 12 -60 16 -69 32 -63 8 3 21 6 29
6 15 0 44 56 44 85 0 15 -21 17 -83 8z m48 -35 c-10 -31 -21 -42 -34 -34 -15
10 -14 43 2 49 28 12 38 7 32 -15z"/>
<path d="M256 5306 c6 -34 5 -36 -20 -36 -17 0 -26 -5 -26 -15 0 -11 7 -14 25
-9 21 5 25 3 25 -17 0 -34 -17 -141 -25 -161 -4 -10 -3 -18 3 -18 21 0 42 86
44 185 3 89 1 100 -15 103 -16 3 -17 -1 -11 -32z"/>
<path d="M107 5273 c-26 -4 -28 -7 -22 -36 12 -60 16 -69 32 -63 8 3 21 6 29
6 15 0 44 56 44 85 0 15 -21 17 -83 8z m48 -35 c-10 -31 -21 -42 -34 -34 -15
10 -14 43 2 49 28 12 38 7 32 -15z"/>
<path d="M256 4856 c6 -34 5 -36 -20 -36 -17 0 -26 -5 -26 -15 0 -11 7 -14 25
-9 19 5 25 2 25 -9 0 -10 -13 -18 -35 -23 -46 -8 -46 -28 0 -21 33 5 34 5 30
-24 -3 -16 -7 -41 -9 -56 -3 -16 -8 -36 -11 -45 -4 -10 -3 -18 3 -18 21 0 42
86 44 185 3 89 1 100 -15 103 -16 3 -17 -1 -11 -32z"/>
<path d="M107 4823 c-26 -4 -28 -7 -22 -36 12 -60 16 -69 32 -63 8 3 21 6 29
6 15 0 44 56 44 85 0 15 -21 17 -83 8z m48 -35 c-10 -31 -21 -42 -34 -34 -15
10 -14 43 2 49 28 12 38 7 32 -15z"/>
<path d="M256 4406 c6 -34 5 -36 -20 -36 -17 0 -26 -5 -26 -15 0 -11 7 -14 25
-9 19 5 25 2 25 -9 0 -10 -13 -18 -35 -23 -19 -3 -35 -11 -35 -16 0 -6 14 -8
35 -5 19 3 35 3 35 -1 -1 -20 -22 -34 -59 -39 -24 -3 -40 -10 -38 -17 4 -13
43 -13 71 -1 17 7 18 5 13 -21 -3 -16 -9 -37 -12 -46 -4 -10 -3 -18 3 -18 21
0 42 86 44 185 3 89 1 100 -15 103 -16 3 -17 -1 -11 -32z"/>
<path d="M107 4373 c-26 -4 -28 -7 -22 -36 12 -60 16 -69 32 -63 8 3 21 6 29
6 15 0 44 56 44 85 0 15 -21 17 -83 8z m48 -35 c-10 -31 -21 -42 -34 -34 -15
10 -14 43 2 49 28 12 38 7 32 -15z"/>
<path d="M318 3848 c3 -165 5 -188 17 -176 12 11 22 333 11 340 -28 20 -31 4
-28 -164z"/>
<path d="M256 3956 c6 -34 5 -36 -20 -36 -17 0 -26 -5 -26 -15 0 -11 7 -14 25
-9 19 5 25 2 25 -9 0 -10 -13 -18 -35 -23 -19 -3 -35 -11 -35 -16 0 -6 14 -8
35 -5 19 3 35 3 35 -1 -1 -20 -22 -34 -59 -39 -24 -3 -40 -10 -38 -17 4 -13
43 -13 71 -1 17 7 18 5 13 -21 -3 -16 -9 -37 -12 -46 -4 -10 -3 -18 3 -18 21
0 42 86 44 185 3 89 1 100 -15 103 -16 3 -17 -1 -11 -32z"/>
<path d="M107 3923 c-26 -4 -28 -7 -22 -36 12 -60 16 -69 32 -63 8 3 21 6 29
6 15 0 44 56 44 85 0 15 -21 17 -83 8z m48 -35 c-10 -31 -21 -42 -34 -34 -15
10 -14 43 2 49 28 12 38 7 32 -15z"/>
<path d="M318 3398 c2 -95 5 -175 8 -177 10 -11 14 13 20 122 l7 117 29 0 c19
0 28 5 28 16 0 12 -7 14 -31 9 l-32 -7 6 40 c7 38 -2 52 -31 52 -4 0 -6 -78
-4 -172z"/>
<path d="M256 3506 c6 -34 5 -36 -20 -36 -17 0 -26 -5 -26 -15 0 -11 7 -14 25
-9 19 5 25 2 25 -9 0 -10 -13 -18 -35 -23 -19 -3 -35 -11 -35 -16 0 -6 14 -8
35 -5 19 3 35 3 35 -1 -1 -20 -22 -34 -59 -39 -24 -3 -40 -10 -38 -17 4 -13
43 -13 71 -1 17 7 18 5 13 -21 -3 -16 -9 -37 -12 -46 -4 -10 -3 -18 3 -18 21
0 42 86 44 185 3 89 1 100 -15 103 -16 3 -17 -1 -11 -32z"/>
<path d="M107 3473 c-26 -4 -28 -7 -22 -36 12 -60 16 -69 32 -63 8 3 21 6 29
6 15 0 44 56 44 85 0 15 -21 17 -83 8z m48 -35 c-10 -31 -21 -42 -34 -34 -15
10 -14 43 2 49 28 12 38 7 32 -15z"/>
<path d="M314 3104 c3 -9 6 -87 6 -175 0 -87 4 -159 9 -159 5 0 12 40 16 89 7
87 8 90 33 93 14 2 27 9 30 17 3 10 -3 11 -27 6 -27 -6 -31 -4 -31 14 0 17 6
21 30 21 21 0 30 5 30 16 0 12 -7 14 -31 9 l-32 -7 6 40 c6 31 3 41 -9 46 -26
10 -36 7 -30 -10z"/>
<path d="M256 3056 c6 -34 5 -36 -20 -36 -17 0 -26 -5 -26 -15 0 -11 7 -14 25
-9 19 5 25 2 25 -9 0 -10 -13 -18 -35 -23 -19 -3 -35 -11 -35 -16 0 -6 14 -8
35 -5 19 3 35 3 35 -1 -1 -20 -22 -34 -59 -39 -24 -3 -40 -10 -38 -17 4 -13
43 -13 71 -1 17 7 18 5 13 -21 -3 -16 -9 -37 -12 -46 -4 -10 -3 -18 3 -18 21
0 42 86 44 185 3 89 1 100 -15 103 -16 3 -17 -1 -11 -32z"/>
<path d="M107 3023 c-26 -4 -28 -7 -22 -36 12 -60 16 -69 32 -63 8 3 21 6 29
6 15 0 44 56 44 85 0 15 -21 17 -83 8z m48 -35 c-10 -31 -21 -42 -34 -34 -15
10 -14 43 2 49 28 12 38 7 32 -15z"/>
<path d="M314 2654 c3 -9 6 -87 6 -175 0 -99 4 -159 10 -159 6 0 10 17 10 38
0 66 8 80 51 87 52 9 51 29 -1 22 -34 -4 -40 -2 -40 13 0 13 9 20 27 22 14 2
28 9 31 17 3 10 -3 11 -27 6 -27 -6 -31 -4 -31 14 0 17 6 21 30 21 21 0 30 5
30 16 0 12 -7 14 -31 9 l-32 -7 6 40 c6 31 3 41 -9 46 -26 10 -36 7 -30 -10z"/>
<path d="M256 2606 c6 -34 5 -36 -20 -36 -17 0 -26 -5 -26 -15 0 -11 7 -14 25
-9 19 5 25 2 25 -9 0 -10 -13 -18 -35 -23 -19 -3 -35 -11 -35 -16 0 -6 14 -8
35 -5 19 3 35 3 35 -1 -1 -20 -22 -34 -59 -39 -24 -3 -40 -10 -38 -17 4 -13
43 -13 71 -1 17 7 18 5 13 -21 -3 -16 -9 -37 -12 -46 -4 -10 -3 -18 3 -18 21
0 42 86 44 185 3 89 1 100 -15 103 -16 3 -17 -1 -11 -32z"/>
<path d="M107 2573 c-26 -4 -28 -7 -22 -36 12 -60 16 -69 32 -63 8 3 21 6 29
6 15 0 44 56 44 85 0 15 -21 17 -83 8z m48 -35 c-10 -31 -21 -42 -34 -34 -15
10 -14 43 2 49 28 12 38 7 32 -15z"/>
</g>
</svg>
