<?xml version="1.0" standalone="no"?>
<!DOCTYPE svg PUBLIC "-//W3C//DTD SVG 20010904//EN"
 "http://www.w3.org/TR/2001/REC-SVG-20010904/DTD/svg10.dtd">
<svg version="1.0" xmlns="http://www.w3.org/2000/svg"
 width="50.000000pt" height="725.000000pt" viewBox="0 0 50.000000 725.000000"
 preserveAspectRatio="xMidYMid meet">
<metadata>
Created by potrace 1.16, written by Peter Selinger 2001-2019
</metadata>
<g transform="translate(0.000000,725.000000) scale(0.100000,-0.100000)"
fill="#000000" stroke="none">
<path d="M85 7064 c4 -11 10 -31 13 -46 7 -44 23 -32 20 14 -2 33 -8 44 -22
46 -15 3 -17 0 -11 -14z"/>
<path d="M112 6633 c-27 -4 -32 -8 -26 -21 4 -9 9 -29 12 -44 6 -39 22 -35 22
6 0 21 6 36 15 40 12 4 15 -3 15 -29 0 -44 15 -45 29 -4 21 61 19 62 -67 52z"/>
<path d="M112 6183 c-27 -4 -32 -8 -26 -21 4 -9 9 -29 12 -44 4 -24 9 -28 37
-28 28 0 33 4 43 39 20 65 21 64 -66 54z m38 -43 c0 -20 -5 -30 -15 -30 -29 0
-18 50 13 59 1 1 2 -12 2 -29z"/>
<path d="M224 5785 c3 -9 6 -19 6 -21 0 -2 7 -4 16 -4 22 0 13 34 -10 38 -14
3 -17 0 -12 -13z"/>
<path d="M112 5733 c-27 -4 -32 -8 -26 -21 4 -9 9 -29 12 -44 4 -24 9 -28 37
-28 28 0 33 4 43 39 20 65 21 64 -66 54z m38 -43 c0 -20 -5 -30 -15 -30 -29 0
-18 50 13 59 1 1 2 -12 2 -29z"/>
<path d="M225 5330 c4 -11 2 -20 -4 -20 -6 0 -11 -5 -11 -11 0 -8 11 -9 31 -5
l32 6 -6 -45 c-9 -61 15 -61 31 1 14 50 10 64 -18 64 -10 0 -20 7 -24 15 -9
24 -39 19 -31 -5z"/>
<path d="M112 5283 c-27 -4 -32 -8 -26 -21 4 -9 9 -29 12 -44 4 -24 9 -28 37
-28 28 0 33 4 43 39 20 65 21 64 -66 54z m38 -43 c0 -20 -5 -30 -15 -30 -29 0
-18 50 13 59 1 1 2 -12 2 -29z"/>
<path d="M225 4880 c4 -11 2 -20 -4 -20 -6 0 -11 -5 -11 -11 0 -7 11 -9 30 -5
36 7 41 -11 5 -20 -32 -8 -33 -24 -1 -24 19 0 23 -4 19 -20 -4 -13 0 -20 9
-20 15 0 42 85 33 101 -4 5 -14 9 -25 9 -10 0 -20 7 -24 15 -9 24 -39 19 -31
-5z"/>
<path d="M112 4833 c-27 -4 -32 -8 -26 -21 4 -9 9 -29 12 -44 4 -24 9 -28 37
-28 28 0 33 4 43 39 20 65 21 64 -66 54z m38 -43 c0 -20 -5 -30 -15 -30 -29 0
-18 50 13 59 1 1 2 -12 2 -29z"/>
<path d="M225 4430 c4 -11 2 -20 -4 -20 -6 0 -11 -5 -11 -11 0 -7 11 -9 30 -5
36 7 41 -11 5 -20 -33 -8 -32 -24 1 -24 14 0 23 -4 19 -10 -3 -5 -15 -10 -26
-10 -10 0 -19 -4 -19 -10 0 -5 15 -10 33 -10 31 0 34 3 45 46 14 50 10 64 -18
64 -10 0 -20 7 -24 15 -9 24 -39 19 -31 -5z"/>
<path d="M112 4383 c-27 -4 -32 -8 -26 -21 4 -9 9 -29 12 -44 4 -24 9 -28 37
-28 28 0 33 4 43 39 20 65 21 64 -66 54z m38 -43 c0 -20 -5 -30 -15 -30 -29 0
-18 50 13 59 1 1 2 -12 2 -29z"/>
<path d="M225 3980 c5 -15 2 -20 -12 -20 -16 0 -18 -10 -17 -103 1 -114 10
-128 54 -82 23 24 21 50 -2 27 -20 -20 -29 -13 -26 21 3 28 7 32 34 35 27 3
32 8 42 48 14 50 10 64 -18 64 -10 0 -20 7 -24 15 -9 24 -39 19 -31 -5z m45
-39 c0 -11 -31 -24 -39 -16 -3 3 1 10 9 15 19 12 30 12 30 1z m-5 -51 c-3 -5
-15 -10 -26 -10 -10 0 -19 5 -19 10 0 6 12 10 26 10 14 0 23 -4 19 -10z"/>
<path d="M112 3933 c-27 -4 -32 -8 -26 -21 4 -9 9 -29 12 -44 4 -24 9 -28 37
-28 28 0 33 4 43 39 20 65 21 64 -66 54z m38 -43 c0 -20 -5 -30 -15 -30 -29 0
-18 50 13 59 1 1 2 -12 2 -29z"/>
<path d="M225 3530 c5 -15 2 -20 -12 -20 -16 0 -18 -10 -17 -103 0 -82 4 -103
15 -105 9 -1 23 6 33 17 10 11 25 17 37 14 22 -6 26 16 7 35 -18 18 -35 15
-41 -8 -9 -33 -29 -23 -25 13 3 28 7 32 34 35 27 3 32 8 42 48 14 50 10 64
-18 64 -10 0 -20 7 -24 15 -9 24 -39 19 -31 -5z m45 -39 c0 -11 -31 -24 -39
-16 -3 3 1 10 9 15 19 12 30 12 30 1z m-5 -51 c-3 -5 -15 -10 -26 -10 -10 0
-19 5 -19 10 0 6 12 10 26 10 14 0 23 -4 19 -10z"/>
<path d="M112 3483 c-27 -4 -32 -8 -26 -21 4 -9 9 -29 12 -44 4 -24 9 -28 37
-28 28 0 33 4 43 39 20 65 21 64 -66 54z m38 -43 c0 -20 -5 -30 -15 -30 -29 0
-18 50 13 59 1 1 2 -12 2 -29z"/>
<path d="M225 3080 c5 -15 2 -20 -12 -20 -16 0 -18 -10 -17 -103 0 -82 4 -103
15 -105 9 -1 23 6 33 17 10 11 25 17 37 14 22 -6 26 16 7 35 -18 18 -35 15
-41 -8 -9 -33 -29 -23 -25 13 3 28 7 32 34 35 27 3 32 8 42 48 14 50 10 64
-18 64 -10 0 -20 7 -24 15 -9 24 -39 19 -31 -5z m45 -39 c0 -11 -31 -24 -39
-16 -3 3 1 10 9 15 19 12 30 12 30 1z m-5 -51 c-3 -5 -15 -10 -26 -10 -10 0
-19 5 -19 10 0 6 12 10 26 10 14 0 23 -4 19 -10z"/>
<path d="M353 3063 c-22 -8 -14 -25 8 -18 21 7 22 1 2 -52 -3 -7 -1 -13 3 -13
10 0 54 65 54 80 0 10 -45 13 -67 3z"/>
<path d="M112 3033 c-27 -4 -32 -8 -26 -21 4 -9 9 -29 12 -44 4 -24 9 -28 37
-28 28 0 33 4 43 39 20 65 21 64 -66 54z m38 -43 c0 -20 -5 -30 -15 -30 -29 0
-18 50 13 59 1 1 2 -12 2 -29z"/>
<path d="M225 2630 c5 -15 2 -20 -12 -20 -16 0 -18 -10 -17 -103 0 -82 4 -103
15 -105 9 -1 23 6 33 17 10 11 25 17 37 14 22 -6 26 16 7 35 -18 18 -35 15
-41 -8 -9 -33 -29 -23 -25 13 3 28 7 32 34 35 27 3 32 8 42 48 14 50 10 64
-18 64 -10 0 -20 7 -24 15 -9 24 -39 19 -31 -5z m45 -39 c0 -11 -31 -24 -39
-16 -3 3 1 10 9 15 19 12 30 12 30 1z m-5 -51 c-3 -5 -15 -10 -26 -10 -10 0
-19 5 -19 10 0 6 12 10 26 10 14 0 23 -4 19 -10z"/>
<path d="M353 2613 c-21 -8 -14 -25 7 -18 23 7 24 6 10 -30 -8 -20 -6 -32 5
-48 19 -27 19 -47 0 -47 -8 0 -15 -4 -15 -8 0 -14 23 -32 42 -32 25 0 24 59
-1 92 -19 23 -19 24 0 48 10 14 19 31 19 38 0 12 -42 16 -67 5z"/>
<path d="M112 2583 c-27 -4 -32 -8 -26 -21 4 -9 9 -29 12 -44 4 -24 9 -28 37
-28 28 0 33 4 43 39 20 65 21 64 -66 54z m38 -43 c0 -20 -5 -30 -15 -30 -29 0
-18 50 13 59 1 1 2 -12 2 -29z"/>
<path d="M225 2180 c5 -15 2 -20 -12 -20 -16 0 -18 -10 -17 -103 0 -82 4 -103
15 -105 9 -1 23 6 33 17 10 11 25 17 37 14 22 -6 26 16 7 35 -18 18 -35 15
-41 -8 -9 -33 -29 -23 -25 13 3 28 7 32 34 35 28 3 33 8 39 39 12 65 19 23 16
-94 -2 -92 0 -114 11 -111 9 3 14 36 18 121 3 72 10 121 17 128 19 19 25 6 13
-25 -8 -21 -7 -32 5 -49 19 -27 19 -47 0 -47 -8 0 -15 -4 -15 -8 0 -14 23 -32
42 -32 25 0 24 59 -1 92 -19 23 -19 24 0 48 32 43 25 48 -57 47 -62 -2 -77 1
-85 16 -14 25 -42 23 -34 -3z m45 -39 c0 -11 -31 -24 -39 -16 -3 3 1 10 9 15
19 12 30 12 30 1z m-5 -51 c-3 -5 -15 -10 -26 -10 -10 0 -19 5 -19 10 0 6 12
10 26 10 14 0 23 -4 19 -10z"/>
<path d="M112 2133 c-27 -4 -32 -8 -26 -21 4 -9 9 -29 12 -44 4 -24 9 -28 37
-28 28 0 33 4 43 39 20 65 21 64 -66 54z m38 -43 c0 -20 -5 -30 -15 -30 -29 0
-18 50 13 59 1 1 2 -12 2 -29z"/>
</g>
</svg>
