<?xml version="1.0" standalone="no"?>
<!DOCTYPE svg PUBLIC "-//W3C//DTD SVG 20010904//EN"
 "http://www.w3.org/TR/2001/REC-SVG-20010904/DTD/svg10.dtd">
<svg version="1.0" xmlns="http://www.w3.org/2000/svg"
 width="50.000000pt" height="725.000000pt" viewBox="0 0 50.000000 725.000000"
 preserveAspectRatio="xMidYMid meet">
<metadata>
Created by potrace 1.16, written by Peter Selinger 2001-2019
</metadata>
<g transform="translate(0.000000,725.000000) scale(0.100000,-0.100000)"
fill="#000000" stroke="none">
<path d="M85 7053 c4 -10 9 -33 12 -50 7 -43 23 -42 23 1 0 45 -9 66 -27 66
-10 0 -13 -6 -8 -17z"/>
<path d="M112 6623 c-27 -4 -32 -8 -27 -21 4 -9 9 -32 12 -49 8 -46 23 -41 23
7 0 33 3 40 20 40 16 0 19 -5 14 -30 -9 -42 12 -38 31 6 22 54 17 58 -73 47z"/>
<path d="M112 6173 c-27 -3 -32 -8 -27 -21 4 -9 9 -32 12 -50 4 -23 10 -31 20
-28 8 4 25 6 38 6 23 0 26 7 37 75 3 22 -16 26 -80 18z m44 -39 c-3 -9 -6 -20
-6 -25 0 -5 -7 -9 -15 -9 -9 0 -15 9 -15 25 0 19 5 25 21 25 15 0 19 -4 15
-16z"/>
<path d="M213 5766 c3 -7 9 -34 12 -60 8 -51 25 -63 25 -17 0 51 -12 91 -27
91 -9 0 -13 -6 -10 -14z"/>
<path d="M112 5723 c-27 -3 -32 -8 -27 -21 4 -9 9 -32 12 -50 4 -23 10 -31 20
-28 8 4 25 6 38 6 23 0 26 7 37 75 3 22 -16 26 -80 18z m44 -39 c-3 -9 -6 -20
-6 -25 0 -5 -7 -9 -15 -9 -9 0 -15 9 -15 25 0 19 5 25 21 25 15 0 19 -4 15
-16z"/>
<path d="M318 5343 c-38 -6 -35 -23 3 -23 34 0 34 -3 13 -77 -5 -17 -2 -23 9
-23 11 0 22 19 34 56 15 48 15 57 3 65 -8 5 -19 8 -25 7 -5 0 -22 -3 -37 -5z"/>
<path d="M213 5316 c3 -7 9 -34 12 -60 10 -63 29 -60 23 4 -4 44 -3 50 13 50
11 0 19 5 19 10 0 6 -16 10 -36 10 -27 0 -35 -4 -31 -14z"/>
<path d="M112 5273 c-27 -3 -32 -8 -27 -21 4 -9 9 -32 12 -50 4 -23 10 -31 20
-28 8 4 25 6 38 6 23 0 26 7 37 75 3 22 -16 26 -80 18z m44 -39 c-3 -9 -6 -20
-6 -25 0 -5 -7 -9 -15 -9 -9 0 -15 9 -15 25 0 19 5 25 21 25 15 0 19 -4 15
-16z"/>
<path d="M318 4893 c-38 -6 -35 -23 3 -23 47 0 30 -24 -22 -31 -24 -4 -47 -5
-51 -2 -15 8 -8 23 12 23 11 0 20 5 20 10 0 6 -16 10 -36 10 -27 0 -35 -4 -31
-14 3 -7 9 -34 12 -60 8 -48 25 -64 25 -22 0 24 21 36 68 36 19 0 21 -4 16
-25 -5 -19 -2 -25 9 -25 11 0 22 19 34 56 15 48 15 57 3 65 -8 5 -19 8 -25 7
-5 0 -22 -3 -37 -5z"/>
<path d="M112 4823 c-27 -3 -32 -8 -27 -21 4 -9 9 -32 12 -50 4 -23 10 -31 20
-28 8 4 25 6 38 6 23 0 26 7 37 75 3 22 -16 26 -80 18z m44 -39 c-3 -9 -6 -20
-6 -25 0 -5 -7 -9 -15 -9 -9 0 -15 9 -15 25 0 19 5 25 21 25 15 0 19 -4 15
-16z"/>
<path d="M318 4443 c-38 -6 -35 -23 3 -23 47 0 30 -24 -22 -31 -24 -4 -47 -5
-51 -2 -15 8 -8 23 12 23 11 0 20 5 20 10 0 6 -16 10 -36 10 -27 0 -35 -4 -31
-14 3 -7 9 -34 12 -60 7 -42 9 -46 29 -39 11 4 40 7 63 7 l43 -1 17 54 c15 47
15 56 3 64 -8 5 -19 8 -25 7 -5 0 -22 -3 -37 -5z m22 -83 c0 -5 -10 -10 -22
-10 -13 0 -33 -3 -45 -6 -13 -4 -23 -2 -23 4 0 12 22 19 63 21 15 0 27 -3 27
-9z"/>
<path d="M112 4373 c-27 -3 -32 -8 -27 -21 4 -9 9 -32 12 -50 4 -23 10 -31 20
-28 8 4 25 6 38 6 23 0 26 7 37 75 3 22 -16 26 -80 18z m44 -39 c-3 -9 -6 -20
-6 -25 0 -5 -7 -9 -15 -9 -9 0 -15 9 -15 25 0 19 5 25 21 25 15 0 19 -4 15
-16z"/>
<path d="M318 3993 c-38 -6 -35 -23 3 -23 47 0 30 -24 -22 -31 -24 -4 -47 -5
-51 -2 -15 8 -8 23 12 23 11 0 20 5 20 10 0 6 -16 10 -36 10 -27 0 -35 -4 -31
-14 3 -7 9 -34 12 -60 7 -42 9 -46 29 -39 11 4 40 7 63 7 l43 -1 17 54 c15 47
15 56 3 64 -8 5 -19 8 -25 7 -5 0 -22 -3 -37 -5z m22 -83 c0 -5 -10 -10 -22
-10 -13 0 -33 -3 -45 -6 -13 -4 -23 -2 -23 4 0 12 22 19 63 21 15 0 27 -3 27
-9z"/>
<path d="M112 3923 c-27 -3 -32 -8 -27 -21 4 -9 9 -32 12 -50 4 -23 10 -31 20
-28 8 4 25 6 38 6 23 0 26 7 37 75 3 22 -16 26 -80 18z m44 -39 c-3 -9 -6 -20
-6 -25 0 -5 -7 -9 -15 -9 -9 0 -15 9 -15 25 0 19 5 25 21 25 15 0 19 -4 15
-16z"/>
<path d="M194 3838 c3 -13 6 -47 6 -75 0 -40 4 -53 15 -53 12 0 15 14 15 63 0
59 -11 87 -33 87 -5 0 -7 -10 -3 -22z"/>
<path d="M318 3543 c-38 -6 -35 -23 3 -23 47 0 30 -24 -22 -31 -24 -4 -47 -5
-51 -2 -15 8 -8 23 12 23 11 0 20 5 20 10 0 6 -16 10 -36 10 -27 0 -35 -4 -31
-14 3 -7 9 -34 12 -60 7 -42 9 -46 29 -39 11 4 40 7 63 7 l43 -1 17 54 c15 47
15 56 3 64 -8 5 -19 8 -25 7 -5 0 -22 -3 -37 -5z m22 -83 c0 -5 -10 -10 -22
-10 -13 0 -33 -3 -45 -6 -13 -4 -23 -2 -23 4 0 12 22 19 63 21 15 0 27 -3 27
-9z"/>
<path d="M112 3473 c-27 -3 -32 -8 -27 -21 4 -9 9 -31 12 -49 5 -29 7 -31 39
-26 48 8 64 -9 64 -68 0 -37 4 -49 15 -49 12 0 15 13 15 55 0 48 2 55 20 55
11 0 20 5 20 10 0 6 -10 10 -23 10 -13 0 -29 6 -35 12 -10 10 -15 10 -23 -2
-8 -11 -9 -7 -4 15 11 58 11 60 -15 61 -14 1 -40 -1 -58 -3z m44 -39 c-3 -9
-6 -20 -6 -25 0 -5 -7 -9 -15 -9 -9 0 -15 9 -15 25 0 19 5 25 21 25 15 0 19
-4 15 -16z"/>
<path d="M318 3403 c-58 -6 -45 -23 17 -23 54 0 55 0 55 -29 0 -39 -9 -61 -26
-61 -18 0 -18 -11 0 -36 14 -17 16 -18 31 -3 9 9 20 44 25 80 12 82 10 83
-102 72z"/>
<path d="M315 3090 c-16 -4 -47 -8 -69 -9 -28 -1 -37 -5 -33 -15 3 -7 9 -34
12 -60 7 -43 9 -45 32 -39 19 4 24 2 21 -8 -6 -19 -45 -24 -64 -8 -13 10 -17
10 -26 -2 -7 -10 -8 -6 -3 16 12 63 14 60 -45 57 -30 -2 -55 -4 -56 -5 -1 -1
3 -23 9 -49 11 -45 12 -46 44 -41 47 8 63 -10 63 -68 0 -37 4 -49 15 -49 11 0
15 13 15 54 0 49 2 54 25 58 21 4 25 1 25 -18 0 -13 5 -24 10 -24 6 0 10 11
10 25 0 23 4 25 45 25 43 0 45 -1 45 -29 0 -39 -9 -61 -26 -61 -18 0 -18 -11
0 -36 14 -17 16 -18 31 -3 21 21 39 140 22 152 -7 4 -36 5 -66 1 -42 -4 -52
-3 -49 8 3 7 16 12 31 10 23 -2 28 3 43 53 16 49 16 58 4 66 -17 10 -23 10
-65 -1z m33 -32 c-7 -19 -38 -22 -38 -4 0 10 9 16 21 16 12 0 19 -5 17 -12z
m-70 -10 c-3 -7 -11 -13 -18 -13 -7 0 -15 6 -17 13 -3 7 4 12 17 12 13 0 20
-5 18 -12z m62 -38 c0 -5 -7 -10 -15 -10 -8 0 -15 5 -15 10 0 6 7 10 15 10 8
0 15 -4 15 -10z m-60 -10 c0 -5 -7 -10 -15 -10 -8 0 -15 5 -15 10 0 6 7 10 15
10 8 0 15 -4 15 -10z m-124 -16 c-3 -9 -6 -20 -6 -25 0 -5 -7 -9 -15 -9 -9 0
-15 9 -15 25 0 19 5 25 21 25 15 0 19 -4 15 -16z"/>
<path d="M315 2640 c-16 -4 -47 -8 -69 -9 -28 -1 -37 -5 -33 -15 3 -7 9 -34
12 -60 7 -43 9 -45 32 -39 19 4 24 2 21 -8 -6 -19 -45 -24 -64 -8 -13 10 -17
10 -26 -2 -7 -10 -8 -6 -3 16 12 63 14 60 -45 57 -30 -2 -55 -4 -56 -5 -1 -1
3 -23 9 -49 11 -45 12 -46 44 -41 47 8 63 -10 63 -68 0 -37 4 -49 15 -49 11 0
15 13 15 54 0 49 2 54 25 58 19 4 25 1 25 -13 0 -10 -9 -21 -20 -24 -24 -8
-27 -25 -3 -25 26 0 83 23 83 33 0 5 -9 7 -20 4 -15 -4 -20 0 -20 14 0 16 7
19 45 19 43 0 45 -1 45 -29 0 -39 -9 -61 -26 -61 -18 0 -18 -11 0 -36 14 -17
16 -18 31 -3 21 21 39 140 22 152 -7 4 -36 5 -66 1 -42 -4 -52 -3 -49 8 3 7
16 12 31 10 23 -2 28 3 43 53 16 49 16 58 4 66 -17 10 -23 10 -65 -1z m33 -32
c-7 -19 -38 -22 -38 -4 0 10 9 16 21 16 12 0 19 -5 17 -12z m-70 -10 c-3 -7
-11 -13 -18 -13 -7 0 -15 6 -17 13 -3 7 4 12 17 12 13 0 20 -5 18 -12z m62
-38 c0 -5 -7 -10 -15 -10 -8 0 -15 5 -15 10 0 6 7 10 15 10 8 0 15 -4 15 -10z
m-60 -10 c0 -5 -7 -10 -15 -10 -8 0 -15 5 -15 10 0 6 7 10 15 10 8 0 15 -4 15
-10z m-124 -16 c-3 -9 -6 -20 -6 -25 0 -5 -7 -9 -15 -9 -9 0 -15 9 -15 25 0
19 5 25 21 25 15 0 19 -4 15 -16z"/>
<path d="M315 2190 c-16 -4 -47 -8 -69 -9 -28 -1 -37 -5 -33 -15 3 -7 9 -34
12 -60 7 -43 9 -45 32 -39 19 4 24 2 21 -8 -6 -19 -45 -24 -64 -8 -13 10 -17
10 -26 -2 -7 -10 -8 -6 -3 16 12 63 14 60 -45 57 -30 -2 -55 -4 -56 -5 -1 -1
3 -23 9 -49 11 -45 12 -46 44 -41 47 8 63 -10 63 -68 0 -37 4 -49 15 -49 11 0
15 13 15 54 0 49 2 54 25 58 19 4 25 1 25 -13 0 -10 -9 -21 -20 -24 -11 -3
-20 -11 -20 -16 0 -13 34 -11 66 3 22 10 28 10 32 0 2 -6 8 -12 13 -12 15 0
10 36 -6 50 -13 11 -18 10 -30 -6 -14 -18 -14 -18 -15 4 0 20 5 22 45 22 43 0
45 -1 45 -29 0 -39 -9 -61 -26 -61 -18 0 -18 -11 0 -36 14 -17 16 -18 31 -3
21 21 39 140 22 152 -7 4 -36 5 -66 1 -42 -4 -52 -3 -49 8 3 7 16 12 31 10 23
-2 28 3 43 53 16 49 16 58 4 66 -17 10 -23 10 -65 -1z m33 -32 c-7 -19 -38
-22 -38 -4 0 10 9 16 21 16 12 0 19 -5 17 -12z m-70 -10 c-3 -7 -11 -13 -18
-13 -7 0 -15 6 -17 13 -3 7 4 12 17 12 13 0 20 -5 18 -12z m62 -38 c0 -5 -7
-10 -15 -10 -8 0 -15 5 -15 10 0 6 7 10 15 10 8 0 15 -4 15 -10z m-60 -10 c0
-5 -7 -10 -15 -10 -8 0 -15 5 -15 10 0 6 7 10 15 10 8 0 15 -4 15 -10z m-124
-16 c-3 -9 -6 -20 -6 -25 0 -5 -7 -9 -15 -9 -9 0 -15 9 -15 25 0 19 5 25 21
25 15 0 19 -4 15 -16z"/>
</g>
</svg>
