<?xml version="1.0" standalone="no"?>
<!DOCTYPE svg PUBLIC "-//W3C//DTD SVG 20010904//EN"
 "http://www.w3.org/TR/2001/REC-SVG-20010904/DTD/svg10.dtd">
<svg version="1.0" xmlns="http://www.w3.org/2000/svg"
 width="50.000000pt" height="725.000000pt" viewBox="0 0 50.000000 725.000000"
 preserveAspectRatio="xMidYMid meet">
<metadata>
Created by potrace 1.16, written by Peter Selinger 2001-2019
</metadata>
<g transform="translate(0.000000,725.000000) scale(0.100000,-0.100000)"
fill="#000000" stroke="none">
<path d="M90 7036 c0 -29 13 -76 21 -76 10 0 12 50 3 74 -8 20 -24 21 -24 2z"/>
<path d="M123 6608 c-35 -11 -37 -17 -27 -67 9 -44 24 -39 24 9 0 32 4 40 19
40 14 0 17 -6 13 -25 -3 -18 0 -25 11 -25 8 0 17 13 21 31 10 50 0 56 -61 37z"/>
<path d="M121 6157 c-32 -10 -33 -12 -27 -51 4 -22 8 -42 10 -44 2 -2 19 3 38
11 27 11 37 22 41 47 11 52 1 57 -62 37z m30 -39 c-12 -32 -31 -34 -31 -4 0
19 5 26 20 26 16 0 18 -4 11 -22z"/>
<path d="M260 5803 c1 -14 27 -43 39 -43 17 0 13 37 -5 44 -21 8 -34 8 -34 -1z"/>
<path d="M121 5707 c-32 -10 -33 -12 -27 -51 4 -22 8 -42 10 -44 2 -2 19 3 38
11 27 11 37 22 41 47 11 52 1 57 -62 37z m30 -39 c-12 -32 -31 -34 -31 -4 0
19 5 26 20 26 16 0 18 -4 11 -22z"/>
<path d="M260 5351 c0 -6 5 -13 11 -17 15 -9 -9 -24 -38 -24 -13 0 -23 -5 -23
-11 0 -11 108 -6 153 7 33 10 18 27 -18 21 -25 -4 -35 -2 -35 8 0 7 -7 16 -16
19 -22 9 -34 7 -34 -3z"/>
<path d="M121 5257 c-32 -10 -33 -12 -27 -51 4 -22 8 -42 10 -44 2 -2 19 3 38
11 27 11 37 22 41 47 11 52 1 57 -62 37z m30 -39 c-12 -32 -31 -34 -31 -4 0
19 5 26 20 26 16 0 18 -4 11 -22z"/>
<path d="M260 4901 c0 -6 5 -13 11 -17 15 -9 -9 -24 -38 -24 -13 0 -23 -5 -23
-11 0 -11 108 -6 153 7 33 10 18 27 -18 21 -25 -4 -35 -2 -35 8 0 7 -7 16 -16
19 -22 9 -34 7 -34 -3z"/>
<path d="M234 4814 c3 -9 6 -18 6 -20 0 -2 5 -4 10 -4 6 0 10 9 10 20 0 12 -7
20 -16 20 -11 0 -14 -5 -10 -16z"/>
<path d="M121 4807 c-32 -10 -33 -12 -27 -51 4 -22 8 -42 10 -44 2 -2 19 3 38
11 27 11 37 22 41 47 11 52 1 57 -62 37z m30 -39 c-12 -32 -31 -34 -31 -4 0
19 5 26 20 26 16 0 18 -4 11 -22z"/>
<path d="M260 4451 c0 -6 5 -13 11 -17 15 -9 -9 -24 -38 -24 -13 0 -23 -5 -23
-11 0 -11 108 -6 153 7 33 10 18 27 -18 21 -25 -4 -35 -2 -35 8 0 7 -7 16 -16
19 -22 9 -34 7 -34 -3z"/>
<path d="M268 4383 c-40 -4 -44 -9 -28 -33 7 -10 12 -12 18 -4 4 6 20 14 35
18 26 6 28 5 22 -14 -4 -14 -2 -20 9 -20 18 0 40 36 31 50 -6 10 -16 10 -87 3z"/>
<path d="M121 4357 c-32 -10 -33 -12 -27 -51 4 -22 8 -42 10 -44 2 -2 19 3 38
11 27 11 37 22 41 47 11 52 1 57 -62 37z m30 -39 c-12 -32 -31 -34 -31 -4 0
19 5 26 20 26 16 0 18 -4 11 -22z"/>
<path d="M260 4001 c0 -6 5 -13 11 -17 15 -9 -9 -24 -38 -24 -13 0 -23 -5 -23
-11 0 -11 108 -6 153 7 33 10 18 27 -18 21 -25 -4 -35 -2 -35 8 0 7 -7 16 -16
19 -22 9 -34 7 -34 -3z"/>
<path d="M268 3933 c-43 -5 -42 -3 -26 -38 9 -21 18 -25 53 -25 35 0 44 4 54
26 6 14 9 30 6 35 -6 9 -16 9 -87 2z m50 -25 c-5 -16 -58 -24 -58 -9 0 8 13
13 53 20 5 0 7 -5 5 -11z"/>
<path d="M121 3907 c-32 -10 -33 -12 -27 -51 4 -22 8 -42 10 -44 2 -2 19 3 38
11 27 11 37 22 41 47 11 52 1 57 -62 37z m30 -39 c-12 -32 -31 -34 -31 -4 0
19 5 26 20 26 16 0 18 -4 11 -22z"/>
<path d="M260 3551 c0 -6 5 -13 11 -17 15 -9 -9 -24 -38 -24 -13 0 -23 -5 -23
-11 0 -11 108 -6 153 7 33 10 18 27 -18 21 -25 -4 -35 -2 -35 8 0 7 -7 16 -16
19 -22 9 -34 7 -34 -3z"/>
<path d="M268 3483 c-43 -5 -42 -3 -26 -38 9 -21 18 -25 53 -25 35 0 44 4 54
26 6 14 9 30 6 35 -6 9 -16 9 -87 2z m50 -25 c-5 -16 -58 -24 -58 -9 0 8 13
13 53 20 5 0 7 -5 5 -11z"/>
<path d="M121 3457 c-32 -10 -33 -12 -27 -51 4 -22 8 -42 10 -44 2 -2 19 3 38
11 27 11 37 22 41 47 11 52 1 57 -62 37z m30 -39 c-12 -32 -31 -34 -31 -4 0
19 5 26 20 26 16 0 18 -4 11 -22z"/>
<path d="M185 3379 c-7 -33 -3 -45 14 -34 13 8 15 65 2 65 -5 0 -12 -14 -16
-31z"/>
<path d="M260 3101 c0 -6 5 -13 11 -17 15 -9 -9 -24 -38 -24 -13 0 -23 -5 -23
-11 0 -11 108 -6 153 7 33 10 18 27 -18 21 -25 -4 -35 -2 -35 8 0 7 -7 16 -16
19 -22 9 -34 7 -34 -3z"/>
<path d="M268 3033 c-43 -5 -42 -3 -26 -38 9 -21 18 -25 53 -25 35 0 44 4 54
26 6 14 9 30 6 35 -6 9 -16 9 -87 2z m50 -25 c-5 -16 -58 -24 -58 -9 0 8 13
13 53 20 5 0 7 -5 5 -11z"/>
<path d="M121 3007 c-32 -10 -33 -12 -27 -51 4 -22 8 -42 10 -44 2 -2 19 3 38
11 27 11 37 22 41 47 11 52 1 57 -62 37z m30 -39 c-12 -32 -31 -34 -31 -4 0
19 5 26 20 26 16 0 18 -4 11 -22z"/>
<path d="M328 2963 c-61 -5 -63 -23 -3 -23 37 0 43 -3 38 -16 -5 -14 -2 -16
23 -10 37 10 40 13 28 34 -12 19 -19 20 -86 15z"/>
<path d="M185 2930 c-4 -17 -5 -34 -2 -37 9 -8 27 7 27 23 0 9 11 14 30 14 17
0 30 5 30 10 0 6 -11 10 -24 10 -13 0 -31 3 -39 6 -11 4 -17 -4 -22 -26z"/>
<path d="M260 2651 c0 -6 5 -13 11 -17 15 -9 -9 -24 -38 -24 -13 0 -23 -5 -23
-11 0 -11 108 -6 153 7 33 10 18 27 -18 21 -25 -4 -35 -2 -35 8 0 7 -7 16 -16
19 -22 9 -34 7 -34 -3z"/>
<path d="M268 2583 c-43 -5 -42 -3 -26 -38 9 -21 18 -25 53 -25 35 0 44 4 54
26 6 14 9 30 6 35 -6 9 -16 9 -87 2z m50 -25 c-5 -16 -58 -24 -58 -9 0 8 13
13 53 20 5 0 7 -5 5 -11z"/>
<path d="M121 2557 c-32 -10 -33 -12 -27 -51 4 -22 8 -42 10 -44 2 -2 19 3 38
11 27 11 37 22 41 47 11 52 1 57 -62 37z m30 -39 c-12 -32 -31 -34 -31 -4 0
19 5 26 20 26 16 0 18 -4 11 -22z"/>
<path d="M328 2513 c-61 -5 -63 -23 -3 -23 37 0 43 -3 38 -16 -5 -14 -2 -16
23 -10 37 10 40 13 28 34 -12 19 -19 20 -86 15z"/>
<path d="M185 2480 c-4 -17 -5 -34 -2 -37 9 -8 27 7 27 23 0 9 11 14 30 14 17
0 30 5 30 10 0 6 -11 10 -24 10 -13 0 -31 3 -39 6 -11 4 -17 -4 -22 -26z"/>
<path d="M240 2441 c0 -17 -11 -43 -26 -61 -27 -31 -27 -47 0 -37 22 9 46 50
53 91 4 29 2 36 -11 36 -11 0 -16 -9 -16 -29z"/>
<path d="M260 2201 c0 -6 5 -13 11 -17 15 -9 -9 -24 -38 -24 -13 0 -23 -5 -23
-11 0 -11 108 -6 153 7 33 10 18 27 -18 21 -25 -4 -35 -2 -35 8 0 7 -7 16 -16
19 -22 9 -34 7 -34 -3z"/>
<path d="M268 2133 c-43 -5 -42 -3 -26 -38 9 -21 18 -25 53 -25 35 0 44 4 54
26 6 14 9 30 6 35 -6 9 -16 9 -87 2z m50 -25 c-5 -16 -58 -24 -58 -9 0 8 13
13 53 20 5 0 7 -5 5 -11z"/>
<path d="M121 2107 c-32 -10 -33 -12 -27 -51 4 -22 8 -42 10 -44 2 -2 19 3 38
11 27 11 37 22 41 47 11 52 1 57 -62 37z m30 -39 c-12 -32 -31 -34 -31 -4 0
19 5 26 20 26 16 0 18 -4 11 -22z"/>
<path d="M328 2063 c-61 -5 -63 -23 -3 -23 37 0 43 -3 38 -16 -5 -14 -2 -16
23 -10 37 10 40 13 28 34 -12 19 -19 20 -86 15z"/>
<path d="M185 2030 c-4 -17 -5 -34 -2 -37 9 -8 27 7 27 23 0 9 11 14 30 14 17
0 30 5 30 10 0 6 -11 10 -24 10 -13 0 -31 3 -39 6 -11 4 -17 -4 -22 -26z"/>
<path d="M298 1968 c5 -75 14 -88 59 -88 50 0 75 16 67 43 -10 32 -13 33 -30
9 -16 -24 -63 -30 -66 -9 -1 6 -2 32 -2 57 -1 32 -5 45 -17 48 -13 2 -15 -7
-11 -60z"/>
<path d="M240 1991 c0 -17 -11 -43 -26 -61 -27 -31 -27 -47 0 -37 22 9 46 50
53 91 4 29 2 36 -11 36 -11 0 -16 -9 -16 -29z"/>
</g>
</svg>
