<?xml version="1.0" standalone="no"?>
<!DOCTYPE svg PUBLIC "-//W3C//DTD SVG 20010904//EN"
 "http://www.w3.org/TR/2001/REC-SVG-20010904/DTD/svg10.dtd">
<svg version="1.0" xmlns="http://www.w3.org/2000/svg"
 width="50.000000pt" height="725.000000pt" viewBox="0 0 50.000000 725.000000"
 preserveAspectRatio="xMidYMid meet">
<metadata>
Created by potrace 1.16, written by Peter Selinger 2001-2019
</metadata>
<g transform="translate(0.000000,725.000000) scale(0.100000,-0.100000)"
fill="#000000" stroke="none">
<path d="M85 7043 c3 -10 9 -30 12 -45 7 -37 23 -36 23 1 0 40 -9 61 -27 61
-10 0 -13 -6 -8 -17z"/>
<path d="M107 6613 c-22 -3 -27 -8 -22 -21 3 -9 9 -29 12 -44 8 -40 21 -35 25
9 4 46 28 58 28 14 0 -17 4 -31 8 -31 7 0 32 57 32 73 0 7 -35 7 -83 0z"/>
<path d="M107 6163 c-22 -3 -27 -8 -22 -21 3 -9 9 -30 12 -45 4 -19 10 -26 20
-23 8 4 23 6 33 6 10 0 20 9 23 23 3 12 9 32 12 45 7 19 4 22 -21 21 -16 -1
-42 -4 -57 -6z m41 -35 c-4 -27 -28 -36 -28 -10 0 20 8 32 22 32 5 0 8 -10 6
-22z"/>
<path d="M190 5744 c0 -12 6 -15 23 -10 12 3 32 6 45 6 12 0 22 5 22 10 0 6
-20 10 -45 10 -35 0 -45 -4 -45 -16z"/>
<path d="M107 5713 c-22 -3 -27 -8 -22 -21 3 -9 9 -30 12 -45 4 -19 10 -26 20
-23 8 4 23 6 33 6 10 0 20 9 23 23 3 12 9 32 12 45 7 19 4 22 -21 21 -16 -1
-42 -4 -57 -6z m41 -35 c-4 -27 -28 -36 -28 -10 0 20 8 32 22 32 5 0 8 -10 6
-22z"/>
<path d="M190 5294 c0 -12 6 -15 23 -10 12 3 32 6 45 6 12 0 22 5 22 10 0 6
-20 10 -45 10 -35 0 -45 -4 -45 -16z"/>
<path d="M107 5263 c-22 -3 -27 -8 -22 -21 3 -9 9 -30 12 -45 4 -19 10 -26 20
-23 8 4 23 6 33 6 10 0 20 9 23 23 3 12 9 32 12 45 7 19 4 22 -21 21 -16 -1
-42 -4 -57 -6z m41 -35 c-4 -27 -28 -36 -28 -10 0 20 8 32 22 32 5 0 8 -10 6
-22z"/>
<path d="M210 5260 c0 -5 16 -10 35 -10 19 0 35 5 35 10 0 6 -16 10 -35 10
-19 0 -35 -4 -35 -10z"/>
<path d="M190 4844 c0 -12 6 -15 23 -10 12 3 32 6 45 6 12 0 22 5 22 10 0 6
-20 10 -45 10 -35 0 -45 -4 -45 -16z"/>
<path d="M107 4813 c-22 -3 -27 -8 -22 -21 3 -9 9 -30 12 -45 4 -19 10 -26 20
-23 8 4 23 6 33 6 10 0 20 9 23 23 3 12 9 32 12 45 7 19 4 22 -21 21 -16 -1
-42 -4 -57 -6z m41 -35 c-4 -27 -28 -36 -28 -10 0 20 8 32 22 32 5 0 8 -10 6
-22z"/>
<path d="M210 4810 c0 -5 16 -10 35 -10 19 0 35 5 35 10 0 6 -16 10 -35 10
-19 0 -35 -4 -35 -10z"/>
<path d="M223 4777 c-43 -11 -52 -20 -33 -32 13 -8 100 24 100 36 0 10 -10 10
-67 -4z"/>
<path d="M230 4436 c0 -19 -5 -26 -20 -26 -12 0 -20 -7 -20 -16 0 -11 6 -15
20 -11 22 6 28 -8 8 -16 -10 -4 -10 -8 1 -15 18 -13 5 -32 -20 -32 -12 0 -19
-5 -16 -12 2 -7 14 -13 26 -12 11 0 21 -3 21 -8 0 -4 5 -8 10 -8 6 0 10 6 10
14 0 8 9 18 20 21 11 3 20 11 20 17 0 6 -9 8 -20 5 -11 -3 -20 -1 -20 4 0 5 7
9 15 9 20 0 19 10 -2 26 -17 13 -17 13 0 14 17 0 25 20 8 20 -5 0 -11 10 -13
22 -5 32 -28 35 -28 4z"/>
<path d="M107 4363 c-22 -3 -27 -8 -22 -21 3 -9 9 -30 12 -45 4 -19 10 -26 20
-23 8 4 23 6 33 6 10 0 20 9 23 23 3 12 9 32 12 45 7 19 4 22 -21 21 -16 -1
-42 -4 -57 -6z m41 -35 c-4 -27 -28 -36 -28 -10 0 20 8 32 22 32 5 0 8 -10 6
-22z"/>
<path d="M230 3986 c0 -19 -5 -26 -20 -26 -12 0 -20 -7 -20 -16 0 -11 6 -15
20 -11 22 6 28 -8 8 -16 -10 -4 -10 -8 1 -15 18 -13 5 -32 -20 -32 -12 0 -19
-5 -16 -12 2 -7 14 -13 26 -12 11 0 21 -3 21 -8 0 -4 5 -8 10 -8 6 0 10 6 10
14 0 8 9 18 20 21 11 3 20 11 20 17 0 6 -9 8 -20 5 -11 -3 -20 -1 -20 4 0 5 7
9 15 9 20 0 19 10 -2 26 -17 13 -17 13 0 14 17 0 25 20 8 20 -5 0 -11 10 -13
22 -5 32 -28 35 -28 4z"/>
<path d="M333 3958 c-47 -15 -41 -31 7 -23 36 6 40 5 40 -13 0 -31 -11 -52
-26 -52 -18 0 -18 -14 1 -30 12 -10 19 -10 27 -2 15 15 40 111 32 123 -7 11
-39 10 -81 -3z"/>
<path d="M107 3913 c-22 -3 -27 -8 -22 -21 3 -9 9 -30 12 -45 4 -19 10 -26 20
-23 8 4 23 6 33 6 10 0 20 9 23 23 3 12 9 32 12 45 7 19 4 22 -21 21 -16 -1
-42 -4 -57 -6z m41 -35 c-4 -27 -28 -36 -28 -10 0 20 8 32 22 32 5 0 8 -10 6
-22z"/>
<path d="M230 3536 c0 -19 -5 -26 -20 -26 -12 0 -20 -7 -20 -16 0 -11 6 -15
20 -11 22 6 28 -8 8 -16 -10 -4 -10 -8 1 -15 18 -13 5 -32 -20 -32 -12 0 -19
-5 -16 -12 2 -7 14 -13 26 -12 11 0 21 -3 21 -8 0 -4 5 -8 10 -8 6 0 10 6 10
14 0 8 9 18 20 21 11 3 20 11 20 17 0 6 -9 8 -20 5 -11 -3 -20 -1 -20 4 0 5 7
9 15 9 20 0 19 10 -2 26 -17 13 -17 13 0 14 17 0 25 20 8 20 -5 0 -11 10 -13
22 -5 32 -28 35 -28 4z"/>
<path d="M333 3508 c-35 -11 -44 -28 -17 -28 14 0 13 -5 -5 -36 -12 -20 -19
-39 -16 -42 8 -9 42 27 55 59 14 33 30 38 30 10 0 -30 -11 -51 -26 -51 -18 0
-18 -14 1 -30 12 -10 19 -10 27 -2 15 15 40 111 32 123 -7 11 -39 10 -81 -3z"/>
<path d="M107 3463 c-22 -3 -27 -8 -22 -21 3 -9 9 -30 12 -45 4 -19 10 -26 20
-23 8 4 23 6 33 6 10 0 20 9 23 23 3 12 9 32 12 45 7 19 4 22 -21 21 -16 -1
-42 -4 -57 -6z m41 -35 c-4 -27 -28 -36 -28 -10 0 20 8 32 22 32 5 0 8 -10 6
-22z"/>
<path d="M230 3086 c0 -19 -5 -26 -20 -26 -12 0 -20 -7 -20 -16 0 -11 6 -15
20 -11 22 6 28 -8 8 -16 -10 -4 -10 -8 1 -15 18 -13 5 -32 -20 -32 -12 0 -19
-5 -16 -12 2 -7 14 -13 26 -12 11 0 21 -3 21 -8 0 -4 5 -8 10 -8 6 0 10 6 10
14 0 8 9 18 20 21 11 3 20 11 20 17 0 6 -9 8 -20 5 -11 -3 -20 -1 -20 4 0 5 7
9 15 9 20 0 19 10 -2 26 -17 13 -17 13 0 14 17 0 25 20 8 20 -5 0 -11 10 -13
22 -5 32 -28 35 -28 4z"/>
<path d="M333 3058 c-35 -11 -44 -28 -17 -28 14 0 13 -5 -5 -36 -12 -20 -19
-39 -16 -42 8 -9 42 27 55 59 14 33 30 38 30 10 0 -30 -11 -51 -26 -51 -18 0
-18 -14 1 -30 12 -10 19 -10 27 -2 15 15 40 111 32 123 -7 11 -39 10 -81 -3z"/>
<path d="M107 3013 c-22 -3 -27 -8 -22 -21 3 -9 9 -30 12 -45 4 -19 10 -26 20
-23 8 4 23 6 33 6 10 0 20 9 23 23 3 12 9 32 12 45 7 19 4 22 -21 21 -16 -1
-42 -4 -57 -6z m41 -35 c-4 -27 -28 -36 -28 -10 0 20 8 32 22 32 5 0 8 -10 6
-22z"/>
<path d="M258 2907 c-49 -5 -88 -13 -88 -18 0 -14 35 -19 70 -9 19 6 68 10
107 10 58 0 73 3 73 15 0 17 -26 18 -162 2z"/>
<path d="M230 2636 c0 -19 -5 -26 -20 -26 -12 0 -20 -7 -20 -16 0 -11 6 -15
20 -11 22 6 28 -8 8 -16 -10 -4 -10 -8 1 -15 18 -13 5 -32 -20 -32 -12 0 -19
-5 -16 -12 2 -7 14 -13 26 -12 11 0 21 -3 21 -8 0 -4 5 -8 10 -8 6 0 10 6 10
14 0 8 9 18 20 21 11 3 20 11 20 17 0 6 -9 8 -20 5 -11 -3 -20 -1 -20 4 0 5 7
9 15 9 20 0 19 10 -2 26 -17 13 -17 13 0 14 17 0 25 20 8 20 -5 0 -11 10 -13
22 -5 32 -28 35 -28 4z"/>
<path d="M333 2608 c-34 -11 -45 -28 -17 -28 13 0 12 -7 -7 -40 -13 -22 -26
-40 -31 -40 -4 0 -8 -9 -8 -19 0 -22 -19 -31 -66 -31 -19 0 -34 -4 -34 -9 0
-14 28 -21 61 -14 30 6 31 5 19 -16 -6 -13 -25 -30 -41 -39 -30 -18 -38 -32
-16 -32 25 0 74 39 87 69 12 30 14 31 76 31 53 0 64 3 64 16 0 15 -8 16 -60
11 -54 -6 -60 -5 -60 12 0 10 9 26 19 35 11 10 25 31 31 47 14 33 30 38 30 10
0 -30 -11 -51 -26 -51 -18 0 -18 -14 1 -30 12 -10 19 -10 27 -2 15 15 40 111
32 123 -7 11 -39 10 -81 -3z"/>
<path d="M107 2563 c-22 -3 -27 -8 -22 -21 3 -9 9 -30 12 -45 4 -19 10 -26 20
-23 8 4 23 6 33 6 10 0 20 9 23 23 3 12 9 32 12 45 7 19 4 22 -21 21 -16 -1
-42 -4 -57 -6z m41 -35 c-4 -27 -28 -36 -28 -10 0 20 8 32 22 32 5 0 8 -10 6
-22z"/>
<path d="M230 2186 c0 -19 -5 -26 -20 -26 -12 0 -20 -7 -20 -16 0 -11 6 -15
20 -11 22 6 28 -8 8 -16 -10 -4 -10 -8 1 -15 18 -13 5 -32 -20 -32 -12 0 -19
-5 -16 -12 2 -7 14 -13 26 -12 11 0 21 -3 21 -8 0 -4 5 -8 10 -8 6 0 10 6 10
14 0 8 9 18 20 21 11 3 20 11 20 17 0 6 -9 8 -20 5 -11 -3 -20 -1 -20 4 0 5 7
9 15 9 20 0 19 10 -2 26 -17 13 -17 13 0 14 17 0 25 20 8 20 -5 0 -11 10 -13
22 -5 32 -28 35 -28 4z"/>
<path d="M333 2158 c-34 -11 -45 -28 -17 -28 13 0 12 -7 -7 -40 -13 -22 -26
-40 -31 -40 -4 0 -8 -9 -8 -19 0 -22 -19 -31 -66 -31 -19 0 -34 -4 -34 -9 0
-14 28 -21 61 -14 30 6 31 5 19 -16 -6 -13 -25 -30 -41 -39 -30 -18 -38 -32
-16 -32 25 0 74 39 87 69 12 30 14 31 76 31 53 0 64 3 64 16 0 15 -8 16 -60
11 -54 -6 -60 -5 -60 12 0 10 9 26 19 35 11 10 25 31 31 47 14 33 30 38 30 10
0 -30 -11 -51 -26 -51 -18 0 -18 -14 1 -30 12 -10 19 -10 27 -2 15 15 40 111
32 123 -7 11 -39 10 -81 -3z"/>
<path d="M107 2113 c-22 -3 -27 -8 -22 -21 3 -9 9 -30 12 -45 4 -19 10 -26 20
-23 8 4 23 6 33 6 10 0 20 9 23 23 3 12 9 32 12 45 7 19 4 22 -21 21 -16 -1
-42 -4 -57 -6z m41 -35 c-4 -27 -28 -36 -28 -10 0 20 8 32 22 32 5 0 8 -10 6
-22z"/>
<path d="M320 1952 c0 -13 69 -76 76 -69 13 13 -6 54 -31 65 -30 14 -45 15
-45 4z"/>
</g>
</svg>
