<?xml version="1.0" standalone="no"?>
<!DOCTYPE svg PUBLIC "-//W3C//DTD SVG 20010904//EN"
 "http://www.w3.org/TR/2001/REC-SVG-20010904/DTD/svg10.dtd">
<svg version="1.0" xmlns="http://www.w3.org/2000/svg"
 width="50.000000pt" height="725.000000pt" viewBox="0 0 50.000000 725.000000"
 preserveAspectRatio="xMidYMid meet">
<metadata>
Created by potrace 1.16, written by Peter Selinger 2001-2019
</metadata>
<g transform="translate(0.000000,725.000000) scale(0.100000,-0.100000)"
fill="#000000" stroke="none">
<path d="M97 7028 c6 -35 19 -55 28 -46 11 11 -7 78 -21 78 -10 0 -12 -9 -7
-32z"/>
<path d="M128 6617 c-39 -11 -40 -17 -22 -74 8 -27 25 -12 22 19 -2 24 1 33
15 36 13 3 17 -3 17 -22 0 -34 18 -33 31 1 19 51 5 59 -63 40z"/>
<path d="M128 6167 c-34 -10 -36 -12 -31 -41 8 -42 16 -49 51 -41 24 5 34 14
42 40 18 55 8 62 -62 42z m32 -36 c0 -24 -26 -35 -34 -14 -8 19 1 33 20 33 8
0 14 -9 14 -19z"/>
<path d="M283 5787 c-78 -15 -67 -31 14 -23 73 8 78 9 68 25 -7 12 -10 12 -82
-2z"/>
<path d="M128 5717 c-34 -10 -36 -12 -31 -41 8 -42 16 -49 51 -41 24 5 34 14
42 40 18 55 8 62 -62 42z m32 -36 c0 -24 -26 -35 -34 -14 -8 19 1 33 20 33 8
0 14 -9 14 -19z"/>
<path d="M283 5337 c-78 -15 -67 -31 14 -23 73 8 78 9 68 25 -7 12 -10 12 -82
-2z"/>
<path d="M230 5286 c0 -1 5 -17 11 -35 12 -35 35 -43 25 -8 -3 12 -6 28 -6 35
0 6 -7 12 -15 12 -8 0 -15 -2 -15 -4z"/>
<path d="M128 5267 c-34 -10 -36 -12 -31 -41 8 -42 16 -49 51 -41 24 5 34 14
42 40 18 55 8 62 -62 42z m32 -36 c0 -24 -26 -35 -34 -14 -8 19 1 33 20 33 8
0 14 -9 14 -19z"/>
<path d="M283 4887 c-78 -15 -67 -31 14 -23 73 8 78 9 68 25 -7 12 -10 12 -82
-2z"/>
<path d="M273 4843 c-24 -2 -43 -5 -43 -7 0 -2 5 -17 11 -35 13 -37 34 -42 25
-6 -5 20 -3 25 13 25 11 0 26 3 35 6 12 4 16 0 16 -15 0 -27 16 -27 30 -1 14
26 5 40 -23 38 -12 -1 -41 -3 -64 -5z"/>
<path d="M128 4817 c-34 -10 -36 -12 -31 -41 8 -42 16 -49 51 -41 24 5 34 14
42 40 18 55 8 62 -62 42z m32 -36 c0 -24 -26 -35 -34 -14 -8 19 1 33 20 33 8
0 14 -9 14 -19z"/>
<path d="M283 4437 c-78 -15 -67 -31 14 -23 73 8 78 9 68 25 -7 12 -10 12 -82
-2z"/>
<path d="M273 4393 c-24 -2 -43 -5 -43 -7 0 -2 5 -18 11 -36 11 -30 14 -32 48
-26 20 3 41 6 47 6 14 0 36 48 29 61 -4 5 -16 8 -28 7 -12 -1 -41 -3 -64 -5z
m57 -27 c0 -15 -45 -30 -60 -21 -18 11 -10 24 18 28 15 2 30 5 35 6 4 0 7 -5
7 -13z"/>
<path d="M128 4367 c-34 -10 -36 -12 -31 -41 8 -42 16 -49 51 -41 24 5 34 14
42 40 18 55 8 62 -62 42z m32 -36 c0 -24 -26 -35 -34 -14 -8 19 1 33 20 33 8
0 14 -9 14 -19z"/>
<path d="M283 3987 c-78 -15 -67 -31 14 -23 73 8 78 9 68 25 -7 12 -10 12 -82
-2z"/>
<path d="M273 3943 c-24 -2 -43 -5 -43 -7 0 -2 5 -18 11 -36 11 -30 14 -32 48
-26 20 3 41 6 47 6 14 0 36 48 29 61 -4 5 -16 8 -28 7 -12 -1 -41 -3 -64 -5z
m57 -27 c0 -15 -45 -30 -60 -21 -18 11 -10 24 18 28 15 2 30 5 35 6 4 0 7 -5
7 -13z"/>
<path d="M128 3917 c-34 -10 -36 -12 -31 -41 8 -42 16 -49 51 -41 24 5 34 14
42 40 18 55 8 62 -62 42z m32 -36 c0 -24 -26 -35 -34 -14 -8 19 1 33 20 33 8
0 14 -9 14 -19z"/>
<path d="M200 3780 c0 -72 13 -93 24 -39 11 58 7 109 -9 109 -12 0 -15 -14
-15 -70z"/>
<path d="M283 3537 c-78 -15 -67 -31 14 -23 73 8 78 9 68 25 -7 12 -10 12 -82
-2z"/>
<path d="M273 3493 c-24 -2 -43 -5 -43 -7 0 -2 5 -18 11 -36 11 -30 14 -32 48
-26 20 3 41 6 47 6 14 0 36 48 29 61 -4 5 -16 8 -28 7 -12 -1 -41 -3 -64 -5z
m57 -27 c0 -15 -45 -30 -60 -21 -18 11 -10 24 18 28 15 2 30 5 35 6 4 0 7 -5
7 -13z"/>
<path d="M128 3467 c-34 -10 -36 -12 -31 -41 8 -42 16 -49 51 -41 24 5 34 14
42 40 18 55 8 62 -62 42z m32 -36 c0 -24 -26 -35 -34 -14 -8 19 1 33 20 33 8
0 14 -9 14 -19z"/>
<path d="M328 3405 c-2 -3 -32 -5 -66 -6 l-62 -2 0 -68 c0 -79 16 -92 25 -21
10 70 11 72 53 72 22 0 53 3 69 6 28 6 31 4 35 -27 6 -42 -1 -69 -18 -69 -8 0
-14 -4 -14 -8 0 -14 40 -46 47 -38 9 8 23 148 16 159 -5 8 -77 10 -85 2z"/>
<path d="M283 3087 c-78 -15 -67 -31 14 -23 73 8 78 9 68 25 -7 12 -10 12 -82
-2z"/>
<path d="M273 3043 c-24 -2 -43 -5 -43 -7 0 -2 5 -18 11 -36 11 -30 14 -32 48
-26 20 3 41 6 47 6 14 0 36 48 29 61 -4 5 -16 8 -28 7 -12 -1 -41 -3 -64 -5z
m57 -27 c0 -15 -45 -30 -60 -21 -18 11 -10 24 18 28 15 2 30 5 35 6 4 0 7 -5
7 -13z"/>
<path d="M128 3017 c-34 -10 -36 -12 -31 -41 8 -42 16 -49 51 -41 24 5 34 14
42 40 18 55 8 62 -62 42z m32 -36 c0 -24 -26 -35 -34 -14 -8 19 1 33 20 33 8
0 14 -9 14 -19z"/>
<path d="M328 2955 c-2 -3 -32 -5 -66 -6 l-62 -2 0 -68 c0 -79 16 -92 25 -21
10 74 14 81 31 50 18 -35 38 -37 32 -3 -4 19 -1 25 12 25 10 0 31 3 47 6 28 6
31 4 35 -27 6 -42 -1 -69 -18 -69 -8 0 -14 -4 -14 -8 0 -14 40 -46 47 -38 9 8
23 148 16 159 -5 8 -77 10 -85 2z"/>
<path d="M283 2637 c-78 -15 -67 -31 14 -23 73 8 78 9 68 25 -7 12 -10 12 -82
-2z"/>
<path d="M273 2593 c-24 -2 -43 -5 -43 -7 0 -2 5 -18 11 -36 11 -30 14 -32 48
-26 20 3 41 6 47 6 14 0 36 48 29 61 -4 5 -16 8 -28 7 -12 -1 -41 -3 -64 -5z
m57 -27 c0 -15 -45 -30 -60 -21 -18 11 -10 24 18 28 15 2 30 5 35 6 4 0 7 -5
7 -13z"/>
<path d="M128 2567 c-34 -10 -36 -12 -31 -41 8 -42 16 -49 51 -41 24 5 34 14
42 40 18 55 8 62 -62 42z m32 -36 c0 -24 -26 -35 -34 -14 -8 19 1 33 20 33 8
0 14 -9 14 -19z"/>
<path d="M328 2505 c-2 -3 -32 -5 -66 -6 l-62 -2 0 -68 c0 -79 16 -92 25 -21
10 74 14 81 31 50 18 -35 38 -37 32 -3 -4 20 -1 25 14 25 15 0 18 -5 13 -21
-9 -29 16 -21 30 9 14 32 32 27 37 -10 6 -41 -1 -68 -18 -68 -8 0 -14 -4 -14
-8 0 -14 40 -46 47 -38 9 8 23 148 16 159 -5 8 -77 10 -85 2z"/>
<path d="M283 2187 c-78 -15 -67 -31 14 -23 73 8 78 9 68 25 -7 12 -10 12 -82
-2z"/>
<path d="M273 2143 c-24 -2 -43 -5 -43 -7 0 -2 5 -18 11 -36 11 -30 14 -32 48
-26 20 3 41 6 47 6 14 0 36 48 29 61 -4 5 -16 8 -28 7 -12 -1 -41 -3 -64 -5z
m57 -27 c0 -15 -45 -30 -60 -21 -18 11 -10 24 18 28 15 2 30 5 35 6 4 0 7 -5
7 -13z"/>
<path d="M128 2117 c-34 -10 -36 -12 -31 -41 8 -42 16 -49 51 -41 24 5 34 14
42 40 18 55 8 62 -62 42z m32 -36 c0 -24 -26 -35 -34 -14 -8 19 1 33 20 33 8
0 14 -9 14 -19z"/>
<path d="M328 2055 c-2 -3 -32 -5 -66 -6 l-62 -2 0 -68 c0 -79 16 -92 25 -21
10 71 14 81 27 58 8 -15 8 -21 0 -24 -31 -10 -6 -22 48 -22 47 0 60 3 60 15 0
8 -4 15 -9 15 -5 0 -7 9 -4 20 8 31 30 24 35 -12 6 -41 -1 -68 -18 -68 -8 0
-14 -4 -14 -8 0 -14 40 -46 47 -38 9 8 23 148 16 159 -5 8 -77 10 -85 2z m-8
-34 c0 -5 -6 -14 -14 -20 -11 -9 -15 -7 -19 9 -4 15 0 20 14 20 10 0 19 -4 19
-9z"/>
<path d="M283 1737 c-78 -15 -67 -31 14 -23 73 8 78 9 68 25 -7 12 -10 12 -82
-2z"/>
<path d="M273 1693 c-24 -2 -43 -5 -43 -7 0 -2 5 -18 11 -36 11 -30 14 -32 48
-26 20 3 41 6 47 6 14 0 36 48 29 61 -4 5 -16 8 -28 7 -12 -1 -41 -3 -64 -5z
m57 -27 c0 -15 -45 -30 -60 -21 -18 11 -10 24 18 28 15 2 30 5 35 6 4 0 7 -5
7 -13z"/>
<path d="M128 1667 c-34 -10 -36 -12 -31 -41 8 -42 16 -49 51 -41 24 5 34 14
42 40 18 55 8 62 -62 42z m32 -36 c0 -24 -26 -35 -34 -14 -8 19 1 33 20 33 8
0 14 -9 14 -19z"/>
<path d="M328 1605 c-2 -3 -32 -5 -66 -6 l-62 -2 0 -68 c0 -79 16 -92 25 -21
10 71 14 81 27 58 8 -15 8 -21 0 -24 -22 -7 -12 -22 13 -22 21 0 25 -5 25 -30
0 -16 5 -30 10 -30 6 0 10 14 10 30 0 25 4 30 25 30 16 0 25 6 25 15 0 8 -4
15 -9 15 -5 0 -7 9 -4 20 8 31 30 24 35 -12 6 -41 -1 -68 -18 -68 -8 0 -14 -4
-14 -8 0 -14 40 -46 47 -38 9 8 23 148 16 159 -5 8 -77 10 -85 2z m-8 -34 c0
-5 -6 -14 -14 -20 -11 -9 -15 -7 -19 9 -4 15 0 20 14 20 10 0 19 -4 19 -9z"/>
</g>
</svg>
