<?xml version="1.0" standalone="no"?>
<!DOCTYPE svg PUBLIC "-//W3C//DTD SVG 20010904//EN"
 "http://www.w3.org/TR/2001/REC-SVG-20010904/DTD/svg10.dtd">
<svg version="1.0" xmlns="http://www.w3.org/2000/svg"
 width="50.000000pt" height="725.000000pt" viewBox="0 0 50.000000 725.000000"
 preserveAspectRatio="xMidYMid meet">
<metadata>
Created by potrace 1.16, written by Peter Selinger 2001-2019
</metadata>
<g transform="translate(0.000000,725.000000) scale(0.100000,-0.100000)"
fill="#000000" stroke="none">
<path d="M95 7035 c3 -14 7 -36 10 -50 3 -14 10 -25 16 -25 7 0 9 9 5 23 -3
12 -6 34 -6 50 0 17 -5 27 -15 27 -11 0 -14 -7 -10 -25z"/>
<path d="M150 6620 c-8 -5 -25 -10 -38 -10 -19 0 -22 -4 -17 -25 3 -14 7 -36
10 -50 9 -41 27 -30 19 11 -5 26 -3 39 7 45 23 15 29 10 29 -21 0 -41 16 -38
30 6 10 30 10 38 -1 45 -18 11 -21 11 -39 -1z"/>
<path d="M150 6170 c-8 -5 -26 -10 -39 -10 -17 0 -22 -4 -17 -16 3 -9 6 -25 6
-37 0 -39 13 -48 47 -37 23 9 33 20 42 52 10 33 10 42 -1 49 -17 11 -20 11
-38 -1z m10 -44 c0 -23 -22 -41 -34 -29 -11 11 -6 41 7 46 23 10 27 7 27 -17z"/>
<path d="M268 5767 c-89 -12 -89 -31 0 -22 101 9 132 15 132 25 0 12 -40 11
-132 -3z"/>
<path d="M150 5720 c-8 -5 -26 -10 -39 -10 -17 0 -22 -4 -17 -16 3 -9 6 -25 6
-37 0 -39 13 -48 47 -37 23 9 33 20 42 52 10 33 10 42 -1 49 -17 11 -20 11
-38 -1z m10 -44 c0 -23 -22 -41 -34 -29 -11 11 -6 41 7 46 23 10 27 7 27 -17z"/>
<path d="M235 5330 c5 -16 2 -20 -14 -20 -12 0 -21 -4 -21 -10 0 -5 11 -10 25
-10 18 0 25 -5 25 -20 0 -11 5 -20 10 -20 6 0 10 11 10 25 0 23 4 25 43 25 52
0 87 9 87 22 0 7 -24 8 -65 3 -56 -6 -65 -4 -65 9 0 10 -9 16 -21 16 -16 0
-19 -4 -14 -20z"/>
<path d="M150 5270 c-8 -5 -26 -10 -39 -10 -17 0 -22 -4 -17 -16 3 -9 6 -25 6
-37 0 -39 13 -48 47 -37 23 9 33 20 42 52 10 33 10 42 -1 49 -17 11 -20 11
-38 -1z m10 -44 c0 -23 -22 -41 -34 -29 -11 11 -6 41 7 46 23 10 27 7 27 -17z"/>
<path d="M310 4895 c0 -18 -5 -25 -20 -25 -11 0 -20 7 -20 15 0 8 -9 15 -21
15 -16 0 -19 -4 -14 -20 5 -16 2 -20 -14 -20 -12 0 -21 -4 -21 -10 0 -5 11
-10 25 -10 18 0 25 -5 25 -20 0 -11 5 -20 10 -20 6 0 10 11 10 25 0 18 5 25
20 25 11 0 20 -7 20 -15 0 -19 16 -20 23 -1 3 8 19 17 36 21 37 8 41 25 6 25
-15 0 -25 6 -25 14 0 12 -20 26 -36 26 -2 0 -4 -11 -4 -25z"/>
<path d="M150 4820 c-8 -5 -26 -10 -39 -10 -17 0 -22 -4 -17 -16 3 -9 6 -25 6
-37 0 -39 13 -48 47 -37 23 9 33 20 42 52 10 33 10 42 -1 49 -17 11 -20 11
-38 -1z m10 -44 c0 -23 -22 -41 -34 -29 -11 11 -6 41 7 46 23 10 27 7 27 -17z"/>
<path d="M310 4445 c0 -18 -5 -25 -20 -25 -11 0 -20 7 -20 15 0 8 -9 15 -21
15 -16 0 -19 -4 -14 -20 5 -16 2 -20 -14 -20 -12 0 -21 -4 -21 -10 0 -5 11
-10 25 -10 19 0 25 -5 25 -21 0 -17 4 -20 23 -15 12 3 29 6 38 6 9 0 19 9 22
19 3 11 17 22 36 26 37 8 41 25 6 25 -15 0 -25 6 -25 14 0 12 -20 26 -36 26
-2 0 -4 -11 -4 -25z m0 -54 c0 -5 -9 -11 -20 -14 -13 -3 -20 0 -20 9 0 8 9 14
20 14 11 0 20 -4 20 -9z"/>
<path d="M150 4370 c-8 -5 -26 -10 -39 -10 -17 0 -22 -4 -17 -16 3 -9 6 -25 6
-37 0 -39 13 -48 47 -37 23 9 33 20 42 52 10 33 10 42 -1 49 -17 11 -20 11
-38 -1z m10 -44 c0 -23 -22 -41 -34 -29 -11 11 -6 41 7 46 23 10 27 7 27 -17z"/>
<path d="M310 3995 c0 -18 -5 -25 -20 -25 -11 0 -20 7 -20 15 0 8 -9 15 -21
15 -16 0 -19 -4 -14 -20 5 -16 2 -20 -14 -20 -12 0 -21 -4 -21 -10 0 -5 11
-10 25 -10 19 0 25 -5 25 -21 0 -17 4 -20 23 -15 12 3 29 6 38 6 9 0 19 9 22
19 3 11 17 22 36 26 37 8 41 25 6 25 -15 0 -25 6 -25 14 0 12 -20 26 -36 26
-2 0 -4 -11 -4 -25z m0 -54 c0 -5 -9 -11 -20 -14 -13 -3 -20 0 -20 9 0 8 9 14
20 14 11 0 20 -4 20 -9z"/>
<path d="M150 3920 c-8 -5 -26 -10 -39 -10 -17 0 -22 -4 -17 -16 3 -9 6 -25 6
-37 0 -39 13 -48 47 -37 23 9 33 20 42 52 10 33 10 42 -1 49 -17 11 -20 11
-38 -1z m10 -44 c0 -23 -22 -41 -34 -29 -11 11 -6 41 7 46 23 10 27 7 27 -17z"/>
<path d="M220 3863 c0 -23 17 -49 26 -41 9 10 -4 58 -16 58 -6 0 -10 -8 -10
-17z"/>
<path d="M310 3545 c0 -18 -5 -25 -20 -25 -11 0 -20 7 -20 15 0 8 -9 15 -21
15 -16 0 -19 -4 -14 -20 5 -16 2 -20 -14 -20 -12 0 -21 -4 -21 -10 0 -5 11
-10 25 -10 19 0 25 -5 25 -21 0 -17 4 -20 23 -15 12 3 29 6 38 6 9 0 19 9 22
19 3 11 17 22 36 26 37 8 41 25 6 25 -15 0 -25 6 -25 14 0 12 -20 26 -36 26
-2 0 -4 -11 -4 -25z m0 -54 c0 -5 -9 -11 -20 -14 -13 -3 -20 0 -20 9 0 8 9 14
20 14 11 0 20 -4 20 -9z"/>
<path d="M150 3470 c-8 -5 -26 -10 -39 -10 -17 0 -22 -4 -17 -16 3 -9 6 -25 6
-37 0 -39 13 -48 47 -37 23 9 33 20 42 52 10 33 10 42 -1 49 -17 11 -20 11
-38 -1z m10 -44 c0 -23 -22 -41 -34 -29 -11 11 -6 41 7 46 23 10 27 7 27 -17z"/>
<path d="M320 3440 c0 -5 5 -10 10 -10 6 0 10 -9 10 -20 0 -26 12 -25 36 1 16
17 16 22 4 29 -20 13 -60 13 -60 0z"/>
<path d="M238 3433 c-19 -5 -22 -20 -12 -47 9 -25 24 -19 24 9 0 21 5 25 30
25 17 0 30 5 30 10 0 10 -40 12 -72 3z"/>
<path d="M310 3095 c0 -18 -5 -25 -20 -25 -11 0 -20 7 -20 15 0 8 -9 15 -21
15 -16 0 -19 -4 -14 -20 5 -16 2 -20 -14 -20 -12 0 -21 -4 -21 -10 0 -5 11
-10 25 -10 19 0 25 -5 25 -21 0 -17 4 -20 23 -15 12 3 29 6 38 6 9 0 19 9 22
19 3 11 17 22 36 26 37 8 41 25 6 25 -15 0 -25 6 -25 14 0 12 -20 26 -36 26
-2 0 -4 -11 -4 -25z m0 -54 c0 -5 -9 -11 -20 -14 -13 -3 -20 0 -20 9 0 8 9 14
20 14 11 0 20 -4 20 -9z"/>
<path d="M150 3020 c-8 -5 -26 -10 -39 -10 -17 0 -22 -4 -17 -16 3 -9 6 -25 6
-37 0 -39 13 -48 47 -37 23 9 33 20 42 52 10 33 10 42 -1 49 -17 11 -20 11
-38 -1z m10 -44 c0 -23 -22 -41 -34 -29 -11 11 -6 41 7 46 23 10 27 7 27 -17z"/>
<path d="M320 2990 c0 -5 5 -10 10 -10 6 0 10 -7 10 -15 0 -11 -12 -15 -45
-15 -25 0 -45 5 -45 10 0 6 14 10 30 10 17 0 30 5 30 11 0 8 -14 10 -41 6 -50
-7 -53 -10 -45 -40 5 -23 10 -24 53 -20 75 7 87 11 101 34 12 18 12 23 0 30
-18 12 -58 11 -58 -1z"/>
<path d="M310 2645 c0 -18 -5 -25 -20 -25 -11 0 -20 7 -20 15 0 8 -9 15 -21
15 -16 0 -19 -4 -14 -20 5 -16 2 -20 -14 -20 -12 0 -21 -4 -21 -10 0 -5 11
-10 25 -10 19 0 25 -5 25 -21 0 -17 4 -20 23 -15 12 3 29 6 38 6 9 0 19 9 22
19 3 11 17 22 36 26 37 8 41 25 6 25 -15 0 -25 6 -25 14 0 12 -20 26 -36 26
-2 0 -4 -11 -4 -25z m0 -54 c0 -5 -9 -11 -20 -14 -13 -3 -20 0 -20 9 0 8 9 14
20 14 11 0 20 -4 20 -9z"/>
<path d="M150 2570 c-8 -5 -26 -10 -39 -10 -17 0 -22 -4 -17 -16 3 -9 6 -25 6
-37 0 -39 13 -48 47 -37 23 9 33 20 42 52 10 33 10 42 -1 49 -17 11 -20 11
-38 -1z m10 -44 c0 -23 -22 -41 -34 -29 -11 11 -6 41 7 46 23 10 27 7 27 -17z"/>
<path d="M320 2540 c0 -5 5 -10 10 -10 6 0 10 -7 10 -15 0 -11 -12 -15 -45
-15 -25 0 -45 5 -45 10 0 6 14 10 30 10 17 0 30 5 30 11 0 8 -14 10 -41 6 -50
-7 -53 -10 -45 -40 5 -23 10 -24 53 -20 75 7 87 11 101 34 12 18 12 23 0 30
-18 12 -58 11 -58 -1z"/>
<path d="M253 2463 c-34 -4 -46 -23 -15 -23 45 0 122 14 122 21 0 9 -45 10
-107 2z"/>
<path d="M310 2195 c0 -18 -5 -25 -20 -25 -11 0 -20 7 -20 15 0 8 -9 15 -21
15 -16 0 -19 -4 -14 -20 5 -16 2 -20 -14 -20 -12 0 -21 -4 -21 -10 0 -5 11
-10 25 -10 19 0 25 -5 25 -21 0 -17 4 -20 23 -15 12 3 29 6 38 6 9 0 19 9 22
19 3 11 17 22 36 26 37 8 41 25 6 25 -15 0 -25 6 -25 14 0 12 -20 26 -36 26
-2 0 -4 -11 -4 -25z m0 -54 c0 -5 -9 -11 -20 -14 -13 -3 -20 0 -20 9 0 8 9 14
20 14 11 0 20 -4 20 -9z"/>
<path d="M150 2120 c-8 -5 -26 -10 -39 -10 -17 0 -22 -4 -17 -16 3 -9 6 -25 6
-37 0 -39 13 -48 47 -37 23 9 33 20 42 52 10 33 10 42 -1 49 -17 11 -20 11
-38 -1z m10 -44 c0 -23 -22 -41 -34 -29 -11 11 -6 41 7 46 23 10 27 7 27 -17z"/>
<path d="M320 2090 c0 -5 5 -10 10 -10 6 0 10 -7 10 -15 0 -11 -12 -15 -45
-15 -25 0 -45 5 -45 10 0 6 14 10 30 10 17 0 30 5 30 11 0 8 -14 10 -41 6 -50
-7 -53 -10 -45 -40 5 -23 10 -24 53 -20 75 7 87 11 101 34 12 18 12 23 0 30
-18 12 -58 11 -58 -1z"/>
<path d="M253 2013 c-34 -4 -46 -23 -15 -23 45 0 122 14 122 21 0 9 -45 10
-107 2z"/>
<path d="M270 1978 c-83 -9 -98 -13 -89 -23 11 -10 240 8 236 19 -5 15 -45 16
-147 4z"/>
<path d="M310 1745 c0 -18 -5 -25 -20 -25 -11 0 -20 7 -20 15 0 8 -9 15 -21
15 -16 0 -19 -4 -14 -20 5 -16 2 -20 -14 -20 -12 0 -21 -4 -21 -10 0 -5 11
-10 25 -10 18 0 25 -5 25 -20 0 -12 7 -20 18 -21 9 -1 2 -6 -15 -11 -33 -11
-39 -22 -27 -52 4 -11 13 -14 32 -9 17 4 23 2 18 -6 -4 -6 -18 -11 -32 -11
-13 0 -24 -4 -24 -10 0 -5 12 -10 28 -10 21 0 24 -2 12 -10 -8 -5 -30 -10 -47
-10 -18 0 -33 -5 -33 -11 0 -7 17 -10 46 -7 l46 3 -37 -33 c-20 -19 -34 -37
-30 -40 10 -11 72 29 84 54 9 22 17 24 72 24 44 0 59 3 56 13 -3 8 -23 11 -61
9 -37 -1 -55 1 -51 8 3 5 17 10 31 10 33 0 30 20 -3 21 l-28 1 30 9 c37 11 64
47 43 60 -18 12 -58 11 -58 -1 0 -5 5 -10 10 -10 6 0 10 -7 10 -15 0 -8 -7
-15 -15 -15 -10 0 -15 10 -15 30 0 17 4 30 9 30 5 0 11 9 14 19 3 11 17 22 36
26 37 8 41 25 6 25 -15 0 -25 6 -25 14 0 12 -20 26 -36 26 -2 0 -4 -11 -4 -25z
m0 -54 c0 -5 -9 -11 -20 -14 -13 -3 -20 0 -20 9 0 8 9 14 20 14 11 0 20 -4 20
-9z m-30 -81 c0 -5 -7 -10 -15 -10 -8 0 -15 5 -15 10 0 6 7 10 15 10 8 0 15
-4 15 -10z"/>
<path d="M150 1670 c-8 -5 -26 -10 -39 -10 -17 0 -22 -4 -17 -16 3 -9 6 -25 6
-37 0 -39 13 -48 47 -37 23 9 33 20 42 52 10 33 10 42 -1 49 -17 11 -20 11
-38 -1z m10 -44 c0 -23 -22 -41 -34 -29 -11 11 -6 41 7 46 23 10 27 7 27 -17z"/>
<path d="M310 1295 c0 -18 -5 -25 -20 -25 -11 0 -20 7 -20 15 0 8 -9 15 -21
15 -16 0 -19 -4 -14 -20 5 -16 2 -20 -14 -20 -12 0 -21 -4 -21 -10 0 -5 11
-10 25 -10 18 0 25 -5 25 -20 0 -12 7 -20 18 -21 9 -1 2 -6 -15 -11 -33 -11
-39 -22 -27 -52 4 -11 13 -14 32 -9 17 4 23 2 18 -6 -4 -6 -18 -11 -32 -11
-13 0 -24 -4 -24 -10 0 -5 12 -10 28 -10 21 0 24 -2 12 -10 -8 -5 -30 -10 -47
-10 -18 0 -33 -5 -33 -11 0 -7 17 -10 46 -7 l46 3 -37 -33 c-20 -19 -34 -37
-30 -40 10 -11 72 29 84 54 9 22 17 24 72 24 44 0 59 3 56 13 -3 8 -23 11 -61
9 -37 -1 -55 1 -51 8 3 5 17 10 31 10 33 0 30 20 -3 21 l-28 1 30 9 c37 11 64
47 43 60 -18 12 -58 11 -58 -1 0 -5 5 -10 10 -10 6 0 10 -7 10 -15 0 -8 -7
-15 -15 -15 -10 0 -15 10 -15 30 0 17 4 30 9 30 5 0 11 9 14 19 3 11 17 22 36
26 37 8 41 25 6 25 -15 0 -25 6 -25 14 0 12 -20 26 -36 26 -2 0 -4 -11 -4 -25z
m0 -54 c0 -5 -9 -11 -20 -14 -13 -3 -20 0 -20 9 0 8 9 14 20 14 11 0 20 -4 20
-9z m-30 -81 c0 -5 -7 -10 -15 -10 -8 0 -15 5 -15 10 0 6 7 10 15 10 8 0 15
-4 15 -10z"/>
<path d="M150 1220 c-8 -5 -26 -10 -39 -10 -17 0 -22 -4 -17 -16 3 -9 6 -25 6
-37 0 -39 13 -48 47 -37 23 9 33 20 42 52 10 33 10 42 -1 49 -17 11 -20 11
-38 -1z m10 -44 c0 -23 -22 -41 -34 -29 -11 11 -6 41 7 46 23 10 27 7 27 -17z"/>
<path d="M320 1031 c0 -11 58 -61 71 -61 22 0 7 41 -21 55 -33 17 -50 19 -50
6z"/>
</g>
</svg>
