<?xml version="1.0" standalone="no"?>
<!DOCTYPE svg PUBLIC "-//W3C//DTD SVG 20010904//EN"
 "http://www.w3.org/TR/2001/REC-SVG-20010904/DTD/svg10.dtd">
<svg version="1.0" xmlns="http://www.w3.org/2000/svg"
 width="50.000000pt" height="725.000000pt" viewBox="0 0 50.000000 725.000000"
 preserveAspectRatio="xMidYMid meet">
<metadata>
Created by potrace 1.16, written by Peter Selinger 2001-2019
</metadata>
<g transform="translate(0.000000,725.000000) scale(0.100000,-0.100000)"
fill="#000000" stroke="none">
<path d="M84 7029 c3 -17 6 -38 6 -45 0 -8 5 -14 10 -14 11 0 14 49 4 74 -11
29 -27 17 -20 -15z"/>
<path d="M112 6617 c-31 -9 -33 -13 -28 -40 3 -16 6 -36 6 -43 0 -8 5 -14 10
-14 6 0 10 18 10 40 0 29 4 40 15 40 11 0 13 -8 8 -31 -5 -24 -3 -31 7 -27 25
8 37 90 13 87 -4 -1 -23 -6 -41 -12z"/>
<path d="M112 6167 c-32 -10 -33 -11 -26 -51 3 -23 7 -42 8 -42 0 -1 16 1 34
3 33 5 32 4 36 80 1 21 -11 23 -52 10z m24 -33 c-3 -9 -6 -20 -6 -25 0 -5 -4
-9 -10 -9 -5 0 -10 11 -10 25 0 16 6 25 16 25 11 0 14 -5 10 -16z"/>
<path d="M200 5748 c-7 -18 -15 -36 -18 -40 -2 -5 8 -8 23 -8 21 0 25 4 20 19
-3 11 -1 22 5 26 14 9 13 35 -3 35 -7 0 -19 -15 -27 -32z"/>
<path d="M112 5717 c-32 -10 -33 -11 -26 -51 3 -23 7 -42 8 -42 0 -1 16 1 34
3 33 5 32 4 36 80 1 21 -11 23 -52 10z m24 -33 c-3 -9 -6 -20 -6 -25 0 -5 -4
-9 -10 -9 -5 0 -10 11 -10 25 0 16 6 25 16 25 11 0 14 -5 10 -16z"/>
<path d="M200 5298 c-7 -18 -15 -36 -18 -40 -2 -5 4 -8 12 -8 15 0 15 -2 0
-25 -19 -30 -14 -40 16 -30 12 4 19 12 16 20 -2 7 4 21 15 31 10 9 19 23 19
31 0 17 -27 17 -33 1 -4 -10 -6 -10 -6 -1 -1 6 4 15 9 18 14 9 12 35 -3 35 -7
0 -19 -15 -27 -32z"/>
<path d="M112 5267 c-32 -10 -33 -11 -26 -51 3 -23 7 -42 8 -42 0 -1 16 1 34
3 33 5 32 4 36 80 1 21 -11 23 -52 10z m24 -33 c-3 -9 -6 -20 -6 -25 0 -5 -4
-9 -10 -9 -5 0 -10 11 -10 25 0 16 6 25 16 25 11 0 14 -5 10 -16z"/>
<path d="M200 4848 c-7 -18 -15 -36 -18 -40 -2 -5 4 -8 12 -8 15 0 15 -2 0
-25 -19 -30 -14 -40 16 -30 12 4 19 12 16 20 -2 7 4 21 15 31 10 9 19 23 19
31 0 17 -27 17 -33 1 -4 -10 -6 -10 -6 -1 -1 6 4 15 9 18 14 9 12 35 -3 35 -7
0 -19 -15 -27 -32z"/>
<path d="M112 4817 c-32 -10 -33 -11 -26 -51 3 -23 7 -42 8 -42 0 -1 16 1 34
3 33 5 32 4 36 80 1 21 -11 23 -52 10z m24 -33 c-3 -9 -6 -20 -6 -25 0 -5 -4
-9 -10 -9 -5 0 -10 11 -10 25 0 16 6 25 16 25 11 0 14 -5 10 -16z"/>
<path d="M240 4770 c0 -11 7 -20 15 -20 17 0 18 2 9 24 -9 23 -24 20 -24 -4z"/>
<path d="M318 4409 c-21 -36 -23 -49 -5 -49 7 0 19 15 27 33 7 17 15 35 18 40
2 4 -2 7 -10 7 -7 0 -21 -14 -30 -31z"/>
<path d="M200 4398 c-7 -18 -15 -36 -18 -40 -2 -5 4 -8 12 -8 15 0 15 -2 0
-25 -19 -30 -14 -40 16 -30 12 4 19 12 16 20 -2 7 4 21 15 31 10 9 19 23 19
31 0 17 -27 17 -33 1 -4 -10 -6 -10 -6 -1 -1 6 4 15 9 18 14 9 12 35 -3 35 -7
0 -19 -15 -27 -32z"/>
<path d="M112 4367 c-32 -10 -33 -11 -26 -51 3 -23 7 -42 8 -42 0 -1 16 1 34
3 33 5 32 4 36 80 1 21 -11 23 -52 10z m24 -33 c-3 -9 -6 -20 -6 -25 0 -5 -4
-9 -10 -9 -5 0 -10 11 -10 25 0 16 6 25 16 25 11 0 14 -5 10 -16z"/>
<path d="M240 4320 c0 -11 7 -20 15 -20 17 0 18 2 9 24 -9 23 -24 20 -24 -4z"/>
<path d="M315 3953 c-14 -26 -17 -37 -8 -40 10 -4 10 -9 1 -23 -7 -11 -9 -22
-6 -26 10 -10 58 5 58 17 0 7 -7 8 -17 4 -12 -4 -9 3 10 22 31 33 34 43 12 43
-8 0 -15 -4 -15 -10 0 -5 -5 -10 -11 -10 -7 0 -5 10 5 25 19 29 20 35 3 35 -7
0 -21 -17 -32 -37z"/>
<path d="M200 3948 c-7 -18 -15 -36 -18 -40 -2 -5 4 -8 12 -8 15 0 15 -2 0
-25 -19 -30 -14 -40 16 -30 12 4 19 12 16 20 -2 7 4 21 15 31 10 9 19 23 19
31 0 17 -27 17 -33 1 -4 -10 -6 -10 -6 -1 -1 6 4 15 9 18 14 9 12 35 -3 35 -7
0 -19 -15 -27 -32z"/>
<path d="M112 3917 c-32 -10 -33 -11 -26 -51 3 -23 7 -42 8 -42 0 -1 16 1 34
3 33 5 32 4 36 80 1 21 -11 23 -52 10z m24 -33 c-3 -9 -6 -20 -6 -25 0 -5 -4
-9 -10 -9 -5 0 -10 11 -10 25 0 16 6 25 16 25 11 0 14 -5 10 -16z"/>
<path d="M240 3870 c0 -11 7 -20 15 -20 17 0 18 2 9 24 -9 23 -24 20 -24 -4z"/>
<path d="M315 3503 c-14 -26 -17 -37 -8 -40 10 -4 10 -9 1 -23 -7 -11 -10 -22
-6 -25 11 -11 88 7 88 21 0 17 -14 18 -43 3 -19 -10 -18 -7 6 18 31 33 34 43
12 43 -8 0 -15 -4 -15 -10 0 -5 -5 -10 -11 -10 -7 0 -5 10 5 25 19 29 20 35 3
35 -7 0 -21 -17 -32 -37z"/>
<path d="M200 3498 c-7 -18 -15 -36 -18 -40 -2 -5 4 -8 12 -8 15 0 15 -2 0
-25 -19 -30 -14 -40 16 -30 12 4 19 12 16 20 -2 7 4 21 15 31 10 9 19 23 19
31 0 17 -27 17 -33 1 -4 -10 -6 -10 -6 -1 -1 6 4 15 9 18 14 9 12 35 -3 35 -7
0 -19 -15 -27 -32z"/>
<path d="M112 3467 c-32 -10 -33 -11 -26 -51 3 -23 7 -42 8 -42 0 -1 16 1 34
3 33 5 32 4 36 80 1 21 -11 23 -52 10z m24 -33 c-3 -9 -6 -20 -6 -25 0 -5 -4
-9 -10 -9 -5 0 -10 11 -10 25 0 16 6 25 16 25 11 0 14 -5 10 -16z"/>
<path d="M240 3420 c0 -11 7 -20 15 -20 17 0 18 2 9 24 -9 23 -24 20 -24 -4z"/>
<path d="M315 3053 c-14 -26 -17 -37 -8 -40 10 -4 10 -9 1 -23 -7 -11 -10 -22
-6 -25 11 -11 88 7 88 21 0 17 -14 18 -43 3 -19 -10 -18 -7 6 18 31 33 34 43
12 43 -8 0 -15 -4 -15 -10 0 -5 -5 -10 -11 -10 -7 0 -5 10 5 25 19 29 20 35 3
35 -7 0 -21 -17 -32 -37z"/>
<path d="M200 3048 c-7 -18 -15 -36 -18 -40 -2 -5 4 -8 12 -8 15 0 15 -2 0
-25 -19 -30 -14 -40 16 -30 12 4 19 12 16 20 -2 7 4 21 15 31 10 9 19 23 19
31 0 17 -27 17 -33 1 -4 -10 -6 -10 -6 -1 -1 6 4 15 9 18 14 9 12 35 -3 35 -7
0 -19 -15 -27 -32z"/>
<path d="M112 3017 c-32 -10 -33 -11 -26 -51 3 -23 7 -42 8 -42 0 -1 16 1 34
3 33 5 32 4 36 80 1 21 -11 23 -52 10z m24 -33 c-3 -9 -6 -20 -6 -25 0 -5 -4
-9 -10 -9 -5 0 -10 11 -10 25 0 16 6 25 16 25 11 0 14 -5 10 -16z"/>
<path d="M240 2970 c0 -11 7 -20 15 -20 17 0 18 2 9 24 -9 23 -24 20 -24 -4z"/>
<path d="M247 2936 c-37 -7 -70 -16 -74 -19 -14 -14 6 -17 53 -8 27 5 70 13
97 16 26 3 47 10 47 16 0 12 -37 10 -123 -5z"/>
<path d="M315 2603 c-14 -26 -17 -37 -8 -40 10 -4 10 -9 1 -23 -7 -11 -10 -22
-6 -25 11 -11 88 7 88 21 0 17 -14 18 -43 3 -19 -10 -18 -7 6 18 31 33 34 43
12 43 -8 0 -15 -4 -15 -10 0 -5 -5 -10 -11 -10 -7 0 -5 10 5 25 19 29 20 35 3
35 -7 0 -21 -17 -32 -37z"/>
<path d="M200 2598 c-7 -18 -15 -36 -18 -40 -2 -5 4 -8 12 -8 15 0 15 -2 0
-25 -19 -30 -14 -40 16 -30 12 4 19 12 16 20 -2 7 4 21 15 31 10 9 19 23 19
31 0 17 -27 17 -33 1 -4 -10 -6 -10 -6 -1 -1 6 4 15 9 18 14 9 12 35 -3 35 -7
0 -19 -15 -27 -32z"/>
<path d="M112 2567 c-32 -10 -33 -11 -26 -51 3 -23 7 -42 8 -42 0 -1 16 1 34
3 33 5 32 4 36 80 1 21 -11 23 -52 10z m24 -33 c-3 -9 -6 -20 -6 -25 0 -5 -4
-9 -10 -9 -5 0 -10 11 -10 25 0 16 6 25 16 25 11 0 14 -5 10 -16z"/>
<path d="M240 2520 c0 -11 7 -20 15 -20 17 0 18 2 9 24 -9 23 -24 20 -24 -4z"/>
<path d="M265 2489 c-82 -15 -95 -19 -95 -29 0 -6 7 -10 16 -10 18 0 11 -35
-14 -63 -8 -9 -12 -20 -8 -24 9 -9 42 25 65 67 10 19 25 36 32 37 8 1 35 5 62
8 26 3 47 10 47 16 0 11 -36 10 -105 -2z"/>
<path d="M315 2153 c-14 -26 -17 -37 -8 -40 10 -4 10 -9 1 -23 -7 -11 -10 -22
-6 -25 11 -11 88 7 88 21 0 17 -14 18 -43 3 -19 -10 -18 -7 6 18 31 33 34 43
12 43 -8 0 -15 -4 -15 -10 0 -5 -5 -10 -11 -10 -7 0 -5 10 5 25 19 29 20 35 3
35 -7 0 -21 -17 -32 -37z"/>
<path d="M200 2148 c-7 -18 -15 -36 -18 -40 -2 -5 4 -8 12 -8 15 0 15 -2 0
-25 -19 -30 -14 -40 16 -30 12 4 19 12 16 20 -2 7 4 21 15 31 10 9 19 23 19
31 0 17 -27 17 -33 1 -4 -10 -6 -10 -6 -1 -1 6 4 15 9 18 14 9 12 35 -3 35 -7
0 -19 -15 -27 -32z"/>
<path d="M112 2117 c-32 -10 -33 -11 -26 -51 3 -23 7 -42 8 -42 0 -1 16 1 34
3 33 5 32 4 36 80 1 21 -11 23 -52 10z m24 -33 c-3 -9 -6 -20 -6 -25 0 -5 -4
-9 -10 -9 -5 0 -10 11 -10 25 0 16 6 25 16 25 11 0 14 -5 10 -16z"/>
<path d="M240 2070 c0 -11 7 -20 15 -20 17 0 18 2 9 24 -9 23 -24 20 -24 -4z"/>
<path d="M265 2039 c-82 -15 -95 -19 -95 -29 0 -6 7 -10 16 -10 18 0 11 -35
-14 -63 -26 -29 -4 -32 27 -3 18 17 31 24 35 17 10 -16 26 -14 26 3 0 8 -7 17
-15 20 -27 10 0 46 34 46 43 0 91 11 91 21 0 11 -37 10 -105 -2z"/>
<path d="M255 1731 c5 -33 4 -41 -8 -41 -9 0 -18 -6 -20 -12 -4 -10 -6 -10 -6
-1 -1 6 4 15 9 18 14 9 12 35 -3 35 -7 0 -19 -15 -27 -32 -7 -18 -15 -36 -18
-40 -2 -5 4 -8 12 -8 15 0 15 -2 0 -25 -9 -14 -14 -28 -11 -31 10 -11 48 8 43
21 -2 7 6 23 20 36 22 21 24 21 24 3 0 -10 3 -29 6 -41 5 -19 1 -23 -33 -28
-57 -10 -73 -15 -73 -26 0 -5 7 -9 16 -9 18 0 11 -35 -14 -63 -26 -29 -4 -32
27 -3 18 17 31 24 35 17 10 -16 26 -14 26 3 0 8 -7 17 -15 20 -13 4 -14 10 -5
26 17 33 47 25 60 -16 17 -50 80 -114 114 -114 24 0 26 3 20 28 -9 35 -13 39
-24 22 -7 -12 -13 -10 -35 10 -32 30 -58 77 -50 90 3 6 15 10 26 10 36 0 19
20 -18 21 l-38 2 48 10 c27 6 47 16 47 24 0 16 -14 17 -43 2 -19 -10 -18 -7 6
18 31 33 34 43 12 43 -8 0 -15 -4 -15 -10 0 -5 -5 -10 -11 -10 -7 0 -5 10 5
25 19 29 20 35 3 35 -7 0 -21 -16 -32 -36 -15 -28 -16 -37 -6 -43 9 -6 10 -11
2 -15 -14 -9 -20 7 -23 69 -2 39 -7 51 -22 53 -16 3 -17 -1 -11 -37z"/>
<path d="M112 1667 c-32 -10 -33 -11 -26 -51 3 -23 7 -42 8 -42 0 -1 16 1 34
3 33 5 32 4 36 80 1 21 -11 23 -52 10z m24 -33 c-3 -9 -6 -20 -6 -25 0 -5 -4
-9 -10 -9 -5 0 -10 11 -10 25 0 16 6 25 16 25 11 0 14 -5 10 -16z"/>
<path d="M240 1620 c0 -11 7 -20 15 -20 17 0 18 2 9 24 -9 23 -24 20 -24 -4z"/>
<path d="M255 1281 c5 -33 4 -41 -8 -41 -9 0 -18 -6 -20 -12 -4 -10 -6 -10 -6
-1 -1 6 4 15 9 18 14 9 12 35 -3 35 -7 0 -19 -15 -27 -32 -7 -18 -15 -36 -18
-40 -2 -5 4 -8 12 -8 15 0 15 -2 0 -25 -9 -14 -14 -28 -11 -31 10 -11 48 8 43
21 -2 7 6 23 20 36 22 21 24 21 24 3 0 -10 3 -29 6 -41 5 -19 1 -23 -33 -28
-57 -10 -73 -15 -73 -26 0 -5 7 -9 16 -9 18 0 11 -35 -14 -63 -26 -29 -4 -32
27 -3 18 17 31 24 35 17 10 -16 26 -14 26 3 0 8 -7 17 -15 20 -13 4 -14 10 -5
26 17 33 47 25 60 -16 17 -50 80 -114 114 -114 24 0 26 3 20 28 -9 35 -13 39
-24 22 -7 -12 -13 -10 -35 10 -32 30 -58 77 -50 90 8 13 52 13 60 0 11 -18 26
-10 23 13 -3 20 -8 22 -58 20 l-55 -1 48 10 c27 7 47 17 47 25 0 16 -14 17
-43 2 -19 -10 -18 -7 6 18 31 33 34 43 12 43 -8 0 -15 -4 -15 -10 0 -5 -5 -10
-11 -10 -7 0 -5 10 5 25 19 29 20 35 3 35 -7 0 -21 -16 -32 -36 -15 -28 -16
-37 -6 -43 9 -6 10 -11 2 -15 -14 -9 -20 7 -23 69 -2 39 -7 51 -22 53 -16 3
-17 -1 -11 -37z"/>
<path d="M112 1217 c-32 -10 -33 -11 -26 -51 3 -23 7 -42 8 -42 0 -1 16 1 34
3 33 5 32 4 36 80 1 21 -11 23 -52 10z m24 -33 c-3 -9 -6 -20 -6 -25 0 -5 -4
-9 -10 -9 -5 0 -10 11 -10 25 0 16 6 25 16 25 11 0 14 -5 10 -16z"/>
<path d="M240 1170 c0 -11 7 -20 15 -20 17 0 18 2 9 24 -9 23 -24 20 -24 -4z"/>
<path d="M255 831 c5 -33 4 -41 -8 -41 -9 0 -18 -6 -20 -12 -4 -10 -6 -10 -6
-1 -1 6 4 15 9 18 14 9 12 35 -3 35 -7 0 -19 -15 -27 -32 -7 -18 -15 -36 -18
-40 -2 -5 4 -8 12 -8 15 0 15 -2 0 -25 -9 -14 -14 -28 -11 -31 10 -11 48 8 43
21 -2 7 6 23 20 36 22 21 24 21 24 3 0 -10 3 -29 6 -41 5 -19 1 -23 -33 -28
-57 -10 -73 -15 -73 -26 0 -5 7 -9 16 -9 18 0 11 -35 -14 -63 -26 -29 -4 -32
27 -3 18 17 31 24 35 17 10 -16 26 -14 26 3 0 8 -7 17 -15 20 -22 8 -1 46 24
46 15 0 41 -42 41 -65 0 -2 -13 -8 -30 -15 -30 -13 -41 -30 -17 -30 6 1 22 7
35 14 21 11 27 9 57 -21 20 -20 43 -33 59 -33 24 0 26 3 20 28 -9 35 -13 39
-24 22 -7 -12 -13 -10 -34 9 -24 23 -25 26 -10 42 17 19 11 39 -12 39 -8 0
-14 -8 -14 -17 -1 -17 -1 -17 -11 0 -5 9 -7 22 -4 27 8 13 52 13 60 0 11 -18
26 -10 23 13 -3 20 -8 22 -58 20 l-55 -1 48 10 c27 7 47 17 47 25 0 16 -14 17
-43 2 -19 -10 -18 -7 6 18 31 33 34 43 12 43 -8 0 -15 -4 -15 -10 0 -5 -5 -10
-11 -10 -7 0 -5 10 5 25 19 29 20 35 3 35 -7 0 -21 -16 -32 -36 -15 -28 -16
-37 -6 -43 9 -6 10 -11 2 -15 -14 -9 -20 7 -23 69 -2 39 -7 51 -22 53 -16 3
-17 -1 -11 -37z"/>
<path d="M112 767 c-32 -10 -33 -11 -26 -51 3 -23 7 -42 8 -42 0 -1 16 1 34 3
33 5 32 4 36 80 1 21 -11 23 -52 10z m24 -33 c-3 -9 -6 -20 -6 -25 0 -5 -4 -9
-10 -9 -5 0 -10 11 -10 25 0 16 6 25 16 25 11 0 14 -5 10 -16z"/>
<path d="M240 720 c0 -11 7 -20 15 -20 17 0 18 2 9 24 -9 23 -24 20 -24 -4z"/>
</g>
</svg>
