<?xml version="1.0" standalone="no"?>
<!DOCTYPE svg PUBLIC "-//W3C//DTD SVG 20010904//EN"
 "http://www.w3.org/TR/2001/REC-SVG-20010904/DTD/svg10.dtd">
<svg version="1.0" xmlns="http://www.w3.org/2000/svg"
 width="50.000000pt" height="725.000000pt" viewBox="0 0 50.000000 725.000000"
 preserveAspectRatio="xMidYMid meet">
<metadata>
Created by potrace 1.16, written by Peter Selinger 2001-2019
</metadata>
<g transform="translate(0.000000,725.000000) scale(0.100000,-0.100000)"
fill="#000000" stroke="none">
<path d="M74 7043 c2 -10 7 -33 11 -50 7 -35 25 -45 25 -14 0 41 -13 81 -27
81 -9 0 -12 -7 -9 -17z"/>
<path d="M102 6613 c-25 -3 -32 -8 -28 -21 2 -9 7 -32 11 -49 10 -48 29 -42
22 7 -4 35 -3 40 15 40 17 0 19 -5 13 -30 -5 -23 -3 -30 8 -30 8 0 17 13 21
31 12 63 14 61 -62 52z"/>
<path d="M102 6163 c-25 -3 -32 -8 -28 -21 2 -9 7 -31 11 -49 6 -30 9 -32 38
-26 18 3 33 6 34 7 0 1 4 22 8 49 8 52 12 49 -63 40z m38 -35 c0 -16 -17 -44
-23 -38 -3 3 -8 15 -11 28 -6 18 -3 22 13 22 12 0 21 -6 21 -12z"/>
<path d="M257 5788 c-19 -43 -87 -110 -87 -84 0 15 -6 16 -47 10 -27 -3 -49
-7 -50 -8 -1 -1 3 -23 9 -49 7 -36 14 -47 25 -43 8 3 23 6 34 6 14 0 19 7 19
25 0 16 6 25 16 25 23 0 126 107 122 127 -6 29 -27 25 -41 -9z m-117 -110 c0
-16 -17 -44 -23 -38 -3 3 -8 15 -11 28 -6 18 -3 22 13 22 12 0 21 -6 21 -12z"/>
<path d="M256 5338 c-18 -43 -86 -109 -86 -84 0 15 -6 16 -47 10 -27 -3 -49
-7 -50 -8 -1 -1 3 -23 9 -49 7 -36 14 -47 25 -43 8 3 23 6 34 6 14 0 19 7 19
25 0 16 6 25 15 25 8 0 39 23 67 50 l53 51 33 -41 c29 -34 39 -40 73 -40 21 0
39 3 39 8 0 4 -20 15 -45 26 -25 10 -60 36 -79 57 -18 21 -36 39 -39 39 -4 0
-13 -15 -21 -32z m-116 -110 c0 -16 -17 -44 -23 -38 -3 3 -8 15 -11 28 -6 18
-3 22 13 22 12 0 21 -6 21 -12z"/>
<path d="M256 4888 c-18 -43 -86 -109 -86 -84 0 15 -6 16 -47 10 -27 -3 -49
-7 -50 -8 -1 -1 3 -23 9 -49 7 -36 14 -47 25 -43 8 3 23 6 34 6 14 0 19 7 19
25 0 14 6 25 13 25 7 0 29 13 49 30 31 26 37 28 48 15 7 -8 16 -15 21 -15 14
0 10 22 -6 34 -10 8 -12 15 -5 26 8 12 16 7 46 -27 31 -37 41 -43 75 -43 21 0
39 3 39 8 0 4 -20 15 -45 26 -25 10 -60 36 -79 57 -18 21 -36 39 -39 39 -4 0
-13 -15 -21 -32z m-116 -110 c0 -16 -17 -44 -23 -38 -3 3 -8 15 -11 28 -6 18
-3 22 13 22 12 0 21 -6 21 -12z"/>
<path d="M256 4438 c-18 -43 -86 -109 -86 -84 0 15 -6 16 -47 10 -27 -3 -49
-7 -50 -8 -1 -1 3 -23 9 -49 7 -36 14 -47 25 -43 8 3 23 6 34 6 14 0 19 7 19
25 0 14 6 25 13 25 7 0 29 13 48 30 33 27 49 30 49 8 0 -4 -9 -8 -20 -8 -11 0
-20 -5 -20 -11 0 -8 11 -9 31 -5 17 3 40 6 50 6 11 0 19 5 19 10 0 6 -5 10
-10 10 -22 0 -49 35 -39 50 7 12 16 7 45 -27 31 -37 41 -43 75 -43 21 0 39 3
39 8 0 4 -20 15 -45 26 -25 10 -60 36 -79 57 -18 21 -36 39 -39 39 -4 0 -13
-15 -21 -32z m-116 -110 c0 -16 -17 -44 -23 -38 -3 3 -8 15 -11 28 -6 18 -3
22 13 22 12 0 21 -6 21 -12z"/>
<path d="M256 3988 c-18 -43 -86 -109 -86 -84 0 15 -6 16 -47 10 -27 -3 -49
-7 -50 -8 -1 -1 3 -23 9 -49 7 -36 14 -47 25 -43 8 3 23 6 34 6 14 0 19 7 19
25 0 14 6 25 13 25 7 0 29 13 48 30 33 27 49 30 49 8 0 -4 -9 -8 -20 -8 -11 0
-20 -5 -20 -11 0 -7 10 -9 24 -7 17 4 23 1 19 -9 -3 -7 -9 -13 -14 -13 -5 0
-9 -4 -9 -10 0 -20 27 -10 53 20 29 33 32 40 17 40 -22 0 -49 35 -39 50 7 12
16 7 45 -27 31 -37 41 -43 75 -43 21 0 39 3 39 8 0 4 -20 15 -45 26 -25 10
-60 36 -79 57 -18 21 -36 39 -39 39 -4 0 -13 -15 -21 -32z m-116 -110 c0 -16
-17 -44 -23 -38 -3 3 -8 15 -11 28 -6 18 -3 22 13 22 12 0 21 -6 21 -12z"/>
<path d="M256 3538 c-18 -43 -86 -109 -86 -84 0 15 -6 16 -47 10 -27 -3 -49
-7 -50 -8 -1 -1 3 -23 9 -49 7 -36 14 -47 25 -43 8 3 23 6 34 6 14 0 19 7 19
25 0 14 6 25 13 25 7 0 29 13 48 30 33 27 49 30 49 8 0 -4 -9 -8 -20 -8 -11 0
-20 -4 -20 -10 0 -5 5 -10 10 -10 6 0 10 -9 10 -20 0 -16 7 -20 35 -20 33 0
35 2 29 25 -4 15 -2 25 5 25 6 0 11 5 11 10 0 6 -5 10 -10 10 -22 0 -49 35
-39 50 7 12 16 7 45 -27 31 -37 41 -43 75 -43 21 0 39 3 39 8 0 4 -20 15 -45
26 -25 10 -60 36 -79 57 -18 21 -36 39 -39 39 -4 0 -13 -15 -21 -32z m-116
-110 c0 -16 -17 -44 -23 -38 -3 3 -8 15 -11 28 -6 18 -3 22 13 22 12 0 21 -6
21 -12z"/>
<path d="M256 3088 c-18 -43 -86 -109 -86 -84 0 15 -6 16 -47 10 -27 -3 -49
-7 -50 -8 -1 -1 3 -23 9 -49 7 -36 14 -47 25 -43 8 3 23 6 34 6 14 0 19 7 19
25 0 14 6 25 13 25 7 0 29 13 48 30 33 27 49 30 49 8 0 -4 -9 -8 -20 -8 -11 0
-20 -4 -20 -10 0 -5 5 -10 10 -10 6 0 10 -9 10 -20 0 -13 7 -20 20 -20 11 0
20 -4 20 -10 0 -5 11 -10 25 -10 29 0 31 6 10 26 -17 17 -20 44 -5 44 6 0 10
5 10 10 0 6 -5 10 -10 10 -22 0 -49 35 -39 50 7 12 16 7 45 -27 31 -37 41 -43
75 -43 21 0 39 3 39 8 0 4 -20 15 -45 26 -25 10 -60 36 -79 57 -18 21 -36 39
-39 39 -4 0 -13 -15 -21 -32z m-116 -110 c0 -16 -17 -44 -23 -38 -3 3 -8 15
-11 28 -6 18 -3 22 13 22 12 0 21 -6 21 -12z"/>
<path d="M200 2934 c0 -36 1 -36 31 -30 17 3 35 6 40 6 5 0 9 5 9 10 0 6 -11
10 -25 10 -18 0 -25 5 -25 20 0 11 -7 20 -15 20 -11 0 -15 -11 -15 -36z"/>
<path d="M256 2638 c-18 -43 -86 -109 -86 -84 0 15 -6 16 -47 10 -27 -3 -49
-7 -50 -8 -1 -1 3 -23 9 -49 7 -36 14 -47 25 -43 8 3 23 6 34 6 14 0 19 7 19
25 0 14 6 25 13 25 7 0 29 13 48 30 33 27 49 30 49 8 0 -4 -9 -8 -20 -8 -11 0
-20 -4 -20 -10 0 -5 5 -10 10 -10 6 0 10 -9 10 -20 0 -13 7 -20 19 -20 11 0
21 -4 23 -9 2 -5 17 -11 33 -13 28 -3 30 -1 30 31 0 42 -25 56 -26 14 l0 -28
-12 24 c-9 19 -9 25 1 29 15 5 16 22 2 22 -22 0 -49 35 -39 50 7 12 16 7 45
-27 31 -37 41 -43 75 -43 21 0 39 3 39 8 0 4 -20 15 -45 26 -25 10 -60 36 -79
57 -18 21 -36 39 -39 39 -4 0 -13 -15 -21 -32z m-116 -110 c0 -16 -17 -44 -23
-38 -3 3 -8 15 -11 28 -6 18 -3 22 13 22 12 0 21 -6 21 -12z"/>
<path d="M200 2484 c0 -36 1 -36 31 -30 17 3 35 6 40 6 5 0 9 5 9 10 0 6 -11
10 -25 10 -18 0 -25 5 -25 20 0 11 -7 20 -15 20 -11 0 -15 -11 -15 -36z"/>
<path d="M256 2188 c-18 -43 -86 -109 -86 -84 0 15 -6 16 -47 10 -27 -3 -49
-7 -50 -8 -1 -1 3 -23 9 -49 7 -36 14 -47 25 -43 8 3 23 6 34 6 14 0 19 7 19
25 0 14 6 25 13 25 7 0 29 13 48 30 33 27 49 30 49 8 0 -4 -9 -8 -20 -8 -11 0
-20 -4 -20 -10 0 -5 5 -10 10 -10 6 0 10 -9 10 -20 0 -13 7 -20 19 -20 11 0
21 -4 23 -9 2 -5 17 -11 33 -13 28 -3 30 -1 30 31 0 42 -25 56 -26 14 l0 -28
-12 24 c-9 19 -9 25 1 29 15 5 16 22 2 22 -22 0 -49 35 -39 50 7 12 16 7 45
-27 31 -37 41 -43 75 -43 21 0 39 3 39 8 0 4 -20 15 -45 26 -25 10 -60 36 -79
57 -18 21 -36 39 -39 39 -4 0 -13 -15 -21 -32z m-116 -110 c0 -16 -17 -44 -23
-38 -3 3 -8 15 -11 28 -6 18 -3 22 13 22 12 0 21 -6 21 -12z"/>
<path d="M200 2034 c0 -36 1 -36 31 -30 17 3 35 6 40 6 5 0 9 5 9 10 0 6 -11
10 -25 10 -18 0 -25 5 -25 20 0 11 -7 20 -15 20 -11 0 -15 -11 -15 -36z"/>
<path d="M182 1940 c0 -36 4 -50 14 -50 10 0 14 14 14 50 0 37 -4 50 -14 50
-11 0 -15 -13 -14 -50z"/>
<path d="M256 1738 c-18 -43 -86 -109 -86 -84 0 15 -6 16 -47 10 -27 -3 -49
-7 -50 -8 -1 -1 3 -23 9 -49 7 -36 14 -47 25 -43 8 3 23 6 34 6 14 0 19 7 19
25 0 14 6 25 13 25 7 0 29 13 48 30 33 27 49 30 49 8 0 -4 -9 -8 -20 -8 -11 0
-20 -4 -20 -10 0 -5 5 -10 10 -10 6 0 10 -9 10 -20 0 -13 7 -20 19 -20 11 0
21 -4 23 -9 2 -5 17 -11 33 -13 28 -3 30 -1 30 31 0 42 -25 56 -26 14 l0 -28
-12 24 c-9 19 -9 25 1 29 15 5 16 22 2 22 -22 0 -49 35 -39 50 7 12 16 7 45
-27 31 -37 41 -43 75 -43 21 0 39 3 39 8 0 4 -20 15 -45 26 -25 10 -60 36 -79
57 -18 21 -36 39 -39 39 -4 0 -13 -15 -21 -32z m-116 -110 c0 -16 -17 -44 -23
-38 -3 3 -8 15 -11 28 -6 18 -3 22 13 22 12 0 21 -6 21 -12z"/>
<path d="M200 1584 c0 -36 1 -36 31 -30 17 3 35 6 40 6 5 0 9 5 9 10 0 6 -11
10 -25 10 -18 0 -25 5 -25 20 0 11 -7 20 -15 20 -11 0 -15 -11 -15 -36z"/>
<path d="M303 1543 c-49 -6 -40 -23 12 -23 43 0 45 -1 45 -30 0 -21 -5 -30
-16 -30 -24 0 -12 -35 13 -38 23 -3 25 0 38 79 4 28 2 38 -11 43 -16 6 -23 6
-81 -1z"/>
<path d="M180 1531 c0 -6 -7 -11 -15 -11 -21 0 -19 -17 4 -23 14 -3 17 -11 14
-31 -4 -19 -1 -26 11 -26 12 0 16 9 16 35 0 31 3 35 25 35 14 0 25 5 25 10 0
6 -8 10 -17 10 -10 0 -28 3 -40 6 -14 4 -23 2 -23 -5z"/>
<path d="M256 1288 c-18 -43 -86 -109 -86 -84 0 15 -6 16 -47 10 -27 -3 -49
-7 -50 -8 -1 -1 3 -23 9 -49 7 -36 14 -47 25 -43 8 3 23 6 34 6 14 0 19 7 19
25 0 14 6 25 13 25 7 0 29 13 48 30 33 27 49 30 49 8 0 -4 -9 -8 -20 -8 -11 0
-20 -4 -20 -10 0 -5 5 -10 10 -10 6 0 10 -9 10 -20 0 -13 7 -20 19 -20 11 0
21 -4 23 -9 2 -5 17 -11 33 -13 28 -3 30 -1 30 31 0 42 -25 56 -26 14 l0 -28
-12 24 c-9 19 -9 25 1 29 15 5 16 22 2 22 -22 0 -49 35 -39 50 7 12 16 7 45
-27 31 -37 41 -43 75 -43 21 0 39 3 39 8 0 4 -20 15 -45 26 -25 10 -60 36 -79
57 -18 21 -36 39 -39 39 -4 0 -13 -15 -21 -32z m-116 -110 c0 -16 -17 -44 -23
-38 -3 3 -8 15 -11 28 -6 18 -3 22 13 22 12 0 21 -6 21 -12z"/>
<path d="M200 1134 c0 -35 1 -36 30 -30 23 4 30 2 30 -11 0 -13 -7 -14 -40 -9
-25 4 -40 2 -40 -4 0 -5 -7 -10 -15 -10 -21 0 -19 -17 4 -23 14 -3 17 -11 14
-31 -4 -19 -1 -26 11 -26 12 0 16 9 16 35 0 28 4 35 20 35 11 0 20 -7 20 -15
0 -22 21 -18 27 5 4 16 14 20 44 20 37 0 39 -2 39 -30 0 -21 -5 -30 -16 -30
-24 0 -12 -35 13 -38 23 -3 25 0 38 80 5 30 2 37 -14 43 -11 3 -36 3 -55 0
-29 -6 -35 -4 -41 14 -4 14 -15 21 -31 21 -17 0 -24 5 -24 20 0 11 -7 20 -15
20 -11 0 -15 -11 -15 -36z"/>
<path d="M256 838 c-18 -43 -86 -109 -86 -84 0 15 -6 16 -47 10 -27 -3 -49 -7
-50 -8 -1 -1 3 -23 9 -49 7 -36 14 -47 25 -43 8 3 23 6 34 6 14 0 19 7 19 25
0 14 6 25 13 25 7 0 29 13 48 30 33 27 49 30 49 8 0 -4 -9 -8 -20 -8 -11 0
-20 -4 -20 -10 0 -5 5 -10 10 -10 6 0 10 -9 10 -20 0 -13 7 -20 19 -20 11 0
21 -4 23 -9 2 -5 17 -11 33 -13 28 -3 30 -1 30 31 0 42 -25 56 -26 14 l0 -28
-12 24 c-9 19 -9 25 1 29 15 5 16 22 2 22 -22 0 -49 35 -39 50 7 12 16 7 45
-27 31 -37 41 -43 75 -43 21 0 39 3 39 8 0 4 -20 15 -45 26 -25 10 -60 36 -79
57 -18 21 -36 39 -39 39 -4 0 -13 -15 -21 -32z m-116 -110 c0 -16 -17 -44 -23
-38 -3 3 -8 15 -11 28 -6 18 -3 22 13 22 12 0 21 -6 21 -12z"/>
<path d="M200 684 c0 -35 1 -36 30 -30 23 4 30 2 30 -11 0 -13 -7 -14 -40 -9
-25 4 -40 2 -40 -4 0 -5 -7 -10 -15 -10 -21 0 -19 -17 4 -23 14 -3 17 -11 14
-31 -4 -19 -1 -26 11 -26 12 0 16 9 16 35 0 28 4 35 20 35 11 0 20 -4 20 -10
0 -5 -7 -10 -15 -10 -8 0 -15 -4 -15 -9 0 -16 30 -21 55 -9 25 11 34 28 15 28
-5 0 -10 5 -10 10 0 6 18 10 40 10 38 0 40 -2 40 -30 0 -21 -5 -30 -16 -30
-24 0 -12 -35 13 -38 23 -3 25 0 38 80 5 30 2 37 -14 43 -11 3 -36 3 -55 0
-29 -6 -35 -4 -41 14 -4 14 -15 21 -31 21 -17 0 -24 5 -24 20 0 11 -7 20 -15
20 -11 0 -15 -11 -15 -36z"/>
<path d="M256 388 c-18 -43 -86 -109 -86 -84 0 15 -6 16 -47 10 -27 -3 -49 -7
-50 -8 -1 -1 3 -23 9 -49 7 -36 14 -47 25 -43 8 3 23 6 34 6 14 0 19 7 19 25
0 14 6 25 13 25 7 0 29 13 48 30 33 27 49 30 49 8 0 -4 -9 -8 -20 -8 -11 0
-20 -4 -20 -10 0 -5 5 -10 10 -10 6 0 10 -9 10 -20 0 -13 7 -20 19 -20 11 0
21 -4 23 -9 2 -5 17 -11 33 -13 28 -3 30 -1 30 31 0 42 -25 56 -26 14 l0 -28
-12 24 c-9 19 -9 25 1 29 15 5 16 22 2 22 -22 0 -49 35 -39 50 7 12 16 7 45
-27 31 -37 41 -43 75 -43 21 0 39 3 39 8 0 4 -20 15 -45 26 -25 10 -60 36 -79
57 -18 21 -36 39 -39 39 -4 0 -13 -15 -21 -32z m-116 -110 c0 -16 -17 -44 -23
-38 -3 3 -8 15 -11 28 -6 18 -3 22 13 22 12 0 21 -6 21 -12z"/>
<path d="M200 234 c0 -35 1 -36 30 -30 23 4 30 2 30 -11 0 -13 -7 -14 -40 -9
-25 4 -40 2 -40 -4 0 -5 -7 -10 -15 -10 -21 0 -19 -17 4 -23 14 -3 17 -11 14
-31 -4 -19 -1 -26 11 -26 12 0 16 9 16 35 0 28 4 35 20 35 11 0 20 -4 20 -10
0 -5 -7 -10 -15 -10 -8 0 -15 -4 -15 -9 0 -17 32 -21 60 -6 22 11 29 12 33 2
3 -9 8 -9 18 1 12 11 11 16 -5 28 -19 13 -19 14 7 14 23 0 27 -4 27 -30 0 -21
-5 -30 -16 -30 -24 0 -12 -35 13 -38 23 -3 25 0 38 80 5 30 2 37 -14 43 -11 3
-36 3 -55 0 -29 -6 -35 -4 -41 14 -4 14 -15 21 -31 21 -17 0 -24 5 -24 20 0
11 -7 20 -15 20 -11 0 -15 -11 -15 -36z"/>
</g>
</svg>
