<?xml version="1.0" standalone="no"?>
<!DOCTYPE svg PUBLIC "-//W3C//DTD SVG 20010904//EN"
 "http://www.w3.org/TR/2001/REC-SVG-20010904/DTD/svg10.dtd">
<svg version="1.0" xmlns="http://www.w3.org/2000/svg"
 width="50.000000pt" height="725.000000pt" viewBox="0 0 50.000000 725.000000"
 preserveAspectRatio="xMidYMid meet">
<metadata>
Created by potrace 1.16, written by Peter Selinger 2001-2019
</metadata>
<g transform="translate(0.000000,725.000000) scale(0.100000,-0.100000)"
fill="#000000" stroke="none">
<path d="M74 7044 c3 -9 6 -27 6 -40 0 -13 5 -24 10 -24 6 0 10 18 10 40 0 30
-4 40 -16 40 -11 0 -14 -5 -10 -16z"/>
<path d="M102 6617 c-22 -7 -31 -15 -27 -24 3 -8 5 -26 5 -39 0 -13 5 -24 10
-24 6 0 10 16 10 35 0 24 5 35 15 35 10 0 15 -10 15 -30 0 -40 16 -38 30 5 18
54 6 63 -58 42z"/>
<path d="M102 6167 c-22 -7 -31 -15 -27 -24 3 -8 5 -26 5 -39 0 -20 5 -24 31
-24 25 0 32 6 45 36 25 60 12 72 -54 51z m26 -39 c-5 -32 -28 -35 -28 -4 0 17
5 26 16 26 10 0 14 -7 12 -22z"/>
<path d="M288 5767 c-68 -15 -61 -31 10 -22 62 8 72 11 72 26 0 11 -18 10 -82
-4z"/>
<path d="M102 5717 c-22 -7 -31 -15 -27 -24 3 -8 5 -26 5 -39 0 -20 5 -24 31
-24 25 0 32 6 45 36 25 60 12 72 -54 51z m26 -39 c-5 -32 -28 -35 -28 -4 0 17
5 26 16 26 10 0 14 -7 12 -22z"/>
<path d="M290 5335 c0 -20 -5 -25 -25 -25 -14 0 -25 -4 -25 -10 0 -5 14 -10
30 -10 20 0 30 -5 30 -15 0 -8 5 -15 10 -15 6 0 10 9 10 19 0 12 8 21 22 23
12 2 23 9 26 17 3 10 -2 13 -22 9 -20 -4 -26 -1 -26 13 0 11 -7 19 -15 19 -9
0 -15 -9 -15 -25z"/>
<path d="M102 5267 c-22 -7 -31 -15 -27 -24 3 -8 5 -26 5 -39 0 -20 5 -24 31
-24 25 0 32 6 45 36 25 60 12 72 -54 51z m26 -39 c-5 -32 -28 -35 -28 -4 0 17
5 26 16 26 10 0 14 -7 12 -22z"/>
<path d="M290 4885 c0 -20 -5 -25 -25 -25 -14 0 -25 -4 -25 -10 0 -5 14 -10
31 -10 39 0 29 -17 -16 -26 -19 -3 -35 -11 -35 -16 0 -6 12 -8 30 -5 16 4 59
9 95 13 74 8 88 24 20 24 -46 0 -63 16 -23 22 12 2 23 9 26 17 3 10 -2 13 -22
9 -20 -4 -26 -1 -26 13 0 11 -7 19 -15 19 -9 0 -15 -9 -15 -25z"/>
<path d="M102 4817 c-22 -7 -31 -15 -27 -24 3 -8 5 -26 5 -39 0 -20 5 -24 31
-24 25 0 32 6 45 36 25 60 12 72 -54 51z m26 -39 c-5 -32 -28 -35 -28 -4 0 17
5 26 16 26 10 0 14 -7 12 -22z"/>
<path d="M290 4435 c0 -20 -5 -25 -25 -25 -14 0 -25 -4 -25 -10 0 -5 14 -10
31 -10 39 0 29 -17 -16 -26 -38 -7 -48 -24 -15 -24 11 0 23 -7 26 -15 9 -23
37 -19 31 4 -5 20 24 31 84 31 16 0 29 5 29 10 0 6 -20 10 -45 10 -46 0 -63
16 -23 22 12 2 23 9 26 17 3 10 -2 13 -22 9 -20 -4 -26 -1 -26 13 0 11 -7 19
-15 19 -9 0 -15 -9 -15 -25z"/>
<path d="M102 4367 c-22 -7 -31 -15 -27 -24 3 -8 5 -26 5 -39 0 -20 5 -24 31
-24 25 0 32 6 45 36 25 60 12 72 -54 51z m26 -39 c-5 -32 -28 -35 -28 -4 0 17
5 26 16 26 10 0 14 -7 12 -22z"/>
<path d="M290 3985 c0 -20 -5 -25 -25 -25 -14 0 -25 -4 -25 -10 0 -5 14 -10
31 -10 39 0 29 -17 -16 -26 -38 -7 -48 -24 -15 -24 11 0 23 -7 26 -15 9 -23
37 -19 31 5 -3 13 0 20 9 20 8 0 14 -7 14 -15 0 -22 21 -18 27 5 4 14 14 20
34 20 16 0 29 5 29 10 0 6 -20 10 -45 10 -46 0 -63 16 -23 22 12 2 23 9 26 17
3 10 -2 13 -22 9 -20 -4 -26 -1 -26 13 0 11 -7 19 -15 19 -9 0 -15 -9 -15 -25z"/>
<path d="M102 3917 c-22 -7 -31 -15 -27 -24 3 -8 5 -26 5 -39 0 -20 5 -24 31
-24 25 0 32 6 45 36 25 60 12 72 -54 51z m26 -39 c-5 -32 -28 -35 -28 -4 0 17
5 26 16 26 10 0 14 -7 12 -22z"/>
<path d="M290 3535 c0 -20 -5 -25 -25 -25 -14 0 -25 -4 -25 -10 0 -5 14 -10
31 -10 39 0 29 -17 -16 -26 -38 -7 -48 -24 -14 -24 12 0 23 -8 26 -20 6 -21
27 -25 82 -14 31 7 43 24 16 24 -8 0 -15 7 -15 15 0 10 10 15 30 15 17 0 30 5
30 10 0 6 -20 10 -45 10 -46 0 -63 16 -23 22 12 2 23 9 26 17 3 10 -2 13 -22
9 -20 -4 -26 -1 -26 13 0 11 -7 19 -15 19 -9 0 -15 -9 -15 -25z m30 -94 c0
-17 -18 -21 -24 -6 -3 9 0 15 9 15 8 0 15 -4 15 -9z"/>
<path d="M102 3467 c-22 -7 -31 -15 -27 -24 3 -8 5 -26 5 -39 0 -20 5 -24 31
-24 25 0 32 6 45 36 25 60 12 72 -54 51z m26 -39 c-5 -32 -28 -35 -28 -4 0 17
5 26 16 26 10 0 14 -7 12 -22z"/>
<path d="M290 3085 c0 -20 -5 -25 -25 -25 -14 0 -25 -4 -25 -10 0 -5 14 -10
31 -10 39 0 29 -17 -16 -26 -38 -7 -48 -24 -14 -24 12 0 23 -8 26 -20 6 -21
27 -25 82 -14 31 7 43 24 16 24 -8 0 -15 7 -15 15 0 10 10 15 30 15 17 0 30 5
30 10 0 6 -20 10 -45 10 -46 0 -63 16 -23 22 12 2 23 9 26 17 3 10 -2 13 -22
9 -20 -4 -26 -1 -26 13 0 11 -7 19 -15 19 -9 0 -15 -9 -15 -25z m30 -94 c0
-17 -18 -21 -24 -6 -3 9 0 15 9 15 8 0 15 -4 15 -9z"/>
<path d="M102 3017 c-22 -7 -31 -15 -27 -24 3 -8 5 -26 5 -39 0 -20 5 -24 31
-24 25 0 32 6 45 36 25 60 12 72 -54 51z m26 -39 c-5 -32 -28 -35 -28 -4 0 17
5 26 16 26 10 0 14 -7 12 -22z"/>
<path d="M278 2933 c-16 -2 -28 -9 -28 -15 0 -7 16 -9 46 -4 26 3 53 6 60 6 8
0 14 5 14 10 0 10 -38 11 -92 3z"/>
<path d="M290 2635 c0 -20 -5 -25 -25 -25 -14 0 -25 -4 -25 -10 0 -5 14 -10
31 -10 39 0 29 -17 -16 -26 -38 -7 -48 -24 -14 -24 12 0 23 -8 26 -20 6 -21
27 -25 82 -14 31 7 43 24 16 24 -8 0 -15 7 -15 15 0 10 10 15 30 15 17 0 30 5
30 10 0 6 -20 10 -45 10 -46 0 -63 16 -23 22 12 2 23 9 26 17 3 10 -2 13 -22
9 -20 -4 -26 -1 -26 13 0 11 -7 19 -15 19 -9 0 -15 -9 -15 -25z m30 -94 c0
-17 -18 -21 -24 -6 -3 9 0 15 9 15 8 0 15 -4 15 -9z"/>
<path d="M102 2567 c-22 -7 -31 -15 -27 -24 3 -8 5 -26 5 -39 0 -20 5 -24 31
-24 25 0 32 6 45 36 25 60 12 72 -54 51z m26 -39 c-5 -32 -28 -35 -28 -4 0 17
5 26 16 26 10 0 14 -7 12 -22z"/>
<path d="M278 2483 c-16 -2 -28 -9 -28 -15 0 -7 16 -9 46 -4 26 3 53 6 60 6 8
0 14 5 14 10 0 10 -38 11 -92 3z"/>
<path d="M296 2449 c-58 -9 -74 -14 -65 -24 11 -10 170 8 166 19 -5 15 -30 16
-101 5z"/>
<path d="M290 2185 c0 -20 -5 -25 -25 -25 -14 0 -25 -4 -25 -10 0 -5 14 -10
31 -10 39 0 29 -17 -16 -26 -38 -7 -48 -24 -14 -24 12 0 23 -8 26 -20 3 -11 9
-20 14 -20 5 0 9 -4 9 -10 0 -5 -9 -10 -20 -10 -31 0 -24 -20 8 -21 24 -1 23
-3 -10 -12 -45 -13 -50 -27 -9 -27 16 0 31 -6 35 -15 8 -22 26 -18 26 5 0 17
7 20 41 20 28 0 39 4 36 13 -2 7 -19 11 -41 10 -20 -1 -36 2 -36 7 0 6 11 10
25 10 34 0 32 18 -2 23 l-28 4 33 8 c32 8 44 25 17 25 -8 0 -15 7 -15 15 0 10
10 15 30 15 17 0 30 5 30 10 0 6 -20 10 -45 10 -46 0 -63 16 -23 22 12 2 23 9
26 17 3 10 -2 13 -22 9 -20 -4 -26 -1 -26 13 0 11 -7 19 -15 19 -9 0 -15 -9
-15 -25z m30 -94 c0 -17 -18 -21 -24 -6 -3 9 0 15 9 15 8 0 15 -4 15 -9z"/>
<path d="M102 2117 c-22 -7 -31 -15 -27 -24 3 -8 5 -26 5 -39 0 -20 5 -24 31
-24 25 0 32 6 45 36 25 60 12 72 -54 51z m26 -39 c-5 -32 -28 -35 -28 -4 0 17
5 26 16 26 10 0 14 -7 12 -22z"/>
<path d="M290 1735 c0 -20 -5 -25 -25 -25 -14 0 -25 -4 -25 -10 0 -5 14 -10
31 -10 39 0 29 -17 -16 -26 -38 -7 -48 -24 -14 -24 12 0 23 -8 26 -20 3 -11 9
-20 14 -20 5 0 9 -4 9 -10 0 -5 -9 -10 -20 -10 -31 0 -24 -20 8 -21 24 -1 23
-3 -10 -12 -45 -13 -50 -27 -9 -27 16 0 31 -6 35 -15 8 -22 26 -18 26 5 0 17
7 20 41 20 28 0 39 4 36 13 -2 7 -19 11 -41 10 -20 -1 -36 2 -36 7 0 6 11 10
25 10 34 0 32 18 -2 23 l-28 4 33 8 c32 8 44 25 17 25 -8 0 -15 7 -15 15 0 10
10 15 30 15 17 0 30 5 30 10 0 6 -20 10 -45 10 -46 0 -63 16 -23 22 12 2 23 9
26 17 3 10 -2 13 -22 9 -20 -4 -26 -1 -26 13 0 11 -7 19 -15 19 -9 0 -15 -9
-15 -25z m30 -94 c0 -17 -18 -21 -24 -6 -3 9 0 15 9 15 8 0 15 -4 15 -9z"/>
<path d="M102 1667 c-22 -7 -31 -15 -27 -24 3 -8 5 -26 5 -39 0 -20 5 -24 31
-24 27 0 33 5 47 41 12 31 17 37 24 25 13 -24 30 -19 26 7 -2 18 -10 22 -38
23 -19 1 -50 -3 -68 -9z m26 -39 c-5 -32 -28 -35 -28 -4 0 17 5 26 16 26 10 0
14 -7 12 -22z"/>
<path d="M290 1285 c0 -20 -5 -25 -25 -25 -14 0 -25 -4 -25 -10 0 -5 14 -10
31 -10 39 0 29 -17 -16 -26 -38 -7 -48 -24 -14 -24 12 0 23 -8 26 -20 3 -11 9
-20 14 -20 5 0 9 -4 9 -10 0 -5 -9 -10 -20 -10 -31 0 -24 -20 8 -21 24 -1 23
-3 -10 -12 -45 -13 -50 -27 -9 -27 16 0 31 -6 35 -15 8 -22 26 -18 26 5 0 17
7 20 41 20 28 0 39 4 36 13 -2 7 -19 11 -41 10 -20 -1 -36 2 -36 7 0 6 11 10
25 10 34 0 32 18 -2 23 l-28 4 33 8 c32 8 44 25 17 25 -8 0 -15 7 -15 15 0 10
10 15 30 15 17 0 30 5 30 10 0 6 -20 10 -45 10 -46 0 -63 16 -23 22 12 2 23 9
26 17 3 10 -2 13 -22 9 -20 -4 -26 -1 -26 13 0 11 -7 19 -15 19 -9 0 -15 -9
-15 -25z m30 -94 c0 -17 -18 -21 -24 -6 -3 9 0 15 9 15 8 0 15 -4 15 -9z"/>
<path d="M102 1217 c-22 -7 -31 -15 -27 -24 3 -8 5 -26 5 -39 0 -20 5 -24 31
-24 27 0 33 5 47 41 12 31 17 37 24 25 13 -24 30 -19 26 7 -2 18 -10 22 -38
23 -19 1 -50 -3 -68 -9z m26 -39 c-5 -32 -28 -35 -28 -4 0 17 5 26 16 26 10 0
14 -7 12 -22z"/>
<path d="M178 1149 c-22 -12 -24 -33 -3 -25 9 3 15 0 15 -9 0 -21 13 -18 28 5
21 34 -2 51 -40 29z"/>
<path d="M290 835 c0 -20 -5 -25 -25 -25 -14 0 -25 -4 -25 -10 0 -5 14 -10 31
-10 39 0 29 -17 -16 -26 -38 -7 -48 -24 -14 -24 12 0 23 -8 26 -20 3 -11 9
-20 14 -20 5 0 9 -4 9 -10 0 -5 -9 -10 -20 -10 -31 0 -24 -20 8 -21 24 -1 23
-3 -10 -12 -45 -13 -50 -27 -9 -27 16 0 31 -6 35 -15 8 -22 26 -18 26 5 0 17
7 20 41 20 28 0 39 4 36 13 -2 7 -19 11 -41 10 -20 -1 -36 2 -36 7 0 6 11 10
25 10 34 0 32 18 -2 23 l-28 4 33 8 c32 8 44 25 17 25 -8 0 -15 7 -15 15 0 10
10 15 30 15 17 0 30 5 30 10 0 6 -20 10 -45 10 -46 0 -63 16 -23 22 12 2 23 9
26 17 3 10 -2 13 -22 9 -20 -4 -26 -1 -26 13 0 11 -7 19 -15 19 -9 0 -15 -9
-15 -25z m30 -94 c0 -17 -18 -21 -24 -6 -3 9 0 15 9 15 8 0 15 -4 15 -9z"/>
<path d="M102 767 c-22 -7 -31 -15 -27 -24 3 -8 5 -26 5 -39 0 -20 5 -24 31
-24 27 0 33 5 47 41 12 31 17 37 24 25 13 -24 30 -19 26 7 -2 18 -10 22 -38
23 -19 1 -50 -3 -68 -9z m26 -39 c-5 -32 -28 -35 -28 -4 0 17 5 26 16 26 10 0
14 -7 12 -22z"/>
<path d="M178 699 c-22 -12 -24 -33 -2 -25 12 4 14 1 9 -13 -3 -11 -1 -22 5
-26 5 -3 10 -15 10 -26 0 -10 5 -19 11 -19 8 0 10 13 6 37 -4 20 -2 42 4 49
22 27 -9 43 -43 23z"/>
<path d="M290 385 c0 -20 -5 -25 -25 -25 -14 0 -25 -4 -25 -10 0 -5 14 -10 31
-10 39 0 29 -17 -16 -26 -38 -7 -48 -24 -14 -24 12 0 23 -8 26 -20 3 -11 9
-20 14 -20 5 0 9 -4 9 -10 0 -5 -9 -10 -20 -10 -31 0 -24 -20 8 -21 24 -1 23
-3 -10 -12 -45 -13 -50 -27 -9 -27 16 0 31 -6 35 -15 8 -22 26 -18 26 5 0 17
7 20 41 20 28 0 39 4 36 13 -2 7 -19 11 -41 10 -20 -1 -36 2 -36 7 0 6 11 10
25 10 34 0 32 18 -2 23 l-28 4 33 8 c32 8 44 25 17 25 -8 0 -15 7 -15 15 0 10
10 15 30 15 17 0 30 5 30 10 0 6 -20 10 -45 10 -46 0 -63 16 -23 22 12 2 23 9
26 17 3 10 -2 13 -22 9 -20 -4 -26 -1 -26 13 0 11 -7 19 -15 19 -9 0 -15 -9
-15 -25z m30 -94 c0 -17 -18 -21 -24 -6 -3 9 0 15 9 15 8 0 15 -4 15 -9z"/>
<path d="M102 317 c-22 -7 -31 -15 -27 -24 3 -8 5 -26 5 -39 0 -20 5 -24 31
-24 27 0 33 5 47 41 12 31 17 37 24 25 13 -24 30 -19 26 7 -2 18 -10 22 -38
23 -19 1 -50 -3 -68 -9z m26 -39 c-5 -32 -28 -35 -28 -4 0 17 5 26 16 26 10 0
14 -7 12 -22z"/>
<path d="M178 249 c-22 -12 -24 -33 -2 -25 12 4 14 1 9 -13 -3 -11 -1 -22 5
-26 22 -14 10 -35 -21 -35 -20 0 -29 -4 -26 -12 2 -8 17 -12 34 -10 17 2 59
-8 94 -22 65 -27 113 -32 139 -16 22 14 11 19 -67 30 -101 14 -119 23 -127 61
-3 18 -1 37 5 45 22 27 -9 43 -43 23z"/>
</g>
</svg>
