<?xml version="1.0" standalone="no"?>
<!DOCTYPE svg PUBLIC "-//W3C//DTD SVG 20010904//EN"
 "http://www.w3.org/TR/2001/REC-SVG-20010904/DTD/svg10.dtd">
<svg version="1.0" xmlns="http://www.w3.org/2000/svg"
 width="50.000000pt" height="725.000000pt" viewBox="0 0 50.000000 725.000000"
 preserveAspectRatio="xMidYMid meet">
<metadata>
Created by potrace 1.16, written by Peter Selinger 2001-2019
</metadata>
<g transform="translate(0.000000,725.000000) scale(0.100000,-0.100000)"
fill="#000000" stroke="none">
<path d="M84 7039 c3 -17 6 -40 6 -50 0 -11 5 -19 10 -19 6 0 10 23 10 50 0
39 -3 50 -16 50 -13 0 -15 -7 -10 -31z"/>
<path d="M130 6620 c0 -5 4 -10 8 -10 4 0 6 -16 4 -35 -6 -47 14 -45 27 3 15
51 14 52 -14 52 -14 0 -25 -4 -25 -10z"/>
<path d="M86 6573 c3 -27 8 -50 10 -52 7 -8 11 4 16 52 5 42 3 47 -14 47 -17
0 -19 -5 -12 -47z"/>
<path d="M130 6170 c0 -5 4 -10 8 -10 5 0 7 -13 4 -30 -3 -18 -10 -30 -19 -30
-12 0 -14 8 -10 35 5 30 3 35 -14 35 -18 0 -20 -4 -13 -47 3 -27 7 -49 8 -49
0 -1 15 1 33 3 27 4 33 10 42 48 14 57 15 55 -14 55 -14 0 -25 -4 -25 -10z"/>
<path d="M274 5805 c3 -9 6 -34 6 -56 0 -28 4 -39 15 -39 11 0 15 12 17 40 0
22 1 46 2 53 1 6 -10 14 -23 15 -19 3 -22 0 -17 -13z"/>
<path d="M130 5720 c0 -5 4 -10 8 -10 5 0 7 -13 4 -30 -3 -18 -10 -30 -19 -30
-12 0 -14 8 -10 35 5 30 3 35 -14 35 -18 0 -20 -4 -13 -47 3 -27 7 -49 8 -49
0 -1 15 1 33 3 27 4 33 10 42 48 14 57 15 55 -14 55 -14 0 -25 -4 -25 -10z"/>
<path d="M274 5355 c3 -9 6 -34 6 -56 0 -28 4 -39 15 -39 11 0 15 12 17 40 0
22 1 46 2 53 1 6 -10 14 -23 15 -19 3 -22 0 -17 -13z"/>
<path d="M220 5312 c0 -10 22 -32 32 -32 4 0 8 9 8 20 0 13 -7 20 -20 20 -11
0 -20 -4 -20 -8z"/>
<path d="M130 5270 c0 -5 4 -10 8 -10 5 0 7 -13 4 -30 -3 -18 -10 -30 -19 -30
-12 0 -14 8 -10 35 5 30 3 35 -14 35 -18 0 -20 -4 -13 -47 3 -27 7 -49 8 -49
0 -1 15 1 33 3 27 4 33 10 42 48 14 57 15 55 -14 55 -14 0 -25 -4 -25 -10z"/>
<path d="M274 4905 c3 -9 6 -34 6 -56 0 -28 4 -39 15 -39 11 0 15 12 17 40 0
22 1 46 2 53 1 6 -10 14 -23 15 -19 3 -22 0 -17 -13z"/>
<path d="M340 4870 c-6 -12 -10 -24 -7 -26 8 -9 58 19 54 30 -7 20 -36 17 -47
-4z"/>
<path d="M220 4862 c0 -10 22 -32 32 -32 4 0 8 9 8 20 0 13 -7 20 -20 20 -11
0 -20 -4 -20 -8z"/>
<path d="M130 4820 c0 -5 4 -10 8 -10 5 0 7 -13 4 -30 -3 -18 -10 -30 -19 -30
-12 0 -14 8 -10 35 5 30 3 35 -14 35 -18 0 -20 -4 -13 -47 3 -27 7 -49 8 -49
0 -1 15 1 33 3 27 4 33 10 42 48 14 57 15 55 -14 55 -14 0 -25 -4 -25 -10z"/>
<path d="M274 4455 c3 -9 6 -34 6 -56 0 -28 4 -39 15 -39 11 0 15 12 17 40 0
22 1 46 2 53 1 6 -10 14 -23 15 -19 3 -22 0 -17 -13z"/>
<path d="M340 4420 c-6 -12 -10 -24 -7 -26 8 -9 58 19 54 30 -7 20 -36 17 -47
-4z"/>
<path d="M220 4412 c0 -10 22 -32 32 -32 4 0 8 9 8 20 0 13 -7 20 -20 20 -11
0 -20 -4 -20 -8z"/>
<path d="M130 4370 c0 -5 4 -10 8 -10 5 0 7 -13 4 -30 -3 -18 -10 -30 -19 -30
-12 0 -14 8 -10 35 5 30 3 35 -14 35 -18 0 -20 -4 -13 -47 3 -27 7 -49 8 -49
0 -1 15 1 33 3 27 4 33 10 42 48 14 57 15 55 -14 55 -14 0 -25 -4 -25 -10z"/>
<path d="M190 4350 c-14 -34 -9 -46 15 -37 16 7 22 67 6 67 -5 0 -14 -14 -21
-30z"/>
<path d="M278 3969 l5 -52 -40 5 c-36 5 -42 3 -52 -19 -6 -13 -11 -28 -11 -33
0 -18 29 -10 40 10 8 15 21 20 53 20 l42 0 -1 57 c0 50 -3 58 -21 61 -19 3
-20 -1 -15 -49z"/>
<path d="M340 3970 c-6 -12 -10 -24 -7 -26 8 -9 58 19 54 30 -7 20 -36 17 -47
-4z"/>
<path d="M220 3962 c0 -10 22 -32 32 -32 4 0 8 9 8 20 0 13 -7 20 -20 20 -11
0 -20 -4 -20 -8z"/>
<path d="M130 3920 c0 -5 4 -10 8 -10 5 0 7 -13 4 -30 -3 -18 -10 -30 -19 -30
-12 0 -14 8 -10 35 5 30 3 35 -14 35 -18 0 -20 -4 -13 -47 3 -27 7 -49 8 -49
0 -1 15 1 33 3 27 4 33 10 42 48 14 57 15 55 -14 55 -14 0 -25 -4 -25 -10z"/>
<path d="M330 3920 c0 -5 11 -10 25 -10 16 0 25 -6 25 -16 0 -13 6 -15 27 -9
36 9 38 12 23 30 -14 17 -100 21 -100 5z"/>
<path d="M278 3519 l5 -52 -40 5 c-36 5 -42 3 -52 -19 -6 -13 -11 -28 -11 -33
0 -18 29 -10 40 10 8 15 21 20 53 20 l42 0 -1 57 c0 50 -3 58 -21 61 -19 3
-20 -1 -15 -49z"/>
<path d="M340 3520 c-6 -12 -10 -24 -7 -26 8 -9 58 19 54 30 -7 20 -36 17 -47
-4z"/>
<path d="M220 3512 c0 -10 22 -32 32 -32 4 0 8 9 8 20 0 13 -7 20 -20 20 -11
0 -20 -4 -20 -8z"/>
<path d="M130 3470 c0 -5 4 -10 8 -10 5 0 7 -13 4 -30 -3 -18 -10 -30 -19 -30
-12 0 -14 8 -10 35 5 30 3 35 -14 35 -18 0 -20 -4 -13 -47 3 -27 7 -49 8 -49
0 -1 15 1 33 3 27 4 33 10 42 48 14 57 15 55 -14 55 -14 0 -25 -4 -25 -10z"/>
<path d="M330 3470 c0 -5 11 -10 25 -10 16 0 25 -6 25 -16 0 -13 6 -15 27 -9
36 9 38 12 23 30 -14 17 -100 21 -100 5z"/>
<path d="M245 3403 c8 -32 13 -39 21 -30 10 9 -5 57 -17 57 -7 0 -9 -10 -4
-27z"/>
<path d="M278 3069 l5 -52 -40 5 c-36 5 -42 3 -52 -19 -6 -13 -11 -28 -11 -33
0 -18 29 -10 40 10 8 15 21 20 53 20 l42 0 -1 57 c0 50 -3 58 -21 61 -19 3
-20 -1 -15 -49z"/>
<path d="M340 3070 c-6 -12 -10 -24 -7 -26 8 -9 58 19 54 30 -7 20 -36 17 -47
-4z"/>
<path d="M220 3062 c0 -10 22 -32 32 -32 4 0 8 9 8 20 0 13 -7 20 -20 20 -11
0 -20 -4 -20 -8z"/>
<path d="M130 3020 c0 -5 4 -10 8 -10 5 0 7 -13 4 -30 -3 -18 -10 -30 -19 -30
-12 0 -14 8 -10 35 5 30 3 35 -14 35 -18 0 -20 -4 -13 -47 3 -27 7 -49 8 -49
0 -1 15 1 33 3 27 4 33 10 42 48 14 57 15 55 -14 55 -14 0 -25 -4 -25 -10z"/>
<path d="M330 3020 c0 -5 11 -10 25 -10 16 0 25 -6 25 -16 0 -13 6 -15 27 -9
36 9 38 12 23 30 -14 17 -100 21 -100 5z"/>
<path d="M300 2980 c0 -5 5 -10 10 -10 6 0 10 -7 10 -15 0 -8 4 -15 9 -15 14
0 33 28 26 40 -8 13 -55 13 -55 0z"/>
<path d="M245 2953 c11 -46 18 -46 29 0 5 23 3 27 -15 27 -18 0 -20 -4 -14
-27z"/>
<path d="M278 2619 l5 -52 -40 5 c-36 5 -42 3 -52 -19 -6 -13 -11 -28 -11 -33
0 -18 29 -10 40 10 8 15 21 20 53 20 l42 0 -1 57 c0 50 -3 58 -21 61 -19 3
-20 -1 -15 -49z"/>
<path d="M340 2620 c-6 -12 -10 -24 -7 -26 8 -9 58 19 54 30 -7 20 -36 17 -47
-4z"/>
<path d="M220 2612 c0 -10 22 -32 32 -32 4 0 8 9 8 20 0 13 -7 20 -20 20 -11
0 -20 -4 -20 -8z"/>
<path d="M130 2570 c0 -5 4 -10 8 -10 5 0 7 -13 4 -30 -3 -18 -10 -30 -19 -30
-12 0 -14 8 -10 35 5 30 3 35 -14 35 -18 0 -20 -4 -13 -47 3 -27 7 -49 8 -49
0 -1 15 1 33 3 27 4 33 10 42 48 14 57 15 55 -14 55 -14 0 -25 -4 -25 -10z"/>
<path d="M330 2570 c0 -5 11 -10 25 -10 16 0 25 -6 25 -16 0 -13 6 -15 27 -9
36 9 38 12 23 30 -14 17 -100 21 -100 5z"/>
<path d="M300 2531 c0 -5 5 -11 12 -13 18 -6 0 -28 -23 -28 -16 0 -19 5 -14
20 5 16 2 20 -15 20 -18 0 -21 -4 -16 -22 3 -13 6 -27 6 -32 0 -5 18 -6 41 -3
39 5 72 31 65 52 -3 13 -56 19 -56 6z"/>
<path d="M278 2169 l5 -52 -40 5 c-36 5 -42 3 -52 -19 -6 -13 -11 -28 -11 -33
0 -18 29 -10 40 10 8 15 21 20 53 20 l42 0 -1 57 c0 50 -3 58 -21 61 -19 3
-20 -1 -15 -49z"/>
<path d="M340 2170 c-6 -12 -10 -24 -7 -26 8 -9 58 19 54 30 -7 20 -36 17 -47
-4z"/>
<path d="M220 2162 c0 -10 22 -32 32 -32 4 0 8 9 8 20 0 13 -7 20 -20 20 -11
0 -20 -4 -20 -8z"/>
<path d="M130 2120 c0 -5 4 -10 8 -10 5 0 7 -13 4 -30 -3 -18 -10 -30 -19 -30
-12 0 -14 8 -10 35 5 30 3 35 -14 35 -18 0 -20 -4 -13 -47 3 -27 7 -49 8 -49
0 -1 15 1 33 3 27 4 33 10 42 48 14 57 15 55 -14 55 -14 0 -25 -4 -25 -10z"/>
<path d="M330 2120 c0 -5 11 -10 25 -10 16 0 25 -6 25 -16 0 -13 6 -15 27 -9
36 9 38 12 23 30 -14 17 -100 21 -100 5z"/>
<path d="M300 2081 c0 -5 5 -11 12 -13 18 -6 0 -28 -23 -28 -16 0 -19 5 -14
20 5 16 2 20 -15 20 -18 0 -21 -4 -16 -22 3 -13 6 -27 6 -32 0 -5 18 -6 41 -3
39 5 72 31 65 52 -3 13 -56 19 -56 6z"/>
<path d="M205 1984 c4 -11 10 -38 12 -61 8 -64 24 -52 21 14 -2 47 -6 58 -22
61 -15 3 -17 0 -11 -14z"/>
<path d="M278 1719 l5 -52 -40 5 c-36 5 -42 3 -52 -19 -6 -13 -11 -28 -11 -33
0 -18 29 -10 40 10 8 15 21 20 53 20 l42 0 -1 57 c0 50 -3 58 -21 61 -19 3
-20 -1 -15 -49z"/>
<path d="M340 1720 c-6 -12 -10 -24 -7 -26 8 -9 58 19 54 30 -7 20 -36 17 -47
-4z"/>
<path d="M220 1712 c0 -10 22 -32 32 -32 4 0 8 9 8 20 0 13 -7 20 -20 20 -11
0 -20 -4 -20 -8z"/>
<path d="M130 1670 c0 -5 4 -10 8 -10 5 0 7 -13 4 -30 -3 -18 -10 -30 -19 -30
-12 0 -14 8 -10 35 5 30 3 35 -14 35 -18 0 -20 -4 -13 -47 3 -27 7 -49 8 -49
0 -1 15 1 33 3 27 4 33 10 42 48 14 57 15 55 -14 55 -14 0 -25 -4 -25 -10z"/>
<path d="M330 1670 c0 -5 11 -10 25 -10 16 0 25 -6 25 -16 0 -13 6 -15 27 -9
36 9 38 12 23 30 -14 17 -100 21 -100 5z"/>
<path d="M300 1631 c0 -5 5 -11 12 -13 18 -6 0 -28 -23 -28 -16 0 -19 5 -14
20 5 16 2 20 -15 20 -18 0 -21 -4 -16 -22 3 -13 6 -27 6 -32 0 -5 18 -6 41 -3
39 5 72 31 65 52 -3 13 -56 19 -56 6z"/>
<path d="M328 1563 c-37 -6 -36 -23 2 -23 28 0 30 -3 30 -35 0 -19 -4 -35 -10
-35 -5 0 -10 -11 -10 -25 0 -29 25 -34 38 -7 5 9 12 40 16 68 5 42 3 53 -10
58 -8 3 -19 5 -22 5 -4 -1 -19 -4 -34 -6z"/>
<path d="M205 1533 c4 -10 10 -37 12 -60 8 -59 23 -54 23 7 0 47 2 50 25 50
14 0 25 5 25 10 0 6 -21 10 -46 10 -40 0 -45 -2 -39 -17z"/>
<path d="M278 1269 l5 -52 -40 5 c-36 5 -42 3 -52 -19 -6 -13 -11 -28 -11 -33
0 -18 29 -10 40 10 8 15 21 20 53 20 l42 0 -1 57 c0 50 -3 58 -21 61 -19 3
-20 -1 -15 -49z"/>
<path d="M340 1270 c-6 -12 -10 -24 -7 -26 8 -9 58 19 54 30 -7 20 -36 17 -47
-4z"/>
<path d="M220 1262 c0 -10 22 -32 32 -32 4 0 8 9 8 20 0 13 -7 20 -20 20 -11
0 -20 -4 -20 -8z"/>
<path d="M130 1220 c0 -5 4 -10 8 -10 5 0 7 -13 4 -30 -3 -18 -10 -30 -19 -30
-12 0 -14 8 -10 35 5 30 3 35 -14 35 -18 0 -20 -4 -13 -47 3 -27 7 -49 8 -49
0 -1 15 1 33 3 27 4 33 10 42 48 14 57 15 55 -14 55 -14 0 -25 -4 -25 -10z"/>
<path d="M330 1220 c0 -5 11 -10 25 -10 16 0 25 -6 25 -16 0 -13 6 -15 27 -9
36 9 38 12 23 30 -14 17 -100 21 -100 5z"/>
<path d="M300 1181 c0 -5 5 -11 12 -13 18 -6 0 -28 -23 -28 -16 0 -19 5 -14
20 5 16 2 20 -15 20 -18 0 -21 -4 -16 -22 3 -13 6 -27 6 -32 0 -5 18 -6 41 -3
39 5 72 31 65 52 -3 13 -56 19 -56 6z"/>
<path d="M328 1113 c-37 -6 -36 -23 2 -23 42 0 37 -16 -7 -24 -55 -9 -83 -7
-83 4 0 6 11 10 25 10 14 0 25 5 25 10 0 6 -21 10 -46 10 -40 0 -45 -2 -39
-17 4 -10 10 -37 12 -60 6 -49 23 -58 23 -13 0 26 3 30 29 30 16 0 43 3 60 6
24 5 31 3 31 -10 0 -9 -4 -16 -10 -16 -5 0 -10 -11 -10 -25 0 -29 25 -34 38
-7 5 9 12 40 16 68 5 42 3 53 -10 58 -8 3 -19 5 -22 5 -4 -1 -19 -4 -34 -6z"/>
<path d="M278 819 l5 -52 -40 5 c-36 5 -42 3 -52 -19 -6 -13 -11 -28 -11 -33
0 -18 29 -10 40 10 8 15 21 20 53 20 l42 0 -1 57 c0 50 -3 58 -21 61 -19 3
-20 -1 -15 -49z"/>
<path d="M340 820 c-6 -12 -10 -24 -7 -26 8 -9 58 19 54 30 -7 20 -36 17 -47
-4z"/>
<path d="M220 812 c0 -10 22 -32 32 -32 4 0 8 9 8 20 0 13 -7 20 -20 20 -11 0
-20 -4 -20 -8z"/>
<path d="M130 770 c0 -5 4 -10 8 -10 5 0 7 -13 4 -30 -3 -18 -10 -30 -19 -30
-12 0 -14 8 -10 35 5 30 3 35 -14 35 -18 0 -20 -4 -13 -47 3 -27 7 -49 8 -49
0 -1 15 1 33 3 27 4 33 10 42 48 14 57 15 55 -14 55 -14 0 -25 -4 -25 -10z"/>
<path d="M330 770 c0 -5 11 -10 25 -10 16 0 25 -6 25 -16 0 -13 6 -15 27 -9
36 9 38 12 23 30 -14 17 -100 21 -100 5z"/>
<path d="M300 731 c0 -5 5 -11 12 -13 18 -6 0 -28 -23 -28 -16 0 -19 5 -14 20
5 16 2 20 -15 20 -18 0 -21 -4 -16 -22 3 -13 6 -27 6 -32 0 -5 18 -6 41 -3 39
5 72 31 65 52 -3 13 -56 19 -56 6z"/>
<path d="M325 660 c-16 -4 -52 -8 -79 -9 -42 -1 -47 -3 -41 -18 4 -10 10 -37
12 -60 6 -49 23 -58 23 -13 0 23 4 30 20 30 11 0 20 -7 20 -15 0 -21 13 -19
28 5 14 23 52 27 52 5 0 -8 -4 -15 -10 -15 -5 0 -10 -11 -10 -25 0 -29 25 -34
38 -7 5 9 12 40 16 68 5 42 3 53 -10 58 -17 7 -17 7 -59 -4z m35 -30 c0 -5
-11 -10 -25 -10 -14 0 -25 5 -25 10 0 6 11 10 25 10 14 0 25 -4 25 -10z m-80
-10 c0 -5 -9 -10 -20 -10 -11 0 -20 5 -20 10 0 6 9 10 20 10 11 0 20 -4 20
-10z"/>
<path d="M278 369 l5 -52 -40 5 c-36 5 -42 3 -52 -19 -6 -13 -11 -28 -11 -33
0 -18 29 -10 40 10 8 15 21 20 53 20 l42 0 -1 57 c0 50 -3 58 -21 61 -19 3
-20 -1 -15 -49z"/>
<path d="M340 370 c-6 -12 -10 -24 -7 -26 8 -9 58 19 54 30 -7 20 -36 17 -47
-4z"/>
<path d="M220 362 c0 -10 22 -32 32 -32 4 0 8 9 8 20 0 13 -7 20 -20 20 -11 0
-20 -4 -20 -8z"/>
<path d="M130 320 c0 -5 4 -10 8 -10 5 0 7 -13 4 -30 -3 -18 -10 -30 -19 -30
-12 0 -14 8 -10 35 5 30 3 35 -14 35 -18 0 -20 -4 -13 -47 3 -27 7 -49 8 -49
0 -1 15 1 33 3 27 4 33 10 42 48 14 57 15 55 -14 55 -14 0 -25 -4 -25 -10z"/>
<path d="M330 320 c0 -5 11 -10 25 -10 16 0 25 -6 25 -16 0 -13 6 -15 27 -9
36 9 38 12 23 30 -14 17 -100 21 -100 5z"/>
<path d="M300 281 c0 -5 5 -11 12 -13 18 -6 0 -28 -23 -28 -16 0 -19 5 -14 20
5 16 2 20 -15 20 -18 0 -21 -4 -16 -22 3 -13 6 -27 6 -32 0 -5 18 -6 41 -3 39
5 72 31 65 52 -3 13 -56 19 -56 6z"/>
<path d="M325 210 c-16 -4 -52 -8 -79 -9 -42 -1 -47 -3 -41 -18 4 -10 10 -37
12 -61 4 -29 10 -42 18 -38 7 2 33 8 59 11 39 6 46 5 46 -9 0 -21 27 -20 38 2
5 9 12 40 16 68 5 42 3 53 -10 58 -17 7 -17 7 -59 -4z m35 -30 c0 -5 -11 -10
-25 -10 -14 0 -25 5 -25 10 0 6 11 10 25 10 14 0 25 -4 25 -10z m-80 -10 c0
-5 -9 -10 -20 -10 -11 0 -20 5 -20 10 0 6 9 10 20 10 11 0 20 -4 20 -10z m80
-35 c0 -10 -10 -15 -31 -15 -27 0 -30 2 -19 15 7 8 21 15 31 15 11 0 19 -7 19
-15z m-82 -7 c-7 -19 -38 -22 -38 -4 0 10 9 16 21 16 12 0 19 -5 17 -12z"/>
</g>
</svg>
