<?xml version="1.0" standalone="no"?>
<!DOCTYPE svg PUBLIC "-//W3C//DTD SVG 20010904//EN"
 "http://www.w3.org/TR/2001/REC-SVG-20010904/DTD/svg10.dtd">
<svg version="1.0" xmlns="http://www.w3.org/2000/svg"
 width="95.000000pt" height="725.000000pt" viewBox="0 0 95.000000 725.000000"
 preserveAspectRatio="xMidYMid meet">
<metadata>
Created by potrace 1.16, written by Peter Selinger 2001-2019
</metadata>
<g transform="translate(0.000000,725.000000) scale(0.100000,-0.100000)"
fill="#000000" stroke="none">
<path d="M270 7145 c0 -18 -5 -25 -20 -25 -11 0 -20 -4 -20 -10 0 -5 9 -10 20
-10 11 0 20 -4 20 -10 0 -11 -20 -14 -57 -11 -13 1 -23 -3 -23 -9 0 -8 -6 -8
-20 0 -15 8 -30 8 -56 -2 -35 -12 -36 -13 -29 -58 7 -48 15 -63 22 -42 3 6 16
12 29 12 19 0 24 5 24 26 0 22 2 24 15 14 16 -13 35 -6 35 14 0 14 30 26 68
26 17 0 22 6 22 25 0 18 5 25 20 25 11 0 20 5 20 10 0 6 -9 10 -20 10 -13 0
-20 7 -20 20 0 11 -7 20 -15 20 -9 0 -15 -9 -15 -25z m-130 -120 c0 -16 -6
-25 -15 -25 -9 0 -15 9 -15 25 0 16 6 25 15 25 9 0 15 -9 15 -25z"/>
<path d="M348 7093 c-35 -5 -37 -23 -2 -23 14 0 23 -4 19 -10 -3 -6 -17 -7
-30 -4 -21 5 -23 3 -22 -27 1 -21 -3 -33 -13 -36 -13 -4 -13 -3 0 7 11 8 12
13 3 16 -7 3 -9 12 -6 20 3 8 -1 14 -11 14 -15 0 -20 -14 -19 -47 1 -7 -3 -13
-8 -13 -5 0 -9 11 -9 25 0 16 -6 25 -16 25 -11 0 -14 -5 -10 -16 3 -9 6 -24 6
-34 0 -15 9 -20 48 -22 l47 -4 -62 -8 c-41 -6 -63 -13 -63 -22 0 -9 10 -11 35
-7 33 5 35 4 35 -21 0 -14 -4 -26 -10 -26 -5 0 -10 9 -10 20 0 11 -7 20 -15
20 -8 0 -15 -6 -15 -14 0 -7 -9 -25 -20 -39 -11 -14 -20 -28 -20 -31 0 -12 21
-5 40 14 19 19 20 19 75 -5 56 -25 90 -30 119 -19 30 12 16 21 -41 27 -31 3
-63 13 -72 21 -14 15 -13 16 8 16 14 0 25 7 28 19 3 11 13 21 24 24 18 5 27
27 12 27 -46 1 -29 77 18 87 16 3 29 11 29 17 0 16 -21 36 -34 35 -6 -1 -23
-4 -38 -6z m-28 -162 c0 -6 -4 -13 -10 -16 -5 -3 -10 1 -10 9 0 9 5 16 10 16
6 0 10 -4 10 -9z"/>
<path d="M530 7048 c0 -34 14 -88 21 -88 10 0 12 60 3 84 -7 19 -24 21 -24 4z"/>
<path d="M560 6617 c-14 -6 -26 -12 -28 -13 -7 -5 11 -94 19 -94 5 0 9 20 9
45 0 33 4 45 15 45 10 0 15 -10 15 -30 0 -41 13 -38 27 7 16 51 -3 65 -57 40z"/>
<path d="M557 6167 c-27 -11 -28 -14 -22 -57 7 -48 15 -63 22 -42 3 6 16 12
29 12 18 0 24 5 24 21 0 11 5 30 11 41 9 16 8 23 -2 29 -17 11 -26 10 -62 -4z
m33 -42 c0 -16 -6 -25 -15 -25 -9 0 -15 9 -15 25 0 16 6 25 15 25 9 0 15 -9
15 -25z"/>
<path d="M708 5773 c-34 -5 -37 -23 -4 -23 38 0 86 12 86 21 0 9 -31 10 -82 2z"/>
<path d="M557 5717 c-27 -11 -28 -14 -22 -57 7 -48 15 -63 22 -42 3 6 16 12
29 12 18 0 24 5 24 21 0 11 5 30 11 41 9 16 8 23 -2 29 -17 11 -26 10 -62 -4z
m33 -42 c0 -16 -6 -25 -15 -25 -9 0 -15 9 -15 25 0 16 6 25 15 25 9 0 15 -9
15 -25z"/>
<path d="M720 5345 c0 -18 -5 -25 -20 -25 -11 0 -20 -4 -20 -10 0 -5 9 -10 20
-10 11 0 20 -7 20 -15 0 -22 21 -18 27 5 3 11 14 20 24 20 11 0 19 5 19 10 0
6 -9 10 -20 10 -13 0 -20 7 -20 20 0 11 -7 20 -15 20 -9 0 -15 -9 -15 -25z"/>
<path d="M557 5267 c-27 -11 -28 -14 -22 -57 7 -48 15 -63 22 -42 3 6 16 12
29 12 18 0 24 5 24 21 0 11 5 30 11 41 9 16 8 23 -2 29 -17 11 -26 10 -62 -4z
m33 -42 c0 -16 -6 -25 -15 -25 -9 0 -15 9 -15 25 0 16 6 25 15 25 9 0 15 -9
15 -25z"/>
<path d="M720 4895 c0 -18 -5 -25 -20 -25 -11 0 -20 -4 -20 -10 0 -5 9 -10 20
-10 11 0 20 -7 20 -15 0 -22 21 -18 27 5 3 11 14 20 24 20 11 0 19 5 19 10 0
6 -9 10 -20 10 -13 0 -20 7 -20 20 0 11 -7 20 -15 20 -9 0 -15 -9 -15 -25z"/>
<path d="M557 4817 c-27 -11 -28 -14 -22 -57 7 -48 15 -63 22 -42 3 6 16 12
29 12 19 0 24 5 24 27 0 21 3 24 12 15 18 -18 27 -15 39 15 11 29 -5 59 -19
36 -5 -8 -13 -9 -22 -3 -18 12 -27 11 -63 -3z m33 -42 c0 -16 -6 -25 -15 -25
-9 0 -15 9 -15 25 0 16 6 25 15 25 9 0 15 -9 15 -25z"/>
<path d="M720 4445 c0 -18 -5 -25 -20 -25 -11 0 -20 -4 -20 -10 0 -5 9 -10 20
-10 11 0 20 -4 20 -10 0 -11 -20 -14 -57 -11 -13 1 -23 -3 -23 -9 0 -8 -6 -8
-20 0 -15 8 -30 8 -56 -2 -35 -12 -36 -13 -29 -58 7 -48 15 -63 22 -42 3 6 16
12 29 12 19 0 24 5 24 26 0 22 2 24 15 14 16 -13 35 -6 35 14 0 14 30 26 68
26 17 0 22 6 22 25 0 18 5 25 20 25 11 0 20 5 20 10 0 6 -9 10 -20 10 -13 0
-20 7 -20 20 0 11 -7 20 -15 20 -9 0 -15 -9 -15 -25z m-130 -120 c0 -16 -6
-25 -15 -25 -9 0 -15 9 -15 25 0 16 6 25 15 25 9 0 15 -9 15 -25z"/>
<path d="M798 4393 c-35 -5 -37 -23 -3 -23 18 0 23 -4 18 -16 -4 -12 0 -14 23
-8 38 9 40 12 28 32 -12 19 -25 21 -66 15z"/>
<path d="M720 3995 c0 -18 -5 -25 -20 -25 -11 0 -20 -4 -20 -10 0 -5 9 -10 20
-10 11 0 20 -4 20 -10 0 -11 -20 -14 -57 -11 -13 1 -23 -3 -23 -9 0 -8 -6 -8
-20 0 -15 8 -30 8 -56 -2 -35 -12 -36 -13 -29 -58 7 -48 15 -63 22 -42 3 6 16
12 29 12 19 0 24 5 24 26 0 22 2 24 15 14 16 -13 35 -6 35 14 0 14 30 26 68
26 17 0 22 6 22 25 0 18 5 25 20 25 11 0 20 5 20 10 0 6 -9 10 -20 10 -13 0
-20 7 -20 20 0 11 -7 20 -15 20 -9 0 -15 -9 -15 -25z m-130 -120 c0 -16 -6
-25 -15 -25 -9 0 -15 9 -15 25 0 16 6 25 15 25 9 0 15 -9 15 -25z"/>
<path d="M798 3943 c-35 -5 -37 -23 -3 -23 18 0 23 -4 18 -16 -4 -12 0 -14 23
-8 38 9 40 12 28 32 -12 19 -25 21 -66 15z"/>
<path d="M674 3874 c3 -9 6 -24 6 -35 0 -10 5 -19 10 -19 6 0 10 16 10 35 0
25 -4 35 -16 35 -11 0 -14 -5 -10 -16z"/>
<path d="M720 3545 c0 -18 -5 -25 -20 -25 -11 0 -20 -4 -20 -10 0 -5 9 -10 20
-10 11 0 20 -4 20 -10 0 -11 -20 -14 -57 -11 -13 1 -23 -3 -23 -9 0 -8 -6 -8
-20 0 -15 8 -30 8 -56 -2 -35 -12 -36 -13 -29 -58 7 -48 15 -63 22 -42 3 6 16
12 29 12 19 0 24 5 24 26 0 22 2 24 15 14 16 -13 35 -6 35 14 0 14 30 26 68
26 17 0 22 6 22 25 0 18 5 25 20 25 11 0 20 5 20 10 0 6 -9 10 -20 10 -13 0
-20 7 -20 20 0 11 -7 20 -15 20 -9 0 -15 -9 -15 -25z m-130 -120 c0 -16 -6
-25 -15 -25 -9 0 -15 9 -15 25 0 16 6 25 15 25 9 0 15 -9 15 -25z"/>
<path d="M798 3493 c-35 -5 -37 -23 -2 -23 14 0 23 -4 19 -10 -3 -6 -16 -8
-28 -5 -20 5 -22 2 -23 -40 -1 -55 19 -61 36 -10 9 28 19 37 41 42 16 3 29 11
29 17 0 16 -21 36 -34 35 -6 -1 -23 -4 -38 -6z"/>
<path d="M720 3440 c0 -5 7 -10 15 -10 8 0 15 5 15 10 0 6 -7 10 -15 10 -8 0
-15 -4 -15 -10z"/>
<path d="M674 3424 c3 -9 6 -24 6 -35 0 -10 5 -19 10 -19 6 0 10 16 10 35 0
25 -4 35 -16 35 -11 0 -14 -5 -10 -16z"/>
<path d="M720 3095 c0 -18 -5 -25 -20 -25 -11 0 -20 -4 -20 -10 0 -5 9 -10 20
-10 11 0 20 -4 20 -10 0 -11 -20 -14 -57 -11 -13 1 -23 -3 -23 -9 0 -8 -6 -8
-20 0 -15 8 -30 8 -56 -2 -35 -12 -36 -13 -29 -58 7 -48 15 -63 22 -42 3 6 16
12 29 12 19 0 24 5 24 26 0 22 2 24 15 14 16 -13 35 -6 35 14 0 14 30 26 68
26 17 0 22 6 22 25 0 18 5 25 20 25 11 0 20 5 20 10 0 6 -9 10 -20 10 -13 0
-20 7 -20 20 0 11 -7 20 -15 20 -9 0 -15 -9 -15 -25z m-130 -120 c0 -16 -6
-25 -15 -25 -9 0 -15 9 -15 25 0 16 6 25 15 25 9 0 15 -9 15 -25z"/>
<path d="M798 3043 c-35 -5 -37 -23 -2 -23 14 0 23 -4 19 -10 -3 -6 -16 -8
-28 -5 -20 5 -22 2 -23 -40 -1 -55 19 -61 36 -10 9 28 19 37 41 42 16 3 29 11
29 17 0 16 -21 36 -34 35 -6 -1 -23 -4 -38 -6z"/>
<path d="M720 2990 c0 -5 7 -10 15 -10 8 0 15 5 15 10 0 6 -7 10 -15 10 -8 0
-15 -4 -15 -10z"/>
<path d="M674 2974 c3 -9 6 -24 6 -35 0 -10 5 -19 10 -19 6 0 10 16 10 35 0
25 -4 35 -16 35 -11 0 -14 -5 -10 -16z"/>
<path d="M710 2960 c0 -5 11 -10 25 -10 14 0 25 5 25 10 0 6 -11 10 -25 10
-14 0 -25 -4 -25 -10z"/>
<path d="M720 2645 c0 -18 -5 -25 -20 -25 -11 0 -20 -4 -20 -10 0 -5 9 -10 20
-10 11 0 20 -4 20 -10 0 -11 -20 -14 -57 -11 -13 1 -23 -3 -23 -9 0 -8 -6 -8
-20 0 -15 8 -30 8 -56 -2 -35 -12 -36 -13 -29 -58 7 -48 15 -63 22 -42 3 6 16
12 29 12 19 0 24 5 24 26 0 22 2 24 15 14 16 -13 35 -6 35 14 0 14 30 26 68
26 17 0 22 6 22 25 0 18 5 25 20 25 11 0 20 5 20 10 0 6 -9 10 -20 10 -13 0
-20 7 -20 20 0 11 -7 20 -15 20 -9 0 -15 -9 -15 -25z m-130 -120 c0 -16 -6
-25 -15 -25 -9 0 -15 9 -15 25 0 16 6 25 15 25 9 0 15 -9 15 -25z"/>
<path d="M798 2593 c-35 -5 -37 -23 -2 -23 14 0 23 -4 19 -10 -3 -6 -16 -8
-28 -5 -20 5 -22 2 -23 -40 -1 -55 19 -61 36 -10 9 28 19 37 41 42 16 3 29 11
29 17 0 16 -21 36 -34 35 -6 -1 -23 -4 -38 -6z"/>
<path d="M720 2541 c0 -5 -2 -15 -5 -23 -3 -7 -1 -19 4 -27 8 -12 12 -11 28 4
12 12 14 20 6 22 -7 3 -9 11 -6 19 3 8 -1 14 -11 14 -9 0 -16 -4 -16 -9z"/>
<path d="M674 2524 c3 -9 6 -24 6 -35 0 -10 5 -19 10 -19 6 0 10 16 10 35 0
25 -4 35 -16 35 -11 0 -14 -5 -10 -16z"/>
<path d="M720 2195 c0 -18 -5 -25 -20 -25 -11 0 -20 -4 -20 -10 0 -5 9 -10 20
-10 11 0 20 -4 20 -10 0 -11 -20 -14 -57 -11 -13 1 -23 -3 -23 -9 0 -8 -6 -8
-20 0 -15 8 -30 8 -56 -2 -35 -12 -36 -13 -29 -58 7 -48 15 -63 22 -42 3 6 16
12 29 12 19 0 24 5 24 26 0 22 2 24 15 14 16 -13 35 -6 35 14 0 14 30 26 68
26 17 0 22 6 22 25 0 18 5 25 20 25 11 0 20 5 20 10 0 6 -9 10 -20 10 -13 0
-20 7 -20 20 0 11 -7 20 -15 20 -9 0 -15 -9 -15 -25z m-130 -120 c0 -16 -6
-25 -15 -25 -9 0 -15 9 -15 25 0 16 6 25 15 25 9 0 15 -9 15 -25z"/>
<path d="M798 2143 c-35 -5 -37 -23 -2 -23 14 0 23 -4 19 -10 -3 -6 -17 -7
-30 -4 -21 5 -23 3 -22 -27 1 -21 -3 -33 -13 -36 -13 -4 -13 -3 0 7 11 8 12
13 3 16 -7 3 -9 12 -6 20 3 8 -1 14 -11 14 -15 0 -20 -14 -19 -47 1 -7 -3 -13
-8 -13 -5 0 -9 11 -9 25 0 16 -6 25 -16 25 -11 0 -14 -5 -10 -16 3 -9 6 -24 6
-35 0 -16 7 -19 54 -19 53 0 55 1 66 35 9 28 19 37 41 42 16 3 29 11 29 17 0
16 -21 36 -34 35 -6 -1 -23 -4 -38 -6z"/>
<path d="M720 1745 c0 -18 -5 -25 -20 -25 -11 0 -20 -4 -20 -10 0 -5 9 -10 20
-10 11 0 20 -4 20 -10 0 -11 -20 -14 -57 -11 -13 1 -23 -3 -23 -9 0 -8 -6 -8
-20 0 -15 8 -30 8 -56 -2 -35 -12 -36 -13 -29 -58 7 -48 15 -63 22 -42 3 6 16
12 29 12 19 0 24 5 24 26 0 22 2 24 15 14 16 -13 35 -6 35 14 0 14 30 26 68
26 17 0 22 6 22 25 0 18 5 25 20 25 11 0 20 5 20 10 0 6 -9 10 -20 10 -13 0
-20 7 -20 20 0 11 -7 20 -15 20 -9 0 -15 -9 -15 -25z m-130 -120 c0 -16 -6
-25 -15 -25 -9 0 -15 9 -15 25 0 16 6 25 15 25 9 0 15 -9 15 -25z"/>
<path d="M798 1693 c-35 -5 -37 -23 -2 -23 14 0 23 -4 19 -10 -3 -6 -17 -7
-30 -4 -21 5 -23 3 -22 -27 1 -21 -3 -33 -13 -36 -13 -4 -13 -3 0 7 11 8 12
13 3 16 -7 3 -9 12 -6 20 3 8 -1 14 -11 14 -15 0 -20 -14 -19 -47 1 -7 -3 -13
-8 -13 -5 0 -9 11 -9 25 0 16 -6 25 -16 25 -11 0 -14 -5 -10 -16 3 -9 6 -24 6
-34 0 -15 9 -20 48 -22 l47 -4 -62 -8 c-44 -6 -63 -13 -63 -23 0 -9 7 -12 18
-9 51 15 95 18 101 7 6 -8 15 -9 34 -2 25 10 38 31 20 31 -46 1 -29 77 18 87
16 3 29 11 29 17 0 16 -21 36 -34 35 -6 -1 -23 -4 -38 -6z"/>
<path d="M720 1295 c0 -18 -5 -25 -20 -25 -11 0 -20 -4 -20 -10 0 -5 9 -10 20
-10 11 0 20 -4 20 -10 0 -11 -20 -14 -57 -11 -13 1 -23 -3 -23 -9 0 -8 -6 -8
-20 0 -15 8 -30 8 -56 -2 -35 -12 -36 -13 -29 -58 7 -48 15 -63 22 -42 3 6 16
12 29 12 19 0 24 5 24 26 0 22 2 24 15 14 16 -13 35 -6 35 14 0 14 30 26 68
26 17 0 22 6 22 25 0 18 5 25 20 25 11 0 20 5 20 10 0 6 -9 10 -20 10 -13 0
-20 7 -20 20 0 11 -7 20 -15 20 -9 0 -15 -9 -15 -25z m-130 -120 c0 -16 -6
-25 -15 -25 -9 0 -15 9 -15 25 0 16 6 25 15 25 9 0 15 -9 15 -25z"/>
<path d="M798 1243 c-35 -5 -37 -23 -2 -23 14 0 23 -4 19 -10 -3 -6 -17 -7
-30 -4 -21 5 -23 3 -22 -27 1 -21 -3 -33 -13 -36 -13 -4 -13 -3 0 7 11 8 12
13 3 16 -7 3 -9 12 -6 20 3 8 -1 14 -11 14 -15 0 -20 -14 -19 -47 1 -7 -3 -13
-8 -13 -5 0 -9 11 -9 25 0 16 -6 25 -16 25 -11 0 -14 -5 -10 -16 3 -9 6 -24 6
-34 0 -15 9 -20 48 -22 l47 -4 -62 -8 c-41 -6 -63 -13 -63 -22 0 -9 10 -11 35
-7 35 6 35 5 35 -31 0 -49 18 -46 26 4 6 38 18 52 26 29 4 -13 58 6 58 21 0 5
-3 10 -7 10 -46 1 -29 77 18 87 16 3 29 11 29 17 0 16 -21 36 -34 35 -6 -1
-23 -4 -38 -6z"/>
<path d="M720 845 c0 -18 -5 -25 -20 -25 -11 0 -20 -4 -20 -10 0 -5 9 -10 20
-10 11 0 20 -4 20 -10 0 -11 -20 -14 -57 -11 -13 1 -23 -3 -23 -9 0 -8 -6 -8
-20 0 -15 8 -30 8 -56 -2 -35 -12 -36 -13 -29 -58 7 -48 15 -63 22 -42 3 6 16
12 29 12 19 0 24 5 24 26 0 22 2 24 15 14 16 -13 35 -6 35 14 0 14 30 26 68
26 17 0 22 6 22 25 0 18 5 25 20 25 11 0 20 5 20 10 0 6 -9 10 -20 10 -13 0
-20 7 -20 20 0 11 -7 20 -15 20 -9 0 -15 -9 -15 -25z m-130 -120 c0 -16 -6
-25 -15 -25 -9 0 -15 9 -15 25 0 16 6 25 15 25 9 0 15 -9 15 -25z"/>
<path d="M798 793 c-35 -5 -37 -23 -2 -23 14 0 23 -4 19 -10 -3 -6 -17 -7 -30
-4 -21 5 -23 3 -22 -27 1 -21 -3 -33 -13 -36 -13 -4 -13 -3 0 7 11 8 12 13 3
16 -7 3 -9 12 -6 20 3 8 -1 14 -11 14 -15 0 -20 -14 -19 -47 1 -7 -3 -13 -8
-13 -5 0 -9 11 -9 25 0 16 -6 25 -16 25 -11 0 -14 -5 -10 -16 3 -9 6 -24 6
-34 0 -15 9 -20 48 -22 l47 -4 -62 -8 c-41 -6 -63 -13 -63 -22 0 -9 10 -11 35
-7 35 6 35 5 35 -31 0 -20 5 -36 10 -36 6 0 10 7 10 15 0 9 9 15 21 15 12 0
23 8 26 19 3 11 13 21 24 24 18 5 27 27 12 27 -46 1 -29 77 18 87 16 3 29 11
29 17 0 16 -21 36 -34 35 -6 -1 -23 -4 -38 -6z m-28 -162 c0 -6 -4 -13 -10
-16 -5 -3 -10 1 -10 9 0 9 5 16 10 16 6 0 10 -4 10 -9z"/>
<path d="M720 395 c0 -18 -5 -25 -20 -25 -11 0 -20 -4 -20 -10 0 -5 9 -10 20
-10 11 0 20 -4 20 -10 0 -11 -20 -14 -57 -11 -13 1 -23 -3 -23 -9 0 -8 -6 -8
-20 0 -15 8 -30 8 -56 -2 -35 -12 -36 -13 -29 -58 7 -48 15 -63 22 -42 3 6 16
12 29 12 19 0 24 5 24 26 0 22 2 24 15 14 16 -13 35 -6 35 14 0 14 30 26 68
26 17 0 22 6 22 25 0 18 5 25 20 25 11 0 20 5 20 10 0 6 -9 10 -20 10 -13 0
-20 7 -20 20 0 11 -7 20 -15 20 -9 0 -15 -9 -15 -25z m-130 -120 c0 -16 -6
-25 -15 -25 -9 0 -15 9 -15 25 0 16 6 25 15 25 9 0 15 -9 15 -25z"/>
<path d="M798 343 c-35 -5 -37 -23 -2 -23 14 0 23 -4 19 -10 -3 -6 -17 -7 -30
-4 -21 5 -23 3 -22 -27 1 -21 -3 -33 -13 -36 -13 -4 -13 -3 0 7 11 8 12 13 3
16 -7 3 -9 12 -6 20 3 8 -1 14 -11 14 -15 0 -20 -14 -19 -47 1 -7 -3 -13 -8
-13 -5 0 -9 11 -9 25 0 16 -6 25 -16 25 -11 0 -14 -5 -10 -16 3 -9 6 -24 6
-34 0 -15 9 -20 48 -22 l47 -4 -62 -8 c-41 -6 -63 -13 -63 -22 0 -9 10 -11 35
-7 35 6 35 5 35 -31 0 -20 5 -36 10 -36 6 0 10 7 10 15 0 9 9 15 21 15 12 0
23 8 26 19 3 11 13 21 24 24 18 5 27 27 12 27 -46 1 -29 77 18 87 16 3 29 11
29 17 0 16 -21 36 -34 35 -6 -1 -23 -4 -38 -6z m-28 -162 c0 -6 -4 -13 -10
-16 -5 -3 -10 1 -10 9 0 9 5 16 10 16 6 0 10 -4 10 -9z"/>
<path d="M670 156 c0 -7 -10 -25 -21 -40 -12 -15 -19 -29 -17 -32 11 -10 40
10 53 37 19 36 19 49 0 49 -8 0 -15 -6 -15 -14z"/>
</g>
</svg>
