<?xml version="1.0" standalone="no"?>
<!DOCTYPE svg PUBLIC "-//W3C//DTD SVG 20010904//EN"
 "http://www.w3.org/TR/2001/REC-SVG-20010904/DTD/svg10.dtd">
<svg version="1.0" xmlns="http://www.w3.org/2000/svg"
 width="95.000000pt" height="725.000000pt" viewBox="0 0 95.000000 725.000000"
 preserveAspectRatio="xMidYMid meet">
<metadata>
Created by potrace 1.16, written by Peter Selinger 2001-2019
</metadata>
<g transform="translate(0.000000,725.000000) scale(0.100000,-0.100000)"
fill="#000000" stroke="none">
<path d="M263 7151 c4 -15 -2 -20 -34 -25 -22 -3 -39 -11 -39 -17 0 -8 11 -9
33 -5 17 4 60 10 95 13 68 6 85 23 23 23 -25 0 -41 5 -45 15 -8 23 -39 19 -33
-4z"/>
<path d="M345 7090 c4 -14 2 -20 -9 -20 -10 0 -13 6 -10 15 4 10 0 15 -11 15
-11 0 -16 -7 -15 -22 4 -47 0 -60 -17 -56 -14 3 -17 11 -15 41 3 29 0 37 -13
37 -12 0 -15 -6 -10 -20 4 -11 2 -20 -4 -20 -6 0 -11 7 -11 15 0 8 -7 15 -16
15 -13 0 -15 -6 -9 -27 3 -15 10 -30 14 -33 16 -11 21 -44 9 -52 -10 -6 -10
-10 2 -18 11 -7 6 -10 -22 -10 -46 0 -50 -18 -5 -22 l32 -3 -42 -25 c-46 -27
-57 -46 -20 -35 29 9 107 58 107 68 0 4 25 7 55 7 44 0 55 3 55 16 0 13 -7 15
-37 10 -36 -6 -37 -6 -18 9 16 13 17 17 6 24 -11 7 -11 10 0 15 11 5 11 7 2
12 -19 9 -15 24 6 24 11 0 21 9 24 22 7 26 1 38 -19 38 -11 0 -13 -6 -9 -20z
m-52 -97 c-7 -2 -19 -2 -25 0 -7 3 -2 5 12 5 14 0 19 -2 13 -5z m4 -29 c-3 -3
-12 -4 -19 -1 -8 3 -5 6 6 6 11 1 17 -2 13 -5z"/>
<path d="M109 7073 c-25 -4 -27 -7 -22 -46 3 -23 7 -43 8 -45 1 -1 16 1 33 4
23 5 34 14 41 37 21 58 16 62 -60 50z m34 -43 c-3 -11 -12 -20 -19 -20 -17 0
-19 37 -1 43 19 7 26 -1 20 -23z"/>
<path d="M534 7054 c3 -9 6 -29 6 -45 0 -16 5 -29 10 -29 6 0 10 20 10 45 0
35 -4 45 -16 45 -11 0 -14 -5 -10 -16z"/>
<path d="M263 6701 c4 -15 -2 -20 -34 -25 -22 -3 -39 -11 -39 -17 0 -8 11 -9
33 -5 17 4 60 10 95 13 68 6 85 23 23 23 -25 0 -41 5 -45 15 -8 23 -39 19 -33
-4z"/>
<path d="M345 6640 c4 -14 2 -20 -9 -20 -10 0 -13 6 -10 15 4 10 0 15 -11 15
-11 0 -16 -7 -15 -22 4 -47 0 -60 -17 -56 -14 3 -17 11 -15 41 3 29 0 37 -13
37 -12 0 -15 -6 -10 -20 4 -11 2 -20 -4 -20 -6 0 -11 7 -11 15 0 8 -7 15 -16
15 -13 0 -15 -6 -9 -27 3 -15 10 -30 14 -33 16 -11 21 -44 9 -52 -10 -6 -10
-10 2 -18 11 -7 6 -10 -22 -10 -46 0 -50 -18 -5 -22 l32 -3 -42 -25 c-24 -14
-43 -28 -43 -32 0 -11 6 -10 46 7 l36 15 -6 -35 c-8 -42 6 -45 49 -10 33 27
29 43 -5 25 -21 -11 -22 -11 -16 15 11 43 30 55 85 55 40 0 51 3 51 16 0 13
-7 15 -37 10 -36 -6 -37 -6 -18 9 16 13 17 17 6 24 -11 7 -11 10 0 15 11 5 11
7 2 12 -19 9 -15 24 6 24 11 0 21 9 24 22 7 26 1 38 -19 38 -11 0 -13 -6 -9
-20z m-52 -97 c-7 -2 -19 -2 -25 0 -7 3 -2 5 12 5 14 0 19 -2 13 -5z m4 -29
c-3 -3 -12 -4 -19 -1 -8 3 -5 6 6 6 11 1 17 -2 13 -5z"/>
<path d="M109 6623 c-25 -4 -27 -7 -22 -46 3 -23 7 -43 8 -45 1 -1 16 1 33 4
23 5 34 14 41 37 21 58 16 62 -60 50z m34 -43 c-3 -11 -12 -20 -19 -20 -17 0
-19 37 -1 43 19 7 26 -1 20 -23z"/>
<path d="M557 6623 c-21 -3 -27 -9 -23 -20 3 -8 6 -28 6 -44 0 -16 5 -29 10
-29 6 0 10 16 10 35 0 32 7 40 27 33 4 -2 6 -13 5 -25 -5 -31 16 -29 28 3 21
54 14 58 -63 47z"/>
<path d="M263 6251 c4 -15 -2 -20 -34 -25 -22 -3 -39 -11 -39 -17 0 -8 11 -9
33 -5 17 4 60 10 95 13 68 6 85 23 23 23 -25 0 -41 5 -45 15 -8 23 -39 19 -33
-4z"/>
<path d="M345 6190 c4 -14 2 -20 -9 -20 -10 0 -13 6 -10 15 4 10 0 15 -11 15
-11 0 -16 -7 -15 -22 4 -47 0 -60 -17 -56 -14 3 -17 11 -15 41 3 29 0 37 -13
37 -12 0 -15 -6 -10 -20 4 -11 2 -20 -4 -20 -6 0 -11 7 -11 15 0 8 -7 15 -16
15 -13 0 -15 -6 -9 -27 3 -15 10 -30 14 -33 16 -11 21 -44 9 -52 -10 -6 -10
-10 2 -18 11 -7 6 -10 -22 -10 -46 0 -50 -18 -5 -22 l32 -3 -42 -25 c-24 -14
-43 -28 -43 -32 0 -11 6 -10 46 7 l36 15 -6 -35 c-8 -42 6 -45 49 -10 33 27
29 43 -5 25 -21 -11 -22 -11 -16 15 9 35 29 55 56 55 17 0 20 -4 15 -22 -6
-17 -4 -20 10 -15 9 4 19 7 21 7 2 0 4 7 4 15 0 8 7 15 15 15 8 0 15 7 15 16
0 13 -7 15 -37 10 -36 -6 -37 -6 -18 9 16 13 17 17 6 24 -11 7 -11 10 0 15 11
5 11 7 2 12 -19 9 -15 24 6 24 11 0 21 9 24 22 7 26 1 38 -19 38 -11 0 -13 -6
-9 -20z m-52 -97 c-7 -2 -19 -2 -25 0 -7 3 -2 5 12 5 14 0 19 -2 13 -5z m4
-29 c-3 -3 -12 -4 -19 -1 -8 3 -5 6 6 6 11 1 17 -2 13 -5z"/>
<path d="M109 6173 c-25 -4 -27 -7 -22 -46 3 -23 7 -43 8 -45 1 -1 16 1 33 4
23 5 34 14 41 37 21 58 16 62 -60 50z m34 -43 c-3 -11 -12 -20 -19 -20 -17 0
-19 37 -1 43 19 7 26 -1 20 -23z"/>
<path d="M559 6173 c-25 -4 -27 -7 -22 -46 3 -23 7 -43 8 -45 1 -1 16 1 33 4
23 5 34 14 41 37 21 58 16 62 -60 50z m34 -43 c-3 -11 -12 -20 -19 -20 -17 0
-19 37 -1 43 19 7 26 -1 20 -23z"/>
<path d="M263 5801 c4 -15 -2 -20 -34 -25 -22 -3 -39 -11 -39 -17 0 -8 11 -9
33 -5 17 4 60 10 95 13 68 6 85 23 23 23 -25 0 -41 5 -45 15 -8 23 -39 19 -33
-4z"/>
<path d="M712 5804 c2 -11 11 -20 22 -22 13 -3 17 1 14 14 -2 11 -11 20 -22
22 -13 3 -17 -1 -14 -14z"/>
<path d="M345 5740 c4 -14 2 -20 -9 -20 -10 0 -13 6 -10 15 4 10 0 15 -11 15
-11 0 -16 -7 -15 -22 4 -47 0 -60 -17 -56 -14 3 -17 11 -15 41 3 29 0 37 -13
37 -12 0 -15 -6 -10 -20 4 -11 2 -20 -4 -20 -6 0 -11 7 -11 15 0 8 -7 15 -16
15 -13 0 -15 -6 -9 -27 3 -15 10 -30 14 -33 16 -11 21 -44 9 -52 -10 -6 -10
-10 2 -18 11 -7 6 -10 -22 -10 -46 0 -50 -18 -5 -22 l32 -3 -42 -25 c-24 -14
-43 -28 -43 -32 0 -11 6 -10 46 7 l36 15 -6 -35 c-8 -42 6 -45 49 -10 33 27
29 43 -5 25 -21 -11 -22 -11 -16 15 4 15 13 34 21 41 17 18 58 19 52 2 -2 -7
-14 -12 -25 -10 -31 4 -28 -4 14 -41 50 -44 60 -48 89 -41 36 9 31 19 -15 33
-41 12 -62 32 -42 39 7 2 12 10 12 18 0 8 7 14 15 14 8 0 15 7 15 16 0 13 -7
15 -37 10 -36 -6 -37 -6 -18 9 16 13 17 17 6 24 -11 7 -11 10 0 15 11 5 11 7
2 12 -19 9 -15 24 6 24 11 0 21 9 24 22 7 26 1 38 -19 38 -11 0 -13 -6 -9 -20z
m-52 -97 c-7 -2 -19 -2 -25 0 -7 3 -2 5 12 5 14 0 19 -2 13 -5z m4 -29 c-3 -3
-12 -4 -19 -1 -8 3 -5 6 6 6 11 1 17 -2 13 -5z"/>
<path d="M109 5723 c-25 -4 -27 -7 -22 -46 3 -23 7 -43 8 -45 1 -1 16 1 33 4
23 5 34 14 41 37 21 58 16 62 -60 50z m34 -43 c-3 -11 -12 -20 -19 -20 -17 0
-19 37 -1 43 19 7 26 -1 20 -23z"/>
<path d="M559 5723 c-25 -4 -27 -7 -22 -46 3 -23 7 -43 8 -45 1 -1 16 1 33 4
23 5 34 14 41 37 21 58 16 62 -60 50z m34 -43 c-3 -11 -12 -20 -19 -20 -17 0
-19 37 -1 43 19 7 26 -1 20 -23z"/>
<path d="M713 5351 c4 -15 -2 -20 -34 -25 -22 -3 -39 -11 -39 -17 0 -8 11 -9
33 -5 17 4 60 10 95 13 68 6 85 23 23 23 -25 0 -41 5 -45 15 -8 23 -39 19 -33
-4z"/>
<path d="M559 5273 c-25 -4 -27 -7 -22 -46 3 -23 7 -43 8 -45 1 -1 16 1 33 4
23 5 34 14 41 37 21 58 16 62 -60 50z m34 -43 c-3 -11 -12 -20 -19 -20 -17 0
-19 37 -1 43 19 7 26 -1 20 -23z"/>
<path d="M713 4901 c4 -15 -2 -20 -34 -25 -22 -3 -39 -11 -39 -17 0 -8 11 -9
33 -5 17 4 60 10 95 13 68 6 85 23 23 23 -25 0 -41 5 -45 15 -8 23 -39 19 -33
-4z"/>
<path d="M655 4813 c8 -32 13 -39 21 -30 10 9 -5 57 -17 57 -7 0 -9 -10 -4
-27z"/>
<path d="M559 4823 c-25 -4 -27 -7 -22 -46 3 -23 7 -43 8 -45 1 -1 16 1 33 4
23 5 34 14 41 37 21 58 16 62 -60 50z m34 -43 c-3 -11 -12 -20 -19 -20 -17 0
-19 37 -1 43 19 7 26 -1 20 -23z"/>
<path d="M713 4451 c4 -15 -2 -20 -34 -25 -22 -3 -39 -11 -39 -17 0 -8 11 -9
33 -5 17 4 60 10 95 13 68 6 85 23 23 23 -25 0 -41 5 -45 15 -8 23 -39 19 -33
-4z"/>
<path d="M694 4384 c3 -9 6 -20 6 -25 0 -5 5 -9 10 -9 6 0 10 11 10 25 0 16
-6 25 -16 25 -11 0 -14 -5 -10 -16z"/>
<path d="M654 4368 c3 -13 6 -26 6 -30 0 -5 5 -8 10 -8 6 0 10 14 10 30 0 21
-5 30 -16 30 -12 0 -15 -6 -10 -22z"/>
<path d="M559 4373 c-25 -4 -27 -7 -22 -46 3 -23 7 -43 8 -45 1 -1 16 1 33 4
23 5 34 14 41 37 21 58 16 62 -60 50z m34 -43 c-3 -11 -12 -20 -19 -20 -17 0
-19 37 -1 43 19 7 26 -1 20 -23z"/>
<path d="M713 4001 c4 -15 -2 -20 -34 -25 -22 -3 -39 -11 -39 -17 0 -8 11 -9
33 -5 17 4 60 10 95 13 68 6 85 23 23 23 -25 0 -41 5 -45 15 -8 23 -39 19 -33
-4z"/>
<path d="M695 3930 c4 -11 2 -20 -4 -20 -6 0 -11 7 -11 15 0 8 -7 15 -16 15
-13 0 -15 -6 -9 -27 8 -34 5 -32 38 -26 22 4 27 11 27 34 0 20 -5 29 -16 29
-11 0 -14 -6 -9 -20z"/>
<path d="M559 3923 c-25 -4 -27 -7 -22 -46 3 -23 7 -43 8 -45 1 -1 16 1 33 4
23 5 34 14 41 37 21 58 16 62 -60 50z m34 -43 c-3 -11 -12 -20 -19 -20 -17 0
-19 37 -1 43 19 7 26 -1 20 -23z"/>
<path d="M713 3551 c4 -15 -2 -20 -34 -25 -22 -3 -39 -11 -39 -17 0 -8 11 -9
33 -5 17 4 60 10 95 13 68 6 85 23 23 23 -25 0 -41 5 -45 15 -8 23 -39 19 -33
-4z"/>
<path d="M695 3480 c4 -11 2 -20 -4 -20 -6 0 -11 7 -11 15 0 8 -7 15 -16 15
-13 0 -15 -6 -9 -27 8 -34 5 -32 38 -26 22 4 27 11 27 34 0 20 -5 29 -16 29
-11 0 -14 -6 -9 -20z"/>
<path d="M750 3480 c0 -11 5 -20 10 -20 6 0 10 9 10 20 0 11 -4 20 -10 20 -5
0 -10 -9 -10 -20z"/>
<path d="M559 3473 c-25 -4 -27 -7 -22 -46 3 -23 7 -43 8 -45 1 -1 16 1 33 4
23 5 34 14 41 37 21 58 16 62 -60 50z m34 -43 c-3 -11 -12 -20 -19 -20 -17 0
-19 37 -1 43 19 7 26 -1 20 -23z"/>
<path d="M713 3101 c4 -15 -2 -20 -34 -25 -22 -3 -39 -11 -39 -17 0 -8 11 -9
33 -5 17 4 60 10 95 13 68 6 85 23 23 23 -25 0 -41 5 -45 15 -8 23 -39 19 -33
-4z"/>
<path d="M795 3038 c10 -32 15 -35 25 -18 13 20 7 34 -14 38 -15 3 -17 -1 -11
-20z"/>
<path d="M695 3030 c4 -11 2 -20 -4 -20 -6 0 -11 7 -11 15 0 8 -7 15 -16 15
-13 0 -15 -6 -9 -27 8 -34 5 -32 38 -26 22 4 27 11 27 34 0 20 -5 29 -16 29
-11 0 -14 -6 -9 -20z"/>
<path d="M750 3030 c0 -24 15 -27 24 -4 9 22 8 24 -9 24 -8 0 -15 -9 -15 -20z"/>
<path d="M559 3023 c-25 -4 -27 -7 -22 -46 3 -23 7 -43 8 -45 1 -1 16 1 33 4
23 5 34 14 41 37 21 58 16 62 -60 50z m34 -43 c-3 -11 -12 -20 -19 -20 -17 0
-19 37 -1 43 19 7 26 -1 20 -23z"/>
<path d="M713 2651 c4 -15 -2 -20 -34 -25 -22 -3 -39 -11 -39 -17 0 -8 11 -9
33 -5 17 4 60 10 95 13 68 6 85 23 23 23 -25 0 -41 5 -45 15 -8 23 -39 19 -33
-4z"/>
<path d="M795 2590 c4 -14 2 -20 -9 -20 -10 0 -13 6 -10 15 4 10 0 15 -11 15
-11 0 -15 -7 -13 -22 4 -34 63 -39 71 -7 7 27 1 39 -19 39 -11 0 -13 -6 -9
-20z"/>
<path d="M695 2580 c4 -11 2 -20 -4 -20 -6 0 -11 7 -11 15 0 8 -7 15 -16 15
-13 0 -15 -6 -9 -27 8 -34 5 -32 38 -26 22 4 27 11 27 34 0 20 -5 29 -16 29
-11 0 -14 -6 -9 -20z"/>
<path d="M559 2573 c-25 -4 -27 -7 -22 -46 3 -23 7 -43 8 -45 1 -1 16 1 33 4
23 5 34 14 41 37 21 58 16 62 -60 50z m34 -43 c-3 -11 -12 -20 -19 -20 -17 0
-19 37 -1 43 19 7 26 -1 20 -23z"/>
<path d="M713 2201 c4 -15 -2 -20 -34 -25 -22 -3 -39 -11 -39 -17 0 -8 11 -9
33 -5 17 4 60 10 95 13 68 6 85 23 23 23 -25 0 -41 5 -45 15 -8 23 -39 19 -33
-4z"/>
<path d="M795 2140 c4 -14 2 -20 -9 -20 -10 0 -13 6 -10 15 4 10 0 15 -11 15
-11 0 -15 -7 -13 -22 4 -34 63 -39 71 -7 7 27 1 39 -19 39 -11 0 -13 -6 -9
-20z"/>
<path d="M695 2130 c4 -11 2 -20 -4 -20 -6 0 -11 7 -11 15 0 8 -7 15 -16 15
-13 0 -15 -6 -9 -27 8 -34 5 -32 38 -26 22 4 27 11 27 34 0 20 -5 29 -16 29
-11 0 -14 -6 -9 -20z"/>
<path d="M559 2123 c-25 -4 -27 -7 -22 -46 3 -23 7 -43 8 -45 1 -1 16 1 33 4
23 5 34 14 41 37 21 58 16 62 -60 50z m34 -43 c-3 -11 -12 -20 -19 -20 -17 0
-19 37 -1 43 19 7 26 -1 20 -23z"/>
<path d="M728 2073 c-41 -5 -53 -23 -14 -23 38 0 86 12 86 21 0 5 -8 8 -17 7
-10 -1 -35 -3 -55 -5z"/>
<path d="M713 1751 c4 -15 -2 -20 -34 -25 -22 -3 -39 -11 -39 -17 0 -8 11 -9
33 -5 17 4 60 10 95 13 68 6 85 23 23 23 -25 0 -41 5 -45 15 -8 23 -39 19 -33
-4z"/>
<path d="M795 1690 c4 -14 2 -20 -9 -20 -10 0 -13 6 -10 15 4 10 0 15 -11 15
-11 0 -15 -7 -13 -22 4 -34 63 -39 71 -7 7 27 1 39 -19 39 -11 0 -13 -6 -9
-20z"/>
<path d="M695 1680 c4 -11 2 -20 -4 -20 -6 0 -11 7 -11 15 0 8 -7 15 -16 15
-13 0 -15 -6 -9 -27 8 -34 5 -32 38 -26 22 4 27 11 27 34 0 20 -5 29 -16 29
-11 0 -14 -6 -9 -20z"/>
<path d="M559 1673 c-25 -4 -27 -7 -22 -46 3 -23 7 -43 8 -45 1 -1 16 1 33 4
23 5 34 14 41 37 21 58 16 62 -60 50z m34 -43 c-3 -11 -12 -20 -19 -20 -17 0
-19 37 -1 43 19 7 26 -1 20 -23z"/>
<path d="M728 1623 c-41 -5 -53 -23 -14 -23 38 0 86 12 86 21 0 5 -8 8 -17 7
-10 -1 -35 -3 -55 -5z"/>
<path d="M755 1595 c-5 -2 -27 -6 -47 -10 -21 -3 -38 -11 -38 -16 0 -6 12 -8
28 -5 15 2 44 7 65 11 20 3 37 10 37 15 0 10 -24 12 -45 5z"/>
<path d="M713 1301 c4 -15 -2 -20 -34 -25 -22 -3 -39 -11 -39 -17 0 -8 11 -9
33 -5 17 4 60 10 95 13 68 6 85 23 23 23 -25 0 -41 5 -45 15 -8 23 -39 19 -33
-4z"/>
<path d="M795 1240 c4 -14 2 -20 -9 -20 -10 0 -13 6 -10 15 4 10 0 15 -11 15
-11 0 -15 -7 -13 -22 4 -34 63 -39 71 -7 7 27 1 39 -19 39 -11 0 -13 -6 -9
-20z"/>
<path d="M695 1230 c4 -11 2 -20 -4 -20 -6 0 -11 7 -11 15 0 8 -7 15 -16 15
-13 0 -15 -6 -9 -27 3 -15 10 -30 14 -33 15 -10 22 -43 10 -51 -9 -5 -8 -12 5
-24 15 -15 18 -16 29 -2 7 8 29 18 50 21 55 10 47 28 -10 22 l-48 -5 48 11
c58 13 62 29 5 26 l-42 -3 3 38 c2 29 -1 37 -14 37 -12 0 -15 -6 -10 -20z"/>
<path d="M559 1223 c-25 -4 -27 -7 -22 -46 3 -23 7 -43 8 -45 1 -1 16 1 33 4
23 5 34 14 41 37 21 58 16 62 -60 50z m34 -43 c-3 -11 -12 -20 -19 -20 -17 0
-19 37 -1 43 19 7 26 -1 20 -23z"/>
<path d="M713 851 c4 -15 -2 -20 -34 -25 -22 -3 -39 -11 -39 -17 0 -8 11 -9
33 -5 17 4 60 10 95 13 68 6 85 23 23 23 -25 0 -41 5 -45 15 -8 23 -39 19 -33
-4z"/>
<path d="M795 790 c4 -14 2 -20 -9 -20 -10 0 -13 6 -10 15 4 10 0 15 -11 15
-11 0 -16 -7 -15 -22 4 -47 0 -60 -17 -56 -14 3 -17 11 -15 41 3 29 0 37 -13
37 -12 0 -15 -6 -10 -20 4 -11 2 -20 -4 -20 -6 0 -11 7 -11 15 0 8 -7 15 -16
15 -13 0 -15 -6 -9 -27 3 -15 10 -30 14 -33 15 -10 22 -43 10 -51 -9 -5 -8
-12 5 -25 17 -16 19 -16 28 -1 10 20 34 23 40 5 3 -7 13 -3 28 12 17 17 20 25
11 28 -11 4 -11 6 0 14 11 7 11 11 2 15 -20 7 -15 23 6 23 11 0 21 9 24 22 7
26 1 38 -19 38 -11 0 -13 -6 -9 -20z m-52 -97 c-7 -2 -19 -2 -25 0 -7 3 -2 5
12 5 14 0 19 -2 13 -5z"/>
<path d="M559 773 c-25 -4 -27 -7 -22 -46 3 -23 7 -43 8 -45 1 -1 16 1 33 4
23 5 34 14 41 37 21 58 16 62 -60 50z m34 -43 c-3 -11 -12 -20 -19 -20 -17 0
-19 37 -1 43 19 7 26 -1 20 -23z"/>
<path d="M713 401 c4 -15 -2 -20 -34 -25 -22 -3 -39 -11 -39 -17 0 -8 11 -9
33 -5 17 4 60 10 95 13 68 6 85 23 23 23 -25 0 -41 5 -45 15 -8 23 -39 19 -33
-4z"/>
<path d="M795 340 c4 -14 2 -20 -9 -20 -10 0 -13 6 -10 15 4 10 0 15 -11 15
-11 0 -16 -7 -15 -22 4 -47 0 -60 -17 -56 -14 3 -17 11 -15 41 3 29 0 37 -13
37 -12 0 -15 -6 -10 -20 4 -11 2 -20 -4 -20 -6 0 -11 7 -11 15 0 8 -7 15 -16
15 -13 0 -15 -6 -9 -27 3 -15 10 -30 14 -33 16 -11 21 -44 9 -52 -10 -6 -10
-10 2 -18 11 -7 6 -10 -22 -10 -22 0 -38 -5 -38 -11 0 -9 22 -10 77 -5 42 3
91 6 110 6 24 0 33 5 33 16 0 13 -7 15 -37 10 -36 -6 -37 -6 -18 10 15 12 17
17 6 21 -11 5 -11 7 0 15 11 7 11 11 2 15 -20 7 -15 23 6 23 11 0 21 9 24 22
7 26 1 38 -19 38 -11 0 -13 -6 -9 -20z m-52 -97 c-7 -2 -19 -2 -25 0 -7 3 -2
5 12 5 14 0 19 -2 13 -5z m4 -29 c-3 -3 -12 -4 -19 -1 -8 3 -5 6 6 6 11 1 17
-2 13 -5z"/>
<path d="M559 323 c-25 -4 -27 -7 -22 -46 3 -23 7 -43 8 -45 1 -1 16 1 33 4
23 5 34 14 41 37 21 58 16 62 -60 50z m34 -43 c-3 -11 -12 -20 -19 -20 -17 0
-19 37 -1 43 19 7 26 -1 20 -23z"/>
</g>
</svg>
