<?xml version="1.0" standalone="no"?>
<!DOCTYPE svg PUBLIC "-//W3C//DTD SVG 20010904//EN"
 "http://www.w3.org/TR/2001/REC-SVG-20010904/DTD/svg10.dtd">
<svg version="1.0" xmlns="http://www.w3.org/2000/svg"
 width="95.000000pt" height="725.000000pt" viewBox="0 0 95.000000 725.000000"
 preserveAspectRatio="xMidYMid meet">
<metadata>
Created by potrace 1.16, written by Peter Selinger 2001-2019
</metadata>
<g transform="translate(0.000000,725.000000) scale(0.100000,-0.100000)"
fill="#000000" stroke="none">
<path d="M275 7152 c-16 -10 -32 -18 -34 -19 -2 -1 4 -9 13 -18 9 -9 16 -21
16 -26 0 -5 7 -9 15 -9 8 0 15 7 15 15 0 8 -4 15 -10 15 -23 0 -8 19 20 25 17
4 30 13 30 21 0 18 -27 16 -65 -4z"/>
<path d="M336 7111 c-10 -11 -15 -25 -11 -30 4 -7 -8 -11 -34 -11 -29 0 -41
-4 -41 -14 0 -8 -3 -21 -6 -30 -5 -14 4 -16 60 -16 59 0 67 3 82 25 19 30 12
45 -24 46 l-27 1 28 11 c15 6 26 16 24 21 -6 19 -33 17 -51 -3z m22 -63 c-3
-7 -12 -14 -21 -16 -12 -2 -15 1 -11 12 7 19 38 22 32 4z m-58 -8 c0 -5 -7
-10 -15 -10 -8 0 -15 5 -15 10 0 6 7 10 15 10 8 0 15 -4 15 -10z"/>
<path d="M212 7093 c4 -22 38 -30 38 -10 0 8 -7 18 -16 21 -23 9 -26 8 -22
-11z"/>
<path d="M142 7061 c1 -33 -9 -54 -23 -46 -12 8 -12 45 1 45 6 0 10 5 10 10 0
6 -11 10 -24 10 -23 0 -24 -3 -19 -37 3 -21 9 -42 13 -47 12 -12 70 3 70 19 0
7 3 27 6 44 6 27 4 31 -14 31 -16 0 -20 -6 -20 -29z"/>
<path d="M537 7043 c5 -36 18 -62 26 -52 10 11 -6 89 -18 89 -10 0 -12 -10 -8
-37z"/>
<path d="M204 7038 c3 -13 6 -26 6 -30 0 -5 5 -8 10 -8 6 0 10 14 10 30 0 21
-5 30 -16 30 -12 0 -15 -6 -10 -22z"/>
<path d="M249 6983 c0 -11 -3 -13 -6 -5 -2 6 -18 12 -34 12 -28 0 -29 -1 -29
-54 0 -30 -3 -61 -6 -70 -10 -26 24 -31 50 -7 17 16 25 18 34 9 16 -16 29 -1
16 20 -8 12 -8 27 3 56 11 32 11 41 1 48 -20 12 -28 10 -29 -9z m-14 -27 c12
-12 12 -15 -3 -18 -12 -4 -18 1 -18 13 0 23 3 23 21 5z m9 -50 c-7 -18 -32
-28 -39 -16 -3 5 3 13 12 19 25 14 33 13 27 -3z"/>
<path d="M275 6702 c-16 -10 -32 -18 -34 -19 -2 -1 4 -9 13 -18 9 -9 16 -21
16 -26 0 -5 7 -9 15 -9 8 0 15 7 15 15 0 8 -4 15 -10 15 -23 0 -8 19 20 25 17
4 30 13 30 21 0 18 -27 16 -65 -4z"/>
<path d="M336 6661 c-10 -11 -15 -25 -11 -30 4 -7 -8 -11 -34 -11 -29 0 -41
-4 -41 -14 0 -8 -3 -21 -6 -30 -5 -14 4 -16 60 -16 59 0 67 3 82 25 19 30 12
45 -24 46 l-27 1 28 11 c15 6 26 16 24 21 -6 19 -33 17 -51 -3z m22 -63 c-3
-7 -12 -14 -21 -16 -12 -2 -15 1 -11 12 7 19 38 22 32 4z m-58 -8 c0 -5 -7
-10 -15 -10 -8 0 -15 5 -15 10 0 6 7 10 15 10 8 0 15 -4 15 -10z"/>
<path d="M212 6643 c4 -22 38 -30 38 -10 0 8 -7 18 -16 21 -23 9 -26 8 -22
-11z"/>
<path d="M142 6611 c1 -33 -9 -54 -23 -46 -12 8 -12 45 1 45 6 0 10 5 10 10 0
6 -11 10 -24 10 -23 0 -24 -3 -19 -37 3 -21 9 -42 13 -47 12 -12 70 3 70 19 0
7 3 27 6 44 6 27 4 31 -14 31 -16 0 -20 -6 -20 -29z"/>
<path d="M592 6600 c-1 -49 22 -55 32 -9 9 46 8 49 -13 49 -15 0 -19 -8 -19
-40z"/>
<path d="M536 6598 c8 -48 12 -58 23 -58 6 0 7 15 4 35 -4 23 -2 35 6 35 6 0
11 5 11 10 0 6 -11 10 -25 10 -22 0 -24 -3 -19 -32z"/>
<path d="M204 6588 c3 -13 6 -26 6 -30 0 -5 5 -8 10 -8 6 0 10 14 10 30 0 21
-5 30 -16 30 -12 0 -15 -6 -10 -22z"/>
<path d="M249 6533 c0 -11 -3 -13 -6 -5 -2 6 -18 12 -34 12 -28 0 -29 -1 -29
-54 0 -30 -3 -61 -6 -70 -10 -26 24 -31 50 -7 17 16 25 18 34 9 16 -16 29 -1
16 20 -8 12 -8 27 3 56 11 32 11 41 1 48 -20 12 -28 10 -29 -9z m-14 -27 c12
-12 12 -15 -3 -18 -12 -4 -18 1 -18 13 0 23 3 23 21 5z m9 -50 c-7 -18 -32
-28 -39 -16 -3 5 3 13 12 19 25 14 33 13 27 -3z"/>
<path d="M370 6520 c0 -5 14 -10 30 -10 17 0 30 5 30 10 0 6 -13 10 -30 10
-16 0 -30 -4 -30 -10z"/>
<path d="M290 6510 c0 -5 16 -10 35 -10 19 0 35 5 35 10 0 6 -16 10 -35 10
-19 0 -35 -4 -35 -10z"/>
<path d="M275 6252 c-16 -10 -32 -18 -34 -19 -2 -1 4 -9 13 -18 9 -9 16 -21
16 -26 0 -5 7 -9 15 -9 8 0 15 7 15 15 0 8 -4 15 -10 15 -23 0 -8 19 20 25 17
4 30 13 30 21 0 18 -27 16 -65 -4z"/>
<path d="M336 6211 c-10 -11 -15 -25 -11 -30 4 -7 -8 -11 -34 -11 -29 0 -41
-4 -41 -14 0 -8 -3 -21 -6 -30 -5 -13 2 -16 44 -16 36 0 52 -4 56 -16 9 -23 8
-24 -24 -24 -16 0 -30 -4 -30 -10 0 -5 14 -10 30 -10 29 0 30 -2 30 -45 0 -34
-4 -45 -16 -45 -19 0 -14 -20 9 -34 25 -16 37 8 37 77 0 54 1 57 25 57 14 0
25 5 25 10 0 6 -11 10 -24 10 -30 0 -38 26 -18 57 17 28 9 43 -26 44 l-27 1
28 11 c15 6 26 16 24 21 -6 19 -33 17 -51 -3z m22 -63 c-3 -7 -12 -14 -21 -16
-12 -2 -15 1 -11 12 7 19 38 22 32 4z m-58 -8 c0 -5 -7 -10 -15 -10 -8 0 -15
5 -15 10 0 6 7 10 15 10 8 0 15 -4 15 -10z"/>
<path d="M212 6193 c4 -22 38 -30 38 -10 0 8 -7 18 -16 21 -23 9 -26 8 -22
-11z"/>
<path d="M142 6161 c1 -33 -9 -54 -23 -46 -12 8 -12 45 1 45 6 0 10 5 10 10 0
6 -11 10 -24 10 -23 0 -24 -3 -19 -37 3 -21 9 -42 13 -47 12 -12 70 3 70 19 0
7 3 27 6 44 6 27 4 31 -14 31 -16 0 -20 -6 -20 -29z"/>
<path d="M592 6161 c1 -33 -9 -54 -23 -46 -12 8 -12 45 1 45 6 0 10 5 10 10 0
6 -11 10 -24 10 -23 0 -24 -3 -19 -37 3 -21 9 -42 13 -47 12 -12 70 3 70 19 0
7 3 27 6 44 6 27 4 31 -14 31 -16 0 -20 -6 -20 -29z"/>
<path d="M204 6138 c3 -13 6 -26 6 -30 0 -5 5 -8 10 -8 6 0 10 14 10 30 0 21
-5 30 -16 30 -12 0 -15 -6 -10 -22z"/>
<path d="M249 6083 c0 -11 -3 -13 -6 -5 -2 6 -18 12 -34 12 -28 0 -29 -1 -29
-54 0 -30 -3 -61 -6 -70 -10 -26 24 -31 50 -7 17 16 25 18 34 9 16 -16 29 -1
16 20 -8 12 -8 27 3 56 11 32 11 41 1 48 -20 12 -28 10 -29 -9z m-14 -27 c12
-12 12 -15 -3 -18 -12 -4 -18 1 -18 13 0 23 3 23 21 5z m9 -50 c-7 -18 -32
-28 -39 -16 -3 5 3 13 12 19 25 14 33 13 27 -3z"/>
<path d="M275 5802 c-16 -10 -32 -18 -34 -19 -2 -1 4 -9 13 -18 9 -9 16 -21
16 -26 0 -5 7 -9 15 -9 8 0 15 7 15 15 0 8 -4 15 -10 15 -23 0 -8 19 20 25 17
4 30 13 30 21 0 18 -27 16 -65 -4z"/>
<path d="M725 5802 c-16 -10 -32 -18 -34 -19 -2 -2 -1 -6 2 -9 11 -11 97 18
97 32 0 18 -28 16 -65 -4z"/>
<path d="M336 5761 c-10 -11 -15 -25 -11 -30 4 -7 -8 -11 -34 -11 -29 0 -41
-4 -41 -14 0 -8 -3 -21 -6 -30 -5 -13 2 -16 44 -16 36 0 52 -4 56 -16 9 -23 8
-24 -24 -24 -16 0 -30 -4 -30 -10 0 -5 14 -10 30 -10 29 0 30 -2 30 -45 0 -34
-4 -45 -16 -45 -19 0 -14 -20 9 -34 25 -16 37 8 37 77 0 54 1 57 25 57 14 0
25 5 25 10 0 6 -11 10 -24 10 -30 0 -38 26 -18 57 17 28 9 43 -26 44 l-27 1
28 11 c15 6 26 16 24 21 -6 19 -33 17 -51 -3z m22 -63 c-3 -7 -12 -14 -21 -16
-12 -2 -15 1 -11 12 7 19 38 22 32 4z m-58 -8 c0 -5 -7 -10 -15 -10 -8 0 -15
5 -15 10 0 6 7 10 15 10 8 0 15 -4 15 -10z"/>
<path d="M212 5743 c4 -22 38 -30 38 -10 0 8 -7 18 -16 21 -23 9 -26 8 -22
-11z"/>
<path d="M142 5711 c1 -33 -9 -54 -23 -46 -12 8 -12 45 1 45 6 0 10 5 10 10 0
6 -11 10 -24 10 -23 0 -24 -3 -19 -37 3 -21 9 -42 13 -47 12 -12 70 3 70 19 0
7 3 27 6 44 6 27 4 31 -14 31 -16 0 -20 -6 -20 -29z"/>
<path d="M592 5711 c1 -33 -9 -54 -23 -46 -12 8 -12 45 1 45 6 0 10 5 10 10 0
6 -11 10 -24 10 -23 0 -24 -3 -19 -37 3 -21 9 -42 13 -47 12 -12 70 3 70 19 0
7 3 27 6 44 6 27 4 31 -14 31 -16 0 -20 -6 -20 -29z"/>
<path d="M204 5688 c3 -13 6 -26 6 -30 0 -5 5 -8 10 -8 6 0 10 14 10 30 0 21
-5 30 -16 30 -12 0 -15 -6 -10 -22z"/>
<path d="M249 5633 c0 -11 -3 -13 -6 -5 -2 6 -18 12 -34 12 -28 0 -29 -1 -29
-54 0 -30 -3 -61 -6 -70 -10 -26 24 -31 50 -7 17 16 25 18 34 9 16 -16 29 -1
16 20 -8 12 -8 27 3 56 11 32 11 41 1 48 -20 12 -28 10 -29 -9z m-14 -27 c12
-12 12 -15 -3 -18 -12 -4 -18 1 -18 13 0 23 3 23 21 5z m9 -50 c-7 -18 -32
-28 -39 -16 -3 5 3 13 12 19 25 14 33 13 27 -3z"/>
<path d="M290 5571 c0 -12 29 -35 36 -28 11 10 -5 37 -21 37 -8 0 -15 -4 -15
-9z"/>
<path d="M725 5352 c-16 -10 -32 -18 -34 -19 -2 -2 -1 -6 2 -9 11 -11 97 18
97 32 0 18 -28 16 -65 -4z"/>
<path d="M662 5293 c4 -22 38 -30 38 -10 0 8 -7 18 -16 21 -23 9 -26 8 -22
-11z"/>
<path d="M592 5261 c1 -33 -9 -54 -23 -46 -12 8 -12 45 1 45 6 0 10 5 10 10 0
6 -11 10 -24 10 -23 0 -24 -3 -19 -37 3 -21 9 -42 13 -47 12 -12 70 3 70 19 0
7 3 27 6 44 6 27 4 31 -14 31 -16 0 -20 -6 -20 -29z"/>
<path d="M725 4902 c-16 -10 -32 -18 -34 -19 -2 -1 4 -9 13 -18 9 -9 16 -21
16 -26 0 -5 7 -9 15 -9 8 0 15 7 15 15 0 8 -4 15 -10 15 -23 0 -8 19 20 25 17
4 30 13 30 21 0 18 -27 16 -65 -4z"/>
<path d="M662 4843 c4 -22 38 -30 38 -10 0 8 -7 18 -16 21 -23 9 -26 8 -22
-11z"/>
<path d="M592 4811 c1 -33 -9 -54 -23 -46 -12 8 -12 45 1 45 6 0 10 5 10 10 0
6 -11 10 -24 10 -23 0 -24 -3 -19 -37 3 -21 9 -42 13 -47 12 -12 70 3 70 19 0
7 3 27 6 44 6 27 4 31 -14 31 -16 0 -20 -6 -20 -29z"/>
<path d="M725 4452 c-16 -10 -32 -18 -34 -19 -2 -1 4 -9 13 -18 9 -9 16 -21
16 -26 0 -5 7 -9 15 -9 8 0 15 7 15 15 0 8 -4 15 -10 15 -23 0 -8 19 20 25 17
4 30 13 30 21 0 18 -27 16 -65 -4z"/>
<path d="M785 4410 c-10 -11 -16 -22 -13 -25 8 -8 68 19 65 30 -6 18 -33 16
-52 -5z"/>
<path d="M662 4393 c4 -22 38 -30 38 -10 0 8 -7 18 -16 21 -23 9 -26 8 -22
-11z"/>
<path d="M592 4361 c1 -33 -9 -54 -23 -46 -12 8 -12 45 1 45 6 0 10 5 10 10 0
6 -11 10 -24 10 -23 0 -24 -3 -19 -37 3 -21 9 -42 13 -47 12 -12 70 3 70 19 0
7 3 27 6 44 6 27 4 31 -14 31 -16 0 -20 -6 -20 -29z"/>
<path d="M725 4002 c-16 -10 -32 -18 -34 -19 -2 -1 4 -9 13 -18 9 -9 16 -21
16 -26 0 -5 7 -9 15 -9 8 0 15 7 15 15 0 8 -4 15 -10 15 -23 0 -8 19 20 25 17
4 30 13 30 21 0 18 -27 16 -65 -4z"/>
<path d="M785 3960 c-10 -11 -16 -22 -13 -25 8 -8 68 19 65 30 -6 18 -33 16
-52 -5z"/>
<path d="M662 3943 c4 -22 38 -30 38 -10 0 8 -7 18 -16 21 -23 9 -26 8 -22
-11z"/>
<path d="M592 3911 c1 -33 -9 -54 -23 -46 -12 8 -12 45 1 45 6 0 10 5 10 10 0
6 -11 10 -24 10 -23 0 -24 -3 -19 -37 3 -21 9 -42 13 -47 12 -12 70 3 70 19 0
7 3 27 6 44 6 27 4 31 -14 31 -16 0 -20 -6 -20 -29z"/>
<path d="M655 3883 c8 -32 13 -39 21 -30 10 9 -5 57 -17 57 -7 0 -9 -10 -4
-27z"/>
<path d="M725 3552 c-16 -10 -32 -18 -34 -19 -2 -1 4 -9 13 -18 9 -9 16 -21
16 -26 0 -5 7 -9 15 -9 8 0 15 7 15 15 0 8 -4 15 -10 15 -23 0 -8 19 20 25 17
4 30 13 30 21 0 18 -27 16 -65 -4z"/>
<path d="M787 3512 c-19 -21 -13 -52 9 -52 10 0 13 -7 8 -25 -8 -32 10 -33 32
0 19 30 12 45 -24 46 l-27 1 28 11 c15 6 26 16 24 21 -6 19 -33 17 -50 -2z"/>
<path d="M660 3494 c0 -9 9 -18 20 -21 11 -3 20 -9 20 -14 0 -5 11 -9 25 -9
14 0 25 5 25 10 0 6 -11 10 -25 10 -15 0 -25 6 -25 14 0 8 -7 17 -16 20 -22 9
-24 8 -24 -10z"/>
<path d="M592 3461 c1 -33 -9 -54 -23 -46 -12 8 -12 45 1 45 6 0 10 5 10 10 0
6 -11 10 -24 10 -23 0 -24 -3 -19 -37 3 -21 9 -42 13 -47 12 -12 70 3 70 19 0
7 3 27 6 44 6 27 4 31 -14 31 -16 0 -20 -6 -20 -29z"/>
<path d="M654 3438 c3 -13 6 -26 6 -30 0 -5 5 -8 10 -8 6 0 10 14 10 30 0 21
-5 30 -16 30 -12 0 -15 -6 -10 -22z"/>
<path d="M725 3102 c-16 -10 -32 -18 -34 -19 -2 -1 4 -9 13 -18 9 -9 16 -21
16 -26 0 -5 7 -9 15 -9 8 0 15 7 15 15 0 8 -4 15 -10 15 -23 0 -8 19 20 25 17
4 30 13 30 21 0 18 -27 16 -65 -4z"/>
<path d="M787 3062 c-19 -21 -13 -52 9 -52 10 0 13 -7 8 -25 -8 -32 10 -33 32
0 19 30 12 45 -24 46 l-27 1 28 11 c15 6 26 16 24 21 -6 19 -33 17 -50 -2z"/>
<path d="M662 3043 c4 -22 38 -30 38 -10 0 8 -7 18 -16 21 -23 9 -26 8 -22
-11z"/>
<path d="M592 3011 c1 -33 -9 -54 -23 -46 -12 8 -12 45 1 45 6 0 10 5 10 10 0
6 -11 10 -24 10 -23 0 -24 -3 -19 -37 3 -21 9 -42 13 -47 12 -12 70 3 70 19 0
7 3 27 6 44 6 27 4 31 -14 31 -16 0 -20 -6 -20 -29z"/>
<path d="M700 2995 c0 -14 5 -25 10 -25 6 0 10 7 10 15 0 8 7 15 15 15 8 0 15
5 15 10 0 6 -11 10 -25 10 -20 0 -25 -5 -25 -25z"/>
<path d="M654 2988 c3 -13 6 -26 6 -30 0 -5 5 -8 10 -8 6 0 10 14 10 30 0 21
-5 30 -16 30 -12 0 -15 -6 -10 -22z"/>
<path d="M725 2652 c-16 -10 -32 -18 -34 -19 -2 -1 4 -9 13 -18 9 -9 16 -21
16 -26 0 -5 7 -9 15 -9 8 0 15 7 15 15 0 8 -4 15 -10 15 -23 0 -8 19 20 25 17
4 30 13 30 21 0 18 -27 16 -65 -4z"/>
<path d="M786 2611 c-10 -11 -15 -25 -11 -30 4 -7 -8 -11 -34 -11 -37 0 -41
-2 -41 -25 0 -14 5 -25 10 -25 6 0 10 7 10 15 0 8 7 15 15 15 8 0 15 -7 15
-15 0 -22 18 -18 25 5 10 31 37 26 29 -5 -8 -32 10 -33 32 0 19 30 12 45 -24
46 l-27 1 28 11 c15 6 26 16 24 21 -6 19 -33 17 -51 -3z"/>
<path d="M662 2593 c4 -22 38 -30 38 -10 0 8 -7 18 -16 21 -23 9 -26 8 -22
-11z"/>
<path d="M592 2561 c1 -33 -9 -54 -23 -46 -12 8 -12 45 1 45 6 0 10 5 10 10 0
6 -11 10 -24 10 -23 0 -24 -3 -19 -37 3 -21 9 -42 13 -47 12 -12 70 3 70 19 0
7 3 27 6 44 6 27 4 31 -14 31 -16 0 -20 -6 -20 -29z"/>
<path d="M654 2538 c3 -13 6 -26 6 -30 0 -5 5 -8 10 -8 6 0 10 14 10 30 0 21
-5 30 -16 30 -12 0 -15 -6 -10 -22z"/>
<path d="M725 2202 c-16 -10 -32 -18 -34 -19 -2 -1 4 -9 13 -18 9 -9 16 -21
16 -26 0 -5 7 -9 15 -9 8 0 15 7 15 15 0 8 -4 15 -10 15 -23 0 -8 19 20 25 17
4 30 13 30 21 0 18 -27 16 -65 -4z"/>
<path d="M786 2161 c-10 -11 -15 -25 -11 -30 4 -7 -8 -11 -34 -11 -29 0 -41
-4 -41 -14 0 -8 -3 -21 -6 -30 -5 -14 4 -16 60 -16 59 0 67 3 82 25 19 30 12
45 -24 46 l-27 1 28 11 c15 6 26 16 24 21 -6 19 -33 17 -51 -3z m22 -63 c-3
-7 -12 -14 -21 -16 -12 -2 -15 1 -11 12 7 19 38 22 32 4z m-58 -8 c0 -5 -7
-10 -15 -10 -8 0 -15 5 -15 10 0 6 7 10 15 10 8 0 15 -4 15 -10z"/>
<path d="M662 2143 c4 -22 38 -30 38 -10 0 8 -7 18 -16 21 -23 9 -26 8 -22
-11z"/>
<path d="M592 2111 c1 -33 -9 -54 -23 -46 -12 8 -12 45 1 45 6 0 10 5 10 10 0
6 -11 10 -24 10 -23 0 -24 -3 -19 -37 3 -21 9 -42 13 -47 12 -12 70 3 70 19 0
7 3 27 6 44 6 27 4 31 -14 31 -16 0 -20 -6 -20 -29z"/>
<path d="M654 2088 c3 -13 6 -26 6 -30 0 -5 5 -8 10 -8 6 0 10 14 10 30 0 21
-5 30 -16 30 -12 0 -15 -6 -10 -22z"/>
<path d="M725 1752 c-16 -10 -32 -18 -34 -19 -2 -1 4 -9 13 -18 9 -9 16 -21
16 -26 0 -5 7 -9 15 -9 8 0 15 7 15 15 0 8 -4 15 -10 15 -23 0 -8 19 20 25 17
4 30 13 30 21 0 18 -27 16 -65 -4z"/>
<path d="M786 1711 c-10 -11 -15 -25 -11 -30 4 -7 -8 -11 -34 -11 -29 0 -41
-4 -41 -14 0 -8 -3 -21 -6 -30 -5 -14 4 -16 60 -16 59 0 67 3 82 25 19 30 12
45 -24 46 l-27 1 28 11 c15 6 26 16 24 21 -6 19 -33 17 -51 -3z m22 -63 c-3
-7 -12 -14 -21 -16 -12 -2 -15 1 -11 12 7 19 38 22 32 4z m-58 -8 c0 -5 -7
-10 -15 -10 -8 0 -15 5 -15 10 0 6 7 10 15 10 8 0 15 -4 15 -10z"/>
<path d="M662 1693 c4 -22 38 -30 38 -10 0 8 -7 18 -16 21 -23 9 -26 8 -22
-11z"/>
<path d="M592 1661 c1 -33 -9 -54 -23 -46 -12 8 -12 45 1 45 6 0 10 5 10 10 0
6 -11 10 -24 10 -23 0 -24 -3 -19 -37 3 -21 9 -42 13 -47 12 -12 70 3 70 19 0
7 3 27 6 44 6 27 4 31 -14 31 -16 0 -20 -6 -20 -29z"/>
<path d="M654 1638 c3 -13 6 -26 6 -30 0 -5 5 -8 10 -8 6 0 10 14 10 30 0 21
-5 30 -16 30 -12 0 -15 -6 -10 -22z"/>
<path d="M700 1555 c0 -55 13 -58 28 -8 9 29 9 39 -1 45 -22 14 -27 8 -27 -37z"/>
<path d="M660 1580 c0 -5 7 -10 15 -10 8 0 15 5 15 10 0 6 -7 10 -15 10 -8 0
-15 -4 -15 -10z"/>
<path d="M725 1302 c-16 -10 -32 -18 -34 -19 -2 -1 4 -9 13 -18 9 -9 16 -21
16 -26 0 -5 7 -9 15 -9 8 0 15 7 15 15 0 8 -4 15 -10 15 -23 0 -8 19 20 25 17
4 30 13 30 21 0 18 -27 16 -65 -4z"/>
<path d="M786 1261 c-10 -11 -15 -25 -11 -30 4 -7 -8 -11 -34 -11 -29 0 -41
-4 -41 -14 0 -8 -3 -21 -6 -30 -5 -14 4 -16 60 -16 59 0 67 3 82 25 19 30 12
45 -24 46 l-27 1 28 11 c15 6 26 16 24 21 -6 19 -33 17 -51 -3z m22 -63 c-3
-7 -12 -14 -21 -16 -12 -2 -15 1 -11 12 7 19 38 22 32 4z m-58 -8 c0 -5 -7
-10 -15 -10 -8 0 -15 5 -15 10 0 6 7 10 15 10 8 0 15 -4 15 -10z"/>
<path d="M662 1243 c4 -22 38 -30 38 -10 0 8 -7 18 -16 21 -23 9 -26 8 -22
-11z"/>
<path d="M592 1211 c1 -33 -9 -54 -23 -46 -12 8 -12 45 1 45 6 0 10 5 10 10 0
6 -11 10 -24 10 -23 0 -24 -3 -19 -37 3 -21 9 -42 13 -47 12 -12 70 3 70 19 0
7 3 27 6 44 6 27 4 31 -14 31 -16 0 -20 -6 -20 -29z"/>
<path d="M654 1188 c3 -13 6 -26 6 -30 0 -5 5 -8 10 -8 6 0 10 14 10 30 0 21
-5 30 -16 30 -12 0 -15 -6 -10 -22z"/>
<path d="M699 1133 c0 -11 -3 -13 -6 -5 -5 13 -33 17 -33 4 0 -4 9 -14 20 -22
11 -8 20 -22 20 -32 0 -31 16 -20 28 19 9 29 9 39 -1 45 -19 12 -27 9 -28 -9z"/>
<path d="M650 1100 c0 -5 5 -10 10 -10 6 0 10 5 10 10 0 6 -4 10 -10 10 -5 0
-10 -4 -10 -10z"/>
<path d="M725 852 c-16 -10 -32 -18 -34 -19 -2 -1 4 -9 13 -18 9 -9 16 -21 16
-26 0 -5 7 -9 15 -9 8 0 15 7 15 15 0 8 -4 15 -10 15 -23 0 -8 19 20 25 17 4
30 13 30 21 0 18 -27 16 -65 -4z"/>
<path d="M786 811 c-10 -11 -15 -25 -11 -30 4 -7 -8 -11 -34 -11 -29 0 -41 -4
-41 -14 0 -8 -3 -21 -6 -30 -5 -14 4 -16 60 -16 59 0 67 3 82 25 19 30 12 45
-24 46 l-27 1 28 11 c15 6 26 16 24 21 -6 19 -33 17 -51 -3z m22 -63 c-3 -7
-12 -14 -21 -16 -12 -2 -15 1 -11 12 7 19 38 22 32 4z m-58 -8 c0 -5 -7 -10
-15 -10 -8 0 -15 5 -15 10 0 6 7 10 15 10 8 0 15 -4 15 -10z"/>
<path d="M662 793 c4 -22 38 -30 38 -10 0 8 -7 18 -16 21 -23 9 -26 8 -22 -11z"/>
<path d="M592 761 c1 -33 -9 -54 -23 -46 -12 8 -12 45 1 45 6 0 10 5 10 10 0
6 -11 10 -24 10 -23 0 -24 -3 -19 -37 3 -21 9 -42 13 -47 12 -12 70 3 70 19 0
7 3 27 6 44 6 27 4 31 -14 31 -16 0 -20 -6 -20 -29z"/>
<path d="M654 738 c3 -13 6 -26 6 -30 0 -5 5 -8 10 -8 6 0 10 14 10 30 0 21
-5 30 -16 30 -12 0 -15 -6 -10 -22z"/>
<path d="M699 683 c0 -11 -3 -13 -6 -5 -5 12 -33 17 -33 6 0 -4 9 -15 20 -24
20 -18 20 -18 -5 -24 -36 -9 -31 -24 9 -23 30 1 35 5 45 36 8 27 7 37 -2 43
-19 12 -27 9 -28 -9z"/>
<path d="M650 650 c0 -5 5 -10 10 -10 6 0 10 5 10 10 0 6 -4 10 -10 10 -5 0
-10 -4 -10 -10z"/>
<path d="M725 402 c-16 -10 -32 -18 -34 -19 -2 -1 4 -9 13 -18 9 -9 16 -21 16
-26 0 -5 7 -9 15 -9 8 0 15 7 15 15 0 8 -4 15 -10 15 -23 0 -8 19 20 25 17 4
30 13 30 21 0 18 -27 16 -65 -4z"/>
<path d="M786 361 c-10 -11 -15 -25 -11 -30 4 -7 -8 -11 -34 -11 -29 0 -41 -4
-41 -14 0 -8 -3 -21 -6 -30 -5 -14 4 -16 60 -16 59 0 67 3 82 25 19 30 12 45
-24 46 l-27 1 28 11 c15 6 26 16 24 21 -6 19 -33 17 -51 -3z m22 -63 c-3 -7
-12 -14 -21 -16 -12 -2 -15 1 -11 12 7 19 38 22 32 4z m-58 -8 c0 -5 -7 -10
-15 -10 -8 0 -15 5 -15 10 0 6 7 10 15 10 8 0 15 -4 15 -10z"/>
<path d="M662 343 c4 -22 38 -30 38 -10 0 8 -7 18 -16 21 -23 9 -26 8 -22 -11z"/>
<path d="M592 311 c1 -33 -9 -54 -23 -46 -12 8 -12 45 1 45 6 0 10 5 10 10 0
6 -11 10 -24 10 -23 0 -24 -3 -19 -37 3 -21 9 -42 13 -47 12 -12 70 3 70 19 0
7 3 27 6 44 6 27 4 31 -14 31 -16 0 -20 -6 -20 -29z"/>
<path d="M654 288 c3 -13 6 -26 6 -30 0 -5 5 -8 10 -8 6 0 10 14 10 30 0 21
-5 30 -16 30 -12 0 -15 -6 -10 -22z"/>
<path d="M699 233 c0 -11 -3 -13 -6 -5 -2 6 -18 12 -34 12 -28 0 -29 -1 -29
-54 0 -30 -3 -61 -6 -70 -9 -24 23 -31 46 -11 23 21 26 40 5 32 -8 -4 -17 -2
-20 3 -7 12 30 31 47 25 20 -8 43 66 25 77 -19 12 -27 9 -28 -9z m-14 -27 c12
-12 12 -15 -3 -18 -12 -4 -18 1 -18 13 0 23 3 23 21 5z"/>
</g>
</svg>
