<?xml version="1.0" standalone="no"?>
<!DOCTYPE svg PUBLIC "-//W3C//DTD SVG 20010904//EN"
 "http://www.w3.org/TR/2001/REC-SVG-20010904/DTD/svg10.dtd">
<svg version="1.0" xmlns="http://www.w3.org/2000/svg"
 width="95.000000pt" height="725.000000pt" viewBox="0 0 95.000000 725.000000"
 preserveAspectRatio="xMidYMid meet">
<metadata>
Created by potrace 1.16, written by Peter Selinger 2001-2019
</metadata>
<g transform="translate(0.000000,725.000000) scale(0.100000,-0.100000)"
fill="#000000" stroke="none">
<path d="M332 7150 c4 -24 1 -30 -14 -30 -10 0 -18 -4 -18 -10 0 -5 9 -10 20
-10 11 0 20 -4 20 -10 0 -5 -14 -10 -31 -10 -26 0 -30 -3 -24 -17 4 -10 10
-28 12 -40 3 -12 15 -24 27 -26 17 -3 15 -5 -11 -12 -35 -8 -45 -25 -15 -25
37 0 62 13 62 31 0 12 7 19 20 19 21 0 40 27 40 59 0 15 -8 21 -32 24 -30 4
-31 5 -10 12 25 8 30 25 7 25 -8 0 -15 9 -15 19 0 16 -18 31 -37 31 -3 0 -3
-13 -1 -30z m55 -86 c-3 -3 -12 -4 -19 -1 -8 3 -5 6 6 6 11 1 17 -2 13 -5z
m-57 -24 c0 -11 -2 -20 -4 -20 -2 0 -6 9 -9 20 -3 11 -1 20 4 20 5 0 9 -9 9
-20z"/>
<path d="M200 7130 c0 -20 -5 -30 -15 -30 -8 0 -15 -4 -15 -10 0 -5 7 -10 15
-10 20 0 19 -16 0 -24 -9 -3 -18 1 -21 9 -7 17 -54 21 -54 5 0 -5 4 -10 9 -10
4 0 6 -11 3 -25 -8 -45 -29 -24 -23 23 1 6 -5 12 -14 12 -14 0 -16 -7 -10 -42
4 -24 8 -44 9 -44 0 -1 16 1 34 3 26 4 32 10 33 32 1 22 3 20 11 -12 7 -26 15
-37 24 -33 8 3 14 1 14 -5 0 -10 -7 -13 -52 -23 -45 -10 -34 -29 11 -21 l39 6
-1 -47 c-1 -30 3 -48 11 -51 9 -3 12 11 12 50 0 46 3 55 20 60 11 3 20 10 20
17 0 7 -8 9 -20 5 -11 -4 -20 -2 -20 4 0 6 9 11 19 11 13 0 23 11 31 35 13 40
7 55 -21 55 -10 0 -19 5 -19 10 0 6 7 10 15 10 8 0 15 7 15 16 0 10 -6 14 -15
10 -11 -4 -15 1 -15 19 0 16 -6 25 -15 25 -10 0 -15 -10 -15 -30z m40 -120 c0
-5 -5 -10 -11 -10 -5 0 -7 5 -4 10 3 6 8 10 11 10 2 0 4 -4 4 -10z"/>
<path d="M524 7039 c3 -17 6 -38 6 -45 0 -8 5 -14 10 -14 11 0 13 33 4 68 -10
34 -27 27 -20 -9z"/>
<path d="M332 6700 c4 -24 1 -30 -14 -30 -10 0 -18 -4 -18 -10 0 -5 9 -10 20
-10 11 0 20 -4 20 -10 0 -5 -14 -10 -31 -10 -26 0 -30 -3 -24 -17 4 -10 10
-28 12 -40 3 -12 15 -24 27 -26 17 -3 15 -5 -11 -12 -35 -8 -45 -25 -15 -25
37 0 62 13 62 31 0 26 13 24 25 -3 13 -29 35 -35 35 -10 0 11 -5 22 -11 24 -9
3 -9 9 0 25 21 40 14 61 -21 66 -30 4 -31 5 -10 12 25 8 30 25 7 25 -8 0 -15
9 -15 19 0 16 -18 31 -37 31 -3 0 -3 -13 -1 -30z m55 -86 c-3 -3 -12 -4 -19
-1 -8 3 -5 6 6 6 11 1 17 -2 13 -5z m-57 -24 c0 -11 -2 -20 -4 -20 -2 0 -6 9
-9 20 -3 11 -1 20 4 20 5 0 9 -9 9 -20z"/>
<path d="M200 6680 c0 -20 -5 -30 -15 -30 -8 0 -15 -4 -15 -10 0 -5 7 -10 15
-10 20 0 19 -16 0 -24 -9 -3 -18 1 -21 9 -7 17 -54 21 -54 5 0 -5 4 -10 9 -10
4 0 6 -11 3 -25 -8 -45 -29 -24 -23 23 1 6 -5 12 -14 12 -14 0 -16 -7 -10 -42
4 -24 8 -44 9 -44 0 -1 16 1 34 3 26 4 32 10 33 32 1 22 3 20 11 -12 7 -26 15
-37 24 -33 8 3 14 1 14 -5 0 -10 -7 -13 -52 -23 -45 -10 -34 -29 11 -21 l39 6
-1 -47 c-1 -30 3 -48 11 -51 9 -3 12 11 12 50 0 46 3 55 20 60 11 3 20 10 20
17 0 7 -8 9 -20 5 -11 -4 -20 -2 -20 4 0 6 9 11 19 11 13 0 23 11 31 35 13 40
7 55 -21 55 -10 0 -19 5 -19 10 0 6 7 10 15 10 8 0 15 7 15 16 0 10 -6 14 -15
10 -11 -4 -15 1 -15 19 0 16 -6 25 -15 25 -10 0 -15 -10 -15 -30z m40 -120 c0
-5 -5 -10 -11 -10 -5 0 -7 5 -4 10 3 6 8 10 11 10 2 0 4 -4 4 -10z"/>
<path d="M560 6620 c0 -5 4 -10 8 -10 5 0 7 -13 4 -30 -2 -17 0 -30 6 -30 14
0 18 8 27 48 6 30 5 32 -19 32 -14 0 -26 -4 -26 -10z"/>
<path d="M524 6589 c3 -17 6 -38 6 -45 0 -8 5 -14 10 -14 6 0 9 20 8 45 -1 32
-5 45 -16 45 -11 0 -13 -8 -8 -31z"/>
<path d="M332 6250 c4 -24 1 -30 -14 -30 -10 0 -18 -4 -18 -10 0 -5 9 -10 20
-10 11 0 20 -4 20 -10 0 -5 -14 -10 -31 -10 -26 0 -30 -3 -24 -17 4 -10 10
-28 12 -40 3 -12 15 -24 27 -26 17 -3 15 -5 -11 -12 -35 -8 -45 -25 -15 -25
37 0 62 13 62 31 0 24 16 25 24 2 3 -10 8 -23 11 -29 4 -8 -16 -14 -57 -18
-63 -7 -98 -19 -87 -31 4 -3 26 -1 50 4 24 6 65 11 92 11 44 0 60 11 37 25 -5
3 -10 15 -10 25 0 10 -5 20 -11 22 -9 3 -9 9 0 25 21 40 14 61 -21 66 -30 4
-31 5 -10 12 25 8 30 25 7 25 -8 0 -15 9 -15 19 0 16 -18 31 -37 31 -3 0 -3
-13 -1 -30z m55 -86 c-3 -3 -12 -4 -19 -1 -8 3 -5 6 6 6 11 1 17 -2 13 -5z
m-57 -24 c0 -11 -2 -20 -4 -20 -2 0 -6 9 -9 20 -3 11 -1 20 4 20 5 0 9 -9 9
-20z"/>
<path d="M200 6230 c0 -20 -5 -30 -15 -30 -8 0 -15 -4 -15 -10 0 -5 7 -10 15
-10 20 0 19 -16 0 -24 -9 -3 -18 1 -21 9 -7 17 -54 21 -54 5 0 -5 4 -10 9 -10
4 0 6 -11 3 -25 -8 -45 -29 -24 -23 23 1 6 -5 12 -14 12 -14 0 -16 -7 -10 -42
4 -24 8 -44 9 -44 0 -1 16 1 34 3 26 4 32 10 33 32 1 22 3 20 11 -12 7 -26 15
-37 24 -33 8 3 14 1 14 -5 0 -10 -7 -13 -52 -23 -45 -10 -34 -29 11 -21 l39 6
-1 -47 c-1 -30 3 -48 11 -51 9 -3 12 11 12 50 0 46 3 55 20 60 11 3 20 10 20
17 0 7 -8 9 -20 5 -11 -4 -20 -2 -20 4 0 6 9 11 19 11 13 0 23 11 31 35 13 40
7 55 -21 55 -10 0 -19 5 -19 10 0 6 7 10 15 10 8 0 15 7 15 16 0 10 -6 14 -15
10 -11 -4 -15 1 -15 19 0 16 -6 25 -15 25 -10 0 -15 -10 -15 -30z m40 -120 c0
-5 -5 -10 -11 -10 -5 0 -7 5 -4 10 3 6 8 10 11 10 2 0 4 -4 4 -10z"/>
<path d="M560 6170 c0 -5 4 -10 9 -10 4 0 6 -11 3 -25 -8 -45 -29 -24 -23 23
1 6 -5 12 -14 12 -14 0 -16 -7 -10 -42 4 -24 8 -44 9 -44 0 -1 16 1 34 3 24 4
32 10 32 27 0 11 3 31 6 44 5 19 2 22 -20 22 -14 0 -26 -4 -26 -10z"/>
<path d="M332 5800 c4 -24 1 -30 -14 -30 -10 0 -18 -4 -18 -10 0 -5 9 -10 20
-10 11 0 20 -4 20 -10 0 -5 -14 -10 -31 -10 -26 0 -30 -3 -24 -17 4 -10 10
-28 12 -40 3 -12 15 -24 27 -26 17 -3 15 -5 -11 -12 -45 -10 -43 -29 2 -22 38
6 49 -10 13 -17 -68 -14 -78 -17 -78 -27 0 -6 10 -9 23 -6 90 21 87 21 87 -13
0 -23 -5 -33 -20 -37 -11 -3 -20 -8 -20 -12 0 -13 24 -31 42 -31 15 0 18 9 18
55 0 54 0 55 30 55 29 0 40 13 20 25 -5 3 -10 15 -10 25 0 10 -5 20 -11 22 -9
3 -9 9 0 25 21 40 14 61 -21 66 -30 4 -31 5 -10 12 25 8 30 25 7 25 -8 0 -15
9 -15 19 0 16 -18 31 -37 31 -3 0 -3 -13 -1 -30z m55 -86 c-3 -3 -12 -4 -19
-1 -8 3 -5 6 6 6 11 1 17 -2 13 -5z m-57 -24 c0 -11 -2 -20 -4 -20 -2 0 -6 9
-9 20 -3 11 -1 20 4 20 5 0 9 -9 9 -20z m57 -57 c7 -15 11 -29 8 -31 -7 -8
-35 26 -35 42 0 24 14 19 27 -11z"/>
<path d="M200 5780 c0 -20 -5 -30 -15 -30 -8 0 -15 -4 -15 -10 0 -5 7 -10 15
-10 20 0 19 -16 0 -24 -9 -3 -18 1 -21 9 -7 17 -54 21 -54 5 0 -5 4 -10 9 -10
4 0 6 -11 3 -25 -8 -45 -29 -24 -23 23 1 6 -5 12 -14 12 -14 0 -16 -7 -10 -42
4 -24 8 -44 9 -44 0 -1 16 1 34 3 26 4 32 10 33 32 1 22 3 20 11 -12 7 -26 15
-37 24 -33 8 3 14 1 14 -5 0 -10 -7 -13 -52 -23 -45 -10 -34 -29 11 -21 l39 6
-1 -47 c-1 -30 3 -48 11 -51 9 -3 12 11 12 50 0 46 3 55 20 60 11 3 20 10 20
17 0 7 -8 9 -20 5 -11 -4 -20 -2 -20 4 0 6 9 11 19 11 13 0 23 11 31 35 13 40
7 55 -21 55 -10 0 -19 5 -19 10 0 6 7 10 15 10 8 0 15 7 15 16 0 10 -6 14 -15
10 -11 -4 -15 1 -15 19 0 16 -6 25 -15 25 -10 0 -15 -10 -15 -30z m40 -120 c0
-5 -5 -10 -11 -10 -5 0 -7 5 -4 10 3 6 8 10 11 10 2 0 4 -4 4 -10z"/>
<path d="M658 5758 c-46 -12 -52 -33 -7 -24 17 3 38 6 45 6 8 0 14 7 14 15 0
17 0 17 -52 3z"/>
<path d="M560 5720 c0 -5 4 -10 9 -10 4 0 6 -11 3 -25 -8 -45 -29 -24 -23 23
1 6 -5 12 -14 12 -14 0 -16 -7 -10 -42 4 -24 8 -44 9 -44 0 -1 16 1 34 3 24 4
32 10 32 27 0 11 3 31 6 44 5 19 2 22 -20 22 -14 0 -26 -4 -26 -10z"/>
<path d="M332 5350 c4 -24 1 -30 -14 -30 -10 0 -18 -4 -18 -10 0 -5 9 -10 20
-10 11 0 20 -4 20 -10 0 -5 -14 -10 -31 -10 -26 0 -30 -3 -24 -17 4 -10 10
-28 12 -40 3 -12 15 -24 27 -26 17 -3 15 -5 -11 -12 -45 -10 -43 -29 2 -22 38
6 49 -10 13 -17 -68 -14 -78 -17 -78 -27 0 -6 8 -9 18 -7 12 3 24 -2 31 -13 6
-11 18 -19 26 -19 17 0 20 16 5 25 -13 8 -3 25 16 25 23 0 18 -61 -6 -67 -11
-3 -20 -8 -20 -12 0 -13 24 -31 42 -31 15 0 18 9 18 55 0 54 0 55 30 55 29 0
40 13 20 25 -5 3 -10 15 -10 25 0 10 -5 20 -11 22 -9 3 -9 9 0 25 21 40 14 61
-21 66 -30 4 -31 5 -10 12 25 8 30 25 7 25 -8 0 -15 9 -15 19 0 16 -18 31 -37
31 -3 0 -3 -13 -1 -30z m55 -86 c-3 -3 -12 -4 -19 -1 -8 3 -5 6 6 6 11 1 17
-2 13 -5z m-57 -24 c0 -11 -2 -20 -4 -20 -2 0 -6 9 -9 20 -3 11 -1 20 4 20 5
0 9 -9 9 -20z m57 -57 c7 -15 11 -29 8 -31 -7 -8 -35 26 -35 42 0 24 14 19 27
-11z"/>
<path d="M200 5330 c0 -20 -5 -30 -15 -30 -8 0 -15 -4 -15 -10 0 -5 7 -10 15
-10 20 0 19 -16 0 -24 -9 -3 -18 1 -21 9 -7 17 -54 21 -54 5 0 -5 4 -10 9 -10
4 0 6 -11 3 -25 -8 -45 -29 -24 -23 23 1 6 -5 12 -14 12 -14 0 -16 -7 -10 -42
4 -24 8 -44 9 -44 0 -1 16 1 34 3 26 4 32 10 33 32 1 22 3 20 11 -12 7 -26 15
-37 24 -33 8 3 14 1 14 -5 0 -10 -7 -13 -52 -23 -45 -10 -34 -29 11 -21 l39 6
-1 -47 c-1 -30 3 -48 11 -51 9 -3 12 11 12 50 0 46 3 55 20 60 11 3 20 10 20
17 0 7 -8 9 -20 5 -11 -4 -20 -2 -20 4 0 6 9 11 19 11 13 0 23 11 31 35 13 40
7 55 -21 55 -10 0 -19 5 -19 10 0 6 7 10 15 10 8 0 15 7 15 16 0 10 -6 14 -15
10 -11 -4 -15 1 -15 19 0 16 -6 25 -15 25 -10 0 -15 -10 -15 -30z m40 -120 c0
-5 -5 -10 -11 -10 -5 0 -7 5 -4 10 3 6 8 10 11 10 2 0 4 -4 4 -10z"/>
<path d="M658 5308 c-46 -12 -52 -33 -7 -24 17 3 38 6 45 6 8 0 14 7 14 15 0
17 0 17 -52 3z"/>
<path d="M560 5270 c0 -5 4 -10 9 -10 4 0 6 -11 3 -25 -8 -45 -29 -24 -23 23
1 6 -5 12 -14 12 -14 0 -16 -7 -10 -42 4 -24 8 -44 9 -44 0 -1 16 1 34 3 26 4
32 10 33 32 1 22 3 20 11 -11 13 -49 33 -50 23 -2 -3 20 -12 45 -18 55 -12 20
-57 27 -57 9z"/>
<path d="M658 4858 c-46 -12 -52 -33 -7 -24 17 3 38 6 45 6 8 0 14 7 14 15 0
17 0 17 -52 3z"/>
<path d="M560 4820 c0 -5 4 -10 9 -10 4 0 6 -11 3 -25 -8 -45 -29 -24 -23 23
1 6 -5 12 -14 12 -14 0 -16 -7 -10 -42 4 -24 8 -44 9 -44 0 -1 16 1 34 3 26 4
32 10 33 32 1 22 3 20 11 -11 13 -49 33 -51 24 -3 -6 31 -4 35 14 35 11 0 20
5 20 11 0 7 -11 9 -26 6 -16 -3 -28 0 -31 9 -6 16 -53 19 -53 4z"/>
<path d="M680 4810 c0 -5 5 -10 10 -10 7 0 8 -13 4 -35 -4 -22 -2 -35 4 -35
13 0 36 66 27 80 -8 13 -45 13 -45 0z"/>
<path d="M658 4408 c-46 -12 -52 -33 -7 -24 17 3 38 6 45 6 8 0 14 7 14 15 0
17 0 17 -52 3z"/>
<path d="M560 4370 c0 -5 4 -10 9 -10 4 0 6 -11 3 -25 -8 -45 -29 -24 -23 23
1 6 -5 12 -14 12 -14 0 -16 -7 -10 -42 4 -24 8 -44 9 -44 0 -1 16 1 34 3 26 4
32 10 33 32 1 22 3 20 11 -11 11 -40 28 -51 28 -18 0 11 4 20 9 20 5 0 16 3
25 6 12 4 16 0 16 -15 0 -33 17 -25 30 14 13 40 7 55 -21 55 -21 0 -26 -16 -6
-23 6 -2 -3 -7 -21 -11 -18 -5 -36 -5 -39 -2 -4 3 3 6 15 6 12 0 22 5 22 11 0
7 -11 9 -26 6 -16 -3 -28 0 -31 9 -6 16 -53 19 -53 4z"/>
<path d="M658 3958 c-46 -12 -52 -33 -7 -24 17 3 38 6 45 6 8 0 14 7 14 15 0
17 0 17 -52 3z"/>
<path d="M560 3920 c0 -5 4 -10 9 -10 4 0 6 -11 3 -25 -8 -45 -29 -24 -23 23
1 6 -5 12 -14 12 -14 0 -16 -7 -10 -42 4 -24 8 -44 9 -44 0 -1 16 1 34 3 26 4
32 10 33 32 1 22 3 20 11 -12 7 -27 14 -37 25 -33 8 3 27 6 43 6 24 0 30 6 40
35 13 40 7 55 -21 55 -21 0 -26 -16 -6 -23 6 -2 -3 -7 -21 -11 -18 -5 -36 -5
-39 -2 -4 3 3 6 15 6 12 0 22 5 22 11 0 7 -11 9 -26 6 -16 -3 -28 0 -31 9 -6
16 -53 19 -53 4z m130 -60 c0 -5 -12 -10 -27 -9 -25 0 -26 1 -8 9 27 12 35 12
35 0z"/>
<path d="M658 3508 c-46 -12 -52 -33 -7 -24 17 3 38 6 45 6 8 0 14 7 14 15 0
17 0 17 -52 3z"/>
<path d="M560 3470 c0 -5 4 -10 9 -10 4 0 6 -11 3 -25 -8 -45 -29 -24 -23 23
1 6 -5 12 -14 12 -14 0 -16 -7 -10 -42 4 -24 8 -44 9 -44 0 -1 16 1 34 3 26 4
32 10 33 32 1 22 3 20 11 -12 7 -27 14 -37 25 -33 8 3 27 6 43 6 24 0 30 6 40
35 13 40 7 55 -21 55 -21 0 -26 -16 -6 -23 6 -2 -3 -7 -21 -11 -18 -5 -36 -5
-39 -2 -4 3 3 6 15 6 12 0 22 5 22 11 0 7 -11 9 -26 6 -16 -3 -28 0 -31 9 -6
16 -53 19 -53 4z m130 -60 c0 -5 -12 -10 -27 -9 -25 0 -26 1 -8 9 27 12 35 12
35 0z"/>
<path d="M637 3355 c-59 -13 -75 -20 -64 -31 9 -9 130 21 135 34 4 14 5 14
-71 -3z"/>
<path d="M650 3080 c0 -20 -5 -30 -15 -30 -8 0 -15 -4 -15 -10 0 -5 7 -10 15
-10 20 0 19 -16 0 -24 -9 -3 -18 1 -21 9 -7 17 -54 21 -54 5 0 -5 4 -10 9 -10
4 0 6 -11 3 -25 -8 -45 -29 -24 -23 23 1 6 -5 12 -14 12 -14 0 -16 -7 -10 -42
4 -24 8 -44 9 -44 0 -1 16 1 34 3 26 4 32 10 33 32 1 22 3 20 11 -12 7 -26 15
-37 24 -33 8 3 14 1 14 -5 0 -10 -7 -13 -52 -23 -45 -10 -34 -29 11 -21 l39 6
-1 -47 c-1 -30 3 -48 11 -51 9 -3 12 11 12 50 0 46 3 55 20 60 11 3 20 10 20
17 0 7 -8 9 -20 5 -11 -4 -20 -2 -20 4 0 6 9 11 19 11 13 0 23 11 31 35 13 40
7 55 -21 55 -10 0 -19 5 -19 10 0 6 7 10 15 10 8 0 15 7 15 16 0 10 -6 14 -15
10 -11 -4 -15 1 -15 19 0 16 -6 25 -15 25 -10 0 -15 -10 -15 -30z m40 -120 c0
-5 -5 -10 -11 -10 -5 0 -7 5 -4 10 3 6 8 10 11 10 2 0 4 -4 4 -10z"/>
<path d="M650 2630 c0 -20 -5 -30 -15 -30 -8 0 -15 -4 -15 -10 0 -5 7 -10 15
-10 20 0 19 -16 0 -24 -9 -3 -18 1 -21 9 -7 17 -54 21 -54 5 0 -5 4 -10 9 -10
4 0 6 -11 3 -25 -8 -45 -29 -24 -23 23 1 6 -5 12 -14 12 -14 0 -16 -7 -10 -42
4 -24 8 -44 9 -44 0 -1 16 1 34 3 26 4 32 10 33 32 1 22 3 20 11 -12 7 -26 15
-37 24 -33 8 3 14 1 14 -5 0 -10 -7 -13 -52 -23 -45 -10 -34 -29 11 -21 l39 6
-1 -47 c-1 -30 3 -48 11 -51 9 -3 12 11 12 50 0 46 3 55 20 60 11 3 20 10 20
17 0 7 -8 9 -20 5 -11 -4 -20 -2 -20 4 0 6 9 11 19 11 13 0 23 11 31 35 13 40
7 55 -21 55 -10 0 -19 5 -19 10 0 6 7 10 15 10 8 0 15 7 15 16 0 10 -6 14 -15
10 -11 -4 -15 1 -15 19 0 16 -6 25 -15 25 -10 0 -15 -10 -15 -30z m40 -120 c0
-5 -5 -10 -11 -10 -5 0 -7 5 -4 10 3 6 8 10 11 10 2 0 4 -4 4 -10z"/>
<path d="M778 2623 c-31 -5 -38 -23 -9 -23 34 0 81 12 81 21 0 9 -22 10 -72 2z"/>
<path d="M650 2180 c0 -20 -5 -30 -15 -30 -8 0 -15 -4 -15 -10 0 -5 7 -10 15
-10 20 0 19 -16 0 -24 -9 -3 -18 1 -21 9 -7 17 -54 21 -54 5 0 -5 4 -10 9 -10
4 0 6 -11 3 -25 -8 -45 -29 -24 -23 23 1 6 -5 12 -14 12 -14 0 -16 -7 -10 -42
4 -24 8 -44 9 -44 0 -1 16 1 34 3 26 4 32 10 33 32 1 22 3 20 11 -12 7 -26 15
-37 24 -33 8 3 14 1 14 -5 0 -10 -7 -13 -52 -23 -45 -10 -34 -29 11 -21 l39 6
-1 -47 c-1 -30 3 -48 11 -51 9 -3 12 11 12 50 0 46 3 55 20 60 11 3 20 10 20
17 0 7 -8 9 -20 5 -11 -4 -20 -2 -20 4 0 6 9 11 19 11 13 0 23 11 31 35 13 40
7 55 -21 55 -10 0 -19 5 -19 10 0 6 7 10 15 10 8 0 15 7 15 16 0 10 -6 14 -15
10 -11 -4 -15 1 -15 19 0 16 -6 25 -15 25 -10 0 -15 -10 -15 -30z m40 -120 c0
-5 -5 -10 -11 -10 -5 0 -7 5 -4 10 3 6 8 10 11 10 2 0 4 -4 4 -10z"/>
<path d="M778 2173 c-31 -5 -38 -23 -9 -23 34 0 81 12 81 21 0 9 -22 10 -72 2z"/>
<path d="M735 2113 c4 -10 10 -28 12 -40 6 -27 23 -31 23 -5 0 34 -13 62 -27
62 -11 0 -13 -5 -8 -17z"/>
<path d="M650 1730 c0 -20 -5 -30 -15 -30 -8 0 -15 -4 -15 -10 0 -5 7 -10 15
-10 20 0 19 -16 0 -24 -9 -3 -18 1 -21 9 -7 17 -54 21 -54 5 0 -5 4 -10 9 -10
4 0 6 -11 3 -25 -8 -45 -29 -24 -23 23 1 6 -5 12 -14 12 -14 0 -16 -7 -10 -42
4 -24 8 -44 9 -44 0 -1 16 1 34 3 26 4 32 10 33 32 1 22 3 20 11 -12 7 -26 15
-37 24 -33 8 3 14 1 14 -5 0 -10 -7 -13 -52 -23 -45 -10 -34 -29 11 -21 l39 6
-1 -47 c-1 -30 3 -48 11 -51 9 -3 12 11 12 50 0 46 3 55 20 60 11 3 20 10 20
17 0 7 -8 9 -20 5 -11 -4 -20 -2 -20 4 0 6 9 11 19 11 13 0 23 11 31 35 13 40
7 55 -21 55 -10 0 -19 5 -19 10 0 6 7 10 15 10 8 0 15 7 15 16 0 10 -6 14 -15
10 -11 -4 -15 1 -15 19 0 16 -6 25 -15 25 -10 0 -15 -10 -15 -30z m40 -120 c0
-5 -5 -10 -11 -10 -5 0 -7 5 -4 10 3 6 8 10 11 10 2 0 4 -4 4 -10z"/>
<path d="M778 1723 c-31 -5 -38 -23 -9 -23 34 0 81 12 81 21 0 9 -22 10 -72 2z"/>
<path d="M810 1680 c0 -5 7 -10 16 -10 12 0 14 -7 9 -30 -4 -18 -3 -30 4 -30
14 0 31 33 31 59 0 17 -6 21 -30 21 -16 0 -30 -4 -30 -10z"/>
<path d="M735 1663 c4 -10 10 -28 12 -40 8 -34 26 -28 21 7 -3 20 0 30 9 30 7
0 13 5 13 10 0 6 -14 10 -31 10 -26 0 -30 -3 -24 -17z"/>
<path d="M650 1280 c0 -20 -5 -30 -15 -30 -8 0 -15 -4 -15 -10 0 -5 7 -10 15
-10 20 0 19 -16 0 -24 -9 -3 -18 1 -21 9 -7 17 -54 21 -54 5 0 -5 4 -10 9 -10
4 0 6 -11 3 -25 -8 -45 -29 -24 -23 23 1 6 -5 12 -14 12 -14 0 -16 -7 -10 -42
4 -24 8 -44 9 -44 0 -1 16 1 34 3 26 4 32 10 33 32 1 22 3 20 11 -12 7 -26 15
-37 24 -33 8 3 14 1 14 -5 0 -10 -7 -13 -52 -23 -45 -10 -34 -29 11 -21 l39 6
-1 -47 c-1 -30 3 -48 11 -51 9 -3 12 11 12 50 0 46 3 55 20 60 11 3 20 10 20
17 0 7 -8 9 -20 5 -11 -4 -20 -2 -20 4 0 6 9 11 19 11 13 0 23 11 31 35 13 40
7 55 -21 55 -10 0 -19 5 -19 10 0 6 7 10 15 10 8 0 15 7 15 16 0 10 -6 14 -15
10 -11 -4 -15 1 -15 19 0 16 -6 25 -15 25 -10 0 -15 -10 -15 -30z m40 -120 c0
-5 -5 -10 -11 -10 -5 0 -7 5 -4 10 3 6 8 10 11 10 2 0 4 -4 4 -10z"/>
<path d="M778 1273 c-31 -5 -38 -23 -9 -23 34 0 81 12 81 21 0 9 -22 10 -72 2z"/>
<path d="M810 1231 c0 -5 8 -12 18 -14 10 -3 6 -5 -10 -6 -16 0 -28 4 -28 9 0
6 -14 10 -31 10 -26 0 -30 -3 -24 -17 4 -10 10 -28 12 -40 8 -34 26 -28 21 7
-3 20 0 30 9 30 7 0 13 -4 13 -10 0 -5 9 -10 20 -10 11 0 20 -7 20 -15 0 -8 4
-15 10 -15 13 0 30 34 30 59 0 17 -6 21 -30 21 -16 0 -30 -4 -30 -9z"/>
<path d="M650 830 c0 -20 -5 -30 -15 -30 -8 0 -15 -4 -15 -10 0 -5 7 -10 15
-10 20 0 19 -16 0 -24 -9 -3 -18 1 -21 9 -7 17 -54 21 -54 5 0 -5 4 -10 9 -10
4 0 6 -11 3 -25 -8 -45 -29 -24 -23 23 1 6 -5 12 -14 12 -14 0 -16 -7 -10 -42
4 -24 8 -44 9 -44 0 -1 16 1 34 3 26 4 32 10 33 32 1 22 3 20 11 -12 7 -26 15
-37 24 -33 8 3 14 1 14 -5 0 -10 -7 -13 -52 -23 -45 -10 -34 -29 11 -21 l39 6
-1 -47 c-1 -30 3 -48 11 -51 9 -3 12 11 12 50 0 46 3 55 20 60 11 3 20 10 20
17 0 7 -8 9 -20 5 -11 -4 -20 -2 -20 4 0 6 9 11 19 11 13 0 23 11 31 35 13 40
7 55 -21 55 -10 0 -19 5 -19 10 0 6 7 10 15 10 8 0 15 7 15 16 0 10 -6 14 -15
10 -11 -4 -15 1 -15 19 0 16 -6 25 -15 25 -10 0 -15 -10 -15 -30z m40 -120 c0
-5 -5 -10 -11 -10 -5 0 -7 5 -4 10 3 6 8 10 11 10 2 0 4 -4 4 -10z"/>
<path d="M778 823 c-31 -5 -38 -23 -9 -23 34 0 81 12 81 21 0 9 -22 10 -72 2z"/>
<path d="M810 781 c0 -5 8 -12 18 -14 10 -3 6 -5 -10 -6 -16 0 -28 4 -28 9 0
6 -14 10 -31 10 -26 0 -30 -3 -24 -17 4 -10 10 -28 13 -41 4 -21 8 -22 51 -16
50 7 71 25 71 61 0 19 -5 23 -30 23 -16 0 -30 -4 -30 -9z m-20 -31 c0 -5 10
-10 22 -10 26 0 21 -5 -13 -13 -21 -6 -28 -3 -32 13 -3 13 0 20 9 20 8 0 14
-4 14 -10z"/>
<path d="M782 400 c4 -24 1 -30 -14 -30 -10 0 -18 -4 -18 -10 0 -5 9 -10 20
-10 11 0 20 -4 20 -10 0 -5 -14 -10 -31 -10 -26 0 -30 -3 -24 -17 4 -10 10
-28 12 -40 3 -14 13 -23 24 -23 11 0 19 -4 19 -10 0 -5 5 -10 10 -10 6 0 10 7
10 15 0 8 9 15 20 15 21 0 40 27 40 59 0 15 -8 21 -32 24 -30 4 -31 5 -10 12
25 8 30 25 7 25 -8 0 -15 9 -15 19 0 16 -18 31 -37 31 -3 0 -3 -13 -1 -30z
m55 -86 c-3 -3 -12 -4 -19 -1 -8 3 -5 6 6 6 11 1 17 -2 13 -5z m-57 -24 c0
-11 -2 -20 -4 -20 -2 0 -6 9 -9 20 -3 11 -1 20 4 20 5 0 9 -9 9 -20z"/>
<path d="M650 380 c0 -20 -5 -30 -15 -30 -8 0 -15 -4 -15 -10 0 -5 7 -10 15
-10 20 0 19 -16 0 -24 -9 -3 -18 1 -21 9 -7 17 -54 21 -54 5 0 -5 4 -10 9 -10
4 0 6 -11 3 -25 -8 -45 -29 -24 -23 23 1 6 -5 12 -14 12 -14 0 -16 -7 -10 -42
4 -24 8 -44 9 -44 0 -1 16 1 34 3 26 4 32 10 33 32 1 22 3 20 11 -12 7 -26 15
-37 24 -33 8 3 14 1 14 -5 0 -10 -7 -13 -52 -23 -45 -10 -34 -29 11 -21 l39 6
-1 -47 c-1 -30 3 -48 11 -51 9 -3 12 11 12 50 0 46 3 55 20 60 11 3 20 10 20
17 0 7 -8 9 -20 5 -11 -4 -20 -2 -20 4 0 6 9 11 19 11 13 0 23 11 31 35 13 40
7 55 -21 55 -10 0 -19 5 -19 10 0 6 7 10 15 10 8 0 15 7 15 16 0 10 -6 14 -15
10 -11 -4 -15 1 -15 19 0 16 -6 25 -15 25 -10 0 -15 -10 -15 -30z m40 -120 c0
-5 -5 -10 -11 -10 -5 0 -7 5 -4 10 3 6 8 10 11 10 2 0 4 -4 4 -10z"/>
</g>
</svg>
