<?xml version="1.0" standalone="no"?>
<!DOCTYPE svg PUBLIC "-//W3C//DTD SVG 20010904//EN"
 "http://www.w3.org/TR/2001/REC-SVG-20010904/DTD/svg10.dtd">
<svg version="1.0" xmlns="http://www.w3.org/2000/svg"
 width="50.000000pt" height="725.000000pt" viewBox="0 0 50.000000 725.000000"
 preserveAspectRatio="xMidYMid meet">
<metadata>
Created by potrace 1.16, written by Peter Selinger 2001-2019
</metadata>
<g transform="translate(0.000000,725.000000) scale(0.100000,-0.100000)"
fill="#000000" stroke="none">
<path d="M118 7008 c-4 -134 -2 -158 12 -158 12 0 20 68 20 183 0 85 -3 107
-14 107 -11 0 -15 -28 -18 -132z"/>
<path d="M309 6695 c-3 -2 -46 -5 -97 -7 l-92 -2 0 -102 c0 -56 -2 -114 -5
-130 -6 -30 9 -64 22 -51 4 4 9 63 11 131 l4 124 37 6 c20 3 64 6 97 6 47 0
63 -4 68 -16 11 -29 7 -212 -5 -216 -19 -6 0 -50 19 -46 15 3 18 23 22 143 3
77 1 146 -4 153 -8 11 -67 17 -77 7z"/>
<path d="M309 6245 c-3 -2 -46 -5 -97 -7 l-92 -2 0 -102 c0 -56 -2 -114 -5
-130 -6 -30 9 -64 22 -51 4 4 9 63 11 131 l4 124 37 6 c20 3 64 6 97 6 47 0
63 -4 68 -16 11 -29 7 -212 -5 -216 -19 -6 0 -50 19 -46 15 3 18 23 22 143 3
77 1 146 -4 153 -8 11 -67 17 -77 7z"/>
<path d="M233 6197 c-52 -13 -58 -32 -7 -24 32 5 34 4 28 -15 -3 -11 -2 -19 2
-16 44 20 64 32 64 39 0 8 -35 31 -42 28 -2 -1 -22 -7 -45 -12z"/>
<path d="M309 5795 c-3 -2 -46 -5 -97 -7 l-92 -2 0 -102 c0 -56 -2 -114 -5
-130 -6 -30 9 -64 22 -51 4 4 9 63 11 131 l4 124 37 6 c20 3 64 6 97 6 47 0
63 -4 68 -16 11 -29 7 -212 -5 -216 -19 -6 0 -50 19 -46 15 3 18 23 22 143 3
77 1 146 -4 153 -8 11 -67 17 -77 7z"/>
<path d="M233 5747 c-52 -13 -58 -32 -8 -24 34 6 49 -8 22 -19 -10 -4 -13 -19
-9 -56 3 -32 1 -53 -7 -57 -15 -9 -3 -41 15 -41 16 0 28 56 22 106 -4 30 0 39
21 52 14 9 28 18 31 20 6 4 -31 33 -39 31 -3 -1 -25 -7 -48 -12z"/>
<path d="M309 5345 c-3 -2 -46 -5 -97 -7 l-92 -2 0 -102 c0 -56 -2 -114 -5
-130 -6 -30 9 -64 22 -51 4 4 9 63 11 131 l4 124 37 6 c20 3 64 6 97 6 47 0
63 -4 68 -16 11 -29 7 -212 -5 -216 -19 -6 0 -50 19 -46 15 3 18 23 22 143 3
77 1 146 -4 153 -8 11 -67 17 -77 7z"/>
<path d="M233 5297 c-52 -13 -58 -32 -8 -24 35 6 49 -8 19 -20 -8 -3 -13 -11
-10 -18 5 -15 -15 -25 -51 -25 -15 0 -23 -5 -20 -12 2 -8 18 -12 41 -10 32 3
36 0 36 -22 0 -13 -5 -26 -11 -28 -14 -5 0 -38 16 -38 14 0 25 31 25 73 0 25
3 27 41 27 28 0 39 4 36 13 -2 6 -20 12 -40 12 -48 0 -54 10 -20 31 15 10 30
20 33 22 6 4 -31 33 -39 31 -3 -1 -25 -7 -48 -12z"/>
<path d="M309 4895 c-3 -2 -46 -5 -97 -7 l-92 -2 0 -102 c0 -56 -2 -114 -5
-130 -9 -48 0 -51 115 -42 92 8 106 7 117 -8 7 -9 19 -14 27 -11 12 5 15 33
18 144 2 76 -1 144 -6 151 -8 11 -67 17 -77 7z m45 -41 c3 -9 6 -60 6 -115 l0
-99 -107 0 -108 0 3 109 3 110 27 4 c15 2 59 5 98 6 57 1 73 -2 78 -15z"/>
<path d="M233 4847 c-52 -13 -58 -32 -8 -24 35 6 49 -8 19 -20 -8 -3 -13 -11
-10 -18 5 -15 -15 -25 -51 -25 -15 0 -23 -5 -20 -12 2 -8 18 -12 41 -10 32 3
36 0 36 -22 0 -13 -5 -26 -11 -28 -14 -5 0 -38 16 -38 14 0 25 31 25 73 0 25
3 27 41 27 28 0 39 4 36 13 -2 6 -20 12 -40 12 -48 0 -54 10 -20 31 15 10 30
20 33 22 6 4 -31 33 -39 31 -3 -1 -25 -7 -48 -12z"/>
</g>
</svg>
