<?xml version="1.0" standalone="no"?>
<!DOCTYPE svg PUBLIC "-//W3C//DTD SVG 20010904//EN"
 "http://www.w3.org/TR/2001/REC-SVG-20010904/DTD/svg10.dtd">
<svg version="1.0" xmlns="http://www.w3.org/2000/svg"
 width="50.000000pt" height="725.000000pt" viewBox="0 0 50.000000 725.000000"
 preserveAspectRatio="xMidYMid meet">
<metadata>
Created by potrace 1.16, written by Peter Selinger 2001-2019
</metadata>
<g transform="translate(0.000000,725.000000) scale(0.100000,-0.100000)"
fill="#000000" stroke="none">
<path d="M124 6995 c-1 -116 2 -145 12 -145 11 0 14 23 16 95 4 186 4 190 -12
193 -13 2 -15 -20 -16 -143z"/>
<path d="M280 6691 c0 -5 15 -11 33 -13 l32 -3 0 -140 c1 -124 2 -140 18 -143
15 -3 17 9 19 127 1 72 2 141 2 154 1 20 -4 22 -51 25 -30 2 -53 -1 -53 -7z"/>
<path d="M124 6545 c-1 -107 2 -145 11 -145 9 0 14 37 18 126 6 141 7 144 75
144 23 0 42 5 42 10 0 6 -31 10 -72 10 l-73 0 -1 -145z"/>
<path d="M280 6241 c0 -5 15 -11 33 -13 l32 -3 0 -140 c1 -124 2 -140 18 -143
15 -3 17 9 19 127 1 72 2 141 2 154 1 20 -4 22 -51 25 -30 2 -53 -1 -53 -7z"/>
<path d="M124 6095 c-1 -107 2 -145 11 -145 9 0 14 37 18 126 6 141 7 144 75
144 23 0 42 5 42 10 0 6 -31 10 -72 10 l-73 0 -1 -145z"/>
<path d="M213 6173 c-34 -4 -46 -23 -15 -23 37 0 92 13 92 21 0 9 -17 9 -77 2z"/>
<path d="M280 5791 c0 -5 15 -11 33 -13 l32 -3 0 -140 c1 -124 2 -140 18 -143
15 -3 17 9 19 127 1 72 2 141 2 154 1 20 -4 22 -51 25 -30 2 -53 -1 -53 -7z"/>
<path d="M124 5645 c-1 -107 2 -145 11 -145 9 0 14 37 18 126 6 141 7 144 75
144 23 0 42 5 42 10 0 6 -31 10 -72 10 l-73 0 -1 -145z"/>
<path d="M213 5723 c-34 -4 -46 -23 -15 -23 37 0 92 13 92 21 0 9 -17 9 -77 2z"/>
<path d="M164 5664 c3 -9 6 -20 6 -25 0 -5 5 -9 10 -9 6 0 10 11 10 25 0 16
-6 25 -16 25 -11 0 -14 -5 -10 -16z"/>
<path d="M280 5341 c0 -5 15 -11 33 -13 l32 -3 0 -140 c1 -124 2 -140 18 -143
15 -3 17 9 19 127 1 72 2 141 2 154 1 20 -4 22 -51 25 -30 2 -53 -1 -53 -7z"/>
<path d="M124 5195 c-1 -107 2 -145 11 -145 9 0 14 37 18 126 6 141 7 144 75
144 23 0 42 5 42 10 0 6 -31 10 -72 10 l-73 0 -1 -145z"/>
<path d="M213 5273 c-34 -4 -46 -23 -15 -23 37 0 92 13 92 21 0 9 -17 9 -77 2z"/>
<path d="M187 5233 c-21 -3 -27 -9 -23 -20 3 -8 6 -19 6 -24 0 -5 5 -9 10 -9
6 0 10 7 10 15 0 8 5 15 10 15 6 0 10 -7 10 -15 0 -22 18 -18 31 6 9 17 8 23
-2 30 -8 5 -16 8 -19 7 -3 0 -18 -3 -33 -5z"/>
<path d="M280 4891 c0 -5 15 -11 33 -13 l32 -3 0 -140 c1 -124 2 -140 18 -143
15 -3 17 9 19 127 1 72 2 141 2 154 1 20 -4 22 -51 25 -30 2 -53 -1 -53 -7z"/>
<path d="M124 4745 c-1 -107 2 -145 11 -145 9 0 14 37 18 126 6 141 7 144 75
144 23 0 42 5 42 10 0 6 -31 10 -72 10 l-73 0 -1 -145z"/>
<path d="M213 4823 c-34 -4 -46 -23 -15 -23 37 0 92 13 92 21 0 9 -17 9 -77 2z"/>
<path d="M188 4783 c-16 -2 -28 -6 -28 -7 0 -2 5 -17 11 -35 8 -22 16 -30 26
-27 8 3 20 6 28 6 17 0 27 53 12 62 -7 4 -14 7 -17 6 -3 0 -17 -3 -32 -5z m22
-33 c0 -5 -4 -10 -10 -10 -5 0 -10 5 -10 10 0 6 5 10 10 10 6 0 10 -4 10 -10z"/>
<path d="M280 4441 c0 -5 15 -11 33 -13 l32 -3 0 -140 c1 -124 2 -140 18 -143
15 -3 17 9 19 127 1 72 2 141 2 154 1 20 -4 22 -51 25 -30 2 -53 -1 -53 -7z"/>
<path d="M124 4295 c-1 -107 2 -145 11 -145 9 0 14 37 18 126 6 141 7 144 75
144 23 0 42 5 42 10 0 6 -31 10 -72 10 l-73 0 -1 -145z"/>
<path d="M213 4373 c-34 -4 -46 -23 -15 -23 37 0 92 13 92 21 0 9 -17 9 -77 2z"/>
<path d="M188 4333 c-16 -2 -28 -6 -28 -7 0 -2 5 -17 11 -35 8 -22 16 -30 26
-27 8 3 20 6 28 6 17 0 27 53 12 62 -7 4 -14 7 -17 6 -3 0 -17 -3 -32 -5z m22
-33 c0 -5 -4 -10 -10 -10 -5 0 -10 5 -10 10 0 6 5 10 10 10 6 0 10 -4 10 -10z"/>
<path d="M193 4248 c-33 -11 -41 -22 -23 -33 12 -7 70 22 70 35 0 12 -4 11
-47 -2z"/>
<path d="M280 3991 c0 -5 15 -11 33 -13 l32 -3 3 -92 c2 -83 1 -92 -14 -86
-23 9 -67 105 -52 114 8 5 6 12 -6 24 -10 10 -14 25 -11 36 6 17 0 19 -67 19
l-73 0 -1 -145 c-1 -107 2 -145 11 -145 9 0 14 37 18 126 5 132 9 144 53 144
20 0 34 -17 34 -41 0 -5 -13 -9 -30 -9 -16 0 -30 -5 -30 -11 0 -6 14 -9 33 -7
30 3 33 0 54 -50 23 -58 49 -92 69 -92 7 0 11 -12 10 -32 -1 -23 4 -33 17 -36
15 -3 17 9 19 127 1 72 2 141 2 154 1 20 -4 22 -51 25 -30 2 -53 -1 -53 -7z"/>
<path d="M188 3883 c-16 -2 -28 -6 -28 -7 0 -2 5 -17 11 -35 8 -22 16 -30 26
-27 8 3 20 6 28 6 17 0 27 53 12 62 -7 4 -14 7 -17 6 -3 0 -17 -3 -32 -5z m22
-33 c0 -5 -4 -10 -10 -10 -5 0 -10 5 -10 10 0 6 5 10 10 10 6 0 10 -4 10 -10z"/>
<path d="M193 3798 c-33 -11 -41 -22 -23 -33 12 -7 70 22 70 35 0 12 -4 11
-47 -2z"/>
<path d="M280 3541 c0 -5 15 -11 33 -13 l32 -3 3 -92 c2 -83 1 -92 -14 -86
-23 9 -67 105 -52 114 8 5 6 12 -6 24 -10 10 -14 25 -11 36 6 17 0 19 -67 19
l-73 0 -1 -145 c-1 -107 2 -145 11 -145 9 0 14 37 18 126 5 132 9 144 53 144
20 0 34 -17 34 -41 0 -5 -13 -9 -30 -9 -16 0 -30 -5 -30 -11 0 -6 14 -9 33 -7
30 3 33 0 54 -50 23 -58 49 -92 69 -92 7 0 11 -12 10 -32 -1 -23 4 -33 17 -36
15 -3 17 9 19 127 1 72 2 141 2 154 1 20 -4 22 -51 25 -30 2 -53 -1 -53 -7z"/>
<path d="M290 3514 c0 -13 21 -44 30 -44 16 0 11 37 -6 44 -19 7 -24 8 -24 0z"/>
<path d="M188 3433 c-16 -2 -28 -6 -28 -7 0 -2 5 -17 11 -35 8 -22 16 -30 26
-27 8 3 20 6 28 6 17 0 27 53 12 62 -7 4 -14 7 -17 6 -3 0 -17 -3 -32 -5z m22
-33 c0 -5 -4 -10 -10 -10 -5 0 -10 5 -10 10 0 6 5 10 10 10 6 0 10 -4 10 -10z"/>
<path d="M193 3348 c-33 -11 -41 -22 -23 -33 12 -7 70 22 70 35 0 12 -4 11
-47 -2z"/>
<path d="M280 3091 c0 -6 14 -11 30 -11 17 0 33 -6 36 -13 3 -8 4 -51 2 -96
-3 -80 -3 -82 -23 -67 -18 13 -19 18 -8 47 15 40 1 64 -20 34 -13 -17 -14 -17
-19 3 -3 12 -1 23 5 25 8 2 5 10 -6 21 -11 11 -15 26 -12 37 6 17 0 19 -67 19
l-73 0 -1 -145 c-1 -107 2 -145 11 -145 9 0 14 37 18 126 5 132 9 144 53 144
20 0 34 -17 34 -41 0 -5 -13 -9 -30 -9 -16 0 -30 -5 -30 -11 0 -7 13 -10 34
-7 33 4 35 2 47 -39 11 -41 10 -45 -11 -68 -30 -32 -18 -46 13 -17 l24 22 18
-20 c10 -11 24 -20 31 -20 7 0 11 -12 10 -32 -1 -23 4 -33 17 -36 15 -3 17 9
19 127 1 72 2 141 2 154 1 20 -4 22 -51 25 -32 2 -53 -1 -53 -7z"/>
<path d="M290 3064 c0 -13 21 -44 30 -44 16 0 11 37 -6 44 -19 7 -24 8 -24 0z"/>
<path d="M188 2983 c-16 -2 -28 -6 -28 -7 0 -2 5 -17 11 -35 8 -22 16 -30 26
-27 8 3 20 6 28 6 17 0 27 53 12 62 -7 4 -14 7 -17 6 -3 0 -17 -3 -32 -5z m22
-33 c0 -5 -4 -10 -10 -10 -5 0 -10 5 -10 10 0 6 5 10 10 10 6 0 10 -4 10 -10z"/>
<path d="M193 2898 c-33 -11 -41 -22 -23 -33 12 -7 70 22 70 35 0 12 -4 11
-47 -2z"/>
<path d="M280 2641 c0 -6 14 -11 30 -11 17 0 33 -6 36 -13 3 -8 4 -51 2 -96
-3 -80 -3 -82 -23 -67 -18 13 -19 18 -8 47 15 40 1 64 -20 34 -13 -17 -14 -17
-19 3 -3 12 -1 23 5 25 8 2 5 10 -6 21 -11 11 -15 26 -12 37 6 17 0 19 -67 19
l-73 0 -1 -146 c-1 -144 -1 -146 20 -140 12 3 60 9 107 12 74 6 87 5 92 -10 4
-9 13 -16 22 -16 13 0 15 21 17 130 1 72 2 140 2 153 1 20 -4 22 -51 25 -32 2
-53 -1 -53 -7z m-46 -37 c11 -28 7 -34 -24 -34 -16 0 -30 -5 -30 -11 0 -7 13
-10 34 -7 33 4 35 2 47 -39 11 -41 10 -45 -11 -68 -30 -32 -18 -46 13 -17 l24
22 18 -20 c10 -11 24 -20 32 -20 7 0 13 -4 13 -10 0 -6 -41 -10 -102 -10
l-101 0 6 107 c4 70 10 109 19 114 21 14 55 10 62 -7z"/>
<path d="M188 2533 c-16 -2 -28 -6 -28 -7 0 -2 5 -17 11 -35 8 -22 16 -30 26
-27 8 3 20 6 28 6 17 0 27 53 12 62 -7 4 -14 7 -17 6 -3 0 -17 -3 -32 -5z m22
-33 c0 -5 -4 -10 -10 -10 -5 0 -10 5 -10 10 0 6 5 10 10 10 6 0 10 -4 10 -10z"/>
<path d="M193 2448 c-33 -11 -41 -22 -23 -33 12 -7 70 22 70 35 0 12 -4 11
-47 -2z"/>
<path d="M290 2614 c0 -13 21 -44 30 -44 16 0 11 37 -6 44 -19 7 -24 8 -24 0z"/>
</g>
</svg>
