<?xml version="1.0" standalone="no"?>
<!DOCTYPE svg PUBLIC "-//W3C//DTD SVG 20010904//EN"
 "http://www.w3.org/TR/2001/REC-SVG-20010904/DTD/svg10.dtd">
<svg version="1.0" xmlns="http://www.w3.org/2000/svg"
 width="50.000000pt" height="725.000000pt" viewBox="0 0 50.000000 725.000000"
 preserveAspectRatio="xMidYMid meet">
<metadata>
Created by potrace 1.16, written by Peter Selinger 2001-2019
</metadata>
<g transform="translate(0.000000,725.000000) scale(0.100000,-0.100000)"
fill="#000000" stroke="none">
<path d="M128 7053 c-10 -2 -18 -9 -18 -14 0 -10 20 -11 73 -3 20 4 37 11 37
15 0 9 -61 10 -92 2z"/>
<path d="M147 6660 c5 -46 4 -52 -16 -57 -27 -7 -28 -23 -1 -23 17 0 20 -7 20
-40 0 -53 18 -51 22 3 2 35 7 43 26 45 27 4 30 22 3 22 -17 0 -20 8 -23 47 -2
36 -7 49 -20 51 -15 3 -16 -3 -11 -48z"/>
<path d="M147 6210 c5 -46 4 -52 -16 -57 -27 -7 -28 -23 -1 -23 16 0 20 -7 20
-31 0 -25 -6 -33 -30 -42 -32 -12 -40 -34 -16 -43 14 -5 115 55 116 69 0 4
-12 4 -26 1 -23 -6 -25 -4 -22 22 2 21 9 30 26 32 27 4 30 22 3 22 -17 0 -20
8 -23 47 -2 36 -7 49 -20 51 -15 3 -16 -3 -11 -48z"/>
<path d="M147 5760 c5 -46 4 -52 -16 -57 -27 -7 -28 -23 -1 -23 16 0 20 -7 20
-31 0 -25 -6 -33 -30 -42 -32 -12 -40 -34 -16 -43 14 -5 115 55 116 69 0 4
-12 4 -26 1 -23 -6 -25 -4 -22 22 2 21 9 30 26 32 27 4 30 22 3 22 -17 0 -20
8 -23 47 -2 36 -7 49 -20 51 -15 3 -16 -3 -11 -48z"/>
<path d="M306 5764 c-78 -13 -95 -19 -84 -30 11 -11 199 18 195 30 -5 16 -21
16 -111 0z"/>
<path d="M147 5310 c5 -46 4 -52 -16 -57 -27 -7 -28 -23 -1 -23 16 0 20 -7 20
-31 0 -25 -6 -33 -30 -42 -32 -12 -40 -34 -16 -43 14 -5 115 55 116 69 0 4
-12 4 -26 1 -23 -6 -25 -4 -22 22 2 21 9 30 26 32 27 4 30 22 3 22 -17 0 -20
8 -23 47 -2 36 -7 49 -20 51 -15 3 -16 -3 -11 -48z"/>
<path d="M335 5319 c-27 -5 -65 -11 -82 -14 -49 -9 -42 -29 7 -22 22 3 40 3
40 1 0 -16 -47 -91 -77 -125 -41 -46 -38 -61 7 -29 30 21 110 129 110 148 0
13 25 22 57 22 15 0 23 5 21 13 -6 16 -22 17 -83 6z"/>
<path d="M147 4860 c5 -46 4 -52 -16 -57 -27 -7 -28 -23 -1 -23 16 0 20 -7 20
-31 0 -25 -6 -33 -30 -42 -32 -12 -40 -34 -16 -43 14 -5 115 55 116 69 0 4
-12 4 -26 1 -23 -6 -25 -4 -22 22 2 21 9 30 26 32 27 4 30 22 3 22 -17 0 -20
8 -23 47 -2 36 -7 49 -20 51 -15 3 -16 -3 -11 -48z"/>
<path d="M335 4869 c-27 -5 -65 -11 -82 -14 -49 -9 -42 -29 7 -22 22 3 40 3
40 1 0 -16 -47 -91 -77 -125 -20 -22 -33 -42 -30 -45 8 -8 63 31 81 57 20 29
25 12 15 -51 -9 -60 -4 -93 14 -87 8 2 13 37 13 102 2 127 20 165 77 165 19 0
27 4 25 13 -6 16 -22 17 -83 6z"/>
<path d="M147 4410 c5 -46 4 -52 -16 -57 -27 -7 -28 -23 -1 -23 16 0 20 -7 20
-31 0 -25 -6 -33 -30 -42 -32 -12 -40 -34 -16 -43 14 -5 115 55 116 69 0 4
-12 4 -26 1 -23 -6 -25 -4 -22 22 2 21 9 30 26 32 27 4 30 22 3 22 -17 0 -20
8 -23 47 -2 36 -7 49 -20 51 -15 3 -16 -3 -11 -48z"/>
<path d="M335 4419 c-27 -5 -65 -11 -82 -14 -49 -9 -42 -29 7 -22 22 3 40 3
40 1 0 -16 -47 -91 -77 -125 -20 -22 -33 -42 -30 -45 8 -8 63 31 81 57 20 29
25 12 15 -51 -9 -60 -4 -93 14 -87 7 2 13 31 15 71 l3 67 41 -36 c41 -35 68
-45 68 -24 0 25 -23 48 -64 64 -51 20 -59 37 -37 80 20 38 30 45 64 45 19 0
27 4 25 13 -6 16 -22 17 -83 6z"/>
</g>
</svg>
