<?xml version="1.0" standalone="no"?>
<!DOCTYPE svg PUBLIC "-//W3C//DTD SVG 20010904//EN"
 "http://www.w3.org/TR/2001/REC-SVG-20010904/DTD/svg10.dtd">
<svg version="1.0" xmlns="http://www.w3.org/2000/svg"
 width="50.000000pt" height="725.000000pt" viewBox="0 0 50.000000 725.000000"
 preserveAspectRatio="xMidYMid meet">
<metadata>
Created by potrace 1.16, written by Peter Selinger 2001-2019
</metadata>
<g transform="translate(0.000000,725.000000) scale(0.100000,-0.100000)"
fill="#000000" stroke="none">
<path d="M141 7031 c-14 -4 -27 -13 -29 -20 -3 -9 2 -11 14 -8 11 3 36 8 57
12 20 3 37 10 37 15 0 11 -42 12 -79 1z"/>
<path d="M147 6631 c5 -43 3 -49 -16 -54 -25 -6 -29 -29 -3 -25 13 2 18 -5 20
-34 4 -51 22 -49 22 2 0 34 4 41 25 46 33 8 32 24 -1 24 -25 0 -26 1 -20 45 7
41 5 45 -13 45 -18 0 -20 -5 -14 -49z"/>
<path d="M147 6181 c5 -43 3 -49 -16 -54 -25 -6 -29 -29 -3 -25 11 2 18 -5 20
-20 4 -28 -12 -50 -40 -54 -27 -4 -34 -23 -12 -32 9 -4 38 7 70 26 57 35 69
52 29 42 -22 -5 -25 -3 -25 20 0 19 6 27 25 32 33 8 32 24 -1 24 -25 0 -26 1
-20 45 7 41 5 45 -13 45 -18 0 -20 -5 -14 -49z"/>
<path d="M147 5731 c5 -43 3 -49 -16 -54 -25 -6 -29 -29 -3 -25 11 2 18 -5 20
-20 4 -28 -12 -50 -40 -54 -27 -4 -34 -23 -12 -32 9 -4 38 7 70 26 57 35 69
52 29 42 -22 -5 -25 -3 -25 20 0 19 6 27 25 32 33 8 32 24 -1 24 -25 0 -26 1
-20 45 7 41 5 45 -13 45 -18 0 -20 -5 -14 -49z"/>
<path d="M287 5747 c-33 -6 -56 -15 -54 -21 2 -6 15 -10 28 -8 90 9 133 19
137 30 4 14 -25 14 -111 -1z"/>
<path d="M147 5281 c5 -43 3 -49 -16 -54 -25 -6 -29 -29 -3 -25 11 2 18 -5 20
-20 4 -28 -12 -50 -40 -54 -27 -4 -34 -24 -12 -32 10 -4 34 5 63 23 28 19 48
26 52 19 4 -7 13 -7 27 1 27 14 112 112 112 128 0 7 9 13 19 13 20 0 37 17 27
27 -8 8 -166 -19 -166 -29 0 -15 26 -19 53 -9 34 13 34 4 -2 -47 -35 -47 -45
-55 -83 -59 -24 -2 -28 1 -28 22 0 18 7 26 25 31 33 8 32 24 -1 24 -25 0 -26
1 -20 45 7 41 5 45 -13 45 -18 0 -20 -5 -14 -49z"/>
<path d="M147 4831 c5 -43 3 -49 -16 -54 -25 -6 -29 -29 -3 -25 11 2 18 -5 20
-20 4 -28 -12 -50 -40 -54 -27 -4 -34 -24 -12 -32 10 -4 35 5 63 24 25 16 48
25 49 20 6 -16 18 -12 51 16 l31 26 0 -51 c0 -39 4 -51 15 -51 12 0 15 15 15
74 0 53 4 77 15 86 8 7 15 19 15 26 0 8 9 14 19 14 20 0 37 17 27 27 -8 8
-166 -19 -166 -29 0 -15 26 -19 53 -9 34 13 34 4 -2 -47 -35 -47 -45 -55 -83
-59 -24 -2 -28 1 -28 22 0 18 7 26 25 31 33 8 32 24 -1 24 -25 0 -26 1 -20 45
7 41 5 45 -13 45 -18 0 -20 -5 -14 -49z"/>
<path d="M147 4381 c5 -43 3 -49 -16 -54 -25 -6 -29 -29 -3 -25 11 2 18 -5 20
-20 4 -28 -12 -50 -40 -54 -27 -4 -34 -24 -12 -32 10 -4 35 5 63 24 25 16 48
25 49 20 6 -16 18 -12 51 16 l31 26 0 -51 c0 -39 4 -51 15 -51 12 0 15 13 15
56 l0 56 23 -16 c67 -49 68 -49 79 -38 17 17 -14 46 -62 61 -43 13 -48 22 -25
41 8 7 15 19 15 26 0 8 9 14 19 14 20 0 37 17 27 27 -8 8 -166 -19 -166 -29 0
-15 26 -19 53 -9 34 13 34 4 -2 -47 -35 -47 -45 -55 -83 -59 -24 -2 -28 1 -28
22 0 18 7 26 25 31 33 8 32 24 -1 24 -25 0 -26 1 -20 45 7 41 5 45 -13 45 -18
0 -20 -5 -14 -49z"/>
<path d="M147 3931 c5 -43 3 -49 -16 -54 -25 -6 -29 -29 -3 -25 11 2 18 -5 20
-20 4 -28 -12 -50 -40 -54 -27 -4 -34 -24 -12 -32 10 -4 35 5 63 24 25 16 48
25 49 20 6 -16 18 -12 51 16 l31 26 0 -45 c0 -48 -9 -57 -56 -57 -13 0 -24 -5
-24 -11 0 -7 34 -8 108 -3 59 3 109 9 112 11 13 12 -30 23 -67 18 l-43 -6 0
52 0 51 23 -16 c67 -49 68 -49 79 -38 17 17 -14 46 -62 61 -43 13 -48 22 -25
41 8 7 15 19 15 26 0 8 9 14 19 14 20 0 37 17 27 27 -8 8 -166 -19 -166 -29 0
-15 26 -19 53 -9 34 13 34 4 -2 -47 -35 -47 -45 -55 -83 -59 -24 -2 -28 1 -28
22 0 18 7 26 25 31 33 8 32 24 -1 24 -25 0 -26 1 -20 45 7 41 5 45 -13 45 -18
0 -20 -5 -14 -49z"/>
</g>
</svg>
