<?xml version="1.0" standalone="no"?>
<!DOCTYPE svg PUBLIC "-//W3C//DTD SVG 20010904//EN"
 "http://www.w3.org/TR/2001/REC-SVG-20010904/DTD/svg10.dtd">
<svg version="1.0" xmlns="http://www.w3.org/2000/svg"
 width="50.000000pt" height="725.000000pt" viewBox="0 0 50.000000 725.000000"
 preserveAspectRatio="xMidYMid meet">
<metadata>
Created by potrace 1.16, written by Peter Selinger 2001-2019
</metadata>
<g transform="translate(0.000000,725.000000) scale(0.100000,-0.100000)"
fill="#000000" stroke="none">
<path d="M240 7132 c-44 -21 -44 -21 -37 -28 10 -11 117 19 117 33 0 18 -37
16 -80 -5z"/>
<path d="M170 7100 c0 -5 5 -10 10 -10 6 0 10 5 10 10 0 6 -4 10 -10 10 -5 0
-10 -4 -10 -10z"/>
<path d="M240 6682 c-44 -21 -44 -21 -37 -28 10 -11 117 19 117 33 0 18 -37
16 -80 -5z"/>
<path d="M170 6650 c0 -5 5 -10 10 -10 6 0 10 5 10 10 0 6 -4 10 -10 10 -5 0
-10 -4 -10 -10z"/>
<path d="M193 6618 c-144 -15 -114 -30 45 -23 149 7 162 9 162 25 0 12 -77 11
-207 -2z"/>
<path d="M238 6232 c-39 -17 -49 -32 -23 -32 8 0 15 -6 15 -14 0 -13 -48 -26
-102 -26 -16 0 -28 -5 -28 -11 0 -7 23 -10 68 -7 l67 3 3 -97 c1 -54 7 -98 12
-98 5 0 11 44 12 98 l3 97 64 5 c41 3 66 10 69 18 3 11 -10 13 -62 10 -62 -3
-67 -2 -64 17 2 12 12 21 26 23 12 2 22 10 22 18 0 18 -35 17 -82 -4z"/>
<path d="M170 6200 c0 -5 5 -10 10 -10 6 0 10 5 10 10 0 6 -4 10 -10 10 -5 0
-10 -4 -10 -10z"/>
<path d="M238 5782 c-39 -17 -49 -32 -23 -32 8 0 15 -6 15 -14 0 -13 -48 -26
-102 -26 -16 0 -28 -5 -28 -11 0 -7 23 -10 68 -7 l67 3 3 -97 c1 -54 7 -98 12
-98 5 0 11 44 12 98 l3 97 64 5 c41 3 66 10 69 18 3 11 -10 13 -62 10 -62 -3
-67 -2 -64 17 2 12 12 21 26 23 12 2 22 10 22 18 0 18 -35 17 -82 -4z"/>
<path d="M170 5750 c0 -5 5 -10 10 -10 6 0 10 5 10 10 0 6 -4 10 -10 10 -5 0
-10 -4 -10 -10z"/>
<path d="M150 5678 c2 -24 30 -93 40 -96 9 -3 11 1 7 12 -4 10 -7 33 -7 52 0
27 -4 34 -20 34 -11 0 -20 -1 -20 -2z"/>
<path d="M238 5332 c-39 -17 -49 -32 -23 -32 8 0 15 -6 15 -14 0 -13 -48 -26
-102 -26 -16 0 -28 -5 -28 -11 0 -7 23 -10 68 -7 l67 3 3 -97 c1 -54 7 -98 12
-98 5 0 11 44 12 98 l3 97 64 5 c41 3 66 10 69 18 3 11 -10 13 -62 10 -62 -3
-67 -2 -64 17 2 12 12 21 26 23 12 2 22 10 22 18 0 18 -35 17 -82 -4z"/>
<path d="M170 5300 c0 -5 5 -10 10 -10 6 0 10 5 10 10 0 6 -4 10 -10 10 -5 0
-10 -4 -10 -10z"/>
<path d="M156 5205 c5 -22 3 -25 -20 -25 -14 0 -26 -4 -26 -10 0 -5 13 -10 29
-10 16 0 31 -6 35 -15 8 -23 28 -18 21 5 -5 16 -2 20 14 20 12 0 21 5 21 10 0
6 -9 10 -20 10 -13 0 -20 7 -20 20 0 13 -7 20 -20 20 -17 0 -19 -5 -14 -25z"/>
<path d="M238 4882 c-39 -17 -49 -32 -23 -32 8 0 15 -6 15 -14 0 -13 -48 -26
-102 -26 -16 0 -28 -5 -28 -11 0 -7 23 -10 68 -7 l67 3 3 -97 c1 -54 7 -98 12
-98 5 0 11 44 12 98 l3 97 64 5 c41 3 66 10 69 18 3 11 -10 13 -62 10 -62 -3
-67 -2 -64 17 2 12 12 21 26 23 12 2 22 10 22 18 0 18 -35 17 -82 -4z"/>
<path d="M170 4850 c0 -5 5 -10 10 -10 6 0 10 5 10 10 0 6 -4 10 -10 10 -5 0
-10 -4 -10 -10z"/>
<path d="M156 4755 c5 -22 3 -25 -20 -25 -14 0 -26 -4 -26 -10 0 -5 13 -10 29
-10 16 0 31 -6 35 -15 8 -23 28 -18 21 5 -5 16 -2 20 14 20 12 0 21 5 21 10 0
6 -9 10 -20 10 -13 0 -20 7 -20 20 0 13 -7 20 -20 20 -17 0 -19 -5 -14 -25z"/>
<path d="M313 4753 c-24 -2 -43 -8 -43 -14 0 -10 72 -12 108 -3 12 4 22 10 22
15 0 9 -6 9 -87 2z"/>
<path d="M238 4432 c-39 -17 -49 -32 -23 -32 8 0 15 -6 15 -14 0 -13 -48 -26
-102 -26 -16 0 -28 -5 -28 -11 0 -7 23 -10 68 -7 l67 3 3 -97 c1 -54 7 -98 12
-98 5 0 11 44 12 98 l3 97 28 3 c25 3 28 0 25 -20 -2 -15 -11 -24 -25 -26 -28
-4 -30 -22 -3 -22 11 0 20 -7 20 -15 0 -8 5 -15 10 -15 6 0 10 6 10 14 0 8 15
17 35 20 40 8 48 26 11 26 -35 0 -43 38 -8 42 14 2 27 9 30 16 3 11 -10 13
-62 10 -62 -3 -67 -2 -64 17 2 12 12 21 26 23 12 2 22 10 22 18 0 18 -35 17
-82 -4z"/>
<path d="M170 4400 c0 -5 5 -10 10 -10 6 0 10 5 10 10 0 6 -4 10 -10 10 -5 0
-10 -4 -10 -10z"/>
<path d="M156 4305 c5 -22 3 -25 -20 -25 -14 0 -26 -4 -26 -10 0 -5 13 -10 29
-10 16 0 31 -6 35 -15 8 -23 28 -18 21 5 -5 16 -2 20 14 20 12 0 21 5 21 10 0
6 -9 10 -20 10 -13 0 -20 7 -20 20 0 13 -7 20 -20 20 -17 0 -19 -5 -14 -25z"/>
<path d="M238 3982 c-39 -17 -49 -32 -23 -32 8 0 15 -6 15 -14 0 -13 -48 -26
-102 -26 -16 0 -28 -5 -28 -11 0 -7 23 -10 68 -7 l67 3 3 -54 c4 -61 -4 -71
-55 -71 -18 0 -33 -4 -33 -10 0 -5 20 -10 45 -10 41 0 45 -2 45 -25 0 -34 18
-32 22 3 3 24 7 27 46 30 23 2 42 7 42 12 0 13 -22 18 -58 12 l-33 -5 3 59 c3
56 4 59 31 62 25 3 28 0 25 -20 -2 -15 -11 -24 -25 -26 -28 -4 -30 -22 -3 -22
11 0 20 -7 20 -15 0 -8 5 -15 10 -15 6 0 10 6 10 14 0 8 15 17 35 20 40 8 48
26 11 26 -35 0 -43 38 -8 42 14 2 27 9 30 16 3 11 -10 13 -62 10 -62 -3 -67
-2 -64 17 2 12 12 21 26 23 12 2 22 10 22 18 0 18 -35 17 -82 -4z"/>
<path d="M170 3950 c0 -5 5 -10 10 -10 6 0 10 5 10 10 0 6 -4 10 -10 10 -5 0
-10 -4 -10 -10z"/>
<path d="M156 3855 c5 -22 3 -25 -20 -25 -14 0 -26 -4 -26 -10 0 -5 13 -10 29
-10 16 0 31 -6 35 -15 8 -23 28 -18 21 5 -5 16 -2 20 14 20 12 0 21 5 21 10 0
6 -9 10 -20 10 -13 0 -20 7 -20 20 0 13 -7 20 -20 20 -17 0 -19 -5 -14 -25z"/>
<path d="M238 3532 c-39 -17 -49 -32 -23 -32 8 0 15 -6 15 -14 0 -13 -48 -26
-102 -26 -16 0 -28 -5 -28 -11 0 -7 23 -10 68 -7 l67 3 3 -54 c4 -61 -4 -71
-55 -71 -18 0 -33 -4 -33 -10 0 -5 21 -10 46 -10 38 0 45 -3 42 -17 -2 -14
-15 -19 -61 -21 -31 -2 -57 -7 -57 -12 0 -12 4 -13 125 -11 107 2 135 7 135
22 0 5 -27 9 -61 9 -52 0 -60 2 -57 18 2 12 15 18 46 20 23 2 42 7 42 12 0 13
-22 18 -58 12 l-33 -5 3 59 c3 56 4 59 31 62 25 3 28 0 25 -20 -2 -15 -11 -24
-25 -26 -28 -4 -30 -22 -3 -22 11 0 20 -7 20 -15 0 -8 5 -15 10 -15 6 0 10 6
10 14 0 8 15 17 35 20 40 8 48 26 11 26 -35 0 -43 38 -8 42 14 2 27 9 30 16 3
11 -10 13 -62 10 -62 -3 -67 -2 -64 17 2 12 12 21 26 23 12 2 22 10 22 18 0
18 -35 17 -82 -4z"/>
<path d="M170 3500 c0 -5 5 -10 10 -10 6 0 10 5 10 10 0 6 -4 10 -10 10 -5 0
-10 -4 -10 -10z"/>
<path d="M156 3405 c5 -22 3 -25 -20 -25 -14 0 -26 -4 -26 -10 0 -5 13 -10 29
-10 16 0 31 -6 35 -15 8 -23 28 -18 21 5 -5 16 -2 20 14 20 12 0 21 5 21 10 0
6 -9 10 -20 10 -13 0 -20 7 -20 20 0 13 -7 20 -20 20 -17 0 -19 -5 -14 -25z"/>
</g>
</svg>
