<?xml version="1.0" standalone="no"?>
<!DOCTYPE svg PUBLIC "-//W3C//DTD SVG 20010904//EN"
 "http://www.w3.org/TR/2001/REC-SVG-20010904/DTD/svg10.dtd">
<svg version="1.0" xmlns="http://www.w3.org/2000/svg"
 width="50.000000pt" height="725.000000pt" viewBox="0 0 50.000000 725.000000"
 preserveAspectRatio="xMidYMid meet">
<metadata>
Created by potrace 1.16, written by Peter Selinger 2001-2019
</metadata>
<g transform="translate(0.000000,725.000000) scale(0.100000,-0.100000)"
fill="#000000" stroke="none">
<path d="M133 7057 c-44 -10 -58 -27 -24 -27 40 0 81 13 81 26 0 16 1 16 -57
1z"/>
<path d="M128 6645 c4 -41 3 -45 -17 -45 -11 0 -21 -4 -21 -10 0 -5 9 -10 20
-10 16 0 20 -7 20 -35 0 -24 5 -35 15 -35 11 0 15 11 15 40 0 29 4 40 15 40 8
0 15 7 15 16 0 11 -5 14 -16 10 -14 -5 -16 -1 -10 34 6 37 5 40 -18 40 -22 0
-23 -3 -18 -45z"/>
<path d="M128 6195 c4 -41 3 -45 -17 -45 -11 0 -21 -4 -21 -10 0 -5 9 -10 20
-10 16 0 20 -7 20 -31 0 -25 -6 -33 -30 -42 -31 -12 -35 -30 -7 -35 18 -4 97
46 97 60 0 6 -7 8 -15 4 -11 -4 -15 2 -15 24 0 20 5 30 15 30 8 0 15 7 15 16
0 11 -5 14 -16 10 -14 -5 -16 -1 -10 34 6 37 5 40 -18 40 -22 0 -23 -3 -18
-45z"/>
<path d="M128 5745 c4 -41 3 -45 -17 -45 -11 0 -21 -4 -21 -10 0 -5 9 -10 20
-10 16 0 20 -7 20 -31 0 -25 -6 -33 -30 -42 -31 -12 -35 -30 -7 -35 18 -4 97
46 97 60 0 6 -7 8 -15 4 -11 -4 -15 2 -15 24 0 20 5 30 15 30 8 0 15 7 15 16
0 11 -5 14 -16 10 -14 -5 -16 -1 -10 34 6 37 5 40 -18 40 -22 0 -23 -3 -18
-45z"/>
<path d="M206 5774 c-10 -27 -7 -44 9 -44 8 0 15 3 15 8 0 4 3 17 6 30 7 26
-20 32 -30 6z"/>
<path d="M328 5353 c-45 -5 -51 -23 -8 -23 20 0 30 -5 30 -15 0 -17 4 -18 38
-9 27 8 29 30 3 44 -11 5 -21 9 -23 8 -2 -1 -20 -3 -40 -5z"/>
<path d="M128 5295 c4 -41 3 -45 -17 -45 -11 0 -21 -4 -21 -10 0 -5 9 -10 20
-10 16 0 20 -7 20 -31 0 -25 -6 -33 -30 -42 -31 -12 -35 -30 -7 -35 18 -4 97
46 97 60 0 6 -7 8 -15 4 -11 -4 -15 2 -15 24 0 20 5 30 15 30 8 0 15 7 15 16
0 11 -5 14 -16 10 -14 -5 -16 -1 -10 34 6 37 5 40 -18 40 -22 0 -23 -3 -18
-45z"/>
<path d="M206 5324 c-10 -26 -7 -44 8 -44 7 0 16 9 19 20 3 12 14 20 26 20 12
0 21 5 21 10 0 17 -67 12 -74 -6z"/>
<path d="M328 4903 c-45 -5 -51 -23 -8 -23 20 0 30 -5 30 -15 0 -17 4 -18 38
-9 27 8 29 30 3 44 -11 5 -21 9 -23 8 -2 -1 -20 -3 -40 -5z"/>
<path d="M128 4845 c4 -41 3 -45 -17 -45 -11 0 -21 -4 -21 -10 0 -5 9 -10 20
-10 16 0 20 -7 20 -31 0 -25 -6 -33 -30 -42 -31 -12 -35 -30 -7 -35 18 -4 97
46 97 60 0 6 -7 8 -15 4 -11 -4 -15 2 -15 24 0 20 5 30 15 30 8 0 15 7 15 16
0 11 -5 14 -16 10 -14 -5 -16 -1 -10 34 6 37 5 40 -18 40 -22 0 -23 -3 -18
-45z"/>
<path d="M206 4874 c-10 -26 -7 -44 8 -44 7 0 16 9 19 20 3 12 14 20 26 20 12
0 21 5 21 10 0 17 -67 12 -74 -6z"/>
<path d="M273 4843 c-44 -6 -42 -23 1 -23 40 0 66 8 66 21 0 9 -7 9 -67 2z"/>
<path d="M328 4453 c-45 -5 -51 -23 -8 -23 20 0 30 -5 30 -15 0 -17 4 -18 38
-9 27 8 29 30 3 44 -11 5 -21 9 -23 8 -2 -1 -20 -3 -40 -5z"/>
<path d="M128 4395 c4 -41 3 -45 -17 -45 -11 0 -21 -4 -21 -10 0 -5 9 -10 20
-10 16 0 20 -7 20 -31 0 -25 -6 -33 -30 -42 -31 -12 -35 -30 -7 -35 18 -4 97
46 97 60 0 6 -7 8 -15 4 -11 -4 -15 2 -15 24 0 20 5 30 15 30 8 0 15 7 15 16
0 11 -5 14 -16 10 -14 -5 -16 -1 -10 34 6 37 5 40 -18 40 -22 0 -23 -3 -18
-45z"/>
<path d="M206 4424 c-10 -26 -7 -44 8 -44 7 0 16 9 19 20 3 12 14 20 26 20 12
0 21 5 21 10 0 17 -67 12 -74 -6z"/>
<path d="M273 4393 c-31 -4 -48 -23 -21 -23 6 0 1 -11 -12 -25 -13 -14 -21
-28 -17 -31 6 -6 58 27 85 53 7 7 18 13 23 13 5 0 9 5 9 10 0 10 -7 10 -67 3z"/>
<path d="M328 4003 c-45 -5 -51 -23 -8 -23 20 0 30 -5 30 -15 0 -17 4 -18 38
-9 27 8 29 30 3 44 -11 5 -21 9 -23 8 -2 -1 -20 -3 -40 -5z"/>
<path d="M128 3945 c4 -41 3 -45 -17 -45 -11 0 -21 -4 -21 -10 0 -5 9 -10 20
-10 16 0 20 -7 20 -31 0 -25 -6 -33 -30 -42 -31 -12 -35 -30 -7 -35 18 -4 97
46 97 60 0 6 -7 8 -15 4 -11 -4 -15 2 -15 24 0 20 5 30 15 30 8 0 15 7 15 16
0 11 -5 14 -16 10 -14 -5 -16 -1 -10 34 6 37 5 40 -18 40 -22 0 -23 -3 -18
-45z"/>
<path d="M206 3974 c-10 -26 -7 -44 8 -44 7 0 16 9 19 20 3 12 14 20 26 20 12
0 21 5 21 10 0 17 -67 12 -74 -6z"/>
<path d="M273 3943 c-31 -4 -48 -23 -21 -23 6 0 1 -11 -12 -25 -13 -14 -21
-28 -17 -31 6 -6 58 27 85 53 7 7 18 13 23 13 5 0 9 5 9 10 0 10 -7 10 -67 3z"/>
<path d="M275 3863 c4 -10 12 -34 17 -53 12 -44 -3 -93 -27 -84 -20 8 -20 -20
1 -36 13 -11 19 -10 37 8 28 28 30 116 4 155 -20 30 -43 37 -32 10z"/>
<path d="M328 3553 c-45 -5 -51 -23 -8 -23 20 0 30 -5 30 -15 0 -17 4 -18 38
-9 27 8 29 30 3 44 -11 5 -21 9 -23 8 -2 -1 -20 -3 -40 -5z"/>
<path d="M128 3495 c4 -41 3 -45 -17 -45 -11 0 -21 -4 -21 -10 0 -5 9 -10 20
-10 16 0 20 -7 20 -31 0 -25 -6 -33 -30 -42 -31 -12 -35 -30 -7 -35 18 -4 97
46 97 60 0 6 -7 8 -15 4 -11 -4 -15 2 -15 24 0 20 5 30 15 30 8 0 15 7 15 16
0 11 -5 14 -16 10 -14 -5 -16 -1 -10 34 6 37 5 40 -18 40 -22 0 -23 -3 -18
-45z"/>
<path d="M206 3524 c-10 -26 -7 -44 8 -44 7 0 16 9 19 20 3 12 14 20 26 20 12
0 21 5 21 10 0 17 -67 12 -74 -6z"/>
<path d="M273 3493 c-31 -4 -48 -23 -21 -23 6 0 1 -11 -12 -25 -26 -27 -21
-46 6 -24 16 13 16 12 6 -8 -7 -12 -24 -31 -38 -42 -15 -12 -25 -24 -21 -27 6
-7 63 22 72 36 12 19 24 10 30 -23 8 -42 -9 -89 -30 -81 -20 8 -20 -19 0 -36
13 -10 19 -10 34 4 39 36 33 152 -9 178 -19 12 -19 13 7 35 14 13 30 23 35 23
4 0 8 5 8 10 0 10 -7 10 -67 3z"/>
<path d="M328 3103 c-45 -5 -51 -23 -8 -23 20 0 30 -5 30 -15 0 -17 4 -18 38
-9 27 8 29 30 3 44 -11 5 -21 9 -23 8 -2 -1 -20 -3 -40 -5z"/>
<path d="M128 3045 c4 -41 3 -45 -17 -45 -11 0 -21 -4 -21 -10 0 -5 9 -10 20
-10 16 0 20 -7 20 -31 0 -25 -6 -33 -30 -42 -31 -12 -35 -30 -7 -35 18 -4 97
46 97 60 0 6 -7 8 -15 4 -11 -4 -15 2 -15 24 0 20 5 30 15 30 8 0 15 7 15 16
0 11 -5 14 -16 10 -14 -5 -16 -1 -10 34 6 37 5 40 -18 40 -22 0 -23 -3 -18
-45z"/>
<path d="M206 3074 c-10 -26 -7 -44 8 -44 7 0 16 9 19 20 3 12 14 20 26 20 12
0 21 5 21 10 0 17 -67 12 -74 -6z"/>
<path d="M273 3043 c-31 -4 -48 -23 -21 -23 6 0 1 -11 -12 -25 -26 -27 -21
-46 6 -24 16 13 16 12 6 -8 -7 -12 -23 -30 -37 -41 -49 -39 -25 -44 30 -7 20
15 39 24 42 22 5 -6 -87 -87 -98 -87 -5 0 -9 -5 -9 -11 0 -16 41 0 83 32 39
32 46 25 27 -25 -6 -17 -14 -24 -25 -20 -20 8 -20 -19 0 -36 13 -10 19 -10 34
4 39 36 33 152 -9 178 -19 12 -19 13 7 35 14 13 30 23 35 23 4 0 8 5 8 10 0
10 -7 10 -67 3z"/>
<path d="M328 2653 c-45 -5 -51 -23 -8 -23 20 0 30 -5 30 -15 0 -17 4 -18 38
-9 27 8 29 30 3 44 -11 5 -21 9 -23 8 -2 -1 -20 -3 -40 -5z"/>
<path d="M128 2595 c4 -41 3 -45 -17 -45 -11 0 -21 -4 -21 -10 0 -5 9 -10 20
-10 16 0 20 -7 20 -31 0 -25 -6 -33 -30 -42 -31 -12 -35 -30 -7 -35 18 -4 97
46 97 60 0 6 -7 8 -15 4 -11 -4 -15 2 -15 24 0 20 5 30 15 30 8 0 15 7 15 16
0 11 -5 14 -16 10 -14 -5 -16 -1 -10 34 6 37 5 40 -18 40 -22 0 -23 -3 -18
-45z"/>
<path d="M206 2624 c-10 -26 -7 -44 8 -44 7 0 16 9 19 20 3 12 14 20 26 20 12
0 21 5 21 10 0 17 -67 12 -74 -6z"/>
<path d="M273 2593 c-31 -4 -48 -23 -21 -23 6 0 1 -11 -12 -25 -26 -27 -21
-46 6 -24 16 13 16 12 6 -7 -6 -11 -22 -29 -36 -39 -31 -23 -34 -39 -7 -30 32
10 33 -13 1 -31 -16 -10 -30 -22 -30 -27 0 -9 39 0 56 14 6 5 19 7 28 3 11 -4
16 0 16 14 0 12 5 24 10 27 13 8 13 -16 0 -49 -6 -17 -14 -24 -25 -20 -20 8
-20 -19 0 -36 13 -10 19 -10 34 4 39 36 33 152 -9 178 -19 12 -19 13 7 35 14
13 30 23 35 23 4 0 8 5 8 10 0 10 -7 10 -67 3z m7 -118 c-7 -8 -17 -15 -22
-15 -6 0 -5 7 2 15 7 8 17 15 22 15 6 0 5 -7 -2 -15z"/>
<path d="M328 2203 c-45 -5 -51 -23 -8 -23 20 0 30 -5 30 -15 0 -17 4 -18 38
-9 27 8 29 30 3 44 -11 5 -21 9 -23 8 -2 -1 -20 -3 -40 -5z"/>
<path d="M128 2145 c4 -41 3 -45 -17 -45 -11 0 -21 -4 -21 -10 0 -5 9 -10 20
-10 16 0 20 -7 20 -31 0 -25 -6 -33 -30 -42 -31 -12 -35 -30 -7 -35 18 -4 97
46 97 60 0 6 -7 8 -15 4 -11 -4 -15 2 -15 24 0 20 5 30 15 30 8 0 15 7 15 16
0 11 -5 14 -16 10 -14 -5 -16 -1 -10 34 6 37 5 40 -18 40 -22 0 -23 -3 -18
-45z"/>
<path d="M206 2174 c-10 -26 -7 -44 8 -44 7 0 16 9 19 20 3 12 14 20 26 20 12
0 21 5 21 10 0 17 -67 12 -74 -6z"/>
<path d="M273 2143 c-31 -4 -48 -23 -21 -23 6 0 1 -11 -12 -25 -26 -27 -21
-46 6 -24 16 13 16 12 6 -7 -6 -11 -22 -29 -36 -39 -31 -23 -34 -39 -7 -30 32
10 33 -13 1 -31 -16 -10 -30 -22 -30 -27 0 -9 39 0 56 14 6 5 19 7 28 3 11 -4
16 0 16 14 0 12 5 24 10 27 13 8 13 -16 0 -49 -6 -17 -14 -24 -25 -20 -20 8
-20 -20 1 -36 13 -11 19 -10 37 8 17 17 21 34 22 81 0 47 5 64 23 83 12 14 22
30 22 36 0 13 -30 17 -30 5 0 -5 -7 -16 -14 -26 -12 -16 -17 -16 -35 -5 -21
13 -21 13 6 35 14 13 30 23 35 23 4 0 8 5 8 10 0 10 -7 10 -67 3z m7 -118 c-7
-8 -17 -15 -22 -15 -6 0 -5 7 2 15 7 8 17 15 22 15 6 0 5 -7 -2 -15z"/>
<path d="M328 1753 c-45 -5 -51 -23 -8 -23 20 0 30 -5 30 -15 0 -17 4 -18 38
-9 27 8 29 30 3 44 -11 5 -21 9 -23 8 -2 -1 -20 -3 -40 -5z"/>
<path d="M128 1695 c4 -41 3 -45 -17 -45 -11 0 -21 -4 -21 -10 0 -5 9 -10 20
-10 16 0 20 -7 20 -31 0 -25 -6 -33 -30 -42 -31 -12 -35 -30 -7 -35 18 -4 97
46 97 60 0 6 -7 8 -15 4 -11 -4 -15 2 -15 24 0 20 5 30 15 30 8 0 15 7 15 16
0 11 -5 14 -16 10 -14 -5 -16 -1 -10 34 6 37 5 40 -18 40 -22 0 -23 -3 -18
-45z"/>
<path d="M206 1724 c-10 -26 -7 -44 8 -44 7 0 16 9 19 20 3 12 14 20 26 20 12
0 21 5 21 10 0 17 -67 12 -74 -6z"/>
<path d="M273 1693 c-31 -4 -48 -23 -21 -23 6 0 1 -11 -12 -25 -26 -27 -21
-46 6 -24 16 13 16 12 6 -7 -6 -11 -22 -29 -36 -39 -31 -23 -34 -39 -7 -30 32
10 33 -13 1 -31 -16 -10 -30 -22 -30 -27 0 -9 39 0 56 14 6 5 19 7 28 3 11 -4
16 0 16 14 0 12 5 24 10 27 13 8 13 -16 0 -49 -6 -17 -14 -24 -25 -20 -20 8
-20 -20 1 -36 25 -22 56 18 58 73 l1 46 26 -25 c25 -24 79 -34 79 -14 0 5 -15
16 -32 24 -18 8 -42 21 -53 29 -20 15 -20 16 3 39 12 14 22 30 22 36 0 13 -30
17 -30 5 0 -5 -7 -16 -14 -26 -12 -16 -17 -16 -35 -5 -21 13 -21 13 6 35 14
13 30 23 35 23 4 0 8 5 8 10 0 10 -7 10 -67 3z m7 -118 c-7 -8 -17 -15 -22
-15 -6 0 -5 7 2 15 7 8 17 15 22 15 6 0 5 -7 -2 -15z"/>
</g>
</svg>
