<?xml version="1.0" standalone="no"?>
<!DOCTYPE svg PUBLIC "-//W3C//DTD SVG 20010904//EN"
 "http://www.w3.org/TR/2001/REC-SVG-20010904/DTD/svg10.dtd">
<svg version="1.0" xmlns="http://www.w3.org/2000/svg"
 width="95.000000pt" height="725.000000pt" viewBox="0 0 95.000000 725.000000"
 preserveAspectRatio="xMidYMid meet">
<metadata>
Created by potrace 1.16, written by Peter Selinger 2001-2019
</metadata>
<g transform="translate(0.000000,725.000000) scale(0.100000,-0.100000)"
fill="#000000" stroke="none">
<path d="M285 7155 c-5 -2 -39 -6 -75 -10 l-65 -6 -2 -62 c-1 -53 -21 -136
-48 -199 -12 -30 10 -20 29 13 22 38 46 123 46 167 0 17 5 32 10 32 6 0 10
-11 10 -25 0 -18 5 -25 20 -25 22 0 27 15 8 23 -7 3 -4 6 8 6 17 1 20 -4 16
-29 -4 -27 -22 -44 -22 -20 0 6 -8 10 -19 10 -15 0 -19 -10 -24 -47 -6 -53 -1
-67 14 -40 6 9 17 17 24 17 21 0 19 18 -2 23 -13 3 -12 5 5 6 20 1 23 -3 20
-31 -2 -18 2 -33 10 -35 8 -3 12 8 13 34 1 21 3 54 5 73 2 19 5 46 6 60 2 17
-3 25 -16 28 -14 3 -17 0 -13 -12 4 -10 1 -16 -8 -16 -8 0 -15 4 -15 9 0 5
-10 11 -22 13 -24 4 17 12 125 23 31 4 57 11 57 16 0 8 -73 12 -95 4z"/>
<path d="M735 7155 c-5 -2 -40 -6 -77 -10 -38 -4 -68 -11 -68 -17 0 -7 26 -8
78 -4 120 10 162 17 162 27 0 8 -73 11 -95 4z"/>
<path d="M307 7086 c5 -32 3 -36 -16 -36 -11 0 -21 -4 -21 -10 0 -5 7 -10 16
-10 16 0 16 -11 -1 -52 -11 -29 14 -21 27 7 l12 26 19 -31 c12 -20 27 -30 43
-30 13 0 24 2 24 5 0 2 -19 22 -42 44 l-43 40 28 1 c19 0 27 4 24 13 -2 6 -13
11 -23 10 -15 -2 -20 4 -19 25 0 17 -6 28 -17 30 -14 3 -16 -2 -11 -32z"/>
<path d="M360 7102 c0 -10 22 -32 32 -32 4 0 8 9 8 20 0 13 -7 20 -20 20 -11
0 -20 -4 -20 -8z"/>
<path d="M270 6925 c0 -8 -11 -17 -25 -21 -14 -3 -25 -10 -25 -15 0 -5 11 -9
25 -9 14 0 25 -4 25 -9 0 -10 -48 -21 -91 -21 -16 0 -29 -5 -29 -11 0 -8 38
-9 133 -4 72 4 134 9 137 12 12 12 -29 21 -72 16 -39 -5 -48 -3 -48 10 0 10
10 17 27 19 14 2 29 9 31 17 3 10 -3 12 -27 9 -21 -3 -31 0 -31 9 0 7 -7 13
-15 13 -8 0 -15 -7 -15 -15z"/>
<path d="M735 6705 c-5 -2 -39 -6 -75 -10 l-65 -6 -2 -62 c-1 -53 -21 -136
-48 -199 -14 -34 11 -18 32 20 19 34 34 89 48 184 6 41 -2 38 148 53 31 4 57
11 57 16 0 8 -73 12 -95 4z"/>
<path d="M735 6255 c-5 -2 -39 -6 -75 -10 l-65 -6 -2 -62 c-1 -53 -21 -136
-48 -199 -12 -30 10 -20 29 13 22 38 46 123 46 167 0 17 5 32 10 32 6 0 10
-11 10 -25 0 -14 5 -25 10 -25 17 0 11 58 -7 69 -18 10 -7 12 130 26 31 4 57
11 57 16 0 8 -73 12 -95 4z"/>
<path d="M735 5805 c-5 -2 -39 -6 -75 -10 l-65 -6 -2 -62 c-1 -53 -21 -136
-48 -199 -12 -30 10 -20 29 13 22 38 46 123 46 167 0 17 5 32 10 32 6 0 10
-11 10 -25 0 -14 5 -25 10 -25 6 0 10 9 10 19 0 11 3 26 6 34 4 11 -2 17 -18
19 -24 4 15 12 125 23 31 4 57 11 57 16 0 8 -73 12 -95 4z"/>
<path d="M695 5730 c0 -46 11 -52 26 -13 11 30 6 53 -13 53 -9 0 -13 -14 -13
-40z"/>
<path d="M735 5355 c-5 -2 -39 -6 -75 -10 l-65 -6 -2 -62 c-1 -53 -21 -136
-48 -199 -12 -30 10 -20 29 13 22 38 46 123 46 167 0 17 5 32 10 32 6 0 10
-11 10 -25 0 -14 5 -25 10 -25 6 0 10 7 10 15 0 8 9 15 20 15 13 0 18 -5 14
-15 -4 -8 -1 -15 5 -15 14 0 34 49 27 67 -3 7 -13 13 -22 13 -10 0 -14 -5 -10
-15 3 -9 0 -15 -9 -15 -8 0 -15 4 -15 9 0 5 -10 11 -22 13 -24 4 17 12 125 23
31 4 57 11 57 16 0 8 -73 12 -95 4z"/>
<path d="M735 4905 c-5 -2 -39 -6 -75 -10 l-65 -6 -2 -62 c-1 -53 -21 -136
-48 -199 -12 -30 10 -20 29 13 22 38 46 123 46 167 0 17 5 32 10 32 6 0 10
-11 10 -25 0 -18 5 -25 20 -25 22 0 27 15 8 23 -7 3 -3 6 9 6 16 1 21 -3 17
-14 -4 -8 -1 -15 5 -15 14 0 34 49 27 67 -3 7 -13 13 -22 13 -10 0 -14 -5 -10
-15 3 -9 0 -15 -9 -15 -8 0 -15 4 -15 9 0 5 -10 11 -22 13 -24 4 17 12 125 23
31 4 57 11 57 16 0 8 -73 12 -95 4z"/>
<path d="M735 4455 c-5 -2 -39 -6 -75 -10 l-65 -6 -2 -62 c-1 -53 -21 -136
-48 -199 -12 -30 10 -20 29 13 22 38 46 123 46 167 0 17 5 32 10 32 6 0 10
-11 10 -25 0 -18 5 -25 20 -25 22 0 27 15 8 23 -7 3 -3 6 9 6 16 1 21 -3 17
-14 -4 -8 -1 -15 5 -15 14 0 34 49 27 67 -3 7 -13 13 -22 13 -10 0 -14 -5 -10
-15 3 -9 0 -15 -9 -15 -8 0 -15 4 -15 9 0 5 -10 11 -22 13 -24 4 17 12 125 23
31 4 57 11 57 16 0 8 -73 12 -95 4z"/>
<path d="M630 4303 c0 -16 -3 -38 -6 -50 -4 -14 -2 -23 4 -23 6 0 16 17 21 38
15 50 14 62 -4 62 -10 0 -15 -10 -15 -27z"/>
<path d="M735 4005 c-5 -2 -39 -6 -75 -10 l-65 -6 -2 -62 c-1 -53 -21 -136
-48 -199 -12 -30 10 -20 29 13 22 38 46 123 46 167 0 17 5 32 10 32 6 0 10
-11 10 -25 0 -18 5 -25 20 -25 22 0 27 15 8 23 -7 3 -4 6 7 6 19 1 20 -3 14
-66 -5 -60 1 -96 15 -82 3 2 7 36 10 74 4 39 7 81 9 95 1 17 -4 26 -17 28 -14
3 -17 0 -13 -12 4 -10 1 -16 -8 -16 -8 0 -15 4 -15 9 0 5 -10 11 -22 13 -24 4
17 12 125 23 31 4 57 11 57 16 0 8 -73 12 -95 4z"/>
<path d="M630 3853 c0 -16 -3 -38 -6 -50 -10 -36 14 -27 24 10 6 17 13 40 17
50 5 13 2 17 -14 17 -16 0 -21 -6 -21 -27z"/>
<path d="M735 3555 c-5 -2 -39 -6 -75 -10 l-65 -6 -2 -62 c-1 -53 -21 -136
-48 -199 -12 -30 10 -20 29 13 22 38 46 123 46 167 0 17 5 32 10 32 6 0 10
-11 10 -25 0 -18 5 -25 20 -25 22 0 27 15 8 23 -7 3 -4 6 8 6 17 1 20 -4 16
-29 -4 -27 -22 -44 -22 -20 0 6 -9 10 -20 10 -15 0 -20 -7 -20 -27 0 -16 -3
-38 -6 -50 -4 -14 -2 -23 5 -23 6 0 14 14 18 30 4 21 11 30 25 30 16 0 19 -6
16 -32 -2 -18 2 -33 10 -35 8 -3 12 8 13 34 1 21 3 54 5 73 2 19 5 46 6 60 2
17 -3 25 -16 28 -14 3 -17 0 -13 -12 4 -10 1 -16 -8 -16 -8 0 -15 4 -15 9 0 5
-10 11 -22 13 -24 4 17 12 125 23 31 4 57 11 57 16 0 8 -73 12 -95 4z"/>
<path d="M735 3105 c-5 -2 -39 -6 -75 -10 l-65 -6 -2 -62 c-1 -53 -21 -136
-48 -199 -12 -30 10 -20 29 13 22 38 46 123 46 167 0 17 5 32 10 32 6 0 10
-11 10 -25 0 -18 5 -25 20 -25 22 0 27 15 8 23 -7 3 -4 6 8 6 17 1 20 -4 16
-29 -4 -27 -22 -44 -22 -20 0 6 -8 10 -19 10 -15 0 -19 -10 -24 -47 -6 -53 -1
-67 14 -40 6 9 17 17 24 17 21 0 19 18 -2 23 -13 3 -12 5 5 6 20 1 23 -3 20
-31 -2 -18 2 -33 10 -35 8 -3 12 8 13 34 1 21 3 54 5 73 2 19 5 46 6 60 2 17
-3 25 -16 28 -14 3 -17 0 -13 -12 4 -10 1 -16 -8 -16 -8 0 -15 4 -15 9 0 5
-10 11 -22 13 -24 4 17 12 125 23 31 4 57 11 57 16 0 8 -73 12 -95 4z"/>
<path d="M735 2655 c-5 -2 -39 -6 -75 -10 l-65 -6 -2 -62 c-1 -53 -21 -136
-48 -199 -12 -30 10 -20 29 13 22 38 46 123 46 167 0 17 5 32 10 32 6 0 10
-11 10 -25 0 -18 5 -25 20 -25 22 0 27 15 8 23 -7 3 -4 6 8 6 17 1 20 -4 16
-29 -4 -27 -22 -44 -22 -20 0 6 -8 10 -19 10 -15 0 -19 -10 -24 -47 -6 -53 -1
-67 14 -40 6 9 17 17 24 17 21 0 19 18 -2 23 -13 3 -12 5 5 6 20 1 23 -3 20
-31 -2 -18 2 -33 10 -35 8 -3 12 8 13 34 1 21 3 54 5 73 2 19 5 46 6 60 2 17
-3 25 -16 28 -14 3 -17 0 -13 -12 4 -10 1 -16 -8 -16 -8 0 -15 4 -15 9 0 5
-10 11 -22 13 -24 4 17 12 125 23 31 4 57 11 57 16 0 8 -73 12 -95 4z"/>
<path d="M763 2557 c-61 -15 -54 -31 9 -23 29 4 54 9 56 11 6 5 -8 25 -16 24
-4 -1 -26 -7 -49 -12z"/>
<path d="M735 2205 c-5 -2 -39 -6 -75 -10 l-65 -6 -2 -62 c-1 -53 -21 -136
-48 -199 -12 -30 10 -20 29 13 22 38 46 123 46 167 0 17 5 32 10 32 6 0 10
-11 10 -25 0 -18 5 -25 20 -25 22 0 27 15 8 23 -7 3 -4 6 8 6 17 1 20 -4 16
-29 -4 -27 -22 -44 -22 -20 0 6 -8 10 -19 10 -15 0 -19 -10 -24 -47 -6 -53 -1
-67 14 -40 6 9 17 17 24 17 21 0 19 18 -2 23 -13 3 -12 5 5 6 20 1 23 -3 20
-31 -2 -18 2 -33 10 -35 8 -3 12 8 13 34 1 21 3 54 5 73 2 19 5 46 6 60 2 17
-3 25 -16 28 -14 3 -17 0 -13 -12 4 -10 1 -16 -8 -16 -8 0 -15 4 -15 9 0 5
-10 11 -22 13 -24 4 17 12 125 23 31 4 57 11 57 16 0 8 -73 12 -95 4z"/>
<path d="M757 2136 c5 -32 3 -36 -16 -36 -11 0 -21 -4 -21 -10 0 -5 7 -10 16
-10 16 0 16 -11 -1 -52 -4 -11 -3 -18 5 -18 6 0 19 18 28 40 13 30 23 40 40
40 15 0 22 5 19 13 -2 6 -13 11 -23 10 -15 -2 -20 4 -19 25 0 17 -6 28 -17 30
-14 3 -16 -2 -11 -32z"/>
<path d="M735 1755 c-5 -2 -39 -6 -75 -10 l-65 -6 -2 -62 c-1 -53 -21 -136
-48 -199 -12 -30 10 -20 29 13 22 38 46 123 46 167 0 17 5 32 10 32 6 0 10
-11 10 -25 0 -18 5 -25 20 -25 22 0 27 15 8 23 -7 3 -4 6 8 6 17 1 20 -4 16
-29 -4 -27 -22 -44 -22 -20 0 6 -8 10 -19 10 -15 0 -19 -10 -24 -47 -6 -53 -1
-67 14 -40 6 9 17 17 24 17 21 0 19 18 -2 23 -13 3 -12 5 5 6 20 1 23 -3 20
-31 -2 -18 2 -33 10 -35 8 -3 12 8 13 34 1 21 3 54 5 73 2 19 5 46 6 60 2 17
-3 25 -16 28 -14 3 -17 0 -13 -12 4 -10 1 -16 -8 -16 -8 0 -15 4 -15 9 0 5
-10 11 -22 13 -24 4 17 12 125 23 31 4 57 11 57 16 0 8 -73 12 -95 4z"/>
<path d="M757 1686 c5 -32 3 -36 -16 -36 -11 0 -21 -4 -21 -10 0 -5 7 -10 16
-10 16 0 16 -11 -1 -52 -11 -29 14 -21 27 7 l12 26 19 -31 c12 -20 27 -30 43
-30 13 0 24 2 24 5 0 2 -19 22 -42 44 l-43 40 28 1 c19 0 27 4 24 13 -2 6 -13
11 -23 10 -15 -2 -20 4 -19 25 0 17 -6 28 -17 30 -14 3 -16 -2 -11 -32z"/>
<path d="M735 1305 c-5 -2 -39 -6 -75 -10 l-65 -6 -2 -62 c-1 -53 -21 -136
-48 -199 -12 -30 10 -20 29 13 22 38 46 123 46 167 0 17 5 32 10 32 6 0 10
-11 10 -25 0 -18 5 -25 20 -25 22 0 27 15 8 23 -7 3 -4 6 8 6 17 1 20 -4 16
-29 -4 -27 -22 -44 -22 -20 0 6 -8 10 -19 10 -15 0 -19 -10 -24 -47 -6 -53 -1
-67 14 -40 6 9 17 17 24 17 21 0 19 18 -2 23 -13 3 -12 5 5 6 20 1 23 -3 20
-31 -2 -18 2 -33 10 -35 8 -3 12 8 13 34 1 21 3 54 5 73 2 19 5 46 6 60 2 17
-3 25 -16 28 -14 3 -17 0 -13 -12 4 -10 1 -16 -8 -16 -8 0 -15 4 -15 9 0 5
-10 11 -22 13 -24 4 17 12 125 23 31 4 57 11 57 16 0 8 -73 12 -95 4z"/>
<path d="M757 1236 c5 -32 3 -36 -16 -36 -11 0 -21 -4 -21 -10 0 -5 7 -10 16
-10 16 0 16 -11 -1 -52 -11 -29 14 -21 27 7 l12 26 19 -31 c12 -20 27 -30 43
-30 13 0 24 2 24 5 0 2 -19 22 -42 44 l-43 40 28 1 c19 0 27 4 24 13 -2 6 -13
11 -23 10 -15 -2 -20 4 -19 25 0 17 -6 28 -17 30 -14 3 -16 -2 -11 -32z"/>
<path d="M810 1252 c0 -4 5 -13 12 -20 18 -18 28 -15 28 8 0 13 -7 20 -20 20
-11 0 -20 -4 -20 -8z"/>
<path d="M735 855 c-5 -2 -39 -6 -75 -10 l-65 -6 -2 -62 c-1 -53 -21 -136 -48
-199 -12 -30 10 -20 29 13 22 38 46 123 46 167 0 17 5 32 10 32 6 0 10 -11 10
-25 0 -18 5 -25 20 -25 22 0 27 15 8 23 -7 3 -4 6 8 6 17 1 20 -4 16 -29 -4
-27 -22 -44 -22 -20 0 6 -8 10 -19 10 -15 0 -19 -10 -24 -47 -6 -53 -1 -67 14
-40 6 9 17 17 24 17 21 0 19 18 -2 23 -13 3 -12 5 5 6 20 1 23 -3 20 -31 -2
-18 2 -33 10 -35 8 -3 12 8 13 34 1 21 3 54 5 73 2 19 5 46 6 60 2 17 -3 25
-16 28 -14 3 -17 0 -13 -12 4 -10 1 -16 -8 -16 -8 0 -15 4 -15 9 0 5 -10 11
-22 13 -24 4 17 12 125 23 31 4 57 11 57 16 0 8 -73 12 -95 4z"/>
<path d="M757 786 c5 -32 3 -36 -16 -36 -11 0 -21 -4 -21 -10 0 -5 7 -10 16
-10 16 0 16 -11 -1 -52 -11 -29 14 -21 27 7 l12 26 19 -31 c12 -20 27 -30 43
-30 13 0 24 2 24 5 0 2 -19 22 -42 44 l-43 40 28 1 c19 0 27 4 24 13 -2 6 -13
11 -23 10 -15 -2 -20 4 -19 25 0 17 -6 28 -17 30 -14 3 -16 -2 -11 -32z"/>
<path d="M810 802 c0 -4 5 -13 12 -20 18 -18 28 -15 28 8 0 13 -7 20 -20 20
-11 0 -20 -4 -20 -8z"/>
<path d="M721 609 c-45 -9 -58 -15 -49 -24 10 -11 131 10 136 23 4 14 -20 14
-87 1z"/>
<path d="M735 405 c-5 -2 -39 -6 -75 -10 l-65 -6 -2 -62 c-1 -53 -21 -136 -48
-199 -12 -30 10 -20 29 13 22 38 46 123 46 167 0 17 5 32 10 32 6 0 10 -11 10
-25 0 -18 5 -25 20 -25 22 0 27 15 8 23 -7 3 -4 6 8 6 17 1 20 -4 16 -29 -4
-27 -22 -44 -22 -20 0 6 -8 10 -19 10 -15 0 -19 -10 -24 -47 -6 -53 -1 -67 14
-40 6 9 17 17 24 17 21 0 19 18 -2 23 -13 3 -12 5 5 6 20 1 23 -3 20 -31 -2
-18 2 -33 10 -35 8 -3 12 8 13 34 1 21 3 54 5 73 2 19 5 46 6 60 2 17 -3 25
-16 28 -14 3 -17 0 -13 -12 4 -10 1 -16 -8 -16 -8 0 -15 4 -15 9 0 5 -10 11
-22 13 -24 4 17 12 125 23 31 4 57 11 57 16 0 8 -73 12 -95 4z"/>
<path d="M757 336 c5 -32 3 -36 -16 -36 -11 0 -21 -4 -21 -10 0 -5 7 -10 16
-10 16 0 16 -11 -1 -52 -11 -29 14 -21 27 7 l12 26 19 -31 c12 -20 27 -30 43
-30 13 0 24 2 24 5 0 2 -19 22 -42 44 l-43 40 28 1 c19 0 27 4 24 13 -2 6 -13
11 -23 10 -15 -2 -20 4 -19 25 0 17 -6 28 -17 30 -14 3 -16 -2 -11 -32z"/>
<path d="M810 352 c0 -10 22 -32 32 -32 4 0 8 9 8 20 0 13 -7 20 -20 20 -11 0
-20 -4 -20 -8z"/>
<path d="M720 175 c0 -8 -11 -17 -25 -21 -14 -3 -25 -10 -25 -15 0 -5 11 -9
25 -9 16 0 25 -6 25 -15 0 -8 7 -15 15 -15 8 0 15 9 15 19 0 14 8 21 27 23 14
2 29 9 31 17 3 10 -3 12 -27 9 -21 -3 -31 0 -31 9 0 7 -7 13 -15 13 -8 0 -15
-7 -15 -15z"/>
</g>
</svg>
