<?xml version="1.0" standalone="no"?>
<!DOCTYPE svg PUBLIC "-//W3C//DTD SVG 20010904//EN"
 "http://www.w3.org/TR/2001/REC-SVG-20010904/DTD/svg10.dtd">
<svg version="1.0" xmlns="http://www.w3.org/2000/svg"
 width="50.000000pt" height="725.000000pt" viewBox="0 0 50.000000 725.000000"
 preserveAspectRatio="xMidYMid meet">
<metadata>
Created by potrace 1.16, written by Peter Selinger 2001-2019
</metadata>
<g transform="translate(0.000000,725.000000) scale(0.100000,-0.100000)"
fill="#000000" stroke="none">
<path d="M180 7157 c0 -7 -16 -28 -35 -47 -19 -19 -35 -38 -35 -42 0 -18 24
-5 68 37 39 37 44 47 32 55 -21 13 -30 12 -30 -3z"/>
<path d="M180 6707 c0 -7 -16 -28 -35 -47 -53 -52 -43 -72 13 -25 31 26 62 33
62 15 0 -6 -20 -31 -45 -56 -25 -24 -45 -47 -45 -49 0 -23 83 44 122 98 17 24
18 31 7 38 -8 5 -22 6 -33 3 -13 -4 -16 -2 -11 6 4 7 1 16 -6 21 -20 12 -29
11 -29 -4z"/>
<path d="M180 6258 c0 -7 -17 -29 -37 -50 -37 -38 -40 -58 -6 -40 15 8 22 6
31 -8 10 -17 8 -22 -13 -36 -25 -17 -33 -34 -15 -34 14 0 86 66 112 103 17 24
18 31 7 38 -8 5 -22 6 -33 3 -13 -4 -16 -2 -11 6 4 7 1 16 -6 21 -19 12 -29
11 -29 -3z m40 -57 c0 -6 -4 -12 -9 -15 -13 -8 -42 4 -35 15 7 12 44 12 44 0z"/>
<path d="M180 5808 c0 -7 -17 -29 -37 -50 -37 -38 -40 -58 -6 -40 15 8 22 6
31 -8 10 -17 8 -22 -13 -36 -31 -20 -33 -37 -2 -29 19 5 17 2 -10 -24 -18 -17
-33 -33 -33 -36 0 -13 26 -2 61 26 37 29 51 59 28 59 -6 0 8 21 30 46 23 26
41 50 41 54 0 12 -28 20 -47 13 -11 -5 -14 -3 -8 6 4 8 2 17 -6 22 -19 12 -29
11 -29 -3z m40 -57 c0 -6 -4 -12 -9 -15 -13 -8 -42 4 -35 15 7 12 44 12 44 0z"/>
<path d="M180 5358 c0 -7 -17 -29 -37 -50 -37 -38 -40 -58 -6 -40 15 8 22 6
31 -8 10 -17 8 -22 -13 -36 -31 -20 -33 -37 -2 -29 19 5 17 2 -10 -24 -18 -17
-33 -33 -33 -36 0 -10 24 -5 39 9 9 7 29 16 44 20 l29 7 -21 -30 c-12 -17 -38
-44 -58 -60 -42 -35 -39 -50 6 -27 32 17 106 99 106 119 0 7 -10 13 -22 15
-13 2 -23 10 -23 18 0 8 -5 14 -11 14 -6 0 8 21 30 46 23 26 41 50 41 54 0 12
-28 20 -47 13 -11 -5 -14 -3 -8 6 4 8 2 17 -6 22 -19 12 -29 11 -29 -3z m40
-57 c0 -6 -4 -12 -9 -15 -13 -8 -42 4 -35 15 7 12 44 12 44 0z"/>
<path d="M180 4908 c0 -7 -17 -29 -37 -50 -37 -38 -40 -58 -6 -40 15 8 22 6
31 -8 10 -17 8 -22 -13 -36 -31 -20 -33 -37 -2 -29 19 5 17 2 -10 -24 -37 -34
-40 -41 -18 -41 8 0 19 -9 25 -19 8 -16 5 -23 -18 -39 -35 -26 -23 -38 17 -18
32 17 106 99 106 119 0 7 -10 13 -22 15 -13 2 -23 10 -23 18 0 8 -5 14 -11 14
-6 0 8 21 30 46 23 26 41 50 41 54 0 12 -28 20 -47 13 -11 -5 -14 -3 -8 6 4 8
2 17 -6 22 -19 12 -29 11 -29 -3z m40 -57 c0 -6 -4 -12 -9 -15 -13 -8 -42 4
-35 15 7 12 44 12 44 0z m-16 -156 c-13 -20 -19 -22 -35 -12 -20 13 -15 22 16
30 35 8 36 7 19 -18z"/>
<path d="M180 4458 c0 -7 -17 -29 -37 -50 -37 -38 -40 -58 -6 -40 15 8 22 6
31 -8 10 -17 8 -22 -13 -36 -31 -20 -33 -37 -2 -29 19 5 17 2 -10 -24 -37 -34
-40 -41 -18 -41 8 0 19 -9 25 -19 8 -16 5 -23 -18 -39 -35 -26 -23 -38 17 -18
32 17 106 99 106 119 0 7 -10 13 -22 15 -13 2 -23 10 -23 18 0 8 -5 14 -11 14
-6 0 8 21 30 46 23 26 41 50 41 54 0 12 -28 20 -47 13 -11 -5 -14 -3 -8 6 4 8
2 17 -6 22 -19 12 -29 11 -29 -3z m40 -57 c0 -6 -4 -12 -9 -15 -13 -8 -42 4
-35 15 7 12 44 12 44 0z m-16 -156 c-13 -20 -19 -22 -35 -12 -20 13 -15 22 16
30 35 8 36 7 19 -18z"/>
<path d="M291 4428 c-7 -24 -22 -58 -32 -77 -11 -18 -17 -36 -15 -39 10 -9 36
20 66 76 23 42 27 58 19 69 -18 21 -25 16 -38 -29z"/>
<path d="M180 4008 c0 -7 -17 -29 -37 -50 -37 -38 -40 -58 -6 -40 15 8 22 6
31 -8 10 -17 8 -22 -13 -36 -31 -20 -33 -37 -2 -29 19 5 17 2 -10 -24 -37 -34
-40 -41 -18 -41 8 0 19 -9 25 -19 8 -16 5 -23 -18 -39 -35 -26 -23 -38 17 -18
32 17 106 99 106 119 0 7 -10 13 -22 15 -13 2 -23 10 -23 18 0 8 -5 14 -11 14
-6 0 8 21 30 46 23 26 41 50 41 54 0 12 -28 20 -47 13 -11 -5 -14 -3 -8 6 4 8
2 17 -6 22 -19 12 -29 11 -29 -3z m40 -57 c0 -6 -4 -12 -9 -15 -13 -8 -42 4
-35 15 7 12 44 12 44 0z m-16 -156 c-13 -20 -19 -22 -35 -12 -20 13 -15 22 16
30 35 8 36 7 19 -18z"/>
<path d="M291 3978 c-7 -24 -22 -58 -32 -77 -24 -40 -17 -52 14 -24 12 11 41
23 65 27 l42 6 0 -69 c0 -93 -12 -125 -45 -117 -30 8 -31 -1 -5 -33 43 -50 76
5 82 137 4 81 2 95 -13 103 -11 6 -27 5 -44 -1 -51 -20 -59 -14 -36 26 17 28
19 39 10 50 -18 22 -25 17 -38 -28z"/>
<path d="M180 3558 c0 -7 -17 -29 -37 -50 -37 -38 -40 -58 -6 -40 15 8 22 6
31 -8 10 -17 8 -22 -13 -36 -31 -20 -33 -37 -2 -29 19 5 17 2 -10 -24 -37 -34
-40 -41 -18 -41 8 0 19 -9 25 -19 8 -16 5 -23 -18 -39 -35 -26 -23 -38 17 -18
32 17 106 99 106 119 0 7 -10 13 -22 15 -13 2 -23 10 -23 18 0 8 -5 14 -11 14
-6 0 8 21 30 46 23 26 41 50 41 54 0 12 -28 20 -47 13 -11 -5 -14 -3 -8 6 4 8
2 17 -6 22 -19 12 -29 11 -29 -3z m40 -57 c0 -6 -4 -12 -9 -15 -13 -8 -42 4
-35 15 7 12 44 12 44 0z m-16 -156 c-13 -20 -19 -22 -35 -12 -20 13 -15 22 16
30 35 8 36 7 19 -18z"/>
<path d="M291 3528 c-7 -24 -22 -58 -32 -77 -24 -40 -17 -52 14 -24 12 11 41
23 65 27 l42 6 0 -69 c0 -93 -12 -125 -45 -117 -30 8 -31 -1 -5 -33 43 -50 76
5 82 137 4 81 2 95 -13 103 -11 6 -27 5 -44 -1 -51 -20 -59 -14 -36 26 17 28
19 39 10 50 -18 22 -25 17 -38 -28z"/>
<path d="M270 3368 c0 -26 16 -55 25 -47 8 8 -6 69 -16 69 -5 0 -9 -10 -9 -22z"/>
<path d="M180 3108 c0 -7 -17 -29 -37 -50 -37 -38 -40 -58 -6 -40 15 8 22 6
31 -8 10 -17 8 -22 -13 -36 -31 -20 -33 -37 -2 -29 19 5 17 2 -10 -24 -37 -34
-40 -41 -18 -41 8 0 19 -9 25 -19 8 -16 5 -23 -18 -39 -35 -26 -23 -38 17 -18
32 17 106 99 106 119 0 7 -10 13 -22 15 -13 2 -23 10 -23 18 0 8 -5 14 -11 14
-6 0 8 21 30 46 23 26 41 50 41 54 0 12 -28 20 -47 13 -11 -5 -14 -3 -8 6 4 8
2 17 -6 22 -19 12 -29 11 -29 -3z m40 -57 c0 -6 -4 -12 -9 -15 -13 -8 -42 4
-35 15 7 12 44 12 44 0z m-16 -156 c-13 -20 -19 -22 -35 -12 -20 13 -15 22 16
30 35 8 36 7 19 -18z"/>
<path d="M291 3078 c-7 -24 -22 -58 -32 -77 -24 -40 -17 -52 14 -24 12 11 41
23 65 27 l42 6 0 -69 c0 -93 -12 -125 -45 -117 -30 8 -31 -1 -5 -33 43 -50 76
5 82 137 4 81 2 95 -13 103 -11 6 -27 5 -44 -1 -51 -20 -59 -14 -36 26 17 28
19 39 10 50 -18 22 -25 17 -38 -28z"/>
<path d="M298 2948 c-28 -10 -35 -29 -22 -62 11 -28 26 -17 19 14 -5 23 -3 30
9 30 9 0 16 -8 16 -20 0 -29 27 -25 34 5 11 44 -3 53 -56 33z"/>
<path d="M180 2658 c0 -7 -17 -29 -37 -50 -37 -38 -40 -58 -6 -40 15 8 22 6
31 -8 10 -17 8 -22 -13 -36 -31 -20 -33 -37 -2 -29 19 5 17 2 -10 -24 -37 -34
-40 -41 -18 -41 8 0 19 -9 25 -19 8 -16 5 -23 -18 -39 -35 -26 -23 -38 17 -18
32 17 106 99 106 119 0 7 -10 13 -22 15 -13 2 -23 10 -23 18 0 8 -5 14 -11 14
-6 0 8 21 30 46 23 26 41 50 41 54 0 12 -28 20 -47 13 -11 -5 -14 -3 -8 6 4 8
2 17 -6 22 -19 12 -29 11 -29 -3z m40 -57 c0 -6 -4 -12 -9 -15 -13 -8 -42 4
-35 15 7 12 44 12 44 0z m-16 -156 c-13 -20 -19 -22 -35 -12 -20 13 -15 22 16
30 35 8 36 7 19 -18z"/>
<path d="M291 2628 c-7 -24 -22 -58 -32 -77 -24 -40 -17 -52 14 -24 12 11 41
23 65 27 l42 6 0 -69 c0 -93 -12 -125 -45 -117 -30 8 -31 -1 -5 -33 43 -50 76
5 82 137 4 81 2 95 -13 103 -11 6 -27 5 -44 -1 -51 -20 -59 -14 -36 26 17 28
19 39 10 50 -18 22 -25 17 -38 -28z"/>
<path d="M298 2498 c-19 -6 -28 -17 -28 -31 0 -36 13 -48 47 -41 24 5 32 13
37 36 10 48 -2 56 -56 36z m22 -33 c0 -8 -7 -15 -15 -15 -8 0 -15 7 -15 15 0
8 7 15 15 15 8 0 15 -7 15 -15z"/>
</g>
</svg>
