<?xml version="1.0" standalone="no"?>
<!DOCTYPE svg PUBLIC "-//W3C//DTD SVG 20010904//EN"
 "http://www.w3.org/TR/2001/REC-SVG-20010904/DTD/svg10.dtd">
<svg version="1.0" xmlns="http://www.w3.org/2000/svg"
 width="50.000000pt" height="725.000000pt" viewBox="0 0 50.000000 725.000000"
 preserveAspectRatio="xMidYMid meet">
<metadata>
Created by potrace 1.16, written by Peter Selinger 2001-2019
</metadata>
<g transform="translate(0.000000,725.000000) scale(0.100000,-0.100000)"
fill="#000000" stroke="none">
<path d="M218 7117 c-95 -13 -89 -32 7 -23 82 7 105 13 105 27 0 11 -20 10
-112 -4z"/>
<path d="M218 6667 c-95 -13 -89 -32 7 -23 82 7 105 13 105 27 0 11 -20 10
-112 -4z"/>
<path d="M208 6623 c-50 -5 -49 -23 1 -23 51 0 101 10 101 21 0 9 -30 9 -102
2z"/>
<path d="M218 6217 c-95 -13 -89 -32 7 -23 82 7 105 13 105 27 0 11 -20 10
-112 -4z"/>
<path d="M208 6173 c-50 -5 -49 -23 1 -23 51 0 101 10 101 21 0 9 -30 9 -102
2z"/>
<path d="M195 6128 c-86 -9 -103 -13 -94 -22 2 -3 64 -2 137 1 101 5 132 9
132 20 0 15 -36 15 -175 1z"/>
<path d="M225 5800 c8 -27 -7 -40 -47 -40 -16 0 -28 -4 -28 -10 0 -5 16 -10
35 -10 19 0 35 -4 35 -10 0 -5 -11 -10 -25 -10 -31 0 -33 -17 -2 -23 21 -3 21
-4 -6 -15 -16 -7 -42 -12 -58 -12 -16 0 -29 -5 -29 -11 0 -7 16 -10 43 -8 l44
4 -19 -25 c-10 -14 -32 -34 -48 -45 -16 -11 -30 -23 -30 -27 0 -29 96 32 119
75 14 26 18 27 88 27 61 0 73 3 73 16 0 15 -9 16 -71 10 -73 -7 -90 7 -24 20
43 8 46 24 5 24 -16 0 -30 5 -30 10 0 6 11 10 24 10 32 0 56 10 56 22 0 6 -14
8 -35 5 -31 -5 -34 -3 -32 16 1 16 -4 23 -21 25 -21 3 -23 1 -17 -18z"/>
<path d="M225 5350 c8 -27 -7 -40 -47 -40 -16 0 -28 -4 -28 -10 0 -5 16 -10
35 -10 19 0 35 -4 35 -10 0 -5 -11 -10 -25 -10 -31 0 -33 -17 -2 -23 21 -3 21
-4 -6 -15 -16 -7 -42 -12 -58 -12 -16 0 -29 -5 -29 -11 0 -7 16 -10 43 -8 l44
4 -19 -25 c-10 -14 -32 -34 -48 -45 -16 -11 -30 -23 -30 -27 0 -29 96 32 119
75 8 15 21 27 28 27 8 0 36 -20 62 -45 41 -38 54 -45 90 -45 22 0 41 3 41 8 0
4 -33 23 -73 42 l-72 35 43 3 c30 2 42 7 42 19 0 14 -10 15 -71 9 -73 -7 -90
7 -24 20 43 8 46 24 5 24 -16 0 -30 5 -30 10 0 6 11 10 24 10 32 0 56 10 56
22 0 6 -14 8 -35 5 -31 -5 -34 -3 -32 16 1 16 -4 23 -21 25 -21 3 -23 1 -17
-18z"/>
<path d="M225 4900 c8 -27 -7 -40 -47 -40 -16 0 -28 -4 -28 -10 0 -5 16 -10
35 -10 19 0 35 -4 35 -10 0 -5 -11 -10 -25 -10 -31 0 -33 -17 -2 -23 21 -3 21
-4 -6 -15 -16 -7 -42 -12 -58 -12 -16 0 -29 -5 -29 -11 0 -7 16 -10 43 -8 l44
4 -19 -25 c-10 -14 -32 -34 -48 -45 -16 -11 -30 -23 -30 -27 0 -29 96 32 119
75 8 15 21 27 28 27 8 0 36 -20 62 -45 41 -38 54 -45 90 -45 22 0 41 3 41 8 0
4 -33 23 -73 42 l-72 35 43 3 c30 2 42 7 42 19 0 14 -10 15 -71 9 -73 -7 -90
7 -24 20 43 8 46 24 5 24 -16 0 -30 5 -30 10 0 6 11 10 24 10 32 0 56 10 56
22 0 6 -14 8 -35 5 -31 -5 -34 -3 -32 16 1 16 -4 23 -21 25 -21 3 -23 1 -17
-18z"/>
<path d="M243 4723 c-33 -6 -28 -23 7 -23 20 0 30 5 30 15 0 8 -3 14 -7 14 -5
-1 -18 -4 -30 -6z"/>
<path d="M225 4450 c8 -27 -7 -40 -47 -40 -16 0 -28 -4 -28 -10 0 -5 16 -10
35 -10 19 0 35 -4 35 -10 0 -5 -11 -10 -25 -10 -31 0 -33 -17 -2 -23 21 -3 21
-4 -6 -15 -16 -7 -42 -12 -58 -12 -16 0 -29 -5 -29 -11 0 -7 16 -10 43 -8 l44
4 -19 -25 c-10 -14 -32 -34 -48 -45 -16 -11 -30 -23 -30 -27 0 -29 96 32 119
75 8 15 21 27 28 27 8 0 36 -20 62 -45 41 -38 54 -45 90 -45 22 0 41 3 41 8 0
4 -33 23 -73 42 l-72 35 43 3 c30 2 42 7 42 19 0 14 -10 15 -71 9 -73 -7 -90
7 -24 20 43 8 46 24 5 24 -16 0 -30 5 -30 10 0 6 11 10 24 10 32 0 56 10 56
22 0 6 -14 8 -35 5 -31 -5 -34 -3 -32 16 1 16 -4 23 -21 25 -21 3 -23 1 -17
-18z"/>
<path d="M243 4273 c-33 -6 -28 -23 7 -23 20 0 30 5 30 15 0 8 -3 14 -7 14 -5
-1 -18 -4 -30 -6z"/>
<path d="M213 4221 c-50 -6 -72 -15 -61 -26 8 -8 168 17 168 27 0 9 -27 9
-107 -1z"/>
<path d="M225 4000 c8 -27 -7 -40 -47 -40 -16 0 -28 -4 -28 -10 0 -5 16 -10
35 -10 19 0 35 -4 35 -10 0 -5 -11 -10 -25 -10 -31 0 -33 -17 -2 -23 21 -3 21
-4 -6 -15 -16 -7 -42 -12 -58 -12 -16 0 -29 -5 -29 -11 0 -7 16 -10 43 -8 l44
4 -19 -25 c-10 -14 -32 -34 -48 -45 -16 -11 -30 -23 -30 -27 0 -29 96 32 119
75 8 15 21 27 28 27 8 0 36 -20 62 -45 41 -38 54 -45 90 -45 22 0 41 3 41 8 0
4 -33 23 -73 42 l-72 35 43 3 c30 2 42 7 42 19 0 14 -10 15 -71 9 -73 -7 -90
7 -24 20 43 8 46 24 5 24 -16 0 -30 5 -30 10 0 6 11 10 24 10 32 0 56 10 56
22 0 6 -14 8 -35 5 -31 -5 -34 -3 -32 16 1 16 -4 23 -21 25 -21 3 -23 1 -17
-18z"/>
<path d="M243 3823 c-16 -3 -23 -11 -23 -29 0 -17 -6 -24 -19 -24 -27 0 -51
-10 -51 -22 0 -6 13 -8 33 -4 l32 6 -32 -30 c-37 -33 -40 -40 -17 -40 8 0 34
18 56 40 29 28 50 40 70 40 15 0 28 5 28 11 0 7 -13 10 -34 7 -24 -3 -32 0
-29 9 3 7 9 13 14 13 5 0 9 7 9 15 0 8 -3 14 -7 14 -5 -1 -18 -4 -30 -6z"/>
<path d="M225 3550 c8 -27 -7 -40 -47 -40 -16 0 -28 -4 -28 -10 0 -5 16 -10
35 -10 19 0 35 -4 35 -10 0 -5 -11 -10 -25 -10 -31 0 -33 -17 -2 -23 21 -3 21
-4 -6 -15 -16 -7 -42 -12 -58 -12 -16 0 -29 -5 -29 -11 0 -7 16 -10 43 -8 l44
4 -19 -25 c-10 -14 -32 -34 -48 -45 -16 -11 -30 -23 -30 -27 0 -29 96 32 119
75 8 15 21 27 28 27 8 0 36 -20 62 -45 41 -38 54 -45 90 -45 22 0 41 3 41 8 0
4 -33 23 -73 42 l-72 35 43 3 c30 2 42 7 42 19 0 14 -10 15 -71 9 -73 -7 -90
7 -24 20 43 8 46 24 5 24 -16 0 -30 5 -30 10 0 6 11 10 24 10 32 0 56 10 56
22 0 6 -14 8 -35 5 -31 -5 -34 -3 -32 16 1 16 -4 23 -21 25 -21 3 -23 1 -17
-18z"/>
<path d="M243 3373 c-16 -3 -23 -11 -23 -29 0 -17 -6 -24 -19 -24 -27 0 -51
-10 -51 -22 0 -6 13 -8 33 -4 l32 6 -32 -30 c-37 -33 -40 -40 -17 -40 8 0 34
18 56 40 29 28 50 40 70 40 15 0 28 5 28 11 0 7 -13 10 -34 7 -24 -3 -32 0
-29 9 3 7 9 13 14 13 5 0 9 7 9 15 0 8 -3 14 -7 14 -5 -1 -18 -4 -30 -6z"/>
<path d="M250 3283 c0 -13 53 -63 67 -63 25 0 13 39 -17 55 -31 16 -50 19 -50
8z"/>
</g>
</svg>
