<?xml version="1.0" standalone="no"?>
<!DOCTYPE svg PUBLIC "-//W3C//DTD SVG 20010904//EN"
 "http://www.w3.org/TR/2001/REC-SVG-20010904/DTD/svg10.dtd">
<svg version="1.0" xmlns="http://www.w3.org/2000/svg"
 width="50.000000pt" height="725.000000pt" viewBox="0 0 50.000000 725.000000"
 preserveAspectRatio="xMidYMid meet">
<metadata>
Created by potrace 1.16, written by Peter Selinger 2001-2019
</metadata>
<g transform="translate(0.000000,725.000000) scale(0.100000,-0.100000)"
fill="#000000" stroke="none">
<path d="M191 7109 c-56 -10 -69 -15 -59 -25 9 -8 218 18 218 27 0 11 -87 10
-159 -2z"/>
<path d="M208 6693 c-2 -23 -10 -30 -40 -37 -47 -12 -49 -24 -5 -28 l32 -3
-48 -48 c-27 -27 -46 -51 -43 -54 10 -11 78 41 103 78 23 35 30 39 84 45 74 8
77 24 5 24 -51 0 -53 1 -48 25 3 20 0 25 -16 25 -15 0 -22 -7 -24 -27z"/>
<path d="M208 6243 c-2 -23 -10 -30 -40 -37 -47 -12 -49 -24 -5 -28 l32 -3
-48 -48 c-27 -27 -46 -51 -43 -54 10 -11 78 41 103 78 14 22 29 39 32 39 4 0
31 -25 61 -55 45 -46 60 -55 84 -53 41 4 42 22 3 36 -19 7 -51 28 -73 47 l-39
34 38 1 c20 0 37 5 37 10 0 6 -24 10 -54 10 -51 0 -53 1 -48 25 3 20 0 25 -16
25 -15 0 -22 -7 -24 -27z"/>
<path d="M208 5793 c-2 -23 -10 -30 -40 -37 -47 -12 -49 -24 -5 -28 l32 -3
-48 -48 c-27 -27 -46 -51 -43 -54 3 -3 24 6 46 21 l40 26 0 -50 c0 -38 4 -50
15 -50 12 0 15 13 15 59 0 33 -4 61 -10 63 -5 2 0 14 10 28 l19 25 59 -58 c48
-48 64 -58 87 -55 40 4 41 22 2 36 -19 7 -51 28 -73 47 l-39 34 38 1 c20 0 37
5 37 10 0 6 -24 10 -54 10 -51 0 -53 1 -48 25 3 20 0 25 -16 25 -15 0 -22 -7
-24 -27z"/>
<path d="M208 5343 c-2 -23 -10 -30 -40 -37 -47 -12 -49 -24 -5 -28 l32 -3
-48 -48 c-27 -27 -46 -51 -43 -54 3 -3 24 6 46 21 l40 26 0 -50 c0 -38 4 -50
15 -50 11 0 15 12 15 50 0 45 2 50 23 50 12 0 29 5 37 10 11 7 23 1 46 -21 23
-22 39 -30 60 -27 39 4 40 22 1 36 -19 7 -51 28 -73 47 l-39 34 38 1 c20 0 37
5 37 10 0 6 -24 10 -54 10 -51 0 -53 1 -48 25 3 20 0 25 -16 25 -15 0 -22 -7
-24 -27z m56 -72 c15 -17 15 -19 1 -25 -9 -3 -28 -6 -41 -6 -24 0 -24 1 -8 25
20 30 26 31 48 6z"/>
<path d="M208 4893 c-2 -23 -10 -30 -40 -37 -47 -12 -49 -24 -5 -28 l32 -3
-48 -48 c-27 -27 -46 -51 -43 -54 3 -3 24 6 46 21 l40 26 0 -50 c0 -38 4 -50
15 -50 10 0 15 10 15 30 0 23 5 30 19 30 27 0 51 10 51 22 0 6 -14 8 -35 4
-22 -4 -35 -3 -35 4 0 5 10 10 23 10 12 0 29 5 37 10 11 7 23 1 46 -21 23 -22
39 -30 60 -27 39 4 40 22 1 36 -19 7 -51 28 -73 47 l-39 34 38 1 c20 0 37 5
37 10 0 6 -24 10 -54 10 -51 0 -53 1 -48 25 3 20 0 25 -16 25 -15 0 -22 -7
-24 -27z m56 -72 c15 -17 15 -19 1 -25 -9 -3 -28 -6 -41 -6 -24 0 -24 1 -8 25
20 30 26 31 48 6z"/>
<path d="M208 4443 c-2 -23 -10 -30 -40 -37 -47 -12 -49 -24 -5 -28 l32 -3
-48 -48 c-27 -27 -46 -51 -43 -54 3 -3 24 6 46 21 l40 26 0 -50 c0 -52 10 -61
36 -35 9 8 26 15 40 15 13 0 24 5 24 11 0 7 -14 10 -35 7 -19 -2 -35 0 -35 4
0 4 9 8 19 8 27 0 51 10 51 22 0 6 -14 8 -35 4 -22 -4 -35 -3 -35 4 0 5 10 10
23 10 12 0 29 5 37 10 11 7 23 1 46 -21 23 -22 39 -30 60 -27 39 4 40 22 1 36
-19 7 -51 28 -73 47 l-39 34 38 1 c20 0 37 5 37 10 0 6 -24 10 -54 10 -51 0
-53 1 -48 25 3 20 0 25 -16 25 -15 0 -22 -7 -24 -27z m56 -72 c15 -17 15 -19
1 -25 -9 -3 -28 -6 -41 -6 -24 0 -24 1 -8 25 20 30 26 31 48 6z"/>
<path d="M208 3993 c-2 -23 -10 -30 -40 -37 -47 -12 -49 -24 -5 -28 l32 -3
-48 -48 c-27 -27 -46 -51 -43 -54 3 -3 24 6 46 21 l41 27 -3 -48 -3 -48 -43
-3 c-28 -2 -42 -7 -39 -15 2 -7 17 -11 33 -10 16 2 78 6 137 9 73 5 107 10
104 18 -3 7 -31 10 -83 8 -56 -2 -75 0 -64 8 8 5 25 10 38 10 12 0 22 5 22 11
0 7 -14 10 -35 7 -19 -2 -35 0 -35 4 0 4 9 8 19 8 27 0 51 10 51 22 0 6 -14 8
-35 4 -22 -4 -35 -3 -35 4 0 5 10 10 23 10 12 0 29 5 37 10 11 7 23 1 46 -21
23 -22 39 -30 60 -27 39 4 40 22 1 36 -19 7 -51 28 -73 47 l-39 34 38 1 c20 0
37 5 37 10 0 6 -24 10 -54 10 -51 0 -53 1 -48 25 3 20 0 25 -16 25 -15 0 -22
-7 -24 -27z m56 -72 c15 -17 15 -19 1 -25 -9 -3 -28 -6 -41 -6 -24 0 -24 1 -8
25 20 30 26 31 48 6z"/>
<path d="M208 3543 c-2 -23 -10 -30 -40 -37 -47 -12 -49 -24 -5 -28 l32 -3
-48 -48 c-27 -27 -46 -51 -43 -54 3 -3 24 6 46 21 l41 27 -3 -48 -3 -48 -43
-3 c-28 -2 -42 -7 -39 -15 2 -7 20 -11 45 -9 34 2 40 -1 36 -13 -4 -9 -15 -20
-25 -26 -18 -9 -27 -39 -11 -39 21 0 142 36 142 42 0 10 -15 10 -65 -2 l-40
-9 24 18 c13 10 21 23 17 30 -5 8 16 11 74 11 61 0 81 3 77 13 -3 8 -27 11
-83 9 -56 -2 -75 0 -64 8 8 5 25 10 38 10 12 0 22 5 22 11 0 7 -14 10 -35 7
-19 -2 -35 0 -35 4 0 4 9 8 19 8 27 0 51 10 51 22 0 6 -14 8 -35 4 -22 -4 -35
-3 -35 4 0 5 10 10 23 10 12 0 29 5 37 10 11 7 23 1 46 -21 23 -22 39 -30 60
-27 39 4 40 22 1 36 -19 7 -51 28 -73 47 l-39 34 38 1 c20 0 37 5 37 10 0 6
-24 10 -54 10 -51 0 -53 1 -48 25 3 20 0 25 -16 25 -15 0 -22 -7 -24 -27z m56
-72 c15 -17 15 -19 1 -25 -9 -3 -28 -6 -41 -6 -24 0 -24 1 -8 25 20 30 26 31
48 6z"/>
<path d="M208 3093 c-2 -23 -10 -30 -40 -37 -47 -12 -49 -24 -5 -28 l32 -3
-48 -48 c-27 -27 -46 -51 -43 -54 3 -3 24 6 46 21 l41 27 -3 -48 -3 -48 -43
-3 c-28 -2 -42 -7 -39 -15 2 -7 20 -11 45 -9 34 2 40 -1 36 -13 -4 -9 -15 -20
-25 -26 -20 -10 -26 -39 -9 -39 6 0 37 7 70 17 56 15 61 15 78 0 25 -23 32
-21 32 8 0 17 -9 29 -30 40 -36 19 -44 19 -36 0 4 -10 -3 -17 -22 -21 -15 -3
-34 -8 -42 -10 -8 -2 -4 4 9 14 13 11 21 24 17 31 -5 8 16 11 74 11 61 0 81 3
77 13 -3 8 -27 11 -83 9 -56 -2 -75 0 -64 8 8 5 25 10 38 10 12 0 22 5 22 11
0 7 -14 10 -35 7 -19 -2 -35 0 -35 4 0 4 9 8 19 8 27 0 51 10 51 22 0 6 -14 8
-35 4 -22 -4 -35 -3 -35 4 0 5 10 10 23 10 12 0 29 5 37 10 11 7 23 1 46 -21
23 -22 39 -30 60 -27 39 4 40 22 1 36 -19 7 -51 28 -73 47 l-39 34 38 1 c20 0
37 5 37 10 0 6 -24 10 -54 10 -51 0 -53 1 -48 25 3 20 0 25 -16 25 -15 0 -22
-7 -24 -27z m56 -72 c15 -17 15 -19 1 -25 -9 -3 -28 -6 -41 -6 -24 0 -24 1 -8
25 20 30 26 31 48 6z"/>
</g>
</svg>
