<?xml version="1.0" standalone="no"?>
<!DOCTYPE svg PUBLIC "-//W3C//DTD SVG 20010904//EN"
 "http://www.w3.org/TR/2001/REC-SVG-20010904/DTD/svg10.dtd">
<svg version="1.0" xmlns="http://www.w3.org/2000/svg"
 width="50.000000pt" height="725.000000pt" viewBox="0 0 50.000000 725.000000"
 preserveAspectRatio="xMidYMid meet">
<metadata>
Created by potrace 1.16, written by Peter Selinger 2001-2019
</metadata>
<g transform="translate(0.000000,725.000000) scale(0.100000,-0.100000)"
fill="#000000" stroke="none">
<path d="M233 7149 c-31 -20 -43 -39 -24 -39 23 0 81 32 81 45 0 21 -19 18
-57 -6z"/>
<path d="M233 6699 c-31 -20 -43 -39 -24 -39 23 0 81 32 81 45 0 21 -19 18
-57 -6z"/>
<path d="M142 6628 c6 -16 36 -34 44 -26 3 4 4 14 1 23 -7 17 -51 21 -45 3z"/>
<path d="M233 6249 c-18 -12 -33 -23 -33 -25 0 -11 45 -54 57 -54 19 0 16 27
-4 39 -16 8 -15 11 10 20 15 6 27 17 27 26 0 21 -19 19 -57 -6z"/>
<path d="M142 6178 c6 -16 36 -34 44 -26 3 4 4 14 1 23 -7 17 -51 21 -45 3z"/>
<path d="M233 5799 c-18 -12 -33 -23 -33 -25 0 -11 45 -54 57 -54 19 0 16 27
-4 39 -16 8 -15 11 10 20 15 6 27 17 27 26 0 21 -19 19 -57 -6z"/>
<path d="M312 5754 c-29 -33 -23 -39 22 -24 39 12 43 19 24 38 -16 16 -20 15
-46 -14z"/>
<path d="M142 5728 c6 -16 36 -34 44 -26 3 4 4 14 1 23 -7 17 -51 21 -45 3z"/>
<path d="M233 5349 c-38 -24 -38 -25 -17 -46 14 -14 12 -19 -15 -47 -41 -42
-41 -60 0 -52 17 3 38 6 45 6 8 0 14 5 14 10 0 6 -10 10 -22 10 -22 0 -22 1 5
24 31 27 34 41 10 55 -16 8 -15 11 10 20 15 6 27 17 27 26 0 21 -19 19 -57 -6z"/>
<path d="M312 5304 c-29 -33 -23 -39 22 -24 39 12 43 19 24 38 -16 16 -20 15
-46 -14z"/>
<path d="M142 5278 c6 -16 36 -34 44 -26 3 4 4 14 1 23 -7 17 -51 21 -45 3z"/>
<path d="M233 4899 c-38 -24 -38 -25 -17 -46 14 -14 12 -19 -15 -47 -35 -36
-39 -56 -13 -57 13 0 12 -3 -5 -11 -32 -15 -32 -53 0 -44 12 3 46 11 75 17 61
14 71 34 12 24 -22 -4 -40 -4 -40 -1 0 3 18 15 40 26 43 22 50 37 24 47 -10 4
-20 0 -26 -10 -5 -10 -19 -17 -31 -17 -21 0 -21 1 6 24 31 27 34 41 10 55 -16
8 -15 11 10 20 15 6 27 17 27 26 0 21 -19 19 -57 -6z"/>
<path d="M312 4854 c-29 -33 -23 -39 22 -24 39 12 43 19 24 38 -16 16 -20 15
-46 -14z"/>
<path d="M142 4828 c6 -16 36 -34 44 -26 3 4 4 14 1 23 -7 17 -51 21 -45 3z"/>
<path d="M233 4449 c-38 -24 -38 -25 -17 -46 14 -14 12 -19 -15 -47 -35 -36
-39 -56 -13 -57 13 0 12 -3 -5 -11 -13 -6 -23 -19 -23 -30 0 -22 -4 -22 77 -1
49 12 68 13 71 5 6 -19 32 -14 32 6 0 10 -11 25 -25 32 -22 12 -27 11 -38 -4
-8 -10 -22 -16 -33 -14 -15 3 -10 9 24 26 44 24 52 39 26 49 -10 4 -20 0 -26
-10 -5 -10 -19 -17 -31 -17 -21 0 -21 1 6 24 31 27 34 41 10 55 -16 8 -15 11
10 20 15 6 27 17 27 26 0 21 -19 19 -57 -6z"/>
<path d="M312 4404 c-29 -33 -23 -39 22 -24 39 12 43 19 24 38 -16 16 -20 15
-46 -14z"/>
<path d="M142 4378 c6 -16 36 -34 44 -26 3 4 4 14 1 23 -7 17 -51 21 -45 3z"/>
<path d="M233 3999 c-38 -24 -38 -25 -17 -46 14 -14 12 -19 -15 -47 -35 -36
-39 -56 -13 -57 13 0 12 -3 -5 -11 -13 -6 -23 -19 -23 -30 0 -22 -4 -22 77 -1
49 12 68 13 71 5 6 -19 32 -14 32 6 0 10 -11 25 -25 32 -22 12 -27 11 -38 -4
-8 -10 -22 -16 -33 -14 -15 3 -10 9 24 26 44 24 52 39 26 49 -10 4 -20 0 -26
-10 -5 -10 -19 -17 -31 -17 -21 0 -21 1 6 24 31 27 34 41 10 55 -16 8 -15 11
10 20 15 6 27 17 27 26 0 21 -19 19 -57 -6z"/>
<path d="M312 3954 c-29 -33 -23 -39 22 -24 39 12 43 19 24 38 -16 16 -20 15
-46 -14z"/>
<path d="M142 3928 c6 -16 36 -34 44 -26 3 4 4 14 1 23 -7 17 -51 21 -45 3z"/>
<path d="M231 3776 c-90 -8 -126 -15 -129 -25 -4 -11 4 -13 39 -7 24 3 97 9
162 13 64 3 117 9 117 13 0 10 -27 20 -48 19 -9 -1 -73 -7 -141 -13z"/>
<path d="M233 3549 c-38 -24 -38 -25 -17 -46 14 -14 12 -19 -15 -47 -35 -36
-39 -56 -13 -57 13 0 12 -3 -5 -11 -13 -6 -23 -20 -23 -30 0 -16 5 -18 36 -12
29 5 36 4 32 -7 -3 -9 -26 -16 -63 -19 -37 -3 -60 -10 -63 -19 -4 -11 6 -12
52 -7 68 9 73 -4 16 -36 -22 -13 -40 -26 -40 -30 0 -25 84 16 111 53 19 28 24
29 100 29 43 0 79 4 79 9 0 16 -30 21 -90 14 -57 -5 -60 -5 -60 16 0 14 6 21
20 21 11 0 20 -4 20 -10 0 -5 7 -10 15 -10 24 0 17 35 -10 50 -22 12 -27 11
-38 -4 -8 -10 -22 -16 -33 -14 -15 3 -10 9 24 26 44 24 52 39 26 49 -10 4 -20
0 -26 -10 -5 -10 -19 -17 -31 -17 -21 0 -21 1 6 24 31 27 34 41 10 55 -16 8
-15 11 10 20 15 6 27 17 27 26 0 21 -19 19 -57 -6z"/>
<path d="M312 3504 c-29 -33 -23 -39 22 -24 39 12 43 19 24 38 -16 16 -20 15
-46 -14z"/>
<path d="M142 3478 c6 -16 36 -34 44 -26 3 4 4 14 1 23 -7 17 -51 21 -45 3z"/>
<path d="M233 3099 c-38 -24 -38 -25 -17 -46 14 -14 12 -19 -15 -47 -35 -36
-39 -56 -13 -57 13 0 12 -3 -5 -11 -13 -6 -23 -20 -23 -30 0 -16 5 -18 36 -12
29 5 36 4 32 -7 -3 -9 -26 -16 -63 -19 -37 -3 -60 -10 -63 -19 -4 -11 6 -12
52 -7 68 9 73 -4 16 -36 -22 -13 -40 -26 -40 -30 0 -25 84 16 111 53 19 28 24
29 100 29 43 0 79 4 79 9 0 16 -30 21 -90 14 -57 -5 -60 -5 -60 16 0 14 6 21
20 21 11 0 20 -4 20 -10 0 -5 7 -10 15 -10 24 0 17 35 -10 50 -22 12 -27 11
-38 -4 -8 -10 -22 -16 -33 -14 -15 3 -10 9 24 26 44 24 52 39 26 49 -10 4 -20
0 -26 -10 -5 -10 -19 -17 -31 -17 -21 0 -21 1 6 24 31 27 34 41 10 55 -16 8
-15 11 10 20 15 6 27 17 27 26 0 21 -19 19 -57 -6z"/>
<path d="M312 3054 c-29 -33 -23 -39 22 -24 39 12 43 19 24 38 -16 16 -20 15
-46 -14z"/>
<path d="M142 3028 c6 -16 36 -34 44 -26 3 4 4 14 1 23 -7 17 -51 21 -45 3z"/>
<path d="M290 2831 c0 -12 63 -61 78 -61 7 0 12 9 12 21 0 13 -11 25 -35 35
-40 16 -55 18 -55 5z"/>
</g>
</svg>
