<?xml version="1.0" standalone="no"?>
<!DOCTYPE svg PUBLIC "-//W3C//DTD SVG 20010904//EN"
 "http://www.w3.org/TR/2001/REC-SVG-20010904/DTD/svg10.dtd">
<svg version="1.0" xmlns="http://www.w3.org/2000/svg"
 width="50.000000pt" height="725.000000pt" viewBox="0 0 50.000000 725.000000"
 preserveAspectRatio="xMidYMid meet">
<metadata>
Created by potrace 1.16, written by Peter Selinger 2001-2019
</metadata>
<g transform="translate(0.000000,725.000000) scale(0.100000,-0.100000)"
fill="#000000" stroke="none">
<path d="M220 7154 c0 -16 23 -44 35 -44 18 0 20 21 3 38 -12 12 -38 17 -38 6z"/>
<path d="M220 6704 c0 -3 4 -13 10 -23 8 -17 4 -19 -41 -23 -48 -5 -68 -13
-57 -23 8 -8 238 17 238 26 0 13 -36 20 -65 13 -20 -5 -30 -2 -41 15 -14 19
-44 30 -44 15z"/>
<path d="M220 6254 c0 -3 5 -14 10 -25 10 -17 7 -19 -22 -19 -42 0 -78 -10
-78 -21 0 -5 11 -9 24 -9 19 0 25 -6 28 -27 3 -28 3 -28 82 -28 57 0 81 4 84
13 3 11 -10 12 -66 7 -71 -7 -88 -1 -76 28 4 11 28 17 85 22 43 4 79 11 79 15
0 14 -36 21 -65 14 -20 -5 -30 -2 -41 15 -14 19 -44 30 -44 15z"/>
<path d="M220 5804 c0 -3 5 -14 10 -25 10 -17 7 -19 -22 -19 -42 0 -78 -10
-78 -21 0 -5 11 -9 25 -9 20 0 25 -5 25 -26 0 -18 6 -28 20 -31 22 -6 21 -22
-6 -75 -20 -38 -18 -46 14 -53 15 -3 48 -19 72 -35 53 -35 70 -37 70 -10 0 23
-66 59 -107 60 -31 0 -35 12 -12 46 10 16 19 37 19 46 0 13 11 18 47 20 27 2
48 8 51 16 3 11 -10 12 -66 7 -71 -7 -88 -1 -76 28 4 11 28 17 85 22 43 4 79
11 79 15 0 14 -36 21 -65 14 -20 -5 -30 -2 -41 15 -14 19 -44 30 -44 15z"/>
<path d="M220 5354 c0 -3 5 -14 10 -25 10 -17 7 -19 -22 -19 -42 0 -78 -10
-78 -21 0 -5 11 -9 25 -9 20 0 25 -5 25 -26 0 -18 6 -28 20 -31 22 -6 21 -22
-6 -75 -19 -37 -18 -43 14 -54 l27 -10 -37 -14 c-21 -8 -38 -18 -38 -22 0 -13
39 -9 71 8 28 14 32 14 63 -5 42 -26 56 -26 56 -1 0 12 -12 26 -30 35 -35 18
-35 17 -14 56 16 31 13 59 -6 59 -5 0 -10 -5 -10 -11 0 -27 -33 -79 -51 -79
-27 0 -30 13 -8 46 10 16 19 37 19 46 0 13 11 18 47 20 27 2 48 8 51 16 3 11
-10 12 -66 7 -71 -7 -88 -1 -76 28 4 11 28 17 85 22 43 4 79 11 79 15 0 14
-36 21 -65 14 -20 -5 -30 -2 -41 15 -14 19 -44 30 -44 15z"/>
<path d="M220 4904 c0 -3 5 -14 10 -25 10 -17 7 -19 -22 -19 -42 0 -78 -10
-78 -21 0 -5 11 -9 25 -9 20 0 25 -5 25 -26 0 -18 6 -28 20 -31 16 -4 19 -11
14 -27 -9 -30 -8 -29 -75 -34 -75 -6 -77 -28 -1 -24 44 2 50 0 46 -16 -4 -13
3 -21 23 -28 l28 -10 -37 -14 c-21 -8 -38 -18 -38 -22 0 -13 39 -9 71 8 28 14
32 14 63 -5 42 -26 56 -26 56 -1 0 12 -12 26 -30 35 -34 17 -34 19 -20 46 9
16 22 19 71 19 76 0 78 23 3 28 -26 2 -55 8 -62 15 -11 8 -16 7 -23 -6 -6 -9
-18 -17 -28 -17 -14 0 -17 6 -14 24 4 22 11 25 51 28 26 2 47 8 50 16 3 11
-10 12 -66 7 -71 -7 -88 -1 -76 28 4 11 28 17 85 22 43 4 79 11 79 15 0 14
-36 21 -65 14 -20 -5 -30 -2 -41 15 -14 19 -44 30 -44 15z m48 -224 c-13 -20
-38 -26 -51 -13 -12 11 14 33 39 33 22 0 23 -2 12 -20z"/>
</g>
</svg>
