<?xml version="1.0" standalone="no"?>
<!DOCTYPE svg PUBLIC "-//W3C//DTD SVG 20010904//EN"
 "http://www.w3.org/TR/2001/REC-SVG-20010904/DTD/svg10.dtd">
<svg version="1.0" xmlns="http://www.w3.org/2000/svg"
 width="50.000000pt" height="725.000000pt" viewBox="0 0 50.000000 725.000000"
 preserveAspectRatio="xMidYMid meet">
<metadata>
Created by potrace 1.16, written by Peter Selinger 2001-2019
</metadata>
<g transform="translate(0.000000,725.000000) scale(0.100000,-0.100000)"
fill="#000000" stroke="none">
<path d="M160 7115 c0 -24 -5 -67 -11 -96 l-11 -51 38 -39 c43 -44 54 -48 54
-20 0 11 -15 28 -35 41 -24 15 -34 28 -31 39 22 73 36 146 32 157 -3 8 -12 14
-21 14 -11 0 -15 -11 -15 -45z"/>
<path d="M160 6665 c0 -24 -5 -67 -11 -95 -9 -44 -9 -54 6 -70 15 -17 15 -19
-14 -36 -17 -10 -31 -22 -31 -26 0 -11 8 -10 47 8 25 13 37 14 46 5 6 -6 15
-11 19 -11 11 0 10 34 -2 46 -6 6 -4 25 6 53 17 49 15 82 -3 89 -9 2 -13 -8
-13 -32 0 -37 -18 -86 -31 -86 -17 0 -17 20 2 94 21 82 20 106 -6 106 -11 0
-15 -11 -15 -45z"/>
<path d="M160 6213 c0 -79 -7 -93 -47 -93 -23 0 -33 -4 -30 -12 2 -7 16 -13
30 -13 17 1 27 -5 27 -14 0 -8 7 -22 16 -32 14 -16 13 -19 -15 -35 -17 -10
-31 -22 -31 -26 0 -11 8 -10 47 8 25 13 37 14 46 5 6 -6 15 -11 19 -11 12 0
10 34 -2 46 -12 12 12 79 32 87 9 4 10 8 2 14 -6 4 -13 16 -17 26 -10 26 -27
21 -27 -8 0 -16 -6 -25 -16 -25 -13 0 -15 6 -8 38 13 63 11 86 -8 90 -15 3
-18 -4 -18 -45z m38 -128 c-12 -26 -23 -31 -32 -16 -10 16 5 41 25 41 16 0 17
-3 7 -25z"/>
<path d="M160 5763 c0 -79 -7 -93 -47 -93 -23 0 -33 -4 -30 -12 2 -7 16 -13
30 -13 17 1 27 -5 27 -14 0 -8 7 -22 16 -32 14 -16 13 -19 -15 -35 -17 -10
-31 -22 -31 -26 0 -11 8 -10 47 8 25 13 37 14 46 5 6 -6 15 -11 19 -11 12 0
10 34 -2 46 -12 12 12 79 32 87 9 4 10 8 2 14 -6 4 -13 16 -17 26 -10 26 -27
21 -27 -8 0 -16 -6 -25 -16 -25 -13 0 -15 6 -8 38 13 63 11 86 -8 90 -15 3
-18 -4 -18 -45z m38 -128 c-12 -26 -23 -31 -32 -16 -10 16 5 41 25 41 16 0 17
-3 7 -25z"/>
<path d="M321 5770 c-19 -16 -32 -32 -29 -35 8 -9 108 43 108 55 0 20 -46 8
-79 -20z"/>
<path d="M160 5313 c0 -79 -7 -93 -47 -93 -23 0 -33 -4 -30 -12 2 -7 16 -13
30 -13 17 1 27 -5 27 -14 0 -8 7 -22 16 -32 14 -16 13 -19 -15 -35 -17 -10
-31 -22 -31 -26 0 -11 8 -10 47 8 25 13 37 14 46 5 6 -6 15 -11 19 -11 12 0
10 34 -2 46 -12 12 12 79 32 87 9 4 10 8 2 14 -6 4 -13 16 -17 26 -10 26 -27
21 -27 -8 0 -16 -6 -25 -16 -25 -13 0 -15 6 -8 38 13 63 11 86 -8 90 -15 3
-18 -4 -18 -45z m38 -128 c-12 -26 -23 -31 -32 -16 -10 16 5 41 25 41 16 0 17
-3 7 -25z"/>
<path d="M327 5325 c-15 -14 -37 -25 -48 -25 -17 0 -18 -5 -13 -38 7 -44 -11
-142 -33 -185 -19 -37 -7 -49 17 -17 24 31 41 91 48 163 5 58 5 58 53 83 27
13 49 29 49 34 0 19 -45 9 -73 -15z"/>
<path d="M160 4863 c0 -79 -7 -93 -47 -93 -23 0 -33 -4 -30 -12 2 -7 16 -13
30 -13 17 1 27 -5 27 -14 0 -8 7 -22 16 -32 14 -16 13 -19 -15 -35 -17 -10
-31 -22 -31 -26 0 -11 8 -10 47 8 25 13 37 14 46 5 6 -6 15 -11 19 -11 12 0
10 34 -2 46 -12 12 12 79 32 87 9 4 10 8 2 14 -6 4 -13 16 -17 26 -10 26 -27
21 -27 -8 0 -16 -6 -25 -16 -25 -13 0 -15 6 -8 38 13 63 11 86 -8 90 -15 3
-18 -4 -18 -45z m38 -128 c-12 -26 -23 -31 -32 -16 -10 16 5 41 25 41 16 0 17
-3 7 -25z"/>
<path d="M327 4875 c-15 -14 -36 -25 -45 -25 -14 0 -17 -11 -18 -73 -1 -63 -9
-99 -39 -171 -6 -14 -4 -17 5 -14 22 7 51 73 63 142 10 60 13 65 40 70 52 10
58 8 51 -19 -8 -34 19 -34 34 0 21 45 17 48 -53 42 -36 -4 -65 -4 -65 -2 0 3
23 16 50 30 28 14 50 30 50 35 0 19 -45 9 -73 -15z"/>
<path d="M160 4413 c0 -79 -7 -93 -47 -93 -23 0 -33 -4 -30 -12 2 -7 16 -13
30 -13 17 1 27 -5 27 -14 0 -8 7 -22 16 -32 14 -16 13 -19 -15 -35 -17 -10
-31 -22 -31 -26 0 -11 8 -10 47 8 25 13 37 14 46 5 6 -6 15 -11 19 -11 12 0
10 34 -2 46 -12 12 12 79 32 87 9 4 10 8 2 14 -6 4 -13 16 -17 26 -10 26 -27
21 -27 -8 0 -16 -6 -25 -16 -25 -13 0 -15 6 -8 38 13 63 11 86 -8 90 -15 3
-18 -4 -18 -45z m38 -128 c-12 -26 -23 -31 -32 -16 -10 16 5 41 25 41 16 0 17
-3 7 -25z"/>
<path d="M327 4425 c-15 -14 -36 -25 -45 -25 -14 0 -17 -11 -18 -73 -1 -63 -9
-100 -39 -169 -4 -10 -3 -18 3 -18 16 0 42 48 55 100 12 53 23 60 87 60 32 0
37 4 48 33 7 18 12 37 12 42 0 4 -29 5 -65 2 -36 -4 -65 -4 -65 -2 0 3 23 16
50 30 28 14 50 30 50 35 0 19 -45 9 -73 -15z m63 -72 c-1 -19 -18 -31 -52 -35
-31 -3 -38 -1 -38 13 0 17 19 25 68 28 12 0 22 -2 22 -6z"/>
</g>
</svg>
