<?xml version="1.0" standalone="no"?>
<!DOCTYPE svg PUBLIC "-//W3C//DTD SVG 20010904//EN"
 "http://www.w3.org/TR/2001/REC-SVG-20010904/DTD/svg10.dtd">
<svg version="1.0" xmlns="http://www.w3.org/2000/svg"
 width="50.000000pt" height="725.000000pt" viewBox="0 0 50.000000 725.000000"
 preserveAspectRatio="xMidYMid meet">
<metadata>
Created by potrace 1.16, written by Peter Selinger 2001-2019
</metadata>
<g transform="translate(0.000000,725.000000) scale(0.100000,-0.100000)"
fill="#000000" stroke="none">
<path d="M170 7108 c0 -17 -7 -60 -16 -95 l-16 -64 39 -39 c39 -41 63 -51 63
-26 0 11 -54 61 -77 71 -2 1 9 38 23 83 25 83 25 102 -2 102 -9 0 -14 -11 -14
-32z"/>
<path d="M170 6658 c0 -17 -7 -60 -16 -95 -15 -61 -15 -65 2 -84 18 -20 18
-21 -6 -39 -32 -24 -18 -38 16 -15 19 12 29 14 37 6 15 -15 37 -14 37 3 0 7
-6 19 -13 25 -12 9 -11 20 5 66 19 58 17 75 -8 75 -10 0 -14 -12 -14 -38 0
-44 -19 -76 -37 -64 -10 6 -7 27 13 90 25 83 25 102 -2 102 -9 0 -14 -11 -14
-32z"/>
<path d="M169 6203 c-2 -66 -12 -87 -47 -97 -36 -10 -38 -32 -3 -29 14 2 21
-3 21 -14 0 -9 8 -25 17 -35 17 -19 16 -20 -7 -38 -32 -24 -18 -38 16 -15 19
12 29 14 37 6 15 -15 37 -14 37 3 0 7 -6 19 -14 25 -12 10 -12 18 2 54 9 23
21 45 26 49 12 8 -11 38 -30 38 -8 0 -14 -7 -14 -15 0 -8 -7 -15 -15 -15 -18
0 -18 -2 0 51 17 47 14 69 -10 69 -11 0 -15 -11 -16 -37z m41 -114 c0 -23 -21
-48 -35 -43 -19 8 -19 19 1 38 18 18 34 21 34 5z"/>
<path d="M169 5753 c-2 -66 -12 -87 -47 -97 -36 -10 -38 -32 -3 -29 14 2 21
-3 21 -14 0 -9 8 -25 17 -35 17 -19 16 -20 -7 -38 -32 -24 -18 -38 16 -15 19
12 29 14 37 6 28 -28 50 -2 24 28 -12 13 -11 23 4 61 13 33 18 39 18 21 1 -19
5 -22 24 -17 12 4 43 12 70 18 56 14 64 33 10 24 -21 -4 -46 -9 -56 -12 -14
-4 -9 7 18 45 36 50 40 81 11 81 -8 0 -17 -12 -20 -28 -4 -15 -15 -40 -25 -55
-16 -24 -19 -26 -31 -12 -16 19 -40 20 -40 0 0 -8 -7 -15 -15 -15 -18 0 -18
-2 0 51 17 47 14 69 -10 69 -11 0 -15 -11 -16 -37z m41 -114 c0 -23 -21 -48
-35 -43 -19 8 -19 19 1 38 18 18 34 21 34 5z"/>
<path d="M169 5303 c-2 -66 -12 -87 -47 -97 -36 -10 -38 -32 -3 -29 14 2 21
-3 21 -14 0 -9 8 -25 17 -35 17 -19 16 -20 -7 -38 -32 -24 -18 -38 16 -15 19
12 29 14 37 6 28 -28 50 -2 24 28 -12 13 -11 23 4 61 12 31 18 38 18 23 1 -27
-1 -27 69 -7 42 13 60 14 74 5 26 -16 30 -14 26 16 -2 19 -12 32 -31 41 -32
16 -46 10 -28 -12 11 -13 8 -16 -16 -22 -15 -3 -36 -8 -46 -11 -14 -4 -9 8 18
46 36 50 40 81 11 81 -8 0 -17 -12 -20 -28 -4 -15 -15 -40 -25 -55 -16 -24
-19 -26 -31 -12 -16 19 -40 20 -40 0 0 -8 -7 -15 -15 -15 -18 0 -18 -2 0 51
17 47 14 69 -10 69 -11 0 -15 -11 -16 -37z m41 -114 c0 -23 -21 -48 -35 -43
-19 8 -19 19 1 38 18 18 34 21 34 5z"/>
<path d="M169 4853 c-2 -66 -12 -87 -47 -97 -36 -10 -38 -32 -3 -29 14 2 21
-3 21 -14 0 -9 8 -25 17 -35 17 -19 16 -20 -7 -38 -32 -24 -18 -38 16 -15 19
12 29 14 37 6 28 -28 50 -2 24 28 -12 13 -11 23 4 61 12 31 18 38 18 23 1 -27
-1 -27 69 -7 42 13 60 14 74 5 26 -16 30 -14 26 16 -2 19 -12 32 -31 41 -32
16 -46 10 -28 -12 11 -13 8 -16 -16 -22 -15 -3 -36 -8 -46 -11 -14 -4 -9 8 18
46 36 50 40 81 11 81 -8 0 -17 -12 -20 -28 -4 -15 -15 -40 -25 -55 -16 -24
-19 -26 -31 -12 -16 19 -40 20 -40 0 0 -8 -7 -15 -15 -15 -18 0 -18 -2 0 51
17 47 14 69 -10 69 -11 0 -15 -11 -16 -37z m41 -114 c0 -23 -21 -48 -35 -43
-19 8 -19 19 1 38 18 18 34 21 34 5z"/>
<path d="M265 4675 c3 -14 7 -36 10 -50 3 -14 10 -25 16 -25 7 0 9 9 5 23 -3
12 -6 34 -6 50 0 17 -5 27 -15 27 -11 0 -14 -7 -10 -25z"/>
<path d="M169 4403 c-2 -66 -12 -87 -47 -97 -36 -10 -38 -32 -3 -29 14 2 21
-3 21 -14 0 -9 8 -25 17 -35 17 -19 16 -20 -7 -38 -32 -24 -18 -38 16 -15 19
12 29 14 37 6 28 -28 50 -2 24 28 -12 13 -11 23 4 61 12 31 18 38 18 23 1 -27
-1 -27 69 -7 42 13 60 14 74 5 26 -16 30 -14 26 16 -2 19 -12 32 -31 41 -32
16 -46 10 -28 -12 11 -13 8 -16 -16 -22 -15 -3 -36 -8 -46 -11 -14 -4 -9 8 18
46 36 50 40 81 11 81 -8 0 -17 -12 -20 -28 -4 -15 -15 -40 -25 -55 -16 -24
-19 -26 -31 -12 -16 19 -40 20 -40 0 0 -8 -7 -15 -15 -15 -18 0 -18 -2 0 51
17 47 14 69 -10 69 -11 0 -15 -11 -16 -37z m41 -114 c0 -23 -21 -48 -35 -43
-19 8 -19 19 1 38 18 18 34 21 34 5z"/>
<path d="M350 4250 c0 -5 5 -10 11 -10 6 0 9 -14 7 -32 -2 -17 2 -33 9 -35 13
-5 38 62 28 77 -8 13 -55 13 -55 0z"/>
<path d="M265 4225 c3 -14 7 -36 10 -50 9 -42 26 -29 19 15 -6 36 -5 40 15 40
11 0 21 5 21 10 0 6 -16 10 -35 10 -32 0 -35 -2 -30 -25z"/>
<path d="M169 3953 c-2 -66 -12 -87 -47 -97 -36 -10 -38 -32 -3 -29 14 2 21
-3 21 -14 0 -9 8 -25 17 -35 17 -19 16 -20 -7 -38 -32 -24 -18 -38 16 -15 19
12 29 14 37 6 28 -28 50 -2 24 28 -12 13 -11 23 4 61 12 31 18 38 18 23 1 -27
-1 -27 69 -7 42 13 60 14 74 5 26 -16 30 -14 26 16 -2 19 -12 32 -31 41 -32
16 -46 10 -28 -12 11 -13 8 -16 -16 -22 -15 -3 -36 -8 -46 -11 -14 -4 -9 8 18
46 36 50 40 81 11 81 -8 0 -17 -12 -20 -28 -4 -15 -15 -40 -25 -55 -16 -24
-19 -26 -31 -12 -16 19 -40 20 -40 0 0 -8 -7 -15 -15 -15 -18 0 -18 -2 0 51
17 47 14 69 -10 69 -11 0 -15 -11 -16 -37z m41 -114 c0 -23 -21 -48 -35 -43
-19 8 -19 19 1 38 18 18 34 21 34 5z"/>
<path d="M350 3800 c0 -5 5 -10 10 -10 6 0 10 -9 10 -20 0 -23 -40 -46 -64
-37 -24 9 -20 47 4 47 11 0 20 5 20 10 0 6 -16 10 -35 10 -33 0 -35 -2 -30
-27 4 -16 8 -39 11 -51 3 -16 10 -22 20 -18 9 3 33 6 53 6 35 0 39 3 50 40 7
22 9 45 6 50 -8 13 -55 13 -55 0z"/>
</g>
</svg>
