<?xml version="1.0" standalone="no"?>
<!DOCTYPE svg PUBLIC "-//W3C//DTD SVG 20010904//EN"
 "http://www.w3.org/TR/2001/REC-SVG-20010904/DTD/svg10.dtd">
<svg version="1.0" xmlns="http://www.w3.org/2000/svg"
 width="50.000000pt" height="725.000000pt" viewBox="0 0 50.000000 725.000000"
 preserveAspectRatio="xMidYMid meet">
<metadata>
Created by potrace 1.16, written by Peter Selinger 2001-2019
</metadata>
<g transform="translate(0.000000,725.000000) scale(0.100000,-0.100000)"
fill="#000000" stroke="none">
<path d="M230 7144 c0 -14 -7 -41 -16 -60 -9 -19 -15 -36 -13 -37 49 -27 121
-58 126 -54 14 14 -9 37 -49 48 -24 7 -44 14 -46 15 -2 1 6 21 18 44 23 44 21
70 -5 70 -10 0 -15 -9 -15 -26z"/>
<path d="M230 6693 c0 -16 -7 -41 -15 -57 -20 -37 -19 -42 8 -51 22 -7 22 -7
-5 -18 -16 -6 -28 -14 -28 -19 0 -11 5 -10 52 4 29 9 41 9 50 0 7 -7 18 -12
25 -12 20 0 15 28 -7 40 -19 10 -19 12 -4 35 9 14 14 32 10 40 -8 22 -36 19
-36 -4 0 -33 -11 -51 -31 -51 -24 0 -24 2 2 51 22 43 20 69 -6 69 -10 0 -15
-9 -15 -27z"/>
<path d="M230 6246 c0 -48 -9 -56 -61 -56 -27 0 -49 -4 -49 -9 0 -13 23 -20
53 -14 20 4 27 1 27 -10 0 -8 10 -18 23 -22 22 -7 22 -7 -5 -18 -16 -6 -28
-14 -28 -19 0 -11 5 -10 52 4 29 9 41 9 50 0 7 -7 18 -12 25 -12 20 0 15 28
-7 40 -17 9 -18 14 -7 30 9 15 23 20 55 20 31 0 42 4 40 13 -5 14 -111 30
-116 16 -2 -5 -10 -9 -18 -9 -12 0 -12 4 -4 21 14 25 6 49 -15 49 -9 0 -15 -9
-15 -24z m44 -81 c-6 -16 -44 -21 -44 -7 0 14 12 22 31 22 12 0 16 -5 13 -15z"/>
<path d="M230 5796 c0 -48 -9 -56 -61 -56 -27 0 -49 -4 -49 -9 0 -13 23 -20
53 -14 20 4 27 1 27 -10 0 -8 10 -18 23 -22 21 -6 21 -7 -8 -20 -16 -7 -35
-11 -42 -8 -8 3 -13 -3 -13 -16 0 -11 -8 -40 -17 -63 -13 -33 -14 -43 -4 -46
7 -2 28 -17 46 -33 39 -34 45 -36 45 -9 0 13 -12 26 -35 37 -20 9 -34 22 -32
27 2 6 10 28 17 48 11 31 20 38 57 49 33 9 47 9 56 0 6 -6 17 -11 24 -11 20 0
15 28 -7 40 -17 9 -18 14 -7 30 9 15 23 20 55 20 31 0 42 4 40 13 -5 14 -111
30 -116 16 -2 -5 -10 -9 -18 -9 -12 0 -12 4 -4 21 14 25 6 49 -15 49 -9 0 -15
-9 -15 -24z m44 -81 c-6 -16 -44 -21 -44 -7 0 14 12 22 31 22 12 0 16 -5 13
-15z"/>
<path d="M230 5346 c0 -48 -9 -56 -61 -56 -27 0 -49 -4 -49 -9 0 -13 23 -20
53 -14 20 4 27 1 27 -10 0 -8 10 -18 23 -22 21 -6 21 -7 -8 -20 -16 -7 -34
-11 -40 -9 -6 3 -15 -15 -22 -38 -6 -24 -14 -52 -18 -64 -5 -15 -1 -23 17 -31
l23 -11 -27 -12 c-16 -7 -28 -17 -28 -22 0 -10 38 -1 56 13 7 6 16 4 24 -6 7
-8 16 -15 21 -15 13 0 11 34 -2 47 -8 8 -8 17 0 31 16 30 14 62 -4 62 -10 0
-15 -10 -15 -27 0 -36 -12 -54 -28 -44 -10 6 -9 18 5 53 15 42 21 48 60 59 33
9 47 9 56 0 6 -6 17 -11 24 -11 20 0 15 28 -7 40 -17 9 -18 14 -7 30 9 15 23
20 55 20 31 0 42 4 40 13 -5 14 -111 30 -116 16 -2 -5 -10 -9 -18 -9 -12 0
-12 4 -4 21 14 25 6 49 -15 49 -9 0 -15 -9 -15 -24z m44 -81 c-6 -16 -44 -21
-44 -7 0 14 12 22 31 22 12 0 16 -5 13 -15z"/>
<path d="M230 4896 c0 -48 -9 -56 -61 -56 -27 0 -49 -4 -49 -9 0 -13 23 -20
53 -14 20 4 27 1 27 -10 0 -8 10 -18 23 -22 21 -6 21 -7 -8 -20 -16 -7 -35
-11 -42 -8 -8 3 -13 -3 -13 -17 0 -38 -18 -60 -51 -60 -20 0 -29 -4 -26 -12 2
-7 14 -13 26 -12 11 0 21 -5 21 -11 0 -7 10 -17 22 -22 l23 -11 -27 -12 c-16
-7 -28 -17 -28 -22 0 -10 38 -1 56 13 7 6 16 4 24 -6 7 -8 16 -15 21 -15 13 0
11 34 -2 47 -8 8 -6 20 6 42 9 17 13 36 10 41 -9 14 -33 12 -38 -2 -7 -21 -17
-4 -11 19 7 26 88 53 107 34 6 -6 17 -11 24 -11 20 0 15 28 -7 40 -17 9 -18
14 -7 30 9 15 23 20 55 20 31 0 42 4 40 13 -5 14 -111 30 -116 16 -2 -5 -10
-9 -18 -9 -12 0 -12 4 -4 21 14 25 6 49 -15 49 -9 0 -15 -9 -15 -24z m44 -81
c-6 -16 -44 -21 -44 -7 0 14 12 22 31 22 12 0 16 -5 13 -15z m-74 -152 c-1
-19 -16 -31 -29 -24 -7 5 -10 14 -7 20 8 12 36 15 36 4z"/>
<path d="M230 4446 c0 -48 -9 -56 -61 -56 -27 0 -49 -4 -49 -9 0 -13 23 -20
53 -14 20 4 27 1 27 -10 0 -8 10 -18 23 -22 21 -6 21 -7 -8 -20 -16 -7 -35
-11 -42 -8 -8 3 -13 -3 -13 -17 0 -38 -18 -60 -51 -60 -20 0 -29 -4 -26 -12 2
-7 14 -13 26 -12 11 0 21 -5 21 -11 0 -7 10 -17 22 -22 l23 -11 -27 -12 c-16
-7 -28 -17 -28 -22 0 -10 38 -1 56 13 7 6 16 4 24 -6 7 -8 16 -15 21 -15 13 0
11 34 -2 47 -8 8 -6 20 6 42 9 17 13 36 10 41 -9 14 -33 12 -38 -2 -7 -21 -17
-4 -11 19 6 22 83 51 103 39 9 -6 -1 -55 -23 -107 -5 -11 3 -20 31 -32 21 -8
50 -24 65 -33 29 -19 42 -16 33 8 -5 13 -54 39 -92 50 -8 2 -7 13 4 38 25 54
26 88 3 100 -17 9 -18 14 -7 30 9 15 23 20 55 20 31 0 42 4 40 13 -5 14 -111
30 -116 16 -2 -5 -10 -9 -18 -9 -12 0 -12 4 -4 21 14 25 6 49 -15 49 -9 0 -15
-9 -15 -24z m44 -81 c-6 -16 -44 -21 -44 -7 0 14 12 22 31 22 12 0 16 -5 13
-15z m-74 -152 c-1 -19 -16 -31 -29 -24 -7 5 -10 14 -7 20 8 12 36 15 36 4z"/>
<path d="M230 3996 c0 -48 -9 -56 -61 -56 -27 0 -49 -4 -49 -9 0 -13 23 -20
53 -14 20 4 27 1 27 -10 0 -8 10 -18 23 -22 21 -6 21 -7 -8 -20 -16 -7 -35
-11 -42 -8 -8 3 -13 -3 -13 -17 0 -38 -18 -60 -51 -60 -20 0 -29 -4 -26 -12 2
-7 14 -13 26 -12 11 0 21 -5 21 -11 0 -7 10 -17 22 -22 l23 -11 -27 -12 c-16
-7 -28 -17 -28 -22 0 -10 38 -1 56 13 7 6 16 4 24 -6 7 -8 16 -15 21 -15 13 0
11 34 -2 47 -8 8 -6 20 6 42 9 17 13 36 10 41 -9 14 -33 12 -38 -2 -7 -21 -17
-4 -11 19 6 22 83 51 103 39 9 -6 -1 -55 -23 -107 -5 -10 1 -19 16 -26 l23
-11 -27 -12 c-16 -7 -28 -17 -28 -22 0 -11 5 -10 46 7 33 13 39 13 65 -2 16
-9 31 -14 34 -11 10 9 -6 37 -25 43 -18 6 -18 9 -4 47 11 33 12 43 2 50 -22
13 -27 9 -26 -22 1 -35 -13 -54 -35 -48 -14 3 -14 7 0 38 25 54 26 88 3 100
-17 9 -18 14 -7 30 9 15 23 20 55 20 31 0 42 4 40 13 -5 14 -111 30 -116 16
-2 -5 -10 -9 -18 -9 -12 0 -12 4 -4 21 14 25 6 49 -15 49 -9 0 -15 -9 -15 -24z
m44 -81 c-6 -16 -44 -21 -44 -7 0 14 12 22 31 22 12 0 16 -5 13 -15z m-74
-152 c-1 -19 -16 -31 -29 -24 -7 5 -10 14 -7 20 8 12 36 15 36 4z"/>
<path d="M230 3546 c0 -48 -9 -56 -61 -56 -27 0 -49 -4 -49 -9 0 -13 23 -20
53 -14 20 4 27 1 27 -10 0 -8 10 -18 23 -22 21 -6 21 -7 -8 -20 -16 -7 -35
-11 -42 -8 -8 3 -13 -3 -13 -17 0 -38 -18 -60 -51 -60 -20 0 -29 -4 -26 -12 2
-7 14 -13 26 -12 11 0 21 -5 21 -11 0 -7 10 -17 22 -22 l23 -11 -27 -12 c-16
-7 -28 -17 -28 -22 0 -10 38 -1 56 13 7 6 16 4 24 -6 7 -8 16 -15 21 -15 13 0
11 34 -2 47 -8 8 -6 20 6 42 9 17 13 36 10 41 -9 14 -33 12 -38 -2 -7 -21 -17
-4 -11 19 4 14 19 25 49 33 24 7 48 10 53 6 17 -10 0 -57 -24 -66 -26 -10 -32
-30 -9 -30 8 0 12 -6 9 -13 -3 -8 5 -18 18 -24 l23 -11 -27 -12 c-16 -7 -28
-17 -28 -22 0 -11 5 -10 46 7 33 13 39 13 65 -2 16 -9 31 -14 34 -11 10 9 -6
37 -25 43 -29 9 -7 65 26 65 30 0 31 16 2 23 -13 2 -31 8 -40 12 -13 5 -18 3
-18 -9 0 -9 -7 -16 -16 -16 -12 0 -14 4 -7 13 18 23 14 66 -7 77 -17 9 -18 14
-7 30 9 15 23 20 55 20 31 0 42 4 40 13 -5 14 -111 30 -116 16 -2 -5 -10 -9
-18 -9 -12 0 -12 4 -4 21 14 25 6 49 -15 49 -9 0 -15 -9 -15 -24z m44 -81 c-6
-16 -44 -21 -44 -7 0 14 12 22 31 22 12 0 16 -5 13 -15z m-74 -152 c-1 -19
-16 -31 -29 -24 -7 5 -10 14 -7 20 8 12 36 15 36 4z m138 -5 c-3 -7 -14 -14
-26 -16 -16 -3 -20 1 -16 12 7 19 48 22 42 4z"/>
</g>
</svg>
