<?xml version="1.0" standalone="no"?>
<!DOCTYPE svg PUBLIC "-//W3C//DTD SVG 20010904//EN"
 "http://www.w3.org/TR/2001/REC-SVG-20010904/DTD/svg10.dtd">
<svg version="1.0" xmlns="http://www.w3.org/2000/svg"
 width="50.000000pt" height="725.000000pt" viewBox="0 0 50.000000 725.000000"
 preserveAspectRatio="xMidYMid meet">
<metadata>
Created by potrace 1.16, written by Peter Selinger 2001-2019
</metadata>
<g transform="translate(0.000000,725.000000) scale(0.100000,-0.100000)"
fill="#000000" stroke="none">
<path d="M143 7102 c0 -31 -6 -76 -12 -99 -11 -42 -11 -43 26 -77 21 -20 44
-36 51 -36 25 0 11 30 -23 52 -39 25 -39 22 -14 136 11 55 11 64 -1 72 -24 15
-25 13 -27 -48z"/>
<path d="M143 6652 c0 -31 -6 -77 -13 -101 -10 -39 -10 -45 5 -54 15 -8 15
-11 -6 -33 -28 -30 -18 -42 17 -19 19 12 29 14 37 6 15 -15 37 -14 37 3 0 7
-6 19 -14 25 -12 10 -11 19 1 62 16 55 12 79 -13 79 -11 0 -14 -5 -10 -16 8
-21 -12 -94 -26 -94 -11 0 -9 17 13 118 11 55 11 64 -1 72 -24 15 -25 13 -27
-48z"/>
<path d="M143 6193 c-2 -70 -10 -83 -51 -83 -15 0 -22 -5 -19 -12 2 -7 16 -12
29 -11 20 1 25 -2 21 -16 -3 -11 2 -21 13 -25 15 -6 15 -9 -6 -31 -29 -31 -19
-43 16 -20 19 12 29 14 37 6 15 -15 37 -14 37 3 0 7 -6 19 -14 25 -11 9 -12
19 -3 49 6 20 15 40 20 43 13 9 -11 49 -29 49 -11 0 -13 -6 -9 -20 5 -15 2
-20 -10 -20 -12 0 -15 5 -11 16 16 42 19 96 5 105 -23 14 -24 12 -26 -58z m32
-112 c-3 -12 -11 -21 -16 -21 -14 0 -11 38 4 43 17 6 20 2 12 -22z"/>
<path d="M272 5783 c-12 -19 -21 -38 -18 -40 8 -8 77 49 73 61 -8 23 -33 14
-55 -21z"/>
<path d="M143 5743 c-2 -70 -10 -83 -51 -83 -15 0 -22 -5 -19 -12 2 -7 16 -12
29 -11 20 1 25 -2 21 -16 -3 -11 2 -21 13 -25 15 -6 15 -9 -6 -31 -29 -31 -19
-43 16 -20 19 12 29 14 37 6 15 -15 37 -14 37 3 0 7 -6 19 -14 25 -11 9 -12
19 -3 49 6 20 15 40 20 43 13 9 -11 49 -29 49 -11 0 -13 -6 -9 -20 5 -15 2
-20 -10 -20 -12 0 -15 5 -11 16 16 42 19 96 5 105 -23 14 -24 12 -26 -58z m32
-112 c-3 -12 -11 -21 -16 -21 -14 0 -11 38 4 43 17 6 20 2 12 -22z"/>
<path d="M285 5350 c-3 -11 -17 -28 -31 -39 -19 -15 -23 -26 -19 -45 3 -14 7
-37 10 -51 3 -14 10 -25 16 -25 8 0 9 16 5 49 -6 47 -5 50 30 78 22 18 34 34
30 41 -11 19 -34 14 -41 -8z"/>
<path d="M143 5293 c-2 -70 -10 -83 -51 -83 -15 0 -22 -5 -19 -12 2 -7 16 -12
29 -11 20 1 25 -2 21 -16 -3 -11 2 -21 13 -25 15 -6 15 -9 -6 -31 -29 -31 -19
-43 16 -20 19 12 29 14 37 6 15 -15 37 -14 37 3 0 7 -6 19 -14 25 -11 9 -12
19 -3 49 6 20 15 40 20 43 13 9 -11 49 -29 49 -11 0 -13 -6 -9 -20 5 -15 2
-20 -10 -20 -12 0 -15 5 -11 16 16 42 19 96 5 105 -23 14 -24 12 -26 -58z m32
-112 c-3 -12 -11 -21 -16 -21 -14 0 -11 38 4 43 17 6 20 2 12 -22z"/>
<path d="M285 4900 c-3 -11 -17 -28 -31 -39 -19 -15 -23 -26 -19 -45 3 -14 7
-37 10 -51 10 -46 28 -29 22 20 -6 40 -5 45 13 45 11 0 20 5 20 10 0 6 -6 10
-12 10 -7 0 0 11 16 23 17 14 26 29 22 35 -11 19 -34 14 -41 -8z"/>
<path d="M143 4843 c-2 -70 -10 -83 -51 -83 -15 0 -22 -5 -19 -12 2 -7 16 -12
29 -11 20 1 25 -2 21 -16 -3 -11 2 -21 13 -25 15 -6 15 -9 -6 -31 -29 -31 -19
-43 16 -20 19 12 29 14 37 6 15 -15 37 -14 37 3 0 7 -6 19 -14 25 -11 9 -12
19 -3 49 6 20 15 40 20 43 13 9 -11 49 -29 49 -11 0 -13 -6 -9 -20 5 -15 2
-20 -10 -20 -12 0 -15 5 -11 16 16 42 19 96 5 105 -23 14 -24 12 -26 -58z m32
-112 c-3 -12 -11 -21 -16 -21 -14 0 -11 38 4 43 17 6 20 2 12 -22z"/>
<path d="M343 4863 c-30 -6 -29 -23 1 -23 23 0 23 -2 15 -37 -19 -81 2 -86 32
-8 18 47 18 51 2 63 -9 6 -19 11 -22 11 -3 -1 -16 -4 -28 -6z"/>
<path d="M285 4450 c-3 -11 -17 -28 -31 -39 -19 -15 -23 -26 -19 -45 3 -14 7
-37 10 -51 6 -29 25 -34 25 -6 0 21 19 31 59 31 25 0 28 -3 23 -26 -8 -45 18
-23 39 31 18 47 18 51 2 63 -10 7 -24 10 -31 7 -8 -3 -20 -5 -28 -5 -24 0 -15
-19 11 -22 39 -5 16 -25 -34 -29 -29 -3 -46 0 -48 9 -3 7 4 12 16 12 12 0 21
5 21 10 0 6 -6 10 -12 10 -7 0 0 11 16 23 17 14 26 29 22 35 -11 19 -34 14
-41 -8z"/>
<path d="M143 4393 c-2 -70 -10 -83 -51 -83 -15 0 -22 -5 -19 -12 2 -7 16 -12
29 -11 20 1 25 -2 21 -16 -3 -11 2 -21 13 -25 15 -6 15 -9 -6 -31 -29 -31 -19
-43 16 -20 19 12 29 14 37 6 15 -15 37 -14 37 3 0 7 -6 19 -14 25 -11 9 -12
19 -3 49 6 20 15 40 20 43 13 9 -11 49 -29 49 -11 0 -13 -6 -9 -20 5 -15 2
-20 -10 -20 -12 0 -15 5 -11 16 16 42 19 96 5 105 -23 14 -24 12 -26 -58z m32
-112 c-3 -12 -11 -21 -16 -21 -14 0 -11 38 4 43 17 6 20 2 12 -22z"/>
<path d="M285 4000 c-3 -11 -17 -28 -31 -39 -19 -15 -23 -26 -19 -45 3 -14 7
-37 10 -51 5 -24 8 -25 67 -22 l61 4 18 49 c18 46 18 50 2 62 -10 7 -24 10
-31 7 -8 -3 -20 -5 -28 -5 -24 0 -15 -19 11 -22 39 -5 16 -25 -34 -29 -29 -3
-46 0 -48 9 -3 7 4 12 16 12 12 0 21 5 21 10 0 6 -6 10 -12 10 -7 0 0 11 16
23 17 14 26 29 22 35 -11 19 -34 14 -41 -8z m70 -119 c-15 -13 -85 -23 -85
-12 0 13 19 19 60 20 20 1 30 -3 25 -8z"/>
<path d="M143 3943 c-2 -70 -10 -83 -51 -83 -15 0 -22 -5 -19 -12 2 -7 16 -12
29 -11 20 1 25 -2 21 -16 -3 -11 2 -21 13 -25 15 -6 15 -9 -6 -31 -29 -31 -19
-43 16 -20 19 12 29 14 37 6 15 -15 37 -14 37 3 0 7 -6 19 -14 25 -11 9 -12
19 -3 49 6 20 15 40 20 43 13 9 -11 49 -29 49 -11 0 -13 -6 -9 -20 5 -15 2
-20 -10 -20 -12 0 -15 5 -11 16 16 42 19 96 5 105 -23 14 -24 12 -26 -58z m32
-112 c-3 -12 -11 -21 -16 -21 -14 0 -11 38 4 43 17 6 20 2 12 -22z"/>
<path d="M285 3550 c-3 -11 -17 -28 -31 -39 -22 -17 -23 -23 -15 -66 5 -26 14
-51 20 -55 7 -3 9 -14 5 -23 -10 -26 14 -20 32 8 13 20 24 25 46 23 27 -3 31
1 49 47 18 47 18 51 2 63 -10 7 -23 10 -30 8 -6 -3 -29 -8 -50 -11 l-38 -7 29
24 c17 15 26 30 22 36 -11 19 -34 14 -41 -8z m79 -75 c-4 -8 -12 -15 -20 -15
-8 0 -14 7 -14 15 0 8 9 15 20 15 13 0 18 -5 14 -15z m-66 -7 c-3 -7 -11 -13
-18 -13 -7 0 -15 6 -17 13 -3 7 4 12 17 12 13 0 20 -5 18 -12z m57 -38 c-3 -5
-13 -10 -21 -10 -8 0 -14 5 -14 10 0 6 9 10 21 10 11 0 17 -4 14 -10z m-65 -4
c0 -3 -4 -8 -10 -11 -5 -3 -10 -1 -10 4 0 6 5 11 10 11 6 0 10 -2 10 -4z"/>
<path d="M143 3493 c-2 -70 -10 -83 -51 -83 -15 0 -22 -5 -19 -12 2 -7 16 -12
29 -11 20 1 25 -2 21 -16 -3 -11 2 -21 13 -25 15 -6 15 -9 -6 -31 -29 -31 -19
-43 16 -20 19 12 29 14 37 6 15 -15 37 -14 37 3 0 7 -6 19 -14 25 -11 9 -12
19 -3 49 6 20 15 40 20 43 13 9 -11 49 -29 49 -11 0 -13 -6 -9 -20 5 -15 2
-20 -10 -20 -12 0 -15 5 -11 16 16 42 19 96 5 105 -23 14 -24 12 -26 -58z m32
-112 c-3 -12 -11 -21 -16 -21 -14 0 -11 38 4 43 17 6 20 2 12 -22z"/>
<path d="M285 3100 c-3 -11 -17 -28 -31 -39 -22 -17 -23 -23 -15 -66 5 -26 14
-51 20 -55 19 -11 1 -40 -25 -40 -13 0 -24 -5 -24 -11 0 -5 -4 -8 -9 -5 -10 7
8 77 22 87 13 9 -11 49 -29 49 -11 0 -13 -6 -9 -20 5 -15 2 -20 -10 -20 -12 0
-15 5 -11 16 16 42 19 96 5 105 -23 14 -24 12 -26 -58 -2 -70 -10 -83 -51 -83
-15 0 -22 -5 -19 -12 2 -7 16 -12 29 -11 20 1 25 -2 21 -16 -3 -11 2 -21 13
-25 15 -6 15 -9 -6 -31 -29 -31 -19 -43 16 -20 19 12 29 14 37 6 15 -15 37
-14 37 3 0 18 28 25 133 33 82 6 105 14 73 26 -14 5 -45 3 -119 -8 -27 -4 -27
-4 -11 21 13 19 24 24 46 22 27 -3 31 1 49 47 18 47 18 51 2 63 -10 7 -23 10
-30 8 -6 -3 -29 -8 -50 -11 l-38 -7 29 24 c17 15 26 30 22 36 -11 19 -34 14
-41 -8z m79 -75 c-4 -8 -12 -15 -20 -15 -8 0 -14 7 -14 15 0 8 9 15 20 15 13
0 18 -5 14 -15z m-66 -7 c-3 -7 -11 -13 -18 -13 -7 0 -15 6 -17 13 -3 7 4 12
17 12 13 0 20 -5 18 -12z m57 -38 c-3 -5 -13 -10 -21 -10 -8 0 -14 5 -14 10 0
6 9 10 21 10 11 0 17 -4 14 -10z m-65 -4 c0 -3 -4 -8 -10 -11 -5 -3 -10 -1
-10 4 0 6 5 11 10 11 6 0 10 -2 10 -4z m-115 -45 c-3 -12 -11 -21 -16 -21 -14
0 -11 38 4 43 17 6 20 2 12 -22z"/>
<path d="M285 2650 c-3 -11 -17 -28 -31 -39 -22 -17 -23 -23 -15 -66 5 -26 14
-51 20 -55 19 -11 1 -40 -25 -40 -13 0 -24 -5 -24 -11 0 -5 -4 -8 -9 -5 -10 7
8 77 22 87 13 9 -11 49 -29 49 -11 0 -13 -6 -9 -20 5 -15 2 -20 -10 -20 -12 0
-15 5 -11 16 16 42 19 96 5 105 -23 14 -24 12 -26 -58 -2 -70 -10 -83 -51 -83
-15 0 -22 -5 -19 -12 2 -7 16 -12 29 -11 20 1 25 -2 21 -16 -3 -11 2 -21 13
-25 15 -6 15 -9 -6 -31 -29 -31 -19 -43 16 -20 19 12 29 14 37 6 15 -15 37
-14 37 3 0 14 29 26 68 26 20 0 22 -5 22 -55 0 -56 13 -73 24 -32 3 12 6 39 6
60 l0 37 50 0 c28 0 50 4 50 9 0 14 -26 20 -64 14 -29 -4 -36 -2 -36 11 0 23
-27 20 -33 -4 -3 -11 -10 -20 -16 -20 -7 0 -5 10 5 25 13 20 24 25 46 23 27
-3 31 1 49 47 18 47 18 51 2 63 -10 7 -23 10 -30 8 -6 -3 -29 -8 -50 -11 l-38
-7 29 24 c17 15 26 30 22 36 -11 19 -34 14 -41 -8z m79 -75 c-4 -8 -12 -15
-20 -15 -8 0 -14 7 -14 15 0 8 9 15 20 15 13 0 18 -5 14 -15z m-66 -7 c-3 -7
-11 -13 -18 -13 -7 0 -15 6 -17 13 -3 7 4 12 17 12 13 0 20 -5 18 -12z m57
-38 c-3 -5 -13 -10 -21 -10 -8 0 -14 5 -14 10 0 6 9 10 21 10 11 0 17 -4 14
-10z m-65 -4 c0 -3 -4 -8 -10 -11 -5 -3 -10 -1 -10 4 0 6 5 11 10 11 6 0 10
-2 10 -4z m-115 -45 c-3 -12 -11 -21 -16 -21 -14 0 -11 38 4 43 17 6 20 2 12
-22z"/>
</g>
</svg>
