<?xml version="1.0" standalone="no"?>
<!DOCTYPE svg PUBLIC "-//W3C//DTD SVG 20010904//EN"
 "http://www.w3.org/TR/2001/REC-SVG-20010904/DTD/svg10.dtd">
<svg version="1.0" xmlns="http://www.w3.org/2000/svg"
 width="50.000000pt" height="725.000000pt" viewBox="0 0 50.000000 725.000000"
 preserveAspectRatio="xMidYMid meet">
<metadata>
Created by potrace 1.16, written by Peter Selinger 2001-2019
</metadata>
<g transform="translate(0.000000,725.000000) scale(0.100000,-0.100000)"
fill="#000000" stroke="none">
<path d="M140 7099 c0 -23 -5 -71 -12 -107 -10 -52 -10 -66 0 -70 7 -2 26 -15
41 -28 35 -29 41 -30 41 -5 0 11 -12 23 -30 31 -17 7 -33 16 -35 21 -3 4 4 46
15 94 21 88 20 105 -6 105 -10 0 -14 -12 -14 -41z"/>
<path d="M140 6649 c0 -23 -5 -71 -12 -106 -10 -54 -9 -66 2 -73 12 -7 11 -12
-5 -29 -25 -28 -12 -38 21 -16 19 12 29 14 37 6 6 -6 15 -11 19 -11 12 0 10
38 -3 42 -8 3 -6 20 5 58 20 65 20 70 2 70 -8 0 -17 -16 -21 -37 -9 -50 -24
-78 -36 -66 -6 6 -2 43 11 97 21 89 20 106 -6 106 -10 0 -14 -12 -14 -41z"/>
<path d="M140 6193 c0 -76 -8 -93 -42 -93 -34 0 -34 -23 0 -28 15 -2 22 -10
22 -27 0 -13 6 -25 13 -28 8 -3 7 -10 -7 -26 -25 -28 -13 -38 20 -16 19 12 29
14 37 6 6 -6 15 -11 19 -11 13 0 9 38 -4 42 -8 3 -7 18 5 53 10 27 17 55 17
62 0 19 -21 16 -36 -4 -21 -29 -28 -6 -16 48 13 54 10 69 -14 69 -10 0 -14
-13 -14 -47z m40 -116 c0 -7 -6 -22 -14 -33 -14 -18 -15 -18 -21 -1 -7 17 10
47 26 47 5 0 9 -6 9 -13z"/>
<path d="M140 5743 c0 -76 -8 -93 -42 -93 -34 0 -34 -23 0 -28 15 -2 22 -10
22 -27 0 -13 6 -25 13 -28 8 -3 7 -10 -7 -26 -25 -28 -13 -38 20 -16 19 12 29
14 37 6 6 -6 15 -11 19 -11 13 0 9 38 -4 42 -8 3 -7 18 5 53 10 27 17 55 17
62 0 19 -21 16 -36 -4 -21 -29 -28 -6 -16 48 13 54 10 69 -14 69 -10 0 -14
-13 -14 -47z m40 -116 c0 -7 -6 -22 -14 -33 -14 -18 -15 -18 -21 -1 -7 17 10
47 26 47 5 0 9 -6 9 -13z"/>
<path d="M234 5730 c3 -16 9 -43 12 -60 8 -45 28 -38 20 8 -3 20 -6 47 -6 60
0 13 -6 22 -16 22 -12 0 -14 -7 -10 -30z"/>
<path d="M140 5293 c0 -76 -8 -93 -42 -93 -34 0 -34 -23 0 -28 15 -2 22 -10
22 -27 0 -13 6 -25 13 -28 8 -3 7 -10 -7 -26 -25 -28 -13 -38 20 -16 19 12 29
14 37 6 6 -6 15 -11 19 -11 13 0 9 38 -4 42 -8 3 -7 18 5 53 10 27 17 55 17
62 0 19 -21 16 -36 -4 -21 -29 -28 -6 -16 48 13 54 10 69 -14 69 -10 0 -14
-13 -14 -47z m40 -116 c0 -7 -6 -22 -14 -33 -14 -18 -15 -18 -21 -1 -7 17 10
47 26 47 5 0 9 -6 9 -13z"/>
<path d="M320 5310 c0 -5 7 -10 16 -10 12 0 15 -6 10 -26 -18 -70 -19 -87 -6
-82 14 4 52 107 44 120 -7 12 -64 10 -64 -2z"/>
<path d="M234 5280 c3 -16 9 -43 12 -60 10 -52 27 -35 19 20 -6 46 -5 50 14
50 12 0 21 5 21 10 0 6 -16 10 -36 10 -34 0 -35 -1 -30 -30z"/>
<path d="M140 4843 c0 -76 -8 -93 -42 -93 -34 0 -34 -23 0 -28 15 -2 22 -10
22 -27 0 -13 6 -25 13 -28 8 -3 7 -10 -7 -26 -25 -28 -13 -38 20 -16 19 12 29
14 37 6 6 -6 15 -11 19 -11 13 0 9 38 -4 42 -8 3 -7 18 5 53 10 27 17 55 17
62 0 19 -21 16 -36 -4 -21 -29 -28 -6 -16 48 13 54 10 69 -14 69 -10 0 -14
-13 -14 -47z m40 -116 c0 -7 -6 -22 -14 -33 -14 -18 -15 -18 -21 -1 -7 17 10
47 26 47 5 0 9 -6 9 -13z"/>
<path d="M320 4860 c0 -5 7 -10 16 -10 12 0 15 -6 10 -26 -18 -70 -19 -87 -6
-82 14 4 52 107 44 120 -7 12 -64 10 -64 -2z"/>
<path d="M234 4831 c3 -17 9 -44 12 -61 10 -52 27 -35 19 20 -6 42 -4 50 9 50
14 0 15 -4 6 -21 -17 -31 -1 -38 21 -10 27 33 20 45 -30 49 l-43 3 6 -30z"/>
<path d="M140 4393 c0 -76 -8 -93 -42 -93 -34 0 -34 -23 0 -28 15 -2 22 -10
22 -27 0 -13 6 -25 13 -28 8 -3 7 -10 -7 -26 -25 -28 -13 -38 20 -16 19 12 29
14 37 6 6 -6 15 -11 19 -11 13 0 9 38 -4 42 -8 3 -7 18 5 53 10 27 17 55 17
62 0 19 -21 16 -36 -4 -21 -29 -28 -6 -16 48 13 54 10 69 -14 69 -10 0 -14
-13 -14 -47z m40 -116 c0 -7 -6 -22 -14 -33 -14 -18 -15 -18 -21 -1 -7 17 10
47 26 47 5 0 9 -6 9 -13z"/>
<path d="M320 4410 c0 -5 7 -10 15 -10 16 0 19 -18 7 -37 -11 -17 -31 -2 -29
22 2 17 -5 21 -41 23 l-44 3 6 -30 c3 -17 9 -44 12 -61 10 -52 27 -35 19 20
-6 42 -4 50 9 50 13 0 15 -4 6 -19 -13 -26 -13 -32 3 -30 23 4 47 -13 47 -33
0 -11 5 -18 12 -16 13 5 49 108 42 120 -7 12 -64 10 -64 -2z"/>
<path d="M140 3943 c0 -76 -8 -93 -42 -93 -34 0 -34 -23 0 -28 15 -2 22 -10
22 -27 0 -13 6 -25 13 -28 8 -3 7 -10 -7 -26 -25 -28 -13 -38 20 -16 19 12 29
14 37 6 6 -6 15 -11 19 -11 13 0 9 38 -4 42 -8 3 -7 18 5 53 10 27 17 55 17
62 0 19 -21 16 -36 -4 -21 -29 -28 -6 -16 48 13 54 10 69 -14 69 -10 0 -14
-13 -14 -47z m40 -116 c0 -7 -6 -22 -14 -33 -14 -18 -15 -18 -21 -1 -7 17 10
47 26 47 5 0 9 -6 9 -13z"/>
<path d="M320 3960 c0 -5 7 -10 15 -10 16 0 19 -18 7 -37 -11 -17 -31 -2 -29
22 2 17 -5 21 -41 23 l-44 3 6 -30 c3 -17 9 -44 12 -61 10 -52 27 -35 19 20
-6 42 -4 50 9 50 13 0 15 -4 6 -19 -13 -26 -13 -34 3 -28 7 3 21 -1 32 -9 18
-13 17 -14 -8 -14 -34 0 -36 -19 -2 -21 14 -1 30 -2 36 -3 13 -1 51 103 43
116 -7 12 -64 10 -64 -2z"/>
<path d="M140 3493 c0 -76 -8 -93 -42 -93 -34 0 -34 -23 0 -28 15 -2 22 -10
22 -27 0 -13 6 -25 13 -28 8 -3 7 -10 -7 -26 -25 -28 -13 -38 20 -16 19 12 29
14 37 6 6 -6 15 -11 19 -11 13 0 9 38 -4 42 -8 3 -7 18 5 53 10 27 17 55 17
62 0 19 -21 16 -36 -4 -21 -29 -28 -6 -16 48 13 54 10 69 -14 69 -10 0 -14
-13 -14 -47z m40 -116 c0 -7 -6 -22 -14 -33 -14 -18 -15 -18 -21 -1 -7 17 10
47 26 47 5 0 9 -6 9 -13z"/>
<path d="M320 3510 c0 -5 7 -10 15 -10 16 0 19 -18 7 -37 -11 -17 -31 -2 -29
22 2 17 -5 21 -41 23 l-44 3 6 -30 c3 -17 9 -44 12 -61 10 -52 27 -35 19 20
-6 42 -4 50 9 50 13 0 15 -4 6 -19 -13 -26 -13 -34 3 -28 7 3 21 -1 32 -9 18
-13 17 -14 -8 -14 -34 0 -36 -19 -2 -21 14 -1 30 -2 36 -3 13 -1 51 103 43
116 -7 12 -64 10 -64 -2z"/>
<path d="M225 3328 c11 -56 16 -68 27 -68 6 0 8 12 4 31 -3 17 -6 40 -6 50 0
11 -7 19 -16 19 -12 0 -14 -7 -9 -32z"/>
<path d="M140 3043 c0 -76 -8 -93 -42 -93 -34 0 -34 -23 0 -28 15 -2 22 -10
22 -27 0 -13 6 -25 13 -28 8 -3 7 -10 -7 -26 -25 -28 -13 -38 20 -16 19 12 29
14 37 6 6 -6 15 -11 19 -11 13 0 9 38 -4 42 -8 3 -7 18 5 53 10 27 17 55 17
62 0 19 -21 16 -36 -4 -21 -29 -28 -6 -16 48 13 54 10 69 -14 69 -10 0 -14
-13 -14 -47z m40 -116 c0 -7 -6 -22 -14 -33 -14 -18 -15 -18 -21 -1 -7 17 10
47 26 47 5 0 9 -6 9 -13z"/>
<path d="M320 3060 c0 -5 7 -10 15 -10 16 0 19 -18 7 -37 -11 -17 -31 -2 -29
22 2 17 -5 21 -41 23 l-44 3 6 -30 c3 -17 9 -44 12 -61 10 -52 27 -35 19 20
-6 42 -4 50 9 50 13 0 15 -4 6 -19 -13 -26 -13 -34 3 -28 7 3 21 -1 32 -9 18
-13 17 -14 -8 -14 -34 0 -36 -19 -2 -21 14 -1 30 -2 36 -3 13 -1 51 103 43
116 -7 12 -64 10 -64 -2z"/>
<path d="M354 2875 c0 -30 4 -55 8 -55 4 0 18 21 29 46 19 38 20 47 8 55 -34
21 -44 11 -45 -46z"/>
<path d="M270 2910 c0 -5 11 -10 25 -10 14 0 25 5 25 10 0 6 -11 10 -25 10
-14 0 -25 -4 -25 -10z"/>
<path d="M225 2878 c11 -56 16 -68 27 -68 6 0 8 12 4 31 -3 17 -6 40 -6 50 0
11 -7 19 -16 19 -12 0 -14 -7 -9 -32z"/>
<path d="M140 2593 c0 -76 -8 -93 -42 -93 -34 0 -34 -23 0 -28 15 -2 22 -10
22 -27 0 -13 6 -25 13 -28 8 -3 7 -10 -7 -26 -25 -28 -13 -38 20 -16 19 12 29
14 37 6 6 -6 15 -11 19 -11 13 0 9 38 -4 42 -8 3 -7 18 5 53 10 27 17 55 17
62 0 19 -21 16 -36 -4 -21 -29 -28 -6 -16 48 13 54 10 69 -14 69 -10 0 -14
-13 -14 -47z m40 -116 c0 -7 -6 -22 -14 -33 -14 -18 -15 -18 -21 -1 -7 17 10
47 26 47 5 0 9 -6 9 -13z"/>
<path d="M320 2610 c0 -5 7 -10 15 -10 16 0 19 -18 7 -37 -11 -17 -31 -2 -29
22 2 17 -5 21 -41 23 l-44 3 6 -30 c3 -17 9 -44 12 -61 10 -52 27 -35 19 20
-6 42 -4 50 9 50 13 0 15 -4 6 -19 -13 -26 -13 -34 3 -28 7 3 21 -1 32 -9 18
-13 17 -14 -8 -14 -34 0 -36 -19 -2 -21 14 -1 30 -2 36 -3 13 -1 51 103 43
116 -7 12 -64 10 -64 -2z"/>
<path d="M354 2425 c0 -30 4 -55 8 -55 4 0 18 21 29 46 19 38 20 47 8 55 -34
21 -44 11 -45 -46z"/>
<path d="M270 2451 c0 -36 13 -81 23 -81 6 0 7 16 4 40 -4 30 -2 40 9 40 8 0
14 5 14 10 0 6 -11 10 -25 10 -18 0 -25 -5 -25 -19z"/>
<path d="M225 2428 c11 -56 16 -68 27 -68 6 0 8 12 4 31 -3 17 -6 40 -6 50 0
11 -7 19 -16 19 -12 0 -14 -7 -9 -32z"/>
<path d="M140 2143 c0 -76 -8 -93 -42 -93 -34 0 -34 -23 0 -28 15 -2 22 -10
22 -27 0 -13 6 -25 13 -28 8 -3 7 -10 -7 -26 -25 -28 -13 -38 20 -16 19 12 29
14 37 6 6 -6 15 -11 19 -11 13 0 9 38 -4 42 -8 3 -7 18 5 53 10 27 17 55 17
62 0 19 -21 16 -36 -4 -21 -29 -28 -6 -16 48 13 54 10 69 -14 69 -10 0 -14
-13 -14 -47z m40 -116 c0 -7 -6 -22 -14 -33 -14 -18 -15 -18 -21 -1 -7 17 10
47 26 47 5 0 9 -6 9 -13z"/>
<path d="M320 2160 c0 -5 7 -10 15 -10 16 0 19 -18 7 -37 -11 -17 -31 -2 -29
22 2 17 -5 21 -41 23 l-44 3 6 -30 c3 -17 9 -44 12 -61 10 -52 27 -35 19 20
-6 42 -4 50 9 50 13 0 15 -4 6 -19 -13 -26 -13 -34 3 -28 7 3 21 -1 32 -9 18
-13 17 -14 -8 -14 -34 0 -36 -19 -2 -21 14 -1 30 -2 36 -3 13 -1 51 103 43
116 -7 12 -64 10 -64 -2z"/>
<path d="M354 1975 c0 -30 4 -55 8 -55 4 0 18 21 29 46 19 38 20 47 8 55 -34
21 -44 11 -45 -46z"/>
<path d="M270 2001 c0 -36 13 -81 23 -81 6 0 7 16 4 40 -4 30 -2 40 9 40 11 0
13 -9 8 -40 -4 -25 -3 -40 4 -40 11 0 22 33 22 73 0 24 -3 27 -35 27 -28 0
-35 -4 -35 -19z"/>
<path d="M225 1978 c11 -56 16 -68 27 -68 6 0 8 12 4 31 -3 17 -6 40 -6 50 0
11 -7 19 -16 19 -12 0 -14 -7 -9 -32z"/>
<path d="M140 1693 c0 -76 -8 -93 -42 -93 -34 0 -34 -23 0 -28 15 -2 22 -10
22 -27 0 -13 6 -25 13 -28 8 -3 7 -10 -7 -26 -26 -28 -13 -38 20 -16 27 17 28
17 44 -3 16 -19 24 -20 133 -15 116 6 144 15 87 30 l-29 8 16 33 c14 29 14 35
2 43 -8 5 -22 9 -32 9 -14 0 -16 -5 -11 -25 7 -29 -2 -75 -15 -75 -5 0 -6 20
-3 45 l5 45 -38 0 -38 0 6 -45 c4 -25 3 -45 -2 -45 -12 0 -21 25 -21 56 0 15
-6 24 -15 24 -12 0 -13 -9 -8 -45 4 -31 2 -45 -6 -45 -6 0 -11 9 -11 19 0 11
-5 21 -12 23 -8 3 -7 18 5 53 10 27 17 55 17 62 0 19 -21 16 -36 -4 -21 -29
-28 -6 -16 48 13 54 10 69 -14 69 -10 0 -14 -13 -14 -47z m40 -116 c0 -7 -6
-22 -14 -33 -14 -18 -15 -18 -21 -1 -7 17 10 47 26 47 5 0 9 -6 9 -13z m139
-39 c-1 -7 -5 -24 -9 -38 -7 -23 -8 -23 -9 -3 -1 12 -4 28 -7 37 -4 11 -1 16
10 16 9 0 16 -6 15 -12z"/>
<path d="M320 1710 c0 -5 7 -10 15 -10 16 0 19 -18 7 -37 -11 -17 -31 -2 -29
22 2 17 -5 21 -41 23 l-44 3 6 -30 c3 -17 9 -44 12 -61 10 -52 27 -35 19 20
-6 42 -4 50 9 50 13 0 15 -4 6 -19 -13 -26 -13 -34 3 -28 7 3 21 -1 32 -9 18
-13 17 -14 -8 -14 -34 0 -36 -19 -2 -21 14 -1 30 -2 36 -3 13 -1 51 103 43
116 -7 12 -64 10 -64 -2z"/>
</g>
</svg>
