<?xml version="1.0" standalone="no"?>
<!DOCTYPE svg PUBLIC "-//W3C//DTD SVG 20010904//EN"
 "http://www.w3.org/TR/2001/REC-SVG-20010904/DTD/svg10.dtd">
<svg version="1.0" xmlns="http://www.w3.org/2000/svg"
 width="50.000000pt" height="725.000000pt" viewBox="0 0 50.000000 725.000000"
 preserveAspectRatio="xMidYMid meet">
<metadata>
Created by potrace 1.16, written by Peter Selinger 2001-2019
</metadata>
<g transform="translate(0.000000,725.000000) scale(0.100000,-0.100000)"
fill="#000000" stroke="none">
<path d="M140 7107 c0 -23 -6 -67 -14 -97 l-14 -54 38 -38 c43 -44 50 -46 50
-18 0 13 -12 28 -30 38 -16 9 -30 21 -30 26 0 5 10 45 21 89 18 66 20 81 8 88
-24 15 -29 10 -29 -34z"/>
<path d="M140 6657 c0 -23 -7 -67 -15 -97 -13 -52 -13 -56 5 -72 20 -16 20
-17 -7 -36 -35 -25 -23 -41 13 -17 19 12 29 14 37 6 20 -20 29 -11 23 22 -4
20 0 51 9 77 9 24 13 50 11 57 -8 20 -38 16 -35 -4 5 -34 -12 -93 -26 -93 -20
0 -19 9 6 103 18 66 20 81 8 88 -24 15 -29 10 -29 -34z"/>
<path d="M140 6208 c0 -67 -9 -88 -36 -88 -29 0 -32 -20 -4 -27 14 -4 19 -11
15 -23 -4 -12 2 -24 15 -33 21 -15 21 -15 -7 -35 -35 -25 -23 -41 13 -17 19
12 29 14 37 6 20 -20 29 -11 23 22 -4 20 0 51 9 77 9 24 13 50 11 57 -7 18
-36 16 -36 -2 0 -8 -4 -15 -10 -15 -13 0 -13 14 2 62 10 33 9 41 -3 49 -24 15
-29 10 -29 -33z m36 -120 c-3 -13 -6 -26 -6 -30 0 -15 -30 -8 -30 6 0 26 12
46 27 46 11 0 14 -6 9 -22z"/>
<path d="M302 5797 c-43 -6 -71 -15 -69 -21 4 -13 0 -13 100 -2 52 5 77 12 74
19 -5 16 -18 16 -105 4z"/>
<path d="M140 5758 c0 -67 -9 -88 -36 -88 -29 0 -32 -20 -4 -27 14 -4 19 -11
15 -23 -4 -12 2 -24 15 -33 21 -15 21 -15 -7 -35 -35 -25 -23 -41 13 -17 19
12 29 14 37 6 20 -20 29 -11 23 22 -4 20 0 51 9 77 9 24 13 50 11 57 -7 18
-36 16 -36 -2 0 -8 -4 -15 -10 -15 -13 0 -13 14 2 62 10 33 9 41 -3 49 -24 15
-29 10 -29 -33z m36 -120 c-3 -13 -6 -26 -6 -30 0 -15 -30 -8 -30 6 0 26 12
46 27 46 11 0 14 -6 9 -22z"/>
<path d="M304 5347 l-71 -10 5 -43 c2 -23 -3 -77 -13 -120 -14 -63 -19 -74
-27 -59 -8 13 -6 33 6 72 9 29 14 58 11 63 -10 15 -35 12 -35 -5 0 -8 -4 -15
-10 -15 -13 0 -13 14 2 62 10 33 9 41 -3 49 -24 15 -29 10 -29 -33 0 -67 -9
-88 -36 -88 -29 0 -32 -20 -4 -27 14 -4 19 -11 15 -23 -4 -12 2 -24 15 -33 21
-15 21 -15 -7 -35 -35 -26 -23 -41 13 -17 27 17 28 17 46 -5 18 -22 19 -22 33
-4 18 24 45 109 45 143 0 14 3 42 6 63 l6 36 70 7 c45 5 68 11 65 19 -5 15
-18 15 -103 3z m-128 -159 c-3 -13 -6 -26 -6 -30 0 -15 -30 -8 -30 6 0 26 12
46 27 46 11 0 14 -6 9 -22z"/>
<path d="M304 4897 l-71 -10 5 -43 c2 -23 -3 -77 -13 -120 -14 -63 -19 -74
-27 -59 -8 13 -6 33 6 72 9 29 14 58 11 63 -10 15 -35 12 -35 -5 0 -8 -4 -15
-10 -15 -13 0 -13 14 2 62 10 33 9 41 -3 49 -24 15 -29 10 -29 -33 0 -67 -9
-88 -36 -88 -29 0 -32 -20 -4 -27 14 -4 19 -11 15 -23 -4 -12 2 -24 15 -33 21
-15 21 -15 -7 -35 -35 -26 -23 -41 13 -17 27 17 28 17 46 -5 18 -22 19 -22 33
-4 18 24 45 109 45 143 0 14 3 43 6 64 6 31 11 37 31 37 25 0 25 -5 6 -57 -3
-7 -1 -13 5 -13 15 0 44 50 38 66 -4 10 4 14 30 14 24 0 34 4 32 13 -6 16 -18
16 -104 4z m-128 -159 c-3 -13 -6 -26 -6 -30 0 -15 -30 -8 -30 6 0 26 12 46
27 46 11 0 14 -6 9 -22z"/>
<path d="M304 4447 l-71 -10 5 -43 c2 -23 -3 -77 -13 -120 -14 -63 -19 -74
-27 -59 -8 13 -6 33 6 72 9 29 14 58 11 63 -10 15 -35 12 -35 -5 0 -8 -4 -15
-10 -15 -13 0 -13 14 2 62 10 33 9 41 -3 49 -24 15 -29 10 -29 -33 0 -67 -9
-88 -36 -88 -29 0 -32 -20 -4 -27 14 -4 19 -11 15 -23 -4 -12 2 -24 15 -33 21
-15 21 -15 -7 -35 -35 -26 -23 -41 13 -17 27 17 28 17 46 -5 18 -22 19 -22 33
-4 18 24 45 109 45 143 0 14 3 43 6 64 6 31 11 37 30 37 28 0 27 2 13 -39 -6
-17 -18 -31 -26 -31 -9 0 -13 -7 -10 -17 3 -10 8 -30 11 -45 10 -44 29 -34 21
11 -5 33 -2 43 20 67 15 16 24 36 22 46 -4 15 1 18 30 18 23 0 33 4 31 13 -6
16 -18 16 -104 4z m-128 -159 c-3 -13 -6 -26 -6 -30 0 -15 -30 -8 -30 6 0 26
12 46 27 46 11 0 14 -6 9 -22z"/>
<path d="M304 3997 l-71 -10 5 -43 c2 -23 -3 -77 -13 -120 -14 -63 -19 -74
-27 -59 -8 13 -6 33 6 72 9 29 14 58 11 63 -10 15 -35 12 -35 -5 0 -8 -4 -15
-10 -15 -13 0 -13 14 2 62 10 33 9 41 -3 49 -24 15 -29 10 -29 -33 0 -67 -9
-88 -36 -88 -29 0 -32 -20 -4 -27 14 -4 19 -11 15 -23 -4 -12 2 -24 15 -33 21
-15 21 -15 -7 -35 -35 -26 -23 -41 13 -17 27 17 28 17 46 -5 18 -22 19 -22 33
-4 18 24 45 109 45 143 0 14 3 43 6 64 6 31 11 37 30 37 28 0 27 2 13 -39 -6
-17 -18 -31 -26 -31 -9 0 -13 -7 -10 -17 3 -10 8 -30 11 -45 10 -44 29 -34 21
11 -6 38 -6 39 30 45 21 4 39 6 41 3 2 -2 -1 -18 -6 -37 -10 -33 -6 -50 10
-50 10 0 30 63 30 94 0 15 -6 17 -40 14 -39 -3 -51 4 -29 18 6 3 9 15 6 25 -4
16 0 19 30 19 23 0 33 4 31 13 -6 16 -18 16 -104 4z m-128 -159 c-3 -13 -6
-26 -6 -30 0 -15 -30 -8 -30 6 0 26 12 46 27 46 11 0 14 -6 9 -22z"/>
<path d="M304 3547 l-71 -10 5 -43 c2 -23 -3 -77 -13 -120 -14 -63 -19 -74
-27 -59 -8 13 -6 33 6 72 9 29 14 58 11 63 -10 15 -35 12 -35 -5 0 -8 -4 -15
-10 -15 -13 0 -13 14 2 62 10 33 9 41 -3 49 -24 15 -29 10 -29 -33 0 -67 -9
-88 -36 -88 -29 0 -32 -20 -4 -27 14 -4 19 -11 15 -23 -4 -12 2 -24 15 -33 21
-15 21 -15 -7 -35 -35 -26 -23 -41 13 -17 27 17 28 17 46 -5 18 -22 19 -22 33
-4 18 24 45 109 45 143 0 14 3 43 6 64 6 31 11 37 30 37 28 0 27 2 13 -39 -6
-17 -18 -31 -26 -31 -9 0 -13 -7 -10 -17 3 -10 8 -30 11 -45 7 -32 26 -38 26
-8 0 11 3 20 8 20 4 0 17 3 30 6 19 5 22 3 20 -16 -5 -39 20 -34 31 7 19 68
16 76 -29 71 -39 -3 -51 4 -29 18 6 3 9 15 6 25 -4 16 0 19 30 19 23 0 33 4
31 13 -6 16 -18 16 -104 4z m76 -107 c0 -5 -8 -10 -17 -10 -10 0 -28 -3 -40
-6 -13 -4 -23 -2 -23 4 0 10 23 18 63 21 9 0 17 -3 17 -9z m-204 -52 c-3 -13
-6 -26 -6 -30 0 -15 -30 -8 -30 6 0 26 12 46 27 46 11 0 14 -6 9 -22z"/>
<path d="M304 3097 l-71 -10 5 -43 c2 -23 -3 -77 -13 -120 -14 -63 -19 -74
-27 -59 -8 13 -6 33 6 72 9 29 14 58 11 63 -10 15 -35 12 -35 -5 0 -8 -4 -15
-10 -15 -13 0 -13 14 2 62 10 33 9 41 -3 49 -24 15 -29 10 -29 -33 0 -67 -9
-88 -36 -88 -29 0 -32 -20 -4 -27 14 -4 19 -11 15 -23 -4 -12 2 -24 15 -33 21
-15 21 -15 -7 -35 -35 -26 -23 -41 13 -17 27 17 28 17 46 -5 18 -22 19 -22 33
-4 18 24 45 109 45 143 0 14 3 43 6 64 6 31 11 37 30 37 28 0 27 2 13 -39 -6
-17 -18 -31 -26 -31 -9 0 -13 -7 -10 -17 3 -10 8 -30 11 -44 5 -23 10 -25 56
-25 49 1 51 2 60 36 18 65 15 73 -30 68 -39 -3 -51 4 -29 18 6 3 9 15 6 25 -4
16 0 19 30 19 23 0 33 4 31 13 -6 16 -18 16 -104 4z m76 -107 c0 -5 -8 -10
-17 -10 -10 0 -28 -3 -40 -6 -13 -4 -23 -2 -23 4 0 10 23 18 63 21 9 0 17 -3
17 -9z m-204 -52 c-3 -13 -6 -26 -6 -30 0 -15 -30 -8 -30 6 0 26 12 46 27 46
11 0 14 -6 9 -22z m194 13 c0 -5 -13 -11 -30 -13 -32 -5 -42 7 -12 15 29 8 42
7 42 -2z"/>
<path d="M304 2647 l-71 -10 5 -43 c2 -23 -3 -77 -13 -120 -14 -63 -19 -74
-27 -59 -8 13 -6 33 6 72 9 29 14 58 11 63 -10 15 -35 12 -35 -5 0 -8 -4 -15
-10 -15 -13 0 -13 14 2 62 10 33 9 41 -3 49 -24 15 -29 10 -29 -33 0 -67 -9
-88 -36 -88 -29 0 -32 -20 -4 -27 14 -4 19 -11 15 -23 -4 -12 2 -24 15 -33 21
-15 21 -15 -7 -35 -35 -26 -23 -41 13 -17 27 17 28 17 46 -5 18 -22 19 -22 33
-4 18 24 45 109 45 143 0 14 3 43 6 64 6 31 11 37 30 37 28 0 27 2 13 -39 -6
-17 -18 -31 -26 -31 -9 0 -13 -7 -10 -17 3 -10 8 -30 11 -45 4 -16 13 -28 20
-28 20 0 30 -64 14 -89 -9 -15 -10 -23 -1 -32 21 -21 33 2 33 67 0 60 2 65 19
59 16 -5 22 1 30 32 19 68 16 76 -29 71 -39 -3 -51 4 -29 18 6 3 9 15 6 25 -4
16 0 19 30 19 23 0 33 4 31 13 -6 16 -18 16 -104 4z m76 -107 c0 -5 -8 -10
-17 -10 -10 0 -28 -3 -40 -6 -13 -4 -23 -2 -23 4 0 10 23 18 63 21 9 0 17 -3
17 -9z m-204 -52 c-3 -13 -6 -26 -6 -30 0 -15 -30 -8 -30 6 0 26 12 46 27 46
11 0 14 -6 9 -22z m194 13 c0 -5 -13 -11 -30 -13 -32 -5 -42 7 -12 15 29 8 42
7 42 -2z"/>
<path d="M304 2197 l-71 -10 5 -43 c2 -23 -3 -77 -13 -120 -14 -63 -19 -74
-27 -59 -8 13 -6 33 6 72 9 29 14 58 11 63 -10 15 -35 12 -35 -5 0 -8 -4 -15
-10 -15 -13 0 -13 14 2 62 10 33 9 41 -3 49 -24 15 -29 10 -29 -33 0 -67 -9
-88 -36 -88 -29 0 -32 -20 -4 -27 14 -4 19 -11 15 -23 -4 -12 2 -24 15 -33 21
-15 21 -15 -7 -35 -35 -26 -23 -41 13 -17 27 17 28 17 46 -5 18 -22 19 -22 33
-4 18 24 45 109 45 143 0 14 3 43 6 64 6 31 11 37 30 37 28 0 27 2 13 -39 -6
-17 -18 -31 -26 -31 -9 0 -13 -7 -10 -17 3 -10 8 -30 11 -45 4 -16 13 -28 20
-28 20 0 30 -64 14 -89 -9 -15 -10 -23 -1 -32 21 -21 33 2 33 67 0 60 2 65 19
59 16 -5 22 1 30 32 19 68 16 76 -29 71 -39 -3 -51 4 -29 18 6 3 9 15 6 25 -4
16 0 19 30 19 23 0 33 4 31 13 -6 16 -18 16 -104 4z m76 -107 c0 -5 -8 -10
-17 -10 -10 0 -28 -3 -40 -6 -13 -4 -23 -2 -23 4 0 10 23 18 63 21 9 0 17 -3
17 -9z m-204 -52 c-3 -13 -6 -26 -6 -30 0 -15 -30 -8 -30 6 0 26 12 46 27 46
11 0 14 -6 9 -22z m194 13 c0 -5 -13 -11 -30 -13 -32 -5 -42 7 -12 15 29 8 42
7 42 -2z"/>
<path d="M259 1964 c-5 -15 -7 -29 -4 -32 7 -8 45 29 45 45 0 23 -30 14 -41
-13z"/>
<path d="M304 1747 l-71 -10 5 -43 c2 -23 -3 -77 -13 -120 -14 -63 -19 -74
-27 -59 -8 13 -6 33 6 72 9 29 14 58 11 63 -10 15 -35 12 -35 -5 0 -8 -4 -15
-10 -15 -13 0 -13 14 2 62 10 33 9 41 -3 49 -24 15 -29 10 -29 -33 0 -67 -9
-88 -36 -88 -29 0 -32 -20 -4 -27 14 -4 19 -11 15 -23 -4 -12 2 -24 15 -33 21
-15 21 -15 -7 -35 -35 -26 -23 -41 13 -17 27 17 28 17 46 -5 18 -22 19 -22 33
-4 18 24 45 109 45 143 0 14 3 43 6 64 6 31 11 37 30 37 28 0 27 2 13 -39 -6
-17 -18 -31 -26 -31 -9 0 -13 -7 -10 -17 3 -10 8 -30 11 -45 4 -16 13 -28 20
-28 20 0 30 -64 14 -89 -9 -15 -10 -23 -1 -32 21 -21 33 2 33 67 0 60 2 65 19
59 16 -5 22 1 30 32 19 68 16 76 -29 71 -39 -3 -51 4 -29 18 6 3 9 15 6 25 -4
16 0 19 30 19 23 0 33 4 31 13 -6 16 -18 16 -104 4z m76 -107 c0 -5 -8 -10
-17 -10 -10 0 -28 -3 -40 -6 -13 -4 -23 -2 -23 4 0 10 23 18 63 21 9 0 17 -3
17 -9z m-204 -52 c-3 -13 -6 -26 -6 -30 0 -15 -30 -8 -30 6 0 26 12 46 27 46
11 0 14 -6 9 -22z m194 13 c0 -5 -13 -11 -30 -13 -32 -5 -42 7 -12 15 29 8 42
7 42 -2z"/>
<path d="M259 1514 c-5 -15 -7 -29 -4 -32 7 -8 45 29 45 45 0 23 -30 14 -41
-13z"/>
<path d="M370 1532 c0 -5 10 -18 23 -30 41 -39 66 -21 27 18 -20 20 -50 27
-50 12z"/>
</g>
</svg>
