<?xml version="1.0" standalone="no"?>
<!DOCTYPE svg PUBLIC "-//W3C//DTD SVG 20010904//EN"
 "http://www.w3.org/TR/2001/REC-SVG-20010904/DTD/svg10.dtd">
<svg version="1.0" xmlns="http://www.w3.org/2000/svg"
 width="50.000000pt" height="725.000000pt" viewBox="0 0 50.000000 725.000000"
 preserveAspectRatio="xMidYMid meet">
<metadata>
Created by potrace 1.16, written by Peter Selinger 2001-2019
</metadata>
<g transform="translate(0.000000,725.000000) scale(0.100000,-0.100000)"
fill="#000000" stroke="none">
<path d="M255 7159 c-16 -10 -34 -21 -40 -23 -5 -2 -7 -7 -3 -11 6 -6 94 11
107 21 5 5 -20 34 -28 33 -3 0 -19 -9 -36 -20z"/>
<path d="M255 6709 c-16 -10 -34 -21 -40 -23 -5 -2 -7 -7 -3 -11 6 -6 94 11
107 21 5 5 -20 34 -28 33 -3 0 -19 -9 -36 -20z"/>
<path d="M150 6652 c0 -13 30 -52 41 -52 13 0 11 34 -3 48 -13 13 -38 16 -38
4z"/>
<path d="M255 6259 c-16 -10 -34 -21 -40 -23 -5 -2 -7 -7 -3 -11 6 -6 94 11
107 21 5 5 -20 34 -28 33 -3 0 -19 -9 -36 -20z"/>
<path d="M150 6202 c0 -13 30 -52 41 -52 13 0 11 34 -3 48 -13 13 -38 16 -38
4z"/>
<path d="M232 6194 c2 -11 11 -20 22 -22 13 -3 17 1 14 14 -2 11 -11 20 -22
22 -13 3 -17 -1 -14 -14z"/>
<path d="M255 5809 c-16 -10 -34 -21 -40 -23 -5 -2 -7 -7 -3 -11 6 -6 94 11
107 21 5 5 -20 34 -28 33 -3 0 -19 -9 -36 -20z"/>
<path d="M317 5764 c-24 -32 -16 -40 23 -24 33 13 39 34 14 44 -20 8 -16 10
-37 -20z"/>
<path d="M150 5752 c0 -13 30 -52 41 -52 13 0 11 34 -3 48 -13 13 -38 16 -38
4z"/>
<path d="M232 5744 c2 -11 11 -20 22 -22 13 -3 17 1 14 14 -2 11 -11 20 -22
22 -13 3 -17 -1 -14 -14z"/>
<path d="M255 5359 c-16 -10 -34 -21 -40 -23 -5 -2 -7 -7 -3 -11 6 -6 94 11
107 21 5 5 -20 34 -28 33 -3 0 -19 -9 -36 -20z"/>
<path d="M317 5314 c-24 -32 -16 -40 23 -24 33 13 39 34 14 44 -20 8 -16 10
-37 -20z"/>
<path d="M150 5302 c0 -13 30 -52 41 -52 13 0 11 34 -3 48 -13 13 -38 16 -38
4z"/>
<path d="M232 5294 c2 -11 11 -20 22 -22 13 -3 17 1 14 14 -2 11 -11 20 -22
22 -13 3 -17 -1 -14 -14z"/>
<path d="M218 5247 c-27 -6 -48 -15 -48 -20 0 -10 70 -4 105 9 20 7 20 7 1
-14 -11 -12 -16 -25 -13 -28 9 -10 78 37 74 50 -5 15 -60 16 -119 3z"/>
<path d="M255 4909 c-16 -10 -34 -21 -40 -23 -5 -2 -7 -7 -3 -11 6 -6 94 11
107 21 5 5 -20 34 -28 33 -3 0 -19 -9 -36 -20z"/>
<path d="M317 4864 c-24 -32 -16 -40 23 -24 33 13 39 34 14 44 -20 8 -16 10
-37 -20z"/>
<path d="M150 4852 c0 -13 30 -52 41 -52 13 0 11 34 -3 48 -13 13 -38 16 -38
4z"/>
<path d="M232 4844 c2 -11 11 -20 22 -22 13 -3 17 1 14 14 -2 11 -11 20 -22
22 -13 3 -17 -1 -14 -14z"/>
<path d="M218 4797 c-27 -6 -48 -15 -48 -20 0 -10 66 -4 105 8 15 5 13 1 -8
-19 -24 -22 -27 -31 -22 -60 9 -44 -3 -96 -21 -96 -20 0 -17 -14 7 -36 29 -26
39 -6 39 88 l0 76 35 22 c20 12 34 27 32 34 -5 15 -60 16 -119 3z"/>
<path d="M255 4459 c-16 -10 -34 -21 -40 -23 -5 -2 -7 -7 -3 -11 6 -6 94 11
107 21 5 5 -20 34 -28 33 -3 0 -19 -9 -36 -20z"/>
<path d="M317 4414 c-24 -32 -16 -40 23 -24 33 13 39 34 14 44 -20 8 -16 10
-37 -20z"/>
<path d="M150 4402 c0 -13 30 -52 41 -52 13 0 11 34 -3 48 -13 13 -38 16 -38
4z"/>
<path d="M232 4394 c2 -11 11 -20 22 -22 13 -3 17 1 14 14 -2 11 -11 20 -22
22 -13 3 -17 -1 -14 -14z"/>
<path d="M218 4347 c-27 -6 -48 -15 -48 -20 0 -10 66 -4 105 8 16 5 14 1 -7
-19 -16 -14 -28 -29 -28 -34 0 -12 -49 -22 -107 -22 -31 0 -43 -4 -40 -12 4
-15 39 -16 110 -4 45 7 47 6 47 -16 0 -39 -12 -68 -26 -68 -20 0 -17 -14 7
-36 28 -25 39 -6 39 69 l0 57 76 0 c56 0 75 3 71 13 -3 8 -26 12 -76 11 -39
-1 -71 2 -71 6 0 5 16 18 35 30 20 12 34 27 32 34 -5 15 -60 16 -119 3z"/>
</g>
</svg>
