<?xml version="1.0" standalone="no"?>
<!DOCTYPE svg PUBLIC "-//W3C//DTD SVG 20010904//EN"
 "http://www.w3.org/TR/2001/REC-SVG-20010904/DTD/svg10.dtd">
<svg version="1.0" xmlns="http://www.w3.org/2000/svg"
 width="50.000000pt" height="725.000000pt" viewBox="0 0 50.000000 725.000000"
 preserveAspectRatio="xMidYMid meet">
<metadata>
Created by potrace 1.16, written by Peter Selinger 2001-2019
</metadata>
<g transform="translate(0.000000,725.000000) scale(0.100000,-0.100000)"
fill="#000000" stroke="none">
<path d="M158 7108 c-49 -13 -51 -33 -3 -24 36 7 44 -1 23 -22 -23 -23 2 -24
37 -1 38 26 44 43 19 53 -19 7 -29 7 -76 -6z"/>
<path d="M158 6658 c-49 -13 -51 -33 -3 -24 39 8 46 -5 15 -27 -17 -12 -18
-18 -8 -43 14 -39 2 -124 -18 -124 -20 0 -17 -14 7 -36 30 -27 39 -6 39 101 0
89 0 90 30 110 33 22 38 40 14 49 -19 7 -29 7 -76 -6z"/>
<path d="M158 6208 c-49 -13 -51 -33 -3 -24 40 8 46 -5 14 -27 -18 -13 -19
-18 -9 -37 14 -25 16 -22 -37 -49 -24 -12 -43 -26 -43 -31 0 -20 22 -20 57 1
l36 23 -6 -25 c-4 -13 -7 -30 -7 -36 0 -7 -7 -13 -15 -13 -21 0 -19 -14 6 -36
28 -25 39 -6 39 68 0 47 4 59 20 68 11 6 20 15 20 21 0 6 -9 8 -20 4 -32 -10
-25 27 10 50 33 22 38 40 14 49 -19 7 -29 7 -76 -6z"/>
<path d="M292 5774 c-13 -20 -21 -38 -18 -41 9 -9 77 48 73 60 -8 25 -33 16
-55 -19z"/>
<path d="M158 5758 c-49 -13 -51 -33 -3 -24 40 8 46 -5 14 -27 -18 -13 -19
-18 -9 -37 14 -25 16 -22 -37 -49 -24 -12 -43 -26 -43 -31 0 -20 22 -20 57 1
l36 23 -6 -25 c-4 -13 -7 -30 -7 -36 0 -7 -7 -13 -15 -13 -21 0 -19 -14 6 -36
28 -25 39 -6 39 68 0 47 4 59 20 68 11 6 20 15 20 21 0 6 -9 8 -20 4 -32 -10
-25 27 10 50 33 22 38 40 14 49 -19 7 -29 7 -76 -6z"/>
<path d="M292 5324 c-13 -20 -21 -38 -18 -41 9 -9 77 48 73 60 -8 25 -33 16
-55 -19z"/>
<path d="M158 5308 c-49 -13 -51 -33 -3 -24 40 8 46 -5 14 -27 -18 -13 -19
-18 -9 -37 14 -25 16 -22 -37 -49 -24 -12 -43 -26 -43 -31 0 -20 22 -20 57 1
l36 23 -6 -25 c-4 -13 -7 -30 -7 -36 0 -7 -7 -13 -15 -13 -21 0 -19 -14 6 -36
28 -25 39 -6 39 68 0 47 4 59 20 68 11 6 20 15 20 21 0 6 -9 8 -20 4 -32 -10
-25 27 10 50 33 22 38 40 14 49 -19 7 -29 7 -76 -6z"/>
<path d="M303 5270 c-52 -57 -55 -75 -12 -66 17 3 35 6 40 6 5 0 9 5 9 10 0 6
-8 10 -17 10 -14 1 -10 8 15 31 20 18 31 36 28 45 -8 21 -17 16 -63 -36z"/>
<path d="M292 4874 c-13 -20 -21 -38 -18 -41 9 -9 77 48 73 60 -8 25 -33 16
-55 -19z"/>
<path d="M158 4858 c-49 -13 -51 -33 -3 -24 40 8 46 -5 14 -27 -18 -13 -19
-18 -9 -37 14 -25 16 -22 -37 -49 -24 -12 -43 -26 -43 -31 0 -20 22 -20 57 1
l36 23 -6 -25 c-4 -13 -7 -30 -7 -36 0 -7 -7 -13 -15 -13 -21 0 -19 -14 6 -36
28 -25 39 -6 39 68 0 47 4 59 20 68 11 6 20 15 20 21 0 6 -9 8 -20 4 -32 -10
-25 27 10 50 33 22 38 40 14 49 -19 7 -29 7 -76 -6z"/>
<path d="M303 4820 c-50 -55 -55 -75 -16 -67 l27 5 -25 -19 c-13 -10 -27 -19
-31 -19 -10 0 -10 -27 0 -33 11 -7 112 26 112 36 0 5 -13 7 -30 4 -16 -4 -30
-5 -30 -2 0 2 20 16 45 31 45 26 56 46 33 60 -6 4 -19 -2 -29 -14 -9 -12 -25
-22 -36 -22 -14 1 -11 7 15 31 20 18 31 36 28 45 -8 21 -17 16 -63 -36z"/>
<path d="M292 4424 c-13 -20 -21 -38 -18 -41 9 -9 77 48 73 60 -8 25 -33 16
-55 -19z"/>
<path d="M158 4408 c-49 -13 -51 -33 -3 -24 40 8 46 -5 14 -27 -18 -13 -19
-18 -9 -37 14 -25 16 -22 -37 -49 -24 -12 -43 -26 -43 -31 0 -20 22 -20 57 1
l36 23 -6 -25 c-4 -13 -7 -30 -7 -36 0 -7 -7 -13 -15 -13 -21 0 -19 -14 6 -36
28 -25 39 -6 39 68 0 47 4 59 20 68 11 6 20 15 20 21 0 6 -9 8 -20 4 -32 -10
-25 27 10 50 33 22 38 40 14 49 -19 7 -29 7 -76 -6z"/>
<path d="M303 4370 c-50 -55 -55 -75 -16 -67 l27 5 -25 -19 c-13 -10 -27 -19
-31 -19 -10 0 -10 -27 0 -34 4 -2 32 4 62 14 33 10 59 14 65 9 15 -15 25 -10
25 10 0 11 -9 26 -20 34 -18 12 -18 15 -5 20 18 7 20 33 3 43 -6 4 -19 -2 -29
-14 -9 -12 -25 -22 -36 -22 -14 1 -11 7 15 31 20 18 31 36 28 45 -8 21 -17 16
-63 -36z m64 -86 c-1 -1 -15 -4 -32 -8 l-30 -7 25 20 c17 14 27 16 32 8 4 -6
6 -12 5 -13z"/>
<path d="M292 3974 c-13 -20 -21 -38 -18 -41 9 -9 77 48 73 60 -8 25 -33 16
-55 -19z"/>
<path d="M158 3958 c-49 -13 -51 -33 -3 -24 40 8 46 -5 14 -27 -18 -13 -19
-18 -9 -37 14 -25 16 -22 -37 -49 -24 -12 -43 -26 -43 -31 0 -20 22 -20 57 1
l36 23 -6 -25 c-4 -13 -7 -30 -7 -36 0 -7 -7 -13 -15 -13 -21 0 -19 -14 6 -36
28 -25 39 -6 39 68 0 47 4 59 20 68 11 6 20 15 20 21 0 6 -9 8 -20 4 -32 -10
-25 27 10 50 33 22 38 40 14 49 -19 7 -29 7 -76 -6z"/>
<path d="M303 3920 c-51 -55 -55 -75 -16 -67 26 5 27 4 8 -10 -11 -8 -26 -18
-34 -22 -17 -10 -6 -45 12 -38 49 20 47 21 47 -22 0 -30 -4 -41 -15 -41 -19 0
-19 -14 0 -30 30 -24 45 -4 45 59 0 42 4 60 15 64 8 4 17 2 20 -3 10 -17 25
-11 25 9 0 11 -9 26 -20 34 -18 12 -18 15 -5 20 18 7 20 33 3 43 -6 4 -19 -2
-29 -14 -9 -12 -25 -22 -36 -22 -14 1 -11 7 15 31 20 18 31 36 28 45 -8 21
-17 16 -63 -36z m64 -86 c-1 -1 -15 -4 -32 -8 l-30 -7 25 20 c17 14 27 16 32
8 4 -6 6 -12 5 -13z"/>
<path d="M292 3524 c-13 -20 -21 -38 -18 -41 9 -9 77 48 73 60 -8 25 -33 16
-55 -19z"/>
<path d="M158 3508 c-49 -13 -51 -33 -3 -24 40 8 46 -5 14 -27 -18 -13 -19
-18 -9 -37 14 -25 16 -22 -37 -49 -24 -12 -43 -26 -43 -31 0 -20 22 -20 57 1
l36 23 -6 -25 c-4 -13 -7 -30 -7 -36 0 -7 -7 -13 -15 -13 -21 0 -19 -14 6 -36
28 -25 39 -6 39 68 0 47 4 59 20 68 11 6 20 15 20 21 0 6 -9 8 -20 4 -32 -10
-25 27 10 50 33 22 38 40 14 49 -19 7 -29 7 -76 -6z"/>
<path d="M303 3470 c-51 -55 -55 -75 -16 -67 26 5 27 4 8 -10 -11 -8 -26 -18
-34 -22 -17 -10 -6 -45 12 -38 49 20 47 21 47 -22 0 -30 -4 -41 -15 -41 -19 0
-19 -14 0 -30 30 -24 45 -4 45 59 0 42 4 60 15 64 8 4 17 2 20 -3 10 -17 25
-11 25 9 0 11 -9 26 -20 34 -18 12 -18 15 -5 20 18 7 20 33 3 43 -6 4 -19 -2
-29 -14 -9 -12 -25 -22 -36 -22 -14 1 -11 7 15 31 20 18 31 36 28 45 -8 21
-17 16 -63 -36z m64 -86 c-1 -1 -15 -4 -32 -8 l-30 -7 25 20 c17 14 27 16 32
8 4 -6 6 -12 5 -13z"/>
<path d="M241 3294 c-6 -15 -9 -29 -6 -32 7 -8 45 29 45 45 0 23 -26 14 -39
-13z"/>
<path d="M292 3074 c-13 -20 -21 -38 -18 -41 9 -9 77 48 73 60 -8 25 -33 16
-55 -19z"/>
<path d="M158 3058 c-49 -13 -51 -33 -3 -24 40 8 46 -5 14 -27 -18 -13 -19
-18 -9 -37 14 -25 16 -22 -37 -49 -24 -12 -43 -26 -43 -31 0 -20 22 -20 57 1
l36 23 -6 -25 c-4 -13 -7 -30 -7 -36 0 -7 -7 -13 -15 -13 -21 0 -19 -14 6 -36
28 -25 39 -6 39 68 0 47 4 59 20 68 11 6 20 15 20 21 0 6 -9 8 -20 4 -32 -10
-25 27 10 50 33 22 38 40 14 49 -19 7 -29 7 -76 -6z"/>
<path d="M303 3020 c-51 -55 -55 -75 -16 -67 26 5 27 4 8 -10 -11 -8 -26 -18
-34 -22 -17 -10 -6 -45 12 -38 49 20 47 21 47 -22 0 -30 -4 -41 -15 -41 -19 0
-19 -14 0 -30 30 -24 45 -4 45 59 0 42 4 60 15 64 8 4 17 2 20 -3 10 -17 25
-11 25 9 0 11 -9 26 -20 34 -18 12 -18 15 -5 20 18 7 20 33 3 43 -6 4 -19 -2
-29 -14 -9 -12 -25 -22 -36 -22 -14 1 -11 7 15 31 20 18 31 36 28 45 -8 21
-17 16 -63 -36z m64 -86 c-1 -1 -15 -4 -32 -8 l-30 -7 25 20 c17 14 27 16 32
8 4 -6 6 -12 5 -13z"/>
<path d="M241 2844 c-6 -15 -9 -29 -6 -32 7 -8 45 29 45 45 0 23 -26 14 -39
-13z"/>
<path d="M380 2863 c1 -18 38 -55 49 -49 15 10 14 22 -5 40 -16 16 -44 22 -44
9z"/>
</g>
</svg>
