<?xml version="1.0" standalone="no"?>
<!DOCTYPE svg PUBLIC "-//W3C//DTD SVG 20010904//EN"
 "http://www.w3.org/TR/2001/REC-SVG-20010904/DTD/svg10.dtd">
<svg version="1.0" xmlns="http://www.w3.org/2000/svg"
 width="50.000000pt" height="725.000000pt" viewBox="0 0 50.000000 725.000000"
 preserveAspectRatio="xMidYMid meet">
<metadata>
Created by potrace 1.16, written by Peter Selinger 2001-2019
</metadata>
<g transform="translate(0.000000,725.000000) scale(0.100000,-0.100000)"
fill="#000000" stroke="none">
<path d="M190 7158 c1 -15 24 -48 34 -48 4 0 6 12 4 27 -3 28 -38 47 -38 21z"/>
<path d="M280 6705 c-7 -14 -10 -28 -7 -32 8 -7 57 35 57 49 0 19 -38 6 -50
-17z"/>
<path d="M190 6708 c1 -15 24 -48 34 -48 4 0 6 12 4 27 -3 28 -38 47 -38 21z"/>
<path d="M280 6255 c-16 -30 -46 -33 -53 -5 -3 11 -12 20 -21 20 -19 0 -21
-21 -4 -38 9 -9 1 -12 -36 -12 -34 0 -46 -4 -43 -12 2 -7 15 -12 28 -11 13 1
70 5 127 9 68 5 101 11 99 18 -2 6 -21 10 -41 10 -34 -1 -36 0 -21 16 20 22
19 30 -3 30 -10 0 -25 -11 -32 -25z"/>
<path d="M280 5805 c-16 -30 -46 -33 -53 -5 -3 11 -12 20 -21 20 -19 0 -21
-21 -4 -38 9 -9 1 -12 -36 -12 -34 0 -46 -4 -43 -12 2 -7 16 -12 30 -11 24 1
25 0 14 -18 -6 -10 -15 -19 -19 -19 -5 0 -8 -7 -8 -15 0 -18 30 -20 30 -2 1 6
10 23 20 36 17 20 31 24 105 29 56 3 84 9 82 16 -2 6 -21 10 -41 10 -34 -1
-36 0 -21 16 20 22 19 30 -3 30 -10 0 -25 -11 -32 -25z"/>
<path d="M180 5700 c0 -5 5 -10 10 -10 6 0 10 5 10 10 0 6 -4 10 -10 10 -5 0
-10 -4 -10 -10z"/>
<path d="M280 5355 c-16 -30 -46 -33 -53 -5 -3 11 -12 20 -21 20 -19 0 -21
-21 -4 -38 9 -9 1 -12 -36 -12 -34 0 -46 -4 -43 -12 2 -7 16 -12 30 -11 24 1
25 0 14 -18 -6 -10 -15 -19 -19 -19 -5 0 -8 -7 -8 -15 0 -8 5 -15 11 -15 8 0
7 -5 -1 -15 -9 -11 -10 -19 -3 -26 12 -12 43 -1 43 16 0 8 11 22 25 33 14 11
25 25 25 31 0 25 -51 2 -63 -29 -5 -13 -5 -13 -6 0 0 8 9 26 19 39 17 20 31
24 105 29 56 3 84 9 82 16 -2 6 -21 10 -41 10 -34 -1 -36 0 -21 16 20 22 19
30 -3 30 -10 0 -25 -11 -32 -25z"/>
<path d="M200 5210 c0 -5 5 -10 10 -10 6 0 10 5 10 10 0 6 -4 10 -10 10 -5 0
-10 -4 -10 -10z"/>
<path d="M280 4905 c-16 -30 -46 -33 -53 -5 -3 11 -12 20 -21 20 -19 0 -21
-21 -4 -38 9 -9 1 -12 -36 -12 -34 0 -46 -4 -43 -12 2 -7 16 -12 30 -11 24 1
25 0 14 -18 -6 -10 -15 -19 -19 -19 -5 0 -8 -7 -8 -15 0 -8 5 -15 11 -15 8 0
7 -5 -1 -15 -9 -11 -10 -19 -3 -26 12 -12 43 -1 43 16 0 8 11 22 25 33 14 11
25 25 25 31 0 25 -51 2 -63 -29 -5 -13 -5 -13 -6 0 0 8 9 26 19 39 17 20 31
24 105 29 56 3 84 9 82 16 -2 6 -21 10 -41 10 -34 -1 -36 0 -21 16 20 22 19
30 -3 30 -10 0 -25 -11 -32 -25z"/>
<path d="M210 4770 c-17 -10 -14 -15 18 -25 19 -6 23 -4 20 11 -4 21 -18 27
-38 14z"/>
<path d="M280 4455 c-16 -30 -46 -33 -53 -5 -3 11 -12 20 -21 20 -19 0 -21
-21 -4 -38 9 -9 1 -12 -36 -12 -34 0 -46 -4 -43 -12 2 -7 16 -12 30 -11 24 1
25 0 14 -18 -6 -10 -15 -19 -19 -19 -5 0 -8 -7 -8 -15 0 -8 5 -15 11 -15 8 0
7 -5 -1 -15 -9 -11 -10 -19 -3 -26 12 -12 43 -1 43 16 0 8 11 22 25 33 14 11
25 25 25 31 0 25 -51 2 -63 -29 -5 -13 -5 -13 -6 0 -1 28 35 58 78 65 31 5 42
4 37 -4 -9 -14 2 -51 15 -51 5 0 9 6 8 13 -5 27 14 47 43 47 19 0 28 4 25 13
-2 7 -20 12 -41 11 -34 -1 -36 0 -21 16 20 22 19 30 -3 30 -10 0 -25 -11 -32
-25z"/>
<path d="M252 4358 c6 -18 28 -21 28 -4 0 9 -7 16 -16 16 -9 0 -14 -5 -12 -12z"/>
<path d="M210 4320 c-17 -10 -14 -15 18 -25 19 -6 23 -4 20 11 -4 21 -18 27
-38 14z"/>
<path d="M280 4005 c-16 -30 -46 -33 -53 -5 -3 11 -12 20 -21 20 -19 0 -21
-21 -4 -38 9 -9 1 -12 -36 -12 -34 0 -46 -4 -43 -12 2 -7 16 -12 30 -11 24 1
25 0 14 -18 -6 -10 -15 -19 -19 -19 -5 0 -8 -7 -8 -15 0 -8 5 -15 11 -15 8 0
7 -5 -1 -15 -9 -11 -10 -19 -3 -26 12 -12 43 -1 43 16 0 8 11 22 25 33 14 11
25 25 25 31 0 25 -51 2 -63 -29 -5 -13 -5 -13 -6 0 -1 27 35 57 75 64 l39 7 0
-37 c0 -21 -5 -39 -12 -41 -7 -3 -13 -12 -13 -20 0 -12 7 -14 32 -9 36 7 49
17 31 23 -8 3 -2 13 15 28 22 20 25 26 14 37 -11 11 -15 10 -23 -4 -6 -10 -14
-18 -20 -18 -5 0 -4 9 3 20 8 12 24 20 41 20 19 0 27 4 24 13 -2 7 -20 12 -41
11 -34 -1 -36 0 -21 16 20 22 19 30 -3 30 -10 0 -25 -11 -32 -25z"/>
<path d="M252 3908 c6 -18 28 -21 28 -4 0 9 -7 16 -16 16 -9 0 -14 -5 -12 -12z"/>
<path d="M210 3870 c-17 -10 -14 -15 18 -25 19 -6 23 -4 20 11 -4 21 -18 27
-38 14z"/>
<path d="M280 3555 c-16 -30 -46 -33 -53 -5 -3 11 -12 20 -21 20 -19 0 -21
-21 -4 -38 9 -9 1 -12 -36 -12 -34 0 -46 -4 -43 -12 2 -7 16 -12 30 -11 24 1
25 0 14 -18 -6 -10 -15 -19 -19 -19 -5 0 -8 -7 -8 -15 0 -8 5 -15 11 -15 8 0
7 -5 -1 -15 -9 -11 -10 -19 -3 -26 12 -12 43 -1 43 16 0 8 11 22 25 33 14 11
25 25 25 31 0 25 -51 2 -63 -29 -5 -13 -5 -13 -6 0 -1 27 35 57 75 64 l39 7 0
-37 c0 -21 -5 -39 -12 -41 -18 -6 -16 -33 1 -33 8 0 26 4 40 10 16 6 27 6 31
0 10 -17 25 -11 25 9 0 10 -7 22 -16 25 -13 5 -14 9 -4 22 10 12 11 17 1 27
-10 9 -14 8 -22 -5 -6 -10 -14 -18 -20 -18 -5 0 -4 9 3 20 8 12 24 20 41 20
19 0 27 4 24 13 -2 7 -20 12 -41 11 -34 -1 -36 0 -21 16 20 22 19 30 -3 30
-10 0 -25 -11 -32 -25z"/>
<path d="M252 3458 c6 -18 28 -21 28 -4 0 9 -7 16 -16 16 -9 0 -14 -5 -12 -12z"/>
<path d="M210 3420 c-17 -10 -14 -15 18 -25 19 -6 23 -4 20 11 -4 21 -18 27
-38 14z"/>
<path d="M280 3105 c-16 -30 -46 -33 -53 -5 -3 11 -12 20 -21 20 -19 0 -21
-21 -4 -38 9 -9 1 -12 -36 -12 -34 0 -46 -4 -43 -12 2 -7 16 -12 30 -11 24 1
25 0 14 -18 -6 -10 -15 -19 -19 -19 -5 0 -8 -7 -8 -15 0 -8 5 -15 11 -15 8 0
7 -5 -1 -15 -9 -11 -10 -19 -3 -26 12 -12 43 -1 43 16 0 8 11 22 25 33 14 11
25 25 25 31 0 25 -51 2 -63 -29 -5 -13 -5 -13 -6 0 -1 27 35 57 75 64 l39 7 0
-37 c0 -21 -5 -39 -12 -41 -18 -6 -16 -33 1 -33 8 0 26 4 40 10 16 6 27 6 31
0 10 -17 25 -11 25 9 0 10 -7 22 -16 25 -13 5 -14 9 -4 22 10 12 11 17 1 27
-10 9 -14 8 -22 -5 -6 -10 -14 -18 -20 -18 -5 0 -4 9 3 20 8 12 24 20 41 20
19 0 27 4 24 13 -2 7 -20 12 -41 11 -34 -1 -36 0 -21 16 20 22 19 30 -3 30
-10 0 -25 -11 -32 -25z"/>
<path d="M252 3008 c6 -18 28 -21 28 -4 0 9 -7 16 -16 16 -9 0 -14 -5 -12 -12z"/>
<path d="M210 2970 c-17 -10 -14 -15 18 -25 19 -6 23 -4 20 11 -4 21 -18 27
-38 14z"/>
<path d="M223 2933 c-20 -3 -33 -10 -33 -19 0 -17 5 -17 48 -4 29 8 32 7 21
-6 -19 -23 -4 -27 33 -8 44 22 45 24 28 34 -15 10 -37 10 -97 3z"/>
<path d="M280 2655 c-16 -30 -46 -33 -53 -5 -3 11 -12 20 -21 20 -19 0 -21
-21 -4 -38 9 -9 1 -12 -36 -12 -34 0 -46 -4 -43 -12 2 -7 16 -12 30 -11 24 1
25 0 14 -18 -6 -10 -15 -19 -19 -19 -5 0 -8 -7 -8 -15 0 -8 5 -15 11 -15 8 0
7 -5 -1 -15 -9 -11 -10 -19 -3 -26 12 -12 43 -1 43 16 0 8 11 22 25 33 14 11
25 25 25 31 0 25 -51 2 -63 -29 -5 -13 -5 -13 -6 0 -1 27 35 57 75 64 l39 7 0
-37 c0 -21 -5 -39 -12 -41 -18 -6 -16 -33 1 -33 8 0 26 4 40 10 16 6 27 6 31
0 10 -17 25 -11 25 9 0 10 -7 22 -16 25 -13 5 -14 9 -4 22 10 12 11 17 1 27
-10 9 -14 8 -22 -5 -6 -10 -14 -18 -20 -18 -5 0 -4 9 3 20 8 12 24 20 41 20
19 0 27 4 24 13 -2 7 -20 12 -41 11 -34 -1 -36 0 -21 16 20 22 19 30 -3 30
-10 0 -25 -11 -32 -25z"/>
<path d="M252 2558 c6 -18 28 -21 28 -4 0 9 -7 16 -16 16 -9 0 -14 -5 -12 -12z"/>
<path d="M210 2520 c-17 -10 -14 -15 18 -25 19 -6 23 -4 20 11 -4 21 -18 27
-38 14z"/>
<path d="M223 2483 c-20 -3 -33 -10 -33 -19 0 -17 4 -17 49 -4 32 9 33 8 17
-9 -9 -9 -16 -34 -16 -54 0 -24 -6 -39 -17 -46 -14 -8 -15 -12 -4 -25 31 -37
51 -10 51 70 0 37 4 43 30 54 33 14 38 25 14 34 -16 6 -34 6 -91 -1z"/>
<path d="M280 2205 c-16 -30 -46 -33 -53 -5 -3 11 -12 20 -21 20 -19 0 -21
-21 -4 -38 9 -9 1 -12 -36 -12 -34 0 -46 -4 -43 -12 2 -7 16 -12 30 -11 24 1
25 0 14 -18 -6 -10 -15 -19 -19 -19 -5 0 -8 -7 -8 -15 0 -8 5 -15 11 -15 8 0
7 -5 -1 -15 -9 -11 -10 -19 -3 -26 12 -12 43 -1 43 16 0 8 11 22 25 33 14 11
25 25 25 31 0 25 -51 2 -63 -29 -5 -13 -5 -13 -6 0 -1 27 35 57 75 64 l39 7 0
-37 c0 -21 -5 -39 -12 -41 -18 -6 -16 -33 1 -33 8 0 26 4 40 10 16 6 27 6 31
0 10 -17 25 -11 25 9 0 10 -7 22 -16 25 -13 5 -14 9 -4 22 10 12 11 17 1 27
-10 9 -14 8 -22 -5 -6 -10 -14 -18 -20 -18 -5 0 -4 9 3 20 8 12 24 20 41 20
19 0 27 4 24 13 -2 7 -20 12 -41 11 -34 -1 -36 0 -21 16 20 22 19 30 -3 30
-10 0 -25 -11 -32 -25z"/>
<path d="M252 2108 c6 -18 28 -21 28 -4 0 9 -7 16 -16 16 -9 0 -14 -5 -12 -12z"/>
<path d="M210 2070 c-17 -10 -14 -15 18 -25 19 -6 23 -4 20 11 -4 21 -18 27
-38 14z"/>
<path d="M223 2033 c-20 -3 -33 -10 -33 -19 0 -17 5 -17 47 -5 l33 10 -18 -24
c-19 -26 -51 -35 -119 -35 -31 0 -43 -4 -40 -12 4 -14 28 -15 100 -5 42 6 47
5 47 -13 0 -10 -8 -23 -17 -29 -14 -8 -15 -12 -4 -25 28 -33 50 -10 51 52 0
21 4 22 76 22 56 0 75 3 71 13 -3 8 -26 11 -76 10 -76 -2 -90 7 -41 27 33 14
38 25 14 34 -16 6 -34 6 -91 -1z"/>
</g>
</svg>
