<?xml version="1.0" standalone="no"?>
<!DOCTYPE svg PUBLIC "-//W3C//DTD SVG 20010904//EN"
 "http://www.w3.org/TR/2001/REC-SVG-20010904/DTD/svg10.dtd">
<svg version="1.0" xmlns="http://www.w3.org/2000/svg"
 width="95.000000pt" height="725.000000pt" viewBox="0 0 95.000000 725.000000"
 preserveAspectRatio="xMidYMid meet">
<metadata>
Created by potrace 1.16, written by Peter Selinger 2001-2019
</metadata>
<g transform="translate(0.000000,725.000000) scale(0.100000,-0.100000)"
fill="#000000" stroke="none">
<path d="M300 7169 c0 -7 -8 -17 -17 -24 -16 -12 -16 -14 0 -39 17 -25 17 -26
-3 -26 -11 0 -20 -2 -20 -5 0 -6 23 -48 30 -55 3 -3 5 -11 6 -17 3 -37 5 -43
14 -43 6 0 10 7 10 15 0 9 9 15 25 15 31 0 33 17 3 23 -16 3 -13 5 10 6 22 1
32 5 29 14 -2 6 -14 11 -25 10 -15 -2 -20 2 -16 12 4 8 10 15 15 15 5 0 9 5 9
10 0 6 -7 10 -16 10 -14 0 -44 22 -44 33 0 3 14 8 30 12 34 7 41 25 10 25 -11
0 -20 5 -20 10 0 6 -7 10 -15 10 -8 0 -15 -5 -15 -11z m16 -126 c-10 -10 -19
5 -10 18 6 11 8 11 12 0 2 -7 1 -15 -2 -18z"/>
<path d="M173 7156 c4 -10 -4 -17 -24 -21 -41 -9 -37 -28 6 -23 19 2 35 3 35
1 0 -6 -40 -43 -47 -43 -5 0 -9 -25 -9 -55 l-2 -55 42 7 c22 3 44 11 48 17 13
18 9 36 -7 36 -8 0 -15 -7 -15 -15 0 -9 -9 -15 -22 -14 -17 1 -19 2 -5 6 21 5
23 23 2 23 -8 0 -15 9 -15 20 0 14 6 20 23 19 12 0 16 -3 10 -6 -19 -7 -16
-23 3 -23 16 0 43 27 44 43 0 4 -9 7 -20 7 -23 0 -24 4 -10 31 8 13 7 25 0 39
-12 23 -45 28 -37 6z"/>
<path d="M625 7154 c4 -11 10 -27 12 -36 9 -31 24 -20 21 14 -2 23 -9 34 -22
36 -15 3 -17 0 -11 -14z"/>
<path d="M300 6719 c0 -7 -8 -17 -17 -24 -16 -12 -16 -14 0 -39 17 -25 17 -26
-4 -26 -13 0 -19 -5 -15 -12 3 -7 9 -21 12 -30 4 -10 9 -18 13 -18 3 0 7 -11
7 -24 1 -13 -3 -23 -10 -22 -27 2 -96 -17 -96 -26 0 -6 13 -8 35 -4 29 6 34 4
29 -9 -7 -18 -3 -19 31 -3 14 6 28 22 31 35 4 16 13 23 30 23 30 0 31 17 2 23
-16 3 -13 5 10 6 22 1 32 5 29 14 -2 6 -14 11 -25 10 -15 -2 -20 2 -16 12 4 8
10 15 15 15 5 0 9 5 9 10 0 6 -7 10 -16 10 -14 0 -44 22 -44 33 0 3 14 8 30
12 34 7 41 25 10 25 -11 0 -20 5 -20 10 0 6 -7 10 -15 10 -8 0 -15 -5 -15 -11z
m16 -126 c-10 -10 -19 5 -10 18 6 11 8 11 12 0 2 -7 1 -15 -2 -18z"/>
<path d="M173 6706 c4 -10 -4 -17 -24 -21 -41 -9 -37 -28 6 -23 19 2 35 3 35
1 0 -6 -40 -43 -47 -43 -5 0 -9 -25 -9 -55 l-2 -55 42 7 c22 3 44 11 48 17 13
18 9 36 -7 36 -8 0 -15 -7 -15 -15 0 -9 -9 -15 -22 -14 -17 1 -19 2 -5 6 21 5
23 23 2 23 -8 0 -15 9 -15 20 0 14 6 20 23 19 12 0 16 -3 10 -6 -19 -7 -16
-23 3 -23 16 0 43 27 44 43 0 4 -9 7 -20 7 -23 0 -24 4 -10 31 8 13 7 25 0 39
-12 23 -45 28 -37 6z"/>
<path d="M623 6706 c4 -10 -4 -17 -24 -21 -41 -9 -37 -28 6 -23 19 2 35 0 35
-4 0 -4 4 -8 9 -8 15 0 21 30 11 51 -12 22 -45 27 -37 5z"/>
<path d="M300 6269 c0 -7 -8 -17 -17 -24 -16 -12 -16 -14 0 -39 17 -25 17 -26
-4 -26 -13 0 -19 -5 -15 -12 3 -7 9 -21 12 -30 4 -10 9 -18 13 -18 3 0 7 -11
7 -24 1 -13 -3 -23 -10 -22 -6 0 -30 -3 -53 -8 -54 -10 -58 -31 -5 -22 31 5
34 4 21 -6 -11 -9 -14 -24 -11 -50 3 -31 1 -38 -13 -38 -20 0 -15 -19 8 -34
24 -15 37 7 37 66 0 38 4 48 20 53 11 3 23 17 26 31 4 17 13 24 30 24 30 0 31
17 2 23 -16 3 -13 5 10 6 22 1 32 5 29 14 -2 6 -14 11 -25 10 -15 -2 -20 2
-16 12 4 8 10 15 15 15 5 0 9 5 9 10 0 6 -7 10 -16 10 -14 0 -44 22 -44 33 0
3 14 8 30 12 34 7 41 25 10 25 -11 0 -20 5 -20 10 0 6 -7 10 -15 10 -8 0 -15
-5 -15 -11z m16 -126 c-10 -10 -19 5 -10 18 6 11 8 11 12 0 2 -7 1 -15 -2 -18z"/>
<path d="M173 6256 c4 -10 -4 -17 -24 -21 -41 -9 -37 -28 6 -23 19 2 35 3 35
1 0 -6 -40 -43 -47 -43 -5 0 -9 -25 -9 -55 l-2 -55 42 7 c22 3 44 11 48 17 13
18 9 36 -7 36 -8 0 -15 -7 -15 -15 0 -9 -9 -15 -22 -14 -17 1 -19 2 -5 6 21 5
23 23 2 23 -8 0 -15 9 -15 20 0 14 6 20 23 19 12 0 16 -3 10 -6 -19 -7 -16
-23 3 -23 16 0 43 27 44 43 0 4 -9 7 -20 7 -23 0 -24 4 -10 31 8 13 7 25 0 39
-12 23 -45 28 -37 6z"/>
<path d="M623 6256 c4 -10 -4 -17 -24 -21 -41 -9 -37 -28 6 -23 19 2 35 0 35
-4 0 -4 4 -8 9 -8 15 0 21 30 11 51 -12 22 -45 27 -37 5z"/>
<path d="M756 6251 c-16 -3 -31 -12 -34 -20 -3 -9 2 -11 14 -8 11 3 34 8 52
12 17 4 32 11 32 16 0 10 -19 10 -64 0z"/>
<path d="M300 5819 c0 -7 -8 -17 -17 -24 -16 -12 -16 -14 0 -39 17 -25 17 -26
-4 -26 -13 0 -19 -5 -15 -12 3 -7 9 -21 12 -30 4 -10 9 -18 13 -18 3 0 7 -11
7 -24 1 -13 -3 -23 -10 -22 -27 2 -96 -17 -96 -26 0 -6 14 -8 38 -3 37 7 37 7
16 -13 -12 -12 -42 -22 -77 -26 -82 -11 -74 -30 8 -21 61 6 65 5 65 -14 0 -13
-6 -21 -16 -21 -19 0 -14 -20 9 -34 21 -13 29 -5 36 41 l6 38 63 3 c83 4 79
22 -5 23 -57 0 -64 2 -45 11 12 6 25 22 28 35 4 16 13 23 30 23 30 0 31 17 2
23 -16 3 -13 5 10 6 22 1 32 5 29 14 -2 6 -14 11 -25 10 -15 -2 -20 2 -16 12
4 8 10 15 15 15 5 0 9 5 9 10 0 6 -7 10 -16 10 -14 0 -44 22 -44 33 0 3 14 8
30 12 34 7 41 25 10 25 -11 0 -20 5 -20 10 0 6 -7 10 -15 10 -8 0 -15 -5 -15
-11z m16 -126 c-10 -10 -19 5 -10 18 6 11 8 11 12 0 2 -7 1 -15 -2 -18z"/>
<path d="M750 5816 c0 -8 -7 -16 -15 -20 -17 -6 -19 -15 -5 -36 9 -13 12 -13
23 2 7 9 25 20 40 23 31 8 36 25 7 25 -11 0 -20 5 -20 10 0 6 -7 10 -15 10 -8
0 -15 -6 -15 -14z"/>
<path d="M173 5806 c4 -10 -4 -17 -24 -21 -41 -9 -37 -28 6 -23 19 2 35 3 35
1 0 -6 -40 -43 -47 -43 -5 0 -9 -25 -9 -55 l-2 -55 42 7 c22 3 44 11 48 17 13
18 9 36 -7 36 -8 0 -15 -7 -15 -15 0 -9 -9 -15 -22 -14 -17 1 -19 2 -5 6 21 5
23 23 2 23 -8 0 -15 9 -15 20 0 14 6 20 23 19 12 0 16 -3 10 -6 -19 -7 -16
-23 3 -23 16 0 43 27 44 43 0 4 -9 7 -20 7 -23 0 -24 4 -10 31 8 13 7 25 0 39
-12 23 -45 28 -37 6z"/>
<path d="M623 5806 c4 -10 -4 -17 -24 -21 -41 -9 -37 -28 6 -23 19 2 35 0 35
-4 0 -4 4 -8 9 -8 15 0 21 30 11 51 -12 22 -45 27 -37 5z"/>
<path d="M750 5366 c0 -8 -7 -16 -15 -20 -17 -6 -19 -15 -5 -36 9 -13 12 -13
23 2 7 9 25 20 40 23 31 8 36 25 7 25 -11 0 -20 5 -20 10 0 6 -7 10 -15 10 -8
0 -15 -6 -15 -14z"/>
<path d="M623 5356 c4 -10 -4 -17 -24 -21 -41 -9 -37 -28 6 -23 39 4 43 1 18
-18 -20 -14 -14 -27 9 -19 24 9 40 53 28 76 -12 22 -45 27 -37 5z"/>
<path d="M750 4916 c0 -8 -7 -16 -15 -20 -17 -6 -19 -15 -5 -36 9 -13 12 -13
23 2 7 9 25 20 40 23 31 8 36 25 7 25 -11 0 -20 5 -20 10 0 6 -7 10 -15 10 -8
0 -15 -6 -15 -14z"/>
<path d="M623 4906 c4 -10 -4 -17 -24 -21 -41 -9 -37 -28 6 -23 19 2 35 3 35
1 0 -6 -40 -43 -47 -43 -5 0 -9 -25 -9 -55 -2 -53 8 -71 20 -39 3 9 6 33 6 54
0 29 5 40 18 45 27 8 45 51 32 76 -12 22 -45 27 -37 5z"/>
<path d="M750 4466 c0 -8 -7 -16 -15 -20 -17 -6 -19 -15 -5 -36 9 -13 12 -13
23 2 7 9 25 20 40 23 31 8 36 25 7 25 -11 0 -20 5 -20 10 0 6 -7 10 -15 10 -8
0 -15 -6 -15 -14z"/>
<path d="M623 4456 c4 -10 -4 -17 -24 -21 -41 -9 -37 -28 6 -23 19 2 35 3 35
1 0 -6 -40 -43 -47 -43 -5 0 -9 -25 -9 -55 -2 -53 8 -71 20 -39 3 9 6 31 6 50
0 27 4 34 19 34 11 0 21 -6 24 -12 3 -10 7 -10 20 1 23 18 21 31 -3 31 -23 0
-24 4 -10 31 8 13 7 25 0 39 -12 23 -45 28 -37 6z"/>
<path d="M750 4016 c0 -8 -7 -16 -15 -20 -17 -6 -19 -15 -5 -36 9 -13 12 -13
23 2 7 9 25 20 40 23 31 8 36 25 7 25 -11 0 -20 5 -20 10 0 6 -7 10 -15 10 -8
0 -15 -6 -15 -14z"/>
<path d="M623 4006 c4 -10 -4 -17 -24 -21 -41 -9 -37 -28 6 -23 19 2 35 3 35
1 0 -6 -40 -43 -47 -43 -5 0 -9 -25 -9 -55 -2 -53 8 -71 20 -39 3 9 6 31 6 50
0 29 3 34 23 33 12 0 16 -3 10 -6 -19 -7 -16 -23 3 -23 16 0 43 27 44 43 0 4
-9 7 -20 7 -23 0 -24 4 -10 31 8 13 7 25 0 39 -12 23 -45 28 -37 6z"/>
<path d="M750 3566 c0 -8 -7 -16 -15 -20 -17 -6 -19 -15 -5 -36 9 -13 12 -13
23 2 7 9 25 20 40 23 31 8 36 25 7 25 -11 0 -20 5 -20 10 0 6 -7 10 -15 10 -8
0 -15 -6 -15 -14z"/>
<path d="M623 3556 c4 -10 -4 -17 -24 -21 -41 -9 -37 -28 6 -23 19 2 35 3 35
1 0 -6 -40 -43 -47 -43 -5 0 -9 -25 -9 -55 -2 -55 9 -73 21 -35 3 11 13 20 21
20 8 0 14 5 14 10 0 6 -7 10 -15 10 -8 0 -15 9 -15 20 0 14 6 20 23 19 12 0
16 -3 10 -6 -19 -7 -16 -23 3 -23 16 0 43 27 44 43 0 4 -9 7 -20 7 -23 0 -24
4 -10 31 8 13 7 25 0 39 -12 23 -45 28 -37 6z"/>
<path d="M650 3399 c0 -24 23 -21 28 4 2 10 -3 17 -12 17 -10 0 -16 -9 -16
-21z"/>
<path d="M750 3116 c0 -8 -7 -16 -15 -20 -17 -6 -19 -15 -5 -36 9 -13 12 -13
23 2 7 9 25 20 40 23 31 8 36 25 7 25 -11 0 -20 5 -20 10 0 6 -7 10 -15 10 -8
0 -15 -6 -15 -14z"/>
<path d="M623 3106 c4 -10 -4 -17 -24 -21 -41 -9 -37 -28 6 -23 19 2 35 3 35
1 0 -6 -40 -43 -47 -43 -5 0 -9 -25 -9 -55 l-2 -55 42 7 c22 3 44 11 48 17 13
18 9 36 -7 36 -8 0 -15 -7 -15 -15 0 -9 -9 -15 -22 -14 -17 1 -19 2 -5 6 21 5
23 23 2 23 -8 0 -15 9 -15 20 0 14 6 20 23 19 12 0 16 -3 10 -6 -19 -7 -16
-23 3 -23 16 0 43 27 44 43 0 4 -9 7 -20 7 -23 0 -24 4 -10 31 8 13 7 25 0 39
-12 23 -45 28 -37 6z"/>
<path d="M750 2669 c0 -7 -8 -17 -17 -24 -16 -12 -16 -14 0 -39 19 -28 47 -35
47 -11 0 8 -4 15 -10 15 -23 0 -8 19 20 25 34 7 41 25 10 25 -11 0 -20 5 -20
10 0 6 -7 10 -15 10 -8 0 -15 -5 -15 -11z"/>
<path d="M623 2656 c4 -10 -4 -17 -24 -21 -41 -9 -37 -28 6 -23 19 2 35 3 35
1 0 -6 -40 -43 -47 -43 -5 0 -9 -25 -9 -55 l-2 -55 42 7 c22 3 44 11 48 17 13
18 9 36 -7 36 -8 0 -15 -7 -15 -15 0 -9 -9 -15 -22 -14 -17 1 -19 2 -5 6 21 5
23 23 2 23 -8 0 -15 9 -15 20 0 14 6 20 23 19 12 0 16 -3 10 -6 -19 -7 -16
-23 3 -23 16 0 43 27 44 43 0 4 -9 7 -20 7 -23 0 -24 4 -10 31 8 13 7 25 0 39
-12 23 -45 28 -37 6z"/>
<path d="M750 2219 c0 -7 -8 -17 -17 -24 -16 -12 -16 -14 0 -39 17 -25 17 -26
-3 -26 -11 0 -20 -5 -20 -11 0 -8 13 -10 38 -5 20 3 45 6 55 6 9 0 17 5 17 10
0 6 -7 10 -16 10 -14 0 -44 22 -44 33 0 3 14 8 30 12 34 7 41 25 10 25 -11 0
-20 5 -20 10 0 6 -7 10 -15 10 -8 0 -15 -5 -15 -11z"/>
<path d="M623 2206 c4 -10 -4 -17 -24 -21 -41 -9 -37 -28 6 -23 19 2 35 3 35
1 0 -6 -40 -43 -47 -43 -5 0 -9 -25 -9 -55 l-2 -55 42 7 c22 3 44 11 48 17 13
18 9 36 -7 36 -8 0 -15 -7 -15 -15 0 -9 -9 -15 -22 -14 -17 1 -19 2 -5 6 21 5
23 23 2 23 -8 0 -15 9 -15 20 0 14 6 20 23 19 12 0 16 -3 10 -6 -19 -7 -16
-23 3 -23 16 0 43 27 44 43 0 4 -9 7 -20 7 -23 0 -24 4 -10 31 8 13 7 25 0 39
-12 23 -45 28 -37 6z"/>
<path d="M750 1769 c0 -7 -8 -17 -17 -24 -16 -12 -16 -14 0 -39 17 -25 17 -26
-3 -26 -23 0 -25 -8 -6 -32 17 -23 22 -23 29 2 4 15 14 20 36 20 17 0 31 5 31
10 0 6 -7 10 -16 10 -14 0 -44 22 -44 33 0 3 14 8 30 12 34 7 41 25 10 25 -11
0 -20 5 -20 10 0 6 -7 10 -15 10 -8 0 -15 -5 -15 -11z"/>
<path d="M623 1756 c4 -10 -4 -17 -24 -21 -41 -9 -37 -28 6 -23 19 2 35 3 35
1 0 -6 -40 -43 -47 -43 -5 0 -9 -25 -9 -55 l-2 -55 42 7 c22 3 44 11 48 17 13
18 9 36 -7 36 -8 0 -15 -7 -15 -15 0 -9 -9 -15 -22 -14 -17 1 -19 2 -5 6 21 5
23 23 2 23 -8 0 -15 9 -15 20 0 14 6 20 23 19 12 0 16 -3 10 -6 -19 -7 -16
-23 3 -23 16 0 43 27 44 43 0 4 -9 7 -20 7 -23 0 -24 4 -10 31 8 13 7 25 0 39
-12 23 -45 28 -37 6z"/>
<path d="M750 1319 c0 -7 -8 -17 -17 -24 -16 -12 -16 -14 0 -39 17 -25 17 -26
-3 -26 -23 0 -25 -8 -6 -32 17 -23 22 -23 31 5 6 19 8 19 12 5 6 -23 15 -23
36 2 21 25 21 30 1 30 -14 0 -44 22 -44 33 0 3 14 8 30 12 34 7 41 25 10 25
-11 0 -20 5 -20 10 0 6 -7 10 -15 10 -8 0 -15 -5 -15 -11z"/>
<path d="M623 1306 c4 -10 -4 -17 -24 -21 -41 -9 -37 -28 6 -23 19 2 35 3 35
1 0 -6 -40 -43 -47 -43 -5 0 -9 -25 -9 -55 l-2 -55 42 7 c22 3 44 11 48 17 13
18 9 36 -7 36 -8 0 -15 -7 -15 -15 0 -9 -9 -15 -22 -14 -17 1 -19 2 -5 6 21 5
23 23 2 23 -8 0 -15 9 -15 20 0 14 6 20 23 19 12 0 16 -3 10 -6 -19 -7 -16
-23 3 -23 16 0 43 27 44 43 0 4 -9 7 -20 7 -23 0 -24 4 -10 31 8 13 7 25 0 39
-12 23 -45 28 -37 6z"/>
<path d="M750 869 c0 -7 -8 -17 -17 -24 -16 -12 -16 -14 0 -39 17 -25 17 -26
-4 -26 -13 0 -19 -5 -15 -12 3 -7 9 -21 12 -30 5 -14 18 -18 61 -18 39 0 53 3
50 13 -2 6 -14 11 -25 10 -15 -2 -20 2 -16 12 4 8 10 15 15 15 5 0 9 5 9 10 0
6 -7 10 -16 10 -14 0 -44 22 -44 33 0 3 14 8 30 12 34 7 41 25 10 25 -11 0
-20 5 -20 10 0 6 -7 10 -15 10 -8 0 -15 -5 -15 -11z m16 -126 c-10 -10 -19 5
-10 18 6 11 8 11 12 0 2 -7 1 -15 -2 -18z"/>
<path d="M623 856 c4 -10 -4 -17 -24 -21 -41 -9 -37 -28 6 -23 19 2 35 3 35 1
0 -6 -40 -43 -47 -43 -5 0 -9 -25 -9 -55 l-2 -55 42 7 c22 3 44 11 48 17 13
18 9 36 -7 36 -8 0 -15 -7 -15 -15 0 -9 -9 -15 -22 -14 -17 1 -19 2 -5 6 21 5
23 23 2 23 -8 0 -15 9 -15 20 0 14 6 20 23 19 12 0 16 -3 10 -6 -19 -7 -16
-23 3 -23 16 0 43 27 44 43 0 4 -9 7 -20 7 -23 0 -24 4 -10 31 8 13 7 25 0 39
-12 23 -45 28 -37 6z"/>
<path d="M750 419 c0 -7 -8 -17 -17 -24 -16 -12 -16 -14 0 -39 17 -25 17 -26
-4 -26 -13 0 -19 -5 -15 -12 3 -7 9 -21 12 -30 5 -14 18 -18 61 -18 39 0 53 3
50 13 -2 6 -14 11 -25 10 -15 -2 -20 2 -16 12 4 8 10 15 15 15 5 0 9 5 9 10 0
6 -7 10 -16 10 -14 0 -44 22 -44 33 0 3 14 8 30 12 34 7 41 25 10 25 -11 0
-20 5 -20 10 0 6 -7 10 -15 10 -8 0 -15 -5 -15 -11z m16 -126 c-10 -10 -19 5
-10 18 6 11 8 11 12 0 2 -7 1 -15 -2 -18z"/>
<path d="M623 406 c4 -10 -4 -17 -24 -21 -41 -9 -37 -28 6 -23 19 2 35 3 35 1
0 -6 -40 -43 -47 -43 -5 0 -9 -25 -9 -55 l-2 -55 42 7 c22 3 44 11 48 17 13
18 9 36 -7 36 -8 0 -15 -7 -15 -15 0 -9 -9 -15 -22 -14 -17 1 -19 2 -5 6 21 5
23 23 2 23 -8 0 -15 9 -15 20 0 14 6 20 23 19 12 0 16 -3 10 -6 -19 -7 -16
-23 3 -23 16 0 43 27 44 43 0 4 -9 7 -20 7 -23 0 -24 4 -10 31 8 13 7 25 0 39
-12 23 -45 28 -37 6z"/>
<path d="M740 250 c0 -5 18 -10 40 -10 22 0 40 5 40 10 0 6 -18 10 -40 10 -22
0 -40 -4 -40 -10z"/>
</g>
</svg>
