<?xml version="1.0" standalone="no"?>
<!DOCTYPE svg PUBLIC "-//W3C//DTD SVG 20010904//EN"
 "http://www.w3.org/TR/2001/REC-SVG-20010904/DTD/svg10.dtd">
<svg version="1.0" xmlns="http://www.w3.org/2000/svg"
 width="50.000000pt" height="725.000000pt" viewBox="0 0 50.000000 725.000000"
 preserveAspectRatio="xMidYMid meet">
<metadata>
Created by potrace 1.16, written by Peter Selinger 2001-2019
</metadata>
<g transform="translate(0.000000,725.000000) scale(0.100000,-0.100000)"
fill="#000000" stroke="none">
<path d="M210 7154 c0 -16 23 -44 35 -44 20 0 19 36 -1 44 -20 8 -34 8 -34 0z"/>
<path d="M210 6704 c0 -16 23 -44 35 -44 20 0 19 36 -1 44 -20 8 -34 8 -34 0z"/>
<path d="M112 6638 c-8 -21 -8 -36 -2 -42 14 -14 28 3 36 42 9 44 -17 44 -34
0z"/>
<path d="M210 6254 c0 -3 5 -15 11 -26 11 -20 10 -21 -43 -15 -53 5 -55 5 -66
-25 -6 -17 -9 -35 -6 -39 9 -16 24 -9 33 14 8 21 18 25 78 30 105 10 113 10
106 -10 -5 -14 -1 -15 27 -9 44 8 47 12 26 35 -15 16 -27 19 -67 14 -40 -5
-49 -3 -49 10 0 8 -7 18 -16 21 -20 8 -34 8 -34 0z"/>
<path d="M210 5804 c0 -3 5 -15 11 -26 11 -20 10 -21 -43 -15 -53 5 -55 5 -66
-25 -6 -17 -9 -35 -6 -39 9 -16 24 -9 33 14 8 21 18 25 78 30 105 10 113 10
106 -10 -5 -14 -1 -15 27 -9 44 8 47 12 26 35 -15 16 -27 19 -67 14 -40 -5
-49 -3 -49 10 0 8 -7 18 -16 21 -20 8 -34 8 -34 0z"/>
<path d="M162 5690 c-25 -33 -27 -40 -12 -40 14 0 60 46 60 60 0 20 -27 9 -48
-20z"/>
<path d="M210 5354 c0 -3 5 -15 11 -26 11 -20 10 -21 -43 -15 -53 5 -55 5 -66
-25 -6 -17 -9 -35 -6 -39 9 -16 24 -9 33 14 8 21 18 25 78 30 105 10 113 10
106 -10 -5 -14 -1 -15 27 -9 44 8 47 12 26 35 -15 16 -27 19 -67 14 -40 -5
-49 -3 -49 10 0 8 -7 18 -16 21 -20 8 -34 8 -34 0z"/>
<path d="M162 5240 c-25 -33 -27 -40 -12 -40 14 0 60 46 60 60 0 20 -27 9 -48
-20z"/>
<path d="M260 5262 c0 -14 35 -42 53 -42 23 0 21 27 -2 40 -24 12 -51 13 -51
2z"/>
<path d="M210 4904 c0 -3 5 -15 11 -26 11 -20 10 -21 -43 -15 -53 5 -55 5 -66
-25 -6 -17 -9 -35 -6 -39 9 -16 24 -9 33 14 8 21 18 25 78 30 105 10 113 10
106 -10 -5 -14 -1 -15 27 -9 44 8 47 12 26 35 -15 16 -27 19 -67 14 -40 -5
-49 -3 -49 10 0 8 -7 18 -16 21 -20 8 -34 8 -34 0z"/>
<path d="M162 4790 c-25 -33 -27 -40 -12 -40 14 0 60 46 60 60 0 20 -27 9 -48
-20z"/>
<path d="M260 4812 c0 -14 35 -42 53 -42 23 0 21 27 -2 40 -24 12 -51 13 -51
2z"/>
<path d="M220 4778 c0 -17 -51 -73 -100 -110 -47 -37 -31 -46 23 -15 53 31
109 93 105 115 -4 20 -28 28 -28 10z"/>
<path d="M210 4454 c0 -3 5 -15 11 -26 11 -20 10 -21 -43 -15 -53 5 -55 5 -66
-25 -6 -17 -9 -35 -6 -39 9 -16 24 -9 33 14 8 21 18 25 78 30 105 10 113 10
106 -10 -5 -14 -1 -15 27 -9 44 8 47 12 26 35 -15 16 -27 19 -67 14 -40 -5
-49 -3 -49 10 0 8 -7 18 -16 21 -20 8 -34 8 -34 0z"/>
<path d="M162 4340 c-25 -33 -27 -40 -12 -40 14 0 60 46 60 60 0 20 -27 9 -48
-20z"/>
<path d="M260 4362 c0 -14 35 -42 53 -42 23 0 21 27 -2 40 -24 12 -51 13 -51
2z"/>
<path d="M220 4327 c0 -16 -52 -73 -100 -109 -19 -15 -32 -30 -28 -33 10 -10
67 23 115 68 l44 40 48 -47 c41 -40 53 -47 81 -44 42 4 50 23 13 33 -33 8
-113 57 -138 85 -21 23 -35 26 -35 7z"/>
<path d="M210 4004 c0 -3 5 -15 11 -26 11 -20 10 -21 -43 -15 -53 5 -55 5 -66
-25 -6 -17 -9 -35 -6 -39 9 -16 24 -9 33 14 8 21 18 25 78 30 105 10 113 10
106 -10 -5 -14 -1 -15 27 -9 44 8 47 12 26 35 -15 16 -27 19 -67 14 -40 -5
-49 -3 -49 10 0 8 -7 18 -16 21 -20 8 -34 8 -34 0z"/>
<path d="M162 3890 c-25 -33 -27 -40 -12 -40 14 0 60 46 60 60 0 20 -27 9 -48
-20z"/>
<path d="M260 3912 c0 -14 35 -42 53 -42 23 0 21 27 -2 40 -24 12 -51 13 -51
2z"/>
<path d="M220 3877 c0 -16 -52 -73 -100 -109 -43 -34 -33 -48 14 -20 l36 21 5
-22 c2 -12 6 -31 7 -41 2 -11 9 -21 17 -24 10 -3 12 5 6 39 -4 24 -11 47 -16
50 -5 3 7 20 26 39 l35 34 49 -48 c41 -40 53 -47 81 -44 42 4 50 23 13 33 -33
8 -113 57 -138 85 -21 23 -35 26 -35 7z"/>
<path d="M210 3554 c0 -3 5 -15 11 -26 11 -20 10 -21 -43 -15 -53 5 -55 5 -66
-25 -6 -17 -9 -35 -6 -39 9 -16 24 -9 33 14 8 21 18 25 78 30 105 10 113 10
106 -10 -5 -14 -1 -15 27 -9 44 8 47 12 26 35 -15 16 -27 19 -67 14 -40 -5
-49 -3 -49 10 0 8 -7 18 -16 21 -20 8 -34 8 -34 0z"/>
<path d="M162 3440 c-25 -33 -27 -40 -12 -40 14 0 60 46 60 60 0 20 -27 9 -48
-20z"/>
<path d="M260 3462 c0 -14 35 -42 53 -42 23 0 21 27 -2 40 -24 12 -51 13 -51
2z"/>
<path d="M220 3427 c0 -16 -52 -73 -100 -109 -43 -34 -33 -48 14 -20 l36 21 5
-22 c2 -12 6 -31 7 -41 2 -11 9 -21 17 -24 10 -3 12 4 6 37 -6 39 -6 41 19 41
14 0 26 5 26 11 0 8 -13 10 -37 6 l-37 -6 37 37 37 37 27 -28 c15 -15 22 -27
15 -27 -8 0 -12 -16 -12 -45 0 -51 8 -57 30 -18 13 22 22 27 59 27 51 1 66 20
24 31 -33 8 -113 57 -138 85 -21 23 -35 26 -35 7z"/>
<path d="M210 3104 c0 -3 5 -15 11 -26 11 -20 10 -21 -43 -15 -53 5 -55 5 -66
-25 -6 -17 -9 -35 -6 -39 9 -16 24 -9 33 14 8 21 18 25 78 30 105 10 113 10
106 -10 -5 -14 -1 -15 27 -9 44 8 47 12 26 35 -15 16 -27 19 -67 14 -40 -5
-49 -3 -49 10 0 8 -7 18 -16 21 -20 8 -34 8 -34 0z"/>
<path d="M162 2990 c-25 -33 -27 -40 -12 -40 14 0 60 46 60 60 0 20 -27 9 -48
-20z"/>
<path d="M260 3012 c0 -14 35 -42 53 -42 23 0 21 27 -2 40 -24 12 -51 13 -51
2z"/>
<path d="M220 2977 c0 -16 -52 -73 -100 -109 -43 -34 -33 -48 14 -20 l36 21 5
-22 c2 -12 6 -31 7 -42 2 -11 9 -20 16 -19 6 1 31 2 55 3 37 1 44 5 57 33 13
29 20 32 59 33 50 0 66 19 24 30 -33 8 -113 57 -138 85 -21 23 -35 26 -35 7z
m60 -62 c13 -14 18 -25 12 -25 -6 0 -12 -17 -14 -37 -3 -36 -5 -38 -38 -38
-29 0 -36 4 -38 23 -3 18 1 22 22 22 14 0 26 5 26 11 0 8 -13 10 -37 6 l-36
-6 33 34 c19 19 37 35 40 35 4 0 17 -11 30 -25z"/>
</g>
</svg>
