<?xml version="1.0" standalone="no"?>
<!DOCTYPE svg PUBLIC "-//W3C//DTD SVG 20010904//EN"
 "http://www.w3.org/TR/2001/REC-SVG-20010904/DTD/svg10.dtd">
<svg version="1.0" xmlns="http://www.w3.org/2000/svg"
 width="50.000000pt" height="725.000000pt" viewBox="0 0 50.000000 725.000000"
 preserveAspectRatio="xMidYMid meet">
<metadata>
Created by potrace 1.16, written by Peter Selinger 2001-2019
</metadata>
<g transform="translate(0.000000,725.000000) scale(0.100000,-0.100000)"
fill="#000000" stroke="none">
<path d="M222 7148 c4 -29 38 -38 38 -10 0 11 -7 23 -16 26 -24 9 -26 8 -22
-16z"/>
<path d="M222 6698 c4 -29 38 -38 38 -10 0 11 -7 23 -16 26 -24 9 -26 8 -22
-16z"/>
<path d="M120 6661 c-14 -27 -13 -51 4 -51 15 0 26 21 26 51 0 25 -16 24 -30
0z"/>
<path d="M220 6250 c0 -22 -36 -36 -69 -25 -21 6 -41 -18 -41 -49 0 -23 28
-20 35 4 3 11 14 20 23 21 9 0 50 4 90 8 68 6 72 6 66 -13 -5 -15 -3 -18 11
-13 9 4 25 7 36 7 10 0 19 7 19 15 0 24 -37 37 -85 29 -36 -5 -45 -3 -45 9 0
8 -7 18 -16 21 -23 9 -24 8 -24 -14z"/>
<path d="M220 5800 c0 -22 -36 -36 -69 -25 -21 6 -41 -18 -41 -49 0 -23 28
-20 35 4 3 11 14 20 23 21 9 0 50 4 90 8 68 6 72 6 66 -13 -5 -15 -3 -18 11
-13 9 4 25 7 36 7 10 0 19 7 19 15 0 24 -37 37 -85 29 -36 -5 -45 -3 -45 9 0
8 -7 18 -16 21 -23 9 -24 8 -24 -14z"/>
<path d="M218 5723 c-32 -2 -58 -8 -58 -13 0 -11 92 -13 128 -4 26 7 30 25 5
22 -10 -1 -44 -3 -75 -5z"/>
<path d="M220 5350 c0 -22 -36 -36 -69 -25 -21 6 -41 -18 -41 -49 0 -23 28
-20 35 4 3 11 14 20 23 21 9 0 50 4 90 8 68 6 72 6 66 -13 -5 -15 -3 -18 11
-13 9 4 25 7 36 7 10 0 19 7 19 15 0 24 -37 37 -85 29 -36 -5 -45 -3 -45 9 0
8 -7 18 -16 21 -23 9 -24 8 -24 -14z"/>
<path d="M218 5273 c-32 -2 -58 -8 -58 -13 0 -11 92 -13 128 -4 26 7 30 25 5
22 -10 -1 -44 -3 -75 -5z"/>
<path d="M160 5220 c0 -6 30 -10 70 -10 40 0 70 4 70 10 0 6 -30 10 -70 10
-40 0 -70 -4 -70 -10z"/>
<path d="M220 4900 c0 -22 -36 -36 -69 -25 -21 6 -41 -18 -41 -49 0 -23 28
-20 35 4 3 11 13 20 21 20 17 0 19 -26 2 -33 -10 -4 -9 -8 2 -17 11 -9 12 -13
3 -17 -18 -7 -16 -23 2 -23 8 0 15 -7 15 -15 0 -8 5 -15 10 -15 6 0 10 7 10
15 0 11 12 15 45 15 25 0 45 5 45 10 0 6 -20 10 -45 10 -25 0 -45 5 -45 10 0
6 12 10 28 10 37 0 72 11 72 22 0 5 -22 6 -50 2 -46 -6 -50 -5 -50 14 0 18 7
21 60 24 55 3 59 1 54 -16 -5 -15 -3 -18 11 -13 9 4 25 7 36 7 10 0 19 7 19
15 0 24 -37 37 -85 29 -36 -5 -45 -3 -45 9 0 8 -7 18 -16 21 -23 9 -24 8 -24
-14z"/>
<path d="M220 4450 c0 -22 -36 -36 -69 -25 -21 6 -41 -18 -41 -49 0 -23 28
-20 35 4 3 11 13 20 21 20 17 0 19 -26 2 -33 -10 -4 -9 -8 2 -17 11 -9 12 -13
3 -17 -18 -7 -16 -23 2 -23 8 0 15 -7 15 -15 0 -8 5 -15 10 -15 6 0 10 7 10
15 0 8 9 15 20 15 11 0 20 -7 20 -15 0 -21 12 -19 33 6 14 15 15 24 7 34 -8
10 -7 16 6 23 17 9 17 11 1 27 -22 21 -22 22 8 27 22 5 25 2 19 -15 -5 -16 -3
-19 11 -14 9 4 25 7 36 7 10 0 19 7 19 15 0 24 -37 37 -85 29 -36 -5 -45 -3
-45 9 0 8 -7 18 -16 21 -23 9 -24 8 -24 -14z m33 -54 c7 -18 -1 -26 -25 -26
-11 0 -18 7 -18 20 0 23 35 28 43 6z m2 -56 c-3 -5 -15 -10 -26 -10 -10 0 -19
5 -19 10 0 6 12 10 26 10 14 0 23 -4 19 -10z"/>
<path d="M220 4000 c0 -22 -36 -36 -69 -25 -21 6 -41 -18 -41 -49 0 -23 28
-20 35 4 3 11 13 20 21 20 17 0 19 -26 2 -33 -10 -4 -9 -8 2 -17 11 -9 12 -13
3 -17 -18 -7 -16 -23 2 -23 8 0 15 -4 15 -10 0 -5 -9 -10 -19 -10 -25 0 -51
-10 -51 -20 0 -7 231 -1 240 7 11 10 -27 23 -52 19 -28 -5 -40 8 -15 17 9 3 9
7 -1 20 -11 13 -10 17 4 25 17 9 17 11 1 27 -22 21 -22 22 8 27 22 5 25 2 19
-15 -5 -16 -3 -19 11 -14 9 4 25 7 36 7 10 0 19 7 19 15 0 24 -37 37 -85 29
-36 -5 -45 -3 -45 9 0 8 -7 18 -16 21 -23 9 -24 8 -24 -14z m33 -54 c7 -18 -1
-26 -25 -26 -11 0 -18 7 -18 20 0 23 35 28 43 6z m2 -56 c-3 -5 -15 -10 -26
-10 -10 0 -19 5 -19 10 0 6 12 10 26 10 14 0 23 -4 19 -10z m-5 -40 c0 -5 -9
-10 -20 -10 -11 0 -20 5 -20 10 0 6 9 10 20 10 11 0 20 -4 20 -10z"/>
<path d="M220 3550 c0 -22 -36 -36 -69 -25 -21 6 -41 -18 -41 -49 0 -23 28
-20 35 4 3 11 13 20 21 20 17 0 19 -26 2 -33 -10 -4 -9 -8 2 -17 11 -9 12 -13
3 -17 -18 -7 -16 -23 2 -23 8 0 15 -4 15 -10 0 -5 -9 -10 -19 -10 -27 0 -51
-10 -51 -22 0 -6 13 -8 30 -6 29 4 29 4 13 -14 -10 -11 -30 -27 -45 -36 -34
-20 -37 -36 -5 -27 35 11 97 56 97 71 0 11 18 14 75 14 41 0 75 4 75 9 0 14
-37 23 -60 16 -11 -3 -20 -2 -20 3 0 6 6 12 13 15 9 3 9 7 -1 20 -11 13 -10
17 4 25 17 9 17 11 1 27 -22 21 -22 22 8 27 22 5 25 2 19 -15 -5 -16 -3 -19
11 -14 9 4 25 7 36 7 10 0 19 7 19 15 0 24 -37 37 -85 29 -36 -5 -45 -3 -45 9
0 8 -7 18 -16 21 -23 9 -24 8 -24 -14z m33 -54 c7 -18 -1 -26 -25 -26 -11 0
-18 7 -18 20 0 23 35 28 43 6z m2 -56 c-3 -5 -15 -10 -26 -10 -10 0 -19 5 -19
10 0 6 12 10 26 10 14 0 23 -4 19 -10z m-5 -40 c0 -5 -9 -10 -20 -10 -11 0
-20 5 -20 10 0 6 9 10 20 10 11 0 20 -4 20 -10z"/>
<path d="M220 3100 c0 -22 -36 -36 -69 -25 -21 6 -41 -18 -41 -49 0 -23 28
-20 35 4 3 11 13 20 21 20 17 0 19 -26 2 -33 -10 -4 -9 -8 2 -17 11 -9 12 -13
3 -17 -18 -7 -16 -23 2 -23 8 0 15 -4 15 -10 0 -5 -9 -10 -19 -10 -27 0 -51
-10 -51 -22 0 -6 13 -8 30 -6 29 4 29 4 13 -14 -10 -11 -30 -27 -45 -36 -34
-20 -37 -36 -5 -27 35 11 97 56 97 71 0 26 42 14 89 -26 39 -33 55 -40 89 -40
23 0 42 3 42 8 0 4 -21 15 -47 24 -27 9 -57 24 -68 32 -19 15 -19 15 13 16 17
0 32 4 32 9 0 14 -37 23 -60 16 -11 -3 -20 -2 -20 3 0 6 6 12 13 15 9 3 9 7
-1 20 -11 13 -10 17 4 25 17 9 17 11 1 27 -22 21 -22 22 8 27 22 5 25 2 19
-15 -5 -16 -3 -19 11 -14 9 4 25 7 36 7 10 0 19 7 19 15 0 24 -37 37 -85 29
-36 -5 -45 -3 -45 9 0 8 -7 18 -16 21 -23 9 -24 8 -24 -14z m33 -54 c7 -18 -1
-26 -25 -26 -11 0 -18 7 -18 20 0 23 35 28 43 6z m2 -56 c-3 -5 -15 -10 -26
-10 -10 0 -19 5 -19 10 0 6 12 10 26 10 14 0 23 -4 19 -10z m-5 -40 c0 -5 -9
-10 -20 -10 -11 0 -20 5 -20 10 0 6 9 10 20 10 11 0 20 -4 20 -10z"/>
<path d="M220 2650 c0 -22 -36 -36 -69 -25 -21 6 -41 -18 -41 -49 0 -23 28
-20 35 4 3 11 13 20 21 20 17 0 19 -26 2 -33 -10 -4 -9 -8 2 -17 11 -9 12 -13
3 -17 -18 -7 -16 -23 2 -23 8 0 15 -4 15 -10 0 -5 -9 -10 -19 -10 -27 0 -51
-10 -51 -22 0 -6 13 -8 30 -6 29 4 29 4 13 -14 -10 -11 -30 -27 -45 -36 -34
-20 -37 -36 -5 -27 35 11 97 56 97 71 0 26 42 14 89 -26 39 -33 55 -40 89 -40
23 0 42 3 42 8 0 4 -21 15 -47 24 -27 9 -57 24 -68 32 -19 15 -19 15 13 16 17
0 32 4 32 9 0 14 -37 23 -60 16 -11 -3 -20 -2 -20 3 0 6 6 12 13 15 9 3 9 7
-1 20 -11 13 -10 17 4 25 17 9 17 11 1 27 -22 21 -22 22 8 27 22 5 25 2 19
-15 -5 -16 -3 -19 11 -14 9 4 25 7 36 7 10 0 19 7 19 15 0 24 -37 37 -85 29
-36 -5 -45 -3 -45 9 0 8 -7 18 -16 21 -23 9 -24 8 -24 -14z m33 -54 c7 -18 -1
-26 -25 -26 -11 0 -18 7 -18 20 0 23 35 28 43 6z m2 -56 c-3 -5 -15 -10 -26
-10 -10 0 -19 5 -19 10 0 6 12 10 26 10 14 0 23 -4 19 -10z m-5 -40 c0 -5 -9
-10 -20 -10 -11 0 -20 5 -20 10 0 6 9 10 20 10 11 0 20 -4 20 -10z"/>
<path d="M210 2432 c0 -5 9 -17 20 -27 26 -23 52 -6 30 20 -13 16 -50 21 -50
7z"/>
<path d="M220 2200 c0 -22 -36 -36 -69 -25 -21 6 -41 -18 -41 -49 0 -23 28
-20 35 4 3 11 13 20 21 20 17 0 19 -26 2 -33 -10 -4 -9 -8 2 -17 11 -9 12 -13
3 -17 -18 -7 -16 -23 2 -23 8 0 15 -4 15 -10 0 -5 -9 -10 -19 -10 -27 0 -51
-10 -51 -22 0 -6 13 -8 30 -6 29 4 29 4 13 -14 -10 -11 -30 -27 -45 -36 -34
-20 -37 -36 -5 -27 35 11 97 56 97 71 0 26 42 14 89 -26 39 -33 55 -40 89 -40
23 0 42 3 42 8 0 4 -21 15 -47 24 -27 9 -57 24 -68 32 -19 15 -19 15 13 16 17
0 32 4 32 9 0 14 -37 23 -60 16 -11 -3 -20 -2 -20 3 0 6 6 12 13 15 9 3 9 7
-1 20 -11 13 -10 17 4 25 17 9 17 11 1 27 -22 21 -22 22 8 27 22 5 25 2 19
-15 -5 -16 -3 -19 11 -14 9 4 25 7 36 7 10 0 19 7 19 15 0 24 -37 37 -85 29
-36 -5 -45 -3 -45 9 0 8 -7 18 -16 21 -23 9 -24 8 -24 -14z m33 -54 c7 -18 -1
-26 -25 -26 -11 0 -18 7 -18 20 0 23 35 28 43 6z m2 -56 c-3 -5 -15 -10 -26
-10 -10 0 -19 5 -19 10 0 6 12 10 26 10 14 0 23 -4 19 -10z m-5 -40 c0 -5 -9
-10 -20 -10 -11 0 -20 5 -20 10 0 6 9 10 20 10 11 0 20 -4 20 -10z"/>
<path d="M210 1982 c0 -5 9 -17 20 -27 26 -23 52 -6 30 20 -13 16 -50 21 -50
7z"/>
<path d="M200 1922 c0 -12 44 -52 58 -52 23 0 12 40 -14 50 -31 12 -44 13 -44
2z"/>
</g>
</svg>
