<?xml version="1.0" standalone="no"?>
<!DOCTYPE svg PUBLIC "-//W3C//DTD SVG 20010904//EN"
 "http://www.w3.org/TR/2001/REC-SVG-20010904/DTD/svg10.dtd">
<svg version="1.0" xmlns="http://www.w3.org/2000/svg"
 width="50.000000pt" height="725.000000pt" viewBox="0 0 50.000000 725.000000"
 preserveAspectRatio="xMidYMid meet">
<metadata>
Created by potrace 1.16, written by Peter Selinger 2001-2019
</metadata>
<g transform="translate(0.000000,725.000000) scale(0.100000,-0.100000)"
fill="#000000" stroke="none">
<path d="M220 7162 c0 -22 13 -42 27 -42 21 0 12 44 -9 48 -10 2 -18 -1 -18
-6z"/>
<path d="M220 6712 c0 -22 13 -42 27 -42 21 0 12 44 -9 48 -10 2 -18 -1 -18
-6z"/>
<path d="M112 6665 c-16 -35 -15 -55 2 -55 16 0 26 21 26 56 0 31 -14 31 -28
-1z"/>
<path d="M222 6252 c5 -17 0 -21 -31 -25 -20 -2 -40 0 -46 4 -5 5 -12 9 -15 9
-9 0 -30 -47 -30 -65 0 -22 28 -18 35 4 6 19 43 31 97 31 26 0 29 3 26 27 -2
18 -10 29 -22 31 -15 3 -18 0 -14 -16z"/>
<path d="M270 6230 c0 -5 14 -10 30 -10 21 0 30 -5 30 -16 0 -13 6 -15 27 -9
36 9 38 12 23 30 -14 17 -110 22 -110 5z"/>
<path d="M222 5802 c5 -17 0 -21 -31 -25 -20 -2 -40 0 -46 4 -5 5 -12 9 -15 9
-9 0 -30 -47 -30 -65 0 -22 28 -18 35 5 3 11 11 20 16 20 16 0 10 -17 -17 -50
-37 -43 -21 -51 22 -9 22 21 33 41 30 51 -3 15 3 18 36 18 37 0 39 2 36 27 -2
18 -10 29 -22 31 -15 3 -18 0 -14 -16z"/>
<path d="M270 5780 c0 -5 14 -10 30 -10 21 0 30 -5 30 -16 0 -13 6 -15 27 -9
36 9 38 12 23 30 -14 17 -110 22 -110 5z"/>
<path d="M222 5352 c5 -17 0 -21 -31 -25 -20 -2 -40 0 -46 4 -5 5 -12 9 -15 9
-9 0 -30 -47 -30 -65 0 -22 28 -18 35 5 3 11 11 20 16 20 16 0 10 -17 -17 -50
-31 -36 -24 -53 9 -22 13 12 29 22 36 22 9 0 12 10 9 30 -4 29 -3 30 34 30 37
0 39 2 36 27 -2 18 -10 29 -22 31 -15 3 -18 0 -14 -16z"/>
<path d="M270 5330 c0 -5 14 -10 30 -10 21 0 30 -5 30 -16 0 -13 6 -15 27 -9
36 9 38 12 23 30 -14 17 -110 22 -110 5z"/>
<path d="M196 5250 c-3 -18 -27 -52 -56 -81 -57 -57 -59 -72 -5 -39 50 31 122
129 104 141 -25 15 -36 10 -43 -21z"/>
<path d="M222 4902 c5 -17 0 -21 -31 -25 -20 -2 -40 0 -46 4 -5 5 -12 9 -15 9
-9 0 -30 -47 -30 -65 0 -22 28 -18 35 5 3 11 11 20 16 20 16 0 10 -17 -17 -50
-27 -31 -27 -53 -1 -31 11 9 17 8 28 -5 12 -15 8 -21 -30 -55 -51 -45 -49 -61
4 -29 50 31 122 129 104 141 -23 14 -39 10 -39 -10 0 -25 -12 -32 -30 -20 -12
7 -12 9 4 9 15 0 17 6 14 30 -4 29 -3 30 34 30 37 0 39 2 36 27 -2 18 -10 29
-22 31 -15 3 -18 0 -14 -16z"/>
<path d="M270 4880 c0 -5 14 -10 30 -10 21 0 30 -5 30 -16 0 -13 6 -15 27 -9
36 9 38 12 23 30 -14 17 -110 22 -110 5z"/>
<path d="M222 4452 c5 -17 0 -21 -31 -25 -20 -2 -40 0 -46 4 -5 5 -12 9 -15 9
-9 0 -30 -47 -30 -65 0 -22 28 -18 35 5 3 11 11 20 16 20 16 0 10 -17 -17 -50
-27 -31 -27 -53 -1 -31 11 9 17 8 28 -5 12 -15 8 -21 -30 -55 -51 -45 -49 -61
4 -29 50 31 122 129 104 141 -23 14 -39 10 -39 -10 0 -25 -12 -32 -30 -20 -12
7 -12 9 4 9 15 0 17 6 14 30 -4 29 -3 30 34 30 37 0 39 2 36 27 -2 18 -10 29
-22 31 -15 3 -18 0 -14 -16z"/>
<path d="M270 4430 c0 -5 14 -10 30 -10 21 0 30 -5 30 -16 0 -13 6 -15 27 -9
36 9 38 12 23 30 -14 17 -110 22 -110 5z"/>
<path d="M113 4288 c2 -7 10 -13 17 -13 7 0 15 6 18 13 2 7 -5 12 -18 12 -13
0 -20 -5 -17 -12z"/>
<path d="M222 4002 c5 -17 0 -21 -31 -25 -20 -2 -40 0 -46 4 -5 5 -12 9 -15 9
-9 0 -30 -47 -30 -65 0 -22 28 -18 35 5 3 11 11 20 16 20 16 0 10 -17 -17 -50
-27 -31 -27 -53 -1 -31 11 9 17 8 28 -5 12 -15 8 -21 -30 -55 -24 -22 -41 -42
-38 -45 12 -12 79 40 117 91 24 33 48 54 64 57 22 5 24 3 15 -14 -15 -28 -4
-33 25 -11 34 24 29 49 -9 46 -17 -1 -47 -3 -67 -4 -29 -1 -38 -6 -38 -20 0
-23 -12 -30 -30 -18 -12 7 -12 9 4 9 15 0 17 6 14 30 -4 29 -3 30 34 30 37 0
39 2 36 27 -2 18 -10 29 -22 31 -15 3 -18 0 -14 -16z"/>
<path d="M270 3980 c0 -5 14 -10 30 -10 21 0 30 -5 30 -16 0 -13 6 -15 27 -9
36 9 38 12 23 30 -14 17 -110 22 -110 5z"/>
<path d="M113 3838 c2 -7 10 -13 17 -13 7 0 15 6 18 13 2 7 -5 12 -18 12 -13
0 -20 -5 -17 -12z"/>
<path d="M222 3552 c5 -17 0 -21 -31 -25 -20 -2 -40 0 -46 4 -5 5 -12 9 -15 9
-9 0 -30 -47 -30 -65 0 -22 28 -18 35 5 3 11 11 20 16 20 16 0 10 -17 -17 -50
-27 -31 -27 -53 -1 -31 11 9 17 8 28 -5 12 -15 8 -21 -30 -55 -24 -22 -41 -42
-38 -45 12 -12 79 40 117 91 24 32 48 54 63 57 19 4 24 1 20 -9 -3 -8 -13 -11
-24 -8 -29 9 -23 -3 23 -54 54 -59 61 -63 103 -55 46 8 44 17 -7 32 -24 6 -54
21 -68 33 l-25 21 24 19 c36 29 21 53 -27 43 -20 -4 -49 -7 -64 -6 -21 1 -28
-3 -28 -18 0 -24 -12 -31 -30 -19 -12 7 -12 9 4 9 15 0 17 6 14 30 -4 29 -3
30 34 30 37 0 39 2 36 27 -2 18 -10 29 -22 31 -15 3 -18 0 -14 -16z"/>
<path d="M270 3530 c0 -5 14 -10 30 -10 21 0 30 -5 30 -16 0 -13 6 -15 27 -9
36 9 38 12 23 30 -14 17 -110 22 -110 5z"/>
<path d="M113 3388 c2 -7 10 -13 17 -13 7 0 15 6 18 13 2 7 -5 12 -18 12 -13
0 -20 -5 -17 -12z"/>
<path d="M222 3102 c5 -17 0 -21 -31 -25 -20 -2 -40 0 -46 4 -5 5 -12 9 -15 9
-9 0 -30 -47 -30 -65 0 -22 28 -18 35 5 3 11 11 20 16 20 16 0 10 -17 -17 -50
-27 -31 -27 -53 -1 -31 11 9 17 8 28 -5 12 -15 8 -21 -29 -54 -66 -59 -53 -71
19 -18 24 17 53 32 64 33 55 3 65 6 65 16 0 8 -13 9 -42 5 l-41 -7 25 33 c26
34 81 59 71 32 -3 -9 -13 -12 -24 -9 -29 9 -23 -3 23 -54 54 -59 61 -63 103
-55 46 8 44 17 -7 32 -24 6 -54 21 -68 33 l-25 21 24 19 c36 29 21 53 -27 43
-20 -4 -49 -7 -64 -6 -21 1 -28 -3 -28 -18 0 -24 -12 -31 -30 -19 -12 7 -12 9
4 9 15 0 17 6 14 30 -4 29 -3 30 34 30 37 0 39 2 36 27 -2 18 -10 29 -22 31
-15 3 -18 0 -14 -16z"/>
<path d="M270 3080 c0 -5 14 -10 30 -10 21 0 30 -5 30 -16 0 -13 6 -15 27 -9
36 9 38 12 23 30 -14 17 -110 22 -110 5z"/>
<path d="M113 2938 c2 -7 10 -13 17 -13 7 0 15 6 18 13 2 7 -5 12 -18 12 -13
0 -20 -5 -17 -12z"/>
<path d="M222 2652 c5 -17 0 -21 -31 -25 -20 -2 -40 0 -46 4 -5 5 -12 9 -15 9
-9 0 -30 -47 -30 -65 0 -22 28 -18 35 5 3 11 11 20 16 20 16 0 10 -17 -17 -50
-27 -31 -27 -53 -1 -31 11 9 17 8 28 -5 12 -15 8 -21 -29 -54 -66 -59 -53 -71
19 -18 24 17 53 32 64 33 55 3 65 6 65 16 0 8 -13 9 -42 5 l-41 -7 25 33 c26
34 81 59 71 32 -3 -9 -13 -12 -24 -9 -28 9 -23 -5 17 -46 l36 -37 -73 -8 c-93
-11 -108 -35 -17 -27 35 3 70 9 78 13 9 5 23 4 33 -1 17 -10 87 -2 87 10 0 4
-19 12 -42 19 -24 6 -54 21 -68 33 l-25 21 24 19 c36 29 21 53 -27 43 -20 -4
-49 -7 -64 -6 -21 1 -28 -3 -28 -18 0 -24 -12 -31 -30 -19 -12 7 -12 9 4 9 15
0 17 6 14 30 -4 29 -3 30 34 30 37 0 39 2 36 27 -2 18 -10 29 -22 31 -15 3
-18 0 -14 -16z"/>
<path d="M270 2630 c0 -5 14 -10 30 -10 21 0 30 -5 30 -16 0 -13 6 -15 27 -9
36 9 38 12 23 30 -14 17 -110 22 -110 5z"/>
<path d="M113 2488 c2 -7 10 -13 17 -13 7 0 15 6 18 13 2 7 -5 12 -18 12 -13
0 -20 -5 -17 -12z"/>
<path d="M222 2202 c5 -17 0 -21 -31 -25 -20 -2 -40 0 -46 4 -5 5 -12 9 -15 9
-9 0 -30 -47 -30 -65 0 -22 28 -18 35 5 3 11 11 20 16 20 16 0 10 -17 -17 -50
-27 -31 -27 -53 -1 -31 11 9 17 8 28 -5 12 -15 8 -21 -29 -54 -66 -59 -53 -71
19 -18 24 17 53 32 64 33 55 3 65 6 65 16 0 8 -13 9 -42 5 l-41 -7 25 33 c26
34 81 59 71 32 -3 -9 -13 -12 -24 -9 -28 9 -23 -5 17 -46 l36 -37 -73 -8 c-44
-6 -74 -14 -77 -22 -3 -9 5 -12 24 -10 28 3 29 2 29 -46 0 -31 5 -51 13 -53 8
-3 12 8 12 39 0 24 4 48 8 53 13 18 68 33 86 23 17 -9 86 -1 86 11 0 4 -19 12
-42 19 -24 6 -54 21 -68 33 l-25 21 24 19 c36 29 21 53 -27 43 -20 -4 -49 -7
-64 -6 -21 1 -28 -3 -28 -18 0 -24 -12 -31 -30 -19 -12 7 -12 9 4 9 15 0 17 6
14 30 -4 29 -3 30 34 30 37 0 39 2 36 27 -2 18 -10 29 -22 31 -15 3 -18 0 -14
-16z"/>
<path d="M270 2180 c0 -5 14 -10 30 -10 21 0 30 -5 30 -16 0 -13 6 -15 27 -9
36 9 38 12 23 30 -14 17 -110 22 -110 5z"/>
<path d="M113 2038 c2 -7 10 -13 17 -13 7 0 15 6 18 13 2 7 -5 12 -18 12 -13
0 -20 -5 -17 -12z"/>
<path d="M222 1752 c5 -17 0 -21 -31 -25 -20 -2 -40 0 -46 4 -5 5 -12 9 -15 9
-9 0 -30 -47 -30 -65 0 -22 28 -18 35 5 3 11 11 20 16 20 16 0 10 -17 -17 -50
-27 -31 -27 -53 -1 -31 11 9 17 8 28 -5 12 -15 8 -21 -29 -54 -66 -59 -53 -71
19 -18 24 17 53 32 64 33 55 3 65 6 65 16 0 8 -13 9 -42 5 l-41 -7 25 33 c26
34 81 59 71 32 -3 -9 -13 -12 -24 -9 -28 9 -23 -5 17 -46 l36 -37 -73 -8 c-44
-6 -74 -14 -77 -22 -3 -9 5 -12 24 -10 28 3 29 2 29 -46 0 -31 5 -51 13 -53 8
-3 12 8 12 39 0 24 4 48 8 53 13 18 68 33 86 23 17 -9 86 -1 86 11 0 4 -19 12
-42 19 -24 6 -54 21 -68 33 l-25 21 24 19 c36 29 21 53 -27 43 -20 -4 -49 -7
-64 -6 -21 1 -28 -3 -28 -18 0 -24 -12 -31 -30 -19 -12 7 -12 9 4 9 15 0 17 6
14 30 -4 29 -3 30 34 30 37 0 39 2 36 27 -2 18 -10 29 -22 31 -15 3 -18 0 -14
-16z"/>
<path d="M270 1730 c0 -5 14 -10 30 -10 21 0 30 -5 30 -16 0 -13 6 -15 27 -9
36 9 38 12 23 30 -14 17 -110 22 -110 5z"/>
<path d="M113 1588 c2 -7 10 -13 17 -13 7 0 15 6 18 13 2 7 -5 12 -18 12 -13
0 -20 -5 -17 -12z"/>
<path d="M141 1479 c-13 -17 -20 -33 -17 -36 9 -9 60 31 64 51 5 26 -21 18
-47 -15z"/>
<path d="M222 1302 c5 -17 0 -21 -31 -25 -20 -2 -40 0 -46 4 -5 5 -12 9 -15 9
-9 0 -30 -47 -30 -65 0 -22 28 -18 35 5 3 11 11 20 16 20 16 0 10 -17 -17 -50
-27 -31 -27 -53 -1 -31 11 9 17 8 28 -5 12 -15 8 -21 -29 -54 -66 -59 -53 -71
19 -18 24 17 53 32 64 33 55 3 65 6 65 16 0 8 -13 9 -42 5 l-41 -7 25 33 c26
34 81 59 71 32 -3 -9 -13 -12 -24 -9 -28 9 -23 -5 17 -46 l36 -37 -73 -8 c-44
-6 -74 -14 -77 -22 -3 -9 5 -12 24 -10 28 3 29 2 29 -46 0 -31 5 -51 13 -53 8
-3 12 8 12 39 0 24 4 48 8 53 13 18 68 33 86 23 17 -9 86 -1 86 11 0 4 -19 12
-42 19 -24 6 -54 21 -68 33 l-25 21 24 19 c36 29 21 53 -27 43 -20 -4 -49 -7
-64 -6 -21 1 -28 -3 -28 -18 0 -24 -12 -31 -30 -19 -12 7 -12 9 4 9 15 0 17 6
14 30 -4 29 -3 30 34 30 37 0 39 2 36 27 -2 18 -10 29 -22 31 -15 3 -18 0 -14
-16z"/>
<path d="M270 1280 c0 -5 14 -10 30 -10 21 0 30 -5 30 -16 0 -13 6 -15 27 -9
36 9 38 12 23 30 -14 17 -110 22 -110 5z"/>
<path d="M113 1138 c2 -7 10 -13 17 -13 7 0 15 6 18 13 2 7 -5 12 -18 12 -13
0 -20 -5 -17 -12z"/>
<path d="M141 1029 c-13 -17 -20 -33 -17 -36 9 -9 60 31 64 51 5 26 -21 18
-47 -15z"/>
<path d="M290 1048 c1 -17 35 -58 49 -58 20 0 12 38 -11 54 -27 19 -38 20 -38
4z"/>
</g>
</svg>
