<?xml version="1.0" standalone="no"?>
<!DOCTYPE svg PUBLIC "-//W3C//DTD SVG 20010904//EN"
 "http://www.w3.org/TR/2001/REC-SVG-20010904/DTD/svg10.dtd">
<svg version="1.0" xmlns="http://www.w3.org/2000/svg"
 width="50.000000pt" height="725.000000pt" viewBox="0 0 50.000000 725.000000"
 preserveAspectRatio="xMidYMid meet">
<metadata>
Created by potrace 1.16, written by Peter Selinger 2001-2019
</metadata>
<g transform="translate(0.000000,725.000000) scale(0.100000,-0.100000)"
fill="#000000" stroke="none">
<path d="M220 7174 c0 -16 23 -44 35 -44 22 0 18 28 -4 40 -22 11 -31 13 -31
4z"/>
<path d="M220 6724 c0 -16 23 -44 35 -44 22 0 18 28 -4 40 -22 11 -31 13 -31
4z"/>
<path d="M123 6663 c-17 -35 -16 -53 1 -53 16 0 26 21 26 56 0 32 -12 30 -27
-3z"/>
<path d="M220 6275 c0 -2 5 -16 12 -30 10 -22 17 -25 64 -25 46 0 52 -2 47
-17 -5 -13 -2 -15 18 -10 13 4 27 7 32 7 14 0 7 29 -9 38 -9 5 -36 7 -59 4
-34 -3 -47 0 -64 17 -19 19 -41 28 -41 16z"/>
<path d="M123 6213 c-17 -36 -16 -53 2 -53 8 0 17 11 21 25 5 21 12 25 45 25
21 0 39 5 39 10 0 6 -15 10 -34 10 -19 0 -40 2 -48 5 -7 3 -18 -6 -25 -22z"/>
<path d="M220 5825 c0 -2 5 -16 12 -30 10 -22 17 -25 64 -25 46 0 52 -2 47
-17 -5 -13 -2 -15 18 -10 13 4 27 7 32 7 14 0 7 29 -9 38 -9 5 -36 7 -59 4
-34 -3 -47 0 -64 17 -19 19 -41 28 -41 16z"/>
<path d="M123 5763 c-17 -36 -16 -53 2 -53 8 0 17 11 21 25 5 21 12 25 45 25
21 0 39 5 39 10 0 6 -15 10 -34 10 -19 0 -40 2 -48 5 -7 3 -18 -6 -25 -22z"/>
<path d="M160 5746 c0 -1 5 -17 11 -35 11 -31 29 -43 29 -18 0 29 -13 57 -26
57 -8 0 -14 -2 -14 -4z"/>
<path d="M220 5375 c0 -2 5 -16 12 -30 10 -22 17 -25 66 -25 31 0 52 -3 48 -7
-4 -4 -25 -6 -46 -4 -24 1 -40 -2 -40 -8 0 -6 9 -11 20 -11 17 0 19 -5 14 -25
-8 -32 9 -32 30 -1 8 13 29 27 46 31 33 7 40 29 14 43 -9 5 -36 7 -59 4 -34
-3 -47 0 -64 17 -19 19 -41 28 -41 16z"/>
<path d="M123 5313 c-17 -36 -16 -53 2 -53 8 0 17 11 21 25 5 21 12 25 45 25
21 0 39 5 39 10 0 6 -15 10 -34 10 -19 0 -40 2 -48 5 -7 3 -18 -6 -25 -22z"/>
<path d="M160 5296 c0 -1 5 -17 11 -35 13 -37 33 -42 27 -6 -4 21 -1 25 18 25
13 0 24 5 24 10 0 6 -18 10 -40 10 -22 0 -40 -2 -40 -4z"/>
<path d="M220 4925 c0 -2 5 -16 12 -30 10 -22 17 -25 66 -25 31 0 52 -3 48 -7
-4 -4 -25 -6 -46 -4 -24 1 -40 -2 -40 -8 0 -6 9 -11 20 -11 17 0 19 -5 14 -25
-8 -32 9 -32 30 -1 8 13 29 27 46 31 33 7 40 29 14 43 -9 5 -36 7 -59 4 -34
-3 -47 0 -64 17 -19 19 -41 28 -41 16z"/>
<path d="M123 4863 c-17 -36 -16 -53 2 -53 8 0 17 11 21 25 5 21 12 25 45 25
21 0 39 5 39 10 0 6 -15 10 -34 10 -19 0 -40 2 -48 5 -7 3 -18 -6 -25 -22z"/>
<path d="M160 4846 c0 -1 5 -17 11 -35 13 -37 33 -42 27 -6 -6 27 9 35 18 10
9 -24 24 -17 24 10 0 23 -4 25 -40 25 -22 0 -40 -2 -40 -4z"/>
<path d="M220 4475 c0 -2 5 -16 12 -30 10 -22 17 -25 66 -25 64 0 63 -13 -1
-14 -38 -1 -42 -3 -45 -28 -4 -32 14 -38 23 -8 9 29 27 25 19 -5 -8 -32 9 -32
30 -1 8 13 29 27 46 31 33 7 40 29 14 43 -9 5 -36 7 -59 4 -34 -3 -47 0 -64
17 -19 19 -41 28 -41 16z"/>
<path d="M123 4413 c-17 -36 -16 -53 2 -53 8 0 17 11 21 25 5 21 12 25 45 25
21 0 39 5 39 10 0 6 -15 10 -34 10 -19 0 -40 2 -48 5 -7 3 -18 -6 -25 -22z"/>
<path d="M160 4396 c0 -1 5 -17 11 -35 13 -37 33 -42 27 -6 -6 27 9 35 18 10
9 -24 24 -17 24 10 0 23 -4 25 -40 25 -22 0 -40 -2 -40 -4z"/>
<path d="M220 4025 c0 -2 5 -16 12 -30 10 -22 17 -25 66 -25 64 0 63 -13 0
-14 -36 -1 -43 -5 -49 -26 -7 -24 -7 -24 -8 -2 -1 19 -6 22 -41 22 -22 0 -40
-2 -40 -4 0 -1 5 -17 11 -35 l11 -32 62 7 c47 5 65 11 79 29 10 13 31 26 47
30 17 4 30 13 30 20 0 22 -29 33 -75 27 -34 -3 -47 0 -64 17 -19 19 -41 28
-41 16z m78 -97 c-2 -6 -10 -14 -16 -16 -7 -2 -10 2 -6 12 7 18 28 22 22 4z
m-80 -16 c6 -18 -15 -14 -22 4 -4 10 -1 14 6 12 6 -2 14 -10 16 -16z"/>
<path d="M123 3963 c-17 -36 -16 -53 2 -53 8 0 17 11 21 25 5 21 12 25 45 25
21 0 39 5 39 10 0 6 -15 10 -34 10 -19 0 -40 2 -48 5 -7 3 -18 -6 -25 -22z"/>
<path d="M220 3575 c0 -2 5 -16 12 -30 10 -22 17 -25 66 -25 64 0 63 -13 0
-14 -36 -1 -43 -5 -49 -26 -7 -24 -7 -24 -8 -2 -1 19 -6 22 -41 22 -22 0 -40
-2 -40 -4 0 -1 5 -17 11 -35 l11 -32 62 7 c47 5 65 11 79 29 10 13 31 26 47
30 17 4 30 13 30 20 0 22 -29 33 -75 27 -34 -3 -47 0 -64 17 -19 19 -41 28
-41 16z m78 -97 c-2 -6 -10 -14 -16 -16 -7 -2 -10 2 -6 12 7 18 28 22 22 4z
m-80 -16 c6 -18 -15 -14 -22 4 -4 10 -1 14 6 12 6 -2 14 -10 16 -16z"/>
<path d="M123 3513 c-17 -36 -16 -53 2 -53 8 0 17 11 21 25 5 21 12 25 45 25
21 0 39 5 39 10 0 6 -15 10 -34 10 -19 0 -40 2 -48 5 -7 3 -18 -6 -25 -22z"/>
<path d="M233 3426 c-56 -6 -105 -15 -109 -19 -16 -16 7 -18 81 -8 42 6 99 11
126 11 48 0 65 12 33 24 -9 3 -19 5 -22 5 -4 -1 -53 -7 -109 -13z"/>
<path d="M220 3125 c0 -2 5 -16 12 -30 10 -22 17 -25 66 -25 64 0 63 -13 0
-14 -36 -1 -43 -5 -49 -26 -7 -24 -7 -24 -8 -2 -1 19 -6 22 -41 22 -22 0 -40
-2 -40 -4 0 -1 5 -17 11 -35 l11 -32 62 7 c47 5 65 11 79 29 10 13 31 26 47
30 17 4 30 13 30 20 0 22 -29 33 -75 27 -34 -3 -47 0 -64 17 -19 19 -41 28
-41 16z m78 -97 c-2 -6 -10 -14 -16 -16 -7 -2 -10 2 -6 12 7 18 28 22 22 4z
m-80 -16 c6 -18 -15 -14 -22 4 -4 10 -1 14 6 12 6 -2 14 -10 16 -16z"/>
<path d="M123 3063 c-17 -36 -16 -53 2 -53 8 0 17 11 21 25 5 21 12 25 45 25
21 0 39 5 39 10 0 6 -15 10 -34 10 -19 0 -40 2 -48 5 -7 3 -18 -6 -25 -22z"/>
<path d="M233 2976 c-56 -6 -105 -15 -109 -19 -16 -16 7 -18 81 -8 42 6 99 11
126 11 48 0 65 12 33 24 -9 3 -19 5 -22 5 -4 -1 -53 -7 -109 -13z"/>
<path d="M174 2924 c3 -9 6 -20 6 -25 0 -5 5 -9 10 -9 6 0 10 11 10 25 0 16
-6 25 -16 25 -11 0 -14 -5 -10 -16z"/>
<path d="M220 2675 c0 -2 5 -16 12 -30 10 -22 17 -25 66 -25 64 0 63 -13 0
-14 -36 -1 -43 -5 -49 -26 -7 -24 -7 -24 -8 -2 -1 19 -6 22 -41 22 -22 0 -40
-2 -40 -4 0 -1 5 -17 11 -35 l11 -32 62 7 c47 5 65 11 79 29 10 13 31 26 47
30 17 4 30 13 30 20 0 22 -29 33 -75 27 -34 -3 -47 0 -64 17 -19 19 -41 28
-41 16z m78 -97 c-2 -6 -10 -14 -16 -16 -7 -2 -10 2 -6 12 7 18 28 22 22 4z
m-80 -16 c6 -18 -15 -14 -22 4 -4 10 -1 14 6 12 6 -2 14 -10 16 -16z"/>
<path d="M123 2613 c-17 -36 -16 -53 2 -53 8 0 17 11 21 25 5 21 12 25 45 25
21 0 39 5 39 10 0 6 -15 10 -34 10 -19 0 -40 2 -48 5 -7 3 -18 -6 -25 -22z"/>
<path d="M230 2525 c-122 -15 -110 -12 -110 -26 0 -7 18 -8 55 -4 38 5 55 4
55 -4 0 -6 11 -11 25 -11 16 0 25 -6 25 -15 0 -18 12 -19 28 -3 22 22 13 37
-25 41 -23 2 -12 4 30 5 37 1 67 6 67 11 0 9 -26 22 -38 20 -4 -1 -54 -7 -112
-14z"/>
<path d="M174 2474 c3 -9 6 -20 6 -25 0 -5 5 -9 10 -9 6 0 10 7 10 15 0 8 5
15 10 15 6 0 10 5 10 10 0 6 -12 10 -26 10 -20 0 -25 -4 -20 -16z"/>
<path d="M220 2225 c0 -2 5 -16 12 -30 10 -22 17 -25 66 -25 64 0 63 -13 0
-14 -36 -1 -43 -5 -49 -26 -7 -24 -7 -24 -8 -2 -1 19 -6 22 -41 22 -22 0 -40
-2 -40 -4 0 -1 5 -17 11 -35 l11 -32 62 7 c47 5 65 11 79 29 10 13 31 26 47
30 17 4 30 13 30 20 0 22 -29 33 -75 27 -34 -3 -47 0 -64 17 -19 19 -41 28
-41 16z m78 -97 c-2 -6 -10 -14 -16 -16 -7 -2 -10 2 -6 12 7 18 28 22 22 4z
m-80 -16 c6 -18 -15 -14 -22 4 -4 10 -1 14 6 12 6 -2 14 -10 16 -16z"/>
<path d="M123 2163 c-17 -36 -16 -53 2 -53 8 0 17 11 21 25 5 21 12 25 45 25
21 0 39 5 39 10 0 6 -15 10 -34 10 -19 0 -40 2 -48 5 -7 3 -18 -6 -25 -22z"/>
<path d="M230 2075 c-122 -15 -110 -12 -110 -26 0 -7 18 -8 55 -4 38 5 55 4
55 -4 0 -6 11 -11 25 -11 14 0 25 -4 25 -10 0 -5 -19 -10 -42 -9 -24 0 -37 3
-30 6 21 8 13 23 -13 23 -28 0 -28 0 -16 -33 9 -22 13 -24 63 -19 79 7 110 57
41 65 -23 2 -12 4 30 5 37 1 67 6 67 11 0 9 -26 22 -38 20 -4 -1 -54 -7 -112
-14z"/>
<path d="M220 1775 c0 -2 5 -16 12 -30 10 -22 17 -25 66 -25 64 0 63 -13 0
-14 -36 -1 -43 -5 -49 -26 -7 -24 -7 -24 -8 -2 -1 19 -6 22 -41 22 -22 0 -40
-2 -40 -4 0 -1 5 -17 11 -35 l11 -32 62 7 c47 5 65 11 79 29 10 13 31 26 47
30 17 4 30 13 30 20 0 22 -29 33 -75 27 -34 -3 -47 0 -64 17 -19 19 -41 28
-41 16z m78 -97 c-2 -6 -10 -14 -16 -16 -7 -2 -10 2 -6 12 7 18 28 22 22 4z
m-80 -16 c6 -18 -15 -14 -22 4 -4 10 -1 14 6 12 6 -2 14 -10 16 -16z"/>
<path d="M123 1713 c-17 -36 -16 -53 2 -53 8 0 17 11 21 25 5 21 12 25 45 25
21 0 39 5 39 10 0 6 -15 10 -34 10 -19 0 -40 2 -48 5 -7 3 -18 -6 -25 -22z"/>
<path d="M230 1625 c-122 -15 -110 -12 -110 -26 0 -7 18 -8 55 -4 38 5 55 4
55 -4 0 -6 11 -11 25 -11 14 0 25 -4 25 -10 0 -5 -19 -10 -42 -9 -24 0 -37 3
-30 6 21 8 13 23 -14 23 -22 0 -24 -3 -18 -22 13 -41 9 -52 -23 -72 -34 -22
-42 -36 -20 -36 20 0 97 53 97 67 0 8 13 13 31 13 31 0 58 22 59 47 0 6 -17
14 -37 16 -23 2 -12 4 30 5 37 1 67 6 67 11 0 9 -26 22 -38 20 -4 -1 -54 -7
-112 -14z"/>
<path d="M220 1325 c0 -2 5 -16 12 -30 10 -22 17 -25 66 -25 64 0 63 -13 0
-14 -36 -1 -43 -5 -49 -26 -7 -24 -7 -24 -8 -2 -1 19 -6 22 -41 22 -22 0 -40
-2 -40 -4 0 -1 5 -17 11 -35 l11 -32 62 7 c47 5 65 11 79 29 10 13 31 26 47
30 17 4 30 13 30 20 0 22 -29 33 -75 27 -34 -3 -47 0 -64 17 -19 19 -41 28
-41 16z m78 -97 c-2 -6 -10 -14 -16 -16 -7 -2 -10 2 -6 12 7 18 28 22 22 4z
m-80 -16 c6 -18 -15 -14 -22 4 -4 10 -1 14 6 12 6 -2 14 -10 16 -16z"/>
<path d="M123 1263 c-17 -36 -16 -53 2 -53 8 0 17 11 21 25 5 21 12 25 45 25
21 0 39 5 39 10 0 6 -15 10 -34 10 -19 0 -40 2 -48 5 -7 3 -18 -6 -25 -22z"/>
<path d="M230 1175 c-122 -15 -110 -12 -110 -26 0 -7 18 -8 55 -4 38 5 55 4
55 -4 0 -6 11 -11 25 -11 14 0 25 -4 25 -10 0 -5 -19 -10 -42 -9 -24 0 -37 3
-30 6 21 8 13 23 -14 23 -22 0 -24 -3 -18 -22 13 -41 9 -52 -23 -72 -52 -34
-40 -45 21 -20 17 7 18 4 13 -24 -5 -27 -3 -32 12 -32 17 0 51 29 51 44 0 4
-9 5 -19 1 -15 -5 -19 -1 -17 20 0 14 4 25 9 25 4 0 7 7 7 15 0 10 10 15 31
15 31 0 58 22 59 47 0 6 -17 14 -37 16 -23 2 -12 4 30 5 37 1 67 6 67 11 0 9
-26 22 -38 20 -4 -1 -54 -7 -112 -14z"/>
<path d="M220 875 c0 -2 5 -16 12 -30 10 -22 17 -25 66 -25 64 0 63 -13 0 -14
-36 -1 -43 -5 -49 -26 -7 -24 -7 -24 -8 -2 -1 19 -6 22 -41 22 -22 0 -40 -2
-40 -4 0 -1 5 -17 11 -35 l11 -32 62 7 c47 5 65 11 79 29 10 13 31 26 47 30
17 4 30 13 30 20 0 22 -29 33 -75 27 -34 -3 -47 0 -64 17 -19 19 -41 28 -41
16z m78 -97 c-2 -6 -10 -14 -16 -16 -7 -2 -10 2 -6 12 7 18 28 22 22 4z m-80
-16 c6 -18 -15 -14 -22 4 -4 10 -1 14 6 12 6 -2 14 -10 16 -16z"/>
<path d="M123 813 c-17 -36 -16 -53 2 -53 8 0 17 11 21 25 5 21 12 25 45 25
21 0 39 5 39 10 0 6 -15 10 -34 10 -19 0 -40 2 -48 5 -7 3 -18 -6 -25 -22z"/>
<path d="M230 725 c-122 -15 -110 -12 -110 -26 0 -7 18 -8 55 -4 38 5 55 4 55
-4 0 -6 11 -11 25 -11 14 0 25 -4 25 -10 0 -5 -19 -10 -42 -9 -24 0 -37 3 -30
6 21 8 13 23 -14 23 -22 0 -24 -3 -18 -22 13 -41 9 -52 -23 -72 -52 -34 -40
-45 21 -20 17 7 18 4 13 -24 -5 -27 -3 -32 12 -32 17 0 51 29 51 44 0 4 -9 5
-19 1 -15 -5 -19 -1 -17 20 0 14 4 25 9 25 4 0 7 7 7 15 0 10 10 15 31 15 31
0 58 22 59 47 0 6 -17 14 -37 16 -23 2 -12 4 30 5 37 1 67 6 67 11 0 9 -26 22
-38 20 -4 -1 -54 -7 -112 -14z"/>
<path d="M307 624 c-24 -32 -19 -37 21 -23 35 12 38 19 20 37 -16 16 -20 15
-41 -14z"/>
<path d="M220 425 c0 -2 5 -16 12 -30 10 -22 17 -25 66 -25 64 0 63 -13 0 -14
-36 -1 -43 -5 -49 -26 -7 -24 -7 -24 -8 -2 -1 19 -6 22 -41 22 -22 0 -40 -2
-40 -4 0 -1 5 -17 11 -35 l11 -32 62 7 c47 5 65 11 79 29 10 13 31 26 47 30
17 4 30 13 30 20 0 22 -29 33 -75 27 -34 -3 -47 0 -64 17 -19 19 -41 28 -41
16z m78 -97 c-2 -6 -10 -14 -16 -16 -7 -2 -10 2 -6 12 7 18 28 22 22 4z m-80
-16 c6 -18 -15 -14 -22 4 -4 10 -1 14 6 12 6 -2 14 -10 16 -16z"/>
<path d="M123 363 c-17 -36 -16 -53 2 -53 8 0 17 11 21 25 5 21 12 25 45 25
21 0 39 5 39 10 0 6 -15 10 -34 10 -19 0 -40 2 -48 5 -7 3 -18 -6 -25 -22z"/>
<path d="M230 275 c-122 -15 -110 -12 -110 -26 0 -7 18 -8 55 -4 38 5 55 4 55
-4 0 -6 11 -11 25 -11 14 0 25 -4 25 -10 0 -5 -19 -10 -42 -9 -24 0 -37 3 -30
6 21 8 13 23 -14 23 -22 0 -24 -3 -18 -22 13 -41 9 -52 -23 -72 -52 -34 -40
-45 21 -20 17 7 18 4 13 -24 -5 -27 -3 -32 12 -32 17 0 51 29 51 44 0 4 -9 5
-19 1 -15 -5 -19 -1 -17 20 0 14 4 25 9 25 4 0 7 7 7 15 0 10 10 15 31 15 31
0 58 22 59 47 0 6 -17 14 -37 16 -23 2 -12 4 30 5 37 1 67 6 67 11 0 9 -26 22
-38 20 -4 -1 -54 -7 -112 -14z"/>
<path d="M309 178 c-13 -18 -18 -19 -38 -9 -43 23 -35 0 14 -44 40 -37 56 -45
87 -45 52 0 48 12 -12 33 -46 16 -67 37 -37 37 6 0 18 4 26 9 12 8 12 12 2 25
-17 21 -23 20 -42 -6z"/>
</g>
</svg>
