<?xml version="1.0" standalone="no"?>
<!DOCTYPE svg PUBLIC "-//W3C//DTD SVG 20010904//EN"
 "http://www.w3.org/TR/2001/REC-SVG-20010904/DTD/svg10.dtd">
<svg version="1.0" xmlns="http://www.w3.org/2000/svg"
 width="50.000000pt" height="725.000000pt" viewBox="0 0 50.000000 725.000000"
 preserveAspectRatio="xMidYMid meet">
<metadata>
Created by potrace 1.16, written by Peter Selinger 2001-2019
</metadata>
<g transform="translate(0.000000,725.000000) scale(0.100000,-0.100000)"
fill="#000000" stroke="none">
<path d="M236 7106 c-51 -7 -81 -16 -84 -25 -4 -11 4 -13 34 -8 22 4 72 9 112
13 39 4 72 10 72 14 0 9 -27 21 -43 19 -7 -1 -48 -7 -91 -13z"/>
<path d="M234 6693 c1 -37 0 -38 -38 -43 -22 -3 -41 -11 -44 -19 -4 -11 5 -12
42 -7 45 7 46 7 46 -19 0 -33 22 -29 30 6 5 21 12 24 53 27 26 2 47 7 47 11 0
15 -31 22 -68 15 -35 -7 -35 -7 -29 24 4 22 2 32 -9 36 -28 11 -31 7 -30 -31z"/>
<path d="M234 6243 c1 -37 0 -38 -38 -43 -22 -3 -41 -11 -44 -19 -4 -11 5 -12
42 -7 42 7 46 5 46 -13 0 -17 -6 -21 -35 -21 -20 0 -35 -5 -35 -11 0 -8 18
-10 61 -5 34 3 75 6 90 6 16 0 29 5 29 10 0 6 -18 10 -41 10 -33 0 -40 3 -37
18 2 13 15 18 51 20 26 2 47 7 47 11 0 15 -31 22 -68 15 -35 -7 -35 -7 -29 24
4 22 2 32 -9 36 -28 11 -31 7 -30 -31z"/>
<path d="M234 5793 c1 -37 0 -38 -38 -43 -22 -3 -41 -11 -44 -19 -4 -11 5 -12
42 -7 42 7 46 5 46 -13 0 -17 -6 -21 -35 -21 -20 0 -35 -5 -35 -11 0 -8 18
-10 61 -5 34 3 75 6 90 6 16 0 29 5 29 10 0 6 -18 10 -41 10 -33 0 -40 3 -37
18 2 13 15 18 51 20 26 2 47 7 47 11 0 15 -31 22 -68 15 -35 -7 -35 -7 -29 24
4 22 2 32 -9 36 -28 11 -31 7 -30 -31z"/>
<path d="M233 5637 c-116 -8 -143 -12 -143 -25 0 -12 10 -14 53 -8 28 3 105 9
170 13 64 3 117 9 117 13 0 9 -27 21 -43 18 -7 -1 -76 -6 -154 -11z"/>
<path d="M234 5343 c1 -37 0 -38 -38 -43 -22 -3 -41 -11 -44 -19 -4 -11 5 -12
42 -7 42 7 46 5 46 -13 0 -17 -6 -21 -35 -21 -20 0 -35 -5 -35 -11 0 -8 17
-10 55 -6 48 5 55 3 55 -12 0 -21 -41 -31 -132 -31 -46 0 -58 -3 -58 -16 0
-13 12 -14 88 -8 48 3 91 7 96 8 14 2 19 -30 11 -70 -4 -25 -11 -34 -25 -34
-25 0 -25 -12 -2 -33 40 -36 52 -17 52 79 l0 64 60 0 c33 0 60 4 60 9 0 15
-28 21 -73 15 -39 -6 -43 -4 -43 15 0 13 7 21 18 21 10 0 18 5 18 10 0 6 -18
10 -41 10 -33 0 -40 3 -37 18 2 13 15 18 51 20 26 2 47 7 47 11 0 15 -31 22
-68 15 -35 -7 -35 -7 -29 24 4 22 2 32 -9 36 -28 11 -31 7 -30 -31z"/>
<path d="M234 4893 c1 -37 0 -38 -38 -43 -22 -3 -41 -11 -44 -19 -4 -11 5 -12
42 -7 42 7 46 5 46 -13 0 -17 -6 -21 -35 -21 -20 0 -35 -5 -35 -11 0 -8 17
-10 55 -6 48 5 55 3 55 -12 0 -21 -41 -31 -132 -31 -46 0 -58 -3 -58 -16 0
-13 12 -14 88 -8 48 3 91 7 96 8 14 2 19 -30 11 -70 -4 -25 -11 -34 -25 -34
-25 0 -25 -12 -2 -33 40 -36 52 -17 52 79 l0 64 60 0 c33 0 60 4 60 9 0 15
-28 21 -73 15 -39 -6 -43 -4 -43 15 0 13 7 21 18 21 10 0 18 5 18 10 0 6 -18
10 -41 10 -33 0 -40 3 -37 18 2 13 15 18 51 20 26 2 47 7 47 11 0 15 -31 22
-68 15 -35 -7 -35 -7 -29 24 4 22 2 32 -9 36 -28 11 -31 7 -30 -31z"/>
<path d="M170 4694 c0 -16 23 -44 35 -44 20 0 19 36 -1 44 -20 8 -34 8 -34 0z"/>
</g>
</svg>
