<?xml version="1.0" standalone="no"?>
<!DOCTYPE svg PUBLIC "-//W3C//DTD SVG 20010904//EN"
 "http://www.w3.org/TR/2001/REC-SVG-20010904/DTD/svg10.dtd">
<svg version="1.0" xmlns="http://www.w3.org/2000/svg"
 width="50.000000pt" height="725.000000pt" viewBox="0 0 50.000000 725.000000"
 preserveAspectRatio="xMidYMid meet">
<metadata>
Created by potrace 1.16, written by Peter Selinger 2001-2019
</metadata>
<g transform="translate(0.000000,725.000000) scale(0.100000,-0.100000)"
fill="#000000" stroke="none">
<path d="M130 7145 c0 -24 24 -105 31 -105 10 0 11 20 3 73 -4 22 -12 37 -20
37 -8 0 -14 -2 -14 -5z"/>
<path d="M163 6703 c-18 -2 -33 -6 -33 -8 0 -2 5 -27 11 -55 13 -63 34 -68 26
-6 -6 39 -4 44 16 50 36 9 36 8 30 -44 -4 -34 -2 -50 5 -50 13 0 23 33 25 82
2 36 -9 40 -80 31z"/>
<path d="M163 6253 c-18 -2 -33 -6 -33 -8 0 -2 5 -27 11 -55 11 -52 29 -68 29
-25 0 18 5 25 20 25 15 0 20 -7 20 -25 0 -14 4 -25 10 -25 11 0 21 35 23 82 2
36 -9 40 -80 31z m55 -25 c-5 -15 -58 -24 -58 -9 0 9 20 17 48 20 8 0 12 -5
10 -11z"/>
<path d="M163 5803 c-18 -2 -33 -6 -33 -8 0 -2 5 -26 10 -52 11 -48 11 -48 51
-48 43 0 49 9 52 77 2 36 -9 40 -80 31z m55 -25 c-5 -15 -58 -24 -58 -9 0 9
20 17 48 20 8 0 12 -5 10 -11z m-8 -48 c0 -5 -9 -10 -20 -10 -11 0 -20 5 -20
10 0 6 9 10 20 10 11 0 20 -4 20 -10z"/>
<path d="M163 5353 c-18 -2 -33 -6 -33 -8 0 -2 5 -26 10 -52 11 -48 11 -48 51
-48 43 0 49 9 52 77 2 36 -9 40 -80 31z m55 -25 c-5 -15 -58 -24 -58 -9 0 9
20 17 48 20 8 0 12 -5 10 -11z m-8 -48 c0 -5 -9 -10 -20 -10 -11 0 -20 5 -20
10 0 6 9 10 20 10 11 0 20 -4 20 -10z"/>
<path d="M133 5221 c-42 -7 -61 -16 -51 -26 7 -8 168 18 168 27 0 9 -56 9
-117 -1z"/>
<path d="M163 4903 c-18 -2 -33 -6 -33 -8 0 -2 5 -26 10 -52 11 -48 11 -48 51
-48 43 0 49 9 52 77 2 36 -9 40 -80 31z m55 -25 c-5 -15 -58 -24 -58 -9 0 9
20 17 48 20 8 0 12 -5 10 -11z m-8 -48 c0 -5 -9 -10 -20 -10 -11 0 -20 5 -20
10 0 6 9 10 20 10 11 0 20 -4 20 -10z"/>
<path d="M150 4773 c-53 -8 -70 -14 -70 -24 0 -6 18 -7 49 -3 l50 6 3 -43 c5
-63 28 -64 28 0 0 44 3 51 20 51 11 0 20 5 20 10 0 10 -49 11 -100 3z"/>
<path d="M163 4453 c-18 -2 -33 -6 -33 -8 0 -2 5 -26 10 -52 11 -48 11 -48 51
-48 43 0 49 9 52 77 2 36 -9 40 -80 31z m55 -25 c-5 -15 -58 -24 -58 -9 0 9
20 17 48 20 8 0 12 -5 10 -11z m-8 -48 c0 -5 -9 -10 -20 -10 -11 0 -20 5 -20
10 0 6 9 10 20 10 11 0 20 -4 20 -10z"/>
<path d="M150 4323 c-53 -8 -70 -14 -70 -24 0 -6 18 -7 49 -3 l50 6 3 -43 c3
-46 28 -69 28 -25 0 21 5 26 25 26 14 0 25 5 25 10 0 6 -11 10 -25 10 -16 0
-25 6 -25 15 0 8 9 15 20 15 11 0 20 5 20 10 0 10 -49 11 -100 3z"/>
<path d="M163 4003 c-18 -2 -33 -6 -33 -8 0 -2 5 -26 10 -52 11 -48 11 -48 51
-48 43 0 49 9 52 77 2 36 -9 40 -80 31z m55 -25 c-5 -15 -58 -24 -58 -9 0 9
20 17 48 20 8 0 12 -5 10 -11z m-8 -48 c0 -5 -9 -10 -20 -10 -11 0 -20 5 -20
10 0 6 9 10 20 10 11 0 20 -4 20 -10z"/>
<path d="M150 3873 c-53 -8 -70 -14 -70 -24 0 -6 18 -7 49 -3 l50 6 3 -43 c3
-46 28 -69 28 -25 0 21 5 26 25 26 14 0 25 5 25 10 0 6 -11 10 -25 10 -16 0
-25 6 -25 15 0 8 9 15 20 15 11 0 20 5 20 10 0 10 -49 11 -100 3z"/>
<path d="M130 3827 c0 -8 -11 -36 -25 -62 -27 -55 -25 -67 6 -39 40 35 63 114
34 114 -8 0 -15 -6 -15 -13z"/>
<path d="M163 3553 c-18 -2 -33 -6 -33 -8 0 -2 5 -26 10 -52 11 -48 11 -48 51
-48 43 0 49 9 52 77 2 36 -9 40 -80 31z m55 -25 c-5 -15 -58 -24 -58 -9 0 9
20 17 48 20 8 0 12 -5 10 -11z m-8 -48 c0 -5 -9 -10 -20 -10 -11 0 -20 5 -20
10 0 6 9 10 20 10 11 0 20 -4 20 -10z"/>
<path d="M150 3423 c-53 -8 -70 -14 -70 -24 0 -6 18 -7 50 -3 l50 7 0 -32 c0
-17 -4 -31 -10 -31 -5 0 -10 11 -10 25 0 16 -6 25 -15 25 -8 0 -15 -6 -15 -13
0 -8 -11 -36 -25 -62 -30 -60 -23 -71 16 -27 16 17 31 32 34 32 2 0 41 -20 86
-45 84 -47 114 -53 168 -34 48 17 37 26 -37 31 -84 6 -162 38 -162 67 0 16 6
21 25 21 14 0 25 5 25 10 0 6 -11 10 -25 10 -16 0 -25 6 -25 15 0 8 9 15 20
15 11 0 20 5 20 10 0 10 -49 11 -100 3z"/>
<path d="M163 3103 c-18 -2 -33 -6 -33 -8 0 -2 5 -26 10 -52 11 -48 11 -48 51
-48 43 0 49 9 52 77 2 36 -9 40 -80 31z m55 -25 c-5 -15 -58 -24 -58 -9 0 9
20 17 48 20 8 0 12 -5 10 -11z m-8 -48 c0 -5 -9 -10 -20 -10 -11 0 -20 5 -20
10 0 6 9 10 20 10 11 0 20 -4 20 -10z"/>
<path d="M320 3015 c0 -92 13 -114 24 -39 11 81 8 124 -9 124 -12 0 -15 -16
-15 -85z"/>
<path d="M150 2973 c-53 -8 -70 -14 -70 -24 0 -6 18 -7 50 -3 l50 7 0 -32 c0
-17 -4 -31 -10 -31 -5 0 -10 11 -10 25 0 16 -6 25 -15 25 -8 0 -15 -6 -15 -13
0 -8 -11 -36 -25 -62 -30 -60 -23 -71 16 -27 16 17 31 32 34 32 2 0 41 -20 86
-45 84 -47 114 -53 168 -34 48 17 37 26 -37 31 -84 6 -162 38 -162 67 0 16 6
21 25 21 14 0 25 5 25 10 0 6 -11 10 -25 10 -16 0 -25 6 -25 15 0 8 9 15 20
15 11 0 20 5 20 10 0 10 -49 11 -100 3z"/>
<path d="M163 2653 c-18 -2 -33 -6 -33 -8 0 -2 5 -26 10 -52 11 -48 11 -48 51
-48 43 0 49 9 52 77 2 36 -9 40 -80 31z m55 -25 c-5 -15 -58 -24 -58 -9 0 9
20 17 48 20 8 0 12 -5 10 -11z m-8 -48 c0 -5 -9 -10 -20 -10 -11 0 -20 5 -20
10 0 6 9 10 20 10 11 0 20 -4 20 -10z"/>
<path d="M320 2565 c0 -92 13 -114 24 -39 11 81 8 124 -9 124 -12 0 -15 -16
-15 -85z"/>
<path d="M267 2553 c-3 -16 -3 -30 -1 -32 8 -8 34 22 34 40 0 29 -27 22 -33
-8z"/>
<path d="M150 2523 c-53 -8 -70 -14 -70 -24 0 -6 18 -7 50 -3 l50 7 0 -32 c0
-17 -4 -31 -10 -31 -5 0 -10 11 -10 25 0 16 -6 25 -15 25 -8 0 -15 -6 -15 -13
0 -8 -11 -36 -25 -62 -30 -60 -23 -71 16 -27 16 17 31 32 34 32 2 0 41 -20 86
-45 84 -47 114 -53 168 -34 48 17 37 26 -37 31 -84 6 -162 38 -162 67 0 16 6
21 25 21 14 0 25 5 25 10 0 6 -11 10 -25 10 -16 0 -25 6 -25 15 0 8 9 15 20
15 11 0 20 5 20 10 0 10 -49 11 -100 3z"/>
<path d="M163 2203 c-18 -2 -33 -6 -33 -8 0 -2 5 -26 10 -52 11 -48 11 -48 51
-48 43 0 49 9 52 77 2 36 -9 40 -80 31z m55 -25 c-5 -15 -58 -24 -58 -9 0 9
20 17 48 20 8 0 12 -5 10 -11z m-8 -48 c0 -5 -9 -10 -20 -10 -11 0 -20 5 -20
10 0 6 9 10 20 10 11 0 20 -4 20 -10z"/>
<path d="M320 2115 c0 -92 13 -114 24 -39 11 81 8 124 -9 124 -12 0 -15 -16
-15 -85z"/>
<path d="M370 2132 c0 -16 32 -52 46 -52 24 0 16 36 -11 48 -31 14 -35 15 -35
4z"/>
<path d="M267 2103 c-3 -16 -3 -30 -1 -32 8 -8 34 22 34 40 0 29 -27 22 -33
-8z"/>
<path d="M150 2073 c-53 -8 -70 -14 -70 -24 0 -6 18 -7 50 -3 l50 7 0 -32 c0
-17 -4 -31 -10 -31 -5 0 -10 11 -10 25 0 16 -6 25 -15 25 -8 0 -15 -6 -15 -13
0 -8 -11 -36 -25 -62 -30 -60 -23 -71 16 -27 16 17 31 32 34 32 2 0 41 -20 86
-45 84 -47 114 -53 168 -34 48 17 37 26 -37 31 -84 6 -162 38 -162 67 0 16 6
21 25 21 14 0 25 5 25 10 0 6 -11 10 -25 10 -16 0 -25 6 -25 15 0 8 9 15 20
15 11 0 20 5 20 10 0 10 -49 11 -100 3z"/>
<path d="M163 1753 c-18 -2 -33 -6 -33 -8 0 -2 5 -26 10 -52 11 -48 11 -48 51
-48 43 0 49 9 52 77 2 36 -9 40 -80 31z m55 -25 c-5 -15 -58 -24 -58 -9 0 9
20 17 48 20 8 0 12 -5 10 -11z m-8 -48 c0 -5 -9 -10 -20 -10 -11 0 -20 5 -20
10 0 6 9 10 20 10 11 0 20 -4 20 -10z"/>
<path d="M321 1654 c3 -96 3 -97 -26 -120 -34 -27 -26 -44 11 -23 38 20 97 96
90 114 -6 16 -26 21 -26 7 0 -5 -7 -17 -15 -28 -13 -17 -14 -10 -8 64 5 73 4
82 -11 82 -16 0 -17 -11 -15 -96z"/>
<path d="M370 1682 c0 -16 32 -52 46 -52 24 0 16 36 -11 48 -31 14 -35 15 -35
4z"/>
<path d="M267 1653 c-3 -16 -3 -30 -1 -32 8 -8 34 22 34 40 0 29 -27 22 -33
-8z"/>
<path d="M150 1623 c-53 -8 -70 -14 -70 -24 0 -6 18 -7 50 -3 l50 7 0 -32 c0
-17 -4 -31 -10 -31 -5 0 -10 11 -10 25 0 16 -6 25 -15 25 -8 0 -15 -6 -15 -13
0 -8 -11 -36 -25 -62 -30 -60 -23 -71 16 -27 16 17 31 32 34 32 2 0 41 -20 86
-45 84 -47 114 -53 168 -34 48 17 37 26 -37 31 -84 6 -162 38 -162 67 0 16 6
21 25 21 14 0 25 5 25 10 0 6 -11 10 -25 10 -16 0 -25 6 -25 15 0 8 9 15 20
15 11 0 20 5 20 10 0 10 -49 11 -100 3z"/>
</g>
</svg>
