<?xml version="1.0" standalone="no"?>
<!DOCTYPE svg PUBLIC "-//W3C//DTD SVG 20010904//EN"
 "http://www.w3.org/TR/2001/REC-SVG-20010904/DTD/svg10.dtd">
<svg version="1.0" xmlns="http://www.w3.org/2000/svg"
 width="50.000000pt" height="725.000000pt" viewBox="0 0 50.000000 725.000000"
 preserveAspectRatio="xMidYMid meet">
<metadata>
Created by potrace 1.16, written by Peter Selinger 2001-2019
</metadata>
<g transform="translate(0.000000,725.000000) scale(0.100000,-0.100000)"
fill="#000000" stroke="none">
<path d="M265 7130 c-11 -5 -35 -9 -52 -9 -18 -1 -33 -6 -33 -12 0 -8 17 -10
55 -5 l55 6 -6 -40 c-9 -55 10 -52 37 6 19 38 20 47 8 55 -17 11 -37 10 -64
-1z"/>
<path d="M265 6680 c-11 -5 -35 -9 -52 -9 -18 -1 -33 -6 -33 -12 0 -8 17 -10
56 -5 l56 6 -7 -27 c-9 -36 -6 -34 -60 -40 -60 -7 -58 -23 4 -23 55 0 81 7 81
22 0 6 7 26 17 45 14 30 14 36 2 44 -17 11 -37 10 -64 -1z"/>
<path d="M265 6230 c-11 -5 -39 -9 -62 -9 l-43 -1 0 -62 c0 -64 -24 -133 -57
-170 -28 -31 -4 -33 27 -3 19 18 37 51 46 82 l15 53 44 0 c49 0 75 8 75 22 0
6 7 26 17 45 14 30 14 36 2 44 -17 11 -37 10 -64 -1z m20 -47 c-9 -35 -6 -34
-55 -40 -41 -6 -42 -5 -38 23 2 23 9 30 33 35 62 13 68 11 60 -18z"/>
<path d="M265 5780 c-11 -5 -39 -9 -62 -9 l-43 -1 0 -62 c0 -64 -24 -133 -57
-170 -28 -31 -4 -33 28 -2 17 16 36 48 42 72 6 23 14 42 18 42 4 0 18 -15 32
-32 14 -18 43 -52 65 -75 36 -39 44 -43 86 -43 63 0 59 18 -12 52 -31 15 -79
48 -107 73 l-50 44 37 1 c43 0 68 8 68 22 0 6 7 26 17 45 14 30 14 36 2 44
-17 11 -37 10 -64 -1z m20 -47 c-9 -35 -6 -34 -55 -40 -41 -6 -42 -5 -38 23 2
23 9 30 33 35 62 13 68 11 60 -18z"/>
</g>
</svg>
