<?xml version="1.0" standalone="no"?>
<!DOCTYPE svg PUBLIC "-//W3C//DTD SVG 20010904//EN"
 "http://www.w3.org/TR/2001/REC-SVG-20010904/DTD/svg10.dtd">
<svg version="1.0" xmlns="http://www.w3.org/2000/svg"
 width="50.000000pt" height="725.000000pt" viewBox="0 0 50.000000 725.000000"
 preserveAspectRatio="xMidYMid meet">
<metadata>
Created by potrace 1.16, written by Peter Selinger 2001-2019
</metadata>
<g transform="translate(0.000000,725.000000) scale(0.100000,-0.100000)"
fill="#000000" stroke="none">
<path d="M280 7140 c0 -5 11 -10 25 -10 21 0 25 -5 25 -30 0 -16 4 -30 10 -30
13 0 42 58 35 70 -8 13 -95 13 -95 0z"/>
<path d="M220 7130 c0 -5 11 -10 25 -10 14 0 25 5 25 10 0 6 -11 10 -25 10
-14 0 -25 -4 -25 -10z"/>
<path d="M280 6690 c0 -5 11 -10 25 -10 18 0 25 -5 25 -19 0 -20 -5 -21 -92
-36 -21 -3 -38 -11 -38 -17 0 -7 13 -8 38 -4 20 3 53 6 73 6 31 0 38 5 52 36
10 19 15 40 12 45 -8 12 -95 12 -95 -1z"/>
<path d="M220 6680 c0 -5 11 -10 25 -10 14 0 25 5 25 10 0 6 -11 10 -25 10
-14 0 -25 -4 -25 -10z"/>
<path d="M280 6240 c0 -5 11 -10 25 -10 18 0 25 -5 25 -20 0 -14 -9 -21 -37
-25 -21 -3 -46 -8 -56 -10 -14 -3 -17 2 -15 18 2 14 11 23 26 25 39 6 24 22
-20 22 l-43 0 -1 -53 c0 -56 -31 -137 -66 -174 -12 -13 -18 -26 -14 -30 14
-14 85 74 97 120 12 49 28 57 108 57 33 0 39 4 54 36 10 19 15 40 12 45 -8 12
-95 12 -95 -1z"/>
<path d="M280 5790 c0 -5 11 -10 25 -10 18 0 25 -5 25 -20 0 -14 -9 -21 -37
-25 -21 -3 -46 -8 -56 -10 -14 -3 -17 2 -15 18 2 14 11 23 26 25 39 6 24 22
-20 22 l-43 0 -1 -53 c0 -56 -31 -137 -66 -174 -12 -13 -18 -26 -14 -30 14
-14 85 74 97 120 12 49 28 57 108 57 33 0 39 4 54 36 10 19 15 40 12 45 -8 12
-95 12 -95 -1z"/>
<path d="M289 5613 c1 -49 5 -90 7 -92 9 -10 14 11 20 92 6 81 6 87 -12 87
-17 0 -19 -7 -15 -87z"/>
<path d="M280 5340 c0 -5 11 -10 25 -10 18 0 25 -5 25 -20 0 -14 -9 -21 -37
-25 -21 -3 -46 -8 -56 -10 -14 -3 -17 2 -15 18 2 14 11 23 26 25 39 6 24 22
-20 22 l-43 0 -1 -53 c0 -56 -31 -137 -66 -174 -12 -13 -18 -26 -14 -30 14
-14 85 74 97 120 12 49 28 57 108 57 33 0 39 4 54 36 10 19 15 40 12 45 -8 12
-95 12 -95 -1z"/>
<path d="M284 5213 c1 -32 -3 -39 -20 -41 -18 -3 -21 1 -17 22 4 19 1 26 -10
26 -10 0 -18 -14 -22 -41 -8 -49 -3 -56 30 -41 40 18 45 15 45 -28 0 -22 5
-40 10 -40 6 0 10 13 10 29 0 45 10 61 36 61 13 0 24 5 24 10 0 6 -11 10 -25
10 -22 0 -25 4 -25 35 0 27 -4 35 -19 35 -15 0 -18 -7 -17 -37z"/>
<path d="M280 4890 c0 -5 11 -10 25 -10 18 0 25 -5 25 -20 0 -14 -9 -21 -37
-25 -21 -3 -46 -8 -56 -10 -14 -3 -17 2 -15 18 2 14 11 23 26 25 39 6 24 22
-20 22 l-43 0 -1 -53 c0 -56 -31 -137 -66 -174 -12 -13 -18 -26 -14 -30 14
-14 85 74 97 120 12 49 28 57 108 57 33 0 39 4 54 36 10 19 15 40 12 45 -8 12
-95 12 -95 -1z"/>
<path d="M284 4763 c1 -32 -3 -39 -20 -41 -18 -3 -21 1 -17 22 4 19 1 26 -10
26 -10 0 -18 -14 -22 -41 -8 -49 -3 -56 30 -41 40 18 45 15 45 -28 0 -22 5
-40 10 -40 6 0 10 15 10 33 0 47 12 60 47 53 26 -6 31 -4 37 16 12 45 7 68
-13 68 -15 0 -19 -6 -18 -27 2 -22 -3 -29 -20 -31 -20 -3 -23 1 -23 32 0 28
-4 36 -19 36 -15 0 -18 -7 -17 -37z"/>
<path d="M280 4440 c0 -5 11 -10 25 -10 18 0 25 -5 25 -20 0 -14 -9 -21 -37
-25 -21 -3 -46 -8 -56 -10 -14 -3 -17 2 -15 18 2 14 11 23 26 25 39 6 24 22
-20 22 l-43 0 -1 -53 c0 -56 -31 -137 -66 -174 -12 -13 -18 -26 -14 -30 14
-14 85 74 97 120 12 49 28 57 108 57 33 0 39 4 54 36 10 19 15 40 12 45 -8 12
-95 12 -95 -1z"/>
<path d="M284 4313 c1 -32 -3 -39 -20 -41 -18 -3 -21 1 -17 22 4 19 1 26 -10
26 -10 0 -18 -14 -22 -41 -8 -49 -3 -56 30 -41 39 18 47 15 43 -20 -2 -25 -9
-33 -30 -39 -25 -6 -28 -5 -28 17 0 38 -27 29 -35 -12 -3 -20 -4 -38 -2 -40 7
-7 187 30 187 38 0 4 -16 8 -35 8 -30 0 -35 3 -35 23 0 37 14 50 47 43 26 -6
31 -4 37 16 12 45 7 68 -13 68 -15 0 -19 -6 -18 -27 2 -22 -3 -29 -20 -31 -20
-3 -23 1 -23 32 0 28 -4 36 -19 36 -15 0 -18 -7 -17 -37z"/>
<path d="M280 3990 c0 -5 11 -10 25 -10 18 0 25 -5 25 -20 0 -14 -9 -21 -37
-25 -21 -3 -46 -8 -56 -10 -14 -3 -17 2 -15 18 2 14 11 23 26 25 39 6 24 22
-20 22 l-43 0 -1 -53 c0 -56 -31 -137 -66 -174 -12 -13 -18 -26 -14 -30 14
-14 85 74 97 120 12 49 28 57 108 57 33 0 39 4 54 36 10 19 15 40 12 45 -8 12
-95 12 -95 -1z"/>
<path d="M284 3863 c1 -32 -3 -39 -20 -41 -18 -3 -21 1 -17 22 4 19 1 26 -10
26 -10 0 -18 -14 -22 -41 -8 -49 -3 -56 30 -41 39 18 47 15 43 -20 -2 -25 -9
-33 -30 -39 -25 -6 -28 -5 -28 17 0 38 -27 29 -35 -12 -3 -20 -4 -38 -2 -41 3
-2 39 3 81 11 93 20 96 20 96 1 0 -8 6 -15 14 -15 19 0 31 80 14 92 -21 13
-28 9 -28 -17 0 -21 -5 -25 -30 -25 -24 0 -30 4 -30 23 0 37 14 50 47 43 26
-6 31 -4 37 16 12 45 7 68 -13 68 -15 0 -19 -6 -18 -27 2 -22 -3 -29 -20 -31
-20 -3 -23 1 -23 32 0 28 -4 36 -19 36 -15 0 -18 -7 -17 -37z"/>
</g>
</svg>
