<?xml version="1.0" standalone="no"?>
<!DOCTYPE svg PUBLIC "-//W3C//DTD SVG 20010904//EN"
 "http://www.w3.org/TR/2001/REC-SVG-20010904/DTD/svg10.dtd">
<svg version="1.0" xmlns="http://www.w3.org/2000/svg"
 width="50.000000pt" height="725.000000pt" viewBox="0 0 50.000000 725.000000"
 preserveAspectRatio="xMidYMid meet">
<metadata>
Created by potrace 1.16, written by Peter Selinger 2001-2019
</metadata>
<g transform="translate(0.000000,725.000000) scale(0.100000,-0.100000)"
fill="#000000" stroke="none">
<path d="M270 7160 c0 -5 11 -10 24 -10 19 0 23 -4 19 -20 -3 -13 0 -20 8 -20
17 0 42 37 34 50 -8 13 -85 13 -85 0z"/>
<path d="M190 7150 c0 -5 11 -10 25 -10 14 0 25 5 25 10 0 6 -11 10 -25 10
-14 0 -25 -4 -25 -10z"/>
<path d="M270 6711 c0 -5 11 -11 25 -13 45 -6 12 -28 -53 -34 -34 -4 -62 -11
-62 -17 0 -6 23 -7 61 -3 34 3 69 6 78 6 17 0 44 47 35 61 -7 12 -84 11 -84 0z"/>
<path d="M190 6700 c0 -5 11 -10 25 -10 14 0 25 5 25 10 0 6 -11 10 -25 10
-14 0 -25 -4 -25 -10z"/>
<path d="M270 6261 c0 -5 11 -11 25 -13 41 -5 15 -26 -43 -34 -44 -6 -52 -4
-52 10 0 9 8 16 20 16 11 0 20 5 20 10 0 6 -17 10 -37 10 l-38 0 -2 -53 c-2
-57 -35 -158 -58 -177 -17 -14 -20 -40 -5 -40 18 0 69 91 81 146 l12 53 71 6
c64 6 73 10 83 32 7 14 10 30 7 34 -7 12 -84 11 -84 0z"/>
<path d="M270 5811 c0 -5 11 -11 25 -13 41 -5 15 -26 -43 -34 -44 -6 -52 -4
-52 10 0 9 8 16 20 16 11 0 20 5 20 10 0 6 -17 10 -37 10 l-38 0 -2 -53 c-2
-57 -35 -158 -58 -177 -17 -14 -20 -40 -5 -40 18 0 69 91 81 146 l12 53 71 6
c64 6 73 10 83 32 7 14 10 30 7 34 -7 12 -84 11 -84 0z"/>
<path d="M204 5704 c3 -9 6 -24 6 -35 0 -10 5 -19 10 -19 6 0 10 16 10 35 0
25 -4 35 -16 35 -11 0 -14 -5 -10 -16z"/>
<path d="M270 5361 c0 -5 11 -11 25 -13 41 -5 15 -26 -43 -34 -44 -6 -52 -4
-52 10 0 9 8 16 20 16 11 0 20 5 20 10 0 6 -17 10 -37 10 l-38 0 -2 -53 c-2
-57 -35 -158 -58 -177 -17 -14 -20 -40 -5 -40 18 0 69 91 81 146 l12 53 71 6
c64 6 73 10 83 32 7 14 10 30 7 34 -7 12 -84 11 -84 0z"/>
<path d="M278 5283 c-50 -6 -49 -23 2 -23 39 0 39 -1 29 -26 -11 -30 -7 -39
15 -31 16 6 31 61 21 77 -3 5 -12 9 -18 8 -7 -1 -29 -3 -49 -5z"/>
<path d="M204 5254 c3 -9 6 -24 6 -35 0 -10 5 -19 10 -19 6 0 10 16 10 35 0
25 -4 35 -16 35 -11 0 -14 -5 -10 -16z"/>
<path d="M270 4911 c0 -5 11 -11 25 -13 41 -5 15 -26 -43 -34 -44 -6 -52 -4
-52 10 0 9 8 16 20 16 11 0 20 5 20 10 0 6 -18 10 -41 10 -34 0 -40 -3 -35
-18 13 -39 -25 -168 -66 -224 -7 -9 -9 -20 -5 -24 11 -12 35 16 63 72 14 30
33 54 40 54 8 0 14 -4 14 -10 0 -15 17 -12 23 4 9 22 -4 56 -20 56 -9 0 -13
-6 -9 -15 3 -9 0 -15 -8 -15 -9 0 -12 8 -9 24 5 22 11 25 77 31 64 6 73 10 83
32 7 14 10 30 7 34 -7 12 -84 11 -84 0z"/>
<path d="M278 4833 c-21 -2 -38 -8 -38 -14 0 -5 17 -10 38 -11 36 -1 36 -1 5
-5 -41 -5 -43 -23 -3 -23 22 0 28 -4 24 -15 -4 -10 0 -15 10 -15 9 0 19 7 22
15 4 9 19 15 36 15 33 0 35 22 2 29 -10 2 -23 9 -27 17 -4 8 -13 13 -20 12 -7
-1 -29 -3 -49 -5z"/>
<path d="M270 4461 c0 -5 11 -11 25 -13 41 -5 15 -26 -43 -34 -44 -6 -52 -4
-52 10 0 9 8 16 20 16 11 0 20 5 20 10 0 6 -18 10 -41 10 -34 0 -40 -3 -35
-18 13 -39 -25 -168 -66 -224 -7 -9 -9 -20 -5 -24 11 -12 35 16 63 72 14 30
33 54 40 54 8 0 14 -4 14 -10 0 -15 17 -12 23 4 9 22 -4 56 -20 56 -9 0 -13
-6 -9 -15 3 -9 0 -15 -8 -15 -9 0 -12 8 -9 24 5 22 11 25 77 31 64 6 73 10 83
32 7 14 10 30 7 34 -7 12 -84 11 -84 0z"/>
<path d="M278 4383 c-21 -2 -38 -8 -38 -14 0 -5 17 -10 38 -11 36 -1 36 -1 5
-5 -18 -2 -33 -8 -33 -14 0 -5 15 -10 33 -10 23 -1 26 -3 10 -6 -34 -6 -28
-23 7 -23 18 0 33 6 36 15 4 9 19 15 36 15 33 0 35 22 2 29 -10 2 -23 9 -27
17 -4 8 -13 13 -20 12 -7 -1 -29 -3 -49 -5z"/>
<path d="M270 4011 c0 -5 11 -11 25 -13 41 -5 15 -26 -43 -34 -44 -6 -52 -4
-52 10 0 9 8 16 20 16 11 0 20 5 20 10 0 6 -18 10 -41 10 -34 0 -40 -3 -35
-18 13 -39 -25 -168 -66 -224 -7 -9 -9 -20 -5 -24 11 -12 35 16 63 72 14 30
33 54 40 54 8 0 14 -4 14 -10 0 -15 17 -12 23 4 9 22 -4 56 -20 56 -9 0 -13
-6 -9 -15 3 -9 0 -15 -8 -15 -9 0 -12 8 -9 24 5 22 11 25 77 31 64 6 73 10 83
32 7 14 10 30 7 34 -7 12 -84 11 -84 0z"/>
<path d="M278 3933 c-21 -2 -38 -8 -38 -14 0 -5 17 -10 38 -11 36 -1 36 -1 5
-5 -18 -2 -33 -8 -33 -14 0 -5 15 -10 33 -10 23 -1 26 -3 10 -6 -34 -6 -28
-23 7 -23 18 0 33 6 36 15 4 9 19 15 36 15 33 0 35 22 2 29 -10 2 -23 9 -27
17 -4 8 -13 13 -20 12 -7 -1 -29 -3 -49 -5z"/>
<path d="M190 3822 c0 -19 12 -42 22 -42 14 0 5 43 -9 48 -7 2 -13 -1 -13 -6z"/>
<path d="M270 3561 c0 -5 11 -11 25 -13 41 -5 15 -26 -43 -34 -44 -6 -52 -4
-52 10 0 9 8 16 20 16 11 0 20 5 20 10 0 6 -18 10 -41 10 -34 0 -40 -3 -35
-18 13 -39 -25 -168 -66 -224 -7 -9 -9 -20 -5 -24 11 -12 35 16 63 72 14 30
33 54 40 54 8 0 14 -4 14 -10 0 -15 17 -12 23 4 9 22 -4 56 -20 56 -9 0 -13
-6 -9 -15 3 -9 0 -15 -8 -15 -9 0 -12 8 -9 24 5 22 11 25 77 31 64 6 73 10 83
32 7 14 10 30 7 34 -7 12 -84 11 -84 0z"/>
<path d="M278 3483 c-21 -2 -38 -8 -38 -14 0 -5 17 -10 38 -11 36 -1 36 -1 5
-5 -18 -2 -33 -8 -33 -14 0 -5 15 -10 33 -10 23 -1 26 -3 10 -6 -28 -5 -30
-23 -3 -23 13 0 22 -9 26 -25 3 -14 13 -25 20 -25 21 0 30 31 12 44 -23 17
-10 36 24 36 33 0 35 22 2 29 -10 2 -23 9 -27 17 -4 8 -13 13 -20 12 -7 -1
-29 -3 -49 -5z"/>
<path d="M201 3381 c-8 -5 -11 -16 -6 -30 8 -27 25 -27 25 -1 0 16 7 20 30 20
17 0 30 5 30 10 0 12 -60 13 -79 1z"/>
<path d="M270 3111 c0 -5 11 -11 25 -13 41 -5 15 -26 -43 -34 -44 -6 -52 -4
-52 10 0 9 8 16 20 16 11 0 20 5 20 10 0 6 -18 10 -41 10 -34 0 -40 -3 -35
-18 13 -39 -25 -168 -66 -224 -7 -9 -9 -20 -5 -24 11 -12 35 16 63 72 14 30
33 54 40 54 8 0 14 -4 14 -10 0 -15 17 -12 23 4 9 22 -4 56 -20 56 -9 0 -13
-6 -9 -15 3 -9 0 -15 -8 -15 -9 0 -12 8 -9 24 5 22 11 25 77 31 64 6 73 10 83
32 7 14 10 30 7 34 -7 12 -84 11 -84 0z"/>
<path d="M278 3033 c-21 -2 -38 -8 -38 -14 0 -5 17 -10 38 -11 36 -1 36 -1 5
-5 -18 -2 -33 -8 -33 -14 0 -5 15 -10 33 -10 23 -1 26 -3 10 -6 -28 -5 -31
-23 -4 -23 16 0 31 -18 31 -36 0 -2 -13 -4 -30 -4 -16 0 -30 -4 -30 -10 0 -5
20 -10 44 -10 37 0 46 4 52 22 4 14 1 25 -8 32 -23 17 -10 36 24 36 33 0 35
22 2 29 -10 2 -23 9 -27 17 -4 8 -13 13 -20 12 -7 -1 -29 -3 -49 -5z"/>
<path d="M201 2931 c-17 -11 -5 -51 15 -51 11 0 13 6 9 20 -5 17 -2 20 24 20
17 0 31 5 31 10 0 12 -60 13 -79 1z"/>
<path d="M270 2661 c0 -5 11 -11 25 -13 41 -5 15 -26 -43 -34 -44 -6 -52 -4
-52 10 0 9 8 16 20 16 11 0 20 5 20 10 0 6 -18 10 -41 10 -34 0 -40 -3 -35
-18 13 -39 -25 -168 -66 -224 -7 -9 -9 -20 -5 -24 11 -12 35 16 63 72 14 30
33 54 40 54 8 0 14 -4 14 -10 0 -15 17 -12 23 4 9 22 -4 56 -20 56 -9 0 -13
-6 -9 -15 3 -9 0 -15 -8 -15 -9 0 -12 8 -8 25 3 19 11 25 31 25 24 0 26 -3 29
-50 3 -43 0 -50 -15 -50 -10 0 -24 -4 -32 -9 -17 -11 -5 -51 15 -51 11 0 13 6
9 20 -5 14 -2 20 9 20 9 0 16 -7 16 -15 0 -11 12 -15 49 -15 42 0 51 3 57 22
4 14 1 25 -8 32 -23 17 -10 36 24 36 33 0 35 22 2 29 -10 2 -23 10 -27 18 -6
10 -18 12 -38 8 -18 -4 -29 -3 -29 4 0 6 12 11 28 11 19 0 30 7 39 26 7 15 10
31 7 35 -7 12 -84 11 -84 0z m37 -107 c-3 -3 -12 -4 -19 -1 -8 3 -5 6 6 6 11
1 17 -2 13 -5z m0 -30 c-3 -3 -12 -4 -19 -1 -8 3 -5 6 6 6 11 1 17 -2 13 -5z
m3 -28 c0 -2 3 -11 6 -20 4 -11 0 -16 -13 -16 -12 0 -19 7 -19 20 0 11 6 20
13 20 7 0 13 -2 13 -4z"/>
<path d="M270 2211 c0 -5 11 -11 25 -13 41 -5 15 -26 -43 -34 -44 -6 -52 -4
-52 10 0 9 8 16 20 16 11 0 20 5 20 10 0 6 -18 10 -41 10 -34 0 -40 -3 -35
-18 13 -39 -25 -168 -66 -224 -7 -9 -9 -20 -5 -24 11 -12 35 16 63 72 14 30
33 54 40 54 8 0 14 -4 14 -10 0 -15 17 -12 23 4 9 22 -4 56 -20 56 -9 0 -13
-6 -9 -15 3 -9 0 -15 -8 -15 -9 0 -12 8 -8 25 3 19 11 25 31 25 24 0 26 -3 29
-50 3 -43 0 -50 -15 -50 -10 0 -24 -4 -32 -9 -17 -11 -5 -51 15 -51 11 0 13 6
9 20 -5 14 -2 20 9 20 20 0 20 -2 1 -47 -19 -45 -19 -53 1 -53 8 0 40 -12 70
-27 54 -26 71 -26 61 0 -4 11 -30 22 -105 43 -27 8 20 53 55 54 37 0 57 35 31
54 -23 17 -10 36 24 36 33 0 35 22 2 29 -10 2 -23 10 -27 18 -6 10 -18 12 -38
8 -18 -4 -29 -3 -29 4 0 6 12 11 28 11 19 0 30 7 39 26 7 15 10 31 7 35 -7 12
-84 11 -84 0z m37 -107 c-3 -3 -12 -4 -19 -1 -8 3 -5 6 6 6 11 1 17 -2 13 -5z
m0 -30 c-3 -3 -12 -4 -19 -1 -8 3 -5 6 6 6 11 1 17 -2 13 -5z m3 -28 c0 -2 3
-11 6 -20 4 -11 0 -16 -13 -16 -12 0 -19 7 -19 20 0 11 6 20 13 20 7 0 13 -2
13 -4z"/>
<path d="M270 1761 c0 -5 11 -11 25 -13 41 -5 15 -26 -43 -34 -44 -6 -52 -4
-52 10 0 9 8 16 20 16 11 0 20 5 20 10 0 6 -18 10 -41 10 -34 0 -40 -3 -35
-18 13 -39 -25 -168 -66 -224 -7 -9 -9 -20 -5 -24 11 -12 35 16 63 72 14 30
33 54 40 54 8 0 14 -4 14 -10 0 -15 17 -12 23 4 9 22 -4 56 -20 56 -9 0 -13
-6 -9 -15 3 -9 0 -15 -8 -15 -9 0 -12 8 -8 25 3 19 11 25 31 25 24 0 26 -3 29
-50 3 -43 0 -50 -15 -50 -10 0 -24 -4 -32 -9 -17 -11 -5 -51 15 -51 11 0 13 6
9 20 -5 14 -2 20 9 20 20 0 20 -2 1 -47 -20 -47 -19 -53 8 -54 20 -1 20 -2 -5
-12 -30 -12 -37 -27 -13 -27 8 0 26 5 40 12 21 10 31 9 55 -5 35 -21 50 -22
50 -1 0 8 -14 20 -31 26 -28 10 -29 11 -13 29 9 10 14 24 12 31 -3 7 1 19 9
26 17 18 17 41 -1 48 -25 9 -6 34 26 34 33 0 35 22 2 29 -10 2 -23 10 -27 18
-6 10 -18 12 -38 8 -18 -4 -29 -3 -29 4 0 6 12 11 28 11 19 0 30 7 39 26 7 15
10 31 7 35 -7 12 -84 11 -84 0z m37 -107 c-3 -3 -12 -4 -19 -1 -8 3 -5 6 6 6
11 1 17 -2 13 -5z m0 -30 c-3 -3 -12 -4 -19 -1 -8 3 -5 6 6 6 11 1 17 -2 13
-5z m3 -28 c0 -2 3 -11 6 -20 4 -11 0 -16 -13 -16 -12 0 -19 7 -19 20 0 11 6
20 13 20 7 0 13 -2 13 -4z m-10 -75 c0 -22 -25 -45 -40 -36 -6 4 -4 15 7 30
22 29 33 31 33 6z"/>
<path d="M170 1430 c0 -5 7 -10 15 -10 8 0 15 5 15 10 0 6 -7 10 -15 10 -8 0
-15 -4 -15 -10z"/>
<path d="M270 1311 c0 -5 11 -11 25 -13 41 -5 15 -26 -43 -34 -44 -6 -52 -4
-52 10 0 9 8 16 20 16 11 0 20 5 20 10 0 6 -18 10 -41 10 -34 0 -40 -3 -35
-18 13 -39 -25 -168 -66 -224 -7 -9 -9 -20 -5 -24 11 -12 35 16 63 72 14 30
33 54 40 54 8 0 14 -4 14 -10 0 -15 17 -12 23 4 9 22 -4 56 -20 56 -9 0 -13
-6 -9 -15 3 -9 0 -15 -8 -15 -9 0 -12 8 -8 25 3 19 11 25 31 25 24 0 26 -3 29
-50 3 -43 0 -50 -15 -50 -10 0 -24 -4 -32 -9 -17 -11 -5 -51 15 -51 11 0 13 6
9 20 -5 15 -2 20 10 20 12 0 15 -5 11 -16 -3 -9 -6 -20 -6 -25 0 -5 -10 -9
-22 -9 -35 0 -68 -11 -68 -22 0 -6 14 -8 35 -4 28 6 35 4 35 -9 0 -9 9 -15 23
-16 20 -1 20 -2 -5 -12 -30 -12 -37 -27 -13 -27 8 0 26 5 40 12 21 10 31 9 55
-5 35 -21 50 -22 50 -1 0 8 -14 20 -31 26 -29 10 -29 11 -13 29 12 13 31 19
61 19 23 0 43 5 43 10 0 6 -23 10 -51 10 -46 0 -49 1 -35 16 20 19 21 43 2 50
-25 9 -6 34 26 34 33 0 35 22 2 29 -10 2 -23 10 -27 18 -6 10 -18 12 -38 8
-18 -4 -29 -3 -29 4 0 6 12 11 28 11 19 0 30 7 39 26 7 15 10 31 7 35 -7 12
-84 11 -84 0z m37 -107 c-3 -3 -12 -4 -19 -1 -8 3 -5 6 6 6 11 1 17 -2 13 -5z
m0 -30 c-3 -3 -12 -4 -19 -1 -8 3 -5 6 6 6 11 1 17 -2 13 -5z m3 -28 c0 -2 3
-11 6 -20 4 -11 0 -16 -13 -16 -12 0 -19 7 -19 20 0 11 6 20 13 20 7 0 13 -2
13 -4z m-10 -66 c0 -5 -4 -10 -10 -10 -5 0 -10 5 -10 10 0 6 5 10 10 10 6 0
10 -4 10 -10z m-18 -42 c-9 -9 -15 -9 -24 0 -9 9 -7 12 12 12 19 0 21 -3 12
-12z"/>
<path d="M170 980 c0 -5 7 -10 15 -10 8 0 15 5 15 10 0 6 -7 10 -15 10 -8 0
-15 -4 -15 -10z"/>
</g>
</svg>
