<?xml version="1.0" standalone="no"?>
<!DOCTYPE svg PUBLIC "-//W3C//DTD SVG 20010904//EN"
 "http://www.w3.org/TR/2001/REC-SVG-20010904/DTD/svg10.dtd">
<svg version="1.0" xmlns="http://www.w3.org/2000/svg"
 width="50.000000pt" height="725.000000pt" viewBox="0 0 50.000000 725.000000"
 preserveAspectRatio="xMidYMid meet">
<metadata>
Created by potrace 1.16, written by Peter Selinger 2001-2019
</metadata>
<g transform="translate(0.000000,725.000000) scale(0.100000,-0.100000)"
fill="#000000" stroke="none">
<path d="M130 7040 c0 -62 3 -80 14 -80 17 0 28 141 12 152 -23 16 -26 6 -26
-72z"/>
<path d="M130 6590 c0 -57 -4 -80 -12 -80 -8 0 -13 14 -13 37 0 58 -22 51 -28
-9 -2 -29 -3 -54 -2 -56 6 -6 115 23 115 30 0 5 -7 8 -16 8 -14 0 -16 10 -12
69 5 67 0 81 -28 81 -2 0 -4 -36 -4 -80z"/>
<path d="M130 6140 c0 -57 -4 -80 -12 -80 -8 0 -13 14 -13 37 0 58 -22 51 -28
-9 -2 -29 -3 -55 -1 -57 2 -2 24 2 50 9 39 11 47 11 55 -1 13 -21 26 -1 32 53
6 43 -1 58 -27 58 -2 0 -3 -16 -2 -36 1 -23 -4 -39 -13 -42 -11 -4 -13 8 -9
66 5 68 0 82 -28 82 -2 0 -4 -36 -4 -80z"/>
<path d="M253 5764 c-18 -24 -33 -51 -33 -60 0 -10 -6 -13 -19 -9 -16 5 -18 0
-17 -31 1 -23 -4 -39 -13 -42 -11 -4 -13 8 -9 66 5 68 0 82 -28 82 -2 0 -4
-36 -4 -80 0 -57 -4 -80 -12 -80 -8 0 -13 14 -13 37 0 58 -22 51 -28 -9 -2
-29 -3 -55 -1 -57 2 -2 24 2 50 9 37 11 47 11 54 0 13 -22 27 -2 33 46 5 52
13 59 75 75 48 13 59 35 11 25 l-30 -6 20 26 c12 15 21 33 21 40 0 27 -25 12
-57 -32z"/>
<path d="M253 5314 c-18 -24 -33 -51 -33 -60 0 -10 -6 -13 -19 -9 -16 5 -18 0
-17 -31 1 -23 -4 -39 -13 -42 -11 -4 -13 8 -9 66 5 68 0 82 -28 82 -2 0 -4
-36 -4 -80 0 -57 -4 -80 -12 -80 -8 0 -13 14 -13 37 0 58 -22 51 -28 -9 -2
-29 -3 -55 -1 -57 2 -2 24 2 50 9 37 11 47 11 54 0 13 -22 27 -3 33 45 2 25 7
49 10 52 3 3 32 14 64 24 50 17 58 18 66 4 12 -23 27 -18 27 10 0 14 -8 29
-19 35 -26 13 -31 13 -31 -5 0 -8 -6 -15 -14 -15 -8 0 -22 -3 -32 -7 -16 -6
-15 -3 4 21 12 16 22 35 22 42 0 27 -25 12 -57 -32z"/>
<path d="M253 4864 c-35 -47 -43 -80 -18 -70 19 7 19 -4 -1 -32 -9 -13 -13
-26 -10 -29 8 -9 54 36 62 59 8 27 55 44 66 23 13 -23 28 -18 28 10 0 14 -8
29 -19 35 -26 13 -31 13 -31 -5 0 -8 -6 -15 -14 -15 -8 0 -22 -3 -32 -7 -16
-6 -15 -3 4 21 12 16 22 35 22 42 0 27 -25 12 -57 -32z"/>
<path d="M130 4790 c0 -57 -4 -80 -12 -80 -8 0 -13 14 -13 37 0 58 -22 51 -28
-9 -2 -29 -3 -55 -1 -57 2 -2 24 2 50 9 39 11 47 11 55 -1 13 -21 26 -1 32 53
6 43 -1 58 -27 58 -2 0 -3 -16 -2 -36 1 -23 -4 -39 -13 -42 -11 -4 -13 8 -9
66 5 68 0 82 -28 82 -2 0 -4 -36 -4 -80z"/>
<path d="M253 4414 c-35 -47 -43 -80 -18 -70 19 7 19 -4 -1 -32 -9 -13 -13
-26 -10 -29 8 -8 36 17 56 50 l17 28 6 -31 c6 -28 9 -30 52 -30 52 0 61 17 13
22 -28 2 -34 8 -36 31 -4 29 12 37 22 12 9 -24 26 -17 26 10 0 14 -8 29 -19
35 -26 13 -31 13 -31 -5 0 -8 -6 -15 -14 -15 -8 0 -22 -3 -32 -7 -16 -6 -15
-3 4 21 12 16 22 35 22 42 0 27 -25 12 -57 -32z"/>
<path d="M130 4340 c0 -57 -4 -80 -12 -80 -8 0 -13 14 -13 37 0 58 -22 51 -28
-9 -2 -29 -3 -55 -1 -57 2 -2 24 2 50 9 39 11 47 11 55 -1 13 -21 26 -1 32 53
6 43 -1 58 -27 58 -2 0 -3 -16 -2 -36 1 -23 -4 -39 -13 -42 -11 -4 -13 8 -9
66 5 68 0 82 -28 82 -2 0 -4 -36 -4 -80z"/>
<path d="M253 3964 c-35 -47 -43 -80 -18 -70 19 7 19 -4 -1 -32 -9 -13 -13
-26 -10 -29 8 -8 36 17 56 50 l17 28 6 -31 c6 -28 9 -30 52 -30 52 0 61 17 13
22 -28 2 -34 8 -36 31 -4 29 12 37 22 12 9 -24 26 -17 26 10 0 14 -8 29 -19
35 -26 13 -31 13 -31 -5 0 -8 -6 -15 -14 -15 -8 0 -22 -3 -32 -7 -16 -6 -15
-3 4 21 12 16 22 35 22 42 0 27 -25 12 -57 -32z"/>
<path d="M130 3890 c0 -57 -4 -80 -12 -80 -8 0 -13 14 -13 37 0 58 -22 51 -28
-9 -2 -29 -3 -55 -1 -57 2 -2 24 2 50 9 39 11 47 11 55 -1 13 -21 26 -1 32 53
6 43 -1 58 -27 58 -2 0 -3 -16 -2 -36 1 -23 -4 -39 -13 -42 -11 -4 -13 8 -9
66 5 68 0 82 -28 82 -2 0 -4 -36 -4 -80z"/>
<path d="M270 3851 c0 -7 -12 -29 -26 -51 -15 -22 -24 -44 -19 -48 9 -9 86 79
82 93 -5 14 -37 19 -37 6z"/>
<path d="M253 3514 c-35 -47 -43 -80 -18 -70 19 7 19 -4 -1 -32 -9 -13 -13
-26 -10 -29 8 -8 36 17 56 50 l17 28 6 -31 c6 -28 9 -30 52 -30 52 0 61 17 13
22 -28 2 -34 8 -36 31 -4 29 12 37 22 12 9 -24 26 -17 26 10 0 14 -8 29 -19
35 -26 13 -31 13 -31 -5 0 -8 -6 -15 -14 -15 -8 0 -22 -3 -32 -7 -16 -6 -15
-3 4 21 12 16 22 35 22 42 0 27 -25 12 -57 -32z"/>
<path d="M130 3440 c0 -57 -4 -80 -12 -80 -8 0 -13 14 -13 37 0 58 -22 51 -28
-9 -2 -29 -3 -55 -1 -57 2 -2 24 2 50 9 39 11 47 11 55 -1 13 -21 26 -1 32 53
6 43 -1 58 -27 58 -2 0 -3 -16 -2 -36 1 -23 -4 -39 -13 -42 -11 -4 -13 8 -9
66 5 68 0 82 -28 82 -2 0 -4 -36 -4 -80z"/>
<path d="M270 3401 c0 -7 -12 -29 -26 -51 -30 -46 -25 -64 9 -33 12 11 32 24
45 28 23 7 23 7 7 -25 -9 -17 -30 -39 -46 -48 -51 -30 -32 -44 21 -17 34 17
80 80 80 109 0 15 -5 17 -29 13 -23 -5 -28 -3 -27 11 0 9 -7 18 -16 20 -10 2
-18 -1 -18 -7z"/>
<path d="M253 3064 c-35 -47 -43 -80 -18 -70 19 7 19 -4 -1 -32 -9 -13 -13
-26 -10 -29 8 -8 36 17 56 50 l17 28 6 -31 c6 -28 9 -30 52 -30 52 0 61 17 13
22 -28 2 -34 8 -36 31 -4 29 12 37 22 12 9 -24 26 -17 26 10 0 14 -8 29 -19
35 -26 13 -31 13 -31 -5 0 -8 -6 -15 -14 -15 -8 0 -22 -3 -32 -7 -16 -6 -15
-3 4 21 12 16 22 35 22 42 0 27 -25 12 -57 -32z"/>
<path d="M130 2990 c0 -57 -4 -80 -12 -80 -8 0 -13 14 -13 37 0 58 -22 51 -28
-9 -2 -29 -3 -55 -1 -57 2 -2 24 2 50 9 39 11 47 11 55 -1 13 -21 26 -1 32 53
6 43 -1 58 -27 58 -2 0 -3 -16 -2 -36 1 -23 -4 -39 -13 -42 -11 -4 -13 8 -9
66 5 68 0 82 -28 82 -2 0 -4 -36 -4 -80z"/>
<path d="M270 2946 c0 -8 -8 -21 -18 -28 -10 -7 -22 -25 -26 -40 -7 -29 2 -36
20 -18 8 8 15 6 25 -6 11 -14 11 -18 -5 -30 -10 -7 -24 -15 -30 -17 -6 -2 -8
-8 -4 -12 4 -4 21 -2 37 5 26 10 33 9 58 -9 22 -16 37 -19 66 -15 46 8 48 20
5 28 -18 4 -42 13 -53 21 -18 15 -18 16 -2 44 27 45 23 65 -12 58 -23 -5 -28
-3 -27 11 0 9 -7 18 -16 20 -11 2 -18 -3 -18 -12z m40 -67 c-10 -17 -14 -18
-27 -8 -13 12 -13 14 4 20 30 12 34 10 23 -12z"/>
</g>
</svg>
