<?xml version="1.0" standalone="no"?>
<!DOCTYPE svg PUBLIC "-//W3C//DTD SVG 20010904//EN"
 "http://www.w3.org/TR/2001/REC-SVG-20010904/DTD/svg10.dtd">
<svg version="1.0" xmlns="http://www.w3.org/2000/svg"
 width="50.000000pt" height="725.000000pt" viewBox="0 0 50.000000 725.000000"
 preserveAspectRatio="xMidYMid meet">
<metadata>
Created by potrace 1.16, written by Peter Selinger 2001-2019
</metadata>
<g transform="translate(0.000000,725.000000) scale(0.100000,-0.100000)"
fill="#000000" stroke="none">
<path d="M129 7043 c1 -49 5 -90 7 -92 10 -11 15 13 21 93 6 80 5 86 -13 86
-17 0 -19 -7 -15 -87z"/>
<path d="M129 6595 c3 -74 1 -85 -13 -85 -14 0 -16 7 -10 35 5 27 3 35 -9 35
-10 0 -16 -15 -21 -47 -3 -25 -4 -48 -2 -51 8 -7 106 19 106 29 0 5 -6 9 -14
9 -11 0 -13 15 -9 80 5 74 4 80 -13 80 -17 0 -19 -7 -15 -85z"/>
<path d="M129 6145 c3 -74 1 -85 -13 -85 -14 0 -16 7 -10 35 5 27 3 35 -9 35
-10 0 -16 -15 -21 -47 -3 -25 -4 -48 -1 -51 2 -3 23 0 47 6 32 8 44 8 50 -1
13 -21 26 5 30 57 2 32 -1 51 -9 53 -7 3 -13 -10 -15 -33 -2 -21 -8 -39 -15
-41 -8 -3 -10 18 -6 76 5 75 4 81 -13 81 -17 0 -19 -7 -15 -85z"/>
<path d="M285 5805 c-16 -14 -36 -25 -42 -25 -7 0 -13 -4 -13 -10 0 -13 5 -13
67 8 53 17 67 34 37 46 -19 7 -14 10 -49 -19z"/>
<path d="M129 5695 c3 -74 1 -85 -13 -85 -14 0 -16 7 -10 35 5 27 3 35 -9 35
-10 0 -16 -15 -21 -47 -3 -25 -4 -48 -1 -51 2 -3 23 0 47 6 32 8 44 8 50 -1
13 -21 26 5 30 57 2 32 -1 51 -9 53 -7 3 -13 -10 -15 -33 -2 -21 -8 -39 -15
-41 -8 -3 -10 18 -6 76 5 75 4 81 -13 81 -17 0 -19 -7 -15 -85z"/>
<path d="M285 5355 c-16 -14 -36 -25 -42 -25 -7 0 -13 -4 -13 -10 0 -13 5 -13
67 8 53 17 67 34 37 46 -19 7 -14 10 -49 -19z"/>
<path d="M129 5245 c3 -74 1 -85 -13 -85 -14 0 -16 7 -10 35 5 27 3 35 -9 35
-10 0 -16 -15 -21 -47 -3 -25 -4 -48 -1 -51 2 -3 23 0 47 6 32 8 44 8 50 -1
13 -21 26 5 30 57 2 32 -1 51 -9 53 -7 3 -13 -10 -15 -33 -2 -21 -8 -39 -15
-41 -8 -3 -10 18 -6 76 5 75 4 81 -13 81 -17 0 -19 -7 -15 -85z"/>
<path d="M273 5297 c-44 -7 -63 -14 -63 -24 0 -11 7 -13 33 -7 17 4 59 10 91
13 34 3 61 11 64 19 4 14 -32 14 -125 -1z"/>
<path d="M285 4905 c-16 -14 -36 -25 -42 -25 -7 0 -13 -5 -13 -11 0 -7 10 -9
26 -5 19 5 25 3 22 -6 -3 -7 -19 -14 -36 -16 -20 -2 -32 -9 -32 -18 0 -11 9
-13 41 -8 l42 7 -7 -99 c-4 -54 -10 -108 -12 -119 -2 -11 0 -27 6 -35 20 -30
30 13 30 137 l0 122 42 3 c24 2 43 9 46 17 3 10 -5 12 -36 9 -33 -3 -42 0 -45
14 -4 13 1 18 14 18 23 0 25 25 3 34 -19 7 -14 10 -49 -19z"/>
<path d="M129 4795 c3 -74 1 -85 -13 -85 -14 0 -16 7 -10 35 5 27 3 35 -9 35
-10 0 -16 -15 -21 -47 -3 -25 -4 -48 -1 -51 2 -3 23 0 47 6 32 8 44 8 50 -1
13 -21 26 5 30 57 2 32 -1 51 -9 53 -7 3 -13 -10 -15 -33 -2 -21 -8 -39 -15
-41 -8 -3 -10 18 -6 76 5 75 4 81 -13 81 -17 0 -19 -7 -15 -85z"/>
<path d="M285 4455 c-16 -14 -36 -25 -42 -25 -7 0 -13 -5 -13 -11 0 -7 10 -9
26 -5 19 5 25 3 22 -6 -3 -7 -19 -14 -36 -16 -20 -2 -32 -9 -32 -18 0 -11 9
-13 41 -8 l42 7 -7 -99 c-4 -54 -10 -108 -12 -119 -2 -11 0 -27 6 -35 20 -30
30 13 30 137 l0 122 42 3 c24 2 43 9 46 17 3 10 -5 12 -36 9 -33 -3 -42 0 -45
14 -4 13 1 18 14 18 23 0 25 25 3 34 -19 7 -14 10 -49 -19z"/>
<path d="M129 4345 c3 -74 1 -85 -13 -85 -14 0 -16 7 -10 35 5 27 3 35 -9 35
-10 0 -16 -15 -21 -47 -3 -25 -4 -48 -1 -51 2 -3 23 0 47 6 32 8 44 8 50 -1
13 -21 26 5 30 57 2 32 -1 51 -9 53 -7 3 -13 -10 -15 -33 -2 -21 -8 -39 -15
-41 -8 -3 -10 18 -6 76 5 75 4 81 -13 81 -17 0 -19 -7 -15 -85z"/>
<path d="M250 4320 c0 -22 5 -40 10 -40 6 0 10 18 10 40 0 22 -4 40 -10 40 -5
0 -10 -18 -10 -40z"/>
<path d="M285 4005 c-16 -14 -36 -25 -42 -25 -7 0 -13 -5 -13 -11 0 -7 10 -9
26 -5 19 5 25 3 22 -6 -3 -7 -19 -14 -36 -16 -20 -2 -32 -9 -32 -18 0 -11 9
-13 41 -8 l42 7 -7 -99 c-4 -54 -10 -108 -12 -119 -2 -11 0 -27 6 -35 20 -30
30 13 30 137 l0 122 42 3 c24 2 43 9 46 17 3 10 -5 12 -36 9 -33 -3 -42 0 -45
14 -4 13 1 18 14 18 23 0 25 25 3 34 -19 7 -14 10 -49 -19z"/>
<path d="M129 3895 c3 -74 1 -85 -13 -85 -14 0 -16 7 -10 35 5 27 3 35 -9 35
-10 0 -16 -15 -21 -47 -3 -25 -4 -48 -1 -51 2 -3 23 0 47 6 32 8 44 8 50 -1
13 -21 26 5 30 57 2 32 -1 51 -9 53 -7 3 -13 -10 -15 -33 -2 -21 -8 -39 -15
-41 -8 -3 -10 18 -6 76 5 75 4 81 -13 81 -17 0 -19 -7 -15 -85z"/>
<path d="M250 3895 c0 -8 -7 -15 -15 -15 -8 0 -15 -4 -15 -10 0 -5 7 -10 15
-10 8 0 15 -7 15 -15 0 -8 5 -15 10 -15 6 0 10 18 10 40 0 22 -4 40 -10 40 -5
0 -10 -7 -10 -15z"/>
<path d="M285 3555 c-16 -14 -36 -25 -42 -25 -7 0 -13 -5 -13 -11 0 -7 10 -9
26 -5 19 5 25 3 22 -6 -3 -7 -19 -14 -36 -16 -20 -2 -32 -9 -32 -18 0 -11 9
-13 41 -8 l42 7 -7 -99 c-4 -54 -10 -108 -12 -119 -2 -11 0 -27 6 -35 20 -30
30 13 30 137 l0 122 42 3 c24 2 43 9 46 17 3 10 -5 12 -36 9 -33 -3 -42 0 -45
14 -4 13 1 18 14 18 23 0 25 25 3 34 -19 7 -14 10 -49 -19z"/>
<path d="M129 3445 c3 -74 1 -85 -13 -85 -14 0 -16 7 -10 35 5 27 3 35 -9 35
-10 0 -16 -15 -21 -47 -3 -25 -4 -48 -1 -51 2 -3 23 0 47 6 32 8 44 8 50 -1
13 -21 26 5 30 57 2 32 -1 51 -9 53 -7 3 -13 -10 -15 -33 -2 -21 -8 -39 -15
-41 -8 -3 -10 18 -6 76 5 75 4 81 -13 81 -17 0 -19 -7 -15 -85z"/>
<path d="M250 3445 c0 -8 -7 -15 -15 -15 -8 0 -15 -4 -15 -10 0 -5 7 -10 15
-10 22 0 18 -21 -5 -27 -22 -6 -28 -33 -7 -33 29 1 47 28 47 69 0 22 -4 41
-10 41 -5 0 -10 -7 -10 -15z"/>
<path d="M285 3105 c-16 -14 -36 -25 -42 -25 -7 0 -13 -5 -13 -11 0 -7 10 -9
26 -5 19 5 25 3 22 -6 -3 -7 -19 -14 -36 -16 -20 -2 -32 -9 -32 -18 0 -11 9
-13 41 -8 l42 7 -7 -99 c-4 -54 -10 -108 -12 -119 -2 -11 0 -27 6 -35 20 -30
30 13 30 137 l0 122 42 3 c24 2 43 9 46 17 3 10 -5 12 -36 9 -33 -3 -42 0 -45
14 -4 13 1 18 14 18 23 0 25 25 3 34 -19 7 -14 10 -49 -19z"/>
<path d="M129 2995 c3 -74 1 -85 -13 -85 -14 0 -16 7 -10 35 5 27 3 35 -9 35
-10 0 -16 -15 -21 -47 -3 -25 -4 -48 -1 -51 2 -3 23 0 47 6 32 8 44 8 50 -1
13 -21 26 5 30 57 2 32 -1 51 -9 53 -7 3 -13 -10 -15 -33 -2 -21 -8 -39 -15
-41 -8 -3 -10 18 -6 76 5 75 4 81 -13 81 -17 0 -19 -7 -15 -85z"/>
<path d="M250 2995 c0 -8 -7 -15 -15 -15 -8 0 -15 -4 -15 -10 0 -5 7 -10 15
-10 22 0 18 -21 -5 -27 -22 -6 -28 -33 -7 -33 29 1 47 28 47 69 0 22 -4 41
-10 41 -5 0 -10 -7 -10 -15z"/>
<path d="M350 2980 c0 -5 9 -10 20 -10 11 0 20 5 20 10 0 6 -9 10 -20 10 -11
0 -20 -4 -20 -10z"/>
<path d="M285 2655 c-16 -14 -36 -25 -42 -25 -7 0 -13 -5 -13 -11 0 -7 10 -9
26 -5 19 5 25 3 22 -6 -3 -7 -19 -14 -36 -16 -20 -2 -32 -9 -32 -18 0 -11 9
-13 41 -8 l42 7 -7 -99 c-4 -54 -10 -108 -12 -119 -2 -11 0 -27 6 -35 20 -30
30 13 30 137 l0 122 42 3 c24 2 43 9 46 17 3 10 -5 12 -36 9 -33 -3 -42 0 -45
14 -4 13 1 18 14 18 23 0 25 25 3 34 -19 7 -14 10 -49 -19z"/>
<path d="M129 2545 c3 -74 1 -85 -13 -85 -14 0 -16 7 -10 35 5 27 3 35 -9 35
-10 0 -16 -15 -21 -47 -3 -25 -4 -48 -1 -51 2 -3 23 0 47 6 32 8 44 8 50 -1
13 -21 26 5 30 57 2 32 -1 51 -9 53 -7 3 -13 -10 -15 -33 -2 -21 -8 -39 -15
-41 -8 -3 -10 18 -6 76 5 75 4 81 -13 81 -17 0 -19 -7 -15 -85z"/>
<path d="M330 2520 l0 -50 41 0 c28 0 39 4 36 13 -2 6 -16 11 -31 10 -17 -1
-26 3 -26 13 0 8 9 14 20 14 11 0 20 5 20 10 0 6 -9 10 -20 10 -11 0 -20 7
-20 15 0 8 -4 15 -10 15 -5 0 -10 -22 -10 -50z"/>
<path d="M250 2545 c0 -8 -7 -15 -15 -15 -8 0 -15 -4 -15 -10 0 -5 7 -10 15
-10 22 0 18 -21 -5 -27 -22 -6 -28 -33 -7 -33 29 1 47 28 47 69 0 22 -4 41
-10 41 -5 0 -10 -7 -10 -15z"/>
<path d="M285 2205 c-16 -14 -36 -25 -42 -25 -7 0 -13 -5 -13 -11 0 -7 10 -9
26 -5 19 5 25 3 22 -6 -3 -7 -19 -14 -36 -16 -20 -2 -32 -9 -32 -18 0 -11 9
-13 40 -8 l40 7 0 -34 c0 -19 -5 -41 -10 -49 -7 -11 -10 -4 -10 28 0 23 -4 42
-10 42 -5 0 -10 -7 -10 -15 0 -8 -7 -15 -15 -15 -8 0 -15 -4 -15 -10 0 -5 7
-10 15 -10 22 0 18 -21 -5 -27 -11 -3 -20 -12 -20 -19 0 -17 22 -18 38 -2 6 6
14 9 17 6 3 -3 -15 -24 -41 -47 -25 -24 -43 -45 -41 -48 7 -6 47 15 76 41 l24
21 -6 -51 c-3 -27 -1 -57 4 -65 19 -30 29 16 29 138 l0 122 42 3 c24 2 43 9
46 17 3 10 -5 12 -36 9 -33 -3 -42 0 -45 14 -4 13 1 18 14 18 23 0 25 25 3 34
-19 7 -14 10 -49 -19z"/>
<path d="M129 2095 c3 -74 1 -85 -13 -85 -14 0 -16 7 -10 35 5 27 3 35 -9 35
-10 0 -16 -15 -21 -47 -3 -25 -4 -48 -1 -51 2 -3 23 0 47 6 32 8 44 8 50 -1
13 -21 26 5 30 57 2 32 -1 51 -9 53 -7 3 -13 -10 -15 -33 -2 -21 -8 -39 -15
-41 -8 -3 -10 18 -6 76 5 75 4 81 -13 81 -17 0 -19 -7 -15 -85z"/>
<path d="M330 2070 l0 -50 41 0 c28 0 39 4 36 13 -2 6 -16 11 -31 10 -17 -1
-26 3 -26 13 0 8 9 14 20 14 11 0 20 5 20 10 0 6 -9 10 -20 10 -11 0 -20 7
-20 15 0 8 -4 15 -10 15 -5 0 -10 -22 -10 -50z"/>
<path d="M285 1755 c-16 -14 -36 -25 -42 -25 -7 0 -13 -5 -13 -11 0 -7 10 -9
26 -5 19 5 25 3 22 -6 -3 -7 -19 -14 -36 -16 -20 -2 -32 -9 -32 -18 0 -11 9
-13 40 -8 l40 7 0 -34 c0 -19 -5 -41 -10 -49 -7 -11 -10 -4 -10 28 0 23 -4 42
-10 42 -5 0 -10 -7 -10 -15 0 -8 -7 -15 -15 -15 -8 0 -15 -4 -15 -10 0 -5 7
-10 15 -10 22 0 18 -21 -5 -27 -11 -3 -20 -12 -20 -19 0 -17 22 -18 38 -2 6 6
14 9 17 6 3 -3 -15 -24 -41 -47 -25 -24 -43 -45 -41 -48 7 -6 47 15 76 41 l24
21 -6 -51 c-6 -56 6 -90 23 -64 5 8 10 42 10 74 l0 59 30 -41 c24 -33 36 -42
60 -42 20 0 30 5 30 15 0 8 -6 15 -14 15 -7 0 -34 18 -60 41 -43 38 -46 44
-46 89 l0 49 42 3 c24 2 43 9 46 17 3 10 -5 12 -36 9 -33 -3 -42 0 -45 14 -4
13 1 18 14 18 23 0 25 25 3 34 -19 7 -14 10 -49 -19z"/>
<path d="M129 1645 c3 -74 1 -85 -13 -85 -14 0 -16 7 -10 35 5 27 3 35 -9 35
-10 0 -16 -15 -21 -47 -3 -25 -4 -48 -1 -51 2 -3 23 0 47 6 32 8 44 8 50 -1
13 -21 26 5 30 57 2 32 -1 51 -9 53 -7 3 -13 -10 -15 -33 -2 -21 -8 -39 -15
-41 -8 -3 -10 18 -6 76 5 75 4 81 -13 81 -17 0 -19 -7 -15 -85z"/>
<path d="M330 1620 l0 -50 41 0 c28 0 39 4 36 13 -2 6 -16 11 -31 10 -17 -1
-26 3 -26 13 0 8 9 14 20 14 11 0 20 5 20 10 0 6 -9 10 -20 10 -11 0 -20 7
-20 15 0 8 -4 15 -10 15 -5 0 -10 -22 -10 -50z"/>
</g>
</svg>
