<?xml version="1.0" standalone="no"?>
<!DOCTYPE svg PUBLIC "-//W3C//DTD SVG 20010904//EN"
 "http://www.w3.org/TR/2001/REC-SVG-20010904/DTD/svg10.dtd">
<svg version="1.0" xmlns="http://www.w3.org/2000/svg"
 width="50.000000pt" height="725.000000pt" viewBox="0 0 50.000000 725.000000"
 preserveAspectRatio="xMidYMid meet">
<metadata>
Created by potrace 1.16, written by Peter Selinger 2001-2019
</metadata>
<g transform="translate(0.000000,725.000000) scale(0.100000,-0.100000)"
fill="#000000" stroke="none">
<path d="M140 7040 c0 -73 3 -90 15 -90 12 0 15 15 15 74 0 41 3 81 6 90 4 12
0 16 -15 16 -20 0 -21 -5 -21 -90z"/>
<path d="M140 6595 c0 -50 -4 -85 -10 -85 -5 0 -10 16 -10 35 0 55 -26 45 -33
-12 -3 -27 -2 -51 1 -55 9 -8 112 23 112 34 0 4 -7 8 -16 8 -14 0 -16 12 -12
80 3 71 1 80 -14 80 -16 0 -18 -11 -18 -85z"/>
<path d="M140 6145 c0 -50 -4 -85 -10 -85 -5 0 -10 16 -10 35 0 23 -5 35 -14
35 -14 0 -30 -89 -18 -102 4 -4 27 0 51 8 35 12 46 12 52 2 13 -20 20 -4 26
56 5 48 3 56 -11 56 -12 0 -16 -10 -16 -40 0 -23 -5 -40 -11 -40 -8 0 -10 26
-7 80 3 71 1 80 -14 80 -16 0 -18 -11 -18 -85z"/>
<path d="M140 5695 c0 -50 -4 -85 -10 -85 -5 0 -10 16 -10 35 0 23 -5 35 -14
35 -14 0 -30 -89 -18 -102 4 -4 27 0 51 8 35 12 46 12 52 2 13 -20 20 -4 26
56 5 48 3 56 -11 56 -12 0 -16 -10 -16 -40 0 -23 -5 -40 -11 -40 -8 0 -10 26
-7 80 3 71 1 80 -14 80 -16 0 -18 -11 -18 -85z"/>
<path d="M235 5764 c5 -11 10 -36 13 -56 6 -58 23 -45 20 14 -2 43 -7 54 -22
56 -15 3 -17 0 -11 -14z"/>
<path d="M330 5340 c-14 -4 -42 -8 -64 -9 -32 -1 -37 -4 -30 -18 4 -10 9 -35
12 -55 6 -52 22 -48 22 6 0 41 2 44 31 50 59 12 60 11 53 -44 -9 -66 7 -64 28
3 16 48 16 53 0 65 -18 13 -17 13 -52 2z"/>
<path d="M140 5245 c0 -50 -4 -85 -10 -85 -5 0 -10 16 -10 35 0 23 -5 35 -14
35 -14 0 -30 -89 -18 -102 4 -4 27 0 51 8 35 12 46 12 52 2 13 -20 20 -4 26
56 5 48 3 56 -11 56 -12 0 -16 -10 -16 -40 0 -23 -5 -40 -11 -40 -8 0 -10 26
-7 80 3 71 1 80 -14 80 -16 0 -18 -11 -18 -85z"/>
<path d="M330 4890 c-14 -4 -42 -8 -64 -9 -32 -1 -37 -4 -30 -18 4 -10 9 -35
12 -55 4 -39 22 -54 22 -19 0 13 10 20 31 25 47 9 49 8 49 -19 0 -41 15 -28
32 28 16 48 16 53 0 65 -18 13 -17 13 -52 2z m30 -35 c0 -9 -9 -15 -22 -15
-13 0 -33 -3 -45 -6 -17 -5 -23 -2 -23 9 0 15 20 23 68 26 13 0 22 -5 22 -14z"/>
<path d="M140 4795 c0 -50 -4 -85 -10 -85 -5 0 -10 16 -10 35 0 23 -5 35 -14
35 -14 0 -30 -89 -18 -102 4 -4 27 0 51 8 35 12 46 12 52 2 13 -20 20 -4 26
56 5 48 3 56 -11 56 -12 0 -16 -10 -16 -40 0 -23 -5 -40 -11 -40 -8 0 -10 26
-7 80 3 71 1 80 -14 80 -16 0 -18 -11 -18 -85z"/>
<path d="M330 4440 c-14 -4 -42 -8 -64 -9 -32 -1 -37 -4 -30 -18 4 -10 9 -35
12 -55 3 -29 9 -38 23 -38 21 0 26 16 7 23 -19 7 -7 14 35 22 25 5 37 4 37 -4
0 -6 -11 -11 -25 -11 -14 0 -25 -4 -25 -10 0 -5 9 -10 19 -10 11 0 26 -2 33
-5 10 -4 19 11 30 47 15 49 16 54 0 66 -18 13 -17 13 -52 2z m30 -35 c0 -9 -9
-15 -22 -15 -13 0 -33 -3 -45 -6 -17 -5 -23 -2 -23 9 0 15 20 23 68 26 13 0
22 -5 22 -14z"/>
<path d="M140 4345 c0 -50 -4 -85 -10 -85 -5 0 -10 16 -10 35 0 23 -5 35 -14
35 -14 0 -30 -89 -18 -102 4 -4 27 0 51 8 35 12 46 12 52 2 13 -20 20 -4 26
56 5 48 3 56 -11 56 -12 0 -16 -10 -16 -40 0 -23 -5 -40 -11 -40 -8 0 -10 26
-7 80 3 71 1 80 -14 80 -16 0 -18 -11 -18 -85z"/>
<path d="M330 3990 c-14 -4 -42 -8 -64 -9 -32 -1 -37 -4 -30 -18 4 -10 9 -35
12 -55 3 -29 9 -38 23 -38 21 0 26 16 7 23 -19 7 -7 14 35 22 25 5 37 4 37 -4
0 -6 -11 -11 -25 -11 -14 0 -25 -4 -25 -10 0 -5 9 -10 19 -10 11 0 26 -2 33
-5 10 -4 19 11 30 47 15 49 16 54 0 66 -18 13 -17 13 -52 2z m30 -35 c0 -9 -9
-15 -22 -15 -13 0 -33 -3 -45 -6 -17 -5 -23 -2 -23 9 0 15 20 23 68 26 13 0
22 -5 22 -14z"/>
<path d="M140 3895 c0 -50 -4 -85 -10 -85 -5 0 -10 16 -10 35 0 23 -5 35 -14
35 -14 0 -30 -89 -18 -102 4 -4 27 0 51 8 35 12 46 12 52 2 13 -20 20 -4 26
56 5 48 3 56 -11 56 -12 0 -16 -10 -16 -40 0 -23 -5 -40 -11 -40 -8 0 -10 26
-7 80 3 71 1 80 -14 80 -16 0 -18 -11 -18 -85z"/>
<path d="M230 3780 c0 -40 4 -70 10 -70 6 0 10 30 10 70 0 40 -4 70 -10 70 -6
0 -10 -30 -10 -70z"/>
<path d="M330 3540 c-14 -4 -42 -8 -64 -9 -32 -1 -37 -4 -30 -18 4 -10 9 -35
12 -55 3 -29 9 -38 23 -38 21 0 26 16 7 23 -19 7 -7 14 35 22 25 5 37 4 37 -4
0 -6 -11 -11 -25 -11 -14 0 -25 -4 -25 -10 0 -5 9 -10 19 -10 11 0 26 -2 33
-5 10 -4 19 11 30 47 15 49 16 54 0 66 -18 13 -17 13 -52 2z m30 -35 c0 -9 -9
-15 -22 -15 -13 0 -33 -3 -45 -6 -17 -5 -23 -2 -23 9 0 15 20 23 68 26 13 0
22 -5 22 -14z"/>
<path d="M140 3445 c0 -50 -4 -85 -10 -85 -5 0 -10 16 -10 35 0 23 -5 35 -14
35 -14 0 -30 -89 -18 -102 4 -4 27 0 52 8 30 10 46 12 48 5 5 -16 22 -13 22 4
0 8 5 15 10 15 6 0 10 -22 10 -50 0 -66 18 -64 22 3 3 48 5 52 31 55 15 2 27
7 27 12 0 13 -74 18 -82 6 -4 -6 -8 6 -8 27 0 26 -4 37 -15 37 -11 0 -15 -11
-15 -40 0 -23 -5 -40 -11 -40 -8 0 -10 26 -7 80 3 71 1 80 -14 80 -16 0 -18
-11 -18 -85z"/>
<path d="M353 3403 c-44 -6 -42 -23 2 -23 34 0 35 -1 35 -41 0 -32 -4 -42 -20
-46 -24 -6 -25 -13 -6 -39 13 -17 16 -17 30 -4 20 20 38 130 24 148 -6 6 -16
11 -22 10 -6 0 -26 -3 -43 -5z"/>
<path d="M330 3090 c-14 -4 -42 -8 -64 -9 -32 -1 -37 -4 -30 -18 4 -10 9 -35
12 -55 3 -33 8 -38 29 -38 15 0 23 -5 20 -12 -2 -7 -17 -13 -33 -12 -16 0 -32
-4 -36 -10 -4 -6 -8 6 -8 27 0 26 -4 37 -15 37 -11 0 -15 -11 -15 -40 0 -23
-5 -40 -11 -40 -8 0 -10 26 -7 80 3 71 1 80 -14 80 -16 0 -18 -11 -18 -85 0
-50 -4 -85 -10 -85 -5 0 -10 16 -10 35 0 23 -5 35 -14 35 -14 0 -30 -89 -18
-102 4 -4 27 0 52 8 30 10 46 12 48 5 5 -16 22 -13 22 4 0 8 5 15 10 15 6 0
10 -22 10 -50 0 -66 18 -64 22 3 3 45 6 52 26 55 17 3 22 -2 22 -17 0 -12 5
-21 10 -21 6 0 10 11 10 25 0 22 4 25 35 25 34 0 35 -1 35 -41 0 -32 -4 -42
-20 -46 -24 -6 -25 -13 -6 -39 13 -17 16 -17 30 -4 19 19 38 130 24 147 -7 8
-25 10 -54 6 -37 -5 -44 -3 -44 12 0 13 6 16 23 11 21 -5 25 0 39 47 16 48 16
53 0 65 -18 13 -17 13 -52 2z m30 -35 c0 -8 -9 -15 -20 -15 -11 0 -20 7 -20
15 0 8 9 15 20 15 11 0 20 -7 20 -15z m-70 -10 c0 -8 -4 -15 -10 -15 -5 0 -10
7 -10 15 0 8 5 15 10 15 6 0 10 -7 10 -15z m60 -35 c0 -5 -7 -10 -15 -10 -8 0
-15 5 -15 10 0 6 7 10 15 10 8 0 15 -4 15 -10z m-55 -10 c-3 -5 -10 -10 -16
-10 -5 0 -9 5 -9 10 0 6 7 10 16 10 8 0 12 -4 9 -10z"/>
<path d="M330 2640 c-14 -4 -42 -8 -64 -9 -32 -1 -37 -4 -30 -18 4 -10 9 -35
12 -55 3 -33 8 -38 29 -38 15 0 23 -5 20 -12 -2 -7 -17 -13 -33 -12 -16 0 -32
-4 -36 -10 -4 -6 -8 6 -8 27 0 26 -4 37 -15 37 -11 0 -15 -11 -15 -40 0 -23
-5 -40 -11 -40 -8 0 -10 26 -7 80 3 71 1 80 -14 80 -16 0 -18 -11 -18 -85 0
-50 -4 -85 -10 -85 -5 0 -10 16 -10 35 0 23 -5 35 -14 35 -14 0 -30 -89 -18
-102 4 -4 27 0 52 8 30 10 46 12 48 5 5 -16 22 -13 22 4 0 8 5 15 10 15 6 0
10 -22 10 -50 0 -66 18 -64 22 3 3 45 6 52 26 55 28 4 31 -28 2 -35 -21 -6
-26 -18 -11 -27 11 -7 91 25 91 36 0 5 -9 6 -20 3 -16 -5 -20 -2 -20 14 0 17
6 21 35 21 34 0 35 -1 35 -41 0 -32 -4 -42 -20 -46 -24 -6 -25 -13 -6 -39 13
-17 16 -17 30 -4 19 19 38 130 24 147 -7 8 -25 10 -54 6 -37 -5 -44 -3 -44 12
0 13 6 16 23 11 21 -5 25 0 39 47 16 48 16 53 0 65 -18 13 -17 13 -52 2z m30
-35 c0 -8 -9 -15 -20 -15 -11 0 -20 7 -20 15 0 8 9 15 20 15 11 0 20 -7 20
-15z m-70 -10 c0 -8 -4 -15 -10 -15 -5 0 -10 7 -10 15 0 8 5 15 10 15 6 0 10
-7 10 -15z m60 -35 c0 -5 -7 -10 -15 -10 -8 0 -15 5 -15 10 0 6 7 10 15 10 8
0 15 -4 15 -10z m-55 -10 c-3 -5 -10 -10 -16 -10 -5 0 -9 5 -9 10 0 6 7 10 16
10 8 0 12 -4 9 -10z"/>
<path d="M330 2190 c-14 -4 -42 -8 -64 -9 -32 -1 -37 -4 -30 -18 4 -10 9 -35
12 -55 3 -33 8 -38 29 -38 15 0 23 -5 20 -12 -2 -7 -17 -13 -33 -12 -16 0 -32
-4 -36 -10 -4 -6 -8 6 -8 27 0 26 -4 37 -15 37 -11 0 -15 -11 -15 -40 0 -23
-5 -40 -11 -40 -8 0 -10 26 -7 80 3 71 1 80 -14 80 -16 0 -18 -11 -18 -85 0
-50 -4 -85 -10 -85 -5 0 -10 16 -10 35 0 23 -5 35 -14 35 -14 0 -30 -89 -18
-102 4 -4 27 0 52 8 30 10 46 12 48 5 5 -16 22 -13 22 4 0 8 5 15 10 15 6 0
10 -22 10 -50 0 -66 18 -64 22 3 3 45 6 52 26 55 28 4 31 -28 2 -35 -11 -3
-20 -9 -20 -14 0 -17 19 -18 55 -3 29 12 40 13 45 3 4 -6 13 -8 19 -5 6 4 11
2 11 -4 0 -7 -9 -14 -20 -17 -24 -6 -25 -13 -6 -39 13 -17 16 -17 30 -4 19 19
38 130 24 147 -7 8 -25 10 -54 6 -37 -5 -44 -3 -44 12 0 13 6 16 23 11 21 -5
25 0 39 47 16 48 16 53 0 65 -18 13 -17 13 -52 2z m30 -35 c0 -8 -9 -15 -20
-15 -11 0 -20 7 -20 15 0 8 9 15 20 15 11 0 20 -7 20 -15z m-70 -10 c0 -8 -4
-15 -10 -15 -5 0 -10 7 -10 15 0 8 5 15 10 15 6 0 10 -7 10 -15z m60 -35 c0
-5 -7 -10 -15 -10 -8 0 -15 5 -15 10 0 6 7 10 15 10 8 0 15 -4 15 -10z m-55
-10 c-3 -5 -10 -10 -16 -10 -5 0 -9 5 -9 10 0 6 7 10 16 10 8 0 12 -4 9 -10z
m95 -91 c0 -19 -1 -19 -16 -5 -20 20 -34 20 -34 1 0 -8 -4 -15 -10 -15 -5 0
-10 9 -10 20 0 16 7 20 35 20 29 0 35 -4 35 -21z"/>
</g>
</svg>
