<?xml version="1.0" standalone="no"?>
<!DOCTYPE svg PUBLIC "-//W3C//DTD SVG 20010904//EN"
 "http://www.w3.org/TR/2001/REC-SVG-20010904/DTD/svg10.dtd">
<svg version="1.0" xmlns="http://www.w3.org/2000/svg"
 width="95.000000pt" height="725.000000pt" viewBox="0 0 95.000000 725.000000"
 preserveAspectRatio="xMidYMid meet">
<metadata>
Created by potrace 1.16, written by Peter Selinger 2001-2019
</metadata>
<g transform="translate(0.000000,725.000000) scale(0.100000,-0.100000)"
fill="#000000" stroke="none">
<path d="M234 7140 c5 -26 2 -32 -20 -40 -34 -13 -34 -13 -31 11 1 12 -4 24
-10 26 -8 3 -13 -3 -13 -14 0 -11 -6 -25 -12 -32 -11 -10 -9 -15 7 -27 19 -14
19 -15 -3 -20 -12 -4 -22 -11 -22 -16 0 -6 9 -8 20 -5 11 3 20 2 20 -3 0 -4
-18 -10 -40 -14 -22 -3 -40 -11 -40 -17 0 -8 12 -9 33 -5 l32 6 -25 -19 c-31
-25 -19 -39 15 -17 14 9 25 12 25 6 0 -5 -4 -10 -10 -10 -5 0 -10 -7 -10 -15
0 -11 -11 -15 -41 -15 -28 0 -39 -4 -36 -12 2 -7 18 -12 36 -12 21 1 31 -3 31
-12 0 -8 6 -14 13 -14 7 0 4 -7 -7 -15 -26 -20 -13 -31 19 -17 20 9 30 9 45 0
26 -16 37 -3 17 20 -11 12 -13 22 -7 32 5 8 10 23 10 34 0 15 -5 17 -26 12
-22 -6 -25 -4 -20 9 3 9 6 21 6 27 0 6 6 5 15 -2 9 -7 19 -10 23 -6 4 4 -1 13
-11 21 -17 12 -16 13 3 18 16 4 21 -1 26 -29 7 -36 12 -38 76 -28 33 6 39 11
48 43 15 53 14 54 -35 49 -38 -5 -44 -3 -34 8 9 11 8 18 -1 29 -10 12 -10 15
4 15 9 0 16 -7 16 -15 0 -8 4 -15 10 -15 11 0 32 69 24 82 -10 16 -34 8 -34
-12 0 -11 -6 -20 -14 -20 -8 0 -22 -3 -32 -7 -15 -5 -16 -2 -10 30 6 33 5 37
-15 37 -19 0 -21 -4 -15 -30z m36 -72 c0 -24 -16 -38 -48 -44 -31 -6 -46 9
-19 19 9 4 9 8 -2 15 -11 8 -9 11 10 15 45 8 59 7 59 -5z m72 -73 c-2 -15 -11
-25 -21 -25 -14 0 -14 2 -1 11 11 8 12 12 3 16 -20 7 -15 23 6 23 14 0 17 -6
13 -25z m-56 -10 c2 -32 -12 -32 -18 0 -3 15 -1 25 6 25 6 0 12 -11 12 -25z
m-92 -90 c-7 -17 -20 -20 -28 -6 -7 10 3 21 20 21 8 0 11 -6 8 -15z"/>
<path d="M685 7133 c7 -38 12 -50 19 -42 2 2 6 21 10 42 6 33 5 37 -15 37 -19
0 -21 -4 -14 -37z"/>
<path d="M234 6690 c5 -26 2 -32 -20 -40 -34 -13 -34 -13 -31 11 1 12 -4 24
-10 26 -8 3 -13 -3 -13 -14 0 -11 -6 -25 -12 -32 -11 -10 -9 -15 7 -27 19 -14
19 -15 -3 -20 -12 -4 -22 -11 -22 -16 0 -6 9 -8 20 -5 11 3 20 2 20 -3 0 -4
-18 -10 -40 -14 -22 -3 -40 -11 -40 -17 0 -8 12 -9 33 -5 l32 6 -25 -19 c-31
-25 -19 -39 15 -17 14 9 25 12 25 6 0 -5 -4 -10 -10 -10 -5 0 -10 -7 -10 -15
0 -11 -11 -15 -41 -15 -28 0 -39 -4 -36 -12 2 -7 18 -12 36 -12 21 1 31 -3 31
-12 0 -8 6 -14 13 -14 7 0 4 -7 -7 -15 -26 -20 -13 -31 19 -17 19 9 30 9 45 0
16 -10 22 -8 39 13 11 13 26 38 32 54 15 36 26 45 56 45 17 0 24 9 32 38 16
54 15 55 -34 50 -38 -5 -44 -3 -34 8 9 11 8 18 -1 29 -10 12 -10 15 4 15 9 0
16 -7 16 -15 0 -8 4 -15 10 -15 11 0 32 69 24 82 -10 16 -34 8 -34 -12 0 -11
-6 -20 -14 -20 -8 0 -22 -3 -32 -7 -15 -5 -16 -2 -10 30 6 33 5 37 -15 37 -19
0 -21 -4 -15 -30z m36 -72 c0 -24 -16 -38 -48 -44 -31 -6 -46 9 -19 19 9 4 9
8 -2 15 -11 8 -9 11 10 15 45 8 59 7 59 -5z m72 -73 c-2 -15 -11 -25 -21 -25
-14 0 -14 2 -1 11 11 8 12 12 3 16 -20 7 -15 23 6 23 14 0 17 -6 13 -25z m-80
-55 c10 -8 -25 -76 -37 -71 -5 1 -8 8 -6 15 2 6 6 22 9 35 4 22 2 23 -23 17
-23 -6 -26 -4 -21 9 3 9 6 21 6 27 0 6 6 5 15 -2 9 -7 19 -10 23 -6 4 4 -1 14
-11 21 -18 13 -18 13 0 17 13 3 21 -5 27 -27 6 -16 13 -32 18 -35z m24 45 c2
-32 -12 -32 -18 0 -3 15 -1 25 6 25 6 0 12 -11 12 -25z m-92 -90 c-7 -17 -20
-20 -28 -6 -7 10 3 21 20 21 8 0 11 -6 8 -15z"/>
<path d="M684 6690 c5 -26 2 -32 -20 -40 -34 -13 -34 -13 -31 11 1 12 -4 24
-10 26 -8 3 -13 -3 -13 -14 0 -11 -5 -24 -12 -31 -8 -8 -9 -15 -2 -22 13 -13
184 18 184 33 0 5 -15 7 -36 4 l-36 -6 6 34 c6 31 5 35 -15 35 -19 0 -21 -4
-15 -30z"/>
<path d="M234 6240 c5 -26 2 -32 -20 -40 -34 -13 -34 -13 -31 11 1 12 -4 24
-10 26 -8 3 -13 -3 -13 -14 0 -11 -6 -25 -12 -32 -11 -10 -9 -15 7 -27 19 -14
19 -15 -3 -20 -12 -4 -22 -11 -22 -16 0 -6 9 -8 20 -5 11 3 20 2 20 -3 0 -4
-18 -10 -40 -14 -22 -3 -40 -11 -40 -17 0 -8 12 -9 33 -5 l32 6 -25 -19 c-31
-25 -19 -39 15 -17 14 9 25 12 25 6 0 -5 -4 -10 -10 -10 -5 0 -10 -7 -10 -15
0 -11 -11 -15 -41 -15 -28 0 -39 -4 -36 -12 2 -7 18 -12 36 -12 21 1 31 -3 31
-12 0 -8 6 -14 13 -14 7 0 4 -7 -7 -15 -26 -20 -13 -31 19 -17 20 9 30 9 45 0
21 -14 32 -4 73 66 l18 31 -6 -37 c-9 -60 6 -78 68 -78 63 0 82 10 72 39 -6
21 -25 30 -25 11 0 -16 -41 -32 -66 -26 -23 6 -25 11 -22 56 2 39 7 50 20 50
11 0 21 13 27 38 16 54 15 55 -34 50 -38 -5 -44 -3 -34 8 9 11 8 18 -1 29 -10
12 -10 15 4 15 9 0 16 -7 16 -15 0 -8 4 -15 10 -15 11 0 32 69 24 82 -10 16
-34 8 -34 -12 0 -11 -6 -20 -14 -20 -8 0 -22 -3 -32 -7 -15 -5 -16 -2 -10 30
6 33 5 37 -15 37 -19 0 -21 -4 -15 -30z m36 -72 c0 -24 -16 -38 -48 -44 -31
-6 -46 9 -19 19 9 4 9 8 -2 15 -11 8 -9 11 10 15 45 8 59 7 59 -5z m72 -73
c-2 -15 -11 -25 -21 -25 -14 0 -14 2 -1 11 11 8 12 12 3 16 -20 7 -15 23 6 23
14 0 17 -6 13 -25z m-80 -55 c10 -8 -25 -76 -37 -71 -5 1 -8 8 -6 15 2 6 6 22
9 35 4 22 2 23 -23 17 -23 -6 -26 -4 -21 9 3 9 6 21 6 27 0 6 6 5 15 -2 9 -7
19 -10 23 -6 4 4 -1 14 -11 21 -18 13 -18 13 0 17 13 3 21 -5 27 -27 6 -16 13
-32 18 -35z m24 45 c2 -32 -12 -32 -18 0 -3 15 -1 25 6 25 6 0 12 -11 12 -25z
m-92 -90 c-7 -17 -20 -20 -28 -6 -7 10 3 21 20 21 8 0 11 -6 8 -15z"/>
<path d="M684 6240 c5 -26 2 -32 -20 -40 -34 -13 -34 -13 -31 11 1 12 -4 24
-10 26 -8 3 -13 -3 -13 -14 0 -11 -5 -24 -12 -31 -9 -9 -9 -15 -1 -23 7 -7 32
-6 86 5 92 19 87 19 87 1 0 -8 4 -15 10 -15 11 0 32 69 24 82 -10 16 -34 8
-34 -12 0 -11 -6 -20 -14 -20 -8 0 -22 -3 -32 -7 -15 -5 -16 -2 -10 30 6 33 5
37 -15 37 -19 0 -21 -4 -15 -30z"/>
<path d="M234 5790 c5 -26 2 -32 -20 -40 -34 -13 -34 -13 -31 11 1 12 -4 24
-10 26 -8 3 -13 -3 -13 -14 0 -11 -6 -25 -12 -32 -11 -10 -9 -15 7 -27 19 -14
19 -15 -3 -20 -12 -4 -22 -11 -22 -16 0 -6 9 -8 20 -5 11 3 20 2 20 -3 0 -4
-18 -10 -40 -14 -22 -3 -40 -11 -40 -17 0 -8 12 -9 33 -5 l32 6 -25 -19 c-31
-25 -19 -39 15 -17 14 9 25 12 25 6 0 -5 -4 -10 -10 -10 -5 0 -10 -7 -10 -15
0 -11 -11 -15 -41 -15 -28 0 -39 -4 -36 -12 2 -7 18 -12 36 -12 21 1 31 -3 31
-12 0 -8 6 -14 13 -14 7 0 4 -7 -7 -15 -26 -20 -13 -31 19 -17 20 9 30 9 45 0
21 -14 32 -4 73 66 l18 31 -6 -37 c-9 -59 7 -78 65 -78 75 0 94 13 71 49 -7
11 -13 9 -30 -8 -22 -22 -47 -26 -70 -12 -12 8 -10 11 11 16 21 5 25 12 24 38
-2 40 -19 45 -33 10 l-11 -28 2 32 c1 24 6 33 18 33 11 0 21 13 27 38 16 54
15 55 -34 50 -38 -5 -44 -3 -34 8 9 11 8 18 -1 29 -10 12 -10 15 4 15 9 0 16
-7 16 -15 0 -8 4 -15 10 -15 11 0 32 69 24 82 -10 16 -34 8 -34 -12 0 -11 -6
-20 -14 -20 -8 0 -22 -3 -32 -7 -15 -5 -16 -2 -10 30 6 33 5 37 -15 37 -19 0
-21 -4 -15 -30z m36 -72 c0 -24 -16 -38 -48 -44 -31 -6 -46 9 -19 19 9 4 9 8
-2 15 -11 8 -9 11 10 15 45 8 59 7 59 -5z m72 -73 c-2 -15 -11 -25 -21 -25
-14 0 -14 2 -1 11 11 8 12 12 3 16 -20 7 -15 23 6 23 14 0 17 -6 13 -25z m-80
-55 c10 -8 -25 -76 -37 -71 -5 1 -8 8 -6 15 2 6 6 22 9 35 4 22 2 23 -23 17
-23 -6 -26 -4 -21 9 3 9 6 21 6 27 0 6 6 5 15 -2 9 -7 19 -10 23 -6 4 4 -1 14
-11 21 -18 13 -18 13 0 17 13 3 21 -5 27 -27 6 -16 13 -32 18 -35z m24 45 c2
-32 -12 -32 -18 0 -3 15 -1 25 6 25 6 0 12 -11 12 -25z m-92 -90 c-7 -17 -20
-20 -28 -6 -7 10 3 21 20 21 8 0 11 -6 8 -15z"/>
<path d="M684 5790 c5 -26 2 -32 -20 -40 -34 -13 -34 -13 -31 11 1 12 -4 24
-10 26 -8 3 -13 -3 -13 -14 0 -11 -6 -25 -12 -32 -11 -10 -9 -15 7 -27 19 -14
19 -15 -3 -20 -21 -6 -31 -24 -13 -24 37 0 93 38 59 41 -18 1 29 15 80 23 34
5 42 3 42 -9 0 -8 4 -15 10 -15 11 0 32 69 24 82 -10 16 -34 8 -34 -12 0 -11
-6 -20 -14 -20 -8 0 -22 -3 -32 -7 -15 -5 -16 -2 -10 30 6 33 5 37 -15 37 -19
0 -21 -4 -15 -30z"/>
<path d="M234 5340 c5 -26 2 -32 -20 -40 -34 -13 -34 -13 -31 11 1 12 -4 24
-10 26 -8 3 -13 -3 -13 -14 0 -11 -6 -25 -12 -32 -11 -10 -9 -15 7 -27 19 -14
19 -15 -3 -20 -12 -4 -22 -11 -22 -16 0 -6 9 -8 20 -5 11 3 20 2 20 -3 0 -4
-18 -10 -40 -14 -22 -3 -40 -11 -40 -17 0 -8 12 -9 33 -5 l32 6 -25 -19 c-31
-25 -19 -39 15 -17 14 9 25 12 25 6 0 -5 -4 -10 -10 -10 -5 0 -10 -7 -10 -15
0 -11 -11 -15 -41 -15 -28 0 -39 -4 -36 -12 2 -7 18 -12 36 -12 21 1 31 -3 31
-12 0 -8 6 -14 13 -14 7 0 4 -7 -7 -15 -26 -20 -13 -31 19 -17 20 9 30 9 45 0
21 -14 32 -4 73 66 l18 31 -6 -37 c-9 -59 7 -78 65 -78 75 0 94 13 71 49 -7
11 -13 9 -30 -8 -22 -22 -47 -26 -70 -12 -19 12 21 25 50 16 17 -6 20 -3 17
12 -2 10 -11 17 -21 17 -11 -1 -16 5 -14 19 3 31 -18 31 -30 0 l-11 -28 2 32
c1 24 6 33 18 33 11 0 21 13 27 38 16 54 15 55 -34 50 -38 -5 -44 -3 -34 8 9
11 8 18 -1 29 -10 12 -10 15 4 15 9 0 16 -7 16 -15 0 -8 4 -15 10 -15 11 0 32
69 24 82 -10 16 -34 8 -34 -12 0 -11 -6 -20 -14 -20 -8 0 -22 -3 -32 -7 -15
-5 -16 -2 -10 30 6 33 5 37 -15 37 -19 0 -21 -4 -15 -30z m36 -72 c0 -24 -16
-38 -48 -44 -31 -6 -46 9 -19 19 9 4 9 8 -2 15 -11 8 -9 11 10 15 45 8 59 7
59 -5z m72 -73 c-2 -15 -11 -25 -21 -25 -14 0 -14 2 -1 11 11 8 12 12 3 16
-20 7 -15 23 6 23 14 0 17 -6 13 -25z m-80 -55 c10 -8 -25 -76 -37 -71 -5 1
-8 8 -6 15 2 6 6 22 9 35 4 22 2 23 -23 17 -23 -6 -26 -4 -21 9 3 9 6 21 6 27
0 6 6 5 15 -2 9 -7 19 -10 23 -6 4 4 -1 14 -11 21 -18 13 -18 13 0 17 13 3 21
-5 27 -27 6 -16 13 -32 18 -35z m24 45 c2 -32 -12 -32 -18 0 -3 15 -1 25 6 25
6 0 12 -11 12 -25z m-92 -90 c-7 -17 -20 -20 -28 -6 -7 10 3 21 20 21 8 0 11
-6 8 -15z"/>
<path d="M684 5340 c5 -26 2 -32 -20 -40 -34 -13 -34 -13 -31 11 1 12 -4 24
-10 26 -8 3 -13 -3 -13 -14 0 -11 -6 -25 -12 -32 -11 -10 -9 -15 7 -27 19 -14
19 -15 -3 -20 -21 -6 -31 -24 -13 -24 37 0 93 38 59 41 -18 1 29 15 80 23 34
5 42 3 42 -9 0 -8 4 -15 10 -15 11 0 32 69 24 82 -10 16 -34 8 -34 -12 0 -11
-6 -20 -14 -20 -8 0 -22 -3 -32 -7 -15 -5 -16 -2 -10 30 6 33 5 37 -15 37 -19
0 -21 -4 -15 -30z"/>
<path d="M640 5210 c0 -5 9 -10 20 -10 11 0 20 5 20 10 0 6 -9 10 -20 10 -11
0 -20 -4 -20 -10z"/>
<path d="M558 5203 c-32 -8 -20 -26 13 -19 17 3 38 6 45 6 8 0 14 5 14 10 0
10 -40 12 -72 3z"/>
<path d="M684 4890 c5 -26 2 -32 -20 -40 -34 -13 -34 -13 -31 11 1 12 -4 24
-10 26 -8 3 -13 -3 -13 -14 0 -11 -6 -25 -12 -32 -11 -10 -9 -15 7 -27 19 -14
19 -15 -3 -20 -12 -4 -22 -11 -22 -16 0 -6 9 -8 20 -5 11 3 20 2 20 -3 0 -4
-18 -10 -40 -14 -22 -3 -40 -11 -40 -17 0 -7 14 -8 40 -4 36 6 40 5 40 -14 0
-12 5 -21 10 -21 6 0 10 11 10 25 0 18 5 25 20 25 11 0 20 5 20 10 0 6 -9 10
-20 10 -22 0 -27 15 -7 23 9 4 9 8 -1 15 -10 7 -4 11 25 16 21 4 50 9 66 12
20 4 27 2 27 -10 0 -9 4 -16 10 -16 11 0 32 69 24 82 -10 16 -34 8 -34 -12 0
-11 -6 -20 -14 -20 -8 0 -22 -3 -32 -7 -15 -5 -16 -2 -10 30 6 33 5 37 -15 37
-19 0 -21 -4 -15 -30z"/>
<path d="M684 4440 c5 -26 2 -32 -20 -40 -34 -13 -34 -13 -31 11 1 12 -4 24
-10 26 -8 3 -13 -3 -13 -14 0 -11 -6 -25 -12 -32 -11 -10 -9 -15 7 -27 19 -14
19 -15 -3 -20 -12 -4 -22 -11 -22 -16 0 -6 9 -8 20 -5 11 3 20 2 20 -3 0 -4
-18 -10 -40 -14 -22 -3 -40 -11 -40 -17 0 -8 12 -9 33 -5 l32 6 -25 -19 c-31
-25 -19 -39 15 -17 14 9 25 12 25 6 0 -5 5 -10 10 -10 6 0 10 11 10 25 0 18 5
25 20 25 11 0 20 5 20 10 0 6 -9 10 -20 10 -22 0 -27 15 -7 23 9 4 9 8 -1 15
-10 7 -4 11 25 16 21 4 50 9 66 12 20 4 27 2 27 -10 0 -9 4 -16 10 -16 11 0
32 69 24 82 -10 16 -34 8 -34 -12 0 -11 -6 -20 -14 -20 -8 0 -22 -3 -32 -7
-15 -5 -16 -2 -10 30 6 33 5 37 -15 37 -19 0 -21 -4 -15 -30z"/>
<path d="M684 3990 c5 -26 2 -32 -20 -40 -34 -13 -34 -13 -31 11 1 12 -4 24
-10 26 -8 3 -13 -3 -13 -14 0 -11 -6 -25 -12 -32 -11 -10 -9 -15 7 -27 19 -14
19 -15 -3 -20 -12 -4 -22 -11 -22 -16 0 -6 9 -8 20 -5 11 3 20 2 20 -3 0 -4
-18 -10 -40 -14 -22 -3 -40 -11 -40 -17 0 -8 12 -9 33 -5 l32 6 -25 -19 c-31
-25 -19 -39 15 -17 14 9 25 12 25 6 0 -5 5 -10 10 -10 6 0 10 7 10 16 0 14 3
14 15 4 9 -7 19 -10 23 -6 4 4 -2 14 -12 22 -17 12 -18 14 -3 14 9 0 17 5 17
10 0 6 -9 10 -20 10 -22 0 -27 15 -7 23 9 4 9 8 -1 15 -10 7 -4 11 25 16 21 4
50 9 66 12 20 4 27 2 27 -10 0 -9 4 -16 10 -16 11 0 32 69 24 82 -10 16 -34 8
-34 -12 0 -11 -6 -20 -14 -20 -8 0 -22 -3 -32 -7 -15 -5 -16 -2 -10 30 6 33 5
37 -15 37 -19 0 -21 -4 -15 -30z"/>
<path d="M684 3540 c5 -26 2 -32 -20 -40 -34 -13 -34 -13 -31 11 1 12 -4 24
-10 26 -8 3 -13 -3 -13 -14 0 -11 -6 -25 -12 -32 -11 -10 -9 -15 7 -27 19 -14
19 -15 -3 -20 -12 -4 -22 -11 -22 -16 0 -6 9 -8 20 -5 11 3 20 2 20 -3 0 -4
-18 -10 -40 -14 -22 -3 -40 -11 -40 -17 0 -8 12 -9 33 -5 l32 6 -25 -19 c-31
-25 -19 -39 15 -17 14 9 25 12 25 7 0 -5 -5 -11 -10 -13 -6 -2 -13 -19 -16
-39 -5 -29 -3 -37 12 -42 11 -3 31 -14 46 -23 28 -18 46 -15 33 6 -4 7 -22 18
-40 26 l-33 13 16 45 c13 35 19 42 29 34 8 -6 17 -8 21 -4 4 4 -2 14 -12 22
-17 12 -18 14 -3 14 9 0 17 5 17 10 0 6 -9 10 -20 10 -22 0 -27 15 -7 23 9 4
9 8 -1 15 -10 7 -4 11 25 16 21 4 50 9 66 12 20 4 27 2 27 -10 0 -9 4 -16 10
-16 11 0 32 69 24 82 -10 16 -34 8 -34 -12 0 -11 -6 -20 -14 -20 -8 0 -22 -3
-32 -7 -15 -5 -16 -2 -10 30 6 33 5 37 -15 37 -19 0 -21 -4 -15 -30z"/>
<path d="M684 3090 c5 -26 2 -32 -20 -40 -34 -13 -34 -13 -31 11 1 12 -4 24
-10 26 -8 3 -13 -3 -13 -14 0 -11 -6 -25 -12 -32 -11 -10 -9 -15 7 -27 19 -14
19 -15 -3 -20 -12 -4 -22 -11 -22 -16 0 -6 9 -8 20 -5 11 3 20 2 20 -3 0 -4
-18 -10 -40 -14 -22 -3 -40 -11 -40 -17 0 -8 12 -9 33 -5 l32 6 -25 -19 c-31
-25 -19 -39 15 -17 14 9 25 12 25 6 0 -5 -4 -10 -10 -10 -15 0 -25 -71 -10
-80 9 -6 8 -10 -6 -18 -27 -15 -9 -27 21 -14 20 9 30 9 45 0 26 -16 37 -3 17
20 -11 12 -13 22 -7 32 15 23 12 50 -5 50 -8 0 -15 -8 -15 -17 0 -25 -16 -47
-28 -39 -6 3 -4 22 6 50 13 35 19 42 29 34 8 -6 17 -8 21 -4 4 4 -2 14 -12 22
-17 12 -18 14 -3 14 9 0 17 5 17 10 0 6 -9 10 -20 10 -22 0 -27 15 -7 23 9 4
9 8 -1 15 -10 7 -4 11 25 16 21 4 50 9 66 12 20 4 27 2 27 -10 0 -9 4 -16 10
-16 11 0 32 69 24 82 -10 16 -34 8 -34 -12 0 -11 -6 -20 -14 -20 -8 0 -22 -3
-32 -7 -15 -5 -16 -2 -10 30 6 33 5 37 -15 37 -19 0 -21 -4 -15 -30z"/>
<path d="M684 2640 c5 -26 2 -32 -20 -40 -34 -13 -34 -13 -31 11 1 12 -4 24
-10 26 -8 3 -13 -3 -13 -14 0 -11 -6 -25 -12 -32 -11 -10 -9 -15 7 -27 19 -14
19 -15 -3 -20 -12 -4 -22 -11 -22 -16 0 -6 9 -8 20 -5 11 3 20 2 20 -3 0 -4
-18 -10 -40 -14 -22 -3 -40 -11 -40 -17 0 -8 12 -9 33 -5 l32 6 -25 -19 c-31
-25 -19 -39 15 -17 14 9 25 12 25 6 0 -5 -4 -10 -10 -10 -5 0 -10 -7 -10 -15
0 -11 -11 -15 -41 -15 -28 0 -39 -4 -36 -12 2 -7 18 -12 36 -12 21 1 31 -3 31
-12 0 -8 6 -14 13 -14 7 0 4 -7 -7 -15 -26 -20 -13 -31 19 -17 20 9 30 9 45 0
26 -16 37 -3 17 20 -11 12 -13 22 -7 32 5 8 10 23 10 34 0 15 -5 17 -26 12
-22 -6 -25 -4 -20 9 3 9 6 21 6 27 0 6 6 5 15 -2 9 -7 19 -10 23 -6 4 4 -2 14
-12 22 -17 12 -18 14 -3 14 9 0 17 5 17 10 0 6 -9 10 -20 10 -22 0 -27 15 -7
23 9 4 9 8 -1 15 -10 7 -4 11 25 16 21 4 50 9 66 12 20 4 27 2 27 -10 0 -9 4
-16 10 -16 11 0 32 69 24 82 -10 16 -34 8 -34 -12 0 -11 -6 -20 -14 -20 -8 0
-22 -3 -32 -7 -15 -5 -16 -2 -10 30 6 33 5 37 -15 37 -19 0 -21 -4 -15 -30z
m-40 -245 c-7 -17 -20 -20 -28 -6 -7 10 3 21 20 21 8 0 11 -6 8 -15z"/>
<path d="M684 2190 c5 -26 2 -32 -20 -40 -34 -13 -34 -13 -31 11 1 12 -4 24
-10 26 -8 3 -13 -3 -13 -14 0 -11 -6 -25 -12 -32 -11 -10 -9 -15 7 -27 19 -14
19 -15 -3 -20 -12 -4 -22 -11 -22 -16 0 -6 9 -8 20 -5 11 3 20 2 20 -3 0 -4
-18 -10 -40 -14 -22 -3 -40 -11 -40 -17 0 -8 12 -9 33 -5 l32 6 -25 -19 c-31
-25 -19 -39 15 -17 14 9 25 12 25 6 0 -5 -4 -10 -10 -10 -5 0 -10 -7 -10 -15
0 -11 -11 -15 -41 -15 -28 0 -39 -4 -36 -12 2 -7 18 -12 36 -12 21 1 31 -3 31
-12 0 -8 6 -14 13 -14 7 0 4 -7 -7 -15 -26 -20 -13 -31 19 -17 20 9 30 9 45 0
26 -16 37 -3 17 20 -11 12 -13 22 -7 32 5 8 10 23 10 34 0 15 -5 17 -26 12
-22 -6 -25 -4 -20 9 3 9 6 21 6 27 0 6 6 5 15 -2 9 -7 19 -10 23 -6 4 4 -2 14
-12 22 -17 12 -18 14 -3 14 9 0 17 5 17 10 0 6 -9 10 -20 10 -22 0 -27 15 -7
23 9 4 9 8 -1 15 -10 7 -5 11 18 16 50 9 52 8 45 -24 -8 -35 4 -39 30 -10 15
16 15 22 5 35 -10 12 -10 15 4 15 9 0 16 -7 16 -15 0 -8 4 -15 10 -15 11 0 32
69 24 82 -10 16 -34 8 -34 -12 0 -11 -6 -20 -14 -20 -8 0 -22 -3 -32 -7 -15
-5 -16 -2 -10 30 6 33 5 37 -15 37 -19 0 -21 -4 -15 -30z m-40 -245 c-7 -17
-20 -20 -28 -6 -7 10 3 21 20 21 8 0 11 -6 8 -15z"/>
<path d="M684 1740 c5 -26 2 -32 -20 -40 -34 -13 -34 -13 -31 11 1 12 -4 24
-10 26 -8 3 -13 -3 -13 -14 0 -11 -6 -25 -12 -32 -11 -10 -9 -15 7 -27 19 -14
19 -15 -3 -20 -12 -4 -22 -11 -22 -16 0 -6 9 -8 20 -5 11 3 20 2 20 -3 0 -4
-18 -10 -40 -14 -22 -3 -40 -11 -40 -17 0 -8 12 -9 33 -5 l32 6 -25 -19 c-31
-25 -19 -39 15 -17 14 9 25 12 25 6 0 -5 -4 -10 -10 -10 -5 0 -10 -7 -10 -15
0 -11 -11 -15 -41 -15 -28 0 -39 -4 -36 -12 2 -7 18 -12 36 -12 21 1 31 -3 31
-12 0 -8 6 -14 13 -14 7 0 4 -7 -7 -15 -26 -20 -13 -31 19 -17 20 9 30 9 45 0
26 -16 37 -3 17 20 -11 12 -13 22 -7 32 5 8 10 23 10 34 0 15 -5 17 -26 12
-22 -6 -25 -4 -20 9 3 9 6 21 6 27 0 6 6 5 15 -2 9 -7 19 -10 23 -6 4 4 -1 13
-11 21 -17 12 -16 13 3 18 16 4 21 -1 26 -29 9 -46 28 -44 21 2 -5 30 -2 39
21 59 23 20 24 25 13 39 -11 14 -11 16 3 16 9 0 16 -7 16 -15 0 -8 4 -15 10
-15 11 0 32 69 24 82 -10 16 -34 8 -34 -12 0 -11 -6 -20 -14 -20 -8 0 -22 -3
-32 -7 -15 -5 -16 -2 -10 30 6 33 5 37 -15 37 -19 0 -21 -4 -15 -30z m36 -72
c0 -24 -16 -38 -48 -44 -31 -6 -46 9 -19 19 9 4 9 8 -2 15 -11 8 -9 11 10 15
45 8 59 7 59 -5z m-76 -173 c-7 -17 -20 -20 -28 -6 -7 10 3 21 20 21 8 0 11
-6 8 -15z"/>
<path d="M684 1290 c5 -26 2 -32 -20 -40 -34 -13 -34 -13 -31 11 1 12 -4 24
-10 26 -8 3 -13 -3 -13 -14 0 -11 -6 -25 -12 -32 -11 -10 -9 -15 7 -27 19 -14
19 -15 -3 -20 -12 -4 -22 -11 -22 -16 0 -6 9 -8 20 -5 11 3 20 2 20 -3 0 -4
-18 -10 -40 -14 -22 -3 -40 -11 -40 -17 0 -8 12 -9 33 -5 l32 6 -25 -19 c-31
-25 -19 -39 15 -17 14 9 25 12 25 6 0 -5 -4 -10 -10 -10 -5 0 -10 -7 -10 -15
0 -11 -11 -15 -41 -15 -28 0 -39 -4 -36 -12 2 -7 18 -12 36 -12 21 1 31 -3 31
-12 0 -8 6 -14 13 -14 7 0 4 -7 -7 -15 -26 -20 -13 -31 19 -17 20 9 30 9 45 0
26 -16 37 -3 17 20 -11 12 -13 22 -7 32 5 8 10 23 10 34 0 15 -5 17 -26 12
-22 -6 -25 -4 -20 9 3 9 6 21 6 27 0 6 6 5 15 -2 9 -7 19 -10 23 -6 4 4 -1 13
-11 21 -17 12 -16 13 3 18 16 4 21 -1 26 -29 8 -46 28 -45 21 1 -3 19 -3 35 1
35 4 0 15 12 25 26 15 20 16 28 7 39 -10 12 -9 15 4 15 9 0 16 -7 16 -15 0 -8
4 -15 10 -15 11 0 32 69 24 82 -10 16 -34 8 -34 -12 0 -11 -6 -20 -14 -20 -8
0 -22 -3 -32 -7 -15 -5 -16 -2 -10 30 6 33 5 37 -15 37 -19 0 -21 -4 -15 -30z
m36 -72 c0 -24 -16 -38 -48 -44 -31 -6 -46 9 -19 19 9 4 9 8 -2 15 -11 8 -9
11 10 15 45 8 59 7 59 -5z m-76 -173 c-7 -17 -20 -20 -28 -6 -7 10 3 21 20 21
8 0 11 -6 8 -15z"/>
<path d="M760 1180 c0 -5 9 -10 19 -10 17 0 19 -4 10 -32 -11 -41 -12 -38 6
-38 8 0 19 16 24 38 15 52 15 52 -24 52 -19 0 -35 -4 -35 -10z"/>
<path d="M684 840 c5 -26 2 -32 -20 -40 -34 -13 -34 -13 -31 11 1 12 -4 24
-10 26 -8 3 -13 -3 -13 -14 0 -11 -6 -25 -12 -32 -11 -10 -9 -15 7 -27 19 -14
19 -15 -3 -20 -12 -4 -22 -11 -22 -16 0 -6 9 -8 20 -5 11 3 20 2 20 -3 0 -4
-18 -10 -40 -14 -22 -3 -40 -11 -40 -17 0 -8 12 -9 33 -5 l32 6 -25 -19 c-31
-25 -19 -39 15 -17 14 9 25 12 25 6 0 -5 -4 -10 -10 -10 -5 0 -10 -7 -10 -15
0 -11 -11 -15 -41 -15 -28 0 -39 -4 -36 -12 2 -7 18 -12 36 -12 21 1 31 -3 31
-12 0 -8 6 -14 13 -14 7 0 4 -7 -7 -15 -26 -20 -13 -31 19 -17 20 9 30 9 45 0
26 -16 37 -3 17 20 -11 12 -13 22 -7 32 5 8 10 23 10 34 0 15 -5 17 -26 12
-22 -6 -25 -4 -20 9 3 9 6 21 6 27 0 6 6 5 15 -2 9 -7 19 -10 23 -6 4 4 -1 13
-11 21 -17 12 -16 13 3 18 16 4 21 -1 26 -29 8 -45 27 -44 22 1 -2 19 -2 35 2
35 3 0 13 12 23 26 15 20 16 28 7 39 -10 12 -9 15 4 15 9 0 16 -7 16 -15 0 -8
4 -15 10 -15 11 0 32 69 24 82 -10 16 -34 8 -34 -12 0 -11 -6 -20 -14 -20 -8
0 -22 -3 -32 -7 -15 -5 -16 -2 -10 30 6 33 5 37 -15 37 -19 0 -21 -4 -15 -30z
m36 -72 c0 -24 -16 -38 -48 -44 -31 -6 -46 9 -19 19 9 4 9 8 -2 15 -11 8 -9
11 10 15 45 8 59 7 59 -5z m-76 -173 c-7 -17 -20 -20 -28 -6 -7 10 3 21 20 21
8 0 11 -6 8 -15z"/>
<path d="M760 730 c0 -5 9 -10 19 -10 17 0 19 -4 10 -32 -11 -41 -12 -38 6
-38 8 0 19 16 24 38 15 52 15 52 -24 52 -19 0 -35 -4 -35 -10z"/>
<path d="M730 690 c0 -5 11 -10 25 -10 14 0 25 5 25 10 0 6 -11 10 -25 10 -14
0 -25 -4 -25 -10z"/>
<path d="M684 390 c5 -26 2 -32 -20 -40 -34 -13 -34 -13 -31 11 1 12 -4 24
-10 26 -8 3 -13 -3 -13 -14 0 -11 -6 -25 -12 -32 -11 -10 -9 -15 7 -27 19 -14
19 -15 -3 -20 -12 -4 -22 -11 -22 -16 0 -6 9 -8 20 -5 11 3 20 2 20 -3 0 -4
-18 -10 -40 -14 -22 -3 -40 -11 -40 -17 0 -8 12 -9 33 -5 l32 6 -25 -19 c-31
-25 -19 -39 15 -17 14 9 25 12 25 6 0 -5 -4 -10 -10 -10 -5 0 -10 -7 -10 -15
0 -11 -11 -15 -41 -15 -28 0 -39 -4 -36 -12 2 -7 18 -12 36 -12 21 1 31 -3 31
-12 0 -8 6 -14 13 -14 7 0 4 -7 -7 -15 -26 -20 -13 -31 19 -17 20 9 30 9 45 0
26 -16 37 -3 17 20 -11 12 -13 22 -7 32 5 8 10 23 10 34 0 15 -5 17 -26 12
-22 -6 -25 -4 -20 9 3 9 6 21 6 27 0 6 6 5 15 -2 9 -7 19 -10 23 -6 4 4 -1 13
-11 21 -17 12 -16 13 3 18 16 4 21 -1 26 -29 8 -45 27 -44 22 1 -3 23 0 35 8
35 6 0 12 -6 11 -12 -1 -31 4 -48 13 -48 6 0 10 6 10 14 0 8 6 17 13 20 10 5
10 7 0 12 -20 9 -15 24 6 24 17 0 19 -4 10 -32 -11 -41 -12 -38 6 -38 12 0 35
54 35 84 0 5 -20 6 -45 4 -38 -5 -44 -3 -34 8 9 11 8 18 -1 29 -10 12 -10 15
4 15 9 0 16 -7 16 -15 0 -8 4 -15 10 -15 11 0 32 69 24 82 -10 16 -34 8 -34
-12 0 -11 -6 -20 -14 -20 -8 0 -22 -3 -32 -7 -15 -5 -16 -2 -10 30 6 33 5 37
-15 37 -19 0 -21 -4 -15 -30z m36 -72 c0 -24 -16 -38 -48 -44 -31 -6 -46 9
-19 19 9 4 9 8 -2 15 -11 8 -9 11 10 15 45 8 59 7 59 -5z m-76 -173 c-7 -17
-20 -20 -28 -6 -7 10 3 21 20 21 8 0 11 -6 8 -15z"/>
</g>
</svg>
