<?xml version="1.0" standalone="no"?>
<!DOCTYPE svg PUBLIC "-//W3C//DTD SVG 20010904//EN"
 "http://www.w3.org/TR/2001/REC-SVG-20010904/DTD/svg10.dtd">
<svg version="1.0" xmlns="http://www.w3.org/2000/svg"
 width="50.000000pt" height="725.000000pt" viewBox="0 0 50.000000 725.000000"
 preserveAspectRatio="xMidYMid meet">
<metadata>
Created by potrace 1.16, written by Peter Selinger 2001-2019
</metadata>
<g transform="translate(0.000000,725.000000) scale(0.100000,-0.100000)"
fill="#000000" stroke="none">
<path d="M213 7159 c-18 -5 -33 -14 -33 -19 0 -13 22 -13 56 0 24 9 25 9 14
-5 -19 -23 -5 -30 30 -15 68 28 9 62 -67 39z"/>
<path d="M213 6709 c-18 -5 -33 -14 -33 -19 0 -13 21 -13 57 0 28 10 28 10 7
-8 -16 -14 -20 -26 -16 -51 3 -21 0 -36 -9 -41 -10 -7 -10 -11 0 -24 23 -28
31 -18 31 38 0 50 2 54 30 66 68 28 9 62 -67 39z"/>
<path d="M213 6259 c-18 -5 -33 -14 -33 -19 0 -13 21 -13 57 0 28 10 28 10 7
-8 -16 -14 -20 -26 -16 -51 3 -21 0 -36 -9 -41 -10 -7 -10 -11 0 -24 23 -28
31 -18 31 38 0 50 2 54 30 66 68 28 9 62 -67 39z"/>
<path d="M148 6198 c-32 -11 -38 -33 -8 -25 30 8 24 -7 -15 -42 -39 -34 -42
-41 -20 -41 21 0 107 88 102 103 -5 16 -26 18 -59 5z"/>
<path d="M213 5809 c-18 -5 -33 -14 -33 -19 0 -13 21 -13 57 0 28 10 28 10 7
-8 -16 -14 -20 -26 -16 -51 3 -21 0 -36 -9 -41 -10 -7 -10 -11 0 -24 23 -28
31 -18 31 38 0 50 2 54 30 66 68 28 9 62 -67 39z"/>
<path d="M315 5750 c-10 -11 -16 -23 -13 -25 9 -10 58 17 58 32 0 19 -24 16
-45 -7z"/>
<path d="M148 5748 c-32 -11 -38 -33 -8 -25 30 8 24 -7 -15 -42 -39 -34 -42
-41 -20 -41 21 0 107 88 102 103 -5 16 -26 18 -59 5z"/>
<path d="M213 5359 c-18 -5 -33 -14 -33 -19 0 -13 21 -13 57 0 28 10 28 10 7
-8 -16 -14 -20 -26 -16 -51 3 -21 0 -36 -9 -41 -10 -7 -10 -11 0 -24 21 -25
30 -19 33 25 l3 42 43 -37 c34 -28 53 -36 83 -36 43 0 52 15 17 25 -76 21 -95
38 -58 50 21 7 28 35 8 35 -6 0 -21 -9 -32 -19 -17 -15 -26 -17 -46 -9 l-25
10 33 16 c66 32 14 64 -65 41z"/>
<path d="M148 5298 c-32 -11 -38 -33 -8 -25 30 8 24 -7 -15 -42 -39 -34 -42
-41 -20 -41 21 0 107 88 102 103 -5 16 -26 18 -59 5z"/>
<path d="M213 4909 c-18 -5 -33 -14 -33 -19 0 -13 21 -13 57 0 28 10 28 10 7
-8 -16 -13 -20 -26 -16 -55 3 -25 0 -37 -8 -37 -7 0 -10 -7 -6 -15 4 -11 -3
-17 -24 -22 -17 -3 -30 -10 -30 -15 0 -8 36 -6 128 8 44 7 42 27 -3 22 -34 -4
-35 -3 -35 29 0 18 2 33 4 33 2 0 23 -16 46 -35 32 -27 51 -35 81 -35 43 0 52
15 17 25 -76 21 -95 38 -58 50 21 7 28 35 8 35 -6 0 -21 -9 -32 -19 -17 -15
-26 -17 -46 -9 l-25 10 33 16 c66 32 14 64 -65 41z"/>
<path d="M148 4848 c-32 -11 -38 -33 -8 -25 30 8 24 -7 -15 -42 -39 -34 -42
-41 -20 -41 21 0 107 88 102 103 -5 16 -26 18 -59 5z"/>
<path d="M213 4459 c-18 -5 -33 -14 -33 -19 0 -13 21 -13 57 0 28 10 28 10 7
-8 -16 -13 -20 -26 -16 -55 3 -25 0 -37 -8 -37 -7 0 -10 -7 -6 -15 4 -11 -3
-17 -24 -22 -17 -3 -30 -10 -30 -15 0 -8 36 -6 128 8 44 7 42 27 -3 22 -34 -4
-35 -3 -35 29 0 18 2 33 4 33 2 0 23 -16 46 -35 32 -27 51 -35 81 -35 43 0 52
15 17 25 -76 21 -95 38 -58 50 21 7 28 35 8 35 -6 0 -21 -9 -32 -19 -17 -15
-26 -17 -46 -9 l-25 10 33 16 c66 32 14 64 -65 41z"/>
<path d="M148 4398 c-32 -11 -38 -33 -8 -25 30 8 24 -7 -15 -42 -39 -34 -42
-41 -20 -41 21 0 107 88 102 103 -5 16 -26 18 -59 5z"/>
<path d="M240 4270 c0 -5 7 -10 16 -10 11 0 14 -6 9 -20 -4 -14 -2 -20 9 -20
18 0 40 36 31 50 -8 13 -65 13 -65 0z"/>
<path d="M170 4260 c0 -5 14 -10 30 -10 17 0 30 5 30 10 0 6 -13 10 -30 10
-16 0 -30 -4 -30 -10z"/>
<path d="M213 4009 c-18 -5 -33 -14 -33 -19 0 -13 21 -13 57 0 28 10 28 10 7
-8 -16 -13 -20 -26 -16 -55 3 -25 0 -37 -8 -37 -7 0 -10 -7 -6 -15 4 -11 -3
-17 -24 -22 -17 -3 -30 -10 -30 -15 0 -8 36 -6 128 8 44 7 42 27 -3 22 -34 -4
-35 -3 -35 29 0 18 2 33 4 33 2 0 23 -16 46 -35 32 -27 51 -35 81 -35 43 0 52
15 17 25 -76 21 -95 38 -58 50 21 7 28 35 8 35 -6 0 -21 -9 -32 -19 -17 -15
-26 -17 -46 -9 l-25 10 33 16 c66 32 14 64 -65 41z"/>
<path d="M148 3948 c-32 -11 -38 -33 -8 -25 30 8 24 -7 -15 -42 -39 -34 -42
-41 -20 -41 21 0 107 88 102 103 -5 16 -26 18 -59 5z"/>
<path d="M240 3820 c0 -5 7 -10 15 -10 8 0 15 -5 15 -10 0 -14 -44 -30 -81
-30 -16 0 -29 -4 -29 -10 0 -11 37 -13 91 -4 37 6 67 43 54 65 -8 12 -65 12
-65 -1z"/>
<path d="M170 3810 c0 -5 14 -10 30 -10 17 0 30 5 30 10 0 6 -13 10 -30 10
-16 0 -30 -4 -30 -10z"/>
<path d="M213 3559 c-18 -5 -33 -14 -33 -19 0 -13 21 -13 57 0 28 10 28 10 7
-8 -16 -13 -20 -26 -16 -55 3 -25 0 -37 -8 -37 -7 0 -10 -7 -6 -15 4 -11 -3
-17 -24 -22 -17 -3 -30 -10 -30 -15 0 -8 36 -6 128 8 44 7 42 27 -3 22 -34 -4
-35 -3 -35 29 0 18 2 33 4 33 2 0 23 -16 46 -35 32 -27 51 -35 81 -35 43 0 52
15 17 25 -76 21 -95 38 -58 50 21 7 28 35 8 35 -6 0 -21 -9 -32 -19 -17 -15
-26 -17 -46 -9 l-25 10 33 16 c66 32 14 64 -65 41z"/>
<path d="M148 3498 c-32 -11 -38 -33 -8 -25 30 8 24 -7 -15 -42 -39 -34 -42
-41 -20 -41 21 0 107 88 102 103 -5 16 -26 18 -59 5z"/>
<path d="M240 3370 c0 -5 7 -10 15 -10 8 0 15 -5 15 -10 0 -14 -44 -30 -81
-30 -27 0 -29 -2 -29 -40 0 -29 5 -42 19 -50 25 -13 162 -13 196 0 24 9 26 14
20 43 -9 38 -16 47 -23 28 -14 -40 -42 -52 -110 -49 -60 3 -67 5 -70 24 -3 19
3 23 46 29 40 5 52 12 61 32 6 13 9 29 6 34 -8 12 -65 12 -65 -1z"/>
<path d="M170 3360 c0 -5 14 -10 30 -10 17 0 30 5 30 10 0 6 -13 10 -30 10
-16 0 -30 -4 -30 -10z"/>
</g>
</svg>
