<?xml version="1.0" standalone="no"?>
<!DOCTYPE svg PUBLIC "-//W3C//DTD SVG 20010904//EN"
 "http://www.w3.org/TR/2001/REC-SVG-20010904/DTD/svg10.dtd">
<svg version="1.0" xmlns="http://www.w3.org/2000/svg"
 width="50.000000pt" height="725.000000pt" viewBox="0 0 50.000000 725.000000"
 preserveAspectRatio="xMidYMid meet">
<metadata>
Created by potrace 1.16, written by Peter Selinger 2001-2019
</metadata>
<g transform="translate(0.000000,725.000000) scale(0.100000,-0.100000)"
fill="#000000" stroke="none">
<path d="M80 7001 c0 -66 15 -82 25 -27 9 43 3 78 -12 84 -10 3 -13 -13 -13
-57z"/>
<path d="M169 6615 c-3 -3 -24 -6 -47 -7 l-42 -1 0 -59 c0 -58 12 -77 24 -35
3 12 6 34 6 50 0 24 4 27 35 27 32 0 35 -2 35 -29 0 -16 -5 -31 -11 -33 -14
-5 0 -38 17 -38 29 0 33 122 4 128 -9 1 -18 0 -21 -3z"/>
<path d="M130 6205 c0 -44 -5 -50 -37 -46 -9 1 -13 -16 -13 -59 0 -60 12 -80
24 -37 3 12 6 34 6 50 0 15 5 27 11 27 9 0 10 -28 5 -100 -6 -87 -5 -100 9
-100 12 0 15 16 15 100 0 82 3 100 15 100 17 0 21 -56 4 -62 -14 -5 0 -38 17
-38 17 0 26 35 22 86 -3 34 -6 39 -28 39 -23 0 -24 4 -22 43 3 33 0 42 -12 42
-12 0 -16 -11 -16 -45z"/>
<path d="M130 5755 c0 -44 -5 -50 -37 -46 -9 1 -13 -16 -13 -59 0 -60 12 -80
24 -37 3 12 6 34 6 50 0 15 5 27 11 27 9 0 10 -28 5 -100 -6 -87 -5 -100 9
-100 12 0 15 16 15 100 0 82 3 100 15 100 17 0 21 -56 4 -62 -14 -5 0 -38 17
-38 17 0 26 35 22 86 -3 34 -6 39 -28 39 -23 0 -24 4 -22 43 3 33 0 42 -12 42
-12 0 -16 -11 -16 -45z"/>
<path d="M230 5680 c0 -62 -5 -90 -21 -121 -23 -47 -16 -65 12 -31 24 31 37
80 41 162 3 55 0 65 -14 68 -16 3 -18 -6 -18 -78z"/>
<path d="M130 5305 c0 -44 -5 -50 -37 -46 -9 1 -13 -16 -13 -59 0 -60 12 -80
24 -37 3 12 6 34 6 50 0 15 5 27 11 27 9 0 10 -28 5 -100 -6 -87 -5 -100 9
-100 12 0 15 16 15 100 0 82 3 100 15 100 17 0 21 -56 4 -62 -14 -5 0 -38 17
-38 17 0 26 35 22 86 -3 34 -6 39 -28 39 -23 0 -24 4 -22 43 3 33 0 42 -12 42
-12 0 -16 -11 -16 -45z"/>
<path d="M307 5314 c-3 -3 -22 -6 -41 -6 l-36 0 0 -79 c0 -61 -5 -89 -21 -120
-20 -41 -20 -57 0 -44 24 14 44 73 50 145 6 74 7 75 35 78 l28 4 -7 -97 c-8
-112 4 -145 54 -145 56 0 72 19 55 64 -9 22 -24 20 -24 -3 0 -25 -15 -34 -41
-26 -21 7 -21 12 -15 89 3 44 9 96 12 114 6 29 4 32 -18 32 -14 0 -27 -3 -31
-6z"/>
<path d="M130 4855 c0 -44 -5 -50 -37 -46 -9 1 -13 -16 -13 -59 0 -60 12 -80
24 -37 3 12 6 34 6 50 0 15 5 27 11 27 9 0 10 -28 5 -100 -6 -87 -5 -100 9
-100 12 0 15 16 15 100 0 82 3 100 15 100 17 0 21 -56 4 -62 -14 -5 0 -38 17
-38 17 0 26 35 22 86 -3 34 -6 39 -28 39 -23 0 -24 4 -22 43 3 33 0 42 -12 42
-12 0 -16 -11 -16 -45z"/>
<path d="M307 4864 c-3 -3 -22 -6 -41 -6 l-36 0 0 -79 c0 -60 -5 -90 -20 -119
-23 -45 -24 -50 -10 -50 16 0 48 60 56 103 5 32 8 37 16 24 5 -9 16 -17 23
-17 11 0 15 -11 15 -38 0 -50 23 -82 60 -82 55 0 71 19 54 64 -9 22 -24 20
-24 -3 0 -25 -15 -34 -41 -26 -21 7 -21 12 -15 89 3 44 9 96 12 114 6 29 4 32
-18 32 -14 0 -27 -3 -31 -6z m13 -74 l0 -49 -30 17 c-21 12 -30 25 -30 43 0
32 7 39 37 39 21 0 23 -4 23 -50z"/>
</g>
</svg>
