<?xml version="1.0" standalone="no"?>
<!DOCTYPE svg PUBLIC "-//W3C//DTD SVG 20010904//EN"
 "http://www.w3.org/TR/2001/REC-SVG-20010904/DTD/svg10.dtd">
<svg version="1.0" xmlns="http://www.w3.org/2000/svg"
 width="50.000000pt" height="725.000000pt" viewBox="0 0 50.000000 725.000000"
 preserveAspectRatio="xMidYMid meet">
<metadata>
Created by potrace 1.16, written by Peter Selinger 2001-2019
</metadata>
<g transform="translate(0.000000,725.000000) scale(0.100000,-0.100000)"
fill="#000000" stroke="none">
<path d="M145 7140 c-10 -22 -15 -43 -12 -47 4 -3 8 -4 10 -2 1 2 15 19 32 37
25 28 27 34 15 42 -23 15 -26 13 -45 -30z"/>
<path d="M145 6690 c-10 -22 -23 -40 -29 -40 -16 0 -15 -202 2 -207 9 -4 12
20 12 95 0 55 3 102 8 104 4 2 20 18 37 36 25 28 27 34 15 42 -23 15 -26 13
-45 -30z"/>
<path d="M145 6240 c-10 -22 -23 -40 -29 -40 -16 0 -15 -202 2 -207 9 -4 12
18 12 86 0 50 4 91 9 91 5 0 16 3 25 6 12 5 16 0 16 -20 0 -32 25 -35 34 -3
12 44 8 49 -29 45 -19 -2 -35 -2 -35 1 0 3 12 18 27 33 23 24 25 30 13 38 -23
15 -26 13 -45 -30z"/>
<path d="M145 5790 c-10 -22 -23 -40 -29 -40 -16 0 -15 -202 2 -207 9 -4 12
12 12 55 l0 60 35 6 c26 5 39 14 45 32 18 47 13 57 -25 52 -19 -2 -35 -2 -35
1 0 3 12 18 27 33 23 24 25 30 13 38 -23 15 -26 13 -45 -30z m35 -80 c0 -11
-4 -20 -9 -20 -5 0 -16 -3 -25 -6 -11 -4 -16 0 -16 14 0 18 11 26 43 31 4 0 7
-8 7 -19z"/>
<path d="M145 5340 c-10 -22 -23 -40 -29 -40 -16 0 -15 -202 2 -207 8 -3 12 7
12 30 0 27 5 36 23 41 35 9 38 8 31 -19 -4 -18 -2 -25 9 -25 8 0 17 10 21 23
12 46 9 50 -39 44 -56 -8 -65 17 -10 27 26 5 39 14 45 32 18 47 13 57 -25 52
-19 -2 -35 -2 -35 1 0 3 12 18 27 33 23 24 25 30 13 38 -23 15 -26 13 -45 -30z
m35 -80 c0 -11 -4 -20 -9 -20 -5 0 -16 -3 -25 -6 -11 -4 -16 0 -16 14 0 18 11
26 43 31 4 0 7 -8 7 -19z"/>
<path d="M145 4890 c-10 -22 -23 -40 -29 -40 -7 0 -11 -35 -11 -103 0 -62 4
-102 10 -101 6 0 29 4 51 8 36 7 43 12 48 38 10 50 9 51 -39 45 -56 -8 -65 17
-10 27 26 5 39 14 45 32 18 47 13 57 -25 52 -19 -2 -35 -2 -35 1 0 3 12 18 27
33 23 24 25 30 13 38 -23 15 -26 13 -45 -30z m35 -80 c0 -11 -4 -20 -9 -20 -5
0 -16 -3 -25 -6 -11 -4 -16 0 -16 14 0 18 11 26 43 31 4 0 7 -8 7 -19z m10
-97 c0 -16 -16 -30 -37 -35 -18 -5 -23 -2 -23 12 0 17 15 26 48 29 6 0 12 -2
12 -6z"/>
<path d="M145 4440 c-10 -22 -23 -40 -29 -40 -7 0 -11 -35 -11 -103 0 -62 4
-102 10 -101 6 0 29 4 51 8 36 7 43 12 48 38 10 50 9 51 -39 45 -56 -8 -65 17
-10 27 26 5 39 14 45 32 18 47 13 57 -25 52 -19 -2 -35 -2 -35 1 0 3 12 18 27
33 23 24 25 30 13 38 -23 15 -26 13 -45 -30z m35 -80 c0 -11 -4 -20 -9 -20 -5
0 -16 -3 -25 -6 -11 -4 -16 0 -16 14 0 18 11 26 43 31 4 0 7 -8 7 -19z m10
-97 c0 -16 -16 -30 -37 -35 -18 -5 -23 -2 -23 12 0 17 15 26 48 29 6 0 12 -2
12 -6z"/>
<path d="M297 4410 c-48 -8 -65 -16 -56 -24 2 -3 39 -2 82 1 55 4 77 10 77 19
0 16 -27 16 -103 4z"/>
<path d="M145 3990 c-10 -22 -23 -40 -29 -40 -7 0 -11 -35 -11 -103 0 -62 4
-102 10 -101 6 0 29 4 51 8 36 7 43 12 48 38 10 50 9 51 -39 45 -56 -8 -65 17
-10 27 26 5 39 14 45 32 18 47 13 57 -25 52 -19 -2 -35 -2 -35 1 0 3 12 18 27
33 23 24 25 30 13 38 -23 15 -26 13 -45 -30z m35 -80 c0 -11 -4 -20 -9 -20 -5
0 -16 -3 -25 -6 -11 -4 -16 0 -16 14 0 18 11 26 43 31 4 0 7 -8 7 -19z m10
-97 c0 -16 -16 -30 -37 -35 -18 -5 -23 -2 -23 12 0 17 15 26 48 29 6 0 12 -2
12 -6z"/>
<path d="M297 3960 c-48 -8 -65 -16 -56 -24 2 -3 39 -2 82 1 55 4 77 10 77 19
0 16 -27 16 -103 4z"/>
<path d="M240 3831 c0 -34 4 -61 10 -61 24 0 26 110 3 118 -10 3 -13 -13 -13
-57z"/>
<path d="M145 3540 c-10 -22 -23 -40 -29 -40 -7 0 -11 -35 -11 -103 0 -62 4
-102 10 -101 6 0 29 4 51 8 36 7 43 12 48 38 10 50 9 51 -39 45 -56 -8 -65 17
-10 27 26 5 39 14 45 32 18 47 13 57 -25 52 -19 -2 -35 -2 -35 1 0 3 12 18 27
33 23 24 25 30 13 38 -23 15 -26 13 -45 -30z m35 -80 c0 -11 -4 -20 -9 -20 -5
0 -16 -3 -25 -6 -11 -4 -16 0 -16 14 0 18 11 26 43 31 4 0 7 -8 7 -19z m10
-97 c0 -16 -16 -30 -37 -35 -18 -5 -23 -2 -23 12 0 17 15 26 48 29 6 0 12 -2
12 -6z"/>
<path d="M297 3510 c-48 -8 -65 -16 -56 -24 2 -3 39 -2 82 1 55 4 77 10 77 19
0 16 -27 16 -103 4z"/>
<path d="M305 3440 c-22 -4 -45 -5 -52 -3 -10 4 -13 -11 -13 -56 0 -86 22 -80
32 9 3 21 9 26 46 31 23 3 44 3 47 1 3 -3 5 -20 5 -39 0 -23 -5 -33 -16 -33
-9 0 -14 -5 -12 -12 6 -16 36 -34 44 -25 9 9 24 118 18 129 -6 9 -43 9 -99 -2z"/>
<path d="M145 3090 c-10 -22 -23 -40 -29 -40 -7 0 -11 -35 -11 -103 0 -62 4
-102 10 -101 6 0 29 4 51 8 36 7 43 12 48 38 10 50 9 51 -39 45 -56 -8 -65 17
-10 27 26 5 39 14 45 32 18 47 13 57 -25 52 -19 -2 -35 -2 -35 1 0 3 12 18 27
33 23 24 25 30 13 38 -23 15 -26 13 -45 -30z m35 -80 c0 -11 -4 -20 -9 -20 -5
0 -16 -3 -25 -6 -11 -4 -16 0 -16 14 0 18 11 26 43 31 4 0 7 -8 7 -19z m10
-97 c0 -16 -16 -30 -37 -35 -18 -5 -23 -2 -23 12 0 17 15 26 48 29 6 0 12 -2
12 -6z"/>
<path d="M330 3065 c-8 -2 -32 -6 -52 -10 -45 -7 -51 -25 -8 -25 23 0 30 -5
30 -19 0 -21 -22 -33 -45 -25 -12 5 -15 -5 -15 -55 0 -86 22 -80 32 8 2 14 9
26 16 29 9 3 12 -22 12 -102 0 -58 4 -106 9 -106 13 0 21 53 21 135 0 53 4 74
14 78 20 8 26 -2 26 -40 0 -23 -5 -33 -16 -33 -9 0 -14 -5 -12 -12 6 -16 36
-34 44 -25 10 10 24 119 17 130 -3 5 -21 7 -39 5 -27 -3 -33 -1 -29 10 3 7 5
18 5 23 0 5 14 9 30 9 20 0 30 5 30 15 0 14 -29 18 -70 10z"/>
</g>
</svg>
