<?xml version="1.0" standalone="no"?>
<!DOCTYPE svg PUBLIC "-//W3C//DTD SVG 20010904//EN"
 "http://www.w3.org/TR/2001/REC-SVG-20010904/DTD/svg10.dtd">
<svg version="1.0" xmlns="http://www.w3.org/2000/svg"
 width="50.000000pt" height="725.000000pt" viewBox="0 0 50.000000 725.000000"
 preserveAspectRatio="xMidYMid meet">
<metadata>
Created by potrace 1.16, written by Peter Selinger 2001-2019
</metadata>
<g transform="translate(0.000000,725.000000) scale(0.100000,-0.100000)"
fill="#000000" stroke="none">
<path d="M87 7023 c-3 -26 -1 -52 4 -57 14 -15 19 -4 21 49 4 64 -17 71 -25 8z"/>
<path d="M168 6625 c-3 -3 -22 -6 -42 -7 -34 -1 -36 -3 -38 -35 -1 -18 -2 -40
-2 -50 -1 -9 4 -18 10 -20 7 -2 14 15 18 42 7 43 8 45 42 45 29 0 34 -3 34
-23 0 -13 -5 -28 -10 -33 -13 -13 -2 -46 14 -41 14 4 31 89 23 111 -6 15 -38
22 -49 11z"/>
<path d="M140 6210 c0 -39 -6 -45 -37 -41 -8 1 -14 -12 -15 -34 -1 -19 -2 -42
-2 -52 -1 -9 4 -18 10 -20 7 -2 14 15 18 42 4 25 12 45 18 45 8 0 9 -32 4
-105 -6 -91 -5 -105 9 -105 12 0 15 17 15 105 0 87 3 105 15 105 17 0 21 -40
5 -56 -13 -13 -2 -46 14 -41 14 4 31 89 23 111 -4 9 -16 16 -27 16 -16 0 -20
6 -20 35 0 24 -5 35 -15 35 -11 0 -15 -11 -15 -40z"/>
<path d="M140 5760 c0 -39 -6 -45 -37 -41 -8 1 -14 -12 -15 -34 -1 -19 -2 -42
-2 -52 -1 -9 4 -18 10 -20 7 -2 14 15 18 42 4 25 12 45 18 45 8 0 9 -32 4
-105 -6 -91 -5 -105 9 -105 12 0 15 17 15 105 0 87 3 105 15 105 17 0 21 -40
5 -56 -13 -13 -2 -46 14 -41 14 4 31 89 23 111 -4 9 -16 16 -27 16 -16 0 -20
6 -20 35 0 24 -5 35 -15 35 -11 0 -15 -11 -15 -40z"/>
<path d="M303 5777 c-55 -14 -57 -32 -3 -23 38 6 40 5 40 -19 0 -34 15 -31 30
6 11 26 11 32 -1 40 -8 5 -16 8 -19 7 -3 0 -24 -6 -47 -11z"/>
<path d="M140 5310 c0 -39 -6 -45 -37 -41 -8 1 -14 -12 -15 -34 -1 -19 -2 -42
-2 -52 -1 -9 4 -18 10 -20 7 -2 14 15 18 42 4 25 12 45 18 45 8 0 9 -32 4
-105 -6 -91 -5 -105 9 -105 12 0 15 17 15 105 0 87 3 105 15 105 17 0 21 -40
5 -56 -13 -13 -2 -46 14 -41 14 4 31 89 23 111 -4 9 -16 16 -27 16 -16 0 -20
6 -20 35 0 24 -5 35 -15 35 -11 0 -15 -11 -15 -40z"/>
<path d="M303 5327 c-55 -14 -56 -32 -2 -23 35 6 40 4 37 -11 -2 -13 -14 -19
-41 -21 -54 -5 -46 -22 11 -22 46 0 49 1 61 36 11 30 11 38 0 45 -8 5 -16 8
-19 7 -3 0 -24 -6 -47 -11z"/>
<path d="M140 4860 c0 -39 -6 -45 -37 -41 -8 1 -14 -12 -15 -34 -1 -19 -2 -42
-2 -52 -1 -9 4 -18 10 -20 7 -2 14 15 18 42 4 25 12 45 18 45 8 0 9 -32 4
-105 -6 -91 -5 -105 9 -105 12 0 15 17 15 105 0 87 3 105 15 105 17 0 21 -40
5 -56 -13 -13 -2 -46 14 -41 14 4 31 89 23 111 -4 9 -16 16 -27 16 -16 0 -20
6 -20 35 0 24 -5 35 -15 35 -11 0 -15 -11 -15 -40z"/>
<path d="M325 4880 c-11 -5 -36 -9 -55 -9 l-35 -1 -2 -59 c-1 -37 -11 -83 -27
-122 -14 -35 -23 -65 -20 -68 12 -12 44 48 61 112 l17 67 46 0 c44 0 47 2 59
36 11 30 11 38 0 45 -16 10 -18 10 -44 -1z m13 -37 c-2 -13 -14 -19 -40 -21
-30 -3 -37 0 -32 12 5 13 24 21 62 25 8 0 12 -7 10 -16z"/>
<path d="M140 4410 c0 -39 -6 -45 -37 -41 -8 1 -14 -12 -15 -34 -1 -19 -2 -42
-2 -52 -1 -9 4 -18 10 -20 7 -2 14 15 18 42 4 25 12 45 18 45 8 0 9 -32 4
-105 -6 -91 -5 -105 9 -105 12 0 15 17 15 105 0 87 3 105 15 105 17 0 21 -40
5 -56 -13 -13 -2 -46 14 -41 14 4 31 89 23 111 -4 9 -16 16 -27 16 -16 0 -20
6 -20 35 0 24 -5 35 -15 35 -11 0 -15 -11 -15 -40z"/>
<path d="M325 4430 c-11 -5 -36 -9 -55 -9 l-35 -1 -2 -59 c-1 -37 -11 -83 -27
-122 -14 -35 -23 -65 -20 -68 10 -10 43 44 55 91 7 25 17 44 23 42 21 -8 99
11 104 25 4 11 -2 12 -23 7 -74 -19 -85 -19 -85 -2 0 12 10 16 48 16 46 0 49
1 61 36 11 30 11 38 0 45 -16 10 -18 10 -44 -1z m13 -37 c-2 -13 -14 -19 -40
-21 -30 -3 -37 0 -32 12 5 13 24 21 62 25 8 0 12 -7 10 -16z"/>
<path d="M140 3960 c0 -39 -6 -45 -37 -41 -8 1 -14 -12 -15 -34 -1 -19 -2 -42
-2 -52 -1 -9 4 -18 10 -20 7 -2 14 15 18 42 4 25 12 45 18 45 8 0 9 -32 4
-105 -6 -91 -5 -105 9 -105 12 0 15 17 15 105 0 87 3 105 15 105 17 0 21 -40
5 -56 -13 -13 -2 -46 14 -41 14 4 31 89 23 111 -4 9 -16 16 -27 16 -16 0 -20
6 -20 35 0 24 -5 35 -15 35 -11 0 -15 -11 -15 -40z"/>
<path d="M325 3980 c-11 -5 -36 -9 -55 -9 l-35 -1 -2 -59 c-1 -37 -11 -83 -27
-122 -14 -35 -23 -65 -20 -69 10 -8 38 39 54 91 12 37 19 46 30 39 12 -7 12
-12 -3 -28 -23 -25 -22 -46 1 -37 9 3 29 9 45 12 28 6 38 23 13 23 -22 0 -7
38 17 42 11 2 22 9 25 17 4 11 -2 12 -23 7 -74 -19 -85 -19 -85 -2 0 12 10 16
48 16 46 0 49 1 61 36 11 30 11 38 0 45 -16 10 -18 10 -44 -1z m13 -37 c-2
-13 -14 -19 -40 -21 -30 -3 -37 0 -32 12 5 13 24 21 62 25 8 0 12 -7 10 -16z"/>
<path d="M350 3820 c0 -5 5 -10 10 -10 6 0 10 5 10 10 0 6 -4 10 -10 10 -5 0
-10 -4 -10 -10z"/>
<path d="M140 3510 c0 -39 -6 -45 -37 -41 -8 1 -14 -12 -15 -34 -1 -19 -2 -42
-2 -52 -1 -9 4 -18 10 -20 7 -2 14 15 18 42 4 25 12 45 18 45 8 0 9 -32 4
-105 -6 -91 -5 -105 9 -105 12 0 15 17 15 105 0 87 3 105 15 105 17 0 21 -40
5 -56 -13 -13 -2 -46 14 -41 14 4 31 89 23 111 -4 9 -16 16 -27 16 -16 0 -20
6 -20 35 0 24 -5 35 -15 35 -11 0 -15 -11 -15 -40z"/>
<path d="M325 3530 c-11 -5 -36 -9 -55 -9 l-35 -1 -2 -59 c-1 -37 -11 -83 -27
-122 -14 -35 -23 -65 -20 -69 10 -8 38 39 54 91 12 37 19 46 30 39 12 -7 12
-12 -3 -28 -23 -25 -22 -46 1 -37 9 3 29 9 45 12 28 6 38 23 13 23 -22 0 -7
38 17 42 11 2 22 9 25 17 4 11 -2 12 -23 7 -74 -19 -85 -19 -85 -2 0 12 10 16
48 16 46 0 49 1 61 36 11 30 11 38 0 45 -16 10 -18 10 -44 -1z m13 -37 c-2
-13 -14 -19 -40 -21 -30 -3 -37 0 -32 12 5 13 24 21 62 25 8 0 12 -7 10 -16z"/>
<path d="M350 3379 c0 -14 25 -39 39 -39 15 0 14 23 -1 38 -15 15 -38 16 -38
1z"/>
<path d="M140 3060 c0 -39 -6 -45 -37 -41 -8 1 -14 -12 -15 -34 -1 -19 -2 -42
-2 -52 -1 -9 4 -18 10 -20 7 -2 14 15 18 42 4 25 12 45 18 45 8 0 9 -32 4
-105 -6 -91 -5 -105 9 -105 12 0 15 17 15 105 0 87 3 105 15 105 17 0 21 -40
5 -56 -13 -13 -2 -46 14 -41 14 4 31 89 23 111 -4 9 -16 16 -27 16 -16 0 -20
6 -20 35 0 24 -5 35 -15 35 -11 0 -15 -11 -15 -40z"/>
<path d="M325 3080 c-11 -5 -36 -9 -55 -9 l-35 -1 -2 -59 c-1 -37 -11 -83 -27
-122 -14 -35 -23 -65 -20 -69 10 -8 38 39 54 91 12 37 19 46 30 39 12 -7 12
-12 -3 -28 -23 -25 -22 -46 1 -37 9 3 29 9 45 12 28 6 38 23 13 23 -22 0 -7
38 17 42 11 2 22 9 25 17 4 11 -2 12 -23 7 -74 -19 -85 -19 -85 -2 0 12 10 16
48 16 46 0 49 1 61 36 11 30 11 38 0 45 -16 10 -18 10 -44 -1z m13 -37 c-2
-13 -14 -19 -40 -21 -30 -3 -37 0 -32 12 5 13 24 21 62 25 8 0 12 -7 10 -16z"/>
<path d="M350 2929 c0 -14 25 -39 39 -39 15 0 14 23 -1 38 -15 15 -38 16 -38
1z"/>
<path d="M303 2868 c-54 -12 -58 -33 -5 -24 20 3 45 6 55 6 9 0 17 7 17 15 0
17 -6 17 -67 3z"/>
<path d="M140 2610 c0 -39 -6 -45 -37 -41 -8 1 -14 -12 -15 -34 -1 -19 -2 -42
-2 -52 -1 -9 4 -18 10 -20 7 -2 14 15 18 42 4 25 12 45 18 45 8 0 9 -32 4
-105 -6 -91 -5 -105 9 -105 12 0 15 17 15 105 0 87 3 105 15 105 17 0 21 -40
5 -56 -13 -13 -2 -46 14 -41 14 4 31 89 23 111 -4 9 -16 16 -27 16 -16 0 -20
6 -20 35 0 24 -5 35 -15 35 -11 0 -15 -11 -15 -40z"/>
<path d="M325 2630 c-11 -5 -36 -9 -55 -9 l-35 -1 -2 -59 c-1 -37 -11 -83 -27
-122 -14 -35 -23 -65 -20 -69 10 -8 38 39 54 91 12 37 19 46 30 39 12 -7 12
-12 -3 -28 -25 -28 -22 -44 8 -36 16 4 25 2 25 -6 0 -6 -9 -14 -20 -17 -11 -3
-20 -9 -20 -14 0 -5 9 -9 20 -9 11 0 20 -7 20 -15 0 -22 18 -18 25 5 3 11 15
20 26 20 11 0 19 7 19 16 0 12 -6 15 -21 11 -18 -5 -20 -2 -15 19 5 17 2 24
-8 24 -22 0 -7 38 17 42 11 2 22 9 25 17 4 11 -2 12 -23 7 -74 -19 -85 -19
-85 -2 0 12 10 16 48 16 46 0 49 1 61 36 11 30 11 38 0 45 -16 10 -18 10 -44
-1z m13 -37 c-2 -13 -14 -19 -40 -21 -30 -3 -37 0 -32 12 5 13 24 21 62 25 8
0 12 -7 10 -16z"/>
<path d="M350 2479 c0 -14 25 -39 39 -39 15 0 14 23 -1 38 -15 15 -38 16 -38
1z"/>
<path d="M140 2160 c0 -39 -6 -45 -37 -41 -8 1 -14 -12 -15 -34 -1 -19 -2 -42
-2 -52 -1 -9 4 -18 10 -20 7 -2 14 15 18 42 4 25 12 45 18 45 8 0 9 -32 4
-105 -6 -91 -5 -105 9 -105 12 0 15 17 15 105 0 87 3 105 15 105 17 0 21 -40
5 -56 -13 -13 -2 -46 14 -41 14 4 31 89 23 111 -4 9 -16 16 -27 16 -16 0 -20
6 -20 35 0 24 -5 35 -15 35 -11 0 -15 -11 -15 -40z"/>
<path d="M325 2180 c-11 -5 -36 -9 -55 -9 l-35 -1 -2 -59 c-1 -37 -11 -83 -27
-122 -14 -35 -23 -65 -20 -69 10 -8 38 39 54 91 12 37 19 46 30 39 12 -7 12
-12 -3 -28 -25 -28 -22 -44 8 -36 16 4 25 2 25 -6 0 -6 -9 -14 -20 -17 -11 -3
-20 -9 -20 -14 0 -5 9 -9 20 -9 11 0 20 -4 20 -10 0 -5 -12 -10 -27 -10 -28 0
-62 -15 -53 -23 3 -3 51 -2 108 1 69 3 102 8 99 16 -2 6 -25 11 -50 11 -31 0
-47 4 -47 13 0 6 9 12 20 12 12 0 20 7 20 16 0 12 -6 15 -21 11 -18 -5 -20 -2
-15 19 5 17 2 24 -8 24 -22 0 -7 38 17 42 11 2 22 9 25 17 4 11 -2 12 -23 7
-74 -19 -85 -19 -85 -2 0 12 10 16 48 16 46 0 49 1 61 36 11 30 11 38 0 45
-16 10 -18 10 -44 -1z m13 -37 c-2 -13 -14 -19 -40 -21 -30 -3 -37 0 -32 12 5
13 24 21 62 25 8 0 12 -7 10 -16z"/>
<path d="M350 2029 c0 -14 25 -39 39 -39 15 0 14 23 -1 38 -15 15 -38 16 -38
1z"/>
</g>
</svg>
