<?xml version="1.0" standalone="no"?>
<!DOCTYPE svg PUBLIC "-//W3C//DTD SVG 20010904//EN"
 "http://www.w3.org/TR/2001/REC-SVG-20010904/DTD/svg10.dtd">
<svg version="1.0" xmlns="http://www.w3.org/2000/svg"
 width="50.000000pt" height="725.000000pt" viewBox="0 0 50.000000 725.000000"
 preserveAspectRatio="xMidYMid meet">
<metadata>
Created by potrace 1.16, written by Peter Selinger 2001-2019
</metadata>
<g transform="translate(0.000000,725.000000) scale(0.100000,-0.100000)"
fill="#000000" stroke="none">
<path d="M80 7005 c0 -30 5 -55 10 -55 6 0 10 11 10 24 0 13 3 38 6 55 5 24 3
31 -10 31 -13 0 -16 -11 -16 -55z"/>
<path d="M130 6610 c0 -5 9 -10 20 -10 16 0 20 -7 20 -34 0 -19 -5 -36 -12
-38 -15 -5 -1 -28 16 -28 8 0 16 18 20 46 10 73 9 74 -29 74 -19 0 -35 -4 -35
-10z"/>
<path d="M80 6555 c0 -30 5 -55 10 -55 6 0 10 11 10 24 0 13 3 38 6 55 5 24 3
31 -10 31 -13 0 -16 -11 -16 -55z"/>
<path d="M118 6131 c-1 -72 -2 -143 -2 -158 -1 -19 4 -28 14 -28 12 0 15 13
14 62 -1 56 1 60 17 50 24 -15 26 -12 34 56 l7 57 -27 0 c-25 0 -27 2 -23 42
2 34 0 43 -14 46 -16 3 -18 -9 -20 -127z m52 -16 c0 -19 -4 -35 -10 -35 -5 0
-10 16 -10 35 0 19 5 35 10 35 6 0 10 -16 10 -35z"/>
<path d="M80 6105 c0 -30 5 -55 10 -55 6 0 10 11 10 24 0 13 3 38 6 55 5 24 3
31 -10 31 -13 0 -16 -11 -16 -55z"/>
<path d="M118 5681 c-1 -72 -2 -143 -2 -158 -1 -19 4 -28 14 -28 12 0 15 13
14 62 -1 56 1 60 17 50 24 -15 26 -12 34 56 l7 57 -27 0 c-25 0 -27 2 -23 42
2 34 0 43 -14 46 -16 3 -18 -9 -20 -127z m52 -16 c0 -19 -4 -35 -10 -35 -5 0
-10 16 -10 35 0 19 5 35 10 35 6 0 10 -16 10 -35z"/>
<path d="M232 5769 c1 -12 9 -24 16 -27 9 -3 13 3 10 19 -1 12 -9 24 -16 27
-9 3 -13 -3 -10 -19z"/>
<path d="M80 5655 c0 -30 5 -55 10 -55 6 0 10 11 10 24 0 13 3 38 6 55 5 24 3
31 -10 31 -13 0 -16 -11 -16 -55z"/>
<path d="M118 5231 c-1 -72 -2 -143 -2 -158 -1 -19 4 -28 14 -28 12 0 15 13
14 63 -1 44 2 60 10 52 23 -23 34 -9 41 50 l7 59 44 7 c29 4 44 11 44 21 0 9
-6 13 -14 10 -8 -3 -16 2 -19 14 -8 29 -30 24 -25 -6 4 -19 1 -25 -13 -25 -11
0 -19 -4 -19 -10 0 -5 -12 -10 -26 -10 -24 0 -26 3 -22 42 2 34 0 43 -14 46
-16 3 -18 -9 -20 -127z m52 -16 c0 -19 -4 -35 -10 -35 -5 0 -10 16 -10 35 0
19 5 35 10 35 6 0 10 -16 10 -35z"/>
<path d="M80 5205 c0 -30 5 -55 10 -55 6 0 10 11 10 24 0 13 3 38 6 55 5 24 3
31 -10 31 -13 0 -16 -11 -16 -55z"/>
<path d="M118 4781 c-1 -72 -2 -143 -2 -158 -1 -19 4 -28 14 -28 12 0 15 13
14 62 -1 56 1 60 17 50 24 -15 26 -12 34 56 l7 57 -27 0 c-25 0 -27 2 -23 42
2 34 0 43 -14 46 -16 3 -18 -9 -20 -127z m52 -16 c0 -19 -4 -35 -10 -35 -5 0
-10 16 -10 35 0 19 5 35 10 35 6 0 10 -16 10 -35z"/>
<path d="M232 4865 c4 -20 1 -25 -14 -25 -15 0 -18 -4 -13 -17 4 -10 10 -26
12 -35 8 -29 23 -21 23 12 0 25 4 30 25 30 16 0 25 6 25 16 0 10 -6 14 -14 11
-8 -3 -16 2 -19 14 -8 29 -30 24 -25 -6z"/>
<path d="M80 4755 c0 -30 5 -55 10 -55 6 0 10 11 10 24 0 13 3 38 6 55 5 24 3
31 -10 31 -13 0 -16 -11 -16 -55z"/>
<path d="M118 4331 c-1 -72 -2 -143 -2 -158 -1 -19 4 -28 14 -28 12 0 15 13
14 62 -1 56 1 60 17 50 24 -15 26 -12 34 56 l7 57 -27 0 c-25 0 -27 2 -23 42
2 34 0 43 -14 46 -16 3 -18 -9 -20 -127z m52 -16 c0 -19 -4 -35 -10 -35 -5 0
-10 16 -10 35 0 19 5 35 10 35 6 0 10 -16 10 -35z"/>
<path d="M232 4415 c4 -20 1 -25 -14 -25 -15 0 -18 -4 -13 -17 4 -10 10 -26
12 -35 8 -29 23 -21 23 12 0 17 5 30 10 30 6 0 10 -11 10 -25 0 -28 15 -34 24
-9 12 30 7 66 -8 61 -8 -3 -16 2 -19 14 -8 29 -30 24 -25 -6z"/>
<path d="M80 4305 c0 -30 5 -55 10 -55 6 0 10 11 10 24 0 13 3 38 6 55 5 24 3
31 -10 31 -13 0 -16 -11 -16 -55z"/>
<path d="M118 3881 c-1 -72 -2 -143 -2 -158 -1 -19 4 -28 14 -28 12 0 15 13
14 63 -1 44 2 60 10 52 18 -18 36 -11 36 14 0 22 5 24 105 36 58 7 105 17 105
23 0 6 -23 7 -59 3 l-59 -7 5 42 c5 36 4 41 -9 36 -11 -4 -18 1 -21 14 -8 29
-30 24 -25 -6 4 -20 1 -25 -14 -25 -15 0 -18 -4 -13 -17 15 -37 17 -53 6 -53
-6 0 -11 11 -11 25 0 20 -5 25 -26 25 -24 0 -26 3 -22 42 2 34 0 43 -14 46
-16 3 -18 -9 -20 -127z m142 25 c0 -14 -4 -28 -10 -31 -6 -4 -10 7 -10 24 0
17 5 31 10 31 6 0 10 -11 10 -24z m-90 -41 c0 -19 -4 -35 -10 -35 -5 0 -10 16
-10 35 0 19 5 35 10 35 6 0 10 -16 10 -35z"/>
<path d="M80 3855 c0 -30 5 -55 10 -55 6 0 10 11 10 24 0 13 3 38 6 55 5 24 3
31 -10 31 -13 0 -16 -11 -16 -55z"/>
<path d="M118 3431 c-1 -72 -2 -143 -2 -158 -1 -19 4 -28 14 -28 12 0 15 13
14 63 -1 44 2 60 10 52 18 -18 36 -11 36 14 0 22 5 24 105 36 58 7 105 17 105
23 0 6 -23 7 -59 3 l-59 -7 5 42 c5 36 4 41 -9 36 -11 -4 -18 1 -21 14 -8 29
-30 24 -25 -6 4 -20 1 -25 -14 -25 -15 0 -18 -4 -13 -17 15 -37 17 -53 6 -53
-6 0 -11 11 -11 25 0 20 -5 25 -26 25 -24 0 -26 3 -22 42 2 34 0 43 -14 46
-16 3 -18 -9 -20 -127z m142 25 c0 -14 -4 -28 -10 -31 -6 -4 -10 7 -10 24 0
17 5 31 10 31 6 0 10 -11 10 -24z m-90 -41 c0 -19 -4 -35 -10 -35 -5 0 -10 16
-10 35 0 19 5 35 10 35 6 0 10 -16 10 -35z"/>
<path d="M80 3405 c0 -30 5 -55 10 -55 6 0 10 11 10 24 0 13 3 38 6 55 5 24 3
31 -10 31 -13 0 -16 -11 -16 -55z"/>
<path d="M210 3325 c0 -30 5 -55 10 -55 6 0 10 11 10 24 0 13 3 38 6 55 5 24
3 31 -10 31 -13 0 -16 -11 -16 -55z"/>
<path d="M118 2981 c-1 -72 -2 -143 -2 -158 -1 -19 4 -28 14 -28 12 0 15 13
14 63 -1 44 2 60 10 52 18 -18 36 -11 36 14 0 22 5 24 105 36 58 7 105 17 105
23 0 6 -23 7 -59 3 l-59 -7 5 42 c5 36 4 41 -9 36 -11 -4 -18 1 -21 14 -8 29
-30 24 -25 -6 4 -20 1 -25 -14 -25 -15 0 -18 -4 -13 -17 15 -37 17 -53 6 -53
-6 0 -11 11 -11 25 0 20 -5 25 -26 25 -24 0 -26 3 -22 42 2 34 0 43 -14 46
-16 3 -18 -9 -20 -127z m142 25 c0 -14 -4 -28 -10 -31 -6 -4 -10 7 -10 24 0
17 5 31 10 31 6 0 10 -11 10 -24z m-90 -41 c0 -19 -4 -35 -10 -35 -5 0 -10 16
-10 35 0 19 5 35 10 35 6 0 10 -16 10 -35z"/>
<path d="M80 2955 c0 -30 5 -55 10 -55 6 0 10 11 10 24 0 13 3 38 6 55 5 24 3
31 -10 31 -13 0 -16 -11 -16 -55z"/>
<path d="M268 2883 c7 -88 18 -90 23 -3 3 44 1 55 -12 58 -13 2 -15 -6 -11
-55z"/>
<path d="M210 2875 c0 -62 16 -74 22 -17 3 20 8 45 12 55 6 13 3 17 -13 17
-19 0 -21 -6 -21 -55z"/>
<path d="M118 2531 c-1 -72 -2 -143 -2 -158 -1 -19 4 -28 14 -28 12 0 15 13
14 63 -1 44 2 60 10 52 18 -18 36 -11 36 14 0 22 5 24 105 36 58 7 105 17 105
23 0 6 -23 7 -59 3 l-59 -7 5 42 c5 36 4 41 -9 36 -11 -4 -18 1 -21 14 -8 29
-30 24 -25 -6 4 -20 1 -25 -14 -25 -15 0 -18 -4 -13 -17 15 -37 17 -53 6 -53
-6 0 -11 11 -11 25 0 20 -5 25 -26 25 -24 0 -26 3 -22 42 2 34 0 43 -14 46
-16 3 -18 -9 -20 -127z m142 25 c0 -14 -4 -28 -10 -31 -6 -4 -10 7 -10 24 0
17 5 31 10 31 6 0 10 -11 10 -24z m-90 -41 c0 -19 -4 -35 -10 -35 -5 0 -10 16
-10 35 0 19 5 35 10 35 6 0 10 -16 10 -35z"/>
<path d="M80 2505 c0 -30 5 -55 10 -55 6 0 10 11 10 24 0 13 3 38 6 55 5 24 3
31 -10 31 -13 0 -16 -11 -16 -55z"/>
<path d="M268 2433 c7 -88 18 -90 23 -3 3 44 1 55 -12 58 -13 2 -15 -6 -11
-55z"/>
<path d="M210 2425 c0 -30 5 -55 10 -55 6 0 10 11 10 25 0 16 6 25 15 25 8 0
15 5 15 10 0 6 -5 10 -11 10 -6 0 -8 9 -4 20 5 16 2 20 -14 20 -19 0 -21 -6
-21 -55z"/>
<path d="M118 2081 c-1 -72 -2 -143 -2 -158 -1 -19 4 -28 14 -28 12 0 15 13
14 63 -1 44 2 60 10 52 18 -18 36 -11 36 14 0 22 5 24 105 36 58 7 105 17 105
23 0 6 -23 7 -59 3 l-59 -7 5 42 c5 36 4 41 -9 36 -11 -4 -18 1 -21 14 -8 29
-30 24 -25 -6 4 -20 1 -25 -14 -25 -15 0 -18 -4 -13 -17 15 -37 17 -53 6 -53
-6 0 -11 11 -11 25 0 20 -5 25 -26 25 -24 0 -26 3 -22 42 2 34 0 43 -14 46
-16 3 -18 -9 -20 -127z m142 25 c0 -14 -4 -28 -10 -31 -6 -4 -10 7 -10 24 0
17 5 31 10 31 6 0 10 -11 10 -24z m-90 -41 c0 -19 -4 -35 -10 -35 -5 0 -10 16
-10 35 0 19 5 35 10 35 6 0 10 -16 10 -35z"/>
<path d="M80 2055 c0 -30 5 -55 10 -55 6 0 10 11 10 24 0 13 3 38 6 55 5 24 3
31 -10 31 -13 0 -16 -11 -16 -55z"/>
<path d="M267 1996 c5 -42 4 -46 -16 -46 -11 0 -21 5 -21 10 0 6 7 10 15 10 8
0 15 5 15 10 0 6 -5 10 -11 10 -6 0 -8 9 -4 20 5 16 2 20 -14 20 -19 0 -21 -6
-21 -53 l0 -52 40 0 40 0 2 42 c0 24 1 49 2 55 1 7 -6 14 -15 16 -14 3 -16 -4
-12 -42z"/>
<path d="M306 1701 c6 -60 5 -71 -9 -71 -12 0 -14 8 -10 42 5 35 4 40 -9 35
-11 -4 -18 1 -21 14 -8 29 -30 24 -25 -6 4 -20 1 -25 -14 -25 -15 0 -18 -4
-13 -17 15 -37 17 -53 6 -53 -6 0 -11 11 -11 25 0 20 -5 25 -26 25 -24 0 -26
3 -22 42 2 34 0 43 -14 46 -16 3 -18 -9 -20 -127 -1 -72 -2 -143 -2 -158 -1
-19 4 -28 14 -28 12 0 15 13 14 63 -1 44 2 60 10 52 18 -18 36 -11 36 15 0 18
5 25 19 25 10 0 38 3 63 6 l44 6 13 -55 c20 -93 101 -181 101 -111 0 17 -6 28
-20 31 -19 5 -53 65 -64 116 -6 25 -4 27 24 27 16 0 30 5 30 10 0 6 -13 10
-30 10 -25 0 -30 4 -34 33 -3 17 -4 45 -3 62 1 21 -3 30 -16 33 -16 3 -17 -3
-11 -67z m-46 -45 c0 -14 -4 -28 -10 -31 -6 -4 -10 7 -10 24 0 17 5 31 10 31
6 0 10 -11 10 -24z m-90 -41 c0 -19 -4 -35 -10 -35 -5 0 -10 16 -10 35 0 19 5
35 10 35 6 0 10 -16 10 -35z"/>
<path d="M80 1605 c0 -30 5 -55 10 -55 6 0 10 11 10 24 0 13 3 38 6 55 5 24 3
31 -10 31 -13 0 -16 -11 -16 -55z"/>
<path d="M267 1546 c5 -42 4 -46 -16 -46 -11 0 -21 5 -21 10 0 6 7 10 15 10 8
0 15 5 15 10 0 6 -5 10 -11 10 -6 0 -8 9 -4 20 5 16 2 20 -14 20 -19 0 -21 -6
-21 -53 l0 -52 40 0 40 0 2 42 c0 24 1 49 2 55 1 7 -6 14 -15 16 -14 3 -16 -4
-12 -42z"/>
<path d="M306 1251 c6 -60 5 -71 -9 -71 -12 0 -14 8 -10 42 5 35 4 40 -9 35
-11 -4 -18 1 -21 14 -8 29 -30 24 -25 -6 4 -20 1 -25 -14 -25 -15 0 -18 -4
-13 -17 15 -37 17 -53 6 -53 -6 0 -11 11 -11 25 0 20 -5 25 -26 25 -24 0 -26
3 -22 42 2 34 0 43 -14 46 -16 3 -18 -9 -20 -127 -1 -72 -2 -143 -2 -158 -1
-19 4 -28 14 -28 12 0 15 13 14 63 -1 44 2 60 10 52 18 -18 36 -11 36 15 0 18
5 25 19 25 10 0 38 3 63 6 l44 6 13 -55 c20 -93 101 -181 101 -111 0 17 -6 28
-20 31 -19 5 -53 65 -64 116 -6 25 -4 27 24 27 16 0 30 5 30 10 0 6 -13 10
-30 10 -25 0 -30 4 -34 33 -3 17 -4 45 -3 62 1 21 -3 30 -16 33 -16 3 -17 -3
-11 -67z m-46 -45 c0 -14 -4 -28 -10 -31 -6 -4 -10 7 -10 24 0 17 5 31 10 31
6 0 10 -11 10 -24z m-90 -41 c0 -19 -4 -35 -10 -35 -5 0 -10 16 -10 35 0 19 5
35 10 35 6 0 10 -16 10 -35z"/>
<path d="M350 1263 c1 -14 27 -43 39 -43 17 0 13 37 -5 44 -21 8 -34 8 -34 -1z"/>
<path d="M80 1155 c0 -30 5 -55 10 -55 6 0 10 11 10 24 0 13 3 38 6 55 5 24 3
31 -10 31 -13 0 -16 -11 -16 -55z"/>
<path d="M267 1096 c5 -42 4 -46 -16 -46 -11 0 -21 5 -21 10 0 6 7 10 15 10 8
0 15 5 15 10 0 6 -5 10 -11 10 -6 0 -8 9 -4 20 5 16 2 20 -14 20 -19 0 -21 -6
-21 -53 l0 -52 40 0 40 0 2 42 c0 24 1 49 2 55 1 7 -6 14 -15 16 -14 3 -16 -4
-12 -42z"/>
<path d="M306 801 c6 -60 5 -71 -9 -71 -12 0 -14 8 -10 42 5 35 4 40 -9 35
-11 -4 -18 1 -21 14 -8 29 -30 24 -25 -6 4 -20 1 -25 -14 -25 -15 0 -18 -4
-13 -17 15 -37 17 -53 6 -53 -6 0 -11 11 -11 25 0 20 -5 25 -26 25 -24 0 -26
3 -22 42 2 34 0 43 -14 46 -16 3 -18 -9 -20 -127 -1 -72 -2 -143 -2 -158 -1
-19 4 -28 14 -28 12 0 15 13 14 63 -1 44 2 60 10 52 18 -18 36 -11 36 15 0 18
5 25 19 25 10 0 38 3 63 6 l44 6 11 -48 c11 -47 10 -50 -14 -76 -32 -34 -25
-46 12 -22 27 17 27 17 52 -14 13 -18 31 -32 39 -32 21 0 18 49 -3 57 -34 13
-43 35 -26 66 15 29 12 57 -7 57 -5 0 -10 -9 -10 -20 0 -11 -4 -20 -10 -20 -5
0 -10 6 -10 14 0 8 -3 21 -6 30 -5 13 1 16 25 16 17 0 31 5 31 10 0 6 -13 10
-30 10 -25 0 -30 4 -34 33 -3 17 -4 45 -3 62 1 21 -3 30 -16 33 -16 3 -17 -3
-11 -67z m-46 -45 c0 -14 -4 -28 -10 -31 -6 -4 -10 7 -10 24 0 17 5 31 10 31
6 0 10 -11 10 -24z m-90 -41 c0 -19 -4 -35 -10 -35 -5 0 -10 16 -10 35 0 19 5
35 10 35 6 0 10 -16 10 -35z"/>
<path d="M350 813 c1 -14 27 -43 39 -43 17 0 13 37 -5 44 -21 8 -34 8 -34 -1z"/>
<path d="M80 705 c0 -30 5 -55 10 -55 6 0 10 11 10 24 0 13 3 38 6 55 5 24 3
31 -10 31 -13 0 -16 -11 -16 -55z"/>
<path d="M267 646 c5 -42 4 -46 -16 -46 -11 0 -21 5 -21 10 0 6 7 10 15 10 8
0 15 5 15 10 0 6 -5 10 -11 10 -6 0 -8 9 -4 20 5 16 2 20 -14 20 -19 0 -21 -6
-21 -53 l0 -52 40 0 40 0 2 42 c0 24 1 49 2 55 1 7 -6 14 -15 16 -14 3 -16 -4
-12 -42z"/>
</g>
</svg>
