<?xml version="1.0" standalone="no"?>
<!DOCTYPE svg PUBLIC "-//W3C//DTD SVG 20010904//EN"
 "http://www.w3.org/TR/2001/REC-SVG-20010904/DTD/svg10.dtd">
<svg version="1.0" xmlns="http://www.w3.org/2000/svg"
 width="50.000000pt" height="725.000000pt" viewBox="0 0 50.000000 725.000000"
 preserveAspectRatio="xMidYMid meet">
<metadata>
Created by potrace 1.16, written by Peter Selinger 2001-2019
</metadata>
<g transform="translate(0.000000,725.000000) scale(0.100000,-0.100000)"
fill="#000000" stroke="none">
<path d="M101 7015 c-1 -41 2 -56 12 -52 15 5 16 99 1 104 -7 2 -12 -16 -13
-52z"/>
<path d="M180 6626 c0 -4 5 -15 12 -25 9 -15 9 -26 -1 -47 -8 -19 -9 -30 -1
-38 16 -16 28 5 32 59 3 45 1 50 -19 53 -13 2 -23 1 -23 -2z"/>
<path d="M101 6564 c-1 -67 22 -72 27 -6 3 34 7 42 23 42 10 0 19 5 19 10 0 6
-15 10 -34 10 l-33 0 -2 -56z"/>
<path d="M150 6210 c0 -35 -3 -40 -24 -40 -22 0 -23 -4 -25 -56 -1 -67 22 -72
27 -6 2 23 8 42 14 42 7 0 8 -35 3 -110 -5 -72 -4 -110 3 -110 17 0 22 28 22
125 0 52 4 97 10 100 16 10 24 -24 11 -52 -8 -18 -9 -29 -1 -37 16 -16 28 5
32 59 3 48 2 50 -25 53 -26 3 -27 6 -21 38 5 27 3 34 -10 34 -12 0 -16 -10
-16 -40z"/>
<path d="M293 5786 c-50 -25 -56 -40 -10 -31 54 12 77 24 77 40 0 19 -15 17
-67 -9z"/>
<path d="M150 5760 c0 -35 -3 -40 -24 -40 -22 0 -23 -4 -25 -56 -1 -67 22 -72
27 -6 2 23 8 42 14 42 7 0 8 -35 3 -110 -5 -72 -4 -110 3 -110 17 0 22 28 22
125 0 52 4 97 10 100 16 10 24 -24 11 -52 -8 -18 -9 -29 -1 -37 16 -16 28 5
32 59 3 48 2 50 -25 53 -26 3 -27 6 -21 38 5 27 3 34 -10 34 -12 0 -16 -10
-16 -40z"/>
<path d="M293 5336 c-50 -25 -56 -40 -10 -31 54 12 77 24 77 40 0 19 -15 17
-67 -9z"/>
<path d="M150 5310 c0 -35 -3 -40 -24 -40 -22 0 -23 -4 -25 -56 -1 -67 22 -72
27 -6 2 23 8 42 14 42 7 0 8 -35 3 -110 -5 -72 -4 -110 3 -110 17 0 22 28 22
125 0 52 4 97 10 100 16 10 24 -24 11 -52 -8 -18 -9 -29 -1 -37 16 -16 28 5
32 59 3 48 2 50 -25 53 -26 3 -27 6 -21 38 5 27 3 34 -10 34 -12 0 -16 -10
-16 -40z"/>
<path d="M250 5275 c0 -8 7 -15 15 -15 8 0 15 7 15 15 0 8 -7 15 -15 15 -8 0
-15 -7 -15 -15z"/>
<path d="M293 4886 c-50 -25 -56 -40 -10 -31 54 12 77 24 77 40 0 19 -15 17
-67 -9z"/>
<path d="M150 4860 c0 -35 -3 -40 -24 -40 -22 0 -23 -4 -25 -56 -1 -67 22 -72
27 -6 2 23 8 42 14 42 7 0 8 -35 3 -110 -5 -72 -4 -110 3 -110 17 0 22 28 22
125 0 52 4 97 10 100 16 10 24 -24 11 -52 -8 -18 -9 -29 -1 -37 16 -16 28 5
32 59 3 48 2 50 -25 53 -26 3 -27 6 -21 38 5 27 3 34 -10 34 -12 0 -16 -10
-16 -40z"/>
<path d="M342 4849 c-7 -11 -11 -23 -9 -25 8 -9 58 19 54 30 -7 20 -32 17 -45
-5z"/>
<path d="M250 4825 c0 -8 7 -15 15 -15 8 0 15 7 15 15 0 8 -7 15 -15 15 -8 0
-15 -7 -15 -15z"/>
<path d="M293 4436 c-50 -25 -56 -40 -10 -31 54 12 77 24 77 40 0 19 -15 17
-67 -9z"/>
<path d="M150 4410 c0 -35 -3 -40 -24 -40 -22 0 -23 -4 -25 -56 -1 -67 22 -72
27 -6 2 23 8 42 14 42 7 0 8 -35 3 -110 -5 -77 -4 -110 4 -110 15 0 21 31 24
133 1 52 6 86 12 85 10 -3 10 -20 3 -63 -2 -13 3 -20 12 -20 10 0 17 13 20 35
l5 35 85 4 c91 3 99 6 83 22 -6 6 -33 6 -83 -2 -64 -10 -74 -9 -82 5 -5 9 -20
16 -34 16 -23 0 -24 3 -18 35 5 28 3 35 -10 35 -12 0 -16 -10 -16 -40z"/>
<path d="M342 4399 c-7 -11 -11 -23 -9 -25 8 -9 58 19 54 30 -7 20 -32 17 -45
-5z"/>
<path d="M250 4375 c0 -8 7 -15 15 -15 8 0 15 7 15 15 0 8 -7 15 -15 15 -8 0
-15 -7 -15 -15z"/>
<path d="M293 3986 c-46 -23 -56 -39 -21 -34 26 4 38 -29 16 -43 -21 -14 -55
-10 -62 6 -3 8 -17 15 -31 15 -24 0 -25 2 -19 35 5 28 3 35 -10 35 -12 0 -16
-10 -16 -40 0 -35 -3 -40 -24 -40 -22 0 -23 -4 -25 -56 -1 -67 22 -72 27 -6 2
23 8 42 14 42 7 0 8 -35 3 -110 -5 -77 -4 -110 4 -110 15 0 21 31 24 133 1 52
6 86 12 85 10 -3 10 -20 3 -63 -2 -13 3 -20 12 -20 10 0 16 12 18 35 3 35 4
35 43 32 l40 -4 -6 -39 c-6 -32 -4 -39 9 -39 12 0 16 11 16 45 l0 45 41 0 c28
0 39 4 36 13 -2 7 -19 11 -41 10 -30 -2 -36 1 -36 17 0 11 9 28 20 37 22 19
27 44 8 42 -7 -1 -32 -11 -55 -23z"/>
<path d="M342 3949 c-7 -11 -11 -23 -9 -25 8 -9 58 19 54 30 -7 20 -32 17 -45
-5z"/>
<path d="M250 3925 c0 -8 7 -15 15 -15 8 0 15 7 15 15 0 8 -7 15 -15 15 -8 0
-15 -7 -15 -15z"/>
<path d="M293 3536 c-46 -23 -56 -39 -21 -34 26 4 38 -29 16 -43 -21 -14 -55
-10 -62 6 -3 8 -17 15 -31 15 -24 0 -25 2 -19 35 5 28 3 35 -10 35 -12 0 -16
-10 -16 -40 0 -35 -3 -40 -24 -40 -22 0 -23 -4 -25 -56 -1 -67 22 -72 27 -6 2
23 8 42 14 42 7 0 8 -35 3 -110 -5 -77 -4 -110 4 -110 15 0 21 31 24 133 1 52
6 86 12 85 10 -3 10 -20 3 -63 -4 -26 36 -29 78 -5 l31 17 -5 -23 c-3 -17 0
-24 12 -24 12 0 16 10 16 45 l0 45 41 0 c28 0 39 4 36 13 -2 7 -19 11 -41 10
-30 -2 -36 1 -36 17 0 11 9 28 20 37 22 19 27 44 8 42 -7 -1 -32 -11 -55 -23z
m-34 -132 c-29 -31 -39 -30 -39 4 0 26 3 28 31 24 l30 -4 -22 -24z"/>
<path d="M342 3499 c-7 -11 -11 -23 -9 -25 8 -9 58 19 54 30 -7 20 -32 17 -45
-5z"/>
<path d="M250 3475 c0 -8 7 -15 15 -15 8 0 15 7 15 15 0 8 -7 15 -15 15 -8 0
-15 -7 -15 -15z"/>
<path d="M293 3086 c-46 -23 -56 -39 -21 -34 26 4 38 -29 16 -43 -21 -14 -55
-10 -62 6 -3 8 -17 15 -31 15 -24 0 -25 2 -19 35 5 28 3 35 -10 35 -12 0 -16
-10 -16 -40 0 -35 -3 -40 -24 -40 -22 0 -23 -4 -25 -56 -1 -67 22 -72 27 -6 2
23 8 42 14 42 7 0 8 -35 3 -110 -5 -77 -4 -110 4 -110 15 0 21 31 24 133 1 52
6 86 12 85 10 -3 10 -20 3 -63 -4 -26 36 -29 78 -5 l31 17 -5 -23 c-3 -17 0
-24 12 -24 12 0 16 10 16 36 l0 36 34 -26 c40 -30 59 -33 54 -8 -2 9 -19 25
-38 34 l-35 18 33 0 c23 0 32 4 29 13 -2 7 -19 11 -41 10 -30 -2 -36 1 -36 17
0 11 9 28 20 37 22 19 27 44 8 42 -7 -1 -32 -11 -55 -23z m-34 -132 c-29 -31
-39 -30 -39 4 0 26 3 28 31 24 l30 -4 -22 -24z"/>
<path d="M342 3049 c-7 -11 -11 -23 -9 -25 8 -9 58 19 54 30 -7 20 -32 17 -45
-5z"/>
<path d="M250 3025 c0 -8 7 -15 15 -15 8 0 15 7 15 15 0 8 -7 15 -15 15 -8 0
-15 -7 -15 -15z"/>
<path d="M293 2636 c-46 -23 -56 -39 -21 -34 26 4 38 -29 16 -43 -21 -14 -55
-10 -62 6 -3 8 -17 15 -31 15 -24 0 -25 2 -19 35 5 28 3 35 -10 35 -12 0 -16
-10 -16 -40 0 -35 -3 -40 -24 -40 -22 0 -23 -4 -25 -56 -1 -67 22 -72 27 -6 2
23 8 42 14 42 7 0 8 -35 3 -110 -5 -77 -4 -110 4 -110 15 0 21 31 24 133 1 52
6 86 12 85 10 -3 10 -20 3 -63 -4 -26 36 -29 78 -5 l31 17 -5 -23 c-3 -17 0
-24 12 -24 12 0 16 10 16 36 l0 36 34 -26 c40 -30 59 -33 54 -8 -2 9 -19 25
-38 34 l-35 18 33 0 c23 0 32 4 29 13 -2 7 -19 11 -41 10 -30 -2 -36 1 -36 17
0 11 9 28 20 37 22 19 27 44 8 42 -7 -1 -32 -11 -55 -23z m-34 -132 c-29 -31
-39 -30 -39 4 0 26 3 28 31 24 l30 -4 -22 -24z"/>
<path d="M342 2599 c-7 -11 -11 -23 -9 -25 8 -9 58 19 54 30 -7 20 -32 17 -45
-5z"/>
<path d="M250 2575 c0 -8 7 -15 15 -15 8 0 15 7 15 15 0 8 -7 15 -15 15 -8 0
-15 -7 -15 -15z"/>
<path d="M234 2428 c3 -13 6 -35 6 -50 0 -16 5 -28 10 -28 6 0 10 23 10 50 0
39 -3 50 -16 50 -12 0 -15 -6 -10 -22z"/>
<path d="M293 2186 c-46 -23 -56 -39 -21 -34 26 4 38 -29 16 -43 -21 -14 -55
-10 -62 6 -3 8 -17 15 -31 15 -24 0 -25 2 -19 35 5 28 3 35 -10 35 -12 0 -16
-10 -16 -40 0 -35 -3 -40 -24 -40 -22 0 -23 -4 -25 -56 -1 -67 22 -72 27 -6 2
23 8 42 14 42 7 0 8 -35 3 -110 -5 -77 -4 -110 4 -110 15 0 21 31 24 133 1 52
6 86 12 85 10 -3 10 -20 3 -63 -4 -26 36 -29 77 -6 l31 18 -1 -26 c0 -23 4
-26 39 -29 41 -4 41 -2 20 -84 -5 -21 -3 -28 9 -28 10 0 19 16 26 50 17 78 16
80 -29 80 -38 0 -40 1 -40 31 l0 31 34 -26 c40 -30 59 -33 54 -8 -2 9 -19 25
-38 34 l-35 18 33 0 c23 0 32 4 29 13 -2 7 -19 11 -41 10 -30 -2 -36 1 -36 17
0 11 9 28 20 37 22 19 27 44 8 42 -7 -1 -32 -11 -55 -23z m-34 -132 c-29 -31
-39 -30 -39 4 0 26 3 28 31 24 l30 -4 -22 -24z"/>
<path d="M342 2149 c-7 -11 -11 -23 -9 -25 8 -9 58 19 54 30 -7 20 -32 17 -45
-5z"/>
<path d="M250 2125 c0 -8 7 -15 15 -15 8 0 15 7 15 15 0 8 -7 15 -15 15 -8 0
-15 -7 -15 -15z"/>
<path d="M234 1978 c3 -13 6 -35 6 -50 0 -16 5 -28 10 -28 6 0 10 18 10 40 0
29 4 40 15 40 8 0 15 5 15 10 0 6 -14 10 -31 10 -28 0 -31 -3 -25 -22z"/>
<path d="M293 1736 c-46 -23 -56 -39 -21 -34 26 4 38 -29 16 -43 -21 -14 -55
-10 -62 6 -3 8 -17 15 -31 15 -24 0 -25 2 -19 35 5 28 3 35 -10 35 -12 0 -16
-10 -16 -40 0 -35 -3 -40 -24 -40 -22 0 -23 -4 -25 -56 -1 -67 22 -72 27 -6 2
23 8 42 14 42 7 0 8 -35 3 -110 -5 -77 -4 -110 4 -110 15 0 21 31 24 133 1 52
6 86 12 85 10 -3 10 -20 3 -63 -4 -26 36 -29 77 -6 l31 18 -1 -26 c0 -23 5
-26 38 -29 45 -4 48 -17 6 -26 -46 -9 -79 -7 -79 4 0 6 7 10 15 10 8 0 15 5
15 10 0 6 -14 10 -31 10 -28 0 -31 -3 -25 -22 3 -13 6 -35 6 -50 0 -16 5 -28
10 -28 6 0 10 9 10 20 0 16 7 20 33 20 17 0 43 3 56 7 21 5 22 4 12 -15 -15
-29 -14 -52 3 -52 9 0 18 19 25 50 17 78 16 80 -29 80 -38 0 -40 1 -40 31 l0
31 34 -26 c40 -30 59 -33 54 -8 -2 9 -19 25 -38 34 l-35 18 33 0 c23 0 32 4
29 13 -2 7 -19 11 -41 10 -30 -2 -36 1 -36 17 0 11 9 28 20 37 22 19 27 44 8
42 -7 -1 -32 -11 -55 -23z m-34 -132 c-29 -31 -39 -30 -39 4 0 26 3 28 31 24
l30 -4 -22 -24z"/>
<path d="M342 1699 c-7 -11 -11 -23 -9 -25 8 -9 58 19 54 30 -7 20 -32 17 -45
-5z"/>
<path d="M250 1675 c0 -8 7 -15 15 -15 8 0 15 7 15 15 0 8 -7 15 -15 15 -8 0
-15 -7 -15 -15z"/>
<path d="M293 1286 c-46 -23 -56 -39 -21 -34 26 4 38 -29 16 -43 -21 -14 -55
-10 -62 6 -3 8 -17 15 -31 15 -24 0 -25 2 -19 35 5 28 3 35 -10 35 -12 0 -16
-10 -16 -40 0 -35 -3 -40 -24 -40 -22 0 -23 -4 -25 -56 -1 -67 22 -72 27 -6 2
23 8 42 14 42 7 0 8 -35 3 -110 -5 -77 -4 -110 4 -110 15 0 21 31 24 133 1 52
6 86 12 85 10 -3 10 -20 3 -63 -4 -26 36 -29 78 -5 l31 17 -5 -23 c-3 -19 -11
-24 -34 -24 -27 0 -30 -3 -24 -22 3 -13 6 -35 6 -50 0 -16 5 -28 10 -28 6 0
10 9 10 20 0 13 7 20 20 20 11 0 20 -7 20 -15 0 -8 5 -15 10 -15 6 0 10 6 10
14 0 8 7 17 16 20 28 11 35 7 24 -13 -14 -28 -12 -51 4 -51 9 0 18 19 25 50
17 78 16 80 -29 80 -38 0 -40 1 -40 31 l0 31 34 -26 c40 -30 59 -33 54 -8 -2
9 -19 25 -38 34 l-35 18 33 0 c23 0 32 4 29 13 -2 7 -19 11 -41 10 -30 -2 -36
1 -36 17 0 11 9 28 20 37 22 19 27 44 8 42 -7 -1 -32 -11 -55 -23z m-34 -132
c-29 -31 -39 -30 -39 4 0 26 3 28 31 24 l30 -4 -22 -24z m111 -74 c0 -5 -9
-10 -20 -10 -11 0 -20 5 -20 10 0 6 9 10 20 10 11 0 20 -4 20 -10z m-70 -10
c0 -5 -9 -10 -20 -10 -11 0 -20 5 -20 10 0 6 9 10 20 10 11 0 20 -4 20 -10z"/>
<path d="M342 1249 c-7 -11 -11 -23 -9 -25 8 -9 58 19 54 30 -7 20 -32 17 -45
-5z"/>
<path d="M250 1225 c0 -8 7 -15 15 -15 8 0 15 7 15 15 0 8 -7 15 -15 15 -8 0
-15 -7 -15 -15z"/>
<path d="M293 836 c-46 -23 -56 -39 -21 -34 26 4 38 -29 16 -43 -21 -14 -55
-10 -62 6 -3 8 -17 15 -31 15 -24 0 -25 2 -19 35 5 28 3 35 -10 35 -12 0 -16
-10 -16 -40 0 -35 -3 -40 -24 -40 -22 0 -23 -4 -25 -56 -1 -67 22 -72 27 -6 2
23 8 42 14 42 7 0 8 -35 3 -110 -5 -77 -4 -110 4 -110 15 0 21 31 24 133 1 52
6 86 12 85 10 -3 10 -20 3 -63 -4 -26 36 -29 78 -5 l31 17 -5 -23 c-3 -19 -11
-24 -33 -24 -29 0 -29 -1 -23 -42 9 -67 8 -66 63 -60 34 3 51 1 51 -7 0 -6 6
-11 14 -11 9 0 18 19 25 50 17 78 16 80 -29 80 -38 0 -40 1 -40 31 l0 31 34
-26 c40 -30 59 -33 54 -8 -2 9 -19 25 -38 34 l-35 18 33 0 c23 0 32 4 29 13
-2 7 -19 11 -41 10 -30 -2 -36 1 -36 17 0 11 9 28 20 37 22 19 27 44 8 42 -7
-1 -32 -11 -55 -23z m-34 -132 c-29 -31 -39 -30 -39 4 0 26 3 28 31 24 l30 -4
-22 -24z m111 -74 c0 -5 -9 -10 -20 -10 -11 0 -20 5 -20 10 0 6 9 10 20 10 11
0 20 -4 20 -10z m-70 -10 c0 -5 -9 -10 -20 -10 -11 0 -20 5 -20 10 0 6 9 10
20 10 11 0 20 -4 20 -10z m66 -29 c-8 -12 -46 -21 -46 -11 0 9 18 18 38 19 7
1 11 -3 8 -8z m-66 -11 c0 -5 -9 -10 -20 -10 -11 0 -20 5 -20 10 0 6 9 10 20
10 11 0 20 -4 20 -10z"/>
<path d="M342 799 c-7 -11 -11 -23 -9 -25 8 -9 58 19 54 30 -7 20 -32 17 -45
-5z"/>
<path d="M250 775 c0 -8 7 -15 15 -15 8 0 15 7 15 15 0 8 -7 15 -15 15 -8 0
-15 -7 -15 -15z"/>
</g>
</svg>
