<?xml version="1.0" standalone="no"?>
<!DOCTYPE svg PUBLIC "-//W3C//DTD SVG 20010904//EN"
 "http://www.w3.org/TR/2001/REC-SVG-20010904/DTD/svg10.dtd">
<svg version="1.0" xmlns="http://www.w3.org/2000/svg"
 width="50.000000pt" height="725.000000pt" viewBox="0 0 50.000000 725.000000"
 preserveAspectRatio="xMidYMid meet">
<metadata>
Created by potrace 1.16, written by Peter Selinger 2001-2019
</metadata>
<g transform="translate(0.000000,725.000000) scale(0.100000,-0.100000)"
fill="#000000" stroke="none">
<path d="M270 7141 c0 -22 25 -45 40 -36 16 10 12 33 -9 45 -27 14 -31 13 -31
-9z"/>
<path d="M272 6686 c5 -23 1 -25 -44 -31 -26 -4 -48 -11 -48 -17 0 -9 106 -5
188 8 43 7 41 24 -3 24 -22 0 -43 8 -55 20 -27 27 -43 25 -38 -4z"/>
<path d="M272 6236 c5 -23 1 -25 -43 -31 -47 -7 -48 -8 -42 -35 8 -41 -14
-121 -48 -176 -38 -58 -28 -71 16 -21 32 37 65 127 65 179 0 29 19 38 90 38
53 0 90 9 90 21 0 5 -16 9 -35 9 -22 0 -43 8 -55 20 -27 27 -43 25 -38 -4z"/>
<path d="M272 5786 c5 -23 1 -25 -43 -31 -47 -7 -48 -8 -42 -35 8 -41 -14
-121 -48 -176 -38 -58 -28 -71 16 -21 32 37 65 127 65 179 0 29 19 38 90 38
53 0 90 9 90 21 0 5 -16 9 -35 9 -22 0 -43 8 -55 20 -27 27 -43 25 -38 -4z"/>
<path d="M280 5650 c0 -56 3 -70 15 -70 11 0 15 12 15 48 0 26 3 57 6 70 5 18
2 22 -15 22 -19 0 -21 -5 -21 -70z"/>
<path d="M272 5336 c5 -23 1 -25 -43 -31 -47 -7 -48 -8 -42 -35 8 -41 -14
-121 -48 -176 -38 -58 -28 -71 16 -21 32 37 65 127 65 179 0 29 19 38 90 38
53 0 90 9 90 21 0 5 -16 9 -35 9 -22 0 -43 8 -55 20 -27 27 -43 25 -38 -4z"/>
<path d="M280 5200 c0 -56 3 -70 15 -70 10 0 15 10 15 29 0 30 18 41 68 41 15
0 22 5 19 13 -2 8 -19 11 -46 9 -40 -3 -42 -3 -35 22 5 22 3 26 -15 26 -19 0
-21 -5 -21 -70z"/>
<path d="M272 4886 c5 -23 1 -25 -43 -31 -47 -7 -48 -8 -42 -35 8 -41 -14
-121 -48 -176 -38 -58 -28 -71 16 -21 32 37 65 127 65 179 0 29 19 38 90 38
53 0 90 9 90 21 0 5 -16 9 -35 9 -22 0 -43 8 -55 20 -27 27 -43 25 -38 -4z"/>
<path d="M280 4750 c0 -56 3 -70 15 -70 10 0 15 10 15 29 0 30 18 41 68 41 15
0 22 5 19 13 -2 8 -19 11 -46 9 -40 -3 -42 -3 -35 22 5 22 3 26 -15 26 -19 0
-21 -5 -21 -70z"/>
<path d="M223 4673 c3 -10 8 -35 12 -55 7 -47 25 -50 25 -5 0 48 -10 77 -27
77 -9 0 -13 -7 -10 -17z"/>
<path d="M272 4436 c5 -23 1 -25 -43 -31 -47 -7 -48 -8 -42 -35 8 -41 -14
-121 -48 -176 -38 -58 -28 -71 16 -21 32 37 65 127 65 179 0 29 19 38 90 38
53 0 90 9 90 21 0 5 -16 9 -35 9 -22 0 -43 8 -55 20 -27 27 -43 25 -38 -4z"/>
<path d="M280 4305 l0 -65 -31 0 c-24 0 -29 -4 -26 -17 3 -10 8 -35 12 -55 9
-54 28 -48 23 6 -3 42 -1 45 26 50 16 3 39 6 52 6 20 0 22 -3 17 -35 -8 -47
18 -48 35 -2 19 52 16 57 -33 57 -37 0 -45 3 -45 19 0 19 25 31 68 31 15 0 22
5 19 13 -2 8 -19 11 -46 9 -40 -3 -42 -3 -35 22 5 22 3 26 -15 26 -19 0 -21
-6 -21 -65z"/>
<path d="M272 3986 c5 -23 1 -25 -43 -31 -47 -7 -48 -8 -42 -35 8 -41 -14
-121 -48 -176 -38 -58 -28 -71 16 -21 32 37 65 127 65 179 0 29 19 38 90 38
53 0 90 9 90 21 0 5 -16 9 -35 9 -22 0 -43 8 -55 20 -27 27 -43 25 -38 -4z"/>
<path d="M280 3855 l0 -65 -31 0 c-24 0 -29 -4 -26 -17 3 -10 8 -35 12 -56 5
-32 9 -37 23 -31 9 4 40 9 67 12 49 3 51 5 63 43 18 57 16 59 -33 59 -37 0
-45 3 -45 19 0 19 25 31 68 31 15 0 22 5 19 13 -2 8 -19 11 -46 9 -40 -3 -42
-3 -35 22 5 22 3 26 -15 26 -19 0 -21 -6 -21 -65z m74 -97 c-9 -30 -22 -38
-60 -38 -26 0 -33 5 -36 24 -5 27 5 32 70 35 30 1 33 -1 26 -21z"/>
</g>
</svg>
