<?xml version="1.0" standalone="no"?>
<!DOCTYPE svg PUBLIC "-//W3C//DTD SVG 20010904//EN"
 "http://www.w3.org/TR/2001/REC-SVG-20010904/DTD/svg10.dtd">
<svg version="1.0" xmlns="http://www.w3.org/2000/svg"
 width="50.000000pt" height="725.000000pt" viewBox="0 0 50.000000 725.000000"
 preserveAspectRatio="xMidYMid meet">
<metadata>
Created by potrace 1.16, written by Peter Selinger 2001-2019
</metadata>
<g transform="translate(0.000000,725.000000) scale(0.100000,-0.100000)"
fill="#000000" stroke="none">
<path d="M260 7147 c0 -17 20 -37 37 -37 20 0 15 28 -6 40 -26 13 -31 13 -31
-3z"/>
<path d="M260 6696 c0 -8 6 -18 13 -23 7 -5 -11 -10 -46 -14 -55 -6 -76 -14
-66 -24 5 -5 241 16 249 22 12 10 -29 22 -57 17 -23 -4 -36 -1 -52 15 -24 24
-41 27 -41 7z"/>
<path d="M260 6247 c0 -7 5 -18 12 -25 9 -9 3 -12 -27 -12 -73 0 -82 -7 -83
-56 -2 -56 -16 -110 -42 -153 -27 -42 -16 -55 16 -18 23 27 54 112 54 149 0
48 15 56 120 63 55 4 100 11 100 15 0 13 -29 20 -59 14 -21 -5 -34 -1 -50 15
-24 24 -41 27 -41 8z"/>
<path d="M260 5797 c0 -7 5 -18 12 -25 9 -9 3 -12 -27 -12 -73 0 -82 -7 -83
-56 -2 -56 -16 -110 -42 -153 -12 -18 -18 -36 -15 -40 12 -11 55 50 67 94 8
29 16 41 25 38 21 -8 103 7 103 19 0 7 -19 8 -55 3 -52 -6 -55 -5 -55 15 0 50
14 58 120 65 55 4 100 11 100 15 0 13 -29 20 -59 14 -21 -5 -34 -1 -50 15 -24
24 -41 27 -41 8z"/>
<path d="M260 5347 c0 -7 5 -18 12 -25 9 -9 3 -12 -27 -12 -73 0 -82 -7 -83
-56 -2 -56 -16 -110 -42 -153 -12 -18 -18 -36 -15 -40 12 -11 55 50 67 93 10
38 14 42 39 38 l27 -4 -5 -79 c-4 -51 -2 -79 5 -79 16 0 22 27 22 101 0 62 2
69 20 69 11 0 20 5 20 10 0 6 -9 10 -20 10 -17 0 -20 6 -18 27 2 19 -2 28 -15
31 -14 3 -17 -3 -15 -30 3 -28 -1 -34 -19 -36 -18 -3 -23 2 -23 18 0 50 14 58
120 65 55 4 100 11 100 15 0 13 -29 20 -59 14 -21 -5 -34 -1 -50 15 -24 24
-41 27 -41 8z"/>
<path d="M260 4897 c0 -7 5 -18 12 -25 9 -9 3 -12 -27 -12 -73 0 -82 -7 -83
-56 -2 -56 -16 -110 -42 -153 -12 -18 -18 -36 -15 -40 12 -11 55 50 67 93 10
37 14 42 34 38 22 -4 22 -6 10 -31 -8 -14 -23 -35 -35 -45 -12 -11 -21 -23
-21 -28 0 -15 17 -8 44 18 l26 27 0 -52 c0 -50 12 -67 24 -35 3 9 6 47 6 85 0
62 2 69 20 69 11 0 20 5 20 10 0 6 -9 10 -20 10 -17 0 -20 6 -18 27 2 19 -2
28 -15 31 -14 3 -17 -3 -15 -30 3 -28 -1 -34 -19 -36 -18 -3 -23 2 -23 18 0
50 14 58 120 65 55 4 100 11 100 15 0 13 -29 20 -59 14 -21 -5 -34 -1 -50 15
-24 24 -41 27 -41 8z"/>
<path d="M260 4447 c0 -7 5 -18 12 -25 9 -9 3 -12 -27 -12 -73 0 -82 -7 -83
-56 -2 -56 -16 -110 -42 -153 -12 -18 -18 -36 -15 -40 12 -11 55 50 67 93 10
37 14 42 34 38 22 -4 22 -6 10 -31 -8 -14 -23 -35 -35 -45 -12 -11 -21 -23
-21 -28 0 -15 17 -8 44 18 l26 27 0 -52 c0 -50 12 -67 24 -35 3 9 6 35 6 59 0
38 2 43 20 38 11 -3 20 0 20 5 0 6 -9 16 -20 22 -11 6 -20 15 -20 20 0 6 9 10
20 10 11 0 20 5 20 10 0 6 -9 10 -20 10 -17 0 -20 6 -18 27 2 19 -2 28 -15 31
-14 3 -17 -3 -15 -30 3 -28 -1 -34 -19 -36 -18 -3 -23 2 -23 18 0 50 14 58
120 65 55 4 100 11 100 15 0 13 -29 20 -59 14 -21 -5 -34 -1 -50 15 -24 24
-41 27 -41 8z"/>
<path d="M260 3997 c0 -7 5 -18 12 -25 9 -9 3 -12 -27 -12 -73 0 -82 -7 -83
-56 -2 -56 -16 -110 -42 -153 -12 -18 -18 -36 -15 -40 12 -11 55 50 67 93 10
37 14 42 34 38 22 -4 22 -6 10 -31 -8 -14 -23 -35 -35 -45 -12 -11 -21 -23
-21 -28 0 -15 17 -8 44 18 l26 27 0 -52 c0 -50 12 -67 24 -35 3 9 6 35 6 59 0
38 2 43 20 38 11 -3 20 0 20 5 0 6 -9 16 -20 22 -11 6 -20 15 -20 20 0 6 9 10
20 10 11 0 20 5 20 10 0 6 -9 10 -20 10 -17 0 -20 6 -18 27 2 19 -2 28 -15 31
-14 3 -17 -3 -15 -30 3 -28 -1 -34 -19 -36 -18 -3 -23 2 -23 18 0 50 14 58
120 65 55 4 100 11 100 15 0 13 -29 20 -59 14 -21 -5 -34 -1 -50 15 -24 24
-41 27 -41 8z"/>
<path d="M310 3838 c0 -29 -3 -70 -6 -90 -5 -31 -4 -38 10 -38 14 0 16 13 16
90 0 53 -4 90 -10 90 -5 0 -10 -24 -10 -52z"/>
<path d="M260 3547 c0 -7 5 -18 12 -25 9 -9 3 -12 -27 -12 -73 0 -82 -7 -83
-56 -2 -56 -16 -110 -42 -153 -12 -18 -18 -36 -15 -40 12 -11 55 50 67 93 10
37 14 42 34 38 22 -4 22 -6 10 -31 -8 -14 -23 -35 -35 -45 -12 -11 -21 -23
-21 -28 0 -15 17 -8 44 18 l26 27 0 -52 c0 -50 12 -67 24 -35 3 9 6 35 6 59 0
38 2 43 20 38 11 -3 20 0 20 5 0 6 -9 16 -20 22 -11 6 -20 15 -20 20 0 6 9 10
20 10 11 0 20 5 20 10 0 6 -9 10 -20 10 -17 0 -20 6 -18 27 2 19 -2 28 -15 31
-14 3 -17 -3 -15 -30 3 -28 -1 -34 -19 -36 -18 -3 -23 2 -23 18 0 50 14 58
120 65 55 4 100 11 100 15 0 13 -29 20 -59 14 -21 -5 -34 -1 -50 15 -24 24
-41 27 -41 8z"/>
<path d="M360 3441 c0 -5 5 -13 11 -17 8 -5 10 -34 6 -91 -4 -74 -3 -84 12
-81 13 3 16 18 16 98 0 91 -1 95 -22 98 -13 2 -23 -1 -23 -7z"/>
<path d="M310 3388 c0 -29 -3 -70 -6 -90 -5 -31 -4 -38 10 -38 13 0 16 13 16
80 0 47 4 80 10 80 6 0 10 5 10 10 0 6 -9 10 -20 10 -17 0 -20 -7 -20 -52z"/>
<path d="M260 3097 c0 -7 5 -18 12 -25 9 -9 3 -12 -27 -12 -73 0 -82 -7 -83
-56 -2 -56 -16 -110 -42 -153 -12 -18 -18 -36 -15 -40 12 -11 55 50 67 93 10
37 14 42 34 38 22 -4 22 -6 10 -31 -8 -14 -23 -35 -35 -45 -12 -11 -21 -23
-21 -28 0 -15 17 -8 44 18 l26 27 0 -52 c0 -50 12 -67 24 -35 3 9 6 35 6 59 0
38 2 43 20 38 11 -3 20 0 20 5 0 6 -9 16 -20 22 -11 6 -20 15 -20 20 0 6 9 10
20 10 11 0 20 5 20 10 0 6 -9 10 -20 10 -17 0 -20 6 -18 27 2 19 -2 28 -15 31
-14 3 -17 -3 -15 -30 3 -28 -1 -34 -19 -36 -18 -3 -23 2 -23 18 0 50 14 58
120 65 55 4 100 11 100 15 0 13 -29 20 -59 14 -21 -5 -34 -1 -50 15 -24 24
-41 27 -41 8z"/>
<path d="M360 2991 c0 -5 5 -13 11 -17 8 -5 10 -34 6 -91 -4 -74 -3 -84 12
-81 13 3 16 18 16 98 0 91 -1 95 -22 98 -13 2 -23 -1 -23 -7z"/>
<path d="M310 2938 c0 -29 -3 -70 -6 -90 -5 -31 -4 -38 10 -38 13 0 16 11 16
55 0 48 2 55 20 55 11 0 20 5 20 10 0 6 -9 10 -20 10 -11 0 -20 7 -20 15 0 8
5 15 10 15 6 0 10 5 10 10 0 6 -9 10 -20 10 -17 0 -20 -7 -20 -52z"/>
<path d="M260 2647 c0 -7 5 -18 12 -25 9 -9 3 -12 -27 -12 -73 0 -82 -7 -83
-56 -2 -56 -16 -110 -42 -153 -12 -18 -18 -36 -15 -40 12 -11 55 50 67 93 10
37 14 42 34 38 22 -4 22 -6 10 -31 -8 -14 -23 -35 -35 -45 -12 -11 -21 -23
-21 -28 0 -15 17 -8 44 18 l26 27 0 -52 c0 -50 12 -67 24 -35 3 9 6 35 6 59 0
38 2 43 20 38 11 -3 20 0 20 5 0 6 -9 16 -20 22 -11 6 -20 15 -20 20 0 6 9 10
20 10 11 0 20 5 20 10 0 6 -9 10 -20 10 -17 0 -20 6 -18 27 2 19 -2 28 -15 31
-14 3 -17 -3 -15 -30 3 -28 -1 -34 -19 -36 -18 -3 -23 2 -23 18 0 50 14 58
120 65 55 4 100 11 100 15 0 13 -29 20 -59 14 -21 -5 -34 -1 -50 15 -24 24
-41 27 -41 8z"/>
<path d="M360 2541 c0 -5 5 -13 10 -16 14 -9 12 -72 -2 -78 -10 -4 -10 -7 0
-15 10 -6 11 -20 6 -47 -6 -33 -4 -37 12 -33 17 3 19 13 19 98 0 91 -1 95 -22
98 -13 2 -23 -1 -23 -7z"/>
<path d="M310 2488 c0 -29 -3 -70 -6 -90 -5 -31 -4 -38 10 -38 11 0 16 9 16
29 0 16 6 32 13 35 10 5 10 7 0 12 -20 9 -15 34 7 34 11 0 20 5 20 10 0 6 -9
10 -20 10 -11 0 -20 7 -20 15 0 8 5 15 10 15 6 0 10 5 10 10 0 6 -9 10 -20 10
-17 0 -20 -7 -20 -52z"/>
<path d="M260 2197 c0 -7 5 -18 12 -25 9 -9 3 -12 -27 -12 -73 0 -82 -7 -83
-56 -2 -56 -16 -110 -42 -153 -12 -18 -18 -36 -15 -40 12 -11 55 50 67 93 10
37 14 42 34 38 22 -4 22 -6 10 -31 -8 -14 -23 -35 -35 -45 -12 -11 -21 -23
-21 -28 0 -15 17 -8 44 18 l26 27 0 -52 c0 -50 12 -67 24 -35 3 9 6 35 6 59 0
38 2 43 20 38 11 -3 20 0 20 5 0 6 -9 16 -20 22 -11 6 -20 15 -20 20 0 6 9 10
20 10 11 0 20 5 20 10 0 6 -9 10 -20 10 -17 0 -20 6 -18 27 2 19 -2 28 -15 31
-14 3 -17 -3 -15 -30 3 -28 -1 -34 -19 -36 -18 -3 -23 2 -23 18 0 50 14 58
120 65 55 4 100 11 100 15 0 13 -29 20 -59 14 -21 -5 -34 -1 -50 15 -24 24
-41 27 -41 8z"/>
<path d="M360 2091 c0 -5 5 -13 10 -16 14 -9 12 -72 -2 -79 -10 -5 -10 -7 0
-12 6 -3 12 -14 12 -25 0 -14 -7 -19 -25 -19 -26 0 -35 24 -12 34 10 5 10 7 0
12 -20 9 -15 34 7 34 11 0 20 5 20 10 0 6 -9 10 -20 10 -11 0 -20 7 -20 15 0
8 5 15 10 15 6 0 10 5 10 10 0 6 -9 10 -20 10 -17 0 -20 -7 -20 -52 0 -29 -3
-70 -7 -92 l-6 -38 33 7 c22 5 35 3 40 -5 4 -7 15 -10 24 -7 14 6 16 21 14 99
-3 88 -4 93 -25 96 -13 2 -23 -1 -23 -7z"/>
</g>
</svg>
