<?xml version="1.0" standalone="no"?>
<!DOCTYPE svg PUBLIC "-//W3C//DTD SVG 20010904//EN"
 "http://www.w3.org/TR/2001/REC-SVG-20010904/DTD/svg10.dtd">
<svg version="1.0" xmlns="http://www.w3.org/2000/svg"
 width="50.000000pt" height="725.000000pt" viewBox="0 0 50.000000 725.000000"
 preserveAspectRatio="xMidYMid meet">
<metadata>
Created by potrace 1.16, written by Peter Selinger 2001-2019
</metadata>
<g transform="translate(0.000000,725.000000) scale(0.100000,-0.100000)"
fill="#000000" stroke="none">
<path d="M230 7158 c0 -16 19 -38 33 -38 4 0 7 10 5 22 -3 25 -38 39 -38 16z"/>
<path d="M233 6701 c4 -16 -3 -20 -44 -25 -27 -4 -49 -11 -49 -16 0 -9 167 -4
218 6 42 8 22 24 -32 24 -39 0 -55 4 -60 15 -8 23 -39 19 -33 -4z"/>
<path d="M233 6251 c4 -16 -3 -20 -44 -25 -56 -8 -66 -26 -14 -26 29 0 35 -4
35 -21 0 -11 -5 -29 -11 -41 -6 -11 -8 -22 -5 -25 12 -12 36 22 42 58 l7 39
52 0 c30 0 60 3 69 6 33 13 14 24 -38 24 -39 0 -55 4 -60 15 -8 23 -39 19 -33
-4z"/>
<path d="M233 5801 c4 -16 -3 -20 -44 -25 -56 -8 -66 -26 -14 -26 29 0 35 -4
35 -21 0 -11 -5 -29 -11 -41 -6 -11 -8 -22 -5 -25 12 -12 37 22 42 59 5 29 11
38 23 36 13 -3 15 -14 13 -51 -2 -37 0 -47 12 -47 12 0 16 12 16 50 0 46 2 50
24 50 31 0 56 10 56 21 0 5 -24 9 -54 9 -39 0 -55 4 -60 15 -8 23 -39 19 -33
-4z"/>
<path d="M233 5351 c4 -16 -3 -20 -44 -25 -56 -8 -66 -26 -14 -26 29 0 35 -4
35 -21 0 -11 -5 -29 -11 -41 -6 -11 -8 -22 -5 -25 12 -12 37 22 42 59 5 29 11
38 23 36 13 -3 15 -14 13 -51 -2 -37 0 -47 12 -47 12 0 16 12 16 50 0 46 2 50
24 50 31 0 56 10 56 21 0 5 -24 9 -54 9 -39 0 -55 4 -60 15 -8 23 -39 19 -33
-4z"/>
<path d="M146 5248 c-9 -17 -14 -34 -11 -37 9 -9 58 46 51 58 -12 19 -24 12
-40 -21z"/>
<path d="M233 4901 c4 -16 -3 -20 -44 -25 -56 -8 -66 -26 -14 -26 29 0 35 -4
35 -21 0 -11 -5 -29 -11 -41 -6 -11 -8 -22 -5 -25 12 -12 37 22 42 59 5 29 11
38 23 36 13 -3 15 -14 13 -51 -2 -37 0 -47 12 -47 12 0 16 12 16 50 0 46 2 50
24 50 31 0 56 10 56 21 0 5 -24 9 -54 9 -39 0 -55 4 -60 15 -8 23 -39 19 -33
-4z"/>
<path d="M146 4798 c-9 -17 -14 -34 -11 -37 9 -9 58 46 51 58 -12 19 -24 12
-40 -21z"/>
<path d="M320 4823 c1 -13 38 -53 49 -53 19 0 12 39 -8 50 -23 12 -41 13 -41
3z"/>
<path d="M233 4451 c4 -16 -3 -20 -44 -25 -56 -8 -66 -26 -14 -26 29 0 35 -4
35 -21 0 -11 -5 -29 -11 -41 -6 -11 -8 -22 -5 -25 12 -12 37 22 42 59 5 29 11
38 23 36 13 -3 15 -14 13 -51 -2 -37 0 -47 12 -47 12 0 16 12 16 50 0 46 2 50
24 50 31 0 56 10 56 21 0 5 -24 9 -54 9 -39 0 -55 4 -60 15 -8 23 -39 19 -33
-4z"/>
<path d="M146 4348 c-9 -17 -14 -34 -11 -37 9 -9 58 46 51 58 -12 19 -24 12
-40 -21z"/>
<path d="M320 4373 c1 -13 38 -53 49 -53 19 0 12 39 -8 50 -23 12 -41 13 -41
3z"/>
<path d="M285 4269 c-172 -17 -195 -20 -195 -29 0 -15 26 -18 71 -9 24 4 92 8
152 9 105 0 128 8 88 30 -11 5 -21 9 -23 9 -2 -1 -43 -6 -93 -10z"/>
<path d="M233 4001 c4 -16 -3 -20 -44 -25 -56 -8 -66 -26 -14 -26 29 0 35 -4
35 -21 0 -11 -5 -29 -11 -41 -6 -11 -8 -22 -5 -25 12 -12 37 22 42 59 5 29 11
38 23 36 13 -3 15 -14 13 -51 -2 -37 0 -47 12 -47 12 0 16 12 16 50 0 46 2 50
24 50 31 0 56 10 56 21 0 5 -24 9 -54 9 -39 0 -55 4 -60 15 -8 23 -39 19 -33
-4z"/>
<path d="M146 3898 c-9 -17 -14 -34 -11 -37 9 -9 58 46 51 58 -12 19 -24 12
-40 -21z"/>
<path d="M320 3923 c1 -13 38 -53 49 -53 19 0 12 39 -8 50 -23 12 -41 13 -41
3z"/>
<path d="M190 3826 c0 -9 -17 -16 -50 -21 -28 -4 -50 -11 -50 -16 0 -11 12
-13 63 -10 44 3 46 -7 11 -49 -15 -17 -24 -33 -21 -36 11 -11 48 23 64 59 l17
37 98 0 c56 0 98 4 98 10 0 13 -36 31 -52 26 -7 -2 -43 -7 -80 -10 -57 -6 -68
-4 -68 9 0 8 -7 15 -15 15 -8 0 -15 -6 -15 -14z"/>
<path d="M233 3551 c4 -16 -3 -20 -44 -25 -56 -8 -66 -26 -14 -26 29 0 35 -4
35 -21 0 -11 -5 -29 -11 -41 -6 -11 -8 -22 -5 -25 12 -12 37 22 42 59 5 29 11
38 23 36 13 -3 15 -14 13 -51 -2 -37 0 -47 12 -47 12 0 16 12 16 50 0 46 2 50
24 50 31 0 56 10 56 21 0 5 -24 9 -54 9 -39 0 -55 4 -60 15 -8 23 -39 19 -33
-4z"/>
<path d="M146 3448 c-9 -17 -14 -34 -11 -37 9 -9 58 46 51 58 -12 19 -24 12
-40 -21z"/>
<path d="M320 3473 c1 -13 38 -53 49 -53 19 0 12 39 -8 50 -23 12 -41 13 -41
3z"/>
<path d="M277 3380 c-6 -24 -57 -29 -57 -5 0 8 -7 15 -15 15 -8 0 -15 -6 -15
-14 0 -9 -17 -16 -50 -21 -27 -4 -50 -11 -50 -16 0 -11 12 -13 63 -10 44 3 46
-7 11 -49 -15 -17 -24 -33 -21 -36 11 -11 48 23 64 59 14 30 22 37 45 37 27 0
28 -1 28 -56 0 -73 24 -70 28 4 l3 52 55 0 c29 0 54 4 54 10 0 16 -34 28 -64
23 -20 -4 -31 -1 -38 11 -12 22 -35 20 -41 -4z"/>
</g>
</svg>
