<?xml version="1.0" standalone="no"?>
<!DOCTYPE svg PUBLIC "-//W3C//DTD SVG 20010904//EN"
 "http://www.w3.org/TR/2001/REC-SVG-20010904/DTD/svg10.dtd">
<svg version="1.0" xmlns="http://www.w3.org/2000/svg"
 width="50.000000pt" height="725.000000pt" viewBox="0 0 50.000000 725.000000"
 preserveAspectRatio="xMidYMid meet">
<metadata>
Created by potrace 1.16, written by Peter Selinger 2001-2019
</metadata>
<g transform="translate(0.000000,725.000000) scale(0.100000,-0.100000)"
fill="#000000" stroke="none">
<path d="M143 7143 c-28 -5 -30 -23 -3 -23 15 0 20 -7 20 -25 0 -33 11 -31 33
6 25 45 14 54 -50 42z"/>
<path d="M143 6693 c-28 -5 -30 -23 -3 -23 34 0 25 -36 -10 -43 -45 -10 -38
-29 8 -21 20 4 37 7 37 8 0 0 8 16 18 34 25 49 15 58 -50 45z"/>
<path d="M143 6243 c-28 -5 -30 -23 -3 -23 13 0 20 -7 20 -19 0 -13 -10 -21
-34 -25 -24 -5 -34 -12 -34 -24 0 -9 -3 -30 -7 -46 -7 -26 -6 -28 16 -21 42
13 44 11 41 -34 -3 -50 -16 -73 -38 -64 -18 7 -18 -8 0 -33 15 -19 15 -19 35
1 22 22 48 124 38 149 -4 9 -17 16 -31 16 -19 0 -23 4 -19 20 3 12 14 20 27
20 14 1 26 12 38 37 24 51 16 59 -49 46z"/>
<path d="M143 5793 c-28 -5 -30 -23 -3 -23 13 0 20 -7 20 -19 0 -13 -10 -21
-34 -25 -24 -5 -34 -12 -34 -24 0 -9 -3 -30 -7 -46 -7 -26 -6 -28 16 -21 42
13 44 11 41 -34 -3 -50 -16 -73 -38 -64 -18 7 -18 -8 0 -33 15 -19 15 -19 35
1 22 22 48 124 38 149 -4 9 -17 16 -31 16 -19 0 -23 4 -19 20 3 12 14 20 27
20 14 1 26 12 38 37 24 51 16 59 -49 46z"/>
<path d="M238 5728 c4 -70 7 -86 16 -77 2 2 7 37 11 77 6 66 6 72 -12 72 -17
0 -18 -7 -15 -72z"/>
<path d="M277 5353 c-39 -3 -47 -7 -43 -19 3 -9 6 -42 6 -75 0 -33 4 -59 10
-59 6 0 10 12 10 28 0 15 3 44 6 65 5 30 11 37 29 37 13 0 30 3 39 6 19 7 22
25 4 22 -7 -1 -35 -3 -61 -5z"/>
<path d="M143 5343 c-28 -5 -30 -23 -3 -23 13 0 20 -7 20 -19 0 -13 -10 -21
-34 -25 -24 -5 -34 -12 -34 -24 0 -9 -3 -30 -7 -46 -7 -26 -6 -28 16 -21 42
13 44 11 41 -34 -3 -50 -16 -73 -38 -64 -18 7 -18 -8 0 -33 15 -19 15 -19 35
1 22 22 48 124 38 149 -4 9 -17 16 -31 16 -19 0 -23 4 -19 20 3 12 14 20 27
20 14 1 26 12 38 37 24 51 16 59 -49 46z"/>
<path d="M277 4903 c-39 -3 -47 -7 -43 -19 3 -9 6 -42 6 -75 0 -33 4 -59 10
-59 6 0 10 17 10 39 0 37 1 39 40 45 22 3 40 11 40 17 0 7 -12 9 -35 5 -28 -6
-35 -4 -35 9 0 9 9 15 24 15 13 0 31 3 40 6 19 7 22 25 4 22 -7 -1 -35 -3 -61
-5z"/>
<path d="M143 4893 c-28 -5 -30 -23 -3 -23 13 0 20 -7 20 -19 0 -13 -10 -21
-34 -25 -24 -5 -34 -12 -34 -24 0 -9 -3 -30 -7 -46 -7 -26 -6 -28 16 -21 42
13 44 11 41 -34 -3 -50 -16 -73 -38 -64 -18 7 -18 -8 0 -33 15 -19 15 -19 35
1 22 22 48 124 38 149 -4 9 -17 16 -31 16 -19 0 -23 4 -19 20 3 12 14 20 27
20 14 1 26 12 38 37 24 51 16 59 -49 46z"/>
<path d="M277 4453 c-39 -3 -47 -7 -43 -19 3 -9 6 -42 6 -75 0 -33 4 -59 10
-59 6 0 10 9 10 19 0 11 6 22 13 25 10 5 10 7 0 12 -24 11 -13 21 27 28 22 3
40 11 40 17 0 7 -12 9 -35 5 -28 -6 -35 -4 -35 9 0 9 9 15 24 15 13 0 31 3 40
6 19 7 22 25 4 22 -7 -1 -35 -3 -61 -5z"/>
<path d="M143 4443 c-28 -5 -30 -23 -3 -23 13 0 20 -7 20 -19 0 -13 -10 -21
-34 -25 -24 -5 -34 -12 -34 -24 0 -9 -3 -30 -7 -46 -7 -26 -6 -28 16 -21 42
13 44 11 41 -34 -3 -50 -16 -73 -38 -64 -18 7 -18 -8 0 -33 15 -19 15 -19 35
1 22 22 48 124 38 149 -4 9 -17 16 -31 16 -19 0 -23 4 -19 20 3 12 14 20 27
20 14 1 26 12 38 37 24 51 16 59 -49 46z"/>
<path d="M290 4360 c0 -5 11 -10 25 -10 14 0 25 5 25 10 0 6 -11 10 -25 10
-14 0 -25 -4 -25 -10z"/>
<path d="M280 4003 l-46 -4 4 -69 c5 -78 5 -78 -79 -64 -30 5 -36 10 -32 25 3
11 14 19 27 19 14 1 26 12 38 38 21 44 12 56 -36 47 -38 -8 -50 -25 -16 -25
13 0 20 -7 20 -19 0 -13 -10 -21 -34 -25 -24 -5 -34 -12 -34 -24 0 -9 -3 -30
-7 -46 -7 -26 -6 -28 16 -21 42 13 44 11 41 -34 -3 -50 -16 -73 -38 -64 -18 7
-18 -8 0 -32 14 -19 15 -19 35 -1 12 11 25 42 32 76 l11 57 67 7 c36 3 86 6
109 6 31 0 42 4 39 13 -3 8 -24 11 -71 9 -61 -3 -86 7 -53 22 10 5 10 7 0 12
-24 11 -13 21 27 28 22 3 40 11 40 17 0 7 -12 9 -35 5 -28 -6 -35 -4 -35 9 0
9 9 15 24 15 13 0 31 3 40 6 19 7 22 25 4 22 -7 -1 -33 -3 -58 -5z"/>
<path d="M290 3910 c0 -5 11 -10 25 -10 14 0 25 5 25 10 0 6 -11 10 -25 10
-14 0 -25 -4 -25 -10z"/>
<path d="M280 3553 l-46 -4 4 -69 c5 -78 5 -78 -79 -64 -30 5 -36 10 -32 25 3
11 14 19 27 19 14 1 26 12 38 38 21 44 12 56 -36 47 -38 -8 -50 -25 -16 -25
13 0 20 -7 20 -19 0 -13 -10 -21 -34 -25 -24 -5 -34 -12 -34 -24 0 -9 -3 -30
-7 -46 -7 -26 -6 -28 16 -21 42 13 44 11 41 -34 -3 -50 -16 -73 -38 -64 -18 7
-18 -8 0 -32 14 -19 15 -19 35 -1 12 11 25 42 32 77 10 49 15 59 32 59 18 0
19 -5 15 -75 -3 -43 -1 -78 5 -82 11 -7 74 53 65 62 -4 4 -16 1 -28 -5 -20
-11 -21 -10 -14 42 4 29 12 56 18 60 6 4 40 8 74 8 47 0 62 3 59 13 -3 8 -24
11 -71 9 -61 -3 -86 7 -53 22 10 5 10 7 0 12 -24 11 -13 21 27 28 22 3 40 11
40 17 0 7 -12 9 -35 5 -28 -6 -35 -4 -35 9 0 9 9 15 24 15 13 0 31 3 40 6 19
7 22 25 4 22 -7 -1 -33 -3 -58 -5z"/>
<path d="M290 3460 c0 -5 11 -10 25 -10 14 0 25 5 25 10 0 6 -11 10 -25 10
-14 0 -25 -4 -25 -10z"/>
<path d="M280 3103 l-46 -4 4 -69 c5 -78 5 -78 -79 -64 -30 5 -36 10 -32 25 3
11 14 19 27 19 14 1 26 12 38 38 21 44 12 56 -36 47 -38 -8 -50 -25 -16 -25
13 0 20 -7 20 -19 0 -13 -10 -21 -34 -25 -24 -5 -34 -12 -34 -24 0 -9 -3 -30
-7 -46 -7 -26 -6 -28 16 -21 42 13 44 11 41 -34 -3 -50 -16 -73 -38 -64 -18 7
-18 -8 0 -32 14 -19 15 -19 35 -1 12 11 25 42 32 77 10 49 15 59 32 59 18 0
19 -5 15 -75 -3 -43 -1 -78 5 -82 11 -7 74 53 65 62 -4 4 -16 1 -28 -5 -20
-11 -21 -10 -14 42 4 29 12 56 18 60 6 4 40 8 74 8 47 0 62 3 59 13 -3 8 -24
11 -71 9 -61 -3 -86 7 -53 22 10 5 10 7 0 12 -24 11 -13 21 27 28 22 3 40 11
40 17 0 7 -12 9 -35 5 -28 -6 -35 -4 -35 9 0 9 9 15 24 15 13 0 31 3 40 6 19
7 22 25 4 22 -7 -1 -33 -3 -58 -5z"/>
<path d="M290 3010 c0 -5 11 -10 25 -10 14 0 25 5 25 10 0 6 -11 10 -25 10
-14 0 -25 -4 -25 -10z"/>
<path d="M330 2919 c-7 -11 -9 -23 -7 -26 9 -9 47 17 47 32 0 22 -28 18 -40
-6z"/>
<path d="M280 2653 l-46 -4 4 -69 c5 -78 5 -78 -79 -64 -30 5 -36 10 -32 25 3
11 14 19 27 19 14 1 26 12 38 38 21 44 12 56 -36 47 -38 -8 -50 -25 -16 -25
13 0 20 -7 20 -19 0 -13 -10 -21 -34 -25 -24 -5 -34 -12 -34 -24 0 -9 -3 -30
-7 -46 -7 -26 -6 -28 16 -21 42 13 44 11 41 -34 -3 -50 -16 -73 -38 -64 -18 7
-18 -8 0 -32 14 -19 15 -19 35 -1 12 11 25 42 32 77 10 49 15 59 32 59 18 0
19 -5 15 -75 -3 -43 -1 -78 5 -82 11 -7 74 53 65 62 -4 4 -16 1 -28 -5 -20
-11 -21 -10 -14 42 4 29 12 56 18 60 6 4 40 8 74 8 47 0 62 3 59 13 -3 8 -24
11 -71 9 -61 -3 -86 7 -53 22 10 5 10 7 0 12 -24 11 -13 21 27 28 22 3 40 11
40 17 0 7 -12 9 -35 5 -28 -6 -35 -4 -35 9 0 9 9 15 24 15 13 0 31 3 40 6 19
7 22 25 4 22 -7 -1 -33 -3 -58 -5z"/>
<path d="M290 2560 c0 -5 11 -10 25 -10 14 0 25 5 25 10 0 6 -11 10 -25 10
-14 0 -25 -4 -25 -10z"/>
<path d="M330 2469 c-11 -19 -13 -19 -29 -5 -20 18 -41 21 -41 6 0 -5 4 -10
10 -10 5 0 25 -21 45 -47 44 -58 56 -66 90 -57 34 8 32 18 -9 32 -18 7 -41 21
-50 31 -17 18 -17 20 3 31 24 12 28 40 6 40 -8 0 -19 -9 -25 -21z"/>
</g>
</svg>
