<?xml version="1.0" standalone="no"?>
<!DOCTYPE svg PUBLIC "-//W3C//DTD SVG 20010904//EN"
 "http://www.w3.org/TR/2001/REC-SVG-20010904/DTD/svg10.dtd">
<svg version="1.0" xmlns="http://www.w3.org/2000/svg"
 width="50.000000pt" height="725.000000pt" viewBox="0 0 50.000000 725.000000"
 preserveAspectRatio="xMidYMid meet">
<metadata>
Created by potrace 1.16, written by Peter Selinger 2001-2019
</metadata>
<g transform="translate(0.000000,725.000000) scale(0.100000,-0.100000)"
fill="#000000" stroke="none">
<path d="M128 7048 c-21 -6 -38 -15 -38 -20 0 -7 14 -8 38 -4 20 3 43 6 50 6
6 0 12 7 12 15 0 17 -9 17 -62 3z"/>
<path d="M143 6655 c7 -45 6 -47 -23 -58 -37 -14 -39 -27 -5 -27 25 0 25 -1
25 -81 0 -60 3 -80 13 -77 8 3 13 32 15 86 2 45 7 82 12 82 6 0 10 7 10 15 0
8 -4 15 -9 15 -6 0 -11 19 -13 42 -2 24 -9 43 -17 46 -11 4 -13 -5 -8 -43z"/>
<path d="M143 6205 c7 -45 6 -47 -23 -58 -34 -13 -39 -27 -10 -27 27 0 25 -16
-6 -57 -31 -41 -24 -56 11 -23 l25 23 0 -52 c0 -38 4 -51 13 -49 8 3 13 32 15
86 2 45 7 82 12 82 6 0 10 7 10 15 0 8 -4 15 -9 15 -6 0 -11 19 -13 42 -2 24
-9 43 -17 46 -11 4 -13 -5 -8 -43z"/>
<path d="M143 5755 c7 -45 6 -47 -23 -58 -34 -13 -39 -27 -10 -27 27 0 25 -16
-6 -57 -31 -41 -24 -56 11 -23 l25 23 0 -52 c0 -74 24 -64 28 12 2 44 6 55 17
50 21 -7 19 17 -2 34 -13 10 -15 16 -5 19 14 7 17 34 3 34 -6 0 -11 19 -13 42
-2 24 -9 43 -17 46 -11 4 -13 -5 -8 -43z"/>
<path d="M143 5305 c7 -45 6 -47 -23 -58 -34 -13 -39 -27 -10 -27 27 0 25 -16
-6 -57 -31 -41 -24 -56 11 -23 l25 23 0 -52 c0 -74 24 -64 28 12 2 44 6 55 17
50 21 -7 19 17 -2 34 -13 10 -15 16 -5 19 14 7 17 34 3 34 -6 0 -11 19 -13 42
-2 24 -9 43 -17 46 -11 4 -13 -5 -8 -43z"/>
<path d="M243 5269 c-46 -13 -42 -32 5 -23 43 8 52 12 52 25 0 11 -14 10 -57
-2z"/>
<path d="M240 4870 c0 -36 -4 -52 -15 -56 -20 -8 -19 -24 1 -24 13 0 15 -13
12 -89 -1 -49 0 -92 4 -96 19 -19 28 13 28 100 0 73 3 94 15 99 20 7 19 26 -1
26 -14 0 -15 7 -10 39 5 36 -3 51 -30 51 -2 0 -4 -23 -4 -50z"/>
<path d="M143 4855 c7 -45 6 -47 -23 -58 -34 -13 -39 -27 -10 -27 27 0 25 -16
-6 -57 -31 -41 -24 -56 11 -23 l25 23 0 -52 c0 -74 24 -64 28 12 2 44 6 55 17
50 21 -7 19 17 -2 34 -13 10 -15 16 -5 19 14 7 17 34 3 34 -6 0 -11 19 -13 42
-2 24 -9 43 -17 46 -11 4 -13 -5 -8 -43z"/>
<path d="M240 4420 c0 -36 -4 -52 -15 -56 -20 -8 -19 -24 1 -24 13 0 11 -8
-10 -47 -29 -51 -27 -66 5 -37 l22 19 -6 -51 c-6 -52 3 -81 22 -70 7 5 11 43
11 101 0 73 3 94 15 99 20 7 19 26 -1 26 -14 0 -15 7 -10 39 5 36 -3 51 -30
51 -2 0 -4 -23 -4 -50z"/>
<path d="M143 4405 c7 -45 6 -47 -23 -58 -34 -13 -39 -27 -10 -27 27 0 25 -16
-6 -57 -31 -41 -24 -56 11 -23 l25 23 0 -52 c0 -74 24 -64 28 12 2 44 6 55 17
50 21 -7 19 17 -2 34 -13 10 -15 16 -5 19 14 7 17 34 3 34 -6 0 -11 19 -13 42
-2 24 -9 43 -17 46 -11 4 -13 -5 -8 -43z"/>
<path d="M240 3970 c0 -36 -4 -52 -15 -56 -20 -8 -19 -24 1 -24 13 0 11 -8
-10 -47 -29 -51 -27 -66 5 -37 l22 19 -6 -51 c-3 -27 -2 -56 3 -63 16 -27 30
2 30 64 0 53 3 63 15 59 10 -4 15 0 15 10 0 9 -7 19 -15 22 -8 4 -15 12 -15
19 0 7 7 15 15 19 20 7 19 26 -1 26 -14 0 -15 7 -10 39 5 36 -3 51 -30 51 -2
0 -4 -23 -4 -50z"/>
<path d="M143 3955 c7 -45 6 -47 -23 -58 -34 -13 -39 -27 -10 -27 27 0 25 -16
-6 -57 -31 -41 -24 -56 11 -23 l25 23 0 -52 c0 -74 24 -64 28 12 2 44 6 55 17
50 21 -7 19 17 -2 34 -13 10 -15 16 -5 19 14 7 17 34 3 34 -6 0 -11 19 -13 42
-2 24 -9 43 -17 46 -11 4 -13 -5 -8 -43z"/>
<path d="M240 3520 c0 -36 -4 -52 -15 -56 -20 -8 -19 -24 1 -24 13 0 11 -8
-10 -47 -29 -51 -27 -66 5 -37 l22 19 -6 -51 c-3 -27 -2 -56 3 -63 16 -27 30
2 30 64 0 53 3 63 15 59 10 -4 15 0 15 10 0 9 -7 19 -15 22 -8 4 -15 12 -15
19 0 7 7 15 15 19 20 7 19 26 -1 26 -14 0 -15 7 -10 39 5 36 -3 51 -30 51 -2
0 -4 -23 -4 -50z"/>
<path d="M362 3526 c-7 -18 -21 -41 -32 -51 -21 -19 -26 -35 -10 -35 13 0 90
82 90 96 0 9 -21 24 -34 24 -1 0 -7 -15 -14 -34z"/>
<path d="M143 3505 c7 -45 6 -47 -23 -58 -34 -13 -39 -27 -10 -27 27 0 25 -16
-6 -57 -31 -41 -24 -56 11 -23 l25 23 0 -52 c0 -74 24 -64 28 12 2 44 6 55 17
50 21 -7 19 17 -2 34 -13 10 -15 16 -5 19 14 7 17 34 3 34 -6 0 -11 19 -13 42
-2 24 -9 43 -17 46 -11 4 -13 -5 -8 -43z"/>
<path d="M240 3070 c0 -36 -4 -52 -15 -56 -20 -8 -19 -24 1 -24 13 0 11 -8
-10 -47 -29 -51 -27 -66 5 -37 l22 19 -6 -51 c-3 -27 -2 -56 3 -63 16 -27 30
2 30 64 0 53 3 63 15 59 10 -4 15 0 15 10 0 9 -7 19 -15 22 -8 4 -15 12 -15
19 0 7 7 15 15 19 20 7 19 26 -1 26 -14 0 -15 7 -10 39 5 36 -3 51 -30 51 -2
0 -4 -23 -4 -50z"/>
<path d="M362 3076 c-7 -18 -21 -41 -32 -51 -21 -19 -26 -35 -10 -35 13 0 90
82 90 96 0 9 -21 24 -34 24 -1 0 -7 -15 -14 -34z"/>
<path d="M143 3055 c7 -45 6 -47 -23 -58 -34 -13 -39 -27 -10 -27 27 0 25 -16
-6 -57 -31 -41 -24 -56 11 -23 l25 23 0 -52 c0 -74 24 -64 28 12 2 44 6 55 17
50 21 -7 19 17 -2 34 -13 10 -15 16 -5 19 14 7 17 34 3 34 -6 0 -11 19 -13 42
-2 24 -9 43 -17 46 -11 4 -13 -5 -8 -43z"/>
<path d="M351 2964 c-34 -48 -35 -62 -4 -46 32 18 66 60 60 76 -10 25 -21 19
-56 -30z"/>
<path d="M240 2620 c0 -36 -4 -52 -15 -56 -20 -8 -19 -24 1 -24 13 0 11 -8
-10 -47 -29 -51 -27 -66 5 -37 l22 19 -6 -51 c-3 -27 -2 -56 3 -63 16 -27 30
2 30 64 0 53 3 63 15 59 10 -4 15 0 15 10 0 9 -7 19 -15 22 -8 4 -15 12 -15
19 0 7 7 15 15 19 20 7 19 26 -1 26 -14 0 -15 7 -10 39 5 36 -3 51 -30 51 -2
0 -4 -23 -4 -50z"/>
<path d="M362 2626 c-7 -18 -21 -41 -32 -51 -21 -19 -26 -35 -10 -35 13 0 90
82 90 96 0 9 -21 24 -34 24 -1 0 -7 -15 -14 -34z"/>
<path d="M143 2605 c7 -45 6 -47 -23 -58 -34 -13 -39 -27 -10 -27 27 0 25 -16
-6 -57 -31 -41 -24 -56 11 -23 l25 23 0 -52 c0 -74 24 -64 28 12 2 44 6 55 17
50 21 -7 19 17 -2 34 -13 10 -15 16 -5 19 14 7 17 34 3 34 -6 0 -11 19 -13 42
-2 24 -9 43 -17 46 -11 4 -13 -5 -8 -43z"/>
<path d="M351 2514 c-34 -48 -35 -62 -4 -46 32 18 66 60 60 76 -10 25 -21 19
-56 -30z"/>
<path d="M377 2441 c-14 -21 -44 -52 -66 -67 -42 -30 -51 -44 -28 -44 32 0
147 104 147 132 0 30 -26 20 -53 -21z"/>
</g>
</svg>
