<?xml version="1.0" standalone="no"?>
<!DOCTYPE svg PUBLIC "-//W3C//DTD SVG 20010904//EN"
 "http://www.w3.org/TR/2001/REC-SVG-20010904/DTD/svg10.dtd">
<svg version="1.0" xmlns="http://www.w3.org/2000/svg"
 width="50.000000pt" height="725.000000pt" viewBox="0 0 50.000000 725.000000"
 preserveAspectRatio="xMidYMid meet">
<metadata>
Created by potrace 1.16, written by Peter Selinger 2001-2019
</metadata>
<g transform="translate(0.000000,725.000000) scale(0.100000,-0.100000)"
fill="#000000" stroke="none">
<path d="M170 7141 c0 -5 -16 -31 -36 -56 -19 -26 -33 -49 -31 -52 16 -15 114
88 102 107 -8 13 -35 13 -35 1z"/>
<path d="M170 6691 c0 -5 -16 -31 -36 -56 -19 -26 -33 -49 -31 -52 16 -15 114
88 102 107 -8 13 -35 13 -35 1z"/>
<path d="M172 6597 c-6 -18 -30 -52 -53 -76 -42 -43 -46 -61 -11 -42 31 17
113 114 110 131 -6 29 -33 21 -46 -13z"/>
<path d="M170 6241 c0 -5 -16 -31 -36 -56 -19 -26 -33 -49 -31 -52 16 -15 114
88 102 107 -8 13 -35 13 -35 1z"/>
<path d="M172 6147 c-6 -18 -30 -51 -52 -74 -22 -23 -40 -45 -40 -48 0 -12 21
-3 51 22 l32 27 -7 -67 c-7 -57 -5 -67 8 -67 13 0 16 12 18 58 2 99 5 112 23
132 19 21 14 50 -8 50 -7 0 -18 -15 -25 -33z"/>
<path d="M170 5791 c0 -5 -16 -31 -36 -56 -19 -26 -33 -49 -31 -52 16 -15 114
88 102 107 -8 13 -35 13 -35 1z"/>
<path d="M290 5779 c0 -20 21 -49 35 -49 22 0 18 38 -4 50 -25 13 -31 13 -31
-1z"/>
<path d="M172 5697 c-6 -18 -30 -51 -52 -74 -22 -23 -40 -45 -40 -48 0 -12 21
-3 51 22 l32 27 -7 -67 c-7 -57 -5 -67 8 -67 13 0 16 12 18 58 2 99 5 112 23
132 19 21 14 50 -8 50 -7 0 -18 -15 -25 -33z"/>
<path d="M170 5341 c0 -5 -16 -31 -36 -56 -19 -26 -33 -49 -31 -52 16 -15 114
88 102 107 -8 13 -35 13 -35 1z"/>
<path d="M290 5329 c0 -6 4 -19 10 -29 8 -16 5 -19 -21 -25 -17 -4 -45 -4 -63
-1 -29 6 -33 3 -44 -27 -6 -18 -30 -51 -52 -74 -22 -23 -40 -45 -40 -48 0 -12
21 -3 51 22 l32 27 -7 -67 c-7 -57 -5 -67 8 -67 13 0 16 12 18 58 3 138 9 146
106 156 106 11 142 18 142 28 0 6 -20 8 -45 6 -37 -3 -45 0 -45 14 0 10 -9 22
-19 28 -25 13 -31 13 -31 -1z"/>
<path d="M170 4891 c0 -5 -16 -31 -36 -56 -19 -26 -33 -49 -31 -52 16 -15 114
88 102 107 -8 13 -35 13 -35 1z"/>
<path d="M290 4879 c0 -6 4 -19 10 -29 8 -16 5 -19 -21 -25 -17 -4 -45 -4 -63
-1 -29 6 -33 3 -44 -27 -6 -18 -30 -51 -52 -74 -22 -23 -40 -45 -40 -48 0 -12
21 -3 51 22 l32 27 -7 -67 c-7 -57 -5 -67 8 -67 13 0 16 12 18 58 3 138 9 146
106 156 106 11 142 18 142 28 0 6 -20 8 -45 6 -37 -3 -45 0 -45 14 0 10 -9 22
-19 28 -25 13 -31 13 -31 -1z"/>
<path d="M310 4760 c0 -5 9 -10 20 -10 30 0 34 -23 12 -74 -17 -37 -24 -44
-41 -39 -24 6 -26 -4 -7 -29 31 -41 54 -18 92 90 16 46 16 54 4 62 -20 13 -80
13 -80 0z"/>
<path d="M170 4441 c0 -5 -16 -31 -36 -56 -19 -26 -33 -49 -31 -52 16 -15 114
88 102 107 -8 13 -35 13 -35 1z"/>
<path d="M290 4429 c0 -6 4 -19 10 -29 8 -16 5 -19 -21 -25 -17 -4 -45 -4 -63
-1 -29 6 -33 3 -44 -27 -6 -18 -30 -51 -52 -74 -22 -23 -40 -45 -40 -48 0 -12
21 -3 51 22 l32 27 -7 -67 c-7 -57 -5 -67 8 -67 13 0 16 12 18 58 2 99 5 112
23 132 16 18 85 30 85 15 0 -20 -34 -79 -65 -114 -21 -23 -35 -44 -32 -47 10
-11 67 37 93 77 25 40 60 52 70 25 3 -8 -3 -35 -14 -60 -17 -37 -24 -44 -41
-39 -24 6 -26 -4 -7 -29 31 -41 54 -18 92 90 21 59 14 72 -38 72 -21 0 -25 4
-21 19 4 15 17 21 54 26 62 9 65 28 4 23 -37 -3 -45 0 -45 14 0 10 -9 22 -19
28 -25 13 -31 13 -31 -1z"/>
</g>
</svg>
