<?xml version="1.0" standalone="no"?>
<!DOCTYPE svg PUBLIC "-//W3C//DTD SVG 20010904//EN"
 "http://www.w3.org/TR/2001/REC-SVG-20010904/DTD/svg10.dtd">
<svg version="1.0" xmlns="http://www.w3.org/2000/svg"
 width="50.000000pt" height="725.000000pt" viewBox="0 0 50.000000 725.000000"
 preserveAspectRatio="xMidYMid meet">
<metadata>
Created by potrace 1.16, written by Peter Selinger 2001-2019
</metadata>
<g transform="translate(0.000000,725.000000) scale(0.100000,-0.100000)"
fill="#000000" stroke="none">
<path d="M185 7139 c-4 -11 -20 -36 -37 -55 -17 -19 -28 -37 -25 -40 18 -18
104 74 93 101 -8 21 -24 19 -31 -6z"/>
<path d="M185 6689 c-4 -11 -20 -36 -37 -55 -17 -19 -28 -37 -25 -40 18 -18
104 74 93 101 -8 21 -24 19 -31 -6z"/>
<path d="M190 6607 c0 -9 -23 -41 -51 -72 -51 -55 -59 -76 -21 -56 29 15 113
112 109 125 -6 17 -37 19 -37 3z"/>
<path d="M185 6239 c-4 -11 -20 -36 -37 -55 -17 -19 -28 -37 -25 -40 18 -18
104 74 93 101 -8 21 -24 19 -31 -6z"/>
<path d="M190 6156 c0 -8 -22 -39 -50 -69 -27 -30 -50 -58 -50 -61 0 -13 20
-5 50 20 l31 27 -3 -61 c-3 -63 3 -79 22 -67 7 4 10 34 9 80 -2 55 2 80 15
100 9 14 14 30 11 35 -9 15 -35 12 -35 -4z"/>
<path d="M185 5789 c-4 -11 -20 -36 -37 -55 -17 -19 -28 -37 -25 -40 18 -18
104 74 93 101 -8 21 -24 19 -31 -6z"/>
<path d="M290 5795 c0 -8 -10 -36 -21 -60 -39 -82 -4 -67 41 17 25 47 25 58 0
58 -11 0 -20 -7 -20 -15z"/>
<path d="M190 5706 c0 -8 -22 -39 -50 -69 -27 -30 -50 -58 -50 -61 0 -13 20
-5 50 20 l31 27 -3 -61 c-3 -63 3 -79 22 -67 7 4 10 34 9 80 -2 55 2 80 15
100 9 14 14 30 11 35 -9 15 -35 12 -35 -4z"/>
<path d="M185 5339 c-4 -11 -20 -36 -37 -55 -17 -19 -28 -37 -25 -40 18 -18
104 74 93 101 -8 21 -24 19 -31 -6z"/>
<path d="M290 5345 c0 -8 -10 -36 -21 -60 -22 -46 -19 -72 4 -43 6 9 33 19 58
22 55 8 59 2 58 -82 -1 -81 -11 -108 -37 -105 -27 3 -28 -8 -4 -30 23 -21 48
-22 55 -3 3 7 9 65 12 129 7 107 6 115 -11 121 -11 3 -35 1 -54 -4 -50 -14
-52 -13 -35 20 20 39 19 50 -5 50 -11 0 -20 -7 -20 -15z"/>
<path d="M190 5256 c0 -8 -22 -39 -50 -69 -27 -30 -50 -58 -50 -61 0 -13 20
-5 50 20 l31 27 -3 -61 c-3 -63 3 -79 22 -67 7 4 10 34 9 80 -2 55 2 80 15
100 9 14 14 30 11 35 -9 15 -35 12 -35 -4z"/>
<path d="M185 4889 c-4 -11 -20 -36 -37 -55 -17 -19 -28 -37 -25 -40 18 -18
104 74 93 101 -8 21 -24 19 -31 -6z"/>
<path d="M290 4895 c0 -8 -10 -36 -21 -60 -22 -46 -19 -72 4 -43 6 9 33 19 58
22 55 8 59 2 58 -82 -1 -81 -11 -108 -37 -105 -27 3 -28 -8 -4 -30 23 -21 48
-22 55 -3 3 7 9 65 12 129 7 107 6 115 -11 121 -11 3 -35 1 -54 -4 -50 -14
-52 -13 -35 20 20 39 19 50 -5 50 -11 0 -20 -7 -20 -15z"/>
<path d="M190 4806 c0 -8 -22 -39 -50 -69 -27 -30 -50 -58 -50 -61 0 -13 20
-5 50 20 l31 27 -3 -61 c-3 -63 3 -79 22 -67 7 4 10 34 9 80 -2 55 2 80 15
100 9 14 14 30 11 35 -9 15 -35 12 -35 -4z"/>
<path d="M240 4705 c0 -30 5 -55 10 -55 6 0 10 25 10 55 0 30 -4 55 -10 55 -5
0 -10 -25 -10 -55z"/>
<path d="M185 4439 c-4 -11 -20 -36 -37 -55 -17 -19 -28 -37 -25 -40 18 -18
104 74 93 101 -8 21 -24 19 -31 -6z"/>
<path d="M290 4445 c0 -8 -10 -36 -21 -60 -22 -46 -19 -72 4 -43 6 9 33 19 58
22 55 8 59 2 58 -82 -1 -81 -11 -108 -37 -105 -27 3 -28 -8 -4 -30 23 -21 48
-22 55 -3 3 7 9 65 12 129 7 107 6 115 -11 121 -11 3 -35 1 -54 -4 -50 -14
-52 -13 -35 20 20 39 19 50 -5 50 -11 0 -20 -7 -20 -15z"/>
<path d="M190 4356 c0 -8 -22 -39 -50 -69 -27 -30 -50 -58 -50 -61 0 -13 20
-5 50 20 l31 27 -3 -61 c-3 -63 3 -79 22 -67 7 4 10 34 9 80 -2 55 2 80 15
100 9 14 14 30 11 35 -9 15 -35 12 -35 -4z"/>
<path d="M273 4319 c-32 -9 -33 -11 -33 -64 0 -30 5 -55 10 -55 6 0 10 23 10
50 0 47 2 50 25 50 23 0 25 -3 25 -50 0 -27 4 -50 9 -50 14 0 22 113 8 122
-14 9 -12 9 -54 -3z"/>
<path d="M185 3989 c-4 -11 -20 -36 -37 -55 -17 -19 -28 -37 -25 -40 18 -18
104 74 93 101 -8 21 -24 19 -31 -6z"/>
<path d="M290 3995 c0 -8 -10 -36 -21 -60 -22 -46 -19 -72 4 -43 6 9 33 19 58
22 55 8 59 2 58 -82 -1 -81 -11 -108 -37 -105 -27 3 -28 -8 -4 -30 23 -21 48
-22 55 -3 3 7 9 65 12 129 7 107 6 115 -11 121 -11 3 -35 1 -54 -4 -50 -14
-52 -13 -35 20 20 39 19 50 -5 50 -11 0 -20 -7 -20 -15z"/>
<path d="M190 3906 c0 -8 -22 -39 -50 -69 -27 -30 -50 -58 -50 -61 0 -13 20
-5 50 20 l31 27 -3 -61 c-3 -63 3 -79 22 -67 7 4 10 34 9 80 -2 55 2 80 15
100 9 14 14 30 11 35 -9 15 -35 12 -35 -4z"/>
<path d="M273 3869 c-32 -9 -33 -11 -33 -64 0 -30 5 -55 10 -55 6 0 10 14 10
30 0 25 4 30 25 30 21 0 25 -5 25 -30 0 -52 17 -32 23 27 4 40 2 60 -6 65 -14
9 -12 9 -54 -3z m37 -29 c0 -5 -11 -10 -25 -10 -14 0 -25 5 -25 10 0 6 11 10
25 10 14 0 25 -4 25 -10z"/>
<path d="M185 3539 c-4 -11 -20 -36 -37 -55 -17 -19 -28 -37 -25 -40 18 -18
104 74 93 101 -8 21 -24 19 -31 -6z"/>
<path d="M290 3545 c0 -8 -10 -36 -21 -60 -22 -46 -19 -72 4 -43 6 9 33 19 58
22 55 8 59 2 58 -82 -1 -81 -11 -108 -37 -105 -27 3 -28 -8 -4 -30 23 -21 48
-22 55 -3 3 7 9 65 12 129 7 107 6 115 -11 121 -11 3 -35 1 -54 -4 -50 -14
-52 -13 -35 20 20 39 19 50 -5 50 -11 0 -20 -7 -20 -15z"/>
<path d="M190 3456 c0 -8 -22 -39 -50 -69 -27 -30 -50 -58 -50 -61 0 -13 20
-5 50 20 l31 27 -3 -61 c-3 -63 3 -79 22 -67 7 4 10 34 9 80 -2 55 2 80 15
100 9 14 14 30 11 35 -9 15 -35 12 -35 -4z"/>
<path d="M273 3419 c-32 -9 -33 -11 -33 -62 l0 -52 44 0 44 0 5 55 c4 37 2 57
-6 62 -14 9 -12 9 -54 -3z m37 -29 c0 -5 -11 -10 -25 -10 -14 0 -25 5 -25 10
0 6 11 10 25 10 14 0 25 -4 25 -10z m0 -45 c0 -9 -9 -15 -25 -15 -16 0 -25 6
-25 15 0 9 9 15 25 15 16 0 25 -6 25 -15z"/>
</g>
</svg>
