<?xml version="1.0" standalone="no"?>
<!DOCTYPE svg PUBLIC "-//W3C//DTD SVG 20010904//EN"
 "http://www.w3.org/TR/2001/REC-SVG-20010904/DTD/svg10.dtd">
<svg version="1.0" xmlns="http://www.w3.org/2000/svg"
 width="50.000000pt" height="725.000000pt" viewBox="0 0 50.000000 725.000000"
 preserveAspectRatio="xMidYMid meet">
<metadata>
Created by potrace 1.16, written by Peter Selinger 2001-2019
</metadata>
<g transform="translate(0.000000,725.000000) scale(0.100000,-0.100000)"
fill="#000000" stroke="none">
<path d="M163 7143 c-4 -10 -18 -35 -31 -56 -14 -20 -22 -41 -17 -45 10 -10
86 79 83 97 -4 22 -27 25 -35 4z"/>
<path d="M163 6693 c-4 -10 -18 -35 -31 -56 -14 -20 -22 -41 -17 -45 10 -10
86 79 83 97 -4 22 -27 25 -35 4z"/>
<path d="M159 6588 c-7 -18 -29 -50 -48 -71 -18 -21 -31 -40 -28 -43 16 -16
120 97 115 125 -6 27 -25 22 -39 -11z"/>
<path d="M163 6243 c-4 -10 -18 -35 -31 -56 -14 -20 -22 -41 -17 -45 10 -10
86 79 83 97 -4 22 -27 25 -35 4z"/>
<path d="M159 6138 c-7 -18 -29 -50 -48 -71 -40 -45 -35 -58 10 -26 l32 22 -7
-61 c-6 -52 -5 -62 9 -62 11 0 15 13 17 58 3 90 4 96 17 120 13 24 9 52 -7 52
-5 0 -16 -15 -23 -32z"/>
<path d="M163 5793 c-4 -10 -18 -35 -31 -56 -14 -20 -22 -41 -17 -45 10 -10
86 79 83 97 -4 22 -27 25 -35 4z"/>
<path d="M159 5688 c-7 -18 -29 -50 -48 -71 -40 -45 -35 -58 10 -26 l32 22 -7
-61 c-6 -52 -5 -62 9 -62 11 0 15 13 17 58 3 90 4 96 17 120 13 24 9 52 -7 52
-5 0 -16 -15 -23 -32z"/>
<path d="M215 5698 c4 -11 10 -53 14 -91 3 -39 11 -72 18 -74 8 -3 10 14 7 59
-8 104 -14 128 -30 128 -11 0 -13 -6 -9 -22z"/>
<path d="M163 5343 c-4 -10 -18 -35 -31 -56 -14 -20 -22 -41 -17 -45 10 -10
86 79 83 97 -4 22 -27 25 -35 4z"/>
<path d="M297 5277 c-81 -9 -87 -12 -81 -30 3 -11 9 -52 13 -90 9 -103 29 -98
23 6 l-4 84 38 6 c22 4 54 7 72 7 l32 0 0 -59 c0 -41 -5 -65 -16 -75 -19 -20
-9 -58 14 -54 12 2 19 19 25 53 4 28 11 70 16 95 10 48 1 71 -28 68 -9 0 -55
-6 -104 -11z"/>
<path d="M159 5238 c-7 -18 -29 -50 -48 -71 -40 -45 -35 -58 10 -26 l32 22 -7
-61 c-6 -52 -5 -62 9 -62 11 0 15 13 17 58 3 90 4 96 17 120 13 24 9 52 -7 52
-5 0 -16 -15 -23 -32z"/>
<path d="M163 4893 c-4 -10 -18 -35 -31 -56 -14 -20 -22 -41 -17 -45 10 -10
86 79 83 97 -4 22 -27 25 -35 4z"/>
<path d="M297 4827 c-81 -9 -87 -12 -81 -30 3 -11 9 -52 13 -90 9 -103 29 -98
23 6 l-4 84 38 6 c22 4 54 7 72 7 l32 0 0 -59 c0 -41 -5 -65 -16 -75 -19 -20
-9 -58 14 -54 12 2 19 19 25 53 4 28 11 70 16 95 10 48 1 71 -28 68 -9 0 -55
-6 -104 -11z"/>
<path d="M159 4788 c-7 -18 -29 -50 -48 -71 -40 -45 -35 -58 10 -26 l32 22 -7
-61 c-6 -52 -5 -62 9 -62 11 0 15 13 17 58 3 90 4 96 17 120 13 24 9 52 -7 52
-5 0 -16 -15 -23 -32z"/>
<path d="M274 4754 c3 -9 6 -27 6 -40 0 -13 5 -24 10 -24 6 0 10 18 10 40 0
30 -4 40 -16 40 -11 0 -14 -5 -10 -16z"/>
<path d="M163 4443 c-4 -10 -18 -35 -31 -56 -14 -20 -22 -41 -17 -45 10 -10
86 79 83 97 -4 22 -27 25 -35 4z"/>
<path d="M297 4377 c-81 -9 -87 -12 -81 -30 3 -11 9 -52 13 -90 9 -103 29 -98
23 6 l-4 84 38 6 c22 4 54 7 72 7 l32 0 0 -59 c0 -41 -5 -65 -16 -75 -19 -20
-9 -58 14 -54 12 2 19 19 25 53 4 28 11 70 16 95 10 48 1 71 -28 68 -9 0 -55
-6 -104 -11z"/>
<path d="M159 4338 c-7 -18 -29 -50 -48 -71 -40 -45 -35 -58 10 -26 l32 22 -7
-61 c-6 -52 -5 -62 9 -62 11 0 15 13 17 58 3 90 4 96 17 120 13 24 9 52 -7 52
-5 0 -16 -15 -23 -32z"/>
<path d="M297 4323 c-21 -3 -27 -9 -23 -20 3 -8 6 -26 6 -39 0 -13 5 -24 10
-24 6 0 10 13 10 29 0 16 6 31 15 35 11 4 15 -1 15 -19 0 -31 16 -33 24 -2 13
49 11 50 -57 40z"/>
<path d="M163 3993 c-4 -10 -18 -35 -31 -56 -14 -20 -22 -41 -17 -45 10 -10
86 79 83 97 -4 22 -27 25 -35 4z"/>
<path d="M297 3927 c-81 -9 -87 -12 -81 -30 3 -11 9 -52 13 -90 9 -103 29 -98
23 6 l-4 84 38 6 c22 4 54 7 72 7 l32 0 0 -59 c0 -41 -5 -65 -16 -75 -19 -20
-9 -58 14 -54 12 2 19 19 25 53 4 28 11 70 16 95 10 48 1 71 -28 68 -9 0 -55
-6 -104 -11z"/>
<path d="M159 3888 c-7 -18 -29 -50 -48 -71 -40 -45 -35 -58 10 -26 l32 22 -7
-61 c-6 -52 -5 -62 9 -62 11 0 15 13 17 58 3 90 4 96 17 120 13 24 9 52 -7 52
-5 0 -16 -15 -23 -32z"/>
<path d="M297 3873 c-21 -3 -27 -9 -23 -20 3 -8 6 -25 6 -39 0 -21 3 -23 33
-17 17 3 33 6 34 7 0 1 4 18 8 39 8 40 9 40 -58 30z m33 -33 c0 -11 -7 -20
-15 -20 -27 0 -18 30 13 39 1 1 2 -8 2 -19z"/>
<path d="M163 3543 c-4 -10 -18 -35 -31 -56 -14 -20 -22 -41 -17 -45 10 -10
86 79 83 97 -4 22 -27 25 -35 4z"/>
<path d="M297 3477 c-81 -9 -87 -12 -81 -30 3 -11 9 -52 13 -91 l6 -71 64 3
c43 3 66 0 71 -8 17 -28 38 -1 45 57 4 32 11 73 16 92 9 38 -2 62 -30 59 -9 0
-55 -6 -104 -11z m93 -74 c0 -32 -4 -63 -8 -70 -4 -6 -35 -15 -70 -19 l-62 -7
0 71 c0 79 -3 77 98 81 l42 1 0 -57z"/>
<path d="M297 3423 c-21 -3 -27 -9 -23 -20 3 -8 6 -25 6 -39 0 -21 3 -23 33
-17 17 3 33 6 34 7 0 1 4 18 8 39 8 40 9 40 -58 30z m33 -33 c0 -11 -7 -20
-15 -20 -27 0 -18 30 13 39 1 1 2 -8 2 -19z"/>
<path d="M159 3438 c-7 -18 -29 -50 -48 -71 -40 -45 -35 -58 10 -26 l32 22 -7
-61 c-6 -52 -5 -62 9 -62 11 0 15 13 17 58 3 90 4 96 17 120 13 24 9 52 -7 52
-5 0 -16 -15 -23 -32z"/>
</g>
</svg>
