<?xml version="1.0" standalone="no"?>
<!DOCTYPE svg PUBLIC "-//W3C//DTD SVG 20010904//EN"
 "http://www.w3.org/TR/2001/REC-SVG-20010904/DTD/svg10.dtd">
<svg version="1.0" xmlns="http://www.w3.org/2000/svg"
 width="50.000000pt" height="725.000000pt" viewBox="0 0 50.000000 725.000000"
 preserveAspectRatio="xMidYMid meet">
<metadata>
Created by potrace 1.16, written by Peter Selinger 2001-2019
</metadata>
<g transform="translate(0.000000,725.000000) scale(0.100000,-0.100000)"
fill="#000000" stroke="none">
<path d="M81 7014 c-10 -27 -10 -39 -2 -47 16 -16 31 8 31 51 0 42 -13 41 -29
-4z"/>
<path d="M133 6544 c-1 -123 1 -164 10 -161 12 4 31 302 20 320 -2 4 -10 7
-16 7 -9 0 -12 -45 -14 -166z"/>
<path d="M81 6564 c-10 -27 -10 -39 -2 -47 16 -16 31 8 31 51 0 42 -13 41 -29
-4z"/>
<path d="M133 6095 c-1 -124 1 -165 10 -162 8 2 14 41 18 108 3 57 6 98 7 92
3 -18 32 -16 32 2 0 7 -8 18 -17 23 -11 7 -17 24 -17 53 -1 30 -6 45 -16 47
-13 2 -15 -22 -17 -163z"/>
<path d="M81 6114 c-10 -27 -10 -39 -2 -47 16 -16 31 8 31 51 0 42 -13 41 -29
-4z"/>
<path d="M133 5645 c-1 -124 1 -165 10 -162 8 2 14 41 18 108 3 57 6 98 7 92
3 -18 32 -16 32 2 0 7 -8 18 -17 23 -11 7 -17 24 -17 53 -1 30 -6 45 -16 47
-13 2 -15 -22 -17 -163z"/>
<path d="M226 5692 c-8 -16 -22 -34 -30 -41 -19 -16 -21 -31 -5 -31 16 0 79
68 79 86 0 24 -29 15 -44 -14z"/>
<path d="M81 5664 c-10 -27 -10 -39 -2 -47 16 -16 31 8 31 51 0 42 -13 41 -29
-4z"/>
<path d="M133 5195 c-1 -124 1 -165 10 -162 8 2 14 41 18 108 3 57 6 98 7 92
3 -18 32 -16 32 2 0 7 -8 18 -17 23 -11 7 -17 24 -17 53 -1 30 -6 45 -16 47
-13 2 -15 -22 -17 -163z"/>
<path d="M272 5322 c12 -29 86 -122 101 -127 20 -7 57 2 57 14 0 5 -13 14 -28
20 -16 7 -49 32 -73 57 -39 39 -66 57 -57 36z"/>
<path d="M226 5242 c-8 -16 -22 -34 -30 -41 -19 -16 -21 -31 -5 -31 16 0 79
68 79 86 0 24 -29 15 -44 -14z"/>
<path d="M81 5214 c-10 -27 -10 -39 -2 -47 16 -16 31 8 31 51 0 42 -13 41 -29
-4z"/>
<path d="M133 4745 c-1 -124 1 -165 10 -162 8 2 14 41 18 108 3 57 6 98 7 92
3 -18 32 -16 32 2 0 7 -8 18 -17 23 -11 7 -17 24 -17 53 -1 30 -6 45 -16 47
-13 2 -15 -22 -17 -163z"/>
<path d="M272 4872 c12 -29 86 -122 101 -127 20 -7 57 2 57 14 0 5 -13 14 -28
20 -16 7 -49 32 -73 57 -39 39 -66 57 -57 36z"/>
<path d="M226 4792 c-8 -16 -22 -34 -30 -41 -19 -16 -21 -31 -5 -31 16 0 79
68 79 86 0 24 -29 15 -44 -14z"/>
<path d="M81 4764 c-10 -27 -10 -39 -2 -47 16 -16 31 8 31 51 0 42 -13 41 -29
-4z"/>
<path d="M255 4720 c-10 -22 -24 -45 -32 -51 -15 -13 -18 -49 -3 -49 25 0 130
34 130 42 0 9 -35 5 -83 -9 -16 -4 -15 1 8 37 25 39 28 70 7 70 -5 0 -17 -18
-27 -40z"/>
<path d="M133 4295 c-1 -124 1 -165 10 -162 8 2 14 41 18 108 3 57 6 98 7 92
3 -18 32 -16 32 2 0 7 -8 18 -17 23 -11 7 -17 24 -17 53 -1 30 -6 45 -16 47
-13 2 -15 -22 -17 -163z"/>
<path d="M272 4422 c12 -29 86 -122 101 -127 20 -7 57 2 57 14 0 5 -13 14 -28
20 -16 7 -49 32 -73 57 -39 39 -66 57 -57 36z"/>
<path d="M226 4342 c-8 -16 -22 -34 -30 -41 -19 -16 -21 -31 -5 -31 16 0 79
68 79 86 0 24 -29 15 -44 -14z"/>
<path d="M81 4314 c-10 -27 -10 -39 -2 -47 16 -16 31 8 31 51 0 42 -13 41 -29
-4z"/>
<path d="M255 4270 c-10 -22 -24 -45 -32 -51 -16 -14 -18 -49 -2 -49 6 0 36 7
66 16 52 15 55 15 68 -3 11 -14 16 -16 26 -6 10 11 9 18 -8 40 -23 32 -60 45
-50 19 7 -17 3 -20 -46 -30 l-28 -7 26 42 c25 38 27 69 7 69 -5 0 -17 -18 -27
-40z"/>
</g>
</svg>
