<?xml version="1.0" standalone="no"?>
<!DOCTYPE svg PUBLIC "-//W3C//DTD SVG 20010904//EN"
 "http://www.w3.org/TR/2001/REC-SVG-20010904/DTD/svg10.dtd">
<svg version="1.0" xmlns="http://www.w3.org/2000/svg"
 width="50.000000pt" height="725.000000pt" viewBox="0 0 50.000000 725.000000"
 preserveAspectRatio="xMidYMid meet">
<metadata>
Created by potrace 1.16, written by Peter Selinger 2001-2019
</metadata>
<g transform="translate(0.000000,725.000000) scale(0.100000,-0.100000)"
fill="#000000" stroke="none">
<path d="M84 7015 c-7 -38 -2 -51 15 -40 14 8 15 75 1 75 -5 0 -12 -16 -16
-35z"/>
<path d="M136 6548 c0 -116 3 -163 12 -166 7 -2 12 0 12 5 1 4 2 78 3 163 2
131 0 155 -13 158 -13 2 -15 -21 -14 -160z"/>
<path d="M84 6565 c-7 -38 -2 -51 15 -40 14 8 15 75 1 75 -5 0 -12 -16 -16
-35z"/>
<path d="M136 6098 c0 -116 3 -163 12 -166 15 -5 15 0 12 113 -1 73 1 88 11
78 7 -7 17 -13 21 -13 14 0 9 38 -6 43 -10 4 -16 24 -18 54 -2 33 -8 49 -18
51 -13 2 -15 -21 -14 -160z"/>
<path d="M84 6115 c-7 -38 -2 -51 15 -40 14 8 15 75 1 75 -5 0 -12 -16 -16
-35z"/>
<path d="M136 5648 c0 -116 3 -163 12 -166 15 -5 15 0 12 113 -1 73 1 88 11
78 18 -18 29 -16 29 6 0 15 10 19 53 25 28 3 67 6 85 6 22 0 32 5 32 15 0 18
-11 18 -101 4 -38 -7 -69 -16 -69 -21 0 -5 -6 -8 -12 -6 -7 3 -15 27 -18 54
-3 33 -10 50 -20 52 -13 2 -15 -21 -14 -160z"/>
<path d="M84 5665 c-7 -38 -2 -51 15 -40 14 8 15 75 1 75 -5 0 -12 -16 -16
-35z"/>
<path d="M136 5198 c0 -116 3 -163 12 -166 15 -5 15 0 12 113 -1 73 1 88 11
78 19 -19 29 -16 29 7 0 16 7 20 35 20 31 0 35 -3 35 -25 0 -16 6 -25 15 -25
10 0 15 10 15 30 0 28 3 30 35 30 26 0 35 4 35 16 0 13 -8 15 -36 12 -35 -4
-35 -4 -32 31 3 31 0 36 -19 39 -20 3 -21 0 -16 -33 7 -40 -5 -55 -44 -55 -13
0 -23 -5 -23 -11 0 -6 -6 -9 -12 -7 -7 3 -15 27 -18 54 -3 33 -10 50 -20 52
-13 2 -15 -21 -14 -160z"/>
<path d="M84 5215 c-7 -38 -2 -51 15 -40 14 8 15 75 1 75 -5 0 -12 -16 -16
-35z"/>
<path d="M136 4748 c0 -116 3 -163 12 -166 15 -5 15 0 12 113 -1 73 1 88 11
78 19 -19 29 -16 29 7 0 16 7 20 35 20 28 0 35 -4 35 -20 0 -15 -9 -22 -30
-26 -54 -11 -33 -26 26 -18 l56 7 -16 -31 c-17 -33 -66 -77 -96 -87 -22 -7
-27 -25 -7 -25 38 1 98 42 126 87 41 64 41 87 1 81 -26 -4 -30 -1 -30 19 0 20
5 23 35 23 26 0 35 4 35 16 0 13 -8 15 -36 12 -35 -4 -35 -4 -32 31 3 31 0 36
-19 39 -20 3 -21 0 -16 -33 7 -40 -5 -55 -44 -55 -13 0 -23 -5 -23 -11 0 -6
-6 -9 -12 -7 -7 3 -15 27 -18 54 -3 33 -10 50 -20 52 -13 2 -15 -21 -14 -160z"/>
<path d="M84 4765 c-7 -38 -2 -51 15 -40 14 8 15 75 1 75 -5 0 -12 -16 -16
-35z"/>
<path d="M136 4298 c0 -116 3 -163 12 -166 15 -5 15 0 12 113 -1 73 1 88 11
78 19 -19 29 -16 29 7 0 16 7 20 35 20 28 0 35 -4 35 -20 0 -15 -9 -22 -30
-26 -16 -4 -30 -8 -30 -10 0 -1 14 -18 30 -36 17 -18 30 -36 30 -40 0 -8 -52
-43 -75 -52 -5 -2 -7 -7 -2 -12 4 -4 29 1 55 12 l48 21 17 -24 c14 -18 28 -23
62 -23 57 0 60 22 6 38 -58 18 -67 34 -42 75 31 50 28 70 -9 65 -26 -4 -30 -1
-30 19 0 20 5 23 35 23 26 0 35 4 35 16 0 13 -8 15 -36 12 -35 -4 -35 -4 -32
31 3 31 0 36 -19 39 -20 3 -21 0 -16 -33 7 -40 -5 -55 -44 -55 -13 0 -23 -5
-23 -11 0 -6 -6 -9 -12 -7 -7 3 -15 27 -18 54 -3 33 -10 50 -20 52 -13 2 -15
-21 -14 -160z m172 -33 c-11 -24 -12 -24 -30 -9 -26 24 -22 34 12 34 28 0 29
-1 18 -25z"/>
<path d="M84 4315 c-7 -38 -2 -51 15 -40 14 8 15 75 1 75 -5 0 -12 -16 -16
-35z"/>
</g>
</svg>
