<?xml version="1.0" standalone="no"?>
<!DOCTYPE svg PUBLIC "-//W3C//DTD SVG 20010904//EN"
 "http://www.w3.org/TR/2001/REC-SVG-20010904/DTD/svg10.dtd">
<svg version="1.0" xmlns="http://www.w3.org/2000/svg"
 width="50.000000pt" height="725.000000pt" viewBox="0 0 50.000000 725.000000"
 preserveAspectRatio="xMidYMid meet">
<metadata>
Created by potrace 1.16, written by Peter Selinger 2001-2019
</metadata>
<g transform="translate(0.000000,725.000000) scale(0.100000,-0.100000)"
fill="#000000" stroke="none">
<path d="M81 7014 c-10 -27 -10 -39 -2 -47 16 -16 31 8 31 51 0 42 -13 41 -29
-4z"/>
<path d="M135 6549 c0 -121 3 -163 13 -166 9 -4 13 24 14 111 4 213 4 211 -12
214 -13 2 -15 -21 -15 -159z"/>
<path d="M81 6564 c-10 -27 -10 -39 -2 -47 16 -16 31 8 31 51 0 42 -13 41 -29
-4z"/>
<path d="M135 6099 c0 -121 3 -163 13 -166 9 -4 12 21 12 103 0 84 3 105 12
96 17 -17 28 -15 28 7 0 10 -6 21 -14 24 -9 4 -16 23 -18 49 -2 28 -8 44 -18
46 -13 2 -15 -21 -15 -159z"/>
<path d="M81 6114 c-10 -27 -10 -39 -2 -47 16 -16 31 8 31 51 0 42 -13 41 -29
-4z"/>
<path d="M135 5649 c0 -121 3 -163 13 -166 9 -4 12 21 12 103 0 84 3 105 12
96 17 -17 28 -15 28 7 0 10 -6 21 -14 24 -9 4 -16 23 -18 49 -2 28 -8 44 -18
46 -13 2 -15 -21 -15 -159z"/>
<path d="M271 5749 c-81 -16 -71 -31 13 -20 l58 8 -6 -49 c-3 -26 -9 -71 -13
-99 -5 -41 -3 -51 7 -47 14 4 54 183 45 206 -5 13 -39 14 -104 1z"/>
<path d="M81 5664 c-10 -27 -10 -39 -2 -47 16 -16 31 8 31 51 0 42 -13 41 -29
-4z"/>
<path d="M135 5199 c0 -121 3 -163 13 -166 9 -4 12 21 12 103 0 84 3 105 12
96 17 -17 28 -15 28 7 0 10 -6 21 -14 24 -9 4 -16 23 -18 49 -2 28 -8 44 -18
46 -13 2 -15 -21 -15 -159z"/>
<path d="M305 5305 c-5 -2 -27 -6 -47 -10 -21 -3 -38 -11 -38 -17 0 -6 9 -8
21 -5 23 6 23 16 2 -140 -10 -74 14 -48 33 35 9 42 18 85 18 94 0 9 11 18 24
21 24 5 24 3 18 -44 -3 -27 -9 -72 -13 -100 -5 -41 -3 -51 7 -47 14 4 54 183
45 206 -4 11 -46 15 -70 7z"/>
<path d="M81 5214 c-10 -27 -10 -39 -2 -47 16 -16 31 8 31 51 0 42 -13 41 -29
-4z"/>
<path d="M135 4749 c0 -121 3 -163 13 -166 9 -4 12 21 12 103 0 84 3 105 12
96 17 -17 28 -15 28 7 0 10 -6 21 -14 24 -9 4 -16 23 -18 49 -2 28 -8 44 -18
46 -13 2 -15 -21 -15 -159z"/>
<path d="M305 4855 c-5 -2 -27 -6 -47 -10 -21 -3 -38 -11 -38 -17 0 -6 9 -8
20 -5 16 4 20 0 20 -18 0 -36 -10 -55 -30 -55 -27 0 -50 -11 -50 -22 0 -6 14
-8 35 -5 l34 6 -6 -45 c-8 -58 13 -59 24 -1 7 35 13 42 35 45 25 3 26 2 21
-42 -4 -31 -2 -46 6 -46 13 0 17 9 26 63 6 37 7 38 41 31 27 -5 34 -3 34 10 0
11 -9 16 -31 16 -30 0 -30 1 -27 48 3 46 2 47 -27 49 -16 1 -34 0 -40 -2z m24
-91 c-6 -8 -20 -14 -30 -14 -15 0 -16 4 -9 31 5 18 7 35 5 40 -3 4 5 9 17 11
19 2 24 -2 26 -25 2 -16 -2 -35 -9 -43z"/>
<path d="M81 4764 c-10 -27 -10 -39 -2 -47 16 -16 31 8 31 51 0 42 -13 41 -29
-4z"/>
<path d="M135 4299 c0 -121 3 -163 13 -166 9 -4 12 21 12 103 0 84 3 105 12
96 17 -17 28 -15 28 7 0 10 -6 21 -14 24 -9 4 -16 23 -18 49 -2 28 -8 44 -18
46 -13 2 -15 -21 -15 -159z"/>
<path d="M305 4405 c-5 -2 -27 -6 -47 -10 -21 -3 -38 -11 -38 -17 0 -6 9 -8
20 -5 16 4 20 0 20 -18 0 -36 -10 -55 -30 -55 -27 0 -50 -11 -50 -22 0 -7 14
-8 36 -5 33 6 36 4 30 -16 -3 -12 -6 -29 -6 -38 0 -10 -11 -20 -25 -23 -46
-12 -29 -29 21 -22 26 3 78 6 116 6 51 0 69 3 66 13 -3 6 -19 13 -36 15 -33 3
-38 14 -26 60 6 19 11 22 40 16 27 -5 34 -3 34 10 0 11 -9 16 -31 16 -30 0
-30 1 -27 48 3 46 2 47 -27 49 -16 1 -34 0 -40 -2z m24 -91 c-6 -8 -20 -14
-30 -14 -15 0 -16 4 -9 31 5 18 7 35 5 40 -3 4 5 9 17 11 19 2 24 -2 26 -25 2
-16 -2 -35 -9 -43z m-5 -61 c-10 -49 -13 -53 -39 -53 -22 0 -25 3 -19 28 10
48 13 52 39 52 22 0 25 -3 19 -27z"/>
<path d="M81 4314 c-10 -27 -10 -39 -2 -47 16 -16 31 8 31 51 0 42 -13 41 -29
-4z"/>
</g>
</svg>
