<?xml version="1.0" standalone="no"?>
<!DOCTYPE svg PUBLIC "-//W3C//DTD SVG 20010904//EN"
 "http://www.w3.org/TR/2001/REC-SVG-20010904/DTD/svg10.dtd">
<svg version="1.0" xmlns="http://www.w3.org/2000/svg"
 width="50.000000pt" height="725.000000pt" viewBox="0 0 50.000000 725.000000"
 preserveAspectRatio="xMidYMid meet">
<metadata>
Created by potrace 1.16, written by Peter Selinger 2001-2019
</metadata>
<g transform="translate(0.000000,725.000000) scale(0.100000,-0.100000)"
fill="#000000" stroke="none">
<path d="M102 7027 c-16 -43 -15 -57 2 -57 17 0 26 22 26 61 0 39 -13 37 -28
-4z"/>
<path d="M158 6626 c2 -46 -1 -116 -7 -156 -8 -51 -8 -77 -1 -84 21 -21 28 12
33 167 6 143 5 157 -11 157 -15 0 -17 -10 -14 -84z"/>
<path d="M102 6577 c-16 -43 -15 -57 2 -57 17 0 26 22 26 61 0 39 -13 37 -28
-4z"/>
<path d="M155 6153 c0 -60 -2 -133 -5 -163 -4 -44 -2 -55 10 -55 12 0 16 21
20 109 4 94 7 107 19 93 18 -23 31 -21 31 2 0 11 -9 23 -20 26 -16 5 -20 15
-20 51 0 35 -3 44 -17 44 -16 0 -18 -12 -18 -107z"/>
<path d="M102 6127 c-16 -43 -15 -57 2 -57 17 0 26 22 26 61 0 39 -13 37 -28
-4z"/>
<path d="M290 5808 c0 -7 -11 -37 -25 -66 -23 -49 -26 -52 -41 -38 -8 9 -20
16 -25 16 -5 0 -9 20 -9 45 0 36 -3 45 -17 45 -16 0 -18 -12 -18 -107 0 -60
-2 -133 -5 -163 -4 -44 -2 -55 10 -55 12 0 16 20 18 109 3 106 3 108 22 91 10
-9 16 -23 13 -31 -10 -26 15 -14 44 20 15 19 39 56 52 81 21 39 22 48 10 56
-20 12 -29 11 -29 -3z"/>
<path d="M102 5677 c-16 -43 -15 -57 2 -57 17 0 26 22 26 61 0 39 -13 37 -28
-4z"/>
<path d="M290 5358 c0 -7 -11 -37 -25 -66 -23 -49 -26 -52 -41 -38 -8 9 -20
16 -25 16 -5 0 -9 20 -9 45 0 36 -3 45 -17 45 -16 0 -18 -12 -18 -107 0 -60
-2 -133 -5 -163 -4 -44 -2 -55 10 -55 12 0 16 20 18 109 3 106 3 108 22 91 10
-9 16 -23 13 -31 -9 -24 14 -15 39 15 20 23 38 31 96 41 40 7 72 17 72 21 0 9
-30 20 -39 14 -4 -2 -26 -8 -49 -14 l-42 -9 22 40 c19 33 20 40 8 48 -21 13
-30 12 -30 -2z"/>
<path d="M102 5227 c-16 -43 -15 -57 2 -57 17 0 26 22 26 61 0 39 -13 37 -28
-4z"/>
<path d="M290 4908 c0 -7 -11 -37 -25 -66 -23 -49 -26 -52 -41 -38 -8 9 -20
16 -25 16 -5 0 -9 20 -9 45 0 36 -3 45 -17 45 -16 0 -18 -12 -18 -107 0 -60
-2 -133 -5 -163 -4 -44 -2 -55 10 -55 12 0 16 20 18 109 3 106 3 108 22 91 10
-9 16 -23 13 -31 -9 -24 14 -15 40 16 43 51 49 41 46 -80 -2 -109 3 -138 21
-110 8 12 15 143 13 217 0 7 19 15 43 19 24 3 44 10 44 14 0 10 -29 22 -39 15
-4 -2 -26 -8 -49 -14 l-42 -9 22 40 c19 33 20 40 8 48 -21 13 -30 12 -30 -2z"/>
<path d="M102 4777 c-16 -43 -15 -57 2 -57 17 0 26 22 26 61 0 39 -13 37 -28
-4z"/>
<path d="M290 4458 c0 -7 -11 -37 -25 -66 -23 -49 -26 -52 -41 -38 -8 9 -20
16 -25 16 -5 0 -9 20 -9 45 0 36 -3 45 -17 45 -16 0 -18 -12 -18 -107 0 -60
-2 -133 -5 -163 -4 -44 -2 -55 10 -55 12 0 16 20 18 109 3 106 3 108 22 91 10
-9 16 -23 13 -31 -9 -24 14 -15 40 16 43 51 49 41 46 -80 -1 -60 1 -113 5
-117 15 -15 26 24 26 94 l0 72 37 3 c20 2 38 9 41 17 3 10 -4 12 -36 6 -38 -6
-40 -5 -38 19 1 22 7 26 44 32 23 3 42 10 42 14 0 10 -29 22 -39 15 -4 -2 -26
-8 -49 -14 l-42 -9 22 40 c19 33 20 40 8 48 -21 13 -30 12 -30 -2z"/>
<path d="M102 4327 c-16 -43 -15 -57 2 -57 17 0 26 22 26 61 0 39 -13 37 -28
-4z"/>
<path d="M290 4008 c0 -7 -11 -37 -25 -66 -23 -49 -26 -52 -41 -38 -8 9 -20
16 -25 16 -5 0 -9 20 -9 45 0 36 -3 45 -17 45 -16 0 -18 -12 -18 -107 0 -60
-2 -133 -5 -163 -4 -44 -2 -55 10 -55 12 0 16 20 18 109 3 106 3 108 22 91 10
-9 16 -23 13 -31 -9 -24 14 -15 40 16 43 51 49 41 46 -80 -1 -60 1 -113 5
-117 12 -12 26 19 26 59 0 38 1 39 63 52 15 4 27 11 27 16 0 12 -16 13 -58 1
-30 -9 -32 -8 -32 14 0 20 6 24 37 27 20 2 38 9 41 17 3 10 -4 12 -36 6 -38
-6 -40 -5 -38 19 1 22 7 26 44 32 23 3 42 10 42 14 0 10 -29 22 -39 15 -4 -2
-26 -8 -49 -14 l-42 -9 22 40 c19 33 20 40 8 48 -21 13 -30 12 -30 -2z"/>
<path d="M102 3877 c-16 -43 -15 -57 2 -57 17 0 26 22 26 61 0 39 -13 37 -28
-4z"/>
</g>
</svg>
