<?xml version="1.0" standalone="no"?>
<!DOCTYPE svg PUBLIC "-//W3C//DTD SVG 20010904//EN"
 "http://www.w3.org/TR/2001/REC-SVG-20010904/DTD/svg10.dtd">
<svg version="1.0" xmlns="http://www.w3.org/2000/svg"
 width="50.000000pt" height="725.000000pt" viewBox="0 0 50.000000 725.000000"
 preserveAspectRatio="xMidYMid meet">
<metadata>
Created by potrace 1.16, written by Peter Selinger 2001-2019
</metadata>
<g transform="translate(0.000000,725.000000) scale(0.100000,-0.100000)"
fill="#000000" stroke="none">
<path d="M200 7156 c0 -8 -16 -36 -36 -61 -19 -26 -33 -49 -31 -52 17 -16 113
88 103 113 -7 18 -36 18 -36 0z"/>
<path d="M200 6706 c0 -8 -16 -36 -36 -61 -41 -55 -38 -68 8 -33 22 17 58 30
106 38 39 6 72 16 72 22 0 11 -62 6 -110 -8 -22 -7 -24 -6 -11 9 7 9 11 24 7
32 -7 19 -36 20 -36 1z"/>
<path d="M200 6256 c0 -8 -16 -36 -36 -61 -40 -53 -39 -67 4 -36 17 12 33 21
37 21 4 0 6 -26 5 -57 -3 -73 -2 -83 9 -83 4 0 11 32 15 71 3 39 8 75 11 79 2
4 27 10 55 14 27 4 50 12 50 18 0 11 -60 7 -110 -8 -22 -7 -24 -6 -11 9 7 9
11 24 7 32 -7 19 -36 20 -36 1z"/>
<path d="M200 5806 c0 -8 -16 -36 -36 -61 -40 -53 -39 -67 4 -36 17 12 33 21
37 21 4 0 6 -26 5 -57 -3 -74 -2 -83 9 -83 6 0 11 21 13 47 3 47 3 48 46 56
55 11 56 32 1 24 -34 -4 -40 -3 -37 11 2 12 19 19 56 25 63 10 72 32 10 24
-24 -3 -54 -9 -68 -13 -22 -7 -24 -6 -11 9 7 9 11 24 7 32 -7 19 -36 20 -36 1z"/>
<path d="M200 5356 c0 -8 -16 -36 -36 -61 -40 -53 -39 -67 4 -36 17 12 33 21
37 21 4 0 6 -26 5 -57 -1 -32 -2 -64 -1 -70 2 -22 19 -14 23 10 2 17 11 23 42
27 22 3 41 11 44 18 3 11 -6 12 -43 6 -38 -5 -47 -4 -43 7 3 8 23 17 46 22 55
11 56 32 1 24 -34 -4 -40 -3 -37 11 2 12 19 19 56 25 63 10 72 32 10 24 -24
-3 -54 -9 -68 -13 -22 -7 -24 -6 -11 9 7 9 11 24 7 32 -7 19 -36 20 -36 1z"/>
<path d="M200 4906 c0 -8 -16 -36 -36 -61 -40 -53 -39 -67 4 -36 17 12 33 21
37 21 4 0 6 -26 5 -57 -1 -32 -2 -64 -1 -70 2 -22 19 -14 23 10 2 17 11 23 42
27 22 3 41 11 44 18 3 11 -6 12 -43 6 -38 -5 -47 -4 -43 7 3 8 23 17 46 22 55
11 56 32 1 24 -34 -4 -40 -3 -37 11 2 12 19 19 56 25 63 10 72 32 10 24 -24
-3 -54 -9 -68 -13 -22 -7 -24 -6 -11 9 7 9 11 24 7 32 -7 19 -36 20 -36 1z"/>
<path d="M111 4644 c-12 -28 -7 -44 13 -44 13 0 26 29 26 58 0 22 -26 13 -39
-14z"/>
<path d="M200 4456 c0 -8 -16 -36 -36 -61 -40 -53 -39 -67 4 -36 17 12 33 21
37 21 4 0 6 -26 5 -57 -1 -32 -2 -64 -1 -70 2 -22 19 -14 23 10 2 17 11 23 42
27 22 3 41 11 44 18 3 11 -6 12 -43 6 -38 -5 -47 -4 -43 7 3 8 23 17 46 22 55
11 56 32 1 24 -34 -4 -40 -3 -37 11 2 12 19 19 56 25 63 10 72 32 10 24 -24
-3 -54 -9 -68 -13 -22 -7 -24 -6 -11 9 7 9 11 24 7 32 -7 19 -36 20 -36 1z"/>
<path d="M170 4230 c0 -6 7 -26 15 -46 22 -54 103 -80 169 -54 32 12 33 26 4
51 -30 24 -38 24 -38 -1 0 -12 -7 -21 -17 -22 -60 -5 -96 14 -107 58 -6 23
-26 34 -26 14z"/>
<path d="M111 4194 c-12 -28 -7 -44 13 -44 13 0 26 29 26 58 0 22 -26 13 -39
-14z"/>
<path d="M200 4006 c0 -8 -16 -36 -36 -61 -40 -53 -39 -67 4 -36 17 12 33 21
37 21 3 0 5 -28 3 -63 -2 -59 0 -66 29 -98 25 -26 35 -31 44 -22 16 16 -5 43
-33 43 -14 0 -19 6 -16 23 2 17 11 23 42 27 22 3 41 11 44 18 3 11 -6 12 -43
6 -38 -5 -47 -4 -43 7 3 8 23 17 46 22 55 11 56 32 1 24 -34 -4 -40 -3 -37 11
2 12 19 19 56 25 63 10 72 32 10 24 -24 -3 -54 -9 -68 -13 -22 -7 -24 -6 -11
9 7 9 11 24 7 32 -7 19 -36 20 -36 1z"/>
<path d="M170 3780 c0 -6 7 -26 15 -46 22 -54 103 -80 169 -54 32 12 33 26 4
51 -30 24 -38 24 -38 -1 0 -12 -7 -21 -17 -22 -60 -5 -96 14 -107 58 -6 23
-26 34 -26 14z"/>
<path d="M111 3744 c-12 -28 -7 -44 13 -44 13 0 26 29 26 58 0 22 -26 13 -39
-14z"/>
<path d="M200 3556 c0 -8 -16 -36 -36 -61 -40 -53 -39 -67 4 -36 17 12 33 21
37 21 3 0 5 -28 3 -63 -2 -59 0 -66 29 -98 25 -26 35 -31 44 -22 16 16 -5 43
-33 43 -14 0 -19 6 -16 23 2 17 11 23 42 27 22 3 41 11 44 18 3 11 -6 12 -43
6 -38 -5 -47 -4 -43 7 3 8 23 17 46 22 55 11 56 32 1 24 -34 -4 -40 -3 -37 11
2 12 19 19 56 25 63 10 72 32 10 24 -24 -3 -54 -9 -68 -13 -22 -7 -24 -6 -11
9 7 9 11 24 7 32 -7 19 -36 20 -36 1z"/>
<path d="M330 3353 c0 -5 14 -22 30 -38 24 -23 33 -26 42 -17 10 10 8 16 -7
31 -23 21 -65 37 -65 24z"/>
<path d="M170 3330 c0 -6 7 -26 15 -46 22 -54 103 -80 169 -54 32 12 33 26 4
51 -30 24 -38 24 -38 -1 0 -12 -7 -21 -17 -22 -60 -5 -96 14 -107 58 -6 23
-26 34 -26 14z"/>
<path d="M111 3294 c-12 -28 -7 -44 13 -44 13 0 26 29 26 58 0 22 -26 13 -39
-14z"/>
</g>
</svg>
