<?xml version="1.0" standalone="no"?>
<!DOCTYPE svg PUBLIC "-//W3C//DTD SVG 20010904//EN"
 "http://www.w3.org/TR/2001/REC-SVG-20010904/DTD/svg10.dtd">
<svg version="1.0" xmlns="http://www.w3.org/2000/svg"
 width="50.000000pt" height="725.000000pt" viewBox="0 0 50.000000 725.000000"
 preserveAspectRatio="xMidYMid meet">
<metadata>
Created by potrace 1.16, written by Peter Selinger 2001-2019
</metadata>
<g transform="translate(0.000000,725.000000) scale(0.100000,-0.100000)"
fill="#000000" stroke="none">
<path d="M187 7119 c-21 -28 -36 -53 -33 -56 16 -16 101 68 93 91 -10 25 -19
19 -60 -35z"/>
<path d="M187 6669 c-42 -57 -42 -74 1 -42 15 11 38 24 52 28 24 8 24 7 7 -18
-20 -32 -21 -37 -4 -37 20 0 80 67 72 80 -4 7 -20 10 -35 8 -21 -3 -30 0 -33
14 -8 28 -19 22 -60 -33z"/>
<path d="M187 6219 c-42 -57 -42 -74 1 -42 15 11 38 23 51 28 21 6 22 5 12
-14 -14 -24 -42 -41 -70 -41 -12 0 -21 -5 -21 -11 0 -11 93 -5 128 9 12 4 14
-3 8 -41 -9 -60 15 -66 32 -8 19 61 16 71 -20 71 l-31 0 22 24 c28 30 19 49
-19 44 -21 -3 -30 0 -33 14 -8 28 -19 22 -60 -33z"/>
<path d="M187 5769 c-42 -57 -42 -74 1 -42 15 11 38 23 51 28 21 6 22 5 12
-14 -14 -24 -42 -41 -70 -41 -12 0 -21 -5 -21 -11 0 -11 93 -5 127 8 7 3 13
-1 13 -10 0 -16 -41 -27 -105 -27 -49 0 -75 -8 -75 -22 0 -9 111 -3 153 8 12
4 17 0 17 -15 0 -27 26 -27 33 -1 4 15 14 20 41 20 44 0 47 16 6 25 -21 5 -30
13 -30 26 0 15 -7 19 -32 19 l-31 0 22 24 c28 30 19 49 -19 44 -21 -3 -30 0
-33 14 -8 28 -19 22 -60 -33z"/>
<path d="M187 5319 c-42 -57 -42 -74 1 -42 15 11 38 23 51 28 21 6 22 5 12
-14 -14 -24 -42 -41 -70 -41 -12 0 -21 -5 -21 -11 0 -11 93 -5 127 8 7 3 13
-1 13 -10 0 -16 -41 -27 -105 -27 -49 0 -75 -8 -75 -22 0 -9 112 -3 154 9 12
3 17 1 14 -8 -3 -8 -27 -17 -57 -20 -51 -7 -69 -14 -60 -24 3 -2 37 -1 76 2
63 5 72 8 75 27 2 16 11 22 41 24 45 4 48 18 7 27 -21 5 -30 13 -30 26 0 15
-7 19 -32 19 l-31 0 22 24 c28 30 19 49 -19 44 -21 -3 -30 0 -33 14 -8 28 -19
22 -60 -33z"/>
<path d="M187 4869 c-42 -57 -42 -74 1 -42 15 11 38 23 51 28 21 6 22 5 12
-14 -14 -24 -42 -41 -70 -41 -12 0 -21 -5 -21 -11 0 -11 93 -5 127 8 7 3 13
-1 13 -10 0 -16 -41 -27 -105 -27 -49 0 -75 -8 -75 -22 0 -9 112 -3 154 9 12
3 17 1 14 -8 -3 -8 -27 -17 -57 -20 -51 -7 -69 -14 -60 -24 3 -2 37 -1 76 2
63 5 72 8 75 27 2 16 11 22 41 24 45 4 48 18 7 27 -21 5 -30 13 -30 26 0 15
-7 19 -32 19 l-31 0 22 24 c28 30 19 49 -19 44 -21 -3 -30 0 -33 14 -8 28 -19
22 -60 -33z"/>
<path d="M102 4635 c-12 -26 -7 -55 9 -55 10 0 29 43 29 66 0 23 -26 16 -38
-11z"/>
<path d="M187 4419 c-42 -57 -42 -74 1 -42 15 11 38 23 51 28 21 6 22 5 12
-14 -14 -24 -42 -41 -70 -41 -12 0 -21 -5 -21 -11 0 -11 93 -5 127 8 7 3 13
-1 13 -10 0 -16 -41 -27 -105 -27 -49 0 -75 -8 -75 -22 0 -9 112 -3 154 9 12
3 17 1 14 -8 -3 -8 -27 -17 -57 -20 -51 -7 -69 -14 -60 -24 3 -2 37 -1 76 2
63 5 72 8 75 27 2 16 11 22 41 24 45 4 48 18 7 27 -21 5 -30 13 -30 26 0 15
-7 19 -32 19 l-31 0 22 24 c28 30 19 49 -19 44 -21 -3 -30 0 -33 14 -8 28 -19
22 -60 -33z"/>
<path d="M165 4198 c15 -49 50 -72 117 -76 47 -3 68 1 83 12 20 16 20 16 -10
41 -37 31 -45 31 -42 3 4 -46 -99 -31 -121 18 -15 31 -36 32 -27 2z"/>
<path d="M102 4185 c-12 -26 -7 -55 9 -55 10 0 29 43 29 66 0 23 -26 16 -38
-11z"/>
<path d="M187 3969 c-42 -57 -42 -74 1 -42 15 11 38 23 51 28 21 6 22 5 12
-14 -14 -24 -42 -41 -70 -41 -12 0 -21 -5 -21 -11 0 -11 93 -5 127 8 7 3 13
-1 13 -10 0 -16 -41 -27 -105 -27 -49 0 -75 -8 -75 -22 0 -9 112 -3 154 9 12
3 17 1 14 -8 -3 -8 -27 -17 -57 -20 -51 -7 -69 -14 -60 -24 3 -2 37 -1 76 2
63 5 72 8 75 27 2 16 11 22 41 24 45 4 48 18 7 27 -21 5 -30 13 -30 26 0 15
-7 19 -32 19 l-31 0 22 24 c28 30 19 49 -19 44 -21 -3 -30 0 -33 14 -8 28 -19
22 -60 -33z"/>
<path d="M220 3777 c0 -17 20 -37 37 -37 20 0 15 28 -6 40 -26 13 -31 13 -31
-3z"/>
<path d="M165 3748 c15 -49 50 -72 117 -76 47 -3 68 1 83 12 20 16 20 16 -10
41 -37 31 -45 31 -42 3 4 -46 -99 -31 -121 18 -15 31 -36 32 -27 2z"/>
<path d="M102 3735 c-12 -26 -7 -55 9 -55 10 0 29 43 29 66 0 23 -26 16 -38
-11z"/>
<path d="M187 3519 c-42 -57 -42 -74 1 -42 15 11 38 23 51 28 21 6 22 5 12
-14 -14 -24 -42 -41 -70 -41 -12 0 -21 -5 -21 -11 0 -11 93 -5 127 8 7 3 13
-1 13 -10 0 -16 -41 -27 -105 -27 -49 0 -75 -8 -75 -22 0 -9 112 -3 154 9 12
3 17 1 14 -8 -3 -8 -27 -17 -57 -20 -51 -7 -69 -14 -60 -24 3 -2 37 -1 76 2
63 5 72 8 75 27 2 16 11 22 41 24 45 4 48 18 7 27 -21 5 -30 13 -30 26 0 15
-7 19 -32 19 l-31 0 22 24 c28 30 19 49 -19 44 -21 -3 -30 0 -33 14 -8 28 -19
22 -60 -33z"/>
<path d="M340 3344 c0 -11 52 -64 62 -64 13 0 9 36 -4 48 -18 14 -58 25 -58
16z"/>
<path d="M220 3327 c0 -17 20 -37 37 -37 20 0 15 28 -6 40 -26 13 -31 13 -31
-3z"/>
<path d="M165 3298 c15 -49 50 -72 117 -76 47 -3 68 1 83 12 20 16 20 16 -10
41 -37 31 -45 31 -42 3 4 -46 -99 -31 -121 18 -15 31 -36 32 -27 2z"/>
<path d="M102 3285 c-12 -26 -7 -55 9 -55 10 0 29 43 29 66 0 23 -26 16 -38
-11z"/>
</g>
</svg>
