<?xml version="1.0" standalone="no"?>
<!DOCTYPE svg PUBLIC "-//W3C//DTD SVG 20010904//EN"
 "http://www.w3.org/TR/2001/REC-SVG-20010904/DTD/svg10.dtd">
<svg version="1.0" xmlns="http://www.w3.org/2000/svg"
 width="50.000000pt" height="725.000000pt" viewBox="0 0 50.000000 725.000000"
 preserveAspectRatio="xMidYMid meet">
<metadata>
Created by potrace 1.16, written by Peter Selinger 2001-2019
</metadata>
<g transform="translate(0.000000,725.000000) scale(0.100000,-0.100000)"
fill="#000000" stroke="none">
<path d="M160 7143 c0 -10 -11 -36 -25 -58 -27 -44 -30 -55 -15 -55 15 0 82
109 75 120 -10 17 -35 11 -35 -7z"/>
<path d="M160 6693 c0 -9 -12 -36 -26 -60 -31 -54 -22 -70 14 -25 25 30 52 43
52 24 0 -12 -29 -53 -63 -89 -35 -37 -30 -54 7 -29 32 20 96 114 96 140 0 15
-6 17 -30 14 -23 -4 -27 -2 -19 8 6 7 8 18 4 24 -10 16 -35 12 -35 -7z"/>
<path d="M160 6243 c0 -10 -11 -36 -25 -58 -28 -45 -31 -59 -12 -52 8 3 20 1
28 -3 11 -7 8 -15 -15 -39 -34 -35 -29 -52 8 -27 32 20 96 114 96 140 0 15 -6
17 -30 14 -23 -4 -27 -2 -19 8 6 7 8 18 4 24 -10 16 -35 12 -35 -7z m40 -60
c-1 -19 -18 -33 -34 -27 -13 5 -14 9 -5 20 12 15 39 19 39 7z"/>
<path d="M160 5793 c0 -10 -11 -36 -25 -58 -28 -45 -31 -59 -12 -52 8 3 20 1
28 -3 11 -7 8 -15 -15 -39 -34 -35 -29 -52 8 -27 32 20 96 114 96 140 0 15 -6
17 -30 14 -23 -4 -27 -2 -19 8 6 7 8 18 4 24 -10 16 -35 12 -35 -7z m40 -60
c-1 -19 -18 -33 -34 -27 -13 5 -14 9 -5 20 12 15 39 19 39 7z"/>
<path d="M303 5783 c-28 -5 -30 -23 -3 -23 13 0 20 -7 20 -20 0 -11 -4 -20
-10 -20 -5 0 -10 -7 -10 -15 0 -8 7 -15 15 -15 28 0 47 90 20 95 -5 1 -20 0
-32 -2z"/>
<path d="M160 5343 c0 -10 -11 -36 -25 -58 -28 -45 -31 -59 -12 -52 8 3 20 1
28 -3 11 -7 8 -15 -15 -39 -34 -35 -29 -52 8 -27 32 20 96 114 96 140 0 15 -6
17 -30 14 -23 -4 -27 -2 -19 8 6 7 8 18 4 24 -10 16 -35 12 -35 -7z m40 -60
c-1 -19 -18 -33 -34 -27 -13 5 -14 9 -5 20 12 15 39 19 39 7z"/>
<path d="M318 5335 c-3 -4 -20 -7 -37 -7 l-31 -1 0 -63 c0 -54 3 -65 22 -78
48 -34 127 -11 114 32 -8 25 -26 30 -26 7 0 -16 -42 -30 -65 -21 -11 4 -15 20
-15 56 0 43 3 50 20 50 13 0 20 -7 20 -20 0 -11 -4 -20 -10 -20 -5 0 -10 -7
-10 -15 0 -8 7 -15 15 -15 18 0 37 44 33 74 -3 20 -19 31 -30 21z"/>
<path d="M160 4893 c0 -10 -11 -36 -25 -58 -28 -45 -31 -59 -12 -52 8 3 20 1
28 -3 11 -7 8 -15 -15 -39 -34 -35 -29 -52 8 -27 32 20 96 114 96 140 0 15 -6
17 -30 14 -23 -4 -27 -2 -19 8 6 7 8 18 4 24 -10 16 -35 12 -35 -7z m40 -60
c-1 -19 -18 -33 -34 -27 -13 5 -14 9 -5 20 12 15 39 19 39 7z"/>
<path d="M318 4885 c-3 -4 -20 -7 -37 -7 l-31 -1 0 -63 c0 -54 3 -65 22 -78
48 -34 127 -11 114 32 -8 25 -26 30 -26 7 0 -16 -42 -30 -65 -21 -11 4 -15 20
-15 56 0 43 3 50 20 50 13 0 20 -7 20 -20 0 -11 -4 -20 -10 -20 -5 0 -10 -7
-10 -15 0 -8 7 -15 15 -15 18 0 37 44 33 74 -3 20 -19 31 -30 21z"/>
<path d="M113 4653 c-18 -37 -16 -55 5 -51 12 2 18 14 20 41 4 43 -8 48 -25
10z"/>
<path d="M160 4443 c0 -10 -11 -36 -25 -58 -28 -45 -31 -59 -12 -52 8 3 20 1
28 -3 11 -7 8 -15 -15 -39 -34 -35 -29 -52 8 -27 32 20 96 114 96 140 0 15 -6
17 -30 14 -23 -4 -27 -2 -19 8 6 7 8 18 4 24 -10 16 -35 12 -35 -7z m40 -60
c-1 -19 -18 -33 -34 -27 -13 5 -14 9 -5 20 12 15 39 19 39 7z"/>
<path d="M318 4435 c-3 -4 -20 -7 -37 -7 l-31 -1 0 -63 c0 -54 3 -65 22 -78
48 -34 127 -11 114 32 -8 25 -26 30 -26 7 0 -16 -42 -30 -65 -21 -11 4 -15 20
-15 56 0 43 3 50 20 50 13 0 20 -7 20 -20 0 -11 -4 -20 -10 -20 -5 0 -10 -7
-10 -15 0 -8 7 -15 15 -15 18 0 37 44 33 74 -3 20 -19 31 -30 21z"/>
<path d="M166 4228 c24 -81 57 -102 142 -96 72 6 85 21 47 53 -37 30 -49 31
-42 5 4 -15 -1 -22 -18 -26 -40 -10 -78 9 -98 49 -20 41 -43 51 -31 15z"/>
<path d="M113 4203 c-18 -37 -16 -55 5 -51 12 2 18 14 20 41 4 43 -8 48 -25
10z"/>
<path d="M160 3993 c0 -10 -11 -36 -25 -58 -28 -45 -31 -59 -12 -52 8 3 20 1
28 -3 11 -7 8 -15 -15 -39 -34 -35 -29 -52 8 -27 32 20 96 114 96 140 0 15 -6
17 -30 14 -23 -4 -27 -2 -19 8 6 7 8 18 4 24 -10 16 -35 12 -35 -7z m40 -60
c-1 -19 -18 -33 -34 -27 -13 5 -14 9 -5 20 12 15 39 19 39 7z"/>
<path d="M318 3985 c-3 -4 -20 -7 -37 -7 l-31 -1 0 -63 c0 -54 3 -65 22 -78
48 -34 127 -11 114 32 -8 25 -26 30 -26 7 0 -16 -42 -30 -65 -21 -11 4 -15 20
-15 56 0 43 3 50 20 50 13 0 20 -7 20 -20 0 -11 -4 -20 -10 -20 -5 0 -10 -7
-10 -15 0 -8 7 -15 15 -15 18 0 37 44 33 74 -3 20 -19 31 -30 21z"/>
<path d="M220 3814 c0 -16 23 -44 35 -44 22 0 18 28 -4 40 -22 11 -31 13 -31
4z"/>
<path d="M166 3778 c24 -81 57 -102 142 -96 72 6 85 21 47 53 -37 30 -49 31
-42 5 4 -15 -1 -22 -18 -26 -40 -10 -78 9 -98 49 -20 41 -43 51 -31 15z"/>
<path d="M113 3753 c-18 -37 -16 -55 5 -51 12 2 18 14 20 41 4 43 -8 48 -25
10z"/>
<path d="M160 3543 c0 -10 -11 -36 -25 -58 -28 -45 -31 -59 -12 -52 8 3 20 1
28 -3 11 -7 8 -15 -15 -39 -34 -35 -29 -52 8 -27 32 20 96 114 96 140 0 15 -6
17 -30 14 -23 -4 -27 -2 -19 8 6 7 8 18 4 24 -10 16 -35 12 -35 -7z m40 -60
c-1 -19 -18 -33 -34 -27 -13 5 -14 9 -5 20 12 15 39 19 39 7z"/>
<path d="M318 3535 c-3 -4 -20 -7 -37 -7 l-31 -1 0 -63 c0 -54 3 -65 22 -78
48 -34 127 -11 114 32 -8 25 -26 30 -26 7 0 -16 -42 -30 -65 -21 -11 4 -15 20
-15 56 0 43 3 50 20 50 13 0 20 -7 20 -20 0 -11 -4 -20 -10 -20 -5 0 -10 -7
-10 -15 0 -8 7 -15 15 -15 18 0 37 44 33 74 -3 20 -19 31 -30 21z"/>
<path d="M220 3364 c0 -16 23 -44 35 -44 22 0 18 28 -4 40 -22 11 -31 13 -31
4z"/>
<path d="M340 3352 c0 -12 44 -52 58 -52 27 0 11 38 -19 49 -38 13 -39 13 -39
3z"/>
<path d="M166 3328 c24 -81 57 -102 142 -96 72 6 85 21 47 53 -37 30 -49 31
-42 5 4 -15 -1 -22 -18 -26 -40 -10 -78 9 -98 49 -20 41 -43 51 -31 15z"/>
<path d="M113 3303 c-18 -37 -16 -55 5 -51 12 2 18 14 20 41 4 43 -8 48 -25
10z"/>
</g>
</svg>
