<?xml version="1.0" standalone="no"?>
<!DOCTYPE svg PUBLIC "-//W3C//DTD SVG 20010904//EN"
 "http://www.w3.org/TR/2001/REC-SVG-20010904/DTD/svg10.dtd">
<svg version="1.0" xmlns="http://www.w3.org/2000/svg"
 width="50.000000pt" height="725.000000pt" viewBox="0 0 50.000000 725.000000"
 preserveAspectRatio="xMidYMid meet">
<metadata>
Created by potrace 1.16, written by Peter Selinger 2001-2019
</metadata>
<g transform="translate(0.000000,725.000000) scale(0.100000,-0.100000)"
fill="#000000" stroke="none">
<path d="M153 7120 c4 -18 7 -59 7 -91 0 -34 4 -59 10 -59 17 0 8 172 -9 178
-11 4 -13 -3 -8 -28z"/>
<path d="M258 6703 c-54 -6 -47 -23 8 -23 l46 0 -7 -62 c-4 -35 -12 -66 -17
-69 -12 -8 1 -39 17 -39 15 0 21 22 31 114 7 68 -1 89 -31 84 -5 -1 -27 -3
-47 -5z"/>
<path d="M154 6670 c3 -18 6 -59 6 -91 0 -33 4 -59 10 -59 6 0 10 31 10 74 0
50 4 76 13 79 15 5 8 13 -22 22 -23 7 -24 5 -17 -25z"/>
<path d="M258 6253 c-54 -6 -47 -23 8 -23 l46 0 -7 -62 c-4 -35 -12 -66 -17
-69 -12 -8 1 -39 17 -39 15 0 21 22 31 114 7 68 -1 89 -31 84 -5 -1 -27 -3
-47 -5z"/>
<path d="M154 6220 c3 -18 6 -59 6 -91 0 -33 4 -59 10 -59 6 0 10 31 10 74 0
50 4 76 13 79 15 5 8 13 -22 22 -23 7 -24 5 -17 -25z"/>
<path d="M233 6193 c-27 -5 -31 -23 -5 -23 28 0 62 12 62 21 0 9 -17 10 -57 2z"/>
<path d="M256 5803 c-36 -4 -38 -6 -32 -34 3 -16 2 -29 -3 -29 -5 0 -9 -10 -8
-22 0 -13 -3 -31 -7 -40 -15 -33 12 -19 33 17 11 19 27 35 36 35 8 0 15 5 15
10 0 6 -9 10 -20 10 -11 0 -20 7 -20 15 0 10 10 15 31 15 l31 0 -7 -62 c-4
-35 -12 -66 -17 -69 -12 -8 1 -39 17 -39 15 0 21 22 31 114 7 68 -1 89 -31 84
-5 -1 -27 -3 -49 -5z"/>
<path d="M154 5770 c3 -18 6 -59 6 -91 0 -33 4 -59 10 -59 6 0 10 31 10 74 0
50 4 76 13 79 15 5 8 13 -22 22 -23 7 -24 5 -17 -25z"/>
<path d="M256 5353 c-36 -4 -38 -6 -32 -34 3 -18 1 -29 -5 -29 -6 0 -8 -7 -5
-16 3 -8 1 -25 -5 -36 -14 -26 -1 -38 16 -15 11 16 16 16 34 6 30 -19 40 -1
11 22 l-25 19 23 6 c27 8 29 24 2 24 -11 0 -20 7 -20 15 0 10 10 15 31 15 l31
0 -7 -62 c-4 -35 -12 -66 -17 -69 -12 -8 1 -39 17 -39 15 0 21 22 31 114 7 68
-1 89 -31 84 -5 -1 -27 -3 -49 -5z"/>
<path d="M154 5320 c3 -18 6 -59 6 -91 0 -33 4 -59 10 -59 6 0 10 31 10 74 0
50 4 76 13 79 15 5 8 13 -22 22 -23 7 -24 5 -17 -25z"/>
<path d="M256 4903 c-36 -4 -38 -6 -32 -34 3 -18 1 -29 -5 -29 -6 0 -8 -7 -5
-16 3 -8 1 -25 -5 -36 -14 -26 -1 -38 16 -15 11 16 16 16 34 6 30 -19 40 -1
11 22 l-25 19 23 6 c27 8 29 24 2 24 -11 0 -20 7 -20 15 0 10 10 15 31 15 l32
0 -7 -46 c-3 -26 -6 -55 -6 -65 0 -16 -8 -19 -60 -19 l-60 0 0 59 c0 38 4 61
13 64 15 5 8 13 -22 22 -23 7 -24 5 -17 -25 3 -18 6 -58 6 -89 l0 -57 65 4
c44 3 65 1 65 -7 0 -6 6 -11 14 -11 16 0 22 21 32 114 7 68 -1 89 -31 84 -5
-1 -27 -3 -49 -5z"/>
<path d="M256 4453 c-36 -4 -38 -6 -32 -34 3 -18 1 -29 -5 -29 -6 0 -8 -7 -5
-16 3 -8 1 -25 -5 -36 -14 -26 -1 -38 16 -15 11 16 16 16 34 6 30 -19 40 -1
11 22 l-25 19 23 6 c27 8 29 24 2 24 -11 0 -20 7 -20 15 0 10 10 15 31 15 l32
0 -7 -46 c-3 -26 -6 -55 -6 -65 0 -16 -8 -19 -60 -19 l-60 0 0 59 c0 38 4 61
13 64 15 5 8 13 -22 22 -23 7 -24 5 -17 -25 3 -18 6 -58 6 -89 l0 -57 65 4
c44 3 65 1 65 -7 0 -6 6 -11 14 -11 16 0 22 21 32 114 7 68 -1 89 -31 84 -5
-1 -27 -3 -49 -5z"/>
<path d="M103 4223 c-16 -33 -16 -50 -2 -59 16 -9 29 15 29 54 0 39 -11 41
-27 5z"/>
<path d="M256 4003 c-36 -4 -38 -6 -32 -34 3 -18 1 -29 -5 -29 -6 0 -8 -7 -5
-16 3 -8 1 -25 -5 -36 -14 -26 -1 -38 16 -15 11 16 16 16 34 6 30 -19 40 -1
11 22 l-25 19 23 6 c27 8 29 24 2 24 -11 0 -20 7 -20 15 0 10 10 15 31 15 l32
0 -7 -46 c-3 -26 -6 -55 -6 -65 0 -16 -8 -19 -60 -19 l-60 0 0 59 c0 38 4 61
13 64 15 5 8 13 -22 22 -23 7 -24 5 -17 -25 3 -18 6 -58 6 -89 l0 -57 65 4
c44 3 65 1 65 -7 0 -6 6 -11 14 -11 16 0 22 21 32 114 7 68 -1 89 -31 84 -5
-1 -27 -3 -49 -5z"/>
<path d="M103 3773 c-16 -33 -16 -50 -2 -59 16 -9 29 15 29 54 0 39 -11 41
-27 5z"/>
<path d="M160 3790 c0 -6 7 -26 15 -46 22 -54 110 -81 179 -54 32 12 33 26 4
51 -29 24 -38 24 -38 0 0 -26 -25 -33 -71 -21 -31 8 -44 19 -56 45 -16 34 -33
46 -33 25z"/>
<path d="M256 3553 c-36 -4 -38 -6 -32 -34 3 -18 1 -29 -5 -29 -6 0 -8 -7 -5
-16 3 -8 1 -25 -5 -36 -14 -26 -1 -38 16 -15 11 16 16 16 34 6 30 -19 40 -1
11 22 l-25 19 23 6 c27 8 29 24 2 24 -11 0 -20 7 -20 15 0 10 10 15 31 15 l32
0 -7 -46 c-3 -26 -6 -55 -6 -65 0 -16 -8 -19 -60 -19 l-60 0 0 59 c0 38 4 61
13 64 15 5 8 13 -22 22 -23 7 -24 5 -17 -25 3 -18 6 -58 6 -89 l0 -57 65 4
c44 3 65 1 65 -7 0 -6 6 -11 14 -11 16 0 22 21 32 114 7 68 -1 89 -31 84 -5
-1 -27 -3 -49 -5z"/>
<path d="M230 3348 c0 -16 19 -38 33 -38 4 0 7 10 5 22 -3 25 -38 39 -38 16z"/>
<path d="M103 3323 c-16 -33 -16 -50 -2 -59 16 -9 29 15 29 54 0 39 -11 41
-27 5z"/>
<path d="M160 3340 c0 -6 7 -26 15 -46 22 -54 110 -81 179 -54 32 12 33 26 4
51 -29 24 -38 24 -38 0 0 -26 -25 -33 -71 -21 -31 8 -44 19 -56 45 -16 34 -33
46 -33 25z"/>
<path d="M256 3103 c-36 -4 -38 -6 -32 -34 3 -18 1 -29 -5 -29 -6 0 -8 -7 -5
-16 3 -8 1 -25 -5 -36 -14 -26 -1 -38 16 -15 11 16 16 16 34 6 30 -19 40 -1
11 22 l-25 19 23 6 c27 8 29 24 2 24 -11 0 -20 7 -20 15 0 10 10 15 31 15 l32
0 -7 -46 c-3 -26 -6 -55 -6 -65 0 -16 -8 -19 -60 -19 l-60 0 0 59 c0 38 4 61
13 64 15 5 8 13 -22 22 -23 7 -24 5 -17 -25 3 -18 6 -58 6 -89 l0 -57 65 4
c44 3 65 1 65 -7 0 -6 6 -11 14 -11 16 0 22 21 32 114 7 68 -1 89 -31 84 -5
-1 -27 -3 -49 -5z"/>
<path d="M360 2914 c0 -18 24 -44 40 -44 26 0 26 26 1 40 -22 11 -41 13 -41 4z"/>
<path d="M230 2898 c0 -16 19 -38 33 -38 4 0 7 10 5 22 -3 25 -38 39 -38 16z"/>
<path d="M103 2873 c-16 -33 -16 -50 -2 -59 16 -9 29 15 29 54 0 39 -11 41
-27 5z"/>
<path d="M160 2890 c0 -6 7 -26 15 -46 22 -54 110 -81 179 -54 32 12 33 26 4
51 -29 24 -38 24 -38 0 0 -26 -25 -33 -71 -21 -31 8 -44 19 -56 45 -16 34 -33
46 -33 25z"/>
</g>
</svg>
