<?xml version="1.0" standalone="no"?>
<!DOCTYPE svg PUBLIC "-//W3C//DTD SVG 20010904//EN"
 "http://www.w3.org/TR/2001/REC-SVG-20010904/DTD/svg10.dtd">
<svg version="1.0" xmlns="http://www.w3.org/2000/svg"
 width="50.000000pt" height="725.000000pt" viewBox="0 0 50.000000 725.000000"
 preserveAspectRatio="xMidYMid meet">
<metadata>
Created by potrace 1.16, written by Peter Selinger 2001-2019
</metadata>
<g transform="translate(0.000000,725.000000) scale(0.100000,-0.100000)"
fill="#000000" stroke="none">
<path d="M93 7023 c-18 -37 -16 -55 5 -51 12 2 18 14 20 41 4 43 -8 48 -25 10z"/>
<path d="M140 6613 c0 -49 -3 -118 -7 -155 -5 -59 -4 -68 11 -68 13 0 16 11
17 63 0 34 4 100 8 147 8 82 4 99 -21 100 -5 0 -8 -39 -8 -87z"/>
<path d="M93 6573 c-18 -37 -16 -55 5 -51 12 2 18 14 20 41 4 43 -8 48 -25 10z"/>
<path d="M140 6163 c0 -49 -3 -118 -7 -155 -5 -59 -4 -68 11 -68 13 0 16 11
16 59 0 32 3 79 6 103 5 38 9 45 25 41 26 -7 24 14 -2 27 -16 9 -19 18 -14 37
6 24 -6 42 -27 43 -5 0 -8 -39 -8 -87z"/>
<path d="M93 6123 c-18 -37 -16 -55 5 -51 12 2 18 14 20 41 4 43 -8 48 -25 10z"/>
<path d="M140 5713 c0 -49 -3 -118 -7 -155 -5 -59 -4 -68 11 -68 13 0 16 11
16 59 0 32 3 79 6 103 5 38 9 45 25 41 26 -7 24 14 -2 27 -16 9 -19 18 -14 37
6 24 -6 42 -27 43 -5 0 -8 -39 -8 -87z"/>
<path d="M293 5763 c-46 -6 -41 -23 6 -23 44 0 71 8 71 21 0 9 -16 9 -77 2z"/>
<path d="M93 5673 c-18 -37 -16 -55 5 -51 12 2 18 14 20 41 4 43 -8 48 -25 10z"/>
<path d="M290 5341 c0 -21 -5 -31 -15 -31 -8 0 -15 -4 -15 -10 0 -5 7 -10 15
-10 8 0 15 -9 15 -20 0 -11 5 -20 10 -20 6 0 10 7 10 16 0 8 14 20 30 25 34
12 40 29 11 29 -13 0 -21 8 -23 22 -2 13 -11 24 -20 26 -14 3 -18 -3 -18 -27z"/>
<path d="M140 5263 c0 -49 -3 -118 -7 -155 -5 -59 -4 -68 11 -68 13 0 16 11
16 59 0 32 3 79 6 103 5 38 9 45 25 41 26 -7 24 14 -2 27 -16 9 -19 18 -14 37
6 24 -6 42 -27 43 -5 0 -8 -39 -8 -87z"/>
<path d="M93 5223 c-18 -37 -16 -55 5 -51 12 2 18 14 20 41 4 43 -8 48 -25 10z"/>
<path d="M290 4891 c0 -21 -5 -31 -15 -31 -8 0 -15 -4 -15 -10 0 -5 7 -10 15
-10 8 0 15 -9 15 -20 0 -11 5 -20 10 -20 6 0 10 7 10 16 0 8 14 20 30 25 34
12 40 29 11 29 -13 0 -21 8 -23 22 -2 13 -11 24 -20 26 -14 3 -18 -3 -18 -27z"/>
<path d="M140 4813 c0 -49 -3 -118 -7 -155 -5 -59 -4 -68 11 -68 13 0 16 11
16 59 0 32 3 79 6 103 5 37 10 45 24 41 12 -3 16 -12 12 -29 -6 -32 15 -31 30
1 6 14 9 26 7 28 -2 1 -17 10 -34 19 -23 13 -30 24 -28 45 2 25 -10 42 -29 43
-5 0 -8 -39 -8 -87z"/>
<path d="M93 4773 c-18 -37 -16 -55 5 -51 12 2 18 14 20 41 4 43 -8 48 -25 10z"/>
<path d="M290 4441 c0 -21 -5 -31 -15 -31 -8 0 -15 -4 -15 -10 0 -5 7 -10 15
-10 8 0 15 -7 15 -15 0 -8 -4 -15 -10 -15 -5 0 -10 -5 -10 -11 0 -8 17 -10 54
-6 45 4 54 3 49 -9 -6 -16 14 -19 36 -5 8 5 11 16 7 26 -5 15 -15 17 -56 12
-56 -7 -68 8 -20 24 34 12 40 29 11 29 -13 0 -21 8 -23 22 -2 13 -11 24 -20
26 -14 3 -18 -3 -18 -27z"/>
<path d="M140 4363 c0 -49 -3 -118 -7 -155 -5 -59 -4 -68 11 -68 13 0 16 11
16 59 0 32 3 79 6 103 5 37 10 45 24 41 12 -3 16 -12 12 -29 -6 -31 5 -30 34
2 29 31 30 34 4 34 -12 0 -32 7 -46 17 -20 13 -24 22 -19 41 6 23 -6 41 -27
42 -5 0 -8 -39 -8 -87z"/>
<path d="M93 4323 c-18 -37 -16 -55 5 -51 12 2 18 14 20 41 4 43 -8 48 -25 10z"/>
<path d="M290 3991 c0 -21 -5 -31 -15 -31 -8 0 -15 -4 -15 -10 0 -5 7 -10 15
-10 8 0 15 -7 15 -15 0 -8 -4 -15 -10 -15 -5 0 -10 -5 -10 -11 0 -8 17 -10 54
-6 45 4 54 3 49 -9 -6 -16 14 -19 36 -5 8 5 11 16 7 26 -5 15 -15 17 -56 12
-56 -7 -68 8 -20 24 34 12 40 29 11 29 -13 0 -21 8 -23 22 -2 13 -11 24 -20
26 -14 3 -18 -3 -18 -27z"/>
<path d="M140 3913 c0 -49 -3 -118 -7 -155 -5 -59 -4 -68 11 -68 13 0 16 11
16 59 0 32 3 79 6 103 5 37 10 45 24 41 12 -3 16 -12 12 -29 -6 -31 5 -30 34
2 29 31 30 34 4 34 -12 0 -32 7 -46 17 -20 13 -24 22 -19 41 6 23 -6 41 -27
42 -5 0 -8 -39 -8 -87z"/>
<path d="M93 3873 c-18 -37 -16 -55 5 -51 12 2 18 14 20 41 4 43 -8 48 -25 10z"/>
<path d="M278 3863 c-16 -2 -28 -9 -28 -15 0 -7 14 -8 36 -5 31 5 34 4 23 -9
-19 -23 -3 -29 26 -10 47 31 16 51 -57 39z"/>
<path d="M290 3541 c0 -21 -5 -31 -15 -31 -8 0 -15 -4 -15 -10 0 -5 7 -10 15
-10 8 0 15 -7 15 -15 0 -8 -4 -15 -10 -15 -5 0 -10 -5 -10 -11 0 -8 17 -10 54
-6 45 4 54 3 49 -9 -6 -16 14 -19 36 -5 8 5 11 16 7 26 -5 15 -15 17 -56 12
-56 -7 -68 8 -20 24 34 12 40 29 11 29 -13 0 -21 8 -23 22 -2 13 -11 24 -20
26 -14 3 -18 -3 -18 -27z"/>
<path d="M140 3463 c0 -49 -3 -118 -7 -155 -5 -59 -4 -68 11 -68 13 0 16 11
16 59 0 32 3 79 6 103 5 37 10 45 24 41 12 -3 16 -12 12 -29 -6 -31 5 -30 34
2 29 31 30 34 4 34 -12 0 -32 7 -46 17 -20 13 -24 22 -19 41 6 23 -6 41 -27
42 -5 0 -8 -39 -8 -87z"/>
<path d="M93 3423 c-18 -37 -16 -55 5 -51 12 2 18 14 20 41 4 43 -8 48 -25 10z"/>
<path d="M278 3413 c-16 -2 -28 -9 -28 -15 0 -7 14 -8 36 -5 34 6 35 5 20 -12
-10 -11 -16 -36 -16 -69 0 -29 -4 -52 -10 -52 -16 0 -11 -30 6 -37 24 -9 34
15 34 80 0 48 4 62 22 76 39 32 13 46 -64 34z"/>
<path d="M290 3091 c0 -21 -5 -31 -15 -31 -8 0 -15 -4 -15 -10 0 -5 7 -10 15
-10 8 0 15 -7 15 -15 0 -8 -4 -15 -10 -15 -5 0 -10 -5 -10 -11 0 -8 17 -10 54
-6 45 4 54 3 49 -9 -6 -16 14 -19 36 -5 8 5 11 16 7 26 -5 15 -15 17 -56 12
-56 -7 -68 8 -20 24 34 12 40 29 11 29 -13 0 -21 8 -23 22 -2 13 -11 24 -20
26 -14 3 -18 -3 -18 -27z"/>
<path d="M140 3013 c0 -49 -3 -118 -7 -155 -5 -59 -4 -68 11 -68 13 0 16 11
16 59 0 32 3 79 6 103 5 37 10 45 24 41 12 -3 16 -12 12 -29 -6 -31 5 -30 34
2 29 31 30 34 4 34 -12 0 -32 7 -46 17 -20 13 -24 22 -19 41 6 23 -6 41 -27
42 -5 0 -8 -39 -8 -87z"/>
<path d="M93 2973 c-18 -37 -16 -55 5 -51 12 2 18 14 20 41 4 43 -8 48 -25 10z"/>
<path d="M278 2963 c-16 -2 -28 -9 -28 -15 0 -7 13 -8 35 -5 l35 6 -22 -30
c-18 -23 -29 -29 -61 -29 -27 0 -37 -4 -34 -12 2 -9 19 -12 46 -10 40 3 41 2
41 -27 0 -17 -4 -31 -10 -31 -16 0 -11 -30 6 -37 22 -8 34 14 34 65 l0 42 55
0 c30 0 55 4 55 9 0 15 -30 21 -71 15 -44 -7 -49 0 -17 25 39 32 13 46 -64 34z"/>
</g>
</svg>
