<?xml version="1.0" standalone="no"?>
<!DOCTYPE svg PUBLIC "-//W3C//DTD SVG 20010904//EN"
 "http://www.w3.org/TR/2001/REC-SVG-20010904/DTD/svg10.dtd">
<svg version="1.0" xmlns="http://www.w3.org/2000/svg"
 width="50.000000pt" height="725.000000pt" viewBox="0 0 50.000000 725.000000"
 preserveAspectRatio="xMidYMid meet">
<metadata>
Created by potrace 1.16, written by Peter Selinger 2001-2019
</metadata>
<g transform="translate(0.000000,725.000000) scale(0.100000,-0.100000)"
fill="#000000" stroke="none">
<path d="M102 7025 c-7 -14 -12 -32 -12 -40 0 -24 27 -17 34 8 15 55 -1 78
-22 32z"/>
<path d="M150 6603 c0 -60 -3 -132 -6 -160 -6 -43 -4 -53 8 -53 11 0 16 30 24
153 10 147 8 166 -18 167 -5 0 -8 -48 -8 -107z"/>
<path d="M102 6575 c-7 -14 -12 -32 -12 -40 0 -24 27 -17 34 8 15 55 -1 78
-22 32z"/>
<path d="M150 6153 c0 -60 -3 -132 -6 -160 -6 -45 -4 -53 10 -53 13 0 16 11
16 59 0 32 3 79 6 105 6 38 9 44 21 35 10 -9 17 -9 25 -1 14 14 -6 42 -29 42
-12 0 -14 8 -9 34 6 31 -4 46 -30 46 -2 0 -4 -48 -4 -107z"/>
<path d="M102 6125 c-7 -14 -12 -32 -12 -40 0 -24 27 -17 34 8 15 55 -1 78
-22 32z"/>
<path d="M150 5703 c0 -60 -3 -132 -6 -160 -6 -45 -4 -53 10 -53 13 0 16 11
16 59 0 32 3 79 6 105 6 38 9 44 21 35 10 -9 17 -9 25 -1 14 14 -6 42 -29 42
-12 0 -14 8 -9 34 6 31 -4 46 -30 46 -2 0 -4 -48 -4 -107z"/>
<path d="M244 5768 c3 -13 8 -40 11 -60 3 -21 11 -38 17 -38 6 0 8 12 4 31 -3
17 -6 44 -6 60 0 19 -5 29 -15 29 -11 0 -14 -7 -11 -22z"/>
<path d="M102 5675 c-7 -14 -12 -32 -12 -40 0 -24 27 -17 34 8 15 55 -1 78
-22 32z"/>
<path d="M150 5253 c0 -60 -3 -132 -6 -160 -6 -45 -4 -53 10 -53 13 0 16 11
16 59 0 32 3 79 6 105 6 38 9 44 21 35 10 -9 17 -9 25 -1 14 14 -6 42 -29 42
-12 0 -14 8 -9 34 6 31 -4 46 -30 46 -2 0 -4 -48 -4 -107z"/>
<path d="M313 5353 c-31 -6 -29 -23 3 -23 19 0 24 -4 20 -17 -16 -60 -17 -83
-3 -83 17 0 43 90 33 115 -5 15 -12 16 -53 8z"/>
<path d="M244 5318 c3 -13 8 -40 11 -60 9 -59 22 -45 21 22 -1 50 -4 60 -19
60 -13 0 -16 -6 -13 -22z"/>
<path d="M102 5225 c-7 -14 -12 -32 -12 -40 0 -24 27 -17 34 8 15 55 -1 78
-22 32z"/>
<path d="M150 4803 c0 -60 -3 -132 -6 -160 -6 -45 -4 -53 10 -53 13 0 16 11
16 59 0 32 3 79 6 105 6 38 9 44 21 35 10 -9 17 -9 25 -1 14 14 -6 42 -29 42
-12 0 -14 8 -9 34 6 31 -4 46 -30 46 -2 0 -4 -48 -4 -107z"/>
<path d="M313 4903 c-31 -6 -29 -23 3 -23 31 0 28 -23 -4 -28 -28 -4 -29 -22
-2 -22 17 0 19 -5 14 -25 -5 -18 -2 -25 9 -25 17 0 43 90 33 115 -5 15 -12 16
-53 8z"/>
<path d="M244 4868 c3 -13 8 -40 11 -60 9 -59 24 -44 22 22 -2 50 -5 60 -20
60 -13 0 -16 -6 -13 -22z"/>
<path d="M102 4775 c-7 -14 -12 -32 -12 -40 0 -24 27 -17 34 8 15 55 -1 78
-22 32z"/>
<path d="M150 4353 c0 -60 -3 -132 -6 -160 -6 -45 -4 -53 10 -53 13 0 16 11
16 59 0 32 3 79 6 105 6 38 9 44 21 35 10 -9 17 -9 25 -1 14 14 -6 42 -29 42
-12 0 -14 8 -9 34 6 31 -4 46 -30 46 -2 0 -4 -48 -4 -107z"/>
<path d="M313 4453 c-31 -6 -29 -23 3 -23 31 0 28 -23 -4 -28 -28 -4 -29 -22
-1 -22 12 0 19 -5 17 -12 -3 -7 -16 -13 -29 -13 -22 0 -24 4 -23 43 0 34 -3
42 -18 42 -14 0 -17 -6 -14 -22 3 -13 8 -40 11 -61 5 -29 10 -37 21 -33 9 3
28 6 44 6 25 0 29 5 40 50 7 28 9 57 6 65 -5 15 -12 16 -53 8z"/>
<path d="M102 4325 c-7 -14 -12 -32 -12 -40 0 -24 27 -17 34 8 15 55 -1 78
-22 32z"/>
<path d="M150 3903 c0 -60 -3 -132 -6 -160 -6 -45 -4 -53 10 -53 13 0 16 11
16 59 0 32 3 79 6 105 6 38 9 44 21 35 10 -9 17 -9 25 -1 14 14 -6 42 -29 42
-12 0 -14 8 -9 34 6 31 -4 46 -30 46 -2 0 -4 -48 -4 -107z"/>
<path d="M313 4003 c-31 -6 -29 -23 3 -23 31 0 28 -23 -4 -28 -28 -4 -29 -22
-1 -22 12 0 19 -5 17 -12 -3 -7 -16 -13 -29 -13 -22 0 -24 4 -23 43 0 34 -3
42 -17 42 -19 0 -19 -8 -3 -86 2 -12 -7 -38 -22 -59 -14 -21 -22 -40 -19 -43
8 -8 65 49 65 65 0 8 13 13 34 13 33 0 35 2 46 50 7 28 9 57 6 65 -5 15 -12
16 -53 8z"/>
<path d="M102 3875 c-7 -14 -12 -32 -12 -40 0 -24 27 -17 34 8 15 55 -1 78
-22 32z"/>
<path d="M150 3453 c0 -60 -3 -132 -6 -160 -6 -45 -4 -53 10 -53 13 0 16 11
16 59 0 32 3 79 6 105 6 38 9 44 21 35 10 -9 17 -9 25 -1 14 14 -6 42 -29 42
-12 0 -14 8 -9 34 6 31 -4 46 -30 46 -2 0 -4 -48 -4 -107z"/>
<path d="M313 3553 c-31 -6 -29 -23 3 -23 31 0 28 -23 -4 -28 -28 -4 -29 -22
-1 -22 12 0 19 -5 17 -12 -3 -7 -16 -13 -29 -13 -22 0 -24 4 -23 43 0 34 -3
42 -17 42 -19 0 -19 -8 -3 -86 2 -12 -7 -38 -22 -59 -24 -36 -26 -61 -2 -37 7
7 22 12 35 12 13 0 23 5 23 10 0 6 -4 10 -9 10 -5 0 -7 9 -4 20 4 15 14 20 38
20 31 0 34 3 45 50 7 28 9 57 6 65 -5 15 -12 16 -53 8z"/>
<path d="M102 3425 c-7 -14 -12 -32 -12 -40 0 -24 27 -17 34 8 15 55 -1 78
-22 32z"/>
<path d="M374 3373 c1 -55 -21 -102 -45 -96 -25 7 -24 -9 1 -32 19 -17 22 -17
36 -3 24 23 56 151 41 160 -25 16 -34 7 -33 -29z"/>
<path d="M310 3390 c0 -5 11 -10 25 -10 14 0 25 5 25 10 0 6 -11 10 -25 10
-14 0 -25 -4 -25 -10z"/>
<path d="M150 3003 c0 -60 -3 -132 -6 -160 -6 -45 -4 -53 10 -53 13 0 16 11
16 59 0 32 3 79 6 105 6 38 9 44 21 35 10 -9 17 -9 25 -1 14 14 -6 42 -29 42
-12 0 -14 8 -9 34 6 31 -4 46 -30 46 -2 0 -4 -48 -4 -107z"/>
<path d="M313 3103 c-31 -6 -29 -23 3 -23 31 0 28 -23 -4 -28 -28 -4 -29 -22
-1 -22 12 0 19 -5 17 -12 -3 -7 -16 -13 -29 -13 -22 0 -24 4 -23 43 0 34 -3
42 -17 42 -19 0 -19 -8 -3 -86 2 -12 -7 -38 -22 -59 -26 -39 -26 -57 1 -35 27
23 27 4 -1 -29 -33 -40 -25 -50 15 -21 32 22 53 71 34 77 -6 2 -9 13 -6 23 4
15 14 20 38 20 31 0 34 3 45 50 7 28 9 57 6 65 -5 15 -12 16 -53 8z"/>
<path d="M102 2975 c-7 -14 -12 -32 -12 -40 0 -24 27 -17 34 8 15 55 -1 78
-22 32z"/>
<path d="M374 2923 c1 -55 -21 -102 -45 -96 -25 7 -24 -9 1 -32 19 -17 22 -17
36 -3 24 23 56 151 41 160 -25 16 -34 7 -33 -29z"/>
<path d="M310 2940 c0 -5 11 -10 25 -10 14 0 25 5 25 10 0 6 -11 10 -25 10
-14 0 -25 -4 -25 -10z"/>
<path d="M150 2553 c0 -60 -3 -132 -6 -160 -6 -45 -4 -53 10 -53 13 0 16 11
16 59 0 32 3 79 6 105 6 38 9 44 21 35 10 -9 17 -9 25 -1 14 14 -6 42 -29 42
-12 0 -14 8 -9 34 6 31 -4 46 -30 46 -2 0 -4 -48 -4 -107z"/>
<path d="M313 2653 c-31 -6 -29 -23 3 -23 31 0 28 -23 -4 -28 -28 -4 -29 -22
-1 -22 12 0 19 -5 17 -12 -3 -7 -16 -13 -29 -13 -22 0 -24 4 -23 43 0 34 -3
42 -17 42 -19 0 -19 -8 -3 -86 2 -12 -7 -38 -22 -59 -26 -39 -26 -57 1 -35 27
23 27 4 -1 -29 -33 -40 -25 -50 15 -21 32 22 53 71 34 77 -6 2 -9 13 -6 23 4
15 14 20 38 20 31 0 34 3 45 50 7 28 9 57 6 65 -5 15 -12 16 -53 8z"/>
<path d="M102 2525 c-7 -14 -12 -32 -12 -40 0 -24 27 -17 34 8 15 55 -1 78
-22 32z"/>
<path d="M374 2473 c1 -55 -21 -102 -45 -96 -25 7 -24 -9 1 -32 19 -17 22 -17
36 -3 24 23 56 151 41 160 -25 16 -34 7 -33 -29z"/>
<path d="M313 2486 c6 -16 -12 -46 -56 -93 -33 -35 -32 -52 1 -34 26 14 88 89
96 119 6 19 4 22 -19 22 -19 0 -26 -4 -22 -14z"/>
</g>
</svg>
