<?xml version="1.0" standalone="no"?>
<!DOCTYPE svg PUBLIC "-//W3C//DTD SVG 20010904//EN"
 "http://www.w3.org/TR/2001/REC-SVG-20010904/DTD/svg10.dtd">
<svg version="1.0" xmlns="http://www.w3.org/2000/svg"
 width="50.000000pt" height="725.000000pt" viewBox="0 0 50.000000 725.000000"
 preserveAspectRatio="xMidYMid meet">
<metadata>
Created by potrace 1.16, written by Peter Selinger 2001-2019
</metadata>
<g transform="translate(0.000000,725.000000) scale(0.100000,-0.100000)"
fill="#000000" stroke="none">
<path d="M102 7008 c-8 -22 -9 -35 -2 -42 14 -14 30 10 30 47 0 36 -13 34 -28
-5z"/>
<path d="M150 6608 c0 -46 -3 -113 -7 -150 -5 -59 -4 -68 11 -68 13 0 16 12
16 73 0 41 3 108 6 150 6 67 5 77 -10 77 -13 0 -16 -13 -16 -82z"/>
<path d="M102 6558 c-8 -22 -9 -35 -2 -42 14 -14 30 10 30 47 0 36 -13 34 -28
-5z"/>
<path d="M150 6158 c0 -46 -3 -113 -7 -150 -5 -59 -4 -68 11 -68 14 0 16 14
16 102 0 79 3 99 12 90 17 -17 38 -15 38 4 0 9 -9 18 -20 21 -16 4 -20 14 -20
44 0 28 -4 39 -15 39 -12 0 -15 -16 -15 -82z"/>
<path d="M102 6108 c-8 -22 -9 -35 -2 -42 14 -14 30 10 30 47 0 36 -13 34 -28
-5z"/>
<path d="M232 5759 c-11 -36 -11 -44 4 -60 9 -11 21 -19 26 -19 14 0 9 30 -7
36 -13 5 -13 9 0 34 18 35 19 50 2 50 -6 0 -18 -19 -25 -41z"/>
<path d="M150 5708 c0 -46 -3 -113 -7 -150 -5 -59 -4 -68 11 -68 14 0 16 14
16 102 0 79 3 99 12 90 17 -17 38 -15 38 4 0 9 -9 18 -20 21 -16 4 -20 14 -20
44 0 28 -4 39 -15 39 -12 0 -15 -16 -15 -82z"/>
<path d="M102 5658 c-8 -22 -9 -35 -2 -42 14 -14 30 10 30 47 0 36 -13 34 -28
-5z"/>
<path d="M232 5309 c-11 -36 -11 -44 4 -60 9 -11 21 -19 26 -19 14 0 9 30 -7
36 -13 5 -13 9 0 34 18 35 19 50 2 50 -6 0 -18 -19 -25 -41z"/>
<path d="M291 5309 c-11 -36 -10 -43 5 -60 18 -20 44 -26 44 -10 0 6 -10 17
-21 25 -20 14 -20 16 -5 37 20 28 21 49 3 49 -8 0 -19 -18 -26 -41z"/>
<path d="M150 5258 c0 -46 -3 -113 -7 -150 -5 -59 -4 -68 11 -68 14 0 16 14
16 102 0 79 3 99 12 90 17 -17 38 -15 38 4 0 9 -9 18 -20 21 -16 4 -20 14 -20
44 0 28 -4 39 -15 39 -12 0 -15 -16 -15 -82z"/>
<path d="M102 5208 c-8 -22 -9 -35 -2 -42 14 -14 30 10 30 47 0 36 -13 34 -28
-5z"/>
<path d="M355 4874 c-8 -20 -15 -40 -15 -43 0 -12 45 -51 58 -51 22 0 12 30
-13 42 l-24 11 20 28 c19 27 19 49 -1 49 -6 0 -17 -16 -25 -36z"/>
<path d="M232 4859 c-11 -36 -11 -44 4 -60 9 -11 21 -19 26 -19 14 0 9 30 -7
36 -13 5 -13 9 0 34 18 35 19 50 2 50 -6 0 -18 -19 -25 -41z"/>
<path d="M291 4859 c-11 -36 -10 -43 5 -60 18 -20 44 -26 44 -10 0 6 -10 17
-21 25 -20 14 -20 16 -5 37 20 28 21 49 3 49 -8 0 -19 -18 -26 -41z"/>
<path d="M150 4808 c0 -46 -3 -113 -7 -150 -5 -59 -4 -68 11 -68 14 0 16 14
16 102 0 79 3 99 12 90 17 -17 38 -15 38 4 0 9 -9 18 -20 21 -16 4 -20 14 -20
44 0 28 -4 39 -15 39 -12 0 -15 -16 -15 -82z"/>
<path d="M102 4758 c-8 -22 -9 -35 -2 -42 14 -14 30 10 30 47 0 36 -13 34 -28
-5z"/>
<path d="M355 4424 c-8 -20 -15 -40 -15 -43 0 -12 45 -51 58 -51 22 0 12 30
-13 42 l-24 11 20 28 c19 27 19 49 -1 49 -6 0 -17 -16 -25 -36z"/>
<path d="M232 4408 c-13 -41 -12 -44 11 -64 19 -16 22 -25 15 -38 -15 -27 0
-32 25 -8 l21 22 -31 28 c-28 26 -29 31 -17 53 17 31 17 49 1 49 -6 0 -18 -19
-25 -42z"/>
<path d="M291 4409 c-11 -36 -10 -43 5 -60 18 -20 44 -26 44 -10 0 6 -10 17
-21 25 -20 14 -20 16 -5 37 20 28 21 49 3 49 -8 0 -19 -18 -26 -41z"/>
<path d="M150 4358 c0 -46 -3 -113 -7 -150 -5 -59 -4 -68 11 -68 14 0 16 14
16 102 0 79 3 99 12 90 17 -17 38 -15 38 4 0 9 -9 18 -20 21 -16 4 -20 14 -20
44 0 28 -4 39 -15 39 -12 0 -15 -16 -15 -82z"/>
<path d="M102 4308 c-8 -22 -9 -35 -2 -42 14 -14 30 10 30 47 0 36 -13 34 -28
-5z"/>
<path d="M355 3974 c-8 -20 -15 -40 -15 -43 0 -12 45 -51 58 -51 22 0 12 30
-13 42 l-24 11 20 28 c19 27 19 49 -1 49 -6 0 -17 -16 -25 -36z"/>
<path d="M232 3958 c-13 -41 -12 -44 11 -64 19 -16 22 -25 15 -38 -15 -27 0
-32 25 -8 l21 22 -31 28 c-28 26 -29 31 -17 53 17 31 17 49 1 49 -6 0 -18 -19
-25 -42z"/>
<path d="M291 3959 c-11 -36 -10 -43 5 -60 18 -20 44 -26 44 -10 0 6 -10 17
-21 25 -20 14 -20 16 -5 37 20 28 21 49 3 49 -8 0 -19 -18 -26 -41z"/>
<path d="M150 3908 c0 -46 -3 -113 -7 -150 -5 -59 -4 -68 11 -68 14 0 16 14
16 102 0 79 3 99 12 90 17 -17 38 -15 38 4 0 9 -9 18 -20 21 -16 4 -20 14 -20
44 0 28 -4 39 -15 39 -12 0 -15 -16 -15 -82z"/>
<path d="M102 3858 c-8 -22 -9 -35 -2 -42 14 -14 30 10 30 47 0 36 -13 34 -28
-5z"/>
<path d="M226 3788 c8 -76 13 -98 25 -98 6 0 8 22 4 63 -8 74 -11 87 -24 87
-6 0 -8 -21 -5 -52z"/>
<path d="M355 3524 c-8 -20 -15 -40 -15 -43 0 -12 45 -51 58 -51 22 0 12 30
-13 42 l-24 11 20 28 c19 27 19 49 -1 49 -6 0 -17 -16 -25 -36z"/>
<path d="M232 3508 c-13 -41 -12 -44 11 -64 18 -16 22 -25 15 -37 -5 -10 -15
-17 -23 -17 -11 0 -13 -12 -9 -52 8 -76 13 -98 25 -98 6 0 8 21 3 60 -5 42 -3
60 5 60 6 0 11 5 11 12 0 6 8 20 17 30 16 18 15 20 -14 47 -28 25 -29 30 -17
52 17 31 17 49 1 49 -6 0 -18 -19 -25 -42z"/>
<path d="M291 3509 c-11 -36 -10 -43 5 -60 18 -20 44 -26 44 -10 0 6 -10 17
-21 25 -20 14 -20 16 -5 37 20 28 21 49 3 49 -8 0 -19 -18 -26 -41z"/>
<path d="M150 3458 c0 -46 -3 -113 -7 -150 -5 -59 -4 -68 11 -68 14 0 16 14
16 102 0 79 3 99 12 90 17 -17 38 -15 38 4 0 9 -9 18 -20 21 -16 4 -20 14 -20
44 0 28 -4 39 -15 39 -12 0 -15 -16 -15 -82z"/>
<path d="M102 3408 c-8 -22 -9 -35 -2 -42 14 -14 30 10 30 47 0 36 -13 34 -28
-5z"/>
<path d="M323 3393 c-60 -6 -54 -23 7 -23 l50 0 0 -39 c0 -22 -4 -43 -10 -46
-12 -8 -13 -55 -1 -55 20 0 32 32 34 96 2 77 5 75 -80 67z"/>
<path d="M355 3074 c-8 -20 -15 -40 -15 -43 0 -12 45 -51 58 -51 22 0 12 30
-13 42 l-24 11 20 28 c19 27 19 49 -1 49 -6 0 -17 -16 -25 -36z"/>
<path d="M232 3058 c-13 -41 -12 -44 11 -64 18 -16 22 -25 15 -37 -5 -10 -15
-17 -23 -17 -11 0 -13 -12 -9 -52 8 -76 13 -98 25 -98 6 0 8 21 3 60 -5 42 -3
60 5 60 6 0 11 5 11 12 0 6 8 20 17 30 16 18 15 20 -14 47 -28 25 -29 30 -17
52 17 31 17 49 1 49 -6 0 -18 -19 -25 -42z"/>
<path d="M291 3059 c-11 -36 -10 -43 5 -60 18 -20 44 -26 44 -10 0 6 -10 17
-21 25 -20 14 -20 16 -5 37 20 28 21 49 3 49 -8 0 -19 -18 -26 -41z"/>
<path d="M150 3008 c0 -46 -3 -113 -7 -150 -5 -59 -4 -68 11 -68 14 0 16 14
16 102 0 79 3 99 12 90 17 -17 38 -15 38 4 0 9 -9 18 -20 21 -16 4 -20 14 -20
44 0 28 -4 39 -15 39 -12 0 -15 -16 -15 -82z"/>
<path d="M102 2958 c-8 -22 -9 -35 -2 -42 14 -14 30 10 30 47 0 36 -13 34 -28
-5z"/>
<path d="M323 2943 c-40 -4 -63 -23 -28 -23 21 0 19 -12 -6 -44 -12 -15 -18
-30 -15 -33 8 -9 66 47 66 64 0 7 9 13 20 13 17 0 20 -7 20 -39 0 -22 -4 -43
-10 -46 -12 -8 -13 -55 -1 -55 20 0 32 32 34 96 2 77 5 75 -80 67z"/>
<path d="M355 2624 c-8 -20 -15 -40 -15 -43 0 -12 45 -51 58 -51 22 0 12 30
-13 42 l-24 11 20 28 c19 27 19 49 -1 49 -6 0 -17 -16 -25 -36z"/>
<path d="M232 2608 c-13 -41 -12 -44 11 -64 18 -16 22 -25 15 -37 -5 -10 -15
-17 -23 -17 -11 0 -13 -12 -9 -52 8 -76 13 -98 25 -98 6 0 8 21 3 60 -5 42 -3
60 5 60 6 0 11 5 11 12 0 6 8 20 17 30 16 18 15 20 -14 47 -28 25 -29 30 -17
52 17 31 17 49 1 49 -6 0 -18 -19 -25 -42z"/>
<path d="M291 2609 c-11 -36 -10 -43 5 -60 18 -20 44 -26 44 -10 0 6 -10 17
-21 25 -20 14 -20 16 -5 37 20 28 21 49 3 49 -8 0 -19 -18 -26 -41z"/>
<path d="M150 2558 c0 -46 -3 -113 -7 -150 -5 -59 -4 -68 11 -68 14 0 16 14
16 102 0 79 3 99 12 90 17 -17 38 -15 38 4 0 9 -9 18 -20 21 -16 4 -20 14 -20
44 0 28 -4 39 -15 39 -12 0 -15 -16 -15 -82z"/>
<path d="M102 2508 c-8 -22 -9 -35 -2 -42 14 -14 30 10 30 47 0 36 -13 34 -28
-5z"/>
<path d="M323 2493 c-40 -4 -63 -23 -28 -23 8 0 15 -4 15 -10 0 -5 -7 -10 -16
-10 -10 0 -14 -6 -11 -14 3 -7 0 -19 -6 -25 -16 -16 0 -26 18 -11 12 10 19 10
27 2 18 -18 28 -14 28 8 0 11 -4 20 -9 20 -5 0 -7 9 -4 20 3 11 14 20 24 20
15 0 19 -7 19 -39 0 -22 -4 -43 -10 -46 -12 -8 -13 -55 -1 -55 20 0 32 32 34
96 2 77 5 75 -80 67z"/>
<path d="M355 2174 c-8 -20 -15 -40 -15 -43 0 -12 45 -51 58 -51 22 0 12 30
-13 42 l-24 11 20 28 c19 27 19 49 -1 49 -6 0 -17 -16 -25 -36z"/>
<path d="M232 2158 c-13 -41 -12 -44 11 -64 18 -16 22 -25 15 -37 -5 -10 -15
-17 -23 -17 -11 0 -13 -12 -9 -52 9 -89 13 -101 32 -92 9 4 36 9 60 12 34 3
42 1 42 -12 0 -19 14 -21 28 -3 15 17 27 143 15 150 -14 9 -123 -4 -123 -14 0
-5 7 -9 15 -9 8 0 15 -4 15 -10 0 -5 -7 -10 -16 -10 -10 0 -14 -6 -11 -14 3
-7 0 -19 -6 -25 -16 -16 0 -26 18 -11 12 10 19 10 27 2 18 -18 28 -14 28 8 0
11 -4 20 -9 20 -5 0 -7 9 -4 20 3 11 14 20 25 20 16 0 19 -6 16 -42 l-3 -43
-60 0 -60 0 -3 38 c-2 21 1 37 7 37 6 0 11 5 11 12 0 6 8 20 17 30 16 18 15
20 -14 47 -28 25 -29 30 -17 52 17 31 17 49 1 49 -6 0 -18 -19 -25 -42z"/>
<path d="M291 2159 c-11 -36 -10 -43 5 -60 18 -20 44 -26 44 -10 0 6 -10 17
-21 25 -20 14 -20 16 -5 37 20 28 21 49 3 49 -8 0 -19 -18 -26 -41z"/>
<path d="M150 2108 c0 -46 -3 -113 -7 -150 -5 -59 -4 -68 11 -68 14 0 16 14
16 102 0 79 3 99 12 90 17 -17 38 -15 38 4 0 9 -9 18 -20 21 -16 4 -20 14 -20
44 0 28 -4 39 -15 39 -12 0 -15 -16 -15 -82z"/>
<path d="M102 2058 c-8 -22 -9 -35 -2 -42 14 -14 30 10 30 47 0 36 -13 34 -28
-5z"/>
</g>
</svg>
