<?xml version="1.0" standalone="no"?>
<!DOCTYPE svg PUBLIC "-//W3C//DTD SVG 20010904//EN"
 "http://www.w3.org/TR/2001/REC-SVG-20010904/DTD/svg10.dtd">
<svg version="1.0" xmlns="http://www.w3.org/2000/svg"
 width="50.000000pt" height="725.000000pt" viewBox="0 0 50.000000 725.000000"
 preserveAspectRatio="xMidYMid meet">
<metadata>
Created by potrace 1.16, written by Peter Selinger 2001-2019
</metadata>
<g transform="translate(0.000000,725.000000) scale(0.100000,-0.100000)"
fill="#000000" stroke="none">
<path d="M81 7014 c-10 -27 -10 -39 -2 -47 16 -16 31 8 31 51 0 42 -13 41 -29
-4z"/>
<path d="M127 6658 c3 -24 0 -89 -5 -146 -10 -101 -8 -132 8 -132 12 0 19 60
22 195 3 104 1 120 -13 123 -14 2 -16 -4 -12 -40z"/>
<path d="M81 6564 c-10 -27 -10 -39 -2 -47 16 -16 31 8 31 51 0 42 -13 41 -29
-4z"/>
<path d="M125 6158 c-1 -51 -4 -118 -8 -148 -6 -53 4 -93 20 -77 4 5 9 58 12
119 2 79 6 107 14 99 17 -17 27 -13 27 9 0 11 -6 20 -14 20 -9 0 -16 12 -18
32 -2 19 -9 34 -18 36 -12 2 -15 -13 -15 -90z"/>
<path d="M81 6114 c-10 -27 -10 -39 -2 -47 16 -16 31 8 31 51 0 42 -13 41 -29
-4z"/>
<path d="M260 5807 c0 -7 -14 -35 -32 -63 -23 -36 -33 -44 -36 -31 -2 9 -10
17 -17 17 -8 0 -15 13 -17 32 -2 19 -9 34 -18 36 -12 2 -15 -13 -15 -90 -1
-51 -4 -118 -8 -148 -6 -53 4 -93 20 -77 4 5 9 58 11 118 4 94 6 108 19 98 9
-9 11 -15 3 -23 -14 -14 -13 -26 4 -26 16 0 84 73 105 113 14 26 9 57 -9 57
-5 0 -10 -6 -10 -13z"/>
<path d="M81 5664 c-10 -27 -10 -39 -2 -47 16 -16 31 8 31 51 0 42 -13 41 -29
-4z"/>
<path d="M260 5357 c0 -7 -14 -35 -32 -63 -23 -36 -33 -44 -36 -31 -2 9 -10
17 -17 17 -8 0 -15 13 -17 32 -2 19 -9 34 -18 36 -12 2 -15 -13 -15 -90 -1
-51 -4 -118 -8 -148 -6 -53 4 -93 20 -77 4 5 9 58 11 118 4 94 6 108 19 98 9
-9 11 -15 3 -23 -14 -14 -13 -26 4 -26 15 0 96 86 96 101 0 20 18 6 53 -41 32
-43 42 -50 72 -50 40 0 46 16 11 30 -34 13 -106 79 -117 107 -9 25 -29 31 -29
10z"/>
<path d="M81 5214 c-10 -27 -10 -39 -2 -47 16 -16 31 8 31 51 0 42 -13 41 -29
-4z"/>
<path d="M260 4907 c0 -7 -14 -35 -32 -63 -23 -36 -33 -44 -36 -31 -2 9 -10
17 -17 17 -8 0 -15 13 -17 32 -2 19 -9 34 -18 36 -12 2 -15 -13 -15 -90 -1
-51 -4 -118 -8 -148 -6 -53 4 -93 20 -77 4 5 9 58 11 118 4 94 6 108 19 98 9
-9 11 -15 3 -23 -27 -27 2 -36 32 -9 13 11 32 16 59 14 30 -2 39 1 39 13 0 12
-7 14 -31 9 l-32 -6 19 31 c10 18 21 32 24 32 3 0 23 -22 43 -50 32 -43 42
-50 72 -50 40 0 46 16 11 30 -34 13 -106 79 -117 107 -9 25 -29 31 -29 10z"/>
<path d="M81 4764 c-10 -27 -10 -39 -2 -47 16 -16 31 8 31 51 0 42 -13 41 -29
-4z"/>
<path d="M260 4457 c0 -7 -14 -35 -32 -63 -23 -36 -33 -44 -36 -31 -2 9 -10
17 -17 17 -8 0 -15 13 -17 32 -2 19 -9 34 -18 36 -12 2 -15 -13 -15 -90 -1
-51 -4 -118 -8 -148 -6 -53 4 -93 20 -77 4 5 9 58 11 118 4 94 6 108 19 98 9
-9 11 -15 3 -23 -27 -27 2 -36 32 -9 13 11 32 16 59 14 30 -2 39 1 39 13 0 12
-7 14 -31 9 l-32 -6 19 31 c10 18 21 32 24 32 3 0 23 -22 43 -50 32 -43 42
-50 72 -50 40 0 46 16 11 30 -34 13 -106 79 -117 107 -9 25 -29 31 -29 10z"/>
<path d="M81 4314 c-10 -27 -10 -39 -2 -47 16 -16 31 8 31 51 0 42 -13 41 -29
-4z"/>
<path d="M188 4233 c-5 -73 -2 -86 12 -63 12 19 13 130 1 130 -5 0 -11 -30
-13 -67z"/>
<path d="M260 4007 c0 -7 -14 -35 -32 -63 -23 -36 -33 -44 -36 -31 -2 9 -10
17 -17 17 -8 0 -15 13 -17 32 -2 19 -9 34 -18 36 -12 2 -15 -13 -15 -90 -1
-51 -4 -118 -8 -148 -6 -53 4 -93 20 -77 4 5 9 58 11 118 4 94 6 108 19 98 9
-9 11 -15 3 -23 -27 -27 2 -36 32 -9 13 11 32 16 59 14 30 -2 39 1 39 13 0 12
-7 14 -31 9 l-32 -6 19 31 c10 18 21 32 24 32 3 0 23 -22 43 -50 32 -43 42
-50 72 -50 40 0 46 16 11 30 -34 13 -106 79 -117 107 -9 25 -29 31 -29 10z"/>
<path d="M81 3864 c-10 -27 -10 -39 -2 -47 16 -16 31 8 31 51 0 42 -13 41 -29
-4z"/>
<path d="M188 3783 c-3 -38 -3 -70 -1 -73 10 -11 23 29 23 73 0 40 3 47 20 47
17 0 20 -7 20 -44 0 -28 -6 -51 -16 -61 -16 -15 -16 -18 0 -33 25 -26 36 -1
36 86 l0 72 -39 0 -39 0 -4 -67z"/>
<path d="M260 3557 c0 -7 -14 -35 -32 -63 -23 -36 -33 -44 -36 -31 -2 9 -10
17 -17 17 -8 0 -15 13 -17 32 -2 19 -9 34 -18 36 -12 2 -15 -13 -15 -90 -1
-51 -4 -118 -8 -148 -6 -53 4 -93 20 -77 4 5 9 58 11 118 4 94 6 108 19 98 9
-9 11 -15 3 -23 -27 -27 2 -36 32 -9 13 11 32 16 59 14 30 -2 39 1 39 13 0 12
-7 14 -31 9 l-32 -6 19 31 c10 18 21 32 24 32 3 0 23 -22 43 -50 32 -43 42
-50 72 -50 40 0 46 16 11 30 -34 13 -106 79 -117 107 -9 25 -29 31 -29 10z"/>
<path d="M81 3414 c-10 -27 -10 -39 -2 -47 16 -16 31 8 31 51 0 42 -13 41 -29
-4z"/>
<path d="M188 3333 c-3 -38 -3 -70 -1 -73 8 -9 23 25 23 53 0 20 5 27 20 27
25 0 27 -41 4 -65 -16 -15 -16 -18 0 -33 25 -26 36 -1 36 86 l0 72 -39 0 -39
0 -4 -67z m62 37 c0 -5 -9 -10 -20 -10 -11 0 -20 5 -20 10 0 6 9 10 20 10 11
0 20 -4 20 -10z"/>
<path d="M260 3107 c0 -7 -14 -35 -32 -63 -23 -36 -33 -44 -36 -31 -2 9 -10
17 -17 17 -8 0 -15 13 -17 32 -2 19 -9 34 -18 36 -12 2 -15 -13 -15 -90 -1
-51 -4 -118 -8 -148 -6 -53 4 -93 20 -77 4 5 9 58 11 118 4 94 6 108 19 98 9
-9 11 -15 3 -23 -27 -27 2 -36 32 -9 13 11 32 16 59 14 30 -2 39 1 39 13 0 12
-7 14 -31 9 l-32 -6 19 31 c10 18 21 32 24 32 3 0 23 -22 43 -50 32 -43 42
-50 72 -50 40 0 46 16 11 30 -34 13 -106 79 -117 107 -9 25 -29 31 -29 10z"/>
<path d="M81 2964 c-10 -27 -10 -39 -2 -47 16 -16 31 8 31 51 0 42 -13 41 -29
-4z"/>
<path d="M188 2883 c-5 -65 -1 -93 9 -65 6 17 32 42 44 42 14 0 11 -17 -7 -35
-16 -15 -16 -18 0 -33 25 -26 36 -1 36 86 l0 72 -39 0 -39 0 -4 -67z m62 37
c0 -5 -9 -10 -20 -10 -11 0 -20 5 -20 10 0 6 9 10 20 10 11 0 20 -4 20 -10z
m-10 -40 c-19 -13 -30 -13 -30 0 0 6 10 10 23 10 18 0 19 -2 7 -10z"/>
<path d="M260 2657 c0 -7 -14 -35 -32 -63 -23 -36 -33 -44 -36 -31 -2 9 -10
17 -17 17 -8 0 -15 13 -17 32 -2 19 -9 34 -18 36 -12 2 -15 -13 -15 -90 -1
-51 -4 -118 -8 -148 -6 -53 4 -93 20 -77 4 5 9 58 11 118 4 94 6 108 19 98 9
-9 11 -15 3 -23 -27 -27 2 -36 32 -9 13 11 32 16 59 14 30 -2 39 1 39 13 0 12
-7 14 -31 9 l-32 -6 19 31 c10 18 21 32 24 32 3 0 23 -22 43 -50 32 -43 42
-50 72 -50 40 0 46 16 11 30 -34 13 -106 79 -117 107 -9 25 -29 31 -29 10z"/>
<path d="M81 2514 c-10 -27 -10 -39 -2 -47 16 -16 31 8 31 51 0 42 -13 41 -29
-4z"/>
<path d="M188 2433 c-5 -65 -1 -93 9 -65 6 17 32 42 44 42 14 0 11 -17 -7 -35
-16 -15 -16 -18 0 -33 25 -26 36 -1 36 86 l0 72 -39 0 -39 0 -4 -67z m62 37
c0 -5 -9 -10 -20 -10 -11 0 -20 5 -20 10 0 6 9 10 20 10 11 0 20 -4 20 -10z
m-10 -40 c-19 -13 -30 -13 -30 0 0 6 10 10 23 10 18 0 19 -2 7 -10z"/>
<path d="M290 2445 c0 -25 5 -45 10 -45 6 0 10 20 10 45 0 25 -4 45 -10 45 -5
0 -10 -20 -10 -45z"/>
<path d="M260 2207 c0 -7 -14 -35 -32 -63 -23 -36 -33 -44 -36 -31 -2 9 -10
17 -17 17 -8 0 -15 13 -17 32 -2 19 -9 34 -18 36 -12 2 -15 -13 -15 -90 -1
-51 -4 -118 -8 -148 -6 -53 4 -93 20 -77 4 5 9 58 11 118 4 94 6 108 19 98 9
-9 11 -15 3 -23 -27 -27 2 -36 32 -9 13 11 32 16 59 14 30 -2 39 1 39 13 0 12
-7 14 -31 9 l-32 -6 19 31 c10 18 21 32 24 32 3 0 23 -22 43 -50 32 -43 42
-50 72 -50 40 0 46 16 11 30 -34 13 -106 79 -117 107 -9 25 -29 31 -29 10z"/>
<path d="M81 2064 c-10 -27 -10 -39 -2 -47 16 -16 31 8 31 51 0 42 -13 41 -29
-4z"/>
<path d="M330 1985 c0 -62 -2 -73 -15 -69 -18 7 -19 0 -5 -27 13 -23 36 -25
44 -3 3 9 6 51 6 95 0 64 -3 79 -15 79 -12 0 -15 -15 -15 -75z"/>
<path d="M188 1983 c-5 -65 -1 -93 9 -65 6 17 32 42 44 42 14 0 11 -17 -7 -35
-16 -15 -16 -18 0 -33 25 -26 36 -1 36 86 l0 72 -39 0 -39 0 -4 -67z m62 37
c0 -5 -9 -10 -20 -10 -11 0 -20 5 -20 10 0 6 9 10 20 10 11 0 20 -4 20 -10z
m-10 -40 c-19 -13 -30 -13 -30 0 0 6 10 10 23 10 18 0 19 -2 7 -10z"/>
<path d="M290 1995 c0 -25 5 -45 10 -45 6 0 10 20 10 45 0 25 -4 45 -10 45 -5
0 -10 -20 -10 -45z"/>
</g>
</svg>
