<?xml version="1.0" standalone="no"?>
<!DOCTYPE svg PUBLIC "-//W3C//DTD SVG 20010904//EN"
 "http://www.w3.org/TR/2001/REC-SVG-20010904/DTD/svg10.dtd">
<svg version="1.0" xmlns="http://www.w3.org/2000/svg"
 width="50.000000pt" height="725.000000pt" viewBox="0 0 50.000000 725.000000"
 preserveAspectRatio="xMidYMid meet">
<metadata>
Created by potrace 1.16, written by Peter Selinger 2001-2019
</metadata>
<g transform="translate(0.000000,725.000000) scale(0.100000,-0.100000)"
fill="#000000" stroke="none">
<path d="M132 7128 c6 -16 36 -34 44 -26 3 4 4 14 1 23 -7 17 -51 21 -45 3z"/>
<path d="M211 6688 c-6 -17 -9 -33 -6 -36 9 -9 45 31 45 50 0 30 -27 21 -39
-14z"/>
<path d="M132 6678 c6 -16 36 -34 44 -26 3 4 4 14 1 23 -7 17 -51 21 -45 3z"/>
<path d="M207 6230 c-12 -32 -20 -40 -41 -40 -14 0 -26 -4 -26 -10 0 -11 52
-13 88 -4 12 4 22 13 22 21 0 10 -6 13 -17 9 -16 -6 -16 -6 0 12 20 22 22 52
4 52 -8 0 -21 -18 -30 -40z"/>
<path d="M132 6228 c6 -16 36 -34 44 -26 3 4 4 14 1 23 -7 17 -51 21 -45 3z"/>
<path d="M207 5780 c-12 -32 -20 -40 -41 -40 -14 0 -26 -4 -26 -10 0 -11 52
-13 88 -4 12 4 22 13 22 21 0 10 -6 13 -17 9 -16 -6 -16 -6 0 12 20 22 22 52
4 52 -8 0 -21 -18 -30 -40z"/>
<path d="M132 5778 c6 -16 36 -34 44 -26 3 4 4 14 1 23 -7 17 -51 21 -45 3z"/>
<path d="M117 5678 c-3 -18 -2 -36 2 -40 9 -10 111 14 111 26 0 4 -19 5 -43 2
-40 -6 -44 -5 -43 15 2 36 -21 33 -27 -3z"/>
<path d="M207 5330 c-12 -32 -20 -40 -41 -40 -14 0 -26 -4 -26 -10 0 -11 52
-13 88 -4 12 4 22 13 22 21 0 10 -6 13 -17 9 -16 -6 -16 -6 0 12 20 22 22 52
4 52 -8 0 -21 -18 -30 -40z"/>
<path d="M132 5328 c6 -16 36 -34 44 -26 3 4 4 14 1 23 -7 17 -51 21 -45 3z"/>
<path d="M230 5245 c0 -15 -6 -25 -14 -25 -7 0 -27 -3 -43 -6 -26 -5 -30 -3
-29 17 2 36 -21 33 -27 -3 -7 -44 4 -53 48 -38 20 6 47 9 59 6 20 -5 24 -1 30
25 3 17 3 35 0 40 -10 18 -24 9 -24 -16z"/>
<path d="M207 4880 c-12 -32 -20 -40 -41 -40 -31 0 -34 -15 -5 -23 15 -4 20
-12 17 -29 -4 -30 -35 -37 -34 -7 1 32 -24 37 -25 5 -1 -14 -2 -32 -3 -38 -1
-7 9 -13 22 -12 25 1 28 -6 10 -24 -6 -6 -8 -15 -4 -19 4 -5 21 7 36 25 21 25
33 32 48 28 16 -5 21 -1 26 25 3 17 3 35 0 40 -10 18 -24 9 -24 -16 0 -16 -6
-25 -15 -25 -8 0 -15 5 -15 11 0 20 21 49 35 49 8 0 15 7 15 16 0 11 -5 14
-17 10 -16 -6 -16 -6 0 12 20 22 22 52 4 52 -8 0 -21 -18 -30 -40z"/>
<path d="M132 4878 c6 -16 36 -34 44 -26 3 4 4 14 1 23 -7 17 -51 21 -45 3z"/>
<path d="M207 4430 c-12 -32 -20 -40 -41 -40 -31 0 -34 -15 -5 -23 15 -4 20
-12 17 -29 -4 -30 -35 -37 -34 -7 1 32 -24 37 -25 5 -1 -14 -2 -32 -3 -38 -1
-7 9 -13 22 -12 25 1 28 -6 10 -24 -6 -6 -8 -15 -4 -19 4 -5 21 7 36 25 21 25
33 32 48 28 16 -5 21 -1 26 25 3 17 3 35 0 40 -10 18 -24 9 -24 -16 0 -16 -6
-25 -15 -25 -8 0 -15 5 -15 11 0 20 21 49 35 49 8 0 15 7 15 16 0 11 -5 14
-17 10 -16 -6 -16 -6 0 12 20 22 22 52 4 52 -8 0 -21 -18 -30 -40z"/>
<path d="M132 4428 c6 -16 36 -34 44 -26 3 4 4 14 1 23 -7 17 -51 21 -45 3z"/>
<path d="M265 4353 c0 -38 -4 -76 -9 -85 -5 -12 -4 -18 3 -18 35 0 55 161 21
168 -12 2 -15 -10 -15 -65z"/>
<path d="M207 3980 c-12 -32 -20 -40 -41 -40 -31 0 -34 -15 -5 -23 15 -4 20
-12 17 -29 -4 -30 -35 -37 -34 -7 1 32 -24 37 -25 5 -1 -14 -2 -32 -3 -38 -1
-7 9 -13 22 -12 25 1 28 -6 10 -24 -6 -6 -8 -15 -4 -19 4 -5 21 7 36 25 21 25
33 32 48 28 16 -5 21 -1 26 25 3 17 3 35 0 40 -10 18 -24 9 -24 -16 0 -16 -6
-25 -15 -25 -8 0 -15 5 -15 11 0 20 21 49 35 49 8 0 15 7 15 16 0 11 -5 14
-17 10 -16 -6 -16 -6 0 12 20 22 22 52 4 52 -8 0 -21 -18 -30 -40z"/>
<path d="M132 3978 c6 -16 36 -34 44 -26 3 4 4 14 1 23 -7 17 -51 21 -45 3z"/>
<path d="M327 3974 c-4 -4 -19 -7 -34 -6 -28 1 -28 0 -28 -66 0 -37 -4 -75 -9
-84 -5 -12 -4 -18 3 -18 18 0 41 63 41 110 0 36 2 40 25 40 25 0 26 -1 23 -62
-3 -54 -6 -63 -20 -60 -24 4 -23 -11 2 -33 12 -11 24 -15 29 -9 5 5 11 50 13
99 3 84 2 90 -17 93 -12 2 -24 0 -28 -4z"/>
<path d="M207 3530 c-12 -32 -20 -40 -41 -40 -31 0 -34 -15 -5 -23 15 -4 20
-12 17 -29 -4 -30 -35 -37 -34 -7 1 32 -24 37 -25 5 -1 -14 -2 -32 -3 -38 -1
-7 9 -13 22 -12 25 1 28 -6 10 -24 -6 -6 -8 -15 -4 -19 4 -5 21 7 36 25 21 25
33 32 48 28 16 -5 21 -1 26 25 3 17 3 35 0 40 -10 18 -24 9 -24 -16 0 -16 -6
-25 -15 -25 -8 0 -15 5 -15 11 0 20 21 49 35 49 8 0 15 7 15 16 0 11 -5 14
-17 10 -16 -6 -16 -6 0 12 20 22 22 52 4 52 -8 0 -21 -18 -30 -40z"/>
<path d="M132 3528 c6 -16 36 -34 44 -26 3 4 4 14 1 23 -7 17 -51 21 -45 3z"/>
<path d="M327 3524 c-4 -4 -19 -7 -34 -6 -28 1 -28 0 -28 -66 0 -37 -4 -75 -9
-86 -7 -14 -6 -18 5 -14 8 2 21 25 29 50 11 35 21 48 38 51 21 4 23 1 20 -37
-2 -33 -7 -40 -20 -38 -24 4 -23 -11 2 -33 12 -11 24 -15 29 -9 5 5 11 50 13
99 3 84 2 90 -17 93 -12 2 -24 0 -28 -4z m23 -33 c0 -9 -24 -21 -41 -21 -5 0
-9 7 -9 15 0 9 9 15 25 15 14 0 25 -4 25 -9z"/>
<path d="M207 3080 c-12 -32 -20 -40 -41 -40 -31 0 -34 -15 -5 -23 15 -4 20
-12 17 -29 -4 -30 -35 -37 -34 -7 1 32 -24 37 -25 5 -1 -14 -2 -32 -3 -38 -1
-7 9 -13 22 -12 25 1 28 -6 10 -24 -6 -6 -8 -15 -4 -19 4 -5 21 7 36 25 21 25
33 32 48 28 16 -5 21 -1 26 25 3 17 3 35 0 40 -10 18 -24 9 -24 -16 0 -16 -6
-25 -15 -25 -8 0 -15 5 -15 11 0 20 21 49 35 49 8 0 15 7 15 16 0 11 -5 14
-17 10 -16 -6 -16 -6 0 12 20 22 22 52 4 52 -8 0 -21 -18 -30 -40z"/>
<path d="M132 3078 c6 -16 36 -34 44 -26 3 4 4 14 1 23 -7 17 -51 21 -45 3z"/>
<path d="M327 3074 c-4 -4 -19 -7 -34 -6 -28 1 -28 0 -28 -66 0 -37 -4 -75 -9
-84 -5 -12 -4 -18 4 -18 6 0 17 14 23 30 6 17 17 30 23 30 7 0 20 3 29 6 13 5
16 2 13 -17 -2 -16 -9 -23 -20 -21 -24 4 -23 -11 2 -33 12 -11 24 -15 29 -9 5
5 11 50 13 99 3 84 2 90 -17 93 -12 2 -24 0 -28 -4z m23 -33 c0 -9 -24 -21
-41 -21 -5 0 -9 7 -9 15 0 9 9 15 25 15 14 0 25 -4 25 -9z m-1 -45 c-12 -10
-49 -16 -49 -7 0 5 10 11 23 13 22 4 34 1 26 -6z"/>
<path d="M207 2630 c-12 -32 -20 -40 -41 -40 -31 0 -34 -15 -5 -23 15 -4 20
-12 17 -29 -4 -30 -35 -37 -34 -7 1 32 -24 37 -25 5 -1 -14 -2 -32 -3 -38 -1
-7 9 -13 22 -12 25 1 28 -6 10 -24 -6 -6 -8 -15 -4 -19 4 -5 21 7 36 25 21 25
33 32 48 28 16 -5 21 -1 26 25 3 17 3 35 0 40 -10 18 -24 9 -24 -16 0 -16 -6
-25 -15 -25 -8 0 -15 5 -15 11 0 20 21 49 35 49 8 0 15 7 15 16 0 11 -5 14
-17 10 -16 -6 -16 -6 0 12 20 22 22 52 4 52 -8 0 -21 -18 -30 -40z"/>
<path d="M132 2628 c6 -16 36 -34 44 -26 3 4 4 14 1 23 -7 17 -51 21 -45 3z"/>
<path d="M327 2624 c-4 -4 -19 -7 -34 -6 -28 1 -28 0 -28 -66 0 -37 -4 -75 -9
-84 -5 -12 -4 -18 4 -18 6 0 17 14 23 30 6 17 17 30 23 30 7 0 20 3 29 6 13 5
16 2 13 -17 -2 -16 -9 -23 -20 -21 -24 4 -23 -11 2 -33 12 -11 24 -15 29 -9 5
5 11 50 13 99 3 84 2 90 -17 93 -12 2 -24 0 -28 -4z m23 -33 c0 -9 -24 -21
-41 -21 -5 0 -9 7 -9 15 0 9 9 15 25 15 14 0 25 -4 25 -9z m-1 -45 c-12 -10
-49 -16 -49 -7 0 5 10 11 23 13 22 4 34 1 26 -6z"/>
<path d="M122 2405 c-16 -35 -15 -55 2 -55 16 0 26 21 26 56 0 31 -14 31 -28
-1z"/>
<path d="M207 2180 c-12 -32 -20 -40 -41 -40 -31 0 -34 -15 -5 -23 15 -4 20
-12 17 -29 -4 -30 -35 -37 -34 -7 1 32 -24 37 -25 5 -1 -14 -2 -32 -3 -38 -1
-7 9 -13 22 -12 25 1 28 -6 10 -24 -6 -6 -8 -15 -4 -19 4 -5 21 7 36 25 21 25
33 32 48 28 16 -5 21 -1 26 25 3 17 3 35 0 40 -10 18 -24 9 -24 -16 0 -16 -6
-25 -15 -25 -8 0 -15 5 -15 11 0 20 21 49 35 49 8 0 15 7 15 16 0 11 -5 14
-17 10 -16 -6 -16 -6 0 12 20 22 22 52 4 52 -8 0 -21 -18 -30 -40z"/>
<path d="M132 2178 c6 -16 36 -34 44 -26 3 4 4 14 1 23 -7 17 -51 21 -45 3z"/>
<path d="M327 2174 c-4 -4 -19 -7 -34 -6 -28 1 -28 0 -28 -66 0 -37 -4 -75 -9
-84 -5 -12 -4 -18 4 -18 6 0 17 14 23 30 6 17 17 30 23 30 7 0 20 3 29 6 13 5
16 2 13 -17 -2 -16 -9 -23 -20 -21 -24 4 -23 -11 2 -33 12 -11 24 -15 29 -9 5
5 11 50 13 99 3 84 2 90 -17 93 -12 2 -24 0 -28 -4z m23 -33 c0 -9 -24 -21
-41 -21 -5 0 -9 7 -9 15 0 9 9 15 25 15 14 0 25 -4 25 -9z m-1 -45 c-12 -10
-49 -16 -49 -7 0 5 10 11 23 13 22 4 34 1 26 -6z"/>
<path d="M175 1958 c4 -18 20 -45 36 -60 24 -23 39 -28 78 -28 84 0 101 17 58
58 -30 28 -37 28 -34 0 1 -17 -4 -24 -21 -26 -40 -6 -80 17 -94 54 -15 43 -32
44 -23 2z"/>
<path d="M122 1955 c-16 -35 -15 -55 2 -55 16 0 26 21 26 56 0 31 -14 31 -28
-1z"/>
<path d="M207 1730 c-12 -32 -20 -40 -41 -40 -31 0 -34 -15 -5 -23 15 -4 20
-12 17 -29 -4 -30 -35 -37 -34 -7 1 32 -24 37 -25 5 -1 -14 -2 -32 -3 -38 -1
-7 9 -13 22 -12 25 1 28 -6 10 -24 -6 -6 -8 -15 -4 -19 4 -5 21 7 36 25 21 25
33 32 48 28 16 -5 21 -1 26 25 3 17 3 35 0 40 -10 18 -24 9 -24 -16 0 -16 -6
-25 -15 -25 -8 0 -15 5 -15 11 0 20 21 49 35 49 8 0 15 7 15 16 0 11 -5 14
-17 10 -16 -6 -16 -6 0 12 20 22 22 52 4 52 -8 0 -21 -18 -30 -40z"/>
<path d="M132 1728 c6 -16 36 -34 44 -26 3 4 4 14 1 23 -7 17 -51 21 -45 3z"/>
<path d="M327 1724 c-4 -4 -19 -7 -34 -6 -28 1 -28 0 -28 -66 0 -37 -4 -75 -9
-84 -5 -12 -4 -18 4 -18 6 0 17 14 23 30 6 17 17 30 23 30 7 0 20 3 29 6 13 5
16 2 13 -17 -2 -16 -9 -23 -20 -21 -24 4 -23 -11 2 -33 12 -11 24 -15 29 -9 5
5 11 50 13 99 3 84 2 90 -17 93 -12 2 -24 0 -28 -4z m23 -33 c0 -9 -24 -21
-41 -21 -5 0 -9 7 -9 15 0 9 9 15 25 15 14 0 25 -4 25 -9z m-1 -45 c-12 -10
-49 -16 -49 -7 0 5 10 11 23 13 22 4 34 1 26 -6z"/>
<path d="M175 1508 c4 -18 20 -45 36 -60 24 -23 39 -28 78 -28 84 0 101 17 58
58 -30 28 -37 28 -34 0 1 -17 -4 -24 -21 -26 -40 -6 -80 17 -94 54 -15 43 -32
44 -23 2z"/>
<path d="M230 1527 c0 -17 20 -37 37 -37 19 0 16 37 -3 44 -24 9 -34 7 -34 -7z"/>
<path d="M122 1505 c-16 -35 -15 -55 2 -55 16 0 26 21 26 56 0 31 -14 31 -28
-1z"/>
<path d="M207 1280 c-12 -32 -20 -40 -41 -40 -31 0 -34 -15 -5 -23 15 -4 20
-12 17 -29 -4 -30 -35 -37 -34 -7 1 32 -24 37 -25 5 -1 -14 -2 -32 -3 -38 -1
-7 9 -13 22 -12 25 1 28 -6 10 -24 -6 -6 -8 -15 -4 -19 4 -5 21 7 36 25 21 25
33 32 48 28 16 -5 21 -1 26 25 3 17 3 35 0 40 -10 18 -24 9 -24 -16 0 -16 -6
-25 -15 -25 -8 0 -15 5 -15 11 0 20 21 49 35 49 8 0 15 7 15 16 0 11 -5 14
-17 10 -16 -6 -16 -6 0 12 20 22 22 52 4 52 -8 0 -21 -18 -30 -40z"/>
<path d="M132 1278 c6 -16 36 -34 44 -26 3 4 4 14 1 23 -7 17 -51 21 -45 3z"/>
<path d="M327 1273 c-4 -3 -19 -6 -34 -5 -28 1 -28 0 -28 -66 0 -37 -4 -75 -9
-84 -5 -12 -4 -18 4 -18 6 0 17 14 23 30 6 17 17 30 23 30 7 0 20 3 29 6 13 5
16 2 13 -17 -2 -16 -9 -23 -20 -21 -22 4 -23 -11 -3 -28 8 -7 15 -18 15 -24 1
-15 36 -56 49 -56 18 0 12 38 -7 49 -16 8 -17 19 -11 103 4 51 5 96 2 101 -5
9 -37 9 -46 0z m23 -32 c0 -9 -24 -21 -41 -21 -5 0 -9 7 -9 15 0 9 9 15 25 15
14 0 25 -4 25 -9z m-1 -45 c-12 -10 -49 -16 -49 -7 0 5 10 11 23 13 22 4 34 1
26 -6z"/>
<path d="M175 1058 c4 -18 20 -45 36 -60 24 -23 39 -28 78 -28 84 0 101 17 58
58 -30 28 -37 28 -34 0 1 -17 -4 -24 -21 -26 -40 -6 -80 17 -94 54 -15 43 -32
44 -23 2z"/>
<path d="M230 1077 c0 -17 20 -37 37 -37 19 0 16 37 -3 44 -24 9 -34 7 -34 -7z"/>
<path d="M122 1055 c-16 -35 -15 -55 2 -55 16 0 26 21 26 56 0 31 -14 31 -28
-1z"/>
</g>
</svg>
