<?xml version="1.0" standalone="no"?>
<!DOCTYPE svg PUBLIC "-//W3C//DTD SVG 20010904//EN"
 "http://www.w3.org/TR/2001/REC-SVG-20010904/DTD/svg10.dtd">
<svg version="1.0" xmlns="http://www.w3.org/2000/svg"
 width="50.000000pt" height="725.000000pt" viewBox="0 0 50.000000 725.000000"
 preserveAspectRatio="xMidYMid meet">
<metadata>
Created by potrace 1.16, written by Peter Selinger 2001-2019
</metadata>
<g transform="translate(0.000000,725.000000) scale(0.100000,-0.100000)"
fill="#000000" stroke="none">
<path d="M170 7110 c0 -5 16 -10 35 -10 19 0 35 5 35 10 0 6 -16 10 -35 10
-19 0 -35 -4 -35 -10z"/>
<path d="M170 6660 c0 -5 16 -10 35 -10 19 0 35 5 35 10 0 6 -16 10 -35 10
-19 0 -35 -4 -35 -10z"/>
<path d="M168 6633 c-16 -2 -28 -9 -28 -15 0 -7 14 -8 38 -4 20 3 43 6 50 6 6
0 12 5 12 10 0 10 -20 11 -72 3z"/>
<path d="M170 6210 c0 -5 16 -10 35 -10 19 0 35 5 35 10 0 6 -16 10 -35 10
-19 0 -35 -4 -35 -10z"/>
<path d="M168 6183 c-16 -2 -28 -9 -28 -15 0 -7 14 -8 38 -4 20 3 43 6 50 6 6
0 12 5 12 10 0 10 -20 11 -72 3z"/>
<path d="M160 6140 c0 -5 11 -10 25 -10 14 0 25 5 25 10 0 6 -11 10 -25 10
-14 0 -25 -4 -25 -10z"/>
<path d="M110 6130 c0 -5 9 -10 20 -10 11 0 20 5 20 10 0 6 -9 10 -20 10 -11
0 -20 -4 -20 -10z"/>
<path d="M178 5788 c0 -13 -1 -31 0 -40 1 -12 -5 -18 -18 -18 -11 0 -20 -4
-20 -10 0 -5 10 -10 23 -10 18 0 19 -2 7 -11 -11 -8 -12 -12 -2 -16 6 -2 12
-11 12 -19 0 -29 19 -13 26 21 3 20 12 35 20 35 20 0 17 18 -3 23 -17 4 -17 5
0 6 20 1 23 21 3 21 -7 0 -16 9 -19 20 -7 27 -27 25 -29 -2z"/>
<path d="M110 5680 c0 -5 9 -10 20 -10 11 0 20 5 20 10 0 6 -9 10 -20 10 -11
0 -20 -4 -20 -10z"/>
<path d="M178 5338 c0 -13 -1 -31 0 -40 1 -12 -5 -18 -18 -18 -11 0 -20 -4
-20 -10 0 -5 10 -10 23 -10 18 0 19 -2 7 -11 -11 -8 -12 -12 -2 -16 6 -2 12
-11 12 -19 0 -29 19 -13 26 21 3 20 12 35 20 35 20 0 17 18 -3 23 -17 4 -17 5
0 6 20 1 23 21 3 21 -7 0 -16 9 -19 20 -7 27 -27 25 -29 -2z"/>
<path d="M290 5320 c0 -5 14 -10 30 -10 17 0 30 5 30 10 0 6 -13 10 -30 10
-16 0 -30 -4 -30 -10z"/>
<path d="M110 5230 c0 -5 9 -10 20 -10 11 0 20 5 20 10 0 6 -9 10 -20 10 -11
0 -20 -4 -20 -10z"/>
<path d="M178 4888 c0 -13 -1 -31 0 -40 1 -12 -5 -18 -18 -18 -11 0 -20 -4
-20 -10 0 -5 10 -10 23 -10 18 0 19 -2 7 -11 -11 -8 -12 -12 -2 -16 6 -2 12
-11 12 -19 0 -29 19 -13 26 21 3 20 12 35 20 35 20 0 17 18 -3 23 -17 4 -17 5
0 6 20 1 23 21 3 21 -7 0 -16 9 -19 20 -7 27 -27 25 -29 -2z"/>
<path d="M290 4870 c0 -5 14 -10 30 -10 17 0 30 5 30 10 0 6 -13 10 -30 10
-16 0 -30 -4 -30 -10z"/>
<path d="M283 4843 c-13 -2 -23 -9 -23 -15 0 -6 12 -8 31 -4 17 3 38 6 45 6 8
0 14 5 14 10 0 10 -25 11 -67 3z"/>
<path d="M110 4780 c0 -5 9 -10 20 -10 11 0 20 5 20 10 0 6 -9 10 -20 10 -11
0 -20 -4 -20 -10z"/>
<path d="M178 4438 c0 -13 -1 -31 0 -40 1 -12 -5 -18 -18 -18 -11 0 -20 -4
-20 -10 0 -5 10 -10 23 -10 18 0 19 -2 7 -11 -11 -8 -12 -12 -2 -16 6 -2 12
-11 12 -19 0 -29 19 -13 26 21 3 20 12 35 20 35 20 0 17 18 -3 23 -17 4 -17 5
0 6 20 1 23 21 3 21 -7 0 -16 9 -19 20 -7 27 -27 25 -29 -2z"/>
<path d="M290 4420 c0 -5 14 -10 30 -10 17 0 30 5 30 10 0 6 -13 10 -30 10
-16 0 -30 -4 -30 -10z"/>
<path d="M283 4393 c-13 -2 -23 -9 -23 -15 0 -6 12 -8 31 -4 17 3 38 6 45 6 8
0 14 5 14 10 0 10 -25 11 -67 3z"/>
<path d="M330 4360 c0 -5 11 -10 25 -10 14 0 25 5 25 10 0 6 -11 10 -25 10
-14 0 -25 -4 -25 -10z"/>
<path d="M270 4350 c0 -5 11 -10 25 -10 14 0 25 5 25 10 0 6 -11 10 -25 10
-14 0 -25 -4 -25 -10z"/>
<path d="M110 4330 c0 -5 9 -10 20 -10 11 0 20 5 20 10 0 6 -9 10 -20 10 -11
0 -20 -4 -20 -10z"/>
<path d="M290 3980 c0 -29 -4 -40 -15 -40 -8 0 -15 -4 -15 -10 0 -5 8 -10 18
-10 14 0 15 -2 2 -10 -13 -9 -13 -11 0 -20 21 -14 34 -7 38 18 2 12 10 22 18
22 20 0 17 18 -3 23 -17 4 -17 5 0 6 21 1 23 21 2 21 -8 0 -15 9 -15 20 0 11
-7 20 -15 20 -11 0 -15 -11 -15 -40z"/>
<path d="M178 3988 c0 -13 -1 -31 0 -40 1 -12 -5 -18 -18 -18 -11 0 -20 -4
-20 -10 0 -5 10 -10 23 -10 18 0 19 -2 7 -11 -11 -8 -12 -12 -2 -16 6 -2 12
-11 12 -19 0 -29 19 -13 26 21 3 20 12 35 20 35 20 0 17 18 -3 23 -17 4 -17 5
0 6 20 1 23 21 3 21 -7 0 -16 9 -19 20 -7 27 -27 25 -29 -2z"/>
<path d="M330 3910 c0 -5 11 -10 25 -10 14 0 25 5 25 10 0 6 -11 10 -25 10
-14 0 -25 -4 -25 -10z"/>
<path d="M110 3880 c0 -5 9 -10 20 -10 11 0 20 5 20 10 0 6 -9 10 -20 10 -11
0 -20 -4 -20 -10z"/>
<path d="M290 3530 c0 -29 -4 -40 -15 -40 -8 0 -15 -4 -15 -10 0 -5 8 -10 18
-10 15 0 15 -2 2 -11 -11 -8 -12 -12 -2 -16 21 -8 13 -23 -13 -23 -14 0 -25
-4 -25 -10 0 -5 14 -10 31 -10 29 0 30 -2 24 -30 -10 -44 18 -39 34 6 11 32
11 38 -1 45 -19 10 -12 59 8 59 20 0 17 18 -3 23 -17 4 -17 5 0 6 21 1 23 21
2 21 -8 0 -15 9 -15 20 0 11 -7 20 -15 20 -11 0 -15 -11 -15 -40z"/>
<path d="M178 3538 c0 -13 -1 -31 0 -40 1 -12 -5 -18 -18 -18 -11 0 -20 -4
-20 -10 0 -5 10 -10 23 -10 18 0 19 -2 7 -11 -11 -8 -12 -12 -2 -16 17 -7 15
-23 -3 -23 -8 0 -15 -4 -15 -10 0 -5 16 -10 35 -10 32 0 48 14 26 22 -14 5 0
58 15 58 20 0 17 18 -3 23 -17 4 -17 5 0 6 20 1 23 21 3 21 -7 0 -16 9 -19 20
-7 27 -27 25 -29 -2z"/>
<path d="M330 3460 c0 -5 11 -10 25 -10 14 0 25 5 25 10 0 6 -11 10 -25 10
-14 0 -25 -4 -25 -10z"/>
<path d="M110 3430 c0 -5 9 -10 20 -10 11 0 20 5 20 10 0 6 -9 10 -20 10 -11
0 -20 -4 -20 -10z"/>
<path d="M290 3080 c0 -29 -4 -40 -15 -40 -8 0 -15 -4 -15 -10 0 -5 8 -10 18
-10 15 0 15 -2 2 -11 -11 -8 -12 -12 -2 -16 21 -8 13 -23 -13 -23 -14 0 -25
-4 -25 -10 0 -5 14 -10 31 -10 17 0 28 -4 24 -10 -3 -5 -28 -10 -56 -10 -27 0
-49 -4 -49 -10 0 -5 23 -10 50 -10 28 0 50 -4 50 -10 0 -16 27 -12 34 5 3 9
18 15 36 15 16 0 30 5 30 10 0 6 -11 10 -25 10 -15 0 -25 6 -25 14 0 8 -6 16
-14 19 -18 7 -9 57 10 57 20 0 17 18 -3 23 -17 4 -17 5 0 6 21 1 23 21 2 21
-8 0 -15 9 -15 20 0 11 -7 20 -15 20 -11 0 -15 -11 -15 -40z"/>
<path d="M178 3088 c0 -13 -1 -31 0 -40 1 -12 -5 -18 -18 -18 -11 0 -20 -4
-20 -10 0 -5 10 -10 23 -10 18 0 19 -2 7 -11 -11 -8 -12 -12 -2 -16 17 -7 15
-23 -3 -23 -8 0 -15 -4 -15 -10 0 -5 16 -10 35 -10 32 0 48 14 26 22 -14 5 0
58 15 58 20 0 17 18 -3 23 -17 4 -17 5 0 6 20 1 23 21 3 21 -7 0 -16 9 -19 20
-7 27 -27 25 -29 -2z"/>
<path d="M330 3010 c0 -5 11 -10 25 -10 14 0 25 5 25 10 0 6 -11 10 -25 10
-14 0 -25 -4 -25 -10z"/>
<path d="M110 2980 c0 -5 9 -10 20 -10 11 0 20 5 20 10 0 6 -9 10 -20 10 -11
0 -20 -4 -20 -10z"/>
<path d="M110 2910 c0 -5 16 -10 35 -10 19 0 35 5 35 10 0 6 -16 10 -35 10
-19 0 -35 -4 -35 -10z"/>
<path d="M290 2630 c0 -29 -4 -40 -15 -40 -8 0 -15 -4 -15 -10 0 -5 8 -10 18
-10 15 0 15 -2 2 -11 -11 -8 -12 -12 -2 -16 21 -8 13 -23 -13 -23 -14 0 -25
-4 -25 -10 0 -5 14 -10 31 -10 17 0 28 -4 24 -10 -3 -5 -28 -10 -56 -10 -66 0
-63 -20 4 -21 41 -1 47 -3 27 -9 -14 -4 -46 -8 -72 -9 -57 -1 -65 -21 -9 -21
79 0 129 12 134 31 4 13 14 19 36 19 17 0 31 5 31 10 0 6 -11 10 -25 10 -15 0
-25 6 -25 14 0 8 -6 16 -14 19 -18 7 -9 57 10 57 20 0 17 18 -3 23 -17 4 -17
5 0 6 21 1 23 21 2 21 -8 0 -15 9 -15 20 0 11 -7 20 -15 20 -11 0 -15 -11 -15
-40z"/>
<path d="M178 2638 c0 -13 -1 -31 0 -40 1 -12 -5 -18 -18 -18 -11 0 -20 -4
-20 -10 0 -5 10 -10 23 -10 18 0 19 -2 7 -11 -11 -8 -12 -12 -2 -16 17 -7 15
-23 -3 -23 -8 0 -15 -4 -15 -10 0 -5 16 -10 35 -10 32 0 48 14 26 22 -14 5 0
58 15 58 20 0 17 18 -3 23 -17 4 -17 5 0 6 20 1 23 21 3 21 -7 0 -16 9 -19 20
-7 27 -27 25 -29 -2z"/>
<path d="M330 2560 c0 -5 11 -10 25 -10 14 0 25 5 25 10 0 6 -11 10 -25 10
-14 0 -25 -4 -25 -10z"/>
<path d="M110 2530 c0 -5 9 -10 20 -10 11 0 20 5 20 10 0 6 -9 10 -20 10 -11
0 -20 -4 -20 -10z"/>
<path d="M110 2460 c0 -5 16 -10 35 -10 19 0 35 5 35 10 0 6 -16 10 -35 10
-19 0 -35 -4 -35 -10z"/>
<path d="M290 2180 c0 -29 -4 -40 -15 -40 -8 0 -15 -4 -15 -10 0 -5 8 -10 18
-10 15 0 15 -2 2 -11 -11 -8 -12 -12 -2 -16 21 -8 13 -23 -13 -23 -14 0 -25
-4 -25 -10 0 -5 14 -10 31 -10 17 0 28 -4 24 -10 -3 -5 -28 -10 -56 -10 -66 0
-63 -20 4 -21 41 -1 47 -3 27 -9 -14 -4 -46 -8 -72 -9 -57 -1 -65 -21 -9 -21
79 0 129 12 134 31 4 13 14 19 36 19 17 0 31 5 31 10 0 6 -11 10 -25 10 -15 0
-25 6 -25 14 0 8 -6 16 -14 19 -18 7 -9 57 10 57 20 0 17 18 -3 23 -17 4 -17
5 0 6 21 1 23 21 2 21 -8 0 -15 9 -15 20 0 11 -7 20 -15 20 -11 0 -15 -11 -15
-40z"/>
<path d="M178 2188 c0 -13 -1 -31 0 -40 1 -12 -5 -18 -18 -18 -11 0 -20 -4
-20 -10 0 -5 10 -10 23 -10 18 0 19 -2 7 -11 -11 -8 -12 -12 -2 -16 17 -7 15
-23 -3 -23 -8 0 -15 -4 -15 -10 0 -5 16 -10 35 -10 32 0 48 14 26 22 -14 5 0
58 15 58 20 0 17 18 -3 23 -17 4 -17 5 0 6 20 1 23 21 3 21 -7 0 -16 9 -19 20
-7 27 -27 25 -29 -2z"/>
<path d="M330 2110 c0 -5 11 -10 25 -10 14 0 25 5 25 10 0 6 -11 10 -25 10
-14 0 -25 -4 -25 -10z"/>
<path d="M110 2080 c0 -5 9 -10 20 -10 11 0 20 5 20 10 0 6 -9 10 -20 10 -11
0 -20 -4 -20 -10z"/>
<path d="M110 2010 c0 -5 16 -10 35 -10 19 0 35 5 35 10 0 6 -16 10 -35 10
-19 0 -35 -4 -35 -10z"/>
<path d="M112 1935 c-16 -35 -15 -55 2 -55 16 0 26 21 26 56 0 31 -14 31 -28
-1z"/>
<path d="M290 1730 c0 -29 -4 -40 -15 -40 -8 0 -15 -4 -15 -10 0 -5 8 -10 18
-10 15 0 15 -2 2 -11 -11 -8 -12 -12 -2 -16 21 -8 13 -23 -13 -23 -14 0 -25
-4 -25 -10 0 -5 14 -10 31 -10 17 0 28 -4 24 -10 -3 -5 -28 -10 -56 -10 -66 0
-63 -20 4 -21 41 -1 47 -3 27 -9 -14 -4 -46 -8 -72 -9 -57 -1 -65 -21 -9 -21
79 0 129 12 134 31 4 13 14 19 36 19 17 0 31 5 31 10 0 6 -11 10 -25 10 -15 0
-25 6 -25 14 0 8 -6 16 -14 19 -18 7 -9 57 10 57 20 0 17 18 -3 23 -17 4 -17
5 0 6 21 1 23 21 2 21 -8 0 -15 9 -15 20 0 11 -7 20 -15 20 -11 0 -15 -11 -15
-40z"/>
<path d="M178 1738 c0 -13 -1 -31 0 -40 1 -12 -5 -18 -18 -18 -11 0 -20 -4
-20 -10 0 -5 10 -10 23 -10 18 0 19 -2 7 -11 -11 -8 -12 -12 -2 -16 17 -7 15
-23 -3 -23 -8 0 -15 -4 -15 -10 0 -5 16 -10 35 -10 32 0 48 14 26 22 -14 5 0
58 15 58 20 0 17 18 -3 23 -17 4 -17 5 0 6 20 1 23 21 3 21 -7 0 -16 9 -19 20
-7 27 -27 25 -29 -2z"/>
<path d="M330 1660 c0 -5 11 -10 25 -10 14 0 25 5 25 10 0 6 -11 10 -25 10
-14 0 -25 -4 -25 -10z"/>
<path d="M110 1630 c0 -5 9 -10 20 -10 11 0 20 5 20 10 0 6 -9 10 -20 10 -11
0 -20 -4 -20 -10z"/>
<path d="M110 1560 c0 -5 16 -10 35 -10 19 0 35 5 35 10 0 6 -16 10 -35 10
-19 0 -35 -4 -35 -10z"/>
<path d="M112 1485 c-16 -35 -15 -55 2 -55 16 0 26 21 26 56 0 31 -14 31 -28
-1z"/>
<path d="M170 1496 c0 -8 10 -27 23 -41 25 -30 88 -43 151 -31 42 8 45 20 14
47 -30 24 -41 24 -33 -1 6 -18 2 -20 -44 -20 -50 0 -91 23 -91 50 0 6 -4 10
-10 10 -5 0 -10 -6 -10 -14z"/>
<path d="M290 1280 c0 -29 -4 -40 -15 -40 -8 0 -15 -4 -15 -10 0 -5 8 -10 18
-10 15 0 15 -2 2 -11 -11 -8 -12 -12 -2 -16 21 -8 13 -23 -13 -23 -14 0 -25
-4 -25 -10 0 -5 14 -10 31 -10 17 0 28 -4 24 -10 -3 -5 -28 -10 -56 -10 -66 0
-63 -20 4 -21 41 -1 47 -3 27 -9 -14 -4 -46 -8 -72 -9 -60 -1 -64 -21 -5 -21
37 0 46 -4 55 -25 12 -27 27 -32 38 -13 4 6 0 16 -9 23 -24 18 -21 25 12 25
20 0 30 6 34 20 4 15 14 20 36 20 17 0 31 5 31 10 0 6 -11 10 -25 10 -15 0
-25 6 -25 14 0 8 -6 16 -14 19 -18 7 -9 57 10 57 20 0 17 18 -3 23 -17 4 -17
5 0 6 21 1 23 21 2 21 -8 0 -15 9 -15 20 0 11 -7 20 -15 20 -11 0 -15 -11 -15
-40z"/>
<path d="M178 1288 c0 -13 -1 -31 0 -40 1 -12 -5 -18 -18 -18 -11 0 -20 -4
-20 -10 0 -5 10 -10 23 -10 18 0 19 -2 7 -11 -11 -8 -12 -12 -2 -16 17 -7 15
-23 -3 -23 -8 0 -15 -4 -15 -10 0 -5 16 -10 35 -10 32 0 48 14 26 22 -14 5 0
58 15 58 20 0 17 18 -3 23 -17 4 -17 5 0 6 20 1 23 21 3 21 -7 0 -16 9 -19 20
-7 27 -27 25 -29 -2z"/>
<path d="M330 1210 c0 -5 11 -10 25 -10 14 0 25 5 25 10 0 6 -11 10 -25 10
-14 0 -25 -4 -25 -10z"/>
<path d="M110 1180 c0 -5 9 -10 20 -10 11 0 20 5 20 10 0 6 -9 10 -20 10 -11
0 -20 -4 -20 -10z"/>
<path d="M110 1110 c0 -5 16 -10 35 -10 19 0 35 5 35 10 0 6 -16 10 -35 10
-19 0 -35 -4 -35 -10z"/>
<path d="M112 1035 c-16 -35 -15 -55 2 -55 16 0 26 21 26 56 0 31 -14 31 -28
-1z"/>
<path d="M170 1046 c0 -8 10 -27 23 -41 25 -30 88 -43 151 -31 42 8 45 20 14
47 -30 24 -41 24 -33 -1 6 -18 2 -20 -44 -20 -50 0 -91 23 -91 50 0 6 -4 10
-10 10 -5 0 -10 -6 -10 -14z"/>
<path d="M290 830 c0 -29 -4 -40 -15 -40 -8 0 -15 -4 -15 -10 0 -5 8 -10 18
-10 15 0 15 -2 2 -11 -11 -8 -12 -12 -2 -16 21 -8 13 -23 -13 -23 -14 0 -25
-4 -25 -10 0 -5 14 -10 31 -10 17 0 28 -4 24 -10 -3 -5 -28 -10 -56 -10 -66 0
-63 -20 4 -21 41 -1 47 -3 27 -9 -14 -4 -46 -8 -72 -9 -60 -1 -64 -21 -5 -21
37 0 46 -4 55 -25 12 -27 27 -32 38 -13 4 6 0 16 -9 23 -24 18 -21 25 12 25
20 0 30 6 34 20 4 15 14 20 36 20 17 0 31 5 31 10 0 6 -11 10 -25 10 -15 0
-25 6 -25 14 0 8 -6 16 -14 19 -18 7 -9 57 10 57 20 0 17 18 -3 23 -17 4 -17
5 0 6 21 1 23 21 2 21 -8 0 -15 9 -15 20 0 11 -7 20 -15 20 -11 0 -15 -11 -15
-40z"/>
<path d="M178 838 c0 -13 -1 -31 0 -40 1 -12 -5 -18 -18 -18 -11 0 -20 -4 -20
-10 0 -5 10 -10 23 -10 18 0 19 -2 7 -11 -11 -8 -12 -12 -2 -16 17 -7 15 -23
-3 -23 -8 0 -15 -4 -15 -10 0 -5 16 -10 35 -10 32 0 48 14 26 22 -14 5 0 58
15 58 20 0 17 18 -3 23 -17 4 -17 5 0 6 20 1 23 21 3 21 -7 0 -16 9 -19 20 -7
27 -27 25 -29 -2z"/>
<path d="M330 760 c0 -5 11 -10 25 -10 14 0 25 5 25 10 0 6 -11 10 -25 10 -14
0 -25 -4 -25 -10z"/>
<path d="M110 730 c0 -5 9 -10 20 -10 11 0 20 5 20 10 0 6 -9 10 -20 10 -11 0
-20 -4 -20 -10z"/>
<path d="M110 660 c0 -5 16 -10 35 -10 19 0 35 5 35 10 0 6 -16 10 -35 10 -19
0 -35 -4 -35 -10z"/>
<path d="M340 622 c0 -12 44 -52 58 -52 20 0 13 28 -10 44 -24 17 -48 21 -48
8z"/>
<path d="M112 585 c-16 -35 -15 -55 2 -55 16 0 26 21 26 56 0 31 -14 31 -28
-1z"/>
<path d="M170 596 c0 -8 10 -27 23 -41 25 -30 88 -43 151 -31 42 8 45 20 14
47 -30 24 -41 24 -33 -1 6 -18 2 -20 -44 -20 -50 0 -91 23 -91 50 0 6 -4 10
-10 10 -5 0 -10 -6 -10 -14z"/>
</g>
</svg>
