<?xml version="1.0" standalone="no"?>
<!DOCTYPE svg PUBLIC "-//W3C//DTD SVG 20010904//EN"
 "http://www.w3.org/TR/2001/REC-SVG-20010904/DTD/svg10.dtd">
<svg version="1.0" xmlns="http://www.w3.org/2000/svg"
 width="50.000000pt" height="725.000000pt" viewBox="0 0 50.000000 725.000000"
 preserveAspectRatio="xMidYMid meet">
<metadata>
Created by potrace 1.16, written by Peter Selinger 2001-2019
</metadata>
<g transform="translate(0.000000,725.000000) scale(0.100000,-0.100000)"
fill="#000000" stroke="none">
<path d="M92 7035 c-15 -32 -15 -65 -2 -65 12 0 30 42 30 71 0 27 -15 24 -28
-6z"/>
<path d="M133 6669 c3 -24 2 -93 -3 -153 -8 -108 -6 -136 10 -136 14 0 19 42
21 185 2 128 1 140 -16 144 -16 3 -17 -2 -12 -40z"/>
<path d="M92 6585 c-15 -32 -15 -65 -2 -65 12 0 30 42 30 71 0 27 -15 24 -28
-6z"/>
<path d="M133 6143 c-1 -64 -5 -133 -8 -153 -5 -36 8 -71 22 -56 4 4 10 58 13
119 3 62 8 104 12 95 10 -25 28 -22 28 3 0 13 -8 23 -21 26 -16 5 -20 12 -17
42 2 26 -1 36 -12 39 -13 2 -16 -15 -17 -115z"/>
<path d="M92 6135 c-15 -32 -15 -65 -2 -65 12 0 30 42 30 71 0 27 -15 24 -28
-6z"/>
<path d="M133 5693 c-1 -64 -5 -133 -8 -153 -5 -36 8 -71 22 -56 4 4 10 58 13
119 3 62 8 104 12 95 10 -25 28 -22 28 3 0 13 -8 23 -21 26 -16 5 -20 12 -17
42 2 26 -1 36 -12 39 -13 2 -16 -15 -17 -115z"/>
<path d="M280 5802 c0 -10 22 -32 32 -32 4 0 8 9 8 20 0 13 -7 20 -20 20 -11
0 -20 -4 -20 -8z"/>
<path d="M92 5685 c-15 -32 -15 -65 -2 -65 12 0 30 42 30 71 0 27 -15 24 -28
-6z"/>
<path d="M133 5243 c-1 -64 -5 -133 -8 -153 -5 -36 8 -71 22 -56 4 4 10 58 13
119 3 62 8 104 12 95 10 -25 28 -22 28 3 0 13 -8 23 -21 26 -16 5 -20 12 -17
42 2 26 -1 36 -12 39 -13 2 -16 -15 -17 -115z"/>
<path d="M280 5352 c0 -4 5 -13 11 -19 8 -8 -3 -13 -40 -18 -28 -4 -51 -12
-51 -17 0 -7 16 -8 43 -4 23 4 68 9 100 13 63 6 76 30 13 25 -27 -2 -36 1 -36
13 0 8 -9 15 -20 15 -11 0 -20 -4 -20 -8z"/>
<path d="M92 5235 c-15 -32 -15 -65 -2 -65 12 0 30 42 30 71 0 27 -15 24 -28
-6z"/>
<path d="M133 4793 c-1 -64 -5 -133 -8 -153 -5 -36 8 -71 22 -56 4 4 10 58 13
119 3 62 8 104 12 95 10 -25 28 -22 28 3 0 13 -8 23 -21 26 -16 5 -20 12 -17
42 2 26 -1 36 -12 39 -13 2 -16 -15 -17 -115z"/>
<path d="M280 4902 c0 -4 5 -13 11 -19 8 -8 -3 -13 -40 -18 -28 -4 -51 -11
-51 -16 0 -5 5 -9 10 -9 20 0 -2 -139 -34 -212 -5 -11 -4 -18 2 -18 18 0 51
83 61 154 6 38 14 73 19 78 4 4 39 11 76 15 42 4 65 10 63 17 -2 6 -20 10 -41
8 -27 -2 -36 1 -36 13 0 8 -9 15 -20 15 -11 0 -20 -4 -20 -8z"/>
<path d="M92 4785 c-15 -32 -15 -65 -2 -65 12 0 30 42 30 71 0 27 -15 24 -28
-6z"/>
<path d="M133 4343 c-1 -64 -5 -133 -8 -153 -5 -36 8 -71 22 -56 4 4 10 58 13
119 3 62 8 104 12 95 10 -25 28 -22 28 3 0 13 -8 23 -21 26 -16 5 -20 12 -17
42 2 26 -1 36 -12 39 -13 2 -16 -15 -17 -115z"/>
<path d="M280 4452 c0 -4 5 -13 11 -19 8 -8 -3 -13 -40 -18 -28 -4 -51 -11
-51 -16 0 -5 5 -9 10 -9 20 0 -2 -139 -34 -212 -5 -11 -4 -18 2 -18 18 0 51
83 61 154 6 38 14 73 19 78 4 4 39 11 76 15 42 4 65 10 63 17 -2 6 -20 10 -41
8 -27 -2 -36 1 -36 13 0 8 -9 15 -20 15 -11 0 -20 -4 -20 -8z"/>
<path d="M328 4373 c-25 -6 -22 -23 3 -23 19 0 21 -4 16 -30 -9 -44 17 -39 31
7 16 51 5 61 -50 46z"/>
<path d="M92 4335 c-15 -32 -15 -65 -2 -65 12 0 30 42 30 71 0 27 -15 24 -28
-6z"/>
<path d="M250 4350 c0 -5 11 -10 25 -10 14 0 25 5 25 10 0 6 -11 10 -25 10
-14 0 -25 -4 -25 -10z"/>
<path d="M133 3893 c-1 -64 -5 -133 -8 -153 -5 -36 8 -71 22 -56 4 4 10 58 13
119 3 62 8 104 12 95 10 -25 28 -22 28 3 0 13 -8 23 -21 26 -16 5 -20 12 -17
42 2 26 -1 36 -12 39 -13 2 -16 -15 -17 -115z"/>
<path d="M280 4002 c0 -4 5 -13 11 -19 8 -8 -3 -13 -40 -18 -28 -4 -51 -11
-51 -16 0 -5 5 -9 10 -9 20 0 -2 -139 -34 -212 -5 -11 -4 -18 2 -18 18 0 51
83 61 154 6 38 14 73 19 78 4 4 39 11 76 15 42 4 65 10 63 17 -2 6 -20 10 -41
8 -27 -2 -36 1 -36 13 0 8 -9 15 -20 15 -11 0 -20 -4 -20 -8z"/>
<path d="M328 3923 c-26 -7 -22 -23 5 -24 21 0 21 -1 2 -9 -11 -5 -35 -9 -52
-9 -18 -1 -33 -6 -33 -12 0 -8 16 -10 49 -6 41 5 49 3 44 -9 -3 -8 1 -14 11
-14 9 0 16 7 16 15 0 10 10 15 30 15 17 0 30 4 30 9 0 11 -29 23 -40 16 -4 -3
-7 3 -6 13 1 18 -23 24 -56 15z"/>
<path d="M92 3885 c-15 -32 -15 -65 -2 -65 12 0 30 42 30 71 0 27 -15 24 -28
-6z"/>
<path d="M250 3900 c0 -5 11 -10 25 -10 14 0 25 5 25 10 0 6 -11 10 -25 10
-14 0 -25 -4 -25 -10z"/>
<path d="M133 3443 c-1 -64 -5 -133 -8 -153 -5 -36 8 -71 22 -56 4 4 10 58 13
119 3 62 8 104 12 95 10 -25 28 -22 28 3 0 13 -8 23 -21 26 -16 5 -20 12 -17
42 2 26 -1 36 -12 39 -13 2 -16 -15 -17 -115z"/>
<path d="M280 3552 c0 -4 5 -13 11 -19 8 -8 -3 -13 -40 -18 -28 -4 -51 -11
-51 -16 0 -5 5 -9 10 -9 20 0 -2 -139 -34 -212 -5 -11 -4 -18 2 -18 18 0 51
83 61 154 6 38 14 73 19 78 4 4 39 11 76 15 42 4 65 10 63 17 -2 6 -20 10 -41
8 -27 -2 -36 1 -36 13 0 8 -9 15 -20 15 -11 0 -20 -4 -20 -8z"/>
<path d="M328 3473 c-26 -7 -22 -23 5 -24 21 0 21 -1 2 -9 -11 -5 -35 -9 -52
-9 -18 -1 -33 -6 -33 -12 0 -8 16 -10 53 -6 47 6 50 5 33 -8 -11 -8 -32 -15
-48 -15 -15 0 -28 -4 -28 -10 0 -11 19 -12 73 -4 27 5 37 11 37 25 0 14 7 19
30 19 17 0 30 4 30 9 0 11 -29 23 -40 16 -4 -3 -7 3 -6 13 1 18 -23 24 -56 15z"/>
<path d="M92 3435 c-15 -32 -15 -65 -2 -65 12 0 30 42 30 71 0 27 -15 24 -28
-6z"/>
<path d="M250 3450 c0 -5 11 -10 25 -10 14 0 25 5 25 10 0 6 -11 10 -25 10
-14 0 -25 -4 -25 -10z"/>
<path d="M133 2993 c-1 -64 -5 -133 -8 -153 -5 -36 8 -71 22 -56 4 4 10 58 13
119 3 62 8 104 12 95 10 -25 28 -22 28 3 0 13 -8 23 -21 26 -16 5 -20 12 -17
42 2 26 -1 36 -12 39 -13 2 -16 -15 -17 -115z"/>
<path d="M280 3102 c0 -4 5 -13 11 -19 8 -8 -3 -13 -40 -18 -28 -4 -51 -11
-51 -16 0 -5 5 -9 10 -9 20 0 -2 -139 -34 -212 -5 -11 -4 -18 2 -18 18 0 51
83 61 152 11 78 15 88 42 88 12 0 19 -7 19 -20 0 -15 -7 -20 -25 -20 -34 0
-32 -18 3 -23 l27 -4 -27 -2 c-35 -1 -37 -21 -3 -21 14 0 25 -4 25 -10 0 -5
-9 -10 -20 -10 -11 0 -20 -4 -20 -10 0 -5 9 -10 20 -10 17 0 20 -7 20 -50 0
-38 -4 -50 -15 -50 -18 0 -19 -12 -3 -28 27 -27 37 -13 40 61 3 66 5 72 26 75
14 2 22 10 22 23 0 14 7 19 30 19 17 0 30 4 30 9 0 11 -29 23 -40 16 -4 -3 -7
3 -6 13 1 12 -6 17 -26 17 -20 -1 -28 4 -28 17 0 14 8 18 36 18 24 0 34 4 31
13 -2 7 -18 11 -41 9 -27 -2 -36 1 -36 13 0 8 -9 15 -20 15 -11 0 -20 -4 -20
-8z m67 -108 c-3 -3 -12 -4 -19 -1 -8 3 -5 6 6 6 11 1 17 -2 13 -5z m-2 -34
c-3 -5 -11 -10 -16 -10 -6 0 -7 5 -4 10 3 6 11 10 16 10 6 0 7 -4 4 -10z"/>
<path d="M92 2985 c-15 -32 -15 -65 -2 -65 12 0 30 42 30 71 0 27 -15 24 -28
-6z"/>
<path d="M133 2543 c-1 -64 -5 -133 -8 -153 -5 -36 8 -71 22 -56 4 4 10 58 13
119 3 62 8 104 12 95 10 -25 28 -22 28 3 0 13 -8 23 -21 26 -16 5 -20 12 -17
42 2 26 -1 36 -12 39 -13 2 -16 -15 -17 -115z"/>
<path d="M280 2652 c0 -4 5 -13 11 -19 8 -8 -3 -13 -40 -18 -28 -4 -51 -11
-51 -16 0 -5 5 -9 10 -9 20 0 -2 -139 -34 -212 -5 -11 -4 -18 2 -18 18 0 51
83 61 152 11 78 15 88 42 88 12 0 19 -7 19 -20 0 -15 -7 -20 -25 -20 -34 0
-32 -18 3 -23 l27 -4 -27 -2 c-35 -1 -37 -21 -3 -21 14 0 25 -4 25 -10 0 -5
-9 -10 -20 -10 -11 0 -20 -4 -20 -10 0 -5 9 -10 20 -10 17 0 20 -7 20 -50 0
-38 -4 -50 -15 -50 -18 0 -19 -12 -3 -28 27 -27 37 -13 40 61 3 66 5 72 26 75
14 2 22 10 22 23 0 14 7 19 30 19 17 0 30 4 30 9 0 11 -29 23 -40 16 -4 -3 -7
3 -6 13 1 12 -6 17 -26 17 -20 -1 -28 4 -28 17 0 14 8 18 36 18 24 0 34 4 31
13 -2 7 -18 11 -41 9 -27 -2 -36 1 -36 13 0 8 -9 15 -20 15 -11 0 -20 -4 -20
-8z m67 -108 c-3 -3 -12 -4 -19 -1 -8 3 -5 6 6 6 11 1 17 -2 13 -5z m-2 -34
c-3 -5 -11 -10 -16 -10 -6 0 -7 5 -4 10 3 6 11 10 16 10 6 0 7 -4 4 -10z"/>
<path d="M92 2535 c-15 -32 -15 -65 -2 -65 12 0 30 42 30 71 0 27 -15 24 -28
-6z"/>
<path d="M244 2445 c3 -9 6 -19 6 -21 0 -2 7 -4 16 -4 22 0 13 34 -10 38 -14
3 -17 0 -12 -13z"/>
<path d="M133 2093 c-1 -64 -5 -133 -8 -153 -5 -36 8 -71 22 -56 4 4 10 58 13
119 3 62 8 104 12 95 10 -25 28 -22 28 3 0 13 -8 23 -21 26 -16 5 -20 12 -17
42 2 26 -1 36 -12 39 -13 2 -16 -15 -17 -115z"/>
<path d="M280 2202 c0 -4 5 -13 11 -19 8 -8 -3 -13 -40 -18 -28 -4 -51 -11
-51 -16 0 -5 5 -9 10 -9 20 0 -2 -139 -34 -212 -5 -11 -4 -18 2 -18 18 0 51
83 61 152 11 78 15 88 42 88 12 0 19 -7 19 -20 0 -15 -7 -20 -25 -20 -34 0
-32 -18 3 -23 l27 -4 -27 -2 c-35 -1 -37 -21 -3 -21 14 0 25 -4 25 -10 0 -5
-9 -10 -20 -10 -11 0 -20 -4 -20 -10 0 -5 9 -10 20 -10 17 0 20 -7 20 -50 0
-38 -4 -50 -15 -50 -18 0 -19 -12 -3 -28 27 -27 37 -13 40 61 3 66 5 72 26 75
14 2 22 10 22 23 0 14 7 19 30 19 17 0 30 4 30 9 0 11 -29 23 -40 16 -4 -3 -7
3 -6 13 1 12 -6 17 -26 17 -20 -1 -28 4 -28 17 0 14 8 18 36 18 24 0 34 4 31
13 -2 7 -18 11 -41 9 -27 -2 -36 1 -36 13 0 8 -9 15 -20 15 -11 0 -20 -4 -20
-8z m67 -108 c-3 -3 -12 -4 -19 -1 -8 3 -5 6 6 6 11 1 17 -2 13 -5z m-2 -34
c-3 -5 -11 -10 -16 -10 -6 0 -7 5 -4 10 3 6 11 10 16 10 6 0 7 -4 4 -10z"/>
<path d="M92 2085 c-15 -32 -15 -65 -2 -65 12 0 30 42 30 71 0 27 -15 24 -28
-6z"/>
<path d="M240 2001 c0 -5 7 -16 15 -24 13 -13 11 -16 -16 -27 -16 -7 -28 -17
-26 -23 6 -19 21 -17 50 6 25 20 27 25 18 50 -10 25 -41 39 -41 18z"/>
<path d="M133 1643 c-1 -64 -5 -133 -8 -153 -5 -36 8 -71 22 -56 4 4 10 58 13
119 3 62 8 104 12 95 10 -25 28 -22 28 3 0 13 -8 23 -21 26 -16 5 -20 12 -17
42 2 26 -1 36 -12 39 -13 2 -16 -15 -17 -115z"/>
<path d="M280 1752 c0 -4 5 -13 11 -19 8 -8 -3 -13 -40 -18 -28 -4 -51 -11
-51 -16 0 -5 5 -9 10 -9 20 0 -2 -139 -34 -212 -5 -11 -4 -18 2 -18 18 0 51
83 61 152 11 78 15 88 42 88 12 0 19 -7 19 -20 0 -15 -7 -20 -25 -20 -34 0
-32 -18 3 -23 l27 -4 -27 -2 c-35 -1 -37 -21 -3 -21 14 0 25 -4 25 -10 0 -5
-9 -10 -20 -10 -11 0 -20 -4 -20 -10 0 -5 9 -10 20 -10 17 0 20 -7 20 -50 0
-38 -4 -50 -15 -50 -18 0 -19 -12 -3 -28 27 -27 37 -13 40 61 3 66 5 72 26 75
14 2 22 10 22 23 0 14 7 19 30 19 17 0 30 4 30 9 0 11 -29 23 -40 16 -4 -3 -7
3 -6 13 1 12 -6 17 -26 17 -20 -1 -28 4 -28 17 0 14 8 18 36 18 24 0 34 4 31
13 -2 7 -18 11 -41 9 -27 -2 -36 1 -36 13 0 8 -9 15 -20 15 -11 0 -20 -4 -20
-8z m67 -108 c-3 -3 -12 -4 -19 -1 -8 3 -5 6 6 6 11 1 17 -2 13 -5z m-2 -34
c-3 -5 -11 -10 -16 -10 -6 0 -7 5 -4 10 3 6 11 10 16 10 6 0 7 -4 4 -10z"/>
<path d="M92 1635 c-15 -32 -15 -65 -2 -65 12 0 30 42 30 71 0 27 -15 24 -28
-6z"/>
<path d="M356 1554 c-4 -9 -5 -19 -2 -21 7 -7 46 17 46 27 0 17 -37 11 -44 -6z"/>
<path d="M240 1551 c0 -5 7 -16 15 -24 13 -13 11 -16 -16 -27 -16 -7 -28 -17
-26 -23 6 -19 21 -17 50 6 25 20 27 25 18 50 -10 25 -41 39 -41 18z"/>
<path d="M133 1193 c-1 -64 -5 -133 -8 -153 -5 -36 8 -71 22 -56 4 4 10 58 13
119 3 62 8 104 12 95 10 -25 28 -22 28 3 0 13 -8 23 -21 26 -16 5 -20 12 -17
42 2 26 -1 36 -12 39 -13 2 -16 -15 -17 -115z"/>
<path d="M280 1302 c0 -4 5 -13 11 -19 8 -8 -3 -13 -40 -18 -28 -4 -51 -11
-51 -16 0 -5 5 -9 10 -9 20 0 -2 -139 -34 -212 -5 -11 -4 -18 2 -18 18 0 51
83 61 152 11 78 15 88 42 88 12 0 19 -7 19 -20 0 -15 -7 -20 -25 -20 -34 0
-32 -18 3 -23 l27 -4 -27 -2 c-35 -1 -37 -21 -3 -21 14 0 25 -4 25 -10 0 -5
-9 -10 -20 -10 -11 0 -20 -4 -20 -10 0 -5 9 -10 20 -10 17 0 20 -7 20 -50 0
-38 -4 -50 -15 -50 -18 0 -19 -12 -3 -28 27 -27 37 -13 40 61 3 66 5 72 26 75
14 2 22 10 22 23 0 14 7 19 30 19 17 0 30 4 30 9 0 11 -29 23 -40 16 -4 -3 -7
3 -6 13 1 12 -6 17 -26 17 -20 -1 -28 4 -28 17 0 14 8 18 36 18 24 0 34 4 31
13 -2 7 -18 11 -41 9 -27 -2 -36 1 -36 13 0 8 -9 15 -20 15 -11 0 -20 -4 -20
-8z m67 -108 c-3 -3 -12 -4 -19 -1 -8 3 -5 6 6 6 11 1 17 -2 13 -5z m-2 -34
c-3 -5 -11 -10 -16 -10 -6 0 -7 5 -4 10 3 6 11 10 16 10 6 0 7 -4 4 -10z"/>
<path d="M92 1185 c-15 -32 -15 -65 -2 -65 12 0 30 42 30 71 0 27 -15 24 -28
-6z"/>
<path d="M356 1104 c-4 -9 -5 -19 -2 -21 7 -7 46 17 46 27 0 17 -37 11 -44 -6z"/>
<path d="M240 1101 c0 -5 7 -16 15 -24 13 -13 11 -16 -16 -27 -16 -7 -28 -17
-26 -23 6 -19 21 -17 50 6 25 20 27 25 18 50 -10 25 -41 39 -41 18z"/>
<path d="M340 1062 c0 -12 44 -52 58 -52 16 0 15 25 0 38 -19 15 -58 25 -58
14z"/>
</g>
</svg>
