<?xml version="1.0" standalone="no"?>
<!DOCTYPE svg PUBLIC "-//W3C//DTD SVG 20010904//EN"
 "http://www.w3.org/TR/2001/REC-SVG-20010904/DTD/svg10.dtd">
<svg version="1.0" xmlns="http://www.w3.org/2000/svg"
 width="50.000000pt" height="725.000000pt" viewBox="0 0 50.000000 725.000000"
 preserveAspectRatio="xMidYMid meet">
<metadata>
Created by potrace 1.16, written by Peter Selinger 2001-2019
</metadata>
<g transform="translate(0.000000,725.000000) scale(0.100000,-0.100000)"
fill="#000000" stroke="none">
<path d="M130 7121 c0 -12 29 -35 36 -28 11 10 -5 37 -21 37 -8 0 -15 -4 -15
-9z"/>
<path d="M225 6680 c-4 -12 -5 -24 -2 -26 8 -8 47 20 44 31 -7 20 -35 16 -42
-5z"/>
<path d="M130 6671 c0 -12 29 -35 36 -28 11 10 -5 37 -21 37 -8 0 -15 -4 -15
-9z"/>
<path d="M225 6230 c-4 -12 -5 -24 -2 -26 8 -8 47 20 44 31 -7 20 -35 16 -42
-5z"/>
<path d="M130 6221 c0 -12 29 -35 36 -28 11 10 -5 37 -21 37 -8 0 -15 -4 -15
-9z"/>
<path d="M120 6125 c0 -30 5 -55 10 -55 6 0 10 15 10 33 0 17 3 42 6 55 5 16
2 22 -10 22 -13 0 -16 -11 -16 -55z"/>
<path d="M225 5780 c-4 -12 -5 -24 -2 -26 8 -8 47 20 44 31 -7 20 -35 16 -42
-5z"/>
<path d="M130 5771 c0 -12 29 -35 36 -28 11 10 -5 37 -21 37 -8 0 -15 -4 -15
-9z"/>
<path d="M190 5730 c0 -5 11 -10 25 -10 22 0 25 -4 25 -34 0 -19 -5 -36 -12
-38 -15 -5 -1 -28 16 -28 16 0 26 31 26 83 0 37 0 37 -40 37 -22 0 -40 -4 -40
-10z"/>
<path d="M120 5675 c0 -30 5 -55 10 -55 6 0 10 18 10 41 0 32 4 42 20 46 30 8
24 23 -10 23 -30 0 -30 -1 -30 -55z"/>
<path d="M180 5320 c0 -38 -2 -40 -30 -40 -30 0 -30 -1 -30 -55 0 -64 17 -74
22 -13 2 31 8 44 21 46 14 3 17 -4 17 -42 0 -25 5 -46 10 -46 6 0 10 15 10 34
0 44 9 66 26 66 17 0 19 -67 2 -72 -15 -5 -1 -28 16 -28 16 0 26 31 26 83 0
35 -2 37 -30 37 -28 0 -30 3 -30 35 0 24 -5 35 -15 35 -11 0 -15 -11 -15 -40z"/>
<path d="M225 5330 c-4 -12 -5 -24 -2 -26 8 -8 47 20 44 31 -7 20 -35 16 -42
-5z"/>
<path d="M130 5321 c0 -12 29 -35 36 -28 11 10 -5 37 -21 37 -8 0 -15 -4 -15
-9z"/>
<path d="M180 4870 c0 -38 -2 -40 -30 -40 -30 0 -30 -1 -30 -55 0 -64 17 -74
22 -13 2 33 7 44 22 46 18 4 19 3 3 -13 -21 -20 -22 -39 -2 -31 11 4 15 -1 15
-19 0 -14 5 -25 10 -25 6 0 10 15 10 34 0 44 9 66 26 66 17 0 19 -67 2 -72
-15 -5 -1 -28 16 -28 16 0 26 31 26 83 0 35 -2 37 -30 37 -28 0 -30 3 -30 35
0 24 -5 35 -15 35 -11 0 -15 -11 -15 -40z"/>
<path d="M225 4880 c-4 -12 -5 -24 -2 -26 8 -8 47 20 44 31 -7 20 -35 16 -42
-5z"/>
<path d="M130 4871 c0 -12 29 -35 36 -28 11 10 -5 37 -21 37 -8 0 -15 -4 -15
-9z"/>
<path d="M180 4420 c0 -38 -2 -40 -30 -40 -30 0 -30 -1 -30 -55 0 -64 17 -74
22 -13 2 33 7 44 22 46 18 4 19 3 3 -13 -21 -20 -22 -39 -2 -31 11 4 15 -1 15
-19 0 -14 5 -25 10 -25 6 0 10 14 10 30 0 27 2 29 20 18 12 -8 15 -15 8 -19
-13 -8 -2 -29 16 -29 16 0 26 31 26 83 0 35 -2 37 -30 37 -28 0 -30 3 -30 35
0 24 -5 35 -15 35 -11 0 -15 -11 -15 -40z m60 -66 c0 -9 -5 -14 -12 -12 -18 6
-21 28 -4 28 9 0 16 -7 16 -16z"/>
<path d="M225 4430 c-4 -12 -5 -24 -2 -26 8 -8 47 20 44 31 -7 20 -35 16 -42
-5z"/>
<path d="M130 4421 c0 -12 29 -35 36 -28 11 10 -5 37 -21 37 -8 0 -15 -4 -15
-9z"/>
<path d="M180 3970 c0 -38 -2 -40 -30 -40 -30 0 -30 -1 -30 -55 0 -64 17 -74
22 -13 2 33 7 44 22 46 18 4 19 3 3 -13 -21 -20 -22 -39 -2 -31 11 4 15 -1 15
-19 0 -14 5 -25 10 -25 6 0 10 14 10 30 0 27 2 29 20 18 12 -8 15 -15 8 -19
-13 -8 -2 -29 16 -29 16 0 26 31 26 83 0 35 -2 37 -30 37 -28 0 -30 3 -30 35
0 24 -5 35 -15 35 -11 0 -15 -11 -15 -40z m60 -66 c0 -17 -22 -14 -28 4 -2 7
3 12 12 12 9 0 16 -7 16 -16z"/>
<path d="M301 3988 c-19 -51 -22 -68 -12 -68 11 0 51 62 51 79 0 20 -30 11
-39 -11z"/>
<path d="M225 3980 c-4 -12 -5 -24 -2 -26 8 -8 47 20 44 31 -7 20 -35 16 -42
-5z"/>
<path d="M130 3971 c0 -12 29 -35 36 -28 11 10 -5 37 -21 37 -8 0 -15 -4 -15
-9z"/>
<path d="M180 3520 c0 -38 -2 -40 -30 -40 -30 0 -30 -1 -30 -55 0 -64 17 -74
22 -13 2 33 7 44 22 46 18 4 19 3 3 -13 -21 -20 -22 -39 -2 -31 11 4 15 -1 15
-19 0 -14 5 -25 10 -25 6 0 10 14 10 30 0 27 2 29 20 18 12 -8 15 -15 8 -19
-13 -8 -2 -29 16 -29 16 0 26 31 26 83 0 35 -2 37 -30 37 -28 0 -30 3 -30 35
0 24 -5 35 -15 35 -11 0 -15 -11 -15 -40z m60 -66 c0 -9 -5 -14 -12 -12 -18 6
-21 28 -4 28 9 0 16 -7 16 -16z"/>
<path d="M301 3538 c-25 -66 -22 -85 6 -57 6 6 26 14 44 18 18 4 34 12 37 20
3 10 -3 11 -26 6 -27 -6 -30 -4 -25 14 8 30 -25 28 -36 -1z"/>
<path d="M225 3530 c-4 -12 -5 -24 -2 -26 8 -8 47 20 44 31 -7 20 -35 16 -42
-5z"/>
<path d="M130 3521 c0 -12 29 -35 36 -28 11 10 -5 37 -21 37 -8 0 -15 -4 -15
-9z"/>
<path d="M180 3070 c0 -38 -2 -40 -30 -40 -30 0 -30 -1 -30 -55 0 -64 17 -74
22 -13 2 33 7 44 22 46 18 4 19 3 3 -13 -21 -20 -22 -39 -2 -31 11 4 15 -1 15
-19 0 -14 5 -25 10 -25 6 0 10 14 10 30 0 27 2 29 20 18 12 -8 15 -15 8 -19
-13 -8 -2 -29 16 -29 16 0 26 31 26 83 0 35 -2 37 -30 37 -28 0 -30 3 -30 35
0 24 -5 35 -15 35 -11 0 -15 -11 -15 -40z m60 -66 c0 -17 -22 -14 -28 4 -2 7
3 12 12 12 9 0 16 -7 16 -16z"/>
<path d="M301 3088 c-19 -51 -22 -68 -12 -68 5 0 13 5 16 10 11 17 25 11 25
-11 0 -11 -14 -34 -30 -51 -35 -35 -34 -43 3 -29 28 11 57 57 57 89 0 11 7 22
15 26 28 10 16 28 -14 21 -26 -6 -29 -4 -24 14 8 30 -25 28 -36 -1z"/>
<path d="M225 3080 c-4 -12 -5 -24 -2 -26 8 -8 47 20 44 31 -7 20 -35 16 -42
-5z"/>
<path d="M130 3071 c0 -12 29 -35 36 -28 11 10 -5 37 -21 37 -8 0 -15 -4 -15
-9z"/>
<path d="M180 2620 c0 -38 -2 -40 -30 -40 -30 0 -30 -1 -30 -55 0 -64 17 -74
22 -13 2 33 7 44 22 46 18 4 19 3 3 -13 -21 -20 -22 -39 -2 -31 11 4 15 -1 15
-19 0 -14 5 -25 10 -25 6 0 10 14 10 30 0 27 2 29 20 18 12 -8 15 -15 8 -19
-13 -8 -2 -29 16 -29 16 0 26 31 26 83 0 35 -2 37 -30 37 -28 0 -30 3 -30 35
0 24 -5 35 -15 35 -11 0 -15 -11 -15 -40z m60 -66 c0 -9 -5 -14 -12 -12 -18 6
-21 28 -4 28 9 0 16 -7 16 -16z"/>
<path d="M301 2638 c-19 -51 -22 -68 -12 -68 5 0 13 5 16 10 10 17 25 11 25
-10 0 -12 -7 -20 -16 -20 -10 0 -14 -6 -10 -15 3 -8 -4 -21 -16 -29 -31 -22
-15 -31 21 -13 27 14 31 13 47 -4 19 -21 44 -25 44 -9 0 6 -11 21 -24 33 -19
17 -23 29 -19 52 3 17 12 34 19 38 25 15 15 29 -15 22 -26 -6 -29 -4 -24 14 8
30 -25 28 -36 -1z"/>
<path d="M225 2630 c-4 -12 -5 -24 -2 -26 8 -8 47 20 44 31 -7 20 -35 16 -42
-5z"/>
<path d="M130 2621 c0 -12 29 -35 36 -28 11 10 -5 37 -21 37 -8 0 -15 -4 -15
-9z"/>
<path d="M180 2170 c0 -38 -2 -40 -30 -40 -30 0 -30 -1 -30 -55 0 -64 17 -74
22 -13 2 33 7 44 22 46 18 4 19 3 3 -13 -21 -20 -22 -39 -2 -31 11 4 15 -1 15
-19 0 -14 5 -25 10 -25 6 0 10 14 10 30 0 27 2 29 20 18 12 -8 15 -15 8 -19
-13 -8 -2 -29 16 -29 16 0 26 31 26 83 0 35 -2 37 -30 37 -28 0 -30 3 -30 35
0 24 -5 35 -15 35 -11 0 -15 -11 -15 -40z m60 -66 c0 -17 -22 -14 -28 4 -2 7
3 12 12 12 9 0 16 -7 16 -16z"/>
<path d="M301 2188 c-19 -51 -22 -68 -12 -68 5 0 13 5 16 10 10 17 25 11 25
-10 0 -12 -7 -20 -16 -20 -10 0 -14 -6 -10 -15 3 -8 -4 -21 -16 -29 -31 -22
-15 -31 21 -13 27 14 31 13 47 -4 19 -21 44 -25 44 -9 0 6 -11 21 -24 33 -19
17 -23 29 -19 52 3 17 12 34 19 38 25 15 15 29 -15 22 -26 -6 -29 -4 -24 14 8
30 -25 28 -36 -1z"/>
<path d="M225 2180 c-4 -12 -5 -24 -2 -26 8 -8 47 20 44 31 -7 20 -35 16 -42
-5z"/>
<path d="M130 2171 c0 -12 29 -35 36 -28 11 10 -5 37 -21 37 -8 0 -15 -4 -15
-9z"/>
<path d="M116 1954 c-13 -27 -14 -40 -6 -48 16 -15 40 19 40 56 0 38 -13 35
-34 -8z"/>
<path d="M180 1720 c0 -38 -2 -40 -30 -40 -30 0 -30 -1 -30 -55 0 -64 17 -74
22 -13 2 33 7 44 22 46 18 4 19 3 3 -13 -21 -20 -22 -39 -2 -31 11 4 15 -1 15
-19 0 -14 5 -25 10 -25 6 0 10 14 10 30 0 27 2 29 20 18 12 -8 15 -15 8 -19
-13 -8 -2 -29 16 -29 16 0 26 31 26 83 0 35 -2 37 -30 37 -28 0 -30 3 -30 35
0 24 -5 35 -15 35 -11 0 -15 -11 -15 -40z m60 -66 c0 -17 -22 -14 -28 4 -2 7
3 12 12 12 9 0 16 -7 16 -16z"/>
<path d="M301 1738 c-19 -51 -22 -68 -12 -68 5 0 13 5 16 10 10 17 25 11 25
-10 0 -12 -7 -20 -16 -20 -10 0 -14 -6 -10 -15 3 -8 -4 -21 -16 -29 -31 -22
-15 -31 21 -13 27 14 31 13 47 -4 19 -21 44 -25 44 -9 0 6 -11 21 -24 33 -19
17 -23 29 -19 52 3 17 12 34 19 38 25 15 15 29 -15 22 -26 -6 -29 -4 -24 14 8
30 -25 28 -36 -1z"/>
<path d="M225 1730 c-4 -12 -5 -24 -2 -26 8 -8 47 20 44 31 -7 20 -35 16 -42
-5z"/>
<path d="M130 1721 c0 -12 29 -35 36 -28 11 10 -5 37 -21 37 -8 0 -15 -4 -15
-9z"/>
<path d="M170 1540 c0 -21 28 -75 46 -91 28 -24 77 -32 123 -19 47 12 52 30
16 54 -31 21 -35 20 -35 -4 0 -17 -7 -20 -38 -20 -41 0 -74 25 -87 68 -6 22
-25 31 -25 12z"/>
<path d="M116 1504 c-13 -27 -14 -40 -6 -48 16 -15 40 19 40 56 0 38 -13 35
-34 -8z"/>
<path d="M180 1270 c0 -38 -2 -40 -30 -40 -30 0 -30 -1 -30 -55 0 -64 17 -74
22 -13 2 33 7 44 22 46 18 4 19 3 3 -13 -21 -20 -22 -39 -2 -31 11 4 15 -1 15
-19 0 -14 5 -25 10 -25 6 0 10 14 10 30 0 27 2 29 20 18 12 -8 15 -15 8 -19
-13 -8 -2 -29 16 -29 16 0 26 31 26 83 0 35 -2 37 -30 37 -28 0 -30 3 -30 35
0 24 -5 35 -15 35 -11 0 -15 -11 -15 -40z m60 -66 c0 -17 -22 -14 -28 4 -2 7
3 12 12 12 9 0 16 -7 16 -16z"/>
<path d="M301 1288 c-19 -51 -22 -68 -12 -68 5 0 13 5 16 10 10 17 25 11 25
-10 0 -12 -7 -20 -16 -20 -10 0 -14 -6 -10 -15 3 -8 -4 -21 -16 -29 -31 -22
-15 -31 21 -13 27 14 31 13 47 -4 19 -21 44 -25 44 -9 0 6 -11 21 -24 33 -19
17 -23 29 -19 52 3 17 12 34 19 38 25 15 15 29 -15 22 -26 -6 -29 -4 -24 14 8
30 -25 28 -36 -1z"/>
<path d="M225 1280 c-4 -12 -5 -24 -2 -26 8 -8 47 20 44 31 -7 20 -35 16 -42
-5z"/>
<path d="M130 1271 c0 -12 29 -35 36 -28 11 10 -5 37 -21 37 -8 0 -15 -4 -15
-9z"/>
<path d="M170 1090 c0 -21 28 -75 46 -91 28 -24 77 -32 123 -19 47 12 52 30
16 54 -31 21 -35 20 -35 -4 0 -17 -7 -20 -38 -20 -41 0 -74 25 -87 68 -6 22
-25 31 -25 12z"/>
<path d="M240 1092 c0 -5 6 -17 14 -28 12 -15 17 -16 27 -7 10 10 9 15 -1 28
-13 16 -40 21 -40 7z"/>
<path d="M116 1054 c-13 -27 -14 -40 -6 -48 16 -15 40 19 40 56 0 38 -13 35
-34 -8z"/>
<path d="M180 820 c0 -38 -2 -40 -30 -40 -30 0 -30 -1 -30 -55 0 -64 17 -74
22 -13 2 33 7 44 22 46 18 4 19 3 3 -13 -21 -20 -22 -39 -2 -31 11 4 15 -1 15
-19 0 -14 5 -25 10 -25 6 0 10 14 10 30 0 27 2 29 20 18 12 -8 15 -15 8 -19
-13 -8 -2 -29 16 -29 16 0 26 31 26 83 0 35 -2 37 -30 37 -28 0 -30 3 -30 35
0 24 -5 35 -15 35 -11 0 -15 -11 -15 -40z m60 -66 c0 -17 -22 -14 -28 4 -2 7
3 12 12 12 9 0 16 -7 16 -16z"/>
<path d="M301 838 c-19 -51 -22 -68 -12 -68 5 0 13 5 16 10 10 17 25 11 25
-10 0 -12 -7 -20 -16 -20 -10 0 -14 -6 -10 -15 3 -8 -4 -21 -16 -29 -31 -22
-15 -31 21 -13 27 14 31 13 47 -4 19 -21 44 -25 44 -9 0 6 -11 21 -24 33 -19
17 -23 29 -19 52 3 17 12 34 19 38 25 15 15 29 -15 22 -26 -6 -29 -4 -24 14 8
30 -25 28 -36 -1z"/>
<path d="M225 830 c-4 -12 -5 -24 -2 -26 8 -8 47 20 44 31 -7 20 -35 16 -42
-5z"/>
<path d="M130 821 c0 -12 29 -35 36 -28 11 10 -5 37 -21 37 -8 0 -15 -4 -15
-9z"/>
<path d="M340 651 c0 -19 47 -64 58 -57 17 10 15 23 -8 46 -21 21 -50 27 -50
11z"/>
<path d="M170 640 c0 -21 28 -75 46 -91 28 -24 77 -32 123 -19 47 12 52 30 16
54 -31 21 -35 20 -35 -4 0 -17 -7 -20 -38 -20 -41 0 -74 25 -87 68 -6 22 -25
31 -25 12z"/>
<path d="M240 642 c0 -5 6 -17 14 -28 12 -15 17 -16 27 -7 10 10 9 15 -1 28
-13 16 -40 21 -40 7z"/>
<path d="M116 604 c-13 -27 -14 -40 -6 -48 16 -15 40 19 40 56 0 38 -13 35
-34 -8z"/>
</g>
</svg>
