<?xml version="1.0" standalone="no"?>
<!DOCTYPE svg PUBLIC "-//W3C//DTD SVG 20010904//EN"
 "http://www.w3.org/TR/2001/REC-SVG-20010904/DTD/svg10.dtd">
<svg version="1.0" xmlns="http://www.w3.org/2000/svg"
 width="50.000000pt" height="725.000000pt" viewBox="0 0 50.000000 725.000000"
 preserveAspectRatio="xMidYMid meet">
<metadata>
Created by potrace 1.16, written by Peter Selinger 2001-2019
</metadata>
<g transform="translate(0.000000,725.000000) scale(0.100000,-0.100000)"
fill="#000000" stroke="none">
<path d="M182 7130 c-67 -16 -57 -30 16 -23 33 4 51 10 49 17 -5 14 -24 16
-65 6z"/>
<path d="M182 6680 c-67 -16 -57 -30 16 -23 33 4 51 10 49 17 -5 14 -24 16
-65 6z"/>
<path d="M153 6618 c-49 -9 -74 -28 -37 -28 36 0 144 24 144 32 0 10 -39 9
-107 -4z"/>
<path d="M205 6235 c-5 -2 -22 -6 -37 -9 -16 -4 -28 -11 -28 -17 0 -6 9 -9 20
-6 15 4 20 0 20 -13 0 -13 -10 -20 -40 -25 -22 -4 -40 -11 -40 -17 0 -7 15 -9
40 -5 35 4 40 2 40 -14 0 -27 18 -24 22 4 2 16 11 23 31 25 34 4 36 22 2 22
-16 0 -25 6 -25 15 0 9 9 15 21 15 12 0 19 5 17 13 -5 12 -25 18 -43 12z"/>
<path d="M205 5785 c-5 -2 -22 -6 -37 -9 -16 -4 -28 -11 -28 -17 0 -6 9 -9 20
-6 15 4 20 0 20 -13 0 -13 -10 -20 -40 -25 -22 -4 -40 -11 -40 -17 0 -7 15 -9
40 -5 35 4 40 2 40 -14 0 -27 18 -24 22 4 2 16 11 23 31 25 34 4 36 22 2 22
-16 0 -25 6 -25 15 0 9 9 15 21 15 12 0 19 5 17 13 -5 12 -25 18 -43 12z"/>
<path d="M134 5653 c15 -55 18 -63 27 -63 5 0 9 8 9 18 0 34 -13 62 -27 62 -9
0 -12 -7 -9 -17z"/>
<path d="M205 5335 c-5 -2 -22 -6 -37 -9 -16 -4 -28 -11 -28 -17 0 -6 9 -9 20
-6 15 4 20 0 20 -13 0 -13 -10 -20 -40 -25 -22 -4 -40 -11 -40 -17 0 -7 15 -9
40 -5 30 4 40 2 40 -9 0 -8 -10 -14 -26 -14 -21 0 -24 -4 -20 -20 3 -11 9 -29
12 -40 8 -30 24 -24 24 10 0 17 4 30 9 30 5 0 16 3 25 6 12 5 16 0 16 -20 0
-32 15 -34 24 -3 10 39 7 47 -20 47 -34 0 -26 24 9 28 34 4 35 22 2 22 -16 0
-25 6 -25 15 0 9 9 15 21 15 12 0 19 5 17 13 -5 12 -25 18 -43 12z"/>
<path d="M205 4885 c-5 -2 -22 -6 -37 -9 -16 -4 -28 -11 -28 -17 0 -6 9 -9 20
-6 15 4 20 0 20 -13 0 -13 -10 -20 -40 -25 -22 -4 -40 -11 -40 -17 0 -7 15 -9
40 -5 30 4 40 2 40 -9 0 -8 -10 -14 -26 -14 -21 0 -24 -4 -20 -20 3 -11 8 -29
11 -39 5 -16 12 -18 48 -14 23 3 43 6 44 7 0 0 4 18 8 39 7 35 6 37 -20 37
-35 0 -28 24 8 28 34 4 35 22 2 22 -16 0 -25 6 -25 15 0 9 9 15 21 15 12 0 19
5 17 13 -5 12 -25 18 -43 12z m13 -142 c-4 -23 -48 -31 -48 -9 0 13 14 21 43
25 5 0 7 -7 5 -16z"/>
<path d="M302 4428 c-16 -43 -7 -48 26 -15 23 23 25 29 12 37 -22 14 -25 13
-38 -22z"/>
<path d="M205 4435 c-5 -2 -22 -6 -37 -9 -16 -4 -28 -11 -28 -17 0 -6 9 -9 20
-6 15 4 20 0 20 -13 0 -13 -10 -20 -40 -25 -22 -4 -40 -11 -40 -17 0 -7 15 -9
40 -5 30 4 40 2 40 -9 0 -8 -10 -14 -26 -14 -21 0 -24 -4 -20 -20 3 -11 8 -29
11 -39 5 -16 12 -18 48 -14 23 3 43 6 44 7 0 0 4 18 8 39 7 35 6 37 -20 37
-35 0 -28 24 8 28 34 4 35 22 2 22 -16 0 -25 6 -25 15 0 9 9 15 21 15 12 0 19
5 17 13 -5 12 -25 18 -43 12z m13 -142 c-4 -23 -48 -31 -48 -9 0 13 14 21 43
25 5 0 7 -7 5 -16z"/>
<path d="M310 3995 c0 -8 -8 -23 -19 -34 -14 -14 -19 -35 -20 -90 -1 -39 3
-71 7 -71 5 0 12 30 16 68 6 54 12 73 34 95 22 23 24 29 12 37 -21 14 -30 12
-30 -5z"/>
<path d="M205 3985 c-5 -2 -22 -6 -37 -9 -16 -4 -28 -11 -28 -17 0 -6 9 -9 20
-6 15 4 20 0 20 -13 0 -13 -10 -20 -40 -25 -22 -4 -40 -11 -40 -17 0 -7 15 -9
40 -5 30 4 40 2 40 -9 0 -8 -10 -14 -26 -14 -21 0 -24 -4 -20 -20 3 -11 8 -29
11 -39 5 -16 12 -18 48 -14 23 3 43 6 44 7 0 0 4 18 8 39 7 35 6 37 -20 37
-35 0 -28 24 8 28 34 4 35 22 2 22 -16 0 -25 6 -25 15 0 9 9 15 21 15 12 0 19
5 17 13 -5 12 -25 18 -43 12z m13 -142 c-4 -23 -48 -31 -48 -9 0 13 14 21 43
25 5 0 7 -7 5 -16z"/>
<path d="M310 3545 c0 -8 -8 -23 -19 -34 -14 -14 -19 -35 -20 -90 -2 -88 14
-94 23 -8 3 34 11 64 16 65 6 2 10 9 10 15 0 6 8 19 17 29 15 17 15 20 3 28
-21 14 -30 12 -30 -5z"/>
<path d="M205 3535 c-5 -2 -22 -6 -37 -9 -16 -4 -28 -11 -28 -17 0 -6 9 -9 20
-6 15 4 20 0 20 -13 0 -13 -10 -20 -40 -25 -22 -4 -40 -11 -40 -17 0 -7 15 -9
40 -5 30 4 40 2 40 -9 0 -8 -10 -14 -26 -14 -21 0 -24 -4 -20 -20 3 -11 8 -29
11 -39 5 -16 12 -18 48 -14 23 3 43 6 44 7 0 0 4 18 8 39 7 35 6 37 -20 37
-35 0 -28 24 8 28 34 4 35 22 2 22 -16 0 -25 6 -25 15 0 9 9 15 21 15 12 0 19
5 17 13 -5 12 -25 18 -43 12z m13 -142 c-4 -23 -48 -31 -48 -9 0 13 14 21 43
25 5 0 7 -7 5 -16z"/>
<path d="M330 3505 c0 -4 7 -14 16 -22 11 -12 15 -31 12 -71 -2 -38 1 -57 10
-59 8 -3 12 12 14 56 1 34 2 69 2 79 1 11 -8 18 -26 20 -16 2 -28 0 -28 -3z"/>
<path d="M310 3095 c0 -8 -8 -23 -19 -34 -14 -14 -19 -35 -20 -90 -1 -76 16
-100 21 -28 2 35 7 43 26 45 27 4 29 22 2 22 -11 0 -20 5 -20 10 0 6 5 10 10
10 6 0 10 5 10 12 0 6 8 20 17 30 15 17 15 20 3 28 -21 14 -30 12 -30 -5z"/>
<path d="M205 3085 c-5 -2 -22 -6 -37 -9 -16 -4 -28 -11 -28 -17 0 -6 9 -9 20
-6 15 4 20 0 20 -13 0 -13 -10 -20 -40 -25 -22 -4 -40 -11 -40 -17 0 -7 15 -9
40 -5 30 4 40 2 40 -9 0 -8 -10 -14 -26 -14 -21 0 -24 -4 -20 -20 3 -11 8 -29
11 -39 5 -16 12 -18 48 -14 23 3 43 6 44 7 0 0 4 18 8 39 7 35 6 37 -20 37
-35 0 -28 24 8 28 34 4 35 22 2 22 -16 0 -25 6 -25 15 0 9 9 15 21 15 12 0 19
5 17 13 -5 12 -25 18 -43 12z m13 -142 c-4 -23 -48 -31 -48 -9 0 13 14 21 43
25 5 0 7 -7 5 -16z"/>
<path d="M330 3051 c0 -5 5 -11 11 -13 7 -2 12 -31 13 -68 3 -86 25 -95 28
-11 1 34 2 69 2 79 1 11 -8 18 -26 20 -16 2 -28 -1 -28 -7z"/>
<path d="M310 2645 c0 -8 -8 -23 -19 -34 -14 -14 -19 -35 -20 -90 -1 -42 3
-71 9 -71 5 0 11 12 12 28 0 15 1 34 2 42 1 8 11 16 24 18 27 4 29 22 2 22
-11 0 -20 5 -20 10 0 6 5 10 10 10 6 0 10 5 10 12 0 6 8 20 17 30 15 17 15 20
3 28 -21 14 -30 12 -30 -5z"/>
<path d="M205 2635 c-5 -2 -22 -6 -37 -9 -16 -4 -28 -11 -28 -17 0 -6 9 -9 20
-6 15 4 20 0 20 -13 0 -13 -10 -20 -40 -25 -22 -4 -40 -11 -40 -17 0 -7 15 -9
40 -5 30 4 40 2 40 -9 0 -8 -10 -14 -26 -14 -21 0 -24 -4 -20 -20 3 -11 8 -29
11 -39 5 -16 12 -18 48 -14 23 3 43 6 44 7 0 0 4 18 8 39 7 35 6 37 -20 37
-35 0 -28 24 8 28 34 4 35 22 2 22 -16 0 -25 6 -25 15 0 9 9 15 21 15 12 0 19
5 17 13 -5 12 -25 18 -43 12z m13 -142 c-4 -23 -48 -31 -48 -9 0 13 14 21 43
25 5 0 7 -7 5 -16z"/>
<path d="M330 2601 c0 -6 4 -11 9 -11 5 0 11 -13 13 -30 4 -24 1 -30 -14 -30
-10 0 -18 -4 -18 -10 0 -5 9 -10 19 -10 15 0 19 -6 18 -26 -1 -15 4 -29 11
-31 9 -3 12 12 14 56 1 34 2 69 2 79 1 11 -8 18 -26 20 -16 2 -28 -1 -28 -7z"/>
<path d="M310 2195 c0 -8 -8 -23 -19 -34 -14 -14 -19 -35 -20 -89 l-1 -72 32
7 c18 3 35 7 37 9 2 2 10 -1 18 -8 7 -6 15 -9 17 -7 2 2 5 38 7 79 l4 75 -27
3 c-16 2 -28 -1 -28 -7 0 -6 4 -11 9 -11 5 0 11 -13 13 -30 4 -24 1 -30 -14
-30 -10 0 -18 -4 -18 -10 0 -5 9 -10 20 -10 27 0 25 -16 -2 -24 -40 -10 -47
-7 -44 22 2 19 10 28 25 30 27 4 28 22 1 22 -11 0 -20 5 -20 10 0 6 5 10 10
10 6 0 10 5 10 12 0 6 8 20 17 30 15 17 15 20 3 28 -21 14 -30 12 -30 -5z"/>
<path d="M205 2185 c-5 -2 -22 -6 -37 -9 -16 -4 -28 -11 -28 -17 0 -6 9 -9 20
-6 15 4 20 0 20 -13 0 -13 -10 -20 -40 -25 -22 -4 -40 -11 -40 -17 0 -7 15 -9
40 -5 30 4 40 2 40 -9 0 -8 -10 -14 -26 -14 -21 0 -24 -4 -20 -20 3 -11 8 -29
11 -39 5 -16 12 -18 48 -14 23 3 43 6 44 7 0 0 4 18 8 39 7 35 6 37 -20 37
-35 0 -28 24 8 28 34 4 35 22 2 22 -16 0 -25 6 -25 15 0 9 9 15 21 15 12 0 19
5 17 13 -5 12 -25 18 -43 12z m13 -142 c-4 -23 -48 -31 -48 -9 0 13 14 21 43
25 5 0 7 -7 5 -16z"/>
<path d="M310 1745 c0 -8 -8 -23 -19 -34 -14 -14 -19 -35 -20 -89 l-1 -72 32
7 c18 3 35 7 37 9 2 2 10 -1 18 -8 7 -6 15 -9 17 -7 2 2 5 38 7 79 l4 75 -27
3 c-16 2 -28 -1 -28 -7 0 -6 4 -11 9 -11 5 0 11 -13 13 -30 4 -24 1 -30 -14
-30 -10 0 -18 -4 -18 -10 0 -5 9 -10 20 -10 27 0 25 -16 -2 -24 -40 -10 -47
-7 -44 22 2 19 10 28 25 30 27 4 28 22 1 22 -11 0 -20 5 -20 10 0 6 5 10 10
10 6 0 10 5 10 12 0 6 8 20 17 30 15 17 15 20 3 28 -21 14 -30 12 -30 -5z"/>
<path d="M205 1735 c-5 -2 -22 -6 -37 -9 -16 -4 -28 -11 -28 -17 0 -6 9 -9 20
-6 15 4 20 0 20 -13 0 -13 -10 -20 -40 -25 -22 -4 -40 -11 -40 -17 0 -7 15 -9
40 -5 30 4 40 2 40 -9 0 -8 -10 -14 -26 -14 -21 0 -24 -4 -20 -20 3 -11 8 -29
11 -39 5 -16 12 -18 48 -14 23 3 43 6 44 7 0 0 4 18 8 39 7 35 6 37 -20 37
-35 0 -28 24 8 28 34 4 35 22 2 22 -16 0 -25 6 -25 15 0 9 9 15 21 15 12 0 19
5 17 13 -5 12 -25 18 -43 12z m13 -142 c-4 -23 -48 -31 -48 -9 0 13 14 21 43
25 5 0 7 -7 5 -16z"/>
<path d="M120 1489 c-10 -23 -10 -33 -1 -42 15 -15 31 7 31 46 0 36 -14 34
-30 -4z"/>
<path d="M310 1295 c0 -8 -8 -23 -19 -34 -14 -14 -19 -35 -20 -89 l-1 -72 32
7 c18 3 35 7 37 9 2 2 10 -1 18 -8 7 -6 15 -9 17 -7 2 2 5 38 7 79 l4 75 -27
3 c-16 2 -28 -1 -28 -7 0 -6 4 -11 9 -11 5 0 11 -13 13 -30 4 -24 1 -30 -14
-30 -10 0 -18 -4 -18 -10 0 -5 9 -10 20 -10 27 0 25 -16 -2 -24 -40 -10 -47
-7 -44 22 2 19 10 28 25 30 27 4 28 22 1 22 -11 0 -20 5 -20 10 0 6 5 10 10
10 6 0 10 5 10 12 0 6 8 20 17 30 15 17 15 20 3 28 -21 14 -30 12 -30 -5z"/>
<path d="M205 1285 c-5 -2 -22 -6 -37 -9 -16 -4 -28 -11 -28 -17 0 -6 9 -9 20
-6 15 4 20 0 20 -13 0 -13 -10 -20 -40 -25 -22 -4 -40 -11 -40 -17 0 -7 15 -9
40 -5 30 4 40 2 40 -9 0 -8 -10 -14 -26 -14 -21 0 -24 -4 -20 -20 3 -11 8 -29
11 -39 5 -16 12 -18 48 -14 23 3 43 6 44 7 0 0 4 18 8 39 7 35 6 37 -20 37
-35 0 -28 24 8 28 34 4 35 22 2 22 -16 0 -25 6 -25 15 0 9 9 15 21 15 12 0 19
5 17 13 -5 12 -25 18 -43 12z m13 -142 c-4 -23 -48 -31 -48 -9 0 13 14 21 43
25 5 0 7 -7 5 -16z"/>
<path d="M180 1060 c0 -50 80 -89 157 -77 53 9 63 24 33 47 -32 25 -36 25 -43
0 -10 -38 -108 -14 -122 30 -8 26 -25 26 -25 0z"/>
<path d="M120 1039 c-10 -23 -10 -33 -1 -42 15 -15 31 7 31 46 0 36 -14 34
-30 -4z"/>
<path d="M310 845 c0 -8 -8 -23 -19 -34 -14 -14 -19 -35 -20 -89 l-1 -72 32 7
c18 3 35 7 37 9 2 2 10 -1 18 -8 7 -6 15 -9 17 -7 2 2 5 38 7 79 l4 75 -27 3
c-16 2 -28 -1 -28 -7 0 -6 4 -11 9 -11 5 0 11 -13 13 -30 4 -24 1 -30 -14 -30
-10 0 -18 -4 -18 -10 0 -5 9 -10 20 -10 27 0 25 -16 -2 -24 -40 -10 -47 -7
-44 22 2 19 10 28 25 30 27 4 28 22 1 22 -11 0 -20 5 -20 10 0 6 5 10 10 10 6
0 10 5 10 12 0 6 8 20 17 30 15 17 15 20 3 28 -21 14 -30 12 -30 -5z"/>
<path d="M205 835 c-5 -2 -22 -6 -37 -9 -16 -4 -28 -11 -28 -17 0 -6 9 -9 20
-6 15 4 20 0 20 -13 0 -13 -10 -20 -40 -25 -22 -4 -40 -11 -40 -17 0 -7 15 -9
40 -5 30 4 40 2 40 -9 0 -8 -10 -14 -26 -14 -21 0 -24 -4 -20 -20 3 -11 8 -28
11 -39 5 -15 13 -18 48 -14 39 5 44 3 55 -21 6 -14 18 -26 27 -26 24 0 17 29
-11 42 -22 11 -24 16 -19 50 6 36 5 38 -20 38 -35 0 -28 24 8 28 34 4 35 22 2
22 -16 0 -25 6 -25 15 0 9 9 15 21 15 12 0 19 5 17 13 -5 12 -25 18 -43 12z
m13 -142 c-4 -23 -48 -31 -48 -9 0 13 14 21 43 25 5 0 7 -7 5 -16z"/>
<path d="M180 610 c0 -50 80 -89 157 -77 53 9 63 24 33 47 -32 25 -36 25 -43
0 -10 -38 -108 -14 -122 30 -8 26 -25 26 -25 0z"/>
<path d="M120 589 c-10 -23 -10 -33 -1 -42 15 -15 31 7 31 46 0 36 -14 34 -30
-4z"/>
<path d="M310 395 c0 -8 -8 -23 -19 -34 -14 -14 -19 -35 -20 -89 l-1 -72 32 7
c18 3 35 7 37 9 2 2 10 -1 18 -8 7 -6 15 -9 17 -7 2 2 5 38 7 79 l4 75 -27 3
c-16 2 -28 -1 -28 -7 0 -6 4 -11 9 -11 5 0 11 -13 13 -30 4 -24 1 -30 -14 -30
-10 0 -18 -4 -18 -10 0 -5 9 -10 20 -10 27 0 25 -16 -2 -24 -40 -10 -47 -7
-44 22 2 19 10 28 25 30 27 4 28 22 1 22 -11 0 -20 5 -20 10 0 6 5 10 10 10 6
0 10 5 10 12 0 6 8 20 17 30 15 17 15 20 3 28 -21 14 -30 12 -30 -5z"/>
<path d="M205 385 c-5 -2 -22 -6 -37 -9 -16 -4 -28 -11 -28 -17 0 -6 9 -9 20
-6 15 4 20 0 20 -13 0 -13 -10 -20 -40 -25 -22 -4 -40 -11 -40 -17 0 -7 15 -9
40 -5 30 4 40 2 40 -9 0 -8 -10 -14 -26 -14 -21 0 -24 -4 -20 -20 3 -11 8 -28
11 -39 5 -15 13 -18 48 -14 39 5 44 3 55 -21 6 -14 18 -26 27 -26 24 0 17 29
-11 42 -22 11 -24 16 -19 50 6 36 5 38 -20 38 -35 0 -28 24 8 28 34 4 35 22 2
22 -16 0 -25 6 -25 15 0 9 9 15 21 15 12 0 19 5 17 13 -5 12 -25 18 -43 12z
m13 -142 c-4 -23 -48 -31 -48 -9 0 13 14 21 43 25 5 0 7 -7 5 -16z"/>
<path d="M350 182 c0 -12 34 -42 48 -42 19 0 14 28 -7 40 -24 12 -41 13 -41 2z"/>
<path d="M180 160 c0 -50 80 -89 157 -77 53 9 63 24 33 47 -32 25 -36 25 -43
0 -10 -38 -108 -14 -122 30 -8 26 -25 26 -25 0z"/>
<path d="M120 139 c-10 -23 -10 -33 -1 -42 15 -15 31 7 31 46 0 36 -14 34 -30
-4z"/>
</g>
</svg>
