<?xml version="1.0" standalone="no"?>
<!DOCTYPE svg PUBLIC "-//W3C//DTD SVG 20010904//EN"
 "http://www.w3.org/TR/2001/REC-SVG-20010904/DTD/svg10.dtd">
<svg version="1.0" xmlns="http://www.w3.org/2000/svg"
 width="95.000000pt" height="725.000000pt" viewBox="0 0 95.000000 725.000000"
 preserveAspectRatio="xMidYMid meet">
<metadata>
Created by potrace 1.16, written by Peter Selinger 2001-2019
</metadata>
<g transform="translate(0.000000,725.000000) scale(0.100000,-0.100000)"
fill="#000000" stroke="none">
<path d="M253 7140 c4 -16 0 -20 -18 -20 -12 0 -35 -3 -51 -6 -28 -5 -29 -7
-30 -68 -1 -49 -8 -76 -32 -126 -18 -35 -29 -66 -26 -69 11 -11 55 53 67 97 6
24 20 48 29 53 16 9 17 5 11 -36 -3 -28 -2 -45 4 -45 6 0 16 -14 23 -31 19
-44 52 -62 116 -62 69 0 89 16 54 43 -30 23 -44 25 -37 6 16 -41 -91 -23 -113
19 -7 14 -17 25 -21 25 -9 0 -3 110 7 148 11 38 -19 26 -37 -16 l-17 -37 6 40
c2 22 6 41 7 42 1 2 43 6 94 10 60 4 90 10 88 17 -2 6 -21 10 -44 8 -29 -2
-42 1 -46 12 -10 24 -40 20 -34 -4z"/>
<path d="M702 7144 c2 -11 11 -20 22 -22 13 -3 17 1 14 14 -2 11 -11 20 -22
22 -13 3 -17 -1 -14 -14z"/>
<path d="M252 7063 c-12 -26 -14 -37 -5 -40 8 -3 10 -20 6 -55 -5 -41 -3 -50
8 -46 8 3 14 15 13 27 0 16 5 21 25 20 14 0 20 -3 14 -6 -29 -11 -10 -23 37
-23 28 0 50 5 50 10 0 6 -13 10 -30 10 -16 0 -30 5 -30 10 0 6 9 10 20 10 27
0 25 18 -2 23 l-23 4 23 2 c12 0 22 6 22 11 0 6 -10 10 -22 11 l-23 0 23 11
c27 13 29 32 3 25 -12 -3 -22 1 -25 9 -7 19 -26 18 -26 -1 0 -8 -4 -15 -9 -15
-5 0 -7 9 -4 20 9 36 -26 23 -45 -17z m58 -48 c0 -17 -5 -25 -17 -25 -16 0
-16 2 -3 11 11 8 12 12 3 16 -18 7 -16 23 2 23 9 0 15 -9 15 -25z"/>
<path d="M370 6922 c0 -12 34 -42 48 -42 23 0 12 31 -14 40 -31 12 -34 12 -34
2z"/>
<path d="M290 6911 c0 -12 29 -35 36 -28 11 10 -5 37 -21 37 -8 0 -15 -4 -15
-9z"/>
<path d="M167 6893 c-4 -3 -7 -17 -7 -30 0 -33 24 -24 28 10 3 26 -7 35 -21
20z"/>
<path d="M703 6691 c4 -16 -2 -19 -40 -24 -43 -5 -61 -12 -52 -22 3 -2 32 0
65 5 32 6 81 10 107 10 35 0 47 4 44 13 -2 7 -19 11 -44 9 -29 -2 -42 1 -46
12 -9 24 -41 21 -34 -3z"/>
<path d="M703 6240 c4 -16 0 -20 -18 -20 -12 0 -35 -3 -51 -6 -28 -5 -29 -7
-30 -68 -1 -49 -8 -76 -32 -126 -35 -70 -33 -91 4 -45 27 33 50 101 60 175 l6
47 52 7 c28 3 71 6 94 6 31 0 42 4 39 13 -2 7 -19 11 -44 9 -29 -2 -42 1 -46
12 -10 24 -40 20 -34 -4z"/>
<path d="M703 5790 c4 -16 0 -20 -18 -20 -12 0 -35 -3 -51 -6 -28 -5 -29 -7
-30 -68 -1 -49 -8 -76 -32 -126 -18 -35 -29 -66 -26 -69 10 -10 54 52 66 94 6
22 18 46 26 52 21 17 52 65 52 81 0 26 -26 10 -41 -26 l-17 -37 6 40 c2 22 6
41 7 42 1 2 43 6 94 10 60 4 90 10 88 17 -2 6 -21 10 -44 8 -29 -2 -42 1 -46
12 -10 24 -40 20 -34 -4z"/>
<path d="M703 5340 c4 -16 0 -20 -18 -20 -12 0 -35 -3 -51 -6 -28 -5 -29 -7
-30 -68 -1 -49 -8 -76 -32 -126 -18 -35 -29 -66 -26 -69 11 -11 55 53 67 97 6
24 20 48 29 53 16 9 17 5 11 -36 -3 -28 -2 -45 5 -45 9 0 21 65 21 110 0 8 3
25 6 38 12 38 -18 26 -36 -16 l-17 -37 6 40 c2 22 6 41 7 42 1 2 43 6 94 10
60 4 90 10 88 17 -2 6 -21 10 -44 8 -29 -2 -42 1 -46 12 -10 24 -40 20 -34 -4z"/>
<path d="M703 4890 c4 -16 0 -20 -18 -20 -12 0 -35 -3 -51 -6 -28 -5 -29 -7
-30 -68 -1 -49 -8 -76 -32 -126 -18 -35 -29 -66 -26 -69 11 -11 55 53 67 97 6
24 20 48 29 53 16 9 17 5 11 -36 -3 -28 -2 -45 5 -45 9 0 21 65 21 110 0 8 3
25 6 38 12 38 -18 26 -36 -16 l-17 -37 6 40 c2 22 6 41 7 42 1 2 43 6 94 10
60 4 90 10 88 17 -2 6 -21 10 -44 8 -29 -2 -42 1 -46 12 -10 24 -40 20 -34 -4z"/>
<path d="M703 4815 c-9 -19 -13 -38 -9 -42 8 -8 55 46 56 65 0 26 -31 11 -47
-23z"/>
<path d="M703 4440 c4 -16 0 -20 -18 -20 -12 0 -35 -3 -51 -6 -28 -5 -29 -7
-30 -68 -1 -49 -8 -76 -32 -126 -18 -35 -29 -66 -26 -69 11 -11 55 53 67 97 6
24 20 48 29 53 16 9 17 5 11 -36 -3 -28 -2 -45 5 -45 9 0 21 65 21 110 0 8 3
25 6 38 12 38 -18 26 -36 -16 l-17 -37 6 40 c2 22 6 41 7 42 1 2 43 6 94 10
60 4 90 10 88 17 -2 6 -21 10 -44 8 -29 -2 -42 1 -46 12 -10 24 -40 20 -34 -4z"/>
<path d="M702 4363 c-12 -26 -14 -37 -5 -40 8 -3 10 -20 6 -54 -4 -33 -2 -49
6 -49 10 0 12 16 16 103 1 15 7 33 13 39 17 17 15 38 -3 38 -9 0 -23 -16 -33
-37z"/>
<path d="M703 3990 c4 -16 0 -20 -18 -20 -12 0 -35 -3 -51 -6 -28 -5 -29 -7
-30 -68 -1 -49 -8 -76 -32 -126 -18 -35 -29 -66 -26 -69 11 -11 55 53 67 97 6
24 20 48 29 53 16 9 17 5 11 -36 -3 -28 -2 -45 5 -45 9 0 21 65 21 110 0 8 3
25 6 38 12 38 -18 26 -36 -16 l-17 -37 6 40 c2 22 6 41 7 42 1 2 43 6 94 10
60 4 90 10 88 17 -2 6 -21 10 -44 8 -29 -2 -42 1 -46 12 -10 24 -40 20 -34 -4z"/>
<path d="M702 3913 c-12 -26 -14 -37 -5 -40 8 -3 10 -20 6 -54 -4 -33 -2 -49
6 -49 10 0 12 16 16 103 1 15 7 33 13 39 17 17 15 38 -3 38 -9 0 -23 -16 -33
-37z"/>
<path d="M762 3924 c1 -9 9 -19 16 -22 9 -3 13 2 10 14 -1 9 -9 19 -16 22 -9
3 -13 -2 -10 -14z"/>
<path d="M703 3540 c4 -16 0 -20 -18 -20 -12 0 -35 -3 -51 -6 -28 -5 -29 -7
-30 -68 -1 -49 -8 -76 -32 -126 -18 -35 -29 -66 -26 -69 11 -11 55 53 67 97 6
24 20 48 29 53 16 9 17 5 11 -36 -3 -28 -2 -45 5 -45 9 0 21 65 21 110 0 8 3
25 6 38 12 38 -18 26 -36 -16 l-17 -37 6 40 c2 22 6 41 7 42 1 2 43 6 94 10
60 4 90 10 88 17 -2 6 -21 10 -44 8 -29 -2 -42 1 -46 12 -10 24 -40 20 -34 -4z"/>
<path d="M702 3463 c-12 -26 -14 -37 -5 -40 8 -3 10 -20 6 -54 -4 -30 -2 -49
4 -49 6 0 13 27 17 60 l7 60 34 0 c18 0 40 3 49 6 23 9 20 27 -3 21 -12 -3
-22 1 -25 9 -7 19 -26 18 -26 -1 0 -8 -4 -15 -9 -15 -5 0 -7 9 -4 20 9 36 -26
23 -45 -17z"/>
<path d="M703 3090 c4 -16 0 -20 -18 -20 -12 0 -35 -3 -51 -6 -28 -5 -29 -7
-30 -68 -1 -49 -8 -76 -32 -126 -18 -35 -29 -66 -26 -69 11 -11 55 53 67 97 6
24 20 48 29 53 16 9 17 5 11 -36 -3 -28 -2 -45 5 -45 9 0 21 65 21 110 0 8 3
25 6 38 12 38 -18 26 -36 -16 l-17 -37 6 40 c2 22 6 41 7 42 1 2 43 6 94 10
60 4 90 10 88 17 -2 6 -21 10 -44 8 -29 -2 -42 1 -46 12 -10 24 -40 20 -34 -4z"/>
<path d="M702 3013 c-12 -26 -14 -37 -5 -40 8 -3 10 -20 6 -54 -4 -33 -2 -49
6 -49 6 0 11 15 11 35 0 21 6 38 18 45 12 8 13 13 5 16 -25 11 -13 24 21 24
19 0 41 3 50 6 23 9 20 27 -3 21 -12 -3 -22 1 -25 9 -7 19 -26 18 -26 -1 0 -8
-4 -15 -9 -15 -5 0 -7 9 -4 20 9 36 -26 23 -45 -17z"/>
<path d="M760 2970 c0 -5 16 -10 35 -10 19 0 35 5 35 10 0 6 -16 10 -35 10
-19 0 -35 -4 -35 -10z"/>
<path d="M703 2640 c4 -16 0 -20 -18 -20 -12 0 -35 -3 -51 -6 -28 -5 -29 -7
-30 -68 -1 -49 -8 -76 -32 -126 -18 -35 -29 -66 -26 -69 11 -11 55 53 67 97 6
24 20 48 29 53 16 9 17 5 11 -36 -3 -28 -2 -45 5 -45 9 0 21 65 21 110 0 8 3
25 6 38 12 38 -18 26 -36 -16 l-17 -37 6 40 c2 22 6 41 7 42 1 2 43 6 94 10
60 4 90 10 88 17 -2 6 -21 10 -44 8 -29 -2 -42 1 -46 12 -10 24 -40 20 -34 -4z"/>
<path d="M702 2563 c-12 -26 -14 -37 -5 -40 8 -3 10 -20 6 -54 -4 -33 -2 -49
6 -49 6 0 11 11 11 25 0 18 5 25 20 25 11 0 20 5 20 10 0 6 -8 10 -17 10 -16
0 -16 2 -3 11 11 8 12 12 3 16 -25 10 -12 23 21 23 19 0 41 3 50 6 23 9 20 27
-3 21 -12 -3 -22 1 -25 9 -7 19 -26 18 -26 -1 0 -8 -4 -15 -9 -15 -5 0 -7 9
-4 20 9 36 -26 23 -45 -17z"/>
<path d="M760 2520 c0 -5 16 -10 35 -10 19 0 35 5 35 10 0 6 -16 10 -35 10
-19 0 -35 -4 -35 -10z"/>
<path d="M770 2490 c0 -5 14 -10 30 -10 17 0 30 5 30 10 0 6 -13 10 -30 10
-16 0 -30 -4 -30 -10z"/>
<path d="M703 2190 c4 -16 0 -20 -18 -20 -12 0 -35 -3 -51 -6 -28 -5 -29 -7
-30 -68 -1 -49 -8 -76 -32 -126 -18 -35 -29 -66 -26 -69 11 -11 55 53 67 97 6
24 20 48 29 53 16 9 17 5 11 -36 -3 -28 -2 -45 5 -45 9 0 21 65 21 110 0 8 3
25 6 38 12 38 -18 26 -36 -16 l-17 -37 6 40 c2 22 6 41 7 42 1 2 43 6 94 10
60 4 90 10 88 17 -2 6 -21 10 -44 8 -29 -2 -42 1 -46 12 -10 24 -40 20 -34 -4z"/>
<path d="M702 2113 c-12 -26 -14 -37 -5 -40 8 -3 10 -20 6 -54 -4 -33 -2 -49
6 -49 6 0 11 11 11 25 0 20 5 25 25 25 14 0 25 -4 25 -10 0 -5 5 -10 10 -10 6
0 10 7 10 15 0 8 9 15 20 15 27 0 25 18 -2 23 l-23 4 23 2 c12 0 22 6 22 11 0
6 -10 10 -22 11 l-23 0 23 11 c27 13 29 32 3 25 -12 -3 -22 1 -25 9 -7 19 -26
18 -26 -1 0 -8 -4 -15 -9 -15 -5 0 -7 9 -4 20 9 36 -26 23 -45 -17z m58 -48
c0 -17 -5 -25 -17 -25 -16 0 -16 2 -3 11 11 8 12 12 3 16 -18 7 -16 23 2 23 9
0 15 -9 15 -25z"/>
<path d="M703 1740 c4 -16 0 -20 -18 -20 -12 0 -35 -3 -51 -6 -28 -5 -29 -7
-30 -68 -1 -49 -8 -76 -32 -126 -18 -35 -29 -66 -26 -69 11 -11 55 53 67 97 6
24 20 48 29 53 16 9 17 5 11 -36 -3 -28 -2 -45 5 -45 9 0 21 65 21 110 0 8 3
25 6 38 12 38 -18 26 -36 -16 l-17 -37 6 40 c2 22 6 41 7 42 1 2 43 6 94 10
60 4 90 10 88 17 -2 6 -21 10 -44 8 -29 -2 -42 1 -46 12 -10 24 -40 20 -34 -4z"/>
<path d="M702 1663 c-12 -26 -14 -37 -5 -40 8 -3 10 -20 6 -55 -5 -41 -3 -50
8 -46 8 3 14 15 13 27 0 16 5 21 25 20 14 0 20 -3 14 -6 -29 -11 -10 -23 37
-23 28 0 50 5 50 10 0 6 -13 10 -30 10 -16 0 -30 5 -30 10 0 6 9 10 20 10 27
0 25 18 -2 23 l-23 4 23 2 c12 0 22 6 22 11 0 6 -10 10 -22 11 l-23 0 23 11
c27 13 29 32 3 25 -12 -3 -22 1 -25 9 -7 19 -26 18 -26 -1 0 -8 -4 -15 -9 -15
-5 0 -7 9 -4 20 9 36 -26 23 -45 -17z m58 -48 c0 -17 -5 -25 -17 -25 -16 0
-16 2 -3 11 11 8 12 12 3 16 -18 7 -16 23 2 23 9 0 15 -9 15 -25z"/>
<path d="M703 1290 c4 -16 0 -20 -18 -20 -12 0 -35 -3 -51 -6 -28 -5 -29 -7
-30 -68 -1 -49 -8 -76 -32 -126 -18 -35 -29 -66 -26 -69 11 -11 55 53 67 97 6
24 20 48 29 53 16 9 17 5 11 -36 -3 -28 -2 -45 5 -45 9 0 21 65 21 110 0 8 3
25 6 38 12 38 -18 26 -36 -16 l-17 -37 6 40 c2 22 6 41 7 42 1 2 43 6 94 10
60 4 90 10 88 17 -2 6 -21 10 -44 8 -29 -2 -42 1 -46 12 -10 24 -40 20 -34 -4z"/>
<path d="M702 1213 c-12 -26 -14 -37 -5 -40 8 -3 10 -20 6 -55 -5 -41 -3 -50
8 -46 8 3 14 15 13 27 0 16 5 21 25 20 14 0 20 -3 14 -6 -29 -11 -10 -23 37
-23 28 0 50 5 50 10 0 6 -13 10 -30 10 -16 0 -30 5 -30 10 0 6 9 10 20 10 27
0 25 18 -2 23 l-23 4 23 2 c12 0 22 6 22 11 0 6 -10 10 -22 11 l-23 0 23 11
c27 13 29 32 3 25 -12 -3 -22 1 -25 9 -7 19 -26 18 -26 -1 0 -8 -4 -15 -9 -15
-5 0 -7 9 -4 20 9 36 -26 23 -45 -17z m58 -48 c0 -17 -5 -25 -17 -25 -16 0
-16 2 -3 11 11 8 12 12 3 16 -18 7 -16 23 2 23 9 0 15 -9 15 -25z"/>
<path d="M617 1043 c-4 -3 -7 -17 -7 -30 0 -33 24 -24 28 10 3 26 -7 35 -21
20z"/>
<path d="M703 840 c4 -16 0 -20 -18 -20 -12 0 -35 -3 -51 -6 -28 -5 -29 -7
-30 -68 -1 -49 -8 -76 -32 -126 -18 -35 -29 -66 -26 -69 11 -11 55 53 67 97 6
24 20 48 29 53 16 9 17 5 11 -36 -3 -28 -2 -45 4 -45 6 0 16 -14 23 -31 19
-44 52 -62 116 -62 69 0 89 16 54 43 -30 23 -44 25 -37 6 16 -41 -91 -23 -113
19 -7 14 -17 25 -21 25 -9 0 -3 110 7 148 11 38 -19 26 -37 -16 l-17 -37 6 40
c2 22 6 41 7 42 1 2 43 6 94 10 60 4 90 10 88 17 -2 6 -21 10 -44 8 -29 -2
-42 1 -46 12 -10 24 -40 20 -34 -4z"/>
<path d="M702 763 c-12 -26 -14 -37 -5 -40 8 -3 10 -20 6 -55 -5 -41 -3 -50 8
-46 8 3 14 15 13 27 0 16 5 21 25 20 14 0 20 -3 14 -6 -29 -11 -10 -23 37 -23
28 0 50 5 50 10 0 6 -13 10 -30 10 -16 0 -30 5 -30 10 0 6 9 10 20 10 27 0 25
18 -2 23 l-23 4 23 2 c12 0 22 6 22 11 0 6 -10 10 -22 11 l-23 0 23 11 c27 13
29 32 3 25 -12 -3 -22 1 -25 9 -7 19 -26 18 -26 -1 0 -8 -4 -15 -9 -15 -5 0
-7 9 -4 20 9 36 -26 23 -45 -17z m58 -48 c0 -17 -5 -25 -17 -25 -16 0 -16 2
-3 11 11 8 12 12 3 16 -18 7 -16 23 2 23 9 0 15 -9 15 -25z"/>
<path d="M617 593 c-4 -3 -7 -17 -7 -30 0 -33 24 -24 28 10 3 26 -7 35 -21 20z"/>
<path d="M703 390 c4 -16 0 -20 -18 -20 -12 0 -35 -3 -51 -6 -28 -5 -29 -7
-30 -68 -1 -49 -8 -76 -32 -126 -18 -35 -29 -66 -26 -69 11 -11 55 53 67 97 6
24 20 48 29 53 16 9 17 5 11 -36 -3 -28 -2 -45 4 -45 6 0 16 -14 23 -31 19
-44 52 -62 116 -62 69 0 89 16 54 43 -30 23 -44 25 -37 6 16 -41 -91 -23 -113
19 -7 14 -17 25 -21 25 -9 0 -3 110 7 148 11 38 -19 26 -37 -16 l-17 -37 6 40
c2 22 6 41 7 42 1 2 43 6 94 10 60 4 90 10 88 17 -2 6 -21 10 -44 8 -29 -2
-42 1 -46 12 -10 24 -40 20 -34 -4z"/>
<path d="M702 313 c-12 -26 -14 -37 -5 -40 8 -3 10 -20 6 -55 -5 -41 -3 -50 8
-46 8 3 14 15 13 27 0 16 5 21 25 20 14 0 20 -3 14 -6 -29 -11 -10 -23 37 -23
28 0 50 5 50 10 0 6 -13 10 -30 10 -16 0 -30 5 -30 10 0 6 9 10 20 10 27 0 25
18 -2 23 l-23 4 23 2 c12 0 22 6 22 11 0 6 -10 10 -22 11 l-23 0 23 11 c27 13
29 32 3 25 -12 -3 -22 1 -25 9 -7 19 -26 18 -26 -1 0 -8 -4 -15 -9 -15 -5 0
-7 9 -4 20 9 36 -26 23 -45 -17z m58 -48 c0 -17 -5 -25 -17 -25 -16 0 -16 2
-3 11 11 8 12 12 3 16 -18 7 -16 23 2 23 9 0 15 -9 15 -25z"/>
<path d="M740 161 c0 -12 29 -35 36 -28 11 10 -5 37 -21 37 -8 0 -15 -4 -15
-9z"/>
<path d="M617 143 c-4 -3 -7 -17 -7 -30 0 -33 24 -24 28 10 3 26 -7 35 -21 20z"/>
</g>
</svg>
