<?xml version="1.0" standalone="no"?>
<!DOCTYPE svg PUBLIC "-//W3C//DTD SVG 20010904//EN"
 "http://www.w3.org/TR/2001/REC-SVG-20010904/DTD/svg10.dtd">
<svg version="1.0" xmlns="http://www.w3.org/2000/svg"
 width="95.000000pt" height="725.000000pt" viewBox="0 0 95.000000 725.000000"
 preserveAspectRatio="xMidYMid meet">
<metadata>
Created by potrace 1.16, written by Peter Selinger 2001-2019
</metadata>
<g transform="translate(0.000000,725.000000) scale(0.100000,-0.100000)"
fill="#000000" stroke="none">
<path d="M233 7140 c3 -13 0 -20 -9 -20 -8 0 -14 -4 -14 -10 0 -11 33 -13 68
-4 22 6 31 24 11 24 -6 0 -17 7 -25 15 -22 21 -37 19 -31 -5z"/>
<path d="M682 7143 c4 -22 38 -30 38 -10 0 8 -7 18 -16 21 -23 9 -26 8 -22
-11z"/>
<path d="M125 7108 c-15 -32 -17 -42 -7 -46 10 -3 10 -7 1 -18 -19 -23 2 -38
33 -23 32 14 68 -3 68 -31 0 -11 5 -20 10 -20 6 0 10 6 10 14 0 8 3 21 6 30 4
12 0 16 -15 16 -12 0 -21 6 -21 15 0 18 -13 19 -43 4 -19 -10 -18 -7 6 18 27
30 35 53 17 53 -5 0 -15 -9 -22 -20 -7 -11 -16 -20 -21 -20 -4 0 -1 10 7 22
19 27 21 48 4 48 -7 0 -22 -19 -33 -42z"/>
<path d="M315 7113 c-14 -26 -17 -37 -8 -40 10 -4 10 -9 0 -24 -14 -22 -29
-26 -21 -4 5 11 -1 15 -25 15 -17 0 -31 -4 -31 -10 0 -5 7 -10 16 -10 13 0 15
-7 11 -30 -5 -22 -3 -30 7 -30 8 0 16 7 19 15 8 19 76 47 99 39 13 -4 18 0 18
15 0 23 -11 26 -43 10 -17 -8 -16 -5 6 13 15 13 27 31 27 41 0 23 -17 22 -30
-3 -6 -11 -16 -20 -22 -20 -6 0 -4 8 5 18 20 22 22 42 4 42 -7 0 -21 -17 -32
-37z"/>
<path d="M220 7080 c0 -5 14 -10 30 -10 17 0 30 5 30 10 0 6 -13 10 -30 10
-16 0 -30 -4 -30 -10z"/>
<path d="M142 6994 c1 -9 9 -19 16 -22 9 -3 13 2 10 14 -1 9 -9 19 -16 22 -9
3 -13 -2 -10 -14z"/>
<path d="M180 6996 c0 -9 7 -16 16 -16 17 0 14 22 -4 28 -7 2 -12 -3 -12 -12z"/>
<path d="M302 6994 c1 -9 9 -19 16 -22 9 -3 13 2 10 14 -1 9 -9 19 -16 22 -9
3 -13 -2 -10 -14z"/>
<path d="M103 6986 c4 -10 7 -22 7 -27 0 -5 5 -9 11 -9 15 0 7 43 -10 48 -10
3 -12 0 -8 -12z"/>
<path d="M233 6690 c3 -13 0 -20 -9 -20 -8 0 -14 -4 -14 -10 0 -11 33 -13 68
-4 22 6 31 24 11 24 -6 0 -17 7 -25 15 -22 21 -37 19 -31 -5z"/>
<path d="M683 6690 c3 -13 0 -20 -9 -20 -8 0 -14 -4 -14 -10 0 -11 33 -13 68
-4 22 6 31 24 11 24 -6 0 -17 7 -25 15 -22 21 -37 19 -31 -5z"/>
<path d="M125 6658 c-15 -32 -17 -42 -7 -46 10 -3 10 -7 1 -18 -19 -23 2 -38
33 -23 32 14 68 -3 68 -31 0 -11 5 -20 10 -20 6 0 10 6 10 14 0 8 3 21 6 30 4
12 0 16 -15 16 -12 0 -21 6 -21 15 0 18 -13 19 -43 4 -19 -10 -18 -7 6 18 27
30 35 53 17 53 -5 0 -15 -9 -22 -20 -7 -11 -16 -20 -21 -20 -4 0 -1 10 7 22
19 27 21 48 4 48 -7 0 -22 -19 -33 -42z"/>
<path d="M315 6663 c-14 -26 -17 -37 -8 -40 10 -4 10 -9 0 -24 -14 -22 -29
-26 -21 -4 5 11 -1 15 -25 15 -17 0 -31 -4 -31 -10 0 -5 7 -10 16 -10 13 0 15
-7 11 -30 -5 -22 -3 -30 7 -30 8 0 16 7 19 15 8 19 76 47 99 39 13 -4 18 0 18
15 0 23 -11 26 -43 10 -17 -8 -16 -5 6 13 15 13 27 31 27 41 0 23 -17 22 -30
-3 -6 -11 -16 -20 -22 -20 -6 0 -4 8 5 18 20 22 22 42 4 42 -7 0 -21 -17 -32
-37z"/>
<path d="M220 6630 c0 -5 14 -10 30 -10 17 0 30 5 30 10 0 6 -13 10 -30 10
-16 0 -30 -4 -30 -10z"/>
<path d="M330 6563 c0 -5 4 -15 10 -23 11 -18 25 -7 17 15 -6 15 -27 21 -27 8z"/>
<path d="M142 6544 c1 -9 9 -19 16 -22 9 -3 13 2 10 14 -1 9 -9 19 -16 22 -9
3 -13 -2 -10 -14z"/>
<path d="M180 6546 c0 -9 7 -16 16 -16 9 0 14 5 12 12 -6 18 -28 21 -28 4z"/>
<path d="M302 6544 c1 -9 9 -19 16 -22 9 -3 13 2 10 14 -1 9 -9 19 -16 22 -9
3 -13 -2 -10 -14z"/>
<path d="M103 6536 c4 -10 7 -22 7 -27 0 -5 5 -9 11 -9 15 0 7 43 -10 48 -10
3 -12 0 -8 -12z"/>
<path d="M233 6240 c3 -13 0 -20 -9 -20 -8 0 -14 -4 -14 -10 0 -11 33 -13 68
-4 22 6 31 24 11 24 -6 0 -17 7 -25 15 -22 21 -37 19 -31 -5z"/>
<path d="M683 6240 c3 -13 0 -20 -9 -20 -8 0 -14 -4 -14 -10 0 -11 33 -13 68
-4 22 6 31 24 11 24 -6 0 -17 7 -25 15 -22 21 -37 19 -31 -5z"/>
<path d="M125 6208 c-15 -32 -17 -42 -7 -46 10 -3 10 -7 1 -18 -19 -23 2 -38
33 -23 32 14 68 -3 68 -31 0 -11 5 -20 10 -20 6 0 10 6 10 14 0 8 3 21 6 30 4
12 0 16 -15 16 -12 0 -21 6 -21 15 0 18 -13 19 -43 4 -19 -10 -18 -7 6 18 27
30 35 53 17 53 -5 0 -15 -9 -22 -20 -7 -11 -16 -20 -21 -20 -4 0 -1 10 7 22
19 27 21 48 4 48 -7 0 -22 -19 -33 -42z"/>
<path d="M315 6213 c-14 -26 -17 -37 -8 -40 10 -4 10 -9 0 -24 -14 -22 -29
-26 -21 -4 5 11 -1 15 -25 15 -17 0 -31 -4 -31 -10 0 -5 7 -10 16 -10 13 0 15
-7 11 -30 -5 -22 -3 -30 7 -30 8 0 16 7 19 15 8 19 76 47 99 39 13 -4 18 0 18
15 0 23 -11 26 -43 10 -17 -8 -16 -5 6 13 15 13 27 31 27 41 0 23 -17 22 -30
-3 -6 -11 -16 -20 -22 -20 -6 0 -4 8 5 18 20 22 22 42 4 42 -7 0 -21 -17 -32
-37z"/>
<path d="M220 6180 c0 -5 14 -10 30 -10 17 0 30 5 30 10 0 6 -13 10 -30 10
-16 0 -30 -4 -30 -10z"/>
<path d="M670 6180 c0 -5 14 -10 30 -10 17 0 30 5 30 10 0 6 -13 10 -30 10
-16 0 -30 -4 -30 -10z"/>
<path d="M330 6113 c0 -5 4 -15 10 -23 11 -18 25 -7 17 15 -6 15 -27 21 -27 8z"/>
<path d="M374 6105 c3 -9 6 -19 6 -21 0 -2 7 -4 16 -4 22 0 13 34 -10 38 -14
3 -17 0 -12 -13z"/>
<path d="M142 6094 c1 -9 9 -19 16 -22 9 -3 13 2 10 14 -1 9 -9 19 -16 22 -9
3 -13 -2 -10 -14z"/>
<path d="M180 6096 c0 -9 7 -16 16 -16 9 0 14 5 12 12 -6 18 -28 21 -28 4z"/>
<path d="M302 6094 c1 -9 9 -19 16 -22 9 -3 13 2 10 14 -1 9 -9 19 -16 22 -9
3 -13 -2 -10 -14z"/>
<path d="M103 6086 c4 -10 7 -22 7 -27 0 -5 5 -9 11 -9 15 0 7 43 -10 48 -10
3 -12 0 -8 -12z"/>
<path d="M233 5790 c3 -13 0 -20 -9 -20 -8 0 -14 -4 -14 -10 0 -11 33 -13 68
-4 22 6 31 24 11 24 -6 0 -17 7 -25 15 -22 21 -37 19 -31 -5z"/>
<path d="M683 5790 c3 -13 0 -20 -9 -20 -8 0 -14 -4 -14 -10 0 -11 33 -13 68
-4 22 6 31 24 11 24 -6 0 -17 7 -25 15 -22 21 -37 19 -31 -5z"/>
<path d="M125 5758 c-15 -32 -17 -42 -7 -46 10 -3 10 -7 1 -18 -19 -23 2 -38
33 -23 32 14 68 -3 68 -31 0 -11 5 -20 10 -20 6 0 10 6 10 14 0 8 3 21 6 30 4
12 0 16 -15 16 -12 0 -21 6 -21 15 0 18 -13 19 -43 4 -19 -10 -18 -7 6 18 27
30 35 53 17 53 -5 0 -15 -9 -22 -20 -7 -11 -16 -20 -21 -20 -4 0 -1 10 7 22
19 27 21 48 4 48 -7 0 -22 -19 -33 -42z"/>
<path d="M315 5763 c-14 -26 -17 -37 -8 -40 10 -4 10 -9 0 -24 -14 -22 -29
-26 -21 -4 5 11 -1 15 -25 15 -17 0 -31 -4 -31 -10 0 -5 7 -10 16 -10 13 0 15
-7 11 -30 -5 -22 -3 -30 7 -30 8 0 16 7 19 15 8 19 76 47 99 39 13 -4 18 0 18
15 0 23 -11 26 -43 10 -17 -8 -16 -5 6 13 15 13 27 31 27 41 0 23 -17 22 -30
-3 -6 -11 -16 -20 -22 -20 -6 0 -4 8 5 18 20 22 22 42 4 42 -7 0 -21 -17 -32
-37z"/>
<path d="M220 5730 c0 -5 14 -10 30 -10 17 0 30 5 30 10 0 6 -13 10 -30 10
-16 0 -30 -4 -30 -10z"/>
<path d="M670 5730 c0 -5 14 -10 30 -10 17 0 30 5 30 10 0 6 -13 10 -30 10
-16 0 -30 -4 -30 -10z"/>
<path d="M680 5700 c0 -5 14 -10 30 -10 17 0 30 5 30 10 0 6 -13 10 -30 10
-16 0 -30 -4 -30 -10z"/>
<path d="M330 5663 c0 -5 4 -15 10 -23 11 -18 25 -7 17 15 -6 15 -27 21 -27 8z"/>
<path d="M374 5655 c3 -9 6 -19 6 -21 0 -2 7 -4 16 -4 22 0 13 34 -10 38 -14
3 -17 0 -12 -13z"/>
<path d="M142 5644 c1 -9 9 -19 16 -22 9 -3 13 2 10 14 -1 9 -9 19 -16 22 -9
3 -13 -2 -10 -14z"/>
<path d="M180 5646 c0 -9 7 -16 16 -16 9 0 14 5 12 12 -6 18 -28 21 -28 4z"/>
<path d="M302 5644 c1 -9 9 -19 16 -22 9 -3 13 2 10 14 -1 9 -9 19 -16 22 -9
3 -13 -2 -10 -14z"/>
<path d="M103 5636 c4 -10 7 -22 7 -27 0 -5 5 -9 11 -9 15 0 7 43 -10 48 -10
3 -12 0 -8 -12z"/>
<path d="M116 5554 c-9 -24 -7 -54 4 -54 10 0 30 41 30 61 0 15 -27 10 -34 -7z"/>
<path d="M233 5340 c3 -13 0 -20 -9 -20 -8 0 -14 -4 -14 -10 0 -11 33 -13 68
-4 22 6 31 24 11 24 -6 0 -17 7 -25 15 -22 21 -37 19 -31 -5z"/>
<path d="M683 5340 c3 -13 0 -20 -9 -20 -8 0 -14 -4 -14 -10 0 -11 33 -13 68
-4 22 6 31 24 11 24 -6 0 -17 7 -25 15 -22 21 -37 19 -31 -5z"/>
<path d="M125 5308 c-15 -32 -17 -42 -7 -46 10 -3 10 -7 1 -18 -19 -23 2 -38
33 -23 32 14 68 -3 68 -31 0 -11 5 -20 10 -20 6 0 10 6 10 14 0 8 3 21 6 30 4
12 0 16 -15 16 -12 0 -21 6 -21 15 0 18 -13 19 -43 4 -19 -10 -18 -7 6 18 27
30 35 53 17 53 -5 0 -15 -9 -22 -20 -7 -11 -16 -20 -21 -20 -4 0 -1 10 7 22
19 27 21 48 4 48 -7 0 -22 -19 -33 -42z"/>
<path d="M315 5313 c-14 -26 -17 -37 -8 -40 10 -4 10 -9 0 -24 -14 -22 -29
-26 -21 -4 5 11 -1 15 -25 15 -17 0 -31 -4 -31 -10 0 -5 7 -10 16 -10 13 0 15
-7 11 -30 -5 -22 -3 -30 7 -30 8 0 16 7 19 15 8 19 76 47 99 39 13 -4 18 0 18
15 0 23 -11 26 -43 10 -17 -8 -16 -5 6 13 15 13 27 31 27 41 0 23 -17 22 -30
-3 -6 -11 -16 -20 -22 -20 -6 0 -4 8 5 18 20 22 22 42 4 42 -7 0 -21 -17 -32
-37z"/>
<path d="M220 5280 c0 -5 14 -10 30 -10 17 0 30 5 30 10 0 6 -13 10 -30 10
-16 0 -30 -4 -30 -10z"/>
<path d="M670 5280 c0 -5 14 -10 30 -10 17 0 30 5 30 10 0 6 -13 10 -30 10
-16 0 -30 -4 -30 -10z"/>
<path d="M680 5250 c0 -5 14 -10 30 -10 17 0 30 5 30 10 0 6 -13 10 -30 10
-16 0 -30 -4 -30 -10z"/>
<path d="M664 5214 c3 -9 6 -22 6 -30 0 -8 5 -14 10 -14 6 0 10 14 10 30 0 21
-5 30 -16 30 -11 0 -14 -5 -10 -16z"/>
<path d="M330 5213 c0 -5 4 -15 10 -23 11 -18 25 -7 17 15 -6 15 -27 21 -27 8z"/>
<path d="M374 5205 c3 -9 6 -19 6 -21 0 -2 7 -4 16 -4 22 0 13 34 -10 38 -14
3 -17 0 -12 -13z"/>
<path d="M142 5194 c1 -9 9 -19 16 -22 9 -3 13 2 10 14 -1 9 -9 19 -16 22 -9
3 -13 -2 -10 -14z"/>
<path d="M180 5196 c0 -9 7 -16 16 -16 17 0 14 22 -4 28 -7 2 -12 -3 -12 -12z"/>
<path d="M302 5194 c1 -9 9 -19 16 -22 9 -3 13 2 10 14 -1 9 -9 19 -16 22 -9
3 -13 -2 -10 -14z"/>
<path d="M103 5186 c4 -10 7 -22 7 -27 0 -5 5 -9 11 -9 15 0 7 43 -10 48 -10
3 -12 0 -8 -12z"/>
<path d="M170 5128 c0 -7 9 -27 20 -45 23 -38 82 -58 147 -48 55 8 62 22 27
51 -36 29 -47 30 -39 4 16 -49 -106 -25 -125 25 -10 26 -30 35 -30 13z"/>
<path d="M116 5104 c-9 -24 -7 -54 4 -54 10 0 30 41 30 61 0 15 -27 10 -34 -7z"/>
<path d="M233 4890 c3 -13 0 -20 -9 -20 -8 0 -14 -4 -14 -10 0 -11 33 -13 68
-4 22 6 31 24 11 24 -6 0 -17 7 -25 15 -22 21 -37 19 -31 -5z"/>
<path d="M683 4890 c3 -13 0 -20 -9 -20 -8 0 -14 -4 -14 -10 0 -11 33 -13 68
-4 22 6 31 24 11 24 -6 0 -17 7 -25 15 -22 21 -37 19 -31 -5z"/>
<path d="M125 4858 c-15 -32 -17 -42 -7 -46 10 -3 10 -7 1 -18 -19 -23 2 -38
33 -23 32 14 68 -3 68 -31 0 -11 5 -20 10 -20 6 0 10 6 10 14 0 8 3 21 6 30 4
12 0 16 -15 16 -12 0 -21 6 -21 15 0 18 -13 19 -43 4 -19 -10 -18 -7 6 18 27
30 35 53 17 53 -5 0 -15 -9 -22 -20 -7 -11 -16 -20 -21 -20 -4 0 -1 10 7 22
19 27 21 48 4 48 -7 0 -22 -19 -33 -42z"/>
<path d="M315 4863 c-14 -26 -17 -37 -8 -40 10 -4 10 -9 0 -24 -14 -22 -29
-26 -21 -4 5 11 -1 15 -25 15 -17 0 -31 -4 -31 -10 0 -5 7 -10 16 -10 13 0 15
-7 11 -30 -5 -22 -3 -30 7 -30 8 0 16 7 19 15 8 19 76 47 99 39 13 -4 18 0 18
15 0 23 -11 26 -43 10 -17 -8 -16 -5 6 13 15 13 27 31 27 41 0 23 -17 22 -30
-3 -6 -11 -16 -20 -22 -20 -6 0 -4 8 5 18 20 22 22 42 4 42 -7 0 -21 -17 -32
-37z"/>
<path d="M220 4830 c0 -5 14 -10 30 -10 17 0 30 5 30 10 0 6 -13 10 -30 10
-16 0 -30 -4 -30 -10z"/>
<path d="M670 4830 c0 -5 14 -10 30 -10 17 0 30 5 30 10 0 6 -13 10 -30 10
-16 0 -30 -4 -30 -10z"/>
<path d="M680 4800 c0 -5 7 -10 15 -10 9 0 15 -9 15 -25 0 -29 12 -32 31 -8
10 12 11 17 2 20 -7 2 -9 11 -6 19 4 10 -3 14 -26 14 -17 0 -31 -4 -31 -10z"/>
<path d="M666 4753 c7 -30 12 -39 18 -32 2 2 6 16 10 32 5 23 3 27 -14 27 -17
0 -19 -4 -14 -27z"/>
<path d="M330 4763 c0 -5 4 -15 10 -23 11 -18 25 -7 17 15 -6 15 -27 21 -27 8z"/>
<path d="M374 4755 c3 -9 6 -19 6 -21 0 -2 7 -4 16 -4 22 0 13 34 -10 38 -14
3 -17 0 -12 -13z"/>
<path d="M142 4744 c1 -9 9 -19 16 -22 9 -3 13 2 10 14 -1 9 -9 19 -16 22 -9
3 -13 -2 -10 -14z"/>
<path d="M180 4746 c0 -9 7 -16 16 -16 17 0 14 22 -4 28 -7 2 -12 -3 -12 -12z"/>
<path d="M302 4744 c1 -9 9 -19 16 -22 9 -3 13 2 10 14 -1 9 -9 19 -16 22 -9
3 -13 -2 -10 -14z"/>
<path d="M103 4736 c4 -10 7 -22 7 -27 0 -5 5 -9 11 -9 15 0 7 43 -10 48 -10
3 -12 0 -8 -12z"/>
<path d="M230 4702 c0 -13 30 -52 41 -52 17 0 9 39 -10 50 -23 12 -31 13 -31
2z"/>
<path d="M170 4678 c0 -7 9 -27 20 -45 23 -38 82 -58 147 -48 55 8 62 22 27
51 -36 29 -47 30 -39 4 16 -49 -106 -25 -125 25 -10 26 -30 35 -30 13z"/>
<path d="M116 4654 c-9 -24 -7 -54 4 -54 10 0 30 41 30 61 0 15 -27 10 -34 -7z"/>
<path d="M233 4440 c3 -13 0 -20 -9 -20 -8 0 -14 -4 -14 -10 0 -11 33 -13 68
-4 22 6 31 24 11 24 -6 0 -17 7 -25 15 -22 21 -37 19 -31 -5z"/>
<path d="M683 4440 c3 -13 0 -20 -9 -20 -8 0 -14 -4 -14 -10 0 -11 33 -13 68
-4 22 6 31 24 11 24 -6 0 -17 7 -25 15 -22 21 -37 19 -31 -5z"/>
<path d="M125 4408 c-15 -32 -17 -42 -7 -46 10 -3 10 -7 1 -18 -19 -23 2 -38
33 -23 32 14 68 -3 68 -31 0 -11 5 -20 10 -20 6 0 10 6 10 14 0 8 3 21 6 30 4
12 0 16 -15 16 -12 0 -21 6 -21 15 0 18 -13 19 -43 4 -19 -10 -18 -7 6 18 27
30 35 53 17 53 -5 0 -15 -9 -22 -20 -7 -11 -16 -20 -21 -20 -4 0 -1 10 7 22
19 27 21 48 4 48 -7 0 -22 -19 -33 -42z"/>
<path d="M315 4413 c-14 -26 -17 -37 -8 -40 10 -4 10 -9 0 -24 -14 -22 -29
-26 -21 -4 5 11 -1 15 -25 15 -17 0 -31 -4 -31 -10 0 -5 7 -10 16 -10 13 0 15
-7 11 -30 -5 -22 -3 -30 7 -30 8 0 16 7 19 15 8 19 76 47 99 39 13 -4 18 0 18
15 0 23 -11 26 -43 10 -17 -8 -16 -5 6 13 15 13 27 31 27 41 0 23 -17 22 -30
-3 -6 -11 -16 -20 -22 -20 -6 0 -4 8 5 18 20 22 22 42 4 42 -7 0 -21 -17 -32
-37z"/>
<path d="M220 4380 c0 -5 14 -10 30 -10 17 0 30 5 30 10 0 6 -13 10 -30 10
-16 0 -30 -4 -30 -10z"/>
<path d="M670 4380 c0 -5 14 -10 30 -10 17 0 30 5 30 10 0 6 -13 10 -30 10
-16 0 -30 -4 -30 -10z"/>
<path d="M680 4350 c0 -5 7 -10 16 -10 13 0 15 -7 11 -30 -5 -20 -3 -30 6 -30
17 0 43 43 29 48 -6 2 -8 10 -5 18 4 10 -3 14 -26 14 -17 0 -31 -4 -31 -10z"/>
<path d="M666 4303 c7 -30 12 -39 18 -32 2 2 6 16 10 32 5 23 3 27 -14 27 -17
0 -19 -4 -14 -27z"/>
<path d="M330 4313 c0 -5 4 -15 10 -23 11 -18 25 -7 17 15 -6 15 -27 21 -27 8z"/>
<path d="M374 4305 c3 -9 6 -19 6 -21 0 -2 7 -4 16 -4 22 0 13 34 -10 38 -14
3 -17 0 -12 -13z"/>
<path d="M142 4294 c1 -9 9 -19 16 -22 9 -3 13 2 10 14 -1 9 -9 19 -16 22 -9
3 -13 -2 -10 -14z"/>
<path d="M180 4296 c0 -9 7 -16 16 -16 17 0 14 22 -4 28 -7 2 -12 -3 -12 -12z"/>
<path d="M302 4294 c1 -9 9 -19 16 -22 9 -3 13 2 10 14 -1 9 -9 19 -16 22 -9
3 -13 -2 -10 -14z"/>
<path d="M103 4286 c4 -10 7 -22 7 -27 0 -5 5 -9 11 -9 15 0 7 43 -10 48 -10
3 -12 0 -8 -12z"/>
<path d="M230 4252 c0 -13 30 -52 41 -52 17 0 9 39 -10 50 -23 12 -31 13 -31
2z"/>
<path d="M350 4237 c0 -16 32 -47 48 -47 20 0 13 28 -10 44 -28 20 -38 20 -38
3z"/>
<path d="M170 4228 c0 -7 9 -27 20 -45 23 -38 82 -58 147 -48 55 8 62 22 27
51 -36 29 -47 30 -39 4 16 -49 -106 -25 -125 25 -10 26 -30 35 -30 13z"/>
<path d="M116 4204 c-9 -24 -7 -54 4 -54 10 0 30 41 30 61 0 15 -27 10 -34 -7z"/>
<path d="M683 3990 c3 -13 0 -20 -9 -20 -8 0 -14 -4 -14 -10 0 -11 33 -13 68
-4 22 6 31 24 11 24 -6 0 -17 7 -25 15 -22 21 -37 19 -31 -5z"/>
<path d="M578 3964 c-21 -41 -22 -54 -5 -54 11 0 47 60 47 80 0 23 -26 7 -42
-26z"/>
<path d="M670 3930 c0 -5 14 -10 30 -10 17 0 30 5 30 10 0 6 -13 10 -30 10
-16 0 -30 -4 -30 -10z"/>
<path d="M680 3900 c0 -5 7 -10 16 -10 13 0 15 -7 11 -30 -5 -20 -3 -30 6 -30
17 0 43 43 29 48 -6 2 -8 10 -5 18 4 10 -3 14 -26 14 -17 0 -31 -4 -31 -10z"/>
<path d="M666 3853 c4 -16 8 -30 10 -32 6 -7 11 2 18 32 5 23 3 27 -14 27 -17
0 -19 -4 -14 -27z"/>
<path d="M683 3540 c3 -13 0 -20 -9 -20 -8 0 -14 -4 -14 -10 0 -11 33 -13 68
-4 22 6 31 24 11 24 -6 0 -17 7 -25 15 -22 21 -37 19 -31 -5z"/>
<path d="M575 3508 c-15 -32 -17 -42 -7 -46 10 -3 10 -7 1 -18 -19 -23 3 -37
34 -23 30 13 38 35 10 24 -12 -4 -9 3 10 22 27 29 35 53 17 53 -5 0 -15 -9
-22 -20 -7 -11 -16 -20 -21 -20 -4 0 -1 10 7 22 19 27 21 48 4 48 -7 0 -22
-19 -33 -42z"/>
<path d="M670 3480 c0 -5 14 -10 30 -10 17 0 30 5 30 10 0 6 -13 10 -30 10
-16 0 -30 -4 -30 -10z"/>
<path d="M680 3450 c0 -5 7 -10 16 -10 13 0 15 -7 11 -30 -5 -20 -3 -30 6 -30
17 0 43 43 29 48 -6 2 -8 10 -5 18 4 10 -3 14 -26 14 -17 0 -31 -4 -31 -10z"/>
<path d="M666 3403 c7 -30 12 -39 18 -32 2 2 6 16 10 32 5 23 3 27 -14 27 -17
0 -19 -4 -14 -27z"/>
<path d="M683 3090 c3 -13 0 -20 -9 -20 -8 0 -14 -4 -14 -10 0 -11 33 -13 68
-4 22 6 31 24 11 24 -6 0 -17 7 -25 15 -22 21 -37 19 -31 -5z"/>
<path d="M575 3058 c-15 -32 -17 -42 -7 -46 10 -3 10 -7 1 -18 -19 -23 2 -38
33 -23 32 14 68 -3 68 -31 0 -11 5 -20 10 -20 6 0 10 6 10 14 0 8 3 21 6 30 4
12 0 16 -15 16 -12 0 -21 6 -21 15 0 18 -13 19 -43 4 -19 -10 -18 -7 6 18 27
30 35 53 17 53 -5 0 -15 -9 -22 -20 -7 -11 -16 -20 -21 -20 -4 0 -1 10 7 22
19 27 21 48 4 48 -7 0 -22 -19 -33 -42z"/>
<path d="M670 3030 c0 -5 14 -10 30 -10 17 0 30 5 30 10 0 6 -13 10 -30 10
-16 0 -30 -4 -30 -10z"/>
<path d="M680 3000 c0 -5 7 -10 16 -10 13 0 15 -7 11 -30 -5 -20 -3 -30 6 -30
17 0 43 43 29 48 -6 2 -8 10 -5 18 4 10 -3 14 -26 14 -17 0 -31 -4 -31 -10z"/>
<path d="M683 2640 c3 -13 0 -20 -9 -20 -8 0 -14 -4 -14 -10 0 -11 33 -13 68
-4 22 6 31 24 11 24 -6 0 -17 7 -25 15 -22 21 -37 19 -31 -5z"/>
<path d="M575 2608 c-15 -32 -17 -42 -7 -46 10 -3 10 -7 1 -18 -19 -23 2 -38
33 -23 32 14 68 -3 68 -31 0 -11 5 -20 10 -20 6 0 10 6 10 14 0 8 3 21 6 30 4
12 0 16 -15 16 -12 0 -21 6 -21 15 0 18 -13 19 -43 4 -19 -10 -18 -7 6 18 27
30 35 53 17 53 -5 0 -15 -9 -22 -20 -7 -11 -16 -20 -21 -20 -4 0 -1 10 7 22
19 27 21 48 4 48 -7 0 -22 -19 -33 -42z"/>
<path d="M670 2580 c0 -5 14 -10 30 -10 17 0 30 5 30 10 0 6 -13 10 -30 10
-16 0 -30 -4 -30 -10z"/>
<path d="M680 2550 c0 -5 7 -10 16 -10 13 0 15 -7 11 -30 -5 -20 -3 -30 6 -30
17 0 43 43 29 48 -6 2 -8 10 -5 18 4 10 -3 14 -26 14 -17 0 -31 -4 -31 -10z"/>
<path d="M553 2486 c4 -10 7 -22 7 -27 0 -5 5 -9 11 -9 15 0 7 43 -10 48 -10
3 -12 0 -8 -12z"/>
<path d="M683 2190 c3 -13 0 -20 -9 -20 -8 0 -14 -4 -14 -10 0 -11 33 -13 68
-4 22 6 31 24 11 24 -6 0 -17 7 -25 15 -22 21 -37 19 -31 -5z"/>
<path d="M575 2158 c-15 -32 -17 -42 -7 -46 10 -3 10 -7 1 -18 -19 -23 2 -38
33 -23 32 14 68 -3 68 -31 0 -11 5 -20 10 -20 6 0 10 6 10 14 0 8 3 21 6 30 4
12 0 16 -15 16 -12 0 -21 6 -21 15 0 18 -13 19 -43 4 -19 -10 -18 -7 6 18 27
30 35 53 17 53 -5 0 -15 -9 -22 -20 -7 -11 -16 -20 -21 -20 -4 0 -1 10 7 22
19 27 21 48 4 48 -7 0 -22 -19 -33 -42z"/>
<path d="M670 2130 c0 -5 14 -10 30 -10 17 0 30 5 30 10 0 6 -13 10 -30 10
-16 0 -30 -4 -30 -10z"/>
<path d="M680 2100 c0 -5 7 -10 16 -10 13 0 15 -7 11 -30 -5 -20 -3 -30 6 -30
17 0 43 43 29 48 -6 2 -8 10 -5 18 4 10 -3 14 -26 14 -17 0 -31 -4 -31 -10z"/>
<path d="M592 2044 c1 -9 9 -19 16 -22 9 -3 13 2 10 14 -1 9 -9 19 -16 22 -9
3 -13 -2 -10 -14z"/>
<path d="M553 2036 c4 -10 7 -22 7 -27 0 -5 5 -9 11 -9 15 0 7 43 -10 48 -10
3 -12 0 -8 -12z"/>
<path d="M683 1740 c3 -13 0 -20 -9 -20 -8 0 -14 -4 -14 -10 0 -11 33 -13 68
-4 22 6 31 24 11 24 -6 0 -17 7 -25 15 -22 21 -37 19 -31 -5z"/>
<path d="M575 1708 c-15 -32 -17 -42 -7 -46 10 -3 10 -7 1 -18 -19 -23 2 -38
33 -23 32 14 68 -3 68 -31 0 -11 5 -20 10 -20 6 0 10 6 10 14 0 8 3 21 6 30 4
12 0 16 -15 16 -12 0 -21 6 -21 15 0 18 -13 19 -43 4 -19 -10 -18 -7 6 18 27
30 35 53 17 53 -5 0 -15 -9 -22 -20 -7 -11 -16 -20 -21 -20 -4 0 -1 10 7 22
19 27 21 48 4 48 -7 0 -22 -19 -33 -42z"/>
<path d="M670 1680 c0 -5 14 -10 30 -10 17 0 30 5 30 10 0 6 -13 10 -30 10
-16 0 -30 -4 -30 -10z"/>
<path d="M680 1650 c0 -5 7 -10 16 -10 13 0 15 -7 11 -30 -5 -20 -3 -30 6 -30
17 0 43 43 29 48 -6 2 -8 10 -5 18 4 10 -3 14 -26 14 -17 0 -31 -4 -31 -10z"/>
<path d="M592 1594 c1 -9 9 -19 16 -22 9 -3 13 2 10 14 -1 9 -9 19 -16 22 -9
3 -13 -2 -10 -14z"/>
<path d="M630 1596 c0 -9 7 -16 16 -16 17 0 14 22 -4 28 -7 2 -12 -3 -12 -12z"/>
<path d="M553 1586 c4 -10 7 -22 7 -27 0 -5 5 -9 11 -9 15 0 7 43 -10 48 -10
3 -12 0 -8 -12z"/>
<path d="M683 1290 c3 -13 0 -20 -9 -20 -8 0 -14 -4 -14 -10 0 -11 33 -13 68
-4 22 6 31 24 11 24 -6 0 -17 7 -25 15 -22 21 -37 19 -31 -5z"/>
<path d="M575 1258 c-15 -32 -17 -42 -7 -46 10 -3 10 -7 1 -18 -19 -23 2 -38
33 -23 32 14 68 -3 68 -31 0 -11 5 -20 10 -20 6 0 10 6 10 14 0 8 3 21 6 30 4
12 0 16 -15 16 -12 0 -21 6 -21 15 0 18 -13 19 -43 4 -19 -10 -18 -7 6 18 27
30 35 53 17 53 -5 0 -15 -9 -22 -20 -7 -11 -16 -20 -21 -20 -4 0 -1 10 7 22
19 27 21 48 4 48 -7 0 -22 -19 -33 -42z"/>
<path d="M768 1269 c-22 -38 -23 -49 -3 -49 8 0 15 6 15 14 0 7 7 19 15 26 8
7 15 19 15 26 0 25 -24 15 -42 -17z"/>
<path d="M670 1230 c0 -5 14 -10 30 -10 17 0 30 5 30 10 0 6 -13 10 -30 10
-16 0 -30 -4 -30 -10z"/>
<path d="M680 1200 c0 -5 7 -10 16 -10 13 0 15 -7 11 -30 -5 -20 -3 -30 6 -30
17 0 43 43 29 48 -6 2 -8 10 -5 18 4 10 -3 14 -26 14 -17 0 -31 -4 -31 -10z"/>
<path d="M592 1144 c1 -9 9 -19 16 -22 9 -3 13 2 10 14 -1 9 -9 19 -16 22 -9
3 -13 -2 -10 -14z"/>
<path d="M630 1146 c0 -9 7 -16 16 -16 9 0 14 5 12 12 -6 18 -28 21 -28 4z"/>
<path d="M553 1136 c4 -10 7 -22 7 -27 0 -5 5 -9 11 -9 15 0 7 43 -10 48 -10
3 -12 0 -8 -12z"/>
<path d="M683 840 c3 -13 0 -20 -9 -20 -8 0 -14 -4 -14 -10 0 -11 33 -13 68
-4 22 6 31 24 11 24 -6 0 -17 7 -25 15 -22 21 -37 19 -31 -5z"/>
<path d="M575 808 c-15 -32 -17 -42 -7 -46 10 -3 10 -7 1 -18 -19 -23 2 -38
33 -23 32 14 68 -3 68 -31 0 -11 5 -20 10 -20 6 0 10 6 10 14 0 8 3 21 6 30 4
12 0 16 -15 16 -12 0 -21 6 -21 15 0 18 -13 19 -43 4 -19 -10 -18 -7 6 18 27
30 35 53 17 53 -5 0 -15 -9 -22 -20 -7 -11 -16 -20 -21 -20 -4 0 -1 10 7 22
19 27 21 48 4 48 -7 0 -22 -19 -33 -42z"/>
<path d="M765 813 c-14 -26 -17 -37 -8 -40 10 -4 10 -9 0 -24 -14 -22 -29 -26
-21 -4 5 11 -1 15 -25 15 -17 0 -31 -4 -31 -10 0 -5 7 -10 16 -10 13 0 15 -7
11 -30 -7 -34 11 -42 29 -12 7 10 30 24 53 32 42 14 58 37 19 27 -21 -5 -21
-4 5 16 15 13 27 30 27 40 0 23 -17 22 -30 -3 -6 -11 -16 -20 -22 -20 -6 0 -4
8 5 18 20 22 22 42 4 42 -7 0 -21 -17 -32 -37z"/>
<path d="M670 780 c0 -5 14 -10 30 -10 17 0 30 5 30 10 0 6 -13 10 -30 10 -16
0 -30 -4 -30 -10z"/>
<path d="M592 694 c1 -9 9 -19 16 -22 9 -3 13 2 10 14 -1 9 -9 19 -16 22 -9 3
-13 -2 -10 -14z"/>
<path d="M630 696 c0 -9 7 -16 16 -16 9 0 14 5 12 12 -6 18 -28 21 -28 4z"/>
<path d="M553 686 c4 -10 7 -22 7 -27 0 -5 5 -9 11 -9 15 0 7 43 -10 48 -10 3
-12 0 -8 -12z"/>
<path d="M683 390 c3 -13 0 -20 -9 -20 -8 0 -14 -4 -14 -10 0 -11 33 -13 68
-4 22 6 31 24 11 24 -6 0 -17 7 -25 15 -22 21 -37 19 -31 -5z"/>
<path d="M575 358 c-15 -32 -17 -42 -7 -46 10 -3 10 -7 1 -18 -19 -23 2 -38
33 -23 32 14 68 -3 68 -31 0 -11 5 -20 10 -20 6 0 10 6 10 14 0 8 3 21 6 30 4
12 0 16 -15 16 -12 0 -21 6 -21 15 0 18 -13 19 -43 4 -19 -10 -18 -7 6 18 27
30 35 53 17 53 -5 0 -15 -9 -22 -20 -7 -11 -16 -20 -21 -20 -4 0 -1 10 7 22
19 27 21 48 4 48 -7 0 -22 -19 -33 -42z"/>
<path d="M765 363 c-14 -26 -17 -37 -8 -40 10 -4 10 -9 0 -24 -14 -22 -29 -26
-21 -4 5 11 -1 15 -25 15 -17 0 -31 -4 -31 -10 0 -5 7 -10 16 -10 13 0 15 -7
11 -30 -5 -22 -3 -30 7 -30 8 0 16 7 19 15 8 19 76 47 99 39 13 -4 18 0 18 15
0 23 -11 26 -43 10 -17 -8 -16 -5 6 13 15 13 27 31 27 41 0 23 -17 22 -30 -3
-6 -11 -16 -20 -22 -20 -6 0 -4 8 5 18 20 22 22 42 4 42 -7 0 -21 -17 -32 -37z"/>
<path d="M670 330 c0 -5 14 -10 30 -10 17 0 30 5 30 10 0 6 -13 10 -30 10 -16
0 -30 -4 -30 -10z"/>
<path d="M592 244 c1 -9 9 -19 16 -22 9 -3 13 2 10 14 -1 9 -9 19 -16 22 -9 3
-13 -2 -10 -14z"/>
<path d="M630 246 c0 -9 7 -16 16 -16 17 0 14 22 -4 28 -7 2 -12 -3 -12 -12z"/>
<path d="M553 236 c4 -10 7 -22 7 -27 0 -5 5 -9 11 -9 15 0 7 43 -10 48 -10 3
-12 0 -8 -12z"/>
</g>
</svg>
