<?xml version="1.0" standalone="no"?>
<!DOCTYPE svg PUBLIC "-//W3C//DTD SVG 20010904//EN"
 "http://www.w3.org/TR/2001/REC-SVG-20010904/DTD/svg10.dtd">
<svg version="1.0" xmlns="http://www.w3.org/2000/svg"
 width="50.000000pt" height="725.000000pt" viewBox="0 0 50.000000 725.000000"
 preserveAspectRatio="xMidYMid meet">
<metadata>
Created by potrace 1.16, written by Peter Selinger 2001-2019
</metadata>
<g transform="translate(0.000000,725.000000) scale(0.100000,-0.100000)"
fill="#000000" stroke="none">
<path d="M133 7150 c-31 -13 -29 -32 2 -24 22 6 25 3 25 -23 0 -16 -5 -34 -12
-41 -9 -9 -9 -15 0 -24 18 -18 29 0 34 59 4 39 1 53 -9 58 -8 3 -15 5 -16 4
-1 0 -12 -4 -24 -9z"/>
<path d="M132 6699 c-26 -10 -28 -49 -3 -57 10 -3 12 1 8 17 -3 14 0 21 9 21
17 0 19 -51 2 -68 -9 -9 -9 -15 0 -24 18 -18 29 0 34 59 4 39 1 53 -9 58 -8 3
-15 5 -16 4 -1 0 -12 -4 -25 -10z"/>
<path d="M131 6249 c-19 -7 -22 -15 -18 -36 3 -18 0 -31 -11 -39 -22 -16 -6
-32 16 -17 10 6 17 23 17 42 0 18 5 31 12 31 17 0 17 -52 1 -68 -9 -9 -9 -15
0 -24 18 -18 29 0 34 59 4 39 1 53 -9 58 -8 3 -15 5 -16 4 -1 0 -13 -5 -26
-10z"/>
<path d="M131 5799 c-19 -7 -22 -15 -18 -36 3 -18 0 -31 -11 -39 -22 -16 -6
-32 16 -17 10 6 17 23 17 42 0 18 5 31 12 31 17 0 17 -52 1 -68 -9 -9 -9 -15
0 -24 18 -18 29 0 34 59 4 39 1 53 -9 58 -8 3 -15 5 -16 4 -1 0 -13 -5 -26
-10z"/>
<path d="M200 5800 c0 -5 10 -10 21 -10 20 0 21 -4 16 -56 -5 -48 -4 -55 11
-52 13 3 18 17 20 66 l3 62 -36 0 c-19 0 -35 -4 -35 -10z"/>
<path d="M131 5349 c-19 -7 -22 -15 -18 -36 3 -18 0 -31 -11 -39 -22 -16 -6
-32 16 -17 10 6 17 23 17 42 0 18 5 31 12 31 17 0 17 -52 1 -68 -9 -9 -9 -15
0 -24 18 -18 29 0 34 59 4 39 1 53 -9 58 -8 3 -15 5 -16 4 -1 0 -13 -5 -26
-10z"/>
<path d="M200 5350 c0 -5 10 -10 21 -10 20 0 21 -4 16 -56 -5 -48 -4 -55 11
-52 13 3 18 17 20 66 l3 62 -36 0 c-19 0 -35 -4 -35 -10z"/>
<path d="M200 5310 c0 -5 7 -10 15 -10 8 0 15 5 15 10 0 6 -7 10 -15 10 -8 0
-15 -4 -15 -10z"/>
<path d="M131 4899 c-19 -7 -22 -15 -18 -36 3 -18 0 -31 -11 -39 -22 -16 -6
-32 16 -17 10 6 17 23 17 42 0 18 5 31 12 31 17 0 17 -52 1 -68 -9 -9 -9 -15
0 -24 18 -18 29 0 34 59 4 39 1 53 -9 58 -8 3 -15 5 -16 4 -1 0 -13 -5 -26
-10z"/>
<path d="M200 4900 c0 -5 9 -10 20 -10 14 0 20 -6 19 -22 0 -13 -3 -17 -6 -10
-5 14 -33 17 -33 3 0 -5 6 -12 13 -14 7 -3 5 -6 -5 -6 -20 -1 -25 -31 -5 -31
7 0 19 6 26 13 10 10 11 6 5 -16 -6 -25 -4 -28 12 -25 16 3 20 14 22 66 l3 62
-36 0 c-19 0 -35 -4 -35 -10z"/>
<path d="M131 4449 c-19 -7 -22 -15 -18 -36 3 -18 0 -31 -11 -39 -22 -16 -6
-32 16 -17 10 6 17 23 17 42 0 18 5 31 12 31 16 0 17 -52 2 -67 -15 -15 -1
-36 20 -29 9 4 -3 -12 -27 -35 -46 -43 -50 -59 -10 -39 58 30 99 90 62 90 -14
0 -16 8 -12 50 4 37 1 50 -9 55 -8 3 -15 5 -16 4 -1 0 -13 -5 -26 -10z"/>
<path d="M200 4450 c0 -5 9 -10 20 -10 14 0 20 -6 19 -22 0 -13 -3 -17 -6 -10
-5 14 -33 17 -33 3 0 -5 6 -12 13 -14 7 -3 5 -6 -5 -6 -20 -1 -25 -31 -5 -31
7 0 19 6 26 13 10 10 11 6 5 -16 -6 -25 -4 -28 12 -25 16 3 20 14 22 66 l3 62
-36 0 c-19 0 -35 -4 -35 -10z"/>
<path d="M131 3999 c-19 -7 -22 -15 -18 -36 3 -18 0 -31 -11 -39 -22 -16 -6
-32 16 -17 10 6 17 23 17 42 0 18 5 31 12 31 16 0 17 -52 2 -67 -15 -15 -1
-36 20 -29 9 4 -3 -12 -27 -35 -24 -22 -41 -43 -39 -46 7 -6 47 15 74 39 l22
20 34 -26 c41 -31 47 -32 47 -7 0 13 -11 24 -35 32 -19 7 -35 19 -35 26 0 7
-7 13 -16 13 -14 0 -16 8 -12 50 4 37 1 50 -9 55 -8 3 -15 5 -16 4 -1 0 -13
-5 -26 -10z"/>
<path d="M200 4000 c0 -5 9 -10 20 -10 14 0 20 -6 19 -22 0 -13 -3 -17 -6 -10
-5 14 -33 17 -33 3 0 -5 6 -12 13 -14 7 -3 5 -6 -5 -6 -20 -1 -25 -31 -5 -31
7 0 19 6 26 13 10 10 11 6 5 -16 -6 -25 -4 -28 12 -25 16 3 20 14 22 66 l3 62
-36 0 c-19 0 -35 -4 -35 -10z"/>
<path d="M131 3549 c-19 -7 -22 -15 -18 -36 3 -18 0 -31 -11 -39 -22 -16 -6
-32 16 -17 10 6 17 23 17 42 0 18 5 31 12 31 16 0 17 -52 2 -67 -15 -15 -1
-36 20 -29 9 4 -3 -12 -27 -35 -24 -22 -41 -43 -39 -46 7 -6 47 15 74 39 l22
20 34 -26 c41 -31 47 -32 47 -7 0 13 -11 24 -35 32 -19 7 -35 19 -35 26 0 7
-7 13 -16 13 -14 0 -16 8 -12 50 4 37 1 50 -9 55 -8 3 -15 5 -16 4 -1 0 -13
-5 -26 -10z"/>
<path d="M200 3550 c0 -5 9 -10 20 -10 14 0 20 -6 19 -22 0 -13 -3 -17 -6 -10
-5 14 -33 17 -33 3 0 -5 6 -12 13 -14 7 -3 5 -6 -5 -6 -20 -1 -25 -31 -5 -31
7 0 19 6 26 13 10 10 11 6 5 -16 -6 -25 -4 -28 12 -25 16 3 20 14 22 66 l3 62
-36 0 c-19 0 -35 -4 -35 -10z"/>
<path d="M167 3368 c-15 -17 -25 -33 -23 -36 9 -8 71 34 71 48 0 24 -20 20
-48 -12z"/>
<path d="M131 3099 c-19 -7 -22 -15 -18 -36 3 -18 0 -31 -11 -39 -22 -16 -6
-32 16 -17 10 6 17 23 17 42 0 18 5 31 12 31 16 0 17 -52 2 -67 -15 -15 -1
-36 20 -29 9 4 -3 -12 -27 -35 -24 -22 -41 -43 -39 -46 7 -6 47 15 74 39 l22
20 34 -26 c41 -31 47 -32 47 -7 0 13 -11 24 -35 32 -19 7 -35 19 -35 26 0 7
-7 13 -16 13 -14 0 -16 8 -12 50 4 37 1 50 -9 55 -8 3 -15 5 -16 4 -1 0 -13
-5 -26 -10z"/>
<path d="M200 3100 c0 -5 9 -10 20 -10 14 0 20 -6 19 -22 0 -13 -3 -17 -6 -10
-5 14 -33 17 -33 3 0 -5 6 -12 13 -14 7 -3 5 -6 -5 -6 -20 -1 -25 -31 -5 -31
7 0 19 6 26 13 10 10 11 6 5 -16 -6 -25 -4 -28 12 -25 16 3 20 14 22 66 l3 62
-36 0 c-19 0 -35 -4 -35 -10z"/>
<path d="M167 2918 c-15 -17 -25 -33 -23 -36 9 -8 71 34 71 48 0 24 -20 20
-48 -12z"/>
<path d="M183 2880 c-35 -32 -40 -40 -22 -40 19 0 69 41 69 56 0 21 -11 17
-47 -16z"/>
<path d="M131 2649 c-19 -7 -22 -15 -18 -36 3 -18 0 -31 -11 -39 -22 -16 -6
-32 16 -17 10 6 17 23 17 42 0 18 5 31 12 31 16 0 17 -52 2 -67 -15 -15 -1
-36 20 -29 9 4 -3 -12 -27 -35 -24 -22 -41 -43 -39 -46 7 -6 47 15 74 39 l22
20 34 -26 c41 -31 47 -32 47 -7 0 13 -11 24 -35 32 -19 7 -35 19 -35 26 0 7
-7 13 -16 13 -14 0 -16 8 -12 50 4 37 1 50 -9 55 -8 3 -15 5 -16 4 -1 0 -13
-5 -26 -10z"/>
<path d="M200 2650 c0 -5 9 -10 20 -10 14 0 20 -6 19 -22 0 -13 -3 -17 -6 -10
-5 14 -33 17 -33 3 0 -5 6 -12 13 -14 7 -3 5 -6 -5 -6 -20 -1 -25 -31 -5 -31
7 0 19 6 26 13 10 10 11 6 5 -16 -6 -25 -4 -28 12 -25 16 3 20 14 22 66 l3 62
-36 0 c-19 0 -35 -4 -35 -10z"/>
<path d="M167 2468 c-15 -17 -25 -33 -23 -36 9 -8 71 34 71 48 0 24 -20 20
-48 -12z"/>
<path d="M183 2430 c-35 -32 -40 -40 -22 -40 19 0 69 41 69 56 0 21 -11 17
-47 -16z"/>
<path d="M181 2379 c-24 -21 -41 -42 -38 -46 10 -9 102 51 102 67 0 25 -20 19
-64 -21z"/>
<path d="M131 2199 c-19 -7 -22 -15 -18 -36 3 -18 0 -31 -11 -39 -22 -16 -6
-32 16 -17 10 6 17 23 17 42 0 18 5 31 12 31 16 0 17 -52 2 -67 -15 -15 -1
-36 20 -29 9 4 -3 -12 -27 -35 -24 -22 -41 -43 -39 -46 7 -6 47 15 74 39 l22
20 34 -26 c41 -31 47 -32 47 -7 0 13 -11 24 -35 32 -19 7 -35 19 -35 26 0 7
-7 13 -16 13 -14 0 -16 8 -12 50 4 37 1 50 -9 55 -8 3 -15 5 -16 4 -1 0 -13
-5 -26 -10z"/>
<path d="M200 2200 c0 -5 9 -10 20 -10 14 0 20 -6 19 -22 0 -13 -3 -17 -6 -10
-5 14 -33 17 -33 3 0 -5 6 -12 13 -14 7 -3 5 -6 -5 -6 -20 -1 -25 -31 -5 -31
7 0 19 6 26 13 10 10 11 6 5 -16 -6 -25 -4 -28 12 -25 16 3 20 14 22 66 l3 62
-36 0 c-19 0 -35 -4 -35 -10z"/>
<path d="M308 2097 c-39 -11 -51 -27 -20 -27 30 0 92 21 92 30 0 12 -23 11
-72 -3z"/>
<path d="M167 2018 c-15 -17 -25 -33 -23 -36 9 -8 71 34 71 48 0 24 -20 20
-48 -12z"/>
<path d="M183 1980 c-35 -32 -40 -40 -22 -40 19 0 69 41 69 56 0 21 -11 17
-47 -16z"/>
<path d="M181 1929 c-24 -21 -41 -42 -38 -46 10 -9 102 51 102 67 0 25 -20 19
-64 -21z"/>
<path d="M131 1749 c-19 -7 -22 -15 -18 -36 3 -18 0 -31 -11 -39 -22 -16 -6
-32 16 -17 10 6 17 23 17 42 0 18 5 31 12 31 16 0 17 -52 2 -67 -15 -15 -1
-36 20 -29 9 4 -3 -12 -27 -35 -24 -22 -41 -43 -39 -46 7 -6 47 15 74 39 l22
20 34 -26 c41 -31 47 -32 47 -7 0 13 -11 24 -35 32 -19 7 -35 19 -35 26 0 7
-7 13 -16 13 -14 0 -16 8 -12 50 4 37 1 50 -9 55 -8 3 -15 5 -16 4 -1 0 -13
-5 -26 -10z"/>
<path d="M200 1750 c0 -5 9 -10 20 -10 14 0 20 -6 19 -22 0 -13 -3 -17 -6 -10
-5 14 -33 17 -33 3 0 -5 6 -12 13 -14 7 -3 5 -6 -5 -6 -20 -1 -25 -31 -5 -31
7 0 19 6 26 13 10 10 11 6 5 -16 -6 -25 -4 -28 12 -25 16 3 20 14 22 66 l3 62
-36 0 c-19 0 -35 -4 -35 -10z"/>
<path d="M286 1713 c3 -21 7 -46 9 -55 2 -11 -3 -18 -11 -18 -8 0 -14 -4 -14
-10 0 -5 6 -10 13 -10 8 0 21 -24 30 -57 9 -32 30 -75 47 -95 33 -40 70 -51
70 -20 0 25 -16 46 -29 38 -14 -9 -61 63 -67 106 -6 32 -4 36 20 42 38 9 33
30 -5 22 l-31 -6 4 48 c3 42 1 47 -19 50 -20 3 -22 0 -17 -35z"/>
<path d="M167 1568 c-15 -17 -25 -33 -23 -36 9 -8 71 34 71 48 0 24 -20 20
-48 -12z"/>
<path d="M183 1530 c-35 -32 -40 -40 -22 -40 19 0 69 41 69 56 0 21 -11 17
-47 -16z"/>
<path d="M181 1479 c-24 -21 -41 -42 -38 -46 10 -9 102 51 102 67 0 25 -20 19
-64 -21z"/>
<path d="M131 1299 c-19 -7 -22 -15 -18 -36 3 -18 0 -31 -11 -39 -22 -16 -6
-32 16 -17 10 6 17 23 17 42 0 18 5 31 12 31 16 0 17 -52 2 -67 -15 -15 -1
-36 20 -29 9 4 -3 -12 -27 -35 -24 -22 -41 -43 -39 -46 7 -6 47 15 74 39 l22
20 34 -26 c41 -31 47 -32 47 -7 0 13 -11 24 -35 32 -19 7 -35 19 -35 26 0 7
-7 13 -16 13 -14 0 -16 8 -12 50 4 37 1 50 -9 55 -8 3 -15 5 -16 4 -1 0 -13
-5 -26 -10z"/>
<path d="M200 1300 c0 -5 9 -10 20 -10 14 0 20 -6 19 -22 0 -13 -3 -17 -6 -10
-5 14 -33 17 -33 3 0 -5 6 -12 13 -14 7 -3 5 -6 -5 -6 -20 -1 -25 -31 -5 -31
7 0 19 6 26 13 10 10 11 6 5 -16 -6 -25 -4 -28 12 -25 16 3 20 14 22 66 l3 62
-36 0 c-19 0 -35 -4 -35 -10z"/>
<path d="M286 1263 c3 -21 7 -46 9 -55 2 -11 -3 -18 -11 -18 -8 0 -14 -4 -14
-10 0 -5 6 -10 13 -10 8 0 21 -24 30 -57 9 -32 30 -75 47 -95 33 -40 70 -51
70 -20 0 25 -16 46 -29 38 -14 -9 -61 63 -67 106 -6 32 -4 36 20 42 38 9 33
30 -5 22 l-31 -6 4 48 c3 42 1 47 -19 50 -20 3 -22 0 -17 -35z"/>
<path d="M340 1262 c0 -10 33 -42 43 -42 14 0 6 38 -9 44 -22 8 -34 8 -34 -2z"/>
<path d="M167 1118 c-15 -17 -25 -33 -23 -36 9 -8 71 34 71 48 0 24 -20 20
-48 -12z"/>
<path d="M183 1080 c-35 -32 -40 -40 -22 -40 19 0 69 41 69 56 0 21 -11 17
-47 -16z"/>
<path d="M181 1029 c-24 -21 -41 -42 -38 -46 10 -9 102 51 102 67 0 25 -20 19
-64 -21z"/>
<path d="M131 849 c-19 -7 -22 -15 -18 -36 3 -18 0 -31 -11 -39 -22 -16 -6
-32 16 -17 10 6 17 23 17 42 0 18 5 31 12 31 16 0 17 -52 2 -67 -15 -15 -1
-36 20 -29 9 4 -3 -12 -27 -35 -24 -22 -41 -43 -39 -46 7 -6 47 15 74 39 l22
20 34 -26 c41 -31 47 -32 47 -7 0 13 -11 24 -35 32 -19 7 -35 19 -35 26 0 7
-7 13 -16 13 -14 0 -16 8 -12 50 4 37 1 50 -9 55 -8 3 -15 5 -16 4 -1 0 -13
-5 -26 -10z"/>
<path d="M200 850 c0 -5 9 -10 20 -10 14 0 20 -6 19 -22 0 -13 -3 -17 -6 -10
-5 14 -33 17 -33 3 0 -5 6 -12 13 -14 7 -3 5 -6 -5 -6 -20 -1 -25 -31 -5 -31
7 0 19 6 26 13 10 10 11 6 5 -16 -6 -25 -4 -28 12 -25 16 3 20 14 22 66 l3 62
-36 0 c-19 0 -35 -4 -35 -10z"/>
<path d="M286 813 c3 -21 7 -46 9 -55 2 -11 -3 -18 -11 -18 -8 0 -14 -4 -14
-10 0 -5 6 -10 14 -10 8 0 18 -19 25 -46 11 -45 11 -48 -15 -75 -34 -35 -24
-50 14 -22 l29 21 27 -34 c29 -37 66 -46 66 -16 0 25 -16 46 -28 38 -6 -4 -18
4 -27 17 -15 23 -14 27 6 62 18 31 20 38 8 46 -22 14 -29 11 -29 -15 0 -30
-15 -42 -24 -20 -12 32 -6 52 19 58 37 9 32 30 -6 22 l-31 -6 4 48 c3 42 1 47
-19 50 -20 3 -22 0 -17 -35z"/>
<path d="M340 812 c0 -10 33 -42 43 -42 14 0 6 38 -9 44 -22 8 -34 8 -34 -2z"/>
<path d="M167 668 c-15 -17 -25 -33 -23 -36 9 -8 71 34 71 48 0 24 -20 20 -48
-12z"/>
<path d="M183 630 c-35 -32 -40 -40 -22 -40 19 0 69 41 69 56 0 21 -11 17 -47
-16z"/>
<path d="M181 579 c-24 -21 -41 -42 -38 -46 10 -9 102 51 102 67 0 25 -20 19
-64 -21z"/>
</g>
</svg>
