<?xml version="1.0" standalone="no"?>
<!DOCTYPE svg PUBLIC "-//W3C//DTD SVG 20010904//EN"
 "http://www.w3.org/TR/2001/REC-SVG-20010904/DTD/svg10.dtd">
<svg version="1.0" xmlns="http://www.w3.org/2000/svg"
 width="95.000000pt" height="725.000000pt" viewBox="0 0 95.000000 725.000000"
 preserveAspectRatio="xMidYMid meet">
<metadata>
Created by potrace 1.16, written by Peter Selinger 2001-2019
</metadata>
<g transform="translate(0.000000,725.000000) scale(0.100000,-0.100000)"
fill="#000000" stroke="none">
<path d="M267 7121 l6 -51 -37 0 c-22 0 -35 4 -31 10 3 6 15 10 26 10 10 0 19
5 19 10 0 6 -10 10 -23 10 -18 0 -23 5 -23 22 1 14 -6 24 -16 26 -15 3 -17 -2
-12 -27 6 -28 4 -31 -20 -31 -14 0 -26 -4 -26 -10 0 -5 11 -10 25 -10 14 0 25
-4 25 -10 0 -5 -10 -10 -22 -10 -34 0 -68 -11 -68 -21 0 -5 6 -9 13 -9 16 0
37 -41 37 -73 0 -58 9 -67 66 -67 30 0 54 5 54 10 0 6 -10 10 -22 10 -23 1
-23 1 -3 16 13 11 16 18 8 21 -8 3 -8 13 3 38 20 48 18 53 -18 58 -30 3 -29 4
8 5 l41 2 16 -62 c15 -61 14 -64 -6 -85 -26 -29 -15 -41 18 -19 14 9 25 12 25
7 0 -18 59 -71 79 -71 23 0 28 24 11 50 -8 12 -12 12 -18 2 -6 -9 -14 -6 -32
13 -22 24 -23 28 -11 58 18 42 19 79 4 84 -8 3 -13 -4 -13 -19 0 -12 -4 -30
-10 -38 -7 -11 -11 -9 -19 13 -6 16 -11 39 -11 53 0 21 5 24 35 24 19 0 35 4
35 9 0 14 -29 22 -55 15 -22 -5 -24 -2 -27 37 -2 32 -8 45 -20 47 -15 3 -16
-3 -11 -47z m-84 -97 c-3 -9 -9 -11 -12 -6 -3 5 -13 12 -21 15 -9 3 -4 6 12 6
21 1 26 -3 21 -15z m41 -19 c-4 -8 -7 -15 -9 -15 -2 0 -5 7 -9 15 -3 9 0 15 9
15 9 0 12 -6 9 -15z m-38 -29 c18 -18 18 -36 0 -36 -7 0 -16 11 -18 25 -6 29
-2 31 18 11z m11 -62 c-3 -3 -12 -4 -19 -1 -8 3 -5 6 6 6 11 1 17 -2 13 -5z"/>
<path d="M342 7123 c4 -22 38 -30 38 -10 0 8 -7 18 -16 21 -23 9 -26 8 -22
-11z"/>
<path d="M613 7103 c-37 -5 -45 -23 -10 -23 41 0 97 13 97 21 0 9 -26 9 -87 2z"/>
<path d="M90 6890 c0 -5 9 -10 20 -10 11 0 20 5 20 10 0 6 -9 10 -20 10 -11 0
-20 -4 -20 -10z"/>
<path d="M125 6860 c-10 -11 -15 -23 -12 -26 8 -8 57 23 57 36 0 17 -26 11
-45 -10z"/>
<path d="M214 6865 c3 -9 6 -19 6 -21 0 -2 7 -4 16 -4 22 0 13 34 -10 38 -14
3 -17 0 -12 -13z"/>
<path d="M626 6681 c6 -28 4 -31 -20 -31 -14 0 -26 -4 -26 -10 0 -5 11 -10 25
-10 16 0 25 -6 25 -15 0 -22 17 -18 23 5 3 12 14 20 26 20 12 0 21 5 21 10 0
6 -10 10 -23 10 -18 0 -23 5 -23 22 1 14 -6 24 -16 26 -15 3 -17 -2 -12 -27z"/>
<path d="M626 6231 c6 -28 4 -31 -20 -31 -14 0 -26 -4 -26 -10 0 -5 11 -10 25
-10 40 0 29 -17 -16 -23 -22 -3 -43 -8 -46 -11 -16 -16 13 -16 110 -2 57 9
121 16 141 16 20 0 36 4 36 9 0 17 -30 20 -81 11 -66 -13 -102 -13 -94 0 3 6
15 10 26 10 10 0 19 5 19 10 0 6 -10 10 -23 10 -18 0 -23 5 -23 22 1 14 -6 24
-16 26 -15 3 -17 -2 -12 -27z"/>
<path d="M626 5781 c6 -28 4 -31 -20 -31 -14 0 -26 -4 -26 -10 0 -5 11 -10 25
-10 14 0 25 -4 25 -10 0 -5 -10 -10 -22 -10 -34 0 -68 -11 -68 -21 0 -5 6 -9
14 -9 8 0 20 -16 27 -35 7 -19 17 -35 21 -35 12 0 10 54 -3 67 -7 7 16 14 79
22 48 6 103 11 120 11 18 0 32 4 32 9 0 17 -30 20 -81 11 -66 -13 -102 -13
-94 0 3 6 15 10 26 10 10 0 19 5 19 10 0 6 -10 10 -23 10 -18 0 -23 5 -23 22
1 14 -6 24 -16 26 -15 3 -17 -2 -12 -27z"/>
<path d="M626 5331 c6 -28 4 -31 -20 -31 -14 0 -26 -4 -26 -10 0 -5 11 -10 25
-10 14 0 25 -4 25 -10 0 -5 -10 -10 -22 -10 -34 0 -68 -11 -68 -21 0 -5 6 -9
14 -9 8 0 20 -16 27 -35 14 -38 29 -46 29 -16 0 11 3 26 6 34 3 10 -2 17 -13
20 -12 3 -9 5 10 6 15 0 27 -3 27 -9 0 -5 9 -10 20 -10 16 0 19 -5 14 -30 -9
-40 11 -39 25 1 16 45 15 47 -21 51 -18 2 9 8 60 12 50 5 92 12 92 16 0 16
-31 19 -81 10 -66 -13 -102 -13 -94 0 3 6 15 10 26 10 10 0 19 5 19 10 0 6
-10 10 -23 10 -18 0 -23 5 -23 22 1 14 -6 24 -16 26 -15 3 -17 -2 -12 -27z"/>
<path d="M626 4881 c6 -28 4 -31 -20 -31 -14 0 -26 -4 -26 -10 0 -5 11 -10 25
-10 14 0 25 -4 25 -10 0 -5 -10 -10 -22 -10 -34 0 -68 -11 -68 -21 0 -5 6 -9
14 -9 8 0 20 -16 27 -35 13 -36 29 -47 29 -20 0 9 9 15 25 15 14 0 25 5 25 10
0 6 -9 10 -20 10 -11 0 -20 4 -20 9 0 5 -8 12 -17 14 -11 3 -7 5 10 6 15 0 27
-3 27 -9 0 -5 8 -10 18 -10 15 0 18 -6 14 -30 -6 -40 13 -39 27 1 16 45 15 47
-21 51 -18 2 9 8 60 12 50 5 92 12 92 16 0 16 -31 19 -81 10 -66 -13 -102 -13
-94 0 3 6 15 10 26 10 10 0 19 5 19 10 0 6 -10 10 -23 10 -18 0 -23 5 -23 22
1 14 -6 24 -16 26 -15 3 -17 -2 -12 -27z"/>
<path d="M626 4431 c6 -28 4 -31 -20 -31 -14 0 -26 -4 -26 -10 0 -5 11 -10 25
-10 14 0 25 -4 25 -10 0 -5 -10 -10 -22 -10 -34 0 -68 -11 -68 -21 0 -5 6 -9
14 -9 8 0 20 -16 27 -35 13 -36 29 -47 29 -20 0 18 16 20 23 3 7 -17 29 12 22
30 -2 6 1 12 9 12 8 0 11 -10 8 -30 -6 -40 13 -39 27 1 16 45 15 47 -21 51
-18 2 9 8 60 12 50 5 92 12 92 16 0 16 -31 19 -81 10 -66 -13 -102 -13 -94 0
3 6 15 10 26 10 10 0 19 5 19 10 0 6 -10 10 -23 10 -18 0 -23 5 -23 22 1 14
-6 24 -16 26 -15 3 -17 -2 -12 -27z m7 -107 c-3 -9 -9 -11 -12 -6 -3 5 -13 12
-21 15 -9 3 -4 6 12 6 21 1 26 -3 21 -15z"/>
<path d="M626 3981 c6 -28 4 -31 -20 -31 -14 0 -26 -4 -26 -10 0 -5 11 -10 25
-10 14 0 25 -4 25 -10 0 -5 -10 -10 -22 -10 -34 0 -68 -11 -68 -21 0 -5 6 -9
14 -9 8 0 20 -16 27 -35 7 -19 19 -35 27 -35 8 0 12 6 8 15 -3 8 -1 15 3 15 5
0 11 -4 13 -8 2 -5 15 -12 30 -15 23 -6 27 -3 37 25 16 44 15 46 -21 50 -18 2
9 8 60 12 50 5 92 12 92 16 0 16 -31 19 -81 10 -66 -13 -102 -13 -94 0 3 6 15
10 26 10 10 0 19 5 19 10 0 6 -10 10 -23 10 -18 0 -23 5 -23 22 1 14 -6 24
-16 26 -15 3 -17 -2 -12 -27z m7 -107 c-3 -9 -9 -11 -12 -6 -3 5 -13 12 -21
15 -9 3 -4 6 12 6 21 1 26 -3 21 -15z m41 -19 c-4 -8 -7 -15 -9 -15 -2 0 -5 7
-9 15 -3 9 0 15 9 15 9 0 12 -6 9 -15z"/>
<path d="M626 3531 c6 -28 4 -31 -20 -31 -14 0 -26 -4 -26 -10 0 -5 11 -10 25
-10 14 0 25 -4 25 -10 0 -5 -10 -10 -22 -10 -34 0 -68 -11 -68 -21 0 -5 6 -9
14 -9 8 0 20 -16 27 -35 7 -19 19 -35 27 -35 8 0 12 6 8 15 -3 8 -1 15 3 15 5
0 11 -4 13 -8 2 -5 15 -12 30 -15 23 -6 27 -3 37 25 16 44 15 46 -21 50 -18 2
9 8 60 12 50 5 92 12 92 16 0 16 -31 19 -81 10 -66 -13 -102 -13 -94 0 3 6 15
10 26 10 10 0 19 5 19 10 0 6 -10 10 -23 10 -18 0 -23 5 -23 22 1 14 -6 24
-16 26 -15 3 -17 -2 -12 -27z m7 -107 c-3 -9 -9 -11 -12 -6 -3 5 -13 12 -21
15 -9 3 -4 6 12 6 21 1 26 -3 21 -15z m41 -19 c-4 -8 -7 -15 -9 -15 -2 0 -5 7
-9 15 -3 9 0 15 9 15 9 0 12 -6 9 -15z"/>
<path d="M633 3343 c-24 -2 -43 -8 -43 -14 0 -10 53 -12 88 -3 23 7 31 25 10
22 -7 -1 -32 -3 -55 -5z"/>
<path d="M626 3081 c6 -28 4 -31 -20 -31 -14 0 -26 -4 -26 -10 0 -5 11 -10 25
-10 14 0 25 -4 25 -10 0 -5 -10 -10 -22 -10 -34 0 -68 -11 -68 -21 0 -5 6 -9
13 -9 17 0 37 -42 37 -78 0 -34 17 -62 28 -46 4 6 24 14 45 18 50 9 49 28 -2
20 -35 -6 -39 -4 -43 20 -5 24 6 37 14 18 2 -5 15 -12 30 -15 23 -6 27 -3 37
25 16 44 15 46 -21 50 -18 2 9 8 60 12 50 5 92 12 92 16 0 16 -31 19 -81 10
-66 -13 -102 -13 -94 0 3 6 15 10 26 10 10 0 19 5 19 10 0 6 -10 10 -23 10
-18 0 -23 5 -23 22 1 14 -6 24 -16 26 -15 3 -17 -2 -12 -27z m7 -107 c-3 -9
-9 -11 -12 -6 -3 5 -13 12 -21 15 -9 3 -4 6 12 6 21 1 26 -3 21 -15z m41 -19
c-4 -8 -7 -15 -9 -15 -2 0 -5 7 -9 15 -3 9 0 15 9 15 9 0 12 -6 9 -15z"/>
<path d="M626 2631 c6 -28 4 -31 -20 -31 -14 0 -26 -4 -26 -10 0 -5 11 -10 25
-10 14 0 25 -4 25 -10 0 -5 -10 -10 -22 -10 -34 0 -68 -11 -68 -21 0 -5 6 -9
13 -9 17 0 37 -42 37 -78 0 -33 19 -64 27 -44 6 15 30 16 35 0 3 -7 13 -3 28
12 14 14 19 25 13 27 -8 3 -7 14 3 38 20 48 18 53 -18 57 -18 2 9 8 60 12 50
5 92 12 92 16 0 16 -31 19 -81 10 -66 -13 -102 -13 -94 0 3 6 15 10 26 10 10
0 19 5 19 10 0 6 -10 10 -23 10 -18 0 -23 5 -23 22 1 14 -6 24 -16 26 -15 3
-17 -2 -12 -27z m7 -107 c-3 -9 -9 -11 -12 -6 -3 5 -13 12 -21 15 -9 3 -4 6
12 6 21 1 26 -3 21 -15z m41 -19 c-4 -8 -7 -15 -9 -15 -2 0 -5 7 -9 15 -3 9 0
15 9 15 9 0 12 -6 9 -15z m-38 -29 c18 -18 18 -36 0 -36 -7 0 -16 11 -18 25
-6 29 -2 31 18 11z"/>
<path d="M626 2181 c6 -28 4 -31 -20 -31 -14 0 -26 -4 -26 -10 0 -5 11 -10 25
-10 14 0 25 -4 25 -10 0 -5 -10 -10 -22 -10 -34 0 -68 -11 -68 -21 0 -5 6 -9
13 -9 16 0 37 -41 37 -73 0 -58 9 -67 66 -67 30 0 54 5 54 10 0 6 -10 10 -22
10 -23 1 -23 1 -3 16 13 11 16 18 8 21 -8 3 -8 13 3 38 20 48 18 53 -18 57
-18 2 9 8 60 12 50 5 92 12 92 16 0 16 -31 19 -81 10 -66 -13 -102 -13 -94 0
3 6 15 10 26 10 10 0 19 5 19 10 0 6 -10 10 -23 10 -18 0 -23 5 -23 22 1 14
-6 24 -16 26 -15 3 -17 -2 -12 -27z m7 -107 c-3 -9 -9 -11 -12 -6 -3 5 -13 12
-21 15 -9 3 -4 6 12 6 21 1 26 -3 21 -15z m41 -19 c-4 -8 -7 -15 -9 -15 -2 0
-5 7 -9 15 -3 9 0 15 9 15 9 0 12 -6 9 -15z m-38 -29 c18 -18 18 -36 0 -36 -7
0 -16 11 -18 25 -6 29 -2 31 18 11z m11 -62 c-3 -3 -12 -4 -19 -1 -8 3 -5 6 6
6 11 1 17 -2 13 -5z"/>
<path d="M540 1940 c0 -5 9 -10 20 -10 11 0 20 5 20 10 0 6 -9 10 -20 10 -11
0 -20 -4 -20 -10z"/>
<path d="M626 1731 c6 -28 4 -31 -20 -31 -14 0 -26 -4 -26 -10 0 -5 11 -10 25
-10 14 0 25 -4 25 -10 0 -5 -10 -10 -22 -10 -34 0 -68 -11 -68 -21 0 -5 6 -9
13 -9 16 0 37 -41 37 -73 0 -58 9 -67 66 -67 30 0 54 5 54 10 0 6 -10 10 -22
10 -23 1 -23 1 -3 16 13 11 16 18 8 21 -8 3 -8 13 3 38 20 48 18 53 -18 57
-18 2 9 8 60 12 50 5 92 12 92 16 0 16 -31 19 -81 10 -66 -13 -102 -13 -94 0
3 6 15 10 26 10 10 0 19 5 19 10 0 6 -10 10 -23 10 -18 0 -23 5 -23 22 1 14
-6 24 -16 26 -15 3 -17 -2 -12 -27z m7 -107 c-3 -9 -9 -11 -12 -6 -3 5 -13 12
-21 15 -9 3 -4 6 12 6 21 1 26 -3 21 -15z m41 -19 c-4 -8 -7 -15 -9 -15 -2 0
-5 7 -9 15 -3 9 0 15 9 15 9 0 12 -6 9 -15z m-38 -29 c18 -18 18 -36 0 -36 -7
0 -16 11 -18 25 -6 29 -2 31 18 11z m11 -62 c-3 -3 -12 -4 -19 -1 -8 3 -5 6 6
6 11 1 17 -2 13 -5z"/>
<path d="M540 1490 c0 -5 9 -10 20 -10 11 0 20 5 20 10 0 6 -9 10 -20 10 -11
0 -20 -4 -20 -10z"/>
<path d="M575 1460 c-10 -11 -15 -23 -12 -26 8 -8 57 23 57 36 0 17 -26 11
-45 -10z"/>
<path d="M626 1281 c6 -28 4 -31 -20 -31 -14 0 -26 -4 -26 -10 0 -5 11 -10 25
-10 14 0 25 -4 25 -10 0 -5 -10 -10 -22 -10 -34 0 -68 -11 -68 -21 0 -5 6 -9
13 -9 16 0 37 -41 37 -73 0 -58 9 -67 66 -67 30 0 54 5 54 10 0 6 -10 10 -22
10 -23 1 -23 1 -3 16 13 11 16 18 8 21 -8 3 -8 13 3 38 20 48 18 53 -18 57
-18 2 9 8 60 12 50 5 92 12 92 16 0 16 -31 19 -81 10 -66 -13 -102 -13 -94 0
3 6 15 10 26 10 10 0 19 5 19 10 0 6 -10 10 -23 10 -18 0 -23 5 -23 22 1 14
-6 24 -16 26 -15 3 -17 -2 -12 -27z m7 -107 c-3 -9 -9 -11 -12 -6 -3 5 -13 12
-21 15 -9 3 -4 6 12 6 21 1 26 -3 21 -15z m41 -19 c-4 -8 -7 -15 -9 -15 -2 0
-5 7 -9 15 -3 9 0 15 9 15 9 0 12 -6 9 -15z m-38 -29 c18 -18 18 -36 0 -36 -7
0 -16 11 -18 25 -6 29 -2 31 18 11z m11 -62 c-3 -3 -12 -4 -19 -1 -8 3 -5 6 6
6 11 1 17 -2 13 -5z"/>
<path d="M540 1040 c0 -5 9 -10 20 -10 11 0 20 5 20 10 0 6 -9 10 -20 10 -11
0 -20 -4 -20 -10z"/>
<path d="M575 1010 c-10 -11 -15 -23 -12 -26 8 -8 57 23 57 36 0 17 -26 11
-45 -10z"/>
<path d="M664 1015 c3 -9 6 -19 6 -21 0 -2 7 -4 16 -4 22 0 13 34 -10 38 -14
3 -17 0 -12 -13z"/>
<path d="M717 821 l6 -51 -37 0 c-22 0 -35 4 -31 10 3 6 15 10 26 10 10 0 19
5 19 10 0 6 -10 10 -23 10 -18 0 -23 5 -23 22 1 14 -6 24 -16 26 -15 3 -17 -2
-12 -27 6 -28 4 -31 -20 -31 -14 0 -26 -4 -26 -10 0 -5 11 -10 25 -10 14 0 25
-4 25 -10 0 -5 -10 -10 -22 -10 -34 0 -68 -11 -68 -21 0 -5 6 -9 13 -9 16 0
37 -41 37 -73 0 -58 9 -67 66 -67 30 0 54 5 54 10 0 6 -10 10 -22 10 -23 1
-23 1 -3 16 13 11 16 18 8 21 -8 3 -8 13 3 38 20 48 18 53 -18 58 -29 3 -28 4
9 5 l41 2 11 -50 c20 -94 78 -180 121 -180 22 0 27 24 10 50 -8 12 -12 12 -18
2 -19 -29 -92 99 -92 163 0 22 4 25 35 25 19 0 35 4 35 9 0 14 -29 22 -55 15
-22 -5 -24 -2 -27 37 -2 32 -8 45 -20 47 -15 3 -16 -3 -11 -47z m-84 -97 c-3
-9 -9 -11 -12 -6 -3 5 -13 12 -21 15 -9 3 -4 6 12 6 21 1 26 -3 21 -15z m41
-19 c-4 -8 -7 -15 -9 -15 -2 0 -5 7 -9 15 -3 9 0 15 9 15 9 0 12 -6 9 -15z
m-38 -29 c18 -18 18 -36 0 -36 -7 0 -16 11 -18 25 -6 29 -2 31 18 11z m11 -62
c-3 -3 -12 -4 -19 -1 -8 3 -5 6 6 6 11 1 17 -2 13 -5z"/>
<path d="M540 590 c0 -5 9 -10 20 -10 11 0 20 5 20 10 0 6 -9 10 -20 10 -11 0
-20 -4 -20 -10z"/>
<path d="M575 560 c-10 -11 -15 -23 -12 -26 8 -8 57 23 57 36 0 17 -26 11 -45
-10z"/>
<path d="M664 565 c3 -9 6 -19 6 -21 0 -2 7 -4 16 -4 22 0 13 34 -10 38 -14 3
-17 0 -12 -13z"/>
<path d="M717 371 l6 -51 -37 0 c-22 0 -35 4 -31 10 3 6 15 10 26 10 10 0 19
5 19 10 0 6 -10 10 -23 10 -18 0 -23 5 -23 22 1 14 -6 24 -16 26 -15 3 -17 -2
-12 -27 6 -28 4 -31 -20 -31 -14 0 -26 -4 -26 -10 0 -5 11 -10 25 -10 14 0 25
-4 25 -10 0 -5 -10 -10 -22 -10 -34 0 -68 -11 -68 -21 0 -5 6 -9 13 -9 16 0
37 -41 37 -73 0 -58 9 -67 66 -67 30 0 54 5 54 10 0 6 -10 10 -22 10 -23 1
-23 1 -3 16 13 11 16 18 8 21 -8 3 -8 13 3 38 20 48 18 53 -18 58 -29 3 -28 4
9 5 l41 2 11 -50 c20 -94 78 -180 121 -180 22 0 27 24 10 50 -8 12 -12 12 -18
2 -19 -29 -92 99 -92 163 0 22 4 25 35 25 19 0 35 4 35 9 0 14 -29 22 -55 15
-22 -5 -24 -2 -27 37 -2 32 -8 45 -20 47 -15 3 -16 -3 -11 -47z m-84 -97 c-3
-9 -9 -11 -12 -6 -3 5 -13 12 -21 15 -9 3 -4 6 12 6 21 1 26 -3 21 -15z m41
-19 c-4 -8 -7 -15 -9 -15 -2 0 -5 7 -9 15 -3 9 0 15 9 15 9 0 12 -6 9 -15z
m-38 -29 c18 -18 18 -36 0 -36 -7 0 -16 11 -18 25 -6 29 -2 31 18 11z m11 -62
c-3 -3 -12 -4 -19 -1 -8 3 -5 6 6 6 11 1 17 -2 13 -5z"/>
<path d="M792 373 c4 -22 38 -30 38 -10 0 8 -7 18 -16 21 -23 9 -26 8 -22 -11z"/>
<path d="M540 140 c0 -5 9 -10 20 -10 11 0 20 5 20 10 0 6 -9 10 -20 10 -11 0
-20 -4 -20 -10z"/>
<path d="M575 110 c-10 -11 -15 -23 -12 -26 8 -8 57 23 57 36 0 17 -26 11 -45
-10z"/>
<path d="M664 115 c3 -9 6 -19 6 -21 0 -2 7 -4 16 -4 22 0 13 34 -10 38 -14 3
-17 0 -12 -13z"/>
</g>
</svg>
