<?xml version="1.0" standalone="no"?>
<!DOCTYPE svg PUBLIC "-//W3C//DTD SVG 20010904//EN"
 "http://www.w3.org/TR/2001/REC-SVG-20010904/DTD/svg10.dtd">
<svg version="1.0" xmlns="http://www.w3.org/2000/svg"
 width="50.000000pt" height="725.000000pt" viewBox="0 0 50.000000 725.000000"
 preserveAspectRatio="xMidYMid meet">
<metadata>
Created by potrace 1.16, written by Peter Selinger 2001-2019
</metadata>
<g transform="translate(0.000000,725.000000) scale(0.100000,-0.100000)"
fill="#000000" stroke="none">
<path d="M208 7148 c-27 -6 -48 -14 -48 -19 0 -11 24 -11 73 0 l38 9 -16 -25
c-23 -35 -11 -40 30 -12 66 45 26 69 -77 47z"/>
<path d="M208 6698 c-27 -6 -48 -14 -48 -19 0 -11 24 -11 72 0 35 8 37 7 28
-10 -6 -10 -17 -22 -25 -27 -13 -7 -14 -17 -5 -62 12 -64 4 -140 -16 -156 -19
-15 -7 -44 17 -44 25 0 33 47 27 160 l-4 90 33 23 c64 43 23 67 -79 45z"/>
<path d="M208 6248 c-27 -6 -48 -14 -48 -19 0 -11 24 -11 72 0 35 8 37 8 27
-11 -6 -10 -17 -22 -25 -25 -8 -3 -14 -14 -14 -24 0 -10 -4 -19 -10 -19 -5 0
-10 -4 -10 -10 0 -5 6 -10 14 -10 30 0 30 -132 0 -156 -18 -15 -7 -44 16 -44
23 0 30 27 30 128 0 66 3 82 15 82 8 0 15 5 15 10 0 6 -9 10 -20 10 -30 0 -24
14 15 41 66 45 26 69 -77 47z"/>
<path d="M208 5798 c-27 -6 -48 -14 -48 -19 0 -11 24 -11 72 0 35 8 37 8 27
-11 -6 -10 -17 -22 -25 -25 -8 -3 -14 -14 -14 -24 0 -10 -4 -19 -10 -19 -5 0
-10 -4 -10 -10 0 -5 7 -10 15 -10 18 0 20 -16 3 -24 -9 -3 -8 -8 5 -16 15 -10
17 -20 11 -58 -3 -26 -12 -52 -20 -58 -18 -15 -7 -44 16 -44 22 0 30 27 30
101 0 30 6 61 13 68 10 11 10 14 0 18 -18 6 -16 23 2 23 8 0 15 5 15 10 0 6
-9 10 -20 10 -30 0 -24 14 15 41 66 45 26 69 -77 47z"/>
<path d="M208 5348 c-27 -6 -48 -14 -48 -19 0 -11 24 -11 72 0 35 8 37 8 27
-11 -6 -10 -17 -22 -25 -25 -8 -3 -14 -14 -14 -24 0 -10 -4 -19 -10 -19 -5 0
-10 -4 -10 -10 0 -5 7 -10 15 -10 18 0 20 -16 3 -24 -9 -3 -8 -8 5 -16 21 -13
14 -30 -14 -30 -11 0 -19 -7 -19 -16 0 -11 6 -14 20 -9 17 5 20 2 20 -24 0
-17 -7 -34 -15 -39 -20 -11 -9 -42 15 -42 19 0 30 27 30 76 0 23 5 33 20 37
11 3 20 10 20 16 0 6 -9 11 -20 11 -23 0 -26 10 -7 29 10 11 10 14 0 18 -18 6
-16 23 2 23 8 0 15 5 15 10 0 6 -9 10 -20 10 -30 0 -24 14 15 41 66 45 26 69
-77 47z"/>
<path d="M208 4898 c-27 -6 -48 -14 -48 -19 0 -11 24 -11 72 0 35 8 37 8 27
-11 -6 -10 -17 -22 -25 -25 -8 -3 -14 -13 -14 -23 0 -18 -25 -34 -39 -25 -4 2
-24 0 -44 -6 -45 -12 -50 -34 -6 -24 l31 7 -16 -30 c-8 -16 -27 -44 -42 -61
-15 -18 -24 -35 -21 -38 13 -12 59 30 88 82 17 30 37 55 45 55 17 0 18 -16 2
-24 -9 -3 -8 -8 5 -16 21 -13 14 -30 -14 -30 -11 0 -19 -7 -19 -16 0 -11 6
-14 20 -9 17 5 20 2 20 -24 0 -17 -7 -34 -15 -39 -20 -11 -9 -42 15 -42 19 0
30 27 30 76 0 23 5 33 20 37 11 3 20 10 20 16 0 6 -9 11 -20 11 -23 0 -26 10
-7 29 10 11 10 14 0 18 -18 6 -16 23 2 23 8 0 15 5 15 10 0 6 -9 10 -20 10
-30 0 -24 14 15 41 66 45 26 69 -77 47z"/>
<path d="M208 4448 c-27 -6 -48 -14 -48 -19 0 -11 24 -11 72 0 35 8 37 8 27
-11 -6 -10 -17 -22 -25 -25 -8 -3 -14 -13 -14 -23 0 -18 -25 -34 -39 -25 -4 2
-24 0 -44 -6 -45 -12 -50 -34 -6 -24 l31 7 -16 -30 c-8 -16 -27 -44 -42 -61
-15 -18 -24 -35 -21 -38 13 -12 59 30 88 82 17 30 37 55 45 55 17 0 18 -16 2
-24 -9 -3 -8 -8 5 -16 21 -13 14 -30 -14 -30 -11 0 -19 -7 -19 -16 0 -11 6
-14 20 -9 17 5 20 2 20 -24 0 -17 -7 -34 -15 -39 -20 -11 -9 -42 15 -42 19 0
30 27 30 76 0 23 5 33 20 37 11 3 20 10 20 16 0 6 -9 11 -20 11 -23 0 -26 10
-7 29 10 11 10 14 0 18 -18 6 -16 23 2 23 8 0 15 5 15 10 0 6 -9 10 -20 10
-30 0 -24 14 15 41 66 45 26 69 -77 47z"/>
<path d="M320 4365 c-13 -14 -21 -28 -18 -31 10 -9 70 26 66 38 -7 21 -24 19
-48 -7z"/>
<path d="M208 3998 c-27 -6 -48 -14 -48 -19 0 -11 24 -11 72 0 35 8 37 8 27
-11 -6 -10 -17 -22 -25 -25 -8 -3 -14 -13 -14 -23 0 -18 -25 -34 -39 -25 -4 2
-24 0 -44 -6 -45 -12 -50 -34 -6 -24 l31 7 -16 -30 c-8 -16 -27 -44 -42 -61
-15 -18 -24 -35 -21 -38 13 -12 59 30 88 82 17 30 37 55 45 55 17 0 18 -16 2
-24 -9 -3 -8 -8 5 -16 21 -13 14 -30 -14 -30 -11 0 -19 -7 -19 -16 0 -11 6
-14 20 -9 17 5 20 2 20 -24 0 -17 -7 -34 -15 -39 -20 -11 -9 -42 15 -42 19 0
30 27 30 76 0 23 5 33 20 37 11 3 20 10 20 16 0 6 -9 11 -20 11 -23 0 -26 10
-7 29 10 11 10 14 0 18 -18 6 -16 23 2 23 8 0 15 5 15 10 0 6 -9 10 -20 10
-30 0 -24 14 15 41 66 45 26 69 -77 47z"/>
<path d="M316 3911 l-27 -29 35 -71 c35 -68 38 -71 71 -71 41 0 45 12 10 28
-22 10 -85 94 -85 112 0 4 12 12 26 19 14 6 24 17 22 23 -8 22 -24 18 -52 -11z"/>
</g>
</svg>
