<?xml version="1.0" standalone="no"?>
<!DOCTYPE svg PUBLIC "-//W3C//DTD SVG 20010904//EN"
 "http://www.w3.org/TR/2001/REC-SVG-20010904/DTD/svg10.dtd">
<svg version="1.0" xmlns="http://www.w3.org/2000/svg"
 width="50.000000pt" height="725.000000pt" viewBox="0 0 50.000000 725.000000"
 preserveAspectRatio="xMidYMid meet">
<metadata>
Created by potrace 1.16, written by Peter Selinger 2001-2019
</metadata>
<g transform="translate(0.000000,725.000000) scale(0.100000,-0.100000)"
fill="#000000" stroke="none">
<path d="M138 7047 c-50 -11 -65 -27 -25 -27 49 0 97 13 97 26 0 16 -5 16 -72
1z"/>
<path d="M145 6653 c0 -56 -1 -58 -27 -61 -38 -4 -36 -22 2 -22 l30 0 0 -70
c0 -63 -2 -70 -20 -70 -25 0 -25 -12 0 -35 27 -25 44 -7 43 43 -3 74 8 142 23
142 8 0 14 7 14 15 0 8 -7 15 -16 15 -14 0 -16 7 -11 44 5 34 3 45 -9 50 -27
11 -30 7 -29 -51z"/>
<path d="M145 6203 c0 -56 -1 -58 -27 -61 -38 -4 -36 -22 2 -22 25 0 30 -4 30
-23 0 -18 -10 -28 -40 -42 -22 -10 -40 -22 -40 -27 0 -18 29 -19 54 -3 l26 17
0 -31 c0 -24 -4 -31 -20 -31 -25 0 -25 -12 0 -35 30 -27 46 -6 43 58 -2 36 2
57 15 71 12 14 14 20 5 23 -18 6 -16 33 2 33 8 0 15 7 15 15 0 8 -7 15 -16 15
-14 0 -16 7 -11 44 5 34 3 45 -9 50 -27 11 -30 7 -29 -51z"/>
<path d="M145 5753 c0 -56 -1 -58 -27 -61 -38 -4 -36 -22 2 -22 25 0 30 -4 30
-23 0 -18 -10 -28 -40 -42 -22 -10 -40 -22 -40 -27 0 -18 29 -19 54 -3 l26 17
0 -31 c0 -24 -4 -31 -20 -31 -25 0 -25 -12 0 -35 30 -27 46 -6 43 58 -2 36 2
57 15 71 12 14 14 20 5 23 -18 6 -16 33 2 33 8 0 15 7 15 15 0 8 -7 15 -16 15
-14 0 -16 7 -11 44 5 34 3 45 -9 50 -27 11 -30 7 -29 -51z"/>
<path d="M260 5785 c0 -16 26 -55 37 -55 18 0 16 47 -3 54 -19 7 -34 8 -34 1z"/>
<path d="M145 5303 c0 -56 -1 -58 -27 -61 -38 -4 -36 -22 2 -22 25 0 30 -4 30
-23 0 -18 -10 -28 -40 -42 -22 -10 -40 -22 -40 -27 0 -18 29 -19 54 -3 l26 17
0 -31 c0 -24 -4 -31 -20 -31 -25 0 -25 -12 0 -35 30 -27 46 -6 43 58 -2 36 2
57 15 71 12 14 14 20 5 23 -18 6 -16 33 2 33 8 0 15 7 15 15 0 8 -7 15 -16 15
-14 0 -16 7 -11 44 5 34 3 45 -9 50 -27 11 -30 7 -29 -51z"/>
<path d="M264 5325 c3 -8 9 -21 12 -29 4 -10 -3 -16 -22 -18 -15 -2 -30 -9
-32 -17 -4 -11 2 -13 29 -7 19 4 58 10 87 13 60 7 67 29 8 27 -28 -1 -36 3
-36 16 0 10 -7 21 -16 24 -26 10 -36 7 -30 -9z"/>
<path d="M145 4853 c0 -56 -1 -58 -27 -61 -38 -4 -36 -22 2 -22 25 0 30 -4 30
-23 0 -18 -10 -28 -40 -42 -22 -10 -40 -22 -40 -27 0 -18 29 -19 54 -3 l26 17
0 -31 c0 -24 -4 -31 -20 -31 -25 0 -25 -12 0 -35 30 -27 46 -6 43 58 -2 36 2
57 15 71 12 14 14 20 5 23 -18 6 -16 33 2 33 8 0 15 7 15 15 0 8 -7 15 -16 15
-14 0 -16 7 -11 44 5 34 3 45 -9 50 -27 11 -30 7 -29 -51z"/>
<path d="M264 4875 c3 -8 9 -21 12 -29 4 -10 -3 -16 -22 -18 -15 -2 -30 -9
-32 -17 -4 -11 2 -13 29 -7 19 4 58 10 87 13 60 7 67 29 8 27 -28 -1 -36 3
-36 16 0 10 -7 21 -16 24 -26 10 -36 7 -30 -9z"/>
<path d="M243 4738 c5 -20 -3 -53 -28 -110 -13 -31 14 -20 35 15 25 41 28 117
4 117 -12 0 -15 -6 -11 -22z"/>
<path d="M145 4403 c0 -56 -1 -58 -27 -61 -38 -4 -36 -22 2 -22 25 0 30 -4 30
-23 0 -18 -10 -28 -40 -42 -22 -10 -40 -22 -40 -27 0 -18 29 -19 54 -3 l26 17
0 -31 c0 -24 -4 -31 -20 -31 -25 0 -25 -12 0 -35 30 -27 46 -6 43 58 -2 36 2
57 15 71 12 14 14 20 5 23 -18 6 -16 33 2 33 8 0 15 7 15 15 0 8 -7 15 -16 15
-14 0 -16 7 -11 44 5 34 3 45 -9 50 -27 11 -30 7 -29 -51z"/>
<path d="M264 4425 c3 -8 9 -21 12 -29 4 -10 -3 -16 -22 -18 -15 -2 -30 -9
-32 -17 -4 -11 2 -13 29 -7 19 4 58 10 87 13 60 7 67 29 8 27 -28 -1 -36 3
-36 16 0 10 -7 21 -16 24 -26 10 -36 7 -30 -9z"/>
<path d="M307 4313 c-4 -3 -21 -6 -38 -5 -27 1 -30 -2 -26 -21 5 -19 -3 -52
-28 -109 -11 -28 12 -21 31 8 10 14 20 42 23 62 4 24 12 38 24 40 15 3 17 -5
17 -55 0 -33 5 -64 12 -71 13 -13 86 -16 106 -4 8 6 10 19 6 40 -8 38 -20 41
-28 7 -5 -20 -13 -25 -36 -25 -36 0 -48 31 -30 84 6 20 9 40 5 46 -7 11 -28
13 -38 3z"/>
</g>
</svg>
