<?xml version="1.0" standalone="no"?>
<!DOCTYPE svg PUBLIC "-//W3C//DTD SVG 20010904//EN"
 "http://www.w3.org/TR/2001/REC-SVG-20010904/DTD/svg10.dtd">
<svg version="1.0" xmlns="http://www.w3.org/2000/svg"
 width="50.000000pt" height="725.000000pt" viewBox="0 0 50.000000 725.000000"
 preserveAspectRatio="xMidYMid meet">
<metadata>
Created by potrace 1.16, written by Peter Selinger 2001-2019
</metadata>
<g transform="translate(0.000000,725.000000) scale(0.100000,-0.100000)"
fill="#000000" stroke="none">
<path d="M175 7055 c-5 -2 -22 -6 -37 -9 -44 -10 -35 -29 10 -22 77 14 92 18
92 27 0 8 -43 11 -65 4z"/>
<path d="M168 6656 c4 -53 4 -53 -27 -59 -17 -4 -31 -12 -31 -18 0 -7 11 -9
30 -5 l30 6 0 -71 c0 -62 -2 -71 -20 -76 -25 -7 -25 -15 -1 -37 33 -30 41 -11
41 89 0 93 1 95 25 101 30 8 33 24 4 24 -19 0 -21 4 -15 44 6 35 4 45 -9 50
-29 11 -32 7 -27 -48z"/>
<path d="M168 6206 c4 -53 4 -53 -27 -59 -17 -4 -31 -12 -31 -18 0 -7 11 -9
31 -5 28 5 30 4 27 -20 -2 -20 -14 -32 -45 -48 -23 -11 -41 -25 -39 -31 6 -20
38 -16 62 6 l24 22 0 -32 c0 -24 -5 -34 -20 -38 -25 -7 -25 -15 -1 -37 30 -27
41 -11 41 60 0 48 4 66 15 70 8 4 15 10 15 15 0 5 -7 9 -15 9 -25 0 -17 29 10
36 30 8 33 24 4 24 -19 0 -21 4 -15 44 6 35 4 45 -9 50 -29 11 -32 7 -27 -48z"/>
<path d="M168 5756 c4 -53 4 -53 -27 -59 -17 -4 -31 -12 -31 -18 0 -7 11 -9
31 -5 28 5 30 4 27 -20 -2 -20 -14 -32 -45 -48 -23 -11 -41 -25 -39 -31 6 -20
38 -16 62 6 l24 22 0 -32 c0 -24 -5 -34 -20 -38 -25 -7 -25 -15 -1 -37 30 -27
41 -11 41 60 0 48 4 66 15 70 8 4 15 10 15 15 0 5 -7 9 -15 9 -25 0 -17 29 10
36 30 8 33 24 4 24 -19 0 -21 4 -15 44 6 35 4 45 -9 50 -29 11 -32 7 -27 -48z"/>
<path d="M234 5653 c3 -10 8 -44 12 -75 6 -60 24 -80 24 -29 0 63 -13 121 -27
121 -9 0 -12 -7 -9 -17z"/>
<path d="M168 5306 c4 -53 4 -53 -27 -59 -17 -4 -31 -12 -31 -18 0 -7 11 -9
31 -5 28 5 30 4 27 -20 -2 -20 -14 -32 -45 -48 -23 -11 -41 -25 -39 -31 6 -20
38 -16 62 6 l24 22 0 -32 c0 -24 -5 -34 -20 -38 -25 -7 -25 -15 -1 -37 30 -27
41 -11 41 60 0 48 4 66 15 70 8 4 15 10 15 15 0 5 -7 9 -15 9 -25 0 -17 29 10
36 30 8 33 24 4 24 -19 0 -21 4 -15 44 6 35 4 45 -9 50 -29 11 -32 7 -27 -48z"/>
<path d="M338 5233 c-54 -6 -47 -23 8 -23 l46 0 -7 -47 c-4 -27 -11 -50 -16
-53 -10 -7 0 -50 12 -50 12 0 25 33 37 100 11 59 3 81 -27 78 -9 -1 -33 -3
-53 -5z"/>
<path d="M234 5203 c3 -10 8 -44 12 -75 9 -82 29 -75 21 7 -4 39 -2 65 3 65 6
0 10 5 10 10 0 6 -12 10 -26 10 -19 0 -24 -4 -20 -17z"/>
<path d="M168 4856 c4 -53 4 -53 -27 -59 -17 -4 -31 -12 -31 -18 0 -7 11 -9
31 -5 28 5 30 4 27 -20 -2 -20 -14 -32 -45 -48 -23 -11 -41 -25 -39 -31 6 -20
38 -16 62 6 l24 22 0 -32 c0 -24 -5 -34 -20 -38 -25 -7 -25 -15 -1 -37 30 -27
41 -11 41 60 0 48 4 66 15 70 8 4 15 10 15 15 0 5 -7 9 -15 9 -25 0 -17 29 10
36 30 8 33 24 4 24 -19 0 -21 4 -15 44 6 35 4 45 -9 50 -29 11 -32 7 -27 -48z"/>
<path d="M338 4783 c-53 -6 -47 -23 7 -23 36 0 45 -3 45 -17 0 -14 -9 -18 -37
-20 -20 -1 -48 -4 -60 -8 -17 -4 -25 0 -30 12 -4 9 -1 19 5 21 22 7 12 22 -14
22 -19 0 -24 -4 -20 -17 3 -10 8 -44 12 -75 7 -63 24 -79 24 -24 0 30 4 34 31
40 57 11 79 8 79 -13 0 -11 -4 -21 -10 -23 -12 -4 -1 -48 11 -48 12 0 25 33
37 100 11 59 3 81 -27 78 -9 -1 -33 -3 -53 -5z"/>
<path d="M168 4406 c4 -53 4 -53 -27 -59 -17 -4 -31 -12 -31 -18 0 -7 11 -9
31 -5 28 5 30 4 27 -20 -2 -20 -14 -32 -45 -48 -23 -11 -41 -25 -39 -31 6 -20
38 -16 62 6 l24 22 0 -32 c0 -24 -5 -34 -20 -38 -25 -7 -25 -15 -1 -37 30 -27
41 -11 41 60 0 48 4 66 15 70 8 4 15 10 15 15 0 5 -7 9 -15 9 -25 0 -17 29 10
36 30 8 33 24 4 24 -19 0 -21 4 -15 44 6 35 4 45 -9 50 -29 11 -32 7 -27 -48z"/>
<path d="M306 4356 c2 -68 0 -86 -13 -90 -8 -3 -19 -4 -24 0 -12 7 -11 34 1
34 6 0 10 5 10 10 0 6 -12 10 -26 10 -19 0 -24 -4 -20 -17 3 -10 8 -44 12 -75
7 -63 24 -79 24 -23 0 28 4 35 20 35 13 0 20 -7 20 -20 0 -11 5 -20 10 -20 6
0 10 11 10 25 0 20 5 25 25 25 18 0 25 -5 25 -19 0 -11 -4 -21 -10 -23 -12 -4
-1 -48 11 -48 12 0 25 33 37 100 12 69 3 84 -47 75 l-36 -6 0 53 c0 40 -4 53
-16 56 -14 3 -16 -8 -13 -82z m84 -63 c0 -13 -9 -18 -30 -19 -23 -1 -30 3 -30
17 0 14 7 19 30 19 22 0 30 -5 30 -17z"/>
<path d="M168 3956 c4 -53 4 -53 -27 -59 -17 -4 -31 -12 -31 -18 0 -7 11 -9
31 -5 28 5 30 4 27 -20 -2 -20 -14 -32 -45 -48 -23 -11 -41 -25 -39 -31 6 -20
38 -16 62 6 l24 22 0 -32 c0 -24 -5 -34 -20 -38 -25 -7 -25 -15 -1 -37 30 -27
41 -11 41 60 0 48 4 66 15 70 8 4 15 10 15 15 0 5 -7 9 -15 9 -25 0 -17 29 10
36 30 8 33 24 4 24 -19 0 -21 4 -15 44 6 35 4 45 -9 50 -29 11 -32 7 -27 -48z"/>
<path d="M306 3906 c2 -68 0 -86 -13 -90 -8 -3 -19 -4 -24 0 -12 7 -11 34 1
34 6 0 10 5 10 10 0 6 -12 10 -26 10 -19 0 -24 -4 -20 -17 3 -10 8 -44 12 -76
5 -47 9 -57 22 -52 9 3 35 9 59 12 36 5 43 3 43 -11 0 -24 19 -20 29 7 5 12
13 47 19 77 12 69 3 84 -47 75 l-36 -6 0 53 c0 40 -4 53 -16 56 -14 3 -16 -8
-13 -82z m84 -63 c0 -13 -9 -18 -30 -19 -23 -1 -30 3 -30 17 0 14 7 19 30 19
22 0 30 -5 30 -17z m-10 -63 c0 -15 -7 -20 -25 -20 -18 0 -25 5 -25 20 0 15 7
20 25 20 18 0 25 -5 25 -20z m-72 -7 c-5 -26 -38 -29 -38 -4 0 15 6 21 21 21
14 0 19 -5 17 -17z"/>
</g>
</svg>
