<?xml version="1.0" standalone="no"?>
<!DOCTYPE svg PUBLIC "-//W3C//DTD SVG 20010904//EN"
 "http://www.w3.org/TR/2001/REC-SVG-20010904/DTD/svg10.dtd">
<svg version="1.0" xmlns="http://www.w3.org/2000/svg"
 width="50.000000pt" height="725.000000pt" viewBox="0 0 50.000000 725.000000"
 preserveAspectRatio="xMidYMid meet">
<metadata>
Created by potrace 1.16, written by Peter Selinger 2001-2019
</metadata>
<g transform="translate(0.000000,725.000000) scale(0.100000,-0.100000)"
fill="#000000" stroke="none">
<path d="M143 7053 c-18 -2 -33 -8 -33 -14 0 -10 53 -12 88 -3 12 4 22 10 22
15 0 9 -16 9 -77 2z"/>
<path d="M160 6655 c0 -52 -1 -55 -25 -55 -14 0 -25 -4 -25 -10 0 -5 11 -10
25 -10 24 0 25 -2 25 -70 0 -53 -4 -71 -16 -78 -13 -7 -14 -13 -4 -31 18 -35
35 -19 37 35 6 108 14 154 29 154 8 0 14 5 14 10 0 6 -7 10 -16 10 -14 0 -15
7 -10 44 6 41 -2 56 -30 56 -2 0 -4 -25 -4 -55z"/>
<path d="M160 6205 c0 -52 -1 -55 -25 -55 -14 0 -25 -4 -25 -10 0 -5 11 -10
25 -10 20 0 25 -5 25 -25 0 -18 -10 -30 -40 -47 -22 -13 -40 -28 -40 -35 0
-23 22 -25 44 -4 12 12 25 21 29 21 14 0 6 -49 -9 -58 -13 -7 -14 -13 -4 -31
20 -38 35 -18 38 50 2 35 7 68 12 73 5 5 6 22 3 37 -4 22 -2 29 11 29 9 0 16
5 16 10 0 6 -7 10 -16 10 -14 0 -15 7 -10 44 6 41 -2 56 -30 56 -2 0 -4 -25
-4 -55z"/>
<path d="M160 5755 c0 -52 -1 -55 -25 -55 -14 0 -25 -4 -25 -10 0 -5 11 -10
25 -10 20 0 25 -5 25 -25 0 -18 -10 -30 -40 -47 -22 -13 -40 -28 -40 -35 0
-23 22 -25 44 -4 12 12 25 21 29 21 14 0 6 -49 -9 -58 -13 -7 -14 -13 -4 -31
20 -38 35 -18 38 50 2 35 7 68 12 73 5 5 6 22 3 37 -4 22 -2 29 11 29 9 0 16
5 16 10 0 6 -7 10 -16 10 -14 0 -15 7 -10 44 6 41 -2 56 -30 56 -2 0 -4 -25
-4 -55z"/>
<path d="M283 5698 c-79 -14 -67 -32 15 -24 80 9 102 14 102 27 0 11 -47 10
-117 -3z"/>
<path d="M160 5305 c0 -52 -1 -55 -25 -55 -14 0 -25 -4 -25 -10 0 -5 11 -10
25 -10 20 0 25 -5 25 -25 0 -18 -10 -30 -40 -47 -22 -13 -40 -28 -40 -35 0
-23 22 -25 44 -4 12 12 25 21 29 21 14 0 6 -49 -9 -58 -13 -7 -14 -13 -4 -31
20 -38 35 -18 38 50 2 35 7 68 12 73 5 5 6 22 3 37 -4 22 -2 29 11 29 9 0 16
5 16 10 0 6 -7 10 -16 10 -14 0 -15 7 -10 44 6 41 -2 56 -30 56 -2 0 -4 -25
-4 -55z"/>
<path d="M252 5283 c2 -22 -2 -38 -10 -41 -17 -5 -15 -22 3 -22 10 0 15 -11
15 -35 0 -19 5 -35 10 -35 6 0 10 15 10 34 0 37 12 46 60 46 36 0 60 9 60 22
0 7 -21 8 -60 4 l-60 -7 0 36 c0 25 -4 35 -16 35 -12 0 -15 -9 -12 -37z"/>
<path d="M160 4855 c0 -52 -1 -55 -25 -55 -14 0 -25 -4 -25 -10 0 -5 11 -10
25 -10 20 0 25 -5 25 -25 0 -18 -10 -30 -40 -47 -22 -13 -40 -28 -40 -35 0
-23 22 -25 44 -4 12 12 25 21 29 21 14 0 6 -49 -9 -58 -13 -7 -14 -13 -4 -31
20 -38 35 -18 38 50 2 35 7 68 12 73 5 5 6 22 3 37 -4 22 -2 29 11 29 9 0 16
5 16 10 0 6 -7 10 -16 10 -14 0 -15 7 -10 44 6 41 -2 56 -30 56 -2 0 -4 -25
-4 -55z"/>
<path d="M334 4885 c3 -10 4 -33 0 -51 -5 -27 -11 -34 -30 -34 -21 0 -24 5
-24 35 0 25 -4 35 -16 35 -12 0 -15 -9 -12 -37 2 -22 -2 -38 -10 -41 -17 -5
-15 -22 3 -22 10 0 15 -11 15 -35 0 -19 5 -35 10 -35 6 0 10 15 10 34 0 22 6
36 16 40 30 12 35 6 28 -30 -5 -29 -4 -36 7 -32 8 2 15 17 17 32 2 17 12 31
28 38 29 13 31 28 5 28 -17 0 -19 6 -18 42 2 34 -2 43 -17 46 -14 3 -17 0 -12
-13z"/>
<path d="M160 4405 c0 -52 -1 -55 -25 -55 -14 0 -25 -4 -25 -10 0 -5 11 -10
25 -10 20 0 25 -5 25 -25 0 -18 -10 -30 -40 -47 -22 -13 -40 -28 -40 -35 0
-23 22 -25 44 -4 12 12 25 21 29 21 14 0 6 -49 -9 -58 -13 -7 -14 -13 -4 -31
20 -38 35 -18 38 50 2 35 7 68 12 73 5 5 6 22 3 37 -4 22 -2 29 11 29 9 0 16
5 16 10 0 6 -7 10 -16 10 -14 0 -15 7 -10 44 6 41 -2 56 -30 56 -2 0 -4 -25
-4 -55z"/>
<path d="M334 4435 c3 -10 4 -33 0 -51 -5 -27 -11 -34 -30 -34 -21 0 -24 5
-24 35 0 25 -4 35 -16 35 -12 0 -15 -9 -12 -37 2 -22 -2 -38 -10 -41 -17 -5
-15 -22 3 -22 10 0 15 -10 15 -30 0 -28 -3 -30 -35 -30 -20 0 -35 -5 -35 -11
0 -8 18 -10 61 -5 34 3 91 6 126 6 47 0 64 3 60 13 -2 7 -21 12 -46 11 -37 -1
-41 2 -41 23 0 15 9 27 25 35 30 13 33 28 6 28 -17 0 -19 6 -18 42 2 34 -2 43
-17 46 -14 3 -17 0 -12 -13z m-8 -127 c-3 -13 -6 -26 -6 -30 0 -5 -9 -8 -20
-8 -14 0 -20 7 -20 24 0 24 11 34 39 35 9 1 11 -6 7 -21z"/>
<path d="M160 3955 c0 -52 -1 -55 -25 -55 -14 0 -25 -4 -25 -10 0 -5 11 -10
25 -10 20 0 25 -5 25 -25 0 -18 -10 -30 -40 -47 -22 -13 -40 -28 -40 -35 0
-23 22 -25 44 -4 12 12 25 21 29 21 14 0 6 -49 -9 -58 -13 -7 -14 -13 -4 -31
20 -38 35 -18 38 50 2 35 7 68 12 73 5 5 6 22 3 37 -4 22 -2 29 11 29 9 0 16
5 16 10 0 6 -7 10 -16 10 -14 0 -15 7 -10 44 6 41 -2 56 -30 56 -2 0 -4 -25
-4 -55z"/>
<path d="M334 3985 c3 -10 4 -33 0 -51 -5 -27 -11 -34 -30 -34 -21 0 -24 5
-24 35 0 25 -4 35 -16 35 -12 0 -15 -9 -12 -37 2 -22 -2 -38 -10 -41 -17 -5
-15 -22 3 -22 10 0 15 -10 15 -30 0 -28 -3 -30 -35 -30 -20 0 -35 -5 -35 -11
0 -8 18 -10 61 -5 34 3 91 6 126 6 47 0 64 3 60 13 -2 7 -21 12 -46 11 -37 -1
-41 2 -41 23 0 15 9 27 25 35 30 13 33 28 6 28 -17 0 -19 6 -18 42 2 34 -2 43
-17 46 -14 3 -17 0 -12 -13z m-8 -127 c-3 -13 -6 -26 -6 -30 0 -5 -9 -8 -20
-8 -14 0 -20 7 -20 24 0 24 11 34 39 35 9 1 11 -6 7 -21z"/>
<path d="M240 3744 c-12 -19 -19 -38 -16 -41 8 -9 66 47 66 64 0 25 -29 13
-50 -23z"/>
<path d="M160 3505 c0 -52 -1 -55 -25 -55 -14 0 -25 -4 -25 -10 0 -5 11 -10
25 -10 20 0 25 -5 25 -25 0 -18 -10 -30 -40 -47 -22 -13 -40 -28 -40 -35 0
-23 22 -25 44 -4 12 12 25 21 29 21 14 0 6 -49 -9 -58 -13 -7 -14 -13 -4 -31
20 -38 35 -18 38 50 2 35 7 68 12 73 5 5 6 22 3 37 -4 22 -2 29 11 29 9 0 16
5 16 10 0 6 -7 10 -16 10 -14 0 -15 7 -10 44 6 41 -2 56 -30 56 -2 0 -4 -25
-4 -55z"/>
<path d="M334 3535 c3 -10 4 -33 0 -51 -5 -27 -11 -34 -30 -34 -21 0 -24 5
-24 35 0 25 -4 35 -16 35 -12 0 -15 -9 -12 -37 2 -22 -2 -38 -10 -41 -17 -5
-15 -22 3 -22 10 0 15 -10 15 -30 0 -28 -3 -30 -35 -30 -20 0 -35 -5 -35 -11
0 -8 18 -10 61 -5 34 3 91 6 126 6 47 0 64 3 60 13 -2 7 -21 12 -46 11 -37 -1
-41 2 -41 23 0 15 9 27 25 35 30 13 33 28 6 28 -17 0 -19 6 -18 42 2 34 -2 43
-17 46 -14 3 -17 0 -12 -13z m-8 -127 c-3 -13 -6 -26 -6 -30 0 -5 -9 -8 -20
-8 -14 0 -20 7 -20 24 0 24 11 34 39 35 9 1 11 -6 7 -21z"/>
<path d="M240 3294 c-12 -19 -19 -38 -16 -41 8 -9 66 47 66 64 0 25 -29 13
-50 -23z"/>
<path d="M340 3311 c0 -18 35 -71 48 -71 21 0 14 48 -10 64 -25 18 -38 20 -38
7z"/>
</g>
</svg>
