<?xml version="1.0" standalone="no"?>
<!DOCTYPE svg PUBLIC "-//W3C//DTD SVG 20010904//EN"
 "http://www.w3.org/TR/2001/REC-SVG-20010904/DTD/svg10.dtd">
<svg version="1.0" xmlns="http://www.w3.org/2000/svg"
 width="50.000000pt" height="725.000000pt" viewBox="0 0 50.000000 725.000000"
 preserveAspectRatio="xMidYMid meet">
<metadata>
Created by potrace 1.16, written by Peter Selinger 2001-2019
</metadata>
<g transform="translate(0.000000,725.000000) scale(0.100000,-0.100000)"
fill="#000000" stroke="none">
<path d="M168 7068 c-63 -13 -64 -33 -2 -24 26 3 53 6 60 6 8 0 14 7 14 15 0
17 -5 17 -72 3z"/>
<path d="M177 6666 c5 -45 5 -46 -26 -52 -40 -8 -40 -24 -1 -24 l31 0 -3 -72
c-3 -63 -5 -73 -20 -70 -23 4 -23 -11 0 -31 36 -33 42 -22 42 79 0 87 2 96 20
101 23 6 27 33 5 33 -12 0 -15 9 -13 38 3 31 0 37 -18 40 -20 3 -21 0 -17 -42z"/>
<path d="M177 6216 c5 -45 5 -46 -26 -52 -40 -8 -40 -24 -1 -24 23 0 30 -4 30
-20 0 -14 -14 -27 -45 -42 -25 -12 -44 -27 -42 -33 7 -20 39 -17 64 7 l24 23
-3 -40 c-2 -32 -7 -39 -20 -37 -23 4 -23 -11 0 -31 34 -31 42 -21 42 52 0 52
4 70 15 75 8 3 15 10 15 17 0 6 -7 9 -15 5 -9 -3 -15 0 -15 10 0 9 9 18 20 21
23 6 27 33 5 33 -12 0 -15 9 -13 38 3 31 0 37 -18 40 -20 3 -21 0 -17 -42z"/>
<path d="M177 5766 c5 -45 5 -46 -26 -52 -40 -8 -40 -24 -1 -24 23 0 30 -4 30
-20 0 -14 -14 -27 -45 -42 -25 -12 -44 -27 -42 -33 7 -20 39 -17 64 7 l24 23
-3 -40 c-2 -32 -7 -39 -20 -37 -23 4 -23 -11 0 -31 34 -31 42 -21 42 52 0 52
4 70 15 75 8 3 15 10 15 17 0 6 -7 9 -15 5 -9 -3 -15 0 -15 10 0 9 9 18 20 21
23 6 27 33 5 33 -12 0 -15 9 -13 38 3 31 0 37 -18 40 -20 3 -21 0 -17 -42z"/>
<path d="M264 5759 c3 -17 6 -35 6 -40 0 -5 5 -9 10 -9 6 0 10 18 10 40 0 30
-4 40 -16 40 -13 0 -15 -7 -10 -31z"/>
<path d="M177 5316 c5 -45 5 -46 -26 -52 -40 -8 -40 -24 -1 -24 23 0 30 -4 30
-20 0 -14 -14 -27 -45 -42 -25 -12 -44 -27 -42 -33 7 -20 39 -17 64 7 l24 23
-3 -40 c-2 -32 -7 -39 -20 -37 -23 4 -23 -11 0 -31 34 -31 42 -21 42 52 0 52
4 70 15 75 8 3 15 10 15 17 0 6 -7 9 -15 5 -9 -3 -15 0 -15 10 0 9 9 18 20 21
23 6 27 33 5 33 -12 0 -15 9 -13 38 3 31 0 37 -18 40 -20 3 -21 0 -17 -42z"/>
<path d="M340 5340 c0 -5 7 -10 15 -10 9 0 15 -9 15 -25 0 -14 4 -25 9 -25 13
0 43 49 36 60 -8 13 -75 13 -75 0z"/>
<path d="M264 5309 c3 -17 6 -35 6 -40 0 -5 5 -9 10 -9 6 0 10 14 10 30 0 20
5 30 15 30 8 0 15 5 15 10 0 6 -14 10 -31 10 -30 0 -31 -2 -25 -31z"/>
<path d="M177 4866 c5 -45 5 -46 -26 -52 -40 -8 -40 -24 -1 -24 23 0 30 -4 30
-20 0 -14 -14 -27 -45 -42 -25 -12 -44 -27 -42 -33 7 -20 39 -17 64 7 l24 23
-3 -40 c-2 -32 -7 -39 -20 -37 -23 4 -23 -11 0 -31 34 -31 42 -21 42 52 0 52
4 70 15 75 8 3 15 10 15 17 0 6 -7 9 -15 5 -9 -3 -15 0 -15 10 0 9 9 18 20 21
23 6 27 33 5 33 -12 0 -15 9 -13 38 3 31 0 37 -18 40 -20 3 -21 0 -17 -42z"/>
<path d="M340 4890 c0 -5 7 -10 15 -10 8 0 15 -9 15 -20 0 -12 -7 -20 -17 -20
-10 0 -28 -3 -40 -6 -19 -5 -23 -2 -23 15 0 12 6 21 15 21 8 0 15 5 15 10 0 6
-14 10 -31 10 -31 0 -31 -1 -24 -37 4 -21 8 -39 10 -41 2 -2 30 0 64 4 48 5
61 10 61 23 0 9 5 22 11 28 6 6 8 16 5 22 -9 14 -76 15 -76 1z"/>
<path d="M177 4416 c5 -45 5 -46 -26 -52 -40 -8 -40 -24 -1 -24 23 0 30 -4 30
-20 0 -14 -14 -27 -45 -42 -25 -12 -44 -27 -42 -33 7 -20 39 -17 64 7 l24 23
-3 -40 c-2 -32 -7 -39 -20 -37 -23 4 -23 -11 0 -31 34 -31 42 -21 42 52 0 52
4 70 15 75 8 3 15 10 15 17 0 6 -7 9 -15 5 -9 -3 -15 0 -15 10 0 9 9 18 20 21
23 6 27 33 5 33 -12 0 -15 9 -13 38 3 31 0 37 -18 40 -20 3 -21 0 -17 -42z"/>
<path d="M340 4440 c0 -5 7 -10 15 -10 8 0 15 -9 15 -20 0 -12 -7 -20 -17 -20
-10 0 -28 -3 -40 -6 -19 -5 -23 -2 -23 15 0 12 6 21 15 21 8 0 15 5 15 10 0 6
-14 10 -31 10 -31 0 -31 -1 -24 -37 4 -21 8 -39 10 -41 2 -2 30 0 64 4 48 5
61 10 61 23 0 9 5 22 11 28 6 6 8 16 5 22 -9 14 -76 15 -76 1z"/>
<path d="M262 4270 c-1 -38 -6 -79 -12 -90 -15 -28 -4 -39 17 -18 20 20 35
159 19 170 -21 14 -24 8 -24 -62z"/>
<path d="M177 3966 c5 -45 5 -46 -26 -52 -40 -8 -40 -24 -1 -24 23 0 30 -4 30
-20 0 -14 -14 -27 -45 -42 -25 -12 -44 -27 -42 -33 7 -20 39 -17 64 7 l24 23
-3 -40 c-2 -32 -7 -39 -20 -37 -23 4 -23 -11 0 -31 34 -31 42 -21 42 52 0 52
4 70 15 75 8 3 15 10 15 17 0 6 -7 9 -15 5 -9 -3 -15 0 -15 10 0 9 9 18 20 21
23 6 27 33 5 33 -12 0 -15 9 -13 38 3 31 0 37 -18 40 -20 3 -21 0 -17 -42z"/>
<path d="M340 3990 c0 -5 7 -10 15 -10 8 0 15 -9 15 -20 0 -12 -7 -20 -17 -20
-10 0 -28 -3 -40 -6 -19 -5 -23 -2 -23 15 0 12 6 21 15 21 8 0 15 5 15 10 0 6
-14 10 -31 10 -31 0 -31 -1 -24 -37 4 -21 8 -39 10 -41 2 -2 30 0 64 4 48 5
61 10 61 23 0 9 5 22 11 28 6 6 8 16 5 22 -9 14 -76 15 -76 1z"/>
<path d="M333 3893 c-33 -6 -28 -25 5 -21 l27 3 0 -75 c0 -66 -2 -75 -17 -72
-23 4 -23 -11 0 -31 41 -37 49 -22 55 110 4 96 1 100 -70 86z"/>
<path d="M262 3820 c-1 -38 -6 -79 -12 -90 -15 -28 -4 -39 17 -18 20 20 35
159 19 170 -21 14 -24 8 -24 -62z"/>
<path d="M177 3516 c5 -45 5 -46 -26 -52 -40 -8 -40 -24 -1 -24 23 0 30 -4 30
-20 0 -14 -14 -27 -45 -42 -25 -12 -44 -27 -42 -33 7 -20 39 -17 64 7 l24 23
-3 -40 c-2 -32 -7 -39 -20 -37 -23 4 -23 -11 0 -31 34 -31 42 -21 42 52 0 52
4 70 15 75 8 3 15 10 15 17 0 6 -7 9 -15 5 -9 -3 -15 0 -15 10 0 9 9 18 20 21
23 6 27 33 5 33 -12 0 -15 9 -13 38 3 31 0 37 -18 40 -20 3 -21 0 -17 -42z"/>
<path d="M340 3540 c0 -5 7 -10 15 -10 8 0 15 -9 15 -20 0 -12 -7 -20 -17 -20
-10 0 -28 -3 -40 -6 -19 -5 -23 -2 -23 15 0 12 6 21 15 21 8 0 15 5 15 10 0 6
-14 10 -31 10 -31 0 -31 -1 -24 -37 4 -21 8 -39 10 -41 2 -2 30 0 64 4 48 5
61 10 61 23 0 9 5 22 11 28 6 6 8 16 5 22 -9 14 -76 15 -76 1z"/>
<path d="M333 3443 c-33 -6 -28 -25 5 -21 l27 3 0 -75 c0 -66 -2 -75 -17 -72
-23 4 -23 -11 0 -31 41 -37 49 -22 55 110 4 96 1 100 -70 86z"/>
<path d="M262 3370 c-1 -38 -6 -79 -12 -90 -15 -28 -4 -39 17 -18 9 9 18 39
21 67 2 28 6 51 8 51 3 0 13 -5 24 -12 22 -14 35 -6 27 17 -4 8 -18 15 -32 15
-17 0 -24 4 -19 11 6 10 -11 28 -27 29 -4 0 -7 -31 -7 -70z"/>
<path d="M177 3066 c5 -45 5 -46 -26 -52 -40 -8 -40 -24 -1 -24 23 0 30 -4 30
-20 0 -14 -14 -27 -45 -42 -25 -12 -44 -27 -42 -33 7 -20 39 -17 64 7 l24 23
-3 -40 c-2 -32 -7 -39 -20 -37 -23 4 -23 -11 0 -31 34 -31 42 -21 42 52 0 52
4 70 15 75 8 3 15 10 15 17 0 6 -7 9 -15 5 -9 -3 -15 0 -15 10 0 9 9 18 20 21
23 6 27 33 5 33 -12 0 -15 9 -13 38 3 31 0 37 -18 40 -20 3 -21 0 -17 -42z"/>
<path d="M340 3090 c0 -5 7 -10 15 -10 8 0 15 -9 15 -20 0 -12 -7 -20 -17 -20
-10 0 -28 -3 -40 -6 -19 -5 -23 -2 -23 15 0 12 6 21 15 21 8 0 15 5 15 10 0 6
-14 10 -31 10 -31 0 -31 -1 -24 -37 4 -21 8 -39 10 -41 2 -2 30 0 64 4 48 5
61 10 61 23 0 9 5 22 11 28 6 6 8 16 5 22 -9 14 -76 15 -76 1z"/>
<path d="M333 2993 c-33 -6 -28 -25 5 -21 l27 3 0 -75 c0 -66 -2 -75 -17 -72
-23 4 -23 -11 0 -31 41 -37 49 -22 55 110 4 96 1 100 -70 86z"/>
<path d="M262 2920 c-1 -38 -6 -79 -12 -90 -7 -12 -9 -24 -6 -27 8 -9 36 17
36 33 0 8 18 21 40 30 50 20 53 39 5 30 -31 -6 -35 -4 -35 14 0 23 3 24 30 8
22 -14 35 -6 27 17 -4 8 -18 15 -32 15 -17 0 -24 4 -19 11 6 10 -11 28 -27 29
-4 0 -7 -31 -7 -70z"/>
</g>
</svg>
