<?xml version="1.0" standalone="no"?>
<!DOCTYPE svg PUBLIC "-//W3C//DTD SVG 20010904//EN"
 "http://www.w3.org/TR/2001/REC-SVG-20010904/DTD/svg10.dtd">
<svg version="1.0" xmlns="http://www.w3.org/2000/svg"
 width="50.000000pt" height="725.000000pt" viewBox="0 0 50.000000 725.000000"
 preserveAspectRatio="xMidYMid meet">
<metadata>
Created by potrace 1.16, written by Peter Selinger 2001-2019
</metadata>
<g transform="translate(0.000000,725.000000) scale(0.100000,-0.100000)"
fill="#000000" stroke="none">
<path d="M148 7053 c-16 -2 -28 -9 -28 -14 0 -10 43 -12 78 -3 12 4 22 10 22
15 0 9 -22 10 -72 2z"/>
<path d="M158 6655 c4 -51 3 -55 -17 -55 -11 0 -21 -4 -21 -10 0 -5 9 -10 20
-10 18 0 20 -7 20 -71 0 -62 -2 -71 -20 -76 -25 -7 -25 -9 -1 -34 32 -35 41
-15 41 88 0 86 2 95 20 100 25 7 26 23 1 23 -16 0 -19 7 -18 47 2 36 -2 48
-14 51 -13 2 -15 -6 -11 -53z"/>
<path d="M158 6205 c4 -51 3 -55 -17 -55 -11 0 -21 -4 -21 -10 0 -5 9 -10 20
-10 15 0 20 -7 20 -25 0 -19 -9 -29 -35 -42 -19 -9 -35 -23 -35 -30 0 -17 21
-16 48 3 21 15 22 14 22 -16 0 -23 -5 -33 -20 -37 -25 -7 -25 -9 -1 -34 29
-31 41 -15 41 55 0 36 5 67 12 74 10 10 10 15 -1 21 -17 11 -7 41 14 41 8 0
15 5 15 10 0 6 -9 10 -19 10 -16 0 -19 7 -18 47 2 36 -2 48 -14 51 -13 2 -15
-6 -11 -53z"/>
<path d="M158 5755 c4 -51 3 -55 -17 -55 -11 0 -21 -4 -21 -10 0 -5 9 -10 20
-10 15 0 20 -7 20 -25 0 -19 -9 -29 -35 -42 -19 -9 -35 -23 -35 -30 0 -17 21
-16 48 3 21 15 22 14 22 -16 0 -23 -5 -33 -20 -37 -25 -7 -25 -9 -1 -34 29
-31 41 -15 41 55 0 36 5 67 12 74 10 10 10 15 -1 21 -17 11 -7 41 14 41 8 0
15 5 15 10 0 6 -9 10 -19 10 -16 0 -19 7 -18 47 2 36 -2 48 -14 51 -13 2 -15
-6 -11 -53z"/>
<path d="M222 5662 c-1 -53 -3 -110 -5 -126 -1 -16 3 -31 10 -33 7 -3 13 26
18 89 8 106 5 160 -10 165 -6 2 -11 -35 -13 -95z"/>
<path d="M158 5305 c4 -51 3 -55 -17 -55 -11 0 -21 -4 -21 -10 0 -5 9 -10 20
-10 15 0 20 -7 20 -25 0 -19 -9 -29 -35 -42 -19 -9 -35 -23 -35 -30 0 -17 21
-16 48 3 21 15 22 14 22 -16 0 -23 -5 -33 -20 -37 -25 -7 -25 -9 -1 -34 29
-31 41 -15 41 55 0 36 5 67 12 74 10 10 10 15 -1 21 -17 11 -7 41 14 41 8 0
15 5 15 10 0 6 -9 10 -19 10 -16 0 -19 7 -18 47 2 36 -2 48 -14 51 -13 2 -15
-6 -11 -53z"/>
<path d="M265 5311 c-11 -5 -25 -6 -32 -4 -9 4 -11 -8 -7 -44 4 -27 1 -82 -5
-122 -8 -51 -8 -78 -2 -84 6 -6 13 -8 16 -6 2 3 8 58 11 122 6 92 10 117 21
117 11 0 14 -11 11 -42 -5 -61 18 -60 26 2 9 68 3 77 -39 61z"/>
<path d="M158 4855 c4 -51 3 -55 -17 -55 -11 0 -21 -4 -21 -10 0 -5 9 -10 20
-10 15 0 20 -7 20 -25 0 -19 -9 -29 -35 -42 -19 -9 -35 -23 -35 -30 0 -17 21
-16 48 3 21 15 22 14 22 -16 0 -23 -5 -33 -20 -37 -25 -7 -25 -9 -1 -34 29
-31 41 -15 41 55 0 36 5 67 12 74 10 10 10 15 -1 21 -17 11 -7 41 14 41 8 0
15 5 15 10 0 6 -9 10 -19 10 -16 0 -19 7 -18 47 2 36 -2 48 -14 51 -13 2 -15
-6 -11 -53z"/>
<path d="M265 4861 c-11 -5 -24 -7 -30 -5 -6 3 -11 -34 -13 -93 -1 -54 -3
-111 -5 -127 -1 -16 3 -31 9 -33 8 -3 14 29 20 93 6 63 13 99 22 102 7 2 11
-4 10 -19 -2 -12 2 -24 8 -26 12 -4 29 91 19 107 -7 11 -13 12 -40 1z m15 -30
c0 -5 -7 -11 -15 -15 -9 -3 -15 0 -15 9 0 8 7 15 15 15 8 0 15 -4 15 -9z"/>
<path d="M158 4405 c4 -51 3 -55 -17 -55 -11 0 -21 -4 -21 -10 0 -5 9 -10 20
-10 15 0 20 -7 20 -25 0 -19 -9 -29 -35 -42 -19 -9 -35 -23 -35 -30 0 -17 21
-16 48 3 21 15 22 14 22 -16 0 -23 -5 -33 -20 -37 -25 -7 -25 -9 -1 -34 29
-31 41 -15 41 55 0 36 5 67 12 74 10 10 10 15 -1 21 -17 11 -7 41 14 41 8 0
15 5 15 10 0 6 -9 10 -19 10 -16 0 -19 7 -18 47 2 36 -2 48 -14 51 -13 2 -15
-6 -11 -53z"/>
<path d="M265 4411 c-11 -5 -24 -7 -30 -5 -6 3 -11 -34 -13 -93 -1 -54 -3
-111 -5 -127 -1 -16 4 -31 11 -33 8 -3 12 6 12 25 0 16 3 50 6 76 6 39 10 46
29 46 19 0 23 7 29 50 9 68 3 77 -39 61z m15 -30 c0 -5 -7 -11 -15 -15 -9 -3
-15 0 -15 9 0 8 7 15 15 15 8 0 15 -4 15 -9z m0 -40 c0 -12 -20 -25 -27 -18
-7 7 6 27 18 27 5 0 9 -4 9 -9z"/>
<path d="M158 3955 c4 -51 3 -55 -17 -55 -11 0 -21 -4 -21 -10 0 -5 9 -10 20
-10 15 0 20 -7 20 -25 0 -19 -9 -29 -35 -42 -19 -9 -35 -23 -35 -30 0 -17 21
-16 48 3 21 15 22 14 22 -16 0 -23 -5 -33 -20 -37 -25 -7 -25 -9 -1 -34 29
-31 41 -15 41 55 0 36 5 67 12 74 10 10 10 15 -1 21 -17 11 -7 41 14 41 8 0
15 5 15 10 0 6 -9 10 -19 10 -16 0 -19 7 -18 47 2 36 -2 48 -14 51 -13 2 -15
-6 -11 -53z"/>
<path d="M265 3961 c-11 -5 -24 -7 -30 -5 -6 3 -11 -34 -13 -93 -1 -54 -3
-111 -5 -127 -1 -16 4 -31 11 -33 8 -3 12 6 12 25 0 16 3 50 6 76 6 39 10 46
29 46 19 0 23 7 29 50 9 68 3 77 -39 61z m15 -30 c0 -5 -7 -11 -15 -15 -9 -3
-15 0 -15 9 0 8 7 15 15 15 8 0 15 -4 15 -9z m0 -40 c0 -12 -20 -25 -27 -18
-7 7 6 27 18 27 5 0 9 -4 9 -9z"/>
<path d="M324 3954 c3 -9 6 -33 6 -55 0 -21 5 -39 10 -39 6 0 10 25 10 55 0
44 -3 55 -16 55 -11 0 -14 -5 -10 -16z"/>
<path d="M158 3505 c4 -51 3 -55 -17 -55 -11 0 -21 -4 -21 -10 0 -5 9 -10 20
-10 15 0 20 -7 20 -25 0 -19 -9 -29 -35 -42 -19 -9 -35 -23 -35 -30 0 -17 21
-16 48 3 21 15 22 14 22 -16 0 -23 -5 -33 -20 -37 -25 -7 -25 -9 -1 -34 29
-31 41 -15 41 55 0 36 5 67 12 74 10 10 10 15 -1 21 -17 11 -7 41 14 41 8 0
15 5 15 10 0 6 -9 10 -19 10 -16 0 -19 7 -18 47 2 36 -2 48 -14 51 -13 2 -15
-6 -11 -53z"/>
<path d="M352 3523 c-25 -3 -32 -8 -28 -20 3 -8 6 -32 6 -54 0 -21 5 -39 10
-39 6 0 10 20 10 45 0 38 3 45 20 45 19 0 20 -7 20 -110 0 -92 -3 -110 -17
-119 -14 -8 -15 -12 -4 -25 19 -23 40 -20 46 7 2 12 6 77 7 144 3 120 -1 138
-30 131 -4 0 -22 -3 -40 -5z"/>
<path d="M265 3511 c-11 -5 -24 -7 -30 -5 -6 3 -11 -34 -13 -93 -1 -54 -3
-111 -5 -127 -1 -16 4 -31 11 -33 8 -3 12 6 12 25 0 16 3 50 6 76 6 39 10 46
29 46 19 0 23 7 29 50 9 68 3 77 -39 61z m15 -30 c0 -5 -7 -11 -15 -15 -9 -3
-15 0 -15 9 0 8 7 15 15 15 8 0 15 -4 15 -9z m0 -40 c0 -12 -20 -25 -27 -18
-7 7 6 27 18 27 5 0 9 -4 9 -9z"/>
<path d="M158 3055 c4 -51 3 -55 -17 -55 -11 0 -21 -4 -21 -10 0 -5 9 -10 20
-10 15 0 20 -7 20 -25 0 -19 -9 -29 -35 -42 -19 -9 -35 -23 -35 -30 0 -17 21
-16 48 3 21 15 22 14 22 -16 0 -23 -5 -33 -20 -37 -25 -7 -25 -9 -1 -34 29
-31 41 -15 41 55 0 36 5 67 12 74 10 10 10 15 -1 21 -17 11 -7 41 14 41 8 0
15 5 15 10 0 6 -9 10 -19 10 -16 0 -19 7 -18 47 2 36 -2 48 -14 51 -13 2 -15
-6 -11 -53z"/>
<path d="M352 3073 c-25 -3 -32 -8 -28 -20 3 -8 6 -32 6 -54 0 -21 5 -39 10
-39 6 0 10 20 10 45 0 38 3 45 20 45 11 0 20 -4 20 -10 0 -5 -7 -10 -15 -10
-8 0 -15 -4 -15 -10 0 -5 7 -10 15 -10 24 0 22 -175 -2 -189 -14 -8 -15 -12
-4 -25 19 -23 40 -20 46 7 2 12 6 77 7 144 3 120 -1 138 -30 131 -4 0 -22 -3
-40 -5z"/>
<path d="M265 3061 c-11 -5 -24 -7 -30 -5 -6 3 -11 -34 -13 -93 -1 -54 -3
-111 -5 -127 -1 -16 4 -31 11 -33 8 -3 12 6 12 25 0 16 3 50 6 76 6 39 10 46
29 46 19 0 23 7 29 50 9 68 3 77 -39 61z m15 -30 c0 -5 -7 -11 -15 -15 -9 -3
-15 0 -15 9 0 8 7 15 15 15 8 0 15 -4 15 -9z m0 -40 c0 -12 -20 -25 -27 -18
-7 7 6 27 18 27 5 0 9 -4 9 -9z"/>
<path d="M158 2605 c4 -51 3 -55 -17 -55 -11 0 -21 -4 -21 -10 0 -5 9 -10 20
-10 15 0 20 -7 20 -25 0 -19 -9 -29 -35 -42 -19 -9 -35 -23 -35 -30 0 -17 21
-16 48 3 21 15 22 14 22 -16 0 -23 -5 -33 -20 -37 -25 -7 -25 -9 -1 -34 29
-31 41 -15 41 55 0 36 5 67 12 74 10 10 10 15 -1 21 -17 11 -7 41 14 41 8 0
15 5 15 10 0 6 -9 10 -19 10 -16 0 -19 7 -18 47 2 36 -2 48 -14 51 -13 2 -15
-6 -11 -53z"/>
<path d="M352 2623 c-25 -3 -32 -8 -28 -20 3 -8 6 -33 6 -55 0 -40 1 -40 30
-34 l30 6 0 -70 c0 -55 -4 -71 -17 -79 -14 -8 -15 -12 -4 -25 19 -23 40 -20
46 7 2 12 6 77 7 144 3 120 -1 138 -30 131 -4 0 -22 -3 -40 -5z m38 -33 c0 -5
-7 -10 -15 -10 -8 0 -15 -4 -15 -10 0 -5 7 -10 15 -10 22 0 18 -17 -5 -23 -17
-4 -20 0 -20 29 0 27 4 34 20 34 11 0 20 -4 20 -10z"/>
<path d="M265 2611 c-11 -5 -24 -7 -30 -5 -6 3 -11 -34 -13 -93 -1 -54 -3
-111 -5 -127 -1 -16 4 -31 11 -33 8 -3 12 6 12 25 0 16 3 50 6 76 6 39 10 46
29 46 19 0 23 7 29 50 9 68 3 77 -39 61z m15 -30 c0 -5 -7 -11 -15 -15 -9 -3
-15 0 -15 9 0 8 7 15 15 15 8 0 15 -4 15 -9z m0 -40 c0 -12 -20 -25 -27 -18
-7 7 6 27 18 27 5 0 9 -4 9 -9z"/>
</g>
</svg>
