<?xml version="1.0" standalone="no"?>
<!DOCTYPE svg PUBLIC "-//W3C//DTD SVG 20010904//EN"
 "http://www.w3.org/TR/2001/REC-SVG-20010904/DTD/svg10.dtd">
<svg version="1.0" xmlns="http://www.w3.org/2000/svg"
 width="50.000000pt" height="725.000000pt" viewBox="0 0 50.000000 725.000000"
 preserveAspectRatio="xMidYMid meet">
<metadata>
Created by potrace 1.16, written by Peter Selinger 2001-2019
</metadata>
<g transform="translate(0.000000,725.000000) scale(0.100000,-0.100000)"
fill="#000000" stroke="none">
<path d="M133 7053 c-18 -2 -33 -8 -33 -14 0 -10 53 -12 88 -3 12 4 22 10 22
15 0 9 -16 9 -77 2z"/>
<path d="M148 6651 c4 -50 4 -51 -22 -51 -14 0 -26 -4 -26 -10 0 -5 11 -10 25
-10 24 0 25 -2 25 -70 0 -54 -4 -72 -15 -76 -19 -8 -18 -14 1 -39 15 -19 16
-19 28 -2 10 13 12 41 8 103 -5 81 -4 85 17 91 24 6 29 23 5 23 -12 0 -15 9
-12 43 3 36 0 42 -18 45 -20 3 -21 -1 -16 -47z"/>
<path d="M148 6201 c4 -50 4 -51 -22 -51 -14 0 -26 -4 -26 -10 0 -5 11 -10 25
-10 19 0 25 -5 25 -23 0 -17 -11 -30 -40 -46 -42 -24 -50 -38 -24 -48 8 -3 25
4 40 17 l24 23 0 -31 c0 -18 -7 -35 -16 -40 -14 -8 -14 -12 -3 -30 8 -12 17
-22 21 -22 17 0 27 41 22 85 -6 39 -3 49 16 70 25 27 21 46 -5 25 -12 -10 -15
-10 -15 5 0 9 9 19 20 22 24 6 27 23 4 23 -12 0 -15 9 -12 43 3 36 0 42 -18
45 -20 3 -21 -1 -16 -47z"/>
<path d="M148 5751 c4 -50 4 -51 -22 -51 -14 0 -26 -4 -26 -10 0 -5 11 -10 25
-10 19 0 25 -5 25 -23 0 -17 -11 -30 -40 -46 -42 -24 -50 -38 -24 -48 8 -3 25
4 40 17 l24 23 0 -31 c0 -18 -7 -35 -16 -40 -14 -8 -14 -12 -3 -30 8 -12 17
-22 21 -22 17 0 27 41 22 85 -6 39 -3 49 16 70 25 27 21 46 -5 25 -12 -10 -15
-10 -15 5 0 9 9 19 20 22 24 6 27 23 4 23 -12 0 -15 9 -12 43 3 36 0 42 -18
45 -20 3 -21 -1 -16 -47z"/>
<path d="M273 5763 c-40 -5 -44 -23 -5 -23 45 0 102 12 102 21 0 9 -35 9 -97
2z"/>
<path d="M148 5301 c4 -50 4 -51 -22 -51 -14 0 -26 -4 -26 -10 0 -5 11 -10 25
-10 19 0 25 -5 25 -23 0 -17 -11 -30 -40 -46 -42 -24 -50 -38 -24 -48 8 -3 25
4 40 17 l24 23 0 -31 c0 -18 -7 -35 -16 -40 -14 -8 -14 -12 -3 -30 8 -12 17
-22 21 -22 17 0 27 41 22 85 -6 39 -3 49 16 70 26 27 21 46 -6 24 -14 -12 -16
-11 -13 6 3 11 14 21 26 23 18 3 23 -3 29 -32 8 -43 24 -48 24 -7 0 47 -10 61
-42 61 -28 0 -29 1 -26 43 3 36 0 42 -18 45 -20 3 -21 -1 -16 -47z"/>
<path d="M273 5313 c-40 -5 -44 -23 -5 -23 45 0 102 12 102 21 0 9 -35 9 -97
2z"/>
<path d="M148 4851 c4 -50 4 -51 -22 -51 -14 0 -26 -4 -26 -10 0 -5 11 -10 25
-10 19 0 25 -5 25 -23 0 -17 -11 -30 -40 -46 -42 -24 -50 -38 -24 -48 8 -3 25
4 40 17 l24 23 0 -31 c0 -18 -7 -35 -16 -40 -14 -8 -14 -12 -3 -30 8 -12 17
-22 21 -22 17 0 27 41 22 85 -6 39 -3 49 16 70 26 27 21 46 -6 24 -14 -12 -16
-11 -13 6 3 11 14 21 26 23 18 3 23 -3 29 -32 8 -46 24 -47 24 -1 0 19 5 35
10 35 6 0 10 5 10 10 0 6 -21 10 -46 10 l-45 0 3 43 c3 36 0 42 -18 45 -20 3
-21 -1 -16 -47z"/>
<path d="M273 4863 c-40 -5 -44 -23 -5 -23 45 0 102 12 102 21 0 9 -35 9 -97
2z"/>
<path d="M350 4822 c0 -4 5 -13 10 -18 8 -8 8 -19 0 -38 -24 -64 3 -64 31 1
16 37 17 48 7 55 -17 10 -48 10 -48 0z"/>
<path d="M290 4810 c0 -5 11 -10 25 -10 14 0 25 5 25 10 0 6 -11 10 -25 10
-14 0 -25 -4 -25 -10z"/>
<path d="M148 4401 c4 -50 4 -51 -22 -51 -14 0 -26 -4 -26 -10 0 -5 11 -10 25
-10 19 0 25 -5 25 -23 0 -17 -11 -30 -40 -46 -42 -24 -50 -38 -24 -48 8 -3 25
4 40 17 l24 23 0 -31 c0 -18 -7 -35 -16 -40 -14 -8 -14 -12 -3 -30 8 -12 17
-22 21 -22 17 0 27 41 22 85 -6 39 -3 49 16 70 26 27 21 46 -6 24 -14 -12 -16
-11 -13 6 3 11 14 21 26 23 18 3 23 -3 29 -32 7 -38 24 -49 24 -16 0 13 5 18
15 14 16 -7 18 -1 9 34 -5 19 -13 22 -51 22 l-44 0 3 43 c3 36 0 42 -18 45
-20 3 -21 -1 -16 -47z"/>
<path d="M273 4413 c-40 -5 -44 -23 -5 -23 45 0 102 12 102 21 0 9 -35 9 -97
2z"/>
<path d="M350 4372 c0 -4 5 -13 10 -18 8 -8 8 -19 0 -38 -24 -64 3 -64 31 1
16 37 17 48 7 55 -17 10 -48 10 -48 0z"/>
<path d="M290 4360 c0 -5 11 -10 25 -10 14 0 25 5 25 10 0 6 -11 10 -25 10
-14 0 -25 -4 -25 -10z"/>
<path d="M148 3951 c4 -50 4 -51 -22 -51 -14 0 -26 -4 -26 -10 0 -5 11 -10 25
-10 19 0 25 -5 25 -23 0 -17 -11 -30 -40 -46 -42 -24 -50 -38 -24 -48 8 -3 25
4 40 17 l24 23 0 -31 c0 -18 -7 -35 -16 -40 -14 -8 -14 -12 -3 -30 8 -12 17
-22 21 -22 17 0 27 41 22 85 -6 39 -3 49 16 70 26 27 21 46 -6 24 -14 -12 -16
-11 -13 6 3 11 14 21 26 23 18 3 23 -3 29 -32 7 -38 24 -49 24 -16 0 13 5 18
15 14 16 -7 18 -1 9 34 -5 19 -13 22 -51 22 l-44 0 3 43 c3 36 0 42 -18 45
-20 3 -21 -1 -16 -47z"/>
<path d="M273 3963 c-40 -5 -44 -23 -5 -23 45 0 102 12 102 21 0 9 -35 9 -97
2z"/>
<path d="M350 3922 c0 -4 5 -13 10 -18 8 -8 8 -19 0 -38 -24 -64 3 -64 31 1
16 37 17 48 7 55 -17 10 -48 10 -48 0z"/>
<path d="M290 3910 c0 -5 9 -10 20 -10 13 0 18 -5 14 -15 -4 -9 0 -15 10 -15
17 0 20 9 10 34 -7 17 -54 22 -54 6z"/>
<path d="M148 3501 c4 -50 4 -51 -22 -51 -14 0 -26 -4 -26 -10 0 -5 11 -10 25
-10 19 0 25 -5 25 -23 0 -17 -11 -30 -40 -46 -42 -24 -50 -38 -24 -48 8 -3 25
4 40 17 l24 23 0 -31 c0 -18 -7 -35 -16 -40 -14 -8 -14 -12 -3 -30 8 -12 17
-22 21 -22 17 0 27 41 22 85 -6 39 -3 49 16 70 26 27 21 46 -6 24 -14 -12 -16
-11 -13 6 3 11 14 21 26 23 18 3 23 -3 29 -32 4 -22 12 -36 21 -36 10 0 13 7
8 23 -5 19 -4 20 7 6 7 -9 35 -18 61 -21 l49 -6 19 46 c21 48 16 62 -23 62
-20 0 -23 -11 -8 -26 5 -5 7 -19 4 -32 -5 -18 -13 -22 -44 -22 -35 0 -39 3
-45 30 -6 28 -10 30 -51 30 l-45 0 3 43 c3 36 0 42 -18 45 -20 3 -21 -1 -16
-47z"/>
<path d="M273 3513 c-40 -5 -44 -23 -5 -23 45 0 102 12 102 21 0 9 -35 9 -97
2z"/>
<path d="M290 3460 c0 -5 9 -10 20 -10 13 0 18 -5 14 -15 -4 -9 0 -15 10 -15
17 0 20 9 10 34 -7 17 -54 22 -54 6z"/>
<path d="M285 3090 c6 -27 4 -30 -19 -30 -14 0 -26 -4 -26 -10 0 -5 10 -10 23
-10 20 0 23 -5 24 -47 1 -47 1 -47 -10 -15 -9 30 -13 32 -54 32 l-44 0 3 43
c3 36 0 42 -18 45 -20 3 -21 -1 -16 -47 4 -50 4 -51 -22 -51 -14 0 -26 -4 -26
-10 0 -5 11 -10 25 -10 19 0 25 -5 25 -23 0 -17 -11 -30 -40 -46 -42 -24 -50
-38 -24 -48 8 -3 25 4 40 17 l24 23 0 -31 c0 -18 -7 -35 -16 -40 -14 -8 -14
-12 -3 -30 8 -12 17 -22 21 -22 17 0 27 41 22 85 -6 39 -3 49 16 70 26 27 21
46 -6 24 -14 -12 -16 -11 -13 6 3 11 14 21 26 23 18 3 23 -3 29 -32 4 -22 12
-36 21 -36 10 0 13 7 8 23 l-6 22 17 -23 c13 -17 17 -41 15 -99 -2 -58 1 -74
11 -71 9 3 14 29 16 82 l3 78 30 -6 c28 -5 31 -3 50 41 21 49 16 63 -23 63
-20 0 -23 -11 -8 -26 17 -17 0 -54 -26 -54 -19 0 -24 5 -24 25 0 14 4 25 10
25 5 0 7 -7 4 -15 -4 -9 0 -15 10 -15 9 0 16 4 16 9 0 21 -13 41 -27 41 -26 0
-8 25 20 28 34 4 35 22 2 22 -20 0 -25 5 -25 25 0 19 -5 25 -21 25 -18 0 -20
-4 -14 -30z"/>
<path d="M285 2640 c6 -27 4 -30 -19 -30 -14 0 -26 -4 -26 -10 0 -5 10 -10 23
-10 20 0 23 -5 24 -47 1 -47 1 -47 -10 -15 -9 30 -13 32 -54 32 l-44 0 3 43
c3 36 0 42 -18 45 -20 3 -21 -1 -16 -47 4 -50 4 -51 -22 -51 -14 0 -26 -4 -26
-10 0 -5 11 -10 25 -10 19 0 25 -5 25 -23 0 -17 -11 -30 -40 -46 -42 -24 -50
-38 -24 -48 8 -3 25 4 40 17 l24 23 0 -31 c0 -18 -7 -35 -16 -40 -14 -8 -14
-12 -3 -30 8 -12 17 -22 21 -22 17 0 27 41 22 85 -6 39 -3 49 16 70 26 27 21
46 -6 24 -14 -12 -16 -11 -13 6 3 11 14 21 26 23 18 3 23 -3 29 -32 4 -22 12
-36 21 -36 10 0 12 6 8 21 -5 15 -4 19 4 15 20 -13 11 -42 -24 -76 -54 -52
-43 -72 14 -24 l31 26 0 -57 c0 -41 3 -56 13 -53 8 3 13 31 15 82 l3 78 30 -6
c28 -5 31 -3 50 41 21 49 16 63 -23 63 -20 0 -23 -11 -8 -26 17 -17 0 -54 -26
-54 -19 0 -24 5 -24 25 0 14 4 25 10 25 5 0 7 -7 4 -15 -4 -9 0 -15 10 -15 9
0 16 4 16 9 0 21 -13 41 -27 41 -26 0 -8 25 20 28 34 4 35 22 2 22 -20 0 -25
5 -25 25 0 19 -5 25 -21 25 -18 0 -20 -4 -14 -30z"/>
<path d="M285 2190 c6 -27 4 -30 -19 -30 -14 0 -26 -4 -26 -10 0 -5 10 -10 23
-10 20 0 23 -5 24 -47 1 -47 1 -47 -10 -15 -9 30 -13 32 -54 32 l-44 0 3 43
c3 36 0 42 -18 45 -20 3 -21 -1 -16 -47 4 -50 4 -51 -22 -51 -14 0 -26 -4 -26
-10 0 -5 11 -10 25 -10 19 0 25 -5 25 -23 0 -17 -11 -30 -40 -46 -42 -24 -50
-38 -24 -48 8 -3 25 4 40 17 l24 23 0 -31 c0 -18 -7 -35 -16 -40 -14 -8 -14
-12 -3 -30 8 -12 17 -22 21 -22 17 0 27 41 22 85 -6 39 -3 49 16 70 26 27 21
46 -6 24 -14 -12 -16 -11 -13 6 3 11 14 21 26 23 18 3 23 -3 29 -32 4 -22 12
-36 21 -36 10 0 12 6 8 21 -5 15 -4 19 4 15 20 -13 11 -42 -24 -76 -54 -52
-43 -72 14 -24 l31 26 0 -57 c0 -79 23 -69 30 12 l5 61 25 -34 c28 -37 50 -48
80 -39 27 8 25 21 -3 29 -13 3 -41 22 -62 41 -39 35 -39 36 -12 30 25 -5 29
-2 48 41 21 50 16 64 -23 64 -20 0 -23 -11 -8 -26 17 -17 0 -54 -26 -54 -19 0
-24 5 -24 25 0 14 4 25 10 25 5 0 7 -7 4 -15 -4 -9 0 -15 10 -15 9 0 16 4 16
9 0 21 -13 41 -27 41 -26 0 -8 25 20 28 34 4 35 22 2 22 -20 0 -25 5 -25 25 0
19 -5 25 -21 25 -18 0 -20 -4 -14 -30z"/>
</g>
</svg>
