<?xml version="1.0" standalone="no"?>
<!DOCTYPE svg PUBLIC "-//W3C//DTD SVG 20010904//EN"
 "http://www.w3.org/TR/2001/REC-SVG-20010904/DTD/svg10.dtd">
<svg version="1.0" xmlns="http://www.w3.org/2000/svg"
 width="50.000000pt" height="725.000000pt" viewBox="0 0 50.000000 725.000000"
 preserveAspectRatio="xMidYMid meet">
<metadata>
Created by potrace 1.16, written by Peter Selinger 2001-2019
</metadata>
<g transform="translate(0.000000,725.000000) scale(0.100000,-0.100000)"
fill="#000000" stroke="none">
<path d="M143 7063 c-40 -5 -44 -23 -5 -23 45 0 102 12 102 21 0 9 -35 9 -97
2z"/>
<path d="M170 6665 c0 -54 0 -55 -30 -55 -16 0 -30 -4 -30 -10 0 -5 14 -10 30
-10 l30 0 0 -71 c0 -62 -2 -71 -20 -76 -25 -7 -25 -15 -2 -36 34 -31 42 -21
42 51 0 102 9 142 31 142 11 0 19 5 19 10 0 6 -10 10 -21 10 -19 0 -21 4 -15
44 6 41 -2 56 -30 56 -2 0 -4 -25 -4 -55z"/>
<path d="M170 6215 c0 -54 0 -55 -30 -55 -16 0 -30 -4 -30 -10 0 -5 14 -10 30
-10 25 0 30 -4 30 -24 0 -19 -9 -29 -40 -43 -39 -18 -50 -36 -30 -48 6 -3 24
3 40 15 l30 21 0 -31 c0 -23 -5 -33 -20 -37 -25 -7 -25 -15 -2 -36 34 -31 42
-21 42 52 0 39 4 73 10 76 5 3 7 19 3 35 -5 26 -2 30 16 30 11 0 21 5 21 10 0
6 -10 10 -21 10 -19 0 -21 4 -15 44 6 41 -2 56 -30 56 -2 0 -4 -25 -4 -55z"/>
<path d="M170 5765 c0 -54 0 -55 -30 -55 -16 0 -30 -4 -30 -10 0 -5 14 -10 30
-10 25 0 30 -4 30 -24 0 -19 -9 -29 -40 -43 -39 -18 -50 -36 -30 -48 6 -3 24
3 40 15 l30 21 0 -31 c0 -23 -5 -33 -20 -37 -25 -7 -25 -15 -2 -36 34 -31 42
-21 42 52 0 39 4 73 10 76 5 3 7 19 3 35 -5 26 -2 30 16 30 11 0 21 5 21 10 0
6 -10 10 -21 10 -19 0 -21 4 -15 44 6 41 -2 56 -30 56 -2 0 -4 -25 -4 -55z"/>
<path d="M255 5765 c3 -14 7 -36 10 -50 3 -14 10 -25 16 -25 7 0 9 9 5 23 -3
12 -6 34 -6 50 0 17 -5 27 -15 27 -11 0 -14 -7 -10 -25z"/>
<path d="M170 5315 c0 -54 0 -55 -30 -55 -16 0 -30 -4 -30 -10 0 -5 14 -10 30
-10 25 0 30 -4 30 -24 0 -19 -9 -29 -40 -43 -39 -18 -50 -36 -30 -48 6 -3 24
3 40 15 l30 21 0 -31 c0 -23 -5 -33 -20 -37 -25 -7 -25 -15 -2 -36 34 -31 42
-21 42 52 0 39 4 73 10 76 5 3 7 19 3 35 -5 26 -2 30 16 30 11 0 21 5 21 10 0
6 -10 10 -21 10 -19 0 -21 4 -15 44 6 41 -2 56 -30 56 -2 0 -4 -25 -4 -55z"/>
<path d="M333 5353 c-31 -6 -29 -23 2 -23 22 0 25 -3 19 -25 -19 -75 4 -85 30
-14 15 43 15 53 4 60 -14 9 -18 9 -55 2z"/>
<path d="M255 5315 c3 -14 7 -36 10 -50 9 -43 21 -28 21 25 -1 41 -4 50 -19
50 -13 0 -16 -6 -12 -25z"/>
<path d="M170 4865 c0 -54 0 -55 -30 -55 -16 0 -30 -4 -30 -10 0 -5 14 -10 30
-10 25 0 30 -4 30 -24 0 -19 -9 -29 -40 -43 -39 -18 -50 -36 -30 -48 6 -3 24
3 40 15 l30 21 0 -31 c0 -23 -5 -33 -20 -37 -25 -7 -25 -15 -2 -36 34 -31 42
-21 42 52 0 39 4 73 10 76 5 3 7 19 3 35 -5 26 -2 30 16 30 11 0 21 5 21 10 0
6 -10 10 -21 10 -19 0 -21 4 -15 44 6 41 -2 56 -30 56 -2 0 -4 -25 -4 -55z"/>
<path d="M333 4903 c-31 -6 -29 -23 2 -23 14 0 25 -4 25 -10 0 -5 -13 -10 -30
-10 -16 0 -30 -4 -30 -10 0 -5 11 -10 25 -10 19 0 24 -5 22 -21 -4 -43 19 -28
37 22 15 43 15 53 4 60 -14 9 -18 9 -55 2z"/>
<path d="M255 4865 c3 -14 7 -36 10 -50 9 -43 23 -27 22 25 -1 41 -5 50 -19
50 -14 0 -17 -6 -13 -25z"/>
<path d="M170 4415 c0 -54 0 -55 -30 -55 -16 0 -30 -4 -30 -10 0 -5 14 -10 30
-10 25 0 30 -4 30 -24 0 -19 -9 -29 -40 -43 -39 -18 -50 -36 -30 -48 6 -3 24
3 40 15 l30 21 0 -31 c0 -23 -5 -33 -20 -37 -25 -7 -25 -15 -2 -36 34 -31 42
-21 42 52 0 39 4 73 10 76 5 3 7 19 3 35 -5 26 -2 30 16 30 11 0 21 5 21 10 0
6 -10 10 -21 10 -19 0 -21 4 -15 44 6 41 -2 56 -30 56 -2 0 -4 -25 -4 -55z"/>
<path d="M333 4453 c-31 -6 -29 -23 2 -23 14 0 25 -4 25 -10 0 -5 -13 -10 -30
-10 -16 0 -30 -4 -30 -10 0 -5 11 -10 25 -10 14 0 25 -4 25 -10 0 -9 -38 -14
-57 -7 -5 1 -7 17 -7 35 1 25 -3 32 -17 32 -15 0 -18 -5 -14 -25 3 -14 7 -35
10 -48 4 -21 10 -23 53 -23 l49 1 17 49 c15 40 15 50 4 57 -14 9 -18 9 -55 2z"/>
<path d="M170 3965 c0 -54 0 -55 -30 -55 -16 0 -30 -4 -30 -10 0 -5 14 -10 30
-10 25 0 30 -4 30 -24 0 -19 -9 -29 -40 -43 -39 -18 -50 -36 -30 -48 6 -3 24
3 40 15 l30 21 0 -31 c0 -23 -5 -33 -20 -37 -25 -7 -25 -15 -2 -36 34 -31 42
-21 42 52 0 39 4 73 10 76 5 3 7 19 3 35 -5 26 -2 30 16 30 11 0 21 5 21 10 0
6 -10 10 -21 10 -19 0 -21 4 -15 44 6 41 -2 56 -30 56 -2 0 -4 -25 -4 -55z"/>
<path d="M333 4003 c-31 -6 -29 -23 2 -23 14 0 25 -4 25 -10 0 -5 -13 -10 -30
-10 -16 0 -30 -4 -30 -10 0 -5 11 -10 25 -10 14 0 25 -4 25 -10 0 -9 -38 -14
-57 -7 -5 1 -7 17 -7 35 1 25 -3 32 -17 32 -15 0 -18 -5 -14 -25 3 -14 7 -35
10 -48 2 -13 -5 -37 -16 -56 -11 -18 -18 -36 -15 -39 9 -8 47 30 57 57 8 20
14 23 42 18 32 -5 34 -3 51 45 15 42 15 52 4 59 -14 9 -18 9 -55 2z"/>
<path d="M170 3515 c0 -54 0 -55 -30 -55 -16 0 -30 -4 -30 -10 0 -5 14 -10 30
-10 25 0 30 -4 30 -24 0 -19 -9 -29 -40 -43 -39 -18 -50 -36 -30 -48 6 -3 24
3 40 15 l30 21 0 -31 c0 -23 -5 -33 -20 -37 -25 -7 -25 -15 -2 -36 34 -31 42
-21 42 52 0 39 4 73 10 76 5 3 7 19 3 35 -5 26 -2 30 16 30 11 0 21 5 21 10 0
6 -10 10 -21 10 -19 0 -21 4 -15 44 6 41 -2 56 -30 56 -2 0 -4 -25 -4 -55z"/>
<path d="M333 3553 c-31 -6 -29 -23 2 -23 14 0 25 -4 25 -10 0 -5 -13 -10 -30
-10 -16 0 -30 -4 -30 -10 0 -5 11 -10 25 -10 14 0 25 -4 25 -10 0 -9 -38 -14
-57 -7 -5 1 -7 17 -7 35 1 25 -3 32 -17 32 -15 0 -18 -5 -14 -25 3 -14 7 -35
10 -48 2 -13 -5 -37 -16 -56 -24 -40 -21 -45 14 -28 16 7 27 22 29 37 3 22 8
25 39 24 34 -1 36 1 53 49 15 41 15 51 4 58 -14 9 -18 9 -55 2z"/>
<path d="M338 3423 c-52 -6 -48 -25 4 -22 49 4 53 -2 43 -77 -5 -44 -10 -54
-26 -54 -23 0 -24 -10 -4 -36 15 -19 15 -19 34 3 12 15 20 46 25 98 7 81 4 96
-22 93 -9 -1 -34 -3 -54 -5z"/>
<path d="M170 3065 c0 -54 0 -55 -30 -55 -16 0 -30 -4 -30 -10 0 -5 14 -10 30
-10 25 0 30 -4 30 -24 0 -19 -9 -29 -40 -43 -39 -18 -50 -36 -30 -48 6 -3 24
3 40 15 l30 21 0 -31 c0 -23 -5 -33 -20 -37 -25 -7 -25 -15 -2 -36 34 -31 42
-21 42 52 0 39 4 73 10 76 5 3 7 19 3 35 -5 26 -2 30 16 30 11 0 21 5 21 10 0
6 -10 10 -21 10 -19 0 -21 4 -15 44 6 41 -2 56 -30 56 -2 0 -4 -25 -4 -55z"/>
<path d="M333 3103 c-31 -6 -29 -23 2 -23 14 0 25 -4 25 -10 0 -5 -13 -10 -30
-10 -16 0 -30 -4 -30 -10 0 -5 11 -10 25 -10 14 0 25 -4 25 -10 0 -9 -38 -14
-57 -7 -5 1 -7 17 -7 35 1 25 -3 32 -17 32 -15 0 -18 -5 -14 -25 3 -14 7 -35
10 -48 2 -13 -5 -37 -16 -56 -24 -40 -21 -45 14 -28 16 7 27 22 29 37 3 22 8
25 39 24 34 -1 36 1 53 49 15 41 15 51 4 58 -14 9 -18 9 -55 2z"/>
<path d="M338 2973 c-30 -3 -38 -9 -38 -24 0 -10 -5 -28 -12 -39 -19 -29 1
-38 22 -10 11 14 20 30 20 36 0 18 51 24 57 8 3 -8 2 -39 -2 -69 -5 -45 -10
-55 -26 -55 -23 0 -24 -10 -4 -36 15 -19 15 -19 34 3 12 15 20 46 25 98 7 81
4 96 -22 93 -9 -1 -34 -3 -54 -5z"/>
<path d="M170 2615 c0 -54 0 -55 -30 -55 -16 0 -30 -4 -30 -10 0 -5 14 -10 30
-10 25 0 30 -4 30 -24 0 -19 -9 -29 -40 -43 -39 -18 -50 -36 -30 -48 6 -3 24
3 40 15 l30 21 0 -31 c0 -23 -5 -33 -20 -37 -25 -7 -25 -15 -2 -36 34 -31 42
-21 42 52 0 39 4 73 10 76 5 3 7 19 3 35 -5 26 -2 30 16 30 11 0 21 5 21 10 0
6 -10 10 -21 10 -19 0 -21 4 -15 44 6 41 -2 56 -30 56 -2 0 -4 -25 -4 -55z"/>
<path d="M333 2653 c-31 -6 -29 -23 2 -23 14 0 25 -4 25 -10 0 -5 -13 -10 -30
-10 -16 0 -30 -4 -30 -10 0 -5 11 -10 25 -10 14 0 25 -4 25 -10 0 -9 -38 -14
-57 -7 -5 1 -7 17 -7 35 1 25 -3 32 -17 32 -15 0 -18 -5 -14 -25 3 -14 7 -35
10 -48 2 -13 -5 -37 -16 -56 -24 -40 -21 -45 14 -28 16 7 27 22 29 37 3 22 8
25 39 24 34 -1 36 1 53 49 15 41 15 51 4 58 -14 9 -18 9 -55 2z"/>
<path d="M338 2523 c-30 -3 -38 -9 -38 -24 0 -10 -5 -28 -12 -39 -15 -23 -4
-37 16 -21 10 8 16 9 21 1 8 -13 45 -13 45 0 0 5 -9 14 -20 20 -28 15 -25 37
6 43 33 6 38 -8 29 -78 -5 -45 -10 -55 -26 -55 -23 0 -24 -10 -4 -36 15 -19
15 -19 34 3 12 15 20 46 25 98 7 81 4 96 -22 93 -9 -1 -34 -3 -54 -5z"/>
<path d="M170 2165 c0 -54 0 -55 -30 -55 -16 0 -30 -4 -30 -10 0 -5 14 -10 30
-10 25 0 30 -4 30 -24 0 -19 -9 -29 -40 -43 -39 -18 -50 -36 -30 -48 6 -3 24
3 40 15 l30 21 0 -31 c0 -23 -5 -33 -20 -37 -25 -7 -25 -15 -2 -36 34 -31 42
-21 42 52 0 39 4 73 10 76 5 3 7 19 3 35 -5 26 -2 30 16 30 11 0 21 5 21 10 0
6 -10 10 -21 10 -19 0 -21 4 -15 44 6 41 -2 56 -30 56 -2 0 -4 -25 -4 -55z"/>
<path d="M333 2203 c-31 -6 -29 -23 2 -23 14 0 25 -4 25 -10 0 -5 -13 -10 -30
-10 -16 0 -30 -4 -30 -10 0 -5 11 -10 25 -10 14 0 25 -4 25 -10 0 -9 -38 -14
-57 -7 -5 1 -7 17 -7 35 1 25 -3 32 -17 32 -15 0 -18 -5 -14 -25 3 -14 7 -35
10 -48 2 -13 -5 -37 -16 -56 -24 -40 -21 -45 14 -28 16 7 27 22 29 37 3 22 8
25 39 24 34 -1 36 1 53 49 15 41 15 51 4 58 -14 9 -18 9 -55 2z"/>
<path d="M338 2073 c-30 -3 -38 -9 -38 -24 0 -10 -5 -28 -12 -39 -15 -23 -4
-37 16 -21 10 8 16 9 21 1 8 -13 45 -13 45 0 0 5 -9 14 -20 20 -28 15 -25 37
6 43 33 6 38 -8 29 -78 -5 -45 -10 -55 -26 -55 -23 0 -24 -10 -4 -36 15 -19
15 -19 34 3 12 15 20 46 25 98 7 81 4 96 -22 93 -9 -1 -34 -3 -54 -5z"/>
<path d="M240 1970 c0 -37 2 -40 28 -40 47 0 102 12 102 22 0 6 -23 8 -52 6
-51 -3 -53 -2 -56 25 -5 42 -22 32 -22 -13z"/>
</g>
</svg>
