<?xml version="1.0" standalone="no"?>
<!DOCTYPE svg PUBLIC "-//W3C//DTD SVG 20010904//EN"
 "http://www.w3.org/TR/2001/REC-SVG-20010904/DTD/svg10.dtd">
<svg version="1.0" xmlns="http://www.w3.org/2000/svg"
 width="50.000000pt" height="725.000000pt" viewBox="0 0 50.000000 725.000000"
 preserveAspectRatio="xMidYMid meet">
<metadata>
Created by potrace 1.16, written by Peter Selinger 2001-2019
</metadata>
<g transform="translate(0.000000,725.000000) scale(0.100000,-0.100000)"
fill="#000000" stroke="none">
<path d="M143 7057 c-61 -14 -55 -31 7 -23 59 8 80 15 80 27 0 11 -32 10 -87
-4z"/>
<path d="M158 6660 c4 -49 4 -50 -27 -56 -40 -8 -40 -24 -1 -24 l30 0 0 -71
c0 -62 -2 -71 -20 -76 -25 -7 -25 -15 -1 -37 31 -28 41 -11 41 72 0 94 7 120
31 127 26 8 24 25 -2 25 -19 0 -21 4 -14 36 4 26 2 39 -7 45 -28 18 -35 9 -30
-41z"/>
<path d="M158 6210 c4 -49 4 -50 -27 -56 -40 -8 -40 -24 -1 -24 25 0 30 -4 30
-24 0 -17 -11 -29 -45 -47 -46 -25 -59 -49 -26 -49 10 0 30 9 45 21 l26 20 0
-31 c0 -23 -5 -33 -20 -37 -25 -7 -25 -15 -1 -37 30 -27 41 -11 41 60 0 52 4
67 20 81 24 20 26 38 5 29 -9 -3 -15 0 -15 9 0 7 9 17 20 20 26 8 26 25 -1 25
-19 0 -21 4 -14 36 4 26 2 39 -7 45 -28 18 -35 9 -30 -41z"/>
<path d="M158 5760 c4 -49 4 -50 -27 -56 -40 -8 -40 -24 -1 -24 25 0 30 -4 30
-24 0 -17 -11 -29 -45 -47 -46 -25 -59 -49 -26 -49 10 0 30 9 45 21 l26 20 0
-31 c0 -23 -5 -33 -20 -37 -25 -7 -25 -15 -1 -37 30 -27 41 -11 41 60 0 52 4
67 20 81 24 20 26 38 5 29 -9 -3 -15 0 -15 9 0 7 9 17 20 20 26 8 26 25 -1 25
-19 0 -21 4 -14 36 4 26 2 39 -7 45 -28 18 -35 9 -30 -41z"/>
<path d="M250 5776 c0 -22 29 -41 42 -28 8 8 8 15 -2 27 -16 19 -40 20 -40 1z"/>
<path d="M158 5310 c4 -49 4 -50 -27 -56 -40 -8 -40 -24 -1 -24 25 0 30 -4 30
-24 0 -17 -11 -29 -45 -47 -46 -25 -59 -49 -26 -49 10 0 30 9 45 21 l26 20 0
-31 c0 -23 -5 -33 -20 -37 -25 -7 -25 -15 -1 -37 30 -27 41 -11 41 60 0 52 4
67 20 81 24 20 26 38 5 29 -9 -3 -15 0 -15 9 0 7 9 17 20 20 26 8 26 25 -1 25
-19 0 -21 4 -14 36 4 26 2 39 -7 45 -28 18 -35 9 -30 -41z"/>
<path d="M346 5335 c-10 -15 -15 -29 -12 -32 9 -9 58 27 53 40 -7 21 -24 18
-41 -8z"/>
<path d="M250 5326 c0 -22 29 -41 42 -28 8 8 8 15 -2 27 -16 19 -40 20 -40 1z"/>
<path d="M158 4860 c4 -49 4 -50 -27 -56 -40 -8 -40 -24 -1 -24 25 0 30 -4 30
-24 0 -17 -11 -29 -45 -47 -46 -25 -59 -49 -26 -49 10 0 30 9 45 21 l26 20 0
-31 c0 -23 -5 -33 -20 -37 -25 -7 -25 -15 -1 -37 30 -27 41 -11 41 60 0 52 4
67 20 81 24 20 26 38 5 29 -9 -3 -15 0 -15 9 0 7 9 17 20 20 26 8 26 25 -1 25
-19 0 -21 4 -14 36 4 26 2 39 -7 45 -28 18 -35 9 -30 -41z"/>
<path d="M346 4885 c-10 -15 -15 -29 -12 -32 9 -9 58 27 53 40 -7 21 -24 18
-41 -8z"/>
<path d="M250 4876 c0 -22 29 -41 42 -28 8 8 8 15 -2 27 -16 19 -40 20 -40 1z"/>
<path d="M298 4837 c-58 -10 -79 -27 -34 -27 57 0 116 13 116 26 0 15 -1 15
-82 1z"/>
<path d="M158 4410 c4 -49 4 -50 -27 -56 -40 -8 -40 -24 -1 -24 25 0 30 -4 30
-24 0 -17 -11 -29 -45 -47 -46 -25 -59 -49 -26 -49 10 0 30 9 45 21 l26 20 0
-31 c0 -23 -5 -33 -20 -37 -25 -7 -25 -15 -1 -37 30 -27 41 -11 41 60 0 52 4
67 20 81 24 20 26 38 5 29 -9 -3 -15 0 -15 9 0 7 9 17 20 20 26 8 26 25 -1 25
-19 0 -21 4 -14 36 4 26 2 39 -7 45 -28 18 -35 9 -30 -41z"/>
<path d="M346 4435 c-10 -15 -15 -29 -12 -32 9 -9 58 27 53 40 -7 21 -24 18
-41 -8z"/>
<path d="M250 4426 c0 -22 29 -41 42 -28 8 8 8 15 -2 27 -16 19 -40 20 -40 1z"/>
<path d="M298 4387 c-58 -10 -79 -27 -34 -27 57 0 116 13 116 26 0 15 -1 15
-82 1z"/>
<path d="M293 4343 c-18 -2 -33 -9 -33 -15 0 -7 16 -9 46 -4 26 3 53 6 60 6 8
0 14 5 14 10 0 10 -24 11 -87 3z"/>
<path d="M158 3960 c4 -49 4 -50 -27 -56 -40 -8 -40 -24 -1 -24 25 0 30 -4 30
-24 0 -17 -11 -29 -45 -47 -46 -25 -59 -49 -26 -49 10 0 30 9 45 21 l26 20 0
-31 c0 -23 -5 -33 -20 -37 -25 -7 -25 -15 -1 -37 30 -27 41 -11 41 60 0 52 4
67 20 81 24 20 26 38 5 29 -9 -3 -15 0 -15 9 0 7 9 17 20 20 26 8 26 25 -1 25
-19 0 -21 4 -14 36 4 26 2 39 -7 45 -28 18 -35 9 -30 -41z"/>
<path d="M346 3985 c-10 -15 -15 -29 -12 -32 9 -9 58 27 53 40 -7 21 -24 18
-41 -8z"/>
<path d="M250 3976 c0 -22 29 -41 42 -28 8 8 8 15 -2 27 -16 19 -40 20 -40 1z"/>
<path d="M298 3937 c-58 -10 -79 -27 -34 -27 14 0 28 -4 31 -10 3 -5 -3 -10
-14 -10 -12 0 -21 -4 -21 -10 0 -5 9 -10 20 -10 11 0 20 -7 20 -15 0 -22 17
-18 23 5 3 14 14 20 31 20 14 0 26 5 26 10 0 6 -11 10 -25 10 -14 0 -25 5 -25
10 0 6 11 10 25 10 16 0 25 6 25 15 0 16 0 16 -82 2z"/>
<path d="M158 3510 c4 -49 4 -50 -27 -56 -40 -8 -40 -24 -1 -24 25 0 30 -4 30
-24 0 -17 -11 -29 -45 -47 -46 -25 -59 -49 -26 -49 10 0 30 9 45 21 l26 20 0
-31 c0 -23 -5 -33 -20 -37 -25 -7 -25 -15 -1 -37 30 -27 41 -11 41 60 0 52 4
67 20 81 24 20 26 38 5 29 -9 -3 -15 0 -15 9 0 7 9 17 20 20 26 8 26 25 -1 25
-19 0 -21 4 -14 36 4 26 2 39 -7 45 -28 18 -35 9 -30 -41z"/>
<path d="M346 3535 c-10 -15 -15 -29 -12 -32 9 -9 58 27 53 40 -7 21 -24 18
-41 -8z"/>
<path d="M250 3526 c0 -22 29 -41 42 -28 8 8 8 15 -2 27 -16 19 -40 20 -40 1z"/>
<path d="M298 3487 c-58 -10 -79 -27 -34 -27 14 0 28 -4 31 -10 3 -5 -3 -10
-14 -10 -12 0 -21 -4 -21 -10 0 -5 9 -10 21 -10 36 0 15 -25 -24 -28 -20 -2
-37 -8 -37 -13 0 -9 188 -3 199 7 1 1 0 7 -3 13 -4 6 -25 8 -53 4 -37 -5 -45
-3 -41 8 2 8 17 15 31 17 34 4 35 22 2 22 -14 0 -25 5 -25 10 0 6 11 10 25 10
16 0 25 6 25 15 0 16 0 16 -82 2z"/>
<path d="M158 3060 c4 -49 4 -50 -27 -56 -40 -8 -40 -24 -1 -24 25 0 30 -4 30
-24 0 -17 -11 -29 -45 -47 -46 -25 -59 -49 -26 -49 10 0 30 9 45 21 l26 20 0
-31 c0 -23 -5 -33 -20 -37 -25 -7 -25 -15 -1 -37 30 -27 41 -11 41 60 0 52 4
67 20 81 24 20 26 38 5 29 -9 -3 -15 0 -15 9 0 7 9 17 20 20 26 8 26 25 -1 25
-19 0 -21 4 -14 36 4 26 2 39 -7 45 -28 18 -35 9 -30 -41z"/>
<path d="M346 3085 c-10 -15 -15 -29 -12 -32 9 -9 58 27 53 40 -7 21 -24 18
-41 -8z"/>
<path d="M250 3076 c0 -22 29 -41 42 -28 8 8 8 15 -2 27 -16 19 -40 20 -40 1z"/>
<path d="M298 3037 c-58 -10 -79 -27 -34 -27 14 0 28 -4 31 -10 3 -5 -3 -10
-14 -10 -12 0 -21 -4 -21 -10 0 -5 9 -10 21 -10 36 0 15 -25 -24 -28 -40 -3
-50 -19 -17 -24 20 -3 20 -4 -6 -41 -14 -21 -23 -41 -20 -44 8 -9 55 36 72 70
13 25 19 27 75 27 44 0 59 3 56 13 -3 8 -20 11 -52 9 -36 -3 -46 -1 -43 10 3
7 17 14 31 16 34 4 35 22 2 22 -14 0 -25 5 -25 10 0 6 11 10 25 10 16 0 25 6
25 15 0 16 0 16 -82 2z"/>
<path d="M158 2610 c4 -49 4 -50 -27 -56 -40 -8 -40 -24 -1 -24 25 0 30 -4 30
-24 0 -17 -11 -29 -45 -47 -46 -25 -59 -49 -26 -49 10 0 30 9 45 21 l26 20 0
-31 c0 -23 -5 -33 -20 -37 -25 -7 -25 -15 -1 -37 30 -27 41 -11 41 60 0 52 4
67 20 81 24 20 26 38 5 29 -9 -3 -15 0 -15 9 0 7 9 17 20 20 26 8 26 25 -1 25
-19 0 -21 4 -14 36 4 26 2 39 -7 45 -28 18 -35 9 -30 -41z"/>
<path d="M346 2635 c-10 -15 -15 -29 -12 -32 9 -9 58 27 53 40 -7 21 -24 18
-41 -8z"/>
<path d="M250 2626 c0 -22 29 -41 42 -28 8 8 8 15 -2 27 -16 19 -40 20 -40 1z"/>
<path d="M298 2587 c-58 -10 -79 -27 -34 -27 14 0 28 -4 31 -10 3 -5 -3 -10
-14 -10 -12 0 -21 -4 -21 -10 0 -5 9 -10 21 -10 36 0 15 -25 -24 -28 -40 -3
-50 -19 -17 -24 20 -3 20 -4 -6 -41 -30 -44 -25 -61 9 -29 13 12 34 22 48 22
45 0 99 13 99 22 0 7 -21 8 -56 3 -54 -6 -55 -6 -44 14 9 18 20 21 71 21 44 0
59 3 56 13 -3 8 -20 11 -52 9 -36 -3 -46 -1 -43 10 3 7 17 14 31 16 34 4 35
22 2 22 -14 0 -25 5 -25 10 0 6 11 10 25 10 16 0 25 6 25 15 0 16 0 16 -82 2z"/>
<path d="M158 2160 c4 -49 4 -50 -27 -56 -40 -8 -40 -24 -1 -24 25 0 30 -4 30
-24 0 -17 -11 -29 -45 -47 -46 -25 -59 -49 -26 -49 10 0 30 9 45 21 l26 20 0
-31 c0 -23 -5 -33 -20 -37 -25 -7 -25 -15 -1 -37 30 -27 41 -11 41 60 0 52 4
67 20 81 24 20 26 38 5 29 -9 -3 -15 0 -15 9 0 7 9 17 20 20 26 8 26 25 -1 25
-19 0 -21 4 -14 36 4 26 2 39 -7 45 -28 18 -35 9 -30 -41z"/>
<path d="M346 2185 c-10 -15 -15 -29 -12 -32 9 -9 58 27 53 40 -7 21 -24 18
-41 -8z"/>
<path d="M250 2176 c0 -22 29 -41 42 -28 8 8 8 15 -2 27 -16 19 -40 20 -40 1z"/>
<path d="M298 2137 c-58 -10 -79 -27 -34 -27 14 0 28 -4 31 -10 3 -5 -3 -10
-14 -10 -12 0 -21 -4 -21 -10 0 -5 9 -10 21 -10 36 0 15 -25 -24 -28 -40 -3
-50 -19 -17 -24 20 -3 20 -4 -6 -41 -30 -44 -25 -61 9 -29 33 31 67 29 67 -3
0 -35 19 -31 27 5 4 23 11 30 29 30 13 0 24 5 24 11 0 8 -17 9 -56 4 -54 -6
-55 -6 -44 14 9 18 20 21 71 21 44 0 59 3 56 13 -3 8 -20 11 -52 9 -36 -3 -46
-1 -43 10 3 7 17 14 31 16 34 4 35 22 2 22 -14 0 -25 5 -25 10 0 6 11 10 25
10 16 0 25 6 25 15 0 16 0 16 -82 2z"/>
<path d="M158 1710 c4 -49 4 -50 -27 -56 -40 -8 -40 -24 -1 -24 25 0 30 -4 30
-24 0 -17 -11 -29 -45 -47 -46 -25 -59 -49 -26 -49 10 0 30 9 45 21 l26 20 0
-31 c0 -23 -5 -33 -20 -37 -25 -7 -25 -15 -1 -37 30 -27 41 -11 41 60 0 52 4
67 20 81 24 20 26 38 5 29 -9 -3 -15 0 -15 9 0 7 9 17 20 20 26 8 26 25 -1 25
-19 0 -21 4 -14 36 4 26 2 39 -7 45 -28 18 -35 9 -30 -41z"/>
<path d="M346 1735 c-10 -15 -15 -29 -12 -32 9 -9 58 27 53 40 -7 21 -24 18
-41 -8z"/>
<path d="M250 1726 c0 -22 29 -41 42 -28 8 8 8 15 -2 27 -16 19 -40 20 -40 1z"/>
<path d="M298 1687 c-58 -10 -79 -27 -34 -27 14 0 28 -4 31 -10 3 -5 -3 -10
-14 -10 -12 0 -21 -4 -21 -10 0 -5 9 -10 21 -10 36 0 15 -25 -24 -28 -40 -3
-50 -19 -17 -24 20 -3 20 -4 -6 -41 -30 -44 -25 -61 9 -29 30 28 67 29 67 3 0
-16 -9 -21 -45 -27 -25 -3 -45 -10 -45 -15 0 -8 210 -1 220 8 13 11 -30 22
-66 17 -40 -6 -41 -5 -37 20 4 19 11 26 29 26 13 0 24 5 24 11 0 8 -17 9 -56
4 -54 -6 -55 -6 -44 14 9 18 20 21 71 21 44 0 59 3 56 13 -3 8 -20 11 -52 9
-36 -3 -46 -1 -43 10 3 7 17 14 31 16 34 4 35 22 2 22 -14 0 -25 5 -25 10 0 6
11 10 25 10 16 0 25 6 25 15 0 16 0 16 -82 2z"/>
</g>
</svg>
