<?xml version="1.0" standalone="no"?>
<!DOCTYPE svg PUBLIC "-//W3C//DTD SVG 20010904//EN"
 "http://www.w3.org/TR/2001/REC-SVG-20010904/DTD/svg10.dtd">
<svg version="1.0" xmlns="http://www.w3.org/2000/svg"
 width="50.000000pt" height="725.000000pt" viewBox="0 0 50.000000 725.000000"
 preserveAspectRatio="xMidYMid meet">
<metadata>
Created by potrace 1.16, written by Peter Selinger 2001-2019
</metadata>
<g transform="translate(0.000000,725.000000) scale(0.100000,-0.100000)"
fill="#000000" stroke="none">
<path d="M156 7061 c-16 -3 -31 -12 -34 -19 -3 -10 5 -12 34 -7 58 10 74 15
74 26 0 10 -29 10 -74 0z"/>
<path d="M167 6662 c5 -47 4 -51 -17 -54 -13 -1 -25 -9 -28 -17 -3 -10 2 -12
22 -7 25 6 26 5 26 -43 0 -68 -10 -111 -26 -111 -18 0 -17 -10 1 -34 8 -11 21
-16 30 -13 12 5 15 25 15 106 0 91 2 100 20 106 25 8 26 25 2 25 -15 0 -19 8
-18 42 1 32 -3 43 -16 46 -15 3 -16 -3 -11 -46z"/>
<path d="M167 6212 c5 -47 4 -51 -17 -54 -13 -1 -25 -9 -28 -17 -3 -10 2 -12
22 -7 23 6 26 3 26 -19 0 -18 -11 -32 -40 -51 -22 -15 -40 -31 -40 -36 0 -19
30 -18 50 2 12 12 24 20 26 17 9 -9 -10 -67 -22 -67 -18 0 -17 -10 1 -34 8
-11 21 -16 30 -13 11 5 15 22 15 75 0 50 4 73 15 82 8 7 15 17 15 22 0 6 -7 8
-15 4 -9 -3 -15 0 -15 9 0 7 9 17 20 20 25 8 26 25 2 25 -15 0 -19 8 -18 42 1
32 -3 43 -16 46 -15 3 -16 -3 -11 -46z"/>
<path d="M291 5789 c-13 -17 -21 -33 -18 -35 6 -6 77 36 77 46 0 6 -23 20 -34
20 -1 0 -12 -14 -25 -31z"/>
<path d="M167 5762 c5 -47 4 -51 -17 -54 -13 -1 -25 -9 -28 -17 -3 -10 2 -12
22 -7 23 6 26 3 26 -19 0 -18 -11 -32 -40 -51 -22 -15 -40 -31 -40 -36 0 -19
30 -18 50 2 12 12 24 20 26 17 9 -9 -10 -67 -22 -67 -18 0 -17 -10 1 -34 8
-11 21 -16 30 -13 11 5 15 22 15 75 0 50 4 73 15 82 8 7 15 17 15 22 0 6 -7 8
-15 4 -9 -3 -15 0 -15 9 0 7 9 17 20 20 25 8 26 25 2 25 -15 0 -19 8 -18 42 1
32 -3 43 -16 46 -15 3 -16 -3 -11 -46z"/>
<path d="M292 5340 c-13 -16 -28 -30 -36 -30 -8 0 -13 -16 -14 -48 -1 -42 -12
-85 -37 -144 -4 -11 -3 -18 4 -18 17 0 49 73 57 131 7 52 24 78 70 106 16 10
17 13 4 22 -21 15 -24 14 -48 -19z"/>
<path d="M167 5312 c5 -47 4 -51 -17 -54 -13 -1 -25 -9 -28 -17 -3 -10 2 -12
22 -7 23 6 26 3 26 -19 0 -18 -11 -32 -40 -51 -22 -15 -40 -31 -40 -36 0 -19
30 -18 50 2 12 12 24 20 26 17 9 -9 -10 -67 -22 -67 -18 0 -17 -10 1 -34 8
-11 21 -16 30 -13 11 5 15 22 15 75 0 50 4 73 15 82 8 7 15 17 15 22 0 6 -7 8
-15 4 -9 -3 -15 0 -15 9 0 7 9 17 20 20 25 8 26 25 2 25 -15 0 -19 8 -18 42 1
32 -3 43 -16 46 -15 3 -16 -3 -11 -46z"/>
<path d="M292 4890 c-13 -16 -28 -30 -36 -30 -8 0 -13 -16 -14 -48 -1 -42 -12
-85 -37 -144 -4 -11 -3 -18 4 -18 16 0 48 69 56 122 6 41 10 47 37 52 48 10
58 7 58 -14 0 -11 4 -20 8 -20 15 0 32 24 32 43 0 18 -5 19 -62 14 -60 -5 -62
-5 -42 11 12 9 30 22 40 29 17 10 17 13 4 22 -21 15 -24 14 -48 -19z"/>
<path d="M167 4862 c5 -47 4 -51 -17 -54 -13 -1 -25 -9 -28 -17 -3 -10 2 -12
22 -7 23 6 26 3 26 -19 0 -18 -11 -32 -40 -51 -22 -15 -40 -31 -40 -36 0 -19
30 -18 50 2 12 12 24 20 26 17 9 -9 -10 -67 -22 -67 -18 0 -17 -10 1 -34 8
-11 21 -16 30 -13 11 5 15 22 15 75 0 50 4 73 15 82 8 7 15 17 15 22 0 6 -7 8
-15 4 -9 -3 -15 0 -15 9 0 7 9 17 20 20 25 8 26 25 2 25 -15 0 -19 8 -18 42 1
32 -3 43 -16 46 -15 3 -16 -3 -11 -46z"/>
<path d="M292 4440 c-13 -16 -28 -30 -36 -30 -8 0 -13 -16 -14 -48 -1 -42 -12
-85 -37 -144 -4 -11 -3 -18 4 -18 10 0 42 59 54 101 4 11 22 18 58 23 54 7 78
25 79 60 0 17 -6 18 -62 13 -60 -5 -62 -5 -42 11 12 9 30 22 40 29 17 10 17
13 4 22 -21 15 -24 14 -48 -19z m68 -69 c0 -13 -9 -18 -53 -26 -30 -6 -37 -4
-37 8 0 9 10 18 23 20 41 8 67 7 67 -2z"/>
<path d="M167 4412 c5 -47 4 -51 -17 -54 -13 -1 -25 -9 -28 -17 -3 -10 2 -12
22 -7 23 6 26 3 26 -19 0 -18 -11 -32 -40 -51 -22 -15 -40 -31 -40 -36 0 -19
30 -18 50 2 12 12 24 20 26 17 9 -9 -10 -67 -22 -67 -18 0 -17 -10 1 -34 8
-11 21 -16 30 -13 11 5 15 22 15 75 0 50 4 73 15 82 8 7 15 17 15 22 0 6 -7 8
-15 4 -9 -3 -15 0 -15 9 0 7 9 17 20 20 25 8 26 25 2 25 -15 0 -19 8 -18 42 1
32 -3 43 -16 46 -15 3 -16 -3 -11 -46z"/>
<path d="M292 3990 c-13 -16 -28 -30 -36 -30 -8 0 -13 -16 -14 -48 -1 -42 -12
-85 -37 -144 -4 -11 -3 -18 4 -18 10 0 42 59 54 101 4 11 22 18 58 23 54 7 78
25 79 60 0 17 -6 18 -62 13 -60 -5 -62 -5 -42 11 12 9 30 22 40 29 17 10 17
13 4 22 -21 15 -24 14 -48 -19z m68 -69 c0 -13 -9 -18 -53 -26 -30 -6 -37 -4
-37 8 0 9 10 18 23 20 41 8 67 7 67 -2z"/>
<path d="M167 3962 c5 -47 4 -51 -17 -54 -13 -1 -25 -9 -28 -17 -3 -10 2 -12
22 -7 23 6 26 3 26 -19 0 -18 -11 -32 -40 -51 -22 -15 -40 -31 -40 -36 0 -19
30 -18 50 2 12 12 24 20 26 17 9 -9 -10 -67 -22 -67 -18 0 -17 -10 1 -34 8
-11 21 -16 30 -13 11 5 15 22 15 75 0 50 4 73 15 82 8 7 15 17 15 22 0 6 -7 8
-15 4 -9 -3 -15 0 -15 9 0 7 9 17 20 20 25 8 26 25 2 25 -15 0 -19 8 -18 42 1
32 -3 43 -16 46 -15 3 -16 -3 -11 -46z"/>
<path d="M270 3840 c0 -5 7 -10 15 -10 11 0 15 -12 15 -44 0 -54 -8 -76 -26
-76 -22 0 -17 -18 7 -25 31 -10 36 2 41 88 l5 77 -29 0 c-15 0 -28 -4 -28 -10z"/>
<path d="M292 3540 c-13 -16 -28 -30 -36 -30 -8 0 -13 -16 -14 -48 -1 -42 -12
-85 -37 -144 -12 -28 14 -21 27 7 12 26 23 31 33 15 9 -15 25 -12 25 5 0 7 -7
18 -16 23 -9 5 -14 17 -12 28 2 14 16 21 58 28 56 8 79 26 80 60 0 17 -6 18
-62 13 -60 -5 -62 -5 -42 11 12 9 30 22 40 29 17 10 17 13 4 22 -21 15 -24 14
-48 -19z m68 -69 c0 -13 -9 -18 -53 -26 -30 -6 -37 -4 -37 8 0 9 10 18 23 20
41 8 67 7 67 -2z"/>
<path d="M167 3512 c5 -47 4 -51 -17 -54 -13 -1 -25 -9 -28 -17 -3 -10 2 -12
22 -7 23 6 26 3 26 -19 0 -18 -11 -32 -40 -51 -22 -15 -40 -31 -40 -36 0 -19
30 -18 50 2 12 12 24 20 26 17 9 -9 -10 -67 -22 -67 -18 0 -17 -10 1 -34 8
-11 21 -16 30 -13 11 5 15 22 15 75 0 50 4 73 15 82 8 7 15 17 15 22 0 6 -7 8
-15 4 -9 -3 -15 0 -15 9 0 7 9 17 20 20 25 8 26 25 2 25 -15 0 -19 8 -18 42 1
32 -3 43 -16 46 -15 3 -16 -3 -11 -46z"/>
<path d="M270 3390 c0 -5 7 -10 15 -10 11 0 15 -12 15 -44 0 -54 -8 -76 -26
-76 -22 0 -17 -18 7 -25 31 -10 36 2 41 88 l5 77 -29 0 c-15 0 -28 -4 -28 -10z"/>
<path d="M292 3090 c-13 -16 -28 -30 -36 -30 -8 0 -13 -16 -14 -48 -1 -42 -12
-85 -37 -144 -12 -28 14 -21 27 7 12 26 23 31 33 15 9 -15 25 -12 25 5 0 7 -7
18 -16 23 -9 5 -14 17 -12 28 2 14 16 21 58 28 56 8 79 26 80 60 0 17 -6 18
-62 13 -60 -5 -62 -5 -42 11 12 9 30 22 40 29 17 10 17 13 4 22 -21 15 -24 14
-48 -19z m68 -69 c0 -13 -9 -18 -53 -26 -30 -6 -37 -4 -37 8 0 9 10 18 23 20
41 8 67 7 67 -2z"/>
<path d="M167 3062 c5 -47 4 -51 -17 -54 -13 -1 -25 -9 -28 -17 -3 -10 2 -12
22 -7 23 6 26 3 26 -19 0 -18 -11 -32 -40 -51 -22 -15 -40 -31 -40 -36 0 -19
30 -18 50 2 12 12 24 20 26 17 9 -9 -10 -67 -22 -67 -18 0 -17 -10 1 -34 8
-11 21 -16 30 -13 11 5 15 22 15 75 0 50 4 73 15 82 8 7 15 17 15 22 0 6 -7 8
-15 4 -9 -3 -15 0 -15 9 0 7 9 17 20 20 25 8 26 25 2 25 -15 0 -19 8 -18 42 1
32 -3 43 -16 46 -15 3 -16 -3 -11 -46z"/>
<path d="M270 2940 c0 -5 7 -10 15 -10 11 0 15 -12 15 -44 0 -54 -8 -76 -26
-76 -22 0 -17 -18 7 -25 31 -10 36 2 41 88 l5 77 -29 0 c-15 0 -28 -4 -28 -10z"/>
<path d="M253 2858 c-22 -10 -32 -38 -15 -38 13 0 52 30 52 41 0 11 -9 11 -37
-3z"/>
<path d="M292 2640 c-13 -16 -28 -30 -36 -30 -8 0 -13 -16 -14 -48 -1 -42 -12
-85 -37 -144 -12 -28 14 -21 27 7 12 26 23 31 33 15 9 -15 25 -12 25 5 0 7 -7
18 -16 23 -9 5 -14 17 -12 28 2 14 16 21 58 28 56 8 79 26 80 60 0 17 -6 18
-62 13 -60 -5 -62 -5 -42 11 12 9 30 22 40 29 17 10 17 13 4 22 -21 15 -24 14
-48 -19z m68 -69 c0 -13 -9 -18 -53 -26 -30 -6 -37 -4 -37 8 0 9 10 18 23 20
41 8 67 7 67 -2z"/>
<path d="M167 2612 c5 -47 4 -51 -17 -54 -13 -1 -25 -9 -28 -17 -3 -10 2 -12
22 -7 23 6 26 3 26 -19 0 -18 -11 -32 -40 -51 -22 -15 -40 -31 -40 -36 0 -19
30 -18 50 2 12 12 24 20 26 17 9 -9 -10 -67 -22 -67 -18 0 -17 -10 1 -34 8
-11 21 -16 30 -13 11 5 15 22 15 75 0 50 4 73 15 82 8 7 15 17 15 22 0 6 -7 8
-15 4 -9 -3 -15 0 -15 9 0 7 9 17 20 20 25 8 26 25 2 25 -15 0 -19 8 -18 42 1
32 -3 43 -16 46 -15 3 -16 -3 -11 -46z"/>
<path d="M358 2503 c-29 -7 -21 -24 10 -21 17 2 27 -2 26 -9 -1 -7 -2 -35 -2
-63 -2 -38 -6 -50 -18 -50 -19 0 -14 -20 9 -34 27 -17 37 9 37 102 0 88 -2 91
-62 75z"/>
<path d="M270 2490 c0 -5 7 -10 15 -10 11 0 15 -12 15 -44 0 -54 -8 -76 -26
-76 -22 0 -17 -18 7 -25 31 -10 36 2 41 88 l5 77 -29 0 c-15 0 -28 -4 -28 -10z"/>
<path d="M253 2408 c-22 -10 -32 -38 -15 -38 13 0 52 30 52 41 0 11 -9 11 -37
-3z"/>
<path d="M292 2190 c-13 -16 -28 -30 -36 -30 -8 0 -13 -16 -14 -48 -1 -42 -12
-85 -37 -144 -12 -28 14 -21 27 7 12 26 23 31 33 15 9 -15 25 -12 25 5 0 7 -7
18 -16 23 -9 5 -14 17 -12 28 2 14 16 21 58 28 56 8 79 26 80 60 0 17 -6 18
-62 13 -60 -5 -62 -5 -42 11 12 9 30 22 40 29 17 10 17 13 4 22 -21 15 -24 14
-48 -19z m68 -69 c0 -13 -9 -18 -53 -26 -30 -6 -37 -4 -37 8 0 9 10 18 23 20
41 8 67 7 67 -2z"/>
<path d="M167 2162 c5 -47 4 -51 -17 -54 -13 -1 -25 -9 -28 -17 -3 -10 2 -12
22 -7 23 6 26 3 26 -19 0 -18 -11 -32 -40 -51 -22 -15 -40 -31 -40 -36 0 -19
30 -18 50 2 12 12 24 20 26 17 9 -9 -10 -67 -22 -67 -18 0 -17 -10 1 -34 8
-11 21 -16 30 -13 11 5 15 22 15 75 0 50 4 73 15 82 8 7 15 17 15 22 0 6 -7 8
-15 4 -9 -3 -15 0 -15 9 0 7 9 17 20 20 25 8 26 25 2 25 -15 0 -19 8 -18 42 1
32 -3 43 -16 46 -15 3 -16 -3 -11 -46z"/>
<path d="M358 2053 c-29 -7 -21 -24 10 -21 17 2 27 -2 26 -9 -1 -7 -2 -35 -2
-63 -2 -38 -6 -50 -18 -50 -19 0 -14 -20 9 -34 27 -17 37 9 37 102 0 88 -2 91
-62 75z"/>
<path d="M270 2040 c0 -5 7 -10 15 -10 11 0 15 -12 15 -44 0 -54 -8 -76 -26
-76 -22 0 -17 -18 7 -25 31 -10 36 2 41 88 l5 77 -29 0 c-15 0 -28 -4 -28 -10z"/>
<path d="M330 2011 c0 -12 29 -35 36 -28 11 10 -5 37 -21 37 -8 0 -15 -4 -15
-9z"/>
<path d="M253 1958 c-22 -10 -32 -38 -15 -38 13 0 52 30 52 41 0 11 -9 11 -37
-3z"/>
<path d="M292 1740 c-13 -16 -28 -30 -36 -30 -8 0 -13 -16 -14 -48 -1 -42 -12
-85 -37 -144 -12 -28 14 -21 27 7 12 26 23 31 33 15 9 -15 25 -12 25 5 0 7 -7
18 -16 23 -9 5 -14 17 -12 28 2 14 16 21 58 28 56 8 79 26 80 60 0 17 -6 18
-62 13 -60 -5 -62 -5 -42 11 12 9 30 22 40 29 17 10 17 13 4 22 -21 15 -24 14
-48 -19z m68 -69 c0 -13 -9 -18 -53 -26 -30 -6 -37 -4 -37 8 0 9 10 18 23 20
41 8 67 7 67 -2z"/>
<path d="M167 1712 c5 -47 4 -51 -17 -54 -13 -1 -25 -9 -28 -17 -3 -10 2 -12
22 -7 23 6 26 3 26 -19 0 -18 -11 -32 -40 -51 -22 -15 -40 -31 -40 -36 0 -19
30 -18 50 2 12 12 24 20 26 17 9 -9 -10 -67 -22 -67 -18 0 -17 -10 1 -34 8
-11 21 -16 30 -13 11 5 15 22 15 75 0 50 4 73 15 82 8 7 15 17 15 22 0 6 -7 8
-15 4 -9 -3 -15 0 -15 9 0 7 9 17 20 20 25 8 26 25 2 25 -15 0 -19 8 -18 42 1
32 -3 43 -16 46 -15 3 -16 -3 -11 -46z"/>
<path d="M358 1603 c-29 -7 -21 -24 10 -21 17 2 27 -2 26 -9 -1 -7 -2 -35 -2
-63 -2 -38 -6 -50 -18 -50 -19 0 -14 -20 9 -34 27 -17 37 9 37 102 0 88 -2 91
-62 75z"/>
<path d="M270 1590 c0 -5 7 -10 15 -10 11 0 15 -12 15 -44 0 -54 -8 -76 -26
-76 -22 0 -17 -18 7 -25 31 -10 36 2 41 88 l5 77 -29 0 c-15 0 -28 -4 -28 -10z"/>
<path d="M330 1561 c0 -12 29 -35 36 -28 11 10 -5 37 -21 37 -8 0 -15 -4 -15
-9z"/>
<path d="M253 1508 c-22 -10 -32 -38 -15 -38 13 0 52 30 52 41 0 11 -9 11 -37
-3z"/>
<path d="M343 1513 c-18 -7 -16 -33 2 -33 8 0 15 2 15 4 0 2 3 11 6 20 6 16 0
19 -23 9z"/>
</g>
</svg>
