<?xml version="1.0" standalone="no"?>
<!DOCTYPE svg PUBLIC "-//W3C//DTD SVG 20010904//EN"
 "http://www.w3.org/TR/2001/REC-SVG-20010904/DTD/svg10.dtd">
<svg version="1.0" xmlns="http://www.w3.org/2000/svg"
 width="50.000000pt" height="725.000000pt" viewBox="0 0 50.000000 725.000000"
 preserveAspectRatio="xMidYMid meet">
<metadata>
Created by potrace 1.16, written by Peter Selinger 2001-2019
</metadata>
<g transform="translate(0.000000,725.000000) scale(0.100000,-0.100000)"
fill="#000000" stroke="none">
<path d="M138 7053 c-40 -6 -35 -23 6 -23 40 0 66 8 66 21 0 9 -21 10 -72 2z"/>
<path d="M147 6651 c5 -47 4 -51 -16 -51 -11 0 -21 -4 -21 -10 0 -5 9 -10 20
-10 22 0 24 -12 14 -97 -5 -35 -11 -53 -20 -53 -20 0 -17 -14 5 -34 33 -30 41
-11 41 89 0 85 2 94 20 100 26 8 26 25 1 25 -17 0 -19 6 -18 42 2 33 -2 43
-15 46 -15 3 -16 -3 -11 -47z"/>
<path d="M147 6201 c5 -47 4 -51 -16 -51 -11 0 -21 -4 -21 -10 0 -5 9 -10 20
-10 15 0 20 -7 20 -26 0 -20 -8 -29 -40 -42 -22 -9 -40 -23 -40 -29 0 -16 24
-17 51 -3 17 10 19 7 19 -20 0 -20 -5 -30 -15 -30 -21 0 -19 -13 4 -34 30 -27
41 -11 41 59 0 47 4 64 15 69 8 3 15 10 15 17 0 6 -7 9 -15 5 -10 -3 -15 1
-15 14 0 10 9 22 20 25 26 8 26 25 1 25 -17 0 -19 6 -18 42 2 33 -2 43 -15 46
-15 3 -16 -3 -11 -47z"/>
<path d="M270 5798 c0 -6 -11 -30 -25 -53 -20 -35 -28 -42 -49 -38 -22 5 -24
10 -23 46 2 32 -2 42 -15 45 -15 3 -16 -3 -11 -47 5 -47 4 -51 -16 -51 -11 0
-21 -4 -21 -10 0 -5 9 -10 20 -10 15 0 20 -7 20 -26 0 -20 -8 -29 -40 -42 -22
-9 -40 -23 -40 -29 0 -16 24 -17 51 -3 17 10 19 7 19 -20 0 -20 -5 -30 -15
-30 -21 0 -19 -13 4 -34 30 -27 41 -11 41 59 0 47 4 64 15 69 8 3 15 10 15 17
0 6 -7 9 -15 5 -10 -3 -15 1 -15 13 0 10 7 21 14 24 10 4 13 1 9 -9 -17 -46
63 28 91 83 20 40 20 53 1 53 -8 0 -15 -5 -15 -12z"/>
<path d="M270 5348 c0 -6 -11 -30 -25 -53 -20 -35 -28 -42 -49 -38 -22 5 -24
10 -23 46 2 32 -2 42 -15 45 -15 3 -16 -3 -11 -47 5 -47 4 -51 -16 -51 -11 0
-21 -4 -21 -10 0 -5 9 -10 20 -10 15 0 20 -7 20 -26 0 -20 -8 -29 -40 -42 -22
-9 -40 -23 -40 -29 0 -16 24 -17 51 -3 17 10 19 7 19 -20 0 -20 -5 -30 -15
-30 -21 0 -19 -13 4 -34 30 -27 41 -11 41 59 0 47 4 64 15 69 8 3 15 10 15 17
0 6 -7 9 -15 5 -10 -3 -15 1 -15 13 0 10 7 21 14 24 10 4 13 1 9 -9 -10 -26
14 -14 50 25 19 21 37 44 40 52 4 10 19 -1 49 -34 33 -37 50 -48 68 -45 34 5
35 23 3 37 -32 14 -103 76 -103 91 0 6 -7 10 -15 10 -8 0 -15 -5 -15 -12z"/>
<path d="M270 4898 c0 -6 -11 -30 -25 -53 -20 -35 -28 -42 -49 -38 -22 5 -24
10 -23 46 2 32 -2 42 -15 45 -15 3 -16 -3 -11 -47 5 -47 4 -51 -16 -51 -11 0
-21 -4 -21 -10 0 -5 9 -10 20 -10 15 0 20 -7 20 -26 0 -20 -8 -29 -40 -42 -22
-9 -40 -23 -40 -29 0 -16 24 -17 51 -3 17 10 19 7 19 -20 0 -20 -5 -30 -15
-30 -21 0 -19 -13 4 -34 30 -27 41 -11 41 59 0 47 4 64 15 69 8 3 15 10 15 17
0 6 -7 9 -15 5 -10 -3 -15 1 -15 13 0 10 7 21 14 24 10 4 13 1 9 -9 -10 -26
14 -14 50 25 19 21 37 44 40 52 4 10 19 -1 49 -34 33 -37 50 -48 68 -45 34 5
35 23 3 37 -32 14 -103 76 -103 91 0 6 -7 10 -15 10 -8 0 -15 -5 -15 -12z"/>
<path d="M270 4810 c0 -5 14 -10 30 -10 17 0 30 5 30 10 0 6 -13 10 -30 10
-16 0 -30 -4 -30 -10z"/>
<path d="M270 4448 c0 -6 -11 -30 -25 -53 -20 -35 -28 -42 -49 -38 -22 5 -24
10 -23 46 2 32 -2 42 -15 45 -15 3 -16 -3 -11 -47 5 -47 4 -51 -16 -51 -11 0
-21 -4 -21 -10 0 -5 9 -10 20 -10 15 0 20 -7 20 -26 0 -20 -8 -29 -40 -42 -22
-9 -40 -23 -40 -29 0 -16 24 -17 51 -3 17 10 19 7 19 -20 0 -20 -5 -30 -15
-30 -21 0 -19 -13 4 -34 30 -27 41 -11 41 59 0 47 4 64 15 69 8 3 15 10 15 17
0 6 -7 9 -15 5 -10 -3 -15 1 -15 13 0 10 7 21 14 24 10 4 13 1 9 -9 -10 -26
14 -14 50 25 19 21 37 44 40 52 4 10 19 -1 49 -34 33 -37 50 -48 68 -45 34 5
35 23 3 37 -32 14 -103 76 -103 91 0 6 -7 10 -15 10 -8 0 -15 -5 -15 -12z"/>
<path d="M270 4360 c0 -5 14 -10 30 -10 17 0 30 5 30 10 0 6 -13 10 -30 10
-16 0 -30 -4 -30 -10z"/>
<path d="M298 4333 c-10 -2 -18 -9 -18 -15 0 -6 9 -8 21 -5 20 5 21 3 14 -40
-9 -59 13 -55 33 6 12 37 12 45 1 52 -15 9 -23 10 -51 2z"/>
<path d="M270 3998 c0 -6 -11 -30 -25 -53 -20 -35 -28 -42 -49 -38 -22 5 -24
10 -23 46 2 32 -2 42 -15 45 -15 3 -16 -3 -11 -47 5 -47 4 -51 -16 -51 -11 0
-21 -4 -21 -10 0 -5 9 -10 20 -10 15 0 20 -7 20 -26 0 -20 -8 -29 -40 -42 -22
-9 -40 -23 -40 -29 0 -16 24 -17 51 -3 17 10 19 7 19 -20 0 -20 -5 -30 -15
-30 -21 0 -19 -13 4 -34 30 -27 41 -11 41 59 0 47 4 64 15 69 8 3 15 10 15 17
0 6 -7 9 -15 5 -10 -3 -15 1 -15 13 0 10 7 21 14 24 10 4 13 1 9 -9 -10 -26
14 -14 50 25 19 21 37 44 40 52 4 10 19 -1 49 -34 33 -37 50 -48 68 -45 34 5
35 23 3 37 -32 14 -103 76 -103 91 0 6 -7 10 -15 10 -8 0 -15 -5 -15 -12z"/>
<path d="M270 3910 c0 -5 14 -10 30 -10 17 0 30 5 30 10 0 6 -13 10 -30 10
-16 0 -30 -4 -30 -10z"/>
<path d="M298 3883 c-10 -2 -18 -9 -18 -15 0 -6 9 -8 20 -5 13 3 20 0 20 -9 0
-9 -12 -14 -35 -14 -19 0 -35 -4 -35 -10 0 -5 14 -10 30 -10 24 0 30 -4 30
-21 0 -34 23 -16 38 30 12 37 12 45 1 52 -15 9 -23 10 -51 2z"/>
<path d="M270 3548 c0 -6 -11 -30 -25 -53 -20 -35 -28 -42 -49 -38 -22 5 -24
10 -23 46 2 32 -2 42 -15 45 -15 3 -16 -3 -11 -47 5 -47 4 -51 -16 -51 -11 0
-21 -4 -21 -10 0 -5 9 -10 20 -10 15 0 20 -7 20 -26 0 -20 -8 -29 -40 -42 -22
-9 -40 -23 -40 -29 0 -16 24 -17 51 -3 17 10 19 7 19 -20 0 -20 -5 -30 -15
-30 -21 0 -19 -13 4 -34 30 -27 41 -11 41 59 0 47 4 64 15 69 8 3 15 10 15 17
0 6 -7 9 -15 5 -10 -3 -15 1 -15 13 0 10 7 21 14 24 10 4 13 1 9 -9 -10 -26
14 -14 50 25 19 21 37 44 40 52 4 10 19 -1 49 -34 33 -37 50 -48 68 -45 34 5
35 23 3 37 -32 14 -103 76 -103 91 0 6 -7 10 -15 10 -8 0 -15 -5 -15 -12z"/>
<path d="M270 3460 c0 -5 14 -10 30 -10 17 0 30 5 30 10 0 6 -13 10 -30 10
-16 0 -30 -4 -30 -10z"/>
<path d="M298 3433 c-10 -2 -18 -9 -18 -15 0 -6 9 -8 20 -5 13 3 20 0 20 -9 0
-9 -12 -14 -35 -14 -19 0 -35 -4 -35 -10 0 -5 15 -10 33 -10 24 0 28 -3 17
-10 -8 -5 -25 -10 -37 -10 -13 0 -23 -5 -23 -10 0 -6 20 -9 47 -7 45 3 47 4
61 46 12 37 12 45 1 52 -15 9 -23 10 -51 2z"/>
<path d="M270 3098 c0 -6 -11 -30 -25 -53 -20 -35 -28 -42 -49 -38 -22 5 -24
10 -23 46 2 32 -2 42 -15 45 -15 3 -16 -3 -11 -47 5 -47 4 -51 -16 -51 -11 0
-21 -4 -21 -10 0 -5 9 -10 20 -10 15 0 20 -7 20 -26 0 -20 -8 -29 -40 -42 -22
-9 -40 -23 -40 -29 0 -16 24 -17 51 -3 17 10 19 7 19 -20 0 -20 -5 -30 -15
-30 -21 0 -19 -13 4 -34 30 -27 41 -11 41 59 0 47 4 64 15 69 8 3 15 10 15 17
0 6 -7 9 -15 5 -10 -3 -15 1 -15 13 0 10 7 21 14 24 10 4 13 1 9 -9 -10 -26
14 -14 50 25 19 21 37 44 40 52 4 10 19 -1 49 -34 33 -37 50 -48 68 -45 34 5
35 23 3 37 -32 14 -103 76 -103 91 0 6 -7 10 -15 10 -8 0 -15 -5 -15 -12z"/>
<path d="M270 3010 c0 -5 14 -10 30 -10 17 0 30 5 30 10 0 6 -13 10 -30 10
-16 0 -30 -4 -30 -10z"/>
<path d="M298 2983 c-10 -2 -18 -9 -18 -15 0 -6 9 -8 20 -5 13 3 20 0 20 -9 0
-23 -57 -18 -63 6 -9 34 -27 22 -27 -18 0 -21 -9 -55 -20 -77 -11 -21 -17 -41
-14 -44 6 -6 40 31 46 49 2 6 23 11 47 13 43 3 45 5 59 46 12 37 12 45 1 52
-15 9 -23 10 -51 2z m2 -73 c-20 -13 -50 -13 -50 0 0 6 15 10 33 10 24 0 28
-3 17 -10z"/>
<path d="M270 2648 c0 -6 -11 -30 -25 -53 -20 -35 -28 -42 -49 -38 -22 5 -24
10 -23 46 2 32 -2 42 -15 45 -15 3 -16 -3 -11 -47 5 -47 4 -51 -16 -51 -11 0
-21 -4 -21 -10 0 -5 9 -10 20 -10 15 0 20 -7 20 -26 0 -20 -8 -29 -40 -42 -22
-9 -40 -23 -40 -29 0 -16 24 -17 51 -3 17 10 19 7 19 -20 0 -20 -5 -30 -15
-30 -21 0 -19 -13 4 -34 30 -27 41 -11 41 59 0 47 4 64 15 69 8 3 15 10 15 17
0 6 -7 9 -15 5 -10 -3 -15 1 -15 13 0 10 7 21 14 24 10 4 13 1 9 -9 -10 -26
14 -14 50 25 19 21 37 44 40 52 4 10 19 -1 49 -34 33 -37 50 -48 68 -45 34 5
35 23 3 37 -32 14 -103 76 -103 91 0 6 -7 10 -15 10 -8 0 -15 -5 -15 -12z"/>
<path d="M270 2560 c0 -5 14 -10 30 -10 17 0 30 5 30 10 0 6 -13 10 -30 10
-16 0 -30 -4 -30 -10z"/>
<path d="M298 2533 c-10 -2 -18 -9 -18 -15 0 -6 9 -8 20 -5 13 3 20 0 20 -9 0
-23 -57 -18 -63 6 -9 34 -27 22 -27 -18 0 -21 -9 -55 -20 -77 -21 -42 -20 -55
5 -35 13 11 16 8 21 -19 4 -17 10 -31 15 -31 13 0 11 47 -2 72 -14 25 -11 28
41 31 42 3 44 5 58 46 12 37 12 45 1 52 -15 9 -23 10 -51 2z m2 -73 c-20 -13
-50 -13 -50 0 0 6 15 10 33 10 24 0 28 -3 17 -10z"/>
<path d="M270 2198 c0 -6 -11 -30 -25 -53 -20 -35 -28 -42 -49 -38 -22 5 -24
10 -23 46 2 32 -2 42 -15 45 -15 3 -16 -3 -11 -47 5 -47 4 -51 -16 -51 -11 0
-21 -4 -21 -10 0 -5 9 -10 20 -10 15 0 20 -7 20 -26 0 -20 -8 -29 -40 -42 -22
-9 -40 -23 -40 -29 0 -16 24 -17 51 -3 17 10 19 7 19 -20 0 -20 -5 -30 -15
-30 -21 0 -19 -13 4 -34 30 -27 41 -11 41 59 0 47 4 64 15 69 8 3 15 10 15 17
0 6 -7 9 -15 5 -10 -3 -15 1 -15 13 0 10 7 21 14 24 10 4 13 1 9 -9 -10 -26
14 -14 50 25 19 21 37 44 40 52 4 10 19 -1 49 -34 33 -37 50 -48 68 -45 34 5
35 23 3 37 -32 14 -103 76 -103 91 0 6 -7 10 -15 10 -8 0 -15 -5 -15 -12z"/>
<path d="M270 2110 c0 -5 14 -10 30 -10 17 0 30 5 30 10 0 6 -13 10 -30 10
-16 0 -30 -4 -30 -10z"/>
<path d="M298 2083 c-10 -2 -18 -9 -18 -15 0 -6 9 -8 20 -5 13 3 20 0 20 -9 0
-23 -57 -18 -63 6 -9 34 -27 22 -27 -18 0 -21 -9 -55 -20 -77 -21 -42 -20 -55
5 -35 13 11 16 8 21 -19 4 -17 10 -31 15 -31 14 0 11 78 -3 83 -22 8 -3 17 42
20 42 3 44 5 58 46 12 37 12 45 1 52 -15 9 -23 10 -51 2z m2 -73 c-20 -13 -50
-13 -50 0 0 6 15 10 33 10 24 0 28 -3 17 -10z"/>
<path d="M280 1960 c0 -5 11 -10 25 -10 20 0 25 -5 25 -25 0 -14 5 -25 10 -25
13 0 32 48 24 61 -7 12 -84 12 -84 -1z"/>
<path d="M270 1748 c0 -6 -11 -30 -25 -53 -20 -35 -28 -42 -49 -38 -22 5 -24
10 -23 46 2 32 -2 42 -15 45 -15 3 -16 -3 -11 -47 5 -47 4 -51 -16 -51 -11 0
-21 -4 -21 -10 0 -5 9 -10 20 -10 15 0 20 -7 20 -26 0 -20 -8 -29 -40 -42 -22
-9 -40 -23 -40 -29 0 -16 24 -17 51 -3 17 10 19 7 19 -20 0 -20 -5 -30 -15
-30 -21 0 -19 -13 4 -34 30 -27 41 -11 41 59 0 47 4 64 15 69 8 3 15 10 15 17
0 6 -7 9 -15 5 -10 -3 -15 1 -15 13 0 10 7 21 14 24 10 4 13 1 9 -9 -10 -26
14 -14 50 25 19 21 37 44 40 52 4 10 19 -1 49 -34 33 -37 50 -48 68 -45 34 5
35 23 3 37 -32 14 -103 76 -103 91 0 6 -7 10 -15 10 -8 0 -15 -5 -15 -12z"/>
<path d="M270 1660 c0 -5 14 -10 30 -10 17 0 30 5 30 10 0 6 -13 10 -30 10
-16 0 -30 -4 -30 -10z"/>
<path d="M298 1633 c-10 -2 -18 -9 -18 -15 0 -6 9 -8 20 -5 13 3 20 0 20 -9 0
-23 -57 -18 -63 6 -9 34 -27 22 -27 -18 0 -21 -9 -55 -20 -77 -21 -42 -20 -55
5 -35 13 11 16 8 21 -18 7 -33 8 -33 92 -16 23 5 47 48 36 65 -7 12 -84 12
-84 -1 0 -5 11 -10 25 -10 28 0 34 -24 9 -34 -34 -13 -54 -7 -54 18 0 13 -6
26 -12 29 -22 8 -3 17 42 20 42 3 44 5 58 46 12 37 12 45 1 52 -15 9 -23 10
-51 2z m2 -73 c-20 -13 -50 -13 -50 0 0 6 15 10 33 10 24 0 28 -3 17 -10z"/>
</g>
</svg>
