<?xml version="1.0" standalone="no"?>
<!DOCTYPE svg PUBLIC "-//W3C//DTD SVG 20010904//EN"
 "http://www.w3.org/TR/2001/REC-SVG-20010904/DTD/svg10.dtd">
<svg version="1.0" xmlns="http://www.w3.org/2000/svg"
 width="50.000000pt" height="725.000000pt" viewBox="0 0 50.000000 725.000000"
 preserveAspectRatio="xMidYMid meet">
<metadata>
Created by potrace 1.16, written by Peter Selinger 2001-2019
</metadata>
<g transform="translate(0.000000,725.000000) scale(0.100000,-0.100000)"
fill="#000000" stroke="none">
<path d="M138 7063 c-16 -2 -28 -9 -28 -14 0 -10 43 -12 78 -3 12 4 22 10 22
15 0 9 -22 10 -72 2z"/>
<path d="M156 6656 c7 -45 6 -46 -20 -46 -14 0 -26 -4 -26 -10 0 -5 12 -10 26
-10 22 0 25 -3 20 -22 -3 -13 -6 -47 -6 -75 0 -40 -4 -53 -15 -53 -19 0 -19
-9 0 -34 12 -16 17 -17 30 -6 11 9 15 34 15 102 0 70 3 90 15 94 19 8 19 24 0
24 -10 0 -14 10 -12 37 1 28 -2 38 -15 41 -16 3 -17 -2 -12 -42z"/>
<path d="M156 6206 c7 -45 6 -46 -20 -46 -14 0 -26 -4 -26 -10 0 -5 11 -10 25
-10 45 0 28 -40 -35 -82 -20 -13 -22 -19 -13 -29 10 -10 16 -9 31 4 26 24 32
21 32 -13 0 -20 -5 -30 -15 -30 -19 0 -19 -9 0 -35 13 -17 17 -17 30 -5 10 11
15 42 16 103 2 63 6 90 16 94 18 7 17 23 -2 23 -10 0 -14 10 -12 37 1 28 -2
38 -15 41 -16 3 -17 -2 -12 -42z"/>
<path d="M284 5804 c3 -9 6 -27 6 -40 0 -15 6 -24 15 -24 11 0 15 11 15 40 0
34 -3 40 -21 40 -15 0 -19 -4 -15 -16z"/>
<path d="M156 5756 c7 -45 6 -46 -20 -46 -14 0 -26 -4 -26 -10 0 -5 11 -10 25
-10 45 0 28 -40 -35 -82 -20 -13 -22 -19 -13 -29 10 -10 16 -9 31 4 26 24 32
21 32 -13 0 -20 -5 -30 -15 -30 -19 0 -19 -9 0 -35 13 -17 17 -17 30 -5 10 11
15 42 16 103 2 63 6 90 16 94 18 7 17 23 -2 23 -10 0 -14 10 -12 37 1 28 -2
38 -15 41 -16 3 -17 -2 -12 -42z"/>
<path d="M284 5354 c3 -9 6 -27 6 -40 0 -15 6 -24 15 -24 11 0 15 11 15 40 0
34 -3 40 -21 40 -15 0 -19 -4 -15 -16z"/>
<path d="M156 5306 c7 -45 6 -46 -20 -46 -14 0 -26 -4 -26 -10 0 -5 11 -10 25
-10 45 0 28 -40 -35 -82 -20 -13 -22 -19 -13 -29 10 -10 16 -9 31 4 26 24 32
21 32 -13 0 -20 -5 -30 -15 -30 -19 0 -19 -9 0 -35 13 -17 17 -17 30 -5 10 11
15 42 16 103 2 63 6 90 16 94 18 7 17 23 -2 23 -10 0 -14 10 -12 37 1 28 -2
38 -15 41 -16 3 -17 -2 -12 -42z"/>
<path d="M252 5318 c6 -18 28 -21 28 -4 0 9 -7 16 -16 16 -9 0 -14 -5 -12 -12z"/>
<path d="M284 4904 c3 -9 6 -27 6 -40 0 -15 6 -24 15 -24 11 0 15 11 15 40 0
34 -3 40 -21 40 -15 0 -19 -4 -15 -16z"/>
<path d="M156 4856 c7 -45 6 -46 -20 -46 -14 0 -26 -4 -26 -10 0 -5 11 -10 25
-10 45 0 28 -40 -35 -82 -20 -13 -22 -19 -13 -29 10 -10 16 -9 31 4 26 24 32
21 32 -13 0 -20 -5 -30 -15 -30 -19 0 -19 -9 0 -35 13 -17 17 -17 30 -5 10 11
15 42 16 103 2 63 6 90 16 94 18 7 17 23 -2 23 -10 0 -14 10 -12 37 1 28 -2
38 -15 41 -16 3 -17 -2 -12 -42z"/>
<path d="M350 4885 c-7 -9 -10 -18 -7 -21 10 -10 47 7 47 22 0 19 -24 18 -40
-1z"/>
<path d="M252 4868 c6 -18 28 -21 28 -4 0 9 -7 16 -16 16 -9 0 -14 -5 -12 -12z"/>
<path d="M284 4454 c3 -9 6 -27 6 -40 0 -15 6 -24 15 -24 11 0 15 11 15 40 0
34 -3 40 -21 40 -15 0 -19 -4 -15 -16z"/>
<path d="M156 4406 c7 -45 6 -46 -20 -46 -14 0 -26 -4 -26 -10 0 -5 11 -10 25
-10 45 0 28 -40 -35 -82 -20 -13 -22 -19 -13 -29 10 -10 16 -9 31 4 26 24 32
21 32 -13 0 -20 -5 -30 -15 -30 -19 0 -19 -9 0 -35 13 -17 17 -17 30 -5 10 11
15 42 16 103 1 48 7 91 13 94 5 4 12 1 14 -5 7 -22 30 -13 36 14 8 32 -1 45
-17 24 -7 -9 -20 -14 -29 -12 -13 2 -17 12 -15 40 1 27 -2 37 -15 40 -16 3
-17 -2 -12 -42z"/>
<path d="M350 4435 c-7 -9 -10 -18 -7 -21 10 -10 47 7 47 22 0 19 -24 18 -40
-1z"/>
<path d="M252 4418 c6 -18 28 -21 28 -4 0 9 -7 16 -16 16 -9 0 -14 -5 -12 -12z"/>
<path d="M287 3980 c6 -39 5 -40 -26 -40 -18 0 -34 -6 -37 -14 -3 -8 -13 -12
-24 -9 -15 4 -19 13 -17 41 1 27 -2 37 -15 40 -16 3 -17 -2 -12 -42 7 -45 6
-46 -20 -46 -14 0 -26 -4 -26 -10 0 -5 11 -10 25 -10 45 0 28 -40 -35 -82 -20
-13 -22 -19 -13 -29 10 -10 16 -9 31 4 26 24 32 21 32 -13 0 -20 -5 -30 -15
-30 -19 0 -19 -9 0 -35 13 -17 17 -17 30 -5 10 11 15 42 16 103 1 48 7 91 13
94 5 4 12 1 14 -5 6 -19 29 -14 34 6 5 19 50 32 115 32 25 0 31 -4 27 -15 -7
-18 5 -19 29 -1 38 29 13 48 -52 39 l-41 -6 0 37 c0 29 -4 36 -19 36 -16 0
-18 -5 -14 -40z"/>
<path d="M350 3985 c-7 -9 -10 -18 -7 -21 10 -10 47 7 47 22 0 19 -24 18 -40
-1z"/>
<path d="M252 3968 c6 -18 28 -21 28 -4 0 9 -7 16 -16 16 -9 0 -14 -5 -12 -12z"/>
<path d="M287 3530 c6 -39 5 -40 -26 -40 -18 0 -34 -6 -37 -14 -3 -8 -13 -12
-24 -9 -15 4 -19 13 -17 41 1 27 -2 37 -15 40 -16 3 -17 -2 -12 -42 7 -45 6
-46 -20 -46 -14 0 -26 -4 -26 -10 0 -5 11 -10 25 -10 45 0 28 -40 -35 -82 -20
-13 -22 -19 -13 -29 10 -10 16 -9 31 4 26 24 32 21 32 -13 0 -20 -5 -30 -15
-30 -19 0 -19 -9 0 -35 13 -17 17 -17 30 -5 10 11 15 42 16 103 1 48 7 91 13
94 5 4 12 1 14 -5 6 -19 29 -14 34 6 5 19 50 32 115 32 25 0 31 -4 27 -15 -7
-18 5 -19 29 -1 38 29 13 48 -52 39 l-41 -6 0 37 c0 29 -4 36 -19 36 -16 0
-18 -5 -14 -40z"/>
<path d="M350 3535 c-7 -9 -10 -18 -7 -21 10 -10 47 7 47 22 0 19 -24 18 -40
-1z"/>
<path d="M252 3518 c6 -18 28 -21 28 -4 0 9 -7 16 -16 16 -9 0 -14 -5 -12 -12z"/>
<path d="M264 3444 c3 -9 6 -22 6 -30 0 -8 5 -14 10 -14 6 0 10 14 10 30 0 21
-5 30 -16 30 -11 0 -14 -5 -10 -16z"/>
<path d="M287 3080 c6 -39 5 -40 -26 -40 -18 0 -34 -6 -37 -14 -3 -8 -13 -12
-24 -9 -15 4 -19 13 -17 41 1 27 -2 37 -15 40 -16 3 -17 -2 -12 -42 7 -45 6
-46 -20 -46 -14 0 -26 -4 -26 -10 0 -5 11 -10 25 -10 45 0 28 -40 -35 -82 -20
-13 -22 -19 -13 -29 10 -10 16 -9 31 4 26 24 32 21 32 -13 0 -20 -5 -30 -15
-30 -19 0 -19 -9 0 -35 13 -17 17 -17 30 -5 10 11 15 42 16 103 1 48 7 91 13
94 5 4 12 1 14 -5 6 -19 29 -14 34 6 5 19 50 32 115 32 25 0 31 -4 27 -15 -7
-18 5 -19 29 -1 38 29 13 48 -52 39 l-41 -6 0 37 c0 29 -4 36 -19 36 -16 0
-18 -5 -14 -40z"/>
<path d="M350 3085 c-7 -9 -10 -18 -7 -21 10 -10 47 7 47 22 0 19 -24 18 -40
-1z"/>
<path d="M252 3068 c6 -18 28 -21 28 -4 0 9 -7 16 -16 16 -9 0 -14 -5 -12 -12z"/>
<path d="M324 3004 c3 -9 6 -20 6 -25 0 -5 7 -9 15 -9 9 0 15 9 15 25 0 19 -5
25 -21 25 -15 0 -19 -4 -15 -16z"/>
<path d="M266 2983 c4 -16 8 -30 10 -32 6 -7 11 2 18 32 5 23 3 27 -14 27 -17
0 -19 -4 -14 -27z"/>
<path d="M287 2630 c6 -39 5 -40 -26 -40 -18 0 -34 -6 -37 -14 -3 -8 -13 -12
-24 -9 -15 4 -19 13 -17 41 1 27 -2 37 -15 40 -16 3 -17 -2 -12 -42 7 -45 6
-46 -20 -46 -14 0 -26 -4 -26 -10 0 -5 11 -10 25 -10 45 0 28 -40 -35 -82 -20
-13 -22 -19 -13 -29 10 -10 16 -9 31 4 26 24 32 21 32 -13 0 -20 -5 -30 -15
-30 -19 0 -19 -9 0 -35 13 -17 17 -17 30 -5 10 11 15 42 16 103 1 48 7 91 13
94 5 4 12 1 14 -5 6 -19 29 -14 34 6 5 19 50 32 115 32 25 0 31 -4 27 -15 -7
-18 5 -19 29 -1 38 29 13 48 -52 39 l-41 -6 0 37 c0 29 -4 36 -19 36 -16 0
-18 -5 -14 -40z"/>
<path d="M350 2635 c-7 -9 -10 -18 -7 -21 10 -10 47 7 47 22 0 19 -24 18 -40
-1z"/>
<path d="M252 2618 c6 -18 28 -21 28 -4 0 9 -7 16 -16 16 -9 0 -14 -5 -12 -12z"/>
<path d="M325 2550 c4 -11 2 -20 -4 -20 -6 0 -11 -4 -11 -10 0 -5 11 -10 25
-10 21 0 25 5 25 30 0 24 -4 30 -21 30 -16 0 -19 -4 -14 -20z"/>
<path d="M264 2544 c3 -9 6 -22 6 -30 0 -8 6 -14 13 -14 8 0 14 12 14 30 0 23
-5 30 -20 30 -13 0 -17 -5 -13 -16z"/>
<path d="M287 2180 c6 -39 5 -40 -26 -40 -18 0 -34 -6 -37 -14 -3 -8 -13 -12
-24 -9 -15 4 -19 13 -17 41 1 27 -2 37 -15 40 -16 3 -17 -2 -12 -42 7 -45 6
-46 -20 -46 -14 0 -26 -4 -26 -10 0 -5 11 -10 25 -10 45 0 28 -40 -35 -82 -20
-13 -22 -19 -13 -29 10 -10 16 -9 31 4 26 24 32 21 32 -13 0 -20 -5 -30 -15
-30 -19 0 -19 -9 0 -35 13 -17 17 -17 30 -5 10 11 15 42 16 103 1 48 7 91 13
94 5 4 12 1 14 -5 6 -19 29 -14 34 6 5 19 50 32 115 32 25 0 31 -4 27 -15 -7
-18 5 -19 29 -1 38 29 13 48 -52 39 l-41 -6 0 37 c0 29 -4 36 -19 36 -16 0
-18 -5 -14 -40z"/>
<path d="M350 2185 c-7 -9 -10 -18 -7 -21 10 -10 47 7 47 22 0 19 -24 18 -40
-1z"/>
<path d="M252 2168 c6 -18 28 -21 28 -4 0 9 -7 16 -16 16 -9 0 -14 -5 -12 -12z"/>
<path d="M325 2100 c4 -11 2 -20 -4 -20 -6 0 -11 -4 -11 -10 0 -5 11 -10 25
-10 21 0 25 5 25 30 0 24 -4 30 -21 30 -16 0 -19 -4 -14 -20z"/>
<path d="M264 2094 c3 -9 6 -22 6 -30 0 -8 6 -14 13 -14 8 0 14 12 14 30 0 23
-5 30 -20 30 -13 0 -17 -5 -13 -16z"/>
<path d="M308 2043 c-21 -2 -38 -8 -38 -14 0 -10 53 -12 88 -3 26 7 30 25 5
22 -10 -1 -35 -3 -55 -5z"/>
<path d="M287 1730 c6 -39 5 -40 -26 -40 -18 0 -34 -6 -37 -14 -3 -8 -13 -12
-24 -9 -15 4 -19 13 -17 41 1 27 -2 37 -15 40 -16 3 -17 -2 -12 -42 7 -45 6
-46 -20 -46 -14 0 -26 -4 -26 -10 0 -5 11 -10 25 -10 45 0 28 -40 -35 -82 -20
-13 -22 -19 -13 -29 10 -10 16 -9 31 4 26 24 32 21 32 -13 0 -20 -5 -30 -15
-30 -19 0 -19 -9 0 -35 13 -17 17 -17 30 -5 10 11 15 42 16 103 1 48 7 91 13
94 5 4 12 1 14 -5 6 -19 29 -14 34 6 5 19 50 32 115 32 25 0 31 -4 27 -15 -7
-18 5 -19 29 -1 38 29 13 48 -52 39 l-41 -6 0 37 c0 29 -4 36 -19 36 -16 0
-18 -5 -14 -40z"/>
<path d="M350 1735 c-7 -9 -10 -18 -7 -21 10 -10 47 7 47 22 0 19 -24 18 -40
-1z"/>
<path d="M252 1718 c6 -18 28 -21 28 -4 0 9 -7 16 -16 16 -9 0 -14 -5 -12 -12z"/>
<path d="M325 1650 c4 -11 2 -20 -4 -20 -6 0 -11 -4 -11 -10 0 -5 11 -10 25
-10 21 0 25 5 25 30 0 24 -4 30 -21 30 -16 0 -19 -4 -14 -20z"/>
<path d="M264 1644 c3 -9 6 -22 6 -30 0 -8 6 -14 13 -14 8 0 14 12 14 30 0 23
-5 30 -20 30 -13 0 -17 -5 -13 -16z"/>
<path d="M320 1593 c-57 -9 -67 -14 -79 -39 -6 -15 -8 -30 -4 -34 4 -4 43 -3
86 2 95 13 106 34 12 24 -55 -5 -65 -4 -65 9 0 10 10 15 33 15 41 0 77 10 77
21 0 9 -14 10 -60 2z"/>
<path d="M287 1280 c6 -39 5 -40 -26 -40 -18 0 -34 -6 -37 -14 -3 -8 -13 -12
-24 -9 -15 4 -19 13 -17 41 1 27 -2 37 -15 40 -16 3 -17 -2 -12 -42 7 -45 6
-46 -20 -46 -14 0 -26 -4 -26 -10 0 -5 11 -10 25 -10 45 0 28 -40 -35 -82 -20
-13 -22 -19 -13 -29 10 -10 16 -9 31 4 26 24 32 21 32 -13 0 -20 -5 -30 -15
-30 -19 0 -19 -9 0 -35 13 -17 17 -17 30 -5 10 11 15 42 16 103 1 48 7 91 13
94 5 4 12 1 14 -5 6 -19 29 -14 34 6 5 19 50 32 115 32 25 0 31 -4 27 -15 -7
-18 5 -19 29 -1 38 29 13 48 -52 39 l-41 -6 0 37 c0 29 -4 36 -19 36 -16 0
-18 -5 -14 -40z"/>
<path d="M350 1285 c-7 -9 -10 -18 -7 -21 10 -10 47 7 47 22 0 19 -24 18 -40
-1z"/>
<path d="M252 1268 c6 -18 28 -21 28 -4 0 9 -7 16 -16 16 -9 0 -14 -5 -12 -12z"/>
<path d="M325 1200 c4 -11 2 -20 -4 -20 -6 0 -11 -4 -11 -10 0 -5 11 -10 25
-10 21 0 25 5 25 30 0 24 -4 30 -21 30 -16 0 -19 -4 -14 -20z"/>
<path d="M264 1194 c3 -9 6 -22 6 -30 0 -8 6 -14 13 -14 8 0 14 12 14 30 0 23
-5 30 -20 30 -13 0 -17 -5 -13 -16z"/>
<path d="M320 1143 c-57 -9 -67 -14 -78 -39 -17 -35 -9 -43 38 -37 39 6 40 5
40 -26 0 -21 -5 -31 -15 -31 -19 0 -19 -14 0 -30 23 -19 35 -2 35 51 0 48 1
49 30 49 17 0 30 5 30 10 0 6 -13 10 -30 10 -34 0 -41 19 -10 27 11 3 20 9 20
14 0 9 -14 10 -60 2z m-5 -38 c0 -5 -10 -11 -22 -13 -16 -2 -23 2 -23 13 0 11
7 15 23 13 12 -2 22 -7 22 -13z"/>
<path d="M287 830 c6 -39 5 -40 -26 -40 -18 0 -34 -6 -37 -14 -3 -8 -13 -12
-24 -9 -15 4 -19 13 -17 41 1 27 -2 37 -15 40 -16 3 -17 -2 -12 -42 7 -45 6
-46 -20 -46 -14 0 -26 -4 -26 -10 0 -5 11 -10 25 -10 45 0 28 -40 -35 -82 -20
-13 -22 -19 -13 -29 10 -10 16 -9 31 4 26 24 32 21 32 -13 0 -20 -5 -30 -15
-30 -19 0 -19 -9 0 -35 13 -17 17 -17 30 -5 10 11 15 42 16 103 1 48 7 91 13
94 5 4 12 1 14 -5 6 -19 29 -14 34 6 5 19 50 32 115 32 25 0 31 -4 27 -15 -7
-18 5 -19 29 -1 38 29 13 48 -52 39 l-41 -6 0 37 c0 29 -4 36 -19 36 -16 0
-18 -5 -14 -40z"/>
<path d="M350 835 c-7 -9 -10 -18 -7 -21 10 -10 47 7 47 22 0 19 -24 18 -40
-1z"/>
<path d="M252 818 c6 -18 28 -21 28 -4 0 9 -7 16 -16 16 -9 0 -14 -5 -12 -12z"/>
<path d="M325 750 c4 -11 2 -20 -4 -20 -6 0 -11 -4 -11 -10 0 -5 11 -10 25
-10 21 0 25 5 25 30 0 24 -4 30 -21 30 -16 0 -19 -4 -14 -20z"/>
<path d="M264 744 c3 -9 6 -22 6 -30 0 -8 6 -14 13 -14 8 0 14 12 14 30 0 23
-5 30 -20 30 -13 0 -17 -5 -13 -16z"/>
<path d="M320 693 c-57 -9 -67 -14 -78 -39 -16 -33 -7 -45 26 -38 l27 5 -30
-25 c-16 -14 -33 -26 -37 -26 -5 0 -8 -5 -8 -11 0 -14 37 -2 73 23 27 19 27
19 27 -1 0 -12 -7 -21 -15 -21 -19 0 -19 -14 0 -30 23 -19 35 -2 35 51 0 48 1
49 30 49 17 0 30 5 30 10 0 6 -13 10 -30 10 -34 0 -41 19 -10 27 11 3 20 9 20
14 0 9 -14 10 -60 2z m-5 -38 c0 -5 -10 -11 -22 -13 -16 -2 -23 2 -23 13 0 11
7 15 23 13 12 -2 22 -7 22 -13z"/>
</g>
</svg>
