<?xml version="1.0" standalone="no"?>
<!DOCTYPE svg PUBLIC "-//W3C//DTD SVG 20010904//EN"
 "http://www.w3.org/TR/2001/REC-SVG-20010904/DTD/svg10.dtd">
<svg version="1.0" xmlns="http://www.w3.org/2000/svg"
 width="95.000000pt" height="725.000000pt" viewBox="0 0 95.000000 725.000000"
 preserveAspectRatio="xMidYMid meet">
<metadata>
Created by potrace 1.16, written by Peter Selinger 2001-2019
</metadata>
<g transform="translate(0.000000,725.000000) scale(0.100000,-0.100000)"
fill="#000000" stroke="none">
<path d="M134 7123 c1 -45 -1 -48 -26 -51 -38 -4 -36 -22 2 -22 25 0 30 -4 30
-25 0 -18 -10 -30 -40 -47 -22 -13 -38 -27 -37 -33 7 -20 38 -16 58 7 l20 23
-6 -40 c-4 -22 -12 -43 -18 -47 -15 -9 4 -43 24 -43 10 0 15 19 17 72 2 47 8
75 17 83 19 16 19 34 0 26 -10 -4 -15 1 -15 14 0 14 7 20 21 20 12 0 19 5 16
13 -2 6 -11 11 -20 11 -12 -1 -15 8 -14 39 2 30 -2 42 -14 45 -12 2 -15 -7
-15 -45z"/>
<path d="M275 7140 c5 -17 0 -21 -34 -26 -45 -7 -56 -24 -16 -24 15 0 25 -6
25 -15 0 -8 -11 -17 -25 -21 -14 -3 -25 -13 -25 -23 0 -9 -7 -27 -16 -39 -9
-13 -13 -26 -10 -29 9 -9 38 19 52 52 11 26 13 27 14 8 0 -12 -4 -24 -9 -27
-4 -3 -6 -27 -3 -54 2 -28 -1 -59 -8 -71 -16 -31 -2 -41 19 -14 11 13 35 24
63 28 l46 7 -1 -32 c-1 -18 3 -35 10 -37 17 -6 22 139 5 150 -7 5 -9 13 -6 19
4 6 2 13 -4 17 -6 4 -7 12 -3 20 6 9 14 5 30 -18 15 -20 31 -31 47 -31 28 0
32 16 6 24 -23 8 -70 56 -54 56 7 0 12 7 12 15 0 22 -28 18 -35 -4 -4 -12 -12
-18 -21 -14 -11 4 -14 -5 -14 -40 0 -27 5 -47 13 -50 19 -7 3 -17 -35 -23 -43
-7 -52 8 -35 63 l12 38 3 -42 c4 -56 22 -55 22 1 0 27 6 48 16 57 8 7 13 21
11 31 -4 15 1 18 34 18 21 0 39 5 39 10 0 6 -20 10 -44 10 -30 0 -46 5 -50 15
-9 24 -39 19 -31 -5z m25 -50 c0 -13 -11 -13 -30 0 -12 8 -11 10 8 10 12 0 22
-4 22 -10z m48 -175 c-2 -1 -25 -6 -53 -10 -34 -4 -47 -3 -40 3 10 11 74 20
88 14 5 -2 7 -5 5 -7z"/>
<path d="M605 7080 c-11 -5 -32 -9 -47 -9 -37 -1 -36 -21 1 -21 47 0 92 12 88
23 -5 15 -18 17 -42 7z"/>
<path d="M584 6673 c1 -45 -1 -48 -26 -51 -38 -5 -35 -22 3 -22 l32 0 -5 -76
c-3 -50 -10 -79 -19 -85 -17 -10 0 -44 22 -44 11 0 15 24 17 108 2 100 4 107
23 107 12 0 19 5 16 13 -2 6 -11 11 -20 11 -12 -1 -15 8 -14 39 2 30 -2 42
-14 45 -12 2 -15 -7 -15 -45z"/>
<path d="M584 6223 c1 -45 -1 -48 -26 -51 -38 -4 -36 -22 2 -22 25 0 30 -4 30
-25 0 -18 -10 -30 -40 -47 -22 -13 -38 -27 -37 -33 7 -20 38 -16 58 7 l20 23
-6 -40 c-4 -22 -12 -43 -18 -47 -15 -9 4 -43 24 -43 10 0 15 19 17 72 2 47 8
75 17 83 19 16 19 34 0 26 -10 -4 -15 1 -15 14 0 14 7 20 21 20 12 0 19 5 16
13 -2 6 -11 11 -20 11 -12 -1 -15 8 -14 39 2 30 -2 42 -14 45 -12 2 -15 -7
-15 -45z"/>
<path d="M584 5773 c1 -45 -1 -48 -26 -51 -38 -4 -36 -22 2 -22 25 0 30 -4 30
-25 0 -18 -10 -30 -40 -47 -22 -13 -38 -27 -37 -33 7 -20 38 -16 58 7 l20 23
-6 -40 c-4 -22 -12 -43 -18 -47 -15 -9 4 -43 24 -43 10 0 15 19 17 72 2 47 8
75 17 83 19 16 19 34 0 26 -10 -4 -15 1 -15 14 0 14 7 20 21 20 12 0 19 5 16
13 -2 6 -11 11 -20 11 -12 -1 -15 8 -14 39 2 30 -2 42 -14 45 -12 2 -15 -7
-15 -45z"/>
<path d="M720 5805 c0 -14 21 -45 31 -45 18 0 5 45 -13 48 -10 2 -18 1 -18 -3z"/>
<path d="M584 5323 c1 -45 -1 -48 -26 -51 -38 -4 -36 -22 2 -22 25 0 30 -4 30
-25 0 -18 -10 -30 -40 -47 -22 -13 -38 -27 -37 -33 7 -20 38 -16 58 7 l20 23
-6 -40 c-4 -22 -12 -43 -18 -47 -15 -9 4 -43 24 -43 10 0 15 19 17 72 2 47 8
75 17 83 19 16 19 34 0 26 -10 -4 -15 1 -15 14 0 14 7 20 21 20 12 0 19 5 16
13 -2 6 -11 11 -20 11 -12 -1 -15 8 -14 39 2 30 -2 42 -14 45 -12 2 -15 -7
-15 -45z"/>
<path d="M725 5340 c5 -17 0 -21 -34 -26 -23 -4 -41 -11 -41 -17 0 -6 18 -7
48 -3 26 4 71 10 100 13 63 7 69 23 8 23 -30 0 -46 5 -50 15 -9 24 -39 19 -31
-5z"/>
<path d="M584 4873 c1 -45 -1 -48 -26 -51 -38 -4 -36 -22 2 -22 25 0 30 -4 30
-25 0 -18 -10 -30 -40 -47 -22 -13 -38 -27 -37 -33 7 -20 38 -16 58 7 l20 23
-6 -40 c-4 -22 -12 -43 -18 -47 -15 -9 4 -43 24 -43 10 0 15 19 17 72 2 47 8
75 17 83 19 16 19 34 0 26 -10 -4 -15 1 -15 14 0 14 7 20 21 20 12 0 19 5 16
13 -2 6 -11 11 -20 11 -12 -1 -15 8 -14 39 2 30 -2 42 -14 45 -12 2 -15 -7
-15 -45z"/>
<path d="M725 4890 c5 -17 0 -21 -34 -26 -44 -7 -56 -24 -17 -24 15 0 26 -7
29 -20 6 -23 37 -27 37 -5 0 7 -8 18 -17 24 -13 7 0 11 55 16 79 8 98 25 28
25 -30 0 -46 5 -50 15 -9 24 -39 19 -31 -5z"/>
<path d="M584 4423 c1 -45 -1 -48 -26 -51 -38 -4 -36 -22 2 -22 25 0 30 -4 30
-25 0 -18 -10 -30 -40 -47 -22 -13 -38 -27 -37 -33 7 -20 38 -16 58 7 l20 23
-6 -40 c-4 -22 -12 -43 -18 -47 -15 -9 4 -43 24 -43 10 0 15 19 17 72 2 47 8
75 17 83 19 16 19 34 0 26 -10 -4 -15 1 -15 14 0 14 7 20 21 20 12 0 19 5 16
13 -2 6 -11 11 -20 11 -12 -1 -15 8 -14 39 2 30 -2 42 -14 45 -12 2 -15 -7
-15 -45z"/>
<path d="M725 4440 c5 -17 0 -21 -34 -26 -44 -7 -56 -24 -17 -24 15 0 26 -7
29 -20 3 -13 14 -20 30 -20 29 0 52 23 43 45 -4 12 3 15 34 15 22 0 40 5 40
10 0 6 -20 10 -44 10 -30 0 -46 5 -50 15 -9 24 -39 19 -31 -5z m25 -50 c0 -13
-11 -13 -30 0 -12 8 -11 10 8 10 12 0 22 -4 22 -10z"/>
<path d="M584 3973 c1 -45 -1 -48 -26 -51 -38 -4 -36 -22 2 -22 25 0 30 -4 30
-25 0 -18 -10 -30 -40 -47 -22 -13 -38 -27 -37 -33 7 -20 38 -16 58 7 l20 23
-6 -40 c-4 -22 -12 -43 -18 -47 -15 -9 4 -43 24 -43 10 0 15 19 17 72 2 47 8
75 17 83 19 16 19 34 0 26 -10 -4 -15 1 -15 14 0 14 7 20 21 20 12 0 19 5 16
13 -2 6 -11 11 -20 11 -12 -1 -15 8 -14 39 2 30 -2 42 -14 45 -12 2 -15 -7
-15 -45z"/>
<path d="M725 3990 c5 -17 0 -21 -34 -26 -45 -7 -56 -24 -16 -24 15 0 25 -6
25 -14 0 -7 7 -19 15 -26 9 -7 15 -29 15 -51 0 -22 5 -39 10 -39 6 0 10 20 10
44 0 27 6 48 16 57 8 7 13 21 11 31 -4 15 1 18 34 18 21 0 39 5 39 10 0 6 -20
10 -44 10 -30 0 -46 5 -50 15 -9 24 -39 19 -31 -5z m25 -50 c0 -13 -11 -13
-30 0 -12 8 -11 10 8 10 12 0 22 -4 22 -10z"/>
<path d="M584 3523 c1 -45 -1 -48 -26 -51 -38 -4 -36 -22 2 -22 25 0 30 -4 30
-25 0 -18 -10 -30 -40 -47 -22 -13 -38 -27 -37 -33 7 -20 38 -16 58 7 l20 23
-6 -40 c-4 -22 -12 -43 -18 -47 -15 -9 4 -43 24 -43 10 0 15 19 17 72 2 47 8
75 17 83 19 16 19 34 0 26 -10 -4 -15 1 -15 14 0 14 7 20 21 20 12 0 19 5 16
13 -2 6 -11 11 -20 11 -12 -1 -15 8 -14 39 2 30 -2 42 -14 45 -12 2 -15 -7
-15 -45z"/>
<path d="M725 3540 c5 -17 0 -21 -34 -26 -45 -7 -56 -24 -16 -24 15 0 25 -6
25 -15 0 -8 -11 -17 -25 -21 -14 -3 -25 -11 -25 -16 0 -6 9 -8 20 -5 22 6 28
-21 9 -40 -12 -12 -4 -33 11 -33 5 0 15 19 22 43 l13 42 3 -42 c4 -56 22 -55
22 1 0 27 6 48 16 57 8 7 13 21 11 31 -4 15 1 18 34 18 21 0 39 5 39 10 0 6
-20 10 -44 10 -30 0 -46 5 -50 15 -9 24 -39 19 -31 -5z m25 -50 c0 -13 -11
-13 -30 0 -12 8 -11 10 8 10 12 0 22 -4 22 -10z"/>
<path d="M584 3073 c1 -45 -1 -48 -26 -51 -38 -4 -36 -22 2 -22 25 0 30 -4 30
-25 0 -18 -10 -30 -40 -47 -22 -13 -38 -27 -37 -33 7 -20 38 -16 58 7 l20 23
-6 -40 c-4 -22 -12 -43 -18 -47 -15 -9 4 -43 24 -43 10 0 15 19 17 72 2 47 8
75 17 83 19 16 19 34 0 26 -10 -4 -15 1 -15 14 0 14 7 20 21 20 12 0 19 5 16
13 -2 6 -11 11 -20 11 -12 -1 -15 8 -14 39 2 30 -2 42 -14 45 -12 2 -15 -7
-15 -45z"/>
<path d="M725 3090 c5 -17 0 -21 -34 -26 -45 -7 -56 -24 -16 -24 15 0 25 -6
25 -15 0 -8 -11 -17 -25 -21 -14 -3 -25 -13 -25 -23 0 -9 -7 -27 -16 -39 -9
-13 -13 -26 -10 -29 9 -9 38 19 52 52 10 24 13 26 14 10 0 -12 -5 -26 -11 -32
-12 -12 -4 -33 11 -33 5 0 15 19 22 43 l13 42 3 -42 c4 -56 22 -55 22 1 0 27
6 48 16 57 8 7 13 21 11 31 -4 15 1 18 34 18 21 0 39 5 39 10 0 6 -20 10 -44
10 -30 0 -46 5 -50 15 -9 24 -39 19 -31 -5z m25 -50 c0 -13 -11 -13 -30 0 -12
8 -11 10 8 10 12 0 22 -4 22 -10z"/>
<path d="M584 2623 c1 -45 -1 -48 -26 -51 -38 -4 -36 -22 2 -22 25 0 30 -4 30
-25 0 -18 -10 -30 -40 -47 -22 -13 -38 -27 -37 -33 7 -20 38 -16 58 7 l20 23
-6 -40 c-4 -22 -12 -43 -18 -47 -15 -9 4 -43 24 -43 10 0 15 19 17 72 2 47 8
75 17 83 19 16 19 34 0 26 -10 -4 -15 1 -15 14 0 14 7 20 21 20 12 0 19 5 16
13 -2 6 -11 11 -20 11 -12 -1 -15 8 -14 39 2 30 -2 42 -14 45 -12 2 -15 -7
-15 -45z"/>
<path d="M725 2640 c5 -17 0 -21 -34 -26 -45 -7 -56 -24 -16 -24 15 0 25 -6
25 -15 0 -8 -11 -17 -25 -21 -14 -3 -25 -13 -25 -23 0 -9 -7 -27 -16 -39 -9
-13 -13 -26 -10 -29 9 -9 38 19 52 52 10 24 13 26 14 10 0 -12 -5 -26 -11 -32
-12 -12 -4 -33 11 -33 5 0 15 19 22 43 l13 42 3 -42 c4 -56 22 -55 22 1 0 27
6 48 16 57 8 7 13 21 11 31 -4 15 1 18 34 18 21 0 39 5 39 10 0 6 -20 10 -44
10 -30 0 -46 5 -50 15 -9 24 -39 19 -31 -5z m25 -50 c0 -13 -11 -13 -30 0 -12
8 -11 10 8 10 12 0 22 -4 22 -10z"/>
<path d="M806 2574 c-8 -21 -3 -26 18 -18 20 8 21 34 2 34 -8 0 -17 -7 -20
-16z"/>
<path d="M584 2173 c1 -45 -1 -48 -26 -51 -38 -4 -36 -22 2 -22 25 0 30 -4 30
-25 0 -18 -10 -30 -40 -47 -22 -13 -38 -27 -37 -33 7 -20 38 -16 58 7 l20 23
-6 -40 c-4 -22 -12 -43 -18 -47 -15 -9 4 -43 24 -43 10 0 15 19 17 72 2 47 8
75 17 83 19 16 19 34 0 26 -10 -4 -15 1 -15 14 0 14 7 20 21 20 12 0 19 5 16
13 -2 6 -11 11 -20 11 -12 -1 -15 8 -14 39 2 30 -2 42 -14 45 -12 2 -15 -7
-15 -45z"/>
<path d="M725 2190 c5 -17 0 -21 -34 -26 -45 -7 -56 -24 -16 -24 15 0 25 -6
25 -15 0 -8 -11 -17 -25 -21 -14 -3 -25 -13 -25 -23 0 -9 -7 -27 -16 -39 -9
-13 -13 -26 -10 -29 9 -9 38 19 52 52 10 24 13 26 14 10 0 -12 -5 -26 -11 -32
-12 -12 -4 -33 11 -33 5 0 15 19 22 43 l13 42 3 -42 c4 -56 22 -55 22 1 0 27
6 48 16 57 8 7 13 21 11 31 -4 15 1 18 34 18 21 0 39 5 39 10 0 6 -20 10 -44
10 -30 0 -46 5 -50 15 -9 24 -39 19 -31 -5z m25 -50 c0 -13 -11 -13 -30 0 -12
8 -11 10 8 10 12 0 22 -4 22 -10z"/>
<path d="M806 2124 c-8 -21 -3 -26 18 -18 20 8 21 34 2 34 -8 0 -17 -7 -20
-16z"/>
<path d="M770 2066 c0 -25 4 -46 9 -46 15 0 35 31 25 38 -5 4 -9 16 -9 26 0
11 -6 21 -12 24 -9 2 -13 -10 -13 -42z"/>
<path d="M584 1723 c1 -45 -1 -48 -26 -51 -38 -4 -36 -22 2 -22 25 0 30 -4 30
-25 0 -18 -10 -30 -40 -47 -22 -13 -38 -27 -37 -33 7 -20 38 -16 58 7 l20 23
-6 -40 c-4 -22 -12 -43 -18 -47 -15 -9 4 -43 24 -43 10 0 15 19 17 72 2 47 8
75 17 83 19 16 19 34 0 26 -10 -4 -15 1 -15 14 0 14 7 20 21 20 12 0 19 5 16
13 -2 6 -11 11 -20 11 -12 -1 -15 8 -14 39 2 30 -2 42 -14 45 -12 2 -15 -7
-15 -45z"/>
<path d="M725 1740 c5 -17 0 -21 -34 -26 -45 -7 -56 -24 -16 -24 15 0 25 -6
25 -15 0 -8 -11 -17 -25 -21 -14 -3 -25 -13 -25 -23 0 -9 -7 -27 -16 -39 -9
-13 -13 -26 -10 -29 9 -9 38 19 52 52 10 24 13 26 14 10 0 -12 -5 -26 -11 -32
-12 -12 -4 -33 11 -33 5 0 15 19 22 43 l13 42 3 -42 c4 -56 22 -55 22 1 0 27
6 48 16 57 8 7 13 21 11 31 -4 15 1 18 34 18 21 0 39 5 39 10 0 6 -20 10 -44
10 -30 0 -46 5 -50 15 -9 24 -39 19 -31 -5z m25 -50 c0 -13 -11 -13 -30 0 -12
8 -11 10 8 10 12 0 22 -4 22 -10z"/>
<path d="M805 1671 c-4 -12 -12 -18 -21 -14 -11 4 -14 -5 -14 -41 0 -48 9 -57
31 -30 9 11 10 17 1 23 -6 4 -8 12 -3 20 6 9 14 5 30 -18 15 -20 31 -31 47
-31 28 0 32 16 6 24 -23 8 -70 56 -54 56 7 0 12 7 12 15 0 22 -28 18 -35 -4z"/>
<path d="M584 1273 c1 -45 -1 -48 -26 -51 -38 -4 -36 -22 2 -22 25 0 30 -4 30
-25 0 -18 -10 -30 -40 -47 -22 -13 -38 -27 -37 -33 7 -20 38 -16 58 7 l20 23
-6 -40 c-4 -22 -12 -43 -18 -47 -15 -9 4 -43 24 -43 10 0 15 19 17 72 2 47 8
75 17 83 19 16 19 34 0 26 -10 -4 -15 1 -15 14 0 14 7 20 21 20 12 0 19 5 16
13 -2 6 -11 11 -20 11 -12 -1 -15 8 -14 39 2 30 -2 42 -14 45 -12 2 -15 -7
-15 -45z"/>
<path d="M725 1290 c5 -17 0 -21 -34 -26 -45 -7 -56 -24 -16 -24 15 0 25 -6
25 -15 0 -8 -11 -17 -25 -21 -14 -3 -25 -13 -25 -23 0 -9 -7 -27 -16 -39 -9
-13 -13 -26 -10 -29 9 -9 38 19 52 52 11 26 13 27 14 8 0 -12 -4 -24 -9 -27
-4 -3 -6 -27 -3 -54 2 -28 -1 -59 -8 -71 -14 -28 -5 -40 15 -20 9 9 17 42 20
87 5 85 24 133 25 65 0 -24 5 -43 10 -43 6 0 10 20 10 44 0 27 6 48 16 57 8 7
13 21 11 31 -4 15 1 18 34 18 21 0 39 5 39 10 0 6 -20 10 -44 10 -30 0 -46 5
-50 15 -9 24 -39 19 -31 -5z m25 -50 c0 -13 -11 -13 -30 0 -12 8 -11 10 8 10
12 0 22 -4 22 -10z"/>
<path d="M805 1221 c-4 -12 -12 -18 -21 -14 -11 4 -14 -5 -14 -41 0 -48 9 -57
31 -30 9 11 10 17 1 23 -6 4 -8 12 -3 20 6 9 14 5 30 -18 15 -20 31 -31 47
-31 28 0 32 16 6 24 -23 8 -70 56 -54 56 7 0 12 7 12 15 0 22 -28 18 -35 -4z"/>
<path d="M584 823 c1 -45 -1 -48 -26 -51 -38 -4 -36 -22 2 -22 25 0 30 -4 30
-25 0 -18 -10 -30 -40 -47 -22 -13 -38 -27 -37 -33 7 -20 38 -16 58 7 l20 23
-6 -40 c-4 -22 -12 -43 -18 -47 -15 -9 4 -43 24 -43 10 0 15 19 17 72 2 47 8
75 17 83 19 16 19 34 0 26 -10 -4 -15 1 -15 14 0 14 7 20 21 20 12 0 19 5 16
13 -2 6 -11 11 -20 11 -12 -1 -15 8 -14 39 2 30 -2 42 -14 45 -12 2 -15 -7
-15 -45z"/>
<path d="M725 840 c5 -17 0 -21 -34 -26 -45 -7 -56 -24 -16 -24 15 0 25 -6 25
-15 0 -8 -11 -17 -25 -21 -14 -3 -25 -13 -25 -23 0 -9 -7 -27 -16 -39 -9 -13
-13 -26 -10 -29 9 -9 38 19 52 52 11 26 13 27 14 8 0 -12 -4 -24 -9 -27 -4 -3
-6 -27 -3 -54 2 -28 -1 -59 -8 -71 -14 -28 -5 -40 15 -20 9 9 17 42 20 87 5
85 24 133 25 65 0 -24 5 -43 10 -43 6 0 10 20 10 44 0 27 6 48 16 57 8 7 13
21 11 31 -4 15 1 18 34 18 21 0 39 5 39 10 0 6 -20 10 -44 10 -30 0 -46 5 -50
15 -9 24 -39 19 -31 -5z m25 -50 c0 -13 -11 -13 -30 0 -12 8 -11 10 8 10 12 0
22 -4 22 -10z"/>
<path d="M805 771 c-4 -12 -12 -18 -21 -14 -20 8 -19 -73 2 -94 12 -12 15 -31
12 -76 -2 -39 1 -61 9 -64 17 -6 22 139 5 150 -7 5 -9 13 -6 19 4 6 2 13 -4
17 -6 4 -7 12 -3 20 6 9 14 5 30 -18 15 -20 31 -31 47 -31 28 0 32 16 6 24
-23 8 -70 56 -54 56 7 0 12 7 12 15 0 22 -28 18 -35 -4z"/>
<path d="M584 373 c1 -45 -1 -48 -26 -51 -38 -4 -36 -22 2 -22 25 0 30 -4 30
-25 0 -18 -10 -30 -40 -47 -22 -13 -38 -27 -37 -33 7 -20 38 -16 58 7 l20 23
-6 -40 c-4 -22 -12 -43 -18 -47 -15 -9 4 -43 24 -43 10 0 15 19 17 72 2 47 8
75 17 83 19 16 19 34 0 26 -10 -4 -15 1 -15 14 0 14 7 20 21 20 12 0 19 5 16
13 -2 6 -11 11 -20 11 -12 -1 -15 8 -14 39 2 30 -2 42 -14 45 -12 2 -15 -7
-15 -45z"/>
<path d="M725 390 c5 -17 0 -21 -34 -26 -45 -7 -56 -24 -16 -24 33 0 33 -28 0
-36 -14 -3 -25 -13 -25 -23 0 -9 -7 -27 -16 -39 -9 -13 -13 -26 -10 -29 9 -9
38 19 52 52 11 26 13 27 14 8 0 -12 -4 -24 -9 -27 -4 -3 -6 -27 -3 -54 2 -28
-1 -59 -8 -71 -6 -13 -9 -25 -6 -28 11 -11 36 20 36 43 0 28 5 31 55 35 l40 4
0 -49 c0 -29 5 -51 12 -53 17 -6 22 139 5 150 -7 5 -9 13 -6 19 4 6 2 13 -4
17 -6 4 -7 12 -3 20 6 9 14 5 30 -18 15 -20 31 -31 47 -31 28 0 32 16 6 24
-23 8 -70 56 -54 56 7 0 12 7 12 15 0 22 -28 18 -35 -4 -4 -12 -12 -18 -21
-14 -11 4 -14 -5 -14 -40 0 -27 5 -47 13 -50 19 -7 3 -17 -35 -23 -43 -7 -52
8 -35 63 l12 38 3 -42 c4 -56 22 -55 22 1 0 27 6 48 16 57 8 7 13 21 11 31 -4
15 1 18 34 18 21 0 39 5 39 10 0 6 -20 10 -44 10 -30 0 -46 5 -50 15 -9 24
-39 19 -31 -5z m25 -50 c0 -13 -11 -13 -30 0 -12 8 -11 10 8 10 12 0 22 -4 22
-10z"/>
</g>
</svg>
