<?xml version="1.0" standalone="no"?>
<!DOCTYPE svg PUBLIC "-//W3C//DTD SVG 20010904//EN"
 "http://www.w3.org/TR/2001/REC-SVG-20010904/DTD/svg10.dtd">
<svg version="1.0" xmlns="http://www.w3.org/2000/svg"
 width="95.000000pt" height="725.000000pt" viewBox="0 0 95.000000 725.000000"
 preserveAspectRatio="xMidYMid meet">
<metadata>
Created by potrace 1.16, written by Peter Selinger 2001-2019
</metadata>
<g transform="translate(0.000000,725.000000) scale(0.100000,-0.100000)"
fill="#000000" stroke="none">
<path d="M304 7145 c6 -23 4 -25 -28 -25 -35 0 -46 -13 -46 -51 0 -10 5 -19
11 -19 6 0 8 -9 4 -20 -7 -22 5 -26 23 -8 16 16 15 28 -3 28 -18 0 -18 5 -5
30 12 23 108 39 120 20 9 -15 53 -3 47 13 -2 7 -22 13 -45 15 -27 2 -42 8 -42
17 0 11 -20 25 -37 25 -3 0 -2 -11 1 -25z"/>
<path d="M167 7111 c6 -51 6 -51 -26 -57 -40 -8 -40 -24 0 -24 46 0 36 -37
-18 -64 -24 -12 -42 -27 -40 -35 4 -24 23 -23 53 2 l29 25 -3 -44 c-3 -32 -8
-41 -18 -37 -17 6 -18 -1 -4 -28 13 -23 36 -25 44 -3 3 9 6 41 6 73 0 32 6 63
13 70 10 11 10 14 0 18 -18 7 -16 33 2 33 19 0 20 16 1 27 -9 5 -13 23 -12 48
1 30 -3 40 -16 43 -15 3 -16 -3 -11 -47z"/>
<path d="M313 7093 c-19 -4 -21 -9 -16 -39 5 -32 3 -36 -26 -47 -34 -12 -39
-22 -17 -30 18 -7 15 -109 -4 -132 -7 -8 -10 -18 -7 -22 8 -8 77 45 77 59 0 7
13 8 35 5 l35 -6 0 65 c0 63 0 64 -27 64 l-28 1 28 17 c27 17 37 42 15 42 -6
0 -20 -7 -30 -17 -10 -9 -21 -14 -24 -10 -3 3 4 14 15 24 35 30 28 37 -26 26z
m27 -114 c-43 -12 -54 -11 -41 5 7 8 22 11 39 8 l27 -6 -25 -7z m10 -29 c-8
-5 -26 -9 -40 -9 l-25 1 25 8 c14 4 32 8 40 9 13 1 13 0 0 -9z m10 -30 c0 -5
-17 -9 -37 -9 l-38 2 35 7 c19 4 36 8 38 9 1 0 2 -3 2 -9z"/>
<path d="M603 7057 c-62 -14 -55 -31 9 -23 59 8 63 10 53 25 -7 12 -4 12 -62
-2z"/>
<path d="M350 6872 c0 -16 32 -52 46 -52 22 0 17 27 -8 44 -25 17 -38 20 -38
8z"/>
<path d="M617 6661 c6 -51 6 -51 -26 -57 -40 -8 -40 -24 0 -24 l32 0 -7 -61
c-3 -34 -6 -70 -6 -80 0 -12 -5 -16 -15 -13 -18 7 -19 0 -5 -27 13 -23 36 -25
44 -3 3 9 6 56 6 105 0 72 3 89 15 89 19 0 20 16 1 27 -9 5 -13 23 -12 48 1
30 -3 40 -16 43 -15 3 -16 -3 -11 -47z"/>
<path d="M617 6211 c6 -51 6 -51 -26 -57 -40 -8 -40 -24 0 -24 46 0 36 -37
-18 -64 -24 -12 -42 -27 -40 -35 4 -24 23 -23 53 2 l29 25 -3 -44 c-3 -32 -8
-41 -18 -37 -17 6 -18 -1 -4 -28 13 -23 36 -25 44 -3 3 9 6 41 6 73 0 32 6 63
13 70 10 11 10 14 0 18 -18 7 -16 33 2 33 19 0 20 16 1 27 -9 5 -13 23 -12 48
1 30 -3 40 -16 43 -15 3 -16 -3 -11 -47z"/>
<path d="M750 5811 c0 -21 13 -41 26 -41 19 0 18 36 -2 44 -21 8 -24 8 -24 -3z"/>
<path d="M617 5761 c6 -51 6 -51 -26 -57 -40 -8 -40 -24 0 -24 46 0 36 -37
-18 -64 -24 -12 -42 -27 -40 -35 4 -24 23 -23 53 2 l29 25 -3 -44 c-3 -32 -8
-41 -18 -37 -17 6 -18 -1 -4 -28 13 -23 36 -25 44 -3 3 9 6 41 6 73 0 32 6 63
13 70 10 11 10 14 0 18 -18 7 -16 33 2 33 19 0 20 16 1 27 -9 5 -13 23 -12 48
1 30 -3 40 -16 43 -15 3 -16 -3 -11 -47z"/>
<path d="M750 5361 c0 -21 13 -41 26 -41 19 0 18 36 -2 44 -21 8 -24 8 -24 -3z"/>
<path d="M617 5311 c6 -51 6 -51 -26 -57 -40 -8 -40 -24 0 -24 46 0 36 -37
-18 -64 -24 -12 -42 -27 -40 -35 4 -24 23 -23 53 2 l29 25 -3 -44 c-3 -32 -8
-41 -18 -37 -17 6 -18 -1 -4 -28 13 -23 36 -25 44 -3 3 9 6 41 6 73 0 32 6 63
13 70 10 11 10 14 0 18 -18 7 -16 33 2 33 19 0 20 16 1 27 -9 5 -13 23 -12 48
1 30 -3 40 -16 43 -15 3 -16 -3 -11 -47z"/>
<path d="M686 5304 c-9 -23 -7 -54 3 -54 11 0 21 25 21 51 0 23 -15 25 -24 3z"/>
<path d="M754 4895 c6 -23 4 -25 -28 -25 -35 0 -46 -13 -46 -51 0 -26 15 -24
28 5 8 19 21 25 63 31 36 5 54 4 59 -5 9 -15 53 -3 47 13 -2 7 -22 13 -45 15
-27 2 -42 8 -42 17 0 11 -20 25 -37 25 -3 0 -2 -11 1 -25z"/>
<path d="M617 4861 c6 -51 6 -51 -26 -57 -40 -8 -40 -24 0 -24 46 0 36 -37
-18 -64 -24 -12 -42 -27 -40 -35 4 -24 23 -23 53 2 l29 25 -3 -44 c-3 -32 -8
-41 -18 -37 -17 6 -18 -1 -4 -28 13 -23 36 -25 44 -3 3 9 6 41 6 73 0 32 6 63
13 70 10 11 10 14 0 18 -18 7 -16 33 2 33 19 0 20 16 1 27 -9 5 -13 23 -12 48
1 30 -3 40 -16 43 -15 3 -16 -3 -11 -47z"/>
<path d="M754 4445 c6 -23 4 -25 -28 -25 -35 0 -46 -13 -46 -51 0 -26 15 -24
28 5 8 19 21 25 63 31 36 5 54 4 59 -5 9 -15 53 -3 47 13 -2 7 -22 13 -45 15
-27 2 -42 8 -42 17 0 11 -20 25 -37 25 -3 0 -2 -11 1 -25z"/>
<path d="M617 4411 c6 -51 6 -51 -26 -57 -40 -8 -40 -24 0 -24 46 0 36 -37
-18 -64 -24 -12 -42 -27 -40 -35 4 -24 23 -23 53 2 l29 25 -3 -44 c-3 -32 -8
-41 -18 -37 -17 6 -18 -1 -4 -28 13 -23 36 -25 44 -3 3 9 6 41 6 73 0 32 6 63
13 70 10 11 10 14 0 18 -18 7 -16 33 2 33 19 0 20 16 1 27 -9 5 -13 23 -12 48
1 30 -3 40 -16 43 -15 3 -16 -3 -11 -47z"/>
<path d="M763 4393 c-13 -2 -23 -9 -23 -14 0 -15 63 -6 68 9 4 12 -4 13 -45 5z"/>
<path d="M754 3995 c6 -23 4 -25 -28 -25 -35 0 -46 -13 -46 -51 0 -26 15 -24
28 5 8 19 21 25 63 31 36 5 54 4 59 -5 9 -15 53 -3 47 13 -2 7 -22 13 -45 15
-27 2 -42 8 -42 17 0 11 -20 25 -37 25 -3 0 -2 -11 1 -25z"/>
<path d="M617 3961 c6 -51 6 -51 -26 -57 -40 -8 -40 -24 0 -24 46 0 36 -37
-18 -64 -24 -12 -42 -27 -40 -35 4 -24 23 -23 53 2 l29 25 -3 -44 c-3 -32 -8
-41 -18 -37 -17 6 -18 -1 -4 -28 13 -23 36 -25 44 -3 3 9 6 41 6 73 0 32 6 63
13 70 10 11 10 14 0 18 -18 7 -16 33 2 33 19 0 20 16 1 27 -9 5 -13 23 -12 48
1 30 -3 40 -16 43 -15 3 -16 -3 -11 -47z"/>
<path d="M762 3943 c-16 -3 -22 -9 -18 -20 3 -8 6 -23 6 -34 0 -10 5 -19 10
-19 6 0 10 7 10 15 0 8 9 23 20 32 34 30 27 36 -28 26z"/>
<path d="M754 3545 c6 -23 4 -25 -28 -25 -35 0 -46 -13 -46 -51 0 -10 5 -19
11 -19 6 0 8 -9 4 -20 -7 -22 5 -26 23 -8 16 16 15 28 -3 28 -18 0 -18 5 -5
30 12 23 108 39 120 20 9 -15 53 -3 47 13 -2 7 -22 13 -45 15 -27 2 -42 8 -42
17 0 11 -20 25 -37 25 -3 0 -2 -11 1 -25z"/>
<path d="M617 3511 c6 -51 6 -51 -26 -57 -40 -8 -40 -24 0 -24 46 0 36 -37
-18 -64 -24 -12 -42 -27 -40 -35 4 -24 23 -23 53 2 l29 25 -3 -44 c-3 -32 -8
-41 -18 -37 -17 6 -18 -1 -4 -28 13 -23 36 -25 44 -3 3 9 6 41 6 73 0 32 6 63
13 70 10 11 10 14 0 18 -18 7 -16 33 2 33 19 0 20 16 1 27 -9 5 -13 23 -12 48
1 30 -3 40 -16 43 -15 3 -16 -3 -11 -47z"/>
<path d="M762 3493 c-16 -3 -22 -9 -18 -20 3 -8 6 -23 6 -34 0 -10 5 -19 10
-19 6 0 10 7 10 15 0 8 9 23 20 32 34 30 27 36 -28 26z"/>
<path d="M754 3095 c6 -23 4 -25 -28 -25 -35 0 -46 -13 -46 -51 0 -10 5 -19
11 -19 6 0 8 -9 4 -20 -7 -22 5 -26 23 -8 16 16 15 28 -3 28 -18 0 -18 5 -5
30 12 23 108 39 120 20 9 -15 53 -3 47 13 -2 7 -22 13 -45 15 -27 2 -42 8 -42
17 0 11 -20 25 -37 25 -3 0 -2 -11 1 -25z"/>
<path d="M617 3061 c6 -51 6 -51 -26 -57 -40 -8 -40 -24 0 -24 46 0 36 -37
-18 -64 -24 -12 -42 -27 -40 -35 4 -24 23 -23 53 2 l29 25 -3 -44 c-3 -32 -8
-41 -18 -37 -17 6 -18 -1 -4 -28 13 -23 36 -25 44 -3 3 9 6 41 6 73 0 32 6 63
13 70 10 11 10 14 0 18 -18 7 -16 33 2 33 19 0 20 16 1 27 -9 5 -13 23 -12 48
1 30 -3 40 -16 43 -15 3 -16 -3 -11 -47z"/>
<path d="M763 3043 c-19 -4 -21 -9 -16 -39 5 -32 3 -36 -26 -47 -33 -12 -41
-27 -15 -27 26 0 134 62 134 76 0 19 -20 18 -42 -3 -10 -9 -21 -14 -24 -10 -3
3 4 14 15 24 35 30 28 37 -26 26z"/>
<path d="M754 2645 c6 -23 4 -25 -28 -25 -35 0 -46 -13 -46 -51 0 -10 5 -19
11 -19 6 0 8 -9 4 -20 -7 -22 5 -26 23 -8 16 16 15 28 -3 28 -18 0 -18 5 -5
30 12 23 108 39 120 20 9 -15 53 -3 47 13 -2 7 -22 13 -45 15 -27 2 -42 8 -42
17 0 11 -20 25 -37 25 -3 0 -2 -11 1 -25z"/>
<path d="M617 2611 c6 -51 6 -51 -26 -57 -40 -8 -40 -24 0 -24 46 0 36 -37
-18 -64 -24 -12 -42 -27 -40 -35 4 -24 23 -23 53 2 l29 25 -3 -44 c-3 -32 -8
-41 -18 -37 -17 6 -18 -1 -4 -28 13 -23 36 -25 44 -3 3 9 6 41 6 73 0 32 6 63
13 70 10 11 10 14 0 18 -18 7 -16 33 2 33 19 0 20 16 1 27 -9 5 -13 23 -12 48
1 30 -3 40 -16 43 -15 3 -16 -3 -11 -47z"/>
<path d="M763 2593 c-19 -4 -21 -9 -16 -39 5 -32 3 -36 -26 -47 -34 -13 -39
-22 -15 -31 12 -5 14 -15 8 -52 -5 -37 -4 -46 7 -42 9 3 15 23 17 56 3 50 4
52 53 78 27 15 49 33 49 41 0 18 -20 16 -42 -4 -10 -9 -21 -14 -24 -10 -3 3 4
14 15 24 35 30 28 37 -26 26z"/>
<path d="M754 2195 c6 -23 4 -25 -28 -25 -35 0 -46 -13 -46 -51 0 -10 5 -19
11 -19 6 0 8 -9 4 -20 -7 -22 5 -26 23 -8 16 16 15 28 -3 28 -18 0 -18 5 -5
30 12 23 108 39 120 20 9 -15 53 -3 47 13 -2 7 -22 13 -45 15 -27 2 -42 8 -42
17 0 11 -20 25 -37 25 -3 0 -2 -11 1 -25z"/>
<path d="M617 2161 c6 -51 6 -51 -26 -57 -40 -8 -40 -24 0 -24 46 0 36 -37
-18 -64 -24 -12 -42 -27 -40 -35 4 -24 23 -23 53 2 l29 25 -3 -44 c-3 -32 -8
-41 -18 -37 -17 6 -18 -1 -4 -28 13 -23 36 -25 44 -3 3 9 6 41 6 73 0 32 6 63
13 70 10 11 10 14 0 18 -18 7 -16 33 2 33 19 0 20 16 1 27 -9 5 -13 23 -12 48
1 30 -3 40 -16 43 -15 3 -16 -3 -11 -47z"/>
<path d="M763 2143 c-19 -4 -21 -9 -16 -39 5 -32 3 -36 -26 -47 -34 -13 -39
-22 -15 -31 12 -5 14 -15 8 -52 -5 -37 -4 -46 7 -42 8 3 15 22 17 49 4 54 15
68 47 61 19 -3 25 -11 26 -31 2 -63 5 -74 17 -78 9 -4 12 13 12 61 0 65 0 66
-27 66 l-28 1 28 17 c27 17 37 42 15 42 -6 0 -20 -7 -30 -17 -10 -9 -21 -14
-24 -10 -3 3 4 14 15 24 35 30 28 37 -26 26z"/>
<path d="M754 1745 c6 -23 4 -25 -28 -25 -35 0 -46 -13 -46 -51 0 -10 5 -19
11 -19 6 0 8 -9 4 -20 -7 -22 5 -26 23 -8 16 16 15 28 -3 28 -18 0 -18 5 -5
30 12 23 108 39 120 20 9 -15 53 -3 47 13 -2 7 -22 13 -45 15 -27 2 -42 8 -42
17 0 11 -20 25 -37 25 -3 0 -2 -11 1 -25z"/>
<path d="M617 1711 c6 -51 6 -51 -26 -57 -40 -8 -40 -24 0 -24 46 0 36 -37
-18 -64 -24 -12 -42 -27 -40 -35 4 -24 23 -23 53 2 l29 25 -3 -44 c-3 -32 -8
-41 -18 -37 -17 6 -18 -1 -4 -28 13 -23 36 -25 44 -3 3 9 6 41 6 73 0 32 6 63
13 70 10 11 10 14 0 18 -18 7 -16 33 2 33 19 0 20 16 1 27 -9 5 -13 23 -12 48
1 30 -3 40 -16 43 -15 3 -16 -3 -11 -47z"/>
<path d="M763 1693 c-19 -4 -21 -9 -16 -39 5 -32 3 -36 -26 -47 -34 -13 -39
-22 -15 -31 12 -5 14 -15 8 -52 -5 -37 -4 -46 7 -42 8 2 15 18 17 35 3 25 9
32 34 37 38 7 41 5 42 -35 1 -18 7 -34 14 -36 9 -4 12 13 12 61 0 65 0 66 -27
66 l-28 1 28 17 c27 17 37 42 15 42 -6 0 -20 -7 -30 -17 -10 -9 -21 -14 -24
-10 -3 3 4 14 15 24 35 30 28 37 -26 26z m27 -114 c-43 -12 -54 -11 -41 5 7 8
22 11 39 8 l27 -6 -25 -7z"/>
<path d="M754 1295 c6 -23 4 -25 -28 -25 -35 0 -46 -13 -46 -51 0 -10 5 -19
11 -19 6 0 8 -9 4 -20 -7 -22 5 -26 23 -8 16 16 15 28 -3 28 -18 0 -18 5 -5
30 12 23 108 39 120 20 9 -15 53 -3 47 13 -2 7 -22 13 -45 15 -27 2 -42 8 -42
17 0 11 -20 25 -37 25 -3 0 -2 -11 1 -25z"/>
<path d="M617 1261 c6 -51 6 -51 -26 -57 -40 -8 -40 -24 0 -24 46 0 36 -37
-18 -64 -24 -12 -42 -27 -40 -35 4 -24 23 -23 53 2 l29 25 -3 -44 c-3 -32 -8
-41 -18 -37 -17 6 -18 -1 -4 -28 13 -23 36 -25 44 -3 3 9 6 41 6 73 0 32 6 63
13 70 10 11 10 14 0 18 -18 7 -16 33 2 33 19 0 20 16 1 27 -9 5 -13 23 -12 48
1 30 -3 40 -16 43 -15 3 -16 -3 -11 -47z"/>
<path d="M763 1243 c-19 -4 -21 -9 -16 -39 5 -32 3 -36 -26 -47 -34 -13 -39
-22 -15 -31 12 -5 14 -15 8 -51 -4 -32 -3 -45 6 -45 6 0 14 9 17 19 3 13 16
20 38 23 28 3 35 0 37 -16 2 -11 9 -21 16 -24 9 -3 12 14 12 62 0 65 0 66 -27
66 l-28 1 28 17 c27 17 37 42 15 42 -6 0 -20 -7 -30 -17 -10 -9 -21 -14 -24
-10 -3 3 4 14 15 24 35 30 28 37 -26 26z m27 -114 c-43 -12 -54 -11 -41 5 7 8
22 11 39 8 l27 -6 -25 -7z m10 -29 c-8 -5 -26 -9 -40 -9 l-25 1 25 8 c14 4 32
8 40 9 13 1 13 0 0 -9z"/>
<path d="M754 845 c6 -23 4 -25 -28 -25 -35 0 -46 -13 -46 -51 0 -10 5 -19 11
-19 6 0 8 -9 4 -20 -7 -22 5 -26 23 -8 16 16 15 28 -3 28 -18 0 -18 5 -5 30
12 23 108 39 120 20 9 -15 53 -3 47 13 -2 7 -22 13 -45 15 -27 2 -42 8 -42 17
0 11 -20 25 -37 25 -3 0 -2 -11 1 -25z"/>
<path d="M617 811 c6 -51 6 -51 -26 -57 -40 -8 -40 -24 0 -24 46 0 36 -37 -18
-64 -24 -12 -42 -27 -40 -35 4 -24 23 -23 53 2 l29 25 -3 -44 c-3 -32 -8 -41
-18 -37 -17 6 -18 -1 -4 -28 13 -23 36 -25 44 -3 3 9 6 41 6 73 0 32 6 63 13
70 10 11 10 14 0 18 -18 7 -16 33 2 33 19 0 20 16 1 27 -9 5 -13 23 -12 48 1
30 -3 40 -16 43 -15 3 -16 -3 -11 -47z"/>
<path d="M763 793 c-19 -4 -21 -9 -16 -39 5 -32 3 -36 -26 -47 -34 -13 -39
-22 -15 -31 12 -5 14 -15 9 -49 l-7 -42 66 0 66 0 0 63 c0 61 0 62 -27 62
l-28 1 28 17 c27 17 37 42 15 42 -6 0 -20 -7 -30 -17 -10 -9 -21 -14 -24 -10
-3 3 4 14 15 24 35 30 28 37 -26 26z m27 -114 c-43 -12 -54 -11 -41 5 7 8 22
11 39 8 l27 -6 -25 -7z m10 -29 c-8 -5 -26 -9 -40 -9 l-25 1 25 8 c14 4 32 8
40 9 13 1 13 0 0 -9z m10 -30 c0 -5 -17 -9 -37 -9 l-38 2 35 7 c19 4 36 8 38
9 1 0 2 -3 2 -9z"/>
<path d="M754 395 c6 -23 4 -25 -28 -25 -35 0 -46 -13 -46 -51 0 -10 5 -19 11
-19 6 0 8 -9 4 -20 -7 -22 5 -26 23 -8 16 16 15 28 -3 28 -18 0 -18 5 -5 30
12 23 108 39 120 20 9 -15 53 -3 47 13 -2 7 -22 13 -45 15 -27 2 -42 8 -42 17
0 11 -20 25 -37 25 -3 0 -2 -11 1 -25z"/>
<path d="M617 361 c6 -51 6 -51 -26 -57 -40 -8 -40 -24 0 -24 46 0 36 -37 -18
-64 -24 -12 -42 -27 -40 -35 4 -24 23 -23 53 2 l29 25 -3 -44 c-3 -32 -8 -41
-18 -37 -17 6 -18 -1 -4 -28 13 -23 36 -25 44 -3 3 9 6 41 6 73 0 32 6 63 13
70 10 11 10 14 0 18 -18 7 -16 33 2 33 19 0 20 16 1 27 -9 5 -13 23 -12 48 1
30 -3 40 -16 43 -15 3 -16 -3 -11 -47z"/>
<path d="M763 343 c-19 -4 -21 -9 -16 -39 5 -32 3 -36 -26 -47 -34 -12 -39
-22 -17 -30 18 -7 15 -109 -4 -132 -7 -8 -10 -18 -7 -22 8 -8 77 45 77 59 0 7
13 8 35 5 l35 -6 0 65 c0 63 0 64 -27 64 l-28 1 28 17 c27 17 37 42 15 42 -6
0 -20 -7 -30 -17 -10 -9 -21 -14 -24 -10 -3 3 4 14 15 24 35 30 28 37 -26 26z
m27 -114 c-43 -12 -54 -11 -41 5 7 8 22 11 39 8 l27 -6 -25 -7z m10 -29 c-8
-5 -26 -9 -40 -9 l-25 1 25 8 c14 4 32 8 40 9 13 1 13 0 0 -9z m10 -30 c0 -5
-17 -9 -37 -9 l-38 2 35 7 c19 4 36 8 38 9 1 0 2 -3 2 -9z"/>
</g>
</svg>
