<?xml version="1.0" standalone="no"?>
<!DOCTYPE svg PUBLIC "-//W3C//DTD SVG 20010904//EN"
 "http://www.w3.org/TR/2001/REC-SVG-20010904/DTD/svg10.dtd">
<svg version="1.0" xmlns="http://www.w3.org/2000/svg"
 width="95.000000pt" height="725.000000pt" viewBox="0 0 95.000000 725.000000"
 preserveAspectRatio="xMidYMid meet">
<metadata>
Created by potrace 1.16, written by Peter Selinger 2001-2019
</metadata>
<g transform="translate(0.000000,725.000000) scale(0.100000,-0.100000)"
fill="#000000" stroke="none">
<path d="M153 7123 c2 -43 0 -48 -20 -51 -28 -4 -30 -22 -3 -22 14 0 20 -7 20
-24 0 -19 -9 -29 -40 -43 -22 -10 -38 -22 -36 -28 5 -18 37 -17 57 1 18 17 19
16 19 -24 0 -31 -4 -42 -15 -42 -18 0 -19 -9 0 -34 22 -29 35 -9 35 57 0 43 5
70 17 87 12 17 13 25 5 28 -13 4 -17 32 -4 32 4 0 17 3 29 6 18 5 21 3 16 -16
-4 -17 -2 -21 8 -18 19 6 24 39 7 49 -10 7 -8 10 10 15 30 8 28 24 -3 24 -14
0 -29 -8 -35 -20 -6 -11 -18 -20 -26 -20 -12 0 -15 10 -12 42 2 34 -1 43 -14
46 -15 3 -18 -3 -15 -45z"/>
<path d="M290 7151 c0 -29 14 -41 49 -41 25 0 32 -3 22 -9 -13 -8 -13 -12 0
-27 10 -12 10 -15 1 -10 -7 4 -19 2 -27 -4 -8 -6 -24 -9 -36 -5 -18 6 -20 4
-14 -14 4 -12 2 -21 -4 -21 -6 0 -11 -9 -11 -20 0 -25 9 -25 26 -2 12 16 13
15 14 -5 0 -18 -6 -23 -25 -23 -24 0 -30 9 -26 38 1 6 -7 12 -18 12 -17 0 -20
-5 -14 -30 5 -27 3 -30 -21 -30 -14 0 -26 -5 -26 -11 0 -8 14 -10 44 -6 25 4
81 9 125 13 45 4 81 11 81 15 0 5 -11 9 -25 9 -22 0 -25 3 -19 25 5 19 2 25
-11 25 -15 0 -15 1 -1 16 9 8 16 24 16 35 0 10 7 19 15 19 22 0 18 28 -4 35
-11 3 -30 3 -44 0 -17 -5 -26 -2 -30 9 -7 17 -37 22 -37 7z m60 -156 c0 -8 -4
-15 -10 -15 -5 0 -7 7 -4 15 4 8 8 15 10 15 2 0 4 -7 4 -15z"/>
<path d="M290 7086 c0 -9 7 -16 16 -16 9 0 14 5 12 12 -6 18 -28 21 -28 4z"/>
<path d="M588 7073 c-16 -2 -28 -9 -28 -14 0 -10 43 -12 78 -3 12 4 22 10 22
15 0 9 -22 10 -72 2z"/>
<path d="M253 6933 c-38 -7 -27 -26 12 -20 33 5 35 4 35 -23 0 -15 -6 -30 -12
-33 -10 -3 -9 -9 4 -22 24 -25 38 -10 38 41 0 42 1 44 30 44 17 0 30 5 30 10
0 10 -92 12 -137 3z"/>
<path d="M603 6673 c2 -43 0 -48 -20 -51 -28 -4 -30 -22 -3 -22 18 0 20 -7 20
-80 0 -64 -3 -80 -15 -80 -18 0 -19 -9 0 -34 20 -27 35 -11 35 38 0 88 12 166
26 166 8 0 14 5 14 10 0 6 -7 10 -16 10 -12 0 -15 9 -12 42 2 34 -1 43 -14 46
-15 3 -18 -3 -15 -45z"/>
<path d="M603 6223 c2 -43 0 -48 -20 -51 -28 -4 -30 -22 -3 -22 14 0 20 -7 20
-24 0 -19 -9 -29 -40 -43 -22 -10 -38 -22 -36 -28 5 -18 37 -17 57 1 18 17 19
16 19 -24 0 -31 -4 -42 -15 -42 -18 0 -19 -9 0 -34 22 -29 35 -9 35 57 0 43 5
70 17 87 12 17 13 25 5 28 -17 5 -15 32 3 32 8 0 15 5 15 10 0 6 -7 10 -16 10
-12 0 -15 9 -12 42 2 34 -1 43 -14 46 -15 3 -18 -3 -15 -45z"/>
<path d="M603 5773 c2 -43 0 -48 -20 -51 -28 -4 -30 -22 -3 -22 14 0 20 -7 20
-24 0 -19 -9 -29 -40 -43 -22 -10 -38 -22 -36 -28 5 -18 37 -17 57 1 18 17 19
16 19 -24 0 -31 -4 -42 -15 -42 -18 0 -19 -9 0 -34 22 -29 35 -9 35 57 0 43 5
70 17 87 12 17 13 25 5 28 -17 5 -15 32 3 32 8 0 15 5 15 10 0 6 -7 10 -16 10
-12 0 -15 9 -12 42 2 34 -1 43 -14 46 -15 3 -18 -3 -15 -45z"/>
<path d="M742 5794 c2 -11 11 -20 22 -22 13 -3 17 1 14 14 -2 11 -11 20 -22
22 -13 3 -17 -1 -14 -14z"/>
<path d="M603 5323 c2 -43 0 -48 -20 -51 -28 -4 -30 -22 -3 -22 14 0 20 -7 20
-24 0 -19 -9 -29 -40 -43 -22 -10 -38 -22 -36 -28 5 -18 37 -17 57 1 18 17 19
16 19 -24 0 -31 -4 -42 -15 -42 -18 0 -19 -9 0 -34 22 -29 35 -9 35 57 0 43 5
70 17 87 12 17 13 25 5 28 -23 7 -12 30 18 37 17 4 32 15 35 26 10 30 -5 37
-22 12 -26 -38 -45 -29 -41 19 2 34 -1 43 -14 46 -15 3 -18 -3 -15 -45z"/>
<path d="M742 5344 c2 -11 11 -20 22 -22 13 -3 17 1 14 14 -2 11 -11 20 -22
22 -13 3 -17 -1 -14 -14z"/>
<path d="M603 4873 c2 -43 0 -48 -20 -51 -28 -4 -30 -22 -3 -22 14 0 20 -7 20
-24 0 -19 -9 -29 -40 -43 -22 -10 -38 -22 -36 -28 5 -18 37 -17 57 1 18 17 19
16 19 -24 0 -31 -4 -42 -15 -42 -18 0 -19 -9 0 -34 22 -29 35 -9 35 57 0 43 5
70 17 87 12 17 13 25 5 28 -23 7 -12 30 17 37 16 3 32 13 35 21 3 8 12 14 21
14 8 0 15 5 15 10 0 19 -49 10 -60 -10 -6 -11 -18 -20 -26 -20 -12 0 -15 10
-12 42 2 34 -1 43 -14 46 -15 3 -18 -3 -15 -45z"/>
<path d="M740 4901 c0 -28 15 -41 45 -41 18 0 35 -4 37 -10 4 -14 48 0 48 15
0 18 -32 27 -63 20 -17 -5 -26 -2 -30 9 -7 17 -37 22 -37 7z"/>
<path d="M603 4423 c2 -43 0 -48 -20 -51 -28 -4 -30 -22 -3 -22 14 0 20 -7 20
-24 0 -19 -9 -29 -40 -43 -22 -10 -38 -22 -36 -28 5 -18 37 -17 57 1 18 17 19
16 19 -24 0 -31 -4 -42 -15 -42 -18 0 -19 -9 0 -34 22 -29 35 -9 35 57 0 43 5
70 17 87 12 17 13 25 5 28 -13 4 -17 32 -4 32 4 0 17 3 29 6 18 5 21 3 16 -16
-4 -17 -2 -21 8 -18 19 6 24 39 7 49 -10 7 -8 10 10 15 30 8 28 24 -3 24 -14
0 -29 -8 -35 -20 -6 -11 -18 -20 -26 -20 -12 0 -15 10 -12 42 2 34 -1 43 -14
46 -15 3 -18 -3 -15 -45z"/>
<path d="M740 4451 c0 -28 15 -41 45 -41 18 0 35 -4 37 -10 4 -14 48 0 48 15
0 18 -32 27 -63 20 -17 -5 -26 -2 -30 9 -7 17 -37 22 -37 7z"/>
<path d="M603 3973 c2 -43 0 -48 -20 -51 -28 -4 -30 -22 -3 -22 14 0 20 -7 20
-24 0 -19 -9 -29 -40 -43 -22 -10 -38 -22 -36 -28 5 -18 37 -17 57 1 18 17 19
16 19 -24 0 -31 -4 -42 -15 -42 -18 0 -19 -9 0 -34 22 -29 35 -9 35 57 0 43 5
70 17 87 12 17 13 25 5 28 -13 4 -17 32 -4 32 4 0 17 3 29 6 18 5 21 3 16 -16
-4 -17 -2 -21 8 -18 19 6 24 39 7 49 -10 7 -8 10 10 15 30 8 28 24 -3 24 -14
0 -29 -8 -35 -20 -6 -11 -18 -20 -26 -20 -12 0 -15 10 -12 42 2 34 -1 43 -14
46 -15 3 -18 -3 -15 -45z"/>
<path d="M740 4001 c0 -28 15 -41 45 -41 18 0 35 -4 37 -10 4 -14 48 0 48 15
0 18 -32 27 -63 20 -17 -5 -26 -2 -30 9 -7 17 -37 22 -37 7z"/>
<path d="M784 3909 c-3 -6 -17 -8 -31 -4 -18 4 -24 2 -21 -7 6 -16 68 -22 88
-8 13 9 13 11 0 20 -19 13 -27 12 -36 -1z"/>
<path d="M603 3523 c2 -43 0 -48 -20 -51 -28 -4 -30 -22 -3 -22 14 0 20 -7 20
-24 0 -19 -9 -29 -40 -43 -22 -10 -38 -22 -36 -28 5 -18 37 -17 57 1 18 17 19
16 19 -24 0 -31 -4 -42 -15 -42 -18 0 -19 -9 0 -34 22 -29 35 -9 35 57 0 43 5
70 17 87 12 17 13 25 5 28 -13 4 -17 32 -4 32 4 0 17 3 29 6 18 5 21 3 16 -16
-4 -17 -2 -21 8 -18 19 6 24 39 7 49 -10 7 -8 10 10 15 30 8 28 24 -3 24 -14
0 -29 -8 -35 -20 -6 -11 -18 -20 -26 -20 -12 0 -15 10 -12 42 2 34 -1 43 -14
46 -15 3 -18 -3 -15 -45z"/>
<path d="M740 3551 c0 -28 15 -41 45 -41 18 0 35 -4 37 -10 4 -14 48 0 48 15
0 18 -32 27 -63 20 -17 -5 -26 -2 -30 9 -7 17 -37 22 -37 7z"/>
<path d="M740 3486 c0 -9 7 -16 16 -16 9 0 14 5 12 12 -6 18 -28 21 -28 4z"/>
<path d="M784 3459 c-3 -6 -17 -8 -31 -4 -18 4 -24 2 -21 -7 6 -16 68 -22 88
-8 13 9 13 11 0 20 -19 13 -27 12 -36 -1z"/>
<path d="M603 3073 c2 -43 0 -48 -20 -51 -28 -4 -30 -22 -3 -22 14 0 20 -7 20
-24 0 -19 -9 -29 -40 -43 -22 -10 -38 -22 -36 -28 5 -18 37 -17 57 1 18 17 19
16 19 -24 0 -31 -4 -42 -15 -42 -18 0 -19 -9 0 -34 22 -29 35 -9 35 57 0 43 5
70 17 87 12 17 13 25 5 28 -13 4 -17 32 -4 32 4 0 17 3 29 6 18 5 21 3 16 -16
-4 -17 -2 -21 8 -18 19 6 24 39 7 49 -10 7 -8 10 10 15 30 8 28 24 -3 24 -14
0 -29 -8 -35 -20 -6 -11 -18 -20 -26 -20 -12 0 -15 10 -12 42 2 34 -1 43 -14
46 -15 3 -18 -3 -15 -45z"/>
<path d="M740 3101 c0 -29 14 -41 49 -41 25 0 32 -3 22 -9 -13 -8 -13 -12 0
-27 10 -12 10 -15 1 -10 -7 4 -19 2 -27 -4 -8 -7 -24 -9 -36 -5 -15 5 -20 3
-17 -6 3 -8 21 -15 40 -17 39 -3 68 17 68 49 0 10 7 19 15 19 22 0 18 28 -4
35 -11 3 -30 3 -44 0 -17 -5 -26 -2 -30 9 -7 17 -37 22 -37 7z"/>
<path d="M740 3036 c0 -9 7 -16 16 -16 17 0 14 22 -4 28 -7 2 -12 -3 -12 -12z"/>
<path d="M603 2623 c2 -43 0 -48 -20 -51 -28 -4 -30 -22 -3 -22 14 0 20 -7 20
-24 0 -19 -9 -29 -40 -43 -22 -10 -38 -22 -36 -28 5 -18 37 -17 57 1 18 17 19
16 19 -24 0 -31 -4 -42 -15 -42 -18 0 -19 -9 0 -34 22 -29 35 -9 35 57 0 43 5
70 17 87 12 17 13 25 5 28 -13 4 -17 32 -4 32 4 0 17 3 29 6 18 5 21 3 16 -16
-4 -17 -2 -21 8 -18 19 6 24 39 7 49 -10 7 -8 10 10 15 30 8 28 24 -3 24 -14
0 -29 -8 -35 -20 -6 -11 -18 -20 -26 -20 -12 0 -15 10 -12 42 2 34 -1 43 -14
46 -15 3 -18 -3 -15 -45z"/>
<path d="M740 2651 c0 -29 14 -41 49 -41 25 0 32 -3 22 -9 -13 -8 -13 -12 0
-27 10 -12 10 -15 1 -10 -7 4 -19 2 -27 -4 -8 -7 -24 -9 -36 -5 -15 5 -20 3
-17 -6 3 -8 21 -15 40 -17 39 -3 68 17 68 49 0 10 7 19 15 19 22 0 18 28 -4
35 -11 3 -30 3 -44 0 -17 -5 -26 -2 -30 9 -7 17 -37 22 -37 7z"/>
<path d="M740 2586 c0 -9 7 -16 16 -16 17 0 14 22 -4 28 -7 2 -12 -3 -12 -12z"/>
<path d="M675 2498 c15 -48 41 -52 29 -4 -3 14 -13 26 -21 26 -10 0 -12 -6 -8
-22z"/>
<path d="M603 2173 c2 -43 0 -48 -20 -51 -28 -4 -30 -22 -3 -22 14 0 20 -7 20
-24 0 -19 -9 -29 -40 -43 -22 -10 -38 -22 -36 -28 5 -18 37 -17 57 1 18 17 19
16 19 -24 0 -31 -4 -42 -15 -42 -18 0 -19 -9 0 -34 22 -29 35 -9 35 57 0 43 5
70 17 87 12 17 13 25 5 28 -13 4 -17 32 -4 32 4 0 17 3 29 6 18 5 21 3 16 -16
-4 -17 -2 -21 8 -18 19 6 24 39 7 49 -10 7 -8 10 10 15 30 8 28 24 -3 24 -14
0 -29 -8 -35 -20 -6 -11 -18 -20 -26 -20 -12 0 -15 10 -12 42 2 34 -1 43 -14
46 -15 3 -18 -3 -15 -45z"/>
<path d="M740 2201 c0 -29 14 -41 49 -41 25 0 32 -3 22 -9 -13 -8 -13 -12 0
-27 10 -12 10 -15 1 -10 -7 4 -19 2 -27 -4 -8 -7 -24 -9 -36 -5 -18 6 -21 4
-16 -10 4 -9 7 -21 7 -26 0 -5 14 -9 30 -9 23 0 30 -4 30 -20 0 -25 16 -26 30
-1 14 28 13 41 -6 41 -14 0 -14 1 0 16 9 8 16 24 16 35 0 10 7 19 15 19 22 0
18 28 -4 35 -11 3 -30 3 -44 0 -17 -5 -26 -2 -30 9 -7 17 -37 22 -37 7z"/>
<path d="M740 2136 c0 -9 7 -16 16 -16 17 0 14 22 -4 28 -7 2 -12 -3 -12 -12z"/>
<path d="M670 2066 c0 -3 4 -16 10 -30 13 -35 29 -33 28 4 -1 22 -6 30 -20 30
-10 0 -18 -2 -18 -4z"/>
<path d="M603 1723 c2 -43 0 -48 -20 -51 -28 -4 -30 -22 -3 -22 14 0 20 -7 20
-24 0 -19 -9 -29 -40 -43 -22 -10 -38 -22 -36 -28 5 -18 37 -17 57 1 18 17 19
16 19 -24 0 -31 -4 -42 -15 -42 -18 0 -19 -9 0 -34 22 -29 35 -9 35 57 0 43 5
70 17 87 12 17 13 25 5 28 -13 4 -17 32 -4 32 4 0 17 3 29 6 18 5 21 3 16 -16
-4 -17 -2 -21 8 -18 19 6 24 39 7 49 -10 7 -8 10 10 15 30 8 28 24 -3 24 -14
0 -29 -8 -35 -20 -6 -11 -18 -20 -26 -20 -12 0 -15 10 -12 42 2 34 -1 43 -14
46 -15 3 -18 -3 -15 -45z"/>
<path d="M740 1751 c0 -29 14 -41 49 -41 25 0 32 -3 22 -9 -13 -8 -13 -12 0
-27 10 -12 10 -15 1 -10 -7 4 -19 2 -27 -4 -8 -6 -24 -9 -36 -5 -18 6 -20 4
-14 -14 4 -12 2 -21 -4 -21 -6 0 -11 -9 -11 -20 0 -23 15 -27 24 -5 3 8 17 15
31 15 18 0 25 -5 25 -20 0 -25 16 -26 30 -1 14 28 13 41 -6 41 -14 0 -14 1 0
16 9 8 16 24 16 35 0 10 7 19 15 19 22 0 18 28 -4 35 -11 3 -30 3 -44 0 -17
-5 -26 -2 -30 9 -7 17 -37 22 -37 7z"/>
<path d="M740 1686 c0 -9 7 -16 16 -16 17 0 14 22 -4 28 -7 2 -12 -3 -12 -12z"/>
<path d="M670 1616 c0 -3 4 -16 10 -30 13 -35 29 -33 28 4 -1 22 -6 30 -20 30
-10 0 -18 -2 -18 -4z"/>
<path d="M603 1273 c2 -43 0 -48 -20 -51 -28 -4 -30 -22 -3 -22 14 0 20 -7 20
-24 0 -19 -9 -29 -40 -43 -22 -10 -38 -22 -36 -28 5 -18 37 -17 57 1 18 17 19
16 19 -24 0 -31 -4 -42 -15 -42 -18 0 -19 -9 0 -34 22 -29 35 -9 35 57 0 43 5
70 17 87 12 17 13 25 5 28 -13 4 -17 32 -4 32 4 0 17 3 29 6 18 5 21 3 16 -16
-4 -17 -2 -21 8 -18 19 6 24 39 7 49 -10 7 -8 10 10 15 30 8 28 24 -3 24 -14
0 -29 -8 -35 -20 -6 -11 -18 -20 -26 -20 -12 0 -15 10 -12 42 2 34 -1 43 -14
46 -15 3 -18 -3 -15 -45z"/>
<path d="M740 1301 c0 -29 14 -41 49 -41 25 0 32 -3 22 -9 -13 -8 -13 -12 0
-27 10 -12 10 -15 1 -10 -7 4 -19 2 -27 -4 -8 -6 -24 -9 -36 -5 -18 6 -20 4
-14 -14 4 -12 2 -21 -4 -21 -6 0 -11 -9 -11 -20 0 -25 9 -25 26 -2 12 16 13
15 14 -5 0 -13 4 -23 8 -23 5 0 14 10 20 23 l11 22 0 -22 c1 -28 17 -30 31 -4
14 28 13 41 -6 41 -14 0 -14 1 0 16 9 8 16 24 16 35 0 10 7 19 15 19 22 0 18
28 -4 35 -11 3 -30 3 -44 0 -17 -5 -26 -2 -30 9 -7 17 -37 22 -37 7z"/>
<path d="M740 1236 c0 -9 7 -16 16 -16 9 0 14 5 12 12 -6 18 -28 21 -28 4z"/>
<path d="M670 1166 c0 -3 4 -16 10 -30 13 -35 29 -33 28 4 -1 22 -6 30 -20 30
-10 0 -18 -2 -18 -4z"/>
<path d="M603 823 c2 -43 0 -48 -20 -51 -28 -4 -30 -22 -3 -22 14 0 20 -7 20
-24 0 -19 -9 -29 -40 -43 -22 -10 -38 -22 -36 -28 5 -18 37 -17 57 1 18 17 19
16 19 -24 0 -31 -4 -42 -15 -42 -18 0 -19 -9 0 -34 22 -29 35 -9 35 57 0 43 5
70 17 87 12 17 13 25 5 28 -13 4 -17 32 -4 32 4 0 17 3 29 6 18 5 21 3 16 -16
-4 -17 -2 -21 8 -18 19 6 24 39 7 49 -10 7 -8 10 10 15 30 8 28 24 -3 24 -14
0 -29 -8 -35 -20 -6 -11 -18 -20 -26 -20 -12 0 -15 10 -12 42 2 34 -1 43 -14
46 -15 3 -18 -3 -15 -45z"/>
<path d="M740 851 c0 -29 14 -41 49 -41 25 0 32 -3 22 -9 -13 -8 -13 -12 0
-27 10 -12 10 -15 1 -10 -7 4 -19 2 -27 -4 -8 -6 -24 -9 -36 -5 -18 6 -20 4
-14 -14 4 -12 2 -21 -4 -21 -6 0 -11 -9 -11 -20 0 -25 9 -25 26 -2 12 16 13
15 14 -5 0 -18 -6 -23 -25 -23 -24 0 -30 9 -26 38 1 6 -7 12 -18 12 -17 0 -20
-5 -14 -30 5 -27 3 -30 -21 -30 -14 0 -26 -5 -26 -11 0 -8 14 -10 44 -6 25 4
81 9 125 13 45 4 81 11 81 15 0 5 -11 9 -25 9 -22 0 -25 3 -19 25 5 19 2 25
-11 25 -15 0 -15 1 -1 16 9 8 16 24 16 35 0 10 7 19 15 19 22 0 18 28 -4 35
-11 3 -30 3 -44 0 -17 -5 -26 -2 -30 9 -7 17 -37 22 -37 7z m60 -156 c0 -8 -4
-15 -10 -15 -5 0 -7 7 -4 15 4 8 8 15 10 15 2 0 4 -7 4 -15z"/>
<path d="M740 786 c0 -9 7 -16 16 -16 9 0 14 5 12 12 -6 18 -28 21 -28 4z"/>
<path d="M603 373 c2 -43 0 -48 -20 -51 -28 -4 -30 -22 -3 -22 14 0 20 -7 20
-24 0 -19 -9 -29 -40 -43 -22 -10 -38 -22 -36 -28 5 -18 37 -17 57 1 18 17 19
16 19 -24 0 -31 -4 -42 -15 -42 -18 0 -19 -9 0 -34 22 -29 35 -9 35 57 0 43 5
70 17 87 12 17 13 25 5 28 -13 4 -17 32 -4 32 4 0 17 3 29 6 18 5 21 3 16 -16
-4 -17 -2 -21 8 -18 19 6 24 39 7 49 -10 7 -8 10 10 15 30 8 28 24 -3 24 -14
0 -29 -8 -35 -20 -6 -11 -18 -20 -26 -20 -12 0 -15 10 -12 42 2 34 -1 43 -14
46 -15 3 -18 -3 -15 -45z"/>
<path d="M740 401 c0 -29 14 -41 49 -41 25 0 32 -3 22 -9 -13 -8 -13 -12 0
-27 10 -12 10 -15 1 -10 -7 4 -19 2 -27 -4 -8 -6 -24 -9 -36 -5 -18 6 -20 4
-14 -14 4 -12 2 -21 -4 -21 -6 0 -11 -9 -11 -20 0 -25 9 -25 26 -2 12 16 13
15 14 -5 0 -18 -6 -23 -25 -23 -24 0 -30 9 -26 38 1 6 -7 12 -18 12 -17 0 -20
-5 -14 -30 5 -27 3 -30 -21 -30 -14 0 -26 -5 -26 -11 0 -8 14 -10 44 -6 25 4
81 9 125 13 45 4 81 11 81 15 0 5 -11 9 -25 9 -22 0 -25 3 -19 25 5 19 2 25
-11 25 -15 0 -15 1 -1 16 9 8 16 24 16 35 0 10 7 19 15 19 22 0 18 28 -4 35
-11 3 -30 3 -44 0 -17 -5 -26 -2 -30 9 -7 17 -37 22 -37 7z m60 -156 c0 -8 -4
-15 -10 -15 -5 0 -7 7 -4 15 4 8 8 15 10 15 2 0 4 -7 4 -15z"/>
<path d="M740 336 c0 -9 7 -16 16 -16 9 0 14 5 12 12 -6 18 -28 21 -28 4z"/>
<path d="M703 183 c-40 -8 -26 -26 15 -19 20 3 56 6 80 6 23 0 42 5 42 10 0
10 -92 12 -137 3z"/>
</g>
</svg>
