<?xml version="1.0" standalone="no"?>
<!DOCTYPE svg PUBLIC "-//W3C//DTD SVG 20010904//EN"
 "http://www.w3.org/TR/2001/REC-SVG-20010904/DTD/svg10.dtd">
<svg version="1.0" xmlns="http://www.w3.org/2000/svg"
 width="95.000000pt" height="725.000000pt" viewBox="0 0 95.000000 725.000000"
 preserveAspectRatio="xMidYMid meet">
<metadata>
Created by potrace 1.16, written by Peter Selinger 2001-2019
</metadata>
<g transform="translate(0.000000,725.000000) scale(0.100000,-0.100000)"
fill="#000000" stroke="none">
<path d="M280 7161 c-5 -11 -10 -27 -10 -35 0 -10 -9 -16 -26 -16 -21 0 -24
-4 -19 -20 7 -21 3 -23 -33 -14 -20 6 -23 12 -20 47 2 32 -1 42 -14 45 -14 3
-16 -5 -15 -45 2 -43 0 -48 -21 -51 -30 -5 -28 -22 3 -22 41 0 32 -35 -15 -61
-41 -23 -53 -49 -23 -49 9 0 25 7 35 17 17 15 18 14 18 -25 0 -22 -5 -42 -11
-44 -14 -5 0 -38 16 -38 18 0 25 24 25 90 0 39 5 62 15 70 13 11 15 8 15 -14
0 -23 3 -26 20 -21 14 5 20 2 20 -9 0 -11 -9 -16 -30 -16 -16 0 -30 -4 -30
-10 0 -5 12 -10 27 -10 l26 0 -23 -25 c-13 -14 -21 -28 -17 -31 10 -10 55 23
62 46 5 15 15 20 41 20 19 0 34 5 34 10 0 6 -13 10 -30 10 -16 0 -30 5 -30 10
0 6 11 10 25 10 23 0 25 3 25 50 0 43 -3 50 -20 50 -11 0 -20 5 -20 10 0 6 9
10 20 10 11 0 20 5 20 10 0 6 -7 10 -17 10 -15 0 -15 2 1 19 10 11 15 25 11
30 -10 17 -23 13 -35 -8z m-23 -111 c-4 -34 -2 -40 13 -40 10 0 21 5 23 10 3
6 4 5 3 -2 -1 -7 -19 -14 -39 -16 -34 -3 -37 -1 -37 22 0 18 4 24 15 20 11 -5
15 1 15 20 0 14 3 26 6 26 4 0 4 -18 1 -40z m-57 1 c0 -5 -7 -11 -15 -15 -9
-3 -15 0 -15 9 0 8 7 15 15 15 8 0 15 -4 15 -9z"/>
<path d="M214 7145 c3 -9 6 -19 6 -21 0 -2 7 -4 16 -4 22 0 13 34 -10 38 -14
3 -17 0 -12 -13z"/>
<path d="M378 7093 c-22 -5 -24 -23 -3 -23 18 0 19 -12 4 -27 -9 -9 -8 -18 5
-37 19 -30 21 -53 4 -59 -10 -3 -10 -7 1 -20 19 -24 38 -21 45 7 7 28 0 53
-22 79 -14 16 -13 20 7 41 34 36 15 54 -41 39z"/>
<path d="M578 7073 c-16 -2 -28 -9 -28 -14 0 -10 43 -12 78 -3 12 4 22 10 22
15 0 9 -22 10 -72 2z"/>
<path d="M270 6924 c0 -16 23 -44 35 -44 19 0 19 15 -1 34 -15 16 -34 21 -34
10z"/>
<path d="M280 6711 c-5 -11 -10 -27 -10 -35 0 -10 -9 -16 -26 -16 -21 0 -24
-4 -19 -20 7 -21 3 -23 -33 -14 -20 6 -23 12 -20 47 2 32 -1 42 -14 45 -14 3
-16 -5 -15 -45 2 -43 0 -48 -21 -51 -30 -5 -28 -22 3 -22 41 0 32 -35 -15 -61
-41 -23 -53 -49 -23 -49 9 0 25 7 35 17 17 15 18 14 18 -25 0 -22 -5 -42 -11
-44 -14 -5 0 -38 16 -38 18 0 25 24 25 90 0 39 5 62 15 70 13 11 15 8 15 -14
0 -23 3 -26 20 -21 14 5 20 2 20 -9 0 -11 -9 -16 -30 -16 -16 0 -30 -4 -30
-10 0 -5 12 -10 27 -10 l26 0 -23 -25 c-13 -14 -21 -28 -17 -31 10 -10 55 23
62 46 5 15 15 20 41 20 l34 0 0 -65 c0 -36 4 -65 9 -65 12 0 21 77 21 176 0
68 3 84 15 84 18 0 19 -12 4 -27 -9 -9 -8 -18 5 -37 19 -30 21 -53 4 -59 -10
-3 -10 -7 1 -20 19 -24 38 -21 45 7 7 28 0 53 -22 79 -14 16 -13 20 8 42 32
34 17 47 -44 39 -45 -7 -47 -8 -41 -35 3 -15 3 -43 -1 -63 -5 -31 -10 -36 -35
-36 -16 0 -29 5 -29 10 0 6 11 10 25 10 23 0 25 3 25 50 0 43 -3 50 -20 50
-11 0 -20 5 -20 10 0 6 9 10 20 10 11 0 20 5 20 10 0 6 -7 10 -17 10 -15 0
-15 2 1 19 10 11 15 25 11 30 -10 17 -23 13 -35 -8z m-23 -111 c-4 -34 -2 -40
13 -40 10 0 21 5 23 10 3 6 4 5 3 -2 -1 -7 -19 -14 -39 -16 -34 -3 -37 -1 -37
22 0 18 4 24 15 20 11 -5 15 1 15 20 0 14 3 26 6 26 4 0 4 -18 1 -40z m-57 1
c0 -5 -7 -11 -15 -15 -9 -3 -15 0 -15 9 0 8 7 15 15 15 8 0 15 -4 15 -9z"/>
<path d="M593 6673 c2 -43 0 -48 -20 -51 -31 -5 -29 -22 2 -22 l26 0 -7 -77
c-4 -43 -11 -81 -16 -84 -12 -8 1 -39 17 -39 20 0 25 24 25 121 0 72 3 89 15
89 8 0 15 5 15 10 0 6 -7 10 -16 10 -12 0 -15 9 -12 42 2 33 -1 43 -14 46 -14
3 -16 -5 -15 -45z"/>
<path d="M214 6695 c3 -9 6 -19 6 -21 0 -2 7 -4 16 -4 22 0 13 34 -10 38 -14
3 -17 0 -12 -13z"/>
<path d="M270 6474 c0 -16 23 -44 35 -44 19 0 19 15 -1 34 -15 16 -34 21 -34
10z"/>
<path d="M593 6223 c2 -43 0 -48 -20 -51 -31 -5 -29 -22 2 -22 41 0 32 -35
-15 -61 -41 -23 -53 -49 -23 -49 9 0 25 7 35 17 17 15 18 14 18 -25 0 -22 -5
-42 -11 -44 -14 -5 0 -38 16 -38 18 0 25 24 25 90 0 39 5 62 15 70 8 7 15 17
15 22 0 6 -7 8 -15 4 -9 -3 -15 0 -15 9 0 8 7 15 15 15 8 0 15 5 15 10 0 6 -7
10 -16 10 -12 0 -15 9 -12 42 2 33 -1 43 -14 46 -14 3 -16 -5 -15 -45z"/>
<path d="M593 5773 c2 -43 0 -48 -20 -51 -31 -5 -29 -22 2 -22 41 0 32 -35
-15 -61 -41 -23 -53 -49 -23 -49 9 0 25 7 35 17 17 15 18 14 18 -25 0 -22 -5
-42 -11 -44 -14 -5 0 -38 16 -38 18 0 25 24 25 90 0 39 5 62 15 70 8 7 15 17
15 22 0 6 -7 8 -15 4 -9 -3 -15 0 -15 9 0 8 7 15 15 15 8 0 15 5 15 10 0 6 -7
10 -16 10 -12 0 -15 9 -12 42 2 33 -1 43 -14 46 -14 3 -16 -5 -15 -45z"/>
<path d="M664 5795 c3 -9 6 -19 6 -21 0 -2 7 -4 16 -4 22 0 13 34 -10 38 -14
3 -17 0 -12 -13z"/>
<path d="M728 5355 c-6 -14 -8 -28 -4 -32 10 -10 50 33 42 46 -11 18 -26 13
-38 -14z"/>
<path d="M593 5323 c2 -43 0 -48 -20 -51 -31 -5 -29 -22 2 -22 41 0 32 -35
-15 -61 -41 -23 -53 -49 -23 -49 9 0 25 7 35 17 17 15 18 14 18 -25 0 -22 -5
-42 -11 -44 -14 -5 0 -38 16 -38 18 0 25 24 25 90 0 39 5 62 15 70 8 7 15 17
15 22 0 6 -7 8 -15 4 -9 -3 -15 0 -15 9 0 8 7 15 15 15 8 0 15 5 15 10 0 6 -7
10 -16 10 -12 0 -15 9 -12 42 2 33 -1 43 -14 46 -14 3 -16 -5 -15 -45z"/>
<path d="M664 5345 c3 -9 6 -19 6 -21 0 -2 7 -4 16 -4 22 0 13 34 -10 38 -14
3 -17 0 -12 -13z"/>
<path d="M730 4911 c-5 -11 -10 -27 -10 -35 0 -10 -9 -16 -25 -16 -14 0 -25
-5 -25 -11 0 -8 13 -10 38 -5 20 3 43 6 50 6 6 0 12 5 12 10 0 6 -7 10 -17 10
-15 0 -15 2 1 19 10 11 15 25 11 30 -10 17 -23 13 -35 -8z"/>
<path d="M593 4873 c2 -43 0 -48 -20 -51 -31 -5 -29 -22 2 -22 41 0 32 -35
-15 -61 -41 -23 -53 -49 -23 -49 9 0 25 7 35 17 17 15 18 14 18 -25 0 -22 -5
-42 -11 -44 -14 -5 0 -38 16 -38 18 0 25 24 25 90 0 39 5 62 15 70 8 7 15 17
15 22 0 6 -7 8 -15 4 -9 -3 -15 0 -15 9 0 8 7 15 15 15 8 0 15 5 15 10 0 6 -7
10 -16 10 -12 0 -15 9 -12 42 2 33 -1 43 -14 46 -14 3 -16 -5 -15 -45z"/>
<path d="M664 4895 c3 -9 6 -19 6 -21 0 -2 7 -4 16 -4 22 0 13 34 -10 38 -14
3 -17 0 -12 -13z"/>
<path d="M730 4461 c-5 -11 -10 -27 -10 -35 0 -10 -9 -16 -25 -16 -14 0 -25
-5 -25 -11 0 -8 13 -10 38 -5 20 3 43 6 50 6 6 0 12 5 12 10 0 6 -7 10 -17 10
-15 0 -15 2 1 19 10 11 15 25 11 30 -10 17 -23 13 -35 -8z"/>
<path d="M593 4423 c2 -43 0 -48 -20 -51 -31 -5 -29 -22 2 -22 41 0 32 -35
-15 -61 -41 -23 -53 -49 -23 -49 9 0 25 7 35 17 17 15 18 14 18 -25 0 -22 -5
-42 -11 -44 -14 -5 0 -38 16 -38 18 0 25 24 25 90 0 39 5 62 15 70 13 11 15 8
15 -14 0 -14 5 -26 10 -26 6 0 10 22 10 50 0 45 -2 50 -26 56 -22 6 -25 11
-22 47 2 32 -1 42 -14 45 -14 3 -16 -5 -15 -45z m57 -72 c0 -5 -7 -11 -15 -15
-9 -3 -15 0 -15 9 0 8 7 15 15 15 8 0 15 -4 15 -9z"/>
<path d="M664 4445 c3 -9 6 -19 6 -21 0 -2 7 -4 16 -4 22 0 13 34 -10 38 -14
3 -17 0 -12 -13z"/>
<path d="M730 4011 c-5 -11 -10 -27 -10 -35 0 -10 -9 -16 -25 -16 -14 0 -25
-5 -25 -11 0 -8 13 -10 38 -5 20 3 43 6 50 6 6 0 12 5 12 10 0 6 -7 10 -17 10
-15 0 -15 2 1 19 10 11 15 25 11 30 -10 17 -23 13 -35 -8z"/>
<path d="M593 3973 c2 -43 0 -48 -20 -51 -31 -5 -29 -22 2 -22 41 0 32 -35
-15 -61 -41 -23 -53 -49 -23 -49 9 0 25 7 35 17 17 15 18 14 18 -25 0 -22 -5
-42 -11 -44 -14 -5 0 -38 16 -38 18 0 25 24 25 90 0 39 5 62 15 70 13 11 15 8
15 -14 0 -14 5 -26 10 -26 6 0 10 18 10 40 0 29 4 40 15 40 32 0 13 18 -26 24
l-40 6 3 42 c2 33 -1 43 -14 46 -14 3 -16 -5 -15 -45z m57 -72 c0 -5 -7 -11
-15 -15 -9 -3 -15 0 -15 9 0 8 7 15 15 15 8 0 15 -4 15 -9z"/>
<path d="M664 3995 c3 -9 6 -19 6 -21 0 -2 7 -4 16 -4 22 0 13 34 -10 38 -14
3 -17 0 -12 -13z"/>
<path d="M720 3920 c0 -5 7 -10 16 -10 12 0 15 -9 12 -37 -2 -22 2 -38 10 -40
8 -3 12 10 12 46 0 48 -2 51 -25 51 -14 0 -25 -4 -25 -10z"/>
<path d="M730 3561 c-5 -11 -10 -27 -10 -35 0 -10 -9 -16 -26 -16 -21 0 -24
-4 -19 -20 7 -21 3 -23 -33 -14 -20 6 -23 12 -20 47 2 32 -1 42 -14 45 -14 3
-16 -5 -15 -45 2 -43 0 -48 -20 -51 -31 -5 -29 -22 2 -22 41 0 32 -35 -15 -61
-41 -23 -53 -49 -23 -49 9 0 25 7 35 17 17 15 18 14 18 -25 0 -22 -5 -42 -11
-44 -14 -5 0 -38 16 -38 18 0 25 24 25 90 0 39 5 62 15 70 13 11 15 8 15 -14
0 -14 5 -26 10 -26 6 0 10 18 10 40 0 31 3 38 15 34 11 -5 15 1 15 19 0 25 16
37 51 37 10 0 19 5 19 10 0 6 -7 10 -17 10 -15 0 -15 2 1 19 10 11 15 25 11
30 -10 17 -23 13 -35 -8z m-80 -110 c0 -5 -7 -11 -15 -15 -9 -3 -15 0 -15 9 0
8 7 15 15 15 8 0 15 -4 15 -9z"/>
<path d="M664 3545 c3 -9 6 -19 6 -21 0 -2 7 -4 16 -4 22 0 13 34 -10 38 -14
3 -17 0 -12 -13z"/>
<path d="M720 3470 c0 -5 7 -10 16 -10 12 0 15 -9 12 -37 -2 -22 2 -38 10 -40
8 -3 12 10 12 46 0 48 -2 51 -25 51 -14 0 -25 -4 -25 -10z"/>
<path d="M730 3111 c-5 -11 -10 -27 -10 -35 0 -10 -9 -16 -26 -16 -21 0 -24
-4 -19 -20 7 -21 3 -23 -33 -14 -20 6 -23 12 -20 47 2 32 -1 42 -14 45 -14 3
-16 -5 -15 -45 2 -43 0 -48 -20 -51 -31 -5 -29 -22 2 -22 41 0 32 -35 -15 -61
-41 -23 -53 -49 -23 -49 9 0 25 7 35 17 17 15 18 14 18 -25 0 -22 -5 -42 -11
-44 -14 -5 0 -38 16 -38 18 0 25 24 25 90 0 39 5 62 15 70 13 11 15 8 15 -14
0 -14 5 -26 10 -26 6 0 10 18 10 40 0 30 3 38 14 34 10 -4 16 3 19 23 4 27 4
27 6 -4 1 -26 5 -33 21 -33 14 0 19 -6 17 -21 -1 -12 4 -24 11 -26 8 -3 12 10
12 46 0 44 -3 51 -20 51 -11 0 -20 5 -20 10 0 6 9 10 20 10 11 0 20 5 20 10 0
6 -7 10 -17 10 -15 0 -15 2 1 19 10 11 15 25 11 30 -10 17 -23 13 -35 -8z
m-80 -110 c0 -5 -7 -11 -15 -15 -9 -3 -15 0 -15 9 0 8 7 15 15 15 8 0 15 -4
15 -9z"/>
<path d="M664 3095 c3 -9 6 -19 6 -21 0 -2 7 -4 16 -4 22 0 13 34 -10 38 -14
3 -17 0 -12 -13z"/>
<path d="M730 2661 c-5 -11 -10 -27 -10 -35 0 -10 -9 -16 -26 -16 -21 0 -24
-4 -19 -20 7 -21 3 -23 -33 -14 -20 6 -23 12 -20 47 2 32 -1 42 -14 45 -14 3
-16 -5 -15 -45 2 -43 0 -48 -20 -51 -31 -5 -29 -22 2 -22 41 0 32 -35 -15 -61
-41 -23 -53 -49 -23 -49 9 0 25 7 35 17 17 15 18 14 18 -25 0 -22 -5 -42 -11
-44 -14 -5 0 -38 16 -38 18 0 25 24 25 90 0 39 5 62 15 70 13 11 15 8 15 -14
0 -14 5 -26 10 -26 6 0 10 18 10 40 0 30 3 38 14 34 10 -4 16 3 19 18 2 13 3
6 2 -14 -3 -31 0 -38 15 -38 10 0 21 6 24 13 2 6 4 1 3 -12 -1 -13 4 -26 11
-28 8 -3 12 10 12 46 0 44 -3 51 -20 51 -11 0 -20 5 -20 10 0 6 9 10 20 10 11
0 20 5 20 10 0 6 -7 10 -17 10 -15 0 -15 2 1 19 10 11 15 25 11 30 -10 17 -23
13 -35 -8z m-80 -110 c0 -5 -7 -11 -15 -15 -9 -3 -15 0 -15 9 0 8 7 15 15 15
8 0 15 -4 15 -9z"/>
<path d="M664 2645 c3 -9 6 -19 6 -21 0 -2 7 -4 16 -4 22 0 13 34 -10 38 -14
3 -17 0 -12 -13z"/>
<path d="M730 2211 c-5 -11 -10 -27 -10 -35 0 -10 -9 -16 -26 -16 -21 0 -24
-4 -19 -20 7 -21 3 -23 -33 -14 -20 6 -23 12 -20 47 2 32 -1 42 -14 45 -14 3
-16 -5 -15 -45 2 -43 0 -48 -20 -51 -31 -5 -29 -22 2 -22 41 0 32 -35 -15 -61
-41 -23 -53 -49 -23 -49 9 0 25 7 35 17 17 15 18 14 18 -25 0 -22 -5 -42 -11
-44 -14 -5 0 -38 16 -38 18 0 25 24 25 90 0 39 5 62 15 70 13 11 15 8 15 -15
0 -21 4 -26 16 -21 9 3 36 6 60 6 l44 0 0 50 c0 43 -3 50 -20 50 -11 0 -20 5
-20 10 0 6 9 10 20 10 11 0 20 5 20 10 0 6 -7 10 -17 10 -15 0 -15 2 1 19 10
11 15 25 11 30 -10 17 -23 13 -35 -8z m-23 -111 c-4 -34 -2 -40 13 -40 10 0
21 5 23 10 3 6 4 5 3 -2 -1 -7 -19 -14 -39 -16 -34 -3 -37 -1 -37 22 0 18 4
24 15 20 11 -5 15 1 15 20 0 14 3 26 6 26 4 0 4 -18 1 -40z m-57 1 c0 -5 -7
-11 -15 -15 -9 -3 -15 0 -15 9 0 8 7 15 15 15 8 0 15 -4 15 -9z"/>
<path d="M664 2195 c3 -9 6 -19 6 -21 0 -2 7 -4 16 -4 22 0 13 34 -10 38 -14
3 -17 0 -12 -13z"/>
<path d="M730 1761 c-5 -11 -10 -27 -10 -35 0 -10 -9 -16 -26 -16 -21 0 -24
-4 -19 -20 7 -21 3 -23 -33 -14 -20 6 -23 12 -20 47 2 32 -1 42 -14 45 -14 3
-16 -5 -15 -45 2 -43 0 -48 -20 -51 -31 -5 -29 -22 2 -22 41 0 32 -35 -15 -61
-41 -23 -53 -49 -23 -49 9 0 25 7 35 17 17 15 18 14 18 -25 0 -22 -5 -42 -11
-44 -14 -5 0 -38 16 -38 18 0 25 24 25 90 0 39 5 62 15 70 13 11 15 8 15 -15
0 -21 4 -26 16 -21 9 3 36 6 60 6 l44 0 0 50 c0 43 -3 50 -20 50 -11 0 -20 5
-20 10 0 6 9 10 20 10 11 0 20 5 20 10 0 6 -7 10 -17 10 -15 0 -15 2 1 19 10
11 15 25 11 30 -10 17 -23 13 -35 -8z m-23 -111 c-4 -34 -2 -40 13 -40 10 0
21 5 23 10 3 6 4 5 3 -2 -1 -7 -19 -14 -39 -16 -34 -3 -37 -1 -37 22 0 18 4
24 15 20 11 -5 15 1 15 20 0 14 3 26 6 26 4 0 4 -18 1 -40z m-57 1 c0 -5 -7
-11 -15 -15 -9 -3 -15 0 -15 9 0 8 7 15 15 15 8 0 15 -4 15 -9z"/>
<path d="M664 1745 c3 -9 6 -19 6 -21 0 -2 7 -4 16 -4 22 0 13 34 -10 38 -14
3 -17 0 -12 -13z"/>
<path d="M663 1553 c-18 -2 -33 -9 -33 -15 0 -7 18 -9 53 -4 28 3 62 6 75 6
12 0 22 5 22 10 0 10 -52 11 -117 3z"/>
<path d="M730 1311 c-5 -11 -10 -27 -10 -35 0 -10 -9 -16 -26 -16 -21 0 -24
-4 -19 -20 7 -21 3 -23 -33 -14 -20 6 -23 12 -20 47 2 32 -1 42 -14 45 -14 3
-16 -5 -15 -45 2 -43 0 -48 -20 -51 -31 -5 -29 -22 2 -22 41 0 32 -35 -15 -61
-41 -23 -53 -49 -23 -49 9 0 25 7 35 17 17 15 18 14 18 -25 0 -22 -5 -42 -11
-44 -14 -5 0 -38 16 -38 18 0 25 24 25 90 0 39 5 62 15 70 13 11 15 8 15 -14
0 -23 3 -26 20 -21 14 5 20 2 20 -9 0 -11 -9 -16 -30 -16 -16 0 -30 -4 -30
-10 0 -5 12 -10 27 -10 l26 0 -23 -25 c-13 -14 -21 -28 -17 -31 10 -10 55 23
62 46 5 15 15 20 41 20 19 0 34 5 34 10 0 6 -13 10 -30 10 -16 0 -30 5 -30 10
0 6 11 10 25 10 23 0 25 3 25 50 0 43 -3 50 -20 50 -11 0 -20 5 -20 10 0 6 9
10 20 10 11 0 20 5 20 10 0 6 -7 10 -17 10 -15 0 -15 2 1 19 10 11 15 25 11
30 -10 17 -23 13 -35 -8z m-23 -111 c-4 -34 -2 -40 13 -40 10 0 21 5 23 10 3
6 4 5 3 -2 -1 -7 -19 -14 -39 -16 -34 -3 -37 -1 -37 22 0 18 4 24 15 20 11 -5
15 1 15 20 0 14 3 26 6 26 4 0 4 -18 1 -40z m-57 1 c0 -5 -7 -11 -15 -15 -9
-3 -15 0 -15 9 0 8 7 15 15 15 8 0 15 -4 15 -9z"/>
<path d="M664 1295 c3 -9 6 -19 6 -21 0 -2 7 -4 16 -4 22 0 13 34 -10 38 -14
3 -17 0 -12 -13z"/>
<path d="M730 861 c-5 -11 -10 -27 -10 -35 0 -10 -9 -16 -26 -16 -21 0 -24 -4
-19 -20 7 -21 3 -23 -33 -14 -20 6 -23 12 -20 47 2 32 -1 42 -14 45 -14 3 -16
-5 -15 -45 2 -43 0 -48 -20 -51 -31 -5 -29 -22 2 -22 41 0 32 -35 -15 -61 -41
-23 -53 -49 -23 -49 9 0 25 7 35 17 17 15 18 14 18 -25 0 -22 -5 -42 -11 -44
-14 -5 0 -38 16 -38 18 0 25 24 25 90 0 39 5 62 15 70 13 11 15 8 15 -14 0
-23 3 -26 20 -21 14 5 20 2 20 -9 0 -11 -9 -16 -30 -16 -16 0 -30 -4 -30 -10
0 -5 12 -10 27 -10 l26 0 -23 -25 c-13 -14 -21 -28 -17 -31 10 -10 55 23 62
46 5 15 15 20 41 20 19 0 34 5 34 10 0 6 -13 10 -30 10 -16 0 -30 5 -30 10 0
6 11 10 25 10 23 0 25 3 25 50 0 43 -3 50 -20 50 -11 0 -20 5 -20 10 0 6 9 10
20 10 11 0 20 5 20 10 0 6 -7 10 -17 10 -15 0 -15 2 1 19 10 11 15 25 11 30
-10 17 -23 13 -35 -8z m-23 -111 c-4 -34 -2 -40 13 -40 10 0 21 5 23 10 3 6 4
5 3 -2 -1 -7 -19 -14 -39 -16 -34 -3 -37 -1 -37 22 0 18 4 24 15 20 11 -5 15
1 15 20 0 14 3 26 6 26 4 0 4 -18 1 -40z m-57 1 c0 -5 -7 -11 -15 -15 -9 -3
-15 0 -15 9 0 8 7 15 15 15 8 0 15 -4 15 -9z"/>
<path d="M664 845 c3 -9 6 -19 6 -21 0 -2 7 -4 16 -4 22 0 13 34 -10 38 -14 3
-17 0 -12 -13z"/>
<path d="M720 624 c0 -16 23 -44 35 -44 19 0 19 15 -1 34 -15 16 -34 21 -34
10z"/>
<path d="M730 411 c-5 -11 -10 -27 -10 -35 0 -10 -9 -16 -26 -16 -21 0 -24 -4
-19 -20 7 -21 3 -23 -33 -14 -20 6 -23 12 -20 47 2 32 -1 42 -14 45 -14 3 -16
-5 -15 -45 2 -43 0 -48 -20 -51 -31 -5 -29 -22 2 -22 41 0 32 -35 -15 -61 -41
-23 -53 -49 -23 -49 9 0 25 7 35 17 17 15 18 14 18 -25 0 -22 -5 -42 -11 -44
-14 -5 0 -38 16 -38 18 0 25 24 25 90 0 39 5 62 15 70 13 11 15 8 15 -14 0
-23 3 -26 20 -21 14 5 20 2 20 -9 0 -11 -9 -16 -30 -16 -16 0 -30 -4 -30 -10
0 -5 12 -10 27 -10 l26 0 -23 -25 c-13 -14 -21 -28 -17 -31 10 -10 55 23 62
46 5 15 15 20 41 20 19 0 34 5 34 10 0 6 -13 10 -30 10 -16 0 -30 5 -30 10 0
6 11 10 25 10 23 0 25 3 25 50 0 43 -3 50 -20 50 -11 0 -20 5 -20 10 0 6 9 10
20 10 11 0 20 5 20 10 0 6 -7 10 -17 10 -15 0 -15 2 1 19 10 11 15 25 11 30
-10 17 -23 13 -35 -8z m-23 -111 c-4 -34 -2 -40 13 -40 10 0 21 5 23 10 3 6 4
5 3 -2 -1 -7 -19 -14 -39 -16 -34 -3 -37 -1 -37 22 0 18 4 24 15 20 11 -5 15
1 15 20 0 14 3 26 6 26 4 0 4 -18 1 -40z m-57 1 c0 -5 -7 -11 -15 -15 -9 -3
-15 0 -15 9 0 8 7 15 15 15 8 0 15 -4 15 -9z"/>
<path d="M664 395 c3 -9 6 -19 6 -21 0 -2 7 -4 16 -4 22 0 13 34 -10 38 -14 3
-17 0 -12 -13z"/>
<path d="M828 343 c-22 -5 -24 -23 -3 -23 18 0 19 -12 3 -28 -6 -6 -8 -15 -5
-19 11 -10 71 53 63 66 -7 11 -26 12 -58 4z"/>
<path d="M720 174 c0 -16 23 -44 35 -44 19 0 19 15 -1 34 -15 16 -34 21 -34
10z"/>
</g>
</svg>
