<?xml version="1.0" standalone="no"?>
<!DOCTYPE svg PUBLIC "-//W3C//DTD SVG 20010904//EN"
 "http://www.w3.org/TR/2001/REC-SVG-20010904/DTD/svg10.dtd">
<svg version="1.0" xmlns="http://www.w3.org/2000/svg"
 width="95.000000pt" height="725.000000pt" viewBox="0 0 95.000000 725.000000"
 preserveAspectRatio="xMidYMid meet">
<metadata>
Created by potrace 1.16, written by Peter Selinger 2001-2019
</metadata>
<g transform="translate(0.000000,725.000000) scale(0.100000,-0.100000)"
fill="#000000" stroke="none">
<path d="M285 7143 c3 -16 11 -29 16 -31 5 -2 9 -12 9 -23 0 -15 7 -19 35 -19
19 0 35 5 35 10 0 6 6 10 13 10 6 0 18 4 26 9 12 8 12 12 2 25 -8 9 -22 16
-32 16 -16 0 -18 -5 -13 -25 5 -22 3 -25 -20 -25 -14 0 -26 5 -26 10 0 6 7 10
15 10 8 0 15 5 15 10 0 6 -9 10 -20 10 -11 0 -20 6 -20 14 0 12 -20 26 -37 26
-3 0 -2 -12 2 -27z"/>
<path d="M148 7105 c4 -55 4 -55 -27 -61 -40 -8 -40 -24 -1 -24 44 0 39 -30
-10 -60 -43 -27 -49 -37 -24 -47 8 -3 25 4 40 17 l24 23 0 -31 c0 -19 -7 -35
-18 -41 -13 -8 -15 -14 -6 -28 6 -10 17 -18 25 -18 10 0 15 19 17 73 2 53 7
75 17 79 8 3 15 10 15 15 0 6 -7 8 -15 4 -25 -9 -16 18 15 44 17 13 30 30 30
37 0 7 5 13 10 13 12 0 13 -17 1 -24 -5 -3 -8 -27 -7 -53 l1 -48 63 0 62 -1
10 36 c14 50 14 50 -25 50 -39 0 -48 -16 -12 -23 l22 -4 -22 -2 c-27 -1 -31
-21 -5 -22 29 -1 -18 -18 -53 -18 -23 -1 -27 2 -15 9 13 9 13 11 0 20 -13 8
-11 11 8 16 12 4 22 13 22 20 0 17 -12 18 -30 2 -8 -7 -7 -4 3 8 29 34 22 54
-18 54 -31 0 -36 -3 -41 -30 -10 -50 -32 -37 -31 17 2 36 -2 48 -14 51 -13 2
-15 -6 -11 -53z"/>
<path d="M578 7047 c-44 -12 -50 -27 -10 -26 41 1 75 13 80 27 4 14 -18 14
-70 -1z"/>
<path d="M212 6895 c-3 -70 9 -83 41 -47 21 23 22 36 2 28 -8 -3 -15 -1 -15 4
0 6 7 10 15 10 21 0 19 18 -2 23 -17 4 -17 5 0 6 21 1 23 21 2 21 -8 0 -15 5
-15 10 0 6 -6 10 -12 10 -9 0 -14 -21 -16 -65z"/>
<path d="M285 6693 c3 -16 11 -29 16 -31 5 -2 9 -12 9 -23 0 -15 7 -19 35 -19
19 0 35 5 35 10 0 6 6 10 13 10 6 0 18 4 26 9 12 8 12 12 2 25 -8 9 -22 16
-32 16 -16 0 -18 -5 -13 -25 5 -22 3 -25 -20 -25 -14 0 -26 5 -26 10 0 6 7 10
15 10 8 0 15 5 15 10 0 6 -9 10 -20 10 -11 0 -20 6 -20 14 0 12 -20 26 -37 26
-3 0 -2 -12 2 -27z"/>
<path d="M148 6655 c4 -55 4 -55 -27 -61 -40 -8 -40 -24 -1 -24 44 0 39 -30
-10 -60 -43 -27 -49 -37 -24 -47 8 -3 25 4 40 17 l24 23 0 -31 c0 -19 -7 -35
-18 -41 -13 -8 -15 -14 -6 -28 6 -10 17 -18 25 -18 10 0 15 19 17 73 2 53 7
75 17 79 8 3 15 10 15 15 0 6 -7 8 -15 4 -25 -9 -16 18 15 44 17 13 30 30 30
37 0 7 5 13 10 13 12 0 13 -17 1 -24 -5 -3 -8 -27 -7 -53 1 -42 4 -48 24 -51
19 -3 22 -9 22 -51 0 -40 -3 -47 -20 -47 -11 0 -20 4 -20 8 0 4 7 8 15 8 21 0
19 18 -2 23 -17 4 -17 5 0 6 21 1 23 21 2 21 -8 0 -15 5 -15 10 0 6 -6 10 -12
10 -9 0 -14 -21 -16 -65 -3 -69 6 -79 40 -48 11 9 18 11 18 5 0 -17 25 -15 41
4 10 12 10 17 0 23 -8 5 -11 25 -9 52 3 41 5 44 30 42 24 -1 29 3 38 35 14 52
14 52 -25 52 -39 0 -48 -16 -12 -23 l22 -4 -22 -2 c-27 -1 -31 -21 -5 -22 29
-1 -18 -18 -53 -18 -23 -1 -27 2 -15 9 13 9 13 11 0 20 -13 8 -11 11 8 16 12
4 22 13 22 20 0 17 -12 18 -30 2 -8 -7 -7 -4 3 8 29 34 22 54 -18 54 -31 0
-36 -3 -41 -30 -10 -50 -32 -37 -31 17 2 36 -2 48 -14 51 -13 2 -15 -6 -11
-53z"/>
<path d="M598 6655 c4 -55 4 -55 -27 -61 -40 -8 -40 -24 -1 -24 l30 0 0 -65
c0 -50 -4 -66 -17 -74 -14 -8 -16 -14 -7 -28 6 -10 17 -18 25 -18 11 0 15 22
17 95 2 70 7 97 17 103 19 10 19 27 1 27 -11 0 -14 12 -13 47 2 36 -2 48 -14
51 -13 2 -15 -6 -11 -53z"/>
<path d="M285 6243 c3 -16 11 -29 16 -31 5 -2 9 -12 9 -23 0 -15 7 -19 35 -19
19 0 35 5 35 10 0 6 6 10 13 10 6 0 18 4 26 9 12 8 12 12 2 25 -8 9 -22 16
-32 16 -16 0 -18 -5 -13 -25 5 -22 3 -25 -20 -25 -14 0 -26 5 -26 10 0 6 7 10
15 10 8 0 15 5 15 10 0 6 -9 10 -20 10 -11 0 -20 6 -20 14 0 12 -20 26 -37 26
-3 0 -2 -12 2 -27z"/>
<path d="M148 6205 c4 -55 4 -55 -27 -61 -40 -8 -40 -24 -1 -24 44 0 39 -30
-10 -60 -43 -27 -49 -37 -24 -47 8 -3 25 4 40 17 l24 23 0 -31 c0 -19 -7 -35
-18 -41 -13 -8 -15 -14 -6 -28 6 -10 17 -18 25 -18 10 0 15 19 17 73 2 53 7
75 17 79 8 3 15 10 15 15 0 6 -7 8 -15 4 -25 -9 -16 18 15 44 17 13 30 30 30
37 0 7 5 13 10 13 12 0 13 -17 1 -24 -5 -3 -8 -27 -7 -53 1 -42 4 -48 24 -51
19 -3 22 -9 22 -51 0 -40 -3 -47 -20 -47 -11 0 -20 4 -20 8 0 4 7 8 15 8 21 0
19 18 -2 23 -17 4 -17 5 0 6 21 1 23 21 2 21 -8 0 -15 5 -15 10 0 6 -6 10 -12
10 -9 0 -14 -21 -16 -65 -3 -69 6 -79 40 -48 11 9 18 11 18 5 0 -17 25 -15 41
4 10 12 10 17 0 23 -8 5 -11 25 -9 52 3 41 5 44 30 42 24 -1 29 3 38 35 14 52
14 52 -25 52 -39 0 -48 -16 -12 -23 l22 -4 -22 -2 c-27 -1 -31 -21 -5 -22 29
-1 -18 -18 -53 -18 -23 -1 -27 2 -15 9 13 9 13 11 0 20 -13 8 -11 11 8 16 12
4 22 13 22 20 0 17 -12 18 -30 2 -8 -7 -7 -4 3 8 29 34 22 54 -18 54 -31 0
-36 -3 -41 -30 -10 -50 -32 -37 -31 17 2 36 -2 48 -14 51 -13 2 -15 -6 -11
-53z"/>
<path d="M598 6205 c4 -55 4 -55 -27 -61 -40 -8 -40 -24 -1 -24 44 0 39 -30
-10 -60 -43 -27 -49 -37 -24 -47 8 -3 25 4 40 17 l24 23 0 -31 c0 -19 -7 -35
-17 -41 -14 -8 -16 -14 -7 -28 6 -10 17 -18 25 -18 10 0 15 19 17 73 2 53 7
75 17 79 8 3 15 10 15 15 0 6 -7 8 -15 4 -9 -3 -15 0 -15 8 0 8 7 16 15 20 19
7 20 26 1 26 -11 0 -14 12 -13 47 2 36 -2 48 -14 51 -13 2 -15 -6 -11 -53z"/>
<path d="M310 6040 c0 -5 7 -10 15 -10 8 0 15 5 15 10 0 6 -7 10 -15 10 -8 0
-15 -4 -15 -10z"/>
<path d="M285 5793 c3 -16 11 -29 16 -31 5 -2 9 -12 9 -23 0 -15 7 -19 35 -19
19 0 35 5 35 10 0 6 6 10 13 10 6 0 18 4 26 9 12 8 12 12 2 25 -8 9 -22 16
-32 16 -16 0 -18 -5 -13 -25 5 -22 3 -25 -20 -25 -14 0 -26 5 -26 10 0 6 7 10
15 10 8 0 15 5 15 10 0 6 -9 10 -20 10 -11 0 -20 6 -20 14 0 12 -20 26 -37 26
-3 0 -2 -12 2 -27z"/>
<path d="M730 5811 c0 -21 13 -41 26 -41 19 0 18 36 -2 44 -21 8 -24 8 -24 -3z"/>
<path d="M148 5755 c4 -55 4 -55 -27 -61 -40 -8 -40 -24 -1 -24 44 0 39 -30
-10 -60 -43 -27 -49 -37 -24 -47 8 -3 25 4 40 17 l24 23 0 -31 c0 -19 -7 -35
-18 -41 -13 -8 -15 -14 -6 -28 6 -10 17 -18 25 -18 10 0 15 19 17 73 2 53 7
75 17 79 8 3 15 10 15 15 0 6 -7 8 -15 4 -25 -9 -16 18 15 44 17 13 30 30 30
37 0 7 5 13 10 13 12 0 13 -17 1 -24 -5 -3 -8 -27 -7 -53 1 -42 4 -48 24 -51
19 -3 22 -9 22 -51 0 -40 -3 -47 -20 -47 -11 0 -20 4 -20 8 0 4 7 8 15 8 21 0
19 18 -2 23 -17 4 -17 5 0 6 21 1 23 21 2 21 -8 0 -15 5 -15 10 0 6 -6 10 -12
10 -9 0 -14 -21 -16 -65 -3 -69 6 -79 40 -48 11 9 18 11 18 5 0 -17 25 -15 41
4 10 13 10 17 -1 24 -12 7 -11 10 3 16 9 3 17 11 17 16 0 6 -7 7 -16 4 -12 -5
-15 1 -12 27 3 28 6 32 30 30 24 -1 29 3 38 35 14 52 14 52 -25 52 -39 0 -48
-16 -12 -23 l22 -4 -22 -2 c-27 -1 -31 -21 -5 -22 29 -1 -18 -18 -53 -18 -23
-1 -27 2 -15 9 13 9 13 11 0 20 -13 8 -11 11 8 16 12 4 22 13 22 20 0 17 -12
18 -30 2 -8 -7 -7 -4 3 8 29 34 22 54 -18 54 -31 0 -36 -3 -41 -30 -10 -50
-32 -37 -31 17 2 36 -2 48 -14 51 -13 2 -15 -6 -11 -53z"/>
<path d="M598 5755 c4 -55 4 -55 -27 -61 -40 -8 -40 -24 -1 -24 44 0 39 -30
-10 -60 -43 -27 -49 -37 -24 -47 8 -3 25 4 40 17 l24 23 0 -31 c0 -19 -7 -35
-17 -41 -14 -8 -16 -14 -7 -28 6 -10 17 -18 25 -18 10 0 15 19 17 73 2 53 7
75 17 79 8 3 15 10 15 15 0 6 -7 8 -15 4 -9 -3 -15 0 -15 8 0 8 7 16 15 20 19
7 20 26 1 26 -11 0 -14 12 -13 47 2 36 -2 48 -14 51 -13 2 -15 -6 -11 -53z"/>
<path d="M310 5590 c0 -5 7 -10 15 -10 8 0 15 5 15 10 0 6 -7 10 -15 10 -8 0
-15 -4 -15 -10z"/>
<path d="M285 5343 c3 -16 11 -29 16 -31 5 -2 9 -12 9 -23 0 -15 7 -19 35 -19
19 0 35 5 35 10 0 6 6 10 13 10 6 0 18 4 26 9 12 8 12 12 2 25 -8 9 -22 16
-32 16 -16 0 -18 -5 -13 -25 5 -22 3 -25 -20 -25 -14 0 -26 5 -26 10 0 6 7 10
15 10 8 0 15 5 15 10 0 6 -9 10 -20 10 -11 0 -20 6 -20 14 0 12 -20 26 -37 26
-3 0 -2 -12 2 -27z"/>
<path d="M730 5361 c0 -21 13 -41 26 -41 19 0 18 36 -2 44 -21 8 -24 8 -24 -3z"/>
<path d="M148 5305 c4 -55 4 -55 -27 -61 -40 -8 -40 -24 -1 -24 44 0 39 -30
-10 -60 -43 -27 -49 -37 -24 -47 8 -3 25 4 40 17 l24 23 0 -31 c0 -19 -7 -35
-18 -41 -13 -8 -15 -14 -6 -28 6 -10 17 -18 25 -18 10 0 15 19 17 73 2 53 7
75 17 79 8 3 15 10 15 15 0 6 -7 8 -15 4 -25 -9 -16 18 15 44 17 13 30 30 30
37 0 7 5 13 10 13 12 0 13 -17 1 -24 -5 -3 -8 -27 -7 -53 1 -42 4 -48 24 -51
19 -3 22 -9 22 -51 0 -40 -3 -47 -20 -47 -11 0 -20 4 -20 8 0 4 7 8 15 8 21 0
19 18 -2 23 -17 4 -17 5 0 6 21 1 23 21 2 21 -8 0 -15 5 -15 10 0 6 -6 10 -12
10 -9 0 -14 -21 -16 -65 -3 -69 6 -79 40 -48 11 9 18 11 18 5 0 -17 25 -15 41
4 10 13 10 17 -1 24 -12 7 -11 10 3 16 9 3 17 11 17 16 0 6 -7 8 -15 4 -11 -4
-15 2 -15 25 0 17 6 32 15 36 23 8 28 -2 10 -20 -19 -20 -19 -27 0 -27 8 0 15
-8 15 -17 0 -30 38 -82 65 -89 32 -8 39 -2 30 26 -5 14 -12 19 -24 15 -10 -3
-24 1 -31 10 -14 17 -18 105 -6 153 7 32 7 32 -28 32 -40 0 -49 -16 -13 -23
l22 -4 -22 -2 c-27 -1 -31 -21 -5 -22 29 -1 -18 -18 -53 -18 -23 -1 -27 2 -15
9 13 9 13 11 0 20 -13 8 -11 11 8 16 12 4 22 13 22 20 0 17 -12 18 -30 2 -8
-7 -7 -4 3 8 29 34 22 54 -18 54 -31 0 -36 -3 -41 -30 -10 -50 -32 -37 -31 17
2 36 -2 48 -14 51 -13 2 -15 -6 -11 -53z"/>
<path d="M598 5305 c4 -55 4 -55 -27 -61 -40 -8 -40 -24 -1 -24 44 0 39 -30
-10 -60 -43 -27 -49 -37 -24 -47 8 -3 25 4 40 17 l24 23 0 -31 c0 -19 -7 -35
-17 -41 -14 -8 -16 -14 -7 -28 6 -10 17 -18 25 -18 10 0 15 19 17 73 2 53 7
75 17 79 8 3 15 10 15 15 0 6 -7 8 -15 4 -25 -9 -16 18 15 44 17 14 30 34 30
47 0 33 -19 28 -26 -7 -10 -50 -32 -37 -31 17 2 36 -2 48 -14 51 -13 2 -15 -6
-11 -53z"/>
<path d="M734 4898 c3 -13 6 -26 6 -30 0 -12 70 -9 70 2 0 6 -9 10 -20 10 -11
0 -20 6 -20 14 0 12 -20 26 -37 26 -3 0 -3 -10 1 -22z"/>
<path d="M598 4855 c4 -55 4 -55 -27 -61 -40 -8 -40 -24 -1 -24 44 0 39 -30
-10 -60 -43 -27 -49 -37 -24 -47 8 -3 25 4 40 17 l24 23 0 -31 c0 -19 -7 -35
-17 -41 -14 -8 -16 -14 -7 -28 6 -10 17 -18 25 -18 10 0 15 19 17 73 2 53 7
75 17 79 8 3 15 10 15 15 0 6 -7 8 -15 4 -25 -9 -16 18 15 44 17 13 30 30 30
37 0 7 11 13 25 13 14 0 25 5 25 10 0 6 -16 10 -35 10 -31 0 -36 -3 -41 -30
-10 -50 -32 -37 -31 17 2 36 -2 48 -14 51 -13 2 -15 -6 -11 -53z"/>
<path d="M824 4874 c3 -9 6 -20 6 -25 0 -12 21 -11 39 0 12 8 12 12 2 25 -18
22 -55 22 -47 0z"/>
<path d="M734 4448 c3 -13 6 -26 6 -30 0 -12 70 -9 70 2 0 6 -9 10 -20 10 -11
0 -20 6 -20 14 0 12 -20 26 -37 26 -3 0 -3 -10 1 -22z"/>
<path d="M598 4405 c4 -55 4 -55 -27 -61 -40 -8 -40 -24 -1 -24 44 0 39 -30
-10 -60 -43 -27 -49 -37 -24 -47 8 -3 25 4 40 17 l24 23 0 -31 c0 -19 -7 -35
-17 -41 -14 -8 -16 -14 -7 -28 6 -10 17 -18 25 -18 10 0 15 19 17 73 2 53 7
75 17 79 8 3 15 10 15 15 0 6 -7 8 -15 4 -25 -9 -16 18 15 44 17 13 30 30 30
37 0 7 5 13 10 13 14 0 13 -13 -2 -28 -6 -6 -9 -15 -5 -18 10 -11 47 27 47 48
0 14 -8 18 -35 18 -31 0 -36 -3 -41 -30 -10 -50 -32 -37 -31 17 2 36 -2 48
-14 51 -13 2 -15 -6 -11 -53z"/>
<path d="M824 4424 c3 -9 6 -20 6 -25 0 -12 21 -11 39 0 12 8 12 12 2 25 -18
22 -55 22 -47 0z"/>
<path d="M735 3993 c3 -16 11 -29 16 -31 5 -2 9 -12 9 -23 0 -15 7 -19 35 -19
19 0 35 5 35 10 0 6 6 10 13 10 6 0 18 4 26 9 12 8 12 12 2 25 -8 9 -22 16
-32 16 -16 0 -18 -5 -13 -25 5 -22 3 -25 -20 -25 -14 0 -26 5 -26 10 0 6 7 10
15 10 8 0 15 5 15 10 0 6 -9 10 -20 10 -11 0 -20 6 -20 14 0 12 -20 26 -37 26
-3 0 -2 -12 2 -27z"/>
<path d="M598 3955 c4 -55 4 -55 -27 -61 -40 -8 -40 -24 -1 -24 44 0 39 -30
-10 -60 -43 -27 -49 -37 -24 -47 8 -3 25 4 40 17 l24 23 0 -31 c0 -19 -7 -35
-17 -41 -14 -8 -16 -14 -7 -28 6 -10 17 -18 25 -18 10 0 15 19 17 73 2 53 7
75 17 79 8 3 15 10 15 15 0 6 -7 8 -15 4 -25 -9 -16 18 15 44 17 13 30 30 30
37 0 7 5 13 10 13 14 0 13 -13 -2 -28 -6 -6 -9 -15 -5 -18 10 -11 47 27 47 48
0 14 -8 18 -35 18 -31 0 -36 -3 -41 -30 -10 -50 -32 -37 -31 17 2 36 -2 48
-14 51 -13 2 -15 -6 -11 -53z"/>
<path d="M735 3543 c3 -16 11 -29 16 -31 5 -2 9 -12 9 -23 0 -15 7 -19 35 -19
19 0 35 5 35 10 0 6 6 10 13 10 6 0 18 4 26 9 12 8 12 12 2 25 -8 9 -22 16
-32 16 -16 0 -18 -5 -13 -25 5 -22 3 -25 -20 -25 -14 0 -26 5 -26 10 0 6 7 10
15 10 8 0 15 5 15 10 0 6 -9 10 -20 10 -11 0 -20 6 -20 14 0 12 -20 26 -37 26
-3 0 -2 -12 2 -27z"/>
<path d="M598 3505 c4 -55 4 -55 -27 -61 -40 -8 -40 -24 -1 -24 44 0 39 -30
-10 -60 -43 -27 -49 -37 -24 -47 8 -3 25 4 40 17 l24 23 0 -31 c0 -19 -7 -35
-17 -41 -14 -8 -16 -14 -7 -28 6 -10 17 -18 25 -18 10 0 15 19 17 73 2 53 7
75 17 79 8 3 15 10 15 15 0 6 -7 8 -15 4 -25 -9 -16 18 15 44 17 13 30 30 30
37 0 7 5 13 10 13 13 0 13 -13 0 -26 -15 -15 -1 -46 17 -40 8 3 19 6 24 6 5 0
9 7 9 15 0 18 -11 19 -30 3 -8 -7 -7 -4 3 8 29 34 22 54 -18 54 -31 0 -36 -3
-41 -30 -10 -50 -32 -37 -31 17 2 36 -2 48 -14 51 -13 2 -15 -6 -11 -53z"/>
<path d="M735 3093 c3 -16 11 -29 16 -31 5 -2 9 -12 9 -23 0 -15 7 -19 35 -19
19 0 35 5 35 10 0 6 6 10 13 10 6 0 18 4 26 9 12 8 12 12 2 25 -8 9 -22 16
-32 16 -16 0 -18 -5 -13 -25 5 -22 3 -25 -20 -25 -14 0 -26 5 -26 10 0 6 7 10
15 10 8 0 15 5 15 10 0 6 -9 10 -20 10 -11 0 -20 6 -20 14 0 12 -20 26 -37 26
-3 0 -2 -12 2 -27z"/>
<path d="M598 3055 c4 -55 4 -55 -27 -61 -40 -8 -40 -24 -1 -24 44 0 39 -30
-10 -60 -43 -27 -49 -37 -24 -47 8 -3 25 4 40 17 l24 23 0 -31 c0 -19 -7 -35
-17 -41 -14 -8 -16 -14 -7 -28 6 -10 17 -18 25 -18 10 0 15 19 17 73 2 53 7
75 17 79 8 3 15 10 15 15 0 6 -7 8 -15 4 -25 -9 -16 18 15 44 17 13 30 30 30
37 0 7 5 13 10 13 12 0 13 -17 1 -24 -14 -9 -8 -99 6 -103 9 -3 11 4 7 27 -6
26 -3 32 15 37 11 3 21 12 21 19 0 17 -12 18 -30 2 -8 -7 -7 -4 3 8 29 34 22
54 -18 54 -31 0 -36 -3 -41 -30 -10 -50 -32 -37 -31 17 2 36 -2 48 -14 51 -13
2 -15 -6 -11 -53z"/>
<path d="M735 2643 c3 -16 11 -29 16 -31 5 -2 9 -12 9 -23 0 -15 7 -19 35 -19
19 0 35 5 35 10 0 6 6 10 13 10 6 0 18 4 26 9 12 8 12 12 2 25 -8 9 -22 16
-32 16 -16 0 -18 -5 -13 -25 5 -22 3 -25 -20 -25 -14 0 -26 5 -26 10 0 6 7 10
15 10 8 0 15 5 15 10 0 6 -9 10 -20 10 -11 0 -20 6 -20 14 0 12 -20 26 -37 26
-3 0 -2 -12 2 -27z"/>
<path d="M598 2605 c4 -55 4 -55 -27 -61 -40 -8 -40 -24 -1 -24 44 0 39 -30
-10 -60 -43 -27 -49 -37 -24 -47 8 -3 25 4 40 17 l24 23 0 -31 c0 -19 -7 -35
-17 -41 -14 -8 -16 -14 -7 -28 6 -10 17 -18 25 -18 10 0 15 19 17 73 2 53 7
75 17 79 8 3 15 10 15 15 0 6 -7 8 -15 4 -25 -9 -16 18 15 44 17 13 30 30 30
37 0 7 5 13 10 13 12 0 13 -17 1 -24 -15 -9 -8 -99 8 -104 10 -3 12 0 8 11 -3
9 -1 18 6 21 9 3 8 8 -3 15 -13 9 -12 12 8 17 12 4 22 13 22 20 0 17 -12 18
-30 2 -8 -7 -7 -4 3 8 29 34 22 54 -18 54 -31 0 -36 -3 -41 -30 -10 -50 -32
-37 -31 17 2 36 -2 48 -14 51 -13 2 -15 -6 -11 -53z"/>
<path d="M735 2193 c3 -16 11 -29 16 -31 5 -2 9 -12 9 -23 0 -15 7 -19 35 -19
19 0 35 5 35 10 0 6 6 10 13 10 6 0 18 4 26 9 12 8 12 12 2 25 -8 9 -22 16
-32 16 -16 0 -18 -5 -13 -25 5 -22 3 -25 -20 -25 -14 0 -26 5 -26 10 0 6 7 10
15 10 8 0 15 5 15 10 0 6 -9 10 -20 10 -11 0 -20 6 -20 14 0 12 -20 26 -37 26
-3 0 -2 -12 2 -27z"/>
<path d="M598 2155 c4 -55 4 -55 -27 -61 -40 -8 -40 -24 -1 -24 44 0 39 -30
-10 -60 -43 -27 -49 -37 -24 -47 8 -3 25 4 40 17 l24 23 0 -31 c0 -19 -7 -35
-17 -41 -14 -8 -16 -14 -7 -28 6 -10 17 -18 25 -18 10 0 15 19 17 73 2 53 7
75 17 79 8 3 15 10 15 15 0 6 -7 8 -15 4 -25 -9 -16 18 15 44 17 13 30 30 30
37 0 7 5 13 10 13 12 0 13 -17 1 -24 -15 -9 -8 -99 8 -104 10 -3 12 0 8 11 -3
9 -1 18 6 21 9 3 8 8 -3 15 -13 9 -12 12 8 17 12 4 22 13 22 20 0 17 -12 18
-30 2 -8 -7 -7 -4 3 8 29 34 22 54 -18 54 -31 0 -36 -3 -41 -30 -10 -50 -32
-37 -31 17 2 36 -2 48 -14 51 -13 2 -15 -6 -11 -53z"/>
<path d="M760 2100 c0 -5 9 -10 19 -10 17 0 19 -5 14 -35 -8 -48 13 -46 26 3
15 52 15 52 -24 52 -19 0 -35 -4 -35 -10z"/>
<path d="M735 1743 c3 -16 11 -29 16 -31 5 -2 9 -12 9 -23 0 -15 7 -19 35 -19
19 0 35 5 35 10 0 6 6 10 13 10 6 0 18 4 26 9 12 8 12 12 2 25 -8 9 -22 16
-32 16 -16 0 -18 -5 -13 -25 5 -22 3 -25 -20 -25 -14 0 -26 5 -26 10 0 6 7 10
15 10 8 0 15 5 15 10 0 6 -9 10 -20 10 -11 0 -20 6 -20 14 0 12 -20 26 -37 26
-3 0 -2 -12 2 -27z"/>
<path d="M598 1705 c4 -55 4 -55 -27 -61 -40 -8 -40 -24 -1 -24 44 0 39 -30
-10 -60 -43 -27 -49 -37 -24 -47 8 -3 25 4 40 17 l24 23 0 -31 c0 -19 -7 -35
-17 -41 -14 -8 -16 -14 -7 -28 6 -10 17 -18 25 -18 10 0 15 19 17 73 2 53 7
75 17 79 8 3 15 10 15 15 0 6 -7 8 -15 4 -25 -9 -16 18 15 44 17 13 30 30 30
37 0 7 5 13 10 13 12 0 13 -17 1 -24 -15 -9 -8 -99 8 -104 10 -3 12 0 8 11 -3
9 -1 18 6 21 9 3 8 8 -3 15 -13 9 -12 12 8 17 12 4 22 13 22 20 0 17 -12 18
-30 2 -8 -7 -7 -4 3 8 29 34 22 54 -18 54 -31 0 -36 -3 -41 -30 -10 -50 -32
-37 -31 17 2 36 -2 48 -14 51 -13 2 -15 -6 -11 -53z"/>
<path d="M760 1651 c0 -5 10 -12 23 -14 l22 -4 -22 -2 c-25 -1 -32 -21 -8 -21
8 0 15 -9 15 -20 0 -33 18 -22 29 18 15 52 15 52 -24 52 -19 0 -35 -4 -35 -9z"/>
<path d="M735 1293 c3 -16 11 -29 16 -31 5 -2 9 -12 9 -23 0 -15 7 -19 35 -19
19 0 35 5 35 10 0 6 6 10 13 10 6 0 18 4 26 9 12 8 12 12 2 25 -8 9 -22 16
-32 16 -16 0 -18 -5 -13 -25 5 -22 3 -25 -20 -25 -14 0 -26 5 -26 10 0 6 7 10
15 10 8 0 15 5 15 10 0 6 -9 10 -20 10 -11 0 -20 6 -20 14 0 12 -20 26 -37 26
-3 0 -2 -12 2 -27z"/>
<path d="M598 1255 c4 -55 4 -55 -27 -61 -40 -8 -40 -24 -1 -24 44 0 39 -30
-10 -60 -43 -27 -49 -37 -24 -47 8 -3 25 4 40 17 l24 23 0 -31 c0 -19 -7 -35
-17 -41 -14 -8 -16 -14 -7 -28 6 -10 17 -18 25 -18 10 0 15 19 17 73 2 53 7
75 17 79 8 3 15 10 15 15 0 6 -7 8 -15 4 -25 -9 -16 18 15 44 17 13 30 30 30
37 0 7 5 13 10 13 12 0 13 -17 1 -24 -5 -3 -8 -27 -7 -53 l1 -48 63 0 62 -1
10 36 c14 50 14 50 -25 50 -39 0 -48 -16 -12 -23 l22 -4 -22 -2 c-27 -1 -31
-21 -5 -22 29 -1 -18 -18 -53 -18 -23 -1 -27 2 -15 9 13 9 13 11 0 20 -13 8
-11 11 8 16 12 4 22 13 22 20 0 17 -12 18 -30 2 -8 -7 -7 -4 3 8 29 34 22 54
-18 54 -31 0 -36 -3 -41 -30 -10 -50 -32 -37 -31 17 2 36 -2 48 -14 51 -13 2
-15 -6 -11 -53z"/>
<path d="M735 843 c3 -16 11 -29 16 -31 5 -2 9 -12 9 -23 0 -15 7 -19 35 -19
19 0 35 5 35 10 0 6 6 10 13 10 6 0 18 4 26 9 12 8 12 12 2 25 -8 9 -22 16
-32 16 -16 0 -18 -5 -13 -25 5 -22 3 -25 -20 -25 -14 0 -26 5 -26 10 0 6 7 10
15 10 8 0 15 5 15 10 0 6 -9 10 -20 10 -11 0 -20 6 -20 14 0 12 -20 26 -37 26
-3 0 -2 -12 2 -27z"/>
<path d="M598 805 c4 -55 4 -55 -27 -61 -40 -8 -40 -24 -1 -24 44 0 39 -30
-10 -60 -43 -27 -49 -37 -24 -47 8 -3 25 4 40 17 l24 23 0 -31 c0 -19 -7 -35
-17 -41 -14 -8 -16 -14 -7 -28 6 -10 17 -18 25 -18 10 0 15 19 17 73 2 53 7
75 17 79 8 3 15 10 15 15 0 6 -7 8 -15 4 -25 -9 -16 18 15 44 17 13 30 30 30
37 0 7 5 13 10 13 12 0 13 -17 1 -24 -5 -3 -8 -27 -7 -53 l1 -48 63 0 62 -1
10 36 c14 50 14 50 -25 50 -39 0 -48 -16 -12 -23 l22 -4 -22 -2 c-27 -1 -31
-21 -5 -22 29 -1 -18 -18 -53 -18 -23 -1 -27 2 -15 9 13 9 13 11 0 20 -13 8
-11 11 8 16 12 4 22 13 22 20 0 17 -12 18 -30 2 -8 -7 -7 -4 3 8 29 34 22 54
-18 54 -31 0 -36 -3 -41 -30 -10 -50 -32 -37 -31 17 2 36 -2 48 -14 51 -13 2
-15 -6 -11 -53z"/>
<path d="M662 595 c-3 -70 9 -83 41 -47 21 23 22 36 2 28 -12 -4 -15 4 -15 39
0 29 -4 45 -12 45 -9 0 -14 -21 -16 -65z"/>
<path d="M735 393 c3 -16 11 -29 16 -31 5 -2 9 -12 9 -23 0 -15 7 -19 35 -19
19 0 35 5 35 10 0 6 6 10 13 10 6 0 18 4 26 9 12 8 12 12 2 25 -8 9 -22 16
-32 16 -16 0 -18 -5 -13 -25 5 -22 3 -25 -20 -25 -14 0 -26 5 -26 10 0 6 7 10
15 10 8 0 15 5 15 10 0 6 -9 10 -20 10 -11 0 -20 6 -20 14 0 12 -20 26 -37 26
-3 0 -2 -12 2 -27z"/>
<path d="M598 355 c4 -55 4 -55 -27 -61 -40 -8 -40 -24 -1 -24 44 0 39 -30
-10 -60 -43 -27 -49 -37 -24 -47 8 -3 25 4 40 17 l24 23 0 -31 c0 -19 -7 -35
-17 -41 -14 -8 -16 -14 -7 -28 6 -10 17 -18 25 -18 10 0 15 19 17 73 2 53 7
75 17 79 8 3 15 10 15 15 0 6 -7 8 -15 4 -25 -9 -16 18 15 44 17 13 30 30 30
37 0 7 5 13 10 13 12 0 13 -17 1 -24 -5 -3 -8 -27 -7 -53 l1 -48 63 0 62 -1
10 36 c14 50 14 50 -25 50 -39 0 -48 -16 -12 -23 l22 -4 -22 -2 c-27 -1 -31
-21 -5 -22 29 -1 -18 -18 -53 -18 -23 -1 -27 2 -15 9 13 9 13 11 0 20 -13 8
-11 11 8 16 12 4 22 13 22 20 0 17 -12 18 -30 2 -8 -7 -7 -4 3 8 29 34 22 54
-18 54 -31 0 -36 -3 -41 -30 -10 -50 -32 -37 -31 17 2 36 -2 48 -14 51 -13 2
-15 -6 -11 -53z"/>
<path d="M662 145 c-3 -70 9 -83 41 -47 21 23 22 36 2 28 -11 -4 -15 1 -15 19
0 16 6 25 15 25 8 0 15 5 15 10 0 6 -7 10 -15 10 -8 0 -15 5 -15 10 0 6 -6 10
-12 10 -9 0 -14 -21 -16 -65z"/>
</g>
</svg>
