<?xml version="1.0" standalone="no"?>
<!DOCTYPE svg PUBLIC "-//W3C//DTD SVG 20010904//EN"
 "http://www.w3.org/TR/2001/REC-SVG-20010904/DTD/svg10.dtd">
<svg version="1.0" xmlns="http://www.w3.org/2000/svg"
 width="95.000000pt" height="725.000000pt" viewBox="0 0 95.000000 725.000000"
 preserveAspectRatio="xMidYMid meet">
<metadata>
Created by potrace 1.16, written by Peter Selinger 2001-2019
</metadata>
<g transform="translate(0.000000,725.000000) scale(0.100000,-0.100000)"
fill="#000000" stroke="none">
<path d="M335 7143 c3 -16 2 -22 -1 -15 -8 17 -34 15 -34 -3 0 -8 -7 -15 -15
-15 -9 0 -15 9 -15 25 0 16 -6 25 -16 25 -12 0 -15 -6 -10 -24 5 -20 3 -23
-14 -19 -11 3 -20 1 -20 -5 0 -6 -3 -18 -6 -27 -5 -13 -2 -15 22 -9 22 5 26 4
18 -5 -7 -8 -24 -10 -46 -6 -33 6 -35 8 -34 48 1 30 -3 42 -15 45 -14 2 -15
-5 -11 -47 4 -47 3 -50 -22 -57 -14 -3 -26 -11 -26 -16 0 -6 11 -7 25 -4 21 5
25 3 25 -18 0 -17 -8 -27 -30 -36 -17 -7 -30 -19 -30 -26 0 -17 14 -18 41 -4
17 10 19 7 19 -24 0 -23 -6 -38 -17 -45 -14 -8 -16 -14 -7 -28 6 -10 17 -18
25 -18 10 0 15 19 17 72 2 47 8 75 17 83 19 16 19 34 0 26 -9 -3 -15 0 -15 8
0 17 25 27 45 20 11 -5 12 -10 4 -26 -16 -30 0 -36 22 -9 19 23 19 23 19 2 0
-12 -3 -21 -7 -21 -5 0 -9 -25 -9 -55 -2 -72 18 -69 27 4 4 28 13 58 20 67 10
13 10 17 -2 25 -12 8 -12 10 1 19 23 15 32 12 25 -10 -7 -22 5 -26 22 -9 8 8
14 5 22 -10 11 -19 9 -21 -19 -21 -16 0 -30 -4 -30 -10 0 -5 11 -10 25 -10 23
0 25 -3 25 -50 0 -70 18 -63 26 10 5 48 10 60 24 60 27 0 46 28 30 43 -10 9
-13 9 -17 0 -8 -22 -43 -15 -43 7 0 13 7 20 20 20 11 0 20 5 20 10 0 6 -12 10
-27 10 -23 0 -25 2 -13 11 11 8 12 12 3 16 -7 2 -13 16 -13 29 0 15 -6 24 -15
24 -11 0 -14 -7 -10 -27z m-6 -57 c-12 -10 -59 -15 -59 -6 0 5 9 10 19 10 11
0 23 5 27 12 6 9 9 9 12 -1 2 -7 2 -14 1 -15z"/>
<path d="M573 7058 c-45 -15 -42 -30 5 -23 56 10 72 15 72 26 0 11 -35 10 -77
-3z"/>
<path d="M335 6693 c3 -16 2 -22 -1 -15 -8 17 -34 15 -34 -3 0 -8 -7 -15 -15
-15 -9 0 -15 9 -15 25 0 16 -6 25 -16 25 -12 0 -15 -6 -10 -24 5 -20 3 -23
-14 -19 -11 3 -20 1 -20 -5 0 -6 -3 -18 -6 -27 -5 -13 -2 -15 22 -9 22 5 26 4
18 -5 -7 -8 -24 -10 -46 -6 -33 6 -35 8 -34 48 1 30 -3 42 -15 45 -14 2 -15
-5 -11 -47 4 -47 3 -50 -22 -57 -14 -3 -26 -11 -26 -16 0 -6 11 -7 25 -4 21 5
25 3 25 -18 0 -17 -8 -27 -30 -36 -17 -7 -30 -19 -30 -26 0 -17 14 -18 41 -4
17 10 19 7 19 -24 0 -23 -6 -38 -17 -45 -14 -8 -16 -14 -7 -28 6 -10 17 -18
25 -18 10 0 15 19 17 72 2 47 8 75 17 83 19 16 19 34 0 26 -9 -3 -15 0 -15 8
0 17 25 27 45 20 11 -5 12 -10 4 -26 -16 -30 0 -36 22 -9 19 23 19 23 19 2 0
-12 -3 -21 -7 -21 -5 0 -9 -25 -9 -55 -1 -38 2 -55 10 -52 6 2 12 15 14 29 2
20 10 27 34 32 53 11 58 8 58 -29 0 -58 18 -40 26 25 5 48 10 60 24 60 27 0
46 28 30 43 -10 9 -13 9 -17 0 -8 -22 -43 -15 -43 7 0 13 7 20 20 20 11 0 20
5 20 10 0 6 -12 10 -27 10 -23 0 -25 2 -13 11 11 8 12 12 3 16 -7 2 -13 16
-13 29 0 15 -6 24 -15 24 -11 0 -14 -7 -10 -27z m-6 -57 c-12 -10 -59 -15 -59
-6 0 5 9 10 19 10 11 0 23 5 27 12 6 9 9 9 12 -1 2 -7 2 -14 1 -15z m-24 -46
c-7 -22 5 -26 22 -9 8 8 14 5 22 -10 11 -19 9 -21 -19 -21 -37 0 -40 -20 -2
-21 22 -1 20 -3 -12 -10 -53 -13 -58 -9 -41 25 13 24 13 31 3 38 -10 6 -10 10
2 18 23 15 32 12 25 -10z"/>
<path d="M588 6661 c4 -47 3 -50 -22 -57 -14 -3 -26 -11 -26 -16 0 -6 11 -7
25 -4 25 6 25 6 25 -68 0 -61 -3 -77 -17 -85 -14 -8 -16 -14 -7 -28 6 -10 17
-18 25 -18 11 0 15 23 17 102 2 91 5 103 22 108 25 8 26 25 2 25 -15 0 -19 8
-18 42 1 31 -3 43 -15 46 -14 2 -15 -5 -11 -47z"/>
<path d="M335 6243 c3 -16 2 -22 -1 -15 -8 17 -34 15 -34 -3 0 -8 -7 -15 -15
-15 -9 0 -15 9 -15 25 0 16 -6 25 -16 25 -12 0 -15 -6 -10 -24 5 -20 3 -23
-14 -19 -11 3 -20 1 -20 -5 0 -6 -3 -18 -6 -27 -5 -13 -2 -15 22 -9 22 5 26 4
18 -5 -7 -8 -24 -10 -46 -6 -33 6 -35 8 -34 48 1 30 -3 42 -15 45 -14 2 -15
-5 -11 -47 4 -47 3 -50 -22 -57 -14 -3 -26 -11 -26 -16 0 -6 11 -7 25 -4 21 5
25 3 25 -18 0 -17 -8 -27 -30 -36 -17 -7 -30 -19 -30 -26 0 -17 14 -18 41 -4
17 10 19 7 19 -24 0 -23 -6 -38 -17 -45 -14 -8 -16 -14 -7 -28 6 -10 17 -18
25 -18 10 0 15 19 17 72 2 47 8 75 17 83 19 16 19 34 0 26 -9 -3 -15 0 -15 8
0 17 25 27 45 20 11 -5 12 -10 4 -26 -16 -30 0 -36 22 -9 19 23 19 23 19 2 0
-12 -3 -21 -7 -21 -5 0 -9 -25 -9 -55 -2 -54 7 -69 23 -40 5 7 27 17 51 21 38
6 42 5 42 -15 0 -46 19 -17 26 39 5 48 10 60 24 60 27 0 46 28 30 43 -10 9
-13 9 -17 0 -8 -22 -43 -15 -43 7 0 13 7 20 20 20 11 0 20 5 20 10 0 6 -12 10
-27 10 -23 0 -25 2 -13 11 11 8 12 12 3 16 -7 2 -13 16 -13 29 0 15 -6 24 -15
24 -11 0 -14 -7 -10 -27z m-6 -57 c-12 -10 -59 -15 -59 -6 0 5 9 10 19 10 11
0 23 5 27 12 6 9 9 9 12 -1 2 -7 2 -14 1 -15z m-24 -46 c-7 -22 5 -26 22 -9 8
8 14 5 22 -10 11 -19 9 -21 -19 -21 -37 0 -40 -20 -2 -21 22 -1 20 -3 -12 -10
-53 -13 -58 -9 -41 25 13 24 13 31 3 38 -10 6 -10 10 2 18 23 15 32 12 25 -10z
m20 -100 c-16 -4 -39 -8 -50 -8 -16 0 -15 2 5 8 14 4 36 8 50 8 22 0 22 -1 -5
-8z"/>
<path d="M588 6211 c4 -47 3 -50 -22 -57 -14 -3 -26 -11 -26 -16 0 -6 11 -7
25 -4 21 5 25 3 25 -18 0 -17 -8 -27 -30 -36 -16 -7 -30 -19 -30 -26 0 -17 14
-18 41 -4 17 10 19 7 19 -24 0 -23 -6 -38 -17 -45 -14 -8 -16 -14 -7 -28 6
-10 17 -18 25 -18 10 0 15 19 17 72 2 47 8 75 17 83 19 16 19 34 0 26 -9 -3
-15 0 -15 9 0 7 9 17 20 20 25 8 26 25 2 25 -15 0 -19 8 -18 42 1 31 -3 43
-15 46 -14 2 -15 -5 -11 -47z"/>
<path d="M335 5793 c3 -16 2 -22 -1 -15 -8 17 -34 15 -34 -3 0 -8 -7 -15 -15
-15 -9 0 -15 9 -15 25 0 16 -6 25 -16 25 -12 0 -15 -6 -10 -24 5 -20 3 -23
-14 -19 -11 3 -20 1 -20 -5 0 -6 -3 -18 -6 -27 -5 -13 -2 -15 22 -9 22 5 26 4
18 -5 -7 -8 -24 -10 -46 -6 -33 6 -35 8 -34 48 1 30 -3 42 -15 45 -14 2 -15
-5 -11 -47 4 -47 3 -50 -22 -57 -14 -3 -26 -11 -26 -16 0 -6 11 -7 25 -4 21 5
25 3 25 -18 0 -17 -8 -27 -30 -36 -17 -7 -30 -19 -30 -26 0 -17 14 -18 41 -4
17 10 19 7 19 -24 0 -23 -6 -38 -17 -45 -14 -8 -16 -14 -7 -28 6 -10 17 -18
25 -18 10 0 15 19 17 72 2 47 8 75 17 83 19 16 19 34 0 26 -9 -3 -15 0 -15 8
0 17 25 27 45 20 11 -5 12 -10 4 -26 -16 -30 0 -36 22 -9 19 23 19 23 19 2 0
-12 -3 -21 -7 -21 -5 0 -9 -24 -9 -53 l-1 -52 68 0 69 0 6 58 c5 45 10 57 24
57 27 0 46 28 30 43 -10 9 -13 9 -17 0 -8 -22 -43 -15 -43 7 0 13 7 20 20 20
11 0 20 5 20 10 0 6 -12 10 -27 10 -23 0 -25 2 -13 11 11 8 12 12 3 16 -7 2
-13 16 -13 29 0 15 -6 24 -15 24 -11 0 -14 -7 -10 -27z m-6 -57 c-12 -10 -59
-15 -59 -6 0 5 9 10 19 10 11 0 23 5 27 12 6 9 9 9 12 -1 2 -7 2 -14 1 -15z
m-24 -46 c-7 -22 5 -26 22 -9 8 8 14 5 22 -10 11 -19 9 -21 -19 -21 -37 0 -40
-20 -2 -21 22 -1 20 -3 -12 -10 -53 -13 -58 -9 -41 25 13 24 13 31 3 38 -10 6
-10 10 2 18 23 15 32 12 25 -10z m20 -100 c-16 -4 -39 -8 -50 -8 -16 0 -15 2
5 8 14 4 36 8 50 8 22 0 22 -1 -5 -8z m18 -27 c-7 -2 -21 -2 -30 0 -10 3 -4 5
12 5 17 0 24 -2 18 -5z"/>
<path d="M588 5761 c4 -47 3 -50 -22 -57 -14 -3 -26 -11 -26 -16 0 -6 11 -7
25 -4 21 5 25 3 25 -18 0 -17 -8 -27 -30 -36 -16 -7 -30 -19 -30 -26 0 -17 14
-18 41 -4 17 10 19 7 19 -24 0 -23 -6 -38 -17 -45 -14 -8 -16 -14 -7 -28 6
-10 17 -18 25 -18 10 0 15 19 17 72 2 47 8 75 17 83 19 16 19 34 0 26 -9 -3
-15 0 -15 9 0 8 4 15 10 15 12 0 70 59 70 71 0 21 -28 7 -34 -16 -4 -15 -14
-25 -25 -25 -14 0 -18 8 -17 42 1 31 -3 43 -15 46 -14 2 -15 -5 -11 -47z"/>
<path d="M335 5343 c3 -16 2 -22 -1 -15 -8 17 -34 15 -34 -3 0 -8 -7 -15 -15
-15 -9 0 -15 9 -15 25 0 16 -6 25 -16 25 -12 0 -15 -6 -10 -24 5 -20 3 -23
-14 -19 -11 3 -20 1 -20 -5 0 -6 -3 -18 -6 -27 -5 -13 -2 -15 22 -9 22 5 26 4
18 -5 -7 -8 -24 -10 -46 -6 -33 6 -35 8 -34 48 1 30 -3 42 -15 45 -14 2 -15
-5 -11 -47 4 -47 3 -50 -22 -57 -14 -3 -26 -11 -26 -16 0 -6 11 -7 25 -4 21 5
25 3 25 -18 0 -17 -8 -27 -30 -36 -17 -7 -30 -19 -30 -26 0 -17 14 -18 41 -4
17 10 19 7 19 -24 0 -23 -6 -38 -17 -45 -14 -8 -16 -14 -7 -28 6 -10 17 -18
25 -18 10 0 15 19 17 72 2 47 8 75 17 83 19 16 19 34 0 26 -9 -3 -15 0 -15 8
0 17 25 27 45 20 11 -5 12 -10 4 -26 -16 -30 0 -36 22 -9 19 23 19 23 19 2 0
-12 -3 -21 -7 -21 -5 0 -9 -25 -9 -55 -1 -33 3 -55 9 -55 6 0 0 -11 -13 -25
-13 -14 -21 -28 -17 -31 10 -10 77 36 77 53 0 12 8 15 40 10 l39 -5 7 59 c5
47 10 59 24 59 27 0 46 28 30 43 -10 9 -13 9 -17 0 -8 -22 -43 -15 -43 7 0 13
7 20 20 20 11 0 20 5 20 10 0 6 -12 10 -27 10 -23 0 -25 2 -13 11 11 8 12 12
3 16 -7 2 -13 16 -13 29 0 15 -6 24 -15 24 -11 0 -14 -7 -10 -27z m-6 -57
c-12 -10 -59 -15 -59 -6 0 5 9 10 19 10 11 0 23 5 27 12 6 9 9 9 12 -1 2 -7 2
-14 1 -15z m-24 -46 c-7 -22 5 -26 22 -9 8 8 14 5 22 -10 11 -19 9 -21 -19
-21 -37 0 -40 -20 -2 -21 22 -1 20 -3 -12 -10 -53 -13 -58 -9 -41 25 13 24 13
31 3 38 -10 6 -10 10 2 18 23 15 32 12 25 -10z m20 -100 c-16 -4 -39 -8 -50
-8 -16 0 -15 2 5 8 14 4 36 8 50 8 22 0 22 -1 -5 -8z m18 -27 c-7 -2 -21 -2
-30 0 -10 3 -4 5 12 5 17 0 24 -2 18 -5z"/>
<path d="M588 5311 c4 -47 3 -50 -22 -57 -14 -3 -26 -11 -26 -16 0 -6 11 -7
25 -4 21 5 25 3 25 -18 0 -17 -8 -27 -30 -36 -16 -7 -30 -19 -30 -26 0 -17 14
-18 41 -4 17 10 19 7 19 -24 0 -23 -6 -38 -17 -45 -14 -8 -16 -14 -7 -28 6
-10 17 -18 25 -18 10 0 15 19 17 72 2 47 8 75 17 83 19 16 19 34 0 26 -9 -3
-15 0 -15 9 0 8 4 15 8 15 5 0 19 9 32 20 13 11 29 20 37 20 15 0 15 2 7 24
-9 24 -31 19 -38 -9 -4 -15 -14 -25 -25 -25 -14 0 -18 8 -17 42 1 31 -3 43
-15 46 -14 2 -15 -5 -11 -47z"/>
<path d="M710 5300 c0 -5 7 -10 15 -10 8 0 15 5 15 10 0 6 -7 10 -15 10 -8 0
-15 -4 -15 -10z"/>
<path d="M335 4893 c3 -16 2 -22 -1 -15 -8 17 -34 15 -34 -3 0 -8 -7 -15 -15
-15 -9 0 -15 9 -15 25 0 16 -6 25 -16 25 -12 0 -15 -6 -10 -24 5 -20 3 -23
-14 -19 -11 3 -20 1 -20 -5 0 -6 -3 -18 -6 -27 -5 -13 -2 -15 22 -9 22 5 26 4
18 -5 -7 -8 -24 -10 -46 -6 -33 6 -35 8 -34 48 1 30 -3 42 -15 45 -14 2 -15
-5 -11 -47 4 -47 3 -50 -22 -57 -14 -3 -26 -11 -26 -16 0 -6 11 -7 25 -4 21 5
25 3 25 -18 0 -17 -8 -27 -30 -36 -17 -7 -30 -19 -30 -26 0 -17 14 -18 41 -4
17 10 19 7 19 -24 0 -23 -6 -38 -17 -45 -14 -8 -16 -14 -7 -28 6 -10 17 -18
25 -18 10 0 15 19 17 72 2 47 8 75 17 83 19 16 19 34 0 26 -9 -3 -15 0 -15 8
0 17 25 27 45 20 11 -5 12 -10 4 -26 -16 -30 0 -36 22 -9 19 23 19 23 19 2 0
-12 -3 -21 -7 -21 -5 0 -9 -25 -9 -55 -1 -33 3 -55 9 -55 6 0 0 -11 -13 -25
-13 -14 -21 -28 -17 -31 10 -10 77 36 77 53 0 12 8 15 40 10 l39 -5 7 59 c5
47 10 59 24 59 27 0 46 28 30 43 -10 9 -13 9 -17 0 -8 -22 -43 -15 -43 7 0 13
7 20 20 20 11 0 20 5 20 10 0 6 -12 10 -27 10 -23 0 -25 2 -13 11 11 8 12 12
3 16 -7 2 -13 16 -13 29 0 15 -6 24 -15 24 -11 0 -14 -7 -10 -27z m-6 -57
c-12 -10 -59 -15 -59 -6 0 5 9 10 19 10 11 0 23 5 27 12 6 9 9 9 12 -1 2 -7 2
-14 1 -15z m-24 -46 c-7 -22 5 -26 22 -9 8 8 14 5 22 -10 11 -19 9 -21 -19
-21 -37 0 -40 -20 -2 -21 22 -1 20 -3 -12 -10 -53 -13 -58 -9 -41 25 13 24 13
31 3 38 -10 6 -10 10 2 18 23 15 32 12 25 -10z m20 -100 c-16 -4 -39 -8 -50
-8 -16 0 -15 2 5 8 14 4 36 8 50 8 22 0 22 -1 -5 -8z m18 -27 c-7 -2 -21 -2
-30 0 -10 3 -4 5 12 5 17 0 24 -2 18 -5z"/>
<path d="M588 4861 c4 -47 3 -50 -22 -57 -14 -3 -26 -11 -26 -16 0 -6 11 -7
25 -4 21 5 25 3 25 -18 0 -17 -8 -27 -30 -36 -16 -7 -30 -19 -30 -26 0 -17 14
-18 41 -4 17 10 19 7 19 -24 0 -23 -6 -38 -17 -45 -14 -8 -16 -14 -7 -28 6
-10 17 -18 25 -18 10 0 15 19 17 72 2 47 8 75 17 83 19 16 19 34 0 26 -9 -3
-15 0 -15 9 0 8 4 15 8 15 5 0 19 9 32 20 25 21 50 26 50 10 0 -5 5 -10 10
-10 6 0 10 6 10 14 0 8 6 17 13 20 10 5 10 7 0 12 -7 3 -13 17 -13 30 0 15 -6
24 -16 24 -12 0 -15 -6 -10 -24 5 -20 3 -23 -13 -19 -13 3 -20 -2 -25 -21 -4
-16 -13 -26 -25 -26 -14 0 -18 8 -17 42 1 31 -3 43 -15 46 -14 2 -15 -5 -11
-47z"/>
<path d="M320 4622 c0 -12 44 -52 58 -52 23 0 12 40 -14 50 -31 12 -44 13 -44
2z"/>
<path d="M588 4411 c4 -47 3 -50 -22 -57 -14 -3 -26 -11 -26 -16 0 -6 11 -7
25 -4 21 5 25 3 25 -18 0 -17 -8 -27 -30 -36 -16 -7 -30 -19 -30 -26 0 -17 14
-18 41 -4 17 10 19 7 19 -24 0 -23 -6 -38 -17 -45 -14 -8 -16 -14 -7 -28 6
-10 17 -18 25 -18 10 0 15 19 17 72 2 47 8 75 17 83 19 16 19 34 0 26 -9 -3
-15 0 -15 8 0 18 22 26 49 19 12 -3 21 -1 21 5 0 6 -15 14 -33 17 -32 6 -34 9
-33 48 1 30 -3 42 -15 45 -14 2 -15 -5 -11 -47z"/>
<path d="M694 4436 c5 -20 3 -23 -14 -19 -11 3 -20 1 -20 -5 0 -6 -3 -18 -6
-27 -5 -13 -2 -15 20 -9 21 5 25 3 20 -10 -5 -12 0 -16 20 -16 27 0 35 15 14
23 -10 4 -9 8 2 17 11 9 12 13 3 17 -7 2 -13 16 -13 29 0 15 -6 24 -16 24 -12
0 -15 -6 -10 -24z"/>
<path d="M588 3961 c4 -47 3 -50 -22 -57 -14 -3 -26 -11 -26 -16 0 -6 11 -7
25 -4 21 5 25 3 25 -18 0 -17 -8 -27 -30 -36 -16 -7 -30 -19 -30 -26 0 -17 14
-18 41 -4 17 10 19 7 19 -24 0 -23 -6 -38 -17 -45 -14 -8 -16 -14 -7 -28 6
-10 17 -18 25 -18 10 0 15 19 17 72 2 47 8 75 17 83 19 16 19 34 0 26 -9 -3
-15 0 -15 8 0 17 25 27 45 20 11 -5 12 -10 4 -26 -6 -11 -8 -22 -5 -25 8 -8
34 16 41 38 4 10 15 19 26 19 21 0 26 16 7 23 -10 4 -9 8 2 17 11 9 12 13 3
17 -7 2 -13 16 -13 29 0 15 -6 24 -16 24 -12 0 -15 -6 -10 -24 5 -20 3 -23
-14 -19 -11 3 -20 1 -20 -5 0 -6 -3 -18 -6 -27 -5 -13 -2 -15 22 -9 22 5 26 4
18 -5 -7 -8 -24 -10 -46 -6 -33 6 -35 8 -34 48 1 30 -3 42 -15 45 -14 2 -15
-5 -11 -47z"/>
<path d="M588 3511 c4 -47 3 -50 -22 -57 -14 -3 -26 -11 -26 -16 0 -6 11 -7
25 -4 21 5 25 3 25 -18 0 -17 -8 -27 -30 -36 -16 -7 -30 -19 -30 -26 0 -17 14
-18 41 -4 17 10 19 7 19 -24 0 -23 -6 -38 -17 -45 -14 -8 -16 -14 -7 -28 6
-10 17 -18 25 -18 10 0 15 19 17 72 2 47 8 75 17 83 19 16 19 34 0 26 -9 -3
-15 0 -15 8 0 17 25 27 45 20 11 -5 12 -10 4 -26 -16 -30 0 -36 22 -9 19 23
19 23 19 2 0 -25 12 -27 31 -5 10 13 10 17 -2 25 -12 8 -12 10 1 19 13 9 13
11 0 20 -13 9 -13 11 0 21 11 8 12 12 3 16 -7 2 -13 16 -13 29 0 15 -6 24 -16
24 -12 0 -15 -6 -10 -24 5 -20 3 -23 -14 -19 -11 3 -20 1 -20 -5 0 -6 -3 -18
-6 -27 -5 -13 -2 -15 22 -9 22 5 26 4 18 -5 -7 -8 -24 -10 -46 -6 -33 6 -35 8
-34 48 1 30 -3 42 -15 45 -14 2 -15 -5 -11 -47z"/>
<path d="M588 3061 c4 -47 3 -50 -22 -57 -14 -3 -26 -11 -26 -16 0 -6 11 -7
25 -4 21 5 25 3 25 -18 0 -17 -8 -27 -30 -36 -16 -7 -30 -19 -30 -26 0 -17 14
-18 41 -4 17 10 19 7 19 -24 0 -23 -6 -38 -17 -45 -14 -8 -16 -14 -7 -28 6
-10 17 -18 25 -18 10 0 15 19 17 72 2 47 8 75 17 83 19 16 19 34 0 26 -9 -3
-15 0 -15 8 0 17 25 27 45 20 11 -5 12 -10 4 -26 -16 -30 0 -36 22 -9 19 23
19 23 19 2 0 -25 12 -27 31 -5 10 13 10 17 -2 25 -12 8 -12 10 1 20 11 8 12
12 3 16 -19 7 -16 23 5 23 21 0 42 18 42 37 0 7 -7 13 -15 13 -8 0 -15 -7 -15
-15 0 -8 -7 -15 -15 -15 -9 0 -15 9 -15 25 0 16 -6 25 -16 25 -12 0 -15 -6
-10 -24 5 -20 3 -23 -14 -19 -11 3 -20 1 -20 -5 0 -6 -3 -18 -6 -27 -5 -13 -2
-15 22 -9 22 5 26 4 18 -5 -7 -8 -24 -10 -46 -6 -33 6 -35 8 -34 48 1 30 -3
42 -15 45 -14 2 -15 -5 -11 -47z"/>
<path d="M588 2611 c4 -47 3 -50 -22 -57 -14 -3 -26 -11 -26 -16 0 -6 11 -7
25 -4 21 5 25 3 25 -18 0 -17 -8 -27 -30 -36 -16 -7 -30 -19 -30 -26 0 -17 14
-18 41 -4 17 10 19 7 19 -24 0 -23 -6 -38 -17 -45 -14 -8 -16 -14 -7 -28 6
-10 17 -18 25 -18 10 0 15 19 17 72 2 47 8 75 17 83 19 16 19 34 0 26 -9 -3
-15 0 -15 8 0 17 25 27 45 20 11 -5 12 -10 4 -26 -16 -30 0 -36 22 -9 19 23
19 23 19 2 0 -25 12 -27 31 -5 10 13 10 17 -2 25 -12 8 -12 10 1 20 11 8 12
12 3 16 -20 7 -15 23 6 23 11 0 22 4 25 8 3 5 19 7 36 4 18 -2 30 0 30 7 0 6
-11 11 -25 11 -14 0 -25 5 -25 10 0 6 -7 10 -15 10 -8 0 -15 -7 -15 -15 0 -8
-7 -15 -15 -15 -9 0 -15 9 -15 25 0 16 -6 25 -16 25 -12 0 -15 -6 -10 -24 5
-20 3 -23 -14 -19 -11 3 -20 1 -20 -5 0 -6 -3 -18 -6 -27 -5 -13 -2 -15 22 -9
22 5 26 4 18 -5 -7 -8 -24 -10 -46 -6 -33 6 -35 8 -34 48 1 30 -3 42 -15 45
-14 2 -15 -5 -11 -47z"/>
<path d="M785 2193 c3 -16 2 -22 -1 -15 -8 17 -34 15 -34 -3 0 -8 -7 -15 -15
-15 -9 0 -15 9 -15 25 0 16 -6 25 -16 25 -12 0 -15 -6 -10 -24 5 -20 3 -23
-14 -19 -11 3 -20 1 -20 -5 0 -6 -3 -18 -6 -27 -5 -13 -2 -15 22 -9 22 5 26 4
18 -5 -7 -8 -24 -10 -46 -6 -33 6 -35 8 -34 48 1 30 -3 42 -15 45 -14 2 -15
-5 -11 -47 4 -47 3 -50 -22 -57 -14 -3 -26 -11 -26 -16 0 -6 11 -7 25 -4 21 5
25 3 25 -18 0 -17 -8 -27 -30 -36 -16 -7 -30 -19 -30 -26 0 -17 14 -18 41 -4
17 10 19 7 19 -24 0 -23 -6 -38 -17 -45 -14 -8 -16 -14 -7 -28 6 -10 17 -18
25 -18 10 0 15 19 17 72 2 47 8 75 17 83 19 16 19 34 0 26 -9 -3 -15 0 -15 8
0 17 25 27 45 20 11 -5 12 -10 4 -26 -16 -30 0 -36 22 -9 19 23 19 23 19 2 0
-25 12 -27 31 -5 10 13 10 17 -2 25 -12 8 -12 10 1 20 11 8 12 12 3 16 -19 7
-16 23 5 23 10 0 23 5 30 12 9 9 12 8 12 -5 0 -22 17 -22 38 0 12 12 13 18 4
21 -6 2 -12 15 -12 28 0 15 -6 24 -15 24 -11 0 -14 -7 -10 -27z"/>
<path d="M785 1743 c3 -16 2 -22 -1 -15 -8 17 -34 15 -34 -3 0 -8 -7 -15 -15
-15 -9 0 -15 9 -15 25 0 16 -6 25 -16 25 -12 0 -15 -6 -10 -24 5 -20 3 -23
-14 -19 -11 3 -20 1 -20 -5 0 -6 -3 -18 -6 -27 -5 -13 -2 -15 22 -9 22 5 26 4
18 -5 -7 -8 -24 -10 -46 -6 -33 6 -35 8 -34 48 1 30 -3 42 -15 45 -14 2 -15
-5 -11 -47 4 -47 3 -50 -22 -57 -14 -3 -26 -11 -26 -16 0 -6 11 -7 25 -4 21 5
25 3 25 -18 0 -17 -8 -27 -30 -36 -16 -7 -30 -19 -30 -26 0 -17 14 -18 41 -4
17 10 19 7 19 -24 0 -23 -6 -38 -17 -45 -14 -8 -16 -14 -7 -28 6 -10 17 -18
25 -18 10 0 15 19 17 72 2 47 8 75 17 83 19 16 19 34 0 26 -9 -3 -15 0 -15 8
0 17 25 27 45 20 11 -5 12 -10 4 -26 -16 -30 0 -36 22 -9 19 23 19 23 19 2 0
-25 12 -27 31 -5 10 13 10 17 -2 25 -22 14 5 27 74 35 58 7 79 24 30 24 -23 0
-25 2 -13 11 11 8 12 12 3 16 -7 2 -13 16 -13 29 0 15 -6 24 -15 24 -11 0 -14
-7 -10 -27z m-6 -57 c-12 -10 -59 -15 -59 -6 0 5 9 10 19 10 11 0 23 5 27 12
6 9 9 9 12 -1 2 -7 2 -14 1 -15z"/>
<path d="M785 1293 c3 -16 2 -22 -1 -15 -8 17 -34 15 -34 -3 0 -8 -7 -15 -15
-15 -9 0 -15 9 -15 25 0 16 -6 25 -16 25 -12 0 -15 -6 -10 -24 5 -20 3 -23
-14 -19 -11 3 -20 1 -20 -5 0 -6 -3 -18 -6 -27 -5 -13 -2 -15 22 -9 22 5 26 4
18 -5 -7 -8 -24 -10 -46 -6 -33 6 -35 8 -34 48 1 30 -3 42 -15 45 -14 2 -15
-5 -11 -47 4 -47 3 -50 -22 -57 -14 -3 -26 -11 -26 -16 0 -6 11 -7 25 -4 21 5
25 3 25 -18 0 -17 -8 -27 -30 -36 -16 -7 -30 -19 -30 -26 0 -17 14 -18 41 -4
17 10 19 7 19 -24 0 -23 -6 -38 -17 -45 -14 -8 -16 -14 -7 -28 6 -10 17 -18
25 -18 10 0 15 19 17 72 2 47 8 75 17 83 19 16 19 34 0 26 -9 -3 -15 0 -15 8
0 17 25 27 45 20 11 -5 12 -10 4 -26 -16 -30 0 -36 22 -9 19 23 19 23 19 2 0
-25 12 -27 31 -5 10 13 10 17 -2 25 -12 8 -12 10 1 19 24 15 32 12 25 -11 -9
-29 16 -21 30 9 7 16 18 22 42 22 18 0 33 5 33 10 0 6 -12 10 -27 10 -23 0
-25 2 -13 11 11 8 12 12 3 16 -7 2 -13 16 -13 29 0 15 -6 24 -15 24 -11 0 -14
-7 -10 -27z m-6 -57 c-12 -10 -59 -15 -59 -6 0 5 9 10 19 10 11 0 23 5 27 12
6 9 9 9 12 -1 2 -7 2 -14 1 -15z"/>
<path d="M785 843 c3 -16 2 -22 -1 -15 -8 17 -34 15 -34 -3 0 -8 -7 -15 -15
-15 -9 0 -15 9 -15 25 0 16 -6 25 -16 25 -12 0 -15 -6 -10 -24 5 -20 3 -23
-14 -19 -11 3 -20 1 -20 -5 0 -6 -3 -18 -6 -27 -5 -13 -2 -15 22 -9 22 5 26 4
18 -5 -7 -8 -24 -10 -46 -6 -33 6 -35 8 -34 48 1 30 -3 42 -15 45 -14 2 -15
-5 -11 -47 4 -47 3 -50 -22 -57 -14 -3 -26 -11 -26 -16 0 -6 11 -7 25 -4 21 5
25 3 25 -18 0 -17 -8 -27 -30 -36 -16 -7 -30 -19 -30 -26 0 -17 14 -18 41 -4
17 10 19 7 19 -24 0 -23 -6 -38 -17 -45 -14 -8 -16 -14 -7 -28 6 -10 17 -18
25 -18 10 0 15 19 17 72 2 47 8 75 17 83 19 16 19 34 0 26 -9 -3 -15 0 -15 8
0 17 25 27 45 20 11 -5 12 -10 4 -26 -16 -30 0 -36 22 -9 19 23 19 23 19 2 0
-25 12 -27 31 -5 10 13 10 17 -2 25 -12 8 -12 10 1 19 23 15 32 12 25 -10 -7
-22 5 -26 22 -9 8 8 14 5 22 -10 14 -25 62 -29 81 -6 11 13 11 18 0 28 -10 9
-13 9 -17 0 -8 -22 -43 -15 -43 7 0 13 7 20 20 20 11 0 20 5 20 10 0 6 -12 10
-27 10 -23 0 -25 2 -13 11 11 8 12 12 3 16 -7 2 -13 16 -13 29 0 15 -6 24 -15
24 -11 0 -14 -7 -10 -27z m-6 -57 c-12 -10 -59 -15 -59 -6 0 5 9 10 19 10 11
0 23 5 27 12 6 9 9 9 12 -1 2 -7 2 -14 1 -15z"/>
<path d="M785 393 c3 -16 2 -22 -1 -15 -8 17 -34 15 -34 -3 0 -8 -7 -15 -15
-15 -9 0 -15 9 -15 25 0 16 -6 25 -16 25 -12 0 -15 -6 -10 -24 5 -20 3 -23
-14 -19 -11 3 -20 1 -20 -5 0 -6 -3 -18 -6 -27 -5 -13 -2 -15 22 -9 22 5 26 4
18 -5 -7 -8 -24 -10 -46 -6 -33 6 -35 8 -34 48 1 30 -3 42 -15 45 -14 2 -15
-5 -11 -47 4 -47 3 -50 -22 -57 -14 -3 -26 -11 -26 -16 0 -6 11 -7 25 -4 21 5
25 3 25 -18 0 -17 -8 -27 -30 -36 -16 -7 -30 -19 -30 -26 0 -17 14 -18 41 -4
17 10 19 7 19 -24 0 -23 -6 -38 -17 -45 -14 -8 -16 -14 -7 -28 6 -10 17 -18
25 -18 10 0 15 19 17 72 2 47 8 75 17 83 19 16 19 34 0 26 -9 -3 -15 0 -15 8
0 17 25 27 45 20 11 -5 12 -10 4 -26 -16 -30 0 -36 22 -9 19 23 19 23 19 2 0
-12 -3 -21 -7 -21 -5 0 -9 -25 -9 -55 -2 -71 20 -70 24 1 2 27 10 57 20 67 14
16 14 19 2 28 -13 8 -13 10 0 19 23 15 32 12 25 -10 -7 -22 5 -26 22 -9 8 8
14 5 22 -10 14 -25 62 -29 81 -6 11 13 11 18 0 28 -10 9 -13 9 -17 0 -8 -22
-43 -15 -43 7 0 13 7 20 20 20 11 0 20 5 20 10 0 6 -12 10 -27 10 -23 0 -25 2
-13 11 11 8 12 12 3 16 -7 2 -13 16 -13 29 0 15 -6 24 -15 24 -11 0 -14 -7
-10 -27z m-6 -57 c-12 -10 -59 -15 -59 -6 0 5 9 10 19 10 11 0 23 5 27 12 6 9
9 9 12 -1 2 -7 2 -14 1 -15z"/>
</g>
</svg>
