<?xml version="1.0" standalone="no"?>
<!DOCTYPE svg PUBLIC "-//W3C//DTD SVG 20010904//EN"
 "http://www.w3.org/TR/2001/REC-SVG-20010904/DTD/svg10.dtd">
<svg version="1.0" xmlns="http://www.w3.org/2000/svg"
 width="95.000000pt" height="725.000000pt" viewBox="0 0 95.000000 725.000000"
 preserveAspectRatio="xMidYMid meet">
<metadata>
Created by potrace 1.16, written by Peter Selinger 2001-2019
</metadata>
<g transform="translate(0.000000,725.000000) scale(0.100000,-0.100000)"
fill="#000000" stroke="none">
<path d="M316 7154 c-3 -9 -6 -20 -6 -25 0 -10 50 -12 74 -3 26 10 18 27 -9
20 -18 -5 -25 -2 -25 9 0 20 -26 19 -34 -1z"/>
<path d="M148 7105 c4 -54 4 -55 -22 -55 -14 0 -26 -4 -26 -10 0 -5 11 -10 25
-10 20 0 25 -5 25 -24 0 -18 -11 -31 -45 -50 -25 -15 -45 -31 -45 -36 0 -18
43 -10 67 12 l23 21 0 -32 c0 -24 -5 -34 -20 -38 -25 -7 -25 -15 -1 -37 30
-27 41 -11 41 58 0 36 5 67 12 74 10 10 10 15 -1 21 -17 11 -7 41 14 41 8 0
15 -7 15 -16 0 -12 6 -15 23 -10 12 3 32 6 45 6 12 0 22 5 22 10 0 6 -7 10
-15 10 -8 0 -15 5 -15 10 0 6 4 10 9 10 19 0 22 35 4 48 -15 11 -16 14 -3 22
23 14 8 20 -34 13 -27 -4 -36 -10 -32 -20 4 -8 6 -22 6 -30 0 -11 7 -14 28 -9
15 3 21 3 15 0 -7 -3 -13 -14 -13 -25 0 -10 -4 -19 -10 -19 -5 0 -7 7 -4 15 5
12 0 14 -24 9 -31 -6 -31 -6 -34 42 -2 35 -8 50 -19 52 -13 2 -15 -6 -11 -53z"/>
<path d="M340 7100 c0 -5 9 -10 20 -10 11 0 20 5 20 10 0 6 -9 10 -20 10 -11
0 -20 -4 -20 -10z"/>
<path d="M375 7085 c-5 -2 -22 -6 -37 -9 -26 -6 -41 -36 -18 -36 6 0 10 5 10
10 0 6 8 10 18 9 10 0 12 -3 5 -6 -25 -9 -13 -23 20 -23 22 0 36 7 45 20 19
32 -2 49 -43 35z"/>
<path d="M578 7053 c-39 -6 -35 -23 5 -23 41 0 77 10 77 21 0 9 -31 10 -82 2z"/>
<path d="M316 6704 c-3 -9 -6 -20 -6 -25 0 -10 50 -12 74 -3 26 10 18 27 -9
20 -18 -5 -25 -2 -25 9 0 20 -26 19 -34 -1z"/>
<path d="M148 6655 c4 -54 4 -55 -22 -55 -14 0 -26 -4 -26 -10 0 -5 11 -10 25
-10 20 0 25 -5 25 -24 0 -18 -11 -31 -45 -50 -25 -15 -45 -31 -45 -36 0 -18
43 -10 67 12 l23 21 0 -32 c0 -24 -5 -34 -20 -38 -25 -7 -25 -15 -1 -37 30
-27 41 -11 41 58 0 36 5 67 12 74 10 10 10 15 -1 21 -17 11 -7 41 14 41 8 0
15 -7 15 -16 0 -12 6 -15 23 -10 12 3 32 6 45 6 12 0 22 5 22 10 0 6 -7 10
-15 10 -8 0 -15 5 -15 10 0 6 4 10 9 10 19 0 22 35 4 48 -15 11 -16 14 -3 22
23 14 8 20 -34 13 -27 -4 -36 -10 -32 -20 4 -8 6 -22 6 -30 0 -11 7 -14 28 -9
15 3 21 3 15 0 -7 -3 -13 -14 -13 -25 0 -10 -4 -19 -10 -19 -5 0 -7 7 -4 15 5
12 0 14 -24 9 -31 -6 -31 -6 -34 42 -2 35 -8 50 -19 52 -13 2 -15 -6 -11 -53z"/>
<path d="M598 6655 c4 -54 4 -55 -22 -55 -14 0 -26 -4 -26 -10 0 -5 11 -10 25
-10 24 0 25 -2 25 -71 0 -62 -2 -71 -20 -76 -25 -7 -25 -15 -1 -37 33 -30 41
-11 41 91 0 86 2 95 20 100 23 6 27 23 6 23 -11 0 -16 14 -18 47 -2 34 -8 49
-19 51 -13 2 -15 -6 -11 -53z"/>
<path d="M340 6650 c0 -5 9 -10 20 -10 11 0 20 5 20 10 0 6 -9 10 -20 10 -11
0 -20 -4 -20 -10z"/>
<path d="M375 6635 c-5 -2 -22 -6 -37 -9 -26 -6 -41 -36 -18 -36 6 0 10 5 10
10 0 6 8 10 18 9 10 0 12 -3 5 -6 -25 -9 -13 -23 20 -23 22 0 36 7 45 20 19
32 -2 49 -43 35z"/>
<path d="M241 6505 c-1 -61 14 -74 24 -21 8 41 4 68 -11 73 -7 2 -12 -16 -13
-52z"/>
<path d="M316 6254 c-3 -9 -6 -20 -6 -25 0 -10 50 -12 74 -3 26 10 18 27 -9
20 -18 -5 -25 -2 -25 9 0 20 -26 19 -34 -1z"/>
<path d="M148 6205 c4 -54 4 -55 -22 -55 -14 0 -26 -4 -26 -10 0 -5 11 -10 25
-10 20 0 25 -5 25 -24 0 -18 -11 -31 -45 -50 -25 -15 -45 -31 -45 -36 0 -18
43 -10 67 12 l23 21 0 -32 c0 -24 -5 -34 -20 -38 -25 -7 -25 -15 -1 -37 30
-27 41 -11 41 58 0 36 5 67 12 74 10 10 10 15 -1 21 -17 11 -7 41 14 41 8 0
15 -7 15 -16 0 -12 6 -15 23 -10 12 3 32 6 45 6 12 0 22 5 22 10 0 6 -7 10
-15 10 -8 0 -15 5 -15 10 0 6 4 10 9 10 19 0 22 35 4 48 -15 11 -16 14 -3 22
23 14 8 20 -34 13 -27 -4 -36 -10 -32 -20 4 -8 6 -22 6 -30 0 -11 7 -14 28 -9
15 3 21 3 15 0 -7 -3 -13 -14 -13 -25 0 -10 -4 -19 -10 -19 -5 0 -7 7 -4 15 5
12 0 14 -24 9 -31 -6 -31 -6 -34 42 -2 35 -8 50 -19 52 -13 2 -15 -6 -11 -53z"/>
<path d="M598 6205 c4 -54 4 -55 -22 -55 -14 0 -26 -4 -26 -10 0 -5 11 -10 25
-10 20 0 25 -5 25 -24 0 -18 -11 -31 -45 -50 -25 -15 -45 -31 -45 -36 0 -18
43 -10 67 12 l23 21 0 -32 c0 -24 -5 -34 -20 -38 -25 -7 -25 -15 -1 -37 30
-27 41 -11 41 58 0 36 5 67 12 74 10 10 10 15 -1 21 -17 11 -7 41 14 41 8 0
15 5 15 10 0 6 -7 10 -14 10 -11 0 -16 14 -18 47 -2 34 -8 49 -19 51 -13 2
-15 -6 -11 -53z"/>
<path d="M340 6200 c0 -5 9 -10 20 -10 11 0 20 5 20 10 0 6 -9 10 -20 10 -11
0 -20 -4 -20 -10z"/>
<path d="M375 6185 c-5 -2 -22 -6 -37 -9 -26 -6 -41 -36 -18 -36 6 0 10 5 10
10 0 6 8 10 18 9 10 0 12 -3 5 -6 -25 -9 -13 -23 20 -23 22 0 36 7 45 20 19
32 -2 49 -43 35z"/>
<path d="M320 6111 c0 -5 5 -11 12 -13 6 -2 12 -25 12 -53 1 -26 6 -50 12 -52
16 -5 25 109 10 119 -16 11 -46 10 -46 -1z"/>
<path d="M241 6053 c0 -29 3 -53 8 -53 10 0 21 34 21 68 0 15 6 22 20 22 11 0
20 4 20 10 0 5 -15 9 -34 8 l-33 -1 -2 -54z"/>
<path d="M316 5804 c-3 -9 -6 -20 -6 -25 0 -10 50 -12 74 -3 26 10 18 27 -9
20 -18 -5 -25 -2 -25 9 0 20 -26 19 -34 -1z"/>
<path d="M148 5755 c4 -54 4 -55 -22 -55 -14 0 -26 -4 -26 -10 0 -5 11 -10 25
-10 20 0 25 -5 25 -24 0 -18 -11 -31 -45 -50 -25 -15 -45 -31 -45 -36 0 -18
43 -10 67 12 l23 21 0 -32 c0 -24 -5 -34 -20 -38 -25 -7 -25 -15 -1 -37 30
-27 41 -11 41 58 0 36 5 67 12 74 10 10 10 15 -1 21 -17 11 -7 41 14 41 8 0
15 -7 15 -16 0 -12 6 -15 23 -10 12 3 32 6 45 6 12 0 22 5 22 10 0 6 -7 10
-15 10 -8 0 -15 5 -15 10 0 6 4 10 9 10 19 0 22 35 4 48 -15 11 -16 14 -3 22
23 14 8 20 -34 13 -27 -4 -36 -10 -32 -20 4 -8 6 -22 6 -30 0 -11 7 -14 28 -9
15 3 21 3 15 0 -7 -3 -13 -14 -13 -25 0 -10 -4 -19 -10 -19 -5 0 -7 7 -4 15 5
12 0 14 -24 9 -31 -6 -31 -6 -34 42 -2 35 -8 50 -19 52 -13 2 -15 -6 -11 -53z"/>
<path d="M598 5755 c4 -54 4 -55 -22 -55 -14 0 -26 -4 -26 -10 0 -5 11 -10 25
-10 20 0 25 -5 25 -24 0 -18 -11 -31 -45 -50 -25 -15 -45 -31 -45 -36 0 -18
43 -10 67 12 l23 21 0 -32 c0 -24 -5 -34 -20 -38 -25 -7 -25 -15 -1 -37 30
-27 41 -11 41 58 0 36 5 67 12 74 10 10 10 15 -1 21 -17 11 -7 41 14 41 8 0
15 5 15 10 0 6 -7 10 -14 10 -11 0 -16 14 -18 47 -2 34 -8 49 -19 51 -13 2
-15 -6 -11 -53z"/>
<path d="M710 5790 c0 -5 7 -10 15 -10 8 0 15 5 15 10 0 6 -7 10 -15 10 -8 0
-15 -4 -15 -10z"/>
<path d="M670 5780 c0 -5 7 -10 15 -10 8 0 15 5 15 10 0 6 -7 10 -15 10 -8 0
-15 -4 -15 -10z"/>
<path d="M340 5750 c0 -5 9 -10 20 -10 11 0 20 5 20 10 0 6 -9 10 -20 10 -11
0 -20 -4 -20 -10z"/>
<path d="M375 5735 c-5 -2 -22 -6 -37 -9 -26 -6 -41 -36 -18 -36 6 0 10 5 10
10 0 6 8 10 18 9 10 0 12 -3 5 -6 -25 -9 -13 -23 20 -23 22 0 36 7 45 20 19
32 -2 49 -43 35z"/>
<path d="M320 5661 c0 -5 5 -11 11 -13 6 -2 11 -25 12 -52 1 -27 7 -51 13 -53
16 -5 25 109 10 119 -16 11 -46 10 -46 -1z"/>
<path d="M241 5603 c-1 -57 13 -72 24 -23 5 23 12 30 31 30 33 0 30 20 -3 21
-24 2 -25 2 -5 6 34 7 26 23 -12 21 l-33 -1 -2 -54z"/>
<path d="M316 5354 c-3 -9 -6 -20 -6 -25 0 -10 50 -12 74 -3 26 10 18 27 -9
20 -18 -5 -25 -2 -25 9 0 20 -26 19 -34 -1z"/>
<path d="M148 5305 c4 -54 4 -55 -22 -55 -14 0 -26 -4 -26 -10 0 -5 11 -10 25
-10 20 0 25 -5 25 -24 0 -18 -11 -31 -45 -50 -25 -15 -45 -31 -45 -36 0 -18
43 -10 67 12 l23 21 0 -32 c0 -24 -5 -34 -20 -38 -25 -7 -25 -15 -1 -37 30
-27 41 -11 41 58 0 36 5 67 12 74 10 10 10 15 -1 21 -17 11 -7 41 14 41 8 0
15 -7 15 -16 0 -12 6 -15 23 -10 12 3 32 6 45 6 12 0 22 5 22 10 0 6 -7 10
-15 10 -8 0 -15 5 -15 10 0 6 4 10 9 10 19 0 22 35 4 48 -15 11 -16 14 -3 22
23 14 8 20 -34 13 -27 -4 -36 -10 -32 -20 4 -8 6 -22 6 -30 0 -11 7 -14 28 -9
15 3 21 3 15 0 -7 -3 -13 -14 -13 -25 0 -10 -4 -19 -10 -19 -5 0 -7 7 -4 15 5
12 0 14 -24 9 -31 -6 -31 -6 -34 42 -2 35 -8 50 -19 52 -13 2 -15 -6 -11 -53z"/>
<path d="M598 5305 c4 -54 4 -55 -22 -55 -14 0 -26 -4 -26 -10 0 -5 11 -10 25
-10 20 0 25 -5 25 -24 0 -18 -11 -31 -45 -50 -25 -15 -45 -31 -45 -36 0 -18
43 -10 67 12 l23 21 0 -32 c0 -24 -5 -34 -20 -38 -25 -7 -25 -15 -1 -37 30
-27 41 -11 41 58 0 36 5 67 12 74 10 10 10 15 -1 21 -17 11 -7 41 14 41 8 0
15 5 15 10 0 6 -7 10 -14 10 -11 0 -16 14 -18 47 -2 34 -8 49 -19 51 -13 2
-15 -6 -11 -53z"/>
<path d="M693 5343 c-26 -5 -31 -23 -8 -23 8 0 15 -7 15 -15 0 -8 5 -15 10
-15 6 0 10 9 10 20 0 11 5 20 10 20 6 0 10 5 10 10 0 10 -8 11 -47 3z"/>
<path d="M340 5300 c0 -5 9 -10 20 -10 11 0 20 5 20 10 0 6 -9 10 -20 10 -11
0 -20 -4 -20 -10z"/>
<path d="M375 5285 c-5 -2 -22 -6 -37 -9 -26 -6 -41 -36 -18 -36 6 0 10 5 10
10 0 6 8 10 18 9 10 0 12 -3 5 -6 -25 -9 -13 -23 20 -23 22 0 36 7 45 20 19
32 -2 49 -43 35z"/>
<path d="M320 5210 c0 -5 5 -10 10 -10 6 0 10 -9 10 -20 0 -11 -4 -20 -10 -20
-5 0 -10 5 -10 10 0 6 -12 11 -27 11 -24 2 -25 2 -5 6 34 7 26 23 -12 21 l-33
-1 -2 -54 c0 -29 4 -53 9 -53 6 0 10 7 10 15 0 8 9 15 20 15 25 0 26 17 3 23
-14 4 -12 5 5 6 12 0 22 -3 22 -9 0 -5 6 -10 14 -10 8 0 16 -10 18 -22 2 -12
8 -23 14 -25 16 -5 25 109 10 119 -16 11 -46 10 -46 -2z"/>
<path d="M316 4904 c-3 -9 -6 -20 -6 -25 0 -10 50 -12 74 -3 26 10 18 27 -9
20 -18 -5 -25 -2 -25 9 0 20 -26 19 -34 -1z"/>
<path d="M148 4855 c4 -54 4 -55 -22 -55 -14 0 -26 -4 -26 -10 0 -5 11 -10 25
-10 20 0 25 -5 25 -24 0 -18 -11 -31 -45 -50 -25 -15 -45 -31 -45 -36 0 -18
43 -10 67 12 l23 21 0 -32 c0 -24 -5 -34 -20 -38 -25 -7 -25 -15 -1 -37 30
-27 41 -11 41 58 0 36 5 67 12 74 10 10 10 15 -1 21 -17 11 -7 41 14 41 8 0
15 -7 15 -16 0 -12 6 -15 23 -10 12 3 32 6 45 6 12 0 22 5 22 10 0 6 -7 10
-15 10 -8 0 -15 5 -15 10 0 6 4 10 9 10 19 0 22 35 4 48 -15 11 -16 14 -3 22
23 14 8 20 -34 13 -27 -4 -36 -10 -32 -20 4 -8 6 -22 6 -30 0 -11 7 -14 28 -9
15 3 21 3 15 0 -7 -3 -13 -14 -13 -25 0 -10 -4 -19 -10 -19 -5 0 -7 7 -4 15 5
12 0 14 -24 9 -31 -6 -31 -6 -34 42 -2 35 -8 50 -19 52 -13 2 -15 -6 -11 -53z"/>
<path d="M598 4855 c4 -54 4 -55 -22 -55 -14 0 -26 -4 -26 -10 0 -5 11 -10 25
-10 20 0 25 -5 25 -24 0 -18 -11 -31 -45 -50 -25 -15 -45 -31 -45 -36 0 -18
43 -10 67 12 l23 21 0 -32 c0 -24 -5 -34 -20 -38 -25 -7 -25 -15 -1 -37 30
-27 41 -11 41 58 0 36 5 67 12 74 10 10 10 15 -1 21 -17 11 -7 41 14 41 8 0
15 5 15 10 0 6 -7 10 -14 10 -11 0 -16 14 -18 47 -2 34 -8 49 -19 51 -13 2
-15 -6 -11 -53z"/>
<path d="M693 4893 c-26 -5 -31 -23 -8 -23 8 0 15 -4 15 -10 0 -5 -4 -10 -10
-10 -5 0 -10 -5 -10 -11 0 -6 7 -8 17 -5 9 4 20 1 24 -6 7 -10 11 -10 21 0 11
11 9 16 -7 29 -14 11 -16 17 -7 20 6 3 12 9 12 14 0 9 -8 10 -47 2z"/>
<path d="M340 4850 c0 -5 9 -10 20 -10 11 0 20 5 20 10 0 6 -9 10 -20 10 -11
0 -20 -4 -20 -10z"/>
<path d="M375 4835 c-5 -2 -22 -6 -37 -9 -26 -6 -41 -36 -18 -36 6 0 10 5 10
10 0 6 8 10 18 9 10 0 12 -3 5 -6 -25 -9 -13 -23 20 -23 22 0 36 7 45 20 19
32 -2 49 -43 35z"/>
<path d="M320 4760 c0 -5 5 -10 10 -10 6 0 10 -9 10 -20 0 -11 -4 -20 -10 -20
-5 0 -10 5 -10 10 0 6 -12 11 -27 11 -24 2 -25 2 -5 6 34 7 26 23 -12 21 l-33
-1 -2 -55 -1 -55 49 7 c30 4 52 2 56 -4 14 -22 23 -7 27 48 3 36 1 60 -6 64
-16 11 -46 10 -46 -2z m-10 -60 c0 -5 8 -10 18 -11 9 0 2 -5 -16 -10 -19 -6
-39 -8 -45 -5 -7 2 -2 5 11 5 26 1 30 18 5 24 -14 4 -12 5 5 6 12 0 22 -3 22
-9z"/>
<path d="M316 4454 c-3 -9 -6 -20 -6 -25 0 -10 50 -12 74 -3 26 10 18 27 -9
20 -18 -5 -25 -2 -25 9 0 20 -26 19 -34 -1z"/>
<path d="M148 4405 c4 -54 4 -55 -22 -55 -14 0 -26 -4 -26 -10 0 -5 11 -10 25
-10 20 0 25 -5 25 -24 0 -18 -11 -31 -45 -50 -25 -15 -45 -31 -45 -36 0 -18
43 -10 67 12 l23 21 0 -32 c0 -24 -5 -34 -20 -38 -25 -7 -25 -15 -1 -37 30
-27 41 -11 41 58 0 36 5 67 12 74 10 10 10 15 -1 21 -17 11 -7 41 14 41 8 0
15 -7 15 -16 0 -12 6 -15 23 -10 12 3 32 6 45 6 12 0 22 5 22 10 0 6 -7 10
-15 10 -8 0 -15 5 -15 10 0 6 4 10 9 10 19 0 22 35 4 48 -15 11 -16 14 -3 22
23 14 8 20 -34 13 -27 -4 -36 -10 -32 -20 4 -8 6 -22 6 -30 0 -11 7 -14 28 -9
15 3 21 3 15 0 -7 -3 -13 -14 -13 -25 0 -10 -4 -19 -10 -19 -5 0 -7 7 -4 15 5
12 0 14 -24 9 -31 -6 -31 -6 -34 42 -2 35 -8 50 -19 52 -13 2 -15 -6 -11 -53z"/>
<path d="M598 4405 c4 -54 4 -55 -22 -55 -14 0 -26 -4 -26 -10 0 -5 11 -10 25
-10 20 0 25 -5 25 -24 0 -18 -11 -31 -45 -50 -25 -15 -45 -31 -45 -36 0 -18
43 -10 67 12 l23 21 0 -32 c0 -24 -5 -34 -20 -38 -25 -7 -25 -15 -1 -37 30
-27 41 -11 41 58 0 36 5 67 12 74 10 10 10 15 -1 21 -17 11 -7 41 14 41 8 0
15 5 15 10 0 6 -7 10 -14 10 -11 0 -16 14 -18 47 -2 34 -8 49 -19 51 -13 2
-15 -6 -11 -53z"/>
<path d="M693 4443 c-26 -5 -31 -23 -8 -23 8 0 15 -4 15 -10 0 -5 -4 -10 -10
-10 -5 0 -10 -5 -10 -11 0 -6 10 -8 23 -5 12 3 16 3 10 0 -20 -9 -15 -24 6
-24 27 0 36 31 14 48 -13 10 -14 16 -5 19 6 3 12 9 12 14 0 9 -8 10 -47 2z"/>
<path d="M340 4400 c0 -5 9 -10 20 -10 11 0 20 5 20 10 0 6 -9 10 -20 10 -11
0 -20 -4 -20 -10z"/>
<path d="M375 4385 c-5 -2 -22 -6 -37 -9 -26 -6 -41 -36 -18 -36 6 0 10 5 10
10 0 6 8 10 18 9 10 0 12 -3 5 -6 -25 -9 -13 -23 20 -23 22 0 36 7 45 20 19
32 -2 49 -43 35z"/>
<path d="M320 4310 c0 -5 5 -10 10 -10 6 0 10 -9 10 -20 0 -11 -4 -20 -10 -20
-5 0 -10 5 -10 10 0 6 -12 11 -27 11 -24 2 -25 2 -5 6 34 7 26 23 -12 21 l-33
-1 -2 -54 c0 -34 3 -53 11 -53 16 0 -20 -38 -43 -45 -27 -9 -24 -28 4 -20 34
10 87 48 87 63 0 14 36 16 45 2 14 -22 23 -7 27 48 3 36 1 60 -6 64 -16 11
-46 10 -46 -2z m-10 -60 c0 -5 8 -10 18 -11 9 0 2 -5 -16 -10 -19 -6 -39 -8
-45 -5 -7 2 -2 5 11 5 26 1 30 18 5 24 -14 4 -12 5 5 6 12 0 22 -3 22 -9z"/>
<path d="M316 4004 c-3 -9 -6 -20 -6 -25 0 -10 50 -12 74 -3 26 10 18 27 -9
20 -18 -5 -25 -2 -25 9 0 20 -26 19 -34 -1z"/>
<path d="M148 3955 c4 -54 4 -55 -22 -55 -14 0 -26 -4 -26 -10 0 -5 11 -10 25
-10 20 0 25 -5 25 -24 0 -18 -11 -31 -45 -50 -25 -15 -45 -31 -45 -36 0 -18
43 -10 67 12 l23 21 0 -32 c0 -24 -5 -34 -20 -38 -25 -7 -25 -15 -1 -37 30
-27 41 -11 41 58 0 36 5 67 12 74 10 10 10 15 -1 21 -17 11 -7 41 14 41 8 0
15 -7 15 -16 0 -12 6 -15 23 -10 12 3 32 6 45 6 12 0 22 5 22 10 0 6 -7 10
-15 10 -8 0 -15 5 -15 10 0 6 4 10 9 10 19 0 22 35 4 48 -15 11 -16 14 -3 22
23 14 8 20 -34 13 -27 -4 -36 -10 -32 -20 4 -8 6 -22 6 -30 0 -11 7 -14 28 -9
15 3 21 3 15 0 -7 -3 -13 -14 -13 -25 0 -10 -4 -19 -10 -19 -5 0 -7 7 -4 15 5
12 0 14 -24 9 -31 -6 -31 -6 -34 42 -2 35 -8 50 -19 52 -13 2 -15 -6 -11 -53z"/>
<path d="M598 3955 c4 -54 4 -55 -22 -55 -14 0 -26 -4 -26 -10 0 -5 11 -10 25
-10 20 0 25 -5 25 -24 0 -18 -11 -31 -45 -50 -25 -15 -45 -31 -45 -36 0 -18
43 -10 67 12 l23 21 0 -32 c0 -24 -5 -34 -20 -38 -25 -7 -25 -15 -1 -37 30
-27 41 -11 41 58 0 36 5 67 12 74 10 10 10 15 -1 21 -17 11 -7 41 14 41 8 0
15 5 15 10 0 6 -7 10 -14 10 -11 0 -16 14 -18 47 -2 34 -8 49 -19 51 -13 2
-15 -6 -11 -53z"/>
<path d="M693 3993 c-26 -5 -31 -23 -8 -23 8 0 15 -4 15 -10 0 -5 -4 -10 -10
-10 -5 0 -10 -5 -10 -11 0 -6 10 -8 23 -5 12 3 16 3 10 0 -15 -7 -17 -54 -3
-54 6 0 10 7 10 15 0 8 4 15 9 15 19 0 22 35 4 48 -13 10 -14 16 -5 19 6 3 12
9 12 14 0 9 -8 10 -47 2z"/>
<path d="M340 3950 c0 -5 9 -10 20 -10 11 0 20 5 20 10 0 6 -9 10 -20 10 -11
0 -20 -4 -20 -10z"/>
<path d="M375 3935 c-5 -2 -22 -6 -37 -9 -26 -6 -41 -36 -18 -36 6 0 10 5 10
10 0 6 8 10 18 9 10 0 12 -3 5 -6 -25 -9 -13 -23 20 -23 22 0 36 7 45 20 19
32 -2 49 -43 35z"/>
<path d="M320 3860 c0 -5 5 -10 10 -10 6 0 10 -9 10 -20 0 -11 -4 -20 -10 -20
-5 0 -10 5 -10 10 0 6 -12 11 -27 11 -24 2 -25 2 -5 6 34 7 26 23 -12 21 l-33
-1 -2 -54 c-1 -36 3 -53 12 -53 13 -1 -33 -45 -55 -53 -7 -2 -10 -7 -7 -11 9
-10 69 17 97 43 l22 22 0 -35 c0 -39 11 -46 75 -46 48 0 70 18 60 50 -7 23
-25 27 -25 6 0 -17 -22 -26 -62 -26 -25 0 -29 3 -26 23 2 14 9 21 19 19 13 -2
17 9 21 55 3 37 1 61 -6 65 -16 11 -46 10 -46 -2z m-10 -60 c0 -5 8 -10 18
-11 9 0 2 -5 -16 -10 -19 -6 -39 -8 -45 -5 -7 2 -2 5 11 5 26 1 30 18 5 24
-14 4 -12 5 5 6 12 0 22 -3 22 -9z"/>
<path d="M598 3505 c4 -54 4 -55 -22 -55 -14 0 -26 -4 -26 -10 0 -5 11 -10 25
-10 20 0 25 -5 25 -24 0 -18 -11 -31 -45 -50 -25 -15 -45 -31 -45 -36 0 -18
43 -10 67 12 l23 21 0 -32 c0 -24 -5 -34 -20 -38 -25 -7 -25 -15 -1 -37 30
-27 41 -11 41 58 0 36 5 67 12 74 10 10 10 15 -1 21 -17 11 -7 41 14 41 8 0
15 -7 15 -16 0 -12 6 -15 23 -10 12 3 32 6 45 6 12 0 22 5 22 10 0 6 -7 10
-15 10 -8 0 -15 5 -15 10 0 6 4 10 9 10 19 0 22 35 4 48 -15 11 -16 14 -3 22
23 14 8 20 -34 13 -27 -4 -36 -10 -32 -20 4 -8 6 -22 6 -30 0 -11 7 -14 28 -9
15 3 21 3 15 0 -7 -3 -13 -14 -13 -25 0 -10 -4 -19 -10 -19 -5 0 -7 7 -4 15 5
12 0 14 -24 9 -31 -6 -31 -6 -34 42 -2 35 -8 50 -19 52 -13 2 -15 -6 -11 -53z"/>
<path d="M765 3099 c-4 -11 -4 -23 -1 -26 8 -9 36 17 36 33 0 22 -28 16 -35
-7z"/>
<path d="M598 3055 c4 -54 4 -55 -22 -55 -14 0 -26 -4 -26 -10 0 -5 11 -10 25
-10 20 0 25 -5 25 -24 0 -18 -11 -31 -45 -50 -25 -15 -45 -31 -45 -36 0 -18
43 -10 67 12 l23 21 0 -32 c0 -24 -5 -34 -20 -38 -25 -7 -25 -15 -1 -37 30
-27 41 -11 41 58 0 36 5 67 12 74 10 10 10 15 -1 21 -17 11 -7 41 14 41 8 0
15 -7 15 -16 0 -12 6 -15 23 -10 12 3 32 6 45 6 12 0 22 5 22 10 0 6 -7 10
-15 10 -8 0 -15 5 -15 10 0 6 4 10 9 10 19 0 22 35 4 48 -15 11 -16 14 -3 22
23 14 8 20 -34 13 -27 -4 -36 -10 -32 -20 4 -8 6 -22 6 -30 0 -11 7 -14 28 -9
15 3 21 3 15 0 -7 -3 -13 -14 -13 -25 0 -10 -4 -19 -10 -19 -5 0 -7 7 -4 15 5
12 0 14 -24 9 -31 -6 -31 -6 -34 42 -2 35 -8 50 -19 52 -13 2 -15 -6 -11 -53z"/>
<path d="M766 2654 c-3 -9 -6 -20 -6 -25 0 -10 50 -12 74 -3 26 10 18 27 -9
20 -18 -5 -25 -2 -25 9 0 20 -26 19 -34 -1z"/>
<path d="M598 2605 c4 -54 4 -55 -22 -55 -14 0 -26 -4 -26 -10 0 -5 11 -10 25
-10 20 0 25 -5 25 -24 0 -18 -11 -31 -45 -50 -25 -15 -45 -31 -45 -36 0 -18
43 -10 67 12 l23 21 0 -32 c0 -24 -5 -34 -20 -38 -25 -7 -25 -15 -1 -37 30
-27 41 -11 41 58 0 36 5 67 12 74 10 10 10 15 -1 21 -17 11 -7 41 14 41 8 0
15 -7 15 -16 0 -12 6 -15 23 -10 12 3 32 6 45 6 12 0 22 5 22 10 0 6 -7 10
-15 10 -8 0 -15 5 -15 10 0 6 4 10 9 10 19 0 22 35 4 48 -15 11 -16 14 -3 22
23 14 8 20 -34 13 -27 -4 -36 -10 -32 -20 4 -8 6 -22 6 -30 0 -11 7 -14 28 -9
15 3 21 3 15 0 -7 -3 -13 -14 -13 -25 0 -10 -4 -19 -10 -19 -5 0 -7 7 -4 15 5
12 0 14 -24 9 -31 -6 -31 -6 -34 42 -2 35 -8 50 -19 52 -13 2 -15 -6 -11 -53z"/>
<path d="M766 2204 c-3 -9 -6 -20 -6 -25 0 -10 50 -12 74 -3 26 10 18 27 -9
20 -18 -5 -25 -2 -25 9 0 20 -26 19 -34 -1z"/>
<path d="M598 2155 c4 -54 4 -55 -22 -55 -14 0 -26 -4 -26 -10 0 -5 11 -10 25
-10 20 0 25 -5 25 -24 0 -18 -11 -31 -45 -50 -25 -15 -45 -31 -45 -36 0 -18
43 -10 67 12 l23 21 0 -32 c0 -24 -5 -34 -20 -38 -25 -7 -25 -15 -1 -37 30
-27 41 -11 41 58 0 36 5 67 12 74 10 10 10 15 -1 21 -17 11 -7 41 14 41 8 0
15 -7 15 -16 0 -12 6 -15 23 -10 12 3 32 6 45 6 12 0 22 5 22 10 0 6 -7 10
-15 10 -8 0 -15 5 -15 10 0 6 4 10 9 10 19 0 22 35 4 48 -15 11 -16 14 -3 22
23 14 8 20 -34 13 -27 -4 -36 -10 -32 -20 4 -8 6 -22 6 -30 0 -11 7 -14 28 -9
15 3 21 3 15 0 -7 -3 -13 -14 -13 -25 0 -10 -4 -19 -10 -19 -5 0 -7 7 -4 15 5
12 0 14 -24 9 -31 -6 -31 -6 -34 42 -2 35 -8 50 -19 52 -13 2 -15 -6 -11 -53z"/>
<path d="M790 2150 c0 -5 9 -10 20 -10 11 0 20 5 20 10 0 6 -9 10 -20 10 -11
0 -20 -4 -20 -10z"/>
<path d="M766 1754 c-3 -9 -6 -20 -6 -25 0 -10 50 -12 74 -3 26 10 18 27 -9
20 -18 -5 -25 -2 -25 9 0 20 -26 19 -34 -1z"/>
<path d="M598 1705 c4 -54 4 -55 -22 -55 -14 0 -26 -4 -26 -10 0 -5 11 -10 25
-10 20 0 25 -5 25 -24 0 -18 -11 -31 -45 -50 -25 -15 -45 -31 -45 -36 0 -18
43 -10 67 12 l23 21 0 -32 c0 -24 -5 -34 -20 -38 -25 -7 -25 -15 -1 -37 30
-27 41 -11 41 58 0 36 5 67 12 74 10 10 10 15 -1 21 -17 11 -7 41 14 41 8 0
15 -7 15 -16 0 -12 6 -15 23 -10 12 3 32 6 45 6 12 0 22 5 22 10 0 6 -7 10
-15 10 -8 0 -15 5 -15 10 0 6 4 10 9 10 19 0 22 35 4 48 -15 11 -16 14 -3 22
23 14 8 20 -34 13 -27 -4 -36 -10 -32 -20 4 -8 6 -22 6 -30 0 -11 7 -14 28 -9
15 3 21 3 15 0 -7 -3 -13 -14 -13 -25 0 -10 -4 -19 -10 -19 -5 0 -7 7 -4 15 5
12 0 14 -24 9 -31 -6 -31 -6 -34 42 -2 35 -8 50 -19 52 -13 2 -15 -6 -11 -53z"/>
<path d="M790 1700 c0 -5 9 -10 20 -10 11 0 20 5 20 10 0 6 -9 10 -20 10 -11
0 -20 -4 -20 -10z"/>
<path d="M760 1655 c0 -8 5 -15 10 -15 6 0 10 7 10 15 0 8 -4 15 -10 15 -5 0
-10 -7 -10 -15z"/>
<path d="M766 1304 c-3 -9 -6 -20 -6 -25 0 -10 50 -12 74 -3 26 10 18 27 -9
20 -18 -5 -25 -2 -25 9 0 20 -26 19 -34 -1z"/>
<path d="M598 1255 c4 -54 4 -55 -22 -55 -14 0 -26 -4 -26 -10 0 -5 11 -10 25
-10 20 0 25 -5 25 -24 0 -18 -11 -31 -45 -50 -25 -15 -45 -31 -45 -36 0 -18
43 -10 67 12 l23 21 0 -32 c0 -24 -5 -34 -20 -38 -25 -7 -25 -15 -1 -37 30
-27 41 -11 41 58 0 36 5 67 12 74 10 10 10 15 -1 21 -17 11 -7 41 14 41 8 0
15 -7 15 -16 0 -12 6 -15 23 -10 12 3 32 6 45 6 12 0 22 5 22 10 0 6 -7 10
-15 10 -8 0 -15 5 -15 10 0 6 4 10 9 10 19 0 22 35 4 48 -15 11 -16 14 -3 22
23 14 8 20 -34 13 -27 -4 -36 -10 -32 -20 4 -8 6 -22 6 -30 0 -11 7 -14 28 -9
15 3 21 3 15 0 -7 -3 -13 -14 -13 -25 0 -10 -4 -19 -10 -19 -5 0 -7 7 -4 15 5
12 0 14 -24 9 -31 -6 -31 -6 -34 42 -2 35 -8 50 -19 52 -13 2 -15 -6 -11 -53z"/>
<path d="M790 1250 c0 -5 9 -10 20 -10 15 0 22 -9 27 -30 7 -35 14 -37 31 -10
15 25 8 40 -19 40 -10 0 -19 5 -19 10 0 6 -9 10 -20 10 -11 0 -20 -4 -20 -10z"/>
<path d="M760 1205 c0 -8 5 -15 10 -15 6 0 10 7 10 15 0 8 -4 15 -10 15 -5 0
-10 -7 -10 -15z"/>
<path d="M766 854 c-3 -9 -6 -20 -6 -25 0 -10 50 -12 74 -3 26 10 18 27 -9 20
-18 -5 -25 -2 -25 9 0 20 -26 19 -34 -1z"/>
<path d="M598 805 c4 -54 4 -55 -22 -55 -14 0 -26 -4 -26 -10 0 -5 11 -10 25
-10 20 0 25 -5 25 -24 0 -18 -11 -31 -45 -50 -25 -15 -45 -31 -45 -36 0 -18
43 -10 67 12 l23 21 0 -32 c0 -24 -5 -34 -20 -38 -25 -7 -25 -15 -1 -37 30
-27 41 -11 41 58 0 36 5 67 12 74 10 10 10 15 -1 21 -17 11 -7 41 14 41 8 0
15 -7 15 -16 0 -12 6 -15 23 -10 12 3 32 6 45 6 12 0 22 5 22 10 0 6 -7 10
-15 10 -8 0 -15 5 -15 10 0 6 4 10 9 10 19 0 22 35 4 48 -15 11 -16 14 -3 22
23 14 8 20 -34 13 -27 -4 -36 -10 -32 -20 4 -8 6 -22 6 -30 0 -11 7 -14 28 -9
15 3 21 3 15 0 -7 -3 -13 -14 -13 -25 0 -10 -4 -19 -10 -19 -5 0 -7 7 -4 15 5
12 0 14 -24 9 -31 -6 -31 -6 -34 42 -2 35 -8 50 -19 52 -13 2 -15 -6 -11 -53z"/>
<path d="M790 800 c0 -5 9 -10 20 -10 15 0 22 -9 27 -30 7 -35 14 -37 31 -10
15 25 8 40 -19 40 -10 0 -19 5 -19 10 0 6 -9 10 -20 10 -11 0 -20 -4 -20 -10z"/>
<path d="M773 773 c-15 -6 -17 -33 -3 -33 6 0 10 5 10 10 0 6 7 10 15 10 8 0
15 5 15 10 0 10 -16 12 -37 3z"/>
<path d="M766 404 c-3 -9 -6 -20 -6 -25 0 -10 50 -12 74 -3 26 10 18 27 -9 20
-18 -5 -25 -2 -25 9 0 20 -26 19 -34 -1z"/>
<path d="M598 355 c4 -54 4 -55 -22 -55 -14 0 -26 -4 -26 -10 0 -5 11 -10 25
-10 20 0 25 -5 25 -24 0 -18 -11 -31 -45 -50 -25 -15 -45 -31 -45 -36 0 -18
43 -10 67 12 l23 21 0 -32 c0 -24 -5 -34 -20 -38 -25 -7 -25 -15 -1 -37 30
-27 41 -11 41 58 0 36 5 67 12 74 10 10 10 15 -1 21 -17 11 -7 41 14 41 8 0
15 -7 15 -16 0 -12 6 -15 23 -10 12 3 32 6 45 6 12 0 22 5 22 10 0 6 -7 10
-15 10 -8 0 -15 5 -15 10 0 6 4 10 9 10 19 0 22 35 4 48 -15 11 -16 14 -3 22
23 14 8 20 -34 13 -27 -4 -36 -10 -32 -20 4 -8 6 -22 6 -30 0 -11 7 -14 28 -9
15 3 21 3 15 0 -7 -3 -13 -14 -13 -25 0 -10 -4 -19 -10 -19 -5 0 -7 7 -4 15 5
12 0 14 -24 9 -31 -6 -31 -6 -34 42 -2 35 -8 50 -19 52 -13 2 -15 -6 -11 -53z"/>
<path d="M790 350 c0 -5 9 -10 20 -10 11 0 20 5 20 10 0 6 -9 10 -20 10 -11 0
-20 -4 -20 -10z"/>
<path d="M825 335 c-5 -2 -22 -6 -37 -9 -26 -6 -41 -36 -18 -36 6 0 10 5 10
11 0 7 9 9 24 5 15 -4 26 -1 29 7 3 6 6 2 6 -10 1 -28 12 -29 29 -3 19 32 -2
49 -43 35z"/>
</g>
</svg>
