<?xml version="1.0" standalone="no"?>
<!DOCTYPE svg PUBLIC "-//W3C//DTD SVG 20010904//EN"
 "http://www.w3.org/TR/2001/REC-SVG-20010904/DTD/svg10.dtd">
<svg version="1.0" xmlns="http://www.w3.org/2000/svg"
 width="50.000000pt" height="725.000000pt" viewBox="0 0 50.000000 725.000000"
 preserveAspectRatio="xMidYMid meet">
<metadata>
Created by potrace 1.16, written by Peter Selinger 2001-2019
</metadata>
<g transform="translate(0.000000,725.000000) scale(0.100000,-0.100000)"
fill="#000000" stroke="none">
<path d="M133 7058 c-59 -13 -56 -33 3 -24 26 3 53 6 60 6 8 0 14 7 14 15 0
17 -15 17 -77 3z"/>
<path d="M133 6608 c-47 -10 -56 -25 -20 -30 19 -3 22 -10 25 -51 4 -65 26
-57 30 11 3 44 6 52 23 52 10 0 19 7 19 15 0 17 -15 17 -77 3z"/>
<path d="M133 6158 c-47 -10 -56 -25 -20 -30 18 -2 23 -10 25 -46 3 -40 1 -44
-27 -55 -31 -11 -40 -30 -21 -42 5 -3 35 9 65 27 55 33 73 55 35 43 -18 -6
-20 -2 -20 39 0 39 3 46 20 46 11 0 20 7 20 15 0 17 -15 17 -77 3z"/>
<path d="M260 5790 c0 -11 -9 -46 -20 -77 -11 -31 -18 -58 -16 -61 10 -10 25
12 52 74 23 55 25 67 13 75 -22 14 -29 11 -29 -11z"/>
<path d="M133 5708 c-47 -10 -56 -25 -20 -30 18 -2 23 -10 25 -46 3 -40 1 -44
-27 -55 -31 -11 -40 -30 -21 -42 5 -3 35 9 65 27 55 33 73 55 35 43 -18 -6
-20 -2 -20 39 0 39 3 46 20 46 11 0 20 7 20 15 0 17 -15 17 -77 3z"/>
<path d="M260 5340 c0 -11 -9 -46 -20 -77 -20 -58 -18 -82 4 -50 7 9 21 17 29
17 28 0 107 24 107 32 0 11 -32 10 -69 -3 -18 -6 -34 -9 -37 -6 -3 2 3 24 12
47 14 36 15 43 3 51 -22 14 -29 11 -29 -11z"/>
<path d="M133 5258 c-47 -10 -56 -25 -20 -30 18 -2 23 -10 25 -46 3 -40 1 -44
-27 -55 -31 -11 -40 -30 -21 -42 5 -3 35 9 65 27 55 33 73 55 35 43 -18 -6
-20 -2 -20 39 0 39 3 46 20 46 11 0 20 7 20 15 0 17 -15 17 -77 3z"/>
<path d="M260 4890 c0 -11 -9 -46 -20 -77 -20 -58 -18 -82 4 -50 14 18 41 23
50 9 3 -4 1 -26 -4 -48 -9 -37 -57 -94 -91 -106 -24 -9 -6 -17 24 -11 47 9 84
55 99 125 11 53 17 64 36 66 12 2 22 8 22 13 0 12 -30 11 -69 -2 -18 -6 -34
-9 -37 -6 -3 2 3 24 12 47 14 36 15 43 3 51 -22 14 -29 11 -29 -11z"/>
<path d="M133 4808 c-47 -10 -56 -25 -20 -30 18 -2 23 -10 25 -46 3 -40 1 -44
-27 -55 -31 -11 -40 -30 -21 -42 5 -3 35 9 65 27 55 33 73 55 35 43 -18 -6
-20 -2 -20 39 0 39 3 46 20 46 11 0 20 7 20 15 0 17 -15 17 -77 3z"/>
<path d="M260 4440 c0 -11 -9 -46 -20 -77 -20 -59 -18 -81 5 -50 7 10 22 17
32 15 14 -3 17 -11 15 -38 -5 -43 -7 -46 -27 -30 -21 18 -29 7 -14 -18 11 -18
10 -24 -5 -41 -10 -11 -27 -23 -37 -26 -11 -4 -19 -11 -19 -16 0 -12 48 0 78
19 21 14 24 13 38 -6 22 -32 50 -44 89 -36 45 8 44 18 -3 33 -21 7 -48 21 -61
30 -23 18 -23 19 -10 82 12 54 18 65 37 67 12 2 22 8 22 13 0 12 -30 11 -69
-2 -18 -6 -34 -9 -37 -6 -3 2 3 24 12 47 14 36 15 43 3 51 -22 14 -29 11 -29
-11z"/>
<path d="M133 4358 c-47 -10 -56 -25 -20 -30 18 -2 23 -10 25 -46 3 -40 1 -44
-27 -55 -31 -11 -40 -30 -21 -42 5 -3 35 9 65 27 55 33 73 55 35 43 -18 -6
-20 -2 -20 39 0 39 3 46 20 46 11 0 20 7 20 15 0 17 -15 17 -77 3z"/>
</g>
</svg>
