<?xml version="1.0" standalone="no"?>
<!DOCTYPE svg PUBLIC "-//W3C//DTD SVG 20010904//EN"
 "http://www.w3.org/TR/2001/REC-SVG-20010904/DTD/svg10.dtd">
<svg version="1.0" xmlns="http://www.w3.org/2000/svg"
 width="50.000000pt" height="725.000000pt" viewBox="0 0 50.000000 725.000000"
 preserveAspectRatio="xMidYMid meet">
<metadata>
Created by potrace 1.16, written by Peter Selinger 2001-2019
</metadata>
<g transform="translate(0.000000,725.000000) scale(0.100000,-0.100000)"
fill="#000000" stroke="none">
<path d="M163 7087 c-92 -15 -78 -30 20 -21 90 7 92 8 82 23 -7 12 -15 12
-102 -2z"/>
<path d="M164 6673 c1 -36 -1 -38 -31 -41 -44 -4 -42 -22 2 -22 24 0 35 -5 35
-15 0 -22 21 -18 27 5 4 15 14 20 40 20 23 0 33 4 30 13 -2 6 -18 11 -35 11
-28 -2 -31 1 -34 30 -2 19 -9 32 -19 34 -13 2 -16 -5 -15 -35z"/>
<path d="M164 6223 c1 -36 -1 -38 -31 -41 -44 -4 -42 -22 2 -22 38 0 48 -19
15 -27 -33 -9 -23 -26 11 -19 17 3 42 6 55 6 13 0 24 5 24 10 0 6 -9 10 -20
10 -11 0 -20 7 -20 15 0 11 11 15 36 15 24 0 34 4 31 13 -2 6 -18 11 -35 11
-28 -2 -31 1 -34 30 -2 19 -9 32 -19 34 -13 2 -16 -5 -15 -35z"/>
<path d="M164 5773 c1 -36 -1 -38 -31 -41 -44 -4 -42 -22 2 -22 38 0 48 -19
15 -27 -33 -9 -23 -26 11 -19 17 3 42 6 55 6 13 0 24 5 24 10 0 6 -9 10 -20
10 -11 0 -20 7 -20 15 0 11 11 15 36 15 24 0 34 4 31 13 -2 6 -18 11 -35 11
-28 -2 -31 1 -34 30 -2 19 -9 32 -19 34 -13 2 -16 -5 -15 -35z"/>
<path d="M172 5648 c6 -18 28 -21 28 -4 0 9 -7 16 -16 16 -9 0 -14 -5 -12 -12z"/>
<path d="M164 5323 c1 -36 -1 -38 -31 -41 -44 -4 -42 -22 2 -22 38 0 48 -19
15 -27 -33 -9 -23 -26 11 -19 17 3 42 6 55 6 13 0 24 5 24 10 0 6 -9 10 -20
10 -11 0 -20 7 -20 15 0 11 11 15 36 15 24 0 34 4 31 13 -2 6 -18 11 -35 11
-28 -2 -31 1 -34 30 -2 19 -9 32 -19 34 -13 2 -16 -5 -15 -35z"/>
<path d="M173 5196 c4 -11 -7 -16 -44 -21 -31 -4 -48 -11 -46 -19 5 -13 9 -13
100 5 67 14 90 29 42 29 -14 0 -25 5 -25 10 0 6 -7 10 -16 10 -10 0 -14 -6
-11 -14z"/>
<path d="M164 4873 c1 -36 -1 -38 -31 -41 -44 -4 -42 -22 2 -22 38 0 48 -19
15 -27 -33 -9 -23 -26 11 -19 17 3 42 6 55 6 13 0 24 5 24 10 0 6 -9 10 -20
10 -11 0 -20 7 -20 15 0 11 11 15 36 15 24 0 34 4 31 13 -2 6 -18 11 -35 11
-28 -2 -31 1 -34 30 -2 19 -9 32 -19 34 -13 2 -16 -5 -15 -35z"/>
<path d="M173 4746 c4 -11 -7 -16 -44 -21 -31 -4 -48 -11 -46 -19 5 -13 9 -13
100 5 67 14 90 29 42 29 -14 0 -25 5 -25 10 0 6 -7 10 -16 10 -10 0 -14 -6
-11 -14z"/>
<path d="M190 4691 c0 -5 5 -11 11 -13 7 -2 7 -11 -1 -30 -8 -17 -18 -24 -27
-21 -12 5 -14 1 -8 -18 10 -33 13 -35 33 -23 21 14 46 78 39 99 -7 16 -47 21
-47 6z"/>
<path d="M164 4423 c1 -36 -1 -38 -31 -41 -44 -4 -42 -22 2 -22 38 0 48 -19
15 -27 -33 -9 -23 -26 11 -19 17 3 42 6 55 6 13 0 24 5 24 10 0 6 -9 10 -20
10 -11 0 -20 7 -20 15 0 11 11 15 36 15 24 0 34 4 31 13 -2 6 -18 11 -35 11
-28 -2 -31 1 -34 30 -2 19 -9 32 -19 34 -13 2 -16 -5 -15 -35z"/>
<path d="M173 4296 c4 -11 -7 -16 -44 -21 -46 -6 -60 -17 -40 -29 4 -3 22 -1
40 4 39 11 40 0 0 -45 -18 -20 -29 -38 -26 -41 8 -9 47 21 66 50 11 16 21 22
29 17 19 -11 -5 -62 -25 -54 -12 5 -14 1 -8 -18 10 -33 13 -35 33 -23 21 14
46 78 39 99 -4 8 -16 15 -27 15 -11 0 -20 5 -20 10 0 6 14 10 30 10 17 0 30 5
30 10 0 6 -11 10 -25 10 -14 0 -25 5 -25 10 0 6 -7 10 -16 10 -10 0 -14 -6
-11 -14z"/>
<path d="M164 3973 c1 -36 -1 -38 -31 -41 -44 -4 -42 -22 2 -22 38 0 48 -19
15 -27 -33 -9 -23 -26 11 -19 17 3 42 6 55 6 13 0 24 5 24 10 0 6 -9 10 -20
10 -11 0 -20 7 -20 15 0 11 11 15 36 15 24 0 34 4 31 13 -2 6 -18 11 -35 11
-28 -2 -31 1 -34 30 -2 19 -9 32 -19 34 -13 2 -16 -5 -15 -35z"/>
<path d="M283 3922 c-11 -37 -20 -69 -18 -71 9 -9 28 16 52 66 22 46 24 56 12
64 -22 14 -23 13 -46 -59z"/>
<path d="M173 3846 c4 -11 -7 -16 -44 -21 -46 -6 -60 -17 -40 -29 4 -3 22 -1
40 4 39 11 40 0 0 -45 -18 -20 -29 -38 -26 -41 8 -9 47 21 66 50 11 16 21 22
29 17 19 -11 -5 -62 -25 -54 -12 5 -14 1 -8 -18 10 -33 13 -35 33 -23 21 14
46 78 39 99 -4 8 -16 15 -27 15 -11 0 -20 5 -20 10 0 6 14 10 30 10 17 0 30 5
30 10 0 6 -11 10 -25 10 -14 0 -25 5 -25 10 0 6 -7 10 -16 10 -10 0 -14 -6
-11 -14z"/>
<path d="M164 3523 c1 -36 -1 -38 -31 -41 -44 -4 -42 -22 2 -22 38 0 48 -19
15 -27 -33 -9 -23 -26 11 -19 17 3 42 6 55 6 13 0 24 5 24 10 0 6 -9 10 -20
10 -11 0 -20 7 -20 15 0 11 11 15 36 15 24 0 34 4 31 13 -2 6 -18 11 -35 11
-28 -2 -31 1 -34 30 -2 19 -9 32 -19 34 -13 2 -16 -5 -15 -35z"/>
<path d="M283 3472 c-11 -37 -20 -68 -20 -68 7 -5 127 22 127 28 0 15 -26 19
-55 8 -15 -6 -29 -9 -30 -8 -2 2 6 23 18 46 17 37 18 45 6 53 -22 14 -23 13
-46 -59z"/>
<path d="M173 3396 c4 -11 -7 -16 -44 -21 -46 -6 -60 -17 -40 -29 4 -3 22 -1
40 4 39 11 40 0 0 -45 -18 -20 -29 -38 -26 -41 8 -9 47 21 66 50 11 16 21 22
29 17 19 -11 -5 -62 -25 -54 -12 5 -14 1 -8 -18 10 -33 13 -35 33 -23 21 14
46 78 39 99 -4 8 -16 15 -27 15 -11 0 -20 5 -20 10 0 6 14 10 30 10 17 0 30 5
30 10 0 6 -11 10 -25 10 -14 0 -25 5 -25 10 0 6 -7 10 -16 10 -10 0 -14 -6
-11 -14z"/>
<path d="M164 3073 c1 -36 -1 -38 -31 -41 -44 -4 -42 -22 2 -22 38 0 48 -19
15 -27 -33 -9 -23 -26 11 -19 17 3 42 6 55 6 13 0 24 5 24 10 0 6 -9 10 -20
10 -11 0 -20 7 -20 15 0 11 11 15 36 15 24 0 34 4 31 13 -2 6 -18 11 -35 11
-28 -2 -31 1 -34 30 -2 19 -9 32 -19 34 -13 2 -16 -5 -15 -35z"/>
<path d="M287 3032 c-10 -31 -20 -63 -23 -69 -4 -9 3 -11 25 -7 27 6 31 4 31
-15 0 -39 -29 -91 -60 -109 -16 -9 -30 -21 -30 -26 0 -14 53 4 77 26 23 21 49
110 38 128 -4 6 4 10 19 10 14 0 26 5 26 10 0 17 -25 22 -55 10 -15 -6 -29 -9
-30 -8 -2 2 6 23 18 46 17 37 18 45 6 53 -22 14 -23 12 -42 -49z"/>
<path d="M173 2946 c4 -11 -7 -16 -44 -21 -46 -6 -60 -17 -40 -29 4 -3 22 -1
40 4 39 11 40 0 0 -45 -18 -20 -29 -38 -26 -41 8 -9 47 21 66 50 11 16 21 22
29 17 19 -11 -5 -62 -25 -54 -12 5 -14 1 -8 -18 10 -33 13 -35 33 -23 21 14
46 78 39 99 -4 8 -16 15 -27 15 -11 0 -20 5 -20 10 0 6 14 10 30 10 17 0 30 5
30 10 0 6 -11 10 -25 10 -14 0 -25 5 -25 10 0 6 -7 10 -16 10 -10 0 -14 -6
-11 -14z"/>
<path d="M164 2623 c1 -36 -1 -38 -31 -41 -44 -4 -42 -22 2 -22 38 0 48 -19
15 -27 -33 -9 -23 -26 11 -19 17 3 42 6 55 6 13 0 24 5 24 10 0 6 -9 10 -20
10 -11 0 -20 7 -20 15 0 11 11 15 36 15 24 0 34 4 31 13 -2 6 -18 11 -35 11
-28 -2 -31 1 -34 30 -2 19 -9 32 -19 34 -13 2 -16 -5 -15 -35z"/>
<path d="M287 2582 c-10 -31 -20 -63 -23 -69 -4 -9 3 -11 25 -7 27 6 31 4 31
-14 0 -11 -3 -28 -6 -37 -6 -14 -8 -14 -25 1 -28 25 -36 8 -10 -20 l22 -24
-27 -21 c-15 -11 -31 -21 -35 -21 -5 0 -9 -5 -9 -11 0 -14 49 -3 71 17 14 13
18 12 33 -11 12 -19 25 -25 51 -25 48 0 44 20 -8 45 -31 15 -41 25 -39 40 1
11 3 37 5 57 2 32 6 38 25 38 12 0 22 5 22 10 0 17 -25 22 -55 10 -15 -6 -29
-9 -30 -8 -2 2 6 23 18 46 17 37 18 45 6 53 -22 14 -23 12 -42 -49z"/>
<path d="M173 2496 c4 -11 -7 -16 -44 -21 -46 -6 -60 -17 -40 -29 4 -3 22 -1
40 4 39 11 40 0 0 -45 -18 -20 -29 -38 -26 -41 8 -9 47 21 66 50 11 16 21 22
29 17 19 -11 -5 -62 -25 -54 -12 5 -14 1 -8 -18 10 -33 13 -35 33 -23 21 14
46 78 39 99 -4 8 -16 15 -27 15 -11 0 -20 5 -20 10 0 6 14 10 30 10 17 0 30 5
30 10 0 6 -11 10 -25 10 -14 0 -25 5 -25 10 0 6 -7 10 -16 10 -10 0 -14 -6
-11 -14z"/>
</g>
</svg>
