<?xml version="1.0" standalone="no"?>
<!DOCTYPE svg PUBLIC "-//W3C//DTD SVG 20010904//EN"
 "http://www.w3.org/TR/2001/REC-SVG-20010904/DTD/svg10.dtd">
<svg version="1.0" xmlns="http://www.w3.org/2000/svg"
 width="50.000000pt" height="725.000000pt" viewBox="0 0 50.000000 725.000000"
 preserveAspectRatio="xMidYMid meet">
<metadata>
Created by potrace 1.16, written by Peter Selinger 2001-2019
</metadata>
<g transform="translate(0.000000,725.000000) scale(0.100000,-0.100000)"
fill="#000000" stroke="none">
<path d="M100 7077 c0 -14 20 -37 32 -37 15 0 8 38 -8 44 -22 8 -24 8 -24 -7z"/>
<path d="M212 6639 c-7 -12 -11 -24 -7 -27 9 -9 40 13 43 32 5 23 -21 20 -36
-5z"/>
<path d="M100 6627 c0 -14 20 -37 32 -37 15 0 8 38 -8 44 -22 8 -24 8 -24 -7z"/>
<path d="M212 6189 c-7 -12 -11 -24 -7 -27 9 -9 40 13 43 32 5 23 -21 20 -36
-5z"/>
<path d="M100 6177 c0 -14 20 -37 32 -37 15 0 8 38 -8 44 -22 8 -24 8 -24 -7z"/>
<path d="M90 6071 c0 -27 -3 -63 -6 -80 -5 -24 -3 -31 10 -31 13 0 16 11 16
58 0 31 3 67 6 80 5 16 2 22 -10 22 -13 0 -16 -11 -16 -49z"/>
<path d="M212 5739 c-7 -12 -11 -24 -7 -27 9 -9 40 13 43 32 5 23 -21 20 -36
-5z"/>
<path d="M100 5727 c0 -14 20 -37 32 -37 15 0 8 38 -8 44 -22 8 -24 8 -24 -7z"/>
<path d="M183 5683 c-44 -6 -42 -23 2 -23 l35 0 0 -60 c0 -47 -3 -60 -15 -60
-19 0 -19 -9 0 -34 26 -34 38 -5 39 91 1 96 2 94 -61 86z"/>
<path d="M90 5621 c0 -27 -3 -63 -6 -80 -5 -24 -3 -31 10 -31 13 0 16 12 16
64 0 36 5 68 10 71 17 10 11 25 -10 25 -17 0 -20 -7 -20 -49z"/>
<path d="M158 5281 c-5 -90 2 -221 13 -221 5 0 9 34 9 75 0 68 2 75 20 75 18
0 20 -7 20 -60 0 -47 -3 -60 -15 -60 -19 0 -19 -9 0 -34 26 -34 38 -5 39 91
l1 88 -31 -2 -31 -3 5 55 c4 45 2 55 -11 55 -12 0 -16 -14 -19 -59z"/>
<path d="M212 5289 c-7 -12 -11 -24 -7 -27 9 -9 40 13 43 32 5 23 -21 20 -36
-5z"/>
<path d="M100 5277 c0 -14 20 -37 32 -37 15 0 8 38 -8 44 -22 8 -24 8 -24 -7z"/>
<path d="M90 5171 c0 -27 -3 -63 -6 -80 -5 -24 -3 -31 10 -31 13 0 16 12 16
64 0 36 5 68 10 71 17 10 11 25 -10 25 -17 0 -20 -7 -20 -49z"/>
<path d="M158 4833 c0 -32 0 -68 1 -80 1 -14 -4 -23 -13 -23 -14 0 -31 -29
-21 -38 2 -3 11 1 20 8 13 11 15 6 15 -39 0 -28 5 -51 10 -51 6 0 10 32 10 75
0 68 2 75 20 75 18 0 20 -7 20 -60 0 -47 -3 -60 -15 -60 -19 0 -19 -9 0 -34
26 -34 38 -5 39 91 l1 88 -31 -2 -31 -3 5 55 c4 46 2 55 -12 55 -13 0 -16 -12
-18 -57z"/>
<path d="M212 4839 c-7 -12 -11 -24 -7 -27 9 -9 40 13 43 32 5 23 -21 20 -36
-5z"/>
<path d="M100 4827 c0 -14 20 -37 32 -37 15 0 8 38 -8 44 -22 8 -24 8 -24 -7z"/>
<path d="M90 4721 c0 -27 -3 -63 -6 -80 -5 -24 -3 -31 10 -31 13 0 16 12 16
64 0 36 5 68 10 71 17 10 11 25 -10 25 -17 0 -20 -7 -20 -49z"/>
<path d="M158 4383 c0 -32 0 -68 1 -80 1 -14 -4 -23 -13 -23 -14 0 -31 -29
-21 -38 2 -3 11 1 20 8 13 11 15 6 15 -39 0 -28 5 -51 10 -51 6 0 10 32 10 75
0 68 2 75 20 75 13 0 20 -7 20 -20 0 -13 -5 -18 -15 -14 -10 4 -15 0 -15 -10
0 -9 7 -19 15 -22 8 -4 15 -17 15 -30 0 -15 -6 -24 -15 -24 -19 0 -19 -9 0
-34 26 -34 38 -5 39 91 l1 88 -31 -2 -31 -3 5 55 c4 46 2 55 -12 55 -13 0 -16
-12 -18 -57z"/>
<path d="M212 4389 c-7 -12 -11 -24 -7 -27 9 -9 40 13 43 32 5 23 -21 20 -36
-5z"/>
<path d="M100 4377 c0 -14 20 -37 32 -37 15 0 8 38 -8 44 -22 8 -24 8 -24 -7z"/>
<path d="M90 4271 c0 -27 -3 -63 -6 -80 -5 -24 -3 -31 10 -31 13 0 16 12 16
64 0 36 5 68 10 71 17 10 11 25 -10 25 -17 0 -20 -7 -20 -49z"/>
<path d="M158 3933 c0 -32 0 -68 1 -80 1 -14 -4 -23 -13 -23 -14 0 -31 -29
-21 -38 2 -3 11 1 20 8 13 11 15 6 15 -39 0 -28 5 -51 10 -51 6 0 10 32 10 75
0 68 2 75 20 75 13 0 20 -7 20 -20 0 -13 -5 -18 -15 -14 -10 4 -15 0 -15 -10
0 -9 7 -19 15 -22 8 -4 15 -17 15 -30 0 -15 -6 -24 -15 -24 -19 0 -19 -9 0
-34 26 -34 38 -5 39 91 l1 88 -31 -2 -31 -3 5 55 c4 46 2 55 -12 55 -13 0 -16
-12 -18 -57z"/>
<path d="M284 3938 c-9 -29 -19 -59 -22 -65 -2 -7 1 -13 7 -13 12 0 61 91 61
115 0 36 -30 12 -46 -37z"/>
<path d="M212 3939 c-7 -12 -11 -24 -7 -27 9 -9 40 13 43 32 5 23 -21 20 -36
-5z"/>
<path d="M100 3927 c0 -14 20 -37 32 -37 15 0 8 38 -8 44 -22 8 -24 8 -24 -7z"/>
<path d="M90 3821 c0 -27 -3 -63 -6 -80 -5 -24 -3 -31 10 -31 13 0 16 12 16
64 0 36 5 68 10 71 17 10 11 25 -10 25 -17 0 -20 -7 -20 -49z"/>
<path d="M158 3483 c0 -32 0 -68 1 -80 1 -14 -4 -23 -13 -23 -14 0 -31 -29
-21 -38 2 -3 11 1 20 8 13 11 15 6 15 -39 0 -28 5 -51 10 -51 6 0 10 32 10 75
0 68 2 75 20 75 13 0 20 -7 20 -20 0 -13 -5 -18 -15 -14 -10 4 -15 0 -15 -10
0 -9 7 -19 15 -22 8 -4 15 -17 15 -30 0 -15 -6 -24 -15 -24 -19 0 -19 -9 0
-34 26 -34 38 -5 39 91 l1 88 -31 -2 -31 -3 5 55 c4 46 2 55 -12 55 -13 0 -16
-12 -18 -57z"/>
<path d="M281 3478 c-21 -63 -21 -79 1 -60 7 5 34 13 61 17 60 9 63 29 2 23
l-44 -5 14 28 c19 35 19 59 1 59 -8 0 -23 -25 -35 -62z"/>
<path d="M212 3489 c-7 -12 -11 -24 -7 -27 9 -9 40 13 43 32 5 23 -21 20 -36
-5z"/>
<path d="M100 3477 c0 -14 20 -37 32 -37 15 0 8 38 -8 44 -22 8 -24 8 -24 -7z"/>
<path d="M90 3371 c0 -27 -3 -63 -6 -80 -5 -24 -3 -31 10 -31 13 0 16 12 16
64 0 36 5 68 10 71 17 10 11 25 -10 25 -17 0 -20 -7 -20 -49z"/>
<path d="M158 3033 c0 -32 0 -68 1 -80 1 -14 -4 -23 -13 -23 -14 0 -31 -29
-21 -38 2 -3 11 1 20 8 13 11 15 6 15 -39 0 -28 5 -51 10 -51 6 0 10 32 10 75
0 68 2 75 20 75 13 0 20 -7 20 -20 0 -13 -5 -18 -15 -14 -10 4 -15 0 -15 -10
0 -9 7 -19 15 -22 8 -4 15 -17 15 -30 0 -15 -6 -24 -15 -24 -19 0 -19 -9 0
-34 26 -34 38 -5 39 91 l1 88 -31 -2 -31 -3 5 55 c4 46 2 55 -12 55 -13 0 -16
-12 -18 -57z"/>
<path d="M281 3028 c-21 -62 -21 -82 1 -60 23 23 38 13 38 -24 0 -39 -12 -67
-43 -101 -28 -31 -13 -42 21 -16 29 21 51 73 55 129 1 25 7 34 20 34 9 0 17 5
17 11 0 8 -15 10 -45 7 l-44 -5 14 28 c19 35 19 59 1 59 -8 0 -23 -25 -35 -62z"/>
<path d="M212 3039 c-7 -12 -11 -24 -7 -27 9 -9 40 13 43 32 5 23 -21 20 -36
-5z"/>
<path d="M100 3027 c0 -14 20 -37 32 -37 15 0 8 38 -8 44 -22 8 -24 8 -24 -7z"/>
<path d="M90 2921 c0 -27 -3 -63 -6 -80 -5 -24 -3 -31 10 -31 13 0 16 12 16
64 0 36 5 68 10 71 17 10 11 25 -10 25 -17 0 -20 -7 -20 -49z"/>
<path d="M158 2583 c0 -32 0 -68 1 -80 1 -14 -4 -23 -13 -23 -14 0 -31 -29
-21 -38 2 -3 11 1 20 8 13 11 15 6 15 -39 0 -28 5 -51 10 -51 6 0 10 32 10 75
0 68 2 75 20 75 13 0 20 -7 20 -20 0 -13 -5 -18 -15 -14 -10 4 -15 0 -15 -10
0 -9 7 -19 15 -22 8 -4 15 -17 15 -30 0 -15 -6 -24 -15 -24 -19 0 -19 -9 0
-34 26 -34 38 -5 39 91 l1 88 -31 -2 -31 -3 5 55 c4 46 2 55 -12 55 -13 0 -16
-12 -18 -57z"/>
<path d="M281 2578 c-21 -62 -21 -82 1 -60 24 24 38 13 38 -28 0 -40 -13 -53
-24 -25 -6 17 -36 21 -36 5 0 -5 3 -10 8 -10 4 0 13 -9 20 -21 12 -18 11 -24
-9 -45 -28 -30 -18 -42 17 -19 25 16 26 16 41 -5 11 -15 23 -20 46 -18 44 4
43 20 -4 40 l-41 18 7 47 c5 27 8 56 9 66 0 9 8 17 18 17 10 0 18 5 18 11 0 8
-15 10 -45 7 l-44 -5 14 28 c19 35 19 59 1 59 -8 0 -23 -25 -35 -62z"/>
<path d="M212 2589 c-7 -12 -11 -24 -7 -27 9 -9 40 13 43 32 5 23 -21 20 -36
-5z"/>
<path d="M100 2577 c0 -14 20 -37 32 -37 15 0 8 38 -8 44 -22 8 -24 8 -24 -7z"/>
<path d="M90 2471 c0 -27 -3 -63 -6 -80 -5 -24 -3 -31 10 -31 13 0 16 12 16
64 0 36 5 68 10 71 17 10 11 25 -10 25 -17 0 -20 -7 -20 -49z"/>
</g>
</svg>
