<?xml version="1.0" standalone="no"?>
<!DOCTYPE svg PUBLIC "-//W3C//DTD SVG 20010904//EN"
 "http://www.w3.org/TR/2001/REC-SVG-20010904/DTD/svg10.dtd">
<svg version="1.0" xmlns="http://www.w3.org/2000/svg"
 width="50.000000pt" height="725.000000pt" viewBox="0 0 50.000000 725.000000"
 preserveAspectRatio="xMidYMid meet">
<metadata>
Created by potrace 1.16, written by Peter Selinger 2001-2019
</metadata>
<g transform="translate(0.000000,725.000000) scale(0.100000,-0.100000)"
fill="#000000" stroke="none">
<path d="M134 7069 c3 -17 6 -35 6 -40 0 -5 5 -9 10 -9 11 0 13 39 4 64 -11
29 -27 17 -20 -15z"/>
<path d="M193 6663 c-33 -6 -28 -23 7 -23 28 0 29 -2 23 -31 -8 -42 17 -35 29
7 14 51 3 59 -59 47z"/>
<path d="M134 6619 c3 -17 6 -35 6 -40 0 -5 5 -9 10 -9 11 0 13 39 4 64 -11
29 -27 17 -20 -15z"/>
<path d="M193 6213 c-34 -7 -28 -23 10 -24 23 -1 26 -3 10 -6 -26 -5 -31 -23
-8 -23 8 0 15 -7 15 -15 0 -21 9 -19 36 10 22 24 23 26 6 45 -16 20 -25 21
-69 13z"/>
<path d="M130 6185 c0 -9 -7 -18 -15 -21 -23 -9 -18 -26 5 -19 14 5 20 2 20
-9 0 -9 5 -16 10 -16 11 0 13 39 4 64 -8 20 -24 21 -24 1z"/>
<path d="M193 5763 c-34 -7 -28 -23 10 -24 23 -1 26 -3 10 -6 -27 -5 -31 -23
-5 -24 10 0 12 -3 5 -6 -19 -7 -16 -23 3 -23 9 0 27 11 40 25 22 24 23 26 6
45 -16 20 -25 21 -69 13z"/>
<path d="M130 5735 c0 -9 -7 -18 -15 -21 -23 -9 -18 -26 5 -19 14 5 20 2 20
-9 0 -10 9 -16 25 -16 14 0 25 5 25 10 0 6 -6 10 -14 10 -7 0 -16 14 -19 30
-7 31 -27 42 -27 15z"/>
<path d="M193 5313 c-34 -7 -28 -23 10 -24 23 -1 26 -3 10 -6 -27 -5 -31 -23
-5 -24 10 0 12 -3 5 -6 -19 -7 -16 -23 3 -23 9 0 27 11 40 25 22 24 23 26 6
45 -16 20 -25 21 -69 13z"/>
<path d="M130 5285 c0 -9 -7 -18 -15 -21 -23 -9 -18 -26 5 -19 14 5 20 2 20
-9 0 -10 9 -16 25 -16 14 0 25 5 25 10 0 6 -6 10 -14 10 -7 0 -16 14 -19 30
-7 31 -27 42 -27 15z"/>
<path d="M124 5184 c3 -9 6 -20 6 -25 0 -5 5 -9 10 -9 6 0 10 11 10 25 0 16
-6 25 -16 25 -11 0 -14 -5 -10 -16z"/>
<path d="M193 4863 c-34 -7 -28 -23 10 -24 23 -1 26 -3 10 -6 -27 -5 -31 -23
-5 -24 10 0 12 -3 5 -6 -19 -7 -16 -23 3 -23 9 0 27 11 40 25 22 24 23 26 6
45 -16 20 -25 21 -69 13z"/>
<path d="M130 4835 c0 -9 -7 -18 -15 -21 -23 -9 -18 -26 5 -19 14 5 20 2 20
-9 0 -10 9 -16 25 -16 14 0 25 5 25 10 0 6 -6 10 -14 10 -7 0 -16 14 -19 30
-7 31 -27 42 -27 15z"/>
<path d="M188 4763 c-39 -6 -35 -25 5 -21 26 2 31 0 29 -16 -4 -22 17 -17 32
7 8 13 7 20 -4 27 -8 5 -19 9 -25 8 -5 0 -22 -3 -37 -5z"/>
<path d="M124 4734 c3 -9 6 -20 6 -25 0 -5 5 -9 10 -9 6 0 10 11 10 25 0 16
-6 25 -16 25 -11 0 -14 -5 -10 -16z"/>
<path d="M193 4413 c-34 -7 -28 -23 10 -24 23 -1 26 -3 10 -6 -27 -5 -31 -23
-5 -24 10 0 12 -3 5 -6 -19 -7 -16 -23 3 -23 9 0 27 11 40 25 22 24 23 26 6
45 -16 20 -25 21 -69 13z"/>
<path d="M130 4385 c0 -9 -7 -18 -15 -21 -23 -9 -18 -26 5 -19 14 5 20 2 20
-9 0 -10 9 -16 25 -16 14 0 25 5 25 10 0 6 -6 10 -14 10 -7 0 -16 14 -19 30
-7 31 -27 42 -27 15z"/>
<path d="M188 4313 c-16 -2 -28 -9 -28 -15 0 -6 13 -8 30 -6 17 3 33 1 36 -4
3 -4 -4 -8 -15 -8 -12 0 -21 -5 -21 -11 0 -17 52 -6 64 14 8 14 8 20 -4 27 -8
5 -19 9 -25 8 -5 0 -22 -3 -37 -5z"/>
<path d="M124 4284 c3 -9 6 -20 6 -25 0 -5 7 -9 16 -9 11 0 14 5 10 16 -3 9
-6 20 -6 25 0 5 -7 9 -16 9 -11 0 -14 -5 -10 -16z"/>
<path d="M174 3950 c2 -64 -8 -80 -17 -30 -7 31 -27 42 -27 15 0 -9 -7 -18
-15 -21 -23 -9 -18 -26 5 -19 14 5 20 2 20 -9 0 -10 9 -16 23 -16 18 0 19 -2
7 -11 -11 -7 -12 -12 -3 -15 7 -3 9 -12 6 -20 -9 -23 67 -15 81 9 13 21 -8 40
-36 33 -10 -2 -18 0 -18 5 0 5 7 9 16 9 9 0 27 11 40 25 24 26 24 26 4 47 -12
13 -26 19 -39 15 -18 -4 -20 -2 -15 19 5 19 2 24 -14 24 -18 0 -20 -6 -18 -60z
m53 -16 c-3 -3 -12 -4 -19 -1 -8 3 -5 6 6 6 11 1 17 -2 13 -5z m-2 -94 c3 -5
-1 -10 -10 -10 -9 0 -13 5 -10 10 3 6 8 10 10 10 2 0 7 -4 10 -10z"/>
<path d="M124 3834 c3 -9 6 -20 6 -25 0 -5 7 -9 16 -9 11 0 14 5 10 16 -3 9
-6 20 -6 25 0 5 -7 9 -16 9 -11 0 -14 -5 -10 -16z"/>
<path d="M174 3500 c2 -64 -8 -80 -17 -30 -7 31 -27 42 -27 15 0 -9 -7 -18
-15 -21 -23 -9 -18 -26 5 -19 14 5 20 2 20 -9 0 -10 9 -16 23 -16 18 0 19 -2
7 -10 -11 -8 -12 -12 -3 -18 8 -5 9 -12 2 -22 -7 -12 -10 -11 -15 8 -4 12 -13
22 -21 22 -10 0 -13 -6 -9 -16 3 -9 6 -20 6 -25 0 -5 7 -9 15 -9 17 0 20 -25
5 -35 -14 -9 -13 -35 2 -35 6 0 26 -11 44 -25 37 -29 54 -32 54 -10 0 9 -17
23 -37 32 -50 23 -48 22 -35 35 7 7 12 20 12 29 0 12 9 19 26 21 34 4 55 34
34 48 -8 6 -23 8 -32 6 -10 -2 -18 0 -18 5 0 5 7 9 16 9 9 0 27 11 40 25 24
26 24 26 4 47 -12 13 -26 19 -39 15 -18 -4 -20 -2 -15 19 5 19 2 24 -14 24
-18 0 -20 -6 -18 -60z m53 -16 c-3 -3 -12 -4 -19 -1 -8 3 -5 6 6 6 11 1 17 -2
13 -5z m-2 -94 c3 -5 -1 -10 -10 -10 -9 0 -13 5 -10 10 3 6 8 10 10 10 2 0 7
-4 10 -10z"/>
<path d="M174 3050 c2 -64 -8 -80 -17 -30 -7 31 -27 42 -27 15 0 -9 -7 -18
-15 -21 -23 -9 -18 -26 5 -19 14 5 20 2 20 -9 0 -10 9 -16 23 -16 18 0 19 -2
7 -10 -11 -8 -12 -12 -3 -18 8 -5 9 -12 2 -22 -7 -12 -10 -11 -15 8 -4 12 -13
22 -21 22 -10 0 -13 -6 -9 -16 3 -9 6 -20 6 -25 0 -5 7 -9 15 -9 17 0 20 -25
5 -35 -17 -10 -11 -35 8 -35 14 -1 13 -4 -7 -21 -31 -26 -18 -38 19 -17 25 14
31 14 41 2 6 -8 18 -14 25 -14 19 0 18 29 -1 36 -11 5 -13 16 -9 45 8 46 -7
52 -23 9 -6 -16 -16 -30 -22 -30 -14 0 -14 17 -1 25 6 3 10 15 10 25 0 13 8
20 26 22 34 4 55 34 34 48 -8 6 -23 8 -32 6 -10 -2 -18 0 -18 5 0 5 7 9 16 9
9 0 27 11 40 25 24 26 24 26 4 47 -12 13 -26 19 -39 15 -18 -4 -20 -2 -15 19
5 19 2 24 -14 24 -18 0 -20 -6 -18 -60z m53 -16 c-3 -3 -12 -4 -19 -1 -8 3 -5
6 6 6 11 1 17 -2 13 -5z m-2 -94 c3 -5 -1 -10 -10 -10 -9 0 -13 5 -10 10 3 6
8 10 10 10 2 0 7 -4 10 -10z"/>
<path d="M174 2600 c2 -64 -8 -80 -17 -30 -7 31 -27 42 -27 15 0 -9 -7 -18
-15 -21 -23 -9 -18 -26 5 -19 14 5 20 2 20 -9 0 -10 9 -16 23 -16 18 0 19 -2
7 -10 -11 -8 -12 -12 -3 -18 8 -5 9 -12 2 -22 -7 -12 -10 -11 -15 8 -4 12 -13
22 -21 22 -10 0 -13 -6 -9 -16 3 -9 6 -20 6 -25 0 -5 7 -9 15 -9 32 0 13 -20
-25 -26 -45 -7 -50 -31 -6 -26 14 1 26 -2 26 -8 0 -5 8 -10 18 -10 14 -1 13
-4 -7 -21 -31 -26 -18 -38 19 -17 25 14 31 14 41 2 6 -8 18 -14 25 -14 20 0
17 27 -3 39 -15 8 -15 13 -5 37 8 17 9 31 3 37 -13 13 -31 0 -31 -23 0 -21
-17 -36 -28 -25 -4 4 -1 10 6 12 6 3 12 15 12 28 0 18 6 24 26 27 34 4 55 34
34 48 -8 6 -23 8 -32 6 -10 -2 -18 0 -18 5 0 5 7 9 16 9 9 0 27 11 40 25 24
26 24 26 4 47 -12 13 -26 19 -39 15 -18 -4 -20 -2 -15 19 5 19 2 24 -14 24
-18 0 -20 -6 -18 -60z m53 -16 c-3 -3 -12 -4 -19 -1 -8 3 -5 6 6 6 11 1 17 -2
13 -5z m-2 -94 c3 -5 -1 -10 -10 -10 -9 0 -13 5 -10 10 3 6 8 10 10 10 2 0 7
-4 10 -10z"/>
<path d="M174 2150 c2 -64 -8 -80 -17 -30 -7 31 -27 42 -27 15 0 -9 -7 -18
-15 -21 -23 -9 -18 -26 5 -19 14 5 20 2 20 -9 0 -10 9 -16 23 -16 18 0 19 -2
7 -10 -11 -8 -12 -12 -3 -18 8 -5 9 -12 2 -22 -7 -12 -10 -11 -15 8 -4 12 -13
22 -21 22 -10 0 -13 -6 -9 -16 3 -9 6 -20 6 -25 0 -5 7 -9 15 -9 32 0 13 -20
-25 -26 -45 -7 -50 -31 -6 -26 14 1 26 -2 26 -8 0 -5 8 -10 18 -10 14 -1 13
-4 -7 -21 -31 -26 -18 -38 19 -17 25 14 31 14 41 2 6 -8 18 -14 25 -14 20 0
17 27 -3 39 -15 8 -15 13 -5 37 8 17 9 31 3 37 -13 13 -31 0 -31 -23 0 -21
-17 -36 -28 -25 -4 4 -1 10 6 12 6 3 12 15 12 28 0 18 6 24 26 27 34 4 55 34
34 48 -8 6 -23 8 -32 6 -10 -2 -18 0 -18 5 0 5 7 9 16 9 9 0 27 11 40 25 24
26 24 26 4 47 -12 13 -26 19 -39 15 -18 -4 -20 -2 -15 19 5 19 2 24 -14 24
-18 0 -20 -6 -18 -60z m53 -16 c-3 -3 -12 -4 -19 -1 -8 3 -5 6 6 6 11 1 17 -2
13 -5z m-2 -94 c3 -5 -1 -10 -10 -10 -9 0 -13 5 -10 10 3 6 8 10 10 10 2 0 7
-4 10 -10z"/>
<path d="M305 2153 c-4 -21 -13 -50 -21 -65 -16 -31 -18 -48 -5 -48 14 0 73
128 66 140 -13 22 -33 8 -40 -27z"/>
<path d="M174 1700 c2 -64 -8 -80 -17 -30 -7 31 -27 42 -27 15 0 -9 -7 -18
-15 -21 -23 -9 -18 -26 5 -19 14 5 20 2 20 -9 0 -10 9 -16 23 -16 18 0 19 -2
7 -10 -11 -8 -12 -12 -3 -18 8 -5 9 -12 2 -22 -7 -12 -10 -11 -15 8 -4 12 -13
22 -21 22 -10 0 -13 -6 -9 -16 3 -9 6 -20 6 -25 0 -5 7 -9 15 -9 32 0 13 -20
-25 -26 -45 -7 -50 -31 -6 -26 14 1 26 -2 26 -8 0 -5 8 -10 18 -10 14 -1 13
-4 -7 -21 -31 -26 -18 -38 19 -17 25 14 31 14 41 2 6 -8 18 -14 25 -14 20 0
17 27 -3 39 -15 8 -15 13 -5 37 8 17 9 31 3 37 -13 13 -31 0 -31 -23 0 -21
-17 -36 -28 -25 -4 4 -1 10 6 12 6 3 12 15 12 28 0 18 6 24 26 27 34 4 55 34
34 48 -8 6 -23 8 -32 6 -10 -2 -18 0 -18 5 0 5 7 9 16 9 9 0 27 11 40 25 24
26 24 26 4 47 -12 13 -26 19 -39 15 -18 -4 -20 -2 -15 19 5 19 2 24 -14 24
-18 0 -20 -6 -18 -60z m53 -16 c-3 -3 -12 -4 -19 -1 -8 3 -5 6 6 6 11 1 17 -2
13 -5z m-2 -94 c3 -5 -1 -10 -10 -10 -9 0 -13 5 -10 10 3 6 8 10 10 10 2 0 7
-4 10 -10z"/>
<path d="M305 1704 c-3 -20 -14 -51 -22 -70 -15 -31 -11 -63 5 -37 4 6 28 14
55 18 32 5 47 12 47 22 0 15 -20 14 -64 -3 -14 -5 -13 0 4 41 20 48 19 65 -4
65 -8 0 -17 -16 -21 -36z"/>
<path d="M174 1250 c2 -64 -8 -80 -17 -30 -7 31 -27 42 -27 15 0 -9 -7 -18
-15 -21 -23 -9 -18 -26 5 -19 14 5 20 2 20 -9 0 -10 9 -16 23 -16 18 0 19 -2
7 -10 -11 -8 -12 -12 -3 -18 8 -5 9 -12 2 -22 -7 -12 -10 -11 -15 8 -4 12 -13
22 -21 22 -10 0 -13 -6 -9 -16 3 -9 6 -20 6 -25 0 -5 7 -9 15 -9 32 0 13 -20
-25 -26 -45 -7 -50 -31 -6 -26 14 1 26 -2 26 -8 0 -5 8 -10 18 -10 14 -1 13
-4 -7 -21 -31 -26 -18 -38 19 -17 25 14 31 14 41 2 6 -8 18 -14 25 -14 20 0
17 27 -3 39 -15 8 -15 13 -5 37 8 17 9 31 3 37 -13 13 -31 0 -31 -23 0 -21
-17 -36 -28 -25 -4 4 -1 10 6 12 6 3 12 15 12 28 0 18 6 24 26 27 34 4 55 34
34 48 -8 6 -23 8 -32 6 -10 -2 -18 0 -18 5 0 5 7 9 16 9 9 0 27 11 40 25 24
26 24 26 4 47 -12 13 -26 19 -39 15 -18 -4 -20 -2 -15 19 5 19 2 24 -14 24
-18 0 -20 -6 -18 -60z m53 -16 c-3 -3 -12 -4 -19 -1 -8 3 -5 6 6 6 11 1 17 -2
13 -5z m-2 -94 c3 -5 -1 -10 -10 -10 -9 0 -13 5 -10 10 3 6 8 10 10 10 2 0 7
-4 10 -10z"/>
<path d="M305 1254 c-3 -20 -14 -51 -22 -70 -9 -19 -13 -37 -8 -41 4 -5 10 -2
12 5 3 6 12 12 20 12 28 0 9 -80 -26 -112 -35 -31 -38 -38 -15 -38 32 0 73 55
80 109 5 41 10 51 25 51 11 0 19 7 19 16 0 16 -19 15 -64 -2 -14 -5 -13 0 4
41 20 48 19 65 -4 65 -8 0 -17 -16 -21 -36z"/>
<path d="M174 800 c2 -64 -8 -80 -17 -30 -7 31 -27 42 -27 15 0 -9 -7 -18 -15
-21 -23 -9 -18 -26 5 -19 14 5 20 2 20 -9 0 -10 9 -16 23 -16 18 0 19 -2 7
-10 -11 -8 -12 -12 -3 -18 8 -5 9 -12 2 -22 -7 -12 -10 -11 -15 8 -4 12 -13
22 -21 22 -10 0 -13 -6 -9 -16 3 -9 6 -20 6 -25 0 -5 7 -9 15 -9 32 0 13 -20
-25 -26 -45 -7 -50 -31 -6 -26 14 1 26 -2 26 -8 0 -5 8 -10 18 -10 14 -1 13
-4 -7 -21 -31 -26 -18 -38 19 -17 25 14 31 14 41 2 6 -8 18 -14 25 -14 20 0
17 27 -3 39 -15 8 -15 13 -5 37 8 17 9 31 3 37 -13 13 -31 0 -31 -23 0 -21
-17 -36 -28 -25 -4 4 -1 10 6 12 6 3 12 15 12 28 0 18 6 24 26 27 34 4 55 34
34 48 -8 6 -23 8 -32 6 -10 -2 -18 0 -18 5 0 5 7 9 16 9 9 0 27 11 40 25 24
26 24 26 4 47 -12 13 -26 19 -39 15 -18 -4 -20 -2 -15 19 5 19 2 24 -14 24
-18 0 -20 -6 -18 -60z m53 -16 c-3 -3 -12 -4 -19 -1 -8 3 -5 6 6 6 11 1 17 -2
13 -5z m-2 -94 c3 -5 -1 -10 -10 -10 -9 0 -13 5 -10 10 3 6 8 10 10 10 2 0 7
-4 10 -10z"/>
<path d="M305 804 c-3 -20 -14 -51 -22 -70 -9 -19 -13 -37 -8 -41 4 -5 10 -2
12 5 9 25 33 12 33 -18 0 -32 -9 -37 -28 -18 -20 20 -26 -1 -6 -23 19 -21 18
-21 -10 -45 -35 -31 -25 -45 16 -21 30 17 30 17 50 -8 14 -18 29 -25 54 -25
43 0 44 16 2 33 -51 21 -60 38 -52 96 5 41 10 51 25 51 11 0 19 7 19 16 0 16
-19 15 -64 -2 -14 -5 -13 0 4 41 20 48 19 65 -4 65 -8 0 -17 -16 -21 -36z"/>
</g>
</svg>
