<?xml version="1.0" standalone="no"?>
<!DOCTYPE svg PUBLIC "-//W3C//DTD SVG 20010904//EN"
 "http://www.w3.org/TR/2001/REC-SVG-20010904/DTD/svg10.dtd">
<svg version="1.0" xmlns="http://www.w3.org/2000/svg"
 width="50.000000pt" height="725.000000pt" viewBox="0 0 50.000000 725.000000"
 preserveAspectRatio="xMidYMid meet">
<metadata>
Created by potrace 1.16, written by Peter Selinger 2001-2019
</metadata>
<g transform="translate(0.000000,725.000000) scale(0.100000,-0.100000)"
fill="#000000" stroke="none">
<path d="M138 7113 c-32 -8 -20 -26 13 -19 17 3 42 6 55 6 13 0 24 5 24 10 0
10 -59 12 -92 3z"/>
<path d="M160 6695 c0 -18 -6 -29 -20 -32 -23 -6 -27 -23 -5 -23 8 0 15 -7 15
-15 0 -8 7 -15 15 -15 8 0 15 9 15 20 0 15 7 20 25 20 14 0 25 5 25 10 0 6 -9
10 -20 10 -14 0 -19 6 -17 22 1 14 -4 23 -15 26 -14 3 -18 -3 -18 -23z"/>
<path d="M160 6245 c0 -18 -6 -29 -20 -32 -23 -6 -27 -23 -5 -23 8 0 15 -7 15
-15 0 -8 7 -15 15 -15 8 0 15 9 15 20 0 15 7 20 25 20 14 0 25 5 25 10 0 6 -9
10 -20 10 -14 0 -19 6 -17 22 1 14 -4 23 -15 26 -14 3 -18 -3 -18 -23z"/>
<path d="M104 6143 c3 -10 8 -30 12 -45 3 -16 11 -28 16 -28 6 0 8 10 4 23 -3
12 -6 32 -6 45 0 13 -6 22 -16 22 -10 0 -14 -6 -10 -17z"/>
<path d="M160 5795 c0 -18 -6 -29 -20 -32 -23 -6 -27 -23 -5 -23 9 0 15 -9 15
-21 0 -16 5 -20 28 -17 29 3 31 -3 17 -54 -5 -21 -4 -28 8 -28 17 0 43 82 32
100 -4 7 -18 10 -31 7 -16 -3 -24 0 -24 9 0 8 11 14 25 14 14 0 25 5 25 10 0
6 -9 10 -20 10 -14 0 -19 6 -17 22 1 14 -4 23 -15 26 -14 3 -18 -3 -18 -23z"/>
<path d="M104 5693 c3 -10 8 -30 12 -45 3 -16 11 -28 16 -28 6 0 8 10 4 23 -3
12 -6 32 -6 45 0 13 -6 22 -16 22 -10 0 -14 -6 -10 -17z"/>
<path d="M160 5345 c0 -18 -6 -29 -20 -32 -23 -6 -27 -23 -5 -23 9 0 15 -9 15
-21 0 -15 6 -20 23 -19 36 3 44 -1 17 -10 -40 -13 -60 -11 -60 5 0 8 -7 15
-16 15 -10 0 -14 -6 -10 -17 3 -10 8 -30 12 -45 3 -16 11 -28 16 -28 6 0 8 9
5 20 -3 11 0 20 6 20 7 0 22 3 35 6 21 6 22 4 16 -20 -4 -19 -2 -26 9 -26 17
0 43 82 32 100 -4 7 -18 10 -31 7 -16 -3 -24 0 -24 9 0 8 11 14 25 14 14 0 25
5 25 10 0 6 -9 10 -20 10 -14 0 -19 6 -17 22 1 14 -4 23 -15 26 -14 3 -18 -3
-18 -23z"/>
<path d="M160 4895 c0 -18 -6 -29 -20 -32 -23 -6 -27 -23 -5 -23 9 0 15 -9 15
-21 0 -15 6 -20 23 -19 36 3 44 -1 17 -10 -40 -13 -60 -11 -60 5 0 8 -7 15
-16 15 -10 0 -14 -6 -10 -17 3 -10 8 -30 12 -45 6 -26 10 -28 54 -27 48 2 48
2 60 44 14 51 7 69 -26 62 -16 -3 -24 0 -24 9 0 8 11 14 25 14 14 0 25 5 25
10 0 6 -9 10 -20 10 -14 0 -19 6 -17 22 1 14 -4 23 -15 26 -14 3 -18 -3 -18
-23z m40 -134 c0 -12 -48 -23 -63 -14 -8 5 -3 10 13 14 36 10 50 10 50 0z"/>
<path d="M160 4445 c0 -18 -6 -29 -20 -32 -23 -6 -27 -23 -5 -23 9 0 15 -9 15
-21 0 -15 6 -20 23 -19 36 3 44 -1 17 -10 -40 -13 -60 -11 -60 5 0 8 -7 15
-16 15 -10 0 -14 -6 -10 -17 3 -10 8 -30 12 -45 6 -26 10 -28 54 -27 48 2 48
2 60 44 14 51 7 69 -26 62 -16 -3 -24 0 -24 9 0 8 11 14 25 14 14 0 25 5 25
10 0 6 -9 10 -20 10 -14 0 -19 6 -17 22 1 14 -4 23 -15 26 -14 3 -18 -3 -18
-23z m40 -134 c0 -12 -48 -23 -63 -14 -8 5 -3 10 13 14 36 10 50 10 50 0z"/>
<path d="M127 4247 c-33 -6 -56 -15 -54 -21 5 -13 20 -12 105 4 34 7 62 16 62
21 0 11 -35 10 -113 -4z"/>
<path d="M160 3995 c0 -18 -6 -29 -20 -32 -23 -6 -27 -23 -5 -23 9 0 15 -9 15
-21 0 -15 6 -20 23 -19 36 3 44 -1 17 -10 -40 -13 -60 -11 -60 5 0 8 -7 15
-16 15 -10 0 -14 -6 -10 -17 3 -10 8 -30 12 -45 4 -18 13 -28 25 -28 10 0 19
-4 19 -9 0 -10 -34 -21 -68 -21 -15 0 -22 -5 -19 -12 4 -14 30 -16 65 -4 23 8
23 7 17 -38 -6 -39 -5 -46 9 -46 12 0 16 10 16 45 0 43 2 46 30 52 17 3 30 9
30 14 0 5 -13 9 -30 9 -16 0 -30 4 -30 9 0 5 8 7 18 4 15 -4 21 4 32 40 14 53
7 71 -26 64 -16 -3 -24 0 -24 9 0 8 11 14 25 14 14 0 25 5 25 10 0 6 -9 10
-20 10 -14 0 -19 6 -17 22 1 14 -4 23 -15 26 -14 3 -18 -3 -18 -23z m40 -134
c0 -12 -48 -23 -63 -14 -8 5 -3 10 13 14 36 10 50 10 50 0z"/>
<path d="M160 3545 c0 -18 -6 -29 -20 -32 -23 -6 -27 -23 -5 -23 9 0 15 -9 15
-21 0 -15 6 -20 23 -19 36 3 44 -1 17 -10 -40 -13 -60 -11 -60 5 0 8 -7 15
-16 15 -10 0 -14 -6 -10 -17 3 -10 8 -30 12 -45 4 -18 13 -28 25 -28 10 0 19
-4 19 -9 0 -10 -34 -21 -68 -21 -15 0 -22 -5 -19 -12 4 -14 30 -16 65 -4 23 8
23 7 17 -38 -6 -39 -5 -46 9 -46 12 0 16 10 16 45 0 43 2 46 30 52 17 3 30 9
30 14 0 5 -13 9 -30 9 -16 0 -30 4 -30 9 0 5 9 7 20 4 13 -4 20 0 20 9 0 8 12
23 28 35 33 24 86 118 78 138 -7 19 -26 20 -26 2 0 -7 -12 -37 -27 -67 -24
-49 -27 -51 -35 -30 -6 17 -14 21 -33 18 -17 -4 -25 -1 -25 8 0 8 11 14 25 14
14 0 25 5 25 10 0 6 -9 10 -20 10 -14 0 -19 6 -17 22 1 14 -4 23 -15 26 -14 3
-18 -3 -18 -23z m40 -134 c0 -12 -48 -23 -63 -14 -8 5 -3 10 13 14 36 10 50
10 50 0z"/>
<path d="M160 3095 c0 -18 -6 -29 -20 -32 -23 -6 -27 -23 -5 -23 9 0 15 -9 15
-21 0 -15 6 -20 23 -19 36 3 44 -1 17 -10 -40 -13 -60 -11 -60 5 0 8 -7 15
-16 15 -10 0 -14 -6 -10 -17 3 -10 8 -30 12 -45 4 -18 13 -28 25 -28 10 0 19
-4 19 -9 0 -10 -34 -21 -68 -21 -15 0 -22 -5 -19 -12 4 -14 30 -16 65 -4 23 8
23 7 17 -38 -6 -39 -5 -46 9 -46 12 0 16 10 16 45 0 43 2 46 30 52 17 3 30 9
30 14 0 5 -13 9 -30 9 -16 0 -30 4 -30 9 0 5 9 7 20 4 14 -4 20 0 20 10 0 9 9
21 21 27 11 6 33 31 48 55 l28 44 32 -44 c23 -32 39 -45 57 -45 15 0 24 6 24
15 0 8 -4 15 -10 15 -18 0 -89 71 -92 92 -3 24 -28 37 -28 16 0 -8 -12 -38
-27 -68 -24 -49 -27 -51 -35 -30 -6 17 -14 21 -33 18 -17 -4 -25 -1 -25 8 0 8
11 14 25 14 14 0 25 5 25 10 0 6 -9 10 -20 10 -14 0 -19 6 -17 22 1 14 -4 23
-15 26 -14 3 -18 -3 -18 -23z m40 -134 c0 -12 -48 -23 -63 -14 -8 5 -3 10 13
14 36 10 50 10 50 0z"/>
<path d="M160 2645 c0 -18 -6 -29 -20 -32 -23 -6 -27 -23 -5 -23 9 0 15 -9 15
-21 0 -15 6 -20 23 -19 36 3 44 -1 17 -10 -40 -13 -60 -11 -60 5 0 8 -7 15
-16 15 -10 0 -14 -6 -10 -17 3 -10 8 -30 12 -45 4 -18 13 -28 25 -28 10 0 19
-4 19 -9 0 -10 -34 -21 -68 -21 -15 0 -22 -5 -19 -12 4 -14 30 -16 65 -4 23 8
23 7 17 -38 -6 -39 -5 -46 9 -46 12 0 16 10 16 45 0 43 2 46 30 52 17 3 30 9
30 14 0 5 -13 9 -30 9 -16 0 -30 4 -30 9 0 5 9 7 20 4 14 -4 20 0 20 10 0 9 9
21 21 27 11 6 33 31 48 55 l28 44 32 -44 c23 -32 39 -45 57 -45 15 0 24 6 24
15 0 8 -4 15 -10 15 -18 0 -89 71 -92 92 -3 24 -28 37 -28 16 0 -8 -12 -38
-27 -68 -24 -49 -27 -51 -35 -30 -6 17 -14 21 -33 18 -17 -4 -25 -1 -25 8 0 8
11 14 25 14 14 0 25 5 25 10 0 6 -9 10 -20 10 -14 0 -19 6 -17 22 1 14 -4 23
-15 26 -14 3 -18 -3 -18 -23z m40 -134 c0 -12 -48 -23 -63 -14 -8 5 -3 10 13
14 36 10 50 10 50 0z"/>
<path d="M272 2518 c7 -19 38 -22 38 -4 0 10 -9 16 -21 16 -12 0 -19 -5 -17
-12z"/>
<path d="M160 2195 c0 -18 -6 -29 -20 -32 -23 -6 -27 -23 -5 -23 9 0 15 -9 15
-21 0 -15 6 -20 23 -19 36 3 44 -1 17 -10 -40 -13 -60 -11 -60 5 0 8 -7 15
-16 15 -10 0 -14 -6 -10 -17 3 -10 8 -30 12 -45 4 -18 13 -28 25 -28 10 0 19
-4 19 -9 0 -10 -34 -21 -68 -21 -15 0 -22 -5 -19 -12 4 -14 30 -16 65 -4 23 8
23 7 17 -38 -6 -39 -5 -46 9 -46 12 0 16 10 16 45 0 43 2 46 30 52 17 3 30 9
30 14 0 5 -13 9 -30 9 -16 0 -30 4 -30 9 0 5 9 7 20 4 14 -4 20 0 20 10 0 9 9
21 21 27 11 6 33 31 48 55 l28 44 32 -44 c23 -32 39 -45 57 -45 15 0 24 6 24
15 0 8 -4 15 -10 15 -18 0 -89 71 -92 92 -3 24 -28 37 -28 16 0 -8 -12 -38
-27 -68 -24 -49 -27 -51 -35 -30 -6 17 -14 21 -33 18 -17 -4 -25 -1 -25 8 0 8
11 14 25 14 14 0 25 5 25 10 0 6 -9 10 -20 10 -14 0 -19 6 -17 22 1 14 -4 23
-15 26 -14 3 -18 -3 -18 -23z m40 -134 c0 -12 -48 -23 -63 -14 -8 5 -3 10 13
14 36 10 50 10 50 0z"/>
<path d="M273 2066 c3 -8 1 -17 -6 -19 -9 -3 -8 -8 2 -20 19 -23 34 -21 28 3
-3 11 -1 20 4 20 5 0 9 7 9 15 0 9 -9 15 -21 15 -14 0 -19 -5 -16 -14z"/>
<path d="M160 1745 c0 -18 -6 -29 -20 -32 -23 -6 -27 -23 -5 -23 9 0 15 -9 15
-21 0 -15 6 -20 23 -19 36 3 44 -1 17 -10 -40 -13 -60 -11 -60 5 0 8 -7 15
-16 15 -10 0 -14 -6 -10 -17 3 -10 8 -30 12 -45 4 -18 13 -28 25 -28 10 0 19
-4 19 -9 0 -10 -34 -21 -68 -21 -15 0 -22 -5 -19 -12 4 -14 30 -16 65 -4 23 8
23 7 17 -38 -6 -39 -5 -46 9 -46 12 0 16 10 16 44 0 32 5 46 17 50 9 4 20 1
24 -6 6 -9 21 -9 72 0 35 7 78 12 96 12 17 0 31 4 31 9 0 18 -33 20 -103 5
-47 -10 -73 -11 -75 -4 -2 5 -17 10 -33 10 -16 0 -29 4 -29 9 0 5 9 7 20 4 14
-4 20 0 20 10 0 9 9 21 21 27 11 6 33 31 48 55 l28 44 32 -44 c23 -32 39 -45
57 -45 15 0 24 6 24 15 0 8 -4 15 -10 15 -18 0 -89 71 -92 92 -3 24 -28 37
-28 16 0 -8 -12 -38 -27 -68 -24 -49 -27 -51 -35 -30 -6 17 -14 21 -33 18 -17
-4 -25 -1 -25 8 0 8 11 14 25 14 14 0 25 5 25 10 0 6 -9 10 -20 10 -14 0 -19
6 -17 22 1 14 -4 23 -15 26 -14 3 -18 -3 -18 -23z m40 -134 c0 -12 -48 -23
-63 -14 -8 5 -3 10 13 14 36 10 50 10 50 0z"/>
<path d="M273 1616 c3 -8 1 -17 -6 -19 -9 -3 -8 -8 2 -20 19 -23 34 -21 28 3
-3 11 -1 20 4 20 5 0 9 7 9 15 0 9 -9 15 -21 15 -14 0 -19 -5 -16 -14z"/>
<path d="M160 1295 c0 -18 -6 -29 -20 -32 -23 -6 -27 -23 -5 -23 9 0 15 -9 15
-21 0 -15 6 -20 23 -19 36 3 44 -1 17 -10 -40 -13 -60 -11 -60 5 0 8 -7 15
-16 15 -10 0 -14 -6 -10 -17 3 -10 8 -30 12 -45 4 -18 13 -28 25 -28 10 0 19
-4 19 -9 0 -10 -34 -21 -68 -21 -15 0 -22 -5 -19 -12 4 -14 30 -16 65 -4 23 8
23 7 17 -38 -6 -39 -5 -46 9 -46 12 0 16 10 16 44 0 32 5 46 17 50 9 4 20 1
24 -5 4 -8 22 -9 53 -5 l46 7 0 -55 c0 -31 5 -56 10 -56 6 0 10 20 10 44 0 65
7 76 46 76 19 0 34 4 34 9 0 13 -30 22 -51 16 -17 -6 -19 -1 -19 39 0 34 -4
46 -15 46 -11 0 -15 -12 -15 -49 0 -48 0 -48 -37 -54 -22 -4 -39 -2 -41 3 -2
6 -17 10 -33 10 -16 0 -29 4 -29 9 0 5 9 7 20 4 14 -4 20 0 20 10 0 9 9 21 21
27 11 6 33 31 48 55 l28 44 32 -44 c23 -32 39 -45 57 -45 15 0 24 6 24 15 0 8
-4 15 -10 15 -18 0 -89 71 -92 92 -3 24 -28 37 -28 16 0 -8 -12 -38 -27 -68
-24 -49 -27 -51 -35 -30 -6 17 -14 21 -33 18 -17 -4 -25 -1 -25 8 0 8 11 14
25 14 14 0 25 5 25 10 0 6 -9 10 -20 10 -14 0 -19 6 -17 22 1 14 -4 23 -15 26
-14 3 -18 -3 -18 -23z m40 -134 c0 -12 -48 -23 -63 -14 -8 5 -3 10 13 14 36
10 50 10 50 0z"/>
<path d="M273 1166 c3 -8 1 -17 -6 -19 -9 -3 -8 -8 2 -20 19 -23 34 -21 28 3
-3 11 -1 20 4 20 5 0 9 7 9 15 0 9 -9 15 -21 15 -14 0 -19 -5 -16 -14z"/>
</g>
</svg>
