<?xml version="1.0" standalone="no"?>
<!DOCTYPE svg PUBLIC "-//W3C//DTD SVG 20010904//EN"
 "http://www.w3.org/TR/2001/REC-SVG-20010904/DTD/svg10.dtd">
<svg version="1.0" xmlns="http://www.w3.org/2000/svg"
 width="50.000000pt" height="725.000000pt" viewBox="0 0 50.000000 725.000000"
 preserveAspectRatio="xMidYMid meet">
<metadata>
Created by potrace 1.16, written by Peter Selinger 2001-2019
</metadata>
<g transform="translate(0.000000,725.000000) scale(0.100000,-0.100000)"
fill="#000000" stroke="none">
<path d="M166 7114 c-52 -14 -63 -20 -53 -30 11 -11 138 17 134 30 -5 16 -25
16 -81 0z"/>
<path d="M190 6670 c-14 -4 -37 -11 -52 -14 -35 -8 -36 -24 -2 -28 l26 -3 -36
-54 c-20 -29 -36 -57 -36 -62 0 -33 57 27 86 91 14 30 27 42 47 47 15 3 26 11
24 17 -5 14 -26 17 -57 6z"/>
<path d="M190 6220 c-14 -4 -37 -11 -52 -14 -35 -8 -36 -24 -2 -28 l26 -3 -36
-54 c-35 -52 -43 -71 -29 -71 3 0 15 7 25 17 17 15 18 15 18 -5 0 -12 5 -22
10 -22 6 0 10 17 10 37 0 56 30 113 63 120 15 3 26 11 24 17 -5 14 -26 17 -57
6z"/>
<path d="M190 5770 c-14 -4 -37 -11 -52 -14 -35 -8 -36 -24 -2 -28 l26 -3 -36
-54 c-35 -52 -43 -71 -29 -71 3 0 15 7 25 17 17 15 18 15 18 -5 0 -35 18 -25
22 10 4 46 38 53 38 9 0 -42 16 -39 30 5 15 46 3 61 -37 46 l-29 -10 15 34
c11 24 25 36 44 41 15 3 26 11 24 17 -5 14 -26 17 -57 6z"/>
<path d="M190 5320 c-14 -4 -37 -11 -52 -14 -35 -8 -36 -24 -2 -28 l26 -3 -36
-54 c-35 -52 -43 -71 -29 -71 3 0 15 7 25 17 17 15 18 15 18 -5 0 -28 10 -32
53 -25 24 4 35 11 35 22 0 9 3 28 7 43 9 33 -9 44 -47 29 l-25 -9 16 34 c11
24 25 36 44 41 15 3 26 11 24 17 -5 14 -26 17 -57 6z m10 -134 c0 -27 -28 -43
-36 -21 -9 21 3 45 21 45 9 0 15 -9 15 -24z"/>
<path d="M331 4899 c-13 -11 -31 -24 -40 -29 -9 -5 -13 -11 -9 -15 10 -10 108
36 108 51 0 20 -31 17 -59 -7z"/>
<path d="M190 4870 c-14 -4 -37 -11 -52 -14 -35 -8 -36 -24 -2 -28 l26 -3 -36
-54 c-35 -52 -43 -71 -29 -71 3 0 15 7 25 17 17 15 18 15 18 -5 0 -28 10 -32
53 -25 24 4 35 11 35 22 0 9 3 28 7 43 9 33 -9 44 -47 29 l-25 -9 16 34 c11
24 25 36 44 41 15 3 26 11 24 17 -5 14 -26 17 -57 6z m10 -134 c0 -27 -28 -43
-36 -21 -9 21 3 45 21 45 9 0 15 -9 15 -24z"/>
<path d="M325 4445 c-16 -14 -38 -25 -47 -25 -15 0 -18 -10 -18 -57 -1 -32 -8
-76 -16 -98 -25 -65 -27 -75 -16 -75 18 0 52 85 58 148 l7 63 48 21 c27 11 49
27 49 34 0 22 -32 16 -65 -11z"/>
<path d="M190 4420 c-14 -4 -37 -11 -52 -14 -35 -8 -36 -24 -2 -28 l26 -3 -36
-54 c-35 -52 -43 -71 -29 -71 3 0 15 7 25 17 17 15 18 15 18 -5 0 -28 10 -32
53 -25 24 4 35 11 35 22 0 9 3 28 7 43 9 33 -9 44 -47 29 l-25 -9 16 34 c11
24 25 36 44 41 15 3 26 11 24 17 -5 14 -26 17 -57 6z m10 -134 c0 -27 -28 -43
-36 -21 -9 21 3 45 21 45 9 0 15 -9 15 -24z"/>
<path d="M325 3995 c-16 -14 -38 -25 -47 -25 -15 0 -18 -10 -18 -57 -1 -32 -8
-76 -16 -98 -24 -64 -27 -75 -17 -75 14 0 42 53 51 96 9 43 25 51 115 53 34 1
47 5 44 14 -4 13 -41 15 -104 3 -41 -7 -43 -7 -43 18 0 21 9 29 50 47 28 12
50 28 50 35 0 22 -32 16 -65 -11z"/>
<path d="M190 3970 c-14 -4 -37 -11 -52 -14 -35 -8 -36 -24 -2 -28 l26 -3 -36
-54 c-35 -52 -43 -71 -29 -71 3 0 15 7 25 17 17 15 18 15 18 -5 0 -28 10 -32
53 -25 24 4 35 11 35 22 0 9 3 28 7 43 9 33 -9 44 -47 29 l-25 -9 16 34 c11
24 25 36 44 41 15 3 26 11 24 17 -5 14 -26 17 -57 6z m10 -134 c0 -27 -28 -43
-36 -21 -9 21 3 45 21 45 9 0 15 -9 15 -24z"/>
<path d="M325 3545 c-16 -14 -38 -25 -47 -25 -15 0 -18 -10 -18 -57 -1 -32 -8
-76 -16 -98 -24 -64 -27 -75 -17 -75 14 0 42 54 51 96 6 33 12 40 35 42 l27 3
0 -105 c0 -58 4 -106 9 -106 8 0 21 103 21 178 0 42 0 42 36 42 24 0 34 4 31
13 -4 13 -41 15 -104 3 -41 -7 -43 -7 -43 18 0 21 9 29 50 47 28 12 50 28 50
35 0 22 -32 16 -65 -11z"/>
<path d="M190 3520 c-14 -4 -37 -11 -52 -14 -35 -8 -36 -24 -2 -28 l26 -3 -36
-54 c-35 -52 -43 -71 -29 -71 3 0 15 7 25 17 17 15 18 15 18 -5 0 -28 10 -32
53 -25 24 4 35 11 35 22 0 9 3 28 7 43 9 33 -9 44 -47 29 l-25 -9 16 34 c11
24 25 36 44 41 15 3 26 11 24 17 -5 14 -26 17 -57 6z m10 -134 c0 -27 -28 -43
-36 -21 -9 21 3 45 21 45 9 0 15 -9 15 -24z"/>
</g>
</svg>
