<?xml version="1.0" standalone="no"?>
<!DOCTYPE svg PUBLIC "-//W3C//DTD SVG 20010904//EN"
 "http://www.w3.org/TR/2001/REC-SVG-20010904/DTD/svg10.dtd">
<svg version="1.0" xmlns="http://www.w3.org/2000/svg"
 width="50.000000pt" height="725.000000pt" viewBox="0 0 50.000000 725.000000"
 preserveAspectRatio="xMidYMid meet">
<metadata>
Created by potrace 1.16, written by Peter Selinger 2001-2019
</metadata>
<g transform="translate(0.000000,725.000000) scale(0.100000,-0.100000)"
fill="#000000" stroke="none">
<path d="M176 7111 c-16 -3 -31 -12 -34 -20 -3 -10 3 -12 29 -6 56 11 69 16
69 26 0 10 -19 10 -64 0z"/>
<path d="M176 6661 c-16 -3 -31 -12 -34 -20 -3 -10 3 -12 29 -6 56 11 69 16
69 26 0 10 -19 10 -64 0z"/>
<path d="M115 6593 c4 -10 9 -33 12 -50 7 -40 23 -44 23 -5 0 43 -11 72 -27
72 -10 0 -13 -6 -8 -17z"/>
<path d="M176 6211 c-16 -3 -31 -12 -34 -20 -3 -10 3 -12 29 -6 56 11 69 16
69 26 0 10 -19 10 -64 0z"/>
<path d="M173 6163 c-42 -8 -25 -25 17 -18 l41 7 -7 -41 c-4 -24 -3 -41 3 -41
12 0 44 80 37 91 -5 9 -50 10 -91 2z"/>
<path d="M115 6143 c4 -10 9 -33 12 -50 7 -40 23 -44 23 -5 0 43 -11 72 -27
72 -10 0 -13 -6 -8 -17z"/>
<path d="M176 5761 c-16 -3 -31 -12 -34 -20 -3 -10 3 -12 29 -6 56 11 69 16
69 26 0 10 -19 10 -64 0z"/>
<path d="M173 5713 c-42 -8 -25 -25 17 -18 26 4 40 3 40 -4 0 -6 -13 -11 -30
-11 -16 0 -30 -4 -30 -10 0 -5 11 -10 25 -10 18 0 25 -5 25 -20 0 -11 4 -20 8
-20 12 0 43 80 36 91 -5 9 -50 10 -91 2z"/>
<path d="M115 5693 c4 -10 9 -33 12 -50 7 -40 23 -44 23 -5 0 43 -11 72 -27
72 -10 0 -13 -6 -8 -17z"/>
<path d="M176 5311 c-16 -3 -31 -12 -34 -20 -3 -10 3 -12 29 -6 56 11 69 16
69 26 0 10 -19 10 -64 0z"/>
<path d="M173 5263 c-42 -8 -25 -25 17 -18 26 4 40 3 40 -4 0 -6 -13 -11 -30
-11 -16 0 -30 -4 -30 -10 0 -5 12 -10 28 -10 21 0 24 -2 12 -10 -8 -5 -25 -10
-36 -10 -17 0 -23 8 -28 35 -5 22 -13 35 -23 35 -10 0 -13 -5 -8 -17 4 -10 9
-33 12 -51 4 -25 10 -31 23 -27 10 3 33 6 53 7 31 1 37 6 51 41 8 22 13 44 10
48 -5 9 -50 10 -91 2z"/>
<path d="M176 4861 c-16 -3 -31 -12 -34 -20 -3 -10 3 -12 29 -6 56 11 69 16
69 26 0 10 -19 10 -64 0z"/>
<path d="M173 4813 c-42 -8 -25 -25 17 -18 26 4 40 3 40 -4 0 -6 -13 -11 -30
-11 -16 0 -30 -4 -30 -10 0 -5 12 -10 28 -10 21 0 24 -2 12 -10 -8 -5 -25 -10
-36 -10 -17 0 -23 8 -28 35 -5 22 -13 35 -23 35 -10 0 -13 -5 -8 -17 4 -10 9
-33 12 -51 4 -25 10 -31 23 -27 10 3 33 6 53 7 31 1 37 6 51 41 8 22 13 44 10
48 -5 9 -50 10 -91 2z"/>
<path d="M152 4695 c-63 -12 -80 -20 -70 -31 9 -8 168 28 168 38 0 10 -19 9
-98 -7z"/>
<path d="M166 4441 c4 -20 2 -30 -10 -34 -20 -8 -21 -27 -1 -27 18 0 20 -16 3
-24 -10 -5 -10 -7 0 -12 14 -6 17 -54 3 -54 -5 0 -12 16 -15 35 -5 22 -13 35
-23 35 -10 0 -13 -5 -8 -17 4 -10 9 -33 12 -51 5 -27 9 -31 26 -26 14 4 18 2
15 -7 -3 -8 -21 -17 -41 -20 -21 -3 -40 -9 -44 -12 -14 -15 8 -19 46 -9 l40
10 -6 -43 c-3 -28 -1 -45 6 -50 19 -11 25 3 23 51 -1 42 0 45 28 51 17 3 30
10 30 15 0 6 -11 8 -25 6 -14 -3 -28 -1 -31 3 -5 9 9 13 32 10 13 -1 46 78 38
90 -3 5 -18 9 -35 9 -33 0 -39 15 -9 25 11 3 20 11 20 16 0 5 -9 9 -20 9 -15
0 -20 7 -20 25 0 18 -5 25 -20 25 -16 0 -19 -5 -14 -29z m64 -101 c0 -5 -7
-10 -15 -10 -8 0 -15 5 -15 10 0 6 7 10 15 10 8 0 15 -4 15 -10z"/>
<path d="M166 3991 c4 -20 2 -30 -10 -34 -20 -8 -21 -27 -1 -27 18 0 20 -16 3
-24 -10 -5 -10 -7 0 -12 14 -6 17 -54 3 -54 -5 0 -12 16 -15 35 -5 22 -13 35
-23 35 -10 0 -13 -5 -8 -17 4 -10 9 -33 12 -51 5 -27 9 -31 26 -26 14 4 18 2
15 -7 -3 -8 -21 -17 -41 -20 -21 -3 -40 -9 -44 -12 -14 -15 8 -19 46 -9 l40
10 -6 -43 c-3 -28 -1 -45 6 -50 19 -11 25 3 23 51 -1 42 0 45 28 51 17 3 30
10 30 15 0 6 -11 8 -25 6 -14 -3 -28 -1 -31 3 -5 9 9 13 32 10 13 -1 46 78 38
90 -3 5 -18 9 -35 9 -33 0 -39 15 -9 25 11 3 20 11 20 16 0 5 -9 9 -20 9 -15
0 -20 7 -20 25 0 18 -5 25 -20 25 -16 0 -19 -5 -14 -29z m64 -101 c0 -5 -7
-10 -15 -10 -8 0 -15 5 -15 10 0 6 7 10 15 10 8 0 15 -4 15 -10z"/>
<path d="M331 3970 c-19 -16 -32 -32 -29 -35 10 -10 90 35 86 47 -7 21 -23 18
-57 -12z"/>
<path d="M166 3541 c4 -20 2 -30 -10 -34 -20 -8 -21 -27 -1 -27 18 0 20 -16 3
-24 -10 -5 -10 -7 0 -12 14 -6 17 -54 3 -54 -5 0 -12 16 -15 35 -5 22 -13 35
-23 35 -10 0 -13 -5 -8 -17 4 -10 9 -33 12 -51 5 -27 9 -31 26 -26 14 4 18 2
15 -7 -3 -8 -21 -17 -41 -20 -21 -3 -40 -9 -44 -12 -14 -15 8 -19 46 -9 l40
10 -6 -43 c-3 -28 -1 -45 6 -50 19 -11 25 3 23 51 -1 42 0 45 28 51 17 3 30
10 30 15 0 6 -11 8 -25 6 -14 -3 -28 -1 -31 3 -5 9 9 13 32 10 13 -1 46 78 38
90 -3 5 -18 9 -35 9 -33 0 -39 15 -9 25 11 3 20 11 20 16 0 5 -9 9 -20 9 -15
0 -20 7 -20 25 0 18 -5 25 -20 25 -16 0 -19 -5 -14 -29z m64 -101 c0 -5 -7
-10 -15 -10 -8 0 -15 5 -15 10 0 6 7 10 15 10 8 0 15 -4 15 -10z"/>
<path d="M337 3525 c-15 -14 -36 -25 -46 -25 -16 0 -17 -7 -14 -47 3 -32 -2
-68 -15 -108 -11 -33 -18 -62 -15 -65 16 -17 63 106 63 167 0 28 6 35 41 53
22 12 39 26 37 32 -7 20 -22 18 -51 -7z"/>
<path d="M166 3091 c4 -20 2 -30 -10 -34 -20 -8 -21 -27 -1 -27 18 0 20 -16 3
-24 -10 -5 -10 -7 0 -12 14 -6 17 -54 3 -54 -5 0 -12 16 -15 35 -5 22 -13 35
-23 35 -10 0 -13 -5 -8 -17 4 -10 9 -33 12 -51 5 -27 9 -31 26 -26 14 4 18 2
15 -7 -3 -8 -21 -17 -41 -20 -21 -3 -40 -9 -44 -12 -14 -15 8 -19 46 -9 l40
10 -6 -43 c-3 -28 -1 -45 6 -50 19 -11 25 3 23 51 -1 42 0 45 28 51 17 3 30
10 30 15 0 6 -11 8 -25 6 -14 -3 -28 -1 -31 3 -5 9 9 13 32 10 13 -1 46 78 38
90 -3 5 -18 9 -35 9 -33 0 -39 15 -9 25 11 3 20 11 20 16 0 5 -9 9 -20 9 -15
0 -20 7 -20 25 0 18 -5 25 -20 25 -16 0 -19 -5 -14 -29z m64 -101 c0 -5 -7
-10 -15 -10 -8 0 -15 5 -15 10 0 6 7 10 15 10 8 0 15 -4 15 -10z"/>
<path d="M337 3075 c-15 -14 -36 -25 -46 -25 -16 0 -17 -7 -14 -47 3 -32 -2
-68 -15 -108 -11 -33 -18 -62 -15 -65 9 -9 34 34 49 86 l15 52 56 8 c33 5 58
15 61 23 4 11 -2 13 -27 8 -17 -4 -44 -10 -61 -13 -26 -6 -30 -4 -30 15 0 14
13 27 41 41 22 12 39 26 37 32 -7 20 -22 18 -51 -7z"/>
<path d="M166 2641 c4 -20 2 -30 -10 -34 -20 -8 -21 -27 -1 -27 18 0 20 -16 3
-24 -10 -5 -10 -7 0 -12 14 -6 17 -54 3 -54 -5 0 -12 16 -15 35 -5 22 -13 35
-23 35 -10 0 -13 -5 -8 -17 4 -10 9 -33 12 -51 5 -27 9 -31 26 -26 14 4 18 2
15 -7 -3 -8 -21 -17 -41 -20 -21 -3 -40 -9 -44 -12 -14 -15 8 -19 46 -9 l40
10 -6 -43 c-3 -28 -1 -45 6 -50 19 -11 25 3 23 51 -1 42 0 45 28 51 17 3 30
10 30 15 0 6 -11 8 -25 6 -14 -3 -28 -1 -31 3 -5 9 9 13 32 10 13 -1 46 78 38
90 -3 5 -18 9 -35 9 -33 0 -39 15 -9 25 11 3 20 11 20 16 0 5 -9 9 -20 9 -15
0 -20 7 -20 25 0 18 -5 25 -20 25 -16 0 -19 -5 -14 -29z m64 -101 c0 -5 -7
-10 -15 -10 -8 0 -15 5 -15 10 0 6 7 10 15 10 8 0 15 -4 15 -10z"/>
<path d="M337 2625 c-15 -14 -36 -25 -46 -25 -16 0 -17 -7 -14 -47 3 -32 -2
-68 -15 -108 -11 -33 -18 -62 -15 -65 9 -9 34 34 49 88 12 39 20 52 35 52 17
0 19 -8 19 -100 0 -154 25 -123 32 40 3 54 6 66 22 70 11 3 22 12 24 19 4 11
-3 13 -27 8 -17 -4 -44 -10 -61 -13 -26 -6 -30 -4 -30 15 0 14 13 27 41 41 22
12 39 26 37 32 -7 20 -22 18 -51 -7z"/>
</g>
</svg>
