<?xml version="1.0" standalone="no"?>
<!DOCTYPE svg PUBLIC "-//W3C//DTD SVG 20010904//EN"
 "http://www.w3.org/TR/2001/REC-SVG-20010904/DTD/svg10.dtd">
<svg version="1.0" xmlns="http://www.w3.org/2000/svg"
 width="50.000000pt" height="725.000000pt" viewBox="0 0 50.000000 725.000000"
 preserveAspectRatio="xMidYMid meet">
<metadata>
Created by potrace 1.16, written by Peter Selinger 2001-2019
</metadata>
<g transform="translate(0.000000,725.000000) scale(0.100000,-0.100000)"
fill="#000000" stroke="none">
<path d="M220 7156 c0 -22 29 -41 42 -28 8 8 8 15 -2 27 -16 19 -40 20 -40 1z"/>
<path d="M224 6695 c6 -23 4 -25 -29 -25 -19 0 -35 -5 -35 -11 0 -11 123 -5
156 8 25 10 14 25 -15 21 -20 -3 -32 1 -40 14 -18 28 -45 23 -37 -7z"/>
<path d="M224 6245 c6 -23 4 -25 -29 -25 -19 0 -35 -4 -35 -10 0 -5 6 -10 14
-10 8 0 17 -11 20 -25 4 -14 14 -25 22 -25 12 0 15 6 10 24 -6 26 7 36 49 36
31 0 55 10 55 22 0 6 -13 8 -29 6 -20 -3 -32 1 -40 14 -18 28 -45 23 -37 -7z"/>
<path d="M224 5795 c6 -23 4 -25 -29 -25 -19 0 -35 -4 -35 -10 0 -5 6 -10 14
-10 8 0 17 -11 20 -25 4 -14 14 -25 22 -25 12 0 15 6 10 24 -4 17 -1 26 10 30
30 12 37 7 30 -25 -7 -39 13 -35 34 7 8 16 18 31 23 32 19 9 4 24 -22 20 -20
-3 -32 1 -40 14 -18 28 -45 23 -37 -7z"/>
<path d="M224 5345 c6 -23 4 -25 -29 -25 -19 0 -35 -4 -35 -10 0 -5 6 -10 14
-10 8 0 17 -11 20 -25 4 -14 14 -25 22 -25 12 0 15 6 10 24 -4 17 -1 26 10 30
30 12 37 7 30 -25 -7 -39 13 -35 34 7 8 16 18 31 23 32 19 9 4 24 -22 20 -20
-3 -32 1 -40 14 -18 28 -45 23 -37 -7z"/>
<path d="M106 5228 c-9 -36 -7 -48 8 -48 13 0 26 28 26 58 0 21 -27 13 -34
-10z"/>
<path d="M224 4895 c6 -23 4 -25 -29 -25 -19 0 -35 -4 -35 -10 0 -5 7 -10 15
-10 8 0 15 -4 15 -9 0 -5 3 -16 6 -25 5 -13 -2 -16 -39 -16 -38 0 -46 -3 -51
-22 -9 -36 -7 -48 9 -48 8 0 15 7 15 15 0 18 39 35 81 35 33 0 33 -1 19 36
-11 28 -1 44 29 44 10 0 12 -9 7 -35 l-7 -35 50 0 c43 0 49 -3 44 -16 -5 -14
-2 -16 23 -10 38 10 41 13 27 34 -8 13 -23 16 -61 14 l-50 -2 11 30 c6 16 15
30 19 30 4 0 8 5 8 11 0 7 -12 10 -29 7 -20 -3 -32 1 -40 14 -18 28 -45 23
-37 -7z"/>
<path d="M224 4445 c6 -23 4 -25 -29 -25 -19 0 -35 -4 -35 -10 0 -5 7 -10 15
-10 8 0 15 -4 15 -9 0 -5 3 -16 6 -25 5 -13 -2 -16 -39 -16 -45 0 -56 -11 -57
-57 0 -21 27 -15 33 6 3 13 17 22 41 26 30 6 39 4 55 -16 30 -37 36 -15 11 37
-19 38 -20 48 -9 55 30 19 42 10 35 -26 l-7 -35 50 0 c43 0 49 -3 44 -16 -5
-14 -2 -16 23 -10 38 10 41 13 27 34 -8 13 -23 16 -61 14 l-50 -2 11 30 c6 16
15 30 19 30 4 0 8 5 8 11 0 7 -12 10 -29 7 -20 -3 -32 1 -40 14 -18 28 -45 23
-37 -7z"/>
<path d="M224 3995 c6 -23 4 -25 -29 -25 -19 0 -35 -4 -35 -10 0 -5 7 -10 15
-10 8 0 15 -4 15 -9 0 -5 3 -16 6 -25 5 -13 -2 -16 -39 -16 -45 0 -56 -11 -57
-57 0 -21 27 -15 33 6 6 25 75 41 87 20 13 -20 2 -29 -36 -29 -24 0 -34 -4
-31 -12 2 -7 13 -12 23 -11 10 2 54 6 97 9 42 4 77 10 77 15 0 12 -23 17 -56
12 -29 -5 -33 -2 -54 42 -19 39 -20 49 -9 56 30 19 42 10 35 -26 l-7 -35 50 0
c43 0 49 -3 44 -16 -5 -14 -2 -16 23 -10 38 10 41 13 27 34 -8 13 -23 16 -61
14 l-50 -2 11 30 c6 16 15 30 19 30 4 0 8 5 8 11 0 7 -12 10 -29 7 -20 -3 -32
1 -40 14 -18 28 -45 23 -37 -7z"/>
<path d="M224 3545 c6 -23 4 -25 -29 -25 -19 0 -35 -4 -35 -10 0 -5 7 -10 15
-10 8 0 15 -4 15 -9 0 -5 3 -16 6 -25 5 -13 -2 -16 -39 -16 -45 0 -56 -11 -57
-57 0 -21 27 -15 33 6 6 25 75 41 87 20 13 -20 2 -29 -36 -29 -24 0 -34 -4
-31 -12 2 -7 13 -12 23 -11 10 2 54 6 97 9 42 4 77 10 77 15 0 12 -23 17 -56
12 -29 -5 -33 -2 -54 42 -19 39 -20 49 -9 56 30 19 42 10 35 -26 l-7 -35 50 0
c43 0 49 -3 44 -16 -5 -14 -2 -16 23 -10 38 10 41 13 27 34 -8 13 -23 16 -61
14 l-50 -2 11 30 c6 16 15 30 19 30 4 0 8 5 8 11 0 7 -12 10 -29 7 -20 -3 -32
1 -40 14 -18 28 -45 23 -37 -7z"/>
<path d="M240 3349 c0 -6 9 -13 20 -16 11 -3 20 -11 20 -17 0 -22 -30 -55 -45
-50 -19 8 -19 -7 -1 -32 12 -15 19 -17 33 -8 22 14 59 102 47 113 -15 14 -74
22 -74 10z"/>
<path d="M224 3095 c6 -23 4 -25 -29 -25 -19 0 -35 -4 -35 -10 0 -5 7 -10 15
-10 8 0 15 -4 15 -9 0 -5 3 -16 6 -25 5 -13 -2 -16 -39 -16 -45 0 -56 -11 -57
-57 0 -21 27 -15 33 6 6 25 75 41 87 20 13 -20 2 -29 -36 -29 -24 0 -34 -4
-31 -12 2 -8 17 -12 36 -10 30 3 32 2 22 -16 -12 -23 -30 -42 -67 -71 -15 -12
-25 -24 -21 -27 8 -9 59 21 90 54 28 29 67 34 67 8 0 -22 -30 -55 -45 -50 -19
8 -19 -6 -1 -31 20 -27 44 -12 67 42 23 55 20 70 -17 75 -15 2 -29 9 -32 16
-2 8 11 12 47 12 28 0 51 4 51 9 0 14 -21 19 -56 14 -29 -5 -33 -2 -54 42 -19
39 -20 49 -9 56 30 19 42 10 35 -26 l-7 -35 50 0 c43 0 49 -3 44 -16 -5 -14
-2 -16 23 -10 38 10 41 13 27 34 -8 13 -23 16 -61 14 l-50 -2 11 30 c6 16 15
30 19 30 4 0 8 5 8 11 0 7 -12 10 -29 7 -20 -3 -32 1 -40 14 -18 28 -45 23
-37 -7z"/>
</g>
</svg>
