<?xml version="1.0" standalone="no"?>
<!DOCTYPE svg PUBLIC "-//W3C//DTD SVG 20010904//EN"
 "http://www.w3.org/TR/2001/REC-SVG-20010904/DTD/svg10.dtd">
<svg version="1.0" xmlns="http://www.w3.org/2000/svg"
 width="50.000000pt" height="725.000000pt" viewBox="0 0 50.000000 725.000000"
 preserveAspectRatio="xMidYMid meet">
<metadata>
Created by potrace 1.16, written by Peter Selinger 2001-2019
</metadata>
<g transform="translate(0.000000,725.000000) scale(0.100000,-0.100000)"
fill="#000000" stroke="none">
<path d="M93 7000 c-2 -103 7 -139 21 -87 12 44 7 197 -6 197 -10 0 -14 -30
-15 -110z"/>
<path d="M130 6663 l-35 -4 -2 -109 c-1 -61 2 -110 6 -110 14 0 21 41 21 123
0 76 1 78 23 75 19 -3 22 -10 25 -58 2 -30 -1 -71 -7 -91 -12 -40 -6 -72 13
-66 7 2 13 45 16 113 5 98 -1 137 -19 132 -3 -1 -22 -3 -41 -5z"/>
<path d="M130 6213 l-35 -4 -2 -109 c-1 -61 2 -110 6 -110 10 0 21 36 21 71 0
19 6 28 22 32 31 9 34 2 20 -48 -12 -46 -7 -78 12 -72 7 2 13 45 16 113 5 98
-1 137 -19 132 -3 -1 -22 -3 -41 -5z m38 -59 c3 -27 -1 -32 -22 -36 -24 -5
-26 -3 -26 34 0 35 2 39 23 36 17 -2 23 -11 25 -34z"/>
<path d="M130 5763 l-35 -4 -2 -110 -2 -109 26 6 c19 5 30 2 40 -11 23 -32 31
-5 34 106 2 98 -3 131 -19 127 -4 -1 -23 -3 -42 -5z m38 -59 c3 -27 -1 -32
-22 -36 -24 -5 -26 -3 -26 34 0 35 2 39 23 36 17 -2 23 -11 25 -34z m2 -71 c0
-38 -13 -63 -31 -63 -26 0 -27 66 -1 73 30 8 32 7 32 -10z"/>
<path d="M130 5313 l-35 -4 -2 -110 -2 -109 26 6 c19 5 30 2 40 -11 23 -32 31
-5 34 106 2 98 -3 131 -19 127 -4 -1 -23 -3 -42 -5z m38 -59 c3 -27 -1 -32
-22 -36 -24 -5 -26 -3 -26 34 0 35 2 39 23 36 17 -2 23 -11 25 -34z m2 -71 c0
-38 -13 -63 -31 -63 -26 0 -27 66 -1 73 30 8 32 7 32 -10z"/>
<path d="M273 5307 c-29 -5 -53 -14 -53 -18 0 -20 141 -2 148 19 4 14 -19 14
-95 -1z"/>
<path d="M130 4863 l-35 -4 -2 -110 -2 -109 26 6 c19 5 30 2 40 -11 23 -32 31
-5 34 106 2 98 -3 131 -19 127 -4 -1 -23 -3 -42 -5z m38 -59 c3 -27 -1 -32
-22 -36 -24 -5 -26 -3 -26 34 0 35 2 39 23 36 17 -2 23 -11 25 -34z m2 -71 c0
-38 -13 -63 -31 -63 -26 0 -27 66 -1 73 30 8 32 7 32 -10z"/>
<path d="M273 4857 c-29 -5 -53 -14 -53 -18 0 -20 141 -2 148 19 4 14 -19 14
-95 -1z"/>
<path d="M278 4758 c-47 -10 -66 -28 -29 -28 53 0 111 14 111 26 0 16 -14 16
-82 2z"/>
<path d="M130 4413 l-35 -4 -2 -110 -2 -109 26 6 c19 5 30 2 40 -11 23 -32 31
-5 34 106 2 98 -3 131 -19 127 -4 -1 -23 -3 -42 -5z m38 -59 c3 -27 -1 -32
-22 -36 -24 -5 -26 -3 -26 34 0 35 2 39 23 36 17 -2 23 -11 25 -34z m2 -71 c0
-38 -13 -63 -31 -63 -26 0 -27 66 -1 73 30 8 32 7 32 -10z"/>
<path d="M273 4407 c-58 -11 -69 -24 -25 -29 24 -3 27 -7 27 -38 0 -29 -4 -36
-22 -38 -31 -5 -29 -22 2 -22 23 0 25 -4 25 -45 0 -33 4 -45 15 -45 11 0 15
12 15 50 0 47 2 50 25 50 16 0 25 6 25 16 0 12 -7 15 -25 12 -23 -5 -25 -2
-25 33 0 33 3 38 27 41 33 4 44 29 11 27 -12 -1 -47 -6 -75 -12z"/>
<path d="M130 3963 l-35 -4 -2 -110 -2 -109 26 6 c19 5 30 2 40 -11 23 -32 31
-5 34 106 2 98 -3 131 -19 127 -4 -1 -23 -3 -42 -5z m38 -59 c3 -27 -1 -32
-22 -36 -24 -5 -26 -3 -26 34 0 35 2 39 23 36 17 -2 23 -11 25 -34z m2 -71 c0
-38 -13 -63 -31 -63 -26 0 -27 66 -1 73 30 8 32 7 32 -10z"/>
<path d="M273 3957 c-58 -11 -69 -24 -25 -29 24 -3 27 -7 27 -38 0 -29 -4 -36
-22 -38 -31 -5 -29 -22 2 -22 23 0 25 -4 25 -40 0 -37 -2 -40 -27 -40 -28 0
-61 -15 -53 -24 11 -10 221 7 217 18 -2 6 -26 11 -55 11 l-52 -1 0 43 c0 39 2
43 25 43 16 0 25 6 25 16 0 12 -7 15 -25 12 -23 -5 -25 -2 -25 33 0 33 3 38
27 41 33 4 44 29 11 27 -12 -1 -47 -6 -75 -12z"/>
</g>
</svg>
