<?xml version="1.0" standalone="no"?>
<!DOCTYPE svg PUBLIC "-//W3C//DTD SVG 20010904//EN"
 "http://www.w3.org/TR/2001/REC-SVG-20010904/DTD/svg10.dtd">
<svg version="1.0" xmlns="http://www.w3.org/2000/svg"
 width="50.000000pt" height="725.000000pt" viewBox="0 0 50.000000 725.000000"
 preserveAspectRatio="xMidYMid meet">
<metadata>
Created by potrace 1.16, written by Peter Selinger 2001-2019
</metadata>
<g transform="translate(0.000000,725.000000) scale(0.100000,-0.100000)"
fill="#000000" stroke="none">
<path d="M273 7133 c-43 -6 -43 -23 0 -23 32 0 33 -2 29 -30 -6 -41 11 -38 32
7 14 29 15 38 4 44 -7 5 -17 8 -23 7 -5 -1 -25 -3 -42 -5z"/>
<path d="M160 7110 c0 -5 14 -10 30 -10 17 0 30 5 30 10 0 6 -13 10 -30 10
-16 0 -30 -4 -30 -10z"/>
<path d="M273 6683 c-45 -6 -42 -23 5 -24 33 -1 34 -1 11 -9 -14 -4 -65 -11
-112 -15 -82 -6 -106 -16 -73 -28 8 -3 29 -2 48 3 18 4 59 10 91 13 45 4 57 3
57 -9 0 -19 16 -18 24 1 3 10 19 15 46 15 22 0 40 5 40 10 0 6 -16 10 -36 10
-23 0 -33 4 -28 11 7 12 -14 30 -31 27 -5 -1 -25 -3 -42 -5z"/>
<path d="M160 6660 c0 -5 14 -10 30 -10 17 0 30 5 30 10 0 6 -13 10 -30 10
-16 0 -30 -4 -30 -10z"/>
<path d="M273 6233 c-45 -6 -42 -23 5 -24 33 -1 34 -1 11 -9 -14 -4 -65 -11
-112 -15 -82 -6 -106 -16 -73 -28 8 -3 29 -2 48 3 53 13 149 20 143 9 -4 -5
-19 -9 -36 -9 -16 0 -29 -4 -29 -10 0 -5 23 -10 50 -10 43 0 50 3 48 18 -2 14
5 18 40 20 51 4 57 22 6 22 -23 0 -33 4 -28 11 7 12 -14 30 -31 27 -5 -1 -25
-3 -42 -5z"/>
<path d="M160 6210 c0 -5 14 -10 30 -10 17 0 30 5 30 10 0 6 -13 10 -30 10
-16 0 -30 -4 -30 -10z"/>
<path d="M170 6140 c0 -5 11 -10 25 -10 14 0 25 5 25 10 0 6 -11 10 -25 10
-14 0 -25 -4 -25 -10z"/>
<path d="M273 5783 c-45 -6 -42 -23 5 -24 33 -1 34 -1 11 -9 -14 -4 -65 -11
-112 -15 -82 -6 -106 -16 -73 -28 8 -3 29 -2 48 3 53 13 149 20 143 9 -4 -5
-19 -9 -36 -9 -16 0 -29 -4 -29 -10 0 -5 23 -10 50 -10 43 0 50 3 48 18 -2 14
5 18 40 20 51 4 57 22 6 22 -23 0 -33 4 -28 11 7 12 -14 30 -31 27 -5 -1 -25
-3 -42 -5z"/>
<path d="M160 5760 c0 -5 14 -10 30 -10 17 0 30 5 30 10 0 6 -13 10 -30 10
-16 0 -30 -4 -30 -10z"/>
<path d="M170 5690 c0 -5 11 -10 25 -10 14 0 25 5 25 10 0 6 -11 10 -25 10
-14 0 -25 -4 -25 -10z"/>
<path d="M242 5670 c-51 -8 -70 -15 -61 -24 9 -9 123 10 127 22 2 6 0 11 -5
11 -4 -1 -32 -5 -61 -9z"/>
<path d="M227 5331 l5 -40 -71 -7 c-39 -3 -71 -10 -71 -14 0 -15 29 -19 62 -9
43 12 81 12 73 -1 -3 -5 -17 -10 -31 -10 -36 0 -29 -20 9 -21 l32 -1 -27 -11
c-32 -13 -38 -32 -7 -24 12 3 22 0 26 -9 7 -18 23 -18 23 0 0 8 12 16 27 18
14 2 28 9 31 15 2 9 -5 11 -27 7 -20 -4 -31 -2 -31 5 0 6 17 11 40 11 33 0 40
3 38 18 -2 14 5 18 40 20 51 4 57 22 6 22 -23 0 -33 4 -28 11 10 17 -18 29
-53 23 -29 -5 -33 -3 -33 15 0 14 -6 21 -19 21 -16 0 -18 -5 -14 -39z m83 -25
c0 -2 -11 -6 -25 -8 -14 -3 -25 -1 -25 3 0 5 11 9 25 9 14 0 25 -2 25 -4z
m-15 -36 c-3 -5 -16 -10 -28 -10 -18 0 -19 2 -7 10 20 13 43 13 35 0z"/>
<path d="M160 5310 c0 -5 14 -10 30 -10 17 0 30 5 30 10 0 6 -13 10 -30 10
-16 0 -30 -4 -30 -10z"/>
<path d="M227 4881 l5 -40 -71 -7 c-39 -3 -71 -10 -71 -14 0 -15 29 -19 62 -9
43 12 81 12 73 -1 -3 -5 -17 -10 -31 -10 -36 0 -29 -20 9 -21 l32 -1 -27 -11
c-32 -12 -38 -32 -8 -24 11 3 22 1 25 -3 3 -4 -17 -11 -45 -15 -27 -4 -50 -12
-50 -17 0 -7 14 -8 38 -4 20 3 47 6 60 6 15 0 22 6 22 19 0 14 8 21 27 23 14
2 28 9 31 15 2 9 -5 11 -27 7 -20 -4 -31 -2 -31 5 0 6 17 11 40 11 33 0 40 3
38 18 -2 14 5 18 40 20 51 4 57 22 6 22 -23 0 -33 4 -28 11 10 17 -18 29 -53
23 -29 -5 -33 -3 -33 15 0 14 -6 21 -19 21 -16 0 -18 -5 -14 -39z m83 -25 c0
-2 -11 -6 -25 -8 -14 -3 -25 -1 -25 3 0 5 11 9 25 9 14 0 25 -2 25 -4z m-15
-36 c-3 -5 -16 -10 -28 -10 -18 0 -19 2 -7 10 20 13 43 13 35 0z"/>
<path d="M160 4860 c0 -5 14 -10 30 -10 17 0 30 5 30 10 0 6 -13 10 -30 10
-16 0 -30 -4 -30 -10z"/>
<path d="M303 4743 c-65 -6 -52 -23 17 -23 57 0 78 11 44 24 -9 3 -16 5 -17 4
-1 -1 -21 -3 -44 -5z"/>
<path d="M227 4431 l5 -40 -71 -7 c-39 -3 -71 -10 -71 -14 0 -15 29 -19 62 -9
43 12 81 12 73 -1 -3 -5 -17 -10 -31 -10 -36 0 -29 -20 9 -21 l32 -1 -27 -11
c-32 -12 -38 -32 -8 -24 11 3 22 1 25 -3 3 -4 -17 -11 -45 -15 -27 -4 -50 -12
-50 -17 0 -7 14 -8 38 -4 20 3 47 6 60 6 15 0 22 6 22 19 0 14 8 21 27 23 14
2 28 9 31 15 2 9 -5 11 -27 7 -20 -4 -31 -2 -31 5 0 6 17 11 40 11 33 0 40 3
38 18 -2 14 5 18 40 20 51 4 57 22 6 22 -23 0 -33 4 -28 11 10 17 -18 29 -53
23 -29 -5 -33 -3 -33 15 0 14 -6 21 -19 21 -16 0 -18 -5 -14 -39z m83 -25 c0
-2 -11 -6 -25 -8 -14 -3 -25 -1 -25 3 0 5 11 9 25 9 14 0 25 -2 25 -4z m-15
-36 c-3 -5 -16 -10 -28 -10 -18 0 -19 2 -7 10 20 13 43 13 35 0z"/>
<path d="M160 4410 c0 -5 14 -10 30 -10 17 0 30 5 30 10 0 6 -13 10 -30 10
-16 0 -30 -4 -30 -10z"/>
<path d="M303 4293 c-65 -6 -52 -23 17 -23 57 0 78 11 44 24 -9 3 -16 5 -17 4
-1 -1 -21 -3 -44 -5z"/>
<path d="M170 4226 c0 -29 13 -76 21 -76 10 0 12 50 3 74 -8 20 -24 21 -24 2z"/>
<path d="M227 3981 l5 -40 -71 -7 c-39 -3 -71 -10 -71 -14 0 -15 29 -19 62 -9
43 12 81 12 73 -1 -3 -5 -17 -10 -31 -10 -36 0 -29 -20 9 -21 l32 -1 -27 -11
c-32 -12 -38 -32 -8 -24 11 3 22 1 25 -3 3 -4 -17 -11 -45 -15 -27 -4 -50 -12
-50 -17 0 -7 14 -8 38 -4 20 3 47 6 60 6 15 0 22 6 22 19 0 14 8 21 27 23 14
2 28 9 31 15 2 9 -5 11 -27 7 -20 -4 -31 -2 -31 5 0 6 17 11 40 11 33 0 40 3
38 18 -2 14 5 18 40 20 51 4 57 22 6 22 -23 0 -33 4 -28 11 10 17 -18 29 -53
23 -29 -5 -33 -3 -33 15 0 14 -6 21 -19 21 -16 0 -18 -5 -14 -39z m83 -25 c0
-2 -11 -6 -25 -8 -14 -3 -25 -1 -25 3 0 5 11 9 25 9 14 0 25 -2 25 -4z m-15
-36 c-3 -5 -16 -10 -28 -10 -18 0 -19 2 -7 10 20 13 43 13 35 0z"/>
<path d="M160 3960 c0 -5 14 -10 30 -10 17 0 30 5 30 10 0 6 -13 10 -30 10
-16 0 -30 -4 -30 -10z"/>
<path d="M303 3843 c-65 -6 -52 -23 17 -23 57 0 78 11 44 24 -9 3 -16 5 -17 4
-1 -1 -21 -3 -44 -5z"/>
<path d="M253 3803 c-46 -6 -41 -25 5 -22 l37 4 -3 -39 c-4 -49 15 -45 36 8
13 32 13 39 1 47 -14 9 -19 9 -76 2z"/>
<path d="M170 3776 c0 -29 13 -76 21 -76 5 0 9 20 9 45 0 33 -4 45 -15 45 -8
0 -15 -6 -15 -14z"/>
<path d="M227 3531 l5 -40 -71 -7 c-39 -3 -71 -10 -71 -14 0 -15 29 -19 62 -9
43 12 81 12 73 -1 -3 -5 -17 -10 -31 -10 -36 0 -29 -20 9 -21 l32 -1 -27 -11
c-32 -12 -38 -32 -8 -24 11 3 22 1 25 -3 3 -4 -17 -11 -45 -15 -27 -4 -50 -12
-50 -17 0 -7 14 -8 38 -4 20 3 47 6 60 6 15 0 22 6 22 19 0 14 8 21 27 23 14
2 28 9 31 15 2 9 -5 11 -27 7 -20 -4 -31 -2 -31 5 0 6 17 11 40 11 33 0 40 3
38 18 -2 14 5 18 40 20 51 4 57 22 6 22 -23 0 -33 4 -28 11 10 17 -18 29 -53
23 -29 -5 -33 -3 -33 15 0 14 -6 21 -19 21 -16 0 -18 -5 -14 -39z m83 -25 c0
-2 -11 -6 -25 -8 -14 -3 -25 -1 -25 3 0 5 11 9 25 9 14 0 25 -2 25 -4z m-15
-36 c-3 -5 -16 -10 -28 -10 -18 0 -19 2 -7 10 20 13 43 13 35 0z"/>
<path d="M160 3510 c0 -5 14 -10 30 -10 17 0 30 5 30 10 0 6 -13 10 -30 10
-16 0 -30 -4 -30 -10z"/>
<path d="M303 3393 c-65 -6 -52 -23 17 -23 57 0 78 11 44 24 -9 3 -16 5 -17 4
-1 -1 -21 -3 -44 -5z"/>
<path d="M253 3353 c-44 -6 -42 -25 1 -22 19 2 38 0 42 -4 4 -4 -2 -7 -13 -7
-11 0 -35 -3 -52 -6 -24 -5 -31 -3 -31 10 0 9 -7 16 -15 16 -16 0 -18 -12 -9
-59 7 -34 24 -43 24 -12 0 13 10 20 31 25 50 10 59 7 59 -15 0 -31 21 -18 38
25 13 32 13 39 1 47 -14 9 -19 9 -76 2z"/>
<path d="M227 3081 l5 -40 -71 -7 c-39 -3 -71 -10 -71 -14 0 -15 29 -19 62 -9
43 12 81 12 73 -1 -3 -5 -17 -10 -31 -10 -36 0 -29 -20 9 -21 l32 -1 -27 -11
c-32 -12 -38 -32 -8 -24 11 3 22 1 25 -3 3 -4 -17 -11 -45 -15 -27 -4 -50 -12
-50 -17 0 -7 14 -8 38 -4 20 3 47 6 60 6 15 0 22 6 22 19 0 14 8 21 27 23 14
2 28 9 31 15 2 9 -5 11 -27 7 -20 -4 -31 -2 -31 5 0 6 17 11 40 11 33 0 40 3
38 18 -2 14 5 18 40 20 51 4 57 22 6 22 -23 0 -33 4 -28 11 10 17 -18 29 -53
23 -29 -5 -33 -3 -33 15 0 14 -6 21 -19 21 -16 0 -18 -5 -14 -39z m83 -25 c0
-2 -11 -6 -25 -8 -14 -3 -25 -1 -25 3 0 5 11 9 25 9 14 0 25 -2 25 -4z m-15
-36 c-3 -5 -16 -10 -28 -10 -18 0 -19 2 -7 10 20 13 43 13 35 0z"/>
<path d="M160 3060 c0 -5 14 -10 30 -10 17 0 30 5 30 10 0 6 -13 10 -30 10
-16 0 -30 -4 -30 -10z"/>
<path d="M303 2943 c-65 -6 -52 -23 17 -23 57 0 78 11 44 24 -9 3 -16 5 -17 4
-1 -1 -21 -3 -44 -5z"/>
<path d="M253 2903 c-44 -6 -42 -25 1 -22 19 2 38 0 42 -4 4 -4 -2 -7 -13 -7
-11 0 -35 -3 -52 -6 -24 -5 -31 -3 -31 10 0 9 -7 16 -15 16 -16 0 -18 -12 -9
-59 5 -25 10 -30 28 -26 11 3 41 7 65 8 40 3 45 6 59 41 13 32 13 39 1 47 -14
9 -19 9 -76 2z m27 -63 c-8 -5 -31 -9 -50 -9 -32 1 -33 2 -10 9 14 4 36 8 50
9 20 1 22 -1 10 -9z"/>
<path d="M227 2631 l5 -40 -71 -7 c-39 -3 -71 -10 -71 -14 0 -15 29 -19 62 -9
43 12 81 12 73 -1 -3 -5 -17 -10 -31 -10 -36 0 -29 -20 9 -21 l32 -1 -27 -11
c-32 -12 -38 -32 -8 -24 11 3 22 1 25 -3 3 -4 -17 -11 -45 -15 -27 -4 -50 -12
-50 -17 0 -7 14 -8 38 -4 20 3 47 6 60 6 15 0 22 6 22 19 0 14 8 21 27 23 14
2 28 9 31 15 2 9 -5 11 -27 7 -20 -4 -31 -2 -31 5 0 6 17 11 40 11 33 0 40 3
38 18 -2 14 5 18 40 20 51 4 57 22 6 22 -23 0 -33 4 -28 11 10 17 -18 29 -53
23 -29 -5 -33 -3 -33 15 0 14 -6 21 -19 21 -16 0 -18 -5 -14 -39z m83 -25 c0
-2 -11 -6 -25 -8 -14 -3 -25 -1 -25 3 0 5 11 9 25 9 14 0 25 -2 25 -4z m-15
-36 c-3 -5 -16 -10 -28 -10 -18 0 -19 2 -7 10 20 13 43 13 35 0z"/>
<path d="M160 2610 c0 -5 14 -10 30 -10 17 0 30 5 30 10 0 6 -13 10 -30 10
-16 0 -30 -4 -30 -10z"/>
<path d="M303 2493 c-65 -6 -52 -23 17 -23 57 0 78 11 44 24 -9 3 -16 5 -17 4
-1 -1 -21 -3 -44 -5z"/>
<path d="M253 2453 c-44 -6 -42 -25 1 -22 19 2 38 0 42 -4 4 -4 -2 -7 -13 -7
-11 0 -35 -3 -52 -6 -24 -5 -31 -3 -31 10 0 9 -7 16 -15 16 -16 0 -18 -12 -9
-59 5 -25 10 -30 28 -26 11 3 41 7 65 8 40 3 45 6 59 41 13 32 13 39 1 47 -14
9 -19 9 -76 2z m27 -63 c-8 -5 -31 -9 -50 -9 -32 1 -33 2 -10 9 14 4 36 8 50
9 20 1 22 -1 10 -9z"/>
<path d="M163 2343 c-35 -2 -63 -8 -63 -12 0 -16 24 -18 100 -10 41 4 103 8
138 8 34 1 62 5 62 11 0 10 -95 11 -237 3z"/>
</g>
</svg>
