<?xml version="1.0" standalone="no"?>
<!DOCTYPE svg PUBLIC "-//W3C//DTD SVG 20010904//EN"
 "http://www.w3.org/TR/2001/REC-SVG-20010904/DTD/svg10.dtd">
<svg version="1.0" xmlns="http://www.w3.org/2000/svg"
 width="50.000000pt" height="725.000000pt" viewBox="0 0 50.000000 725.000000"
 preserveAspectRatio="xMidYMid meet">
<metadata>
Created by potrace 1.16, written by Peter Selinger 2001-2019
</metadata>
<g transform="translate(0.000000,725.000000) scale(0.100000,-0.100000)"
fill="#000000" stroke="none">
<path d="M180 7152 c0 -5 6 -17 14 -28 12 -16 17 -17 28 -6 11 11 10 16 -6 28
-22 16 -36 18 -36 6z"/>
<path d="M275 6699 c-4 -11 -5 -23 -2 -26 9 -9 47 17 47 32 0 23 -38 18 -45
-6z"/>
<path d="M180 6702 c0 -5 6 -17 14 -28 12 -16 17 -17 28 -6 11 11 10 16 -6 28
-22 16 -36 18 -36 6z"/>
<path d="M275 6250 c-3 -11 -3 -24 0 -30 4 -6 -6 -10 -24 -10 -22 0 -29 4 -25
14 3 8 -4 19 -16 26 -27 15 -35 8 -21 -18 15 -29 14 -32 -14 -32 -14 0 -25 -5
-25 -11 0 -11 128 -5 173 7 27 8 20 24 -10 24 -24 1 -25 2 -10 11 9 5 17 17
17 24 0 22 -38 18 -45 -5z"/>
<path d="M275 5800 c-3 -11 -3 -24 0 -30 4 -6 -6 -10 -24 -10 -22 0 -29 4 -25
14 3 8 -4 19 -16 26 -27 15 -35 8 -21 -18 15 -29 14 -32 -14 -32 -14 0 -25 -4
-25 -10 0 -5 14 -10 30 -10 29 0 30 -2 30 -45 0 -61 16 -57 24 5 7 49 7 50 41
50 39 0 65 8 65 21 0 5 -12 9 -27 9 -24 1 -25 2 -10 11 9 5 17 17 17 24 0 22
-38 18 -45 -5z"/>
<path d="M275 5350 c-3 -11 -3 -24 0 -30 4 -6 -6 -10 -24 -10 -22 0 -29 4 -25
14 3 8 -4 19 -16 26 -27 15 -35 8 -21 -18 15 -29 14 -32 -14 -32 -14 0 -25 -4
-25 -10 0 -5 14 -10 30 -10 29 0 30 -2 30 -45 0 -61 16 -57 24 5 8 62 26 66
26 5 0 -58 16 -58 24 -1 6 36 12 45 31 50 34 9 32 26 -2 26 -24 1 -25 2 -10
11 9 5 17 17 17 24 0 22 -38 18 -45 -5z"/>
<path d="M275 4900 c-3 -11 -3 -24 0 -30 4 -6 -6 -10 -24 -10 -22 0 -29 4 -25
14 3 8 -4 19 -16 26 -27 15 -35 8 -21 -18 15 -29 14 -32 -14 -32 -14 0 -25 -4
-25 -10 0 -5 14 -10 30 -10 29 0 30 -2 30 -45 0 -61 16 -57 24 5 8 62 26 66
26 5 0 -58 16 -58 24 -1 6 36 12 45 31 50 34 9 32 26 -2 26 -24 1 -25 2 -10
11 9 5 17 17 17 24 0 22 -38 18 -45 -5z"/>
<path d="M150 4792 c0 -10 22 -32 32 -32 4 0 8 9 8 20 0 13 -7 20 -20 20 -11
0 -20 -4 -20 -8z"/>
<path d="M275 4450 c-3 -11 -3 -24 0 -30 4 -6 -6 -10 -24 -10 -22 0 -29 4 -25
14 3 8 -4 19 -16 26 -27 15 -35 8 -21 -18 15 -29 14 -32 -14 -32 -14 0 -25 -4
-25 -10 0 -5 14 -10 30 -10 29 0 30 -2 30 -45 0 -61 16 -57 24 5 8 62 26 66
26 5 0 -58 16 -58 24 -1 6 36 12 45 31 50 34 9 32 26 -2 26 -24 1 -25 2 -10
11 9 5 17 17 17 24 0 22 -38 18 -45 -5z"/>
<path d="M310 4355 c-7 -14 -11 -28 -8 -31 9 -9 59 27 55 40 -7 21 -33 17 -47
-9z"/>
<path d="M150 4342 c0 -10 22 -32 32 -32 4 0 8 9 8 20 0 13 -7 20 -20 20 -11
0 -20 -4 -20 -8z"/>
<path d="M275 4000 c-3 -11 -3 -24 0 -30 4 -6 -6 -10 -24 -10 -22 0 -29 4 -25
14 3 8 -4 19 -16 26 -27 15 -35 8 -21 -18 15 -29 14 -32 -14 -32 -14 0 -25 -4
-25 -10 0 -5 14 -10 30 -10 28 0 30 -2 30 -39 l0 -40 -55 -6 c-30 -4 -55 -11
-55 -15 0 -15 29 -19 62 -9 18 5 81 12 141 16 59 3 107 9 107 13 0 15 -33 20
-83 14 l-50 -7 6 33 c4 18 7 36 7 40 0 4 11 11 25 14 34 9 32 26 -2 26 -24 1
-25 2 -10 11 9 5 17 17 17 24 0 22 -38 18 -45 -5z m-15 -99 c0 -25 -5 -41 -15
-45 -17 -6 -18 5 -9 53 9 44 24 39 24 -8z"/>
<path d="M310 3905 c-7 -14 -11 -28 -8 -31 9 -9 59 27 55 40 -7 21 -33 17 -47
-9z"/>
<path d="M150 3892 c0 -10 22 -32 32 -32 4 0 8 9 8 20 0 13 -7 20 -20 20 -11
0 -20 -4 -20 -8z"/>
<path d="M275 3550 c-3 -11 -3 -24 0 -30 4 -6 -6 -10 -24 -10 -22 0 -29 4 -25
14 3 8 -4 19 -16 26 -27 15 -35 8 -21 -18 15 -29 14 -32 -14 -32 -14 0 -25 -4
-25 -10 0 -5 14 -10 30 -10 28 0 30 -2 30 -39 l0 -40 -55 -6 c-30 -4 -55 -11
-55 -15 0 -15 29 -19 62 -9 18 5 81 12 141 16 59 3 107 9 107 13 0 15 -33 20
-83 14 l-50 -7 6 33 c4 18 7 36 7 40 0 4 11 11 25 14 34 9 32 26 -2 26 -24 1
-25 2 -10 11 9 5 17 17 17 24 0 22 -38 18 -45 -5z m-15 -99 c0 -25 -5 -41 -15
-45 -17 -6 -18 5 -9 53 9 44 24 39 24 -8z"/>
<path d="M310 3455 c-7 -14 -11 -28 -8 -31 9 -9 59 27 55 40 -7 21 -33 17 -47
-9z"/>
<path d="M150 3442 c0 -10 22 -32 32 -32 4 0 8 9 8 20 0 13 -7 20 -20 20 -11
0 -20 -4 -20 -8z"/>
<path d="M180 3296 c0 -37 4 -66 10 -66 9 0 12 20 14 102 1 12 -5 23 -11 26
-10 3 -13 -14 -13 -62z"/>
<path d="M275 3100 c-3 -11 -3 -24 0 -30 4 -6 -6 -10 -24 -10 -22 0 -29 4 -25
14 3 8 -4 19 -16 26 -27 15 -35 8 -21 -18 15 -29 14 -32 -14 -32 -14 0 -25 -4
-25 -10 0 -5 14 -10 30 -10 28 0 30 -2 30 -39 l0 -40 -55 -6 c-30 -4 -55 -11
-55 -15 0 -15 29 -19 62 -9 18 5 81 12 141 16 59 3 107 9 107 13 0 15 -33 20
-83 14 l-50 -7 6 33 c4 18 7 36 7 40 0 4 11 11 25 14 34 9 32 26 -2 26 -24 1
-25 2 -10 11 9 5 17 17 17 24 0 22 -38 18 -45 -5z m-15 -99 c0 -25 -5 -41 -15
-45 -17 -6 -18 5 -9 53 9 44 24 39 24 -8z"/>
<path d="M310 3005 c-7 -14 -11 -28 -8 -31 9 -9 59 27 55 40 -7 21 -33 17 -47
-9z"/>
<path d="M150 2992 c0 -10 22 -32 32 -32 4 0 8 9 8 20 0 13 -7 20 -20 20 -11
0 -20 -4 -20 -8z"/>
<path d="M260 2911 c0 -6 7 -11 15 -11 18 0 22 -76 4 -82 -19 -6 0 -50 19 -46
14 3 17 16 17 73 0 69 0 70 -27 73 -16 2 -28 -1 -28 -7z"/>
<path d="M180 2845 c0 -37 4 -65 10 -65 6 0 10 15 10 33 0 51 11 77 31 77 11
0 19 5 19 10 0 6 -16 10 -35 10 l-35 0 0 -65z"/>
<path d="M275 2650 c-3 -11 -3 -24 0 -30 4 -6 -6 -10 -24 -10 -22 0 -29 4 -25
14 3 8 -4 19 -16 26 -27 15 -35 8 -21 -18 15 -29 14 -32 -14 -32 -14 0 -25 -4
-25 -10 0 -5 14 -10 30 -10 28 0 30 -2 30 -39 l0 -40 -55 -6 c-30 -4 -55 -11
-55 -15 0 -15 29 -19 62 -9 18 5 81 12 141 16 59 3 107 9 107 13 0 15 -33 20
-83 14 l-50 -7 6 33 c4 18 7 36 7 40 0 4 11 11 25 14 34 9 32 26 -2 26 -24 1
-25 2 -10 11 9 5 17 17 17 24 0 22 -38 18 -45 -5z m-15 -99 c0 -25 -5 -41 -15
-45 -17 -6 -18 5 -9 53 9 44 24 39 24 -8z"/>
<path d="M310 2555 c-7 -14 -11 -28 -8 -31 9 -9 59 27 55 40 -7 21 -33 17 -47
-9z"/>
<path d="M150 2542 c0 -10 22 -32 32 -32 4 0 8 9 8 20 0 13 -7 20 -20 20 -11
0 -20 -4 -20 -8z"/>
<path d="M260 2461 c0 -6 7 -11 15 -11 28 0 15 -27 -16 -34 -45 -9 -49 -8 -49
9 0 8 9 15 20 15 11 0 20 5 20 10 0 6 -16 10 -35 10 l-35 0 0 -65 c0 -37 4
-65 10 -65 6 0 10 14 10 30 0 19 5 30 14 30 7 0 28 3 45 6 24 5 31 3 31 -9 0
-8 -5 -17 -11 -19 -19 -6 0 -50 19 -46 14 3 17 16 17 73 0 69 0 70 -27 73 -16
2 -28 -1 -28 -7z"/>
<path d="M275 2200 c-3 -11 -3 -24 0 -30 4 -6 -6 -10 -24 -10 -22 0 -29 4 -25
14 3 8 -4 19 -16 26 -27 15 -35 8 -21 -18 15 -29 14 -32 -14 -32 -14 0 -25 -4
-25 -10 0 -5 14 -10 30 -10 28 0 30 -2 30 -39 l0 -40 -55 -6 c-30 -4 -55 -11
-55 -15 0 -15 29 -19 62 -9 18 5 81 12 141 16 59 3 107 9 107 13 0 15 -33 20
-83 14 l-50 -7 6 33 c4 18 7 36 7 40 0 4 11 11 25 14 34 9 32 26 -2 26 -24 1
-25 2 -10 11 9 5 17 17 17 24 0 22 -38 18 -45 -5z m-15 -99 c0 -25 -5 -41 -15
-45 -17 -6 -18 5 -9 53 9 44 24 39 24 -8z"/>
<path d="M310 2105 c-7 -14 -11 -28 -8 -31 9 -9 59 27 55 40 -7 21 -33 17 -47
-9z"/>
<path d="M150 2092 c0 -10 22 -32 32 -32 4 0 8 9 8 20 0 13 -7 20 -20 20 -11
0 -20 -4 -20 -8z"/>
<path d="M260 2011 c0 -6 7 -11 15 -11 28 0 15 -27 -16 -34 -45 -9 -49 -8 -49
9 0 8 9 15 20 15 11 0 20 5 20 10 0 6 -16 10 -35 10 l-35 0 0 -66 c0 -56 2
-65 16 -60 47 18 67 18 80 1 8 -10 20 -15 29 -11 13 5 15 19 13 73 -3 66 -4
68 -30 71 -16 2 -28 -1 -28 -7z m30 -76 c0 -9 -9 -15 -22 -15 -13 0 -33 -3
-45 -6 -17 -5 -23 -2 -23 9 0 14 19 21 73 26 9 0 17 -6 17 -14z"/>
</g>
</svg>
