<?xml version="1.0" standalone="no"?>
<!DOCTYPE svg PUBLIC "-//W3C//DTD SVG 20010904//EN"
 "http://www.w3.org/TR/2001/REC-SVG-20010904/DTD/svg10.dtd">
<svg version="1.0" xmlns="http://www.w3.org/2000/svg"
 width="50.000000pt" height="725.000000pt" viewBox="0 0 50.000000 725.000000"
 preserveAspectRatio="xMidYMid meet">
<metadata>
Created by potrace 1.16, written by Peter Selinger 2001-2019
</metadata>
<g transform="translate(0.000000,725.000000) scale(0.100000,-0.100000)"
fill="#000000" stroke="none">
<path d="M178 7133 c-34 -5 -37 -23 -4 -23 38 0 86 12 86 21 0 9 -31 10 -82 2z"/>
<path d="M178 6683 c-34 -5 -37 -23 -4 -23 38 0 86 12 86 21 0 9 -31 10 -82 2z"/>
<path d="M124 6624 c3 -9 9 -27 12 -40 8 -31 24 -31 24 0 0 35 -10 56 -27 56
-10 0 -13 -6 -9 -16z"/>
<path d="M178 6233 c-34 -5 -37 -23 -4 -23 38 0 86 12 86 21 0 9 -31 10 -82 2z"/>
<path d="M203 6203 c-33 -6 -28 -25 5 -21 25 3 27 1 24 -31 -5 -42 18 -39 30
5 14 51 3 59 -59 47z"/>
<path d="M124 6174 c3 -9 9 -27 12 -40 10 -38 24 -28 24 16 0 34 -3 40 -21 40
-15 0 -19 -4 -15 -16z"/>
<path d="M178 5783 c-34 -5 -37 -23 -4 -23 38 0 86 12 86 21 0 9 -31 10 -82 2z"/>
<path d="M203 5753 c-13 -2 -23 -9 -23 -15 0 -6 11 -8 25 -6 23 5 25 2 25 -29
0 -42 20 -40 32 3 14 51 3 59 -59 47z"/>
<path d="M124 5724 c3 -9 9 -27 12 -40 10 -38 24 -28 24 16 0 34 -3 40 -21 40
-15 0 -19 -4 -15 -16z"/>
<path d="M180 5710 c0 -5 9 -10 20 -10 11 0 20 5 20 10 0 6 -9 10 -20 10 -11
0 -20 -4 -20 -10z"/>
<path d="M178 5333 c-34 -5 -37 -23 -4 -23 38 0 86 12 86 21 0 9 -31 10 -82 2z"/>
<path d="M203 5303 c-13 -2 -23 -9 -23 -15 0 -6 11 -8 25 -6 21 4 25 1 25 -18
0 -21 -5 -24 -35 -24 -31 0 -35 3 -35 25 0 19 -5 25 -21 25 -15 0 -19 -4 -15
-16 3 -9 9 -26 12 -38 5 -21 10 -23 57 -18 62 5 65 8 69 52 3 37 -8 43 -59 33z"/>
<path d="M180 5260 c0 -5 9 -10 20 -10 11 0 20 5 20 10 0 6 -9 10 -20 10 -11
0 -20 -4 -20 -10z"/>
<path d="M178 4883 c-34 -5 -37 -23 -4 -23 38 0 86 12 86 21 0 9 -31 10 -82 2z"/>
<path d="M203 4853 c-13 -2 -23 -9 -23 -15 0 -6 11 -8 25 -6 21 4 25 1 25 -18
0 -21 -5 -24 -35 -24 -31 0 -35 3 -35 25 0 19 -5 25 -21 25 -15 0 -19 -4 -15
-16 3 -9 9 -26 12 -38 5 -21 11 -23 57 -20 45 3 43 2 -20 -9 -70 -13 -92 -21
-81 -32 3 -3 40 1 84 8 86 15 80 8 87 97 2 26 -14 32 -60 23z"/>
<path d="M180 4810 c0 -5 9 -10 20 -10 11 0 20 5 20 10 0 6 -9 10 -20 10 -11
0 -20 -4 -20 -10z"/>
<path d="M180 4455 c0 -16 -6 -25 -15 -25 -8 0 -15 -4 -15 -10 0 -5 7 -10 15
-10 10 0 15 -11 15 -35 0 -19 -4 -35 -10 -35 -5 0 -10 11 -10 25 0 19 -5 25
-21 25 -15 0 -19 -4 -15 -16 3 -9 9 -27 12 -40 5 -19 11 -23 26 -18 14 4 18 2
14 -5 -4 -6 -18 -11 -31 -11 -31 0 -55 -10 -55 -22 0 -6 16 -7 39 -3 33 5 39
4 44 -14 7 -29 27 -26 27 3 0 19 6 25 27 28 22 2 28 9 31 33 9 80 9 80 -20 80
-14 -1 -24 3 -22 7 3 4 14 8 25 8 10 0 19 5 19 10 0 6 -11 10 -24 10 -15 0
-26 7 -29 20 -7 28 -27 25 -27 -5z m50 -90 c0 -14 -4 -25 -8 -25 -7 0 -8 31
-3 48 4 11 11 -3 11 -23z m3 -52 c-7 -2 -19 -2 -25 0 -7 3 -2 5 12 5 14 0 19
-2 13 -5z"/>
<path d="M180 4005 c0 -16 -6 -25 -15 -25 -8 0 -15 -4 -15 -10 0 -5 7 -10 15
-10 10 0 15 -11 15 -35 0 -19 -4 -35 -10 -35 -5 0 -10 11 -10 25 0 19 -5 25
-21 25 -15 0 -19 -4 -15 -16 3 -9 9 -27 12 -40 5 -19 11 -23 26 -18 14 4 18 2
14 -5 -4 -6 -18 -11 -31 -11 -31 0 -55 -10 -55 -22 0 -6 16 -7 39 -3 33 5 39
4 44 -14 7 -29 27 -26 27 3 0 19 6 25 27 28 22 2 28 9 31 33 9 80 9 80 -20 80
-14 -1 -24 3 -22 7 3 4 14 8 25 8 10 0 19 5 19 10 0 6 -11 10 -24 10 -15 0
-26 7 -29 20 -7 28 -27 25 -27 -5z m50 -90 c0 -14 -4 -25 -8 -25 -7 0 -8 31
-3 48 4 11 11 -3 11 -23z m3 -52 c-7 -2 -19 -2 -25 0 -7 3 -2 5 12 5 14 0 19
-2 13 -5z"/>
<path d="M330 3985 c-13 -14 -21 -27 -18 -30 9 -10 79 26 75 38 -7 22 -32 18
-57 -8z"/>
<path d="M180 3555 c0 -16 -6 -25 -15 -25 -8 0 -15 -4 -15 -10 0 -5 7 -10 15
-10 10 0 15 -11 15 -35 0 -19 -4 -35 -10 -35 -5 0 -10 11 -10 25 0 19 -5 25
-21 25 -15 0 -19 -4 -15 -16 3 -9 9 -27 12 -40 5 -19 11 -23 26 -18 14 4 18 2
14 -5 -4 -6 -18 -11 -31 -11 -31 0 -55 -10 -55 -22 0 -6 16 -7 39 -3 33 5 39
4 44 -14 7 -29 27 -26 27 3 0 19 6 25 27 28 22 2 28 9 31 33 9 80 9 80 -20 80
-14 -1 -24 3 -22 7 3 4 14 8 25 8 10 0 19 5 19 10 0 6 -11 10 -24 10 -15 0
-26 7 -29 20 -7 28 -27 25 -27 -5z m50 -90 c0 -14 -4 -25 -8 -25 -7 0 -8 31
-3 48 4 11 11 -3 11 -23z m3 -52 c-7 -2 -19 -2 -25 0 -7 3 -2 5 12 5 14 0 19
-2 13 -5z"/>
<path d="M330 3535 c-13 -14 -29 -25 -37 -25 -9 0 -13 -14 -13 -40 0 -23 -7
-55 -16 -71 -8 -17 -13 -34 -9 -37 13 -14 45 41 51 88 6 45 9 50 46 65 22 9
38 21 35 28 -7 22 -32 18 -57 -8z"/>
<path d="M180 3105 c0 -16 -6 -25 -15 -25 -8 0 -15 -4 -15 -10 0 -5 7 -10 15
-10 10 0 15 -11 15 -35 0 -19 -4 -35 -10 -35 -5 0 -10 11 -10 25 0 19 -5 25
-21 25 -15 0 -19 -4 -15 -16 3 -9 9 -27 12 -40 5 -19 11 -23 26 -18 14 4 18 2
14 -5 -4 -6 -18 -11 -31 -11 -31 0 -55 -10 -55 -22 0 -6 16 -7 39 -3 33 5 39
4 44 -14 7 -29 27 -26 27 3 0 19 6 25 27 28 22 2 28 9 31 33 9 80 9 80 -20 80
-14 -1 -24 3 -22 7 3 4 14 8 25 8 10 0 19 5 19 10 0 6 -11 10 -24 10 -15 0
-26 7 -29 20 -7 28 -27 25 -27 -5z m50 -90 c0 -14 -4 -25 -8 -25 -7 0 -8 31
-3 48 4 11 11 -3 11 -23z m3 -52 c-7 -2 -19 -2 -25 0 -7 3 -2 5 12 5 14 0 19
-2 13 -5z"/>
<path d="M330 3085 c-13 -14 -29 -25 -37 -25 -9 0 -13 -14 -13 -40 0 -23 -7
-55 -16 -71 -8 -17 -13 -34 -9 -37 9 -10 45 37 45 58 0 13 14 20 60 29 67 13
86 38 21 27 -22 -3 -46 -9 -55 -12 -11 -4 -16 0 -16 14 0 14 12 25 41 36 23 9
39 22 36 29 -7 22 -32 18 -57 -8z"/>
<path d="M180 2655 c0 -16 -6 -25 -15 -25 -8 0 -15 -4 -15 -10 0 -5 7 -10 15
-10 10 0 15 -11 15 -35 0 -19 -4 -35 -10 -35 -5 0 -10 11 -10 25 0 19 -5 25
-21 25 -15 0 -19 -4 -15 -16 3 -9 9 -27 12 -40 5 -19 11 -23 26 -18 14 4 18 2
14 -5 -4 -6 -18 -11 -31 -11 -31 0 -55 -10 -55 -22 0 -6 16 -7 39 -3 33 5 39
4 44 -14 7 -29 27 -26 27 3 0 19 6 25 27 28 22 2 28 9 31 33 9 80 9 80 -20 80
-14 -1 -24 3 -22 7 3 4 14 8 25 8 10 0 19 5 19 10 0 6 -11 10 -24 10 -15 0
-26 7 -29 20 -7 28 -27 25 -27 -5z m50 -90 c0 -14 -4 -25 -8 -25 -7 0 -8 31
-3 48 4 11 11 -3 11 -23z m3 -52 c-7 -2 -19 -2 -25 0 -7 3 -2 5 12 5 14 0 19
-2 13 -5z"/>
<path d="M330 2635 c-13 -14 -29 -25 -37 -25 -9 0 -13 -14 -13 -40 0 -23 -7
-55 -16 -71 -8 -17 -13 -34 -9 -37 9 -10 45 37 45 58 0 11 10 19 25 22 24 5
25 3 25 -44 0 -66 24 -60 28 6 3 38 7 49 23 53 10 3 19 10 19 15 0 10 -60 5
-94 -8 -11 -4 -16 0 -16 14 0 14 12 25 41 36 23 9 39 22 36 29 -7 22 -32 18
-57 -8z"/>
<path d="M180 2205 c0 -16 -6 -25 -15 -25 -8 0 -15 -4 -15 -10 0 -5 7 -10 15
-10 10 0 15 -11 15 -35 0 -19 -4 -35 -10 -35 -5 0 -10 11 -10 25 0 19 -5 25
-21 25 -15 0 -19 -4 -15 -16 3 -9 9 -27 12 -40 5 -19 11 -23 26 -18 14 4 18 2
14 -5 -4 -6 -18 -11 -31 -11 -31 0 -55 -10 -55 -22 0 -6 16 -7 40 -3 33 6 40
4 40 -9 0 -9 7 -19 15 -22 11 -5 15 -22 15 -65 0 -59 12 -78 24 -36 12 45 7
107 -9 107 -8 0 -15 9 -15 19 0 14 8 21 27 23 22 2 28 9 31 33 9 80 9 80 -20
80 -14 -1 -24 3 -22 7 3 4 14 8 25 8 10 0 19 5 19 10 0 6 -11 10 -24 10 -15 0
-26 7 -29 20 -7 28 -27 25 -27 -5z m50 -90 c0 -14 -4 -25 -8 -25 -7 0 -8 31
-3 48 4 11 11 -3 11 -23z m3 -52 c-7 -2 -19 -2 -25 0 -7 3 -2 5 12 5 14 0 19
-2 13 -5z"/>
<path d="M330 2185 c-13 -14 -29 -25 -37 -25 -9 0 -13 -14 -13 -40 0 -23 -7
-55 -16 -71 -8 -17 -13 -34 -9 -37 9 -10 45 37 45 58 0 11 10 19 25 22 24 5
25 3 25 -44 0 -66 24 -60 28 6 3 38 7 49 23 53 10 3 19 10 19 15 0 10 -60 5
-94 -8 -11 -4 -16 0 -16 14 0 14 12 25 41 36 23 9 39 22 36 29 -7 22 -32 18
-57 -8z"/>
<path d="M180 1755 c0 -16 -6 -25 -15 -25 -8 0 -15 -4 -15 -10 0 -5 7 -10 15
-10 10 0 15 -11 15 -35 0 -19 -4 -35 -10 -35 -5 0 -10 11 -10 25 0 19 -5 25
-21 25 -15 0 -19 -4 -15 -16 3 -9 9 -27 12 -40 5 -19 11 -23 26 -18 14 4 18 2
14 -5 -4 -6 -18 -11 -31 -11 -31 0 -55 -10 -55 -22 0 -6 16 -7 40 -3 33 6 40
4 40 -9 0 -9 7 -19 15 -22 11 -5 15 -22 15 -65 0 -59 12 -78 24 -36 3 12 6 36
6 53 0 29 4 32 36 39 50 9 60 -4 46 -54 -13 -41 -7 -74 12 -68 6 2 12 34 14
76 l3 73 -71 -7 c-66 -7 -70 -6 -70 13 0 15 8 22 27 24 22 2 28 9 31 33 9 80
9 80 -20 80 -14 -1 -24 3 -22 7 3 4 14 8 25 8 10 0 19 5 19 10 0 6 -11 10 -24
10 -15 0 -26 7 -29 20 -7 28 -27 25 -27 -5z m50 -90 c0 -14 -4 -25 -8 -25 -7
0 -8 31 -3 48 4 11 11 -3 11 -23z m3 -52 c-7 -2 -19 -2 -25 0 -7 3 -2 5 12 5
14 0 19 -2 13 -5z"/>
<path d="M330 1735 c-13 -14 -29 -25 -37 -25 -9 0 -13 -14 -13 -40 0 -23 -7
-55 -16 -71 -8 -17 -13 -34 -9 -37 9 -10 45 37 45 58 0 11 10 19 25 22 24 5
25 3 25 -44 0 -66 24 -60 28 6 3 38 7 49 23 53 10 3 19 10 19 15 0 10 -60 5
-94 -8 -11 -4 -16 0 -16 14 0 14 12 25 41 36 23 9 39 22 36 29 -7 22 -32 18
-57 -8z"/>
<path d="M180 1305 c0 -16 -6 -25 -15 -25 -8 0 -15 -4 -15 -10 0 -5 7 -10 15
-10 10 0 15 -11 15 -35 0 -19 -4 -35 -10 -35 -5 0 -10 11 -10 25 0 19 -5 25
-21 25 -15 0 -19 -4 -15 -16 3 -9 9 -27 12 -40 5 -19 11 -23 26 -18 14 4 18 2
14 -5 -4 -6 -18 -11 -31 -11 -31 0 -55 -10 -55 -22 0 -6 16 -7 40 -3 33 6 40
4 40 -9 0 -9 7 -19 15 -22 11 -5 15 -22 15 -65 0 -62 13 -78 25 -32 8 33 21
43 58 43 26 0 28 -3 23 -27 -7 -32 6 -59 23 -49 6 4 11 37 11 78 l0 70 -70 -7
c-66 -7 -70 -6 -70 13 0 15 8 22 27 24 22 2 28 9 31 33 9 80 9 80 -20 80 -14
-1 -24 3 -22 7 3 4 14 8 25 8 10 0 19 5 19 10 0 6 -11 10 -24 10 -15 0 -26 7
-29 20 -7 28 -27 25 -27 -5z m50 -90 c0 -14 -4 -25 -8 -25 -7 0 -8 31 -3 48 4
11 11 -3 11 -23z m3 -52 c-7 -2 -19 -2 -25 0 -7 3 -2 5 12 5 14 0 19 -2 13 -5z
m82 -84 c9 -14 7 -15 -42 -22 -32 -4 -43 -2 -43 8 0 20 74 33 85 14z"/>
<path d="M330 1285 c-13 -14 -29 -25 -37 -25 -9 0 -13 -14 -13 -40 0 -23 -7
-55 -16 -71 -8 -17 -13 -34 -9 -37 9 -10 45 37 45 58 0 11 10 19 25 22 24 5
25 3 25 -44 0 -66 24 -60 28 6 3 38 7 49 23 53 10 3 19 10 19 15 0 10 -60 5
-94 -8 -11 -4 -16 0 -16 14 0 14 12 25 41 36 23 9 39 22 36 29 -7 22 -32 18
-57 -8z"/>
<path d="M180 855 c0 -16 -6 -25 -15 -25 -8 0 -15 -4 -15 -10 0 -5 7 -10 15
-10 10 0 15 -11 15 -35 0 -19 -4 -35 -10 -35 -5 0 -10 11 -10 25 0 19 -5 25
-21 25 -15 0 -19 -4 -15 -16 3 -9 9 -27 12 -40 5 -19 11 -23 26 -18 14 4 18 2
14 -5 -4 -6 -18 -11 -31 -11 -31 0 -55 -10 -55 -22 0 -6 16 -7 40 -3 33 6 40
4 40 -9 0 -9 7 -19 15 -22 11 -5 15 -22 15 -65 0 -54 10 -74 25 -49 10 17 73
12 83 -6 18 -33 32 -3 32 68 l0 70 -70 -7 c-66 -7 -70 -6 -70 13 0 15 8 22 27
24 22 2 28 9 31 33 9 80 9 80 -20 80 -14 -1 -24 3 -22 7 3 4 14 8 25 8 10 0
19 5 19 10 0 6 -11 10 -24 10 -15 0 -26 7 -29 20 -7 28 -27 25 -27 -5z m50
-90 c0 -14 -4 -25 -8 -25 -7 0 -8 31 -3 48 4 11 11 -3 11 -23z m3 -52 c-7 -2
-19 -2 -25 0 -7 3 -2 5 12 5 14 0 19 -2 13 -5z m82 -84 c9 -14 7 -15 -42 -22
-32 -4 -43 -2 -43 8 0 20 74 33 85 14z m-5 -54 c0 -11 -11 -15 -40 -15 -62 0
-50 27 13 29 18 1 27 -4 27 -14z"/>
<path d="M330 835 c-13 -14 -29 -25 -37 -25 -9 0 -13 -14 -13 -40 0 -23 -7
-55 -16 -71 -8 -17 -13 -34 -9 -37 9 -10 45 37 45 58 0 11 10 19 25 22 24 5
25 3 25 -44 0 -66 24 -60 28 6 3 38 7 49 23 53 10 3 19 10 19 15 0 10 -60 5
-94 -8 -11 -4 -16 0 -16 14 0 14 12 25 41 36 23 9 39 22 36 29 -7 22 -32 18
-57 -8z"/>
</g>
</svg>
