<?xml version="1.0" standalone="no"?>
<!DOCTYPE svg PUBLIC "-//W3C//DTD SVG 20010904//EN"
 "http://www.w3.org/TR/2001/REC-SVG-20010904/DTD/svg10.dtd">
<svg version="1.0" xmlns="http://www.w3.org/2000/svg"
 width="50.000000pt" height="725.000000pt" viewBox="0 0 50.000000 725.000000"
 preserveAspectRatio="xMidYMid meet">
<metadata>
Created by potrace 1.16, written by Peter Selinger 2001-2019
</metadata>
<g transform="translate(0.000000,725.000000) scale(0.100000,-0.100000)"
fill="#000000" stroke="none">
<path d="M160 7154 c0 -18 25 -74 33 -74 4 0 7 17 5 37 -2 27 -8 39 -20 41
-10 2 -18 0 -18 -4z"/>
<path d="M163 6690 c4 -16 0 -20 -20 -20 -15 0 -23 -5 -20 -12 2 -7 16 -12 31
-10 14 1 26 -2 26 -8 0 -19 18 -10 23 12 7 27 -9 58 -30 58 -10 0 -14 -6 -10
-20z"/>
<path d="M163 6240 c4 -16 0 -20 -20 -20 -15 0 -23 -5 -20 -12 2 -7 16 -12 31
-10 14 1 26 -2 26 -8 0 -19 18 -10 23 12 7 27 -9 58 -30 58 -10 0 -14 -6 -10
-20z"/>
<path d="M293 6238 c-24 -5 -43 -14 -43 -20 0 -6 10 -8 23 -4 12 3 37 6 55 6
22 0 32 4 30 12 -6 16 -16 17 -65 6z"/>
<path d="M290 5804 c0 -9 -9 -18 -20 -21 -11 -3 -20 -9 -20 -13 0 -12 44 -20
54 -10 6 6 21 10 34 10 15 0 22 5 19 13 -2 6 -12 11 -21 11 -9 -1 -16 4 -16
12 0 8 -7 14 -15 14 -8 0 -15 -7 -15 -16z"/>
<path d="M163 5790 c4 -16 0 -20 -20 -20 -15 0 -23 -5 -20 -12 2 -7 16 -12 31
-10 14 1 26 -2 26 -8 0 -19 18 -10 23 12 7 27 -9 58 -30 58 -10 0 -14 -6 -10
-20z"/>
<path d="M290 5354 c0 -9 -9 -18 -20 -21 -11 -3 -20 -9 -20 -13 0 -12 44 -20
54 -10 6 6 21 10 34 10 15 0 22 5 19 13 -2 6 -12 11 -21 11 -9 -1 -16 4 -16
12 0 8 -7 14 -15 14 -8 0 -15 -7 -15 -16z"/>
<path d="M163 5340 c4 -16 0 -20 -20 -20 -15 0 -23 -5 -20 -12 2 -7 16 -12 31
-10 14 1 26 -2 26 -8 0 -19 18 -10 23 12 7 27 -9 58 -30 58 -10 0 -14 -6 -10
-20z"/>
<path d="M164 5239 c3 -17 6 -35 6 -40 0 -5 5 -9 10 -9 6 0 10 18 10 40 0 30
-4 40 -16 40 -13 0 -15 -7 -10 -31z"/>
<path d="M290 4904 c0 -9 -9 -18 -20 -21 -11 -3 -20 -9 -20 -13 0 -12 44 -20
54 -10 6 6 21 10 34 10 15 0 22 5 19 13 -2 6 -12 11 -21 11 -9 -1 -16 4 -16
12 0 8 -7 14 -15 14 -8 0 -15 -7 -15 -16z"/>
<path d="M163 4890 c4 -16 0 -20 -20 -20 -15 0 -23 -5 -20 -12 2 -7 16 -12 31
-10 14 1 26 -2 26 -8 0 -19 18 -10 23 12 7 27 -9 58 -30 58 -10 0 -14 -6 -10
-20z"/>
<path d="M270 4830 c0 -5 5 -10 10 -10 6 0 8 -16 4 -41 -9 -53 12 -50 34 5 13
32 13 39 1 47 -19 12 -49 11 -49 -1z"/>
<path d="M210 4820 c0 -5 11 -10 25 -10 14 0 25 5 25 10 0 6 -11 10 -25 10
-14 0 -25 -4 -25 -10z"/>
<path d="M164 4789 c3 -17 6 -35 6 -40 0 -5 5 -9 10 -9 6 0 10 18 10 40 0 30
-4 40 -16 40 -13 0 -15 -7 -10 -31z"/>
<path d="M290 4454 c0 -9 -9 -18 -20 -21 -11 -3 -20 -9 -20 -13 0 -12 44 -20
54 -10 6 6 21 10 34 10 15 0 22 5 19 13 -2 6 -12 11 -21 11 -9 -1 -16 4 -16
12 0 8 -7 14 -15 14 -8 0 -15 -7 -15 -16z"/>
<path d="M163 4440 c4 -16 0 -20 -20 -20 -15 0 -23 -5 -20 -12 2 -7 16 -12 31
-10 14 1 26 -2 26 -8 0 -19 18 -10 23 12 7 27 -9 58 -30 58 -10 0 -14 -6 -10
-20z"/>
<path d="M270 4380 c0 -5 5 -10 10 -10 6 0 10 -4 10 -10 0 -5 -18 -10 -40 -10
-22 0 -40 -4 -40 -10 0 -5 16 -10 35 -10 29 0 35 -4 35 -21 0 -31 21 -18 38
25 13 32 13 39 1 47 -19 12 -49 11 -49 -1z"/>
<path d="M210 4370 c0 -5 11 -10 25 -10 14 0 25 5 25 10 0 6 -11 10 -25 10
-14 0 -25 -4 -25 -10z"/>
<path d="M164 4339 c3 -17 6 -35 6 -40 0 -5 5 -9 10 -9 6 0 10 18 10 40 0 30
-4 40 -16 40 -13 0 -15 -7 -10 -31z"/>
<path d="M290 4004 c0 -9 -9 -18 -20 -21 -11 -3 -20 -9 -20 -13 0 -12 44 -20
54 -10 6 6 21 10 34 10 15 0 22 5 19 13 -2 6 -12 11 -21 11 -9 -1 -16 4 -16
12 0 8 -7 14 -15 14 -8 0 -15 -7 -15 -16z"/>
<path d="M163 3990 c4 -16 0 -20 -20 -20 -15 0 -23 -5 -20 -12 2 -7 16 -12 31
-10 14 1 26 -2 26 -8 0 -19 18 -10 23 12 7 27 -9 58 -30 58 -10 0 -14 -6 -10
-20z"/>
<path d="M270 3930 c0 -5 5 -10 10 -10 6 0 10 -4 10 -10 0 -5 -18 -10 -40 -10
-51 0 -53 -20 -2 -21 37 -1 37 -1 7 -9 -57 -15 -65 -12 -65 20 0 21 -5 30 -16
30 -13 0 -15 -7 -10 -31 3 -17 6 -36 6 -40 0 -5 30 -8 66 -6 67 4 67 4 82 41
13 32 13 39 1 47 -19 12 -49 11 -49 -1z"/>
<path d="M210 3920 c0 -5 11 -10 25 -10 14 0 25 5 25 10 0 6 -11 10 -25 10
-14 0 -25 -4 -25 -10z"/>
<path d="M290 3554 c0 -9 -9 -18 -20 -21 -11 -3 -20 -9 -20 -13 0 -12 44 -20
54 -10 6 6 21 10 34 10 15 0 22 5 19 13 -2 6 -12 11 -21 11 -9 -1 -16 4 -16
12 0 8 -7 14 -15 14 -8 0 -15 -7 -15 -16z"/>
<path d="M163 3540 c4 -16 0 -20 -20 -20 -15 0 -23 -5 -20 -12 2 -7 16 -12 31
-10 14 1 26 -2 26 -8 0 -19 18 -10 23 12 7 27 -9 58 -30 58 -10 0 -14 -6 -10
-20z"/>
<path d="M270 3480 c0 -5 5 -10 10 -10 6 0 10 -4 10 -10 0 -5 -18 -10 -40 -10
-51 0 -53 -20 -2 -21 37 -1 37 -1 7 -9 -57 -15 -65 -12 -65 20 0 21 -5 30 -16
30 -13 0 -15 -7 -10 -31 3 -17 6 -36 6 -40 0 -5 30 -8 66 -6 67 4 67 4 82 41
13 32 13 39 1 47 -19 12 -49 11 -49 -1z"/>
<path d="M210 3470 c0 -5 11 -10 25 -10 14 0 25 5 25 10 0 6 -11 10 -25 10
-14 0 -25 -4 -25 -10z"/>
<path d="M283 3383 c-80 -6 -63 -23 22 -23 41 0 75 4 75 9 0 9 -26 22 -38 19
-4 -1 -31 -3 -59 -5z"/>
<path d="M100 3361 c0 -17 17 -21 64 -15 63 9 58 24 -9 24 -30 0 -55 -4 -55
-9z"/>
<path d="M290 3104 c0 -9 -9 -18 -20 -21 -11 -3 -20 -9 -20 -13 0 -12 44 -20
54 -10 6 6 21 10 34 10 15 0 22 5 19 13 -2 6 -12 11 -21 11 -9 -1 -16 4 -16
12 0 8 -7 14 -15 14 -8 0 -15 -7 -15 -16z"/>
<path d="M163 3090 c4 -16 0 -20 -20 -20 -15 0 -23 -5 -20 -12 2 -7 16 -12 31
-10 14 1 26 -2 26 -8 0 -19 18 -10 23 12 7 27 -9 58 -30 58 -10 0 -14 -6 -10
-20z"/>
<path d="M270 3030 c0 -5 5 -10 10 -10 6 0 10 -4 10 -10 0 -5 -18 -10 -40 -10
-51 0 -53 -20 -2 -21 37 -1 37 -1 7 -9 -57 -15 -65 -12 -65 20 0 21 -5 30 -16
30 -13 0 -15 -7 -10 -31 3 -17 6 -35 6 -40 0 -5 7 -9 15 -9 8 0 15 -4 15 -10
0 -5 -23 -10 -51 -10 -36 0 -49 -4 -46 -12 2 -8 19 -12 43 -11 l39 3 -30 -25
c-16 -13 -38 -27 -47 -30 -19 -7 -25 -25 -8 -25 20 0 65 28 94 59 28 29 34 31
108 31 43 0 78 4 78 9 0 15 -22 18 -82 13 -41 -3 -58 -1 -58 7 0 8 12 11 31 9
28 -3 33 1 46 36 14 32 14 39 2 47 -19 12 -49 11 -49 -1z"/>
<path d="M210 3020 c0 -5 11 -10 25 -10 14 0 25 5 25 10 0 6 -11 10 -25 10
-14 0 -25 -4 -25 -10z"/>
<path d="M290 2654 c0 -9 -9 -18 -20 -21 -11 -3 -20 -9 -20 -13 0 -12 44 -20
54 -10 6 6 21 10 34 10 15 0 22 5 19 13 -2 6 -12 11 -21 11 -9 -1 -16 4 -16
12 0 8 -7 14 -15 14 -8 0 -15 -7 -15 -16z"/>
<path d="M163 2640 c4 -16 0 -20 -20 -20 -15 0 -23 -5 -20 -12 2 -7 16 -12 31
-10 14 1 26 -2 26 -8 0 -19 18 -10 23 12 7 27 -9 58 -30 58 -10 0 -14 -6 -10
-20z"/>
<path d="M270 2580 c0 -5 5 -10 10 -10 6 0 10 -4 10 -10 0 -5 -18 -10 -40 -10
-51 0 -53 -20 -2 -21 37 -1 37 -1 7 -9 -57 -15 -65 -12 -65 20 0 21 -5 30 -16
30 -13 0 -15 -7 -10 -31 3 -17 6 -35 6 -40 0 -5 7 -9 15 -9 8 0 15 -4 15 -10
0 -5 -23 -10 -51 -10 -36 0 -49 -4 -46 -12 2 -8 19 -12 43 -11 l39 3 -30 -25
c-16 -13 -38 -27 -47 -30 -19 -7 -25 -25 -8 -25 20 0 65 28 94 59 17 17 38 31
49 31 11 0 41 -18 67 -40 36 -30 56 -40 84 -40 47 0 46 14 -1 28 -21 7 -49 21
-63 32 l-25 20 38 0 c20 0 37 4 37 9 0 15 -22 18 -82 13 -41 -3 -58 -1 -58 7
0 8 12 11 31 9 28 -3 33 1 46 36 14 32 14 39 2 47 -19 12 -49 11 -49 -1z"/>
<path d="M210 2570 c0 -5 11 -10 25 -10 14 0 25 5 25 10 0 6 -11 10 -25 10
-14 0 -25 -4 -25 -10z"/>
<path d="M290 2204 c0 -9 -9 -18 -20 -21 -11 -3 -20 -9 -20 -13 0 -12 44 -20
54 -10 6 6 21 10 34 10 15 0 22 5 19 13 -2 6 -12 11 -21 11 -9 -1 -16 4 -16
12 0 8 -7 14 -15 14 -8 0 -15 -7 -15 -16z"/>
<path d="M163 2190 c4 -16 0 -20 -20 -20 -15 0 -23 -5 -20 -12 2 -7 16 -12 31
-10 14 1 26 -2 26 -8 0 -19 18 -10 23 12 7 27 -9 58 -30 58 -10 0 -14 -6 -10
-20z"/>
<path d="M270 2130 c0 -5 5 -10 10 -10 6 0 10 -4 10 -10 0 -5 -18 -10 -40 -10
-51 0 -53 -20 -2 -21 37 -1 37 -1 7 -9 -57 -15 -65 -12 -65 20 0 21 -5 30 -16
30 -13 0 -15 -7 -10 -31 3 -17 6 -35 6 -40 0 -5 7 -9 15 -9 8 0 15 -4 15 -10
0 -5 -23 -10 -51 -10 -36 0 -49 -4 -46 -12 2 -8 19 -12 43 -11 l39 3 -30 -25
c-16 -13 -38 -27 -47 -30 -21 -7 -24 -25 -5 -25 6 0 27 9 45 20 l32 20 0 -45
c0 -25 5 -45 11 -45 6 0 9 21 8 54 -4 95 34 111 111 46 36 -30 56 -40 84 -40
47 0 46 14 -1 28 -21 7 -49 21 -63 32 l-25 20 38 0 c20 0 37 4 37 9 0 15 -22
18 -82 13 -41 -3 -58 -1 -58 7 0 8 12 11 31 9 28 -3 33 1 46 36 14 32 14 39 2
47 -19 12 -49 11 -49 -1z"/>
<path d="M210 2120 c0 -5 11 -10 25 -10 14 0 25 5 25 10 0 6 -11 10 -25 10
-14 0 -25 -4 -25 -10z"/>
<path d="M290 1754 c0 -9 -9 -18 -20 -21 -11 -3 -20 -9 -20 -13 0 -12 44 -20
54 -10 6 6 21 10 34 10 15 0 22 5 19 13 -2 6 -12 11 -21 11 -9 -1 -16 4 -16
12 0 8 -7 14 -15 14 -8 0 -15 -7 -15 -16z"/>
<path d="M163 1740 c4 -16 0 -20 -20 -20 -15 0 -23 -5 -20 -12 2 -7 16 -12 31
-10 14 1 26 -2 26 -8 0 -19 18 -10 23 12 7 27 -9 58 -30 58 -10 0 -14 -6 -10
-20z"/>
<path d="M270 1680 c0 -5 5 -10 10 -10 6 0 10 -4 10 -10 0 -5 -18 -10 -40 -10
-51 0 -53 -20 -2 -21 37 -1 37 -1 7 -9 -57 -15 -65 -12 -65 20 0 21 -5 30 -16
30 -13 0 -15 -7 -10 -31 3 -17 6 -35 6 -40 0 -5 7 -9 15 -9 8 0 15 -4 15 -10
0 -5 -23 -10 -51 -10 -36 0 -49 -4 -46 -12 2 -8 19 -12 43 -11 l39 3 -30 -25
c-16 -13 -38 -27 -47 -30 -21 -7 -24 -25 -5 -25 6 0 27 9 45 20 l32 20 0 -45
c0 -25 4 -45 9 -45 12 0 20 93 9 101 -15 10 29 41 54 37 32 -4 29 -22 -4 -26
-38 -4 -36 -22 2 -22 29 0 30 -2 30 -46 0 -62 23 -54 30 10 l5 48 19 -21 c13
-14 31 -21 58 -21 48 0 49 13 1 28 -21 7 -49 21 -63 32 l-25 20 38 0 c20 0 37
4 37 9 0 15 -22 18 -82 13 -41 -3 -58 -1 -58 7 0 8 12 11 31 9 28 -3 33 1 46
36 14 32 14 39 2 47 -19 12 -49 11 -49 -1z"/>
<path d="M210 1670 c0 -5 11 -10 25 -10 14 0 25 5 25 10 0 6 -11 10 -25 10
-14 0 -25 -4 -25 -10z"/>
<path d="M290 1304 c0 -9 -9 -18 -20 -21 -11 -3 -20 -9 -20 -13 0 -12 44 -20
54 -10 6 6 21 10 34 10 15 0 22 5 19 13 -2 6 -12 11 -21 11 -9 -1 -16 4 -16
12 0 8 -7 14 -15 14 -8 0 -15 -7 -15 -16z"/>
<path d="M163 1290 c4 -16 0 -20 -20 -20 -15 0 -23 -5 -20 -12 2 -7 16 -12 31
-10 14 1 26 -2 26 -8 0 -19 18 -10 23 12 7 27 -9 58 -30 58 -10 0 -14 -6 -10
-20z"/>
<path d="M270 1230 c0 -5 5 -10 10 -10 6 0 10 -4 10 -10 0 -5 -18 -10 -40 -10
-51 0 -53 -20 -2 -21 37 -1 37 -1 7 -9 -57 -15 -65 -12 -65 20 0 21 -5 30 -16
30 -13 0 -15 -7 -10 -31 3 -17 6 -35 6 -40 0 -5 7 -9 15 -9 8 0 15 -4 15 -10
0 -5 -23 -10 -51 -10 -36 0 -49 -4 -46 -12 2 -8 19 -12 43 -11 l39 3 -30 -25
c-16 -13 -38 -27 -47 -30 -21 -7 -24 -25 -5 -25 6 0 27 9 45 20 l32 20 0 -45
c0 -25 5 -45 10 -45 6 0 10 11 10 25 0 23 4 25 40 25 36 0 40 -2 40 -26 0 -45
25 -20 30 30 l5 48 19 -21 c13 -14 31 -21 58 -21 48 0 49 13 1 28 -21 7 -49
21 -63 32 l-25 20 38 0 c20 0 37 4 37 9 0 15 -22 18 -82 13 -41 -3 -58 -1 -58
7 0 8 12 11 31 9 28 -3 33 1 46 36 14 32 14 39 2 47 -19 12 -49 11 -49 -1z m1
-135 c0 -5 -12 -11 -26 -13 -35 -5 -31 -22 5 -22 17 0 30 -4 30 -10 0 -5 -18
-10 -40 -10 -31 0 -38 3 -34 15 4 8 1 15 -6 15 -9 0 -7 7 5 20 19 21 66 24 66
5z"/>
<path d="M210 1220 c0 -5 11 -10 25 -10 14 0 25 5 25 10 0 6 -11 10 -25 10
-14 0 -25 -4 -25 -10z"/>
<path d="M290 854 c0 -9 -9 -18 -20 -21 -11 -3 -20 -9 -20 -13 0 -12 44 -20
54 -10 6 6 21 10 34 10 15 0 22 5 19 13 -2 6 -12 11 -21 11 -9 -1 -16 4 -16
12 0 8 -7 14 -15 14 -8 0 -15 -7 -15 -16z"/>
<path d="M163 840 c4 -16 0 -20 -20 -20 -15 0 -23 -5 -20 -12 2 -7 16 -12 31
-10 14 1 26 -2 26 -8 0 -19 18 -10 23 12 7 27 -9 58 -30 58 -10 0 -14 -6 -10
-20z"/>
<path d="M270 780 c0 -5 5 -10 10 -10 6 0 10 -4 10 -10 0 -5 -18 -10 -40 -10
-51 0 -53 -20 -2 -21 37 -1 37 -1 7 -9 -57 -15 -65 -12 -65 20 0 21 -5 30 -16
30 -13 0 -15 -7 -10 -31 3 -17 6 -35 6 -40 0 -5 7 -9 15 -9 8 0 15 -4 15 -10
0 -5 -23 -10 -51 -10 -36 0 -49 -4 -46 -12 2 -8 19 -12 43 -11 l39 3 -30 -25
c-16 -13 -38 -27 -47 -30 -21 -7 -24 -25 -5 -25 6 0 27 9 45 20 l32 20 0 -45
c0 -25 5 -45 10 -45 6 0 10 11 10 25 0 23 4 25 40 25 22 0 40 -4 40 -10 0 -5
-16 -10 -35 -10 -19 0 -35 -4 -35 -9 0 -9 79 -21 93 -14 4 2 7 25 7 50 l0 46
23 -21 c15 -14 36 -22 60 -22 48 0 47 14 0 28 -21 7 -49 21 -63 32 l-25 20 38
0 c20 0 37 4 37 9 0 15 -22 18 -82 13 -41 -3 -58 -1 -58 7 0 8 12 11 31 9 28
-3 33 1 46 36 14 32 14 39 2 47 -19 12 -49 11 -49 -1z m1 -135 c0 -5 -12 -11
-26 -13 -35 -5 -31 -22 5 -22 17 0 30 -4 30 -10 0 -5 -18 -10 -40 -10 -31 0
-38 3 -34 15 4 8 1 15 -6 15 -9 0 -7 7 5 20 19 21 66 24 66 5z"/>
<path d="M210 770 c0 -5 11 -10 25 -10 14 0 25 5 25 10 0 6 -11 10 -25 10 -14
0 -25 -4 -25 -10z"/>
</g>
</svg>
