<?xml version="1.0" standalone="no"?>
<!DOCTYPE svg PUBLIC "-//W3C//DTD SVG 20010904//EN"
 "http://www.w3.org/TR/2001/REC-SVG-20010904/DTD/svg10.dtd">
<svg version="1.0" xmlns="http://www.w3.org/2000/svg"
 width="50.000000pt" height="725.000000pt" viewBox="0 0 50.000000 725.000000"
 preserveAspectRatio="xMidYMid meet">
<metadata>
Created by potrace 1.16, written by Peter Selinger 2001-2019
</metadata>
<g transform="translate(0.000000,725.000000) scale(0.100000,-0.100000)"
fill="#000000" stroke="none">
<path d="M164 7143 c3 -10 8 -30 12 -45 3 -16 10 -28 15 -28 10 0 12 50 3 74
-9 22 -37 21 -30 -1z"/>
<path d="M207 6713 c-39 -3 -47 -7 -43 -21 3 -9 8 -29 12 -44 9 -39 24 -35 24
7 0 23 5 35 14 35 7 0 28 3 45 6 l32 7 -6 -37 c-9 -48 10 -48 30 0 23 56 22
57 -108 47z"/>
<path d="M207 6263 c-39 -3 -47 -7 -43 -21 3 -9 8 -29 12 -44 7 -32 24 -37 24
-8 0 16 7 20 30 20 41 0 38 20 -2 21 l-33 1 30 8 c60 15 64 13 58 -25 -8 -47
12 -46 32 1 23 56 22 57 -108 47z"/>
<path d="M207 5813 c-39 -3 -47 -7 -43 -21 3 -9 8 -30 12 -45 4 -19 11 -26 21
-23 8 3 28 6 44 6 43 0 35 20 -8 22 -37 1 -37 1 -5 5 17 2 32 8 32 14 0 5 -15
10 -32 10 l-33 1 30 8 c60 15 64 13 58 -25 -8 -47 12 -46 32 1 23 56 22 57
-108 47z"/>
<path d="M207 5363 c-39 -3 -47 -7 -43 -21 3 -9 8 -30 12 -45 4 -19 11 -26 21
-23 8 3 28 6 44 6 43 0 35 20 -8 22 -37 1 -37 1 -5 5 17 2 32 8 32 14 0 5 -15
10 -32 10 l-33 1 30 8 c58 15 61 13 60 -30 0 -36 -2 -40 -26 -40 -42 0 -89
-12 -89 -22 0 -9 139 -1 149 8 3 3 0 9 -7 16 -8 8 -7 20 3 46 23 54 21 55
-108 45z"/>
<path d="M207 4913 c-39 -3 -47 -7 -43 -21 3 -9 8 -30 12 -45 4 -19 11 -26 21
-23 8 3 28 6 44 6 43 0 35 20 -8 22 -37 1 -37 1 -5 5 17 2 32 8 32 14 0 5 -15
10 -32 10 l-33 1 30 8 c58 15 61 13 60 -30 0 -36 -2 -40 -26 -40 -42 0 -89
-12 -89 -22 0 -9 139 -1 149 8 3 3 0 9 -7 16 -8 8 -7 20 3 46 23 54 21 55
-108 45z"/>
<path d="M111 4754 c-13 -30 -9 -39 14 -31 15 7 22 57 7 57 -5 0 -14 -12 -21
-26z"/>
<path d="M207 4463 c-39 -3 -47 -7 -43 -21 3 -9 8 -30 12 -45 4 -19 11 -26 21
-23 8 3 28 6 44 6 43 0 35 20 -8 22 -37 1 -37 1 -5 5 17 2 32 8 32 14 0 5 -15
10 -32 10 l-33 1 30 8 c58 15 61 13 60 -30 0 -36 -2 -40 -26 -40 -42 0 -89
-12 -89 -22 0 -9 139 -1 149 8 3 3 0 9 -7 16 -8 8 -7 20 3 46 23 54 21 55
-108 45z"/>
<path d="M310 4330 c0 -5 9 -10 20 -10 14 0 18 -5 13 -17 -5 -14 -1 -15 27 -9
42 8 46 12 30 31 -14 17 -90 21 -90 5z"/>
<path d="M111 4302 c-14 -30 -14 -32 4 -32 7 0 18 7 23 16 6 11 29 18 75 21
94 8 84 25 -12 21 -72 -3 -81 -5 -90 -26z"/>
<path d="M207 4013 c-39 -3 -47 -7 -43 -21 3 -9 8 -30 12 -45 4 -19 11 -26 21
-23 8 3 28 6 44 6 43 0 35 20 -8 22 -37 1 -37 1 -5 5 17 2 32 8 32 14 0 5 -15
10 -32 10 l-33 1 30 8 c58 15 61 13 60 -30 0 -36 -2 -40 -26 -40 -73 0 -124
-29 -56 -31 31 -1 31 -2 -8 -9 -22 -5 -47 -7 -56 -4 -13 4 -39 -31 -39 -51 0
-12 30 -4 37 10 5 7 27 17 51 21 l42 7 0 -38 c0 -44 23 -44 28 1 2 16 9 33 15
37 9 6 9 10 0 14 -24 9 -13 23 17 23 29 0 40 13 20 25 -6 4 -4 19 5 42 23 55
21 56 -108 46z"/>
<path d="M310 3880 c0 -5 9 -10 20 -10 14 0 18 -5 13 -17 -5 -14 -1 -15 27 -9
42 8 46 12 30 31 -14 17 -90 21 -90 5z"/>
<path d="M207 3563 c-39 -3 -47 -7 -43 -21 3 -9 8 -30 12 -45 4 -19 11 -26 21
-23 8 3 28 6 44 6 43 0 35 20 -8 22 -37 1 -37 1 -5 5 17 2 32 8 32 14 0 5 -15
10 -32 10 l-33 1 30 8 c58 15 61 13 60 -30 0 -36 -2 -40 -26 -40 -73 0 -124
-29 -56 -31 31 -1 31 -2 -8 -9 -22 -5 -47 -7 -56 -4 -13 4 -39 -31 -39 -51 0
-13 30 -3 40 13 8 12 13 13 16 5 6 -15 44 -18 44 -4 0 5 -6 12 -12 14 -7 3 -1
6 15 6 25 1 27 -2 27 -35 0 -44 23 -42 28 2 2 16 9 33 15 37 9 6 9 10 0 14
-24 9 -13 23 17 23 29 0 40 13 20 25 -6 4 -4 19 5 42 23 55 21 56 -108 46z"/>
<path d="M310 3430 c0 -5 9 -10 20 -10 14 0 18 -5 13 -17 -5 -14 -1 -15 27 -9
42 8 46 12 30 31 -14 17 -90 21 -90 5z"/>
<path d="M207 3113 c-39 -3 -47 -7 -43 -21 3 -9 8 -30 12 -45 4 -19 11 -26 21
-23 8 3 28 6 44 6 43 0 35 20 -8 22 -37 1 -37 1 -5 5 17 2 32 8 32 14 0 5 -15
10 -32 10 l-33 1 30 8 c58 15 61 13 60 -30 0 -36 -2 -40 -26 -40 -73 0 -124
-29 -56 -31 31 -1 31 -2 -8 -9 -22 -5 -47 -7 -56 -4 -13 4 -39 -31 -39 -51 0
-13 30 -3 40 13 8 12 13 13 16 5 6 -15 44 -18 44 -4 0 5 -6 12 -12 14 -7 3 -1
6 15 6 25 1 27 -2 27 -35 0 -44 23 -42 28 2 2 16 9 33 15 37 9 6 9 10 0 14
-24 9 -13 23 17 23 29 0 40 13 20 25 -6 4 -4 19 5 42 23 55 21 56 -108 46z"/>
<path d="M310 2980 c0 -5 9 -10 20 -10 14 0 18 -5 13 -17 -5 -14 -1 -15 27 -9
42 8 46 12 30 31 -14 17 -90 21 -90 5z"/>
<path d="M158 2913 c-20 -5 -23 -18 -8 -28 10 -6 50 15 50 27 0 8 -14 9 -42 1z"/>
<path d="M207 2663 c-39 -3 -47 -7 -43 -21 3 -9 8 -30 12 -45 4 -19 11 -26 21
-23 8 3 28 6 44 6 43 0 35 20 -8 22 -37 1 -37 1 -5 5 17 2 32 8 32 14 0 5 -15
10 -32 10 l-33 1 30 8 c58 15 61 13 60 -30 0 -36 -2 -40 -26 -40 -73 0 -124
-29 -56 -31 31 -1 31 -2 -8 -9 -22 -5 -47 -7 -56 -4 -13 4 -39 -31 -39 -51 0
-13 30 -3 40 13 8 12 13 13 16 5 6 -15 44 -18 44 -4 0 5 -6 12 -12 14 -7 3 -1
6 15 6 25 1 27 -2 27 -35 0 -44 23 -42 28 2 2 16 9 33 15 37 9 6 9 10 0 14
-24 9 -13 23 17 23 29 0 40 13 20 25 -6 4 -4 19 5 42 23 55 21 56 -108 46z"/>
<path d="M297 2514 c-22 -29 -18 -39 13 -29 13 4 19 12 16 21 -3 8 1 14 9 14
9 0 12 -6 8 -17 -5 -14 -1 -15 27 -9 42 8 46 12 30 31 -21 25 -82 19 -103 -11z"/>
<path d="M158 2463 c-20 -5 -23 -18 -8 -28 10 -6 50 15 50 27 0 8 -14 9 -42 1z"/>
<path d="M207 2213 c-39 -3 -47 -7 -43 -21 3 -9 8 -30 12 -45 4 -19 11 -26 21
-23 8 3 28 6 44 6 43 0 35 20 -8 22 -37 1 -37 1 -5 5 17 2 32 8 32 14 0 5 -15
10 -32 10 l-33 1 30 8 c58 15 61 13 60 -30 0 -36 -2 -40 -26 -40 -73 0 -124
-29 -56 -31 31 -1 31 -2 -8 -9 -22 -5 -47 -7 -56 -4 -13 4 -39 -31 -39 -51 0
-13 30 -3 40 13 8 12 13 13 16 5 6 -15 44 -18 44 -4 0 5 -6 12 -12 14 -7 3 -1
6 15 6 25 1 27 -2 27 -35 0 -44 23 -42 28 2 2 16 9 33 15 37 9 6 9 10 0 14
-24 9 -13 23 17 23 29 0 40 13 20 25 -6 4 -4 19 5 42 23 55 21 56 -108 46z"/>
<path d="M297 2064 c-22 -29 -18 -39 13 -29 13 4 19 12 16 21 -3 8 1 14 9 14
9 0 12 -6 8 -17 -5 -14 -1 -15 27 -9 42 8 46 12 30 31 -21 25 -82 19 -103 -11z"/>
<path d="M158 2013 c-20 -5 -23 -18 -8 -28 10 -6 50 15 50 27 0 8 -14 9 -42 1z"/>
<path d="M290 2011 c0 -5 7 -12 16 -15 22 -9 24 -8 24 9 0 8 -9 15 -20 15 -11
0 -20 -4 -20 -9z"/>
<path d="M207 1763 c-39 -3 -47 -7 -43 -21 3 -9 8 -30 12 -45 4 -19 11 -26 21
-23 8 3 28 6 44 6 43 0 35 20 -8 22 -37 1 -37 1 -5 5 17 2 32 8 32 14 0 5 -15
10 -32 10 l-33 1 30 8 c58 15 61 13 60 -30 0 -36 -2 -40 -26 -40 -73 0 -124
-29 -56 -31 31 -1 31 -2 -8 -9 -22 -5 -47 -7 -56 -4 -13 4 -39 -31 -39 -51 0
-13 30 -3 40 13 8 12 13 13 16 5 6 -15 44 -18 44 -4 0 5 -6 12 -12 14 -7 3 -1
6 15 6 24 1 27 -2 27 -34 0 -24 -5 -35 -15 -35 -8 0 -15 -4 -15 -10 0 -16 90
-12 96 4 3 8 12 12 20 9 8 -3 14 1 14 11 0 20 -27 21 -46 1 -9 -8 -19 -15 -23
-15 -11 0 0 64 13 73 8 6 7 10 -1 14 -24 9 -13 23 17 23 29 0 40 13 20 25 -6
4 -4 19 5 42 23 55 21 56 -108 46z"/>
<path d="M297 1614 c-22 -29 -18 -39 13 -29 13 4 19 12 16 21 -3 8 1 14 9 14
9 0 12 -6 8 -17 -5 -14 -1 -15 27 -9 42 8 46 12 30 31 -21 25 -82 19 -103 -11z"/>
<path d="M158 1563 c-20 -5 -23 -18 -8 -28 10 -6 50 15 50 27 0 8 -14 9 -42 1z"/>
<path d="M207 1313 c-39 -3 -47 -7 -43 -21 3 -9 8 -30 12 -45 4 -19 11 -26 21
-23 8 3 28 6 44 6 43 0 35 20 -8 22 -37 1 -37 1 -5 5 17 2 32 8 32 14 0 5 -15
10 -32 10 l-33 1 30 8 c58 15 61 13 60 -30 0 -36 -2 -40 -26 -40 -73 0 -124
-29 -56 -31 31 -1 31 -2 -8 -9 -22 -5 -47 -7 -56 -4 -13 4 -39 -31 -39 -51 0
-13 30 -3 40 13 8 12 13 13 16 5 6 -15 44 -18 44 -4 0 5 -6 12 -12 14 -7 3 -1
6 15 6 24 1 27 -2 27 -34 0 -24 -5 -35 -15 -35 -8 0 -15 -4 -15 -10 0 -16 90
-12 96 4 3 8 12 12 20 9 8 -3 14 1 14 11 0 20 -27 21 -46 1 -9 -8 -19 -15 -23
-15 -11 0 0 64 13 73 8 6 7 10 -1 14 -24 9 -13 23 17 23 29 0 40 13 20 25 -6
4 -4 19 5 42 23 55 21 56 -108 46z"/>
<path d="M297 1164 c-22 -29 -18 -39 13 -29 13 4 19 12 16 21 -3 8 1 14 9 14
9 0 12 -6 8 -17 -5 -14 -1 -15 27 -9 42 8 46 12 30 31 -21 25 -82 19 -103 -11z"/>
<path d="M158 1113 c-20 -5 -23 -18 -8 -28 10 -6 50 15 50 27 0 8 -14 9 -42 1z"/>
<path d="M231 1059 c-110 -9 -130 -13 -119 -24 10 -11 269 8 265 19 -5 15 -13
15 -146 5z"/>
<path d="M207 863 c-39 -3 -47 -7 -43 -21 3 -9 8 -30 12 -45 4 -19 11 -26 21
-23 8 3 28 6 44 6 43 0 35 20 -8 22 -37 1 -37 1 -5 5 17 2 32 8 32 14 0 5 -15
10 -32 10 l-33 1 30 8 c58 15 61 13 60 -30 0 -36 -2 -40 -26 -40 -73 0 -124
-29 -56 -31 31 -1 31 -2 -8 -9 -22 -5 -47 -7 -56 -4 -13 4 -39 -31 -39 -51 0
-13 30 -3 40 13 8 12 13 13 16 5 6 -15 44 -18 44 -4 0 5 -6 12 -12 14 -7 3 -1
6 15 6 24 1 27 -2 27 -34 0 -24 -5 -35 -15 -35 -8 0 -15 -4 -15 -10 0 -16 90
-12 96 4 3 8 12 12 20 9 8 -3 14 1 14 11 0 20 -27 21 -46 1 -9 -8 -19 -15 -23
-15 -11 0 0 64 13 73 8 6 7 10 -1 14 -24 9 -13 23 17 23 29 0 40 13 20 25 -6
4 -4 19 5 42 23 55 21 56 -108 46z"/>
<path d="M297 714 c-22 -29 -18 -39 13 -29 13 4 19 12 16 21 -3 8 1 14 9 14 9
0 12 -6 8 -17 -5 -14 -1 -15 27 -9 42 8 46 12 30 31 -21 25 -82 19 -103 -11z"/>
<path d="M158 663 c-20 -5 -23 -18 -8 -28 10 -6 50 15 50 27 0 8 -14 9 -42 1z"/>
<path d="M310 614 c-19 -2 -72 -7 -117 -10 -86 -6 -115 -24 -40 -24 l42 -1
-22 -18 c-37 -31 -29 -45 20 -37 23 4 61 10 85 13 23 3 42 10 42 16 0 6 -21 7
-56 2 -55 -7 -55 -7 -37 14 14 18 29 21 86 21 50 0 68 3 65 13 -5 14 -17 16
-68 11z"/>
<path d="M207 413 c-39 -3 -47 -7 -43 -21 3 -9 8 -30 12 -45 4 -19 11 -26 21
-23 8 3 28 6 44 6 43 0 35 20 -8 22 -37 1 -37 1 -5 5 17 2 32 8 32 14 0 5 -15
10 -32 10 l-33 1 30 8 c58 15 61 13 60 -30 0 -36 -2 -40 -26 -40 -73 0 -124
-29 -56 -31 31 -1 31 -2 -8 -9 -22 -5 -47 -7 -56 -4 -13 4 -39 -31 -39 -51 0
-13 30 -3 40 13 8 12 13 13 16 5 6 -15 44 -18 44 -4 0 5 -6 12 -12 14 -7 3 -1
6 15 6 24 1 27 -2 27 -34 0 -24 -5 -35 -15 -35 -8 0 -15 -4 -15 -10 0 -16 90
-12 96 4 3 8 12 12 20 9 8 -3 14 1 14 11 0 20 -27 21 -46 1 -9 -8 -19 -15 -23
-15 -11 0 0 64 13 73 8 6 7 10 -1 14 -24 9 -13 23 17 23 29 0 40 13 20 25 -6
4 -4 19 5 42 23 55 21 56 -108 46z"/>
<path d="M297 264 c-22 -29 -18 -39 13 -29 13 4 19 12 16 21 -3 8 1 14 9 14 9
0 12 -6 8 -17 -5 -14 -1 -15 27 -9 42 8 46 12 30 31 -21 25 -82 19 -103 -11z"/>
<path d="M158 213 c-20 -5 -23 -18 -8 -28 10 -6 50 15 50 27 0 8 -14 9 -42 1z"/>
<path d="M310 164 c-19 -2 -72 -7 -117 -10 -86 -6 -115 -24 -40 -24 l42 -1
-22 -18 c-24 -20 -30 -41 -12 -41 5 0 42 5 80 12 53 8 73 8 81 0 18 -18 38
-14 38 7 0 24 -58 51 -69 32 -4 -6 -25 -14 -45 -18 l-38 -6 18 21 c16 19 29
22 87 22 50 0 68 3 65 13 -5 14 -17 16 -68 11z"/>
</g>
</svg>
