<?xml version="1.0" standalone="no"?>
<!DOCTYPE svg PUBLIC "-//W3C//DTD SVG 20010904//EN"
 "http://www.w3.org/TR/2001/REC-SVG-20010904/DTD/svg10.dtd">
<svg version="1.0" xmlns="http://www.w3.org/2000/svg"
 width="50.000000pt" height="725.000000pt" viewBox="0 0 50.000000 725.000000"
 preserveAspectRatio="xMidYMid meet">
<metadata>
Created by potrace 1.16, written by Peter Selinger 2001-2019
</metadata>
<g transform="translate(0.000000,725.000000) scale(0.100000,-0.100000)"
fill="#000000" stroke="none">
<path d="M166 7123 c8 -52 12 -63 24 -63 11 0 13 42 4 78 -11 39 -33 27 -28
-15z"/>
<path d="M253 6723 c-18 -2 -33 -9 -33 -15 0 -7 15 -9 41 -5 l42 5 -6 -49 c-8
-68 17 -68 33 1 17 71 13 74 -77 63z"/>
<path d="M166 6673 c8 -52 12 -63 24 -63 6 0 10 21 9 50 -2 41 -6 50 -20 50
-15 0 -17 -6 -13 -37z"/>
<path d="M253 6273 c-18 -2 -33 -9 -33 -15 0 -7 15 -9 41 -5 l42 5 -6 -49 c-8
-68 17 -68 33 1 17 71 13 74 -77 63z"/>
<path d="M166 6223 c8 -52 12 -63 24 -63 6 0 10 21 9 50 -2 41 -6 50 -20 50
-15 0 -17 -6 -13 -37z"/>
<path d="M220 6220 c0 -5 14 -10 30 -10 17 0 30 5 30 10 0 6 -13 10 -30 10
-16 0 -30 -4 -30 -10z"/>
<path d="M253 5823 c-18 -2 -33 -9 -33 -15 0 -7 15 -9 41 -5 l42 5 -6 -49 c-8
-68 17 -68 33 1 17 71 13 74 -77 63z"/>
<path d="M166 5773 c8 -52 12 -63 24 -63 6 0 10 21 9 50 -2 41 -6 50 -20 50
-15 0 -17 -6 -13 -37z"/>
<path d="M220 5770 c0 -5 14 -10 30 -10 17 0 30 5 30 10 0 6 -13 10 -30 10
-16 0 -30 -4 -30 -10z"/>
<path d="M228 5743 c-24 -6 -23 -23 1 -23 26 0 51 10 51 21 0 9 -22 10 -52 2z"/>
<path d="M253 5373 c-18 -2 -33 -9 -33 -15 0 -7 15 -9 41 -5 l42 5 -6 -49 c-8
-68 17 -68 33 1 17 71 13 74 -77 63z"/>
<path d="M166 5323 c8 -52 12 -63 24 -63 6 0 10 21 9 50 -2 41 -6 50 -20 50
-15 0 -17 -6 -13 -37z"/>
<path d="M220 5320 c0 -5 14 -10 30 -10 17 0 30 5 30 10 0 6 -13 10 -30 10
-16 0 -30 -4 -30 -10z"/>
<path d="M228 5293 c-24 -6 -23 -23 1 -23 26 0 51 10 51 21 0 9 -22 10 -52 2z"/>
<path d="M223 5246 c-103 -10 -134 -18 -122 -31 10 -10 299 19 296 29 -5 15
-44 15 -174 2z"/>
<path d="M253 4923 c-18 -2 -33 -9 -33 -15 0 -7 15 -9 41 -5 l42 5 -6 -49 c-8
-68 17 -68 33 1 17 71 13 74 -77 63z"/>
<path d="M166 4873 c8 -52 12 -63 24 -63 6 0 10 21 9 50 -2 41 -6 50 -20 50
-15 0 -17 -6 -13 -37z"/>
<path d="M220 4870 c0 -5 14 -10 30 -10 17 0 30 5 30 10 0 6 -13 10 -30 10
-16 0 -30 -4 -30 -10z"/>
<path d="M228 4843 c-24 -6 -23 -23 1 -23 26 0 51 10 51 21 0 9 -22 10 -52 2z"/>
<path d="M220 4795 c-133 -15 -120 -12 -120 -25 0 -5 9 -10 20 -10 18 0 20 -7
20 -65 0 -36 4 -65 9 -65 6 0 13 31 17 69 l6 69 115 7 c77 5 113 11 110 19 -5
15 -44 16 -177 1z"/>
<path d="M253 4473 c-18 -2 -33 -9 -33 -15 0 -7 15 -9 41 -5 l42 5 -6 -49 c-8
-68 17 -68 33 1 17 71 13 74 -77 63z"/>
<path d="M166 4423 c8 -52 12 -63 24 -63 6 0 10 21 9 50 -2 41 -6 50 -20 50
-15 0 -17 -6 -13 -37z"/>
<path d="M220 4420 c0 -5 14 -10 30 -10 17 0 30 5 30 10 0 6 -13 10 -30 10
-16 0 -30 -4 -30 -10z"/>
<path d="M228 4393 c-24 -6 -23 -23 1 -23 26 0 51 10 51 21 0 9 -22 10 -52 2z"/>
<path d="M220 4345 c-133 -15 -120 -12 -120 -25 0 -5 9 -10 20 -10 18 0 20 -7
20 -65 0 -36 4 -65 9 -65 6 0 13 32 17 70 6 59 9 70 25 70 17 0 19 -9 19 -105
0 -58 4 -105 9 -105 5 0 12 47 16 104 l7 104 30 6 c17 3 53 6 80 6 35 0 48 4
46 13 -6 16 -42 17 -178 2z"/>
<path d="M253 4023 c-18 -2 -33 -9 -33 -15 0 -7 15 -9 41 -5 l42 5 -6 -49 c-8
-68 17 -68 33 1 17 71 13 74 -77 63z"/>
<path d="M166 3973 c8 -52 12 -63 24 -63 6 0 10 21 9 50 -2 41 -6 50 -20 50
-15 0 -17 -6 -13 -37z"/>
<path d="M220 3970 c0 -5 14 -10 30 -10 17 0 30 5 30 10 0 6 -13 10 -30 10
-16 0 -30 -4 -30 -10z"/>
<path d="M228 3943 c-24 -6 -23 -23 1 -23 26 0 51 10 51 21 0 9 -22 10 -52 2z"/>
<path d="M220 3895 c-133 -15 -120 -12 -120 -25 0 -5 9 -10 20 -10 18 0 20 -7
20 -65 0 -37 4 -65 10 -65 6 0 10 10 10 23 0 42 12 67 31 67 17 0 19 -8 19
-80 0 -44 4 -80 9 -80 5 0 12 47 16 104 l7 104 30 6 c17 3 53 6 80 6 35 0 48
4 46 13 -6 16 -42 17 -178 2z m-10 -40 c0 -8 -9 -15 -20 -15 -11 0 -20 7 -20
15 0 8 9 15 20 15 11 0 20 -7 20 -15z"/>
<path d="M253 3573 c-18 -2 -33 -9 -33 -15 0 -7 15 -9 41 -5 l42 5 -6 -49 c-8
-68 17 -68 33 1 17 71 13 74 -77 63z"/>
<path d="M166 3523 c8 -52 12 -63 24 -63 6 0 10 21 9 50 -2 41 -6 50 -20 50
-15 0 -17 -6 -13 -37z"/>
<path d="M220 3520 c0 -5 14 -10 30 -10 17 0 30 5 30 10 0 6 -13 10 -30 10
-16 0 -30 -4 -30 -10z"/>
<path d="M228 3493 c-24 -6 -23 -23 1 -23 26 0 51 10 51 21 0 9 -22 10 -52 2z"/>
<path d="M220 3445 c-133 -15 -120 -12 -120 -25 0 -5 9 -10 20 -10 18 0 20 -7
20 -65 0 -62 15 -91 22 -42 2 14 11 23 26 25 21 3 22 0 22 -57 0 -99 18 -69
25 43 l7 104 30 6 c17 3 53 6 80 6 35 0 48 4 46 13 -6 16 -42 17 -178 2z m-10
-40 c0 -8 -9 -15 -20 -15 -11 0 -20 7 -20 15 0 8 9 15 20 15 11 0 20 -7 20
-15z m0 -45 c0 -5 -9 -10 -20 -10 -11 0 -20 5 -20 10 0 6 9 10 20 10 11 0 20
-4 20 -10z"/>
<path d="M253 3123 c-18 -2 -33 -9 -33 -15 0 -7 15 -9 41 -5 l42 5 -6 -49 c-8
-68 17 -68 33 1 17 71 13 74 -77 63z"/>
<path d="M166 3073 c8 -52 12 -63 24 -63 6 0 10 21 9 50 -2 41 -6 50 -20 50
-15 0 -17 -6 -13 -37z"/>
<path d="M220 3070 c0 -5 14 -10 30 -10 17 0 30 5 30 10 0 6 -13 10 -30 10
-16 0 -30 -4 -30 -10z"/>
<path d="M228 3043 c-24 -6 -23 -23 1 -23 26 0 51 10 51 21 0 9 -22 10 -52 2z"/>
<path d="M220 2995 c-133 -15 -120 -12 -120 -25 0 -5 9 -10 20 -10 18 0 20 -7
20 -60 0 -57 -1 -60 -25 -60 -14 0 -25 -5 -25 -10 0 -19 27 -21 65 -6 52 22
55 21 55 -24 0 -22 4 -40 9 -40 5 0 12 47 16 104 l7 104 30 6 c17 3 53 6 80 6
35 0 48 4 46 13 -6 16 -42 17 -178 2z m-10 -40 c0 -8 -9 -15 -20 -15 -11 0
-20 7 -20 15 0 8 9 15 20 15 11 0 20 -7 20 -15z m0 -45 c0 -5 -9 -10 -20 -10
-11 0 -20 5 -20 10 0 6 9 10 20 10 11 0 20 -4 20 -10z m0 -39 c0 -11 -39 -21
-45 -11 -2 4 -2 10 2 14 10 9 43 7 43 -3z"/>
<path d="M253 2673 c-18 -2 -33 -9 -33 -15 0 -7 15 -9 41 -5 l42 5 -6 -49 c-8
-68 17 -68 33 1 17 71 13 74 -77 63z"/>
<path d="M166 2623 c8 -52 12 -63 24 -63 6 0 10 21 9 50 -2 41 -6 50 -20 50
-15 0 -17 -6 -13 -37z"/>
<path d="M220 2620 c0 -5 14 -10 30 -10 17 0 30 5 30 10 0 6 -13 10 -30 10
-16 0 -30 -4 -30 -10z"/>
<path d="M228 2593 c-24 -6 -23 -23 1 -23 26 0 51 10 51 21 0 9 -22 10 -52 2z"/>
<path d="M220 2545 c-133 -15 -120 -12 -120 -25 0 -5 9 -10 20 -10 18 0 20 -7
20 -60 0 -57 -1 -60 -25 -60 -14 0 -25 -5 -25 -10 0 -19 27 -21 65 -6 52 22
55 21 55 -24 0 -22 5 -40 10 -40 6 0 10 6 11 13 5 103 11 193 15 196 2 2 38 6
79 9 50 3 75 9 72 16 -5 15 -44 16 -177 1z m-10 -40 c0 -8 -9 -15 -20 -15 -11
0 -20 7 -20 15 0 8 9 15 20 15 11 0 20 -7 20 -15z m0 -45 c0 -5 -9 -10 -20
-10 -11 0 -20 5 -20 10 0 6 9 10 20 10 11 0 20 -4 20 -10z m0 -39 c0 -11 -39
-21 -45 -11 -2 4 -2 10 2 14 10 9 43 7 43 -3z"/>
<path d="M288 2497 c-48 -13 -50 -32 -3 -24 19 3 35 3 35 1 0 -12 -24 -51 -48
-76 -14 -15 -22 -31 -19 -35 15 -14 58 23 84 74 24 46 26 55 13 63 -8 5 -17 9
-20 9 -3 -1 -22 -6 -42 -12z"/>
<path d="M253 2223 c-18 -2 -33 -9 -33 -15 0 -7 15 -9 41 -5 l42 5 -6 -49 c-8
-68 17 -68 33 1 17 71 13 74 -77 63z"/>
<path d="M166 2173 c8 -52 12 -63 24 -63 6 0 10 21 9 50 -2 41 -6 50 -20 50
-15 0 -17 -6 -13 -37z"/>
<path d="M220 2170 c0 -5 14 -10 30 -10 17 0 30 5 30 10 0 6 -13 10 -30 10
-16 0 -30 -4 -30 -10z"/>
<path d="M228 2143 c-24 -6 -23 -23 1 -23 26 0 51 10 51 21 0 9 -22 10 -52 2z"/>
<path d="M220 2095 c-133 -15 -120 -12 -120 -25 0 -5 9 -10 20 -10 18 0 20 -7
20 -60 0 -57 -1 -60 -25 -60 -14 0 -25 -5 -25 -10 0 -19 27 -21 65 -6 52 22
55 21 55 -24 0 -22 5 -40 10 -40 6 0 10 6 11 13 5 103 11 193 15 196 2 2 38 6
79 9 50 3 75 9 72 16 -5 15 -44 16 -177 1z m-10 -40 c0 -8 -9 -15 -20 -15 -11
0 -20 7 -20 15 0 8 9 15 20 15 11 0 20 -7 20 -15z m0 -45 c0 -5 -9 -10 -20
-10 -11 0 -20 5 -20 10 0 6 9 10 20 10 11 0 20 -4 20 -10z m0 -39 c0 -11 -39
-21 -45 -11 -2 4 -2 10 2 14 10 9 43 7 43 -3z"/>
<path d="M288 2047 c-43 -12 -46 -21 -18 -57 19 -25 19 -25 -2 -47 -25 -27
-16 -43 14 -24 17 11 23 10 43 -9 15 -14 33 -20 51 -18 35 4 42 24 12 32 -13
3 -32 13 -42 21 -19 14 -19 15 -1 56 16 35 17 42 4 50 -8 5 -16 8 -19 8 -3 -1
-22 -6 -42 -12z m28 -33 c-3 -9 -6 -18 -6 -21 0 -3 -7 0 -15 7 -13 11 -13 15
-3 21 21 13 31 10 24 -7z"/>
</g>
</svg>
