<?xml version="1.0" standalone="no"?>
<!DOCTYPE svg PUBLIC "-//W3C//DTD SVG 20010904//EN"
 "http://www.w3.org/TR/2001/REC-SVG-20010904/DTD/svg10.dtd">
<svg version="1.0" xmlns="http://www.w3.org/2000/svg"
 width="50.000000pt" height="725.000000pt" viewBox="0 0 50.000000 725.000000"
 preserveAspectRatio="xMidYMid meet">
<metadata>
Created by potrace 1.16, written by Peter Selinger 2001-2019
</metadata>
<g transform="translate(0.000000,725.000000) scale(0.100000,-0.100000)"
fill="#000000" stroke="none">
<path d="M216 7146 c-3 -13 -32 -47 -63 -75 -61 -55 -66 -77 -9 -42 43 27 118
110 113 125 -7 22 -35 17 -41 -8z"/>
<path d="M216 6696 c-3 -13 -32 -47 -63 -75 -56 -50 -66 -74 -22 -50 13 6 44
32 70 56 l47 44 47 -50 c47 -50 74 -61 105 -41 8 5 12 10 10 12 -3 2 -27 14
-53 27 -27 14 -63 42 -81 63 -38 44 -51 47 -60 14z"/>
<path d="M216 6246 c-3 -13 -32 -47 -63 -75 -62 -56 -66 -77 -6 -40 22 14 49
22 68 20 17 -1 42 2 57 8 22 8 29 6 49 -15 12 -13 32 -24 43 -24 21 0 54 16
46 22 -3 2 -27 14 -53 27 -27 14 -63 42 -81 63 -38 44 -51 47 -60 14z m52 -46
c7 -11 8 -20 3 -20 -5 0 -24 -3 -42 -6 l-34 -7 24 27 c29 31 33 32 49 6z"/>
<path d="M216 5796 c-3 -14 -31 -46 -61 -73 -60 -53 -66 -64 -33 -60 18 2 23
-5 31 -35 12 -50 27 -48 27 2 0 28 -5 43 -16 47 -14 5 -14 7 2 16 11 6 33 10
49 8 17 -1 42 2 57 8 22 8 29 6 49 -15 12 -13 32 -24 43 -24 21 0 54 16 46 22
-3 2 -27 14 -53 27 -27 14 -63 42 -81 63 -38 44 -51 47 -60 14z m52 -46 c7
-11 8 -20 3 -20 -5 0 -24 -3 -42 -6 l-34 -7 24 27 c29 31 33 32 49 6z"/>
<path d="M216 5346 c-3 -14 -31 -46 -61 -73 -60 -53 -66 -64 -33 -60 18 2 23
-5 31 -35 11 -48 27 -49 27 -3 0 32 2 35 30 35 17 0 30 5 30 10 0 6 -21 10
-47 10 -42 1 -45 2 -28 12 11 7 34 11 50 9 17 -1 43 2 57 8 20 8 29 7 38 -5
10 -12 7 -14 -19 -14 -17 0 -31 -4 -31 -10 0 -5 9 -10 21 -10 17 0 20 -5 17
-32 -4 -44 18 -46 32 -4 8 27 17 36 33 36 22 0 56 16 47 22 -3 2 -27 14 -53
27 -27 14 -63 42 -81 63 -38 44 -51 47 -60 14z m52 -46 c7 -11 8 -20 3 -20 -5
0 -24 -3 -42 -6 l-34 -7 24 27 c29 31 33 32 49 6z"/>
<path d="M216 4896 c-3 -14 -31 -46 -61 -73 -60 -53 -66 -64 -33 -60 18 2 23
-5 31 -35 11 -48 27 -49 27 -3 0 28 4 35 20 35 15 0 20 -7 20 -26 0 -37 24
-25 28 14 l3 32 -53 0 c-45 1 -50 2 -33 12 11 7 34 11 50 9 17 -1 43 2 57 8
20 8 29 7 38 -5 10 -12 7 -14 -19 -14 -17 0 -31 -4 -31 -10 0 -5 9 -10 21 -10
17 0 20 -5 17 -32 -4 -44 18 -46 32 -4 8 27 17 36 33 36 22 0 56 16 47 22 -3
2 -27 14 -53 27 -27 14 -63 42 -81 63 -38 44 -51 47 -60 14z m52 -46 c7 -11 8
-20 3 -20 -5 0 -24 -3 -42 -6 l-34 -7 24 27 c29 31 33 32 49 6z"/>
<path d="M216 4446 c-3 -14 -31 -46 -61 -73 -60 -53 -66 -64 -33 -60 18 2 23
-5 31 -35 11 -48 27 -49 27 -3 0 28 4 35 20 35 15 0 20 -7 20 -26 0 -37 24
-25 28 14 l3 32 -53 0 c-45 1 -50 2 -33 12 11 7 34 11 50 9 17 -1 43 2 57 8
20 8 29 7 38 -5 10 -12 7 -14 -19 -14 -17 0 -31 -4 -31 -10 0 -5 9 -10 21 -10
17 0 20 -5 17 -32 -4 -44 18 -46 32 -4 8 27 17 36 33 36 22 0 56 16 47 22 -3
2 -27 14 -53 27 -27 14 -63 42 -81 63 -38 44 -51 47 -60 14z m52 -46 c7 -11 8
-20 3 -20 -5 0 -24 -3 -42 -6 l-34 -7 24 27 c29 31 33 32 49 6z"/>
<path d="M190 4285 c0 -8 5 -15 10 -15 6 0 10 7 10 15 0 8 -4 15 -10 15 -5 0
-10 -7 -10 -15z"/>
<path d="M216 3996 c-3 -14 -31 -46 -61 -73 -60 -53 -66 -64 -33 -60 18 2 23
-5 31 -35 11 -48 27 -49 27 -3 0 28 4 35 20 35 15 0 20 -7 20 -26 0 -37 24
-25 28 14 l3 32 -53 0 c-45 1 -50 2 -33 12 11 7 34 11 50 9 17 -1 43 2 57 8
20 8 29 7 38 -5 10 -12 8 -14 -17 -14 -26 0 -30 -4 -31 -30 -1 -35 15 -39 28
-7 9 19 9 18 7 -12 -3 -46 18 -50 33 -7 8 27 17 36 33 36 22 0 56 16 47 22 -3
2 -27 14 -53 27 -27 14 -63 42 -81 63 -38 44 -51 47 -60 14z m52 -46 c7 -11 8
-20 3 -20 -5 0 -24 -3 -42 -6 l-34 -7 24 27 c29 31 33 32 49 6z"/>
<path d="M190 3835 c0 -8 5 -15 10 -15 6 0 10 7 10 15 0 8 -4 15 -10 15 -5 0
-10 -7 -10 -15z"/>
<path d="M216 3546 c-3 -14 -31 -46 -61 -73 -60 -53 -66 -64 -33 -60 18 2 23
-5 31 -36 7 -29 13 -36 27 -32 9 3 45 6 79 8 59 2 61 3 72 35 8 23 17 32 32
32 22 0 56 16 47 22 -3 2 -27 14 -53 27 -27 14 -63 42 -81 63 -38 44 -51 47
-60 14z m52 -46 c7 -11 8 -20 3 -20 -5 0 -24 -3 -42 -6 l-34 -7 24 27 c29 31
33 32 49 6z m23 -58 c-20 -2 -31 -8 -28 -15 2 -7 1 -21 -4 -32 -7 -17 -8 -16
-8 8 -1 26 -3 27 -53 27 -45 1 -50 2 -33 12 11 7 34 11 50 9 17 -1 41 2 55 7
17 7 30 6 39 -2 12 -9 8 -12 -18 -14z m9 -42 c0 -11 -4 -20 -9 -20 -5 0 -7 9
-4 20 3 11 7 20 9 20 2 0 4 -9 4 -20z m-81 -12 c-1 -17 -2 -19 -6 -5 -2 9 -8
17 -13 17 -5 0 -11 -8 -13 -17 -4 -14 -5 -12 -6 5 -1 16 5 22 19 22 14 0 20
-6 19 -22z"/>
<path d="M216 3096 c-3 -14 -31 -46 -61 -73 -59 -52 -66 -64 -35 -60 17 2 25
-9 40 -53 13 -36 18 -68 14 -92 -5 -31 -3 -38 10 -38 13 0 16 11 16 54 0 34
-5 56 -12 59 -13 5 54 12 104 10 22 -1 29 5 38 33 8 25 18 34 33 34 22 0 56
16 47 22 -3 2 -27 14 -53 27 -27 14 -63 42 -81 63 -38 44 -51 47 -60 14z m52
-46 c7 -11 8 -20 3 -20 -5 0 -24 -3 -42 -6 l-34 -7 24 27 c29 31 33 32 49 6z
m23 -58 c-20 -2 -31 -8 -28 -15 2 -7 1 -21 -4 -32 -7 -17 -8 -16 -8 8 -1 26
-3 27 -53 27 -45 1 -50 2 -33 12 11 7 34 11 50 9 17 -1 41 2 55 7 17 7 30 6
39 -2 12 -9 8 -12 -18 -14z m9 -42 c0 -11 -4 -20 -9 -20 -5 0 -7 9 -4 20 3 11
7 20 9 20 2 0 4 -9 4 -20z m-81 -12 c-1 -17 -2 -19 -6 -5 -2 9 -8 17 -13 17
-5 0 -11 -8 -13 -17 -4 -14 -5 -12 -6 5 -1 16 5 22 19 22 14 0 20 -6 19 -22z"/>
<path d="M216 2646 c-3 -14 -31 -46 -61 -73 -59 -52 -66 -64 -35 -60 17 2 25
-9 40 -53 13 -36 18 -68 14 -92 -5 -31 -3 -38 10 -38 13 0 16 11 16 54 0 34
-5 56 -12 59 -13 5 54 12 104 10 22 -1 29 5 38 33 8 25 18 34 33 34 22 0 56
16 47 22 -3 2 -27 14 -53 27 -27 14 -63 42 -81 63 -38 44 -51 47 -60 14z m52
-46 c7 -11 8 -20 3 -20 -5 0 -24 -3 -42 -6 l-34 -7 24 27 c29 31 33 32 49 6z
m23 -58 c-20 -2 -31 -8 -28 -15 2 -7 1 -21 -4 -32 -7 -17 -8 -16 -8 8 -1 26
-3 27 -53 27 -45 1 -50 2 -33 12 11 7 34 11 50 9 17 -1 41 2 55 7 17 7 30 6
39 -2 12 -9 8 -12 -18 -14z m9 -42 c0 -11 -4 -20 -9 -20 -5 0 -7 9 -4 20 3 11
7 20 9 20 2 0 4 -9 4 -20z m-81 -12 c-1 -17 -2 -19 -6 -5 -2 9 -8 17 -13 17
-5 0 -11 -8 -13 -17 -4 -14 -5 -12 -6 5 -1 16 5 22 19 22 14 0 20 -6 19 -22z"/>
<path d="M238 2443 c-40 -6 -34 -23 7 -23 32 0 35 -2 35 -29 0 -16 -5 -31 -11
-33 -14 -5 0 -38 16 -38 17 0 22 21 21 80 -1 48 -8 53 -68 43z"/>
<path d="M216 2196 c-3 -14 -31 -46 -61 -73 -59 -52 -66 -64 -35 -60 17 2 25
-9 40 -53 13 -36 18 -68 14 -92 -5 -31 -3 -38 10 -38 10 0 16 9 16 25 0 23 4
25 40 25 37 0 55 -13 29 -22 -14 -5 0 -38 17 -38 16 0 16 -2 19 68 1 29 -2 55
-6 58 -12 7 -89 -7 -89 -17 0 -5 16 -9 35 -9 19 0 35 -4 35 -10 0 -5 -18 -10
-40 -10 -33 0 -40 3 -40 19 0 11 -6 22 -12 24 -13 5 54 12 104 10 22 -1 29 5
38 33 8 25 18 34 33 34 22 0 56 16 47 22 -3 2 -27 14 -53 27 -27 14 -63 42
-81 63 -38 44 -51 47 -60 14z m52 -46 c7 -11 8 -20 3 -20 -5 0 -24 -3 -42 -6
l-34 -7 24 27 c29 31 33 32 49 6z m23 -58 c-20 -2 -31 -8 -28 -15 2 -7 1 -21
-4 -32 -7 -17 -8 -16 -8 8 -1 26 -3 27 -53 27 -45 1 -50 2 -33 12 11 7 34 11
50 9 17 -1 41 2 55 7 17 7 30 6 39 -2 12 -9 8 -12 -18 -14z m9 -42 c0 -11 -4
-20 -9 -20 -5 0 -7 9 -4 20 3 11 7 20 9 20 2 0 4 -9 4 -20z m-81 -12 c-1 -17
-2 -19 -6 -5 -2 9 -8 17 -13 17 -5 0 -11 -8 -13 -17 -4 -14 -5 -12 -6 5 -1 16
5 22 19 22 14 0 20 -6 19 -22z"/>
<path d="M216 1746 c-3 -14 -31 -46 -61 -73 -59 -52 -66 -64 -35 -60 17 2 25
-9 40 -53 13 -36 18 -68 14 -92 l-6 -37 51 6 c35 4 51 2 51 -6 0 -12 29 -16
31 -3 6 35 4 114 -2 118 -12 7 -89 -7 -89 -17 0 -5 16 -9 35 -9 19 0 35 -4 35
-10 0 -5 -18 -10 -40 -10 -33 0 -40 3 -40 19 0 11 -6 22 -12 24 -13 5 54 12
104 10 22 -1 29 5 38 33 8 25 18 34 33 34 22 0 56 16 47 22 -3 2 -27 14 -53
27 -27 14 -63 42 -81 63 -38 44 -51 47 -60 14z m52 -46 c7 -11 8 -20 3 -20 -5
0 -24 -3 -42 -6 l-34 -7 24 27 c29 31 33 32 49 6z m23 -58 c-20 -2 -31 -8 -28
-15 2 -7 1 -21 -4 -32 -7 -17 -8 -16 -8 8 -1 26 -3 27 -53 27 -45 1 -50 2 -33
12 11 7 34 11 50 9 17 -1 41 2 55 7 17 7 30 6 39 -2 12 -9 8 -12 -18 -14z m9
-42 c0 -11 -4 -20 -9 -20 -5 0 -7 9 -4 20 3 11 7 20 9 20 2 0 4 -9 4 -20z
m-81 -12 c-1 -17 -2 -19 -6 -5 -2 9 -8 17 -13 17 -5 0 -11 -8 -13 -17 -4 -14
-5 -12 -6 5 -1 16 5 22 19 22 14 0 20 -6 19 -22z m61 -118 c0 -5 -18 -10 -40
-10 -22 0 -40 5 -40 10 0 6 18 10 40 10 22 0 40 -4 40 -10z"/>
</g>
</svg>
