<?xml version="1.0" standalone="no"?>
<!DOCTYPE svg PUBLIC "-//W3C//DTD SVG 20010904//EN"
 "http://www.w3.org/TR/2001/REC-SVG-20010904/DTD/svg10.dtd">
<svg version="1.0" xmlns="http://www.w3.org/2000/svg"
 width="50.000000pt" height="725.000000pt" viewBox="0 0 50.000000 725.000000"
 preserveAspectRatio="xMidYMid meet">
<metadata>
Created by potrace 1.16, written by Peter Selinger 2001-2019
</metadata>
<g transform="translate(0.000000,725.000000) scale(0.100000,-0.100000)"
fill="#000000" stroke="none">
<path d="M213 7107 c-74 -14 -68 -31 7 -24 77 8 110 17 110 28 0 11 -48 10
-117 -4z"/>
<path d="M213 6657 c-74 -14 -68 -31 7 -24 77 8 110 17 110 28 0 11 -48 10
-117 -4z"/>
<path d="M144 6584 c4 -11 10 -31 13 -46 9 -44 24 -33 21 14 -2 33 -8 44 -22
46 -15 3 -17 0 -12 -14z"/>
<path d="M213 6207 c-74 -14 -68 -31 7 -24 77 8 110 17 110 28 0 11 -48 10
-117 -4z"/>
<path d="M212 6157 c-61 -8 -72 -13 -67 -26 4 -9 9 -28 12 -43 8 -39 23 -35
23 7 0 31 3 35 33 39 83 14 92 13 95 -16 2 -16 7 -28 12 -28 16 0 43 49 36 65
-6 17 -33 17 -144 2z"/>
<path d="M213 5757 c-74 -14 -68 -31 7 -24 77 8 110 17 110 28 0 11 -48 10
-117 -4z"/>
<path d="M212 5707 c-61 -8 -72 -13 -67 -26 4 -9 9 -29 12 -44 4 -21 10 -26
22 -22 9 4 48 9 87 12 70 6 71 6 83 39 21 58 9 61 -137 41z m95 -23 c8 -23 -6
-31 -65 -37 -42 -5 -54 -3 -59 9 -3 8 -3 17 0 20 4 4 50 14 110 23 4 0 10 -6
14 -15z"/>
<path d="M225 5350 c8 -36 -4 -50 -42 -50 -13 0 -23 -4 -23 -10 0 -5 16 -10
35 -10 36 0 47 -13 19 -24 -9 -3 -29 -6 -46 -6 -25 0 -29 -3 -23 -17 3 -10 9
-30 12 -45 5 -24 8 -26 40 -21 l36 6 -7 -75 c-6 -55 -4 -78 4 -83 20 -13 30
17 30 93 l0 72 38 0 c34 0 39 3 51 35 17 47 7 58 -45 52 -54 -6 -62 17 -9 27
45 9 45 26 1 26 -30 0 -35 3 -38 27 -2 18 -10 29 -21 31 -16 3 -18 -1 -12 -28z
m80 -126 c0 -13 -8 -20 -27 -22 -23 -3 -27 0 -21 15 13 36 48 42 48 7z m-77
-6 c-2 -15 -10 -23 -23 -23 -25 0 -32 32 -8 38 32 8 34 7 31 -15z"/>
<path d="M225 4900 c8 -36 -4 -50 -42 -50 -13 0 -23 -4 -23 -10 0 -5 16 -10
35 -10 36 0 47 -13 19 -24 -9 -3 -29 -6 -46 -6 -25 0 -29 -3 -23 -17 3 -10 9
-30 12 -45 5 -24 9 -27 32 -22 23 5 21 1 -19 -35 -25 -23 -53 -44 -62 -47 -19
-6 -25 -24 -8 -24 13 0 75 33 108 56 l23 17 -7 -55 c-5 -39 -3 -58 6 -63 20
-13 30 16 30 93 l0 72 38 0 c34 0 39 3 51 35 17 47 7 58 -45 52 -54 -6 -62 17
-9 27 45 9 45 26 1 26 -30 0 -35 3 -38 27 -2 18 -10 29 -21 31 -16 3 -18 -1
-12 -28z m80 -126 c0 -13 -8 -20 -27 -22 -23 -3 -27 0 -21 15 13 36 48 42 48
7z m-77 -6 c-2 -15 -10 -23 -23 -23 -25 0 -32 32 -8 38 32 8 34 7 31 -15z"/>
<path d="M225 4450 c8 -36 -4 -50 -42 -50 -13 0 -23 -4 -23 -10 0 -5 16 -10
35 -10 36 0 47 -13 19 -24 -9 -3 -29 -6 -46 -6 -25 0 -29 -3 -23 -17 3 -10 9
-30 12 -45 5 -24 9 -27 32 -22 23 5 21 1 -19 -35 -25 -23 -53 -44 -62 -47 -19
-6 -25 -24 -8 -24 13 0 75 33 108 56 l23 17 -7 -55 c-5 -39 -3 -58 6 -63 19
-12 30 15 30 74 l0 55 36 -42 c30 -36 41 -42 75 -42 53 0 50 20 -5 43 -23 10
-56 31 -71 47 l-29 30 35 0 c31 0 36 4 48 35 17 47 7 58 -45 52 -54 -6 -62 17
-9 27 45 9 45 26 1 26 -30 0 -35 3 -38 27 -2 18 -10 29 -21 31 -16 3 -18 -1
-12 -28z m80 -126 c0 -13 -8 -20 -27 -22 -23 -3 -27 0 -21 15 13 36 48 42 48
7z m-77 -6 c-2 -15 -10 -23 -23 -23 -25 0 -32 32 -8 38 32 8 34 7 31 -15z"/>
</g>
</svg>
