<?xml version="1.0" standalone="no"?>
<!DOCTYPE svg PUBLIC "-//W3C//DTD SVG 20010904//EN"
 "http://www.w3.org/TR/2001/REC-SVG-20010904/DTD/svg10.dtd">
<svg version="1.0" xmlns="http://www.w3.org/2000/svg"
 width="50.000000pt" height="725.000000pt" viewBox="0 0 50.000000 725.000000"
 preserveAspectRatio="xMidYMid meet">
<metadata>
Created by potrace 1.16, written by Peter Selinger 2001-2019
</metadata>
<g transform="translate(0.000000,725.000000) scale(0.100000,-0.100000)"
fill="#000000" stroke="none">
<path d="M138 7057 c-78 -14 -76 -32 3 -23 68 8 89 14 89 27 0 10 -14 10 -92
-4z"/>
<path d="M157 6670 c7 -58 -2 -70 -49 -70 -16 0 -28 -5 -28 -11 0 -7 15 -10
41 -7 l41 4 -6 -66 c-4 -36 -9 -74 -12 -85 -5 -25 10 -50 25 -41 7 5 11 43 11
101 0 91 1 93 25 99 31 8 33 26 3 26 -21 0 -23 5 -23 47 0 37 -4 48 -17 51
-15 3 -16 -3 -11 -48z"/>
<path d="M157 6220 c7 -58 -2 -70 -49 -70 -16 0 -28 -4 -28 -10 0 -5 16 -10
35 -10 l36 0 -15 -29 c-9 -16 -27 -43 -42 -60 -15 -18 -24 -34 -21 -37 9 -9
47 21 69 53 19 28 19 28 14 3 -13 -68 -15 -96 -7 -109 20 -31 31 3 31 94 0 91
1 93 25 99 31 8 33 26 3 26 -21 0 -23 5 -23 47 0 37 -4 48 -17 51 -15 3 -16
-3 -11 -48z"/>
<path d="M157 5770 c7 -58 -2 -70 -49 -70 -16 0 -28 -4 -28 -10 0 -5 16 -10
35 -10 l36 0 -15 -29 c-9 -16 -27 -43 -42 -60 -15 -18 -24 -34 -21 -37 9 -9
47 21 69 53 19 28 19 28 14 3 -13 -68 -15 -96 -7 -109 18 -28 31 1 31 69 0 63
1 68 20 63 14 -4 20 0 20 10 0 9 -9 19 -20 22 -27 9 -25 22 5 29 31 8 33 26 3
26 -21 0 -23 5 -23 47 0 37 -4 48 -17 51 -15 3 -16 -3 -11 -48z"/>
<path d="M157 5320 c7 -58 -2 -70 -49 -70 -16 0 -28 -4 -28 -10 0 -5 16 -10
35 -10 l36 0 -15 -29 c-9 -16 -27 -43 -42 -60 -15 -18 -24 -34 -21 -37 9 -9
47 21 69 53 19 28 19 28 14 3 -13 -68 -15 -96 -7 -109 18 -28 31 1 31 69 0 63
1 68 20 63 14 -4 20 0 20 10 0 9 -9 19 -20 22 -27 9 -25 22 5 29 31 8 33 26 3
26 -21 0 -23 5 -23 47 0 37 -4 48 -17 51 -15 3 -16 -3 -11 -48z"/>
<path d="M277 5343 c-4 -3 -7 -14 -7 -22 0 -9 -9 -34 -21 -55 -11 -21 -18 -41
-15 -43 17 -17 82 87 72 113 -6 15 -18 18 -29 7z"/>
<path d="M157 4870 c7 -58 -2 -70 -49 -70 -16 0 -28 -4 -28 -10 0 -5 16 -10
35 -10 l36 0 -15 -29 c-9 -16 -27 -43 -42 -60 -15 -18 -24 -34 -21 -37 9 -9
47 21 69 53 19 28 19 28 14 3 -13 -68 -15 -96 -7 -109 18 -28 31 1 31 69 0 63
1 68 20 63 14 -4 20 0 20 10 0 9 -9 19 -20 22 -27 9 -25 22 5 29 31 8 33 26 3
26 -21 0 -23 5 -23 47 0 37 -4 48 -17 51 -15 3 -16 -3 -11 -48z"/>
<path d="M277 4893 c-4 -3 -7 -14 -7 -22 0 -9 -9 -34 -21 -55 -21 -39 -19 -57
3 -39 7 6 43 16 81 23 74 14 94 36 25 27 -24 -2 -51 -8 -62 -12 -17 -8 -17 -7
-1 24 21 41 8 80 -18 54z"/>
<path d="M157 4420 c7 -58 -2 -70 -49 -70 -16 0 -28 -4 -28 -10 0 -5 16 -10
35 -10 l36 0 -15 -29 c-9 -16 -27 -43 -42 -60 -15 -18 -24 -34 -21 -37 9 -9
47 21 69 53 19 28 19 28 14 3 -13 -68 -15 -96 -7 -109 18 -28 31 1 31 69 0 63
1 68 20 63 14 -4 20 0 20 10 0 9 -9 19 -20 22 -27 9 -25 22 5 29 31 8 33 26 3
26 -21 0 -23 5 -23 47 0 37 -4 48 -17 51 -15 3 -16 -3 -11 -48z"/>
<path d="M277 4443 c-4 -3 -7 -14 -7 -22 0 -9 -9 -34 -21 -55 -21 -39 -19 -57
3 -39 7 6 43 16 81 23 74 14 94 36 25 27 -24 -2 -51 -8 -62 -12 -17 -8 -17 -7
-1 24 21 41 8 80 -18 54z"/>
<path d="M276 4279 c-38 -5 -72 -12 -75 -15 -9 -9 23 -24 39 -17 8 3 57 8 108
11 63 3 92 8 89 16 -5 14 -73 16 -161 5z"/>
<path d="M157 3970 c7 -58 -2 -70 -49 -70 -16 0 -28 -4 -28 -10 0 -5 16 -10
35 -10 l36 0 -15 -29 c-9 -16 -27 -43 -42 -60 -15 -18 -24 -34 -21 -37 9 -9
47 21 69 53 19 28 19 28 14 3 -13 -68 -15 -96 -7 -109 18 -28 31 1 31 69 0 63
1 68 20 63 14 -4 20 0 20 10 0 9 -9 19 -20 22 -27 9 -25 22 5 29 31 8 33 26 3
26 -21 0 -23 5 -23 47 0 37 -4 48 -17 51 -15 3 -16 -3 -11 -48z"/>
<path d="M277 3993 c-4 -3 -7 -14 -7 -22 0 -9 -9 -34 -21 -55 -20 -38 -19 -60
3 -38 23 23 48 14 48 -17 0 -27 -3 -30 -50 -36 -27 -4 -50 -10 -50 -15 0 -15
29 -19 62 -9 18 5 34 9 35 9 2 0 3 -31 3 -70 0 -38 4 -70 9 -70 14 0 21 28 21
86 l0 54 56 0 c73 0 70 24 -4 28 -51 3 -52 4 -46 30 8 30 21 42 47 42 9 0 17
5 17 11 0 12 -69 8 -104 -6 -17 -8 -17 -7 -1 24 21 41 8 80 -18 54z"/>
</g>
</svg>
