<?xml version="1.0" standalone="no"?>
<!DOCTYPE svg PUBLIC "-//W3C//DTD SVG 20010904//EN"
 "http://www.w3.org/TR/2001/REC-SVG-20010904/DTD/svg10.dtd">
<svg version="1.0" xmlns="http://www.w3.org/2000/svg"
 width="50.000000pt" height="725.000000pt" viewBox="0 0 50.000000 725.000000"
 preserveAspectRatio="xMidYMid meet">
<metadata>
Created by potrace 1.16, written by Peter Selinger 2001-2019
</metadata>
<g transform="translate(0.000000,725.000000) scale(0.100000,-0.100000)"
fill="#000000" stroke="none">
<path d="M162 7138 c6 -16 36 -34 44 -26 3 4 4 14 1 23 -7 17 -51 21 -45 3z"/>
<path d="M162 6688 c6 -16 36 -34 44 -26 3 4 4 14 1 23 -7 17 -51 21 -45 3z"/>
<path d="M130 6644 c0 -8 32 -33 43 -34 4 0 7 9 7 20 0 15 -7 20 -25 20 -14 0
-25 -3 -25 -6z"/>
<path d="M162 6238 c6 -16 36 -34 44 -26 3 4 4 14 1 23 -7 17 -51 21 -45 3z"/>
<path d="M130 6194 c0 -8 32 -33 43 -34 4 0 7 9 7 20 0 15 -7 20 -25 20 -14 0
-25 -3 -25 -6z"/>
<path d="M163 6137 c-37 -25 -40 -35 -16 -44 10 -4 24 3 40 21 41 48 29 58
-24 23z"/>
<path d="M162 5788 c6 -16 36 -34 44 -26 3 4 4 14 1 23 -7 17 -51 21 -45 3z"/>
<path d="M278 5762 c-48 -16 -63 -32 -30 -32 31 0 122 30 122 40 0 14 -37 11
-92 -8z"/>
<path d="M130 5744 c0 -8 32 -33 43 -34 4 0 7 9 7 20 0 15 -7 20 -25 20 -14 0
-25 -3 -25 -6z"/>
<path d="M163 5687 c-37 -25 -40 -35 -16 -44 10 -4 24 3 40 21 41 48 29 58
-24 23z"/>
<path d="M260 5336 c0 -25 -4 -36 -15 -36 -8 0 -15 -4 -15 -10 0 -5 7 -10 15
-10 9 0 15 -9 15 -24 0 -27 16 -36 65 -36 40 0 65 8 65 22 0 5 -19 9 -42 8
-64 -3 -68 -2 -68 18 0 13 13 21 45 30 25 7 45 16 45 22 0 13 -31 13 -64 1
-22 -9 -24 -8 -23 16 1 14 -4 28 -10 30 -9 3 -13 -7 -13 -31z"/>
<path d="M162 5338 c6 -16 36 -34 44 -26 3 4 4 14 1 23 -7 17 -51 21 -45 3z"/>
<path d="M130 5294 c0 -8 32 -33 43 -34 4 0 7 9 7 20 0 15 -7 20 -25 20 -14 0
-25 -3 -25 -6z"/>
<path d="M163 5237 c-37 -25 -40 -35 -16 -44 10 -4 24 3 40 21 41 48 29 58
-24 23z"/>
<path d="M260 4886 c0 -25 -4 -36 -15 -36 -8 0 -15 -4 -15 -10 0 -5 7 -10 15
-10 9 0 15 -9 15 -24 0 -27 16 -36 65 -36 40 0 65 8 65 22 0 5 -19 9 -42 8
-64 -3 -68 -2 -68 18 0 13 13 21 45 30 25 7 45 16 45 22 0 13 -31 13 -64 1
-22 -9 -24 -8 -23 16 1 14 -4 28 -10 30 -9 3 -13 -7 -13 -31z"/>
<path d="M162 4888 c6 -16 36 -34 44 -26 3 4 4 14 1 23 -7 17 -51 21 -45 3z"/>
<path d="M130 4844 c0 -8 32 -33 43 -34 4 0 7 9 7 20 0 15 -7 20 -25 20 -14 0
-25 -3 -25 -6z"/>
<path d="M163 4787 c-37 -25 -40 -35 -16 -44 10 -4 24 3 40 21 41 48 29 58
-24 23z"/>
<path d="M241 4724 c-121 -13 -140 -18 -129 -30 7 -6 280 15 288 23 5 4 -21
24 -30 21 -3 0 -61 -7 -129 -14z"/>
<path d="M260 4436 c0 -25 -4 -36 -15 -36 -8 0 -15 -4 -15 -10 0 -5 7 -10 15
-10 9 0 15 -9 15 -25 0 -14 -4 -25 -10 -25 -5 0 -10 -13 -10 -30 0 -26 -4 -30
-27 -30 -49 0 -103 -12 -103 -23 0 -6 24 -7 65 -3 l65 7 0 -67 c0 -48 3 -65
13 -62 7 3 13 28 15 65 3 59 4 61 34 67 17 3 46 6 64 6 19 0 34 5 34 10 0 12
-9 13 -77 10 -50 -2 -53 0 -53 22 0 22 4 24 35 20 42 -5 85 5 85 19 0 6 -18
10 -42 9 -64 -3 -68 -2 -68 18 0 13 13 21 45 30 25 7 45 16 45 22 0 13 -31 13
-64 1 -22 -9 -24 -8 -23 16 1 14 -4 28 -10 30 -9 3 -13 -7 -13 -31z"/>
<path d="M162 4438 c6 -16 36 -34 44 -26 3 4 4 14 1 23 -7 17 -51 21 -45 3z"/>
<path d="M130 4394 c0 -8 32 -33 43 -34 4 0 7 9 7 20 0 15 -7 20 -25 20 -14 0
-25 -3 -25 -6z"/>
<path d="M163 4337 c-37 -25 -40 -35 -16 -44 10 -4 24 3 40 21 41 48 29 58
-24 23z"/>
<path d="M260 3986 c0 -25 -4 -36 -15 -36 -8 0 -15 -4 -15 -10 0 -5 7 -10 15
-10 9 0 15 -9 15 -25 0 -14 -4 -25 -10 -25 -5 0 -10 -13 -10 -30 0 -26 -4 -30
-27 -30 -49 0 -103 -12 -103 -23 0 -6 24 -7 65 -3 l65 7 0 -67 c0 -48 3 -65
13 -62 7 3 13 28 15 65 3 59 4 61 34 67 17 3 46 6 64 6 19 0 34 5 34 10 0 12
-9 13 -77 10 -50 -2 -53 0 -53 22 0 22 4 24 35 20 42 -5 85 5 85 19 0 6 -18
10 -42 9 -64 -3 -68 -2 -68 18 0 13 13 21 45 30 25 7 45 16 45 22 0 13 -31 13
-64 1 -22 -9 -24 -8 -23 16 1 14 -4 28 -10 30 -9 3 -13 -7 -13 -31z"/>
<path d="M162 3988 c6 -16 36 -34 44 -26 3 4 4 14 1 23 -7 17 -51 21 -45 3z"/>
<path d="M130 3944 c0 -8 32 -33 43 -34 4 0 7 9 7 20 0 15 -7 20 -25 20 -14 0
-25 -3 -25 -6z"/>
<path d="M163 3887 c-37 -25 -40 -35 -16 -44 10 -4 24 3 40 21 41 48 29 58
-24 23z"/>
<path d="M136 3734 c-16 -19 -26 -37 -22 -41 9 -9 86 48 86 63 0 25 -35 13
-64 -22z"/>
<path d="M260 3536 c0 -25 -4 -36 -15 -36 -8 0 -15 -4 -15 -10 0 -5 7 -10 15
-10 9 0 15 -9 15 -25 0 -14 -4 -25 -10 -25 -5 0 -10 -13 -10 -30 0 -26 -4 -30
-27 -30 -49 0 -103 -12 -103 -23 0 -6 24 -7 65 -3 l65 7 0 -67 c0 -48 3 -65
13 -62 7 3 13 28 15 65 3 59 4 61 34 67 17 3 46 6 64 6 19 0 34 5 34 10 0 12
-9 13 -77 10 -50 -2 -53 0 -53 22 0 22 4 24 35 20 42 -5 85 5 85 19 0 6 -18
10 -42 9 -64 -3 -68 -2 -68 18 0 13 13 21 45 30 25 7 45 16 45 22 0 13 -31 13
-64 1 -22 -9 -24 -8 -23 16 1 14 -4 28 -10 30 -9 3 -13 -7 -13 -31z"/>
<path d="M162 3538 c6 -16 36 -34 44 -26 3 4 4 14 1 23 -7 17 -51 21 -45 3z"/>
<path d="M130 3494 c0 -8 32 -33 43 -34 4 0 7 9 7 20 0 15 -7 20 -25 20 -14 0
-25 -3 -25 -6z"/>
<path d="M163 3437 c-37 -25 -40 -35 -16 -44 10 -4 24 3 40 21 41 48 29 58
-24 23z"/>
<path d="M136 3284 c-16 -19 -26 -37 -22 -41 9 -9 86 48 86 63 0 25 -35 13
-64 -22z"/>
<path d="M310 3313 c0 -15 52 -73 66 -73 23 0 16 37 -12 59 -26 20 -54 28 -54
14z"/>
</g>
</svg>
