<?xml version="1.0" standalone="no"?>
<!DOCTYPE svg PUBLIC "-//W3C//DTD SVG 20010904//EN"
 "http://www.w3.org/TR/2001/REC-SVG-20010904/DTD/svg10.dtd">
<svg version="1.0" xmlns="http://www.w3.org/2000/svg"
 width="50.000000pt" height="725.000000pt" viewBox="0 0 50.000000 725.000000"
 preserveAspectRatio="xMidYMid meet">
<metadata>
Created by potrace 1.16, written by Peter Selinger 2001-2019
</metadata>
<g transform="translate(0.000000,725.000000) scale(0.100000,-0.100000)"
fill="#000000" stroke="none">
<path d="M138 7047 c-55 -12 -64 -28 -15 -26 51 2 90 13 95 27 4 14 -12 14
-80 -1z"/>
<path d="M160 6656 c0 -56 -8 -66 -51 -66 -10 0 -19 -4 -19 -10 0 -5 16 -10
36 -10 l37 0 -7 -90 c-7 -78 -5 -90 8 -90 13 0 16 15 16 90 0 79 2 91 20 100
24 13 26 30 4 30 -14 0 -16 7 -11 39 4 36 -5 61 -25 61 -4 0 -8 -24 -8 -54z"/>
<path d="M160 6206 c0 -56 -8 -66 -51 -66 -10 0 -19 -4 -19 -10 0 -5 14 -10
30 -10 36 0 37 -7 5 -54 -14 -20 -25 -41 -25 -46 0 -18 18 -10 39 18 l20 27
-6 -62 c-5 -54 -4 -63 11 -63 14 0 16 13 16 90 0 79 2 91 20 100 24 13 26 30
4 30 -14 0 -16 7 -11 39 4 36 -5 61 -25 61 -4 0 -8 -24 -8 -54z"/>
<path d="M160 5756 c0 -56 -8 -66 -51 -66 -10 0 -19 -4 -19 -10 0 -5 14 -10
30 -10 36 0 37 -7 5 -54 -14 -20 -25 -41 -25 -46 0 -18 18 -10 39 18 l20 27
-6 -62 c-5 -54 -4 -63 11 -63 13 0 16 12 16 72 0 56 3 69 12 60 16 -16 28 -15
28 2 0 8 -9 21 -21 30 l-21 14 21 11 c25 14 28 31 5 31 -14 0 -16 7 -11 39 4
36 -5 61 -25 61 -4 0 -8 -24 -8 -54z"/>
<path d="M160 5306 c0 -56 -8 -66 -51 -66 -10 0 -19 -4 -19 -10 0 -5 14 -10
30 -10 36 0 37 -7 5 -54 -14 -20 -25 -41 -25 -46 0 -18 18 -10 39 18 l20 27
-6 -62 c-5 -54 -4 -63 11 -63 13 0 16 12 16 72 0 56 3 69 12 60 16 -16 28 -15
28 3 0 8 -9 20 -19 27 -19 12 -19 13 5 35 25 23 68 31 79 14 3 -6 3 -46 -1
-90 -5 -61 -10 -78 -20 -74 -18 7 -17 -7 1 -32 13 -17 17 -17 29 -5 21 21 27
228 7 235 -19 7 -81 -5 -81 -16 0 -5 -7 -9 -16 -9 -14 0 -16 7 -11 39 4 36 -5
61 -25 61 -4 0 -8 -24 -8 -54z"/>
<path d="M160 4856 c0 -56 -8 -66 -51 -66 -10 0 -19 -4 -19 -10 0 -5 14 -10
30 -10 36 0 37 -7 5 -54 -14 -20 -25 -41 -25 -46 0 -18 18 -10 39 18 l20 27
-6 -62 c-5 -54 -4 -63 11 -63 13 0 16 12 16 72 0 56 3 69 12 60 16 -16 28 -15
28 3 0 8 -9 20 -19 27 -19 12 -19 13 5 35 25 23 68 31 79 14 3 -6 3 -46 -1
-90 -5 -61 -10 -78 -20 -74 -18 7 -17 -7 1 -32 13 -17 17 -17 29 -5 21 21 27
228 7 235 -19 7 -81 -5 -81 -16 0 -5 -7 -9 -16 -9 -14 0 -16 7 -11 39 4 36 -5
61 -25 61 -4 0 -8 -24 -8 -54z"/>
<path d="M234 4755 c3 -9 6 -19 6 -21 0 -2 7 -4 16 -4 22 0 13 34 -10 38 -14
3 -17 0 -12 -13z"/>
<path d="M160 4406 c0 -56 -8 -66 -51 -66 -10 0 -19 -4 -19 -10 0 -5 14 -10
30 -10 36 0 37 -7 5 -54 -14 -20 -25 -41 -25 -46 0 -18 18 -10 39 18 l20 27
-6 -62 c-5 -54 -4 -63 11 -63 13 0 16 12 16 72 0 56 3 69 12 60 16 -16 28 -15
28 3 0 8 -9 20 -19 27 -19 12 -19 13 5 35 25 23 68 31 79 14 3 -6 3 -46 -1
-90 -5 -61 -10 -78 -20 -74 -18 7 -17 -7 1 -32 13 -17 17 -17 29 -5 21 21 27
228 7 235 -19 7 -81 -5 -81 -16 0 -5 -7 -9 -16 -9 -14 0 -16 7 -11 39 4 36 -5
61 -25 61 -4 0 -8 -24 -8 -54z"/>
<path d="M234 4305 c3 -9 6 -19 6 -21 0 -2 7 -4 16 -4 22 0 13 34 -10 38 -14
3 -17 0 -12 -13z"/>
<path d="M228 4252 c-32 -19 -35 -30 -12 -39 11 -4 23 2 35 18 32 41 24 49
-23 21z"/>
<path d="M160 3956 c0 -56 -8 -66 -51 -66 -10 0 -19 -4 -19 -10 0 -5 14 -10
30 -10 36 0 37 -7 5 -54 -14 -20 -25 -41 -25 -46 0 -18 18 -10 39 18 l20 27
-6 -62 c-5 -54 -4 -63 11 -63 13 0 16 12 16 72 0 56 3 69 12 60 16 -16 28 -15
28 3 0 8 -9 20 -19 27 -19 12 -19 13 5 35 25 23 68 31 79 14 3 -6 3 -46 -1
-90 -5 -61 -10 -78 -20 -74 -18 7 -17 -7 1 -32 13 -17 17 -17 29 -5 21 21 27
228 7 235 -19 7 -81 -5 -81 -16 0 -5 -7 -9 -16 -9 -14 0 -16 7 -11 39 4 36 -5
61 -25 61 -4 0 -8 -24 -8 -54z"/>
<path d="M358 3953 c-41 -6 -37 -34 5 -31 31 3 32 2 35 -42 5 -71 -7 -150 -24
-150 -8 0 -14 -3 -14 -7 1 -14 27 -43 38 -43 16 0 20 28 25 157 3 90 1 113
-11 118 -7 3 -17 4 -20 4 -4 -1 -19 -4 -34 -6z"/>
<path d="M234 3855 c3 -9 6 -19 6 -21 0 -2 7 -4 16 -4 22 0 13 34 -10 38 -14
3 -17 0 -12 -13z"/>
<path d="M228 3802 c-32 -19 -35 -30 -12 -39 11 -4 23 2 35 18 32 41 24 49
-23 21z"/>
<path d="M160 3506 c0 -56 -8 -66 -51 -66 -10 0 -19 -4 -19 -10 0 -5 14 -10
30 -10 36 0 37 -7 5 -54 -14 -20 -25 -41 -25 -46 0 -18 18 -10 39 18 l20 27
-6 -62 c-5 -54 -4 -63 11 -63 13 0 16 12 16 72 0 56 3 69 12 60 16 -16 28 -15
28 3 0 8 -9 20 -19 27 -19 12 -19 13 5 35 25 23 68 31 79 14 3 -6 3 -46 -1
-90 -5 -61 -10 -78 -20 -74 -18 7 -17 -7 1 -32 13 -17 17 -17 29 -5 21 21 27
228 7 235 -19 7 -81 -5 -81 -16 0 -5 -7 -9 -16 -9 -14 0 -16 7 -11 39 4 36 -5
61 -25 61 -4 0 -8 -24 -8 -54z"/>
<path d="M358 3503 c-41 -6 -37 -34 5 -31 31 3 32 2 35 -42 5 -71 -7 -150 -24
-150 -8 0 -14 -3 -14 -7 1 -14 27 -43 38 -43 16 0 20 28 25 157 3 90 1 113
-11 118 -7 3 -17 4 -20 4 -4 -1 -19 -4 -34 -6z"/>
<path d="M330 3431 c0 -12 29 -35 36 -28 11 10 -5 37 -21 37 -8 0 -15 -4 -15
-9z"/>
<path d="M234 3405 c3 -9 6 -19 6 -21 0 -2 7 -4 16 -4 22 0 13 34 -10 38 -14
3 -17 0 -12 -13z"/>
<path d="M228 3352 c-32 -19 -35 -30 -12 -39 11 -4 23 2 35 18 32 41 24 49
-23 21z"/>
<path d="M160 3056 c0 -56 -8 -66 -51 -66 -10 0 -19 -4 -19 -10 0 -5 14 -10
30 -10 36 0 37 -7 5 -54 -14 -20 -25 -41 -25 -46 0 -18 18 -10 39 18 l20 27
-6 -62 c-5 -54 -4 -63 11 -63 13 0 16 12 16 72 0 56 3 69 12 60 16 -16 28 -15
28 3 0 8 -9 20 -19 27 -19 12 -19 13 5 35 25 23 68 31 79 14 3 -6 3 -46 -1
-90 -5 -61 -10 -78 -20 -74 -18 7 -17 -7 1 -32 13 -17 17 -17 29 -5 21 21 27
228 7 235 -19 7 -81 -5 -81 -16 0 -5 -7 -9 -16 -9 -14 0 -16 7 -11 39 4 36 -5
61 -25 61 -4 0 -8 -24 -8 -54z"/>
<path d="M358 3053 c-41 -6 -37 -34 5 -31 31 3 32 2 35 -42 5 -71 -7 -150 -24
-150 -8 0 -14 -3 -14 -7 1 -14 27 -43 38 -43 16 0 20 28 25 157 3 90 1 113
-11 118 -7 3 -17 4 -20 4 -4 -1 -19 -4 -34 -6z"/>
<path d="M330 2981 c0 -12 29 -35 36 -28 11 10 -5 37 -21 37 -8 0 -15 -4 -15
-9z"/>
<path d="M234 2955 c3 -9 6 -19 6 -21 0 -2 7 -4 16 -4 22 0 13 34 -10 38 -14
3 -17 0 -12 -13z"/>
<path d="M348 2917 c-30 -24 -37 -47 -15 -47 12 0 57 51 57 65 0 10 -16 4 -42
-18z"/>
<path d="M228 2902 c-32 -19 -35 -30 -12 -39 11 -4 23 2 35 18 32 41 24 49
-23 21z"/>
</g>
</svg>
