<?xml version="1.0" standalone="no"?>
<!DOCTYPE svg PUBLIC "-//W3C//DTD SVG 20010904//EN"
 "http://www.w3.org/TR/2001/REC-SVG-20010904/DTD/svg10.dtd">
<svg version="1.0" xmlns="http://www.w3.org/2000/svg"
 width="50.000000pt" height="725.000000pt" viewBox="0 0 50.000000 725.000000"
 preserveAspectRatio="xMidYMid meet">
<metadata>
Created by potrace 1.16, written by Peter Selinger 2001-2019
</metadata>
<g transform="translate(0.000000,725.000000) scale(0.100000,-0.100000)"
fill="#000000" stroke="none">
<path d="M123 7053 c-21 -3 -33 -10 -33 -19 0 -10 6 -14 18 -10 9 2 36 8 60
11 23 4 42 11 42 16 0 9 -25 9 -87 2z"/>
<path d="M140 6651 c0 -48 -2 -51 -25 -51 -16 0 -25 -6 -25 -15 0 -12 7 -14
26 -9 l26 7 -3 -98 c-3 -72 -1 -99 9 -102 9 -4 12 15 12 70 0 102 8 137 31
137 11 0 19 5 19 10 0 6 -9 10 -21 10 -18 0 -20 5 -17 42 2 34 -1 43 -14 46
-15 3 -18 -4 -18 -47z"/>
<path d="M140 6201 c0 -48 -2 -51 -25 -51 -16 0 -25 -6 -25 -15 0 -12 7 -14
26 -9 l26 7 -17 -34 c-10 -19 -27 -47 -37 -62 -29 -41 -12 -48 23 -9 l29 32
-3 -61 c-1 -42 2 -63 11 -66 9 -4 12 15 12 70 0 102 8 137 31 137 11 0 19 5
19 10 0 6 -9 10 -21 10 -18 0 -20 5 -17 42 2 34 -1 43 -14 46 -15 3 -18 -4
-18 -47z"/>
<path d="M140 5751 c0 -48 -2 -51 -25 -51 -16 0 -25 -6 -25 -15 0 -12 7 -14
26 -9 l26 7 -17 -34 c-10 -19 -27 -47 -37 -62 -29 -41 -12 -48 23 -9 l29 32
-3 -61 c-1 -42 2 -63 11 -66 9 -4 12 15 12 73 0 61 3 75 12 66 7 -7 16 -12 20
-12 14 0 9 27 -7 40 -21 18 -19 40 5 40 11 0 20 5 20 10 0 6 -9 10 -21 10 -18
0 -20 5 -17 42 2 34 -1 43 -14 46 -15 3 -18 -4 -18 -47z"/>
<path d="M140 5301 c0 -48 -2 -51 -25 -51 -16 0 -25 -6 -25 -15 0 -12 7 -14
26 -9 l26 7 -17 -34 c-10 -19 -27 -47 -37 -62 -29 -41 -12 -48 23 -9 l29 32
-3 -61 c-1 -42 2 -63 11 -66 9 -4 12 15 12 73 0 61 3 75 12 66 7 -7 16 -12 20
-12 14 0 9 27 -7 40 -27 22 -19 43 14 37 26 -6 33 -2 52 29 18 30 19 38 8 45
-22 14 -26 11 -33 -25 -6 -29 -9 -33 -32 -28 -23 4 -25 9 -22 45 2 33 -1 42
-14 45 -15 3 -18 -4 -18 -47z"/>
<path d="M140 4851 c0 -48 -2 -51 -25 -51 -16 0 -25 -6 -25 -15 0 -12 7 -14
26 -9 l26 7 -17 -34 c-10 -19 -27 -47 -37 -62 -29 -41 -12 -48 23 -9 l29 32
-3 -61 c-1 -42 2 -63 11 -66 9 -4 12 15 12 73 0 61 3 75 12 66 7 -7 16 -12 20
-12 14 0 9 27 -7 40 -27 22 -19 43 15 37 16 -4 32 -3 34 2 3 5 31 12 62 16 67
8 84 14 84 27 0 10 -74 3 -108 -10 -12 -4 -14 -1 -8 13 4 11 2 22 -6 27 -21
13 -25 10 -32 -26 -6 -29 -9 -33 -32 -28 -23 4 -25 9 -22 45 2 33 -1 42 -14
45 -15 3 -18 -4 -18 -47z"/>
<path d="M140 4401 c0 -48 -2 -51 -25 -51 -16 0 -25 -6 -25 -15 0 -12 7 -14
26 -9 l26 7 -17 -34 c-10 -19 -27 -47 -37 -62 -29 -41 -12 -48 23 -9 l29 32
-3 -61 c-1 -42 2 -63 11 -66 9 -4 12 15 12 73 0 61 3 75 12 66 7 -7 16 -12 20
-12 14 0 9 27 -7 40 -27 22 -19 43 15 37 16 -4 32 -3 34 2 3 5 31 12 62 16 67
8 84 14 84 27 0 10 -74 3 -108 -10 -12 -4 -14 -1 -8 13 4 11 2 22 -6 27 -21
13 -25 10 -32 -26 -6 -29 -9 -33 -32 -28 -23 4 -25 9 -22 45 2 33 -1 42 -14
45 -15 3 -18 -4 -18 -47z"/>
<path d="M281 4316 c-38 -6 -66 -17 -69 -25 -4 -11 1 -12 19 -7 13 3 59 9 102
13 55 4 77 10 77 19 0 17 -37 17 -129 0z"/>
<path d="M283 3974 c1 -32 -2 -48 -12 -52 -10 -3 -12 0 -7 13 4 11 1 22 -6 27
-21 13 -25 10 -32 -26 -6 -29 -9 -33 -32 -28 -23 4 -25 9 -22 45 2 33 -1 42
-14 45 -15 3 -18 -4 -18 -47 0 -48 -2 -51 -25 -51 -16 0 -25 -6 -25 -15 0 -12
7 -14 26 -9 l26 7 -17 -34 c-10 -19 -27 -47 -37 -62 -29 -41 -12 -48 23 -9
l29 32 -3 -61 c-1 -42 2 -63 11 -66 9 -4 12 15 12 73 0 61 3 75 12 66 7 -7 16
-12 20 -12 14 0 9 27 -7 40 -27 22 -19 43 15 37 16 -4 32 -2 35 3 3 6 17 10
31 10 40 0 27 -34 -15 -40 -19 -3 -36 -11 -39 -18 -3 -9 6 -11 38 -6 l42 7 -7
-82 c-7 -71 -6 -81 9 -81 13 0 16 13 16 85 l0 85 50 0 c40 0 50 3 50 16 0 14
-8 16 -51 11 -43 -5 -50 -4 -47 10 2 9 18 21 36 25 40 11 43 32 2 26 -28 -4
-29 -3 -32 36 -2 29 -8 42 -20 44 -13 3 -16 -5 -15 -44z"/>
<path d="M283 3524 c1 -32 -2 -48 -12 -52 -10 -3 -12 0 -7 13 4 11 1 22 -6 27
-21 13 -25 10 -32 -26 -6 -29 -9 -33 -32 -28 -23 4 -25 9 -22 45 2 33 -1 42
-14 45 -15 3 -18 -4 -18 -47 0 -48 -2 -51 -25 -51 -16 0 -25 -6 -25 -15 0 -12
7 -14 26 -9 l26 7 -17 -34 c-10 -19 -27 -47 -37 -62 -29 -41 -12 -48 23 -9
l29 32 -3 -61 c-1 -42 2 -63 11 -66 9 -4 12 15 12 73 0 61 3 75 12 66 7 -7 16
-12 20 -12 14 0 9 27 -7 40 -27 22 -19 43 15 37 16 -4 32 -2 35 3 3 6 17 10
31 10 40 0 27 -34 -15 -40 -19 -3 -36 -11 -39 -19 -3 -10 3 -11 28 -6 29 6 31
5 22 -12 -6 -10 -24 -31 -41 -47 -31 -29 -39 -46 -23 -46 5 0 27 16 49 35 l41
35 -5 -60 c-5 -51 -3 -60 11 -60 14 0 16 13 16 85 l0 85 50 0 c40 0 50 3 50
16 0 14 -8 16 -51 11 -43 -5 -50 -4 -47 10 2 9 18 21 36 25 40 11 43 32 2 26
-28 -4 -29 -3 -32 36 -2 29 -8 42 -20 44 -13 3 -16 -5 -15 -44z"/>
<path d="M283 3074 c1 -32 -2 -48 -12 -52 -10 -3 -12 0 -7 13 4 11 1 22 -6 27
-21 13 -25 10 -32 -26 -6 -29 -9 -33 -32 -28 -23 4 -25 9 -22 45 2 33 -1 42
-14 45 -15 3 -18 -4 -18 -47 0 -48 -2 -51 -25 -51 -16 0 -25 -6 -25 -15 0 -12
7 -14 26 -9 l26 7 -17 -34 c-10 -19 -27 -47 -37 -62 -29 -41 -12 -48 23 -9
l29 32 -3 -61 c-1 -42 2 -63 11 -66 9 -4 12 15 12 73 0 61 3 75 12 66 7 -7 16
-12 20 -12 14 0 9 27 -7 40 -27 22 -19 43 15 37 16 -4 32 -2 35 3 3 6 17 10
31 10 40 0 27 -34 -15 -40 -19 -3 -36 -11 -39 -19 -3 -10 3 -11 28 -6 29 6 31
5 22 -12 -6 -10 -24 -31 -41 -47 -31 -29 -39 -46 -23 -46 5 0 27 16 49 35 l41
35 -5 -60 c-5 -51 -3 -60 10 -60 13 0 17 14 19 67 l3 67 28 -42 c22 -34 33
-42 57 -42 43 0 37 20 -14 52 -25 14 -49 36 -56 47 -10 20 -8 21 35 21 35 0
45 4 45 16 0 14 -8 16 -51 11 -43 -5 -50 -4 -47 10 2 9 18 21 36 25 40 11 43
32 2 26 -28 -4 -29 -3 -32 36 -2 29 -8 42 -20 44 -13 3 -16 -5 -15 -44z"/>
</g>
</svg>
