<?xml version="1.0" standalone="no"?>
<!DOCTYPE svg PUBLIC "-//W3C//DTD SVG 20010904//EN"
 "http://www.w3.org/TR/2001/REC-SVG-20010904/DTD/svg10.dtd">
<svg version="1.0" xmlns="http://www.w3.org/2000/svg"
 width="50.000000pt" height="725.000000pt" viewBox="0 0 50.000000 725.000000"
 preserveAspectRatio="xMidYMid meet">
<metadata>
Created by potrace 1.16, written by Peter Selinger 2001-2019
</metadata>
<g transform="translate(0.000000,725.000000) scale(0.100000,-0.100000)"
fill="#000000" stroke="none">
<path d="M148 7053 c-39 -6 -35 -23 5 -23 41 0 77 10 77 21 0 9 -31 10 -82 2z"/>
<path d="M163 6653 c2 -43 0 -48 -20 -51 -29 -4 -30 -22 -2 -22 20 0 21 -4 18
-92 -3 -61 0 -92 7 -95 14 -5 24 51 24 130 0 50 3 60 20 64 26 7 26 23 -1 23
-18 0 -20 4 -13 45 6 41 4 45 -14 45 -18 0 -20 -6 -19 -47z"/>
<path d="M163 6203 c2 -43 0 -48 -20 -51 -28 -4 -30 -22 -3 -22 l20 0 -20 -37
c-11 -21 -26 -46 -32 -55 -22 -30 3 -34 29 -4 l24 29 -3 -58 c-2 -36 1 -59 8
-62 14 -5 24 51 24 130 0 50 3 60 20 64 26 7 26 23 -1 23 -18 0 -20 4 -13 45
6 41 4 45 -14 45 -18 0 -20 -6 -19 -47z"/>
<path d="M163 5753 c2 -43 0 -48 -20 -51 -28 -4 -30 -22 -3 -22 l20 0 -20 -37
c-11 -21 -26 -46 -32 -55 -22 -31 3 -34 29 -3 l26 29 -7 -56 c-5 -38 -4 -58 4
-63 17 -10 19 -4 27 66 3 35 8 58 11 51 2 -6 8 -12 13 -12 15 0 10 32 -7 51
-17 19 -11 39 12 39 8 0 14 5 14 10 0 6 -9 10 -21 10 -18 0 -20 4 -13 45 6 41
4 45 -14 45 -18 0 -20 -6 -19 -47z"/>
<path d="M163 5303 c2 -43 0 -48 -20 -51 -28 -4 -30 -22 -3 -22 l20 0 -20 -37
c-11 -21 -26 -46 -32 -55 -22 -31 3 -34 29 -3 l26 29 -7 -56 c-5 -38 -4 -58 4
-63 17 -10 19 -4 27 66 3 35 8 58 11 51 2 -6 8 -12 13 -12 15 0 10 32 -7 51
-17 19 -11 39 12 39 8 0 14 5 14 10 0 6 -9 10 -21 10 -18 0 -20 4 -13 45 6 41
4 45 -14 45 -18 0 -20 -6 -19 -47z"/>
<path d="M290 5332 c0 -13 30 -52 41 -52 16 0 10 47 -7 54 -21 8 -34 8 -34 -2z"/>
<path d="M163 4853 c2 -43 0 -48 -20 -51 -28 -4 -30 -22 -3 -22 l20 0 -20 -37
c-11 -21 -26 -46 -32 -55 -22 -31 3 -34 29 -3 l26 29 -7 -56 c-5 -38 -4 -58 4
-63 17 -10 19 -4 27 66 3 35 8 58 11 51 2 -6 8 -12 13 -12 15 0 10 32 -7 51
-17 19 -11 39 12 39 8 0 14 5 14 10 0 6 -9 10 -21 10 -18 0 -20 4 -13 45 6 41
4 45 -14 45 -18 0 -20 -6 -19 -47z"/>
<path d="M294 4875 c3 -8 9 -22 12 -30 5 -12 -2 -15 -30 -15 -26 0 -36 -4 -36
-16 0 -12 6 -15 23 -10 12 4 55 9 95 13 46 4 71 10 69 17 -2 6 -23 10 -46 9
-34 -1 -41 1 -41 17 0 10 -7 21 -16 24 -26 10 -36 7 -30 -9z"/>
<path d="M163 4403 c2 -43 0 -48 -20 -51 -28 -4 -30 -22 -3 -22 l20 0 -20 -37
c-11 -21 -26 -46 -32 -55 -22 -31 3 -34 29 -3 l26 29 -7 -56 c-5 -38 -4 -58 4
-63 17 -10 19 -4 27 66 3 35 8 58 11 51 2 -6 8 -12 13 -12 15 0 10 32 -7 51
-17 19 -11 39 12 39 8 0 14 5 14 10 0 6 -9 10 -21 10 -18 0 -20 4 -13 45 6 41
4 45 -14 45 -18 0 -20 -6 -19 -47z"/>
<path d="M294 4425 c3 -8 9 -22 12 -30 5 -12 -2 -15 -30 -15 -26 0 -36 -4 -36
-16 0 -12 6 -15 25 -10 14 4 25 2 25 -3 0 -5 -11 -23 -25 -39 -41 -49 -31 -61
44 -46 17 4 31 11 31 17 0 5 -13 7 -30 3 -28 -5 -30 -4 -20 14 5 10 15 22 20
25 6 3 10 15 10 26 0 16 7 19 56 19 40 0 54 3 51 13 -2 7 -20 11 -46 10 -34
-1 -41 1 -41 17 0 10 -7 21 -16 24 -26 10 -36 7 -30 -9z"/>
<path d="M163 3953 c2 -43 0 -48 -20 -51 -28 -4 -30 -22 -3 -22 l20 0 -20 -37
c-11 -21 -26 -46 -32 -55 -22 -31 3 -34 29 -3 l26 29 -7 -56 c-5 -38 -4 -58 4
-63 17 -10 19 -4 27 66 3 35 8 58 11 51 2 -6 8 -12 13 -12 15 0 10 32 -7 51
-17 19 -11 39 12 39 8 0 14 5 14 10 0 6 -9 10 -21 10 -18 0 -20 4 -13 45 6 41
4 45 -14 45 -18 0 -20 -6 -19 -47z"/>
<path d="M294 3975 c3 -8 9 -22 12 -30 5 -12 -2 -15 -30 -15 -26 0 -36 -4 -36
-16 0 -12 6 -15 25 -10 14 4 25 2 25 -3 0 -5 -11 -23 -25 -39 -35 -42 -32 -55
10 -50 19 2 35 1 35 -4 0 -4 -20 -22 -45 -40 -67 -49 -61 -65 10 -25 43 25
122 128 111 146 -13 20 -33 11 -39 -18 -5 -21 -13 -30 -34 -34 -36 -7 -37 -5
-13 26 11 14 20 32 20 41 0 13 11 16 56 16 40 0 54 3 51 13 -2 7 -20 11 -46
10 -34 -1 -41 1 -41 17 0 10 -7 21 -16 24 -26 10 -36 7 -30 -9z"/>
<path d="M163 3503 c2 -43 0 -48 -20 -51 -28 -4 -30 -22 -3 -22 l20 0 -20 -37
c-11 -21 -26 -46 -32 -55 -22 -31 3 -34 29 -3 l26 29 -7 -56 c-5 -38 -4 -58 4
-63 17 -10 19 -4 27 66 3 35 8 58 11 51 2 -6 8 -12 13 -12 15 0 10 32 -7 51
-17 19 -11 39 12 39 8 0 14 5 14 10 0 6 -9 10 -21 10 -18 0 -20 4 -13 45 6 41
4 45 -14 45 -18 0 -20 -6 -19 -47z"/>
<path d="M294 3525 c3 -8 9 -22 12 -30 5 -12 -2 -15 -30 -15 -26 0 -36 -4 -36
-16 0 -12 6 -15 25 -10 14 4 25 2 25 -3 0 -5 -11 -23 -25 -39 -35 -42 -32 -55
10 -50 19 2 35 1 35 -4 0 -4 -20 -22 -45 -40 -67 -49 -61 -65 10 -25 43 25
122 128 111 146 -13 20 -33 11 -39 -18 -5 -21 -13 -30 -34 -34 -36 -7 -37 -5
-13 26 11 14 20 32 20 41 0 13 11 16 56 16 40 0 54 3 51 13 -2 7 -20 11 -46
10 -34 -1 -41 1 -41 17 0 10 -7 21 -16 24 -26 10 -36 7 -30 -9z"/>
<path d="M370 3362 c0 -22 -61 -88 -90 -97 -17 -6 -29 -25 -15 -25 23 0 81 36
110 67 38 42 43 58 19 67 -23 9 -24 8 -24 -12z"/>
<path d="M163 3053 c2 -43 0 -48 -20 -51 -28 -4 -30 -22 -3 -22 l20 0 -20 -37
c-11 -21 -26 -46 -32 -55 -22 -31 3 -34 29 -3 l26 29 -7 -56 c-5 -38 -4 -58 4
-63 17 -10 19 -4 27 66 3 35 8 58 11 51 2 -6 8 -12 13 -12 15 0 10 32 -7 51
-17 19 -11 39 12 39 8 0 14 5 14 10 0 6 -9 10 -21 10 -18 0 -20 4 -13 45 6 41
4 45 -14 45 -18 0 -20 -6 -19 -47z"/>
<path d="M294 3075 c3 -8 9 -22 12 -30 5 -12 -2 -15 -30 -15 -26 0 -36 -4 -36
-16 0 -12 6 -15 25 -10 14 4 25 2 25 -3 0 -5 -11 -23 -25 -39 -35 -42 -32 -55
10 -50 19 2 35 1 35 -4 0 -4 -20 -22 -45 -40 -67 -49 -61 -65 10 -25 43 25
122 128 111 146 -13 20 -33 11 -39 -18 -5 -21 -13 -30 -34 -34 -36 -7 -37 -5
-13 26 11 14 20 32 20 41 0 13 11 16 56 16 40 0 54 3 51 13 -2 7 -20 11 -46
10 -34 -1 -41 1 -41 17 0 10 -7 21 -16 24 -26 10 -36 7 -30 -9z"/>
<path d="M370 2912 c0 -22 -61 -88 -90 -97 -11 -3 -20 -11 -20 -16 0 -13 9
-11 57 12 l44 21 23 -21 c29 -27 38 -27 34 1 -2 12 -13 28 -26 34 -22 11 -22
11 -2 29 24 22 26 41 4 49 -23 9 -24 8 -24 -12z"/>
</g>
</svg>
