<?xml version="1.0" standalone="no"?>
<!DOCTYPE svg PUBLIC "-//W3C//DTD SVG 20010904//EN"
 "http://www.w3.org/TR/2001/REC-SVG-20010904/DTD/svg10.dtd">
<svg version="1.0" xmlns="http://www.w3.org/2000/svg"
 width="50.000000pt" height="725.000000pt" viewBox="0 0 50.000000 725.000000"
 preserveAspectRatio="xMidYMid meet">
<metadata>
Created by potrace 1.16, written by Peter Selinger 2001-2019
</metadata>
<g transform="translate(0.000000,725.000000) scale(0.100000,-0.100000)"
fill="#000000" stroke="none">
<path d="M148 7067 c-50 -11 -65 -27 -25 -27 49 0 97 13 97 26 0 16 -5 16 -72
1z"/>
<path d="M152 6663 c3 -46 2 -48 -24 -51 -36 -4 -37 -22 -2 -22 l27 0 -7 -95
c-5 -78 -4 -95 8 -95 10 0 15 25 21 100 6 89 9 100 26 100 11 0 19 7 19 16 0
12 -6 15 -21 11 -18 -5 -20 -2 -17 36 2 33 0 42 -15 45 -16 3 -18 -2 -15 -45z"/>
<path d="M152 6213 c3 -46 2 -48 -24 -51 -32 -4 -38 -22 -8 -22 29 0 25 -22
-15 -74 -19 -26 -35 -48 -35 -51 0 -13 21 -2 50 28 l31 32 -7 -62 c-5 -53 -4
-63 8 -63 12 0 17 21 23 100 6 89 9 100 26 100 11 0 19 7 19 16 0 12 -6 15
-21 11 -18 -5 -20 -2 -17 36 2 33 0 42 -15 45 -16 3 -18 -2 -15 -45z"/>
<path d="M152 5763 c3 -46 2 -48 -24 -51 -32 -4 -38 -22 -8 -22 29 0 25 -22
-15 -74 -19 -26 -35 -48 -35 -51 0 -13 21 -2 50 28 l31 32 -7 -62 c-6 -54 -4
-63 10 -63 12 0 16 10 16 48 0 69 8 91 31 85 25 -7 24 13 -1 29 -11 7 -20 18
-20 25 0 7 9 13 20 13 12 0 20 7 20 16 0 12 -6 15 -21 11 -18 -5 -20 -2 -17
36 2 33 0 42 -15 45 -16 3 -18 -2 -15 -45z"/>
<path d="M280 5365 c0 -13 24 -55 32 -55 15 0 21 30 8 45 -11 14 -40 21 -40
10z"/>
<path d="M152 5313 c3 -46 2 -48 -24 -51 -32 -4 -38 -22 -8 -22 29 0 25 -22
-15 -74 -19 -26 -35 -48 -35 -51 0 -13 21 -2 50 28 l31 32 -7 -62 c-6 -54 -4
-63 10 -63 12 0 16 10 16 48 0 69 8 91 31 85 25 -7 24 13 -1 29 -11 7 -20 18
-20 25 0 7 9 13 20 13 12 0 20 7 20 16 0 12 -6 15 -21 11 -18 -5 -20 -2 -17
36 2 33 0 42 -15 45 -16 3 -18 -2 -15 -45z"/>
<path d="M284 4904 c13 -34 11 -39 -16 -42 -16 -2 -28 -8 -28 -14 0 -11 112
-4 145 8 27 11 16 25 -17 22 -25 -2 -36 2 -43 17 -14 27 -51 35 -41 9z"/>
<path d="M152 4863 c3 -46 2 -48 -24 -51 -32 -4 -38 -22 -8 -22 29 0 25 -22
-15 -74 -19 -26 -35 -48 -35 -51 0 -13 21 -2 50 28 l31 32 -7 -62 c-6 -54 -4
-63 10 -63 12 0 16 10 16 48 0 69 8 91 31 85 25 -7 24 13 -1 29 -11 7 -20 18
-20 25 0 7 9 13 20 13 12 0 20 7 20 16 0 12 -6 15 -21 11 -18 -5 -20 -2 -17
36 2 33 0 42 -15 45 -16 3 -18 -2 -15 -45z"/>
<path d="M284 4454 c13 -34 11 -39 -16 -42 -25 -3 -41 -22 -19 -22 5 0 15 -16
21 -35 15 -46 34 -46 27 0 -5 33 -4 35 31 41 57 9 72 14 72 25 0 6 -15 9 -32
7 -25 -2 -36 2 -43 17 -14 27 -51 35 -41 9z"/>
<path d="M152 4413 c3 -46 2 -48 -24 -51 -32 -4 -38 -22 -8 -22 29 0 25 -22
-15 -74 -19 -26 -35 -48 -35 -51 0 -13 21 -2 50 28 l31 32 -7 -62 c-6 -54 -4
-63 10 -63 12 0 16 10 16 48 0 69 8 91 31 85 25 -7 24 13 -1 29 -11 7 -20 18
-20 25 0 7 9 13 20 13 12 0 20 7 20 16 0 12 -6 15 -21 11 -18 -5 -20 -2 -17
36 2 33 0 42 -15 45 -16 3 -18 -2 -15 -45z"/>
<path d="M284 4004 c13 -34 11 -39 -16 -42 -25 -3 -41 -22 -19 -22 5 0 15 -16
21 -35 6 -19 16 -35 22 -35 7 0 8 14 5 35 -3 19 -2 35 3 35 5 0 16 3 26 7 15
5 16 2 10 -30 -9 -49 9 -48 32 1 9 20 20 39 25 40 20 9 3 23 -25 20 -25 -2
-36 2 -43 17 -14 27 -51 35 -41 9z"/>
<path d="M152 3963 c3 -46 2 -48 -24 -51 -32 -4 -38 -22 -8 -22 29 0 25 -22
-15 -74 -19 -26 -35 -48 -35 -51 0 -13 21 -2 50 28 l31 32 -7 -62 c-6 -54 -4
-63 10 -63 12 0 16 10 16 48 0 69 8 91 31 85 25 -7 24 13 -1 29 -11 7 -20 18
-20 25 0 7 9 13 20 13 12 0 20 7 20 16 0 12 -6 15 -21 11 -18 -5 -20 -2 -17
36 2 33 0 42 -15 45 -16 3 -18 -2 -15 -45z"/>
<path d="M284 3554 c13 -34 11 -39 -16 -42 -25 -3 -41 -22 -19 -22 5 0 14 -13
19 -29 10 -28 9 -30 -15 -33 -15 -2 -29 -9 -31 -17 -4 -11 3 -13 34 -7 22 3
72 9 112 13 39 3 72 9 72 14 0 12 -38 21 -62 14 -18 -6 -20 -4 -13 11 4 11 10
27 12 37 3 9 9 17 14 17 5 0 9 5 9 11 0 6 -14 9 -32 7 -25 -2 -36 2 -43 17
-14 27 -51 35 -41 9z m56 -68 c0 -25 -12 -46 -26 -46 -8 0 -14 4 -14 9 0 5 -3
16 -6 24 -5 14 6 21 39 26 4 0 7 -5 7 -13z"/>
<path d="M152 3513 c3 -46 2 -48 -24 -51 -32 -4 -38 -22 -8 -22 29 0 25 -22
-15 -74 -19 -26 -35 -48 -35 -51 0 -13 21 -2 50 28 l31 32 -7 -62 c-6 -54 -4
-63 10 -63 12 0 16 10 16 48 0 69 8 91 31 85 25 -7 24 13 -1 29 -11 7 -20 18
-20 25 0 7 9 13 20 13 12 0 20 7 20 16 0 12 -6 15 -21 11 -18 -5 -20 -2 -17
36 2 33 0 42 -15 45 -16 3 -18 -2 -15 -45z"/>
<path d="M284 3104 c13 -34 11 -39 -16 -42 -25 -3 -41 -22 -19 -22 5 0 14 -13
19 -29 10 -28 9 -30 -15 -33 -15 -2 -29 -9 -31 -17 -4 -11 3 -13 34 -7 22 3
72 9 112 13 39 3 72 9 72 14 0 12 -38 21 -62 14 -18 -6 -20 -4 -13 11 4 11 10
27 12 37 3 9 9 17 14 17 5 0 9 5 9 11 0 6 -14 9 -32 7 -25 -2 -36 2 -43 17
-14 27 -51 35 -41 9z m56 -68 c0 -25 -12 -46 -26 -46 -8 0 -14 4 -14 9 0 5 -3
16 -6 24 -5 14 6 21 39 26 4 0 7 -5 7 -13z"/>
<path d="M152 3063 c3 -46 2 -48 -24 -51 -32 -4 -38 -22 -8 -22 29 0 25 -22
-15 -74 -19 -26 -35 -48 -35 -51 0 -13 21 -2 50 28 l31 32 -7 -62 c-6 -54 -4
-63 10 -63 12 0 16 10 16 48 0 69 8 91 31 85 25 -7 24 13 -1 29 -11 7 -20 18
-20 25 0 7 9 13 20 13 12 0 20 7 20 16 0 12 -6 15 -21 11 -18 -5 -20 -2 -17
36 2 33 0 42 -15 45 -16 3 -18 -2 -15 -45z"/>
<path d="M296 2919 c-59 -9 -74 -14 -64 -24 10 -10 189 8 185 19 -5 14 -48 16
-121 5z"/>
<path d="M284 2654 c13 -34 11 -39 -16 -42 -25 -3 -41 -22 -19 -22 5 0 14 -13
19 -29 10 -28 9 -30 -15 -33 -15 -2 -29 -9 -31 -17 -4 -11 4 -13 37 -7 36 5
41 4 41 -13 0 -15 -9 -22 -35 -27 -19 -3 -35 -10 -35 -15 0 -5 16 -9 35 -9
l35 0 0 -60 c0 -33 4 -60 9 -60 10 0 21 49 21 96 0 34 0 34 46 34 32 0 44 4
41 13 -2 7 -21 12 -46 11 -37 -1 -42 2 -39 20 3 18 11 21 56 24 28 2 52 7 52
12 0 13 -37 22 -62 15 -18 -6 -20 -4 -13 11 4 11 10 27 12 37 3 9 9 17 14 17
5 0 9 5 9 11 0 6 -14 9 -32 7 -25 -2 -36 2 -43 17 -14 27 -51 35 -41 9z m56
-68 c0 -25 -12 -46 -26 -46 -8 0 -14 4 -14 9 0 5 -3 16 -6 24 -5 14 6 21 39
26 4 0 7 -5 7 -13z"/>
<path d="M152 2613 c3 -46 2 -48 -24 -51 -32 -4 -38 -22 -8 -22 29 0 25 -22
-15 -74 -19 -26 -35 -48 -35 -51 0 -13 21 -2 50 28 l31 32 -7 -62 c-6 -54 -4
-63 10 -63 12 0 16 10 16 48 0 69 8 91 31 85 25 -7 24 13 -1 29 -11 7 -20 18
-20 25 0 7 9 13 20 13 12 0 20 7 20 16 0 12 -6 15 -21 11 -18 -5 -20 -2 -17
36 2 33 0 42 -15 45 -16 3 -18 -2 -15 -45z"/>
</g>
</svg>
