<?xml version="1.0" standalone="no"?>
<!DOCTYPE svg PUBLIC "-//W3C//DTD SVG 20010904//EN"
 "http://www.w3.org/TR/2001/REC-SVG-20010904/DTD/svg10.dtd">
<svg version="1.0" xmlns="http://www.w3.org/2000/svg"
 width="50.000000pt" height="725.000000pt" viewBox="0 0 50.000000 725.000000"
 preserveAspectRatio="xMidYMid meet">
<metadata>
Created by potrace 1.16, written by Peter Selinger 2001-2019
</metadata>
<g transform="translate(0.000000,725.000000) scale(0.100000,-0.100000)"
fill="#000000" stroke="none">
<path d="M148 7063 c-37 -6 -36 -23 1 -23 43 0 91 11 91 21 0 9 -41 10 -92 2z"/>
<path d="M167 6665 c6 -54 5 -55 -21 -55 -14 0 -26 -4 -26 -10 0 -5 11 -10 25
-10 23 0 25 -4 25 -42 -1 -24 -5 -63 -9 -86 -10 -50 -4 -85 13 -79 7 2 13 44
16 108 5 98 6 104 28 107 29 4 29 22 -1 22 -20 0 -22 4 -19 41 3 28 0 44 -9
50 -25 16 -28 10 -22 -46z"/>
<path d="M167 6215 c6 -54 5 -55 -21 -55 -14 0 -26 -4 -26 -10 0 -5 9 -10 20
-10 26 0 26 -4 -11 -68 -36 -64 -29 -82 12 -32 l30 35 -7 -45 c-4 -25 -7 -49
-7 -55 0 -34 4 -46 16 -43 8 3 14 38 17 109 5 98 6 104 28 107 29 4 29 22 -1
22 -20 0 -22 4 -19 41 3 28 0 44 -9 50 -25 16 -28 10 -22 -46z"/>
<path d="M167 5765 c6 -54 5 -55 -21 -55 -14 0 -26 -4 -26 -10 0 -5 9 -10 20
-10 26 0 26 -4 -11 -68 -36 -64 -29 -81 13 -32 l29 35 -7 -40 c-9 -49 -9 -93
-1 -101 16 -17 27 14 27 79 0 55 3 68 12 59 17 -17 28 -15 28 7 0 11 -9 23
-21 26 -26 9 -21 39 9 43 29 4 29 22 -1 22 -20 0 -22 4 -19 41 3 28 0 44 -9
50 -25 16 -28 10 -22 -46z"/>
<path d="M167 5315 c6 -54 5 -55 -21 -55 -14 0 -26 -4 -26 -10 0 -5 9 -10 20
-10 26 0 26 -4 -11 -68 -36 -64 -29 -81 13 -32 l29 35 -7 -40 c-9 -49 -9 -93
-1 -101 16 -17 27 14 27 79 0 55 3 68 12 59 17 -17 28 -15 28 7 0 11 -9 23
-21 26 -26 9 -21 39 9 43 29 4 29 22 -1 22 -20 0 -22 4 -19 41 3 28 0 44 -9
50 -25 16 -28 10 -22 -46z"/>
<path d="M304 5355 c3 -9 6 -41 6 -72 0 -39 4 -53 13 -50 8 2 12 25 12 68 0
55 -3 64 -19 67 -14 3 -17 0 -12 -13z"/>
<path d="M167 4865 c6 -54 5 -55 -21 -55 -14 0 -26 -4 -26 -10 0 -5 9 -10 20
-10 26 0 26 -4 -11 -68 -36 -64 -29 -81 13 -32 l29 35 -7 -40 c-9 -49 -9 -93
-1 -101 16 -17 27 14 27 79 0 55 3 68 12 59 17 -17 28 -15 28 7 0 11 -9 23
-21 26 -26 9 -21 39 9 43 29 4 29 22 -1 22 -20 0 -22 4 -19 41 3 28 0 44 -9
50 -25 16 -28 10 -22 -46z"/>
<path d="M304 4905 c3 -9 6 -41 6 -72 0 -39 4 -53 13 -50 8 2 12 25 12 68 0
55 -3 64 -19 67 -14 3 -17 0 -12 -13z"/>
<path d="M240 4853 c1 -14 27 -43 39 -43 15 0 14 23 -1 38 -13 13 -38 16 -38
5z"/>
<path d="M167 4415 c6 -54 5 -55 -21 -55 -14 0 -26 -4 -26 -10 0 -5 9 -10 20
-10 26 0 26 -4 -11 -68 -36 -64 -29 -81 13 -32 l29 35 -7 -40 c-9 -49 -9 -93
-1 -101 16 -17 27 14 27 79 0 55 3 68 12 59 17 -17 28 -15 28 7 0 11 -9 23
-21 26 -26 9 -21 39 9 43 29 4 29 22 -1 22 -20 0 -22 4 -19 41 3 28 0 44 -9
50 -25 16 -28 10 -22 -46z"/>
<path d="M304 4455 c3 -9 6 -41 6 -72 0 -39 4 -53 13 -50 8 2 12 25 12 68 0
55 -3 64 -19 67 -14 3 -17 0 -12 -13z"/>
<path d="M375 4410 c-9 -18 -14 -34 -11 -37 8 -9 67 38 63 51 -8 24 -36 17
-52 -14z"/>
<path d="M240 4403 c1 -14 27 -43 39 -43 15 0 14 23 -1 38 -13 13 -38 16 -38
5z"/>
<path d="M167 3965 c6 -54 5 -55 -21 -55 -14 0 -26 -4 -26 -10 0 -5 9 -10 20
-10 26 0 26 -4 -11 -68 -36 -64 -29 -81 13 -32 l29 35 -7 -40 c-9 -49 -9 -93
-1 -101 16 -17 27 14 27 79 0 55 3 68 12 59 17 -17 28 -15 28 7 0 11 -9 23
-21 26 -26 9 -21 39 9 43 29 4 29 22 -1 22 -20 0 -22 4 -19 41 3 28 0 44 -9
50 -25 16 -28 10 -22 -46z"/>
<path d="M304 4005 c3 -9 6 -41 6 -72 0 -39 4 -53 13 -50 8 2 12 25 12 68 0
55 -3 64 -19 67 -14 3 -17 0 -12 -13z"/>
<path d="M375 3960 c-9 -18 -14 -34 -11 -37 8 -9 67 38 63 51 -8 24 -36 17
-52 -14z"/>
<path d="M240 3953 c1 -14 27 -43 39 -43 15 0 14 23 -1 38 -13 13 -38 16 -38
5z"/>
<path d="M257 3847 c5 -47 -2 -91 -22 -139 -4 -11 -3 -18 4 -18 20 0 38 54 43
127 5 68 0 83 -27 83 -2 0 -1 -24 2 -53z"/>
<path d="M167 3515 c6 -54 5 -55 -21 -55 -14 0 -26 -4 -26 -10 0 -5 9 -10 20
-10 26 0 26 -4 -11 -68 -36 -64 -29 -81 13 -32 l29 35 -7 -40 c-9 -49 -9 -93
-1 -101 16 -17 27 14 27 79 0 55 3 68 12 59 17 -17 28 -15 28 7 0 11 -9 23
-21 26 -26 9 -21 39 9 43 29 4 29 22 -1 22 -20 0 -22 4 -19 41 3 28 0 44 -9
50 -25 16 -28 10 -22 -46z"/>
<path d="M308 3504 l5 -67 -31 6 -30 6 5 -52 c5 -47 -2 -91 -22 -139 -4 -11
-3 -18 4 -18 20 0 41 59 41 114 0 61 0 61 53 71 l37 7 0 -81 c0 -65 -3 -81
-15 -81 -19 0 -19 -9 0 -35 13 -17 17 -17 29 -5 10 11 15 45 17 115 l3 100
-31 3 c-31 3 -32 4 -35 60 -2 42 -7 58 -18 60 -14 2 -15 -8 -12 -64z"/>
<path d="M375 3510 c-9 -18 -14 -34 -11 -37 8 -9 67 38 63 51 -8 24 -36 17
-52 -14z"/>
<path d="M240 3503 c1 -14 27 -43 39 -43 15 0 14 23 -1 38 -13 13 -38 16 -38
5z"/>
<path d="M167 3065 c6 -54 5 -55 -21 -55 -14 0 -26 -4 -26 -10 0 -5 9 -10 20
-10 26 0 26 -4 -11 -68 -36 -64 -29 -81 13 -32 l29 35 -7 -40 c-9 -49 -9 -93
-1 -101 16 -17 27 14 27 79 0 55 3 68 12 59 17 -17 28 -15 28 7 0 11 -9 23
-21 26 -26 9 -21 39 9 43 29 4 29 22 -1 22 -20 0 -22 4 -19 41 3 28 0 44 -9
50 -25 16 -28 10 -22 -46z"/>
<path d="M308 3054 l5 -67 -31 6 -30 6 5 -52 c5 -47 -2 -91 -22 -139 -4 -11
-3 -18 4 -18 18 0 41 57 41 105 0 46 0 46 22 31 28 -20 48 -20 48 -1 0 9 -12
18 -30 22 -16 3 -30 9 -30 13 0 7 48 20 71 20 5 0 9 -36 9 -80 0 -64 -3 -80
-15 -80 -19 0 -19 -9 0 -35 13 -17 17 -17 29 -5 10 11 15 45 17 115 l3 100
-31 3 c-31 3 -32 4 -35 60 -2 42 -7 58 -18 60 -14 2 -15 -8 -12 -64z"/>
<path d="M375 3060 c-9 -18 -14 -34 -11 -37 8 -9 67 38 63 51 -8 24 -36 17
-52 -14z"/>
<path d="M240 3053 c1 -14 27 -43 39 -43 15 0 14 23 -1 38 -13 13 -38 16 -38
5z"/>
<path d="M167 2615 c6 -54 5 -55 -21 -55 -14 0 -26 -4 -26 -10 0 -5 9 -10 20
-10 26 0 26 -4 -11 -68 -36 -64 -29 -81 13 -32 l29 35 -7 -40 c-9 -49 -9 -93
-1 -101 16 -17 27 14 27 79 0 55 3 68 12 59 17 -17 28 -15 28 7 0 11 -9 23
-21 26 -26 9 -21 39 9 43 29 4 29 22 -1 22 -20 0 -22 4 -19 41 3 28 0 44 -9
50 -25 16 -28 10 -22 -46z"/>
<path d="M308 2604 l5 -67 -31 6 -30 6 5 -52 c5 -47 -2 -91 -22 -139 -11 -29
14 -21 27 7 9 20 81 65 104 65 2 0 4 -13 4 -30 0 -20 -5 -30 -15 -30 -19 0
-19 -9 0 -35 13 -17 17 -17 29 -5 10 11 15 45 17 115 l3 100 -31 3 c-31 3 -32
4 -35 60 -2 42 -7 58 -18 60 -14 2 -15 -8 -12 -64z m62 -112 c0 -36 -2 -40
-39 -50 -52 -16 -51 -16 -51 19 0 29 1 30 22 15 28 -20 48 -20 48 -1 0 9 -12
18 -30 22 -35 7 -39 20 -7 26 54 10 57 9 57 -31z"/>
<path d="M375 2610 c-9 -18 -14 -34 -11 -37 8 -9 67 38 63 51 -8 24 -36 17
-52 -14z"/>
<path d="M240 2603 c1 -14 27 -43 39 -43 15 0 14 23 -1 38 -13 13 -38 16 -38
5z"/>
</g>
</svg>
