<?xml version="1.0" standalone="no"?>
<!DOCTYPE svg PUBLIC "-//W3C//DTD SVG 20010904//EN"
 "http://www.w3.org/TR/2001/REC-SVG-20010904/DTD/svg10.dtd">
<svg version="1.0" xmlns="http://www.w3.org/2000/svg"
 width="50.000000pt" height="725.000000pt" viewBox="0 0 50.000000 725.000000"
 preserveAspectRatio="xMidYMid meet">
<metadata>
Created by potrace 1.16, written by Peter Selinger 2001-2019
</metadata>
<g transform="translate(0.000000,725.000000) scale(0.100000,-0.100000)"
fill="#000000" stroke="none">
<path d="M143 7048 c-60 -13 -56 -32 5 -24 63 9 82 15 82 27 0 11 -30 10 -87
-3z"/>
<path d="M170 6651 c0 -48 -1 -49 -35 -55 -48 -9 -46 -30 1 -23 l37 6 -7 -94
c-6 -82 -5 -95 8 -95 13 0 16 16 16 94 0 86 2 95 20 101 23 7 27 25 5 25 -11
0 -15 12 -15 45 0 33 -4 45 -15 45 -11 0 -15 -12 -15 -49z"/>
<path d="M170 6201 c0 -48 -1 -49 -35 -55 -43 -8 -48 -30 -5 -24 17 3 30 2 30
-1 0 -4 -16 -30 -36 -59 -43 -65 -36 -82 12 -29 l35 37 -7 -65 c-6 -56 -5 -65
10 -65 14 0 16 14 16 94 0 86 2 95 20 101 23 7 27 25 5 25 -11 0 -15 12 -15
45 0 33 -4 45 -15 45 -11 0 -15 -12 -15 -49z"/>
<path d="M170 5751 c0 -48 -1 -49 -35 -55 -43 -8 -48 -30 -5 -24 17 3 30 2 30
-1 0 -4 -16 -30 -36 -59 -43 -65 -36 -82 12 -29 l35 37 -7 -65 c-6 -56 -5 -65
10 -65 13 0 16 12 16 72 0 56 3 69 12 60 16 -16 28 -15 28 3 0 8 -9 19 -20 25
-11 6 -20 15 -20 20 0 5 9 12 20 15 23 7 27 25 5 25 -11 0 -15 12 -15 45 0 33
-4 45 -15 45 -11 0 -15 -12 -15 -49z"/>
<path d="M170 5301 c0 -48 -1 -49 -35 -55 -43 -8 -48 -30 -5 -24 17 3 30 2 30
-1 0 -4 -16 -30 -36 -59 -43 -65 -36 -82 12 -29 l35 37 -7 -65 c-6 -56 -5 -65
10 -65 13 0 16 12 16 72 0 56 3 69 12 60 16 -16 28 -15 28 3 0 8 -9 19 -20 25
-11 6 -20 15 -20 20 0 5 9 12 20 15 23 7 27 25 5 25 -11 0 -15 12 -15 45 0 33
-4 45 -15 45 -11 0 -15 -12 -15 -49z"/>
<path d="M238 5198 c-4 -98 2 -143 15 -127 3 2 7 57 11 122 5 96 4 117 -8 117
-11 0 -15 -25 -18 -112z"/>
<path d="M170 4851 c0 -48 -1 -49 -35 -55 -43 -8 -48 -30 -5 -24 17 3 30 2 30
-1 0 -4 -16 -30 -36 -59 -43 -65 -36 -82 12 -29 l35 37 -7 -65 c-6 -56 -5 -65
10 -65 13 0 16 12 16 72 0 56 3 69 12 60 16 -16 28 -15 28 3 0 8 -9 19 -20 25
-11 6 -20 15 -20 20 0 5 9 12 20 15 23 7 27 25 5 25 -11 0 -15 12 -15 45 0 33
-4 45 -15 45 -11 0 -15 -12 -15 -49z"/>
<path d="M360 4870 c-14 -4 -46 -8 -72 -9 l-48 -1 -2 -95 c-1 -52 -2 -105 -2
-117 -1 -12 4 -23 10 -25 8 -3 13 29 16 97 3 56 9 105 14 109 5 5 32 12 60 16
l51 6 7 -32 c10 -50 7 -159 -4 -159 -13 0 -13 -30 0 -50 20 -32 31 9 33 129 2
106 0 124 -15 132 -9 5 -18 9 -20 8 -2 -1 -14 -5 -28 -9z"/>
<path d="M170 4401 c0 -48 -1 -49 -35 -55 -43 -8 -48 -30 -5 -24 17 3 30 2 30
-1 0 -4 -16 -30 -36 -59 -43 -65 -36 -82 12 -29 l35 37 -7 -65 c-6 -56 -5 -65
10 -65 13 0 16 12 16 72 0 56 3 69 12 60 16 -16 28 -15 28 3 0 8 -9 19 -20 25
-11 6 -20 15 -20 20 0 5 9 12 20 15 23 7 27 25 5 25 -11 0 -15 12 -15 45 0 33
-4 45 -15 45 -11 0 -15 -12 -15 -49z"/>
<path d="M360 4420 c-14 -4 -46 -8 -72 -9 l-48 -1 -2 -95 c-1 -52 -2 -105 -2
-117 -1 -12 4 -23 10 -25 8 -3 13 29 16 97 3 56 9 105 14 109 5 5 32 12 60 16
l51 6 7 -32 c10 -50 7 -159 -4 -159 -13 0 -13 -30 0 -50 20 -32 31 9 33 129 2
106 0 124 -15 132 -9 5 -18 9 -20 8 -2 -1 -14 -5 -28 -9z"/>
<path d="M290 4330 c-8 -5 -12 -11 -10 -13 10 -7 100 5 100 14 0 12 -71 11
-90 -1z"/>
<path d="M170 3951 c0 -48 -1 -49 -35 -55 -43 -8 -48 -30 -5 -24 17 3 30 2 30
-1 0 -4 -16 -30 -36 -59 -43 -65 -36 -82 12 -29 l35 37 -7 -65 c-6 -56 -5 -65
10 -65 13 0 16 12 16 72 0 56 3 69 12 60 16 -16 28 -15 28 3 0 8 -9 19 -20 25
-11 6 -20 15 -20 20 0 5 9 12 20 15 23 7 27 25 5 25 -11 0 -15 12 -15 45 0 33
-4 45 -15 45 -11 0 -15 -12 -15 -49z"/>
<path d="M360 3970 c-14 -4 -46 -8 -72 -9 l-48 -1 -2 -95 c-1 -52 -2 -105 -2
-117 -1 -12 4 -23 10 -25 8 -3 13 29 16 97 3 56 9 105 14 109 5 5 32 12 60 16
l51 6 7 -32 c10 -50 7 -159 -4 -159 -13 0 -13 -30 0 -50 20 -32 31 9 33 129 2
106 0 124 -15 132 -9 5 -18 9 -20 8 -2 -1 -14 -5 -28 -9z"/>
<path d="M315 3911 c4 -14 0 -21 -15 -26 -11 -3 -20 -11 -20 -17 0 -5 6 -8 14
-5 7 3 19 0 26 -6 10 -9 14 -9 17 1 3 6 13 12 24 12 10 0 19 5 19 10 0 6 -9
10 -20 10 -13 0 -20 7 -20 20 0 11 -7 20 -16 20 -11 0 -13 -6 -9 -19z"/>
<path d="M310 3805 c0 -19 5 -35 10 -35 6 0 10 16 10 35 0 19 -4 35 -10 35 -5
0 -10 -16 -10 -35z"/>
<path d="M170 3501 c0 -48 -1 -49 -35 -55 -43 -8 -48 -30 -5 -24 17 3 30 2 30
-1 0 -4 -16 -30 -36 -59 -43 -65 -36 -82 12 -29 l35 37 -7 -65 c-6 -56 -5 -65
10 -65 13 0 16 12 16 72 0 56 3 69 12 60 16 -16 28 -15 28 3 0 8 -9 19 -20 25
-11 6 -20 15 -20 20 0 5 9 12 20 15 23 7 27 25 5 25 -11 0 -15 12 -15 45 0 33
-4 45 -15 45 -11 0 -15 -12 -15 -49z"/>
<path d="M360 3520 c-14 -4 -46 -8 -72 -9 l-48 -1 -2 -95 c-1 -52 -2 -105 -2
-117 -1 -12 4 -23 10 -25 8 -3 13 29 16 97 3 56 9 105 14 109 5 5 32 12 60 16
l51 6 7 -32 c10 -50 7 -159 -4 -159 -13 0 -13 -30 0 -50 20 -32 31 9 33 129 2
106 0 124 -15 132 -9 5 -18 9 -20 8 -2 -1 -14 -5 -28 -9z"/>
<path d="M315 3461 c4 -14 0 -21 -15 -26 -11 -3 -20 -11 -20 -17 0 -5 7 -7 16
-4 15 6 15 4 0 -18 -20 -32 -21 -50 -1 -42 10 4 15 -1 15 -14 0 -11 5 -20 10
-20 6 0 10 15 10 34 0 47 9 66 31 66 10 0 19 5 19 10 0 6 -9 10 -20 10 -13 0
-20 7 -20 20 0 11 -7 20 -16 20 -11 0 -13 -6 -9 -19z"/>
<path d="M170 3051 c0 -48 -1 -49 -35 -55 -43 -8 -48 -30 -5 -24 17 3 30 2 30
-1 0 -4 -16 -30 -36 -59 -43 -65 -36 -82 12 -29 l35 37 -7 -65 c-6 -56 -5 -65
10 -65 13 0 16 12 16 72 0 56 3 69 12 60 16 -16 28 -15 28 3 0 8 -9 19 -20 25
-11 6 -20 15 -20 20 0 5 9 12 20 15 23 7 27 25 5 25 -11 0 -15 12 -15 45 0 33
-4 45 -15 45 -11 0 -15 -12 -15 -49z"/>
<path d="M360 3070 c-14 -4 -46 -8 -72 -9 l-48 -1 -2 -95 c-1 -52 -2 -105 -2
-117 -1 -12 4 -23 10 -25 8 -3 13 29 16 97 3 56 9 105 14 109 5 5 32 12 60 16
l51 6 7 -32 c10 -50 7 -159 -4 -159 -13 0 -13 -30 0 -50 20 -32 31 9 33 129 2
106 0 124 -15 132 -9 5 -18 9 -20 8 -2 -1 -14 -5 -28 -9z"/>
<path d="M315 3011 c4 -14 0 -21 -15 -26 -11 -3 -20 -11 -20 -17 0 -5 7 -7 16
-4 15 6 15 4 0 -18 -20 -32 -21 -50 -1 -42 10 4 15 -1 15 -14 0 -11 5 -20 10
-20 6 0 10 17 10 37 0 37 0 37 16 15 8 -12 19 -22 25 -22 17 0 9 30 -11 42
-11 7 -20 16 -20 20 0 5 9 8 20 8 11 0 20 5 20 10 0 6 -9 10 -20 10 -13 0 -20
7 -20 20 0 11 -7 20 -16 20 -11 0 -13 -6 -9 -19z"/>
<path d="M170 2601 c0 -48 -1 -49 -35 -55 -43 -8 -48 -30 -5 -24 17 3 30 2 30
-1 0 -4 -16 -30 -36 -59 -43 -65 -36 -82 12 -29 l35 37 -7 -65 c-6 -56 -5 -65
10 -65 13 0 16 12 16 72 0 56 3 69 12 60 16 -16 28 -15 28 3 0 8 -9 19 -20 25
-11 6 -20 15 -20 20 0 5 9 12 20 15 23 7 27 25 5 25 -11 0 -15 12 -15 45 0 33
-4 45 -15 45 -11 0 -15 -12 -15 -49z"/>
<path d="M360 2620 c-14 -4 -46 -8 -71 -9 l-47 -1 -4 -112 c-3 -62 -2 -116 1
-119 3 -3 35 -3 71 1 63 6 72 4 84 -25 2 -6 8 -6 15 1 8 7 13 56 14 133 2 106
0 124 -15 132 -9 5 -18 9 -20 8 -2 -1 -14 -5 -28 -9z m34 -51 c3 -17 6 -60 6
-95 l0 -64 -32 0 c-18 0 -50 -3 -70 -6 l-38 -7 1 64 c2 105 9 123 49 130 71
13 77 11 84 -22z"/>
<path d="M315 2561 c4 -14 0 -21 -15 -26 -11 -3 -20 -11 -20 -17 0 -5 7 -7 16
-4 15 6 15 4 0 -18 -20 -32 -21 -50 -1 -42 10 4 15 -1 15 -14 0 -11 5 -20 10
-20 6 0 10 17 10 37 0 37 0 37 16 15 8 -12 19 -22 25 -22 17 0 9 30 -11 42
-11 7 -20 16 -20 20 0 5 9 8 20 8 11 0 20 5 20 10 0 6 -9 10 -20 10 -13 0 -20
7 -20 20 0 11 -7 20 -16 20 -11 0 -13 -6 -9 -19z"/>
</g>
</svg>
