<?xml version="1.0" standalone="no"?>
<!DOCTYPE svg PUBLIC "-//W3C//DTD SVG 20010904//EN"
 "http://www.w3.org/TR/2001/REC-SVG-20010904/DTD/svg10.dtd">
<svg version="1.0" xmlns="http://www.w3.org/2000/svg"
 width="50.000000pt" height="725.000000pt" viewBox="0 0 50.000000 725.000000"
 preserveAspectRatio="xMidYMid meet">
<metadata>
Created by potrace 1.16, written by Peter Selinger 2001-2019
</metadata>
<g transform="translate(0.000000,725.000000) scale(0.100000,-0.100000)"
fill="#000000" stroke="none">
<path d="M148 7093 c-34 -5 -37 -23 -4 -23 38 0 86 12 86 21 0 9 -31 10 -82 2z"/>
<path d="M170 6675 c0 -31 -3 -35 -25 -35 -14 0 -25 -4 -25 -10 0 -5 11 -10
25 -10 23 0 25 -3 25 -50 0 -49 12 -66 24 -34 3 9 6 33 6 55 0 28 4 39 15 39
8 0 15 5 15 10 0 6 -7 10 -15 10 -10 0 -15 10 -15 30 0 20 -5 30 -15 30 -10 0
-15 -11 -15 -35z"/>
<path d="M170 6225 c0 -31 -3 -35 -25 -35 -14 0 -25 -4 -25 -10 0 -5 10 -10
21 -10 21 0 20 -1 -6 -36 -32 -42 -26 -57 10 -24 l25 23 0 -31 c0 -34 14 -43
24 -16 3 9 6 33 6 55 0 28 4 39 15 39 8 0 15 5 15 10 0 6 -7 10 -15 10 -10 0
-15 10 -15 30 0 20 -5 30 -15 30 -10 0 -15 -11 -15 -35z"/>
<path d="M170 5775 c0 -31 -3 -35 -25 -35 -14 0 -25 -4 -25 -10 0 -5 10 -10
21 -10 21 0 20 -1 -6 -36 -32 -42 -26 -57 10 -24 l25 23 0 -31 c0 -40 19 -42
26 -3 4 20 11 28 20 24 8 -3 14 1 14 11 0 9 -7 19 -15 22 -8 4 -15 10 -15 15
0 5 7 9 15 9 8 0 15 5 15 10 0 6 -7 10 -15 10 -10 0 -15 10 -15 30 0 20 -5 30
-15 30 -10 0 -15 -11 -15 -35z"/>
<path d="M170 5325 c0 -31 -3 -35 -25 -35 -14 0 -25 -4 -25 -10 0 -5 10 -10
21 -10 21 0 20 -1 -6 -36 -32 -42 -26 -57 10 -24 l25 23 0 -31 c0 -40 19 -42
26 -3 4 20 11 28 20 24 8 -3 14 1 14 11 0 9 -7 19 -15 22 -8 4 -15 10 -15 15
0 5 7 9 15 9 8 0 15 5 15 10 0 6 -7 10 -15 10 -10 0 -15 10 -15 30 0 20 -5 30
-15 30 -10 0 -15 -11 -15 -35z"/>
<path d="M293 5307 c-24 -5 -43 -14 -43 -19 0 -6 18 -7 43 -3 60 9 77 15 77
26 0 11 -21 10 -77 -4z"/>
<path d="M292 4888 c3 -28 -1 -34 -19 -36 -28 -4 -30 -22 -3 -22 17 0 20 -7
20 -51 0 -69 24 -62 28 8 3 45 6 52 27 57 33 8 33 30 0 24 -22 -5 -25 -2 -25
23 0 19 -5 29 -15 29 -11 0 -14 -9 -13 -32z"/>
<path d="M170 4875 c0 -31 -3 -35 -25 -35 -14 0 -25 -4 -25 -10 0 -5 10 -10
21 -10 21 0 20 -1 -6 -36 -32 -42 -26 -57 10 -24 l25 23 0 -31 c0 -40 19 -42
26 -3 4 20 11 28 20 24 8 -3 14 1 14 11 0 9 -7 19 -15 22 -8 4 -15 10 -15 15
0 5 7 9 15 9 8 0 15 5 15 10 0 6 -7 10 -15 10 -10 0 -15 10 -15 30 0 20 -5 30
-15 30 -10 0 -15 -11 -15 -35z"/>
<path d="M292 4438 c3 -28 -1 -34 -19 -36 -27 -4 -31 -19 -7 -24 14 -2 13 -8
-10 -34 -14 -18 -26 -35 -26 -38 0 -12 21 -5 40 14 l20 20 0 -31 c0 -53 25
-28 28 28 3 45 6 52 27 57 33 8 33 30 0 24 -22 -5 -25 -2 -25 23 0 19 -5 29
-15 29 -11 0 -14 -9 -13 -32z"/>
<path d="M170 4425 c0 -31 -3 -35 -25 -35 -14 0 -25 -4 -25 -10 0 -5 10 -10
21 -10 21 0 20 -1 -6 -36 -32 -42 -26 -57 10 -24 l25 23 0 -31 c0 -40 19 -42
26 -3 4 20 11 28 20 24 8 -3 14 1 14 11 0 9 -7 19 -15 22 -8 4 -15 10 -15 15
0 5 7 9 15 9 8 0 15 5 15 10 0 6 -7 10 -15 10 -10 0 -15 10 -15 30 0 20 -5 30
-15 30 -10 0 -15 -11 -15 -35z"/>
<path d="M292 3988 c3 -28 -1 -34 -19 -36 -27 -4 -31 -19 -7 -24 14 -2 13 -8
-10 -34 -14 -18 -26 -35 -26 -38 0 -12 21 -5 40 14 l20 20 0 -31 c0 -41 23
-33 30 10 l5 33 24 -26 c29 -31 41 -33 41 -7 0 11 -15 29 -37 42 l-37 23 27 9
c34 11 35 31 2 25 -22 -5 -25 -2 -25 23 0 19 -5 29 -15 29 -11 0 -14 -9 -13
-32z"/>
<path d="M170 3975 c0 -31 -3 -35 -25 -35 -14 0 -25 -4 -25 -10 0 -5 10 -10
21 -10 21 0 20 -1 -6 -36 -32 -42 -26 -57 10 -24 l25 23 0 -31 c0 -40 19 -42
26 -3 4 20 11 28 20 24 8 -3 14 1 14 11 0 9 -7 19 -15 22 -8 4 -15 10 -15 15
0 5 7 9 15 9 8 0 15 5 15 10 0 6 -7 10 -15 10 -10 0 -15 10 -15 30 0 20 -5 30
-15 30 -10 0 -15 -11 -15 -35z"/>
<path d="M292 3538 c3 -28 -1 -34 -19 -36 -27 -4 -31 -19 -7 -24 14 -2 13 -8
-10 -34 -14 -18 -26 -35 -26 -38 0 -12 21 -5 40 14 l20 20 0 -31 c0 -41 23
-33 30 10 l5 33 24 -26 c29 -31 41 -33 41 -7 0 11 -15 29 -37 42 l-37 23 27 9
c34 11 35 31 2 25 -22 -5 -25 -2 -25 23 0 19 -5 29 -15 29 -11 0 -14 -9 -13
-32z"/>
<path d="M170 3525 c0 -31 -3 -35 -25 -35 -14 0 -25 -4 -25 -10 0 -5 10 -10
21 -10 21 0 20 -1 -6 -36 -31 -41 -26 -58 9 -25 l23 22 7 -47 c9 -72 8 -80
-20 -114 -29 -34 -27 -48 5 -31 38 21 70 122 42 133 -5 2 -7 15 -4 30 3 17 10
25 19 21 8 -3 14 1 14 11 0 9 -7 19 -15 22 -8 4 -15 10 -15 15 0 5 7 9 15 9 8
0 15 5 15 10 0 6 -7 10 -15 10 -10 0 -15 10 -15 30 0 20 -5 30 -15 30 -10 0
-15 -11 -15 -35z"/>
<path d="M292 3088 c3 -28 -1 -34 -19 -36 -27 -4 -31 -19 -7 -24 14 -2 13 -8
-10 -34 -14 -18 -26 -35 -26 -38 0 -12 21 -5 40 14 l20 20 0 -30 c0 -26 -5
-31 -30 -36 -34 -7 -41 -24 -10 -24 17 0 20 -7 20 -48 0 -60 20 -82 76 -82 51
0 76 17 68 48 -8 27 -30 29 -37 2 -4 -15 -14 -20 -36 -20 -44 0 -50 21 -31
118 l15 83 24 -25 c29 -31 41 -33 41 -7 0 11 -15 29 -37 42 l-37 23 27 9 c34
11 35 31 2 25 -22 -5 -25 -2 -25 23 0 19 -5 29 -15 29 -11 0 -14 -9 -13 -32z"/>
<path d="M170 3075 c0 -31 -3 -35 -25 -35 -14 0 -25 -4 -25 -10 0 -5 10 -10
21 -10 21 0 20 -1 -6 -36 -31 -41 -26 -58 9 -25 l23 22 7 -47 c9 -72 8 -80
-20 -114 -29 -34 -27 -48 5 -31 38 21 72 114 47 128 -19 11 -10 64 10 56 8 -3
14 1 14 11 0 9 -7 19 -15 22 -8 4 -15 10 -15 15 0 5 7 9 15 9 8 0 15 5 15 10
0 6 -7 10 -15 10 -10 0 -15 10 -15 30 0 20 -5 30 -15 30 -10 0 -15 -11 -15
-35z"/>
<path d="M292 2638 c3 -28 -1 -34 -19 -36 -27 -4 -31 -19 -7 -24 14 -2 13 -8
-10 -34 -14 -18 -26 -35 -26 -38 0 -12 21 -5 40 14 l20 20 0 -30 c0 -26 -5
-31 -30 -36 -34 -7 -41 -24 -10 -24 17 0 20 -7 20 -48 0 -60 20 -82 76 -82 51
0 76 17 68 48 -8 27 -30 29 -37 2 -4 -15 -14 -20 -36 -20 -44 0 -50 21 -31
118 l15 83 24 -25 c29 -31 41 -33 41 -7 0 11 -15 29 -37 42 l-37 23 27 9 c34
11 35 31 2 25 -22 -5 -25 -2 -25 23 0 19 -5 29 -15 29 -11 0 -14 -9 -13 -32z"/>
<path d="M170 2625 c0 -31 -3 -35 -25 -35 -14 0 -25 -4 -25 -10 0 -5 10 -10
21 -10 21 0 20 -1 -6 -36 -31 -41 -26 -58 9 -25 l23 22 7 -47 c9 -72 8 -80
-20 -114 -15 -17 -24 -34 -21 -37 10 -9 55 25 62 47 8 24 18 25 35 5 16 -19
30 -19 30 0 0 9 -11 21 -25 27 -18 8 -24 17 -20 29 3 10 0 21 -9 26 -19 11
-10 64 10 56 8 -3 14 1 14 11 0 9 -7 19 -15 22 -8 4 -15 10 -15 15 0 5 7 9 15
9 8 0 15 5 15 10 0 6 -7 10 -15 10 -10 0 -15 10 -15 30 0 20 -5 30 -15 30 -10
0 -15 -11 -15 -35z"/>
</g>
</svg>
