<?xml version="1.0" standalone="no"?>
<!DOCTYPE svg PUBLIC "-//W3C//DTD SVG 20010904//EN"
 "http://www.w3.org/TR/2001/REC-SVG-20010904/DTD/svg10.dtd">
<svg version="1.0" xmlns="http://www.w3.org/2000/svg"
 width="50.000000pt" height="725.000000pt" viewBox="0 0 50.000000 725.000000"
 preserveAspectRatio="xMidYMid meet">
<metadata>
Created by potrace 1.16, written by Peter Selinger 2001-2019
</metadata>
<g transform="translate(0.000000,725.000000) scale(0.100000,-0.100000)"
fill="#000000" stroke="none">
<path d="M118 7053 c-17 -3 -28 -11 -28 -20 0 -12 7 -14 28 -9 15 3 42 9 60
12 17 4 32 11 32 15 0 9 -41 10 -92 2z"/>
<path d="M144 6663 c1 -56 0 -58 -26 -61 -17 -2 -28 -9 -28 -19 0 -12 7 -14
31 -9 l32 6 -7 -95 c-6 -82 -5 -95 8 -95 13 0 16 16 16 96 0 87 2 96 20 101
23 6 27 23 5 23 -11 0 -15 12 -15 49 0 44 -10 61 -34 61 -2 0 -3 -26 -2 -57z"/>
<path d="M144 6213 c1 -56 0 -58 -26 -61 -17 -2 -28 -9 -28 -19 0 -11 7 -14
24 -11 l25 5 -19 -37 c-10 -20 -26 -42 -34 -49 -9 -8 -16 -17 -16 -22 0 -18
22 -8 51 24 l30 32 -7 -67 c-6 -59 -5 -68 10 -68 14 0 16 14 16 96 0 87 2 96
20 101 23 6 27 23 5 23 -11 0 -15 12 -15 49 0 44 -10 61 -34 61 -2 0 -3 -26
-2 -57z"/>
<path d="M144 5763 c1 -56 0 -58 -26 -61 -17 -2 -28 -9 -28 -19 0 -11 7 -14
24 -11 l25 5 -19 -37 c-10 -20 -26 -42 -34 -49 -9 -8 -16 -17 -16 -22 0 -18
22 -8 51 24 l30 32 -7 -67 c-6 -59 -5 -68 10 -68 13 0 16 12 16 70 0 58 3 68
15 64 20 -8 19 16 -2 31 -18 13 -10 35 13 35 8 0 14 5 14 10 0 6 -7 10 -15 10
-11 0 -15 12 -15 49 0 44 -10 61 -34 61 -2 0 -3 -26 -2 -57z"/>
<path d="M144 5313 c1 -56 0 -58 -26 -61 -17 -2 -28 -9 -28 -19 0 -11 7 -14
24 -11 l25 5 -19 -37 c-10 -20 -26 -42 -34 -49 -9 -8 -16 -17 -16 -22 0 -18
22 -8 51 24 l30 32 -7 -67 c-6 -59 -5 -68 10 -68 13 0 16 12 16 70 0 58 3 68
15 64 20 -8 19 16 -2 31 -18 13 -10 35 13 35 8 0 14 5 14 10 0 6 -7 10 -15 10
-11 0 -15 12 -15 49 0 44 -10 61 -34 61 -2 0 -3 -26 -2 -57z"/>
<path d="M252 5328 c-29 -56 -29 -71 1 -62 29 9 35 16 19 21 -10 4 -8 11 9 29
12 13 19 30 16 38 -10 25 -21 19 -45 -26z"/>
<path d="M290 5290 c0 -5 5 -10 10 -10 6 0 10 5 10 10 0 6 -4 10 -10 10 -5 0
-10 -4 -10 -10z"/>
<path d="M144 4863 c1 -56 0 -58 -26 -61 -17 -2 -28 -9 -28 -19 0 -11 7 -14
24 -11 l25 5 -19 -37 c-10 -20 -26 -42 -34 -49 -9 -8 -16 -17 -16 -22 0 -18
22 -8 51 24 l30 32 -7 -67 c-6 -59 -5 -68 10 -68 13 0 16 12 16 70 0 58 3 68
15 64 20 -8 19 16 -2 31 -18 13 -10 35 13 35 8 0 14 5 14 10 0 6 -7 10 -15 10
-11 0 -15 12 -15 49 0 44 -10 61 -34 61 -2 0 -3 -26 -2 -57z"/>
<path d="M252 4878 c-29 -56 -29 -71 1 -62 29 9 35 16 19 21 -19 7 -4 23 21
22 12 0 16 -3 10 -6 -15 -5 -18 -53 -4 -53 11 0 61 65 61 79 0 6 -13 11 -29
11 -16 0 -31 6 -35 15 -9 24 -20 18 -44 -27z"/>
<path d="M144 4413 c1 -56 0 -58 -26 -61 -17 -2 -28 -9 -28 -19 0 -11 7 -14
24 -11 l25 5 -19 -37 c-10 -20 -26 -42 -34 -49 -9 -8 -16 -17 -16 -22 0 -18
22 -8 51 24 l30 32 -7 -67 c-6 -59 -5 -68 10 -68 13 0 16 12 16 70 0 58 3 68
15 64 20 -8 19 16 -2 31 -18 13 -10 35 13 35 8 0 14 5 14 10 0 6 -7 10 -15 10
-11 0 -15 12 -15 49 0 44 -10 61 -34 61 -2 0 -3 -26 -2 -57z"/>
<path d="M252 4428 c-29 -56 -29 -71 1 -62 29 9 35 16 19 21 -19 7 -4 23 21
23 13 0 17 -3 11 -8 -7 -4 -13 -16 -15 -27 -3 -14 -13 -21 -37 -23 -20 -2 -32
-9 -32 -18 0 -10 7 -13 25 -8 14 3 48 9 77 13 31 3 53 12 56 20 4 11 -2 13
-27 8 -29 -6 -31 -5 -21 13 5 10 15 22 20 25 22 13 10 35 -19 35 -16 0 -31 6
-35 15 -9 24 -20 18 -44 -27z"/>
<path d="M144 3963 c1 -56 0 -58 -26 -61 -17 -2 -28 -9 -28 -19 0 -11 7 -14
24 -11 l25 5 -19 -37 c-10 -20 -26 -42 -34 -49 -9 -8 -16 -17 -16 -22 0 -18
22 -8 51 24 l30 32 -7 -67 c-6 -59 -5 -68 10 -68 13 0 16 12 16 70 0 58 3 68
15 64 20 -8 19 16 -2 31 -18 13 -10 35 13 35 8 0 14 5 14 10 0 6 -7 10 -15 10
-11 0 -15 12 -15 49 0 44 -10 61 -34 61 -2 0 -3 -26 -2 -57z"/>
<path d="M252 3978 c-29 -56 -29 -71 1 -62 29 9 35 16 19 21 -19 7 -4 23 21
23 13 0 17 -3 11 -8 -7 -4 -13 -16 -15 -27 -3 -14 -13 -21 -37 -23 -21 -2 -32
-9 -32 -19 0 -10 6 -13 17 -9 16 6 16 6 0 -12 -38 -42 -8 -44 34 -3 20 20 42
31 66 33 20 2 39 9 41 17 4 11 -2 13 -27 8 -29 -6 -31 -5 -21 13 5 10 15 22
20 25 22 13 10 35 -19 35 -16 0 -31 6 -35 15 -9 24 -20 18 -44 -27z"/>
<path d="M144 3513 c1 -56 0 -58 -26 -61 -17 -2 -28 -9 -28 -19 0 -11 7 -14
24 -11 l25 5 -19 -37 c-10 -20 -26 -42 -34 -49 -9 -8 -16 -17 -16 -22 0 -18
22 -8 51 24 l30 32 -7 -67 c-6 -59 -5 -68 10 -68 13 0 16 12 16 70 0 58 3 68
15 64 20 -8 19 16 -2 31 -18 13 -10 35 13 35 8 0 14 5 14 10 0 6 -7 10 -15 10
-11 0 -15 12 -15 49 0 44 -10 61 -34 61 -2 0 -3 -26 -2 -57z"/>
<path d="M252 3528 c-29 -56 -29 -71 1 -62 29 9 35 16 19 21 -19 7 -4 23 21
23 13 0 17 -3 11 -8 -7 -4 -13 -16 -15 -27 -3 -14 -13 -21 -37 -23 -21 -2 -32
-9 -32 -19 0 -10 6 -13 17 -9 16 6 16 6 0 -12 -22 -24 -22 -36 -1 -28 29 11
54 -22 54 -71 0 -36 -3 -43 -20 -43 -26 0 -25 -12 1 -36 20 -18 21 -18 35 1 8
10 14 42 14 72 0 43 -5 59 -23 77 -31 31 -16 53 38 58 22 2 40 9 43 17 4 11
-2 13 -27 8 -29 -6 -31 -5 -21 13 5 10 15 22 20 25 22 13 10 35 -19 35 -16 0
-31 6 -35 15 -9 24 -20 18 -44 -27z"/>
<path d="M144 3063 c1 -56 0 -58 -26 -61 -17 -2 -28 -9 -28 -19 0 -11 7 -14
24 -11 l25 5 -19 -37 c-10 -20 -26 -42 -34 -49 -9 -8 -16 -17 -16 -22 0 -18
22 -8 51 24 l30 32 -7 -67 c-6 -59 -5 -68 10 -68 13 0 16 12 16 70 0 58 3 68
15 64 20 -8 19 16 -2 31 -18 13 -10 35 13 35 8 0 14 5 14 10 0 6 -7 10 -15 10
-11 0 -15 12 -15 49 0 44 -10 61 -34 61 -2 0 -3 -26 -2 -57z"/>
<path d="M252 3078 c-29 -56 -29 -71 1 -62 29 9 35 16 19 21 -19 7 -4 23 21
23 13 0 17 -3 11 -8 -7 -4 -13 -16 -15 -27 -3 -14 -13 -21 -37 -23 -21 -2 -32
-9 -32 -19 0 -10 6 -13 17 -9 16 6 16 6 0 -12 -21 -23 -22 -36 -2 -28 13 4 13
2 5 -14 -6 -10 -18 -23 -28 -29 -9 -5 -13 -13 -9 -17 4 -4 21 2 37 14 42 31
50 28 50 -23 0 -38 -3 -45 -20 -45 -26 0 -25 -12 1 -36 20 -18 21 -18 35 1 8
10 14 42 14 72 0 43 -5 59 -23 77 -31 31 -16 53 38 58 22 2 40 9 43 17 4 11
-2 13 -27 8 -29 -6 -31 -5 -21 13 5 10 15 22 20 25 22 13 10 35 -19 35 -16 0
-31 6 -35 15 -9 24 -20 18 -44 -27z"/>
<path d="M144 2613 c1 -56 0 -58 -26 -61 -17 -2 -28 -9 -28 -19 0 -11 7 -14
24 -11 l25 5 -19 -37 c-10 -20 -26 -42 -34 -49 -9 -8 -16 -17 -16 -22 0 -18
22 -8 51 24 l30 32 -7 -67 c-6 -59 -5 -68 10 -68 13 0 16 12 16 70 0 58 3 68
15 64 20 -8 19 16 -2 31 -18 13 -10 35 13 35 8 0 14 5 14 10 0 6 -7 10 -15 10
-11 0 -15 12 -15 49 0 44 -10 61 -34 61 -2 0 -3 -26 -2 -57z"/>
<path d="M252 2628 c-29 -56 -29 -71 1 -62 29 9 35 16 19 21 -19 7 -4 23 21
23 13 0 17 -3 11 -8 -7 -4 -13 -16 -15 -27 -3 -14 -13 -21 -37 -23 -21 -2 -32
-9 -32 -19 0 -10 6 -13 17 -9 16 6 16 6 0 -12 -21 -23 -22 -36 -2 -28 13 4 13
2 5 -14 -6 -10 -18 -23 -28 -29 -9 -5 -13 -13 -9 -17 4 -4 21 3 38 15 45 33
47 19 3 -18 -46 -37 -39 -52 11 -23 l35 21 0 -24 c0 -18 -5 -25 -20 -25 -26 0
-25 -12 1 -36 20 -18 21 -18 35 1 8 10 14 42 14 72 0 43 -5 59 -23 77 -31 31
-16 53 38 58 22 2 40 9 43 17 4 11 -2 13 -27 8 -29 -6 -31 -5 -21 13 5 10 15
22 20 25 22 13 10 35 -19 35 -16 0 -31 6 -35 15 -9 24 -20 18 -44 -27z"/>
<path d="M144 2163 c1 -56 0 -58 -26 -61 -17 -2 -28 -9 -28 -19 0 -11 7 -14
24 -11 l25 5 -19 -37 c-10 -20 -26 -42 -34 -49 -9 -8 -16 -17 -16 -22 0 -18
22 -8 51 24 l30 32 -7 -67 c-6 -59 -5 -68 10 -68 13 0 16 12 16 70 0 58 3 68
15 64 20 -8 19 16 -2 31 -18 13 -10 35 13 35 8 0 14 5 14 10 0 6 -7 10 -15 10
-11 0 -15 12 -15 49 0 44 -10 61 -34 61 -2 0 -3 -26 -2 -57z"/>
<path d="M252 2178 c-29 -56 -29 -71 1 -62 29 9 35 16 19 21 -19 7 -4 23 21
23 13 0 17 -3 11 -8 -7 -4 -13 -16 -15 -27 -3 -14 -13 -21 -37 -23 -21 -2 -32
-9 -32 -19 0 -10 6 -13 17 -9 16 6 16 6 0 -12 -21 -23 -22 -36 -2 -28 13 4 13
2 5 -14 -6 -10 -18 -23 -28 -29 -9 -5 -13 -13 -9 -17 4 -4 21 3 38 15 45 33
47 19 3 -18 -46 -37 -39 -52 11 -23 l35 21 0 -24 c0 -18 -5 -25 -20 -25 -26 0
-25 -12 1 -36 20 -18 21 -18 36 1 10 14 13 38 11 77 -3 55 -2 57 30 72 34 17
41 33 17 42 -9 4 -23 -4 -36 -20 -17 -21 -23 -24 -39 -14 -29 18 -4 46 44 50
23 2 41 9 44 17 4 11 -2 13 -27 8 -29 -6 -31 -5 -21 13 5 10 15 22 20 25 22
13 10 35 -19 35 -16 0 -31 6 -35 15 -9 24 -20 18 -44 -27z"/>
<path d="M144 1713 c1 -56 0 -58 -26 -61 -17 -2 -28 -9 -28 -19 0 -11 7 -14
24 -11 l25 5 -19 -37 c-10 -20 -26 -42 -34 -49 -9 -8 -16 -17 -16 -22 0 -18
22 -8 51 24 l30 32 -7 -67 c-6 -59 -5 -68 10 -68 13 0 16 12 16 70 0 58 3 68
15 64 20 -8 19 16 -2 31 -18 13 -10 35 13 35 8 0 14 5 14 10 0 6 -7 10 -15 10
-11 0 -15 12 -15 49 0 44 -10 61 -34 61 -2 0 -3 -26 -2 -57z"/>
<path d="M252 1728 c-29 -56 -29 -71 1 -62 29 9 35 16 19 21 -19 7 -4 23 21
23 13 0 17 -3 11 -8 -7 -4 -13 -16 -15 -27 -3 -14 -13 -21 -37 -23 -21 -2 -32
-9 -32 -19 0 -10 6 -13 17 -9 16 6 16 6 0 -12 -21 -23 -22 -36 -2 -28 13 4 13
2 5 -14 -6 -10 -18 -23 -28 -29 -9 -5 -13 -13 -9 -17 4 -4 21 3 38 15 45 33
47 19 3 -18 -46 -37 -39 -52 11 -23 l35 21 0 -24 c0 -18 -5 -25 -20 -25 -26 0
-25 -12 1 -36 20 -18 21 -18 35 1 8 10 14 37 14 59 l0 39 23 -21 c15 -14 36
-22 60 -22 41 0 50 15 15 24 -13 3 -41 16 -62 30 l-40 24 32 16 c35 18 41 33
17 42 -9 4 -23 -4 -36 -20 -17 -21 -23 -24 -39 -14 -29 18 -4 46 44 50 23 2
41 9 44 17 4 11 -2 13 -27 8 -29 -6 -31 -5 -21 13 5 10 15 22 20 25 22 13 10
35 -19 35 -16 0 -31 6 -35 15 -9 24 -20 18 -44 -27z"/>
</g>
</svg>
