<?xml version="1.0" standalone="no"?>
<!DOCTYPE svg PUBLIC "-//W3C//DTD SVG 20010904//EN"
 "http://www.w3.org/TR/2001/REC-SVG-20010904/DTD/svg10.dtd">
<svg version="1.0" xmlns="http://www.w3.org/2000/svg"
 width="50.000000pt" height="725.000000pt" viewBox="0 0 50.000000 725.000000"
 preserveAspectRatio="xMidYMid meet">
<metadata>
Created by potrace 1.16, written by Peter Selinger 2001-2019
</metadata>
<g transform="translate(0.000000,725.000000) scale(0.100000,-0.100000)"
fill="#000000" stroke="none">
<path d="M118 7048 c-37 -10 -52 -28 -23 -28 32 0 115 22 115 31 0 11 -43 10
-92 -3z"/>
<path d="M137 6652 c5 -49 5 -50 -26 -57 -40 -9 -41 -29 -1 -23 l31 5 -7 -95
c-6 -79 -5 -94 7 -90 10 3 15 29 17 96 3 88 4 92 27 98 32 8 32 24 2 24 -21 0
-24 4 -23 42 1 32 -3 43 -16 46 -15 3 -16 -3 -11 -46z"/>
<path d="M137 6202 c5 -49 5 -50 -26 -57 -37 -8 -41 -25 -5 -25 l25 0 -27 -50
c-30 -56 -24 -80 9 -38 l22 27 -3 -61 c-3 -47 -1 -59 10 -56 9 3 14 30 16 96
3 88 4 92 27 98 32 8 32 24 2 24 -21 0 -24 4 -23 42 1 32 -3 43 -16 46 -15 3
-16 -3 -11 -46z"/>
<path d="M137 5752 c5 -49 5 -50 -26 -57 -37 -8 -41 -25 -5 -25 l25 0 -27 -50
c-30 -56 -24 -80 9 -38 l22 27 -3 -61 c-3 -47 -1 -59 10 -56 8 3 15 28 18 74
3 40 8 64 13 57 11 -17 27 -16 27 1 0 8 -10 22 -22 31 -20 13 -21 17 -8 25 8
5 21 10 28 10 6 0 12 5 12 10 0 6 -11 10 -23 10 -21 0 -24 4 -23 42 1 32 -3
43 -16 46 -15 3 -16 -3 -11 -46z"/>
<path d="M137 5302 c5 -49 5 -50 -26 -57 -37 -8 -41 -25 -5 -25 l25 0 -27 -50
c-30 -56 -24 -80 9 -38 l22 27 -3 -61 c-3 -47 -1 -59 10 -56 8 3 15 28 18 74
3 40 8 64 13 57 11 -17 27 -16 27 1 0 8 -10 22 -22 31 -20 13 -21 17 -8 25 8
5 21 10 28 10 6 0 12 5 12 10 0 6 -11 10 -23 10 -21 0 -24 4 -23 42 1 32 -3
43 -16 46 -15 3 -16 -3 -11 -46z"/>
<path d="M273 5317 c-61 -12 -70 -28 -15 -26 55 2 95 12 100 27 4 14 -9 14
-85 -1z"/>
<path d="M137 4852 c5 -49 5 -50 -26 -57 -37 -8 -41 -25 -5 -25 l25 0 -27 -50
c-30 -56 -24 -80 9 -38 l22 27 -3 -61 c-3 -47 -1 -59 10 -56 8 3 15 28 18 74
3 40 8 64 13 57 11 -17 27 -16 27 1 0 8 -10 22 -22 31 -20 13 -21 17 -8 25 8
5 21 10 28 10 6 0 12 5 12 10 0 6 -11 10 -23 10 -21 0 -24 4 -23 42 1 32 -3
43 -16 46 -15 3 -16 -3 -11 -46z"/>
<path d="M273 4867 c-61 -12 -70 -28 -15 -26 55 2 95 12 100 27 4 14 -9 14
-85 -1z"/>
<path d="M263 4823 c-37 -5 -45 -23 -10 -23 41 0 97 13 97 21 0 9 -26 9 -87 2z"/>
<path d="M137 4402 c5 -49 5 -50 -26 -57 -37 -8 -41 -25 -5 -25 l25 0 -27 -50
c-30 -56 -24 -80 9 -38 l22 27 -3 -61 c-3 -47 -1 -59 10 -56 8 3 15 28 18 74
3 40 8 64 13 57 11 -17 27 -16 27 1 0 8 -10 22 -22 31 -20 13 -21 17 -8 25 8
5 21 10 28 10 6 0 12 5 12 10 0 6 -11 10 -23 10 -21 0 -24 4 -23 42 1 32 -3
43 -16 46 -15 3 -16 -3 -11 -46z"/>
<path d="M273 4417 c-61 -12 -70 -28 -15 -26 55 2 95 12 100 27 4 14 -9 14
-85 -1z"/>
<path d="M263 4373 c-37 -5 -45 -23 -10 -23 41 0 97 13 97 21 0 9 -26 9 -87 2z"/>
<path d="M278 4337 c-105 -14 -102 -31 5 -22 94 7 117 13 117 26 0 10 -14 10
-122 -4z"/>
<path d="M270 3991 c0 -26 -4 -31 -25 -31 -14 0 -25 -4 -25 -10 0 -5 9 -10 20
-10 11 0 20 -4 20 -10 0 -5 -7 -10 -15 -10 -8 0 -15 -4 -15 -10 0 -5 5 -10 10
-10 6 0 10 -4 10 -10 0 -5 -11 -10 -25 -10 -14 0 -25 -4 -25 -10 0 -5 10 -10
21 -10 21 0 20 -1 -6 -36 -41 -54 -19 -55 29 -1 37 42 47 47 83 47 47 0 73 8
73 22 0 5 -26 6 -62 3 -46 -5 -59 -4 -48 4 8 6 25 11 38 11 12 0 22 5 22 10 0
6 -14 10 -32 10 -36 0 -28 16 11 22 14 1 27 9 29 17 4 11 -2 13 -26 8 -28 -6
-31 -4 -29 15 1 14 -4 23 -15 26 -14 3 -18 -3 -18 -27z"/>
<path d="M137 3952 c5 -49 5 -50 -26 -57 -37 -8 -41 -25 -5 -25 l25 0 -27 -50
c-30 -56 -24 -80 9 -38 l22 27 -3 -61 c-3 -47 -1 -59 10 -56 8 3 15 28 18 74
3 40 8 64 13 57 11 -17 27 -16 27 1 0 8 -10 22 -22 31 -20 13 -21 17 -8 25 8
5 21 10 28 10 6 0 12 5 12 10 0 6 -11 10 -23 10 -21 0 -24 4 -23 42 1 32 -3
43 -16 46 -15 3 -16 -3 -11 -46z"/>
<path d="M270 3541 c0 -26 -4 -31 -25 -31 -14 0 -25 -4 -25 -10 0 -5 9 -10 20
-10 11 0 20 -4 20 -10 0 -5 -7 -10 -15 -10 -8 0 -15 -4 -15 -10 0 -5 5 -10 10
-10 6 0 10 -4 10 -10 0 -5 -11 -10 -25 -10 -14 0 -25 -4 -25 -10 0 -5 10 -10
21 -10 21 0 20 -1 -6 -36 -41 -54 -19 -55 29 -1 23 26 47 47 54 47 6 0 26 -18
43 -40 26 -32 39 -40 66 -40 18 0 33 3 33 8 0 4 -24 20 -53 36 l-52 29 33 9
c56 15 37 30 -30 23 -46 -5 -59 -4 -48 4 8 6 25 11 38 11 12 0 22 5 22 10 0 6
-14 10 -32 10 -36 0 -28 16 11 22 14 1 27 9 29 17 4 11 -2 13 -26 8 -28 -6
-31 -4 -29 15 1 14 -4 23 -15 26 -14 3 -18 -3 -18 -27z"/>
<path d="M137 3502 c5 -49 5 -50 -26 -57 -37 -8 -41 -25 -5 -25 l25 0 -27 -50
c-30 -56 -24 -80 9 -38 l22 27 -3 -61 c-3 -47 -1 -59 10 -56 8 3 15 28 18 74
3 40 8 64 13 57 11 -17 27 -16 27 1 0 8 -10 22 -22 31 -20 13 -21 17 -8 25 8
5 21 10 28 10 6 0 12 5 12 10 0 6 -11 10 -23 10 -21 0 -24 4 -23 42 1 32 -3
43 -16 46 -15 3 -16 -3 -11 -46z"/>
<path d="M270 3091 c0 -26 -4 -31 -25 -31 -14 0 -25 -4 -25 -10 0 -5 9 -10 20
-10 11 0 20 -4 20 -10 0 -5 -7 -10 -15 -10 -8 0 -15 -4 -15 -10 0 -5 5 -10 10
-10 6 0 10 -4 10 -10 0 -5 -11 -10 -25 -10 -14 0 -25 -4 -25 -10 0 -5 10 -10
21 -10 21 0 20 -1 -6 -36 -41 -54 -19 -55 29 -1 23 26 47 47 54 47 6 0 26 -18
43 -40 26 -32 39 -40 66 -40 18 0 33 3 33 8 0 4 -24 20 -53 36 l-52 29 33 9
c56 15 37 30 -30 23 -46 -5 -59 -4 -48 4 8 6 25 11 38 11 12 0 22 5 22 10 0 6
-14 10 -32 10 -36 0 -28 16 11 22 14 1 27 9 29 17 4 11 -2 13 -26 8 -28 -6
-31 -4 -29 15 1 14 -4 23 -15 26 -14 3 -18 -3 -18 -27z"/>
<path d="M137 3052 c5 -49 5 -50 -26 -57 -37 -8 -41 -25 -5 -25 l25 0 -27 -50
c-30 -56 -24 -80 9 -38 l22 27 -3 -61 c-3 -47 -1 -59 10 -56 8 3 15 28 18 74
3 40 8 64 13 57 11 -17 27 -16 27 1 0 8 -10 22 -22 31 -20 13 -21 17 -8 25 8
5 21 10 28 10 6 0 12 5 12 10 0 6 -11 10 -23 10 -21 0 -24 4 -23 42 1 32 -3
43 -16 46 -15 3 -16 -3 -11 -46z"/>
<path d="M274 2936 c-10 -8 -16 -17 -13 -21 11 -10 59 6 59 21 0 18 -21 18
-46 0z"/>
<path d="M270 2641 c0 -26 -4 -31 -25 -31 -14 0 -25 -4 -25 -10 0 -5 9 -10 20
-10 11 0 20 -4 20 -10 0 -5 -7 -10 -15 -10 -8 0 -15 -4 -15 -10 0 -5 5 -10 10
-10 6 0 10 -4 10 -10 0 -5 -11 -10 -25 -10 -14 0 -25 -4 -25 -10 0 -5 10 -10
21 -10 21 0 20 -1 -6 -36 -41 -54 -19 -55 29 -1 23 26 47 47 53 47 6 0 24 -15
39 -32 l27 -33 -67 -11 c-62 -10 -85 -19 -75 -28 6 -6 219 27 219 34 0 3 -24
18 -53 34 l-52 29 33 9 c56 15 37 30 -30 23 -46 -5 -59 -4 -48 4 8 6 25 11 38
11 12 0 22 5 22 10 0 6 -14 10 -32 10 -36 0 -28 16 11 22 14 1 27 9 29 17 4
11 -2 13 -26 8 -28 -6 -31 -4 -29 15 1 14 -4 23 -15 26 -14 3 -18 -3 -18 -27z"/>
<path d="M137 2602 c5 -49 5 -50 -26 -57 -37 -8 -41 -25 -5 -25 l25 0 -27 -50
c-30 -56 -24 -80 9 -38 l22 27 -3 -61 c-3 -47 -1 -59 10 -56 8 3 15 28 18 74
3 40 8 64 13 57 11 -17 27 -16 27 1 0 8 -10 22 -22 31 -20 13 -21 17 -8 25 8
5 21 10 28 10 6 0 12 5 12 10 0 6 -11 10 -23 10 -21 0 -24 4 -23 42 1 32 -3
43 -16 46 -15 3 -16 -3 -11 -46z"/>
<path d="M274 2486 c-10 -8 -16 -17 -13 -21 11 -10 59 6 59 21 0 18 -21 18
-46 0z"/>
<path d="M270 2191 c0 -26 -4 -31 -25 -31 -14 0 -25 -4 -25 -10 0 -5 9 -10 20
-10 11 0 20 -4 20 -10 0 -5 -7 -10 -15 -10 -8 0 -15 -4 -15 -10 0 -5 5 -10 10
-10 6 0 10 -4 10 -10 0 -5 -11 -10 -25 -10 -14 0 -25 -4 -25 -10 0 -5 10 -10
21 -10 21 0 20 -1 -6 -36 -41 -54 -19 -55 29 -1 23 26 47 47 52 47 11 0 45
-34 58 -57 5 -9 -1 -13 -19 -13 -22 0 -25 3 -19 25 7 30 -11 34 -42 9 -13 -11
-15 -17 -6 -20 21 -9 13 -21 -18 -27 -16 -4 -30 -11 -30 -18 0 -7 11 -8 30 -4
l30 7 -2 -48 c-2 -29 1 -48 9 -51 8 -3 13 13 15 49 l3 53 68 9 c37 5 67 12 67
15 0 3 -24 19 -53 35 l-52 29 33 9 c56 15 37 30 -30 23 -46 -5 -59 -4 -48 4 8
6 25 11 38 11 12 0 22 5 22 10 0 6 -14 10 -32 10 -36 0 -28 16 11 22 14 1 27
9 29 17 4 11 -2 13 -26 8 -28 -6 -31 -4 -29 15 1 14 -4 23 -15 26 -14 3 -18
-3 -18 -27z"/>
<path d="M137 2152 c5 -49 5 -50 -26 -57 -37 -8 -41 -25 -5 -25 l25 0 -27 -50
c-30 -56 -24 -80 9 -38 l22 27 -3 -61 c-3 -47 -1 -59 10 -56 8 3 15 28 18 74
3 40 8 64 13 57 11 -17 27 -16 27 1 0 8 -10 22 -22 31 -20 13 -21 17 -8 25 8
5 21 10 28 10 6 0 12 5 12 10 0 6 -11 10 -23 10 -21 0 -24 4 -23 42 1 32 -3
43 -16 46 -15 3 -16 -3 -11 -46z"/>
<path d="M270 1741 c0 -26 -4 -31 -25 -31 -14 0 -25 -4 -25 -10 0 -5 9 -10 20
-10 11 0 20 -4 20 -10 0 -5 -7 -10 -15 -10 -8 0 -15 -4 -15 -10 0 -5 5 -10 10
-10 6 0 10 -4 10 -10 0 -5 -11 -10 -25 -10 -14 0 -25 -4 -25 -10 0 -5 10 -10
21 -10 21 0 20 -1 -6 -36 -41 -54 -19 -55 29 -1 23 26 47 47 52 47 11 0 45
-34 58 -57 5 -9 -1 -13 -19 -13 -22 0 -25 3 -19 25 7 30 -11 34 -42 9 -13 -11
-15 -17 -6 -20 21 -9 13 -21 -18 -27 -16 -4 -30 -11 -30 -18 0 -7 11 -8 30 -4
l30 7 -2 -48 c-2 -29 1 -48 9 -51 8 -3 13 13 15 49 l3 53 68 9 c37 5 67 12 67
15 0 3 -24 19 -53 35 l-52 29 33 9 c56 15 37 30 -30 23 -46 -5 -59 -4 -48 4 8
6 25 11 38 11 12 0 22 5 22 10 0 6 -14 10 -32 10 -36 0 -28 16 11 22 14 1 27
9 29 17 4 11 -2 13 -26 8 -28 -6 -31 -4 -29 15 1 14 -4 23 -15 26 -14 3 -18
-3 -18 -27z"/>
<path d="M137 1702 c5 -49 5 -50 -26 -57 -37 -8 -41 -25 -5 -25 l25 0 -27 -50
c-30 -56 -24 -80 9 -38 l22 27 -3 -61 c-3 -47 -1 -59 10 -56 8 3 15 28 18 74
3 40 8 64 13 57 11 -17 27 -16 27 1 0 8 -10 22 -22 31 -20 13 -21 17 -8 25 8
5 21 10 28 10 6 0 12 5 12 10 0 6 -11 10 -23 10 -21 0 -24 4 -23 42 1 32 -3
43 -16 46 -15 3 -16 -3 -11 -46z"/>
<path d="M217 1478 c-10 -11 -16 -22 -12 -26 7 -8 58 22 63 37 6 19 -32 10
-51 -11z"/>
<path d="M270 1291 c0 -26 -4 -31 -25 -31 -14 0 -25 -4 -25 -10 0 -5 9 -10 20
-10 11 0 20 -4 20 -10 0 -5 -7 -10 -15 -10 -8 0 -15 -4 -15 -10 0 -5 5 -10 10
-10 6 0 10 -4 10 -10 0 -5 -11 -10 -25 -10 -14 0 -25 -4 -25 -10 0 -5 10 -10
21 -10 21 0 20 -1 -6 -36 -41 -54 -19 -55 29 -1 23 26 47 47 52 47 11 0 45
-34 58 -57 5 -9 -1 -13 -19 -13 -22 0 -25 3 -19 25 7 30 -11 34 -42 9 -13 -11
-15 -17 -6 -20 21 -9 13 -21 -18 -27 -16 -4 -30 -11 -30 -18 0 -7 11 -8 30 -4
l30 7 -2 -48 c-2 -29 1 -48 9 -51 8 -3 13 13 15 49 l3 53 68 9 c37 5 67 12 67
15 0 3 -24 19 -53 35 l-52 29 33 9 c56 15 37 30 -30 23 -46 -5 -59 -4 -48 4 8
6 25 11 38 11 12 0 22 5 22 10 0 6 -14 10 -32 10 -36 0 -28 16 11 22 14 1 27
9 29 17 4 11 -2 13 -26 8 -28 -6 -31 -4 -29 15 1 14 -4 23 -15 26 -14 3 -18
-3 -18 -27z"/>
<path d="M137 1252 c5 -49 5 -50 -26 -57 -37 -8 -41 -25 -5 -25 l25 0 -27 -50
c-30 -56 -24 -80 9 -38 l22 27 -3 -61 c-3 -47 -1 -59 10 -56 8 3 15 28 18 74
3 40 8 64 13 57 11 -17 27 -16 27 1 0 8 -10 22 -22 31 -20 13 -21 17 -8 25 8
5 21 10 28 10 6 0 12 5 12 10 0 6 -11 10 -23 10 -21 0 -24 4 -23 42 1 32 -3
43 -16 46 -15 3 -16 -3 -11 -46z"/>
<path d="M320 1053 c1 -13 38 -53 49 -53 22 0 10 37 -14 48 -30 14 -35 15 -35
5z"/>
<path d="M217 1028 c-10 -11 -16 -22 -12 -26 7 -8 58 22 63 37 6 19 -32 10
-51 -11z"/>
</g>
</svg>
