<?xml version="1.0" standalone="no"?>
<!DOCTYPE svg PUBLIC "-//W3C//DTD SVG 20010904//EN"
 "http://www.w3.org/TR/2001/REC-SVG-20010904/DTD/svg10.dtd">
<svg version="1.0" xmlns="http://www.w3.org/2000/svg"
 width="50.000000pt" height="725.000000pt" viewBox="0 0 50.000000 725.000000"
 preserveAspectRatio="xMidYMid meet">
<metadata>
Created by potrace 1.16, written by Peter Selinger 2001-2019
</metadata>
<g transform="translate(0.000000,725.000000) scale(0.100000,-0.100000)"
fill="#000000" stroke="none">
<path d="M138 7067 c-53 -11 -64 -27 -19 -27 49 0 91 12 91 26 0 16 -5 16 -72
1z"/>
<path d="M154 6666 c7 -46 -1 -56 -45 -56 -10 0 -19 -4 -19 -10 0 -5 16 -10
35 -10 32 0 34 -2 30 -27 -11 -73 -13 -150 -5 -163 19 -29 30 11 30 108 0 75
3 92 15 92 8 0 15 7 15 15 0 8 -7 15 -16 15 -12 0 -14 7 -9 31 5 22 3 34 -6
40 -26 16 -31 9 -25 -35z"/>
<path d="M154 6216 c7 -46 -1 -56 -45 -56 -10 0 -19 -4 -19 -10 0 -5 11 -10
25 -10 14 0 25 -2 25 -5 0 -11 -32 -70 -48 -88 -8 -9 -12 -20 -8 -25 4 -4 22
9 38 27 l31 35 -6 -60 c-3 -32 -2 -66 3 -74 19 -29 30 11 30 108 0 75 3 92 15
92 8 0 15 7 15 15 0 8 -7 15 -16 15 -12 0 -14 7 -9 31 5 22 3 34 -6 40 -26 16
-31 9 -25 -35z"/>
<path d="M154 5766 c7 -46 -1 -56 -45 -56 -10 0 -19 -4 -19 -10 0 -5 11 -10
25 -10 14 0 25 -2 25 -5 0 -11 -32 -70 -48 -88 -8 -9 -12 -20 -8 -25 4 -4 22
9 38 27 l31 35 -6 -60 c-7 -64 5 -101 23 -74 5 8 10 47 11 85 0 39 3 64 6 58
7 -20 23 -15 23 6 0 10 -7 21 -15 25 -8 3 -15 10 -15 16 0 5 7 10 15 10 8 0
15 7 15 15 0 8 -7 15 -16 15 -12 0 -14 7 -9 31 5 22 3 34 -6 40 -26 16 -31 9
-25 -35z"/>
<path d="M154 5316 c7 -46 -1 -56 -45 -56 -10 0 -19 -4 -19 -10 0 -5 11 -10
25 -10 14 0 25 -2 25 -5 0 -11 -32 -70 -48 -88 -8 -9 -12 -20 -8 -25 4 -4 22
9 38 27 l31 35 -6 -60 c-7 -64 5 -101 23 -74 5 8 10 47 11 85 0 39 3 64 6 58
7 -20 23 -15 23 6 0 10 -7 21 -15 25 -8 3 -15 10 -15 16 0 5 7 10 15 10 8 0
15 7 15 15 0 8 -7 15 -16 15 -12 0 -14 7 -9 31 5 22 3 34 -6 40 -26 16 -31 9
-25 -35z"/>
<path d="M290 5352 c0 -22 13 -42 27 -42 21 0 12 44 -9 48 -10 2 -18 -1 -18
-6z"/>
<path d="M154 4866 c7 -46 -1 -56 -45 -56 -10 0 -19 -4 -19 -10 0 -5 11 -10
25 -10 14 0 25 -2 25 -5 0 -11 -32 -70 -48 -88 -8 -9 -12 -20 -8 -25 4 -4 22
9 38 27 l31 35 -6 -60 c-7 -64 5 -101 23 -74 5 8 10 47 11 85 0 39 3 64 6 58
7 -20 23 -15 23 6 0 10 -7 21 -15 25 -8 3 -15 10 -15 16 0 5 7 10 15 10 8 0
15 7 15 15 0 8 -7 15 -16 15 -12 0 -14 7 -9 31 5 22 3 34 -6 40 -26 16 -31 9
-25 -35z"/>
<path d="M290 4902 c0 -22 13 -42 27 -42 21 0 12 44 -9 48 -10 2 -18 -1 -18
-6z"/>
<path d="M226 4844 c-9 -23 -7 -54 3 -54 11 0 21 25 21 51 0 23 -15 25 -24 3z"/>
<path d="M154 4416 c7 -46 -1 -56 -45 -56 -10 0 -19 -4 -19 -10 0 -5 11 -10
25 -10 14 0 25 -2 25 -5 0 -11 -32 -70 -48 -88 -8 -9 -12 -20 -8 -25 4 -4 22
9 38 27 l31 35 -6 -60 c-7 -64 5 -101 23 -74 5 8 10 47 11 85 0 39 3 64 6 58
7 -20 23 -15 23 6 0 10 -7 21 -15 25 -8 3 -15 10 -15 16 0 5 7 10 15 10 8 0
15 7 15 15 0 8 -7 15 -16 15 -12 0 -14 7 -9 31 5 22 3 34 -6 40 -26 16 -31 9
-25 -35z"/>
<path d="M294 4435 c6 -23 4 -25 -28 -25 -35 0 -46 -13 -46 -51 0 -25 17 -25
25 1 6 19 58 40 103 40 12 0 22 5 22 10 0 6 -8 10 -19 10 -10 0 -21 9 -24 20
-3 11 -13 20 -22 20 -13 0 -16 -6 -11 -25z"/>
<path d="M380 4400 c0 -28 2 -31 23 -24 12 3 24 8 27 11 8 7 -17 38 -34 41
-12 3 -16 -4 -16 -28z"/>
<path d="M154 3966 c7 -46 -1 -56 -45 -56 -10 0 -19 -4 -19 -10 0 -5 11 -10
25 -10 14 0 25 -2 25 -5 0 -11 -32 -70 -48 -88 -8 -9 -12 -20 -8 -25 4 -4 22
9 38 27 l31 35 -6 -60 c-7 -64 5 -101 23 -74 5 8 10 47 11 85 0 39 3 64 6 58
7 -20 23 -15 23 6 0 10 -7 21 -15 25 -8 3 -15 10 -15 16 0 5 7 10 15 10 8 0
15 7 15 15 0 8 -7 15 -16 15 -12 0 -14 7 -9 31 5 22 3 34 -6 40 -26 16 -31 9
-25 -35z"/>
<path d="M294 3985 c6 -23 4 -25 -28 -25 -35 0 -46 -13 -46 -51 0 -25 17 -24
25 1 3 11 11 20 16 20 14 0 11 -11 -8 -32 -9 -10 -13 -21 -10 -24 9 -10 36 15
53 48 11 21 22 28 44 28 17 0 30 5 30 10 0 6 -8 10 -19 10 -10 0 -21 9 -24 20
-3 11 -13 20 -22 20 -13 0 -16 -6 -11 -25z"/>
<path d="M380 3950 c0 -28 2 -31 23 -24 12 3 24 8 27 11 8 7 -17 38 -34 41
-12 3 -16 -4 -16 -28z"/>
<path d="M154 3516 c7 -46 -1 -56 -45 -56 -10 0 -19 -4 -19 -10 0 -5 11 -10
25 -10 14 0 25 -2 25 -5 0 -11 -32 -70 -48 -88 -8 -9 -12 -20 -8 -25 4 -4 22
9 38 27 l31 35 -6 -60 c-7 -64 5 -101 23 -74 5 8 10 47 11 85 0 39 3 64 6 58
7 -20 23 -15 23 6 0 10 -7 21 -15 25 -8 3 -15 10 -15 16 0 5 7 10 15 10 8 0
15 7 15 15 0 8 -7 15 -16 15 -12 0 -14 7 -9 31 5 22 3 34 -6 40 -26 16 -31 9
-25 -35z"/>
<path d="M294 3535 c6 -23 4 -25 -28 -25 -35 0 -46 -13 -46 -51 0 -25 17 -24
25 1 3 11 11 20 16 20 14 0 11 -11 -8 -32 -9 -10 -13 -21 -9 -26 7 -7 38 24
63 64 11 17 12 16 12 -13 1 -27 6 -32 31 -38 31 -7 50 -1 50 16 0 5 -13 9 -30
9 -23 0 -30 4 -30 20 0 11 7 20 15 20 8 0 15 5 15 10 0 6 -8 10 -19 10 -10 0
-21 9 -24 20 -3 11 -13 20 -22 20 -13 0 -16 -6 -11 -25z"/>
<path d="M380 3500 c0 -28 2 -31 23 -24 12 3 24 8 27 11 8 7 -17 38 -34 41
-12 3 -16 -4 -16 -28z"/>
<path d="M154 3066 c7 -46 -1 -56 -45 -56 -10 0 -19 -4 -19 -10 0 -5 11 -10
25 -10 14 0 25 -2 25 -5 0 -11 -32 -70 -48 -88 -8 -9 -12 -20 -8 -25 4 -4 22
9 38 27 l31 35 -6 -60 c-7 -64 5 -101 23 -74 5 8 10 47 11 85 0 39 3 64 6 58
7 -20 23 -15 23 6 0 10 -7 21 -15 25 -8 3 -15 10 -15 16 0 5 7 10 15 10 8 0
15 7 15 15 0 8 -7 15 -16 15 -12 0 -14 7 -9 31 5 22 3 34 -6 40 -26 16 -31 9
-25 -35z"/>
<path d="M294 3085 c6 -23 4 -25 -28 -25 -35 0 -46 -13 -46 -51 0 -25 17 -24
25 1 3 11 11 20 16 20 14 0 11 -11 -8 -32 -9 -10 -13 -21 -9 -26 7 -7 38 24
63 64 11 17 12 16 12 -13 1 -27 6 -32 31 -38 31 -7 50 -1 50 16 0 5 -13 9 -30
9 -23 0 -30 4 -30 20 0 11 7 20 15 20 8 0 15 5 15 10 0 6 -8 10 -19 10 -10 0
-21 9 -24 20 -3 11 -13 20 -22 20 -13 0 -16 -6 -11 -25z"/>
<path d="M380 3050 c0 -28 2 -31 23 -24 12 3 24 8 27 11 8 7 -17 38 -34 41
-12 3 -16 -4 -16 -28z"/>
<path d="M257 2943 c-15 -25 -25 -48 -21 -52 8 -8 75 70 71 83 -7 22 -24 13
-50 -31z"/>
<path d="M154 2616 c7 -46 -1 -56 -45 -56 -10 0 -19 -4 -19 -10 0 -5 11 -10
25 -10 14 0 25 -2 25 -5 0 -11 -32 -70 -48 -88 -8 -9 -12 -20 -8 -25 4 -4 22
9 38 27 l31 35 -6 -60 c-7 -64 5 -101 23 -74 5 8 10 47 11 85 0 39 3 64 6 58
7 -20 23 -15 23 6 0 10 -7 21 -15 25 -8 3 -15 10 -15 16 0 5 7 10 15 10 8 0
15 7 15 15 0 8 -7 15 -16 15 -12 0 -14 7 -9 31 5 22 3 34 -6 40 -26 16 -31 9
-25 -35z"/>
<path d="M294 2635 c6 -23 4 -25 -28 -25 -35 0 -46 -13 -46 -51 0 -25 17 -24
25 1 3 11 11 20 16 20 14 0 11 -11 -8 -32 -9 -10 -13 -21 -9 -26 7 -7 38 24
63 64 11 17 12 16 12 -13 1 -27 6 -32 31 -38 31 -7 50 -1 50 16 0 5 -13 9 -30
9 -23 0 -30 4 -30 20 0 11 7 20 15 20 8 0 15 5 15 10 0 6 -8 10 -19 10 -10 0
-21 9 -24 20 -3 11 -13 20 -22 20 -13 0 -16 -6 -11 -25z"/>
<path d="M380 2600 c0 -28 2 -31 23 -24 12 3 24 8 27 11 8 7 -17 38 -34 41
-12 3 -16 -4 -16 -28z"/>
<path d="M257 2493 c-31 -51 -29 -67 6 -35 14 13 44 25 77 29 30 5 55 14 58
22 4 13 -21 11 -79 -5 -11 -3 -16 1 -15 12 2 33 -20 22 -47 -23z"/>
<path d="M154 2166 c7 -46 -1 -56 -45 -56 -10 0 -19 -4 -19 -10 0 -5 11 -10
25 -10 14 0 25 -2 25 -5 0 -11 -32 -70 -48 -88 -8 -9 -12 -20 -8 -25 4 -4 22
9 38 27 l31 35 -6 -60 c-7 -64 5 -101 23 -74 5 8 10 47 11 85 0 39 3 64 6 58
7 -20 23 -15 23 6 0 10 -7 21 -15 25 -8 3 -15 10 -15 16 0 5 7 10 15 10 8 0
15 7 15 15 0 8 -7 15 -16 15 -12 0 -14 7 -9 31 5 22 3 34 -6 40 -26 16 -31 9
-25 -35z"/>
<path d="M294 2185 c6 -23 4 -25 -28 -25 -35 0 -46 -13 -46 -51 0 -25 17 -24
25 1 3 11 11 20 16 20 14 0 11 -11 -8 -32 -9 -10 -13 -21 -9 -26 7 -7 38 24
63 64 11 17 12 16 12 -13 1 -27 6 -32 31 -38 31 -7 50 -1 50 16 0 5 -13 9 -30
9 -23 0 -30 4 -30 20 0 11 7 20 15 20 8 0 15 5 15 10 0 6 -8 10 -19 10 -10 0
-21 9 -24 20 -3 11 -13 20 -22 20 -13 0 -16 -6 -11 -25z"/>
<path d="M380 2150 c0 -28 2 -31 23 -24 12 3 24 8 27 11 8 7 -17 38 -34 41
-12 3 -16 -4 -16 -28z"/>
<path d="M257 2043 c-32 -52 -28 -67 8 -33 l25 23 0 -76 c0 -62 3 -77 15 -77
12 0 15 15 15 79 l0 80 37 3 c20 2 38 9 41 17 4 13 -21 11 -79 -5 -11 -3 -16
1 -15 12 2 33 -20 22 -47 -23z"/>
<path d="M154 1716 c7 -46 -1 -56 -45 -56 -10 0 -19 -4 -19 -10 0 -5 11 -10
25 -10 14 0 25 -2 25 -5 0 -11 -32 -70 -48 -88 -8 -9 -12 -20 -8 -25 4 -4 22
9 38 27 l31 35 -6 -60 c-7 -64 5 -101 23 -74 5 8 10 47 11 85 0 39 3 64 6 58
7 -20 23 -15 23 6 0 10 -7 21 -15 25 -8 3 -15 10 -15 16 0 5 7 10 15 10 8 0
15 7 15 15 0 8 -7 15 -16 15 -12 0 -14 7 -9 31 5 22 3 34 -6 40 -26 16 -31 9
-25 -35z"/>
<path d="M294 1735 c6 -23 4 -25 -28 -25 -35 0 -46 -13 -46 -51 0 -25 17 -24
25 1 3 11 11 20 16 20 14 0 11 -11 -8 -32 -9 -10 -13 -21 -9 -26 7 -7 38 24
63 64 11 17 12 16 12 -13 1 -27 6 -32 31 -38 31 -7 50 -1 50 16 0 5 -13 9 -30
9 -23 0 -30 4 -30 20 0 11 7 20 15 20 8 0 15 5 15 10 0 6 -8 10 -19 10 -10 0
-21 9 -24 20 -3 11 -13 20 -22 20 -13 0 -16 -6 -11 -25z"/>
<path d="M380 1700 c0 -28 2 -31 23 -24 12 3 24 8 27 11 8 7 -17 38 -34 41
-12 3 -16 -4 -16 -28z"/>
<path d="M257 1593 c-32 -52 -28 -67 8 -33 l25 23 0 -76 c0 -62 3 -77 15 -77
12 0 15 13 15 55 l0 55 35 0 c19 0 35 5 35 10 0 6 -16 10 -35 10 -49 0 -48 28
2 32 20 2 38 9 41 17 4 13 -21 11 -79 -5 -11 -3 -16 1 -15 12 2 33 -20 22 -47
-23z"/>
<path d="M154 1266 c7 -46 -1 -56 -45 -56 -10 0 -19 -4 -19 -10 0 -5 11 -10
25 -10 14 0 25 -2 25 -5 0 -11 -32 -70 -48 -88 -8 -9 -12 -20 -8 -25 4 -4 22
9 38 27 l31 35 -6 -60 c-7 -64 5 -101 23 -74 5 8 10 47 11 85 0 39 3 64 6 58
7 -20 23 -15 23 6 0 10 -7 21 -15 25 -8 3 -15 10 -15 16 0 5 7 10 15 10 8 0
15 7 15 15 0 8 -7 15 -16 15 -12 0 -14 7 -9 31 5 22 3 34 -6 40 -26 16 -31 9
-25 -35z"/>
<path d="M294 1285 c6 -23 4 -25 -28 -25 -35 0 -46 -13 -46 -51 0 -25 17 -24
25 1 3 11 11 20 16 20 14 0 11 -11 -8 -32 -9 -10 -13 -21 -9 -26 7 -7 38 24
63 64 11 17 12 16 12 -13 1 -27 6 -32 31 -38 31 -7 50 -1 50 16 0 5 -13 9 -30
9 -23 0 -30 4 -30 20 0 11 7 20 15 20 8 0 15 5 15 10 0 6 -8 10 -19 10 -10 0
-21 9 -24 20 -3 11 -13 20 -22 20 -13 0 -16 -6 -11 -25z"/>
<path d="M380 1250 c0 -28 2 -31 23 -24 12 3 24 8 27 11 8 7 -17 38 -34 41
-12 3 -16 -4 -16 -28z"/>
<path d="M257 1143 c-32 -52 -28 -67 8 -33 l25 23 0 -76 c0 -62 3 -77 15 -77
10 0 15 10 15 30 0 23 5 30 19 30 27 0 51 10 51 22 0 6 -14 8 -35 4 -28 -6
-35 -4 -35 9 0 11 10 15 35 15 19 0 35 5 35 10 0 6 -16 10 -35 10 -49 0 -48
28 2 32 20 2 38 9 41 17 4 13 -21 11 -79 -5 -11 -3 -16 1 -15 12 2 33 -20 22
-47 -23z"/>
</g>
</svg>
