<?xml version="1.0" standalone="no"?>
<!DOCTYPE svg PUBLIC "-//W3C//DTD SVG 20010904//EN"
 "http://www.w3.org/TR/2001/REC-SVG-20010904/DTD/svg10.dtd">
<svg version="1.0" xmlns="http://www.w3.org/2000/svg"
 width="50.000000pt" height="725.000000pt" viewBox="0 0 50.000000 725.000000"
 preserveAspectRatio="xMidYMid meet">
<metadata>
Created by potrace 1.16, written by Peter Selinger 2001-2019
</metadata>
<g transform="translate(0.000000,725.000000) scale(0.100000,-0.100000)"
fill="#000000" stroke="none">
<path d="M148 7057 c-50 -11 -65 -27 -25 -27 49 0 97 13 97 26 0 16 -5 16 -72
1z"/>
<path d="M155 6658 c0 -50 -1 -53 -27 -56 -38 -5 -35 -22 3 -22 l31 0 -3 -97
c-3 -71 -1 -97 9 -100 9 -4 12 16 12 79 0 96 7 128 26 128 8 0 14 7 14 15 0 8
-6 15 -14 15 -10 0 -16 14 -18 42 -2 29 -8 44 -18 46 -13 2 -16 -8 -15 -50z"/>
<path d="M155 6208 c0 -50 -1 -53 -27 -56 -35 -4 -37 -22 -3 -22 32 0 31 -8
-5 -58 -16 -23 -30 -44 -30 -47 0 -14 27 -2 47 23 l23 27 -2 -69 c-2 -48 1
-70 10 -73 9 -4 12 16 12 79 0 96 7 128 26 128 8 0 14 7 14 15 0 8 -6 15 -14
15 -10 0 -16 14 -18 42 -2 29 -8 44 -18 46 -13 2 -16 -8 -15 -50z"/>
<path d="M155 5758 c0 -50 -1 -53 -27 -56 -35 -4 -37 -22 -3 -22 32 0 31 -8
-5 -58 -16 -23 -30 -44 -30 -47 0 -14 27 -2 47 23 l23 27 -2 -69 c-2 -48 1
-70 10 -73 9 -4 12 15 12 73 0 61 3 75 12 66 18 -18 28 -15 28 8 0 11 -7 20
-15 20 -8 0 -15 9 -15 20 0 11 7 20 15 20 8 0 15 7 15 15 0 8 -6 15 -14 15
-10 0 -16 14 -18 42 -2 29 -8 44 -18 46 -13 2 -16 -8 -15 -50z"/>
<path d="M155 5308 c0 -50 -1 -53 -27 -56 -35 -4 -37 -22 -3 -22 32 0 31 -8
-5 -58 -16 -23 -30 -44 -30 -47 0 -14 27 -2 47 23 l23 27 -2 -69 c-2 -48 1
-70 10 -73 9 -4 12 15 12 73 0 61 3 75 12 66 18 -18 28 -15 28 8 0 11 -7 20
-15 20 -8 0 -15 9 -15 20 0 11 7 20 15 20 8 0 15 6 15 14 0 9 27 17 90 27 84
12 103 20 81 33 -12 8 -171 -25 -171 -35 0 -5 -6 -9 -14 -9 -10 0 -16 14 -18
42 -2 29 -8 44 -18 46 -13 2 -16 -8 -15 -50z"/>
<path d="M155 4858 c0 -50 -1 -53 -27 -56 -35 -4 -37 -22 -3 -22 32 0 31 -8
-5 -58 -16 -23 -30 -44 -30 -47 0 -14 27 -2 47 23 l23 27 -2 -69 c-2 -48 1
-70 10 -73 9 -4 12 15 12 73 0 61 3 75 12 66 18 -18 28 -15 28 8 0 11 -7 20
-15 20 -8 0 -15 9 -15 20 0 11 7 20 15 20 8 0 15 6 15 14 0 9 27 17 90 27 84
12 103 20 81 33 -12 8 -171 -25 -171 -35 0 -5 -6 -9 -14 -9 -10 0 -16 14 -18
42 -2 29 -8 44 -18 46 -13 2 -16 -8 -15 -50z"/>
<path d="M284 4784 c3 -9 6 -22 6 -30 0 -8 5 -14 10 -14 6 0 10 14 10 30 0 21
-5 30 -16 30 -11 0 -14 -5 -10 -16z"/>
<path d="M155 4408 c0 -50 -1 -53 -27 -56 -35 -4 -37 -22 -3 -22 32 0 31 -8
-5 -58 -16 -23 -30 -44 -30 -47 0 -14 27 -2 47 23 l23 27 -2 -69 c-2 -48 1
-70 10 -73 9 -4 12 15 12 73 0 61 3 75 12 66 18 -18 28 -15 28 8 0 11 -7 20
-15 20 -8 0 -15 9 -15 20 0 11 7 20 15 20 8 0 15 6 15 14 0 9 27 17 90 27 84
12 103 20 81 33 -12 8 -171 -25 -171 -35 0 -5 -6 -9 -14 -9 -10 0 -16 14 -18
42 -2 29 -8 44 -18 46 -13 2 -16 -8 -15 -50z"/>
<path d="M312 4357 c-22 -7 -31 -15 -27 -24 3 -8 5 -21 5 -29 0 -8 5 -14 10
-14 6 0 10 11 10 25 0 18 5 25 20 25 11 0 20 -7 20 -15 0 -22 18 -18 31 6 9
17 8 23 -2 30 -17 10 -24 10 -67 -4z"/>
<path d="M155 3958 c0 -50 -1 -53 -27 -56 -35 -4 -37 -22 -3 -22 32 0 31 -8
-5 -58 -16 -23 -30 -44 -30 -47 0 -14 27 -2 47 23 l23 27 -2 -69 c-2 -48 1
-70 10 -73 9 -4 12 15 12 73 0 61 3 75 12 66 18 -18 28 -15 28 8 0 11 -7 20
-15 20 -8 0 -15 9 -15 20 0 11 7 20 15 20 8 0 15 6 15 14 0 9 27 17 90 27 84
12 103 20 81 33 -12 8 -171 -25 -171 -35 0 -5 -6 -9 -14 -9 -10 0 -16 14 -18
42 -2 29 -8 44 -18 46 -13 2 -16 -8 -15 -50z"/>
<path d="M313 3908 c-29 -9 -32 -14 -26 -37 8 -34 6 -33 46 -26 39 8 69 51 45
66 -16 10 -24 10 -65 -3z m37 -27 c0 -5 -7 -12 -16 -15 -22 -9 -24 -8 -24 9 0
8 9 15 20 15 11 0 20 -4 20 -9z"/>
<path d="M155 3508 c0 -50 -1 -53 -27 -56 -35 -4 -37 -22 -3 -22 32 0 31 -8
-5 -58 -16 -23 -30 -44 -30 -47 0 -14 27 -2 47 23 l23 27 -2 -69 c-2 -48 1
-70 10 -73 9 -4 12 15 12 73 0 61 3 75 12 66 18 -18 28 -15 28 8 0 11 -7 20
-15 20 -8 0 -15 9 -15 20 0 11 7 20 15 20 8 0 15 6 15 14 0 9 27 17 90 27 84
12 103 20 81 33 -12 8 -171 -25 -171 -35 0 -5 -6 -9 -14 -9 -10 0 -16 14 -18
42 -2 29 -8 44 -18 46 -13 2 -16 -8 -15 -50z"/>
<path d="M313 3458 c-29 -9 -32 -14 -26 -37 8 -34 6 -33 46 -26 39 8 69 51 45
66 -16 10 -24 10 -65 -3z m37 -27 c0 -5 -7 -12 -16 -15 -22 -9 -24 -8 -24 9 0
8 9 15 20 15 11 0 20 -4 20 -9z"/>
<path d="M264 3354 c3 -9 6 -22 6 -30 0 -8 5 -14 10 -14 6 0 10 14 10 30 0 21
-5 30 -16 30 -11 0 -14 -5 -10 -16z"/>
<path d="M155 3058 c0 -50 -1 -53 -27 -56 -35 -4 -37 -22 -3 -22 32 0 31 -8
-5 -58 -16 -23 -30 -44 -30 -47 0 -14 27 -2 47 23 l23 27 -2 -69 c-2 -48 1
-70 10 -73 9 -4 12 15 12 73 0 61 3 75 12 66 18 -18 28 -15 28 8 0 11 -7 20
-15 20 -8 0 -15 9 -15 20 0 11 7 20 15 20 8 0 15 6 15 14 0 9 27 17 90 27 84
12 103 20 81 33 -12 8 -171 -25 -171 -35 0 -5 -6 -9 -14 -9 -10 0 -16 14 -18
42 -2 29 -8 44 -18 46 -13 2 -16 -8 -15 -50z"/>
<path d="M313 3008 c-29 -9 -32 -14 -26 -37 8 -34 6 -33 46 -26 39 8 69 51 45
66 -16 10 -24 10 -65 -3z m37 -27 c0 -5 -7 -12 -16 -15 -22 -9 -24 -8 -24 9 0
8 9 15 20 15 11 0 20 -4 20 -9z"/>
<path d="M306 2903 c11 -45 21 -46 26 -3 2 17 -3 25 -15 28 -15 3 -17 -1 -11
-25z"/>
<path d="M264 2904 c3 -9 6 -22 6 -30 0 -8 5 -14 10 -14 6 0 10 14 10 30 0 21
-5 30 -16 30 -11 0 -14 -5 -10 -16z"/>
<path d="M155 2608 c0 -50 -1 -53 -27 -56 -35 -4 -37 -22 -3 -22 32 0 31 -8
-5 -58 -16 -23 -30 -44 -30 -47 0 -14 27 -2 47 23 l23 27 -2 -69 c-2 -48 1
-70 10 -73 9 -4 12 15 12 73 0 61 3 75 12 66 18 -18 28 -15 28 8 0 11 -7 20
-15 20 -8 0 -15 9 -15 20 0 11 7 20 15 20 8 0 15 6 15 14 0 9 27 17 90 27 84
12 103 20 81 33 -12 8 -171 -25 -171 -35 0 -5 -6 -9 -14 -9 -10 0 -16 14 -18
42 -2 29 -8 44 -18 46 -13 2 -16 -8 -15 -50z"/>
<path d="M313 2558 c-29 -9 -32 -14 -26 -37 8 -34 6 -33 46 -26 39 8 69 51 45
66 -16 10 -24 10 -65 -3z m37 -27 c0 -5 -7 -12 -16 -15 -22 -9 -24 -8 -24 9 0
8 9 15 20 15 11 0 20 -4 20 -9z"/>
<path d="M305 2461 c3 -11 1 -22 -5 -26 -6 -3 -10 3 -10 14 0 13 -7 21 -16 21
-11 0 -14 -5 -10 -16 3 -9 6 -22 6 -30 0 -9 11 -14 29 -14 23 0 30 5 34 27 6
33 1 43 -19 43 -11 0 -13 -6 -9 -19z"/>
<path d="M155 2158 c0 -50 -1 -53 -27 -56 -35 -4 -37 -22 -3 -22 32 0 31 -8
-5 -58 -16 -23 -30 -44 -30 -47 0 -14 27 -2 47 23 l23 27 -2 -69 c-2 -48 1
-70 10 -73 9 -4 12 15 12 73 0 61 3 75 12 66 18 -18 28 -15 28 8 0 11 -7 20
-15 20 -8 0 -15 9 -15 20 0 11 7 20 15 20 8 0 15 6 15 14 0 9 27 17 90 27 84
12 103 20 81 33 -12 8 -171 -25 -171 -35 0 -5 -6 -9 -14 -9 -10 0 -16 14 -18
42 -2 29 -8 44 -18 46 -13 2 -16 -8 -15 -50z"/>
<path d="M313 2108 c-29 -9 -32 -14 -26 -37 8 -34 6 -33 46 -26 39 8 69 51 45
66 -16 10 -24 10 -65 -3z m37 -27 c0 -5 -7 -12 -16 -15 -22 -9 -24 -8 -24 9 0
8 9 15 20 15 11 0 20 -4 20 -9z"/>
<path d="M305 2011 c3 -11 1 -22 -5 -26 -6 -3 -10 3 -10 14 0 13 -7 21 -16 21
-11 0 -14 -5 -10 -16 3 -9 6 -22 6 -30 0 -9 11 -14 30 -14 23 0 30 4 30 20 0
11 5 20 10 20 6 0 10 -9 10 -20 0 -11 5 -20 10 -20 12 0 13 40 2 55 -4 6 -20
12 -35 13 -24 2 -27 -1 -22 -17z"/>
<path d="M155 1708 c0 -50 -1 -53 -27 -56 -35 -4 -37 -22 -3 -22 32 0 31 -8
-5 -58 -16 -23 -30 -44 -30 -47 0 -14 27 -2 47 23 l23 27 -2 -69 c-2 -48 1
-70 10 -73 9 -4 12 15 12 73 0 61 3 75 12 66 18 -18 28 -15 28 8 0 11 -7 20
-15 20 -8 0 -15 9 -15 20 0 11 7 20 15 20 8 0 15 6 15 14 0 9 27 17 90 27 84
12 103 20 81 33 -12 8 -171 -25 -171 -35 0 -5 -6 -9 -14 -9 -10 0 -16 14 -18
42 -2 29 -8 44 -18 46 -13 2 -16 -8 -15 -50z"/>
<path d="M313 1658 c-29 -9 -32 -14 -26 -37 8 -34 6 -33 46 -26 39 8 69 51 45
66 -16 10 -24 10 -65 -3z m37 -27 c0 -5 -7 -12 -16 -15 -22 -9 -24 -8 -24 9 0
8 9 15 20 15 11 0 20 -4 20 -9z"/>
<path d="M367 1583 c-4 -3 -20 -6 -37 -5 -26 1 -30 -2 -25 -18 3 -10 1 -21 -5
-25 -6 -3 -10 3 -10 14 0 13 -7 21 -16 21 -11 0 -14 -5 -10 -16 3 -9 6 -22 6
-30 0 -9 11 -14 30 -14 23 0 30 4 30 20 0 11 5 20 10 20 6 0 10 -9 10 -20 0
-11 5 -20 10 -20 6 0 10 14 10 30 0 17 5 30 10 30 6 0 10 -9 10 -20 0 -24 15
-27 24 -4 12 30 6 44 -17 44 -13 0 -27 -3 -30 -7z"/>
<path d="M155 1258 c0 -50 -1 -53 -27 -56 -35 -4 -37 -22 -3 -22 32 0 31 -8
-5 -58 -16 -23 -30 -44 -30 -47 0 -14 27 -2 47 23 l23 27 -2 -69 c-2 -48 1
-70 10 -73 9 -4 12 15 12 73 0 61 3 75 12 66 18 -18 28 -15 28 8 0 11 -7 20
-15 20 -8 0 -15 9 -15 20 0 11 7 20 15 20 8 0 15 6 15 14 0 9 27 17 90 27 84
12 103 20 81 33 -12 8 -171 -25 -171 -35 0 -5 -6 -9 -14 -9 -10 0 -16 14 -18
42 -2 29 -8 44 -18 46 -13 2 -16 -8 -15 -50z"/>
<path d="M313 1208 c-29 -9 -32 -14 -26 -37 8 -34 6 -33 46 -26 39 8 69 51 45
66 -16 10 -24 10 -65 -3z m37 -27 c0 -5 -7 -12 -16 -15 -22 -9 -24 -8 -24 9 0
8 9 15 20 15 11 0 20 -4 20 -9z"/>
<path d="M367 1133 c-4 -3 -20 -6 -37 -5 -26 1 -30 -2 -25 -18 3 -10 1 -21 -5
-25 -6 -3 -10 3 -10 14 0 13 -7 21 -16 21 -11 0 -14 -5 -10 -16 3 -9 6 -22 6
-30 0 -9 11 -14 30 -14 23 0 30 4 30 20 0 11 5 20 10 20 6 0 10 -9 10 -21 0
-18 4 -20 27 -14 34 8 32 5 39 43 6 29 4 32 -18 32 -14 0 -28 -3 -31 -7z m23
-28 c0 -8 -4 -15 -10 -15 -5 0 -10 7 -10 15 0 8 5 15 10 15 6 0 10 -7 10 -15z"/>
<path d="M155 808 c0 -50 -1 -53 -27 -56 -35 -4 -37 -22 -3 -22 32 0 31 -8 -5
-58 -16 -23 -30 -44 -30 -47 0 -14 27 -2 47 23 l23 27 -2 -69 c-2 -48 1 -70
10 -73 9 -4 12 15 12 73 0 61 3 75 12 66 18 -18 28 -15 28 8 0 11 -7 20 -15
20 -8 0 -15 9 -15 20 0 11 7 20 15 20 8 0 15 7 15 15 0 8 -6 15 -14 15 -10 0
-16 14 -18 42 -2 29 -8 44 -18 46 -13 2 -16 -8 -15 -50z"/>
<path d="M295 803 l-70 -14 3 -92 c4 -131 5 -134 51 -142 55 -9 151 4 151 20
0 10 -22 13 -87 12 l-88 -2 -3 39 c-2 25 0 36 7 31 6 -3 11 -15 11 -26 0 -14
7 -19 30 -19 23 0 30 4 30 20 0 11 5 20 10 20 6 0 10 -9 10 -21 0 -18 4 -20
27 -14 34 8 31 5 39 45 l7 33 -39 -7 c-21 -4 -49 -7 -62 -7 -19 1 -22 -3 -17
-18 3 -11 1 -22 -5 -26 -6 -3 -10 3 -10 14 0 12 -7 21 -15 21 -11 0 -15 12
-15 49 0 55 3 58 86 67 33 4 53 11 51 18 -5 16 -23 16 -102 -1z m95 -148 c0
-8 -4 -15 -10 -15 -5 0 -10 7 -10 15 0 8 5 15 10 15 6 0 10 -7 10 -15z"/>
<path d="M313 758 c-29 -9 -32 -14 -26 -37 8 -34 6 -33 46 -26 39 8 69 51 45
66 -16 10 -24 10 -65 -3z m37 -27 c0 -5 -7 -12 -16 -15 -22 -9 -24 -8 -24 9 0
8 9 15 20 15 11 0 20 -4 20 -9z"/>
</g>
</svg>
