<?xml version="1.0" standalone="no"?>
<!DOCTYPE svg PUBLIC "-//W3C//DTD SVG 20010904//EN"
 "http://www.w3.org/TR/2001/REC-SVG-20010904/DTD/svg10.dtd">
<svg version="1.0" xmlns="http://www.w3.org/2000/svg"
 width="50.000000pt" height="725.000000pt" viewBox="0 0 50.000000 725.000000"
 preserveAspectRatio="xMidYMid meet">
<metadata>
Created by potrace 1.16, written by Peter Selinger 2001-2019
</metadata>
<g transform="translate(0.000000,725.000000) scale(0.100000,-0.100000)"
fill="#000000" stroke="none">
<path d="M141 7051 c-14 -4 -26 -12 -29 -19 -4 -13 -2 -13 71 3 15 3 27 10 27
15 0 11 -32 12 -69 1z"/>
<path d="M154 6660 c6 -47 5 -51 -19 -60 -31 -12 -34 -34 -4 -25 22 7 22 6 17
-81 -5 -90 -3 -114 12 -114 4 0 11 45 15 101 5 72 11 102 21 106 19 7 18 23
-2 23 -14 0 -16 8 -12 44 4 33 2 46 -9 50 -25 10 -26 7 -19 -44z"/>
<path d="M154 6210 c6 -47 5 -51 -19 -60 -30 -12 -34 -34 -4 -25 19 6 20 5 9
-17 -7 -12 -24 -38 -37 -56 -33 -44 -21 -53 18 -16 l32 29 -6 -53 c-6 -53 -2
-82 13 -82 4 0 11 45 15 101 5 72 11 102 21 106 19 7 18 23 -2 23 -14 0 -16 8
-12 44 4 33 2 46 -9 50 -25 10 -26 7 -19 -44z"/>
<path d="M154 5760 c6 -47 5 -51 -19 -60 -30 -12 -34 -34 -4 -25 19 6 20 5 9
-17 -7 -12 -24 -38 -37 -56 -33 -44 -21 -53 18 -16 l32 29 -6 -53 c-6 -54 -1
-82 14 -82 5 0 9 21 9 48 0 64 9 92 26 85 8 -3 14 1 14 11 0 9 -7 19 -15 22
-8 4 -15 13 -15 20 0 8 7 17 15 20 20 8 19 24 -1 24 -14 0 -16 8 -12 44 4 33
2 46 -9 50 -25 10 -26 7 -19 -44z"/>
<path d="M154 5310 c6 -47 5 -51 -19 -60 -30 -12 -34 -34 -4 -25 19 6 20 5 9
-17 -7 -12 -24 -38 -37 -56 -33 -44 -21 -53 18 -16 l32 29 -6 -53 c-6 -54 -1
-82 14 -82 5 0 9 21 9 48 0 64 9 92 26 85 20 -7 18 24 -3 35 -22 13 -9 45 15
38 21 -7 41 12 67 63 14 28 14 35 3 42 -20 13 -28 11 -28 -7 0 -9 -7 -31 -16
-49 -12 -25 -20 -32 -36 -27 -17 4 -20 11 -15 48 3 32 1 44 -10 48 -25 10 -26
7 -19 -44z"/>
<path d="M154 4860 c6 -47 5 -51 -19 -60 -30 -12 -34 -34 -4 -25 19 6 20 5 9
-17 -7 -12 -24 -38 -37 -56 -33 -44 -21 -53 18 -16 l32 29 -6 -53 c-6 -54 -1
-82 14 -82 5 0 9 21 9 48 0 64 9 92 26 85 20 -7 18 24 -2 35 -24 14 -12 37 20
37 27 1 28 0 24 -54 -2 -37 1 -56 10 -58 9 -4 12 15 12 72 0 50 5 87 16 107
13 25 14 32 2 39 -20 13 -28 11 -28 -7 0 -9 -7 -31 -16 -49 -12 -25 -20 -32
-36 -27 -17 4 -20 11 -15 48 3 32 1 44 -10 48 -25 10 -26 7 -19 -44z"/>
<path d="M154 4410 c6 -47 5 -51 -19 -60 -30 -12 -34 -34 -4 -25 19 6 20 5 9
-17 -7 -12 -24 -38 -37 -56 -33 -44 -21 -53 18 -16 l32 29 -6 -53 c-6 -54 -1
-82 14 -82 5 0 9 21 9 48 0 64 9 92 26 85 20 -7 18 24 -2 35 -24 14 -12 37 20
37 27 1 28 0 24 -54 -2 -37 1 -56 10 -58 9 -4 12 15 12 72 0 50 5 87 16 107
13 25 14 32 2 39 -20 13 -28 11 -28 -7 0 -9 -7 -31 -16 -49 -12 -25 -20 -32
-36 -27 -17 4 -20 11 -15 48 3 32 1 44 -10 48 -25 10 -26 7 -19 -44z"/>
<path d="M300 4422 c0 -19 12 -42 22 -42 14 0 5 43 -9 48 -7 2 -13 -1 -13 -6z"/>
<path d="M154 3960 c6 -47 5 -51 -19 -60 -30 -12 -34 -34 -4 -25 19 6 20 5 9
-17 -7 -12 -24 -38 -37 -56 -33 -44 -21 -53 18 -16 l32 29 -6 -53 c-6 -54 -1
-82 14 -82 5 0 9 21 9 48 0 64 9 92 26 85 20 -7 18 24 -2 35 -24 14 -12 37 20
37 27 1 28 0 24 -54 -2 -37 1 -56 10 -58 9 -4 12 14 12 65 l0 69 38 7 c20 3
49 6 65 6 15 0 27 5 27 10 0 6 -13 10 -29 10 -20 0 -30 6 -34 20 -3 11 -11 20
-17 20 -8 0 -10 -9 -6 -25 5 -20 3 -25 -14 -25 -23 0 -24 4 -9 32 9 16 8 23
-2 29 -21 13 -29 11 -29 -7 0 -9 -7 -31 -16 -49 -12 -25 -20 -32 -36 -27 -17
4 -20 11 -15 48 3 32 1 44 -10 48 -25 10 -26 7 -19 -44z"/>
<path d="M154 3510 c6 -47 5 -51 -19 -60 -30 -12 -34 -34 -4 -25 19 6 20 5 9
-17 -7 -12 -24 -38 -37 -56 -33 -44 -21 -53 18 -16 l32 29 -6 -53 c-6 -54 -1
-82 14 -82 5 0 9 21 9 48 0 64 9 92 26 85 20 -7 18 24 -2 35 -24 14 -12 37 20
37 27 1 28 0 24 -54 -2 -37 1 -56 10 -58 8 -3 12 9 12 40 l0 45 52 9 c28 4 53
14 56 22 3 9 -2 11 -14 8 -58 -17 -94 -19 -94 -4 0 14 46 27 103 27 15 0 27 5
27 10 0 6 -13 10 -29 10 -20 0 -30 6 -34 20 -3 11 -11 20 -17 20 -8 0 -10 -9
-6 -25 5 -20 3 -25 -14 -25 -23 0 -24 4 -9 32 9 16 8 23 -2 29 -21 13 -29 11
-29 -7 0 -9 -7 -31 -16 -49 -12 -25 -20 -32 -36 -27 -17 4 -20 11 -15 48 3 32
1 44 -10 48 -25 10 -26 7 -19 -44z"/>
<path d="M154 3060 c6 -47 5 -51 -19 -60 -30 -12 -34 -34 -4 -25 19 6 20 5 9
-17 -7 -12 -24 -38 -37 -56 -33 -44 -21 -53 18 -16 l32 29 -6 -53 c-6 -54 -1
-82 14 -82 5 0 9 21 9 48 0 64 9 92 26 85 20 -7 18 24 -2 35 -24 14 -12 37 20
37 27 1 28 0 24 -54 -2 -37 1 -56 10 -58 7 -3 12 5 12 20 0 26 27 37 91 37 16
0 29 5 29 11 0 8 -18 10 -60 6 -74 -8 -80 8 -8 20 28 4 53 14 56 22 3 9 -2 11
-14 8 -58 -17 -94 -19 -94 -4 0 14 46 27 103 27 15 0 27 5 27 10 0 6 -13 10
-29 10 -20 0 -30 6 -34 20 -3 11 -11 20 -17 20 -8 0 -10 -9 -6 -25 5 -20 3
-25 -14 -25 -23 0 -24 4 -9 32 9 16 8 23 -2 29 -21 13 -29 11 -29 -7 0 -9 -7
-31 -16 -49 -12 -25 -20 -32 -36 -27 -17 4 -20 11 -15 48 3 32 1 44 -10 48
-25 10 -26 7 -19 -44z"/>
<path d="M154 2610 c6 -47 5 -51 -19 -60 -30 -12 -34 -34 -4 -25 19 6 20 5 9
-17 -7 -12 -24 -38 -37 -56 -33 -44 -21 -53 18 -16 l32 29 -6 -53 c-6 -54 -1
-82 14 -82 5 0 9 21 9 48 0 64 9 92 26 85 20 -7 18 24 -2 35 -24 14 -12 37 20
37 27 1 28 0 24 -54 -2 -37 1 -56 10 -58 7 -3 12 5 12 20 0 18 6 26 25 29 17
4 25 1 25 -8 0 -19 16 -18 24 1 3 8 15 15 26 15 11 0 20 5 20 10 0 6 -9 10
-20 10 -23 0 -27 15 -5 24 18 7 20 28 2 24 -7 -2 -14 2 -15 7 -1 6 9 11 23 13
35 5 32 22 -4 22 -20 0 -30 6 -34 20 -3 11 -11 20 -17 20 -8 0 -10 -9 -6 -25
5 -20 3 -25 -14 -25 -23 0 -24 4 -9 32 9 16 8 23 -2 29 -21 13 -29 11 -29 -7
0 -9 -7 -31 -16 -49 -12 -25 -20 -32 -36 -27 -17 4 -20 11 -15 48 3 32 1 44
-10 48 -25 10 -26 7 -19 -44z m154 -62 c-7 -20 -48 -23 -48 -4 0 11 9 16 26
16 16 0 24 -5 22 -12z m-3 -47 c-8 -13 -45 -15 -45 -2 0 5 10 11 23 13 27 5
31 3 22 -11z"/>
<path d="M154 2160 c6 -47 5 -51 -19 -60 -30 -12 -34 -34 -4 -25 19 6 20 5 9
-17 -7 -12 -24 -38 -37 -56 -33 -44 -21 -53 18 -16 l32 29 -6 -53 c-6 -54 -1
-82 14 -82 5 0 9 21 9 48 0 64 9 92 26 85 20 -7 18 24 -2 35 -24 14 -12 37 20
37 27 1 28 0 24 -55 -3 -50 -1 -55 17 -52 11 1 53 5 93 9 39 3 72 9 72 13 0
14 -29 20 -62 13 -22 -4 -29 -3 -24 5 4 7 16 12 27 12 10 0 19 5 19 10 0 6 -9
10 -20 10 -23 0 -27 15 -5 24 18 7 20 28 2 24 -7 -2 -14 2 -15 7 -1 6 9 11 23
13 35 5 32 22 -4 22 -20 0 -30 6 -34 20 -3 11 -11 20 -17 20 -8 0 -10 -9 -6
-25 5 -20 3 -25 -14 -25 -23 0 -24 4 -9 32 9 16 8 23 -2 29 -21 13 -29 11 -29
-7 0 -9 -7 -31 -16 -49 -12 -25 -20 -32 -36 -27 -17 4 -20 11 -15 48 3 32 1
44 -10 48 -25 10 -26 7 -19 -44z m154 -62 c-7 -20 -48 -23 -48 -4 0 11 9 16
26 16 16 0 24 -5 22 -12z m-3 -47 c-8 -13 -45 -15 -45 -2 0 5 10 11 23 13 27
5 31 3 22 -11z m0 -40 c-8 -13 -45 -15 -45 -2 0 5 10 11 23 13 27 5 31 3 22
-11z"/>
<path d="M154 1710 c6 -47 5 -51 -19 -60 -30 -12 -34 -34 -4 -25 19 6 20 5 9
-17 -7 -12 -24 -38 -37 -56 -33 -44 -21 -53 18 -16 l32 29 -6 -53 c-6 -54 -1
-82 14 -82 5 0 9 21 9 48 0 64 9 92 26 85 20 -7 18 24 -2 35 -24 14 -12 37 20
37 27 1 28 0 24 -55 -3 -50 -1 -55 17 -52 11 1 53 5 93 9 39 3 72 9 72 13 0
14 -29 20 -62 13 -22 -4 -29 -3 -24 5 4 7 16 12 27 12 10 0 19 5 19 10 0 6 -9
10 -20 10 -23 0 -27 15 -5 24 18 7 20 28 2 24 -7 -2 -14 2 -15 7 -1 6 9 11 23
13 35 5 32 22 -4 22 -20 0 -30 6 -34 20 -3 11 -11 20 -17 20 -8 0 -10 -9 -6
-25 5 -20 3 -25 -14 -25 -23 0 -24 4 -9 32 9 16 8 23 -2 29 -21 13 -29 11 -29
-7 0 -9 -7 -31 -16 -49 -12 -25 -20 -32 -36 -27 -17 4 -20 11 -15 48 3 32 1
44 -10 48 -25 10 -26 7 -19 -44z m154 -62 c-7 -20 -48 -23 -48 -4 0 11 9 16
26 16 16 0 24 -5 22 -12z m-3 -47 c-8 -13 -45 -15 -45 -2 0 5 10 11 23 13 27
5 31 3 22 -11z m0 -40 c-8 -13 -45 -15 -45 -2 0 5 10 11 23 13 27 5 31 3 22
-11z"/>
<path d="M212 1485 c-16 -34 -15 -45 2 -45 15 0 26 21 26 51 0 27 -15 24 -28
-6z"/>
<path d="M154 1260 c6 -47 5 -51 -19 -60 -30 -12 -34 -34 -4 -25 19 6 20 5 9
-17 -7 -12 -24 -38 -37 -56 -33 -44 -21 -53 18 -16 l32 29 -6 -53 c-6 -54 -1
-82 14 -82 5 0 9 21 9 48 0 64 9 92 26 85 20 -7 18 24 -2 35 -24 14 -12 37 20
37 27 1 28 0 24 -55 -3 -50 -1 -55 17 -52 11 1 53 5 93 9 39 3 72 9 72 13 0
14 -29 20 -62 13 -22 -4 -29 -3 -24 5 4 7 16 12 27 12 10 0 19 5 19 10 0 6 -9
10 -20 10 -23 0 -27 15 -5 24 18 7 20 28 2 24 -7 -2 -14 2 -15 7 -1 6 9 11 23
13 35 5 32 22 -4 22 -20 0 -30 6 -34 20 -3 11 -11 20 -17 20 -8 0 -10 -9 -6
-25 5 -20 3 -25 -14 -25 -23 0 -24 4 -9 32 9 16 8 23 -2 29 -21 13 -29 11 -29
-7 0 -9 -7 -31 -16 -49 -12 -25 -20 -32 -36 -27 -17 4 -20 11 -15 48 3 32 1
44 -10 48 -25 10 -26 7 -19 -44z m154 -62 c-7 -20 -48 -23 -48 -4 0 11 9 16
26 16 16 0 24 -5 22 -12z m-3 -47 c-8 -13 -45 -15 -45 -2 0 5 10 11 23 13 27
5 31 3 22 -11z m0 -40 c-8 -13 -45 -15 -45 -2 0 5 10 11 23 13 27 5 31 3 22
-11z"/>
<path d="M212 1035 c-16 -34 -15 -45 2 -45 15 0 26 21 26 51 0 27 -15 24 -28
-6z"/>
<path d="M270 1041 c0 -21 13 -41 26 -41 15 0 17 10 8 34 -7 17 -34 22 -34 7z"/>
<path d="M154 810 c6 -47 5 -51 -19 -60 -30 -12 -34 -34 -4 -25 19 6 20 5 9
-17 -7 -12 -24 -38 -37 -56 -33 -44 -21 -53 18 -16 l32 29 -6 -53 c-6 -54 -1
-82 14 -82 5 0 9 21 9 48 0 64 9 92 26 85 20 -7 18 24 -2 35 -24 14 -12 37 20
37 27 1 28 0 24 -55 -3 -50 -1 -55 17 -52 11 1 53 5 93 9 39 3 72 9 72 13 0
14 -29 20 -62 13 -22 -4 -29 -3 -24 5 4 7 16 12 27 12 10 0 19 5 19 10 0 6 -9
10 -20 10 -23 0 -27 15 -5 24 18 7 20 28 2 24 -7 -2 -14 2 -15 7 -1 6 9 11 23
13 35 5 32 22 -4 22 -20 0 -30 6 -34 20 -3 11 -11 20 -17 20 -8 0 -10 -9 -6
-25 5 -20 3 -25 -14 -25 -23 0 -24 4 -9 32 9 16 8 23 -2 29 -21 13 -29 11 -29
-7 0 -9 -7 -31 -16 -49 -12 -25 -20 -32 -36 -27 -17 4 -20 11 -15 48 3 32 1
44 -10 48 -25 10 -26 7 -19 -44z m154 -62 c-7 -20 -48 -23 -48 -4 0 11 9 16
26 16 16 0 24 -5 22 -12z m-3 -47 c-8 -13 -45 -15 -45 -2 0 5 10 11 23 13 27
5 31 3 22 -11z m0 -40 c-8 -13 -45 -15 -45 -2 0 5 10 11 23 13 27 5 31 3 22
-11z"/>
<path d="M212 585 c-16 -34 -15 -45 2 -45 15 0 26 21 26 51 0 27 -15 24 -28
-6z"/>
<path d="M320 598 c1 -15 24 -48 34 -48 13 0 5 48 -10 54 -22 8 -24 8 -24 -6z"/>
<path d="M270 591 c0 -21 13 -41 26 -41 15 0 17 10 8 34 -7 17 -34 22 -34 7z"/>
<path d="M154 360 c6 -47 5 -51 -19 -60 -30 -12 -34 -34 -4 -25 19 6 20 5 9
-17 -7 -12 -24 -38 -37 -56 -33 -44 -21 -53 18 -16 l32 29 -6 -53 c-6 -54 -1
-82 14 -82 5 0 9 21 9 48 0 64 9 92 26 85 20 -7 18 24 -2 35 -24 14 -12 37 20
37 27 1 28 0 24 -55 -3 -50 -1 -55 17 -52 11 1 53 5 93 9 39 3 72 9 72 13 0
14 -29 20 -62 13 -22 -4 -29 -3 -24 5 4 7 16 12 27 12 10 0 19 5 19 10 0 6 -9
10 -20 10 -23 0 -27 15 -5 24 18 7 20 28 2 24 -7 -2 -14 2 -15 7 -1 6 9 11 23
13 35 5 32 22 -4 22 -20 0 -30 6 -34 20 -3 11 -11 20 -17 20 -8 0 -10 -9 -6
-25 5 -20 3 -25 -14 -25 -23 0 -24 4 -9 32 9 16 8 23 -2 29 -21 13 -29 11 -29
-7 0 -9 -7 -31 -16 -49 -12 -25 -20 -32 -36 -27 -17 4 -20 11 -15 48 3 32 1
44 -10 48 -25 10 -26 7 -19 -44z m154 -62 c-7 -20 -48 -23 -48 -4 0 11 9 16
26 16 16 0 24 -5 22 -12z m-3 -47 c-8 -13 -45 -15 -45 -2 0 5 10 11 23 13 27
5 31 3 22 -11z m0 -40 c-8 -13 -45 -15 -45 -2 0 5 10 11 23 13 27 5 31 3 22
-11z"/>
<path d="M212 135 c-16 -34 -15 -45 2 -45 15 0 26 21 26 51 0 27 -15 24 -28
-6z"/>
<path d="M320 148 c1 -15 24 -48 34 -48 13 0 5 48 -10 54 -22 8 -24 8 -24 -6z"/>
<path d="M380 155 c0 -12 33 -55 41 -55 13 0 11 34 -3 48 -12 12 -38 17 -38 7z"/>
<path d="M270 141 c0 -21 13 -41 26 -41 15 0 17 10 8 34 -7 17 -34 22 -34 7z"/>
</g>
</svg>
