<?xml version="1.0" standalone="no"?>
<!DOCTYPE svg PUBLIC "-//W3C//DTD SVG 20010904//EN"
 "http://www.w3.org/TR/2001/REC-SVG-20010904/DTD/svg10.dtd">
<svg version="1.0" xmlns="http://www.w3.org/2000/svg"
 width="95.000000pt" height="725.000000pt" viewBox="0 0 95.000000 725.000000"
 preserveAspectRatio="xMidYMid meet">
<metadata>
Created by potrace 1.16, written by Peter Selinger 2001-2019
</metadata>
<g transform="translate(0.000000,725.000000) scale(0.100000,-0.100000)"
fill="#000000" stroke="none">
<path d="M294 7104 l1 -55 43 6 c34 5 42 3 42 -9 0 -20 10 -20 35 -3 25 19 11
37 -28 37 l-32 1 23 19 c13 11 21 24 17 30 -13 20 -34 9 -46 -25 -18 -50 -33
-44 -26 10 6 39 4 45 -12 45 -16 0 -18 -8 -17 -56z"/>
<path d="M152 7098 l3 -53 -32 -3 c-42 -4 -43 -20 -2 -24 l32 -3 -37 -48 c-43
-56 -40 -74 5 -31 l31 29 -4 -64 c-2 -41 1 -65 8 -68 15 -5 24 29 24 89 0 38
3 46 15 42 9 -4 15 0 15 10 0 9 4 16 10 16 5 0 12 11 16 25 4 16 13 25 25 25
10 0 19 5 19 10 0 6 -6 10 -14 10 -8 0 -21 3 -30 6 -10 4 -16 1 -16 -9 0 -10
-7 -13 -21 -10 -17 5 -20 12 -17 52 2 37 0 46 -15 49 -16 3 -17 -3 -15 -50z
m58 -89 c0 -24 -23 -21 -28 4 -2 10 3 17 12 17 10 0 16 -9 16 -21z"/>
<path d="M242 7094 c2 -11 11 -20 22 -22 13 -3 17 1 14 14 -2 11 -11 20 -22
22 -13 3 -17 -1 -14 -14z"/>
<path d="M573 7043 c-41 -5 -44 -23 -4 -23 43 0 91 11 91 21 0 9 -26 9 -87 2z"/>
<path d="M324 7023 c4 -9 1 -20 -6 -25 -22 -13 -30 -9 -23 12 5 17 2 20 -20
20 -22 0 -26 -3 -20 -17 4 -10 12 -30 17 -45 5 -16 14 -28 19 -28 5 0 9 -7 9
-15 0 -8 -9 -15 -21 -15 -16 0 -19 4 -14 20 5 16 2 20 -15 20 -18 0 -21 -4
-16 -22 3 -13 6 -38 6 -56 l0 -32 56 6 c43 5 58 4 65 -7 13 -22 31 3 39 58 10
64 0 75 -64 68 -42 -4 -46 -3 -21 5 52 17 70 70 23 70 -15 0 -18 -4 -14 -17z
m46 -93 c0 -5 -11 -10 -25 -10 -14 0 -25 5 -25 10 0 6 11 10 25 10 14 0 25 -4
25 -10z m0 -39 c0 -5 -11 -11 -25 -13 -17 -4 -25 -1 -25 8 0 8 11 14 25 14 14
0 25 -4 25 -9z m-70 -11 c0 -5 -9 -10 -20 -10 -11 0 -20 5 -20 10 0 6 9 10 20
10 11 0 20 -4 20 -10z"/>
<path d="M602 6648 l3 -53 -32 -3 c-42 -4 -43 -22 -2 -22 l31 0 -3 -92 c-3
-61 0 -92 7 -95 16 -6 24 31 24 120 0 62 3 77 15 77 8 0 15 5 15 10 0 6 -7 10
-16 10 -12 0 -15 9 -12 47 2 39 0 48 -15 51 -16 3 -17 -3 -15 -50z"/>
<path d="M602 6198 l3 -53 -32 -3 c-42 -4 -43 -20 -2 -24 l32 -3 -37 -48 c-43
-56 -40 -74 5 -31 l31 29 -4 -64 c-2 -41 1 -65 8 -68 16 -6 24 31 24 120 0 62
3 77 15 77 8 0 15 5 15 10 0 6 -7 10 -16 10 -12 0 -15 9 -12 47 2 39 0 48 -15
51 -16 3 -17 -3 -15 -50z"/>
<path d="M602 5748 l3 -53 -32 -3 c-42 -4 -43 -20 -2 -24 l32 -3 -37 -48 c-43
-56 -40 -74 5 -31 l31 29 -4 -64 c-2 -41 1 -65 8 -68 15 -5 24 29 24 89 0 38
3 46 15 42 9 -4 15 0 15 9 0 8 -7 17 -15 21 -8 3 -15 12 -15 21 0 8 7 15 15
15 8 0 15 5 15 10 0 6 -7 10 -16 10 -12 0 -15 9 -12 47 2 39 0 48 -15 51 -16
3 -17 -3 -15 -50z"/>
<path d="M746 5313 c7 -48 11 -60 18 -52 2 2 6 25 9 52 6 43 5 47 -14 47 -18
0 -20 -4 -13 -47z"/>
<path d="M602 5298 l3 -53 -32 -3 c-42 -4 -43 -20 -2 -24 l32 -3 -37 -48 c-43
-56 -40 -74 5 -31 l31 29 -4 -64 c-2 -41 1 -65 8 -68 15 -5 24 29 24 89 0 38
3 46 15 42 9 -4 15 0 15 9 0 8 -7 17 -15 21 -8 3 -15 12 -15 21 0 8 7 15 15
15 8 0 15 5 15 10 0 6 -7 10 -16 10 -12 0 -15 9 -12 47 2 39 0 48 -15 51 -16
3 -17 -3 -15 -50z"/>
<path d="M746 4863 c7 -48 11 -60 18 -52 2 2 6 25 9 52 6 43 5 47 -14 47 -18
0 -20 -4 -13 -47z"/>
<path d="M602 4848 l3 -53 -32 -3 c-42 -4 -43 -20 -2 -24 l32 -3 -37 -48 c-43
-56 -40 -74 5 -31 l31 29 -4 -64 c-2 -41 1 -65 8 -68 15 -5 24 29 24 89 0 38
3 46 15 42 9 -4 15 0 15 9 0 8 -7 17 -15 21 -8 3 -15 12 -15 21 0 8 7 15 15
15 8 0 15 5 15 10 0 6 -7 10 -16 10 -12 0 -15 9 -12 47 2 39 0 48 -15 51 -16
3 -17 -3 -15 -50z"/>
<path d="M692 4844 c2 -11 11 -20 22 -22 13 -3 17 1 14 14 -2 11 -11 20 -22
22 -13 3 -17 -1 -14 -14z"/>
<path d="M746 4413 c7 -48 11 -60 18 -52 2 2 6 25 9 52 6 43 5 47 -14 47 -18
0 -20 -4 -13 -47z"/>
<path d="M602 4398 l3 -53 -32 -3 c-42 -4 -43 -20 -2 -24 l32 -3 -37 -48 c-43
-56 -40 -74 5 -31 l31 29 -4 -64 c-2 -41 1 -65 8 -68 15 -5 24 29 24 89 0 38
3 46 15 42 9 -4 15 0 15 9 0 8 -7 17 -15 21 -8 3 -15 12 -15 21 0 8 7 15 15
15 8 0 15 5 15 10 0 6 -7 10 -16 10 -12 0 -15 9 -12 47 2 39 0 48 -15 51 -16
3 -17 -3 -15 -50z"/>
<path d="M801 4414 c-6 -15 -10 -29 -7 -31 7 -8 56 31 52 42 -6 21 -33 15 -45
-11z"/>
<path d="M692 4394 c2 -11 11 -20 22 -22 13 -3 17 1 14 14 -2 11 -11 20 -22
22 -13 3 -17 -1 -14 -14z"/>
<path d="M746 3963 c7 -48 11 -60 18 -52 2 2 6 25 9 52 6 43 5 47 -14 47 -18
0 -20 -4 -13 -47z"/>
<path d="M602 3948 l3 -53 -32 -3 c-42 -4 -43 -20 -2 -24 l32 -3 -37 -48 c-43
-56 -40 -74 5 -31 l31 29 -4 -64 c-2 -41 1 -65 8 -68 15 -5 24 29 24 89 0 38
3 46 15 42 8 -4 15 -1 15 6 0 6 7 18 15 26 17 17 21 74 5 74 -5 0 -10 -6 -10
-14 0 -9 -7 -12 -21 -9 -17 5 -20 12 -17 52 2 37 0 46 -15 49 -16 3 -17 -3
-15 -50z m58 -89 c0 -24 -23 -21 -28 4 -2 10 3 17 12 17 10 0 16 -9 16 -21z"/>
<path d="M801 3964 c-6 -15 -10 -29 -7 -31 7 -8 56 31 52 42 -6 21 -33 15 -45
-11z"/>
<path d="M692 3944 c2 -11 11 -20 22 -22 13 -3 17 1 14 14 -2 11 -11 20 -22
22 -13 3 -17 -1 -14 -14z"/>
<path d="M744 3504 l1 -55 43 6 c34 5 42 3 42 -9 0 -20 10 -20 35 -3 25 19 11
37 -28 37 l-32 1 23 19 c13 11 21 24 17 30 -13 20 -34 9 -46 -25 -18 -50 -33
-44 -26 10 6 39 4 45 -12 45 -16 0 -18 -8 -17 -56z"/>
<path d="M602 3498 l3 -53 -32 -3 c-42 -4 -43 -20 -2 -24 l32 -3 -37 -48 c-43
-56 -40 -74 5 -31 l31 29 -4 -64 c-2 -41 1 -65 8 -68 15 -5 24 29 24 89 0 38
3 46 15 42 9 -4 15 0 15 10 0 9 4 16 10 16 5 0 12 11 16 25 4 16 13 25 25 25
10 0 19 5 19 10 0 6 -6 10 -14 10 -8 0 -21 3 -30 6 -10 4 -16 1 -16 -9 0 -10
-7 -13 -21 -10 -17 5 -20 12 -17 52 2 37 0 46 -15 49 -16 3 -17 -3 -15 -50z
m58 -89 c0 -24 -23 -21 -28 4 -2 10 3 17 12 17 10 0 16 -9 16 -21z"/>
<path d="M692 3494 c2 -11 11 -20 22 -22 13 -3 17 1 14 14 -2 11 -11 20 -22
22 -13 3 -17 -1 -14 -14z"/>
<path d="M744 3054 l1 -55 43 6 c34 5 42 3 42 -9 0 -20 10 -20 35 -3 25 19 11
37 -28 37 l-32 1 23 19 c13 11 21 24 17 30 -13 20 -34 9 -46 -25 -18 -50 -33
-44 -26 10 6 39 4 45 -12 45 -16 0 -18 -8 -17 -56z"/>
<path d="M602 3048 l3 -53 -32 -3 c-42 -4 -43 -20 -2 -24 l32 -3 -37 -48 c-43
-56 -40 -74 5 -31 l31 29 -4 -64 c-2 -41 1 -65 8 -68 15 -5 24 29 24 89 0 38
3 46 15 42 9 -4 15 0 15 10 0 9 4 16 10 16 5 0 12 11 16 25 4 16 13 25 25 25
10 0 19 5 19 10 0 6 -6 10 -14 10 -8 0 -21 3 -30 6 -10 4 -16 1 -16 -9 0 -10
-7 -13 -21 -10 -17 5 -20 12 -17 52 2 37 0 46 -15 49 -16 3 -17 -3 -15 -50z
m58 -89 c0 -24 -23 -21 -28 4 -2 10 3 17 12 17 10 0 16 -9 16 -21z"/>
<path d="M692 3044 c2 -11 11 -20 22 -22 13 -3 17 1 14 14 -2 11 -11 20 -22
22 -13 3 -17 -1 -14 -14z"/>
<path d="M705 2963 c4 -10 10 -26 12 -35 7 -24 23 -23 23 1 0 31 -11 51 -27
51 -11 0 -13 -5 -8 -17z"/>
<path d="M744 2604 l1 -55 43 6 c34 5 42 3 42 -9 0 -20 10 -20 35 -3 25 19 11
37 -28 37 l-32 1 23 19 c13 11 21 24 17 30 -13 20 -34 9 -46 -25 -18 -50 -33
-44 -26 10 6 39 4 45 -12 45 -16 0 -18 -8 -17 -56z"/>
<path d="M602 2598 l3 -53 -32 -3 c-42 -4 -43 -20 -2 -24 l32 -3 -37 -48 c-43
-56 -40 -74 5 -31 l31 29 -4 -64 c-2 -41 1 -65 8 -68 15 -5 24 29 24 89 0 38
3 46 15 42 9 -4 15 0 15 10 0 9 4 16 10 16 5 0 12 11 16 25 4 16 13 25 25 25
10 0 19 5 19 10 0 6 -6 10 -14 10 -8 0 -21 3 -30 6 -10 4 -16 1 -16 -9 0 -10
-7 -13 -21 -10 -17 5 -20 12 -17 52 2 37 0 46 -15 49 -16 3 -17 -3 -15 -50z
m58 -89 c0 -24 -23 -21 -28 4 -2 10 3 17 12 17 10 0 16 -9 16 -21z"/>
<path d="M692 2594 c2 -11 11 -20 22 -22 13 -3 17 1 14 14 -2 11 -11 20 -22
22 -13 3 -17 -1 -14 -14z"/>
<path d="M776 2518 c9 -32 12 -34 30 -16 19 19 11 38 -17 38 -16 0 -19 -4 -13
-22z"/>
<path d="M705 2513 c4 -10 10 -26 12 -35 7 -24 23 -23 23 1 0 11 3 26 6 35 5
12 0 16 -21 16 -22 0 -26 -3 -20 -17z"/>
<path d="M744 2154 l1 -55 43 6 c34 5 42 3 42 -9 0 -20 10 -20 35 -3 25 19 11
37 -28 37 l-32 1 23 19 c13 11 21 24 17 30 -13 20 -34 9 -46 -25 -18 -50 -33
-44 -26 10 6 39 4 45 -12 45 -16 0 -18 -8 -17 -56z"/>
<path d="M602 2148 l3 -53 -32 -3 c-42 -4 -43 -20 -2 -24 l32 -3 -37 -48 c-43
-56 -40 -74 5 -31 l31 29 -4 -64 c-2 -41 1 -65 8 -68 15 -5 24 29 24 89 0 38
3 46 15 42 9 -4 15 0 15 10 0 9 4 16 10 16 5 0 12 11 16 25 4 16 13 25 25 25
10 0 19 5 19 10 0 6 -6 10 -14 10 -8 0 -21 3 -30 6 -10 4 -16 1 -16 -9 0 -10
-7 -13 -21 -10 -17 5 -20 12 -17 52 2 37 0 46 -15 49 -16 3 -17 -3 -15 -50z
m58 -89 c0 -24 -23 -21 -28 4 -2 10 3 17 12 17 10 0 16 -9 16 -21z"/>
<path d="M692 2144 c2 -11 11 -20 22 -22 13 -3 17 1 14 14 -2 11 -11 20 -22
22 -13 3 -17 -1 -14 -14z"/>
<path d="M774 2073 c4 -9 1 -20 -6 -25 -22 -13 -30 -9 -23 12 5 17 2 20 -20
20 -22 0 -26 -3 -20 -17 4 -10 10 -26 12 -36 4 -12 12 -16 24 -12 11 3 27 7
37 10 21 6 45 42 37 55 -4 6 -15 10 -27 10 -15 0 -18 -4 -14 -17z"/>
<path d="M744 1704 l1 -55 43 6 c34 5 42 3 42 -9 0 -20 10 -20 35 -3 25 19 11
37 -28 37 l-32 1 23 19 c13 11 21 24 17 30 -13 20 -34 9 -46 -25 -18 -50 -33
-44 -26 10 6 39 4 45 -12 45 -16 0 -18 -8 -17 -56z"/>
<path d="M602 1698 l3 -53 -32 -3 c-42 -4 -43 -20 -2 -24 l32 -3 -37 -48 c-43
-56 -40 -74 5 -31 l31 29 -4 -64 c-2 -41 1 -65 8 -68 15 -5 24 29 24 89 0 38
3 46 15 42 9 -4 15 0 15 10 0 9 4 16 10 16 5 0 12 11 16 25 4 16 13 25 25 25
10 0 19 5 19 10 0 6 -6 10 -14 10 -8 0 -21 3 -30 6 -10 4 -16 1 -16 -9 0 -10
-7 -13 -21 -10 -17 5 -20 12 -17 52 2 37 0 46 -15 49 -16 3 -17 -3 -15 -50z
m58 -89 c0 -24 -23 -21 -28 4 -2 10 3 17 12 17 10 0 16 -9 16 -21z"/>
<path d="M692 1694 c2 -11 11 -20 22 -22 13 -3 17 1 14 14 -2 11 -11 20 -22
22 -13 3 -17 -1 -14 -14z"/>
<path d="M774 1623 c4 -9 1 -20 -6 -25 -22 -13 -30 -9 -23 12 5 17 2 20 -20
20 -22 0 -26 -3 -20 -17 4 -10 10 -26 12 -36 4 -12 12 -16 24 -12 11 3 27 7
37 10 21 6 45 42 37 55 -4 6 -15 10 -27 10 -15 0 -18 -4 -14 -17z"/>
<path d="M684 1528 c3 -13 6 -38 6 -55 0 -18 5 -33 10 -33 6 0 10 25 10 55 0
44 -3 55 -16 55 -12 0 -15 -6 -10 -22z"/>
<path d="M744 1254 l1 -55 43 6 c34 5 42 3 42 -9 0 -20 10 -20 35 -3 25 19 11
37 -28 37 l-32 1 23 19 c13 11 21 24 17 30 -13 20 -34 9 -46 -25 -18 -50 -33
-44 -26 10 6 39 4 45 -12 45 -16 0 -18 -8 -17 -56z"/>
<path d="M602 1248 l3 -53 -32 -3 c-42 -4 -43 -20 -2 -24 l32 -3 -37 -48 c-43
-56 -40 -74 5 -31 l31 29 -4 -64 c-2 -41 1 -65 8 -68 15 -5 24 29 24 89 0 38
3 46 15 42 9 -4 15 0 15 10 0 9 4 16 10 16 5 0 12 11 16 25 4 16 13 25 25 25
10 0 19 5 19 10 0 6 -6 10 -14 10 -8 0 -21 3 -30 6 -10 4 -16 1 -16 -9 0 -10
-7 -13 -21 -10 -17 5 -20 12 -17 52 2 37 0 46 -15 49 -16 3 -17 -3 -15 -50z
m58 -89 c0 -24 -23 -21 -28 4 -2 10 3 17 12 17 10 0 16 -9 16 -21z"/>
<path d="M692 1244 c2 -11 11 -20 22 -22 13 -3 17 1 14 14 -2 11 -11 20 -22
22 -13 3 -17 -1 -14 -14z"/>
<path d="M774 1173 c4 -9 1 -20 -6 -25 -22 -13 -30 -9 -23 12 5 17 2 20 -20
20 -22 0 -26 -3 -20 -17 4 -10 12 -30 17 -45 9 -25 15 -28 54 -28 42 0 44 -2
44 -28 0 -15 -5 -33 -10 -38 -12 -12 -3 -44 11 -44 24 0 45 112 24 130 -6 5
-34 8 -61 5 -41 -4 -44 -3 -19 5 52 17 70 70 23 70 -15 0 -18 -4 -14 -17z"/>
<path d="M687 1048 c3 -29 7 -55 9 -57 8 -9 12 5 16 57 4 45 3 52 -13 52 -16
0 -17 -6 -12 -52z"/>
<path d="M744 804 l1 -55 43 6 c34 5 42 3 42 -9 0 -20 10 -20 35 -3 25 19 11
37 -28 37 l-32 1 23 19 c13 11 21 24 17 30 -13 20 -34 9 -46 -25 -18 -50 -33
-44 -26 10 6 39 4 45 -12 45 -16 0 -18 -8 -17 -56z"/>
<path d="M602 798 l3 -53 -32 -3 c-42 -4 -43 -20 -2 -24 l32 -3 -37 -48 c-43
-56 -40 -74 5 -31 l31 29 -4 -64 c-2 -41 1 -65 8 -68 15 -5 24 29 24 89 0 38
3 46 15 42 9 -4 15 0 15 10 0 9 4 16 10 16 5 0 12 11 16 25 4 16 13 25 25 25
10 0 19 5 19 10 0 6 -6 10 -14 10 -8 0 -21 3 -30 6 -10 4 -16 1 -16 -9 0 -10
-7 -13 -21 -10 -17 5 -20 12 -17 52 2 37 0 46 -15 49 -16 3 -17 -3 -15 -50z
m58 -89 c0 -24 -23 -21 -28 4 -2 10 3 17 12 17 10 0 16 -9 16 -21z"/>
<path d="M692 794 c2 -11 11 -20 22 -22 13 -3 17 1 14 14 -2 11 -11 20 -22 22
-13 3 -17 -1 -14 -14z"/>
<path d="M774 723 c4 -9 1 -20 -6 -25 -22 -13 -30 -9 -23 12 5 17 2 20 -20 20
-22 0 -26 -3 -20 -17 4 -10 12 -30 17 -45 9 -25 15 -28 54 -28 24 0 44 -4 44
-10 0 -5 -8 -10 -17 -10 -10 0 -35 -3 -57 -7 -36 -6 -38 -5 -31 16 5 17 2 21
-15 21 -18 0 -21 -4 -16 -22 3 -13 6 -38 6 -55 0 -18 5 -33 10 -33 6 0 10 11
10 24 0 21 6 25 51 31 55 8 68 3 50 -18 -12 -15 -5 -47 10 -47 24 0 45 112 24
130 -6 5 -34 8 -61 5 -41 -4 -44 -3 -19 5 52 17 70 70 23 70 -15 0 -18 -4 -14
-17z"/>
<path d="M744 354 l1 -55 43 6 c34 5 42 3 42 -9 0 -20 10 -20 35 -3 25 19 11
37 -28 37 l-32 1 23 19 c13 11 21 24 17 30 -13 20 -34 9 -46 -25 -18 -50 -33
-44 -26 10 6 39 4 45 -12 45 -16 0 -18 -8 -17 -56z"/>
<path d="M602 348 l3 -53 -32 -3 c-42 -4 -43 -20 -2 -24 l32 -3 -37 -48 c-43
-56 -40 -74 5 -31 l31 29 -4 -64 c-2 -41 1 -65 8 -68 15 -5 24 29 24 89 0 38
3 46 15 42 9 -4 15 0 15 10 0 9 4 16 10 16 5 0 12 11 16 25 4 16 13 25 25 25
10 0 19 5 19 10 0 6 -6 10 -14 10 -8 0 -21 3 -30 6 -10 4 -16 1 -16 -9 0 -10
-7 -13 -21 -10 -17 5 -20 12 -17 52 2 37 0 46 -15 49 -16 3 -17 -3 -15 -50z
m58 -89 c0 -24 -23 -21 -28 4 -2 10 3 17 12 17 10 0 16 -9 16 -21z"/>
<path d="M692 344 c2 -11 11 -20 22 -22 13 -3 17 1 14 14 -2 11 -11 20 -22 22
-13 3 -17 -1 -14 -14z"/>
<path d="M774 273 c4 -9 1 -20 -6 -25 -22 -13 -30 -9 -23 12 5 17 2 20 -20 20
-22 0 -26 -3 -20 -17 4 -10 12 -30 17 -45 5 -16 14 -28 19 -28 5 0 9 -7 9 -15
0 -8 -9 -15 -21 -15 -16 0 -19 4 -14 20 5 16 2 20 -15 20 -18 0 -21 -4 -16
-22 3 -13 6 -38 6 -55 0 -18 5 -33 10 -33 6 0 10 11 10 25 0 18 5 25 20 25 11
0 20 -7 20 -15 0 -8 5 -15 10 -15 6 0 10 9 10 20 0 15 7 20 25 20 26 0 32 -9
15 -26 -12 -12 -3 -44 11 -44 24 0 45 112 24 130 -6 5 -34 8 -61 5 -41 -4 -44
-3 -19 5 52 17 70 70 23 70 -15 0 -18 -4 -14 -17z m46 -93 c0 -5 -11 -10 -25
-10 -14 0 -25 5 -25 10 0 6 11 10 25 10 14 0 25 -4 25 -10z"/>
</g>
</svg>
