<?xml version="1.0" standalone="no"?>
<!DOCTYPE svg PUBLIC "-//W3C//DTD SVG 20010904//EN"
 "http://www.w3.org/TR/2001/REC-SVG-20010904/DTD/svg10.dtd">
<svg version="1.0" xmlns="http://www.w3.org/2000/svg"
 width="50.000000pt" height="725.000000pt" viewBox="0 0 50.000000 725.000000"
 preserveAspectRatio="xMidYMid meet">
<metadata>
Created by potrace 1.16, written by Peter Selinger 2001-2019
</metadata>
<g transform="translate(0.000000,725.000000) scale(0.100000,-0.100000)"
fill="#000000" stroke="none">
<path d="M140 7144 c0 -16 23 -44 35 -44 22 0 18 28 -4 40 -22 11 -31 13 -31
4z"/>
<path d="M140 6694 c0 -3 5 -14 10 -25 9 -16 7 -19 -10 -19 -12 0 -20 -7 -20
-16 0 -12 7 -14 30 -10 17 3 44 9 60 12 34 6 41 24 10 24 -11 0 -29 9 -40 20
-19 19 -40 27 -40 14z"/>
<path d="M140 6244 c0 -3 5 -14 10 -25 9 -16 7 -19 -9 -19 -29 0 -33 -13 -16
-54 20 -47 39 -48 31 -1 -6 32 -5 35 16 35 34 0 68 11 68 21 0 5 -9 9 -20 9
-11 0 -29 9 -40 20 -19 19 -40 27 -40 14z"/>
<path d="M140 5794 c0 -3 5 -14 10 -25 9 -16 7 -19 -9 -19 -29 0 -33 -13 -16
-54 20 -47 39 -48 31 -1 -6 32 -5 35 18 35 23 0 25 -3 20 -30 -4 -17 -2 -30 3
-30 13 0 35 49 28 61 -4 5 -1 9 4 9 6 0 11 5 11 10 0 6 -9 10 -20 10 -11 0
-29 9 -40 20 -19 19 -40 27 -40 14z"/>
<path d="M140 5343 c0 -5 5 -15 10 -23 7 -11 4 -16 -13 -21 -22 -5 -23 -11
-11 -61 6 -26 4 -28 -25 -28 -17 0 -31 -4 -31 -9 0 -15 26 -20 66 -11 22 4 56
11 77 14 39 7 52 26 17 26 -18 0 -19 3 -10 20 6 11 8 25 5 30 -3 6 -1 10 4 10
6 0 11 5 11 10 0 6 -9 10 -20 10 -11 0 -29 9 -40 20 -20 20 -40 26 -40 13z
m56 -79 c-3 -9 -6 -22 -6 -30 0 -14 -30 -21 -30 -6 0 4 -3 17 -6 30 -5 19 -2
22 21 22 21 0 26 -4 21 -16z"/>
<path d="M140 4893 c0 -5 5 -15 10 -23 7 -11 4 -16 -13 -21 -22 -5 -23 -11
-11 -61 6 -26 4 -28 -25 -28 -17 0 -31 -4 -31 -9 0 -15 26 -20 66 -11 22 4 56
11 77 14 39 7 52 26 17 26 -18 0 -19 3 -10 20 6 11 8 25 5 30 -3 6 -1 10 4 10
6 0 11 5 11 10 0 6 -9 10 -20 10 -11 0 -29 9 -40 20 -20 20 -40 26 -40 13z
m56 -79 c-3 -9 -6 -22 -6 -30 0 -14 -30 -21 -30 -6 0 4 -3 17 -6 30 -5 19 -2
22 21 22 21 0 26 -4 21 -16z"/>
<path d="M118 4680 c-1 -22 -2 -47 -2 -57 -1 -9 5 -18 12 -20 9 -4 12 12 12
56 0 67 -19 85 -22 21z"/>
<path d="M140 4443 c0 -5 5 -15 10 -23 7 -11 4 -16 -13 -21 -22 -5 -23 -11
-11 -61 6 -26 4 -28 -25 -28 -17 0 -31 -4 -31 -9 0 -15 26 -20 66 -11 22 4 56
11 77 14 39 7 52 26 17 26 -18 0 -19 3 -10 20 6 11 8 25 5 30 -3 6 -1 10 4 10
6 0 11 5 11 10 0 6 -9 10 -20 10 -11 0 -29 9 -40 20 -20 20 -40 26 -40 13z
m56 -79 c-3 -9 -6 -22 -6 -30 0 -14 -30 -21 -30 -6 0 4 -3 17 -6 30 -5 19 -2
22 21 22 21 0 26 -4 21 -16z"/>
<path d="M180 4271 c0 -6 5 -11 11 -11 8 0 10 -17 7 -49 -5 -53 4 -83 21 -66
5 6 11 37 13 70 3 59 3 60 -24 63 -16 2 -28 -1 -28 -7z"/>
<path d="M118 4230 c-1 -22 -2 -47 -2 -57 -1 -9 5 -18 12 -20 8 -3 12 10 12
46 0 39 4 51 15 51 8 0 15 5 15 10 0 6 -11 10 -25 10 -22 0 -25 -4 -27 -40z"/>
<path d="M140 3993 c0 -5 5 -15 10 -23 7 -11 4 -16 -13 -21 -22 -5 -23 -11
-11 -61 6 -26 4 -28 -25 -28 -17 0 -31 -4 -31 -9 0 -15 26 -20 66 -11 22 4 56
11 77 14 39 7 52 26 17 26 -18 0 -19 3 -10 20 6 11 8 25 5 30 -3 6 -1 10 4 10
6 0 11 5 11 10 0 6 -9 10 -20 10 -11 0 -29 9 -40 20 -20 20 -40 26 -40 13z
m56 -79 c-3 -9 -6 -22 -6 -30 0 -14 -30 -21 -30 -6 0 4 -3 17 -6 30 -5 19 -2
22 21 22 21 0 26 -4 21 -16z"/>
<path d="M180 3821 c0 -6 5 -11 11 -11 8 0 10 -17 7 -49 -5 -53 4 -83 21 -66
5 6 11 37 13 70 3 59 3 60 -24 63 -16 2 -28 -1 -28 -7z"/>
<path d="M118 3780 c-1 -22 -2 -47 -2 -57 -1 -9 5 -18 12 -20 8 -3 12 6 12 26
0 26 4 31 25 31 14 0 25 5 25 10 0 6 -11 10 -25 10 -14 0 -25 5 -25 10 0 6 7
10 15 10 8 0 15 5 15 10 0 6 -11 10 -25 10 -22 0 -25 -4 -27 -40z"/>
<path d="M140 3543 c0 -5 5 -15 10 -23 7 -11 4 -16 -13 -21 -22 -5 -23 -11
-11 -61 6 -26 4 -28 -25 -28 -17 0 -31 -4 -31 -9 0 -15 26 -20 66 -11 22 4 56
11 77 14 39 7 52 26 17 26 -18 0 -19 3 -10 20 6 11 8 25 5 30 -3 6 -1 10 4 10
6 0 11 5 11 10 0 6 -9 10 -20 10 -11 0 -29 9 -40 20 -20 20 -40 26 -40 13z
m56 -79 c-3 -9 -6 -22 -6 -30 0 -14 -30 -21 -30 -6 0 4 -3 17 -6 30 -5 19 -2
22 21 22 21 0 26 -4 21 -16z"/>
<path d="M180 3371 c0 -6 5 -11 10 -11 6 0 10 -17 10 -37 0 -35 -2 -38 -30
-40 -21 -2 -30 2 -30 12 0 9 10 15 25 15 14 0 25 5 25 10 0 6 -11 10 -25 10
-14 0 -25 5 -25 10 0 6 7 10 15 10 8 0 15 5 15 10 0 6 -11 10 -24 10 -21 0
-24 -5 -29 -52 -3 -29 -2 -56 2 -60 4 -4 21 -4 39 1 26 8 34 6 41 -7 16 -28
29 -2 33 63 3 59 3 60 -24 63 -16 2 -28 -1 -28 -7z"/>
<path d="M140 3093 c0 -5 5 -15 10 -23 7 -11 4 -16 -13 -21 -22 -5 -23 -11
-11 -61 6 -26 4 -28 -25 -28 -31 0 -42 -14 -18 -23 7 -2 44 1 82 9 39 7 77 11
87 8 17 -5 41 23 72 84 14 26 15 37 5 48 -17 21 -26 17 -32 -13 -3 -16 -13
-44 -21 -64 -13 -31 -19 -36 -40 -32 -22 4 -24 8 -15 24 5 11 7 24 4 29 -3 6
-1 10 4 10 6 0 11 5 11 10 0 6 -9 10 -20 10 -11 0 -29 9 -40 20 -20 20 -40 26
-40 13z m56 -79 c-3 -9 -6 -22 -6 -30 0 -14 -30 -21 -30 -6 0 4 -3 17 -6 30
-5 19 -2 22 21 22 21 0 26 -4 21 -16z"/>
<path d="M180 2921 c0 -6 5 -11 10 -11 6 0 10 -17 10 -37 0 -35 -2 -38 -30
-40 -21 -2 -30 2 -30 12 0 9 10 15 25 15 14 0 25 5 25 10 0 6 -11 10 -25 10
-14 0 -25 5 -25 10 0 6 7 10 15 10 8 0 15 5 15 10 0 6 -11 10 -24 10 -21 0
-24 -5 -29 -52 -3 -29 -2 -56 2 -60 4 -4 21 -4 39 1 26 8 34 6 41 -7 16 -28
29 -2 33 63 3 59 3 60 -24 63 -16 2 -28 -1 -28 -7z"/>
<path d="M140 2643 c0 -5 5 -15 10 -23 7 -11 4 -16 -13 -21 -22 -5 -23 -11
-11 -61 6 -26 4 -28 -25 -28 -31 0 -42 -14 -18 -23 7 -3 46 1 86 9 40 8 77 11
83 8 5 -3 17 1 26 9 9 8 32 18 50 22 31 6 33 5 27 -14 -8 -25 -2 -26 30 -5 30
20 31 30 6 44 -14 7 -28 7 -47 0 -35 -14 -39 -8 -19 30 13 25 14 35 4 46 -17
21 -26 17 -32 -13 -3 -16 -13 -44 -21 -64 -13 -31 -19 -36 -40 -32 -22 4 -24
8 -15 24 5 11 7 24 4 29 -3 6 -1 10 4 10 6 0 11 5 11 10 0 6 -9 10 -20 10 -11
0 -29 9 -40 20 -20 20 -40 26 -40 13z m56 -79 c-3 -9 -6 -22 -6 -30 0 -14 -30
-21 -30 -6 0 4 -3 17 -6 30 -5 19 -2 22 21 22 21 0 26 -4 21 -16z"/>
<path d="M180 2471 c0 -6 5 -11 10 -11 6 0 10 -17 10 -37 0 -35 -2 -38 -30
-40 -21 -2 -30 2 -30 12 0 9 10 15 25 15 14 0 25 5 25 10 0 6 -11 10 -25 10
-14 0 -25 5 -25 10 0 6 7 10 15 10 8 0 15 5 15 10 0 6 -11 10 -24 10 -21 0
-24 -5 -29 -52 -3 -29 -2 -56 2 -60 4 -4 21 -4 39 1 26 8 34 6 41 -7 16 -28
29 -2 33 63 3 59 3 60 -24 63 -16 2 -28 -1 -28 -7z"/>
<path d="M140 2193 c0 -5 5 -15 10 -23 7 -11 4 -16 -13 -21 -22 -5 -23 -11
-11 -61 6 -26 4 -28 -25 -28 -31 0 -42 -14 -18 -23 7 -3 46 1 86 9 40 8 77 11
83 8 5 -3 17 1 26 9 9 8 32 18 50 22 31 6 33 5 27 -14 -8 -25 -2 -26 30 -5 30
20 31 30 6 44 -14 7 -28 7 -47 0 -35 -14 -39 -8 -19 30 13 25 14 35 4 46 -17
21 -26 17 -32 -13 -3 -16 -13 -44 -21 -64 -13 -31 -19 -36 -40 -32 -22 4 -24
8 -15 24 5 11 7 24 4 29 -3 6 -1 10 4 10 6 0 11 5 11 10 0 6 -9 10 -20 10 -11
0 -29 9 -40 20 -20 20 -40 26 -40 13z m56 -79 c-3 -9 -6 -22 -6 -30 0 -14 -30
-21 -30 -6 0 4 -3 17 -6 30 -5 19 -2 22 21 22 21 0 26 -4 21 -16z"/>
<path d="M300 2029 c0 -36 -27 -99 -47 -106 -17 -7 -17 -23 0 -23 22 0 46 33
68 90 16 43 18 55 7 61 -22 15 -28 10 -28 -22z"/>
<path d="M180 2021 c0 -6 5 -11 10 -11 6 0 10 -17 10 -37 0 -35 -2 -38 -30
-40 -21 -2 -30 2 -30 12 0 9 10 15 25 15 14 0 25 5 25 10 0 6 -11 10 -25 10
-14 0 -25 5 -25 10 0 6 7 10 15 10 8 0 15 5 15 10 0 6 -11 10 -24 10 -21 0
-24 -5 -29 -52 -3 -29 -2 -56 2 -60 4 -4 21 -4 39 1 26 8 34 6 41 -7 16 -28
29 -2 33 63 3 59 3 60 -24 63 -16 2 -28 -1 -28 -7z"/>
<path d="M140 1743 c0 -5 5 -15 10 -23 7 -11 4 -16 -13 -21 -22 -5 -23 -11
-11 -61 6 -26 4 -28 -25 -28 -31 0 -42 -14 -18 -23 7 -3 46 1 86 9 40 8 77 11
83 8 5 -3 17 1 26 9 9 8 32 18 50 22 31 6 33 5 27 -14 -8 -25 -2 -26 30 -5 30
20 31 30 6 44 -14 7 -28 7 -47 0 -35 -14 -39 -8 -19 30 13 25 14 35 4 46 -17
21 -26 17 -32 -13 -3 -16 -13 -44 -21 -64 -13 -31 -19 -36 -40 -32 -22 4 -24
8 -15 24 5 11 7 24 4 29 -3 6 -1 10 4 10 6 0 11 5 11 10 0 6 -9 10 -20 10 -11
0 -29 9 -40 20 -20 20 -40 26 -40 13z m56 -79 c-3 -9 -6 -22 -6 -30 0 -14 -30
-21 -30 -6 0 4 -3 17 -6 30 -5 19 -2 22 21 22 21 0 26 -4 21 -16z"/>
<path d="M300 1581 c0 -39 -14 -75 -40 -101 -12 -12 -19 -24 -16 -27 10 -11
37 7 54 37 9 16 20 30 23 30 3 0 15 -18 28 -40 18 -32 28 -40 52 -40 36 0 39
22 5 38 -34 15 -80 78 -72 99 6 15 -8 32 -26 33 -5 0 -8 -13 -8 -29z"/>
<path d="M180 1571 c0 -6 5 -11 10 -11 6 0 10 -17 10 -37 0 -35 -2 -38 -30
-40 -21 -2 -30 2 -30 12 0 9 10 15 25 15 14 0 25 5 25 10 0 6 -11 10 -25 10
-14 0 -25 5 -25 10 0 6 7 10 15 10 8 0 15 5 15 10 0 6 -11 10 -24 10 -21 0
-24 -5 -29 -52 -3 -29 -2 -56 2 -60 4 -4 21 -4 39 1 26 8 34 6 41 -7 16 -28
29 -2 33 63 3 59 3 60 -24 63 -16 2 -28 -1 -28 -7z"/>
</g>
</svg>
