<?xml version="1.0" standalone="no"?>
<!DOCTYPE svg PUBLIC "-//W3C//DTD SVG 20010904//EN"
 "http://www.w3.org/TR/2001/REC-SVG-20010904/DTD/svg10.dtd">
<svg version="1.0" xmlns="http://www.w3.org/2000/svg"
 width="95.000000pt" height="725.000000pt" viewBox="0 0 95.000000 725.000000"
 preserveAspectRatio="xMidYMid meet">
<metadata>
Created by potrace 1.16, written by Peter Selinger 2001-2019
</metadata>
<g transform="translate(0.000000,725.000000) scale(0.100000,-0.100000)"
fill="#000000" stroke="none">
<path d="M215 7124 c-7 -41 1 -58 16 -31 6 9 19 17 29 17 11 0 20 5 20 10 0 6
-7 10 -15 10 -8 0 -15 7 -15 15 0 31 -28 14 -35 -21z"/>
<path d="M143 7130 c4 -15 0 -20 -14 -20 -10 0 -19 -4 -19 -10 0 -5 12 -10 26
-10 31 0 28 -24 -5 -28 -17 -3 -21 -8 -15 -25 4 -12 11 -23 15 -25 15 -6 10
-19 -17 -52 -28 -32 -26 -53 2 -29 15 12 16 8 14 -36 -3 -65 -2 -75 10 -75 6
0 10 16 10 35 0 28 4 35 19 35 11 0 22 -6 25 -12 3 -9 8 -8 16 5 6 9 18 17 25
17 8 0 15 5 15 10 0 6 -8 10 -17 10 -16 0 -16 2 -3 11 11 8 12 12 3 16 -20 8
-15 23 7 23 11 0 20 5 20 10 0 6 -9 10 -20 10 -26 0 -26 20 0 27 21 6 35 36
25 53 -4 6 -23 7 -45 4 -37 -6 -39 -5 -45 22 -11 47 -14 54 -26 54 -6 0 -9 -9
-6 -20z m89 -92 c-7 -7 -12 -8 -12 -2 0 14 12 26 19 19 2 -3 -1 -11 -7 -17z
m-72 2 c0 -5 -5 -10 -11 -10 -5 0 -7 5 -4 10 3 6 8 10 11 10 2 0 4 -4 4 -10z
m39 -28 c-5 -2 -9 -10 -9 -18 0 -8 -4 -14 -10 -14 -13 0 -13 13 2 45 11 24 13
25 19 8 3 -10 2 -19 -2 -21z m-13 -77 c2 -19 -3 -25 -20 -25 -16 0 -18 2 -7 9
12 8 12 12 2 25 -11 14 -11 16 5 16 13 0 19 -8 20 -25z"/>
<path d="M590 7141 c0 -19 23 -71 31 -71 8 0 5 29 -7 68 -4 13 -24 17 -24 3z"/>
<path d="M215 6674 c-7 -41 1 -58 16 -31 6 9 19 17 29 17 11 0 20 5 20 10 0 6
-7 10 -15 10 -8 0 -15 7 -15 15 0 31 -28 14 -35 -21z"/>
<path d="M143 6680 c4 -15 0 -20 -14 -20 -10 0 -19 -4 -19 -10 0 -5 12 -10 26
-10 31 0 28 -24 -5 -28 -17 -3 -21 -8 -15 -25 4 -12 11 -23 15 -25 15 -6 10
-19 -17 -52 -28 -33 -26 -53 2 -29 16 13 17 10 12 -38 -5 -50 4 -85 18 -70 4
3 7 20 8 37 1 23 5 30 21 29 11 0 14 -3 8 -6 -28 -11 -11 -23 32 -23 49 0 62
16 18 23 -27 4 -27 4 -5 12 26 9 29 25 5 25 -16 0 -16 2 -3 11 11 8 12 12 3
16 -20 8 -15 23 7 23 11 0 20 5 20 10 0 6 -9 10 -20 10 -26 0 -26 20 0 27 21
6 35 36 25 53 -4 6 -23 7 -45 4 -37 -6 -39 -5 -45 22 -11 47 -14 54 -26 54 -6
0 -9 -9 -6 -20z m89 -92 c-7 -7 -12 -8 -12 -2 0 14 12 26 19 19 2 -3 -1 -11
-7 -17z m-72 2 c0 -5 -5 -10 -11 -10 -5 0 -7 5 -4 10 3 6 8 10 11 10 2 0 4 -4
4 -10z m39 -28 c-5 -2 -9 -10 -9 -18 0 -8 -4 -14 -10 -14 -13 0 -13 13 2 45
11 24 13 25 19 8 3 -10 2 -19 -2 -21z m-13 -77 c2 -19 -3 -25 -20 -25 -16 0
-18 2 -7 9 12 8 12 12 2 25 -11 14 -11 16 5 16 13 0 19 -8 20 -25z"/>
<path d="M593 6681 c4 -16 1 -21 -14 -21 -10 0 -19 -4 -19 -10 0 -5 11 -10 24
-10 13 0 26 -6 29 -12 2 -7 7 -11 10 -8 10 9 -8 73 -22 78 -10 3 -12 -1 -8
-17z"/>
<path d="M215 6224 c-7 -41 1 -58 16 -31 6 9 19 17 29 17 11 0 20 5 20 10 0 6
-7 10 -15 10 -8 0 -15 7 -15 15 0 31 -28 14 -35 -21z"/>
<path d="M294 6197 c-11 -34 -24 -70 -29 -81 -6 -14 -5 -18 6 -14 8 2 29 35
48 72 27 55 31 70 20 77 -22 14 -23 12 -45 -54z"/>
<path d="M143 6230 c4 -15 0 -20 -14 -20 -10 0 -19 -4 -19 -10 0 -5 12 -10 26
-10 31 0 28 -24 -5 -28 -17 -3 -21 -8 -15 -25 4 -12 11 -23 15 -25 15 -6 10
-19 -17 -52 -28 -33 -26 -53 2 -29 16 13 17 10 12 -38 -5 -50 4 -85 18 -70 4
3 7 20 8 37 1 23 5 30 21 29 11 0 14 -3 8 -6 -28 -11 -11 -23 32 -23 49 0 62
16 18 23 -27 4 -27 4 -5 12 26 9 29 25 5 25 -16 0 -16 2 -3 11 11 8 12 12 3
16 -20 8 -15 23 7 23 11 0 20 5 20 10 0 6 -9 10 -20 10 -26 0 -26 20 0 27 21
6 35 36 25 53 -4 6 -23 7 -45 4 -37 -6 -39 -5 -45 22 -11 47 -14 54 -26 54 -6
0 -9 -9 -6 -20z m89 -92 c-7 -7 -12 -8 -12 -2 0 14 12 26 19 19 2 -3 -1 -11
-7 -17z m-72 2 c0 -5 -5 -10 -11 -10 -5 0 -7 5 -4 10 3 6 8 10 11 10 2 0 4 -4
4 -10z m39 -28 c-5 -2 -9 -10 -9 -18 0 -8 -4 -14 -10 -14 -13 0 -13 13 2 45
11 24 13 25 19 8 3 -10 2 -19 -2 -21z m-13 -77 c2 -19 -3 -25 -20 -25 -16 0
-18 2 -7 9 12 8 12 12 2 25 -11 14 -11 16 5 16 13 0 19 -8 20 -25z"/>
<path d="M593 6231 c4 -16 1 -21 -14 -21 -10 0 -19 -4 -19 -10 0 -5 11 -10 24
-10 13 0 26 -6 29 -12 2 -7 7 -11 10 -8 10 9 -8 73 -22 78 -10 3 -12 -1 -8
-17z"/>
<path d="M690 6220 c0 -5 9 -10 20 -10 11 0 20 5 20 10 0 6 -9 10 -20 10 -11
0 -20 -4 -20 -10z"/>
<path d="M215 5774 c-7 -41 1 -58 16 -31 6 9 19 17 29 17 11 0 20 5 20 10 0 6
-7 10 -15 10 -8 0 -15 7 -15 15 0 31 -28 14 -35 -21z"/>
<path d="M310 5793 c0 -10 -11 -45 -25 -77 -27 -67 -25 -83 8 -44 29 34 67 44
67 17 0 -22 8 -23 33 -5 36 27 5 53 -48 40 l-26 -6 16 38 c12 30 13 39 3 46
-20 12 -28 10 -28 -9z"/>
<path d="M665 5774 c-7 -41 1 -58 16 -31 6 9 19 17 29 17 11 0 20 5 20 10 0 6
-7 10 -15 10 -8 0 -15 7 -15 15 0 31 -28 14 -35 -21z"/>
<path d="M143 5780 c4 -15 0 -20 -14 -20 -10 0 -19 -4 -19 -10 0 -5 12 -10 26
-10 31 0 28 -24 -5 -28 -17 -3 -21 -8 -15 -25 4 -12 11 -23 15 -25 15 -6 10
-19 -17 -52 -28 -33 -26 -53 2 -29 16 13 17 10 12 -38 -5 -50 4 -85 18 -70 4
3 7 20 8 37 1 23 5 30 21 29 11 0 14 -3 8 -6 -28 -11 -11 -23 32 -23 49 0 62
16 18 23 -27 4 -27 4 -5 12 26 9 29 25 5 25 -16 0 -16 2 -3 11 11 8 12 12 3
16 -20 8 -15 23 7 23 11 0 20 5 20 10 0 6 -9 10 -20 10 -26 0 -26 20 0 27 21
6 35 36 25 53 -4 6 -23 7 -45 4 -37 -6 -39 -5 -45 22 -11 47 -14 54 -26 54 -6
0 -9 -9 -6 -20z m89 -92 c-7 -7 -12 -8 -12 -2 0 14 12 26 19 19 2 -3 -1 -11
-7 -17z m-72 2 c0 -5 -5 -10 -11 -10 -5 0 -7 5 -4 10 3 6 8 10 11 10 2 0 4 -4
4 -10z m39 -28 c-5 -2 -9 -10 -9 -18 0 -8 -4 -14 -10 -14 -13 0 -13 13 2 45
11 24 13 25 19 8 3 -10 2 -19 -2 -21z m-13 -77 c2 -19 -3 -25 -20 -25 -16 0
-18 2 -7 9 12 8 12 12 2 25 -11 14 -11 16 5 16 13 0 19 -8 20 -25z"/>
<path d="M593 5781 c4 -16 1 -21 -14 -21 -10 0 -19 -4 -19 -10 0 -5 11 -10 24
-10 13 0 26 -6 29 -12 2 -7 7 -11 10 -8 10 9 -8 73 -22 78 -10 3 -12 -1 -8
-17z"/>
<path d="M215 5324 c-7 -41 1 -58 16 -31 6 9 19 17 29 17 11 0 20 5 20 10 0 6
-7 10 -15 10 -8 0 -15 7 -15 15 0 31 -28 14 -35 -21z"/>
<path d="M310 5343 c0 -10 -11 -45 -25 -77 -27 -67 -25 -83 8 -44 29 34 67 44
67 17 0 -22 8 -23 33 -5 36 27 5 53 -48 40 l-26 -6 16 38 c12 30 13 39 3 46
-20 12 -28 10 -28 -9z"/>
<path d="M665 5324 c-7 -41 1 -58 16 -31 6 9 19 17 29 17 11 0 20 5 20 10 0 6
-7 10 -15 10 -8 0 -15 7 -15 15 0 31 -28 14 -35 -21z"/>
<path d="M143 5330 c4 -15 0 -20 -14 -20 -10 0 -19 -4 -19 -10 0 -5 12 -10 26
-10 31 0 28 -24 -5 -28 -17 -3 -21 -8 -15 -25 4 -12 11 -23 15 -25 15 -6 10
-19 -17 -52 -28 -33 -26 -53 2 -29 16 13 17 10 12 -38 -5 -50 4 -85 18 -70 4
3 7 20 8 37 1 23 6 30 21 30 16 0 17 -2 5 -10 -20 -13 -13 -16 46 -23 62 -7
78 6 100 79 18 60 18 84 -1 84 -9 0 -15 -9 -15 -24 0 -30 -19 -87 -35 -104 -7
-8 -25 -12 -41 -9 -28 4 -28 5 -6 12 26 9 29 25 5 25 -16 0 -16 2 -3 11 11 8
12 12 3 16 -20 8 -15 23 7 23 11 0 20 5 20 10 0 6 -9 10 -20 10 -26 0 -26 20
0 27 21 6 35 36 25 53 -4 6 -23 7 -45 4 -37 -6 -39 -5 -45 22 -11 47 -14 54
-26 54 -6 0 -9 -9 -6 -20z m89 -92 c-7 -7 -12 -8 -12 -2 0 14 12 26 19 19 2
-3 -1 -11 -7 -17z m-72 2 c0 -5 -5 -10 -11 -10 -5 0 -7 5 -4 10 3 6 8 10 11
10 2 0 4 -4 4 -10z m39 -28 c-5 -2 -9 -10 -9 -18 0 -8 -4 -14 -10 -14 -13 0
-13 13 2 45 11 24 13 25 19 8 3 -10 2 -19 -2 -21z m-13 -77 c2 -19 -3 -25 -20
-25 -16 0 -18 2 -7 9 12 8 12 12 2 25 -11 14 -11 16 5 16 13 0 19 -8 20 -25z"/>
<path d="M593 5331 c4 -16 1 -21 -14 -21 -10 0 -19 -4 -19 -10 0 -5 11 -10 24
-10 13 0 26 -6 29 -12 2 -7 7 -11 10 -8 10 9 -8 73 -22 78 -10 3 -12 -1 -8
-17z"/>
<path d="M564 5244 c3 -9 6 -20 6 -25 0 -5 5 -9 10 -9 6 0 10 11 10 25 0 16
-6 25 -16 25 -11 0 -14 -5 -10 -16z"/>
<path d="M215 4874 c-7 -41 1 -58 16 -31 6 9 19 17 29 17 11 0 20 5 20 10 0 6
-7 10 -15 10 -8 0 -15 7 -15 15 0 31 -28 14 -35 -21z"/>
<path d="M310 4893 c0 -10 -11 -45 -25 -77 -27 -67 -25 -83 8 -44 29 34 67 44
67 17 0 -22 8 -23 33 -5 36 27 5 53 -48 40 l-26 -6 16 38 c12 30 13 39 3 46
-20 12 -28 10 -28 -9z"/>
<path d="M665 4874 c-7 -41 1 -58 16 -31 6 9 19 17 29 17 11 0 20 5 20 10 0 6
-7 10 -15 10 -8 0 -15 7 -15 15 0 31 -28 14 -35 -21z"/>
<path d="M143 4880 c4 -15 0 -20 -14 -20 -10 0 -19 -4 -19 -10 0 -5 12 -10 26
-10 31 0 28 -24 -5 -28 -17 -3 -21 -8 -15 -25 4 -12 11 -23 15 -25 15 -6 10
-19 -17 -52 -28 -33 -26 -53 2 -29 16 13 17 10 12 -38 -5 -50 4 -85 18 -70 4
3 7 20 8 37 1 23 6 30 21 30 16 0 17 -2 5 -10 -20 -13 -13 -16 46 -23 56 -6
74 4 92 52 9 24 9 24 32 -17 20 -36 28 -42 57 -42 36 0 44 15 14 25 -36 11
-81 73 -81 110 0 24 -5 35 -15 35 -9 0 -15 -9 -15 -24 0 -30 -19 -87 -35 -104
-7 -8 -25 -12 -41 -9 -28 4 -28 5 -6 12 26 9 29 25 5 25 -16 0 -16 2 -3 11 11
8 12 12 3 16 -20 8 -15 23 7 23 11 0 20 5 20 10 0 6 -9 10 -20 10 -26 0 -26
20 0 27 21 6 35 36 25 53 -4 6 -23 7 -45 4 -37 -6 -39 -5 -45 22 -11 47 -14
54 -26 54 -6 0 -9 -9 -6 -20z m89 -92 c-7 -7 -12 -8 -12 -2 0 14 12 26 19 19
2 -3 -1 -11 -7 -17z m-72 2 c0 -5 -5 -10 -11 -10 -5 0 -7 5 -4 10 3 6 8 10 11
10 2 0 4 -4 4 -10z m39 -28 c-5 -2 -9 -10 -9 -18 0 -8 -4 -14 -10 -14 -13 0
-13 13 2 45 11 24 13 25 19 8 3 -10 2 -19 -2 -21z m-13 -77 c2 -19 -3 -25 -20
-25 -16 0 -18 2 -7 9 12 8 12 12 2 25 -11 14 -11 16 5 16 13 0 19 -8 20 -25z"/>
<path d="M593 4881 c4 -16 1 -21 -14 -21 -10 0 -19 -4 -19 -10 0 -5 12 -10 26
-10 32 0 28 -24 -5 -28 -15 -3 -21 -8 -17 -19 3 -8 6 -19 6 -24 0 -18 18 -8
25 14 6 19 8 20 12 4 7 -26 28 -15 26 14 -3 46 -19 93 -32 97 -10 3 -12 -1 -8
-17z"/>
<path d="M665 4424 c-7 -41 1 -58 16 -31 6 9 19 17 29 17 11 0 20 5 20 10 0 6
-7 10 -15 10 -8 0 -15 7 -15 15 0 31 -28 14 -35 -21z"/>
<path d="M593 4430 c4 -15 0 -20 -14 -20 -10 0 -19 -4 -19 -10 0 -5 12 -10 26
-10 32 0 28 -24 -5 -28 -15 -3 -21 -8 -17 -19 3 -8 6 -19 6 -24 0 -5 13 -9 29
-9 37 0 47 26 30 77 -6 21 -13 44 -15 51 -2 6 -9 12 -15 12 -6 0 -9 -9 -6 -20z
m17 -90 c0 -5 -5 -10 -11 -10 -5 0 -7 5 -4 10 3 6 8 10 11 10 2 0 4 -4 4 -10z"/>
<path d="M665 3974 c-7 -41 1 -58 16 -31 6 9 19 17 29 17 11 0 20 5 20 10 0 6
-7 10 -15 10 -8 0 -15 7 -15 15 0 31 -28 14 -35 -21z"/>
<path d="M593 3980 c4 -15 0 -20 -14 -20 -10 0 -19 -4 -19 -10 0 -5 12 -10 26
-10 32 0 28 -24 -5 -28 -15 -3 -21 -8 -17 -19 3 -8 6 -19 6 -24 0 -5 13 -9 28
-9 20 0 32 7 40 23 8 17 11 18 11 5 1 -28 21 -21 21 7 0 18 -5 25 -20 25 -13
0 -22 9 -26 28 -10 45 -13 52 -25 52 -6 0 -9 -9 -6 -20z m17 -90 c0 -5 -5 -10
-11 -10 -5 0 -7 5 -4 10 3 6 8 10 11 10 2 0 4 -4 4 -10z"/>
<path d="M665 3524 c-7 -41 1 -58 16 -31 6 9 19 17 29 17 11 0 20 5 20 10 0 6
-7 10 -15 10 -8 0 -15 7 -15 15 0 31 -28 14 -35 -21z"/>
<path d="M593 3530 c4 -15 0 -20 -14 -20 -10 0 -19 -4 -19 -10 0 -5 12 -10 26
-10 32 0 28 -24 -5 -28 -15 -3 -21 -8 -17 -19 3 -8 6 -19 6 -24 0 -5 13 -9 28
-9 20 0 32 7 40 23 8 17 11 18 11 5 1 -25 17 -22 26 5 6 19 8 20 12 4 6 -23
28 -16 28 9 0 16 -6 19 -42 16 -39 -3 -43 -1 -48 25 -11 46 -14 53 -26 53 -6
0 -9 -9 -6 -20z m17 -90 c0 -5 -5 -10 -11 -10 -5 0 -7 5 -4 10 3 6 8 10 11 10
2 0 4 -4 4 -10z"/>
<path d="M665 3074 c-7 -41 1 -58 16 -31 6 9 19 17 29 17 11 0 20 5 20 10 0 6
-7 10 -15 10 -8 0 -15 7 -15 15 0 31 -28 14 -35 -21z"/>
<path d="M593 3080 c4 -15 0 -20 -14 -20 -10 0 -19 -4 -19 -10 0 -5 12 -10 26
-10 32 0 28 -24 -5 -28 -15 -3 -21 -8 -17 -19 3 -8 6 -19 6 -24 0 -5 13 -9 29
-9 22 0 32 6 37 22 l7 23 8 -23 c7 -19 14 -22 31 -16 27 8 39 23 35 44 -2 11
-13 14 -44 12 -39 -3 -43 -1 -48 25 -11 46 -14 53 -26 53 -6 0 -9 -9 -6 -20z
m89 -92 c-7 -7 -12 -8 -12 -2 0 14 12 26 19 19 2 -3 -1 -11 -7 -17z m-72 2 c0
-5 -5 -10 -11 -10 -5 0 -7 5 -4 10 3 6 8 10 11 10 2 0 4 -4 4 -10z"/>
<path d="M665 2624 c-7 -41 1 -58 16 -31 6 9 19 17 29 17 11 0 20 5 20 10 0 6
-7 10 -15 10 -8 0 -15 7 -15 15 0 31 -28 14 -35 -21z"/>
<path d="M593 2630 c4 -15 0 -20 -14 -20 -10 0 -19 -4 -19 -10 0 -5 12 -10 26
-10 31 0 28 -24 -5 -28 -17 -3 -21 -8 -15 -25 4 -12 11 -23 15 -25 15 -6 10
-19 -17 -52 -15 -17 -24 -33 -21 -36 13 -13 58 32 79 77 19 44 23 48 30 29 13
-35 72 -8 65 30 -2 11 -13 14 -44 12 -39 -3 -43 -1 -48 25 -11 46 -14 53 -26
53 -6 0 -9 -9 -6 -20z m89 -92 c-7 -7 -12 -8 -12 -2 0 14 12 26 19 19 2 -3 -1
-11 -7 -17z m-72 2 c0 -5 -5 -10 -11 -10 -5 0 -7 5 -4 10 3 6 8 10 11 10 2 0
4 -4 4 -10z"/>
<path d="M665 2174 c-7 -41 1 -58 16 -31 6 9 19 17 29 17 11 0 20 5 20 10 0 6
-7 10 -15 10 -8 0 -15 7 -15 15 0 31 -28 14 -35 -21z"/>
<path d="M593 2180 c4 -15 0 -20 -14 -20 -10 0 -19 -4 -19 -10 0 -5 12 -10 26
-10 31 0 28 -24 -5 -28 -17 -3 -21 -8 -15 -25 4 -12 11 -23 15 -25 15 -6 10
-19 -17 -52 -28 -32 -26 -53 2 -29 15 12 16 8 14 -36 -3 -65 -2 -75 10 -75 6
0 10 29 10 68 0 51 6 80 23 117 21 42 25 46 30 26 4 -19 10 -21 29 -16 27 9
39 24 35 45 -2 11 -13 14 -44 12 -39 -3 -43 -1 -48 25 -11 46 -14 53 -26 53
-6 0 -9 -9 -6 -20z m89 -92 c-7 -7 -12 -8 -12 -2 0 14 12 26 19 19 2 -3 -1
-11 -7 -17z m-72 2 c0 -5 -5 -10 -11 -10 -5 0 -7 5 -4 10 3 6 8 10 11 10 2 0
4 -4 4 -10z"/>
<path d="M665 1724 c-7 -41 1 -58 16 -31 6 9 19 17 29 17 11 0 20 5 20 10 0 6
-7 10 -15 10 -8 0 -15 7 -15 15 0 31 -28 14 -35 -21z"/>
<path d="M593 1730 c4 -15 0 -20 -14 -20 -10 0 -19 -4 -19 -10 0 -5 12 -10 26
-10 31 0 28 -24 -5 -28 -17 -3 -21 -8 -15 -25 4 -12 11 -23 15 -25 15 -6 10
-19 -17 -52 -28 -32 -26 -53 2 -29 15 12 16 8 14 -36 -3 -65 -2 -75 10 -75 6
0 10 29 10 68 0 51 6 80 23 117 20 41 25 45 29 27 4 -12 2 -22 -3 -22 -5 0 -9
-7 -9 -15 0 -22 27 -18 33 5 3 11 12 20 20 20 17 0 32 34 22 50 -4 6 -23 7
-45 4 -37 -6 -39 -5 -45 22 -11 47 -14 54 -26 54 -6 0 -9 -9 -6 -20z m89 -92
c-7 -7 -12 -8 -12 -2 0 14 12 26 19 19 2 -3 -1 -11 -7 -17z m-72 2 c0 -5 -5
-10 -11 -10 -5 0 -7 5 -4 10 3 6 8 10 11 10 2 0 4 -4 4 -10z"/>
<path d="M665 1274 c-7 -41 1 -58 16 -31 6 9 19 17 29 17 11 0 20 5 20 10 0 6
-7 10 -15 10 -8 0 -15 7 -15 15 0 31 -28 14 -35 -21z"/>
<path d="M593 1280 c4 -15 0 -20 -14 -20 -10 0 -19 -4 -19 -10 0 -5 12 -10 26
-10 31 0 28 -24 -5 -28 -17 -3 -21 -8 -15 -25 4 -12 11 -23 15 -25 15 -6 10
-19 -17 -52 -28 -32 -26 -53 2 -29 15 12 16 8 14 -36 -3 -65 -2 -75 10 -75 6
0 10 30 10 70 0 67 1 70 24 70 38 0 86 12 86 21 0 5 -9 9 -20 9 -26 0 -26 20
0 27 21 6 35 36 25 53 -4 6 -23 7 -45 4 -37 -6 -39 -5 -45 22 -11 47 -14 54
-26 54 -6 0 -9 -9 -6 -20z m89 -92 c-7 -7 -12 -8 -12 -2 0 14 12 26 19 19 2
-3 -1 -11 -7 -17z m-72 2 c0 -5 -5 -10 -11 -10 -5 0 -7 5 -4 10 3 6 8 10 11
10 2 0 4 -4 4 -10z m39 -28 c-5 -2 -9 -10 -9 -18 0 -8 -4 -14 -10 -14 -13 0
-13 13 2 45 11 24 13 25 19 8 3 -10 2 -19 -2 -21z"/>
<path d="M665 824 c-7 -41 1 -58 16 -31 6 9 19 17 29 17 11 0 20 5 20 10 0 6
-7 10 -15 10 -8 0 -15 7 -15 15 0 31 -28 14 -35 -21z"/>
<path d="M593 830 c4 -15 0 -20 -14 -20 -10 0 -19 -4 -19 -10 0 -5 12 -10 26
-10 31 0 28 -24 -5 -28 -17 -3 -21 -8 -15 -25 4 -12 11 -23 15 -25 15 -6 10
-19 -17 -52 -28 -32 -26 -53 2 -29 15 12 16 8 14 -36 -3 -65 -2 -75 10 -75 6
0 10 22 10 49 0 31 5 51 13 54 9 3 9 7 -2 20 -12 15 -11 17 12 17 39 0 87 12
87 21 0 5 -9 9 -20 9 -26 0 -26 20 0 27 21 6 35 36 25 53 -4 6 -23 7 -45 4
-37 -6 -39 -5 -45 22 -11 47 -14 54 -26 54 -6 0 -9 -9 -6 -20z m89 -92 c-7 -7
-12 -8 -12 -2 0 14 12 26 19 19 2 -3 -1 -11 -7 -17z m-72 2 c0 -5 -5 -10 -11
-10 -5 0 -7 5 -4 10 3 6 8 10 11 10 2 0 4 -4 4 -10z m39 -28 c-5 -2 -9 -10 -9
-18 0 -8 -4 -14 -10 -14 -13 0 -13 13 2 45 11 24 13 25 19 8 3 -10 2 -19 -2
-21z"/>
<path d="M630 640 c0 -5 14 -10 30 -10 17 0 30 5 30 10 0 6 -13 10 -30 10 -16
0 -30 -4 -30 -10z"/>
<path d="M665 374 c-7 -41 1 -58 16 -31 6 9 19 17 29 17 11 0 20 5 20 10 0 6
-7 10 -15 10 -8 0 -15 7 -15 15 0 31 -28 14 -35 -21z"/>
<path d="M593 380 c4 -15 0 -20 -14 -20 -10 0 -19 -4 -19 -10 0 -5 12 -10 26
-10 31 0 28 -24 -5 -28 -17 -3 -21 -8 -15 -25 4 -12 11 -23 15 -25 15 -6 10
-19 -17 -52 -28 -32 -26 -53 2 -29 15 12 16 8 14 -36 -3 -65 -2 -75 10 -75 6
0 10 16 10 35 0 34 1 34 50 41 28 4 50 11 50 17 0 6 -20 7 -52 3 -35 -4 -48
-3 -39 3 12 8 12 12 2 25 -12 14 -10 16 12 16 39 0 87 12 87 21 0 5 -9 9 -20
9 -26 0 -26 20 0 27 21 6 35 36 25 53 -4 6 -23 7 -45 4 -37 -6 -39 -5 -45 22
-11 47 -14 54 -26 54 -6 0 -9 -9 -6 -20z m89 -92 c-7 -7 -12 -8 -12 -2 0 14
12 26 19 19 2 -3 -1 -11 -7 -17z m-72 2 c0 -5 -5 -10 -11 -10 -5 0 -7 5 -4 10
3 6 8 10 11 10 2 0 4 -4 4 -10z m39 -28 c-5 -2 -9 -10 -9 -18 0 -8 -4 -14 -10
-14 -13 0 -13 13 2 45 11 24 13 25 19 8 3 -10 2 -19 -2 -21z"/>
<path d="M630 190 c0 -5 14 -10 30 -10 17 0 30 5 30 10 0 6 -13 10 -30 10 -16
0 -30 -4 -30 -10z"/>
</g>
</svg>
