<?xml version="1.0" standalone="no"?>
<!DOCTYPE svg PUBLIC "-//W3C//DTD SVG 20010904//EN"
 "http://www.w3.org/TR/2001/REC-SVG-20010904/DTD/svg10.dtd">
<svg version="1.0" xmlns="http://www.w3.org/2000/svg"
 width="50.000000pt" height="725.000000pt" viewBox="0 0 50.000000 725.000000"
 preserveAspectRatio="xMidYMid meet">
<metadata>
Created by potrace 1.16, written by Peter Selinger 2001-2019
</metadata>
<g transform="translate(0.000000,725.000000) scale(0.100000,-0.100000)"
fill="#000000" stroke="none">
<path d="M143 7107 c-75 -19 -43 -36 36 -21 18 4 30 11 28 17 -5 15 -16 15
-64 4z"/>
<path d="M143 6657 c-45 -11 -58 -27 -23 -27 20 0 19 -2 -6 -51 -14 -28 -22
-54 -19 -57 8 -8 38 31 62 80 11 23 25 38 36 38 10 0 17 5 15 12 -6 16 -16 17
-65 5z"/>
<path d="M143 6207 c-45 -11 -58 -27 -23 -27 20 0 19 -2 -6 -51 -28 -56 -24
-79 8 -36 20 28 48 36 48 15 0 -18 -37 -78 -68 -110 -14 -15 -22 -31 -19 -35
14 -13 62 34 95 95 38 69 37 96 -2 86 -24 -6 -24 -5 -13 20 7 14 20 26 30 26
10 0 17 5 15 12 -6 16 -16 17 -65 5z"/>
<path d="M143 5757 c-45 -11 -58 -27 -23 -27 20 0 20 -2 -5 -50 -29 -56 -30
-64 -12 -57 7 3 19 -3 25 -14 10 -16 7 -24 -19 -54 -18 -20 -29 -39 -25 -42
13 -13 61 35 94 95 38 69 37 96 -2 86 -24 -6 -24 -5 -13 20 7 14 20 26 30 26
10 0 17 5 15 12 -6 16 -16 17 -65 5z m27 -99 c0 -7 -4 -19 -9 -26 -6 -10 -10
-10 -20 2 -7 8 -10 20 -6 26 9 14 35 13 35 -2z"/>
<path d="M143 5307 c-45 -11 -58 -27 -23 -27 20 0 20 -2 -5 -50 -29 -56 -30
-64 -12 -57 7 3 19 -3 25 -14 10 -16 7 -24 -19 -54 -18 -20 -29 -39 -25 -42
13 -13 61 35 94 95 38 69 37 96 -2 86 -24 -6 -24 -5 -13 20 7 14 20 26 30 26
10 0 17 5 15 12 -6 16 -16 17 -65 5z m27 -99 c0 -7 -4 -19 -9 -26 -6 -10 -10
-10 -20 2 -7 8 -10 20 -6 26 9 14 35 13 35 -2z"/>
<path d="M227 5273 c-4 -20 -4 -39 -1 -42 9 -10 34 31 34 56 0 38 -27 27 -33
-14z"/>
<path d="M143 4857 c-45 -11 -58 -27 -23 -27 20 0 20 -2 -5 -50 -29 -56 -30
-64 -12 -57 7 3 19 -3 25 -14 10 -16 7 -24 -19 -54 -18 -20 -29 -39 -25 -42
13 -13 61 35 94 95 38 69 37 96 -2 86 -24 -6 -24 -5 -13 20 7 14 20 26 30 26
10 0 17 5 15 12 -6 16 -16 17 -65 5z m27 -99 c0 -7 -4 -19 -9 -26 -6 -10 -10
-10 -20 2 -7 8 -10 20 -6 26 9 14 35 13 35 -2z"/>
<path d="M227 4823 c-7 -44 -5 -48 20 -34 10 5 40 13 66 16 31 4 47 11 44 18
-4 13 -13 13 -64 2 -29 -7 -33 -5 -33 14 0 36 -27 24 -33 -16z"/>
<path d="M143 4407 c-45 -11 -58 -27 -23 -27 20 0 20 -2 -5 -50 -29 -56 -30
-64 -12 -57 7 3 19 -3 25 -14 10 -16 7 -24 -19 -54 -18 -20 -29 -39 -25 -42
13 -13 61 35 94 95 38 69 37 96 -2 86 -24 -6 -24 -5 -13 20 7 14 20 26 30 26
10 0 17 5 15 12 -6 16 -16 17 -65 5z m27 -99 c0 -7 -4 -19 -9 -26 -6 -10 -10
-10 -20 2 -7 8 -10 20 -6 26 9 14 35 13 35 -2z"/>
<path d="M227 4373 c-7 -44 -5 -48 20 -34 10 5 40 13 66 16 31 4 47 11 44 18
-4 13 -13 13 -64 2 -29 -7 -33 -5 -33 14 0 36 -27 24 -33 -16z"/>
<path d="M283 4317 c-52 -8 -73 -15 -73 -25 0 -10 7 -12 23 -8 12 3 55 9 95
13 39 3 72 9 72 13 0 8 -27 21 -38 18 -4 -1 -40 -6 -79 -11z"/>
<path d="M278 3970 c3 -33 1 -50 -7 -50 -6 0 -11 9 -11 20 0 36 -27 22 -33
-17 -7 -42 -2 -52 15 -35 18 18 38 14 38 -8 0 -16 -7 -20 -35 -20 -25 0 -35
-4 -35 -15 0 -13 7 -15 36 -9 l36 7 -4 -83 c-2 -59 1 -84 9 -87 9 -3 13 20 15
84 l3 88 48 3 c46 3 61 14 33 25 -8 3 -31 3 -50 0 -29 -5 -36 -2 -36 11 0 10
11 19 30 23 34 6 35 29 1 26 -19 -3 -21 2 -21 42 0 37 -3 45 -19 45 -16 0 -17
-6 -13 -50z"/>
<path d="M143 3957 c-45 -11 -58 -27 -23 -27 20 0 20 -2 -5 -50 -29 -56 -30
-64 -12 -57 7 3 19 -3 25 -14 10 -16 7 -24 -19 -54 -18 -20 -29 -39 -25 -42
13 -13 61 35 94 95 38 69 37 96 -2 86 -24 -6 -24 -5 -13 20 7 14 20 26 30 26
10 0 17 5 15 12 -6 16 -16 17 -65 5z m27 -99 c0 -7 -4 -19 -9 -26 -6 -10 -10
-10 -20 2 -7 8 -10 20 -6 26 9 14 35 13 35 -2z"/>
<path d="M278 3520 c3 -33 1 -50 -7 -50 -6 0 -11 9 -11 20 0 36 -27 22 -33
-17 -7 -42 -2 -52 15 -35 18 18 38 14 38 -8 0 -16 -7 -20 -35 -20 -25 0 -35
-4 -35 -16 0 -12 6 -15 25 -10 35 9 31 -4 -15 -49 -65 -63 -47 -80 20 -19 l40
36 -3 -62 c-1 -42 2 -64 10 -67 9 -3 13 20 15 84 l3 88 48 3 c46 3 61 14 33
25 -8 3 -31 3 -50 0 -29 -5 -36 -2 -36 11 0 10 11 19 30 23 34 6 35 29 1 26
-19 -3 -21 2 -21 42 0 37 -3 45 -19 45 -16 0 -17 -6 -13 -50z"/>
<path d="M143 3507 c-45 -11 -58 -27 -23 -27 20 0 20 -2 -5 -50 -29 -56 -30
-64 -12 -57 7 3 19 -3 25 -14 10 -16 7 -24 -19 -54 -18 -20 -29 -39 -25 -42
13 -13 61 35 94 95 38 69 37 96 -2 86 -24 -6 -24 -5 -13 20 7 14 20 26 30 26
10 0 17 5 15 12 -6 16 -16 17 -65 5z m27 -99 c0 -7 -4 -19 -9 -26 -6 -10 -10
-10 -20 2 -7 8 -10 20 -6 26 9 14 35 13 35 -2z"/>
<path d="M278 3070 c3 -33 1 -50 -7 -50 -6 0 -11 9 -11 20 0 36 -27 22 -33
-17 -7 -42 -2 -52 15 -35 18 18 38 14 38 -8 0 -16 -7 -20 -35 -20 -25 0 -35
-4 -35 -16 0 -12 6 -15 25 -10 35 9 31 -4 -15 -49 -65 -63 -47 -80 20 -19 l40
36 -3 -62 c-1 -42 2 -64 10 -67 9 -3 13 17 15 68 l3 72 29 -41 c24 -35 34 -42
62 -42 42 0 44 14 5 34 -37 19 -91 65 -91 77 0 5 20 9 45 9 25 0 45 4 45 9 0
14 -26 20 -64 14 -29 -5 -36 -2 -36 11 0 10 11 19 30 23 34 6 35 29 1 26 -19
-3 -21 2 -21 42 0 37 -3 45 -19 45 -16 0 -17 -6 -13 -50z"/>
<path d="M143 3057 c-45 -11 -58 -27 -23 -27 20 0 20 -2 -5 -50 -29 -56 -30
-64 -12 -57 7 3 19 -3 25 -14 10 -16 7 -24 -19 -54 -18 -20 -29 -39 -25 -42
13 -13 61 35 94 95 38 69 37 96 -2 86 -24 -6 -24 -5 -13 20 7 14 20 26 30 26
10 0 17 5 15 12 -6 16 -16 17 -65 5z m27 -99 c0 -7 -4 -19 -9 -26 -6 -10 -10
-10 -20 2 -7 8 -10 20 -6 26 9 14 35 13 35 -2z"/>
</g>
</svg>
