<?xml version="1.0" standalone="no"?>
<!DOCTYPE svg PUBLIC "-//W3C//DTD SVG 20010904//EN"
 "http://www.w3.org/TR/2001/REC-SVG-20010904/DTD/svg10.dtd">
<svg version="1.0" xmlns="http://www.w3.org/2000/svg"
 width="50.000000pt" height="725.000000pt" viewBox="0 0 50.000000 725.000000"
 preserveAspectRatio="xMidYMid meet">
<metadata>
Created by potrace 1.16, written by Peter Selinger 2001-2019
</metadata>
<g transform="translate(0.000000,725.000000) scale(0.100000,-0.100000)"
fill="#000000" stroke="none">
<path d="M158 7118 c-10 -23 -15 -44 -12 -47 9 -9 55 52 52 68 -6 29 -23 20
-40 -21z"/>
<path d="M166 6685 c-4 -14 -14 -33 -24 -43 -12 -12 -18 -36 -19 -81 -1 -45
-9 -78 -27 -114 -26 -53 -27 -68 -2 -48 26 21 49 84 56 152 5 44 15 78 30 99
12 17 19 37 16 45 -8 23 -23 18 -30 -10z"/>
<path d="M166 6235 c-4 -14 -14 -33 -24 -43 -12 -12 -18 -36 -19 -81 -1 -45
-9 -78 -27 -114 -29 -59 -25 -75 9 -33 26 33 45 89 45 137 0 60 9 76 36 71 22
-4 23 -8 17 -44 -9 -57 19 -47 31 11 10 47 -3 66 -36 55 -20 -6 -24 6 -7 23
13 13 5 43 -10 43 -5 0 -12 -11 -15 -25z"/>
<path d="M166 5785 c-4 -14 -14 -33 -24 -43 -12 -12 -18 -36 -19 -81 -1 -45
-9 -78 -27 -114 -29 -59 -25 -75 9 -33 30 37 48 106 54 202 1 13 51 6 51 -7 0
-5 -9 -9 -20 -9 -11 0 -20 -4 -20 -10 0 -5 7 -10 15 -10 9 0 15 -9 15 -21 0
-36 25 -15 34 30 10 47 -3 66 -36 55 -20 -6 -24 6 -7 23 13 13 5 43 -10 43 -5
0 -12 -11 -15 -25z"/>
<path d="M166 5335 c-4 -14 -14 -33 -24 -43 -12 -12 -18 -36 -19 -81 -1 -45
-9 -78 -27 -114 -14 -28 -22 -54 -19 -57 9 -9 47 49 64 98 14 42 19 48 50 52
31 5 35 9 43 48 10 48 -2 67 -36 56 -20 -6 -24 6 -7 23 13 13 5 43 -10 43 -5
0 -12 -11 -15 -25z m44 -76 c0 -5 -9 -9 -20 -9 -11 0 -20 -4 -20 -10 0 -5 7
-10 15 -10 24 0 17 -17 -9 -22 -21 -4 -24 -2 -21 21 2 14 4 31 4 37 1 13 51 6
51 -7z"/>
<path d="M166 4885 c-4 -14 -14 -33 -24 -43 -12 -12 -18 -36 -19 -81 -1 -45
-9 -78 -27 -114 -14 -28 -23 -54 -20 -57 8 -7 45 40 56 73 6 16 20 30 34 33
32 8 37 2 29 -35 -5 -22 -12 -31 -26 -31 -10 0 -19 -4 -19 -8 0 -10 22 -32 32
-32 14 0 36 45 43 89 l7 43 -41 -4 c-50 -4 -50 15 0 22 31 5 35 9 43 48 10 48
-2 67 -36 56 -20 -6 -24 6 -7 23 13 13 5 43 -10 43 -5 0 -12 -11 -15 -25z m44
-76 c0 -5 -9 -9 -20 -9 -11 0 -20 -4 -20 -10 0 -5 7 -10 15 -10 24 0 17 -17
-9 -22 -21 -4 -24 -2 -21 21 2 14 4 31 4 37 1 13 51 6 51 -7z"/>
<path d="M166 4435 c-4 -14 -14 -33 -24 -43 -12 -12 -18 -36 -19 -81 -1 -45
-9 -78 -27 -114 -14 -28 -23 -54 -20 -57 8 -7 45 40 56 73 6 16 20 30 34 33
32 8 37 2 29 -35 -5 -22 -12 -31 -26 -31 -10 0 -19 -4 -19 -8 0 -10 22 -32 32
-32 14 0 36 45 43 89 l7 43 -41 -4 c-50 -4 -50 15 0 22 31 5 35 9 43 48 10 48
-2 67 -36 56 -20 -6 -24 6 -7 23 13 13 5 43 -10 43 -5 0 -12 -11 -15 -25z m44
-76 c0 -5 -9 -9 -20 -9 -11 0 -20 -4 -20 -10 0 -5 7 -10 15 -10 24 0 17 -17
-9 -22 -21 -4 -24 -2 -21 21 2 14 4 31 4 37 1 13 51 6 51 -7z"/>
<path d="M260 4367 c0 -24 -5 -48 -12 -55 -6 -6 -8 -15 -5 -19 15 -14 39 26
44 71 5 38 3 46 -11 46 -12 0 -16 -10 -16 -43z"/>
<path d="M166 3985 c-4 -14 -14 -33 -24 -43 -12 -12 -18 -36 -19 -81 -1 -45
-9 -78 -27 -114 -14 -28 -23 -54 -20 -57 8 -7 45 40 56 73 6 16 20 30 34 33
32 8 37 2 29 -35 -5 -22 -12 -31 -26 -31 -10 0 -19 -4 -19 -8 0 -10 22 -32 32
-32 14 0 36 45 43 89 l7 43 -41 -4 c-50 -4 -50 15 0 22 31 5 35 9 43 48 10 48
-2 67 -36 56 -20 -6 -24 6 -7 23 13 13 5 43 -10 43 -5 0 -12 -11 -15 -25z m44
-76 c0 -5 -9 -9 -20 -9 -11 0 -20 -4 -20 -10 0 -5 7 -10 15 -10 24 0 17 -17
-9 -22 -21 -4 -24 -2 -21 21 2 14 4 31 4 37 1 13 51 6 51 -7z"/>
<path d="M288 3963 c-25 -4 -28 -8 -28 -47 0 -23 -5 -47 -12 -54 -17 -17 -2
-28 17 -12 8 7 18 30 21 51 4 22 10 39 15 39 19 0 24 -6 25 -25 2 -54 3 -55
44 -55 30 0 40 4 40 16 0 11 -8 15 -27 12 -26 -3 -28 -1 -28 37 0 43 -8 47
-67 38z"/>
<path d="M166 3535 c-4 -14 -14 -33 -24 -43 -12 -12 -18 -36 -19 -81 -1 -45
-9 -78 -27 -114 -14 -28 -23 -54 -20 -57 8 -7 45 40 56 73 6 16 20 30 34 33
32 8 37 2 29 -35 -5 -22 -12 -31 -26 -31 -10 0 -19 -4 -19 -8 0 -10 22 -32 32
-32 14 0 36 45 43 89 l7 43 -41 -4 c-50 -4 -50 15 0 22 31 5 35 9 43 48 10 48
-2 67 -36 56 -20 -6 -24 6 -7 23 13 13 5 43 -10 43 -5 0 -12 -11 -15 -25z m44
-76 c0 -5 -9 -9 -20 -9 -11 0 -20 -4 -20 -10 0 -5 7 -10 15 -10 24 0 17 -17
-9 -22 -21 -4 -24 -2 -21 21 2 14 4 31 4 37 1 13 51 6 51 -7z"/>
<path d="M288 3513 c-25 -4 -28 -8 -28 -47 0 -23 -5 -47 -12 -54 -17 -17 -2
-28 17 -12 8 7 18 30 21 51 4 22 10 39 15 39 19 0 24 -6 25 -25 2 -54 3 -55
44 -55 30 0 40 4 40 16 0 11 -8 15 -27 12 -26 -3 -28 -1 -28 37 0 43 -8 47
-67 38z"/>
<path d="M293 3387 c-54 -14 -56 -31 -3 -24 l39 5 -18 -37 c-11 -20 -31 -43
-45 -51 -26 -14 -35 -30 -16 -30 31 0 72 35 95 81 36 70 30 76 -52 56z"/>
<path d="M166 3085 c-4 -14 -14 -33 -24 -43 -12 -12 -18 -36 -19 -81 -1 -45
-9 -78 -27 -114 -14 -28 -23 -54 -20 -57 8 -7 45 40 56 73 6 16 20 30 34 33
32 8 37 2 29 -35 -5 -22 -12 -31 -26 -31 -10 0 -19 -4 -19 -8 0 -10 22 -32 32
-32 14 0 36 45 43 89 l7 43 -41 -4 c-50 -4 -50 15 0 22 31 5 35 9 43 48 10 48
-2 67 -36 56 -20 -6 -24 6 -7 23 13 13 5 43 -10 43 -5 0 -12 -11 -15 -25z m44
-76 c0 -5 -9 -9 -20 -9 -11 0 -20 -4 -20 -10 0 -5 7 -10 15 -10 24 0 17 -17
-9 -22 -21 -4 -24 -2 -21 21 2 14 4 31 4 37 1 13 51 6 51 -7z"/>
<path d="M288 3063 c-25 -4 -28 -8 -28 -47 0 -23 -5 -47 -12 -54 -17 -17 -2
-28 17 -12 8 7 18 30 21 51 4 22 10 39 15 39 19 0 24 -6 25 -25 2 -54 3 -55
44 -55 30 0 40 4 40 16 0 11 -8 15 -27 12 -26 -3 -28 -1 -28 37 0 43 -8 47
-67 38z"/>
<path d="M293 2937 c-47 -12 -53 -25 -23 -52 27 -24 25 -39 -5 -55 -27 -14
-33 -30 -12 -30 6 1 23 7 37 15 23 13 27 12 46 -12 18 -23 25 -25 62 -18 38 6
60 25 30 25 -7 0 -32 9 -56 20 l-43 19 21 41 c31 60 23 66 -57 47z m26 -38
c-8 -16 -14 -18 -22 -10 -9 9 -8 14 3 21 24 16 31 11 19 -11z"/>
</g>
</svg>
