<?xml version="1.0" standalone="no"?>
<!DOCTYPE svg PUBLIC "-//W3C//DTD SVG 20010904//EN"
 "http://www.w3.org/TR/2001/REC-SVG-20010904/DTD/svg10.dtd">
<svg version="1.0" xmlns="http://www.w3.org/2000/svg"
 width="50.000000pt" height="725.000000pt" viewBox="0 0 50.000000 725.000000"
 preserveAspectRatio="xMidYMid meet">
<metadata>
Created by potrace 1.16, written by Peter Selinger 2001-2019
</metadata>
<g transform="translate(0.000000,725.000000) scale(0.100000,-0.100000)"
fill="#000000" stroke="none">
<path d="M228 7128 c-32 -6 -58 -15 -58 -20 0 -6 23 -7 58 -3 85 9 112 16 112
26 0 11 -35 10 -112 -3z"/>
<path d="M228 6678 c-32 -6 -58 -15 -58 -20 0 -6 23 -7 58 -3 85 9 112 16 112
26 0 11 -35 10 -112 -3z"/>
<path d="M233 6638 c-49 -10 -60 -33 -13 -24 17 3 44 9 60 12 17 3 30 10 30
15 0 11 -20 10 -77 -3z"/>
<path d="M232 6256 c5 -26 -6 -36 -43 -36 -10 0 -19 -5 -19 -11 0 -7 12 -9 30
-7 38 6 50 -9 15 -18 -14 -3 -25 -11 -25 -16 0 -6 9 -8 20 -5 12 3 24 -1 30
-11 9 -15 12 -15 26 6 9 12 23 22 30 22 24 0 15 20 -8 21 -16 1 -11 4 15 11
47 13 49 32 2 26 -28 -3 -35 0 -37 16 -2 12 -11 22 -22 24 -15 3 -18 -1 -14
-22z"/>
<path d="M232 5806 c5 -26 -6 -36 -43 -36 -10 0 -19 -5 -19 -11 0 -7 12 -9 30
-7 38 6 50 -9 15 -18 -14 -3 -25 -11 -25 -16 0 -6 9 -8 20 -5 11 3 22 1 25 -3
3 -5 -20 -12 -50 -15 -30 -4 -55 -11 -55 -16 0 -11 1 -11 137 2 62 7 113 16
113 20 0 11 -12 12 -69 9 -29 -1 -41 2 -37 9 4 6 14 11 22 11 23 0 16 20 -8
21 -16 1 -11 4 15 11 47 13 49 32 2 26 -28 -3 -35 0 -37 16 -2 12 -11 22 -22
24 -15 3 -18 -1 -14 -22z"/>
<path d="M232 5356 c5 -26 -6 -36 -43 -36 -10 0 -19 -5 -19 -11 0 -7 12 -9 30
-7 38 6 50 -9 15 -18 -14 -3 -25 -11 -25 -16 0 -6 9 -8 20 -5 11 3 22 1 25 -3
3 -5 -20 -12 -50 -15 -30 -4 -55 -11 -55 -16 0 -11 1 -11 137 2 62 7 113 16
113 20 0 11 -12 12 -69 9 -29 -1 -41 2 -37 9 4 6 14 11 22 11 23 0 16 20 -8
21 -16 1 -11 4 15 11 47 13 49 32 2 26 -28 -3 -35 0 -37 16 -2 12 -11 22 -22
24 -15 3 -18 -1 -14 -22z"/>
<path d="M172 5183 c1 -16 -2 -47 -6 -71 l-8 -43 29 8 c35 10 74 10 136 1 38
-6 47 -5 47 7 0 20 -39 28 -113 23 l-63 -4 4 53 c4 44 2 53 -11 53 -11 0 -16
-8 -15 -27z"/>
<path d="M232 4906 c5 -26 -6 -36 -43 -36 -10 0 -19 -5 -19 -11 0 -7 12 -9 30
-7 38 6 50 -9 15 -18 -14 -3 -25 -11 -25 -16 0 -6 9 -8 20 -5 11 3 22 1 25 -3
3 -5 -20 -12 -50 -15 -30 -4 -55 -11 -55 -16 0 -11 1 -11 137 2 62 7 113 16
113 20 0 11 -12 12 -69 9 -29 -1 -41 2 -37 9 4 6 14 11 22 11 23 0 16 20 -8
21 -16 1 -11 4 15 11 47 13 49 32 2 26 -28 -3 -35 0 -37 16 -2 12 -11 22 -22
24 -15 3 -18 -1 -14 -22z"/>
<path d="M260 4761 c0 -6 9 -11 20 -11 17 0 20 -7 20 -44 l0 -44 -52 -4 c-29
-2 -53 -4 -54 -4 0 1 1 20 4 44 3 33 8 42 23 42 10 0 19 5 19 10 0 6 -16 10
-35 10 -31 0 -34 -3 -33 -27 1 -16 -2 -48 -6 -72 -7 -39 -6 -43 9 -37 33 12
90 17 104 7 19 -12 3 -33 -20 -26 -25 8 -24 -7 2 -31 21 -19 21 -18 40 5 10
13 19 30 19 37 0 10 7 13 25 8 32 -8 36 21 4 31 -18 6 -20 13 -17 58 l3 52
-37 3 c-22 2 -38 -1 -38 -7z"/>
<path d="M232 4456 c5 -26 -6 -36 -43 -36 -10 0 -19 -5 -19 -11 0 -7 12 -9 30
-7 38 6 50 -9 15 -18 -14 -3 -25 -11 -25 -16 0 -6 9 -8 20 -5 11 3 22 1 25 -3
3 -5 -20 -12 -50 -15 -30 -4 -55 -11 -55 -16 0 -11 1 -11 137 2 62 7 113 16
113 20 0 11 -12 12 -69 9 -29 -1 -41 2 -37 9 4 6 14 11 22 11 23 0 16 20 -8
21 -16 1 -11 4 15 11 47 13 49 32 2 26 -28 -3 -35 0 -37 16 -2 12 -11 22 -22
24 -15 3 -18 -1 -14 -22z"/>
<path d="M218 4313 c-44 -4 -47 -6 -46 -31 1 -15 -2 -47 -6 -71 -8 -42 -8 -43
15 -36 23 7 23 7 7 -12 -22 -24 -23 -33 -4 -33 8 0 26 14 40 31 19 23 31 29
46 24 27 -9 20 -31 -9 -28 -27 3 -27 -9 0 -33 21 -19 21 -18 40 5 10 13 19 30
19 37 0 10 7 13 25 8 32 -8 36 21 4 31 -18 6 -20 13 -17 58 l3 52 -35 1 c-19
0 -56 -1 -82 -3z m82 -58 c0 -41 -2 -45 -25 -45 -22 0 -25 3 -19 28 12 54 16
62 30 62 10 0 14 -13 14 -45z m-68 0 c-3 -28 -27 -64 -35 -54 -2 2 -2 23 1 47
3 33 8 42 21 40 11 -2 15 -12 13 -33z"/>
<path d="M232 4006 c5 -26 -6 -36 -43 -36 -10 0 -19 -5 -19 -11 0 -7 12 -9 30
-7 38 6 50 -9 15 -18 -14 -3 -25 -11 -25 -16 0 -6 9 -8 20 -5 11 3 22 1 25 -3
3 -5 -20 -12 -50 -15 -30 -4 -55 -11 -55 -16 0 -11 1 -11 137 2 62 7 113 16
113 20 0 11 -12 12 -69 9 -29 -1 -41 2 -37 9 4 6 14 11 22 11 23 0 16 20 -8
21 -16 1 -11 4 15 11 47 13 49 32 2 26 -28 -3 -35 0 -37 16 -2 12 -11 22 -22
24 -15 3 -18 -1 -14 -22z"/>
<path d="M217 3863 c-45 -4 -48 -6 -43 -27 5 -22 2 -24 -44 -30 -64 -9 -68
-31 -5 -24 l45 6 -6 -35 c-6 -34 -5 -35 17 -28 23 7 23 7 7 -12 -22 -24 -23
-33 -4 -33 8 0 26 14 40 31 19 23 31 29 46 24 27 -9 20 -31 -9 -28 -27 3 -27
-9 0 -33 21 -19 21 -18 40 5 10 13 19 30 19 37 0 10 7 13 25 8 31 -8 36 21 5
31 -11 4 -20 15 -20 27 0 18 4 19 50 13 42 -6 50 -4 50 9 0 12 -11 16 -48 16
-44 0 -49 2 -48 23 1 24 -20 28 -117 20z m83 -28 c0 -8 -9 -15 -20 -15 -13 0
-18 5 -14 15 4 8 12 15 20 15 8 0 14 -7 14 -15z m-67 -10 c1 -5 -6 -11 -15
-13 -11 -2 -18 3 -18 13 0 17 30 18 33 0z m67 -45 c0 -15 -7 -20 -25 -20 -40
0 -25 27 23 39 1 1 2 -8 2 -19z m-70 1 c0 -11 -29 -35 -35 -29 -10 9 7 38 21
38 8 0 14 -4 14 -9z"/>
</g>
</svg>
