<?xml version="1.0" standalone="no"?>
<!DOCTYPE svg PUBLIC "-//W3C//DTD SVG 20010904//EN"
 "http://www.w3.org/TR/2001/REC-SVG-20010904/DTD/svg10.dtd">
<svg version="1.0" xmlns="http://www.w3.org/2000/svg"
 width="50.000000pt" height="725.000000pt" viewBox="0 0 50.000000 725.000000"
 preserveAspectRatio="xMidYMid meet">
<metadata>
Created by potrace 1.16, written by Peter Selinger 2001-2019
</metadata>
<g transform="translate(0.000000,725.000000) scale(0.100000,-0.100000)"
fill="#000000" stroke="none">
<path d="M150 7000 c-8 -5 -12 -11 -9 -14 8 -8 79 6 79 15 0 12 -51 11 -70 -1z"/>
<path d="M114 6560 c-1 -44 -5 -96 -8 -115 -10 -50 13 -55 66 -14 24 18 45 34
47 36 2 2 2 6 -1 9 -3 3 -22 -2 -42 -10 l-36 -15 0 39 c0 39 1 40 40 46 52 8
53 28 1 21 l-38 -5 5 44 c4 38 2 44 -14 44 -17 0 -19 -9 -20 -80z"/>
<path d="M114 6110 c-1 -44 -5 -96 -8 -115 -10 -50 13 -55 66 -14 24 18 45 34
47 36 2 2 2 6 -1 9 -3 3 -22 -2 -42 -10 l-36 -15 0 39 c0 39 1 40 40 46 52 8
53 28 1 21 l-38 -5 5 44 c4 38 2 44 -14 44 -17 0 -19 -9 -20 -80z"/>
<path d="M283 6128 c-18 -6 -33 -15 -33 -19 0 -21 111 -2 118 19 5 15 -39 15
-85 0z"/>
<path d="M240 5661 c0 -128 0 -131 25 -147 18 -12 39 -15 76 -12 61 6 71 15
63 56 -6 32 -24 45 -24 18 0 -24 -29 -46 -60 -46 -37 0 -60 24 -60 63 0 44 8
52 59 63 49 10 68 34 27 34 -13 0 -37 -5 -51 -10 l-27 -10 4 57 c2 49 0 58
-14 61 -16 3 -18 -8 -18 -127z"/>
<path d="M114 5660 c-1 -44 -5 -96 -8 -115 -10 -50 13 -55 66 -14 24 18 45 34
47 36 2 2 2 6 -1 9 -3 3 -22 -2 -42 -10 l-36 -15 0 39 c0 39 1 40 40 46 52 8
53 28 1 21 l-38 -5 5 44 c4 38 2 44 -14 44 -17 0 -19 -9 -20 -80z"/>
</g>
</svg>
