<?xml version="1.0" standalone="no"?>
<!DOCTYPE svg PUBLIC "-//W3C//DTD SVG 20010904//EN"
 "http://www.w3.org/TR/2001/REC-SVG-20010904/DTD/svg10.dtd">
<svg version="1.0" xmlns="http://www.w3.org/2000/svg"
 width="50.000000pt" height="725.000000pt" viewBox="0 0 50.000000 725.000000"
 preserveAspectRatio="xMidYMid meet">
<metadata>
Created by potrace 1.16, written by Peter Selinger 2001-2019
</metadata>
<g transform="translate(0.000000,725.000000) scale(0.100000,-0.100000)"
fill="#000000" stroke="none">
<path d="M146 7099 c-17 -15 -28 -31 -25 -34 9 -8 89 29 89 41 0 10 -26 27
-33 23 -1 -1 -15 -14 -31 -30z"/>
<path d="M146 6649 c-17 -15 -28 -31 -25 -34 9 -8 89 29 89 41 0 10 -26 27
-33 23 -1 -1 -15 -14 -31 -30z"/>
<path d="M133 6578 c-33 -11 -45 -28 -19 -28 23 0 76 22 76 31 0 11 -15 10
-57 -3z"/>
<path d="M146 6199 c-17 -15 -28 -31 -25 -34 9 -8 89 29 89 41 0 10 -26 27
-33 23 -1 -1 -15 -14 -31 -30z"/>
<path d="M133 6128 c-33 -11 -45 -28 -19 -28 23 0 76 22 76 31 0 11 -15 10
-57 -3z"/>
<path d="M118 6073 c-46 -13 -65 -33 -33 -33 25 0 125 34 125 42 0 12 -38 8
-92 -9z"/>
<path d="M145 5749 c-24 -24 -27 -31 -16 -38 17 -11 7 -41 -14 -41 -8 0 -15
-4 -15 -10 0 -5 9 -10 21 -10 31 0 18 -23 -19 -32 -44 -12 -42 -32 3 -25 l35
6 0 -39 c0 -51 26 -68 111 -76 65 -7 174 9 184 27 9 14 -5 49 -20 49 -7 0 -15
-7 -18 -14 -14 -35 -185 -47 -222 -16 -8 7 -15 28 -15 46 0 28 5 35 25 40 14
3 25 10 25 15 0 5 -11 9 -25 9 -29 0 -33 14 -7 30 12 8 13 13 5 16 -21 9 -15
45 7 51 24 6 26 28 4 37 -9 3 -16 6 -17 5 -1 -1 -15 -14 -32 -30z"/>
<path d="M145 5299 c-24 -24 -27 -31 -16 -38 17 -11 7 -41 -14 -41 -8 0 -15
-4 -15 -10 0 -5 9 -10 21 -10 31 0 18 -23 -19 -32 -44 -12 -42 -32 3 -25 l35
6 0 -39 c0 -51 26 -68 111 -76 65 -7 174 9 184 27 9 14 -5 49 -20 49 -7 0 -15
-7 -18 -14 -14 -35 -185 -47 -222 -16 -8 7 -15 28 -15 46 0 28 5 35 25 40 14
3 25 10 25 15 0 5 -11 9 -25 9 -29 0 -33 14 -7 30 12 8 13 13 5 16 -21 9 -15
45 7 51 24 6 26 28 4 37 -9 3 -16 6 -17 5 -1 -1 -15 -14 -32 -30z"/>
<path d="M320 5310 c0 -5 5 -10 11 -10 7 0 9 -11 5 -31 -4 -21 -2 -29 6 -27
13 5 30 57 22 70 -7 11 -44 10 -44 -2z"/>
<path d="M270 5300 c0 -5 9 -10 20 -10 11 0 20 5 20 10 0 6 -9 10 -20 10 -11
0 -20 -4 -20 -10z"/>
<path d="M145 4849 c-24 -24 -27 -31 -16 -38 17 -11 7 -41 -14 -41 -8 0 -15
-4 -15 -10 0 -5 9 -10 21 -10 31 0 18 -23 -19 -32 -44 -12 -42 -32 3 -25 l35
6 0 -39 c0 -51 26 -68 111 -76 65 -7 174 9 184 27 9 14 -5 49 -20 49 -7 0 -15
-7 -18 -14 -14 -35 -185 -47 -222 -16 -8 7 -15 28 -15 46 0 28 5 35 25 40 14
3 25 10 25 15 0 5 -11 9 -25 9 -29 0 -33 14 -7 30 12 8 13 13 5 16 -21 9 -15
45 7 51 24 6 26 28 4 37 -9 3 -16 6 -17 5 -1 -1 -15 -14 -32 -30z"/>
<path d="M320 4860 c0 -5 5 -10 11 -10 5 0 7 -4 4 -10 -3 -5 -17 -10 -31 -10
-13 0 -24 -4 -24 -10 0 -5 11 -10 24 -10 13 0 27 -6 30 -12 3 -10 9 -8 19 5 8
9 22 17 31 17 9 0 16 5 16 10 0 6 -6 10 -14 10 -8 0 -16 7 -20 15 -6 17 -46
21 -46 5z"/>
<path d="M270 4850 c0 -5 9 -10 20 -10 11 0 20 5 20 10 0 6 -9 10 -20 10 -11
0 -20 -4 -20 -10z"/>
<path d="M145 4399 c-24 -24 -27 -31 -16 -38 17 -11 7 -41 -14 -41 -8 0 -15
-4 -15 -10 0 -5 9 -10 21 -10 31 0 18 -23 -19 -32 -44 -12 -42 -32 3 -25 l35
6 0 -39 c0 -51 26 -68 111 -76 65 -7 174 9 184 27 9 14 -5 49 -20 49 -7 0 -15
-7 -18 -14 -14 -35 -185 -47 -222 -16 -8 7 -15 28 -15 46 0 28 5 35 25 40 14
3 25 10 25 15 0 5 -11 9 -25 9 -29 0 -33 14 -7 30 12 8 13 13 5 16 -21 9 -15
45 7 51 24 6 26 28 4 37 -9 3 -16 6 -17 5 -1 -1 -15 -14 -32 -30z"/>
<path d="M320 4410 c0 -5 5 -10 11 -10 5 0 7 -4 4 -10 -3 -5 -17 -10 -31 -10
-33 0 -30 -20 4 -21 27 -1 27 -1 -5 -11 -37 -12 -46 -34 -10 -24 12 3 32 6 45
6 15 0 22 6 22 20 0 13 7 20 20 20 11 0 20 5 20 10 0 6 -6 10 -14 10 -8 0 -16
7 -20 15 -6 17 -46 21 -46 5z"/>
<path d="M270 4400 c0 -5 9 -10 20 -10 11 0 20 5 20 10 0 6 -9 10 -20 10 -11
0 -20 -4 -20 -10z"/>
<path d="M145 3949 c-24 -24 -27 -31 -16 -38 17 -11 7 -41 -14 -41 -8 0 -15
-4 -15 -10 0 -5 9 -10 21 -10 31 0 18 -23 -19 -32 -44 -12 -42 -32 3 -25 l35
6 0 -39 c0 -51 26 -68 111 -76 65 -7 174 9 184 27 9 14 -5 49 -20 49 -7 0 -15
-7 -18 -14 -14 -35 -185 -47 -222 -16 -8 7 -15 28 -15 46 0 28 5 35 25 40 14
3 25 10 25 15 0 5 -11 9 -25 9 -29 0 -33 14 -7 30 12 8 13 13 5 16 -21 9 -15
45 7 51 24 6 26 28 4 37 -9 3 -16 6 -17 5 -1 -1 -15 -14 -32 -30z"/>
<path d="M320 3960 c0 -5 5 -10 11 -10 5 0 7 -4 4 -10 -3 -5 -17 -10 -31 -10
-33 0 -30 -20 4 -21 27 -1 27 -1 -5 -11 -37 -12 -46 -34 -10 -24 12 3 32 6 45
6 15 0 22 6 22 20 0 13 7 20 20 20 11 0 20 5 20 10 0 6 -6 10 -14 10 -8 0 -16
7 -20 15 -6 17 -46 21 -46 5z"/>
<path d="M270 3950 c0 -5 9 -10 20 -10 11 0 20 5 20 10 0 6 -9 10 -20 10 -11
0 -20 -4 -20 -10z"/>
<path d="M293 3863 c-13 -2 -23 -9 -23 -15 0 -6 12 -8 31 -4 17 3 35 6 40 6 5
0 9 5 9 10 0 10 -16 11 -57 3z"/>
<path d="M145 3499 c-24 -24 -27 -31 -16 -38 17 -11 7 -41 -14 -41 -8 0 -15
-4 -15 -10 0 -5 9 -10 21 -10 31 0 18 -23 -19 -32 -44 -12 -42 -32 3 -25 l35
6 0 -39 c0 -51 26 -68 111 -76 65 -7 174 9 184 27 9 14 -5 49 -20 49 -7 0 -15
-7 -18 -14 -14 -35 -185 -47 -222 -16 -8 7 -15 28 -15 46 0 28 5 35 25 40 14
3 25 10 25 15 0 5 -11 9 -25 9 -29 0 -33 14 -7 30 12 8 13 13 5 16 -21 9 -15
45 7 51 24 6 26 28 4 37 -9 3 -16 6 -17 5 -1 -1 -15 -14 -32 -30z"/>
<path d="M320 3510 c0 -5 5 -10 11 -10 5 0 7 -4 4 -10 -3 -5 -17 -10 -31 -10
-33 0 -30 -20 4 -21 27 -1 27 -1 -5 -11 -37 -12 -46 -34 -10 -24 12 3 32 6 45
6 15 0 22 6 22 20 0 13 7 20 20 20 11 0 20 5 20 10 0 6 -6 10 -14 10 -8 0 -16
7 -20 15 -6 17 -46 21 -46 5z"/>
<path d="M270 3500 c0 -5 9 -10 20 -10 11 0 20 5 20 10 0 6 -9 10 -20 10 -11
0 -20 -4 -20 -10z"/>
<path d="M293 3413 c-13 -2 -23 -9 -23 -15 0 -6 12 -8 31 -4 17 3 35 6 40 6 5
0 9 5 9 10 0 10 -16 11 -57 3z"/>
<path d="M313 3383 c-35 -5 -46 -23 -14 -23 34 0 81 12 81 21 0 9 -8 9 -67 2z"/>
<path d="M290 3086 c0 -13 -6 -27 -12 -29 -9 -4 -9 -8 -3 -14 14 -12 16 -46 2
-55 -9 -6 -9 -10 2 -17 11 -7 11 -9 0 -14 -9 -4 -10 -8 -4 -14 6 -4 11 -19 13
-32 4 -35 10 -37 32 -13 12 12 30 22 40 22 11 0 20 5 20 11 0 7 -11 9 -30 6
-17 -4 -30 -2 -30 3 0 6 7 10 15 10 21 0 19 18 -2 23 -14 4 -12 5 5 6 15 1 22
7 22 21 0 13 7 20 20 20 11 0 20 5 20 10 0 6 -6 10 -14 10 -8 0 -16 7 -20 15
-3 8 -14 15 -25 15 -10 0 -21 9 -24 20 -7 28 -27 25 -27 -4z m50 -40 c0 -3 -4
-8 -10 -11 -5 -3 -10 -1 -10 4 0 6 5 11 10 11 6 0 10 -2 10 -4z"/>
<path d="M145 3049 c-24 -24 -27 -31 -16 -38 17 -11 7 -41 -14 -41 -8 0 -15
-4 -15 -10 0 -5 9 -10 21 -10 31 0 18 -23 -19 -32 -44 -12 -42 -32 3 -25 l35
6 0 -39 c0 -51 26 -68 111 -76 65 -7 174 9 184 27 9 14 -5 49 -20 49 -7 0 -15
-7 -18 -14 -14 -35 -185 -47 -222 -16 -8 7 -15 28 -15 46 0 28 5 35 25 40 14
3 25 10 25 15 0 5 -11 9 -25 9 -29 0 -33 14 -7 30 12 8 13 13 5 16 -21 9 -15
45 7 51 24 6 26 28 4 37 -9 3 -16 6 -17 5 -1 -1 -15 -14 -32 -30z"/>
<path d="M290 2636 c0 -13 -6 -27 -12 -29 -9 -4 -9 -8 -3 -14 14 -12 16 -46 2
-55 -9 -6 -9 -10 2 -17 11 -7 11 -9 0 -14 -9 -4 -10 -8 -4 -14 6 -4 11 -19 13
-32 4 -35 10 -37 32 -13 12 12 30 22 40 22 11 0 20 5 20 11 0 7 -11 9 -30 6
-17 -4 -30 -2 -30 3 0 6 7 10 15 10 21 0 19 18 -2 23 -14 4 -12 5 5 6 15 1 22
7 22 21 0 13 7 20 20 20 11 0 20 5 20 10 0 6 -6 10 -14 10 -8 0 -16 7 -20 15
-3 8 -14 15 -25 15 -10 0 -21 9 -24 20 -7 28 -27 25 -27 -4z m50 -40 c0 -3 -4
-8 -10 -11 -5 -3 -10 -1 -10 4 0 6 5 11 10 11 6 0 10 -2 10 -4z"/>
<path d="M145 2599 c-24 -24 -27 -31 -16 -38 17 -11 7 -41 -14 -41 -8 0 -15
-4 -15 -10 0 -5 9 -10 21 -10 31 0 18 -23 -19 -32 -44 -12 -42 -32 3 -25 l35
6 0 -39 c0 -51 26 -68 111 -76 65 -7 174 9 184 27 9 14 -5 49 -20 49 -7 0 -15
-7 -18 -14 -14 -35 -185 -47 -222 -16 -8 7 -15 28 -15 46 0 28 5 35 25 40 14
3 25 10 25 15 0 5 -11 9 -25 9 -29 0 -33 14 -7 30 12 8 13 13 5 16 -21 9 -15
45 7 51 24 6 26 28 4 37 -9 3 -16 6 -17 5 -1 -1 -15 -14 -32 -30z"/>
<path d="M210 2580 c-11 -8 -12 -12 -3 -18 8 -5 9 -13 3 -22 -12 -18 -13 -40
-2 -40 10 0 42 58 42 76 0 16 -18 18 -40 4z"/>
<path d="M290 2186 c0 -13 -6 -27 -12 -29 -9 -4 -9 -8 -3 -14 14 -12 16 -46 2
-55 -9 -6 -9 -10 2 -17 11 -7 11 -9 0 -14 -9 -4 -10 -8 -4 -14 6 -4 11 -19 13
-32 4 -35 10 -37 32 -13 12 12 30 22 40 22 11 0 20 5 20 11 0 7 -11 9 -30 6
-17 -4 -30 -2 -30 3 0 6 7 10 15 10 21 0 19 18 -2 23 -14 4 -12 5 5 6 15 1 22
7 22 21 0 13 7 20 20 20 11 0 20 5 20 10 0 6 -6 10 -14 10 -8 0 -16 7 -20 15
-3 8 -14 15 -25 15 -10 0 -21 9 -24 20 -7 28 -27 25 -27 -4z m50 -40 c0 -3 -4
-8 -10 -11 -5 -3 -10 -1 -10 4 0 6 5 11 10 11 6 0 10 -2 10 -4z"/>
<path d="M145 2149 c-24 -24 -27 -31 -16 -38 17 -11 7 -41 -14 -41 -8 0 -15
-4 -15 -10 0 -5 9 -10 21 -10 31 0 18 -23 -19 -32 -44 -12 -42 -32 3 -25 l35
6 0 -39 c0 -51 26 -68 111 -76 65 -7 174 9 184 27 9 14 -5 49 -20 49 -7 0 -15
-7 -18 -14 -14 -35 -185 -47 -222 -16 -8 7 -15 28 -15 46 0 28 5 35 25 40 14
3 25 10 25 15 0 5 -11 9 -25 9 -29 0 -33 14 -7 30 12 8 13 13 5 16 -21 9 -15
45 7 51 24 6 26 28 4 37 -9 3 -16 6 -17 5 -1 -1 -15 -14 -32 -30z"/>
<path d="M210 2130 c-11 -8 -12 -12 -3 -18 8 -5 9 -13 3 -22 -14 -22 -12 -40
5 -40 13 0 13 -4 -1 -37 -9 -21 -18 -44 -21 -50 -3 -7 0 -13 6 -13 13 0 51 73
51 99 0 11 -6 21 -12 24 -10 4 -10 7 0 18 29 31 7 62 -28 39z"/>
<path d="M290 1736 c0 -13 -6 -27 -12 -29 -9 -4 -9 -8 -3 -14 14 -12 16 -46 2
-55 -9 -6 -9 -10 2 -17 11 -7 11 -9 0 -14 -9 -4 -10 -8 -4 -14 6 -4 11 -20 13
-35 3 -26 1 -27 -22 -17 -21 10 -24 17 -19 41 4 20 1 33 -8 39 -11 6 -11 11
-1 21 16 16 16 48 0 48 -24 0 -44 -19 -31 -28 8 -5 9 -13 3 -22 -14 -22 -12
-38 5 -42 12 -2 11 -10 -6 -47 -21 -47 -17 -69 7 -36 14 19 15 19 47 0 17 -11
55 -22 82 -25 l50 -6 -45 -13 c-51 -15 -153 -9 -175 9 -8 7 -15 28 -15 46 0
28 5 35 25 40 14 3 25 10 25 15 0 5 -11 9 -25 9 -29 0 -33 14 -7 30 12 8 13
13 5 16 -21 9 -15 45 7 51 23 6 27 28 5 37 -8 3 -29 -8 -47 -25 -26 -23 -30
-31 -19 -38 17 -11 7 -41 -14 -41 -8 0 -15 -4 -15 -10 0 -5 9 -10 21 -10 31 0
18 -23 -19 -32 -44 -12 -42 -32 3 -25 l35 6 0 -39 c0 -51 26 -68 111 -76 65
-7 174 9 184 27 4 5 4 18 0 28 -4 14 -19 20 -61 24 -31 3 -58 8 -60 10 -12 11
12 39 37 44 16 3 29 10 29 16 0 5 -13 7 -30 4 -17 -4 -30 -2 -30 3 0 6 7 10
15 10 21 0 19 18 -2 23 -14 4 -12 5 5 6 15 1 22 7 22 21 0 13 7 20 20 20 11 0
20 5 20 10 0 6 -6 10 -14 10 -8 0 -16 7 -20 15 -3 8 -14 15 -25 15 -10 0 -21
9 -24 20 -7 28 -27 25 -27 -4z m50 -40 c0 -3 -4 -8 -10 -11 -5 -3 -10 -1 -10
4 0 6 5 11 10 11 6 0 10 -2 10 -4z"/>
</g>
</svg>
