<?xml version="1.0" standalone="no"?>
<!DOCTYPE svg PUBLIC "-//W3C//DTD SVG 20010904//EN"
 "http://www.w3.org/TR/2001/REC-SVG-20010904/DTD/svg10.dtd">
<svg version="1.0" xmlns="http://www.w3.org/2000/svg"
 width="50.000000pt" height="725.000000pt" viewBox="0 0 50.000000 725.000000"
 preserveAspectRatio="xMidYMid meet">
<metadata>
Created by potrace 1.16, written by Peter Selinger 2001-2019
</metadata>
<g transform="translate(0.000000,725.000000) scale(0.100000,-0.100000)"
fill="#000000" stroke="none">
<path d="M160 7130 c0 -48 15 -53 24 -9 9 45 8 49 -9 49 -11 0 -15 -11 -15
-40z"/>
<path d="M160 6680 c0 -48 15 -53 24 -9 9 45 8 49 -9 49 -11 0 -15 -11 -15
-40z"/>
<path d="M112 6673 c4 -22 38 -30 38 -10 0 8 -7 18 -16 21 -23 9 -26 8 -22
-11z"/>
<path d="M160 6230 c0 -48 15 -53 24 -9 9 45 8 49 -9 49 -11 0 -15 -11 -15
-40z"/>
<path d="M210 6240 c-6 -12 -9 -24 -7 -27 9 -8 48 18 44 30 -6 20 -25 19 -37
-3z"/>
<path d="M112 6223 c4 -22 38 -30 38 -10 0 8 -7 18 -16 21 -23 9 -26 8 -22
-11z"/>
<path d="M160 5780 c0 -48 15 -53 24 -9 9 45 8 49 -9 49 -11 0 -15 -11 -15
-40z"/>
<path d="M210 5790 c-6 -12 -9 -24 -7 -27 9 -8 48 18 44 30 -6 20 -25 19 -37
-3z"/>
<path d="M112 5773 c4 -22 38 -30 38 -10 0 8 -7 18 -16 21 -23 9 -26 8 -22
-11z"/>
<path d="M100 5690 c0 -27 5 -50 10 -50 6 0 10 23 10 50 0 28 -4 50 -10 50 -5
0 -10 -22 -10 -50z"/>
<path d="M160 5325 c0 -44 1 -45 31 -45 l32 0 -6 -45 c-5 -34 -3 -45 7 -45 20
0 29 102 9 113 -12 7 -12 11 4 22 15 11 16 16 5 27 -11 11 -16 10 -28 -7 -8
-11 -12 -25 -10 -32 3 -7 -1 -13 -10 -13 -12 0 -13 8 -8 35 5 28 3 35 -10 35
-12 0 -16 -10 -16 -45z"/>
<path d="M112 5323 c4 -22 38 -30 38 -10 0 8 -7 18 -16 21 -23 9 -26 8 -22
-11z"/>
<path d="M100 5240 c0 -27 5 -50 10 -50 6 0 10 15 10 34 0 19 3 41 6 50 4 11
1 16 -10 16 -13 0 -16 -11 -16 -50z"/>
<path d="M160 4875 c0 -44 1 -45 31 -45 l32 0 -6 -45 c-5 -34 -3 -45 7 -45 20
0 29 102 9 113 -12 7 -12 11 4 22 15 11 16 16 5 27 -11 11 -16 10 -28 -7 -8
-11 -12 -25 -10 -32 3 -7 -1 -13 -10 -13 -12 0 -13 8 -8 35 5 28 3 35 -10 35
-12 0 -16 -10 -16 -45z"/>
<path d="M112 4873 c4 -22 38 -30 38 -10 0 8 -7 18 -16 21 -23 9 -26 8 -22
-11z"/>
<path d="M100 4790 c0 -27 5 -50 10 -50 6 0 10 15 10 34 0 19 3 41 6 50 4 11
1 16 -10 16 -13 0 -16 -11 -16 -50z"/>
<path d="M140 4795 c0 -8 5 -15 10 -15 6 0 10 7 10 15 0 8 -4 15 -10 15 -5 0
-10 -7 -10 -15z"/>
<path d="M160 4425 c0 -44 1 -45 31 -45 l32 0 -6 -45 c-5 -34 -3 -45 7 -45 20
0 29 102 9 113 -12 7 -12 11 4 22 15 11 16 16 5 27 -11 11 -16 10 -28 -7 -8
-11 -12 -25 -10 -32 3 -7 -1 -13 -10 -13 -12 0 -13 8 -8 35 5 28 3 35 -10 35
-12 0 -16 -10 -16 -45z"/>
<path d="M112 4423 c4 -22 38 -30 38 -10 0 8 -7 18 -16 21 -23 9 -26 8 -22
-11z"/>
<path d="M100 4340 c0 -27 5 -50 10 -50 6 0 10 15 10 34 0 19 3 41 6 50 4 11
1 16 -10 16 -13 0 -16 -11 -16 -50z"/>
<path d="M143 4355 c-7 -19 5 -34 15 -18 4 6 16 11 26 10 10 -1 21 4 23 11 7
19 -56 16 -64 -3z"/>
<path d="M160 3975 c0 -44 1 -45 31 -45 l32 0 -6 -45 c-5 -34 -3 -45 7 -45 20
0 29 102 9 113 -12 7 -12 11 4 22 15 11 16 16 5 27 -11 11 -16 10 -28 -7 -8
-11 -12 -25 -10 -32 3 -7 -1 -13 -10 -13 -12 0 -13 8 -8 35 5 28 3 35 -10 35
-12 0 -16 -10 -16 -45z"/>
<path d="M112 3973 c4 -22 38 -30 38 -10 0 8 -7 18 -16 21 -23 9 -26 8 -22
-11z"/>
<path d="M100 3890 c0 -27 5 -50 10 -50 6 0 10 15 10 34 0 19 3 41 6 50 4 11
1 16 -10 16 -13 0 -16 -11 -16 -50z"/>
<path d="M144 3905 c-14 -35 37 -50 56 -16 15 29 13 31 -20 31 -18 0 -33 -6
-36 -15z"/>
<path d="M160 3525 c0 -44 1 -45 31 -45 l32 0 -6 -45 c-5 -34 -3 -45 7 -45 20
0 29 102 9 113 -12 7 -12 11 4 22 15 11 16 16 5 27 -11 11 -16 10 -28 -7 -8
-11 -12 -25 -10 -32 3 -7 -1 -13 -10 -13 -12 0 -13 8 -8 35 5 28 3 35 -10 35
-12 0 -16 -10 -16 -45z"/>
<path d="M270 3530 c-7 -17 -10 -34 -6 -38 9 -8 45 37 46 56 0 24 -28 11 -40
-18z"/>
<path d="M112 3523 c4 -22 38 -30 38 -10 0 8 -7 18 -16 21 -23 9 -26 8 -22
-11z"/>
<path d="M100 3440 c0 -27 5 -50 10 -50 6 0 10 15 10 34 0 19 3 41 6 50 4 11
1 16 -10 16 -13 0 -16 -11 -16 -50z"/>
<path d="M144 3455 c-14 -35 37 -50 56 -16 15 29 13 31 -20 31 -18 0 -33 -6
-36 -15z"/>
<path d="M160 3075 c0 -44 1 -45 31 -45 l32 0 -6 -45 c-5 -34 -3 -45 7 -45 20
0 29 102 9 113 -12 7 -12 11 4 22 15 11 16 16 5 27 -11 11 -16 10 -28 -7 -8
-11 -12 -25 -10 -32 3 -7 -1 -13 -10 -13 -12 0 -13 8 -8 35 5 28 3 35 -10 35
-12 0 -16 -10 -16 -45z"/>
<path d="M270 3080 c-7 -17 -10 -34 -6 -38 9 -8 45 37 46 56 0 24 -28 11 -40
-18z"/>
<path d="M112 3073 c4 -22 38 -30 38 -10 0 8 -7 18 -16 21 -23 9 -26 8 -22
-11z"/>
<path d="M318 3073 c-20 -5 -24 -23 -5 -23 24 0 57 12 57 21 0 9 -22 10 -52 2z"/>
<path d="M100 2990 c0 -27 5 -50 10 -50 6 0 10 15 10 34 0 19 3 41 6 50 4 11
1 16 -10 16 -13 0 -16 -11 -16 -50z"/>
<path d="M144 3005 c-14 -35 37 -50 56 -16 15 29 13 31 -20 31 -18 0 -33 -6
-36 -15z"/>
<path d="M160 2625 c0 -44 1 -45 31 -45 l32 0 -6 -45 c-5 -34 -3 -45 7 -45 20
0 29 102 9 113 -12 7 -12 11 4 22 15 11 16 16 5 27 -11 11 -16 10 -28 -7 -8
-11 -12 -25 -10 -32 3 -7 -1 -13 -10 -13 -12 0 -13 8 -8 35 5 28 3 35 -10 35
-12 0 -16 -10 -16 -45z"/>
<path d="M270 2630 c-7 -17 -10 -34 -6 -38 9 -8 45 37 46 56 0 24 -28 11 -40
-18z"/>
<path d="M112 2623 c4 -22 38 -30 38 -10 0 8 -7 18 -16 21 -23 9 -26 8 -22
-11z"/>
<path d="M318 2623 c-13 -3 -16 -11 -12 -33 5 -20 0 -34 -15 -49 -24 -24 -26
-31 -8 -31 21 0 46 33 53 68 4 18 13 32 20 32 8 0 14 5 14 10 0 10 -21 11 -52
3z"/>
<path d="M100 2540 c0 -27 5 -50 10 -50 6 0 10 15 10 34 0 19 3 41 6 50 4 11
1 16 -10 16 -13 0 -16 -11 -16 -50z"/>
<path d="M144 2555 c-14 -35 37 -50 56 -16 15 29 13 31 -20 31 -18 0 -33 -6
-36 -15z"/>
<path d="M160 2175 c0 -44 1 -45 31 -45 l32 0 -6 -45 c-5 -34 -3 -45 7 -45 20
0 29 102 9 113 -12 7 -12 11 4 22 15 11 16 16 5 27 -11 11 -16 10 -28 -7 -8
-11 -12 -25 -10 -32 3 -7 -1 -13 -10 -13 -12 0 -13 8 -8 35 5 28 3 35 -10 35
-12 0 -16 -10 -16 -45z"/>
<path d="M270 2180 c-7 -17 -10 -34 -6 -38 9 -8 45 37 46 56 0 24 -28 11 -40
-18z"/>
<path d="M112 2173 c4 -22 38 -30 38 -10 0 8 -7 18 -16 21 -23 9 -26 8 -22
-11z"/>
<path d="M318 2173 c-13 -3 -16 -11 -11 -35 6 -29 5 -31 -20 -24 -31 7 -35 -1
-9 -20 10 -8 12 -13 5 -14 -7 0 -13 -5 -13 -11 0 -6 9 -9 20 -6 10 3 24 -1 31
-9 13 -15 79 -19 79 -5 0 5 -13 12 -30 16 -16 4 -32 11 -35 16 -10 16 7 79 21
79 8 0 14 5 14 10 0 10 -21 11 -52 3z"/>
<path d="M100 2090 c0 -27 5 -50 10 -50 6 0 10 15 10 34 0 19 3 41 6 50 4 11
1 16 -10 16 -13 0 -16 -11 -16 -50z"/>
<path d="M144 2105 c-14 -35 37 -50 56 -16 15 29 13 31 -20 31 -18 0 -33 -6
-36 -15z"/>
<path d="M160 1725 c0 -43 1 -45 30 -45 30 0 31 0 28 -51 -3 -46 -5 -51 -30
-56 -16 -3 -28 -9 -28 -14 0 -12 8 -11 69 3 51 11 71 38 30 38 -20 0 -21 4
-16 49 5 40 3 51 -10 55 -14 6 -14 8 3 21 16 11 17 16 6 27 -11 11 -16 10 -28
-7 -8 -11 -12 -25 -10 -32 3 -7 -1 -13 -10 -13 -12 0 -13 8 -8 35 5 28 3 35
-10 35 -12 0 -16 -10 -16 -45z"/>
<path d="M270 1730 c-7 -17 -10 -34 -6 -38 9 -8 45 37 46 56 0 24 -28 11 -40
-18z"/>
<path d="M112 1723 c4 -22 38 -30 38 -10 0 8 -7 18 -16 21 -23 9 -26 8 -22
-11z"/>
<path d="M318 1723 c-13 -3 -16 -11 -11 -35 6 -29 5 -31 -20 -24 -31 7 -35 -1
-9 -20 10 -8 12 -13 5 -14 -7 0 -13 -5 -13 -11 0 -6 9 -9 20 -6 10 3 24 -1 31
-9 13 -15 79 -19 79 -5 0 5 -13 12 -30 16 -16 4 -32 11 -35 16 -10 16 7 79 21
79 8 0 14 5 14 10 0 10 -21 11 -52 3z"/>
<path d="M100 1640 c0 -27 5 -50 10 -50 6 0 10 15 10 34 0 19 3 41 6 50 4 11
1 16 -10 16 -13 0 -16 -11 -16 -50z"/>
<path d="M144 1655 c-14 -35 37 -50 56 -16 15 29 13 31 -20 31 -18 0 -33 -6
-36 -15z"/>
<path d="M160 1275 c0 -43 1 -45 30 -45 30 0 31 0 28 -51 -3 -46 -5 -51 -30
-56 -16 -3 -28 -9 -28 -14 0 -12 8 -11 69 3 51 11 71 38 30 38 -20 0 -21 4
-16 49 5 40 3 51 -10 55 -14 6 -14 8 3 21 16 11 17 16 6 27 -11 11 -16 10 -28
-7 -8 -11 -12 -25 -10 -32 3 -7 -1 -13 -10 -13 -12 0 -13 8 -8 35 5 28 3 35
-10 35 -12 0 -16 -10 -16 -45z"/>
<path d="M270 1280 c-7 -17 -10 -34 -6 -38 9 -8 45 37 46 56 0 24 -28 11 -40
-18z"/>
<path d="M112 1273 c4 -22 38 -30 38 -10 0 8 -7 18 -16 21 -23 9 -26 8 -22
-11z"/>
<path d="M318 1273 c-13 -3 -16 -11 -11 -35 6 -29 5 -31 -20 -24 -31 7 -35 -1
-9 -20 10 -8 12 -13 5 -14 -7 0 -13 -5 -13 -11 0 -6 9 -9 20 -6 10 3 24 -1 31
-9 13 -15 79 -19 79 -5 0 5 -13 12 -30 16 -16 4 -32 11 -35 16 -10 16 7 79 21
79 8 0 14 5 14 10 0 10 -21 11 -52 3z"/>
<path d="M100 1190 c0 -27 5 -50 10 -50 6 0 10 15 10 34 0 19 3 41 6 50 4 11
1 16 -10 16 -13 0 -16 -11 -16 -50z"/>
<path d="M144 1205 c-14 -35 37 -50 56 -16 15 29 13 31 -20 31 -18 0 -33 -6
-36 -15z"/>
<path d="M213 1097 c-55 -10 -72 -27 -28 -27 40 0 125 21 125 31 0 11 -27 10
-97 -4z"/>
<path d="M160 825 c0 -43 1 -45 30 -45 30 0 31 0 28 -51 -3 -46 -5 -51 -30
-56 -16 -3 -28 -9 -28 -14 0 -12 8 -11 69 3 51 11 71 38 30 38 -20 0 -21 4
-16 49 5 40 3 51 -10 55 -14 6 -14 8 3 21 16 11 17 16 6 27 -11 11 -16 10 -28
-7 -8 -11 -12 -25 -10 -32 3 -7 -1 -13 -10 -13 -12 0 -13 8 -8 35 5 28 3 35
-10 35 -12 0 -16 -10 -16 -45z"/>
<path d="M270 830 c-7 -17 -10 -34 -6 -38 9 -8 45 37 46 56 0 24 -28 11 -40
-18z"/>
<path d="M112 823 c4 -22 38 -30 38 -10 0 8 -7 18 -16 21 -23 9 -26 8 -22 -11z"/>
<path d="M318 823 c-13 -3 -16 -11 -11 -35 6 -29 5 -31 -20 -24 -31 7 -35 -1
-9 -20 10 -8 12 -13 5 -14 -7 0 -13 -5 -13 -11 0 -6 9 -9 20 -6 10 3 24 -1 31
-9 13 -15 79 -19 79 -5 0 5 -13 12 -30 16 -16 4 -32 11 -35 16 -10 16 7 79 21
79 8 0 14 5 14 10 0 10 -21 11 -52 3z"/>
<path d="M100 740 c0 -27 5 -50 10 -50 6 0 10 15 10 34 0 19 3 41 6 50 4 11 1
16 -10 16 -13 0 -16 -11 -16 -50z"/>
<path d="M144 755 c-14 -35 37 -50 56 -16 15 29 13 31 -20 31 -18 0 -33 -6
-36 -15z"/>
<path d="M213 647 c-55 -10 -72 -27 -28 -27 40 0 125 21 125 31 0 11 -27 10
-97 -4z"/>
<path d="M186 604 c-78 -13 -95 -19 -83 -30 8 -8 237 28 237 38 0 11 -60 8
-154 -8z"/>
<path d="M160 375 c0 -43 1 -45 30 -45 30 0 31 0 28 -51 -3 -46 -5 -51 -30
-56 -16 -3 -28 -9 -28 -14 0 -4 12 -10 28 -12 l27 -4 -27 -2 c-35 -1 -37 -21
-2 -21 14 0 23 -4 19 -10 -3 -5 -18 -10 -33 -10 -38 0 -72 -11 -72 -22 0 -7
20 -8 55 -3 51 6 55 5 55 -14 0 -28 29 -41 90 -41 45 0 120 21 120 34 0 3 -5
17 -12 31 -12 27 -28 33 -28 11 0 -23 -41 -46 -81 -46 -86 0 -97 35 -14 45 73
10 73 30 0 22 -60 -6 -67 7 -10 17 51 10 45 30 -6 22 -26 -4 -38 -3 -34 4 3 5
15 10 26 10 10 0 19 7 19 15 0 9 -9 15 -21 15 -20 0 -21 4 -16 49 5 40 3 51
-10 55 -14 6 -14 8 3 21 16 11 17 16 6 27 -11 11 -16 10 -28 -7 -8 -11 -12
-25 -10 -32 3 -7 -1 -13 -10 -13 -12 0 -13 8 -8 35 5 28 3 35 -10 35 -12 0
-16 -10 -16 -45z"/>
<path d="M270 380 c-7 -17 -10 -34 -6 -38 9 -8 45 37 46 56 0 24 -28 11 -40
-18z"/>
<path d="M112 373 c4 -22 38 -30 38 -10 0 8 -7 18 -16 21 -23 9 -26 8 -22 -11z"/>
<path d="M318 373 c-13 -3 -16 -11 -11 -35 6 -29 5 -31 -20 -24 -31 7 -35 -1
-9 -20 10 -8 12 -13 5 -14 -7 0 -13 -5 -13 -11 0 -6 9 -9 20 -6 10 3 24 -1 31
-9 13 -15 79 -19 79 -5 0 5 -13 12 -30 16 -16 4 -32 11 -35 16 -10 16 7 79 21
79 8 0 14 5 14 10 0 10 -21 11 -52 3z"/>
<path d="M100 290 c0 -27 5 -50 10 -50 6 0 10 15 10 34 0 19 3 41 6 50 4 11 1
16 -10 16 -13 0 -16 -11 -16 -50z"/>
<path d="M144 305 c-14 -35 37 -50 56 -16 15 29 13 31 -20 31 -18 0 -33 -6
-36 -15z"/>
</g>
</svg>
