<?xml version="1.0" standalone="no"?>
<!DOCTYPE svg PUBLIC "-//W3C//DTD SVG 20010904//EN"
 "http://www.w3.org/TR/2001/REC-SVG-20010904/DTD/svg10.dtd">
<svg version="1.0" xmlns="http://www.w3.org/2000/svg"
 width="50.000000pt" height="725.000000pt" viewBox="0 0 50.000000 725.000000"
 preserveAspectRatio="xMidYMid meet">
<metadata>
Created by potrace 1.16, written by Peter Selinger 2001-2019
</metadata>
<g transform="translate(0.000000,725.000000) scale(0.100000,-0.100000)"
fill="#000000" stroke="none">
<path d="M203 7077 c-29 -5 -53 -14 -53 -18 0 -20 151 -2 158 19 4 14 -28 14
-105 -1z"/>
<path d="M220 6676 c0 -45 -10 -56 -51 -56 -10 0 -19 -4 -19 -10 0 -5 16 -10
35 -10 l35 0 0 -90 c0 -83 -1 -90 -20 -90 -11 0 -20 -4 -20 -8 0 -17 39 -44
55 -39 12 5 15 27 15 121 l0 115 27 3 c38 4 42 28 5 28 -29 0 -30 1 -25 40 5
36 3 40 -16 40 -18 0 -21 -6 -21 -44z"/>
<path d="M220 6226 c0 -45 -10 -56 -51 -56 -10 0 -19 -4 -19 -10 0 -5 16 -10
35 -10 l35 0 0 -90 c0 -83 -1 -90 -20 -90 -11 0 -20 -4 -20 -8 0 -17 39 -44
55 -39 12 5 15 27 15 121 l0 115 27 3 c38 4 42 28 5 28 -29 0 -30 1 -25 40 5
36 3 40 -16 40 -18 0 -21 -6 -21 -44z"/>
<path d="M140 6110 c0 -9 31 -30 44 -30 3 0 6 9 6 20 0 15 -7 20 -25 20 -14 0
-25 -4 -25 -10z"/>
<path d="M220 5776 c0 -45 -10 -56 -51 -56 -10 0 -19 -4 -19 -10 0 -5 16 -10
35 -10 l35 0 0 -90 c0 -83 -1 -90 -20 -90 -11 0 -20 -4 -20 -8 0 -17 39 -44
55 -39 12 5 15 27 15 121 l0 115 27 3 c38 4 42 28 5 28 -29 0 -30 1 -25 40 5
36 3 40 -16 40 -18 0 -21 -6 -21 -44z"/>
<path d="M140 5660 c0 -9 31 -30 44 -30 3 0 6 9 6 20 0 15 -7 20 -25 20 -14 0
-25 -4 -25 -10z"/>
<path d="M143 5594 c-52 -25 -71 -54 -35 -54 19 0 102 59 102 72 0 12 -9 9
-67 -18z"/>
<path d="M220 5326 c0 -45 -10 -56 -51 -56 -10 0 -19 -4 -19 -10 0 -5 16 -10
35 -10 l35 0 0 -90 c0 -83 -1 -90 -20 -90 -11 0 -20 -4 -20 -8 0 -17 39 -44
55 -39 12 5 15 27 15 121 l0 115 27 3 c38 4 42 28 5 28 -29 0 -30 1 -25 40 5
36 3 40 -16 40 -18 0 -21 -6 -21 -44z"/>
<path d="M290 5225 c-13 -14 -21 -27 -18 -31 11 -10 78 25 78 40 0 24 -34 19
-60 -9z"/>
<path d="M140 5210 c0 -9 31 -30 44 -30 3 0 6 9 6 20 0 15 -7 20 -25 20 -14 0
-25 -4 -25 -10z"/>
<path d="M143 5144 c-52 -25 -71 -54 -35 -54 19 0 102 59 102 72 0 12 -9 9
-67 -18z"/>
<path d="M220 4876 c0 -45 -10 -56 -51 -56 -10 0 -19 -4 -19 -10 0 -5 16 -10
35 -10 l35 0 0 -90 c0 -83 -1 -90 -20 -90 -25 0 -25 -12 0 -35 35 -32 50 -13
50 65 l0 71 48 -51 c45 -50 49 -51 81 -43 46 12 50 29 8 37 -19 4 -54 21 -78
38 l-43 31 42 18 c23 10 42 25 42 34 0 23 -34 18 -60 -10 -31 -33 -40 -32 -40
4 0 25 5 30 27 33 38 4 42 28 5 28 -29 0 -30 1 -25 40 5 36 3 40 -16 40 -18 0
-21 -6 -21 -44z"/>
<path d="M140 4760 c0 -9 31 -30 44 -30 3 0 6 9 6 20 0 15 -7 20 -25 20 -14 0
-25 -4 -25 -10z"/>
<path d="M143 4694 c-52 -25 -71 -54 -35 -54 19 0 102 59 102 72 0 12 -9 9
-67 -18z"/>
<path d="M220 4426 c0 -45 -10 -56 -51 -56 -10 0 -19 -4 -19 -10 0 -5 16 -10
35 -10 l35 0 0 -90 c0 -83 -1 -90 -20 -90 -25 0 -25 -12 0 -35 35 -32 50 -13
50 65 l0 71 48 -51 c45 -50 49 -51 81 -43 46 12 50 29 8 37 -19 4 -54 21 -78
38 l-43 31 42 18 c23 10 42 25 42 34 0 23 -34 18 -60 -10 -31 -33 -40 -32 -40
4 0 25 5 30 27 33 38 4 42 28 5 28 -29 0 -30 1 -25 40 5 36 3 40 -16 40 -18 0
-21 -6 -21 -44z"/>
<path d="M290 4431 c0 -11 39 -41 52 -41 15 0 8 38 -8 44 -23 9 -44 7 -44 -3z"/>
<path d="M140 4310 c0 -9 31 -30 44 -30 3 0 6 9 6 20 0 15 -7 20 -25 20 -14 0
-25 -4 -25 -10z"/>
<path d="M143 4244 c-52 -25 -71 -54 -35 -54 19 0 102 59 102 72 0 12 -9 9
-67 -18z"/>
</g>
</svg>
