<?xml version="1.0" standalone="no"?>
<!DOCTYPE svg PUBLIC "-//W3C//DTD SVG 20010904//EN"
 "http://www.w3.org/TR/2001/REC-SVG-20010904/DTD/svg10.dtd">
<svg version="1.0" xmlns="http://www.w3.org/2000/svg"
 width="50.000000pt" height="725.000000pt" viewBox="0 0 50.000000 725.000000"
 preserveAspectRatio="xMidYMid meet">
<metadata>
Created by potrace 1.16, written by Peter Selinger 2001-2019
</metadata>
<g transform="translate(0.000000,725.000000) scale(0.100000,-0.100000)"
fill="#000000" stroke="none">
<path d="M130 7122 c0 -14 23 -32 42 -32 21 0 23 11 6 28 -13 13 -48 16 -48 4z"/>
<path d="M130 6672 c0 -14 23 -32 42 -32 21 0 23 11 6 28 -13 13 -48 16 -48 4z"/>
<path d="M90 6605 c0 -3 5 -15 10 -26 14 -25 40 -25 40 1 0 11 -4 20 -9 20 -5
0 -16 3 -25 6 -9 3 -16 3 -16 -1z"/>
<path d="M130 6222 c0 -14 23 -32 42 -32 21 0 23 11 6 28 -13 13 -48 16 -48 4z"/>
<path d="M90 6155 c0 -3 5 -15 10 -26 14 -25 40 -25 40 1 0 11 -4 20 -9 20 -5
0 -16 3 -25 6 -9 3 -16 3 -16 -1z"/>
<path d="M122 6040 c-33 -38 -39 -69 -15 -77 8 -3 63 94 63 113 0 12 -19 -2
-48 -36z"/>
<path d="M130 5772 c0 -14 23 -32 42 -32 21 0 23 11 6 28 -13 13 -48 16 -48 4z"/>
<path d="M263 5757 c-35 -7 -53 -16 -53 -25 0 -10 7 -12 23 -8 12 4 37 9 55
13 32 6 33 5 26 -23 -14 -60 -47 -115 -87 -144 -22 -16 -45 -31 -51 -33 -6 -2
-8 -8 -4 -12 9 -9 90 30 112 54 19 21 76 154 76 177 0 16 -20 16 -97 1z"/>
<path d="M90 5705 c0 -3 5 -15 10 -26 14 -25 40 -25 40 1 0 11 -4 20 -9 20 -5
0 -16 3 -25 6 -9 3 -16 3 -16 -1z"/>
<path d="M122 5590 c-33 -38 -39 -69 -15 -77 8 -3 63 94 63 113 0 12 -19 -2
-48 -36z"/>
<path d="M130 5322 c0 -14 23 -32 42 -32 21 0 23 11 6 28 -13 13 -48 16 -48 4z"/>
<path d="M263 5307 c-35 -7 -53 -16 -53 -25 0 -10 7 -12 23 -8 12 4 37 10 56
13 37 7 37 8 8 -74 l-11 -32 -38 34 c-35 32 -58 44 -58 30 0 -3 18 -25 40 -48
l41 -42 -33 -27 c-18 -15 -41 -30 -50 -33 -10 -4 -18 -11 -18 -16 0 -14 38 -2
81 26 l36 23 27 -34 c26 -33 54 -42 90 -28 19 7 21 24 3 24 -7 0 -34 13 -59
29 l-46 30 29 71 c44 109 44 109 -68 87z"/>
<path d="M90 5255 c0 -3 5 -15 10 -26 14 -25 40 -25 40 1 0 11 -4 20 -9 20 -5
0 -16 3 -25 6 -9 3 -16 3 -16 -1z"/>
<path d="M122 5140 c-33 -38 -39 -69 -15 -77 8 -3 63 94 63 113 0 12 -19 -2
-48 -36z"/>
<path d="M130 4872 c0 -14 23 -32 42 -32 21 0 23 11 6 28 -13 13 -48 16 -48 4z"/>
<path d="M263 4857 c-35 -7 -53 -16 -53 -25 0 -10 7 -12 23 -8 12 4 37 10 56
13 37 7 37 8 8 -74 l-11 -32 -38 34 c-35 32 -58 44 -58 30 0 -3 18 -25 40 -48
l41 -42 -33 -27 c-18 -15 -41 -30 -50 -33 -10 -4 -18 -11 -18 -16 0 -14 38 -2
81 26 l36 23 27 -34 c26 -33 54 -42 90 -28 19 7 21 24 3 24 -7 0 -34 13 -59
29 l-46 30 29 71 c44 109 44 109 -68 87z"/>
<path d="M244 4804 c3 -9 6 -18 6 -20 0 -2 9 -4 20 -4 23 0 26 10 8 28 -18 18
-41 15 -34 -4z"/>
<path d="M90 4805 c0 -3 5 -15 10 -26 14 -25 40 -25 40 1 0 11 -4 20 -9 20 -5
0 -16 3 -25 6 -9 3 -16 3 -16 -1z"/>
<path d="M122 4690 c-33 -38 -39 -69 -15 -77 8 -3 63 94 63 113 0 12 -19 -2
-48 -36z"/>
</g>
</svg>
