<?xml version="1.0" standalone="no"?>
<!DOCTYPE svg PUBLIC "-//W3C//DTD SVG 20010904//EN"
 "http://www.w3.org/TR/2001/REC-SVG-20010904/DTD/svg10.dtd">
<svg version="1.0" xmlns="http://www.w3.org/2000/svg"
 width="50.000000pt" height="725.000000pt" viewBox="0 0 50.000000 725.000000"
 preserveAspectRatio="xMidYMid meet">
<metadata>
Created by potrace 1.16, written by Peter Selinger 2001-2019
</metadata>
<g transform="translate(0.000000,725.000000) scale(0.100000,-0.100000)"
fill="#000000" stroke="none">
<path d="M130 7144 c0 -16 23 -44 35 -44 20 0 19 36 -1 44 -20 8 -34 8 -34 0z"/>
<path d="M130 6694 c0 -16 23 -44 35 -44 20 0 19 36 -1 44 -20 8 -34 8 -34 0z"/>
<path d="M100 6611 c0 -13 28 -41 41 -41 6 0 9 10 7 23 -3 22 -48 40 -48 18z"/>
<path d="M130 6244 c0 -16 23 -44 35 -44 20 0 19 36 -1 44 -20 8 -34 8 -34 0z"/>
<path d="M100 6161 c0 -13 28 -41 41 -41 6 0 9 10 7 23 -3 22 -48 40 -48 18z"/>
<path d="M132 6053 c-32 -43 -39 -83 -16 -90 8 -3 64 112 64 132 0 15 -19 -2
-48 -42z"/>
<path d="M130 5794 c0 -16 23 -44 35 -44 20 0 19 36 -1 44 -20 8 -34 8 -34 0z"/>
<path d="M295 5790 c-11 -5 -32 -9 -47 -9 -16 -1 -28 -5 -28 -11 0 -11 37 -13
93 -4 22 4 37 12 37 20 0 16 -24 17 -55 4z"/>
<path d="M100 5711 c0 -13 28 -41 41 -41 22 0 4 45 -18 48 -13 2 -23 -1 -23
-7z"/>
<path d="M132 5603 c-32 -43 -39 -83 -16 -90 8 -3 64 112 64 132 0 15 -19 -2
-48 -42z"/>
<path d="M130 5344 c0 -16 23 -44 35 -44 20 0 19 36 -1 44 -20 8 -34 8 -34 0z"/>
<path d="M295 5340 c-11 -5 -32 -9 -47 -9 -16 -1 -28 -5 -28 -11 0 -11 37 -13
93 -4 22 4 37 12 37 20 0 16 -24 17 -55 4z"/>
<path d="M273 5273 c-51 -9 -93 -20 -93 -26 0 -6 17 -7 48 -3 26 4 78 10 115
13 43 4 66 10 64 17 -5 16 -30 16 -134 -1z"/>
<path d="M100 5261 c0 -13 28 -41 41 -41 6 0 9 10 7 23 -3 22 -48 40 -48 18z"/>
<path d="M132 5153 c-32 -43 -39 -83 -16 -90 8 -3 64 112 64 132 0 15 -19 -2
-48 -42z"/>
<path d="M130 4894 c0 -16 23 -44 35 -44 20 0 19 36 -1 44 -20 8 -34 8 -34 0z"/>
<path d="M295 4890 c-11 -5 -32 -9 -47 -9 -16 -1 -28 -5 -28 -11 0 -11 37 -13
93 -4 22 4 37 12 37 20 0 16 -24 17 -55 4z"/>
<path d="M273 4823 c-90 -15 -125 -33 -63 -33 31 0 39 -17 18 -38 -21 -21 4
-33 45 -20 49 15 59 4 45 -50 -9 -35 -15 -42 -34 -42 -27 0 -29 -7 -10 -32 28
-38 57 -9 79 77 8 33 13 63 10 67 -2 5 -24 8 -49 8 -24 0 -44 3 -44 8 1 24 24
36 80 40 39 3 60 8 57 16 -5 16 -30 16 -134 -1z"/>
<path d="M100 4811 c0 -13 28 -41 41 -41 6 0 9 10 7 23 -3 22 -48 40 -48 18z"/>
<path d="M132 4703 c-32 -43 -39 -83 -16 -90 8 -3 64 112 64 132 0 15 -19 -2
-48 -42z"/>
</g>
</svg>
