<?xml version="1.0" standalone="no"?>
<!DOCTYPE svg PUBLIC "-//W3C//DTD SVG 20010904//EN"
 "http://www.w3.org/TR/2001/REC-SVG-20010904/DTD/svg10.dtd">
<svg version="1.0" xmlns="http://www.w3.org/2000/svg"
 width="50.000000pt" height="725.000000pt" viewBox="0 0 50.000000 725.000000"
 preserveAspectRatio="xMidYMid meet">
<metadata>
Created by potrace 1.16, written by Peter Selinger 2001-2019
</metadata>
<g transform="translate(0.000000,725.000000) scale(0.100000,-0.100000)"
fill="#000000" stroke="none">
<path d="M150 7122 c0 -10 33 -42 44 -42 4 0 6 10 4 23 -2 14 -11 23 -25 25
-13 2 -23 -1 -23 -6z"/>
<path d="M150 6672 c0 -10 33 -42 44 -42 4 0 6 10 4 23 -2 14 -11 23 -25 25
-13 2 -23 -1 -23 -6z"/>
<path d="M100 6592 c0 -12 34 -42 48 -42 19 0 14 28 -7 40 -24 12 -41 13 -41
2z"/>
<path d="M150 6222 c0 -10 33 -42 44 -42 4 0 6 10 4 23 -2 14 -11 23 -25 25
-13 2 -23 -1 -23 -6z"/>
<path d="M100 6142 c0 -12 34 -42 48 -42 19 0 14 28 -7 40 -24 12 -41 13 -41
2z"/>
<path d="M180 6092 c0 -5 -16 -27 -36 -50 -25 -30 -34 -48 -29 -62 14 -45 30
-24 82 108 3 6 0 12 -6 12 -6 0 -11 -4 -11 -8z"/>
<path d="M150 5772 c0 -10 33 -42 44 -42 4 0 6 10 4 23 -2 14 -11 23 -25 25
-13 2 -23 -1 -23 -6z"/>
<path d="M210 5630 c0 -92 12 -120 24 -52 12 72 7 142 -9 142 -12 0 -15 -17
-15 -90z"/>
<path d="M100 5692 c0 -12 34 -42 48 -42 19 0 14 28 -7 40 -24 12 -41 13 -41
2z"/>
<path d="M180 5642 c0 -5 -16 -27 -36 -50 -25 -30 -34 -48 -29 -62 14 -45 30
-24 82 108 3 6 0 12 -6 12 -6 0 -11 -4 -11 -8z"/>
<path d="M150 5322 c0 -10 33 -42 44 -42 4 0 6 10 4 23 -2 14 -11 23 -25 25
-13 2 -23 -1 -23 -6z"/>
<path d="M343 5293 c-31 -6 -29 -23 2 -23 24 0 25 -2 25 -69 0 -40 -5 -71 -11
-73 -16 -5 2 -39 20 -36 13 3 17 21 21 93 3 50 2 96 -3 103 -10 12 -14 13 -54
5z"/>
<path d="M238 5273 l-28 -4 0 -90 c0 -49 4 -89 9 -89 10 0 21 59 21 116 0 43
10 54 51 54 10 0 19 5 19 10 0 10 -20 11 -72 3z"/>
<path d="M100 5242 c0 -12 34 -42 48 -42 19 0 14 28 -7 40 -24 12 -41 13 -41
2z"/>
<path d="M180 5192 c0 -5 -16 -27 -36 -50 -25 -30 -34 -48 -29 -62 14 -45 30
-24 82 108 3 6 0 12 -6 12 -6 0 -11 -4 -11 -8z"/>
<path d="M150 4872 c0 -10 33 -42 44 -42 4 0 6 10 4 23 -2 14 -11 23 -25 25
-13 2 -23 -1 -23 -6z"/>
<path d="M343 4843 c-31 -6 -29 -23 2 -23 24 0 25 -2 25 -69 0 -40 -5 -71 -11
-73 -16 -5 2 -39 20 -36 13 3 17 21 21 93 3 50 2 96 -3 103 -10 12 -14 13 -54
5z"/>
<path d="M238 4823 l-28 -4 0 -90 c0 -94 13 -119 24 -45 l7 44 59 7 c43 5 60
11 60 22 0 9 -7 13 -17 9 -10 -2 -37 -8 -60 -11 -41 -6 -43 -6 -43 18 0 25 16
37 51 37 10 0 19 5 19 10 0 10 -20 11 -72 3z"/>
<path d="M100 4792 c0 -12 34 -42 48 -42 19 0 14 28 -7 40 -24 12 -41 13 -41
2z"/>
<path d="M180 4742 c0 -5 -16 -27 -36 -50 -25 -30 -34 -48 -29 -62 14 -45 30
-24 82 108 3 6 0 12 -6 12 -6 0 -11 -4 -11 -8z"/>
<path d="M150 4422 c0 -10 33 -42 44 -42 4 0 6 10 4 23 -2 14 -11 23 -25 25
-13 2 -23 -1 -23 -6z"/>
<path d="M343 4393 c-31 -6 -29 -23 2 -23 24 0 25 -2 25 -67 l0 -68 -48 -3
c-26 -2 -54 -4 -62 -5 -16 -2 -20 3 -20 32 0 16 10 20 60 26 43 5 60 11 60 22
0 9 -7 13 -17 9 -10 -2 -37 -8 -60 -11 -41 -6 -43 -6 -43 18 0 25 16 37 51 37
10 0 19 5 19 11 0 8 -13 10 -37 5 -21 -3 -44 -6 -50 -6 -10 0 -13 -25 -13 -91
0 -81 2 -90 17 -85 9 4 43 9 75 13 42 4 58 3 58 -6 0 -7 8 -11 18 -9 14 3 18
18 22 93 3 50 2 96 -3 103 -10 12 -14 13 -54 5z"/>
<path d="M100 4342 c0 -12 34 -42 48 -42 19 0 14 28 -7 40 -24 12 -41 13 -41
2z"/>
<path d="M180 4292 c0 -5 -16 -27 -36 -50 -25 -30 -34 -48 -29 -62 14 -45 30
-24 82 108 3 6 0 12 -6 12 -6 0 -11 -4 -11 -8z"/>
</g>
</svg>
