<?xml version="1.0" standalone="no"?>
<!DOCTYPE svg PUBLIC "-//W3C//DTD SVG 20010904//EN"
 "http://www.w3.org/TR/2001/REC-SVG-20010904/DTD/svg10.dtd">
<svg version="1.0" xmlns="http://www.w3.org/2000/svg"
 width="50.000000pt" height="725.000000pt" viewBox="0 0 50.000000 725.000000"
 preserveAspectRatio="xMidYMid meet">
<metadata>
Created by potrace 1.16, written by Peter Selinger 2001-2019
</metadata>
<g transform="translate(0.000000,725.000000) scale(0.100000,-0.100000)"
fill="#000000" stroke="none">
<path d="M228 7095 c4 -64 2 -75 -12 -75 -9 0 -16 -4 -16 -9 0 -16 29 -33 45
-27 23 8 18 179 -5 184 -13 2 -15 -9 -12 -73z"/>
<path d="M228 6645 c4 -64 2 -75 -12 -75 -9 0 -16 -4 -16 -9 0 -16 29 -33 45
-27 23 8 18 179 -5 184 -13 2 -15 -9 -12 -73z"/>
<path d="M143 6647 c-52 -13 -57 -31 -8 -25 19 2 35 1 35 -3 0 -4 -16 -24 -35
-45 -19 -20 -33 -39 -31 -41 11 -12 48 12 81 53 30 36 35 47 25 59 -7 8 -15
14 -19 14 -3 -1 -25 -7 -48 -12z"/>
<path d="M228 6195 c4 -64 2 -75 -12 -75 -20 0 -21 -14 -1 -30 26 -22 44 -4
47 46 3 46 4 48 46 63 42 15 51 33 18 39 -10 2 -28 -6 -41 -18 l-24 -22 -3 33
c-2 21 -9 35 -18 37 -13 2 -15 -9 -12 -73z"/>
<path d="M143 6197 c-52 -13 -57 -31 -8 -25 19 2 35 1 35 -3 0 -4 -16 -24 -35
-45 -19 -20 -33 -39 -31 -41 11 -12 48 12 81 53 30 36 35 47 25 59 -7 8 -15
14 -19 14 -3 -1 -25 -7 -48 -12z"/>
<path d="M228 5745 c4 -64 2 -75 -12 -75 -20 0 -21 -14 -1 -30 25 -21 45 -4
45 37 l0 37 39 -38 c31 -31 44 -37 71 -34 35 3 55 28 23 28 -10 0 -43 14 -73
32 l-55 31 43 16 c42 15 51 33 18 39 -10 2 -28 -6 -41 -18 l-24 -22 -3 33 c-2
21 -9 35 -18 37 -13 2 -15 -9 -12 -73z"/>
<path d="M143 5747 c-52 -13 -57 -31 -8 -25 19 2 35 1 35 -3 0 -4 -16 -24 -35
-45 -19 -20 -33 -39 -31 -41 11 -12 48 12 81 53 30 36 35 47 25 59 -7 8 -15
14 -19 14 -3 -1 -25 -7 -48 -12z"/>
<path d="M228 5295 c4 -64 2 -75 -12 -75 -20 0 -21 -14 -1 -30 25 -21 45 -4
45 37 l0 37 39 -38 c31 -31 44 -37 71 -34 35 3 55 28 23 28 -10 0 -43 14 -73
32 l-55 31 43 16 c42 15 51 33 18 39 -10 2 -28 -6 -41 -18 l-24 -22 -3 33 c-2
21 -9 35 -18 37 -13 2 -15 -9 -12 -73z"/>
<path d="M143 5297 c-52 -13 -57 -31 -8 -25 19 2 35 1 35 -3 0 -4 -16 -24 -35
-45 -19 -20 -33 -39 -31 -41 11 -12 48 12 81 53 30 36 35 47 25 59 -7 8 -15
14 -19 14 -3 -1 -25 -7 -48 -12z"/>
<path d="M154 5139 c3 -17 6 -49 6 -70 0 -29 4 -39 16 -39 13 0 15 7 10 31 -3
17 -6 49 -6 70 0 29 -4 39 -16 39 -13 0 -15 -7 -10 -31z"/>
<path d="M228 4845 c4 -64 2 -75 -12 -75 -20 0 -21 -14 -1 -30 25 -21 45 -4
45 37 l0 37 39 -38 c31 -31 44 -37 71 -34 35 3 55 28 23 28 -10 0 -43 14 -73
32 l-55 31 43 16 c42 15 51 33 18 39 -10 2 -28 -6 -41 -18 l-24 -22 -3 33 c-2
21 -9 35 -18 37 -13 2 -15 -9 -12 -73z"/>
<path d="M143 4847 c-52 -13 -57 -31 -8 -25 19 2 35 1 35 -3 0 -4 -16 -24 -35
-45 -19 -20 -33 -39 -31 -41 11 -12 48 12 81 53 30 36 35 47 25 59 -7 8 -15
14 -19 14 -3 -1 -25 -7 -48 -12z"/>
<path d="M211 4723 l-63 -4 6 -31 c3 -17 6 -48 6 -69 0 -28 4 -39 15 -39 12 0
14 10 9 55 -7 61 -9 60 69 69 l47 6 0 -45 c0 -25 -5 -45 -11 -45 -14 0 -7 -42
8 -47 18 -6 31 28 35 92 l3 60 -30 1 c-16 0 -59 -1 -94 -3z"/>
<path d="M228 4395 c4 -64 2 -75 -12 -75 -20 0 -21 -14 -1 -30 25 -21 45 -4
45 37 l0 37 39 -38 c31 -31 44 -37 71 -34 35 3 55 28 23 28 -10 0 -43 14 -73
32 l-55 31 43 16 c42 15 51 33 18 39 -10 2 -28 -6 -41 -18 l-24 -22 -3 33 c-2
21 -9 35 -18 37 -13 2 -15 -9 -12 -73z"/>
<path d="M143 4397 c-52 -13 -57 -31 -8 -25 19 2 35 1 35 -3 0 -4 -16 -24 -35
-45 -19 -20 -33 -39 -31 -41 11 -12 48 12 81 53 30 36 35 47 25 59 -7 8 -15
14 -19 14 -3 -1 -25 -7 -48 -12z"/>
<path d="M211 4273 l-63 -4 6 -31 c3 -17 6 -48 6 -69 0 -29 4 -39 16 -39 11 0
14 8 12 33 l-3 32 58 5 c50 5 57 3 57 -12 0 -10 -5 -18 -11 -18 -14 0 -7 -42
8 -47 18 -6 31 28 35 92 l3 60 -30 1 c-16 0 -59 -1 -94 -3z m89 -27 c0 -8 -15
-16 -37 -20 -60 -9 -85 -7 -81 7 4 10 29 16 106 25 6 1 12 -4 12 -12z"/>
<path d="M228 3945 c4 -64 2 -75 -12 -75 -20 0 -21 -14 -1 -30 25 -21 45 -4
45 37 l0 37 39 -38 c31 -31 44 -37 71 -34 35 3 55 28 23 28 -10 0 -43 14 -73
32 l-55 31 43 16 c42 15 51 33 18 39 -10 2 -28 -6 -41 -18 l-24 -22 -3 33 c-2
21 -9 35 -18 37 -13 2 -15 -9 -12 -73z"/>
<path d="M143 3947 c-52 -13 -57 -31 -8 -25 19 2 35 1 35 -3 0 -4 -16 -24 -35
-45 -19 -20 -33 -39 -31 -41 11 -12 48 12 81 53 30 36 35 47 25 59 -7 8 -15
14 -19 14 -3 -1 -25 -7 -48 -12z"/>
<path d="M213 3823 l-62 -4 6 -67 c3 -37 7 -68 8 -70 1 -1 25 3 54 10 47 10
53 10 66 -8 14 -18 16 -18 29 -1 14 18 30 122 21 138 -4 5 -18 8 -33 7 -15 -1
-55 -3 -89 -5z m87 -27 c0 -8 -15 -16 -37 -20 -60 -9 -85 -7 -81 7 4 10 29 16
106 25 6 1 12 -4 12 -12z m-2 -71 c-1 -2 -28 -5 -58 -6 -43 -2 -55 0 -55 11 0
21 108 31 113 12 2 -8 2 -15 0 -17z"/>
</g>
</svg>
