<?xml version="1.0" standalone="no"?>
<!DOCTYPE svg PUBLIC "-//W3C//DTD SVG 20010904//EN"
 "http://www.w3.org/TR/2001/REC-SVG-20010904/DTD/svg10.dtd">
<svg version="1.0" xmlns="http://www.w3.org/2000/svg"
 width="50.000000pt" height="725.000000pt" viewBox="0 0 50.000000 725.000000"
 preserveAspectRatio="xMidYMid meet">
<metadata>
Created by potrace 1.16, written by Peter Selinger 2001-2019
</metadata>
<g transform="translate(0.000000,725.000000) scale(0.100000,-0.100000)"
fill="#000000" stroke="none">
<path d="M120 7117 c0 -17 20 -37 37 -37 20 0 15 28 -6 40 -26 13 -31 13 -31
-3z"/>
<path d="M120 6667 c0 -17 20 -37 37 -37 20 0 15 28 -6 40 -26 13 -31 13 -31
-3z"/>
<path d="M94 6575 c3 -9 6 -19 6 -21 0 -2 9 -4 21 -4 29 0 21 34 -10 38 -19 3
-22 0 -17 -13z"/>
<path d="M120 6217 c0 -17 20 -37 37 -37 20 0 15 28 -6 40 -26 13 -31 13 -31
-3z"/>
<path d="M94 6125 c3 -9 6 -19 6 -21 0 -2 9 -4 21 -4 29 0 21 34 -10 38 -19 3
-22 0 -17 -13z"/>
<path d="M112 6040 c-20 -25 -32 -49 -30 -62 6 -40 24 -29 49 29 13 32 26 61
27 65 9 21 -17 3 -46 -32z"/>
<path d="M120 5767 c0 -17 20 -37 37 -37 20 0 15 28 -6 40 -26 13 -31 13 -31
-3z"/>
<path d="M243 5733 c-82 -17 -102 -40 -25 -29 26 4 71 10 100 13 32 4 51 10
49 17 -5 16 -43 16 -124 -1z"/>
<path d="M94 5675 c3 -9 6 -19 6 -21 0 -2 9 -4 21 -4 29 0 21 34 -10 38 -19 3
-22 0 -17 -13z"/>
<path d="M112 5590 c-20 -25 -32 -49 -30 -62 6 -40 24 -29 49 29 13 32 26 61
27 65 9 21 -17 3 -46 -32z"/>
<path d="M120 5317 c0 -17 20 -37 37 -37 20 0 15 28 -6 40 -26 13 -31 13 -31
-3z"/>
<path d="M243 5283 c-82 -17 -102 -40 -25 -29 26 4 71 10 100 13 32 4 51 10
49 17 -5 16 -43 16 -124 -1z"/>
<path d="M94 5225 c3 -9 6 -19 6 -21 0 -2 9 -4 21 -4 29 0 21 34 -10 38 -19 3
-22 0 -17 -13z"/>
<path d="M241 5221 c-19 -3 -36 -12 -39 -20 -4 -11 3 -13 29 -7 19 4 53 9 77
13 23 3 42 10 42 14 0 10 -56 10 -109 0z"/>
<path d="M112 5140 c-20 -25 -32 -49 -30 -62 6 -40 24 -29 49 29 13 32 26 61
27 65 9 21 -17 3 -46 -32z"/>
<path d="M250 4876 c0 -44 0 -44 -40 -51 -22 -4 -40 -11 -40 -17 0 -7 15 -9
40 -5 34 4 40 2 40 -13 0 -11 -8 -20 -22 -22 -12 -2 -23 -9 -26 -17 -3 -10 2
-12 23 -9 l28 6 -6 -78 c-5 -74 3 -113 20 -96 4 4 10 47 13 94 l5 87 33 3 c44
4 41 22 -4 22 -28 0 -35 3 -32 18 2 12 15 18 46 20 58 4 51 28 -8 25 l-42 -2
6 33 c5 26 3 35 -10 40 -24 9 -24 9 -24 -38z"/>
<path d="M120 4867 c0 -17 20 -37 37 -37 20 0 15 28 -6 40 -26 13 -31 13 -31
-3z"/>
<path d="M94 4775 c3 -9 6 -19 6 -21 0 -2 9 -4 21 -4 29 0 21 34 -10 38 -19 3
-22 0 -17 -13z"/>
<path d="M112 4690 c-20 -25 -32 -49 -30 -62 6 -40 24 -29 49 29 13 32 26 61
27 65 9 21 -17 3 -46 -32z"/>
<path d="M250 4426 c0 -44 0 -44 -40 -51 -22 -4 -40 -11 -40 -17 0 -7 15 -9
40 -5 34 4 40 2 40 -13 0 -11 -8 -20 -22 -22 -25 -4 -37 -28 -14 -28 24 0 20
-11 -26 -57 -23 -23 -39 -46 -35 -49 8 -8 47 17 78 48 l22 23 -6 -55 c-6 -54
4 -92 20 -76 4 4 10 47 13 94 l5 87 33 3 c44 4 41 22 -4 22 -28 0 -35 3 -32
18 2 12 15 18 46 20 58 4 51 28 -8 25 l-42 -2 6 33 c5 26 3 35 -10 40 -24 9
-24 9 -24 -38z"/>
<path d="M120 4417 c0 -17 20 -37 37 -37 20 0 15 28 -6 40 -26 13 -31 13 -31
-3z"/>
<path d="M94 4325 c3 -9 6 -19 6 -21 0 -2 9 -4 21 -4 29 0 21 34 -10 38 -19 3
-22 0 -17 -13z"/>
<path d="M112 4240 c-20 -25 -32 -49 -30 -62 6 -40 24 -29 49 29 13 32 26 61
27 65 9 21 -17 3 -46 -32z"/>
<path d="M250 3976 c0 -44 0 -44 -40 -51 -22 -4 -40 -11 -40 -17 0 -7 15 -9
40 -5 34 4 40 2 40 -13 0 -11 -8 -20 -22 -22 -25 -4 -37 -28 -14 -28 24 0 20
-11 -26 -57 -23 -23 -39 -46 -35 -49 8 -8 47 17 78 48 l22 23 -6 -55 c-7 -60
5 -97 23 -70 5 8 10 42 10 75 l0 60 36 -42 c34 -41 55 -50 88 -37 24 9 19 20
-16 35 -35 14 -98 66 -98 80 0 5 14 9 30 9 17 0 30 5 30 10 0 6 -16 10 -36 10
-28 0 -35 3 -32 18 2 12 15 18 46 20 58 4 51 28 -8 25 l-42 -2 6 33 c5 26 3
35 -10 40 -24 9 -24 9 -24 -38z"/>
<path d="M120 3967 c0 -17 20 -37 37 -37 20 0 15 28 -6 40 -26 13 -31 13 -31
-3z"/>
<path d="M94 3875 c3 -9 6 -19 6 -21 0 -2 9 -4 21 -4 29 0 21 34 -10 38 -19 3
-22 0 -17 -13z"/>
<path d="M112 3790 c-20 -25 -32 -49 -30 -62 6 -40 24 -29 49 29 13 32 26 61
27 65 9 21 -17 3 -46 -32z"/>
</g>
</svg>
