<?xml version="1.0" standalone="no"?>
<!DOCTYPE svg PUBLIC "-//W3C//DTD SVG 20010904//EN"
 "http://www.w3.org/TR/2001/REC-SVG-20010904/DTD/svg10.dtd">
<svg version="1.0" xmlns="http://www.w3.org/2000/svg"
 width="50.000000pt" height="725.000000pt" viewBox="0 0 50.000000 725.000000"
 preserveAspectRatio="xMidYMid meet">
<metadata>
Created by potrace 1.16, written by Peter Selinger 2001-2019
</metadata>
<g transform="translate(0.000000,725.000000) scale(0.100000,-0.100000)"
fill="#000000" stroke="none">
<path d="M120 7122 c0 -12 34 -42 48 -42 18 0 14 37 -4 44 -22 9 -44 7 -44 -2z"/>
<path d="M120 6672 c0 -12 34 -42 48 -42 18 0 14 37 -4 44 -22 9 -44 7 -44 -2z"/>
<path d="M92 6573 c2 -10 13 -19 26 -21 24 -4 29 7 10 26 -18 18 -40 15 -36
-5z"/>
<path d="M120 6222 c0 -12 34 -42 48 -42 18 0 14 37 -4 44 -22 9 -44 7 -44 -2z"/>
<path d="M92 6123 c2 -10 13 -19 26 -21 24 -4 29 7 10 26 -18 18 -40 15 -36
-5z"/>
<path d="M117 6035 c-28 -35 -32 -65 -11 -72 10 -3 19 14 51 95 10 24 -12 11
-40 -23z"/>
<path d="M120 5772 c0 -12 34 -42 48 -42 18 0 14 37 -4 44 -22 9 -44 7 -44 -2z"/>
<path d="M176 5688 c4 -13 10 -47 13 -77 4 -33 11 -56 20 -59 11 -4 12 9 6 69
-8 83 -10 89 -31 89 -11 0 -13 -6 -8 -22z"/>
<path d="M92 5673 c2 -10 13 -19 26 -21 24 -4 29 7 10 26 -18 18 -40 15 -36
-5z"/>
<path d="M117 5585 c-28 -35 -32 -65 -11 -72 10 -3 19 14 51 95 10 24 -12 11
-40 -23z"/>
<path d="M120 5322 c0 -12 34 -42 48 -42 18 0 14 37 -4 44 -22 9 -44 7 -44 -2z"/>
<path d="M310 5269 c-25 -4 -67 -8 -93 -8 -45 -1 -48 -2 -41 -23 4 -13 10 -47
13 -77 4 -33 11 -56 20 -59 11 -4 12 8 7 61 -5 40 -4 67 2 71 6 3 44 9 86 13
l76 6 0 -25 c0 -47 -12 -88 -26 -88 -18 0 -18 -21 1 -46 15 -19 15 -19 30 0 8
10 17 39 20 65 4 25 11 57 16 71 8 19 7 27 -7 37 -19 14 -36 15 -104 2z"/>
<path d="M92 5223 c2 -10 13 -19 26 -21 24 -4 29 7 10 26 -18 18 -40 15 -36
-5z"/>
<path d="M117 5135 c-28 -35 -32 -65 -11 -72 10 -3 19 14 51 95 10 24 -12 11
-40 -23z"/>
<path d="M120 4872 c0 -12 34 -42 48 -42 18 0 14 37 -4 44 -22 9 -44 7 -44 -2z"/>
<path d="M310 4819 c-25 -4 -67 -8 -93 -8 -45 -1 -48 -2 -41 -23 4 -13 10 -47
13 -77 7 -59 31 -84 31 -32 0 20 5 31 14 31 12 0 22 19 40 73 4 13 17 17 56
17 46 0 50 -2 50 -24 0 -45 -13 -86 -26 -86 -18 0 -18 -21 1 -46 15 -19 15
-19 30 0 8 10 17 39 20 65 4 25 11 57 16 71 8 19 7 27 -7 37 -19 14 -36 15
-104 2z m-70 -53 c0 -13 -7 -29 -15 -36 -13 -11 -15 -8 -15 17 0 16 3 33 7 36
13 14 23 6 23 -17z"/>
<path d="M92 4773 c2 -10 13 -19 26 -21 24 -4 29 7 10 26 -18 18 -40 15 -36
-5z"/>
<path d="M117 4685 c-28 -35 -32 -65 -11 -72 10 -3 19 14 51 95 10 24 -12 11
-40 -23z"/>
<path d="M120 4422 c0 -12 34 -42 48 -42 18 0 14 37 -4 44 -22 9 -44 7 -44 -2z"/>
<path d="M310 4369 c-25 -4 -67 -8 -93 -8 -45 -1 -48 -2 -41 -23 4 -13 10 -47
13 -77 7 -59 31 -84 31 -32 0 20 5 31 14 31 7 0 18 12 24 28 26 70 25 69 31
27 6 -38 8 -40 44 -43 24 -2 37 -8 37 -18 0 -8 -7 -14 -15 -14 -8 0 -15 -6
-15 -13 0 -7 7 -22 15 -33 15 -19 15 -19 30 0 8 10 17 39 20 65 4 25 11 57 16
71 8 19 7 27 -7 37 -19 14 -36 15 -104 2z m70 -52 c0 -32 -2 -33 -30 -29 -25
4 -30 9 -30 33 0 26 4 29 30 29 27 0 30 -3 30 -33z m-140 -1 c0 -13 -7 -29
-15 -36 -13 -11 -15 -8 -15 17 0 16 3 33 7 36 13 14 23 6 23 -17z"/>
<path d="M92 4323 c2 -10 13 -19 26 -21 24 -4 29 7 10 26 -18 18 -40 15 -36
-5z"/>
<path d="M117 4235 c-28 -35 -32 -65 -11 -72 10 -3 19 14 51 95 10 24 -12 11
-40 -23z"/>
<path d="M120 3972 c0 -12 34 -42 48 -42 18 0 14 37 -4 44 -22 9 -44 7 -44 -2z"/>
<path d="M310 3919 c-25 -4 -67 -8 -94 -8 -42 -1 -47 -3 -41 -18 4 -10 9 -44
12 -76 3 -32 9 -59 12 -61 3 -2 35 0 71 5 61 9 66 8 82 -13 18 -22 19 -22 33
-4 8 10 17 39 20 65 4 25 11 57 16 71 8 19 7 27 -7 37 -19 14 -36 15 -104 2z
m23 -97 c56 -5 50 -32 -7 -32 -24 0 -58 -3 -75 -6 -24 -5 -31 -3 -31 10 0 9 6
16 14 16 7 0 18 12 24 28 26 70 25 69 31 27 6 -38 8 -40 44 -43z m47 45 c0
-32 -2 -33 -30 -29 -25 4 -30 9 -30 33 0 26 4 29 30 29 27 0 30 -3 30 -33z
m-140 -1 c0 -13 -7 -29 -15 -36 -13 -11 -15 -8 -15 17 0 16 3 33 7 36 13 14
23 6 23 -17z"/>
<path d="M92 3873 c2 -10 13 -19 26 -21 24 -4 29 7 10 26 -18 18 -40 15 -36
-5z"/>
<path d="M117 3785 c-28 -35 -32 -65 -11 -72 10 -3 19 14 51 95 10 24 -12 11
-40 -23z"/>
</g>
</svg>
