<?xml version="1.0" standalone="no"?>
<!DOCTYPE svg PUBLIC "-//W3C//DTD SVG 20010904//EN"
 "http://www.w3.org/TR/2001/REC-SVG-20010904/DTD/svg10.dtd">
<svg version="1.0" xmlns="http://www.w3.org/2000/svg"
 width="50.000000pt" height="725.000000pt" viewBox="0 0 50.000000 725.000000"
 preserveAspectRatio="xMidYMid meet">
<metadata>
Created by potrace 1.16, written by Peter Selinger 2001-2019
</metadata>
<g transform="translate(0.000000,725.000000) scale(0.100000,-0.100000)"
fill="#000000" stroke="none">
<path d="M160 7114 c0 -16 23 -44 35 -44 20 0 19 36 -1 44 -20 8 -34 8 -34 0z"/>
<path d="M160 6664 c0 -16 23 -44 35 -44 20 0 19 36 -1 44 -20 8 -34 8 -34 0z"/>
<path d="M122 6574 c4 -20 34 -41 45 -31 10 11 -11 41 -31 45 -12 3 -17 -2
-14 -14z"/>
<path d="M160 6214 c0 -16 23 -44 35 -44 20 0 19 36 -1 44 -20 8 -34 8 -34 0z"/>
<path d="M122 6124 c4 -20 34 -41 45 -31 10 11 -11 41 -31 45 -12 3 -17 -2
-14 -14z"/>
<path d="M180 6072 c0 -4 -14 -23 -31 -41 -17 -20 -29 -42 -27 -54 6 -39 24
-27 49 30 13 32 26 61 27 65 2 4 -1 8 -7 8 -6 0 -11 -3 -11 -8z"/>
<path d="M282 5763 c-24 -69 -24 -73 -15 -73 17 0 66 78 59 95 -10 27 -31 16
-44 -22z"/>
<path d="M160 5764 c0 -16 23 -44 35 -44 20 0 19 36 -1 44 -20 8 -34 8 -34 0z"/>
<path d="M122 5674 c4 -20 34 -41 45 -31 10 11 -11 41 -31 45 -12 3 -17 -2
-14 -14z"/>
<path d="M180 5622 c0 -4 -14 -23 -31 -41 -17 -20 -29 -42 -27 -54 6 -39 24
-27 49 30 13 32 26 61 27 65 2 4 -1 8 -7 8 -6 0 -11 -3 -11 -8z"/>
<path d="M290 5335 c0 -24 -33 -85 -46 -85 -8 0 -12 -30 -13 -100 0 -55 3
-100 8 -100 15 0 21 29 21 111 0 43 4 79 9 79 15 0 63 79 57 95 -7 19 -36 20
-36 0z"/>
<path d="M160 5314 c0 -16 23 -44 35 -44 20 0 19 36 -1 44 -20 8 -34 8 -34 0z"/>
<path d="M122 5224 c4 -20 34 -41 45 -31 10 11 -11 41 -31 45 -12 3 -17 -2
-14 -14z"/>
<path d="M180 5172 c0 -4 -14 -23 -31 -41 -17 -20 -29 -42 -27 -54 6 -39 24
-27 49 30 13 32 26 61 27 65 2 4 -1 8 -7 8 -6 0 -11 -3 -11 -8z"/>
<path d="M290 4885 c0 -24 -33 -85 -46 -85 -8 0 -12 -30 -13 -100 0 -55 3
-100 8 -100 15 0 21 29 21 105 l0 73 31 6 c68 13 69 12 69 -59 0 -36 -6 -74
-12 -85 -11 -16 -10 -23 5 -37 27 -27 37 -3 37 89 0 42 3 83 6 91 9 23 -26 37
-69 27 -20 -4 -37 -6 -37 -4 0 3 10 18 21 34 12 16 19 36 16 44 -8 20 -37 21
-37 1z"/>
<path d="M160 4864 c0 -16 23 -44 35 -44 20 0 19 36 -1 44 -20 8 -34 8 -34 0z"/>
<path d="M122 4774 c4 -20 34 -41 45 -31 10 11 -11 41 -31 45 -12 3 -17 -2
-14 -14z"/>
<path d="M180 4722 c0 -4 -14 -23 -31 -41 -17 -20 -29 -42 -27 -54 6 -39 24
-27 49 30 13 32 26 61 27 65 2 4 -1 8 -7 8 -6 0 -11 -3 -11 -8z"/>
<path d="M290 4435 c0 -24 -33 -85 -46 -85 -8 0 -12 -30 -13 -100 0 -55 3
-100 8 -100 13 0 21 27 21 75 0 40 2 43 31 49 62 12 69 9 69 -29 0 -19 -6 -44
-12 -55 -11 -16 -10 -23 5 -37 27 -27 37 -3 37 89 0 42 3 83 6 91 9 23 -26 37
-69 27 -20 -4 -37 -6 -37 -4 0 3 10 18 21 34 12 16 19 36 16 44 -8 20 -37 21
-37 1z m70 -109 c0 -8 -14 -17 -32 -21 -18 -4 -41 -9 -50 -11 -13 -4 -18 0
-18 15 0 20 17 27 73 30 17 1 27 -4 27 -13z"/>
<path d="M160 4414 c0 -16 23 -44 35 -44 20 0 19 36 -1 44 -20 8 -34 8 -34 0z"/>
<path d="M122 4324 c4 -20 34 -41 45 -31 10 11 -11 41 -31 45 -12 3 -17 -2
-14 -14z"/>
<path d="M180 4272 c0 -4 -14 -23 -31 -41 -17 -20 -29 -42 -27 -54 6 -39 24
-27 49 30 13 32 26 61 27 65 2 4 -1 8 -7 8 -6 0 -11 -3 -11 -8z"/>
<path d="M290 3985 c0 -24 -33 -85 -46 -85 -8 0 -12 -30 -13 -100 0 -55 3
-100 8 -100 11 0 21 25 21 50 0 13 11 19 48 23 26 3 49 3 51 1 2 -2 -2 -15 -9
-29 -12 -22 -12 -28 4 -43 26 -26 36 -1 36 90 0 42 3 83 6 91 9 23 -26 37 -69
27 -20 -4 -37 -6 -37 -4 0 3 10 18 21 34 12 16 19 36 16 44 -8 20 -37 21 -37
1z m70 -109 c0 -8 -14 -17 -32 -21 -18 -4 -41 -9 -50 -11 -13 -4 -18 0 -18 15
0 20 17 27 73 30 17 1 27 -4 27 -13z m0 -61 c0 -8 -8 -15 -19 -15 -10 0 -33
-3 -50 -6 -24 -5 -31 -3 -31 9 0 16 21 23 73 26 18 1 27 -4 27 -14z"/>
<path d="M160 3964 c0 -16 23 -44 35 -44 20 0 19 36 -1 44 -20 8 -34 8 -34 0z"/>
<path d="M122 3874 c4 -20 34 -41 45 -31 10 11 -11 41 -31 45 -12 3 -17 -2
-14 -14z"/>
<path d="M180 3822 c0 -4 -14 -23 -31 -41 -17 -20 -29 -42 -27 -54 6 -39 24
-27 49 30 13 32 26 61 27 65 2 4 -1 8 -7 8 -6 0 -11 -3 -11 -8z"/>
<path d="M290 3535 c0 -24 -33 -85 -46 -85 -8 0 -12 -31 -13 -101 -1 -93 0
-101 16 -94 41 18 84 17 104 -1 29 -26 39 -5 39 88 0 42 3 83 6 91 9 23 -26
37 -69 27 -20 -4 -37 -6 -37 -4 0 3 10 18 21 34 12 16 19 36 16 44 -8 20 -37
21 -37 1z m70 -109 c0 -8 -14 -17 -32 -21 -18 -4 -41 -9 -50 -11 -13 -4 -18 0
-18 15 0 20 17 27 73 30 17 1 27 -4 27 -13z m0 -61 c0 -8 -8 -15 -19 -15 -10
0 -33 -3 -50 -6 -24 -5 -31 -3 -31 9 0 16 21 23 73 26 18 1 27 -4 27 -14z m0
-49 c0 -13 -41 -26 -81 -26 -37 0 -20 29 19 33 20 2 43 4 50 5 6 1 12 -4 12
-12z"/>
<path d="M160 3514 c0 -16 23 -44 35 -44 20 0 19 36 -1 44 -20 8 -34 8 -34 0z"/>
<path d="M122 3424 c4 -20 34 -41 45 -31 10 11 -11 41 -31 45 -12 3 -17 -2
-14 -14z"/>
<path d="M180 3372 c0 -4 -14 -23 -31 -41 -17 -20 -29 -42 -27 -54 6 -39 24
-27 49 30 13 32 26 61 27 65 2 4 -1 8 -7 8 -6 0 -11 -3 -11 -8z"/>
</g>
</svg>
