<?xml version="1.0" standalone="no"?>
<!DOCTYPE svg PUBLIC "-//W3C//DTD SVG 20010904//EN"
 "http://www.w3.org/TR/2001/REC-SVG-20010904/DTD/svg10.dtd">
<svg version="1.0" xmlns="http://www.w3.org/2000/svg"
 width="50.000000pt" height="725.000000pt" viewBox="0 0 50.000000 725.000000"
 preserveAspectRatio="xMidYMid meet">
<metadata>
Created by potrace 1.16, written by Peter Selinger 2001-2019
</metadata>
<g transform="translate(0.000000,725.000000) scale(0.100000,-0.100000)"
fill="#000000" stroke="none">
<path d="M130 7122 c0 -10 33 -42 43 -42 14 0 6 38 -9 44 -22 8 -34 8 -34 -2z"/>
<path d="M130 6672 c0 -10 33 -42 43 -42 14 0 6 38 -9 44 -22 8 -34 8 -34 -2z"/>
<path d="M100 6577 c0 -17 20 -37 37 -37 19 0 16 37 -3 44 -24 9 -34 7 -34 -7z"/>
<path d="M130 6222 c0 -10 33 -42 43 -42 14 0 6 38 -9 44 -22 8 -34 8 -34 -2z"/>
<path d="M100 6127 c0 -17 20 -37 37 -37 19 0 16 37 -3 44 -24 9 -34 7 -34 -7z"/>
<path d="M127 6029 c-18 -26 -26 -47 -22 -60 10 -29 23 -23 40 18 37 89 28
109 -18 42z"/>
<path d="M130 5772 c0 -10 33 -42 43 -42 14 0 6 38 -9 44 -22 8 -34 8 -34 -2z"/>
<path d="M195 5713 c5 -10 11 -36 14 -57 3 -22 12 -41 20 -44 11 -4 13 3 8 34
-4 22 -7 49 -7 62 0 16 -6 22 -21 22 -16 0 -19 -4 -14 -17z"/>
<path d="M100 5677 c0 -17 20 -37 37 -37 19 0 16 37 -3 44 -24 9 -34 7 -34 -7z"/>
<path d="M127 5579 c-18 -26 -26 -47 -22 -60 10 -29 23 -23 40 18 37 89 28
109 -18 42z"/>
<path d="M130 5322 c0 -10 33 -42 43 -42 14 0 6 38 -9 44 -22 8 -34 8 -34 -2z"/>
<path d="M320 5291 c0 -6 5 -11 11 -11 8 0 10 -17 6 -55 -7 -71 14 -76 32 -7
19 76 19 77 -16 80 -19 2 -33 -1 -33 -7z"/>
<path d="M270 5280 c0 -5 9 -10 20 -10 11 0 20 5 20 10 0 6 -9 10 -20 10 -11
0 -20 -4 -20 -10z"/>
<path d="M195 5263 c5 -10 11 -36 14 -57 3 -22 12 -41 20 -44 10 -3 12 6 6 47
-5 34 -3 51 4 51 6 0 11 5 11 10 0 6 -14 10 -31 10 -26 0 -30 -3 -24 -17z"/>
<path d="M100 5227 c0 -17 20 -37 37 -37 19 0 16 37 -3 44 -24 9 -34 7 -34 -7z"/>
<path d="M127 5129 c-18 -26 -26 -47 -22 -60 10 -29 23 -23 40 18 37 89 28
109 -18 42z"/>
<path d="M130 4872 c0 -10 33 -42 43 -42 14 0 6 38 -9 44 -22 8 -34 8 -34 -2z"/>
<path d="M320 4841 c0 -6 5 -11 10 -11 6 0 10 -6 10 -14 0 -9 -17 -16 -51 -21
-46 -6 -81 2 -51 12 23 9 12 23 -19 23 -26 0 -30 -3 -24 -17 5 -10 11 -36 14
-57 7 -45 31 -62 31 -22 0 28 4 31 63 41 l39 6 -7 -30 c-5 -23 -3 -31 8 -31 8
0 18 19 26 48 19 76 19 77 -16 80 -19 2 -33 -1 -33 -7z"/>
<path d="M270 4830 c0 -5 9 -10 20 -10 11 0 20 5 20 10 0 6 -9 10 -20 10 -11
0 -20 -4 -20 -10z"/>
<path d="M100 4777 c0 -17 20 -37 37 -37 19 0 16 37 -3 44 -24 9 -34 7 -34 -7z"/>
<path d="M127 4679 c-18 -26 -26 -47 -22 -60 10 -29 23 -23 40 18 37 89 28
109 -18 42z"/>
<path d="M130 4422 c0 -10 33 -42 43 -42 14 0 6 38 -9 44 -22 8 -34 8 -34 -2z"/>
<path d="M320 4391 c0 -6 5 -11 10 -11 6 0 10 -6 10 -14 0 -9 -17 -16 -51 -21
-46 -6 -81 2 -51 12 23 9 12 23 -19 23 -26 0 -30 -3 -24 -17 5 -10 11 -36 14
-58 5 -32 10 -40 26 -38 11 1 43 3 71 4 l51 2 12 46 c19 75 19 76 -16 79 -19
2 -33 -1 -33 -7z m20 -75 c0 -13 -41 -26 -82 -26 -32 0 -14 24 23 31 55 10 59
10 59 -5z"/>
<path d="M270 4380 c0 -5 9 -10 20 -10 11 0 20 5 20 10 0 6 -9 10 -20 10 -11
0 -20 -4 -20 -10z"/>
<path d="M100 4327 c0 -17 20 -37 37 -37 19 0 16 37 -3 44 -24 9 -34 7 -34 -7z"/>
<path d="M127 4229 c-18 -26 -26 -47 -22 -60 10 -29 23 -23 40 18 37 89 28
109 -18 42z"/>
<path d="M254 3983 c4 -21 9 -50 12 -65 5 -23 2 -28 -15 -28 -12 0 -21 5 -21
10 0 6 5 10 10 10 6 0 10 5 10 10 0 6 -14 10 -31 10 -26 0 -30 -3 -24 -17 5
-10 11 -36 14 -58 6 -39 7 -40 42 -37 34 3 36 1 48 -37 14 -50 70 -111 101
-111 16 0 20 4 16 16 -3 9 -6 27 -6 40 0 13 -4 24 -10 24 -5 0 -10 -7 -10 -15
0 -28 -20 -15 -50 31 -31 50 -32 65 -2 57 15 -3 21 5 31 44 19 77 19 78 -16
81 -19 2 -33 -1 -33 -7 0 -6 5 -11 10 -11 6 0 10 -7 10 -15 0 -9 -9 -15 -25
-15 -26 0 -34 15 -12 23 9 4 9 8 0 14 -6 4 -13 24 -15 43 -2 25 -9 36 -22 38
-16 4 -18 0 -12 -35z m86 -118 c0 -8 -9 -15 -20 -15 -20 0 -26 11 -13 23 12
13 33 7 33 -8z m-62 -13 c2 -7 -6 -12 -17 -12 -21 0 -27 11 -14 24 9 9 26 2
31 -12z"/>
<path d="M130 3972 c0 -10 33 -42 43 -42 14 0 6 38 -9 44 -22 8 -34 8 -34 -2z"/>
<path d="M100 3877 c0 -17 20 -37 37 -37 19 0 16 37 -3 44 -24 9 -34 7 -34 -7z"/>
<path d="M127 3779 c-18 -26 -26 -47 -22 -60 10 -29 23 -23 40 18 37 89 28
109 -18 42z"/>
<path d="M254 3533 c4 -21 9 -50 12 -65 5 -23 2 -28 -15 -28 -12 0 -21 5 -21
10 0 6 5 10 10 10 6 0 10 5 10 10 0 6 -14 10 -31 10 -26 0 -30 -3 -24 -17 5
-10 11 -36 14 -58 6 -39 7 -40 42 -37 33 3 36 1 46 -33 11 -35 11 -36 -28 -58
-65 -37 -39 -48 29 -12 21 10 27 8 52 -17 31 -31 76 -39 66 -12 -3 9 -6 27 -6
40 0 13 -4 24 -10 24 -5 0 -10 -7 -10 -15 0 -19 -14 -19 -30 0 -10 13 -9 19 5
35 16 17 16 24 5 45 -11 20 -10 32 3 71 9 27 13 52 11 56 -7 12 -64 10 -64 -2
0 -5 5 -10 10 -10 6 0 10 -7 10 -15 0 -9 -9 -15 -25 -15 -26 0 -34 15 -12 23
9 4 9 8 0 14 -6 4 -13 24 -15 43 -2 25 -9 36 -22 38 -16 4 -18 0 -12 -35z m86
-118 c0 -8 -9 -15 -20 -15 -20 0 -26 11 -13 23 12 13 33 7 33 -8z m-62 -13 c2
-7 -6 -12 -17 -12 -21 0 -27 11 -14 24 9 9 26 2 31 -12z m72 -41 c0 -3 -4 -12
-9 -20 -7 -11 -11 -10 -20 6 -5 11 -8 23 -5 26 7 7 34 -3 34 -12z"/>
<path d="M130 3522 c0 -10 33 -42 43 -42 14 0 6 38 -9 44 -22 8 -34 8 -34 -2z"/>
<path d="M100 3427 c0 -17 20 -37 37 -37 19 0 16 37 -3 44 -24 9 -34 7 -34 -7z"/>
<path d="M127 3329 c-18 -26 -26 -47 -22 -60 10 -29 23 -23 40 18 37 89 28
109 -18 42z"/>
</g>
</svg>
