<?xml version="1.0" standalone="no"?>
<!DOCTYPE svg PUBLIC "-//W3C//DTD SVG 20010904//EN"
 "http://www.w3.org/TR/2001/REC-SVG-20010904/DTD/svg10.dtd">
<svg version="1.0" xmlns="http://www.w3.org/2000/svg"
 width="50.000000pt" height="725.000000pt" viewBox="0 0 50.000000 725.000000"
 preserveAspectRatio="xMidYMid meet">
<metadata>
Created by potrace 1.16, written by Peter Selinger 2001-2019
</metadata>
<g transform="translate(0.000000,725.000000) scale(0.100000,-0.100000)"
fill="#000000" stroke="none">
<path d="M150 7117 c0 -17 20 -37 37 -37 20 0 15 28 -6 40 -26 13 -31 13 -31
-3z"/>
<path d="M150 6667 c0 -17 20 -37 37 -37 20 0 15 28 -6 40 -26 13 -31 13 -31
-3z"/>
<path d="M100 6602 c0 -5 9 -17 20 -27 26 -23 52 -6 30 20 -13 16 -50 21 -50
7z"/>
<path d="M150 6217 c0 -17 20 -37 37 -37 20 0 15 28 -6 40 -26 13 -31 13 -31
-3z"/>
<path d="M100 6152 c0 -5 9 -17 20 -27 26 -23 52 -6 30 20 -13 16 -50 21 -50
7z"/>
<path d="M132 6040 c-24 -32 -29 -70 -9 -70 7 0 19 17 26 38 8 20 16 43 18 50
9 23 -13 12 -35 -18z"/>
<path d="M260 5794 c0 -9 -10 -34 -22 -55 -21 -38 -20 -58 2 -44 20 12 61 87
56 101 -7 19 -36 18 -36 -2z"/>
<path d="M150 5767 c0 -17 20 -37 37 -37 20 0 15 28 -6 40 -26 13 -31 13 -31
-3z"/>
<path d="M100 5702 c0 -5 9 -17 20 -27 26 -23 52 -6 30 20 -13 16 -50 21 -50
7z"/>
<path d="M132 5590 c-24 -32 -29 -70 -9 -70 7 0 19 17 26 38 8 20 16 43 18 50
9 23 -13 12 -35 -18z"/>
<path d="M260 5344 c0 -9 -10 -34 -22 -55 -23 -42 -19 -62 9 -36 10 8 41 17
68 19 l50 3 3 -60 c4 -78 -12 -135 -38 -135 -23 0 -24 -4 -10 -31 13 -24 32
-24 52 -1 20 22 27 57 30 160 3 98 -4 107 -70 90 -47 -12 -61 -6 -42 17 7 8
10 22 6 30 -7 20 -36 19 -36 -1z"/>
<path d="M150 5317 c0 -17 20 -37 37 -37 20 0 15 28 -6 40 -26 13 -31 13 -31
-3z"/>
<path d="M100 5252 c0 -5 9 -17 20 -27 26 -23 52 -6 30 20 -13 16 -50 21 -50
7z"/>
<path d="M132 5140 c-24 -32 -29 -70 -9 -70 7 0 19 17 26 38 8 20 16 43 18 50
9 23 -13 12 -35 -18z"/>
<path d="M260 4894 c0 -9 -10 -34 -22 -55 -23 -42 -19 -62 9 -36 10 8 41 17
68 19 l50 3 3 -60 c4 -78 -12 -135 -38 -135 -23 0 -24 -4 -10 -31 13 -24 32
-24 52 -1 20 22 27 57 30 160 3 98 -4 107 -70 90 -47 -12 -61 -6 -42 17 7 8
10 22 6 30 -7 20 -36 19 -36 -1z"/>
<path d="M150 4867 c0 -17 20 -37 37 -37 20 0 15 28 -6 40 -26 13 -31 13 -31
-3z"/>
<path d="M100 4802 c0 -5 9 -17 20 -27 26 -23 52 -6 30 20 -13 16 -50 21 -50
7z"/>
<path d="M256 4759 c-15 -22 -25 -44 -21 -47 9 -9 65 54 65 73 0 26 -16 16
-44 -26z"/>
<path d="M132 4690 c-24 -32 -29 -70 -9 -70 7 0 19 17 26 38 8 20 16 43 18 50
9 23 -13 12 -35 -18z"/>
<path d="M260 4444 c0 -9 -10 -34 -22 -55 -23 -42 -19 -62 9 -36 10 8 41 17
68 19 l50 3 3 -60 c4 -78 -12 -135 -38 -135 -23 0 -24 -4 -10 -31 13 -24 32
-24 52 -1 20 22 27 57 30 160 3 98 -4 107 -70 90 -47 -12 -61 -6 -42 17 7 8
10 22 6 30 -7 20 -36 19 -36 -1z"/>
<path d="M150 4417 c0 -17 20 -37 37 -37 20 0 15 28 -6 40 -26 13 -31 13 -31
-3z"/>
<path d="M100 4352 c0 -5 9 -17 20 -27 26 -23 52 -6 30 20 -13 16 -50 21 -50
7z"/>
<path d="M274 4335 c-4 -8 -13 -15 -21 -15 -9 0 -13 -6 -10 -14 3 -7 0 -19 -6
-25 -14 -14 -2 -26 15 -15 7 5 20 7 29 6 13 -2 16 6 16 38 0 40 -12 54 -23 25z"/>
<path d="M132 4240 c-24 -32 -29 -70 -9 -70 7 0 19 17 26 38 8 20 16 43 18 50
9 23 -13 12 -35 -18z"/>
<path d="M260 3994 c0 -9 -10 -34 -22 -55 -23 -42 -19 -62 9 -36 10 8 41 17
68 19 l50 3 3 -60 c4 -78 -12 -135 -38 -135 -23 0 -24 -4 -10 -31 13 -24 32
-24 52 -1 20 22 27 57 30 160 3 98 -4 107 -70 90 -47 -12 -61 -6 -42 17 7 8
10 22 6 30 -7 20 -36 19 -36 -1z"/>
<path d="M150 3967 c0 -17 20 -37 37 -37 20 0 15 28 -6 40 -26 13 -31 13 -31
-3z"/>
<path d="M100 3902 c0 -5 9 -17 20 -27 26 -23 52 -6 30 20 -13 16 -50 21 -50
7z"/>
<path d="M274 3885 c-4 -8 -13 -15 -21 -15 -9 0 -13 -6 -10 -14 8 -20 -4 -28
-20 -14 -18 15 -22 9 -30 -47 -6 -45 -5 -48 13 -40 10 4 34 13 52 19 43 15 41
30 -3 22 -27 -5 -35 -4 -35 8 0 9 6 13 14 10 8 -3 17 -1 20 4 3 6 14 8 25 5
16 -4 18 1 18 36 0 41 -12 55 -23 26z"/>
<path d="M132 3790 c-24 -32 -29 -70 -9 -70 7 0 19 17 26 38 8 20 16 43 18 50
9 23 -13 12 -35 -18z"/>
<path d="M260 3544 c0 -9 -10 -34 -22 -55 -23 -42 -19 -62 9 -36 10 8 41 17
68 19 l50 3 3 -60 c4 -78 -12 -135 -38 -135 -23 0 -24 -4 -10 -31 13 -24 32
-24 52 -1 20 22 27 57 30 160 3 98 -4 107 -70 90 -47 -12 -61 -6 -42 17 7 8
10 22 6 30 -7 20 -36 19 -36 -1z"/>
<path d="M150 3517 c0 -17 20 -37 37 -37 20 0 15 28 -6 40 -26 13 -31 13 -31
-3z"/>
<path d="M100 3452 c0 -5 9 -17 20 -27 26 -23 52 -6 30 20 -13 16 -50 21 -50
7z"/>
<path d="M274 3435 c-4 -8 -13 -15 -21 -15 -9 0 -13 -6 -10 -14 8 -20 -4 -28
-20 -14 -18 15 -22 9 -30 -47 -6 -45 -5 -48 13 -40 10 4 34 13 52 19 43 15 41
30 -3 22 -27 -5 -35 -4 -35 8 0 9 6 13 14 10 8 -3 17 -1 20 4 3 6 14 8 25 5
16 -4 18 1 18 36 0 41 -12 55 -23 26z"/>
<path d="M306 3369 c-4 -28 -4 -54 -1 -57 11 -11 23 14 29 61 6 37 4 47 -7 47
-10 0 -17 -17 -21 -51z"/>
<path d="M132 3340 c-24 -32 -29 -70 -9 -70 7 0 19 17 26 38 8 20 16 43 18 50
9 23 -13 12 -35 -18z"/>
</g>
</svg>
