<?xml version="1.0" standalone="no"?>
<!DOCTYPE svg PUBLIC "-//W3C//DTD SVG 20010904//EN"
 "http://www.w3.org/TR/2001/REC-SVG-20010904/DTD/svg10.dtd">
<svg version="1.0" xmlns="http://www.w3.org/2000/svg"
 width="50.000000pt" height="725.000000pt" viewBox="0 0 50.000000 725.000000"
 preserveAspectRatio="xMidYMid meet">
<metadata>
Created by potrace 1.16, written by Peter Selinger 2001-2019
</metadata>
<g transform="translate(0.000000,725.000000) scale(0.100000,-0.100000)"
fill="#000000" stroke="none">
<path d="M120 7107 c0 -17 20 -37 37 -37 19 0 16 37 -3 44 -24 9 -34 7 -34 -7z"/>
<path d="M120 6657 c0 -17 20 -37 37 -37 19 0 16 37 -3 44 -24 9 -34 7 -34 -7z"/>
<path d="M94 6574 c3 -9 6 -18 6 -20 0 -2 9 -4 21 -4 15 0 19 4 15 16 -3 9 -6
18 -6 20 0 2 -9 4 -21 4 -15 0 -19 -4 -15 -16z"/>
<path d="M120 6207 c0 -17 20 -37 37 -37 19 0 16 37 -3 44 -24 9 -34 7 -34 -7z"/>
<path d="M94 6124 c3 -9 6 -18 6 -20 0 -2 9 -4 21 -4 15 0 19 4 15 16 -3 9 -6
18 -6 20 0 2 -9 4 -21 4 -15 0 -19 -4 -15 -16z"/>
<path d="M107 6034 c-21 -26 -27 -42 -23 -60 4 -13 10 -24 15 -24 7 0 51 101
51 116 0 13 -19 -1 -43 -32z"/>
<path d="M120 5757 c0 -17 20 -37 37 -37 19 0 16 37 -3 44 -24 9 -34 7 -34 -7z"/>
<path d="M208 5708 c-41 -15 -34 -30 10 -22 43 8 52 12 52 25 0 11 -27 10 -62
-3z"/>
<path d="M94 5674 c3 -9 6 -18 6 -20 0 -2 9 -4 21 -4 15 0 19 4 15 16 -3 9 -6
18 -6 20 0 2 -9 4 -21 4 -15 0 -19 -4 -15 -16z"/>
<path d="M107 5584 c-21 -26 -27 -42 -23 -60 4 -13 10 -24 15 -24 7 0 51 101
51 116 0 13 -19 -1 -43 -32z"/>
<path d="M217 5317 c5 -50 4 -55 -16 -62 -27 -8 -27 -25 0 -25 20 0 21 -4 17
-61 -2 -34 -10 -64 -17 -69 -10 -6 -11 -12 -1 -29 22 -42 35 -18 38 75 2 65 7
91 17 97 20 11 19 27 -1 27 -12 0 -14 10 -12 47 2 38 0 48 -14 51 -15 3 -16
-4 -11 -51z"/>
<path d="M120 5307 c0 -17 20 -37 37 -37 19 0 16 37 -3 44 -24 9 -34 7 -34 -7z"/>
<path d="M94 5224 c3 -9 6 -18 6 -20 0 -2 9 -4 21 -4 15 0 19 4 15 16 -3 9 -6
18 -6 20 0 2 -9 4 -21 4 -15 0 -19 -4 -15 -16z"/>
<path d="M107 5134 c-21 -26 -27 -42 -23 -60 4 -13 10 -24 15 -24 7 0 51 101
51 116 0 13 -19 -1 -43 -32z"/>
<path d="M217 4867 c5 -50 4 -55 -16 -62 -27 -8 -27 -25 -1 -25 30 0 24 -29
-10 -48 -33 -19 -40 -42 -12 -42 10 0 24 6 31 13 11 10 12 7 6 -18 -3 -16 -11
-33 -17 -36 -7 -4 -6 -14 2 -28 20 -38 35 -18 38 50 2 43 8 66 18 72 19 11 18
31 -1 23 -9 -3 -15 0 -15 8 0 8 7 16 15 20 20 7 19 26 -1 26 -12 0 -14 10 -12
47 2 38 0 48 -14 51 -15 3 -16 -4 -11 -51z"/>
<path d="M120 4857 c0 -17 20 -37 37 -37 19 0 16 37 -3 44 -24 9 -34 7 -34 -7z"/>
<path d="M94 4774 c3 -9 6 -18 6 -20 0 -2 9 -4 21 -4 15 0 19 4 15 16 -3 9 -6
18 -6 20 0 2 -9 4 -21 4 -15 0 -19 -4 -15 -16z"/>
<path d="M107 4684 c-21 -26 -27 -42 -23 -60 4 -13 10 -24 15 -24 7 0 51 101
51 116 0 13 -19 -1 -43 -32z"/>
<path d="M217 4417 c5 -50 4 -55 -16 -62 -27 -8 -27 -25 -1 -25 30 0 24 -29
-10 -48 -33 -19 -40 -42 -12 -42 10 0 24 6 31 13 11 10 12 7 6 -18 -3 -16 -11
-33 -17 -36 -7 -4 -6 -14 2 -28 20 -38 35 -18 38 50 2 43 8 66 18 72 19 11 18
31 -1 23 -9 -3 -15 0 -15 8 0 8 7 16 15 20 20 7 19 26 -1 26 -12 0 -14 10 -12
47 2 38 0 48 -14 51 -15 3 -16 -4 -11 -51z"/>
<path d="M335 4410 c-36 -38 -26 -48 25 -25 43 19 46 25 28 43 -17 17 -21 16
-53 -18z"/>
<path d="M120 4407 c0 -17 20 -37 37 -37 19 0 16 37 -3 44 -24 9 -34 7 -34 -7z"/>
<path d="M94 4324 c3 -9 6 -18 6 -20 0 -2 9 -4 21 -4 15 0 19 4 15 16 -3 9 -6
18 -6 20 0 2 -9 4 -21 4 -15 0 -19 -4 -15 -16z"/>
<path d="M107 4234 c-21 -26 -27 -42 -23 -60 4 -13 10 -24 15 -24 7 0 51 101
51 116 0 13 -19 -1 -43 -32z"/>
<path d="M217 3967 c5 -50 4 -55 -16 -62 -27 -8 -27 -25 -1 -25 30 0 24 -29
-10 -48 -33 -19 -40 -42 -12 -42 10 0 24 6 31 13 11 10 12 7 6 -18 -3 -16 -11
-33 -17 -36 -7 -4 -6 -14 2 -28 20 -38 35 -18 38 50 2 43 8 66 18 72 19 11 18
31 -1 23 -9 -3 -15 0 -15 8 0 8 7 16 15 20 20 7 19 26 -1 26 -12 0 -14 10 -12
47 2 38 0 48 -14 51 -15 3 -16 -4 -11 -51z"/>
<path d="M336 3961 c-16 -17 -35 -27 -42 -24 -12 4 -13 -2 -9 -33 6 -36 -3
-95 -20 -136 -4 -11 -3 -18 4 -18 16 0 41 55 41 92 0 57 10 75 51 93 42 19 45
25 27 43 -17 17 -21 16 -52 -17z"/>
<path d="M120 3957 c0 -17 20 -37 37 -37 19 0 16 37 -3 44 -24 9 -34 7 -34 -7z"/>
<path d="M94 3874 c3 -9 6 -18 6 -20 0 -2 9 -4 21 -4 15 0 19 4 15 16 -3 9 -6
18 -6 20 0 2 -9 4 -21 4 -15 0 -19 -4 -15 -16z"/>
<path d="M107 3784 c-21 -26 -27 -42 -23 -60 4 -13 10 -24 15 -24 7 0 51 101
51 116 0 13 -19 -1 -43 -32z"/>
<path d="M217 3517 c5 -50 4 -55 -16 -62 -27 -8 -27 -25 -1 -25 30 0 24 -29
-10 -48 -33 -19 -40 -42 -12 -42 10 0 24 6 31 13 11 10 12 7 6 -18 -3 -16 -11
-33 -17 -36 -7 -4 -6 -14 2 -28 20 -38 35 -18 38 50 2 43 8 66 18 72 19 11 18
31 -1 23 -9 -3 -15 0 -15 8 0 8 7 16 15 20 20 7 19 26 -1 26 -12 0 -14 10 -12
47 2 38 0 48 -14 51 -15 3 -16 -4 -11 -51z"/>
<path d="M336 3511 c-16 -17 -35 -27 -42 -24 -12 4 -13 -2 -9 -33 6 -36 -3
-95 -20 -136 -4 -11 -3 -18 4 -18 15 0 41 54 41 85 0 20 5 25 24 25 40 0 86
12 86 22 0 7 -21 8 -54 4 -51 -7 -54 -6 -49 12 2 11 22 28 44 37 42 19 45 25
27 43 -17 17 -21 16 -52 -17z"/>
<path d="M120 3507 c0 -17 20 -37 37 -37 19 0 16 37 -3 44 -24 9 -34 7 -34 -7z"/>
<path d="M94 3424 c3 -9 6 -18 6 -20 0 -2 9 -4 21 -4 15 0 19 4 15 16 -3 9 -6
18 -6 20 0 2 -9 4 -21 4 -15 0 -19 -4 -15 -16z"/>
<path d="M107 3334 c-21 -26 -27 -42 -23 -60 4 -13 10 -24 15 -24 7 0 51 101
51 116 0 13 -19 -1 -43 -32z"/>
<path d="M217 3067 c5 -50 4 -55 -16 -62 -27 -8 -27 -25 -1 -25 30 0 24 -29
-10 -48 -33 -19 -40 -42 -12 -42 10 0 24 6 31 13 11 10 12 7 6 -18 -3 -16 -11
-33 -17 -36 -7 -4 -6 -14 2 -28 20 -38 35 -18 38 50 2 43 8 66 18 72 19 11 18
31 -1 23 -9 -3 -15 0 -15 8 0 8 7 16 15 20 20 7 19 26 -1 26 -12 0 -14 10 -12
47 2 38 0 48 -14 51 -15 3 -16 -4 -11 -51z"/>
<path d="M336 3061 c-16 -17 -35 -27 -42 -24 -12 4 -13 -2 -9 -33 6 -36 -3
-95 -20 -136 -4 -11 -3 -18 4 -18 15 0 41 54 41 85 0 28 24 35 34 9 3 -9 6
-51 6 -95 0 -46 4 -79 10 -79 6 0 10 30 10 69 0 96 8 131 31 131 11 0 19 5 19
11 0 8 -17 9 -54 5 -51 -7 -54 -6 -49 12 2 11 22 28 44 37 42 19 45 25 27 43
-17 17 -21 16 -52 -17z"/>
<path d="M120 3057 c0 -17 20 -37 37 -37 19 0 16 37 -3 44 -24 9 -34 7 -34 -7z"/>
<path d="M94 2974 c3 -9 6 -18 6 -20 0 -2 9 -4 21 -4 15 0 19 4 15 16 -3 9 -6
18 -6 20 0 2 -9 4 -21 4 -15 0 -19 -4 -15 -16z"/>
<path d="M107 2884 c-21 -26 -27 -42 -23 -60 4 -13 10 -24 15 -24 7 0 51 101
51 116 0 13 -19 -1 -43 -32z"/>
</g>
</svg>
