<?xml version="1.0" standalone="no"?>
<!DOCTYPE svg PUBLIC "-//W3C//DTD SVG 20010904//EN"
 "http://www.w3.org/TR/2001/REC-SVG-20010904/DTD/svg10.dtd">
<svg version="1.0" xmlns="http://www.w3.org/2000/svg"
 width="50.000000pt" height="725.000000pt" viewBox="0 0 50.000000 725.000000"
 preserveAspectRatio="xMidYMid meet">
<metadata>
Created by potrace 1.16, written by Peter Selinger 2001-2019
</metadata>
<g transform="translate(0.000000,725.000000) scale(0.100000,-0.100000)"
fill="#000000" stroke="none">
<path d="M130 7127 c0 -17 20 -37 37 -37 19 0 16 37 -3 44 -24 9 -34 7 -34 -7z"/>
<path d="M130 6677 c0 -17 20 -37 37 -37 19 0 16 37 -3 44 -24 9 -34 7 -34 -7z"/>
<path d="M90 6598 c0 -19 21 -38 42 -38 32 0 17 33 -19 44 -16 5 -23 3 -23 -6z"/>
<path d="M130 6227 c0 -17 20 -37 37 -37 19 0 16 37 -3 44 -24 9 -34 7 -34 -7z"/>
<path d="M90 6148 c0 -19 21 -38 42 -38 32 0 17 33 -19 44 -16 5 -23 3 -23 -6z"/>
<path d="M131 6048 c-11 -18 -26 -40 -32 -49 -13 -17 -6 -49 9 -49 8 0 22 27
59 118 11 26 -16 11 -36 -20z"/>
<path d="M130 5777 c0 -17 20 -37 37 -37 19 0 16 37 -3 44 -24 9 -34 7 -34 -7z"/>
<path d="M215 5733 c13 -80 17 -93 27 -93 7 0 8 16 4 46 -3 26 -6 55 -6 65 0
11 -7 19 -15 19 -13 0 -15 -8 -10 -37z"/>
<path d="M90 5698 c0 -19 21 -38 42 -38 32 0 17 33 -19 44 -16 5 -23 3 -23 -6z"/>
<path d="M131 5598 c-11 -18 -26 -40 -32 -49 -13 -17 -6 -49 9 -49 8 0 22 27
59 118 11 26 -16 11 -36 -20z"/>
<path d="M130 5327 c0 -17 20 -37 37 -37 19 0 16 37 -3 44 -24 9 -34 7 -34 -7z"/>
<path d="M315 5330 c-11 -5 -39 -9 -63 -9 l-43 -1 6 -37 c13 -80 17 -93 27
-93 7 0 8 19 3 55 -6 50 -5 55 13 55 11 0 34 3 52 7 l33 6 -7 -62 c-9 -82 11
-79 36 5 17 55 17 60 1 72 -19 14 -30 14 -58 2z"/>
<path d="M90 5248 c0 -19 21 -38 42 -38 32 0 17 33 -19 44 -16 5 -23 3 -23 -6z"/>
<path d="M131 5148 c-11 -18 -26 -40 -32 -49 -13 -17 -6 -49 9 -49 8 0 22 27
59 118 11 26 -16 11 -36 -20z"/>
<path d="M130 4877 c0 -17 20 -37 37 -37 19 0 16 37 -3 44 -24 9 -34 7 -34 -7z"/>
<path d="M315 4880 c-11 -5 -39 -9 -63 -9 l-43 -1 6 -37 c13 -79 17 -93 26
-93 5 0 9 13 9 29 0 27 3 29 44 32 l44 4 -6 -34 c-9 -57 20 -32 40 35 17 55
17 60 1 72 -19 14 -30 14 -58 2z m25 -34 c0 -13 -41 -26 -81 -26 -33 0 -21 28
14 33 62 7 67 7 67 -7z"/>
<path d="M90 4798 c0 -19 21 -38 42 -38 32 0 17 33 -19 44 -16 5 -23 3 -23 -6z"/>
<path d="M131 4698 c-11 -18 -26 -40 -32 -49 -13 -17 -6 -49 9 -49 8 0 22 27
59 118 11 26 -16 11 -36 -20z"/>
<path d="M130 4427 c0 -17 20 -37 37 -37 19 0 16 37 -3 44 -24 9 -34 7 -34 -7z"/>
<path d="M315 4430 c-11 -5 -39 -9 -63 -9 l-43 -1 6 -37 c16 -96 9 -88 77 -87
l62 1 18 59 c17 55 17 60 1 72 -19 14 -30 14 -58 2z m25 -34 c0 -13 -41 -26
-81 -26 -33 0 -21 28 14 33 62 7 67 7 67 -7z m-7 -57 c-5 -5 -26 -12 -46 -16
-30 -4 -37 -2 -37 10 0 11 12 17 43 19 48 3 55 2 40 -13z"/>
<path d="M90 4348 c0 -19 21 -38 42 -38 32 0 17 33 -19 44 -16 5 -23 3 -23 -6z"/>
<path d="M131 4248 c-11 -18 -26 -40 -32 -49 -13 -17 -6 -49 9 -49 8 0 22 27
59 118 11 26 -16 11 -36 -20z"/>
<path d="M130 3977 c0 -17 20 -37 37 -37 19 0 16 37 -3 44 -24 9 -34 7 -34 -7z"/>
<path d="M315 3980 c-11 -5 -39 -9 -63 -9 l-43 -1 6 -37 c16 -96 9 -88 77 -87
l62 1 18 59 c17 55 17 60 1 72 -19 14 -30 14 -58 2z m25 -34 c0 -13 -41 -26
-81 -26 -33 0 -21 28 14 33 62 7 67 7 67 -7z m-7 -57 c-5 -5 -26 -12 -46 -16
-30 -4 -37 -2 -37 10 0 11 12 17 43 19 48 3 55 2 40 -13z"/>
<path d="M90 3898 c0 -19 21 -38 42 -38 32 0 17 33 -19 44 -16 5 -23 3 -23 -6z"/>
<path d="M131 3798 c-11 -18 -26 -40 -32 -49 -13 -17 -6 -49 9 -49 8 0 22 27
59 118 11 26 -16 11 -36 -20z"/>
<path d="M263 3803 c-29 -2 -53 -8 -53 -14 0 -10 102 -12 138 -3 31 9 28 24
-5 22 -16 -1 -52 -3 -80 -5z"/>
<path d="M130 3527 c0 -17 20 -37 37 -37 19 0 16 37 -3 44 -24 9 -34 7 -34 -7z"/>
<path d="M315 3530 c-11 -5 -39 -9 -63 -9 l-43 -1 6 -37 c16 -96 9 -88 77 -87
l62 1 18 59 c17 55 17 60 1 72 -19 14 -30 14 -58 2z m25 -34 c0 -13 -41 -26
-81 -26 -33 0 -21 28 14 33 62 7 67 7 67 -7z m-7 -57 c-5 -5 -26 -12 -46 -16
-30 -4 -37 -2 -37 10 0 11 12 17 43 19 48 3 55 2 40 -13z"/>
<path d="M90 3448 c0 -19 21 -38 42 -38 32 0 17 33 -19 44 -16 5 -23 3 -23 -6z"/>
<path d="M270 3370 c0 -16 -7 -20 -30 -20 -16 0 -30 -4 -30 -10 0 -5 14 -10
30 -10 25 0 30 -4 30 -25 0 -16 6 -25 15 -25 9 0 15 9 15 24 0 19 7 25 35 30
43 8 46 26 5 26 -20 0 -30 5 -30 15 0 8 -9 15 -20 15 -13 0 -20 -7 -20 -20z"/>
<path d="M131 3348 c-11 -18 -26 -40 -32 -49 -13 -17 -6 -49 9 -49 8 0 22 27
59 118 11 26 -16 11 -36 -20z"/>
<path d="M130 3077 c0 -17 20 -37 37 -37 19 0 16 37 -3 44 -24 9 -34 7 -34 -7z"/>
<path d="M315 3080 c-11 -5 -39 -9 -63 -9 l-43 -1 6 -37 c16 -96 9 -88 77 -87
l62 1 18 59 c17 55 17 60 1 72 -19 14 -30 14 -58 2z m25 -34 c0 -13 -41 -26
-81 -26 -33 0 -21 28 14 33 62 7 67 7 67 -7z m-7 -57 c-5 -5 -26 -12 -46 -16
-30 -4 -37 -2 -37 10 0 11 12 17 43 19 48 3 55 2 40 -13z"/>
<path d="M90 2998 c0 -19 21 -38 42 -38 32 0 17 33 -19 44 -16 5 -23 3 -23 -6z"/>
<path d="M270 2920 c0 -16 -7 -20 -30 -20 -16 0 -30 -4 -30 -10 0 -5 14 -10
30 -10 23 0 30 -5 30 -19 0 -15 -10 -20 -50 -26 -27 -4 -50 -11 -50 -16 0 -8
239 -1 249 7 1 1 0 8 -4 14 -5 8 -26 11 -61 8 -46 -4 -54 -2 -54 13 0 11 11
19 35 23 43 8 46 26 5 26 -20 0 -30 5 -30 15 0 8 -9 15 -20 15 -13 0 -20 -7
-20 -20z"/>
<path d="M131 2898 c-11 -18 -26 -40 -32 -49 -13 -17 -6 -49 9 -49 8 0 22 27
59 118 11 26 -16 11 -36 -20z"/>
</g>
</svg>
