<?xml version="1.0" standalone="no"?>
<!DOCTYPE svg PUBLIC "-//W3C//DTD SVG 20010904//EN"
 "http://www.w3.org/TR/2001/REC-SVG-20010904/DTD/svg10.dtd">
<svg version="1.0" xmlns="http://www.w3.org/2000/svg"
 width="50.000000pt" height="725.000000pt" viewBox="0 0 50.000000 725.000000"
 preserveAspectRatio="xMidYMid meet">
<metadata>
Created by potrace 1.16, written by Peter Selinger 2001-2019
</metadata>
<g transform="translate(0.000000,725.000000) scale(0.100000,-0.100000)"
fill="#000000" stroke="none">
<path d="M140 7132 c0 -10 33 -42 43 -42 14 0 6 38 -9 44 -22 8 -34 8 -34 -2z"/>
<path d="M140 6682 c0 -10 33 -42 43 -42 14 0 6 38 -9 44 -22 8 -34 8 -34 -2z"/>
<path d="M100 6602 c0 -12 34 -42 48 -42 19 0 14 28 -7 40 -24 12 -41 13 -41
2z"/>
<path d="M140 6232 c0 -10 33 -42 43 -42 14 0 6 38 -9 44 -22 8 -34 8 -34 -2z"/>
<path d="M100 6152 c0 -12 34 -42 48 -42 19 0 14 28 -7 40 -24 12 -41 13 -41
2z"/>
<path d="M149 6068 c-6 -13 -20 -33 -31 -45 -20 -22 -17 -68 4 -61 8 3 58 110
58 125 0 12 -21 -1 -31 -19z"/>
<path d="M286 5796 c-27 -7 -51 -17 -54 -24 -4 -14 1 -14 50 -3 35 8 37 8 27
-11 -6 -11 -8 -22 -5 -25 4 -4 47 21 76 45 6 4 -31 33 -39 31 -3 -1 -28 -7
-55 -13z"/>
<path d="M140 5782 c0 -10 33 -42 43 -42 14 0 6 38 -9 44 -22 8 -34 8 -34 -2z"/>
<path d="M100 5702 c0 -12 34 -42 48 -42 19 0 14 28 -7 40 -24 12 -41 13 -41
2z"/>
<path d="M149 5618 c-6 -13 -20 -33 -31 -45 -20 -22 -17 -68 4 -61 8 3 58 110
58 125 0 12 -21 -1 -31 -19z"/>
<path d="M286 5346 c-27 -7 -51 -17 -54 -24 -4 -14 1 -14 50 -3 35 8 37 7 27
-10 -5 -10 -19 -19 -29 -19 -26 0 -25 -15 2 -34 31 -22 38 -20 38 8 0 17 10
31 30 43 17 9 30 21 30 25 0 7 -35 29 -42 27 -2 -1 -25 -7 -52 -13z"/>
<path d="M140 5332 c0 -10 33 -42 43 -42 14 0 6 38 -9 44 -22 8 -34 8 -34 -2z"/>
<path d="M100 5252 c0 -12 34 -42 48 -42 19 0 14 28 -7 40 -24 12 -41 13 -41
2z"/>
<path d="M149 5168 c-6 -13 -20 -33 -31 -45 -20 -22 -17 -68 4 -61 8 3 58 110
58 125 0 12 -21 -1 -31 -19z"/>
<path d="M286 4896 c-27 -7 -51 -17 -54 -24 -4 -14 1 -14 50 -3 35 8 37 7 27
-10 -5 -10 -19 -19 -29 -19 -26 0 -25 -15 2 -34 31 -22 38 -20 38 8 0 17 10
31 30 43 17 9 30 21 30 25 0 7 -35 29 -42 27 -2 -1 -25 -7 -52 -13z"/>
<path d="M140 4882 c0 -10 33 -42 43 -42 14 0 6 38 -9 44 -22 8 -34 8 -34 -2z"/>
<path d="M100 4802 c0 -12 34 -42 48 -42 19 0 14 28 -7 40 -24 12 -41 13 -41
2z"/>
<path d="M210 4753 c0 -21 -3 -62 -6 -90 -7 -59 11 -77 20 -20 13 82 13 147
-1 147 -8 0 -13 -13 -13 -37z"/>
<path d="M149 4718 c-6 -13 -20 -33 -31 -45 -20 -22 -17 -68 4 -61 8 3 58 110
58 125 0 12 -21 -1 -31 -19z"/>
<path d="M286 4446 c-27 -7 -51 -17 -54 -24 -4 -14 1 -14 50 -3 35 8 37 7 27
-10 -5 -10 -19 -19 -29 -19 -21 0 -27 -15 -10 -25 17 -11 0 -25 -29 -25 -28 0
-28 0 -35 -86 -3 -48 -4 -89 -1 -92 12 -12 20 14 23 79 5 79 10 84 93 90 l44
4 0 -75 c0 -66 -2 -75 -17 -72 -23 4 -22 -7 2 -38 20 -24 21 -25 35 -6 10 13
16 46 17 98 1 43 2 86 2 96 1 14 -7 17 -41 16 -35 -1 -43 3 -43 17 0 10 14 26
30 36 17 9 30 21 30 25 0 7 -35 29 -42 27 -2 -1 -25 -7 -52 -13z"/>
<path d="M140 4432 c0 -10 33 -42 43 -42 14 0 6 38 -9 44 -22 8 -34 8 -34 -2z"/>
<path d="M100 4352 c0 -12 34 -42 48 -42 19 0 14 28 -7 40 -24 12 -41 13 -41
2z"/>
<path d="M149 4268 c-6 -13 -20 -33 -31 -45 -20 -22 -17 -68 4 -61 8 3 58 110
58 125 0 12 -21 -1 -31 -19z"/>
<path d="M286 3996 c-27 -7 -51 -17 -54 -24 -4 -14 1 -14 50 -3 35 8 37 7 27
-10 -5 -10 -19 -19 -29 -19 -21 0 -27 -15 -10 -25 17 -11 0 -25 -29 -25 -28 0
-28 0 -35 -86 -3 -48 -4 -89 -1 -92 10 -11 18 9 23 58 4 48 6 50 36 50 17 0
48 3 69 7 l38 6 -3 -49 c-2 -40 -6 -48 -20 -46 -23 4 -22 -7 2 -38 20 -24 21
-25 35 -6 10 13 16 46 17 98 1 43 2 86 2 96 1 14 -7 17 -41 16 -35 -1 -43 3
-43 17 0 10 14 26 30 36 17 9 30 21 30 25 0 7 -35 29 -42 27 -2 -1 -25 -7 -52
-13z m84 -130 c0 -13 -127 -33 -138 -21 -12 12 19 27 69 34 59 8 69 6 69 -13z"/>
<path d="M140 3982 c0 -10 33 -42 43 -42 14 0 6 38 -9 44 -22 8 -34 8 -34 -2z"/>
<path d="M100 3902 c0 -12 34 -42 48 -42 19 0 14 28 -7 40 -24 12 -41 13 -41
2z"/>
<path d="M149 3818 c-6 -13 -20 -33 -31 -45 -20 -22 -17 -68 4 -61 8 3 58 110
58 125 0 12 -21 -1 -31 -19z"/>
<path d="M286 3546 c-27 -7 -51 -17 -54 -24 -4 -14 1 -14 50 -3 35 8 37 7 27
-10 -5 -10 -19 -19 -29 -19 -21 0 -27 -15 -10 -25 18 -11 0 -25 -31 -25 -27 0
-29 -3 -29 -37 0 -21 -3 -62 -6 -90 -7 -58 9 -76 21 -24 6 27 11 31 53 36 26
3 57 7 70 9 20 3 23 0 20 -23 -2 -18 -8 -25 -20 -23 -23 4 -22 -7 2 -38 20
-24 21 -25 35 -6 10 13 16 46 17 98 1 43 2 86 2 96 1 14 -7 17 -41 16 -35 -1
-43 3 -43 17 0 10 14 26 30 36 17 9 30 21 30 25 0 7 -35 29 -42 27 -2 -1 -25
-7 -52 -13z m84 -130 c0 -13 -127 -33 -138 -21 -12 12 19 27 69 34 59 8 69 6
69 -13z m0 -45 c0 -6 -21 -13 -47 -16 -27 -3 -58 -8 -70 -11 -16 -3 -23 0 -23
10 0 11 14 16 48 19 26 2 57 4 70 5 12 1 22 -2 22 -7z"/>
<path d="M140 3532 c0 -10 33 -42 43 -42 14 0 6 38 -9 44 -22 8 -34 8 -34 -2z"/>
<path d="M100 3452 c0 -12 34 -42 48 -42 19 0 14 28 -7 40 -24 12 -41 13 -41
2z"/>
<path d="M149 3368 c-6 -13 -20 -33 -31 -45 -20 -22 -17 -68 4 -61 8 3 58 110
58 125 0 12 -21 -1 -31 -19z"/>
<path d="M286 3096 c-27 -7 -51 -17 -54 -24 -4 -14 1 -14 50 -3 35 8 37 7 27
-10 -5 -10 -19 -19 -29 -19 -21 0 -27 -15 -10 -25 18 -11 0 -25 -31 -25 -27 0
-29 -3 -29 -37 0 -21 -3 -62 -6 -90 -7 -57 9 -76 21 -24 4 20 13 30 31 34 22
4 24 1 24 -34 0 -51 18 -50 26 0 5 34 10 40 36 43 26 4 29 2 26 -21 -2 -18 -8
-25 -20 -23 -23 4 -22 -7 2 -38 20 -24 21 -25 35 -6 10 13 16 46 17 98 1 43 2
86 2 96 1 14 -7 17 -41 16 -35 -1 -43 3 -43 17 0 10 14 26 30 36 17 9 30 21
30 25 0 7 -35 29 -42 27 -2 -1 -25 -7 -52 -13z m84 -132 c0 -9 -11 -14 -30
-14 -36 0 -42 27 -7 32 28 5 37 1 37 -18z m-90 -4 c0 -15 -7 -20 -25 -20 -40
0 -25 27 23 39 1 1 2 -8 2 -19z m90 -39 c0 -8 -52 -23 -59 -16 -1 2 0 8 4 14
8 13 55 15 55 2z m-90 -11 c0 -5 -4 -10 -9 -10 -5 0 -16 -3 -25 -6 -11 -4 -16
-1 -16 10 0 10 9 16 25 16 14 0 25 -4 25 -10z"/>
<path d="M140 3082 c0 -10 33 -42 43 -42 14 0 6 38 -9 44 -22 8 -34 8 -34 -2z"/>
<path d="M100 3002 c0 -12 34 -42 48 -42 19 0 14 28 -7 40 -24 12 -41 13 -41
2z"/>
<path d="M149 2918 c-6 -13 -20 -33 -31 -45 -20 -22 -17 -68 4 -61 8 3 58 110
58 125 0 12 -21 -1 -31 -19z"/>
</g>
</svg>
