<?xml version="1.0" standalone="no"?>
<!DOCTYPE svg PUBLIC "-//W3C//DTD SVG 20010904//EN"
 "http://www.w3.org/TR/2001/REC-SVG-20010904/DTD/svg10.dtd">
<svg version="1.0" xmlns="http://www.w3.org/2000/svg"
 width="50.000000pt" height="725.000000pt" viewBox="0 0 50.000000 725.000000"
 preserveAspectRatio="xMidYMid meet">
<metadata>
Created by potrace 1.16, written by Peter Selinger 2001-2019
</metadata>
<g transform="translate(0.000000,725.000000) scale(0.100000,-0.100000)"
fill="#000000" stroke="none">
<path d="M142 7108 c6 -16 36 -34 44 -26 3 4 4 14 1 23 -7 17 -51 21 -45 3z"/>
<path d="M142 6658 c6 -16 36 -34 44 -26 3 4 4 14 1 23 -7 17 -51 21 -45 3z"/>
<path d="M100 6587 c0 -17 20 -37 37 -37 20 0 15 28 -6 40 -26 13 -31 13 -31
-3z"/>
<path d="M142 6208 c6 -16 36 -34 44 -26 3 4 4 14 1 23 -7 17 -51 21 -45 3z"/>
<path d="M100 6137 c0 -17 20 -37 37 -37 20 0 15 28 -6 40 -26 13 -31 13 -31
-3z"/>
<path d="M155 6081 c-3 -10 -17 -31 -31 -46 -25 -27 -29 -65 -8 -72 9 -3 64
108 64 130 0 15 -19 6 -25 -12z"/>
<path d="M220 5782 c0 -5 6 -17 14 -28 12 -15 17 -16 27 -7 10 10 9 15 -1 28
-13 16 -40 21 -40 7z"/>
<path d="M142 5758 c6 -16 36 -34 44 -26 3 4 4 14 1 23 -7 17 -51 21 -45 3z"/>
<path d="M100 5687 c0 -17 20 -37 37 -37 20 0 15 28 -6 40 -26 13 -31 13 -31
-3z"/>
<path d="M155 5631 c-3 -10 -17 -31 -31 -46 -25 -27 -29 -65 -8 -72 9 -3 64
108 64 130 0 15 -19 6 -25 -12z"/>
<path d="M309 5344 c-5 -15 -7 -29 -4 -32 7 -8 45 29 45 45 0 23 -30 14 -41
-13z"/>
<path d="M220 5332 c0 -5 6 -17 14 -28 12 -15 17 -16 27 -7 10 10 9 15 -1 28
-13 16 -40 21 -40 7z"/>
<path d="M142 5308 c6 -16 36 -34 44 -26 3 4 4 14 1 23 -7 17 -51 21 -45 3z"/>
<path d="M100 5237 c0 -17 20 -37 37 -37 20 0 15 28 -6 40 -26 13 -31 13 -31
-3z"/>
<path d="M155 5181 c-3 -10 -17 -31 -31 -46 -25 -27 -29 -65 -8 -72 9 -3 64
108 64 130 0 15 -19 6 -25 -12z"/>
<path d="M309 4894 c-5 -15 -7 -29 -4 -32 7 -8 45 29 45 45 0 23 -30 14 -41
-13z"/>
<path d="M220 4882 c0 -4 7 -18 16 -30 14 -21 14 -22 -5 -22 -12 0 -21 -5 -21
-11 0 -8 11 -9 31 -5 17 3 38 6 45 6 8 0 14 5 14 10 0 6 -9 10 -21 10 -11 0
-17 4 -14 10 4 6 1 17 -5 25 -13 16 -40 20 -40 7z"/>
<path d="M142 4858 c6 -16 36 -34 44 -26 3 4 4 14 1 23 -7 17 -51 21 -45 3z"/>
<path d="M310 4841 c0 -6 5 -13 10 -16 6 -3 10 -15 10 -26 0 -10 4 -19 8 -19
13 0 35 47 28 59 -9 13 -56 15 -56 2z"/>
<path d="M100 4787 c0 -17 20 -37 37 -37 20 0 15 28 -6 40 -26 13 -31 13 -31
-3z"/>
<path d="M155 4731 c-3 -10 -17 -31 -31 -46 -25 -27 -29 -65 -8 -72 9 -3 64
108 64 130 0 15 -19 6 -25 -12z"/>
<path d="M309 4444 c-5 -15 -7 -29 -4 -32 7 -8 45 29 45 45 0 23 -30 14 -41
-13z"/>
<path d="M220 4432 c0 -4 7 -18 16 -30 14 -21 14 -22 -5 -22 -12 0 -21 -5 -21
-11 0 -8 11 -9 31 -5 17 3 38 6 45 6 8 0 14 5 14 10 0 6 -9 10 -21 10 -11 0
-17 4 -14 10 4 6 1 17 -5 25 -13 16 -40 20 -40 7z"/>
<path d="M142 4408 c6 -16 36 -34 44 -26 3 4 4 14 1 23 -7 17 -51 21 -45 3z"/>
<path d="M310 4392 c0 -4 6 -14 12 -20 18 -18 -5 -30 -74 -38 -32 -4 -58 -11
-58 -16 0 -10 116 -3 145 9 18 6 38 49 31 62 -8 13 -56 15 -56 3z"/>
<path d="M100 4337 c0 -17 20 -37 37 -37 20 0 15 28 -6 40 -26 13 -31 13 -31
-3z"/>
<path d="M155 4281 c-3 -10 -17 -31 -31 -46 -25 -27 -29 -65 -8 -72 9 -3 64
108 64 130 0 15 -19 6 -25 -12z"/>
<path d="M309 3994 c-5 -15 -7 -29 -4 -32 7 -8 45 29 45 45 0 23 -30 14 -41
-13z"/>
<path d="M220 3982 c0 -4 7 -18 16 -30 14 -21 14 -22 -5 -22 -12 0 -21 -5 -21
-11 0 -8 11 -9 31 -5 17 3 38 6 45 6 8 0 14 5 14 10 0 6 -9 10 -21 10 -11 0
-17 4 -14 10 4 6 1 17 -5 25 -13 16 -40 20 -40 7z"/>
<path d="M142 3958 c6 -16 36 -34 44 -26 3 4 4 14 1 23 -7 17 -51 21 -45 3z"/>
<path d="M310 3943 c0 -5 6 -15 12 -21 18 -18 -5 -30 -75 -38 -51 -6 -57 -9
-51 -26 3 -10 0 -26 -7 -34 -21 -25 2 -35 46 -19 57 20 135 20 135 -1 0 -9 -9
-18 -20 -21 -11 -3 -20 -9 -20 -13 0 -14 29 -32 43 -27 18 7 41 87 29 99 -6 6
-40 5 -92 -2 -45 -6 -85 -9 -88 -5 -12 11 16 26 67 34 53 8 83 32 78 61 -2 16
-57 28 -57 13z"/>
<path d="M100 3887 c0 -17 20 -37 37 -37 20 0 15 28 -6 40 -26 13 -31 13 -31
-3z"/>
<path d="M155 3831 c-3 -10 -17 -31 -31 -46 -25 -27 -29 -65 -8 -72 9 -3 64
108 64 130 0 15 -19 6 -25 -12z"/>
<path d="M309 3544 c-5 -15 -7 -29 -4 -32 7 -8 45 29 45 45 0 23 -30 14 -41
-13z"/>
<path d="M220 3532 c0 -4 7 -18 16 -30 14 -21 14 -22 -5 -22 -12 0 -21 -5 -21
-11 0 -6 12 -9 28 -7 19 2 27 -2 27 -12 0 -10 -12 -16 -38 -18 -33 -3 -37 -6
-32 -23 4 -11 1 -27 -6 -35 -18 -22 2 -39 29 -25 46 25 54 16 50 -56 -2 -46 1
-67 10 -70 9 -4 12 15 12 71 l0 76 40 0 c30 0 40 -4 40 -16 0 -9 -9 -18 -20
-21 -24 -6 -25 -16 -5 -33 23 -19 40 -6 54 39 16 56 9 63 -55 55 -44 -5 -54
-4 -54 9 0 8 12 17 28 20 29 6 59 47 48 66 -8 13 -56 15 -56 3 0 -4 6 -14 12
-20 10 -10 10 -15 -2 -22 -23 -15 -28 -12 -22 15 3 20 0 25 -17 25 -13 0 -19
4 -16 10 4 6 1 17 -5 25 -13 16 -40 20 -40 7z m47 -137 c-7 -17 -47 -21 -47
-5 0 11 41 31 49 24 2 -2 1 -10 -2 -19z"/>
<path d="M142 3508 c6 -16 36 -34 44 -26 3 4 4 14 1 23 -7 17 -51 21 -45 3z"/>
<path d="M100 3437 c0 -17 20 -37 37 -37 20 0 15 28 -6 40 -26 13 -31 13 -31
-3z"/>
<path d="M155 3381 c-3 -10 -17 -31 -31 -46 -25 -27 -29 -65 -8 -72 9 -3 64
108 64 130 0 15 -19 6 -25 -12z"/>
<path d="M309 3094 c-5 -15 -7 -29 -4 -32 7 -8 45 29 45 45 0 23 -30 14 -41
-13z"/>
<path d="M220 3082 c0 -4 7 -18 16 -30 14 -21 14 -22 -5 -22 -12 0 -21 -5 -21
-11 0 -6 12 -9 28 -7 19 2 27 -2 27 -12 0 -10 -12 -16 -38 -18 -33 -3 -37 -6
-32 -23 4 -11 1 -27 -6 -35 -19 -22 3 -39 31 -24 35 19 33 5 -5 -28 -19 -17
-35 -34 -35 -37 0 -13 32 -2 60 21 l31 26 -3 -52 c-2 -36 1 -54 10 -57 9 -4
12 15 12 71 l0 76 40 0 c30 0 40 -4 40 -16 0 -9 -9 -18 -20 -21 -24 -6 -25
-16 -5 -33 23 -19 40 -6 54 39 16 56 9 63 -55 55 -44 -5 -54 -4 -54 9 0 8 12
17 28 20 29 6 59 47 48 66 -8 13 -56 15 -56 3 0 -4 6 -14 12 -20 10 -10 10
-15 -2 -22 -23 -15 -28 -12 -22 15 3 20 0 25 -17 25 -13 0 -19 4 -16 10 4 6 1
17 -5 25 -13 16 -40 20 -40 7z m47 -137 c-7 -17 -47 -21 -47 -5 0 11 41 31 49
24 2 -2 1 -10 -2 -19z"/>
<path d="M142 3058 c6 -16 36 -34 44 -26 3 4 4 14 1 23 -7 17 -51 21 -45 3z"/>
<path d="M100 2987 c0 -17 20 -37 37 -37 20 0 15 28 -6 40 -26 13 -31 13 -31
-3z"/>
<path d="M155 2931 c-3 -10 -17 -31 -31 -46 -25 -27 -29 -65 -8 -72 9 -3 64
108 64 130 0 15 -19 6 -25 -12z"/>
</g>
</svg>
