<?xml version="1.0" standalone="no"?>
<!DOCTYPE svg PUBLIC "-//W3C//DTD SVG 20010904//EN"
 "http://www.w3.org/TR/2001/REC-SVG-20010904/DTD/svg10.dtd">
<svg version="1.0" xmlns="http://www.w3.org/2000/svg"
 width="50.000000pt" height="725.000000pt" viewBox="0 0 50.000000 725.000000"
 preserveAspectRatio="xMidYMid meet">
<metadata>
Created by potrace 1.16, written by Peter Selinger 2001-2019
</metadata>
<g transform="translate(0.000000,725.000000) scale(0.100000,-0.100000)"
fill="#000000" stroke="none">
<path d="M140 7131 c0 -12 29 -41 41 -41 16 0 10 38 -7 44 -22 9 -34 7 -34 -3z"/>
<path d="M140 6681 c0 -12 29 -41 41 -41 16 0 10 38 -7 44 -22 9 -34 7 -34 -3z"/>
<path d="M100 6597 c0 -17 20 -37 37 -37 20 0 15 28 -6 40 -26 13 -31 13 -31
-3z"/>
<path d="M140 6231 c0 -12 29 -41 41 -41 16 0 10 38 -7 44 -22 9 -34 7 -34 -3z"/>
<path d="M100 6147 c0 -17 20 -37 37 -37 20 0 15 28 -6 40 -26 13 -31 13 -31
-3z"/>
<path d="M132 6053 c-24 -33 -32 -52 -28 -69 4 -13 10 -24 14 -24 7 0 62 120
62 135 0 15 -19 -2 -48 -42z"/>
<path d="M260 5795 c0 -16 26 -55 37 -55 18 0 16 47 -3 54 -19 7 -34 8 -34 1z"/>
<path d="M140 5781 c0 -12 29 -41 41 -41 16 0 10 38 -7 44 -22 9 -34 7 -34 -3z"/>
<path d="M100 5697 c0 -17 20 -37 37 -37 20 0 15 28 -6 40 -26 13 -31 13 -31
-3z"/>
<path d="M132 5603 c-24 -33 -32 -52 -28 -69 4 -13 10 -24 14 -24 7 0 62 120
62 135 0 15 -19 -2 -48 -42z"/>
<path d="M264 5335 c3 -8 8 -21 12 -29 4 -9 -7 -15 -36 -19 -44 -6 -58 -13
-47 -23 4 -4 32 -2 63 5 32 6 79 11 106 11 38 0 48 3 48 16 0 14 -9 16 -50 12
-43 -4 -50 -3 -50 12 0 10 -7 21 -16 24 -26 10 -36 7 -30 -9z"/>
<path d="M140 5331 c0 -12 29 -41 41 -41 16 0 10 38 -7 44 -22 9 -34 7 -34 -3z"/>
<path d="M100 5247 c0 -17 20 -37 37 -37 20 0 15 28 -6 40 -26 13 -31 13 -31
-3z"/>
<path d="M132 5153 c-24 -33 -32 -52 -28 -69 4 -13 10 -24 14 -24 7 0 62 120
62 135 0 15 -19 -2 -48 -42z"/>
<path d="M264 4885 c3 -8 8 -21 12 -29 4 -9 -7 -15 -36 -19 -44 -6 -58 -13
-47 -23 4 -4 32 -2 63 5 32 6 79 11 106 11 38 0 48 3 48 16 0 14 -9 16 -50 12
-43 -4 -50 -3 -50 12 0 10 -7 21 -16 24 -26 10 -36 7 -30 -9z"/>
<path d="M140 4881 c0 -12 29 -41 41 -41 16 0 10 38 -7 44 -22 9 -34 7 -34 -3z"/>
<path d="M100 4797 c0 -17 20 -37 37 -37 20 0 15 28 -6 40 -26 13 -31 13 -31
-3z"/>
<path d="M224 4764 c3 -9 6 -24 6 -35 0 -10 5 -19 10 -19 6 0 10 16 10 35 0
25 -4 35 -16 35 -11 0 -14 -5 -10 -16z"/>
<path d="M132 4703 c-24 -33 -32 -52 -28 -69 4 -13 10 -24 14 -24 7 0 62 120
62 135 0 15 -19 -2 -48 -42z"/>
<path d="M264 4435 c3 -8 8 -21 12 -29 4 -9 -7 -15 -36 -19 -44 -6 -58 -13
-47 -23 4 -4 32 -2 63 5 32 6 79 11 106 11 38 0 48 3 48 16 0 14 -9 16 -50 12
-43 -4 -50 -3 -50 12 0 10 -7 21 -16 24 -26 10 -36 7 -30 -9z"/>
<path d="M140 4431 c0 -12 29 -41 41 -41 16 0 10 38 -7 44 -22 9 -34 7 -34 -3z"/>
<path d="M100 4347 c0 -17 20 -37 37 -37 20 0 15 28 -6 40 -26 13 -31 13 -31
-3z"/>
<path d="M300 4340 c0 -5 5 -10 10 -10 6 0 10 -11 10 -25 0 -32 13 -32 35 1
14 22 15 28 4 35 -19 12 -59 11 -59 -1z"/>
<path d="M234 4332 c-13 -8 -7 -72 7 -72 5 0 9 14 9 30 0 23 4 30 20 30 11 0
20 5 20 10 0 12 -40 13 -56 2z"/>
<path d="M132 4253 c-24 -33 -32 -52 -28 -69 4 -13 10 -24 14 -24 7 0 62 120
62 135 0 15 -19 -2 -48 -42z"/>
<path d="M264 3985 c3 -8 8 -21 12 -29 4 -9 -7 -15 -36 -19 -44 -6 -58 -13
-47 -23 4 -4 32 -2 63 5 32 6 79 11 106 11 38 0 48 3 48 16 0 14 -9 16 -50 12
-43 -4 -50 -3 -50 12 0 10 -7 21 -16 24 -26 10 -36 7 -30 -9z"/>
<path d="M140 3981 c0 -12 29 -41 41 -41 16 0 10 38 -7 44 -22 9 -34 7 -34 -3z"/>
<path d="M100 3897 c0 -17 20 -37 37 -37 20 0 15 28 -6 40 -26 13 -31 13 -31
-3z"/>
<path d="M300 3891 c0 -5 5 -11 12 -13 6 -2 9 -12 5 -21 -8 -22 -67 -24 -67
-2 0 8 9 15 20 15 11 0 20 5 20 10 0 12 -40 13 -56 2 -7 -4 -9 -21 -6 -40 4
-29 8 -33 26 -28 11 3 38 6 59 6 29 0 37 4 37 18 0 10 6 24 12 30 10 10 10 15
-2 22 -19 12 -60 13 -60 1z"/>
<path d="M132 3803 c-24 -33 -32 -52 -28 -69 4 -13 10 -24 14 -24 7 0 62 120
62 135 0 15 -19 -2 -48 -42z"/>
<path d="M264 3535 c3 -8 8 -21 12 -29 4 -9 -7 -15 -36 -19 -44 -6 -58 -13
-47 -23 4 -4 32 -2 63 5 32 6 79 11 106 11 38 0 48 3 48 16 0 14 -9 16 -50 12
-43 -4 -50 -3 -50 12 0 10 -7 21 -16 24 -26 10 -36 7 -30 -9z"/>
<path d="M140 3531 c0 -12 29 -41 41 -41 16 0 10 38 -7 44 -22 9 -34 7 -34 -3z"/>
<path d="M100 3447 c0 -17 20 -37 37 -37 20 0 15 28 -6 40 -26 13 -31 13 -31
-3z"/>
<path d="M300 3441 c0 -5 5 -11 12 -13 6 -2 9 -12 5 -21 -8 -22 -67 -24 -67
-2 0 8 9 15 20 15 11 0 20 5 20 10 0 12 -40 13 -56 2 -7 -4 -9 -21 -7 -40 4
-27 9 -32 27 -30 18 3 21 -2 21 -37 0 -33 -3 -39 -17 -37 -10 2 -18 -1 -18 -6
0 -12 34 -42 48 -42 11 0 25 54 22 81 -5 34 1 49 20 49 13 0 20 7 20 18 0 10
6 24 12 30 10 10 10 15 -2 22 -19 12 -60 13 -60 1z"/>
<path d="M132 3353 c-24 -33 -32 -52 -28 -69 4 -13 10 -24 14 -24 7 0 62 120
62 135 0 15 -19 -2 -48 -42z"/>
<path d="M264 3085 c3 -8 8 -21 12 -29 4 -9 -7 -15 -36 -19 -44 -6 -58 -13
-47 -23 4 -4 32 -2 63 5 32 6 79 11 106 11 38 0 48 3 48 16 0 14 -9 16 -50 12
-43 -4 -50 -3 -50 12 0 10 -7 21 -16 24 -26 10 -36 7 -30 -9z"/>
<path d="M140 3081 c0 -12 29 -41 41 -41 16 0 10 38 -7 44 -22 9 -34 7 -34 -3z"/>
<path d="M100 2997 c0 -17 20 -37 37 -37 20 0 15 28 -6 40 -26 13 -31 13 -31
-3z"/>
<path d="M300 2991 c0 -5 5 -11 12 -13 6 -2 9 -12 5 -21 -8 -22 -67 -24 -67
-2 0 8 9 15 20 15 11 0 20 5 20 10 0 12 -40 13 -56 2 -7 -4 -9 -21 -7 -40 4
-27 9 -32 27 -30 18 3 21 -2 21 -37 0 -33 -3 -39 -17 -37 -10 2 -18 -1 -18 -6
0 -12 34 -42 48 -42 11 0 25 54 22 81 -5 34 1 49 20 49 13 0 20 7 20 18 0 10
6 24 12 30 10 10 10 15 -2 22 -19 12 -60 13 -60 1z"/>
<path d="M132 2903 c-24 -33 -32 -52 -28 -69 4 -13 10 -24 14 -24 7 0 62 120
62 135 0 15 -19 -2 -48 -42z"/>
<path d="M197 2864 c-10 -20 -15 -39 -12 -42 9 -9 55 40 55 60 0 30 -24 20
-43 -18z"/>
<path d="M264 2635 c3 -8 8 -21 12 -29 4 -9 -7 -15 -36 -19 -44 -6 -58 -13
-47 -23 4 -4 32 -2 63 5 32 6 79 11 106 11 38 0 48 3 48 16 0 14 -9 16 -50 12
-43 -4 -50 -3 -50 12 0 10 -7 21 -16 24 -26 10 -36 7 -30 -9z"/>
<path d="M140 2631 c0 -12 29 -41 41 -41 16 0 10 38 -7 44 -22 9 -34 7 -34 -3z"/>
<path d="M100 2547 c0 -17 20 -37 37 -37 20 0 15 28 -6 40 -26 13 -31 13 -31
-3z"/>
<path d="M300 2541 c0 -5 5 -11 12 -13 6 -2 9 -12 5 -21 -8 -22 -67 -24 -67
-2 0 8 9 15 20 15 11 0 20 5 20 10 0 12 -40 13 -56 2 -7 -4 -9 -21 -7 -40 4
-27 9 -32 27 -30 18 3 21 -2 21 -37 0 -33 -3 -39 -17 -37 -10 2 -18 -1 -18 -6
0 -12 34 -42 48 -42 11 0 25 54 22 81 -5 34 1 49 20 49 13 0 20 7 20 18 0 10
6 24 12 30 10 10 10 15 -2 22 -19 12 -60 13 -60 1z"/>
<path d="M132 2453 c-24 -33 -32 -52 -28 -69 4 -13 10 -24 14 -24 7 0 62 120
62 135 0 15 -19 -2 -48 -42z"/>
<path d="M197 2414 c-10 -20 -15 -39 -12 -42 9 -9 55 40 55 60 0 30 -24 20
-43 -18z"/>
<path d="M350 2440 c0 -19 32 -60 46 -60 22 0 16 37 -8 54 -26 19 -38 20 -38
6z"/>
</g>
</svg>
