<?xml version="1.0" standalone="no"?>
<!DOCTYPE svg PUBLIC "-//W3C//DTD SVG 20010904//EN"
 "http://www.w3.org/TR/2001/REC-SVG-20010904/DTD/svg10.dtd">
<svg version="1.0" xmlns="http://www.w3.org/2000/svg"
 width="50.000000pt" height="725.000000pt" viewBox="0 0 50.000000 725.000000"
 preserveAspectRatio="xMidYMid meet">
<metadata>
Created by potrace 1.16, written by Peter Selinger 2001-2019
</metadata>
<g transform="translate(0.000000,725.000000) scale(0.100000,-0.100000)"
fill="#000000" stroke="none">
<path d="M110 7132 c0 -10 33 -42 44 -42 4 0 6 10 4 23 -2 14 -11 23 -25 25
-13 2 -23 -1 -23 -6z"/>
<path d="M110 6682 c0 -10 33 -42 44 -42 4 0 6 10 4 23 -2 14 -11 23 -25 25
-13 2 -23 -1 -23 -6z"/>
<path d="M82 6598 c6 -16 36 -34 44 -26 3 4 4 14 1 23 -7 17 -51 21 -45 3z"/>
<path d="M110 6232 c0 -10 33 -42 44 -42 4 0 6 10 4 23 -2 14 -11 23 -25 25
-13 2 -23 -1 -23 -6z"/>
<path d="M82 6148 c6 -16 36 -34 44 -26 3 4 4 14 1 23 -7 17 -51 21 -45 3z"/>
<path d="M130 6091 c0 -5 -12 -23 -26 -40 -15 -18 -24 -40 -22 -53 6 -40 23
-29 46 30 25 65 26 72 12 72 -5 0 -10 -4 -10 -9z"/>
<path d="M181 5764 c-14 -39 -10 -50 14 -41 9 4 15 19 15 42 0 45 -12 45 -29
-1z"/>
<path d="M110 5782 c0 -10 33 -42 44 -42 4 0 6 10 4 23 -2 14 -11 23 -25 25
-13 2 -23 -1 -23 -6z"/>
<path d="M82 5698 c6 -16 36 -34 44 -26 3 4 4 14 1 23 -7 17 -51 21 -45 3z"/>
<path d="M130 5641 c0 -5 -12 -23 -26 -40 -15 -18 -24 -40 -22 -53 6 -40 23
-29 46 30 25 65 26 72 12 72 -5 0 -10 -4 -10 -9z"/>
<path d="M182 5317 c-15 -43 -15 -47 3 -47 9 0 19 8 22 18 9 22 23 32 51 32
12 0 22 5 22 11 0 7 -12 9 -30 7 -17 -3 -33 -1 -36 4 -10 16 -20 8 -32 -25z"/>
<path d="M300 5340 c0 -5 9 -10 21 -10 16 0 19 -4 14 -21 -6 -18 -4 -20 17
-14 35 11 43 22 28 40 -14 17 -80 21 -80 5z"/>
<path d="M110 5332 c0 -10 33 -42 44 -42 4 0 6 10 4 23 -2 14 -11 23 -25 25
-13 2 -23 -1 -23 -6z"/>
<path d="M82 5248 c6 -16 36 -34 44 -26 3 4 4 14 1 23 -7 17 -51 21 -45 3z"/>
<path d="M130 5191 c0 -5 -12 -23 -26 -40 -15 -18 -24 -40 -22 -53 6 -40 23
-29 46 30 25 65 26 72 12 72 -5 0 -10 -4 -10 -9z"/>
<path d="M182 4867 c-15 -43 -15 -47 3 -47 9 0 19 8 22 18 9 22 23 32 51 32
12 0 22 5 22 11 0 7 -12 9 -30 7 -17 -3 -33 -1 -36 4 -10 16 -20 8 -32 -25z"/>
<path d="M300 4890 c0 -5 9 -10 21 -10 16 0 19 -4 14 -21 -6 -18 -4 -20 17
-14 35 11 43 22 28 40 -14 17 -80 21 -80 5z"/>
<path d="M110 4882 c0 -10 33 -42 44 -42 4 0 6 10 4 23 -2 14 -11 23 -25 25
-13 2 -23 -1 -23 -6z"/>
<path d="M212 4823 c-12 -19 -21 -37 -19 -40 16 -15 74 48 62 67 -10 16 -19
11 -43 -27z"/>
<path d="M82 4798 c6 -16 36 -34 44 -26 3 4 4 14 1 23 -7 17 -51 21 -45 3z"/>
<path d="M130 4741 c0 -5 -12 -23 -26 -40 -15 -18 -24 -40 -22 -53 6 -40 23
-29 46 30 25 65 26 72 12 72 -5 0 -10 -4 -10 -9z"/>
<path d="M182 4417 c-15 -43 -15 -47 3 -47 9 0 19 8 22 18 9 22 23 32 50 32
17 0 24 -7 29 -27 11 -50 13 -53 49 -53 41 0 47 17 8 22 -22 2 -29 9 -31 31
-2 15 -9 27 -18 27 -8 0 -14 5 -14 11 0 7 -12 9 -30 7 -17 -3 -33 -1 -36 4
-10 16 -20 8 -32 -25z"/>
<path d="M300 4440 c0 -5 9 -10 21 -10 16 0 19 -4 14 -21 -6 -18 -4 -20 17
-14 35 11 43 22 28 40 -14 17 -80 21 -80 5z"/>
<path d="M110 4432 c0 -10 33 -42 44 -42 4 0 6 10 4 23 -2 14 -11 23 -25 25
-13 2 -23 -1 -23 -6z"/>
<path d="M212 4373 c-12 -19 -21 -37 -19 -40 16 -15 74 48 62 67 -10 16 -19
11 -43 -27z"/>
<path d="M82 4348 c6 -16 36 -34 44 -26 3 4 4 14 1 23 -7 17 -51 21 -45 3z"/>
<path d="M130 4291 c0 -5 -12 -23 -26 -40 -15 -18 -24 -40 -22 -53 6 -40 23
-29 46 30 25 65 26 72 12 72 -5 0 -10 -4 -10 -9z"/>
<path d="M182 3967 c-15 -43 -15 -47 3 -47 9 0 19 8 22 18 9 22 23 32 50 32
17 0 24 -7 29 -27 11 -50 13 -53 49 -53 41 0 47 17 8 22 -22 2 -29 9 -31 31
-2 15 -9 27 -18 27 -8 0 -14 5 -14 11 0 7 -12 9 -30 7 -17 -3 -33 -1 -36 4
-10 16 -20 8 -32 -25z"/>
<path d="M300 3990 c0 -5 9 -10 21 -10 16 0 19 -4 14 -21 -6 -18 -4 -20 17
-14 35 11 43 22 28 40 -14 17 -80 21 -80 5z"/>
<path d="M110 3982 c0 -10 33 -42 44 -42 4 0 6 10 4 23 -2 14 -11 23 -25 25
-13 2 -23 -1 -23 -6z"/>
<path d="M212 3923 c-12 -19 -21 -37 -19 -40 16 -15 74 48 62 67 -10 16 -19
11 -43 -27z"/>
<path d="M82 3898 c6 -16 36 -34 44 -26 3 4 4 14 1 23 -7 17 -51 21 -45 3z"/>
<path d="M253 3858 c-123 -15 -104 -31 25 -22 59 3 109 9 112 11 7 6 -23 23
-40 21 -8 0 -52 -5 -97 -10z"/>
<path d="M130 3841 c0 -5 -12 -23 -26 -40 -15 -18 -24 -40 -22 -53 6 -40 23
-29 46 30 25 65 26 72 12 72 -5 0 -10 -4 -10 -9z"/>
<path d="M182 3517 c-15 -43 -15 -47 3 -47 9 0 19 8 22 18 9 22 23 32 50 32
17 0 24 -7 29 -27 11 -50 13 -53 49 -53 41 0 47 17 8 22 -22 2 -29 9 -31 31
-2 15 -9 27 -18 27 -8 0 -14 5 -14 11 0 7 -12 9 -30 7 -17 -3 -33 -1 -36 4
-10 16 -20 8 -32 -25z"/>
<path d="M300 3540 c0 -5 9 -10 21 -10 16 0 19 -4 14 -21 -6 -18 -4 -20 17
-14 35 11 43 22 28 40 -14 17 -80 21 -80 5z"/>
<path d="M110 3532 c0 -10 33 -42 44 -42 4 0 6 10 4 23 -2 14 -11 23 -25 25
-13 2 -23 -1 -23 -6z"/>
<path d="M212 3473 c-12 -19 -21 -37 -19 -40 16 -15 74 48 62 67 -10 16 -19
11 -43 -27z"/>
<path d="M82 3448 c6 -16 36 -34 44 -26 3 4 4 14 1 23 -7 17 -51 21 -45 3z"/>
<path d="M252 3432 c6 -23 -8 -32 -53 -32 -16 0 -29 -4 -29 -10 0 -5 21 -10
46 -10 l46 0 -3 -67 c-3 -47 0 -67 9 -70 9 -4 12 15 12 71 l0 76 55 0 c30 0
55 4 55 9 0 15 -30 21 -70 15 -33 -5 -38 -4 -37 12 1 11 -6 20 -17 22 -15 3
-18 0 -14 -16z"/>
<path d="M130 3391 c0 -5 -12 -23 -26 -40 -15 -18 -24 -40 -22 -53 6 -40 23
-29 46 30 25 65 26 72 12 72 -5 0 -10 -4 -10 -9z"/>
<path d="M182 3067 c-15 -43 -15 -47 3 -47 9 0 19 8 22 18 9 22 23 32 50 32
17 0 24 -7 29 -27 11 -50 13 -53 49 -53 41 0 47 17 8 22 -22 2 -29 9 -31 31
-2 15 -9 27 -18 27 -8 0 -14 5 -14 11 0 7 -12 9 -30 7 -17 -3 -33 -1 -36 4
-10 16 -20 8 -32 -25z"/>
<path d="M300 3090 c0 -5 9 -10 21 -10 16 0 19 -4 14 -21 -6 -18 -4 -20 17
-14 35 11 43 22 28 40 -14 17 -80 21 -80 5z"/>
<path d="M110 3082 c0 -10 33 -42 44 -42 4 0 6 10 4 23 -2 14 -11 23 -25 25
-13 2 -23 -1 -23 -6z"/>
<path d="M212 3023 c-12 -19 -21 -37 -19 -40 16 -15 74 48 62 67 -10 16 -19
11 -43 -27z"/>
<path d="M82 2998 c6 -16 36 -34 44 -26 3 4 4 14 1 23 -7 17 -51 21 -45 3z"/>
<path d="M252 2982 c6 -23 -8 -32 -53 -32 -16 0 -29 -4 -29 -10 0 -5 17 -10
37 -10 l37 0 -37 -38 c-20 -21 -37 -41 -37 -45 0 -16 26 -5 58 26 l34 32 -4
-54 c-2 -37 1 -55 10 -58 9 -4 12 15 12 71 l0 76 55 0 c30 0 55 4 55 9 0 15
-30 21 -70 15 -33 -5 -38 -4 -37 12 1 11 -6 20 -17 22 -15 3 -18 0 -14 -16z"/>
<path d="M130 2941 c0 -5 -12 -23 -26 -40 -15 -18 -24 -40 -22 -53 6 -40 23
-29 46 30 25 65 26 72 12 72 -5 0 -10 -4 -10 -9z"/>
<path d="M182 2617 c-15 -43 -15 -47 3 -47 9 0 19 8 22 18 9 22 23 32 50 32
17 0 24 -7 29 -27 11 -50 13 -53 49 -53 41 0 47 17 8 22 -22 2 -29 9 -31 31
-2 15 -9 27 -18 27 -8 0 -14 5 -14 11 0 7 -12 9 -30 7 -17 -3 -33 -1 -36 4
-10 16 -20 8 -32 -25z"/>
<path d="M300 2640 c0 -5 9 -10 21 -10 16 0 19 -4 14 -21 -6 -18 -4 -20 17
-14 35 11 43 22 28 40 -14 17 -80 21 -80 5z"/>
<path d="M110 2632 c0 -10 33 -42 44 -42 4 0 6 10 4 23 -2 14 -11 23 -25 25
-13 2 -23 -1 -23 -6z"/>
<path d="M212 2573 c-12 -19 -21 -37 -19 -40 16 -15 74 48 62 67 -10 16 -19
11 -43 -27z"/>
<path d="M82 2548 c6 -16 36 -34 44 -26 3 4 4 14 1 23 -7 17 -51 21 -45 3z"/>
<path d="M252 2532 c6 -23 -8 -32 -53 -32 -16 0 -29 -4 -29 -10 0 -5 17 -10
37 -10 l37 0 -37 -38 c-20 -21 -37 -41 -37 -45 0 -16 26 -5 58 26 l34 32 -4
-54 c-2 -37 1 -55 10 -58 9 -4 12 13 12 63 l0 67 36 -46 c40 -51 55 -60 90
-51 31 8 31 20 0 28 -12 3 -43 24 -67 45 l-44 40 48 1 c26 0 47 4 47 9 0 15
-30 21 -70 15 -33 -5 -38 -4 -37 12 1 11 -6 20 -17 22 -15 3 -18 0 -14 -16z"/>
<path d="M130 2491 c0 -5 -12 -23 -26 -40 -15 -18 -24 -40 -22 -53 6 -40 23
-29 46 30 25 65 26 72 12 72 -5 0 -10 -4 -10 -9z"/>
</g>
</svg>
