<?xml version="1.0" standalone="no"?>
<!DOCTYPE svg PUBLIC "-//W3C//DTD SVG 20010904//EN"
 "http://www.w3.org/TR/2001/REC-SVG-20010904/DTD/svg10.dtd">
<svg version="1.0" xmlns="http://www.w3.org/2000/svg"
 width="50.000000pt" height="725.000000pt" viewBox="0 0 50.000000 725.000000"
 preserveAspectRatio="xMidYMid meet">
<metadata>
Created by potrace 1.16, written by Peter Selinger 2001-2019
</metadata>
<g transform="translate(0.000000,725.000000) scale(0.100000,-0.100000)"
fill="#000000" stroke="none">
<path d="M124 7095 c3 -9 6 -19 6 -21 0 -2 9 -4 21 -4 29 0 21 34 -10 38 -19
3 -22 0 -17 -13z"/>
<path d="M124 6645 c3 -9 6 -19 6 -21 0 -2 9 -4 21 -4 29 0 21 34 -10 38 -19
3 -22 0 -17 -13z"/>
<path d="M80 6572 c0 -14 23 -32 42 -32 21 0 23 11 6 28 -13 13 -48 16 -48 4z"/>
<path d="M124 6195 c3 -9 6 -19 6 -21 0 -2 9 -4 21 -4 29 0 21 34 -10 38 -19
3 -22 0 -17 -13z"/>
<path d="M80 6122 c0 -14 23 -32 42 -32 21 0 23 11 6 28 -13 13 -48 16 -48 4z"/>
<path d="M107 6015 c-19 -24 -26 -42 -22 -55 4 -11 10 -20 14 -20 8 0 51 90
51 104 0 15 -17 3 -43 -29z"/>
<path d="M124 5745 c3 -9 6 -19 6 -21 0 -2 9 -4 21 -4 29 0 21 34 -10 38 -19
3 -22 0 -17 -13z"/>
<path d="M290 5750 c-14 -4 -40 -8 -57 -9 -18 -1 -33 -5 -33 -11 0 -5 15 -10
33 -10 54 0 108 12 104 23 -5 15 -17 16 -47 7z"/>
<path d="M80 5672 c0 -14 23 -32 42 -32 21 0 23 11 6 28 -13 13 -48 16 -48 4z"/>
<path d="M107 5565 c-19 -24 -26 -42 -22 -55 4 -11 10 -20 14 -20 8 0 51 90
51 104 0 15 -17 3 -43 -29z"/>
<path d="M235 5329 c-4 -17 -13 -33 -22 -36 -8 -3 -12 -12 -8 -21 3 -8 -6 -30
-21 -49 -14 -19 -23 -37 -20 -40 8 -8 64 45 71 68 4 12 21 19 55 24 47 6 61
17 41 29 -4 3 -22 1 -40 -4 l-32 -9 7 35 c5 27 3 34 -9 34 -9 0 -18 -13 -22
-31z"/>
<path d="M124 5295 c3 -9 6 -19 6 -21 0 -2 9 -4 21 -4 29 0 21 34 -10 38 -19
3 -22 0 -17 -13z"/>
<path d="M80 5222 c0 -14 23 -32 42 -32 21 0 23 11 6 28 -13 13 -48 16 -48 4z"/>
<path d="M107 5115 c-19 -24 -26 -42 -22 -55 4 -11 10 -20 14 -20 8 0 51 90
51 104 0 15 -17 3 -43 -29z"/>
<path d="M235 4879 c-4 -17 -13 -33 -22 -36 -8 -3 -12 -12 -8 -21 3 -8 -6 -30
-21 -49 -14 -19 -23 -37 -20 -40 8 -9 64 46 72 69 8 27 22 22 75 -27 48 -45
62 -51 93 -39 24 9 19 21 -10 28 -14 4 -44 19 -67 34 -40 27 -41 27 -14 30 27
3 35 16 18 26 -4 3 -22 1 -40 -4 l-32 -9 7 35 c5 27 3 34 -9 34 -9 0 -18 -13
-22 -31z"/>
<path d="M124 4845 c3 -9 6 -19 6 -21 0 -2 9 -4 21 -4 29 0 21 34 -10 38 -19
3 -22 0 -17 -13z"/>
<path d="M80 4772 c0 -14 23 -32 42 -32 21 0 23 11 6 28 -13 13 -48 16 -48 4z"/>
<path d="M107 4665 c-19 -24 -26 -42 -22 -55 4 -11 10 -20 14 -20 8 0 51 90
51 104 0 15 -17 3 -43 -29z"/>
<path d="M235 4429 c-4 -17 -13 -33 -22 -36 -8 -3 -12 -12 -8 -21 3 -8 -7 -30
-21 -49 -20 -27 -24 -37 -14 -43 7 -4 16 -25 19 -46 3 -20 11 -39 17 -41 14
-5 6 90 -8 95 -4 2 3 17 17 34 14 16 25 34 25 39 0 20 25 7 71 -36 48 -45 62
-51 93 -39 24 9 19 21 -10 28 -14 4 -44 19 -67 34 -40 27 -41 27 -14 30 27 3
35 16 18 26 -4 3 -22 1 -40 -4 l-32 -9 7 35 c5 27 3 34 -9 34 -9 0 -18 -13
-22 -31z"/>
<path d="M124 4395 c3 -9 6 -19 6 -21 0 -2 9 -4 21 -4 29 0 21 34 -10 38 -19
3 -22 0 -17 -13z"/>
<path d="M80 4322 c0 -14 23 -32 42 -32 21 0 23 11 6 28 -13 13 -48 16 -48 4z"/>
<path d="M107 4215 c-19 -24 -26 -42 -22 -55 4 -11 10 -20 14 -20 8 0 51 90
51 104 0 15 -17 3 -43 -29z"/>
<path d="M235 3979 c-4 -17 -13 -33 -22 -36 -8 -3 -12 -12 -8 -21 3 -8 -7 -30
-21 -49 -20 -27 -24 -37 -14 -43 7 -4 16 -25 19 -46 9 -56 26 -52 26 6 0 35
-4 50 -13 50 -9 0 -4 11 12 31 14 17 26 35 26 40 0 20 28 7 61 -28 18 -20 28
-33 22 -29 -17 9 -83 -4 -83 -16 0 -5 12 -8 28 -6 24 3 27 0 24 -22 -7 -56 -7
-63 4 -67 6 -2 17 18 25 44 12 37 20 47 35 46 27 -4 64 6 64 16 0 5 -12 12
-26 15 -14 4 -44 19 -67 34 -40 27 -41 27 -14 30 27 3 35 16 18 26 -4 3 -22 1
-40 -4 l-32 -9 7 35 c5 27 3 34 -9 34 -9 0 -18 -13 -22 -31z"/>
<path d="M124 3945 c3 -9 6 -19 6 -21 0 -2 9 -4 21 -4 29 0 21 34 -10 38 -19
3 -22 0 -17 -13z"/>
<path d="M80 3872 c0 -14 23 -32 42 -32 21 0 23 11 6 28 -13 13 -48 16 -48 4z"/>
<path d="M107 3765 c-19 -24 -26 -42 -22 -55 4 -11 10 -20 14 -20 8 0 51 90
51 104 0 15 -17 3 -43 -29z"/>
<path d="M235 3529 c-4 -17 -13 -33 -22 -36 -8 -3 -12 -12 -8 -21 3 -8 -7 -30
-21 -49 -20 -27 -24 -37 -14 -43 7 -4 16 -25 19 -46 3 -20 12 -39 20 -42 9 -3
11 1 7 16 -5 15 -1 21 16 26 43 11 58 7 55 -15 -4 -42 20 -29 34 18 12 37 20
47 35 46 27 -4 64 6 64 16 0 5 -12 12 -26 15 -14 4 -44 19 -67 34 -40 27 -41
27 -14 30 27 3 35 16 18 26 -4 3 -22 1 -40 -4 l-32 -9 7 35 c5 27 3 34 -9 34
-9 0 -18 -13 -22 -31z m66 -96 c18 -20 28 -33 22 -29 -17 9 -83 -4 -83 -16 0
-6 11 -8 25 -6 14 3 28 2 30 -3 7 -10 -3 -15 -48 -23 -36 -7 -38 -6 -32 13 5
16 2 21 -10 21 -14 0 -12 6 9 31 14 17 26 35 26 40 0 20 28 7 61 -28z"/>
<path d="M124 3495 c3 -9 6 -19 6 -21 0 -2 9 -4 21 -4 29 0 21 34 -10 38 -19
3 -22 0 -17 -13z"/>
<path d="M80 3422 c0 -14 23 -32 42 -32 21 0 23 11 6 28 -13 13 -48 16 -48 4z"/>
<path d="M107 3315 c-19 -24 -26 -42 -22 -55 4 -11 10 -20 14 -20 8 0 51 90
51 104 0 15 -17 3 -43 -29z"/>
<path d="M235 3079 c-4 -17 -13 -33 -22 -36 -8 -3 -12 -12 -8 -21 3 -8 -7 -30
-21 -49 -20 -27 -24 -37 -14 -43 7 -4 16 -25 19 -46 l6 -39 57 0 56 0 14 45
c11 35 19 44 34 43 27 -4 64 6 64 16 0 5 -12 12 -26 15 -14 4 -44 19 -67 34
-40 27 -41 27 -14 30 27 3 35 16 18 26 -4 3 -22 1 -40 -4 l-32 -9 7 35 c5 27
3 34 -9 34 -9 0 -18 -13 -22 -31z m66 -96 c18 -20 28 -33 22 -29 -17 9 -83 -4
-83 -16 0 -6 11 -8 25 -6 14 3 28 2 30 -3 7 -10 -3 -15 -48 -23 -36 -7 -38 -6
-32 13 5 16 2 21 -10 21 -14 0 -12 6 9 31 14 17 26 35 26 40 0 20 28 7 61 -28z
m-11 -103 c0 -5 -4 -10 -9 -10 -5 0 -23 -3 -40 -6 -33 -7 -45 11 -13 19 32 9
62 7 62 -3z"/>
<path d="M124 3045 c3 -9 6 -19 6 -21 0 -2 9 -4 21 -4 29 0 21 34 -10 38 -19
3 -22 0 -17 -13z"/>
<path d="M80 2972 c0 -14 23 -32 42 -32 21 0 23 11 6 28 -13 13 -48 16 -48 4z"/>
<path d="M107 2865 c-19 -24 -26 -42 -22 -55 4 -11 10 -20 14 -20 8 0 51 90
51 104 0 15 -17 3 -43 -29z"/>
<path d="M235 2629 c-4 -17 -13 -33 -22 -36 -8 -3 -12 -12 -8 -21 3 -8 -6 -30
-20 -48 -24 -31 -25 -36 -11 -50 9 -8 16 -29 16 -46 0 -20 6 -31 18 -35 10 -2
23 -18 29 -34 11 -28 13 -29 82 -29 56 0 71 3 71 15 0 12 -13 14 -62 12 -60
-2 -63 -1 -66 22 -3 21 -1 23 20 18 22 -6 26 -2 40 41 11 36 19 46 34 45 27
-4 64 6 64 16 0 5 -12 12 -26 15 -14 4 -44 19 -67 34 -40 27 -41 27 -14 30 27
3 35 16 18 26 -4 3 -22 1 -40 -4 l-32 -9 7 35 c5 27 3 34 -9 34 -9 0 -18 -13
-22 -31z m63 -91 l31 -33 -34 -1 c-22 0 -31 4 -28 12 2 7 -5 15 -16 19 -12 4
-18 12 -14 21 8 22 26 17 61 -18z m-68 -48 c0 -22 -5 -40 -11 -40 -6 0 -8 9
-4 20 5 15 2 20 -11 20 -16 0 -16 1 1 20 10 11 20 20 22 20 1 0 3 -18 3 -40z
m65 -21 c-8 -12 -35 -12 -35 0 0 11 22 20 33 14 4 -2 5 -9 2 -14z m-5 -39 c0
-5 -7 -10 -15 -10 -8 0 -15 5 -15 10 0 6 7 10 15 10 8 0 15 -4 15 -10z m-60
-10 c0 -5 -4 -10 -10 -10 -5 0 -10 5 -10 10 0 6 5 10 10 10 6 0 10 -4 10 -10z"/>
<path d="M124 2595 c3 -9 6 -19 6 -21 0 -2 9 -4 21 -4 29 0 21 34 -10 38 -19
3 -22 0 -17 -13z"/>
<path d="M80 2522 c0 -14 23 -32 42 -32 21 0 23 11 6 28 -13 13 -48 16 -48 4z"/>
<path d="M107 2415 c-19 -24 -26 -42 -22 -55 4 -11 10 -20 14 -20 8 0 51 90
51 104 0 15 -17 3 -43 -29z"/>
</g>
</svg>
