<?xml version="1.0" standalone="no"?>
<!DOCTYPE svg PUBLIC "-//W3C//DTD SVG 20010904//EN"
 "http://www.w3.org/TR/2001/REC-SVG-20010904/DTD/svg10.dtd">
<svg version="1.0" xmlns="http://www.w3.org/2000/svg"
 width="50.000000pt" height="725.000000pt" viewBox="0 0 50.000000 725.000000"
 preserveAspectRatio="xMidYMid meet">
<metadata>
Created by potrace 1.16, written by Peter Selinger 2001-2019
</metadata>
<g transform="translate(0.000000,725.000000) scale(0.100000,-0.100000)"
fill="#000000" stroke="none">
<path d="M132 7108 c6 -16 36 -34 44 -26 3 4 4 14 1 23 -7 17 -51 21 -45 3z"/>
<path d="M132 6658 c6 -16 36 -34 44 -26 3 4 4 14 1 23 -7 17 -51 21 -45 3z"/>
<path d="M92 6588 c6 -16 36 -34 44 -26 3 4 4 14 1 23 -7 17 -51 21 -45 3z"/>
<path d="M132 6208 c6 -16 36 -34 44 -26 3 4 4 14 1 23 -7 17 -51 21 -45 3z"/>
<path d="M92 6138 c6 -16 36 -34 44 -26 3 4 4 14 1 23 -7 17 -51 21 -45 3z"/>
<path d="M118 6029 c-30 -42 -36 -79 -14 -79 10 0 56 94 56 116 0 14 -19 -2
-42 -37z"/>
<path d="M132 5758 c6 -16 36 -34 44 -26 3 4 4 14 1 23 -7 17 -51 21 -45 3z"/>
<path d="M248 5743 c-21 -2 -38 -8 -38 -14 0 -10 63 -12 98 -3 12 4 22 10 22
15 0 9 -11 9 -82 2z"/>
<path d="M92 5688 c6 -16 36 -34 44 -26 3 4 4 14 1 23 -7 17 -51 21 -45 3z"/>
<path d="M118 5579 c-30 -42 -36 -79 -14 -79 10 0 56 94 56 116 0 14 -19 -2
-42 -37z"/>
<path d="M250 5325 c0 -28 -4 -35 -20 -35 -11 0 -20 -4 -20 -10 0 -5 9 -10 20
-10 15 0 20 -7 20 -25 0 -16 6 -25 15 -25 9 0 15 9 15 25 0 18 7 26 25 31 31
8 33 24 2 24 -20 0 -23 4 -19 30 4 25 1 30 -17 30 -17 0 -21 -6 -21 -35z"/>
<path d="M132 5308 c6 -16 36 -34 44 -26 3 4 4 14 1 23 -7 17 -51 21 -45 3z"/>
<path d="M92 5238 c6 -16 36 -34 44 -26 3 4 4 14 1 23 -7 17 -51 21 -45 3z"/>
<path d="M118 5129 c-30 -42 -36 -79 -14 -79 10 0 56 94 56 116 0 14 -19 -2
-42 -37z"/>
<path d="M250 4875 c0 -28 -4 -35 -20 -35 -11 0 -20 -4 -20 -10 0 -5 9 -10 20
-10 13 0 20 -7 20 -19 0 -15 -10 -21 -40 -26 -22 -4 -40 -11 -40 -17 0 -6 13
-8 33 -4 17 3 74 9 125 12 69 5 92 10 92 21 0 12 -13 13 -70 7 -61 -6 -70 -4
-70 10 0 8 11 18 25 22 31 8 33 24 2 24 -20 0 -23 4 -19 30 4 25 1 30 -17 30
-17 0 -21 -6 -21 -35z"/>
<path d="M132 4858 c6 -16 36 -34 44 -26 3 4 4 14 1 23 -7 17 -51 21 -45 3z"/>
<path d="M92 4788 c6 -16 36 -34 44 -26 3 4 4 14 1 23 -7 17 -51 21 -45 3z"/>
<path d="M118 4679 c-30 -42 -36 -79 -14 -79 10 0 56 94 56 116 0 14 -19 -2
-42 -37z"/>
<path d="M250 4425 c0 -28 -4 -35 -20 -35 -11 0 -20 -4 -20 -10 0 -5 9 -10 20
-10 13 0 20 -7 20 -19 0 -15 -10 -21 -40 -26 -22 -4 -40 -11 -40 -17 0 -7 15
-8 40 -4 22 3 40 4 40 1 0 -7 -81 -65 -91 -65 -5 0 -6 7 -3 15 4 8 2 15 -2 15
-14 -1 -64 -79 -64 -100 0 -33 28 -23 40 15 6 19 18 35 26 35 22 0 74 28 121
66 35 29 49 34 92 34 41 0 51 3 51 16 0 14 -8 16 -41 11 l-41 -5 27 28 c17 17
25 35 22 44 -9 22 -34 20 -39 -2 -4 -15 -12 -18 -35 -15 -26 4 -29 8 -25 34 4
24 1 29 -17 29 -17 0 -21 -6 -21 -35z m70 -53 c0 -10 -22 -32 -32 -32 -13 0
-9 28 5 33 19 8 27 8 27 -1z"/>
<path d="M132 4408 c6 -16 36 -34 44 -26 3 4 4 14 1 23 -7 17 -51 21 -45 3z"/>
<path d="M92 4338 c6 -16 36 -34 44 -26 3 4 4 14 1 23 -7 17 -51 21 -45 3z"/>
<path d="M250 3975 c0 -28 -4 -35 -20 -35 -11 0 -20 -4 -20 -10 0 -5 9 -10 20
-10 13 0 20 -7 20 -19 0 -15 -10 -21 -40 -26 -22 -4 -40 -11 -40 -17 0 -7 15
-8 40 -4 22 3 40 4 40 1 0 -7 -81 -65 -91 -65 -5 0 -6 7 -3 15 4 8 2 15 -2 15
-14 -1 -64 -79 -64 -100 0 -33 28 -23 40 14 7 21 19 36 33 39 12 3 32 9 45 12
23 7 23 6 16 -44 -6 -43 -4 -51 10 -51 13 0 16 11 16 63 0 59 2 63 34 90 28
21 45 27 85 27 41 0 51 3 51 16 0 14 -8 16 -41 11 l-41 -5 27 28 c17 17 25 35
22 44 -9 22 -34 20 -39 -2 -4 -15 -12 -18 -35 -15 -26 4 -29 8 -25 34 4 24 1
29 -17 29 -17 0 -21 -6 -21 -35z m70 -53 c0 -10 -22 -32 -32 -32 -13 0 -9 28
5 33 19 8 27 8 27 -1z"/>
<path d="M132 3958 c6 -16 36 -34 44 -26 3 4 4 14 1 23 -7 17 -51 21 -45 3z"/>
<path d="M92 3888 c6 -16 36 -34 44 -26 3 4 4 14 1 23 -7 17 -51 21 -45 3z"/>
<path d="M250 3525 c0 -28 -4 -35 -20 -35 -11 0 -20 -4 -20 -10 0 -5 9 -10 20
-10 13 0 20 -7 20 -19 0 -15 -10 -21 -40 -26 -22 -4 -40 -11 -40 -17 0 -7 15
-8 40 -4 22 3 40 4 40 1 0 -7 -81 -65 -91 -65 -5 0 -6 7 -3 15 4 8 2 15 -2 15
-14 -1 -64 -79 -64 -100 0 -33 28 -23 40 14 7 21 19 36 33 39 12 3 32 9 45 12
23 7 23 6 16 -44 -5 -43 -4 -51 9 -51 12 0 17 13 19 53 3 51 4 52 36 55 31 3
32 2 32 -32 0 -19 -4 -36 -10 -38 -16 -5 1 -49 19 -46 13 3 16 17 17 70 2 76
-7 85 -66 68 l-34 -10 35 30 c28 24 43 29 87 30 41 0 52 3 52 16 0 14 -8 16
-41 11 l-41 -5 27 28 c17 17 25 35 22 44 -9 22 -34 20 -39 -2 -4 -15 -12 -18
-35 -15 -26 4 -29 8 -25 34 4 24 1 29 -17 29 -17 0 -21 -6 -21 -35z m70 -53
c0 -10 -22 -32 -32 -32 -13 0 -9 28 5 33 19 8 27 8 27 -1z"/>
<path d="M132 3508 c6 -16 36 -34 44 -26 3 4 4 14 1 23 -7 17 -51 21 -45 3z"/>
<path d="M92 3438 c6 -16 36 -34 44 -26 3 4 4 14 1 23 -7 17 -51 21 -45 3z"/>
<path d="M250 3075 c0 -28 -4 -35 -20 -35 -11 0 -20 -4 -20 -10 0 -5 9 -10 20
-10 13 0 20 -7 20 -19 0 -15 -10 -21 -40 -26 -22 -4 -40 -11 -40 -17 0 -7 15
-8 40 -4 22 3 40 4 40 1 0 -7 -81 -65 -91 -65 -5 0 -6 7 -3 15 4 8 2 15 -2 15
-14 -1 -64 -79 -64 -100 0 -33 28 -23 40 14 7 21 19 36 33 39 12 3 32 9 45 12
23 7 23 6 16 -44 -6 -43 -4 -51 10 -51 11 0 16 9 16 30 0 27 3 30 30 30 20 0
30 5 30 15 0 11 -8 13 -31 8 -25 -5 -31 -3 -27 8 2 8 19 15 36 17 30 3 32 2
32 -32 0 -19 -4 -36 -10 -38 -16 -5 1 -49 19 -46 13 3 16 17 17 70 2 76 -7 85
-66 68 l-34 -10 35 30 c28 24 43 29 87 30 41 0 52 3 52 16 0 14 -8 16 -41 11
l-41 -5 27 28 c17 17 25 35 22 44 -9 22 -34 20 -39 -2 -4 -15 -12 -18 -35 -15
-26 4 -29 8 -25 34 4 24 1 29 -17 29 -17 0 -21 -6 -21 -35z m70 -53 c0 -10
-22 -32 -32 -32 -13 0 -9 28 5 33 19 8 27 8 27 -1z"/>
<path d="M132 3058 c6 -16 36 -34 44 -26 3 4 4 14 1 23 -7 17 -51 21 -45 3z"/>
<path d="M92 2988 c6 -16 36 -34 44 -26 3 4 4 14 1 23 -7 17 -51 21 -45 3z"/>
<path d="M250 2625 c0 -28 -4 -35 -20 -35 -11 0 -20 -4 -20 -10 0 -5 9 -10 20
-10 13 0 20 -7 20 -19 0 -15 -10 -21 -40 -26 -22 -4 -40 -11 -40 -17 0 -7 15
-8 40 -4 22 3 40 4 40 1 0 -7 -81 -65 -91 -65 -5 0 -6 7 -3 15 4 8 2 15 -2 15
-14 -1 -64 -79 -64 -100 0 -33 28 -23 40 14 7 21 19 36 33 39 12 3 32 9 45 12
23 7 23 6 16 -44 l-7 -52 43 7 c30 5 44 3 50 -6 4 -7 15 -10 23 -7 12 4 15 21
15 71 -2 74 -10 83 -68 66 l-34 -10 35 30 c28 24 43 29 87 30 41 0 52 3 52 16
0 14 -8 16 -41 11 l-41 -5 27 28 c17 17 25 35 22 44 -9 22 -34 20 -39 -2 -4
-15 -12 -18 -35 -15 -26 4 -29 8 -25 34 4 24 1 29 -17 29 -17 0 -21 -6 -21
-35z m70 -53 c0 -10 -22 -32 -32 -32 -13 0 -9 28 5 33 19 8 27 8 27 -1z m0
-156 c0 -35 -13 -46 -51 -46 -10 0 -19 7 -19 15 0 10 10 15 30 15 20 0 30 5
30 15 0 11 -8 13 -30 9 -17 -4 -30 -2 -30 3 0 16 12 23 42 23 25 0 28 -3 28
-34z"/>
<path d="M132 2608 c6 -16 36 -34 44 -26 3 4 4 14 1 23 -7 17 -51 21 -45 3z"/>
<path d="M92 2538 c6 -16 36 -34 44 -26 3 4 4 14 1 23 -7 17 -51 21 -45 3z"/>
</g>
</svg>
