<?xml version="1.0" standalone="no"?>
<!DOCTYPE svg PUBLIC "-//W3C//DTD SVG 20010904//EN"
 "http://www.w3.org/TR/2001/REC-SVG-20010904/DTD/svg10.dtd">
<svg version="1.0" xmlns="http://www.w3.org/2000/svg"
 width="50.000000pt" height="725.000000pt" viewBox="0 0 50.000000 725.000000"
 preserveAspectRatio="xMidYMid meet">
<metadata>
Created by potrace 1.16, written by Peter Selinger 2001-2019
</metadata>
<g transform="translate(0.000000,725.000000) scale(0.100000,-0.100000)"
fill="#000000" stroke="none">
<path d="M130 7122 c0 -12 34 -42 48 -42 18 0 14 37 -4 44 -22 9 -44 7 -44 -2z"/>
<path d="M130 6672 c0 -12 34 -42 48 -42 18 0 14 37 -4 44 -22 9 -44 7 -44 -2z"/>
<path d="M112 6583 c2 -10 14 -19 26 -21 19 -3 23 1 20 15 -2 10 -14 19 -26
21 -19 3 -23 -1 -20 -15z"/>
<path d="M130 6222 c0 -12 34 -42 48 -42 18 0 14 37 -4 44 -22 9 -44 7 -44 -2z"/>
<path d="M112 6133 c2 -10 14 -19 26 -21 19 -3 23 1 20 15 -2 10 -14 19 -26
21 -19 3 -23 -1 -20 -15z"/>
<path d="M180 6092 c0 -5 -16 -27 -36 -50 -25 -30 -34 -48 -29 -62 11 -34 29
-22 52 33 34 79 36 87 24 87 -6 0 -11 -4 -11 -8z"/>
<path d="M214 5774 c4 -15 10 -39 13 -55 8 -42 23 -35 23 10 0 50 -8 71 -27
71 -11 0 -13 -7 -9 -26z"/>
<path d="M130 5772 c0 -12 34 -42 48 -42 18 0 14 37 -4 44 -22 9 -44 7 -44 -2z"/>
<path d="M112 5683 c2 -10 14 -19 26 -21 19 -3 23 1 20 15 -2 10 -14 19 -26
21 -19 3 -23 -1 -20 -15z"/>
<path d="M180 5642 c0 -5 -16 -27 -36 -50 -25 -30 -34 -48 -29 -62 11 -34 29
-22 52 33 34 79 36 87 24 87 -6 0 -11 -4 -11 -8z"/>
<path d="M338 5363 c-35 -5 -37 -23 -2 -23 25 0 26 -1 20 -45 -10 -62 14 -60
36 3 16 44 17 48 1 60 -9 6 -19 11 -22 11 -3 -1 -18 -4 -33 -6z"/>
<path d="M214 5324 c4 -15 10 -39 13 -55 9 -44 23 -34 23 16 0 41 2 45 25 45
14 0 25 5 25 10 0 6 -21 10 -46 10 -45 0 -46 -1 -40 -26z"/>
<path d="M130 5322 c0 -12 34 -42 48 -42 18 0 14 37 -4 44 -22 9 -44 7 -44 -2z"/>
<path d="M112 5233 c2 -10 14 -19 26 -21 19 -3 23 1 20 15 -2 10 -14 19 -26
21 -19 3 -23 -1 -20 -15z"/>
<path d="M180 5192 c0 -5 -16 -27 -36 -50 -25 -30 -34 -48 -29 -62 11 -34 29
-22 52 33 34 79 36 87 24 87 -6 0 -11 -4 -11 -8z"/>
<path d="M338 4913 c-35 -5 -37 -23 -3 -23 35 0 31 -16 -6 -24 -46 -9 -79 -7
-79 4 0 6 11 10 25 10 14 0 25 5 25 10 0 6 -21 10 -46 10 -45 0 -46 -1 -40
-26 4 -15 10 -39 13 -55 7 -36 23 -38 23 -4 0 22 5 25 33 25 17 0 42 3 53 6
19 5 21 2 17 -20 -9 -46 21 -29 39 22 16 44 17 48 1 60 -9 6 -19 11 -22 11 -3
-1 -18 -4 -33 -6z"/>
<path d="M130 4872 c0 -12 34 -42 48 -42 18 0 14 37 -4 44 -22 9 -44 7 -44 -2z"/>
<path d="M112 4783 c2 -10 14 -19 26 -21 19 -3 23 1 20 15 -2 10 -14 19 -26
21 -19 3 -23 -1 -20 -15z"/>
<path d="M180 4742 c0 -5 -16 -27 -36 -50 -25 -30 -34 -48 -29 -62 11 -34 29
-22 52 33 34 79 36 87 24 87 -6 0 -11 -4 -11 -8z"/>
<path d="M335 4460 c-16 -4 -52 -8 -79 -9 -47 -1 -48 -2 -42 -27 4 -15 10 -39
13 -55 7 -36 23 -38 23 -4 0 18 5 25 20 25 11 0 20 -7 20 -15 0 -8 5 -15 10
-15 6 0 10 6 10 14 0 13 20 26 39 26 5 0 6 -11 3 -25 -8 -45 22 -28 40 23 16
44 17 48 1 60 -9 6 -19 11 -22 11 -3 -1 -19 -5 -36 -9z m25 -30 c0 -5 -9 -10
-20 -10 -11 0 -20 5 -20 10 0 6 9 10 20 10 11 0 20 -4 20 -10z m-80 -10 c0 -5
-7 -10 -15 -10 -8 0 -15 5 -15 10 0 6 7 10 15 10 8 0 15 -4 15 -10z"/>
<path d="M130 4422 c0 -12 34 -42 48 -42 18 0 14 37 -4 44 -22 9 -44 7 -44 -2z"/>
<path d="M112 4333 c2 -10 14 -19 26 -21 19 -3 23 1 20 15 -2 10 -14 19 -26
21 -19 3 -23 -1 -20 -15z"/>
<path d="M180 4292 c0 -5 -16 -27 -36 -50 -25 -30 -34 -48 -29 -62 11 -34 29
-22 52 33 34 79 36 87 24 87 -6 0 -11 -4 -11 -8z"/>
<path d="M335 4010 c-16 -4 -52 -8 -79 -9 -47 -1 -48 -2 -42 -27 4 -15 10 -40
13 -56 5 -24 10 -29 27 -24 12 3 44 6 71 6 l50 0 17 48 c16 44 17 48 1 60 -9
6 -19 11 -22 11 -3 -1 -19 -5 -36 -9z m25 -30 c0 -5 -9 -10 -20 -10 -11 0 -20
5 -20 10 0 6 9 10 20 10 11 0 20 -4 20 -10z m-80 -10 c0 -5 -7 -10 -15 -10 -8
0 -15 5 -15 10 0 6 7 10 15 10 8 0 15 -4 15 -10z m66 -35 c-23 -17 -36 -19
-36 -6 0 11 18 19 40 20 11 0 10 -3 -4 -14z m-56 -5 c0 -5 -9 -10 -20 -10 -11
0 -20 5 -20 10 0 6 9 10 20 10 11 0 20 -4 20 -10z"/>
<path d="M130 3972 c0 -12 34 -42 48 -42 18 0 14 37 -4 44 -22 9 -44 7 -44 -2z"/>
<path d="M112 3883 c2 -10 14 -19 26 -21 19 -3 23 1 20 15 -2 10 -14 19 -26
21 -19 3 -23 -1 -20 -15z"/>
<path d="M180 3842 c0 -5 -16 -27 -36 -50 -25 -30 -34 -48 -29 -62 11 -34 29
-22 52 33 34 79 36 87 24 87 -6 0 -11 -4 -11 -8z"/>
<path d="M335 3560 c-16 -4 -52 -8 -79 -9 -47 -1 -48 -2 -42 -27 4 -15 10 -40
13 -56 5 -24 10 -29 27 -24 12 3 44 6 71 6 l50 0 17 48 c16 44 17 48 1 60 -9
6 -19 11 -22 11 -3 -1 -19 -5 -36 -9z m25 -30 c0 -5 -9 -10 -20 -10 -11 0 -20
5 -20 10 0 6 9 10 20 10 11 0 20 -4 20 -10z m-80 -10 c0 -5 -7 -10 -15 -10 -8
0 -15 5 -15 10 0 6 7 10 15 10 8 0 15 -4 15 -10z m66 -35 c-23 -17 -36 -19
-36 -6 0 11 18 19 40 20 11 0 10 -3 -4 -14z m-56 -5 c0 -5 -9 -10 -20 -10 -11
0 -20 5 -20 10 0 6 9 10 20 10 11 0 20 -4 20 -10z"/>
<path d="M130 3522 c0 -12 34 -42 48 -42 18 0 14 37 -4 44 -22 9 -44 7 -44 -2z"/>
<path d="M112 3433 c2 -10 14 -19 26 -21 19 -3 23 1 20 15 -2 10 -14 19 -26
21 -19 3 -23 -1 -20 -15z"/>
<path d="M235 3361 c0 -43 -5 -74 -14 -85 -19 -22 -5 -34 16 -13 21 21 37 148
19 159 -20 13 -21 9 -21 -61z"/>
<path d="M180 3392 c0 -5 -16 -27 -36 -50 -25 -30 -34 -48 -29 -62 11 -34 29
-22 52 33 34 79 36 87 24 87 -6 0 -11 -4 -11 -8z"/>
<path d="M335 3110 c-16 -4 -52 -8 -79 -9 -47 -1 -48 -2 -42 -27 4 -15 10 -40
13 -56 5 -24 10 -29 27 -24 12 3 44 6 71 6 l50 0 17 48 c16 44 17 48 1 60 -9
6 -19 11 -22 11 -3 -1 -19 -5 -36 -9z m25 -30 c0 -5 -9 -10 -20 -10 -11 0 -20
5 -20 10 0 6 9 10 20 10 11 0 20 -4 20 -10z m-80 -10 c0 -5 -7 -10 -15 -10 -8
0 -15 5 -15 10 0 6 7 10 15 10 8 0 15 -4 15 -10z m66 -35 c-23 -17 -36 -19
-36 -6 0 11 18 19 40 20 11 0 10 -3 -4 -14z m-56 -5 c0 -5 -9 -10 -20 -10 -11
0 -20 5 -20 10 0 6 9 10 20 10 11 0 20 -4 20 -10z"/>
<path d="M130 3072 c0 -12 34 -42 48 -42 18 0 14 37 -4 44 -22 9 -44 7 -44 -2z"/>
<path d="M112 2983 c2 -10 14 -19 26 -21 19 -3 23 1 20 15 -2 10 -14 19 -26
21 -19 3 -23 -1 -20 -15z"/>
<path d="M318 2983 c-35 -5 -37 -23 -3 -23 24 0 25 -2 25 -69 0 -46 -4 -71
-12 -74 -17 -6 3 -42 23 -42 11 0 15 24 20 100 6 92 1 119 -21 113 -3 0 -17
-3 -32 -5z"/>
<path d="M235 2911 c0 -43 -5 -74 -14 -85 -8 -9 -11 -20 -7 -24 17 -16 46 40
46 87 0 26 5 52 12 59 13 13 11 17 -17 26 -19 5 -20 1 -20 -63z"/>
<path d="M180 2942 c0 -5 -16 -27 -36 -50 -25 -30 -34 -48 -29 -62 11 -34 29
-22 52 33 34 79 36 87 24 87 -6 0 -11 -4 -11 -8z"/>
<path d="M335 2660 c-16 -4 -52 -8 -79 -9 -47 -1 -48 -2 -42 -27 4 -15 10 -40
13 -56 5 -24 10 -29 27 -24 12 3 44 6 71 6 l50 0 17 48 c16 44 17 48 1 60 -9
6 -19 11 -22 11 -3 -1 -19 -5 -36 -9z m25 -30 c0 -5 -9 -10 -20 -10 -11 0 -20
5 -20 10 0 6 9 10 20 10 11 0 20 -4 20 -10z m-80 -10 c0 -5 -7 -10 -15 -10 -8
0 -15 5 -15 10 0 6 7 10 15 10 8 0 15 -4 15 -10z m66 -35 c-23 -17 -36 -19
-36 -6 0 11 18 19 40 20 11 0 10 -3 -4 -14z m-56 -5 c0 -5 -9 -10 -20 -10 -11
0 -20 5 -20 10 0 6 9 10 20 10 11 0 20 -4 20 -10z"/>
<path d="M130 2622 c0 -12 34 -42 48 -42 18 0 14 37 -4 44 -22 9 -44 7 -44 -2z"/>
<path d="M112 2533 c2 -10 14 -19 26 -21 19 -3 23 1 20 15 -2 10 -14 19 -26
21 -19 3 -23 -1 -20 -15z"/>
<path d="M318 2533 c-35 -5 -37 -23 -3 -23 24 0 25 -2 25 -69 0 -46 -4 -71
-12 -74 -17 -6 3 -42 23 -42 11 0 15 24 20 100 6 92 1 119 -21 113 -3 0 -17
-3 -32 -5z"/>
<path d="M235 2462 c0 -44 -5 -75 -14 -86 -8 -9 -11 -20 -7 -24 16 -15 46 40
46 85 0 44 0 44 22 29 28 -20 48 -20 48 -2 0 8 -13 17 -29 21 -20 4 -28 11
-24 21 3 8 1 14 -5 14 -6 0 -16 2 -24 5 -10 4 -13 -10 -13 -63z"/>
<path d="M180 2492 c0 -5 -16 -27 -36 -50 -25 -30 -34 -48 -29 -62 11 -34 29
-22 52 33 34 79 36 87 24 87 -6 0 -11 -4 -11 -8z"/>
<path d="M335 2210 c-16 -4 -52 -8 -79 -9 -47 -1 -48 -2 -42 -27 4 -15 10 -40
13 -56 5 -24 10 -29 27 -24 12 3 44 6 71 6 l50 0 17 48 c16 44 17 48 1 60 -9
6 -19 11 -22 11 -3 -1 -19 -5 -36 -9z m25 -30 c0 -5 -9 -10 -20 -10 -11 0 -20
5 -20 10 0 6 9 10 20 10 11 0 20 -4 20 -10z m-80 -10 c0 -5 -7 -10 -15 -10 -8
0 -15 5 -15 10 0 6 7 10 15 10 8 0 15 -4 15 -10z m66 -35 c-23 -17 -36 -19
-36 -6 0 11 18 19 40 20 11 0 10 -3 -4 -14z m-56 -5 c0 -5 -9 -10 -20 -10 -11
0 -20 5 -20 10 0 6 9 10 20 10 11 0 20 -4 20 -10z"/>
<path d="M130 2172 c0 -12 34 -42 48 -42 18 0 14 37 -4 44 -22 9 -44 7 -44 -2z"/>
<path d="M112 2083 c2 -10 14 -19 26 -21 19 -3 23 1 20 15 -2 10 -14 19 -26
21 -19 3 -23 -1 -20 -15z"/>
<path d="M318 2083 c-35 -5 -37 -23 -3 -23 24 0 25 -2 25 -69 0 -46 -4 -71
-12 -74 -17 -6 3 -42 23 -42 11 0 15 24 20 100 6 92 1 119 -21 113 -3 0 -17
-3 -32 -5z"/>
<path d="M235 2012 c0 -44 -5 -75 -14 -86 -8 -9 -11 -20 -7 -24 4 -4 17 4 28
18 11 14 26 24 32 23 15 -3 62 34 54 42 -4 4 -21 3 -37 -3 -30 -11 -31 -10
-31 19 0 29 1 30 22 15 28 -20 48 -20 48 -2 0 8 -13 17 -29 21 -20 4 -28 11
-24 21 3 8 1 14 -5 14 -6 0 -16 2 -24 5 -10 4 -13 -10 -13 -63z"/>
<path d="M180 2042 c0 -5 -16 -27 -36 -50 -25 -30 -34 -48 -29 -62 11 -34 29
-22 52 33 34 79 36 87 24 87 -6 0 -11 -4 -11 -8z"/>
</g>
</svg>
