<?xml version="1.0" standalone="no"?>
<!DOCTYPE svg PUBLIC "-//W3C//DTD SVG 20010904//EN"
 "http://www.w3.org/TR/2001/REC-SVG-20010904/DTD/svg10.dtd">
<svg version="1.0" xmlns="http://www.w3.org/2000/svg"
 width="50.000000pt" height="725.000000pt" viewBox="0 0 50.000000 725.000000"
 preserveAspectRatio="xMidYMid meet">
<metadata>
Created by potrace 1.16, written by Peter Selinger 2001-2019
</metadata>
<g transform="translate(0.000000,725.000000) scale(0.100000,-0.100000)"
fill="#000000" stroke="none">
<path d="M140 7122 c0 -5 9 -17 20 -27 26 -23 52 -6 30 20 -13 16 -50 21 -50
7z"/>
<path d="M140 6672 c0 -5 9 -17 20 -27 26 -23 52 -6 30 20 -13 16 -50 21 -50
7z"/>
<path d="M100 6592 c0 -12 34 -42 48 -42 19 0 14 28 -7 40 -24 12 -41 13 -41
2z"/>
<path d="M140 6222 c0 -5 9 -17 20 -27 26 -23 52 -6 30 20 -13 16 -50 21 -50
7z"/>
<path d="M100 6142 c0 -12 34 -42 48 -42 19 0 14 28 -7 40 -24 12 -41 13 -41
2z"/>
<path d="M142 6037 c-24 -36 -31 -58 -27 -75 3 -13 11 -22 17 -20 9 3 58 119
58 139 0 20 -17 5 -48 -44z"/>
<path d="M278 5807 c-72 -13 -78 -32 -8 -23 42 6 49 4 44 -9 -3 -8 -1 -15 4
-15 21 0 62 23 62 36 0 11 -24 26 -38 23 -4 -1 -33 -6 -64 -12z"/>
<path d="M140 5772 c0 -5 9 -17 20 -27 26 -23 52 -6 30 20 -13 16 -50 21 -50
7z"/>
<path d="M100 5692 c0 -12 34 -42 48 -42 19 0 14 28 -7 40 -24 12 -41 13 -41
2z"/>
<path d="M142 5587 c-24 -36 -31 -58 -27 -75 3 -13 11 -22 17 -20 9 3 58 119
58 139 0 20 -17 5 -48 -44z"/>
<path d="M278 5357 c-72 -13 -78 -32 -7 -23 34 5 49 4 44 -4 -3 -5 -13 -10
-21 -10 -17 0 -18 -12 -2 -28 17 -17 38 -15 38 3 0 9 11 21 25 27 14 6 25 17
25 24 0 11 -24 26 -38 23 -4 -1 -33 -6 -64 -12z"/>
<path d="M140 5322 c0 -5 9 -17 20 -27 26 -23 52 -6 30 20 -13 16 -50 21 -50
7z"/>
<path d="M100 5242 c0 -12 34 -42 48 -42 19 0 14 28 -7 40 -24 12 -41 13 -41
2z"/>
<path d="M142 5137 c-24 -36 -31 -58 -27 -75 3 -13 11 -22 17 -20 9 3 58 119
58 139 0 20 -17 5 -48 -44z"/>
<path d="M278 4907 c-72 -13 -78 -32 -7 -23 34 5 49 4 44 -4 -3 -5 -13 -10
-21 -10 -17 0 -18 -12 -2 -28 17 -17 38 -15 38 3 0 9 11 21 25 27 14 6 25 17
25 24 0 11 -24 26 -38 23 -4 -1 -33 -6 -64 -12z"/>
<path d="M140 4872 c0 -5 9 -17 20 -27 26 -23 52 -6 30 20 -13 16 -50 21 -50
7z"/>
<path d="M228 4778 c4 -52 8 -66 16 -57 2 2 6 28 9 57 5 46 4 52 -12 52 -16 0
-17 -7 -13 -52z"/>
<path d="M100 4792 c0 -12 34 -42 48 -42 19 0 14 28 -7 40 -24 12 -41 13 -41
2z"/>
<path d="M142 4687 c-24 -36 -31 -58 -27 -75 3 -13 11 -22 17 -20 9 3 58 119
58 139 0 20 -17 5 -48 -44z"/>
<path d="M278 4457 c-72 -13 -78 -32 -7 -23 34 5 49 4 44 -4 -3 -5 -12 -10
-19 -10 -8 0 -13 -11 -13 -26 0 -23 2 -25 41 -22 38 3 41 1 40 -22 0 -14 -4
-37 -9 -52 -5 -22 -4 -28 8 -28 22 0 24 7 28 70 l4 55 -35 6 -35 5 28 14 c15
7 27 19 27 26 0 11 -24 26 -38 23 -4 -1 -33 -6 -64 -12z"/>
<path d="M140 4422 c0 -5 9 -17 20 -27 26 -23 52 -6 30 20 -13 16 -50 21 -50
7z"/>
<path d="M224 4364 c3 -9 6 -33 6 -55 0 -21 5 -39 10 -39 6 0 10 18 10 39 0
22 5 43 10 46 19 12 10 25 -16 25 -20 0 -25 -4 -20 -16z"/>
<path d="M100 4342 c0 -12 34 -42 48 -42 19 0 14 28 -7 40 -24 12 -41 13 -41
2z"/>
<path d="M142 4237 c-24 -36 -31 -58 -27 -75 3 -13 11 -22 17 -20 9 3 58 119
58 139 0 20 -17 5 -48 -44z"/>
<path d="M278 4007 c-72 -13 -78 -32 -7 -23 34 5 49 4 44 -4 -3 -5 -12 -10
-19 -10 -8 0 -13 -11 -13 -26 0 -25 2 -26 38 -20 21 3 40 2 44 -4 4 -6 -7 -10
-24 -10 -17 0 -31 -4 -31 -10 0 -5 13 -10 29 -10 29 0 30 -1 19 -31 -12 -33
-7 -44 17 -36 10 4 16 21 17 47 1 22 2 48 2 58 1 12 -9 19 -34 23 l-35 5 28
14 c15 7 27 19 27 26 0 11 -24 26 -38 23 -4 -1 -33 -6 -64 -12z"/>
<path d="M140 3972 c0 -5 9 -17 20 -27 26 -23 52 -6 30 20 -13 16 -50 21 -50
7z"/>
<path d="M224 3914 c3 -9 6 -33 6 -55 0 -21 5 -39 10 -39 6 0 10 14 10 30 0
25 4 30 25 30 14 0 25 5 25 10 0 6 -9 10 -20 10 -13 0 -18 5 -14 15 5 11 -1
15 -21 15 -21 0 -26 -4 -21 -16z"/>
<path d="M100 3892 c0 -12 34 -42 48 -42 19 0 14 28 -7 40 -24 12 -41 13 -41
2z"/>
<path d="M142 3787 c-24 -36 -31 -58 -27 -75 3 -13 11 -22 17 -20 9 3 58 119
58 139 0 20 -17 5 -48 -44z"/>
<path d="M278 3557 c-72 -13 -78 -32 -7 -23 34 5 49 4 44 -4 -3 -5 -12 -10
-19 -10 -8 0 -13 -11 -13 -26 0 -25 2 -26 38 -20 21 3 40 2 44 -4 4 -6 -7 -10
-24 -10 -41 0 -40 -20 2 -21 30 -2 30 -2 5 -6 -32 -5 -38 -23 -9 -23 14 0 18
-5 14 -20 -4 -14 0 -20 10 -20 22 0 24 7 28 70 l4 55 -35 6 -35 5 28 14 c15 7
27 19 27 26 0 11 -24 26 -38 23 -4 -1 -33 -6 -64 -12z"/>
<path d="M140 3522 c0 -5 9 -17 20 -27 26 -23 52 -6 30 20 -13 16 -50 21 -50
7z"/>
<path d="M224 3464 c3 -9 6 -33 6 -55 0 -21 5 -39 10 -39 6 0 10 7 10 15 0 9
9 15 25 15 34 0 32 18 -2 23 l-28 4 28 2 c31 1 38 21 7 21 -13 0 -18 5 -14 15
5 11 -1 15 -21 15 -21 0 -26 -4 -21 -16z"/>
<path d="M100 3442 c0 -12 34 -42 48 -42 19 0 14 28 -7 40 -24 12 -41 13 -41
2z"/>
<path d="M142 3337 c-24 -36 -31 -58 -27 -75 3 -13 11 -22 17 -20 9 3 58 119
58 139 0 20 -17 5 -48 -44z"/>
<path d="M278 3107 c-72 -13 -78 -32 -7 -23 34 5 49 4 44 -4 -3 -5 -13 -10
-21 -10 -10 0 -13 -9 -9 -35 3 -26 0 -35 -10 -35 -9 0 -12 6 -9 15 5 11 -1 15
-21 15 -21 0 -26 -4 -21 -16 3 -9 6 -33 6 -55 0 -21 5 -39 10 -39 6 0 10 7 10
16 0 13 7 15 30 11 16 -4 32 -2 35 3 3 6 14 10 25 10 13 0 17 -5 13 -20 -4
-14 0 -20 10 -20 22 0 24 7 28 70 l4 55 -35 6 -35 5 28 14 c15 7 27 19 27 26
0 11 -24 26 -38 23 -4 -1 -33 -6 -64 -12z m87 -87 c4 -6 -5 -10 -20 -10 -15 0
-24 4 -20 10 3 6 12 10 20 10 8 0 17 -4 20 -10z m-2 -37 c-7 -2 -21 -2 -30 0
-10 3 -4 5 12 5 17 0 24 -2 18 -5z m-80 -10 c-7 -2 -19 -2 -25 0 -7 3 -2 5 12
5 14 0 19 -2 13 -5z"/>
<path d="M140 3072 c0 -5 9 -17 20 -27 26 -23 52 -6 30 20 -13 16 -50 21 -50
7z"/>
<path d="M100 2992 c0 -12 34 -42 48 -42 19 0 14 28 -7 40 -24 12 -41 13 -41
2z"/>
<path d="M142 2887 c-24 -36 -31 -58 -27 -75 3 -13 11 -22 17 -20 9 3 58 119
58 139 0 20 -17 5 -48 -44z"/>
<path d="M278 2657 c-72 -13 -78 -32 -7 -23 34 5 49 4 44 -4 -3 -5 -13 -10
-21 -10 -10 0 -13 -9 -9 -35 3 -26 0 -35 -10 -35 -9 0 -12 6 -9 15 5 11 -1 15
-21 15 -21 0 -26 -4 -21 -16 3 -9 6 -33 6 -55 0 -21 5 -39 10 -39 6 0 10 7 10
16 0 13 7 15 29 11 15 -3 33 -1 38 4 6 6 18 9 26 7 11 -2 12 -9 6 -25 -6 -17
-16 -23 -39 -23 -16 0 -30 -5 -30 -11 0 -8 14 -10 40 -6 22 3 42 1 45 -4 3 -4
-1 -24 -9 -43 -11 -26 -19 -34 -30 -30 -20 8 -21 -19 -2 -35 19 -16 42 -4 54
27 30 79 33 97 19 106 -10 6 -12 22 -6 65 5 31 5 59 1 63 -4 3 -20 8 -37 10
l-30 4 28 14 c15 7 27 19 27 26 0 11 -24 26 -38 23 -4 -1 -33 -6 -64 -12z m87
-87 c4 -6 -5 -10 -20 -10 -15 0 -24 4 -20 10 3 6 12 10 20 10 8 0 17 -4 20
-10z m-2 -37 c-7 -2 -21 -2 -30 0 -10 3 -4 5 12 5 17 0 24 -2 18 -5z m-80 -10
c-7 -2 -19 -2 -25 0 -7 3 -2 5 12 5 14 0 19 -2 13 -5z"/>
<path d="M140 2622 c0 -5 9 -17 20 -27 26 -23 52 -6 30 20 -13 16 -50 21 -50
7z"/>
<path d="M100 2542 c0 -12 34 -42 48 -42 19 0 14 28 -7 40 -24 12 -41 13 -41
2z"/>
<path d="M142 2437 c-24 -36 -31 -58 -27 -75 3 -13 11 -22 17 -20 9 3 58 119
58 139 0 20 -17 5 -48 -44z"/>
<path d="M200 2440 c0 -5 16 -10 35 -10 19 0 35 5 35 10 0 6 -16 10 -35 10
-19 0 -35 -4 -35 -10z"/>
<path d="M278 2207 c-72 -13 -78 -32 -7 -23 34 5 49 4 44 -4 -3 -5 -13 -10
-21 -10 -10 0 -13 -9 -9 -35 3 -26 0 -35 -10 -35 -9 0 -12 6 -9 15 5 11 -1 15
-21 15 -21 0 -26 -4 -21 -16 3 -9 6 -33 6 -55 0 -21 5 -39 10 -39 6 0 10 7 10
16 0 13 7 15 30 11 16 -4 32 -2 35 3 3 6 14 10 25 10 13 0 17 -5 13 -20 -7
-28 -19 -33 -43 -18 -18 11 -23 10 -31 -4 -7 -12 -22 -18 -44 -18 -46 0 -45
-18 1 -22 l35 -3 -36 -43 c-21 -24 -35 -45 -32 -49 10 -9 67 37 83 68 16 32
61 56 76 41 15 -15 -18 -83 -36 -76 -20 8 -21 -19 -2 -35 19 -16 42 -4 54 27
30 79 33 97 19 106 -10 6 -12 22 -6 65 5 31 5 59 1 63 -4 3 -20 8 -37 10 l-30
4 28 14 c15 7 27 19 27 26 0 11 -24 26 -38 23 -4 -1 -33 -6 -64 -12z m87 -87
c4 -6 -5 -10 -20 -10 -15 0 -24 4 -20 10 3 6 12 10 20 10 8 0 17 -4 20 -10z
m-2 -37 c-7 -2 -21 -2 -30 0 -10 3 -4 5 12 5 17 0 24 -2 18 -5z m-80 -10 c-7
-2 -19 -2 -25 0 -7 3 -2 5 12 5 14 0 19 -2 13 -5z"/>
<path d="M140 2172 c0 -5 9 -17 20 -27 26 -23 52 -6 30 20 -13 16 -50 21 -50
7z"/>
<path d="M100 2092 c0 -12 34 -42 48 -42 19 0 14 28 -7 40 -24 12 -41 13 -41
2z"/>
<path d="M142 1987 c-24 -36 -31 -58 -27 -75 3 -13 11 -22 17 -20 9 3 58 119
58 139 0 20 -17 5 -48 -44z"/>
</g>
</svg>
