<?xml version="1.0" standalone="no"?>
<!DOCTYPE svg PUBLIC "-//W3C//DTD SVG 20010904//EN"
 "http://www.w3.org/TR/2001/REC-SVG-20010904/DTD/svg10.dtd">
<svg version="1.0" xmlns="http://www.w3.org/2000/svg"
 width="50.000000pt" height="725.000000pt" viewBox="0 0 50.000000 725.000000"
 preserveAspectRatio="xMidYMid meet">
<metadata>
Created by potrace 1.16, written by Peter Selinger 2001-2019
</metadata>
<g transform="translate(0.000000,725.000000) scale(0.100000,-0.100000)"
fill="#000000" stroke="none">
<path d="M132 7103 c2 -10 14 -20 27 -21 19 -3 22 0 17 13 -3 9 -6 19 -6 21 0
2 -9 4 -21 4 -14 0 -19 -5 -17 -17z"/>
<path d="M132 6653 c2 -10 14 -20 27 -21 19 -3 22 0 17 13 -3 9 -6 19 -6 21 0
2 -9 4 -21 4 -14 0 -19 -5 -17 -17z"/>
<path d="M102 6578 c6 -16 36 -34 44 -26 3 4 4 14 1 23 -7 17 -51 21 -45 3z"/>
<path d="M132 6203 c2 -10 14 -20 27 -21 19 -3 22 0 17 13 -3 9 -6 19 -6 21 0
2 -9 4 -21 4 -14 0 -19 -5 -17 -17z"/>
<path d="M102 6128 c6 -16 36 -34 44 -26 3 4 4 14 1 23 -7 17 -51 21 -45 3z"/>
<path d="M122 6030 c-23 -28 -31 -46 -27 -60 9 -30 22 -24 44 18 44 87 36 106
-17 42z"/>
<path d="M236 5785 c-10 -15 -16 -29 -13 -31 10 -10 58 20 55 34 -5 26 -24 24
-42 -3z"/>
<path d="M132 5753 c2 -10 14 -20 27 -21 19 -3 22 0 17 13 -3 9 -6 19 -6 21 0
2 -9 4 -21 4 -14 0 -19 -5 -17 -17z"/>
<path d="M102 5678 c6 -16 36 -34 44 -26 3 4 4 14 1 23 -7 17 -51 21 -45 3z"/>
<path d="M122 5580 c-23 -28 -31 -46 -27 -60 9 -30 22 -24 44 18 44 87 36 106
-17 42z"/>
<path d="M241 5341 c-6 -11 -17 -25 -24 -33 -8 -7 -17 -39 -20 -71 -8 -65 4
-74 41 -34 27 29 28 40 2 32 -14 -4 -20 -2 -20 9 0 30 19 64 40 71 12 4 20 13
18 23 -5 24 -25 26 -37 3z"/>
<path d="M132 5303 c2 -10 14 -20 27 -21 19 -3 22 0 17 13 -3 9 -6 19 -6 21 0
2 -9 4 -21 4 -14 0 -19 -5 -17 -17z"/>
<path d="M102 5228 c6 -16 36 -34 44 -26 3 4 4 14 1 23 -7 17 -51 21 -45 3z"/>
<path d="M122 5130 c-23 -28 -31 -46 -27 -60 9 -30 22 -24 44 18 44 87 36 106
-17 42z"/>
<path d="M241 4891 c-6 -11 -17 -25 -24 -33 -20 -20 -31 -128 -14 -128 8 0 22
9 32 20 10 11 26 20 37 20 20 0 24 20 6 38 -17 17 -25 15 -31 -8 -6 -23 -27
-27 -27 -6 0 30 20 65 40 71 12 4 20 13 18 23 -5 24 -25 26 -37 3z"/>
<path d="M132 4853 c2 -10 14 -20 27 -21 19 -3 22 0 17 13 -3 9 -6 19 -6 21 0
2 -9 4 -21 4 -14 0 -19 -5 -17 -17z"/>
<path d="M102 4778 c6 -16 36 -34 44 -26 3 4 4 14 1 23 -7 17 -51 21 -45 3z"/>
<path d="M122 4680 c-23 -28 -31 -46 -27 -60 9 -30 22 -24 44 18 44 87 36 106
-17 42z"/>
<path d="M241 4441 c-6 -11 -17 -25 -24 -33 -20 -20 -31 -128 -14 -128 8 0 22
9 32 20 10 11 26 20 37 20 20 0 24 20 6 38 -17 17 -25 15 -31 -8 -6 -23 -27
-27 -27 -6 0 30 20 65 40 71 12 4 20 13 18 23 -5 24 -25 26 -37 3z"/>
<path d="M363 4423 c-29 -6 -30 -23 -2 -23 18 0 20 -4 15 -27 -4 -16 -14 -33
-23 -40 -18 -14 -11 -43 11 -43 22 0 36 31 39 86 2 49 -3 54 -40 47z"/>
<path d="M132 4403 c2 -10 14 -20 27 -21 19 -3 22 0 17 13 -3 9 -6 19 -6 21 0
2 -9 4 -21 4 -14 0 -19 -5 -17 -17z"/>
<path d="M280 4400 c0 -5 11 -10 25 -10 14 0 25 5 25 10 0 6 -11 10 -25 10
-14 0 -25 -4 -25 -10z"/>
<path d="M102 4328 c6 -16 36 -34 44 -26 3 4 4 14 1 23 -7 17 -51 21 -45 3z"/>
<path d="M122 4230 c-23 -28 -31 -46 -27 -60 9 -30 22 -24 44 18 44 87 36 106
-17 42z"/>
<path d="M241 3991 c-6 -11 -17 -25 -24 -33 -20 -20 -31 -128 -14 -128 8 0 22
9 32 20 21 24 47 27 39 5 -4 -8 -2 -15 4 -15 15 0 61 58 68 86 3 13 13 24 21
24 19 0 9 -49 -14 -67 -18 -14 -11 -43 11 -43 9 0 20 8 25 18 13 25 24 109 14
114 -12 7 -123 -15 -123 -24 0 -4 9 -8 19 -8 18 0 19 -3 9 -31 -10 -29 -11
-30 -25 -10 -18 26 -29 27 -36 1 -6 -23 -27 -27 -27 -6 0 30 20 65 40 71 12 4
20 13 18 23 -5 24 -25 26 -37 3z"/>
<path d="M132 3953 c2 -10 14 -20 27 -21 19 -3 22 0 17 13 -3 9 -6 19 -6 21 0
2 -9 4 -21 4 -14 0 -19 -5 -17 -17z"/>
<path d="M102 3878 c6 -16 36 -34 44 -26 3 4 4 14 1 23 -7 17 -51 21 -45 3z"/>
<path d="M122 3780 c-23 -28 -31 -46 -27 -60 9 -30 22 -24 44 18 44 87 36 106
-17 42z"/>
<path d="M241 3541 c-6 -11 -17 -25 -24 -33 -20 -20 -31 -128 -14 -128 8 0 22
9 32 20 21 24 47 27 39 5 -4 -8 -2 -15 4 -15 15 0 61 58 68 86 3 13 13 24 21
24 19 0 9 -49 -14 -67 -18 -14 -11 -43 11 -43 9 0 20 8 25 18 13 25 24 109 14
114 -12 7 -123 -15 -123 -24 0 -4 9 -8 19 -8 18 0 19 -3 9 -31 -10 -29 -11
-30 -25 -10 -18 26 -29 27 -36 1 -6 -23 -27 -27 -27 -6 0 30 20 65 40 71 12 4
20 13 18 23 -5 24 -25 26 -37 3z"/>
<path d="M132 3503 c2 -10 14 -20 27 -21 19 -3 22 0 17 13 -3 9 -6 19 -6 21 0
2 -9 4 -21 4 -14 0 -19 -5 -17 -17z"/>
<path d="M102 3428 c6 -16 36 -34 44 -26 3 4 4 14 1 23 -7 17 -51 21 -45 3z"/>
<path d="M122 3330 c-23 -28 -31 -46 -27 -60 9 -30 22 -24 44 18 44 87 36 106
-17 42z"/>
<path d="M207 3313 c5 -57 16 -83 29 -70 12 12 -7 127 -21 127 -10 0 -12 -14
-8 -57z"/>
<path d="M241 3091 c-6 -11 -17 -25 -24 -33 -20 -20 -31 -128 -14 -128 8 0 22
9 32 20 21 24 47 27 39 5 -4 -8 -2 -15 4 -15 15 0 61 58 68 86 3 13 13 24 21
24 19 0 9 -49 -14 -67 -18 -14 -11 -43 11 -43 9 0 20 8 25 18 13 25 24 109 14
114 -12 7 -123 -15 -123 -24 0 -4 9 -8 19 -8 18 0 19 -3 9 -31 -10 -29 -11
-30 -25 -10 -18 26 -29 27 -36 1 -6 -23 -27 -27 -27 -6 0 30 20 65 40 71 12 4
20 13 18 23 -5 24 -25 26 -37 3z"/>
<path d="M132 3053 c2 -10 14 -20 27 -21 19 -3 22 0 17 13 -3 9 -6 19 -6 21 0
2 -9 4 -21 4 -14 0 -19 -5 -17 -17z"/>
<path d="M102 2978 c6 -16 36 -34 44 -26 3 4 4 14 1 23 -7 17 -51 21 -45 3z"/>
<path d="M280 2920 c0 -5 18 -10 40 -10 38 0 40 -2 40 -29 0 -16 -6 -36 -14
-44 -17 -17 -10 -57 10 -57 14 0 31 51 36 110 l3 35 -57 3 c-36 2 -58 -1 -58
-8z"/>
<path d="M122 2880 c-23 -28 -31 -46 -27 -60 9 -30 22 -24 44 18 44 87 36 106
-17 42z"/>
<path d="M206 2868 c7 -67 11 -78 25 -78 8 0 10 16 5 55 -6 51 -5 55 14 55 11
0 20 5 20 10 0 6 -16 10 -35 10 l-34 0 5 -52z"/>
<path d="M241 2641 c-6 -11 -17 -25 -24 -33 -20 -20 -31 -128 -14 -128 8 0 22
9 32 20 21 24 47 27 39 5 -4 -8 -2 -15 4 -15 15 0 61 58 68 86 3 13 13 24 21
24 19 0 9 -49 -14 -67 -18 -14 -11 -43 11 -43 9 0 20 8 25 18 13 25 24 109 14
114 -12 7 -123 -15 -123 -24 0 -4 9 -8 19 -8 18 0 19 -3 9 -31 -10 -29 -11
-30 -25 -10 -18 26 -29 27 -36 1 -6 -23 -27 -27 -27 -6 0 30 20 65 40 71 12 4
20 13 18 23 -5 24 -25 26 -37 3z"/>
<path d="M132 2603 c2 -10 14 -20 27 -21 19 -3 22 0 17 13 -3 9 -6 19 -6 21 0
2 -9 4 -21 4 -14 0 -19 -5 -17 -17z"/>
<path d="M102 2528 c6 -16 36 -34 44 -26 3 4 4 14 1 23 -7 17 -51 21 -45 3z"/>
<path d="M280 2470 c0 -5 18 -10 40 -10 58 0 53 -25 -6 -34 -69 -9 -84 -8 -84
9 0 8 9 15 20 15 11 0 20 5 20 10 0 6 -16 10 -35 10 l-34 0 5 -52 c7 -66 11
-78 24 -78 5 0 10 13 10 29 0 27 3 29 56 36 62 7 72 4 50 -18 -17 -17 -10 -57
10 -57 14 0 31 51 36 110 l3 35 -57 3 c-36 2 -58 -1 -58 -8z"/>
<path d="M122 2430 c-23 -28 -31 -46 -27 -60 9 -30 22 -24 44 18 44 87 36 106
-17 42z"/>
<path d="M241 2191 c-6 -11 -17 -25 -24 -33 -20 -20 -31 -128 -14 -128 8 0 22
9 32 20 21 24 47 27 39 5 -4 -8 -2 -15 4 -15 15 0 61 58 68 86 3 13 13 24 21
24 19 0 9 -49 -14 -67 -18 -14 -11 -43 11 -43 9 0 20 8 25 18 13 25 24 109 14
114 -12 7 -123 -15 -123 -24 0 -4 9 -8 19 -8 18 0 19 -3 9 -31 -10 -29 -11
-30 -25 -10 -18 26 -29 27 -36 1 -6 -23 -27 -27 -27 -6 0 30 20 65 40 71 12 4
20 13 18 23 -5 24 -25 26 -37 3z"/>
<path d="M132 2153 c2 -10 14 -20 27 -21 19 -3 22 0 17 13 -3 9 -6 19 -6 21 0
2 -9 4 -21 4 -14 0 -19 -5 -17 -17z"/>
<path d="M102 2078 c6 -16 36 -34 44 -26 3 4 4 14 1 23 -7 17 -51 21 -45 3z"/>
<path d="M243 2023 l-42 -4 5 -52 c7 -65 11 -77 24 -77 5 0 10 14 10 30 0 23
4 30 20 30 11 0 20 -7 20 -15 0 -22 17 -18 23 5 3 14 14 20 31 20 30 0 31 -3
12 -23 -17 -17 -10 -57 10 -57 14 0 31 51 36 110 l3 35 -55 1 c-30 0 -74 -1
-97 -3z m117 -28 c0 -10 -10 -15 -30 -15 -29 0 -38 9 -23 23 13 13 53 7 53 -8z
m-82 -12 c2 -8 -6 -13 -22 -13 -17 0 -26 5 -26 16 0 19 41 16 48 -3z"/>
<path d="M122 1980 c-23 -28 -31 -46 -27 -60 9 -30 22 -24 44 18 44 87 36 106
-17 42z"/>
<path d="M241 1741 c-6 -11 -17 -25 -24 -33 -20 -20 -31 -128 -14 -128 8 0 22
9 32 20 21 24 47 27 39 5 -4 -8 -2 -15 4 -15 15 0 61 58 68 86 3 13 13 24 21
24 19 0 9 -49 -14 -67 -18 -14 -11 -43 11 -43 9 0 20 8 25 18 13 25 24 109 14
114 -12 7 -123 -15 -123 -24 0 -4 9 -8 19 -8 18 0 19 -3 9 -31 -10 -29 -11
-30 -25 -10 -18 26 -29 27 -36 1 -6 -23 -27 -27 -27 -6 0 30 20 65 40 71 12 4
20 13 18 23 -5 24 -25 26 -37 3z"/>
<path d="M132 1703 c2 -10 14 -20 27 -21 19 -3 22 0 17 13 -3 9 -6 19 -6 21 0
2 -9 4 -21 4 -14 0 -19 -5 -17 -17z"/>
<path d="M102 1628 c6 -16 36 -34 44 -26 3 4 4 14 1 23 -7 17 -51 21 -45 3z"/>
<path d="M243 1573 l-41 -4 5 -57 c3 -31 9 -60 12 -64 4 -4 22 -3 41 2 50 14
80 13 80 -5 0 -8 7 -15 15 -15 15 0 31 49 37 110 l3 35 -55 1 c-30 0 -74 -1
-97 -3z m117 -28 c0 -10 -10 -15 -30 -15 -29 0 -38 9 -23 23 13 13 53 7 53 -8z
m-82 -12 c2 -8 -6 -13 -22 -13 -17 0 -26 5 -26 16 0 19 41 16 48 -3z m76 -38
c-6 -16 -54 -21 -54 -7 0 15 12 22 36 22 17 0 22 -4 18 -15z m-76 -7 c-7 -19
-38 -22 -38 -4 0 10 9 16 21 16 12 0 19 -5 17 -12z"/>
<path d="M122 1530 c-23 -28 -31 -46 -27 -60 9 -30 22 -24 44 18 44 87 36 106
-17 42z"/>
</g>
</svg>
