<?xml version="1.0" standalone="no"?>
<!DOCTYPE svg PUBLIC "-//W3C//DTD SVG 20010904//EN"
 "http://www.w3.org/TR/2001/REC-SVG-20010904/DTD/svg10.dtd">
<svg version="1.0" xmlns="http://www.w3.org/2000/svg"
 width="50.000000pt" height="725.000000pt" viewBox="0 0 50.000000 725.000000"
 preserveAspectRatio="xMidYMid meet">
<metadata>
Created by potrace 1.16, written by Peter Selinger 2001-2019
</metadata>
<g transform="translate(0.000000,725.000000) scale(0.100000,-0.100000)"
fill="#000000" stroke="none">
<path d="M110 7107 c0 -17 20 -37 37 -37 19 0 16 37 -3 44 -24 9 -34 7 -34 -7z"/>
<path d="M110 6657 c0 -17 20 -37 37 -37 19 0 16 37 -3 44 -24 9 -34 7 -34 -7z"/>
<path d="M80 6577 c0 -17 20 -37 37 -37 19 0 16 37 -3 44 -24 9 -34 7 -34 -7z"/>
<path d="M110 6207 c0 -17 20 -37 37 -37 19 0 16 37 -3 44 -24 9 -34 7 -34 -7z"/>
<path d="M80 6127 c0 -17 20 -37 37 -37 19 0 16 37 -3 44 -24 9 -34 7 -34 -7z"/>
<path d="M135 6060 c-4 -11 -18 -33 -31 -50 -21 -24 -23 -33 -14 -50 6 -11 14
-20 18 -20 7 0 52 116 52 133 0 15 -19 6 -25 -13z"/>
<path d="M220 5759 c-7 -11 -9 -23 -7 -26 9 -9 47 17 47 32 0 22 -28 18 -40
-6z"/>
<path d="M110 5757 c0 -17 20 -37 37 -37 19 0 16 37 -3 44 -24 9 -34 7 -34 -7z"/>
<path d="M80 5677 c0 -17 20 -37 37 -37 19 0 16 37 -3 44 -24 9 -34 7 -34 -7z"/>
<path d="M135 5610 c-4 -11 -18 -33 -31 -50 -21 -24 -23 -33 -14 -50 6 -11 14
-20 18 -20 7 0 52 116 52 133 0 15 -19 6 -25 -13z"/>
<path d="M220 5310 c-6 -11 -18 -20 -26 -20 -11 0 -14 -6 -10 -16 3 -9 9 -33
12 -55 9 -57 27 -49 22 10 -4 44 -2 50 19 60 25 12 32 41 8 41 -8 0 -19 -9
-25 -20z"/>
<path d="M110 5307 c0 -17 20 -37 37 -37 19 0 16 37 -3 44 -24 9 -34 7 -34 -7z"/>
<path d="M80 5227 c0 -17 20 -37 37 -37 19 0 16 37 -3 44 -24 9 -34 7 -34 -7z"/>
<path d="M135 5160 c-4 -11 -18 -33 -31 -50 -21 -24 -23 -33 -14 -50 6 -11 14
-20 18 -20 7 0 52 116 52 133 0 15 -19 6 -25 -13z"/>
<path d="M220 4860 c-6 -11 -18 -20 -26 -20 -11 0 -14 -6 -10 -16 3 -9 9 -33
12 -55 7 -43 24 -53 24 -14 0 18 5 25 20 25 27 0 26 18 -2 22 -31 4 -33 23 -3
36 27 12 34 42 10 42 -8 0 -19 -9 -25 -20z"/>
<path d="M110 4857 c0 -17 20 -37 37 -37 19 0 16 37 -3 44 -24 9 -34 7 -34 -7z"/>
<path d="M80 4777 c0 -17 20 -37 37 -37 19 0 16 37 -3 44 -24 9 -34 7 -34 -7z"/>
<path d="M135 4710 c-4 -11 -18 -33 -31 -50 -21 -24 -23 -33 -14 -50 6 -11 14
-20 18 -20 7 0 52 116 52 133 0 15 -19 6 -25 -13z"/>
<path d="M220 4410 c-6 -11 -18 -20 -26 -20 -11 0 -14 -6 -10 -16 3 -9 9 -33
12 -55 6 -38 16 -45 48 -33 23 9 20 27 -4 21 -13 -3 -20 0 -20 9 0 8 9 14 20
14 27 0 26 18 -2 22 -31 4 -33 23 -3 36 27 12 34 42 10 42 -8 0 -19 -9 -25
-20z"/>
<path d="M110 4407 c0 -17 20 -37 37 -37 19 0 16 37 -3 44 -24 9 -34 7 -34 -7z"/>
<path d="M80 4327 c0 -17 20 -37 37 -37 19 0 16 37 -3 44 -24 9 -34 7 -34 -7z"/>
<path d="M135 4260 c-4 -11 -18 -33 -31 -50 -21 -24 -23 -33 -14 -50 6 -11 14
-20 18 -20 7 0 52 116 52 133 0 15 -19 6 -25 -13z"/>
<path d="M220 3960 c-6 -11 -18 -20 -26 -20 -11 0 -14 -6 -10 -16 3 -9 9 -33
12 -55 6 -38 16 -45 48 -33 23 9 20 27 -4 21 -13 -3 -20 0 -20 9 0 8 9 14 20
14 27 0 26 18 -2 22 -31 4 -33 23 -3 36 27 12 34 42 10 42 -8 0 -19 -9 -25
-20z"/>
<path d="M110 3957 c0 -17 20 -37 37 -37 19 0 16 37 -3 44 -24 9 -34 7 -34 -7z"/>
<path d="M333 3963 c-31 -6 -29 -23 2 -23 25 0 25 -1 19 -55 -5 -38 -3 -55 4
-55 7 0 14 12 18 28 3 15 10 42 16 61 8 26 7 35 -3 42 -15 9 -19 9 -56 2z"/>
<path d="M80 3877 c0 -17 20 -37 37 -37 19 0 16 37 -3 44 -24 9 -34 7 -34 -7z"/>
<path d="M135 3810 c-4 -11 -18 -33 -31 -50 -21 -24 -23 -33 -14 -50 6 -11 14
-20 18 -20 7 0 52 116 52 133 0 15 -19 6 -25 -13z"/>
<path d="M220 3510 c-6 -11 -18 -20 -26 -20 -11 0 -14 -6 -10 -16 3 -9 9 -33
12 -55 6 -38 16 -45 48 -33 23 9 20 27 -4 21 -13 -3 -20 0 -20 9 0 8 9 14 20
14 27 0 26 18 -2 22 -31 4 -33 23 -3 36 27 12 34 42 10 42 -8 0 -19 -9 -25
-20z"/>
<path d="M110 3507 c0 -17 20 -37 37 -37 19 0 16 37 -3 44 -24 9 -34 7 -34 -7z"/>
<path d="M333 3513 c-31 -6 -29 -23 2 -23 16 0 25 -6 25 -15 0 -9 -9 -15 -25
-15 -14 0 -25 -4 -25 -10 0 -5 9 -10 20 -10 16 0 20 -7 20 -30 0 -38 18 -39
26 -2 3 15 10 42 16 61 8 26 7 35 -3 42 -15 9 -19 9 -56 2z"/>
<path d="M80 3427 c0 -17 20 -37 37 -37 19 0 16 37 -3 44 -24 9 -34 7 -34 -7z"/>
<path d="M135 3360 c-4 -11 -18 -33 -31 -50 -21 -24 -23 -33 -14 -50 6 -11 14
-20 18 -20 7 0 52 116 52 133 0 15 -19 6 -25 -13z"/>
<path d="M220 3060 c-6 -11 -18 -20 -26 -20 -11 0 -14 -6 -10 -16 3 -9 9 -33
12 -55 6 -38 16 -45 48 -33 23 9 20 27 -4 21 -13 -3 -20 0 -20 9 0 8 9 14 20
14 27 0 26 18 -2 22 -31 4 -33 23 -3 36 27 12 34 42 10 42 -8 0 -19 -9 -25
-20z"/>
<path d="M110 3057 c0 -17 20 -37 37 -37 19 0 16 37 -3 44 -24 9 -34 7 -34 -7z"/>
<path d="M333 3063 c-31 -6 -29 -23 2 -23 16 0 25 -6 25 -15 0 -9 -9 -15 -25
-15 -14 0 -25 -4 -25 -10 0 -5 9 -10 20 -10 11 0 20 -7 20 -15 0 -8 -9 -15
-20 -15 -30 0 -24 -17 8 -23 15 -3 28 -4 30 -3 1 2 9 29 17 61 19 72 13 81
-52 68z"/>
<path d="M80 2977 c0 -17 20 -37 37 -37 19 0 16 37 -3 44 -24 9 -34 7 -34 -7z"/>
<path d="M135 2910 c-4 -11 -18 -33 -31 -50 -21 -24 -23 -33 -14 -50 6 -11 14
-20 18 -20 7 0 52 116 52 133 0 15 -19 6 -25 -13z"/>
<path d="M270 2560 c0 -62 4 -100 10 -100 15 0 18 15 23 113 3 79 2 87 -15 87
-16 0 -18 -10 -18 -100z"/>
<path d="M220 2610 c-6 -11 -18 -20 -26 -20 -11 0 -14 -6 -10 -16 3 -9 9 -33
12 -55 6 -38 16 -45 48 -33 23 9 20 27 -4 21 -13 -3 -20 0 -20 9 0 8 9 14 20
14 27 0 26 18 -2 22 -31 4 -33 23 -3 36 27 12 34 42 10 42 -8 0 -19 -9 -25
-20z"/>
<path d="M110 2607 c0 -17 20 -37 37 -37 19 0 16 37 -3 44 -24 9 -34 7 -34 -7z"/>
<path d="M333 2613 c-31 -6 -29 -23 2 -23 16 0 25 -6 25 -15 0 -9 -9 -15 -25
-15 -14 0 -25 -4 -25 -10 0 -5 9 -10 20 -10 11 0 20 -7 20 -15 0 -8 -9 -15
-20 -15 -30 0 -24 -17 8 -23 15 -3 28 -4 30 -3 1 2 9 29 17 61 19 72 13 81
-52 68z"/>
<path d="M80 2527 c0 -17 20 -37 37 -37 19 0 16 37 -3 44 -24 9 -34 7 -34 -7z"/>
<path d="M135 2460 c-4 -11 -18 -33 -31 -50 -21 -24 -23 -33 -14 -50 6 -11 14
-20 18 -20 7 0 52 116 52 133 0 15 -19 6 -25 -13z"/>
<path d="M270 2110 c0 -89 -2 -100 -17 -100 -21 0 -50 -17 -42 -24 3 -3 29 -2
58 3 l52 8 -32 -33 c-18 -19 -48 -40 -66 -46 -37 -14 -43 -28 -12 -28 54 0
158 82 145 116 -5 12 -14 15 -34 11 -26 -5 -28 -3 -26 21 2 15 5 60 7 100 4
65 3 72 -14 72 -17 0 -19 -9 -19 -100z"/>
<path d="M220 2160 c-6 -11 -18 -20 -26 -20 -11 0 -14 -6 -10 -16 3 -9 9 -33
12 -55 6 -38 16 -45 48 -33 23 9 20 27 -4 21 -13 -3 -20 0 -20 9 0 8 9 14 20
14 27 0 26 18 -2 22 -31 4 -33 23 -3 36 27 12 34 42 10 42 -8 0 -19 -9 -25
-20z"/>
<path d="M110 2157 c0 -17 20 -37 37 -37 19 0 16 37 -3 44 -24 9 -34 7 -34 -7z"/>
<path d="M333 2163 c-31 -6 -29 -23 2 -23 16 0 25 -6 25 -15 0 -9 -9 -15 -25
-15 -14 0 -25 -4 -25 -10 0 -5 9 -10 20 -10 11 0 20 -7 20 -15 0 -8 -9 -15
-20 -15 -30 0 -24 -17 8 -23 15 -3 28 -4 30 -3 1 2 9 29 17 61 19 72 13 81
-52 68z"/>
<path d="M80 2077 c0 -17 20 -37 37 -37 19 0 16 37 -3 44 -24 9 -34 7 -34 -7z"/>
<path d="M135 2010 c-4 -11 -18 -33 -31 -50 -21 -24 -23 -33 -14 -50 6 -11 14
-20 18 -20 7 0 52 116 52 133 0 15 -19 6 -25 -13z"/>
<path d="M270 1660 c0 -89 -2 -100 -17 -100 -10 0 -25 -4 -33 -10 -12 -7 -9
-13 13 -30 35 -28 34 -36 -8 -51 -19 -7 -35 -17 -35 -21 0 -13 43 -9 71 6 24
12 29 12 45 -5 20 -19 37 -23 92 -21 45 3 40 18 -10 31 -70 18 -77 26 -49 55
31 33 22 61 -17 53 -26 -5 -28 -3 -26 21 2 15 5 60 7 100 4 65 3 72 -14 72
-17 0 -19 -9 -19 -100z m35 -130 c-15 -16 -21 -17 -39 -7 -20 11 -19 12 14 18
19 3 37 7 39 8 2 0 -4 -8 -14 -19z"/>
<path d="M220 1710 c-6 -11 -18 -20 -26 -20 -11 0 -14 -6 -10 -16 3 -9 9 -33
12 -55 6 -38 16 -45 48 -33 23 9 20 27 -4 21 -13 -3 -20 0 -20 9 0 8 9 14 20
14 27 0 26 18 -2 22 -31 4 -33 23 -3 36 27 12 34 42 10 42 -8 0 -19 -9 -25
-20z"/>
<path d="M110 1707 c0 -17 20 -37 37 -37 19 0 16 37 -3 44 -24 9 -34 7 -34 -7z"/>
<path d="M333 1713 c-31 -6 -29 -23 2 -23 16 0 25 -6 25 -15 0 -9 -9 -15 -25
-15 -14 0 -25 -4 -25 -10 0 -5 9 -10 20 -10 11 0 20 -7 20 -15 0 -8 -9 -15
-20 -15 -30 0 -24 -17 8 -23 15 -3 28 -4 30 -3 1 2 9 29 17 61 19 72 13 81
-52 68z"/>
<path d="M80 1627 c0 -17 20 -37 37 -37 19 0 16 37 -3 44 -24 9 -34 7 -34 -7z"/>
<path d="M135 1560 c-4 -11 -18 -33 -31 -50 -21 -24 -23 -33 -14 -50 6 -11 14
-20 18 -20 7 0 52 116 52 133 0 15 -19 6 -25 -13z"/>
</g>
</svg>
