<?xml version="1.0" standalone="no"?>
<!DOCTYPE svg PUBLIC "-//W3C//DTD SVG 20010904//EN"
 "http://www.w3.org/TR/2001/REC-SVG-20010904/DTD/svg10.dtd">
<svg version="1.0" xmlns="http://www.w3.org/2000/svg"
 width="50.000000pt" height="725.000000pt" viewBox="0 0 50.000000 725.000000"
 preserveAspectRatio="xMidYMid meet">
<metadata>
Created by potrace 1.16, written by Peter Selinger 2001-2019
</metadata>
<g transform="translate(0.000000,725.000000) scale(0.100000,-0.100000)"
fill="#000000" stroke="none">
<path d="M114 7115 c3 -9 6 -19 6 -21 0 -2 9 -4 21 -4 29 0 21 34 -10 38 -19
3 -22 0 -17 -13z"/>
<path d="M114 6665 c3 -9 6 -19 6 -21 0 -2 9 -4 21 -4 29 0 21 34 -10 38 -19
3 -22 0 -17 -13z"/>
<path d="M70 6592 c0 -10 33 -42 44 -42 4 0 6 10 4 23 -2 14 -11 23 -25 25
-13 2 -23 -1 -23 -6z"/>
<path d="M114 6215 c3 -9 6 -19 6 -21 0 -2 9 -4 21 -4 29 0 21 34 -10 38 -19
3 -22 0 -17 -13z"/>
<path d="M70 6142 c0 -10 33 -42 44 -42 4 0 6 10 4 23 -2 14 -11 23 -25 25
-13 2 -23 -1 -23 -6z"/>
<path d="M130 6070 c0 -5 -14 -25 -31 -44 -22 -25 -29 -41 -24 -56 10 -32 22
-24 49 36 28 62 31 74 16 74 -5 0 -10 -4 -10 -10z"/>
<path d="M240 5795 c0 -17 22 -45 36 -45 25 0 13 44 -13 48 -13 2 -23 1 -23
-3z"/>
<path d="M114 5765 c3 -9 6 -19 6 -21 0 -2 9 -4 21 -4 29 0 21 34 -10 38 -19
3 -22 0 -17 -13z"/>
<path d="M70 5692 c0 -10 33 -42 44 -42 4 0 6 10 4 23 -2 14 -11 23 -25 25
-13 2 -23 -1 -23 -6z"/>
<path d="M130 5620 c0 -5 -14 -25 -31 -44 -22 -25 -29 -41 -24 -56 10 -32 22
-24 49 36 28 62 31 74 16 74 -5 0 -10 -4 -10 -10z"/>
<path d="M240 5345 c0 -17 22 -45 36 -45 25 0 13 44 -13 48 -13 2 -23 1 -23
-3z"/>
<path d="M114 5315 c3 -9 6 -19 6 -21 0 -2 9 -4 21 -4 29 0 21 34 -10 38 -19
3 -22 0 -17 -13z"/>
<path d="M172 5285 c-16 -34 -15 -45 2 -45 15 0 26 21 26 51 0 27 -15 24 -28
-6z"/>
<path d="M70 5242 c0 -10 33 -42 44 -42 4 0 6 10 4 23 -2 14 -11 23 -25 25
-13 2 -23 -1 -23 -6z"/>
<path d="M130 5170 c0 -5 -14 -25 -31 -44 -22 -25 -29 -41 -24 -56 10 -32 22
-24 49 36 28 62 31 74 16 74 -5 0 -10 -4 -10 -10z"/>
<path d="M240 4894 c0 -3 5 -15 11 -26 11 -20 9 -21 -29 -16 -35 5 -41 3 -51
-19 -15 -32 -14 -43 3 -43 8 0 17 8 21 19 4 14 21 20 75 28 56 7 70 6 70 -4 0
-15 19 -17 39 -4 8 5 11 16 7 26 -5 14 -15 17 -50 13 -37 -5 -45 -2 -49 13 -5
17 -47 29 -47 13z"/>
<path d="M114 4865 c3 -9 6 -19 6 -21 0 -2 9 -4 21 -4 29 0 21 34 -10 38 -19
3 -22 0 -17 -13z"/>
<path d="M70 4792 c0 -10 33 -42 44 -42 4 0 6 10 4 23 -2 14 -11 23 -25 25
-13 2 -23 -1 -23 -6z"/>
<path d="M130 4720 c0 -5 -14 -25 -31 -44 -22 -25 -29 -41 -24 -56 10 -32 22
-24 49 36 28 62 31 74 16 74 -5 0 -10 -4 -10 -10z"/>
<path d="M240 4444 c0 -3 5 -15 11 -26 11 -20 9 -21 -29 -16 -35 5 -41 3 -51
-19 -15 -32 -14 -43 3 -43 8 0 17 8 21 19 4 14 21 20 75 28 56 7 70 6 70 -4 0
-15 19 -17 39 -4 8 5 11 16 7 26 -5 14 -15 17 -50 13 -37 -5 -45 -2 -49 13 -5
17 -47 29 -47 13z"/>
<path d="M114 4415 c3 -9 6 -19 6 -21 0 -2 9 -4 21 -4 29 0 21 34 -10 38 -19
3 -22 0 -17 -13z"/>
<path d="M197 4329 c-10 -18 -15 -34 -12 -37 6 -6 65 48 65 60 0 21 -37 5 -53
-23z"/>
<path d="M70 4342 c0 -10 33 -42 44 -42 4 0 6 10 4 23 -2 14 -11 23 -25 25
-13 2 -23 -1 -23 -6z"/>
<path d="M130 4270 c0 -5 -14 -25 -31 -44 -22 -25 -29 -41 -24 -56 10 -32 22
-24 49 36 28 62 31 74 16 74 -5 0 -10 -4 -10 -10z"/>
<path d="M240 3994 c0 -3 5 -15 11 -26 11 -20 9 -21 -29 -16 -35 5 -41 3 -51
-19 -15 -32 -14 -43 3 -43 8 0 17 8 21 19 4 14 21 20 75 28 56 7 70 6 70 -4 0
-15 19 -17 39 -4 8 5 11 16 7 26 -5 14 -15 17 -50 13 -37 -5 -45 -2 -49 13 -5
17 -47 29 -47 13z"/>
<path d="M114 3965 c3 -9 6 -19 6 -21 0 -2 9 -4 21 -4 29 0 21 34 -10 38 -19
3 -22 0 -17 -13z"/>
<path d="M290 3912 c0 -16 32 -52 46 -52 25 0 16 40 -12 50 -31 12 -34 12 -34
2z"/>
<path d="M197 3879 c-10 -18 -15 -34 -12 -37 6 -6 65 48 65 60 0 21 -37 5 -53
-23z"/>
<path d="M70 3892 c0 -10 33 -42 44 -42 4 0 6 10 4 23 -2 14 -11 23 -25 25
-13 2 -23 -1 -23 -6z"/>
<path d="M130 3820 c0 -5 -14 -25 -31 -44 -22 -25 -29 -41 -24 -56 10 -32 22
-24 49 36 28 62 31 74 16 74 -5 0 -10 -4 -10 -10z"/>
<path d="M240 3544 c0 -3 5 -15 11 -26 11 -20 9 -21 -29 -16 -35 5 -41 3 -51
-19 -15 -32 -14 -43 3 -43 8 0 17 8 21 19 4 14 21 20 75 28 56 7 70 6 70 -4 0
-15 19 -17 39 -4 8 5 11 16 7 26 -5 14 -15 17 -50 13 -37 -5 -45 -2 -49 13 -5
17 -47 29 -47 13z"/>
<path d="M114 3515 c3 -9 6 -19 6 -21 0 -2 9 -4 21 -4 29 0 21 34 -10 38 -19
3 -22 0 -17 -13z"/>
<path d="M290 3462 c0 -16 32 -52 46 -52 25 0 16 40 -12 50 -31 12 -34 12 -34
2z"/>
<path d="M197 3429 c-10 -18 -15 -34 -12 -37 6 -6 65 48 65 60 0 21 -37 5 -53
-23z"/>
<path d="M70 3442 c0 -10 33 -42 44 -42 4 0 6 10 4 23 -2 14 -11 23 -25 25
-13 2 -23 -1 -23 -6z"/>
<path d="M248 3412 c-10 -16 -38 -48 -63 -71 -26 -24 -44 -45 -42 -48 19 -19
154 104 144 131 -9 23 -21 20 -39 -12z"/>
<path d="M130 3370 c0 -5 -14 -25 -31 -44 -22 -25 -29 -41 -24 -56 10 -32 22
-24 49 36 28 62 31 74 16 74 -5 0 -10 -4 -10 -10z"/>
<path d="M240 3094 c0 -3 5 -15 11 -26 11 -20 9 -21 -29 -16 -35 5 -41 3 -51
-19 -15 -32 -14 -43 3 -43 8 0 17 8 21 19 4 14 21 20 75 28 56 7 70 6 70 -4 0
-15 19 -17 39 -4 8 5 11 16 7 26 -5 14 -15 17 -50 13 -37 -5 -45 -2 -49 13 -5
17 -47 29 -47 13z"/>
<path d="M114 3065 c3 -9 6 -19 6 -21 0 -2 9 -4 21 -4 29 0 21 34 -10 38 -19
3 -22 0 -17 -13z"/>
<path d="M290 3012 c0 -16 32 -52 46 -52 25 0 16 40 -12 50 -31 12 -34 12 -34
2z"/>
<path d="M197 2979 c-10 -18 -15 -34 -12 -37 6 -6 65 48 65 60 0 21 -37 5 -53
-23z"/>
<path d="M70 2992 c0 -10 33 -42 44 -42 4 0 6 10 4 23 -2 14 -11 23 -25 25
-13 2 -23 -1 -23 -6z"/>
<path d="M248 2962 c-10 -16 -38 -48 -63 -71 -26 -24 -44 -45 -42 -48 9 -8 51
18 93 58 l40 39 41 -35 c33 -28 50 -35 82 -35 23 0 41 5 41 10 0 6 -7 10 -16
10 -28 0 -132 61 -137 81 -7 27 -20 24 -39 -9z"/>
<path d="M130 2920 c0 -5 -14 -25 -31 -44 -22 -25 -29 -41 -24 -56 10 -32 22
-24 49 36 28 62 31 74 16 74 -5 0 -10 -4 -10 -10z"/>
<path d="M240 2644 c0 -3 5 -15 11 -26 11 -20 9 -21 -29 -16 -35 5 -41 3 -51
-19 -15 -32 -14 -43 3 -43 8 0 17 8 21 19 4 14 21 20 75 28 56 7 70 6 70 -4 0
-15 19 -17 39 -4 8 5 11 16 7 26 -5 14 -15 17 -50 13 -37 -5 -45 -2 -49 13 -5
17 -47 29 -47 13z"/>
<path d="M114 2615 c3 -9 6 -19 6 -21 0 -2 9 -4 21 -4 29 0 21 34 -10 38 -19
3 -22 0 -17 -13z"/>
<path d="M290 2562 c0 -16 32 -52 46 -52 25 0 16 40 -12 50 -31 12 -34 12 -34
2z"/>
<path d="M197 2529 c-10 -18 -15 -34 -12 -37 6 -6 65 48 65 60 0 21 -37 5 -53
-23z"/>
<path d="M70 2542 c0 -10 33 -42 44 -42 4 0 6 10 4 23 -2 14 -11 23 -25 25
-13 2 -23 -1 -23 -6z"/>
<path d="M248 2512 c-10 -16 -38 -48 -63 -71 -47 -43 -54 -62 -17 -42 32 17
39 13 46 -24 4 -19 11 -35 16 -35 12 0 13 26 1 67 -8 27 -6 34 18 57 l27 26
41 -35 c33 -28 50 -35 82 -35 23 0 41 5 41 10 0 6 -7 10 -16 10 -28 0 -132 61
-137 81 -7 27 -20 24 -39 -9z"/>
<path d="M130 2470 c0 -5 -14 -25 -31 -44 -22 -25 -29 -41 -24 -56 10 -32 22
-24 49 36 28 62 31 74 16 74 -5 0 -10 -4 -10 -10z"/>
<path d="M240 2194 c0 -3 5 -15 11 -26 11 -20 9 -21 -29 -16 -35 5 -41 3 -51
-19 -15 -32 -14 -43 3 -43 8 0 17 8 21 19 4 14 21 20 75 28 56 7 70 6 70 -4 0
-15 19 -17 39 -4 8 5 11 16 7 26 -5 14 -15 17 -50 13 -37 -5 -45 -2 -49 13 -5
17 -47 29 -47 13z"/>
<path d="M114 2165 c3 -9 6 -19 6 -21 0 -2 9 -4 21 -4 29 0 21 34 -10 38 -19
3 -22 0 -17 -13z"/>
<path d="M290 2112 c0 -16 32 -52 46 -52 25 0 16 40 -12 50 -31 12 -34 12 -34
2z"/>
<path d="M197 2079 c-10 -18 -15 -34 -12 -37 6 -6 65 48 65 60 0 21 -37 5 -53
-23z"/>
<path d="M70 2092 c0 -10 33 -42 44 -42 4 0 6 10 4 23 -2 14 -11 23 -25 25
-13 2 -23 -1 -23 -6z"/>
<path d="M248 2062 c-10 -16 -38 -48 -63 -71 -47 -43 -54 -62 -17 -42 32 17
39 13 46 -24 4 -19 12 -35 18 -35 7 0 9 13 5 35 -5 28 -3 35 11 35 9 0 27 3
40 6 19 5 22 2 22 -20 0 -33 18 -34 30 -1 8 22 16 25 55 25 25 0 45 5 45 10 0
6 -7 10 -16 10 -28 0 -132 61 -137 81 -7 27 -20 24 -39 -9z m64 -64 c-5 -5
-29 -12 -53 -15 l-44 -6 29 31 c27 29 30 30 53 15 15 -10 20 -20 15 -25z"/>
<path d="M130 2020 c0 -5 -14 -25 -31 -44 -22 -25 -29 -41 -24 -56 10 -32 22
-24 49 36 28 62 31 74 16 74 -5 0 -10 -4 -10 -10z"/>
<path d="M240 1744 c0 -3 5 -15 11 -26 11 -20 9 -21 -29 -16 -35 5 -41 3 -51
-19 -15 -32 -14 -43 3 -43 8 0 17 8 21 19 4 14 21 20 75 28 56 7 70 6 70 -4 0
-15 19 -17 39 -4 8 5 11 16 7 26 -5 14 -15 17 -50 13 -37 -5 -45 -2 -49 13 -5
17 -47 29 -47 13z"/>
<path d="M114 1715 c3 -9 6 -19 6 -21 0 -2 9 -4 21 -4 29 0 21 34 -10 38 -19
3 -22 0 -17 -13z"/>
<path d="M290 1662 c0 -16 32 -52 46 -52 25 0 16 40 -12 50 -31 12 -34 12 -34
2z"/>
<path d="M197 1629 c-10 -18 -15 -34 -12 -37 6 -6 65 48 65 60 0 21 -37 5 -53
-23z"/>
<path d="M70 1642 c0 -10 33 -42 44 -42 4 0 6 10 4 23 -2 14 -11 23 -25 25
-13 2 -23 -1 -23 -6z"/>
<path d="M248 1612 c-10 -16 -38 -48 -63 -71 -47 -43 -54 -62 -17 -42 32 17
39 13 46 -24 6 -32 9 -34 39 -29 70 12 75 14 85 44 10 27 15 30 56 30 26 0 46
5 46 10 0 6 -7 10 -16 10 -28 0 -132 61 -137 81 -7 27 -20 24 -39 -9z m64 -64
c-5 -5 -29 -12 -53 -15 l-44 -6 29 31 c27 29 30 30 53 15 15 -10 20 -20 15
-25z m-2 -47 c0 -25 -58 -40 -71 -20 -16 26 -12 29 59 38 6 0 12 -8 12 -18z"/>
<path d="M130 1570 c0 -5 -14 -25 -31 -44 -22 -25 -29 -41 -24 -56 10 -32 22
-24 49 36 28 62 31 74 16 74 -5 0 -10 -4 -10 -10z"/>
</g>
</svg>
