<?xml version="1.0" standalone="no"?>
<!DOCTYPE svg PUBLIC "-//W3C//DTD SVG 20010904//EN"
 "http://www.w3.org/TR/2001/REC-SVG-20010904/DTD/svg10.dtd">
<svg version="1.0" xmlns="http://www.w3.org/2000/svg"
 width="50.000000pt" height="725.000000pt" viewBox="0 0 50.000000 725.000000"
 preserveAspectRatio="xMidYMid meet">
<metadata>
Created by potrace 1.16, written by Peter Selinger 2001-2019
</metadata>
<g transform="translate(0.000000,725.000000) scale(0.100000,-0.100000)"
fill="#000000" stroke="none">
<path d="M132 7103 c2 -10 14 -19 26 -21 19 -3 23 1 20 15 -2 10 -14 19 -26
21 -19 3 -23 -1 -20 -15z"/>
<path d="M132 6653 c2 -10 14 -19 26 -21 19 -3 23 1 20 15 -2 10 -14 19 -26
21 -19 3 -23 -1 -20 -15z"/>
<path d="M90 6577 c0 -17 20 -37 37 -37 19 0 16 37 -3 44 -24 9 -34 7 -34 -7z"/>
<path d="M132 6203 c2 -10 14 -19 26 -21 19 -3 23 1 20 15 -2 10 -14 19 -26
21 -19 3 -23 -1 -20 -15z"/>
<path d="M90 6127 c0 -17 20 -37 37 -37 19 0 16 37 -3 44 -24 9 -34 7 -34 -7z"/>
<path d="M117 6025 c-29 -36 -33 -70 -8 -70 10 0 51 83 51 103 0 11 -20 -4
-43 -33z"/>
<path d="M264 5794 c3 -9 6 -18 6 -20 0 -2 7 -4 15 -4 8 0 15 9 15 20 0 14 -7
20 -21 20 -15 0 -19 -4 -15 -16z"/>
<path d="M132 5753 c2 -10 14 -19 26 -21 19 -3 23 1 20 15 -2 10 -14 19 -26
21 -19 3 -23 -1 -20 -15z"/>
<path d="M90 5677 c0 -17 20 -37 37 -37 19 0 16 37 -3 44 -24 9 -34 7 -34 -7z"/>
<path d="M117 5575 c-29 -36 -33 -70 -8 -70 10 0 51 83 51 103 0 11 -20 -4
-43 -33z"/>
<path d="M265 5340 c5 -17 2 -20 -24 -20 -17 0 -31 -4 -31 -10 0 -11 56 -13
113 -4 23 4 37 12 37 22 0 11 -7 13 -30 9 -22 -5 -30 -3 -30 8 0 8 -9 15 -21
15 -16 0 -19 -4 -14 -20z"/>
<path d="M132 5303 c2 -10 14 -19 26 -21 19 -3 23 1 20 15 -2 10 -14 19 -26
21 -19 3 -23 -1 -20 -15z"/>
<path d="M90 5227 c0 -17 20 -37 37 -37 19 0 16 37 -3 44 -24 9 -34 7 -34 -7z"/>
<path d="M117 5125 c-29 -36 -33 -70 -8 -70 10 0 51 83 51 103 0 11 -20 -4
-43 -33z"/>
<path d="M265 4890 c5 -17 2 -20 -24 -20 -17 0 -31 -2 -31 -4 0 -3 9 -21 21
-40 26 -44 44 -47 36 -7 -6 29 -5 29 43 36 35 5 50 11 50 22 0 12 -7 14 -30
10 -22 -5 -30 -3 -30 8 0 8 -9 15 -21 15 -16 0 -19 -4 -14 -20z"/>
<path d="M132 4853 c2 -10 14 -19 26 -21 19 -3 23 1 20 15 -2 10 -14 19 -26
21 -19 3 -23 -1 -20 -15z"/>
<path d="M90 4777 c0 -17 20 -37 37 -37 19 0 16 37 -3 44 -24 9 -34 7 -34 -7z"/>
<path d="M117 4675 c-29 -36 -33 -70 -8 -70 10 0 51 83 51 103 0 11 -20 -4
-43 -33z"/>
<path d="M265 4440 c5 -17 2 -20 -24 -20 -17 0 -31 -2 -31 -4 0 -3 9 -21 21
-40 26 -44 44 -47 36 -6 -6 26 -4 30 17 30 19 0 22 -4 18 -25 -6 -35 14 -31
30 5 7 17 16 30 20 30 5 0 8 7 8 16 0 13 -7 15 -30 11 -22 -5 -30 -3 -30 8 0
8 -9 15 -21 15 -16 0 -19 -4 -14 -20z"/>
<path d="M132 4403 c2 -10 14 -19 26 -21 19 -3 23 1 20 15 -2 10 -14 19 -26
21 -19 3 -23 -1 -20 -15z"/>
<path d="M90 4327 c0 -17 20 -37 37 -37 19 0 16 37 -3 44 -24 9 -34 7 -34 -7z"/>
<path d="M117 4225 c-29 -36 -33 -70 -8 -70 10 0 51 83 51 103 0 11 -20 -4
-43 -33z"/>
<path d="M265 3990 c5 -17 2 -20 -24 -20 -17 0 -31 -2 -31 -4 0 -3 9 -21 21
-40 26 -44 44 -47 36 -6 -6 26 -4 30 17 30 19 0 22 -4 18 -25 -6 -35 14 -31
30 5 7 17 16 30 20 30 5 0 8 7 8 16 0 13 -7 15 -30 11 -22 -5 -30 -3 -30 8 0
8 -9 15 -21 15 -16 0 -19 -4 -14 -20z"/>
<path d="M132 3953 c2 -10 14 -19 26 -21 19 -3 23 1 20 15 -2 10 -14 19 -26
21 -19 3 -23 -1 -20 -15z"/>
<path d="M186 3884 c-9 -23 -7 -54 3 -54 11 0 21 25 21 51 0 23 -15 25 -24 3z"/>
<path d="M90 3877 c0 -17 20 -37 37 -37 19 0 16 37 -3 44 -24 9 -34 7 -34 -7z"/>
<path d="M117 3775 c-29 -36 -33 -70 -8 -70 10 0 51 83 51 103 0 11 -20 -4
-43 -33z"/>
<path d="M265 3540 c5 -17 2 -20 -24 -20 -34 0 -37 -6 -16 -34 21 -28 19 -36
-9 -36 -24 0 -36 -16 -36 -51 0 -25 17 -25 25 0 6 21 24 27 108 37 51 6 57 5
51 -10 -7 -18 21 -22 45 -7 28 18 4 41 -43 41 -43 0 -44 0 -33 25 7 14 15 25
20 25 4 0 7 7 7 16 0 13 -7 15 -30 11 -22 -5 -30 -3 -30 8 0 8 -9 15 -21 15
-16 0 -19 -4 -14 -20z m38 -60 c-5 -19 -21 -36 -27 -29 -2 2 -7 14 -10 27 -6
19 -4 22 17 22 20 0 24 -4 20 -20z"/>
<path d="M132 3503 c2 -10 14 -19 26 -21 19 -3 23 1 20 15 -2 10 -14 19 -26
21 -19 3 -23 -1 -20 -15z"/>
<path d="M90 3427 c0 -17 20 -37 37 -37 19 0 16 37 -3 44 -24 9 -34 7 -34 -7z"/>
<path d="M117 3325 c-29 -36 -33 -70 -8 -70 10 0 51 83 51 103 0 11 -20 -4
-43 -33z"/>
<path d="M265 3090 c5 -17 2 -20 -24 -20 -34 0 -37 -6 -16 -34 21 -28 19 -36
-9 -36 -24 0 -36 -16 -36 -51 0 -25 17 -25 25 0 6 21 24 27 108 37 51 6 57 5
51 -10 -7 -18 21 -22 45 -7 28 18 4 41 -43 41 -43 0 -44 0 -33 25 7 14 15 25
20 25 4 0 7 7 7 16 0 13 -7 15 -30 11 -22 -5 -30 -3 -30 8 0 8 -9 15 -21 15
-16 0 -19 -4 -14 -20z m38 -60 c-5 -19 -21 -36 -27 -29 -2 2 -7 14 -10 27 -6
19 -4 22 17 22 20 0 24 -4 20 -20z"/>
<path d="M132 3053 c2 -10 14 -19 26 -21 19 -3 23 1 20 15 -2 10 -14 19 -26
21 -19 3 -23 -1 -20 -15z"/>
<path d="M90 2977 c0 -17 20 -37 37 -37 19 0 16 37 -3 44 -24 9 -34 7 -34 -7z"/>
<path d="M272 2953 c5 -25 28 -28 28 -4 0 12 -6 21 -16 21 -9 0 -14 -7 -12
-17z"/>
<path d="M117 2875 c-29 -36 -33 -70 -8 -70 10 0 51 83 51 103 0 11 -20 -4
-43 -33z"/>
<path d="M265 2640 c5 -17 2 -20 -24 -20 -34 0 -37 -6 -16 -34 21 -28 19 -36
-9 -36 -24 0 -36 -16 -36 -51 0 -25 17 -25 25 0 6 21 24 27 108 37 51 6 57 5
51 -10 -7 -18 21 -22 45 -7 28 18 4 41 -43 41 -43 0 -44 0 -33 25 7 14 15 25
20 25 4 0 7 7 7 16 0 13 -7 15 -30 11 -22 -5 -30 -3 -30 8 0 8 -9 15 -21 15
-16 0 -19 -4 -14 -20z m38 -60 c-5 -19 -21 -36 -27 -29 -2 2 -7 14 -10 27 -6
19 -4 22 17 22 20 0 24 -4 20 -20z"/>
<path d="M132 2603 c2 -10 14 -19 26 -21 19 -3 23 1 20 15 -2 10 -14 19 -26
21 -19 3 -23 -1 -20 -15z"/>
<path d="M90 2527 c0 -17 20 -37 37 -37 19 0 16 37 -3 44 -24 9 -34 7 -34 -7z"/>
<path d="M273 2501 c4 -17 -1 -20 -31 -23 -19 -2 -38 -9 -40 -17 -4 -11 1 -12
19 -7 13 3 54 9 92 13 50 4 67 10 67 21 0 11 -8 13 -40 8 -32 -5 -40 -3 -40 9
0 8 -7 15 -16 15 -11 0 -15 -6 -11 -19z"/>
<path d="M117 2425 c-29 -36 -33 -70 -8 -70 10 0 51 83 51 103 0 11 -20 -4
-43 -33z"/>
<path d="M265 2190 c5 -17 2 -20 -24 -20 -34 0 -37 -6 -16 -34 21 -28 19 -36
-9 -36 -24 0 -36 -16 -36 -51 0 -25 17 -25 25 0 6 21 24 27 108 37 51 6 57 5
51 -10 -7 -18 21 -22 45 -7 28 18 4 41 -43 41 -43 0 -44 0 -33 25 7 14 15 25
20 25 4 0 7 7 7 16 0 13 -7 15 -30 11 -22 -5 -30 -3 -30 8 0 8 -9 15 -21 15
-16 0 -19 -4 -14 -20z m38 -60 c-5 -19 -21 -36 -27 -29 -2 2 -7 14 -10 27 -6
19 -4 22 17 22 20 0 24 -4 20 -20z"/>
<path d="M132 2153 c2 -10 14 -19 26 -21 19 -3 23 1 20 15 -2 10 -14 19 -26
21 -19 3 -23 -1 -20 -15z"/>
<path d="M90 2077 c0 -17 20 -37 37 -37 19 0 16 37 -3 44 -24 9 -34 7 -34 -7z"/>
<path d="M273 2051 c4 -17 -1 -20 -31 -23 -19 -2 -38 -9 -40 -17 -4 -11 1 -12
19 -7 13 3 54 9 92 13 50 4 67 10 67 21 0 11 -8 13 -40 8 -32 -5 -40 -3 -40 9
0 8 -7 15 -16 15 -11 0 -15 -6 -11 -19z"/>
<path d="M117 1975 c-29 -36 -33 -70 -8 -70 10 0 51 83 51 103 0 11 -20 -4
-43 -33z"/>
<path d="M280 1990 c0 -5 9 -10 20 -10 22 0 26 -20 10 -50 -6 -11 -17 -17 -25
-14 -18 7 -19 -6 -2 -30 7 -10 19 -15 29 -11 19 8 52 90 44 110 -6 17 -76 21
-76 5z"/>
<path d="M265 1740 c5 -17 2 -20 -24 -20 -34 0 -37 -6 -16 -34 21 -28 19 -36
-9 -36 -24 0 -36 -16 -36 -51 0 -25 17 -25 25 0 6 21 24 27 108 37 51 6 57 5
51 -10 -7 -18 21 -22 45 -7 28 18 4 41 -43 41 -43 0 -44 0 -33 25 7 14 15 25
20 25 4 0 7 7 7 16 0 13 -7 15 -30 11 -22 -5 -30 -3 -30 8 0 8 -9 15 -21 15
-16 0 -19 -4 -14 -20z m38 -60 c-5 -19 -21 -36 -27 -29 -2 2 -7 14 -10 27 -6
19 -4 22 17 22 20 0 24 -4 20 -20z"/>
<path d="M132 1703 c2 -10 14 -19 26 -21 19 -3 23 1 20 15 -2 10 -14 19 -26
21 -19 3 -23 -1 -20 -15z"/>
<path d="M90 1627 c0 -17 20 -37 37 -37 19 0 16 37 -3 44 -24 9 -34 7 -34 -7z"/>
<path d="M273 1601 c4 -17 -1 -20 -31 -23 -19 -2 -37 -9 -40 -17 -3 -10 3 -12
27 -6 45 10 40 -10 -15 -62 -25 -25 -44 -47 -41 -49 10 -10 67 26 89 56 36 50
76 33 48 -20 -6 -11 -17 -17 -25 -14 -18 7 -19 -6 -2 -30 19 -26 43 -11 62 40
20 53 15 74 -20 74 -14 0 -25 5 -25 10 0 6 18 10 40 10 30 0 40 4 40 16 0 14
-7 15 -40 10 -32 -5 -40 -3 -40 9 0 8 -7 15 -16 15 -11 0 -15 -6 -11 -19z"/>
<path d="M117 1525 c-29 -36 -33 -70 -8 -70 10 0 51 83 51 103 0 11 -20 -4
-43 -33z"/>
</g>
</svg>
