<?xml version="1.0" standalone="no"?>
<!DOCTYPE svg PUBLIC "-//W3C//DTD SVG 20010904//EN"
 "http://www.w3.org/TR/2001/REC-SVG-20010904/DTD/svg10.dtd">
<svg version="1.0" xmlns="http://www.w3.org/2000/svg"
 width="50.000000pt" height="725.000000pt" viewBox="0 0 50.000000 725.000000"
 preserveAspectRatio="xMidYMid meet">
<metadata>
Created by potrace 1.16, written by Peter Selinger 2001-2019
</metadata>
<g transform="translate(0.000000,725.000000) scale(0.100000,-0.100000)"
fill="#000000" stroke="none">
<path d="M122 7128 c6 -16 36 -34 44 -26 3 4 4 14 1 23 -7 17 -51 21 -45 3z"/>
<path d="M122 6678 c6 -16 36 -34 44 -26 3 4 4 14 1 23 -7 17 -51 21 -45 3z"/>
<path d="M92 6598 c6 -16 36 -34 44 -26 3 4 4 14 1 23 -7 17 -51 21 -45 3z"/>
<path d="M122 6228 c6 -16 36 -34 44 -26 3 4 4 14 1 23 -7 17 -51 21 -45 3z"/>
<path d="M92 6148 c6 -16 36 -34 44 -26 3 4 4 14 1 23 -7 17 -51 21 -45 3z"/>
<path d="M112 6040 c-20 -25 -32 -49 -30 -62 7 -49 30 -21 76 94 9 21 -16 4
-46 -32z"/>
<path d="M250 5818 c0 -6 -10 -22 -22 -35 -30 -32 -14 -45 40 -30 45 12 59 33
17 24 -24 -4 -25 -3 -9 14 9 10 13 23 9 28 -9 15 -35 14 -35 -1z"/>
<path d="M122 5778 c6 -16 36 -34 44 -26 3 4 4 14 1 23 -7 17 -51 21 -45 3z"/>
<path d="M92 5698 c6 -16 36 -34 44 -26 3 4 4 14 1 23 -7 17 -51 21 -45 3z"/>
<path d="M112 5590 c-20 -25 -32 -49 -30 -62 7 -49 30 -21 76 94 9 21 -16 4
-46 -32z"/>
<path d="M250 5368 c0 -6 -10 -22 -22 -35 -28 -30 -14 -48 26 -33 15 5 41 10
57 10 19 0 29 5 29 15 0 19 -29 32 -39 18 -3 -5 -15 -13 -25 -17 -19 -7 -19
-6 -2 13 10 11 15 25 11 30 -9 15 -35 14 -35 -1z"/>
<path d="M122 5328 c6 -16 36 -34 44 -26 3 4 4 14 1 23 -7 17 -51 21 -45 3z"/>
<path d="M92 5248 c6 -16 36 -34 44 -26 3 4 4 14 1 23 -7 17 -51 21 -45 3z"/>
<path d="M112 5140 c-20 -25 -32 -49 -30 -62 7 -49 30 -21 76 94 9 21 -16 4
-46 -32z"/>
<path d="M250 4917 c0 -8 -9 -22 -20 -32 -12 -10 -18 -25 -16 -32 3 -7 -1 -13
-8 -13 -8 0 -16 -8 -20 -17 -3 -10 -11 -26 -18 -35 -7 -9 -9 -20 -6 -24 11
-10 59 5 57 19 -5 46 32 77 92 77 19 0 29 5 29 15 0 19 -29 32 -39 18 -3 -5
-15 -13 -25 -17 -19 -7 -19 -6 -2 13 10 11 15 25 11 30 -9 16 -35 14 -35 -2z"/>
<path d="M122 4878 c6 -16 36 -34 44 -26 3 4 4 14 1 23 -7 17 -51 21 -45 3z"/>
<path d="M92 4798 c6 -16 36 -34 44 -26 3 4 4 14 1 23 -7 17 -51 21 -45 3z"/>
<path d="M112 4690 c-20 -25 -32 -49 -30 -62 7 -49 30 -21 76 94 9 21 -16 4
-46 -32z"/>
<path d="M250 4467 c0 -8 -9 -22 -20 -32 -12 -10 -18 -25 -16 -32 3 -7 -1 -13
-9 -13 -8 0 -15 -6 -15 -14 0 -7 -7 -19 -15 -26 -26 -22 -19 -43 13 -36 15 4
35 7 45 7 20 0 22 12 5 39 -17 27 -1 41 56 47 30 4 46 10 46 20 0 17 -30 30
-39 16 -3 -5 -15 -13 -25 -17 -19 -7 -19 -6 -2 13 10 11 15 25 11 30 -9 16
-35 14 -35 -2z"/>
<path d="M122 4428 c6 -16 36 -34 44 -26 3 4 4 14 1 23 -7 17 -51 21 -45 3z"/>
<path d="M92 4348 c6 -16 36 -34 44 -26 3 4 4 14 1 23 -7 17 -51 21 -45 3z"/>
<path d="M112 4240 c-20 -25 -32 -49 -30 -62 7 -49 30 -21 76 94 9 21 -16 4
-46 -32z"/>
<path d="M250 4017 c0 -8 -9 -22 -20 -32 -12 -10 -18 -25 -16 -32 3 -7 -1 -13
-9 -13 -8 0 -15 -6 -15 -14 0 -7 -7 -19 -15 -26 -26 -22 -19 -43 13 -36 15 4
35 7 45 7 20 0 22 12 5 39 -17 27 -1 41 56 47 30 4 46 10 46 20 0 17 -30 30
-39 16 -3 -5 -15 -13 -25 -17 -19 -7 -19 -6 -2 13 10 11 15 25 11 30 -9 16
-35 14 -35 -2z"/>
<path d="M122 3978 c6 -16 36 -34 44 -26 3 4 4 14 1 23 -7 17 -51 21 -45 3z"/>
<path d="M306 3926 c-25 -39 -21 -49 16 -42 37 7 46 14 33 24 -6 4 -10 13 -10
21 0 25 -22 23 -39 -3z"/>
<path d="M92 3898 c6 -16 36 -34 44 -26 3 4 4 14 1 23 -7 17 -51 21 -45 3z"/>
<path d="M112 3790 c-20 -25 -32 -49 -30 -62 7 -49 30 -21 76 94 9 21 -16 4
-46 -32z"/>
<path d="M250 3567 c0 -8 -9 -22 -20 -32 -12 -10 -18 -25 -16 -32 3 -7 -1 -13
-9 -13 -8 0 -15 -6 -15 -14 0 -7 -7 -19 -15 -26 -26 -22 -19 -43 13 -36 15 4
35 7 45 7 20 0 22 12 5 39 -17 27 -1 41 56 47 30 4 46 10 46 20 0 17 -30 30
-39 16 -3 -5 -15 -13 -25 -17 -19 -7 -19 -6 -2 13 10 11 15 25 11 30 -9 16
-35 14 -35 -2z"/>
<path d="M122 3528 c6 -16 36 -34 44 -26 3 4 4 14 1 23 -7 17 -51 21 -45 3z"/>
<path d="M306 3475 c-25 -37 -20 -43 34 -42 58 1 65 15 21 46 -36 26 -35 26
-55 -4z"/>
<path d="M92 3448 c6 -16 36 -34 44 -26 3 4 4 14 1 23 -7 17 -51 21 -45 3z"/>
<path d="M112 3340 c-20 -25 -32 -49 -30 -62 7 -49 30 -21 76 94 9 21 -16 4
-46 -32z"/>
<path d="M250 3117 c0 -8 -9 -22 -20 -32 -12 -10 -18 -25 -16 -32 3 -7 -1 -13
-8 -13 -8 0 -16 -8 -20 -17 -3 -10 -11 -26 -18 -35 -18 -24 -2 -34 32 -21 42
16 48 -2 11 -34 -17 -15 -31 -31 -31 -35 0 -18 24 -5 71 39 44 41 55 46 94 46
54 0 58 16 14 48 l-32 22 -19 -26 c-11 -15 -26 -27 -33 -27 -7 0 -15 -5 -17
-11 -2 -6 -10 1 -18 15 -18 34 -5 47 54 53 30 4 46 10 46 20 0 17 -30 30 -39
16 -3 -5 -15 -13 -25 -17 -19 -7 -19 -6 -2 13 10 11 15 25 11 30 -9 16 -35 14
-35 -2z"/>
<path d="M122 3078 c6 -16 36 -34 44 -26 3 4 4 14 1 23 -7 17 -51 21 -45 3z"/>
<path d="M92 2998 c6 -16 36 -34 44 -26 3 4 4 14 1 23 -7 17 -51 21 -45 3z"/>
<path d="M112 2890 c-20 -25 -32 -49 -30 -62 7 -49 30 -21 76 94 9 21 -16 4
-46 -32z"/>
<path d="M250 2667 c0 -8 -9 -22 -20 -32 -12 -10 -18 -25 -16 -32 3 -7 -1 -13
-8 -13 -8 0 -16 -8 -20 -17 -3 -10 -11 -26 -18 -35 -18 -24 -2 -34 32 -21 42
16 48 -2 11 -34 -17 -15 -31 -31 -31 -35 0 -17 22 -7 60 29 l41 36 27 -24 c51
-47 60 -51 92 -44 39 9 38 21 -1 29 -18 3 -48 16 -67 28 -34 21 -34 22 -13 30
13 4 34 5 47 2 36 -9 31 20 -7 47 l-32 22 -19 -26 c-11 -15 -26 -27 -33 -27
-7 0 -15 -5 -17 -11 -2 -6 -10 1 -18 15 -18 34 -5 47 54 53 30 4 46 10 46 20
0 17 -30 30 -39 16 -3 -5 -15 -13 -25 -17 -19 -7 -19 -6 -2 13 10 11 15 25 11
30 -9 16 -35 14 -35 -2z"/>
<path d="M122 2628 c6 -16 36 -34 44 -26 3 4 4 14 1 23 -7 17 -51 21 -45 3z"/>
<path d="M92 2548 c6 -16 36 -34 44 -26 3 4 4 14 1 23 -7 17 -51 21 -45 3z"/>
<path d="M112 2440 c-20 -25 -32 -49 -30 -62 7 -49 30 -21 76 94 9 21 -16 4
-46 -32z"/>
<path d="M250 2217 c0 -8 -9 -22 -20 -32 -12 -10 -18 -25 -16 -32 3 -7 -1 -13
-8 -13 -8 0 -16 -8 -20 -17 -3 -10 -11 -26 -18 -35 -18 -24 -2 -34 32 -21 42
16 48 -2 11 -34 -17 -15 -31 -31 -31 -35 0 -17 22 -7 60 29 l41 36 27 -24 c51
-47 60 -51 92 -44 39 9 38 21 -1 29 -18 3 -48 16 -67 28 -34 21 -34 22 -13 30
13 4 34 5 47 2 36 -9 31 20 -7 47 l-32 22 -19 -26 c-11 -15 -26 -27 -33 -27
-7 0 -15 -5 -17 -11 -2 -6 -10 1 -18 15 -18 34 -5 47 54 53 30 4 46 10 46 20
0 17 -30 30 -39 16 -3 -5 -15 -13 -25 -17 -19 -7 -19 -6 -2 13 10 11 15 25 11
30 -9 16 -35 14 -35 -2z"/>
<path d="M122 2178 c6 -16 36 -34 44 -26 3 4 4 14 1 23 -7 17 -51 21 -45 3z"/>
<path d="M92 2098 c6 -16 36 -34 44 -26 3 4 4 14 1 23 -7 17 -51 21 -45 3z"/>
<path d="M245 2020 c-16 -16 -26 -33 -22 -36 9 -9 78 38 74 50 -7 20 -24 15
-52 -14z"/>
<path d="M112 1990 c-20 -25 -32 -49 -30 -62 7 -49 30 -21 76 94 9 21 -16 4
-46 -32z"/>
<path d="M250 1767 c0 -8 -9 -22 -20 -32 -12 -10 -18 -25 -16 -32 3 -7 -1 -13
-8 -13 -8 0 -16 -8 -20 -17 -3 -10 -11 -26 -18 -35 -18 -24 -2 -34 32 -21 42
16 48 -2 11 -34 -17 -15 -31 -31 -31 -35 0 -17 22 -7 60 29 l41 36 27 -24 c51
-47 60 -51 92 -44 39 9 38 21 -1 29 -18 3 -48 16 -67 28 -34 21 -34 22 -13 30
13 4 34 5 47 2 36 -9 31 20 -7 47 l-32 22 -19 -26 c-11 -15 -26 -27 -33 -27
-7 0 -15 -5 -17 -11 -2 -6 -10 1 -18 15 -18 34 -5 47 54 53 30 4 46 10 46 20
0 17 -30 30 -39 16 -3 -5 -15 -13 -25 -17 -19 -7 -19 -6 -2 13 10 11 15 25 11
30 -9 16 -35 14 -35 -2z"/>
<path d="M122 1728 c6 -16 36 -34 44 -26 3 4 4 14 1 23 -7 17 -51 21 -45 3z"/>
<path d="M92 1648 c6 -16 36 -34 44 -26 3 4 4 14 1 23 -7 17 -51 21 -45 3z"/>
<path d="M245 1570 c-16 -16 -26 -33 -22 -36 9 -9 78 38 74 50 -7 20 -24 15
-52 -14z"/>
<path d="M112 1540 c-20 -25 -32 -49 -30 -62 7 -49 30 -21 76 94 9 21 -16 4
-46 -32z"/>
<path d="M256 1525 c-22 -19 -37 -38 -33 -41 9 -9 97 47 97 62 0 23 -22 15
-64 -21z"/>
<path d="M250 1317 c0 -8 -9 -22 -20 -32 -12 -10 -18 -25 -16 -32 3 -7 -1 -13
-8 -13 -8 0 -16 -8 -20 -17 -3 -10 -11 -26 -18 -35 -18 -24 -2 -34 32 -21 42
16 48 -2 11 -34 -17 -15 -31 -31 -31 -35 0 -17 22 -7 60 29 l41 36 27 -24 c51
-47 60 -51 92 -44 39 9 38 21 -1 29 -18 3 -48 16 -67 28 -34 21 -34 22 -13 30
13 4 34 5 47 2 36 -9 31 20 -7 47 l-32 22 -19 -26 c-11 -15 -26 -27 -33 -27
-7 0 -15 -5 -17 -11 -2 -6 -10 1 -18 15 -18 34 -5 47 54 53 30 4 46 10 46 20
0 17 -30 30 -39 16 -3 -5 -15 -13 -25 -17 -19 -7 -19 -6 -2 13 10 11 15 25 11
30 -9 16 -35 14 -35 -2z"/>
<path d="M122 1278 c6 -16 36 -34 44 -26 3 4 4 14 1 23 -7 17 -51 21 -45 3z"/>
<path d="M92 1198 c6 -16 36 -34 44 -26 3 4 4 14 1 23 -7 17 -51 21 -45 3z"/>
<path d="M245 1120 c-16 -16 -26 -33 -22 -36 9 -9 78 38 74 50 -7 20 -24 15
-52 -14z"/>
<path d="M112 1090 c-20 -25 -32 -49 -30 -62 7 -49 30 -21 76 94 9 21 -16 4
-46 -32z"/>
<path d="M256 1075 c-22 -19 -37 -38 -33 -41 9 -9 97 47 97 62 0 23 -22 15
-64 -21z"/>
<path d="M300 1055 c-14 -15 -39 -35 -57 -46 -35 -22 -45 -46 -15 -35 45 17
122 72 120 85 -5 24 -23 23 -48 -4z"/>
</g>
</svg>
