<?xml version="1.0" standalone="no"?>
<!DOCTYPE svg PUBLIC "-//W3C//DTD SVG 20010904//EN"
 "http://www.w3.org/TR/2001/REC-SVG-20010904/DTD/svg10.dtd">
<svg version="1.0" xmlns="http://www.w3.org/2000/svg"
 width="50.000000pt" height="725.000000pt" viewBox="0 0 50.000000 725.000000"
 preserveAspectRatio="xMidYMid meet">
<metadata>
Created by potrace 1.16, written by Peter Selinger 2001-2019
</metadata>
<g transform="translate(0.000000,725.000000) scale(0.100000,-0.100000)"
fill="#000000" stroke="none">
<path d="M130 7122 c0 -12 34 -42 48 -42 22 0 13 37 -10 44 -31 8 -38 7 -38
-2z"/>
<path d="M130 6672 c0 -12 34 -42 48 -42 22 0 13 37 -10 44 -31 8 -38 7 -38
-2z"/>
<path d="M100 6585 c0 -12 28 -35 44 -35 14 0 5 38 -10 44 -25 9 -34 7 -34 -9z"/>
<path d="M130 6222 c0 -12 34 -42 48 -42 22 0 13 37 -10 44 -31 8 -38 7 -38
-2z"/>
<path d="M100 6135 c0 -12 28 -35 44 -35 14 0 5 38 -10 44 -25 9 -34 7 -34 -9z"/>
<path d="M140 6061 c0 -4 -11 -25 -25 -46 -17 -23 -23 -44 -20 -57 10 -30 25
-17 46 42 22 62 23 70 9 70 -5 0 -10 -4 -10 -9z"/>
<path d="M130 5772 c0 -12 34 -42 48 -42 22 0 13 37 -10 44 -31 8 -38 7 -38
-2z"/>
<path d="M271 5746 c-38 -6 -66 -17 -69 -25 -3 -10 2 -12 20 -8 23 6 153 26
171 27 4 0 7 5 7 10 0 12 -45 11 -129 -4z"/>
<path d="M100 5685 c0 -12 28 -35 44 -35 14 0 5 38 -10 44 -25 9 -34 7 -34 -9z"/>
<path d="M140 5611 c0 -4 -11 -25 -25 -46 -17 -23 -23 -44 -20 -57 10 -30 25
-17 46 42 22 62 23 70 9 70 -5 0 -10 -4 -10 -9z"/>
<path d="M234 5317 c4 -19 1 -26 -14 -30 -11 -3 -20 -11 -20 -17 0 -7 8 -10
19 -7 15 3 21 -1 23 -16 5 -32 26 -32 30 0 2 15 10 29 18 30 8 1 36 5 63 8 77
10 58 28 -22 20 -63 -6 -69 -5 -68 11 1 11 -6 20 -17 22 -15 3 -18 0 -12 -21z"/>
<path d="M130 5322 c0 -12 34 -42 48 -42 22 0 13 37 -10 44 -31 8 -38 7 -38
-2z"/>
<path d="M100 5235 c0 -12 28 -35 44 -35 14 0 5 38 -10 44 -25 9 -34 7 -34 -9z"/>
<path d="M140 5161 c0 -4 -11 -25 -25 -46 -17 -23 -23 -44 -20 -57 10 -30 25
-17 46 42 22 62 23 70 9 70 -5 0 -10 -4 -10 -9z"/>
<path d="M310 4880 c0 -25 -4 -30 -24 -30 -16 0 -23 5 -22 17 0 10 -7 19 -18
21 -15 3 -18 0 -12 -21 4 -19 1 -26 -14 -30 -11 -3 -20 -11 -20 -17 0 -7 8
-10 19 -7 15 3 21 -1 23 -16 5 -31 26 -32 30 -1 4 37 28 44 28 9 0 -32 23 -29
28 3 2 15 13 23 38 28 42 8 45 24 4 24 -23 0 -28 4 -23 16 5 15 -11 33 -29 34
-5 0 -8 -13 -8 -30z"/>
<path d="M130 4872 c0 -12 34 -42 48 -42 22 0 13 37 -10 44 -31 8 -38 7 -38
-2z"/>
<path d="M100 4785 c0 -12 28 -35 44 -35 14 0 5 38 -10 44 -25 9 -34 7 -34 -9z"/>
<path d="M140 4711 c0 -4 -11 -25 -25 -46 -17 -23 -23 -44 -20 -57 10 -30 25
-17 46 42 22 62 23 70 9 70 -5 0 -10 -4 -10 -9z"/>
<path d="M310 4430 c0 -25 -4 -30 -24 -30 -16 0 -23 5 -22 17 0 10 -7 19 -18
21 -15 3 -18 0 -12 -21 4 -19 1 -26 -14 -30 -11 -3 -20 -11 -20 -17 0 -7 8
-10 19 -7 15 3 21 -1 23 -17 6 -42 88 -29 88 15 0 13 10 20 35 25 43 8 46 24
5 24 -23 0 -28 4 -23 16 5 15 -11 33 -29 34 -5 0 -8 -13 -8 -30z m-10 -64 c0
-16 -18 -31 -27 -22 -8 8 5 36 17 36 5 0 10 -6 10 -14z"/>
<path d="M130 4422 c0 -12 34 -42 48 -42 22 0 13 37 -10 44 -31 8 -38 7 -38
-2z"/>
<path d="M100 4335 c0 -12 28 -35 44 -35 14 0 5 38 -10 44 -25 9 -34 7 -34 -9z"/>
<path d="M140 4261 c0 -4 -11 -25 -25 -46 -17 -23 -23 -44 -20 -57 10 -30 25
-17 46 42 22 62 23 70 9 70 -5 0 -10 -4 -10 -9z"/>
<path d="M310 3980 c0 -25 -4 -30 -24 -30 -16 0 -23 5 -22 17 0 10 -7 19 -18
21 -15 3 -18 0 -12 -21 4 -19 1 -26 -14 -30 -11 -3 -20 -11 -20 -17 0 -7 8
-10 19 -7 15 3 21 -1 23 -17 6 -42 88 -29 88 15 0 13 10 20 35 25 43 8 46 24
5 24 -23 0 -28 4 -23 16 5 15 -11 33 -29 34 -5 0 -8 -13 -8 -30z m-10 -64 c0
-16 -18 -31 -27 -22 -8 8 5 36 17 36 5 0 10 -6 10 -14z"/>
<path d="M130 3972 c0 -12 34 -42 48 -42 22 0 13 37 -10 44 -31 8 -38 7 -38
-2z"/>
<path d="M100 3885 c0 -12 28 -35 44 -35 14 0 5 38 -10 44 -25 9 -34 7 -34 -9z"/>
<path d="M184 3778 c4 -87 26 -90 26 -4 0 51 -3 66 -14 66 -12 0 -14 -13 -12
-62z"/>
<path d="M140 3811 c0 -4 -11 -25 -25 -46 -17 -23 -23 -44 -20 -57 10 -30 25
-17 46 42 22 62 23 70 9 70 -5 0 -10 -4 -10 -9z"/>
<path d="M310 3530 c0 -25 -4 -30 -24 -30 -16 0 -23 5 -22 17 0 10 -7 19 -18
21 -15 3 -18 0 -12 -21 4 -19 1 -26 -14 -30 -11 -3 -20 -11 -20 -17 0 -7 8
-10 19 -7 15 3 21 -1 23 -17 6 -42 88 -29 88 15 0 13 10 20 35 25 43 8 46 24
5 24 -23 0 -28 4 -23 16 5 15 -11 33 -29 34 -5 0 -8 -13 -8 -30z m-10 -64 c0
-16 -18 -31 -27 -22 -8 8 5 36 17 36 5 0 10 -6 10 -14z"/>
<path d="M130 3522 c0 -12 34 -42 48 -42 22 0 13 37 -10 44 -31 8 -38 7 -38
-2z"/>
<path d="M100 3435 c0 -12 28 -35 44 -35 14 0 5 38 -10 44 -25 9 -34 7 -34 -9z"/>
<path d="M273 3397 l-92 -10 3 -61 c4 -75 26 -90 26 -17 0 27 4 52 9 55 5 4
43 9 85 13 l76 6 0 -37 c0 -47 -15 -77 -35 -70 -19 8 -19 -7 -1 -32 26 -34 49
-7 62 72 12 73 6 95 -25 92 -9 -1 -57 -6 -108 -11z"/>
<path d="M140 3361 c0 -4 -11 -25 -25 -46 -17 -23 -23 -44 -20 -57 10 -30 25
-17 46 42 22 62 23 70 9 70 -5 0 -10 -4 -10 -9z"/>
<path d="M310 3080 c0 -25 -4 -30 -24 -30 -16 0 -23 5 -22 17 0 10 -7 19 -18
21 -15 3 -18 0 -12 -21 4 -19 1 -26 -14 -30 -11 -3 -20 -11 -20 -17 0 -7 8
-10 20 -7 15 4 20 0 20 -14 0 -11 7 -22 15 -25 8 -4 15 -12 15 -20 0 -10 -13
-14 -44 -14 l-45 0 3 -62 c4 -78 24 -89 28 -16 3 50 5 53 31 56 26 3 27 2 27
-48 0 -70 24 -63 28 8 l3 52 40 0 c38 0 39 -1 39 -36 0 -45 -16 -75 -35 -68
-19 8 -19 -7 -1 -32 26 -34 49 -7 62 72 15 87 9 97 -57 88 -51 -7 -62 2 -34
26 8 7 15 21 15 31 0 13 10 20 35 25 43 8 46 24 5 24 -23 0 -28 4 -23 16 5 15
-11 33 -29 34 -5 0 -8 -13 -8 -30z m-10 -64 c0 -16 -18 -31 -27 -22 -8 8 5 36
17 36 5 0 10 -6 10 -14z"/>
<path d="M130 3072 c0 -12 34 -42 48 -42 22 0 13 37 -10 44 -31 8 -38 7 -38
-2z"/>
<path d="M100 2985 c0 -12 28 -35 44 -35 14 0 5 38 -10 44 -25 9 -34 7 -34 -9z"/>
<path d="M140 2911 c0 -4 -11 -25 -25 -46 -17 -23 -23 -44 -20 -57 10 -30 25
-17 46 42 22 62 23 70 9 70 -5 0 -10 -4 -10 -9z"/>
<path d="M310 2630 c0 -25 -4 -30 -24 -30 -16 0 -23 5 -22 17 0 10 -7 19 -18
21 -15 3 -18 0 -12 -21 4 -19 1 -26 -14 -30 -11 -3 -20 -11 -20 -17 0 -7 8
-10 20 -7 15 4 20 0 20 -14 0 -11 7 -22 15 -25 8 -4 15 -12 15 -20 0 -10 -13
-14 -44 -14 l-45 0 3 -62 c2 -35 8 -64 15 -66 6 -2 11 5 11 16 0 11 7 22 15
26 8 3 15 12 15 21 0 18 -16 20 -24 3 -3 -7 -4 -2 -3 12 1 19 8 26 30 28 26 3
27 2 27 -48 0 -70 24 -63 28 8 l3 52 40 0 c38 0 39 -1 39 -36 0 -45 -16 -75
-35 -68 -19 8 -19 -7 -1 -32 26 -34 49 -7 62 72 15 87 9 97 -57 88 -51 -7 -62
2 -34 26 8 7 15 21 15 31 0 13 10 20 35 25 43 8 46 24 5 24 -23 0 -28 4 -23
16 5 15 -11 33 -29 34 -5 0 -8 -13 -8 -30z m-10 -64 c0 -16 -18 -31 -27 -22
-8 8 5 36 17 36 5 0 10 -6 10 -14z"/>
<path d="M130 2622 c0 -12 34 -42 48 -42 22 0 13 37 -10 44 -31 8 -38 7 -38
-2z"/>
<path d="M100 2535 c0 -12 28 -35 44 -35 14 0 5 38 -10 44 -25 9 -34 7 -34 -9z"/>
<path d="M140 2461 c0 -4 -11 -25 -25 -46 -17 -23 -23 -44 -20 -57 10 -30 25
-17 46 42 22 62 23 70 9 70 -5 0 -10 -4 -10 -9z"/>
<path d="M310 2180 c0 -25 -4 -30 -24 -30 -16 0 -23 5 -22 17 0 10 -7 19 -18
21 -15 3 -18 0 -12 -21 4 -19 1 -26 -14 -30 -11 -3 -20 -11 -20 -17 0 -7 8
-10 20 -7 15 4 20 0 20 -14 0 -11 7 -22 15 -25 8 -4 15 -12 15 -20 0 -10 -13
-14 -44 -14 l-45 0 3 -62 c2 -35 8 -64 15 -66 6 -2 11 5 11 16 0 22 22 34 45
26 8 -4 15 -13 15 -21 0 -8 6 -13 13 -11 7 3 13 26 15 56 l3 52 40 0 c38 0 39
-1 39 -36 0 -45 -16 -75 -35 -68 -19 8 -19 -7 -1 -32 26 -34 49 -7 62 72 15
87 9 97 -57 88 -51 -7 -62 2 -34 26 8 7 15 21 15 31 0 13 10 20 35 25 43 8 46
24 5 24 -23 0 -28 4 -23 16 5 15 -11 33 -29 34 -5 0 -8 -13 -8 -30z m-10 -64
c0 -16 -18 -31 -27 -22 -8 8 5 36 17 36 5 0 10 -6 10 -14z m-30 -111 c0 -11
-7 -14 -25 -9 -20 5 -25 2 -26 -12 0 -12 -3 -14 -6 -6 -9 23 6 42 32 42 16 0
25 -6 25 -15z"/>
<path d="M130 2172 c0 -12 34 -42 48 -42 22 0 13 37 -10 44 -31 8 -38 7 -38
-2z"/>
<path d="M100 2085 c0 -12 28 -35 44 -35 14 0 5 38 -10 44 -25 9 -34 7 -34 -9z"/>
<path d="M140 2011 c0 -4 -11 -25 -25 -46 -17 -23 -23 -44 -20 -57 10 -30 25
-17 46 42 22 62 23 70 9 70 -5 0 -10 -4 -10 -9z"/>
<path d="M310 1730 c0 -25 -4 -30 -24 -30 -16 0 -23 5 -22 17 0 10 -7 19 -18
21 -15 3 -18 0 -12 -21 4 -19 1 -26 -14 -30 -11 -3 -20 -11 -20 -17 0 -7 8
-10 20 -7 15 4 20 0 20 -14 0 -11 7 -22 15 -25 8 -4 15 -12 15 -20 0 -10 -13
-14 -44 -14 l-45 0 3 -62 c2 -35 8 -64 15 -66 6 -2 11 5 11 16 0 22 22 34 45
26 8 -4 15 -13 15 -21 0 -8 6 -13 13 -11 7 3 13 26 15 56 l3 52 40 0 c38 0 39
-1 39 -36 0 -45 -16 -75 -35 -68 -19 8 -19 -7 -1 -32 26 -34 49 -7 62 72 15
87 9 97 -57 88 -51 -7 -62 2 -34 26 8 7 15 21 15 31 0 13 10 20 35 25 43 8 46
24 5 24 -23 0 -28 4 -23 16 5 15 -11 33 -29 34 -5 0 -8 -13 -8 -30z m-10 -64
c0 -16 -18 -31 -27 -22 -8 8 5 36 17 36 5 0 10 -6 10 -14z m-30 -111 c0 -11
-7 -14 -25 -9 -20 5 -25 2 -26 -12 0 -12 -3 -14 -6 -6 -9 23 6 42 32 42 16 0
25 -6 25 -15z"/>
<path d="M130 1722 c0 -12 34 -42 48 -42 22 0 13 37 -10 44 -31 8 -38 7 -38
-2z"/>
<path d="M100 1635 c0 -12 28 -35 44 -35 14 0 5 38 -10 44 -25 9 -34 7 -34 -9z"/>
<path d="M140 1561 c0 -4 -11 -25 -25 -46 -17 -23 -23 -44 -20 -57 10 -30 25
-17 46 42 22 62 23 70 9 70 -5 0 -10 -4 -10 -9z"/>
<path d="M316 1534 c-4 -9 -4 -19 -2 -21 8 -8 26 8 26 23 0 19 -16 18 -24 -2z"/>
<path d="M310 1280 c0 -25 -4 -30 -24 -30 -16 0 -23 5 -22 17 0 10 -7 19 -18
21 -15 3 -18 0 -12 -21 4 -19 1 -26 -14 -30 -11 -3 -20 -11 -20 -17 0 -7 8
-10 20 -7 15 4 20 0 20 -14 0 -11 7 -22 15 -25 8 -4 15 -12 15 -20 0 -10 -13
-14 -44 -14 l-45 0 3 -62 c2 -35 8 -64 15 -66 6 -2 11 5 11 16 0 22 22 34 45
26 8 -4 15 -13 15 -21 0 -8 6 -13 13 -11 7 3 13 26 15 56 l3 52 40 0 c38 0 39
-1 39 -36 0 -45 -16 -75 -35 -68 -19 8 -19 -7 -1 -32 26 -34 49 -7 62 72 15
87 9 97 -57 88 -51 -7 -62 2 -34 26 8 7 15 21 15 31 0 13 10 20 35 25 43 8 46
24 5 24 -23 0 -28 4 -23 16 5 15 -11 33 -29 34 -5 0 -8 -13 -8 -30z m-10 -64
c0 -16 -18 -31 -27 -22 -8 8 5 36 17 36 5 0 10 -6 10 -14z m-30 -111 c0 -11
-7 -14 -25 -9 -20 5 -25 2 -26 -12 0 -12 -3 -14 -6 -6 -9 23 6 42 32 42 16 0
25 -6 25 -15z"/>
<path d="M130 1272 c0 -12 34 -42 48 -42 22 0 13 37 -10 44 -31 8 -38 7 -38
-2z"/>
<path d="M100 1185 c0 -12 28 -35 44 -35 14 0 5 38 -10 44 -25 9 -34 7 -34 -9z"/>
<path d="M140 1111 c0 -4 -11 -25 -25 -46 -17 -23 -23 -44 -20 -57 10 -30 25
-17 46 42 22 62 23 70 9 70 -5 0 -10 -4 -10 -9z"/>
<path d="M313 1092 c0 -25 4 -29 29 -29 35 0 36 19 3 41 -32 21 -32 21 -32
-12z"/>
</g>
</svg>
