<?xml version="1.0" standalone="no"?>
<!DOCTYPE svg PUBLIC "-//W3C//DTD SVG 20010904//EN"
 "http://www.w3.org/TR/2001/REC-SVG-20010904/DTD/svg10.dtd">
<svg version="1.0" xmlns="http://www.w3.org/2000/svg"
 width="50.000000pt" height="725.000000pt" viewBox="0 0 50.000000 725.000000"
 preserveAspectRatio="xMidYMid meet">
<metadata>
Created by potrace 1.16, written by Peter Selinger 2001-2019
</metadata>
<g transform="translate(0.000000,725.000000) scale(0.100000,-0.100000)"
fill="#000000" stroke="none">
<path d="M110 7112 c0 -10 33 -42 44 -42 4 0 6 10 4 23 -2 14 -11 23 -25 25
-13 2 -23 -1 -23 -6z"/>
<path d="M110 6662 c0 -10 33 -42 44 -42 4 0 6 10 4 23 -2 14 -11 23 -25 25
-13 2 -23 -1 -23 -6z"/>
<path d="M80 6587 c0 -17 20 -37 37 -37 20 0 15 28 -6 40 -26 13 -31 13 -31
-3z"/>
<path d="M110 6212 c0 -10 33 -42 44 -42 4 0 6 10 4 23 -2 14 -11 23 -25 25
-13 2 -23 -1 -23 -6z"/>
<path d="M80 6137 c0 -17 20 -37 37 -37 20 0 15 28 -6 40 -26 13 -31 13 -31
-3z"/>
<path d="M102 6034 c-22 -30 -31 -52 -27 -65 10 -31 22 -22 49 37 41 89 31
101 -22 28z"/>
<path d="M110 5762 c0 -10 33 -42 44 -42 4 0 6 10 4 23 -2 14 -11 23 -25 25
-13 2 -23 -1 -23 -6z"/>
<path d="M238 5763 c-27 -2 -48 -9 -48 -15 0 -7 22 -9 68 -5 37 4 77 7 90 7
12 0 22 5 22 10 0 10 -34 10 -132 3z"/>
<path d="M80 5687 c0 -17 20 -37 37 -37 20 0 15 28 -6 40 -26 13 -31 13 -31
-3z"/>
<path d="M102 5584 c-22 -30 -31 -52 -27 -65 10 -31 22 -22 49 37 41 89 31
101 -22 28z"/>
<path d="M260 5340 c0 -28 -3 -30 -35 -30 -19 0 -35 -4 -35 -10 0 -5 16 -10
35 -10 32 0 35 -2 35 -30 0 -20 5 -30 15 -30 10 0 15 11 15 35 0 34 1 35 40
35 22 0 40 5 40 10 0 6 -18 10 -40 10 -36 0 -40 3 -40 25 0 16 -6 25 -15 25
-10 0 -15 -10 -15 -30z"/>
<path d="M110 5312 c0 -10 33 -42 44 -42 4 0 6 10 4 23 -2 14 -11 23 -25 25
-13 2 -23 -1 -23 -6z"/>
<path d="M80 5237 c0 -17 20 -37 37 -37 20 0 15 28 -6 40 -26 13 -31 13 -31
-3z"/>
<path d="M102 5134 c-22 -30 -31 -52 -27 -65 10 -31 22 -22 49 37 41 89 31
101 -22 28z"/>
<path d="M260 4890 c0 -28 -3 -30 -35 -30 -19 0 -35 -4 -35 -10 0 -5 12 -10
28 -10 l27 -1 -33 -30 c-42 -38 -35 -49 13 -21 28 17 35 18 35 7 0 -8 7 -15
15 -15 10 0 15 11 15 35 0 34 1 35 40 35 22 0 40 5 40 10 0 6 -18 10 -40 10
-36 0 -40 3 -40 25 0 16 -6 25 -15 25 -10 0 -15 -10 -15 -30z"/>
<path d="M110 4862 c0 -10 33 -42 44 -42 4 0 6 10 4 23 -2 14 -11 23 -25 25
-13 2 -23 -1 -23 -6z"/>
<path d="M80 4787 c0 -17 20 -37 37 -37 20 0 15 28 -6 40 -26 13 -31 13 -31
-3z"/>
<path d="M102 4684 c-22 -30 -31 -52 -27 -65 10 -31 22 -22 49 37 41 89 31
101 -22 28z"/>
<path d="M260 4440 c0 -28 -3 -30 -35 -30 -19 0 -35 -4 -35 -10 0 -5 12 -10
28 -10 l27 -1 -33 -30 c-42 -38 -35 -49 13 -21 28 17 35 18 35 7 0 -8 7 -15
15 -15 9 0 15 9 15 21 0 21 1 21 34 -5 42 -31 46 -32 46 -6 0 15 -13 26 -42
40 l-43 19 43 0 c23 1 42 6 42 11 0 6 -18 10 -40 10 -36 0 -40 3 -40 25 0 16
-6 25 -15 25 -10 0 -15 -10 -15 -30z"/>
<path d="M110 4412 c0 -10 33 -42 44 -42 4 0 6 10 4 23 -2 14 -11 23 -25 25
-13 2 -23 -1 -23 -6z"/>
<path d="M80 4337 c0 -17 20 -37 37 -37 20 0 15 28 -6 40 -26 13 -31 13 -31
-3z"/>
<path d="M102 4234 c-22 -30 -31 -52 -27 -65 10 -31 22 -22 49 37 41 89 31
101 -22 28z"/>
<path d="M260 3990 c0 -28 -3 -30 -35 -30 -19 0 -35 -4 -35 -10 0 -5 12 -10
28 -10 l27 -1 -33 -30 c-42 -38 -35 -49 13 -21 61 36 39 -21 -27 -68 -48 -35
-58 -37 -51 -10 9 33 -10 22 -45 -26 -22 -30 -31 -52 -27 -65 10 -30 24 -23
41 21 9 22 20 38 24 35 12 -7 59 12 102 41 28 20 38 35 43 65 l7 40 33 -26
c41 -30 45 -31 45 -5 0 15 -13 26 -42 40 l-43 19 43 0 c23 1 42 6 42 11 0 6
-18 10 -40 10 -36 0 -40 3 -40 25 0 16 -6 25 -15 25 -10 0 -15 -10 -15 -30z"/>
<path d="M110 3962 c0 -10 33 -42 44 -42 4 0 6 10 4 23 -2 14 -11 23 -25 25
-13 2 -23 -1 -23 -6z"/>
<path d="M80 3887 c0 -17 20 -37 37 -37 20 0 15 28 -6 40 -26 13 -31 13 -31
-3z"/>
<path d="M260 3540 c0 -28 -3 -30 -35 -30 -19 0 -35 -4 -35 -10 0 -5 12 -10
28 -10 l27 -1 -33 -30 c-42 -38 -35 -49 13 -21 61 36 39 -21 -27 -68 -48 -35
-58 -37 -51 -10 9 33 -10 22 -45 -26 -22 -30 -31 -52 -27 -65 10 -30 24 -23
41 21 9 22 20 38 24 35 12 -7 59 12 102 42 l37 25 40 -31 c27 -22 50 -31 75
-31 20 0 36 5 36 10 0 6 -6 10 -12 10 -7 0 -42 14 -77 30 -47 23 -62 34 -57
46 3 9 6 23 6 31 0 12 8 9 34 -11 42 -31 46 -32 46 -6 0 15 -13 26 -42 40
l-43 19 43 0 c23 1 42 6 42 11 0 6 -18 10 -40 10 -36 0 -40 3 -40 25 0 16 -6
25 -15 25 -10 0 -15 -10 -15 -30z"/>
<path d="M110 3512 c0 -10 33 -42 44 -42 4 0 6 10 4 23 -2 14 -11 23 -25 25
-13 2 -23 -1 -23 -6z"/>
<path d="M80 3437 c0 -17 20 -37 37 -37 20 0 15 28 -6 40 -26 13 -31 13 -31
-3z"/>
<path d="M260 3090 c0 -28 -3 -30 -35 -30 -19 0 -35 -4 -35 -10 0 -5 12 -10
28 -10 l27 -1 -33 -30 c-42 -38 -35 -49 13 -21 61 36 39 -21 -27 -68 -48 -35
-58 -37 -51 -10 9 33 -10 22 -45 -26 -22 -30 -31 -52 -27 -65 10 -30 24 -23
41 21 9 22 20 38 24 35 12 -7 59 12 102 42 l37 25 40 -31 c27 -22 50 -31 75
-31 20 0 36 5 36 10 0 6 -6 10 -12 10 -7 0 -42 14 -77 30 -47 23 -62 34 -57
46 3 9 6 23 6 31 0 12 8 9 34 -11 42 -31 46 -32 46 -6 0 15 -13 26 -42 40
l-43 19 43 0 c23 1 42 6 42 11 0 6 -18 10 -40 10 -36 0 -40 3 -40 25 0 16 -6
25 -15 25 -10 0 -15 -10 -15 -30z"/>
<path d="M110 3062 c0 -10 33 -42 44 -42 4 0 6 10 4 23 -2 14 -11 23 -25 25
-13 2 -23 -1 -23 -6z"/>
<path d="M80 2987 c0 -17 20 -37 37 -37 20 0 15 28 -6 40 -26 13 -31 13 -31
-3z"/>
<path d="M260 2865 c0 -44 -3 -55 -16 -55 -9 0 -14 -5 -12 -12 5 -14 35 -34
41 -28 2 3 7 38 10 78 5 59 3 72 -9 72 -10 0 -14 -14 -14 -55z"/>
<path d="M260 2640 c0 -28 -3 -30 -35 -30 -19 0 -35 -4 -35 -10 0 -5 12 -10
28 -10 l27 -1 -33 -30 c-42 -38 -35 -49 13 -21 61 36 39 -21 -27 -68 -48 -35
-58 -37 -51 -10 9 33 -10 22 -45 -26 -22 -30 -31 -52 -27 -65 10 -30 24 -23
41 21 9 22 20 38 24 35 5 -3 19 -1 32 4 19 7 27 5 36 -10 7 -10 17 -19 22 -19
15 0 12 28 -5 37 -11 6 -7 13 20 32 l34 23 40 -31 c27 -22 50 -31 75 -31 20 0
36 5 36 10 0 6 -6 10 -12 10 -7 0 -42 14 -77 30 -47 23 -62 34 -57 46 3 9 6
23 6 31 0 12 8 9 34 -11 42 -31 46 -32 46 -6 0 15 -13 26 -42 40 l-43 19 43 0
c23 1 42 6 42 11 0 6 -18 10 -40 10 -36 0 -40 3 -40 25 0 16 -6 25 -15 25 -10
0 -15 -10 -15 -30z"/>
<path d="M110 2612 c0 -10 33 -42 44 -42 4 0 6 10 4 23 -2 14 -11 23 -25 25
-13 2 -23 -1 -23 -6z"/>
<path d="M80 2537 c0 -17 20 -37 37 -37 20 0 15 28 -6 40 -26 13 -31 13 -31
-3z"/>
<path d="M260 2415 c0 -44 -3 -55 -16 -55 -9 0 -14 -5 -12 -12 5 -14 35 -34
41 -28 2 3 7 38 10 78 5 59 3 72 -9 72 -10 0 -14 -14 -14 -55z"/>
<path d="M260 2190 c0 -28 -3 -30 -35 -30 -19 0 -35 -4 -35 -10 0 -5 12 -10
28 -10 l27 -1 -33 -30 c-42 -38 -35 -49 13 -21 61 36 39 -21 -27 -68 -48 -35
-58 -37 -51 -10 9 33 -10 22 -45 -26 -22 -30 -31 -52 -27 -65 10 -30 24 -23
41 21 9 22 20 38 24 35 5 -3 19 -1 32 4 19 7 26 4 41 -15 17 -23 17 -24 -8
-30 -14 -3 -25 -12 -25 -20 0 -18 15 -18 46 2 26 18 26 48 -1 69 -10 9 -6 16
21 34 l33 23 40 -31 c27 -22 50 -31 75 -31 20 0 36 5 36 10 0 6 -6 10 -12 10
-7 0 -42 14 -77 30 -47 23 -62 34 -57 46 3 9 6 23 6 31 0 12 8 9 34 -11 42
-31 46 -32 46 -6 0 15 -13 26 -42 40 l-43 19 43 0 c23 1 42 6 42 11 0 6 -18
10 -40 10 -36 0 -40 3 -40 25 0 16 -6 25 -15 25 -10 0 -15 -10 -15 -30z"/>
<path d="M110 2162 c0 -10 33 -42 44 -42 4 0 6 10 4 23 -2 14 -11 23 -25 25
-13 2 -23 -1 -23 -6z"/>
<path d="M80 2087 c0 -17 20 -37 37 -37 20 0 15 28 -6 40 -26 13 -31 13 -31
-3z"/>
<path d="M260 1965 c0 -44 -3 -55 -16 -55 -9 0 -14 -5 -12 -12 5 -14 35 -34
41 -28 2 3 7 38 10 78 5 59 3 72 -9 72 -10 0 -14 -14 -14 -55z"/>
<path d="M260 1740 c0 -28 -3 -30 -35 -30 -19 0 -35 -4 -35 -10 0 -5 12 -10
28 -10 l27 -1 -33 -30 c-42 -38 -35 -49 13 -21 61 36 39 -21 -27 -68 -48 -35
-58 -37 -51 -10 9 33 -10 22 -45 -26 -22 -30 -31 -52 -27 -65 10 -30 24 -23
41 21 9 22 20 38 24 35 5 -3 19 -1 32 4 19 7 26 4 41 -15 17 -23 17 -24 -8
-30 -14 -3 -25 -12 -25 -20 0 -18 15 -18 46 2 26 18 26 48 -1 69 -10 9 -6 16
20 34 33 22 34 22 58 5 l24 -18 -21 -17 c-27 -22 -15 -35 16 -18 12 7 42 11
66 10 25 -1 42 2 42 8 0 6 -6 11 -12 11 -7 0 -42 14 -77 30 -47 23 -62 34 -57
46 3 9 6 23 6 31 0 12 8 9 34 -11 42 -31 46 -32 46 -6 0 15 -13 26 -42 40
l-43 19 43 0 c23 1 42 6 42 11 0 6 -18 10 -40 10 -36 0 -40 3 -40 25 0 16 -6
25 -15 25 -10 0 -15 -10 -15 -30z"/>
<path d="M110 1712 c0 -10 33 -42 44 -42 4 0 6 10 4 23 -2 14 -11 23 -25 25
-13 2 -23 -1 -23 -6z"/>
<path d="M80 1637 c0 -17 20 -37 37 -37 20 0 15 28 -6 40 -26 13 -31 13 -31
-3z"/>
<path d="M260 1515 c0 -44 -3 -55 -16 -55 -9 0 -14 -5 -12 -12 5 -14 35 -34
41 -28 2 3 7 38 10 78 5 59 3 72 -9 72 -10 0 -14 -14 -14 -55z"/>
<path d="M260 1290 c0 -28 -3 -30 -35 -30 -19 0 -35 -4 -35 -10 0 -5 12 -10
28 -10 l27 -1 -33 -30 c-42 -38 -35 -49 13 -21 61 36 39 -21 -27 -68 -48 -35
-58 -37 -51 -10 9 33 -10 22 -45 -26 -22 -30 -31 -52 -27 -65 10 -30 24 -23
41 21 9 22 20 38 24 35 5 -3 19 -1 32 4 19 7 26 4 41 -15 17 -23 17 -24 -8
-30 -14 -3 -25 -12 -25 -20 0 -18 15 -18 46 2 26 18 26 48 -1 69 -10 9 -6 16
20 34 33 22 34 22 58 5 l24 -18 -21 -17 c-27 -22 -15 -35 16 -18 12 7 42 11
66 10 25 -1 42 2 42 8 0 6 -6 11 -12 11 -7 0 -42 14 -77 30 -47 23 -62 34 -57
46 3 9 6 23 6 31 0 12 8 9 34 -11 42 -31 46 -32 46 -6 0 15 -13 26 -42 40
l-43 19 43 0 c23 1 42 6 42 11 0 6 -18 10 -40 10 -36 0 -40 3 -40 25 0 16 -6
25 -15 25 -10 0 -15 -10 -15 -30z"/>
<path d="M110 1262 c0 -10 33 -42 44 -42 4 0 6 10 4 23 -2 14 -11 23 -25 25
-13 2 -23 -1 -23 -6z"/>
<path d="M80 1187 c0 -17 20 -37 37 -37 20 0 15 28 -6 40 -26 13 -31 13 -31
-3z"/>
<path d="M260 1065 c0 -44 -3 -55 -16 -55 -9 0 -14 -5 -12 -12 5 -14 35 -34
41 -28 2 3 7 38 10 78 5 59 3 72 -9 72 -10 0 -14 -14 -14 -55z"/>
<path d="M300 1042 c0 -5 11 -19 25 -32 20 -19 28 -21 38 -11 9 10 7 16 -12
32 -24 20 -51 25 -51 11z"/>
</g>
</svg>
