<?xml version="1.0" standalone="no"?>
<!DOCTYPE svg PUBLIC "-//W3C//DTD SVG 20010904//EN"
 "http://www.w3.org/TR/2001/REC-SVG-20010904/DTD/svg10.dtd">
<svg version="1.0" xmlns="http://www.w3.org/2000/svg"
 width="50.000000pt" height="725.000000pt" viewBox="0 0 50.000000 725.000000"
 preserveAspectRatio="xMidYMid meet">
<metadata>
Created by potrace 1.16, written by Peter Selinger 2001-2019
</metadata>
<g transform="translate(0.000000,725.000000) scale(0.100000,-0.100000)"
fill="#000000" stroke="none">
<path d="M120 7122 c0 -5 6 -17 14 -28 12 -15 17 -16 27 -7 10 10 9 15 -1 28
-13 16 -40 21 -40 7z"/>
<path d="M120 6672 c0 -5 6 -17 14 -28 12 -15 17 -16 27 -7 10 10 9 15 -1 28
-13 16 -40 21 -40 7z"/>
<path d="M80 6597 c0 -17 20 -37 37 -37 20 0 15 28 -6 40 -26 13 -31 13 -31
-3z"/>
<path d="M120 6222 c0 -5 6 -17 14 -28 12 -15 17 -16 27 -7 10 10 9 15 -1 28
-13 16 -40 21 -40 7z"/>
<path d="M80 6147 c0 -17 20 -37 37 -37 20 0 15 28 -6 40 -26 13 -31 13 -31
-3z"/>
<path d="M129 6068 c-6 -13 -20 -33 -31 -45 -20 -22 -21 -64 -2 -70 6 -2 22
25 35 59 13 35 25 66 27 71 9 19 -19 4 -29 -15z"/>
<path d="M194 5784 c3 -9 6 -27 6 -40 0 -13 5 -24 10 -24 6 0 10 18 10 40 0
30 -4 40 -16 40 -11 0 -14 -5 -10 -16z"/>
<path d="M120 5772 c0 -5 6 -17 14 -28 12 -15 17 -16 27 -7 10 10 9 15 -1 28
-13 16 -40 21 -40 7z"/>
<path d="M80 5697 c0 -17 20 -37 37 -37 20 0 15 28 -6 40 -26 13 -31 13 -31
-3z"/>
<path d="M129 5618 c-6 -13 -20 -33 -31 -45 -20 -22 -21 -64 -2 -70 6 -2 22
25 35 59 13 35 25 66 27 71 9 19 -19 4 -29 -15z"/>
<path d="M305 5320 c0 -59 18 -67 35 -15 14 42 8 65 -17 65 -15 0 -18 -9 -18
-50z"/>
<path d="M250 5350 c0 -5 9 -10 20 -10 11 0 20 5 20 10 0 6 -9 10 -20 10 -11
0 -20 -4 -20 -10z"/>
<path d="M197 5313 c3 -21 7 -40 9 -42 7 -8 11 3 17 42 5 32 3 37 -13 37 -16
0 -18 -5 -13 -37z"/>
<path d="M120 5322 c0 -5 6 -17 14 -28 12 -15 17 -16 27 -7 10 10 9 15 -1 28
-13 16 -40 21 -40 7z"/>
<path d="M80 5247 c0 -17 20 -37 37 -37 20 0 15 28 -6 40 -26 13 -31 13 -31
-3z"/>
<path d="M129 5168 c-6 -13 -20 -33 -31 -45 -20 -22 -21 -64 -2 -70 6 -2 22
25 35 59 13 35 25 66 27 71 9 19 -19 4 -29 -15z"/>
<path d="M305 4870 c0 -59 18 -67 35 -15 14 42 8 65 -17 65 -15 0 -18 -9 -18
-50z"/>
<path d="M250 4900 c0 -5 9 -10 20 -10 11 0 20 5 20 10 0 6 -9 10 -20 10 -11
0 -20 -4 -20 -10z"/>
<path d="M197 4863 c6 -39 10 -50 17 -42 2 2 6 21 9 42 5 32 3 37 -13 37 -16
0 -18 -5 -13 -37z"/>
<path d="M120 4872 c0 -5 6 -17 14 -28 12 -15 17 -16 27 -7 10 10 9 15 -1 28
-13 16 -40 21 -40 7z"/>
<path d="M248 4873 c-21 -5 -24 -23 -4 -23 22 0 46 11 46 21 0 9 -13 10 -42 2z"/>
<path d="M80 4797 c0 -17 20 -37 37 -37 20 0 15 28 -6 40 -26 13 -31 13 -31
-3z"/>
<path d="M129 4718 c-6 -13 -20 -33 -31 -45 -20 -22 -21 -64 -2 -70 6 -2 22
25 35 59 13 35 25 66 27 71 9 19 -19 4 -29 -15z"/>
<path d="M305 4420 c0 -59 18 -67 35 -15 14 42 8 65 -17 65 -15 0 -18 -9 -18
-50z"/>
<path d="M250 4450 c0 -5 9 -10 20 -10 11 0 20 5 20 10 0 6 -9 10 -20 10 -11
0 -20 -4 -20 -10z"/>
<path d="M197 4413 c3 -21 7 -40 9 -42 7 -8 11 3 17 42 5 32 3 37 -13 37 -16
0 -18 -5 -13 -37z"/>
<path d="M120 4422 c0 -5 6 -17 14 -28 12 -15 17 -16 27 -7 10 10 9 15 -1 28
-13 16 -40 21 -40 7z"/>
<path d="M248 4423 c-21 -5 -24 -23 -4 -23 22 0 46 11 46 21 0 9 -13 10 -42 2z"/>
<path d="M240 4380 c0 -5 9 -10 20 -10 11 0 20 5 20 10 0 6 -9 10 -20 10 -11
0 -20 -4 -20 -10z"/>
<path d="M80 4347 c0 -17 20 -37 37 -37 20 0 15 28 -6 40 -26 13 -31 13 -31
-3z"/>
<path d="M129 4268 c-6 -13 -20 -33 -31 -45 -20 -22 -21 -64 -2 -70 6 -2 22
25 35 59 13 35 25 66 27 71 9 19 -19 4 -29 -15z"/>
<path d="M305 3970 c0 -59 18 -67 35 -15 14 42 8 65 -17 65 -15 0 -18 -9 -18
-50z"/>
<path d="M250 4000 c0 -5 9 -10 20 -10 11 0 20 5 20 10 0 6 -9 10 -20 10 -11
0 -20 -4 -20 -10z"/>
<path d="M197 3963 c6 -39 10 -50 17 -42 2 2 6 21 9 42 5 32 3 37 -13 37 -16
0 -18 -5 -13 -37z"/>
<path d="M120 3972 c0 -5 6 -17 14 -28 12 -15 17 -16 27 -7 10 10 9 15 -1 28
-13 16 -40 21 -40 7z"/>
<path d="M248 3973 c-21 -5 -24 -23 -4 -23 22 0 46 11 46 21 0 9 -13 10 -42 2z"/>
<path d="M240 3930 c0 -5 9 -10 20 -10 11 0 20 5 20 10 0 6 -9 10 -20 10 -11
0 -20 -4 -20 -10z"/>
<path d="M80 3897 c0 -17 20 -37 37 -37 20 0 15 28 -6 40 -26 13 -31 13 -31
-3z"/>
<path d="M170 3891 c0 -5 5 -13 10 -16 6 -3 10 -17 10 -31 0 -13 5 -24 11 -24
6 0 9 16 7 37 -2 27 -8 39 -20 41 -10 2 -18 -1 -18 -7z"/>
<path d="M129 3818 c-6 -13 -20 -33 -31 -45 -20 -22 -21 -64 -2 -70 6 -2 22
25 35 59 13 35 25 66 27 71 9 19 -19 4 -29 -15z"/>
<path d="M305 3520 c0 -59 18 -67 35 -15 14 42 8 65 -17 65 -15 0 -18 -9 -18
-50z"/>
<path d="M250 3550 c0 -5 9 -10 20 -10 11 0 20 5 20 10 0 6 -9 10 -20 10 -11
0 -20 -4 -20 -10z"/>
<path d="M197 3513 c6 -39 10 -50 17 -42 2 2 6 21 9 42 5 32 3 37 -13 37 -16
0 -18 -5 -13 -37z"/>
<path d="M120 3522 c0 -5 6 -17 14 -28 12 -15 17 -16 27 -7 10 10 9 15 -1 28
-13 16 -40 21 -40 7z"/>
<path d="M248 3523 c-21 -5 -24 -23 -4 -23 22 0 46 11 46 21 0 9 -13 10 -42 2z"/>
<path d="M240 3480 c0 -5 9 -10 20 -10 11 0 20 5 20 10 0 6 -9 10 -20 10 -11
0 -20 -4 -20 -10z"/>
<path d="M308 3463 c-48 -5 -50 -23 -3 -23 36 0 36 0 29 -36 -9 -47 9 -43 39
9 18 33 19 39 7 47 -8 5 -19 9 -25 8 -5 -1 -27 -3 -47 -5z"/>
<path d="M80 3447 c0 -17 20 -37 37 -37 20 0 15 28 -6 40 -26 13 -31 13 -31
-3z"/>
<path d="M170 3441 c0 -6 5 -13 10 -16 6 -3 10 -17 10 -31 0 -13 5 -24 10 -24
6 0 10 14 10 30 0 23 4 30 20 30 11 0 20 5 20 10 0 6 -18 10 -40 10 -22 0 -40
-4 -40 -9z"/>
<path d="M129 3368 c-6 -13 -20 -33 -31 -45 -20 -22 -21 -64 -2 -70 6 -2 22
25 35 59 13 35 25 66 27 71 9 19 -19 4 -29 -15z"/>
<path d="M305 3070 c0 -59 18 -67 35 -15 14 42 8 65 -17 65 -15 0 -18 -9 -18
-50z"/>
<path d="M250 3100 c0 -5 9 -10 20 -10 11 0 20 5 20 10 0 6 -9 10 -20 10 -11
0 -20 -4 -20 -10z"/>
<path d="M197 3063 c6 -39 10 -50 17 -42 2 2 6 21 9 42 5 32 3 37 -13 37 -16
0 -18 -5 -13 -37z"/>
<path d="M120 3072 c0 -5 6 -17 14 -28 12 -15 17 -16 27 -7 10 10 9 15 -1 28
-13 16 -40 21 -40 7z"/>
<path d="M248 3073 c-21 -5 -24 -23 -4 -23 22 0 46 11 46 21 0 9 -13 10 -42 2z"/>
<path d="M240 3030 c0 -5 9 -10 20 -10 11 0 20 5 20 10 0 6 -9 10 -20 10 -11
0 -20 -4 -20 -10z"/>
<path d="M308 3013 c-48 -5 -50 -23 -3 -23 36 0 36 0 29 -36 -9 -47 9 -43 39
9 18 33 19 39 7 47 -8 5 -19 9 -25 8 -5 -1 -27 -3 -47 -5z"/>
<path d="M80 2997 c0 -17 20 -37 37 -37 20 0 15 28 -6 40 -26 13 -31 13 -31
-3z"/>
<path d="M170 2991 c0 -6 5 -13 10 -16 6 -3 10 -17 10 -31 0 -13 5 -24 10 -24
6 0 10 14 10 31 0 35 23 36 28 1 5 -35 22 -25 22 13 0 35 0 35 -45 35 -25 0
-45 -4 -45 -9z"/>
<path d="M129 2918 c-6 -13 -20 -33 -31 -45 -20 -22 -21 -64 -2 -70 6 -2 22
25 35 59 13 35 25 66 27 71 9 19 -19 4 -29 -15z"/>
<path d="M305 2620 c0 -59 18 -67 35 -15 14 42 8 65 -17 65 -15 0 -18 -9 -18
-50z"/>
<path d="M250 2650 c0 -5 9 -10 20 -10 11 0 20 5 20 10 0 6 -9 10 -20 10 -11
0 -20 -4 -20 -10z"/>
<path d="M197 2613 c6 -39 10 -50 17 -42 2 2 6 21 9 42 5 32 3 37 -13 37 -16
0 -18 -5 -13 -37z"/>
<path d="M120 2622 c0 -5 6 -17 14 -28 12 -15 17 -16 27 -7 10 10 9 15 -1 28
-13 16 -40 21 -40 7z"/>
<path d="M248 2623 c-21 -5 -24 -23 -4 -23 22 0 46 11 46 21 0 9 -13 10 -42 2z"/>
<path d="M240 2580 c0 -5 9 -10 20 -10 11 0 20 5 20 10 0 6 -9 10 -20 10 -11
0 -20 -4 -20 -10z"/>
<path d="M307 2563 c-30 -3 -37 -8 -33 -19 3 -9 6 -22 6 -30 0 -21 18 -17 25
6 3 11 13 20 21 20 12 0 13 -8 8 -36 -9 -47 9 -43 39 9 18 33 19 39 7 47 -8 5
-19 9 -25 8 -5 -1 -27 -3 -48 -5z"/>
<path d="M80 2547 c0 -17 20 -37 37 -37 20 0 15 28 -6 40 -26 13 -31 13 -31
-3z"/>
<path d="M170 2541 c0 -6 5 -13 10 -16 6 -3 10 -17 10 -31 0 -13 5 -24 10 -24
6 0 10 14 10 31 0 35 23 36 28 1 5 -35 22 -25 22 13 0 35 0 35 -45 35 -25 0
-45 -4 -45 -9z"/>
<path d="M129 2468 c-6 -13 -20 -33 -31 -45 -20 -22 -21 -64 -2 -70 6 -2 22
25 35 59 13 35 25 66 27 71 9 19 -19 4 -29 -15z"/>
<path d="M305 2170 c0 -59 18 -67 35 -15 14 42 8 65 -17 65 -15 0 -18 -9 -18
-50z"/>
<path d="M250 2200 c0 -5 9 -10 20 -10 11 0 20 5 20 10 0 6 -9 10 -20 10 -11
0 -20 -4 -20 -10z"/>
<path d="M197 2163 c3 -21 7 -40 9 -42 7 -8 11 3 17 42 5 32 3 37 -13 37 -16
0 -18 -5 -13 -37z"/>
<path d="M120 2172 c0 -5 6 -17 14 -28 12 -15 17 -16 27 -7 10 10 9 15 -1 28
-13 16 -40 21 -40 7z"/>
<path d="M248 2173 c-21 -5 -24 -23 -4 -23 22 0 46 11 46 21 0 9 -13 10 -42 2z"/>
<path d="M240 2130 c0 -5 9 -10 20 -10 11 0 20 5 20 10 0 6 -9 10 -20 10 -11
0 -20 -4 -20 -10z"/>
<path d="M308 2113 c-35 -4 -37 -6 -31 -34 3 -18 1 -29 -6 -29 -6 0 -11 11
-11 25 0 23 -4 25 -45 25 -42 0 -58 -11 -35 -25 6 -3 10 -17 10 -29 0 -23 2
-23 81 -21 l82 3 21 37 c18 31 18 37 6 45 -8 5 -19 9 -25 8 -5 -1 -27 -3 -47
-5z m32 -38 c0 -15 -26 -32 -36 -23 -2 3 -2 13 2 22 8 20 34 21 34 1z m-102
-18 c2 -10 -3 -17 -12 -17 -10 0 -16 9 -16 21 0 24 23 21 28 -4z"/>
<path d="M80 2097 c0 -17 20 -37 37 -37 20 0 15 28 -6 40 -26 13 -31 13 -31
-3z"/>
<path d="M129 2018 c-6 -13 -20 -33 -31 -45 -20 -22 -21 -64 -2 -70 6 -2 22
25 35 59 13 35 25 66 27 71 9 19 -19 4 -29 -15z"/>
<path d="M305 1720 c0 -59 18 -67 35 -15 14 42 8 65 -17 65 -15 0 -18 -9 -18
-50z"/>
<path d="M250 1750 c0 -5 9 -10 20 -10 11 0 20 5 20 10 0 6 -9 10 -20 10 -11
0 -20 -4 -20 -10z"/>
<path d="M197 1713 c6 -39 10 -50 17 -42 2 2 6 21 9 42 5 32 3 37 -13 37 -16
0 -18 -5 -13 -37z"/>
<path d="M120 1722 c0 -5 6 -17 14 -28 12 -15 17 -16 27 -7 10 10 9 15 -1 28
-13 16 -40 21 -40 7z"/>
<path d="M248 1723 c-21 -5 -24 -23 -4 -23 22 0 46 11 46 21 0 9 -13 10 -42 2z"/>
<path d="M240 1680 c0 -5 9 -10 20 -10 11 0 20 5 20 10 0 6 -9 10 -20 10 -11
0 -20 -4 -20 -10z"/>
<path d="M308 1663 c-35 -4 -37 -6 -31 -34 3 -18 1 -29 -6 -29 -6 0 -11 11
-11 25 0 23 -4 25 -45 25 -42 0 -58 -11 -35 -25 6 -3 10 -17 10 -29 0 -23 2
-23 81 -21 l82 3 21 37 c18 31 18 37 6 45 -8 5 -19 9 -25 8 -5 -1 -27 -3 -47
-5z m32 -38 c0 -15 -26 -32 -36 -23 -2 3 -2 13 2 22 8 20 34 21 34 1z m-102
-18 c2 -10 -3 -17 -12 -17 -10 0 -16 9 -16 21 0 24 23 21 28 -4z"/>
<path d="M80 1647 c0 -17 20 -37 37 -37 20 0 15 28 -6 40 -26 13 -31 13 -31
-3z"/>
<path d="M129 1568 c-6 -13 -20 -33 -31 -45 -20 -22 -21 -64 -2 -70 6 -2 22
25 35 59 13 35 25 66 27 71 9 19 -19 4 -29 -15z"/>
<path d="M243 1557 c-69 -14 -70 -32 -2 -24 51 6 51 6 37 -16 -8 -12 -33 -31
-56 -42 -65 -32 -47 -50 21 -21 45 18 106 94 86 107 -16 10 -14 10 -86 -4z"/>
<path d="M305 1270 c0 -59 18 -67 35 -15 14 42 8 65 -17 65 -15 0 -18 -9 -18
-50z"/>
<path d="M250 1300 c0 -5 9 -10 20 -10 11 0 20 5 20 10 0 6 -9 10 -20 10 -11
0 -20 -4 -20 -10z"/>
<path d="M197 1263 c6 -39 10 -50 17 -42 2 2 6 21 9 42 5 32 3 37 -13 37 -16
0 -18 -5 -13 -37z"/>
<path d="M120 1272 c0 -5 6 -17 14 -28 12 -15 17 -16 27 -7 10 10 9 15 -1 28
-13 16 -40 21 -40 7z"/>
<path d="M248 1273 c-21 -5 -24 -23 -4 -23 22 0 46 11 46 21 0 9 -13 10 -42 2z"/>
<path d="M240 1230 c0 -5 9 -10 20 -10 11 0 20 5 20 10 0 6 -9 10 -20 10 -11
0 -20 -4 -20 -10z"/>
<path d="M308 1213 c-35 -4 -37 -6 -31 -34 3 -18 1 -29 -6 -29 -6 0 -11 11
-11 25 0 23 -4 25 -45 25 -42 0 -58 -11 -35 -25 6 -3 10 -17 10 -29 0 -23 2
-23 81 -21 l82 3 21 37 c18 31 18 37 6 45 -8 5 -19 9 -25 8 -5 -1 -27 -3 -47
-5z m32 -38 c0 -15 -26 -32 -36 -23 -2 3 -2 13 2 22 8 20 34 21 34 1z m-102
-18 c2 -10 -3 -17 -12 -17 -10 0 -16 9 -16 21 0 24 23 21 28 -4z"/>
<path d="M80 1197 c0 -17 20 -37 37 -37 20 0 15 28 -6 40 -26 13 -31 13 -31
-3z"/>
<path d="M129 1118 c-6 -13 -20 -33 -31 -45 -20 -22 -21 -64 -2 -70 6 -2 22
25 35 59 13 35 25 66 27 71 9 19 -19 4 -29 -15z"/>
<path d="M243 1107 c-29 -6 -53 -13 -53 -16 0 -3 14 -14 30 -23 39 -22 38 -34
-5 -49 -19 -7 -35 -17 -35 -21 0 -12 31 -9 65 6 27 12 33 11 58 -11 30 -24 45
-27 96 -17 42 9 39 20 -6 29 -52 10 -95 33 -87 48 4 7 14 20 23 30 13 16 13
19 1 27 -17 11 -15 11 -87 -3z m41 -31 c-3 -8 -12 -12 -20 -9 -17 6 -9 23 11
23 8 0 12 -6 9 -14z"/>
</g>
</svg>
