<?xml version="1.0" standalone="no"?>
<!DOCTYPE svg PUBLIC "-//W3C//DTD SVG 20010904//EN"
 "http://www.w3.org/TR/2001/REC-SVG-20010904/DTD/svg10.dtd">
<svg version="1.0" xmlns="http://www.w3.org/2000/svg"
 width="50.000000pt" height="725.000000pt" viewBox="0 0 50.000000 725.000000"
 preserveAspectRatio="xMidYMid meet">
<metadata>
Created by potrace 1.16, written by Peter Selinger 2001-2019
</metadata>
<g transform="translate(0.000000,725.000000) scale(0.100000,-0.100000)"
fill="#000000" stroke="none">
<path d="M130 7117 c0 -14 31 -47 43 -47 14 0 6 48 -9 54 -24 9 -34 7 -34 -7z"/>
<path d="M130 6667 c0 -14 31 -47 43 -47 14 0 6 48 -9 54 -24 9 -34 7 -34 -7z"/>
<path d="M90 6592 c0 -10 33 -42 44 -42 4 0 6 10 4 23 -2 14 -11 23 -25 25
-13 2 -23 -1 -23 -6z"/>
<path d="M130 6217 c0 -14 31 -47 43 -47 14 0 6 48 -9 54 -24 9 -34 7 -34 -7z"/>
<path d="M90 6142 c0 -10 33 -42 44 -42 4 0 6 10 4 23 -2 14 -11 23 -25 25
-13 2 -23 -1 -23 -6z"/>
<path d="M133 6040 c-9 -16 -21 -30 -26 -30 -12 0 -4 -53 8 -57 9 -2 25 30 51
100 10 28 -14 19 -33 -13z"/>
<path d="M130 5767 c0 -14 31 -47 43 -47 14 0 6 48 -9 54 -24 9 -34 7 -34 -7z"/>
<path d="M213 5749 c4 -13 7 -30 7 -36 0 -7 5 -13 11 -13 15 0 6 63 -10 68
-10 4 -12 -1 -8 -19z"/>
<path d="M90 5692 c0 -10 33 -42 44 -42 4 0 6 10 4 23 -2 14 -11 23 -25 25
-13 2 -23 -1 -23 -6z"/>
<path d="M133 5590 c-9 -16 -21 -30 -26 -30 -12 0 -4 -53 8 -57 9 -2 25 30 51
100 10 28 -14 19 -33 -13z"/>
<path d="M130 5317 c0 -14 31 -47 43 -47 14 0 6 48 -9 54 -24 9 -34 7 -34 -7z"/>
<path d="M310 5320 c0 -5 7 -10 15 -10 8 0 15 -9 15 -20 0 -24 13 -26 30 -5
19 23 4 45 -30 45 -16 0 -30 -4 -30 -10z"/>
<path d="M214 5298 c3 -13 6 -29 6 -35 0 -7 5 -13 10 -13 6 0 10 11 10 25 0
21 5 25 30 25 17 0 30 5 30 10 0 6 -21 10 -46 10 -43 0 -46 -2 -40 -22z"/>
<path d="M90 5242 c0 -10 33 -42 44 -42 4 0 6 10 4 23 -2 14 -11 23 -25 25
-13 2 -23 -1 -23 -6z"/>
<path d="M133 5140 c-9 -16 -21 -30 -26 -30 -12 0 -4 -53 8 -57 9 -2 25 30 51
100 10 28 -14 19 -33 -13z"/>
<path d="M130 4867 c0 -14 31 -47 43 -47 14 0 6 48 -9 54 -24 9 -34 7 -34 -7z"/>
<path d="M310 4870 c0 -5 7 -10 15 -10 8 0 15 -7 15 -15 0 -10 -10 -15 -30
-15 -16 0 -30 -4 -30 -10 0 -5 17 -10 38 -10 31 0 41 5 51 24 8 13 10 29 7 35
-9 14 -66 15 -66 1z"/>
<path d="M214 4848 c3 -13 6 -29 6 -35 0 -7 9 -13 20 -13 11 0 20 5 20 10 0 6
-4 10 -10 10 -5 0 -10 7 -10 15 0 10 10 15 30 15 17 0 30 5 30 10 0 6 -21 10
-46 10 -43 0 -46 -2 -40 -22z"/>
<path d="M90 4792 c0 -10 33 -42 44 -42 4 0 6 10 4 23 -2 14 -11 23 -25 25
-13 2 -23 -1 -23 -6z"/>
<path d="M133 4690 c-9 -16 -21 -30 -26 -30 -12 0 -4 -53 8 -57 9 -2 25 30 51
100 10 28 -14 19 -33 -13z"/>
<path d="M130 4417 c0 -14 31 -47 43 -47 14 0 6 48 -9 54 -24 9 -34 7 -34 -7z"/>
<path d="M310 4420 c0 -5 7 -10 15 -10 8 0 15 -7 15 -15 0 -10 -10 -15 -30
-15 -16 0 -30 -4 -30 -10 0 -5 17 -10 38 -10 31 0 41 5 51 24 8 13 10 29 7 35
-9 14 -66 15 -66 1z"/>
<path d="M214 4398 c3 -13 6 -29 6 -35 0 -7 9 -13 20 -13 11 0 20 5 20 10 0 6
-4 10 -10 10 -5 0 -10 7 -10 15 0 10 10 15 30 15 17 0 30 5 30 10 0 6 -21 10
-46 10 -43 0 -46 -2 -40 -22z"/>
<path d="M90 4342 c0 -10 33 -42 44 -42 4 0 6 10 4 23 -2 14 -11 23 -25 25
-13 2 -23 -1 -23 -6z"/>
<path d="M204 4314 c3 -9 6 -22 6 -30 0 -8 7 -14 16 -14 11 0 14 5 10 16 -3 9
-6 22 -6 30 0 8 -7 14 -16 14 -11 0 -14 -5 -10 -16z"/>
<path d="M133 4240 c-9 -16 -21 -30 -26 -30 -12 0 -4 -53 8 -57 9 -2 25 30 51
100 10 28 -14 19 -33 -13z"/>
<path d="M130 3967 c0 -14 31 -47 43 -47 14 0 6 48 -9 54 -24 9 -34 7 -34 -7z"/>
<path d="M310 3970 c0 -5 7 -10 15 -10 8 0 15 -7 15 -15 0 -10 -10 -15 -30
-15 -16 0 -30 -4 -30 -10 0 -5 17 -10 38 -10 31 0 41 5 51 24 8 13 10 29 7 35
-9 14 -66 15 -66 1z"/>
<path d="M214 3948 c3 -13 6 -29 6 -35 0 -7 9 -13 20 -13 11 0 20 5 20 10 0 6
-4 10 -10 10 -5 0 -10 7 -10 15 0 10 10 15 30 15 17 0 30 5 30 10 0 6 -21 10
-46 10 -43 0 -46 -2 -40 -22z"/>
<path d="M90 3892 c0 -10 33 -42 44 -42 4 0 6 10 4 23 -2 14 -11 23 -25 25
-13 2 -23 -1 -23 -6z"/>
<path d="M318 3893 c-48 -5 -50 -23 -3 -23 28 0 35 -4 35 -20 0 -26 16 -26 30
1 9 15 8 24 -1 35 -6 8 -14 13 -18 12 -3 -1 -23 -3 -43 -5z"/>
<path d="M204 3864 c3 -9 6 -22 6 -30 0 -8 7 -14 16 -14 11 0 14 6 9 20 -5 16
-2 20 14 20 12 0 21 5 21 10 0 6 -16 10 -36 10 -29 0 -35 -3 -30 -16z"/>
<path d="M133 3790 c-9 -16 -21 -30 -26 -30 -12 0 -4 -53 8 -57 9 -2 25 30 51
100 10 28 -14 19 -33 -13z"/>
<path d="M130 3517 c0 -14 31 -47 43 -47 14 0 6 48 -9 54 -24 9 -34 7 -34 -7z"/>
<path d="M310 3520 c0 -5 7 -10 15 -10 8 0 15 -7 15 -15 0 -10 -10 -15 -30
-15 -16 0 -30 -4 -30 -10 0 -5 17 -10 38 -10 31 0 41 5 51 24 8 13 10 29 7 35
-9 14 -66 15 -66 1z"/>
<path d="M214 3498 c3 -13 6 -29 6 -35 0 -7 9 -13 20 -13 11 0 20 5 20 10 0 6
-4 10 -10 10 -5 0 -10 7 -10 15 0 10 10 15 30 15 17 0 30 5 30 10 0 6 -21 10
-46 10 -43 0 -46 -2 -40 -22z"/>
<path d="M90 3442 c0 -10 33 -42 44 -42 4 0 6 10 4 23 -2 14 -11 23 -25 25
-13 2 -23 -1 -23 -6z"/>
<path d="M318 3443 c-48 -5 -50 -23 -2 -23 24 0 34 -4 32 -12 -6 -16 -118 -24
-118 -8 0 5 9 10 20 10 11 0 20 5 20 10 0 6 -16 10 -35 10 -33 0 -35 -1 -29
-27 4 -16 9 -30 13 -33 3 -3 38 -4 77 -2 65 3 73 6 83 29 9 19 9 29 0 39 -6 8
-14 13 -18 12 -3 -1 -23 -3 -43 -5z"/>
<path d="M133 3340 c-9 -16 -21 -30 -26 -30 -12 0 -4 -53 8 -57 9 -2 25 30 51
100 10 28 -14 19 -33 -13z"/>
<path d="M270 3090 c0 -16 -7 -20 -31 -20 -28 0 -31 -3 -25 -22 3 -13 6 -29 6
-35 0 -7 9 -13 20 -13 11 0 20 5 20 10 0 6 -4 10 -10 10 -5 0 -10 7 -10 15 0
8 7 15 15 15 10 0 15 -11 15 -35 0 -33 -2 -35 -35 -35 -34 0 -35 -1 -29 -27
10 -41 13 -44 40 -37 18 5 24 2 24 -10 0 -9 5 -16 10 -16 6 0 10 7 10 15 0 11
11 15 38 15 32 0 41 5 51 26 16 37 0 54 -45 47 -22 -4 -34 -2 -34 6 0 6 13 11
28 11 20 0 33 7 41 24 18 32 7 46 -35 46 -24 0 -34 5 -34 15 0 8 -7 15 -15 15
-8 0 -15 -9 -15 -20z m70 -45 c0 -8 -9 -15 -20 -15 -20 0 -26 11 -13 23 12 13
33 7 33 -8z m8 -87 c-7 -20 -48 -23 -48 -4 0 11 9 16 26 16 16 0 24 -5 22 -12z
m-78 -8 c0 -5 -9 -10 -20 -10 -11 0 -20 5 -20 10 0 6 9 10 20 10 11 0 20 -4
20 -10z"/>
<path d="M130 3067 c0 -14 31 -47 43 -47 14 0 6 48 -9 54 -24 9 -34 7 -34 -7z"/>
<path d="M90 2992 c0 -10 33 -42 44 -42 4 0 6 10 4 23 -2 14 -11 23 -25 25
-13 2 -23 -1 -23 -6z"/>
<path d="M133 2890 c-9 -16 -21 -30 -26 -30 -12 0 -4 -53 8 -57 9 -2 25 30 51
100 10 28 -14 19 -33 -13z"/>
<path d="M270 2640 c0 -16 -7 -20 -31 -20 -28 0 -31 -3 -25 -22 3 -13 6 -29 6
-35 0 -7 9 -13 20 -13 11 0 20 5 20 10 0 6 -4 10 -10 10 -5 0 -10 7 -10 15 0
8 7 15 15 15 10 0 15 -11 15 -35 0 -33 -2 -35 -35 -35 -34 0 -35 -1 -29 -27
10 -41 13 -44 40 -37 18 5 24 2 24 -10 0 -9 5 -16 10 -16 6 0 10 7 10 15 0 11
11 15 38 15 32 0 41 5 51 26 16 37 0 54 -45 47 -22 -4 -34 -2 -34 6 0 6 13 11
28 11 20 0 33 7 41 24 18 32 7 46 -35 46 -24 0 -34 5 -34 15 0 8 -7 15 -15 15
-8 0 -15 -9 -15 -20z m70 -45 c0 -8 -9 -15 -20 -15 -20 0 -26 11 -13 23 12 13
33 7 33 -8z m8 -87 c-7 -20 -48 -23 -48 -4 0 11 9 16 26 16 16 0 24 -5 22 -12z
m-78 -8 c0 -5 -9 -10 -20 -10 -11 0 -20 5 -20 10 0 6 9 10 20 10 11 0 20 -4
20 -10z"/>
<path d="M130 2617 c0 -14 31 -47 43 -47 14 0 6 48 -9 54 -24 9 -34 7 -34 -7z"/>
<path d="M90 2542 c0 -10 33 -42 44 -42 4 0 6 10 4 23 -2 14 -11 23 -25 25
-13 2 -23 -1 -23 -6z"/>
<path d="M133 2440 c-9 -16 -21 -30 -26 -30 -12 0 -4 -53 8 -57 9 -2 25 30 51
100 10 28 -14 19 -33 -13z"/>
<path d="M182 2400 c-16 -26 -15 -50 2 -50 15 0 26 21 26 51 0 25 -12 24 -28
-1z"/>
<path d="M270 2190 c0 -16 -7 -20 -31 -20 -28 0 -31 -3 -25 -22 3 -13 6 -29 6
-35 0 -7 9 -13 20 -13 11 0 20 5 20 10 0 6 -4 10 -10 10 -5 0 -10 7 -10 15 0
8 7 15 15 15 10 0 15 -11 15 -35 0 -33 -2 -35 -35 -35 -34 0 -35 -1 -29 -27
10 -41 13 -44 40 -37 18 5 24 2 24 -10 0 -9 5 -16 10 -16 6 0 10 7 10 15 0 11
11 15 38 15 32 0 41 5 51 26 16 37 0 54 -45 47 -22 -4 -34 -2 -34 6 0 6 13 11
28 11 20 0 33 7 41 24 18 32 7 46 -35 46 -24 0 -34 5 -34 15 0 8 -7 15 -15 15
-8 0 -15 -9 -15 -20z m70 -45 c0 -8 -9 -15 -20 -15 -20 0 -26 11 -13 23 12 13
33 7 33 -8z m8 -87 c-7 -20 -48 -23 -48 -4 0 11 9 16 26 16 16 0 24 -5 22 -12z
m-78 -8 c0 -5 -9 -10 -20 -10 -11 0 -20 5 -20 10 0 6 9 10 20 10 11 0 20 -4
20 -10z"/>
<path d="M130 2167 c0 -14 31 -47 43 -47 14 0 6 48 -9 54 -24 9 -34 7 -34 -7z"/>
<path d="M90 2092 c0 -10 33 -42 44 -42 4 0 6 10 4 23 -2 14 -11 23 -25 25
-13 2 -23 -1 -23 -6z"/>
<path d="M133 1990 c-9 -16 -21 -30 -26 -30 -12 0 -4 -53 8 -57 9 -2 25 30 51
100 10 28 -14 19 -33 -13z"/>
<path d="M224 1974 c3 -9 6 -19 6 -24 0 -5 12 -22 26 -39 21 -26 33 -31 69
-31 72 0 95 18 58 46 -24 18 -33 17 -33 -1 0 -9 -10 -15 -26 -15 -37 0 -61 16
-72 50 -6 16 -16 30 -23 30 -6 0 -8 -7 -5 -16z"/>
<path d="M182 1950 c-16 -26 -15 -50 2 -50 15 0 26 21 26 51 0 25 -12 24 -28
-1z"/>
<path d="M270 1740 c0 -16 -7 -20 -31 -20 -28 0 -31 -3 -25 -22 3 -13 6 -29 6
-35 0 -7 9 -13 20 -13 11 0 20 5 20 10 0 6 -4 10 -10 10 -5 0 -10 7 -10 15 0
8 7 15 15 15 10 0 15 -11 15 -35 0 -33 -2 -35 -35 -35 -34 0 -35 -1 -29 -27
10 -41 13 -44 40 -37 18 5 24 2 24 -10 0 -9 5 -16 10 -16 6 0 10 7 10 15 0 11
11 15 38 15 32 0 41 5 51 26 16 37 0 54 -45 47 -22 -4 -34 -2 -34 6 0 6 13 11
28 11 20 0 33 7 41 24 18 32 7 46 -35 46 -24 0 -34 5 -34 15 0 8 -7 15 -15 15
-8 0 -15 -9 -15 -20z m70 -45 c0 -8 -9 -15 -20 -15 -20 0 -26 11 -13 23 12 13
33 7 33 -8z m8 -87 c-7 -20 -48 -23 -48 -4 0 11 9 16 26 16 16 0 24 -5 22 -12z
m-78 -8 c0 -5 -9 -10 -20 -10 -11 0 -20 5 -20 10 0 6 9 10 20 10 11 0 20 -4
20 -10z"/>
<path d="M130 1717 c0 -14 31 -47 43 -47 14 0 6 48 -9 54 -24 9 -34 7 -34 -7z"/>
<path d="M90 1642 c0 -10 33 -42 44 -42 4 0 6 10 4 23 -2 14 -11 23 -25 25
-13 2 -23 -1 -23 -6z"/>
<path d="M133 1540 c-9 -16 -21 -30 -26 -30 -12 0 -4 -53 8 -57 9 -2 25 30 51
100 10 28 -14 19 -33 -13z"/>
<path d="M224 1524 c3 -9 6 -19 6 -24 0 -5 12 -22 26 -39 21 -26 33 -31 69
-31 72 0 95 18 58 46 -24 18 -33 17 -33 -1 0 -9 -10 -15 -26 -15 -37 0 -61 16
-72 50 -6 16 -16 30 -23 30 -6 0 -8 -7 -5 -16z"/>
<path d="M280 1522 c0 -10 22 -32 32 -32 4 0 8 9 8 20 0 13 -7 20 -20 20 -11
0 -20 -4 -20 -8z"/>
<path d="M182 1500 c-16 -26 -15 -50 2 -50 15 0 26 21 26 51 0 25 -12 24 -28
-1z"/>
<path d="M270 1290 c0 -16 -7 -20 -31 -20 -28 0 -31 -3 -25 -22 3 -13 6 -29 6
-35 0 -7 9 -13 20 -13 11 0 20 5 20 10 0 6 -4 10 -10 10 -5 0 -10 7 -10 15 0
8 7 15 15 15 10 0 15 -11 15 -35 0 -33 -2 -35 -35 -35 -34 0 -35 -1 -29 -27
10 -41 13 -44 40 -37 18 5 24 2 24 -10 0 -9 5 -16 10 -16 6 0 10 7 10 15 0 11
11 15 38 15 32 0 41 5 51 26 16 37 0 54 -45 47 -22 -4 -34 -2 -34 6 0 6 13 11
28 11 20 0 33 7 41 24 18 32 7 46 -35 46 -24 0 -34 5 -34 15 0 8 -7 15 -15 15
-8 0 -15 -9 -15 -20z m70 -45 c0 -8 -9 -15 -20 -15 -20 0 -26 11 -13 23 12 13
33 7 33 -8z m8 -87 c-7 -20 -48 -23 -48 -4 0 11 9 16 26 16 16 0 24 -5 22 -12z
m-78 -8 c0 -5 -9 -10 -20 -10 -11 0 -20 5 -20 10 0 6 9 10 20 10 11 0 20 -4
20 -10z"/>
<path d="M130 1267 c0 -14 31 -47 43 -47 14 0 6 48 -9 54 -24 9 -34 7 -34 -7z"/>
<path d="M90 1192 c0 -10 33 -42 44 -42 4 0 6 10 4 23 -2 14 -11 23 -25 25
-13 2 -23 -1 -23 -6z"/>
<path d="M133 1090 c-9 -16 -21 -30 -26 -30 -12 0 -4 -53 8 -57 9 -2 25 30 51
100 10 28 -14 19 -33 -13z"/>
<path d="M360 1092 c0 -16 32 -52 46 -52 24 0 16 36 -11 48 -31 14 -35 15 -35
4z"/>
<path d="M224 1074 c3 -9 6 -19 6 -24 0 -5 12 -22 26 -39 21 -26 33 -31 69
-31 72 0 95 18 58 46 -24 18 -33 17 -33 -1 0 -9 -10 -15 -26 -15 -37 0 -61 16
-72 50 -6 16 -16 30 -23 30 -6 0 -8 -7 -5 -16z"/>
<path d="M280 1072 c0 -10 22 -32 32 -32 4 0 8 9 8 20 0 13 -7 20 -20 20 -11
0 -20 -4 -20 -8z"/>
<path d="M182 1050 c-16 -26 -15 -50 2 -50 15 0 26 21 26 51 0 25 -12 24 -28
-1z"/>
</g>
</svg>
