<?xml version="1.0" standalone="no"?>
<!DOCTYPE svg PUBLIC "-//W3C//DTD SVG 20010904//EN"
 "http://www.w3.org/TR/2001/REC-SVG-20010904/DTD/svg10.dtd">
<svg version="1.0" xmlns="http://www.w3.org/2000/svg"
 width="50.000000pt" height="725.000000pt" viewBox="0 0 50.000000 725.000000"
 preserveAspectRatio="xMidYMid meet">
<metadata>
Created by potrace 1.16, written by Peter Selinger 2001-2019
</metadata>
<g transform="translate(0.000000,725.000000) scale(0.100000,-0.100000)"
fill="#000000" stroke="none">
<path d="M132 7128 c6 -16 36 -34 44 -26 3 4 4 14 1 23 -7 17 -51 21 -45 3z"/>
<path d="M132 6678 c6 -16 36 -34 44 -26 3 4 4 14 1 23 -7 17 -51 21 -45 3z"/>
<path d="M92 6608 c6 -16 36 -34 44 -26 3 4 4 14 1 23 -7 17 -51 21 -45 3z"/>
<path d="M132 6228 c6 -16 36 -34 44 -26 3 4 4 14 1 23 -7 17 -51 21 -45 3z"/>
<path d="M92 6158 c6 -16 36 -34 44 -26 3 4 4 14 1 23 -7 17 -51 21 -45 3z"/>
<path d="M117 6063 c-27 -44 -31 -93 -8 -93 8 0 51 111 51 132 0 19 -17 4 -43
-39z"/>
<path d="M273 5817 c-65 -11 -85 -27 -34 -27 56 0 122 13 118 23 -5 15 -13 15
-84 4z"/>
<path d="M132 5778 c6 -16 36 -34 44 -26 3 4 4 14 1 23 -7 17 -51 21 -45 3z"/>
<path d="M92 5708 c6 -16 36 -34 44 -26 3 4 4 14 1 23 -7 17 -51 21 -45 3z"/>
<path d="M117 5613 c-27 -44 -31 -93 -8 -93 8 0 51 111 51 132 0 19 -17 4 -43
-39z"/>
<path d="M273 5367 c-65 -11 -85 -27 -34 -27 56 0 122 13 118 23 -5 15 -13 15
-84 4z"/>
<path d="M132 5328 c6 -16 36 -34 44 -26 3 4 4 14 1 23 -7 17 -51 21 -45 3z"/>
<path d="M193 5299 c4 -13 7 -30 7 -36 0 -7 5 -13 11 -13 15 0 6 63 -10 68
-10 4 -12 -1 -8 -19z"/>
<path d="M92 5258 c6 -16 36 -34 44 -26 3 4 4 14 1 23 -7 17 -51 21 -45 3z"/>
<path d="M117 5163 c-27 -44 -31 -93 -8 -93 8 0 51 111 51 132 0 19 -17 4 -43
-39z"/>
<path d="M273 4917 c-65 -11 -85 -27 -34 -27 56 0 122 13 118 23 -5 15 -13 15
-84 4z"/>
<path d="M132 4878 c6 -16 36 -34 44 -26 3 4 4 14 1 23 -7 17 -51 21 -45 3z"/>
<path d="M310 4870 c0 -5 9 -10 20 -10 16 0 19 -5 14 -30 -8 -37 8 -39 30 -5
27 41 21 55 -24 55 -22 0 -40 -4 -40 -10z"/>
<path d="M194 4846 c3 -12 6 -27 6 -33 0 -7 5 -13 10 -13 6 0 10 11 10 25 0
22 4 25 35 25 19 0 35 5 35 10 0 6 -22 10 -51 9 -46 -2 -50 -4 -45 -23z"/>
<path d="M92 4808 c6 -16 36 -34 44 -26 3 4 4 14 1 23 -7 17 -51 21 -45 3z"/>
<path d="M117 4713 c-27 -44 -31 -93 -8 -93 8 0 51 111 51 132 0 19 -17 4 -43
-39z"/>
<path d="M273 4467 c-35 -6 -63 -14 -63 -19 0 -4 7 -8 15 -8 8 0 15 -4 15 -10
0 -10 -14 -14 -39 -10 -10 1 -12 -5 -7 -22 3 -13 6 -29 6 -35 0 -7 5 -13 10
-13 6 0 10 11 10 25 0 30 16 33 25 5 8 -25 25 -26 25 -1 0 11 6 22 13 24 9 4
8 8 -3 16 -20 14 -9 22 40 28 22 3 39 10 37 16 -5 15 -13 15 -84 4z"/>
<path d="M132 4428 c6 -16 36 -34 44 -26 3 4 4 14 1 23 -7 17 -51 21 -45 3z"/>
<path d="M310 4420 c0 -5 9 -10 20 -10 16 0 19 -5 14 -30 -8 -37 8 -39 30 -5
27 41 21 55 -24 55 -22 0 -40 -4 -40 -10z"/>
<path d="M92 4358 c6 -16 36 -34 44 -26 3 4 4 14 1 23 -7 17 -51 21 -45 3z"/>
<path d="M117 4263 c-27 -44 -31 -93 -8 -93 8 0 51 111 51 132 0 19 -17 4 -43
-39z"/>
<path d="M273 4017 c-35 -6 -63 -14 -63 -19 0 -4 7 -8 15 -8 8 0 15 -4 15 -10
0 -10 -14 -14 -39 -10 -10 1 -12 -5 -7 -22 3 -13 6 -29 6 -35 0 -7 5 -13 10
-13 6 0 10 11 10 25 0 30 16 33 25 5 3 -11 11 -20 16 -20 5 0 9 9 9 20 0 11 5
20 10 20 6 0 10 -7 10 -15 0 -22 18 -18 25 5 11 34 35 25 29 -10 -8 -37 8 -39
30 -5 25 38 21 55 -14 55 -16 0 -30 5 -30 10 0 6 7 10 16 10 16 0 15 23 -2 25
-5 1 -37 -3 -71 -8z m17 -37 c0 -5 -4 -10 -10 -10 -5 0 -10 5 -10 10 0 6 5 10
10 10 6 0 10 -4 10 -10z"/>
<path d="M132 3978 c6 -16 36 -34 44 -26 3 4 4 14 1 23 -7 17 -51 21 -45 3z"/>
<path d="M92 3908 c6 -16 36 -34 44 -26 3 4 4 14 1 23 -7 17 -51 21 -45 3z"/>
<path d="M117 3813 c-27 -44 -31 -93 -8 -93 8 0 51 111 51 132 0 19 -17 4 -43
-39z"/>
<path d="M273 3567 c-35 -6 -63 -14 -63 -19 0 -4 7 -8 15 -8 8 0 15 -4 15 -10
0 -10 -14 -14 -39 -10 -10 1 -12 -5 -7 -22 3 -13 6 -29 6 -36 0 -9 21 -11 80
-8 65 3 84 7 95 22 25 33 19 54 -15 54 -16 0 -30 5 -30 10 0 6 7 10 16 10 16
0 15 23 -2 25 -5 1 -37 -3 -71 -8z m17 -37 c0 -5 -4 -10 -10 -10 -5 0 -10 5
-10 10 0 6 5 10 10 10 6 0 10 -4 10 -10z m58 -32 c-3 -7 -12 -14 -21 -16 -12
-2 -15 1 -11 12 7 19 38 22 32 4z m-104 -13 c3 -9 0 -15 -9 -15 -8 0 -15 7
-15 15 0 8 4 15 9 15 5 0 11 -7 15 -15z m46 6 c0 -6 -4 -13 -10 -16 -5 -3 -10
1 -10 9 0 9 5 16 10 16 6 0 10 -4 10 -9z"/>
<path d="M132 3528 c6 -16 36 -34 44 -26 3 4 4 14 1 23 -7 17 -51 21 -45 3z"/>
<path d="M92 3458 c6 -16 36 -34 44 -26 3 4 4 14 1 23 -7 17 -51 21 -45 3z"/>
<path d="M117 3363 c-27 -44 -31 -93 -8 -93 8 0 51 111 51 132 0 19 -17 4 -43
-39z"/>
<path d="M273 3117 c-35 -6 -63 -14 -63 -19 0 -4 7 -8 15 -8 8 0 15 -4 15 -10
0 -10 -14 -14 -39 -10 -10 1 -12 -5 -7 -22 3 -13 6 -29 6 -36 0 -9 21 -11 80
-8 65 3 84 7 95 22 25 33 19 54 -15 54 -16 0 -30 5 -30 10 0 6 7 10 16 10 16
0 15 23 -2 25 -5 1 -37 -3 -71 -8z m17 -37 c0 -5 -4 -10 -10 -10 -5 0 -10 5
-10 10 0 6 5 10 10 10 6 0 10 -4 10 -10z m58 -32 c-3 -7 -12 -14 -21 -16 -12
-2 -15 1 -11 12 7 19 38 22 32 4z m-104 -13 c3 -9 0 -15 -9 -15 -8 0 -15 7
-15 15 0 8 4 15 9 15 5 0 11 -7 15 -15z m46 6 c0 -6 -4 -13 -10 -16 -5 -3 -10
1 -10 9 0 9 5 16 10 16 6 0 10 -4 10 -9z"/>
<path d="M132 3078 c6 -16 36 -34 44 -26 3 4 4 14 1 23 -7 17 -51 21 -45 3z"/>
<path d="M92 3008 c6 -16 36 -34 44 -26 3 4 4 14 1 23 -7 17 -51 21 -45 3z"/>
<path d="M214 2958 c3 -13 6 -31 6 -40 0 -10 5 -18 10 -18 6 0 10 18 10 40 0
30 -4 40 -16 40 -12 0 -15 -6 -10 -22z"/>
<path d="M117 2913 c-27 -44 -31 -93 -8 -93 8 0 51 111 51 132 0 19 -17 4 -43
-39z"/>
<path d="M273 2667 c-35 -6 -63 -14 -63 -19 0 -4 7 -8 15 -8 8 0 15 -4 15 -10
0 -10 -14 -14 -39 -10 -10 1 -12 -5 -7 -22 3 -13 6 -29 6 -37 0 -11 14 -12 73
-7 50 5 67 4 57 -4 -8 -5 -27 -10 -42 -10 -16 0 -28 -4 -28 -10 0 -5 14 -10
31 -10 30 0 31 -1 25 -35 -5 -23 -3 -35 4 -35 14 0 43 68 37 84 -3 7 4 23 14
37 29 37 25 59 -11 59 -16 0 -30 5 -30 10 0 6 7 10 16 10 16 0 15 23 -2 25 -5
1 -37 -3 -71 -8z m17 -37 c0 -5 -4 -10 -10 -10 -5 0 -10 5 -10 10 0 6 5 10 10
10 6 0 10 -4 10 -10z m58 -32 c-3 -7 -12 -14 -21 -16 -12 -2 -15 1 -11 12 7
19 38 22 32 4z m-104 -13 c3 -9 0 -15 -9 -15 -8 0 -15 7 -15 15 0 8 4 15 9 15
5 0 11 -7 15 -15z m46 6 c0 -6 -4 -13 -10 -16 -5 -3 -10 1 -10 9 0 9 5 16 10
16 6 0 10 -4 10 -9z"/>
<path d="M132 2628 c6 -16 36 -34 44 -26 3 4 4 14 1 23 -7 17 -51 21 -45 3z"/>
<path d="M92 2558 c6 -16 36 -34 44 -26 3 4 4 14 1 23 -7 17 -51 21 -45 3z"/>
<path d="M214 2508 c3 -13 6 -31 6 -40 0 -10 5 -18 10 -18 6 0 10 18 10 40 0
30 -4 40 -16 40 -12 0 -15 -6 -10 -22z"/>
<path d="M117 2463 c-27 -44 -31 -93 -8 -93 8 0 51 111 51 132 0 19 -17 4 -43
-39z"/>
<path d="M273 2217 c-35 -6 -63 -14 -63 -19 0 -4 7 -8 15 -8 8 0 15 -4 15 -10
0 -10 -14 -14 -39 -10 -10 1 -12 -5 -7 -22 3 -13 6 -29 6 -37 0 -11 14 -12 73
-7 50 5 67 4 57 -4 -8 -5 -27 -10 -42 -10 -39 0 -35 -20 5 -21 23 -1 26 -3 10
-6 -28 -5 -31 -23 -4 -23 14 0 18 -5 14 -20 -3 -12 0 -20 6 -20 14 0 44 67 38
84 -3 7 4 23 14 37 29 37 25 59 -11 59 -16 0 -30 5 -30 10 0 6 7 10 16 10 16
0 15 23 -2 25 -5 1 -37 -3 -71 -8z m17 -37 c0 -5 -4 -10 -10 -10 -5 0 -10 5
-10 10 0 6 5 10 10 10 6 0 10 -4 10 -10z m58 -32 c-3 -7 -12 -14 -21 -16 -12
-2 -15 1 -11 12 7 19 38 22 32 4z m-104 -13 c3 -9 0 -15 -9 -15 -8 0 -15 7
-15 15 0 8 4 15 9 15 5 0 11 -7 15 -15z m46 6 c0 -6 -4 -13 -10 -16 -5 -3 -10
1 -10 9 0 9 5 16 10 16 6 0 10 -4 10 -9z"/>
<path d="M132 2178 c6 -16 36 -34 44 -26 3 4 4 14 1 23 -7 17 -51 21 -45 3z"/>
<path d="M92 2108 c6 -16 36 -34 44 -26 3 4 4 14 1 23 -7 17 -51 21 -45 3z"/>
<path d="M214 2058 c3 -13 6 -31 6 -40 0 -24 16 -23 23 2 7 29 -3 60 -20 60
-11 0 -14 -6 -9 -22z"/>
<path d="M117 2013 c-27 -44 -31 -93 -8 -93 8 0 51 111 51 132 0 19 -17 4 -43
-39z"/>
<path d="M273 1767 c-35 -6 -63 -14 -63 -19 0 -4 7 -8 15 -8 8 0 15 -4 15 -10
0 -10 -14 -14 -39 -10 -10 1 -12 -5 -7 -22 3 -13 6 -29 6 -37 0 -11 14 -12 73
-7 50 5 67 4 57 -4 -8 -5 -27 -10 -42 -10 -39 0 -35 -20 5 -21 23 -1 26 -3 10
-6 -29 -6 -30 -23 -1 -23 30 0 20 -6 -23 -14 -27 -5 -37 -3 -36 6 1 34 -4 48
-19 48 -12 0 -15 -6 -10 -22 3 -13 6 -31 6 -40 0 -15 9 -17 56 -14 61 3 75 15
79 67 1 15 9 39 18 53 26 39 22 56 -13 56 -16 0 -30 5 -30 10 0 6 7 10 16 10
16 0 15 23 -2 25 -5 1 -37 -3 -71 -8z m17 -37 c0 -5 -4 -10 -10 -10 -5 0 -10
5 -10 10 0 6 5 10 10 10 6 0 10 -4 10 -10z m58 -32 c-3 -7 -12 -14 -21 -16
-12 -2 -15 1 -11 12 7 19 38 22 32 4z m-104 -13 c3 -9 0 -15 -9 -15 -8 0 -15
7 -15 15 0 8 4 15 9 15 5 0 11 -7 15 -15z m46 6 c0 -6 -4 -13 -10 -16 -5 -3
-10 1 -10 9 0 9 5 16 10 16 6 0 10 -4 10 -9z"/>
<path d="M132 1728 c6 -16 36 -34 44 -26 3 4 4 14 1 23 -7 17 -51 21 -45 3z"/>
<path d="M92 1658 c6 -16 36 -34 44 -26 3 4 4 14 1 23 -7 17 -51 21 -45 3z"/>
<path d="M117 1563 c-27 -44 -31 -93 -8 -93 8 0 51 111 51 132 0 19 -17 4 -43
-39z"/>
<path d="M273 1317 c-35 -6 -63 -14 -63 -19 0 -4 7 -8 15 -8 8 0 15 -4 15 -10
0 -10 -14 -14 -39 -10 -10 1 -12 -5 -7 -22 3 -13 6 -29 6 -37 0 -11 14 -12 73
-7 50 5 67 4 57 -4 -8 -5 -27 -10 -42 -10 -39 0 -35 -20 5 -21 23 -1 26 -3 10
-6 -29 -6 -30 -23 -1 -23 30 0 20 -6 -23 -14 -27 -5 -37 -3 -36 6 1 34 -4 48
-19 48 -12 0 -15 -6 -10 -22 3 -13 6 -31 6 -40 0 -15 9 -17 56 -14 61 3 75 15
79 67 1 15 9 39 18 53 26 39 22 56 -13 56 -16 0 -30 5 -30 10 0 6 7 10 16 10
16 0 15 23 -2 25 -5 1 -37 -3 -71 -8z m17 -37 c0 -5 -4 -10 -10 -10 -5 0 -10
5 -10 10 0 6 5 10 10 10 6 0 10 -4 10 -10z m58 -32 c-3 -7 -12 -14 -21 -16
-12 -2 -15 1 -11 12 7 19 38 22 32 4z m-104 -13 c3 -9 0 -15 -9 -15 -8 0 -15
7 -15 15 0 8 4 15 9 15 5 0 11 -7 15 -15z m46 6 c0 -6 -4 -13 -10 -16 -5 -3
-10 1 -10 9 0 9 5 16 10 16 6 0 10 -4 10 -9z"/>
<path d="M132 1278 c6 -16 36 -34 44 -26 3 4 4 14 1 23 -7 17 -51 21 -45 3z"/>
<path d="M92 1208 c6 -16 36 -34 44 -26 3 4 4 14 1 23 -7 17 -51 21 -45 3z"/>
<path d="M117 1113 c-27 -44 -31 -93 -8 -93 8 0 51 111 51 132 0 19 -17 4 -43
-39z"/>
<path d="M223 1083 c-69 -4 -91 -14 -58 -26 8 -4 54 -2 102 3 48 4 101 8 117
7 16 -1 31 4 33 11 5 12 -19 13 -194 5z"/>
<path d="M273 867 c-35 -6 -63 -14 -63 -19 0 -4 7 -8 15 -8 8 0 15 -4 15 -10
0 -10 -14 -14 -39 -10 -10 1 -12 -5 -7 -22 3 -13 6 -29 6 -37 0 -11 14 -12 73
-7 50 5 67 4 57 -4 -8 -5 -27 -10 -42 -10 -39 0 -35 -20 5 -21 23 -1 26 -3 10
-6 -29 -6 -30 -23 -1 -23 30 0 20 -6 -23 -14 -27 -5 -37 -3 -36 6 1 34 -4 48
-19 48 -12 0 -15 -6 -10 -22 3 -13 6 -31 6 -40 0 -11 8 -18 20 -18 11 0 20 -4
20 -10 0 -5 -25 -10 -55 -10 -30 0 -55 -4 -55 -9 0 -15 30 -21 71 -15 l39 7 0
-42 c0 -30 4 -41 15 -41 11 0 15 11 15 40 0 45 14 53 84 48 24 -2 40 2 43 10
3 9 -12 12 -56 12 -34 0 -61 4 -61 10 0 5 7 7 15 4 11 -4 20 5 31 31 8 21 13
43 11 49 -3 7 4 23 14 37 29 37 25 59 -11 59 -16 0 -30 5 -30 10 0 6 7 10 16
10 16 0 15 23 -2 25 -5 1 -37 -3 -71 -8z m17 -37 c0 -5 -4 -10 -10 -10 -5 0
-10 5 -10 10 0 6 5 10 10 10 6 0 10 -4 10 -10z m58 -32 c-3 -7 -12 -14 -21
-16 -12 -2 -15 1 -11 12 7 19 38 22 32 4z m-104 -13 c3 -9 0 -15 -9 -15 -8 0
-15 7 -15 15 0 8 4 15 9 15 5 0 11 -7 15 -15z m46 6 c0 -6 -4 -13 -10 -16 -5
-3 -10 1 -10 9 0 9 5 16 10 16 6 0 10 -4 10 -9z"/>
<path d="M132 828 c6 -16 36 -34 44 -26 3 4 4 14 1 23 -7 17 -51 21 -45 3z"/>
<path d="M92 758 c6 -16 36 -34 44 -26 3 4 4 14 1 23 -7 17 -51 21 -45 3z"/>
<path d="M117 663 c-27 -44 -31 -93 -8 -93 8 0 51 111 51 132 0 19 -17 4 -43
-39z"/>
</g>
</svg>
