<?xml version="1.0" standalone="no"?>
<!DOCTYPE svg PUBLIC "-//W3C//DTD SVG 20010904//EN"
 "http://www.w3.org/TR/2001/REC-SVG-20010904/DTD/svg10.dtd">
<svg version="1.0" xmlns="http://www.w3.org/2000/svg"
 width="50.000000pt" height="725.000000pt" viewBox="0 0 50.000000 725.000000"
 preserveAspectRatio="xMidYMid meet">
<metadata>
Created by potrace 1.16, written by Peter Selinger 2001-2019
</metadata>
<g transform="translate(0.000000,725.000000) scale(0.100000,-0.100000)"
fill="#000000" stroke="none">
<path d="M120 7132 c0 -18 28 -45 38 -38 17 10 15 33 -4 40 -22 8 -34 8 -34
-2z"/>
<path d="M120 6682 c0 -18 28 -45 38 -38 17 10 15 33 -4 40 -22 8 -34 8 -34
-2z"/>
<path d="M90 6601 c0 -12 29 -41 41 -41 16 0 10 38 -7 44 -22 9 -34 7 -34 -3z"/>
<path d="M120 6232 c0 -18 28 -45 38 -38 17 10 15 33 -4 40 -22 8 -34 8 -34
-2z"/>
<path d="M90 6151 c0 -12 29 -41 41 -41 16 0 10 38 -7 44 -22 9 -34 7 -34 -3z"/>
<path d="M117 6043 c-28 -45 -32 -83 -11 -90 8 -3 34 59 52 125 8 27 -15 9
-41 -35z"/>
<path d="M120 5782 c0 -18 28 -45 38 -38 17 10 15 33 -4 40 -22 8 -34 8 -34
-2z"/>
<path d="M208 5763 c-31 -5 -38 -23 -9 -23 34 0 81 12 81 21 0 9 -22 10 -72 2z"/>
<path d="M90 5701 c0 -12 29 -41 41 -41 16 0 10 38 -7 44 -22 9 -34 7 -34 -3z"/>
<path d="M117 5593 c-28 -45 -32 -83 -11 -90 8 -3 34 59 52 125 8 27 -15 9
-41 -35z"/>
<path d="M220 5335 c0 -18 -5 -25 -20 -25 -11 0 -20 -4 -20 -10 0 -5 9 -10 21
-10 19 0 20 -4 14 -40 -6 -33 -4 -40 9 -40 12 0 16 11 16 45 0 38 3 45 20 45
11 0 20 5 20 10 0 6 -9 10 -20 10 -13 0 -20 7 -20 20 0 11 -4 20 -10 20 -5 0
-10 -11 -10 -25z"/>
<path d="M120 5332 c0 -18 28 -45 38 -38 17 10 15 33 -4 40 -22 8 -34 8 -34
-2z"/>
<path d="M90 5251 c0 -12 29 -41 41 -41 16 0 10 38 -7 44 -22 9 -34 7 -34 -3z"/>
<path d="M117 5143 c-28 -45 -32 -83 -11 -90 8 -3 34 59 52 125 8 27 -15 9
-41 -35z"/>
<path d="M220 4885 c0 -18 -5 -25 -20 -25 -11 0 -20 -4 -20 -10 0 -5 9 -10 20
-10 14 0 20 -6 19 -22 -1 -17 -2 -19 -6 -5 -5 18 -23 24 -23 8 0 -5 -3 -17 -7
-27 -5 -13 -3 -16 10 -11 11 4 17 1 17 -8 0 -8 7 -15 15 -15 11 0 15 12 15 45
0 38 3 45 20 45 11 0 20 5 20 10 0 6 -9 10 -20 10 -13 0 -20 7 -20 20 0 11 -4
20 -10 20 -5 0 -10 -11 -10 -25z"/>
<path d="M120 4882 c0 -18 28 -45 38 -38 17 10 15 33 -4 40 -22 8 -34 8 -34
-2z"/>
<path d="M90 4801 c0 -12 29 -41 41 -41 16 0 10 38 -7 44 -22 9 -34 7 -34 -3z"/>
<path d="M117 4693 c-28 -45 -32 -83 -11 -90 8 -3 34 59 52 125 8 27 -15 9
-41 -35z"/>
<path d="M220 4435 c0 -18 -5 -25 -20 -25 -11 0 -20 -4 -20 -10 0 -5 9 -10 20
-10 14 0 20 -6 19 -22 -1 -17 -2 -19 -6 -5 -5 18 -23 24 -23 8 0 -5 -3 -17 -7
-27 -5 -13 -3 -16 10 -11 11 4 17 1 17 -8 0 -25 30 -17 31 8 0 12 3 16 6 10 6
-15 53 -18 53 -3 0 6 -7 10 -15 10 -8 0 -15 9 -15 19 0 11 -8 22 -17 24 -14 4
-12 5 5 6 27 1 30 21 2 21 -13 0 -20 7 -20 20 0 11 -4 20 -10 20 -5 0 -10 -11
-10 -25z"/>
<path d="M120 4432 c0 -18 28 -45 38 -38 17 10 15 33 -4 40 -22 8 -34 8 -34
-2z"/>
<path d="M90 4351 c0 -12 29 -41 41 -41 16 0 10 38 -7 44 -22 9 -34 7 -34 -3z"/>
<path d="M117 4243 c-28 -45 -32 -83 -11 -90 8 -3 34 59 52 125 8 27 -15 9
-41 -35z"/>
<path d="M220 3985 c0 -18 -5 -25 -20 -25 -11 0 -20 -4 -20 -10 0 -5 9 -10 20
-10 14 0 20 -6 19 -22 -1 -17 -2 -19 -6 -5 -5 18 -23 24 -23 8 0 -5 -3 -17 -7
-27 -5 -13 -3 -16 10 -11 11 4 17 1 17 -8 0 -25 30 -17 31 8 0 12 3 16 6 10 6
-15 53 -18 53 -3 0 6 -7 10 -15 10 -8 0 -15 9 -15 19 0 11 -8 22 -17 24 -14 4
-12 5 5 6 27 1 30 21 2 21 -13 0 -20 7 -20 20 0 11 -4 20 -10 20 -5 0 -10 -11
-10 -25z"/>
<path d="M120 3982 c0 -18 28 -45 38 -38 17 10 15 33 -4 40 -22 8 -34 8 -34
-2z"/>
<path d="M318 3973 c-16 -2 -28 -9 -28 -14 0 -10 43 -12 78 -3 12 4 22 10 22
15 0 9 -22 10 -72 2z"/>
<path d="M90 3901 c0 -12 29 -41 41 -41 16 0 10 38 -7 44 -22 9 -34 7 -34 -3z"/>
<path d="M117 3793 c-28 -45 -32 -83 -11 -90 8 -3 34 59 52 125 8 27 -15 9
-41 -35z"/>
<path d="M326 3545 c5 -21 3 -25 -15 -25 -12 0 -21 -4 -21 -10 0 -5 9 -10 21
-10 18 0 20 -5 17 -41 -2 -27 1 -44 10 -46 8 -3 12 9 12 42 0 38 4 48 20 52
11 3 20 9 20 14 0 5 -9 9 -20 9 -13 0 -20 7 -20 20 0 11 -7 20 -15 20 -11 0
-14 -7 -9 -25z"/>
<path d="M220 3535 c0 -18 -5 -25 -20 -25 -11 0 -20 -4 -20 -10 0 -5 9 -10 20
-10 14 0 20 -6 19 -22 -1 -17 -2 -19 -6 -5 -5 18 -23 24 -23 8 0 -5 -3 -17 -7
-27 -5 -13 -3 -16 10 -11 11 4 17 1 17 -8 0 -25 30 -17 31 8 0 12 3 16 6 10 6
-15 53 -18 53 -3 0 6 -7 10 -15 10 -8 0 -15 9 -15 19 0 11 -8 22 -17 24 -14 4
-12 5 5 6 27 1 30 21 2 21 -13 0 -20 7 -20 20 0 11 -4 20 -10 20 -5 0 -10 -11
-10 -25z"/>
<path d="M120 3532 c0 -18 28 -45 38 -38 17 10 15 33 -4 40 -22 8 -34 8 -34
-2z"/>
<path d="M90 3451 c0 -12 29 -41 41 -41 16 0 10 38 -7 44 -22 9 -34 7 -34 -3z"/>
<path d="M117 3343 c-28 -45 -32 -83 -11 -90 8 -3 34 59 52 125 8 27 -15 9
-41 -35z"/>
<path d="M326 3095 c5 -21 3 -25 -15 -25 -12 0 -21 -4 -21 -10 0 -5 9 -10 20
-10 15 0 20 -6 19 -27 -2 -24 -2 -25 -6 -5 -5 27 -23 29 -23 2 0 -11 -7 -20
-15 -20 -8 0 -15 9 -15 19 0 11 -8 22 -17 24 -14 4 -12 5 5 6 27 1 30 21 2 21
-13 0 -20 7 -20 20 0 11 -4 20 -10 20 -5 0 -10 -11 -10 -25 0 -18 -5 -25 -20
-25 -11 0 -20 -4 -20 -10 0 -5 9 -10 20 -10 14 0 20 -6 19 -22 -1 -17 -2 -19
-6 -5 -5 18 -23 24 -23 8 0 -5 -3 -17 -7 -27 -5 -13 -3 -16 10 -11 11 4 17 1
17 -8 0 -8 7 -15 15 -15 9 0 15 9 15 23 0 16 3 18 9 8 6 -9 20 -12 40 -9 19 3
32 0 35 -9 11 -29 26 -10 26 33 0 37 4 47 20 51 11 3 20 9 20 14 0 5 -9 9 -20
9 -13 0 -20 7 -20 20 0 11 -7 20 -15 20 -11 0 -14 -7 -9 -25z"/>
<path d="M120 3082 c0 -18 28 -45 38 -38 17 10 15 33 -4 40 -22 8 -34 8 -34
-2z"/>
<path d="M90 3001 c0 -12 29 -41 41 -41 16 0 10 38 -7 44 -22 9 -34 7 -34 -3z"/>
<path d="M117 2893 c-28 -45 -32 -83 -11 -90 8 -3 34 59 52 125 8 27 -15 9
-41 -35z"/>
<path d="M326 2645 c5 -21 3 -25 -15 -25 -12 0 -21 -4 -21 -10 0 -5 9 -10 20
-10 15 0 20 -6 19 -27 -2 -24 -2 -25 -6 -5 -5 27 -23 29 -23 2 0 -11 -7 -20
-15 -20 -8 0 -15 9 -15 19 0 11 -8 22 -17 24 -14 4 -12 5 5 6 27 1 30 21 2 21
-13 0 -20 7 -20 20 0 11 -4 20 -10 20 -5 0 -10 -11 -10 -25 0 -18 -5 -25 -20
-25 -11 0 -20 -4 -20 -10 0 -5 9 -10 20 -10 14 0 20 -6 19 -22 -1 -17 -2 -19
-6 -5 -5 18 -23 24 -23 8 0 -5 -3 -17 -7 -27 -5 -13 -3 -16 10 -11 11 4 17 1
17 -8 0 -8 7 -15 15 -15 9 0 15 9 15 23 0 16 3 18 9 8 6 -9 20 -12 40 -9 19 3
32 0 35 -9 11 -29 26 -10 26 33 0 37 4 47 20 51 11 3 20 9 20 14 0 5 -9 9 -20
9 -13 0 -20 7 -20 20 0 11 -7 20 -15 20 -11 0 -14 -7 -9 -25z"/>
<path d="M120 2632 c0 -18 28 -45 38 -38 17 10 15 33 -4 40 -22 8 -34 8 -34
-2z"/>
<path d="M362 2564 c3 -34 6 -39 31 -42 15 -2 27 1 27 7 0 6 -9 11 -20 11 -16
0 -20 6 -18 26 2 16 -3 29 -10 32 -10 3 -13 -6 -10 -34z"/>
<path d="M90 2551 c0 -12 29 -41 41 -41 16 0 10 38 -7 44 -22 9 -34 7 -34 -3z"/>
<path d="M117 2443 c-28 -45 -32 -83 -11 -90 8 -3 34 59 52 125 8 27 -15 9
-41 -35z"/>
<path d="M326 2195 c5 -21 3 -25 -15 -25 -12 0 -21 -4 -21 -10 0 -5 9 -10 20
-10 15 0 20 -6 19 -27 -2 -24 -2 -25 -6 -5 -5 27 -23 29 -23 2 0 -11 -7 -20
-15 -20 -8 0 -15 9 -15 19 0 11 -8 22 -17 24 -14 4 -12 5 5 6 27 1 30 21 2 21
-13 0 -20 7 -20 20 0 11 -4 20 -10 20 -5 0 -10 -11 -10 -25 0 -18 -5 -25 -20
-25 -11 0 -20 -4 -20 -10 0 -5 9 -10 20 -10 14 0 20 -6 19 -22 -1 -17 -2 -19
-6 -5 -5 18 -23 24 -23 8 0 -5 -3 -17 -7 -27 -5 -13 -3 -16 10 -11 11 4 17 1
17 -8 0 -8 7 -15 15 -15 9 0 15 9 15 23 0 16 3 18 9 8 6 -9 20 -12 40 -9 19 3
32 0 35 -9 11 -29 26 -10 26 33 0 37 4 47 20 51 11 3 20 9 20 14 0 5 -9 9 -20
9 -13 0 -20 7 -20 20 0 11 -7 20 -15 20 -11 0 -14 -7 -9 -25z"/>
<path d="M120 2182 c0 -18 28 -45 38 -38 17 10 15 33 -4 40 -22 8 -34 8 -34
-2z"/>
<path d="M362 2114 c3 -34 6 -39 31 -42 15 -2 27 1 27 7 0 6 -9 11 -20 11 -16
0 -20 6 -18 26 2 16 -3 29 -10 32 -10 3 -13 -6 -10 -34z"/>
<path d="M90 2101 c0 -12 29 -41 41 -41 16 0 10 38 -7 44 -22 9 -34 7 -34 -3z"/>
<path d="M214 2032 c6 -19 -5 -92 -19 -126 -6 -14 -4 -18 6 -14 33 11 55 158
23 158 -10 0 -13 -6 -10 -18z"/>
<path d="M117 1993 c-28 -45 -32 -83 -11 -90 8 -3 34 59 52 125 8 27 -15 9
-41 -35z"/>
<path d="M326 1745 c5 -21 3 -25 -15 -25 -12 0 -21 -4 -21 -10 0 -5 9 -10 20
-10 15 0 20 -6 19 -27 -2 -24 -2 -25 -6 -5 -5 27 -23 29 -23 2 0 -11 -7 -20
-15 -20 -8 0 -15 9 -15 19 0 11 -8 22 -17 24 -14 4 -12 5 5 6 27 1 30 21 2 21
-13 0 -20 7 -20 20 0 11 -4 20 -10 20 -5 0 -10 -11 -10 -25 0 -18 -5 -25 -20
-25 -11 0 -20 -4 -20 -10 0 -5 9 -10 20 -10 14 0 20 -6 19 -22 -1 -17 -2 -19
-6 -5 -5 18 -23 24 -23 8 0 -5 -3 -17 -7 -27 -5 -13 -3 -16 10 -11 11 4 17 1
17 -8 0 -8 7 -15 15 -15 9 0 15 9 15 23 0 16 3 18 9 8 6 -9 20 -12 40 -9 18 3
32 0 35 -8 5 -13 -15 -24 -45 -24 -10 0 -19 -4 -19 -10 0 -5 14 -10 30 -10 30
0 30 0 30 -59 0 -37 -5 -61 -12 -63 -16 -6 -2 -38 16 -38 17 0 28 53 26 129
-4 133 -1 153 20 158 11 3 20 9 20 14 0 5 -9 9 -20 9 -13 0 -20 7 -20 20 0 11
-7 20 -15 20 -11 0 -14 -7 -9 -25z"/>
<path d="M120 1732 c0 -18 28 -45 38 -38 17 10 15 33 -4 40 -22 8 -34 8 -34
-2z"/>
<path d="M362 1664 c3 -34 6 -39 31 -42 15 -2 27 1 27 7 0 6 -9 11 -20 11 -16
0 -20 6 -18 26 2 16 -3 29 -10 32 -10 3 -13 -6 -10 -34z"/>
<path d="M90 1651 c0 -12 29 -41 41 -41 16 0 10 38 -7 44 -22 9 -34 7 -34 -3z"/>
<path d="M213 1545 c-1 -30 -7 -64 -13 -75 -13 -25 -5 -39 12 -22 13 13 39
132 32 144 -3 4 -11 8 -17 8 -8 0 -13 -20 -14 -55z"/>
<path d="M117 1543 c-28 -45 -32 -83 -11 -90 8 -3 34 59 52 125 8 27 -15 9
-41 -35z"/>
<path d="M326 1295 c5 -21 3 -25 -15 -25 -12 0 -21 -4 -21 -10 0 -5 9 -10 20
-10 15 0 20 -6 19 -27 -2 -24 -2 -25 -6 -5 -5 27 -23 29 -23 2 0 -11 -7 -20
-15 -20 -8 0 -15 9 -15 19 0 11 -8 22 -17 24 -14 4 -12 5 5 6 27 1 30 21 2 21
-13 0 -20 7 -20 20 0 11 -4 20 -10 20 -5 0 -10 -11 -10 -25 0 -18 -5 -25 -20
-25 -11 0 -20 -4 -20 -10 0 -5 9 -10 20 -10 14 0 20 -6 19 -22 -1 -17 -2 -19
-6 -5 -5 18 -23 24 -23 8 0 -5 -3 -17 -7 -27 -5 -13 -3 -16 10 -11 11 4 17 1
17 -8 0 -8 7 -15 15 -15 9 0 15 9 15 23 0 16 3 18 9 8 6 -9 20 -12 40 -9 18 3
32 0 35 -8 5 -13 -15 -24 -45 -24 -10 0 -19 -4 -19 -10 0 -5 14 -10 30 -10 30
0 30 0 30 -59 0 -37 -5 -61 -12 -63 -16 -6 -2 -38 16 -38 17 0 28 53 26 129
-4 133 -1 153 20 158 11 3 20 9 20 14 0 5 -9 9 -20 9 -13 0 -20 7 -20 20 0 11
-7 20 -15 20 -11 0 -14 -7 -9 -25z"/>
<path d="M120 1282 c0 -18 28 -45 38 -38 17 10 15 33 -4 40 -22 8 -34 8 -34
-2z"/>
<path d="M362 1214 c3 -34 6 -39 31 -42 15 -2 27 1 27 7 0 6 -9 11 -20 11 -16
0 -20 6 -18 26 2 16 -3 29 -10 32 -10 3 -13 -6 -10 -34z"/>
<path d="M90 1201 c0 -12 29 -41 41 -41 16 0 10 38 -7 44 -22 9 -34 7 -34 -3z"/>
<path d="M213 1095 c-1 -30 -7 -64 -13 -75 -13 -25 -5 -39 12 -22 13 13 39
132 32 144 -3 4 -11 8 -17 8 -8 0 -13 -20 -14 -55z"/>
<path d="M117 1093 c-28 -45 -32 -83 -11 -90 8 -3 34 59 52 125 8 27 -15 9
-41 -35z"/>
<path d="M250 1101 c0 -11 39 -25 47 -18 3 3 2 10 -2 16 -8 13 -45 15 -45 2z"/>
<path d="M326 845 c5 -21 3 -25 -15 -25 -12 0 -21 -4 -21 -10 0 -5 9 -10 20
-10 15 0 20 -6 19 -27 -2 -24 -2 -25 -6 -5 -5 27 -23 29 -23 2 0 -11 -7 -20
-15 -20 -8 0 -15 9 -15 19 0 11 -8 22 -17 24 -14 4 -12 5 5 6 27 1 30 21 2 21
-13 0 -20 7 -20 20 0 11 -4 20 -10 20 -5 0 -10 -11 -10 -25 0 -18 -5 -25 -20
-25 -11 0 -20 -4 -20 -10 0 -5 9 -10 20 -10 14 0 20 -6 19 -22 -1 -17 -2 -19
-6 -5 -5 18 -23 24 -23 8 0 -5 -3 -17 -7 -27 -5 -13 -3 -16 10 -11 11 4 17 1
17 -8 0 -8 7 -15 15 -15 9 0 15 9 15 23 0 16 3 18 9 8 6 -9 20 -12 40 -9 18 3
32 0 35 -8 5 -13 -15 -24 -45 -24 -10 0 -19 -4 -19 -10 0 -5 14 -10 30 -10 25
0 30 -4 30 -24 0 -28 -3 -31 -48 -41 l-34 -7 4 43 c2 33 -1 44 -12 47 -12 2
-15 -10 -17 -52 -1 -30 -7 -65 -13 -76 -16 -30 -1 -40 17 -12 9 12 22 22 30
22 8 0 27 7 43 15 29 15 30 15 30 -9 0 -13 -5 -26 -12 -28 -16 -6 -2 -38 16
-38 17 0 28 53 26 129 -4 133 -1 153 20 158 11 3 20 9 20 14 0 5 -9 9 -20 9
-13 0 -20 7 -20 20 0 11 -7 20 -15 20 -11 0 -14 -7 -9 -25z"/>
<path d="M120 832 c0 -18 28 -45 38 -38 17 10 15 33 -4 40 -22 8 -34 8 -34 -2z"/>
<path d="M362 764 c3 -34 6 -39 31 -42 15 -2 27 1 27 7 0 6 -9 11 -20 11 -16
0 -20 6 -18 26 2 16 -3 29 -10 32 -10 3 -13 -6 -10 -34z"/>
<path d="M90 751 c0 -12 29 -41 41 -41 16 0 10 38 -7 44 -22 9 -34 7 -34 -3z"/>
<path d="M117 643 c-28 -45 -32 -83 -11 -90 8 -3 34 59 52 125 8 27 -15 9 -41
-35z"/>
<path d="M250 651 c0 -11 39 -25 47 -18 3 3 2 10 -2 16 -8 13 -45 15 -45 2z"/>
</g>
</svg>
