<?xml version="1.0" standalone="no"?>
<!DOCTYPE svg PUBLIC "-//W3C//DTD SVG 20010904//EN"
 "http://www.w3.org/TR/2001/REC-SVG-20010904/DTD/svg10.dtd">
<svg version="1.0" xmlns="http://www.w3.org/2000/svg"
 width="50.000000pt" height="725.000000pt" viewBox="0 0 50.000000 725.000000"
 preserveAspectRatio="xMidYMid meet">
<metadata>
Created by potrace 1.16, written by Peter Selinger 2001-2019
</metadata>
<g transform="translate(0.000000,725.000000) scale(0.100000,-0.100000)"
fill="#000000" stroke="none">
<path d="M120 7137 c0 -17 20 -37 37 -37 19 0 16 37 -3 44 -24 9 -34 7 -34 -7z"/>
<path d="M120 6687 c0 -17 20 -37 37 -37 19 0 16 37 -3 44 -24 9 -34 7 -34 -7z"/>
<path d="M92 6603 c4 -22 48 -31 48 -10 0 14 -20 27 -42 27 -5 0 -8 -8 -6 -17z"/>
<path d="M120 6237 c0 -17 20 -37 37 -37 19 0 16 37 -3 44 -24 9 -34 7 -34 -7z"/>
<path d="M92 6153 c4 -22 48 -31 48 -10 0 14 -20 27 -42 27 -5 0 -8 -8 -6 -17z"/>
<path d="M107 6044 c-21 -26 -27 -42 -23 -60 4 -13 10 -24 14 -24 6 0 25 41
48 103 10 28 -9 19 -39 -19z"/>
<path d="M120 5787 c0 -17 20 -37 37 -37 19 0 16 37 -3 44 -24 9 -34 7 -34 -7z"/>
<path d="M194 5784 c3 -9 6 -24 6 -35 0 -10 5 -19 10 -19 6 0 10 16 10 35 0
25 -4 35 -16 35 -11 0 -14 -5 -10 -16z"/>
<path d="M92 5703 c4 -22 48 -31 48 -10 0 14 -20 27 -42 27 -5 0 -8 -8 -6 -17z"/>
<path d="M107 5594 c-21 -26 -27 -42 -23 -60 4 -13 10 -24 14 -24 6 0 25 41
48 103 10 28 -9 19 -39 -19z"/>
<path d="M293 5363 c-57 -5 -55 -23 3 -23 45 0 46 0 39 -30 -4 -16 -3 -30 2
-30 11 0 53 55 53 69 0 10 -26 22 -43 19 -7 -1 -31 -3 -54 -5z"/>
<path d="M120 5337 c0 -17 20 -37 37 -37 19 0 16 37 -3 44 -24 9 -34 7 -34 -7z"/>
<path d="M197 5318 c3 -18 7 -35 9 -37 6 -7 11 2 17 37 6 27 4 32 -13 32 -17
0 -19 -5 -13 -32z"/>
<path d="M92 5253 c4 -22 48 -31 48 -10 0 14 -20 27 -42 27 -5 0 -8 -8 -6 -17z"/>
<path d="M107 5144 c-21 -26 -27 -42 -23 -60 4 -13 10 -24 14 -24 6 0 25 41
48 103 10 28 -9 19 -39 -19z"/>
<path d="M295 4913 c-48 -5 -59 -14 -50 -42 8 -27 25 -27 25 -1 0 16 7 20 36
20 34 0 35 -1 29 -30 -4 -16 -3 -30 2 -30 11 0 53 55 53 69 0 10 -26 22 -43
19 -7 -1 -30 -3 -52 -5z"/>
<path d="M120 4887 c0 -17 20 -37 37 -37 19 0 16 37 -3 44 -24 9 -34 7 -34 -7z"/>
<path d="M197 4868 c3 -18 7 -35 9 -37 6 -7 11 2 17 37 6 27 4 32 -13 32 -17
0 -19 -5 -13 -32z"/>
<path d="M92 4803 c4 -22 48 -31 48 -10 0 14 -20 27 -42 27 -5 0 -8 -8 -6 -17z"/>
<path d="M107 4694 c-21 -26 -27 -42 -23 -60 4 -13 10 -24 14 -24 6 0 25 41
48 103 10 28 -9 19 -39 -19z"/>
<path d="M295 4463 c-48 -5 -59 -14 -50 -42 8 -27 25 -27 25 -1 0 11 5 20 10
20 6 0 10 -7 10 -15 0 -8 4 -15 9 -15 5 0 11 7 15 15 11 29 28 16 21 -15 -4
-16 -3 -30 2 -30 11 0 53 55 53 69 0 10 -26 22 -43 19 -7 -1 -30 -3 -52 -5z"/>
<path d="M120 4437 c0 -17 20 -37 37 -37 19 0 16 37 -3 44 -24 9 -34 7 -34 -7z"/>
<path d="M197 4418 c6 -35 11 -44 17 -37 2 2 6 19 9 37 6 27 4 32 -13 32 -17
0 -19 -5 -13 -32z"/>
<path d="M92 4353 c4 -22 48 -31 48 -10 0 14 -20 27 -42 27 -5 0 -8 -8 -6 -17z"/>
<path d="M107 4244 c-21 -26 -27 -42 -23 -60 4 -13 10 -24 14 -24 6 0 25 41
48 103 10 28 -9 19 -39 -19z"/>
<path d="M290 4011 c-42 -6 -45 -8 -43 -33 1 -19 -3 -28 -14 -28 -11 0 -14 6
-9 25 5 21 3 25 -15 25 -15 0 -19 -4 -15 -16 3 -9 6 -24 6 -34 0 -17 7 -18 75
-16 67 3 78 7 95 29 11 14 20 30 20 35 0 11 -25 23 -43 20 -7 0 -32 -4 -57 -7z
m0 -36 c0 -8 -4 -15 -10 -15 -5 0 -10 7 -10 15 0 8 5 15 10 15 6 0 10 -7 10
-15z m50 0 c0 -8 -7 -15 -15 -15 -16 0 -20 12 -8 23 11 12 23 8 23 -8z"/>
<path d="M120 3987 c0 -17 20 -37 37 -37 19 0 16 37 -3 44 -24 9 -34 7 -34 -7z"/>
<path d="M92 3903 c4 -22 48 -31 48 -10 0 14 -20 27 -42 27 -5 0 -8 -8 -6 -17z"/>
<path d="M107 3794 c-21 -26 -27 -42 -23 -60 4 -13 10 -24 14 -24 6 0 25 41
48 103 10 28 -9 19 -39 -19z"/>
<path d="M290 3561 c-42 -6 -45 -8 -43 -33 1 -19 -3 -28 -14 -28 -11 0 -14 6
-9 25 5 21 3 25 -15 25 -15 0 -19 -4 -15 -16 3 -9 6 -24 6 -34 0 -17 7 -18 75
-16 67 3 78 7 95 29 11 14 20 30 20 35 0 11 -25 23 -43 20 -7 0 -32 -4 -57 -7z
m0 -36 c0 -8 -4 -15 -10 -15 -5 0 -10 7 -10 15 0 8 5 15 10 15 6 0 10 -7 10
-15z m50 0 c0 -8 -7 -15 -15 -15 -16 0 -20 12 -8 23 11 12 23 8 23 -8z"/>
<path d="M120 3537 c0 -17 20 -37 37 -37 19 0 16 37 -3 44 -24 9 -34 7 -34 -7z"/>
<path d="M92 3453 c4 -22 48 -31 48 -10 0 14 -20 27 -42 27 -5 0 -8 -8 -6 -17z"/>
<path d="M238 3463 c-10 -2 -18 -9 -18 -15 0 -6 10 -8 23 -4 12 3 37 6 55 6
17 0 32 5 32 10 0 10 -59 12 -92 3z"/>
<path d="M107 3344 c-21 -26 -27 -42 -23 -60 4 -13 10 -24 14 -24 6 0 25 41
48 103 10 28 -9 19 -39 -19z"/>
<path d="M290 3111 c-42 -6 -45 -8 -43 -33 1 -19 -3 -28 -14 -28 -11 0 -14 6
-9 25 5 21 3 25 -15 25 -15 0 -19 -4 -15 -16 3 -9 6 -24 6 -34 0 -14 9 -20 33
-23 29 -4 30 -5 10 -12 -28 -9 -31 -29 -3 -22 13 3 20 0 20 -9 0 -19 16 -18
24 1 3 8 15 15 26 15 11 0 20 5 20 10 0 6 -9 10 -20 10 -11 0 -20 5 -20 11 0
7 11 9 29 6 23 -5 32 -1 50 23 11 16 21 33 21 39 0 10 -26 22 -43 19 -7 0 -32
-4 -57 -7z m0 -36 c0 -8 -4 -15 -10 -15 -5 0 -10 7 -10 15 0 8 5 15 10 15 6 0
10 -7 10 -15z m50 0 c0 -8 -7 -15 -15 -15 -16 0 -20 12 -8 23 11 12 23 8 23
-8z"/>
<path d="M120 3087 c0 -17 20 -37 37 -37 19 0 16 37 -3 44 -24 9 -34 7 -34 -7z"/>
<path d="M92 3003 c4 -22 48 -31 48 -10 0 14 -20 27 -42 27 -5 0 -8 -8 -6 -17z"/>
<path d="M107 2894 c-21 -26 -27 -42 -23 -60 4 -13 10 -24 14 -24 6 0 25 41
48 103 10 28 -9 19 -39 -19z"/>
<path d="M290 2661 c-42 -6 -45 -8 -43 -33 1 -19 -3 -28 -14 -28 -11 0 -14 6
-9 25 5 21 3 25 -15 25 -15 0 -19 -4 -15 -16 3 -9 6 -24 6 -34 0 -14 9 -20 33
-23 29 -4 30 -5 10 -12 -28 -9 -31 -29 -3 -22 11 3 20 1 20 -4 0 -5 -20 -9
-45 -9 -34 0 -45 -4 -45 -16 0 -13 7 -15 43 -8 23 4 82 7 130 7 61 0 87 3 84
11 -2 7 -30 11 -70 11 -37 0 -67 3 -67 8 0 4 9 7 20 7 11 0 20 5 20 10 0 6 -9
10 -20 10 -11 0 -20 5 -20 11 0 7 11 9 29 6 23 -5 32 -1 50 23 11 16 21 33 21
39 0 10 -26 22 -43 19 -7 0 -32 -4 -57 -7z m0 -36 c0 -8 -4 -15 -10 -15 -5 0
-10 7 -10 15 0 8 5 15 10 15 6 0 10 -7 10 -15z m50 0 c0 -8 -7 -15 -15 -15
-16 0 -20 12 -8 23 11 12 23 8 23 -8z"/>
<path d="M120 2637 c0 -17 20 -37 37 -37 19 0 16 37 -3 44 -24 9 -34 7 -34 -7z"/>
<path d="M92 2553 c4 -22 48 -31 48 -10 0 14 -20 27 -42 27 -5 0 -8 -8 -6 -17z"/>
<path d="M107 2444 c-21 -26 -27 -42 -23 -60 4 -13 10 -24 14 -24 6 0 25 41
48 103 10 28 -9 19 -39 -19z"/>
<path d="M290 2211 c-42 -6 -45 -8 -43 -33 1 -19 -3 -28 -14 -28 -11 0 -14 6
-9 25 5 21 3 25 -15 25 -15 0 -19 -4 -15 -16 3 -9 6 -24 6 -34 0 -14 9 -20 33
-23 29 -4 30 -5 10 -12 -28 -9 -31 -29 -3 -22 11 3 20 1 20 -4 0 -5 -20 -9
-45 -9 -35 0 -45 -4 -45 -16 0 -12 7 -15 25 -12 18 4 26 0 30 -13 8 -25 25
-24 25 0 0 22 57 33 133 24 40 -5 49 -3 45 8 -3 10 -23 14 -71 14 -37 0 -67 3
-67 8 0 4 9 7 20 7 11 0 20 5 20 10 0 6 -9 10 -20 10 -11 0 -20 5 -20 11 0 7
11 9 29 6 23 -5 32 -1 50 23 11 16 21 33 21 39 0 10 -26 22 -43 19 -7 0 -32
-4 -57 -7z m0 -36 c0 -8 -4 -15 -10 -15 -5 0 -10 7 -10 15 0 8 5 15 10 15 6 0
10 -7 10 -15z m50 0 c0 -8 -7 -15 -15 -15 -16 0 -20 12 -8 23 11 12 23 8 23
-8z"/>
<path d="M120 2187 c0 -17 20 -37 37 -37 19 0 16 37 -3 44 -24 9 -34 7 -34 -7z"/>
<path d="M92 2103 c4 -22 48 -31 48 -10 0 14 -20 27 -42 27 -5 0 -8 -8 -6 -17z"/>
<path d="M107 1994 c-21 -26 -27 -42 -23 -60 4 -13 10 -24 14 -24 6 0 25 41
48 103 10 28 -9 19 -39 -19z"/>
<path d="M290 1761 c-42 -6 -45 -8 -43 -33 1 -19 -3 -28 -14 -28 -11 0 -14 6
-9 25 5 21 3 25 -15 25 -15 0 -19 -4 -15 -16 3 -9 6 -24 6 -34 0 -14 9 -20 33
-23 29 -4 30 -5 10 -12 -28 -9 -31 -29 -3 -22 11 3 20 1 20 -4 0 -5 -20 -9
-45 -9 -35 0 -45 -4 -45 -16 0 -12 7 -15 25 -12 18 4 26 0 30 -13 8 -25 25
-24 25 1 0 14 7 20 21 20 16 0 19 -4 14 -21 -9 -29 16 -21 30 9 9 20 15 21 64
15 44 -5 53 -3 49 8 -3 10 -23 14 -71 14 -37 0 -67 3 -67 8 0 4 9 7 20 7 11 0
20 5 20 10 0 6 -9 10 -20 10 -11 0 -20 5 -20 11 0 7 11 9 29 6 23 -5 32 -1 50
23 11 16 21 33 21 39 0 10 -26 22 -43 19 -7 0 -32 -4 -57 -7z m0 -36 c0 -8 -4
-15 -10 -15 -5 0 -10 7 -10 15 0 8 5 15 10 15 6 0 10 -7 10 -15z m50 0 c0 -8
-7 -15 -15 -15 -16 0 -20 12 -8 23 11 12 23 8 23 -8z"/>
<path d="M120 1737 c0 -17 20 -37 37 -37 19 0 16 37 -3 44 -24 9 -34 7 -34 -7z"/>
<path d="M92 1653 c4 -22 48 -31 48 -10 0 14 -20 27 -42 27 -5 0 -8 -8 -6 -17z"/>
<path d="M107 1544 c-21 -26 -27 -42 -23 -60 4 -13 10 -24 14 -24 6 0 25 41
48 103 10 28 -9 19 -39 -19z"/>
<path d="M290 1311 c-42 -6 -45 -8 -43 -33 1 -19 -3 -28 -14 -28 -11 0 -14 6
-9 25 5 21 3 25 -15 25 -15 0 -19 -4 -15 -16 3 -9 6 -24 6 -34 0 -14 9 -20 33
-23 29 -4 30 -5 10 -12 -28 -9 -31 -29 -3 -22 11 3 20 1 20 -4 0 -5 -20 -9
-45 -9 -35 0 -45 -4 -45 -16 0 -12 7 -15 25 -12 21 4 26 1 32 -19 5 -24 9 -25
55 -21 49 5 73 17 51 25 -7 3 -13 11 -13 19 0 11 11 13 56 8 46 -6 56 -4 52 7
-3 10 -23 14 -71 14 -37 0 -67 3 -67 8 0 4 9 7 20 7 11 0 20 5 20 10 0 6 -9
10 -20 10 -11 0 -20 5 -20 11 0 7 11 9 29 6 23 -5 32 -1 50 23 11 16 21 33 21
39 0 10 -26 22 -43 19 -7 0 -32 -4 -57 -7z m0 -36 c0 -8 -4 -15 -10 -15 -5 0
-10 7 -10 15 0 8 5 15 10 15 6 0 10 -7 10 -15z m50 0 c0 -8 -7 -15 -15 -15
-16 0 -20 12 -8 23 11 12 23 8 23 -8z m-52 -127 c-7 -19 -38 -22 -38 -4 0 10
9 16 21 16 12 0 19 -5 17 -12z"/>
<path d="M120 1287 c0 -17 20 -37 37 -37 19 0 16 37 -3 44 -24 9 -34 7 -34 -7z"/>
<path d="M92 1203 c4 -22 48 -31 48 -10 0 14 -20 27 -42 27 -5 0 -8 -8 -6 -17z"/>
<path d="M107 1094 c-21 -26 -27 -42 -23 -60 4 -13 10 -24 14 -24 6 0 25 41
48 103 10 28 -9 19 -39 -19z"/>
<path d="M290 861 c-42 -6 -45 -8 -43 -33 1 -19 -3 -28 -14 -28 -11 0 -14 6
-9 25 5 21 3 25 -15 25 -15 0 -19 -4 -15 -16 3 -9 6 -24 6 -34 0 -14 9 -20 33
-23 29 -4 30 -5 10 -12 -28 -9 -31 -29 -3 -22 11 3 20 1 20 -4 0 -5 -20 -9
-45 -9 -35 0 -45 -4 -45 -16 0 -12 7 -15 25 -12 21 4 26 1 32 -19 5 -24 9 -25
55 -21 49 5 73 17 51 25 -7 3 -13 11 -13 19 0 11 11 13 56 8 46 -6 56 -4 52 7
-3 10 -23 14 -71 14 -37 0 -67 3 -67 8 0 4 9 7 20 7 11 0 20 5 20 10 0 6 -9
10 -20 10 -11 0 -20 5 -20 11 0 7 11 9 29 6 23 -5 32 -1 50 23 11 16 21 33 21
39 0 10 -26 22 -43 19 -7 0 -32 -4 -57 -7z m0 -36 c0 -8 -4 -15 -10 -15 -5 0
-10 7 -10 15 0 8 5 15 10 15 6 0 10 -7 10 -15z m50 0 c0 -8 -7 -15 -15 -15
-16 0 -20 12 -8 23 11 12 23 8 23 -8z m-52 -127 c-7 -19 -38 -22 -38 -4 0 10
9 16 21 16 12 0 19 -5 17 -12z"/>
<path d="M120 837 c0 -17 20 -37 37 -37 19 0 16 37 -3 44 -24 9 -34 7 -34 -7z"/>
<path d="M92 753 c4 -22 48 -31 48 -10 0 14 -20 27 -42 27 -5 0 -8 -8 -6 -17z"/>
<path d="M107 644 c-21 -26 -27 -42 -23 -60 4 -13 10 -24 14 -24 6 0 25 41 48
103 10 28 -9 19 -39 -19z"/>
<path d="M263 637 c-130 -14 -119 -30 15 -21 59 3 109 9 112 11 5 4 -22 24
-30 21 -3 0 -47 -5 -97 -11z"/>
<path d="M290 411 c-42 -6 -45 -8 -43 -33 1 -19 -3 -28 -14 -28 -11 0 -14 6
-9 25 5 21 3 25 -15 25 -15 0 -19 -4 -15 -16 3 -9 6 -24 6 -34 0 -14 9 -20 33
-23 29 -4 30 -5 10 -12 -28 -9 -31 -29 -3 -22 11 3 20 1 20 -4 0 -5 -20 -9
-45 -9 -35 0 -45 -4 -45 -16 0 -12 7 -15 25 -12 20 4 26 1 31 -18 3 -13 13
-24 21 -24 8 0 13 -6 11 -12 -3 -7 -23 -14 -46 -16 -56 -4 -54 -22 3 -22 l45
0 0 -40 c0 -54 16 -51 24 5 l7 45 50 0 c27 0 49 5 49 10 0 12 -11 14 -62 11
-43 -3 -52 15 -13 25 24 6 35 24 15 24 -5 0 -10 7 -10 15 0 13 10 14 56 9 46
-6 56 -4 52 7 -3 10 -23 14 -71 14 -37 0 -67 3 -67 8 0 4 9 7 20 7 11 0 20 5
20 10 0 6 -9 10 -20 10 -11 0 -20 5 -20 11 0 7 11 9 29 6 23 -5 32 -1 50 23
11 16 21 33 21 39 0 10 -26 22 -43 19 -7 0 -32 -4 -57 -7z m0 -36 c0 -8 -4
-15 -10 -15 -5 0 -10 7 -10 15 0 8 5 15 10 15 6 0 10 -7 10 -15z m50 0 c0 -8
-7 -15 -15 -15 -16 0 -20 12 -8 23 11 12 23 8 23 -8z m-52 -127 c-7 -19 -38
-22 -38 -4 0 10 9 16 21 16 12 0 19 -5 17 -12z"/>
<path d="M120 387 c0 -17 20 -37 37 -37 19 0 16 37 -3 44 -24 9 -34 7 -34 -7z"/>
<path d="M92 303 c4 -22 48 -31 48 -10 0 14 -20 27 -42 27 -5 0 -8 -8 -6 -17z"/>
<path d="M107 194 c-21 -26 -27 -42 -23 -60 4 -13 10 -24 14 -24 6 0 25 41 48
103 10 28 -9 19 -39 -19z"/>
</g>
</svg>
