<?xml version="1.0" standalone="no"?>
<!DOCTYPE svg PUBLIC "-//W3C//DTD SVG 20010904//EN"
 "http://www.w3.org/TR/2001/REC-SVG-20010904/DTD/svg10.dtd">
<svg version="1.0" xmlns="http://www.w3.org/2000/svg"
 width="50.000000pt" height="725.000000pt" viewBox="0 0 50.000000 725.000000"
 preserveAspectRatio="xMidYMid meet">
<metadata>
Created by potrace 1.16, written by Peter Selinger 2001-2019
</metadata>
<g transform="translate(0.000000,725.000000) scale(0.100000,-0.100000)"
fill="#000000" stroke="none">
<path d="M120 7106 c0 -22 29 -41 42 -28 8 8 8 15 -2 27 -16 19 -40 20 -40 1z"/>
<path d="M120 6656 c0 -22 29 -41 42 -28 8 8 8 15 -2 27 -16 19 -40 20 -40 1z"/>
<path d="M80 6592 c0 -10 33 -42 44 -42 4 0 6 10 4 23 -2 14 -11 23 -25 25
-13 2 -23 -1 -23 -6z"/>
<path d="M120 6206 c0 -22 29 -41 42 -28 8 8 8 15 -2 27 -16 19 -40 20 -40 1z"/>
<path d="M80 6142 c0 -10 33 -42 44 -42 4 0 6 10 4 23 -2 14 -11 23 -25 25
-13 2 -23 -1 -23 -6z"/>
<path d="M103 6031 c-22 -26 -30 -45 -26 -60 3 -11 9 -21 13 -21 7 0 60 103
60 116 0 13 -19 -1 -47 -35z"/>
<path d="M264 5794 c3 -9 6 -18 6 -20 0 -2 7 -4 15 -4 8 0 15 9 15 20 0 14 -7
20 -21 20 -15 0 -19 -4 -15 -16z"/>
<path d="M120 5756 c0 -22 29 -41 42 -28 8 8 8 15 -2 27 -16 19 -40 20 -40 1z"/>
<path d="M80 5692 c0 -10 33 -42 44 -42 4 0 6 10 4 23 -2 14 -11 23 -25 25
-13 2 -23 -1 -23 -6z"/>
<path d="M103 5581 c-22 -26 -30 -45 -26 -60 3 -11 9 -21 13 -21 7 0 60 103
60 116 0 13 -19 -1 -47 -35z"/>
<path d="M265 5340 c5 -17 2 -20 -22 -20 -30 0 -61 -15 -52 -25 3 -3 30 -1 59
5 29 5 70 10 92 10 27 0 38 4 35 13 -2 7 -18 11 -41 9 -27 -2 -36 1 -36 13 0
9 -9 15 -21 15 -16 0 -19 -4 -14 -20z"/>
<path d="M120 5306 c0 -22 29 -41 42 -28 8 8 8 15 -2 27 -16 19 -40 20 -40 1z"/>
<path d="M80 5242 c0 -10 33 -42 44 -42 4 0 6 10 4 23 -2 14 -11 23 -25 25
-13 2 -23 -1 -23 -6z"/>
<path d="M103 5131 c-22 -26 -30 -45 -26 -60 3 -11 9 -21 13 -21 7 0 60 103
60 116 0 13 -19 -1 -47 -35z"/>
<path d="M265 4890 c5 -16 2 -20 -17 -20 -54 0 -67 -10 -61 -45 6 -37 -19
-134 -48 -184 -25 -43 -14 -55 16 -17 22 28 47 106 60 187 5 34 8 37 52 43 25
3 61 6 80 6 23 0 33 4 30 13 -2 7 -18 11 -41 9 -27 -2 -36 1 -36 13 0 9 -9 15
-21 15 -16 0 -19 -4 -14 -20z"/>
<path d="M120 4856 c0 -22 29 -41 42 -28 8 8 8 15 -2 27 -16 19 -40 20 -40 1z"/>
<path d="M80 4792 c0 -10 33 -42 44 -42 4 0 6 10 4 23 -2 14 -11 23 -25 25
-13 2 -23 -1 -23 -6z"/>
<path d="M103 4681 c-22 -26 -30 -45 -26 -60 3 -11 9 -21 13 -21 7 0 60 103
60 116 0 13 -19 -1 -47 -35z"/>
<path d="M265 4440 c5 -16 2 -20 -17 -20 -54 0 -67 -10 -61 -45 6 -37 -19
-134 -48 -184 -25 -43 -14 -55 16 -17 22 28 47 106 60 187 5 34 8 37 52 43 25
3 61 6 80 6 23 0 33 4 30 13 -2 7 -18 11 -41 9 -27 -2 -36 1 -36 13 0 9 -9 15
-21 15 -16 0 -19 -4 -14 -20z"/>
<path d="M120 4406 c0 -22 29 -41 42 -28 8 8 8 15 -2 27 -16 19 -40 20 -40 1z"/>
<path d="M242 4378 c6 -18 28 -21 28 -4 0 9 -7 16 -16 16 -9 0 -14 -5 -12 -12z"/>
<path d="M80 4342 c0 -10 33 -42 44 -42 4 0 6 10 4 23 -2 14 -11 23 -25 25
-13 2 -23 -1 -23 -6z"/>
<path d="M103 4231 c-22 -26 -30 -45 -26 -60 3 -11 9 -21 13 -21 7 0 60 103
60 116 0 13 -19 -1 -47 -35z"/>
<path d="M265 3990 c5 -16 2 -20 -17 -20 -54 0 -67 -10 -61 -45 6 -37 -19
-134 -48 -184 -25 -43 -14 -55 16 -17 23 28 47 105 60 189 5 31 10 37 30 37
13 0 31 3 40 7 14 5 16 2 10 -15 -8 -28 10 -29 27 -2 7 11 23 20 36 20 15 0
22 5 19 13 -2 7 -18 11 -41 9 -27 -2 -36 1 -36 13 0 9 -9 15 -21 15 -16 0 -19
-4 -14 -20z"/>
<path d="M120 3956 c0 -22 29 -41 42 -28 8 8 8 15 -2 27 -16 19 -40 20 -40 1z"/>
<path d="M242 3928 c6 -18 28 -21 28 -4 0 9 -7 16 -16 16 -9 0 -14 -5 -12 -12z"/>
<path d="M80 3892 c0 -10 33 -42 44 -42 4 0 6 10 4 23 -2 14 -11 23 -25 25
-13 2 -23 -1 -23 -6z"/>
<path d="M103 3781 c-22 -26 -30 -45 -26 -60 3 -11 9 -21 13 -21 7 0 60 103
60 116 0 13 -19 -1 -47 -35z"/>
<path d="M265 3540 c5 -16 2 -20 -17 -20 -54 0 -67 -10 -61 -45 6 -37 -19
-134 -48 -184 -11 -18 -17 -36 -14 -40 14 -13 55 57 72 121 16 63 19 68 45 68
23 0 28 4 28 25 0 16 -6 25 -16 25 -10 0 -14 -6 -10 -15 3 -10 -1 -15 -13 -15
-14 0 -18 5 -14 20 3 13 14 20 28 20 13 0 31 3 41 7 14 5 16 3 11 -10 -4 -9
-10 -24 -13 -32 -5 -12 4 -15 45 -15 28 0 51 4 51 9 0 13 -25 20 -50 14 -20
-5 -21 -4 -9 16 8 12 24 21 37 21 15 0 22 5 19 13 -2 7 -18 11 -41 9 -27 -2
-36 1 -36 13 0 9 -9 15 -21 15 -16 0 -19 -4 -14 -20z"/>
<path d="M120 3506 c0 -22 29 -41 42 -28 8 8 8 15 -2 27 -16 19 -40 20 -40 1z"/>
<path d="M80 3442 c0 -10 33 -42 44 -42 4 0 6 10 4 23 -2 14 -11 23 -25 25
-13 2 -23 -1 -23 -6z"/>
<path d="M103 3331 c-22 -26 -30 -45 -26 -60 3 -11 9 -21 13 -21 7 0 60 103
60 116 0 13 -19 -1 -47 -35z"/>
<path d="M265 3090 c5 -16 2 -20 -17 -20 -54 0 -67 -10 -61 -45 6 -37 -19
-134 -48 -184 -11 -18 -17 -36 -14 -40 12 -11 54 53 67 101 11 45 14 48 45 48
18 0 33 5 33 10 0 6 -13 10 -30 10 -16 0 -30 5 -30 10 0 6 14 10 30 10 25 0
30 4 30 25 0 16 -6 25 -16 25 -10 0 -14 -6 -10 -15 3 -10 -1 -15 -13 -15 -14
0 -18 5 -14 20 3 13 14 20 28 20 13 0 31 3 41 7 14 5 16 3 11 -10 -4 -9 -10
-24 -13 -32 -5 -12 4 -15 45 -15 28 0 51 4 51 9 0 13 -25 20 -50 14 -20 -5
-21 -4 -9 16 8 12 24 21 37 21 15 0 22 5 19 13 -2 7 -18 11 -41 9 -27 -2 -36
1 -36 13 0 9 -9 15 -21 15 -16 0 -19 -4 -14 -20z"/>
<path d="M120 3056 c0 -22 29 -41 42 -28 8 8 8 15 -2 27 -16 19 -40 20 -40 1z"/>
<path d="M80 2992 c0 -10 33 -42 44 -42 4 0 6 10 4 23 -2 14 -11 23 -25 25
-13 2 -23 -1 -23 -6z"/>
<path d="M308 2983 c-35 -5 -37 -23 -2 -23 23 0 25 -3 19 -30 -5 -23 -3 -30 9
-30 9 0 18 13 22 34 6 34 0 58 -14 55 -4 -1 -19 -4 -34 -6z"/>
<path d="M103 2881 c-22 -26 -30 -45 -26 -60 3 -11 9 -21 13 -21 7 0 60 103
60 116 0 13 -19 -1 -47 -35z"/>
<path d="M265 2640 c5 -16 2 -20 -17 -20 -54 0 -67 -10 -61 -45 6 -37 -19
-134 -48 -184 -11 -18 -17 -36 -14 -40 10 -9 54 50 60 81 6 25 12 28 66 34 32
4 59 11 59 17 0 6 -21 8 -55 4 -31 -3 -55 -2 -55 4 0 5 16 9 35 9 19 0 35 5
35 10 0 6 -13 10 -30 10 -16 0 -30 5 -30 10 0 6 14 10 30 10 25 0 30 4 30 25
0 16 -6 25 -16 25 -10 0 -14 -6 -10 -15 3 -10 -1 -15 -13 -15 -14 0 -18 5 -14
20 3 13 14 20 28 20 13 0 31 3 41 7 14 5 16 3 11 -10 -4 -9 -10 -24 -13 -32
-5 -12 4 -15 45 -15 28 0 51 4 51 9 0 13 -25 20 -50 14 -20 -5 -21 -4 -9 16 8
12 24 21 37 21 15 0 22 5 19 13 -2 7 -18 11 -41 9 -27 -2 -36 1 -36 13 0 9 -9
15 -21 15 -16 0 -19 -4 -14 -20z"/>
<path d="M120 2606 c0 -22 29 -41 42 -28 8 8 8 15 -2 27 -16 19 -40 20 -40 1z"/>
<path d="M80 2542 c0 -10 33 -42 44 -42 4 0 6 10 4 23 -2 14 -11 23 -25 25
-13 2 -23 -1 -23 -6z"/>
<path d="M308 2533 c-34 -5 -37 -23 -5 -23 20 0 23 -4 19 -30 -3 -23 0 -30 12
-30 9 0 16 7 16 15 0 10 11 15 35 15 19 0 35 5 35 10 0 6 -13 10 -29 10 -20 0
-30 6 -34 20 -3 11 -9 19 -14 19 -4 -1 -20 -4 -35 -6z"/>
<path d="M103 2431 c-22 -26 -30 -45 -26 -60 3 -11 9 -21 13 -21 7 0 60 103
60 116 0 13 -19 -1 -47 -35z"/>
<path d="M265 2190 c5 -16 2 -20 -17 -20 -54 0 -67 -10 -61 -45 6 -37 -19
-134 -48 -184 -11 -18 -17 -36 -14 -40 10 -9 54 50 60 81 6 25 12 28 66 34 32
4 59 11 59 17 0 6 -21 8 -55 4 -31 -3 -55 -2 -55 4 0 5 16 9 35 9 19 0 35 5
35 10 0 6 -13 10 -30 10 -16 0 -30 5 -30 10 0 6 14 10 30 10 25 0 30 4 30 25
0 16 -6 25 -16 25 -10 0 -14 -6 -10 -15 3 -10 -1 -15 -13 -15 -14 0 -18 5 -14
20 3 13 14 20 28 20 13 0 31 3 41 7 14 5 16 3 11 -10 -4 -9 -10 -24 -13 -32
-5 -12 4 -15 45 -15 28 0 51 4 51 9 0 13 -25 20 -50 14 -20 -5 -21 -4 -9 16 8
12 24 21 37 21 15 0 22 5 19 13 -2 7 -18 11 -41 9 -27 -2 -36 1 -36 13 0 9 -9
15 -21 15 -16 0 -19 -4 -14 -20z"/>
<path d="M120 2156 c0 -22 29 -41 42 -28 8 8 8 15 -2 27 -16 19 -40 20 -40 1z"/>
<path d="M80 2092 c0 -10 33 -42 44 -42 4 0 6 10 4 23 -2 14 -11 23 -25 25
-13 2 -23 -1 -23 -6z"/>
<path d="M308 2083 c-34 -5 -37 -23 -4 -23 19 0 22 -4 18 -25 -3 -16 -11 -25
-23 -25 -11 0 -19 -4 -19 -10 0 -5 18 -10 41 -10 36 0 40 2 34 20 -6 17 -2 20
29 20 20 0 36 5 36 10 0 6 -13 10 -29 10 -20 0 -30 6 -34 20 -3 11 -9 19 -14
19 -4 -1 -20 -4 -35 -6z"/>
<path d="M103 1981 c-22 -26 -30 -45 -26 -60 3 -11 9 -21 13 -21 7 0 60 103
60 116 0 13 -19 -1 -47 -35z"/>
<path d="M200 1990 c0 -5 16 -10 35 -10 19 0 35 5 35 10 0 6 -16 10 -35 10
-19 0 -35 -4 -35 -10z"/>
<path d="M265 1740 c5 -16 2 -20 -17 -20 -54 0 -67 -10 -61 -45 6 -37 -19
-134 -48 -184 -11 -18 -17 -36 -14 -40 10 -9 54 50 61 81 4 23 11 28 32 27 24
-2 24 -2 5 -6 -28 -5 -30 -23 -3 -23 17 0 20 -7 20 -50 0 -27 5 -50 10 -50 8
0 14 49 13 123 0 11 8 17 24 17 13 0 23 5 23 10 0 6 -9 10 -20 10 -17 0 -20 7
-20 50 0 39 -3 50 -16 50 -10 0 -14 -6 -10 -15 3 -10 -1 -15 -13 -15 -14 0
-18 5 -14 20 3 13 14 20 28 20 13 0 31 3 41 7 14 5 16 3 11 -10 -4 -9 -10 -24
-13 -32 -5 -12 4 -15 45 -15 28 0 51 4 51 9 0 13 -25 20 -50 14 -20 -5 -21 -4
-9 16 8 12 24 21 37 21 15 0 22 5 19 13 -2 7 -18 11 -41 9 -27 -2 -36 1 -36
13 0 9 -9 15 -21 15 -16 0 -19 -4 -14 -20z m-25 -110 c0 -5 -7 -10 -15 -10 -8
0 -15 5 -15 10 0 6 7 10 15 10 8 0 15 -4 15 -10z m-5 -40 c-3 -5 -13 -10 -21
-10 -8 0 -14 5 -14 10 0 6 9 10 21 10 11 0 17 -4 14 -10z"/>
<path d="M120 1706 c0 -22 29 -41 42 -28 8 8 8 15 -2 27 -16 19 -40 20 -40 1z"/>
<path d="M80 1642 c0 -10 33 -42 44 -42 4 0 6 10 4 23 -2 14 -11 23 -25 25
-13 2 -23 -1 -23 -6z"/>
<path d="M308 1633 c-34 -5 -37 -23 -4 -23 19 0 22 -4 18 -25 -3 -16 -11 -25
-23 -25 -11 0 -19 -4 -19 -10 0 -5 18 -10 41 -10 36 0 40 2 34 20 -6 17 -2 20
29 20 20 0 36 5 36 10 0 6 -13 10 -29 10 -20 0 -30 6 -34 20 -3 11 -9 19 -14
19 -4 -1 -20 -4 -35 -6z"/>
<path d="M103 1531 c-22 -26 -30 -45 -26 -60 3 -11 9 -21 13 -21 7 0 60 103
60 116 0 13 -19 -1 -47 -35z"/>
<path d="M265 1290 c5 -16 2 -20 -17 -20 -54 0 -67 -10 -61 -45 6 -37 -19
-134 -48 -184 -11 -18 -17 -36 -14 -40 10 -9 54 50 61 81 4 23 11 28 32 27 24
-2 24 -2 5 -6 -28 -5 -30 -23 -3 -23 17 0 20 -7 20 -50 0 -27 5 -50 10 -50 8
0 14 49 13 123 0 9 5 17 11 17 7 0 10 -24 8 -70 -3 -59 -1 -70 12 -70 13 0 16
12 16 55 0 52 1 55 26 55 21 0 24 4 19 20 -6 17 -2 20 29 20 20 0 36 5 36 10
0 6 -13 10 -29 10 -21 0 -30 6 -34 21 -4 16 -11 19 -26 14 -12 -4 -21 -2 -21
4 0 6 16 11 35 11 19 0 35 4 35 9 0 13 -25 20 -50 14 -20 -5 -21 -4 -9 16 8
12 24 21 37 21 15 0 22 5 19 13 -2 7 -18 11 -41 9 -27 -2 -36 1 -36 13 0 9 -9
15 -21 15 -16 0 -19 -4 -14 -20z m29 -47 c-4 -10 -8 -37 -8 -60 -1 -24 -4 -43
-8 -43 -5 0 -8 23 -8 50 0 39 -3 50 -16 50 -10 0 -14 -6 -10 -15 3 -10 -1 -15
-13 -15 -34 0 -13 38 23 43 17 2 35 5 40 5 4 1 5 -6 0 -15z m-54 -63 c0 -5 -7
-10 -15 -10 -8 0 -15 5 -15 10 0 6 7 10 15 10 8 0 15 -4 15 -10z m82 -45 c-2
-14 -6 -25 -8 -25 -2 0 -4 11 -4 25 0 14 4 25 9 25 4 0 6 -11 3 -25z m-87 5
c-3 -5 -13 -10 -21 -10 -8 0 -14 5 -14 10 0 6 9 10 21 10 11 0 17 -4 14 -10z"/>
<path d="M120 1256 c0 -7 7 -19 15 -26 22 -19 44 3 25 25 -16 19 -40 20 -40 1z"/>
<path d="M80 1192 c0 -10 33 -42 44 -42 4 0 6 10 4 23 -2 14 -11 23 -25 25
-13 2 -23 -1 -23 -6z"/>
<path d="M103 1081 c-22 -26 -30 -45 -26 -60 3 -11 9 -21 13 -21 7 0 60 103
60 116 0 13 -19 -1 -47 -35z"/>
<path d="M265 840 c5 -16 2 -20 -17 -20 -54 0 -67 -10 -61 -45 6 -37 -19 -134
-48 -184 -11 -18 -17 -36 -14 -40 10 -9 54 50 61 81 4 23 11 28 32 27 24 -2
24 -2 5 -6 -26 -5 -31 -23 -7 -23 13 0 12 -5 -6 -31 -26 -35 -19 -50 10 -24
20 18 20 17 20 -13 0 -18 5 -32 10 -32 8 0 14 49 13 123 0 9 5 17 11 17 7 0
10 -24 8 -70 -3 -59 -1 -70 12 -70 13 0 16 12 16 55 0 52 1 55 26 55 21 0 24
4 19 20 -6 17 -2 20 29 20 20 0 36 5 36 10 0 6 -13 10 -29 10 -21 0 -30 6 -34
21 -4 16 -11 19 -26 14 -12 -4 -21 -2 -21 4 0 6 16 11 35 11 19 0 35 4 35 9 0
13 -25 20 -50 14 -20 -5 -21 -4 -9 16 8 12 24 21 37 21 15 0 22 5 19 13 -2 7
-18 11 -41 9 -27 -2 -36 1 -36 13 0 9 -9 15 -21 15 -16 0 -19 -4 -14 -20z m29
-47 c-4 -10 -8 -37 -8 -60 -1 -24 -4 -43 -8 -43 -5 0 -8 23 -8 50 0 39 -3 50
-16 50 -10 0 -14 -6 -10 -15 3 -10 -1 -15 -13 -15 -34 0 -13 38 23 43 17 2 35
5 40 5 4 1 5 -6 0 -15z m-54 -63 c0 -5 -7 -10 -15 -10 -8 0 -15 5 -15 10 0 6
7 10 15 10 8 0 15 -4 15 -10z m82 -45 c-2 -14 -6 -25 -8 -25 -2 0 -4 11 -4 25
0 14 4 25 9 25 4 0 6 -11 3 -25z m-87 5 c-3 -5 -13 -10 -21 -10 -8 0 -14 5
-14 10 0 6 9 10 21 10 11 0 17 -4 14 -10z"/>
<path d="M120 806 c0 -7 7 -19 15 -26 22 -19 44 3 25 25 -16 19 -40 20 -40 1z"/>
<path d="M80 742 c0 -10 33 -42 44 -42 4 0 6 10 4 23 -2 14 -11 23 -25 25 -13
2 -23 -1 -23 -6z"/>
<path d="M103 631 c-22 -26 -30 -45 -26 -60 3 -11 9 -21 13 -21 7 0 60 103 60
116 0 13 -19 -1 -47 -35z"/>
<path d="M265 390 c5 -16 2 -20 -17 -20 -54 0 -67 -10 -61 -45 6 -37 -19 -134
-48 -184 -11 -18 -17 -36 -14 -40 10 -9 54 50 61 81 4 23 11 28 32 27 24 -2
24 -2 5 -6 -26 -5 -31 -23 -7 -23 13 0 12 -5 -6 -31 -26 -35 -19 -50 10 -24
20 18 20 17 20 -13 0 -18 5 -32 10 -32 8 0 14 49 13 123 0 9 5 17 11 17 7 0
10 -24 8 -70 -3 -59 -1 -70 12 -70 12 0 16 10 16 37 l0 37 30 -33 c23 -25 36
-32 53 -27 12 3 25 6 30 6 19 0 3 17 -26 28 -19 7 -44 23 -57 37 l-23 25 22 0
c18 0 21 4 16 20 -6 17 -2 20 29 20 20 0 36 5 36 10 0 6 -13 10 -29 10 -21 0
-30 6 -34 21 -4 16 -11 19 -26 14 -12 -4 -21 -2 -21 4 0 6 16 11 35 11 19 0
35 4 35 9 0 13 -25 20 -50 14 -20 -5 -21 -4 -9 16 8 12 24 21 37 21 15 0 22 5
19 13 -2 7 -18 11 -41 9 -27 -2 -36 1 -36 13 0 9 -9 15 -21 15 -16 0 -19 -4
-14 -20z m29 -47 c-4 -10 -8 -37 -8 -60 -1 -24 -4 -43 -8 -43 -5 0 -8 23 -8
50 0 39 -3 50 -16 50 -10 0 -14 -6 -10 -15 3 -10 -1 -15 -13 -15 -34 0 -13 38
23 43 17 2 35 5 40 5 4 1 5 -6 0 -15z m-54 -63 c0 -5 -7 -10 -15 -10 -8 0 -15
5 -15 10 0 6 7 10 15 10 8 0 15 -4 15 -10z m82 -45 c-2 -14 -6 -25 -8 -25 -2
0 -4 11 -4 25 0 14 4 25 9 25 4 0 6 -11 3 -25z m-87 5 c-3 -5 -13 -10 -21 -10
-8 0 -14 5 -14 10 0 6 9 10 21 10 11 0 17 -4 14 -10z"/>
<path d="M120 356 c0 -7 7 -19 15 -26 22 -19 44 3 25 25 -16 19 -40 20 -40 1z"/>
<path d="M80 292 c0 -10 33 -42 44 -42 4 0 6 10 4 23 -2 14 -11 23 -25 25 -13
2 -23 -1 -23 -6z"/>
<path d="M103 181 c-22 -26 -30 -45 -26 -60 3 -11 9 -21 13 -21 7 0 60 103 60
116 0 13 -19 -1 -47 -35z"/>
</g>
</svg>
