<?xml version="1.0" standalone="no"?>
<!DOCTYPE svg PUBLIC "-//W3C//DTD SVG 20010904//EN"
 "http://www.w3.org/TR/2001/REC-SVG-20010904/DTD/svg10.dtd">
<svg version="1.0" xmlns="http://www.w3.org/2000/svg"
 width="50.000000pt" height="725.000000pt" viewBox="0 0 50.000000 725.000000"
 preserveAspectRatio="xMidYMid meet">
<metadata>
Created by potrace 1.16, written by Peter Selinger 2001-2019
</metadata>
<g transform="translate(0.000000,725.000000) scale(0.100000,-0.100000)"
fill="#000000" stroke="none">
<path d="M120 7125 c0 -3 5 -15 10 -26 14 -25 40 -25 40 1 0 11 -4 20 -9 20
-5 0 -16 3 -25 6 -9 3 -16 3 -16 -1z"/>
<path d="M120 6675 c0 -3 5 -15 10 -26 14 -25 40 -25 40 1 0 11 -4 20 -9 20
-5 0 -16 3 -25 6 -9 3 -16 3 -16 -1z"/>
<path d="M90 6583 c0 -15 23 -33 43 -33 30 0 16 34 -16 38 -15 2 -27 -1 -27
-5z"/>
<path d="M120 6225 c0 -3 5 -15 10 -26 14 -25 40 -25 40 1 0 11 -4 20 -9 20
-5 0 -16 3 -25 6 -9 3 -16 3 -16 -1z"/>
<path d="M90 6133 c0 -15 23 -33 43 -33 30 0 16 34 -16 38 -15 2 -27 -1 -27
-5z"/>
<path d="M112 6024 c-22 -30 -31 -52 -27 -65 10 -30 22 -23 44 25 43 98 37
113 -17 40z"/>
<path d="M120 5775 c0 -3 5 -15 10 -26 14 -25 40 -25 40 1 0 11 -4 20 -9 20
-5 0 -16 3 -25 6 -9 3 -16 3 -16 -1z"/>
<path d="M203 5740 c4 -18 7 -39 7 -46 0 -8 5 -14 11 -14 16 0 7 83 -10 88
-11 4 -13 -3 -8 -28z"/>
<path d="M90 5683 c0 -15 23 -33 43 -33 30 0 16 34 -16 38 -15 2 -27 -1 -27
-5z"/>
<path d="M112 5574 c-22 -30 -31 -52 -27 -65 10 -30 22 -23 44 25 43 98 37
113 -17 40z"/>
<path d="M313 5333 c-42 -5 -43 -23 -2 -23 21 0 30 -4 26 -12 -17 -46 -18 -58
-4 -58 8 0 22 18 32 41 16 35 17 42 4 50 -8 5 -16 8 -19 7 -3 -1 -20 -3 -37
-5z"/>
<path d="M120 5325 c0 -3 5 -15 10 -26 14 -25 40 -25 40 1 0 11 -4 20 -9 20
-5 0 -16 3 -25 6 -9 3 -16 3 -16 -1z"/>
<path d="M204 5289 c3 -17 6 -38 6 -45 0 -8 5 -14 10 -14 6 0 10 16 10 35 0
24 5 35 15 35 8 0 15 5 15 10 0 6 -14 10 -31 10 -30 0 -31 -2 -25 -31z"/>
<path d="M90 5233 c0 -15 23 -33 43 -33 30 0 16 34 -16 38 -15 2 -27 -1 -27
-5z"/>
<path d="M112 5124 c-22 -30 -31 -52 -27 -65 10 -30 22 -23 44 25 43 98 37
113 -17 40z"/>
<path d="M313 4883 c-41 -5 -43 -23 -3 -23 17 0 30 -4 30 -8 0 -5 -8 -9 -17
-9 -55 1 -83 -4 -83 -14 0 -7 17 -10 45 -7 39 3 44 1 39 -14 -11 -37 23 -17
41 23 16 35 17 42 4 50 -8 5 -16 8 -19 7 -3 -1 -20 -3 -37 -5z"/>
<path d="M120 4875 c0 -3 5 -15 10 -26 14 -25 40 -25 40 1 0 11 -4 20 -9 20
-5 0 -16 3 -25 6 -9 3 -16 3 -16 -1z"/>
<path d="M204 4839 c3 -17 6 -38 6 -45 0 -8 5 -14 10 -14 6 0 10 16 10 35 0
24 5 35 15 35 8 0 15 5 15 10 0 6 -14 10 -31 10 -30 0 -31 -2 -25 -31z"/>
<path d="M90 4783 c0 -15 23 -33 43 -33 30 0 16 34 -16 38 -15 2 -27 -1 -27
-5z"/>
<path d="M112 4674 c-22 -30 -31 -52 -27 -65 10 -30 22 -23 44 25 43 98 37
113 -17 40z"/>
<path d="M240 4440 c0 -14 -7 -20 -21 -20 -19 0 -21 -4 -15 -31 3 -17 6 -38 6
-45 0 -8 5 -14 10 -14 6 0 10 17 11 38 l1 37 9 -32 c10 -33 29 -45 29 -19 0 8
13 16 30 18 26 4 29 2 24 -14 -11 -37 23 -18 41 23 16 35 17 42 4 50 -8 5 -20
7 -27 4 -8 -3 -25 -5 -38 -5 -13 0 -24 -4 -24 -10 0 -5 14 -10 30 -10 42 0 38
-15 -5 -17 -34 -2 -35 0 -35 33 0 24 -5 34 -15 34 -8 0 -15 -9 -15 -20z"/>
<path d="M120 4425 c0 -3 5 -15 10 -26 14 -25 40 -25 40 1 0 11 -4 20 -9 20
-5 0 -16 3 -25 6 -9 3 -16 3 -16 -1z"/>
<path d="M90 4333 c0 -15 23 -33 43 -33 30 0 16 34 -16 38 -15 2 -27 -1 -27
-5z"/>
<path d="M112 4224 c-22 -30 -31 -52 -27 -65 10 -30 22 -23 44 25 43 98 37
113 -17 40z"/>
<path d="M288 3998 c0 -13 -1 -31 0 -40 1 -10 -3 -18 -8 -18 -6 0 -10 16 -10
35 0 24 -5 35 -15 35 -8 0 -15 -9 -15 -20 0 -14 -7 -20 -21 -20 -19 0 -21 -4
-15 -31 3 -17 6 -38 6 -45 0 -8 5 -14 10 -14 6 0 10 17 11 38 l1 37 9 -32 c10
-34 29 -45 29 -18 0 18 16 20 23 3 3 -9 10 -7 21 7 17 20 17 20 11 -2 -11 -40
21 -26 40 18 16 35 17 42 4 50 -8 4 -22 6 -31 3 -12 -4 -15 0 -11 16 4 15 1
20 -16 20 -15 0 -21 -7 -23 -22z m52 -48 c0 -5 -2 -10 -4 -10 -3 0 -8 5 -11
10 -3 6 -1 10 4 10 6 0 11 -4 11 -10z"/>
<path d="M120 3975 c0 -3 5 -15 10 -26 14 -25 40 -25 40 1 0 11 -4 20 -9 20
-5 0 -16 3 -25 6 -9 3 -16 3 -16 -1z"/>
<path d="M90 3883 c0 -15 23 -33 43 -33 30 0 16 34 -16 38 -15 2 -27 -1 -27
-5z"/>
<path d="M112 3774 c-22 -30 -31 -52 -27 -65 10 -30 22 -23 44 25 43 98 37
113 -17 40z"/>
<path d="M288 3548 c0 -13 -1 -31 0 -40 1 -10 -3 -18 -8 -18 -6 0 -10 16 -10
35 0 24 -5 35 -15 35 -8 0 -15 -9 -15 -20 0 -14 -7 -20 -21 -20 -19 0 -21 -4
-15 -31 3 -17 6 -38 6 -45 0 -23 51 -17 57 6 3 11 9 20 14 20 5 0 6 -7 3 -15
-5 -12 2 -15 28 -15 31 0 37 4 53 41 16 35 17 42 4 50 -8 4 -22 6 -31 3 -12
-4 -15 0 -11 16 4 15 1 20 -16 20 -15 0 -21 -7 -23 -22z m52 -48 c0 -5 -2 -10
-4 -10 -3 0 -8 5 -11 10 -3 6 -1 10 4 10 6 0 11 -4 11 -10z m-103 -37 c-3 -10
-5 -4 -5 12 0 17 2 24 5 18 2 -7 2 -21 0 -30z m93 7 c0 -5 -5 -10 -11 -10 -5
0 -7 5 -4 10 3 6 8 10 11 10 2 0 4 -4 4 -10z"/>
<path d="M120 3525 c0 -3 5 -15 10 -26 14 -25 40 -25 40 1 0 11 -4 20 -9 20
-5 0 -16 3 -25 6 -9 3 -16 3 -16 -1z"/>
<path d="M90 3433 c0 -15 23 -33 43 -33 30 0 16 34 -16 38 -15 2 -27 -1 -27
-5z"/>
<path d="M112 3324 c-22 -30 -31 -52 -27 -65 10 -30 22 -23 44 25 43 98 37
113 -17 40z"/>
<path d="M288 3098 c0 -13 -1 -31 0 -40 1 -10 -3 -18 -8 -18 -6 0 -10 16 -10
35 0 24 -5 35 -15 35 -8 0 -15 -9 -15 -20 0 -14 -7 -20 -21 -20 -19 0 -21 -4
-15 -31 3 -17 6 -38 6 -45 0 -23 51 -17 57 6 3 11 9 20 14 20 5 0 6 -7 3 -15
-5 -12 2 -15 28 -15 31 0 37 4 53 41 16 35 17 42 4 50 -8 4 -22 6 -31 3 -12
-4 -15 0 -11 16 4 15 1 20 -16 20 -15 0 -21 -7 -23 -22z m52 -48 c0 -5 -2 -10
-4 -10 -3 0 -8 5 -11 10 -3 6 -1 10 4 10 6 0 11 -4 11 -10z m-103 -37 c-3 -10
-5 -4 -5 12 0 17 2 24 5 18 2 -7 2 -21 0 -30z m93 7 c0 -5 -5 -10 -11 -10 -5
0 -7 5 -4 10 3 6 8 10 11 10 2 0 4 -4 4 -10z"/>
<path d="M120 3075 c0 -3 5 -15 10 -26 14 -25 40 -25 40 1 0 11 -4 20 -9 20
-5 0 -16 3 -25 6 -9 3 -16 3 -16 -1z"/>
<path d="M90 2983 c0 -15 23 -33 43 -33 30 0 16 34 -16 38 -15 2 -27 -1 -27
-5z"/>
<path d="M290 2973 c-52 -8 -70 -14 -70 -23 0 -8 22 -7 108 6 17 3 32 9 32 14
0 10 -22 11 -70 3z"/>
<path d="M112 2874 c-22 -30 -31 -52 -27 -65 10 -30 22 -23 44 25 43 98 37
113 -17 40z"/>
<path d="M288 2648 c0 -13 -1 -31 0 -40 1 -10 -3 -18 -8 -18 -6 0 -10 16 -10
35 0 24 -5 35 -15 35 -8 0 -15 -9 -15 -20 0 -14 -7 -20 -21 -20 -19 0 -21 -4
-15 -31 3 -17 6 -38 6 -45 0 -23 51 -17 57 6 3 11 9 20 14 20 5 0 6 -7 3 -15
-5 -12 2 -15 28 -15 31 0 37 4 53 41 16 35 17 42 4 50 -8 4 -22 6 -31 3 -12
-4 -15 0 -11 16 4 15 1 20 -16 20 -15 0 -21 -7 -23 -22z m52 -48 c0 -5 -2 -10
-4 -10 -3 0 -8 5 -11 10 -3 6 -1 10 4 10 6 0 11 -4 11 -10z m-103 -37 c-3 -10
-5 -4 -5 12 0 17 2 24 5 18 2 -7 2 -21 0 -30z m93 7 c0 -5 -5 -10 -11 -10 -5
0 -7 5 -4 10 3 6 8 10 11 10 2 0 4 -4 4 -10z"/>
<path d="M120 2625 c0 -3 5 -15 10 -26 14 -25 40 -25 40 1 0 11 -4 20 -9 20
-5 0 -16 3 -25 6 -9 3 -16 3 -16 -1z"/>
<path d="M90 2533 c0 -15 23 -33 43 -33 30 0 16 34 -16 38 -15 2 -27 -1 -27
-5z"/>
<path d="M300 2525 c-8 -2 -31 -6 -51 -10 -34 -5 -37 -8 -43 -48 -4 -23 -16
-58 -27 -76 -11 -18 -17 -36 -14 -40 12 -11 44 39 62 95 16 52 18 54 52 54 45
0 81 10 81 21 0 9 -28 10 -60 4z"/>
<path d="M112 2424 c-22 -30 -31 -52 -27 -65 10 -30 22 -23 44 25 43 98 37
113 -17 40z"/>
<path d="M288 2198 c0 -13 -1 -31 0 -40 1 -10 -3 -18 -8 -18 -6 0 -10 16 -10
35 0 24 -5 35 -15 35 -8 0 -15 -9 -15 -20 0 -14 -7 -20 -21 -20 -19 0 -21 -4
-15 -31 3 -17 6 -38 6 -45 0 -23 51 -17 57 6 3 11 9 20 14 20 5 0 6 -7 3 -15
-5 -12 2 -15 28 -15 31 0 37 4 53 41 16 35 17 42 4 50 -8 4 -22 6 -31 3 -12
-4 -15 0 -11 16 4 15 1 20 -16 20 -15 0 -21 -7 -23 -22z m52 -48 c0 -5 -2 -10
-4 -10 -3 0 -8 5 -11 10 -3 6 -1 10 4 10 6 0 11 -4 11 -10z m-103 -37 c-3 -10
-5 -4 -5 12 0 17 2 24 5 18 2 -7 2 -21 0 -30z m93 7 c0 -5 -5 -10 -11 -10 -5
0 -7 5 -4 10 3 6 8 10 11 10 2 0 4 -4 4 -10z"/>
<path d="M120 2175 c0 -3 5 -15 10 -26 14 -25 40 -25 40 1 0 11 -4 20 -9 20
-5 0 -16 3 -25 6 -9 3 -16 3 -16 -1z"/>
<path d="M90 2083 c0 -15 23 -33 43 -33 30 0 16 34 -16 38 -15 2 -27 -1 -27
-5z"/>
<path d="M300 2075 c-8 -2 -31 -6 -51 -10 -34 -5 -37 -8 -43 -48 -4 -23 -16
-58 -27 -76 -11 -18 -18 -36 -15 -39 11 -10 35 20 52 64 13 34 22 44 39 44 39
0 85 12 85 22 0 6 -20 7 -50 3 -34 -5 -50 -3 -50 4 0 6 17 11 38 11 46 0 82 9
82 21 0 9 -28 10 -60 4z"/>
<path d="M112 1974 c-22 -30 -31 -52 -27 -65 10 -30 22 -23 44 25 43 98 37
113 -17 40z"/>
<path d="M288 1748 c0 -13 -1 -31 0 -40 1 -10 -3 -18 -8 -18 -6 0 -10 16 -10
35 0 24 -5 35 -15 35 -8 0 -15 -9 -15 -20 0 -14 -7 -20 -21 -20 -19 0 -21 -4
-15 -31 3 -17 6 -38 6 -45 0 -23 51 -17 57 6 3 11 9 20 14 20 5 0 6 -7 3 -15
-5 -12 2 -15 28 -15 31 0 37 4 53 41 16 35 17 42 4 50 -8 4 -22 6 -31 3 -12
-4 -15 0 -11 16 4 15 1 20 -16 20 -15 0 -21 -7 -23 -22z m52 -48 c0 -5 -2 -10
-4 -10 -3 0 -8 5 -11 10 -3 6 -1 10 4 10 6 0 11 -4 11 -10z m-103 -37 c-3 -10
-5 -4 -5 12 0 17 2 24 5 18 2 -7 2 -21 0 -30z m93 7 c0 -5 -5 -10 -11 -10 -5
0 -7 5 -4 10 3 6 8 10 11 10 2 0 4 -4 4 -10z"/>
<path d="M120 1725 c0 -3 5 -15 10 -26 14 -25 40 -25 40 1 0 11 -4 20 -9 20
-5 0 -16 3 -25 6 -9 3 -16 3 -16 -1z"/>
<path d="M90 1633 c0 -15 23 -33 43 -33 30 0 16 34 -16 38 -15 2 -27 -1 -27
-5z"/>
<path d="M300 1625 c-8 -2 -31 -6 -51 -10 -34 -5 -37 -8 -43 -48 -4 -23 -16
-58 -27 -76 -11 -18 -18 -36 -15 -39 9 -8 33 17 46 48 12 29 14 30 81 30 55 0
69 3 69 15 0 13 -11 15 -67 10 -75 -6 -75 0 0 10 26 3 47 11 47 17 0 6 -18 7
-50 3 -34 -5 -50 -3 -50 4 0 6 17 11 38 11 46 0 82 9 82 21 0 9 -28 10 -60 4z"/>
<path d="M112 1524 c-22 -30 -31 -52 -27 -65 10 -30 22 -23 44 25 43 98 37
113 -17 40z"/>
<path d="M288 1298 c0 -13 -1 -31 0 -40 1 -10 -3 -18 -8 -18 -6 0 -10 16 -10
35 0 24 -5 35 -15 35 -8 0 -15 -9 -15 -20 0 -14 -7 -20 -21 -20 -19 0 -21 -4
-15 -31 3 -17 6 -38 6 -45 0 -23 51 -17 57 6 3 11 9 20 14 20 5 0 6 -7 3 -15
-5 -12 2 -15 28 -15 31 0 37 4 53 41 16 35 17 42 4 50 -8 4 -22 6 -31 3 -12
-4 -15 0 -11 16 4 15 1 20 -16 20 -15 0 -21 -7 -23 -22z m52 -48 c0 -5 -2 -10
-4 -10 -3 0 -8 5 -11 10 -3 6 -1 10 4 10 6 0 11 -4 11 -10z m-103 -37 c-3 -10
-5 -4 -5 12 0 17 2 24 5 18 2 -7 2 -21 0 -30z m93 7 c0 -5 -5 -10 -11 -10 -5
0 -7 5 -4 10 3 6 8 10 11 10 2 0 4 -4 4 -10z"/>
<path d="M120 1275 c0 -3 5 -15 10 -26 14 -25 40 -25 40 1 0 11 -4 20 -9 20
-5 0 -16 3 -25 6 -9 3 -16 3 -16 -1z"/>
<path d="M90 1183 c0 -15 23 -33 43 -33 30 0 16 34 -16 38 -15 2 -27 -1 -27
-5z"/>
<path d="M300 1175 c-8 -2 -31 -6 -51 -10 -34 -5 -37 -8 -43 -48 -4 -23 -16
-58 -27 -76 -11 -18 -17 -36 -14 -40 6 -6 23 11 53 55 11 16 12 11 8 -33 -6
-59 3 -66 42 -34 27 24 28 35 2 28 -15 -4 -20 0 -20 13 0 41 11 50 61 50 37 0
49 4 49 15 0 13 -11 15 -67 10 -75 -6 -75 0 0 10 26 3 47 11 47 17 0 6 -18 7
-50 3 -34 -5 -50 -3 -50 4 0 6 17 11 38 11 46 0 82 9 82 21 0 9 -28 10 -60 4z"/>
<path d="M112 1074 c-22 -30 -31 -52 -27 -65 10 -30 22 -23 44 25 43 98 37
113 -17 40z"/>
<path d="M288 848 c0 -13 -1 -31 0 -40 1 -10 -3 -18 -8 -18 -6 0 -10 16 -10
35 0 24 -5 35 -15 35 -8 0 -15 -9 -15 -20 0 -14 -7 -20 -21 -20 -19 0 -21 -4
-15 -31 3 -17 6 -38 6 -45 0 -23 51 -17 57 6 3 11 9 20 14 20 5 0 6 -7 3 -15
-5 -12 2 -15 28 -15 31 0 37 4 53 41 16 35 17 42 4 50 -8 4 -22 6 -31 3 -12
-4 -15 0 -11 16 4 15 1 20 -16 20 -15 0 -21 -7 -23 -22z m52 -48 c0 -5 -2 -10
-4 -10 -3 0 -8 5 -11 10 -3 6 -1 10 4 10 6 0 11 -4 11 -10z m-103 -37 c-3 -10
-5 -4 -5 12 0 17 2 24 5 18 2 -7 2 -21 0 -30z m93 7 c0 -5 -5 -10 -11 -10 -5
0 -7 5 -4 10 3 6 8 10 11 10 2 0 4 -4 4 -10z"/>
<path d="M120 825 c0 -3 5 -15 10 -26 14 -25 40 -25 40 1 0 11 -4 20 -9 20 -5
0 -16 3 -25 6 -9 3 -16 3 -16 -1z"/>
<path d="M90 733 c0 -15 23 -33 43 -33 30 0 16 34 -16 38 -15 2 -27 -1 -27 -5z"/>
<path d="M300 725 c-8 -2 -31 -6 -51 -10 -34 -5 -37 -8 -43 -48 -4 -23 -16
-58 -27 -76 -11 -18 -17 -36 -14 -40 6 -6 23 11 53 55 11 16 12 11 8 -33 -6
-59 3 -66 42 -34 27 24 28 35 2 28 -15 -4 -20 0 -20 13 0 39 11 50 51 50 30 0
37 -3 33 -15 -4 -9 0 -15 9 -15 21 0 27 12 20 38 -5 21 -10 22 -72 17 -73 -6
-72 0 2 10 26 3 47 11 47 17 0 6 -18 7 -50 3 -34 -5 -50 -3 -50 4 0 6 17 11
38 11 46 0 82 9 82 21 0 9 -28 10 -60 4z"/>
<path d="M112 624 c-22 -30 -31 -52 -27 -65 10 -30 22 -23 44 25 43 98 37 113
-17 40z"/>
<path d="M288 398 c0 -13 -1 -31 0 -40 1 -10 -3 -18 -8 -18 -6 0 -10 16 -10
35 0 24 -5 35 -15 35 -8 0 -15 -9 -15 -20 0 -14 -7 -20 -21 -20 -19 0 -21 -4
-15 -31 3 -17 6 -38 6 -45 0 -23 51 -17 57 6 3 11 9 20 14 20 5 0 6 -7 3 -15
-5 -12 2 -15 28 -15 31 0 37 4 53 41 16 35 17 42 4 50 -8 4 -22 6 -31 3 -12
-4 -15 0 -11 16 4 15 1 20 -16 20 -15 0 -21 -7 -23 -22z m52 -48 c0 -5 -2 -10
-4 -10 -3 0 -8 5 -11 10 -3 6 -1 10 4 10 6 0 11 -4 11 -10z m-103 -37 c-3 -10
-5 -4 -5 12 0 17 2 24 5 18 2 -7 2 -21 0 -30z m93 7 c0 -5 -5 -10 -11 -10 -5
0 -7 5 -4 10 3 6 8 10 11 10 2 0 4 -4 4 -10z"/>
<path d="M120 375 c0 -3 5 -15 10 -26 14 -25 40 -25 40 1 0 11 -4 20 -9 20 -5
0 -16 3 -25 6 -9 3 -16 3 -16 -1z"/>
<path d="M90 283 c0 -15 23 -33 43 -33 30 0 16 34 -16 38 -15 2 -27 -1 -27 -5z"/>
<path d="M300 275 c-8 -2 -31 -6 -51 -10 -34 -5 -37 -8 -43 -48 -4 -23 -16
-58 -27 -76 -11 -18 -17 -36 -14 -40 6 -6 23 11 53 55 11 16 12 11 8 -34 -6
-58 3 -65 42 -33 27 24 28 35 2 28 -15 -4 -20 0 -20 13 0 51 12 51 59 0 37
-40 54 -50 79 -50 39 0 42 15 5 28 -16 5 -45 24 -67 41 -38 30 -38 31 -13 31
19 0 25 -4 21 -15 -4 -9 0 -15 9 -15 21 0 27 12 20 38 -5 21 -10 22 -72 17
-73 -6 -72 0 2 10 26 3 47 11 47 17 0 6 -18 7 -50 3 -34 -5 -50 -3 -50 4 0 6
17 11 38 11 46 0 82 9 82 21 0 9 -28 10 -60 4z"/>
<path d="M112 174 c-22 -30 -31 -52 -27 -65 10 -30 22 -23 44 25 43 98 37 113
-17 40z"/>
</g>
</svg>
