<?xml version="1.0" standalone="no"?>
<!DOCTYPE svg PUBLIC "-//W3C//DTD SVG 20010904//EN"
 "http://www.w3.org/TR/2001/REC-SVG-20010904/DTD/svg10.dtd">
<svg version="1.0" xmlns="http://www.w3.org/2000/svg"
 width="95.000000pt" height="725.000000pt" viewBox="0 0 95.000000 725.000000"
 preserveAspectRatio="xMidYMid meet">
<metadata>
Created by potrace 1.16, written by Peter Selinger 2001-2019
</metadata>
<g transform="translate(0.000000,725.000000) scale(0.100000,-0.100000)"
fill="#000000" stroke="none">
<path d="M257 7130 l6 -40 -36 0 c-37 0 -57 -19 -57 -54 0 -24 19 -19 32 8 7
17 20 26 42 28 23 2 32 9 34 24 2 15 12 24 33 28 16 3 29 11 29 17 0 7 -9 9
-25 5 -18 -5 -25 -2 -25 9 0 8 -9 15 -19 15 -16 0 -18 -5 -14 -40z"/>
<path d="M100 7122 c0 -12 34 -42 48 -42 22 0 13 37 -10 44 -31 8 -38 7 -38
-2z"/>
<path d="M550 7122 c0 -12 34 -42 48 -42 22 0 13 37 -10 44 -31 8 -38 7 -38
-2z"/>
<path d="M323 7103 c-41 -5 -43 -23 -3 -23 23 0 28 -3 23 -17 -5 -13 -2 -15
11 -10 10 4 24 7 32 7 21 0 17 28 -5 40 -11 5 -21 9 -23 8 -2 0 -18 -3 -35 -5z"/>
<path d="M248 7063 c-32 -5 -38 -23 -8 -23 32 0 23 -24 -30 -81 -52 -55 -58
-73 -15 -45 l25 16 0 -55 c0 -30 5 -55 10 -55 6 0 10 5 10 10 0 14 58 12 62
-2 2 -6 12 -9 21 -5 13 5 17 19 17 68 0 52 2 60 14 49 8 -6 25 -10 37 -8 26 4
38 28 14 28 -23 0 -113 52 -120 68 -3 8 3 16 15 19 11 3 20 9 20 14 0 9 -22
10 -72 2z m53 -101 c-25 -4 -28 -22 -3 -23 14 0 14 -2 -3 -9 -51 -22 -69 7
-30 50 17 19 19 19 38 3 19 -18 19 -18 -2 -21z m-6 -62 c-11 -5 -29 -8 -40 -8
-16 0 -15 2 5 8 34 11 60 11 35 0z m15 -30 c0 -5 -17 -10 -37 -9 -34 1 -35 2
-13 9 36 11 50 11 50 0z"/>
<path d="M82 7028 c6 -16 36 -34 44 -26 3 4 4 14 1 23 -7 17 -51 21 -45 3z"/>
<path d="M310 7030 c0 -10 32 -30 49 -30 21 0 11 28 -11 34 -32 8 -38 7 -38
-4z"/>
<path d="M200 7009 c-7 -11 -9 -23 -7 -26 8 -7 47 21 47 34 0 21 -28 15 -40
-8z"/>
<path d="M130 6967 c0 -7 -12 -29 -26 -50 -16 -24 -23 -45 -19 -57 11 -34 22
-23 44 42 24 70 25 78 11 78 -5 0 -10 -6 -10 -13z"/>
<path d="M550 6672 c0 -12 34 -42 48 -42 22 0 13 37 -10 44 -31 8 -38 7 -38
-2z"/>
<path d="M532 6578 c6 -16 36 -34 44 -26 3 4 4 14 1 23 -7 17 -51 21 -45 3z"/>
<path d="M550 6222 c0 -12 34 -42 48 -42 22 0 13 37 -10 44 -31 8 -38 7 -38
-2z"/>
<path d="M532 6128 c6 -16 36 -34 44 -26 3 4 4 14 1 23 -7 17 -51 21 -45 3z"/>
<path d="M580 6067 c0 -7 -12 -29 -26 -50 -16 -24 -23 -45 -19 -57 11 -34 22
-23 44 42 24 70 25 78 11 78 -5 0 -10 -6 -10 -13z"/>
<path d="M707 5778 c6 -43 10 -55 17 -47 2 2 6 23 10 47 5 37 4 42 -13 42 -17
0 -18 -5 -14 -42z"/>
<path d="M550 5772 c0 -12 34 -42 48 -42 22 0 13 37 -10 44 -31 8 -38 7 -38
-2z"/>
<path d="M532 5678 c6 -16 36 -34 44 -26 3 4 4 14 1 23 -7 17 -51 21 -45 3z"/>
<path d="M580 5617 c0 -7 -12 -29 -26 -50 -16 -24 -23 -45 -19 -57 11 -34 22
-23 44 42 24 70 25 78 11 78 -5 0 -10 -6 -10 -13z"/>
<path d="M704 5354 c3 -9 6 -29 6 -45 0 -16 5 -29 10 -29 6 0 10 8 10 19 0 13
9 20 30 25 17 3 30 11 30 17 0 7 -9 9 -25 5 -18 -5 -25 -2 -25 9 0 9 -9 15
-21 15 -15 0 -19 -4 -15 -16z"/>
<path d="M550 5322 c0 -12 34 -42 48 -42 22 0 13 37 -10 44 -31 8 -38 7 -38
-2z"/>
<path d="M532 5228 c6 -16 36 -34 44 -26 3 4 4 14 1 23 -7 17 -51 21 -45 3z"/>
<path d="M580 5167 c0 -7 -12 -29 -26 -50 -16 -24 -23 -45 -19 -57 11 -34 22
-23 44 42 24 70 25 78 11 78 -5 0 -10 -6 -10 -13z"/>
<path d="M704 4904 c3 -9 6 -29 6 -45 0 -16 5 -29 10 -29 6 0 10 8 10 19 0 13
9 20 30 25 17 3 30 11 30 17 0 7 -9 9 -25 5 -18 -5 -25 -2 -25 9 0 9 -9 15
-21 15 -15 0 -19 -4 -15 -16z"/>
<path d="M550 4872 c0 -12 34 -42 48 -42 22 0 13 37 -10 44 -31 8 -38 7 -38
-2z"/>
<path d="M630 4821 c-13 -25 -13 -51 0 -51 12 0 30 33 30 54 0 22 -17 20 -30
-3z"/>
<path d="M532 4778 c6 -16 36 -34 44 -26 3 4 4 14 1 23 -7 17 -51 21 -45 3z"/>
<path d="M580 4717 c0 -7 -12 -29 -26 -50 -16 -24 -23 -45 -19 -57 11 -34 22
-23 44 42 24 70 25 78 11 78 -5 0 -10 -6 -10 -13z"/>
<path d="M707 4430 l6 -40 -36 0 c-37 0 -57 -19 -57 -54 0 -24 19 -19 32 8 7
17 20 26 42 28 23 2 32 9 34 24 2 15 12 24 33 28 16 3 29 11 29 17 0 7 -9 9
-25 5 -18 -5 -25 -2 -25 9 0 8 -9 15 -19 15 -16 0 -18 -5 -14 -40z"/>
<path d="M550 4422 c0 -12 34 -42 48 -42 22 0 13 37 -10 44 -31 8 -38 7 -38
-2z"/>
<path d="M773 4403 c-41 -5 -43 -23 -3 -23 23 0 28 -3 23 -17 -5 -13 -2 -15
11 -10 10 4 24 7 32 7 21 0 17 28 -5 40 -11 5 -21 9 -23 8 -2 0 -18 -3 -35 -5z"/>
<path d="M532 4328 c6 -16 36 -34 44 -26 3 4 4 14 1 23 -7 17 -51 21 -45 3z"/>
<path d="M580 4267 c0 -7 -12 -29 -26 -50 -16 -24 -23 -45 -19 -57 11 -34 22
-23 44 42 24 70 25 78 11 78 -5 0 -10 -6 -10 -13z"/>
<path d="M707 3980 l6 -40 -36 0 c-37 0 -57 -19 -57 -54 0 -24 19 -19 32 8 7
17 20 26 42 28 23 2 32 9 34 24 2 15 12 24 33 28 16 3 29 11 29 17 0 7 -9 9
-25 5 -18 -5 -25 -2 -25 9 0 8 -9 15 -19 15 -16 0 -18 -5 -14 -40z"/>
<path d="M550 3972 c0 -12 34 -42 48 -42 22 0 13 37 -10 44 -31 8 -38 7 -38
-2z"/>
<path d="M773 3953 c-41 -5 -43 -23 -3 -23 23 0 28 -3 23 -17 -5 -13 -2 -15
11 -10 10 4 24 7 32 7 21 0 17 28 -5 40 -11 5 -21 9 -23 8 -2 0 -18 -3 -35 -5z"/>
<path d="M698 3913 c-16 -2 -28 -9 -28 -14 0 -10 43 -12 78 -3 12 4 22 10 22
15 0 9 -22 10 -72 2z"/>
<path d="M532 3878 c6 -16 36 -34 44 -26 3 4 4 14 1 23 -7 17 -51 21 -45 3z"/>
<path d="M580 3817 c0 -7 -12 -29 -26 -50 -16 -24 -23 -45 -19 -57 11 -34 22
-23 44 42 24 70 25 78 11 78 -5 0 -10 -6 -10 -13z"/>
<path d="M707 3530 l6 -40 -36 0 c-37 0 -57 -19 -57 -54 0 -24 19 -19 32 8 7
17 20 26 42 28 23 2 32 9 34 24 2 15 12 24 33 28 16 3 29 11 29 17 0 7 -9 9
-25 5 -18 -5 -25 -2 -25 9 0 8 -9 15 -19 15 -16 0 -18 -5 -14 -40z"/>
<path d="M550 3522 c0 -12 34 -42 48 -42 22 0 13 37 -10 44 -31 8 -38 7 -38
-2z"/>
<path d="M773 3503 c-41 -5 -43 -23 -3 -23 23 0 28 -3 23 -17 -5 -13 -2 -15
11 -10 10 4 24 7 32 7 21 0 17 28 -5 40 -11 5 -21 9 -23 8 -2 0 -18 -3 -35 -5z"/>
<path d="M698 3463 c-16 -2 -28 -9 -28 -14 0 -10 43 -12 78 -3 12 4 22 10 22
15 0 9 -22 10 -72 2z"/>
<path d="M532 3428 c6 -16 36 -34 44 -26 3 4 4 14 1 23 -7 17 -51 21 -45 3z"/>
<path d="M650 3409 c-7 -11 -9 -23 -7 -26 8 -7 47 21 47 34 0 21 -28 15 -40
-8z"/>
<path d="M580 3367 c0 -7 -12 -29 -26 -50 -16 -24 -23 -45 -19 -57 11 -34 22
-23 44 42 24 70 25 78 11 78 -5 0 -10 -6 -10 -13z"/>
<path d="M707 3080 l6 -40 -36 0 c-37 0 -57 -19 -57 -54 0 -24 19 -19 32 8 7
17 20 26 42 28 23 2 32 9 34 24 2 15 12 24 33 28 16 3 29 11 29 17 0 7 -9 9
-25 5 -18 -5 -25 -2 -25 9 0 8 -9 15 -19 15 -16 0 -18 -5 -14 -40z"/>
<path d="M550 3072 c0 -12 34 -42 48 -42 22 0 13 37 -10 44 -31 8 -38 7 -38
-2z"/>
<path d="M773 3053 c-41 -5 -43 -23 -3 -23 23 0 28 -3 23 -17 -5 -13 -2 -15
11 -10 10 4 24 7 32 7 21 0 17 28 -5 40 -11 5 -21 9 -23 8 -2 0 -18 -3 -35 -5z"/>
<path d="M698 3013 c-16 -2 -28 -9 -28 -14 0 -10 43 -12 78 -3 12 4 22 10 22
15 0 9 -22 10 -72 2z"/>
<path d="M532 2978 c6 -16 36 -34 44 -26 3 4 4 14 1 23 -7 17 -51 21 -45 3z"/>
<path d="M760 2980 c0 -10 32 -30 49 -30 21 0 11 28 -11 34 -32 8 -38 7 -38
-4z"/>
<path d="M650 2959 c-7 -11 -9 -23 -7 -26 8 -7 47 21 47 34 0 21 -28 15 -40
-8z"/>
<path d="M580 2917 c0 -7 -12 -29 -26 -50 -16 -24 -23 -45 -19 -57 11 -34 22
-23 44 42 24 70 25 78 11 78 -5 0 -10 -6 -10 -13z"/>
<path d="M707 2630 l6 -40 -36 0 c-37 0 -57 -19 -57 -54 0 -24 19 -19 32 8 7
17 20 26 42 28 23 2 32 9 34 24 2 15 12 24 33 28 16 3 29 11 29 17 0 7 -9 9
-25 5 -18 -5 -25 -2 -25 9 0 8 -9 15 -19 15 -16 0 -18 -5 -14 -40z"/>
<path d="M550 2622 c0 -12 34 -42 48 -42 22 0 13 37 -10 44 -31 8 -38 7 -38
-2z"/>
<path d="M773 2603 c-41 -5 -43 -23 -3 -23 23 0 28 -3 23 -17 -5 -13 -2 -15
11 -10 10 4 24 7 32 7 21 0 17 28 -5 40 -11 5 -21 9 -23 8 -2 0 -18 -3 -35 -5z"/>
<path d="M698 2563 c-32 -5 -38 -23 -8 -23 32 0 23 -24 -30 -81 -27 -29 -48
-55 -46 -57 17 -16 131 101 122 125 -4 9 1 17 14 20 11 3 20 9 20 14 0 9 -22
10 -72 2z"/>
<path d="M532 2528 c6 -16 36 -34 44 -26 3 4 4 14 1 23 -7 17 -51 21 -45 3z"/>
<path d="M760 2530 c0 -10 32 -30 49 -30 21 0 11 28 -11 34 -32 8 -38 7 -38
-4z"/>
<path d="M650 2509 c-7 -11 -9 -23 -7 -26 8 -7 47 21 47 34 0 21 -28 15 -40
-8z"/>
<path d="M580 2467 c0 -7 -12 -29 -26 -50 -16 -24 -23 -45 -19 -57 11 -34 22
-23 44 42 24 70 25 78 11 78 -5 0 -10 -6 -10 -13z"/>
<path d="M707 2180 l6 -40 -36 0 c-37 0 -57 -19 -57 -54 0 -24 19 -19 32 8 7
17 20 26 42 28 23 2 32 9 34 24 2 15 12 24 33 28 16 3 29 11 29 17 0 7 -9 9
-25 5 -18 -5 -25 -2 -25 9 0 8 -9 15 -19 15 -16 0 -18 -5 -14 -40z"/>
<path d="M550 2172 c0 -12 34 -42 48 -42 22 0 13 37 -10 44 -31 8 -38 7 -38
-2z"/>
<path d="M773 2153 c-41 -5 -43 -23 -3 -23 23 0 28 -3 23 -17 -5 -13 -2 -15
11 -10 10 4 24 7 32 7 21 0 17 28 -5 40 -11 5 -21 9 -23 8 -2 0 -18 -3 -35 -5z"/>
<path d="M698 2113 c-32 -5 -38 -23 -8 -23 32 0 23 -24 -30 -81 -27 -29 -50
-55 -50 -56 0 -14 30 5 73 46 l52 49 40 -34 c26 -24 47 -34 64 -32 28 3 42 28
16 28 -23 0 -113 52 -120 68 -3 8 3 16 15 19 11 3 20 9 20 14 0 9 -22 10 -72
2z"/>
<path d="M532 2078 c6 -16 36 -34 44 -26 3 4 4 14 1 23 -7 17 -51 21 -45 3z"/>
<path d="M760 2080 c0 -10 32 -30 49 -30 21 0 11 28 -11 34 -32 8 -38 7 -38
-4z"/>
<path d="M650 2059 c-7 -11 -9 -23 -7 -26 8 -7 47 21 47 34 0 21 -28 15 -40
-8z"/>
<path d="M580 2017 c0 -7 -12 -29 -26 -50 -16 -24 -23 -45 -19 -57 11 -34 22
-23 44 42 24 70 25 78 11 78 -5 0 -10 -6 -10 -13z"/>
<path d="M707 1730 l6 -40 -36 0 c-37 0 -57 -19 -57 -54 0 -24 19 -19 32 8 7
17 20 26 42 28 23 2 32 9 34 24 2 15 12 24 33 28 16 3 29 11 29 17 0 7 -9 9
-25 5 -18 -5 -25 -2 -25 9 0 8 -9 15 -19 15 -16 0 -18 -5 -14 -40z"/>
<path d="M550 1722 c0 -12 34 -42 48 -42 22 0 13 37 -10 44 -31 8 -38 7 -38
-2z"/>
<path d="M773 1703 c-41 -5 -43 -23 -3 -23 23 0 28 -3 23 -17 -5 -13 -2 -15
11 -10 10 4 24 7 32 7 21 0 17 28 -5 40 -11 5 -21 9 -23 8 -2 0 -18 -3 -35 -5z"/>
<path d="M698 1663 c-32 -5 -38 -23 -8 -23 32 0 23 -24 -30 -81 -52 -55 -58
-73 -15 -45 l25 16 0 -55 c0 -30 5 -55 10 -55 6 0 10 29 10 67 0 54 4 71 21
89 l22 23 41 -35 c27 -23 49 -34 65 -32 28 3 42 28 16 28 -23 0 -113 52 -120
68 -3 8 3 16 15 19 11 3 20 9 20 14 0 9 -22 10 -72 2z"/>
<path d="M532 1628 c6 -16 36 -34 44 -26 3 4 4 14 1 23 -7 17 -51 21 -45 3z"/>
<path d="M760 1630 c0 -10 32 -30 49 -30 21 0 11 28 -11 34 -32 8 -38 7 -38
-4z"/>
<path d="M650 1609 c-7 -11 -9 -23 -7 -26 8 -7 47 21 47 34 0 21 -28 15 -40
-8z"/>
<path d="M580 1567 c0 -7 -12 -29 -26 -50 -16 -24 -23 -45 -19 -57 11 -34 22
-23 44 42 24 70 25 78 11 78 -5 0 -10 -6 -10 -13z"/>
<path d="M707 1280 l6 -40 -36 0 c-37 0 -57 -19 -57 -54 0 -24 19 -19 32 8 7
17 20 26 42 28 23 2 32 9 34 24 2 15 12 24 33 28 16 3 29 11 29 17 0 7 -9 9
-25 5 -18 -5 -25 -2 -25 9 0 8 -9 15 -19 15 -16 0 -18 -5 -14 -40z"/>
<path d="M550 1272 c0 -12 34 -42 48 -42 22 0 13 37 -10 44 -31 8 -38 7 -38
-2z"/>
<path d="M773 1253 c-41 -5 -43 -23 -3 -23 23 0 28 -3 23 -17 -5 -13 -2 -15
11 -10 10 4 24 7 32 7 21 0 17 28 -5 40 -11 5 -21 9 -23 8 -2 0 -18 -3 -35 -5z"/>
<path d="M698 1213 c-32 -5 -38 -23 -8 -23 32 0 23 -24 -30 -81 -52 -55 -58
-73 -15 -45 l25 16 0 -55 c0 -30 5 -55 10 -55 8 0 15 65 13 127 0 6 9 21 22
33 l22 20 18 -20 c18 -19 18 -20 -3 -20 -12 0 -22 -4 -22 -10 0 -5 7 -10 16
-10 15 0 16 -8 11 -61 -6 -54 -5 -60 11 -57 14 3 18 16 20 66 3 53 5 62 17 52
8 -6 24 -10 36 -8 26 4 38 28 14 28 -23 0 -113 52 -120 68 -3 8 3 16 15 19 11
3 20 9 20 14 0 9 -22 10 -72 2z"/>
<path d="M532 1178 c6 -16 36 -34 44 -26 3 4 4 14 1 23 -7 17 -51 21 -45 3z"/>
<path d="M760 1180 c0 -10 32 -30 49 -30 21 0 11 28 -11 34 -32 8 -38 7 -38
-4z"/>
<path d="M650 1159 c-7 -11 -9 -23 -7 -26 8 -7 47 21 47 34 0 21 -28 15 -40
-8z"/>
<path d="M580 1117 c0 -7 -12 -29 -26 -50 -16 -24 -23 -45 -19 -57 11 -34 22
-23 44 42 24 70 25 78 11 78 -5 0 -10 -6 -10 -13z"/>
<path d="M707 830 l6 -40 -36 0 c-37 0 -57 -19 -57 -54 0 -24 19 -19 32 8 7
17 20 26 42 28 23 2 32 9 34 24 2 15 12 24 33 28 16 3 29 11 29 17 0 7 -9 9
-25 5 -18 -5 -25 -2 -25 9 0 8 -9 15 -19 15 -16 0 -18 -5 -14 -40z"/>
<path d="M550 822 c0 -12 34 -42 48 -42 22 0 13 37 -10 44 -31 8 -38 7 -38 -2z"/>
<path d="M773 803 c-41 -5 -43 -23 -3 -23 23 0 28 -3 23 -17 -5 -13 -2 -15 11
-10 10 4 24 7 32 7 21 0 17 28 -5 40 -11 5 -21 9 -23 8 -2 0 -18 -3 -35 -5z"/>
<path d="M698 763 c-32 -5 -38 -23 -8 -23 32 0 23 -24 -30 -81 -52 -55 -58
-73 -15 -45 l25 16 0 -55 c0 -30 5 -55 10 -55 6 0 10 18 10 40 0 25 5 40 13
40 6 0 23 3 36 7 23 6 24 5 17 -41 -7 -43 -6 -47 11 -44 15 3 19 15 21 66 3
53 5 62 17 52 8 -6 24 -10 36 -8 26 4 38 28 14 28 -23 0 -113 52 -120 68 -3 8
3 16 15 19 11 3 20 9 20 14 0 9 -22 10 -72 2z m53 -101 c-25 -4 -28 -22 -3
-23 14 0 14 -2 -3 -9 -51 -22 -69 7 -30 50 17 19 19 19 38 3 19 -18 19 -18 -2
-21z"/>
<path d="M532 728 c6 -16 36 -34 44 -26 3 4 4 14 1 23 -7 17 -51 21 -45 3z"/>
<path d="M760 730 c0 -10 32 -30 49 -30 21 0 11 28 -11 34 -32 8 -38 7 -38 -4z"/>
<path d="M650 709 c-7 -11 -9 -23 -7 -26 8 -7 47 21 47 34 0 21 -28 15 -40 -8z"/>
<path d="M580 667 c0 -7 -12 -29 -26 -50 -16 -24 -23 -45 -19 -57 11 -34 22
-23 44 42 24 70 25 78 11 78 -5 0 -10 -6 -10 -13z"/>
<path d="M707 380 l6 -40 -36 0 c-37 0 -57 -19 -57 -54 0 -24 19 -19 32 8 7
17 20 26 42 28 23 2 32 9 34 24 2 15 12 24 33 28 16 3 29 11 29 17 0 7 -9 9
-25 5 -18 -5 -25 -2 -25 9 0 8 -9 15 -19 15 -16 0 -18 -5 -14 -40z"/>
<path d="M550 372 c0 -12 34 -42 48 -42 22 0 13 37 -10 44 -31 8 -38 7 -38 -2z"/>
<path d="M773 353 c-41 -5 -43 -23 -3 -23 23 0 28 -3 23 -17 -5 -13 -2 -15 11
-10 10 4 24 7 32 7 21 0 17 28 -5 40 -11 5 -21 9 -23 8 -2 0 -18 -3 -35 -5z"/>
<path d="M698 313 c-32 -5 -38 -23 -8 -23 32 0 23 -24 -30 -81 -52 -55 -58
-73 -15 -45 l25 16 0 -55 c0 -30 5 -55 10 -55 6 0 10 11 10 25 0 14 6 25 13
25 6 0 22 3 34 6 21 6 22 4 17 -26 -6 -28 -4 -32 12 -28 16 3 19 14 22 66 3
53 5 62 17 52 8 -6 24 -10 36 -8 26 4 38 28 14 28 -23 0 -113 52 -120 68 -3 8
3 16 15 19 11 3 20 9 20 14 0 9 -22 10 -72 2z m53 -101 c-25 -4 -28 -22 -3
-23 14 0 14 -2 -3 -9 -51 -22 -69 7 -30 50 17 19 19 19 38 3 19 -18 19 -18 -2
-21z m-6 -62 c-11 -5 -29 -8 -40 -8 -16 0 -15 2 5 8 34 11 60 11 35 0z"/>
<path d="M532 278 c6 -16 36 -34 44 -26 3 4 4 14 1 23 -7 17 -51 21 -45 3z"/>
<path d="M760 280 c0 -10 32 -30 49 -30 21 0 11 28 -11 34 -32 8 -38 7 -38 -4z"/>
<path d="M650 259 c-7 -11 -9 -23 -7 -26 8 -7 47 21 47 34 0 21 -28 15 -40 -8z"/>
<path d="M580 217 c0 -7 -12 -29 -26 -50 -16 -24 -23 -45 -19 -57 11 -34 22
-23 44 42 24 70 25 78 11 78 -5 0 -10 -6 -10 -13z"/>
</g>
</svg>
