<?xml version="1.0" standalone="no"?>
<!DOCTYPE svg PUBLIC "-//W3C//DTD SVG 20010904//EN"
 "http://www.w3.org/TR/2001/REC-SVG-20010904/DTD/svg10.dtd">
<svg version="1.0" xmlns="http://www.w3.org/2000/svg"
 width="95.000000pt" height="725.000000pt" viewBox="0 0 95.000000 725.000000"
 preserveAspectRatio="xMidYMid meet">
<metadata>
Created by potrace 1.16, written by Peter Selinger 2001-2019
</metadata>
<g transform="translate(0.000000,725.000000) scale(0.100000,-0.100000)"
fill="#000000" stroke="none">
<path d="M217 7118 c4 -24 10 -44 14 -46 4 -2 6 -9 3 -17 -8 -21 -33 -7 -27
16 8 31 -20 22 -40 -12 -19 -33 -16 -49 5 -31 9 7 17 6 26 -4 11 -12 10 -15
-2 -20 -18 -7 -21 -24 -5 -24 17 0 79 72 79 92 0 10 -7 18 -15 18 -8 0 -15 5
-15 10 0 6 9 10 20 10 11 0 20 5 20 10 0 6 -9 10 -20 10 -11 0 -20 7 -20 15 0
8 -6 15 -14 15 -11 0 -13 -10 -9 -42z"/>
<path d="M110 7123 c1 -18 38 -55 49 -49 19 12 12 36 -15 46 -30 12 -34 12
-34 3z"/>
<path d="M560 7123 c1 -18 38 -55 49 -49 19 12 12 36 -15 46 -30 12 -34 12
-34 3z"/>
<path d="M315 7108 c-41 -15 -41 -15 -15 -43 19 -20 21 -27 10 -40 -7 -8 -19
-15 -27 -15 -10 0 -13 -6 -9 -16 3 -9 6 -45 6 -80 0 -36 4 -64 10 -64 6 0 10
13 10 30 0 25 4 30 35 36 19 3 35 11 35 16 0 6 -12 8 -30 5 -17 -4 -30 -2 -30
3 0 6 11 10 25 10 14 0 25 5 25 10 0 6 -11 10 -25 10 -16 0 -25 6 -25 15 0 23
27 29 46 10 9 -9 23 -14 31 -11 8 3 19 6 24 6 20 0 7 16 -22 27 -24 9 -30 16
-25 30 4 10 10 30 13 46 6 30 -8 34 -62 15z m29 -32 c-5 -13 -9 -14 -21 -4
-13 10 -13 13 4 19 23 8 25 6 17 -15z"/>
<path d="M80 7032 c0 -10 33 -42 44 -42 4 0 6 10 4 23 -2 14 -11 23 -25 25
-13 2 -23 -1 -23 -6z"/>
<path d="M230 6981 c0 -16 -6 -21 -25 -21 -14 0 -25 -4 -25 -10 0 -5 12 -10
28 -10 22 0 24 -2 12 -11 -11 -8 -12 -12 -2 -16 19 -7 4 -23 -24 -23 -13 0
-24 -4 -24 -10 0 -5 13 -10 29 -10 16 0 31 -6 34 -12 3 -10 8 -10 16 -2 16 15
10 136 -6 142 -8 2 -13 -5 -13 -17z"/>
<path d="M117 6923 c-28 -46 -32 -73 -11 -80 9 -3 54 97 54 121 0 17 -18 1
-43 -41z"/>
<path d="M217 6668 c4 -24 10 -44 14 -46 4 -2 6 -9 3 -17 -8 -21 -33 -7 -27
16 8 31 -20 22 -40 -12 -19 -33 -16 -49 5 -31 9 7 17 6 26 -4 11 -12 10 -15
-2 -20 -18 -7 -21 -24 -5 -24 17 0 79 72 79 92 0 10 -7 18 -15 18 -8 0 -15 5
-15 10 0 6 9 10 20 10 11 0 20 5 20 10 0 6 -9 10 -20 10 -11 0 -20 7 -20 15 0
8 -6 15 -14 15 -11 0 -13 -10 -9 -42z"/>
<path d="M110 6673 c1 -18 38 -55 49 -49 19 12 12 36 -15 46 -30 12 -34 12
-34 3z"/>
<path d="M560 6673 c1 -18 38 -55 49 -49 19 12 12 36 -15 46 -30 12 -34 12
-34 3z"/>
<path d="M315 6658 c-41 -15 -41 -15 -15 -43 19 -20 21 -27 10 -40 -7 -8 -19
-15 -27 -15 -10 0 -13 -6 -9 -16 3 -9 6 -45 6 -80 0 -36 4 -64 10 -64 6 0 10
7 10 15 0 10 11 15 35 15 47 0 45 20 -2 21 l-38 2 38 10 c44 12 50 32 7 24
-17 -4 -30 -2 -30 3 0 6 11 10 25 10 14 0 25 5 25 10 0 6 -11 10 -25 10 -16 0
-25 6 -25 15 0 23 27 29 46 10 9 -9 23 -14 31 -11 8 3 19 6 24 6 20 0 7 16
-22 27 -24 9 -30 16 -25 30 4 10 10 30 13 46 6 30 -8 34 -62 15z m29 -32 c-5
-13 -9 -14 -21 -4 -13 10 -13 13 4 19 23 8 25 6 17 -15z"/>
<path d="M80 6582 c0 -10 33 -42 44 -42 4 0 6 10 4 23 -2 14 -11 23 -25 25
-13 2 -23 -1 -23 -6z"/>
<path d="M530 6582 c0 -10 33 -42 44 -42 4 0 6 10 4 23 -2 14 -11 23 -25 25
-13 2 -23 -1 -23 -6z"/>
<path d="M230 6531 c0 -16 -6 -21 -25 -21 -14 0 -25 -4 -25 -10 0 -5 12 -10
28 -10 22 0 24 -2 12 -11 -11 -8 -12 -12 -2 -16 19 -7 4 -23 -24 -23 -13 0
-24 -4 -24 -10 0 -5 13 -10 29 -10 16 0 31 -6 34 -12 3 -10 8 -10 16 -2 16 15
10 136 -6 142 -8 2 -13 -5 -13 -17z"/>
<path d="M117 6473 c-28 -46 -32 -73 -11 -80 9 -3 54 97 54 121 0 17 -18 1
-43 -41z"/>
<path d="M217 6218 c4 -24 10 -44 14 -46 4 -2 6 -9 3 -17 -8 -21 -33 -7 -27
16 8 31 -20 22 -40 -12 -19 -33 -16 -49 5 -31 9 7 17 6 26 -4 11 -12 10 -15
-2 -20 -18 -7 -21 -24 -5 -24 17 0 79 72 79 92 0 10 -7 18 -15 18 -8 0 -15 5
-15 10 0 6 9 10 20 10 11 0 20 5 20 10 0 6 -9 10 -20 10 -11 0 -20 7 -20 15 0
8 -6 15 -14 15 -11 0 -13 -10 -9 -42z"/>
<path d="M110 6223 c1 -18 38 -55 49 -49 19 12 12 36 -15 46 -30 12 -34 12
-34 3z"/>
<path d="M560 6223 c1 -18 38 -55 49 -49 19 12 12 36 -15 46 -30 12 -34 12
-34 3z"/>
<path d="M315 6208 c-41 -15 -41 -15 -15 -43 19 -20 21 -27 10 -40 -7 -8 -18
-15 -24 -15 -8 0 -10 -23 -8 -75 3 -49 0 -75 -6 -75 -7 0 -12 28 -14 67 -2 42
-8 68 -15 71 -8 2 -13 -5 -13 -17 0 -16 -6 -21 -25 -21 -14 0 -25 -4 -25 -10
0 -5 12 -10 28 -10 22 0 24 -2 12 -11 -11 -8 -12 -12 -2 -16 19 -7 4 -23 -24
-23 -36 0 -29 -20 9 -21 31 -1 30 -2 -10 -12 -62 -14 -55 -31 10 -23 28 3 85
6 125 6 55 0 73 3 69 13 -3 8 -20 11 -51 9 -27 -2 -46 1 -46 7 0 6 16 11 35
11 47 0 45 20 -2 21 l-38 2 38 10 c44 12 50 32 7 24 -17 -4 -30 -2 -30 3 0 6
11 10 25 10 14 0 25 5 25 10 0 6 -11 10 -25 10 -16 0 -25 6 -25 15 0 23 27 29
46 10 9 -9 23 -14 31 -11 8 3 19 6 24 6 20 0 7 16 -22 27 -24 9 -30 16 -25 30
4 10 10 30 13 46 6 30 -8 34 -62 15z m29 -32 c-5 -13 -9 -14 -21 -4 -13 10
-13 13 4 19 23 8 25 6 17 -15z"/>
<path d="M80 6132 c0 -10 33 -42 44 -42 4 0 6 10 4 23 -2 14 -11 23 -25 25
-13 2 -23 -1 -23 -6z"/>
<path d="M530 6132 c0 -10 33 -42 44 -42 4 0 6 10 4 23 -2 14 -11 23 -25 25
-13 2 -23 -1 -23 -6z"/>
<path d="M117 6023 c-28 -46 -32 -73 -11 -80 9 -3 54 97 54 121 0 17 -18 1
-43 -41z"/>
<path d="M567 6023 c-28 -46 -32 -73 -11 -80 9 -3 54 97 54 121 0 17 -18 1
-43 -41z"/>
<path d="M664 5794 c3 -9 6 -29 6 -45 0 -16 5 -29 10 -29 6 0 10 20 10 45 0
35 -4 45 -16 45 -11 0 -14 -5 -10 -16z"/>
<path d="M560 5773 c1 -18 38 -55 49 -49 19 12 12 36 -15 46 -30 12 -34 12
-34 3z"/>
<path d="M530 5682 c0 -10 33 -42 44 -42 4 0 6 10 4 23 -2 14 -11 23 -25 25
-13 2 -23 -1 -23 -6z"/>
<path d="M567 5573 c-28 -46 -32 -73 -11 -80 9 -3 54 97 54 121 0 17 -18 1
-43 -41z"/>
<path d="M664 5344 c3 -9 6 -29 6 -45 0 -16 5 -29 10 -29 6 0 10 9 10 20 0 13
7 20 20 20 11 0 20 5 20 10 0 6 -9 10 -20 10 -11 0 -20 7 -20 15 0 8 -7 15
-16 15 -11 0 -14 -5 -10 -16z"/>
<path d="M560 5323 c1 -18 38 -55 49 -49 19 12 12 36 -15 46 -30 12 -34 12
-34 3z"/>
<path d="M530 5232 c0 -10 33 -42 44 -42 4 0 6 10 4 23 -2 14 -11 23 -25 25
-13 2 -23 -1 -23 -6z"/>
<path d="M567 5123 c-28 -46 -32 -73 -11 -80 9 -3 54 97 54 121 0 17 -18 1
-43 -41z"/>
<path d="M664 4894 c3 -9 6 -29 6 -45 0 -16 5 -29 10 -29 6 0 10 9 10 20 0 13
7 20 20 20 11 0 20 5 20 10 0 6 -9 10 -20 10 -11 0 -20 7 -20 15 0 8 -7 15
-16 15 -11 0 -14 -5 -10 -16z"/>
<path d="M560 4873 c1 -18 38 -55 49 -49 19 12 12 36 -15 46 -30 12 -34 12
-34 3z"/>
<path d="M617 4809 c-10 -18 -15 -34 -12 -37 8 -8 55 39 55 55 0 24 -25 13
-43 -18z"/>
<path d="M530 4782 c0 -10 33 -42 44 -42 4 0 6 10 4 23 -2 14 -11 23 -25 25
-13 2 -23 -1 -23 -6z"/>
<path d="M567 4673 c-28 -46 -32 -73 -11 -80 9 -3 54 97 54 121 0 17 -18 1
-43 -41z"/>
<path d="M667 4418 c4 -24 10 -45 14 -48 9 -6 -29 -70 -42 -70 -5 0 -9 -4 -9
-10 0 -20 23 -9 56 27 36 39 44 73 19 73 -8 0 -15 5 -15 10 0 6 9 10 20 10 11
0 20 5 20 10 0 6 -9 10 -20 10 -11 0 -20 7 -20 15 0 8 -6 15 -14 15 -11 0 -13
-10 -9 -42z"/>
<path d="M560 4423 c1 -18 38 -55 49 -49 19 12 12 36 -15 46 -30 12 -34 12
-34 3z"/>
<path d="M617 4359 c-10 -18 -15 -34 -12 -37 8 -8 55 39 55 55 0 24 -25 13
-43 -18z"/>
<path d="M530 4332 c0 -10 33 -42 44 -42 4 0 6 10 4 23 -2 14 -11 23 -25 25
-13 2 -23 -1 -23 -6z"/>
<path d="M567 4223 c-28 -46 -32 -73 -11 -80 9 -3 54 97 54 121 0 17 -18 1
-43 -41z"/>
<path d="M667 3968 c4 -24 10 -44 14 -46 4 -2 6 -9 3 -17 -8 -21 -33 -7 -27
16 8 31 -20 22 -40 -12 -19 -33 -16 -49 5 -31 9 7 17 6 26 -4 11 -12 10 -15
-2 -20 -18 -7 -21 -24 -5 -24 17 0 79 72 79 92 0 10 -7 18 -15 18 -8 0 -15 5
-15 10 0 6 9 10 20 10 11 0 20 5 20 10 0 6 -9 10 -20 10 -11 0 -20 7 -20 15 0
8 -6 15 -14 15 -11 0 -13 -10 -9 -42z"/>
<path d="M560 3973 c1 -18 38 -55 49 -49 19 12 12 36 -15 46 -30 12 -34 12
-34 3z"/>
<path d="M530 3882 c0 -10 33 -42 44 -42 4 0 6 10 4 23 -2 14 -11 23 -25 25
-13 2 -23 -1 -23 -6z"/>
<path d="M567 3773 c-28 -46 -32 -73 -11 -80 9 -3 54 97 54 121 0 17 -18 1
-43 -41z"/>
<path d="M667 3518 c4 -24 10 -44 14 -46 4 -2 6 -9 3 -17 -8 -21 -33 -7 -27
16 8 31 -20 22 -40 -12 -19 -33 -16 -49 5 -31 9 7 17 6 26 -4 11 -12 10 -15
-2 -20 -18 -7 -21 -24 -5 -24 17 0 79 72 79 92 0 10 -7 18 -15 18 -8 0 -15 5
-15 10 0 6 9 10 20 10 11 0 20 5 20 10 0 6 -9 10 -20 10 -11 0 -20 7 -20 15 0
8 -6 15 -14 15 -11 0 -13 -10 -9 -42z"/>
<path d="M560 3523 c1 -18 38 -55 49 -49 19 12 12 36 -15 46 -30 12 -34 12
-34 3z"/>
<path d="M778 3513 c-10 -2 -18 -9 -18 -15 0 -6 9 -8 20 -5 18 4 20 2 14 -16
-3 -12 -16 -32 -27 -44 -11 -13 -18 -26 -15 -29 12 -12 50 19 64 51 25 61 17
73 -38 58z"/>
<path d="M530 3432 c0 -10 33 -42 44 -42 4 0 6 10 4 23 -2 14 -11 23 -25 25
-13 2 -23 -1 -23 -6z"/>
<path d="M567 3323 c-28 -46 -32 -73 -11 -80 9 -3 54 97 54 121 0 17 -18 1
-43 -41z"/>
<path d="M667 3068 c4 -24 10 -44 14 -46 4 -2 6 -9 3 -17 -8 -21 -33 -7 -27
16 8 31 -20 22 -40 -12 -19 -33 -16 -49 5 -31 9 7 17 6 26 -4 11 -12 10 -15
-2 -20 -18 -7 -21 -24 -5 -24 17 0 79 72 79 92 0 10 -7 18 -15 18 -8 0 -15 5
-15 10 0 6 9 10 20 10 11 0 20 5 20 10 0 6 -9 10 -20 10 -11 0 -20 7 -20 15 0
8 -6 15 -14 15 -11 0 -13 -10 -9 -42z"/>
<path d="M560 3073 c1 -18 38 -55 49 -49 19 12 12 36 -15 46 -30 12 -34 12
-34 3z"/>
<path d="M765 3058 c-41 -15 -41 -15 -15 -43 18 -20 21 -28 12 -37 -19 -19
-14 -29 13 -22 14 3 25 2 25 -4 0 -14 24 -22 49 -15 29 7 26 17 -10 30 -24 9
-30 16 -25 30 4 10 10 30 13 46 6 30 -8 34 -62 15z m29 -32 c-5 -13 -9 -14
-21 -4 -13 10 -13 13 4 19 23 8 25 6 17 -15z"/>
<path d="M530 2982 c0 -10 33 -42 44 -42 4 0 6 10 4 23 -2 14 -11 23 -25 25
-13 2 -23 -1 -23 -6z"/>
<path d="M567 2873 c-28 -46 -32 -73 -11 -80 9 -3 54 97 54 121 0 17 -18 1
-43 -41z"/>
<path d="M667 2618 c4 -24 10 -44 14 -46 4 -2 6 -9 3 -17 -8 -21 -33 -7 -27
16 8 31 -20 22 -40 -12 -19 -33 -16 -49 5 -31 9 7 17 6 26 -4 11 -12 10 -15
-2 -20 -18 -7 -21 -24 -5 -24 17 0 79 72 79 92 0 10 -7 18 -15 18 -8 0 -15 5
-15 10 0 6 9 10 20 10 11 0 20 5 20 10 0 6 -9 10 -20 10 -11 0 -20 7 -20 15 0
8 -6 15 -14 15 -11 0 -13 -10 -9 -42z"/>
<path d="M560 2623 c1 -18 38 -55 49 -49 19 12 12 36 -15 46 -30 12 -34 12
-34 3z"/>
<path d="M765 2608 c-41 -15 -41 -15 -15 -43 18 -20 21 -28 12 -37 -19 -19
-14 -29 13 -22 14 3 25 2 25 -4 0 -14 24 -22 49 -15 29 7 26 17 -10 30 -24 9
-30 16 -25 30 4 10 10 30 13 46 6 30 -8 34 -62 15z m29 -32 c-5 -13 -9 -14
-21 -4 -13 10 -13 13 4 19 23 8 25 6 17 -15z"/>
<path d="M530 2532 c0 -10 33 -42 44 -42 4 0 6 10 4 23 -2 14 -11 23 -25 25
-13 2 -23 -1 -23 -6z"/>
<path d="M680 2425 c0 -57 3 -76 13 -72 8 2 12 26 12 72 0 46 -4 70 -12 73
-10 3 -13 -16 -13 -73z"/>
<path d="M567 2423 c-28 -46 -32 -73 -11 -80 9 -3 54 97 54 121 0 17 -18 1
-43 -41z"/>
<path d="M667 2168 c4 -24 10 -44 14 -46 4 -2 6 -9 3 -17 -8 -21 -33 -7 -27
16 8 31 -20 22 -40 -12 -19 -33 -16 -49 5 -31 9 7 17 6 26 -4 11 -12 10 -15
-2 -20 -18 -7 -21 -24 -5 -24 17 0 79 72 79 92 0 10 -7 18 -15 18 -8 0 -15 5
-15 10 0 6 9 10 20 10 11 0 20 5 20 10 0 6 -9 10 -20 10 -11 0 -20 7 -20 15 0
8 -6 15 -14 15 -11 0 -13 -10 -9 -42z"/>
<path d="M560 2173 c1 -18 38 -55 49 -49 19 12 12 36 -15 46 -30 12 -34 12
-34 3z"/>
<path d="M765 2158 c-41 -15 -41 -15 -15 -43 18 -20 21 -28 12 -37 -19 -19
-14 -29 13 -22 14 3 25 2 25 -4 0 -14 24 -22 49 -15 29 7 26 17 -10 30 -24 9
-30 16 -25 30 4 10 10 30 13 46 6 30 -8 34 -62 15z m29 -32 c-5 -13 -9 -14
-21 -4 -13 10 -13 13 4 19 23 8 25 6 17 -15z"/>
<path d="M530 2082 c0 -10 33 -42 44 -42 4 0 6 10 4 23 -2 14 -11 23 -25 25
-13 2 -23 -1 -23 -6z"/>
<path d="M680 2031 c0 -16 -6 -21 -25 -21 -14 0 -25 -4 -25 -10 0 -5 11 -10
25 -10 23 0 25 -4 25 -46 0 -32 4 -44 13 -41 8 2 12 26 12 72 0 46 -4 70 -12
73 -8 2 -13 -5 -13 -17z"/>
<path d="M567 1973 c-28 -46 -32 -73 -11 -80 9 -3 54 97 54 121 0 17 -18 1
-43 -41z"/>
<path d="M667 1718 c4 -24 10 -44 14 -46 4 -2 6 -9 3 -17 -8 -21 -33 -7 -27
16 8 31 -20 22 -40 -12 -19 -33 -16 -49 5 -31 9 7 17 6 26 -4 11 -12 10 -15
-2 -20 -18 -7 -21 -24 -5 -24 17 0 79 72 79 92 0 10 -7 18 -15 18 -8 0 -15 5
-15 10 0 6 9 10 20 10 11 0 20 5 20 10 0 6 -9 10 -20 10 -11 0 -20 7 -20 15 0
8 -6 15 -14 15 -11 0 -13 -10 -9 -42z"/>
<path d="M560 1723 c1 -18 38 -55 49 -49 19 12 12 36 -15 46 -30 12 -34 12
-34 3z"/>
<path d="M765 1708 c-41 -15 -41 -15 -15 -43 18 -20 21 -28 12 -37 -19 -19
-14 -29 13 -22 14 3 25 2 25 -4 0 -14 24 -22 49 -15 29 7 26 17 -10 30 -24 9
-30 16 -25 30 4 10 10 30 13 46 6 30 -8 34 -62 15z m29 -32 c-5 -13 -9 -14
-21 -4 -13 10 -13 13 4 19 23 8 25 6 17 -15z"/>
<path d="M530 1632 c0 -10 33 -42 44 -42 4 0 6 10 4 23 -2 14 -11 23 -25 25
-13 2 -23 -1 -23 -6z"/>
<path d="M680 1581 c0 -16 -6 -21 -25 -21 -14 0 -25 -4 -25 -10 0 -5 12 -10
28 -10 22 0 24 -2 12 -11 -11 -8 -12 -12 -2 -16 6 -2 12 -18 12 -35 0 -19 4
-28 13 -25 8 2 12 26 12 72 0 46 -4 70 -12 73 -8 2 -13 -5 -13 -17z"/>
<path d="M567 1523 c-28 -46 -32 -73 -11 -80 9 -3 54 97 54 121 0 17 -18 1
-43 -41z"/>
<path d="M667 1268 c4 -24 10 -44 14 -46 4 -2 6 -9 3 -17 -8 -21 -33 -7 -27
16 8 31 -20 22 -40 -12 -19 -33 -16 -49 5 -31 9 7 17 6 26 -4 11 -12 10 -15
-2 -20 -18 -7 -21 -24 -5 -24 17 0 79 72 79 92 0 10 -7 18 -15 18 -8 0 -15 5
-15 10 0 6 9 10 20 10 11 0 20 5 20 10 0 6 -9 10 -20 10 -11 0 -20 7 -20 15 0
8 -6 15 -14 15 -11 0 -13 -10 -9 -42z"/>
<path d="M560 1273 c1 -18 38 -55 49 -49 19 12 12 36 -15 46 -30 12 -34 12
-34 3z"/>
<path d="M765 1258 c-41 -15 -41 -15 -15 -43 18 -20 21 -28 12 -37 -19 -19
-14 -29 13 -22 14 3 25 2 25 -4 0 -14 24 -22 49 -15 29 7 26 17 -10 30 -24 9
-30 16 -25 30 4 10 10 30 13 46 6 30 -8 34 -62 15z m29 -32 c-5 -13 -9 -14
-21 -4 -13 10 -13 13 4 19 23 8 25 6 17 -15z"/>
<path d="M530 1182 c0 -10 33 -42 44 -42 4 0 6 10 4 23 -2 14 -11 23 -25 25
-13 2 -23 -1 -23 -6z"/>
<path d="M680 1131 c0 -16 -6 -21 -25 -21 -14 0 -25 -4 -25 -10 0 -5 12 -10
28 -10 22 0 24 -2 12 -11 -11 -8 -12 -12 -2 -16 19 -7 4 -23 -24 -23 -13 0
-24 -4 -24 -10 0 -5 13 -10 29 -10 16 0 31 -6 34 -12 3 -10 8 -10 16 -2 16 15
10 136 -6 142 -8 2 -13 -5 -13 -17z"/>
<path d="M567 1073 c-28 -46 -32 -73 -11 -80 9 -3 54 97 54 121 0 17 -18 1
-43 -41z"/>
<path d="M667 818 c4 -24 10 -44 14 -46 4 -2 6 -9 3 -17 -8 -21 -33 -7 -27 16
8 31 -20 22 -40 -12 -19 -33 -16 -49 5 -31 9 7 17 6 26 -4 11 -12 10 -15 -2
-20 -18 -7 -21 -24 -5 -24 17 0 79 72 79 92 0 10 -7 18 -15 18 -8 0 -15 5 -15
10 0 6 9 10 20 10 11 0 20 5 20 10 0 6 -9 10 -20 10 -11 0 -20 7 -20 15 0 8
-6 15 -14 15 -11 0 -13 -10 -9 -42z"/>
<path d="M560 823 c1 -18 38 -55 49 -49 19 12 12 36 -15 46 -30 12 -34 12 -34
3z"/>
<path d="M765 808 c-41 -15 -41 -15 -15 -43 19 -20 21 -27 10 -40 -7 -8 -19
-15 -27 -15 -10 0 -13 -6 -9 -16 3 -9 6 -45 6 -80 0 -35 4 -64 9 -64 5 0 12
34 16 76 7 80 21 99 51 69 9 -9 23 -14 31 -11 8 3 19 6 24 6 20 0 7 16 -22 27
-24 9 -30 16 -25 30 4 10 10 30 13 46 6 30 -8 34 -62 15z m29 -32 c-5 -13 -9
-14 -21 -4 -13 10 -13 13 4 19 23 8 25 6 17 -15z"/>
<path d="M530 732 c0 -10 33 -42 44 -42 4 0 6 10 4 23 -2 14 -11 23 -25 25
-13 2 -23 -1 -23 -6z"/>
<path d="M680 681 c0 -16 -6 -21 -25 -21 -14 0 -25 -4 -25 -10 0 -5 12 -10 28
-10 22 0 24 -2 12 -11 -11 -8 -12 -12 -2 -16 19 -7 4 -23 -24 -23 -13 0 -24
-4 -24 -10 0 -5 13 -10 29 -10 16 0 31 -6 34 -12 3 -10 8 -10 16 -2 16 15 10
136 -6 142 -8 2 -13 -5 -13 -17z"/>
<path d="M567 623 c-28 -46 -32 -73 -11 -80 9 -3 54 97 54 121 0 17 -18 1 -43
-41z"/>
<path d="M667 368 c4 -24 10 -44 14 -46 4 -2 6 -9 3 -17 -8 -21 -33 -7 -27 16
8 31 -20 22 -40 -12 -19 -33 -16 -49 5 -31 9 7 17 6 26 -4 11 -12 10 -15 -2
-20 -18 -7 -21 -24 -5 -24 17 0 79 72 79 92 0 10 -7 18 -15 18 -8 0 -15 5 -15
10 0 6 9 10 20 10 11 0 20 5 20 10 0 6 -9 10 -20 10 -11 0 -20 7 -20 15 0 8
-6 15 -14 15 -11 0 -13 -10 -9 -42z"/>
<path d="M560 373 c1 -18 38 -55 49 -49 19 12 12 36 -15 46 -30 12 -34 12 -34
3z"/>
<path d="M765 358 c-41 -15 -41 -15 -15 -43 19 -20 21 -27 10 -40 -7 -8 -19
-15 -27 -15 -10 0 -13 -6 -9 -16 3 -9 6 -45 6 -80 0 -36 4 -64 10 -64 6 0 10
15 10 34 0 50 9 66 36 66 13 0 24 5 24 10 0 6 -11 10 -25 10 -16 0 -25 6 -25
15 0 23 27 29 46 10 9 -9 23 -14 31 -11 8 3 19 6 24 6 20 0 7 16 -22 27 -24 9
-30 16 -25 30 4 10 10 30 13 46 6 30 -8 34 -62 15z m29 -32 c-5 -13 -9 -14
-21 -4 -13 10 -13 13 4 19 23 8 25 6 17 -15z"/>
<path d="M530 282 c0 -10 33 -42 44 -42 4 0 6 10 4 23 -2 14 -11 23 -25 25
-13 2 -23 -1 -23 -6z"/>
<path d="M680 231 c0 -16 -6 -21 -25 -21 -14 0 -25 -4 -25 -10 0 -5 12 -10 28
-10 22 0 24 -2 12 -11 -11 -8 -12 -12 -2 -16 19 -7 4 -23 -24 -23 -13 0 -24
-4 -24 -10 0 -5 13 -10 29 -10 16 0 31 -6 34 -12 3 -10 8 -10 16 -2 16 15 10
136 -6 142 -8 2 -13 -5 -13 -17z"/>
<path d="M567 173 c-28 -46 -32 -73 -11 -80 9 -3 54 97 54 121 0 17 -18 1 -43
-41z"/>
</g>
</svg>
