<?xml version="1.0" standalone="no"?>
<!DOCTYPE svg PUBLIC "-//W3C//DTD SVG 20010904//EN"
 "http://www.w3.org/TR/2001/REC-SVG-20010904/DTD/svg10.dtd">
<svg version="1.0" xmlns="http://www.w3.org/2000/svg"
 width="95.000000pt" height="725.000000pt" viewBox="0 0 95.000000 725.000000"
 preserveAspectRatio="xMidYMid meet">
<metadata>
Created by potrace 1.16, written by Peter Selinger 2001-2019
</metadata>
<g transform="translate(0.000000,725.000000) scale(0.100000,-0.100000)"
fill="#000000" stroke="none">
<path d="M318 7163 c-16 -2 -28 -9 -28 -14 0 -15 63 -6 68 9 2 6 0 11 -5 11
-4 -1 -20 -4 -35 -6z"/>
<path d="M208 7153 c-16 -2 -28 -9 -28 -14 0 -15 63 -6 68 9 2 6 0 11 -5 11
-4 -1 -20 -4 -35 -6z"/>
<path d="M100 7142 c0 -12 34 -42 48 -42 19 0 14 28 -7 40 -24 12 -41 13 -41
2z"/>
<path d="M550 7142 c0 -12 34 -42 48 -42 19 0 14 28 -7 40 -24 12 -41 13 -41
2z"/>
<path d="M338 7133 c-24 -6 -23 -23 0 -23 15 0 18 -6 14 -30 -6 -42 14 -38 28
6 10 30 10 38 -1 45 -8 5 -16 8 -19 8 -3 -1 -13 -3 -22 -6z"/>
<path d="M220 7110 c0 -5 5 -10 10 -10 6 0 10 -13 10 -29 0 -16 6 -32 13 -34
6 -3 -5 -6 -25 -6 -38 -1 -38 -1 -38 -45 0 -27 -9 -61 -25 -91 -14 -26 -23
-50 -20 -54 11 -11 46 41 58 86 11 41 37 60 37 27 0 -32 25 -6 28 29 4 44 19
50 19 7 0 -37 11 -50 24 -27 12 21 29 22 29 2 0 -22 17 -18 30 5 14 27 3 43
-26 37 -13 -2 -24 0 -24 4 0 5 9 9 21 9 12 0 19 5 16 13 -2 6 -16 11 -29 10
-21 -1 -25 2 -21 17 3 11 11 16 19 13 8 -3 14 1 14 11 0 9 -7 16 -15 16 -8 0
-15 5 -15 10 0 6 -7 10 -16 10 -12 0 -14 -7 -9 -30 5 -23 3 -30 -9 -30 -12 0
-14 7 -9 30 5 27 3 30 -21 30 -14 0 -26 -4 -26 -10z m20 -110 c0 -5 -4 -10
-10 -10 -5 0 -10 5 -10 10 0 6 5 10 10 10 6 0 10 -4 10 -10z"/>
<path d="M177 7078 c6 -35 11 -44 17 -37 2 2 6 19 9 37 6 27 4 32 -13 32 -17
0 -19 -5 -13 -32z"/>
<path d="M210 7065 c0 -8 5 -15 10 -15 6 0 10 7 10 15 0 8 -4 15 -10 15 -5 0
-10 -7 -10 -15z"/>
<path d="M90 7052 c0 -10 33 -42 44 -42 4 0 6 10 4 23 -2 14 -11 23 -25 25
-13 2 -23 -1 -23 -6z"/>
<path d="M112 6948 c-21 -33 -30 -58 -26 -70 3 -11 10 -18 16 -16 9 3 35 61
54 121 10 33 -11 16 -44 -35z"/>
<path d="M318 6713 c-16 -2 -28 -9 -28 -14 0 -15 63 -6 68 9 2 6 0 11 -5 11
-4 -1 -20 -4 -35 -6z"/>
<path d="M208 6703 c-16 -2 -28 -9 -28 -14 0 -15 63 -6 68 9 2 6 0 11 -5 11
-4 -1 -20 -4 -35 -6z"/>
<path d="M100 6692 c0 -12 34 -42 48 -42 19 0 14 28 -7 40 -24 12 -41 13 -41
2z"/>
<path d="M550 6692 c0 -12 34 -42 48 -42 19 0 14 28 -7 40 -24 12 -41 13 -41
2z"/>
<path d="M338 6683 c-24 -6 -23 -23 0 -23 15 0 18 -6 14 -30 -6 -42 14 -38 28
6 10 30 10 38 -1 45 -8 5 -16 8 -19 8 -3 -1 -13 -3 -22 -6z"/>
<path d="M220 6660 c0 -5 5 -10 10 -10 6 0 10 -13 10 -29 0 -16 6 -32 13 -34
6 -3 -5 -6 -25 -6 -38 -1 -38 -1 -38 -45 0 -27 -9 -61 -25 -91 -14 -26 -23
-50 -21 -53 10 -9 35 19 47 53 12 33 13 33 95 40 79 6 82 8 87 33 7 35 0 45
-29 39 -13 -2 -24 0 -24 4 0 5 9 9 21 9 12 0 19 5 16 13 -2 6 -16 11 -29 10
-21 -1 -25 2 -21 17 3 11 11 16 19 13 8 -3 14 1 14 11 0 9 -7 16 -15 16 -8 0
-15 5 -15 10 0 6 -7 10 -16 10 -12 0 -14 -7 -9 -30 5 -23 3 -30 -9 -30 -12 0
-14 7 -9 30 5 27 3 30 -21 30 -14 0 -26 -4 -26 -10z m67 -125 c1 -19 -3 -35
-8 -35 -5 0 -9 16 -9 35 0 19 4 35 8 35 4 0 8 -16 9 -35z m-47 15 c0 -5 -4
-10 -10 -10 -5 0 -10 5 -10 10 0 6 5 10 10 10 6 0 10 -4 10 -10z m100 -30 c0
-5 -7 -10 -16 -10 -8 0 -12 5 -9 10 3 6 10 10 16 10 5 0 9 -4 9 -10z m-100
-10 c0 -5 -7 -10 -15 -10 -8 0 -15 5 -15 10 0 6 7 10 15 10 8 0 15 -4 15 -10z"/>
<path d="M177 6628 c6 -35 11 -44 17 -37 2 2 6 19 9 37 6 27 4 32 -13 32 -17
0 -19 -5 -13 -32z"/>
<path d="M210 6615 c0 -8 5 -15 10 -15 6 0 10 7 10 15 0 8 -4 15 -10 15 -5 0
-10 -7 -10 -15z"/>
<path d="M90 6602 c0 -10 33 -42 44 -42 4 0 6 10 4 23 -2 14 -11 23 -25 25
-13 2 -23 -1 -23 -6z"/>
<path d="M540 6602 c0 -10 33 -42 44 -42 4 0 6 10 4 23 -2 14 -11 23 -25 25
-13 2 -23 -1 -23 -6z"/>
<path d="M112 6498 c-21 -33 -30 -58 -26 -70 3 -11 10 -18 16 -16 9 3 35 61
54 121 10 33 -11 16 -44 -35z"/>
<path d="M318 6263 c-16 -2 -28 -9 -28 -14 0 -15 63 -6 68 9 2 6 0 11 -5 11
-4 -1 -20 -4 -35 -6z"/>
<path d="M208 6253 c-16 -2 -28 -9 -28 -14 0 -15 63 -6 68 9 2 6 0 11 -5 11
-4 -1 -20 -4 -35 -6z"/>
<path d="M100 6242 c0 -12 34 -42 48 -42 19 0 14 28 -7 40 -24 12 -41 13 -41
2z"/>
<path d="M550 6242 c0 -12 34 -42 48 -42 19 0 14 28 -7 40 -24 12 -41 13 -41
2z"/>
<path d="M338 6233 c-24 -6 -23 -23 0 -23 15 0 18 -6 14 -30 -6 -42 14 -38 28
6 10 30 10 38 -1 45 -8 5 -16 8 -19 8 -3 -1 -13 -3 -22 -6z"/>
<path d="M220 6210 c0 -5 5 -10 10 -10 6 0 10 -13 10 -29 0 -16 6 -32 13 -34
6 -3 -5 -6 -25 -6 -38 -1 -38 -1 -38 -45 0 -27 -9 -61 -25 -91 -14 -26 -23
-50 -21 -53 10 -9 35 19 47 53 12 33 13 33 95 40 79 6 82 8 87 33 7 35 0 45
-29 39 -13 -2 -24 0 -24 4 0 5 9 9 21 9 12 0 19 5 16 13 -2 6 -16 11 -29 10
-21 -1 -25 2 -21 17 3 11 11 16 19 13 8 -3 14 1 14 11 0 9 -7 16 -15 16 -8 0
-15 5 -15 10 0 6 -7 10 -16 10 -12 0 -14 -7 -9 -30 5 -23 3 -30 -9 -30 -12 0
-14 7 -9 30 5 27 3 30 -21 30 -14 0 -26 -4 -26 -10z m67 -125 c1 -19 -3 -35
-8 -35 -5 0 -9 16 -9 35 0 19 4 35 8 35 4 0 8 -16 9 -35z m-47 15 c0 -5 -4
-10 -10 -10 -5 0 -10 5 -10 10 0 6 5 10 10 10 6 0 10 -4 10 -10z m100 -30 c0
-5 -7 -10 -16 -10 -8 0 -12 5 -9 10 3 6 10 10 16 10 5 0 9 -4 9 -10z m-100
-10 c0 -5 -7 -10 -15 -10 -8 0 -15 5 -15 10 0 6 7 10 15 10 8 0 15 -4 15 -10z"/>
<path d="M177 6178 c6 -35 11 -44 17 -37 2 2 6 19 9 37 6 27 4 32 -13 32 -17
0 -19 -5 -13 -32z"/>
<path d="M210 6165 c0 -8 5 -15 10 -15 6 0 10 7 10 15 0 8 -4 15 -10 15 -5 0
-10 -7 -10 -15z"/>
<path d="M90 6152 c0 -10 33 -42 44 -42 4 0 6 10 4 23 -2 14 -11 23 -25 25
-13 2 -23 -1 -23 -6z"/>
<path d="M540 6152 c0 -10 33 -42 44 -42 4 0 6 10 4 23 -2 14 -11 23 -25 25
-13 2 -23 -1 -23 -6z"/>
<path d="M112 6048 c-21 -33 -30 -58 -26 -70 3 -11 10 -18 16 -16 9 3 35 61
54 121 10 33 -11 16 -44 -35z"/>
<path d="M562 6048 c-21 -33 -30 -58 -26 -70 3 -11 10 -18 16 -16 9 3 35 61
54 121 10 33 -11 16 -44 -35z"/>
<path d="M240 6000 c0 -5 9 -10 20 -10 11 0 20 5 20 10 0 6 -9 10 -20 10 -11
0 -20 -4 -20 -10z"/>
<path d="M318 5813 c-16 -2 -28 -9 -28 -14 0 -15 63 -6 68 9 2 6 0 11 -5 11
-4 -1 -20 -4 -35 -6z"/>
<path d="M208 5803 c-16 -2 -28 -9 -28 -14 0 -15 63 -6 68 9 2 6 0 11 -5 11
-4 -1 -20 -4 -35 -6z"/>
<path d="M658 5803 c-16 -2 -28 -9 -28 -14 0 -15 63 -6 68 9 2 6 0 11 -5 11
-4 -1 -20 -4 -35 -6z"/>
<path d="M100 5792 c0 -12 34 -42 48 -42 19 0 14 28 -7 40 -24 12 -41 13 -41
2z"/>
<path d="M550 5792 c0 -12 34 -42 48 -42 19 0 14 28 -7 40 -24 12 -41 13 -41
2z"/>
<path d="M338 5783 c-24 -6 -23 -23 0 -23 15 0 18 -6 14 -30 -6 -42 14 -38 28
6 10 30 10 38 -1 45 -8 5 -16 8 -19 8 -3 -1 -13 -3 -22 -6z"/>
<path d="M220 5760 c0 -5 5 -10 10 -10 6 0 10 -13 10 -29 0 -16 6 -32 13 -34
6 -3 -5 -6 -25 -6 -38 -1 -38 -1 -38 -45 0 -27 -9 -61 -25 -91 -14 -26 -24
-50 -21 -52 10 -10 29 11 47 51 l19 41 0 -57 c0 -32 3 -58 8 -58 9 1 52 36 52
44 0 3 -7 6 -15 6 -8 0 -15 5 -15 10 0 6 9 10 20 10 11 0 20 5 20 10 0 6 -9
10 -20 10 -11 0 -20 4 -20 9 0 9 57 21 101 21 21 0 28 6 32 27 7 36 0 46 -29
40 -13 -2 -24 0 -24 4 0 5 9 9 21 9 12 0 19 5 16 13 -2 6 -16 11 -29 10 -21
-1 -25 2 -21 17 3 11 11 16 19 13 8 -3 14 1 14 11 0 9 -7 16 -15 16 -8 0 -15
5 -15 10 0 6 -7 10 -16 10 -12 0 -14 -7 -9 -30 5 -23 3 -30 -9 -30 -12 0 -14
7 -9 30 5 27 3 30 -21 30 -14 0 -26 -4 -26 -10z m67 -125 c1 -19 -3 -35 -8
-35 -5 0 -9 16 -9 35 0 19 4 35 8 35 4 0 8 -16 9 -35z m-47 15 c0 -5 -4 -10
-10 -10 -5 0 -10 5 -10 10 0 6 5 10 10 10 6 0 10 -4 10 -10z m100 -30 c0 -5
-7 -10 -16 -10 -8 0 -12 5 -9 10 3 6 10 10 16 10 5 0 9 -4 9 -10z m-100 -10
c0 -5 -7 -10 -15 -10 -8 0 -15 5 -15 10 0 6 7 10 15 10 8 0 15 -4 15 -10z"/>
<path d="M177 5728 c6 -35 11 -44 17 -37 2 2 6 19 9 37 6 27 4 32 -13 32 -17
0 -19 -5 -13 -32z"/>
<path d="M210 5715 c0 -8 5 -15 10 -15 6 0 10 7 10 15 0 8 -4 15 -10 15 -5 0
-10 -7 -10 -15z"/>
<path d="M90 5702 c0 -10 33 -42 44 -42 4 0 6 10 4 23 -2 14 -11 23 -25 25
-13 2 -23 -1 -23 -6z"/>
<path d="M540 5702 c0 -10 33 -42 44 -42 4 0 6 10 4 23 -2 14 -11 23 -25 25
-13 2 -23 -1 -23 -6z"/>
<path d="M112 5598 c-21 -33 -30 -58 -26 -70 3 -11 10 -18 16 -16 9 3 35 61
54 121 10 33 -11 16 -44 -35z"/>
<path d="M562 5598 c-21 -33 -30 -58 -26 -70 3 -11 10 -18 16 -16 9 3 35 61
54 121 10 33 -11 16 -44 -35z"/>
<path d="M318 5363 c-16 -2 -28 -9 -28 -14 0 -15 63 -6 68 9 2 6 0 11 -5 11
-4 -1 -20 -4 -35 -6z"/>
<path d="M208 5353 c-16 -2 -28 -9 -28 -14 0 -15 63 -6 68 9 2 6 0 11 -5 11
-4 -1 -20 -4 -35 -6z"/>
<path d="M658 5353 c-16 -2 -28 -9 -28 -14 0 -15 63 -6 68 9 2 6 0 11 -5 11
-4 -1 -20 -4 -35 -6z"/>
<path d="M100 5342 c0 -12 34 -42 48 -42 19 0 14 28 -7 40 -24 12 -41 13 -41
2z"/>
<path d="M550 5342 c0 -12 34 -42 48 -42 19 0 14 28 -7 40 -24 12 -41 13 -41
2z"/>
<path d="M338 5333 c-24 -6 -23 -23 0 -23 15 0 18 -6 14 -30 -6 -42 14 -38 28
6 10 30 10 38 -1 45 -8 5 -16 8 -19 8 -3 -1 -13 -3 -22 -6z"/>
<path d="M220 5310 c0 -5 5 -10 10 -10 6 0 10 -13 10 -29 0 -16 6 -32 13 -34
6 -3 -5 -6 -25 -6 -38 -1 -38 -1 -38 -45 0 -27 -9 -61 -25 -91 -14 -26 -24
-50 -21 -52 10 -10 29 11 47 51 l19 41 0 -57 c0 -32 3 -58 8 -58 9 1 52 36 52
44 0 3 -7 6 -15 6 -8 0 -15 5 -15 10 0 6 9 10 20 10 11 0 20 5 20 10 0 6 -9
10 -20 10 -11 0 -20 4 -20 9 0 9 57 21 101 21 21 0 28 6 32 27 7 36 0 46 -29
40 -13 -2 -24 0 -24 4 0 5 9 9 21 9 12 0 19 5 16 13 -2 6 -16 11 -29 10 -21
-1 -25 2 -21 17 3 11 11 16 19 13 8 -3 14 1 14 11 0 9 -7 16 -15 16 -8 0 -15
5 -15 10 0 6 -7 10 -16 10 -12 0 -14 -7 -9 -30 5 -23 3 -30 -9 -30 -12 0 -14
7 -9 30 5 27 3 30 -21 30 -14 0 -26 -4 -26 -10z m67 -125 c1 -19 -3 -35 -8
-35 -5 0 -9 16 -9 35 0 19 4 35 8 35 4 0 8 -16 9 -35z m-47 15 c0 -5 -4 -10
-10 -10 -5 0 -10 5 -10 10 0 6 5 10 10 10 6 0 10 -4 10 -10z m100 -30 c0 -5
-7 -10 -16 -10 -8 0 -12 5 -9 10 3 6 10 10 16 10 5 0 9 -4 9 -10z m-100 -10
c0 -5 -7 -10 -15 -10 -8 0 -15 5 -15 10 0 6 7 10 15 10 8 0 15 -4 15 -10z"/>
<path d="M177 5278 c6 -35 11 -44 17 -37 2 2 6 19 9 37 6 27 4 32 -13 32 -17
0 -19 -5 -13 -32z"/>
<path d="M624 5294 c3 -9 6 -24 6 -35 0 -10 5 -19 10 -19 6 0 10 16 10 35 0
25 -4 35 -16 35 -11 0 -14 -5 -10 -16z"/>
<path d="M210 5265 c0 -8 5 -15 10 -15 6 0 10 7 10 15 0 8 -4 15 -10 15 -5 0
-10 -7 -10 -15z"/>
<path d="M90 5252 c0 -10 33 -42 44 -42 4 0 6 10 4 23 -2 14 -11 23 -25 25
-13 2 -23 -1 -23 -6z"/>
<path d="M540 5252 c0 -10 33 -42 44 -42 4 0 6 10 4 23 -2 14 -11 23 -25 25
-13 2 -23 -1 -23 -6z"/>
<path d="M112 5148 c-21 -33 -30 -58 -26 -70 3 -11 10 -18 16 -16 9 3 35 61
54 121 10 33 -11 16 -44 -35z"/>
<path d="M562 5148 c-21 -33 -30 -58 -26 -70 3 -11 10 -18 16 -16 9 3 35 61
54 121 10 33 -11 16 -44 -35z"/>
<path d="M338 5113 c-20 -5 -24 -23 -5 -23 24 0 57 12 57 21 0 9 -22 10 -52 2z"/>
<path d="M318 4913 c-16 -2 -28 -9 -28 -14 0 -15 63 -6 68 9 2 6 0 11 -5 11
-4 -1 -20 -4 -35 -6z"/>
<path d="M208 4903 c-16 -2 -28 -9 -28 -14 0 -15 63 -6 68 9 2 6 0 11 -5 11
-4 -1 -20 -4 -35 -6z"/>
<path d="M658 4903 c-16 -2 -28 -9 -28 -14 0 -15 63 -6 68 9 2 6 0 11 -5 11
-4 -1 -20 -4 -35 -6z"/>
<path d="M100 4892 c0 -12 34 -42 48 -42 19 0 14 28 -7 40 -24 12 -41 13 -41
2z"/>
<path d="M550 4892 c0 -12 34 -42 48 -42 19 0 14 28 -7 40 -24 12 -41 13 -41
2z"/>
<path d="M338 4883 c-24 -6 -23 -23 0 -23 15 0 18 -6 14 -30 -6 -42 14 -38 28
6 10 30 10 38 -1 45 -8 5 -16 8 -19 8 -3 -1 -13 -3 -22 -6z"/>
<path d="M220 4860 c0 -5 5 -10 10 -10 6 0 10 -13 10 -29 0 -16 6 -32 13 -34
6 -3 -5 -6 -25 -6 -38 -1 -38 -1 -38 -45 0 -27 -9 -61 -25 -91 -14 -26 -24
-50 -21 -52 10 -10 29 11 47 51 l19 41 0 -57 c0 -32 3 -58 8 -58 9 1 52 36 52
44 0 3 -7 6 -15 6 -8 0 -15 5 -15 10 0 6 9 10 20 10 11 0 20 5 20 10 0 6 -9
10 -20 10 -11 0 -20 5 -20 10 0 6 14 10 30 10 29 0 30 -2 30 -45 0 -40 3 -47
27 -56 33 -12 97 1 100 21 2 8 -1 22 -6 29 -8 12 -13 11 -29 -9 -14 -18 -24
-22 -45 -16 -38 9 -34 33 8 40 19 4 35 12 35 18 0 6 -11 8 -30 5 -22 -5 -30
-3 -30 8 0 8 8 15 19 15 12 0 20 9 24 27 7 36 0 46 -29 40 -13 -2 -24 0 -24 4
0 5 9 9 21 9 12 0 19 5 16 13 -2 6 -16 11 -29 10 -21 -1 -25 2 -21 17 3 11 11
16 19 13 8 -3 14 1 14 11 0 9 -7 16 -15 16 -8 0 -15 5 -15 10 0 6 -7 10 -16
10 -12 0 -14 -7 -9 -30 5 -23 3 -30 -9 -30 -12 0 -14 7 -9 30 5 27 3 30 -21
30 -14 0 -26 -4 -26 -10z m67 -125 c1 -19 -3 -35 -8 -35 -5 0 -9 16 -9 35 0
19 4 35 8 35 4 0 8 -16 9 -35z m-47 15 c0 -5 -4 -10 -10 -10 -5 0 -10 5 -10
10 0 6 5 10 10 10 6 0 10 -4 10 -10z m100 -30 c0 -5 -7 -10 -16 -10 -8 0 -12
5 -9 10 3 6 10 10 16 10 5 0 9 -4 9 -10z m-100 -10 c0 -5 -7 -10 -15 -10 -8 0
-15 5 -15 10 0 6 7 10 15 10 8 0 15 -4 15 -10z"/>
<path d="M670 4860 c0 -5 5 -10 10 -10 6 0 10 -13 10 -30 0 -39 16 -39 24 1 9
47 8 49 -19 49 -14 0 -25 -4 -25 -10z"/>
<path d="M177 4828 c3 -18 7 -35 9 -37 6 -7 11 2 17 37 6 27 4 32 -13 32 -17
0 -19 -5 -13 -32z"/>
<path d="M627 4828 c3 -18 7 -35 9 -37 6 -7 11 2 17 37 6 27 4 32 -13 32 -17
0 -19 -5 -13 -32z"/>
<path d="M210 4815 c0 -8 5 -15 10 -15 6 0 10 7 10 15 0 8 -4 15 -10 15 -5 0
-10 -7 -10 -15z"/>
<path d="M90 4802 c0 -10 33 -42 44 -42 4 0 6 10 4 23 -2 14 -11 23 -25 25
-13 2 -23 -1 -23 -6z"/>
<path d="M540 4802 c0 -10 33 -42 44 -42 4 0 6 10 4 23 -2 14 -11 23 -25 25
-13 2 -23 -1 -23 -6z"/>
<path d="M112 4698 c-21 -33 -30 -58 -26 -70 3 -11 10 -18 16 -16 9 3 35 61
54 121 10 33 -11 16 -44 -35z"/>
<path d="M562 4698 c-21 -33 -30 -58 -26 -70 3 -11 10 -18 16 -16 9 3 35 61
54 121 10 33 -11 16 -44 -35z"/>
<path d="M658 4453 c-16 -2 -28 -9 -28 -14 0 -15 63 -6 68 9 2 6 0 11 -5 11
-4 -1 -20 -4 -35 -6z"/>
<path d="M550 4442 c0 -12 34 -42 48 -42 19 0 14 28 -7 40 -24 12 -41 13 -41
2z"/>
<path d="M670 4410 c0 -5 5 -10 10 -10 6 0 10 -13 10 -30 0 -39 16 -39 24 1 9
47 8 49 -19 49 -14 0 -25 -4 -25 -10z"/>
<path d="M627 4378 c6 -35 11 -44 17 -37 2 2 6 19 9 37 6 27 4 32 -13 32 -17
0 -19 -5 -13 -32z"/>
<path d="M660 4365 c0 -8 5 -15 10 -15 6 0 10 7 10 15 0 8 -4 15 -10 15 -5 0
-10 -7 -10 -15z"/>
<path d="M540 4352 c0 -10 33 -42 44 -42 4 0 6 10 4 23 -2 14 -11 23 -25 25
-13 2 -23 -1 -23 -6z"/>
<path d="M562 4248 c-21 -33 -30 -58 -26 -70 3 -11 10 -18 16 -16 9 3 35 61
54 121 10 33 -11 16 -44 -35z"/>
<path d="M768 4013 c-16 -2 -28 -9 -28 -14 0 -15 63 -6 68 9 2 6 0 11 -5 11
-4 -1 -20 -4 -35 -6z"/>
<path d="M658 4003 c-16 -2 -28 -9 -28 -14 0 -15 63 -6 68 9 2 6 0 11 -5 11
-4 -1 -20 -4 -35 -6z"/>
<path d="M550 3992 c0 -12 34 -42 48 -42 19 0 14 28 -7 40 -24 12 -41 13 -41
2z"/>
<path d="M670 3960 c0 -5 5 -10 10 -10 6 0 10 -13 10 -30 0 -39 16 -39 24 1 9
47 8 49 -19 49 -14 0 -25 -4 -25 -10z"/>
<path d="M627 3928 c3 -18 7 -35 9 -37 6 -7 11 2 17 37 6 27 4 32 -13 32 -17
0 -19 -5 -13 -32z"/>
<path d="M660 3915 c0 -8 5 -15 10 -15 6 0 10 7 10 15 0 8 -4 15 -10 15 -5 0
-10 -7 -10 -15z"/>
<path d="M540 3902 c0 -10 33 -42 44 -42 4 0 6 10 4 23 -2 14 -11 23 -25 25
-13 2 -23 -1 -23 -6z"/>
<path d="M562 3798 c-21 -33 -30 -58 -26 -70 3 -11 10 -18 16 -16 9 3 35 61
54 121 10 33 -11 16 -44 -35z"/>
<path d="M768 3563 c-16 -2 -28 -9 -28 -14 0 -15 63 -6 68 9 2 6 0 11 -5 11
-4 -1 -20 -4 -35 -6z"/>
<path d="M658 3553 c-16 -2 -28 -9 -28 -14 0 -15 63 -6 68 9 2 6 0 11 -5 11
-4 -1 -20 -4 -35 -6z"/>
<path d="M550 3542 c0 -12 34 -42 48 -42 19 0 14 28 -7 40 -24 12 -41 13 -41
2z"/>
<path d="M670 3510 c0 -5 5 -10 10 -10 6 0 10 -13 10 -30 0 -39 16 -39 24 1 9
47 8 49 -19 49 -14 0 -25 -4 -25 -10z"/>
<path d="M734 3498 c3 -13 6 -29 6 -35 0 -7 5 -13 10 -13 6 0 10 16 10 35 0
26 -4 35 -16 35 -12 0 -15 -6 -10 -22z"/>
<path d="M627 3478 c6 -35 11 -44 17 -37 2 2 6 19 9 37 6 27 4 32 -13 32 -17
0 -19 -5 -13 -32z"/>
<path d="M660 3465 c0 -8 5 -15 10 -15 6 0 10 7 10 15 0 8 -4 15 -10 15 -5 0
-10 -7 -10 -15z"/>
<path d="M540 3452 c0 -10 33 -42 44 -42 4 0 6 10 4 23 -2 14 -11 23 -25 25
-13 2 -23 -1 -23 -6z"/>
<path d="M562 3348 c-21 -33 -30 -58 -26 -70 3 -11 10 -18 16 -16 9 3 35 61
54 121 10 33 -11 16 -44 -35z"/>
<path d="M768 3113 c-16 -2 -28 -9 -28 -14 0 -15 63 -6 68 9 2 6 0 11 -5 11
-4 -1 -20 -4 -35 -6z"/>
<path d="M658 3103 c-16 -2 -28 -9 -28 -14 0 -15 63 -6 68 9 2 6 0 11 -5 11
-4 -1 -20 -4 -35 -6z"/>
<path d="M550 3092 c0 -12 34 -42 48 -42 19 0 14 28 -7 40 -24 12 -41 13 -41
2z"/>
<path d="M788 3083 c-24 -6 -23 -23 0 -23 15 0 18 -6 14 -30 -6 -42 14 -38 28
6 10 30 10 38 -1 45 -8 5 -16 8 -19 8 -3 -1 -13 -3 -22 -6z"/>
<path d="M670 3060 c0 -5 5 -10 10 -10 6 0 10 -13 10 -30 0 -39 16 -39 24 1 9
47 8 49 -19 49 -14 0 -25 -4 -25 -10z"/>
<path d="M734 3048 c3 -13 6 -29 6 -35 0 -7 5 -13 10 -13 6 0 10 16 10 35 0
26 -4 35 -16 35 -12 0 -15 -6 -10 -22z"/>
<path d="M627 3028 c6 -35 11 -44 17 -37 2 2 6 19 9 37 6 27 4 32 -13 32 -17
0 -19 -5 -13 -32z"/>
<path d="M660 3015 c0 -8 5 -15 10 -15 6 0 10 7 10 15 0 8 -4 15 -10 15 -5 0
-10 -7 -10 -15z"/>
<path d="M540 3002 c0 -10 33 -42 44 -42 4 0 6 10 4 23 -2 14 -11 23 -25 25
-13 2 -23 -1 -23 -6z"/>
<path d="M562 2898 c-21 -33 -30 -58 -26 -70 3 -11 10 -18 16 -16 9 3 35 61
54 121 10 33 -11 16 -44 -35z"/>
<path d="M768 2663 c-16 -2 -28 -9 -28 -14 0 -15 63 -6 68 9 2 6 0 11 -5 11
-4 -1 -20 -4 -35 -6z"/>
<path d="M658 2653 c-16 -2 -28 -9 -28 -14 0 -15 63 -6 68 9 2 6 0 11 -5 11
-4 -1 -20 -4 -35 -6z"/>
<path d="M550 2642 c0 -12 34 -42 48 -42 19 0 14 28 -7 40 -24 12 -41 13 -41
2z"/>
<path d="M788 2633 c-24 -6 -23 -23 0 -23 15 0 18 -6 14 -30 -6 -42 14 -38 28
6 10 30 10 38 -1 45 -8 5 -16 8 -19 8 -3 -1 -13 -3 -22 -6z"/>
<path d="M670 2610 c0 -5 5 -10 10 -10 6 0 10 -13 10 -30 0 -39 16 -39 24 1 9
47 8 49 -19 49 -14 0 -25 -4 -25 -10z"/>
<path d="M734 2598 c3 -13 6 -29 6 -35 0 -7 5 -13 10 -13 6 0 10 7 10 15 0 9
6 12 15 9 9 -4 15 0 15 10 0 9 -7 16 -15 16 -8 0 -15 5 -15 10 0 6 -7 10 -16
10 -12 0 -15 -6 -10 -22z"/>
<path d="M627 2578 c6 -35 11 -44 17 -37 2 2 6 19 9 37 6 27 4 32 -13 32 -17
0 -19 -5 -13 -32z"/>
<path d="M660 2565 c0 -8 5 -15 10 -15 6 0 10 7 10 15 0 8 -4 15 -10 15 -5 0
-10 -7 -10 -15z"/>
<path d="M540 2552 c0 -10 33 -42 44 -42 4 0 6 10 4 23 -2 14 -11 23 -25 25
-13 2 -23 -1 -23 -6z"/>
<path d="M562 2448 c-21 -33 -30 -58 -26 -70 3 -11 10 -18 16 -16 9 3 35 61
54 121 10 33 -11 16 -44 -35z"/>
<path d="M768 2213 c-16 -2 -28 -9 -28 -14 0 -15 63 -6 68 9 2 6 0 11 -5 11
-4 -1 -20 -4 -35 -6z"/>
<path d="M658 2203 c-16 -2 -28 -9 -28 -14 0 -15 63 -6 68 9 2 6 0 11 -5 11
-4 -1 -20 -4 -35 -6z"/>
<path d="M550 2192 c0 -12 34 -42 48 -42 19 0 14 28 -7 40 -24 12 -41 13 -41
2z"/>
<path d="M788 2183 c-24 -6 -23 -23 0 -23 15 0 18 -6 14 -30 -6 -42 14 -38 28
6 10 30 10 38 -1 45 -8 5 -16 8 -19 8 -3 -1 -13 -3 -22 -6z"/>
<path d="M670 2160 c0 -5 5 -10 10 -10 6 0 10 -13 10 -29 0 -23 5 -30 27 -35
26 -7 43 5 43 31 0 7 7 10 15 7 9 -4 15 0 15 10 0 9 -7 16 -15 16 -8 0 -15 5
-15 10 0 6 -7 10 -16 10 -12 0 -14 -7 -9 -30 5 -23 3 -30 -9 -30 -12 0 -14 7
-9 30 5 27 3 30 -21 30 -14 0 -26 -4 -26 -10z"/>
<path d="M627 2128 c6 -35 11 -44 17 -37 2 2 6 19 9 37 6 27 4 32 -13 32 -17
0 -19 -5 -13 -32z"/>
<path d="M660 2115 c0 -8 5 -15 10 -15 6 0 10 7 10 15 0 8 -4 15 -10 15 -5 0
-10 -7 -10 -15z"/>
<path d="M540 2102 c0 -10 33 -42 44 -42 4 0 6 10 4 23 -2 14 -11 23 -25 25
-13 2 -23 -1 -23 -6z"/>
<path d="M562 1998 c-21 -33 -30 -58 -26 -70 3 -11 10 -18 16 -16 9 3 35 61
54 121 10 33 -11 16 -44 -35z"/>
<path d="M768 1763 c-16 -2 -28 -9 -28 -14 0 -15 63 -6 68 9 2 6 0 11 -5 11
-4 -1 -20 -4 -35 -6z"/>
<path d="M658 1753 c-16 -2 -28 -9 -28 -14 0 -15 63 -6 68 9 2 6 0 11 -5 11
-4 -1 -20 -4 -35 -6z"/>
<path d="M550 1742 c0 -12 34 -42 48 -42 19 0 14 28 -7 40 -24 12 -41 13 -41
2z"/>
<path d="M788 1733 c-24 -6 -23 -23 0 -23 15 0 18 -6 14 -30 -6 -42 14 -38 28
6 10 30 10 38 -1 45 -8 5 -16 8 -19 8 -3 -1 -13 -3 -22 -6z"/>
<path d="M670 1710 c0 -5 5 -10 10 -10 6 0 10 -13 10 -29 0 -16 6 -32 13 -34
6 -3 -5 -6 -25 -6 -21 -1 -38 -6 -38 -12 0 -7 26 -8 83 -3 45 3 84 8 86 10 11
9 -15 25 -34 20 -19 -5 -22 -3 -18 13 3 12 11 17 19 14 8 -3 14 1 14 11 0 9
-7 16 -15 16 -8 0 -15 5 -15 10 0 6 -7 10 -16 10 -12 0 -14 -7 -9 -30 5 -23 3
-30 -9 -30 -12 0 -14 7 -9 30 5 27 3 30 -21 30 -14 0 -26 -4 -26 -10z"/>
<path d="M627 1678 c6 -35 11 -44 17 -37 2 2 6 19 9 37 6 27 4 32 -13 32 -17
0 -19 -5 -13 -32z"/>
<path d="M660 1665 c0 -8 5 -15 10 -15 6 0 10 7 10 15 0 8 -4 15 -10 15 -5 0
-10 -7 -10 -15z"/>
<path d="M540 1652 c0 -10 33 -42 44 -42 4 0 6 10 4 23 -2 14 -11 23 -25 25
-13 2 -23 -1 -23 -6z"/>
<path d="M562 1548 c-21 -33 -30 -58 -26 -70 3 -11 10 -18 16 -16 9 3 35 61
54 121 10 33 -11 16 -44 -35z"/>
<path d="M768 1313 c-16 -2 -28 -9 -28 -14 0 -15 63 -6 68 9 2 6 0 11 -5 11
-4 -1 -20 -4 -35 -6z"/>
<path d="M658 1303 c-16 -2 -28 -9 -28 -14 0 -15 63 -6 68 9 2 6 0 11 -5 11
-4 -1 -20 -4 -35 -6z"/>
<path d="M550 1292 c0 -12 34 -42 48 -42 19 0 14 28 -7 40 -24 12 -41 13 -41
2z"/>
<path d="M788 1283 c-24 -6 -23 -23 0 -23 15 0 18 -6 14 -30 -6 -42 14 -38 28
6 10 30 10 38 -1 45 -8 5 -16 8 -19 8 -3 -1 -13 -3 -22 -6z"/>
<path d="M670 1260 c0 -5 5 -10 10 -10 6 0 10 -13 10 -29 0 -16 6 -32 13 -34
6 -3 -5 -6 -25 -6 -38 -1 -38 -1 -38 -45 0 -27 -9 -61 -25 -91 -28 -52 -25
-74 6 -37 17 22 49 110 49 138 0 13 45 24 102 24 27 0 38 4 35 13 -2 6 -16 11
-29 10 -21 -1 -25 2 -21 17 3 11 11 16 19 13 8 -3 14 1 14 11 0 9 -7 16 -15
16 -8 0 -15 5 -15 10 0 6 -7 10 -16 10 -12 0 -14 -7 -9 -30 5 -23 3 -30 -9
-30 -12 0 -14 7 -9 30 5 27 3 30 -21 30 -14 0 -26 -4 -26 -10z"/>
<path d="M627 1228 c3 -18 7 -35 9 -37 6 -7 11 2 17 37 6 27 4 32 -13 32 -17
0 -19 -5 -13 -32z"/>
<path d="M660 1215 c0 -8 5 -15 10 -15 6 0 10 7 10 15 0 8 -4 15 -10 15 -5 0
-10 -7 -10 -15z"/>
<path d="M540 1202 c0 -10 33 -42 44 -42 4 0 6 10 4 23 -2 14 -11 23 -25 25
-13 2 -23 -1 -23 -6z"/>
<path d="M562 1098 c-21 -33 -30 -58 -26 -70 3 -11 10 -18 16 -16 9 3 35 61
54 121 10 33 -11 16 -44 -35z"/>
<path d="M768 863 c-16 -2 -28 -9 -28 -14 0 -15 63 -6 68 9 2 6 0 11 -5 11 -4
-1 -20 -4 -35 -6z"/>
<path d="M658 853 c-16 -2 -28 -9 -28 -14 0 -15 63 -6 68 9 2 6 0 11 -5 11 -4
-1 -20 -4 -35 -6z"/>
<path d="M550 842 c0 -12 34 -42 48 -42 19 0 14 28 -7 40 -24 12 -41 13 -41 2z"/>
<path d="M788 833 c-24 -6 -23 -23 0 -23 15 0 18 -6 14 -30 -6 -42 14 -38 28
6 10 30 10 38 -1 45 -8 5 -16 8 -19 8 -3 -1 -13 -3 -22 -6z"/>
<path d="M670 810 c0 -5 5 -10 10 -10 6 0 10 -13 10 -29 0 -16 6 -32 13 -34 6
-3 -5 -6 -25 -6 -38 -1 -38 -1 -38 -45 0 -27 -9 -61 -25 -91 -14 -26 -23 -50
-20 -54 11 -11 46 41 58 86 10 38 15 43 39 43 15 0 28 5 28 10 0 6 -11 10 -25
10 -14 0 -25 4 -25 9 0 11 50 21 102 21 27 0 38 4 35 13 -2 6 -16 11 -29 10
-21 -1 -25 2 -21 17 3 11 11 16 19 13 8 -3 14 1 14 11 0 9 -7 16 -15 16 -8 0
-15 5 -15 10 0 6 -7 10 -16 10 -12 0 -14 -7 -9 -30 5 -23 3 -30 -9 -30 -12 0
-14 7 -9 30 5 27 3 30 -21 30 -14 0 -26 -4 -26 -10z"/>
<path d="M627 778 c6 -35 11 -44 17 -37 2 2 6 19 9 37 6 27 4 32 -13 32 -17 0
-19 -5 -13 -32z"/>
<path d="M660 765 c0 -8 5 -15 10 -15 6 0 10 7 10 15 0 8 -4 15 -10 15 -5 0
-10 -7 -10 -15z"/>
<path d="M540 752 c0 -10 33 -42 44 -42 4 0 6 10 4 23 -2 14 -11 23 -25 25
-13 2 -23 -1 -23 -6z"/>
<path d="M758 703 c-37 -6 -36 -23 2 -23 20 0 30 -5 30 -15 0 -22 17 -18 30 5
19 36 6 43 -62 33z"/>
<path d="M562 648 c-21 -33 -30 -58 -26 -70 3 -11 10 -18 16 -16 9 3 35 61 54
121 10 33 -11 16 -44 -35z"/>
<path d="M768 413 c-16 -2 -28 -9 -28 -14 0 -15 63 -6 68 9 2 6 0 11 -5 11 -4
-1 -20 -4 -35 -6z"/>
<path d="M658 403 c-16 -2 -28 -9 -28 -14 0 -15 63 -6 68 9 2 6 0 11 -5 11 -4
-1 -20 -4 -35 -6z"/>
<path d="M550 392 c0 -12 34 -42 48 -42 19 0 14 28 -7 40 -24 12 -41 13 -41 2z"/>
<path d="M788 383 c-24 -6 -23 -23 0 -23 15 0 18 -6 14 -30 -6 -42 14 -38 28
6 10 30 10 38 -1 45 -8 5 -16 8 -19 8 -3 -1 -13 -3 -22 -6z"/>
<path d="M670 360 c0 -5 5 -10 10 -10 6 0 10 -13 10 -29 0 -16 6 -32 13 -34 6
-3 -5 -6 -25 -6 -38 -1 -38 -1 -38 -45 0 -27 -9 -61 -25 -91 -14 -26 -23 -50
-20 -54 11 -11 46 41 58 86 11 41 37 60 37 27 0 -32 25 -6 28 29 3 37 4 37 48
37 32 0 44 4 41 13 -2 6 -16 11 -29 10 -21 -1 -25 2 -21 17 3 11 11 16 19 13
8 -3 14 1 14 11 0 9 -7 16 -15 16 -8 0 -15 5 -15 10 0 6 -7 10 -16 10 -12 0
-14 -7 -9 -30 5 -23 3 -30 -9 -30 -12 0 -14 7 -9 30 5 27 3 30 -21 30 -14 0
-26 -4 -26 -10z m20 -110 c0 -5 -4 -10 -10 -10 -5 0 -10 5 -10 10 0 6 5 10 10
10 6 0 10 -4 10 -10z"/>
<path d="M627 328 c3 -18 7 -35 9 -37 6 -7 11 2 17 37 6 27 4 32 -13 32 -17 0
-19 -5 -13 -32z"/>
<path d="M660 315 c0 -8 5 -15 10 -15 6 0 10 7 10 15 0 8 -4 15 -10 15 -5 0
-10 -7 -10 -15z"/>
<path d="M540 302 c0 -10 33 -42 44 -42 4 0 6 10 4 23 -2 14 -11 23 -25 25
-13 2 -23 -1 -23 -6z"/>
<path d="M758 253 c-37 -6 -36 -23 2 -23 20 0 30 -5 30 -15 0 -22 17 -18 30 5
19 36 6 43 -62 33z"/>
<path d="M562 198 c-21 -33 -30 -58 -26 -70 3 -11 10 -18 16 -16 9 3 35 61 54
121 10 33 -11 16 -44 -35z"/>
</g>
</svg>
