<?xml version="1.0" standalone="no"?>
<!DOCTYPE svg PUBLIC "-//W3C//DTD SVG 20010904//EN"
 "http://www.w3.org/TR/2001/REC-SVG-20010904/DTD/svg10.dtd">
<svg version="1.0" xmlns="http://www.w3.org/2000/svg"
 width="50.000000pt" height="725.000000pt" viewBox="0 0 50.000000 725.000000"
 preserveAspectRatio="xMidYMid meet">
<metadata>
Created by potrace 1.16, written by Peter Selinger 2001-2019
</metadata>
<g transform="translate(0.000000,725.000000) scale(0.100000,-0.100000)"
fill="#000000" stroke="none">
<path d="M195 7149 c-4 -11 -20 -36 -37 -55 -17 -19 -28 -37 -25 -40 15 -15
124 87 113 105 -12 18 -44 12 -51 -10z"/>
<path d="M195 6699 c-4 -11 -20 -36 -37 -55 -39 -44 -29 -55 16 -20 19 14 45
26 57 26 22 0 22 0 -5 -29 -15 -16 -43 -37 -62 -47 -38 -21 -46 -39 -11 -28
38 11 70 31 116 72 51 44 49 66 -5 60 -25 -3 -31 -1 -23 9 6 7 8 17 4 23 -11
18 -43 11 -50 -11z"/>
<path d="M195 6249 c-4 -11 -20 -36 -37 -55 -39 -44 -29 -55 16 -20 19 14 45
26 57 26 22 0 22 0 -5 -29 -15 -16 -43 -37 -62 -47 -30 -16 -45 -34 -29 -34
13 0 81 32 96 45 14 14 20 12 57 -15 38 -27 72 -39 72 -24 0 20 -25 44 -56 54
l-36 12 22 23 c28 30 17 48 -26 43 -25 -3 -31 -1 -23 9 6 7 8 17 4 23 -11 18
-43 11 -50 -11z"/>
<path d="M195 5799 c-4 -11 -20 -36 -37 -55 -39 -44 -29 -55 16 -20 19 14 45
26 57 26 22 0 22 0 -5 -29 -15 -16 -43 -37 -62 -47 -30 -16 -45 -34 -29 -34
13 0 81 32 96 45 14 14 20 12 57 -15 38 -27 72 -39 72 -24 0 20 -25 44 -56 54
l-36 12 22 23 c28 30 17 48 -26 43 -25 -3 -31 -1 -23 9 6 7 8 17 4 23 -11 18
-43 11 -50 -11z"/>
<path d="M140 5614 c0 -16 23 -44 35 -44 18 0 20 21 3 38 -12 12 -38 17 -38 6z"/>
<path d="M195 5349 c-4 -11 -20 -36 -37 -55 -39 -44 -29 -55 16 -20 19 14 45
26 57 26 22 0 22 0 -5 -29 -15 -16 -43 -37 -62 -47 -30 -16 -45 -34 -29 -34
13 0 81 32 95 45 13 12 20 11 48 -7 l33 -20 -27 -35 c-14 -19 -23 -37 -20 -40
10 -10 59 20 64 40 2 9 11 17 18 17 33 0 2 46 -42 60 l-36 12 22 23 c28 30 17
48 -26 43 -25 -3 -31 -1 -23 9 6 7 8 17 4 23 -11 18 -43 11 -50 -11z"/>
<path d="M140 5164 c0 -16 23 -44 35 -44 18 0 20 21 3 38 -12 12 -38 17 -38 6z"/>
<path d="M195 4899 c-4 -11 -20 -36 -37 -55 -39 -44 -29 -55 16 -20 19 14 45
26 57 26 22 0 22 0 -5 -29 -15 -16 -43 -37 -62 -47 -19 -10 -34 -22 -34 -26 0
-11 6 -10 45 6 34 14 35 14 41 -9 11 -44 -23 -109 -70 -135 -32 -17 -34 -34
-3 -25 40 13 85 54 95 87 24 77 24 88 1 96 -17 7 -18 10 -7 19 10 9 21 7 46
-9 l33 -20 -27 -35 c-14 -19 -23 -37 -20 -40 10 -10 59 20 64 40 2 9 11 17 18
17 33 0 2 46 -42 60 l-36 12 22 23 c28 30 17 48 -26 43 -25 -3 -31 -1 -23 9 6
7 8 17 4 23 -11 18 -43 11 -50 -11z"/>
<path d="M140 4714 c0 -16 23 -44 35 -44 18 0 20 21 3 38 -12 12 -38 17 -38 6z"/>
<path d="M195 4449 c-4 -11 -20 -36 -37 -55 -39 -44 -29 -55 16 -20 19 14 45
26 57 26 22 0 22 0 -5 -29 -15 -16 -43 -37 -62 -47 -19 -10 -34 -22 -34 -26 0
-11 6 -10 45 6 32 14 35 13 40 -5 15 -45 -24 -115 -80 -146 -11 -7 -17 -14
-13 -18 10 -10 76 25 97 51 l18 23 44 -45 c38 -38 49 -44 86 -44 51 0 56 14
11 29 -47 16 -137 80 -133 94 16 54 15 68 -6 75 -17 7 -18 10 -7 19 10 9 21 7
46 -9 l33 -20 -27 -35 c-14 -19 -23 -37 -20 -40 10 -10 59 20 64 40 2 9 11 17
18 17 33 0 2 46 -42 60 l-36 12 22 23 c28 30 17 48 -26 43 -25 -3 -31 -1 -23
9 6 7 8 17 4 23 -11 18 -43 11 -50 -11z"/>
<path d="M140 4264 c0 -16 23 -44 35 -44 18 0 20 21 3 38 -12 12 -38 17 -38 6z"/>
</g>
</svg>
