<?xml version="1.0" standalone="no"?>
<!DOCTYPE svg PUBLIC "-//W3C//DTD SVG 20010904//EN"
 "http://www.w3.org/TR/2001/REC-SVG-20010904/DTD/svg10.dtd">
<svg version="1.0" xmlns="http://www.w3.org/2000/svg"
 width="50.000000pt" height="725.000000pt" viewBox="0 0 50.000000 725.000000"
 preserveAspectRatio="xMidYMid meet">
<metadata>
Created by potrace 1.16, written by Peter Selinger 2001-2019
</metadata>
<g transform="translate(0.000000,725.000000) scale(0.100000,-0.100000)"
fill="#000000" stroke="none">
<path d="M90 7049 c0 -17 20 -49 30 -49 14 0 12 34 -2 48 -15 15 -28 15 -28 1z"/>
<path d="M190 6610 c-7 -17 -10 -34 -6 -37 10 -10 59 43 52 56 -13 20 -33 11
-46 -19z"/>
<path d="M90 6599 c0 -17 20 -49 30 -49 14 0 12 34 -2 48 -15 15 -28 15 -28 1z"/>
<path d="M150 6173 c-1 -82 -16 -141 -46 -174 -28 -31 -7 -35 25 -5 17 16 34
47 40 72 7 28 23 55 43 73 18 16 28 33 24 39 -11 19 -32 14 -45 -10 -10 -20
-11 -15 -7 30 5 47 3 52 -14 52 -18 0 -20 -7 -20 -77z"/>
<path d="M90 6149 c0 -17 20 -49 30 -49 14 0 12 34 -2 48 -15 15 -28 15 -28 1z"/>
<path d="M150 5723 c-1 -82 -16 -141 -46 -174 -9 -10 -14 -22 -11 -26 9 -9 67
47 67 64 0 20 18 16 30 -7 13 -23 40 -27 40 -5 0 17 -35 55 -50 55 -16 0 2 32
33 60 18 16 27 32 23 38 -11 19 -32 14 -45 -10 -10 -20 -11 -15 -7 30 5 47 3
52 -14 52 -18 0 -20 -7 -20 -77z"/>
<path d="M90 5699 c0 -17 20 -49 30 -49 14 0 12 34 -2 48 -15 15 -28 15 -28 1z"/>
<path d="M303 5270 c-2 -73 1 -90 13 -90 11 0 14 17 16 75 0 41 1 81 2 87 1 7
-6 14 -14 16 -12 2 -15 -14 -17 -88z"/>
<path d="M150 5273 c-1 -82 -16 -141 -46 -174 -9 -10 -14 -22 -11 -26 9 -9 67
47 67 64 0 20 18 16 30 -7 13 -23 40 -27 40 -5 0 17 -35 55 -50 55 -16 0 2 32
33 60 18 16 27 32 23 38 -11 19 -32 14 -45 -10 -10 -20 -11 -15 -7 30 5 47 3
52 -14 52 -18 0 -20 -7 -20 -77z"/>
<path d="M90 5249 c0 -17 20 -49 30 -49 14 0 12 34 -2 48 -15 15 -28 15 -28 1z"/>
<path d="M303 4820 c-2 -73 1 -90 13 -90 11 0 14 17 16 75 0 41 1 81 2 87 1 7
-6 14 -14 16 -12 2 -15 -14 -17 -88z"/>
<path d="M150 4823 c-1 -82 -16 -141 -46 -174 -9 -10 -14 -22 -11 -26 9 -9 67
47 67 64 0 20 18 16 30 -7 13 -23 40 -27 40 -5 0 17 -35 55 -50 55 -16 0 2 32
33 60 18 16 27 32 23 38 -11 19 -32 14 -45 -10 -10 -20 -11 -15 -7 30 5 47 3
52 -14 52 -18 0 -20 -7 -20 -77z"/>
<path d="M241 4788 c-6 -17 -9 -33 -6 -36 9 -9 45 31 45 50 0 30 -27 21 -39
-14z"/>
<path d="M90 4799 c0 -17 20 -49 30 -49 14 0 12 34 -2 48 -15 15 -28 15 -28 1z"/>
<path d="M303 4370 c-2 -73 1 -90 13 -90 11 0 14 17 16 75 0 41 1 81 2 87 1 7
-6 14 -14 16 -12 2 -15 -14 -17 -88z"/>
<path d="M150 4373 c-1 -82 -16 -141 -46 -174 -9 -10 -14 -22 -11 -26 9 -9 67
47 67 64 0 20 18 16 30 -7 13 -23 40 -27 40 -5 0 17 -35 55 -50 55 -16 0 2 32
33 60 18 16 27 32 23 38 -11 19 -32 14 -45 -10 -10 -20 -11 -15 -7 30 5 47 3
52 -14 52 -18 0 -20 -7 -20 -77z"/>
<path d="M360 4372 c0 -12 44 -52 58 -52 19 0 14 38 -7 50 -24 12 -51 13 -51
2z"/>
<path d="M241 4338 c-6 -17 -9 -33 -6 -36 9 -9 45 31 45 50 0 30 -27 21 -39
-14z"/>
<path d="M90 4349 c0 -17 20 -49 30 -49 14 0 12 34 -2 48 -15 15 -28 15 -28 1z"/>
<path d="M303 3920 c-2 -73 1 -90 13 -90 11 0 14 17 16 75 0 41 1 81 2 87 1 7
-6 14 -14 16 -12 2 -15 -14 -17 -88z"/>
<path d="M150 3923 c-1 -82 -16 -141 -46 -174 -9 -10 -14 -22 -11 -26 9 -9 67
47 67 64 0 20 18 16 30 -7 13 -23 40 -27 40 -5 0 17 -35 55 -50 55 -16 0 2 32
33 60 18 16 27 32 23 38 -11 19 -32 14 -45 -10 -10 -20 -11 -15 -7 30 5 47 3
52 -14 52 -18 0 -20 -7 -20 -77z"/>
<path d="M360 3922 c0 -12 44 -52 58 -52 19 0 14 38 -7 50 -24 12 -51 13 -51
2z"/>
<path d="M241 3888 c-6 -17 -9 -33 -6 -36 9 -9 45 31 45 50 0 30 -27 21 -39
-14z"/>
<path d="M90 3899 c0 -17 20 -49 30 -49 14 0 12 34 -2 48 -15 15 -28 15 -28 1z"/>
<path d="M356 3855 c-7 -27 -81 -107 -131 -142 -41 -29 -26 -39 22 -15 40 21
114 89 141 130 11 18 12 25 2 37 -18 21 -27 19 -34 -10z"/>
</g>
</svg>
