<?xml version="1.0" standalone="no"?>
<!DOCTYPE svg PUBLIC "-//W3C//DTD SVG 20010904//EN"
 "http://www.w3.org/TR/2001/REC-SVG-20010904/DTD/svg10.dtd">
<svg version="1.0" xmlns="http://www.w3.org/2000/svg"
 width="50.000000pt" height="725.000000pt" viewBox="0 0 50.000000 725.000000"
 preserveAspectRatio="xMidYMid meet">
<metadata>
Created by potrace 1.16, written by Peter Selinger 2001-2019
</metadata>
<g transform="translate(0.000000,725.000000) scale(0.100000,-0.100000)"
fill="#000000" stroke="none">
<path d="M173 7118 c-71 -13 -71 -33 0 -24 72 10 97 17 97 27 0 11 -27 10 -97
-3z"/>
<path d="M173 6668 c-58 -10 -71 -28 -22 -28 l30 0 -22 -40 c-23 -40 -21 -62
4 -42 8 7 22 30 33 51 13 28 27 42 47 46 15 4 27 11 27 16 0 11 -26 10 -97 -3z"/>
<path d="M173 6218 c-58 -10 -71 -28 -22 -28 l30 0 -22 -40 c-25 -45 -17 -67
12 -32 10 13 26 22 35 20 13 -2 9 -13 -20 -57 -20 -30 -34 -56 -31 -59 8 -8
44 28 77 76 34 49 31 78 -6 68 -20 -5 -23 -3 -19 13 3 12 17 23 34 26 16 4 29
11 29 16 0 11 -26 10 -97 -3z"/>
<path d="M173 5768 c-58 -10 -71 -28 -22 -28 l30 0 -22 -40 -22 -39 24 -20
c24 -19 24 -19 5 -40 -11 -12 -16 -24 -13 -28 17 -17 113 108 103 134 -4 10
-14 13 -30 9 -20 -5 -23 -3 -19 13 3 12 17 23 34 26 16 4 29 11 29 16 0 11
-26 10 -97 -3z m41 -93 c-4 -8 -12 -15 -20 -15 -8 0 -14 7 -14 15 0 8 9 15 20
15 13 0 18 -5 14 -15z"/>
<path d="M173 5318 c-58 -10 -71 -28 -22 -28 l30 0 -22 -40 -22 -39 24 -20
c24 -19 24 -19 5 -40 -11 -12 -16 -24 -13 -28 17 -17 113 108 103 134 -4 10
-14 13 -30 9 -20 -5 -23 -3 -19 13 3 12 17 23 34 26 16 4 29 11 29 16 0 11
-26 10 -97 -3z m41 -93 c-4 -8 -12 -15 -20 -15 -8 0 -14 7 -14 15 0 8 9 15 20
15 13 0 18 -5 14 -15z"/>
<path d="M280 5234 c0 -73 24 -70 28 4 2 42 0 52 -12 52 -13 0 -16 -12 -16
-56z"/>
<path d="M339 4814 c2 -65 -1 -99 -8 -104 -17 -10 -2 -42 18 -38 13 3 16 22
19 121 2 107 1 117 -15 117 -16 0 -18 -9 -14 -96z"/>
<path d="M173 4868 c-58 -10 -71 -28 -22 -28 l30 0 -22 -40 -22 -39 24 -20
c24 -19 24 -19 5 -40 -11 -12 -16 -24 -13 -28 17 -17 113 108 103 134 -4 10
-14 13 -30 9 -20 -5 -23 -3 -19 13 3 12 17 23 34 26 16 4 29 11 29 16 0 11
-26 10 -97 -3z m41 -93 c-4 -8 -12 -15 -20 -15 -8 0 -14 7 -14 15 0 8 9 15 20
15 13 0 18 -5 14 -15z"/>
<path d="M280 4784 c0 -73 24 -70 28 4 2 42 0 52 -12 52 -13 0 -16 -12 -16
-56z"/>
<path d="M339 4364 c2 -65 -1 -99 -8 -104 -17 -10 -2 -42 18 -38 13 3 16 22
19 121 2 107 1 117 -15 117 -16 0 -18 -9 -14 -96z"/>
<path d="M173 4418 c-58 -10 -71 -28 -22 -28 l30 0 -22 -40 -22 -39 24 -20
c24 -19 24 -19 5 -40 -11 -12 -16 -24 -13 -28 17 -17 113 108 103 134 -4 10
-14 13 -30 9 -20 -5 -23 -3 -19 13 3 12 17 23 34 26 16 4 29 11 29 16 0 11
-26 10 -97 -3z m41 -93 c-4 -8 -12 -15 -20 -15 -8 0 -14 7 -14 15 0 8 9 15 20
15 13 0 18 -5 14 -15z"/>
<path d="M280 4334 c0 -73 24 -70 28 4 2 42 0 52 -12 52 -13 0 -16 -12 -16
-56z"/>
<path d="M103 4183 c-17 -35 -16 -53 1 -53 16 0 26 21 26 56 0 32 -12 30 -27
-3z"/>
<path d="M339 3914 c2 -65 -1 -99 -8 -104 -17 -10 -2 -42 18 -38 13 3 16 22
19 121 2 107 1 117 -15 117 -16 0 -18 -9 -14 -96z"/>
<path d="M173 3968 c-58 -10 -71 -28 -22 -28 l30 0 -22 -40 -22 -39 24 -20
c24 -19 24 -19 5 -40 -11 -12 -16 -24 -13 -28 17 -17 113 108 103 134 -4 10
-14 13 -30 9 -20 -5 -23 -3 -19 13 3 12 17 23 34 26 16 4 29 11 29 16 0 11
-26 10 -97 -3z m41 -93 c-4 -8 -12 -15 -20 -15 -8 0 -14 7 -14 15 0 8 9 15 20
15 13 0 18 -5 14 -15z"/>
<path d="M280 3884 c0 -73 24 -70 28 4 2 42 0 52 -12 52 -13 0 -16 -12 -16
-56z"/>
<path d="M103 3733 c-17 -35 -16 -53 1 -53 16 0 26 21 26 56 0 32 -12 30 -27
-3z"/>
<path d="M180 3756 c0 -20 22 -56 35 -56 20 0 19 24 -1 44 -14 15 -34 21 -34
12z"/>
<path d="M339 3464 c2 -65 -1 -99 -8 -104 -17 -10 -2 -42 18 -38 13 3 16 22
19 121 2 107 1 117 -15 117 -16 0 -18 -9 -14 -96z"/>
<path d="M173 3518 c-58 -10 -71 -28 -22 -28 l30 0 -22 -40 -22 -39 24 -20
c24 -19 24 -19 5 -40 -11 -12 -16 -24 -13 -28 17 -17 113 108 103 134 -4 10
-14 13 -30 9 -20 -5 -23 -3 -19 13 3 12 17 23 34 26 16 4 29 11 29 16 0 11
-26 10 -97 -3z m41 -93 c-4 -8 -12 -15 -20 -15 -8 0 -14 7 -14 15 0 8 9 15 20
15 13 0 18 -5 14 -15z"/>
<path d="M280 3434 c0 -73 24 -70 28 4 2 42 0 52 -12 52 -13 0 -16 -12 -16
-56z"/>
<path d="M103 3283 c-17 -35 -16 -53 1 -53 16 0 26 21 26 56 0 32 -12 30 -27
-3z"/>
<path d="M180 3306 c0 -20 22 -56 35 -56 20 0 19 24 -1 44 -14 15 -34 21 -34
12z"/>
<path d="M260 3305 c0 -16 26 -55 37 -55 16 0 17 32 1 48 -12 12 -38 17 -38 7z"/>
<path d="M339 3014 c2 -65 -1 -99 -8 -104 -17 -10 -2 -42 18 -38 13 3 16 22
19 121 2 107 1 117 -15 117 -16 0 -18 -9 -14 -96z"/>
<path d="M173 3068 c-58 -10 -71 -28 -22 -28 l30 0 -22 -40 -22 -39 24 -20
c24 -19 24 -19 5 -40 -11 -12 -16 -24 -13 -28 17 -17 113 108 103 134 -4 10
-14 13 -30 9 -20 -5 -23 -3 -19 13 3 12 17 23 34 26 16 4 29 11 29 16 0 11
-26 10 -97 -3z m41 -93 c-4 -8 -12 -15 -20 -15 -8 0 -14 7 -14 15 0 8 9 15 20
15 13 0 18 -5 14 -15z"/>
<path d="M280 2984 c0 -73 24 -70 28 4 2 42 0 52 -12 52 -13 0 -16 -12 -16
-56z"/>
<path d="M103 2833 c-17 -35 -16 -53 1 -53 16 0 26 21 26 56 0 32 -12 30 -27
-3z"/>
<path d="M180 2856 c0 -20 22 -56 35 -56 20 0 19 24 -1 44 -14 15 -34 21 -34
12z"/>
<path d="M260 2855 c0 -16 26 -55 37 -55 16 0 17 32 1 48 -12 12 -38 17 -38 7z"/>
<path d="M350 2854 c0 -15 43 -64 56 -64 22 0 17 37 -8 54 -23 16 -48 21 -48
10z"/>
</g>
</svg>
