<?xml version="1.0" standalone="no"?>
<!DOCTYPE svg PUBLIC "-//W3C//DTD SVG 20010904//EN"
 "http://www.w3.org/TR/2001/REC-SVG-20010904/DTD/svg10.dtd">
<svg version="1.0" xmlns="http://www.w3.org/2000/svg"
 width="50.000000pt" height="725.000000pt" viewBox="0 0 50.000000 725.000000"
 preserveAspectRatio="xMidYMid meet">
<metadata>
Created by potrace 1.16, written by Peter Selinger 2001-2019
</metadata>
<g transform="translate(0.000000,725.000000) scale(0.100000,-0.100000)"
fill="#000000" stroke="none">
<path d="M80 7036 c0 -14 24 -56 32 -56 17 0 3 55 -14 58 -10 2 -18 1 -18 -2z"/>
<path d="M178 6615 c-6 -14 -8 -28 -4 -32 10 -10 50 33 42 46 -11 18 -26 13
-38 -14z"/>
<path d="M80 6586 c0 -14 24 -56 32 -56 17 0 3 55 -14 58 -10 2 -18 1 -18 -2z"/>
<path d="M138 6175 c5 -83 -3 -124 -33 -169 -27 -40 -29 -46 -16 -46 23 0 61
56 71 107 8 38 20 63 38 79 22 19 25 25 14 36 -11 11 -16 10 -28 -6 -13 -18
-14 -17 -14 22 0 34 -4 42 -18 42 -16 0 -17 -8 -14 -65z"/>
<path d="M80 6136 c0 -14 24 -56 32 -56 17 0 3 55 -14 58 -10 2 -18 1 -18 -2z"/>
<path d="M138 5725 c5 -83 -3 -124 -33 -169 -14 -20 -25 -39 -25 -41 0 -13 21
-2 47 25 26 27 32 29 43 15 7 -8 16 -15 21 -15 17 0 9 29 -12 44 -18 12 -20
21 -15 51 4 22 19 47 34 60 22 20 25 26 14 37 -11 11 -16 10 -28 -6 -13 -18
-14 -17 -14 22 0 34 -4 42 -18 42 -16 0 -17 -8 -14 -65z"/>
<path d="M80 5686 c0 -14 24 -56 32 -56 17 0 3 55 -14 58 -10 2 -18 1 -18 -2z"/>
<path d="M254 5333 c-3 -10 -14 -36 -24 -57 -22 -43 -20 -56 5 -36 18 15 55
83 55 100 0 17 -30 11 -36 -7z"/>
<path d="M138 5275 c5 -83 -3 -124 -33 -169 -14 -20 -25 -39 -25 -41 0 -13 21
-2 47 25 26 27 32 29 43 15 7 -8 16 -15 21 -15 17 0 9 29 -12 44 -18 12 -20
21 -15 51 4 22 19 47 34 60 22 20 25 26 14 37 -11 11 -16 10 -28 -6 -13 -18
-14 -17 -14 22 0 34 -4 42 -18 42 -16 0 -17 -8 -14 -65z"/>
<path d="M80 5236 c0 -14 24 -56 32 -56 17 0 3 55 -14 58 -10 2 -18 1 -18 -2z"/>
<path d="M254 4883 c-3 -10 -14 -36 -24 -57 -26 -51 -16 -60 19 -18 25 29 61
44 61 24 0 -15 -56 -88 -85 -111 -34 -26 -27 -38 12 -18 33 18 60 47 99 105
31 49 23 65 -27 55 -24 -5 -27 -3 -22 16 7 26 -25 30 -33 4z"/>
<path d="M138 4825 c5 -83 -3 -124 -33 -169 -14 -20 -25 -39 -25 -41 0 -13 21
-2 47 25 26 27 32 29 43 15 7 -8 16 -15 21 -15 17 0 9 29 -12 44 -18 12 -20
21 -15 51 4 22 19 47 34 60 22 20 25 26 14 37 -11 11 -16 10 -28 -6 -13 -18
-14 -17 -14 22 0 34 -4 42 -18 42 -16 0 -17 -8 -14 -65z"/>
<path d="M80 4786 c0 -14 24 -56 32 -56 17 0 3 55 -14 58 -10 2 -18 1 -18 -2z"/>
<path d="M254 4433 c-3 -10 -13 -34 -22 -53 -9 -19 -18 -39 -20 -44 -3 -4 4
-5 14 -2 11 3 26 1 34 -4 12 -9 9 -16 -23 -46 -21 -20 -36 -38 -34 -41 7 -6
61 22 76 41 12 14 17 13 48 -14 35 -31 43 -34 81 -24 30 9 28 21 -6 29 -15 3
-42 14 -60 25 l-32 20 27 41 c30 46 21 62 -28 52 -24 -5 -27 -3 -22 16 7 26
-25 30 -33 4z m56 -51 c0 -5 -6 -16 -12 -25 -16 -20 -44 -7 -35 17 6 16 47 23
47 8z"/>
<path d="M138 4375 c5 -83 -3 -124 -33 -169 -14 -20 -25 -39 -25 -41 0 -13 21
-2 47 25 26 27 32 29 43 15 7 -8 16 -15 21 -15 17 0 9 29 -12 44 -18 12 -20
21 -15 51 4 22 19 47 34 60 22 20 25 26 14 37 -11 11 -16 10 -28 -6 -13 -18
-14 -17 -14 22 0 34 -4 42 -18 42 -16 0 -17 -8 -14 -65z"/>
<path d="M80 4336 c0 -14 24 -56 32 -56 17 0 3 55 -14 58 -10 2 -18 1 -18 -2z"/>
<path d="M254 3983 c-3 -10 -13 -34 -22 -53 -9 -19 -18 -39 -20 -44 -3 -4 4
-5 14 -2 11 3 26 1 34 -4 12 -9 9 -16 -23 -46 -21 -20 -36 -38 -34 -41 7 -6
61 22 76 41 12 14 17 13 48 -14 35 -31 43 -34 81 -24 30 9 28 21 -6 29 -15 3
-42 14 -60 25 l-32 20 27 41 c30 46 21 62 -28 52 -24 -5 -27 -3 -22 16 7 26
-25 30 -33 4z m56 -51 c0 -5 -6 -16 -12 -25 -16 -20 -44 -7 -35 17 6 16 47 23
47 8z"/>
<path d="M138 3925 c5 -83 -3 -124 -33 -169 -14 -20 -25 -39 -25 -41 0 -13 21
-2 47 25 26 27 32 29 43 15 7 -8 16 -15 21 -15 17 0 9 29 -12 44 -18 12 -20
21 -15 51 4 22 19 47 34 60 22 20 25 26 14 37 -11 11 -16 10 -28 -6 -13 -18
-14 -17 -14 22 0 34 -4 42 -18 42 -16 0 -17 -8 -14 -65z"/>
<path d="M80 3886 c0 -14 24 -56 32 -56 17 0 3 55 -14 58 -10 2 -18 1 -18 -2z"/>
<path d="M223 3776 c3 -8 9 -31 13 -50 3 -20 10 -36 15 -36 12 0 11 57 -1 81
-12 22 -35 26 -27 5z"/>
<path d="M254 3533 c-3 -10 -13 -34 -22 -53 -9 -19 -18 -39 -20 -44 -3 -4 4
-5 14 -2 11 3 26 1 34 -4 12 -9 9 -16 -23 -46 -21 -20 -36 -38 -34 -41 7 -6
47 15 73 38 20 19 21 19 43 -5 22 -24 22 -24 2 -31 -11 -3 -38 -7 -61 -8 -27
-1 -39 -5 -36 -13 3 -7 8 -29 12 -48 9 -48 24 -46 24 4 0 39 1 40 36 40 34 0
35 -1 29 -30 -10 -45 14 -38 32 9 12 30 23 42 44 46 37 8 37 22 1 30 -15 3
-42 14 -60 25 l-32 20 27 41 c30 46 21 62 -28 52 -24 -5 -27 -3 -22 16 7 26
-25 30 -33 4z m56 -51 c0 -5 -6 -16 -12 -25 -16 -20 -44 -7 -35 17 6 16 47 23
47 8z"/>
<path d="M138 3475 c5 -83 -3 -124 -33 -169 -14 -20 -25 -39 -25 -41 0 -13 21
-2 47 25 26 27 32 29 43 15 7 -8 16 -15 21 -15 17 0 9 29 -12 44 -18 12 -20
21 -15 51 4 22 19 47 34 60 22 20 25 26 14 37 -11 11 -16 10 -28 -6 -13 -18
-14 -17 -14 22 0 34 -4 42 -18 42 -16 0 -17 -8 -14 -65z"/>
<path d="M80 3436 c0 -14 24 -56 32 -56 17 0 3 55 -14 58 -10 2 -18 1 -18 -2z"/>
<path d="M254 3083 c-3 -10 -13 -34 -22 -53 -9 -19 -18 -39 -20 -44 -3 -4 4
-5 14 -2 11 3 26 1 34 -4 12 -9 9 -16 -23 -46 -21 -20 -36 -38 -34 -41 7 -6
47 15 73 38 20 19 21 19 43 -5 22 -24 22 -24 2 -31 -11 -3 -38 -7 -61 -8 -27
-1 -39 -5 -36 -13 3 -7 8 -29 12 -49 5 -26 11 -35 21 -31 8 3 31 6 52 6 35 0
37 2 49 44 10 37 16 45 42 51 38 8 39 22 2 30 -15 3 -42 14 -60 25 l-32 20 27
41 c30 46 21 62 -28 52 -24 -5 -27 -3 -22 16 7 26 -25 30 -33 4z m56 -51 c0
-5 -6 -16 -12 -25 -16 -20 -44 -7 -35 17 6 16 47 23 47 8z m20 -171 c0 -27
-15 -41 -41 -41 -24 0 -29 4 -29 25 0 22 4 25 35 25 19 0 35 -4 35 -9z"/>
<path d="M138 3025 c5 -83 -3 -124 -33 -169 -14 -20 -25 -39 -25 -41 0 -13 21
-2 47 25 26 27 32 29 43 15 7 -8 16 -15 21 -15 17 0 9 29 -12 44 -18 12 -20
21 -15 51 4 22 19 47 34 60 22 20 25 26 14 37 -11 11 -16 10 -28 -6 -13 -18
-14 -17 -14 22 0 34 -4 42 -18 42 -16 0 -17 -8 -14 -65z"/>
<path d="M80 2986 c0 -14 24 -56 32 -56 17 0 3 55 -14 58 -10 2 -18 1 -18 -2z"/>
</g>
</svg>
