<?xml version="1.0" standalone="no"?>
<!DOCTYPE svg PUBLIC "-//W3C//DTD SVG 20010904//EN"
 "http://www.w3.org/TR/2001/REC-SVG-20010904/DTD/svg10.dtd">
<svg version="1.0" xmlns="http://www.w3.org/2000/svg"
 width="50.000000pt" height="725.000000pt" viewBox="0 0 50.000000 725.000000"
 preserveAspectRatio="xMidYMid meet">
<metadata>
Created by potrace 1.16, written by Peter Selinger 2001-2019
</metadata>
<g transform="translate(0.000000,725.000000) scale(0.100000,-0.100000)"
fill="#000000" stroke="none">
<path d="M80 7011 c0 -22 25 -39 38 -27 8 8 -10 38 -26 44 -7 2 -12 -6 -12
-17z"/>
<path d="M162 6599 c-7 -12 -11 -23 -9 -26 9 -9 47 17 47 32 0 22 -23 18 -38
-6z"/>
<path d="M80 6561 c0 -22 25 -39 38 -27 8 8 -10 38 -26 44 -7 2 -12 -6 -12
-17z"/>
<path d="M125 6137 c0 -88 -3 -107 -23 -141 -26 -43 -22 -58 8 -31 20 18 34
55 45 117 3 23 14 42 25 48 11 6 20 17 20 25 0 18 -26 20 -33 3 -3 -7 -6 8 -6
35 -1 38 -4 47 -18 47 -16 0 -18 -12 -18 -103z"/>
<path d="M80 6111 c0 -22 25 -39 38 -27 8 8 -10 38 -26 44 -7 2 -12 -6 -12
-17z"/>
<path d="M125 5687 c0 -88 -3 -107 -23 -141 -13 -21 -20 -41 -17 -45 9 -9 55
47 55 66 0 15 2 15 18 0 23 -21 32 -21 32 -3 0 8 -9 21 -21 30 -17 11 -20 20
-14 45 4 17 15 36 26 41 10 6 19 17 19 25 0 18 -26 20 -33 3 -3 -7 -6 8 -6 35
-1 38 -4 47 -18 47 -16 0 -18 -12 -18 -103z"/>
<path d="M80 5661 c0 -22 25 -39 38 -27 8 8 -10 38 -26 44 -7 2 -12 -6 -12
-17z"/>
<path d="M290 5352 c0 -5 6 -17 14 -28 12 -15 17 -16 27 -7 10 10 9 15 -1 28
-13 16 -40 21 -40 7z"/>
<path d="M125 5237 c0 -88 -3 -107 -23 -141 -13 -21 -20 -41 -17 -45 9 -9 55
47 55 66 0 15 2 15 18 0 23 -21 32 -21 32 -3 0 8 -9 21 -21 30 -17 11 -20 20
-14 45 4 17 15 36 26 41 10 6 19 17 19 25 0 18 -26 20 -33 3 -3 -7 -6 8 -6 35
-1 38 -4 47 -18 47 -16 0 -18 -12 -18 -103z"/>
<path d="M80 5211 c0 -22 25 -39 38 -27 8 8 -10 38 -26 44 -7 2 -12 -6 -12
-17z"/>
<path d="M296 4885 c6 -23 3 -25 -25 -25 -17 0 -31 -5 -31 -11 0 -11 78 -6
138 8 32 7 27 23 -7 23 -16 0 -34 7 -41 15 -21 25 -41 19 -34 -10z"/>
<path d="M125 4787 c0 -88 -3 -107 -23 -141 -13 -21 -20 -41 -17 -45 9 -9 55
47 55 66 0 15 2 15 18 0 23 -21 32 -21 32 -3 0 8 -9 21 -21 30 -17 11 -20 20
-14 45 4 17 15 36 26 41 10 6 19 17 19 25 0 18 -26 20 -33 3 -3 -7 -6 8 -6 35
-1 38 -4 47 -18 47 -16 0 -18 -12 -18 -103z"/>
<path d="M80 4761 c0 -22 25 -39 38 -27 8 8 -10 38 -26 44 -7 2 -12 -6 -12
-17z"/>
<path d="M296 4435 c5 -22 3 -25 -19 -25 -49 0 -57 -9 -57 -64 0 -28 -5 -68
-11 -89 l-10 -37 -25 17 c-19 14 -23 24 -19 48 3 17 14 36 25 44 11 7 20 20
20 27 0 17 -27 18 -33 2 -3 -7 -6 8 -6 35 -1 38 -4 47 -18 47 -16 0 -18 -12
-18 -103 0 -88 -3 -107 -23 -141 -13 -21 -20 -41 -17 -45 9 -8 55 46 55 65 0
12 4 12 24 -3 23 -17 24 -20 9 -41 -19 -30 -9 -41 17 -17 24 21 38 65 54 158
14 79 7 74 119 92 44 7 50 25 8 25 -16 0 -34 7 -41 15 -21 25 -41 19 -34 -10z"/>
<path d="M80 4311 c0 -22 25 -39 38 -27 8 8 -10 38 -26 44 -7 2 -12 -6 -12
-17z"/>
<path d="M296 3985 c5 -22 3 -25 -19 -25 -49 0 -57 -9 -57 -64 0 -28 -5 -68
-11 -89 l-10 -37 -25 17 c-19 14 -23 24 -19 48 3 17 14 36 25 44 11 7 20 20
20 27 0 17 -27 18 -33 2 -3 -7 -6 8 -6 35 -1 38 -4 47 -18 47 -16 0 -18 -12
-18 -103 0 -88 -3 -107 -23 -141 -13 -21 -20 -41 -17 -45 9 -8 55 46 55 65 0
12 4 12 24 -3 23 -17 24 -20 9 -41 -21 -34 -5 -42 22 -10 13 15 30 56 38 93 9
37 17 68 19 70 2 1 27 5 56 9 l52 7 -6 -41 c-9 -55 11 -52 25 4 6 25 11 48 11
51 0 4 -32 4 -71 0 -65 -7 -71 -6 -67 11 3 18 22 25 111 39 44 7 50 25 8 25
-16 0 -34 7 -41 15 -21 25 -41 19 -34 -10z"/>
<path d="M80 3861 c0 -22 25 -39 38 -27 8 8 -10 38 -26 44 -7 2 -12 -6 -12
-17z"/>
<path d="M296 3535 c5 -22 3 -25 -19 -25 -49 0 -57 -9 -57 -64 0 -28 -5 -68
-11 -89 l-10 -37 -25 17 c-19 14 -23 24 -19 48 3 17 14 36 25 44 11 7 20 20
20 27 0 17 -27 18 -33 2 -3 -7 -6 8 -6 35 -1 38 -4 47 -18 47 -16 0 -18 -12
-18 -103 0 -88 -3 -107 -23 -141 -13 -21 -20 -41 -17 -45 9 -8 55 46 55 65 0
12 4 12 24 -3 23 -17 24 -20 9 -41 -8 -13 -12 -26 -9 -29 13 -13 47 34 62 84
11 37 21 53 32 53 9 0 34 3 55 6 30 5 37 4 37 -10 0 -23 17 -20 23 4 3 14 14
20 32 20 17 0 25 5 22 13 -2 6 -13 11 -25 10 -16 -2 -19 2 -15 18 6 21 4 21
-66 14 -67 -7 -73 -6 -69 11 3 18 22 25 111 39 44 7 50 25 8 25 -16 0 -34 7
-41 15 -21 25 -41 19 -34 -10z m64 -104 c0 -14 -10 -18 -68 -26 -45 -6 -51 -5
-46 9 5 13 20 17 97 24 9 1 17 -2 17 -7z"/>
<path d="M80 3411 c0 -22 25 -39 38 -27 8 8 -10 38 -26 44 -7 2 -12 -6 -12
-17z"/>
<path d="M296 3085 c5 -22 3 -25 -19 -25 -49 0 -57 -9 -57 -64 0 -28 -5 -68
-11 -89 l-10 -37 -25 17 c-19 14 -23 24 -19 48 3 17 14 36 25 44 11 7 20 20
20 27 0 17 -27 18 -33 2 -3 -7 -6 8 -6 35 -1 38 -4 47 -18 47 -16 0 -18 -12
-18 -103 0 -88 -3 -107 -23 -141 -13 -21 -20 -41 -17 -45 9 -8 55 46 55 65 0
12 4 12 24 -3 23 -17 24 -20 9 -41 -8 -13 -12 -26 -9 -29 13 -13 47 34 62 83
l15 52 51 6 c27 4 53 5 55 2 13 -12 -12 -26 -48 -26 -21 0 -39 -4 -39 -10 0
-5 24 -10 54 -10 52 0 55 1 58 28 2 21 9 28 31 30 16 2 26 8 24 15 -2 7 -13
11 -25 10 -16 -2 -19 2 -15 18 6 21 4 21 -66 14 -67 -7 -73 -6 -69 11 3 18 22
25 111 39 44 7 50 25 8 25 -16 0 -34 7 -41 15 -21 25 -41 19 -34 -10z m64
-104 c0 -14 -10 -18 -68 -26 -45 -6 -51 -5 -46 9 5 13 20 17 97 24 9 1 17 -2
17 -7z"/>
<path d="M80 2961 c0 -22 25 -39 38 -27 8 8 -10 38 -26 44 -7 2 -12 -6 -12
-17z"/>
<path d="M296 2635 c5 -22 3 -25 -19 -25 -49 0 -57 -9 -57 -64 0 -28 -5 -68
-11 -89 l-10 -37 -25 17 c-19 14 -23 24 -19 48 3 17 14 36 25 44 11 7 20 20
20 27 0 17 -27 18 -33 2 -3 -7 -6 8 -6 35 -1 38 -4 47 -18 47 -16 0 -18 -12
-18 -103 0 -88 -3 -107 -23 -141 -13 -21 -20 -41 -17 -45 9 -8 55 46 55 65 0
12 4 12 24 -3 23 -17 24 -20 9 -41 -8 -13 -12 -26 -9 -29 13 -13 47 34 62 84
14 48 18 53 45 53 16 0 29 -4 29 -10 0 -5 -9 -10 -20 -10 -11 0 -20 -4 -20
-10 0 -5 7 -10 15 -10 8 0 15 -3 15 -6 0 -11 -23 -50 -43 -71 -11 -13 -17 -26
-14 -30 11 -10 58 38 73 75 11 23 21 32 38 32 19 0 25 6 28 28 2 21 9 28 31
30 16 2 26 8 24 15 -2 7 -13 11 -25 10 -15 -2 -19 2 -15 17 5 17 0 20 -31 20
-26 0 -34 4 -30 14 3 8 -2 16 -13 19 -11 3 -6 5 12 6 66 3 108 31 46 31 -16 0
-34 7 -41 15 -21 25 -41 19 -34 -10z m-6 -49 c0 -2 3 -11 6 -20 5 -12 0 -16
-20 -16 -24 0 -35 18 -19 33 7 8 33 10 33 3z m70 -56 c0 -12 -28 -25 -36 -17
-9 9 6 27 22 27 8 0 14 -5 14 -10z m-62 -12 c-3 -7 -17 -14 -31 -16 -21 -3
-26 0 -21 12 7 19 58 22 52 4z m50 -40 c-6 -18 -28 -21 -28 -4 0 9 7 16 16 16
9 0 14 -5 12 -12z"/>
<path d="M80 2511 c0 -22 25 -39 38 -27 8 8 -10 38 -26 44 -7 2 -12 -6 -12
-17z"/>
<path d="M296 2185 c5 -22 3 -25 -19 -25 -49 0 -57 -9 -57 -64 0 -28 -5 -68
-11 -89 l-10 -37 -25 17 c-19 14 -23 24 -19 48 3 17 14 36 25 44 11 7 20 20
20 27 0 17 -27 18 -33 2 -3 -7 -6 8 -6 35 -1 38 -4 47 -18 47 -16 0 -18 -12
-18 -103 0 -88 -3 -107 -23 -141 -13 -21 -20 -41 -17 -45 9 -8 55 46 55 65 0
12 4 12 24 -3 23 -17 24 -20 9 -41 -8 -13 -12 -26 -9 -29 13 -13 47 34 62 84
14 48 18 53 45 53 16 0 29 -4 29 -10 0 -5 -9 -10 -20 -10 -11 0 -20 -4 -20
-10 0 -5 7 -10 15 -10 8 0 15 -3 15 -6 0 -11 -23 -50 -43 -71 -11 -13 -17 -26
-14 -30 9 -9 65 45 73 70 5 17 11 13 35 -27 24 -38 34 -46 59 -46 41 0 38 21
-5 44 -19 11 -42 30 -50 42 -14 22 -14 24 4 24 14 0 21 8 23 28 2 21 9 28 31
30 16 2 26 8 24 15 -2 7 -13 11 -25 10 -15 -2 -19 2 -15 17 5 17 0 20 -31 20
-26 0 -34 4 -30 14 3 8 -2 16 -13 19 -11 3 -6 5 12 6 66 3 108 31 46 31 -16 0
-34 7 -41 15 -21 25 -41 19 -34 -10z m-6 -49 c0 -2 3 -11 6 -20 5 -12 0 -16
-20 -16 -24 0 -35 18 -19 33 7 8 33 10 33 3z m70 -56 c0 -12 -28 -25 -36 -17
-9 9 6 27 22 27 8 0 14 -5 14 -10z m-62 -12 c-3 -7 -17 -14 -31 -16 -21 -3
-26 0 -21 12 7 19 58 22 52 4z m50 -40 c-6 -18 -28 -21 -28 -4 0 9 7 16 16 16
9 0 14 -5 12 -12z"/>
<path d="M80 2061 c0 -22 25 -39 38 -27 8 8 -10 38 -26 44 -7 2 -12 -6 -12
-17z"/>
</g>
</svg>
