<?xml version="1.0" standalone="no"?>
<!DOCTYPE svg PUBLIC "-//W3C//DTD SVG 20010904//EN"
 "http://www.w3.org/TR/2001/REC-SVG-20010904/DTD/svg10.dtd">
<svg version="1.0" xmlns="http://www.w3.org/2000/svg"
 width="50.000000pt" height="725.000000pt" viewBox="0 0 50.000000 725.000000"
 preserveAspectRatio="xMidYMid meet">
<metadata>
Created by potrace 1.16, written by Peter Selinger 2001-2019
</metadata>
<g transform="translate(0.000000,725.000000) scale(0.100000,-0.100000)"
fill="#000000" stroke="none">
<path d="M84 7028 c3 -13 6 -26 6 -30 0 -5 7 -8 15 -8 18 0 20 31 3 48 -19 19
-31 14 -24 -10z"/>
<path d="M171 6604 c-6 -15 -9 -29 -6 -32 9 -10 48 35 41 47 -11 18 -22 13
-35 -15z"/>
<path d="M84 6578 c3 -13 6 -26 6 -30 0 -5 7 -8 15 -8 18 0 20 31 3 48 -19 19
-31 14 -24 -10z"/>
<path d="M137 6187 c6 -76 -11 -167 -39 -202 -25 -32 -16 -45 13 -19 27 23 49
74 49 111 0 16 11 39 27 55 21 22 24 31 15 40 -10 10 -15 10 -22 -2 -7 -11
-10 -3 -10 26 0 37 -11 54 -35 54 -1 0 0 -28 2 -63z"/>
<path d="M84 6128 c3 -13 6 -26 6 -30 0 -5 7 -8 15 -8 18 0 20 31 3 48 -19 19
-31 14 -24 -10z"/>
<path d="M137 5737 c6 -76 -11 -167 -39 -202 -11 -14 -17 -29 -13 -33 9 -10
65 54 65 75 0 15 1 15 18 0 24 -22 32 -21 32 2 0 11 -9 23 -20 26 -28 9 -25
44 7 77 21 22 24 31 15 40 -10 10 -15 10 -22 -2 -7 -11 -10 -3 -10 26 0 37
-11 54 -35 54 -1 0 0 -28 2 -63z"/>
<path d="M84 5678 c3 -13 6 -26 6 -30 0 -5 7 -8 15 -8 18 0 20 31 3 48 -19 19
-31 14 -24 -10z"/>
<path d="M137 5287 c6 -76 -11 -167 -39 -202 -11 -14 -17 -29 -13 -33 9 -10
65 54 65 75 0 15 1 15 18 0 24 -22 32 -21 32 2 0 11 -9 23 -20 26 -29 9 -25
44 10 82 27 29 36 33 129 44 56 7 101 17 101 21 0 20 -227 -11 -241 -33 -6 -9
-9 -1 -9 27 0 37 -11 54 -35 54 -1 0 0 -28 2 -63z"/>
<path d="M84 5228 c3 -13 6 -26 6 -30 0 -5 7 -8 15 -8 18 0 20 31 3 48 -19 19
-31 14 -24 -10z"/>
<path d="M137 4837 c6 -76 -11 -167 -39 -202 -11 -14 -17 -29 -13 -33 9 -10
65 54 65 75 0 15 1 15 18 0 24 -22 32 -21 32 2 0 11 -9 23 -20 26 -50 16 7
107 73 118 34 5 37 4 37 -19 0 -13 5 -24 10 -24 6 0 10 11 10 24 0 26 21 36
78 36 17 0 32 5 32 11 0 8 -17 10 -55 6 -53 -5 -55 -5 -55 19 0 15 -6 24 -16
24 -12 0 -15 -7 -12 -24 6 -28 -7 -36 -52 -36 -16 0 -36 -7 -44 -16 -15 -14
-16 -12 -16 24 0 35 -11 52 -35 52 -1 0 0 -28 2 -63z"/>
<path d="M84 4778 c3 -13 6 -26 6 -30 0 -5 7 -8 15 -8 18 0 20 31 3 48 -19 19
-31 14 -24 -10z"/>
<path d="M338 4439 c-4 -40 -28 -52 -28 -15 0 17 -5 26 -16 26 -12 0 -15 -7
-12 -24 6 -28 -7 -36 -52 -36 -16 0 -36 -7 -44 -16 -15 -14 -16 -12 -16 24 0
35 -11 52 -35 52 -1 0 0 -28 2 -63 6 -76 -11 -167 -39 -202 -11 -14 -17 -29
-13 -33 9 -10 65 54 65 75 0 15 1 15 18 0 24 -22 32 -21 32 2 0 11 -9 23 -20
26 -50 16 7 107 73 118 34 5 37 4 37 -19 0 -13 5 -24 10 -24 6 0 10 11 10 25
0 14 5 25 10 25 6 0 10 -7 10 -15 0 -22 21 -18 27 5 4 14 14 20 34 20 16 0 29
5 29 10 0 6 -11 10 -24 10 -19 0 -25 6 -28 27 -4 39 -26 40 -30 2z"/>
<path d="M84 4328 c3 -13 6 -26 6 -30 0 -5 7 -8 15 -8 18 0 20 31 3 48 -19 19
-31 14 -24 -10z"/>
<path d="M338 3989 c-4 -40 -28 -52 -28 -15 0 17 -5 26 -16 26 -12 0 -15 -7
-12 -24 6 -28 -7 -36 -52 -36 -16 0 -36 -7 -44 -16 -15 -14 -16 -12 -16 24 0
35 -11 52 -35 52 -1 0 0 -28 2 -63 6 -76 -11 -167 -39 -202 -11 -14 -17 -29
-13 -33 9 -10 65 54 65 75 0 15 1 15 18 0 24 -22 32 -21 32 2 0 11 -9 23 -20
26 -50 16 7 107 73 118 34 5 37 4 37 -20 0 -19 4 -24 16 -19 9 3 24 6 35 6 14
0 19 7 19 25 0 21 5 25 30 25 17 0 30 5 30 10 0 6 -11 10 -24 10 -19 0 -25 6
-28 27 -4 39 -26 40 -30 2z m-8 -69 c0 -5 -4 -10 -10 -10 -5 0 -10 5 -10 10 0
6 5 10 10 10 6 0 10 -4 10 -10z"/>
<path d="M84 3878 c3 -13 6 -26 6 -30 0 -5 7 -8 15 -8 18 0 20 31 3 48 -19 19
-31 14 -24 -10z"/>
<path d="M338 3539 c-4 -40 -28 -52 -28 -15 0 17 -5 26 -16 26 -12 0 -15 -7
-12 -24 3 -15 0 -27 -8 -30 -7 -3 -14 4 -16 16 -5 32 -28 35 -28 4 0 -16 -6
-26 -14 -26 -8 0 -22 -7 -30 -16 -15 -14 -16 -12 -16 24 0 35 -11 52 -35 52
-1 0 0 -28 2 -63 6 -76 -11 -167 -39 -202 -11 -14 -17 -29 -13 -33 9 -10 65
54 65 75 0 15 1 15 18 0 24 -22 32 -21 32 2 0 11 -9 23 -20 26 -29 9 -25 44
10 83 40 44 53 42 45 -7 -7 -43 0 -53 33 -44 25 6 30 23 6 23 -11 0 -14 8 -12
32 4 40 28 51 28 13 0 -21 4 -26 16 -21 9 3 24 6 35 6 14 0 19 7 19 25 0 21 5
25 30 25 17 0 30 5 30 10 0 6 -11 10 -24 10 -19 0 -25 6 -28 27 -4 39 -26 40
-30 2z m-8 -69 c0 -5 -4 -10 -10 -10 -5 0 -10 5 -10 10 0 6 5 10 10 10 6 0 10
-4 10 -10z"/>
<path d="M84 3428 c3 -13 6 -26 6 -30 0 -5 7 -8 15 -8 18 0 20 31 3 48 -19 19
-31 14 -24 -10z"/>
<path d="M300 3410 c0 -5 23 -10 50 -10 28 0 50 5 50 10 0 6 -22 10 -50 10
-27 0 -50 -4 -50 -10z"/>
<path d="M338 3089 c-4 -40 -28 -52 -28 -15 0 17 -5 26 -16 26 -12 0 -15 -7
-12 -24 3 -15 0 -27 -8 -30 -7 -3 -14 4 -16 16 -5 32 -28 35 -28 4 0 -16 -6
-26 -14 -26 -8 0 -22 -7 -30 -16 -15 -14 -16 -12 -16 24 0 35 -11 52 -35 52
-1 0 0 -28 2 -63 6 -76 -11 -167 -39 -202 -11 -14 -17 -29 -13 -33 9 -10 65
54 65 75 0 15 1 15 18 0 24 -22 32 -21 32 2 0 11 -9 23 -20 26 -29 9 -25 44
10 83 40 44 53 42 45 -7 -7 -43 0 -53 33 -44 25 6 30 23 6 23 -11 0 -14 8 -12
32 4 40 28 51 28 13 0 -21 4 -26 16 -21 9 3 24 6 35 6 14 0 19 7 19 25 0 21 5
25 30 25 17 0 30 5 30 10 0 6 -11 10 -24 10 -19 0 -25 6 -28 27 -4 39 -26 40
-30 2z m-8 -69 c0 -5 -4 -10 -10 -10 -5 0 -10 5 -10 10 0 6 5 10 10 10 6 0 10
-4 10 -10z"/>
<path d="M84 2978 c3 -13 6 -26 6 -30 0 -5 7 -8 15 -8 18 0 20 31 3 48 -19 19
-31 14 -24 -10z"/>
<path d="M300 2960 c0 -5 23 -10 50 -10 28 0 50 5 50 10 0 6 -22 10 -50 10
-27 0 -50 -4 -50 -10z"/>
<path d="M287 2910 c-65 -8 -86 -15 -76 -24 2 -2 53 -2 112 1 72 4 106 10 104
17 -5 14 -54 16 -140 6z"/>
<path d="M338 2639 c-4 -40 -28 -52 -28 -15 0 17 -5 26 -16 26 -12 0 -15 -7
-12 -24 3 -15 0 -27 -8 -30 -7 -3 -14 4 -16 16 -5 32 -28 35 -28 4 0 -16 -6
-26 -14 -26 -8 0 -22 -7 -30 -16 -15 -14 -16 -12 -16 24 0 35 -11 52 -35 52
-1 0 0 -28 2 -63 6 -76 -11 -167 -39 -202 -11 -14 -17 -29 -13 -33 9 -10 65
54 65 75 0 15 1 15 18 0 24 -22 32 -21 32 2 0 11 -9 23 -20 26 -29 9 -25 44
10 83 40 43 51 41 48 -10 -3 -43 -3 -43 30 -40 23 2 32 -1 32 -11 0 -10 -15
-17 -45 -21 -25 -4 -45 -12 -45 -18 0 -7 16 -9 45 -5 l45 7 0 -56 c0 -73 24
-70 28 4 l3 52 50 0 c36 0 49 4 46 13 -2 7 -22 12 -50 11 -39 0 -47 3 -47 18
0 14 8 18 35 18 20 0 35 5 35 11 0 9 -21 10 -71 6 l-70 -6 3 31 c4 40 28 50
28 13 0 -21 4 -26 16 -21 9 3 24 6 35 6 14 0 19 7 19 25 0 21 5 25 30 25 17 0
30 5 30 10 0 6 -11 10 -24 10 -19 0 -25 6 -28 27 -4 39 -26 40 -30 2z m-8 -69
c0 -5 -4 -10 -10 -10 -5 0 -10 5 -10 10 0 6 5 10 10 10 6 0 10 -4 10 -10z"/>
<path d="M84 2528 c3 -13 6 -26 6 -30 0 -5 7 -8 15 -8 18 0 20 31 3 48 -19 19
-31 14 -24 -10z"/>
<path d="M338 2189 c-4 -40 -28 -52 -28 -15 0 17 -5 26 -16 26 -12 0 -15 -7
-12 -24 3 -15 0 -27 -8 -30 -7 -3 -14 4 -16 16 -5 32 -28 35 -28 4 0 -16 -6
-26 -14 -26 -8 0 -22 -7 -30 -16 -15 -14 -16 -12 -16 24 0 35 -11 52 -35 52
-1 0 0 -28 2 -63 6 -76 -11 -167 -39 -202 -11 -14 -17 -29 -13 -33 9 -10 65
54 65 75 0 15 1 15 18 0 24 -22 32 -21 32 2 0 11 -9 23 -20 26 -29 9 -25 44
10 83 40 43 51 41 48 -10 -3 -43 -3 -43 30 -40 23 2 32 -1 32 -11 0 -10 -15
-17 -45 -21 -25 -4 -45 -12 -45 -18 0 -7 16 -9 45 -5 l45 7 0 -56 c0 -73 24
-70 28 4 l3 52 50 0 c36 0 49 4 46 13 -2 7 -22 12 -50 11 -39 0 -47 3 -47 18
0 14 8 18 35 18 20 0 35 5 35 11 0 9 -21 10 -71 6 l-70 -6 3 31 c4 40 28 50
28 13 0 -21 4 -26 16 -21 9 3 24 6 35 6 14 0 19 7 19 25 0 21 5 25 30 25 17 0
30 5 30 10 0 6 -11 10 -24 10 -19 0 -25 6 -28 27 -4 39 -26 40 -30 2z m-8 -69
c0 -5 -4 -10 -10 -10 -5 0 -10 5 -10 10 0 6 5 10 10 10 6 0 10 -4 10 -10z"/>
<path d="M84 2078 c3 -13 6 -26 6 -30 0 -5 7 -8 15 -8 18 0 20 31 3 48 -19 19
-31 14 -24 -10z"/>
<path d="M231 1939 c-13 -17 -20 -33 -17 -37 9 -9 60 32 64 52 6 27 -23 18
-47 -15z"/>
<path d="M338 1739 c-4 -40 -28 -52 -28 -15 0 17 -5 26 -16 26 -12 0 -15 -7
-12 -24 3 -15 0 -27 -8 -30 -7 -3 -14 4 -16 16 -5 32 -28 35 -28 4 0 -16 -6
-26 -14 -26 -8 0 -22 -7 -30 -16 -15 -14 -16 -12 -16 24 0 35 -11 52 -35 52
-1 0 0 -28 2 -63 6 -76 -11 -167 -39 -202 -11 -14 -17 -29 -13 -33 9 -10 65
54 65 75 0 15 1 15 18 0 24 -22 32 -21 32 2 0 11 -9 23 -20 26 -29 9 -25 44
10 83 40 43 51 41 48 -10 -3 -43 -3 -43 30 -40 23 2 32 -1 32 -11 0 -10 -15
-17 -45 -21 -25 -4 -45 -12 -45 -18 0 -7 16 -9 45 -5 l45 7 0 -56 c0 -73 24
-70 28 4 l3 52 50 0 c36 0 49 4 46 13 -2 7 -22 12 -50 11 -39 0 -47 3 -47 18
0 14 8 18 35 18 20 0 35 5 35 11 0 9 -21 10 -71 6 l-70 -6 3 31 c4 40 28 50
28 13 0 -21 4 -26 16 -21 9 3 24 6 35 6 14 0 19 7 19 25 0 21 5 25 30 25 17 0
30 5 30 10 0 6 -11 10 -24 10 -19 0 -25 6 -28 27 -4 39 -26 40 -30 2z m-8 -69
c0 -5 -4 -10 -10 -10 -5 0 -10 5 -10 10 0 6 5 10 10 10 6 0 10 -4 10 -10z"/>
<path d="M84 1628 c3 -13 6 -26 6 -30 0 -5 7 -8 15 -8 18 0 20 31 3 48 -19 19
-31 14 -24 -10z"/>
<path d="M231 1489 c-13 -17 -20 -33 -17 -37 9 -9 60 32 64 52 6 27 -23 18
-47 -15z"/>
<path d="M360 1507 c0 -14 41 -57 53 -57 16 0 5 40 -15 54 -27 19 -38 20 -38
3z"/>
</g>
</svg>
