<?xml version="1.0" standalone="no"?>
<!DOCTYPE svg PUBLIC "-//W3C//DTD SVG 20010904//EN"
 "http://www.w3.org/TR/2001/REC-SVG-20010904/DTD/svg10.dtd">
<svg version="1.0" xmlns="http://www.w3.org/2000/svg"
 width="50.000000pt" height="725.000000pt" viewBox="0 0 50.000000 725.000000"
 preserveAspectRatio="xMidYMid meet">
<metadata>
Created by potrace 1.16, written by Peter Selinger 2001-2019
</metadata>
<g transform="translate(0.000000,725.000000) scale(0.100000,-0.100000)"
fill="#000000" stroke="none">
<path d="M123 7020 c-2 -89 9 -119 21 -59 11 57 7 149 -6 149 -9 0 -14 -26
-15 -90z"/>
<path d="M150 6663 c-24 -4 -25 -6 -27 -93 -2 -89 9 -119 21 -59 3 17 6 53 6
79 0 32 5 50 14 53 23 9 26 -2 26 -90 0 -63 3 -84 13 -80 8 2 12 31 12 98 0
103 0 103 -65 92z"/>
<path d="M150 6213 c-24 -4 -25 -6 -27 -93 -2 -95 11 -121 23 -45 5 35 10 45
25 45 16 0 19 -8 19 -51 0 -36 4 -49 13 -46 8 2 12 31 12 98 0 103 0 103 -65
92z m40 -49 c0 -17 -5 -24 -20 -24 -14 0 -20 7 -20 24 0 23 17 38 33 29 4 -2
7 -15 7 -29z"/>
<path d="M150 5763 c-24 -4 -25 -6 -27 -94 l-2 -90 31 6 c21 5 33 3 39 -6 19
-31 30 9 27 97 -3 97 -4 98 -68 87z m40 -49 c0 -17 -5 -24 -20 -24 -14 0 -20
7 -20 24 0 23 17 38 33 29 4 -2 7 -15 7 -29z m0 -74 c0 -25 -4 -30 -23 -30
-20 0 -23 4 -19 30 3 21 10 30 23 30 14 0 19 -7 19 -30z"/>
<path d="M264 5308 c-10 -29 -20 -56 -22 -60 -2 -4 0 -8 5 -8 13 0 63 81 63
102 0 36 -27 16 -46 -34z"/>
<path d="M150 5313 c-24 -4 -25 -6 -27 -94 l-2 -90 31 6 c21 5 33 3 39 -6 19
-31 30 9 27 97 -3 97 -4 98 -68 87z m40 -49 c0 -17 -5 -24 -20 -24 -14 0 -20
7 -20 24 0 23 17 38 33 29 4 -2 7 -15 7 -29z m0 -74 c0 -25 -4 -30 -23 -30
-20 0 -23 4 -19 30 3 21 10 30 23 30 14 0 19 -7 19 -30z"/>
<path d="M263 4853 c-24 -60 -23 -81 3 -45 11 15 25 22 50 22 33 0 34 -1 34
-42 0 -57 -9 -88 -26 -88 -16 0 -16 -2 -8 -24 7 -19 28 -21 42 -3 6 7 15 48
21 92 11 90 6 98 -46 89 -32 -6 -33 -6 -27 25 11 54 -19 36 -43 -26z"/>
<path d="M150 4863 c-24 -4 -25 -6 -27 -94 l-2 -90 31 6 c21 5 33 3 39 -6 19
-31 30 9 27 97 -3 97 -4 98 -68 87z m40 -49 c0 -17 -5 -24 -20 -24 -14 0 -20
7 -20 24 0 23 17 38 33 29 4 -2 7 -15 7 -29z m0 -74 c0 -25 -4 -30 -23 -30
-20 0 -23 4 -19 30 3 21 10 30 23 30 14 0 19 -7 19 -30z"/>
<path d="M263 4403 c-24 -60 -23 -81 3 -45 11 15 25 22 50 22 33 0 34 -1 34
-42 0 -57 -9 -88 -26 -88 -16 0 -16 -2 -8 -24 7 -19 28 -21 42 -3 6 7 15 48
21 92 11 90 6 98 -46 89 -32 -6 -33 -6 -27 25 11 54 -19 36 -43 -26z"/>
<path d="M150 4413 c-24 -4 -25 -6 -27 -94 l-2 -90 31 6 c21 5 33 3 39 -6 19
-31 30 9 27 97 -3 97 -4 98 -68 87z m40 -49 c0 -17 -5 -24 -20 -24 -14 0 -20
7 -20 24 0 23 17 38 33 29 4 -2 7 -15 7 -29z m0 -74 c0 -25 -4 -30 -23 -30
-20 0 -23 4 -19 30 3 21 10 30 23 30 14 0 19 -7 19 -30z"/>
<path d="M233 4316 c4 -10 7 -26 7 -37 0 -10 5 -19 11 -19 15 0 6 63 -10 68
-10 3 -12 0 -8 -12z"/>
<path d="M263 3953 c-24 -60 -23 -81 3 -45 11 15 25 22 50 22 33 0 34 -1 34
-42 0 -57 -9 -88 -26 -88 -16 0 -16 -2 -8 -24 7 -19 28 -21 42 -3 6 7 15 48
21 92 11 90 6 98 -46 89 -32 -6 -33 -6 -27 25 11 54 -19 36 -43 -26z"/>
<path d="M150 3963 c-24 -4 -25 -6 -27 -94 l-2 -90 31 6 c21 5 33 3 39 -6 19
-31 30 9 27 97 -3 97 -4 98 -68 87z m40 -49 c0 -17 -5 -24 -20 -24 -14 0 -20
7 -20 24 0 23 17 38 33 29 4 -2 7 -15 7 -29z m0 -74 c0 -25 -4 -30 -23 -30
-20 0 -23 4 -19 30 3 21 10 30 23 30 14 0 19 -7 19 -30z"/>
<path d="M257 3883 c-21 -3 -27 -9 -23 -20 3 -8 6 -23 6 -34 0 -10 5 -19 10
-19 6 0 10 11 10 25 0 16 6 25 15 25 8 0 15 -7 15 -15 0 -8 4 -15 9 -15 10 0
22 40 15 52 -5 8 -8 8 -57 1z"/>
<path d="M263 3503 c-24 -60 -23 -81 3 -45 11 15 25 22 50 22 33 0 34 -1 34
-42 0 -57 -9 -88 -26 -88 -16 0 -16 -2 -8 -24 7 -19 28 -21 42 -3 6 7 15 48
21 92 11 90 6 98 -46 89 -32 -6 -33 -6 -27 25 11 54 -19 36 -43 -26z"/>
<path d="M150 3513 c-24 -4 -25 -6 -27 -94 l-2 -90 31 6 c21 5 33 3 39 -6 19
-31 30 9 27 97 -3 97 -4 98 -68 87z m40 -49 c0 -17 -5 -24 -20 -24 -14 0 -20
7 -20 24 0 23 17 38 33 29 4 -2 7 -15 7 -29z m0 -74 c0 -25 -4 -30 -23 -30
-20 0 -23 4 -19 30 3 21 10 30 23 30 14 0 19 -7 19 -30z"/>
<path d="M258 3433 c-25 -4 -27 -7 -21 -36 7 -40 5 -38 40 -31 23 5 32 13 36
33 3 14 3 29 0 33 -4 8 -7 8 -55 1z m27 -33 c-3 -5 -10 -10 -16 -10 -5 0 -9 5
-9 10 0 6 7 10 16 10 8 0 12 -4 9 -10z"/>
<path d="M263 3053 c-24 -60 -23 -81 3 -45 11 15 25 22 50 22 33 0 34 -1 34
-42 0 -57 -9 -88 -26 -88 -16 0 -16 -2 -8 -24 7 -19 28 -21 42 -3 6 7 15 48
21 92 11 90 6 98 -46 89 -32 -6 -33 -6 -27 25 11 54 -19 36 -43 -26z"/>
<path d="M150 3063 c-24 -4 -25 -6 -27 -94 l-2 -90 31 6 c21 5 33 3 39 -6 19
-31 30 9 27 97 -3 97 -4 98 -68 87z m40 -49 c0 -17 -5 -24 -20 -24 -14 0 -20
7 -20 24 0 23 17 38 33 29 4 -2 7 -15 7 -29z m0 -74 c0 -25 -4 -30 -23 -30
-20 0 -23 4 -19 30 3 21 10 30 23 30 14 0 19 -7 19 -30z"/>
<path d="M258 2983 c-25 -4 -27 -7 -21 -36 7 -40 5 -38 40 -31 23 5 32 13 36
33 3 14 3 29 0 33 -4 8 -7 8 -55 1z m27 -33 c-3 -5 -10 -10 -16 -10 -5 0 -9 5
-9 10 0 6 7 10 16 10 8 0 12 -4 9 -10z"/>
<path d="M110 2831 c-14 -27 -13 -51 4 -51 13 0 26 28 26 58 0 19 -18 14 -30
-7z"/>
<path d="M263 2603 c-24 -60 -23 -81 3 -45 11 15 25 22 50 22 33 0 34 -1 34
-42 0 -57 -9 -88 -26 -88 -16 0 -16 -2 -8 -24 7 -19 28 -21 42 -3 6 7 15 48
21 92 11 90 6 98 -46 89 -32 -6 -33 -6 -27 25 11 54 -19 36 -43 -26z"/>
<path d="M150 2613 c-24 -4 -25 -6 -27 -94 l-2 -90 31 6 c21 5 33 3 39 -6 19
-31 30 9 27 97 -3 97 -4 98 -68 87z m40 -49 c0 -17 -5 -24 -20 -24 -14 0 -20
7 -20 24 0 23 17 38 33 29 4 -2 7 -15 7 -29z m0 -74 c0 -25 -4 -30 -23 -30
-20 0 -23 4 -19 30 6 43 42 43 42 0z"/>
<path d="M258 2533 c-25 -4 -27 -7 -21 -36 7 -40 5 -38 40 -31 23 5 32 13 36
33 3 14 3 29 0 33 -4 8 -7 8 -55 1z m27 -33 c-3 -5 -10 -10 -16 -10 -5 0 -9 5
-9 10 0 6 7 10 16 10 8 0 12 -4 9 -10z"/>
<path d="M110 2381 c-14 -27 -13 -51 4 -51 13 0 26 28 26 58 0 19 -18 14 -30
-7z"/>
<path d="M194 2378 c3 -13 6 -26 6 -30 0 -5 7 -8 15 -8 18 0 20 31 3 48 -19
19 -31 14 -24 -10z"/>
<path d="M263 2153 c-24 -60 -23 -81 3 -45 11 15 25 22 50 22 33 0 34 -1 34
-42 0 -57 -9 -88 -26 -88 -16 0 -16 -2 -8 -24 7 -19 28 -21 42 -3 6 7 15 48
21 92 11 90 6 98 -46 89 -32 -6 -33 -6 -27 25 11 54 -19 36 -43 -26z"/>
<path d="M150 2163 c-24 -4 -25 -6 -27 -94 l-2 -90 31 6 c21 5 33 3 39 -6 19
-31 30 9 27 97 -3 97 -4 98 -68 87z m40 -49 c0 -17 -5 -24 -20 -24 -14 0 -20
7 -20 24 0 23 17 38 33 29 4 -2 7 -15 7 -29z m0 -74 c0 -25 -4 -30 -23 -30
-20 0 -23 4 -19 30 6 43 42 43 42 0z"/>
<path d="M258 2083 c-25 -4 -27 -7 -21 -36 7 -40 5 -38 40 -31 23 5 32 13 36
33 3 14 3 29 0 33 -4 8 -7 8 -55 1z m27 -33 c-3 -5 -10 -10 -16 -10 -5 0 -9 5
-9 10 0 6 7 10 16 10 8 0 12 -4 9 -10z"/>
<path d="M110 1931 c-14 -27 -13 -51 4 -51 13 0 26 28 26 58 0 19 -18 14 -30
-7z"/>
<path d="M194 1928 c3 -13 6 -26 6 -30 0 -5 7 -8 15 -8 18 0 20 31 3 48 -19
19 -31 14 -24 -10z"/>
<path d="M270 1939 c0 -17 20 -49 30 -49 14 0 12 34 -2 48 -15 15 -28 15 -28
1z"/>
<path d="M263 1703 c-24 -60 -23 -81 3 -45 11 15 25 22 50 22 33 0 34 -1 34
-42 0 -57 -9 -88 -26 -88 -16 0 -16 -2 -8 -24 7 -19 28 -21 42 -3 6 7 15 48
21 92 11 90 6 98 -46 89 -32 -6 -33 -6 -27 25 11 54 -19 36 -43 -26z"/>
<path d="M150 1713 c-24 -4 -25 -6 -27 -94 l-2 -90 31 6 c21 5 33 3 39 -6 19
-31 30 9 27 97 -3 97 -4 98 -68 87z m40 -49 c0 -17 -5 -24 -20 -24 -14 0 -20
7 -20 24 0 23 17 38 33 29 4 -2 7 -15 7 -29z m0 -74 c0 -25 -4 -30 -23 -30
-20 0 -23 4 -19 30 6 43 42 43 42 0z"/>
<path d="M258 1633 c-25 -4 -27 -7 -21 -36 7 -40 5 -38 40 -31 23 5 32 13 36
33 3 14 3 29 0 33 -4 8 -7 8 -55 1z m27 -33 c-3 -5 -10 -10 -16 -10 -5 0 -9 5
-9 10 0 6 7 10 16 10 8 0 12 -4 9 -10z"/>
<path d="M110 1481 c-14 -27 -13 -51 4 -51 13 0 26 28 26 58 0 19 -18 14 -30
-7z"/>
<path d="M194 1478 c3 -13 6 -26 6 -30 0 -5 7 -8 15 -8 18 0 20 31 3 48 -19
19 -31 14 -24 -10z"/>
<path d="M270 1489 c0 -17 20 -49 30 -49 14 0 12 34 -2 48 -15 15 -28 15 -28
1z"/>
<path d="M350 1491 c0 -13 40 -61 51 -61 17 0 9 49 -10 60 -24 12 -41 13 -41
1z"/>
</g>
</svg>
