<?xml version="1.0" standalone="no"?>
<!DOCTYPE svg PUBLIC "-//W3C//DTD SVG 20010904//EN"
 "http://www.w3.org/TR/2001/REC-SVG-20010904/DTD/svg10.dtd">
<svg version="1.0" xmlns="http://www.w3.org/2000/svg"
 width="50.000000pt" height="725.000000pt" viewBox="0 0 50.000000 725.000000"
 preserveAspectRatio="xMidYMid meet">
<metadata>
Created by potrace 1.16, written by Peter Selinger 2001-2019
</metadata>
<g transform="translate(0.000000,725.000000) scale(0.100000,-0.100000)"
fill="#000000" stroke="none">
<path d="M80 7035 c0 -14 21 -45 31 -45 18 0 5 45 -13 48 -10 2 -18 1 -18 -3z"/>
<path d="M166 6614 c-4 -9 -4 -19 -2 -22 10 -9 36 8 36 23 0 20 -26 19 -34 -1z"/>
<path d="M80 6585 c0 -14 21 -45 31 -45 18 0 5 45 -13 48 -10 2 -18 1 -18 -3z"/>
<path d="M134 6160 c-2 -75 -6 -100 -27 -143 -30 -59 -27 -72 9 -36 16 16 29
46 37 88 8 39 20 67 30 73 9 5 17 16 17 23 0 18 -26 20 -34 3 -3 -7 -4 7 -3
32 1 33 -2 45 -13 47 -12 3 -15 -12 -16 -87z"/>
<path d="M80 6135 c0 -14 21 -45 31 -45 18 0 5 45 -13 48 -10 2 -18 1 -18 -3z"/>
<path d="M134 5710 c-2 -75 -6 -100 -27 -143 -15 -28 -24 -53 -21 -56 7 -8 54
42 54 57 0 13 3 12 18 -1 24 -22 32 -21 32 3 0 10 -8 24 -18 29 -24 13 -18 77
9 92 11 5 19 16 19 24 0 18 -26 20 -34 3 -3 -7 -4 7 -3 32 1 33 -2 45 -13 47
-12 3 -15 -12 -16 -87z"/>
<path d="M80 5685 c0 -14 21 -45 31 -45 18 0 5 45 -13 48 -10 2 -18 1 -18 -3z"/>
<path d="M134 5260 c-2 -75 -6 -100 -27 -143 -15 -28 -24 -53 -21 -56 7 -8 54
42 54 57 0 13 3 12 18 -1 24 -22 32 -21 32 3 0 10 -8 24 -18 29 -24 13 -18 77
9 92 11 5 19 16 19 24 0 18 -26 20 -34 3 -3 -7 -4 7 -3 32 1 33 -2 45 -13 47
-12 3 -15 -12 -16 -87z"/>
<path d="M233 5333 c-26 -5 -31 -23 -8 -23 20 0 19 -6 -11 -57 -26 -45 -26
-66 -1 -45 38 32 77 136 49 131 -4 -1 -17 -4 -29 -6z"/>
<path d="M80 5235 c0 -14 21 -45 31 -45 18 0 5 45 -13 48 -10 2 -18 1 -18 -3z"/>
<path d="M134 4810 c-2 -75 -6 -100 -27 -143 -15 -28 -24 -53 -21 -56 7 -8 54
42 54 57 0 13 3 12 18 -1 24 -22 32 -21 32 3 0 10 -8 24 -18 29 -25 13 -17 69
14 97 28 27 38 20 17 -12 -17 -27 -11 -43 10 -26 23 20 70 113 61 122 -11 10
-64 1 -64 -11 0 -5 7 -9 15 -9 8 0 15 -5 15 -11 0 -6 -9 -8 -21 -4 -14 5 -26
0 -40 -17 l-21 -23 4 45 c2 33 -1 45 -12 47 -12 3 -15 -12 -16 -87z"/>
<path d="M80 4785 c0 -14 21 -45 31 -45 18 0 5 45 -13 48 -10 2 -18 1 -18 -3z"/>
<path d="M134 4360 c-2 -75 -6 -100 -27 -143 -15 -28 -24 -53 -21 -56 7 -8 54
42 54 57 0 13 3 12 18 -1 24 -22 32 -21 32 3 0 10 -8 24 -18 29 -25 13 -17 69
14 97 28 27 38 20 17 -12 -17 -27 -11 -43 10 -26 23 20 70 113 61 122 -11 10
-64 1 -64 -11 0 -5 7 -9 15 -9 8 0 15 -5 15 -11 0 -6 -9 -8 -21 -4 -14 5 -26
0 -40 -17 l-21 -23 4 45 c2 33 -1 45 -12 47 -12 3 -15 -12 -16 -87z"/>
<path d="M316 4434 c-8 -21 -3 -26 18 -18 9 3 16 12 16 20 0 19 -26 18 -34 -2z"/>
<path d="M80 4335 c0 -14 21 -45 31 -45 18 0 5 45 -13 48 -10 2 -18 1 -18 -3z"/>
<path d="M134 3910 c-2 -75 -6 -100 -27 -143 -15 -28 -24 -53 -21 -56 7 -8 54
42 54 57 0 13 3 12 18 -1 24 -22 32 -21 32 3 0 10 -8 24 -18 29 -25 13 -17 69
14 97 28 27 38 20 17 -12 -17 -27 -11 -43 10 -26 23 20 70 113 61 122 -11 10
-64 1 -64 -11 0 -5 7 -9 15 -9 8 0 15 -5 15 -11 0 -6 -9 -8 -21 -4 -14 5 -26
0 -40 -17 l-21 -23 4 45 c2 33 -1 45 -12 47 -12 3 -15 -12 -16 -87z"/>
<path d="M316 3984 c-8 -21 -3 -26 18 -18 9 3 16 12 16 20 0 19 -26 18 -34 -2z"/>
<path d="M357 3959 c-22 -26 -18 -32 17 -23 17 4 26 12 24 22 -5 24 -22 24
-41 1z"/>
<path d="M80 3885 c0 -14 21 -45 31 -45 18 0 5 45 -13 48 -10 2 -18 1 -18 -3z"/>
<path d="M134 3460 c-2 -75 -6 -100 -27 -143 -15 -28 -24 -53 -21 -56 7 -8 54
42 54 57 0 13 3 12 18 -1 24 -22 32 -21 32 3 0 10 -8 24 -18 29 -25 13 -17 69
14 97 28 27 38 20 17 -12 -17 -27 -11 -43 10 -26 23 20 70 113 61 122 -11 10
-64 1 -64 -11 0 -5 7 -9 15 -9 8 0 15 -5 15 -11 0 -6 -9 -8 -21 -4 -14 5 -26
0 -40 -17 l-21 -23 4 45 c2 33 -1 45 -12 47 -12 3 -15 -12 -16 -87z"/>
<path d="M320 3540 c0 -5 -7 -10 -15 -10 -21 0 -20 -1 25 -69 35 -52 45 -61
70 -61 40 0 37 9 -13 45 l-42 29 28 10 c28 10 35 30 15 42 -6 4 -16 0 -23 -9
-13 -19 -35 -23 -35 -7 0 6 5 10 10 10 6 0 10 7 10 15 0 8 -7 15 -15 15 -8 0
-15 -4 -15 -10z"/>
<path d="M80 3435 c0 -14 21 -45 31 -45 18 0 5 45 -13 48 -10 2 -18 1 -18 -3z"/>
<path d="M134 3010 c-2 -75 -6 -100 -27 -143 -15 -28 -24 -53 -21 -56 7 -8 54
42 54 57 0 13 3 12 18 -1 24 -22 32 -21 32 3 0 10 -8 24 -18 29 -25 13 -17 69
14 97 28 27 38 20 17 -12 -17 -27 -11 -43 10 -26 23 20 70 113 61 122 -11 10
-64 1 -64 -11 0 -5 7 -9 15 -9 8 0 15 -5 15 -11 0 -6 -9 -8 -21 -4 -14 5 -26
0 -40 -17 l-21 -23 4 45 c2 33 -1 45 -12 47 -12 3 -15 -12 -16 -87z"/>
<path d="M320 3090 c0 -5 -7 -10 -15 -10 -21 0 -20 -1 25 -69 35 -52 45 -61
70 -61 40 0 37 9 -13 45 l-42 29 28 10 c28 10 35 30 15 42 -6 4 -16 0 -23 -9
-13 -19 -35 -23 -35 -7 0 6 5 10 10 10 6 0 10 7 10 15 0 8 -7 15 -15 15 -8 0
-15 -4 -15 -10z"/>
<path d="M273 2993 c-13 -2 -23 -9 -23 -14 0 -15 63 -6 68 9 4 12 -4 13 -45 5z"/>
<path d="M80 2985 c0 -14 21 -45 31 -45 18 0 5 45 -13 48 -10 2 -18 1 -18 -3z"/>
<path d="M134 2560 c-2 -75 -6 -100 -27 -143 -15 -28 -24 -53 -21 -56 7 -8 54
42 54 57 0 13 3 12 18 -1 24 -22 32 -21 32 3 0 10 -8 24 -18 29 -25 13 -17 69
14 97 28 27 38 20 17 -12 -17 -27 -11 -43 10 -26 23 20 70 113 61 122 -11 10
-64 1 -64 -11 0 -5 7 -9 15 -9 8 0 15 -5 15 -11 0 -6 -9 -8 -21 -4 -14 5 -26
0 -40 -17 l-21 -23 4 45 c2 33 -1 45 -12 47 -12 3 -15 -12 -16 -87z"/>
<path d="M320 2640 c0 -5 -7 -10 -15 -10 -21 0 -20 -1 25 -69 35 -52 45 -61
70 -61 40 0 37 9 -13 45 l-42 29 28 10 c28 10 35 30 15 42 -6 4 -16 0 -23 -9
-13 -19 -35 -23 -35 -7 0 6 5 10 10 10 6 0 10 7 10 15 0 8 -7 15 -15 15 -8 0
-15 -4 -15 -10z"/>
<path d="M273 2543 c-13 -2 -23 -9 -23 -14 0 -15 63 -6 68 9 4 12 -4 13 -45 5z"/>
<path d="M80 2535 c0 -14 21 -45 31 -45 18 0 5 45 -13 48 -10 2 -18 1 -18 -3z"/>
<path d="M215 2474 c4 -11 10 -27 12 -36 9 -31 24 -20 21 14 -2 23 -9 34 -22
36 -15 3 -17 0 -11 -14z"/>
<path d="M134 2110 c-2 -75 -6 -100 -27 -143 -15 -28 -24 -53 -21 -56 7 -8 54
42 54 57 0 13 3 12 18 -1 24 -22 32 -21 32 3 0 10 -8 24 -18 29 -25 13 -17 69
14 97 28 27 38 20 17 -12 -17 -27 -11 -43 10 -26 23 20 70 113 61 122 -11 10
-64 1 -64 -11 0 -5 7 -9 15 -9 8 0 15 -5 15 -11 0 -6 -9 -8 -21 -4 -14 5 -26
0 -40 -17 l-21 -23 4 45 c2 33 -1 45 -12 47 -12 3 -15 -12 -16 -87z"/>
<path d="M320 2190 c0 -5 -7 -10 -15 -10 -21 0 -20 -1 25 -69 35 -52 45 -61
70 -61 40 0 37 9 -13 45 l-42 29 28 10 c28 10 35 30 15 42 -6 4 -16 0 -23 -9
-13 -19 -35 -23 -35 -7 0 6 5 10 10 10 6 0 10 7 10 15 0 8 -7 15 -15 15 -8 0
-15 -4 -15 -10z"/>
<path d="M273 2093 c-13 -2 -23 -9 -23 -14 0 -15 63 -6 68 9 4 12 -4 13 -45 5z"/>
<path d="M80 2085 c0 -14 21 -45 31 -45 18 0 5 45 -13 48 -10 2 -18 1 -18 -3z"/>
<path d="M290 2040 c0 -5 5 -10 10 -10 6 0 10 -9 10 -20 0 -11 4 -20 10 -20
13 0 32 38 25 50 -8 13 -55 13 -55 0z"/>
<path d="M215 2023 c4 -10 10 -26 12 -35 8 -27 23 -22 23 7 0 14 5 25 10 25 6
0 10 5 10 10 0 6 -14 10 -31 10 -26 0 -30 -3 -24 -17z"/>
<path d="M134 1660 c-2 -75 -6 -100 -27 -143 -15 -28 -24 -53 -21 -56 7 -8 54
42 54 57 0 13 3 12 18 -1 24 -22 32 -21 32 3 0 10 -8 24 -18 29 -25 13 -17 69
14 97 28 27 38 20 17 -12 -17 -27 -11 -43 10 -26 23 20 70 113 61 122 -11 10
-64 1 -64 -11 0 -5 7 -9 15 -9 8 0 15 -5 15 -11 0 -6 -9 -8 -21 -4 -14 5 -26
0 -40 -17 l-21 -23 4 45 c2 33 -1 45 -12 47 -12 3 -15 -12 -16 -87z"/>
<path d="M320 1740 c0 -5 -7 -10 -15 -10 -21 0 -20 -1 25 -69 35 -52 45 -61
70 -61 40 0 37 9 -13 45 l-42 29 28 10 c28 10 35 30 15 42 -6 4 -16 0 -23 -9
-13 -19 -35 -23 -35 -7 0 6 5 10 10 10 6 0 10 7 10 15 0 8 -7 15 -15 15 -8 0
-15 -4 -15 -10z"/>
<path d="M273 1643 c-13 -2 -23 -9 -23 -14 0 -15 63 -6 68 9 4 12 -4 13 -45 5z"/>
<path d="M80 1635 c0 -14 21 -45 31 -45 18 0 5 45 -13 48 -10 2 -18 1 -18 -3z"/>
<path d="M290 1590 c0 -5 5 -10 10 -10 6 0 10 -7 10 -15 0 -8 -9 -15 -20 -15
-11 0 -20 -4 -20 -10 0 -5 13 -10 28 -10 21 0 32 7 41 26 6 14 9 30 6 35 -8
12 -55 12 -55 -1z"/>
<path d="M215 1573 c4 -10 10 -26 12 -35 9 -29 34 -22 27 7 -4 15 -2 25 5 25
6 0 11 5 11 10 0 6 -14 10 -31 10 -26 0 -30 -3 -24 -17z"/>
<path d="M134 1210 c-2 -75 -6 -100 -27 -143 -15 -28 -24 -53 -21 -56 7 -8 54
42 54 57 0 13 3 12 18 -1 24 -22 32 -21 32 3 0 10 -8 24 -18 29 -25 13 -17 69
14 97 28 27 38 20 17 -12 -17 -27 -11 -43 10 -26 23 20 70 113 61 122 -11 10
-64 1 -64 -11 0 -5 7 -9 15 -9 8 0 15 -5 15 -11 0 -6 -9 -8 -21 -4 -14 5 -26
0 -40 -17 l-21 -23 4 45 c2 33 -1 45 -12 47 -12 3 -15 -12 -16 -87z"/>
<path d="M320 1290 c0 -5 -7 -10 -15 -10 -21 0 -20 -1 25 -69 35 -52 45 -61
70 -61 40 0 37 9 -13 45 l-42 29 28 10 c28 10 35 30 15 42 -6 4 -16 0 -23 -9
-13 -19 -35 -23 -35 -7 0 6 5 10 10 10 6 0 10 7 10 15 0 8 -7 15 -15 15 -8 0
-15 -4 -15 -10z"/>
<path d="M273 1193 c-13 -2 -23 -9 -23 -14 0 -15 63 -6 68 9 4 12 -4 13 -45 5z"/>
<path d="M80 1185 c0 -14 21 -45 31 -45 18 0 5 45 -13 48 -10 2 -18 1 -18 -3z"/>
<path d="M290 1140 c0 -5 5 -10 10 -10 6 0 10 -7 10 -15 0 -8 -9 -15 -20 -15
-11 0 -20 -4 -20 -10 0 -5 13 -10 28 -10 21 0 32 7 41 26 6 14 9 30 6 35 -8
12 -55 12 -55 -1z"/>
<path d="M215 1123 c4 -10 11 -34 15 -54 8 -41 17 -59 31 -59 10 0 12 33 2 43
-11 11 -13 67 -3 67 6 0 10 5 10 10 0 6 -14 10 -31 10 -26 0 -30 -3 -24 -17z"/>
<path d="M134 760 c-2 -75 -6 -100 -27 -143 -15 -28 -24 -53 -21 -56 7 -8 54
42 54 57 0 13 3 12 18 -1 24 -22 32 -21 32 3 0 10 -8 24 -18 29 -25 13 -17 69
14 97 28 27 38 20 17 -12 -17 -27 -11 -43 10 -26 23 20 70 113 61 122 -11 10
-64 1 -64 -11 0 -5 7 -9 15 -9 8 0 15 -5 15 -11 0 -6 -9 -8 -21 -4 -14 5 -26
0 -40 -17 l-21 -23 4 45 c2 33 -1 45 -12 47 -12 3 -15 -12 -16 -87z"/>
<path d="M320 840 c0 -5 -7 -10 -15 -10 -21 0 -20 -1 25 -69 35 -52 45 -61 70
-61 40 0 37 9 -13 45 l-42 29 28 10 c28 10 35 30 15 42 -6 4 -16 0 -23 -9 -13
-19 -35 -23 -35 -7 0 6 5 10 10 10 6 0 10 7 10 15 0 8 -7 15 -15 15 -8 0 -15
-4 -15 -10z"/>
<path d="M273 743 c-13 -2 -23 -9 -23 -14 0 -15 63 -6 68 9 4 12 -4 13 -45 5z"/>
<path d="M80 735 c0 -14 21 -45 31 -45 18 0 5 45 -13 48 -10 2 -18 1 -18 -3z"/>
<path d="M290 691 c0 -6 5 -11 10 -11 6 0 10 -7 10 -15 0 -8 -9 -15 -20 -15
-11 0 -20 -4 -20 -10 0 -5 9 -10 20 -10 18 0 20 -4 14 -35 -4 -21 -2 -35 4
-35 11 0 30 46 30 75 0 11 2 29 4 40 2 15 -3 21 -24 23 -16 2 -28 -1 -28 -7z"/>
<path d="M215 673 c4 -10 11 -34 15 -54 8 -41 17 -59 31 -59 10 0 12 33 2 43
-11 11 -13 67 -3 67 6 0 10 5 10 10 0 6 -14 10 -31 10 -26 0 -30 -3 -24 -17z"/>
<path d="M134 310 c-2 -75 -6 -100 -27 -143 -15 -28 -24 -53 -21 -56 7 -8 54
42 54 57 0 13 3 12 18 -1 24 -22 32 -21 32 3 0 10 -8 24 -18 29 -25 13 -17 69
14 97 28 27 38 20 17 -12 -17 -27 -11 -43 10 -26 23 20 70 113 61 122 -11 10
-64 1 -64 -11 0 -5 7 -9 15 -9 8 0 15 -5 15 -11 0 -6 -9 -8 -21 -4 -14 5 -26
0 -40 -17 l-21 -23 4 45 c2 33 -1 45 -12 47 -12 3 -15 -12 -16 -87z"/>
<path d="M320 390 c0 -5 -7 -10 -15 -10 -21 0 -20 -1 25 -69 35 -52 45 -61 70
-61 40 0 37 9 -13 45 l-42 29 28 10 c28 10 35 30 15 42 -6 4 -16 0 -23 -9 -13
-19 -35 -23 -35 -7 0 6 5 10 10 10 6 0 10 7 10 15 0 8 -7 15 -15 15 -8 0 -15
-4 -15 -10z"/>
<path d="M273 293 c-13 -2 -23 -9 -23 -14 0 -15 63 -6 68 9 4 12 -4 13 -45 5z"/>
<path d="M80 285 c0 -14 21 -45 31 -45 18 0 5 45 -13 48 -10 2 -18 1 -18 -3z"/>
<path d="M290 241 c0 -6 5 -11 10 -11 6 0 10 -7 10 -15 0 -8 -9 -15 -20 -15
-11 0 -20 -4 -20 -10 0 -5 9 -10 20 -10 22 0 23 -3 14 -37 -8 -29 -30 -29 -39
0 -12 41 -15 77 -5 77 6 0 10 5 10 10 0 6 -14 10 -31 10 -26 0 -30 -3 -24 -17
4 -10 11 -34 15 -54 3 -19 10 -41 14 -47 5 -9 -5 -12 -33 -12 -39 0 -55 -13
-28 -23 12 -5 208 13 217 20 11 10 -27 21 -53 16 -26 -5 -28 -4 -19 13 6 11
10 30 10 44 0 14 2 34 4 45 2 15 -3 21 -24 23 -16 2 -28 -1 -28 -7z"/>
</g>
</svg>
