<?xml version="1.0" standalone="no"?>
<!DOCTYPE svg PUBLIC "-//W3C//DTD SVG 20010904//EN"
 "http://www.w3.org/TR/2001/REC-SVG-20010904/DTD/svg10.dtd">
<svg version="1.0" xmlns="http://www.w3.org/2000/svg"
 width="50.000000pt" height="725.000000pt" viewBox="0 0 50.000000 725.000000"
 preserveAspectRatio="xMidYMid meet">
<metadata>
Created by potrace 1.16, written by Peter Selinger 2001-2019
</metadata>
<g transform="translate(0.000000,725.000000) scale(0.100000,-0.100000)"
fill="#000000" stroke="none">
<path d="M100 7041 c0 -21 13 -41 26 -41 17 0 18 22 2 38 -14 14 -28 16 -28 3z"/>
<path d="M182 6619 c-7 -11 -11 -23 -9 -26 9 -8 48 18 44 30 -6 19 -22 18 -35
-4z"/>
<path d="M100 6591 c0 -21 13 -41 26 -41 17 0 18 22 2 38 -14 14 -28 16 -28 3z"/>
<path d="M148 6183 l5 -68 -22 19 c-11 11 -24 17 -27 13 -11 -10 7 -47 23 -47
20 0 10 -44 -18 -83 -22 -30 -20 -43 4 -34 19 7 57 87 57 119 0 17 10 33 28
46 22 17 25 23 15 33 -10 10 -16 9 -28 -7 -13 -17 -14 -15 -8 29 5 43 4 47
-14 47 -19 0 -20 -5 -15 -67z"/>
<path d="M148 5733 l5 -68 -22 19 c-11 11 -24 17 -27 13 -11 -10 7 -47 23 -47
20 0 10 -43 -17 -82 -24 -32 -25 -38 -6 -38 8 0 26 19 40 43 14 23 26 36 26
30 0 -7 7 -13 15 -13 8 0 15 6 15 14 0 8 -7 16 -15 20 -25 9 -18 52 13 74 22
17 25 23 15 33 -10 10 -16 9 -28 -7 -13 -17 -14 -15 -8 29 5 43 4 47 -14 47
-19 0 -20 -5 -15 -67z"/>
<path d="M148 5283 l5 -68 -22 19 c-11 11 -24 17 -27 13 -11 -10 7 -47 23 -47
20 0 10 -43 -17 -82 -24 -32 -25 -38 -6 -38 8 0 26 19 40 43 14 23 26 36 26
30 0 -7 7 -13 15 -13 8 0 15 6 15 14 0 8 -7 16 -15 20 -25 9 -18 52 13 74 22
17 25 23 15 33 -10 10 -16 9 -28 -7 -13 -17 -14 -15 -8 29 5 43 4 47 -14 47
-19 0 -20 -5 -15 -67z"/>
<path d="M230 5321 c0 -12 29 -35 36 -28 11 10 -5 37 -21 37 -8 0 -15 -4 -15
-9z"/>
<path d="M345 4890 c-8 -26 -3 -33 19 -24 19 7 18 35 -1 41 -6 2 -14 -5 -18
-17z"/>
<path d="M148 4833 l5 -68 -22 19 c-11 11 -24 17 -27 13 -11 -10 7 -47 23 -47
20 0 10 -43 -17 -82 -24 -32 -25 -38 -6 -38 8 0 26 19 40 43 14 23 26 36 26
30 0 -7 7 -13 15 -13 8 0 15 6 15 14 0 8 -7 16 -15 20 -25 9 -18 52 13 74 22
17 25 23 15 33 -10 10 -16 9 -28 -7 -13 -17 -14 -15 -8 29 5 43 4 47 -14 47
-19 0 -20 -5 -15 -67z"/>
<path d="M230 4871 c0 -12 29 -35 36 -28 11 10 -5 37 -21 37 -8 0 -15 -4 -15
-9z"/>
<path d="M345 4440 c-8 -26 -3 -33 19 -24 19 7 18 35 -1 41 -6 2 -14 -5 -18
-17z"/>
<path d="M148 4383 l5 -68 -22 19 c-11 11 -24 17 -27 13 -11 -10 7 -47 23 -47
20 0 10 -43 -17 -82 -24 -32 -25 -38 -6 -38 8 0 26 19 40 43 14 23 26 36 26
30 0 -7 7 -13 15 -13 8 0 15 6 15 14 0 8 -7 16 -15 20 -25 9 -18 52 13 74 22
17 25 23 15 33 -10 10 -16 9 -28 -7 -13 -17 -14 -15 -8 29 5 43 4 47 -14 47
-19 0 -20 -5 -15 -67z"/>
<path d="M230 4421 c0 -12 29 -35 36 -28 11 10 -5 37 -21 37 -8 0 -15 -4 -15
-9z"/>
<path d="M288 4388 c-32 -6 -58 -15 -58 -20 0 -7 15 -8 38 -4 20 3 57 6 80 6
30 0 42 4 40 13 -6 16 -30 17 -100 5z"/>
<path d="M288 3978 c-3 -39 -6 -43 -30 -46 -16 -2 -28 -8 -28 -14 0 -6 13 -8
31 -6 29 5 30 4 27 -30 -2 -22 2 -37 10 -39 8 -3 12 8 12 36 l0 41 41 0 c28 0
39 4 36 13 -2 7 -19 11 -41 10 l-36 -2 6 39 c5 32 4 40 -9 40 -11 0 -17 -12
-19 -42z"/>
<path d="M345 3990 c-8 -26 -3 -33 19 -24 19 7 18 35 -1 41 -6 2 -14 -5 -18
-17z"/>
<path d="M148 3933 l5 -68 -22 19 c-11 11 -24 17 -27 13 -11 -10 7 -47 23 -47
20 0 10 -43 -17 -82 -24 -32 -25 -38 -6 -38 8 0 26 19 40 43 14 23 26 36 26
30 0 -7 7 -13 15 -13 8 0 15 6 15 14 0 8 -7 16 -15 20 -25 9 -18 52 13 74 22
17 25 23 15 33 -10 10 -16 9 -28 -7 -13 -17 -14 -15 -8 29 5 43 4 47 -14 47
-19 0 -20 -5 -15 -67z"/>
<path d="M230 3971 c0 -12 29 -35 36 -28 11 10 -5 37 -21 37 -8 0 -15 -4 -15
-9z"/>
<path d="M288 3528 c-3 -39 -6 -43 -30 -46 -27 -3 -40 -22 -16 -22 6 0 1 -11
-12 -25 -13 -14 -21 -28 -17 -31 10 -10 57 24 57 41 0 7 5 17 11 21 7 4 10 -6
7 -31 -2 -24 2 -40 10 -42 8 -3 12 8 12 36 l0 41 41 0 c28 0 39 4 36 13 -2 7
-19 11 -41 10 l-36 -2 6 39 c5 32 4 40 -9 40 -11 0 -17 -12 -19 -42z"/>
<path d="M345 3540 c-8 -26 -3 -33 19 -24 19 7 18 35 -1 41 -6 2 -14 -5 -18
-17z"/>
<path d="M148 3483 l5 -68 -22 19 c-11 11 -24 17 -27 13 -11 -10 7 -47 23 -47
20 0 10 -43 -17 -82 -24 -32 -25 -38 -6 -38 8 0 26 19 40 43 14 23 26 36 26
30 0 -7 7 -13 15 -13 8 0 15 6 15 14 0 8 -7 16 -15 20 -25 9 -18 52 13 74 22
17 25 23 15 33 -10 10 -16 9 -28 -7 -13 -17 -14 -15 -8 29 5 43 4 47 -14 47
-19 0 -20 -5 -15 -67z"/>
<path d="M230 3521 c0 -12 29 -35 36 -28 11 10 -5 37 -21 37 -8 0 -15 -4 -15
-9z"/>
<path d="M288 3078 c-3 -39 -6 -43 -30 -46 -27 -3 -40 -22 -16 -22 6 0 1 -11
-12 -25 -13 -14 -21 -28 -17 -31 10 -10 57 24 57 41 0 7 5 17 11 21 7 4 10 -6
7 -31 -2 -24 2 -40 10 -42 8 -3 12 8 12 36 l0 41 41 0 c28 0 39 4 36 13 -2 7
-19 11 -41 10 l-36 -2 6 39 c5 32 4 40 -9 40 -11 0 -17 -12 -19 -42z"/>
<path d="M345 3090 c-8 -26 -3 -33 19 -24 19 7 18 35 -1 41 -6 2 -14 -5 -18
-17z"/>
<path d="M148 3033 l5 -68 -22 19 c-11 11 -24 17 -27 13 -11 -10 7 -47 23 -47
20 0 10 -43 -17 -82 -24 -32 -25 -38 -6 -38 8 0 26 19 40 43 14 23 26 36 26
30 0 -7 7 -13 15 -13 8 0 15 6 15 14 0 8 -7 16 -15 20 -25 9 -18 52 13 74 22
17 25 23 15 33 -10 10 -16 9 -28 -7 -13 -17 -14 -15 -8 29 5 43 4 47 -14 47
-19 0 -20 -5 -15 -67z"/>
<path d="M230 3071 c0 -12 29 -35 36 -28 11 10 -5 37 -21 37 -8 0 -15 -4 -15
-9z"/>
<path d="M330 3002 c0 -12 34 -42 48 -42 23 0 12 31 -14 40 -31 12 -34 12 -34
2z"/>
<path d="M288 2628 c-3 -39 -6 -43 -30 -46 -27 -3 -40 -22 -16 -22 6 0 1 -11
-11 -24 -13 -14 -20 -29 -17 -34 3 -6 3 -17 0 -26 -5 -12 -10 -13 -25 -5 -28
15 -24 54 9 77 22 17 25 23 15 33 -10 10 -16 9 -28 -7 -13 -17 -14 -15 -8 29
5 43 4 47 -14 47 -19 0 -20 -5 -15 -67 l5 -68 -22 19 c-11 11 -24 17 -27 13
-11 -10 7 -47 23 -47 20 0 10 -43 -17 -82 -24 -33 -25 -38 -5 -38 8 0 24 17
37 39 18 32 24 36 35 25 7 -7 13 -17 13 -23 0 -20 15 -11 39 24 17 26 21 38
13 48 -8 10 -6 16 9 25 10 7 19 19 19 26 0 8 5 18 11 22 7 4 10 -6 7 -31 -2
-24 2 -40 10 -42 8 -3 12 8 12 36 l0 41 41 0 c28 0 39 4 36 13 -2 7 -19 11
-41 10 l-36 -2 6 39 c5 32 4 40 -9 40 -11 0 -17 -12 -19 -42z"/>
<path d="M345 2640 c-8 -26 -3 -33 19 -24 19 7 18 35 -1 41 -6 2 -14 -5 -18
-17z"/>
<path d="M230 2621 c0 -12 29 -35 36 -28 11 10 -5 37 -21 37 -8 0 -15 -4 -15
-9z"/>
<path d="M330 2552 c0 -12 34 -42 48 -42 23 0 12 31 -14 40 -31 12 -34 12 -34
2z"/>
<path d="M288 2178 c-3 -39 -6 -43 -30 -46 -27 -3 -40 -22 -16 -22 6 0 1 -11
-11 -24 -13 -14 -20 -29 -17 -34 3 -6 3 -17 0 -26 -5 -12 -10 -13 -25 -5 -28
15 -24 54 9 77 22 17 25 23 15 33 -10 10 -16 9 -28 -7 -13 -17 -14 -15 -8 29
5 43 4 47 -14 47 -19 0 -20 -5 -15 -67 l5 -68 -22 19 c-11 11 -24 17 -27 13
-11 -10 7 -47 23 -47 20 0 10 -43 -17 -82 -24 -33 -25 -38 -5 -38 8 0 24 17
37 39 18 32 24 36 35 25 7 -7 13 -17 13 -23 0 -17 10 -13 30 12 27 33 36 13
11 -28 -23 -40 -26 -55 -11 -55 6 0 26 25 46 56 29 45 33 58 23 65 -8 5 -19 7
-25 5 -6 -2 -15 4 -21 13 -9 14 -7 20 8 29 10 7 19 19 19 26 0 8 5 18 11 22 7
4 10 -6 7 -31 -2 -24 2 -40 10 -42 8 -3 12 8 12 36 l0 41 41 0 c28 0 39 4 36
13 -2 7 -19 11 -41 10 l-36 -2 6 39 c5 32 4 40 -9 40 -11 0 -17 -12 -19 -42z"/>
<path d="M345 2190 c-8 -26 -3 -33 19 -24 19 7 18 35 -1 41 -6 2 -14 -5 -18
-17z"/>
<path d="M230 2171 c0 -12 29 -35 36 -28 11 10 -5 37 -21 37 -8 0 -15 -4 -15
-9z"/>
<path d="M330 2102 c0 -12 34 -42 48 -42 23 0 12 31 -14 40 -31 12 -34 12 -34
2z"/>
<path d="M288 1728 c-3 -39 -6 -43 -30 -46 -27 -3 -40 -22 -16 -22 6 0 1 -11
-11 -24 -13 -14 -20 -29 -17 -34 3 -6 3 -17 0 -26 -5 -12 -10 -13 -25 -5 -28
15 -24 54 9 77 22 17 25 23 15 33 -10 10 -16 9 -28 -7 -13 -17 -14 -15 -8 29
5 43 4 47 -14 47 -19 0 -20 -5 -15 -67 l5 -68 -22 19 c-11 11 -24 17 -27 13
-11 -10 7 -47 23 -47 20 0 10 -43 -17 -82 -24 -33 -25 -38 -5 -38 8 0 24 17
37 39 18 32 24 36 35 25 7 -7 13 -18 13 -24 0 -7 7 -10 15 -7 19 8 31 -11 16
-26 -6 -6 -11 -17 -11 -24 0 -27 22 -11 56 43 29 45 33 58 23 65 -8 5 -19 7
-25 5 -6 -2 -15 4 -21 13 -9 14 -7 20 8 29 10 7 19 19 19 26 0 8 5 18 11 22 7
4 10 -6 7 -31 -2 -24 2 -40 10 -42 8 -3 12 8 12 36 l0 41 41 0 c28 0 39 4 36
13 -2 7 -19 11 -41 10 l-36 -2 6 39 c5 32 4 40 -9 40 -11 0 -17 -12 -19 -42z
m-38 -188 c0 -5 -4 -10 -10 -10 -5 0 -10 5 -10 10 0 6 5 10 10 10 6 0 10 -4
10 -10z"/>
<path d="M345 1740 c-8 -26 -3 -33 19 -24 19 7 18 35 -1 41 -6 2 -14 -5 -18
-17z"/>
<path d="M230 1721 c0 -12 29 -35 36 -28 11 10 -5 37 -21 37 -8 0 -15 -4 -15
-9z"/>
<path d="M330 1652 c0 -12 34 -42 48 -42 23 0 12 31 -14 40 -31 12 -34 12 -34
2z"/>
<path d="M288 1278 c-3 -39 -6 -43 -30 -46 -27 -3 -40 -22 -16 -22 6 0 1 -11
-11 -24 -13 -14 -20 -29 -17 -34 3 -6 3 -17 0 -26 -5 -12 -10 -13 -25 -5 -28
15 -24 54 9 77 22 17 25 23 15 33 -10 10 -16 9 -28 -7 -13 -17 -14 -15 -8 29
5 43 4 47 -14 47 -19 0 -20 -5 -15 -67 l5 -68 -22 19 c-11 11 -24 17 -27 13
-11 -10 7 -47 23 -47 20 0 10 -43 -17 -82 -24 -33 -25 -38 -5 -38 8 0 24 17
37 39 18 32 24 36 35 25 7 -7 13 -18 13 -24 0 -7 7 -10 15 -7 19 8 31 -11 16
-26 -6 -6 -11 -17 -11 -24 0 -27 22 -11 56 43 29 45 33 58 23 65 -8 5 -19 7
-25 5 -6 -2 -15 4 -21 13 -9 14 -7 20 8 29 10 7 19 19 19 26 0 8 5 18 11 22 7
4 10 -6 7 -31 -2 -24 2 -40 10 -42 8 -3 12 8 12 36 l0 41 41 0 c28 0 39 4 36
13 -2 7 -19 11 -41 10 l-36 -2 6 39 c5 32 4 40 -9 40 -11 0 -17 -12 -19 -42z
m-38 -188 c0 -5 -4 -10 -10 -10 -5 0 -10 5 -10 10 0 6 5 10 10 10 6 0 10 -4
10 -10z"/>
<path d="M345 1290 c-8 -26 -3 -33 19 -24 19 7 18 35 -1 41 -6 2 -14 -5 -18
-17z"/>
<path d="M230 1271 c0 -12 29 -35 36 -28 11 10 -5 37 -21 37 -8 0 -15 -4 -15
-9z"/>
<path d="M330 1202 c0 -12 34 -42 48 -42 23 0 12 31 -14 40 -31 12 -34 12 -34
2z"/>
<path d="M340 1120 c0 -5 16 -10 35 -10 19 0 35 5 35 10 0 6 -16 10 -35 10
-19 0 -35 -4 -35 -10z"/>
<path d="M288 828 c-3 -39 -6 -43 -30 -46 -27 -3 -40 -22 -16 -22 6 0 1 -11
-11 -24 -13 -14 -20 -29 -17 -34 3 -6 3 -17 0 -26 -5 -12 -10 -13 -25 -5 -28
15 -24 54 9 77 22 17 25 23 15 33 -10 10 -16 9 -28 -7 -13 -17 -14 -15 -8 29
5 43 4 47 -14 47 -19 0 -20 -5 -15 -67 l5 -68 -22 19 c-11 11 -24 17 -27 13
-11 -10 7 -47 23 -47 20 0 10 -43 -17 -82 -24 -33 -25 -38 -5 -38 8 0 24 17
37 39 18 32 24 36 35 25 7 -7 13 -18 13 -24 0 -7 7 -10 15 -7 19 8 31 -11 16
-26 -6 -6 -11 -17 -11 -24 0 -27 22 -11 52 37 17 28 33 50 35 50 3 0 1 -14 -2
-31 l-7 -32 38 6 c22 4 54 7 72 7 17 0 32 5 32 11 0 7 -20 10 -55 7 l-56 -3 7
28 c5 24 3 27 -20 29 -14 0 -32 1 -38 2 -7 1 -18 8 -25 16 -9 11 -7 17 8 28
10 7 19 19 19 27 0 8 5 17 11 21 7 4 10 -6 7 -31 -2 -24 2 -40 10 -42 8 -3 12
8 12 36 l0 41 41 0 c28 0 39 4 36 13 -2 7 -19 11 -41 10 l-36 -2 6 39 c5 32 4
40 -9 40 -11 0 -17 -12 -19 -42z m-38 -188 c0 -5 -4 -10 -10 -10 -5 0 -10 5
-10 10 0 6 5 10 10 10 6 0 10 -4 10 -10z"/>
<path d="M345 840 c-8 -26 -3 -33 19 -24 19 7 18 35 -1 41 -6 2 -14 -5 -18
-17z"/>
<path d="M230 821 c0 -12 29 -35 36 -28 11 10 -5 37 -21 37 -8 0 -15 -4 -15
-9z"/>
<path d="M330 752 c0 -12 34 -42 48 -42 23 0 12 31 -14 40 -31 12 -34 12 -34
2z"/>
<path d="M340 670 c0 -5 16 -10 35 -10 19 0 35 5 35 10 0 6 -16 10 -35 10 -19
0 -35 -4 -35 -10z"/>
<path d="M288 378 c-3 -39 -6 -43 -30 -46 -27 -3 -40 -22 -16 -22 6 0 1 -11
-11 -24 -13 -14 -20 -29 -17 -34 3 -6 3 -17 0 -26 -5 -12 -10 -13 -25 -5 -28
15 -24 54 9 77 22 17 25 23 15 33 -10 10 -16 9 -28 -7 -13 -17 -14 -15 -8 29
5 43 4 47 -14 47 -19 0 -20 -5 -15 -67 l5 -68 -22 19 c-11 11 -24 17 -27 13
-11 -10 7 -47 23 -47 20 0 10 -43 -17 -82 -24 -33 -25 -38 -5 -38 8 0 24 17
37 39 18 32 24 36 35 25 7 -7 13 -18 13 -24 0 -7 7 -10 15 -7 19 8 31 -11 16
-26 -6 -6 -11 -17 -11 -24 0 -27 22 -11 52 37 17 28 33 50 35 50 3 0 2 -13 -2
-30 -6 -27 -4 -30 19 -30 22 0 26 -4 26 -30 0 -20 5 -30 15 -30 10 0 15 11 15
35 0 32 2 35 30 35 17 0 30 5 30 10 0 6 -13 10 -30 10 -23 0 -30 4 -30 20 0
13 7 20 20 20 11 0 20 5 20 10 0 6 -9 10 -20 10 -11 0 -20 7 -20 15 0 8 5 15
10 15 21 0 9 31 -16 41 -34 12 -42 4 -19 -21 10 -11 13 -20 7 -20 -8 0 -10
-15 -7 -44 3 -33 0 -46 -11 -50 -13 -5 -14 0 -9 24 6 27 4 30 -19 32 -14 0
-32 1 -38 2 -7 1 -18 8 -25 16 -9 11 -7 17 8 28 10 7 19 19 19 27 0 8 5 17 11
21 7 4 10 -6 7 -31 -2 -24 2 -40 10 -42 8 -3 12 8 12 36 l0 41 41 0 c28 0 39
4 36 13 -2 7 -19 11 -41 10 l-36 -2 6 39 c5 32 4 40 -9 40 -11 0 -17 -12 -19
-42z m-38 -188 c0 -5 -4 -10 -10 -10 -5 0 -10 5 -10 10 0 6 5 10 10 10 6 0 10
-4 10 -10z"/>
<path d="M345 390 c-8 -26 -3 -33 19 -24 19 7 18 35 -1 41 -6 2 -14 -5 -18
-17z"/>
<path d="M230 371 c0 -12 29 -35 36 -28 11 10 -5 37 -21 37 -8 0 -15 -4 -15
-9z"/>
</g>
</svg>
