<?xml version="1.0" standalone="no"?>
<!DOCTYPE svg PUBLIC "-//W3C//DTD SVG 20010904//EN"
 "http://www.w3.org/TR/2001/REC-SVG-20010904/DTD/svg10.dtd">
<svg version="1.0" xmlns="http://www.w3.org/2000/svg"
 width="95.000000pt" height="725.000000pt" viewBox="0 0 95.000000 725.000000"
 preserveAspectRatio="xMidYMid meet">
<metadata>
Created by potrace 1.16, written by Peter Selinger 2001-2019
</metadata>
<g transform="translate(0.000000,725.000000) scale(0.100000,-0.100000)"
fill="#000000" stroke="none">
<path d="M257 7135 c4 -28 2 -35 -11 -35 -9 0 -16 -4 -16 -9 0 -5 -11 -8 -25
-7 -20 1 -25 6 -25 27 0 21 -15 39 -33 39 -1 0 -2 -42 -2 -93 -1 -73 -5 -102
-23 -141 -25 -56 -25 -56 -12 -56 6 0 20 16 32 36 15 25 24 32 31 25 6 -6 15
-11 19 -11 14 0 9 27 -7 40 -22 18 -19 73 5 95 20 18 21 18 14 0 -6 -14 -4
-17 9 -12 22 8 32 -10 16 -29 -6 -8 -8 -18 -4 -22 4 -4 29 18 56 48 37 42 51
52 60 43 9 -9 6 -15 -14 -24 -29 -13 -42 -39 -32 -68 3 -11 1 -22 -5 -26 -6
-3 -10 3 -10 14 0 12 -7 21 -16 21 -10 0 -14 -7 -12 -22 2 -17 -3 -24 -19 -26
-42 -6 -24 -24 20 -20 l42 3 0 -49 c0 -30 5 -51 13 -53 9 -3 12 11 12 51 l0
56 51 0 c58 0 65 23 9 28 l-34 4 24 18 c21 16 23 21 12 32 -11 11 -17 9 -32
-12 -11 -14 -18 -31 -15 -37 2 -7 0 -13 -6 -13 -5 0 -8 17 -6 37 5 46 37 65
65 40 10 -10 22 -17 25 -17 14 0 7 33 -9 45 -14 10 -14 15 -4 34 19 37 0 46
-56 27 -55 -18 -64 -19 -64 -7 0 5 9 11 20 14 11 3 20 10 20 17 0 7 -8 9 -20
5 -15 -5 -18 -3 -14 9 4 11 0 16 -14 16 -18 0 -20 -5 -15 -35z m110 -41 c-3
-3 -12 -4 -19 -1 -8 3 -5 6 6 6 11 1 17 -2 13 -5z m-87 -23 c0 -12 -20 -25
-27 -18 -7 7 6 27 18 27 5 0 9 -4 9 -9z"/>
<path d="M100 7025 c0 -15 26 -32 36 -23 2 3 2 13 -2 22 -8 20 -34 21 -34 1z"/>
<path d="M550 7025 c0 -15 26 -32 36 -23 2 3 2 13 -2 22 -8 20 -34 21 -34 1z"/>
<path d="M340 6913 c1 -13 48 -63 60 -63 23 0 9 40 -20 55 -33 17 -40 18 -40
8z"/>
<path d="M225 6884 c-9 -14 -14 -28 -11 -31 7 -8 55 30 56 45 0 21 -27 13 -45
-14z"/>
<path d="M630 6620 c-6 -12 -9 -24 -7 -27 8 -7 47 21 44 31 -6 19 -26 17 -37
-4z"/>
<path d="M550 6575 c0 -15 26 -32 36 -23 2 3 2 13 -2 22 -8 20 -34 21 -34 1z"/>
<path d="M595 6157 c-1 -73 -5 -102 -23 -141 -12 -27 -20 -51 -18 -54 19 -18
65 74 66 130 0 27 7 42 26 57 26 20 24 47 -2 37 -10 -4 -14 3 -14 23 0 23 -15
41 -33 41 -1 0 -2 -42 -2 -93z"/>
<path d="M550 6125 c0 -15 26 -32 36 -23 2 3 2 13 -2 22 -8 20 -34 21 -34 1z"/>
<path d="M595 5707 c-1 -73 -5 -102 -23 -141 -25 -56 -25 -56 -12 -56 6 0 20
16 32 36 15 25 24 32 31 25 6 -6 15 -11 19 -11 14 0 9 27 -7 40 -25 21 -19 76
11 99 26 20 24 47 -2 37 -10 -4 -14 3 -14 23 0 23 -15 41 -33 41 -1 0 -2 -42
-2 -93z"/>
<path d="M550 5675 c0 -15 26 -32 36 -23 2 3 2 13 -2 22 -8 20 -34 21 -34 1z"/>
<path d="M707 5333 c6 -39 10 -50 17 -42 2 2 6 21 9 42 5 32 3 37 -13 37 -16
0 -18 -5 -13 -37z"/>
<path d="M595 5257 c-1 -73 -5 -102 -23 -141 -25 -56 -25 -56 -12 -56 6 0 20
16 32 36 15 25 24 32 31 25 6 -6 15 -11 19 -11 14 0 9 27 -7 40 -25 21 -19 76
11 99 26 20 24 47 -2 37 -10 -4 -14 3 -14 23 0 23 -15 41 -33 41 -1 0 -2 -42
-2 -93z"/>
<path d="M550 5225 c0 -15 26 -32 36 -23 2 3 2 13 -2 22 -8 20 -34 21 -34 1z"/>
<path d="M704 4904 c3 -9 6 -27 6 -40 0 -13 5 -24 10 -24 6 0 10 6 10 14 0 7
9 16 20 19 11 3 20 10 20 17 0 7 -8 9 -20 5 -15 -5 -18 -3 -14 9 4 12 0 16
-16 16 -16 0 -20 -4 -16 -16z"/>
<path d="M595 4807 c-1 -73 -5 -102 -23 -141 -25 -56 -25 -56 -12 -56 6 0 20
16 32 36 15 25 24 32 31 25 6 -6 15 -11 19 -11 14 0 9 27 -7 40 -25 21 -19 76
11 99 26 20 24 47 -2 37 -10 -4 -14 3 -14 23 0 23 -15 41 -33 41 -1 0 -2 -42
-2 -93z"/>
<path d="M550 4775 c0 -15 26 -32 36 -23 2 3 2 13 -2 22 -8 20 -34 21 -34 1z"/>
<path d="M707 4435 c4 -28 2 -35 -11 -35 -9 0 -16 -4 -16 -9 0 -5 -11 -8 -25
-7 -20 1 -25 6 -25 27 0 21 -15 39 -33 39 -1 0 -2 -42 -2 -93 -1 -73 -5 -102
-23 -141 -25 -56 -25 -56 -12 -56 6 0 20 16 32 36 15 25 24 32 31 25 6 -6 15
-11 19 -11 14 0 9 27 -7 40 -22 18 -19 73 5 95 18 17 20 17 14 2 -3 -9 -2 -17
3 -17 12 0 73 66 73 79 0 5 9 11 20 14 11 3 20 10 20 17 0 7 -8 9 -20 5 -15
-5 -18 -3 -14 9 4 11 0 16 -14 16 -18 0 -20 -5 -15 -35z"/>
<path d="M550 4325 c0 -15 26 -32 36 -23 2 3 2 13 -2 22 -8 20 -34 21 -34 1z"/>
<path d="M707 3985 c4 -28 2 -35 -11 -35 -9 0 -16 -4 -16 -9 0 -5 -11 -8 -25
-7 -20 1 -25 6 -25 27 0 21 -15 39 -33 39 -1 0 -2 -42 -2 -93 -1 -73 -5 -102
-23 -141 -25 -56 -25 -56 -12 -56 6 0 20 16 32 36 15 25 24 32 31 25 6 -6 15
-11 19 -11 14 0 9 27 -7 40 -22 18 -19 73 5 95 18 17 20 17 14 2 -9 -25 6 -21
38 10 41 39 47 20 9 -28 -48 -59 -27 -63 25 -4 49 56 52 65 24 72 -11 3 -20 9
-20 13 0 4 9 10 20 13 11 3 20 10 20 17 0 7 -8 9 -20 5 -15 -5 -18 -3 -14 9 4
11 0 16 -14 16 -18 0 -20 -5 -15 -35z"/>
<path d="M550 3875 c0 -15 26 -32 36 -23 2 3 2 13 -2 22 -8 20 -34 21 -34 1z"/>
<path d="M707 3535 c4 -28 2 -35 -11 -35 -9 0 -16 -4 -16 -9 0 -5 -11 -8 -25
-7 -20 1 -25 6 -25 27 0 21 -15 39 -33 39 -1 0 -2 -42 -2 -93 -1 -73 -5 -102
-23 -141 -25 -56 -25 -56 -12 -56 6 0 20 16 32 36 15 25 24 32 31 25 6 -6 15
-11 19 -11 14 0 9 27 -7 40 -22 18 -19 73 5 95 20 18 21 18 14 0 -6 -14 -4
-17 9 -12 22 8 32 -10 16 -29 -6 -8 -8 -18 -4 -22 7 -7 95 86 95 101 0 5 -9
11 -20 14 -11 3 -20 9 -20 13 0 4 9 10 20 13 11 3 20 10 20 17 0 7 -8 9 -20 5
-15 -5 -18 -3 -14 9 4 11 0 16 -14 16 -18 0 -20 -5 -15 -35z m23 -64 c0 -12
-20 -25 -27 -18 -7 7 6 27 18 27 5 0 9 -4 9 -9z"/>
<path d="M550 3425 c0 -15 26 -32 36 -23 2 3 2 13 -2 22 -8 20 -34 21 -34 1z"/>
<path d="M707 3085 c4 -28 2 -35 -11 -35 -9 0 -16 -4 -16 -9 0 -5 -11 -8 -25
-7 -20 1 -25 6 -25 27 0 21 -15 39 -33 39 -1 0 -2 -42 -2 -93 -1 -73 -5 -102
-23 -141 -25 -56 -25 -56 -12 -56 6 0 20 16 32 36 15 25 24 32 31 25 6 -6 15
-11 19 -11 14 0 9 27 -7 40 -22 18 -19 73 5 95 20 18 21 18 14 0 -6 -14 -4
-17 9 -12 22 8 32 -10 16 -29 -6 -8 -9 -18 -5 -22 7 -6 34 20 93 91 28 33 60
38 43 7 -6 -12 -22 -26 -36 -32 -24 -11 -33 -28 -14 -28 24 0 63 27 82 57 29
48 14 60 -48 39 -55 -18 -64 -19 -64 -7 0 5 9 11 20 14 11 3 20 10 20 17 0 7
-8 9 -20 5 -15 -5 -18 -3 -14 9 4 11 0 16 -14 16 -18 0 -20 -5 -15 -35z m23
-64 c0 -12 -20 -25 -27 -18 -7 7 6 27 18 27 5 0 9 -4 9 -9z"/>
<path d="M550 2975 c0 -15 26 -32 36 -23 2 3 2 13 -2 22 -8 20 -34 21 -34 1z"/>
<path d="M707 2635 c4 -28 2 -35 -11 -35 -9 0 -16 -4 -16 -9 0 -5 -11 -8 -25
-7 -20 1 -25 6 -25 27 0 21 -15 39 -33 39 -1 0 -2 -42 -2 -93 -1 -73 -5 -102
-23 -141 -25 -56 -25 -56 -12 -56 6 0 20 16 32 36 15 25 24 32 31 25 6 -6 15
-11 19 -11 14 0 9 27 -7 40 -22 18 -19 73 5 95 20 18 21 18 14 0 -6 -14 -4
-17 9 -12 22 8 32 -10 16 -29 -6 -8 -8 -18 -4 -22 4 -4 29 18 56 48 37 42 51
52 60 43 9 -9 6 -15 -14 -24 -26 -12 -36 -29 -17 -29 5 0 21 5 34 12 21 9 29
8 44 -5 10 -10 22 -17 25 -17 14 0 7 33 -9 45 -14 10 -14 15 -4 34 19 37 0 46
-56 27 -55 -18 -64 -19 -64 -7 0 5 9 11 20 14 11 3 20 10 20 17 0 7 -8 9 -20
5 -15 -5 -18 -3 -14 9 4 11 0 16 -14 16 -18 0 -20 -5 -15 -35z m110 -41 c-3
-3 -12 -4 -19 -1 -8 3 -5 6 6 6 11 1 17 -2 13 -5z m-87 -23 c0 -12 -20 -25
-27 -18 -7 7 6 27 18 27 5 0 9 -4 9 -9z"/>
<path d="M550 2525 c0 -15 26 -32 36 -23 2 3 2 13 -2 22 -8 20 -34 21 -34 1z"/>
<path d="M707 2185 c4 -28 2 -35 -11 -35 -9 0 -16 -4 -16 -9 0 -5 -11 -8 -25
-7 -20 1 -25 6 -25 27 0 21 -15 39 -33 39 -1 0 -2 -42 -2 -93 -1 -73 -5 -102
-23 -141 -25 -56 -25 -56 -12 -56 6 0 20 16 32 36 15 25 24 32 31 25 6 -6 15
-11 19 -11 14 0 9 27 -7 40 -22 18 -19 73 5 95 20 18 21 18 14 0 -6 -14 -4
-17 9 -12 22 8 32 -10 16 -29 -6 -8 -8 -18 -4 -22 4 -4 29 18 56 48 37 42 51
52 60 43 9 -9 6 -15 -14 -24 -26 -12 -36 -29 -17 -29 5 0 21 5 34 12 21 9 29
8 44 -5 10 -10 22 -17 25 -17 14 0 7 33 -9 45 -14 10 -14 15 -4 34 19 37 0 46
-56 27 -55 -18 -64 -19 -64 -7 0 5 9 11 20 14 11 3 20 10 20 17 0 7 -8 9 -20
5 -15 -5 -18 -3 -14 9 4 11 0 16 -14 16 -18 0 -20 -5 -15 -35z m110 -41 c-3
-3 -12 -4 -19 -1 -8 3 -5 6 6 6 11 1 17 -2 13 -5z m-87 -23 c0 -12 -20 -25
-27 -18 -7 7 6 27 18 27 5 0 9 -4 9 -9z"/>
<path d="M550 2075 c0 -15 26 -32 36 -23 2 3 2 13 -2 22 -8 20 -34 21 -34 1z"/>
<path d="M702 2023 c5 -25 28 -28 28 -4 0 12 -6 21 -16 21 -9 0 -14 -7 -12
-17z"/>
<path d="M707 1735 c4 -28 2 -35 -11 -35 -9 0 -16 -4 -16 -9 0 -5 -11 -8 -25
-7 -20 1 -25 6 -25 27 0 21 -15 39 -33 39 -1 0 -2 -42 -2 -93 -1 -73 -5 -102
-23 -141 -25 -56 -25 -56 -12 -56 6 0 20 16 32 36 15 25 24 32 31 25 6 -6 15
-11 19 -11 14 0 9 27 -7 40 -22 18 -19 73 5 95 20 18 21 18 14 0 -6 -14 -4
-17 9 -12 22 8 32 -10 16 -29 -6 -8 -8 -18 -4 -22 4 -4 29 18 56 48 37 42 51
52 60 43 9 -9 6 -15 -14 -24 -26 -12 -36 -29 -17 -29 5 0 21 5 34 12 21 9 29
8 44 -5 10 -10 22 -17 25 -17 14 0 7 33 -9 45 -14 10 -14 15 -4 34 19 37 0 46
-56 27 -55 -18 -64 -19 -64 -7 0 5 9 11 20 14 11 3 20 10 20 17 0 7 -8 9 -20
5 -15 -5 -18 -3 -14 9 4 11 0 16 -14 16 -18 0 -20 -5 -15 -35z m110 -41 c-3
-3 -12 -4 -19 -1 -8 3 -5 6 6 6 11 1 17 -2 13 -5z m-87 -23 c0 -12 -20 -25
-27 -18 -7 7 6 27 18 27 5 0 9 -4 9 -9z"/>
<path d="M550 1625 c0 -15 26 -32 36 -23 2 3 2 13 -2 22 -8 20 -34 21 -34 1z"/>
<path d="M796 1595 c-10 -15 -15 -29 -13 -32 8 -8 58 29 54 40 -7 21 -25 17
-41 -8z"/>
<path d="M702 1573 c5 -25 28 -28 28 -4 0 12 -6 21 -16 21 -9 0 -14 -7 -12
-17z"/>
<path d="M707 1285 c4 -28 2 -35 -11 -35 -9 0 -16 -4 -16 -9 0 -5 -11 -8 -25
-7 -20 1 -25 6 -25 27 0 21 -15 39 -33 39 -1 0 -2 -42 -2 -93 -1 -73 -5 -102
-23 -141 -25 -56 -25 -56 -12 -56 6 0 20 16 32 36 15 25 24 32 31 25 6 -6 15
-11 19 -11 14 0 9 27 -7 40 -22 18 -19 73 5 95 20 18 21 18 14 0 -6 -14 -4
-17 9 -12 22 8 32 -10 16 -29 -6 -8 -8 -18 -4 -22 4 -4 29 18 56 48 37 42 51
52 60 43 9 -9 6 -15 -14 -24 -26 -12 -36 -29 -17 -29 5 0 21 5 34 12 21 9 29
8 44 -5 10 -10 22 -17 25 -17 14 0 7 33 -9 45 -14 10 -14 15 -4 34 19 37 0 46
-56 27 -55 -18 -64 -19 -64 -7 0 5 9 11 20 14 11 3 20 10 20 17 0 7 -8 9 -20
5 -15 -5 -18 -3 -14 9 4 11 0 16 -14 16 -18 0 -20 -5 -15 -35z m110 -41 c-3
-3 -12 -4 -19 -1 -8 3 -5 6 6 6 11 1 17 -2 13 -5z m-87 -23 c0 -12 -20 -25
-27 -18 -7 7 6 27 18 27 5 0 9 -4 9 -9z"/>
<path d="M550 1175 c0 -15 26 -32 36 -23 2 3 2 13 -2 22 -8 20 -34 21 -34 1z"/>
<path d="M796 1145 c-9 -14 -14 -30 -11 -35 4 -6 -7 -10 -24 -10 -24 0 -31 4
-31 20 0 11 -7 20 -16 20 -10 0 -14 -7 -12 -22 2 -17 -3 -24 -19 -26 -13 -2
-23 -8 -23 -14 0 -7 16 -8 46 -4 26 3 74 6 106 6 43 0 59 3 56 13 -3 6 -20 13
-38 15 l-34 4 23 17 c13 10 21 23 17 30 -11 17 -22 13 -40 -14z"/>
<path d="M707 835 c4 -28 2 -35 -11 -35 -9 0 -16 -4 -16 -9 0 -5 -11 -8 -25
-7 -20 1 -25 6 -25 27 0 21 -15 39 -33 39 -1 0 -2 -42 -2 -93 -1 -73 -5 -102
-23 -141 -25 -56 -25 -56 -12 -56 6 0 20 16 32 36 15 25 24 32 31 25 6 -6 15
-11 19 -11 14 0 9 27 -7 40 -22 18 -19 73 5 95 20 18 21 18 14 0 -6 -14 -4
-17 9 -12 22 8 32 -10 16 -29 -6 -8 -8 -18 -4 -22 4 -4 29 18 56 48 37 42 51
52 60 43 9 -9 6 -15 -14 -24 -29 -13 -42 -39 -32 -68 3 -11 1 -22 -5 -26 -6
-3 -10 3 -10 14 0 12 -7 21 -16 21 -10 0 -14 -7 -12 -22 2 -17 -3 -24 -19 -26
-42 -6 -24 -24 20 -20 l42 3 0 -49 c0 -30 5 -51 13 -53 9 -3 12 11 12 51 l0
56 51 0 c58 0 65 23 9 28 l-34 4 24 18 c21 16 23 21 12 32 -11 11 -17 9 -32
-12 -11 -14 -18 -31 -15 -37 2 -7 0 -13 -6 -13 -5 0 -8 17 -6 37 5 46 37 65
65 40 10 -10 22 -17 25 -17 14 0 7 33 -9 45 -14 10 -14 15 -4 34 19 37 0 46
-56 27 -55 -18 -64 -19 -64 -7 0 5 9 11 20 14 11 3 20 10 20 17 0 7 -8 9 -20
5 -15 -5 -18 -3 -14 9 4 11 0 16 -14 16 -18 0 -20 -5 -15 -35z m110 -41 c-3
-3 -12 -4 -19 -1 -8 3 -5 6 6 6 11 1 17 -2 13 -5z m-87 -23 c0 -12 -20 -25
-27 -18 -7 7 6 27 18 27 5 0 9 -4 9 -9z"/>
<path d="M550 725 c0 -15 26 -32 36 -23 2 3 2 13 -2 22 -8 20 -34 21 -34 1z"/>
<path d="M707 385 c4 -28 2 -35 -11 -35 -9 0 -16 -4 -16 -9 0 -5 -11 -8 -25
-7 -20 1 -25 6 -25 27 0 21 -15 39 -33 39 -1 0 -2 -42 -2 -93 -1 -73 -5 -102
-23 -141 -25 -56 -25 -56 -12 -56 6 0 20 16 32 36 15 25 24 32 31 25 6 -6 15
-11 19 -11 14 0 9 27 -7 40 -22 18 -19 73 5 95 20 18 21 18 14 0 -6 -14 -4
-17 9 -12 22 8 32 -10 16 -29 -6 -8 -8 -18 -4 -22 4 -4 29 18 56 48 37 42 51
52 60 43 9 -9 6 -15 -14 -24 -29 -13 -42 -39 -32 -68 3 -11 1 -22 -5 -26 -6
-3 -10 3 -10 14 0 12 -7 21 -16 21 -10 0 -14 -7 -12 -22 2 -17 -3 -24 -19 -26
-42 -6 -24 -24 20 -20 l42 3 0 -49 c0 -30 5 -51 13 -53 9 -3 12 11 12 51 l0
56 51 0 c58 0 65 23 9 28 l-34 4 24 18 c21 16 23 21 12 32 -11 11 -17 9 -32
-12 -11 -14 -18 -31 -15 -37 2 -7 0 -13 -6 -13 -5 0 -8 17 -6 37 5 46 37 65
65 40 10 -10 22 -17 25 -17 14 0 7 33 -9 45 -14 10 -14 15 -4 34 19 37 0 46
-56 27 -55 -18 -64 -19 -64 -7 0 5 9 11 20 14 11 3 20 10 20 17 0 7 -8 9 -20
5 -15 -5 -18 -3 -14 9 4 11 0 16 -14 16 -18 0 -20 -5 -15 -35z m110 -41 c-3
-3 -12 -4 -19 -1 -8 3 -5 6 6 6 11 1 17 -2 13 -5z m-87 -23 c0 -12 -20 -25
-27 -18 -7 7 6 27 18 27 5 0 9 -4 9 -9z"/>
<path d="M550 275 c0 -15 26 -32 36 -23 2 3 2 13 -2 22 -8 20 -34 21 -34 1z"/>
<path d="M675 134 c-9 -14 -14 -28 -11 -31 7 -8 55 30 56 45 0 21 -27 13 -45
-14z"/>
</g>
</svg>
