<?xml version="1.0" standalone="no"?>
<!DOCTYPE svg PUBLIC "-//W3C//DTD SVG 20010904//EN"
 "http://www.w3.org/TR/2001/REC-SVG-20010904/DTD/svg10.dtd">
<svg version="1.0" xmlns="http://www.w3.org/2000/svg"
 width="95.000000pt" height="725.000000pt" viewBox="0 0 95.000000 725.000000"
 preserveAspectRatio="xMidYMid meet">
<metadata>
Created by potrace 1.16, written by Peter Selinger 2001-2019
</metadata>
<g transform="translate(0.000000,725.000000) scale(0.100000,-0.100000)"
fill="#000000" stroke="none">
<path d="M327 7113 c6 -51 4 -57 -9 -45 -9 7 -27 10 -47 6 -42 -9 -40 -24 4
-22 47 2 53 -7 32 -44 -22 -39 -14 -48 17 -19 20 19 24 20 36 6 14 -16 40 -20
40 -6 0 12 -29 41 -41 41 -19 0 -8 30 16 46 14 9 25 23 25 30 0 17 -27 18 -33
2 -3 -7 -6 1 -6 18 -1 27 -15 44 -36 44 -2 0 -1 -26 2 -57z"/>
<path d="M230 7145 c0 -8 -4 -15 -10 -15 -5 0 -10 -4 -10 -10 0 -11 39 -13 64
-4 20 8 21 24 1 24 -8 0 -15 5 -15 10 0 6 -7 10 -15 10 -8 0 -15 -7 -15 -15z"/>
<path d="M682 7143 c5 -25 28 -28 28 -4 0 12 -6 21 -16 21 -9 0 -14 -7 -12
-17z"/>
<path d="M136 7093 c4 -45 3 -54 -6 -40 -6 9 -18 17 -25 17 -22 0 -18 -31 5
-37 24 -6 25 -15 4 -54 -21 -41 -8 -51 21 -15 14 18 25 24 29 17 11 -17 26
-13 26 8 0 10 -7 21 -15 25 -22 8 -18 43 5 56 26 14 26 34 -1 27 -18 -5 -20
-2 -15 18 5 20 -7 35 -29 35 -2 0 -1 -26 1 -57z"/>
<path d="M230 7090 c0 -5 9 -10 20 -10 11 0 20 5 20 10 0 6 -9 10 -20 10 -11
0 -20 -4 -20 -10z"/>
<path d="M240 7031 c0 -5 5 -11 12 -13 6 -2 8 -10 4 -16 -11 -19 -26 -14 -26
8 0 12 -7 20 -16 20 -11 0 -14 -5 -10 -16 3 -9 6 -22 6 -30 0 -19 45 -18 64 2
25 25 20 54 -9 54 -14 0 -25 -4 -25 -9z"/>
<path d="M250 6950 c0 -5 8 -10 17 -10 16 0 16 -1 1 -16 -18 -19 -40 -11 -31
11 4 11 -3 15 -26 15 -38 0 -40 -12 -4 -35 l26 -18 -24 -18 c-13 -10 -36 -21
-51 -24 -16 -4 -28 -11 -28 -17 0 -13 52 -3 94 17 28 15 32 14 58 -5 29 -21
42 -24 96 -22 47 3 36 22 -19 36 -24 7 -52 17 -63 22 -17 10 -16 12 9 32 15
12 24 26 20 32 -8 13 -75 13 -75 0z"/>
<path d="M680 6695 c0 -8 -4 -15 -10 -15 -5 0 -10 -4 -10 -10 0 -11 39 -13 64
-4 20 8 21 24 1 24 -8 0 -15 5 -15 10 0 6 -7 10 -15 10 -8 0 -15 -7 -15 -15z"/>
<path d="M680 6245 c0 -8 -4 -15 -10 -15 -5 0 -10 -4 -10 -10 0 -11 39 -13 64
-4 20 8 21 24 1 24 -8 0 -15 5 -15 10 0 6 -7 10 -15 10 -8 0 -15 -7 -15 -15z"/>
<path d="M680 6190 c0 -5 9 -10 20 -10 11 0 20 5 20 10 0 6 -9 10 -20 10 -11
0 -20 -4 -20 -10z"/>
<path d="M680 5795 c0 -8 -4 -15 -10 -15 -5 0 -10 -4 -10 -10 0 -11 39 -13 64
-4 20 8 21 24 1 24 -8 0 -15 5 -15 10 0 6 -7 10 -15 10 -8 0 -15 -7 -15 -15z"/>
<path d="M680 5740 c0 -5 9 -10 20 -10 11 0 20 5 20 10 0 6 -9 10 -20 10 -11
0 -20 -4 -20 -10z"/>
<path d="M690 5710 c0 -5 9 -10 20 -10 11 0 20 5 20 10 0 6 -9 10 -20 10 -11
0 -20 -4 -20 -10z"/>
<path d="M680 5345 c0 -8 -4 -15 -10 -15 -5 0 -10 -4 -10 -10 0 -11 39 -13 64
-4 20 8 21 24 1 24 -8 0 -15 5 -15 10 0 6 -7 10 -15 10 -8 0 -15 -7 -15 -15z"/>
<path d="M680 5290 c0 -5 9 -10 20 -10 11 0 20 5 20 10 0 6 -9 10 -20 10 -11
0 -20 -4 -20 -10z"/>
<path d="M690 5260 c0 -5 9 -10 20 -10 11 0 20 5 20 10 0 6 -9 10 -20 10 -11
0 -20 -4 -20 -10z"/>
<path d="M654 5214 c3 -9 6 -22 6 -30 0 -8 5 -14 10 -14 6 0 10 14 10 30 0 21
-5 30 -16 30 -11 0 -14 -5 -10 -16z"/>
<path d="M680 4895 c0 -8 -4 -15 -10 -15 -5 0 -10 -4 -10 -10 0 -11 39 -13 64
-4 20 8 21 24 1 24 -8 0 -15 5 -15 10 0 6 -7 10 -15 10 -8 0 -15 -7 -15 -15z"/>
<path d="M680 4840 c0 -5 9 -10 20 -10 11 0 20 5 20 10 0 6 -9 10 -20 10 -11
0 -20 -4 -20 -10z"/>
<path d="M690 4810 c0 -5 9 -10 20 -10 11 0 20 5 20 10 0 6 -9 10 -20 10 -11
0 -20 -4 -20 -10z"/>
<path d="M690 4780 c0 -5 5 -10 10 -10 6 0 10 -7 10 -16 0 -23 24 -11 28 14 3
18 -2 22 -22 22 -14 0 -26 -4 -26 -10z"/>
<path d="M654 4764 c3 -9 6 -22 6 -30 0 -8 5 -14 10 -14 6 0 10 14 10 30 0 21
-5 30 -16 30 -11 0 -14 -5 -10 -16z"/>
<path d="M680 4445 c0 -8 -4 -15 -10 -15 -5 0 -10 -4 -10 -10 0 -11 39 -13 64
-4 20 8 21 24 1 24 -8 0 -15 5 -15 10 0 6 -7 10 -15 10 -8 0 -15 -7 -15 -15z"/>
<path d="M680 4390 c0 -5 9 -10 20 -10 11 0 20 5 20 10 0 6 -9 10 -20 10 -11
0 -20 -4 -20 -10z"/>
<path d="M690 4360 c0 -5 9 -10 20 -10 11 0 20 5 20 10 0 6 -9 10 -20 10 -11
0 -20 -4 -20 -10z"/>
<path d="M690 4331 c0 -5 5 -11 12 -13 6 -2 8 -10 4 -16 -11 -19 -26 -14 -26
8 0 12 -7 20 -16 20 -11 0 -14 -5 -10 -16 3 -9 6 -22 6 -30 0 -19 45 -18 64 2
25 25 20 54 -9 54 -14 0 -25 -4 -25 -9z"/>
<path d="M680 3995 c0 -8 -4 -15 -10 -15 -5 0 -10 -4 -10 -10 0 -11 39 -13 64
-4 20 8 21 24 1 24 -8 0 -15 5 -15 10 0 6 -7 10 -15 10 -8 0 -15 -7 -15 -15z"/>
<path d="M680 3940 c0 -5 9 -10 20 -10 11 0 20 5 20 10 0 6 -9 10 -20 10 -11
0 -20 -4 -20 -10z"/>
<path d="M542 3904 c2 -11 11 -20 22 -22 13 -3 17 1 14 14 -2 11 -11 20 -22
22 -13 3 -17 -1 -14 -14z"/>
<path d="M690 3910 c0 -5 9 -10 20 -10 11 0 20 5 20 10 0 6 -9 10 -20 10 -11
0 -20 -4 -20 -10z"/>
<path d="M690 3881 c0 -5 5 -11 12 -13 6 -2 8 -10 4 -16 -11 -19 -26 -14 -26
8 0 12 -7 20 -16 20 -11 0 -14 -5 -10 -16 3 -9 6 -22 6 -30 0 -19 45 -18 64 2
25 25 20 54 -9 54 -14 0 -25 -4 -25 -9z"/>
<path d="M680 3545 c0 -8 -4 -15 -10 -15 -5 0 -10 -4 -10 -10 0 -11 39 -13 64
-4 20 8 21 24 1 24 -8 0 -15 5 -15 10 0 6 -7 10 -15 10 -8 0 -15 -7 -15 -15z"/>
<path d="M610 3485 c-7 -9 -10 -18 -7 -21 7 -8 47 14 47 26 0 15 -26 12 -40
-5z"/>
<path d="M680 3490 c0 -5 9 -10 20 -10 11 0 20 5 20 10 0 6 -9 10 -20 10 -11
0 -20 -4 -20 -10z"/>
<path d="M542 3454 c2 -11 11 -20 22 -22 13 -3 17 1 14 14 -2 11 -11 20 -22
22 -13 3 -17 -1 -14 -14z"/>
<path d="M690 3460 c0 -5 9 -10 20 -10 11 0 20 5 20 10 0 6 -9 10 -20 10 -11
0 -20 -4 -20 -10z"/>
<path d="M690 3431 c0 -5 5 -11 12 -13 6 -2 8 -10 4 -16 -11 -19 -26 -14 -26
8 0 12 -7 20 -16 20 -11 0 -14 -5 -10 -16 3 -9 6 -22 6 -30 0 -19 45 -18 64 2
25 25 20 54 -9 54 -14 0 -25 -4 -25 -9z"/>
<path d="M680 3095 c0 -8 -4 -15 -10 -15 -5 0 -10 -4 -10 -10 0 -11 39 -13 64
-4 20 8 21 24 1 24 -8 0 -15 5 -15 10 0 6 -7 10 -15 10 -8 0 -15 -7 -15 -15z"/>
<path d="M586 3043 c4 -45 3 -54 -6 -40 -6 9 -18 17 -25 17 -22 0 -18 -31 5
-37 24 -6 25 -15 4 -54 -8 -17 -13 -34 -9 -37 12 -12 45 39 51 80 4 23 14 43
25 49 26 13 24 33 -2 26 -18 -5 -20 -2 -15 18 5 20 -7 35 -29 35 -2 0 -1 -26
1 -57z"/>
<path d="M680 3040 c0 -5 9 -10 20 -10 11 0 20 5 20 10 0 6 -9 10 -20 10 -11
0 -20 -4 -20 -10z"/>
<path d="M690 3010 c0 -5 9 -10 20 -10 11 0 20 5 20 10 0 6 -9 10 -20 10 -11
0 -20 -4 -20 -10z"/>
<path d="M690 2981 c0 -5 5 -11 12 -13 6 -2 8 -10 4 -16 -11 -19 -26 -14 -26
8 0 12 -7 20 -16 20 -11 0 -14 -5 -10 -16 3 -9 6 -22 6 -30 0 -19 45 -18 64 2
25 25 20 54 -9 54 -14 0 -25 -4 -25 -9z"/>
<path d="M680 2645 c0 -8 -4 -15 -10 -15 -5 0 -10 -4 -10 -10 0 -11 39 -13 64
-4 20 8 21 24 1 24 -8 0 -15 5 -15 10 0 6 -7 10 -15 10 -8 0 -15 -7 -15 -15z"/>
<path d="M586 2593 c4 -45 3 -54 -6 -40 -6 9 -18 17 -25 17 -22 0 -18 -31 5
-37 24 -6 25 -15 4 -54 -21 -41 -8 -51 21 -15 14 18 25 24 29 17 11 -17 26
-13 26 8 0 10 -7 21 -15 25 -22 8 -18 43 5 56 26 14 26 34 -1 27 -18 -5 -20
-2 -15 18 5 20 -7 35 -29 35 -2 0 -1 -26 1 -57z"/>
<path d="M680 2590 c0 -5 9 -10 20 -10 11 0 20 5 20 10 0 6 -9 10 -20 10 -11
0 -20 -4 -20 -10z"/>
<path d="M690 2560 c0 -5 9 -10 20 -10 11 0 20 5 20 10 0 6 -9 10 -20 10 -11
0 -20 -4 -20 -10z"/>
<path d="M690 2531 c0 -5 5 -11 12 -13 6 -2 8 -10 4 -16 -11 -19 -26 -14 -26
8 0 12 -7 20 -16 20 -11 0 -14 -5 -10 -16 3 -9 6 -22 6 -30 0 -19 45 -18 64 2
25 25 20 54 -9 54 -14 0 -25 -4 -25 -9z"/>
<path d="M680 2195 c0 -8 -4 -15 -10 -15 -5 0 -10 -4 -10 -10 0 -11 39 -13 64
-4 20 8 21 24 1 24 -8 0 -15 5 -15 10 0 6 -7 10 -15 10 -8 0 -15 -7 -15 -15z"/>
<path d="M586 2143 c4 -45 3 -54 -6 -40 -6 9 -18 17 -25 17 -22 0 -18 -31 5
-37 24 -6 25 -15 4 -54 -21 -41 -8 -51 21 -15 14 18 25 24 29 17 11 -17 26
-13 26 8 0 10 -7 21 -15 25 -22 8 -18 43 5 56 26 14 26 34 -1 27 -18 -5 -20
-2 -15 18 5 20 -7 35 -29 35 -2 0 -1 -26 1 -57z"/>
<path d="M680 2140 c0 -5 9 -10 20 -10 11 0 20 5 20 10 0 6 -9 10 -20 10 -11
0 -20 -4 -20 -10z"/>
<path d="M713 2123 c-38 -7 -26 -22 17 -21 26 0 39 5 37 12 -4 13 -22 16 -54
9z"/>
<path d="M690 2081 c0 -5 5 -11 12 -13 6 -2 8 -10 4 -16 -11 -19 -26 -14 -26
8 0 12 -7 20 -16 20 -11 0 -14 -5 -10 -16 3 -9 6 -22 6 -30 0 -19 45 -18 64 2
25 25 20 54 -9 54 -14 0 -25 -4 -25 -9z"/>
<path d="M680 1745 c0 -8 -4 -15 -10 -15 -5 0 -10 -4 -10 -10 0 -11 39 -13 64
-4 20 8 21 24 1 24 -8 0 -15 5 -15 10 0 6 -7 10 -15 10 -8 0 -15 -7 -15 -15z"/>
<path d="M586 1693 c4 -45 3 -54 -6 -40 -6 9 -18 17 -25 17 -22 0 -18 -31 5
-37 24 -6 25 -15 4 -54 -21 -41 -8 -51 21 -15 14 18 25 24 29 17 11 -17 26
-13 26 8 0 10 -7 21 -15 25 -22 8 -18 43 5 56 26 14 26 34 -1 27 -18 -5 -20
-2 -15 18 5 20 -7 35 -29 35 -2 0 -1 -26 1 -57z"/>
<path d="M812 1699 c-7 -12 -11 -23 -9 -26 9 -9 47 17 47 32 0 22 -23 18 -38
-6z"/>
<path d="M680 1690 c0 -5 9 -10 20 -10 11 0 20 5 20 10 0 6 -9 10 -20 10 -11
0 -20 -4 -20 -10z"/>
<path d="M713 1673 c-38 -7 -26 -22 17 -21 26 0 39 5 37 12 -4 13 -22 16 -54
9z"/>
<path d="M690 1631 c0 -5 5 -11 12 -13 6 -2 8 -10 4 -16 -11 -19 -26 -14 -26
8 0 12 -7 20 -16 20 -11 0 -14 -5 -10 -16 3 -9 6 -22 6 -30 0 -19 45 -18 64 2
25 25 20 54 -9 54 -14 0 -25 -4 -25 -9z"/>
<path d="M777 1263 c6 -51 4 -57 -9 -45 -9 7 -27 10 -47 6 -42 -9 -40 -24 4
-22 47 2 53 -7 32 -44 -10 -17 -15 -33 -11 -37 9 -9 54 48 54 69 0 11 11 27
25 36 14 9 25 23 25 30 0 17 -27 18 -33 2 -3 -7 -6 1 -6 18 -1 27 -15 44 -36
44 -2 0 -1 -26 2 -57z"/>
<path d="M680 1295 c0 -8 -4 -15 -10 -15 -5 0 -10 -4 -10 -10 0 -11 39 -13 64
-4 20 8 21 24 1 24 -8 0 -15 5 -15 10 0 6 -7 10 -15 10 -8 0 -15 -7 -15 -15z"/>
<path d="M586 1243 c4 -45 3 -54 -6 -40 -6 9 -18 17 -25 17 -22 0 -18 -31 5
-37 24 -6 25 -15 4 -54 -21 -41 -8 -51 21 -15 14 18 25 24 29 17 11 -17 26
-13 26 8 0 10 -7 21 -15 25 -22 8 -18 43 5 56 26 14 26 34 -1 27 -18 -5 -20
-2 -15 18 5 20 -7 35 -29 35 -2 0 -1 -26 1 -57z"/>
<path d="M680 1240 c0 -5 9 -10 20 -10 11 0 20 5 20 10 0 6 -9 10 -20 10 -11
0 -20 -4 -20 -10z"/>
<path d="M690 1181 c0 -5 5 -11 12 -13 6 -2 8 -10 4 -16 -11 -19 -26 -14 -26
8 0 12 -7 20 -16 20 -11 0 -14 -5 -10 -16 3 -9 6 -22 6 -30 0 -19 45 -18 64 2
25 25 20 54 -9 54 -14 0 -25 -4 -25 -9z"/>
<path d="M777 813 c6 -51 4 -57 -9 -45 -9 7 -27 10 -47 6 -42 -9 -40 -24 4
-22 47 2 53 -7 32 -44 -22 -39 -14 -48 17 -19 20 19 24 20 36 6 14 -16 40 -20
40 -6 0 12 -29 41 -41 41 -19 0 -8 30 16 46 14 9 25 23 25 30 0 17 -27 18 -33
2 -3 -7 -6 1 -6 18 -1 27 -15 44 -36 44 -2 0 -1 -26 2 -57z"/>
<path d="M680 845 c0 -8 -4 -15 -10 -15 -5 0 -10 -4 -10 -10 0 -11 39 -13 64
-4 20 8 21 24 1 24 -8 0 -15 5 -15 10 0 6 -7 10 -15 10 -8 0 -15 -7 -15 -15z"/>
<path d="M586 793 c4 -45 3 -54 -6 -40 -6 9 -18 17 -25 17 -22 0 -18 -31 5
-37 24 -6 25 -15 4 -54 -21 -41 -8 -51 21 -15 14 18 25 24 29 17 11 -17 26
-13 26 8 0 10 -7 21 -15 25 -22 8 -18 43 5 56 26 14 26 34 -1 27 -18 -5 -20
-2 -15 18 5 20 -7 35 -29 35 -2 0 -1 -26 1 -57z"/>
<path d="M680 790 c0 -5 9 -10 20 -10 11 0 20 5 20 10 0 6 -9 10 -20 10 -11 0
-20 -4 -20 -10z"/>
<path d="M690 731 c0 -5 5 -11 12 -13 6 -2 8 -10 4 -16 -11 -19 -26 -14 -26 8
0 12 -7 20 -16 20 -11 0 -14 -5 -10 -16 3 -9 6 -22 6 -30 0 -19 45 -18 64 2
25 25 20 54 -9 54 -14 0 -25 -4 -25 -9z"/>
<path d="M777 363 c6 -51 4 -57 -9 -45 -9 7 -27 10 -47 6 -42 -9 -40 -24 4
-22 47 2 53 -7 32 -44 -22 -39 -14 -48 17 -19 20 19 24 20 36 6 14 -16 40 -20
40 -6 0 12 -29 41 -41 41 -19 0 -8 30 16 46 14 9 25 23 25 30 0 17 -27 18 -33
2 -3 -7 -6 1 -6 18 -1 27 -15 44 -36 44 -2 0 -1 -26 2 -57z"/>
<path d="M680 395 c0 -8 -4 -15 -10 -15 -5 0 -10 -4 -10 -10 0 -11 39 -13 64
-4 20 8 21 24 1 24 -8 0 -15 5 -15 10 0 6 -7 10 -15 10 -8 0 -15 -7 -15 -15z"/>
<path d="M586 343 c4 -45 3 -54 -6 -40 -6 9 -18 17 -25 17 -22 0 -18 -31 5
-37 24 -6 25 -15 4 -54 -21 -41 -8 -51 21 -15 14 18 25 24 29 17 11 -17 26
-13 26 8 0 10 -7 21 -15 25 -22 8 -18 43 5 56 26 14 26 34 -1 27 -18 -5 -20
-2 -15 18 5 20 -7 35 -29 35 -2 0 -1 -26 1 -57z"/>
<path d="M680 340 c0 -5 9 -10 20 -10 11 0 20 5 20 10 0 6 -9 10 -20 10 -11 0
-20 -4 -20 -10z"/>
<path d="M690 281 c0 -5 5 -11 12 -13 6 -2 8 -10 4 -16 -11 -19 -26 -14 -26 8
0 12 -7 20 -16 20 -11 0 -14 -5 -10 -16 3 -9 6 -22 6 -30 0 -19 45 -18 64 2
25 25 20 54 -9 54 -14 0 -25 -4 -25 -9z"/>
<path d="M700 201 c0 -5 8 -11 18 -13 22 -5 -70 -74 -110 -83 -16 -4 -28 -11
-28 -17 0 -13 50 -4 93 17 42 21 109 83 102 95 -8 13 -75 13 -75 1z"/>
<path d="M630 190 c0 -5 14 -10 30 -10 17 0 30 5 30 10 0 6 -13 10 -30 10 -16
0 -30 -4 -30 -10z"/>
</g>
</svg>
