<?xml version="1.0" standalone="no"?>
<!DOCTYPE svg PUBLIC "-//W3C//DTD SVG 20010904//EN"
 "http://www.w3.org/TR/2001/REC-SVG-20010904/DTD/svg10.dtd">
<svg version="1.0" xmlns="http://www.w3.org/2000/svg"
 width="95.000000pt" height="725.000000pt" viewBox="0 0 95.000000 725.000000"
 preserveAspectRatio="xMidYMid meet">
<metadata>
Created by potrace 1.16, written by Peter Selinger 2001-2019
</metadata>
<g transform="translate(0.000000,725.000000) scale(0.100000,-0.100000)"
fill="#000000" stroke="none">
<path d="M283 7147 c-47 -25 -57 -43 -17 -33 19 5 25 3 22 -6 -3 -7 -27 -17
-54 -21 -27 -5 -52 -14 -57 -20 -4 -7 -7 10 -5 38 2 38 -1 50 -12 52 -12 3
-15 -12 -15 -90 -1 -81 -4 -101 -27 -147 -15 -30 -25 -56 -23 -59 8 -7 36 21
51 52 14 27 17 28 33 13 23 -21 31 -20 31 3 0 11 -9 23 -20 26 -32 10 -27 66
8 92 34 25 92 35 92 16 0 -9 -13 -13 -40 -13 -37 0 -52 -11 -31 -24 4 -3 11
-19 14 -36 4 -16 11 -30 17 -30 7 0 9 13 4 35 -5 31 -4 35 15 35 11 0 21 -4
21 -10 0 -5 -7 -7 -15 -4 -9 4 -15 0 -15 -9 0 -9 7 -22 15 -31 20 -20 19 -26
-5 -26 -31 0 -24 -20 8 -21 25 -1 25 -2 -8 -12 -43 -13 -47 -16 -35 -25 6 -4
16 -19 22 -34 7 -16 17 -28 23 -28 13 0 13 37 0 45 -22 14 4 25 56 25 40 0 54
3 51 13 -2 7 -17 11 -36 9 -17 -1 -31 2 -31 8 0 5 11 10 25 10 14 0 25 5 25
10 0 6 -12 10 -27 10 -20 0 -24 3 -14 9 7 5 21 7 30 4 13 -3 21 6 30 35 17 51
9 64 -35 56 -20 -4 -34 -2 -34 4 0 5 20 13 45 16 56 9 61 30 5 24 -33 -3 -40
0 -40 14 0 10 7 18 16 18 19 0 13 24 -7 27 -8 1 -33 -8 -56 -20z m70 -114
c-13 -2 -24 -13 -26 -26 -4 -18 -5 -17 -6 6 -1 23 3 27 27 26 22 -1 23 -2 5
-6z"/>
<path d="M90 7056 c0 -17 21 -56 30 -56 19 0 7 55 -12 58 -10 2 -18 1 -18 -2z"/>
<path d="M540 7056 c0 -17 21 -56 30 -56 19 0 7 55 -12 58 -10 2 -18 1 -18 -2z"/>
<path d="M192 6870 c-16 -26 -15 -50 2 -50 15 0 26 21 26 51 0 25 -12 24 -28
-1z"/>
<path d="M310 6884 c0 -13 21 -44 30 -44 16 0 11 37 -6 44 -19 7 -24 8 -24 0z"/>
<path d="M283 6697 c-47 -25 -57 -43 -17 -33 19 5 25 3 22 -6 -3 -7 -27 -17
-54 -21 -27 -5 -52 -14 -57 -20 -4 -7 -7 10 -5 38 2 38 -1 50 -12 52 -12 3
-15 -12 -15 -90 -1 -81 -4 -101 -27 -147 -15 -30 -25 -56 -23 -59 8 -7 36 21
51 52 14 27 17 28 33 13 23 -21 31 -20 31 3 0 11 -9 23 -20 26 -32 10 -27 66
8 92 34 25 92 35 92 16 0 -9 -13 -13 -40 -13 -37 0 -52 -11 -31 -24 4 -3 11
-19 14 -36 4 -16 11 -30 17 -30 7 0 9 13 4 35 -5 31 -4 35 15 35 11 0 21 -4
21 -10 0 -5 -7 -7 -15 -4 -9 4 -15 0 -15 -9 0 -9 7 -22 15 -31 20 -20 19 -26
-5 -26 -31 0 -24 -20 8 -21 25 -1 25 -2 -8 -12 -43 -13 -47 -16 -35 -25 6 -4
16 -19 22 -34 7 -16 17 -28 23 -28 13 0 13 37 0 45 -22 14 4 25 56 25 40 0 54
3 51 13 -2 7 -17 11 -36 9 -17 -1 -31 2 -31 8 0 5 11 10 25 10 14 0 25 5 25
10 0 6 -12 10 -27 10 -20 0 -24 3 -14 9 7 5 21 7 30 4 13 -3 21 6 30 35 17 51
9 64 -35 56 -20 -4 -34 -2 -34 4 0 5 20 13 45 16 56 9 61 30 5 24 -33 -3 -40
0 -40 14 0 10 7 18 16 18 19 0 13 24 -7 27 -8 1 -33 -8 -56 -20z m70 -114
c-13 -2 -24 -13 -26 -26 -4 -18 -5 -17 -6 6 -1 23 3 27 27 26 22 -1 23 -2 5
-6z"/>
<path d="M626 6614 c-4 -9 -4 -19 -1 -23 8 -7 38 12 43 27 6 19 -35 14 -42 -4z"/>
<path d="M90 6606 c0 -17 21 -56 30 -56 19 0 7 55 -12 58 -10 2 -18 1 -18 -2z"/>
<path d="M540 6606 c0 -17 21 -56 30 -56 19 0 7 55 -12 58 -10 2 -18 1 -18 -2z"/>
<path d="M192 6420 c-16 -26 -15 -50 2 -50 15 0 26 21 26 51 0 25 -12 24 -28
-1z"/>
<path d="M310 6434 c0 -13 21 -44 30 -44 16 0 11 37 -6 44 -19 7 -24 8 -24 0z"/>
<path d="M370 6435 c0 -15 34 -55 46 -55 21 0 17 38 -5 50 -21 11 -41 13 -41
5z"/>
<path d="M595 6167 c-1 -81 -4 -101 -27 -147 -31 -62 -27 -78 7 -37 24 27 45
84 45 123 0 12 11 29 25 38 14 9 25 21 25 26 0 15 -37 12 -44 -2 -3 -7 -5 9
-3 37 1 37 -2 50 -13 52 -12 3 -15 -12 -15 -90z"/>
<path d="M540 6156 c0 -17 21 -56 30 -56 19 0 7 55 -12 58 -10 2 -18 1 -18 -2z"/>
<path d="M595 5717 c-1 -81 -4 -101 -27 -147 -15 -30 -25 -56 -23 -59 8 -7 36
21 51 52 14 27 17 28 33 13 23 -21 31 -20 31 3 0 11 -9 23 -20 26 -31 10 -27
68 5 89 14 9 25 21 25 26 0 15 -37 12 -44 -2 -3 -7 -5 9 -3 37 1 37 -2 50 -13
52 -12 3 -15 -12 -15 -90z"/>
<path d="M540 5706 c0 -17 21 -56 30 -56 19 0 7 55 -12 58 -10 2 -18 1 -18 -2z"/>
<path d="M735 5347 c-22 -12 -42 -23 -44 -24 -2 -2 -2 -6 1 -9 10 -9 119 29
115 40 -6 19 -31 16 -72 -7z"/>
<path d="M595 5267 c-1 -81 -4 -101 -27 -147 -15 -30 -25 -56 -23 -59 8 -7 36
21 51 52 14 27 17 28 33 13 23 -21 31 -20 31 3 0 11 -9 23 -20 26 -31 10 -27
68 5 89 14 9 25 21 25 26 0 15 -37 12 -44 -2 -3 -7 -5 9 -3 37 1 37 -2 50 -13
52 -12 3 -15 -12 -15 -90z"/>
<path d="M540 5256 c0 -17 21 -56 30 -56 19 0 7 55 -12 58 -10 2 -18 1 -18 -2z"/>
<path d="M735 4897 c-22 -12 -42 -23 -44 -24 -2 -2 -2 -6 1 -9 10 -9 119 29
115 40 -6 19 -31 16 -72 -7z"/>
<path d="M595 4817 c-1 -81 -4 -101 -27 -147 -15 -30 -25 -56 -23 -59 8 -7 36
21 51 52 14 27 17 28 33 13 23 -21 31 -20 31 3 0 11 -9 23 -20 26 -15 5 -20
15 -20 39 0 49 38 72 145 85 89 11 104 15 91 28 -10 10 -219 -26 -229 -40 -4
-7 -7 9 -5 38 2 38 -1 50 -12 52 -12 3 -15 -12 -15 -90z"/>
<path d="M540 4806 c0 -17 21 -56 30 -56 19 0 7 55 -12 58 -10 2 -18 1 -18 -2z"/>
<path d="M735 4447 c-22 -12 -42 -23 -44 -24 -2 -2 -2 -6 1 -9 10 -9 119 29
115 40 -6 19 -31 16 -72 -7z"/>
<path d="M595 4367 c-1 -81 -4 -101 -27 -147 -15 -30 -25 -56 -23 -59 8 -7 36
21 51 52 14 27 17 28 33 13 23 -21 31 -20 31 3 0 11 -9 23 -20 26 -15 5 -20
15 -20 39 0 49 38 72 145 85 89 11 104 15 91 28 -10 10 -219 -26 -229 -40 -4
-7 -7 9 -5 38 2 38 -1 50 -12 52 -12 3 -15 -12 -15 -90z"/>
<path d="M540 4356 c0 -17 21 -56 30 -56 19 0 7 55 -12 58 -10 2 -18 1 -18 -2z"/>
<path d="M660 4341 c0 -6 4 -12 9 -15 4 -3 11 -19 14 -36 10 -45 29 -38 21 8
-4 20 -9 40 -11 45 -6 10 -33 9 -33 -2z"/>
<path d="M735 3997 c-22 -12 -42 -23 -44 -24 -2 -2 -2 -6 1 -9 10 -9 119 29
115 40 -6 19 -31 16 -72 -7z"/>
<path d="M595 3917 c-1 -81 -4 -101 -27 -147 -15 -30 -25 -56 -23 -59 8 -7 36
21 51 52 14 27 17 28 33 13 23 -21 31 -20 31 3 0 11 -9 23 -20 26 -15 5 -20
15 -20 39 0 49 38 72 145 85 89 11 104 15 91 28 -10 10 -219 -26 -229 -40 -4
-7 -7 9 -5 38 2 38 -1 50 -12 52 -12 3 -15 -12 -15 -90z"/>
<path d="M793 3913 c-31 -6 -29 -23 2 -23 22 0 24 -2 15 -26 -13 -34 -13 -44
3 -44 16 0 43 73 33 89 -7 11 -13 12 -53 4z"/>
<path d="M540 3906 c0 -17 21 -56 30 -56 19 0 7 55 -12 58 -10 2 -18 1 -18 -2z"/>
<path d="M660 3891 c0 -6 4 -12 9 -15 4 -3 11 -19 14 -36 4 -16 11 -30 17 -30
7 0 9 13 4 35 -6 34 -5 35 25 35 17 0 31 5 31 10 0 6 -22 10 -50 10 -27 0 -50
-4 -50 -9z"/>
<path d="M735 3547 c-22 -12 -42 -23 -44 -24 -2 -2 -2 -6 1 -9 10 -9 119 29
115 40 -6 19 -31 16 -72 -7z"/>
<path d="M595 3467 c-1 -81 -4 -101 -27 -147 -15 -30 -25 -56 -23 -59 8 -7 36
21 51 52 14 27 17 28 33 13 23 -21 31 -20 31 3 0 11 -9 23 -20 26 -15 5 -20
15 -20 39 0 49 38 72 145 85 89 11 104 15 91 28 -10 10 -219 -26 -229 -40 -4
-7 -7 9 -5 38 2 38 -1 50 -12 52 -12 3 -15 -12 -15 -90z"/>
<path d="M793 3463 c-31 -6 -29 -23 2 -23 22 0 24 -2 15 -26 -13 -34 -13 -44
3 -44 16 0 43 73 33 89 -7 11 -13 12 -53 4z"/>
<path d="M540 3456 c0 -17 21 -56 30 -56 19 0 7 55 -12 58 -10 2 -18 1 -18 -2z"/>
<path d="M660 3441 c0 -6 4 -12 9 -15 4 -3 11 -19 14 -36 4 -16 11 -30 17 -30
7 0 9 13 4 35 -6 34 -5 35 25 35 17 0 31 5 31 10 0 6 -22 10 -50 10 -27 0 -50
-4 -50 -9z"/>
<path d="M710 3406 c0 -9 7 -16 16 -16 9 0 14 5 12 12 -6 18 -28 21 -28 4z"/>
<path d="M735 3097 c-22 -12 -42 -23 -44 -24 -2 -2 -2 -6 1 -9 10 -9 119 29
115 40 -6 19 -31 16 -72 -7z"/>
<path d="M595 3017 c-1 -81 -4 -101 -27 -147 -15 -30 -25 -56 -23 -59 8 -7 36
21 51 52 14 27 17 28 33 13 23 -21 31 -20 31 3 0 11 -9 23 -20 26 -15 5 -20
15 -20 39 0 49 38 72 145 85 89 11 104 15 91 28 -10 10 -219 -26 -229 -40 -4
-7 -7 9 -5 38 2 38 -1 50 -12 52 -12 3 -15 -12 -15 -90z"/>
<path d="M793 3013 c-32 -6 -29 -23 5 -24 23 -2 24 -2 5 -6 -13 -2 -23 -11
-23 -20 0 -9 6 -13 14 -10 10 4 12 0 9 -14 -4 -12 0 -19 9 -19 17 0 44 72 34
89 -7 11 -13 12 -53 4z"/>
<path d="M540 3006 c0 -17 21 -56 30 -56 19 0 7 55 -12 58 -10 2 -18 1 -18 -2z"/>
<path d="M660 2991 c0 -6 4 -12 9 -15 4 -3 11 -19 14 -36 4 -16 11 -30 17 -30
7 0 9 13 4 35 -6 34 -5 35 25 35 17 0 31 5 31 10 0 6 -22 10 -50 10 -27 0 -50
-4 -50 -9z"/>
<path d="M710 2956 c0 -9 7 -16 16 -16 9 0 14 5 12 12 -6 18 -28 21 -28 4z"/>
<path d="M735 2647 c-22 -12 -42 -23 -44 -24 -2 -2 -2 -6 1 -9 10 -9 119 29
115 40 -6 19 -31 16 -72 -7z"/>
<path d="M595 2567 c-1 -81 -4 -101 -27 -147 -15 -30 -25 -56 -23 -59 8 -7 36
21 51 52 14 27 17 28 33 13 23 -21 31 -20 31 3 0 11 -9 23 -20 26 -15 5 -20
15 -20 39 0 49 38 72 145 85 89 11 104 15 91 28 -10 10 -219 -26 -229 -40 -4
-7 -7 9 -5 38 2 38 -1 50 -12 52 -12 3 -15 -12 -15 -90z"/>
<path d="M793 2563 c-32 -6 -29 -23 5 -24 23 -2 24 -2 5 -6 -15 -3 -23 -12
-23 -24 0 -24 -28 -25 -46 -2 -15 22 -28 12 -19 -16 5 -18 14 -21 59 -20 53 2
54 2 66 39 7 21 9 43 6 49 -7 11 -13 12 -53 4z"/>
<path d="M540 2556 c0 -17 21 -56 30 -56 19 0 7 55 -12 58 -10 2 -18 1 -18 -2z"/>
<path d="M660 2541 c0 -6 4 -12 9 -15 4 -3 11 -19 14 -36 4 -16 11 -30 17 -30
7 0 9 13 4 35 -6 34 -5 35 25 35 17 0 31 5 31 10 0 6 -22 10 -50 10 -27 0 -50
-4 -50 -9z"/>
<path d="M735 2197 c-22 -12 -42 -23 -44 -24 -2 -2 -2 -6 1 -9 10 -9 119 29
115 40 -6 19 -31 16 -72 -7z"/>
<path d="M595 2117 c-1 -81 -4 -101 -27 -147 -15 -30 -25 -56 -23 -59 8 -7 36
21 51 52 14 27 17 28 33 13 23 -21 31 -20 31 3 0 11 -9 23 -20 26 -15 5 -20
15 -20 39 0 49 38 72 145 85 89 11 104 15 91 28 -10 10 -219 -26 -229 -40 -4
-7 -7 9 -5 38 2 38 -1 50 -12 52 -12 3 -15 -12 -15 -90z"/>
<path d="M793 2113 c-32 -6 -29 -23 5 -24 23 -2 24 -2 5 -6 -15 -3 -23 -12
-23 -24 0 -24 -28 -25 -46 -2 -15 22 -28 12 -19 -16 5 -18 14 -21 59 -20 53 2
54 2 66 39 7 21 9 43 6 49 -7 11 -13 12 -53 4z"/>
<path d="M540 2106 c0 -17 21 -56 30 -56 19 0 7 55 -12 58 -10 2 -18 1 -18 -2z"/>
<path d="M660 2091 c0 -6 4 -12 9 -15 4 -3 11 -19 14 -36 4 -16 11 -30 17 -30
7 0 9 13 4 35 -6 34 -5 35 25 35 17 0 31 5 31 10 0 6 -22 10 -50 10 -27 0 -50
-4 -50 -9z"/>
<path d="M728 2003 c-16 -2 -28 -9 -28 -15 0 -7 16 -9 46 -4 26 3 53 6 60 6 8
0 14 5 14 10 0 10 -38 11 -92 3z"/>
<path d="M733 1747 c-47 -25 -57 -43 -17 -33 19 5 25 3 22 -6 -3 -7 -27 -17
-54 -21 -27 -5 -52 -14 -57 -20 -4 -7 -7 10 -5 38 2 38 -1 50 -12 52 -12 3
-15 -12 -15 -90 -1 -81 -4 -101 -27 -147 -15 -30 -25 -56 -23 -59 8 -7 36 21
51 52 14 27 17 28 33 13 23 -21 31 -20 31 3 0 11 -9 23 -20 26 -32 10 -27 66
8 92 34 25 92 35 92 16 0 -9 -13 -13 -40 -13 -37 0 -52 -11 -31 -24 4 -3 11
-19 14 -36 4 -16 11 -30 17 -30 7 0 9 13 4 35 -5 31 -4 35 15 35 11 0 21 -4
21 -10 0 -5 -7 -7 -15 -4 -9 4 -15 0 -15 -9 0 -9 7 -22 15 -31 20 -20 19 -26
-5 -26 -11 0 -20 -4 -20 -10 0 -5 11 -10 25 -10 14 0 25 -4 25 -10 0 -5 5 -10
10 -10 6 0 10 7 10 15 0 9 9 15 25 15 14 0 25 5 25 10 0 6 -12 10 -27 10 -20
0 -24 3 -14 9 7 5 21 7 30 4 13 -3 21 6 30 35 17 51 9 64 -35 56 -20 -4 -34
-2 -34 4 0 5 20 13 45 16 56 9 61 30 5 24 -33 -3 -40 0 -40 14 0 10 7 18 16
18 19 0 13 24 -7 27 -8 1 -33 -8 -56 -20z m70 -114 c-13 -2 -24 -13 -26 -26
-4 -18 -5 -17 -6 6 -1 23 3 27 27 26 22 -1 23 -2 5 -6z"/>
<path d="M540 1656 c0 -17 21 -56 30 -56 19 0 7 55 -12 58 -10 2 -18 1 -18 -2z"/>
<path d="M733 1297 c-47 -25 -57 -43 -17 -33 19 5 25 3 22 -6 -3 -7 -27 -17
-54 -21 -27 -5 -52 -14 -57 -20 -4 -7 -7 10 -5 38 2 38 -1 50 -12 52 -12 3
-15 -12 -15 -90 -1 -81 -4 -101 -27 -147 -15 -30 -25 -56 -23 -59 8 -7 36 21
51 52 14 27 17 28 33 13 23 -21 31 -20 31 3 0 11 -9 23 -20 26 -32 10 -27 66
8 92 34 25 92 35 92 16 0 -9 -13 -13 -40 -13 -37 0 -52 -11 -31 -24 4 -3 11
-19 14 -36 4 -16 11 -30 17 -30 7 0 9 13 4 35 -5 31 -4 35 15 35 11 0 21 -4
21 -10 0 -5 -7 -7 -15 -4 -9 4 -15 0 -15 -9 0 -9 7 -22 15 -31 20 -20 19 -26
-5 -26 -31 0 -24 -20 8 -21 24 -1 23 -3 -10 -12 -21 -6 -38 -15 -38 -20 0 -6
16 -7 38 -3 20 3 57 6 80 6 31 0 42 4 39 13 -2 7 -17 11 -36 9 -17 -1 -31 2
-31 8 0 5 11 10 25 10 14 0 25 5 25 10 0 6 -12 10 -27 10 -20 0 -24 3 -14 9 7
5 21 7 30 4 13 -3 21 6 30 35 17 51 9 64 -35 56 -20 -4 -34 -2 -34 4 0 5 20
13 45 16 56 9 61 30 5 24 -33 -3 -40 0 -40 14 0 10 7 18 16 18 19 0 13 24 -7
27 -8 1 -33 -8 -56 -20z m70 -114 c-13 -2 -24 -13 -26 -26 -4 -18 -5 -17 -6 6
-1 23 3 27 27 26 22 -1 23 -2 5 -6z"/>
<path d="M540 1206 c0 -17 21 -56 30 -56 19 0 7 55 -12 58 -10 2 -18 1 -18 -2z"/>
<path d="M733 847 c-47 -25 -57 -43 -17 -33 19 5 25 3 22 -6 -3 -7 -27 -17
-54 -21 -27 -5 -52 -14 -57 -20 -4 -7 -7 10 -5 38 2 38 -1 50 -12 52 -12 3
-15 -12 -15 -90 -1 -81 -4 -101 -27 -147 -15 -30 -25 -56 -23 -59 8 -7 36 21
51 52 14 27 17 28 33 13 23 -21 31 -20 31 3 0 11 -9 23 -20 26 -32 10 -27 66
8 92 34 25 92 35 92 16 0 -9 -13 -13 -40 -13 -37 0 -52 -11 -31 -24 4 -3 11
-19 14 -36 4 -16 11 -30 17 -30 7 0 9 13 4 35 -5 31 -4 35 15 35 11 0 21 -4
21 -10 0 -5 -7 -7 -15 -4 -9 4 -15 0 -15 -9 0 -9 7 -22 15 -31 20 -20 19 -26
-5 -26 -31 0 -24 -20 8 -21 24 -1 23 -3 -10 -12 -21 -6 -38 -15 -38 -20 0 -6
16 -7 38 -3 20 3 57 6 80 6 31 0 42 4 39 13 -2 7 -17 11 -36 9 -17 -1 -31 2
-31 8 0 5 11 10 25 10 14 0 25 5 25 10 0 6 -12 10 -27 10 -20 0 -24 3 -14 9 7
5 21 7 30 4 13 -3 21 6 30 35 17 51 9 64 -35 56 -20 -4 -34 -2 -34 4 0 5 20
13 45 16 56 9 61 30 5 24 -33 -3 -40 0 -40 14 0 10 7 18 16 18 19 0 13 24 -7
27 -8 1 -33 -8 -56 -20z m70 -114 c-13 -2 -24 -13 -26 -26 -4 -18 -5 -17 -6 6
-1 23 3 27 27 26 22 -1 23 -2 5 -6z"/>
<path d="M540 756 c0 -17 21 -56 30 -56 19 0 7 55 -12 58 -10 2 -18 1 -18 -2z"/>
<path d="M642 570 c-16 -26 -15 -50 2 -50 15 0 26 21 26 51 0 25 -12 24 -28
-1z"/>
<path d="M733 397 c-47 -25 -57 -43 -17 -33 19 5 25 3 22 -6 -3 -7 -27 -17
-54 -21 -27 -5 -52 -14 -57 -20 -4 -7 -7 10 -5 38 2 38 -1 50 -12 52 -12 3
-15 -12 -15 -90 -1 -81 -4 -101 -27 -147 -15 -30 -25 -56 -23 -59 8 -7 36 21
51 52 14 27 17 28 33 13 23 -21 31 -20 31 3 0 11 -9 23 -20 26 -32 10 -27 66
8 92 34 25 92 35 92 16 0 -9 -13 -13 -40 -13 -37 0 -52 -11 -31 -24 4 -3 11
-19 14 -36 4 -16 11 -30 17 -30 7 0 9 13 4 35 -5 31 -4 35 15 35 11 0 21 -4
21 -10 0 -5 -7 -7 -15 -4 -9 4 -15 0 -15 -9 0 -9 7 -22 15 -31 20 -20 19 -26
-5 -26 -31 0 -24 -20 8 -21 25 -1 25 -2 -8 -12 -43 -13 -47 -16 -35 -25 6 -4
16 -19 22 -34 7 -16 17 -28 23 -28 13 0 13 37 0 45 -22 14 4 25 56 25 40 0 54
3 51 13 -2 7 -17 11 -36 9 -17 -1 -31 2 -31 8 0 5 11 10 25 10 14 0 25 5 25
10 0 6 -12 10 -27 10 -20 0 -24 3 -14 9 7 5 21 7 30 4 13 -3 21 6 30 35 17 51
9 64 -35 56 -20 -4 -34 -2 -34 4 0 5 20 13 45 16 56 9 61 30 5 24 -33 -3 -40
0 -40 14 0 10 7 18 16 18 19 0 13 24 -7 27 -8 1 -33 -8 -56 -20z m70 -114
c-13 -2 -24 -13 -26 -26 -4 -18 -5 -17 -6 6 -1 23 3 27 27 26 22 -1 23 -2 5
-6z"/>
<path d="M540 306 c0 -17 21 -56 30 -56 19 0 7 55 -12 58 -10 2 -18 1 -18 -2z"/>
<path d="M642 120 c-16 -26 -15 -50 2 -50 15 0 26 21 26 51 0 25 -12 24 -28
-1z"/>
</g>
</svg>
