<?xml version="1.0" standalone="no"?>
<!DOCTYPE svg PUBLIC "-//W3C//DTD SVG 20010904//EN"
 "http://www.w3.org/TR/2001/REC-SVG-20010904/DTD/svg10.dtd">
<svg version="1.0" xmlns="http://www.w3.org/2000/svg"
 width="95.000000pt" height="725.000000pt" viewBox="0 0 95.000000 725.000000"
 preserveAspectRatio="xMidYMid meet">
<metadata>
Created by potrace 1.16, written by Peter Selinger 2001-2019
</metadata>
<g transform="translate(0.000000,725.000000) scale(0.100000,-0.100000)"
fill="#000000" stroke="none">
<path d="M300 7160 c0 -5 7 -10 15 -10 33 0 12 -18 -25 -22 -22 -2 -40 0 -40
4 0 5 9 8 20 8 11 0 20 5 20 10 0 6 -16 10 -35 10 -35 0 -36 -1 -30 -32 13
-68 12 -88 -1 -88 -8 0 -14 -4 -14 -10 0 -5 7 -10 15 -10 8 0 15 -7 15 -15 0
-8 -9 -15 -20 -15 -24 0 -27 -17 -4 -22 14 -2 11 -10 -15 -37 -35 -37 -36 -41
-18 -41 7 0 28 16 47 35 24 25 36 31 42 22 12 -18 10 -75 -4 -97 -14 -22 -6
-35 17 -27 11 5 15 22 15 76 0 58 -3 70 -17 74 -14 4 -13 5 4 6 14 1 36 -14
61 -40 30 -33 43 -40 60 -35 32 10 28 18 -24 45 -41 22 -44 26 -25 33 29 10
26 28 -4 28 -14 0 -25 5 -25 10 0 6 7 10 15 10 18 0 20 17 3 23 -10 3 -9 15 4
52 9 27 15 52 12 57 -7 12 -64 10 -64 -2z m5 -60 c-28 -12 -57 -12 -50 0 3 6
21 10 38 9 27 0 29 -2 12 -9z m-13 -51 c-9 -4 -20 -1 -24 5 -4 6 0 14 10 17 9
4 20 1 24 -5 4 -6 0 -14 -10 -17z m8 -39 c0 -5 -7 -10 -15 -10 -8 0 -15 5 -15
10 0 6 7 10 15 10 8 0 15 -4 15 -10z"/>
<path d="M134 7072 c0 -76 -4 -98 -27 -143 -14 -29 -24 -55 -22 -58 8 -7 36
22 55 58 15 30 20 33 25 19 4 -10 13 -18 21 -18 21 0 17 28 -6 42 -29 18 -26
63 5 84 26 17 34 44 14 44 -7 0 -18 -8 -25 -17 -12 -16 -14 -13 -11 27 1 33
-2 45 -13 47 -12 3 -15 -12 -16 -85z"/>
<path d="M80 7069 c0 -17 20 -49 30 -49 14 0 12 34 -2 48 -15 15 -28 15 -28 1z"/>
<path d="M530 7069 c0 -17 20 -49 30 -49 14 0 12 34 -2 48 -15 15 -28 15 -28
1z"/>
<path d="M242 6918 c6 -18 28 -21 28 -4 0 9 -7 16 -16 16 -9 0 -14 -5 -12 -12z"/>
<path d="M218 6877 c-31 -12 -36 -25 -13 -34 16 -5 55 22 55 39 0 10 -7 9 -42
-5z"/>
<path d="M300 6710 c0 -5 7 -10 15 -10 33 0 12 -18 -25 -22 -22 -2 -40 0 -40
4 0 5 9 8 20 8 11 0 20 5 20 10 0 6 -16 10 -35 10 -35 0 -36 -1 -30 -32 13
-68 12 -88 -1 -88 -8 0 -14 -4 -14 -10 0 -5 7 -10 15 -10 8 0 15 -7 15 -15 0
-8 -9 -15 -20 -15 -24 0 -27 -17 -4 -22 14 -2 11 -10 -15 -37 -35 -37 -36 -41
-18 -41 7 0 28 16 47 35 24 25 36 31 42 22 12 -18 10 -75 -4 -97 -14 -22 -6
-35 17 -27 10 4 15 20 15 46 0 31 4 41 20 46 11 3 20 11 20 17 0 7 11 1 24
-11 17 -16 31 -21 45 -16 31 9 26 17 -25 44 -41 22 -44 26 -25 33 29 10 26 28
-4 28 -14 0 -25 5 -25 10 0 6 7 10 15 10 18 0 20 17 3 23 -10 3 -9 15 4 52 9
27 15 52 12 57 -7 12 -64 10 -64 -2z m5 -60 c-28 -12 -57 -12 -50 0 3 6 21 10
38 9 27 0 29 -2 12 -9z m-13 -51 c-9 -4 -20 -1 -24 5 -4 6 0 14 10 17 9 4 20
1 24 -5 4 -6 0 -14 -10 -17z m8 -39 c0 -5 -7 -10 -15 -10 -8 0 -15 5 -15 10 0
6 7 10 15 10 8 0 15 -4 15 -10z m23 -44 c3 -8 -1 -20 -9 -26 -11 -10 -14 -9
-14 8 0 11 -8 23 -17 25 -12 3 -9 5 8 6 15 0 29 -5 32 -13z"/>
<path d="M134 6622 c0 -76 -4 -98 -27 -143 -14 -29 -24 -55 -22 -58 8 -7 36
22 55 58 15 30 20 33 25 19 4 -10 13 -18 21 -18 21 0 17 28 -6 42 -29 18 -26
63 5 84 26 17 34 44 14 44 -7 0 -18 -8 -25 -17 -12 -16 -14 -13 -11 27 1 33
-2 45 -13 47 -12 3 -15 -12 -16 -85z"/>
<path d="M622 6629 c-7 -12 -11 -23 -9 -26 9 -9 47 17 47 32 0 22 -23 18 -38
-6z"/>
<path d="M80 6619 c0 -17 20 -49 30 -49 14 0 12 34 -2 48 -15 15 -28 15 -28 1z"/>
<path d="M530 6619 c0 -17 20 -49 30 -49 14 0 12 34 -2 48 -15 15 -28 15 -28
1z"/>
<path d="M242 6468 c6 -18 28 -21 28 -4 0 9 -7 16 -16 16 -9 0 -14 -5 -12 -12z"/>
<path d="M218 6427 c-31 -12 -36 -25 -13 -34 16 -5 55 22 55 39 0 10 -7 9 -42
-5z"/>
<path d="M300 6260 c0 -5 7 -10 15 -10 33 0 12 -18 -25 -22 -22 -2 -40 0 -40
4 0 5 9 8 20 8 11 0 20 5 20 10 0 6 -16 10 -35 10 -35 0 -36 -1 -30 -32 13
-68 12 -88 -1 -88 -8 0 -14 -4 -14 -10 0 -5 7 -10 15 -10 8 0 15 -7 15 -15 0
-8 -9 -15 -20 -15 -24 0 -27 -17 -4 -22 14 -2 11 -10 -15 -37 -35 -37 -36 -41
-18 -41 7 0 28 16 47 35 24 25 36 31 42 22 12 -18 10 -75 -4 -97 -14 -22 -6
-35 17 -27 10 4 15 20 15 46 0 31 4 41 20 46 11 3 20 11 20 17 0 7 11 1 24
-11 17 -16 31 -21 45 -16 31 9 26 17 -25 44 -41 22 -44 26 -25 33 29 10 26 28
-4 28 -14 0 -25 5 -25 10 0 6 7 10 15 10 18 0 20 17 3 23 -10 3 -9 15 4 52 9
27 15 52 12 57 -7 12 -64 10 -64 -2z m5 -60 c-28 -12 -57 -12 -50 0 3 6 21 10
38 9 27 0 29 -2 12 -9z m-13 -51 c-9 -4 -20 -1 -24 5 -4 6 0 14 10 17 9 4 20
1 24 -5 4 -6 0 -14 -10 -17z m8 -39 c0 -5 -7 -10 -15 -10 -8 0 -15 5 -15 10 0
6 7 10 15 10 8 0 15 -4 15 -10z m23 -44 c3 -8 -1 -20 -9 -26 -11 -10 -14 -9
-14 8 0 11 -8 23 -17 25 -12 3 -9 5 8 6 15 0 29 -5 32 -13z"/>
<path d="M134 6172 c0 -76 -4 -98 -27 -143 -14 -29 -24 -55 -22 -58 8 -7 36
22 55 58 15 30 20 33 25 19 4 -10 13 -18 21 -18 21 0 17 28 -6 42 -29 18 -26
63 5 84 26 17 34 44 14 44 -7 0 -18 -8 -25 -17 -12 -16 -14 -13 -11 27 1 33
-2 45 -13 47 -12 3 -15 -12 -16 -85z"/>
<path d="M584 6172 c0 -76 -4 -98 -27 -143 -30 -61 -26 -77 8 -36 25 28 45 84
45 124 0 13 11 30 25 39 26 17 34 44 14 44 -7 0 -18 -8 -25 -17 -12 -16 -14
-13 -11 27 1 33 -2 45 -13 47 -12 3 -15 -12 -16 -85z"/>
<path d="M80 6169 c0 -17 20 -49 30 -49 14 0 12 34 -2 48 -15 15 -28 15 -28 1z"/>
<path d="M530 6169 c0 -17 20 -49 30 -49 14 0 12 34 -2 48 -15 15 -28 15 -28
1z"/>
<path d="M242 6018 c6 -18 28 -21 28 -4 0 9 -7 16 -16 16 -9 0 -14 -5 -12 -12z"/>
<path d="M310 5991 c0 -10 45 -41 60 -41 21 0 9 31 -16 40 -31 12 -44 13 -44
1z"/>
<path d="M218 5977 c-31 -12 -36 -25 -13 -34 16 -5 55 22 55 39 0 10 -7 9 -42
-5z"/>
<path d="M584 5722 c0 -76 -4 -98 -27 -143 -14 -29 -24 -55 -22 -58 8 -7 36
22 55 58 15 30 20 33 25 19 4 -10 13 -18 21 -18 21 0 17 28 -6 42 -29 18 -26
63 5 84 26 17 34 44 14 44 -7 0 -18 -8 -25 -17 -12 -16 -14 -13 -11 27 1 33
-2 45 -13 47 -12 3 -15 -12 -16 -85z"/>
<path d="M530 5719 c0 -17 20 -49 30 -49 14 0 12 34 -2 48 -15 15 -28 15 -28
1z"/>
<path d="M584 5272 c0 -76 -4 -98 -27 -143 -14 -29 -24 -55 -22 -58 8 -7 36
22 55 58 15 30 20 33 25 19 4 -10 13 -18 21 -18 21 0 17 28 -6 42 -29 18 -26
63 5 84 26 17 34 44 14 44 -7 0 -18 -8 -25 -17 -12 -16 -14 -13 -11 27 1 33
-2 45 -13 47 -12 3 -15 -12 -16 -85z"/>
<path d="M674 5338 c3 -13 6 -31 6 -40 0 -10 5 -18 10 -18 6 0 10 18 10 40 0
30 -4 40 -16 40 -12 0 -15 -6 -10 -22z"/>
<path d="M530 5269 c0 -17 20 -49 30 -49 14 0 12 34 -2 48 -15 15 -28 15 -28
1z"/>
<path d="M750 4910 c0 -5 7 -10 16 -10 12 0 15 -6 10 -22 -12 -38 -12 -51 0
-55 12 -4 46 75 38 88 -7 12 -64 11 -64 -1z"/>
<path d="M584 4822 c0 -76 -4 -98 -27 -143 -14 -29 -24 -55 -22 -58 8 -7 36
22 55 58 15 30 20 33 25 19 4 -10 13 -18 21 -18 21 0 17 28 -6 42 -29 18 -26
63 5 84 26 17 34 44 14 44 -7 0 -18 -8 -25 -17 -12 -16 -14 -13 -11 27 1 33
-2 45 -13 47 -12 3 -15 -12 -16 -85z"/>
<path d="M674 4888 c3 -13 6 -31 6 -40 0 -10 5 -18 10 -18 6 0 10 14 10 30 0
23 4 30 20 30 11 0 20 5 20 10 0 6 -16 10 -36 10 -33 0 -36 -2 -30 -22z"/>
<path d="M530 4819 c0 -17 20 -49 30 -49 14 0 12 34 -2 48 -15 15 -28 15 -28
1z"/>
<path d="M750 4460 c0 -5 7 -10 15 -10 33 0 12 -18 -25 -22 -22 -2 -40 0 -40
4 0 5 9 8 20 8 11 0 20 5 20 10 0 6 -16 10 -35 10 l-36 0 7 -37 c8 -47 13 -53
25 -30 13 23 67 24 65 1 0 -9 4 -19 10 -21 12 -4 46 75 38 88 -7 12 -64 11
-64 -1z"/>
<path d="M584 4372 c0 -76 -4 -98 -27 -143 -14 -29 -24 -55 -22 -58 8 -7 36
22 55 58 15 30 20 33 25 19 4 -10 13 -18 21 -18 21 0 17 28 -6 42 -29 18 -26
63 5 84 26 17 34 44 14 44 -7 0 -18 -8 -25 -17 -12 -16 -14 -13 -11 27 1 33
-2 45 -13 47 -12 3 -15 -12 -16 -85z"/>
<path d="M530 4369 c0 -17 20 -49 30 -49 14 0 12 34 -2 48 -15 15 -28 15 -28
1z"/>
<path d="M750 4010 c0 -5 7 -10 15 -10 33 0 12 -18 -25 -22 -22 -2 -40 0 -40
4 0 5 9 8 20 8 11 0 20 5 20 10 0 6 -16 10 -35 10 l-36 0 7 -37 c9 -53 9 -52
64 -50 47 2 50 4 64 41 9 21 13 43 10 47 -7 12 -64 11 -64 -1z m5 -60 c-28
-12 -57 -12 -50 0 3 6 21 10 38 9 27 0 29 -2 12 -9z"/>
<path d="M584 3922 c0 -76 -4 -98 -27 -143 -14 -29 -24 -55 -22 -58 8 -7 36
22 55 58 15 30 20 33 25 19 4 -10 13 -18 21 -18 21 0 17 28 -6 42 -29 18 -26
63 5 84 26 17 34 44 14 44 -7 0 -18 -8 -25 -17 -12 -16 -14 -13 -11 27 1 33
-2 45 -13 47 -12 3 -15 -12 -16 -85z"/>
<path d="M530 3919 c0 -17 20 -49 30 -49 14 0 12 34 -2 48 -15 15 -28 15 -28
1z"/>
<path d="M750 3560 c0 -5 7 -10 15 -10 33 0 12 -18 -25 -22 -22 -2 -40 0 -40
4 0 5 9 8 20 8 11 0 20 5 20 10 0 6 -16 10 -35 10 l-36 0 7 -37 c9 -53 9 -52
64 -50 47 2 50 4 64 41 9 21 13 43 10 47 -7 12 -64 11 -64 -1z m5 -60 c-28
-12 -57 -12 -50 0 3 6 21 10 38 9 27 0 29 -2 12 -9z"/>
<path d="M584 3472 c0 -76 -4 -98 -27 -143 -14 -29 -24 -55 -22 -58 8 -7 36
22 55 58 15 30 20 33 25 19 4 -10 13 -18 21 -18 21 0 17 28 -6 42 -29 18 -26
63 5 84 26 17 34 44 14 44 -7 0 -18 -8 -25 -17 -12 -16 -14 -13 -11 27 1 33
-2 45 -13 47 -12 3 -15 -12 -16 -85z"/>
<path d="M530 3469 c0 -17 20 -49 30 -49 14 0 12 34 -2 48 -15 15 -28 15 -28
1z"/>
<path d="M698 3443 c-44 -5 -51 -23 -9 -23 50 0 121 12 121 21 0 9 -39 9 -112
2z"/>
<path d="M750 3110 c0 -5 7 -10 15 -10 33 0 12 -18 -25 -22 -22 -2 -40 0 -40
4 0 5 9 8 20 8 11 0 20 5 20 10 0 6 -16 10 -35 10 -35 0 -36 -1 -30 -32 13
-68 12 -88 -1 -88 -8 0 -14 -4 -14 -10 0 -5 7 -10 15 -10 8 0 15 -7 15 -15 0
-8 7 -15 15 -15 8 0 15 6 15 14 0 14 29 26 68 26 12 0 22 5 22 11 0 7 -17 10
-45 7 -28 -2 -46 1 -49 9 -5 13 35 26 57 18 15 -6 51 70 41 86 -7 12 -64 11
-64 -1z m5 -60 c-28 -12 -57 -12 -50 0 3 6 21 10 38 9 27 0 29 -2 12 -9z"/>
<path d="M584 3022 c0 -76 -4 -98 -27 -143 -14 -29 -24 -55 -22 -58 8 -7 36
22 55 58 15 30 20 33 25 19 4 -10 13 -18 21 -18 21 0 17 28 -6 42 -29 18 -26
63 5 84 26 17 34 44 14 44 -7 0 -18 -8 -25 -17 -12 -16 -14 -13 -11 27 1 33
-2 45 -13 47 -12 3 -15 -12 -16 -85z"/>
<path d="M530 3019 c0 -17 20 -49 30 -49 14 0 12 34 -2 48 -15 15 -28 15 -28
1z"/>
<path d="M750 2660 c0 -5 7 -10 15 -10 33 0 12 -18 -25 -22 -22 -2 -40 0 -40
4 0 5 9 8 20 8 11 0 20 5 20 10 0 6 -16 10 -35 10 -35 0 -36 -1 -30 -32 13
-68 12 -88 -1 -88 -8 0 -14 -4 -14 -10 0 -5 7 -10 15 -10 8 0 15 -7 15 -15 0
-8 7 -15 15 -15 8 0 15 7 15 15 0 8 7 15 15 15 8 0 15 -7 15 -15 0 -22 18 -18
25 5 3 11 13 20 21 20 17 0 19 17 2 23 -10 3 -9 15 4 52 9 27 15 52 12 57 -7
12 -64 10 -64 -2z m5 -60 c-28 -12 -57 -12 -50 0 3 6 21 10 38 9 27 0 29 -2
12 -9z m-13 -51 c-9 -4 -20 -1 -24 5 -4 6 0 14 10 17 9 4 20 1 24 -5 4 -6 0
-14 -10 -17z"/>
<path d="M584 2572 c0 -76 -4 -98 -27 -143 -14 -29 -24 -55 -22 -58 8 -7 36
22 55 58 15 30 20 33 25 19 4 -10 13 -18 21 -18 21 0 17 28 -6 42 -29 18 -26
63 5 84 26 17 34 44 14 44 -7 0 -18 -8 -25 -17 -12 -16 -14 -13 -11 27 1 33
-2 45 -13 47 -12 3 -15 -12 -16 -85z"/>
<path d="M530 2569 c0 -17 20 -49 30 -49 14 0 12 34 -2 48 -15 15 -28 15 -28
1z"/>
<path d="M750 2210 c0 -5 7 -10 15 -10 33 0 12 -18 -25 -22 -22 -2 -40 0 -40
4 0 5 9 8 20 8 11 0 20 5 20 10 0 6 -16 10 -35 10 -35 0 -36 -1 -30 -32 13
-68 12 -88 -1 -88 -8 0 -14 -4 -14 -10 0 -5 7 -10 15 -10 8 0 15 -7 15 -15 0
-8 -9 -15 -20 -15 -11 0 -20 -4 -20 -10 0 -9 135 -5 168 6 22 6 13 24 -13 24
-14 0 -25 5 -25 10 0 6 7 10 15 10 18 0 20 17 3 23 -10 3 -9 15 4 52 9 27 15
52 12 57 -7 12 -64 10 -64 -2z m5 -60 c-28 -12 -57 -12 -50 0 3 6 21 10 38 9
27 0 29 -2 12 -9z m-13 -51 c-9 -4 -20 -1 -24 5 -4 6 0 14 10 17 9 4 20 1 24
-5 4 -6 0 -14 -10 -17z m8 -39 c0 -5 -7 -10 -15 -10 -8 0 -15 5 -15 10 0 6 7
10 15 10 8 0 15 -4 15 -10z"/>
<path d="M584 2122 c0 -76 -4 -98 -27 -143 -14 -29 -24 -55 -22 -58 8 -7 36
22 55 58 15 30 20 33 25 19 4 -10 13 -18 21 -18 21 0 17 28 -6 42 -29 18 -26
63 5 84 26 17 34 44 14 44 -7 0 -18 -8 -25 -17 -12 -16 -14 -13 -11 27 1 33
-2 45 -13 47 -12 3 -15 -12 -16 -85z"/>
<path d="M530 2119 c0 -17 20 -49 30 -49 14 0 12 34 -2 48 -15 15 -28 15 -28
1z"/>
<path d="M750 1760 c0 -5 7 -10 15 -10 33 0 12 -18 -25 -22 -22 -2 -40 0 -40
4 0 5 9 8 20 8 11 0 20 5 20 10 0 6 -16 10 -35 10 -35 0 -36 -1 -30 -32 13
-68 12 -88 -1 -88 -8 0 -14 -4 -14 -10 0 -5 7 -10 15 -10 8 0 15 -7 15 -15 0
-8 -9 -15 -20 -15 -24 0 -27 -17 -4 -22 14 -2 11 -10 -15 -37 -35 -37 -37 -41
-17 -41 7 0 32 20 54 44 36 39 47 45 88 48 50 3 76 28 30 28 -14 0 -26 5 -26
10 0 6 7 10 15 10 18 0 20 17 3 23 -10 3 -9 15 4 52 9 27 15 52 12 57 -7 12
-64 10 -64 -2z m5 -60 c-28 -12 -57 -12 -50 0 3 6 21 10 38 9 27 0 29 -2 12
-9z m-13 -51 c-9 -4 -20 -1 -24 5 -4 6 0 14 10 17 9 4 20 1 24 -5 4 -6 0 -14
-10 -17z m8 -39 c0 -5 -7 -10 -15 -10 -8 0 -15 5 -15 10 0 6 7 10 15 10 8 0
15 -4 15 -10z"/>
<path d="M584 1672 c0 -76 -4 -98 -27 -143 -14 -29 -24 -55 -22 -58 8 -7 36
22 55 58 15 30 20 33 25 19 4 -10 13 -18 21 -18 21 0 17 28 -6 42 -29 18 -26
63 5 84 26 17 34 44 14 44 -7 0 -18 -8 -25 -17 -12 -16 -14 -13 -11 27 1 33
-2 45 -13 47 -12 3 -15 -12 -16 -85z"/>
<path d="M530 1669 c0 -17 20 -49 30 -49 14 0 12 34 -2 48 -15 15 -28 15 -28
1z"/>
<path d="M750 1310 c0 -5 7 -10 15 -10 33 0 12 -18 -25 -22 -22 -2 -40 0 -40
4 0 5 9 8 20 8 11 0 20 5 20 10 0 6 -16 10 -35 10 -35 0 -36 -1 -30 -32 13
-68 12 -88 -1 -88 -8 0 -14 -4 -14 -10 0 -5 7 -10 15 -10 8 0 15 -7 15 -15 0
-8 -9 -15 -20 -15 -24 0 -27 -17 -4 -22 14 -2 11 -10 -15 -37 -35 -37 -37 -41
-17 -41 7 0 32 20 55 45 23 25 48 45 56 45 8 0 32 -19 53 -41 30 -33 43 -40
60 -35 32 10 28 18 -24 45 -41 22 -44 26 -25 33 29 10 26 28 -4 28 -14 0 -25
5 -25 10 0 6 7 10 15 10 18 0 20 17 3 23 -10 3 -9 15 4 52 9 27 15 52 12 57
-7 12 -64 10 -64 -2z m5 -60 c-28 -12 -57 -12 -50 0 3 6 21 10 38 9 27 0 29
-2 12 -9z m-13 -51 c-9 -4 -20 -1 -24 5 -4 6 0 14 10 17 9 4 20 1 24 -5 4 -6
0 -14 -10 -17z m8 -39 c0 -5 -7 -10 -15 -10 -8 0 -15 5 -15 10 0 6 7 10 15 10
8 0 15 -4 15 -10z"/>
<path d="M584 1222 c0 -76 -4 -98 -27 -143 -14 -29 -24 -55 -22 -58 8 -7 36
22 55 58 15 30 20 33 25 19 4 -10 13 -18 21 -18 21 0 17 28 -6 42 -29 18 -26
63 5 84 26 17 34 44 14 44 -7 0 -18 -8 -25 -17 -12 -16 -14 -13 -11 27 1 33
-2 45 -13 47 -12 3 -15 -12 -16 -85z"/>
<path d="M530 1219 c0 -17 20 -49 30 -49 14 0 12 34 -2 48 -15 15 -28 15 -28
1z"/>
<path d="M750 860 c0 -5 7 -10 15 -10 33 0 12 -18 -25 -22 -22 -2 -40 0 -40 4
0 5 9 8 20 8 11 0 20 5 20 10 0 6 -16 10 -35 10 -35 0 -36 -1 -30 -32 13 -68
12 -88 -1 -88 -8 0 -14 -4 -14 -10 0 -5 7 -10 15 -10 8 0 15 -7 15 -15 0 -8
-9 -15 -20 -15 -24 0 -27 -17 -4 -22 14 -2 11 -10 -15 -37 -35 -37 -36 -41
-18 -41 7 0 28 16 47 35 24 25 36 31 42 22 12 -18 10 -75 -4 -97 -14 -22 -6
-35 17 -27 11 5 15 22 15 76 0 58 -3 70 -17 74 -14 4 -13 5 4 6 14 1 36 -14
61 -40 30 -33 43 -40 60 -35 32 10 28 18 -24 45 -41 22 -44 26 -25 33 29 10
26 28 -4 28 -14 0 -25 5 -25 10 0 6 7 10 15 10 18 0 20 17 3 23 -10 3 -9 15 4
52 9 27 15 52 12 57 -7 12 -64 10 -64 -2z m5 -60 c-28 -12 -57 -12 -50 0 3 6
21 10 38 9 27 0 29 -2 12 -9z m-13 -51 c-9 -4 -20 -1 -24 5 -4 6 0 14 10 17 9
4 20 1 24 -5 4 -6 0 -14 -10 -17z m8 -39 c0 -5 -7 -10 -15 -10 -8 0 -15 5 -15
10 0 6 7 10 15 10 8 0 15 -4 15 -10z"/>
<path d="M584 772 c0 -76 -4 -98 -27 -143 -14 -29 -24 -55 -22 -58 8 -7 36 22
55 58 15 30 20 33 25 19 4 -10 13 -18 21 -18 21 0 17 28 -6 42 -29 18 -26 63
5 84 26 17 34 44 14 44 -7 0 -18 -8 -25 -17 -12 -16 -14 -13 -11 27 1 33 -2
45 -13 47 -12 3 -15 -12 -16 -85z"/>
<path d="M530 769 c0 -17 20 -49 30 -49 14 0 12 34 -2 48 -15 15 -28 15 -28 1z"/>
<path d="M750 410 c0 -5 7 -10 15 -10 33 0 12 -18 -25 -22 -22 -2 -40 0 -40 4
0 5 9 8 20 8 11 0 20 5 20 10 0 6 -16 10 -35 10 -35 0 -36 -1 -30 -32 13 -68
12 -88 -1 -88 -8 0 -14 -4 -14 -10 0 -5 7 -10 15 -10 8 0 15 -7 15 -15 0 -8
-9 -15 -20 -15 -24 0 -27 -17 -4 -22 14 -2 11 -10 -15 -37 -35 -37 -36 -41
-18 -41 7 0 28 16 47 35 24 25 36 31 42 22 12 -18 10 -75 -4 -97 -14 -22 -6
-35 17 -27 11 5 15 22 15 76 0 58 -3 70 -17 74 -14 4 -13 5 4 6 14 1 36 -14
61 -40 30 -33 43 -40 60 -35 32 10 28 18 -24 45 -41 22 -44 26 -25 33 29 10
26 28 -4 28 -14 0 -25 5 -25 10 0 6 7 10 15 10 18 0 20 17 3 23 -10 3 -9 15 4
52 9 27 15 52 12 57 -7 12 -64 10 -64 -2z m5 -60 c-28 -12 -57 -12 -50 0 3 6
21 10 38 9 27 0 29 -2 12 -9z m-13 -51 c-9 -4 -20 -1 -24 5 -4 6 0 14 10 17 9
4 20 1 24 -5 4 -6 0 -14 -10 -17z m8 -39 c0 -5 -7 -10 -15 -10 -8 0 -15 5 -15
10 0 6 7 10 15 10 8 0 15 -4 15 -10z"/>
<path d="M584 322 c0 -76 -4 -98 -27 -143 -14 -29 -24 -55 -22 -58 8 -7 36 22
55 58 15 30 20 33 25 19 4 -10 13 -18 21 -18 21 0 17 28 -6 42 -29 18 -26 63
5 84 26 17 34 44 14 44 -7 0 -18 -8 -25 -17 -12 -16 -14 -13 -11 27 1 33 -2
45 -13 47 -12 3 -15 -12 -16 -85z"/>
<path d="M530 319 c0 -17 20 -49 30 -49 14 0 12 34 -2 48 -15 15 -28 15 -28 1z"/>
<path d="M692 168 c6 -18 28 -21 28 -4 0 9 -7 16 -16 16 -9 0 -14 -5 -12 -12z"/>
</g>
</svg>
