<?xml version="1.0" standalone="no"?>
<!DOCTYPE svg PUBLIC "-//W3C//DTD SVG 20010904//EN"
 "http://www.w3.org/TR/2001/REC-SVG-20010904/DTD/svg10.dtd">
<svg version="1.0" xmlns="http://www.w3.org/2000/svg"
 width="95.000000pt" height="725.000000pt" viewBox="0 0 95.000000 725.000000"
 preserveAspectRatio="xMidYMid meet">
<metadata>
Created by potrace 1.16, written by Peter Selinger 2001-2019
</metadata>
<g transform="translate(0.000000,725.000000) scale(0.100000,-0.100000)"
fill="#000000" stroke="none">
<path d="M277 7136 c5 -33 4 -35 -28 -41 l-34 -6 -2 -64 c-2 -54 -19 -121 -48
-187 -4 -11 -3 -18 4 -18 16 0 61 98 61 133 0 15 4 27 9 27 5 0 11 -12 13 -27
3 -26 7 -28 45 -28 23 0 45 -3 49 -7 4 -5 -9 -8 -29 -8 -21 0 -37 -4 -37 -10
0 -5 17 -10 39 -10 36 0 38 -2 33 -26 -7 -35 19 -28 32 9 8 21 6 30 -8 40 -14
10 -15 17 -7 40 16 42 13 57 -11 58 -17 1 -19 2 -5 6 30 8 19 26 -13 21 -17
-3 -33 -1 -36 4 -3 4 4 8 15 8 12 0 21 5 21 10 0 6 -9 10 -21 10 -11 0 -17 5
-14 10 8 14 52 13 57 -1 2 -7 13 -9 26 -4 40 12 18 30 -36 30 -29 0 -52 3 -52
8 0 4 11 7 25 7 16 0 25 6 25 15 0 11 -7 14 -25 9 -19 -5 -25 -2 -25 10 0 9
-6 16 -14 16 -11 0 -13 -9 -9 -34z m3 -66 c0 -5 -7 -10 -15 -10 -8 0 -15 5
-15 10 0 6 7 10 15 10 8 0 15 -4 15 -10z m14 -52 c19 -18 19 -18 -17 -18 -33
0 -37 3 -37 25 0 19 4 23 18 18 9 -4 26 -15 36 -25z m53 -34 c-3 -3 -12 -4
-19 -1 -8 3 -5 6 6 6 11 1 17 -2 13 -5z"/>
<path d="M134 7111 c9 -57 -11 -189 -34 -229 -12 -19 -18 -37 -15 -41 9 -8 55
46 55 65 0 10 7 13 25 8 29 -7 34 10 7 27 -27 17 -17 77 14 91 26 12 33 38 9
38 -7 0 -19 -8 -25 -17 -9 -14 -10 -7 -6 34 4 40 2 53 -10 57 -25 10 -27 8
-20 -33z"/>
<path d="M80 7035 c0 -14 21 -45 31 -45 18 0 5 45 -13 48 -10 2 -18 1 -18 -3z"/>
<path d="M530 7035 c0 -14 21 -45 31 -45 18 0 5 45 -13 48 -10 2 -18 1 -18 -3z"/>
<path d="M234 6884 c3 -9 6 -22 6 -30 0 -8 5 -14 10 -14 6 0 10 14 10 30 0 21
-5 30 -16 30 -11 0 -14 -5 -10 -16z"/>
<path d="M277 6686 c5 -33 4 -35 -28 -41 l-34 -6 -2 -64 c-2 -54 -19 -121 -48
-187 -4 -11 -3 -18 4 -18 16 0 61 98 61 133 0 15 4 27 9 27 5 0 11 -12 13 -27
3 -26 7 -28 45 -28 23 0 45 -3 49 -7 4 -5 -9 -8 -29 -8 -42 0 -47 -5 -40 -43
7 -34 23 -36 23 -2 0 21 5 25 29 25 25 0 28 -3 23 -26 -7 -35 19 -28 32 9 8
21 6 30 -8 40 -14 10 -15 17 -7 40 16 42 13 57 -11 58 -17 1 -19 2 -5 6 30 8
19 26 -13 21 -17 -3 -33 -1 -36 4 -3 4 4 8 15 8 12 0 21 5 21 10 0 6 -9 10
-21 10 -11 0 -17 5 -14 10 8 14 52 13 57 -1 2 -7 13 -9 26 -4 40 12 18 30 -36
30 -29 0 -52 3 -52 8 0 4 11 7 25 7 16 0 25 6 25 15 0 11 -7 14 -25 9 -19 -5
-25 -2 -25 10 0 9 -6 16 -14 16 -11 0 -13 -9 -9 -34z m3 -66 c0 -5 -7 -10 -15
-10 -8 0 -15 5 -15 10 0 6 7 10 15 10 8 0 15 -4 15 -10z m14 -52 c19 -18 19
-18 -17 -18 -33 0 -37 3 -37 25 0 19 4 23 18 18 9 -4 26 -15 36 -25z m53 -34
c-3 -3 -12 -4 -19 -1 -8 3 -5 6 6 6 11 1 17 -2 13 -5z"/>
<path d="M134 6661 c9 -57 -11 -189 -34 -229 -12 -19 -18 -37 -15 -41 9 -8 55
46 55 65 0 10 7 13 25 8 29 -7 34 10 7 27 -27 17 -17 77 14 91 26 12 33 38 9
38 -7 0 -19 -8 -25 -17 -9 -14 -10 -7 -6 34 4 40 2 53 -10 57 -25 10 -27 8
-20 -33z"/>
<path d="M623 6605 c-3 -9 -3 -18 -1 -21 9 -9 38 8 38 22 0 19 -29 18 -37 -1z"/>
<path d="M80 6585 c0 -14 21 -45 31 -45 18 0 5 45 -13 48 -10 2 -18 1 -18 -3z"/>
<path d="M530 6585 c0 -14 21 -45 31 -45 18 0 5 45 -13 48 -10 2 -18 1 -18 -3z"/>
<path d="M234 6434 c3 -9 6 -22 6 -30 0 -8 5 -14 10 -14 6 0 10 14 10 30 0 21
-5 30 -16 30 -11 0 -14 -5 -10 -16z"/>
<path d="M277 6236 c5 -33 4 -35 -28 -41 l-34 -6 -2 -64 c-2 -54 -19 -121 -48
-187 -4 -11 -3 -18 4 -18 16 0 61 98 61 133 0 15 4 27 9 27 5 0 11 -12 13 -27
3 -26 7 -28 45 -28 23 0 45 -3 49 -7 4 -5 -9 -8 -29 -8 -42 0 -47 -5 -40 -43
7 -34 23 -36 23 -2 0 26 14 34 24 13 5 -10 7 -10 12 0 10 22 21 13 16 -14 -7
-35 19 -28 32 9 8 21 6 30 -8 40 -14 10 -15 17 -7 40 16 42 13 57 -11 58 -17
1 -19 2 -5 6 30 8 19 26 -13 21 -17 -3 -33 -1 -36 4 -3 4 4 8 15 8 12 0 21 5
21 10 0 6 -9 10 -21 10 -11 0 -17 5 -14 10 8 14 52 13 57 -1 2 -7 13 -9 26 -4
40 12 18 30 -36 30 -29 0 -52 3 -52 8 0 4 11 7 25 7 16 0 25 6 25 15 0 11 -7
14 -25 9 -19 -5 -25 -2 -25 10 0 9 -6 16 -14 16 -11 0 -13 -9 -9 -34z m3 -66
c0 -5 -7 -10 -15 -10 -8 0 -15 5 -15 10 0 6 7 10 15 10 8 0 15 -4 15 -10z m14
-52 c19 -18 19 -18 -17 -18 -33 0 -37 3 -37 25 0 19 4 23 18 18 9 -4 26 -15
36 -25z m53 -34 c-3 -3 -12 -4 -19 -1 -8 3 -5 6 6 6 11 1 17 -2 13 -5z"/>
<path d="M134 6211 c9 -57 -11 -189 -34 -229 -12 -19 -18 -37 -15 -41 9 -8 55
46 55 65 0 10 7 13 25 8 29 -7 34 10 7 27 -27 17 -17 77 14 91 26 12 33 38 9
38 -7 0 -19 -8 -25 -17 -9 -14 -10 -7 -6 34 4 40 2 53 -10 57 -25 10 -27 8
-20 -33z"/>
<path d="M584 6211 c9 -57 -11 -189 -34 -229 -24 -40 -19 -53 10 -27 21 19 50
101 50 142 0 15 9 27 25 35 27 12 34 38 10 38 -7 0 -19 -8 -25 -17 -9 -14 -10
-7 -6 34 4 40 2 53 -10 57 -25 10 -27 8 -20 -33z"/>
<path d="M80 6135 c0 -14 21 -45 31 -45 18 0 5 45 -13 48 -10 2 -18 1 -18 -3z"/>
<path d="M530 6135 c0 -14 21 -45 31 -45 18 0 5 45 -13 48 -10 2 -18 1 -18 -3z"/>
<path d="M234 5984 c3 -9 6 -22 6 -30 0 -8 5 -14 10 -14 6 0 10 14 10 30 0 21
-5 30 -16 30 -11 0 -14 -5 -10 -16z"/>
<path d="M277 5786 c5 -33 4 -35 -28 -41 l-34 -6 -2 -64 c-2 -54 -19 -121 -48
-187 -4 -11 -3 -18 4 -18 16 0 61 98 61 133 0 15 4 27 9 27 5 0 11 -12 13 -27
3 -25 7 -28 43 -29 59 -2 65 -6 20 -13 -38 -6 -40 -7 -37 -40 2 -22 0 -31 -7
-26 -6 3 -11 17 -11 31 0 14 -6 24 -15 24 -11 0 -13 -8 -8 -30 5 -26 3 -30
-16 -30 -11 0 -21 -5 -21 -11 0 -8 18 -10 61 -5 34 3 86 6 115 6 30 0 54 5 54
10 0 6 -11 10 -25 10 -22 0 -25 3 -19 26 5 17 1 29 -10 37 -14 10 -15 18 -7
40 16 42 13 57 -11 58 -17 1 -19 2 -5 6 30 8 19 26 -13 21 -17 -3 -33 -1 -36
4 -3 4 4 8 15 8 12 0 21 5 21 10 0 6 -9 10 -21 10 -11 0 -17 5 -14 10 8 14 52
13 57 -1 2 -7 13 -9 26 -4 40 12 18 30 -36 30 -29 0 -52 3 -52 8 0 4 11 7 25
7 16 0 25 6 25 15 0 11 -7 14 -25 9 -19 -5 -25 -2 -25 10 0 9 -6 16 -14 16
-11 0 -13 -9 -9 -34z m3 -66 c0 -5 -7 -10 -15 -10 -8 0 -15 5 -15 10 0 6 7 10
15 10 8 0 15 -4 15 -10z m14 -52 c19 -18 19 -18 -17 -18 -33 0 -37 3 -37 25 0
19 4 23 18 18 9 -4 26 -15 36 -25z m53 -34 c-3 -3 -12 -4 -19 -1 -8 3 -5 6 6
6 11 1 17 -2 13 -5z m-23 -106 c5 -10 7 -10 12 0 9 20 23 14 17 -8 -3 -13 -14
-20 -29 -20 -17 0 -24 6 -24 20 0 22 15 27 24 8z"/>
<path d="M134 5761 c9 -57 -11 -189 -34 -229 -12 -19 -18 -37 -15 -41 9 -8 55
46 55 65 0 10 7 13 25 8 29 -7 34 10 7 27 -27 17 -17 77 14 91 26 12 33 38 9
38 -7 0 -19 -8 -25 -17 -9 -14 -10 -7 -6 34 4 40 2 53 -10 57 -25 10 -27 8
-20 -33z"/>
<path d="M584 5761 c9 -57 -11 -189 -34 -229 -12 -19 -18 -37 -15 -41 9 -8 55
46 55 65 0 10 7 13 25 8 29 -7 34 10 7 27 -27 17 -17 77 14 91 26 12 33 38 9
38 -7 0 -19 -8 -25 -17 -9 -14 -10 -7 -6 34 4 40 2 53 -10 57 -25 10 -27 8
-20 -33z"/>
<path d="M80 5685 c0 -14 21 -45 31 -45 18 0 5 45 -13 48 -10 2 -18 1 -18 -3z"/>
<path d="M530 5685 c0 -14 21 -45 31 -45 18 0 5 45 -13 48 -10 2 -18 1 -18 -3z"/>
<path d="M724 5354 c3 -9 6 -27 6 -40 0 -13 5 -24 10 -24 6 0 10 18 10 40 0
30 -4 40 -16 40 -11 0 -14 -5 -10 -16z"/>
<path d="M584 5311 c9 -57 -11 -189 -34 -229 -12 -19 -18 -37 -15 -41 9 -8 55
46 55 65 0 10 7 13 25 8 29 -7 34 10 7 27 -27 17 -17 77 14 91 26 12 33 38 9
38 -7 0 -19 -8 -25 -17 -9 -14 -10 -7 -6 34 4 40 2 53 -10 57 -25 10 -27 8
-20 -33z"/>
<path d="M530 5235 c0 -14 21 -45 31 -45 18 0 5 45 -13 48 -10 2 -18 1 -18 -3z"/>
<path d="M724 4904 c3 -9 6 -27 6 -40 0 -13 5 -24 10 -24 6 0 10 7 10 15 0 9
9 15 25 15 16 0 25 6 25 15 0 11 -7 14 -25 9 -19 -5 -25 -2 -25 10 0 9 -7 16
-16 16 -11 0 -14 -5 -10 -16z"/>
<path d="M584 4861 c9 -57 -11 -189 -34 -229 -12 -19 -18 -37 -15 -41 9 -8 55
46 55 65 0 10 7 13 25 8 29 -7 34 10 7 27 -27 17 -17 77 14 91 26 12 33 38 9
38 -7 0 -19 -8 -25 -17 -9 -14 -10 -7 -6 34 4 40 2 53 -10 57 -25 10 -27 8
-20 -33z"/>
<path d="M530 4785 c0 -14 21 -45 31 -45 18 0 5 45 -13 48 -10 2 -18 1 -18 -3z"/>
<path d="M727 4436 c5 -33 4 -35 -31 -41 -20 -4 -36 -11 -36 -16 0 -5 -7 -9
-15 -9 -7 0 -19 -8 -25 -17 -9 -14 -10 -7 -6 34 4 40 2 53 -10 57 -25 10 -27
8 -20 -33 9 -57 -11 -189 -34 -229 -12 -19 -18 -37 -15 -41 9 -8 55 46 55 65
0 10 7 13 25 8 29 -7 34 10 7 27 -27 17 -17 77 14 91 13 6 24 17 24 24 0 18
140 41 150 24 9 -15 53 -3 47 13 -2 7 -25 12 -55 12 -29 0 -52 3 -52 8 0 4 11
7 25 7 16 0 25 6 25 15 0 11 -7 14 -25 9 -19 -5 -25 -2 -25 10 0 9 -6 16 -14
16 -11 0 -13 -9 -9 -34z"/>
<path d="M530 4335 c0 -14 21 -45 31 -45 18 0 5 45 -13 48 -10 2 -18 1 -18 -3z"/>
<path d="M727 3986 c5 -33 4 -35 -28 -41 l-34 -6 -2 -64 c-2 -54 -19 -121 -48
-187 -15 -37 15 -17 35 22 19 36 26 68 45 186 5 29 9 32 57 38 35 5 53 3 58
-5 9 -14 53 -2 47 14 -2 7 -25 12 -55 12 -29 0 -52 3 -52 8 0 4 11 7 25 7 16
0 25 6 25 15 0 11 -7 14 -25 9 -19 -5 -25 -2 -25 10 0 9 -6 16 -14 16 -11 0
-13 -9 -9 -34z"/>
<path d="M584 3961 c9 -57 -11 -189 -34 -229 -12 -19 -18 -37 -15 -41 9 -8 55
46 55 65 0 10 7 13 25 8 29 -7 34 10 7 27 -27 17 -17 77 14 91 26 12 33 38 9
38 -7 0 -19 -8 -25 -17 -9 -14 -10 -7 -6 34 4 40 2 53 -10 57 -25 10 -27 8
-20 -33z"/>
<path d="M530 3885 c0 -14 21 -45 31 -45 18 0 5 45 -13 48 -10 2 -18 1 -18 -3z"/>
<path d="M727 3536 c5 -33 4 -35 -28 -41 l-34 -6 -2 -64 c-2 -54 -19 -121 -48
-187 -4 -11 -3 -18 4 -18 20 0 59 100 67 167 3 34 10 60 15 58 4 -3 26 -3 48
1 57 9 53 28 -4 21 -25 -4 -45 -3 -45 2 0 14 102 24 110 10 9 -14 53 -2 47 14
-2 7 -25 12 -55 12 -29 0 -52 3 -52 8 0 4 11 7 25 7 16 0 25 6 25 15 0 11 -7
14 -25 9 -19 -5 -25 -2 -25 10 0 9 -6 16 -14 16 -11 0 -13 -9 -9 -34z"/>
<path d="M584 3511 c9 -57 -11 -189 -34 -229 -12 -19 -18 -37 -15 -41 9 -8 55
46 55 65 0 10 7 13 25 8 29 -7 34 10 7 27 -27 17 -17 77 14 91 26 12 33 38 9
38 -7 0 -19 -8 -25 -17 -9 -14 -10 -7 -6 34 4 40 2 53 -10 57 -25 10 -27 8
-20 -33z"/>
<path d="M530 3435 c0 -14 21 -45 31 -45 18 0 5 45 -13 48 -10 2 -18 1 -18 -3z"/>
<path d="M727 3086 c5 -33 4 -35 -28 -41 l-34 -6 -2 -64 c-2 -54 -19 -121 -48
-187 -4 -11 -3 -18 4 -18 20 0 59 99 66 165 6 55 9 62 26 58 10 -3 19 -9 19
-13 0 -14 36 -21 64 -14 36 9 33 27 -4 22 -17 -3 -33 -1 -36 4 -3 4 4 8 15 8
12 0 21 5 21 10 0 6 -9 10 -21 10 -11 0 -17 5 -14 10 8 14 52 13 57 -1 2 -7
13 -9 26 -4 40 12 18 30 -36 30 -29 0 -52 3 -52 8 0 4 11 7 25 7 16 0 25 6 25
15 0 11 -7 14 -25 9 -19 -5 -25 -2 -25 10 0 9 -6 16 -14 16 -11 0 -13 -9 -9
-34z m3 -66 c0 -5 -7 -10 -15 -10 -8 0 -15 5 -15 10 0 6 7 10 15 10 8 0 15 -4
15 -10z"/>
<path d="M584 3061 c9 -57 -11 -189 -34 -229 -12 -19 -18 -37 -15 -41 9 -8 55
46 55 65 0 10 7 13 25 8 29 -7 34 10 7 27 -27 17 -17 77 14 91 26 12 33 38 9
38 -7 0 -19 -8 -25 -17 -9 -14 -10 -7 -6 34 4 40 2 53 -10 57 -25 10 -27 8
-20 -33z"/>
<path d="M530 2985 c0 -14 21 -45 31 -45 18 0 5 45 -13 48 -10 2 -18 1 -18 -3z"/>
<path d="M727 2636 c5 -33 4 -35 -28 -41 l-34 -6 -2 -64 c-2 -54 -19 -121 -48
-187 -4 -11 -3 -18 4 -18 16 0 61 98 61 133 0 15 5 27 10 27 6 0 10 -11 10
-25 0 -14 5 -25 10 -25 6 0 10 16 10 35 0 24 -5 35 -15 35 -9 0 -15 9 -15 24
0 19 4 23 20 19 11 -3 20 -9 20 -13 0 -14 36 -21 64 -14 36 9 33 27 -4 22 -17
-3 -33 -1 -36 4 -3 4 4 8 15 8 12 0 21 5 21 10 0 6 -9 10 -21 10 -11 0 -17 5
-14 10 8 14 52 13 57 -1 2 -7 13 -9 26 -4 40 12 18 30 -36 30 -29 0 -52 3 -52
8 0 4 11 7 25 7 16 0 25 6 25 15 0 11 -7 14 -25 9 -19 -5 -25 -2 -25 10 0 9
-6 16 -14 16 -11 0 -13 -9 -9 -34z m3 -66 c0 -5 -7 -10 -15 -10 -8 0 -15 5
-15 10 0 6 7 10 15 10 8 0 15 -4 15 -10z"/>
<path d="M584 2611 c9 -57 -11 -189 -34 -229 -12 -19 -18 -37 -15 -41 9 -8 55
46 55 65 0 10 7 13 25 8 29 -7 34 10 7 27 -27 17 -17 77 14 91 26 12 33 38 9
38 -7 0 -19 -8 -25 -17 -9 -14 -10 -7 -6 34 4 40 2 53 -10 57 -25 10 -27 8
-20 -33z"/>
<path d="M530 2535 c0 -14 21 -45 31 -45 18 0 5 45 -13 48 -10 2 -18 1 -18 -3z"/>
<path d="M727 2186 c5 -33 4 -35 -28 -41 l-34 -6 -2 -64 c-2 -54 -19 -121 -48
-187 -4 -11 -3 -18 4 -18 16 0 61 98 61 133 0 15 5 27 10 27 6 0 10 -11 10
-25 0 -14 5 -25 10 -25 6 0 10 11 10 25 0 14 5 25 10 25 6 0 10 5 10 10 0 6
-11 10 -25 10 -20 0 -25 5 -25 25 0 29 22 25 57 -12 12 -13 29 -23 38 -23 13
0 15 -7 9 -35 -8 -44 10 -47 25 -4 16 47 14 59 -11 60 -17 1 -19 2 -5 6 30 8
19 26 -13 21 -17 -3 -33 -1 -36 4 -3 4 4 8 15 8 12 0 21 5 21 10 0 6 -9 10
-21 10 -11 0 -17 5 -14 10 8 14 52 13 57 -1 2 -7 13 -9 26 -4 40 12 18 30 -36
30 -29 0 -52 3 -52 8 0 4 11 7 25 7 16 0 25 6 25 15 0 11 -7 14 -25 9 -19 -5
-25 -2 -25 10 0 9 -6 16 -14 16 -11 0 -13 -9 -9 -34z m3 -66 c0 -5 -7 -10 -15
-10 -8 0 -15 5 -15 10 0 6 7 10 15 10 8 0 15 -4 15 -10z"/>
<path d="M584 2161 c9 -57 -11 -189 -34 -229 -12 -19 -18 -37 -15 -41 9 -8 55
46 55 65 0 10 7 13 25 8 29 -7 34 10 7 27 -27 17 -17 77 14 91 26 12 33 38 9
38 -7 0 -19 -8 -25 -17 -9 -14 -10 -7 -6 34 4 40 2 53 -10 57 -25 10 -27 8
-20 -33z"/>
<path d="M530 2085 c0 -14 21 -45 31 -45 18 0 5 45 -13 48 -10 2 -18 1 -18 -3z"/>
<path d="M727 1736 c5 -33 4 -35 -28 -41 l-34 -6 -2 -64 c-2 -54 -19 -121 -48
-187 -4 -11 -3 -18 4 -18 16 0 61 98 61 133 0 15 5 27 10 27 6 0 10 -11 10
-25 0 -14 5 -25 10 -25 6 0 10 5 10 10 0 6 9 10 20 10 28 0 25 20 -2 21 -13 0
-17 3 -10 6 21 8 13 23 -13 23 -20 0 -25 5 -25 25 0 29 22 25 56 -11 12 -12
30 -24 40 -27 17 -4 17 -5 2 -6 -19 -1 -26 -21 -8 -21 6 0 10 -9 10 -20 0 -30
17 -24 29 11 16 47 14 59 -11 60 -17 1 -19 2 -5 6 30 8 19 26 -13 21 -17 -3
-33 -1 -36 4 -3 4 4 8 15 8 12 0 21 5 21 10 0 6 -9 10 -21 10 -11 0 -17 5 -14
10 8 14 52 13 57 -1 2 -7 13 -9 26 -4 40 12 18 30 -36 30 -29 0 -52 3 -52 8 0
4 11 7 25 7 16 0 25 6 25 15 0 11 -7 14 -25 9 -19 -5 -25 -2 -25 10 0 9 -6 16
-14 16 -11 0 -13 -9 -9 -34z m3 -66 c0 -5 -7 -10 -15 -10 -8 0 -15 5 -15 10 0
6 7 10 15 10 8 0 15 -4 15 -10z"/>
<path d="M584 1711 c9 -57 -11 -189 -34 -229 -12 -19 -18 -37 -15 -41 9 -8 55
46 55 65 0 10 7 13 25 8 29 -7 34 10 7 27 -27 17 -17 77 14 91 26 12 33 38 9
38 -7 0 -19 -8 -25 -17 -9 -14 -10 -7 -6 34 4 40 2 53 -10 57 -25 10 -27 8
-20 -33z"/>
<path d="M530 1635 c0 -14 21 -45 31 -45 18 0 5 45 -13 48 -10 2 -18 1 -18 -3z"/>
<path d="M727 1286 c5 -33 4 -35 -28 -41 l-34 -6 -2 -64 c-2 -54 -19 -121 -48
-187 -4 -11 -3 -18 4 -18 16 0 61 98 61 133 0 15 5 27 10 27 6 0 10 -11 10
-25 0 -26 15 -34 23 -12 4 9 8 8 16 -3 10 -13 13 -13 25 3 17 22 26 22 26 -3
0 -30 17 -24 29 11 16 47 14 59 -11 60 -17 1 -19 2 -5 6 30 8 19 26 -13 21
-17 -3 -33 -1 -36 4 -3 4 4 8 15 8 12 0 21 5 21 10 0 6 -9 10 -21 10 -11 0
-17 5 -14 10 8 14 52 13 57 -1 2 -7 13 -9 26 -4 40 12 18 30 -36 30 -29 0 -52
3 -52 8 0 4 11 7 25 7 16 0 25 6 25 15 0 11 -7 14 -25 9 -19 -5 -25 -2 -25 10
0 9 -6 16 -14 16 -11 0 -13 -9 -9 -34z m3 -66 c0 -5 -7 -10 -15 -10 -8 0 -15
5 -15 10 0 6 7 10 15 10 8 0 15 -4 15 -10z m14 -52 c19 -18 19 -18 -17 -18
-33 0 -37 3 -37 25 0 19 4 23 18 18 9 -4 26 -15 36 -25z m53 -34 c-3 -3 -12
-4 -19 -1 -8 3 -5 6 6 6 11 1 17 -2 13 -5z"/>
<path d="M584 1261 c9 -57 -11 -189 -34 -229 -12 -19 -18 -37 -15 -41 9 -8 55
46 55 65 0 10 7 13 25 8 29 -7 34 10 7 27 -27 17 -17 77 14 91 26 12 33 38 9
38 -7 0 -19 -8 -25 -17 -9 -14 -10 -7 -6 34 4 40 2 53 -10 57 -25 10 -27 8
-20 -33z"/>
<path d="M530 1185 c0 -14 21 -45 31 -45 18 0 5 45 -13 48 -10 2 -18 1 -18 -3z"/>
<path d="M727 836 c5 -33 4 -35 -28 -41 l-34 -6 -2 -64 c-2 -54 -19 -121 -48
-187 -4 -11 -3 -18 4 -18 16 0 61 98 61 133 0 15 4 27 9 27 5 0 11 -12 13 -27
3 -26 6 -28 55 -29 49 -1 53 1 63 29 15 44 12 57 -12 58 -17 1 -19 2 -5 6 30
8 19 26 -13 21 -17 -3 -33 -1 -36 4 -3 4 4 8 15 8 12 0 21 5 21 10 0 6 -9 10
-21 10 -11 0 -17 5 -14 10 8 14 52 13 57 -1 2 -7 13 -9 26 -4 40 12 18 30 -36
30 -29 0 -52 3 -52 8 0 4 11 7 25 7 16 0 25 6 25 15 0 11 -7 14 -25 9 -19 -5
-25 -2 -25 10 0 9 -6 16 -14 16 -11 0 -13 -9 -9 -34z m3 -66 c0 -5 -7 -10 -15
-10 -8 0 -15 5 -15 10 0 6 7 10 15 10 8 0 15 -4 15 -10z m14 -52 c19 -18 19
-18 -17 -18 -33 0 -37 3 -37 25 0 19 4 23 18 18 9 -4 26 -15 36 -25z m53 -34
c-3 -3 -12 -4 -19 -1 -8 3 -5 6 6 6 11 1 17 -2 13 -5z"/>
<path d="M584 811 c9 -57 -11 -189 -34 -229 -12 -19 -18 -37 -15 -41 9 -8 55
46 55 65 0 10 7 13 25 8 29 -7 34 10 7 27 -27 17 -17 77 14 91 26 12 33 38 9
38 -7 0 -19 -8 -25 -17 -9 -14 -10 -7 -6 34 4 40 2 53 -10 57 -25 10 -27 8
-20 -33z"/>
<path d="M530 735 c0 -14 21 -45 31 -45 18 0 5 45 -13 48 -10 2 -18 1 -18 -3z"/>
<path d="M727 386 c5 -33 4 -35 -28 -41 l-34 -6 -2 -64 c-2 -54 -19 -121 -48
-187 -4 -11 -3 -18 4 -18 16 0 61 98 61 133 0 15 4 27 9 27 5 0 11 -12 13 -27
3 -26 6 -28 55 -29 49 -1 53 1 63 29 15 44 12 57 -12 58 -17 1 -19 2 -5 6 30
8 19 26 -13 21 -17 -3 -33 -1 -36 4 -3 4 4 8 15 8 12 0 21 5 21 10 0 6 -9 10
-21 10 -11 0 -17 5 -14 10 8 14 52 13 57 -1 2 -7 13 -9 26 -4 40 12 18 30 -36
30 -29 0 -52 3 -52 8 0 4 11 7 25 7 16 0 25 6 25 15 0 11 -7 14 -25 9 -19 -5
-25 -2 -25 10 0 9 -6 16 -14 16 -11 0 -13 -9 -9 -34z m3 -66 c0 -5 -7 -10 -15
-10 -8 0 -15 5 -15 10 0 6 7 10 15 10 8 0 15 -4 15 -10z m14 -52 c19 -18 19
-18 -17 -18 -33 0 -37 3 -37 25 0 19 4 23 18 18 9 -4 26 -15 36 -25z m53 -34
c-3 -3 -12 -4 -19 -1 -8 3 -5 6 6 6 11 1 17 -2 13 -5z"/>
<path d="M584 361 c9 -57 -11 -189 -34 -229 -12 -19 -18 -37 -15 -41 9 -8 55
46 55 65 0 10 7 13 25 8 29 -7 34 10 7 27 -27 17 -17 77 14 91 26 12 33 38 9
38 -7 0 -19 -8 -25 -17 -9 -14 -10 -7 -6 34 4 40 2 53 -10 57 -25 10 -27 8
-20 -33z"/>
<path d="M530 285 c0 -14 21 -45 31 -45 18 0 5 45 -13 48 -10 2 -18 1 -18 -3z"/>
<path d="M684 134 c3 -9 6 -22 6 -30 0 -8 5 -14 10 -14 6 0 10 14 10 30 0 21
-5 30 -16 30 -11 0 -14 -5 -10 -16z"/>
</g>
</svg>
