<?xml version="1.0" standalone="no"?>
<!DOCTYPE svg PUBLIC "-//W3C//DTD SVG 20010904//EN"
 "http://www.w3.org/TR/2001/REC-SVG-20010904/DTD/svg10.dtd">
<svg version="1.0" xmlns="http://www.w3.org/2000/svg"
 width="50.000000pt" height="725.000000pt" viewBox="0 0 50.000000 725.000000"
 preserveAspectRatio="xMidYMid meet">
<metadata>
Created by potrace 1.16, written by Peter Selinger 2001-2019
</metadata>
<g transform="translate(0.000000,725.000000) scale(0.100000,-0.100000)"
fill="#000000" stroke="none">
<path d="M170 7126 c-5 -13 -23 -40 -41 -60 -17 -20 -29 -39 -26 -43 19 -18
114 85 103 112 -8 22 -25 18 -36 -9z"/>
<path d="M170 6675 c-11 -28 -20 -31 -38 -13 -6 6 -15 8 -19 5 -4 -4 1 -15 10
-24 16 -16 15 -18 -5 -40 -27 -29 -17 -41 16 -20 23 15 24 15 30 -6 7 -28 7
-96 0 -124 -4 -14 -14 -23 -25 -23 -22 0 -24 -11 -7 -28 19 -19 46 -14 53 8 4
12 5 67 4 124 -3 75 0 108 10 120 14 17 9 46 -9 46 -6 0 -15 -11 -20 -25z"/>
<path d="M170 6225 c-11 -28 -20 -31 -38 -13 -6 6 -15 8 -19 5 -4 -4 1 -15 10
-24 16 -16 15 -18 -5 -40 -27 -29 -17 -41 17 -19 23 15 25 15 25 -1 0 -9 -19
-36 -42 -60 -50 -51 -44 -66 12 -29 l40 26 0 -22 c0 -43 -12 -68 -31 -68 -22
0 -24 -11 -7 -28 19 -19 46 -14 53 8 4 12 5 67 4 124 -3 75 0 108 10 120 14
17 9 46 -9 46 -6 0 -15 -11 -20 -25z"/>
<path d="M170 5775 c-11 -28 -20 -31 -38 -13 -6 6 -15 8 -19 5 -4 -4 1 -15 10
-24 16 -16 15 -18 -5 -40 -27 -29 -17 -41 17 -19 23 15 25 15 25 -1 0 -9 -19
-36 -42 -60 -50 -51 -44 -66 12 -29 l40 26 0 -22 c0 -43 -12 -68 -31 -68 -22
0 -24 -11 -7 -28 15 -15 48 -16 48 -1 0 5 5 7 11 4 31 -20 79 79 98 202 14 94
14 93 -10 93 -14 0 -19 -5 -16 -14 11 -28 -13 -160 -40 -215 l-27 -56 -6 105
c-5 81 -4 110 7 128 15 25 11 52 -7 52 -6 0 -15 -11 -20 -25z"/>
<path d="M170 5325 c-11 -28 -20 -31 -38 -13 -6 6 -15 8 -19 5 -4 -4 1 -15 10
-24 16 -16 15 -18 -5 -40 -27 -29 -17 -41 17 -19 23 15 25 15 25 -1 0 -9 -19
-36 -42 -60 -50 -51 -44 -66 12 -29 l40 26 0 -22 c0 -43 -12 -68 -31 -68 -22
0 -24 -11 -7 -28 14 -14 48 -16 48 -2 0 5 6 7 13 4 21 -8 49 32 73 104 14 41
29 68 39 70 14 3 15 -6 9 -71 -6 -68 -5 -76 15 -96 14 -14 33 -21 59 -21 52 0
63 10 56 48 -8 38 -17 40 -32 7 -13 -28 -43 -33 -62 -10 -13 15 -10 65 6 144
l7 34 -37 -6 -38 -6 7 49 c6 46 5 50 -13 50 -15 0 -20 -6 -20 -22 4 -65 -2
-88 -22 -88 -11 0 -20 -7 -20 -16 0 -11 6 -13 19 -9 18 5 19 3 9 -32 -6 -21
-20 -56 -32 -78 l-21 -40 -6 105 c-4 81 -2 110 8 128 15 25 11 52 -7 52 -6 0
-15 -11 -20 -25z"/>
</g>
</svg>
