<?xml version="1.0" standalone="no"?>
<!DOCTYPE svg PUBLIC "-//W3C//DTD SVG 20010904//EN"
 "http://www.w3.org/TR/2001/REC-SVG-20010904/DTD/svg10.dtd">
<svg version="1.0" xmlns="http://www.w3.org/2000/svg"
 width="50.000000pt" height="725.000000pt" viewBox="0 0 50.000000 725.000000"
 preserveAspectRatio="xMidYMid meet">
<metadata>
Created by potrace 1.16, written by Peter Selinger 2001-2019
</metadata>
<g transform="translate(0.000000,725.000000) scale(0.100000,-0.100000)"
fill="#000000" stroke="none">
<path d="M186 7126 c-3 -13 -24 -42 -47 -65 -22 -24 -38 -45 -35 -48 9 -9 80
44 104 77 26 35 27 46 6 54 -22 8 -21 9 -28 -18z"/>
<path d="M190 6688 c0 -7 -4 -19 -9 -27 -8 -12 -12 -13 -25 -1 -22 18 -30 7
-14 -20 12 -19 10 -24 -17 -45 -38 -31 -24 -46 15 -16 38 27 42 19 38 -70 -3
-58 -5 -64 -25 -67 -28 -4 -29 -14 -3 -37 20 -18 22 -18 38 -1 14 14 17 36 17
126 0 74 4 113 13 121 17 18 15 36 -4 43 -22 8 -24 8 -24 -6z"/>
<path d="M190 6238 c0 -7 -4 -19 -9 -27 -8 -12 -12 -13 -25 -1 -22 18 -30 7
-14 -20 12 -19 10 -24 -17 -45 -37 -31 -25 -46 15 -17 65 49 35 -29 -33 -82
-48 -38 -23 -44 29 -8 l45 32 -3 -37 c-2 -31 -7 -39 -25 -41 -28 -4 -29 -14
-3 -37 20 -18 22 -18 38 -1 14 14 17 36 17 126 0 74 4 113 13 121 17 18 15 36
-4 43 -22 8 -24 8 -24 -6z"/>
<path d="M190 5788 c0 -7 -4 -19 -9 -27 -8 -12 -12 -13 -25 -1 -22 18 -30 7
-14 -20 12 -19 10 -24 -17 -45 -37 -31 -25 -46 15 -17 65 49 35 -29 -33 -82
-48 -38 -23 -44 29 -8 l45 32 -3 -37 c-2 -31 -7 -39 -25 -41 -28 -4 -29 -14
-3 -37 20 -18 22 -18 38 -1 14 14 17 36 17 126 0 74 4 113 13 121 17 18 15 36
-4 43 -22 8 -24 8 -24 -6z"/>
<path d="M250 5683 c0 -38 3 -85 6 -105 12 -72 24 -38 24 67 0 87 -3 105 -15
105 -12 0 -15 -14 -15 -67z"/>
<path d="M190 5338 c0 -7 -4 -19 -9 -27 -8 -12 -12 -13 -25 -1 -22 18 -30 7
-14 -20 12 -19 10 -24 -17 -45 -37 -31 -25 -46 15 -17 65 49 35 -29 -33 -82
-48 -38 -23 -44 29 -8 l45 32 -3 -37 c-2 -31 -7 -39 -25 -41 -28 -4 -29 -14
-3 -37 20 -18 22 -18 38 -1 14 14 17 36 17 126 0 74 4 113 13 121 17 18 15 36
-4 43 -22 8 -24 8 -24 -6z"/>
<path d="M288 5303 l-38 -4 0 -67 c0 -37 3 -84 6 -104 12 -69 24 -39 24 56 l0
94 27 5 c16 3 32 3 37 0 5 -3 6 -46 4 -94 -4 -69 -3 -89 7 -89 9 0 15 24 20
78 12 138 13 127 -20 128 -16 1 -47 -1 -67 -3z"/>
<path d="M190 4888 c0 -7 -4 -19 -9 -27 -8 -12 -12 -13 -25 -1 -22 18 -30 7
-14 -20 12 -19 10 -24 -17 -45 -37 -31 -25 -46 15 -17 65 49 35 -29 -33 -82
-48 -38 -23 -44 29 -8 l45 32 -3 -37 c-2 -31 -7 -39 -25 -41 -28 -4 -29 -14
-3 -37 20 -18 22 -18 38 -1 14 14 17 36 17 126 0 74 4 113 13 121 17 18 15 36
-4 43 -22 8 -24 8 -24 -6z"/>
<path d="M288 4853 l-38 -4 0 -67 c0 -81 9 -142 21 -142 5 0 9 27 9 60 0 52 2
60 19 60 11 0 27 3 37 7 16 6 17 1 11 -55 -5 -50 -4 -62 7 -62 11 0 16 21 21
78 12 138 13 127 -20 128 -16 1 -47 -1 -67 -3z m60 -41 c2 -13 -2 -22 -10 -22
-7 0 -23 -3 -35 -6 -20 -5 -23 -2 -23 19 0 19 6 27 23 30 33 6 42 2 45 -21z"/>
<path d="M190 4438 c0 -7 -4 -19 -9 -27 -8 -12 -12 -13 -25 -1 -22 18 -30 7
-14 -20 12 -19 10 -24 -17 -45 -37 -31 -25 -46 15 -17 65 49 35 -29 -33 -82
-48 -38 -23 -44 29 -8 l45 32 -3 -37 c-2 -31 -7 -39 -25 -41 -28 -4 -29 -14
-3 -37 20 -18 22 -18 38 -1 14 14 17 36 17 126 0 74 4 113 13 121 17 18 15 36
-4 43 -22 8 -24 8 -24 -6z"/>
<path d="M288 4403 l-38 -4 0 -67 c0 -81 9 -142 21 -142 5 0 9 14 9 30 0 17 5
30 13 30 6 0 22 3 34 6 21 6 22 4 17 -25 -5 -24 -3 -31 9 -31 12 0 17 17 22
78 12 138 13 127 -20 128 -16 1 -47 -1 -67 -3z m60 -41 c2 -13 -2 -22 -10 -22
-7 0 -23 -3 -35 -6 -20 -5 -23 -2 -23 19 0 19 6 27 23 30 33 6 42 2 45 -21z
m2 -62 c0 -13 -7 -20 -19 -20 -11 0 -26 -3 -35 -6 -11 -4 -16 0 -16 14 0 15 8
22 28 25 15 2 30 5 35 6 4 0 7 -8 7 -19z"/>
<path d="M190 3988 c0 -7 -4 -19 -9 -27 -8 -12 -12 -13 -25 -1 -22 18 -30 7
-14 -20 12 -19 10 -24 -17 -45 -37 -31 -25 -46 15 -17 65 49 35 -29 -33 -82
-48 -38 -23 -44 29 -8 l45 32 -3 -37 c-2 -31 -7 -39 -25 -41 -28 -4 -29 -14
-3 -37 20 -18 22 -18 38 -1 14 14 17 36 17 126 0 74 4 113 13 121 17 18 15 36
-4 43 -22 8 -24 8 -24 -6z"/>
<path d="M286 3953 l-39 -4 5 -100 5 -99 -24 0 c-15 0 -23 -5 -21 -12 3 -7 12
-13 21 -12 10 0 60 1 113 2 71 2 95 5 92 15 -3 6 -19 13 -36 15 l-32 3 6 82
c4 45 8 89 8 97 1 16 -30 20 -98 13z m62 -41 c2 -13 -2 -22 -10 -22 -7 0 -23
-3 -35 -6 -20 -5 -23 -2 -23 19 0 19 6 27 23 30 33 6 42 2 45 -21z m2 -62 c0
-13 -7 -20 -19 -20 -11 0 -26 -3 -35 -6 -11 -4 -16 0 -16 14 0 15 8 22 28 25
15 2 30 5 35 6 4 0 7 -8 7 -19z m0 -44 c0 -3 -4 -16 -10 -30 -13 -36 -60 -37
-60 -2 0 18 7 26 23 29 34 7 47 7 47 3z"/>
</g>
</svg>
