<?xml version="1.0" standalone="no"?>
<!DOCTYPE svg PUBLIC "-//W3C//DTD SVG 20010904//EN"
 "http://www.w3.org/TR/2001/REC-SVG-20010904/DTD/svg10.dtd">
<svg version="1.0" xmlns="http://www.w3.org/2000/svg"
 width="50.000000pt" height="725.000000pt" viewBox="0 0 50.000000 725.000000"
 preserveAspectRatio="xMidYMid meet">
<metadata>
Created by potrace 1.16, written by Peter Selinger 2001-2019
</metadata>
<g transform="translate(0.000000,725.000000) scale(0.100000,-0.100000)"
fill="#000000" stroke="none">
<path d="M179 7128 c-6 -13 -25 -38 -42 -55 -32 -34 -32 -52 0 -35 32 18 96
90 89 101 -12 18 -35 12 -47 -11z"/>
<path d="M180 6680 c-9 -17 -14 -18 -30 -8 -26 16 -38 2 -17 -19 16 -16 15
-18 -5 -40 -27 -29 -17 -41 17 -19 l25 16 0 -69 c0 -82 -6 -101 -31 -101 -10
0 -19 -4 -19 -8 0 -14 23 -32 42 -32 29 0 40 46 35 145 -5 80 -3 92 15 112 21
22 17 43 -7 43 -8 0 -19 -9 -25 -20z"/>
<path d="M180 6230 c-9 -17 -14 -18 -30 -8 -26 16 -38 2 -17 -19 16 -16 15
-18 -5 -40 -27 -29 -17 -41 17 -19 24 16 25 15 25 -2 0 -11 -20 -38 -45 -61
-25 -23 -45 -44 -45 -46 0 -11 19 -4 54 20 l36 24 0 -28 c0 -42 -10 -61 -31
-61 -10 0 -19 -4 -19 -8 0 -14 23 -32 42 -32 29 0 40 46 35 145 -5 80 -3 92
15 112 21 22 17 43 -7 43 -8 0 -19 -9 -25 -20z"/>
<path d="M302 5788 c4 -29 38 -38 38 -10 0 11 -7 23 -16 26 -24 9 -26 8 -22
-16z"/>
<path d="M180 5780 c-9 -17 -14 -18 -30 -8 -26 16 -38 2 -17 -19 16 -16 15
-18 -5 -40 -27 -29 -17 -41 17 -19 24 16 25 15 25 -2 0 -11 -20 -38 -45 -61
-25 -23 -45 -44 -45 -46 0 -11 19 -4 54 20 l36 24 0 -28 c0 -42 -10 -61 -31
-61 -10 0 -19 -4 -19 -8 0 -14 23 -32 42 -32 29 0 40 46 35 145 -5 80 -3 92
15 112 21 22 17 43 -7 43 -8 0 -19 -9 -25 -20z"/>
<path d="M302 5338 c4 -29 38 -38 38 -10 0 11 -7 23 -16 26 -24 9 -26 8 -22
-16z"/>
<path d="M180 5330 c-9 -17 -14 -18 -30 -8 -26 16 -38 2 -17 -19 16 -16 15
-18 -5 -40 -27 -29 -17 -41 17 -19 24 16 25 15 25 -2 0 -11 -20 -38 -45 -61
-25 -23 -45 -44 -45 -46 0 -11 19 -4 54 20 l36 24 0 -28 c0 -42 -10 -61 -31
-61 -10 0 -19 -4 -19 -8 0 -14 23 -32 42 -32 29 0 40 46 35 145 -5 80 -3 92
15 112 21 22 17 43 -7 43 -8 0 -19 -9 -25 -20z"/>
<path d="M222 5288 c-12 -33 -3 -56 17 -44 12 8 15 76 3 76 -4 0 -13 -14 -20
-32z"/>
<path d="M302 4886 c4 -20 0 -26 -20 -31 -16 -4 -28 -1 -33 7 -9 14 -11 13
-27 -26 -8 -19 -9 -33 -3 -39 12 -12 31 -1 31 18 0 8 17 17 43 22 34 7 43 13
45 32 3 22 -11 40 -32 41 -4 0 -6 -11 -4 -24z"/>
<path d="M180 4880 c-9 -17 -14 -18 -30 -8 -26 16 -38 2 -17 -19 16 -16 15
-18 -5 -40 -27 -29 -17 -41 17 -19 24 16 25 15 25 -2 0 -11 -20 -38 -45 -61
-25 -23 -45 -44 -45 -46 0 -11 19 -4 54 20 l36 24 0 -28 c0 -42 -10 -61 -31
-61 -10 0 -19 -4 -19 -8 0 -14 23 -32 42 -32 29 0 40 46 35 145 -5 80 -3 92
15 112 21 22 17 43 -7 43 -8 0 -19 -9 -25 -20z"/>
<path d="M350 4860 c0 -5 7 -10 15 -10 9 0 12 -6 9 -15 -7 -17 22 -21 45 -6
12 8 12 12 2 25 -15 17 -71 22 -71 6z"/>
<path d="M302 4436 c4 -20 0 -26 -20 -31 -16 -4 -28 -1 -33 7 -9 14 -11 13
-27 -26 -8 -19 -9 -33 -3 -39 12 -12 31 -1 31 18 0 8 17 17 43 22 34 7 43 13
45 32 3 22 -11 40 -32 41 -4 0 -6 -11 -4 -24z"/>
<path d="M180 4430 c-9 -17 -14 -18 -30 -8 -26 16 -38 2 -17 -19 16 -16 15
-18 -5 -40 -27 -29 -17 -41 17 -19 24 16 25 15 25 -2 0 -11 -20 -38 -45 -61
-25 -23 -45 -44 -45 -46 0 -11 19 -4 54 20 l36 24 0 -28 c0 -42 -10 -61 -31
-61 -10 0 -19 -4 -19 -8 0 -14 23 -32 42 -32 29 0 40 46 35 145 -5 80 -3 92
15 112 21 22 17 43 -7 43 -8 0 -19 -9 -25 -20z"/>
<path d="M350 4410 c0 -5 7 -10 15 -10 9 0 12 -6 9 -15 -7 -17 22 -21 45 -6
12 8 12 12 2 25 -15 17 -71 22 -71 6z"/>
<path d="M293 4317 c-108 -15 -90 -29 25 -21 53 4 99 9 102 11 7 6 -23 23 -40
21 -8 0 -48 -5 -87 -11z"/>
<path d="M302 3986 c4 -20 0 -26 -20 -31 -16 -4 -28 -1 -33 7 -9 14 -11 13
-27 -26 -8 -19 -9 -33 -3 -39 12 -12 31 -1 31 18 0 8 17 17 43 22 34 7 43 13
45 32 3 22 -11 40 -32 41 -4 0 -6 -11 -4 -24z"/>
<path d="M180 3980 c-9 -17 -14 -18 -30 -8 -26 16 -38 2 -17 -19 16 -16 15
-18 -5 -40 -27 -29 -17 -41 17 -19 24 16 25 15 25 -2 0 -11 -20 -38 -45 -61
-25 -23 -45 -44 -45 -46 0 -11 19 -4 54 20 l36 24 0 -28 c0 -42 -10 -61 -31
-61 -10 0 -19 -4 -19 -8 0 -14 23 -32 42 -32 29 0 40 46 35 145 -5 80 -3 92
15 112 21 22 17 43 -7 43 -8 0 -19 -9 -25 -20z"/>
<path d="M350 3960 c0 -5 7 -10 15 -10 9 0 12 -6 9 -15 -7 -17 22 -21 45 -6
12 8 12 12 2 25 -15 17 -71 22 -71 6z"/>
<path d="M322 3896 c4 -20 0 -25 -25 -30 -16 -3 -40 -6 -53 -6 -13 0 -24 -5
-24 -11 0 -8 17 -10 55 -6 l55 6 0 -33 c0 -58 -11 -95 -26 -89 -20 8 -17 -11
5 -31 31 -29 41 -11 41 75 l0 79 35 0 c19 0 35 4 35 10 0 12 -45 24 -59 15 -7
-4 -11 4 -11 19 0 17 -5 26 -16 26 -12 0 -15 -7 -12 -24z"/>
<path d="M302 3536 c4 -20 0 -26 -20 -31 -16 -4 -28 -1 -33 7 -9 14 -11 13
-27 -26 -8 -19 -9 -33 -3 -39 12 -12 31 -1 31 18 0 8 17 17 43 22 34 7 43 13
45 32 3 22 -11 40 -32 41 -4 0 -6 -11 -4 -24z"/>
<path d="M180 3530 c-9 -17 -14 -18 -30 -8 -26 16 -38 2 -17 -19 16 -16 15
-18 -5 -40 -27 -29 -17 -41 17 -19 24 16 25 15 25 -2 0 -11 -20 -38 -45 -61
-25 -23 -45 -44 -45 -46 0 -11 19 -4 54 20 l36 24 0 -28 c0 -42 -10 -61 -31
-61 -10 0 -19 -4 -19 -8 0 -14 23 -32 42 -32 29 0 40 46 35 145 -5 80 -3 92
15 112 21 22 17 43 -7 43 -8 0 -19 -9 -25 -20z"/>
<path d="M350 3510 c0 -5 7 -10 15 -10 9 0 12 -6 9 -15 -7 -17 22 -21 45 -6
12 8 12 12 2 25 -15 17 -71 22 -71 6z"/>
<path d="M322 3446 c4 -20 0 -25 -25 -30 -16 -3 -40 -6 -53 -6 -13 0 -24 -5
-24 -11 0 -8 17 -10 55 -6 l55 6 0 -33 c0 -58 -11 -95 -26 -89 -20 8 -17 -11
5 -31 31 -29 41 -11 41 75 l0 79 35 0 c19 0 35 4 35 10 0 12 -45 24 -59 15 -7
-4 -11 4 -11 19 0 17 -5 26 -16 26 -12 0 -15 -7 -12 -24z"/>
<path d="M250 3348 c0 -16 19 -38 33 -38 4 0 7 10 5 22 -3 25 -38 39 -38 16z"/>
</g>
</svg>
