<?xml version="1.0" standalone="no"?>
<!DOCTYPE svg PUBLIC "-//W3C//DTD SVG 20010904//EN"
 "http://www.w3.org/TR/2001/REC-SVG-20010904/DTD/svg10.dtd">
<svg version="1.0" xmlns="http://www.w3.org/2000/svg"
 width="50.000000pt" height="725.000000pt" viewBox="0 0 50.000000 725.000000"
 preserveAspectRatio="xMidYMid meet">
<metadata>
Created by potrace 1.16, written by Peter Selinger 2001-2019
</metadata>
<g transform="translate(0.000000,725.000000) scale(0.100000,-0.100000)"
fill="#000000" stroke="none">
<path d="M167 7128 c-9 -18 -27 -45 -39 -60 -12 -15 -18 -31 -14 -35 11 -11
98 84 94 104 -5 29 -24 25 -41 -9z"/>
<path d="M170 6680 c-10 -24 -15 -28 -27 -19 -17 14 -31 3 -15 -13 8 -8 7 -17
-5 -35 -20 -30 -10 -42 16 -19 17 15 19 15 25 1 8 -21 8 -118 0 -139 -3 -9
-15 -16 -25 -16 -23 0 -23 -8 -3 -35 18 -24 45 -11 55 26 11 37 10 130 -1 168
-7 25 -6 38 7 57 15 24 12 54 -5 54 -5 0 -15 -14 -22 -30z"/>
<path d="M170 6230 c-10 -24 -15 -28 -27 -19 -17 14 -31 3 -15 -13 8 -8 7 -17
-5 -35 -20 -30 -10 -42 16 -19 17 15 19 15 25 1 3 -10 -12 -33 -44 -67 -27
-28 -48 -53 -46 -56 6 -6 48 17 74 41 l22 20 0 -30 c0 -44 -9 -63 -31 -63 -23
0 -23 -8 -3 -35 18 -24 45 -11 55 26 11 37 10 130 -1 168 -7 25 -6 38 7 57 15
24 12 54 -5 54 -5 0 -15 -14 -22 -30z"/>
<path d="M270 5798 c-1 -29 -52 -124 -65 -120 -19 5 -25 53 -8 78 15 24 12 54
-5 54 -5 0 -15 -14 -22 -30 -10 -24 -15 -28 -27 -19 -17 14 -31 3 -15 -13 8
-8 7 -17 -5 -35 -20 -30 -10 -42 16 -19 17 15 19 15 25 1 3 -10 -12 -33 -44
-67 -27 -28 -48 -53 -46 -56 6 -6 48 17 74 41 l22 20 0 -30 c0 -44 -9 -63 -31
-63 -23 0 -23 -8 -3 -35 11 -15 18 -17 32 -9 20 13 30 44 31 102 1 35 7 48 31
69 43 36 85 120 69 139 -17 21 -29 17 -29 -8z"/>
<path d="M270 5348 c-1 -29 -51 -124 -65 -120 -19 5 -25 53 -8 78 15 24 12 54
-5 54 -5 0 -15 -14 -22 -30 -10 -24 -15 -28 -27 -19 -17 14 -31 3 -15 -13 8
-8 7 -17 -5 -35 -20 -30 -10 -42 16 -19 17 15 19 15 25 1 3 -10 -12 -33 -44
-67 -27 -28 -48 -53 -46 -56 6 -6 48 17 74 41 l22 20 0 -30 c0 -44 -9 -63 -31
-63 -23 0 -23 -8 -3 -35 11 -15 18 -17 32 -9 20 13 30 44 31 102 1 35 7 48 31
69 17 14 39 41 49 61 l18 35 39 -51 c32 -44 43 -52 71 -52 44 0 41 13 -10 43
-45 27 -74 55 -91 89 -16 31 -36 34 -36 6z"/>
<path d="M270 4898 c-1 -29 -51 -124 -65 -120 -19 5 -25 53 -8 78 15 24 12 54
-5 54 -5 0 -15 -14 -22 -30 -10 -24 -15 -28 -27 -19 -17 14 -31 3 -15 -13 8
-8 7 -17 -5 -35 -20 -30 -10 -42 16 -19 17 15 19 15 25 1 3 -10 -12 -33 -44
-67 -27 -28 -48 -53 -46 -56 6 -6 48 17 74 41 l22 20 0 -30 c0 -44 -9 -63 -31
-63 -23 0 -23 -8 -3 -35 11 -15 18 -17 32 -9 20 13 30 44 31 102 1 35 7 48 31
69 17 14 39 41 49 61 l18 35 39 -51 c32 -44 43 -52 71 -52 44 0 41 13 -10 43
-45 27 -74 55 -91 89 -16 31 -36 34 -36 6z"/>
<path d="M291 4781 c-14 -4 -27 -13 -29 -20 -3 -10 0 -12 12 -8 10 4 29 7 43
7 15 0 23 5 21 12 -5 15 -17 18 -47 9z"/>
<path d="M270 4448 c-1 -29 -51 -124 -65 -120 -19 5 -25 53 -8 78 15 24 12 54
-5 54 -5 0 -15 -14 -22 -30 -10 -24 -15 -28 -27 -19 -17 14 -31 3 -15 -13 8
-8 7 -17 -5 -35 -20 -30 -10 -42 16 -19 17 15 19 15 25 1 3 -10 -12 -33 -44
-67 -27 -28 -48 -53 -46 -56 6 -6 48 17 74 41 l22 20 0 -30 c0 -44 -9 -63 -31
-63 -23 0 -23 -8 -3 -35 11 -15 18 -17 32 -9 20 13 30 44 31 102 1 35 7 48 31
69 17 14 39 41 49 61 l18 35 39 -51 c32 -44 43 -52 71 -52 44 0 41 13 -10 43
-45 27 -74 55 -91 89 -16 31 -36 34 -36 6z"/>
<path d="M291 4331 c-14 -4 -27 -13 -29 -20 -3 -10 0 -12 12 -8 10 4 29 7 43
7 15 0 23 5 21 12 -5 15 -17 18 -47 9z"/>
<path d="M278 4277 c-98 -15 -84 -29 20 -21 95 7 97 8 87 23 -7 12 -12 12
-107 -2z"/>
<path d="M270 3998 c-1 -29 -51 -124 -65 -120 -19 5 -25 53 -8 78 15 24 12 54
-5 54 -5 0 -15 -14 -22 -30 -10 -24 -15 -28 -27 -19 -17 14 -31 3 -15 -13 8
-8 7 -17 -5 -35 -20 -30 -10 -42 16 -19 17 15 19 15 25 1 3 -10 -12 -33 -44
-67 -27 -28 -48 -53 -46 -56 6 -6 48 17 74 41 l22 20 0 -30 c0 -44 -9 -63 -31
-63 -23 0 -23 -8 -3 -35 11 -15 18 -17 32 -9 20 13 30 44 31 102 1 35 7 48 31
69 17 14 39 41 49 61 l18 35 39 -51 c32 -44 43 -52 71 -52 44 0 41 13 -10 43
-45 27 -74 55 -91 89 -16 31 -36 34 -36 6z"/>
<path d="M291 3881 c-25 -7 -42 -31 -22 -31 6 0 11 -7 11 -15 0 -10 -11 -15
-35 -15 -19 0 -35 -4 -35 -10 0 -5 18 -10 39 -10 l40 0 -6 -37 c-3 -21 -11
-41 -17 -45 -14 -10 5 -43 25 -43 10 0 15 18 17 68 l3 67 40 0 c28 0 39 4 36
13 -2 7 -19 11 -41 10 -26 -2 -36 2 -36 12 0 8 7 15 16 15 9 0 14 5 12 12 -5
15 -17 18 -47 9z"/>
<path d="M270 3548 c-1 -29 -51 -124 -65 -120 -19 5 -25 53 -8 78 15 24 12 54
-5 54 -5 0 -15 -14 -22 -30 -10 -24 -15 -28 -27 -19 -17 14 -31 3 -15 -13 8
-8 7 -17 -5 -35 -20 -30 -10 -42 16 -19 17 15 19 15 25 1 3 -10 -12 -33 -44
-67 -27 -28 -48 -53 -46 -56 6 -6 48 17 74 41 l22 20 0 -30 c0 -44 -9 -63 -31
-63 -23 0 -23 -8 -3 -35 11 -15 18 -17 32 -9 20 13 30 44 31 102 1 35 7 48 31
69 17 14 39 41 49 61 l18 35 39 -51 c32 -44 43 -52 71 -52 44 0 41 13 -10 43
-45 27 -74 55 -91 89 -16 31 -36 34 -36 6z"/>
<path d="M291 3431 c-25 -7 -42 -31 -22 -31 6 0 11 -7 11 -15 0 -10 -11 -15
-35 -15 -19 0 -35 -4 -35 -10 0 -5 18 -10 39 -10 l40 0 -6 -37 c-3 -21 -11
-41 -17 -45 -14 -10 5 -43 25 -43 10 0 15 18 17 68 l3 67 40 0 c28 0 39 4 36
13 -2 7 -19 11 -41 10 -26 -2 -36 2 -36 12 0 8 7 15 16 15 9 0 14 5 12 12 -5
15 -17 18 -47 9z"/>
<path d="M220 3305 c-7 -14 -10 -28 -6 -32 10 -10 50 33 42 46 -11 17 -21 13
-36 -14z"/>
<path d="M270 3098 c-1 -29 -51 -124 -65 -120 -19 5 -25 53 -8 78 15 24 12 54
-5 54 -5 0 -15 -14 -22 -30 -10 -24 -15 -28 -27 -19 -17 14 -31 3 -15 -13 8
-8 7 -17 -5 -35 -20 -30 -10 -42 16 -19 17 15 19 15 25 1 3 -10 -12 -33 -44
-67 -27 -28 -48 -53 -46 -56 6 -6 48 17 74 41 l22 20 0 -30 c0 -44 -9 -63 -31
-63 -23 0 -23 -8 -3 -35 11 -15 18 -17 32 -9 20 13 30 44 31 102 1 35 7 48 31
69 17 14 39 41 49 61 l18 35 39 -51 c32 -44 43 -52 71 -52 44 0 41 13 -10 43
-45 27 -74 55 -91 89 -16 31 -36 34 -36 6z"/>
<path d="M291 2981 c-25 -7 -42 -31 -22 -31 6 0 11 -7 11 -15 0 -10 -11 -15
-35 -15 -19 0 -35 -4 -35 -10 0 -5 18 -10 39 -10 l40 0 -6 -37 c-3 -21 -11
-41 -17 -45 -14 -10 5 -43 25 -43 10 0 15 18 17 68 l3 67 40 0 c28 0 39 4 36
13 -2 7 -19 11 -41 10 -26 -2 -36 2 -36 12 0 8 7 15 16 15 9 0 14 5 12 12 -5
15 -17 18 -47 9z"/>
<path d="M220 2855 c-7 -14 -10 -28 -6 -32 10 -10 50 33 42 46 -11 17 -21 13
-36 -14z"/>
<path d="M330 2875 c0 -11 44 -65 52 -65 17 0 7 50 -11 60 -21 11 -41 13 -41
5z"/>
</g>
</svg>
