<?xml version="1.0" standalone="no"?>
<!DOCTYPE svg PUBLIC "-//W3C//DTD SVG 20010904//EN"
 "http://www.w3.org/TR/2001/REC-SVG-20010904/DTD/svg10.dtd">
<svg version="1.0" xmlns="http://www.w3.org/2000/svg"
 width="50.000000pt" height="725.000000pt" viewBox="0 0 50.000000 725.000000"
 preserveAspectRatio="xMidYMid meet">
<metadata>
Created by potrace 1.16, written by Peter Selinger 2001-2019
</metadata>
<g transform="translate(0.000000,725.000000) scale(0.100000,-0.100000)"
fill="#000000" stroke="none">
<path d="M170 7115 c0 -8 -16 -32 -35 -54 -19 -21 -35 -41 -35 -45 0 -16 24
-3 65 35 48 44 59 79 25 79 -11 0 -20 -7 -20 -15z"/>
<path d="M167 6659 c-5 -18 -9 -19 -27 -9 -28 15 -38 5 -17 -18 16 -18 16 -20
-3 -37 -23 -21 -27 -40 -5 -31 8 3 22 9 30 12 14 6 16 -4 13 -67 -3 -68 -5
-74 -25 -77 -28 -4 -29 -14 -3 -37 20 -18 22 -18 38 -1 14 14 17 36 17 121 0
70 4 108 13 116 6 7 12 21 12 31 0 25 -36 23 -43 -3z"/>
<path d="M167 6209 c-5 -18 -9 -19 -27 -9 -28 15 -39 4 -17 -17 16 -16 15 -18
-5 -40 -25 -27 -19 -40 12 -23 12 6 24 9 27 6 9 -8 -36 -74 -65 -95 -15 -11
-24 -22 -20 -26 8 -9 74 30 82 48 3 7 4 -6 3 -28 -2 -33 -6 -41 -24 -43 -28
-4 -29 -14 -3 -37 20 -18 22 -18 38 -1 14 14 17 36 17 121 0 70 4 108 13 116
6 7 12 21 12 31 0 25 -36 23 -43 -3z"/>
<path d="M167 5759 c-5 -18 -9 -19 -27 -9 -28 15 -39 4 -17 -17 16 -16 15 -18
-5 -40 -25 -27 -19 -40 12 -23 12 6 24 9 27 6 9 -8 -36 -74 -65 -95 -15 -11
-24 -22 -20 -26 8 -9 74 30 82 48 3 7 4 -6 3 -28 -2 -33 -6 -41 -24 -43 -28
-4 -29 -14 -3 -37 20 -18 22 -18 38 -1 14 14 17 36 17 121 0 70 4 108 13 116
6 7 12 21 12 31 0 25 -36 23 -43 -3z"/>
<path d="M273 5727 c-65 -10 -86 -27 -34 -27 62 0 121 13 121 26 0 15 1 15
-87 1z"/>
<path d="M167 5309 c-5 -18 -9 -19 -27 -9 -28 15 -39 4 -17 -17 16 -16 15 -18
-5 -40 -25 -27 -19 -40 12 -23 12 6 24 9 27 6 9 -8 -36 -74 -65 -95 -15 -11
-24 -22 -20 -26 8 -9 74 30 82 48 3 7 4 -6 3 -28 -2 -33 -6 -41 -24 -43 -28
-4 -29 -14 -3 -37 19 -17 22 -17 36 -3 9 8 18 34 21 57 4 27 16 53 34 72 31
33 38 59 15 59 -8 0 -20 -15 -26 -32 l-12 -33 -8 25 c-13 41 -11 77 5 90 8 7
15 21 15 31 0 26 -36 25 -43 -2z"/>
<path d="M273 5277 c-65 -10 -86 -27 -34 -27 62 0 121 13 121 26 0 15 1 15
-87 1z"/>
<path d="M167 4859 c-5 -18 -9 -19 -27 -9 -28 15 -39 4 -17 -17 16 -16 15 -18
-5 -40 -25 -27 -19 -40 12 -23 12 6 24 9 27 6 9 -8 -36 -74 -65 -95 -15 -11
-24 -22 -20 -26 8 -9 74 30 82 48 3 7 4 -6 3 -28 -2 -33 -6 -41 -24 -43 -28
-4 -29 -14 -3 -37 19 -17 22 -17 36 -3 9 8 18 35 21 59 7 49 30 74 51 57 17
-14 26 -3 17 19 -5 10 -7 26 -6 36 4 30 -27 18 -39 -15 l-12 -33 -8 25 c-13
41 -11 77 5 90 8 7 15 21 15 31 0 26 -36 25 -43 -2z"/>
<path d="M273 4827 c-65 -10 -86 -27 -34 -27 62 0 121 13 121 26 0 15 1 15
-87 1z"/>
<path d="M167 4409 c-5 -18 -9 -19 -27 -9 -28 15 -39 4 -17 -17 16 -16 15 -18
-5 -40 -25 -27 -19 -40 12 -23 12 6 24 9 27 6 9 -8 -36 -74 -65 -95 -15 -11
-24 -22 -20 -26 8 -9 74 30 82 48 3 7 4 -6 3 -28 -2 -33 -6 -41 -24 -43 -28
-4 -29 -14 -3 -37 19 -17 22 -17 36 -3 9 8 18 35 21 59 7 49 30 74 51 57 17
-14 26 -3 17 19 -5 10 -7 26 -6 36 4 30 -27 18 -39 -15 l-12 -33 -8 25 c-13
41 -11 77 5 90 8 7 15 21 15 31 0 26 -36 25 -43 -2z"/>
<path d="M273 4377 c-65 -10 -86 -27 -34 -27 62 0 121 13 121 26 0 15 1 15
-87 1z"/>
<path d="M332 4308 c-6 -17 -9 -34 -6 -37 8 -8 44 38 44 55 0 26 -26 14 -38
-18z"/>
<path d="M167 3959 c-5 -18 -9 -19 -27 -9 -28 15 -39 4 -17 -17 16 -16 15 -18
-5 -40 -25 -27 -19 -40 12 -23 12 6 24 9 27 6 9 -8 -36 -74 -65 -95 -15 -11
-24 -22 -20 -26 8 -9 74 30 82 48 3 7 4 -6 3 -28 -2 -33 -6 -41 -24 -43 -28
-4 -29 -14 -3 -37 19 -17 22 -17 36 -3 9 8 18 35 21 59 7 49 30 74 51 57 17
-14 26 -3 17 19 -5 10 -7 26 -6 36 4 30 -27 18 -39 -15 l-12 -33 -8 25 c-13
41 -11 77 5 90 8 7 15 21 15 31 0 26 -36 25 -43 -2z"/>
<path d="M273 3927 c-65 -10 -86 -27 -34 -27 62 0 121 13 121 26 0 15 1 15
-87 1z"/>
<path d="M337 3873 c-2 -10 -8 -27 -13 -37 -6 -15 -4 -18 9 -13 8 3 21 -1 27
-9 7 -8 16 -14 21 -14 15 0 10 30 -6 36 -10 4 -13 14 -9 30 7 29 -21 35 -29 7z"/>
<path d="M273 3518 c2 -42 1 -43 -30 -46 -45 -4 -42 -22 3 -22 36 0 36 -1 30
-31 -3 -17 -6 -39 -6 -47 0 -13 -3 -12 -14 3 -7 10 -11 27 -8 37 8 32 -25 20
-38 -14 l-12 -33 -8 25 c-13 41 -11 77 5 90 8 7 15 21 15 31 0 26 -36 25 -43
-2 -5 -18 -9 -19 -27 -9 -28 15 -39 4 -17 -17 16 -16 15 -18 -5 -40 -25 -27
-19 -40 12 -23 12 6 24 9 27 6 9 -8 -36 -74 -65 -95 -15 -11 -24 -22 -20 -26
8 -9 74 30 82 48 3 7 4 -6 3 -28 -2 -33 -6 -41 -25 -43 -27 -4 -28 -14 -2 -37
19 -17 22 -17 36 -3 9 9 18 36 21 60 6 53 29 73 58 52 18 -13 17 -16 -14 -55
-37 -45 -35 -60 5 -35 31 21 63 88 64 133 0 47 9 63 36 63 15 0 24 6 24 16 0
12 -6 15 -24 10 -23 -6 -25 -3 -28 31 -2 26 -8 39 -20 41 -14 3 -17 -4 -15
-40z"/>
<path d="M337 3423 c-2 -10 -8 -27 -13 -37 -6 -15 -4 -18 9 -13 8 3 21 -1 27
-9 7 -8 16 -14 21 -14 15 0 10 30 -6 36 -10 4 -13 14 -9 30 7 29 -21 35 -29 7z"/>
<path d="M273 3068 c2 -42 1 -43 -30 -46 -45 -4 -42 -22 3 -22 36 0 36 -1 30
-31 -3 -17 -6 -39 -6 -47 0 -13 -3 -12 -14 3 -7 10 -11 27 -8 37 8 32 -25 20
-38 -14 l-12 -33 -8 25 c-13 41 -11 77 5 90 8 7 15 21 15 31 0 26 -36 25 -43
-2 -5 -18 -9 -19 -27 -9 -28 15 -39 4 -17 -17 16 -16 15 -18 -5 -40 -25 -27
-19 -40 12 -23 12 6 24 9 27 6 9 -8 -36 -74 -65 -95 -15 -11 -24 -22 -20 -26
8 -9 74 30 82 48 3 7 4 -6 3 -28 -2 -33 -6 -41 -25 -43 -27 -4 -28 -14 -2 -37
19 -17 22 -17 36 -3 9 9 18 36 21 60 6 53 29 73 58 52 18 -13 17 -16 -14 -55
-18 -22 -30 -43 -27 -46 10 -10 55 26 71 57 9 17 17 30 19 30 2 0 17 -22 34
-50 29 -47 34 -50 72 -50 47 0 52 13 10 30 -46 19 -110 94 -110 129 0 45 10
61 36 61 15 0 24 6 24 16 0 12 -6 15 -24 10 -23 -6 -25 -3 -28 31 -2 26 -8 39
-20 41 -14 3 -17 -4 -15 -40z"/>
<path d="M337 2973 c-2 -10 -8 -27 -13 -37 -6 -15 -4 -18 9 -13 8 3 21 -1 27
-9 7 -8 16 -14 21 -14 15 0 10 30 -6 36 -10 4 -13 14 -9 30 7 29 -21 35 -29 7z"/>
</g>
</svg>
