<?xml version="1.0" standalone="no"?>
<!DOCTYPE svg PUBLIC "-//W3C//DTD SVG 20010904//EN"
 "http://www.w3.org/TR/2001/REC-SVG-20010904/DTD/svg10.dtd">
<svg version="1.0" xmlns="http://www.w3.org/2000/svg"
 width="50.000000pt" height="725.000000pt" viewBox="0 0 50.000000 725.000000"
 preserveAspectRatio="xMidYMid meet">
<metadata>
Created by potrace 1.16, written by Peter Selinger 2001-2019
</metadata>
<g transform="translate(0.000000,725.000000) scale(0.100000,-0.100000)"
fill="#000000" stroke="none">
<path d="M166 7126 c-10 -19 -29 -45 -42 -57 -24 -23 -31 -39 -16 -39 17 0
102 93 102 111 0 30 -24 22 -44 -15z"/>
<path d="M180 6702 c0 -5 -6 -17 -14 -27 -12 -17 -16 -17 -30 -6 -23 19 -34 5
-13 -16 16 -16 15 -18 -5 -40 -29 -31 -14 -43 16 -14 l25 23 7 -37 c9 -52 -1
-127 -20 -141 -18 -13 -12 -44 9 -44 34 0 53 94 36 185 -9 49 -8 61 4 75 19
21 19 50 0 50 -8 0 -15 -4 -15 -8z"/>
<path d="M180 6252 c0 -5 -6 -17 -14 -27 -12 -17 -16 -17 -30 -6 -23 19 -34 5
-13 -16 16 -16 15 -18 -5 -40 -29 -31 -14 -42 17 -13 l25 23 0 -27 c0 -20 -12
-41 -40 -68 -22 -22 -40 -42 -40 -44 0 -10 20 -2 55 22 l38 25 -6 -38 c-4 -21
-13 -43 -22 -49 -17 -13 -10 -44 10 -44 34 0 53 94 36 185 -9 49 -8 61 4 75
19 21 19 50 0 50 -8 0 -15 -4 -15 -8z"/>
<path d="M180 5802 c0 -5 -6 -17 -14 -27 -12 -17 -16 -17 -30 -6 -23 19 -34 5
-13 -16 16 -16 15 -18 -5 -40 -29 -31 -14 -42 17 -13 l25 23 0 -27 c0 -20 -12
-41 -40 -68 -22 -22 -40 -42 -40 -44 0 -10 20 -2 55 22 l38 25 -6 -38 c-4 -21
-13 -43 -22 -49 -17 -13 -10 -44 10 -44 34 0 53 94 36 185 -9 49 -8 61 4 75
19 21 19 50 0 50 -8 0 -15 -4 -15 -8z"/>
<path d="M230 5775 c0 -24 24 -105 31 -105 10 0 11 20 3 73 -4 22 -12 37 -20
37 -8 0 -14 -2 -14 -5z"/>
<path d="M180 5352 c0 -5 -6 -17 -14 -27 -12 -17 -16 -17 -30 -6 -23 19 -34 5
-13 -16 16 -16 15 -18 -5 -40 -29 -31 -14 -42 17 -13 l25 23 0 -27 c0 -20 -12
-41 -40 -68 -22 -22 -40 -42 -40 -44 0 -10 20 -2 55 22 l38 25 -6 -38 c-4 -21
-13 -43 -22 -49 -17 -13 -10 -44 10 -44 34 0 53 94 36 185 -9 49 -8 61 4 75
19 21 19 50 0 50 -8 0 -15 -4 -15 -8z"/>
<path d="M338 5343 c-36 -5 -36 -23 -2 -23 25 0 26 -2 19 -32 -11 -51 -11 -61
1 -65 5 -2 18 22 28 53 15 47 16 58 4 65 -7 5 -15 8 -18 7 -3 0 -17 -3 -32 -5z"/>
<path d="M230 5325 c0 -2 5 -27 11 -55 14 -63 34 -68 26 -5 -5 36 -4 45 8 45
8 0 15 5 15 10 0 6 -13 10 -30 10 -16 0 -30 -2 -30 -5z"/>
<path d="M180 4902 c0 -5 -6 -17 -14 -27 -12 -17 -16 -17 -30 -6 -23 19 -34 5
-13 -16 16 -16 15 -18 -5 -40 -29 -31 -14 -42 17 -13 l25 23 0 -27 c0 -20 -12
-41 -40 -68 -22 -22 -40 -42 -40 -44 0 -10 20 -2 55 22 l38 25 -6 -38 c-4 -21
-13 -43 -22 -49 -17 -13 -10 -44 10 -44 34 0 53 94 36 185 -9 49 -8 61 4 75
19 21 19 50 0 50 -8 0 -15 -4 -15 -8z"/>
<path d="M338 4893 c-35 -5 -37 -23 -3 -23 41 0 32 -30 -10 -31 -19 -1 -40 -2
-47 -3 -6 -1 -13 5 -15 12 -3 6 2 12 11 12 9 0 16 5 16 10 0 6 -13 10 -30 10
-16 0 -30 -2 -30 -5 0 -2 5 -27 11 -55 10 -49 29 -69 29 -31 0 21 19 31 56 31
18 0 23 -5 21 -21 -5 -45 20 -27 37 27 15 47 16 58 4 65 -7 5 -15 8 -18 7 -3
0 -17 -3 -32 -5z"/>
<path d="M180 4452 c0 -5 -6 -17 -14 -27 -12 -17 -16 -17 -30 -6 -23 19 -34 5
-13 -16 16 -16 15 -18 -5 -40 -29 -31 -14 -42 17 -13 l25 23 0 -27 c0 -20 -12
-41 -40 -68 -22 -22 -40 -42 -40 -44 0 -10 20 -2 55 22 l38 25 -6 -38 c-4 -21
-13 -43 -22 -49 -17 -13 -10 -44 10 -44 34 0 53 94 36 185 -9 49 -8 61 4 75
19 21 19 50 0 50 -8 0 -15 -4 -15 -8z"/>
<path d="M338 4443 c-35 -5 -37 -23 -3 -23 41 0 32 -30 -10 -31 -19 -1 -40 -2
-47 -3 -6 -1 -13 5 -15 12 -3 6 2 12 11 12 9 0 16 5 16 10 0 6 -13 10 -30 10
-16 0 -30 -2 -30 -5 0 -2 5 -27 11 -54 l11 -51 58 2 57 2 18 54 c14 45 15 56
3 63 -7 5 -15 8 -18 7 -3 0 -17 -3 -32 -5z m12 -82 c0 -11 -69 -25 -78 -16
-10 10 20 25 51 25 15 0 27 -4 27 -9z"/>
<path d="M180 4002 c0 -5 -6 -17 -14 -27 -12 -17 -16 -17 -30 -6 -23 19 -34 5
-13 -16 16 -16 15 -18 -5 -40 -29 -31 -14 -42 17 -13 l25 23 0 -27 c0 -20 -12
-41 -40 -68 -22 -22 -40 -42 -40 -44 0 -10 20 -2 55 22 l38 25 -6 -38 c-4 -21
-13 -43 -22 -49 -17 -13 -10 -44 10 -44 34 0 53 94 36 185 -9 49 -8 61 4 75
19 21 19 50 0 50 -8 0 -15 -4 -15 -8z"/>
<path d="M338 3993 c-35 -5 -37 -23 -3 -23 41 0 32 -30 -10 -31 -19 -1 -40 -2
-47 -3 -6 -1 -13 5 -15 12 -3 6 2 12 11 12 9 0 16 5 16 10 0 6 -13 10 -30 10
-16 0 -30 -2 -30 -5 0 -2 5 -27 11 -54 l11 -51 58 2 57 2 18 54 c14 45 15 56
3 63 -7 5 -15 8 -18 7 -3 0 -17 -3 -32 -5z m12 -82 c0 -11 -69 -25 -78 -16
-10 10 20 25 51 25 15 0 27 -4 27 -9z"/>
<path d="M278 3853 c-41 -3 -58 -8 -58 -18 0 -11 12 -13 53 -9 108 10 137 15
137 25 0 9 -15 9 -132 2z"/>
<path d="M180 3552 c0 -5 -6 -17 -14 -27 -12 -17 -16 -17 -30 -6 -23 19 -34 5
-13 -16 16 -16 15 -18 -5 -40 -29 -31 -14 -42 17 -13 l25 23 0 -27 c0 -20 -12
-41 -40 -68 -22 -22 -40 -42 -40 -44 0 -10 20 -2 55 22 l38 25 -6 -38 c-4 -21
-13 -43 -22 -49 -17 -13 -10 -44 10 -44 34 0 53 94 36 185 -9 49 -8 61 4 75
19 21 19 50 0 50 -8 0 -15 -4 -15 -8z"/>
<path d="M335 3540 c-16 -4 -47 -8 -67 -9 -21 0 -38 -3 -38 -6 0 -2 5 -27 11
-55 8 -39 15 -50 30 -50 10 0 19 -4 19 -10 0 -5 -16 -10 -35 -10 -25 0 -35 -4
-35 -15 0 -13 7 -15 36 -9 l36 7 -3 -73 c-3 -52 0 -74 9 -77 8 -3 12 7 12 34
0 21 3 54 6 75 6 34 9 36 50 43 59 8 58 28 -1 23 -32 -2 -45 1 -45 10 0 8 8
10 23 7 21 -6 25 0 41 51 15 47 16 58 4 65 -7 5 -15 8 -18 8 -3 -1 -18 -5 -35
-9z m25 -35 c0 -8 -9 -15 -20 -15 -11 0 -20 7 -20 15 0 8 9 15 20 15 11 0 20
-7 20 -15z m-70 -11 c0 -17 -22 -14 -28 4 -2 7 3 12 12 12 9 0 16 -7 16 -16z
m60 -34 c0 -5 -7 -10 -15 -10 -8 0 -15 5 -15 10 0 6 7 10 15 10 8 0 15 -4 15
-10z m-55 -10 c-3 -5 -10 -10 -16 -10 -5 0 -9 5 -9 10 0 6 7 10 16 10 8 0 12
-4 9 -10z"/>
<path d="M180 3102 c0 -5 -6 -17 -14 -27 -12 -17 -16 -17 -30 -6 -23 19 -34 5
-13 -16 16 -16 15 -18 -5 -40 -29 -31 -14 -42 17 -13 l25 23 0 -27 c0 -20 -12
-41 -40 -68 -22 -22 -40 -42 -40 -44 0 -10 20 -2 55 22 l38 25 -6 -38 c-4 -21
-13 -43 -22 -49 -17 -13 -10 -44 10 -44 34 0 53 94 36 185 -9 49 -8 61 4 75
19 21 19 50 0 50 -8 0 -15 -4 -15 -8z"/>
<path d="M335 3090 c-16 -4 -47 -8 -67 -9 -21 0 -38 -3 -38 -6 0 -2 5 -27 11
-55 8 -39 15 -50 30 -50 10 0 19 -4 19 -10 0 -5 -16 -10 -35 -10 -25 0 -35 -4
-35 -16 0 -12 7 -14 33 -9 l32 7 -37 -39 c-21 -21 -38 -42 -38 -46 0 -14 19
-7 50 19 l31 26 -3 -52 c-2 -36 1 -54 10 -57 8 -3 12 7 12 34 0 21 3 54 6 75
6 34 9 36 50 43 59 8 58 28 -1 23 -32 -2 -45 1 -45 10 0 8 8 10 23 7 21 -6 25
0 41 51 15 47 16 58 4 65 -7 5 -15 8 -18 8 -3 -1 -18 -5 -35 -9z m25 -35 c0
-8 -9 -15 -20 -15 -11 0 -20 7 -20 15 0 8 9 15 20 15 11 0 20 -7 20 -15z m-70
-11 c0 -17 -22 -14 -28 4 -2 7 3 12 12 12 9 0 16 -7 16 -16z m60 -34 c0 -5 -7
-10 -15 -10 -8 0 -15 5 -15 10 0 6 7 10 15 10 8 0 15 -4 15 -10z m-55 -10 c-3
-5 -10 -10 -16 -10 -5 0 -9 5 -9 10 0 6 7 10 16 10 8 0 12 -4 9 -10z"/>
<path d="M180 2652 c0 -5 -6 -17 -14 -27 -12 -17 -16 -17 -30 -6 -23 19 -34 5
-13 -16 16 -16 15 -18 -5 -40 -29 -31 -14 -42 17 -13 l25 23 0 -27 c0 -20 -12
-41 -40 -68 -22 -22 -40 -42 -40 -44 0 -10 20 -2 55 22 l38 25 -6 -38 c-4 -21
-13 -43 -22 -49 -17 -13 -10 -44 10 -44 34 0 53 94 36 185 -9 49 -8 61 4 75
19 21 19 50 0 50 -8 0 -15 -4 -15 -8z"/>
<path d="M335 2640 c-16 -4 -47 -8 -67 -9 -21 0 -38 -3 -38 -6 0 -2 5 -27 11
-55 8 -39 15 -50 30 -50 10 0 19 -4 19 -10 0 -5 -16 -10 -35 -10 -25 0 -35 -4
-35 -16 0 -12 7 -14 33 -9 l32 7 -37 -39 c-21 -21 -38 -42 -38 -46 0 -14 19
-7 50 19 l31 26 -3 -52 c-2 -36 1 -54 10 -57 8 -3 12 8 12 39 0 24 3 53 6 65
6 21 8 20 35 -17 23 -31 36 -40 59 -40 33 0 40 15 12 24 -10 4 -33 22 -51 40
l-34 35 37 6 c52 10 45 28 -9 23 -32 -2 -45 1 -45 10 0 8 8 10 23 7 21 -6 25
0 41 51 15 47 16 58 4 65 -7 5 -15 8 -18 8 -3 -1 -18 -5 -35 -9z m25 -35 c0
-8 -9 -15 -20 -15 -11 0 -20 7 -20 15 0 8 9 15 20 15 11 0 20 -7 20 -15z m-70
-11 c0 -17 -22 -14 -28 4 -2 7 3 12 12 12 9 0 16 -7 16 -16z m60 -34 c0 -5 -7
-10 -15 -10 -8 0 -15 5 -15 10 0 6 7 10 15 10 8 0 15 -4 15 -10z m-55 -10 c-3
-5 -10 -10 -16 -10 -5 0 -9 5 -9 10 0 6 7 10 16 10 8 0 12 -4 9 -10z"/>
</g>
</svg>
