<?xml version="1.0" standalone="no"?>
<!DOCTYPE svg PUBLIC "-//W3C//DTD SVG 20010904//EN"
 "http://www.w3.org/TR/2001/REC-SVG-20010904/DTD/svg10.dtd">
<svg version="1.0" xmlns="http://www.w3.org/2000/svg"
 width="50.000000pt" height="725.000000pt" viewBox="0 0 50.000000 725.000000"
 preserveAspectRatio="xMidYMid meet">
<metadata>
Created by potrace 1.16, written by Peter Selinger 2001-2019
</metadata>
<g transform="translate(0.000000,725.000000) scale(0.100000,-0.100000)"
fill="#000000" stroke="none">
<path d="M172 7126 c-6 -13 -25 -40 -43 -60 -17 -20 -29 -39 -26 -42 16 -16
124 96 112 116 -11 17 -31 11 -43 -14z"/>
<path d="M171 6674 c-10 -22 -14 -24 -26 -14 -20 17 -31 5 -15 -15 11 -13 9
-20 -10 -40 -29 -30 -21 -42 13 -20 23 14 25 14 31 0 19 -50 -2 -149 -29 -139
-18 7 -19 0 -5 -27 6 -10 17 -19 25 -19 27 0 37 40 34 140 -3 84 -1 101 15
118 18 21 15 42 -8 42 -7 0 -18 -12 -25 -26z"/>
<path d="M171 6224 c-10 -22 -14 -24 -26 -14 -20 17 -31 5 -15 -15 11 -13 9
-20 -10 -40 -29 -31 -21 -42 14 -20 39 26 34 -2 -9 -52 -19 -23 -35 -44 -35
-47 0 -13 20 -5 49 20 29 24 31 25 31 6 0 -38 -18 -72 -35 -66 -18 7 -19 0 -5
-27 6 -10 17 -19 25 -19 27 0 37 40 34 140 -3 84 -1 101 15 118 18 21 15 42
-8 42 -7 0 -18 -12 -25 -26z"/>
<path d="M171 5774 c-10 -22 -14 -24 -26 -14 -20 17 -31 5 -15 -15 11 -13 9
-20 -10 -40 -29 -31 -21 -42 14 -20 39 26 34 -2 -9 -52 -19 -23 -35 -44 -35
-47 0 -13 20 -5 49 20 29 24 31 25 31 6 0 -38 -18 -72 -35 -66 -18 7 -19 0 -5
-27 6 -10 17 -19 25 -19 27 0 37 40 34 140 -3 84 -1 101 15 118 18 21 15 42
-8 42 -7 0 -18 -12 -25 -26z"/>
<path d="M233 5703 c-40 -8 -26 -26 15 -19 20 3 43 6 50 6 6 0 12 5 12 10 0
10 -34 11 -77 3z"/>
<path d="M171 5324 c-10 -22 -14 -24 -26 -14 -20 17 -31 5 -15 -15 11 -13 9
-20 -10 -40 -29 -31 -21 -42 14 -20 39 26 34 -2 -9 -52 -19 -23 -35 -44 -35
-47 0 -13 20 -5 49 20 29 24 31 25 31 6 0 -38 -18 -72 -35 -66 -18 7 -19 0 -5
-27 6 -10 17 -19 25 -19 27 0 37 40 34 140 -3 84 -1 101 15 118 18 21 15 42
-8 42 -7 0 -18 -12 -25 -26z"/>
<path d="M250 5305 c0 -38 -4 -48 -20 -52 -23 -6 -27 -23 -5 -23 9 0 15 -10
15 -26 0 -34 24 -26 28 9 2 19 9 27 23 27 10 0 19 5 19 10 0 6 -7 10 -16 10
-12 0 -15 9 -12 42 2 34 -1 43 -14 46 -15 3 -18 -4 -18 -43z"/>
<path d="M171 4874 c-10 -22 -14 -24 -26 -14 -20 17 -31 5 -15 -15 11 -13 9
-20 -10 -40 -29 -31 -21 -42 14 -20 39 26 34 -2 -9 -52 -19 -23 -35 -44 -35
-47 0 -13 20 -5 49 20 29 24 31 25 31 6 0 -38 -18 -72 -35 -66 -18 7 -19 0 -5
-27 6 -10 17 -19 25 -19 27 0 37 40 34 140 -3 84 -1 101 15 118 18 21 15 42
-8 42 -7 0 -18 -12 -25 -26z"/>
<path d="M250 4855 c0 -38 -4 -48 -20 -52 -23 -6 -27 -23 -5 -23 9 0 15 -10
15 -26 0 -34 24 -26 28 9 2 19 9 27 23 27 10 0 19 5 19 10 0 6 -7 10 -16 10
-12 0 -15 9 -12 42 2 34 -1 43 -14 46 -15 3 -18 -4 -18 -43z"/>
<path d="M204 4714 c3 -9 6 -24 6 -35 0 -10 5 -19 10 -19 6 0 10 16 10 35 0
25 -4 35 -16 35 -11 0 -14 -5 -10 -16z"/>
<path d="M171 4424 c-10 -22 -14 -24 -26 -14 -20 17 -31 5 -15 -15 11 -13 9
-20 -10 -40 -29 -31 -21 -42 14 -20 39 26 34 -2 -9 -52 -19 -23 -35 -44 -35
-47 0 -13 20 -5 49 20 29 24 31 25 31 6 0 -38 -18 -72 -35 -66 -18 7 -19 0 -5
-27 6 -10 17 -19 25 -19 27 0 37 40 34 140 -3 84 -1 101 15 118 18 21 15 42
-8 42 -7 0 -18 -12 -25 -26z"/>
<path d="M250 4405 c0 -38 -4 -48 -20 -52 -23 -6 -27 -23 -5 -23 9 0 15 -9 15
-25 0 -19 -5 -25 -21 -25 -15 0 -19 -4 -15 -16 3 -9 6 -24 6 -35 0 -29 18 -23
22 8 4 34 38 46 38 14 0 -26 16 -27 30 -2 15 29 12 41 -10 41 -15 0 -20 7 -20
25 0 18 5 25 20 25 11 0 20 5 20 10 0 6 -7 10 -16 10 -12 0 -15 9 -12 42 2 34
-1 43 -14 46 -15 3 -18 -4 -18 -43z"/>
<path d="M171 3974 c-10 -22 -14 -24 -26 -14 -20 17 -31 5 -15 -15 11 -13 9
-20 -10 -40 -29 -31 -21 -42 14 -20 39 26 34 -2 -9 -52 -19 -23 -35 -44 -35
-47 0 -13 20 -5 49 20 29 24 31 25 31 6 0 -38 -18 -72 -35 -66 -18 7 -19 0 -5
-27 6 -10 17 -19 25 -19 27 0 37 40 34 140 -3 84 -1 101 15 118 18 21 15 42
-8 42 -7 0 -18 -12 -25 -26z"/>
<path d="M250 3955 c0 -38 -4 -48 -20 -52 -23 -6 -27 -23 -5 -23 9 0 15 -9 15
-25 0 -18 -5 -25 -20 -25 -17 0 -19 -5 -13 -32 8 -42 5 -40 46 -33 23 5 38 15
46 31 16 35 14 44 -9 44 -15 0 -20 7 -20 25 0 18 5 25 20 25 11 0 20 5 20 10
0 6 -7 10 -16 10 -12 0 -15 9 -12 42 2 34 -1 43 -14 46 -15 3 -18 -4 -18 -43z
m20 -149 c0 -14 -29 -31 -38 -22 -2 3 -2 12 1 21 8 19 37 20 37 1z"/>
<path d="M171 3524 c-10 -22 -14 -24 -26 -14 -20 17 -31 5 -15 -15 11 -13 9
-20 -10 -40 -29 -31 -21 -42 14 -20 39 26 34 -2 -9 -52 -19 -23 -35 -44 -35
-47 0 -13 20 -5 49 20 29 24 31 25 31 6 0 -38 -18 -72 -35 -66 -18 7 -19 0 -5
-27 6 -10 17 -19 25 -19 27 0 37 40 34 140 -3 84 -1 101 15 118 18 21 15 42
-8 42 -7 0 -18 -12 -25 -26z"/>
<path d="M250 3505 c0 -38 -4 -48 -20 -52 -23 -6 -27 -23 -5 -23 9 0 15 -9 15
-25 0 -18 -5 -25 -20 -25 -17 0 -19 -5 -13 -32 8 -42 5 -40 46 -33 23 5 38 15
46 31 16 35 14 44 -9 44 -15 0 -20 7 -20 25 0 18 5 25 20 25 11 0 20 5 20 10
0 6 -7 10 -16 10 -12 0 -15 9 -12 42 2 34 -1 43 -14 46 -15 3 -18 -4 -18 -43z
m20 -149 c0 -14 -29 -31 -38 -22 -2 3 -2 12 1 21 8 19 37 20 37 1z"/>
<path d="M318 3446 c3 -69 0 -92 -17 -131 -24 -54 -19 -72 10 -37 28 35 40 93
37 175 -2 54 -7 72 -18 75 -13 2 -14 -11 -12 -82z"/>
<path d="M171 3074 c-10 -22 -14 -24 -26 -14 -20 17 -31 5 -15 -15 11 -13 9
-20 -10 -40 -29 -31 -21 -42 14 -20 39 26 34 -2 -9 -52 -19 -23 -35 -44 -35
-47 0 -13 20 -5 49 20 29 24 31 25 31 6 0 -38 -18 -72 -35 -66 -18 7 -19 0 -5
-27 6 -10 17 -19 25 -19 27 0 37 40 34 140 -3 84 -1 101 15 118 18 21 15 42
-8 42 -7 0 -18 -12 -25 -26z"/>
<path d="M250 3055 c0 -38 -4 -48 -20 -52 -23 -6 -27 -23 -5 -23 9 0 15 -9 15
-25 0 -18 -5 -25 -20 -25 -17 0 -19 -5 -13 -32 8 -42 5 -40 46 -33 23 5 38 15
46 31 16 35 14 44 -9 44 -15 0 -20 7 -20 25 0 18 5 25 20 25 11 0 20 5 20 10
0 6 -7 10 -16 10 -12 0 -15 9 -12 42 2 34 -1 43 -14 46 -15 3 -18 -4 -18 -43z
m20 -149 c0 -14 -29 -31 -38 -22 -2 3 -2 12 1 21 8 19 37 20 37 1z"/>
<path d="M387 3084 c-3 -3 -21 -6 -39 -6 l-33 0 3 -83 c3 -68 0 -91 -17 -130
-21 -48 -22 -63 -2 -50 25 15 45 75 50 155 5 76 8 85 26 85 18 0 20 -8 23 -90
3 -106 -2 -137 -23 -129 -21 8 -19 -10 3 -29 45 -41 52 -20 52 143 0 107 -3
129 -16 134 -19 7 -19 7 -27 0z"/>
<path d="M171 2624 c-10 -22 -14 -24 -26 -14 -20 17 -31 5 -15 -15 11 -13 9
-20 -10 -40 -29 -31 -21 -42 14 -20 39 26 34 -2 -9 -52 -19 -23 -35 -44 -35
-47 0 -13 20 -5 49 20 29 24 31 25 31 6 0 -38 -18 -72 -35 -66 -18 7 -19 0 -5
-27 6 -10 17 -19 25 -19 27 0 37 40 34 140 -3 84 -1 101 15 118 18 21 15 42
-8 42 -7 0 -18 -12 -25 -26z"/>
<path d="M250 2605 c0 -38 -4 -48 -20 -52 -23 -6 -27 -23 -5 -23 9 0 15 -9 15
-25 0 -18 -5 -25 -20 -25 -17 0 -19 -5 -13 -32 8 -42 5 -40 46 -33 23 5 38 15
46 31 16 35 14 44 -9 44 -15 0 -20 7 -20 25 0 18 5 25 20 25 11 0 20 5 20 10
0 6 -7 10 -16 10 -12 0 -15 9 -12 42 2 34 -1 43 -14 46 -15 3 -18 -4 -18 -43z
m20 -149 c0 -14 -29 -31 -38 -22 -2 3 -2 12 1 21 8 19 37 20 37 1z"/>
<path d="M387 2634 c-3 -3 -21 -6 -39 -6 l-33 0 3 -83 c3 -68 0 -91 -17 -130
-24 -54 -19 -72 10 -37 22 27 39 84 39 129 0 30 1 31 25 20 22 -11 25 -18 25
-64 0 -62 -7 -83 -26 -76 -20 7 -17 -11 4 -30 45 -41 52 -20 52 143 0 107 -3
129 -16 134 -19 7 -19 7 -27 0z m11 -58 c3 -23 0 -28 -13 -22 -9 3 -21 6 -26
6 -11 0 -12 33 -2 44 15 15 38 -1 41 -28z"/>
<path d="M171 2174 c-10 -22 -14 -24 -26 -14 -20 17 -31 5 -15 -15 11 -13 9
-20 -10 -40 -29 -31 -21 -42 14 -20 39 26 34 -2 -9 -52 -19 -23 -35 -44 -35
-47 0 -13 20 -5 49 20 29 24 31 25 31 6 0 -38 -18 -72 -35 -66 -18 7 -19 0 -5
-27 6 -10 17 -19 25 -19 27 0 37 40 34 140 -3 84 -1 101 15 118 18 21 15 42
-8 42 -7 0 -18 -12 -25 -26z"/>
<path d="M250 2155 c0 -38 -4 -48 -20 -52 -23 -6 -27 -23 -5 -23 9 0 15 -9 15
-25 0 -18 -5 -25 -20 -25 -17 0 -19 -5 -13 -32 8 -42 5 -40 46 -33 23 5 38 15
46 31 16 35 14 44 -9 44 -15 0 -20 7 -20 25 0 18 5 25 20 25 11 0 20 5 20 10
0 6 -7 10 -16 10 -12 0 -15 9 -12 42 2 34 -1 43 -14 46 -15 3 -18 -4 -18 -43z
m20 -149 c0 -14 -29 -31 -38 -22 -2 3 -2 12 1 21 8 19 37 20 37 1z"/>
<path d="M387 2184 c-3 -3 -21 -6 -39 -6 l-33 0 3 -83 c3 -68 0 -91 -17 -130
-12 -27 -19 -50 -16 -53 9 -9 34 20 47 54 6 19 16 34 22 34 5 0 18 7 28 17 17
15 18 14 18 -20 0 -47 -9 -67 -26 -60 -20 7 -17 -11 4 -30 45 -41 52 -20 52
143 0 107 -3 129 -16 134 -19 7 -19 7 -27 0z m11 -58 c3 -23 0 -28 -13 -22 -9
3 -21 6 -26 6 -11 0 -12 33 -2 44 15 15 38 -1 41 -28z m2 -67 c0 -3 -11 -11
-25 -17 -24 -11 -25 -10 -25 17 0 27 1 28 25 18 14 -7 25 -15 25 -18z"/>
</g>
</svg>
