<?xml version="1.0" standalone="no"?>
<!DOCTYPE svg PUBLIC "-//W3C//DTD SVG 20010904//EN"
 "http://www.w3.org/TR/2001/REC-SVG-20010904/DTD/svg10.dtd">
<svg version="1.0" xmlns="http://www.w3.org/2000/svg"
 width="50.000000pt" height="725.000000pt" viewBox="0 0 50.000000 725.000000"
 preserveAspectRatio="xMidYMid meet">
<metadata>
Created by potrace 1.16, written by Peter Selinger 2001-2019
</metadata>
<g transform="translate(0.000000,725.000000) scale(0.100000,-0.100000)"
fill="#000000" stroke="none">
<path d="M180 7147 c0 -8 -18 -38 -41 -67 -22 -28 -38 -54 -35 -58 12 -11 107
92 104 112 -4 23 -28 34 -28 13z"/>
<path d="M180 6698 c0 -29 -16 -41 -40 -28 -29 16 -38 5 -15 -20 18 -20 18
-21 -5 -45 -31 -33 -17 -45 15 -15 l25 23 0 -79 c0 -86 -8 -108 -33 -98 -23 9
-21 -9 3 -31 20 -18 22 -18 38 -1 14 14 17 36 17 125 1 74 5 114 14 125 7 8
11 23 9 32 -4 21 -28 31 -28 12z"/>
<path d="M180 6248 c0 -29 -16 -41 -40 -28 -29 16 -38 5 -15 -20 18 -20 18
-21 -5 -45 -31 -33 -17 -45 15 -15 24 22 25 22 25 4 0 -22 -38 -78 -67 -99
-10 -7 -15 -16 -11 -20 7 -8 40 8 62 31 15 14 16 12 16 -18 0 -42 -12 -60 -33
-52 -23 9 -21 -9 3 -31 20 -18 22 -18 38 -1 14 14 17 36 17 125 1 74 5 114 14
125 7 8 11 23 9 32 -4 21 -28 31 -28 12z"/>
<path d="M180 5798 c0 -29 -16 -41 -40 -28 -29 16 -38 5 -15 -20 18 -20 18
-21 -5 -45 -31 -33 -17 -45 15 -15 24 22 25 22 25 4 0 -22 -38 -78 -67 -99
-10 -7 -15 -16 -11 -20 7 -8 40 8 62 31 15 14 16 12 16 -18 0 -42 -12 -60 -33
-52 -23 9 -21 -9 3 -31 20 -18 22 -18 38 -1 14 14 17 36 17 125 1 74 5 114 14
125 7 8 11 23 9 32 -4 21 -28 31 -28 12z"/>
<path d="M246 5753 c6 -47 18 -72 29 -61 10 10 -10 101 -23 106 -9 3 -10 -9
-6 -45z"/>
<path d="M180 5348 c0 -29 -16 -41 -40 -28 -29 16 -38 5 -15 -20 18 -20 18
-21 -5 -45 -31 -33 -17 -45 15 -15 24 22 25 22 25 4 0 -22 -38 -78 -67 -99
-10 -7 -15 -16 -11 -20 7 -8 40 8 62 31 15 14 16 12 16 -18 0 -42 -12 -60 -33
-52 -23 9 -21 -9 3 -31 20 -18 22 -18 38 -1 14 14 17 36 17 125 1 74 5 114 14
125 7 8 11 23 9 32 -4 21 -28 31 -28 12z"/>
<path d="M330 5351 c0 -6 4 -12 9 -15 5 -3 7 -25 4 -47 -5 -33 -3 -41 8 -37
14 5 33 84 23 99 -7 12 -44 11 -44 0z"/>
<path d="M246 5305 c8 -54 12 -65 24 -65 6 0 9 18 8 43 -3 37 0 42 20 45 38 6
24 21 -18 19 l-40 -1 6 -41z"/>
<path d="M180 4898 c0 -29 -16 -41 -40 -28 -29 16 -38 5 -15 -20 18 -20 18
-21 -5 -45 -31 -33 -17 -45 15 -15 24 22 25 22 25 4 0 -22 -38 -78 -67 -99
-10 -7 -15 -16 -11 -20 7 -8 40 8 62 31 15 14 16 12 16 -18 0 -42 -12 -60 -33
-52 -23 9 -21 -9 3 -31 20 -18 22 -18 38 -1 14 14 17 36 17 125 1 74 5 114 14
125 7 8 11 23 9 32 -4 21 -28 31 -28 12z"/>
<path d="M330 4902 c0 -4 6 -14 12 -20 10 -10 8 -14 -10 -18 -25 -7 -30 -24
-7 -24 9 0 15 -9 15 -21 0 -12 5 -19 12 -17 13 5 31 85 22 99 -7 11 -44 12
-44 1z"/>
<path d="M246 4855 c8 -54 12 -65 24 -65 6 0 9 18 8 43 -3 37 0 42 20 45 38 6
24 21 -18 19 l-40 -1 6 -41z"/>
<path d="M180 4448 c0 -29 -16 -41 -40 -28 -29 16 -38 5 -15 -20 18 -20 18
-21 -5 -45 -31 -33 -17 -45 15 -15 24 22 25 22 25 4 0 -22 -38 -78 -67 -99
-10 -7 -15 -16 -11 -20 7 -8 40 8 62 31 15 14 16 12 16 -18 0 -42 -12 -60 -33
-52 -23 9 -21 -9 3 -31 20 -18 22 -18 38 -1 14 14 17 36 17 125 1 74 5 114 14
125 7 8 11 23 9 32 -4 21 -28 31 -28 12z"/>
<path d="M330 4451 c0 -6 5 -13 10 -16 17 -10 1 -25 -26 -25 -22 0 -25 -4 -22
-27 4 -32 28 -44 28 -14 0 12 5 21 10 21 6 0 10 -9 10 -21 0 -12 5 -19 12 -17
13 5 31 85 22 99 -7 12 -44 11 -44 0z"/>
<path d="M246 4405 c8 -54 12 -65 24 -65 6 0 9 18 8 43 -3 37 0 42 20 45 38 6
24 21 -18 19 l-40 -1 6 -41z"/>
<path d="M180 3998 c0 -29 -16 -41 -40 -28 -29 16 -38 5 -15 -20 18 -20 18
-21 -5 -45 -31 -33 -17 -45 15 -15 24 22 25 22 25 4 0 -22 -38 -78 -67 -99
-10 -7 -15 -16 -11 -20 7 -8 40 8 62 31 15 14 16 12 16 -18 0 -42 -12 -60 -33
-52 -23 9 -21 -9 3 -31 19 -17 22 -18 37 -2 11 11 18 39 21 82 3 39 8 62 14
59 6 -4 14 0 19 7 11 18 12 59 1 59 -5 0 -13 -10 -19 -22 -10 -22 -10 -22 -18
10 -5 25 -3 38 10 52 9 10 15 26 13 36 -4 21 -28 31 -28 12z"/>
<path d="M330 4001 c0 -6 5 -13 10 -16 17 -10 1 -25 -26 -25 -22 0 -25 -4 -22
-27 4 -32 28 -44 28 -14 0 12 5 21 10 21 6 0 10 -9 10 -21 0 -12 5 -19 12 -17
13 5 31 85 22 99 -7 12 -44 11 -44 0z"/>
<path d="M246 3955 c8 -54 12 -65 24 -65 6 0 9 18 8 43 -3 37 0 42 20 45 38 6
24 21 -18 19 l-40 -1 6 -41z"/>
<path d="M180 3548 c0 -29 -16 -41 -40 -28 -29 16 -38 5 -15 -20 18 -20 18
-21 -5 -45 -31 -33 -17 -45 15 -15 24 22 25 22 25 4 0 -22 -38 -78 -67 -99
-10 -7 -15 -16 -11 -20 7 -8 40 8 62 31 15 14 16 12 16 -18 0 -42 -12 -60 -33
-52 -23 9 -21 -9 3 -31 19 -17 22 -18 37 -2 11 11 18 39 21 81 3 48 8 63 17
60 7 -3 16 4 20 15 4 14 15 21 31 21 24 0 25 3 22 48 -3 42 -1 47 20 50 38 6
24 21 -17 19 l-40 -1 6 -49 c6 -46 5 -49 -14 -43 -14 5 -23 0 -30 -16 -10 -22
-10 -22 -18 10 -5 25 -3 38 10 52 9 10 15 26 13 36 -4 21 -28 31 -28 12z"/>
<path d="M330 3551 c0 -5 5 -13 10 -16 16 -10 1 -25 -26 -25 -21 0 -24 -5 -24
-35 0 -33 2 -35 34 -35 42 0 43 2 47 65 4 45 2 50 -18 53 -13 2 -23 -1 -23 -7z
m10 -76 c0 -8 -4 -15 -10 -15 -5 0 -10 7 -10 15 0 8 5 15 10 15 6 0 10 -7 10
-15z"/>
<path d="M380 3460 c0 -5 4 -10 10 -10 5 0 7 -7 4 -15 -6 -16 4 -19 30 -9 33
13 11 44 -30 44 -8 0 -14 -4 -14 -10z"/>
<path d="M180 3098 c0 -29 -16 -41 -40 -28 -29 16 -38 5 -15 -20 18 -20 18
-21 -5 -45 -31 -33 -17 -45 15 -15 24 22 25 22 25 4 0 -22 -38 -78 -67 -99
-10 -7 -15 -16 -11 -20 7 -8 40 8 62 31 15 14 16 12 16 -18 0 -42 -12 -60 -33
-52 -23 9 -21 -9 3 -31 19 -17 22 -18 37 -2 11 11 18 39 21 81 3 48 8 63 17
60 7 -3 16 4 20 15 4 14 15 21 31 21 24 0 25 3 22 48 -3 42 -1 47 20 50 38 6
24 21 -17 19 l-40 -1 6 -49 c6 -46 5 -49 -14 -43 -14 5 -23 0 -30 -16 -10 -22
-10 -22 -18 10 -5 25 -3 38 10 52 9 10 15 26 13 36 -4 21 -28 31 -28 12z"/>
<path d="M330 3101 c0 -5 5 -13 10 -16 16 -10 1 -25 -26 -25 -21 0 -24 -5 -24
-35 0 -33 2 -35 34 -35 42 0 43 2 47 65 4 45 2 50 -18 53 -13 2 -23 -1 -23 -7z
m10 -76 c0 -8 -4 -15 -10 -15 -5 0 -10 7 -10 15 0 8 5 15 10 15 6 0 10 -7 10
-15z"/>
<path d="M380 3010 c0 -5 4 -10 10 -10 5 0 7 -7 4 -15 -6 -16 4 -19 30 -9 33
13 11 44 -30 44 -8 0 -14 -4 -14 -10z"/>
<path d="M254 2905 c-1 -33 -8 -65 -19 -81 -22 -33 -11 -44 17 -16 27 27 41
152 17 152 -10 0 -14 -16 -15 -55z"/>
<path d="M180 2648 c0 -29 -16 -41 -40 -28 -29 16 -38 5 -15 -20 18 -20 18
-21 -5 -45 -31 -33 -17 -45 15 -15 24 22 25 22 25 4 0 -22 -38 -78 -67 -99
-10 -7 -15 -16 -11 -20 7 -8 40 8 62 31 15 14 16 12 16 -18 0 -42 -12 -60 -33
-52 -23 9 -21 -9 3 -31 19 -17 22 -18 37 -2 11 11 18 39 21 81 3 48 8 63 17
60 7 -3 16 4 20 15 4 14 15 21 31 21 24 0 25 3 22 48 -3 42 -1 47 20 50 38 6
24 21 -17 19 l-40 -1 6 -49 c6 -46 5 -49 -14 -43 -14 5 -23 0 -30 -16 -10 -22
-10 -22 -18 10 -5 25 -3 38 10 52 9 10 15 26 13 36 -4 21 -28 31 -28 12z"/>
<path d="M330 2651 c0 -5 5 -13 10 -16 16 -10 1 -25 -26 -25 -21 0 -24 -5 -24
-35 0 -33 2 -35 34 -35 42 0 43 2 47 65 4 45 2 50 -18 53 -13 2 -23 -1 -23 -7z
m10 -76 c0 -8 -4 -15 -10 -15 -5 0 -10 7 -10 15 0 8 5 15 10 15 6 0 10 -7 10
-15z"/>
<path d="M380 2560 c0 -5 4 -10 10 -10 5 0 7 -7 4 -15 -6 -16 4 -19 30 -9 33
13 11 44 -30 44 -8 0 -14 -4 -14 -10z"/>
<path d="M300 2510 c0 -5 9 -10 20 -10 18 0 20 -7 20 -60 0 -46 -4 -61 -17
-69 -17 -9 -17 -11 -1 -28 29 -29 42 -2 46 92 l3 85 -36 0 c-19 0 -35 -4 -35
-10z"/>
<path d="M254 2455 c-1 -33 -8 -65 -19 -81 -9 -14 -14 -28 -11 -31 11 -12 46
30 50 61 15 101 15 106 -2 106 -14 0 -17 -11 -18 -55z"/>
<path d="M180 2198 c0 -29 -16 -41 -40 -28 -29 16 -38 5 -15 -20 18 -20 18
-21 -5 -45 -31 -33 -17 -45 15 -15 24 22 25 22 25 4 0 -22 -38 -78 -67 -99
-10 -7 -15 -16 -11 -20 7 -8 40 8 62 31 15 14 16 12 16 -18 0 -42 -12 -60 -33
-52 -23 9 -21 -9 3 -31 19 -17 22 -18 37 -2 11 11 18 39 21 81 3 48 8 63 17
60 7 -3 16 4 20 15 4 14 15 21 31 21 24 0 25 3 22 48 -3 42 -1 47 20 50 38 6
24 21 -17 19 l-40 -1 6 -49 c6 -46 5 -49 -14 -43 -14 5 -23 0 -30 -16 -10 -22
-10 -22 -18 10 -5 25 -3 38 10 52 9 10 15 26 13 36 -4 21 -28 31 -28 12z"/>
<path d="M330 2201 c0 -5 5 -13 10 -16 16 -10 1 -25 -26 -25 -21 0 -24 -5 -24
-35 0 -33 2 -35 34 -35 42 0 43 2 47 65 4 45 2 50 -18 53 -13 2 -23 -1 -23 -7z
m10 -76 c0 -8 -4 -15 -10 -15 -5 0 -10 7 -10 15 0 8 5 15 10 15 6 0 10 -7 10
-15z"/>
<path d="M380 2110 c0 -5 4 -10 10 -10 5 0 7 -7 4 -15 -6 -16 4 -19 30 -9 33
13 11 44 -30 44 -8 0 -14 -4 -14 -10z"/>
<path d="M300 2060 c0 -5 9 -10 20 -10 18 0 20 -7 20 -60 0 -46 -4 -61 -17
-69 -17 -9 -17 -11 -1 -28 29 -29 42 -2 46 92 l3 85 -36 0 c-19 0 -35 -4 -35
-10z"/>
<path d="M254 2005 c-1 -33 -8 -65 -19 -81 -21 -33 -11 -44 16 -17 11 11 23
39 26 62 4 30 9 39 16 32 15 -15 37 -14 37 3 0 8 -11 17 -25 20 -16 4 -22 11
-19 21 4 10 0 15 -12 15 -16 0 -19 -9 -20 -55z"/>
<path d="M180 1748 c0 -29 -16 -41 -40 -28 -29 16 -38 5 -15 -20 18 -20 18
-21 -5 -45 -31 -33 -17 -45 15 -15 24 22 25 22 25 4 0 -22 -38 -78 -67 -99
-10 -7 -15 -16 -11 -20 7 -8 40 8 62 31 15 14 16 12 16 -18 0 -42 -12 -60 -33
-52 -23 9 -21 -9 3 -31 19 -17 22 -18 37 -2 11 11 18 39 21 81 3 48 8 63 17
60 7 -3 16 4 20 15 4 14 15 21 31 21 24 0 25 3 22 48 -3 42 -1 47 20 50 38 6
24 21 -17 19 l-40 -1 6 -49 c6 -46 5 -49 -14 -43 -14 5 -23 0 -30 -16 -10 -22
-10 -22 -18 10 -5 25 -3 38 10 52 9 10 15 26 13 36 -4 21 -28 31 -28 12z"/>
<path d="M330 1751 c0 -5 5 -13 10 -16 16 -10 1 -25 -26 -25 -21 0 -24 -5 -24
-35 0 -33 2 -35 34 -35 42 0 43 2 47 65 4 45 2 50 -18 53 -13 2 -23 -1 -23 -7z
m10 -76 c0 -8 -4 -15 -10 -15 -5 0 -10 7 -10 15 0 8 5 15 10 15 6 0 10 -7 10
-15z"/>
<path d="M380 1660 c0 -5 4 -10 10 -10 5 0 7 -7 4 -15 -6 -16 4 -19 30 -9 33
13 11 44 -30 44 -8 0 -14 -4 -14 -10z"/>
<path d="M300 1610 c0 -5 9 -10 20 -10 16 0 20 -7 20 -30 0 -24 -6 -33 -26
-40 -34 -13 -34 -13 -34 12 0 17 3 19 12 10 16 -16 38 -15 38 2 0 8 -11 17
-25 20 -16 4 -22 11 -19 21 4 10 0 15 -12 15 -16 0 -19 -9 -20 -55 -1 -33 -8
-65 -19 -81 -9 -14 -14 -28 -11 -31 9 -9 46 28 46 44 0 8 5 11 10 8 6 -4 22 1
35 9 24 16 25 15 25 -3 0 -11 -8 -24 -17 -30 -17 -9 -17 -11 -1 -28 29 -29 42
-2 46 92 l3 85 -36 0 c-19 0 -35 -4 -35 -10z"/>
</g>
</svg>
