<?xml version="1.0" standalone="no"?>
<!DOCTYPE svg PUBLIC "-//W3C//DTD SVG 20010904//EN"
 "http://www.w3.org/TR/2001/REC-SVG-20010904/DTD/svg10.dtd">
<svg version="1.0" xmlns="http://www.w3.org/2000/svg"
 width="95.000000pt" height="725.000000pt" viewBox="0 0 95.000000 725.000000"
 preserveAspectRatio="xMidYMid meet">
<metadata>
Created by potrace 1.16, written by Peter Selinger 2001-2019
</metadata>
<g transform="translate(0.000000,725.000000) scale(0.100000,-0.100000)"
fill="#000000" stroke="none">
<path d="M293 7149 c5 -20 3 -21 -33 -16 -37 5 -39 3 -45 -25 -4 -16 -5 -32
-2 -35 9 -8 27 7 27 21 0 19 129 33 140 16 8 -13 50 -5 50 10 0 16 -34 28 -64
23 -20 -4 -31 -1 -38 11 -14 25 -42 21 -35 -5z"/>
<path d="M166 7125 c-4 -17 -11 -23 -22 -18 -12 4 -15 2 -12 -8 3 -8 -6 -26
-20 -41 -32 -35 -21 -48 17 -20 25 18 30 19 35 6 7 -18 -23 -64 -59 -93 -49
-37 -25 -43 29 -6 l36 24 0 -23 c0 -37 -10 -56 -31 -56 -24 0 -24 -12 1 -35
27 -24 46 -7 53 46 3 22 8 43 10 46 3 2 58 7 121 10 78 4 115 10 113 17 -2 6
-16 12 -30 14 -16 2 -25 8 -21 14 7 11 -14 58 -31 70 -6 5 -5 8 3 8 6 0 12 5
12 10 0 19 -29 10 -35 -11 -6 -17 -12 -20 -37 -15 -21 4 -28 2 -26 -7 3 -6 21
-13 40 -15 36 -3 50 -21 41 -49 -8 -23 -20 -13 -15 12 4 23 1 25 -32 25 -33 0
-36 -2 -30 -24 3 -13 1 -27 -5 -30 -7 -5 -11 3 -11 18 0 17 -6 26 -15 26 -11
0 -14 -7 -9 -25 5 -21 3 -25 -15 -25 -12 0 -21 2 -21 4 0 2 -5 27 -10 56 -8
44 -7 58 5 77 9 13 13 28 10 33 -11 18 -33 10 -39 -15z m154 -124 c0 -6 -4
-13 -10 -16 -5 -3 -10 1 -10 9 0 9 5 16 10 16 6 0 10 -4 10 -9z"/>
<path d="M620 7136 c0 -9 -19 -37 -41 -61 -43 -46 -47 -65 -11 -46 28 15 93
93 89 105 -6 18 -37 19 -37 2z"/>
<path d="M292 7088 c6 -18 28 -21 28 -4 0 9 -7 16 -16 16 -9 0 -14 -5 -12 -12z"/>
<path d="M237 7073 c-13 -12 -7 -33 8 -33 8 0 15 9 15 20 0 20 -11 26 -23 13z"/>
<path d="M267 6943 c-24 -3 -37 -9 -34 -16 2 -7 18 -11 35 -9 29 3 32 1 32
-27 0 -16 -5 -31 -11 -33 -16 -5 2 -39 20 -36 12 2 17 17 19 56 l3 52 35 0
c18 0 34 5 34 10 0 10 -55 11 -133 3z"/>
<path d="M616 6675 c-4 -17 -11 -23 -22 -18 -12 4 -15 2 -12 -8 3 -8 -6 -26
-20 -41 -32 -35 -21 -48 17 -20 35 26 41 17 41 -63 0 -66 -7 -85 -31 -85 -24
0 -24 -12 1 -35 15 -14 23 -15 34 -6 20 17 29 116 16 180 -8 45 -7 58 5 78 9
13 13 28 10 33 -11 18 -33 10 -39 -15z"/>
<path d="M616 6225 c-4 -17 -11 -23 -22 -18 -12 4 -15 2 -12 -8 3 -8 -6 -26
-20 -41 -32 -35 -21 -48 17 -20 25 18 30 19 35 6 7 -18 -23 -64 -59 -93 -49
-37 -25 -43 29 -6 l36 24 0 -23 c0 -37 -10 -56 -31 -56 -24 0 -24 -12 1 -35
15 -14 23 -15 34 -6 20 17 29 116 16 180 -8 45 -7 58 5 78 9 13 13 28 10 33
-11 18 -33 10 -39 -15z"/>
<path d="M740 5808 c0 -7 5 -20 10 -28 12 -19 35 2 27 24 -7 19 -37 21 -37 4z"/>
<path d="M616 5775 c-4 -17 -11 -23 -22 -18 -12 4 -15 2 -12 -8 3 -8 -6 -26
-20 -41 -32 -35 -21 -48 17 -20 25 18 30 19 35 6 7 -18 -23 -64 -59 -93 -49
-37 -25 -43 29 -6 l36 24 0 -23 c0 -37 -10 -56 -31 -56 -24 0 -24 -12 1 -35
15 -14 23 -15 34 -6 20 17 29 116 16 180 -8 45 -7 58 5 78 9 13 13 28 10 33
-11 18 -33 10 -39 -15z"/>
<path d="M740 5358 c0 -7 5 -20 10 -28 12 -19 35 2 27 24 -7 19 -37 21 -37 4z"/>
<path d="M616 5325 c-4 -17 -11 -23 -22 -18 -12 4 -15 2 -12 -8 3 -8 -6 -26
-20 -41 -32 -35 -21 -48 17 -20 25 18 30 19 35 6 7 -18 -23 -64 -59 -93 -49
-37 -25 -43 29 -6 l36 24 0 -23 c0 -37 -10 -56 -31 -56 -24 0 -24 -12 1 -35
15 -14 23 -15 34 -6 20 17 29 116 16 180 -8 45 -7 58 5 78 9 13 13 28 10 33
-11 18 -33 10 -39 -15z"/>
<path d="M665 5309 c-7 -33 -3 -45 14 -34 13 8 15 65 2 65 -5 0 -12 -14 -16
-31z"/>
<path d="M743 4899 c5 -20 3 -21 -33 -16 -37 5 -39 3 -45 -25 -4 -16 -5 -32
-2 -35 9 -8 27 7 27 21 0 19 129 33 140 16 8 -13 50 -5 50 10 0 16 -34 28 -64
23 -20 -4 -31 -1 -38 11 -14 25 -42 21 -35 -5z"/>
<path d="M616 4875 c-4 -17 -11 -23 -22 -18 -12 4 -15 2 -12 -8 3 -8 -6 -26
-20 -41 -32 -35 -21 -48 17 -20 25 18 30 19 35 6 7 -18 -23 -64 -59 -93 -49
-37 -25 -43 29 -6 l36 24 0 -23 c0 -37 -10 -56 -31 -56 -24 0 -24 -12 1 -35
15 -14 23 -15 34 -6 20 17 29 116 16 180 -8 45 -7 58 5 78 9 13 13 28 10 33
-11 18 -33 10 -39 -15z"/>
<path d="M743 4449 c5 -20 3 -21 -33 -16 -37 5 -39 3 -45 -25 -4 -16 -5 -32
-2 -35 9 -8 27 7 27 21 0 19 129 33 140 16 8 -13 50 -5 50 10 0 16 -34 28 -64
23 -20 -4 -31 -1 -38 11 -14 25 -42 21 -35 -5z"/>
<path d="M616 4425 c-4 -17 -11 -23 -22 -18 -12 4 -15 2 -12 -8 3 -8 -6 -26
-20 -41 -32 -35 -21 -48 17 -20 25 18 30 19 35 6 7 -18 -23 -64 -59 -93 -49
-37 -25 -43 29 -6 l36 24 0 -23 c0 -37 -10 -56 -31 -56 -24 0 -24 -12 1 -35
15 -14 23 -15 34 -6 20 17 29 116 16 180 -8 45 -7 58 5 78 9 13 13 28 10 33
-11 18 -33 10 -39 -15z"/>
<path d="M687 4373 c-13 -12 -7 -33 8 -33 8 0 15 9 15 20 0 20 -11 26 -23 13z"/>
<path d="M743 3999 c5 -20 3 -21 -33 -16 -37 5 -39 3 -45 -25 -4 -16 -5 -32
-2 -35 9 -8 27 7 27 21 0 19 129 33 140 16 8 -13 50 -5 50 10 0 16 -34 28 -64
23 -20 -4 -31 -1 -38 11 -14 25 -42 21 -35 -5z"/>
<path d="M616 3975 c-4 -17 -11 -23 -22 -18 -12 4 -15 2 -12 -8 3 -8 -6 -26
-20 -41 -32 -35 -21 -48 17 -20 25 18 30 19 35 6 7 -18 -23 -64 -59 -93 -49
-37 -25 -43 29 -6 l36 24 0 -23 c0 -37 -10 -56 -31 -56 -24 0 -24 -12 1 -35
15 -14 23 -15 34 -6 20 17 29 116 16 180 -8 45 -7 58 5 78 9 13 13 28 10 33
-11 18 -33 10 -39 -15z"/>
<path d="M687 3923 c-13 -12 -7 -33 8 -33 8 0 15 9 15 20 0 20 -11 26 -23 13z"/>
<path d="M780 3919 c0 -7 -11 -9 -31 -5 -22 4 -29 2 -27 -7 7 -18 98 -22 98
-4 0 8 -7 18 -16 21 -21 8 -24 8 -24 -5z"/>
<path d="M743 3549 c5 -20 3 -21 -33 -16 -37 5 -39 3 -45 -25 -4 -16 -5 -32
-2 -35 9 -8 27 7 27 21 0 19 129 33 140 16 8 -13 50 -5 50 10 0 16 -34 28 -64
23 -20 -4 -31 -1 -38 11 -14 25 -42 21 -35 -5z"/>
<path d="M616 3525 c-4 -17 -11 -23 -22 -18 -12 4 -15 2 -12 -8 3 -8 -6 -26
-20 -41 -32 -35 -21 -48 17 -20 25 18 30 19 35 6 7 -18 -23 -64 -59 -93 -49
-37 -25 -43 29 -6 l36 24 0 -23 c0 -37 -10 -56 -31 -56 -24 0 -24 -12 1 -35
15 -14 23 -15 34 -6 20 17 29 116 16 180 -8 45 -7 58 5 78 9 13 13 28 10 33
-11 18 -33 10 -39 -15z"/>
<path d="M742 3488 c6 -18 28 -21 28 -4 0 9 -7 16 -16 16 -9 0 -14 -5 -12 -12z"/>
<path d="M687 3473 c-13 -12 -7 -33 8 -33 8 0 15 9 15 20 0 20 -11 26 -23 13z"/>
<path d="M780 3469 c0 -7 -11 -9 -31 -5 -22 4 -29 2 -27 -7 7 -18 98 -22 98
-4 0 8 -7 18 -16 21 -21 8 -24 8 -24 -5z"/>
<path d="M743 3099 c5 -20 3 -21 -33 -16 -37 5 -39 3 -45 -25 -4 -16 -5 -32
-2 -35 9 -8 27 7 27 21 0 19 129 33 140 16 8 -13 50 -5 50 10 0 16 -34 28 -64
23 -20 -4 -31 -1 -38 11 -14 25 -42 21 -35 -5z"/>
<path d="M616 3075 c-4 -17 -11 -23 -22 -18 -12 4 -15 2 -12 -8 3 -8 -6 -26
-20 -41 -32 -35 -21 -48 17 -20 25 18 30 19 35 6 7 -18 -23 -64 -59 -93 -49
-37 -25 -43 29 -6 l36 24 0 -23 c0 -37 -10 -56 -31 -56 -24 0 -24 -12 1 -35
15 -14 23 -15 34 -6 20 17 29 116 16 180 -8 45 -7 58 5 78 9 13 13 28 10 33
-11 18 -33 10 -39 -15z"/>
<path d="M742 3038 c6 -18 28 -21 28 -4 0 9 -7 16 -16 16 -9 0 -14 -5 -12 -12z"/>
<path d="M785 3029 c-6 -17 -12 -20 -37 -15 -21 4 -28 2 -26 -7 3 -6 25 -13
51 -15 36 -2 47 0 47 12 0 8 -6 17 -12 19 -10 4 -10 6 0 6 17 1 15 21 -2 21
-8 0 -18 -9 -21 -21z"/>
<path d="M687 3023 c-13 -12 -7 -33 8 -33 8 0 15 9 15 20 0 20 -11 26 -23 13z"/>
<path d="M743 2649 c5 -20 3 -21 -33 -16 -37 5 -39 3 -45 -25 -4 -16 -5 -32
-2 -35 9 -8 27 7 27 21 0 19 129 33 140 16 8 -13 50 -5 50 10 0 16 -34 28 -64
23 -20 -4 -31 -1 -38 11 -14 25 -42 21 -35 -5z"/>
<path d="M616 2625 c-4 -17 -11 -23 -22 -18 -12 4 -15 2 -12 -8 3 -8 -6 -26
-20 -41 -32 -35 -21 -48 17 -20 25 18 30 19 35 6 7 -18 -23 -64 -59 -93 -49
-37 -25 -43 29 -6 l36 24 0 -23 c0 -37 -10 -56 -31 -56 -24 0 -24 -12 1 -35
15 -14 23 -15 34 -6 20 17 29 116 16 180 -8 45 -7 58 5 78 9 13 13 28 10 33
-11 18 -33 10 -39 -15z"/>
<path d="M742 2588 c6 -18 28 -21 28 -4 0 9 -7 16 -16 16 -9 0 -14 -5 -12 -12z"/>
<path d="M785 2579 c-6 -17 -12 -20 -37 -15 -21 4 -28 2 -26 -7 3 -6 25 -13
51 -15 36 -2 47 0 47 12 0 8 -6 17 -12 19 -10 4 -10 6 0 6 17 1 15 21 -2 21
-8 0 -18 -9 -21 -21z"/>
<path d="M687 2573 c-13 -12 -7 -33 8 -33 8 0 15 9 15 20 0 20 -11 26 -23 13z"/>
<path d="M684 2504 c3 -9 6 -22 6 -30 0 -8 5 -14 10 -14 6 0 10 14 10 30 0 21
-5 30 -16 30 -11 0 -14 -5 -10 -16z"/>
<path d="M743 2199 c5 -20 3 -21 -33 -16 -37 5 -39 3 -45 -25 -4 -16 -5 -32
-2 -35 9 -8 27 7 27 21 0 19 129 33 140 16 8 -13 50 -5 50 10 0 16 -34 28 -64
23 -20 -4 -31 -1 -38 11 -14 25 -42 21 -35 -5z"/>
<path d="M616 2175 c-4 -17 -11 -23 -22 -18 -12 4 -15 2 -12 -8 3 -8 -6 -26
-20 -41 -32 -35 -21 -48 17 -20 25 18 30 19 35 6 7 -18 -23 -64 -59 -93 -49
-37 -25 -43 29 -6 l36 24 0 -23 c0 -37 -10 -56 -31 -56 -24 0 -24 -12 1 -35
15 -14 23 -15 34 -6 20 17 29 116 16 180 -8 45 -7 58 5 78 9 13 13 28 10 33
-11 18 -33 10 -39 -15z"/>
<path d="M742 2138 c6 -18 28 -21 28 -4 0 9 -7 16 -16 16 -9 0 -14 -5 -12 -12z"/>
<path d="M785 2129 c-6 -17 -12 -20 -37 -15 -21 4 -28 2 -26 -7 3 -6 21 -13
41 -15 37 -3 42 -10 38 -54 -3 -25 16 -22 30 3 11 22 -2 64 -26 81 -6 5 -5 8
3 8 6 0 12 5 12 10 0 19 -29 10 -35 -11z"/>
<path d="M687 2123 c-13 -12 -7 -33 8 -33 8 0 15 9 15 20 0 20 -11 26 -23 13z"/>
<path d="M720 2070 c0 -5 14 -10 30 -10 17 0 30 5 30 10 0 6 -13 10 -30 10
-16 0 -30 -4 -30 -10z"/>
<path d="M684 2054 c3 -9 6 -22 6 -30 0 -8 5 -14 10 -14 6 0 10 14 10 30 0 21
-5 30 -16 30 -11 0 -14 -5 -10 -16z"/>
<path d="M743 1749 c5 -20 3 -21 -33 -16 -37 5 -39 3 -45 -25 -4 -16 -5 -32
-2 -35 9 -8 27 7 27 21 0 19 129 33 140 16 8 -13 50 -5 50 10 0 16 -34 28 -64
23 -20 -4 -31 -1 -38 11 -14 25 -42 21 -35 -5z"/>
<path d="M616 1725 c-4 -17 -11 -23 -22 -18 -12 4 -15 2 -12 -8 3 -8 -6 -26
-20 -41 -32 -35 -21 -48 17 -20 25 18 30 19 35 6 7 -18 -23 -64 -59 -93 -49
-37 -25 -43 29 -6 l36 24 0 -23 c0 -37 -10 -56 -31 -56 -24 0 -24 -12 1 -35
15 -14 23 -15 34 -6 20 17 29 116 16 180 -8 45 -7 58 5 78 9 13 13 28 10 33
-11 18 -33 10 -39 -15z"/>
<path d="M742 1688 c6 -18 28 -21 28 -4 0 9 -7 16 -16 16 -9 0 -14 -5 -12 -12z"/>
<path d="M785 1679 c-6 -17 -12 -20 -37 -15 -21 4 -28 2 -26 -7 3 -6 21 -13
41 -15 37 -3 42 -10 38 -54 -3 -25 16 -22 30 3 11 22 -2 64 -26 81 -6 5 -5 8
3 8 6 0 12 5 12 10 0 19 -29 10 -35 -11z"/>
<path d="M687 1673 c-13 -12 -7 -33 8 -33 8 0 15 9 15 20 0 20 -11 26 -23 13z"/>
<path d="M724 1614 c3 -9 6 -22 6 -30 0 -8 5 -14 10 -14 6 0 10 9 10 20 0 11
7 20 15 20 8 0 15 5 15 10 0 6 -14 10 -31 10 -24 0 -30 -3 -25 -16z"/>
<path d="M684 1604 c3 -9 6 -22 6 -30 0 -8 5 -14 10 -14 6 0 10 14 10 30 0 21
-5 30 -16 30 -11 0 -14 -5 -10 -16z"/>
<path d="M743 1299 c5 -20 3 -21 -33 -16 -37 5 -39 3 -45 -25 -4 -16 -5 -32
-2 -35 9 -8 27 7 27 21 0 19 129 33 140 16 8 -13 50 -5 50 10 0 16 -34 28 -64
23 -20 -4 -31 -1 -38 11 -14 25 -42 21 -35 -5z"/>
<path d="M616 1275 c-4 -17 -11 -23 -22 -18 -12 4 -15 2 -12 -8 3 -8 -6 -26
-20 -41 -32 -35 -21 -48 17 -20 25 18 30 19 35 6 7 -18 -23 -64 -59 -93 -49
-37 -25 -43 29 -6 l36 24 0 -23 c0 -37 -10 -56 -31 -56 -24 0 -24 -12 1 -35
15 -14 23 -15 34 -6 20 17 29 116 16 180 -8 45 -7 58 5 78 9 13 13 28 10 33
-11 18 -33 10 -39 -15z"/>
<path d="M742 1238 c6 -18 28 -21 28 -4 0 9 -7 16 -16 16 -9 0 -14 -5 -12 -12z"/>
<path d="M785 1229 c-6 -17 -12 -20 -37 -15 -21 4 -28 2 -26 -7 3 -6 21 -13
41 -15 37 -3 42 -10 38 -54 -3 -25 16 -22 30 3 11 22 -2 64 -26 81 -6 5 -5 8
3 8 6 0 12 5 12 10 0 19 -29 10 -35 -11z"/>
<path d="M687 1223 c-13 -12 -7 -33 8 -33 8 0 15 9 15 20 0 20 -11 26 -23 13z"/>
<path d="M724 1164 c3 -9 6 -22 6 -30 0 -8 5 -14 10 -14 6 0 10 9 10 20 0 11
5 20 10 20 6 0 10 -4 10 -10 0 -5 5 -10 10 -10 6 0 10 9 10 20 0 16 -7 20 -36
20 -29 0 -35 -3 -30 -16z"/>
<path d="M684 1154 c3 -9 6 -22 6 -30 0 -8 5 -14 10 -14 6 0 10 14 10 30 0 21
-5 30 -16 30 -11 0 -14 -5 -10 -16z"/>
<path d="M743 849 c5 -20 3 -21 -33 -16 -37 5 -39 3 -45 -25 -4 -16 -5 -32 -2
-35 9 -8 27 7 27 21 0 19 129 33 140 16 8 -13 50 -5 50 10 0 16 -34 28 -64 23
-20 -4 -31 -1 -38 11 -14 25 -42 21 -35 -5z"/>
<path d="M616 825 c-4 -17 -11 -23 -22 -18 -12 4 -15 2 -12 -8 3 -8 -6 -26
-20 -41 -32 -35 -21 -48 17 -20 25 18 30 19 35 6 7 -18 -23 -64 -59 -93 -49
-37 -25 -43 29 -6 l36 24 0 -23 c0 -37 -10 -56 -31 -56 -24 0 -24 -12 1 -35
27 -24 46 -7 53 46 3 22 8 43 10 46 3 2 58 7 121 10 78 4 115 10 113 17 -2 6
-16 12 -30 14 -16 2 -25 8 -21 14 7 11 -14 58 -31 70 -6 5 -5 8 3 8 6 0 12 5
12 10 0 19 -29 10 -35 -11 -6 -17 -12 -20 -37 -15 -21 4 -28 2 -26 -7 3 -6 21
-13 40 -15 36 -3 50 -21 41 -49 -8 -23 -20 -13 -15 12 4 23 1 25 -32 25 -33 0
-36 -2 -30 -24 3 -13 1 -27 -5 -30 -7 -5 -11 3 -11 18 0 17 -6 26 -15 26 -11
0 -14 -7 -9 -25 5 -21 3 -25 -15 -25 -12 0 -21 2 -21 4 0 2 -5 27 -10 56 -8
44 -7 58 5 77 9 13 13 28 10 33 -11 18 -33 10 -39 -15z m154 -124 c0 -6 -4
-13 -10 -16 -5 -3 -10 1 -10 9 0 9 5 16 10 16 6 0 10 -4 10 -9z"/>
<path d="M742 788 c6 -18 28 -21 28 -4 0 9 -7 16 -16 16 -9 0 -14 -5 -12 -12z"/>
<path d="M687 773 c-13 -12 -7 -33 8 -33 8 0 15 9 15 20 0 20 -11 26 -23 13z"/>
<path d="M743 399 c5 -20 3 -21 -33 -16 -37 5 -39 3 -45 -25 -4 -16 -5 -32 -2
-35 9 -8 27 7 27 21 0 19 129 33 140 16 8 -13 50 -5 50 10 0 16 -34 28 -64 23
-20 -4 -31 -1 -38 11 -14 25 -42 21 -35 -5z"/>
<path d="M616 375 c-4 -17 -11 -23 -22 -18 -12 4 -15 2 -12 -8 3 -8 -6 -26
-20 -41 -32 -35 -21 -48 17 -20 25 18 30 19 35 6 7 -18 -23 -64 -59 -93 -49
-37 -25 -43 29 -6 l36 24 0 -23 c0 -37 -10 -56 -31 -56 -24 0 -24 -12 1 -35
27 -24 46 -7 53 46 3 22 8 43 10 46 3 2 58 7 121 10 78 4 115 10 113 17 -2 6
-16 12 -30 14 -16 2 -25 8 -21 14 7 11 -14 58 -31 70 -6 5 -5 8 3 8 6 0 12 5
12 10 0 19 -29 10 -35 -11 -6 -17 -12 -20 -37 -15 -21 4 -28 2 -26 -7 3 -6 21
-13 40 -15 36 -3 50 -21 41 -49 -8 -23 -20 -13 -15 12 4 23 1 25 -32 25 -33 0
-36 -2 -30 -24 3 -13 1 -27 -5 -30 -7 -5 -11 3 -11 18 0 17 -6 26 -15 26 -11
0 -14 -7 -9 -25 5 -21 3 -25 -15 -25 -12 0 -21 2 -21 4 0 2 -5 27 -10 56 -8
44 -7 58 5 77 9 13 13 28 10 33 -11 18 -33 10 -39 -15z m154 -124 c0 -6 -4
-13 -10 -16 -5 -3 -10 1 -10 9 0 9 5 16 10 16 6 0 10 -4 10 -9z"/>
<path d="M742 338 c6 -18 28 -21 28 -4 0 9 -7 16 -16 16 -9 0 -14 -5 -12 -12z"/>
<path d="M687 323 c-13 -12 -7 -33 8 -33 8 0 15 9 15 20 0 20 -11 26 -23 13z"/>
<path d="M717 193 c-24 -3 -37 -9 -34 -16 2 -7 13 -11 23 -9 10 1 47 5 82 9
34 3 62 10 62 14 0 9 -58 9 -133 2z"/>
</g>
</svg>
