<?xml version="1.0" standalone="no"?>
<!DOCTYPE svg PUBLIC "-//W3C//DTD SVG 20010904//EN"
 "http://www.w3.org/TR/2001/REC-SVG-20010904/DTD/svg10.dtd">
<svg version="1.0" xmlns="http://www.w3.org/2000/svg"
 width="95.000000pt" height="725.000000pt" viewBox="0 0 95.000000 725.000000"
 preserveAspectRatio="xMidYMid meet">
<metadata>
Created by potrace 1.16, written by Peter Selinger 2001-2019
</metadata>
<g transform="translate(0.000000,725.000000) scale(0.100000,-0.100000)"
fill="#000000" stroke="none">
<path d="M170 7135 c0 -30 -3 -35 -22 -35 -37 0 -43 -11 -46 -80 -2 -57 -12
-114 -29 -156 -12 -32 16 -11 31 24 l16 37 -2 -44 c-2 -28 1 -46 10 -48 7 -3
12 4 12 16 0 12 6 21 15 21 8 0 15 -9 15 -20 0 -11 5 -20 10 -20 6 0 10 9 10
20 0 11 7 23 15 27 22 8 30 -4 16 -21 -15 -17 -7 -36 15 -36 9 0 14 10 14 29
0 16 3 43 6 60 6 29 5 31 -22 31 -22 0 -25 3 -16 12 20 20 14 38 -13 38 -14 0
-25 5 -25 10 0 6 -9 10 -20 10 -11 0 -20 -4 -20 -10 0 -5 7 -10 15 -10 8 0 15
-4 15 -9 0 -5 8 -12 18 -14 15 -4 15 -5 0 -6 -9 0 -20 4 -23 9 -3 6 -10 10
-16 10 -16 0 -10 -18 16 -44 33 -33 32 -37 -10 -17 l-35 16 6 55 c3 30 8 63
10 73 6 18 24 24 24 7 0 -5 -4 -10 -10 -10 -5 0 -10 -4 -10 -10 0 -5 7 -10 15
-10 8 0 15 -4 15 -10 0 -5 7 -10 15 -10 8 0 15 -4 15 -10 0 -16 27 -11 34 6
11 29 6 36 -21 31 -16 -2 -22 -2 -15 0 14 5 16 23 2 23 -5 0 -10 5 -10 10 0
13 37 13 42 0 2 -5 13 -7 26 -3 34 8 21 28 -21 31 -34 3 -37 6 -37 33 0 19 -5
29 -15 29 -10 0 -15 -11 -15 -35z m-15 -235 c3 -5 1 -10 -4 -10 -6 0 -11 5
-11 10 0 6 2 10 4 10 3 0 8 -4 11 -10z"/>
<path d="M620 7135 c0 -24 5 -35 15 -35 10 0 15 11 15 35 0 24 -5 35 -15 35
-10 0 -15 -11 -15 -35z"/>
<path d="M210 7140 c0 -5 9 -10 20 -10 11 0 20 5 20 10 0 6 -9 10 -20 10 -11
0 -20 -4 -20 -10z"/>
<path d="M288 7013 c-41 -4 -53 -23 -15 -23 49 0 127 13 127 21 0 9 -39 9
-112 2z"/>
<path d="M170 6685 c0 -30 -3 -35 -22 -35 -37 0 -43 -11 -46 -80 -2 -57 -12
-114 -29 -156 -12 -32 16 -11 31 24 l16 37 -2 -44 c-2 -28 1 -46 10 -48 7 -3
12 4 12 16 0 12 6 21 15 21 8 0 15 -9 15 -20 0 -11 5 -20 10 -20 6 0 10 9 10
20 0 11 7 23 15 27 22 8 30 -4 16 -21 -13 -16 -7 -36 10 -36 5 0 25 15 44 34
31 31 55 87 55 129 0 13 8 17 35 17 19 0 35 5 35 10 0 6 -16 10 -36 10 l-37 0
7 60 c7 56 6 60 -13 60 -19 0 -21 -5 -18 -62 2 -62 2 -63 -25 -66 -36 -4 -37
-22 -2 -22 25 0 26 -2 21 -36 -3 -19 -15 -50 -27 -67 l-21 -32 6 43 c7 41 6
42 -21 42 -22 0 -25 3 -16 12 20 20 14 38 -13 38 -14 0 -25 5 -25 10 0 6 -9
10 -20 10 -11 0 -20 -4 -20 -10 0 -5 7 -10 15 -10 8 0 15 -4 15 -9 0 -5 8 -12
18 -14 15 -4 15 -5 0 -6 -9 0 -20 4 -23 9 -3 6 -10 10 -16 10 -16 0 -10 -18
16 -44 33 -33 32 -37 -10 -17 l-35 16 6 55 c3 30 8 63 10 73 6 18 24 24 24 7
0 -5 -4 -10 -10 -10 -5 0 -10 -4 -10 -10 0 -5 7 -10 15 -10 8 0 15 -4 15 -10
0 -5 7 -10 15 -10 8 0 15 -4 15 -10 0 -16 27 -11 34 6 11 29 6 36 -21 31 -16
-2 -22 -2 -15 0 14 5 16 23 2 23 -5 0 -10 5 -10 10 0 13 37 13 42 0 2 -5 13
-7 26 -3 34 8 21 28 -21 31 -34 3 -37 6 -37 33 0 19 -5 29 -15 29 -10 0 -15
-11 -15 -35z m-15 -235 c3 -5 1 -10 -4 -10 -6 0 -11 5 -11 10 0 6 2 10 4 10 3
0 8 -4 11 -10z"/>
<path d="M620 6685 c0 -24 5 -35 15 -35 10 0 15 11 15 35 0 24 -5 35 -15 35
-10 0 -15 -11 -15 -35z"/>
<path d="M210 6690 c0 -5 9 -10 20 -10 11 0 20 5 20 10 0 6 -9 10 -20 10 -11
0 -20 -4 -20 -10z"/>
<path d="M660 6690 c0 -5 9 -10 20 -10 11 0 20 5 20 10 0 6 -9 10 -20 10 -11
0 -20 -4 -20 -10z"/>
<path d="M170 6235 c0 -30 -3 -35 -22 -35 -37 0 -43 -11 -46 -80 -2 -57 -12
-114 -29 -156 -12 -32 16 -11 31 24 l16 37 -2 -44 c-2 -28 1 -46 10 -48 7 -3
12 4 12 16 0 12 6 21 15 21 8 0 15 -9 15 -20 0 -11 5 -20 10 -20 6 0 10 9 10
20 0 11 7 23 15 27 22 8 30 -4 16 -21 -13 -16 -7 -36 10 -36 20 0 80 71 86
101 l6 32 29 -56 c25 -50 32 -57 58 -57 38 0 38 13 0 40 -26 19 -80 95 -80
113 0 4 16 7 35 7 19 0 35 5 35 10 0 6 -16 10 -36 10 l-37 0 7 60 c7 56 6 60
-13 60 -19 0 -21 -5 -18 -62 2 -62 2 -63 -25 -66 -36 -4 -37 -22 -2 -22 25 0
26 -2 21 -36 -3 -19 -15 -50 -27 -67 l-21 -32 6 43 c7 41 6 42 -21 42 -22 0
-25 3 -16 12 20 20 14 38 -13 38 -14 0 -25 5 -25 10 0 6 -9 10 -20 10 -11 0
-20 -4 -20 -10 0 -5 7 -10 15 -10 8 0 15 -4 15 -9 0 -5 8 -12 18 -14 15 -4 15
-5 0 -6 -9 0 -20 4 -23 9 -3 6 -10 10 -16 10 -16 0 -10 -18 16 -44 33 -33 32
-37 -10 -17 l-35 16 6 55 c3 30 8 63 10 73 6 18 24 24 24 7 0 -5 -4 -10 -10
-10 -5 0 -10 -4 -10 -10 0 -5 7 -10 15 -10 8 0 15 -4 15 -10 0 -5 7 -10 15
-10 8 0 15 -4 15 -10 0 -16 27 -11 34 6 11 29 6 36 -21 31 -16 -2 -22 -2 -15
0 14 5 16 23 2 23 -5 0 -10 5 -10 10 0 13 37 13 42 0 2 -5 13 -7 26 -3 34 8
21 28 -21 31 -34 3 -37 6 -37 33 0 19 -5 29 -15 29 -10 0 -15 -11 -15 -35z
m-15 -235 c3 -5 1 -10 -4 -10 -6 0 -11 5 -11 10 0 6 2 10 4 10 3 0 8 -4 11
-10z"/>
<path d="M620 6235 c0 -31 -3 -35 -25 -35 -14 0 -25 -5 -25 -11 0 -8 16 -9 52
-5 31 4 54 3 57 -3 9 -14 53 -2 48 13 -2 6 -20 12 -40 14 -34 3 -37 6 -37 33
0 19 -5 29 -15 29 -10 0 -15 -11 -15 -35z"/>
<path d="M210 6240 c0 -5 9 -10 20 -10 11 0 20 5 20 10 0 6 -9 10 -20 10 -11
0 -20 -4 -20 -10z"/>
<path d="M660 6240 c0 -5 9 -10 20 -10 11 0 20 5 20 10 0 6 -9 10 -20 10 -11
0 -20 -4 -20 -10z"/>
<path d="M170 5785 c0 -30 -3 -35 -22 -35 -37 0 -43 -11 -46 -80 -2 -57 -12
-114 -29 -156 -12 -32 16 -11 31 24 l16 37 -2 -44 c-2 -28 1 -46 10 -48 7 -3
12 4 12 16 0 12 6 21 15 21 8 0 15 -9 15 -20 0 -11 5 -20 10 -20 6 0 10 9 10
20 0 11 7 23 15 27 22 8 30 -4 16 -21 -13 -16 -7 -36 10 -36 20 0 80 71 86
101 l6 32 29 -56 c25 -50 32 -57 58 -57 38 0 38 13 0 40 -26 19 -80 95 -80
113 0 4 16 7 35 7 19 0 35 5 35 10 0 6 -16 10 -36 10 l-37 0 7 60 c7 56 6 60
-13 60 -19 0 -21 -5 -18 -62 2 -62 2 -63 -25 -66 -36 -4 -37 -22 -2 -22 25 0
26 -2 21 -36 -3 -19 -15 -50 -27 -67 l-21 -32 6 43 c7 41 6 42 -21 42 -22 0
-25 3 -16 12 20 20 14 38 -13 38 -14 0 -25 5 -25 10 0 6 -9 10 -20 10 -11 0
-20 -4 -20 -10 0 -5 7 -10 15 -10 8 0 15 -4 15 -9 0 -5 8 -12 18 -14 15 -4 15
-5 0 -6 -9 0 -20 4 -23 9 -3 6 -10 10 -16 10 -16 0 -10 -18 16 -44 33 -33 32
-37 -10 -17 l-35 16 6 55 c3 30 8 63 10 73 6 18 24 24 24 7 0 -5 -4 -10 -10
-10 -5 0 -10 -4 -10 -10 0 -5 7 -10 15 -10 8 0 15 -4 15 -10 0 -5 7 -10 15
-10 8 0 15 -4 15 -10 0 -16 27 -11 34 6 11 29 6 36 -21 31 -16 -2 -22 -2 -15
0 14 5 16 23 2 23 -5 0 -10 5 -10 10 0 13 37 13 42 0 2 -5 13 -7 26 -3 34 8
21 28 -21 31 -34 3 -37 6 -37 33 0 19 -5 29 -15 29 -10 0 -15 -11 -15 -35z
m-15 -235 c3 -5 1 -10 -4 -10 -6 0 -11 5 -11 10 0 6 2 10 4 10 3 0 8 -4 11
-10z"/>
<path d="M620 5785 c0 -30 -3 -35 -22 -35 -37 0 -43 -11 -46 -80 -2 -57 -12
-114 -29 -156 -3 -8 -1 -14 5 -14 15 0 39 69 47 135 4 33 9 68 11 77 6 20 83
36 93 19 9 -13 53 -2 48 13 -2 6 -20 12 -40 14 -34 3 -37 6 -37 33 0 19 -5 29
-15 29 -10 0 -15 -11 -15 -35z"/>
<path d="M210 5790 c0 -5 9 -10 20 -10 11 0 20 5 20 10 0 6 -9 10 -20 10 -11
0 -20 -4 -20 -10z"/>
<path d="M660 5790 c0 -5 9 -10 20 -10 11 0 20 5 20 10 0 6 -9 10 -20 10 -11
0 -20 -4 -20 -10z"/>
<path d="M350 5732 c0 -12 23 -32 37 -32 18 0 16 27 -3 34 -21 8 -34 8 -34 -2z"/>
<path d="M620 5335 c0 -30 -3 -35 -22 -35 -37 0 -43 -11 -46 -80 -2 -57 -12
-114 -29 -156 -3 -8 -1 -14 5 -14 15 0 39 69 47 135 4 33 9 68 11 77 6 20 83
36 93 19 9 -13 53 -2 48 13 -2 6 -20 12 -40 14 -34 3 -37 6 -37 33 0 19 -5 29
-15 29 -10 0 -15 -11 -15 -35z"/>
<path d="M660 5340 c0 -5 9 -10 20 -10 11 0 20 5 20 10 0 6 -9 10 -20 10 -11
0 -20 -4 -20 -10z"/>
<path d="M613 5263 c-24 -5 -32 -23 -10 -23 24 0 57 12 57 21 0 9 -8 10 -47 2z"/>
<path d="M620 4885 c0 -30 -3 -35 -22 -35 -37 0 -43 -11 -46 -80 -2 -57 -12
-114 -29 -156 -3 -8 -1 -14 5 -14 16 0 41 74 48 143 7 69 18 97 31 83 4 -5 2
-11 -4 -13 -18 -6 -16 -23 2 -23 8 0 15 -4 15 -10 0 -5 16 -10 35 -10 25 0 35
4 35 16 0 11 -7 14 -27 11 -16 -2 -22 -2 -15 0 14 5 16 23 2 23 -5 0 -10 5
-10 10 0 13 37 13 42 0 2 -5 13 -7 26 -3 34 8 21 28 -21 31 -34 3 -37 6 -37
33 0 19 -5 29 -15 29 -10 0 -15 -11 -15 -35z"/>
<path d="M660 4890 c0 -5 9 -10 20 -10 11 0 20 5 20 10 0 6 -9 10 -20 10 -11
0 -20 -4 -20 -10z"/>
<path d="M620 4435 c0 -30 -3 -35 -22 -35 -37 0 -43 -11 -46 -80 -2 -57 -12
-114 -29 -156 -3 -8 -1 -14 5 -14 16 0 41 74 48 143 7 69 18 97 31 83 4 -5 2
-11 -4 -13 -18 -6 -16 -23 2 -23 8 0 15 -4 15 -10 0 -5 7 -10 15 -10 8 0 15
-4 15 -10 0 -16 27 -11 34 6 11 29 6 36 -21 31 -16 -2 -22 -2 -15 0 14 5 16
23 2 23 -5 0 -10 5 -10 10 0 13 37 13 42 0 2 -5 13 -7 26 -3 34 8 21 28 -21
31 -34 3 -37 6 -37 33 0 19 -5 29 -15 29 -10 0 -15 -11 -15 -35z"/>
<path d="M660 4440 c0 -5 9 -10 20 -10 11 0 20 5 20 10 0 6 -9 10 -20 10 -11
0 -20 -4 -20 -10z"/>
<path d="M590 4300 c0 -5 9 -10 20 -10 11 0 20 5 20 10 0 6 -9 10 -20 10 -11
0 -20 -4 -20 -10z"/>
<path d="M620 3985 c0 -30 -3 -35 -22 -35 -37 0 -43 -11 -46 -80 -2 -57 -12
-114 -29 -156 -3 -8 -1 -14 5 -14 16 0 41 74 48 143 7 69 18 97 31 83 4 -5 2
-11 -4 -13 -18 -6 -16 -23 2 -23 8 0 15 -4 15 -10 0 -5 7 -10 15 -10 8 0 15
-4 15 -10 0 -16 27 -11 34 6 11 29 6 36 -21 31 -16 -2 -22 -2 -15 0 14 5 16
23 2 23 -5 0 -10 5 -10 10 0 13 37 13 42 0 2 -5 13 -7 26 -3 34 8 21 28 -21
31 -34 3 -37 6 -37 33 0 19 -5 29 -15 29 -10 0 -15 -11 -15 -35z"/>
<path d="M660 3990 c0 -5 9 -10 20 -10 11 0 20 5 20 10 0 6 -9 10 -20 10 -11
0 -20 -4 -20 -10z"/>
<path d="M590 3850 c0 -5 9 -10 20 -10 11 0 20 5 20 10 0 6 -9 10 -20 10 -11
0 -20 -4 -20 -10z"/>
<path d="M590 3823 c0 -5 4 -15 10 -23 11 -18 25 -7 17 15 -6 15 -27 21 -27 8z"/>
<path d="M620 3535 c0 -30 -3 -35 -22 -35 -37 0 -43 -11 -46 -80 -2 -57 -12
-114 -29 -156 -3 -8 -1 -14 5 -14 16 0 41 74 48 143 7 69 18 97 31 83 4 -5 2
-11 -4 -13 -18 -6 -16 -23 2 -23 8 0 15 -4 15 -10 0 -5 7 -10 15 -10 8 0 15
-4 15 -10 0 -16 27 -11 34 6 11 29 6 36 -21 31 -16 -2 -22 -2 -15 0 14 5 16
23 2 23 -5 0 -10 5 -10 10 0 13 37 13 42 0 2 -5 13 -7 26 -3 34 8 21 28 -21
31 -34 3 -37 6 -37 33 0 19 -5 29 -15 29 -10 0 -15 -11 -15 -35z"/>
<path d="M660 3540 c0 -5 9 -10 20 -10 11 0 20 5 20 10 0 6 -9 10 -20 10 -11
0 -20 -4 -20 -10z"/>
<path d="M590 3400 c0 -5 6 -10 14 -10 8 0 16 -4 18 -8 2 -5 15 -12 31 -16 20
-5 27 -3 27 9 0 9 -9 15 -25 15 -14 0 -25 5 -25 10 0 6 -9 10 -20 10 -11 0
-20 -4 -20 -10z"/>
<path d="M590 3373 c0 -5 4 -15 10 -23 11 -18 25 -7 17 15 -6 15 -27 21 -27 8z"/>
<path d="M620 3085 c0 -30 -3 -35 -22 -35 -37 0 -43 -11 -46 -80 -2 -57 -12
-114 -29 -156 -3 -8 -1 -14 5 -14 16 0 41 74 48 143 7 69 18 97 31 83 4 -5 2
-11 -4 -13 -18 -6 -16 -23 2 -23 8 0 15 -4 15 -10 0 -5 7 -10 15 -10 8 0 15
-4 15 -10 0 -16 27 -11 34 6 11 29 6 36 -21 31 -16 -2 -22 -2 -15 0 14 5 16
23 2 23 -5 0 -10 5 -10 10 0 13 37 13 42 0 2 -5 13 -7 26 -3 34 8 21 28 -21
31 -34 3 -37 6 -37 33 0 19 -5 29 -15 29 -10 0 -15 -11 -15 -35z"/>
<path d="M660 3090 c0 -5 9 -10 20 -10 11 0 20 5 20 10 0 6 -9 10 -20 10 -11
0 -20 -4 -20 -10z"/>
<path d="M590 2950 c0 -5 7 -10 15 -10 8 0 15 -4 15 -10 0 -5 8 -10 18 -11 11
0 12 -2 4 -6 -7 -3 -19 1 -28 7 -18 16 -27 9 -18 -14 7 -19 54 -22 72 -4 20
20 14 38 -13 38 -14 0 -25 5 -25 10 0 6 -9 10 -20 10 -11 0 -20 -4 -20 -10z"/>
<path d="M620 2635 c0 -30 -3 -35 -22 -35 -37 0 -43 -11 -46 -80 -2 -57 -12
-114 -29 -156 -12 -32 16 -11 31 24 l16 37 -2 -44 c-2 -28 1 -46 10 -48 8 -3
12 10 12 45 0 28 -5 52 -10 54 -6 2 -8 26 -4 65 7 65 18 93 31 79 4 -5 2 -11
-4 -13 -18 -6 -16 -23 2 -23 8 0 15 -4 15 -10 0 -5 7 -10 15 -10 8 0 15 -4 15
-10 0 -16 27 -11 34 6 11 29 6 36 -21 31 -16 -2 -22 -2 -15 0 14 5 16 23 2 23
-5 0 -10 5 -10 10 0 13 37 13 42 0 2 -5 13 -7 26 -3 34 8 21 28 -21 31 -34 3
-37 6 -37 33 0 19 -5 29 -15 29 -10 0 -15 -11 -15 -35z"/>
<path d="M660 2640 c0 -5 9 -10 20 -10 11 0 20 5 20 10 0 6 -9 10 -20 10 -11
0 -20 -4 -20 -10z"/>
<path d="M590 2500 c0 -5 7 -10 15 -10 8 0 15 -4 15 -10 0 -5 8 -10 18 -11 11
0 12 -2 4 -6 -7 -3 -19 1 -28 7 -18 16 -27 9 -18 -14 7 -19 54 -22 72 -4 20
20 14 38 -13 38 -14 0 -25 5 -25 10 0 6 -9 10 -20 10 -11 0 -20 -4 -20 -10z"/>
<path d="M620 2185 c0 -30 -3 -35 -22 -35 -37 0 -43 -11 -46 -80 -2 -57 -12
-114 -29 -156 -12 -32 16 -11 31 24 l16 37 -2 -44 c-2 -28 1 -46 10 -48 8 -3
12 7 12 30 0 20 3 42 6 51 4 11 1 16 -11 16 -14 0 -16 8 -10 58 4 31 9 65 11
75 6 18 24 24 24 7 0 -5 -4 -10 -10 -10 -5 0 -10 -4 -10 -10 0 -5 7 -10 15
-10 8 0 15 -4 15 -10 0 -5 7 -10 15 -10 8 0 15 -4 15 -10 0 -16 27 -11 34 6
11 29 6 36 -21 31 -16 -2 -22 -2 -15 0 14 5 16 23 2 23 -5 0 -10 5 -10 10 0
13 37 13 42 0 2 -5 13 -7 26 -3 34 8 21 28 -21 31 -34 3 -37 6 -37 33 0 19 -5
29 -15 29 -10 0 -15 -11 -15 -35z"/>
<path d="M660 2190 c0 -5 9 -10 20 -10 11 0 20 5 20 10 0 6 -9 10 -20 10 -11
0 -20 -4 -20 -10z"/>
<path d="M590 2050 c0 -5 7 -10 15 -10 8 0 15 -4 15 -9 0 -5 8 -12 18 -14 15
-4 15 -5 0 -6 -9 0 -20 4 -23 9 -8 12 -25 13 -25 2 0 -20 39 -52 64 -52 22 0
26 -4 26 -28 0 -15 -5 -33 -11 -39 -13 -13 -4 -33 17 -33 9 0 14 10 14 29 0
16 3 43 6 60 6 29 5 31 -22 31 -22 0 -25 3 -16 12 20 20 14 38 -13 38 -14 0
-25 5 -25 10 0 6 -9 10 -20 10 -11 0 -20 -4 -20 -10z"/>
<path d="M620 1735 c0 -30 -3 -35 -22 -35 -37 0 -43 -11 -46 -80 -2 -57 -12
-114 -29 -156 -12 -32 16 -11 31 24 l16 37 -2 -44 c-2 -28 1 -46 10 -48 8 -3
12 9 12 39 1 38 2 41 14 26 16 -22 26 -23 26 -2 0 9 -14 21 -30 27 -30 12 -31
12 -25 67 4 30 9 63 11 73 6 18 24 24 24 7 0 -5 -4 -10 -10 -10 -5 0 -10 -4
-10 -10 0 -5 7 -10 15 -10 8 0 15 -4 15 -10 0 -5 7 -10 15 -10 8 0 15 -4 15
-10 0 -16 27 -11 34 6 11 29 6 36 -21 31 -16 -2 -22 -2 -15 0 14 5 16 23 2 23
-5 0 -10 5 -10 10 0 13 37 13 42 0 2 -5 13 -7 26 -3 34 8 21 28 -21 31 -34 3
-37 6 -37 33 0 19 -5 29 -15 29 -10 0 -15 -11 -15 -35z"/>
<path d="M660 1740 c0 -5 9 -10 20 -10 11 0 20 5 20 10 0 6 -9 10 -20 10 -11
0 -20 -4 -20 -10z"/>
<path d="M590 1600 c0 -5 7 -10 15 -10 8 0 15 -4 15 -9 0 -5 8 -12 18 -14 15
-4 15 -5 0 -6 -9 0 -20 4 -23 9 -8 12 -25 13 -25 2 0 -20 39 -52 64 -52 22 0
26 -4 26 -28 0 -15 -5 -33 -11 -39 -13 -13 -4 -33 17 -33 9 0 14 10 14 29 0
16 3 43 6 60 6 29 5 31 -22 31 -22 0 -25 3 -16 12 20 20 14 38 -13 38 -14 0
-25 5 -25 10 0 6 -9 10 -20 10 -11 0 -20 -4 -20 -10z"/>
<path d="M620 1285 c0 -30 -3 -35 -22 -35 -37 0 -43 -11 -46 -80 -2 -57 -12
-114 -29 -156 -12 -32 16 -11 31 24 l16 37 -2 -44 c-2 -28 1 -46 10 -48 8 -3
12 9 12 39 1 38 2 41 14 26 16 -22 26 -23 26 -2 0 9 -14 21 -30 27 -30 12 -31
12 -25 67 4 30 9 63 11 73 6 18 24 24 24 7 0 -5 -4 -10 -10 -10 -5 0 -10 -4
-10 -10 0 -5 7 -10 15 -10 8 0 15 -4 15 -10 0 -5 7 -10 15 -10 8 0 15 -4 15
-10 0 -16 27 -11 34 6 11 29 6 36 -21 31 -16 -2 -22 -2 -15 0 14 5 16 23 2 23
-5 0 -10 5 -10 10 0 13 37 13 42 0 2 -5 13 -7 26 -3 34 8 21 28 -21 31 -34 3
-37 6 -37 33 0 19 -5 29 -15 29 -10 0 -15 -11 -15 -35z"/>
<path d="M660 1290 c0 -5 9 -10 20 -10 11 0 20 5 20 10 0 6 -9 10 -20 10 -11
0 -20 -4 -20 -10z"/>
<path d="M590 1150 c0 -5 7 -10 15 -10 8 0 15 -4 15 -9 0 -5 8 -12 18 -14 15
-4 15 -5 0 -6 -9 0 -20 4 -23 9 -3 6 -10 10 -16 10 -16 0 -10 -18 16 -44 14
-14 25 -30 25 -36 0 -16 18 -12 29 8 9 14 10 12 11 -13 0 -17 -5 -36 -11 -42
-13 -13 -4 -33 17 -33 9 0 14 10 14 29 0 16 3 43 6 60 6 29 5 31 -22 31 -22 0
-25 3 -16 12 20 20 14 38 -13 38 -14 0 -25 5 -25 10 0 6 -9 10 -20 10 -11 0
-20 -4 -20 -10z"/>
<path d="M620 835 c0 -30 -3 -35 -22 -35 -37 0 -43 -11 -46 -80 -2 -57 -12
-114 -29 -156 -12 -32 16 -11 31 24 l16 37 -2 -44 c-2 -28 1 -46 10 -48 7 -3
12 4 12 15 0 20 24 32 68 32 24 0 28 -10 11 -27 -13 -13 -4 -33 17 -33 9 0 14
10 14 29 0 16 3 43 6 60 6 29 5 31 -22 31 -22 0 -25 3 -16 12 20 20 14 38 -13
38 -14 0 -25 5 -25 10 0 6 -9 10 -20 10 -11 0 -20 -4 -20 -10 0 -5 7 -10 15
-10 8 0 15 -4 15 -9 0 -5 8 -12 18 -14 15 -4 15 -5 0 -6 -9 0 -20 4 -23 9 -3
6 -10 10 -16 10 -16 0 -10 -18 16 -44 33 -33 32 -37 -10 -17 l-35 16 6 55 c3
30 8 63 10 73 6 18 24 24 24 7 0 -5 -4 -10 -10 -10 -5 0 -10 -4 -10 -10 0 -5
7 -10 15 -10 8 0 15 -4 15 -10 0 -5 7 -10 15 -10 8 0 15 -4 15 -10 0 -16 27
-11 34 6 11 29 6 36 -21 31 -16 -2 -22 -2 -15 0 14 5 16 23 2 23 -5 0 -10 5
-10 10 0 13 37 13 42 0 2 -5 13 -7 26 -3 34 8 21 28 -21 31 -34 3 -37 6 -37
33 0 19 -5 29 -15 29 -10 0 -15 -11 -15 -35z m-15 -235 c3 -5 1 -10 -4 -10 -6
0 -11 5 -11 10 0 6 2 10 4 10 3 0 8 -4 11 -10z"/>
<path d="M660 840 c0 -5 9 -10 20 -10 11 0 20 5 20 10 0 6 -9 10 -20 10 -11 0
-20 -4 -20 -10z"/>
<path d="M620 385 c0 -30 -3 -35 -22 -35 -37 0 -43 -11 -46 -80 -2 -57 -12
-114 -29 -156 -12 -32 16 -11 31 24 l16 37 -2 -44 c-2 -28 1 -46 10 -48 7 -3
12 4 12 16 0 12 6 21 15 21 8 0 15 -9 15 -20 0 -11 5 -20 10 -20 6 0 10 9 10
20 0 11 7 23 15 27 22 8 30 -4 16 -21 -15 -17 -7 -36 15 -36 9 0 14 10 14 29
0 16 3 43 6 60 6 29 5 31 -22 31 -22 0 -25 3 -16 12 20 20 14 38 -13 38 -14 0
-25 5 -25 10 0 6 -9 10 -20 10 -11 0 -20 -4 -20 -10 0 -5 7 -10 15 -10 8 0 15
-4 15 -9 0 -5 8 -12 18 -14 15 -4 15 -5 0 -6 -9 0 -20 4 -23 9 -3 6 -10 10
-16 10 -16 0 -10 -18 16 -44 33 -33 32 -37 -10 -17 l-35 16 6 55 c3 30 8 63
10 73 6 18 24 24 24 7 0 -5 -4 -10 -10 -10 -5 0 -10 -4 -10 -10 0 -5 7 -10 15
-10 8 0 15 -4 15 -10 0 -5 7 -10 15 -10 8 0 15 -4 15 -10 0 -16 27 -11 34 6
11 29 6 36 -21 31 -16 -2 -22 -2 -15 0 14 5 16 23 2 23 -5 0 -10 5 -10 10 0
13 37 13 42 0 2 -5 13 -7 26 -3 34 8 21 28 -21 31 -34 3 -37 6 -37 33 0 19 -5
29 -15 29 -10 0 -15 -11 -15 -35z m-15 -235 c3 -5 1 -10 -4 -10 -6 0 -11 5
-11 10 0 6 2 10 4 10 3 0 8 -4 11 -10z"/>
<path d="M660 390 c0 -5 9 -10 20 -10 11 0 20 5 20 10 0 6 -9 10 -20 10 -11 0
-20 -4 -20 -10z"/>
</g>
</svg>
