<?xml version="1.0" standalone="no"?>
<!DOCTYPE svg PUBLIC "-//W3C//DTD SVG 20010904//EN"
 "http://www.w3.org/TR/2001/REC-SVG-20010904/DTD/svg10.dtd">
<svg version="1.0" xmlns="http://www.w3.org/2000/svg"
 width="95.000000pt" height="725.000000pt" viewBox="0 0 95.000000 725.000000"
 preserveAspectRatio="xMidYMid meet">
<metadata>
Created by potrace 1.16, written by Peter Selinger 2001-2019
</metadata>
<g transform="translate(0.000000,725.000000) scale(0.100000,-0.100000)"
fill="#000000" stroke="none">
<path d="M163 7129 c-11 -27 -15 -30 -28 -19 -20 17 -32 5 -15 -15 11 -13 10
-19 -5 -35 -20 -22 -13 -42 7 -22 7 7 16 12 20 12 18 0 6 -29 -27 -67 -19 -23
-35 -44 -35 -47 0 -15 24 -4 51 23 24 24 29 26 29 11 0 -41 -13 -80 -27 -80
-10 0 -13 -6 -9 -16 3 -9 6 -18 6 -20 0 -2 9 -4 20 -4 11 0 20 4 20 9 0 5 7
11 17 13 9 2 24 24 34 53 l17 50 1 -47 c1 -27 6 -48 11 -48 6 0 10 14 10 30 0
17 5 30 10 30 6 0 10 -25 10 -55 0 -78 16 -69 23 13 2 37 8 75 12 85 6 13 2
17 -16 18 -13 0 -18 3 -11 6 21 8 13 23 -14 23 -21 0 -24 -4 -19 -20 5 -14 2
-20 -9 -20 -9 0 -16 4 -16 9 0 23 14 41 31 41 10 0 19 5 19 10 0 6 -16 10 -35
10 -33 0 -35 -2 -35 -35 0 -18 -6 -58 -12 -87 l-13 -53 -6 100 c-5 90 -4 102
14 122 16 19 18 25 7 38 -18 22 -24 19 -37 -16z m117 -159 c0 -5 -4 -10 -10
-10 -5 0 -10 5 -10 10 0 6 5 10 10 10 6 0 10 -4 10 -10z"/>
<path d="M349 7155 c-3 -2 -21 -5 -40 -6 -57 -2 -89 -18 -89 -45 0 -28 8 -34
41 -27 16 3 30 15 36 31 10 25 11 26 12 5 1 -19 7 -23 34 -23 27 0 36 6 46 27
10 21 9 28 -1 34 -15 10 -32 11 -39 4z m11 -35 c0 -5 -7 -10 -15 -10 -8 0 -15
5 -15 10 0 6 7 10 15 10 8 0 15 -4 15 -10z m-90 -10 c0 -5 -7 -10 -15 -10 -8
0 -15 5 -15 10 0 6 7 10 15 10 8 0 15 -4 15 -10z"/>
<path d="M620 7146 c0 -8 -16 -36 -36 -61 -19 -26 -33 -49 -31 -52 9 -8 51 25
80 62 23 29 26 39 17 50 -16 19 -30 19 -30 1z"/>
<path d="M323 7073 c-53 -7 -37 -23 22 -23 30 0 55 4 55 9 0 9 -26 22 -38 19
-4 0 -22 -3 -39 -5z"/>
<path d="M163 6679 c-11 -27 -15 -30 -28 -19 -20 17 -32 5 -15 -15 11 -13 10
-19 -5 -35 -20 -22 -13 -42 7 -22 7 7 16 12 20 12 18 0 6 -29 -27 -67 -19 -23
-35 -44 -35 -47 0 -15 24 -4 51 23 24 24 29 26 29 11 0 -41 -13 -80 -27 -80
-10 0 -13 -6 -9 -16 3 -9 6 -18 6 -20 0 -2 9 -4 20 -4 11 0 20 4 20 9 0 5 7
11 17 13 9 2 24 24 34 53 l17 50 1 -47 c1 -27 6 -48 11 -48 6 0 10 7 10 15 0
8 5 15 10 15 6 0 10 -18 10 -40 0 -66 17 -45 23 28 2 37 8 75 12 85 6 13 2 17
-16 18 -13 0 -18 3 -11 6 21 8 13 23 -14 23 -21 0 -24 -4 -19 -20 5 -14 2 -20
-9 -20 -9 0 -16 4 -16 9 0 23 14 41 31 41 10 0 19 5 19 10 0 6 -16 10 -35 10
-33 0 -35 -2 -35 -35 0 -18 -6 -58 -12 -87 l-13 -53 -6 100 c-5 90 -4 102 14
122 16 19 18 25 7 38 -18 22 -24 19 -37 -16z m117 -159 c0 -5 -4 -10 -10 -10
-5 0 -10 5 -10 10 0 6 5 10 10 10 6 0 10 -4 10 -10z"/>
<path d="M349 6705 c-3 -2 -21 -5 -40 -6 -57 -2 -89 -18 -89 -45 0 -28 8 -34
41 -27 16 3 30 15 36 31 10 25 11 26 12 5 1 -19 7 -23 34 -23 27 0 36 6 46 27
10 21 9 28 -1 34 -15 10 -32 11 -39 4z m11 -35 c0 -5 -7 -10 -15 -10 -8 0 -15
5 -15 10 0 6 7 10 15 10 8 0 15 -4 15 -10z m-90 -10 c0 -5 -7 -10 -15 -10 -8
0 -15 5 -15 10 0 6 7 10 15 10 8 0 15 -4 15 -10z"/>
<path d="M613 6679 c-11 -27 -15 -30 -28 -19 -20 17 -32 5 -15 -15 11 -13 10
-19 -5 -35 -21 -23 -13 -39 9 -21 23 19 36 4 36 -43 0 -65 -11 -106 -27 -106
-10 0 -13 -6 -9 -16 3 -9 6 -18 6 -20 0 -2 9 -4 19 -4 28 0 33 28 30 140 -3
85 -1 101 15 119 15 17 16 23 6 36 -18 22 -24 19 -37 -16z"/>
<path d="M323 6623 c-53 -7 -37 -23 22 -23 30 0 55 4 55 9 0 9 -26 22 -38 19
-4 0 -22 -3 -39 -5z"/>
<path d="M163 6229 c-11 -27 -15 -30 -28 -19 -20 17 -32 5 -15 -15 11 -13 10
-19 -5 -35 -20 -22 -13 -42 7 -22 7 7 16 12 20 12 18 0 6 -29 -27 -67 -19 -23
-35 -44 -35 -47 0 -15 24 -4 51 23 24 24 29 26 29 11 0 -41 -13 -80 -27 -80
-10 0 -13 -6 -9 -16 3 -9 6 -18 6 -20 0 -2 9 -4 20 -4 11 0 20 4 20 9 0 5 7
11 17 13 9 2 24 24 34 53 l17 50 1 -42 c1 -24 -3 -43 -9 -43 -5 0 -10 -7 -10
-16 0 -9 6 -14 13 -11 48 20 47 20 47 -7 0 -14 4 -26 9 -26 4 0 11 30 14 68 2
37 8 75 12 85 6 13 2 17 -16 18 -13 0 -18 3 -11 6 21 8 13 23 -14 23 -21 0
-24 -4 -19 -20 5 -14 2 -20 -9 -20 -9 0 -16 4 -16 9 0 23 14 41 31 41 10 0 19
5 19 10 0 6 -16 10 -35 10 -33 0 -35 -2 -35 -35 0 -18 -6 -58 -12 -87 l-13
-53 -6 100 c-5 90 -4 102 14 122 16 19 18 25 7 38 -18 22 -24 19 -37 -16z
m117 -159 c0 -5 -4 -10 -10 -10 -5 0 -10 5 -10 10 0 6 5 10 10 10 6 0 10 -4
10 -10z"/>
<path d="M349 6255 c-3 -2 -21 -5 -40 -6 -57 -2 -89 -18 -89 -45 0 -28 8 -34
41 -27 16 3 30 15 36 31 10 25 11 26 12 5 1 -19 7 -23 34 -23 27 0 36 6 46 27
10 21 9 28 -1 34 -15 10 -32 11 -39 4z m11 -35 c0 -5 -7 -10 -15 -10 -8 0 -15
5 -15 10 0 6 7 10 15 10 8 0 15 -4 15 -10z m-90 -10 c0 -5 -7 -10 -15 -10 -8
0 -15 5 -15 10 0 6 7 10 15 10 8 0 15 -4 15 -10z"/>
<path d="M613 6229 c-11 -27 -15 -30 -28 -19 -20 17 -32 5 -15 -15 11 -13 10
-19 -5 -35 -20 -22 -13 -42 7 -22 7 7 16 12 20 12 18 0 6 -29 -27 -67 -19 -23
-35 -44 -35 -47 0 -15 24 -4 51 23 24 24 29 26 29 11 0 -41 -13 -80 -27 -80
-10 0 -13 -6 -9 -16 3 -9 6 -18 6 -20 0 -2 9 -4 19 -4 28 0 33 28 30 140 -3
85 -1 101 15 119 15 17 16 23 6 36 -18 22 -24 19 -37 -16z"/>
<path d="M323 6173 c-53 -7 -37 -23 22 -23 30 0 55 4 55 9 0 9 -26 22 -38 19
-4 0 -22 -3 -39 -5z"/>
<path d="M163 5779 c-11 -27 -15 -30 -28 -19 -20 17 -32 5 -15 -15 11 -13 10
-19 -5 -35 -20 -22 -13 -42 7 -22 7 7 16 12 20 12 18 0 6 -29 -27 -67 -19 -23
-35 -44 -35 -47 0 -15 24 -4 51 23 24 24 29 26 29 11 0 -41 -13 -80 -27 -80
-10 0 -13 -6 -9 -16 3 -9 6 -18 6 -20 0 -2 9 -4 20 -4 11 0 20 4 20 9 0 5 7
11 17 13 9 2 24 24 34 53 l17 50 1 -42 c1 -24 -3 -43 -9 -43 -5 0 -10 -7 -10
-16 0 -9 6 -14 13 -11 48 20 47 20 47 -7 0 -50 20 -25 21 27 1 47 16 120 18
90 2 -24 17 -13 34 22 21 43 21 45 2 45 -8 0 -17 -11 -21 -23 -4 -20 -10 -23
-32 -19 -15 3 -21 7 -14 9 22 8 13 23 -14 23 -21 0 -24 -4 -19 -20 5 -14 2
-20 -9 -20 -9 0 -16 4 -16 9 0 23 14 41 31 41 10 0 19 5 19 10 0 6 -16 10 -35
10 -33 0 -35 -2 -35 -35 0 -18 -6 -58 -12 -87 l-13 -53 -6 100 c-5 90 -4 102
14 122 16 19 18 25 7 38 -18 22 -24 19 -37 -16z m117 -159 c0 -5 -4 -10 -10
-10 -5 0 -10 5 -10 10 0 6 5 10 10 10 6 0 10 -4 10 -10z"/>
<path d="M349 5805 c-3 -2 -21 -5 -40 -6 -57 -2 -89 -18 -89 -45 0 -28 8 -34
41 -27 16 3 30 15 36 31 10 25 11 26 12 5 1 -19 7 -23 34 -23 27 0 36 6 46 27
10 21 9 28 -1 34 -15 10 -32 11 -39 4z m11 -35 c0 -5 -7 -10 -15 -10 -8 0 -15
5 -15 10 0 6 7 10 15 10 8 0 15 -4 15 -10z m-90 -10 c0 -5 -7 -10 -15 -10 -8
0 -15 5 -15 10 0 6 7 10 15 10 8 0 15 -4 15 -10z"/>
<path d="M613 5779 c-11 -27 -15 -30 -28 -19 -20 17 -32 5 -15 -15 11 -13 10
-19 -5 -35 -20 -22 -13 -42 7 -22 7 7 16 12 20 12 18 0 6 -29 -27 -67 -19 -23
-35 -44 -35 -47 0 -15 24 -4 51 23 24 24 29 26 29 11 0 -41 -13 -80 -27 -80
-10 0 -13 -6 -9 -16 3 -9 6 -18 6 -20 0 -2 9 -4 19 -4 28 0 33 28 30 140 -3
85 -1 101 15 119 15 17 16 23 6 36 -18 22 -24 19 -37 -16z"/>
<path d="M670 5755 c0 -14 5 -25 10 -25 6 0 10 11 10 25 0 14 -4 25 -10 25 -5
0 -10 -11 -10 -25z"/>
<path d="M323 5723 c-53 -7 -37 -23 22 -23 30 0 55 4 55 9 0 9 -26 22 -38 19
-4 0 -22 -3 -39 -5z"/>
<path d="M163 5329 c-11 -27 -15 -30 -28 -19 -20 17 -32 5 -15 -15 11 -13 10
-19 -5 -35 -20 -22 -13 -42 7 -22 7 7 16 12 20 12 18 0 6 -29 -27 -67 -19 -23
-35 -44 -35 -47 0 -15 24 -4 51 23 24 24 29 26 29 11 0 -41 -13 -80 -27 -80
-10 0 -13 -6 -9 -16 3 -9 6 -18 6 -20 0 -2 9 -4 20 -4 11 0 20 4 20 9 0 5 7
11 17 13 9 2 24 24 34 53 l17 50 1 -42 c1 -24 -3 -43 -9 -43 -5 0 -10 -7 -10
-16 0 -9 6 -14 13 -11 48 20 47 20 47 -7 0 -14 5 -26 10 -26 6 0 10 20 10 44
0 59 11 111 20 96 6 -9 13 -9 28 -1 11 6 30 11 41 11 12 0 21 5 21 11 0 7 -12
10 -29 7 -26 -4 -29 -2 -20 13 12 24 11 29 -6 29 -8 0 -17 -11 -21 -23 -4 -20
-10 -23 -32 -19 -15 3 -21 7 -14 9 22 8 13 23 -14 23 -21 0 -24 -4 -19 -20 5
-14 2 -20 -9 -20 -9 0 -16 4 -16 9 0 23 14 41 31 41 10 0 19 5 19 10 0 6 -16
10 -35 10 -33 0 -35 -2 -35 -35 0 -18 -6 -58 -12 -87 l-13 -53 -6 100 c-5 90
-4 102 14 122 16 19 18 25 7 38 -18 22 -24 19 -37 -16z m117 -159 c0 -5 -4
-10 -10 -10 -5 0 -10 5 -10 10 0 6 5 10 10 10 6 0 10 -4 10 -10z"/>
<path d="M349 5355 c-3 -2 -21 -5 -40 -6 -57 -2 -89 -18 -89 -45 0 -28 8 -34
41 -27 16 3 30 15 36 31 10 25 11 26 12 5 1 -19 7 -23 34 -23 27 0 36 6 46 27
10 21 9 28 -1 34 -15 10 -32 11 -39 4z m11 -35 c0 -5 -7 -10 -15 -10 -8 0 -15
5 -15 10 0 6 7 10 15 10 8 0 15 -4 15 -10z m-90 -10 c0 -5 -7 -10 -15 -10 -8
0 -15 5 -15 10 0 6 7 10 15 10 8 0 15 -4 15 -10z"/>
<path d="M613 5329 c-11 -27 -15 -30 -28 -19 -20 17 -32 5 -15 -15 11 -13 10
-19 -5 -35 -20 -22 -13 -42 7 -22 7 7 16 12 20 12 18 0 6 -29 -27 -67 -19 -23
-35 -44 -35 -47 0 -15 24 -4 51 23 24 24 29 26 29 11 0 -41 -13 -80 -27 -80
-10 0 -13 -6 -9 -16 3 -9 6 -18 6 -20 0 -2 9 -4 19 -4 28 0 33 28 30 140 -3
85 -1 101 15 119 15 17 16 23 6 36 -18 22 -24 19 -37 -16z"/>
<path d="M693 5338 c-23 -11 -33 -58 -13 -58 6 0 10 9 10 20 0 11 7 20 15 20
8 0 15 -7 15 -15 0 -22 18 -18 25 5 12 38 -9 49 -52 28z"/>
<path d="M323 5273 c-53 -7 -37 -23 22 -23 30 0 55 4 55 9 0 9 -26 22 -38 19
-4 0 -22 -3 -39 -5z"/>
<path d="M163 4879 c-11 -27 -15 -30 -28 -19 -20 17 -32 5 -15 -15 11 -13 10
-19 -5 -35 -20 -22 -13 -42 7 -22 7 7 16 12 20 12 18 0 6 -29 -27 -67 -19 -23
-35 -44 -35 -47 0 -15 24 -4 51 23 24 24 29 26 29 11 0 -41 -13 -80 -27 -80
-10 0 -13 -6 -9 -16 3 -9 6 -18 6 -20 0 -2 9 -4 20 -4 11 0 20 4 20 9 0 5 7
11 17 13 9 2 24 24 34 53 l17 50 1 -42 c1 -24 -3 -43 -9 -43 -5 0 -10 -7 -10
-16 0 -9 6 -14 13 -11 48 20 47 20 47 -7 0 -50 20 -25 21 27 1 47 16 120 18
89 1 -9 8 -11 22 -7 20 7 21 5 15 -21 -4 -16 -17 -39 -28 -51 -25 -26 -19 -40
10 -24 21 11 56 87 47 102 -4 5 1 9 9 9 9 0 16 5 16 11 0 7 -12 10 -29 7 -26
-4 -29 -2 -20 13 12 24 11 29 -6 29 -8 0 -17 -11 -21 -23 -4 -20 -10 -23 -32
-19 -15 3 -21 7 -14 9 22 8 13 23 -14 23 -21 0 -24 -4 -19 -20 5 -14 2 -20 -9
-20 -9 0 -16 4 -16 9 0 23 14 41 31 41 10 0 19 5 19 10 0 6 -16 10 -35 10 -33
0 -35 -2 -35 -35 0 -18 -6 -58 -12 -87 l-13 -53 -6 100 c-5 90 -4 102 14 122
16 19 18 25 7 38 -18 22 -24 19 -37 -16z m117 -159 c0 -5 -4 -10 -10 -10 -5 0
-10 5 -10 10 0 6 5 10 10 10 6 0 10 -4 10 -10z"/>
<path d="M349 4905 c-3 -2 -21 -5 -40 -6 -57 -2 -89 -18 -89 -45 0 -28 8 -34
41 -27 16 3 30 15 36 31 10 25 11 26 12 5 1 -19 7 -23 34 -23 27 0 36 6 46 27
10 21 9 28 -1 34 -15 10 -32 11 -39 4z m11 -35 c0 -5 -7 -10 -15 -10 -8 0 -15
5 -15 10 0 6 7 10 15 10 8 0 15 -4 15 -10z m-90 -10 c0 -5 -7 -10 -15 -10 -8
0 -15 5 -15 10 0 6 7 10 15 10 8 0 15 -4 15 -10z"/>
<path d="M613 4879 c-11 -27 -15 -30 -28 -19 -20 17 -32 5 -15 -15 11 -13 10
-19 -5 -35 -20 -22 -13 -42 7 -22 7 7 16 12 20 12 18 0 6 -29 -27 -67 -19 -23
-35 -44 -35 -47 0 -15 24 -4 51 23 24 24 29 26 29 11 0 -41 -13 -80 -27 -80
-10 0 -13 -6 -9 -16 3 -9 6 -18 6 -20 0 -2 9 -4 19 -4 28 0 33 28 30 140 -3
85 -1 101 15 119 15 17 16 23 6 36 -18 22 -24 19 -37 -16z"/>
<path d="M692 4888 c-17 -8 -22 -19 -20 -37 3 -22 7 -26 33 -23 37 4 35 3 38
38 2 32 -15 39 -51 22z m28 -28 c0 -5 -7 -10 -15 -10 -8 0 -15 5 -15 10 0 6 7
10 15 10 8 0 15 -4 15 -10z"/>
<path d="M323 4823 c-53 -7 -37 -23 22 -23 30 0 55 4 55 9 0 9 -26 22 -38 19
-4 0 -22 -3 -39 -5z"/>
<path d="M163 4429 c-11 -27 -15 -30 -28 -19 -20 17 -32 5 -15 -15 11 -13 10
-19 -5 -35 -20 -22 -13 -42 7 -22 7 7 16 12 20 12 18 0 6 -29 -27 -67 -19 -23
-35 -44 -35 -47 0 -15 24 -4 51 23 24 24 29 26 29 11 0 -41 -13 -80 -27 -80
-10 0 -13 -6 -9 -16 3 -9 6 -18 6 -20 0 -2 9 -4 20 -4 11 0 20 4 20 9 0 5 7
11 17 13 9 2 24 24 34 53 l17 50 1 -42 c1 -24 -3 -43 -9 -43 -5 0 -10 -7 -10
-16 0 -9 6 -14 13 -11 48 20 47 20 47 -7 0 -50 20 -25 21 27 1 47 16 120 18
89 1 -9 8 -11 21 -7 14 5 20 2 20 -9 0 -9 -7 -16 -16 -16 -11 0 -14 -5 -10
-16 4 -10 -1 -25 -10 -36 -22 -23 -12 -33 17 -18 19 10 24 10 34 -4 12 -16 65
-23 65 -8 -1 4 -15 16 -33 28 -18 11 -30 27 -28 35 1 8 4 24 5 36 0 13 7 23
14 23 6 0 12 5 12 11 0 7 -12 10 -29 7 -26 -4 -29 -2 -20 13 12 24 11 29 -6
29 -8 0 -17 -11 -21 -23 -4 -20 -10 -23 -32 -19 -15 3 -21 7 -14 9 22 8 13 23
-14 23 -21 0 -24 -4 -19 -20 5 -14 2 -20 -9 -20 -9 0 -16 4 -16 9 0 23 14 41
31 41 10 0 19 5 19 10 0 6 -16 10 -35 10 -33 0 -35 -2 -35 -35 0 -18 -6 -58
-12 -87 l-13 -53 -6 100 c-5 90 -4 102 14 122 16 19 18 25 7 38 -18 22 -24 19
-37 -16z m117 -159 c0 -5 -4 -10 -10 -10 -5 0 -10 5 -10 10 0 6 5 10 10 10 6
0 10 -4 10 -10z"/>
<path d="M349 4455 c-3 -2 -21 -5 -40 -6 -57 -2 -89 -18 -89 -45 0 -28 8 -34
41 -27 16 3 30 15 36 31 10 25 11 26 12 5 1 -19 7 -23 34 -23 27 0 36 6 46 27
10 21 9 28 -1 34 -15 10 -32 11 -39 4z m11 -35 c0 -5 -7 -10 -15 -10 -8 0 -15
5 -15 10 0 6 7 10 15 10 8 0 15 -4 15 -10z m-90 -10 c0 -5 -7 -10 -15 -10 -8
0 -15 5 -15 10 0 6 7 10 15 10 8 0 15 -4 15 -10z"/>
<path d="M613 4429 c-11 -27 -15 -30 -28 -19 -20 17 -32 5 -15 -15 11 -13 10
-19 -5 -35 -20 -22 -13 -42 7 -22 7 7 16 12 20 12 18 0 6 -29 -27 -67 -19 -23
-35 -44 -35 -47 0 -15 24 -4 51 23 24 24 29 26 29 11 0 -41 -13 -80 -27 -80
-10 0 -13 -6 -9 -16 3 -9 6 -18 6 -20 0 -2 9 -4 19 -4 28 0 33 28 30 140 -3
85 -1 101 15 119 15 17 16 23 6 36 -18 22 -24 19 -37 -16z"/>
<path d="M693 4438 c-22 -11 -32 -51 -15 -61 19 -12 59 6 69 31 10 25 11 26
12 5 1 -13 6 -23 12 -23 6 0 9 12 7 27 -2 23 -8 28 -33 29 -16 1 -40 -3 -52
-8z m27 -28 c0 -5 -7 -10 -15 -10 -8 0 -15 5 -15 10 0 6 7 10 15 10 8 0 15 -4
15 -10z"/>
<path d="M323 4373 c-53 -7 -37 -23 22 -23 30 0 55 4 55 9 0 9 -26 22 -38 19
-4 0 -22 -3 -39 -5z"/>
<path d="M613 3979 c-11 -27 -15 -30 -28 -19 -20 17 -32 5 -15 -15 11 -13 10
-19 -5 -35 -20 -22 -13 -42 7 -22 7 7 16 12 20 12 18 0 6 -29 -27 -67 -19 -23
-35 -44 -35 -47 0 -15 24 -4 51 23 24 24 29 26 29 11 0 -41 -13 -80 -27 -80
-10 0 -13 -6 -9 -16 3 -9 6 -18 6 -20 0 -2 9 -4 19 -4 28 0 33 28 30 140 -3
85 -1 101 15 119 15 17 16 23 6 36 -18 22 -24 19 -37 -16z"/>
<path d="M799 4005 c-3 -2 -21 -5 -40 -6 -57 -2 -89 -18 -89 -45 0 -28 8 -34
41 -27 16 3 30 15 36 31 10 25 11 26 12 5 1 -28 21 -31 21 -3 0 11 7 20 15 20
8 0 15 -7 15 -15 0 -22 18 -18 31 6 9 17 8 23 -2 30 -15 10 -33 11 -40 4z
m-79 -45 c0 -5 -7 -10 -15 -10 -8 0 -15 5 -15 10 0 6 7 10 15 10 8 0 15 -4 15
-10z"/>
<path d="M613 3529 c-11 -27 -15 -30 -28 -19 -20 17 -32 5 -15 -15 11 -13 10
-19 -5 -35 -20 -22 -13 -42 7 -22 7 7 16 12 20 12 18 0 6 -29 -27 -67 -19 -23
-35 -44 -35 -47 0 -15 24 -4 51 23 24 24 29 26 29 11 0 -41 -13 -80 -27 -80
-10 0 -13 -6 -9 -16 3 -9 6 -18 6 -20 0 -2 9 -4 19 -4 28 0 33 28 30 140 -3
85 -1 101 15 119 15 17 16 23 6 36 -18 22 -24 19 -37 -16z"/>
<path d="M799 3555 c-3 -2 -21 -5 -40 -6 -57 -2 -89 -18 -89 -45 0 -28 8 -34
41 -27 16 3 30 15 36 31 10 25 11 26 12 5 1 -19 7 -23 34 -23 27 0 36 6 46 27
10 21 9 28 -1 34 -15 10 -32 11 -39 4z m11 -35 c0 -5 -7 -10 -15 -10 -8 0 -15
5 -15 10 0 6 7 10 15 10 8 0 15 -4 15 -10z m-90 -10 c0 -5 -7 -10 -15 -10 -8
0 -15 5 -15 10 0 6 7 10 15 10 8 0 15 -4 15 -10z"/>
<path d="M613 3079 c-11 -27 -15 -30 -28 -19 -20 17 -32 5 -15 -15 11 -13 10
-19 -5 -35 -20 -22 -13 -42 7 -22 7 7 16 12 20 12 18 0 6 -29 -27 -67 -19 -23
-35 -44 -35 -47 0 -15 24 -4 51 23 24 24 29 26 29 11 0 -41 -13 -80 -27 -80
-10 0 -13 -6 -9 -16 3 -9 6 -18 6 -20 0 -2 9 -4 19 -4 28 0 33 28 30 140 -3
85 -1 101 15 119 15 17 16 23 6 36 -18 22 -24 19 -37 -16z"/>
<path d="M799 3105 c-3 -2 -21 -5 -40 -6 -57 -2 -89 -18 -89 -45 0 -28 8 -34
41 -27 16 3 30 15 36 31 10 25 11 26 12 5 1 -19 7 -23 34 -23 27 0 36 6 46 27
10 21 9 28 -1 34 -15 10 -32 11 -39 4z m11 -35 c0 -5 -7 -10 -15 -10 -8 0 -15
5 -15 10 0 6 7 10 15 10 8 0 15 -4 15 -10z m-90 -10 c0 -5 -7 -10 -15 -10 -8
0 -15 5 -15 10 0 6 7 10 15 10 8 0 15 -4 15 -10z"/>
<path d="M773 3023 c-53 -7 -37 -23 22 -23 30 0 55 4 55 9 0 9 -26 22 -38 19
-4 0 -22 -3 -39 -5z"/>
<path d="M660 2994 c0 -11 5 -14 16 -10 9 3 24 6 35 6 10 0 19 5 19 10 0 6
-16 10 -35 10 -25 0 -35 -4 -35 -16z"/>
<path d="M613 2629 c-11 -27 -15 -30 -28 -19 -20 17 -32 5 -15 -15 11 -13 10
-19 -5 -35 -20 -22 -13 -42 7 -22 7 7 16 12 20 12 18 0 6 -29 -27 -67 -19 -23
-35 -44 -35 -47 0 -15 24 -4 51 23 24 24 29 26 29 11 0 -41 -13 -80 -27 -80
-10 0 -13 -6 -9 -16 3 -9 6 -18 6 -20 0 -2 9 -4 20 -4 11 0 20 4 20 9 0 5 8
11 18 13 19 5 42 66 42 111 0 38 10 57 31 57 10 0 19 5 19 10 0 6 -16 10 -35
10 -33 0 -35 -2 -35 -35 0 -18 -6 -58 -12 -87 l-13 -53 -6 100 c-5 90 -4 102
14 122 16 19 18 25 7 38 -18 22 -24 19 -37 -16z"/>
<path d="M799 2655 c-3 -2 -21 -5 -40 -6 -57 -2 -89 -18 -89 -45 0 -28 8 -34
41 -27 16 3 30 15 36 31 10 25 11 26 12 5 1 -19 7 -23 34 -23 27 0 36 6 46 27
10 21 9 28 -1 34 -15 10 -32 11 -39 4z m11 -35 c0 -5 -7 -10 -15 -10 -8 0 -15
5 -15 10 0 6 7 10 15 10 8 0 15 -4 15 -10z m-90 -10 c0 -5 -7 -10 -15 -10 -8
0 -15 5 -15 10 0 6 7 10 15 10 8 0 15 -4 15 -10z"/>
<path d="M773 2573 c-53 -7 -37 -23 22 -23 30 0 55 4 55 9 0 9 -26 22 -38 19
-4 0 -22 -3 -39 -5z"/>
<path d="M613 2179 c-11 -27 -15 -30 -28 -19 -20 17 -32 5 -15 -15 11 -13 10
-19 -5 -35 -20 -22 -13 -42 7 -22 7 7 16 12 20 12 18 0 6 -29 -27 -67 -19 -23
-35 -44 -35 -47 0 -15 24 -4 51 23 24 24 29 26 29 11 0 -41 -13 -80 -27 -80
-10 0 -13 -6 -9 -16 3 -9 6 -18 6 -20 0 -2 9 -4 20 -4 11 0 20 4 20 9 0 5 8
11 18 13 19 5 42 66 42 111 0 38 10 57 31 57 10 0 19 5 19 10 0 6 -16 10 -35
10 -33 0 -35 -2 -35 -35 0 -18 -6 -58 -12 -87 l-13 -53 -6 100 c-5 90 -4 102
14 122 16 19 18 25 7 38 -18 22 -24 19 -37 -16z"/>
<path d="M799 2205 c-3 -2 -21 -5 -40 -6 -57 -2 -89 -18 -89 -45 0 -28 8 -34
41 -27 16 3 30 15 36 31 10 25 11 26 12 5 1 -19 7 -23 34 -23 27 0 36 6 46 27
10 21 9 28 -1 34 -15 10 -32 11 -39 4z m11 -35 c0 -5 -7 -10 -15 -10 -8 0 -15
5 -15 10 0 6 7 10 15 10 8 0 15 -4 15 -10z m-90 -10 c0 -5 -7 -10 -15 -10 -8
0 -15 5 -15 10 0 6 7 10 15 10 8 0 15 -4 15 -10z"/>
<path d="M773 2123 c-53 -7 -37 -23 22 -23 30 0 55 4 55 9 0 9 -26 22 -38 19
-4 0 -22 -3 -39 -5z"/>
<path d="M700 2070 c0 -5 11 -10 25 -10 14 0 25 5 25 10 0 6 -11 10 -25 10
-14 0 -25 -4 -25 -10z"/>
<path d="M613 1729 c-11 -27 -15 -30 -28 -19 -20 17 -32 5 -15 -15 11 -13 10
-19 -5 -35 -20 -22 -13 -42 7 -22 7 7 16 12 20 12 18 0 6 -29 -27 -67 -19 -23
-35 -44 -35 -47 0 -15 24 -4 51 23 24 24 29 26 29 11 0 -41 -13 -80 -27 -80
-10 0 -13 -6 -9 -16 3 -9 6 -18 6 -20 0 -2 9 -4 20 -4 11 0 20 4 20 9 0 5 8
11 18 13 19 5 42 66 42 111 0 38 10 57 31 57 10 0 19 5 19 10 0 6 -16 10 -35
10 -33 0 -35 -2 -35 -35 0 -18 -6 -58 -12 -87 l-13 -53 -6 100 c-5 90 -4 102
14 122 16 19 18 25 7 38 -18 22 -24 19 -37 -16z"/>
<path d="M799 1755 c-3 -2 -21 -5 -40 -6 -57 -2 -89 -18 -89 -45 0 -28 8 -34
41 -27 16 3 30 15 36 31 10 25 11 26 12 5 1 -19 7 -23 34 -23 27 0 36 6 46 27
10 21 9 28 -1 34 -15 10 -32 11 -39 4z m11 -35 c0 -5 -7 -10 -15 -10 -8 0 -15
5 -15 10 0 6 7 10 15 10 8 0 15 -4 15 -10z m-90 -10 c0 -5 -7 -10 -15 -10 -8
0 -15 5 -15 10 0 6 7 10 15 10 8 0 15 -4 15 -10z"/>
<path d="M773 1673 c-53 -7 -37 -23 22 -23 30 0 55 4 55 9 0 9 -26 22 -38 19
-4 0 -22 -3 -39 -5z"/>
<path d="M704 1614 c3 -9 6 -20 6 -25 0 -5 5 -9 10 -9 6 0 10 7 10 15 0 8 5
15 10 15 6 0 10 5 10 10 0 6 -12 10 -26 10 -20 0 -25 -4 -20 -16z"/>
<path d="M613 1279 c-11 -27 -15 -30 -28 -19 -20 17 -32 5 -15 -15 11 -13 10
-19 -5 -35 -20 -22 -13 -42 7 -22 7 7 16 12 20 12 18 0 6 -29 -27 -67 -19 -23
-35 -44 -35 -47 0 -15 24 -4 51 23 24 24 29 26 29 11 0 -41 -13 -80 -27 -80
-10 0 -13 -6 -9 -16 3 -9 6 -18 6 -20 0 -2 9 -4 20 -4 11 0 20 4 20 9 0 5 8
11 18 13 12 3 23 22 31 51 13 46 28 57 79 57 12 0 22 5 22 10 0 6 -10 10 -22
11 -13 0 -17 3 -10 6 21 8 13 23 -14 23 -21 0 -24 -4 -19 -20 5 -14 2 -20 -9
-20 -9 0 -16 4 -16 9 0 23 14 41 31 41 10 0 19 5 19 10 0 6 -16 10 -35 10 -33
0 -35 -2 -35 -35 0 -18 -6 -58 -12 -87 l-13 -53 -6 100 c-5 90 -4 102 14 122
16 19 18 25 7 38 -18 22 -24 19 -37 -16z"/>
<path d="M799 1305 c-3 -2 -21 -5 -40 -6 -57 -2 -89 -18 -89 -45 0 -28 8 -34
41 -27 16 3 30 15 36 31 10 25 11 26 12 5 1 -19 7 -23 34 -23 27 0 36 6 46 27
10 21 9 28 -1 34 -15 10 -32 11 -39 4z m11 -35 c0 -5 -7 -10 -15 -10 -8 0 -15
5 -15 10 0 6 7 10 15 10 8 0 15 -4 15 -10z m-90 -10 c0 -5 -7 -10 -15 -10 -8
0 -15 5 -15 10 0 6 7 10 15 10 8 0 15 -4 15 -10z"/>
<path d="M773 1223 c-53 -7 -37 -23 22 -23 30 0 55 4 55 9 0 9 -26 22 -38 19
-4 0 -22 -3 -39 -5z"/>
<path d="M613 829 c-11 -27 -15 -30 -28 -19 -20 17 -32 5 -15 -15 11 -13 10
-19 -5 -35 -20 -22 -13 -42 7 -22 7 7 16 12 20 12 18 0 6 -29 -27 -67 -19 -23
-35 -44 -35 -47 0 -15 24 -4 51 23 24 24 29 26 29 11 0 -41 -13 -80 -27 -80
-10 0 -13 -6 -9 -16 3 -9 6 -18 6 -20 0 -2 9 -4 20 -4 11 0 20 4 20 9 0 5 7
11 17 13 9 2 24 24 34 53 l17 50 1 -47 c1 -27 6 -48 11 -48 6 0 10 23 10 50 0
49 1 50 30 50 34 0 42 20 8 21 -13 0 -17 3 -10 6 21 8 13 23 -14 23 -21 0 -24
-4 -19 -20 5 -14 2 -20 -9 -20 -9 0 -16 4 -16 9 0 23 14 41 31 41 10 0 19 5
19 10 0 6 -16 10 -35 10 -33 0 -35 -2 -35 -35 0 -18 -6 -58 -12 -87 l-13 -53
-6 100 c-5 90 -4 102 14 122 16 19 18 25 7 38 -18 22 -24 19 -37 -16z"/>
<path d="M799 855 c-3 -2 -21 -5 -40 -6 -57 -2 -89 -18 -89 -45 0 -28 8 -34
41 -27 16 3 30 15 36 31 10 25 11 26 12 5 1 -19 7 -23 34 -23 27 0 36 6 46 27
10 21 9 28 -1 34 -15 10 -32 11 -39 4z m11 -35 c0 -5 -7 -10 -15 -10 -8 0 -15
5 -15 10 0 6 7 10 15 10 8 0 15 -4 15 -10z m-90 -10 c0 -5 -7 -10 -15 -10 -8
0 -15 5 -15 10 0 6 7 10 15 10 8 0 15 -4 15 -10z"/>
<path d="M773 773 c-53 -7 -37 -23 22 -23 30 0 55 4 55 9 0 9 -26 22 -38 19
-4 0 -22 -3 -39 -5z"/>
<path d="M613 379 c-11 -27 -15 -30 -28 -19 -20 17 -32 5 -15 -15 11 -13 10
-19 -5 -35 -20 -22 -13 -42 7 -22 7 7 16 12 20 12 18 0 6 -29 -27 -67 -19 -23
-35 -44 -35 -47 0 -15 24 -4 51 23 24 24 29 26 29 11 0 -41 -13 -80 -27 -80
-10 0 -13 -6 -9 -16 3 -9 6 -18 6 -20 0 -2 9 -4 20 -4 11 0 20 4 20 9 0 5 7
11 17 13 9 2 24 24 34 53 l17 50 1 -47 c1 -27 6 -48 11 -48 6 0 10 23 10 50 0
28 5 50 10 50 6 0 10 -32 10 -75 0 -41 4 -75 9 -75 4 0 11 30 14 68 2 37 8 75
12 85 6 13 2 17 -16 18 -13 0 -18 3 -11 6 21 8 13 23 -14 23 -21 0 -24 -4 -19
-20 5 -14 2 -20 -9 -20 -9 0 -16 4 -16 9 0 23 14 41 31 41 10 0 19 5 19 10 0
6 -16 10 -35 10 -33 0 -35 -2 -35 -35 0 -18 -6 -58 -12 -87 l-13 -53 -6 100
c-5 90 -4 102 14 122 16 19 18 25 7 38 -18 22 -24 19 -37 -16z"/>
<path d="M799 405 c-3 -2 -21 -5 -40 -6 -57 -2 -89 -18 -89 -45 0 -28 8 -34
41 -27 16 3 30 15 36 31 10 25 11 26 12 5 1 -19 7 -23 34 -23 27 0 36 6 46 27
10 21 9 28 -1 34 -15 10 -32 11 -39 4z m11 -35 c0 -5 -7 -10 -15 -10 -8 0 -15
5 -15 10 0 6 7 10 15 10 8 0 15 -4 15 -10z m-90 -10 c0 -5 -7 -10 -15 -10 -8
0 -15 5 -15 10 0 6 7 10 15 10 8 0 15 -4 15 -10z"/>
<path d="M773 323 c-53 -7 -37 -23 22 -23 30 0 55 4 55 9 0 9 -26 22 -38 19
-4 0 -22 -3 -39 -5z"/>
</g>
</svg>
