<?xml version="1.0" standalone="no"?>
<!DOCTYPE svg PUBLIC "-//W3C//DTD SVG 20010904//EN"
 "http://www.w3.org/TR/2001/REC-SVG-20010904/DTD/svg10.dtd">
<svg version="1.0" xmlns="http://www.w3.org/2000/svg"
 width="50.000000pt" height="725.000000pt" viewBox="0 0 50.000000 725.000000"
 preserveAspectRatio="xMidYMid meet">
<metadata>
Created by potrace 1.16, written by Peter Selinger 2001-2019
</metadata>
<g transform="translate(0.000000,725.000000) scale(0.100000,-0.100000)"
fill="#000000" stroke="none">
<path d="M136 7111 c-43 -9 -47 -32 -4 -25 66 11 78 15 78 24 0 11 -28 11 -74
1z"/>
<path d="M136 6661 c-43 -9 -47 -32 -4 -25 66 11 78 15 78 24 0 11 -28 11 -74
1z"/>
<path d="M133 6577 c-62 -14 -55 -31 9 -23 59 8 63 10 53 25 -7 12 -4 12 -62
-2z"/>
<path d="M136 6211 c-16 -3 -31 -12 -34 -20 -3 -10 0 -12 12 -8 11 4 18 -1 22
-18 7 -30 -1 -45 -27 -45 -10 0 -19 -4 -19 -10 0 -5 11 -10 25 -10 22 0 25 -4
25 -35 0 -19 5 -35 10 -35 6 0 10 16 10 36 0 27 5 37 20 41 24 6 26 21 5 29
-22 9 -19 51 5 59 11 3 20 11 20 16 0 10 -29 10 -74 0z"/>
<path d="M136 5761 c-16 -3 -31 -12 -34 -20 -3 -10 0 -12 12 -8 11 4 18 -1 22
-18 7 -30 -1 -45 -27 -45 -10 0 -19 -4 -19 -10 0 -5 11 -10 25 -10 21 0 25 -5
25 -29 0 -25 -6 -32 -35 -42 -19 -7 -34 -18 -32 -24 7 -20 35 -16 81 12 47 29
62 49 26 38 -17 -5 -20 -2 -20 20 0 18 6 29 20 32 24 6 26 21 5 29 -22 9 -19
51 5 59 11 3 20 11 20 16 0 10 -29 10 -74 0z"/>
<path d="M268 5323 c-39 -6 -35 -23 5 -23 41 0 77 10 77 21 0 9 -31 10 -82 2z"/>
<path d="M136 5311 c-16 -3 -31 -12 -34 -20 -3 -10 0 -12 12 -8 11 4 18 -1 22
-18 7 -30 -1 -45 -27 -45 -10 0 -19 -4 -19 -10 0 -5 11 -10 25 -10 21 0 25 -5
25 -29 0 -25 -6 -32 -35 -42 -19 -7 -34 -18 -32 -24 7 -20 35 -16 81 12 47 29
62 49 26 38 -17 -5 -20 -2 -20 20 0 18 6 29 20 32 24 6 26 21 5 29 -22 9 -19
51 5 59 11 3 20 11 20 16 0 10 -29 10 -74 0z"/>
<path d="M268 4873 c-39 -6 -35 -23 5 -23 41 0 77 10 77 21 0 9 -31 10 -82 2z"/>
<path d="M136 4861 c-16 -3 -31 -12 -34 -20 -3 -10 0 -12 12 -8 11 4 18 -1 22
-18 7 -30 -1 -45 -27 -45 -10 0 -19 -4 -19 -10 0 -5 11 -10 25 -10 21 0 25 -5
25 -29 0 -25 -6 -32 -35 -42 -19 -7 -34 -18 -32 -24 7 -20 35 -16 81 12 47 29
62 49 26 38 -17 -5 -20 -2 -20 20 0 18 6 29 20 32 24 6 26 21 5 29 -22 9 -19
51 5 59 11 3 20 11 20 16 0 10 -29 10 -74 0z"/>
<path d="M281 4794 c-36 -8 -67 -16 -69 -19 -14 -14 14 -17 64 -6 32 6 70 11
87 11 18 0 27 4 25 13 -6 17 -33 18 -107 1z"/>
<path d="M268 4423 c-39 -6 -35 -23 5 -23 41 0 77 10 77 21 0 9 -31 10 -82 2z"/>
<path d="M136 4411 c-16 -3 -31 -12 -34 -20 -3 -10 0 -12 12 -8 11 4 18 -1 22
-18 7 -30 -1 -45 -27 -45 -10 0 -19 -4 -19 -10 0 -5 11 -10 25 -10 21 0 25 -5
25 -29 0 -25 -6 -32 -35 -42 -19 -7 -34 -18 -32 -24 7 -20 35 -16 81 12 47 29
62 49 26 38 -17 -5 -20 -2 -20 20 0 18 6 29 20 32 24 6 26 21 5 29 -22 9 -19
51 5 59 11 3 20 11 20 16 0 10 -29 10 -74 0z"/>
<path d="M335 4355 c-5 -2 -36 -9 -67 -15 -56 -11 -79 -30 -37 -30 26 0 19
-28 -22 -89 -17 -24 -28 -46 -24 -49 11 -12 66 54 83 100 17 49 30 58 90 58
22 0 32 4 30 13 -5 12 -34 19 -53 12z"/>
<path d="M268 3973 c-39 -6 -35 -23 5 -23 41 0 77 10 77 21 0 9 -31 10 -82 2z"/>
<path d="M136 3961 c-16 -3 -31 -12 -34 -20 -3 -10 0 -12 12 -8 11 4 18 -1 22
-18 7 -30 -1 -45 -27 -45 -10 0 -19 -4 -19 -10 0 -5 11 -10 25 -10 21 0 25 -5
25 -29 0 -25 -6 -32 -35 -42 -19 -7 -34 -18 -32 -24 7 -20 35 -16 81 12 47 29
62 49 26 38 -17 -5 -20 -2 -20 20 0 18 6 29 20 32 24 6 26 21 5 29 -22 9 -19
51 5 59 11 3 20 11 20 16 0 10 -29 10 -74 0z"/>
<path d="M335 3905 c-5 -2 -36 -9 -67 -15 -56 -11 -79 -30 -37 -30 26 0 19
-28 -22 -89 -17 -24 -28 -46 -24 -49 11 -12 66 55 83 100 9 27 20 48 24 48 5
0 8 -31 8 -68 0 -40 5 -73 12 -80 17 -17 103 -15 117 2 12 14 5 66 -8 66 -3 0
-11 -10 -16 -22 -12 -27 -56 -36 -73 -16 -7 9 -9 35 -5 71 6 55 7 57 35 57 19
0 28 4 26 13 -5 12 -34 19 -53 12z"/>
</g>
</svg>
