<?xml version="1.0" standalone="no"?>
<!DOCTYPE svg PUBLIC "-//W3C//DTD SVG 20010904//EN"
 "http://www.w3.org/TR/2001/REC-SVG-20010904/DTD/svg10.dtd">
<svg version="1.0" xmlns="http://www.w3.org/2000/svg"
 width="50.000000pt" height="725.000000pt" viewBox="0 0 50.000000 725.000000"
 preserveAspectRatio="xMidYMid meet">
<metadata>
Created by potrace 1.16, written by Peter Selinger 2001-2019
</metadata>
<g transform="translate(0.000000,725.000000) scale(0.100000,-0.100000)"
fill="#000000" stroke="none">
<path d="M128 7093 c-40 -6 -35 -23 6 -23 40 0 66 8 66 21 0 9 -21 10 -72 2z"/>
<path d="M128 6643 c-40 -6 -35 -23 6 -23 40 0 66 8 66 21 0 9 -21 10 -72 2z"/>
<path d="M131 6561 c-14 -4 -27 -13 -29 -20 -3 -9 2 -11 14 -8 11 3 34 8 52
12 17 4 32 11 32 16 0 10 -33 10 -69 0z"/>
<path d="M128 6193 c-31 -5 -37 -18 -13 -27 8 -3 15 -16 15 -30 0 -13 -7 -26
-15 -30 -8 -3 -15 -10 -15 -17 0 -6 7 -9 15 -5 12 4 15 -3 15 -30 0 -46 24
-41 28 5 2 23 10 35 23 38 25 7 25 23 -1 23 -11 0 -20 7 -20 15 0 8 9 24 20
35 11 11 20 22 20 25 0 5 -28 5 -72 -2z"/>
<path d="M128 5743 c-31 -5 -37 -18 -13 -27 8 -3 15 -16 15 -30 0 -13 -7 -26
-15 -30 -8 -3 -15 -10 -15 -17 0 -6 7 -9 15 -5 11 4 15 -2 15 -23 0 -23 -6
-31 -30 -40 -33 -11 -39 -26 -14 -35 17 -7 104 40 104 56 0 6 -7 8 -15 4 -11
-4 -15 2 -15 20 0 17 7 28 20 31 11 3 20 9 20 14 0 5 -9 9 -20 9 -11 0 -20 7
-20 15 0 8 9 24 20 35 11 11 20 22 20 25 0 5 -28 5 -72 -2z"/>
<path d="M226 5286 c-3 -13 -9 -31 -12 -40 -11 -28 15 -17 31 14 19 36 19 50
1 50 -8 0 -17 -11 -20 -24z"/>
<path d="M128 5293 c-31 -5 -37 -18 -13 -27 8 -3 15 -16 15 -30 0 -13 -7 -26
-15 -30 -8 -3 -15 -10 -15 -17 0 -6 7 -9 15 -5 11 4 15 -2 15 -23 0 -23 -6
-31 -30 -40 -33 -11 -39 -26 -14 -35 17 -7 104 40 104 56 0 6 -7 8 -15 4 -11
-4 -15 2 -15 20 0 17 7 28 20 31 11 3 20 9 20 14 0 5 -9 9 -20 9 -11 0 -20 7
-20 15 0 8 9 24 20 35 11 11 20 22 20 25 0 5 -28 5 -72 -2z"/>
<path d="M222 4823 c-13 -41 -7 -57 11 -32 7 10 35 19 70 23 31 4 57 12 57 18
0 7 -18 9 -50 5 -40 -5 -50 -3 -50 8 0 30 -27 14 -38 -22z"/>
<path d="M128 4843 c-31 -5 -37 -18 -13 -27 8 -3 15 -16 15 -30 0 -13 -7 -26
-15 -30 -8 -3 -15 -10 -15 -17 0 -6 7 -9 15 -5 11 4 15 -2 15 -23 0 -23 -6
-31 -30 -40 -33 -11 -39 -26 -14 -35 17 -7 104 40 104 56 0 6 -7 8 -15 4 -11
-4 -15 2 -15 20 0 17 7 28 20 31 11 3 20 9 20 14 0 5 -9 9 -20 9 -11 0 -20 7
-20 15 0 8 9 24 20 35 11 11 20 22 20 25 0 5 -28 5 -72 -2z"/>
<path d="M222 4373 c-13 -41 -7 -57 11 -32 7 10 35 19 70 23 31 4 57 12 57 18
0 7 -18 9 -50 5 -40 -5 -50 -3 -50 8 0 30 -27 14 -38 -22z"/>
<path d="M128 4393 c-31 -5 -37 -18 -13 -27 8 -3 15 -16 15 -30 0 -13 -7 -26
-15 -30 -8 -3 -15 -10 -15 -17 0 -6 7 -9 15 -5 11 4 15 -2 15 -23 0 -23 -6
-31 -30 -40 -33 -11 -39 -26 -14 -35 17 -7 104 40 104 56 0 6 -7 8 -15 4 -11
-4 -15 2 -15 20 0 28 24 42 44 25 9 -8 28 -8 66 -1 29 5 70 10 91 10 37 0 51
12 30 25 -6 3 -41 1 -78 -5 -80 -13 -153 -6 -153 16 0 8 9 23 20 34 11 11 20
22 20 25 0 5 -28 5 -72 -2z"/>
<path d="M278 3975 c3 -30 1 -45 -7 -45 -6 0 -11 7 -11 15 0 30 -27 14 -38
-22 -13 -42 -7 -57 12 -30 18 24 46 22 46 -3 0 -27 -20 -34 -75 -26 -51 8 -57
24 -24 57 27 27 20 32 -35 24 -47 -7 -58 -18 -31 -29 19 -7 19 -52 0 -60 -8
-3 -15 -10 -15 -17 0 -6 7 -9 15 -5 11 4 15 -2 15 -23 0 -23 -6 -31 -30 -40
-33 -11 -39 -26 -14 -35 17 -7 104 40 104 56 0 6 -7 8 -15 4 -11 -4 -15 2 -15
20 0 28 24 42 44 25 7 -6 27 -8 45 -5 l31 7 -6 -87 c-6 -75 -5 -86 9 -86 13 0
17 15 19 88 l3 87 48 3 c32 2 47 7 44 15 -3 8 -21 11 -51 9 -45 -3 -47 -2 -44
20 2 17 11 24 31 26 34 4 36 22 2 22 -22 0 -25 4 -25 40 0 32 -4 40 -19 40
-16 0 -18 -6 -13 -45z"/>
<path d="M278 3525 c3 -30 1 -45 -7 -45 -6 0 -11 7 -11 15 0 30 -27 14 -38
-22 -13 -42 -7 -57 12 -30 18 24 46 22 46 -3 0 -27 -20 -34 -75 -26 -51 8 -57
24 -24 57 27 27 20 32 -35 24 -47 -7 -58 -18 -31 -29 19 -7 19 -52 0 -60 -8
-3 -15 -10 -15 -17 0 -6 7 -9 15 -5 11 4 15 -2 15 -23 0 -23 -6 -31 -30 -40
-33 -11 -39 -26 -14 -35 17 -7 104 40 104 56 0 6 -7 8 -15 4 -11 -4 -15 2 -15
20 0 29 24 42 45 24 8 -6 23 -9 35 -5 30 10 24 -7 -20 -55 -45 -48 -46 -50
-26 -50 7 0 29 17 48 38 l35 39 -5 -69 c-4 -58 -2 -68 11 -68 13 0 17 15 19
88 l3 87 48 3 c32 2 47 7 44 15 -3 8 -21 11 -51 9 -45 -3 -47 -2 -44 20 2 17
11 24 31 26 34 4 36 22 2 22 -22 0 -25 4 -25 40 0 32 -4 40 -19 40 -16 0 -18
-6 -13 -45z"/>
<path d="M278 3075 c3 -30 1 -45 -7 -45 -6 0 -11 7 -11 15 0 30 -27 14 -38
-22 -13 -42 -7 -57 12 -30 18 24 46 22 46 -3 0 -27 -20 -34 -75 -26 -51 8 -57
24 -24 57 27 27 20 32 -35 24 -47 -7 -58 -18 -31 -29 19 -7 19 -52 0 -60 -8
-3 -15 -10 -15 -17 0 -6 7 -9 15 -5 11 4 15 -2 15 -23 0 -23 -6 -31 -30 -40
-33 -11 -39 -26 -14 -35 17 -7 104 40 104 56 0 6 -7 8 -15 4 -11 -4 -15 2 -15
20 0 29 24 42 45 24 8 -6 23 -9 35 -5 30 10 24 -7 -20 -55 -45 -48 -46 -50
-26 -50 7 0 29 17 48 38 l35 39 -5 -69 c-4 -58 -2 -68 12 -68 13 0 16 12 16
72 l0 71 29 -41 c37 -50 44 -54 76 -46 31 8 32 18 1 32 -29 13 -96 71 -96 83
0 5 21 9 46 9 32 0 44 4 41 13 -3 8 -20 11 -51 9 -45 -3 -47 -2 -44 20 2 17
11 24 31 26 34 4 36 22 2 22 -22 0 -25 4 -25 40 0 32 -4 40 -19 40 -16 0 -18
-6 -13 -45z"/>
</g>
</svg>
