<?xml version="1.0" standalone="no"?>
<!DOCTYPE svg PUBLIC "-//W3C//DTD SVG 20010904//EN"
 "http://www.w3.org/TR/2001/REC-SVG-20010904/DTD/svg10.dtd">
<svg version="1.0" xmlns="http://www.w3.org/2000/svg"
 width="50.000000pt" height="725.000000pt" viewBox="0 0 50.000000 725.000000"
 preserveAspectRatio="xMidYMid meet">
<metadata>
Created by potrace 1.16, written by Peter Selinger 2001-2019
</metadata>
<g transform="translate(0.000000,725.000000) scale(0.100000,-0.100000)"
fill="#000000" stroke="none">
<path d="M158 7153 c-31 -5 -38 -23 -9 -23 34 0 81 12 81 21 0 9 -22 10 -72 2z"/>
<path d="M158 6703 c-31 -5 -38 -23 -9 -23 34 0 81 12 81 21 0 9 -22 10 -72 2z"/>
<path d="M148 6653 c-10 -2 -18 -9 -18 -15 0 -6 10 -8 23 -4 12 3 32 6 45 6
12 0 22 5 22 10 0 10 -40 12 -72 3z"/>
<path d="M158 6253 c-29 -4 -39 -23 -13 -23 8 0 15 -7 15 -15 0 -8 -7 -15 -15
-15 -8 0 -15 -4 -15 -10 0 -5 9 -10 20 -10 11 0 20 -7 20 -15 0 -8 5 -15 10
-15 6 0 10 9 10 20 0 11 7 20 15 20 8 0 15 5 15 10 0 6 -7 10 -15 10 -8 0 -15
7 -15 15 0 8 9 15 20 15 11 0 20 5 20 10 0 10 -20 11 -72 3z"/>
<path d="M158 5803 c-29 -4 -39 -23 -13 -23 8 0 15 -7 15 -15 0 -8 -7 -15 -15
-15 -8 0 -15 -4 -15 -10 0 -5 9 -10 21 -10 33 0 16 -25 -19 -28 -18 -2 -32 -7
-32 -12 0 -18 23 -22 61 -10 33 11 38 16 33 37 -5 17 -2 23 10 23 9 0 16 5 16
10 0 6 -7 10 -15 10 -8 0 -15 7 -15 15 0 8 9 15 20 15 11 0 20 5 20 10 0 10
-20 11 -72 3z"/>
<path d="M210 5710 c0 -5 5 -10 10 -10 6 0 10 5 10 10 0 6 -4 10 -10 10 -5 0
-10 -4 -10 -10z"/>
<path d="M288 5363 c-21 -2 -38 -8 -38 -14 0 -10 53 -12 88 -3 26 7 30 25 5
22 -10 -1 -35 -3 -55 -5z"/>
<path d="M158 5353 c-29 -4 -39 -23 -13 -23 8 0 15 -7 15 -15 0 -8 -7 -15 -15
-15 -8 0 -15 -4 -15 -10 0 -5 9 -10 21 -10 33 0 16 -25 -19 -28 -18 -2 -32 -7
-32 -12 0 -18 23 -22 61 -10 33 11 38 16 33 37 -5 17 -2 23 10 23 9 0 16 5 16
10 0 6 -7 10 -15 10 -8 0 -15 7 -15 15 0 8 9 15 20 15 11 0 20 5 20 10 0 10
-20 11 -72 3z"/>
<path d="M210 5260 c0 -5 5 -10 10 -10 6 0 10 5 10 10 0 6 -4 10 -10 10 -5 0
-10 -4 -10 -10z"/>
<path d="M288 4913 c-21 -2 -38 -8 -38 -14 0 -10 53 -12 88 -3 26 7 30 25 5
22 -10 -1 -35 -3 -55 -5z"/>
<path d="M158 4903 c-29 -4 -39 -23 -13 -23 8 0 15 -7 15 -15 0 -8 -7 -15 -15
-15 -8 0 -15 -4 -15 -10 0 -5 9 -10 21 -10 33 0 16 -25 -19 -28 -18 -2 -32 -7
-32 -12 0 -18 23 -22 61 -10 33 11 38 16 33 37 -5 17 -2 23 10 23 9 0 16 5 16
10 0 6 -7 10 -15 10 -8 0 -15 7 -15 15 0 8 9 15 20 15 11 0 20 5 20 10 0 10
-20 11 -72 3z"/>
<path d="M283 4863 c-25 -5 -32 -23 -9 -23 29 0 76 13 76 21 0 9 -27 10 -67 2z"/>
<path d="M210 4810 c0 -5 5 -10 10 -10 6 0 10 5 10 10 0 6 -4 10 -10 10 -5 0
-10 -4 -10 -10z"/>
<path d="M288 4463 c-41 -5 -50 -18 -18 -26 23 -6 27 -27 5 -27 -8 0 -15 -4
-15 -10 0 -5 7 -10 15 -10 8 0 15 -7 15 -15 0 -22 17 -18 23 5 3 11 12 20 21
20 9 0 16 5 16 10 0 6 -7 10 -15 10 -22 0 -18 21 5 27 25 7 27 24 3 21 -10 -1
-35 -3 -55 -5z"/>
<path d="M158 4453 c-29 -4 -39 -23 -13 -23 8 0 15 -7 15 -15 0 -8 -7 -15 -15
-15 -8 0 -15 -4 -15 -10 0 -5 9 -10 21 -10 33 0 16 -25 -19 -28 -18 -2 -32 -7
-32 -12 0 -18 23 -22 61 -10 33 11 38 16 33 37 -5 17 -2 23 10 23 9 0 16 5 16
10 0 6 -7 10 -15 10 -8 0 -15 7 -15 15 0 8 9 15 20 15 11 0 20 5 20 10 0 10
-20 11 -72 3z"/>
<path d="M210 4360 c0 -5 5 -10 10 -10 6 0 10 5 10 10 0 6 -4 10 -10 10 -5 0
-10 -4 -10 -10z"/>
<path d="M288 4013 c-41 -5 -50 -18 -18 -26 23 -6 27 -27 5 -27 -8 0 -15 -4
-15 -10 0 -5 7 -10 15 -10 22 0 18 -21 -5 -27 -11 -3 -20 -9 -20 -14 0 -8 120
-1 130 8 10 9 -26 22 -47 16 -14 -3 -23 -1 -23 7 0 6 9 14 20 17 23 6 27 23 5
23 -22 0 -18 21 5 27 25 7 27 24 3 21 -10 -1 -35 -3 -55 -5z"/>
<path d="M158 4003 c-29 -4 -39 -23 -13 -23 8 0 15 -7 15 -15 0 -8 -7 -15 -15
-15 -8 0 -15 -4 -15 -10 0 -5 9 -10 21 -10 33 0 16 -25 -19 -28 -18 -2 -32 -7
-32 -12 0 -18 23 -22 61 -10 33 11 38 16 33 37 -5 17 -2 23 10 23 9 0 16 5 16
10 0 6 -7 10 -15 10 -8 0 -15 7 -15 15 0 8 9 15 20 15 11 0 20 5 20 10 0 10
-20 11 -72 3z"/>
<path d="M210 3910 c0 -5 5 -10 10 -10 6 0 10 5 10 10 0 6 -4 10 -10 10 -5 0
-10 -4 -10 -10z"/>
<path d="M288 3563 c-41 -5 -50 -18 -18 -26 23 -6 27 -27 5 -27 -8 0 -15 -4
-15 -10 0 -5 7 -10 15 -10 25 0 17 -20 -12 -31 -19 -7 -29 -7 -31 0 -2 6 -8
11 -14 11 -5 0 -7 -9 -3 -19 4 -14 -6 -32 -37 -64 -24 -24 -54 -51 -67 -60
-42 -28 -15 -31 32 -4 42 25 100 82 109 107 2 6 32 14 66 17 60 6 77 15 48 26
-8 3 -24 3 -35 0 -13 -3 -21 -1 -21 7 0 6 9 14 20 17 23 6 27 23 5 23 -22 0
-18 21 5 27 25 7 27 24 3 21 -10 -1 -35 -3 -55 -5z"/>
<path d="M158 3553 c-29 -4 -39 -23 -13 -23 8 0 15 -7 15 -15 0 -8 -7 -15 -15
-15 -8 0 -15 -4 -15 -10 0 -5 9 -10 21 -10 33 0 16 -25 -19 -28 -18 -2 -32 -7
-32 -12 0 -18 23 -22 61 -10 33 11 38 16 33 37 -5 17 -2 23 10 23 9 0 16 5 16
10 0 6 -7 10 -15 10 -8 0 -15 7 -15 15 0 8 9 15 20 15 11 0 20 5 20 10 0 10
-20 11 -72 3z"/>
<path d="M288 3113 c-41 -5 -50 -18 -18 -26 23 -6 27 -27 5 -27 -8 0 -15 -4
-15 -10 0 -5 7 -10 15 -10 25 0 17 -20 -12 -31 -19 -7 -29 -7 -31 0 -2 6 -8
11 -14 11 -5 0 -7 -9 -3 -19 4 -14 -6 -32 -37 -64 -24 -24 -54 -51 -67 -60
-14 -9 -22 -19 -18 -23 9 -9 87 39 121 75 l29 31 54 -51 c42 -40 59 -50 76
-45 12 3 30 6 40 6 30 0 18 16 -20 28 -39 12 -142 72 -143 83 0 8 54 19 96 19
19 0 34 4 34 9 0 13 -25 20 -49 14 -13 -3 -21 -1 -21 7 0 6 9 14 20 17 23 6
27 23 5 23 -22 0 -18 21 5 27 25 7 27 24 3 21 -10 -1 -35 -3 -55 -5z"/>
<path d="M158 3103 c-29 -4 -39 -23 -13 -23 8 0 15 -7 15 -15 0 -8 -7 -15 -15
-15 -8 0 -15 -4 -15 -10 0 -5 9 -10 21 -10 33 0 16 -25 -19 -28 -18 -2 -32 -7
-32 -12 0 -18 23 -22 61 -10 33 11 38 16 33 37 -5 17 -2 23 10 23 9 0 16 5 16
10 0 6 -7 10 -15 10 -8 0 -15 7 -15 15 0 8 9 15 20 15 11 0 20 5 20 10 0 10
-20 11 -72 3z"/>
<path d="M288 2663 c-41 -5 -50 -18 -18 -26 23 -6 27 -27 5 -27 -8 0 -15 -4
-15 -10 0 -5 7 -10 15 -10 25 0 17 -20 -12 -31 -19 -7 -29 -7 -31 0 -2 6 -8
11 -14 11 -5 0 -7 -9 -3 -19 4 -14 -6 -32 -37 -64 -24 -24 -54 -51 -67 -60
-14 -9 -22 -19 -18 -23 9 -9 87 39 121 75 l29 31 54 -51 c42 -40 59 -50 76
-45 12 3 30 6 40 6 30 0 18 16 -20 28 -39 12 -142 72 -143 83 0 8 54 19 96 19
19 0 34 4 34 9 0 13 -25 20 -49 14 -13 -3 -21 -1 -21 7 0 6 9 14 20 17 23 6
27 23 5 23 -22 0 -18 21 5 27 25 7 27 24 3 21 -10 -1 -35 -3 -55 -5z"/>
<path d="M158 2653 c-29 -4 -39 -23 -13 -23 8 0 15 -7 15 -15 0 -8 -7 -15 -15
-15 -8 0 -15 -4 -15 -10 0 -5 9 -10 21 -10 33 0 16 -25 -19 -28 -18 -2 -32 -7
-32 -12 0 -18 23 -22 61 -10 33 11 38 16 33 37 -5 17 -2 23 10 23 9 0 16 5 16
10 0 6 -7 10 -15 10 -8 0 -15 7 -15 15 0 8 9 15 20 15 11 0 20 5 20 10 0 10
-20 11 -72 3z"/>
<path d="M210 2460 c0 -5 11 -10 25 -10 14 0 25 5 25 10 0 6 -11 10 -25 10
-14 0 -25 -4 -25 -10z"/>
<path d="M288 2213 c-41 -5 -50 -18 -18 -26 23 -6 27 -27 5 -27 -8 0 -15 -4
-15 -10 0 -5 7 -10 15 -10 25 0 17 -20 -12 -31 -19 -7 -29 -7 -31 0 -2 6 -8
11 -14 11 -5 0 -7 -9 -3 -19 4 -14 -6 -32 -37 -64 -24 -24 -54 -51 -67 -60
-14 -9 -22 -19 -18 -23 9 -9 87 39 121 75 l29 31 54 -51 c42 -40 59 -50 76
-45 12 3 30 6 40 6 30 0 18 16 -20 28 -39 12 -142 72 -143 83 0 8 54 19 96 19
19 0 34 4 34 9 0 13 -25 20 -49 14 -13 -3 -21 -1 -21 7 0 6 9 14 20 17 23 6
27 23 5 23 -22 0 -18 21 5 27 25 7 27 24 3 21 -10 -1 -35 -3 -55 -5z"/>
<path d="M158 2203 c-29 -4 -39 -23 -13 -23 8 0 15 -7 15 -15 0 -8 -7 -15 -15
-15 -8 0 -15 -4 -15 -10 0 -5 9 -10 21 -10 33 0 16 -25 -19 -28 -18 -2 -32 -7
-32 -12 0 -18 23 -22 61 -10 33 11 38 16 33 37 -5 17 -2 23 10 23 9 0 16 5 16
10 0 6 -7 10 -15 10 -8 0 -15 7 -15 15 0 8 9 15 20 15 11 0 20 5 20 10 0 10
-20 11 -72 3z"/>
<path d="M210 2010 c0 -5 11 -10 25 -10 14 0 25 5 25 10 0 6 -11 10 -25 10
-14 0 -25 -4 -25 -10z"/>
<path d="M223 1977 c-50 -10 -63 -19 -45 -31 4 -3 26 -1 47 4 22 5 41 7 43 5
3 -2 -6 -20 -18 -40 -12 -20 -19 -39 -15 -43 12 -12 76 70 73 93 -4 24 -16 25
-85 12z"/>
</g>
</svg>
