<?xml version="1.0" standalone="no"?>
<!DOCTYPE svg PUBLIC "-//W3C//DTD SVG 20010904//EN"
 "http://www.w3.org/TR/2001/REC-SVG-20010904/DTD/svg10.dtd">
<svg version="1.0" xmlns="http://www.w3.org/2000/svg"
 width="50.000000pt" height="725.000000pt" viewBox="0 0 50.000000 725.000000"
 preserveAspectRatio="xMidYMid meet">
<metadata>
Created by potrace 1.16, written by Peter Selinger 2001-2019
</metadata>
<g transform="translate(0.000000,725.000000) scale(0.100000,-0.100000)"
fill="#000000" stroke="none">
<path d="M138 7097 c-50 -11 -65 -27 -25 -27 49 0 97 13 97 26 0 16 -5 16 -72
1z"/>
<path d="M138 6647 c-50 -11 -65 -27 -25 -27 49 0 97 13 97 26 0 16 -5 16 -72
1z"/>
<path d="M138 6563 c-16 -2 -28 -9 -28 -14 0 -10 43 -12 78 -3 12 4 22 10 22
15 0 9 -22 10 -72 2z"/>
<path d="M138 6197 c-51 -11 -64 -27 -23 -27 21 0 25 -5 25 -30 0 -20 -5 -30
-15 -30 -8 0 -15 -4 -15 -10 0 -5 7 -10 15 -10 10 0 15 -11 15 -35 0 -24 5
-35 15 -35 11 0 15 11 15 36 0 27 5 37 20 41 11 3 20 9 20 14 0 5 -9 9 -20 9
-16 0 -20 7 -20 30 0 23 4 30 20 30 11 0 20 7 20 15 0 17 -4 17 -72 2z"/>
<path d="M138 5747 c-51 -11 -64 -27 -23 -27 21 0 25 -5 25 -30 0 -20 -5 -30
-15 -30 -8 0 -15 -4 -15 -10 0 -5 7 -10 15 -10 10 0 15 -10 15 -33 0 -29 -5
-35 -35 -46 -38 -13 -44 -25 -19 -35 10 -4 35 5 60 21 42 27 55 43 34 43 -5 0
-10 12 -10 26 0 17 6 28 20 31 11 3 20 9 20 14 0 5 -9 9 -20 9 -16 0 -20 7
-20 30 0 23 4 30 20 30 11 0 20 7 20 15 0 17 -4 17 -72 2z"/>
<path d="M292 5345 c-18 -13 -38 -26 -45 -28 -7 -2 -9 -8 -5 -12 4 -4 30 1 58
10 36 12 50 22 48 33 -5 23 -20 23 -56 -3z"/>
<path d="M138 5297 c-51 -11 -64 -27 -23 -27 21 0 25 -5 25 -30 0 -20 -5 -30
-15 -30 -8 0 -15 -4 -15 -10 0 -5 7 -10 15 -10 10 0 15 -10 15 -33 0 -29 -5
-35 -35 -46 -38 -13 -44 -25 -19 -35 10 -4 35 5 60 21 42 27 55 43 34 43 -5 0
-10 12 -10 26 0 17 6 28 20 31 11 3 20 9 20 14 0 5 -9 9 -20 9 -16 0 -20 7
-20 30 0 23 4 30 20 30 11 0 20 7 20 15 0 17 -4 17 -72 2z"/>
<path d="M292 4895 c-18 -13 -38 -26 -45 -28 -7 -2 -9 -8 -5 -12 4 -4 30 1 58
10 36 12 50 22 48 33 -5 23 -20 23 -56 -3z"/>
<path d="M138 4847 c-51 -11 -64 -27 -23 -27 21 0 25 -5 25 -30 0 -20 -5 -30
-15 -30 -8 0 -15 -4 -15 -10 0 -5 7 -10 15 -10 10 0 15 -10 15 -33 0 -29 -5
-35 -35 -46 -38 -13 -44 -25 -19 -35 10 -4 35 5 60 21 42 27 55 43 34 43 -5 0
-10 12 -10 26 0 17 6 28 20 31 11 3 20 9 20 14 0 5 -9 9 -20 9 -16 0 -20 7
-20 30 0 23 4 30 20 30 11 0 20 7 20 15 0 17 -4 17 -72 2z"/>
<path d="M220 4821 c0 -12 29 -35 36 -28 11 10 -5 37 -21 37 -8 0 -15 -4 -15
-9z"/>
<path d="M292 4445 c-18 -13 -38 -26 -45 -28 -7 -2 -9 -8 -5 -12 4 -4 30 1 58
10 36 12 50 22 48 33 -5 23 -20 23 -56 -3z"/>
<path d="M138 4397 c-51 -11 -64 -27 -23 -27 21 0 25 -5 25 -30 0 -20 -5 -30
-15 -30 -8 0 -15 -4 -15 -10 0 -5 7 -10 15 -10 10 0 15 -10 15 -33 0 -29 -5
-35 -35 -46 -38 -13 -44 -25 -19 -35 10 -4 35 5 60 21 42 27 55 43 34 43 -5 0
-10 12 -10 26 0 17 6 28 20 31 11 3 20 9 20 14 0 5 -9 9 -20 9 -16 0 -20 7
-20 30 0 23 4 30 20 30 11 0 20 7 20 15 0 17 -4 17 -72 2z"/>
<path d="M270 4385 c0 -16 27 -32 37 -21 7 7 -16 36 -28 36 -5 0 -9 -7 -9 -15z"/>
<path d="M220 4371 c0 -12 29 -35 36 -28 11 10 -5 37 -21 37 -8 0 -15 -4 -15
-9z"/>
<path d="M292 3995 c-18 -13 -38 -26 -45 -28 -7 -2 -9 -8 -5 -12 4 -4 30 1 58
10 36 12 50 22 48 33 -5 23 -20 23 -56 -3z"/>
<path d="M345 3950 c-10 -11 -15 -23 -12 -27 11 -10 59 16 55 29 -7 20 -24 19
-43 -2z"/>
<path d="M138 3947 c-51 -11 -64 -27 -23 -27 21 0 25 -5 25 -30 0 -20 -5 -30
-15 -30 -8 0 -15 -4 -15 -10 0 -5 7 -10 15 -10 10 0 15 -10 15 -33 0 -29 -5
-35 -35 -46 -38 -13 -44 -25 -19 -35 10 -4 35 5 60 21 42 27 55 43 34 43 -5 0
-10 12 -10 26 0 17 6 28 20 31 11 3 20 9 20 14 0 5 -9 9 -20 9 -16 0 -20 7
-20 30 0 23 4 30 20 30 11 0 20 7 20 15 0 17 -4 17 -72 2z"/>
<path d="M270 3935 c0 -16 27 -32 37 -21 7 7 -16 36 -28 36 -5 0 -9 -7 -9 -15z"/>
<path d="M220 3921 c0 -12 29 -35 36 -28 11 10 -5 37 -21 37 -8 0 -15 -4 -15
-9z"/>
<path d="M292 3545 c-18 -13 -38 -26 -45 -28 -7 -2 -9 -8 -5 -12 4 -4 30 1 58
10 36 12 50 22 48 33 -5 23 -20 23 -56 -3z"/>
<path d="M345 3500 c-10 -11 -15 -23 -12 -27 11 -10 59 16 55 29 -7 20 -24 19
-43 -2z"/>
<path d="M138 3497 c-51 -11 -64 -27 -23 -27 21 0 25 -5 25 -30 0 -20 -5 -30
-15 -30 -8 0 -15 -4 -15 -10 0 -5 7 -10 15 -10 10 0 15 -10 15 -33 0 -29 -5
-35 -35 -46 -38 -13 -44 -25 -19 -35 10 -4 35 5 60 21 42 27 55 43 34 43 -5 0
-10 12 -10 26 0 17 6 28 20 31 11 3 20 9 20 14 0 5 -9 9 -20 9 -16 0 -20 7
-20 30 0 23 4 30 20 30 11 0 20 7 20 15 0 17 -4 17 -72 2z"/>
<path d="M270 3485 c0 -16 27 -32 37 -21 7 7 -16 36 -28 36 -5 0 -9 -7 -9 -15z"/>
<path d="M220 3471 c0 -6 4 -12 10 -16 5 -3 7 -12 3 -20 -3 -11 2 -15 18 -15
49 0 100 13 96 24 -4 12 -21 12 -61 2 -18 -4 -25 -1 -29 14 -5 20 -37 29 -37
11z"/>
<path d="M292 3095 c-18 -13 -38 -26 -45 -28 -7 -2 -9 -8 -5 -12 4 -4 30 1 58
10 36 12 50 22 48 33 -5 23 -20 23 -56 -3z"/>
<path d="M345 3050 c-10 -11 -15 -23 -12 -27 11 -10 59 16 55 29 -7 20 -24 19
-43 -2z"/>
<path d="M138 3047 c-51 -11 -64 -27 -23 -27 21 0 25 -5 25 -30 0 -20 -5 -30
-15 -30 -8 0 -15 -4 -15 -10 0 -5 7 -10 15 -10 10 0 15 -10 15 -33 0 -29 -5
-35 -35 -46 -38 -13 -44 -25 -19 -35 10 -4 35 5 60 21 42 27 55 43 34 43 -5 0
-10 12 -10 26 0 17 6 28 20 31 11 3 20 9 20 14 0 5 -9 9 -20 9 -16 0 -20 7
-20 30 0 23 4 30 20 30 11 0 20 7 20 15 0 17 -4 17 -72 2z"/>
<path d="M270 3035 c0 -16 27 -32 37 -21 7 7 -16 36 -28 36 -5 0 -9 -7 -9 -15z"/>
<path d="M220 3021 c0 -6 4 -12 10 -16 5 -3 7 -12 3 -20 -3 -11 2 -15 18 -15
49 0 100 13 96 24 -4 12 -21 12 -61 2 -18 -4 -25 -1 -29 14 -5 20 -37 29 -37
11z"/>
<path d="M287 2946 c-37 -7 -70 -16 -74 -19 -14 -14 6 -17 48 -8 24 6 64 11
87 11 30 0 42 4 40 13 -6 17 -22 17 -101 3z"/>
<path d="M292 2645 c-18 -13 -38 -26 -45 -28 -7 -2 -9 -8 -5 -12 4 -4 30 1 58
10 36 12 50 22 48 33 -5 23 -20 23 -56 -3z"/>
<path d="M345 2600 c-10 -11 -15 -23 -12 -27 11 -10 59 16 55 29 -7 20 -24 19
-43 -2z"/>
<path d="M138 2597 c-51 -11 -64 -27 -23 -27 21 0 25 -5 25 -30 0 -20 -5 -30
-15 -30 -8 0 -15 -4 -15 -10 0 -5 7 -10 15 -10 10 0 15 -10 15 -33 0 -29 -5
-35 -35 -46 -38 -13 -44 -25 -19 -35 10 -4 35 5 60 21 42 27 55 43 34 43 -5 0
-10 12 -10 26 0 17 6 28 20 31 11 3 20 9 20 14 0 5 -9 9 -20 9 -16 0 -20 7
-20 30 0 23 4 30 20 30 11 0 20 7 20 15 0 17 -4 17 -72 2z"/>
<path d="M270 2585 c0 -16 27 -32 37 -21 7 7 -16 36 -28 36 -5 0 -9 -7 -9 -15z"/>
<path d="M220 2571 c0 -6 4 -12 10 -16 5 -3 7 -12 3 -20 -3 -9 1 -15 11 -15
24 0 19 -19 -9 -32 -29 -13 -32 -25 -8 -30 14 -3 9 -13 -26 -51 -24 -26 -41
-50 -37 -54 10 -10 58 29 83 68 37 56 42 59 94 59 36 0 49 4 46 13 -3 8 -20
11 -52 9 -36 -3 -46 -1 -43 10 3 7 17 14 32 16 16 2 25 8 23 15 -4 13 -20 13
-61 3 -18 -4 -25 -1 -29 14 -5 20 -37 29 -37 11z"/>
<path d="M292 2195 c-18 -13 -38 -26 -45 -28 -7 -2 -9 -8 -5 -12 4 -4 30 1 58
10 36 12 50 22 48 33 -5 23 -20 23 -56 -3z"/>
<path d="M345 2150 c-10 -11 -15 -23 -12 -27 11 -10 59 16 55 29 -7 20 -24 19
-43 -2z"/>
<path d="M138 2147 c-51 -11 -64 -27 -23 -27 21 0 25 -5 25 -30 0 -20 -5 -30
-15 -30 -8 0 -15 -4 -15 -10 0 -5 7 -10 15 -10 10 0 15 -10 15 -33 0 -29 -5
-35 -35 -46 -38 -13 -44 -25 -19 -35 10 -4 35 5 60 21 42 27 55 43 34 43 -5 0
-10 12 -10 26 0 17 6 28 20 31 11 3 20 9 20 14 0 5 -9 9 -20 9 -16 0 -20 7
-20 30 0 23 4 30 20 30 11 0 20 7 20 15 0 17 -4 17 -72 2z"/>
<path d="M270 2135 c0 -16 27 -32 37 -21 7 7 -16 36 -28 36 -5 0 -9 -7 -9 -15z"/>
<path d="M220 2121 c0 -6 4 -12 10 -16 5 -3 7 -12 3 -20 -3 -9 1 -15 11 -15
24 0 19 -19 -9 -32 -29 -13 -32 -25 -8 -30 14 -3 9 -13 -26 -51 -24 -26 -41
-50 -38 -53 9 -9 43 13 69 44 25 31 78 49 78 27 0 -15 -39 -58 -65 -73 -30
-16 -10 -26 24 -13 33 14 96 96 85 112 -4 7 -21 9 -45 5 -22 -3 -39 -2 -39 3
0 14 27 21 77 21 31 0 43 4 40 13 -3 8 -20 11 -52 9 -36 -3 -46 -1 -43 10 3 7
17 14 32 16 16 2 25 8 23 15 -4 13 -20 13 -61 3 -18 -4 -25 -1 -29 14 -5 20
-37 29 -37 11z"/>
<path d="M292 1745 c-18 -13 -38 -26 -45 -28 -7 -2 -9 -8 -5 -12 4 -4 30 1 58
10 36 12 50 22 48 33 -5 23 -20 23 -56 -3z"/>
<path d="M345 1700 c-10 -11 -15 -23 -12 -27 11 -10 59 16 55 29 -7 20 -24 19
-43 -2z"/>
<path d="M138 1697 c-51 -11 -64 -27 -23 -27 21 0 25 -5 25 -30 0 -20 -5 -30
-15 -30 -8 0 -15 -4 -15 -10 0 -5 7 -10 15 -10 10 0 15 -10 15 -33 0 -29 -5
-35 -35 -46 -38 -13 -44 -25 -19 -35 10 -4 35 5 60 21 42 27 55 43 34 43 -5 0
-10 12 -10 26 0 17 6 28 20 31 11 3 20 9 20 14 0 5 -9 9 -20 9 -16 0 -20 7
-20 30 0 23 4 30 20 30 11 0 20 7 20 15 0 17 -4 17 -72 2z"/>
<path d="M270 1685 c0 -16 27 -32 37 -21 7 7 -16 36 -28 36 -5 0 -9 -7 -9 -15z"/>
<path d="M220 1671 c0 -6 4 -12 10 -16 5 -3 7 -12 3 -20 -3 -9 1 -15 11 -15
24 0 19 -19 -9 -32 -29 -13 -32 -25 -8 -30 14 -3 10 -12 -25 -49 -23 -26 -42
-49 -42 -53 0 -15 23 -4 59 29 37 34 39 34 55 16 17 -18 16 -20 -13 -37 -53
-31 -35 -47 21 -18 28 15 31 14 53 -6 20 -18 30 -21 64 -15 23 4 41 10 41 14
0 4 -19 12 -42 19 -68 18 -75 26 -54 56 23 36 12 50 -35 42 -22 -3 -39 -2 -39
3 0 14 27 21 77 21 31 0 43 4 40 13 -3 8 -20 11 -52 9 -36 -3 -46 -1 -43 10 3
7 17 14 32 16 16 2 25 8 23 15 -4 13 -20 13 -61 3 -18 -4 -25 -1 -29 14 -5 20
-37 29 -37 11z m87 -158 c-3 -3 -11 -2 -17 2 -9 6 -9 10 1 16 14 8 27 -7 16
-18z"/>
</g>
</svg>
