<?xml version="1.0" standalone="no"?>
<!DOCTYPE svg PUBLIC "-//W3C//DTD SVG 20010904//EN"
 "http://www.w3.org/TR/2001/REC-SVG-20010904/DTD/svg10.dtd">
<svg version="1.0" xmlns="http://www.w3.org/2000/svg"
 width="50.000000pt" height="725.000000pt" viewBox="0 0 50.000000 725.000000"
 preserveAspectRatio="xMidYMid meet">
<metadata>
Created by potrace 1.16, written by Peter Selinger 2001-2019
</metadata>
<g transform="translate(0.000000,725.000000) scale(0.100000,-0.100000)"
fill="#000000" stroke="none">
<path d="M133 7098 c-63 -14 -55 -31 10 -23 59 8 62 9 52 24 -7 12 -5 12 -62
-1z"/>
<path d="M133 6648 c-63 -14 -55 -31 10 -23 59 8 62 9 52 24 -7 12 -5 12 -62
-1z"/>
<path d="M128 6563 c-33 -5 -37 -23 -5 -23 33 0 67 11 67 21 0 9 -12 9 -62 2z"/>
<path d="M133 6198 c-44 -9 -59 -28 -23 -28 16 0 20 -7 20 -30 0 -20 -5 -30
-15 -30 -8 0 -15 -4 -15 -10 0 -5 7 -10 15 -10 11 0 15 -11 15 -36 0 -48 24
-40 28 9 2 24 8 37 18 37 8 0 14 5 14 10 0 6 -7 10 -15 10 -10 0 -15 10 -15
30 0 24 4 30 21 30 11 0 19 5 17 12 -6 16 -16 17 -65 6z"/>
<path d="M133 5748 c-44 -9 -59 -28 -23 -28 16 0 20 -7 20 -30 0 -20 -5 -30
-15 -30 -8 0 -15 -4 -15 -10 0 -5 7 -10 15 -10 10 0 15 -10 15 -30 0 -24 -6
-33 -26 -40 -26 -10 -28 -33 -3 -37 20 -4 88 57 72 64 -19 7 -16 53 2 53 8 0
15 5 15 10 0 6 -7 10 -15 10 -10 0 -15 10 -15 30 0 24 4 30 21 30 11 0 19 5
17 12 -6 16 -16 17 -65 6z"/>
<path d="M303 5307 c-61 -14 -54 -30 10 -22 59 8 62 9 52 24 -7 12 -4 12 -62
-2z"/>
<path d="M133 5298 c-44 -9 -59 -28 -23 -28 16 0 20 -7 20 -30 0 -20 -5 -30
-15 -30 -8 0 -15 -4 -15 -10 0 -5 7 -10 15 -10 10 0 15 -10 15 -30 0 -24 -6
-33 -26 -40 -26 -10 -28 -33 -3 -37 20 -4 88 57 72 64 -19 7 -16 53 2 53 8 0
15 5 15 10 0 6 -7 10 -15 10 -10 0 -15 10 -15 30 0 24 4 30 21 30 11 0 19 5
17 12 -6 16 -16 17 -65 6z"/>
<path d="M303 4857 c-61 -14 -54 -30 10 -22 59 8 62 9 52 24 -7 12 -4 12 -62
-2z"/>
<path d="M133 4848 c-44 -9 -59 -28 -23 -28 16 0 20 -7 20 -30 0 -20 -5 -30
-15 -30 -8 0 -15 -4 -15 -10 0 -5 7 -10 15 -10 10 0 15 -10 15 -30 0 -24 -6
-33 -26 -40 -26 -10 -28 -33 -3 -37 20 -4 88 57 72 64 -19 7 -16 53 2 53 8 0
15 5 15 10 0 6 -7 10 -15 10 -10 0 -15 10 -15 30 0 24 4 30 21 30 11 0 19 5
17 12 -6 16 -16 17 -65 6z"/>
<path d="M254 4768 c7 -45 12 -55 22 -45 10 9 -7 87 -18 87 -7 0 -8 -15 -4
-42z"/>
<path d="M303 4407 c-61 -14 -54 -30 10 -22 59 8 62 9 52 24 -7 12 -4 12 -62
-2z"/>
<path d="M133 4398 c-44 -9 -59 -28 -23 -28 16 0 20 -7 20 -30 0 -20 -5 -30
-15 -30 -8 0 -15 -4 -15 -10 0 -5 7 -10 15 -10 10 0 15 -10 15 -30 0 -24 -6
-33 -26 -40 -26 -10 -28 -33 -3 -37 20 -4 88 57 72 64 -19 7 -16 53 2 53 8 0
15 5 15 10 0 6 -7 10 -15 10 -10 0 -15 10 -15 30 0 24 4 30 21 30 11 0 19 5
17 12 -6 16 -16 17 -65 6z"/>
<path d="M328 4373 c-27 -7 -22 -23 6 -23 23 0 24 -3 19 -36 -8 -48 17 -43 30
5 14 55 0 69 -55 54z"/>
<path d="M250 4346 c0 -7 3 -28 6 -45 9 -43 28 -40 21 4 -3 19 -2 35 4 35 5 0
9 5 9 10 0 6 -9 10 -20 10 -11 0 -20 -6 -20 -14z"/>
<path d="M303 3957 c-61 -14 -54 -30 10 -22 59 8 62 9 52 24 -7 12 -4 12 -62
-2z"/>
<path d="M133 3948 c-44 -9 -59 -28 -23 -28 16 0 20 -7 20 -30 0 -20 -5 -30
-15 -30 -8 0 -15 -4 -15 -10 0 -5 7 -10 15 -10 10 0 15 -10 15 -30 0 -24 -6
-33 -26 -40 -26 -10 -28 -33 -3 -37 20 -4 88 57 72 64 -19 7 -16 53 2 53 8 0
15 5 15 10 0 6 -7 10 -15 10 -10 0 -15 10 -15 30 0 24 4 30 21 30 11 0 19 5
17 12 -6 16 -16 17 -65 6z"/>
<path d="M328 3923 c-28 -7 -21 -23 10 -24 l27 -1 -25 -8 c-27 -9 -83 -12 -62
-3 19 8 14 23 -8 23 -21 0 -24 -9 -14 -59 7 -34 24 -42 24 -11 0 13 7 20 19
20 11 0 26 3 35 6 12 4 16 0 16 -16 0 -32 23 -19 33 19 14 55 0 69 -55 54z"/>
<path d="M303 3507 c-61 -14 -54 -30 10 -22 59 8 62 9 52 24 -7 12 -4 12 -62
-2z"/>
<path d="M133 3498 c-44 -9 -59 -28 -23 -28 16 0 20 -7 20 -30 0 -20 -5 -30
-15 -30 -8 0 -15 -4 -15 -10 0 -5 7 -10 15 -10 10 0 15 -10 15 -30 0 -24 -6
-33 -26 -40 -26 -10 -28 -33 -3 -37 20 -4 88 57 72 64 -19 7 -16 53 2 53 8 0
15 5 15 10 0 6 -7 10 -15 10 -10 0 -15 10 -15 30 0 24 4 30 21 30 11 0 19 5
17 12 -6 16 -16 17 -65 6z"/>
<path d="M328 3473 c-28 -7 -21 -23 10 -24 l27 -1 -25 -8 c-27 -9 -83 -12 -62
-3 20 8 14 23 -9 23 -20 0 -21 -4 -15 -42 4 -23 8 -43 9 -44 1 0 26 2 56 5 52
6 55 8 64 40 14 55 0 69 -55 54z m22 -63 c0 -5 -17 -9 -37 -9 -38 1 -38 1 -8
9 43 11 45 11 45 0z"/>
<path d="M303 3057 c-61 -14 -54 -30 10 -22 59 8 62 9 52 24 -7 12 -4 12 -62
-2z"/>
<path d="M133 3048 c-44 -9 -59 -28 -23 -28 16 0 20 -7 20 -30 0 -20 -5 -30
-15 -30 -8 0 -15 -4 -15 -10 0 -5 7 -10 15 -10 10 0 15 -10 15 -30 0 -24 -6
-33 -26 -40 -26 -10 -28 -33 -3 -37 20 -4 88 57 72 64 -19 7 -16 53 2 53 8 0
15 5 15 10 0 6 -7 10 -15 10 -10 0 -15 10 -15 30 0 24 4 30 21 30 11 0 19 5
17 12 -6 16 -16 17 -65 6z"/>
<path d="M328 3023 c-28 -7 -21 -23 10 -24 l27 -1 -25 -8 c-27 -9 -83 -12 -62
-3 20 8 14 23 -9 23 -20 0 -21 -4 -15 -42 4 -23 8 -43 9 -44 1 0 26 2 56 5 52
6 55 8 64 40 14 55 0 69 -55 54z m22 -63 c0 -5 -17 -9 -37 -9 -38 1 -38 1 -8
9 43 11 45 11 45 0z"/>
<path d="M306 2911 c-38 -4 -61 -11 -64 -20 -4 -10 1 -12 19 -8 13 4 53 7 87
7 46 0 63 3 60 13 -5 14 -24 16 -102 8z"/>
<path d="M296 2631 c6 -27 4 -31 -15 -31 -11 0 -21 -4 -21 -10 0 -5 9 -10 20
-10 11 0 20 -4 20 -10 0 -5 -11 -10 -25 -10 -27 0 -29 -8 -19 -59 5 -25 10
-30 25 -26 11 4 19 2 19 -4 0 -5 -12 -11 -27 -13 -14 -2 -28 -9 -31 -17 -3
-10 3 -11 27 -6 28 6 31 4 31 -19 0 -14 5 -26 10 -26 6 0 10 11 10 25 0 23 4
25 46 25 54 0 58 24 3 26 -50 1 -58 6 -25 13 23 5 32 14 38 40 12 46 4 64 -27
59 -14 -3 -25 -1 -25 3 0 5 9 9 21 9 12 0 19 5 17 13 -3 6 -11 12 -19 12 -8 0
-16 9 -19 20 -3 11 -14 21 -23 23 -14 3 -16 -2 -11 -27z m61 -87 c-3 -3 -12
-4 -19 -1 -8 3 -5 6 6 6 11 1 17 -2 13 -5z m-60 -10 c-3 -3 -12 -4 -19 -1 -8
3 -5 6 6 6 11 1 17 -2 13 -5z m53 -24 c0 -5 -4 -10 -10 -10 -5 0 -10 5 -10 10
0 6 5 10 10 10 6 0 10 -4 10 -10z"/>
<path d="M133 2598 c-44 -9 -59 -28 -23 -28 16 0 20 -7 20 -30 0 -20 -5 -30
-15 -30 -8 0 -15 -4 -15 -10 0 -5 7 -10 15 -10 10 0 15 -10 15 -30 0 -24 -6
-33 -26 -40 -26 -10 -28 -33 -3 -37 20 -4 88 57 72 64 -19 7 -16 53 2 53 8 0
15 5 15 10 0 6 -7 10 -15 10 -10 0 -15 10 -15 30 0 24 4 30 21 30 11 0 19 5
17 12 -6 16 -16 17 -65 6z"/>
<path d="M296 2181 c6 -27 4 -31 -15 -31 -11 0 -21 -4 -21 -10 0 -5 9 -10 20
-10 11 0 20 -4 20 -10 0 -5 -11 -10 -25 -10 -27 0 -29 -8 -19 -59 5 -25 10
-30 25 -26 11 4 19 2 19 -4 0 -5 -12 -11 -27 -13 -14 -2 -28 -9 -31 -17 -3
-10 3 -11 27 -6 28 6 31 4 31 -19 0 -14 5 -26 10 -26 6 0 10 11 10 25 0 23 4
25 46 25 54 0 58 24 3 26 -50 1 -58 6 -25 13 23 5 32 14 38 40 12 46 4 64 -27
59 -14 -3 -25 -1 -25 3 0 5 9 9 21 9 12 0 19 5 17 13 -3 6 -11 12 -19 12 -8 0
-16 9 -19 20 -3 11 -14 21 -23 23 -14 3 -16 -2 -11 -27z m61 -87 c-3 -3 -12
-4 -19 -1 -8 3 -5 6 6 6 11 1 17 -2 13 -5z m-60 -10 c-3 -3 -12 -4 -19 -1 -8
3 -5 6 6 6 11 1 17 -2 13 -5z m53 -24 c0 -5 -4 -10 -10 -10 -5 0 -10 5 -10 10
0 6 5 10 10 10 6 0 10 -4 10 -10z"/>
<path d="M133 2148 c-44 -9 -59 -28 -23 -28 16 0 20 -7 20 -30 0 -20 -5 -30
-15 -30 -8 0 -15 -4 -15 -10 0 -5 7 -10 15 -10 10 0 15 -10 15 -30 0 -24 -6
-33 -26 -40 -26 -10 -28 -33 -3 -37 20 -4 88 57 72 64 -19 7 -16 53 2 53 8 0
15 5 15 10 0 6 -7 10 -15 10 -10 0 -15 10 -15 30 0 24 4 30 21 30 11 0 19 5
17 12 -6 16 -16 17 -65 6z"/>
<path d="M202 2104 c1 -9 9 -19 16 -22 9 -3 13 2 10 14 -1 9 -9 19 -16 22 -9
3 -13 -2 -10 -14z"/>
<path d="M296 1731 c6 -27 4 -31 -15 -31 -11 0 -21 -4 -21 -10 0 -5 9 -10 20
-10 11 0 20 -4 20 -10 0 -5 -11 -10 -25 -10 -27 0 -29 -8 -19 -59 5 -25 10
-30 25 -26 11 4 19 2 19 -4 0 -5 -12 -11 -27 -13 -14 -2 -28 -9 -31 -17 -3
-10 3 -11 27 -6 28 6 31 4 31 -19 0 -14 5 -26 10 -26 6 0 10 11 10 25 0 23 4
25 46 25 54 0 58 24 3 26 -50 1 -58 6 -25 13 23 5 32 14 38 40 12 46 4 64 -27
59 -14 -3 -25 -1 -25 3 0 5 9 9 21 9 12 0 19 5 17 13 -3 6 -11 12 -19 12 -8 0
-16 9 -19 20 -3 11 -14 21 -23 23 -14 3 -16 -2 -11 -27z m61 -87 c-3 -3 -12
-4 -19 -1 -8 3 -5 6 6 6 11 1 17 -2 13 -5z m-60 -10 c-3 -3 -12 -4 -19 -1 -8
3 -5 6 6 6 11 1 17 -2 13 -5z m53 -24 c0 -5 -4 -10 -10 -10 -5 0 -10 5 -10 10
0 6 5 10 10 10 6 0 10 -4 10 -10z"/>
<path d="M133 1698 c-44 -9 -59 -28 -23 -28 16 0 20 -7 20 -30 0 -20 -5 -30
-15 -30 -8 0 -15 -4 -15 -10 0 -5 7 -10 15 -10 10 0 15 -10 15 -30 0 -24 -6
-33 -26 -40 -26 -10 -28 -33 -3 -37 20 -4 88 57 72 64 -19 7 -16 53 2 53 8 0
15 5 15 10 0 6 -7 10 -15 10 -10 0 -15 10 -15 30 0 24 4 30 21 30 11 0 19 5
17 12 -6 16 -16 17 -65 6z"/>
<path d="M202 1654 c1 -9 9 -19 16 -22 9 -3 13 2 10 14 -1 9 -9 19 -16 22 -9
3 -13 -2 -10 -14z"/>
<path d="M202 1570 c-1 -34 5 -37 24 -12 19 24 17 42 -4 42 -14 0 -19 -8 -20
-30z"/>
<path d="M296 1281 c6 -27 4 -31 -15 -31 -11 0 -21 -4 -21 -10 0 -5 9 -10 20
-10 11 0 20 -4 20 -10 0 -5 -11 -10 -25 -10 -27 0 -29 -8 -19 -59 5 -25 10
-30 25 -26 11 4 19 2 19 -4 0 -5 -12 -11 -27 -13 -14 -2 -28 -9 -31 -17 -3
-10 3 -11 27 -6 28 6 31 4 31 -19 0 -14 5 -26 10 -26 6 0 10 11 10 25 0 23 4
25 46 25 54 0 58 24 3 26 -50 1 -58 6 -25 13 23 5 32 14 38 40 12 46 4 64 -27
59 -14 -3 -25 -1 -25 3 0 5 9 9 21 9 12 0 19 5 17 13 -3 6 -11 12 -19 12 -8 0
-16 9 -19 20 -3 11 -14 21 -23 23 -14 3 -16 -2 -11 -27z m61 -87 c-3 -3 -12
-4 -19 -1 -8 3 -5 6 6 6 11 1 17 -2 13 -5z m-60 -10 c-3 -3 -12 -4 -19 -1 -8
3 -5 6 6 6 11 1 17 -2 13 -5z m53 -24 c0 -5 -4 -10 -10 -10 -5 0 -10 5 -10 10
0 6 5 10 10 10 6 0 10 -4 10 -10z"/>
<path d="M133 1248 c-44 -9 -59 -28 -23 -28 16 0 20 -7 20 -30 0 -20 -5 -30
-15 -30 -8 0 -15 -4 -15 -10 0 -5 7 -10 15 -10 10 0 15 -10 15 -30 0 -24 -6
-33 -26 -40 -26 -10 -28 -33 -3 -37 20 -4 88 57 72 64 -19 7 -16 53 2 53 8 0
15 5 15 10 0 6 -7 10 -15 10 -10 0 -15 10 -15 30 0 24 4 30 21 30 11 0 19 5
17 12 -6 16 -16 17 -65 6z"/>
<path d="M202 1204 c1 -9 9 -19 16 -22 9 -3 13 2 10 14 -1 9 -9 19 -16 22 -9
3 -13 -2 -10 -14z"/>
<path d="M202 1128 c1 -43 10 -78 20 -78 6 0 8 12 5 30 -4 16 -2 32 3 35 17
11 11 35 -9 35 -14 0 -20 -7 -19 -22z"/>
<path d="M296 831 c6 -27 4 -31 -15 -31 -11 0 -21 -4 -21 -10 0 -5 9 -10 20
-10 11 0 20 -4 20 -10 0 -5 -11 -10 -25 -10 -27 0 -29 -8 -19 -59 5 -25 10
-30 25 -26 11 4 19 2 19 -4 0 -5 -12 -11 -27 -13 -14 -2 -28 -9 -31 -17 -3
-10 3 -11 27 -6 28 6 31 4 31 -19 0 -14 5 -26 10 -26 6 0 10 11 10 25 0 23 4
25 46 25 54 0 58 24 3 26 -50 1 -58 6 -25 13 23 5 32 14 38 40 12 46 4 64 -27
59 -14 -3 -25 -1 -25 3 0 5 9 9 21 9 12 0 19 5 17 13 -3 6 -11 12 -19 12 -8 0
-16 9 -19 20 -3 11 -14 21 -23 23 -14 3 -16 -2 -11 -27z m61 -87 c-3 -3 -12
-4 -19 -1 -8 3 -5 6 6 6 11 1 17 -2 13 -5z m-60 -10 c-3 -3 -12 -4 -19 -1 -8
3 -5 6 6 6 11 1 17 -2 13 -5z m53 -24 c0 -5 -4 -10 -10 -10 -5 0 -10 5 -10 10
0 6 5 10 10 10 6 0 10 -4 10 -10z"/>
<path d="M133 798 c-44 -9 -59 -28 -23 -28 16 0 20 -7 20 -30 0 -20 -5 -30
-15 -30 -8 0 -15 -4 -15 -10 0 -5 7 -10 15 -10 10 0 15 -10 15 -30 0 -24 -6
-33 -26 -40 -26 -10 -28 -33 -3 -37 20 -4 88 57 72 64 -19 7 -16 53 2 53 8 0
15 5 15 10 0 6 -7 10 -15 10 -10 0 -15 10 -15 30 0 24 4 30 21 30 11 0 19 5
17 12 -6 16 -16 17 -65 6z"/>
<path d="M202 754 c1 -9 9 -19 16 -22 9 -3 13 2 10 14 -1 9 -9 19 -16 22 -9 3
-13 -2 -10 -14z"/>
<path d="M204 650 c4 -48 4 -50 -21 -50 -15 0 -23 -5 -20 -12 2 -8 17 -12 34
-10 17 2 59 -8 94 -22 34 -15 68 -26 75 -26 18 0 64 22 64 30 0 4 -30 10 -67
13 -95 8 -130 22 -136 55 -3 15 -1 31 4 37 16 16 10 35 -11 35 -18 0 -19 -5
-16 -50z"/>
</g>
</svg>
