<?xml version="1.0" standalone="no"?>
<!DOCTYPE svg PUBLIC "-//W3C//DTD SVG 20010904//EN"
 "http://www.w3.org/TR/2001/REC-SVG-20010904/DTD/svg10.dtd">
<svg version="1.0" xmlns="http://www.w3.org/2000/svg"
 width="50.000000pt" height="725.000000pt" viewBox="0 0 50.000000 725.000000"
 preserveAspectRatio="xMidYMid meet">
<metadata>
Created by potrace 1.16, written by Peter Selinger 2001-2019
</metadata>
<g transform="translate(0.000000,725.000000) scale(0.100000,-0.100000)"
fill="#000000" stroke="none">
<path d="M118 7083 c-32 -8 -20 -26 13 -19 17 3 38 6 45 6 8 0 14 5 14 10 0
10 -40 12 -72 3z"/>
<path d="M118 6633 c-32 -8 -20 -26 13 -19 17 3 38 6 45 6 8 0 14 5 14 10 0
10 -40 12 -72 3z"/>
<path d="M123 6553 c-25 -5 -32 -23 -9 -23 29 0 76 13 76 21 0 9 -27 10 -67 2z"/>
<path d="M118 6183 c-22 -5 -24 -23 -3 -23 10 0 15 -10 15 -30 0 -20 -5 -30
-15 -30 -8 0 -15 -4 -15 -10 0 -5 7 -10 15 -10 10 0 15 -10 15 -30 0 -20 5
-30 15 -30 10 0 15 11 15 35 0 24 5 35 15 35 8 0 15 5 15 10 0 6 -7 10 -15 10
-10 0 -15 10 -15 30 0 20 5 30 15 30 8 0 15 5 15 10 0 10 -40 12 -72 3z"/>
<path d="M118 5733 c-22 -5 -24 -23 -3 -23 10 0 15 -10 15 -30 0 -20 -5 -30
-15 -30 -8 0 -15 -4 -15 -10 0 -5 7 -10 15 -10 10 0 15 -10 15 -30 0 -23 -5
-31 -25 -36 -30 -7 -34 -34 -5 -34 22 0 90 40 90 54 0 4 -7 6 -15 2 -11 -4
-15 2 -15 24 0 20 5 30 15 30 8 0 15 5 15 10 0 6 -7 10 -15 10 -10 0 -15 10
-15 30 0 20 5 30 15 30 8 0 15 5 15 10 0 10 -40 12 -72 3z"/>
<path d="M213 5294 c-26 -40 -29 -54 -10 -54 20 0 40 17 33 28 -3 5 1 15 9 22
8 7 15 19 15 26 0 25 -25 14 -47 -22z"/>
<path d="M118 5283 c-22 -5 -24 -23 -3 -23 10 0 15 -10 15 -30 0 -20 -5 -30
-15 -30 -8 0 -15 -4 -15 -10 0 -5 7 -10 15 -10 10 0 15 -10 15 -30 0 -23 -5
-31 -25 -36 -30 -7 -34 -34 -5 -34 22 0 90 40 90 54 0 4 -7 6 -15 2 -11 -4
-15 2 -15 24 0 20 5 30 15 30 8 0 15 5 15 10 0 6 -7 10 -15 10 -10 0 -15 10
-15 30 0 20 5 30 15 30 8 0 15 5 15 10 0 10 -40 12 -72 3z"/>
<path d="M213 4844 c-27 -42 -29 -54 -7 -54 14 0 14 -3 4 -15 -7 -8 -21 -15
-31 -15 -14 0 -19 7 -19 30 0 20 5 30 15 30 8 0 15 5 15 10 0 11 -33 13 -67 4
-26 -7 -31 -24 -8 -24 10 0 15 -10 15 -30 0 -20 -5 -30 -15 -30 -8 0 -15 -4
-15 -10 0 -5 7 -10 15 -10 10 0 15 -10 15 -30 0 -23 -5 -31 -25 -36 -30 -7
-34 -34 -5 -34 22 0 90 40 90 54 0 4 -7 6 -15 2 -11 -4 -15 2 -15 24 0 27 3
30 33 30 35 0 66 15 54 26 -3 4 1 20 10 35 20 33 12 48 -14 28 -17 -13 -17
-13 0 7 9 11 17 26 17 32 0 24 -25 10 -47 -24z"/>
<path d="M213 4394 c-27 -42 -29 -54 -7 -54 14 0 14 -3 4 -15 -7 -8 -21 -15
-31 -15 -14 0 -19 7 -19 30 0 20 5 30 15 30 8 0 15 5 15 10 0 11 -33 13 -67 4
-26 -7 -31 -24 -8 -24 10 0 15 -10 15 -30 0 -20 -5 -30 -15 -30 -8 0 -15 -4
-15 -10 0 -5 7 -10 15 -10 10 0 15 -10 15 -30 0 -23 -5 -31 -25 -36 -30 -7
-34 -34 -5 -34 22 0 90 40 90 54 0 4 -7 6 -15 2 -11 -4 -15 2 -15 24 0 25 4
30 24 30 44 0 86 12 86 25 0 8 -5 15 -11 17 -8 3 -8 10 2 25 17 27 6 41 -18
22 -17 -13 -17 -13 0 7 9 11 17 26 17 32 0 24 -25 10 -47 -24z"/>
<path d="M318 3959 c-22 -38 -23 -49 -3 -49 8 0 15 6 15 14 0 7 7 19 15 26 8
7 15 19 15 26 0 25 -24 15 -42 -17z"/>
<path d="M213 3944 c-27 -42 -29 -54 -7 -54 14 0 14 -3 4 -15 -7 -8 -21 -15
-31 -15 -14 0 -19 7 -19 30 0 20 5 30 15 30 8 0 15 5 15 10 0 11 -33 13 -67 4
-26 -7 -31 -24 -8 -24 10 0 15 -10 15 -30 0 -20 -5 -30 -15 -30 -8 0 -15 -4
-15 -10 0 -5 7 -10 15 -10 10 0 15 -10 15 -30 0 -23 -5 -31 -25 -36 -30 -7
-34 -34 -5 -34 22 0 90 40 90 54 0 4 -7 6 -15 2 -11 -4 -15 2 -15 24 0 25 4
30 24 30 44 0 86 12 86 25 0 8 -5 15 -11 17 -8 3 -8 10 2 25 17 27 6 41 -18
22 -17 -13 -17 -13 0 7 9 11 17 26 17 32 0 24 -25 10 -47 -24z"/>
<path d="M318 3509 c-22 -38 -23 -49 -3 -49 8 0 15 6 15 14 0 7 7 19 15 26 8
7 15 19 15 26 0 25 -24 15 -42 -17z"/>
<path d="M213 3494 c-27 -42 -29 -54 -7 -54 14 0 14 -3 4 -15 -7 -8 -21 -15
-31 -15 -14 0 -19 7 -19 30 0 20 5 30 15 30 8 0 15 5 15 10 0 11 -33 13 -67 4
-26 -7 -31 -24 -8 -24 10 0 15 -10 15 -30 0 -20 -5 -30 -15 -30 -8 0 -15 -4
-15 -10 0 -5 7 -10 15 -10 10 0 15 -10 15 -30 0 -23 -5 -31 -25 -36 -30 -7
-34 -34 -5 -34 22 0 90 40 90 54 0 4 -7 6 -15 2 -11 -4 -15 2 -15 24 0 25 4
30 24 30 44 0 86 12 86 25 0 8 -5 15 -11 17 -8 3 -8 10 2 25 17 27 6 41 -18
22 -17 -13 -17 -13 0 7 9 11 17 26 17 32 0 24 -25 10 -47 -24z"/>
<path d="M338 3469 c-16 -21 -28 -44 -28 -49 0 -20 31 -9 39 13 5 13 16 29 25
36 9 7 16 20 16 27 0 26 -25 13 -52 -27z"/>
<path d="M318 3059 c-22 -38 -23 -49 -3 -49 8 0 15 6 15 14 0 7 7 19 15 26 8
7 15 19 15 26 0 25 -24 15 -42 -17z"/>
<path d="M213 3044 c-27 -42 -29 -54 -7 -54 14 0 14 -3 4 -15 -7 -8 -21 -15
-31 -15 -14 0 -19 7 -19 30 0 20 5 30 15 30 8 0 15 5 15 10 0 11 -33 13 -67 4
-26 -7 -31 -24 -8 -24 10 0 15 -10 15 -30 0 -20 -5 -30 -15 -30 -8 0 -15 -4
-15 -10 0 -5 7 -10 15 -10 10 0 15 -10 15 -30 0 -23 -5 -31 -25 -36 -30 -7
-34 -34 -5 -34 22 0 90 40 90 54 0 4 -7 6 -15 2 -11 -4 -15 2 -15 24 0 25 4
30 24 30 44 0 86 12 86 25 0 8 -5 15 -11 17 -8 3 -8 10 2 25 17 27 6 41 -18
22 -17 -13 -17 -13 0 7 9 11 17 26 17 32 0 24 -25 10 -47 -24z"/>
<path d="M338 3019 c-16 -21 -28 -44 -28 -49 0 -19 32 -10 37 10 5 19 6 19 18
3 17 -23 33 -8 17 17 -7 12 -8 21 -2 25 6 3 10 13 10 21 0 26 -25 14 -52 -27z"/>
<path d="M318 2609 c-22 -38 -23 -49 -3 -49 8 0 15 6 15 14 0 7 7 19 15 26 8
7 15 19 15 26 0 25 -24 15 -42 -17z"/>
<path d="M213 2594 c-27 -42 -29 -54 -7 -54 14 0 14 -3 4 -15 -7 -8 -21 -15
-31 -15 -14 0 -19 7 -19 30 0 20 5 30 15 30 8 0 15 5 15 10 0 11 -33 13 -67 4
-26 -7 -31 -24 -8 -24 10 0 15 -10 15 -30 0 -20 -5 -30 -15 -30 -8 0 -15 -4
-15 -10 0 -5 7 -10 15 -10 10 0 15 -10 15 -30 0 -23 -5 -31 -25 -36 -30 -7
-34 -34 -5 -34 22 0 90 40 90 54 0 4 -7 6 -15 2 -11 -4 -15 2 -15 24 0 25 4
30 24 30 44 0 86 12 86 25 0 8 -5 15 -11 17 -8 3 -8 10 2 25 17 27 6 41 -18
22 -17 -13 -17 -13 0 7 9 11 17 26 17 32 0 24 -25 10 -47 -24z"/>
<path d="M338 2569 c-16 -21 -28 -44 -28 -49 0 -19 32 -10 37 10 5 19 6 19 18
3 17 -23 33 -8 17 17 -7 12 -8 21 -2 25 6 3 10 13 10 21 0 26 -25 14 -52 -27z"/>
<path d="M258 2487 c-32 -6 -58 -14 -58 -19 0 -11 11 -10 103 4 42 6 77 15 77
20 0 10 -48 8 -122 -5z"/>
<path d="M318 2159 c-22 -38 -23 -49 -3 -49 8 0 15 6 15 14 0 7 7 19 15 26 8
7 15 19 15 26 0 25 -24 15 -42 -17z"/>
<path d="M213 2144 c-27 -42 -29 -54 -7 -54 14 0 14 -3 4 -15 -7 -8 -21 -15
-31 -15 -14 0 -19 7 -19 30 0 20 5 30 15 30 8 0 15 5 15 10 0 11 -33 13 -67 4
-26 -7 -31 -24 -8 -24 10 0 15 -10 15 -30 0 -20 -5 -30 -15 -30 -8 0 -15 -4
-15 -10 0 -5 7 -10 15 -10 10 0 15 -10 15 -30 0 -23 -5 -31 -25 -36 -30 -7
-34 -34 -5 -34 22 0 90 40 90 54 0 4 -7 6 -15 2 -11 -4 -15 2 -15 24 0 25 4
30 24 30 44 0 86 12 86 25 0 8 -5 15 -11 17 -8 3 -8 10 2 25 17 27 6 41 -18
22 -17 -13 -17 -13 0 7 9 11 17 26 17 32 0 24 -25 10 -47 -24z"/>
<path d="M338 2119 c-16 -21 -28 -44 -28 -49 0 -19 32 -10 37 10 5 19 6 19 18
3 17 -23 33 -8 17 17 -7 12 -8 21 -2 25 6 3 10 13 10 21 0 26 -25 14 -52 -27z"/>
<path d="M258 2037 c-32 -6 -58 -14 -58 -19 0 -4 5 -8 10 -8 15 0 12 -33 -6
-58 -9 -13 -13 -26 -10 -29 10 -10 37 20 53 58 14 36 17 37 74 44 32 4 59 11
59 16 0 11 -46 9 -122 -4z"/>
<path d="M318 1709 c-22 -38 -23 -49 -3 -49 8 0 15 6 15 14 0 7 7 19 15 26 8
7 15 19 15 26 0 25 -24 15 -42 -17z"/>
<path d="M213 1694 c-27 -42 -29 -54 -7 -54 14 0 14 -3 4 -15 -7 -8 -21 -15
-31 -15 -14 0 -19 7 -19 30 0 20 5 30 15 30 8 0 15 5 15 10 0 11 -33 13 -67 4
-26 -7 -31 -24 -8 -24 10 0 15 -10 15 -30 0 -20 -5 -30 -15 -30 -8 0 -15 -4
-15 -10 0 -5 7 -10 15 -10 10 0 15 -10 15 -30 0 -23 -5 -31 -25 -36 -30 -7
-34 -34 -5 -34 22 0 90 40 90 54 0 4 -7 6 -15 2 -11 -4 -15 2 -15 24 0 25 4
30 24 30 44 0 86 12 86 25 0 8 -5 15 -11 17 -8 3 -8 10 2 25 17 27 6 41 -18
22 -17 -13 -17 -13 0 7 9 11 17 26 17 32 0 24 -25 10 -47 -24z"/>
<path d="M338 1669 c-16 -21 -28 -44 -28 -49 0 -19 32 -10 37 10 5 19 6 19 18
3 17 -23 33 -8 17 17 -7 12 -8 21 -2 25 6 3 10 13 10 21 0 26 -25 14 -52 -27z"/>
<path d="M258 1587 c-32 -6 -58 -14 -58 -19 0 -4 5 -8 10 -8 15 0 12 -33 -6
-58 -23 -33 -7 -42 20 -11 17 20 26 23 39 15 25 -16 34 3 10 22 -32 24 -17 39
50 47 31 4 57 11 57 16 0 11 -46 9 -122 -4z"/>
<path d="M264 1283 c6 -33 4 -40 -16 -52 -22 -13 -23 -13 -5 6 20 23 22 43 5
43 -13 -1 -58 -63 -58 -81 0 -5 7 -9 16 -9 14 0 14 -3 4 -15 -7 -8 -21 -15
-31 -15 -14 0 -19 7 -19 30 0 20 5 30 15 30 8 0 15 5 15 10 0 11 -33 13 -67 4
-26 -7 -31 -24 -8 -24 10 0 15 -10 15 -30 0 -20 -5 -30 -15 -30 -8 0 -15 -4
-15 -10 0 -5 7 -10 15 -10 10 0 15 -10 15 -30 0 -23 -5 -31 -25 -36 -30 -7
-34 -34 -5 -34 22 0 90 40 90 54 0 4 -7 6 -15 2 -11 -4 -15 2 -15 24 0 25 4
30 24 30 44 0 86 12 86 25 0 8 -6 15 -12 18 -10 3 -9 9 3 22 15 15 17 14 22
-21 4 -21 5 -40 3 -42 -3 -2 -23 -6 -45 -9 -23 -3 -41 -10 -41 -14 0 -5 5 -9
10 -9 15 0 12 -33 -6 -58 -23 -33 -7 -42 20 -11 17 20 26 23 39 15 25 -16 35
4 10 21 -24 16 -21 43 6 43 10 0 23 -17 34 -45 10 -24 34 -58 53 -75 38 -33
81 -41 70 -14 -3 9 -6 24 -6 35 0 24 -17 25 -22 2 -3 -15 -9 -12 -36 16 -17
19 -36 47 -41 63 -9 27 -8 28 20 28 16 0 29 5 29 10 0 6 -17 10 -37 11 -33 0
-35 1 -15 9 12 5 22 17 22 27 0 15 2 15 14 -3 18 -24 34 -10 18 16 -7 12 -8
21 -2 25 14 9 12 35 -2 35 -7 0 -23 -16 -36 -35 -21 -34 -42 -46 -42 -25 0 6
7 10 15 10 8 0 15 6 15 14 0 7 7 19 15 26 8 7 15 19 15 26 0 24 -26 15 -40
-13 l-14 -28 -5 40 c-4 28 -11 41 -25 43 -16 3 -17 -1 -12 -35z"/>
<path d="M264 833 c6 -33 4 -40 -16 -52 -22 -13 -23 -13 -5 6 20 23 22 43 5
43 -13 -1 -58 -63 -58 -81 0 -5 7 -9 16 -9 14 0 14 -3 4 -15 -7 -8 -21 -15
-31 -15 -14 0 -19 7 -19 30 0 20 5 30 15 30 8 0 15 5 15 10 0 11 -33 13 -67 4
-26 -7 -31 -24 -8 -24 10 0 15 -10 15 -30 0 -20 -5 -30 -15 -30 -8 0 -15 -4
-15 -10 0 -5 7 -10 15 -10 10 0 15 -10 15 -30 0 -23 -5 -31 -25 -36 -30 -7
-34 -34 -5 -34 22 0 90 40 90 54 0 4 -7 6 -15 2 -11 -4 -15 2 -15 24 0 25 4
30 24 30 44 0 86 12 86 25 0 8 -6 15 -12 18 -10 3 -9 9 3 22 15 15 17 14 22
-21 4 -21 5 -40 3 -42 -3 -2 -23 -6 -45 -9 -23 -3 -41 -10 -41 -14 0 -5 5 -9
10 -9 15 0 12 -33 -6 -58 -23 -33 -7 -42 20 -11 17 20 26 23 39 15 25 -16 35
4 10 21 -24 16 -21 43 6 43 10 0 23 -17 34 -45 10 -24 34 -58 53 -75 38 -33
81 -41 70 -14 -3 9 -6 24 -6 35 0 24 -17 25 -22 2 -3 -15 -9 -12 -36 16 -17
19 -36 48 -42 64 l-10 30 45 -5 c39 -5 45 -3 45 13 0 11 -4 19 -10 19 -5 0
-10 8 -10 18 0 10 -5 23 -11 29 -8 8 -8 13 0 17 6 4 11 14 11 22 0 25 -24 15
-48 -21 -21 -34 -42 -46 -42 -25 0 6 7 10 15 10 8 0 15 6 15 14 0 7 7 19 15
26 8 7 15 19 15 26 0 24 -26 15 -40 -13 l-14 -28 -5 40 c-4 28 -11 41 -25 43
-16 3 -17 -1 -12 -35z m99 -120 c-3 -7 -17 -13 -32 -12 -25 0 -25 0 -3 9 12 5
22 17 22 27 0 15 2 15 9 4 5 -8 7 -20 4 -28z"/>
<path d="M264 383 c6 -33 4 -40 -16 -52 -22 -13 -23 -13 -5 6 20 23 22 43 5
43 -13 -1 -58 -63 -58 -81 0 -5 7 -9 16 -9 14 0 14 -3 4 -15 -7 -8 -21 -15
-31 -15 -14 0 -19 7 -19 30 0 20 5 30 15 30 8 0 15 5 15 10 0 11 -33 13 -67 4
-26 -7 -31 -24 -8 -24 10 0 15 -10 15 -30 0 -20 -5 -30 -15 -30 -8 0 -15 -4
-15 -10 0 -5 7 -10 15 -10 10 0 15 -10 15 -30 0 -23 -5 -31 -25 -36 -30 -7
-34 -34 -5 -34 22 0 90 40 90 54 0 4 -7 6 -15 2 -11 -4 -15 2 -15 24 0 25 4
30 24 30 44 0 86 12 86 25 0 8 -6 15 -12 18 -10 3 -9 9 3 22 15 15 17 14 22
-21 4 -21 5 -40 3 -42 -3 -2 -23 -6 -45 -9 -23 -3 -41 -10 -41 -14 0 -5 5 -9
10 -9 15 0 12 -33 -6 -58 -23 -33 -7 -42 20 -11 17 20 26 23 39 15 25 -16 35
4 10 21 -24 16 -20 43 6 43 10 0 22 -14 30 -37 12 -33 12 -38 -5 -50 -22 -16
-9 -31 14 -16 14 8 24 5 50 -18 36 -32 78 -40 68 -13 -3 9 -6 24 -6 35 0 23
-17 26 -22 3 -3 -13 -5 -13 -22 -1 -17 13 -18 18 -7 45 13 30 9 52 -9 52 -5 0
-12 -9 -15 -20 -8 -24 -20 -19 -28 11 -5 20 -3 21 39 16 38 -4 44 -2 44 14 0
11 -4 19 -10 19 -5 0 -10 8 -10 18 0 10 -5 23 -11 29 -8 8 -8 13 0 17 6 4 11
14 11 22 0 25 -24 15 -48 -21 -21 -34 -42 -46 -42 -25 0 6 7 10 15 10 8 0 15
6 15 14 0 7 7 19 15 26 8 7 15 19 15 26 0 24 -26 15 -40 -13 l-14 -28 -5 40
c-4 28 -11 41 -25 43 -16 3 -17 -1 -12 -35z m99 -120 c-3 -7 -17 -13 -32 -12
-25 0 -25 0 -3 9 12 5 22 17 22 27 0 15 2 15 9 4 5 -8 7 -20 4 -28z"/>
</g>
</svg>
