<?xml version="1.0" standalone="no"?>
<!DOCTYPE svg PUBLIC "-//W3C//DTD SVG 20010904//EN"
 "http://www.w3.org/TR/2001/REC-SVG-20010904/DTD/svg10.dtd">
<svg version="1.0" xmlns="http://www.w3.org/2000/svg"
 width="95.000000pt" height="725.000000pt" viewBox="0 0 95.000000 725.000000"
 preserveAspectRatio="xMidYMid meet">
<metadata>
Created by potrace 1.16, written by Peter Selinger 2001-2019
</metadata>
<g transform="translate(0.000000,725.000000) scale(0.100000,-0.100000)"
fill="#000000" stroke="none">
<path d="M332 7138 c2 -17 -3 -24 -19 -26 -22 -3 -33 -22 -14 -22 5 0 14 -13
20 -30 9 -26 8 -30 -9 -30 -10 0 -22 9 -25 20 -4 13 -15 20 -30 20 -36 0 -39
16 -5 30 17 7 30 19 30 26 0 21 -21 17 -47 -8 -14 -13 -27 -18 -31 -13 -9 13
-49 35 -63 35 -6 0 -9 -9 -6 -20 4 -16 0 -20 -19 -20 -23 0 -33 -15 -16 -22 5
-1 12 -15 16 -30 5 -24 3 -28 -14 -28 -29 0 -25 -18 5 -22 32 -4 37 -22 8 -26
-28 -4 -30 -22 -3 -22 24 0 25 -11 4 -51 -8 -17 -13 -33 -10 -36 11 -11 36 20
48 58 6 22 17 39 26 39 9 0 12 -6 8 -15 -3 -8 -9 -22 -12 -30 -3 -8 -2 -15 3
-15 15 0 35 50 44 110 7 49 7 45 5 -33 -2 -86 7 -117 26 -83 6 11 16 15 28 11
15 -5 20 1 25 29 4 19 4 43 1 54 -6 16 0 20 31 26 21 3 50 6 66 6 15 0 27 5
27 10 0 6 -11 10 -24 10 -23 0 -24 2 -13 35 6 19 14 35 19 35 4 0 8 5 8 11 0
7 -10 9 -24 7 -15 -3 -27 2 -35 14 -16 25 -33 23 -29 -4z m38 -55 c0 -10 -4
-24 -9 -31 -6 -10 -11 -6 -19 17 -10 28 -9 31 9 31 11 0 19 -7 19 -17z m-200
-43 c5 0 13 12 19 28 9 23 10 20 8 -28 -2 -44 -6 -55 -20 -58 -16 -3 -17 -1
-8 16 15 28 14 32 -8 32 -21 0 -36 47 -17 53 6 2 12 -7 14 -20 2 -12 7 -23 12
-23z m120 -93 c0 -5 -5 -5 -11 -1 -6 3 -15 0 -20 -7 -11 -17 -12 18 -2 76 l7
40 13 -50 c7 -27 13 -54 13 -58z"/>
<path d="M582 7123 c4 -21 33 -25 33 -3 0 8 -8 16 -18 18 -14 3 -18 -1 -15
-15z"/>
<path d="M332 6688 c2 -17 -3 -24 -19 -26 -22 -3 -33 -22 -14 -22 5 0 14 -13
20 -30 9 -26 8 -30 -9 -30 -10 0 -22 9 -25 20 -4 13 -15 20 -30 20 -36 0 -39
16 -5 30 17 7 30 19 30 26 0 21 -21 17 -47 -8 -14 -13 -27 -18 -31 -13 -9 13
-49 35 -63 35 -6 0 -9 -9 -6 -20 4 -16 0 -20 -19 -20 -23 0 -33 -15 -16 -22 5
-1 12 -15 16 -30 5 -24 3 -28 -14 -28 -29 0 -25 -18 5 -22 32 -4 37 -22 8 -26
-28 -4 -30 -22 -3 -22 24 0 25 -11 4 -51 -8 -17 -13 -33 -10 -36 11 -11 36 20
48 58 6 22 17 39 26 39 9 0 12 -6 8 -15 -3 -8 -9 -22 -12 -30 -3 -8 -2 -15 3
-15 15 0 35 50 44 110 7 49 7 45 5 -33 -2 -86 7 -117 26 -83 6 11 16 15 28 11
14 -5 20 1 25 25 5 23 12 30 30 30 39 0 85 12 85 22 0 7 -20 8 -54 4 -36 -5
-56 -3 -61 4 -10 17 -4 19 63 26 60 7 87 24 38 24 -23 0 -24 2 -13 35 6 19 14
35 19 35 4 0 8 5 8 11 0 7 -10 9 -24 7 -15 -3 -27 2 -35 14 -16 25 -33 23 -29
-4z m38 -55 c0 -10 -4 -24 -9 -31 -6 -10 -11 -6 -19 17 -10 28 -9 31 9 31 11
0 19 -7 19 -17z m-200 -43 c5 0 13 12 19 28 9 23 10 20 8 -28 -2 -44 -6 -55
-20 -58 -16 -3 -17 -1 -8 16 15 28 14 32 -8 32 -21 0 -36 47 -17 53 6 2 12 -7
14 -20 2 -12 7 -23 12 -23z m120 -93 c0 -5 -5 -5 -11 -1 -6 3 -15 0 -20 -7
-11 -17 -12 18 -2 76 l7 40 13 -50 c7 -27 13 -54 13 -58z"/>
<path d="M583 6670 c4 -16 0 -20 -19 -20 -13 0 -24 -4 -24 -10 0 -11 19 -12
73 -4 44 8 48 24 10 42 -37 17 -46 15 -40 -8z"/>
<path d="M332 6238 c2 -17 -3 -24 -19 -26 -22 -3 -33 -22 -14 -22 5 0 14 -13
20 -30 9 -26 8 -30 -9 -30 -10 0 -22 9 -25 20 -4 13 -15 20 -30 20 -36 0 -39
16 -5 30 17 7 30 19 30 26 0 21 -21 17 -47 -8 -14 -13 -27 -18 -31 -13 -9 13
-49 35 -63 35 -6 0 -9 -9 -6 -20 4 -16 0 -20 -19 -20 -23 0 -33 -15 -16 -22 5
-1 12 -15 16 -30 5 -24 3 -28 -14 -28 -29 0 -25 -18 5 -22 32 -4 37 -22 8 -26
-28 -4 -30 -22 -3 -22 24 0 25 -11 4 -51 -8 -17 -13 -33 -10 -36 11 -11 36 20
48 58 6 22 17 39 26 39 9 0 12 -6 8 -15 -3 -8 -9 -22 -12 -30 -3 -8 -2 -15 3
-15 15 0 35 50 44 110 7 49 7 45 5 -33 -2 -86 7 -117 26 -83 6 11 16 15 28 11
14 -5 20 1 25 25 5 21 13 30 26 30 16 0 19 -7 19 -55 0 -73 18 -71 22 3 3 50
6 57 26 60 27 4 29 22 2 22 -11 0 -20 7 -20 15 0 9 9 15 25 15 14 0 25 5 25
10 0 6 -11 10 -24 10 -23 0 -24 2 -13 35 6 19 14 35 19 35 4 0 8 5 8 11 0 7
-10 9 -24 7 -15 -3 -27 2 -35 14 -16 25 -33 23 -29 -4z m38 -55 c0 -10 -4 -24
-9 -31 -6 -10 -11 -6 -19 17 -10 28 -9 31 9 31 11 0 19 -7 19 -17z m-200 -43
c5 0 13 12 19 28 9 23 10 20 8 -28 -2 -44 -6 -55 -20 -58 -16 -3 -17 -1 -8 16
15 28 14 32 -8 32 -21 0 -36 47 -17 53 6 2 12 -7 14 -20 2 -12 7 -23 12 -23z
m120 -93 c0 -5 -5 -5 -11 -1 -6 3 -15 0 -20 -7 -11 -17 -12 18 -2 76 l7 40 13
-50 c7 -27 13 -54 13 -58z m53 48 c-4 -15 -36 -12 -41 3 -3 9 3 13 19 10 13
-1 23 -7 22 -13z"/>
<path d="M583 6220 c4 -16 0 -20 -19 -20 -13 0 -24 -4 -24 -10 0 -5 4 -10 9
-10 5 0 11 -13 15 -30 7 -40 30 -40 24 0 -5 30 6 40 43 40 28 0 23 23 -8 38
-37 17 -46 15 -40 -8z"/>
<path d="M583 5770 c4 -16 0 -20 -19 -20 -13 0 -24 -4 -24 -10 0 -5 4 -10 9
-10 5 0 11 -13 15 -30 7 -40 30 -40 24 0 -3 18 0 31 9 34 9 4 13 -3 13 -19 0
-14 4 -25 9 -25 9 0 37 69 29 73 -1 1 -13 8 -25 15 -33 18 -46 15 -40 -8z"/>
<path d="M583 5320 c4 -16 0 -20 -19 -20 -23 0 -33 -15 -16 -22 5 -1 12 -15
16 -30 5 -24 3 -28 -14 -28 -11 0 -20 -5 -20 -11 0 -8 13 -10 38 -5 20 3 43 6
50 6 6 0 12 5 12 10 0 6 -8 10 -19 10 -23 0 -35 46 -15 54 10 4 14 -3 14 -19
0 -14 4 -25 9 -25 9 0 37 69 29 73 -1 1 -13 8 -25 15 -33 18 -46 15 -40 -8z"/>
<path d="M583 4870 c4 -16 0 -20 -19 -20 -23 0 -33 -15 -16 -22 5 -1 12 -15
16 -30 5 -24 3 -28 -14 -28 -11 0 -20 -5 -20 -11 0 -8 13 -10 38 -5 20 3 43 6
50 6 6 0 12 5 12 10 0 6 -8 10 -19 10 -23 0 -35 46 -15 54 10 4 14 -3 14 -19
0 -14 4 -25 9 -25 9 0 37 69 29 73 -1 1 -13 8 -25 15 -33 18 -46 15 -40 -8z"/>
<path d="M568 4723 c-31 -5 -39 -23 -10 -23 37 0 92 13 92 21 0 9 -31 10 -82
2z"/>
<path d="M583 4420 c4 -16 0 -20 -19 -20 -23 0 -33 -15 -16 -22 5 -1 12 -15
16 -30 5 -24 3 -28 -14 -28 -30 0 -24 -18 8 -22 33 -4 36 -22 5 -26 -28 -4
-30 -22 -3 -22 24 0 25 -11 4 -51 -8 -17 -13 -33 -10 -36 11 -11 36 20 48 58
8 27 17 39 30 39 10 0 18 5 18 10 0 6 -9 10 -20 10 -17 0 -19 3 -10 19 14 27
13 31 -9 31 -23 0 -35 46 -15 54 10 4 14 -3 14 -19 0 -14 4 -25 9 -25 9 0 37
69 29 73 -1 1 -13 8 -25 15 -33 18 -46 15 -40 -8z"/>
<path d="M583 3970 c4 -16 0 -20 -19 -20 -23 0 -33 -15 -16 -22 5 -1 12 -15
16 -30 5 -24 3 -28 -14 -28 -30 0 -24 -18 8 -22 33 -4 36 -22 5 -26 -28 -4
-30 -22 -3 -22 24 0 25 -11 4 -51 -8 -17 -13 -33 -10 -36 11 -11 36 20 48 58
8 27 17 39 30 39 10 0 18 5 18 10 0 6 -9 10 -20 10 -17 0 -19 3 -10 19 14 27
13 31 -9 31 -23 0 -35 46 -15 54 10 4 14 -3 14 -19 0 -32 18 -32 26 0 3 14 10
23 14 20 13 -8 80 27 80 42 0 20 -21 16 -47 -9 -14 -13 -27 -18 -31 -13 -9 13
-49 35 -63 35 -6 0 -9 -9 -6 -20z"/>
<path d="M583 3520 c4 -16 0 -20 -19 -20 -23 0 -33 -15 -16 -22 5 -1 12 -15
16 -30 5 -24 3 -28 -14 -28 -30 0 -24 -18 8 -22 33 -4 36 -22 5 -26 -28 -4
-30 -22 -3 -22 24 0 25 -11 4 -51 -8 -17 -13 -33 -10 -36 11 -11 36 20 48 58
6 22 17 39 26 39 9 0 12 -6 8 -15 -3 -8 -9 -22 -12 -30 -3 -8 -2 -15 4 -15 16
0 40 73 44 133 3 51 6 58 30 68 16 6 28 18 28 25 0 21 -21 17 -47 -8 -14 -13
-27 -18 -31 -13 -9 13 -49 35 -63 35 -6 0 -9 -9 -6 -20z m37 -80 c5 0 13 12
19 28 9 23 10 20 8 -28 -2 -44 -6 -55 -20 -58 -16 -3 -17 -1 -8 16 15 28 14
32 -8 32 -21 0 -36 47 -17 53 6 2 12 -7 14 -20 2 -12 7 -23 12 -23z"/>
<path d="M583 3070 c4 -16 0 -20 -19 -20 -23 0 -33 -15 -16 -22 5 -1 12 -15
16 -30 5 -24 3 -28 -14 -28 -30 0 -24 -18 8 -22 33 -4 36 -22 5 -26 -28 -4
-30 -22 -3 -22 24 0 25 -11 4 -51 -8 -17 -13 -33 -10 -36 11 -11 36 20 48 58
6 22 17 39 26 39 9 0 12 -6 8 -15 -3 -8 -9 -22 -12 -30 -3 -8 -2 -15 3 -15 15
0 35 50 44 110 7 49 7 46 6 -34 -2 -92 7 -114 31 -75 11 17 11 23 2 29 -8 5
-10 26 -5 72 7 62 6 65 -16 72 -24 7 -23 7 9 23 17 9 32 23 32 30 0 20 -21 16
-47 -9 -14 -13 -27 -18 -31 -13 -9 13 -49 35 -63 35 -6 0 -9 -9 -6 -20z m37
-80 c5 0 13 12 19 28 9 23 10 20 8 -28 -2 -44 -6 -55 -20 -58 -16 -3 -17 -1
-8 16 15 28 14 32 -8 32 -21 0 -36 47 -17 53 6 2 12 -7 14 -20 2 -12 7 -23 12
-23z"/>
<path d="M583 2620 c4 -16 0 -20 -19 -20 -23 0 -33 -15 -16 -22 5 -1 12 -15
16 -30 5 -24 3 -28 -14 -28 -30 0 -24 -18 8 -22 33 -4 36 -22 5 -26 -28 -4
-30 -22 -3 -22 24 0 25 -11 4 -51 -8 -17 -13 -33 -10 -36 11 -11 36 20 48 58
6 22 17 39 26 39 9 0 12 -6 8 -15 -3 -8 -9 -22 -12 -30 -3 -8 -2 -15 3 -15 15
0 35 50 44 110 7 49 7 45 5 -33 -2 -86 7 -117 26 -83 6 11 16 15 29 11 24 -8
26 17 3 36 -13 10 -17 10 -25 -2 -7 -9 -8 9 -4 57 7 69 6 71 -17 78 -22 7 -22
7 10 23 17 9 32 23 32 30 0 20 -21 16 -47 -9 -14 -13 -27 -18 -31 -13 -9 13
-49 35 -63 35 -6 0 -9 -9 -6 -20z m37 -80 c5 0 13 12 19 28 9 23 10 20 8 -28
-2 -44 -6 -55 -20 -58 -16 -3 -17 -1 -8 16 15 28 14 32 -8 32 -21 0 -36 47
-17 53 6 2 12 -7 14 -20 2 -12 7 -23 12 -23z"/>
<path d="M583 2170 c4 -16 0 -20 -19 -20 -23 0 -33 -15 -16 -22 5 -1 12 -15
16 -30 5 -24 3 -28 -14 -28 -30 0 -24 -18 8 -22 33 -4 36 -22 5 -26 -28 -4
-30 -22 -3 -22 24 0 25 -11 4 -51 -8 -17 -13 -33 -10 -36 11 -11 36 20 48 58
6 22 17 39 26 39 9 0 12 -6 8 -15 -3 -8 -9 -22 -12 -30 -3 -8 -2 -15 3 -15 15
0 35 50 44 110 7 49 7 45 5 -33 -2 -86 7 -117 26 -83 6 11 16 15 28 11 29 -9
36 50 15 114 -14 42 -21 51 -40 51 -36 0 -38 16 -5 30 17 7 30 19 30 26 0 21
-21 17 -47 -8 -14 -13 -27 -18 -31 -13 -9 13 -49 35 -63 35 -6 0 -9 -9 -6 -20z
m37 -80 c5 0 13 12 19 28 9 23 10 20 8 -28 -2 -44 -6 -55 -20 -58 -16 -3 -17
-1 -8 16 15 28 14 32 -8 32 -21 0 -36 47 -17 53 6 2 12 -7 14 -20 2 -12 7 -23
12 -23z m120 -93 c0 -5 -5 -5 -11 -1 -6 3 -15 0 -20 -7 -11 -17 -12 18 -2 76
l7 40 13 -50 c7 -27 13 -54 13 -58z"/>
<path d="M780 1751 c0 -21 13 -41 26 -41 17 0 18 22 2 38 -14 14 -28 16 -28 3z"/>
<path d="M583 1720 c4 -16 0 -20 -19 -20 -23 0 -33 -15 -16 -22 5 -1 12 -15
16 -30 5 -24 3 -28 -14 -28 -30 0 -24 -18 8 -22 33 -4 36 -22 5 -26 -28 -4
-30 -22 -3 -22 24 0 25 -11 4 -51 -8 -17 -13 -33 -10 -36 11 -11 36 20 48 58
6 22 17 39 26 39 9 0 12 -6 8 -15 -3 -8 -9 -22 -12 -30 -3 -8 -2 -15 3 -15 15
0 35 50 44 110 7 49 7 45 5 -33 -2 -86 7 -117 26 -83 6 11 16 15 28 11 29 -9
36 50 15 114 -14 42 -21 51 -40 51 -36 0 -38 16 -5 30 17 7 30 19 30 26 0 21
-21 17 -47 -8 -14 -13 -27 -18 -31 -13 -9 13 -49 35 -63 35 -6 0 -9 -9 -6 -20z
m37 -80 c5 0 13 12 19 28 9 23 10 20 8 -28 -2 -44 -6 -55 -20 -58 -16 -3 -17
-1 -8 16 15 28 14 32 -8 32 -21 0 -36 47 -17 53 6 2 12 -7 14 -20 2 -12 7 -23
12 -23z m120 -93 c0 -5 -5 -5 -11 -1 -6 3 -15 0 -20 -7 -11 -17 -12 18 -2 76
l7 40 13 -50 c7 -27 13 -54 13 -58z"/>
<path d="M782 1288 c2 -17 -3 -24 -19 -26 -13 -2 -23 -8 -23 -13 0 -10 68 -5
113 8 26 7 20 26 -7 21 -15 -3 -27 2 -35 14 -16 25 -33 23 -29 -4z"/>
<path d="M583 1270 c4 -16 0 -20 -19 -20 -23 0 -33 -15 -16 -22 5 -1 12 -15
16 -30 5 -24 3 -28 -14 -28 -30 0 -24 -18 8 -22 33 -4 36 -22 5 -26 -28 -4
-30 -22 -3 -22 24 0 25 -11 4 -51 -8 -17 -13 -33 -10 -36 11 -11 36 20 48 58
6 22 17 39 26 39 9 0 12 -6 8 -15 -3 -8 -9 -22 -12 -30 -3 -8 -2 -15 3 -15 15
0 35 50 44 110 7 49 7 45 5 -33 -2 -86 7 -117 26 -83 6 11 16 15 28 11 29 -9
36 50 15 114 -14 42 -21 51 -40 51 -36 0 -38 16 -5 30 17 7 30 19 30 26 0 21
-21 17 -47 -8 -14 -13 -27 -18 -31 -13 -9 13 -49 35 -63 35 -6 0 -9 -9 -6 -20z
m37 -80 c5 0 13 12 19 28 9 23 10 20 8 -28 -2 -44 -6 -55 -20 -58 -16 -3 -17
-1 -8 16 15 28 14 32 -8 32 -21 0 -36 47 -17 53 6 2 12 -7 14 -20 2 -12 7 -23
12 -23z m120 -93 c0 -5 -5 -5 -11 -1 -6 3 -15 0 -20 -7 -11 -17 -12 18 -2 76
l7 40 13 -50 c7 -27 13 -54 13 -58z"/>
<path d="M782 838 c2 -17 -3 -24 -19 -26 -22 -3 -33 -22 -14 -22 5 0 14 -13
20 -30 5 -16 15 -30 20 -30 14 0 14 11 1 44 -9 24 -7 26 19 26 16 0 36 3 45 6
25 10 19 27 -8 22 -15 -3 -27 2 -35 14 -16 25 -33 23 -29 -4z"/>
<path d="M583 820 c4 -16 0 -20 -19 -20 -23 0 -33 -15 -16 -22 5 -1 12 -15 16
-30 5 -24 3 -28 -14 -28 -30 0 -24 -18 8 -22 33 -4 36 -22 5 -26 -28 -4 -30
-22 -3 -22 24 0 25 -11 4 -51 -8 -17 -13 -33 -10 -36 11 -11 36 20 48 58 6 22
17 39 26 39 9 0 12 -6 8 -15 -3 -8 -9 -22 -12 -30 -3 -8 -2 -15 3 -15 15 0 35
50 44 110 7 49 7 45 5 -33 -2 -86 7 -117 26 -83 6 11 16 15 28 11 29 -9 36 50
15 114 -14 42 -21 51 -40 51 -36 0 -38 16 -5 30 17 7 30 19 30 26 0 21 -21 17
-47 -8 -14 -13 -27 -18 -31 -13 -9 13 -49 35 -63 35 -6 0 -9 -9 -6 -20z m37
-80 c5 0 13 12 19 28 9 23 10 20 8 -28 -2 -44 -6 -55 -20 -58 -16 -3 -17 -1
-8 16 15 28 14 32 -8 32 -21 0 -36 47 -17 53 6 2 12 -7 14 -20 2 -12 7 -23 12
-23z m120 -93 c0 -5 -5 -5 -11 -1 -6 3 -15 0 -20 -7 -11 -17 -12 18 -2 76 l7
40 13 -50 c7 -27 13 -54 13 -58z"/>
<path d="M782 388 c2 -17 -3 -24 -19 -26 -22 -3 -33 -22 -14 -22 5 0 14 -13
20 -30 5 -16 15 -30 20 -30 14 0 14 11 1 44 -8 23 -7 26 11 26 19 0 20 -4 15
-35 -9 -49 10 -45 25 5 7 22 16 40 21 40 4 0 8 5 8 11 0 7 -10 9 -24 7 -15 -3
-27 2 -35 14 -16 25 -33 23 -29 -4z"/>
<path d="M583 370 c4 -16 0 -20 -19 -20 -23 0 -33 -15 -16 -22 5 -1 12 -15 16
-30 5 -24 3 -28 -14 -28 -30 0 -24 -18 8 -22 33 -4 36 -22 5 -26 -28 -4 -30
-22 -3 -22 24 0 25 -11 4 -51 -8 -17 -13 -33 -10 -36 11 -11 36 20 48 58 6 22
17 39 26 39 9 0 12 -6 8 -15 -3 -8 -9 -22 -12 -30 -3 -8 -2 -15 3 -15 15 0 35
50 44 110 7 49 7 45 5 -33 -2 -86 7 -117 26 -83 6 11 16 15 28 11 29 -9 36 50
15 114 -14 42 -21 51 -40 51 -36 0 -38 16 -5 30 17 7 30 19 30 26 0 21 -21 17
-47 -8 -14 -13 -27 -18 -31 -13 -9 13 -49 35 -63 35 -6 0 -9 -9 -6 -20z m37
-80 c5 0 13 12 19 28 9 23 10 20 8 -28 -2 -44 -6 -55 -20 -58 -16 -3 -17 -1
-8 16 15 28 14 32 -8 32 -21 0 -36 47 -17 53 6 2 12 -7 14 -20 2 -12 7 -23 12
-23z m120 -93 c0 -5 -5 -5 -11 -1 -6 3 -15 0 -20 -7 -11 -17 -12 18 -2 76 l7
40 13 -50 c7 -27 13 -54 13 -58z"/>
</g>
</svg>
