<?xml version="1.0" standalone="no"?>
<!DOCTYPE svg PUBLIC "-//W3C//DTD SVG 20010904//EN"
 "http://www.w3.org/TR/2001/REC-SVG-20010904/DTD/svg10.dtd">
<svg version="1.0" xmlns="http://www.w3.org/2000/svg"
 width="50.000000pt" height="725.000000pt" viewBox="0 0 50.000000 725.000000"
 preserveAspectRatio="xMidYMid meet">
<metadata>
Created by potrace 1.16, written by Peter Selinger 2001-2019
</metadata>
<g transform="translate(0.000000,725.000000) scale(0.100000,-0.100000)"
fill="#000000" stroke="none">
<path d="M125 7109 c-4 -6 -5 -12 -4 -13 8 -7 69 7 69 15 0 13 -57 11 -65 -2z"/>
<path d="M125 6659 c-4 -6 -5 -12 -4 -13 8 -7 69 7 69 15 0 13 -57 11 -65 -2z"/>
<path d="M136 6601 c-29 -6 -49 -31 -25 -31 23 0 89 23 89 32 0 9 -20 9 -64
-1z"/>
<path d="M218 6228 c-10 -23 -15 -44 -12 -47 9 -9 55 52 52 68 -6 29 -23 20
-40 -21z"/>
<path d="M125 6209 c-4 -6 -5 -12 -4 -13 8 -7 69 7 69 15 0 13 -57 11 -65 -2z"/>
<path d="M136 6151 c-29 -6 -49 -31 -25 -31 23 0 89 23 89 32 0 9 -20 9 -64
-1z"/>
<path d="M218 5778 c-21 -48 -18 -55 14 -35 38 24 78 30 78 12 0 -19 11 -19
36 0 19 15 19 15 -1 30 -11 9 -24 14 -30 12 -45 -17 -53 -17 -58 3 -8 31 -20
24 -39 -22z"/>
<path d="M125 5759 c-4 -6 -5 -12 -4 -13 8 -7 69 7 69 15 0 13 -57 11 -65 -2z"/>
<path d="M136 5701 c-29 -6 -49 -31 -25 -31 23 0 89 23 89 32 0 9 -20 9 -64
-1z"/>
<path d="M218 5328 c-21 -48 -18 -55 14 -35 38 24 78 30 78 12 0 -19 11 -19
36 0 19 15 19 15 -1 30 -11 9 -24 14 -30 12 -45 -17 -53 -17 -58 3 -8 31 -20
24 -39 -22z"/>
<path d="M125 5309 c-4 -6 -5 -12 -4 -13 8 -7 69 7 69 15 0 13 -57 11 -65 -2z"/>
<path d="M245 5281 c-3 -10 -14 -26 -25 -36 -23 -21 -26 -35 -7 -35 19 0 67
53 67 73 0 23 -27 22 -35 -2z"/>
<path d="M136 5251 c-29 -6 -49 -31 -25 -31 23 0 89 23 89 32 0 9 -20 9 -64
-1z"/>
<path d="M218 4878 c-21 -48 -18 -55 14 -35 38 24 78 30 78 12 0 -19 11 -19
36 0 19 15 19 15 -1 30 -11 9 -24 14 -30 12 -45 -17 -53 -17 -58 3 -8 31 -20
24 -39 -22z"/>
<path d="M125 4859 c-4 -6 -5 -12 -4 -13 8 -7 69 7 69 15 0 13 -57 11 -65 -2z"/>
<path d="M245 4831 c-3 -10 -14 -26 -25 -36 -11 -10 -20 -22 -20 -27 0 -14 23
-9 45 12 l21 20 34 -25 c38 -28 60 -32 60 -11 0 18 -19 33 -53 41 -17 5 -27
14 -27 26 0 25 -27 25 -35 0z"/>
<path d="M136 4801 c-29 -6 -49 -31 -25 -31 23 0 89 23 89 32 0 9 -20 9 -64
-1z"/>
<path d="M218 4428 c-21 -48 -18 -55 14 -35 38 24 78 30 78 12 0 -19 11 -19
36 0 19 15 19 15 -1 30 -11 9 -24 14 -30 12 -45 -17 -53 -17 -58 3 -8 31 -20
24 -39 -22z"/>
<path d="M125 4409 c-4 -6 -5 -12 -4 -13 8 -7 69 7 69 15 0 13 -57 11 -65 -2z"/>
<path d="M235 4368 c-11 -18 -24 -40 -30 -50 -6 -11 -21 -18 -40 -18 -32 0
-63 -15 -53 -25 3 -4 32 -2 64 4 32 6 75 11 97 11 27 0 37 4 34 13 -2 7 -19
11 -42 10 -37 -3 -38 -2 -20 17 17 19 20 19 39 5 35 -26 66 -39 73 -31 13 12
-13 41 -46 50 -20 6 -31 15 -31 27 0 29 -23 22 -45 -13z"/>
<path d="M136 4351 c-29 -6 -49 -31 -25 -31 23 0 89 23 89 32 0 9 -20 9 -64
-1z"/>
<path d="M218 3978 c-21 -48 -18 -55 14 -35 38 24 78 30 78 12 0 -19 11 -19
36 0 19 15 19 15 -1 30 -11 9 -24 14 -30 12 -45 -17 -53 -17 -58 3 -8 31 -20
24 -39 -22z"/>
<path d="M125 3959 c-4 -6 -5 -12 -4 -13 8 -7 69 7 69 15 0 13 -57 11 -65 -2z"/>
<path d="M235 3918 c-11 -18 -24 -40 -30 -50 -6 -10 -21 -18 -37 -18 -34 0
-58 -9 -58 -22 0 -6 13 -8 31 -4 l31 6 -7 -65 c-7 -71 9 -94 21 -27 17 99 15
97 73 100 35 2 51 7 48 15 -2 7 -20 11 -42 10 -37 -3 -38 -2 -20 17 17 19 20
19 39 5 35 -26 66 -39 73 -31 13 12 -13 41 -46 50 -20 6 -31 15 -31 27 0 29
-23 22 -45 -13z"/>
<path d="M136 3901 c-29 -6 -49 -31 -25 -31 23 0 89 23 89 32 0 9 -20 9 -64
-1z"/>
<path d="M218 3528 c-21 -48 -18 -55 14 -35 38 24 78 30 78 12 0 -19 11 -19
36 0 19 15 19 15 -1 30 -11 9 -24 14 -30 12 -45 -17 -53 -17 -58 3 -8 31 -20
24 -39 -22z"/>
<path d="M125 3509 c-4 -6 -5 -12 -4 -13 8 -7 69 7 69 15 0 13 -57 11 -65 -2z"/>
<path d="M235 3468 c-11 -18 -24 -40 -30 -50 -6 -10 -21 -18 -37 -18 -34 0
-58 -9 -58 -22 0 -6 13 -8 31 -4 l32 6 -7 -57 c-4 -34 -13 -61 -21 -66 -17 -9
-20 -37 -5 -37 15 0 80 33 80 41 0 4 -8 9 -18 11 -17 3 -17 8 -8 58 l11 55 53
3 c36 2 52 7 49 15 -2 7 -20 11 -42 10 -37 -3 -38 -2 -20 17 17 19 20 19 39 5
35 -26 66 -39 73 -31 13 12 -13 41 -46 50 -20 6 -31 15 -31 27 0 29 -23 22
-45 -13z"/>
<path d="M136 3451 c-29 -6 -49 -31 -25 -31 23 0 89 23 89 32 0 9 -20 9 -64
-1z"/>
<path d="M218 3078 c-21 -48 -18 -55 14 -35 38 24 78 30 78 12 0 -19 11 -19
36 0 19 15 19 15 -1 30 -11 9 -24 14 -30 12 -45 -17 -53 -17 -58 3 -8 31 -20
24 -39 -22z"/>
<path d="M125 3059 c-4 -6 -5 -12 -4 -13 8 -7 69 7 69 15 0 13 -57 11 -65 -2z"/>
<path d="M235 3018 c-11 -18 -24 -40 -30 -50 -6 -10 -21 -18 -37 -18 -34 0
-58 -9 -58 -22 0 -6 13 -8 31 -4 l32 6 -7 -57 c-4 -34 -13 -61 -21 -66 -17 -9
-20 -37 -5 -37 16 0 80 33 80 42 0 4 -8 8 -19 8 -15 0 -17 5 -12 32 5 23 14
34 34 39 25 7 27 5 27 -23 0 -40 15 -65 50 -83 36 -19 80 -19 104 -2 15 11 17
17 7 35 -14 26 -27 28 -35 7 -6 -18 -48 -20 -78 -4 -17 9 -19 17 -13 56 l7 46
-47 -6 c-35 -5 -46 -4 -43 6 3 7 26 13 57 15 35 2 51 7 48 15 -2 7 -20 11 -42
10 -37 -3 -38 -2 -20 17 17 19 20 19 39 5 35 -26 66 -39 73 -31 13 12 -13 41
-46 50 -20 6 -31 15 -31 27 0 29 -23 22 -45 -13z"/>
<path d="M136 3001 c-29 -6 -49 -31 -25 -31 23 0 89 23 89 32 0 9 -20 9 -64
-1z"/>
<path d="M218 2628 c-21 -48 -18 -55 14 -35 38 24 78 30 78 12 0 -19 11 -19
36 0 19 15 19 15 -1 30 -11 9 -24 14 -30 12 -45 -17 -53 -17 -58 3 -8 31 -20
24 -39 -22z"/>
<path d="M125 2609 c-4 -6 -5 -12 -4 -13 8 -7 69 7 69 15 0 13 -57 11 -65 -2z"/>
<path d="M235 2568 c-11 -18 -24 -40 -30 -50 -6 -10 -21 -18 -37 -18 -34 0
-58 -9 -58 -22 0 -6 13 -8 31 -4 l32 6 -7 -57 c-4 -34 -13 -61 -21 -66 -17 -9
-20 -37 -5 -37 16 0 80 33 80 42 0 4 -9 8 -19 8 -14 0 -18 5 -14 21 4 14 9 17
16 10 6 -6 15 -11 19 -11 14 0 9 22 -9 35 -14 11 -13 13 10 17 24 5 27 2 27
-24 0 -40 15 -65 50 -83 36 -19 80 -19 104 -2 15 11 17 17 7 35 -14 26 -27 28
-35 7 -6 -18 -48 -20 -78 -4 -17 9 -19 17 -13 56 l7 46 -47 -6 c-35 -5 -46 -4
-43 6 3 7 26 13 57 15 35 2 51 7 48 15 -2 7 -20 11 -42 10 -37 -3 -38 -2 -20
17 17 19 20 19 39 5 35 -26 66 -39 73 -31 13 12 -13 41 -46 50 -20 6 -31 15
-31 27 0 29 -23 22 -45 -13z"/>
<path d="M136 2551 c-29 -6 -49 -31 -25 -31 23 0 89 23 89 32 0 9 -20 9 -64
-1z"/>
</g>
</svg>
