<?xml version="1.0" standalone="no"?>
<!DOCTYPE svg PUBLIC "-//W3C//DTD SVG 20010904//EN"
 "http://www.w3.org/TR/2001/REC-SVG-20010904/DTD/svg10.dtd">
<svg version="1.0" xmlns="http://www.w3.org/2000/svg"
 width="50.000000pt" height="725.000000pt" viewBox="0 0 50.000000 725.000000"
 preserveAspectRatio="xMidYMid meet">
<metadata>
Created by potrace 1.16, written by Peter Selinger 2001-2019
</metadata>
<g transform="translate(0.000000,725.000000) scale(0.100000,-0.100000)"
fill="#000000" stroke="none">
<path d="M138 7133 c-47 -5 -50 -23 -4 -23 47 0 96 11 96 21 0 9 -20 9 -92 2z"/>
<path d="M138 6683 c-47 -5 -50 -23 -4 -23 47 0 96 11 96 21 0 9 -20 9 -92 2z"/>
<path d="M83 6609 c4 -13 7 -36 7 -51 0 -16 5 -28 11 -28 16 0 7 93 -10 98
-10 4 -12 -1 -8 -19z"/>
<path d="M138 6233 c-47 -5 -50 -23 -4 -23 47 0 96 11 96 21 0 9 -20 9 -92 2z"/>
<path d="M131 6183 c-49 -4 -53 -6 -47 -26 3 -12 6 -34 6 -49 0 -16 5 -28 10
-28 6 0 10 18 10 40 0 35 3 40 24 40 13 0 38 3 56 6 l32 7 -7 -42 c-9 -52 10
-56 24 -3 20 68 27 64 -108 55z"/>
<path d="M138 5783 c-36 -4 -55 -23 -23 -23 8 0 15 -7 15 -15 0 -10 -10 -15
-26 -15 -22 0 -25 -3 -20 -22 3 -13 6 -35 6 -50 0 -16 5 -28 10 -28 6 0 10 18
10 40 0 22 4 40 10 40 5 0 7 -7 4 -15 -8 -19 12 -20 23 0 5 8 24 18 42 21 l33
7 -7 -42 c-9 -52 10 -56 24 -3 18 63 17 65 -39 59 -38 -5 -50 -3 -50 8 0 8 16
16 40 20 22 4 40 11 40 16 0 9 -20 9 -92 2z"/>
<path d="M138 5333 c-36 -4 -55 -23 -23 -23 8 0 15 -7 15 -15 0 -10 -10 -15
-26 -15 -22 0 -25 -3 -20 -22 3 -13 6 -35 6 -50 0 -16 5 -28 10 -28 6 0 10 18
10 40 0 22 4 40 10 40 5 0 7 -7 4 -15 -8 -21 13 -19 25 3 10 16 10 16 11 0 0
-12 8 -18 25 -18 14 0 25 5 25 10 0 6 -7 10 -16 10 -8 0 -12 5 -9 10 3 6 13
10 21 10 13 0 14 -8 9 -40 -9 -52 10 -54 24 -2 16 56 14 62 -19 62 -20 0 -30
5 -30 15 0 8 9 15 20 15 11 0 20 5 20 10 0 10 -19 10 -92 3z m32 -32 c0 -6 -4
-13 -10 -16 -5 -3 -10 1 -10 9 0 9 5 16 10 16 6 0 10 -4 10 -9z"/>
<path d="M138 4883 c-36 -4 -55 -23 -23 -23 8 0 15 -7 15 -15 0 -10 -10 -15
-26 -15 -22 0 -25 -3 -20 -22 3 -13 6 -36 6 -51 0 -23 3 -27 19 -22 10 3 42 7
70 8 50 2 52 3 61 37 15 53 13 60 -20 60 -20 0 -30 5 -30 15 0 8 9 15 20 15
11 0 20 5 20 10 0 10 -19 10 -92 3z m32 -32 c0 -6 -4 -13 -10 -16 -5 -3 -10 1
-10 9 0 9 5 16 10 16 6 0 10 -4 10 -9z m50 -50 c0 -25 -5 -27 -62 -36 -47 -7
-48 -7 -48 19 0 14 4 26 10 26 5 0 7 -7 4 -15 -8 -21 13 -19 25 3 10 16 10 16
11 0 0 -12 8 -18 25 -18 14 0 25 5 25 10 0 6 -7 10 -16 10 -8 0 -12 5 -9 10
11 17 35 11 35 -9z"/>
<path d="M138 4433 c-36 -4 -55 -23 -23 -23 8 0 15 -7 15 -15 0 -10 -10 -15
-26 -15 -22 0 -25 -3 -20 -22 3 -13 6 -36 6 -51 0 -23 3 -27 19 -22 10 3 42 7
70 8 50 2 52 3 61 37 15 53 13 60 -20 60 -20 0 -30 5 -30 15 0 8 9 15 20 15
11 0 20 5 20 10 0 10 -19 10 -92 3z m32 -32 c0 -6 -4 -13 -10 -16 -5 -3 -10 1
-10 9 0 9 5 16 10 16 6 0 10 -4 10 -9z m50 -50 c0 -25 -5 -27 -62 -36 -47 -7
-48 -7 -48 19 0 14 4 26 10 26 5 0 7 -7 4 -15 -8 -21 13 -19 25 3 10 16 10 16
11 0 0 -12 8 -18 25 -18 14 0 25 5 25 10 0 6 -7 10 -16 10 -8 0 -12 5 -9 10
11 17 35 11 35 -9z"/>
<path d="M128 4253 c-33 -5 -37 -23 -5 -23 41 0 97 13 97 21 0 9 -41 10 -92 2z"/>
<path d="M138 3983 c-36 -4 -55 -23 -23 -23 8 0 15 -7 15 -15 0 -10 -10 -15
-26 -15 -22 0 -25 -3 -20 -22 3 -13 6 -35 6 -50 0 -25 3 -27 30 -21 26 5 30 3
30 -16 0 -16 -6 -21 -25 -21 -14 0 -25 -4 -25 -10 0 -5 11 -10 25 -10 19 0 25
-5 25 -21 0 -27 24 -19 28 9 2 14 11 22 23 22 10 0 19 5 19 10 0 6 -9 10 -20
10 -14 0 -20 7 -20 21 0 17 4 20 25 15 21 -5 25 -2 34 31 16 57 14 63 -19 63
-20 0 -30 5 -30 15 0 8 9 15 20 15 11 0 20 5 20 10 0 10 -19 10 -92 3z m32
-32 c0 -6 -4 -13 -10 -16 -5 -3 -10 1 -10 9 0 9 5 16 10 16 6 0 10 -4 10 -9z
m50 -50 c0 -25 -5 -27 -62 -36 -47 -7 -48 -7 -48 19 0 14 4 26 10 26 5 0 7 -7
4 -15 -8 -21 13 -19 25 3 10 16 10 16 11 0 0 -12 8 -18 25 -18 14 0 25 5 25
10 0 6 -7 10 -16 10 -8 0 -12 5 -9 10 11 17 35 11 35 -9z"/>
<path d="M138 3533 c-36 -4 -55 -23 -23 -23 8 0 15 -7 15 -15 0 -10 -10 -15
-26 -15 -22 0 -25 -3 -20 -22 3 -13 6 -35 6 -50 0 -25 3 -27 30 -21 26 5 30 3
30 -16 0 -16 -6 -21 -25 -21 -14 0 -25 -4 -25 -10 0 -5 11 -10 25 -10 15 0 25
-6 25 -14 0 -16 -21 -26 -56 -26 -27 0 -31 -12 -11 -29 10 -8 27 -5 65 11 47
20 67 38 42 38 -5 0 -10 7 -10 15 0 8 9 15 20 15 11 0 20 5 20 10 0 6 -9 10
-20 10 -14 0 -20 7 -20 21 0 17 4 20 25 15 21 -5 25 -2 34 31 16 57 14 63 -19
63 -20 0 -30 5 -30 15 0 8 9 15 20 15 11 0 20 5 20 10 0 10 -19 10 -92 3z m32
-32 c0 -6 -4 -13 -10 -16 -5 -3 -10 1 -10 9 0 9 5 16 10 16 6 0 10 -4 10 -9z
m50 -50 c0 -25 -5 -27 -62 -36 -47 -7 -48 -7 -48 19 0 14 4 26 10 26 5 0 7 -7
4 -15 -8 -21 13 -19 25 3 10 16 10 16 11 0 0 -12 8 -18 25 -18 14 0 25 5 25
10 0 6 -7 10 -16 10 -8 0 -12 5 -9 10 11 17 35 11 35 -9z"/>
<path d="M210 3310 c0 -5 5 -10 10 -10 6 0 10 5 10 10 0 6 -4 10 -10 10 -5 0
-10 -4 -10 -10z"/>
<path d="M138 3083 c-36 -4 -55 -23 -23 -23 8 0 15 -7 15 -15 0 -10 -10 -15
-26 -15 -22 0 -25 -3 -20 -22 3 -13 6 -35 6 -50 0 -25 3 -27 30 -21 26 5 30 3
30 -16 0 -16 -6 -21 -25 -21 -14 0 -25 -4 -25 -10 0 -5 11 -10 25 -10 15 0 25
-6 25 -14 0 -16 -21 -26 -56 -26 -27 0 -31 -12 -11 -29 10 -8 27 -5 65 11 47
20 67 38 42 38 -5 0 -10 7 -10 15 0 8 9 15 20 15 11 0 20 5 20 10 0 6 -9 10
-20 10 -14 0 -20 7 -20 21 0 17 4 20 25 15 21 -5 25 -2 34 31 16 57 14 63 -19
63 -20 0 -30 5 -30 15 0 8 9 15 20 15 11 0 20 5 20 10 0 10 -19 10 -92 3z m32
-32 c0 -6 -4 -13 -10 -16 -5 -3 -10 1 -10 9 0 9 5 16 10 16 6 0 10 -4 10 -9z
m50 -50 c0 -25 -5 -27 -62 -36 -47 -7 -48 -7 -48 19 0 14 4 26 10 26 5 0 7 -7
4 -15 -8 -21 13 -19 25 3 10 16 10 16 11 0 0 -12 8 -18 25 -18 14 0 25 5 25
10 0 6 -7 10 -16 10 -8 0 -12 5 -9 10 11 17 35 11 35 -9z"/>
<path d="M288 3078 c-74 -16 -60 -32 20 -23 72 8 82 11 82 26 0 11 -39 10
-102 -3z"/>
<path d="M210 2860 c0 -5 5 -10 10 -10 6 0 10 5 10 10 0 6 -4 10 -10 10 -5 0
-10 -4 -10 -10z"/>
<path d="M138 2633 c-36 -4 -55 -23 -23 -23 8 0 15 -7 15 -15 0 -10 -10 -15
-26 -15 -22 0 -25 -3 -20 -22 3 -13 6 -35 6 -50 0 -25 3 -27 30 -21 26 5 30 3
30 -16 0 -16 -6 -21 -25 -21 -14 0 -25 -4 -25 -10 0 -5 11 -10 25 -10 15 0 25
-6 25 -14 0 -16 -21 -26 -56 -26 -27 0 -31 -12 -11 -29 10 -8 27 -5 65 11 47
20 67 38 42 38 -5 0 -10 7 -10 15 0 8 9 15 20 15 11 0 20 5 20 10 0 6 -9 10
-20 10 -14 0 -20 7 -20 21 0 17 4 20 25 15 21 -5 25 -2 34 31 16 57 14 63 -19
63 -20 0 -30 5 -30 15 0 8 9 15 20 15 11 0 20 5 20 10 0 10 -19 10 -92 3z m32
-32 c0 -6 -4 -13 -10 -16 -5 -3 -10 1 -10 9 0 9 5 16 10 16 6 0 10 -4 10 -9z
m50 -50 c0 -25 -5 -27 -62 -36 -47 -7 -48 -7 -48 19 0 14 4 26 10 26 5 0 7 -7
4 -15 -8 -21 13 -19 25 3 10 16 10 16 11 0 0 -12 8 -18 25 -18 14 0 25 5 25
10 0 6 -7 10 -16 10 -8 0 -12 5 -9 10 11 17 35 11 35 -9z"/>
<path d="M288 2628 c-46 -10 -66 -28 -32 -28 14 0 16 -11 10 -87 -4 -49 -10
-96 -13 -107 -3 -12 -1 -17 8 -14 8 3 17 27 21 59 4 30 12 77 18 106 11 50 12
52 47 55 44 4 59 29 16 27 -15 -1 -49 -6 -75 -11z"/>
<path d="M210 2410 c0 -5 5 -10 10 -10 6 0 10 5 10 10 0 6 -4 10 -10 10 -5 0
-10 -4 -10 -10z"/>
<path d="M138 2183 c-36 -4 -55 -23 -23 -23 8 0 15 -7 15 -15 0 -10 -10 -15
-26 -15 -22 0 -25 -3 -20 -22 3 -13 6 -35 6 -50 0 -25 3 -27 30 -21 26 5 30 3
30 -16 0 -16 -6 -21 -25 -21 -14 0 -25 -4 -25 -10 0 -5 11 -10 25 -10 15 0 25
-6 25 -14 0 -16 -21 -26 -56 -26 -27 0 -31 -12 -11 -29 10 -8 27 -5 65 11 47
20 67 38 42 38 -5 0 -10 7 -10 15 0 8 9 15 20 15 11 0 20 5 20 10 0 6 -9 10
-20 10 -14 0 -20 7 -20 21 0 17 4 20 25 15 21 -5 25 -2 34 31 16 57 14 63 -19
63 -20 0 -30 5 -30 15 0 8 9 15 20 15 11 0 20 5 20 10 0 10 -19 10 -92 3z m32
-32 c0 -6 -4 -13 -10 -16 -5 -3 -10 1 -10 9 0 9 5 16 10 16 6 0 10 -4 10 -9z
m50 -50 c0 -25 -5 -27 -62 -36 -47 -7 -48 -7 -48 19 0 14 4 26 10 26 5 0 7 -7
4 -15 -8 -21 13 -19 25 3 10 16 10 16 11 0 0 -12 8 -18 25 -18 14 0 25 5 25
10 0 6 -7 10 -16 10 -8 0 -12 5 -9 10 11 17 35 11 35 -9z"/>
<path d="M288 2178 c-46 -10 -66 -28 -32 -28 14 0 15 -11 9 -92 -7 -94 -16
-118 -41 -118 -8 0 -14 -5 -14 -10 0 -20 29 -22 59 -4 31 19 40 34 20 34 -12
0 -6 82 13 157 9 39 13 42 46 45 43 4 58 29 15 27 -15 -1 -49 -6 -75 -11z"/>
<path d="M210 1960 c0 -5 5 -10 10 -10 6 0 10 5 10 10 0 6 -4 10 -10 10 -5 0
-10 -4 -10 -10z"/>
<path d="M138 1733 c-36 -4 -55 -23 -23 -23 8 0 15 -7 15 -15 0 -10 -10 -15
-26 -15 -22 0 -25 -3 -20 -22 3 -13 6 -35 6 -50 0 -25 3 -27 30 -21 26 5 30 3
30 -16 0 -16 -6 -21 -25 -21 -14 0 -25 -4 -25 -10 0 -5 11 -10 25 -10 15 0 25
-6 25 -14 0 -16 -21 -26 -56 -26 -27 0 -31 -12 -11 -29 10 -8 27 -5 65 11 47
20 67 38 42 38 -5 0 -10 7 -10 15 0 8 9 15 20 15 11 0 20 5 20 10 0 6 -9 10
-20 10 -14 0 -20 7 -20 21 0 17 4 20 25 15 21 -5 25 -2 34 31 16 57 14 63 -19
63 -20 0 -30 5 -30 15 0 8 9 15 20 15 11 0 20 5 20 10 0 10 -19 10 -92 3z m32
-32 c0 -6 -4 -13 -10 -16 -5 -3 -10 1 -10 9 0 9 5 16 10 16 6 0 10 -4 10 -9z
m50 -50 c0 -25 -5 -27 -62 -36 -47 -7 -48 -7 -48 19 0 14 4 26 10 26 5 0 7 -7
4 -15 -8 -21 13 -19 25 3 10 16 10 16 11 0 0 -12 8 -18 25 -18 14 0 25 5 25
10 0 6 -7 10 -16 10 -8 0 -12 5 -9 10 11 17 35 11 35 -9z"/>
<path d="M288 1728 c-46 -10 -66 -28 -32 -28 14 0 15 -11 9 -92 -7 -94 -16
-118 -41 -118 -8 0 -14 -5 -14 -10 0 -20 29 -22 59 -4 33 19 38 30 20 36 -7 2
-9 22 -4 61 6 47 11 57 26 57 17 0 19 -8 19 -68 0 -87 17 -114 68 -110 38 3
47 14 33 37 -8 13 -12 13 -26 1 -15 -13 -20 -11 -37 10 -16 20 -18 33 -13 70
4 25 11 50 17 57 17 21 -2 35 -39 28 -34 -6 -35 -5 -29 17 3 13 6 26 6 30 0 4
17 8 37 10 44 4 59 29 16 27 -15 -1 -49 -6 -75 -11z"/>
<path d="M210 1510 c0 -5 5 -10 10 -10 6 0 10 5 10 10 0 6 -4 10 -10 10 -5 0
-10 -4 -10 -10z"/>
<path d="M138 1283 c-36 -4 -55 -23 -23 -23 8 0 15 -7 15 -15 0 -10 -10 -15
-26 -15 -22 0 -25 -3 -20 -22 3 -13 6 -35 6 -50 0 -25 3 -27 30 -21 26 5 30 3
30 -16 0 -16 -6 -21 -25 -21 -14 0 -25 -4 -25 -10 0 -5 11 -10 25 -10 15 0 25
-6 25 -14 0 -16 -21 -26 -56 -26 -27 0 -31 -12 -11 -29 10 -8 27 -5 65 11 47
20 67 38 42 38 -5 0 -10 7 -10 15 0 8 9 15 20 15 11 0 20 5 20 10 0 6 -9 10
-20 10 -14 0 -20 7 -20 21 0 17 4 20 25 15 21 -5 25 -2 34 31 16 57 14 63 -19
63 -20 0 -30 5 -30 15 0 8 9 15 20 15 11 0 20 5 20 10 0 10 -19 10 -92 3z m32
-32 c0 -6 -4 -13 -10 -16 -5 -3 -10 1 -10 9 0 9 5 16 10 16 6 0 10 -4 10 -9z
m50 -50 c0 -25 -5 -27 -62 -36 -47 -7 -48 -7 -48 19 0 14 4 26 10 26 5 0 7 -7
4 -15 -8 -21 13 -19 25 3 10 16 10 16 11 0 0 -12 8 -18 25 -18 14 0 25 5 25
10 0 6 -7 10 -16 10 -8 0 -12 5 -9 10 11 17 35 11 35 -9z"/>
<path d="M288 1278 c-46 -10 -66 -28 -32 -28 14 0 15 -11 9 -92 -7 -94 -16
-118 -41 -118 -8 0 -14 -5 -14 -10 0 -20 29 -22 59 -4 31 18 40 34 21 34 -5 0
-10 15 -9 33 0 17 3 26 6 20 7 -18 33 -16 33 2 0 9 -7 18 -15 21 -23 9 -19 44
5 44 18 0 20 -7 20 -68 0 -87 17 -114 68 -110 38 3 47 14 33 37 -8 13 -12 13
-26 1 -15 -13 -20 -11 -37 10 -16 20 -18 33 -13 70 4 25 11 50 17 57 17 21 -2
35 -39 28 -34 -6 -35 -5 -29 17 3 13 6 26 6 30 0 4 17 8 37 10 44 4 59 29 16
27 -15 -1 -49 -6 -75 -11z"/>
<path d="M210 1060 c0 -5 5 -10 10 -10 6 0 10 5 10 10 0 6 -4 10 -10 10 -5 0
-10 -4 -10 -10z"/>
</g>
</svg>
