<?xml version="1.0" standalone="no"?>
<!DOCTYPE svg PUBLIC "-//W3C//DTD SVG 20010904//EN"
 "http://www.w3.org/TR/2001/REC-SVG-20010904/DTD/svg10.dtd">
<svg version="1.0" xmlns="http://www.w3.org/2000/svg"
 width="50.000000pt" height="725.000000pt" viewBox="0 0 50.000000 725.000000"
 preserveAspectRatio="xMidYMid meet">
<metadata>
Created by potrace 1.16, written by Peter Selinger 2001-2019
</metadata>
<g transform="translate(0.000000,725.000000) scale(0.100000,-0.100000)"
fill="#000000" stroke="none">
<path d="M176 7134 c-15 -14 -26 -28 -22 -31 9 -10 87 29 83 41 -7 20 -32 16
-61 -10z"/>
<path d="M185 6690 c-10 -11 -28 -20 -39 -20 -19 0 -21 -6 -21 -67 0 -36 5
-68 10 -69 14 -4 82 53 73 61 -3 4 -16 1 -28 -5 -27 -14 -29 -12 -23 26 4 25
13 36 44 50 39 17 47 36 18 42 -9 1 -24 -6 -34 -18z"/>
<path d="M185 6240 c-10 -11 -28 -20 -39 -20 -19 0 -21 -6 -21 -64 0 -36 4
-68 7 -71 4 -4 22 4 40 17 18 14 41 23 51 21 22 -6 23 20 1 41 -20 20 -38 21
-30 1 3 -9 -3 -19 -15 -26 -26 -13 -28 -11 -22 27 4 25 13 36 44 50 39 17 47
36 18 42 -9 1 -24 -6 -34 -18z"/>
<path d="M185 5790 c-10 -11 -28 -20 -39 -20 -19 0 -21 -6 -21 -64 0 -36 4
-68 7 -71 4 -4 22 4 40 17 18 14 41 23 51 21 22 -6 23 20 1 41 -20 20 -38 21
-30 1 3 -9 -3 -19 -15 -26 -26 -13 -28 -11 -22 27 4 25 13 36 44 50 39 17 47
36 18 42 -9 1 -24 -6 -34 -18z"/>
<path d="M291 5771 c-19 -3 -36 -12 -39 -20 -3 -10 2 -12 22 -7 14 3 37 9 51
12 20 5 25 2 25 -14 0 -38 -18 -72 -35 -66 -19 8 -19 -5 0 -31 14 -17 17 -18
31 -4 17 17 46 118 38 131 -6 9 -41 9 -93 -1z"/>
<path d="M185 5340 c-10 -11 -28 -20 -39 -20 -19 0 -21 -6 -21 -64 0 -36 4
-68 7 -71 4 -4 22 4 40 17 35 26 71 27 61 2 -3 -8 -1 -14 4 -14 14 0 38 29 63
78 34 66 67 48 40 -22 -6 -17 -14 -24 -25 -20 -19 8 -19 -5 0 -31 14 -17 17
-18 31 -4 17 18 46 118 37 132 -7 11 -114 -1 -128 -14 -6 -7 -5 -13 5 -19 12
-7 12 -13 1 -37 -12 -26 -13 -27 -23 -8 -18 33 -56 50 -44 20 3 -9 -3 -19 -15
-26 -26 -13 -28 -11 -22 27 4 25 13 36 44 50 39 17 47 36 18 42 -9 1 -24 -6
-34 -18z"/>
<path d="M185 4890 c-10 -11 -28 -20 -39 -20 -19 0 -21 -6 -21 -64 0 -36 4
-68 7 -71 4 -4 22 4 40 17 35 26 71 27 61 2 -3 -8 -1 -14 4 -14 14 0 38 29 63
78 34 66 67 48 40 -22 -6 -17 -14 -24 -25 -20 -19 8 -19 -5 0 -31 14 -17 17
-18 31 -4 17 18 46 118 37 132 -7 11 -114 -1 -128 -14 -6 -7 -5 -13 5 -19 12
-7 12 -13 1 -37 -12 -26 -13 -27 -23 -8 -18 33 -56 50 -44 20 3 -9 -3 -19 -15
-26 -26 -13 -28 -11 -22 27 4 25 13 36 44 50 39 17 47 36 18 42 -9 1 -24 -6
-34 -18z"/>
<path d="M145 4703 c4 -10 10 -29 12 -43 10 -58 14 -70 23 -70 11 0 13 37 4
93 -5 28 -11 37 -26 37 -15 0 -18 -4 -13 -17z"/>
<path d="M185 4440 c-10 -11 -28 -20 -39 -20 -19 0 -21 -6 -21 -64 0 -36 4
-68 7 -71 4 -4 22 4 40 17 35 26 71 27 61 2 -3 -8 -1 -14 4 -14 14 0 38 29 63
78 34 66 67 48 40 -22 -6 -17 -14 -24 -25 -20 -17 7 -21 -11 -5 -21 22 -13 8
-25 -30 -25 -22 0 -40 -4 -40 -10 0 -5 21 -10 46 -10 l47 0 -6 -37 c-4 -20
-11 -40 -18 -43 -15 -10 -2 -50 16 -50 8 0 17 12 20 28 4 15 10 45 15 67 5 23
5 44 0 50 -6 7 -4 27 5 51 7 22 15 54 17 70 l3 29 -60 -3 c-63 -3 -91 -16 -65
-32 12 -7 12 -13 1 -37 -12 -26 -13 -27 -23 -8 -18 33 -56 50 -44 20 3 -9 -3
-19 -15 -26 -26 -13 -28 -11 -22 27 4 25 13 36 44 50 39 17 47 36 18 42 -9 1
-24 -6 -34 -18z"/>
<path d="M145 4253 c4 -10 10 -29 12 -43 10 -59 14 -70 25 -70 7 0 9 18 5 55
-5 50 -4 55 14 55 10 0 19 5 19 10 0 6 -18 10 -41 10 -35 0 -40 -2 -34 -17z"/>
<path d="M185 3990 c-10 -11 -28 -20 -39 -20 -19 0 -21 -6 -21 -64 0 -36 4
-68 7 -71 4 -4 22 4 40 17 35 26 71 27 61 2 -3 -8 -1 -14 4 -14 14 0 38 29 63
78 34 66 67 48 40 -22 -6 -17 -14 -24 -25 -20 -17 7 -21 -11 -5 -21 22 -13 8
-25 -30 -25 -22 0 -40 -4 -40 -10 0 -5 20 -10 45 -10 33 0 45 -4 45 -15 0 -15
-5 -15 -122 -19 -12 -1 -23 5 -25 12 -3 7 4 12 16 12 12 0 21 5 21 10 0 6 -18
10 -41 10 -35 0 -40 -2 -34 -17 4 -10 10 -29 12 -43 10 -58 14 -70 23 -70 6 0
10 13 10 29 0 26 3 29 46 35 26 3 55 6 65 6 20 0 26 -26 8 -32 -16 -5 -1 -48
16 -48 8 0 17 12 20 28 4 15 10 45 15 67 5 23 5 44 0 50 -6 7 -4 27 5 51 7 22
15 54 17 70 l3 29 -60 -3 c-63 -3 -91 -16 -65 -32 12 -7 12 -13 1 -37 -12 -26
-13 -27 -23 -8 -18 33 -56 50 -44 20 3 -9 -3 -19 -15 -26 -26 -13 -28 -11 -22
27 4 25 13 36 44 50 39 17 47 36 18 42 -9 1 -24 -6 -34 -18z"/>
<path d="M185 3540 c-10 -11 -28 -20 -39 -20 -19 0 -21 -6 -21 -64 0 -36 4
-68 7 -71 4 -4 22 4 40 17 35 26 71 27 61 2 -3 -8 -1 -14 4 -14 14 0 38 29 63
78 34 66 67 48 40 -22 -6 -17 -14 -24 -25 -20 -17 7 -21 -11 -5 -21 25 -16 3
-24 -81 -31 -78 -6 -89 -9 -83 -23 3 -9 9 -27 11 -41 10 -58 14 -70 23 -70 6
0 10 14 10 30 0 25 4 30 25 30 18 0 25 -5 25 -20 0 -27 18 -25 22 3 4 26 58
39 58 13 0 -8 -5 -16 -11 -18 -16 -5 -1 -48 16 -48 8 0 17 12 20 28 4 15 10
45 15 67 5 23 5 44 0 50 -6 7 -4 27 5 51 7 22 15 54 17 70 l3 29 -60 -3 c-63
-3 -91 -16 -65 -32 12 -7 12 -13 1 -37 -12 -26 -13 -27 -23 -8 -18 33 -56 50
-44 20 3 -9 -3 -19 -15 -26 -26 -13 -28 -11 -22 27 4 25 13 36 44 50 39 17 47
36 18 42 -9 1 -24 -6 -34 -18z m145 -195 c0 -10 -11 -15 -35 -15 -26 0 -33 3
-29 15 4 9 19 15 35 15 19 0 29 -5 29 -15z m-100 -11 c0 -10 -7 -14 -22 -12
-32 5 -35 28 -4 28 17 0 26 -5 26 -16z"/>
<path d="M185 3090 c-10 -11 -28 -20 -39 -20 -19 0 -21 -6 -21 -64 0 -36 4
-68 7 -71 4 -4 22 4 40 17 35 26 71 27 61 2 -3 -8 -1 -14 4 -14 14 0 38 29 63
78 34 66 67 48 40 -22 -6 -17 -14 -24 -25 -20 -17 7 -21 -11 -5 -21 25 -16 3
-24 -81 -31 -78 -6 -89 -9 -83 -23 4 -9 10 -35 14 -59 4 -23 9 -44 11 -46 2
-2 31 0 64 5 48 7 62 5 71 -6 17 -23 33 -18 39 13 4 15 10 45 15 67 5 23 5 44
0 50 -6 7 -4 27 5 51 7 22 15 54 17 70 l3 29 -60 -3 c-63 -3 -91 -16 -65 -32
12 -7 12 -13 1 -37 -12 -26 -13 -27 -23 -8 -18 33 -56 50 -44 20 3 -9 -3 -19
-15 -26 -26 -13 -28 -11 -22 27 4 25 13 36 44 50 39 17 47 36 18 42 -9 1 -24
-6 -34 -18z m145 -195 c0 -10 -11 -15 -35 -15 -26 0 -33 3 -29 15 4 9 19 15
35 15 19 0 29 -5 29 -15z m-100 -11 c0 -10 -7 -14 -22 -12 -32 5 -35 28 -4 28
17 0 26 -5 26 -16z m90 -39 c0 -10 -10 -15 -30 -15 -29 0 -38 9 -23 23 13 13
53 7 53 -8z m-82 -7 c-7 -20 -48 -23 -48 -4 0 11 9 16 26 16 16 0 24 -5 22
-12z"/>
</g>
</svg>
