<?xml version="1.0" standalone="no"?>
<!DOCTYPE svg PUBLIC "-//W3C//DTD SVG 20010904//EN"
 "http://www.w3.org/TR/2001/REC-SVG-20010904/DTD/svg10.dtd">
<svg version="1.0" xmlns="http://www.w3.org/2000/svg"
 width="50.000000pt" height="725.000000pt" viewBox="0 0 50.000000 725.000000"
 preserveAspectRatio="xMidYMid meet">
<metadata>
Created by potrace 1.16, written by Peter Selinger 2001-2019
</metadata>
<g transform="translate(0.000000,725.000000) scale(0.100000,-0.100000)"
fill="#000000" stroke="none">
<path d="M215 7150 c-3 -10 -19 -30 -36 -44 -48 -41 -35 -63 28 -47 21 5 50
12 66 15 45 10 30 24 -20 18 l-48 -5 29 31 c28 30 28 52 1 52 -7 0 -16 -9 -20
-20z"/>
<path d="M215 6700 c-3 -10 -19 -30 -36 -44 -55 -46 -35 -62 53 -41 40 9 66
11 72 5 16 -16 26 -12 26 9 0 19 -34 51 -53 51 -5 0 -7 -9 -4 -20 4 -17 0 -20
-31 -20 l-36 0 28 29 c28 29 28 51 1 51 -7 0 -16 -9 -20 -20z"/>
<path d="M215 6250 c-3 -10 -19 -30 -36 -44 -55 -46 -35 -62 53 -41 40 9 66
11 72 5 16 -16 26 -12 26 9 0 19 -34 51 -53 51 -5 0 -7 -9 -4 -20 4 -17 0 -20
-31 -20 l-36 0 28 29 c28 29 28 51 1 51 -7 0 -16 -9 -20 -20z"/>
<path d="M206 6124 c-49 -8 -92 -16 -94 -19 -15 -14 15 -16 83 -6 42 6 98 11
125 11 38 0 50 4 50 15 0 19 -40 18 -164 -1z"/>
<path d="M215 5800 c-3 -10 -20 -31 -37 -45 -34 -29 -32 -61 3 -52 15 4 19 1
17 -11 -2 -11 -19 -20 -46 -26 -47 -10 -56 -26 -14 -26 l27 -1 -42 -40 c-24
-22 -43 -42 -43 -44 0 -18 37 3 86 47 56 52 58 53 131 56 57 3 73 7 73 19 0
13 -10 15 -64 9 -57 -6 -64 -4 -69 13 -4 15 2 20 27 24 17 3 35 1 41 -4 15
-15 25 -10 25 10 0 19 -34 51 -53 51 -5 0 -7 -9 -4 -20 4 -17 0 -20 -31 -20
l-36 0 28 29 c28 29 28 51 1 51 -7 0 -16 -9 -20 -20z"/>
<path d="M215 5350 c-3 -10 -20 -31 -37 -45 -34 -29 -32 -61 3 -52 15 4 19 1
17 -11 -2 -11 -19 -20 -46 -26 -47 -10 -56 -26 -14 -26 l27 -1 -42 -40 c-24
-22 -43 -42 -43 -44 0 -17 36 2 82 44 78 72 92 73 153 11 39 -40 56 -50 82
-50 46 0 41 16 -11 41 -24 11 -52 29 -62 40 -17 18 -16 19 14 19 23 0 32 5 32
16 0 15 -9 16 -64 10 -57 -6 -64 -4 -69 13 -4 15 2 20 27 24 17 3 35 1 41 -4
15 -15 25 -10 25 10 0 19 -34 51 -53 51 -5 0 -7 -9 -4 -20 4 -17 0 -20 -31
-20 l-36 0 28 29 c28 29 28 51 1 51 -7 0 -16 -9 -20 -20z"/>
<path d="M215 4900 c-3 -10 -20 -31 -37 -45 -34 -29 -32 -61 3 -52 15 4 19 1
17 -11 -2 -11 -19 -20 -46 -26 -47 -10 -56 -26 -14 -26 l27 -1 -42 -40 c-24
-22 -43 -42 -43 -44 0 -11 24 -4 50 15 l28 20 6 -23 c3 -12 6 -37 6 -54 0 -18
5 -33 10 -33 6 0 10 27 10 60 0 39 -4 60 -12 60 -20 0 32 48 60 55 21 5 34 -2
76 -44 41 -40 59 -51 84 -51 45 0 40 16 -12 41 -24 11 -52 29 -62 40 -17 18
-16 19 14 19 23 0 32 5 32 16 0 15 -9 16 -64 10 -57 -6 -64 -4 -69 13 -4 15 2
20 27 24 17 3 35 1 41 -4 15 -15 25 -10 25 10 0 19 -34 51 -53 51 -5 0 -7 -9
-4 -20 4 -17 0 -20 -31 -20 l-36 0 28 29 c28 29 28 51 1 51 -7 0 -16 -9 -20
-20z"/>
<path d="M215 4450 c-3 -10 -20 -31 -37 -45 -34 -29 -32 -61 3 -52 15 4 19 1
17 -11 -2 -11 -19 -20 -46 -26 -47 -10 -56 -26 -14 -26 l27 -1 -42 -40 c-24
-22 -43 -42 -43 -44 0 -11 24 -4 50 15 l28 20 6 -23 c3 -12 6 -37 6 -54 0 -18
5 -33 10 -33 6 0 10 23 10 50 0 43 3 50 20 50 11 0 20 5 20 10 0 6 -14 10 -32
10 l-31 0 22 24 c36 38 70 42 100 12 l26 -26 -33 0 c-17 0 -32 -4 -32 -10 0
-5 11 -10 25 -10 23 0 25 -4 25 -40 0 -30 -4 -40 -16 -40 -11 0 -14 -5 -10
-16 3 -9 6 -18 6 -20 0 -2 7 -4 15 -4 18 0 35 39 35 81 0 29 13 39 25 19 8
-13 75 -13 75 0 0 5 -20 19 -44 31 -24 11 -52 29 -62 40 -17 18 -16 19 14 19
23 0 32 5 32 16 0 15 -9 16 -64 10 -57 -6 -64 -4 -69 13 -4 15 2 20 27 24 17
3 35 1 41 -4 15 -15 25 -10 25 10 0 19 -34 51 -53 51 -5 0 -7 -9 -4 -20 4 -17
0 -20 -31 -20 l-36 0 28 29 c28 29 28 51 1 51 -7 0 -16 -9 -20 -20z"/>
<path d="M215 4000 c-3 -10 -20 -31 -37 -45 -34 -29 -32 -61 3 -52 15 4 19 1
17 -11 -2 -11 -19 -20 -46 -26 -47 -10 -56 -26 -14 -26 l27 -1 -42 -40 c-24
-22 -43 -42 -43 -44 0 -11 24 -4 50 15 l28 20 6 -23 c3 -12 6 -37 6 -54 0 -18
5 -33 10 -33 6 0 10 11 10 24 0 18 7 25 31 30 52 10 79 7 79 -9 0 -8 -7 -15
-16 -15 -11 0 -14 -5 -10 -16 3 -9 6 -18 6 -20 0 -2 7 -4 15 -4 18 0 35 39 35
81 0 29 13 39 25 19 8 -13 75 -13 75 0 0 5 -20 19 -44 31 -24 11 -52 29 -62
40 -17 18 -16 19 14 19 23 0 32 5 32 16 0 15 -9 16 -64 10 -57 -6 -64 -4 -69
13 -4 15 2 20 27 24 17 3 35 1 41 -4 15 -15 25 -10 25 10 0 19 -34 51 -53 51
-5 0 -7 -9 -4 -20 4 -17 0 -20 -31 -20 l-36 0 28 29 c28 29 28 51 1 51 -7 0
-16 -9 -20 -20z m75 -165 l23 -25 -31 0 c-18 0 -32 -4 -32 -10 0 -5 11 -10 25
-10 16 0 25 -6 25 -15 0 -10 -10 -15 -32 -15 -18 0 -43 -3 -55 -6 -17 -5 -23
-2 -23 10 0 9 8 16 20 16 11 0 20 5 20 10 0 6 -14 10 -32 10 -31 0 -31 0 -12
21 19 21 48 37 70 38 6 1 21 -10 34 -24z"/>
<path d="M215 3550 c-3 -10 -20 -31 -37 -45 -34 -29 -32 -61 3 -52 15 4 19 1
17 -11 -2 -11 -19 -20 -46 -26 -47 -10 -56 -26 -14 -26 l27 -1 -42 -40 c-24
-22 -43 -42 -43 -44 0 -11 24 -4 50 15 l28 20 6 -23 c3 -12 6 -37 6 -54 0 -18
5 -33 10 -33 6 0 10 11 10 25 0 18 5 25 20 25 11 0 20 -7 20 -15 0 -22 18 -18
25 5 7 23 45 27 45 5 0 -8 -7 -15 -16 -15 -11 0 -14 -5 -10 -16 3 -9 6 -18 6
-20 0 -2 7 -4 15 -4 18 0 35 39 35 81 0 29 13 39 25 19 8 -13 75 -13 75 0 0 5
-20 19 -44 31 -24 11 -52 29 -62 40 -17 18 -16 19 14 19 23 0 32 5 32 16 0 15
-9 16 -64 10 -57 -6 -64 -4 -69 13 -4 15 2 20 27 24 17 3 35 1 41 -4 15 -15
25 -10 25 10 0 19 -34 51 -53 51 -5 0 -7 -9 -4 -20 4 -17 0 -20 -31 -20 l-36
0 28 29 c28 29 28 51 1 51 -7 0 -16 -9 -20 -20z m74 -164 l22 -23 -47 -7 c-26
-3 -58 -6 -72 -6 -25 0 -25 0 -6 21 19 21 48 37 70 38 6 1 20 -10 33 -23z m11
-61 c0 -8 -9 -15 -20 -15 -11 0 -20 7 -20 15 0 8 9 15 20 15 11 0 20 -7 20
-15z m-72 -7 c-7 -19 -38 -22 -38 -4 0 10 9 16 21 16 12 0 19 -5 17 -12z"/>
<path d="M215 3100 c-3 -10 -20 -31 -37 -45 -34 -29 -32 -61 3 -52 15 4 19 1
17 -11 -2 -11 -19 -20 -46 -26 -47 -10 -56 -26 -14 -26 l27 -1 -42 -40 c-24
-22 -43 -42 -43 -44 0 -11 24 -4 50 15 l28 20 6 -23 c3 -12 6 -36 6 -53 l0
-31 55 5 c37 3 55 1 55 -7 0 -6 7 -11 15 -11 18 0 35 39 35 81 0 29 13 39 25
19 8 -13 75 -13 75 0 0 5 -20 19 -44 31 -24 11 -52 29 -62 40 -17 18 -16 19
14 19 23 0 32 5 32 16 0 15 -9 16 -64 10 -57 -6 -64 -4 -69 13 -4 15 2 20 27
24 17 3 35 1 41 -4 15 -15 25 -10 25 10 0 19 -34 51 -53 51 -5 0 -7 -9 -4 -20
4 -17 0 -20 -31 -20 l-36 0 28 29 c28 29 28 51 1 51 -7 0 -16 -9 -20 -20z m74
-164 l22 -23 -47 -7 c-26 -3 -58 -6 -72 -6 -25 0 -25 0 -6 21 19 21 48 37 70
38 6 1 20 -10 33 -23z m11 -61 c0 -8 -9 -15 -20 -15 -11 0 -20 7 -20 15 0 8 9
15 20 15 11 0 20 -7 20 -15z m-72 -7 c-7 -19 -38 -22 -38 -4 0 10 9 16 21 16
12 0 19 -5 17 -12z m72 -43 c0 -8 -9 -15 -20 -15 -11 0 -20 7 -20 15 0 8 9 15
20 15 11 0 20 -7 20 -15z m-70 -5 c0 -5 -9 -10 -20 -10 -11 0 -20 5 -20 10 0
6 9 10 20 10 11 0 20 -4 20 -10z"/>
</g>
</svg>
