<?xml version="1.0" standalone="no"?>
<!DOCTYPE svg PUBLIC "-//W3C//DTD SVG 20010904//EN"
 "http://www.w3.org/TR/2001/REC-SVG-20010904/DTD/svg10.dtd">
<svg version="1.0" xmlns="http://www.w3.org/2000/svg"
 width="50.000000pt" height="725.000000pt" viewBox="0 0 50.000000 725.000000"
 preserveAspectRatio="xMidYMid meet">
<metadata>
Created by potrace 1.16, written by Peter Selinger 2001-2019
</metadata>
<g transform="translate(0.000000,725.000000) scale(0.100000,-0.100000)"
fill="#000000" stroke="none">
<path d="M230 7163 c1 -14 27 -43 39 -43 17 0 13 37 -5 44 -21 8 -34 8 -34 -1z"/>
<path d="M230 6712 c0 -4 5 -13 12 -20 14 -14 4 -18 -76 -26 -33 -4 -62 -9
-65 -11 -14 -14 18 -16 97 -6 49 6 117 11 151 11 46 0 61 3 58 13 -3 8 -23 11
-66 9 -48 -2 -61 0 -61 12 0 7 -7 17 -16 20 -21 8 -34 8 -34 -2z"/>
<path d="M230 6261 c0 -6 5 -13 10 -16 18 -11 0 -25 -33 -25 -52 0 -107 -12
-107 -23 0 -6 23 -7 63 -3 l62 7 -29 -30 c-34 -35 -27 -53 17 -44 30 6 37 23
10 23 -13 0 -11 5 10 18 15 9 27 22 27 29 0 9 21 13 76 13 56 0 75 3 71 13 -3
8 -23 11 -66 9 -48 -2 -61 0 -61 12 0 7 -7 17 -16 20 -22 9 -34 7 -34 -3z"/>
<path d="M230 5811 c0 -6 5 -13 10 -16 18 -11 0 -25 -33 -25 -52 0 -107 -12
-107 -23 0 -6 23 -7 63 -3 l62 7 -29 -29 c-31 -33 -27 -56 7 -47 21 5 21 5 4
-7 -53 -36 -52 -36 -40 -49 10 -10 24 -10 68 1 61 15 75 35 20 28 -19 -2 -35
-3 -35 -2 0 2 22 15 50 31 27 15 50 33 50 40 0 23 -22 25 -44 4 -12 -12 -33
-21 -47 -21 l-24 1 28 17 c15 9 27 22 27 29 0 9 21 13 76 13 56 0 75 3 71 13
-3 8 -23 11 -66 9 -48 -2 -61 0 -61 12 0 7 -7 17 -16 20 -22 9 -34 7 -34 -3z"/>
<path d="M300 5650 c0 -5 5 -10 10 -10 6 0 10 5 10 10 0 6 -4 10 -10 10 -5 0
-10 -4 -10 -10z"/>
<path d="M230 5361 c0 -6 5 -13 10 -16 18 -11 0 -25 -33 -25 -52 0 -107 -12
-107 -23 0 -6 23 -7 63 -3 l62 7 -29 -29 c-31 -33 -27 -56 7 -47 21 5 21 5 4
-7 -53 -36 -52 -36 -40 -49 10 -10 24 -10 68 1 61 15 75 35 20 28 -19 -2 -35
-3 -35 -2 0 2 22 15 50 31 27 15 50 33 50 40 0 23 -22 25 -44 4 -12 -12 -33
-21 -47 -21 l-24 1 28 17 c15 9 27 22 27 29 0 9 21 13 76 13 56 0 75 3 71 13
-3 8 -23 11 -66 9 -48 -2 -61 0 -61 12 0 7 -7 17 -16 20 -22 9 -34 7 -34 -3z"/>
<path d="M300 5214 c0 -18 23 -44 39 -44 19 0 12 39 -8 50 -26 14 -31 13 -31
-6z"/>
<path d="M230 4911 c0 -6 5 -13 10 -16 18 -11 0 -25 -33 -25 -52 0 -107 -12
-107 -23 0 -6 23 -7 63 -3 l62 7 -29 -29 c-31 -33 -27 -56 7 -47 21 5 21 5 4
-7 -53 -36 -52 -36 -40 -49 10 -10 24 -10 68 1 61 15 75 35 20 28 -19 -2 -35
-3 -35 -2 0 2 22 15 50 31 27 15 50 33 50 40 0 23 -22 25 -44 4 -12 -12 -33
-21 -47 -21 l-24 1 28 17 c15 9 27 22 27 29 0 9 21 13 76 13 56 0 75 3 71 13
-3 8 -23 11 -66 9 -48 -2 -61 0 -61 12 0 7 -7 17 -16 20 -22 9 -34 7 -34 -3z"/>
<path d="M300 4764 c0 -18 23 -44 39 -44 19 0 12 39 -8 50 -26 14 -31 13 -31
-6z"/>
<path d="M166 4648 c6 -52 18 -77 30 -66 10 11 -10 111 -24 116 -10 3 -11 -8
-6 -50z"/>
<path d="M230 4461 c0 -6 5 -13 10 -16 18 -11 0 -25 -33 -25 -52 0 -107 -12
-107 -23 0 -6 23 -7 63 -3 l62 7 -29 -29 c-31 -33 -27 -56 7 -47 21 5 21 5 4
-7 -53 -36 -52 -36 -40 -49 10 -10 24 -10 68 1 61 15 75 35 20 28 -19 -2 -35
-3 -35 -2 0 2 22 15 50 31 27 15 50 33 50 40 0 23 -22 25 -44 4 -12 -12 -33
-21 -47 -21 l-24 1 28 17 c15 9 27 22 27 29 0 9 21 13 76 13 56 0 75 3 71 13
-3 8 -23 11 -66 9 -48 -2 -61 0 -61 12 0 7 -7 17 -16 20 -22 9 -34 7 -34 -3z"/>
<path d="M300 4310 c0 -11 5 -20 10 -20 6 0 10 -7 10 -15 0 -10 -10 -15 -30
-15 -16 0 -30 -4 -30 -10 0 -5 16 -10 35 -10 33 0 35 -2 35 -35 0 -24 -5 -35
-15 -35 -16 0 -19 -9 -9 -34 9 -23 33 -19 43 7 16 44 20 108 6 113 -7 3 -11
14 -7 26 3 14 -1 26 -13 34 -26 19 -35 17 -35 -6z"/>
<path d="M165 4201 c8 -60 12 -71 26 -71 7 0 9 16 4 50 -7 49 -6 50 19 50 14
0 26 4 26 10 0 5 -18 9 -40 8 l-41 -1 6 -46z"/>
<path d="M230 4011 c0 -6 5 -13 10 -16 18 -11 0 -25 -33 -25 -52 0 -107 -12
-107 -23 0 -6 23 -7 63 -3 l62 7 -29 -29 c-31 -33 -27 -56 7 -47 21 5 21 5 4
-7 -53 -36 -52 -36 -40 -49 10 -10 24 -10 68 1 61 15 75 35 20 28 -19 -2 -35
-3 -35 -2 0 2 22 15 50 31 27 15 50 33 50 40 0 23 -22 25 -44 4 -12 -12 -33
-21 -47 -21 l-24 1 28 17 c15 9 27 22 27 29 0 9 21 13 76 13 56 0 75 3 71 13
-3 8 -23 11 -66 9 -48 -2 -61 0 -61 12 0 7 -7 17 -16 20 -22 9 -34 7 -34 -3z"/>
<path d="M300 3860 c0 -11 5 -20 10 -20 6 0 10 -7 10 -15 0 -10 -10 -15 -30
-15 -16 0 -30 -4 -30 -10 0 -5 16 -10 35 -10 43 0 46 -15 4 -24 -48 -9 -109
-7 -109 4 0 6 11 10 25 10 14 0 25 4 25 10 0 5 -18 9 -40 8 l-41 -1 6 -46 c4
-25 8 -52 10 -58 7 -23 25 -14 25 12 0 26 8 30 88 38 32 4 42 2 42 -9 0 -8 -7
-14 -15 -14 -16 0 -19 -9 -9 -34 9 -23 33 -19 43 7 16 44 20 108 6 113 -7 3
-11 14 -7 26 3 14 -1 26 -13 34 -26 19 -35 17 -35 -6z"/>
<path d="M230 3561 c0 -6 5 -13 10 -16 18 -11 0 -25 -33 -25 -52 0 -107 -12
-107 -23 0 -6 23 -7 63 -3 l62 7 -29 -29 c-31 -33 -27 -56 7 -47 21 5 21 5 4
-7 -53 -36 -52 -36 -40 -49 10 -10 24 -10 68 1 61 15 75 35 20 28 -19 -2 -35
-3 -35 -2 0 2 22 15 50 31 27 15 50 33 50 40 0 23 -22 25 -44 4 -12 -12 -33
-21 -47 -21 l-24 1 28 17 c15 9 27 22 27 29 0 9 21 13 76 13 56 0 75 3 71 13
-3 8 -23 11 -66 9 -48 -2 -61 0 -61 12 0 7 -7 17 -16 20 -22 9 -34 7 -34 -3z"/>
<path d="M300 3410 c0 -11 5 -20 10 -20 6 0 10 -6 10 -14 0 -10 -19 -17 -67
-22 -38 -4 -74 -7 -81 -5 -10 2 -12 -9 -7 -46 4 -26 8 -54 10 -60 7 -22 25
-14 25 11 0 13 7 27 16 30 23 9 24 8 24 -14 0 -11 5 -20 11 -20 6 0 13 9 16
20 3 11 11 20 18 20 8 0 20 3 29 6 11 4 16 1 16 -10 0 -9 -7 -16 -15 -16 -16
0 -19 -9 -9 -34 9 -23 33 -19 43 7 16 44 20 108 6 113 -7 3 -11 14 -7 26 3 14
-1 26 -13 34 -26 19 -35 17 -35 -6z m30 -80 c0 -5 -6 -10 -14 -10 -8 0 -21 -3
-30 -6 -11 -4 -16 -1 -16 10 0 11 9 16 30 16 17 0 30 -4 30 -10z m-90 -10 c0
-5 -11 -10 -25 -10 -14 0 -25 5 -25 10 0 6 11 10 25 10 14 0 25 -4 25 -10z"/>
<path d="M230 3111 c0 -6 5 -13 10 -16 18 -11 0 -25 -33 -25 -52 0 -107 -12
-107 -23 0 -6 23 -7 63 -3 l62 7 -29 -29 c-31 -33 -27 -56 7 -47 21 5 21 5 4
-7 -53 -36 -52 -36 -40 -49 10 -10 24 -10 68 1 61 15 75 35 20 28 -19 -2 -35
-3 -35 -2 0 2 22 15 50 31 27 15 50 33 50 40 0 23 -22 25 -44 4 -12 -12 -33
-21 -47 -21 l-24 1 28 17 c15 9 27 22 27 29 0 9 21 13 76 13 56 0 75 3 71 13
-3 8 -23 11 -66 9 -48 -2 -61 0 -61 12 0 7 -7 17 -16 20 -22 9 -34 7 -34 -3z"/>
<path d="M300 2960 c0 -11 5 -20 10 -20 6 0 10 -6 10 -14 0 -10 -19 -17 -67
-22 -38 -4 -74 -7 -81 -5 -10 1 -11 -10 -6 -51 3 -29 9 -56 13 -60 3 -3 31 -2
61 4 47 8 56 7 67 -7 18 -26 41 -11 48 32 3 21 8 48 11 61 3 14 -1 25 -10 28
-8 3 -12 13 -8 26 3 14 -1 26 -13 34 -26 19 -35 17 -35 -6z m30 -80 c0 -5 -6
-10 -14 -10 -8 0 -21 -3 -30 -6 -11 -4 -16 -1 -16 10 0 11 9 16 30 16 17 0 30
-4 30 -10z m-90 -10 c0 -5 -11 -10 -25 -10 -14 0 -25 5 -25 10 0 6 11 10 25
10 14 0 25 -4 25 -10z m90 -35 c0 -10 -10 -15 -30 -15 -16 0 -30 4 -30 9 0 8
10 12 53 20 4 0 7 -6 7 -14z m-90 -10 c0 -8 -9 -15 -20 -15 -22 0 -27 15 -7
23 21 9 27 7 27 -8z"/>
</g>
</svg>
