<?xml version="1.0" standalone="no"?>
<!DOCTYPE svg PUBLIC "-//W3C//DTD SVG 20010904//EN"
 "http://www.w3.org/TR/2001/REC-SVG-20010904/DTD/svg10.dtd">
<svg version="1.0" xmlns="http://www.w3.org/2000/svg"
 width="50.000000pt" height="725.000000pt" viewBox="0 0 50.000000 725.000000"
 preserveAspectRatio="xMidYMid meet">
<metadata>
Created by potrace 1.16, written by Peter Selinger 2001-2019
</metadata>
<g transform="translate(0.000000,725.000000) scale(0.100000,-0.100000)"
fill="#000000" stroke="none">
<path d="M255 7147 c-22 -12 -42 -23 -44 -24 -2 -2 -2 -5 1 -8 9 -10 128 29
125 40 -6 17 -41 14 -82 -8z"/>
<path d="M255 6697 c-22 -12 -42 -23 -44 -24 -2 -2 -2 -5 1 -8 9 -10 128 29
125 40 -6 17 -41 14 -82 -8z"/>
<path d="M194 6635 c3 -9 6 -19 6 -21 0 -2 7 -4 16 -4 22 0 13 34 -10 38 -14
3 -17 0 -12 -13z"/>
<path d="M255 6247 c-22 -12 -42 -23 -44 -24 -2 -2 -2 -5 1 -8 9 -10 128 29
125 40 -6 17 -41 14 -82 -8z"/>
<path d="M312 6199 c-7 -12 -11 -23 -9 -26 9 -9 47 17 47 32 0 22 -23 18 -38
-6z"/>
<path d="M194 6185 c3 -9 6 -19 6 -21 0 -2 7 -4 16 -4 22 0 13 34 -10 38 -14
3 -17 0 -12 -13z"/>
<path d="M255 5797 c-22 -12 -42 -23 -44 -24 -2 -2 -2 -5 1 -8 9 -10 128 29
125 40 -6 17 -41 14 -82 -8z"/>
<path d="M320 5762 c0 -5 -9 -18 -20 -30 -26 -28 -66 -29 -73 -2 -7 28 -37 26
-34 -2 1 -17 -4 -24 -20 -26 -13 -2 -23 -8 -23 -14 0 -7 17 -8 48 -5 26 4 80
9 120 13 75 7 99 24 35 24 -31 1 -35 3 -20 11 21 12 23 39 2 39 -8 0 -15 -4
-15 -8z"/>
<path d="M253 5346 c-47 -23 -57 -42 -18 -32 23 6 25 3 25 -24 0 -34 -25 -42
-33 -10 -7 28 -37 26 -34 -2 1 -17 -4 -24 -20 -26 -13 -2 -23 -8 -23 -14 0 -7
19 -8 56 -3 l56 7 -4 -43 c-2 -27 1 -44 10 -46 8 -3 12 9 12 40 0 49 10 57 78
57 17 0 32 5 32 10 0 6 -17 10 -37 10 -31 1 -35 3 -20 11 9 5 17 17 17 24 0
24 -25 17 -40 -10 -15 -28 -30 -33 -30 -9 0 27 20 54 41 54 26 0 20 25 -7 26
-10 1 -38 -8 -61 -20z"/>
<path d="M253 4896 c-47 -23 -57 -42 -18 -32 23 6 25 3 25 -24 0 -34 -25 -42
-33 -10 -7 28 -37 26 -34 -2 1 -17 -4 -24 -20 -26 -13 -2 -23 -8 -23 -14 0 -7
15 -9 40 -5 49 6 44 -4 -20 -40 -28 -15 -50 -32 -50 -36 0 -13 40 2 92 33 l48
29 -3 -31 c-1 -18 3 -33 11 -35 8 -3 12 9 12 40 0 49 10 57 78 57 17 0 32 5
32 10 0 6 -17 10 -37 10 -31 1 -35 3 -20 11 9 5 17 17 17 24 0 24 -25 17 -40
-10 -15 -28 -30 -33 -30 -9 0 27 20 54 41 54 26 0 20 25 -7 26 -10 1 -38 -8
-61 -20z"/>
<path d="M253 4446 c-47 -23 -57 -42 -18 -32 23 6 25 3 25 -24 0 -34 -25 -42
-33 -10 -7 28 -37 26 -34 -2 1 -17 -4 -24 -20 -26 -13 -2 -23 -8 -23 -14 0 -7
15 -9 40 -5 49 6 44 -4 -20 -40 -28 -15 -50 -32 -50 -36 0 -13 40 2 92 33 l48
29 -3 -31 c-1 -18 3 -33 11 -35 8 -3 12 7 12 32 l0 36 43 -26 c45 -26 77 -32
77 -16 0 16 -41 40 -78 47 -43 8 -23 24 31 24 20 0 37 5 37 10 0 6 -17 10 -37
10 -31 1 -35 3 -20 11 9 5 17 17 17 24 0 24 -25 17 -40 -10 -15 -28 -30 -33
-30 -9 0 27 20 54 41 54 26 0 20 25 -7 26 -10 1 -38 -8 -61 -20z"/>
<path d="M253 3996 c-47 -23 -57 -42 -18 -32 23 6 25 3 25 -24 0 -34 -25 -42
-33 -10 -7 28 -37 26 -34 -2 1 -17 -4 -24 -20 -26 -13 -2 -23 -8 -23 -14 0 -7
15 -9 40 -5 49 6 44 -4 -20 -40 -28 -15 -50 -32 -50 -36 0 -13 40 2 92 33 l48
29 -3 -31 c-1 -18 3 -33 11 -35 8 -3 12 7 12 32 l0 36 43 -26 c45 -26 77 -32
77 -16 0 16 -41 40 -78 47 -43 8 -23 24 31 24 20 0 37 5 37 10 0 6 -17 10 -37
10 -31 1 -35 3 -20 11 9 5 17 17 17 24 0 24 -25 17 -40 -10 -15 -28 -30 -33
-30 -9 0 27 20 54 41 54 26 0 20 25 -7 26 -10 1 -38 -8 -61 -20z"/>
<path d="M187 3748 c5 -50 17 -78 27 -67 3 3 2 30 -1 62 -4 37 -10 57 -19 57
-10 0 -12 -13 -7 -52z"/>
<path d="M253 3546 c-47 -23 -57 -42 -18 -32 23 6 25 3 25 -24 0 -34 -25 -42
-33 -10 -7 28 -37 26 -34 -2 1 -17 -4 -24 -20 -26 -13 -2 -23 -8 -23 -14 0 -7
15 -9 40 -5 49 6 44 -4 -20 -40 -28 -15 -50 -32 -50 -36 0 -13 40 2 94 34 l48
30 -7 -28 c-3 -15 -11 -29 -16 -31 -5 -2 -9 -8 -9 -14 0 -6 22 -8 53 -6 51 3
52 3 55 -27 2 -18 -2 -33 -12 -40 -20 -15 -10 -57 13 -53 11 2 19 20 25 60 12
80 5 92 -44 84 -39 -6 -40 -6 -40 24 l0 31 43 -26 c45 -26 77 -32 77 -16 0 16
-41 40 -78 47 -43 8 -23 24 31 24 20 0 37 5 37 10 0 6 -17 10 -37 10 -31 1
-35 3 -20 11 9 5 17 17 17 24 0 24 -25 17 -40 -10 -15 -28 -30 -33 -30 -9 0
27 20 54 41 54 26 0 20 25 -7 26 -10 1 -38 -8 -61 -20z"/>
<path d="M186 3303 c7 -60 11 -73 22 -73 5 0 9 27 8 60 -1 50 -4 60 -18 60
-15 0 -17 -7 -12 -47z"/>
<path d="M253 3096 c-47 -23 -57 -42 -18 -32 23 6 25 3 25 -24 0 -34 -25 -42
-33 -10 -7 28 -37 26 -34 -2 1 -17 -4 -24 -20 -26 -13 -2 -23 -8 -23 -14 0 -7
15 -9 40 -5 49 6 44 -4 -20 -40 -28 -15 -50 -32 -50 -36 0 -13 40 2 94 34 l48
30 -7 -28 c-3 -15 -11 -29 -16 -31 -5 -2 -9 -8 -9 -14 0 -6 21 -8 52 -6 66 4
77 -17 12 -26 -77 -10 -86 -9 -79 14 5 16 2 20 -14 20 -19 0 -20 -4 -15 -47 7
-63 11 -73 25 -73 7 0 9 10 6 29 -6 28 -6 28 56 34 68 6 81 2 55 -17 -22 -16
-13 -58 11 -54 11 2 19 20 25 60 12 80 5 92 -44 84 -39 -6 -40 -6 -40 24 l0
31 43 -26 c45 -26 77 -32 77 -16 0 16 -41 40 -78 47 -43 8 -23 24 31 24 20 0
37 5 37 10 0 6 -17 10 -37 10 -31 1 -35 3 -20 11 9 5 17 17 17 24 0 24 -25 17
-40 -10 -15 -28 -30 -33 -30 -9 0 27 20 54 41 54 26 0 20 25 -7 26 -10 1 -38
-8 -61 -20z"/>
<path d="M253 2646 c-47 -23 -57 -42 -18 -32 23 6 25 3 25 -24 0 -34 -25 -42
-33 -10 -7 28 -37 26 -34 -2 1 -17 -4 -24 -20 -26 -13 -2 -23 -8 -23 -14 0 -7
15 -9 40 -5 49 6 44 -4 -20 -40 -28 -15 -50 -32 -50 -36 0 -13 40 2 94 34 l48
30 -7 -28 c-3 -15 -12 -32 -18 -36 -9 -6 -9 -10 1 -14 20 -8 14 -33 -9 -33
-16 0 -19 4 -14 20 5 16 2 20 -14 20 -19 0 -20 -4 -15 -47 7 -63 11 -73 25
-73 7 0 9 11 6 30 -6 27 -4 30 18 30 18 0 25 -5 25 -20 0 -11 5 -20 10 -20 6
0 10 9 10 20 0 13 9 22 25 26 32 8 45 -4 23 -20 -22 -16 -13 -58 11 -54 11 2
19 20 25 60 12 80 5 92 -44 84 -39 -6 -40 -6 -40 24 l0 31 43 -26 c45 -26 77
-32 77 -16 0 16 -41 40 -78 47 -43 8 -23 24 31 24 20 0 37 5 37 10 0 6 -17 10
-37 10 -31 1 -35 3 -20 11 9 5 17 17 17 24 0 24 -25 17 -40 -10 -15 -28 -30
-33 -30 -9 0 27 20 54 41 54 26 0 20 25 -7 26 -10 1 -38 -8 -61 -20z m85 -214
c2 -7 -7 -12 -22 -12 -27 0 -35 15 -13 23 17 7 30 3 35 -11z"/>
<path d="M253 2196 c-47 -23 -57 -42 -18 -32 23 6 25 3 25 -24 0 -34 -25 -42
-33 -10 -7 28 -37 26 -34 -2 1 -17 -4 -24 -20 -26 -13 -2 -23 -8 -23 -14 0 -7
15 -9 40 -5 49 6 44 -4 -20 -40 -28 -15 -50 -32 -50 -36 0 -13 40 2 94 34 l48
30 -7 -28 c-3 -15 -12 -32 -18 -36 -9 -6 -9 -10 1 -14 20 -8 14 -33 -9 -33
-16 0 -19 4 -14 20 5 16 2 20 -14 20 -19 0 -20 -4 -15 -47 8 -67 12 -75 31
-69 10 2 37 8 61 11 35 6 42 4 42 -10 0 -10 7 -15 18 -13 12 2 19 18 26 60 12
80 5 92 -44 84 -39 -6 -40 -6 -40 24 l0 31 43 -26 c45 -26 77 -32 77 -16 0 16
-41 40 -78 47 -43 8 -23 24 31 24 20 0 37 5 37 10 0 6 -17 10 -37 10 -31 1
-35 3 -20 11 9 5 17 17 17 24 0 24 -25 17 -40 -10 -15 -28 -30 -33 -30 -9 0
27 20 54 41 54 26 0 20 25 -7 26 -10 1 -38 -8 -61 -20z m85 -214 c2 -7 -7 -12
-22 -12 -27 0 -35 15 -13 23 17 7 30 3 35 -11z m0 -44 c-5 -15 -58 -24 -58 -9
0 11 17 19 43 20 11 1 17 -4 15 -11z m-80 -10 c-3 -7 -13 -13 -23 -13 -10 0
-20 6 -22 13 -3 7 5 12 22 12 17 0 25 -5 23 -12z"/>
</g>
</svg>
