<?xml version="1.0" standalone="no"?>
<!DOCTYPE svg PUBLIC "-//W3C//DTD SVG 20010904//EN"
 "http://www.w3.org/TR/2001/REC-SVG-20010904/DTD/svg10.dtd">
<svg version="1.0" xmlns="http://www.w3.org/2000/svg"
 width="50.000000pt" height="725.000000pt" viewBox="0 0 50.000000 725.000000"
 preserveAspectRatio="xMidYMid meet">
<metadata>
Created by potrace 1.16, written by Peter Selinger 2001-2019
</metadata>
<g transform="translate(0.000000,725.000000) scale(0.100000,-0.100000)"
fill="#000000" stroke="none">
<path d="M250 7165 c0 -17 22 -45 36 -45 25 0 13 44 -13 48 -13 2 -23 1 -23
-3z"/>
<path d="M250 6714 c0 -3 4 -14 10 -24 9 -16 4 -19 -50 -25 -33 -4 -60 -11
-60 -16 0 -12 15 -11 138 3 56 6 102 15 102 19 0 12 -29 19 -59 13 -23 -5 -29
-2 -34 15 -3 13 -13 21 -26 21 -12 0 -21 -3 -21 -6z"/>
<path d="M250 6264 c0 -3 4 -14 10 -24 9 -16 4 -19 -50 -25 -33 -4 -60 -11
-60 -16 0 -5 5 -9 11 -9 19 0 4 -111 -22 -166 -13 -27 -25 -52 -27 -56 -2 -5
1 -8 7 -8 23 0 62 79 73 146 6 38 17 74 25 81 8 6 50 14 94 18 43 4 79 11 79
15 0 13 -29 20 -59 14 -23 -5 -29 -2 -34 15 -3 13 -13 21 -26 21 -12 0 -21 -3
-21 -6z"/>
<path d="M250 5814 c0 -3 4 -14 10 -24 9 -16 4 -19 -50 -25 -33 -4 -60 -11
-60 -16 0 -5 5 -9 11 -9 19 0 4 -111 -22 -166 -13 -27 -25 -52 -27 -56 -2 -5
1 -8 7 -8 23 0 62 79 73 146 6 38 17 74 25 81 8 6 50 14 94 18 43 4 79 11 79
15 0 13 -29 20 -59 14 -23 -5 -29 -2 -34 15 -3 13 -13 21 -26 21 -12 0 -21 -3
-21 -6z"/>
<path d="M100 5718 c1 -21 28 -51 39 -43 17 10 13 33 -8 45 -25 13 -31 13 -31
-2z"/>
<path d="M250 5364 c0 -3 4 -14 10 -24 9 -16 4 -19 -50 -25 -33 -4 -60 -11
-60 -16 0 -5 5 -9 11 -9 19 0 4 -111 -22 -166 -13 -27 -25 -52 -27 -56 -2 -5
1 -8 7 -8 23 0 62 79 73 146 6 38 17 74 25 81 8 6 50 14 94 18 43 4 79 11 79
15 0 13 -29 20 -59 14 -23 -5 -29 -2 -34 15 -3 13 -13 21 -26 21 -12 0 -21 -3
-21 -6z"/>
<path d="M100 5268 c1 -21 28 -51 39 -43 17 10 13 33 -8 45 -25 13 -31 13 -31
-2z"/>
<path d="M103 5187 c-18 -12 -33 -28 -33 -34 0 -22 30 -14 55 15 41 46 31 55
-22 19z"/>
<path d="M250 4914 c0 -3 4 -14 10 -24 9 -16 4 -19 -50 -25 -33 -4 -60 -11
-60 -16 0 -5 5 -9 11 -9 19 0 4 -111 -22 -166 -13 -27 -25 -52 -27 -56 -2 -5
1 -8 7 -8 23 0 62 79 73 146 10 66 26 94 55 94 21 0 15 -24 -17 -68 -16 -23
-30 -44 -30 -47 0 -27 76 46 96 93 13 28 19 32 54 32 22 0 40 4 40 9 0 14 -28
21 -59 15 -23 -5 -29 -2 -34 15 -3 13 -13 21 -26 21 -12 0 -21 -3 -21 -6z"/>
<path d="M100 4818 c1 -21 28 -51 39 -43 17 10 13 33 -8 45 -25 13 -31 13 -31
-2z"/>
<path d="M103 4737 c-18 -12 -33 -28 -33 -34 0 -22 30 -14 55 15 41 46 31 55
-22 19z"/>
<path d="M250 4464 c0 -3 4 -14 10 -24 9 -16 4 -19 -50 -25 -33 -4 -60 -11
-60 -16 0 -5 5 -9 11 -9 19 0 4 -111 -22 -166 -13 -27 -25 -52 -27 -56 -2 -5
1 -8 7 -8 23 0 62 79 73 146 10 66 26 94 55 94 21 0 15 -24 -17 -68 -16 -23
-30 -44 -30 -47 0 -14 22 -1 57 36 l40 41 32 -41 c27 -34 39 -41 67 -41 19 0
34 4 34 9 0 5 -24 23 -53 39 -89 50 -99 82 -26 82 21 0 39 4 39 9 0 14 -28 21
-59 15 -23 -5 -29 -2 -34 15 -3 13 -13 21 -26 21 -12 0 -21 -3 -21 -6z"/>
<path d="M100 4368 c1 -21 28 -51 39 -43 17 10 13 33 -8 45 -25 13 -31 13 -31
-2z"/>
<path d="M103 4287 c-18 -12 -33 -28 -33 -34 0 -22 30 -14 55 15 41 46 31 55
-22 19z"/>
<path d="M250 4014 c0 -3 4 -14 10 -24 9 -16 4 -19 -50 -25 -33 -4 -60 -11
-60 -16 0 -5 5 -9 11 -9 19 0 4 -111 -22 -166 -13 -27 -25 -52 -27 -56 -2 -5
1 -8 7 -8 23 0 62 79 73 146 10 66 26 94 55 94 21 0 15 -24 -17 -68 -16 -23
-30 -44 -30 -47 0 -14 22 -1 57 36 l40 41 32 -41 c27 -34 39 -41 67 -41 19 0
34 4 34 9 0 5 -24 23 -53 39 -89 50 -99 82 -26 82 21 0 39 4 39 9 0 14 -28 21
-59 15 -23 -5 -29 -2 -34 15 -3 13 -13 21 -26 21 -12 0 -21 -3 -21 -6z"/>
<path d="M100 3918 c1 -21 28 -51 39 -43 17 10 13 33 -8 45 -25 13 -31 13 -31
-2z"/>
<path d="M103 3837 c-18 -12 -33 -28 -33 -34 0 -22 30 -14 55 15 41 46 31 55
-22 19z"/>
<path d="M235 3801 c0 -28 -7 -47 -24 -65 -26 -27 -25 -41 2 -30 24 9 44 44
52 92 6 37 4 42 -12 42 -15 0 -18 -8 -18 -39z"/>
<path d="M250 3564 c0 -3 4 -14 10 -24 9 -16 4 -19 -50 -25 -33 -4 -60 -11
-60 -16 0 -5 5 -9 11 -9 19 0 4 -111 -22 -166 -13 -27 -25 -52 -27 -56 -2 -5
1 -8 7 -8 23 0 62 79 73 146 10 66 26 94 55 94 21 0 15 -24 -17 -68 -16 -23
-30 -44 -30 -47 0 -14 22 -1 57 36 l40 41 32 -41 c27 -34 39 -41 67 -41 19 0
34 4 34 9 0 5 -24 23 -53 39 -89 50 -99 82 -26 82 21 0 39 4 39 9 0 14 -28 21
-59 15 -23 -5 -29 -2 -34 15 -3 13 -13 21 -26 21 -12 0 -21 -3 -21 -6z"/>
<path d="M100 3468 c1 -21 28 -51 39 -43 17 10 13 33 -8 45 -25 13 -31 13 -31
-2z"/>
<path d="M103 3387 c-18 -12 -33 -28 -33 -34 0 -22 30 -14 55 15 41 46 31 55
-22 19z"/>
<path d="M310 3310 c0 -92 12 -120 24 -52 12 72 7 142 -9 142 -12 0 -15 -17
-15 -90z"/>
<path d="M235 3351 c0 -28 -7 -47 -24 -65 -26 -27 -25 -41 2 -30 24 9 44 44
52 92 6 37 4 42 -12 42 -15 0 -18 -8 -18 -39z"/>
</g>
</svg>
