<?xml version="1.0" standalone="no"?>
<!DOCTYPE svg PUBLIC "-//W3C//DTD SVG 20010904//EN"
 "http://www.w3.org/TR/2001/REC-SVG-20010904/DTD/svg10.dtd">
<svg version="1.0" xmlns="http://www.w3.org/2000/svg"
 width="50.000000pt" height="725.000000pt" viewBox="0 0 50.000000 725.000000"
 preserveAspectRatio="xMidYMid meet">
<metadata>
Created by potrace 1.16, written by Peter Selinger 2001-2019
</metadata>
<g transform="translate(0.000000,725.000000) scale(0.100000,-0.100000)"
fill="#000000" stroke="none">
<path d="M260 7152 c0 -13 30 -52 41 -52 16 0 10 47 -7 54 -21 8 -34 8 -34 -2z"/>
<path d="M260 6703 c0 -5 4 -15 10 -23 11 -18 -5 -30 -45 -30 -32 0 -63 -15
-54 -25 4 -3 40 -1 80 5 41 6 89 13 107 16 47 7 40 27 -8 22 -32 -3 -40 0 -40
13 0 9 -7 20 -16 23 -21 8 -34 8 -34 -1z"/>
<path d="M260 6253 c0 -5 4 -15 10 -23 11 -18 -5 -30 -42 -30 -46 0 -58 -9
-52 -40 8 -37 -19 -127 -51 -174 -29 -43 -26 -59 6 -30 30 27 48 65 68 147
l17 72 55 8 c30 5 69 10 87 13 47 7 40 27 -8 22 -32 -3 -40 0 -40 13 0 9 -7
20 -16 23 -21 8 -34 8 -34 -1z"/>
<path d="M260 5803 c0 -5 4 -15 10 -23 11 -18 -5 -30 -42 -30 -46 0 -58 -9
-52 -40 8 -37 -19 -127 -51 -174 -29 -43 -26 -59 6 -30 30 27 48 65 68 147
l17 72 55 8 c30 5 69 10 87 13 47 7 40 27 -8 22 -32 -3 -40 0 -40 13 0 9 -7
20 -16 23 -21 8 -34 8 -34 -1z"/>
<path d="M110 5701 c0 -21 13 -41 26 -41 19 0 18 36 -2 44 -21 8 -24 8 -24 -3z"/>
<path d="M260 5353 c0 -5 4 -15 10 -23 11 -18 -5 -30 -42 -30 -46 0 -58 -9
-52 -40 8 -37 -19 -127 -51 -174 -29 -43 -26 -59 6 -30 30 27 48 65 68 147
l17 72 55 8 c30 5 69 10 87 13 47 7 40 27 -8 22 -32 -3 -40 0 -40 13 0 9 -7
20 -16 23 -21 8 -34 8 -34 -1z"/>
<path d="M110 5251 c0 -21 13 -41 26 -41 19 0 18 36 -2 44 -21 8 -24 8 -24 -3z"/>
<path d="M103 5166 c-24 -11 -30 -31 -12 -41 12 -8 49 23 49 42 0 15 -6 15
-37 -1z"/>
<path d="M260 4903 c0 -5 4 -15 10 -23 11 -18 -5 -30 -42 -30 -46 0 -58 -9
-52 -40 8 -37 -19 -127 -51 -174 -29 -43 -26 -59 6 -30 30 27 48 65 68 147
l17 72 55 8 c30 5 69 10 87 13 47 7 40 27 -8 22 -32 -3 -40 0 -40 13 0 9 -7
20 -16 23 -21 8 -34 8 -34 -1z"/>
<path d="M110 4801 c0 -21 13 -41 26 -41 19 0 18 36 -2 44 -21 8 -24 8 -24 -3z"/>
<path d="M273 4787 c-73 -14 -69 -31 5 -22 76 9 102 15 102 26 0 11 -38 10
-107 -4z"/>
<path d="M103 4716 c-24 -11 -30 -31 -12 -41 12 -8 49 23 49 42 0 15 -6 15
-37 -1z"/>
<path d="M260 4453 c0 -5 4 -15 10 -23 11 -18 -5 -30 -42 -30 -46 0 -58 -9
-52 -40 8 -37 -19 -127 -51 -174 -29 -43 -26 -59 6 -30 30 27 48 65 68 147
l17 72 55 8 c30 5 69 10 87 13 47 7 40 27 -8 22 -32 -3 -40 0 -40 13 0 9 -7
20 -16 23 -21 8 -34 8 -34 -1z"/>
<path d="M110 4351 c0 -21 13 -41 26 -41 19 0 18 36 -2 44 -21 8 -24 8 -24 -3z"/>
<path d="M273 4337 c-58 -11 -71 -27 -23 -27 29 0 30 -1 30 -47 0 -27 3 -58 6
-70 12 -43 24 -23 24 40 0 72 5 83 43 92 15 4 27 11 27 16 0 11 -38 10 -107
-4z"/>
<path d="M103 4266 c-24 -11 -30 -31 -12 -41 12 -8 49 23 49 42 0 15 -6 15
-37 -1z"/>
<path d="M260 4003 c0 -5 4 -15 10 -23 11 -18 -5 -30 -42 -30 -46 0 -58 -9
-52 -40 8 -37 -19 -127 -51 -174 -29 -43 -26 -59 6 -30 30 27 48 65 68 147
l17 72 55 8 c30 5 69 10 87 13 47 7 40 27 -8 22 -32 -3 -40 0 -40 13 0 9 -7
20 -16 23 -21 8 -34 8 -34 -1z"/>
<path d="M110 3901 c0 -21 13 -41 26 -41 19 0 18 36 -2 44 -21 8 -24 8 -24 -3z"/>
<path d="M273 3887 c-58 -11 -71 -27 -23 -27 29 0 30 -1 30 -47 0 -56 9 -93
21 -93 5 0 9 15 9 34 0 35 13 46 51 46 10 0 19 5 19 10 0 6 -16 10 -35 10 -51
0 -46 42 8 55 15 4 27 11 27 16 0 11 -38 10 -107 -4z"/>
<path d="M103 3816 c-24 -11 -30 -31 -12 -41 12 -8 49 23 49 42 0 15 -6 15
-37 -1z"/>
<path d="M260 3553 c0 -5 4 -15 10 -23 11 -18 -5 -30 -42 -30 -46 0 -58 -9
-52 -40 8 -37 -19 -127 -51 -174 -29 -43 -26 -59 6 -30 30 27 48 65 68 147
l17 72 55 8 c30 5 69 10 87 13 47 7 40 27 -8 22 -32 -3 -40 0 -40 13 0 9 -7
20 -16 23 -21 8 -34 8 -34 -1z"/>
<path d="M110 3451 c0 -21 13 -41 26 -41 19 0 18 36 -2 44 -21 8 -24 8 -24 -3z"/>
<path d="M273 3437 c-58 -11 -71 -27 -23 -27 29 0 30 -1 30 -47 0 -56 9 -93
21 -93 5 0 9 15 9 34 0 35 13 46 51 46 10 0 19 5 19 10 0 6 -16 10 -35 10 -51
0 -46 42 8 55 15 4 27 11 27 16 0 11 -38 10 -107 -4z"/>
<path d="M103 3366 c-24 -11 -30 -31 -12 -41 12 -8 49 23 49 42 0 15 -6 15
-37 -1z"/>
<path d="M220 3343 c0 -38 10 -73 21 -73 5 0 9 23 9 50 0 38 -4 50 -15 50 -10
0 -15 -10 -15 -27z"/>
<path d="M260 3103 c0 -5 4 -15 10 -23 11 -18 -5 -30 -42 -30 -46 0 -58 -9
-52 -40 8 -37 -19 -127 -51 -174 -29 -43 -26 -59 6 -30 30 27 48 65 68 147
l17 72 55 8 c30 5 69 10 87 13 47 7 40 27 -8 22 -32 -3 -40 0 -40 13 0 9 -7
20 -16 23 -21 8 -34 8 -34 -1z"/>
<path d="M110 3001 c0 -21 13 -41 26 -41 19 0 18 36 -2 44 -21 8 -24 8 -24 -3z"/>
<path d="M273 2987 c-58 -11 -71 -27 -23 -27 30 0 30 -1 30 -55 0 -30 1 -58 3
-62 1 -4 -6 -9 -15 -11 -15 -3 -18 4 -18 42 0 36 -4 46 -16 46 -14 0 -16 -8
-12 -45 5 -42 4 -45 -18 -45 -16 0 -24 -6 -24 -16 0 -13 7 -15 30 -10 17 3 73
9 125 12 52 4 95 10 95 14 0 14 -30 20 -75 13 -43 -5 -45 -5 -45 20 0 25 16
37 51 37 10 0 19 5 19 10 0 6 -16 10 -35 10 -51 0 -46 42 8 55 15 4 27 11 27
16 0 11 -38 10 -107 -4z"/>
<path d="M103 2916 c-24 -11 -30 -31 -12 -41 12 -8 49 23 49 42 0 15 -6 15
-37 -1z"/>
</g>
</svg>
