<?xml version="1.0" standalone="no"?>
<!DOCTYPE svg PUBLIC "-//W3C//DTD SVG 20010904//EN"
 "http://www.w3.org/TR/2001/REC-SVG-20010904/DTD/svg10.dtd">
<svg version="1.0" xmlns="http://www.w3.org/2000/svg"
 width="50.000000pt" height="725.000000pt" viewBox="0 0 50.000000 725.000000"
 preserveAspectRatio="xMidYMid meet">
<metadata>
Created by potrace 1.16, written by Peter Selinger 2001-2019
</metadata>
<g transform="translate(0.000000,725.000000) scale(0.100000,-0.100000)"
fill="#000000" stroke="none">
<path d="M254 7144 c3 -9 6 -18 6 -20 0 -2 7 -4 15 -4 8 0 15 9 15 20 0 14 -7
20 -21 20 -15 0 -19 -4 -15 -16z"/>
<path d="M255 6691 c5 -16 -2 -19 -45 -25 -70 -9 -66 -30 5 -22 30 3 80 9 110
12 66 8 73 24 10 24 -33 0 -45 4 -45 15 0 8 -9 15 -21 15 -15 0 -19 -5 -14
-19z"/>
<path d="M255 6241 c5 -16 -2 -19 -46 -25 -45 -6 -50 -9 -46 -27 9 -34 -12
-140 -39 -193 -25 -51 -24 -76 3 -41 29 37 53 103 61 165 10 67 20 80 68 80
54 0 124 12 124 21 0 5 -20 9 -45 9 -33 0 -45 4 -45 15 0 8 -9 15 -21 15 -15
0 -19 -5 -14 -19z"/>
<path d="M255 5791 c5 -16 -2 -19 -46 -25 -45 -6 -50 -9 -46 -27 9 -34 -12
-140 -39 -193 -25 -51 -24 -76 3 -41 29 37 53 103 61 165 10 67 20 80 68 80
54 0 124 12 124 21 0 5 -20 9 -45 9 -33 0 -45 4 -45 15 0 8 -9 15 -21 15 -15
0 -19 -5 -14 -19z"/>
<path d="M100 5709 c0 -17 20 -49 30 -49 17 0 11 47 -6 54 -21 8 -24 8 -24 -5z"/>
<path d="M255 5341 c5 -16 -2 -19 -46 -25 -45 -6 -50 -9 -46 -27 9 -34 -12
-140 -39 -193 -25 -51 -24 -76 3 -41 29 37 53 103 61 165 10 67 20 80 68 80
54 0 124 12 124 21 0 5 -20 9 -45 9 -33 0 -45 4 -45 15 0 8 -9 15 -21 15 -15
0 -19 -5 -14 -19z"/>
<path d="M100 5259 c0 -17 20 -49 30 -49 17 0 11 47 -6 54 -21 8 -24 8 -24 -5z"/>
<path d="M90 5170 c-20 -15 -22 -21 -13 -31 10 -10 18 -8 38 11 43 40 23 57
-25 20z"/>
<path d="M255 4891 c5 -16 -2 -19 -46 -25 -45 -6 -50 -9 -46 -27 9 -34 -12
-140 -39 -193 -25 -51 -24 -76 3 -41 29 37 53 103 61 165 10 67 20 80 68 80
54 0 124 12 124 21 0 5 -20 9 -45 9 -33 0 -45 4 -45 15 0 8 -9 15 -21 15 -15
0 -19 -5 -14 -19z"/>
<path d="M270 4820 c0 -5 10 -10 21 -10 20 0 21 -4 16 -45 -9 -62 16 -62 32
-1 16 64 15 66 -29 66 -22 0 -40 -4 -40 -10z"/>
<path d="M100 4809 c0 -17 20 -49 30 -49 17 0 11 47 -6 54 -21 8 -24 8 -24 -5z"/>
<path d="M230 4810 c0 -5 7 -10 15 -10 8 0 15 5 15 10 0 6 -7 10 -15 10 -8 0
-15 -4 -15 -10z"/>
<path d="M90 4720 c-20 -15 -22 -21 -13 -31 10 -10 18 -8 38 11 43 40 23 57
-25 20z"/>
<path d="M255 4441 c5 -16 -2 -19 -46 -25 -45 -6 -50 -9 -46 -27 9 -34 -12
-140 -39 -193 -25 -51 -24 -76 3 -41 29 37 53 103 61 165 10 67 20 80 68 80
54 0 124 12 124 21 0 5 -20 9 -45 9 -33 0 -45 4 -45 15 0 8 -9 15 -21 15 -15
0 -19 -5 -14 -19z"/>
<path d="M270 4370 c0 -5 9 -10 20 -10 36 0 21 -18 -20 -25 -22 -4 -40 -11
-40 -17 0 -7 15 -8 40 -4 39 6 40 6 34 -19 -4 -18 -2 -25 9 -25 9 0 19 17 26
44 16 64 15 66 -29 66 -22 0 -40 -4 -40 -10z"/>
<path d="M100 4359 c0 -17 20 -49 30 -49 17 0 11 47 -6 54 -21 8 -24 8 -24 -5z"/>
<path d="M230 4360 c0 -5 7 -10 15 -10 8 0 15 5 15 10 0 6 -7 10 -15 10 -8 0
-15 -4 -15 -10z"/>
<path d="M90 4270 c-20 -15 -22 -21 -13 -31 10 -10 18 -8 38 11 43 40 23 57
-25 20z"/>
<path d="M255 3991 c5 -16 -2 -19 -46 -25 -45 -6 -50 -9 -46 -27 9 -34 -12
-140 -39 -193 -25 -51 -24 -76 3 -41 29 37 53 103 61 165 10 67 20 80 68 80
54 0 124 12 124 21 0 5 -20 9 -45 9 -33 0 -45 4 -45 15 0 8 -9 15 -21 15 -15
0 -19 -5 -14 -19z"/>
<path d="M270 3920 c0 -5 9 -10 20 -10 36 0 21 -18 -20 -25 -22 -4 -40 -11
-40 -17 0 -7 15 -8 40 -4 24 4 40 2 40 -4 0 -5 -18 -13 -40 -16 -56 -9 -50
-24 9 -23 l49 2 11 43 c16 62 15 64 -29 64 -22 0 -40 -4 -40 -10z"/>
<path d="M100 3909 c0 -17 20 -49 30 -49 17 0 11 47 -6 54 -21 8 -24 8 -24 -5z"/>
<path d="M230 3910 c0 -5 7 -10 15 -10 8 0 15 5 15 10 0 6 -7 10 -15 10 -8 0
-15 -4 -15 -10z"/>
<path d="M90 3820 c-20 -15 -22 -21 -13 -31 10 -10 18 -8 38 11 43 40 23 57
-25 20z"/>
<path d="M255 3541 c5 -16 -2 -19 -46 -25 -45 -6 -50 -9 -46 -27 9 -34 -12
-140 -39 -193 -25 -51 -24 -76 3 -41 29 37 53 103 61 165 10 67 20 80 68 80
54 0 124 12 124 21 0 5 -20 9 -45 9 -33 0 -45 4 -45 15 0 8 -9 15 -21 15 -15
0 -19 -5 -14 -19z"/>
<path d="M270 3470 c0 -5 9 -10 20 -10 32 0 23 -17 -12 -24 -31 -6 -55 3 -30
11 22 8 13 23 -15 23 l-28 0 0 -120 c0 -132 5 -140 52 -95 31 28 26 43 -8 25
-22 -12 -22 -12 -15 36 3 26 8 49 10 51 2 2 22 4 44 5 39 0 41 2 51 44 16 62
15 64 -29 64 -22 0 -40 -4 -40 -10z m40 -59 c0 -9 -33 -21 -57 -21 -22 0 -14
18 10 23 39 8 47 7 47 -2z"/>
<path d="M100 3459 c0 -17 20 -49 30 -49 17 0 11 47 -6 54 -21 8 -24 8 -24 -5z"/>
<path d="M90 3370 c-20 -15 -22 -21 -13 -31 10 -10 18 -8 38 11 43 40 23 57
-25 20z"/>
<path d="M255 3091 c5 -16 -2 -19 -46 -25 -45 -6 -50 -9 -46 -27 9 -34 -12
-140 -39 -193 -25 -51 -24 -76 3 -41 29 37 53 103 61 165 10 67 20 80 68 80
54 0 124 12 124 21 0 5 -20 9 -45 9 -33 0 -45 4 -45 15 0 8 -9 15 -21 15 -15
0 -19 -5 -14 -19z"/>
<path d="M270 3020 c0 -5 9 -10 20 -10 32 0 23 -17 -12 -24 -31 -6 -55 3 -30
11 22 8 13 23 -15 23 l-28 0 0 -120 c0 -132 5 -140 52 -95 31 28 26 43 -8 25
-22 -12 -22 -12 -15 36 3 26 8 49 10 51 2 2 22 4 44 5 39 0 41 2 51 44 16 62
15 64 -29 64 -22 0 -40 -4 -40 -10z m40 -59 c0 -9 -33 -21 -57 -21 -22 0 -14
18 10 23 39 8 47 7 47 -2z"/>
<path d="M100 3009 c0 -17 20 -49 30 -49 17 0 11 47 -6 54 -21 8 -24 8 -24 -5z"/>
<path d="M90 2920 c-20 -15 -22 -21 -13 -31 10 -10 18 -8 38 11 43 40 23 57
-25 20z"/>
<path d="M325 2904 c-9 -14 -14 -28 -11 -31 9 -9 56 26 56 42 0 24 -26 17 -45
-11z"/>
<path d="M255 2641 c5 -16 -2 -19 -46 -25 -45 -6 -50 -9 -46 -27 9 -34 -12
-140 -39 -193 -25 -51 -24 -76 3 -41 29 37 53 103 61 165 10 67 20 80 68 80
54 0 124 12 124 21 0 5 -20 9 -45 9 -33 0 -45 4 -45 15 0 8 -9 15 -21 15 -15
0 -19 -5 -14 -19z"/>
<path d="M270 2570 c0 -5 9 -10 20 -10 32 0 23 -17 -12 -24 -31 -6 -55 3 -30
11 22 8 13 23 -15 23 l-28 0 0 -120 c0 -132 5 -140 52 -95 31 28 26 43 -8 25
-22 -12 -22 -12 -15 36 3 26 8 49 10 51 2 2 22 4 44 5 39 0 41 2 51 44 16 62
15 64 -29 64 -22 0 -40 -4 -40 -10z m40 -59 c0 -9 -33 -21 -57 -21 -22 0 -14
18 10 23 39 8 47 7 47 -2z"/>
<path d="M100 2559 c0 -17 20 -49 30 -49 17 0 11 47 -6 54 -21 8 -24 8 -24 -5z"/>
<path d="M90 2470 c-20 -15 -22 -21 -13 -31 10 -10 18 -8 38 11 43 40 23 57
-25 20z"/>
<path d="M325 2454 c-13 -21 -19 -23 -31 -13 -8 6 -17 9 -21 5 -4 -3 15 -29
42 -56 36 -36 57 -50 77 -50 37 0 37 25 1 38 -16 6 -37 17 -48 26 -20 15 -20
15 3 31 12 9 22 23 22 31 0 23 -26 16 -45 -12z"/>
</g>
</svg>
