<?xml version="1.0" standalone="no"?>
<!DOCTYPE svg PUBLIC "-//W3C//DTD SVG 20010904//EN"
 "http://www.w3.org/TR/2001/REC-SVG-20010904/DTD/svg10.dtd">
<svg version="1.0" xmlns="http://www.w3.org/2000/svg"
 width="50.000000pt" height="725.000000pt" viewBox="0 0 50.000000 725.000000"
 preserveAspectRatio="xMidYMid meet">
<metadata>
Created by potrace 1.16, written by Peter Selinger 2001-2019
</metadata>
<g transform="translate(0.000000,725.000000) scale(0.100000,-0.100000)"
fill="#000000" stroke="none">
<path d="M260 7148 c1 -18 25 -48 39 -48 15 0 14 33 -1 48 -16 16 -38 15 -38
0z"/>
<path d="M260 6697 c0 -7 5 -18 11 -24 8 -8 -4 -13 -45 -18 -31 -4 -56 -11
-56 -16 0 -5 8 -9 18 -9 31 0 197 22 202 27 10 9 -26 22 -48 16 -17 -4 -28 0
-38 16 -17 23 -44 28 -44 8z"/>
<path d="M260 6247 c0 -7 5 -18 11 -24 8 -8 -3 -13 -42 -18 l-54 -7 -1 -58
c-1 -43 -10 -76 -33 -125 -35 -75 -32 -96 5 -50 26 32 48 96 59 169 8 50 7 49
123 61 60 7 77 17 48 28 -8 3 -24 3 -36 0 -15 -4 -26 1 -36 16 -17 23 -44 28
-44 8z"/>
<path d="M260 5797 c0 -7 5 -18 11 -24 8 -8 -3 -13 -42 -18 l-54 -7 -1 -58
c-1 -43 -10 -76 -33 -125 -35 -75 -32 -96 5 -50 26 32 48 96 59 169 8 50 7 49
123 61 60 7 77 17 48 28 -8 3 -24 3 -36 0 -15 -4 -26 1 -36 16 -17 23 -44 28
-44 8z"/>
<path d="M110 5698 c0 -16 19 -38 33 -38 4 0 7 10 5 22 -3 25 -38 39 -38 16z"/>
<path d="M260 5347 c0 -7 5 -18 11 -24 8 -8 -3 -13 -42 -18 l-54 -7 -1 -58
c-1 -43 -10 -76 -33 -125 -35 -75 -32 -96 5 -50 26 32 48 96 59 169 8 50 7 49
123 61 60 7 77 17 48 28 -8 3 -24 3 -36 0 -15 -4 -26 1 -36 16 -17 23 -44 28
-44 8z"/>
<path d="M110 5248 c0 -16 19 -38 33 -38 4 0 7 10 5 22 -3 25 -38 39 -38 16z"/>
<path d="M113 5178 c-36 -22 -41 -35 -18 -44 8 -4 25 6 39 23 42 47 33 55 -21
21z"/>
<path d="M260 4897 c0 -7 5 -18 11 -24 8 -8 -3 -13 -42 -18 l-54 -7 -1 -58
c-1 -43 -10 -76 -33 -125 -35 -75 -32 -96 5 -50 26 32 48 96 59 169 8 50 7 49
123 61 60 7 77 17 48 28 -8 3 -24 3 -36 0 -15 -4 -26 1 -36 16 -17 23 -44 28
-44 8z"/>
<path d="M278 4813 c-21 -2 -38 -9 -38 -14 0 -15 103 -7 108 9 2 7 -4 11 -15
10 -10 -1 -35 -3 -55 -5z"/>
<path d="M110 4798 c0 -16 19 -38 33 -38 4 0 7 10 5 22 -3 25 -38 39 -38 16z"/>
<path d="M113 4728 c-36 -22 -41 -35 -18 -44 8 -4 25 6 39 23 42 47 33 55 -21
21z"/>
<path d="M260 4447 c0 -7 5 -18 11 -24 8 -8 -3 -13 -42 -18 l-54 -7 -1 -58
c-1 -43 -10 -76 -33 -125 -35 -75 -32 -96 5 -50 26 32 48 96 59 169 8 50 7 49
123 61 60 7 77 17 48 28 -8 3 -24 3 -36 0 -15 -4 -26 1 -36 16 -17 23 -44 28
-44 8z"/>
<path d="M278 4363 c-21 -2 -38 -9 -38 -14 0 -15 103 -7 108 9 2 7 -4 11 -15
10 -10 -1 -35 -3 -55 -5z"/>
<path d="M110 4348 c0 -16 19 -38 33 -38 4 0 7 10 5 22 -3 25 -38 39 -38 16z"/>
<path d="M223 4289 c4 -13 7 -32 7 -41 0 -10 5 -18 11 -18 15 0 6 73 -10 78
-10 4 -12 -1 -8 -19z"/>
<path d="M113 4278 c-36 -22 -41 -35 -18 -44 8 -4 25 6 39 23 42 47 33 55 -21
21z"/>
<path d="M260 3997 c0 -7 5 -18 11 -24 8 -8 -3 -13 -42 -18 l-54 -7 -1 -58
c-1 -43 -10 -76 -33 -125 -35 -75 -32 -96 5 -50 26 32 48 96 59 169 8 50 7 49
123 61 60 7 77 17 48 28 -8 3 -24 3 -36 0 -15 -4 -26 1 -36 16 -17 23 -44 28
-44 8z"/>
<path d="M278 3913 c-21 -2 -38 -9 -38 -14 0 -15 103 -7 108 9 2 7 -4 11 -15
10 -10 -1 -35 -3 -55 -5z"/>
<path d="M110 3898 c0 -16 19 -38 33 -38 4 0 7 10 5 22 -3 25 -38 39 -38 16z"/>
<path d="M310 3860 c0 -5 5 -10 10 -10 6 0 10 -11 10 -25 0 -32 13 -32 35 1
14 22 15 28 4 35 -19 12 -59 11 -59 -1z"/>
<path d="M224 3838 c3 -13 6 -31 6 -40 0 -10 5 -18 10 -18 6 0 10 14 10 30 0
25 4 30 25 30 14 0 25 5 25 10 0 6 -19 10 -41 10 -38 0 -41 -2 -35 -22z"/>
<path d="M113 3828 c-36 -22 -41 -35 -18 -44 8 -4 25 6 39 23 42 47 33 55 -21
21z"/>
<path d="M260 3547 c0 -7 5 -18 11 -24 8 -8 -3 -13 -42 -18 l-54 -7 -1 -58
c-1 -43 -10 -76 -33 -125 -35 -75 -32 -96 5 -50 26 32 48 96 59 169 8 50 7 49
123 61 60 7 77 17 48 28 -8 3 -24 3 -36 0 -15 -4 -26 1 -36 16 -17 23 -44 28
-44 8z"/>
<path d="M278 3463 c-21 -2 -38 -9 -38 -14 0 -15 103 -7 108 9 2 7 -4 11 -15
10 -10 -1 -35 -3 -55 -5z"/>
<path d="M110 3448 c0 -16 19 -38 33 -38 4 0 7 10 5 22 -3 25 -38 39 -38 16z"/>
<path d="M310 3411 c0 -5 5 -11 12 -13 21 -7 0 -38 -27 -38 -14 0 -25 -4 -25
-10 0 -5 20 -10 45 -10 37 0 45 3 45 18 0 10 6 24 12 30 10 10 10 15 -2 22
-19 12 -60 13 -60 1z"/>
<path d="M224 3388 c3 -13 6 -31 6 -40 0 -10 7 -18 15 -18 11 0 13 8 9 30 -6
27 -4 30 20 30 14 0 26 5 26 10 0 6 -19 10 -41 10 -38 0 -41 -2 -35 -22z"/>
<path d="M113 3378 c-36 -22 -41 -35 -18 -44 8 -4 25 6 39 23 42 47 33 55 -21
21z"/>
<path d="M260 3097 c0 -7 5 -18 11 -24 8 -8 -3 -13 -42 -18 l-54 -7 -1 -58
c-1 -43 -10 -76 -33 -125 -35 -75 -32 -96 5 -50 26 32 48 96 59 169 8 50 7 49
123 61 60 7 77 17 48 28 -8 3 -24 3 -36 0 -15 -4 -26 1 -36 16 -17 23 -44 28
-44 8z"/>
<path d="M278 3013 c-21 -2 -38 -9 -38 -14 0 -15 103 -7 108 9 2 7 -4 11 -15
10 -10 -1 -35 -3 -55 -5z"/>
<path d="M110 2998 c0 -16 19 -38 33 -38 4 0 7 10 5 22 -3 25 -38 39 -38 16z"/>
<path d="M310 2961 c0 -5 5 -11 12 -13 21 -7 0 -38 -27 -38 -14 0 -25 -4 -25
-10 0 -5 20 -10 45 -10 37 0 45 3 45 18 0 10 6 24 12 30 10 10 10 15 -2 22
-19 12 -60 13 -60 1z"/>
<path d="M225 2928 c14 -71 29 -108 42 -108 17 0 17 21 -2 56 -23 44 -19 64
10 64 14 0 25 5 25 10 0 6 -18 10 -41 10 -41 0 -41 0 -34 -32z"/>
<path d="M113 2928 c-36 -22 -41 -35 -18 -44 8 -4 25 6 39 23 42 47 33 55 -21
21z"/>
<path d="M260 2647 c0 -7 5 -18 11 -24 8 -8 -3 -13 -42 -18 l-54 -7 -1 -58
c-1 -43 -10 -76 -33 -125 -35 -75 -32 -96 5 -50 26 32 48 96 59 169 8 50 7 49
123 61 60 7 77 17 48 28 -8 3 -24 3 -36 0 -15 -4 -26 1 -36 16 -17 23 -44 28
-44 8z"/>
<path d="M278 2563 c-21 -2 -38 -9 -38 -14 0 -15 103 -7 108 9 2 7 -4 11 -15
10 -10 -1 -35 -3 -55 -5z"/>
<path d="M110 2548 c0 -16 19 -38 33 -38 4 0 7 10 5 22 -3 25 -38 39 -38 16z"/>
<path d="M310 2511 c0 -5 5 -11 12 -13 21 -7 0 -38 -27 -38 -14 0 -25 -4 -25
-10 0 -5 12 -10 26 -10 25 0 26 -2 21 -35 -3 -19 -2 -35 2 -35 15 0 41 49 41
78 0 15 6 34 12 40 10 10 10 15 -2 22 -19 12 -60 13 -60 1z"/>
<path d="M225 2478 c14 -71 29 -108 42 -108 17 0 17 21 -2 56 -23 44 -19 64
10 64 14 0 25 5 25 10 0 6 -18 10 -41 10 -41 0 -41 0 -34 -32z"/>
<path d="M113 2478 c-36 -22 -41 -35 -18 -44 8 -4 25 6 39 23 42 47 33 55 -21
21z"/>
<path d="M260 2197 c0 -7 5 -18 11 -24 8 -8 -3 -13 -42 -18 l-54 -7 -1 -58
c-1 -43 -10 -76 -33 -125 -35 -75 -32 -96 5 -50 26 32 48 96 59 169 8 50 7 49
123 61 60 7 77 17 48 28 -8 3 -24 3 -36 0 -15 -4 -26 1 -36 16 -17 23 -44 28
-44 8z"/>
<path d="M278 2113 c-21 -2 -38 -9 -38 -14 0 -15 103 -7 108 9 2 7 -4 11 -15
10 -10 -1 -35 -3 -55 -5z"/>
<path d="M110 2098 c0 -16 19 -38 33 -38 4 0 7 10 5 22 -3 25 -38 39 -38 16z"/>
<path d="M310 2061 c0 -5 5 -11 12 -13 21 -7 0 -38 -27 -38 -14 0 -25 -4 -25
-10 0 -5 12 -10 26 -10 22 0 25 -4 22 -27 -5 -43 -31 -39 -51 7 -24 55 -22 70
8 70 14 0 25 5 25 10 0 6 -18 10 -40 10 l-41 0 7 -37 c4 -21 11 -48 15 -61 14
-38 11 -42 -31 -42 -22 0 -40 -4 -40 -9 0 -16 24 -18 105 -9 44 5 95 7 113 4
22 -3 32 -1 32 9 0 17 -20 24 -53 18 -26 -5 -37 9 -17 22 6 3 10 21 10 39 0
17 6 38 12 44 10 10 10 15 -2 22 -19 12 -60 13 -60 1z"/>
<path d="M113 2028 c-36 -22 -41 -35 -18 -44 8 -4 25 6 39 23 42 47 33 55 -21
21z"/>
</g>
</svg>
