<?xml version="1.0" standalone="no"?>
<!DOCTYPE svg PUBLIC "-//W3C//DTD SVG 20010904//EN"
 "http://www.w3.org/TR/2001/REC-SVG-20010904/DTD/svg10.dtd">
<svg version="1.0" xmlns="http://www.w3.org/2000/svg"
 width="50.000000pt" height="725.000000pt" viewBox="0 0 50.000000 725.000000"
 preserveAspectRatio="xMidYMid meet">
<metadata>
Created by potrace 1.16, written by Peter Selinger 2001-2019
</metadata>
<g transform="translate(0.000000,725.000000) scale(0.100000,-0.100000)"
fill="#000000" stroke="none">
<path d="M270 7158 c0 -16 19 -38 33 -38 4 0 7 10 5 22 -3 25 -38 39 -38 16z"/>
<path d="M273 6701 c3 -15 -2 -20 -25 -25 -17 -3 -41 -6 -54 -6 -13 0 -24 -5
-24 -11 0 -10 160 -4 203 8 33 9 17 25 -22 21 -32 -3 -41 0 -44 14 -3 10 -13
18 -22 18 -12 0 -16 -6 -12 -19z"/>
<path d="M273 6251 c3 -15 -2 -20 -25 -25 -17 -3 -41 -6 -54 -6 -20 0 -22 -4
-17 -33 6 -41 -20 -149 -48 -194 -27 -44 -15 -57 17 -18 27 34 50 98 60 168 8
56 25 67 104 67 54 0 80 7 80 22 0 6 -17 8 -39 6 -32 -3 -41 0 -44 14 -3 10
-13 18 -22 18 -12 0 -16 -6 -12 -19z"/>
<path d="M273 5801 c3 -15 -2 -20 -25 -25 -17 -3 -41 -6 -54 -6 -20 0 -22 -4
-17 -33 6 -41 -20 -149 -48 -194 -27 -44 -15 -57 17 -18 27 34 50 98 60 168 8
56 25 67 104 67 54 0 80 7 80 22 0 6 -17 8 -39 6 -32 -3 -41 0 -44 14 -3 10
-13 18 -22 18 -12 0 -16 -6 -12 -19z"/>
<path d="M120 5721 c0 -21 13 -41 26 -41 17 0 18 22 2 38 -14 14 -28 16 -28 3z"/>
<path d="M273 5351 c3 -15 -2 -20 -25 -25 -17 -3 -41 -6 -54 -6 -20 0 -22 -4
-17 -33 6 -41 -20 -149 -48 -194 -27 -44 -15 -57 17 -18 27 34 50 98 60 168 8
56 25 67 104 67 54 0 80 7 80 22 0 6 -17 8 -39 6 -32 -3 -41 0 -44 14 -3 10
-13 18 -22 18 -12 0 -16 -6 -12 -19z"/>
<path d="M120 5271 c0 -21 13 -41 26 -41 17 0 18 22 2 38 -14 14 -28 16 -28 3z"/>
<path d="M100 5180 c-20 -15 -22 -21 -13 -31 10 -10 18 -8 38 11 43 40 23 57
-25 20z"/>
<path d="M273 4901 c3 -15 -2 -20 -25 -25 -17 -3 -41 -6 -54 -6 -20 0 -22 -4
-17 -33 6 -41 -20 -149 -48 -194 -27 -44 -15 -57 17 -18 27 34 50 98 60 168 8
56 25 67 104 67 54 0 80 7 80 22 0 6 -17 8 -39 6 -32 -3 -41 0 -44 14 -3 10
-13 18 -22 18 -12 0 -16 -6 -12 -19z"/>
<path d="M282 4833 c5 -25 28 -28 28 -4 0 12 -6 21 -16 21 -9 0 -14 -7 -12
-17z"/>
<path d="M120 4821 c0 -21 13 -41 26 -41 17 0 18 22 2 38 -14 14 -28 16 -28 3z"/>
<path d="M100 4730 c-20 -15 -22 -21 -13 -31 10 -10 18 -8 38 11 43 40 23 57
-25 20z"/>
<path d="M273 4451 c3 -15 -2 -20 -25 -25 -17 -3 -41 -6 -54 -6 -20 0 -22 -4
-17 -33 6 -41 -20 -149 -48 -194 -27 -44 -15 -57 17 -18 27 34 50 98 60 168 8
56 25 67 104 67 54 0 80 7 80 22 0 6 -17 8 -39 6 -32 -3 -41 0 -44 14 -3 10
-13 18 -22 18 -12 0 -16 -6 -12 -19z"/>
<path d="M277 4380 c-3 -14 -14 -20 -31 -20 -14 0 -26 -5 -26 -10 0 -7 24 -8
68 -4 81 7 92 10 92 25 0 8 -12 10 -35 6 -26 -4 -35 -2 -35 9 0 21 -27 17 -33
-6z"/>
<path d="M120 4371 c0 -21 13 -41 26 -41 17 0 18 22 2 38 -14 14 -28 16 -28 3z"/>
<path d="M100 4280 c-20 -15 -22 -21 -13 -31 10 -10 18 -8 38 11 43 40 23 57
-25 20z"/>
<path d="M273 4001 c3 -15 -2 -20 -25 -25 -17 -3 -41 -6 -54 -6 -20 0 -22 -4
-17 -33 6 -41 -20 -149 -48 -194 -27 -44 -15 -57 17 -18 27 34 50 98 60 168 8
56 25 67 104 67 54 0 80 7 80 22 0 6 -17 8 -39 6 -32 -3 -41 0 -44 14 -3 10
-13 18 -22 18 -12 0 -16 -6 -12 -19z"/>
<path d="M277 3930 c-3 -14 -14 -20 -31 -20 -14 0 -26 -4 -26 -10 0 -5 7 -10
16 -10 14 0 13 -5 -5 -36 -12 -20 -19 -39 -16 -42 10 -11 66 53 62 70 -4 14 4
18 46 20 32 2 52 8 55 17 4 11 -3 13 -32 8 -27 -4 -36 -2 -36 9 0 21 -27 17
-33 -6z"/>
<path d="M120 3921 c0 -21 13 -41 26 -41 17 0 18 22 2 38 -14 14 -28 16 -28 3z"/>
<path d="M100 3830 c-20 -15 -22 -21 -13 -31 10 -10 18 -8 38 11 43 40 23 57
-25 20z"/>
<path d="M273 3551 c3 -15 -2 -20 -25 -25 -17 -3 -41 -6 -54 -6 -20 0 -22 -4
-17 -33 6 -41 -20 -149 -48 -194 -27 -44 -15 -57 17 -18 27 34 50 98 60 168 8
56 25 67 104 67 54 0 80 7 80 22 0 6 -17 8 -39 6 -32 -3 -41 0 -44 14 -3 10
-13 18 -22 18 -12 0 -16 -6 -12 -19z"/>
<path d="M277 3480 c-3 -14 -14 -20 -31 -20 -14 0 -26 -4 -26 -10 0 -5 7 -10
16 -10 14 0 13 -5 -5 -36 -25 -42 -20 -56 9 -29 11 10 20 13 20 7 0 -7 7 -12
15 -12 16 0 20 12 8 24 -4 4 -8 17 -8 29 0 19 7 23 49 27 30 3 51 11 54 19 4
11 -3 13 -32 8 -27 -4 -36 -2 -36 9 0 21 -27 17 -33 -6z"/>
<path d="M120 3471 c0 -21 13 -41 26 -41 17 0 18 22 2 38 -14 14 -28 16 -28 3z"/>
<path d="M100 3380 c-20 -15 -22 -21 -13 -31 10 -10 18 -8 38 11 43 40 23 57
-25 20z"/>
<path d="M273 3101 c3 -15 -2 -20 -25 -25 -17 -3 -41 -6 -54 -6 -20 0 -22 -4
-17 -33 6 -41 -20 -149 -48 -194 -27 -44 -15 -57 17 -18 27 34 50 98 60 168 8
56 25 67 104 67 54 0 80 7 80 22 0 6 -17 8 -39 6 -32 -3 -41 0 -44 14 -3 10
-13 18 -22 18 -12 0 -16 -6 -12 -19z"/>
<path d="M277 3030 c-3 -14 -14 -20 -31 -20 -14 0 -26 -4 -26 -10 0 -5 7 -10
16 -10 14 0 13 -5 -5 -36 -25 -42 -20 -56 9 -29 11 10 20 13 20 7 0 -7 7 -12
15 -12 16 0 20 12 8 23 -3 4 -7 18 -8 32 0 21 4 25 28 25 30 0 30 1 10 -47 -8
-19 12 -16 28 5 17 21 39 59 39 68 0 4 -16 4 -35 1 -26 -4 -35 -2 -35 9 0 21
-27 17 -33 -6z"/>
<path d="M120 3021 c0 -21 13 -41 26 -41 17 0 18 22 2 38 -14 14 -28 16 -28 3z"/>
<path d="M100 2930 c-20 -15 -22 -21 -13 -31 10 -10 18 -8 38 11 43 40 23 57
-25 20z"/>
<path d="M273 2651 c3 -15 -2 -20 -25 -25 -17 -3 -41 -6 -54 -6 -20 0 -22 -4
-17 -33 6 -41 -20 -149 -48 -194 -27 -44 -15 -57 17 -18 27 34 50 98 60 168 8
56 25 67 104 67 54 0 80 7 80 22 0 6 -17 8 -39 6 -32 -3 -41 0 -44 14 -3 10
-13 18 -22 18 -12 0 -16 -6 -12 -19z"/>
<path d="M277 2580 c-3 -14 -14 -20 -31 -20 -14 0 -26 -4 -26 -10 0 -5 7 -10
16 -10 14 0 13 -5 -5 -36 -25 -42 -20 -56 9 -29 11 10 20 13 20 7 0 -7 7 -12
15 -12 16 0 20 12 8 23 -3 4 -7 18 -8 32 0 21 4 25 28 25 30 0 30 1 9 -49 -4
-10 -1 -13 11 -8 8 3 21 -1 27 -9 7 -8 19 -14 26 -14 21 0 17 30 -6 38 -18 7
-19 9 -5 36 20 39 20 39 -20 33 -26 -4 -35 -2 -35 9 0 21 -27 17 -33 -6z"/>
<path d="M120 2571 c0 -21 13 -41 26 -41 17 0 18 22 2 38 -14 14 -28 16 -28 3z"/>
<path d="M100 2480 c-20 -15 -22 -21 -13 -31 10 -10 18 -8 38 11 43 40 23 57
-25 20z"/>
<path d="M273 2201 c3 -15 -2 -20 -25 -25 -17 -3 -41 -6 -54 -6 -20 0 -22 -4
-17 -33 6 -41 -20 -148 -47 -192 -22 -36 -24 -45 -10 -45 5 0 20 15 32 34 16
25 30 35 48 34 58 -1 230 16 230 22 0 16 -33 19 -103 10 -39 -5 -89 -10 -109
-10 -35 0 -37 2 -29 23 5 12 12 46 16 75 8 61 24 72 105 72 54 0 80 7 80 22 0
6 -17 8 -39 6 -32 -3 -41 0 -44 14 -3 10 -13 18 -22 18 -12 0 -16 -6 -12 -19z"/>
<path d="M277 2130 c-3 -14 -14 -20 -31 -20 -14 0 -26 -4 -26 -10 0 -5 7 -10
16 -10 14 0 13 -5 -5 -36 -25 -42 -20 -56 9 -29 11 10 20 13 20 7 0 -7 7 -12
15 -12 16 0 20 12 8 23 -3 4 -7 18 -8 32 0 21 4 25 28 25 30 0 30 1 9 -49 -4
-10 -1 -13 11 -8 8 3 21 -1 27 -9 7 -8 19 -14 26 -14 21 0 17 30 -6 38 -18 7
-19 9 -5 36 20 39 20 39 -20 33 -26 -4 -35 -2 -35 9 0 21 -27 17 -33 -6z"/>
<path d="M120 2121 c0 -21 13 -41 26 -41 17 0 18 22 2 38 -14 14 -28 16 -28 3z"/>
<path d="M100 2030 c-20 -15 -22 -21 -13 -31 10 -10 18 -8 38 11 43 40 23 57
-25 20z"/>
<path d="M273 1751 c3 -15 -2 -20 -25 -25 -17 -3 -41 -6 -54 -6 -20 0 -22 -4
-17 -33 6 -41 -20 -148 -47 -192 -22 -36 -24 -45 -10 -45 5 0 20 15 32 33 20
31 25 34 80 35 l58 2 0 -45 c0 -60 18 -58 22 3 l3 47 58 3 c56 3 73 14 41 26
-9 4 -32 4 -50 0 -26 -5 -38 -1 -60 19 -15 14 -28 37 -29 51 0 22 4 26 28 26
22 0 28 -4 23 -15 -3 -8 -9 -23 -13 -32 -5 -12 -2 -15 10 -10 8 3 21 -1 27 -9
7 -8 19 -14 26 -14 21 0 17 30 -6 38 -18 7 -19 9 -5 36 20 39 20 39 -20 33
-26 -4 -35 -2 -35 9 0 21 -27 17 -33 -6 -3 -14 -14 -20 -31 -20 -14 0 -26 -4
-26 -10 0 -5 7 -10 16 -10 14 0 13 -5 -5 -36 -24 -40 -21 -56 6 -32 15 14 20
14 31 2 23 -25 13 -34 -38 -34 -47 0 -49 1 -41 23 5 12 12 46 16 75 8 61 24
72 105 72 54 0 80 7 80 22 0 6 -17 8 -39 6 -32 -3 -41 0 -44 14 -3 10 -13 18
-22 18 -12 0 -16 -6 -12 -19z"/>
<path d="M120 1671 c0 -21 13 -41 26 -41 17 0 18 22 2 38 -14 14 -28 16 -28 3z"/>
<path d="M100 1580 c-20 -15 -22 -21 -13 -31 10 -10 18 -8 38 11 43 40 23 57
-25 20z"/>
</g>
</svg>
