<?xml version="1.0" standalone="no"?>
<!DOCTYPE svg PUBLIC "-//W3C//DTD SVG 20010904//EN"
 "http://www.w3.org/TR/2001/REC-SVG-20010904/DTD/svg10.dtd">
<svg version="1.0" xmlns="http://www.w3.org/2000/svg"
 width="95.000000pt" height="725.000000pt" viewBox="0 0 95.000000 725.000000"
 preserveAspectRatio="xMidYMid meet">
<metadata>
Created by potrace 1.16, written by Peter Selinger 2001-2019
</metadata>
<g transform="translate(0.000000,725.000000) scale(0.100000,-0.100000)"
fill="#000000" stroke="none">
<path d="M273 7150 c4 -17 -2 -20 -53 -26 l-58 -6 5 -37 c6 -44 -20 -152 -48
-200 -23 -39 -18 -52 11 -26 23 21 48 82 60 150 7 40 9 27 6 -62 -3 -91 -1
-113 10 -113 11 0 14 17 15 68 0 37 4 85 8 107 l7 40 5 -32 c3 -18 1 -34 -5
-36 -14 -5 2 -27 20 -27 8 0 14 7 14 15 0 8 9 15 20 15 11 0 20 -4 20 -10 0
-5 9 -10 20 -10 22 0 27 15 8 23 -8 3 -6 6 5 6 13 1 17 -7 17 -34 0 -19 5 -35
10 -35 6 0 10 5 10 10 0 6 11 10 25 10 14 0 25 5 25 10 0 6 -7 10 -15 10 -8 0
-17 11 -21 25 -4 18 -13 25 -33 26 -23 2 -24 2 -3 6 24 5 31 23 8 23 -17 0
-31 33 -17 38 15 5 14 29 -1 35 -7 3 -1 6 15 6 41 1 33 21 -9 21 -19 0 -42 7
-50 15 -21 21 -37 19 -31 -5z m38 -61 c-13 -10 -25 -32 -27 -49 -3 -23 1 -30
19 -33 15 -3 11 -5 -12 -6 -33 -1 -33 -1 -26 35 l6 36 -35 -6 c-31 -6 -36 -4
-36 13 0 22 18 28 90 29 l45 1 -24 -20z m12 -39 c3 -11 1 -20 -4 -20 -5 0 -9
9 -9 20 0 11 2 20 4 20 2 0 6 -9 9 -20z"/>
<path d="M720 7158 c0 -22 17 -41 29 -34 16 10 13 33 -5 40 -22 8 -24 8 -24
-6z"/>
<path d="M365 7069 c-4 -6 -4 -13 -1 -16 8 -8 36 5 36 17 0 13 -27 13 -35 -1z"/>
<path d="M110 7048 c0 -16 19 -38 33 -38 4 0 7 10 5 22 -3 25 -38 39 -38 16z"/>
<path d="M102 6964 c-12 -8 -22 -19 -22 -25 0 -16 32 -10 46 9 26 34 13 42
-24 16z"/>
<path d="M280 6940 c0 -5 16 -10 35 -10 19 0 35 5 35 10 0 6 -16 10 -35 10
-19 0 -35 -4 -35 -10z"/>
<path d="M273 6700 c4 -17 -2 -20 -53 -26 l-58 -6 5 -37 c6 -44 -20 -152 -48
-200 -23 -39 -18 -52 11 -26 23 21 48 82 60 150 7 40 9 27 6 -62 -3 -91 -1
-113 10 -113 11 0 14 17 15 68 0 37 4 85 8 107 l7 40 5 -32 c3 -18 1 -34 -5
-36 -14 -5 2 -27 20 -27 8 0 14 7 14 15 0 8 9 15 20 15 11 0 20 -4 20 -10 0
-5 9 -10 20 -10 22 0 27 15 8 23 -8 3 -6 6 5 6 13 1 17 -7 16 -31 0 -18 -3
-27 -6 -20 -6 14 -73 17 -73 2 0 -5 9 -10 20 -10 11 0 20 -4 20 -10 0 -5 14
-10 30 -10 20 0 30 5 30 15 0 9 9 15 25 15 14 0 25 5 25 10 0 6 -7 10 -15 10
-8 0 -17 11 -21 25 -4 18 -13 25 -33 26 -23 2 -24 2 -3 6 24 5 31 23 8 23 -17
0 -31 33 -17 38 15 5 14 29 -1 35 -7 3 -1 6 15 6 41 1 33 21 -9 21 -19 0 -42
7 -50 15 -21 21 -37 19 -31 -5z m38 -61 c-13 -10 -25 -32 -27 -49 -3 -23 1
-30 19 -33 15 -3 11 -5 -12 -6 -33 -1 -33 -1 -26 35 l6 36 -35 -6 c-31 -6 -36
-4 -36 13 0 22 18 28 90 29 l45 1 -24 -20z m12 -39 c3 -11 1 -20 -4 -20 -5 0
-9 9 -9 20 0 11 2 20 4 20 2 0 6 -9 9 -20z"/>
<path d="M723 6700 c4 -17 -2 -20 -54 -26 -87 -10 -75 -28 14 -20 116 11 157
18 157 27 0 5 -16 9 -36 9 -19 0 -42 7 -50 15 -21 21 -37 19 -31 -5z"/>
<path d="M365 6619 c-4 -6 -4 -13 -1 -16 8 -8 36 5 36 17 0 13 -27 13 -35 -1z"/>
<path d="M110 6598 c0 -16 19 -38 33 -38 4 0 7 10 5 22 -3 25 -38 39 -38 16z"/>
<path d="M102 6514 c-12 -8 -22 -19 -22 -25 0 -16 32 -10 46 9 26 34 13 42
-24 16z"/>
<path d="M280 6460 c0 -5 7 -10 15 -10 8 0 15 5 15 10 0 6 -7 10 -15 10 -8 0
-15 -4 -15 -10z"/>
<path d="M273 6250 c4 -17 -2 -20 -53 -26 l-58 -6 5 -37 c6 -44 -20 -152 -48
-200 -23 -39 -18 -52 11 -26 23 21 48 82 60 150 7 40 9 27 6 -62 -3 -91 -1
-113 10 -113 11 0 14 17 15 68 0 37 4 85 8 107 l7 40 5 -32 c3 -18 1 -34 -5
-36 -14 -5 2 -27 20 -27 8 0 14 7 14 15 0 8 9 15 20 15 11 0 20 -4 20 -10 0
-5 9 -10 20 -10 22 0 27 15 8 23 -8 3 -6 6 5 6 13 1 17 -7 16 -31 0 -18 -3
-27 -6 -20 -6 14 -73 17 -73 2 0 -5 9 -10 20 -10 11 0 20 -4 20 -10 0 -5 14
-10 30 -10 20 0 30 5 30 15 0 9 9 15 25 15 14 0 25 5 25 10 0 6 -7 10 -15 10
-8 0 -17 11 -21 25 -4 18 -13 25 -33 26 -23 2 -24 2 -3 6 24 5 31 23 8 23 -17
0 -31 33 -17 38 15 5 14 29 -1 35 -7 3 -1 6 15 6 41 1 33 21 -9 21 -19 0 -42
7 -50 15 -21 21 -37 19 -31 -5z m38 -61 c-13 -10 -25 -32 -27 -49 -3 -23 1
-30 19 -33 15 -3 11 -5 -12 -6 -33 -1 -33 -1 -26 35 l6 36 -35 -6 c-31 -6 -36
-4 -36 13 0 22 18 28 90 29 l45 1 -24 -20z m12 -39 c3 -11 1 -20 -4 -20 -5 0
-9 9 -9 20 0 11 2 20 4 20 2 0 6 -9 9 -20z"/>
<path d="M723 6250 c4 -17 -2 -20 -53 -26 l-58 -6 5 -37 c6 -44 -20 -152 -48
-200 -22 -37 -19 -51 7 -30 27 22 53 90 65 172 l11 76 37 5 c20 3 62 8 94 11
63 7 78 25 21 25 -19 0 -42 7 -50 15 -21 21 -37 19 -31 -5z"/>
<path d="M365 6169 c-4 -6 -4 -13 -1 -16 8 -8 36 5 36 17 0 13 -27 13 -35 -1z"/>
<path d="M110 6148 c0 -16 19 -38 33 -38 4 0 7 10 5 22 -3 25 -38 39 -38 16z"/>
<path d="M102 6064 c-12 -8 -22 -19 -22 -25 0 -16 32 -10 46 9 26 34 13 42
-24 16z"/>
<path d="M280 6010 c0 -5 7 -10 15 -10 8 0 15 5 15 10 0 6 -7 10 -15 10 -8 0
-15 -4 -15 -10z"/>
<path d="M240 5981 c0 -5 -3 -16 -6 -25 -4 -11 -1 -16 10 -16 10 0 16 9 16 25
0 14 -4 25 -10 25 -5 0 -10 -4 -10 -9z"/>
<path d="M273 5800 c4 -17 -2 -20 -53 -26 l-58 -6 5 -37 c6 -44 -20 -152 -48
-200 -23 -39 -18 -52 11 -26 23 21 48 82 60 150 7 40 9 27 6 -62 -3 -91 -1
-113 10 -113 11 0 14 17 15 68 0 37 4 85 8 107 l7 40 5 -32 c3 -18 1 -34 -5
-36 -14 -5 2 -27 20 -27 8 0 14 7 14 15 0 8 9 15 20 15 11 0 20 -4 20 -10 0
-5 9 -10 20 -10 22 0 27 15 8 23 -8 3 -6 6 5 6 13 1 17 -7 16 -31 0 -18 -3
-27 -6 -20 -6 14 -73 17 -73 2 0 -5 9 -10 20 -10 11 0 20 -4 20 -10 0 -5 14
-10 30 -10 20 0 30 5 30 15 0 9 9 15 25 15 14 0 25 5 25 10 0 6 -7 10 -15 10
-8 0 -17 11 -21 25 -4 18 -13 25 -33 26 -23 2 -24 2 -3 6 24 5 31 23 8 23 -17
0 -31 33 -17 38 15 5 14 29 -1 35 -7 3 -1 6 15 6 41 1 33 21 -9 21 -19 0 -42
7 -50 15 -21 21 -37 19 -31 -5z m38 -61 c-13 -10 -25 -32 -27 -49 -3 -23 1
-30 19 -33 15 -3 11 -5 -12 -6 -33 -1 -33 -1 -26 35 l6 36 -35 -6 c-31 -6 -36
-4 -36 13 0 22 18 28 90 29 l45 1 -24 -20z m12 -39 c3 -11 1 -20 -4 -20 -5 0
-9 9 -9 20 0 11 2 20 4 20 2 0 6 -9 9 -20z"/>
<path d="M723 5800 c4 -17 -2 -20 -53 -26 l-58 -6 5 -37 c6 -44 -20 -152 -48
-200 -22 -37 -19 -51 7 -30 27 22 53 90 65 172 l11 76 37 5 c20 3 62 8 94 11
63 7 78 25 21 25 -19 0 -42 7 -50 15 -21 21 -37 19 -31 -5z"/>
<path d="M365 5719 c-4 -6 -4 -13 -1 -16 8 -8 36 5 36 17 0 13 -27 13 -35 -1z"/>
<path d="M110 5698 c0 -16 19 -38 33 -38 4 0 7 10 5 22 -3 25 -38 39 -38 16z"/>
<path d="M560 5698 c0 -16 19 -38 33 -38 4 0 7 10 5 22 -3 25 -38 39 -38 16z"/>
<path d="M102 5614 c-12 -8 -22 -19 -22 -25 0 -16 32 -10 46 9 26 34 13 42
-24 16z"/>
<path d="M280 5560 c0 -5 7 -10 15 -10 8 0 15 5 15 10 0 6 -7 10 -15 10 -8 0
-15 -4 -15 -10z"/>
<path d="M240 5531 c0 -5 -3 -16 -6 -25 -4 -11 -1 -16 10 -16 10 0 16 9 16 25
0 14 -4 25 -10 25 -5 0 -10 -4 -10 -9z"/>
<path d="M270 5530 c0 -23 50 -60 79 -60 39 0 61 9 61 25 0 16 -33 30 -38 16
-7 -20 -61 -12 -72 9 -11 21 -30 27 -30 10z"/>
<path d="M273 5350 c4 -17 -2 -20 -53 -26 l-58 -6 5 -37 c6 -44 -20 -152 -48
-200 -23 -39 -18 -52 11 -26 23 21 48 82 60 150 7 40 9 27 6 -62 -3 -91 -1
-113 10 -113 11 0 14 17 15 68 0 37 4 85 8 107 l7 40 5 -32 c3 -18 1 -34 -5
-36 -14 -5 2 -27 20 -27 8 0 14 7 14 15 0 8 9 15 20 15 11 0 20 -4 20 -10 0
-5 9 -10 20 -10 22 0 27 15 8 23 -8 3 -6 6 5 6 13 1 17 -7 16 -31 0 -18 -3
-27 -6 -20 -6 14 -73 17 -73 2 0 -5 9 -10 20 -10 11 0 20 -4 20 -10 0 -5 14
-10 30 -10 20 0 30 5 30 15 0 9 9 15 25 15 14 0 25 5 25 10 0 6 -7 10 -15 10
-8 0 -17 11 -21 25 -4 18 -13 25 -33 26 -23 2 -24 2 -3 6 24 5 31 23 8 23 -17
0 -31 33 -17 38 15 5 14 29 -1 35 -7 3 -1 6 15 6 41 1 33 21 -9 21 -19 0 -42
7 -50 15 -21 21 -37 19 -31 -5z m38 -61 c-13 -10 -25 -32 -27 -49 -3 -23 1
-30 19 -33 15 -3 11 -5 -12 -6 -33 -1 -33 -1 -26 35 l6 36 -35 -6 c-31 -6 -36
-4 -36 13 0 22 18 28 90 29 l45 1 -24 -20z m12 -39 c3 -11 1 -20 -4 -20 -5 0
-9 9 -9 20 0 11 2 20 4 20 2 0 6 -9 9 -20z"/>
<path d="M723 5350 c4 -17 -2 -20 -53 -26 l-58 -6 5 -37 c6 -44 -20 -152 -48
-200 -22 -37 -19 -51 7 -30 27 22 53 90 65 172 l11 76 37 5 c20 3 62 8 94 11
63 7 78 25 21 25 -19 0 -42 7 -50 15 -21 21 -37 19 -31 -5z"/>
<path d="M365 5269 c-4 -6 -4 -13 -1 -16 8 -8 36 5 36 17 0 13 -27 13 -35 -1z"/>
<path d="M110 5248 c0 -16 19 -38 33 -38 4 0 7 10 5 22 -3 25 -38 39 -38 16z"/>
<path d="M560 5248 c0 -16 19 -38 33 -38 4 0 7 10 5 22 -3 25 -38 39 -38 16z"/>
<path d="M102 5164 c-12 -8 -22 -19 -22 -25 0 -16 32 -10 46 9 26 34 13 42
-24 16z"/>
<path d="M552 5164 c-12 -8 -22 -19 -22 -25 0 -16 32 -10 46 9 26 34 13 42
-24 16z"/>
<path d="M280 5110 c0 -5 7 -10 15 -10 8 0 15 5 15 10 0 6 -7 10 -15 10 -8 0
-15 -4 -15 -10z"/>
<path d="M320 5085 c0 -8 7 -15 15 -15 8 0 15 7 15 15 0 8 -7 15 -15 15 -8 0
-15 -7 -15 -15z"/>
<path d="M240 5081 c0 -5 -3 -16 -6 -25 -4 -11 -1 -16 10 -16 10 0 16 9 16 25
0 14 -4 25 -10 25 -5 0 -10 -4 -10 -9z"/>
<path d="M270 5080 c0 -23 50 -60 79 -60 39 0 61 9 61 25 0 16 -33 30 -38 16
-7 -20 -61 -12 -72 9 -11 21 -30 27 -30 10z"/>
<path d="M273 4900 c4 -17 -2 -20 -53 -26 l-58 -6 5 -37 c6 -44 -20 -152 -48
-200 -23 -39 -18 -52 11 -26 23 21 48 82 60 150 7 40 9 27 6 -62 -3 -91 -1
-113 10 -113 11 0 14 17 15 68 0 37 4 85 8 107 l7 40 5 -32 c3 -18 1 -34 -5
-36 -14 -5 2 -27 20 -27 8 0 14 7 14 15 0 8 9 15 20 15 11 0 20 -4 20 -10 0
-5 9 -10 20 -10 22 0 27 15 8 23 -8 3 -6 6 5 6 13 1 17 -7 16 -31 0 -18 -3
-27 -6 -20 -6 14 -73 17 -73 2 0 -5 9 -10 20 -10 11 0 20 -4 20 -10 0 -5 12
-10 28 -10 16 0 32 -8 40 -20 14 -23 42 -27 42 -5 0 8 -11 17 -25 21 -14 3
-25 12 -25 20 0 8 10 14 25 14 14 0 25 5 25 10 0 6 -7 10 -15 10 -8 0 -17 11
-21 25 -4 18 -13 25 -33 26 -23 2 -24 2 -3 6 24 5 31 23 8 23 -17 0 -31 33
-17 38 15 5 14 29 -1 35 -7 3 -1 6 15 6 41 1 33 21 -9 21 -19 0 -42 7 -50 15
-21 21 -37 19 -31 -5z m38 -61 c-13 -10 -25 -32 -27 -49 -3 -23 1 -30 19 -33
15 -3 11 -5 -12 -6 -33 -1 -33 -1 -26 35 l6 36 -35 -6 c-31 -6 -36 -4 -36 13
0 22 18 28 90 29 l45 1 -24 -20z m12 -39 c3 -11 1 -20 -4 -20 -5 0 -9 9 -9 20
0 11 2 20 4 20 2 0 6 -9 9 -20z"/>
<path d="M723 4900 c4 -17 -2 -20 -53 -26 l-58 -6 5 -37 c6 -44 -20 -152 -48
-200 -22 -37 -19 -51 7 -30 27 22 53 90 65 172 l11 76 37 5 c20 3 62 8 94 11
63 7 78 25 21 25 -19 0 -42 7 -50 15 -21 21 -37 19 -31 -5z"/>
<path d="M365 4819 c-4 -6 -4 -13 -1 -16 8 -8 36 5 36 17 0 13 -27 13 -35 -1z"/>
<path d="M686 4798 c9 -32 14 -35 24 -18 16 24 11 40 -11 40 -16 0 -19 -4 -13
-22z"/>
<path d="M110 4798 c0 -16 19 -38 33 -38 4 0 7 10 5 22 -3 25 -38 39 -38 16z"/>
<path d="M560 4798 c0 -16 19 -38 33 -38 4 0 7 10 5 22 -3 25 -38 39 -38 16z"/>
<path d="M102 4714 c-12 -8 -22 -19 -22 -25 0 -16 32 -10 46 9 26 34 13 42
-24 16z"/>
<path d="M552 4714 c-12 -8 -22 -19 -22 -25 0 -16 32 -10 46 9 26 34 13 42
-24 16z"/>
<path d="M280 4660 c0 -5 7 -10 15 -10 8 0 15 5 15 10 0 6 -7 10 -15 10 -8 0
-15 -4 -15 -10z"/>
<path d="M320 4635 c0 -8 7 -15 15 -15 8 0 15 7 15 15 0 8 -7 15 -15 15 -8 0
-15 -7 -15 -15z"/>
<path d="M240 4631 c0 -5 -3 -16 -6 -25 -4 -11 -1 -16 10 -16 10 0 16 9 16 25
0 14 -4 25 -10 25 -5 0 -10 -4 -10 -9z"/>
<path d="M270 4630 c0 -23 50 -60 79 -60 39 0 61 9 61 25 0 16 -33 30 -38 16
-7 -20 -61 -12 -72 9 -11 21 -30 27 -30 10z"/>
<path d="M723 4450 c4 -17 -2 -20 -53 -26 l-58 -6 5 -37 c6 -44 -20 -152 -48
-200 -22 -37 -19 -51 7 -30 27 22 53 90 65 172 l11 76 37 5 c20 3 62 8 94 11
63 7 78 25 21 25 -19 0 -42 7 -50 15 -21 21 -37 19 -31 -5z"/>
<path d="M686 4338 c3 -18 7 -38 9 -45 2 -6 -1 -13 -7 -15 -15 -5 -1 -28 17
-28 10 0 13 16 12 60 -1 50 -5 60 -19 60 -14 0 -16 -6 -12 -32z"/>
<path d="M560 4348 c0 -16 19 -38 33 -38 4 0 7 10 5 22 -3 25 -38 39 -38 16z"/>
<path d="M552 4264 c-12 -8 -22 -19 -22 -25 0 -16 32 -10 46 9 26 34 13 42
-24 16z"/>
<path d="M723 4000 c4 -17 -2 -20 -53 -26 l-58 -6 5 -37 c6 -44 -20 -152 -48
-200 -23 -39 -18 -52 11 -26 23 21 48 82 60 150 7 40 9 27 6 -62 -3 -91 -1
-113 10 -113 11 0 14 17 15 68 0 37 4 85 8 107 l7 40 5 -32 c3 -18 1 -34 -5
-36 -13 -4 2 -27 19 -27 10 0 13 16 12 61 l-2 60 -32 -6 c-28 -5 -33 -3 -33
14 0 20 9 23 133 36 63 7 78 25 21 25 -19 0 -42 7 -50 15 -21 21 -37 19 -31
-5z"/>
<path d="M560 3898 c0 -16 19 -38 33 -38 4 0 7 10 5 22 -3 25 -38 39 -38 16z"/>
<path d="M552 3814 c-12 -8 -22 -19 -22 -25 0 -16 32 -10 46 9 26 34 13 42
-24 16z"/>
<path d="M723 3550 c4 -17 -2 -20 -53 -26 l-58 -6 5 -37 c6 -44 -20 -152 -48
-200 -23 -39 -18 -52 11 -26 23 21 48 82 60 150 7 40 9 27 6 -62 -3 -91 -1
-113 10 -113 11 0 14 17 15 68 0 37 4 85 8 107 l7 40 5 -32 c3 -18 1 -34 -5
-36 -13 -4 2 -27 19 -27 10 0 13 16 12 61 l-2 60 -32 -6 c-28 -5 -33 -3 -33
13 0 21 34 32 99 32 l36 -1 -24 -20 c-30 -25 -23 -32 17 -18 32 11 42 33 20
42 -7 3 -1 6 15 6 41 1 33 21 -9 21 -19 0 -42 7 -50 15 -21 21 -37 19 -31 -5z"/>
<path d="M560 3448 c0 -16 19 -38 33 -38 4 0 7 10 5 22 -3 25 -38 39 -38 16z"/>
<path d="M552 3364 c-12 -8 -22 -19 -22 -25 0 -16 32 -10 46 9 26 34 13 42
-24 16z"/>
<path d="M723 3100 c4 -17 -2 -20 -53 -26 l-58 -6 5 -37 c6 -44 -20 -152 -48
-200 -23 -39 -18 -52 11 -26 23 21 48 82 60 150 7 40 9 27 6 -62 -3 -91 -1
-113 10 -113 11 0 14 17 15 68 0 37 4 85 8 107 l7 40 5 -32 c3 -18 1 -34 -5
-36 -13 -4 2 -27 19 -27 10 0 13 16 12 61 l-2 60 -32 -6 c-28 -5 -33 -3 -33
13 0 21 34 32 99 32 l36 0 -28 -26 c-28 -26 -31 -44 -9 -52 7 -2 12 5 12 16 0
13 9 22 25 26 26 7 34 31 13 39 -7 3 -1 6 15 6 41 1 33 21 -9 21 -19 0 -42 7
-50 15 -21 21 -37 19 -31 -5z"/>
<path d="M560 2998 c0 -16 19 -38 33 -38 4 0 7 10 5 22 -3 25 -38 39 -38 16z"/>
<path d="M552 2914 c-12 -8 -22 -19 -22 -25 0 -16 32 -10 46 9 26 34 13 42
-24 16z"/>
<path d="M723 2650 c4 -17 -2 -20 -53 -26 l-58 -6 5 -37 c6 -44 -20 -152 -48
-200 -23 -39 -18 -52 11 -26 23 21 48 82 60 150 7 40 9 27 6 -62 -3 -91 -1
-113 10 -113 11 0 14 17 15 68 0 37 4 85 8 107 l7 40 5 -32 c3 -18 1 -34 -5
-36 -13 -4 2 -27 19 -27 10 0 13 16 12 61 l-2 60 -32 -6 c-28 -5 -33 -3 -33
13 0 21 34 32 99 32 l36 0 -28 -26 c-28 -26 -31 -44 -9 -52 7 -2 13 6 13 20 1
17 3 18 6 6 2 -10 11 -18 19 -18 11 0 13 6 9 20 -4 11 -2 20 4 20 15 0 14 27
-1 33 -7 3 -1 6 15 6 41 1 33 21 -9 21 -19 0 -42 7 -50 15 -21 21 -37 19 -31
-5z"/>
<path d="M560 2548 c0 -16 19 -38 33 -38 4 0 7 10 5 22 -3 25 -38 39 -38 16z"/>
<path d="M552 2464 c-12 -8 -22 -19 -22 -25 0 -16 32 -10 46 9 26 34 13 42
-24 16z"/>
<path d="M723 2200 c4 -17 -2 -20 -53 -26 l-58 -6 5 -37 c6 -44 -20 -152 -48
-200 -23 -39 -18 -52 11 -26 23 21 48 82 60 150 7 40 9 27 6 -62 -3 -91 -1
-113 10 -113 11 0 14 17 15 68 0 37 4 85 8 107 l7 40 5 -32 c3 -18 1 -34 -5
-36 -13 -4 2 -27 19 -27 10 0 13 16 12 61 l-2 60 -32 -6 c-28 -5 -33 -3 -33
13 0 21 34 32 99 32 l36 0 -28 -26 c-28 -26 -31 -44 -9 -52 7 -2 13 6 13 20 1
17 3 18 6 6 2 -10 11 -18 19 -18 11 0 13 6 9 20 -4 11 -2 20 4 20 15 0 14 27
-1 33 -7 3 -1 6 15 6 41 1 33 21 -9 21 -19 0 -42 7 -50 15 -21 21 -37 19 -31
-5z"/>
<path d="M815 2119 c-4 -6 -4 -13 -1 -16 8 -8 36 5 36 17 0 13 -27 13 -35 -1z"/>
<path d="M560 2098 c0 -16 19 -38 33 -38 4 0 7 10 5 22 -3 25 -38 39 -38 16z"/>
<path d="M552 2014 c-12 -8 -22 -19 -22 -25 0 -16 32 -10 46 9 26 34 13 42
-24 16z"/>
<path d="M723 1750 c4 -17 -2 -20 -53 -26 l-58 -6 5 -37 c6 -44 -20 -152 -48
-200 -23 -39 -18 -52 11 -26 23 21 48 82 60 150 7 40 9 27 6 -62 -3 -91 -1
-113 10 -113 11 0 14 17 15 68 0 37 4 85 8 107 l7 40 5 -32 c3 -18 1 -34 -5
-36 -13 -4 2 -27 19 -27 10 0 13 16 12 61 l-2 60 -32 -6 c-28 -5 -33 -3 -33
13 0 21 34 32 99 32 l36 -1 -24 -20 c-31 -26 -39 -79 -11 -79 16 0 19 5 15 33
l-5 32 11 -27 c7 -20 18 -28 35 -28 13 0 24 5 24 10 0 6 -6 10 -14 10 -17 0
-31 33 -17 38 15 5 14 29 -1 35 -7 3 -1 6 15 6 41 1 33 21 -9 21 -19 0 -42 7
-50 15 -21 21 -37 19 -31 -5z"/>
<path d="M815 1669 c-4 -6 -4 -13 -1 -16 8 -8 36 5 36 17 0 13 -27 13 -35 -1z"/>
<path d="M560 1648 c0 -16 19 -38 33 -38 4 0 7 10 5 22 -3 25 -38 39 -38 16z"/>
<path d="M552 1564 c-12 -8 -22 -19 -22 -25 0 -16 32 -10 46 9 26 34 13 42
-24 16z"/>
<path d="M723 1300 c4 -17 -2 -20 -53 -26 l-58 -6 5 -37 c6 -44 -20 -152 -48
-200 -23 -39 -18 -52 11 -26 23 21 48 82 60 150 7 40 9 27 6 -62 -3 -91 -1
-113 10 -113 11 0 14 17 15 68 0 37 4 85 8 107 l7 40 5 -32 c3 -18 1 -34 -5
-36 -13 -4 2 -27 19 -27 10 0 13 16 12 61 l-2 60 -32 -6 c-28 -5 -33 -3 -33
13 0 21 34 32 99 32 l36 -1 -24 -20 c-13 -10 -25 -33 -27 -49 -3 -24 0 -30 16
-30 11 0 20 -4 20 -10 0 -5 5 -10 10 -10 6 0 10 7 10 15 0 8 9 15 20 15 11 0
20 5 20 10 0 6 -6 10 -14 10 -17 0 -31 33 -17 38 15 5 14 29 -1 35 -7 3 -1 6
15 6 41 1 33 21 -9 21 -19 0 -42 7 -50 15 -21 21 -37 19 -31 -5z m50 -100 c3
-11 1 -20 -4 -20 -5 0 -9 9 -9 20 0 11 2 20 4 20 2 0 6 -9 9 -20z"/>
<path d="M815 1219 c-4 -6 -4 -13 -1 -16 8 -8 36 5 36 17 0 13 -27 13 -35 -1z"/>
<path d="M560 1198 c0 -16 19 -38 33 -38 4 0 7 10 5 22 -3 25 -38 39 -38 16z"/>
<path d="M552 1114 c-12 -8 -22 -19 -22 -25 0 -16 32 -10 46 9 26 34 13 42
-24 16z"/>
<path d="M723 850 c4 -17 -2 -20 -53 -26 l-58 -6 5 -37 c6 -44 -20 -152 -48
-200 -23 -39 -18 -52 11 -26 23 21 48 82 60 150 7 40 9 27 6 -62 -3 -91 -1
-113 10 -113 11 0 14 17 15 68 0 37 4 85 8 107 l7 40 5 -32 c3 -18 1 -34 -5
-36 -14 -5 2 -27 20 -27 8 0 14 6 14 14 0 10 19 16 60 21 61 7 82 24 33 26
-24 2 -25 2 -5 6 24 5 31 23 8 23 -17 0 -31 33 -17 38 15 5 14 29 -1 35 -7 3
-1 6 15 6 41 1 33 21 -9 21 -19 0 -42 7 -50 15 -21 21 -37 19 -31 -5z m38 -61
c-13 -10 -25 -32 -27 -49 -3 -23 1 -30 19 -33 15 -3 11 -5 -12 -6 -33 -1 -33
-1 -26 35 l6 36 -35 -6 c-31 -6 -36 -4 -36 13 0 22 18 28 90 29 l45 1 -24 -20z
m12 -39 c3 -11 1 -20 -4 -20 -5 0 -9 9 -9 20 0 11 2 20 4 20 2 0 6 -9 9 -20z"/>
<path d="M815 769 c-4 -6 -4 -13 -1 -16 8 -8 36 5 36 17 0 13 -27 13 -35 -1z"/>
<path d="M560 748 c0 -16 19 -38 33 -38 4 0 7 10 5 22 -3 25 -38 39 -38 16z"/>
<path d="M552 664 c-12 -8 -22 -19 -22 -25 0 -16 32 -10 46 9 26 34 13 42 -24
16z"/>
<path d="M723 400 c4 -17 -2 -20 -53 -26 l-58 -6 5 -37 c6 -44 -20 -152 -48
-200 -23 -39 -18 -52 11 -26 23 21 48 82 60 150 7 40 9 27 6 -62 -3 -91 -1
-113 10 -113 11 0 14 17 15 68 0 37 4 85 8 107 l7 40 5 -32 c3 -18 1 -34 -5
-36 -14 -5 2 -27 20 -27 8 0 14 7 14 15 0 8 9 15 20 15 11 0 20 -4 20 -10 0
-5 9 -10 20 -10 22 0 27 15 8 23 -8 3 -6 6 5 6 13 1 17 -7 17 -34 0 -41 12
-45 28 -11 16 36 5 66 -27 67 -23 2 -24 2 -3 6 24 5 31 23 8 23 -17 0 -31 33
-17 38 15 5 14 29 -1 35 -7 3 -1 6 15 6 41 1 33 21 -9 21 -19 0 -42 7 -50 15
-21 21 -37 19 -31 -5z m38 -61 c-13 -10 -25 -32 -27 -49 -3 -23 1 -30 19 -33
15 -3 11 -5 -12 -6 -33 -1 -33 -1 -26 35 l6 36 -35 -6 c-31 -6 -36 -4 -36 13
0 22 18 28 90 29 l45 1 -24 -20z m12 -39 c3 -11 1 -20 -4 -20 -5 0 -9 9 -9 20
0 11 2 20 4 20 2 0 6 -9 9 -20z"/>
<path d="M815 319 c-4 -6 -4 -13 -1 -16 8 -8 36 5 36 17 0 13 -27 13 -35 -1z"/>
<path d="M560 298 c0 -16 19 -38 33 -38 4 0 7 10 5 22 -3 25 -38 39 -38 16z"/>
<path d="M552 214 c-12 -8 -22 -19 -22 -25 0 -16 32 -10 46 9 26 34 13 42 -24
16z"/>
</g>
</svg>
