<?xml version="1.0" standalone="no"?>
<!DOCTYPE svg PUBLIC "-//W3C//DTD SVG 20010904//EN"
 "http://www.w3.org/TR/2001/REC-SVG-20010904/DTD/svg10.dtd">
<svg version="1.0" xmlns="http://www.w3.org/2000/svg"
 width="50.000000pt" height="725.000000pt" viewBox="0 0 50.000000 725.000000"
 preserveAspectRatio="xMidYMid meet">
<metadata>
Created by potrace 1.16, written by Peter Selinger 2001-2019
</metadata>
<g transform="translate(0.000000,725.000000) scale(0.100000,-0.100000)"
fill="#000000" stroke="none">
<path d="M140 7136 c0 -8 -11 -28 -25 -44 -23 -27 -34 -62 -19 -62 3 0 30 7
60 16 61 18 73 36 17 27 l-37 -6 23 31 c12 18 19 36 16 42 -9 15 -35 12 -35
-4z"/>
<path d="M140 6686 c0 -8 -11 -28 -25 -44 -24 -29 -33 -62 -17 -62 4 0 28 7
53 14 34 11 50 11 58 3 18 -18 26 3 11 30 -19 34 -45 44 -35 14 5 -18 2 -21
-20 -21 l-26 0 21 30 c12 16 18 34 15 40 -9 15 -35 12 -35 -4z"/>
<path d="M140 6236 c0 -8 -11 -28 -25 -44 -29 -34 -32 -59 -9 -64 14 -3 13 -7
-6 -31 -12 -15 -19 -31 -15 -35 8 -9 65 54 65 72 0 17 45 27 59 13 19 -19 26
3 11 30 -19 34 -45 44 -35 14 5 -18 2 -21 -20 -21 l-26 0 21 30 c12 16 18 34
15 40 -9 15 -35 12 -35 -4z"/>
<path d="M140 5786 c0 -8 -11 -28 -25 -44 -29 -34 -32 -59 -9 -64 14 -3 13 -7
-6 -31 -12 -15 -19 -31 -15 -35 9 -9 65 54 65 73 0 8 5 15 10 15 6 0 10 -13
10 -30 0 -27 3 -30 30 -30 17 0 30 5 30 10 0 6 -9 10 -20 10 -15 0 -20 7 -20
26 0 23 2 25 15 14 23 -19 32 -3 15 27 -19 34 -45 44 -35 14 5 -18 2 -21 -20
-21 l-26 0 21 30 c12 16 18 34 15 40 -9 15 -35 12 -35 -4z"/>
<path d="M140 5336 c0 -8 -11 -28 -25 -44 -29 -34 -32 -59 -9 -64 14 -3 13 -7
-6 -31 -12 -15 -19 -31 -15 -35 9 -9 65 54 65 73 0 8 5 15 10 15 6 0 10 -13
10 -30 0 -27 3 -30 30 -30 17 0 30 5 30 10 0 6 -9 10 -20 10 -15 0 -20 7 -20
26 0 23 2 25 15 14 23 -19 32 -3 15 27 -19 34 -45 44 -35 14 5 -18 2 -21 -20
-21 l-26 0 21 30 c12 16 18 34 15 40 -9 15 -35 12 -35 -4z"/>
<path d="M117 5153 c-15 -25 -25 -48 -21 -52 8 -8 75 71 71 83 -7 23 -24 12
-50 -31z"/>
<path d="M140 4886 c0 -8 -11 -28 -25 -44 -29 -34 -32 -59 -9 -64 14 -3 13 -7
-6 -31 -12 -15 -19 -31 -15 -35 9 -9 65 54 65 73 0 8 5 15 10 15 6 0 10 -13
10 -30 0 -27 3 -30 30 -30 17 0 30 5 30 10 0 6 -9 10 -20 10 -15 0 -20 7 -20
26 0 23 2 25 15 14 23 -19 32 -3 15 27 -19 34 -45 44 -35 14 5 -18 2 -21 -20
-21 l-26 0 21 30 c12 16 18 34 15 40 -9 15 -35 12 -35 -4z"/>
<path d="M117 4703 c-31 -51 -27 -72 7 -32 12 14 30 28 40 32 18 7 18 6 1 -20
-10 -16 -29 -40 -43 -55 -14 -15 -23 -30 -20 -34 11 -10 54 25 87 71 33 46 34
65 1 65 -10 0 -22 5 -25 10 -11 17 -19 11 -48 -37z"/>
<path d="M140 4436 c0 -8 -11 -28 -25 -44 -29 -34 -32 -59 -9 -64 14 -3 13 -7
-6 -31 -12 -15 -19 -31 -15 -35 9 -9 65 54 65 73 0 8 5 15 10 15 6 0 10 -13
10 -30 0 -27 3 -30 30 -30 17 0 30 5 30 10 0 6 -9 10 -20 10 -15 0 -20 7 -20
26 0 23 2 25 15 14 23 -19 32 -3 15 27 -19 34 -45 44 -35 14 5 -18 2 -21 -20
-21 l-26 0 21 30 c12 16 18 34 15 40 -9 15 -35 12 -35 -4z"/>
<path d="M140 4290 c0 -5 -9 -19 -19 -29 -23 -23 -37 -61 -22 -61 5 0 13 5 17
11 4 8 9 8 17 0 8 -8 4 -18 -13 -36 -31 -33 -19 -43 19 -16 18 13 36 18 47 14
14 -5 16 -2 11 19 -4 15 -1 33 9 46 17 25 11 42 -16 42 -10 0 -22 5 -25 10 -3
6 -10 10 -16 10 -5 0 -9 -4 -9 -10z m34 -45 c-4 -8 -12 -15 -20 -15 -20 0 -17
18 4 23 9 3 18 5 19 6 1 0 0 -6 -3 -14z"/>
<path d="M140 3986 c0 -8 -11 -28 -25 -44 -29 -34 -32 -59 -9 -64 14 -3 13 -7
-6 -31 -12 -15 -19 -31 -15 -35 9 -9 65 54 65 73 0 8 5 15 10 15 6 0 10 -13
10 -30 0 -27 3 -30 30 -30 17 0 30 5 30 10 0 6 -9 10 -20 10 -15 0 -20 7 -20
26 0 23 2 25 15 14 23 -19 32 -3 15 27 -19 34 -45 44 -35 14 5 -18 2 -21 -20
-21 l-26 0 21 30 c12 16 18 34 15 40 -9 15 -35 12 -35 -4z"/>
<path d="M238 3848 c-7 -76 -27 -128 -41 -103 -6 11 -3 24 8 41 18 27 13 44
-14 44 -9 0 -23 6 -30 13 -11 10 -14 9 -19 -2 -2 -7 -12 -21 -22 -31 -21 -21
-35 -60 -23 -60 5 0 14 5 20 11 23 23 25 -13 2 -37 -31 -33 -17 -41 22 -13 31
21 32 22 45 4 13 -18 14 -18 33 0 25 22 39 65 43 134 4 79 -18 78 -24 -1z
m-64 -53 c-4 -8 -12 -15 -20 -15 -20 0 -17 18 4 23 9 3 18 5 19 6 1 0 0 -6 -3
-14z"/>
<path d="M140 3536 c0 -8 -11 -28 -25 -44 -29 -34 -32 -59 -9 -64 14 -3 13 -7
-6 -31 -12 -15 -19 -31 -15 -35 9 -9 65 54 65 73 0 8 5 15 10 15 6 0 10 -13
10 -30 0 -27 3 -30 30 -30 17 0 30 5 30 10 0 6 -9 10 -20 10 -14 0 -20 7 -20
24 0 22 2 23 26 13 24 -11 25 -16 21 -62 -3 -27 -11 -63 -18 -78 -11 -24 -14
-25 -22 -12 -6 11 -3 24 8 41 18 27 13 44 -14 44 -9 0 -23 6 -30 13 -11 10
-14 9 -19 -2 -2 -7 -12 -21 -22 -31 -21 -21 -35 -60 -23 -60 5 0 14 5 20 11
23 23 25 -13 2 -37 -31 -33 -17 -41 22 -13 30 21 32 22 45 4 11 -15 16 -16 29
-5 26 22 37 49 45 117 5 36 10 66 12 68 1 2 20 6 41 10 30 6 37 4 37 -9 0 -19
5 -20 31 -6 24 14 24 26 0 40 -14 7 -38 6 -83 -5 l-63 -15 -18 25 c-22 30 -41
33 -32 5 5 -17 2 -20 -20 -20 l-26 0 21 30 c12 16 18 34 15 40 -9 15 -35 12
-35 -4z m34 -191 c-4 -8 -12 -15 -20 -15 -20 0 -17 18 4 23 9 3 18 5 19 6 1 0
0 -6 -3 -14z"/>
<path d="M287 3066 c5 -41 4 -44 -23 -49 -23 -5 -33 -1 -47 19 -22 29 -41 32
-32 4 5 -17 2 -20 -20 -20 l-26 0 21 30 c12 16 18 34 15 40 -9 15 -35 12 -35
-4 0 -8 -11 -28 -25 -44 -29 -34 -32 -59 -9 -64 14 -3 13 -7 -6 -31 -12 -15
-19 -31 -15 -35 9 -9 65 54 65 73 0 8 5 15 10 15 6 0 10 -13 10 -30 0 -27 3
-30 30 -30 17 0 30 5 30 10 0 6 -9 10 -20 10 -14 0 -20 7 -20 24 0 22 2 23 26
13 24 -11 25 -16 21 -62 -3 -27 -11 -63 -18 -78 -11 -24 -14 -25 -22 -12 -6
11 -3 24 8 41 18 27 13 44 -14 44 -9 0 -23 6 -30 13 -11 10 -14 9 -19 -2 -2
-7 -12 -21 -22 -31 -21 -21 -35 -60 -23 -60 5 0 14 5 20 11 23 23 25 -13 2
-37 -31 -33 -17 -41 22 -13 30 21 32 22 45 4 12 -16 16 -16 30 -4 23 19 44 72
44 111 0 42 10 78 21 78 5 0 9 -16 9 -35 0 -24 5 -35 15 -35 11 0 15 11 15 40
0 29 4 40 15 40 8 0 15 -7 15 -15 0 -8 4 -15 8 -15 5 0 17 7 28 15 19 15 19
15 -1 30 -12 10 -29 14 -44 10 -22 -6 -23 -4 -17 28 5 27 3 36 -10 41 -28 11
-32 7 -27 -38z m-113 -171 c-4 -8 -12 -15 -20 -15 -20 0 -17 18 4 23 9 3 18 5
19 6 1 0 0 -6 -3 -14z"/>
<path d="M287 2616 c5 -41 4 -44 -23 -49 -23 -5 -33 -1 -47 19 -22 29 -41 32
-32 4 5 -17 2 -20 -20 -20 l-26 0 21 30 c12 16 18 34 15 40 -9 15 -35 12 -35
-4 0 -8 -11 -28 -25 -44 -29 -34 -32 -59 -9 -64 14 -3 13 -7 -6 -31 -12 -15
-19 -31 -15 -35 9 -9 65 54 65 73 0 8 5 15 10 15 6 0 10 -13 10 -30 0 -27 3
-30 30 -30 17 0 30 5 30 10 0 6 -9 10 -20 10 -14 0 -20 7 -20 24 0 22 2 23 26
13 24 -11 25 -16 21 -62 -3 -27 -11 -63 -18 -78 -11 -24 -14 -25 -22 -12 -6
11 -3 24 8 41 18 27 13 44 -14 44 -9 0 -23 6 -30 13 -11 10 -14 9 -19 -2 -2
-7 -12 -21 -22 -31 -21 -21 -35 -60 -23 -60 5 0 14 5 20 11 23 23 25 -13 2
-37 -31 -33 -17 -41 22 -13 31 21 32 22 45 4 13 -18 14 -18 34 0 11 10 25 35
32 56 8 30 17 39 40 44 16 4 32 4 35 1 12 -12 -17 -56 -52 -78 -39 -26 -46
-43 -12 -32 40 13 66 35 92 81 28 50 25 67 -11 60 -21 -4 -24 -1 -24 29 0 24
5 34 15 34 8 0 15 -7 15 -15 0 -8 4 -15 8 -15 5 0 17 7 28 15 19 15 19 15 -1
30 -12 10 -29 14 -44 10 -22 -6 -23 -4 -17 28 5 27 3 36 -10 41 -28 11 -32 7
-27 -38z m3 -95 c0 -31 -14 -49 -25 -32 -8 13 5 61 16 61 5 0 9 -13 9 -29z
m-116 -76 c-4 -8 -12 -15 -20 -15 -20 0 -17 18 4 23 9 3 18 5 19 6 1 0 0 -6
-3 -14z"/>
<path d="M287 2166 c5 -41 4 -44 -23 -49 -23 -5 -33 -1 -47 19 -22 29 -41 32
-32 4 5 -17 2 -20 -20 -20 l-26 0 21 30 c12 16 18 34 15 40 -9 15 -35 12 -35
-4 0 -8 -11 -28 -25 -44 -29 -34 -32 -59 -9 -64 14 -3 13 -7 -6 -31 -12 -15
-19 -31 -15 -35 9 -9 65 54 65 73 0 8 5 15 10 15 6 0 10 -13 10 -30 0 -27 3
-30 30 -30 17 0 30 5 30 10 0 6 -9 10 -20 10 -14 0 -20 7 -20 24 0 22 2 23 26
13 24 -11 25 -16 21 -62 -3 -27 -11 -63 -18 -78 -11 -24 -14 -25 -22 -12 -6
11 -3 24 8 41 18 27 13 44 -14 44 -9 0 -23 6 -30 13 -11 10 -14 9 -19 -2 -2
-7 -12 -21 -22 -31 -21 -21 -35 -60 -23 -60 5 0 14 5 20 11 23 23 25 -13 2
-37 -31 -33 -17 -41 22 -13 31 21 32 22 45 4 13 -18 14 -18 33 0 11 9 25 33
32 52 l11 35 22 -21 c21 -22 21 -22 1 -37 -11 -9 -27 -19 -35 -24 -30 -17 0
-21 35 -4 35 16 36 16 56 -5 21 -22 30 -24 67 -15 32 9 27 17 -23 37 -25 11
-45 22 -45 25 0 4 9 22 20 40 24 38 18 56 -16 49 -21 -4 -24 -1 -24 29 0 24 5
34 15 34 8 0 15 -7 15 -15 0 -8 4 -15 8 -15 5 0 17 7 28 15 19 15 19 15 -1 30
-12 10 -29 14 -44 10 -22 -6 -23 -4 -17 28 5 27 3 36 -10 41 -28 11 -32 7 -27
-38z m3 -95 c0 -31 -14 -49 -25 -32 -8 13 5 61 16 61 5 0 9 -13 9 -29z m40
-64 c0 -21 -12 -28 -27 -16 -19 16 -16 29 7 29 11 0 20 -6 20 -13z m-156 -12
c-4 -8 -12 -15 -20 -15 -20 0 -17 18 4 23 9 3 18 5 19 6 1 0 0 -6 -3 -14z"/>
</g>
</svg>
