<?xml version="1.0" standalone="no"?>
<!DOCTYPE svg PUBLIC "-//W3C//DTD SVG 20010904//EN"
 "http://www.w3.org/TR/2001/REC-SVG-20010904/DTD/svg10.dtd">
<svg version="1.0" xmlns="http://www.w3.org/2000/svg"
 width="50.000000pt" height="725.000000pt" viewBox="0 0 50.000000 725.000000"
 preserveAspectRatio="xMidYMid meet">
<metadata>
Created by potrace 1.16, written by Peter Selinger 2001-2019
</metadata>
<g transform="translate(0.000000,725.000000) scale(0.100000,-0.100000)"
fill="#000000" stroke="none">
<path d="M218 7107 c-92 -14 -88 -31 5 -22 85 8 107 13 107 26 0 10 -19 10
-112 -4z"/>
<path d="M216 6656 l-69 -11 -2 -46 c-1 -26 -10 -61 -19 -79 -18 -38 -20 -50
-6 -50 14 0 38 52 51 108 9 44 14 50 41 56 17 3 43 6 58 6 34 0 60 9 60 21 0
11 -23 10 -114 -5z"/>
<path d="M216 6206 l-69 -11 -2 -46 c-1 -26 -10 -61 -19 -79 -19 -39 -20 -50
-5 -50 6 0 20 23 32 50 11 28 27 50 34 50 7 0 13 5 13 10 0 6 -6 10 -14 10 -9
0 -12 7 -9 19 5 19 40 31 93 31 34 0 60 9 60 21 0 11 -23 10 -114 -5z"/>
<path d="M213 6129 c7 -27 -1 -49 -19 -49 -16 0 -18 -9 -5 -29 15 -23 39 -5
51 39 12 44 7 60 -17 60 -11 0 -14 -6 -10 -21z"/>
<path d="M246 5791 c7 -31 3 -33 -85 -44 -10 -1 -15 -17 -16 -48 -1 -26 -10
-61 -19 -79 -19 -39 -20 -50 -5 -50 6 0 20 23 32 50 11 28 27 50 34 50 7 0 13
5 13 10 0 6 -6 10 -14 10 -9 0 -12 7 -9 19 3 12 17 21 40 26 19 3 36 5 38 3 1
-2 10 -26 19 -55 19 -57 72 -113 108 -113 16 0 19 4 14 23 -3 12 -6 28 -6 35
0 6 -4 12 -10 12 -5 0 -10 -8 -10 -17 0 -26 -55 33 -74 78 -15 36 -15 37 9 43
32 8 32 26 0 26 -20 0 -25 5 -25 25 0 18 -5 25 -20 25 -16 0 -19 -5 -14 -29z"/>
<path d="M213 5679 c7 -27 -1 -49 -19 -49 -16 0 -18 -9 -5 -29 15 -23 39 -5
51 39 12 44 7 60 -17 60 -11 0 -14 -6 -10 -21z"/>
<path d="M246 5341 c7 -31 3 -33 -85 -44 -10 -1 -15 -17 -16 -48 -1 -26 -10
-61 -19 -79 -19 -39 -20 -50 -5 -50 6 0 20 23 32 50 11 28 27 50 34 50 7 0 13
5 13 10 0 6 -6 10 -14 10 -9 0 -12 7 -9 19 3 12 17 21 40 26 19 3 36 5 38 3 1
-2 10 -26 19 -55 19 -57 72 -113 108 -113 16 0 19 4 14 23 -3 12 -6 28 -6 35
0 6 -4 12 -10 12 -5 0 -10 -8 -10 -17 0 -26 -55 33 -74 78 -15 36 -15 37 9 43
32 8 32 26 0 26 -20 0 -25 5 -25 25 0 18 -5 25 -20 25 -16 0 -19 -5 -14 -29z"/>
<path d="M302 5348 c3 -7 15 -15 27 -16 16 -3 22 1 19 10 -3 7 -15 15 -27 16
-16 3 -22 -1 -19 -10z"/>
<path d="M213 5229 c7 -27 -1 -49 -19 -49 -16 0 -18 -9 -5 -29 15 -23 39 -5
51 39 12 44 7 60 -17 60 -11 0 -14 -6 -10 -21z"/>
<path d="M246 4891 c7 -31 3 -33 -85 -44 -10 -1 -15 -17 -16 -48 -1 -26 -10
-61 -19 -79 -19 -39 -20 -50 -5 -50 6 0 20 23 32 50 11 28 27 50 34 50 7 0 13
5 13 10 0 6 -6 10 -14 10 -9 0 -12 7 -9 19 3 12 17 21 40 26 19 3 36 5 38 3 1
-2 9 -24 18 -49 14 -45 14 -47 -6 -68 -26 -26 -15 -39 16 -19 21 15 25 14 50
-8 37 -32 72 -33 63 -1 -3 12 -6 28 -6 35 0 6 -4 12 -10 12 -5 0 -10 -7 -10
-17 0 -15 -2 -14 -20 2 -18 16 -18 19 -4 47 11 20 12 34 6 40 -13 13 -32 2
-32 -18 0 -24 -18 -15 -28 15 -9 26 -8 30 14 35 32 8 31 26 -1 26 -20 0 -25 5
-25 25 0 18 -5 25 -20 25 -16 0 -19 -5 -14 -29z"/>
<path d="M302 4898 c3 -7 15 -15 27 -16 16 -3 22 1 19 10 -3 7 -15 15 -27 16
-16 3 -22 -1 -19 -10z"/>
<path d="M213 4779 c7 -27 -1 -49 -19 -49 -16 0 -18 -9 -5 -29 15 -23 39 -5
51 39 12 44 7 60 -17 60 -11 0 -14 -6 -10 -21z"/>
<path d="M246 4441 c7 -31 3 -33 -85 -44 -10 -1 -15 -17 -16 -48 -1 -26 -10
-61 -19 -79 -19 -39 -20 -50 -5 -50 6 0 20 23 32 50 11 28 27 50 34 50 7 0 13
5 13 10 0 6 -6 10 -14 10 -9 0 -12 7 -9 19 3 12 17 21 40 26 19 3 36 5 38 3 1
-2 9 -24 18 -49 14 -45 14 -47 -6 -68 -26 -26 -15 -39 16 -19 21 15 25 14 50
-8 37 -32 72 -33 63 -1 -3 12 -6 28 -6 35 0 6 -4 12 -10 12 -5 0 -10 -7 -10
-17 0 -15 -2 -14 -20 2 -18 16 -18 19 -4 47 11 20 12 34 6 40 -13 13 -32 2
-32 -18 0 -24 -18 -15 -28 15 -9 26 -8 30 14 35 32 8 31 26 -1 26 -20 0 -25 5
-25 25 0 18 -5 25 -20 25 -16 0 -19 -5 -14 -29z"/>
<path d="M302 4448 c3 -7 15 -15 27 -16 16 -3 22 1 19 10 -3 7 -15 15 -27 16
-16 3 -22 -1 -19 -10z"/>
<path d="M213 4329 c7 -27 -1 -49 -19 -49 -16 0 -18 -9 -5 -29 15 -23 39 -5
51 39 12 44 7 60 -17 60 -11 0 -14 -6 -10 -21z"/>
<path d="M145 4204 c4 -11 10 -29 12 -41 8 -37 24 -26 21 14 -2 28 -8 39 -22
41 -15 3 -17 0 -11 -14z"/>
<path d="M246 3991 c7 -31 3 -33 -85 -44 -10 -1 -15 -17 -16 -48 -1 -26 -10
-61 -19 -79 -19 -39 -20 -50 -5 -50 6 0 20 23 32 50 11 28 27 50 34 50 7 0 13
5 13 10 0 6 -6 10 -14 10 -9 0 -12 7 -9 19 3 12 17 21 40 26 19 3 36 5 38 3 1
-2 9 -24 18 -49 14 -45 14 -47 -6 -68 -27 -26 -15 -39 17 -18 20 14 26 14 35
3 13 -16 -13 -26 -66 -26 -18 0 -33 -4 -33 -10 0 -5 20 -10 45 -10 45 0 45 0
45 -35 0 -46 13 -44 35 5 12 27 24 40 38 40 15 0 18 5 13 23 -3 12 -6 28 -6
35 0 6 -4 12 -10 12 -5 0 -10 -7 -10 -17 0 -15 -2 -14 -20 2 -18 16 -18 19 -4
47 11 20 12 34 6 40 -13 13 -32 2 -32 -18 0 -24 -18 -15 -28 15 -9 26 -8 30
14 35 32 8 31 26 -1 26 -20 0 -25 5 -25 25 0 18 -5 25 -20 25 -16 0 -19 -5
-14 -29z"/>
<path d="M302 3998 c3 -7 15 -15 27 -16 16 -3 22 1 19 10 -3 7 -15 15 -27 16
-16 3 -22 -1 -19 -10z"/>
<path d="M213 3879 c7 -27 -1 -49 -19 -49 -16 0 -18 -9 -5 -29 15 -23 39 -5
51 39 12 44 7 60 -17 60 -11 0 -14 -6 -10 -21z"/>
<path d="M145 3753 c4 -10 10 -28 12 -40 8 -33 23 -28 23 7 0 20 5 30 15 30 8
0 15 5 15 10 0 6 -16 10 -36 10 -31 0 -35 -3 -29 -17z"/>
<path d="M246 3541 c7 -31 3 -33 -85 -44 -10 -1 -15 -17 -16 -48 -1 -26 -10
-61 -19 -79 -19 -39 -20 -50 -5 -50 6 0 20 23 32 50 11 28 27 50 34 50 7 0 13
5 13 10 0 6 -6 10 -14 10 -9 0 -12 7 -9 19 3 12 17 21 40 26 19 3 36 5 38 3 1
-2 9 -24 18 -49 14 -45 14 -47 -6 -68 -27 -26 -15 -39 17 -18 20 14 26 14 35
3 14 -17 -3 -22 -107 -32 -62 -6 -72 -9 -66 -23 3 -9 9 -26 11 -38 8 -33 23
-28 23 7 0 35 27 42 32 8 2 -12 9 -24 17 -26 10 -3 12 0 8 12 -11 29 3 46 39
46 32 0 34 -2 34 -35 0 -46 13 -44 35 5 12 27 24 40 38 40 15 0 18 5 13 23 -3
12 -6 28 -6 35 0 6 -4 12 -10 12 -5 0 -10 -7 -10 -17 0 -15 -2 -14 -20 2 -18
16 -18 19 -4 47 11 20 12 34 6 40 -13 13 -32 2 -32 -18 0 -24 -18 -15 -28 15
-9 26 -8 30 14 35 32 8 31 26 -1 26 -20 0 -25 5 -25 25 0 18 -5 25 -20 25 -16
0 -19 -5 -14 -29z"/>
<path d="M302 3548 c3 -7 15 -15 27 -16 16 -3 22 1 19 10 -3 7 -15 15 -27 16
-16 3 -22 -1 -19 -10z"/>
<path d="M213 3429 c7 -27 -1 -49 -19 -49 -16 0 -18 -9 -5 -29 15 -23 39 -5
51 39 12 44 7 60 -17 60 -11 0 -14 -6 -10 -21z"/>
<path d="M246 3091 c7 -31 3 -33 -85 -44 -10 -1 -15 -17 -16 -48 -1 -26 -10
-61 -19 -79 -19 -39 -20 -50 -5 -50 6 0 20 23 32 50 11 28 27 50 34 50 7 0 13
5 13 10 0 6 -6 10 -14 10 -9 0 -12 7 -9 19 3 12 17 21 40 26 19 3 36 5 38 3 1
-2 9 -24 18 -49 14 -45 14 -47 -6 -68 -27 -26 -15 -39 17 -18 20 14 26 14 35
3 14 -17 -3 -22 -107 -32 -62 -6 -72 -9 -66 -23 3 -9 9 -26 11 -38 8 -33 23
-28 23 7 0 35 27 42 32 8 2 -12 9 -24 17 -26 10 -3 12 0 8 12 -7 19 1 46 14
46 5 0 9 -13 9 -30 0 -16 4 -30 9 -30 5 0 11 14 15 30 8 41 26 38 26 -5 0 -46
13 -44 35 5 12 27 24 40 38 40 15 0 18 5 13 23 -3 12 -6 28 -6 35 0 6 -4 12
-10 12 -5 0 -10 -7 -10 -17 0 -15 -2 -14 -20 2 -18 16 -18 19 -4 47 11 20 12
34 6 40 -13 13 -32 2 -32 -18 0 -24 -18 -15 -28 15 -9 26 -8 30 14 35 32 8 31
26 -1 26 -20 0 -25 5 -25 25 0 18 -5 25 -20 25 -16 0 -19 -5 -14 -29z"/>
<path d="M302 3098 c3 -7 15 -15 27 -16 16 -3 22 1 19 10 -3 7 -15 15 -27 16
-16 3 -22 -1 -19 -10z"/>
<path d="M213 2979 c7 -27 -1 -49 -19 -49 -16 0 -18 -9 -5 -29 15 -23 39 -5
51 39 12 44 7 60 -17 60 -11 0 -14 -6 -10 -21z"/>
<path d="M246 2641 c7 -31 3 -33 -85 -44 -10 -1 -15 -17 -16 -48 -1 -26 -10
-61 -19 -79 -19 -39 -20 -50 -5 -50 6 0 20 23 32 50 11 28 27 50 34 50 7 0 13
5 13 10 0 6 -6 10 -14 10 -9 0 -12 7 -9 19 3 12 17 21 40 26 19 3 36 5 38 3 1
-2 9 -24 18 -49 14 -45 14 -47 -6 -68 -27 -26 -15 -39 17 -18 20 14 26 14 35
3 14 -17 -3 -22 -107 -32 -62 -6 -72 -9 -66 -23 3 -9 9 -26 11 -38 5 -20 1
-23 -26 -23 -17 0 -31 -5 -31 -11 0 -9 20 -10 68 -6 37 4 109 7 160 7 70 0 93
3 90 13 -3 6 -21 13 -41 15 -42 4 -41 2 -25 37 6 14 20 25 31 25 15 0 18 5 13
23 -3 12 -6 28 -6 35 0 6 -4 12 -10 12 -5 0 -10 -7 -10 -17 0 -15 -2 -14 -20
2 -18 16 -18 19 -4 47 11 20 12 34 6 40 -13 13 -32 2 -32 -18 0 -24 -18 -15
-28 15 -9 26 -8 30 14 35 32 8 31 26 -1 26 -20 0 -25 5 -25 25 0 18 -5 25 -20
25 -16 0 -19 -5 -14 -29z m14 -261 c0 -16 -4 -30 -9 -30 -13 0 -21 27 -15 45
10 25 24 17 24 -15z m50 6 c0 -13 -7 -26 -15 -30 -16 -6 -20 10 -9 38 9 24 24
19 24 -8z m-98 -11 c4 -19 1 -25 -13 -25 -14 0 -19 7 -19 25 0 15 6 25 14 25
7 0 16 -11 18 -25z"/>
<path d="M302 2648 c3 -7 15 -15 27 -16 16 -3 22 1 19 10 -3 7 -15 15 -27 16
-16 3 -22 -1 -19 -10z"/>
<path d="M213 2529 c7 -27 -1 -49 -19 -49 -16 0 -18 -9 -5 -29 15 -23 39 -5
51 39 12 44 7 60 -17 60 -11 0 -14 -6 -10 -21z"/>
</g>
</svg>
