<?xml version="1.0" standalone="no"?>
<!DOCTYPE svg PUBLIC "-//W3C//DTD SVG 20010904//EN"
 "http://www.w3.org/TR/2001/REC-SVG-20010904/DTD/svg10.dtd">
<svg version="1.0" xmlns="http://www.w3.org/2000/svg"
 width="50.000000pt" height="725.000000pt" viewBox="0 0 50.000000 725.000000"
 preserveAspectRatio="xMidYMid meet">
<metadata>
Created by potrace 1.16, written by Peter Selinger 2001-2019
</metadata>
<g transform="translate(0.000000,725.000000) scale(0.100000,-0.100000)"
fill="#000000" stroke="none">
<path d="M257 7133 c3 -21 8 -40 10 -43 8 -9 23 25 23 53 0 20 -5 27 -19 27
-17 0 -19 -5 -14 -37z"/>
<path d="M257 6683 c7 -47 10 -50 26 -31 6 9 24 18 40 22 38 9 35 30 -3 23
-22 -5 -30 -3 -30 8 0 8 -9 15 -19 15 -17 0 -19 -5 -14 -37z"/>
<path d="M254 6233 l1 -38 -47 -3 c-27 -2 -48 -8 -48 -14 0 -11 145 -3 177 9
12 5 14 1 8 -15 -7 -25 -5 -26 30 -10 52 24 10 58 -55 44 -17 -3 -30 -2 -30 3
0 5 14 11 30 15 17 3 30 11 30 17 0 7 -11 9 -30 6 -22 -5 -30 -3 -30 8 0 8 -8
15 -19 15 -15 0 -18 -7 -17 -37z"/>
<path d="M254 5783 l1 -38 -45 -3 -45 -3 -1 -63 c-1 -49 -8 -76 -32 -126 -35
-70 -33 -91 4 -45 28 35 51 99 60 167 l7 47 56 6 c31 4 64 9 74 12 16 4 18 1
12 -16 -7 -24 -5 -25 30 -9 52 24 10 58 -55 44 -17 -3 -30 -2 -30 3 0 5 14 11
30 15 17 3 30 11 30 17 0 7 -11 9 -30 6 -22 -5 -30 -3 -30 8 0 8 -8 15 -19 15
-15 0 -18 -7 -17 -37z"/>
<path d="M254 5333 l1 -38 -45 -3 -45 -3 -1 -63 c-1 -49 -8 -76 -32 -126 -35
-70 -33 -91 4 -45 28 35 51 99 60 167 l7 47 56 6 c31 4 64 9 74 12 16 4 18 1
12 -16 -7 -24 -5 -25 30 -9 52 24 10 58 -55 44 -17 -3 -30 -2 -30 3 0 5 14 11
30 15 17 3 30 11 30 17 0 7 -11 9 -30 6 -22 -5 -30 -3 -30 8 0 8 -8 15 -19 15
-15 0 -18 -7 -17 -37z"/>
<path d="M248 5258 c-21 -6 -38 -15 -38 -20 0 -6 14 -8 38 -4 55 10 72 16 72
27 0 11 -23 10 -72 -3z"/>
<path d="M254 4883 l1 -38 -45 -3 -45 -3 -1 -63 c-1 -49 -8 -76 -32 -126 -35
-70 -33 -91 4 -45 28 35 51 99 60 168 6 41 10 47 31 47 14 0 21 -4 18 -10 -3
-5 -13 -10 -21 -10 -8 0 -14 -4 -14 -10 0 -5 9 -10 20 -10 11 0 20 -4 20 -10
0 -5 23 -10 51 -10 36 0 49 4 46 13 -2 7 -19 11 -43 10 -37 -2 -38 -2 -11 8
34 13 36 33 2 27 -14 -3 -25 -1 -25 3 0 5 11 9 24 9 13 0 32 3 41 7 14 5 16 2
10 -15 -7 -25 -5 -26 30 -10 52 24 10 58 -55 44 -17 -3 -30 -2 -30 3 0 5 14
11 30 15 17 3 30 11 30 17 0 7 -11 9 -30 6 -22 -5 -30 -3 -30 8 0 8 -8 15 -19
15 -15 0 -18 -7 -17 -37z"/>
<path d="M254 4433 l1 -38 -45 -3 -45 -3 -1 -63 c-1 -49 -8 -76 -32 -126 -35
-70 -33 -91 4 -45 28 35 51 99 60 168 6 41 10 47 31 47 14 0 21 -4 18 -10 -3
-5 -13 -10 -21 -10 -8 0 -14 -4 -14 -10 0 -5 9 -10 20 -10 11 0 20 -4 20 -10
0 -5 23 -10 51 -10 36 0 49 4 46 13 -2 7 -19 11 -43 10 -37 -2 -38 -2 -11 8
34 13 36 33 2 27 -14 -3 -25 -1 -25 3 0 5 11 9 24 9 13 0 32 3 41 7 14 5 16 2
10 -15 -7 -25 -5 -26 30 -10 52 24 10 58 -55 44 -17 -3 -30 -2 -30 3 0 5 14
11 30 15 17 3 30 11 30 17 0 7 -11 9 -30 6 -22 -5 -30 -3 -30 8 0 8 -8 15 -19
15 -15 0 -18 -7 -17 -37z"/>
<path d="M214 4268 c3 -13 6 -33 6 -45 0 -13 5 -23 10 -23 6 0 10 20 10 45 0
35 -4 45 -16 45 -12 0 -15 -6 -10 -22z"/>
<path d="M254 3983 l1 -38 -45 -3 -45 -3 -1 -63 c-1 -49 -8 -76 -32 -126 -35
-70 -33 -91 4 -45 28 35 51 99 60 168 6 41 10 47 31 47 14 0 21 -4 18 -10 -3
-5 -13 -10 -21 -10 -8 0 -14 -4 -14 -10 0 -5 9 -10 20 -10 11 0 20 -4 20 -10
0 -5 17 -11 38 -11 30 -2 32 -3 10 -6 -37 -6 -36 -23 2 -23 28 0 30 -3 30 -35
0 -19 4 -35 8 -35 13 0 35 82 25 89 -5 3 -12 14 -16 24 -5 14 -14 17 -44 12
-35 -5 -36 -4 -10 6 34 13 36 33 2 27 -14 -3 -25 -1 -25 3 0 5 11 9 24 9 13 0
32 3 41 7 14 5 16 2 10 -15 -7 -25 -5 -26 30 -10 52 24 10 58 -55 44 -17 -3
-30 -2 -30 3 0 5 14 11 30 15 17 3 30 11 30 17 0 7 -11 9 -30 6 -22 -5 -30 -3
-30 8 0 8 -8 15 -19 15 -15 0 -18 -7 -17 -37z"/>
<path d="M216 3798 c4 -24 8 -45 10 -47 7 -8 11 4 17 47 4 37 3 42 -14 42 -17
0 -18 -5 -13 -42z"/>
<path d="M254 3533 l1 -38 -45 -3 -45 -3 -1 -63 c-1 -49 -8 -76 -32 -126 -35
-70 -33 -91 4 -45 28 35 51 99 60 168 6 41 10 47 31 47 14 0 21 -4 18 -10 -3
-5 -13 -10 -21 -10 -8 0 -14 -4 -14 -10 0 -5 9 -10 20 -10 11 0 20 -4 20 -10
0 -5 17 -11 38 -11 30 -2 32 -3 10 -6 -39 -6 -35 -23 5 -24 30 -2 30 -2 5 -6
-35 -5 -37 -23 -3 -23 18 0 25 -5 25 -20 0 -34 16 -22 29 21 7 24 9 44 4 48
-5 3 -12 14 -16 24 -5 14 -14 17 -44 12 -35 -5 -36 -4 -10 6 34 13 36 33 2 27
-14 -3 -25 -1 -25 3 0 5 11 9 24 9 13 0 32 3 41 7 14 5 16 2 10 -15 -7 -25 -5
-26 30 -10 52 24 10 58 -55 44 -17 -3 -30 -2 -30 3 0 5 14 11 30 15 17 3 30
11 30 17 0 7 -11 9 -30 6 -22 -5 -30 -3 -30 8 0 8 -8 15 -19 15 -15 0 -18 -7
-17 -37z"/>
<path d="M214 3368 c3 -13 6 -33 6 -45 0 -13 5 -23 10 -23 6 0 10 9 10 20 0
11 7 20 15 20 8 0 15 5 15 10 0 6 -7 10 -15 10 -9 0 -12 6 -9 15 4 11 0 15
-16 15 -18 0 -21 -4 -16 -22z"/>
<path d="M254 3083 l1 -38 -45 -3 -45 -3 -1 -63 c-1 -49 -8 -76 -32 -126 -35
-70 -33 -91 4 -45 28 35 51 99 60 168 6 41 10 47 31 47 14 0 21 -4 18 -10 -3
-5 -13 -10 -21 -10 -8 0 -14 -4 -14 -10 0 -5 9 -10 20 -10 11 0 20 -4 20 -10
0 -5 17 -11 38 -11 30 -2 32 -3 10 -6 -20 -3 -28 -10 -28 -24 0 -10 -7 -19
-15 -19 -9 0 -12 6 -9 15 4 11 0 15 -16 15 -18 0 -21 -4 -16 -22 3 -13 6 -33
6 -45 0 -13 5 -23 10 -23 6 0 10 9 10 20 0 22 25 28 34 8 3 -10 9 -8 19 5 19
23 37 22 37 -3 0 -34 16 -22 29 21 7 24 9 44 4 48 -5 3 -12 14 -16 24 -5 14
-14 17 -44 12 -35 -5 -36 -4 -10 6 34 13 36 33 2 27 -14 -3 -25 -1 -25 3 0 5
11 9 24 9 13 0 32 3 41 7 14 5 16 2 10 -15 -7 -25 -5 -26 30 -10 52 24 10 58
-55 44 -17 -3 -30 -2 -30 3 0 5 14 11 30 15 17 3 30 11 30 17 0 7 -11 9 -30 6
-22 -5 -30 -3 -30 8 0 8 -8 15 -19 15 -15 0 -18 -7 -17 -37z m73 -159 c-3 -3
-12 -4 -19 -1 -8 3 -5 6 6 6 11 1 17 -2 13 -5z"/>
<path d="M254 2633 l1 -38 -45 -3 -45 -3 -1 -63 c-1 -49 -8 -76 -32 -126 -35
-70 -33 -91 4 -45 28 35 51 99 60 168 6 41 10 47 31 47 14 0 21 -4 18 -10 -3
-5 -13 -10 -21 -10 -8 0 -14 -4 -14 -10 0 -5 9 -10 20 -10 11 0 20 -4 20 -10
0 -5 17 -11 38 -11 30 -2 32 -3 10 -6 -20 -3 -28 -10 -28 -24 0 -10 -7 -19
-15 -19 -9 0 -12 6 -9 15 4 11 0 15 -16 15 -18 0 -21 -4 -16 -22 3 -13 6 -33
6 -46 0 -18 4 -22 19 -17 10 3 39 6 64 7 43 0 45 2 57 41 7 23 8 42 3 46 -5 3
-12 14 -16 24 -5 14 -14 17 -44 12 -35 -5 -36 -4 -10 6 34 13 36 33 2 27 -14
-3 -25 -1 -25 3 0 5 11 9 24 9 13 0 32 3 41 7 14 5 16 2 10 -15 -7 -25 -5 -26
30 -10 52 24 10 58 -55 44 -17 -3 -30 -2 -30 3 0 5 14 11 30 15 17 3 30 11 30
17 0 7 -11 9 -30 6 -22 -5 -30 -3 -30 8 0 8 -8 15 -19 15 -15 0 -18 -7 -17
-37z m73 -159 c-3 -3 -12 -4 -19 -1 -8 3 -5 6 6 6 11 1 17 -2 13 -5z m0 -30
c-3 -3 -12 -4 -19 -1 -8 3 -5 6 6 6 11 1 17 -2 13 -5z m-60 -10 c-3 -3 -12 -4
-19 -1 -8 3 -5 6 6 6 11 1 17 -2 13 -5z"/>
<path d="M254 2183 l1 -38 -45 -3 -45 -3 -1 -63 c-1 -49 -8 -76 -32 -126 -35
-70 -33 -91 4 -45 28 35 51 99 60 168 6 41 10 47 31 47 14 0 21 -4 18 -10 -3
-5 -13 -10 -21 -10 -8 0 -14 -4 -14 -10 0 -5 9 -10 20 -10 11 0 20 -4 20 -10
0 -5 17 -11 38 -11 30 -2 32 -3 10 -6 -20 -3 -28 -10 -28 -24 0 -10 -7 -19
-15 -19 -9 0 -12 6 -9 15 4 11 0 15 -16 15 -18 0 -21 -4 -16 -22 3 -13 6 -33
6 -46 0 -18 4 -22 19 -17 10 3 39 6 64 7 43 0 45 2 57 41 7 23 8 42 3 46 -5 3
-12 14 -16 24 -5 14 -14 17 -44 12 -35 -5 -36 -4 -10 6 34 13 36 33 2 27 -14
-3 -25 -1 -25 3 0 5 11 9 24 9 13 0 32 3 41 7 14 5 16 2 10 -15 -7 -25 -5 -26
30 -10 52 24 10 58 -55 44 -17 -3 -30 -2 -30 3 0 5 14 11 30 15 17 3 30 11 30
17 0 7 -11 9 -30 6 -22 -5 -30 -3 -30 8 0 8 -8 15 -19 15 -15 0 -18 -7 -17
-37z m73 -159 c-3 -3 -12 -4 -19 -1 -8 3 -5 6 6 6 11 1 17 -2 13 -5z m0 -30
c-3 -3 -12 -4 -19 -1 -8 3 -5 6 6 6 11 1 17 -2 13 -5z m-60 -10 c-3 -3 -12 -4
-19 -1 -8 3 -5 6 6 6 11 1 17 -2 13 -5z"/>
<path d="M200 1915 c0 -14 5 -25 10 -25 6 0 10 11 10 25 0 14 -4 25 -10 25 -5
0 -10 -11 -10 -25z"/>
<path d="M254 1733 l1 -38 -45 -3 -45 -3 -1 -63 c-1 -49 -8 -76 -32 -126 -35
-70 -33 -91 4 -45 28 35 51 99 60 168 6 41 10 47 31 47 14 0 21 -4 18 -10 -3
-5 -13 -10 -21 -10 -8 0 -14 -4 -14 -10 0 -5 9 -10 20 -10 11 0 20 -4 20 -10
0 -5 17 -11 38 -11 30 -2 32 -3 10 -6 -20 -3 -28 -10 -28 -24 0 -10 -7 -19
-15 -19 -9 0 -12 6 -9 15 4 10 0 15 -14 15 -19 0 -21 -4 -15 -50 4 -34 2 -50
-6 -50 -6 0 -11 -11 -11 -25 0 -30 16 -33 23 -5 3 14 14 20 31 20 32 0 35 17
4 22 -15 3 -8 6 18 9 31 3 40 1 37 -8 -3 -8 2 -13 12 -13 13 0 16 -6 11 -25
-9 -34 16 -33 35 1 12 23 11 27 -5 39 -16 12 -17 18 -6 51 8 22 9 39 3 43 -5
3 -12 14 -16 24 -5 14 -14 17 -44 12 -35 -5 -36 -4 -10 6 34 13 36 33 2 27
-14 -3 -25 -1 -25 3 0 5 11 9 24 9 13 0 32 3 41 7 14 5 16 2 10 -15 -7 -25 -5
-26 30 -10 52 24 10 58 -55 44 -17 -3 -30 -2 -30 3 0 5 14 11 30 15 17 3 30
11 30 17 0 7 -11 9 -30 6 -22 -5 -30 -3 -30 8 0 8 -8 15 -19 15 -15 0 -18 -7
-17 -37z m73 -159 c-3 -3 -12 -4 -19 -1 -8 3 -5 6 6 6 11 1 17 -2 13 -5z m0
-30 c-3 -3 -12 -4 -19 -1 -8 3 -5 6 6 6 11 1 17 -2 13 -5z m-60 -10 c-3 -3
-12 -4 -19 -1 -8 3 -5 6 6 6 11 1 17 -2 13 -5z"/>
<path d="M254 1283 l1 -38 -45 -3 -45 -3 -1 -63 c-1 -49 -8 -76 -32 -126 -35
-70 -33 -91 4 -45 28 35 51 99 60 168 6 41 10 47 31 47 14 0 21 -4 18 -10 -3
-5 -13 -10 -21 -10 -8 0 -14 -4 -14 -10 0 -5 9 -10 20 -10 11 0 20 -4 20 -10
0 -5 17 -11 38 -11 30 -2 32 -3 10 -6 -20 -3 -28 -10 -28 -24 0 -10 -7 -19
-15 -19 -9 0 -12 6 -9 15 4 10 0 15 -14 15 -19 0 -21 -4 -15 -50 4 -34 2 -50
-6 -50 -6 0 -11 -11 -11 -25 0 -30 16 -33 23 -5 3 11 10 20 16 20 6 0 11 -9
11 -20 0 -11 5 -20 10 -20 6 0 10 6 10 14 0 8 3 21 6 29 4 11 -2 17 -18 19
-15 3 -9 6 18 9 31 3 40 1 37 -8 -3 -8 2 -13 12 -13 13 0 16 -6 11 -25 -9 -34
16 -33 35 1 12 23 11 27 -5 39 -16 12 -17 18 -6 51 8 22 9 39 3 43 -5 3 -12
14 -16 24 -5 14 -14 17 -44 12 -35 -5 -36 -4 -10 6 34 13 36 33 2 27 -14 -3
-25 -1 -25 3 0 5 11 9 24 9 13 0 32 3 41 7 14 5 16 2 10 -15 -7 -25 -5 -26 30
-10 52 24 10 58 -55 44 -17 -3 -30 -2 -30 3 0 5 14 11 30 15 17 3 30 11 30 17
0 7 -11 9 -30 6 -22 -5 -30 -3 -30 8 0 8 -8 15 -19 15 -15 0 -18 -7 -17 -37z
m73 -159 c-3 -3 -12 -4 -19 -1 -8 3 -5 6 6 6 11 1 17 -2 13 -5z m0 -30 c-3 -3
-12 -4 -19 -1 -8 3 -5 6 6 6 11 1 17 -2 13 -5z m-60 -10 c-3 -3 -12 -4 -19 -1
-8 3 -5 6 6 6 11 1 17 -2 13 -5z"/>
<path d="M254 833 l1 -38 -45 -3 -45 -3 -1 -63 c-1 -49 -8 -76 -32 -126 -35
-70 -33 -91 4 -45 28 35 51 99 60 168 6 41 10 47 31 47 14 0 21 -4 18 -10 -3
-5 -13 -10 -21 -10 -8 0 -14 -4 -14 -10 0 -5 9 -10 20 -10 11 0 20 -4 20 -10
0 -5 17 -11 38 -11 30 -2 32 -3 10 -6 -20 -3 -28 -10 -28 -24 0 -10 -7 -19
-15 -19 -9 0 -12 6 -9 15 4 10 0 15 -14 15 -19 0 -21 -4 -15 -50 4 -34 2 -50
-6 -50 -6 0 -11 -11 -11 -25 0 -30 16 -33 23 -5 3 11 10 20 16 20 6 0 11 -9
11 -20 0 -11 5 -20 10 -20 6 0 10 6 10 14 0 8 3 21 6 29 4 11 -2 17 -18 19
-15 3 -8 6 20 9 34 4 40 2 28 -7 -17 -12 -22 -54 -7 -54 5 0 13 9 16 20 9 29
28 25 21 -5 -9 -34 16 -33 35 1 12 23 11 27 -5 39 -16 12 -17 18 -6 51 8 22 9
39 3 43 -5 3 -12 14 -16 24 -5 14 -14 17 -44 12 -35 -5 -36 -4 -10 6 34 13 36
33 2 27 -14 -3 -25 -1 -25 3 0 5 11 9 24 9 13 0 32 3 41 7 14 5 16 2 10 -15
-7 -25 -5 -26 30 -10 52 24 10 58 -55 44 -17 -3 -30 -2 -30 3 0 5 14 11 30 15
17 3 30 11 30 17 0 7 -11 9 -30 6 -22 -5 -30 -3 -30 8 0 8 -8 15 -19 15 -15 0
-18 -7 -17 -37z m73 -159 c-3 -3 -12 -4 -19 -1 -8 3 -5 6 6 6 11 1 17 -2 13
-5z m0 -30 c-3 -3 -12 -4 -19 -1 -8 3 -5 6 6 6 11 1 17 -2 13 -5z m-60 -10
c-3 -3 -12 -4 -19 -1 -8 3 -5 6 6 6 11 1 17 -2 13 -5z"/>
<path d="M254 383 l1 -38 -45 -3 -45 -3 -1 -63 c-1 -49 -8 -76 -32 -126 -35
-70 -33 -91 4 -45 28 35 51 99 60 168 6 41 10 47 31 47 14 0 21 -4 18 -10 -3
-5 -13 -10 -21 -10 -8 0 -14 -4 -14 -10 0 -5 9 -10 20 -10 11 0 20 -4 20 -10
0 -5 17 -11 38 -11 30 -2 32 -3 10 -6 -20 -3 -28 -10 -28 -24 0 -10 -7 -19
-15 -19 -9 0 -12 6 -9 15 4 10 0 15 -14 15 -19 0 -21 -4 -15 -50 4 -34 2 -50
-6 -50 -6 0 -11 -11 -11 -25 0 -21 -5 -25 -30 -25 -16 0 -30 -5 -30 -11 0 -8
40 -9 138 -4 75 4 139 9 142 12 8 8 -25 23 -42 19 -14 -3 -15 -1 -5 16 10 16
9 22 -6 33 -17 12 -18 18 -7 51 8 22 9 39 3 43 -5 3 -12 14 -16 24 -5 14 -14
17 -44 12 -35 -5 -36 -4 -10 6 34 13 36 33 2 27 -14 -3 -25 -1 -25 3 0 5 11 9
24 9 13 0 32 3 41 7 14 5 16 2 10 -15 -7 -25 -5 -26 30 -10 52 24 10 58 -55
44 -17 -3 -30 -2 -30 3 0 5 14 11 30 15 17 3 30 11 30 17 0 7 -11 9 -30 6 -22
-5 -30 -3 -30 8 0 8 -8 15 -19 15 -15 0 -18 -7 -17 -37z m73 -159 c-3 -3 -12
-4 -19 -1 -8 3 -5 6 6 6 11 1 17 -2 13 -5z m0 -30 c-3 -3 -12 -4 -19 -1 -8 3
-5 6 6 6 11 1 17 -2 13 -5z m-60 -10 c-3 -3 -12 -4 -19 -1 -8 3 -5 6 6 6 11 1
17 -2 13 -5z m41 -28 c-10 -7 -18 -23 -18 -35 0 -11 -5 -21 -11 -21 -7 0 -9
10 -5 25 5 21 3 25 -16 26 -13 1 -5 5 17 9 22 4 42 8 45 8 3 1 -3 -5 -12 -12z
m32 -30 c0 -15 -18 -31 -26 -23 -7 7 7 37 17 37 5 0 9 -6 9 -14z m-90 -11 c0
-8 -7 -15 -15 -15 -16 0 -20 12 -8 23 11 12 23 8 23 -8z"/>
</g>
</svg>
