<?xml version="1.0" standalone="no"?>
<!DOCTYPE svg PUBLIC "-//W3C//DTD SVG 20010904//EN"
 "http://www.w3.org/TR/2001/REC-SVG-20010904/DTD/svg10.dtd">
<svg version="1.0" xmlns="http://www.w3.org/2000/svg"
 width="50.000000pt" height="725.000000pt" viewBox="0 0 50.000000 725.000000"
 preserveAspectRatio="xMidYMid meet">
<metadata>
Created by potrace 1.16, written by Peter Selinger 2001-2019
</metadata>
<g transform="translate(0.000000,725.000000) scale(0.100000,-0.100000)"
fill="#000000" stroke="none">
<path d="M95 6988 c1 -71 4 -103 13 -106 9 -3 12 21 14 87 0 50 1 97 2 103 1
7 -6 14 -14 16 -13 2 -15 -14 -15 -100z"/>
<path d="M125 6643 l-30 -4 0 -101 c0 -69 4 -103 12 -105 9 -3 13 23 15 89 3
88 4 93 26 96 21 3 22 1 22 -76 0 -48 -4 -82 -11 -84 -16 -5 2 -39 20 -36 14
3 16 20 16 113 0 122 2 118 -70 108z"/>
<path d="M125 6193 l-30 -4 0 -101 c1 -71 4 -103 13 -106 8 -2 12 14 12 56 0
58 8 72 41 72 13 0 11 -98 -2 -102 -16 -5 2 -39 20 -36 14 3 16 20 16 113 0
122 2 118 -70 108z m45 -42 c0 -12 -9 -20 -25 -23 -19 -4 -25 -1 -25 12 0 22
9 30 32 30 11 0 18 -7 18 -19z"/>
<path d="M125 5743 l-30 -4 0 -101 c1 -71 4 -103 13 -106 8 -2 12 8 12 32 0
32 3 36 25 36 18 0 25 -5 25 -19 0 -11 -5 -21 -11 -23 -16 -5 2 -39 20 -36 14
3 16 20 16 113 0 122 2 118 -70 108z m45 -42 c0 -12 -9 -20 -25 -23 -19 -4
-25 -1 -25 12 0 22 9 30 32 30 11 0 18 -7 18 -19z m0 -61 c0 -15 -7 -20 -25
-20 -41 0 -30 37 13 39 6 1 12 -8 12 -19z"/>
<path d="M125 5293 l-30 -4 0 -102 1 -102 29 3 c15 2 31 -2 36 -9 4 -6 14 -9
23 -6 14 6 16 22 14 114 -3 119 -1 116 -73 106z m45 -42 c0 -12 -9 -20 -25
-23 -19 -4 -25 -1 -25 12 0 22 9 30 32 30 11 0 18 -7 18 -19z m0 -61 c0 -15
-7 -20 -25 -20 -41 0 -30 37 13 39 6 1 12 -8 12 -19z m0 -60 c0 -15 -7 -20
-25 -20 -18 0 -25 5 -25 20 0 15 7 20 25 20 18 0 25 -5 25 -20z"/>
<path d="M125 4843 l-30 -4 0 -102 1 -102 29 3 c15 2 31 -2 36 -9 4 -6 14 -9
23 -6 14 6 16 22 14 114 -3 119 -1 116 -73 106z m45 -42 c0 -12 -9 -20 -25
-23 -19 -4 -25 -1 -25 12 0 22 9 30 32 30 11 0 18 -7 18 -19z m0 -61 c0 -15
-7 -20 -25 -20 -41 0 -30 37 13 39 6 1 12 -8 12 -19z m0 -60 c0 -15 -7 -20
-25 -20 -18 0 -25 5 -25 20 0 15 7 20 25 20 18 0 25 -5 25 -20z"/>
<path d="M268 4843 c-16 -2 -28 -9 -28 -15 0 -7 16 -9 46 -4 26 3 53 6 60 6 8
0 14 5 14 10 0 10 -38 11 -92 3z"/>
<path d="M280 4420 c0 -23 -4 -30 -20 -30 -11 0 -20 -4 -20 -10 0 -5 9 -10 20
-10 13 0 20 -7 20 -20 0 -28 18 -25 26 5 4 18 13 25 30 25 13 0 24 5 24 10 0
6 -11 10 -25 10 -20 0 -25 5 -25 25 0 16 -6 25 -15 25 -10 0 -15 -10 -15 -30z"/>
<path d="M125 4393 l-30 -4 0 -102 1 -102 29 3 c15 2 31 -2 36 -9 4 -6 14 -9
23 -6 14 6 16 22 14 114 -3 119 -1 116 -73 106z m45 -42 c0 -12 -9 -20 -25
-23 -19 -4 -25 -1 -25 12 0 22 9 30 32 30 11 0 18 -7 18 -19z m0 -61 c0 -15
-7 -20 -25 -20 -41 0 -30 37 13 39 6 1 12 -8 12 -19z m0 -60 c0 -15 -7 -20
-25 -20 -18 0 -25 5 -25 20 0 15 7 20 25 20 18 0 25 -5 25 -20z"/>
<path d="M280 3970 c0 -23 -4 -30 -20 -30 -11 0 -20 -4 -20 -10 0 -5 9 -10 21
-10 14 0 19 -5 17 -17 -2 -13 -14 -19 -41 -21 -35 -3 -37 -2 -37 27 0 38 -8
42 -61 35 l-44 -6 0 -102 1 -101 29 3 c15 2 31 -2 36 -9 4 -6 14 -9 23 -6 12
5 16 21 16 71 l0 64 68 6 c109 11 142 17 142 28 0 7 -18 9 -50 5 -45 -5 -50
-4 -50 13 0 15 7 20 25 20 14 0 25 5 25 10 0 6 -11 10 -25 10 -20 0 -25 5 -25
25 0 16 -6 25 -15 25 -10 0 -15 -10 -15 -30z m-110 -69 c0 -12 -9 -20 -25 -23
-19 -4 -25 -1 -25 12 0 22 9 30 32 30 11 0 18 -7 18 -19z m0 -61 c0 -15 -7
-20 -25 -20 -41 0 -30 37 13 39 6 1 12 -8 12 -19z m0 -60 c0 -15 -7 -20 -25
-20 -18 0 -25 5 -25 20 0 15 7 20 25 20 18 0 25 -5 25 -20z"/>
<path d="M280 3520 c0 -23 -4 -30 -20 -30 -11 0 -20 -4 -20 -10 0 -5 9 -10 21
-10 14 0 19 -5 17 -17 -2 -13 -14 -19 -41 -21 -35 -3 -37 -2 -37 27 0 38 -8
42 -61 35 l-44 -6 0 -102 1 -101 29 3 c15 2 31 -2 36 -9 4 -6 14 -9 23 -6 12
5 16 21 16 72 0 63 1 65 26 65 26 0 26 -8 -4 -43 -8 -9 -13 -20 -9 -23 11 -11
45 16 59 46 10 24 19 30 44 30 47 0 94 11 94 23 0 6 -19 8 -50 4 -45 -5 -50
-4 -50 13 0 15 7 20 25 20 14 0 25 5 25 10 0 6 -11 10 -25 10 -20 0 -25 5 -25
25 0 16 -6 25 -15 25 -10 0 -15 -10 -15 -30z m-110 -69 c0 -12 -9 -20 -25 -23
-19 -4 -25 -1 -25 12 0 22 9 30 32 30 11 0 18 -7 18 -19z m0 -61 c0 -15 -7
-20 -25 -20 -41 0 -30 37 13 39 6 1 12 -8 12 -19z m0 -60 c0 -15 -7 -20 -25
-20 -18 0 -25 5 -25 20 0 15 7 20 25 20 18 0 25 -5 25 -20z"/>
<path d="M280 3070 c0 -23 -4 -30 -20 -30 -11 0 -20 -4 -20 -10 0 -5 9 -10 21
-10 14 0 19 -5 17 -17 -2 -13 -14 -19 -41 -21 -35 -3 -37 -2 -37 27 0 38 -8
42 -61 35 l-44 -6 0 -102 1 -101 29 3 c15 2 31 -2 36 -9 4 -6 14 -9 23 -6 12
5 16 21 16 72 0 63 1 65 26 65 26 0 26 -8 -4 -43 -8 -9 -13 -20 -9 -23 11 -11
45 16 59 46 19 43 48 40 48 -5 l0 -35 50 0 c28 0 50 5 50 10 0 6 -15 10 -34
10 -19 0 -37 4 -40 9 -11 18 7 42 35 48 50 10 33 26 -21 20 -45 -5 -50 -4 -50
13 0 15 7 20 25 20 14 0 25 5 25 10 0 6 -11 10 -25 10 -20 0 -25 5 -25 25 0
16 -6 25 -15 25 -10 0 -15 -10 -15 -30z m-110 -69 c0 -12 -9 -20 -25 -23 -19
-4 -25 -1 -25 12 0 22 9 30 32 30 11 0 18 -7 18 -19z m0 -61 c0 -15 -7 -20
-25 -20 -41 0 -30 37 13 39 6 1 12 -8 12 -19z m0 -60 c0 -15 -7 -20 -25 -20
-18 0 -25 5 -25 20 0 15 7 20 25 20 18 0 25 -5 25 -20z"/>
<path d="M280 2620 c0 -23 -4 -30 -20 -30 -11 0 -20 -4 -20 -10 0 -5 9 -10 21
-10 14 0 19 -5 17 -17 -2 -13 -14 -19 -41 -21 -35 -3 -37 -2 -37 27 0 38 -8
42 -61 35 l-44 -6 0 -102 1 -101 29 3 c15 2 31 -2 36 -9 4 -6 14 -9 23 -6 12
5 16 21 16 72 0 63 1 65 26 65 26 0 26 -8 -4 -43 -8 -9 -13 -20 -9 -23 11 -11
45 16 59 46 19 43 48 40 48 -5 l0 -35 50 0 c28 0 50 5 50 10 0 6 -15 10 -34
10 -19 0 -37 4 -40 9 -11 18 7 42 35 48 50 10 33 26 -21 20 -45 -5 -50 -4 -50
13 0 15 7 20 25 20 14 0 25 5 25 10 0 6 -11 10 -25 10 -20 0 -25 5 -25 25 0
16 -6 25 -15 25 -10 0 -15 -10 -15 -30z m-110 -69 c0 -12 -9 -20 -25 -23 -19
-4 -25 -1 -25 12 0 22 9 30 32 30 11 0 18 -7 18 -19z m0 -61 c0 -15 -7 -20
-25 -20 -41 0 -30 37 13 39 6 1 12 -8 12 -19z m0 -60 c0 -15 -7 -20 -25 -20
-18 0 -25 5 -25 20 0 15 7 20 25 20 18 0 25 -5 25 -20z"/>
<path d="M268 2423 c-52 -6 -48 -23 5 -23 50 0 87 9 87 21 0 9 -20 9 -92 2z"/>
<path d="M280 2170 c0 -23 -4 -30 -20 -30 -11 0 -20 -4 -20 -10 0 -5 9 -10 21
-10 14 0 19 -5 17 -17 -2 -13 -14 -19 -41 -21 -35 -3 -37 -2 -37 27 0 38 -8
42 -61 35 l-44 -6 0 -102 1 -101 29 3 c15 2 31 -2 36 -9 4 -6 14 -9 23 -6 12
5 16 21 16 72 0 63 1 65 26 65 26 0 26 -8 -4 -43 -8 -9 -13 -20 -9 -23 11 -11
45 16 59 46 19 43 48 40 48 -5 l0 -35 50 0 c28 0 50 5 50 10 0 6 -15 10 -34
10 -19 0 -37 4 -40 9 -11 18 7 42 35 48 50 10 33 26 -21 20 -45 -5 -50 -4 -50
13 0 15 7 20 25 20 14 0 25 5 25 10 0 6 -11 10 -25 10 -20 0 -25 5 -25 25 0
16 -6 25 -15 25 -10 0 -15 -10 -15 -30z m-110 -69 c0 -12 -9 -20 -25 -23 -19
-4 -25 -1 -25 12 0 22 9 30 32 30 11 0 18 -7 18 -19z m0 -61 c0 -15 -7 -20
-25 -20 -41 0 -30 37 13 39 6 1 12 -8 12 -19z m0 -60 c0 -15 -7 -20 -25 -20
-18 0 -25 5 -25 20 0 15 7 20 25 20 18 0 25 -5 25 -20z"/>
<path d="M280 2001 c0 -26 -4 -31 -25 -31 -14 0 -25 -4 -25 -10 0 -5 11 -10
25 -10 18 0 25 -5 25 -20 0 -11 7 -20 15 -20 8 0 15 9 15 20 0 13 9 22 25 26
32 8 32 24 1 24 -18 0 -26 6 -28 22 -5 35 -28 34 -28 -1z"/>
<path d="M280 1720 c0 -23 -4 -30 -20 -30 -11 0 -20 -4 -20 -10 0 -5 9 -10 21
-10 14 0 19 -5 17 -17 -2 -13 -14 -19 -41 -21 -35 -3 -37 -2 -37 27 0 38 -8
42 -61 35 l-44 -6 0 -102 1 -101 29 3 c15 2 31 -2 36 -9 4 -6 14 -9 23 -6 12
5 16 21 16 72 0 63 1 65 26 65 26 0 26 -8 -4 -43 -8 -9 -13 -20 -9 -23 11 -11
45 16 59 46 19 43 48 40 48 -5 l0 -35 50 0 c28 0 50 5 50 10 0 6 -15 10 -34
10 -19 0 -37 4 -40 9 -11 18 7 42 35 48 50 10 33 26 -21 20 -45 -5 -50 -4 -50
13 0 15 7 20 25 20 14 0 25 5 25 10 0 6 -11 10 -25 10 -20 0 -25 5 -25 25 0
16 -6 25 -15 25 -10 0 -15 -10 -15 -30z m-110 -69 c0 -12 -9 -20 -25 -23 -19
-4 -25 -1 -25 12 0 22 9 30 32 30 11 0 18 -7 18 -19z m0 -61 c0 -15 -7 -20
-25 -20 -41 0 -30 37 13 39 6 1 12 -8 12 -19z m0 -60 c0 -15 -7 -20 -25 -20
-18 0 -25 5 -25 20 0 15 7 20 25 20 18 0 25 -5 25 -20z"/>
<path d="M280 1551 c0 -26 -4 -31 -25 -31 -14 0 -25 -4 -25 -10 0 -5 11 -10
25 -10 15 0 25 -6 25 -14 0 -16 -21 -26 -56 -26 -13 0 -24 -5 -24 -10 0 -10
198 -3 210 7 12 11 -29 22 -62 16 -31 -4 -38 -2 -38 11 0 8 11 18 25 22 32 8
32 24 1 24 -18 0 -26 6 -28 22 -5 35 -28 34 -28 -1z"/>
</g>
</svg>
