<?xml version="1.0" standalone="no"?>
<!DOCTYPE svg PUBLIC "-//W3C//DTD SVG 20010904//EN"
 "http://www.w3.org/TR/2001/REC-SVG-20010904/DTD/svg10.dtd">
<svg version="1.0" xmlns="http://www.w3.org/2000/svg"
 width="50.000000pt" height="725.000000pt" viewBox="0 0 50.000000 725.000000"
 preserveAspectRatio="xMidYMid meet">
<metadata>
Created by potrace 1.16, written by Peter Selinger 2001-2019
</metadata>
<g transform="translate(0.000000,725.000000) scale(0.100000,-0.100000)"
fill="#000000" stroke="none">
<path d="M84 6985 c-2 -97 5 -128 20 -89 3 9 6 56 6 105 0 65 -3 89 -12 89
-10 0 -13 -29 -14 -105z"/>
<path d="M130 6641 c0 -6 5 -11 11 -11 7 0 10 -33 7 -99 -1 -55 1 -103 5 -107
19 -20 28 20 25 117 -3 99 -4 104 -25 107 -13 2 -23 -1 -23 -7z"/>
<path d="M84 6535 c-1 -58 2 -105 7 -105 12 0 18 33 21 128 3 68 1 82 -12 82
-12 0 -15 -19 -16 -105z"/>
<path d="M130 6191 c0 -6 5 -11 10 -11 6 0 10 -11 10 -25 0 -19 -5 -25 -21
-25 -19 0 -21 4 -15 30 4 24 2 30 -12 30 -15 0 -17 -13 -18 -105 -1 -58 2
-105 6 -105 13 0 20 29 20 81 0 43 2 49 21 49 20 0 21 -4 16 -59 -5 -62 4 -94
23 -75 7 7 10 50 8 115 -3 99 -4 104 -25 107 -13 2 -23 -1 -23 -7z"/>
<path d="M130 5741 c0 -6 5 -11 10 -11 6 0 10 -11 10 -25 0 -19 -5 -25 -21
-25 -19 0 -21 4 -15 30 4 24 2 30 -12 30 -15 0 -17 -13 -18 -105 -1 -58 2
-105 6 -105 10 0 20 26 20 50 0 10 9 20 21 23 19 5 20 2 15 -26 -7 -38 7 -68
24 -51 7 7 10 50 8 115 -3 99 -4 104 -25 107 -13 2 -23 -1 -23 -7z m20 -95 c0
-7 -9 -16 -20 -19 -15 -4 -20 0 -20 14 0 12 7 19 20 19 11 0 20 -6 20 -14z"/>
<path d="M130 5291 c0 -6 5 -11 10 -11 6 0 10 -11 10 -25 0 -19 -5 -25 -21
-25 -19 0 -21 4 -15 30 4 24 2 30 -12 30 -15 0 -17 -13 -18 -105 l-2 -104 30
6 c20 4 33 1 39 -8 20 -32 30 9 27 112 -3 99 -4 104 -25 107 -13 2 -23 -1 -23
-7z m20 -95 c0 -7 -9 -16 -20 -19 -15 -4 -20 0 -20 14 0 12 7 19 20 19 11 0
20 -6 20 -14z m0 -55 c0 -10 -9 -21 -20 -24 -15 -4 -20 0 -20 13 0 10 8 21 18
23 9 3 18 5 20 6 1 0 2 -7 2 -18z"/>
<path d="M130 4841 c0 -6 5 -11 10 -11 6 0 10 -11 10 -25 0 -19 -5 -25 -21
-25 -19 0 -21 4 -15 30 4 24 2 30 -12 30 -15 0 -17 -13 -18 -105 l-2 -104 30
6 c20 4 33 1 39 -8 20 -32 30 9 27 112 -3 99 -4 104 -25 107 -13 2 -23 -1 -23
-7z m20 -95 c0 -7 -9 -16 -20 -19 -15 -4 -20 0 -20 14 0 12 7 19 20 19 11 0
20 -6 20 -14z m0 -55 c0 -10 -9 -21 -20 -24 -15 -4 -20 0 -20 13 0 10 8 21 18
23 9 3 18 5 20 6 1 0 2 -7 2 -18z"/>
<path d="M263 4838 c-63 -14 -55 -31 10 -23 57 8 67 12 67 26 0 11 -20 10 -77
-3z"/>
<path d="M260 4425 c0 -28 -5 -38 -20 -42 -11 -3 -20 -9 -20 -14 0 -5 9 -9 20
-9 11 0 20 -7 20 -15 0 -8 7 -15 15 -15 8 0 15 9 15 19 0 12 8 21 22 23 12 2
23 9 26 17 3 10 -2 13 -22 9 -25 -5 -27 -3 -24 26 2 22 -2 31 -14 34 -15 3
-18 -4 -18 -33z"/>
<path d="M130 4391 c0 -6 5 -11 10 -11 6 0 10 -11 10 -25 0 -19 -5 -25 -21
-25 -19 0 -21 4 -15 30 4 24 2 30 -12 30 -15 0 -17 -13 -18 -105 l-2 -104 30
6 c20 4 33 1 39 -8 20 -32 30 9 27 112 -3 99 -4 104 -25 107 -13 2 -23 -1 -23
-7z m20 -95 c0 -7 -9 -16 -20 -19 -15 -4 -20 0 -20 14 0 12 7 19 20 19 11 0
20 -6 20 -14z m0 -55 c0 -10 -9 -21 -20 -24 -15 -4 -20 0 -20 13 0 10 8 21 18
23 9 3 18 5 20 6 1 0 2 -7 2 -18z"/>
<path d="M260 3975 c0 -28 -5 -38 -20 -42 -11 -3 -20 -9 -20 -14 0 -5 9 -9 20
-9 11 0 20 -7 20 -15 0 -11 -11 -15 -39 -15 -37 0 -40 2 -43 33 -2 24 -8 33
-25 35 -13 2 -23 -1 -23 -7 0 -6 5 -11 10 -11 6 0 10 -11 10 -25 0 -19 -5 -25
-21 -25 -19 0 -21 4 -15 30 4 24 2 30 -12 30 -15 0 -17 -13 -18 -105 l-2 -104
30 6 c19 4 33 1 38 -7 16 -26 30 3 30 64 l0 63 61 7 c34 3 79 6 100 6 29 0 39
4 39 16 0 14 -7 15 -45 10 -36 -6 -45 -4 -45 8 0 8 10 16 22 18 12 2 23 9 26
17 3 10 -2 13 -22 9 -25 -5 -27 -3 -24 26 2 22 -2 31 -14 34 -15 3 -18 -4 -18
-33z m-110 -129 c0 -7 -9 -16 -20 -19 -15 -4 -20 0 -20 14 0 12 7 19 20 19 11
0 20 -6 20 -14z m0 -55 c0 -10 -9 -21 -20 -24 -15 -4 -20 0 -20 13 0 10 8 21
18 23 9 3 18 5 20 6 1 0 2 -7 2 -18z"/>
<path d="M260 3525 c0 -28 -5 -38 -20 -42 -11 -3 -20 -9 -20 -14 0 -5 9 -9 20
-9 11 0 20 -7 20 -15 0 -11 -11 -15 -39 -15 -37 0 -40 2 -43 33 -2 24 -8 33
-25 35 -13 2 -23 -1 -23 -7 0 -6 5 -11 10 -11 6 0 10 -11 10 -25 0 -19 -5 -25
-21 -25 -19 0 -21 4 -15 30 4 24 2 30 -12 30 -15 0 -17 -13 -18 -105 l-2 -104
30 6 c19 4 33 1 38 -7 16 -26 30 3 30 66 l0 64 38 0 37 -1 -29 -25 c-39 -35
-23 -49 37 -32 48 12 63 28 27 28 -18 0 -19 2 -8 20 10 15 24 20 55 20 33 0
43 4 43 16 0 14 -7 15 -45 10 -36 -6 -45 -4 -45 8 0 8 10 16 22 18 12 2 23 9
26 17 3 10 -2 13 -22 9 -25 -5 -27 -3 -24 26 2 22 -2 31 -14 34 -15 3 -18 -4
-18 -33z m-110 -129 c0 -7 -9 -16 -20 -19 -15 -4 -20 0 -20 14 0 12 7 19 20
19 11 0 20 -6 20 -14z m0 -55 c0 -10 -9 -21 -20 -24 -15 -4 -20 0 -20 13 0 10
8 21 18 23 9 3 18 5 20 6 1 0 2 -7 2 -18z"/>
<path d="M260 3075 c0 -28 -5 -38 -20 -42 -11 -3 -20 -9 -20 -14 0 -5 9 -9 20
-9 11 0 20 -7 20 -15 0 -11 -11 -15 -39 -15 -37 0 -40 2 -43 33 -2 24 -8 33
-25 35 -13 2 -23 -1 -23 -7 0 -6 5 -11 10 -11 6 0 10 -11 10 -25 0 -19 -5 -25
-21 -25 -19 0 -21 4 -15 30 4 24 2 30 -12 30 -15 0 -17 -13 -18 -105 l-2 -104
30 6 c19 4 33 1 38 -7 16 -26 30 3 30 66 l0 64 38 0 37 -1 -29 -25 c-39 -35
-23 -49 37 -32 48 12 63 28 27 28 -18 0 -19 2 -8 20 10 15 24 20 55 20 33 0
43 4 43 16 0 14 -7 15 -45 10 -36 -6 -45 -4 -45 8 0 8 10 16 22 18 12 2 23 9
26 17 3 10 -2 13 -22 9 -25 -5 -27 -3 -24 26 2 22 -2 31 -14 34 -15 3 -18 -4
-18 -33z m-110 -129 c0 -7 -9 -16 -20 -19 -15 -4 -20 0 -20 14 0 12 7 19 20
19 11 0 20 -6 20 -14z m0 -55 c0 -10 -9 -21 -20 -24 -15 -4 -20 0 -20 13 0 10
8 21 18 23 9 3 18 5 20 6 1 0 2 -7 2 -18z"/>
<path d="M320 2942 c0 -19 18 -42 32 -42 12 0 9 35 -4 48 -17 17 -28 15 -28
-6z"/>
<path d="M260 2625 c0 -28 -5 -38 -20 -42 -11 -3 -20 -9 -20 -14 0 -5 9 -9 20
-9 11 0 20 -7 20 -15 0 -11 -11 -15 -39 -15 -37 0 -40 2 -43 33 -2 24 -8 33
-25 35 -13 2 -23 -1 -23 -7 0 -6 5 -11 10 -11 6 0 10 -11 10 -25 0 -19 -5 -25
-21 -25 -19 0 -21 4 -15 30 4 24 2 30 -12 30 -15 0 -17 -13 -18 -105 l-2 -104
30 6 c19 4 33 1 38 -7 16 -26 30 3 30 66 l0 64 38 0 37 -1 -29 -25 c-39 -35
-23 -49 37 -32 48 12 63 28 27 28 -18 0 -19 2 -8 20 10 15 24 20 55 20 33 0
43 4 43 16 0 14 -7 15 -45 10 -36 -6 -45 -4 -45 8 0 8 10 16 22 18 12 2 23 9
26 17 3 10 -2 13 -22 9 -25 -5 -27 -3 -24 26 2 22 -2 31 -14 34 -15 3 -18 -4
-18 -33z m-110 -129 c0 -7 -9 -16 -20 -19 -15 -4 -20 0 -20 14 0 12 7 19 20
19 11 0 20 -6 20 -14z m0 -55 c0 -10 -9 -21 -20 -24 -15 -4 -20 0 -20 13 0 10
8 21 18 23 9 3 18 5 20 6 1 0 2 -7 2 -18z"/>
<path d="M320 2492 c0 -19 18 -42 32 -42 12 0 9 35 -4 48 -17 17 -28 15 -28
-6z"/>
<path d="M200 2413 c0 -29 12 -63 21 -63 5 0 9 18 9 40 0 29 -4 40 -15 40 -8
0 -15 -8 -15 -17z"/>
<path d="M260 2175 c0 -28 -5 -38 -20 -42 -11 -3 -20 -9 -20 -14 0 -5 9 -9 20
-9 11 0 20 -7 20 -15 0 -11 -11 -15 -39 -15 -37 0 -40 2 -43 33 -2 24 -8 33
-25 35 -13 2 -23 -1 -23 -7 0 -6 5 -11 10 -11 6 0 10 -11 10 -25 0 -19 -5 -25
-21 -25 -19 0 -21 4 -15 30 4 24 2 30 -12 30 -15 0 -17 -13 -18 -105 l-2 -104
30 6 c19 4 33 1 38 -7 16 -26 30 3 30 66 l0 64 38 0 37 -1 -29 -25 c-39 -35
-23 -49 37 -32 48 12 63 28 27 28 -18 0 -19 2 -8 20 10 15 24 20 55 20 33 0
43 4 43 16 0 14 -7 15 -45 10 -36 -6 -45 -4 -45 8 0 8 10 16 22 18 12 2 23 9
26 17 3 10 -2 13 -22 9 -25 -5 -27 -3 -24 26 2 22 -2 31 -14 34 -15 3 -18 -4
-18 -33z m-110 -129 c0 -7 -9 -16 -20 -19 -15 -4 -20 0 -20 14 0 12 7 19 20
19 11 0 20 -6 20 -14z m0 -55 c0 -10 -9 -21 -20 -24 -15 -4 -20 0 -20 13 0 10
8 21 18 23 9 3 18 5 20 6 1 0 2 -7 2 -18z"/>
<path d="M320 2042 c0 -19 18 -42 32 -42 12 0 9 35 -4 48 -17 17 -28 15 -28
-6z"/>
<path d="M280 1980 c0 -5 14 -10 31 -10 29 0 30 -2 24 -30 -5 -22 -3 -30 7
-30 15 0 41 58 32 71 -7 12 -94 11 -94 -1z"/>
<path d="M200 1963 c0 -29 12 -63 21 -63 5 0 9 14 9 30 0 20 5 30 15 30 8 0
15 5 15 10 0 6 -13 10 -30 10 -22 0 -30 -5 -30 -17z"/>
<path d="M260 1725 c0 -28 -5 -38 -20 -42 -11 -3 -20 -9 -20 -14 0 -5 9 -9 20
-9 11 0 20 -7 20 -15 0 -11 -11 -15 -39 -15 -37 0 -40 2 -43 33 -2 24 -8 33
-25 35 -13 2 -23 -1 -23 -7 0 -6 5 -11 10 -11 6 0 10 -11 10 -25 0 -19 -5 -25
-21 -25 -19 0 -21 4 -15 30 4 24 2 30 -12 30 -15 0 -17 -13 -18 -105 l-2 -104
30 6 c19 4 33 1 38 -7 16 -26 30 3 30 66 l0 64 38 0 37 -1 -29 -25 c-39 -35
-23 -49 37 -32 48 12 63 28 27 28 -18 0 -19 2 -8 20 10 15 24 20 55 20 33 0
43 4 43 16 0 14 -7 15 -45 10 -36 -6 -45 -4 -45 8 0 8 10 16 22 18 12 2 23 9
26 17 3 10 -2 13 -22 9 -25 -5 -27 -3 -24 26 2 22 -2 31 -14 34 -15 3 -18 -4
-18 -33z m-110 -129 c0 -7 -9 -16 -20 -19 -15 -4 -20 0 -20 14 0 12 7 19 20
19 11 0 20 -6 20 -14z m0 -55 c0 -10 -9 -21 -20 -24 -15 -4 -20 0 -20 13 0 10
8 21 18 23 9 3 18 5 20 6 1 0 2 -7 2 -18z"/>
<path d="M320 1592 c0 -19 18 -42 32 -42 12 0 9 35 -4 48 -17 17 -28 15 -28
-6z"/>
<path d="M280 1530 c0 -5 14 -10 31 -10 29 0 30 -2 24 -30 -5 -22 -3 -30 7
-30 15 0 41 58 32 71 -7 12 -94 11 -94 -1z"/>
<path d="M200 1513 c0 -29 12 -63 21 -63 5 0 9 14 9 30 0 17 5 30 10 30 6 0
10 -9 10 -20 0 -11 5 -20 10 -20 6 0 10 14 10 30 0 28 -3 30 -35 30 -27 0 -35
-4 -35 -17z"/>
<path d="M260 1275 c0 -28 -5 -38 -20 -42 -11 -3 -20 -9 -20 -14 0 -5 9 -9 20
-9 11 0 20 -7 20 -15 0 -11 -11 -15 -39 -15 -37 0 -40 2 -43 33 -2 24 -8 33
-25 35 -13 2 -23 -1 -23 -7 0 -6 5 -11 10 -11 6 0 10 -11 10 -25 0 -19 -5 -25
-21 -25 -19 0 -21 4 -15 30 4 24 2 30 -12 30 -15 0 -17 -13 -18 -105 l-2 -104
30 6 c19 4 33 1 38 -7 16 -26 30 3 30 66 l0 64 38 0 37 -1 -29 -25 c-39 -35
-23 -49 37 -32 48 12 63 28 27 28 -18 0 -19 2 -8 20 10 15 24 20 55 20 33 0
43 4 43 16 0 14 -7 15 -45 10 -36 -6 -45 -4 -45 8 0 8 10 16 22 18 12 2 23 9
26 17 3 10 -2 13 -22 9 -25 -5 -27 -3 -24 26 2 22 -2 31 -14 34 -15 3 -18 -4
-18 -33z m-110 -129 c0 -7 -9 -16 -20 -19 -15 -4 -20 0 -20 14 0 12 7 19 20
19 11 0 20 -6 20 -14z m0 -55 c0 -10 -9 -21 -20 -24 -15 -4 -20 0 -20 13 0 10
8 21 18 23 9 3 18 5 20 6 1 0 2 -7 2 -18z"/>
<path d="M320 1142 c0 -19 18 -42 32 -42 12 0 9 35 -4 48 -17 17 -28 15 -28
-6z"/>
<path d="M284 1074 c3 -9 6 -24 6 -35 0 -27 17 -23 24 6 9 37 29 32 21 -5 -9
-42 17 -40 32 1 16 42 10 49 -44 49 -37 0 -44 -3 -39 -16z"/>
<path d="M200 1063 c0 -29 12 -63 21 -63 5 0 9 14 9 30 0 17 5 30 10 30 6 0
10 -9 10 -20 0 -11 5 -20 10 -20 6 0 10 14 10 30 0 28 -3 30 -35 30 -27 0 -35
-4 -35 -17z"/>
<path d="M260 825 c0 -28 -5 -38 -20 -42 -11 -3 -20 -9 -20 -14 0 -5 9 -9 20
-9 11 0 20 -7 20 -15 0 -11 -11 -15 -39 -15 -37 0 -40 2 -43 33 -2 24 -8 33
-25 35 -13 2 -23 -1 -23 -7 0 -6 5 -11 10 -11 6 0 10 -11 10 -25 0 -19 -5 -25
-21 -25 -19 0 -21 4 -15 30 4 24 2 30 -12 30 -15 0 -17 -13 -18 -105 l-2 -104
30 6 c19 4 33 1 38 -7 16 -26 30 3 30 66 l0 64 38 0 37 -1 -29 -25 c-39 -35
-23 -49 37 -32 48 12 63 28 27 28 -18 0 -19 2 -8 20 10 15 24 20 55 20 33 0
43 4 43 16 0 14 -7 15 -45 10 -36 -6 -45 -4 -45 8 0 8 10 16 22 18 12 2 23 9
26 17 3 10 -2 13 -22 9 -25 -5 -27 -3 -24 26 2 22 -2 31 -14 34 -15 3 -18 -4
-18 -33z m-110 -129 c0 -7 -9 -16 -20 -19 -15 -4 -20 0 -20 14 0 12 7 19 20
19 11 0 20 -6 20 -14z m0 -55 c0 -10 -9 -21 -20 -24 -15 -4 -20 0 -20 13 0 10
8 21 18 23 9 3 18 5 20 6 1 0 2 -7 2 -18z"/>
<path d="M320 692 c0 -19 18 -42 32 -42 12 0 9 35 -4 48 -17 17 -28 15 -28 -6z"/>
<path d="M287 606 c4 -24 2 -36 -6 -36 -6 0 -11 14 -11 30 0 28 -3 30 -36 30
-36 0 -37 0 -31 -35 5 -32 4 -35 -19 -35 -16 0 -24 -5 -21 -12 2 -7 17 -12 33
-12 192 10 229 13 232 23 2 7 -11 11 -33 11 -31 0 -36 3 -30 18 17 40 11 47
-37 50 l-47 3 6 -35z m53 2 c0 -19 -18 -43 -25 -36 -9 9 4 48 16 48 5 0 9 -6
9 -12z m-90 -23 c0 -14 -4 -25 -10 -25 -5 0 -10 11 -10 25 0 14 5 25 10 25 6
0 10 -11 10 -25z"/>
</g>
</svg>
