<?xml version="1.0" standalone="no"?>
<!DOCTYPE svg PUBLIC "-//W3C//DTD SVG 20010904//EN"
 "http://www.w3.org/TR/2001/REC-SVG-20010904/DTD/svg10.dtd">
<svg version="1.0" xmlns="http://www.w3.org/2000/svg"
 width="95.000000pt" height="725.000000pt" viewBox="0 0 95.000000 725.000000"
 preserveAspectRatio="xMidYMid meet">
<metadata>
Created by potrace 1.16, written by Peter Selinger 2001-2019
</metadata>
<g transform="translate(0.000000,725.000000) scale(0.100000,-0.100000)"
fill="#000000" stroke="none">
<path d="M320 7130 c0 -25 -4 -30 -25 -30 -18 0 -25 5 -25 20 0 11 -7 20 -15
20 -11 0 -14 -7 -9 -25 5 -22 3 -25 -20 -25 -14 0 -26 -4 -26 -10 0 -5 11 -10
25 -10 15 0 25 -6 25 -14 0 -8 7 -22 16 -30 22 -23 9 -36 -37 -36 l-39 0 0 55
c0 60 -3 62 -66 49 l-29 -6 -2 -103 -2 -104 35 6 c23 4 34 2 34 -7 0 -6 6 -10
13 -8 6 3 15 27 18 54 l6 49 1 -62 c2 -80 22 -83 22 -4 0 58 1 59 30 63 24 4
30 1 30 -14 0 -19 -15 -24 -25 -8 -11 18 -22 10 -22 -15 0 -20 5 -25 23 -25
19 0 24 -5 24 -25 0 -16 6 -25 15 -25 12 0 15 13 15 60 l0 60 35 0 c29 0 35
-4 35 -20 0 -18 -3 -19 -21 -9 -17 9 -23 8 -30 -2 -15 -23 -10 -41 9 -35 9 3
23 2 31 -3 18 -12 6 -42 -14 -35 -18 7 -19 -5 -1 -28 30 -40 45 -21 56 70 11
84 3 95 -57 86 -36 -5 -43 -4 -43 10 0 9 6 16 14 16 9 0 16 12 18 28 2 21 9
28 31 30 34 4 36 22 2 22 -20 0 -25 5 -25 25 0 16 -6 25 -15 25 -10 0 -15 -10
-15 -30z m-160 -70 c0 -11 -2 -20 -4 -20 -2 0 -11 -3 -20 -6 -11 -4 -16 0 -16
13 0 23 8 33 27 33 7 0 13 -9 13 -20z m150 6 c0 -17 -27 -29 -35 -16 -4 6 -3
15 0 20 9 15 35 12 35 -4z m-150 -65 c0 -10 -9 -21 -20 -24 -15 -4 -20 0 -20
13 0 10 8 21 18 23 9 3 18 5 20 6 1 0 2 -7 2 -18z m0 -61 c0 -13 -7 -20 -20
-20 -22 0 -28 25 -7 33 22 10 27 7 27 -13z"/>
<path d="M543 6985 c-2 -102 8 -137 21 -74 11 58 7 179 -6 179 -10 0 -14 -29
-15 -105z"/>
<path d="M565 6643 c-18 -4 -20 -13 -22 -108 -3 -158 22 -128 30 35 2 44 6 55
20 58 17 4 18 -4 16 -96 -2 -56 -1 -104 3 -107 20 -20 28 15 28 116 l0 109
-27 -1 c-16 -1 -37 -4 -48 -6z"/>
<path d="M565 6193 c-18 -4 -20 -13 -22 -108 -1 -58 2 -105 6 -105 10 0 21 50
21 95 0 25 5 34 21 38 21 6 21 3 17 -58 -6 -65 2 -93 21 -81 7 5 11 47 11 117
l0 109 -27 -1 c-16 -1 -37 -4 -48 -6z m45 -33 c0 -11 -2 -20 -4 -20 -2 0 -11
-3 -20 -6 -11 -4 -16 0 -16 13 0 23 8 33 27 33 7 0 13 -9 13 -20z"/>
<path d="M565 5743 c-18 -4 -20 -13 -22 -108 -2 -104 9 -138 21 -70 4 19 9 35
11 35 2 0 11 3 21 7 14 5 16 2 11 -28 -7 -37 4 -66 22 -55 7 5 11 47 11 117
l0 109 -27 -1 c-16 -1 -37 -4 -48 -6z m45 -33 c0 -11 -2 -20 -4 -20 -2 0 -11
-3 -20 -6 -11 -4 -16 0 -16 13 0 23 8 33 27 33 7 0 13 -9 13 -20z m0 -59 c0
-10 -9 -21 -20 -24 -15 -4 -20 0 -20 13 0 10 8 21 18 23 9 3 18 5 20 6 1 0 2
-7 2 -18z"/>
<path d="M565 5293 c-18 -4 -20 -13 -22 -108 l-2 -104 31 6 c19 4 33 1 38 -7
20 -32 30 6 30 111 l0 109 -27 -1 c-16 -1 -37 -4 -48 -6z m45 -33 c0 -11 -2
-20 -4 -20 -2 0 -11 -3 -20 -6 -11 -4 -16 0 -16 13 0 23 8 33 27 33 7 0 13 -9
13 -20z m0 -59 c0 -10 -9 -21 -20 -24 -15 -4 -20 0 -20 13 0 10 8 21 18 23 9
3 18 5 20 6 1 0 2 -7 2 -18z m0 -61 c0 -13 -7 -20 -20 -20 -22 0 -28 25 -7 33
22 10 27 7 27 -13z"/>
<path d="M718 4847 c-87 -12 -92 -32 -5 -23 104 12 137 18 137 27 0 11 -42 10
-132 -4z"/>
<path d="M565 4843 c-18 -4 -20 -13 -22 -108 l-2 -104 31 6 c19 4 33 1 38 -7
20 -32 30 6 30 111 l0 109 -27 -1 c-16 -1 -37 -4 -48 -6z m45 -33 c0 -11 -2
-20 -4 -20 -2 0 -11 -3 -20 -6 -11 -4 -16 0 -16 13 0 23 8 33 27 33 7 0 13 -9
13 -20z m0 -59 c0 -10 -9 -21 -20 -24 -15 -4 -20 0 -20 13 0 10 8 21 18 23 9
3 18 5 20 6 1 0 2 -7 2 -18z m0 -61 c0 -13 -7 -20 -20 -20 -22 0 -28 25 -7 33
22 10 27 7 27 -13z"/>
<path d="M696 4415 c5 -22 3 -25 -20 -25 -14 0 -26 -4 -26 -10 0 -5 11 -10 24
-10 17 0 26 -7 30 -25 9 -34 27 -32 24 2 -3 27 -1 28 60 36 85 12 82 32 -3 22
-61 -6 -65 -5 -65 14 0 12 -6 21 -15 21 -11 0 -14 -7 -9 -25z"/>
<path d="M565 4393 c-18 -4 -20 -13 -22 -108 l-2 -104 31 6 c19 4 33 1 38 -7
20 -32 30 6 30 111 l0 109 -27 -1 c-16 -1 -37 -4 -48 -6z m45 -33 c0 -11 -2
-20 -4 -20 -2 0 -11 -3 -20 -6 -11 -4 -16 0 -16 13 0 23 8 33 27 33 7 0 13 -9
13 -20z m0 -59 c0 -10 -9 -21 -20 -24 -15 -4 -20 0 -20 13 0 10 8 21 18 23 9
3 18 5 20 6 1 0 2 -7 2 -18z m0 -61 c0 -13 -7 -20 -20 -20 -22 0 -28 25 -7 33
22 10 27 7 27 -13z"/>
<path d="M770 3980 c0 -25 -4 -30 -25 -30 -18 0 -25 5 -25 20 0 11 -7 20 -15
20 -11 0 -14 -7 -9 -25 5 -22 3 -25 -20 -25 -14 0 -26 -4 -26 -10 0 -5 11 -10
24 -10 17 0 26 -7 30 -25 9 -34 27 -32 24 2 -2 19 2 28 15 31 12 2 17 -3 17
-17 0 -28 28 -27 32 2 2 16 11 23 31 25 34 4 36 22 2 22 -20 0 -25 5 -25 25 0
16 -6 25 -15 25 -10 0 -15 -10 -15 -30z"/>
<path d="M565 3943 c-18 -4 -20 -13 -22 -108 l-2 -104 31 6 c19 4 33 1 38 -7
20 -32 30 6 30 111 l0 109 -27 -1 c-16 -1 -37 -4 -48 -6z m45 -33 c0 -11 -2
-20 -4 -20 -2 0 -11 -3 -20 -6 -11 -4 -16 0 -16 13 0 23 8 33 27 33 7 0 13 -9
13 -20z m0 -59 c0 -10 -9 -21 -20 -24 -15 -4 -20 0 -20 13 0 10 8 21 18 23 9
3 18 5 20 6 1 0 2 -7 2 -18z m0 -61 c0 -13 -7 -20 -20 -20 -22 0 -28 25 -7 33
22 10 27 7 27 -13z"/>
<path d="M770 3530 c0 -25 -4 -30 -25 -30 -18 0 -25 5 -25 20 0 11 -7 20 -15
20 -11 0 -14 -7 -9 -25 5 -22 3 -25 -20 -25 -14 0 -26 -4 -26 -10 0 -5 11 -10
24 -10 17 0 26 -7 30 -26 6 -21 11 -25 29 -20 12 3 30 6 39 6 11 0 18 10 20
28 2 21 9 28 31 30 34 4 36 22 2 22 -20 0 -25 5 -25 25 0 16 -6 25 -15 25 -10
0 -15 -10 -15 -30z m-10 -64 c0 -17 -27 -29 -35 -16 -4 6 -3 15 0 20 9 15 35
12 35 -4z"/>
<path d="M565 3493 c-18 -4 -20 -13 -22 -108 l-2 -104 31 6 c19 4 33 1 38 -7
20 -32 30 6 30 111 l0 109 -27 -1 c-16 -1 -37 -4 -48 -6z m45 -33 c0 -11 -2
-20 -4 -20 -2 0 -11 -3 -20 -6 -11 -4 -16 0 -16 13 0 23 8 33 27 33 7 0 13 -9
13 -20z m0 -59 c0 -10 -9 -21 -20 -24 -15 -4 -20 0 -20 13 0 10 8 21 18 23 9
3 18 5 20 6 1 0 2 -7 2 -18z m0 -61 c0 -13 -7 -20 -20 -20 -22 0 -28 25 -7 33
22 10 27 7 27 -13z"/>
<path d="M770 3080 c0 -25 -4 -30 -25 -30 -18 0 -25 5 -25 20 0 11 -7 20 -15
20 -11 0 -14 -7 -9 -25 5 -22 3 -25 -20 -25 -14 0 -26 -4 -26 -10 0 -5 11 -10
24 -10 17 0 26 -7 30 -26 6 -21 11 -25 29 -20 12 3 30 6 39 6 11 0 18 10 20
28 2 21 9 28 31 30 34 4 36 22 2 22 -20 0 -25 5 -25 25 0 16 -6 25 -15 25 -10
0 -15 -10 -15 -30z m-10 -64 c0 -17 -27 -29 -35 -16 -4 6 -3 15 0 20 9 15 35
12 35 -4z"/>
<path d="M565 3043 c-18 -4 -20 -13 -22 -108 l-2 -104 35 6 c23 4 34 2 34 -7
0 -6 6 -10 13 -8 6 3 15 27 18 54 l6 49 1 -62 c3 -87 22 -80 22 7 0 56 -3 70
-15 70 -12 0 -15 13 -15 55 0 54 -1 55 -27 54 -16 -1 -37 -4 -48 -6z m45 -33
c0 -11 -2 -20 -4 -20 -2 0 -11 -3 -20 -6 -11 -4 -16 0 -16 13 0 23 8 33 27 33
7 0 13 -9 13 -20z m0 -59 c0 -10 -9 -21 -20 -24 -15 -4 -20 0 -20 13 0 10 8
21 18 23 9 3 18 5 20 6 1 0 2 -7 2 -18z m0 -61 c0 -13 -7 -20 -20 -20 -22 0
-28 25 -7 33 22 10 27 7 27 -13z"/>
<path d="M770 2630 c0 -25 -4 -30 -25 -30 -18 0 -25 5 -25 20 0 11 -7 20 -15
20 -11 0 -14 -7 -9 -25 5 -22 3 -25 -20 -25 -14 0 -26 -4 -26 -10 0 -5 11 -10
24 -10 17 0 26 -7 30 -26 6 -21 11 -25 29 -20 12 3 30 6 39 6 11 0 18 10 20
28 2 21 9 28 31 30 34 4 36 22 2 22 -20 0 -25 5 -25 25 0 16 -6 25 -15 25 -10
0 -15 -10 -15 -30z m-10 -64 c0 -17 -27 -29 -35 -16 -4 6 -3 15 0 20 9 15 35
12 35 -4z"/>
<path d="M565 2593 c-18 -4 -20 -13 -22 -108 l-2 -104 35 6 c23 4 34 2 34 -7
0 -6 6 -10 13 -8 6 3 15 27 18 54 l6 49 1 -62 c2 -80 22 -83 22 -4 l0 58 38 7
c20 3 56 6 80 6 l43 0 -3 -52 c-2 -44 -6 -52 -20 -50 -21 3 -22 -6 -3 -32 20
-26 43 -14 49 26 21 142 21 142 -85 128 -133 -17 -129 -19 -129 45 0 54 -1 55
-27 54 -16 -1 -37 -4 -48 -6z m45 -33 c0 -11 -2 -20 -4 -20 -2 0 -11 -3 -20
-6 -11 -4 -16 0 -16 13 0 23 8 33 27 33 7 0 13 -9 13 -20z m0 -59 c0 -10 -9
-21 -20 -24 -15 -4 -20 0 -20 13 0 10 8 21 18 23 9 3 18 5 20 6 1 0 2 -7 2
-18z m0 -61 c0 -13 -7 -20 -20 -20 -22 0 -28 25 -7 33 22 10 27 7 27 -13z"/>
<path d="M770 2180 c0 -25 -4 -30 -25 -30 -18 0 -25 5 -25 20 0 11 -7 20 -15
20 -11 0 -14 -7 -9 -25 5 -22 3 -25 -20 -25 -14 0 -26 -4 -26 -10 0 -5 11 -10
25 -10 15 0 25 -6 25 -14 0 -8 7 -22 16 -30 22 -23 9 -36 -37 -36 l-39 0 0 55
c0 60 -3 62 -66 49 l-29 -6 -2 -103 -2 -104 35 6 c23 4 34 2 34 -7 0 -6 6 -10
13 -8 6 3 15 27 18 54 l6 49 1 -62 c2 -80 22 -83 22 -4 0 58 1 59 30 63 l30 5
0 -59 c0 -45 3 -58 15 -58 12 0 15 13 15 60 l0 60 36 0 35 0 -3 -52 c-2 -44
-6 -52 -20 -50 -21 3 -22 -6 -4 -30 30 -40 45 -21 56 70 11 84 3 95 -57 86
-36 -5 -43 -4 -43 10 0 9 6 16 14 16 9 0 16 12 18 28 2 21 9 28 31 30 34 4 36
22 2 22 -20 0 -25 5 -25 25 0 16 -6 25 -15 25 -10 0 -15 -10 -15 -30z m-160
-70 c0 -11 -2 -20 -4 -20 -2 0 -11 -3 -20 -6 -11 -4 -16 0 -16 13 0 23 8 33
27 33 7 0 13 -9 13 -20z m150 6 c0 -17 -27 -29 -35 -16 -4 6 -3 15 0 20 9 15
35 12 35 -4z m-150 -65 c0 -10 -9 -21 -20 -24 -15 -4 -20 0 -20 13 0 10 8 21
18 23 9 3 18 5 20 6 1 0 2 -7 2 -18z m0 -61 c0 -13 -7 -20 -20 -20 -22 0 -28
25 -7 33 22 10 27 7 27 -13z"/>
<path d="M770 1730 c0 -25 -4 -30 -25 -30 -18 0 -25 5 -25 20 0 11 -7 20 -15
20 -11 0 -14 -7 -9 -25 5 -22 3 -25 -20 -25 -14 0 -26 -4 -26 -10 0 -5 11 -10
25 -10 15 0 25 -6 25 -14 0 -8 7 -22 16 -30 22 -23 9 -36 -37 -36 l-39 0 0 55
c0 60 -3 62 -66 49 l-29 -6 -2 -103 -2 -104 35 6 c23 4 34 2 34 -7 0 -6 6 -10
13 -8 6 3 15 27 18 54 l6 49 1 -62 c2 -80 22 -83 22 -4 0 58 1 59 30 63 l30 5
0 -59 c0 -45 3 -58 15 -58 12 0 15 13 15 60 l0 60 36 0 35 0 -3 -52 c-2 -44
-6 -52 -20 -50 -21 3 -22 -6 -4 -30 30 -40 45 -21 56 70 11 84 3 95 -57 86
-36 -5 -43 -4 -43 10 0 9 6 16 14 16 9 0 16 12 18 28 2 21 9 28 31 30 34 4 36
22 2 22 -20 0 -25 5 -25 25 0 16 -6 25 -15 25 -10 0 -15 -10 -15 -30z m-160
-70 c0 -11 -2 -20 -4 -20 -2 0 -11 -3 -20 -6 -11 -4 -16 0 -16 13 0 23 8 33
27 33 7 0 13 -9 13 -20z m150 6 c0 -17 -27 -29 -35 -16 -4 6 -3 15 0 20 9 15
35 12 35 -4z m-150 -65 c0 -10 -9 -21 -20 -24 -15 -4 -20 0 -20 13 0 10 8 21
18 23 9 3 18 5 20 6 1 0 2 -7 2 -18z m0 -61 c0 -13 -7 -20 -20 -20 -22 0 -28
25 -7 33 22 10 27 7 27 -13z"/>
<path d="M687 1533 c-12 -11 -8 -23 8 -23 8 0 15 7 15 15 0 16 -12 20 -23 8z"/>
<path d="M770 1280 c0 -25 -4 -30 -25 -30 -18 0 -25 5 -25 20 0 11 -7 20 -15
20 -11 0 -14 -7 -9 -25 5 -22 3 -25 -20 -25 -14 0 -26 -4 -26 -10 0 -5 11 -10
25 -10 15 0 25 -6 25 -14 0 -8 7 -22 16 -30 22 -23 9 -36 -37 -36 l-39 0 0 55
c0 60 -3 62 -66 49 l-29 -6 -2 -103 -2 -104 35 6 c23 4 34 2 34 -7 0 -6 6 -10
13 -8 6 3 15 27 18 54 l6 49 1 -62 c2 -80 22 -83 22 -4 0 58 1 59 30 63 24 4
30 1 30 -14 0 -19 -15 -24 -25 -8 -11 18 -22 10 -22 -15 0 -20 5 -25 23 -25
19 0 24 -5 24 -25 0 -16 6 -25 15 -25 12 0 15 13 15 60 l0 60 36 0 35 0 -3
-52 c-2 -44 -6 -52 -20 -50 -21 3 -22 -6 -4 -30 30 -40 45 -21 56 70 11 84 3
95 -57 86 -36 -5 -43 -4 -43 10 0 9 6 16 14 16 9 0 16 12 18 28 2 21 9 28 31
30 34 4 36 22 2 22 -20 0 -25 5 -25 25 0 16 -6 25 -15 25 -10 0 -15 -10 -15
-30z m-160 -70 c0 -11 -2 -20 -4 -20 -2 0 -11 -3 -20 -6 -11 -4 -16 0 -16 13
0 23 8 33 27 33 7 0 13 -9 13 -20z m150 6 c0 -17 -27 -29 -35 -16 -4 6 -3 15
0 20 9 15 35 12 35 -4z m-150 -65 c0 -10 -9 -21 -20 -24 -15 -4 -20 0 -20 13
0 10 8 21 18 23 9 3 18 5 20 6 1 0 2 -7 2 -18z m0 -61 c0 -13 -7 -20 -20 -20
-22 0 -28 25 -7 33 22 10 27 7 27 -13z"/>
<path d="M770 830 c0 -25 -4 -30 -25 -30 -18 0 -25 5 -25 20 0 11 -7 20 -15
20 -11 0 -14 -7 -9 -25 5 -22 3 -25 -20 -25 -14 0 -26 -4 -26 -10 0 -5 11 -10
25 -10 15 0 25 -6 25 -14 0 -8 7 -22 16 -30 22 -23 9 -36 -37 -36 l-39 0 0 55
c0 60 -3 62 -66 49 l-29 -6 -2 -103 -2 -104 35 6 c23 4 34 2 34 -7 0 -6 6 -10
13 -8 6 3 15 27 18 54 l6 49 1 -62 c2 -80 22 -83 22 -4 0 58 1 59 30 63 24 4
30 1 30 -14 0 -19 -15 -24 -25 -8 -11 18 -22 10 -22 -15 0 -20 5 -25 23 -25
19 0 24 -5 24 -25 0 -16 6 -25 15 -25 12 0 15 13 15 60 l0 60 36 0 35 0 -3
-52 c-2 -44 -6 -52 -20 -50 -21 3 -22 -6 -4 -30 30 -40 45 -21 56 70 11 84 3
95 -57 86 -36 -5 -43 -4 -43 10 0 9 6 16 14 16 9 0 16 12 18 28 2 21 9 28 31
30 34 4 36 22 2 22 -20 0 -25 5 -25 25 0 16 -6 25 -15 25 -10 0 -15 -10 -15
-30z m-160 -70 c0 -11 -2 -20 -4 -20 -2 0 -11 -3 -20 -6 -11 -4 -16 0 -16 13
0 23 8 33 27 33 7 0 13 -9 13 -20z m150 6 c0 -17 -27 -29 -35 -16 -4 6 -3 15
0 20 9 15 35 12 35 -4z m-150 -65 c0 -10 -9 -21 -20 -24 -15 -4 -20 0 -20 13
0 10 8 21 18 23 9 3 18 5 20 6 1 0 2 -7 2 -18z m0 -61 c0 -13 -7 -20 -20 -20
-22 0 -28 25 -7 33 22 10 27 7 27 -13z"/>
<path d="M770 624 c0 -17 22 -14 28 4 2 7 -3 12 -12 12 -9 0 -16 -7 -16 -16z"/>
<path d="M770 380 c0 -25 -4 -30 -25 -30 -18 0 -25 5 -25 20 0 11 -7 20 -15
20 -11 0 -14 -7 -9 -25 5 -22 3 -25 -20 -25 -14 0 -26 -4 -26 -10 0 -5 11 -10
25 -10 15 0 25 -6 25 -14 0 -8 7 -22 16 -30 22 -23 9 -36 -37 -36 l-39 0 0 55
c0 60 -3 62 -66 49 l-29 -6 -2 -103 -2 -104 35 6 c23 4 34 2 34 -7 0 -6 6 -10
13 -8 6 3 15 27 18 54 l6 49 1 -62 c2 -80 22 -83 22 -4 0 58 1 59 30 63 24 4
30 1 30 -14 0 -19 -15 -24 -25 -8 -11 18 -22 10 -22 -15 0 -20 5 -25 23 -25
19 0 24 -5 24 -25 0 -16 6 -25 15 -25 12 0 15 13 15 60 l0 60 35 0 c29 0 35
-4 35 -20 0 -18 -3 -19 -21 -9 -17 9 -23 8 -30 -2 -15 -23 -10 -41 9 -35 9 3
23 2 31 -3 18 -12 6 -42 -14 -35 -18 7 -19 -5 -1 -29 30 -39 45 -20 56 71 11
84 3 95 -57 86 -36 -5 -43 -4 -43 10 0 9 6 16 14 16 9 0 16 12 18 28 2 21 9
28 31 30 34 4 36 22 2 22 -20 0 -25 5 -25 25 0 16 -6 25 -15 25 -10 0 -15 -10
-15 -30z m-160 -70 c0 -11 -2 -20 -4 -20 -2 0 -11 -3 -20 -6 -11 -4 -16 0 -16
13 0 23 8 33 27 33 7 0 13 -9 13 -20z m150 6 c0 -17 -27 -29 -35 -16 -4 6 -3
15 0 20 9 15 35 12 35 -4z m-150 -65 c0 -10 -9 -21 -20 -24 -15 -4 -20 0 -20
13 0 10 8 21 18 23 9 3 18 5 20 6 1 0 2 -7 2 -18z m0 -61 c0 -13 -7 -20 -20
-20 -22 0 -28 25 -7 33 22 10 27 7 27 -13z"/>
</g>
</svg>
