<?xml version="1.0" standalone="no"?>
<!DOCTYPE svg PUBLIC "-//W3C//DTD SVG 20010904//EN"
 "http://www.w3.org/TR/2001/REC-SVG-20010904/DTD/svg10.dtd">
<svg version="1.0" xmlns="http://www.w3.org/2000/svg"
 width="50.000000pt" height="725.000000pt" viewBox="0 0 50.000000 725.000000"
 preserveAspectRatio="xMidYMid meet">
<metadata>
Created by potrace 1.16, written by Peter Selinger 2001-2019
</metadata>
<g transform="translate(0.000000,725.000000) scale(0.100000,-0.100000)"
fill="#000000" stroke="none">
<path d="M90 7007 c0 -47 -2 -91 -5 -99 -5 -14 11 -46 18 -38 3 3 6 52 8 109
3 77 1 105 -8 108 -10 4 -13 -17 -13 -80z"/>
<path d="M118 6643 c-27 -4 -27 -5 -30 -101 -3 -103 -1 -122 13 -122 5 0 9 35
9 78 0 98 7 122 33 122 19 0 19 -5 15 -100 -4 -76 -2 -100 7 -100 18 0 20 14
20 125 -1 110 0 109 -67 98z"/>
<path d="M118 6193 c-27 -4 -27 -5 -30 -101 -3 -103 -1 -122 13 -122 5 0 9 29
9 64 0 49 4 65 16 70 34 13 37 7 31 -64 -5 -55 -3 -70 8 -70 18 0 20 13 20
125 -1 110 0 109 -67 98z m42 -43 c0 -14 -7 -20 -24 -20 -19 0 -23 4 -19 20 3
11 14 20 24 20 12 0 19 -7 19 -20z"/>
<path d="M118 5743 c-27 -4 -27 -5 -30 -101 -3 -103 -1 -122 13 -122 5 0 9 18
9 40 0 36 2 40 26 40 25 0 25 -2 19 -40 -5 -32 -4 -40 8 -40 21 0 22 11 22
125 -1 110 0 109 -67 98z m42 -43 c0 -14 -7 -20 -24 -20 -19 0 -23 4 -19 20 3
11 14 20 24 20 12 0 19 -7 19 -20z m0 -60 c0 -15 -7 -20 -25 -20 -41 0 -30 37
13 39 6 1 12 -8 12 -19z"/>
<path d="M118 5293 c-28 -4 -28 -4 -28 -88 0 -46 -2 -89 -5 -97 -7 -18 15 -48
22 -30 6 14 43 16 43 2 0 -14 27 -12 32 3 2 6 3 57 3 112 -1 110 0 109 -67 98z
m42 -43 c0 -14 -7 -20 -24 -20 -19 0 -23 4 -19 20 3 11 14 20 24 20 12 0 19
-7 19 -20z m0 -60 c0 -15 -7 -20 -25 -20 -41 0 -30 37 13 39 6 1 12 -8 12 -19z
m0 -60 c0 -15 -7 -20 -25 -20 -18 0 -25 5 -25 20 0 15 7 20 25 20 18 0 25 -5
25 -20z"/>
<path d="M278 4858 c5 -60 9 -68 23 -48 15 24 7 94 -12 98 -14 2 -15 -5 -11
-50z"/>
<path d="M118 4843 c-28 -4 -28 -4 -28 -88 0 -46 -2 -89 -5 -97 -7 -18 15 -48
22 -30 6 14 43 16 43 2 0 -14 27 -12 32 3 2 6 3 57 3 112 -1 110 0 109 -67 98z
m42 -43 c0 -14 -7 -20 -24 -20 -19 0 -23 4 -19 20 3 11 14 20 24 20 12 0 19
-7 19 -20z m0 -60 c0 -15 -7 -20 -25 -20 -41 0 -30 37 13 39 6 1 12 -8 12 -19z
m0 -60 c0 -15 -7 -20 -25 -20 -18 0 -25 5 -25 20 0 15 7 20 25 20 18 0 25 -5
25 -20z"/>
<path d="M278 4408 c5 -60 9 -68 23 -48 15 24 7 94 -12 98 -14 2 -15 -5 -11
-50z"/>
<path d="M222 4394 c2 -11 11 -20 22 -22 13 -3 17 1 14 14 -2 11 -11 20 -22
22 -13 3 -17 -1 -14 -14z"/>
<path d="M118 4393 c-28 -4 -28 -4 -28 -88 0 -46 -2 -89 -5 -97 -7 -18 15 -48
22 -30 6 14 43 16 43 2 0 -14 27 -12 32 3 2 6 3 57 3 112 -1 110 0 109 -67 98z
m42 -43 c0 -14 -7 -20 -24 -20 -19 0 -23 4 -19 20 3 11 14 20 24 20 12 0 19
-7 19 -20z m0 -60 c0 -15 -7 -20 -25 -20 -41 0 -30 37 13 39 6 1 12 -8 12 -19z
m0 -60 c0 -15 -7 -20 -25 -20 -18 0 -25 5 -25 20 0 15 7 20 25 20 18 0 25 -5
25 -20z"/>
<path d="M278 3958 c5 -60 9 -68 23 -48 15 24 7 94 -12 98 -14 2 -15 -5 -11
-50z"/>
<path d="M340 3959 c-7 -11 -9 -24 -5 -27 9 -9 40 13 43 32 5 23 -25 20 -38
-5z"/>
<path d="M222 3944 c2 -11 11 -20 22 -22 13 -3 17 1 14 14 -2 11 -11 20 -22
22 -13 3 -17 -1 -14 -14z"/>
<path d="M118 3943 c-28 -4 -28 -4 -28 -88 0 -46 -2 -89 -5 -97 -7 -18 15 -48
22 -30 6 14 43 16 43 2 0 -14 27 -12 32 3 2 6 3 57 3 112 -1 110 0 109 -67 98z
m42 -43 c0 -14 -7 -20 -24 -20 -19 0 -23 4 -19 20 3 11 14 20 24 20 12 0 19
-7 19 -20z m0 -60 c0 -15 -7 -20 -25 -20 -41 0 -30 37 13 39 6 1 12 -8 12 -19z
m0 -60 c0 -15 -7 -20 -25 -20 -18 0 -25 5 -25 20 0 15 7 20 25 20 18 0 25 -5
25 -20z"/>
<path d="M278 3508 c5 -60 9 -68 23 -48 15 24 7 94 -12 98 -14 2 -15 -5 -11
-50z"/>
<path d="M340 3509 c-7 -11 -9 -24 -5 -27 9 -9 40 13 43 32 5 23 -25 20 -38
-5z"/>
<path d="M222 3494 c2 -11 11 -20 22 -22 13 -3 17 1 14 14 -2 11 -11 20 -22
22 -13 3 -17 -1 -14 -14z"/>
<path d="M118 3493 c-28 -4 -28 -4 -28 -88 0 -46 -2 -89 -5 -97 -7 -18 15 -48
22 -30 6 14 43 16 43 2 0 -14 27 -12 32 3 2 6 3 57 3 112 -1 110 0 109 -67 98z
m42 -43 c0 -14 -7 -20 -24 -20 -19 0 -23 4 -19 20 3 11 14 20 24 20 12 0 19
-7 19 -20z m0 -60 c0 -15 -7 -20 -25 -20 -41 0 -30 37 13 39 6 1 12 -8 12 -19z
m0 -60 c0 -15 -7 -20 -25 -20 -18 0 -25 5 -25 20 0 15 7 20 25 20 18 0 25 -5
25 -20z"/>
<path d="M196 3438 c-9 -36 -7 -48 8 -48 15 0 30 45 21 60 -10 17 -22 11 -29
-12z"/>
<path d="M275 3058 l0 -53 -37 1 c-36 1 -47 -11 -48 -53 0 -21 27 -15 33 7 4
14 17 21 56 26 28 4 51 10 51 15 0 5 -6 9 -12 9 -9 0 -13 16 -13 47 0 35 -4
48 -15 51 -13 2 -16 -8 -15 -50z"/>
<path d="M340 3059 c-7 -11 -9 -24 -5 -27 9 -9 40 13 43 32 5 23 -25 20 -38
-5z"/>
<path d="M222 3044 c2 -11 11 -20 22 -22 13 -3 17 1 14 14 -2 11 -11 20 -22
22 -13 3 -17 -1 -14 -14z"/>
<path d="M118 3043 c-28 -4 -28 -4 -28 -88 0 -46 -2 -89 -5 -97 -7 -18 15 -48
22 -30 6 14 43 16 43 2 0 -14 27 -12 32 3 2 6 3 57 3 112 -1 110 0 109 -67 98z
m42 -43 c0 -14 -7 -20 -24 -20 -19 0 -23 4 -19 20 3 11 14 20 24 20 12 0 19
-7 19 -20z m0 -60 c0 -15 -7 -20 -25 -20 -41 0 -30 37 13 39 6 1 12 -8 12 -19z
m0 -60 c0 -15 -7 -20 -25 -20 -18 0 -25 5 -25 20 0 15 7 20 25 20 18 0 25 -5
25 -20z"/>
<path d="M350 3010 c0 -5 4 -10 10 -10 5 0 7 -7 4 -15 -6 -16 12 -20 40 -9 35
13 11 44 -35 44 -10 0 -19 -4 -19 -10z"/>
<path d="M275 2608 l0 -53 -37 1 c-36 1 -47 -11 -48 -53 0 -21 27 -15 33 7 4
14 17 21 56 26 28 4 51 10 51 15 0 5 -6 9 -12 9 -9 0 -13 16 -13 47 0 35 -4
48 -15 51 -13 2 -16 -8 -15 -50z"/>
<path d="M340 2609 c-7 -11 -9 -24 -5 -27 9 -9 40 13 43 32 5 23 -25 20 -38
-5z"/>
<path d="M222 2594 c2 -11 11 -20 22 -22 13 -3 17 1 14 14 -2 11 -11 20 -22
22 -13 3 -17 -1 -14 -14z"/>
<path d="M118 2593 c-28 -4 -28 -4 -28 -88 0 -46 -2 -89 -5 -97 -7 -18 15 -48
22 -30 6 14 43 16 43 2 0 -14 27 -12 32 3 2 6 3 57 3 112 -1 110 0 109 -67 98z
m42 -43 c0 -14 -7 -20 -24 -20 -19 0 -23 4 -19 20 3 11 14 20 24 20 12 0 19
-7 19 -20z m0 -60 c0 -15 -7 -20 -25 -20 -41 0 -30 37 13 39 6 1 12 -8 12 -19z
m0 -60 c0 -15 -7 -20 -25 -20 -18 0 -25 5 -25 20 0 15 7 20 25 20 18 0 25 -5
25 -20z"/>
<path d="M350 2560 c0 -5 4 -10 10 -10 5 0 7 -7 4 -15 -6 -16 12 -20 40 -9 35
13 11 44 -35 44 -10 0 -19 -4 -19 -10z"/>
<path d="M234 2494 c3 -9 6 -22 6 -30 0 -8 5 -14 10 -14 6 0 10 14 10 30 0 21
-5 30 -16 30 -11 0 -14 -5 -10 -16z"/>
<path d="M275 2158 l0 -53 -37 1 c-36 1 -47 -11 -48 -53 0 -21 27 -15 33 7 4
14 17 21 56 26 28 4 51 10 51 15 0 5 -6 9 -12 9 -9 0 -13 16 -13 47 0 35 -4
48 -15 51 -13 2 -16 -8 -15 -50z"/>
<path d="M340 2159 c-7 -11 -9 -24 -5 -27 9 -9 40 13 43 32 5 23 -25 20 -38
-5z"/>
<path d="M222 2144 c2 -11 11 -20 22 -22 13 -3 17 1 14 14 -2 11 -11 20 -22
22 -13 3 -17 -1 -14 -14z"/>
<path d="M118 2143 c-28 -4 -28 -4 -28 -88 0 -46 -2 -89 -5 -97 -7 -18 15 -48
22 -30 6 14 43 16 43 2 0 -14 27 -12 32 3 2 6 3 57 3 112 -1 110 0 109 -67 98z
m42 -43 c0 -14 -7 -20 -24 -20 -19 0 -23 4 -19 20 3 11 14 20 24 20 12 0 19
-7 19 -20z m0 -60 c0 -15 -7 -20 -25 -20 -41 0 -30 37 13 39 6 1 12 -8 12 -19z
m0 -60 c0 -15 -7 -20 -25 -20 -18 0 -25 5 -25 20 0 15 7 20 25 20 18 0 25 -5
25 -20z"/>
<path d="M350 2110 c0 -5 4 -10 10 -10 5 0 7 -7 4 -15 -6 -16 12 -20 40 -9 35
13 11 44 -35 44 -10 0 -19 -4 -19 -10z"/>
<path d="M300 2060 c0 -5 5 -10 10 -10 6 0 10 -9 10 -20 0 -11 4 -20 9 -20 15
0 33 29 27 45 -6 17 -56 21 -56 5z"/>
<path d="M234 2044 c3 -9 6 -22 6 -30 0 -8 5 -14 10 -14 6 0 10 9 10 20 0 11
5 20 10 20 6 0 10 5 10 10 0 6 -12 10 -26 10 -20 0 -25 -4 -20 -16z"/>
<path d="M275 1708 l0 -53 -37 1 c-36 1 -47 -11 -48 -53 0 -21 27 -15 33 7 4
14 17 21 56 26 28 4 51 10 51 15 0 5 -6 9 -12 9 -9 0 -13 16 -13 47 0 35 -4
48 -15 51 -13 2 -16 -8 -15 -50z"/>
<path d="M340 1709 c-7 -11 -9 -24 -5 -27 9 -9 40 13 43 32 5 23 -25 20 -38
-5z"/>
<path d="M222 1694 c2 -11 11 -20 22 -22 13 -3 17 1 14 14 -2 11 -11 20 -22
22 -13 3 -17 -1 -14 -14z"/>
<path d="M118 1693 c-28 -4 -28 -4 -28 -88 0 -46 -2 -89 -5 -97 -7 -18 15 -48
22 -30 6 14 43 16 43 2 0 -14 27 -12 32 3 2 6 3 57 3 112 -1 110 0 109 -67 98z
m42 -43 c0 -14 -7 -20 -24 -20 -19 0 -23 4 -19 20 3 11 14 20 24 20 12 0 19
-7 19 -20z m0 -60 c0 -15 -7 -20 -25 -20 -41 0 -30 37 13 39 6 1 12 -8 12 -19z
m0 -60 c0 -15 -7 -20 -25 -20 -18 0 -25 5 -25 20 0 15 7 20 25 20 18 0 25 -5
25 -20z"/>
<path d="M350 1660 c0 -5 4 -10 10 -10 5 0 7 -7 4 -15 -6 -16 12 -20 40 -9 35
13 11 44 -35 44 -10 0 -19 -4 -19 -10z"/>
<path d="M300 1610 c0 -5 5 -10 10 -10 20 0 10 -28 -12 -34 -25 -6 -52 13 -30
21 21 8 13 23 -13 23 -23 0 -25 -3 -19 -27 10 -40 16 -44 61 -37 64 10 87 74
27 74 -13 0 -24 -4 -24 -10z"/>
<path d="M275 1258 l0 -53 -37 1 c-36 1 -47 -11 -48 -53 0 -21 27 -15 33 7 4
14 17 21 56 26 28 4 51 10 51 15 0 5 -6 9 -12 9 -9 0 -13 16 -13 47 0 35 -4
48 -15 51 -13 2 -16 -8 -15 -50z"/>
<path d="M340 1259 c-7 -11 -9 -24 -5 -27 9 -9 40 13 43 32 5 23 -25 20 -38
-5z"/>
<path d="M222 1244 c2 -11 11 -20 22 -22 13 -3 17 1 14 14 -2 11 -11 20 -22
22 -13 3 -17 -1 -14 -14z"/>
<path d="M118 1243 c-28 -4 -28 -4 -28 -88 0 -46 -2 -89 -5 -97 -7 -18 15 -48
22 -30 6 14 43 16 43 2 0 -14 27 -12 32 3 2 6 3 57 3 112 -1 110 0 109 -67 98z
m42 -43 c0 -14 -7 -20 -24 -20 -19 0 -23 4 -19 20 3 11 14 20 24 20 12 0 19
-7 19 -20z m0 -60 c0 -15 -7 -20 -25 -20 -41 0 -30 37 13 39 6 1 12 -8 12 -19z
m0 -60 c0 -15 -7 -20 -25 -20 -18 0 -25 5 -25 20 0 15 7 20 25 20 18 0 25 -5
25 -20z"/>
<path d="M350 1210 c0 -5 4 -10 10 -10 5 0 7 -7 4 -15 -6 -16 12 -20 40 -9 35
13 11 44 -35 44 -10 0 -19 -4 -19 -10z"/>
<path d="M300 1160 c0 -5 5 -10 10 -10 20 0 10 -28 -12 -34 -25 -6 -52 13 -30
21 21 8 13 23 -13 23 -23 0 -25 -3 -19 -27 10 -40 16 -44 61 -37 64 10 87 74
27 74 -13 0 -24 -4 -24 -10z"/>
<path d="M263 1063 c-40 -5 -44 -23 -5 -23 45 0 102 12 102 21 0 9 -35 9 -97
2z"/>
<path d="M275 808 l0 -53 -37 1 c-36 1 -47 -11 -48 -53 0 -21 27 -15 33 7 4
14 17 21 56 26 28 4 51 10 51 15 0 5 -6 9 -12 9 -9 0 -13 16 -13 47 0 35 -4
48 -15 51 -13 2 -16 -8 -15 -50z"/>
<path d="M340 809 c-7 -11 -9 -24 -5 -27 9 -9 40 13 43 32 5 23 -25 20 -38 -5z"/>
<path d="M222 794 c2 -11 11 -20 22 -22 13 -3 17 1 14 14 -2 11 -11 20 -22 22
-13 3 -17 -1 -14 -14z"/>
<path d="M118 793 c-28 -4 -28 -4 -28 -88 0 -46 -2 -89 -5 -97 -7 -18 15 -48
22 -30 6 14 43 16 43 2 0 -14 27 -12 32 3 2 6 3 57 3 112 -1 110 0 109 -67 98z
m42 -43 c0 -14 -7 -20 -24 -20 -19 0 -23 4 -19 20 3 11 14 20 24 20 12 0 19
-7 19 -20z m0 -60 c0 -15 -7 -20 -25 -20 -41 0 -30 37 13 39 6 1 12 -8 12 -19z
m0 -60 c0 -15 -7 -20 -25 -20 -18 0 -25 5 -25 20 0 15 7 20 25 20 18 0 25 -5
25 -20z"/>
<path d="M350 760 c0 -5 4 -10 10 -10 5 0 7 -7 4 -15 -6 -16 12 -20 40 -9 35
13 11 44 -35 44 -10 0 -19 -4 -19 -10z"/>
<path d="M300 710 c0 -5 5 -10 10 -10 20 0 10 -28 -12 -34 -25 -6 -52 13 -30
21 21 8 13 23 -13 23 -23 0 -25 -3 -19 -27 9 -38 13 -43 30 -43 8 0 14 -7 14
-15 0 -9 -9 -15 -25 -15 -14 0 -25 -4 -25 -10 0 -5 11 -10 25 -10 19 0 25 -5
25 -21 0 -27 24 -19 28 9 2 16 10 22 28 22 13 0 24 5 24 10 0 6 -11 10 -25 10
-16 0 -25 6 -25 15 0 8 6 15 13 15 17 0 42 45 33 59 -9 14 -56 15 -56 1z"/>
<path d="M275 358 l0 -53 -37 1 c-36 1 -47 -11 -48 -53 0 -21 27 -15 33 7 4
14 17 21 56 26 28 4 51 10 51 15 0 5 -6 9 -12 9 -9 0 -13 16 -13 47 0 35 -4
48 -15 51 -13 2 -16 -8 -15 -50z"/>
<path d="M340 359 c-7 -11 -9 -24 -5 -27 9 -9 40 13 43 32 5 23 -25 20 -38 -5z"/>
<path d="M222 344 c2 -11 11 -20 22 -22 13 -3 17 1 14 14 -2 11 -11 20 -22 22
-13 3 -17 -1 -14 -14z"/>
<path d="M118 343 c-28 -4 -28 -4 -28 -88 0 -46 -2 -89 -5 -97 -7 -18 15 -48
22 -30 6 14 43 16 43 2 0 -14 27 -12 32 2 2 7 3 58 3 113 -1 110 0 109 -67 98z
m42 -43 c0 -14 -7 -20 -24 -20 -19 0 -23 4 -19 20 3 11 14 20 24 20 12 0 19
-7 19 -20z m0 -60 c0 -15 -7 -20 -25 -20 -41 0 -30 37 13 39 6 1 12 -8 12 -19z
m0 -60 c0 -15 -7 -20 -25 -20 -18 0 -25 5 -25 20 0 15 7 20 25 20 18 0 25 -5
25 -20z"/>
<path d="M350 310 c0 -5 4 -10 10 -10 5 0 7 -7 4 -15 -6 -16 12 -20 40 -9 35
13 11 44 -35 44 -10 0 -19 -4 -19 -10z"/>
<path d="M300 260 c0 -5 5 -10 10 -10 20 0 10 -28 -12 -34 -25 -6 -52 13 -30
21 21 8 13 23 -13 23 -23 0 -25 -3 -19 -27 9 -38 13 -43 30 -43 8 0 14 -7 14
-15 0 -9 -9 -15 -25 -15 -14 0 -25 -4 -25 -10 0 -5 11 -10 25 -10 16 0 25 -6
25 -15 0 -11 -12 -15 -46 -15 -32 0 -44 -4 -41 -12 2 -7 13 -13 25 -12 12 0
61 1 108 2 63 2 85 5 82 15 -3 6 -25 13 -51 15 -33 2 -47 7 -47 18 0 8 10 14
25 14 14 0 25 5 25 10 0 6 -11 10 -25 10 -16 0 -25 6 -25 15 0 8 6 15 13 15
17 0 42 45 33 59 -9 14 -56 15 -56 1z"/>
</g>
</svg>
