<?xml version="1.0" standalone="no"?>
<!DOCTYPE svg PUBLIC "-//W3C//DTD SVG 20010904//EN"
 "http://www.w3.org/TR/2001/REC-SVG-20010904/DTD/svg10.dtd">
<svg version="1.0" xmlns="http://www.w3.org/2000/svg"
 width="95.000000pt" height="725.000000pt" viewBox="0 0 95.000000 725.000000"
 preserveAspectRatio="xMidYMid meet">
<metadata>
Created by potrace 1.16, written by Peter Selinger 2001-2019
</metadata>
<g transform="translate(0.000000,725.000000) scale(0.100000,-0.100000)"
fill="#000000" stroke="none">
<path d="M260 7145 c0 -19 -36 -93 -58 -118 -17 -19 -11 -33 10 -21 7 4 22 8
33 9 69 4 75 6 75 21 0 16 -19 15 -65 -2 -14 -6 -13 0 6 30 l24 37 40 -46 c32
-36 46 -45 73 -45 39 0 41 12 6 29 -42 19 -93 62 -107 89 -14 30 -37 41 -37
17z"/>
<path d="M113 7108 l-33 -11 -2 -83 c-1 -46 -2 -94 -2 -106 -1 -19 4 -23 27
-20 16 2 35 -2 43 -9 25 -21 32 2 35 112 3 135 1 139 -68 117z m37 -37 c0 -10
-7 -22 -16 -25 -23 -9 -24 -8 -24 19 0 18 5 25 20 25 13 0 20 -7 20 -19z m0
-65 c0 -7 -10 -16 -22 -19 -27 -7 -32 -3 -25 18 8 19 47 20 47 1z m0 -65 c0
-12 -9 -20 -25 -23 -21 -4 -25 -1 -25 18 0 19 5 24 25 24 18 0 25 -5 25 -19z"/>
<path d="M528 6998 c-4 -89 2 -133 15 -117 3 2 7 52 11 112 5 89 4 107 -8 107
-11 0 -15 -23 -18 -102z"/>
<path d="M320 6991 c0 -5 5 -11 12 -13 6 -2 8 -10 4 -16 -11 -19 -26 -14 -26
8 0 16 -7 20 -35 20 -27 0 -34 -4 -32 -17 1 -10 -2 -18 -8 -18 -5 0 -9 5 -7
12 2 7 -4 13 -13 13 -18 0 -20 -23 -4 -51 8 -16 7 -26 -6 -46 -19 -28 -13 -42
10 -23 13 11 19 10 35 -5 17 -15 22 -16 37 -4 25 20 58 62 58 74 0 5 6 16 13
23 22 24 15 52 -13 52 -14 0 -25 -4 -25 -9z m-17 -63 c7 -4 5 -15 -7 -32 -13
-20 -19 -24 -29 -14 -13 12 -18 48 -6 48 4 0 10 10 14 23 7 21 7 21 12 2 3
-11 10 -23 16 -27z"/>
<path d="M260 6695 c0 -19 -36 -93 -58 -118 -17 -19 -11 -33 10 -21 7 4 22 8
33 9 69 4 75 6 75 21 0 16 -19 15 -65 -2 -14 -6 -13 0 6 30 l24 37 40 -46 c32
-36 46 -45 73 -45 39 0 41 12 6 29 -42 19 -93 62 -107 89 -14 30 -37 41 -37
17z"/>
<path d="M113 6658 l-33 -11 -2 -83 c-1 -46 -2 -94 -2 -106 -1 -19 4 -23 27
-20 16 2 35 -2 43 -9 25 -21 32 2 35 112 3 135 1 139 -68 117z m37 -37 c0 -10
-7 -22 -16 -25 -23 -9 -24 -8 -24 19 0 18 5 25 20 25 13 0 20 -7 20 -19z m0
-65 c0 -7 -10 -16 -22 -19 -27 -7 -32 -3 -25 18 8 19 47 20 47 1z m0 -65 c0
-12 -9 -20 -25 -23 -21 -4 -25 -1 -25 18 0 19 5 24 25 24 18 0 25 -5 25 -19z"/>
<path d="M563 6658 l-33 -11 -2 -83 c-1 -46 -2 -94 -2 -106 -1 -12 5 -23 12
-25 8 -3 12 10 12 49 0 29 3 77 6 106 6 43 10 52 26 52 19 0 20 -6 16 -107 -2
-91 -1 -108 12 -108 12 0 16 21 20 110 7 138 3 145 -67 123z"/>
<path d="M320 6541 c0 -5 5 -11 12 -13 6 -2 8 -10 4 -16 -11 -19 -26 -14 -26
8 0 16 -7 20 -35 20 -27 0 -34 -4 -32 -17 1 -10 -2 -18 -8 -18 -5 0 -9 5 -7
12 2 7 -4 13 -13 13 -18 0 -20 -23 -4 -51 8 -16 7 -26 -6 -46 -19 -28 -13 -42
10 -23 13 11 19 10 35 -5 17 -15 22 -16 37 -4 10 8 21 18 25 24 4 6 19 -2 36
-18 34 -33 44 -34 40 -4 -2 12 -13 26 -25 32 -24 10 -27 41 -5 63 22 24 15 52
-13 52 -14 0 -25 -4 -25 -9z m-17 -63 c7 -4 5 -15 -7 -32 -13 -20 -19 -24 -29
-14 -13 12 -18 48 -6 48 4 0 10 10 14 23 7 21 7 21 12 2 3 -11 10 -23 16 -27z"/>
<path d="M563 6208 l-33 -11 -2 -83 c-1 -46 -2 -94 -2 -106 -1 -12 4 -23 11
-25 8 -3 13 16 15 64 3 63 5 68 27 71 23 4 23 2 20 -70 -3 -60 -1 -73 11 -73
12 0 16 21 20 110 7 138 3 145 -67 123z m37 -37 c0 -10 -7 -22 -16 -25 -23 -9
-24 -8 -24 19 0 18 5 25 20 25 13 0 20 -7 20 -19z"/>
<path d="M563 5758 l-33 -11 -2 -83 c-1 -46 -2 -94 -2 -106 -1 -12 5 -23 12
-25 8 -3 12 8 12 36 0 37 2 41 26 41 24 0 25 -3 22 -42 -2 -33 1 -43 12 -43
12 0 16 21 20 110 7 138 3 145 -67 123z m37 -37 c0 -10 -7 -22 -16 -25 -23 -9
-24 -8 -24 19 0 18 5 25 20 25 13 0 20 -7 20 -19z m0 -65 c0 -7 -10 -16 -22
-19 -27 -7 -32 -3 -25 18 8 19 47 20 47 1z"/>
<path d="M563 5308 l-33 -11 -2 -83 c-1 -46 -2 -94 -2 -106 -1 -19 4 -23 27
-20 16 2 35 -2 43 -9 25 -21 32 2 35 112 3 135 1 139 -68 117z m37 -37 c0 -10
-7 -22 -16 -25 -23 -9 -24 -8 -24 19 0 18 5 25 20 25 13 0 20 -7 20 -19z m0
-65 c0 -7 -10 -16 -22 -19 -27 -7 -32 -3 -25 18 8 19 47 20 47 1z m0 -65 c0
-12 -9 -20 -25 -23 -21 -4 -25 -1 -25 18 0 19 5 24 25 24 18 0 25 -5 25 -19z"/>
<path d="M710 4895 c0 -19 -37 -94 -58 -118 -8 -9 -12 -20 -9 -24 10 -10 55
36 84 85 20 34 23 45 13 57 -16 19 -30 19 -30 0z"/>
<path d="M563 4858 l-33 -11 -2 -83 c-1 -46 -2 -94 -2 -106 -1 -19 4 -23 27
-20 16 2 35 -2 43 -9 25 -21 32 2 35 112 3 135 1 139 -68 117z m37 -37 c0 -10
-7 -22 -16 -25 -23 -9 -24 -8 -24 19 0 18 5 25 20 25 13 0 20 -7 20 -19z m0
-65 c0 -7 -10 -16 -22 -19 -27 -7 -32 -3 -25 18 8 19 47 20 47 1z m0 -65 c0
-12 -9 -20 -25 -23 -21 -4 -25 -1 -25 18 0 19 5 24 25 24 18 0 25 -5 25 -19z"/>
<path d="M710 4445 c0 -19 -36 -93 -58 -118 -8 -9 -12 -20 -9 -23 9 -9 35 14
68 59 l27 38 37 -46 c31 -37 43 -45 71 -45 41 0 44 12 8 29 -42 19 -93 62
-107 89 -14 30 -37 41 -37 17z"/>
<path d="M563 4408 l-33 -11 -2 -83 c-1 -46 -2 -94 -2 -106 -1 -19 4 -23 27
-20 16 2 35 -2 43 -9 25 -21 32 2 35 112 3 135 1 139 -68 117z m37 -37 c0 -10
-7 -22 -16 -25 -23 -9 -24 -8 -24 19 0 18 5 25 20 25 13 0 20 -7 20 -19z m0
-65 c0 -7 -10 -16 -22 -19 -27 -7 -32 -3 -25 18 8 19 47 20 47 1z m0 -65 c0
-12 -9 -20 -25 -23 -21 -4 -25 -1 -25 18 0 19 5 24 25 24 18 0 25 -5 25 -19z"/>
<path d="M710 3995 c0 -19 -36 -93 -58 -118 -17 -19 -11 -33 10 -21 7 4 22 8
33 9 69 4 75 6 75 21 0 16 -19 15 -65 -2 -14 -6 -13 0 6 30 l24 37 40 -46 c32
-36 46 -45 73 -45 39 0 41 12 6 29 -42 19 -93 62 -107 89 -14 30 -37 41 -37
17z"/>
<path d="M563 3958 l-33 -11 -2 -83 c-1 -46 -2 -94 -2 -106 -1 -19 4 -23 27
-20 16 2 35 -2 43 -9 25 -21 32 2 35 112 3 135 1 139 -68 117z m37 -37 c0 -10
-7 -22 -16 -25 -23 -9 -24 -8 -24 19 0 18 5 25 20 25 13 0 20 -7 20 -19z m0
-65 c0 -7 -10 -16 -22 -19 -27 -7 -32 -3 -25 18 8 19 47 20 47 1z m0 -65 c0
-12 -9 -20 -25 -23 -21 -4 -25 -1 -25 18 0 19 5 24 25 24 18 0 25 -5 25 -19z"/>
<path d="M710 3545 c0 -19 -36 -93 -58 -118 -17 -19 -11 -33 10 -21 7 4 22 8
33 9 69 4 75 6 75 21 0 16 -19 15 -65 -2 -14 -6 -13 0 6 30 l24 37 40 -46 c32
-36 46 -45 73 -45 39 0 41 12 6 29 -42 19 -93 62 -107 89 -14 30 -37 41 -37
17z"/>
<path d="M563 3508 l-33 -11 -2 -83 c-1 -46 -2 -94 -2 -106 -1 -19 4 -23 27
-20 16 2 35 -2 43 -9 25 -21 32 2 35 112 3 135 1 139 -68 117z m37 -37 c0 -10
-7 -22 -16 -25 -23 -9 -24 -8 -24 19 0 18 5 25 20 25 13 0 20 -7 20 -19z m0
-65 c0 -7 -10 -16 -22 -19 -27 -7 -32 -3 -25 18 8 19 47 20 47 1z m0 -65 c0
-12 -9 -20 -25 -23 -21 -4 -25 -1 -25 18 0 19 5 24 25 24 18 0 25 -5 25 -19z"/>
<path d="M650 3360 c0 -11 5 -20 10 -20 6 0 10 9 10 20 0 11 -4 20 -10 20 -5
0 -10 -9 -10 -20z"/>
<path d="M710 3095 c0 -19 -36 -93 -58 -118 -17 -19 -11 -33 10 -21 7 4 22 8
33 9 69 4 75 6 75 21 0 16 -19 15 -65 -2 -14 -6 -13 0 6 30 l24 37 40 -46 c32
-36 46 -45 73 -45 39 0 41 12 6 29 -42 19 -93 62 -107 89 -14 30 -37 41 -37
17z"/>
<path d="M563 3058 l-33 -11 -2 -83 c-1 -46 -2 -94 -2 -106 -1 -19 4 -23 27
-20 16 2 35 -2 43 -9 25 -21 32 2 35 112 3 135 1 139 -68 117z m37 -37 c0 -10
-7 -22 -16 -25 -23 -9 -24 -8 -24 19 0 18 5 25 20 25 13 0 20 -7 20 -19z m0
-65 c0 -7 -10 -16 -22 -19 -27 -7 -32 -3 -25 18 8 19 47 20 47 1z m0 -65 c0
-12 -9 -20 -25 -23 -21 -4 -25 -1 -25 18 0 19 5 24 25 24 18 0 25 -5 25 -19z"/>
<path d="M696 2913 c11 -46 18 -46 29 0 6 23 4 27 -14 27 -18 0 -20 -4 -15
-27z"/>
<path d="M650 2910 c0 -24 15 -27 24 -4 9 22 8 24 -9 24 -8 0 -15 -9 -15 -20z"/>
<path d="M710 2645 c0 -19 -36 -93 -58 -118 -17 -19 -11 -33 10 -21 7 4 22 8
33 9 69 4 75 6 75 21 0 16 -19 15 -65 -2 -14 -6 -13 0 6 30 l24 37 40 -46 c32
-36 46 -45 73 -45 39 0 41 12 6 29 -42 19 -93 62 -107 89 -14 30 -37 41 -37
17z"/>
<path d="M563 2608 l-33 -11 -2 -83 c-1 -46 -2 -94 -2 -106 -1 -19 4 -23 27
-20 16 2 35 -2 43 -9 25 -21 32 2 35 112 3 135 1 139 -68 117z m37 -37 c0 -10
-7 -22 -16 -25 -23 -9 -24 -8 -24 19 0 18 5 25 20 25 13 0 20 -7 20 -19z m0
-65 c0 -7 -10 -16 -22 -19 -27 -7 -32 -3 -25 18 8 19 47 20 47 1z m0 -65 c0
-12 -9 -20 -25 -23 -21 -4 -25 -1 -25 18 0 19 5 24 25 24 18 0 25 -5 25 -19z"/>
<path d="M693 2473 c1 -10 -2 -18 -8 -18 -5 0 -9 6 -7 13 2 6 -4 12 -13 12 -8
0 -15 -6 -15 -14 0 -61 60 -63 75 -3 6 23 4 27 -14 27 -14 0 -20 -6 -18 -17z"/>
<path d="M710 2195 c0 -19 -36 -93 -58 -118 -17 -19 -11 -33 10 -21 7 4 22 8
33 9 69 4 75 6 75 21 0 16 -19 15 -65 -2 -14 -6 -13 0 6 30 l24 37 40 -46 c32
-36 46 -45 73 -45 39 0 41 12 6 29 -42 19 -93 62 -107 89 -14 30 -37 41 -37
17z"/>
<path d="M563 2158 l-33 -11 -2 -83 c-1 -46 -2 -94 -2 -106 -1 -19 4 -23 27
-20 16 2 35 -2 43 -9 25 -21 32 2 35 112 3 135 1 139 -68 117z m37 -37 c0 -10
-7 -22 -16 -25 -23 -9 -24 -8 -24 19 0 18 5 25 20 25 13 0 20 -7 20 -19z m0
-65 c0 -7 -10 -16 -22 -19 -27 -7 -32 -3 -25 18 8 19 47 20 47 1z m0 -65 c0
-12 -9 -20 -25 -23 -21 -4 -25 -1 -25 18 0 19 5 24 25 24 18 0 25 -5 25 -19z"/>
<path d="M693 2023 c1 -10 -2 -18 -8 -18 -5 0 -9 6 -7 13 2 6 -4 12 -13 12
-16 0 -20 -27 -6 -49 13 -20 57 -6 66 21 l8 23 4 -22 c6 -33 23 -28 23 7 0 28
-3 30 -35 30 -27 0 -34 -4 -32 -17z"/>
<path d="M710 1745 c0 -19 -36 -93 -58 -118 -17 -19 -11 -33 10 -21 7 4 22 8
33 9 69 4 75 6 75 21 0 16 -19 15 -65 -2 -14 -6 -13 0 6 30 l24 37 40 -46 c32
-36 46 -45 73 -45 39 0 41 12 6 29 -42 19 -93 62 -107 89 -14 30 -37 41 -37
17z"/>
<path d="M563 1708 l-33 -11 -2 -83 c-1 -46 -2 -94 -2 -106 -1 -19 4 -23 27
-20 16 2 35 -2 43 -9 25 -21 32 2 35 112 3 135 1 139 -68 117z m37 -37 c0 -10
-7 -22 -16 -25 -23 -9 -24 -8 -24 19 0 18 5 25 20 25 13 0 20 -7 20 -19z m0
-65 c0 -7 -10 -16 -22 -19 -27 -7 -32 -3 -25 18 8 19 47 20 47 1z m0 -65 c0
-12 -9 -20 -25 -23 -21 -4 -25 -1 -25 18 0 19 5 24 25 24 18 0 25 -5 25 -19z"/>
<path d="M770 1590 c0 -5 5 -10 10 -10 6 0 10 -9 10 -20 0 -24 15 -27 24 -4
12 31 6 44 -19 44 -14 0 -25 -4 -25 -10z"/>
<path d="M693 1573 c1 -10 -2 -18 -8 -18 -5 0 -9 6 -7 13 2 6 -4 12 -13 12
-16 0 -20 -27 -6 -49 13 -20 57 -6 66 21 l8 23 4 -22 c6 -33 23 -28 23 7 0 28
-3 30 -35 30 -27 0 -34 -4 -32 -17z"/>
<path d="M710 1295 c0 -19 -36 -93 -58 -118 -17 -19 -11 -33 10 -21 7 4 22 8
33 9 69 4 75 6 75 21 0 16 -19 15 -65 -2 -14 -6 -13 0 6 30 l24 37 40 -46 c32
-36 46 -45 73 -45 39 0 41 12 6 29 -42 19 -93 62 -107 89 -14 30 -37 41 -37
17z"/>
<path d="M563 1258 l-33 -11 -2 -83 c-1 -46 -2 -94 -2 -106 -1 -19 4 -23 27
-20 16 2 35 -2 43 -9 25 -21 32 2 35 112 3 135 1 139 -68 117z m37 -37 c0 -10
-7 -22 -16 -25 -23 -9 -24 -8 -24 19 0 18 5 25 20 25 13 0 20 -7 20 -19z m0
-65 c0 -7 -10 -16 -22 -19 -27 -7 -32 -3 -25 18 8 19 47 20 47 1z m0 -65 c0
-12 -9 -20 -25 -23 -21 -4 -25 -1 -25 18 0 19 5 24 25 24 18 0 25 -5 25 -19z"/>
<path d="M770 1141 c0 -5 5 -11 12 -13 6 -2 8 -10 4 -16 -11 -19 -26 -14 -26
8 0 16 -7 20 -35 20 -27 0 -34 -4 -32 -17 1 -10 -2 -18 -8 -18 -5 0 -9 5 -7
12 2 7 -4 13 -13 13 -16 0 -20 -27 -6 -49 13 -20 57 -6 66 21 l8 23 4 -24 c4
-20 9 -22 36 -17 33 7 47 21 47 49 0 12 -8 17 -25 17 -14 0 -25 -4 -25 -9z"/>
<path d="M710 845 c0 -19 -36 -93 -58 -118 -17 -19 -11 -33 10 -21 7 4 22 8
33 9 69 4 75 6 75 21 0 16 -19 15 -65 -2 -14 -6 -13 0 6 30 l24 37 40 -46 c32
-36 46 -45 73 -45 39 0 41 12 6 29 -42 19 -93 62 -107 89 -14 30 -37 41 -37
17z"/>
<path d="M563 808 l-33 -11 -2 -83 c-1 -46 -2 -94 -2 -106 -1 -19 4 -23 27
-20 16 2 35 -2 43 -9 25 -21 32 2 35 112 3 135 1 139 -68 117z m37 -37 c0 -10
-7 -22 -16 -25 -23 -9 -24 -8 -24 19 0 18 5 25 20 25 13 0 20 -7 20 -19z m0
-65 c0 -7 -10 -16 -22 -19 -27 -7 -32 -3 -25 18 8 19 47 20 47 1z m0 -65 c0
-12 -9 -20 -25 -23 -21 -4 -25 -1 -25 18 0 19 5 24 25 24 18 0 25 -5 25 -19z"/>
<path d="M770 691 c0 -5 5 -11 12 -13 6 -2 8 -10 4 -16 -11 -19 -26 -14 -26 8
0 16 -7 20 -35 20 -27 0 -34 -4 -32 -17 1 -10 -2 -18 -8 -18 -5 0 -9 5 -7 12
2 7 -4 13 -13 13 -18 0 -20 -23 -4 -51 8 -16 7 -26 -6 -46 -9 -13 -14 -27 -11
-31 10 -9 67 51 62 65 -3 7 -2 13 3 13 5 0 12 10 16 23 l8 22 4 -24 c4 -20 9
-22 36 -17 33 7 47 21 47 49 0 12 -8 17 -25 17 -14 0 -25 -4 -25 -9z"/>
<path d="M710 395 c0 -19 -36 -93 -58 -118 -17 -19 -11 -33 10 -21 7 4 22 8
33 9 69 4 75 6 75 21 0 16 -19 15 -65 -2 -14 -6 -13 0 6 30 l24 37 40 -46 c32
-36 46 -45 73 -45 39 0 41 12 6 29 -42 19 -93 62 -107 89 -14 30 -37 41 -37
17z"/>
<path d="M563 358 l-33 -11 -2 -83 c-1 -46 -2 -94 -2 -106 -1 -19 4 -23 27
-20 16 2 35 -2 43 -9 25 -21 32 2 35 112 3 135 1 139 -68 117z m37 -37 c0 -10
-7 -22 -16 -25 -23 -9 -24 -8 -24 19 0 18 5 25 20 25 13 0 20 -7 20 -19z m0
-65 c0 -7 -10 -16 -22 -19 -27 -7 -32 -3 -25 18 8 19 47 20 47 1z m0 -65 c0
-12 -9 -20 -25 -23 -21 -4 -25 -1 -25 18 0 19 5 24 25 24 18 0 25 -5 25 -19z"/>
<path d="M770 241 c0 -5 5 -11 12 -13 6 -2 8 -10 4 -16 -11 -19 -26 -14 -26 8
0 16 -7 20 -35 20 -27 0 -34 -4 -32 -17 1 -10 -2 -18 -8 -18 -5 0 -9 5 -7 12
2 7 -4 13 -13 13 -18 0 -20 -23 -4 -51 8 -16 7 -26 -6 -46 -19 -28 -13 -42 10
-23 12 10 19 10 27 2 18 -18 28 -14 28 8 0 11 -4 20 -8 20 -4 0 -8 9 -8 20 0
11 3 20 7 20 4 0 10 10 14 23 l8 22 4 -24 c4 -20 9 -22 36 -17 33 7 47 21 47
49 0 12 -8 17 -25 17 -14 0 -25 -4 -25 -9z"/>
</g>
</svg>
