<?xml version="1.0" standalone="no"?>
<!DOCTYPE svg PUBLIC "-//W3C//DTD SVG 20010904//EN"
 "http://www.w3.org/TR/2001/REC-SVG-20010904/DTD/svg10.dtd">
<svg version="1.0" xmlns="http://www.w3.org/2000/svg"
 width="50.000000pt" height="725.000000pt" viewBox="0 0 50.000000 725.000000"
 preserveAspectRatio="xMidYMid meet">
<metadata>
Created by potrace 1.16, written by Peter Selinger 2001-2019
</metadata>
<g transform="translate(0.000000,725.000000) scale(0.100000,-0.100000)"
fill="#000000" stroke="none">
<path d="M267 7112 c-57 -10 -96 -20 -94 -27 2 -5 13 -10 23 -9 55 3 207 24
213 29 6 7 -20 25 -34 23 -5 0 -54 -8 -108 -16z"/>
<path d="M267 6662 c-57 -10 -96 -20 -94 -27 2 -5 23 -9 46 -7 22 2 41 -1 41
-5 0 -20 -60 -101 -109 -147 -55 -50 -60 -69 -13 -45 43 22 115 101 142 156
24 48 27 51 74 56 27 4 51 9 55 12 7 7 -20 25 -34 23 -5 0 -54 -8 -108 -16z"/>
<path d="M267 6212 c-57 -10 -96 -20 -94 -27 2 -5 23 -9 46 -7 22 2 41 -1 41
-5 0 -20 -60 -101 -108 -146 -29 -26 -52 -50 -52 -52 0 -14 31 0 77 34 l51 39
7 -44 c10 -68 28 -54 24 19 -3 52 0 72 21 114 24 48 27 51 74 56 27 4 51 9 55
12 7 7 -20 25 -34 23 -5 0 -54 -8 -108 -16z"/>
<path d="M267 5762 c-57 -10 -96 -20 -94 -27 2 -5 23 -9 46 -7 22 2 41 -1 41
-5 0 -20 -60 -101 -108 -146 -29 -26 -52 -50 -52 -52 0 -14 31 0 77 34 l51 39
7 -44 c9 -60 25 -56 25 6 0 54 1 55 63 64 l39 5 -4 -42 c-4 -56 20 -57 39 -2
21 61 13 69 -58 61 -33 -4 -67 -10 -75 -13 -11 -4 -7 10 13 49 27 53 30 55 77
61 27 4 51 9 55 12 7 7 -20 25 -34 23 -5 0 -54 -8 -108 -16z"/>
<path d="M267 5312 c-57 -10 -96 -20 -94 -27 2 -5 23 -9 46 -7 22 2 41 -1 41
-5 0 -20 -60 -101 -108 -146 -29 -26 -52 -50 -52 -52 0 -14 31 0 77 34 l51 39
7 -45 c5 -37 9 -43 23 -37 9 4 42 9 72 11 l56 5 12 50 c6 28 9 55 6 60 -6 10
-109 3 -140 -9 -11 -4 -7 10 13 49 27 53 30 55 77 61 27 4 51 9 55 12 7 7 -20
25 -34 23 -5 0 -54 -8 -108 -16z m93 -160 c0 -38 -17 -52 -63 -52 -37 0 -38 1
-35 33 3 29 7 33 43 38 22 3 43 7 48 8 4 0 7 -12 7 -27z"/>
</g>
</svg>
