<?xml version="1.0" standalone="no"?>
<!DOCTYPE svg PUBLIC "-//W3C//DTD SVG 20010904//EN"
 "http://www.w3.org/TR/2001/REC-SVG-20010904/DTD/svg10.dtd">
<svg version="1.0" xmlns="http://www.w3.org/2000/svg"
 width="50.000000pt" height="725.000000pt" viewBox="0 0 50.000000 725.000000"
 preserveAspectRatio="xMidYMid meet">
<metadata>
Created by potrace 1.16, written by Peter Selinger 2001-2019
</metadata>
<g transform="translate(0.000000,725.000000) scale(0.100000,-0.100000)"
fill="#000000" stroke="none">
<path d="M165 7095 c-5 -2 -22 -6 -37 -9 -49 -11 -33 -29 20 -22 63 9 82 15
82 27 0 8 -43 11 -65 4z"/>
<path d="M165 6645 c-5 -2 -22 -6 -37 -9 -32 -7 -38 -26 -8 -26 26 0 26 -4
-15 -79 -35 -65 -38 -84 -10 -61 20 17 75 114 75 132 0 9 13 18 30 22 17 3 30
10 30 16 0 9 -42 13 -65 5z"/>
<path d="M165 6195 c-5 -2 -22 -6 -37 -9 -32 -7 -38 -26 -8 -26 26 0 26 -4
-15 -79 -36 -67 -38 -86 -6 -57 17 16 19 15 24 -14 4 -16 11 -30 17 -30 11 0
12 32 1 70 -5 17 -1 35 11 55 10 17 18 37 18 46 0 10 11 19 30 23 17 3 30 10
30 16 0 9 -42 13 -65 5z"/>
<path d="M165 5745 c-5 -2 -22 -6 -37 -9 -32 -7 -38 -26 -8 -26 26 0 26 -4
-15 -79 -36 -67 -38 -86 -6 -57 17 16 19 15 24 -14 9 -43 31 -39 24 4 -4 25
-1 36 10 40 22 9 23 8 23 -24 0 -39 12 -38 27 1 16 43 8 52 -38 45 l-39 -6 20
32 c11 18 20 40 20 49 0 10 11 19 30 23 17 3 30 10 30 16 0 9 -42 13 -65 5z"/>
<path d="M165 5295 c-5 -2 -22 -6 -37 -9 -32 -7 -38 -26 -8 -26 26 0 26 -4
-15 -79 -36 -67 -38 -86 -6 -57 18 16 19 15 25 -15 4 -23 10 -30 22 -25 9 3
23 6 32 6 18 0 45 66 35 83 -3 5 -23 6 -44 3 l-39 -6 20 32 c11 18 20 40 20
49 0 10 11 19 30 23 17 3 30 10 30 16 0 9 -42 13 -65 5z m13 -157 c-2 -12 -8
-23 -14 -25 -17 -6 -27 29 -12 39 22 13 30 9 26 -14z"/>
<path d="M287 4864 c-21 -20 -36 -38 -33 -42 9 -9 106 41 106 54 0 9 -23 25
-33 24 -1 0 -19 -17 -40 -36z"/>
<path d="M165 4845 c-5 -2 -22 -6 -37 -9 -32 -7 -38 -26 -8 -26 26 0 26 -4
-15 -79 -36 -67 -38 -86 -6 -57 18 16 19 15 25 -15 4 -23 10 -30 22 -25 9 3
23 6 32 6 18 0 45 66 35 83 -3 5 -23 6 -44 3 l-39 -6 20 32 c11 18 20 40 20
49 0 10 11 19 30 23 17 3 30 10 30 16 0 9 -42 13 -65 5z m13 -157 c-2 -12 -8
-23 -14 -25 -17 -6 -27 29 -12 39 22 13 30 9 26 -14z"/>
<path d="M297 4423 c-24 -24 -36 -28 -90 -29 -67 0 -107 -10 -107 -25 0 -5 9
-9 20 -9 26 0 26 -4 -15 -79 -36 -67 -38 -86 -6 -57 18 16 19 15 25 -15 4 -23
10 -30 22 -25 9 3 23 6 32 6 18 0 45 66 35 83 -3 5 -23 6 -44 3 l-39 -6 20 32
c11 18 20 40 20 49 0 17 46 32 64 22 5 -3 6 -52 3 -109 -5 -80 -3 -104 7 -104
17 0 71 58 63 67 -4 4 -13 1 -19 -5 -22 -22 -28 -12 -28 47 0 80 11 103 59
126 43 21 52 39 25 49 -9 3 -16 6 -18 6 -1 0 -14 -12 -29 -27z m-119 -185 c-2
-12 -8 -23 -14 -25 -17 -6 -27 29 -12 39 22 13 30 9 26 -14z"/>
<path d="M297 3973 c-24 -24 -36 -28 -90 -29 -67 0 -107 -10 -107 -25 0 -5 9
-9 20 -9 26 0 26 -4 -15 -79 -36 -67 -38 -86 -6 -57 18 16 19 15 25 -15 4 -23
10 -30 22 -25 9 3 23 6 32 6 18 0 45 66 35 83 -3 5 -23 6 -44 3 l-39 -6 20 32
c11 18 20 40 20 49 0 17 46 32 64 22 5 -3 6 -52 3 -109 -5 -80 -3 -104 7 -104
17 0 71 58 63 67 -4 4 -13 1 -19 -5 -21 -21 -28 -13 -28 27 l0 39 65 13 c41 8
65 18 65 26 0 17 -16 16 -74 -3 -26 -9 -50 -14 -53 -11 -15 15 16 62 55 81 43
22 53 40 26 50 -9 3 -16 6 -18 6 -1 0 -14 -12 -29 -27z m-119 -185 c-2 -12 -8
-23 -14 -25 -17 -6 -27 29 -12 39 22 13 30 9 26 -14z"/>
<path d="M297 3523 c-24 -24 -36 -28 -90 -29 -67 0 -107 -10 -107 -25 0 -5 9
-9 20 -9 26 0 26 -4 -15 -79 -36 -67 -38 -86 -6 -57 18 16 19 15 25 -15 4 -23
10 -30 22 -25 9 3 23 6 32 6 18 0 45 66 35 83 -3 5 -23 6 -44 3 l-39 -6 20 32
c11 18 20 40 20 49 0 17 46 32 64 22 5 -3 6 -52 3 -109 -5 -80 -3 -104 7 -104
17 0 71 58 63 67 -4 4 -13 1 -19 -5 -21 -21 -28 -13 -28 28 0 28 4 40 14 40 8
0 21 2 28 5 10 4 22 -11 38 -45 28 -60 65 -100 91 -100 22 0 22 0 9 35 -6 16
-16 25 -26 23 -19 -4 -50 35 -60 75 -5 23 -3 27 15 27 13 0 21 6 21 16 0 12
-7 15 -25 12 -21 -4 -25 -1 -25 18 0 13 -4 24 -10 24 -18 0 -10 22 10 27 24 6
26 28 4 37 -9 3 -16 6 -18 6 -1 0 -14 -12 -29 -27z m4 -70 c10 -27 0 -42 -28
-43 -16 0 -16 10 -3 44 12 33 18 33 31 -1z m-123 -115 c-2 -12 -8 -23 -14 -25
-17 -6 -27 29 -12 39 22 13 30 9 26 -14z"/>
<path d="M297 3073 c-24 -24 -36 -28 -90 -29 -67 0 -107 -10 -107 -25 0 -5 9
-9 20 -9 26 0 26 -4 -15 -79 -36 -67 -38 -86 -6 -57 18 16 19 15 25 -15 4 -23
10 -30 22 -25 9 3 23 6 32 6 18 0 45 66 35 83 -3 5 -23 6 -44 3 l-39 -6 20 32
c11 18 20 40 20 49 0 17 46 32 64 22 5 -3 6 -52 3 -109 -5 -80 -3 -104 7 -104
17 0 71 58 63 67 -4 4 -13 1 -19 -5 -21 -21 -28 -13 -28 28 0 28 4 40 14 40 8
0 21 2 28 5 10 4 22 -11 38 -45 28 -60 65 -100 91 -100 22 0 22 0 9 35 -6 16
-16 25 -26 23 -19 -4 -50 35 -60 75 -5 23 -3 27 15 27 13 0 21 6 21 16 0 12
-7 15 -25 12 -21 -4 -25 -1 -25 18 0 13 -4 24 -10 24 -18 0 -10 22 10 27 24 6
26 28 4 37 -9 3 -16 6 -18 6 -1 0 -14 -12 -29 -27z m4 -70 c10 -27 0 -42 -28
-43 -16 0 -16 10 -3 44 12 33 18 33 31 -1z m-123 -115 c-2 -12 -8 -23 -14 -25
-17 -6 -27 29 -12 39 22 13 30 9 26 -14z"/>
<path d="M312 2820 c-66 -15 -57 -33 12 -24 26 4 45 12 43 17 -5 15 -16 16
-55 7z"/>
</g>
</svg>
