<?xml version="1.0" standalone="no"?>
<!DOCTYPE svg PUBLIC "-//W3C//DTD SVG 20010904//EN"
 "http://www.w3.org/TR/2001/REC-SVG-20010904/DTD/svg10.dtd">
<svg version="1.0" xmlns="http://www.w3.org/2000/svg"
 width="50.000000pt" height="725.000000pt" viewBox="0 0 50.000000 725.000000"
 preserveAspectRatio="xMidYMid meet">
<metadata>
Created by potrace 1.16, written by Peter Selinger 2001-2019
</metadata>
<g transform="translate(0.000000,725.000000) scale(0.100000,-0.100000)"
fill="#000000" stroke="none">
<path d="M143 7103 c-35 -7 -27 -23 10 -23 41 0 77 10 77 21 0 9 -46 10 -87 2z"/>
<path d="M143 6653 c-26 -5 -31 -23 -8 -23 21 0 19 -20 -10 -75 -14 -26 -23
-50 -19 -54 10 -10 53 51 66 92 8 26 19 39 35 43 12 4 23 10 23 15 0 9 -46 10
-87 2z"/>
<path d="M143 6203 c-26 -5 -31 -23 -8 -23 21 0 19 -20 -10 -74 -29 -55 -30
-60 -10 -52 11 4 15 -2 15 -24 0 -17 5 -30 10 -30 6 0 10 19 10 41 0 62 30
139 58 146 12 3 22 9 22 14 0 9 -46 10 -87 2z"/>
<path d="M143 5753 c-26 -5 -31 -23 -8 -23 21 0 19 -20 -10 -74 -29 -55 -30
-60 -10 -52 11 4 15 -2 15 -24 0 -17 5 -30 10 -30 6 0 10 18 10 40 0 33 3 40
20 40 16 0 20 -7 20 -31 0 -40 21 -34 34 10 11 38 -4 54 -43 44 -20 -5 -23 -3
-18 11 4 10 10 29 13 42 4 14 16 27 30 30 60 15 5 30 -63 17z"/>
<path d="M143 5303 c-26 -5 -31 -23 -8 -23 21 0 19 -20 -10 -74 -29 -55 -30
-60 -10 -52 11 4 15 -2 15 -25 0 -28 3 -31 23 -25 12 3 32 6 43 6 17 0 23 8
28 42 8 47 -4 61 -43 51 -20 -5 -23 -3 -18 11 4 10 10 29 13 42 4 14 16 27 30
30 60 15 5 30 -63 17z m47 -148 c0 -18 -5 -25 -20 -25 -15 0 -20 7 -20 25 0
18 5 25 20 25 15 0 20 -7 20 -25z"/>
<path d="M143 4853 c-26 -5 -31 -23 -8 -23 21 0 19 -20 -10 -74 -29 -55 -30
-60 -10 -52 11 4 15 -2 15 -25 0 -28 3 -31 23 -25 12 3 32 6 43 6 17 0 23 8
28 42 8 47 -4 61 -43 51 -20 -5 -23 -3 -18 11 4 10 10 29 13 42 4 14 16 27 30
30 60 15 5 30 -63 17z m47 -148 c0 -18 -5 -25 -20 -25 -15 0 -20 7 -20 25 0
18 5 25 20 25 15 0 20 -7 20 -25z"/>
<path d="M253 4828 c2 -7 11 -13 20 -12 10 0 31 1 47 2 51 3 33 22 -21 22 -36
0 -49 -4 -46 -12z"/>
<path d="M290 4421 c0 -24 -4 -31 -20 -31 -11 0 -20 -5 -20 -11 0 -6 9 -13 20
-16 13 -3 20 -14 20 -29 0 -15 6 -24 15 -24 10 0 15 10 15 30 0 20 5 30 15 30
19 0 19 16 0 24 -8 3 -14 15 -12 28 1 14 -4 23 -15 26 -14 3 -18 -3 -18 -27z"/>
<path d="M143 4403 c-26 -5 -31 -23 -8 -23 21 0 19 -20 -10 -74 -29 -55 -30
-60 -10 -52 11 4 15 -2 15 -25 0 -28 3 -31 23 -25 12 3 32 6 43 6 17 0 23 8
28 42 8 47 -4 61 -43 51 -20 -5 -23 -3 -18 11 4 10 10 29 13 42 4 14 16 27 30
30 60 15 5 30 -63 17z m47 -148 c0 -18 -5 -25 -20 -25 -15 0 -20 7 -20 25 0
18 5 25 20 25 15 0 20 -7 20 -25z"/>
<path d="M290 3971 c0 -24 -4 -31 -20 -31 -11 0 -20 -5 -20 -11 0 -6 9 -13 20
-16 11 -3 20 -13 20 -23 0 -19 -28 -30 -93 -36 -32 -3 -38 -1 -33 12 3 9 9 27
12 40 4 14 16 27 30 30 13 3 24 10 24 15 0 10 -34 12 -79 3 -31 -7 -43 -24
-16 -24 21 0 19 -20 -10 -74 -29 -55 -30 -60 -10 -52 11 4 15 -2 15 -25 0 -28
3 -31 23 -25 12 3 32 6 43 6 17 0 23 8 28 39 l6 39 67 7 c95 9 123 15 123 27
0 6 -21 9 -50 6 -46 -3 -50 -1 -50 20 0 13 6 22 15 22 19 0 19 16 0 24 -8 3
-14 15 -12 28 1 14 -4 23 -15 26 -14 3 -18 -3 -18 -27z m-100 -166 c0 -18 -5
-25 -20 -25 -15 0 -20 7 -20 25 0 18 5 25 20 25 15 0 20 -7 20 -25z"/>
<path d="M290 3521 c0 -24 -4 -31 -20 -31 -11 0 -20 -5 -20 -11 0 -6 9 -13 20
-16 11 -3 20 -13 20 -23 0 -19 -28 -30 -93 -36 -32 -3 -38 -1 -33 12 3 9 9 27
12 40 4 14 16 27 30 30 13 3 24 10 24 15 0 10 -34 12 -79 3 -31 -7 -43 -24
-16 -24 21 0 19 -20 -10 -74 -29 -55 -30 -60 -10 -52 11 4 15 -2 15 -25 0 -29
2 -30 31 -24 21 5 34 3 39 -5 11 -17 87 27 117 68 15 21 33 31 62 36 45 7 56
26 16 26 -29 0 -31 7 -10 37 15 21 11 53 -5 53 -5 0 -12 -9 -15 -20 -5 -16
-10 -18 -26 -10 -11 6 -18 19 -16 32 1 14 -4 23 -15 26 -14 3 -18 -3 -18 -27z
m50 -71 c-6 -11 -13 -20 -15 -20 -3 0 -5 9 -5 20 0 11 7 20 15 20 13 0 14 -4
5 -20z m-55 -74 c-21 -32 -65 -62 -65 -44 1 39 13 57 44 61 17 2 32 5 34 5 1
1 -5 -9 -13 -22z m-95 -21 c0 -18 -5 -25 -20 -25 -15 0 -20 7 -20 25 0 18 5
25 20 25 15 0 20 -7 20 -25z"/>
<path d="M290 3071 c0 -24 -4 -31 -20 -31 -11 0 -20 -5 -20 -11 0 -6 9 -13 20
-16 11 -3 20 -13 20 -23 0 -19 -28 -30 -93 -36 -32 -3 -38 -1 -33 12 3 9 9 27
12 40 4 14 16 27 30 30 13 3 24 10 24 15 0 10 -34 12 -79 3 -31 -7 -43 -24
-16 -24 21 0 19 -20 -10 -74 -29 -55 -30 -60 -10 -52 11 4 15 -2 15 -25 0 -29
2 -30 31 -24 21 5 34 3 39 -5 6 -10 17 -8 47 10 29 17 51 22 92 21 40 -2 52 1
48 11 -2 8 -17 12 -41 10 -20 -2 -36 1 -36 6 0 17 35 40 73 46 42 8 50 26 12
26 -29 0 -31 7 -10 37 15 21 11 53 -5 53 -5 0 -12 -9 -15 -20 -5 -16 -10 -18
-26 -10 -11 6 -18 19 -16 32 1 14 -4 23 -15 26 -14 3 -18 -3 -18 -27z m50 -71
c-6 -11 -13 -20 -15 -20 -3 0 -5 9 -5 20 0 11 7 20 15 20 13 0 14 -4 5 -20z
m-55 -74 c-21 -32 -65 -62 -65 -44 1 39 13 57 44 61 17 2 32 5 34 5 1 1 -5 -9
-13 -22z m-95 -21 c0 -18 -5 -25 -20 -25 -15 0 -20 7 -20 25 0 18 5 25 20 25
15 0 20 -7 20 -25z"/>
<path d="M290 2621 c0 -24 -4 -31 -20 -31 -11 0 -20 -5 -20 -11 0 -6 9 -13 20
-16 11 -3 20 -13 20 -23 0 -19 -28 -30 -93 -36 -32 -3 -38 -1 -33 12 3 9 9 27
12 40 4 14 16 27 30 30 13 3 24 10 24 15 0 10 -34 12 -79 3 -31 -7 -43 -24
-16 -24 21 0 19 -20 -10 -74 -29 -55 -30 -60 -10 -52 11 4 15 -2 15 -25 0 -29
2 -30 31 -24 21 5 34 3 39 -5 6 -10 16 -8 44 8 l36 21 0 -27 c0 -49 21 -66 80
-64 62 1 70 7 63 45 -6 31 -18 35 -26 8 -6 -23 -54 -36 -73 -20 -8 6 -14 22
-14 35 0 21 5 24 41 24 28 0 39 4 36 13 -2 7 -18 11 -41 9 -20 -2 -36 1 -36 6
0 17 35 40 73 46 42 8 50 26 12 26 -29 0 -31 7 -10 37 15 21 11 53 -5 53 -5 0
-12 -9 -15 -20 -5 -16 -10 -18 -26 -10 -11 6 -18 19 -16 32 1 14 -4 23 -15 26
-14 3 -18 -3 -18 -27z m50 -71 c-6 -11 -13 -20 -15 -20 -3 0 -5 9 -5 20 0 11
7 20 15 20 13 0 14 -4 5 -20z m-55 -74 c-21 -32 -65 -62 -65 -44 1 39 13 57
44 61 17 2 32 5 34 5 1 1 -5 -9 -13 -22z m-95 -21 c0 -18 -5 -25 -20 -25 -15
0 -20 7 -20 25 0 18 5 25 20 25 15 0 20 -7 20 -25z"/>
</g>
</svg>
