<?xml version="1.0" standalone="no"?>
<!DOCTYPE svg PUBLIC "-//W3C//DTD SVG 20010904//EN"
 "http://www.w3.org/TR/2001/REC-SVG-20010904/DTD/svg10.dtd">
<svg version="1.0" xmlns="http://www.w3.org/2000/svg"
 width="50.000000pt" height="725.000000pt" viewBox="0 0 50.000000 725.000000"
 preserveAspectRatio="xMidYMid meet">
<metadata>
Created by potrace 1.16, written by Peter Selinger 2001-2019
</metadata>
<g transform="translate(0.000000,725.000000) scale(0.100000,-0.100000)"
fill="#000000" stroke="none">
<path d="M153 7097 c-46 -11 -58 -27 -20 -27 49 0 97 13 97 26 0 16 -17 16
-77 1z"/>
<path d="M153 6647 c-44 -10 -58 -27 -23 -27 11 0 20 -5 20 -10 0 -16 -48
-108 -60 -115 -5 -3 -10 -10 -10 -16 0 -15 22 -10 37 9 22 28 63 110 63 127 0
9 9 15 25 15 16 0 25 6 25 15 0 17 -16 17 -77 2z"/>
<path d="M153 6197 c-44 -10 -58 -27 -23 -27 11 0 20 -5 20 -10 0 -16 -48
-108 -60 -115 -15 -9 -12 -25 4 -25 8 0 17 8 21 18 7 15 9 14 14 -7 13 -47 29
-35 28 21 -1 73 21 128 50 128 14 0 23 6 23 15 0 17 -16 17 -77 2z"/>
<path d="M153 5747 c-44 -10 -58 -27 -23 -27 11 0 20 -5 20 -10 0 -16 -48
-108 -60 -115 -15 -9 -12 -25 4 -25 8 0 17 8 21 18 7 15 9 14 14 -7 13 -47 30
-35 29 21 0 74 20 128 49 128 14 0 23 6 23 15 0 17 -16 17 -77 2z"/>
<path d="M180 5639 c-11 -8 -12 -12 -2 -16 6 -2 12 -16 12 -30 0 -33 22 -25
32 12 10 39 -11 56 -42 34z"/>
<path d="M153 5297 c-44 -10 -58 -27 -23 -27 11 0 20 -5 20 -10 0 -16 -48
-108 -60 -115 -5 -3 -10 -10 -10 -16 0 -15 22 -10 36 9 12 16 13 15 14 -5 0
-28 14 -36 50 -28 23 5 32 14 39 43 8 27 7 38 -2 44 -16 10 -19 10 -37 -3 -11
-8 -12 -12 -2 -16 17 -7 15 -40 -2 -46 -27 -11 -29 45 -4 116 10 28 18 37 35
37 14 0 23 6 23 15 0 17 -16 17 -77 2z"/>
<path d="M153 4847 c-44 -10 -58 -27 -23 -27 11 0 20 -5 20 -10 0 -16 -48
-108 -60 -115 -5 -3 -10 -10 -10 -16 0 -15 22 -10 36 9 12 16 13 15 14 -5 0
-28 14 -36 50 -28 23 5 32 14 39 43 8 27 7 38 -2 44 -16 10 -19 10 -37 -3 -11
-8 -12 -12 -2 -16 17 -7 15 -40 -2 -46 -27 -11 -29 45 -4 116 10 28 18 37 35
37 14 0 23 6 23 15 0 17 -16 17 -77 2z"/>
<path d="M301 4846 c-38 -7 -66 -17 -69 -25 -4 -11 3 -13 29 -7 19 4 60 9 92
13 31 3 57 9 57 13 0 8 -27 21 -38 19 -4 -1 -36 -7 -71 -13z"/>
<path d="M295 4428 c-7 -22 -18 -34 -34 -38 -31 -7 -40 -30 -11 -30 21 0 21
-1 4 -30 -10 -16 -15 -32 -12 -35 8 -9 88 6 88 16 0 5 -11 9 -25 9 -22 0 -24
2 -14 24 12 26 35 36 87 36 17 0 32 4 32 9 0 14 -28 21 -58 15 -25 -5 -28 -3
-27 22 0 39 -19 40 -30 2z"/>
<path d="M153 4397 c-44 -10 -58 -27 -23 -27 11 0 20 -5 20 -10 0 -16 -48
-108 -60 -115 -5 -3 -10 -10 -10 -16 0 -15 22 -10 36 9 12 16 13 15 14 -5 0
-28 14 -36 50 -28 23 5 32 14 39 43 8 27 7 38 -2 44 -16 10 -19 10 -37 -3 -11
-8 -12 -12 -2 -16 17 -7 15 -40 -2 -46 -27 -11 -29 45 -4 116 10 28 18 37 35
37 14 0 23 6 23 15 0 17 -16 17 -77 2z"/>
<path d="M340 4320 c0 -5 5 -10 10 -10 6 0 10 5 10 10 0 6 -4 10 -10 10 -5 0
-10 -4 -10 -10z"/>
<path d="M295 3978 c-7 -22 -18 -34 -34 -38 -31 -7 -40 -30 -11 -30 21 0 21
-1 4 -30 -10 -16 -15 -32 -12 -35 8 -9 88 6 88 16 0 5 -11 9 -25 9 -22 0 -24
2 -14 24 12 26 35 36 87 36 17 0 32 4 32 9 0 14 -28 21 -58 15 -25 -5 -28 -3
-27 22 0 39 -19 40 -30 2z"/>
<path d="M153 3947 c-44 -10 -58 -27 -23 -27 11 0 20 -5 20 -10 0 -16 -48
-108 -60 -115 -5 -3 -10 -10 -10 -16 0 -15 22 -10 36 9 12 16 13 15 14 -5 0
-28 14 -36 50 -28 23 5 32 14 39 43 8 27 7 38 -2 44 -16 10 -19 10 -37 -3 -11
-8 -12 -12 -2 -16 17 -7 15 -40 -2 -46 -27 -11 -29 45 -4 116 10 28 18 37 35
37 14 0 23 6 23 15 0 17 -16 17 -77 2z"/>
<path d="M336 3888 c7 -22 31 -47 47 -48 16 0 5 40 -15 54 -31 22 -41 20 -32
-6z"/>
<path d="M295 3528 c-7 -22 -18 -34 -34 -38 -31 -7 -40 -30 -11 -30 21 0 21
-1 4 -30 -10 -16 -15 -32 -12 -35 8 -9 88 6 88 16 0 5 -11 9 -25 9 -22 0 -24
2 -14 24 12 26 35 36 87 36 17 0 32 4 32 9 0 14 -28 21 -58 15 -25 -5 -28 -3
-27 22 0 39 -19 40 -30 2z"/>
<path d="M153 3497 c-44 -10 -58 -27 -23 -27 11 0 20 -5 20 -10 0 -16 -48
-108 -60 -115 -5 -3 -10 -10 -10 -16 0 -15 22 -10 36 9 12 16 13 15 14 -5 0
-28 14 -36 50 -28 23 5 32 14 39 43 8 27 7 38 -2 44 -16 10 -19 10 -37 -3 -11
-8 -12 -12 -2 -16 17 -7 15 -40 -2 -46 -27 -11 -29 45 -4 116 10 28 18 37 35
37 14 0 23 6 23 15 0 17 -16 17 -77 2z"/>
<path d="M336 3438 c7 -22 31 -47 47 -48 16 0 5 40 -15 54 -31 22 -41 20 -32
-6z"/>
<path d="M240 3332 c0 -21 -7 -48 -16 -60 -19 -27 -12 -41 11 -22 19 16 40 83
32 104 -11 29 -27 16 -27 -22z"/>
<path d="M295 3078 c-7 -22 -18 -34 -34 -38 -31 -7 -40 -30 -11 -30 21 0 21
-1 4 -30 -10 -16 -15 -32 -12 -35 8 -9 88 6 88 16 0 5 -11 9 -25 9 -22 0 -24
2 -14 24 12 26 35 36 87 36 17 0 32 4 32 9 0 14 -28 21 -58 15 -25 -5 -28 -3
-27 22 0 39 -19 40 -30 2z"/>
<path d="M153 3047 c-44 -10 -58 -27 -23 -27 11 0 20 -5 20 -10 0 -16 -48
-108 -60 -115 -5 -3 -10 -10 -10 -16 0 -15 22 -10 36 9 12 16 13 15 14 -5 0
-28 14 -36 50 -28 23 5 32 14 39 43 8 27 7 38 -2 44 -16 10 -19 10 -37 -3 -11
-8 -12 -12 -2 -16 17 -7 15 -40 -2 -46 -27 -11 -29 45 -4 116 10 28 18 37 35
37 14 0 23 6 23 15 0 17 -16 17 -77 2z"/>
<path d="M336 2988 c7 -22 31 -47 47 -48 16 0 5 40 -15 54 -31 22 -41 20 -32
-6z"/>
<path d="M240 2882 c0 -21 -7 -48 -16 -60 -19 -27 -12 -41 11 -22 19 16 40 83
32 104 -11 29 -27 16 -27 -22z"/>
<path d="M293 2855 c-1 -50 2 -65 13 -65 11 0 14 16 14 65 0 45 -4 65 -12 65
-9 0 -13 -21 -15 -65z"/>
<path d="M295 2628 c-7 -22 -18 -34 -34 -38 -31 -7 -40 -30 -11 -30 21 0 21
-1 4 -30 -10 -16 -15 -32 -12 -35 8 -9 88 6 88 16 0 5 -11 9 -25 9 -22 0 -24
2 -14 24 12 26 35 36 87 36 17 0 32 4 32 9 0 14 -28 21 -58 15 -25 -5 -28 -3
-27 22 0 39 -19 40 -30 2z"/>
<path d="M153 2597 c-44 -10 -58 -27 -23 -27 11 0 20 -5 20 -10 0 -16 -48
-108 -60 -115 -5 -3 -10 -10 -10 -16 0 -15 22 -10 36 9 12 16 13 15 14 -5 0
-28 14 -36 50 -28 23 5 32 14 39 43 8 27 7 38 -2 44 -16 10 -19 10 -37 -3 -11
-8 -12 -12 -2 -16 17 -7 15 -40 -2 -46 -27 -11 -29 45 -4 116 10 28 18 37 35
37 14 0 23 6 23 15 0 17 -16 17 -77 2z"/>
<path d="M336 2538 c7 -22 31 -47 47 -48 16 0 5 40 -15 54 -31 22 -41 20 -32
-6z"/>
<path d="M352 2413 l3 -68 44 -3 c32 -2 42 0 39 10 -3 7 -16 13 -29 13 -22 0
-24 4 -27 58 -2 43 -7 57 -18 57 -12 0 -14 -13 -12 -67z"/>
<path d="M240 2432 c0 -21 -7 -48 -16 -60 -19 -27 -12 -41 11 -22 19 16 40 83
32 104 -11 29 -27 16 -27 -22z"/>
<path d="M293 2405 c-1 -50 2 -65 13 -65 11 0 14 16 14 65 0 45 -4 65 -12 65
-9 0 -13 -21 -15 -65z"/>
</g>
</svg>
