<?xml version="1.0" standalone="no"?>
<!DOCTYPE svg PUBLIC "-//W3C//DTD SVG 20010904//EN"
 "http://www.w3.org/TR/2001/REC-SVG-20010904/DTD/svg10.dtd">
<svg version="1.0" xmlns="http://www.w3.org/2000/svg"
 width="95.000000pt" height="725.000000pt" viewBox="0 0 95.000000 725.000000"
 preserveAspectRatio="xMidYMid meet">
<metadata>
Created by potrace 1.16, written by Peter Selinger 2001-2019
</metadata>
<g transform="translate(0.000000,725.000000) scale(0.100000,-0.100000)"
fill="#000000" stroke="none">
<path d="M265 7140 c0 -32 3 -40 18 -40 13 0 17 5 14 14 -3 8 -1 17 6 20 9 5
9 7 0 12 -7 3 -13 12 -13 20 0 8 -6 14 -13 14 -8 0 -12 -14 -12 -40z"/>
<path d="M173 7156 c4 -9 -2 -17 -14 -21 -21 -7 -25 -20 -9 -30 20 -12 9 -25
-20 -25 -16 0 -30 -4 -30 -10 0 -5 9 -10 20 -10 25 0 35 -36 20 -74 -12 -33
-4 -48 13 -26 7 8 25 21 41 28 27 12 28 12 16 -3 -15 -18 0 -42 19 -31 14 9
14 99 0 113 -9 9 -9 20 0 44 6 18 10 33 9 33 -2 1 -13 7 -25 14 -30 16 -46 15
-40 -2z m27 -51 c0 -8 -4 -15 -10 -15 -5 0 -10 7 -10 15 0 8 5 15 10 15 6 0
10 -7 10 -15z m-7 -42 c-7 -2 -19 -2 -25 0 -7 3 -2 5 12 5 14 0 19 -2 13 -5z
m27 -34 c0 -6 -4 -7 -10 -4 -5 3 -10 11 -10 16 0 6 5 7 10 4 6 -3 10 -11 10
-16z m-30 -19 c0 -5 -4 -10 -10 -10 -5 0 -10 5 -10 10 0 6 5 10 10 10 6 0 10
-4 10 -10z"/>
<path d="M620 7161 c0 -12 29 -35 36 -28 11 10 -5 37 -21 37 -8 0 -15 -4 -15
-9z"/>
<path d="M320 7150 c0 -5 7 -10 15 -10 8 0 15 5 15 10 0 6 -7 10 -15 10 -8 0
-15 -4 -15 -10z"/>
<path d="M310 7120 c0 -5 5 -10 11 -10 5 0 7 -4 4 -10 -3 -5 -20 -10 -36 -10
l-30 0 3 -62 c3 -61 4 -63 33 -68 l30 -6 -34 -7 c-18 -4 -53 -7 -77 -7 -26 0
-44 -5 -44 -11 0 -19 154 -6 175 14 9 9 24 17 33 17 31 0 45 16 38 44 -7 28
-26 36 -26 11 0 -20 -32 -35 -72 -34 -30 2 -31 2 -5 6 29 5 38 23 11 23 -8 0
-22 7 -30 15 -14 13 -14 15 0 15 9 0 16 -4 16 -10 0 -5 9 -10 20 -10 39 0 18
36 -25 43 -28 4 -28 4 6 6 29 1 38 6 43 24 9 34 8 37 -19 37 -14 0 -25 -4 -25
-10z"/>
<path d="M265 6690 c0 -32 3 -40 18 -40 13 0 17 5 14 14 -3 8 -1 17 6 20 9 5
9 7 0 12 -7 3 -13 12 -13 20 0 8 -6 14 -13 14 -8 0 -12 -14 -12 -40z"/>
<path d="M173 6706 c4 -9 -2 -17 -14 -21 -21 -7 -25 -20 -9 -30 20 -12 9 -25
-20 -25 -16 0 -30 -4 -30 -10 0 -5 9 -10 20 -10 25 0 35 -36 20 -74 -12 -33
-4 -48 13 -26 7 8 25 21 41 28 27 12 28 12 16 -3 -15 -18 0 -42 19 -31 14 9
14 99 0 113 -9 9 -9 20 0 44 6 18 10 33 9 33 -2 1 -13 7 -25 14 -30 16 -46 15
-40 -2z m27 -51 c0 -8 -4 -15 -10 -15 -5 0 -10 7 -10 15 0 8 5 15 10 15 6 0
10 -7 10 -15z m-7 -42 c-7 -2 -19 -2 -25 0 -7 3 -2 5 12 5 14 0 19 -2 13 -5z
m27 -34 c0 -6 -4 -7 -10 -4 -5 3 -10 11 -10 16 0 6 5 7 10 4 6 -3 10 -11 10
-16z m-30 -19 c0 -5 -4 -10 -10 -10 -5 0 -10 5 -10 10 0 6 5 10 10 10 6 0 10
-4 10 -10z"/>
<path d="M623 6706 c4 -9 -2 -17 -14 -21 -33 -11 -21 -24 19 -19 71 10 80 21
35 42 -35 16 -46 15 -40 -2z"/>
<path d="M320 6700 c0 -5 7 -10 15 -10 8 0 15 5 15 10 0 6 -7 10 -15 10 -8 0
-15 -4 -15 -10z"/>
<path d="M310 6670 c0 -5 5 -10 11 -10 5 0 7 -4 4 -10 -3 -5 -20 -10 -36 -10
l-30 0 3 -62 c3 -61 4 -63 33 -68 l30 -6 -34 -7 c-18 -4 -53 -7 -77 -7 -43 0
-61 -15 -26 -22 12 -3 4 -12 -30 -34 -46 -28 -59 -44 -38 -44 17 0 83 36 106
58 11 10 41 22 67 26 26 4 47 11 47 16 0 5 18 14 40 20 39 11 46 22 34 54 -8
20 -24 21 -24 1 0 -20 -32 -35 -72 -34 -30 2 -31 2 -5 6 29 5 38 23 11 23 -8
0 -22 7 -30 15 -14 13 -14 15 0 15 9 0 16 -4 16 -10 0 -5 9 -10 20 -10 39 0
18 36 -25 43 -28 4 -28 4 6 6 29 1 38 6 43 24 9 34 8 37 -19 37 -14 0 -25 -4
-25 -10z"/>
<path d="M265 6240 c0 -32 3 -40 18 -40 13 0 17 5 14 14 -3 8 -1 17 6 20 9 5
9 7 0 12 -7 3 -13 12 -13 20 0 8 -6 14 -13 14 -8 0 -12 -14 -12 -40z"/>
<path d="M173 6256 c4 -9 -2 -17 -14 -21 -21 -7 -25 -20 -9 -30 20 -12 9 -25
-20 -25 -16 0 -30 -4 -30 -10 0 -5 9 -10 20 -10 25 0 35 -36 20 -74 -12 -33
-4 -48 13 -26 7 8 25 21 41 28 27 12 28 12 16 -3 -15 -18 0 -42 19 -31 14 9
14 99 0 113 -9 9 -9 20 0 44 6 18 10 33 9 33 -2 1 -13 7 -25 14 -30 16 -46 15
-40 -2z m27 -51 c0 -8 -4 -15 -10 -15 -5 0 -10 7 -10 15 0 8 5 15 10 15 6 0
10 -7 10 -15z m-7 -42 c-7 -2 -19 -2 -25 0 -7 3 -2 5 12 5 14 0 19 -2 13 -5z
m27 -34 c0 -6 -4 -7 -10 -4 -5 3 -10 11 -10 16 0 6 5 7 10 4 6 -3 10 -11 10
-16z m-30 -19 c0 -5 -4 -10 -10 -10 -5 0 -10 5 -10 10 0 6 5 10 10 10 6 0 10
-4 10 -10z"/>
<path d="M623 6256 c4 -9 -2 -17 -14 -21 -22 -7 -23 -14 -5 -37 17 -23 26 -23
26 1 0 14 8 21 27 23 36 4 39 20 6 36 -35 16 -46 15 -40 -2z"/>
<path d="M320 6250 c0 -5 7 -10 15 -10 8 0 15 5 15 10 0 6 -7 10 -15 10 -8 0
-15 -4 -15 -10z"/>
<path d="M310 6220 c0 -5 5 -10 11 -10 5 0 7 -4 4 -10 -3 -5 -20 -10 -36 -10
l-30 0 3 -62 c3 -61 4 -63 33 -68 l30 -6 -34 -7 c-18 -4 -53 -7 -77 -7 -43 0
-61 -15 -26 -22 12 -3 4 -12 -30 -34 -65 -40 -63 -63 3 -29 29 16 29 15 35
-15 9 -45 28 -37 21 9 -6 48 12 66 77 75 25 4 46 11 46 16 0 5 18 14 40 20 39
11 46 22 34 54 -8 20 -24 21 -24 1 0 -20 -32 -35 -72 -34 -30 2 -31 2 -5 6 29
5 38 23 11 23 -8 0 -22 7 -30 15 -14 13 -14 15 0 15 9 0 16 -4 16 -10 0 -5 9
-10 20 -10 39 0 18 36 -25 43 -28 4 -28 4 6 6 29 1 38 6 43 24 9 34 8 37 -19
37 -14 0 -25 -4 -25 -10z"/>
<path d="M265 5790 c0 -32 3 -40 18 -40 13 0 17 5 14 14 -3 8 -1 17 6 20 9 5
9 7 0 12 -7 3 -13 12 -13 20 0 8 -6 14 -13 14 -8 0 -12 -14 -12 -40z"/>
<path d="M173 5806 c4 -9 -2 -17 -14 -21 -21 -7 -25 -20 -9 -30 20 -12 9 -25
-20 -25 -16 0 -30 -4 -30 -10 0 -5 9 -10 20 -10 25 0 35 -36 20 -74 -12 -33
-4 -48 13 -26 7 8 25 21 41 28 27 12 28 12 16 -3 -15 -18 0 -42 19 -31 14 9
14 99 0 113 -9 9 -9 20 0 44 6 18 10 33 9 33 -2 1 -13 7 -25 14 -30 16 -46 15
-40 -2z m27 -51 c0 -8 -4 -15 -10 -15 -5 0 -10 7 -10 15 0 8 5 15 10 15 6 0
10 -7 10 -15z m-7 -42 c-7 -2 -19 -2 -25 0 -7 3 -2 5 12 5 14 0 19 -2 13 -5z
m27 -34 c0 -6 -4 -7 -10 -4 -5 3 -10 11 -10 16 0 6 5 7 10 4 6 -3 10 -11 10
-16z m-30 -19 c0 -5 -4 -10 -10 -10 -5 0 -10 5 -10 10 0 6 5 10 10 10 6 0 10
-4 10 -10z"/>
<path d="M623 5806 c4 -9 -2 -17 -14 -21 -22 -7 -23 -14 -5 -37 17 -23 26 -23
26 2 0 11 5 20 10 20 6 0 10 -7 10 -15 0 -24 20 -17 31 11 5 15 8 27 7 28 -2
0 -13 7 -25 14 -30 16 -46 15 -40 -2z"/>
<path d="M320 5800 c0 -5 7 -10 15 -10 8 0 15 5 15 10 0 6 -7 10 -15 10 -8 0
-15 -4 -15 -10z"/>
<path d="M310 5770 c0 -5 5 -10 11 -10 5 0 7 -4 4 -10 -3 -5 -20 -10 -36 -10
l-30 0 3 -62 c3 -61 4 -63 33 -68 l30 -6 -34 -7 c-18 -4 -53 -7 -77 -7 -43 0
-61 -15 -26 -22 12 -3 4 -12 -30 -34 -65 -40 -63 -63 3 -29 29 16 29 15 35
-15 8 -39 24 -39 24 0 0 20 5 30 15 30 8 0 15 5 15 10 0 6 -7 10 -16 10 -34 0
12 27 59 34 26 4 47 11 47 16 0 5 18 14 40 20 39 11 46 22 34 54 -8 20 -24 21
-24 1 0 -20 -32 -35 -72 -34 -30 2 -31 2 -5 6 29 5 38 23 11 23 -8 0 -22 7
-30 15 -14 13 -14 15 0 15 9 0 16 -4 16 -10 0 -5 9 -10 20 -10 39 0 18 36 -25
43 -28 4 -28 4 6 6 29 1 38 6 43 24 9 34 8 37 -19 37 -14 0 -25 -4 -25 -10z"/>
<path d="M270 5540 c0 -5 9 -10 21 -10 18 0 20 -4 15 -25 -4 -17 -2 -25 7 -25
16 0 40 47 32 61 -8 12 -75 12 -75 -1z"/>
<path d="M265 5340 c0 -32 3 -40 18 -40 13 0 17 5 14 14 -3 8 -1 17 6 20 9 5
9 7 0 12 -7 3 -13 12 -13 20 0 8 -6 14 -13 14 -8 0 -12 -14 -12 -40z"/>
<path d="M173 5356 c4 -9 -2 -17 -14 -21 -21 -7 -25 -20 -9 -30 20 -12 9 -25
-20 -25 -16 0 -30 -4 -30 -10 0 -5 9 -10 20 -10 25 0 35 -36 20 -74 -12 -33
-4 -48 13 -26 7 8 25 21 41 28 27 12 28 12 16 -3 -15 -18 0 -42 19 -31 14 9
14 99 0 113 -9 9 -9 20 0 44 6 18 10 33 9 33 -2 1 -13 7 -25 14 -30 16 -46 15
-40 -2z m27 -51 c0 -8 -4 -15 -10 -15 -5 0 -10 7 -10 15 0 8 5 15 10 15 6 0
10 -7 10 -15z m-7 -42 c-7 -2 -19 -2 -25 0 -7 3 -2 5 12 5 14 0 19 -2 13 -5z
m27 -34 c0 -6 -4 -7 -10 -4 -5 3 -10 11 -10 16 0 6 5 7 10 4 6 -3 10 -11 10
-16z m-30 -19 c0 -5 -4 -10 -10 -10 -5 0 -10 5 -10 10 0 6 5 10 10 10 6 0 10
-4 10 -10z"/>
<path d="M623 5356 c4 -9 -2 -17 -14 -21 -21 -7 -25 -20 -9 -30 20 -12 9 -25
-20 -25 -16 0 -30 -5 -30 -11 0 -8 15 -10 46 -5 26 3 52 6 59 6 9 0 41 72 32
74 -1 1 -12 7 -24 14 -30 16 -46 15 -40 -2z m27 -51 c0 -8 -4 -15 -10 -15 -5
0 -10 7 -10 15 0 8 5 15 10 15 6 0 10 -7 10 -15z"/>
<path d="M320 5350 c0 -5 7 -10 15 -10 8 0 15 5 15 10 0 6 -7 10 -15 10 -8 0
-15 -4 -15 -10z"/>
<path d="M310 5320 c0 -5 5 -10 11 -10 5 0 7 -4 4 -10 -3 -5 -20 -10 -36 -10
l-30 0 3 -62 c3 -61 4 -63 33 -68 l30 -6 -34 -7 c-18 -4 -53 -7 -77 -7 -43 0
-61 -15 -26 -22 12 -3 4 -12 -30 -34 -65 -40 -63 -63 3 -29 29 16 29 16 36
-15 4 -22 10 -29 20 -26 8 4 36 6 62 6 43 0 47 2 58 31 7 18 10 36 7 40 -7 12
-74 11 -74 -1 0 -5 9 -10 21 -10 14 0 19 -5 17 -17 -4 -25 -88 -32 -88 -9 0 9
7 16 15 16 8 0 15 5 15 10 0 6 -7 10 -16 10 -34 0 12 27 59 34 26 4 47 11 47
16 0 5 18 14 40 20 39 11 46 22 34 54 -8 20 -24 21 -24 1 0 -20 -32 -35 -72
-34 -30 2 -31 2 -5 6 29 5 38 23 11 23 -8 0 -22 7 -30 15 -14 13 -14 15 0 15
9 0 16 -4 16 -10 0 -5 9 -10 20 -10 39 0 18 36 -25 43 -28 4 -28 4 6 6 29 1
38 6 43 24 9 34 8 37 -19 37 -14 0 -25 -4 -25 -10z"/>
<path d="M623 4906 c4 -9 -2 -17 -14 -21 -21 -7 -25 -20 -9 -30 20 -12 9 -25
-20 -25 -16 0 -30 -4 -30 -10 0 -5 9 -10 20 -10 25 0 35 -36 20 -74 -12 -32
-6 -46 13 -27 6 6 12 34 12 61 0 47 2 50 26 50 21 0 28 7 37 37 6 20 10 37 9
37 -1 1 -12 7 -24 14 -30 16 -46 15 -40 -2z m27 -51 c0 -8 -4 -15 -10 -15 -5
0 -10 7 -10 15 0 8 5 15 10 15 6 0 10 -7 10 -15z"/>
<path d="M623 4456 c4 -9 -2 -17 -14 -21 -21 -7 -25 -20 -9 -30 20 -12 9 -25
-20 -25 -16 0 -30 -4 -30 -10 0 -5 9 -10 20 -10 25 0 35 -36 20 -74 -6 -16 -8
-31 -6 -33 11 -11 26 11 32 47 6 35 32 59 48 42 10 -10 6 -48 -6 -60 -14 -14
4 -38 21 -28 14 9 14 99 0 113 -9 9 -9 20 0 44 6 18 10 33 9 33 -2 1 -13 7
-25 14 -30 16 -46 15 -40 -2z m27 -51 c0 -8 -4 -15 -10 -15 -5 0 -10 7 -10 15
0 8 5 15 10 15 6 0 10 -7 10 -15z m-7 -42 c-7 -2 -19 -2 -25 0 -7 3 -2 5 12 5
14 0 19 -2 13 -5z"/>
<path d="M623 4006 c4 -9 -2 -17 -14 -21 -21 -7 -25 -20 -9 -30 20 -12 9 -25
-20 -25 -16 0 -30 -4 -30 -10 0 -5 9 -10 20 -10 25 0 35 -36 20 -74 -6 -16 -8
-31 -6 -33 10 -10 25 8 31 38 6 24 10 29 27 23 17 -5 19 -3 13 16 -5 15 -4 20
4 16 15 -9 14 -49 -1 -64 -14 -14 4 -38 21 -28 14 9 14 99 0 113 -9 9 -9 20 0
44 6 18 10 33 9 33 -2 1 -13 7 -25 14 -30 16 -46 15 -40 -2z m27 -51 c0 -8 -4
-15 -10 -15 -5 0 -10 7 -10 15 0 8 5 15 10 15 6 0 10 -7 10 -15z m-7 -42 c-7
-2 -19 -2 -25 0 -7 3 -2 5 12 5 14 0 19 -2 13 -5z"/>
<path d="M623 3556 c4 -9 -2 -17 -14 -21 -21 -7 -25 -20 -9 -30 20 -12 9 -25
-20 -25 -16 0 -30 -4 -30 -10 0 -5 9 -10 20 -10 25 0 35 -36 20 -74 -12 -33
-4 -48 13 -26 7 8 25 21 41 28 27 12 28 12 16 -3 -15 -18 0 -42 19 -31 14 9
14 99 0 113 -9 9 -9 20 0 44 6 18 10 33 9 33 -2 1 -13 7 -25 14 -30 16 -46 15
-40 -2z m27 -51 c0 -8 -4 -15 -10 -15 -5 0 -10 7 -10 15 0 8 5 15 10 15 6 0
10 -7 10 -15z m-7 -42 c-7 -2 -19 -2 -25 0 -7 3 -2 5 12 5 14 0 19 -2 13 -5z
m27 -34 c0 -6 -4 -7 -10 -4 -5 3 -10 11 -10 16 0 6 5 7 10 4 6 -3 10 -11 10
-16z m-30 -19 c0 -5 -4 -10 -10 -10 -5 0 -10 5 -10 10 0 6 5 10 10 10 6 0 10
-4 10 -10z"/>
<path d="M623 3106 c4 -9 -2 -17 -14 -21 -21 -7 -25 -20 -9 -30 20 -12 9 -25
-20 -25 -16 0 -30 -4 -30 -10 0 -5 9 -10 20 -10 25 0 35 -36 20 -74 -12 -33
-4 -48 13 -26 7 8 25 21 41 28 27 12 28 12 16 -3 -15 -18 0 -42 19 -31 14 9
14 99 0 113 -9 9 -9 20 0 44 6 18 10 33 9 33 -2 1 -13 7 -25 14 -30 16 -46 15
-40 -2z m27 -51 c0 -8 -4 -15 -10 -15 -5 0 -10 7 -10 15 0 8 5 15 10 15 6 0
10 -7 10 -15z m-7 -42 c-7 -2 -19 -2 -25 0 -7 3 -2 5 12 5 14 0 19 -2 13 -5z
m27 -34 c0 -6 -4 -7 -10 -4 -5 3 -10 11 -10 16 0 6 5 7 10 4 6 -3 10 -11 10
-16z m-30 -19 c0 -5 -4 -10 -10 -10 -5 0 -10 5 -10 10 0 6 5 10 10 10 6 0 10
-4 10 -10z"/>
<path d="M770 3100 c0 -5 7 -10 15 -10 8 0 15 5 15 10 0 6 -7 10 -15 10 -8 0
-15 -4 -15 -10z"/>
<path d="M740 3090 c0 -5 5 -10 10 -10 6 0 10 5 10 10 0 6 -4 10 -10 10 -5 0
-10 -4 -10 -10z"/>
<path d="M715 2640 c0 -32 3 -40 18 -40 13 0 17 5 14 14 -3 8 -1 17 6 20 9 5
9 7 0 12 -7 3 -13 12 -13 20 0 8 -6 14 -13 14 -8 0 -12 -14 -12 -40z"/>
<path d="M623 2656 c4 -9 -2 -17 -14 -21 -21 -7 -25 -20 -9 -30 20 -12 9 -25
-20 -25 -16 0 -30 -4 -30 -10 0 -5 9 -10 20 -10 25 0 35 -36 20 -74 -12 -33
-4 -48 13 -26 7 8 25 21 41 28 27 12 28 12 16 -3 -15 -18 0 -42 19 -31 14 9
14 99 0 113 -9 9 -9 20 0 44 6 18 10 33 9 33 -2 1 -13 7 -25 14 -30 16 -46 15
-40 -2z m27 -51 c0 -8 -4 -15 -10 -15 -5 0 -10 7 -10 15 0 8 5 15 10 15 6 0
10 -7 10 -15z m-7 -42 c-7 -2 -19 -2 -25 0 -7 3 -2 5 12 5 14 0 19 -2 13 -5z
m27 -34 c0 -6 -4 -7 -10 -4 -5 3 -10 11 -10 16 0 6 5 7 10 4 6 -3 10 -11 10
-16z m-30 -19 c0 -5 -4 -10 -10 -10 -5 0 -10 5 -10 10 0 6 5 10 10 10 6 0 10
-4 10 -10z"/>
<path d="M770 2650 c0 -5 7 -10 15 -10 8 0 15 5 15 10 0 6 -7 10 -15 10 -8 0
-15 -4 -15 -10z"/>
<path d="M760 2620 c0 -5 5 -10 10 -10 6 0 10 -7 10 -15 0 -20 16 -19 24 1 10
27 7 34 -19 34 -14 0 -25 -4 -25 -10z"/>
<path d="M715 2190 c0 -32 3 -40 18 -40 13 0 17 5 14 14 -3 8 -1 17 6 20 9 5
9 7 0 12 -7 3 -13 12 -13 20 0 8 -6 14 -13 14 -8 0 -12 -14 -12 -40z"/>
<path d="M623 2206 c4 -9 -2 -17 -14 -21 -21 -7 -25 -20 -9 -30 20 -12 9 -25
-20 -25 -16 0 -30 -4 -30 -10 0 -5 9 -10 20 -10 25 0 35 -36 20 -74 -12 -33
-4 -48 13 -26 7 8 25 21 41 28 27 12 28 12 16 -3 -15 -18 0 -42 19 -31 14 9
14 99 0 113 -9 9 -9 20 0 44 6 18 10 33 9 33 -2 1 -13 7 -25 14 -30 16 -46 15
-40 -2z m27 -51 c0 -8 -4 -15 -10 -15 -5 0 -10 7 -10 15 0 8 5 15 10 15 6 0
10 -7 10 -15z m-7 -42 c-7 -2 -19 -2 -25 0 -7 3 -2 5 12 5 14 0 19 -2 13 -5z
m27 -34 c0 -6 -4 -7 -10 -4 -5 3 -10 11 -10 16 0 6 5 7 10 4 6 -3 10 -11 10
-16z m-30 -19 c0 -5 -4 -10 -10 -10 -5 0 -10 5 -10 10 0 6 5 10 10 10 6 0 10
-4 10 -10z"/>
<path d="M770 2200 c0 -5 7 -10 15 -10 8 0 15 5 15 10 0 6 -7 10 -15 10 -8 0
-15 -4 -15 -10z"/>
<path d="M760 2170 c0 -5 5 -10 11 -10 5 0 7 -4 4 -10 -3 -5 -15 -10 -26 -10
-10 0 -19 -4 -19 -10 0 -5 15 -10 34 -10 26 0 35 5 40 23 9 34 8 37 -19 37
-14 0 -25 -4 -25 -10z"/>
<path d="M715 1740 c0 -32 3 -40 18 -40 13 0 17 5 14 14 -3 8 -1 17 6 20 9 5
9 7 0 12 -7 3 -13 12 -13 20 0 8 -6 14 -13 14 -8 0 -12 -14 -12 -40z"/>
<path d="M623 1756 c4 -9 -2 -17 -14 -21 -21 -7 -25 -20 -9 -30 20 -12 9 -25
-20 -25 -16 0 -30 -4 -30 -10 0 -5 9 -10 20 -10 25 0 35 -36 20 -74 -12 -33
-4 -48 13 -26 7 8 25 21 41 28 27 12 28 12 16 -3 -15 -18 0 -42 19 -31 14 9
14 99 0 113 -9 9 -9 20 0 44 6 18 10 33 9 33 -2 1 -13 7 -25 14 -30 16 -46 15
-40 -2z m27 -51 c0 -8 -4 -15 -10 -15 -5 0 -10 7 -10 15 0 8 5 15 10 15 6 0
10 -7 10 -15z m-7 -42 c-7 -2 -19 -2 -25 0 -7 3 -2 5 12 5 14 0 19 -2 13 -5z
m27 -34 c0 -6 -4 -7 -10 -4 -5 3 -10 11 -10 16 0 6 5 7 10 4 6 -3 10 -11 10
-16z m-30 -19 c0 -5 -4 -10 -10 -10 -5 0 -10 5 -10 10 0 6 5 10 10 10 6 0 10
-4 10 -10z"/>
<path d="M770 1750 c0 -5 7 -10 15 -10 8 0 15 5 15 10 0 6 -7 10 -15 10 -8 0
-15 -4 -15 -10z"/>
<path d="M760 1720 c0 -5 5 -10 11 -10 5 0 7 -4 4 -10 -3 -5 -20 -10 -36 -10
l-30 0 3 -62 3 -62 39 -8 c45 -10 116 7 116 27 0 21 -11 45 -21 45 -5 0 -9 -7
-9 -15 0 -20 -35 -37 -73 -33 -30 3 -32 6 -35 46 -3 42 -3 42 31 42 27 0 36 5
41 23 9 34 8 37 -19 37 -14 0 -25 -4 -25 -10z"/>
<path d="M715 1290 c0 -32 3 -40 18 -40 13 0 17 5 14 14 -3 8 -1 17 6 20 9 5
9 7 0 12 -7 3 -13 12 -13 20 0 8 -6 14 -13 14 -8 0 -12 -14 -12 -40z"/>
<path d="M623 1306 c4 -9 -2 -17 -14 -21 -21 -7 -25 -20 -9 -30 20 -12 9 -25
-20 -25 -16 0 -30 -4 -30 -10 0 -5 9 -10 20 -10 25 0 35 -36 20 -74 -12 -33
-4 -48 13 -26 7 8 25 21 41 28 27 12 28 12 16 -3 -15 -18 0 -42 19 -31 14 9
14 99 0 113 -9 9 -9 20 0 44 6 18 10 33 9 33 -2 1 -13 7 -25 14 -30 16 -46 15
-40 -2z m27 -51 c0 -8 -4 -15 -10 -15 -5 0 -10 7 -10 15 0 8 5 15 10 15 6 0
10 -7 10 -15z m-7 -42 c-7 -2 -19 -2 -25 0 -7 3 -2 5 12 5 14 0 19 -2 13 -5z
m27 -34 c0 -6 -4 -7 -10 -4 -5 3 -10 11 -10 16 0 6 5 7 10 4 6 -3 10 -11 10
-16z m-30 -19 c0 -5 -4 -10 -10 -10 -5 0 -10 5 -10 10 0 6 5 10 10 10 6 0 10
-4 10 -10z"/>
<path d="M770 1300 c0 -5 7 -10 15 -10 8 0 15 5 15 10 0 6 -7 10 -15 10 -8 0
-15 -4 -15 -10z"/>
<path d="M760 1270 c0 -5 5 -10 11 -10 5 0 7 -4 4 -10 -3 -5 -20 -10 -36 -10
l-30 0 3 -62 3 -62 39 -8 c45 -10 116 7 116 27 0 21 -11 45 -21 45 -5 0 -9 -7
-9 -15 0 -20 -35 -37 -73 -33 -27 2 -33 8 -35 31 -3 24 0 27 27 27 41 0 40 18
-1 23 l-33 4 36 1 c29 2 38 7 43 25 9 34 8 37 -19 37 -14 0 -25 -4 -25 -10z"/>
<path d="M715 840 c0 -32 3 -40 18 -40 13 0 17 5 14 14 -3 8 -1 17 6 20 9 5 9
7 0 12 -7 3 -13 12 -13 20 0 8 -6 14 -13 14 -8 0 -12 -14 -12 -40z"/>
<path d="M623 856 c4 -9 -2 -17 -14 -21 -21 -7 -25 -20 -9 -30 20 -12 9 -25
-20 -25 -16 0 -30 -4 -30 -10 0 -5 9 -10 20 -10 25 0 35 -36 20 -74 -12 -33
-4 -48 13 -26 7 8 25 21 41 28 27 12 28 12 16 -3 -15 -18 0 -42 19 -31 14 9
14 99 0 113 -9 9 -9 20 0 44 6 18 10 33 9 33 -2 1 -13 7 -25 14 -30 16 -46 15
-40 -2z m27 -51 c0 -8 -4 -15 -10 -15 -5 0 -10 7 -10 15 0 8 5 15 10 15 6 0
10 -7 10 -15z m-7 -42 c-7 -2 -19 -2 -25 0 -7 3 -2 5 12 5 14 0 19 -2 13 -5z
m27 -34 c0 -6 -4 -7 -10 -4 -5 3 -10 11 -10 16 0 6 5 7 10 4 6 -3 10 -11 10
-16z m-30 -19 c0 -5 -4 -10 -10 -10 -5 0 -10 5 -10 10 0 6 5 10 10 10 6 0 10
-4 10 -10z"/>
<path d="M770 850 c0 -5 7 -10 15 -10 8 0 15 5 15 10 0 6 -7 10 -15 10 -8 0
-15 -4 -15 -10z"/>
<path d="M760 820 c0 -5 5 -10 11 -10 5 0 7 -4 4 -10 -3 -5 -20 -10 -36 -10
l-30 0 3 -62 3 -62 39 -8 c45 -10 116 7 116 27 0 21 -11 45 -21 45 -5 0 -9 -7
-9 -15 0 -19 -31 -35 -69 -35 -34 0 -51 18 -30 31 12 8 12 11 -1 19 -13 8 -12
10 3 10 9 0 17 -4 17 -10 0 -5 9 -10 20 -10 39 0 18 36 -25 43 -28 4 -28 4 6
6 29 1 38 6 43 24 9 34 8 37 -19 37 -14 0 -25 -4 -25 -10z"/>
<path d="M715 390 c0 -32 3 -40 18 -40 13 0 17 5 14 14 -3 8 -1 17 6 20 9 5 9
7 0 12 -7 3 -13 12 -13 20 0 8 -6 14 -13 14 -8 0 -12 -14 -12 -40z"/>
<path d="M623 406 c4 -9 -2 -17 -14 -21 -21 -7 -25 -20 -9 -30 20 -12 9 -25
-20 -25 -16 0 -30 -4 -30 -10 0 -5 9 -10 20 -10 25 0 35 -36 20 -74 -12 -33
-4 -48 13 -26 7 8 25 21 41 28 27 12 28 12 16 -3 -15 -18 0 -42 19 -31 14 9
14 99 0 113 -9 9 -9 20 0 44 6 18 10 33 9 33 -2 1 -13 7 -25 14 -30 16 -46 15
-40 -2z m27 -51 c0 -8 -4 -15 -10 -15 -5 0 -10 7 -10 15 0 8 5 15 10 15 6 0
10 -7 10 -15z m-7 -42 c-7 -2 -19 -2 -25 0 -7 3 -2 5 12 5 14 0 19 -2 13 -5z
m27 -34 c0 -6 -4 -7 -10 -4 -5 3 -10 11 -10 16 0 6 5 7 10 4 6 -3 10 -11 10
-16z m-30 -19 c0 -5 -4 -10 -10 -10 -5 0 -10 5 -10 10 0 6 5 10 10 10 6 0 10
-4 10 -10z"/>
<path d="M770 400 c0 -5 7 -10 15 -10 8 0 15 5 15 10 0 6 -7 10 -15 10 -8 0
-15 -4 -15 -10z"/>
<path d="M760 370 c0 -5 5 -10 11 -10 5 0 7 -4 4 -10 -3 -5 -20 -10 -36 -10
l-30 0 3 -62 3 -62 39 -8 c45 -10 116 7 116 27 0 21 -11 45 -21 45 -5 0 -9 -7
-9 -15 0 -20 -32 -35 -72 -34 -30 2 -31 2 -5 6 29 5 38 23 11 23 -8 0 -22 7
-30 15 -14 13 -14 15 0 15 9 0 16 -4 16 -10 0 -5 9 -10 20 -10 39 0 18 36 -25
43 -28 4 -28 4 6 6 29 1 38 6 43 24 9 34 8 37 -19 37 -14 0 -25 -4 -25 -10z"/>
</g>
</svg>
