<?xml version="1.0" standalone="no"?>
<!DOCTYPE svg PUBLIC "-//W3C//DTD SVG 20010904//EN"
 "http://www.w3.org/TR/2001/REC-SVG-20010904/DTD/svg10.dtd">
<svg version="1.0" xmlns="http://www.w3.org/2000/svg"
 width="50.000000pt" height="725.000000pt" viewBox="0 0 50.000000 725.000000"
 preserveAspectRatio="xMidYMid meet">
<metadata>
Created by potrace 1.16, written by Peter Selinger 2001-2019
</metadata>
<g transform="translate(0.000000,725.000000) scale(0.100000,-0.100000)"
fill="#000000" stroke="none">
<path d="M150 7142 c0 -14 23 -32 42 -32 21 0 23 11 6 28 -13 13 -48 16 -48 4z"/>
<path d="M150 6692 c0 -14 23 -32 42 -32 21 0 23 11 6 28 -13 13 -48 16 -48 4z"/>
<path d="M138 6612 c-27 -9 -48 -19 -48 -24 0 -11 38 -10 61 2 28 16 24 3 -22
-57 -45 -61 -45 -82 1 -38 45 43 83 103 76 120 -6 17 -5 17 -68 -3z"/>
<path d="M150 6242 c0 -14 23 -32 42 -32 21 0 23 11 6 28 -13 13 -48 16 -48 4z"/>
<path d="M138 6162 c-27 -9 -48 -19 -48 -24 0 -11 38 -10 61 2 28 16 24 3 -22
-57 -46 -61 -45 -82 2 -37 l31 29 -4 -64 c-2 -45 1 -65 10 -68 9 -3 12 14 14
64 2 92 2 95 17 121 12 23 9 53 -6 51 -4 -1 -29 -9 -55 -17z"/>
<path d="M150 5792 c0 -14 23 -32 42 -32 21 0 23 11 6 28 -13 13 -48 16 -48 4z"/>
<path d="M138 5712 c-27 -9 -48 -19 -48 -24 0 -11 38 -10 61 2 28 16 24 3 -22
-57 -46 -61 -45 -82 2 -37 l31 29 -4 -64 c-2 -45 1 -65 10 -68 9 -4 12 13 12
63 0 53 3 65 12 56 17 -17 28 -15 28 7 0 11 -9 22 -20 26 -18 6 -19 8 -4 31
15 23 13 56 -3 53 -4 -1 -29 -9 -55 -17z"/>
<path d="M150 5342 c0 -14 23 -32 42 -32 21 0 23 11 6 28 -13 13 -48 16 -48 4z"/>
<path d="M291 5304 c-43 -43 -33 -54 22 -24 54 30 52 27 37 45 -17 20 -20 19
-59 -21z"/>
<path d="M138 5262 c-27 -9 -48 -19 -48 -24 0 -11 38 -10 61 2 28 16 24 3 -22
-57 -46 -61 -45 -82 2 -37 l31 29 -4 -64 c-2 -45 1 -65 10 -68 9 -4 12 13 12
63 0 53 3 65 12 56 17 -17 28 -15 28 7 0 11 -9 22 -20 26 -18 6 -19 8 -4 31
15 23 13 56 -3 53 -4 -1 -29 -9 -55 -17z"/>
<path d="M150 4892 c0 -14 23 -32 42 -32 21 0 23 11 6 28 -13 13 -48 16 -48 4z"/>
<path d="M291 4854 c-19 -19 -39 -34 -45 -34 -7 0 -11 -34 -11 -100 0 -108 5
-117 45 -75 25 26 21 47 -5 25 -13 -11 -15 -6 -15 41 0 79 7 94 53 119 54 30
52 27 37 45 -17 20 -20 19 -59 -21z"/>
<path d="M138 4812 c-27 -9 -48 -19 -48 -24 0 -11 38 -10 61 2 28 16 24 3 -22
-57 -46 -61 -45 -82 2 -37 l31 29 -4 -64 c-2 -45 1 -65 10 -68 9 -4 12 13 12
63 0 53 3 65 12 56 17 -17 28 -15 28 7 0 11 -9 22 -20 26 -18 6 -19 8 -4 31
15 23 13 56 -3 53 -4 -1 -29 -9 -55 -17z"/>
<path d="M150 4442 c0 -14 23 -32 42 -32 21 0 23 11 6 28 -13 13 -48 16 -48 4z"/>
<path d="M291 4404 c-19 -19 -39 -34 -45 -34 -7 0 -11 -34 -11 -100 0 -108 5
-117 45 -75 25 26 21 47 -5 25 -13 -11 -15 -7 -15 27 0 38 1 39 45 51 25 7 56
12 70 12 25 0 33 14 15 25 -5 3 -35 -1 -67 -9 -31 -8 -58 -14 -60 -13 -11 12
16 48 50 67 54 30 52 27 37 45 -17 20 -20 19 -59 -21z"/>
<path d="M138 4362 c-27 -9 -48 -19 -48 -24 0 -11 38 -10 61 2 28 16 24 3 -22
-57 -46 -61 -45 -82 2 -37 l31 29 -4 -64 c-2 -45 1 -65 10 -68 9 -4 12 13 12
63 0 53 3 65 12 56 17 -17 28 -15 28 7 0 11 -9 22 -20 26 -18 6 -19 8 -4 31
15 23 13 56 -3 53 -4 -1 -29 -9 -55 -17z"/>
<path d="M150 3992 c0 -14 23 -32 42 -32 21 0 23 11 6 28 -13 13 -48 16 -48 4z"/>
<path d="M291 3954 c-19 -19 -39 -34 -45 -34 -7 0 -11 -34 -11 -100 0 -108 5
-117 45 -75 25 26 21 47 -5 25 -13 -11 -15 -7 -15 28 0 34 3 40 25 44 22 5 28
-1 46 -41 24 -56 66 -101 92 -101 15 0 18 5 13 23 -3 12 -6 32 -6 45 0 12 -4
22 -10 22 -5 0 -10 -7 -10 -16 0 -24 -22 -12 -47 26 -31 45 -29 60 8 60 20 0
29 4 26 13 -2 7 -17 11 -34 10 -26 -2 -31 1 -36 25 -5 25 2 36 28 45 10 4 -12
38 -24 36 -3 0 -21 -16 -40 -35z m7 -66 c2 -9 -5 -18 -14 -22 -22 -8 -24 -5
-17 22 6 25 26 25 31 0z"/>
<path d="M138 3912 c-27 -9 -48 -19 -48 -24 0 -11 38 -10 61 2 28 16 24 3 -22
-57 -46 -61 -45 -82 2 -37 l31 29 -4 -64 c-2 -45 1 -65 10 -68 9 -4 12 13 12
63 0 53 3 65 12 56 17 -17 28 -15 28 7 0 11 -9 22 -20 26 -18 6 -19 8 -4 31
15 23 13 56 -3 53 -4 -1 -29 -9 -55 -17z"/>
</g>
</svg>
