<?xml version="1.0" standalone="no"?>
<!DOCTYPE svg PUBLIC "-//W3C//DTD SVG 20010904//EN"
 "http://www.w3.org/TR/2001/REC-SVG-20010904/DTD/svg10.dtd">
<svg version="1.0" xmlns="http://www.w3.org/2000/svg"
 width="50.000000pt" height="725.000000pt" viewBox="0 0 50.000000 725.000000"
 preserveAspectRatio="xMidYMid meet">
<metadata>
Created by potrace 1.16, written by Peter Selinger 2001-2019
</metadata>
<g transform="translate(0.000000,725.000000) scale(0.100000,-0.100000)"
fill="#000000" stroke="none">
<path d="M142 7138 c6 -16 36 -34 44 -26 3 4 4 14 1 23 -7 17 -51 21 -45 3z"/>
<path d="M142 6688 c6 -16 36 -34 44 -26 3 4 4 14 1 23 -7 17 -51 21 -45 3z"/>
<path d="M146 6626 c-22 -7 -42 -18 -44 -24 -5 -15 8 -15 42 -2 14 5 26 8 26
5 0 -2 -21 -30 -46 -60 -25 -31 -43 -59 -41 -62 18 -18 134 115 123 142 -6 17
-7 17 -60 1z"/>
<path d="M142 6238 c6 -16 36 -34 44 -26 3 4 4 14 1 23 -7 17 -51 21 -45 3z"/>
<path d="M146 6176 c-22 -7 -42 -18 -44 -24 -5 -15 8 -15 42 -2 14 5 26 8 26
5 0 -2 -21 -30 -46 -60 -50 -63 -52 -79 -4 -45 l32 23 -4 -63 c-2 -44 1 -64
10 -67 9 -3 12 14 14 64 0 37 1 75 0 83 0 8 9 27 20 42 11 16 17 35 14 43 -6
17 -7 17 -60 1z"/>
<path d="M142 5788 c6 -16 36 -34 44 -26 3 4 4 14 1 23 -7 17 -51 21 -45 3z"/>
<path d="M146 5726 c-22 -7 -42 -18 -44 -24 -5 -15 8 -15 42 -2 14 5 26 8 26
5 0 -2 -21 -30 -46 -60 -50 -63 -52 -79 -4 -45 l32 23 -4 -63 c-2 -44 1 -64
10 -67 9 -4 12 13 12 60 0 60 2 65 20 60 26 -7 26 13 0 27 l-21 11 22 30 c11
16 18 36 15 44 -6 17 -7 17 -60 1z"/>
<path d="M142 5338 c6 -16 36 -34 44 -26 3 4 4 14 1 23 -7 17 -51 21 -45 3z"/>
<path d="M259 5223 c-3 -73 -8 -94 -28 -121 -31 -44 -17 -55 19 -15 20 23 30
46 35 85 8 68 3 130 -11 135 -8 3 -13 -24 -15 -84z"/>
<path d="M146 5276 c-22 -7 -42 -18 -44 -24 -5 -15 8 -15 42 -2 14 5 26 8 26
5 0 -2 -21 -30 -46 -60 -50 -63 -52 -79 -4 -45 l32 23 -4 -63 c-2 -44 1 -64
10 -67 9 -4 12 13 12 60 0 60 2 65 20 60 26 -7 26 13 0 27 l-21 11 22 30 c11
16 18 36 15 44 -6 17 -7 17 -60 1z"/>
<path d="M142 4888 c6 -16 36 -34 44 -26 3 4 4 14 1 23 -7 17 -51 21 -45 3z"/>
<path d="M260 4817 c0 -40 -2 -45 -20 -40 -14 4 -20 0 -20 -12 0 -9 9 -19 21
-22 17 -5 20 -11 15 -35 -3 -16 -15 -43 -27 -59 -29 -42 -13 -51 21 -12 30 34
45 101 38 177 -5 57 -28 60 -28 3z"/>
<path d="M146 4826 c-22 -7 -42 -18 -44 -24 -5 -15 8 -15 42 -2 14 5 26 8 26
5 0 -2 -21 -30 -46 -60 -50 -63 -52 -79 -4 -45 l32 23 -4 -63 c-2 -44 1 -64
10 -67 9 -4 12 13 12 60 0 60 2 65 20 60 26 -7 26 13 0 27 l-21 11 22 30 c11
16 18 36 15 44 -6 17 -7 17 -60 1z"/>
<path d="M142 4438 c6 -16 36 -34 44 -26 3 4 4 14 1 23 -7 17 -51 21 -45 3z"/>
<path d="M260 4367 c0 -40 -2 -45 -20 -40 -14 4 -20 0 -20 -12 0 -9 9 -19 20
-22 28 -7 25 -19 -10 -33 -16 -7 -30 -19 -30 -26 0 -17 22 -18 38 -2 19 19 14
-1 -9 -34 -30 -41 -13 -50 21 -11 30 34 45 101 38 177 -5 57 -28 60 -28 3z"/>
<path d="M146 4376 c-22 -7 -42 -18 -44 -24 -5 -15 8 -15 42 -2 14 5 26 8 26
5 0 -2 -21 -30 -46 -60 -50 -63 -52 -79 -4 -45 l32 23 -4 -63 c-2 -44 1 -64
10 -67 9 -4 12 13 12 60 0 60 2 65 20 60 26 -7 26 13 0 27 l-21 11 22 30 c11
16 18 36 15 44 -6 17 -7 17 -60 1z"/>
<path d="M142 3988 c6 -16 36 -34 44 -26 3 4 4 14 1 23 -7 17 -51 21 -45 3z"/>
<path d="M310 3861 c0 -161 4 -171 74 -171 49 0 68 16 59 48 -7 27 -19 28 -33
2 -12 -22 -49 -27 -68 -8 -14 14 -15 104 -3 188 8 53 1 80 -20 80 -5 0 -9 -63
-9 -139z"/>
<path d="M260 3917 c0 -40 -2 -45 -20 -40 -14 4 -20 0 -20 -12 0 -9 9 -19 20
-22 28 -7 25 -19 -10 -33 -16 -7 -30 -19 -30 -26 0 -17 22 -18 38 -2 19 19 14
-1 -9 -34 -30 -41 -13 -50 21 -11 30 34 45 101 38 177 -5 57 -28 60 -28 3z"/>
<path d="M146 3926 c-22 -7 -42 -18 -44 -24 -5 -15 8 -15 42 -2 14 5 26 8 26
5 0 -2 -21 -30 -46 -60 -50 -63 -52 -79 -4 -45 l32 23 -4 -63 c-2 -44 1 -64
10 -67 9 -4 12 13 12 60 0 60 2 65 20 60 26 -7 26 13 0 27 l-21 11 22 30 c11
16 18 36 15 44 -6 17 -7 17 -60 1z"/>
<path d="M142 3538 c6 -16 36 -34 44 -26 3 4 4 14 1 23 -7 17 -51 21 -45 3z"/>
<path d="M310 3411 c0 -161 4 -171 74 -171 49 0 68 16 59 48 -7 27 -19 28 -33
2 -12 -22 -49 -27 -68 -8 -7 7 -12 35 -12 64 0 48 3 53 35 75 19 13 35 30 35
37 0 18 -31 15 -47 -5 -13 -16 -14 -13 -10 29 4 43 -5 68 -25 68 -4 0 -8 -63
-8 -139z"/>
<path d="M260 3467 c0 -40 -2 -45 -20 -40 -14 4 -20 0 -20 -12 0 -9 9 -19 20
-22 28 -7 25 -19 -10 -33 -16 -7 -30 -19 -30 -26 0 -17 22 -18 38 -2 19 19 14
-1 -9 -34 -30 -41 -13 -50 21 -11 30 34 45 101 38 177 -5 57 -28 60 -28 3z"/>
<path d="M146 3476 c-22 -7 -42 -18 -44 -24 -5 -15 8 -15 42 -2 14 5 26 8 26
5 0 -2 -21 -30 -46 -60 -50 -63 -52 -79 -4 -45 l32 23 -4 -63 c-2 -44 1 -64
10 -67 9 -4 12 13 12 60 0 60 2 65 20 60 26 -7 26 13 0 27 l-21 11 22 30 c11
16 18 36 15 44 -6 17 -7 17 -60 1z"/>
<path d="M142 3088 c6 -16 36 -34 44 -26 3 4 4 14 1 23 -7 17 -51 21 -45 3z"/>
<path d="M310 2961 c0 -161 4 -171 74 -171 49 0 68 16 59 48 -7 27 -19 28 -33
2 -12 -22 -49 -27 -68 -8 -7 7 -12 28 -12 47 l0 34 23 -21 c26 -24 47 -29 47
-9 0 19 -13 33 -43 49 l-29 14 36 25 c20 13 36 30 36 37 0 18 -31 15 -47 -5
-13 -16 -14 -13 -10 29 4 43 -5 68 -25 68 -4 0 -8 -63 -8 -139z"/>
<path d="M260 3017 c0 -40 -2 -45 -20 -40 -14 4 -20 0 -20 -12 0 -9 9 -19 20
-22 28 -7 25 -19 -10 -33 -16 -7 -30 -19 -30 -26 0 -17 22 -18 38 -2 19 19 14
-1 -9 -34 -30 -41 -13 -50 21 -11 30 34 45 101 38 177 -5 57 -28 60 -28 3z"/>
<path d="M146 3026 c-22 -7 -42 -18 -44 -24 -5 -15 8 -15 42 -2 14 5 26 8 26
5 0 -2 -21 -30 -46 -60 -50 -63 -52 -79 -4 -45 l32 23 -4 -63 c-2 -44 1 -64
10 -67 9 -4 12 13 12 60 0 60 2 65 20 60 26 -7 26 13 0 27 l-21 11 22 30 c11
16 18 36 15 44 -6 17 -7 17 -60 1z"/>
</g>
</svg>
