<?xml version="1.0" standalone="no"?>
<!DOCTYPE svg PUBLIC "-//W3C//DTD SVG 20010904//EN"
 "http://www.w3.org/TR/2001/REC-SVG-20010904/DTD/svg10.dtd">
<svg version="1.0" xmlns="http://www.w3.org/2000/svg"
 width="50.000000pt" height="725.000000pt" viewBox="0 0 50.000000 725.000000"
 preserveAspectRatio="xMidYMid meet">
<metadata>
Created by potrace 1.16, written by Peter Selinger 2001-2019
</metadata>
<g transform="translate(0.000000,725.000000) scale(0.100000,-0.100000)"
fill="#000000" stroke="none">
<path d="M150 7142 c0 -12 34 -42 48 -42 19 0 14 28 -7 40 -24 12 -41 13 -41
2z"/>
<path d="M150 6692 c0 -12 34 -42 48 -42 19 0 14 28 -7 40 -24 12 -41 13 -41
2z"/>
<path d="M170 6620 c-8 -5 -25 -10 -37 -10 -22 0 -40 -17 -29 -27 3 -4 22 -1
42 5 39 12 40 15 -20 -61 -21 -26 -36 -50 -33 -53 18 -19 134 114 123 141 -6
17 -24 19 -46 5z"/>
<path d="M150 6242 c0 -12 34 -42 48 -42 19 0 14 28 -7 40 -24 12 -41 13 -41
2z"/>
<path d="M170 6170 c-8 -5 -25 -10 -37 -10 -22 0 -40 -17 -29 -27 3 -4 22 -1
42 5 39 12 40 15 -20 -61 -44 -55 -42 -70 5 -36 l32 22 -7 -61 c-6 -52 -5 -62
9 -62 12 0 15 13 17 63 0 34 1 69 0 77 0 8 9 27 20 42 30 43 9 75 -32 48z"/>
<path d="M150 5792 c0 -12 34 -42 48 -42 19 0 14 28 -7 40 -24 12 -41 13 -41
2z"/>
<path d="M170 5720 c-8 -5 -25 -10 -37 -10 -22 0 -40 -17 -29 -27 3 -4 22 -1
42 5 39 12 40 15 -20 -61 -44 -55 -42 -70 5 -36 l32 22 -7 -61 c-6 -52 -5 -62
9 -62 12 0 15 13 15 62 0 48 3 59 12 50 16 -16 28 -15 28 3 0 8 -9 19 -20 25
l-21 11 22 30 c31 44 11 76 -31 49z"/>
<path d="M150 5342 c0 -12 34 -42 48 -42 19 0 14 28 -7 40 -24 12 -41 13 -41
2z"/>
<path d="M298 5287 c-73 -11 -92 -27 -30 -26 64 1 125 14 130 27 4 13 -3 13
-100 -1z"/>
<path d="M170 5270 c-8 -5 -25 -10 -37 -10 -22 0 -40 -17 -29 -27 3 -4 22 -1
42 5 39 12 40 15 -20 -61 -44 -55 -42 -70 5 -36 l32 22 -7 -61 c-6 -52 -5 -62
9 -62 12 0 15 13 15 62 0 48 3 59 12 50 16 -16 28 -15 28 3 0 8 -9 19 -20 25
l-21 11 22 30 c31 44 11 76 -31 49z"/>
<path d="M150 4892 c0 -12 34 -42 48 -42 19 0 14 28 -7 40 -24 12 -41 13 -41
2z"/>
<path d="M250 4856 c0 -13 -6 -27 -12 -30 -9 -3 -8 -8 5 -16 13 -8 17 -25 17
-70 0 -33 4 -60 10 -60 6 0 10 28 10 64 l0 65 48 6 c62 8 72 12 72 26 0 10
-53 6 -102 -7 -14 -4 -18 1 -18 20 0 16 -6 26 -15 26 -9 0 -15 -9 -15 -24z"/>
<path d="M170 4820 c-8 -5 -25 -10 -37 -10 -22 0 -40 -17 -29 -27 3 -4 22 -1
42 5 39 12 40 15 -20 -61 -44 -55 -42 -70 5 -36 l32 22 -7 -61 c-6 -52 -5 -62
9 -62 12 0 15 13 15 62 0 48 3 59 12 50 16 -16 28 -15 28 3 0 8 -9 19 -20 25
l-21 11 22 30 c31 44 11 76 -31 49z"/>
<path d="M330 4425 c0 -19 -4 -35 -9 -35 -5 0 -16 -3 -25 -6 -12 -5 -16 0 -16
20 0 16 -6 26 -15 26 -9 0 -15 -9 -15 -24 0 -13 -6 -27 -12 -30 -9 -3 -8 -8 5
-16 13 -8 17 -25 17 -70 0 -33 4 -60 10 -60 6 0 10 28 10 64 0 60 1 64 25 68
25 5 25 4 25 -58 0 -50 3 -64 15 -64 12 0 15 14 15 64 0 55 3 64 20 69 27 7
26 27 -1 27 -17 0 -20 4 -15 24 4 17 1 26 -10 30 -24 9 -24 9 -24 -29z"/>
<path d="M150 4442 c0 -12 34 -42 48 -42 19 0 14 28 -7 40 -24 12 -41 13 -41
2z"/>
<path d="M170 4370 c-8 -5 -25 -10 -37 -10 -22 0 -40 -17 -29 -27 3 -4 22 -1
42 5 39 12 40 15 -20 -61 -44 -55 -42 -70 5 -36 l32 22 -7 -61 c-6 -52 -5 -62
9 -62 12 0 15 13 15 62 0 48 3 59 12 50 16 -16 28 -15 28 3 0 8 -9 19 -20 25
l-21 11 22 30 c31 44 11 76 -31 49z"/>
<path d="M330 3975 c0 -19 -4 -35 -9 -35 -5 0 -16 -3 -25 -6 -12 -5 -16 0 -16
20 0 16 -6 26 -15 26 -9 0 -15 -9 -15 -24 0 -13 -6 -27 -12 -30 -9 -3 -8 -8 5
-16 13 -8 17 -25 17 -70 0 -33 4 -60 10 -60 6 0 10 18 10 39 0 26 5 41 16 45
29 11 34 6 34 -34 0 -29 4 -40 15 -40 12 0 15 14 15 64 0 55 3 64 20 69 27 7
26 27 -1 27 -17 0 -20 4 -15 24 4 17 1 26 -10 30 -24 9 -24 9 -24 -29z m0 -69
c0 -7 -11 -16 -25 -18 -16 -4 -25 -1 -25 8 0 7 10 15 23 17 12 2 23 5 25 6 1
0 2 -5 2 -13z"/>
<path d="M150 3992 c0 -12 34 -42 48 -42 19 0 14 28 -7 40 -24 12 -41 13 -41
2z"/>
<path d="M170 3920 c-8 -5 -25 -10 -37 -10 -22 0 -40 -17 -29 -27 3 -4 22 -1
42 5 39 12 40 15 -20 -61 -44 -55 -42 -70 5 -36 l32 22 -7 -61 c-6 -52 -5 -62
9 -62 12 0 15 13 15 62 0 48 3 59 12 50 16 -16 28 -15 28 3 0 8 -9 19 -20 25
l-21 11 22 30 c31 44 11 76 -31 49z"/>
<path d="M330 3525 c0 -19 -4 -35 -9 -35 -5 0 -16 -3 -25 -6 -12 -5 -16 0 -16
20 0 16 -6 26 -15 26 -9 0 -15 -9 -15 -24 0 -13 -6 -27 -12 -30 -9 -3 -8 -8 5
-16 13 -8 17 -25 17 -70 0 -33 4 -60 10 -60 6 0 10 9 10 20 0 11 4 20 9 20 5
0 16 3 25 6 12 4 16 0 16 -15 0 -12 6 -21 15 -21 12 0 15 14 15 64 0 55 3 64
20 69 27 7 26 27 -1 27 -17 0 -20 4 -15 24 4 17 1 26 -10 30 -24 9 -24 9 -24
-29z m0 -69 c0 -7 -11 -16 -25 -18 -16 -4 -25 -1 -25 8 0 7 10 15 23 17 12 2
23 5 25 6 1 0 2 -5 2 -13z m0 -45 c0 -10 -42 -23 -49 -15 -7 6 20 24 37 24 6
0 12 -4 12 -9z"/>
<path d="M150 3542 c0 -12 34 -42 48 -42 19 0 14 28 -7 40 -24 12 -41 13 -41
2z"/>
<path d="M170 3470 c-8 -5 -25 -10 -37 -10 -22 0 -40 -17 -29 -27 3 -4 22 -1
42 5 39 12 40 15 -20 -61 -44 -55 -42 -70 5 -36 l32 22 -7 -61 c-6 -52 -5 -62
9 -62 12 0 15 13 15 62 0 48 3 59 12 50 16 -16 28 -15 28 3 0 8 -9 19 -20 25
l-21 11 22 30 c31 44 11 76 -31 49z"/>
<path d="M330 3075 c0 -19 -4 -35 -9 -35 -5 0 -16 -3 -25 -6 -12 -5 -16 0 -16
20 0 16 -6 26 -15 26 -9 0 -15 -9 -15 -24 0 -13 -6 -27 -12 -30 -9 -3 -8 -8 5
-16 13 -8 17 -24 17 -65 0 -48 -2 -55 -20 -55 -11 0 -20 7 -20 15 0 8 -9 19
-20 25 l-21 11 22 30 c26 36 19 64 -14 54 -12 -3 -35 -10 -51 -14 -31 -7 -48
-31 -22 -31 8 0 27 5 42 10 30 12 32 15 -30 -63 -44 -55 -42 -70 5 -36 l32 22
-7 -61 c-6 -52 -4 -62 8 -62 11 0 16 15 18 63 3 59 4 61 16 33 10 -23 17 -27
35 -22 12 3 64 9 115 13 50 3 92 9 92 13 0 13 -30 20 -56 14 -23 -6 -24 -5
-24 54 0 51 3 60 20 65 27 7 26 27 -1 27 -17 0 -20 4 -15 24 4 17 1 26 -10 30
-24 9 -24 9 -24 -29z m0 -69 c0 -7 -11 -16 -25 -18 -16 -4 -25 -1 -25 8 0 7
10 15 23 17 12 2 23 5 25 6 1 0 2 -5 2 -13z m0 -45 c0 -10 -42 -23 -49 -15 -7
6 20 24 37 24 6 0 12 -4 12 -9z m0 -45 c0 -7 -11 -16 -25 -18 -29 -6 -36 18
-7 25 29 8 32 7 32 -7z"/>
<path d="M150 3092 c0 -12 34 -42 48 -42 19 0 14 28 -7 40 -24 12 -41 13 -41
2z"/>
<path d="M330 2625 c0 -19 -4 -35 -9 -35 -5 0 -16 -3 -25 -6 -12 -5 -16 0 -16
20 0 16 -6 26 -15 26 -9 0 -15 -9 -15 -24 0 -13 -6 -27 -12 -30 -9 -3 -8 -8 5
-16 13 -8 17 -24 17 -65 0 -48 -2 -55 -20 -55 -11 0 -20 7 -20 15 0 8 -9 19
-20 25 l-21 11 22 30 c26 36 19 64 -14 54 -12 -3 -35 -10 -51 -14 -31 -7 -48
-31 -22 -31 8 0 27 5 42 10 30 12 32 15 -30 -63 -44 -55 -42 -70 5 -36 l32 22
-7 -61 c-6 -52 -4 -62 8 -62 11 0 16 15 18 63 3 59 4 61 16 33 9 -21 17 -27
32 -23 26 7 26 -14 0 -38 -21 -19 -26 -35 -11 -35 18 0 72 53 67 65 -6 17 25
25 97 25 31 0 57 4 57 9 0 14 -29 22 -56 15 -23 -6 -24 -5 -24 54 0 51 3 60
20 65 27 7 26 27 -1 27 -17 0 -20 4 -15 24 4 17 1 26 -10 30 -24 9 -24 9 -24
-29z m0 -69 c0 -7 -11 -16 -25 -18 -16 -4 -25 -1 -25 8 0 7 10 15 23 17 12 2
23 5 25 6 1 0 2 -5 2 -13z m0 -45 c0 -10 -42 -23 -49 -15 -7 6 20 24 37 24 6
0 12 -4 12 -9z m0 -45 c0 -7 -11 -16 -25 -18 -29 -6 -36 18 -7 25 29 8 32 7
32 -7z"/>
<path d="M150 2642 c0 -12 34 -42 48 -42 19 0 14 28 -7 40 -24 12 -41 13 -41
2z"/>
<path d="M330 2175 c0 -19 -4 -35 -9 -35 -5 0 -16 -3 -25 -6 -12 -5 -16 0 -16
20 0 16 -6 26 -15 26 -9 0 -15 -9 -15 -24 0 -13 -6 -27 -12 -30 -9 -3 -8 -8 5
-16 13 -8 17 -24 17 -65 0 -48 -2 -55 -20 -55 -11 0 -20 7 -20 15 0 8 -9 19
-20 25 l-21 11 22 30 c26 36 19 64 -14 54 -12 -3 -35 -10 -51 -14 -31 -7 -48
-31 -22 -31 8 0 27 5 42 10 30 12 32 15 -30 -63 -44 -55 -42 -70 5 -36 l32 22
-7 -61 c-6 -52 -4 -62 8 -62 11 0 16 15 18 63 3 59 4 61 16 33 9 -21 17 -27
32 -23 26 7 26 -14 0 -38 -21 -19 -26 -35 -11 -35 18 0 72 53 67 65 -6 17 25
25 97 25 31 0 57 4 57 9 0 14 -29 22 -56 15 -23 -6 -24 -5 -24 54 0 51 3 60
20 65 27 7 26 27 -1 27 -17 0 -20 4 -15 24 4 17 1 26 -10 30 -24 9 -24 9 -24
-29z m0 -69 c0 -7 -11 -16 -25 -18 -16 -4 -25 -1 -25 8 0 7 10 15 23 17 12 2
23 5 25 6 1 0 2 -5 2 -13z m0 -45 c0 -10 -42 -23 -49 -15 -7 6 20 24 37 24 6
0 12 -4 12 -9z m0 -45 c0 -7 -11 -16 -25 -18 -29 -6 -36 18 -7 25 29 8 32 7
32 -7z"/>
<path d="M150 2192 c0 -12 34 -42 48 -42 19 0 14 28 -7 40 -24 12 -41 13 -41
2z"/>
<path d="M330 1954 c0 -10 52 -74 61 -74 5 0 9 11 9 25 0 17 -9 29 -30 40 -31
16 -40 18 -40 9z"/>
</g>
</svg>
