<?xml version="1.0" standalone="no"?>
<!DOCTYPE svg PUBLIC "-//W3C//DTD SVG 20010904//EN"
 "http://www.w3.org/TR/2001/REC-SVG-20010904/DTD/svg10.dtd">
<svg version="1.0" xmlns="http://www.w3.org/2000/svg"
 width="50.000000pt" height="725.000000pt" viewBox="0 0 50.000000 725.000000"
 preserveAspectRatio="xMidYMid meet">
<metadata>
Created by potrace 1.16, written by Peter Selinger 2001-2019
</metadata>
<g transform="translate(0.000000,725.000000) scale(0.100000,-0.100000)"
fill="#000000" stroke="none">
<path d="M221 7134 c-24 -13 -49 -25 -55 -27 -6 -2 -8 -7 -5 -11 11 -12 154
30 154 45 0 22 -46 19 -94 -7z"/>
<path d="M221 6684 c-24 -13 -49 -25 -55 -27 -6 -2 -8 -7 -5 -11 11 -12 154
30 154 45 0 22 -46 19 -94 -7z"/>
<path d="M218 6601 c-60 -10 -111 -21 -115 -24 -15 -16 10 -19 69 -9 35 6 96
14 136 18 47 4 71 11 69 18 -5 16 -40 16 -159 -3z"/>
<path d="M213 6231 c-58 -29 -69 -46 -24 -36 24 5 30 2 36 -15 9 -28 7 -30
-53 -37 -27 -3 -56 -9 -63 -14 -26 -16 0 -21 56 -12 30 6 57 7 59 4 1 -3 0
-42 -4 -86 -8 -85 -5 -108 14 -102 7 2 12 40 14 99 l3 95 37 7 c20 3 50 6 65
6 19 0 27 4 24 13 -3 8 -23 11 -64 9 l-60 -3 5 30 c3 23 10 31 31 33 34 4 35
33 1 34 -14 1 -49 -11 -77 -25z"/>
<path d="M213 5781 c-56 -28 -70 -48 -26 -37 17 5 29 3 34 -6 17 -27 8 -37
-38 -43 -66 -9 -83 -15 -83 -27 0 -6 18 -7 50 -3 31 4 50 3 50 -3 0 -6 -25
-33 -56 -61 -31 -29 -54 -54 -51 -57 8 -8 68 25 101 55 l29 26 -6 -61 c-5 -63
3 -92 22 -80 7 5 11 43 11 100 l0 93 38 7 c20 3 50 6 65 6 19 0 27 4 24 13 -3
8 -23 11 -64 9 l-60 -3 5 30 c3 23 10 31 31 33 34 4 35 33 1 34 -14 1 -49 -11
-77 -25z"/>
<path d="M213 5331 c-56 -28 -70 -48 -26 -37 17 5 29 3 34 -6 17 -27 8 -37
-38 -43 -66 -9 -83 -15 -83 -27 0 -6 18 -7 50 -3 31 4 50 3 50 -3 0 -6 -25
-33 -56 -61 -31 -29 -54 -54 -51 -57 8 -8 68 25 101 55 l29 26 -6 -61 c-5 -63
3 -92 22 -80 7 4 11 40 11 89 l1 82 25 -30 c75 -87 74 -86 106 -83 43 4 46 22
6 39 -18 7 -53 31 -76 53 -38 35 -41 41 -25 47 10 4 35 8 56 8 26 1 37 5 34
14 -3 8 -23 11 -64 9 l-60 -3 5 30 c3 23 10 31 31 33 34 4 35 33 1 34 -14 1
-49 -11 -77 -25z"/>
</g>
</svg>
