<?xml version="1.0" standalone="no"?>
<!DOCTYPE svg PUBLIC "-//W3C//DTD SVG 20010904//EN"
 "http://www.w3.org/TR/2001/REC-SVG-20010904/DTD/svg10.dtd">
<svg version="1.0" xmlns="http://www.w3.org/2000/svg"
 width="50.000000pt" height="725.000000pt" viewBox="0 0 50.000000 725.000000"
 preserveAspectRatio="xMidYMid meet">
<metadata>
Created by potrace 1.16, written by Peter Selinger 2001-2019
</metadata>
<g transform="translate(0.000000,725.000000) scale(0.100000,-0.100000)"
fill="#000000" stroke="none">
<path d="M158 7122 c-37 -27 -47 -42 -27 -42 23 0 109 44 106 54 -7 20 -42 15
-79 -12z"/>
<path d="M158 6672 c-37 -27 -47 -42 -27 -42 23 0 109 44 106 54 -7 20 -42 15
-79 -12z"/>
<path d="M133 6587 c-53 -10 -72 -27 -32 -27 40 0 149 23 149 32 0 10 -50 8
-117 -5z"/>
<path d="M158 6222 c-43 -31 -48 -45 -15 -40 16 2 23 -3 25 -19 3 -19 -3 -23
-42 -28 -61 -9 -61 -29 0 -22 l45 5 -7 -89 c-6 -78 -5 -89 9 -89 14 0 17 16
19 93 l3 92 28 3 c36 4 35 22 -1 22 -26 0 -28 3 -24 30 2 18 12 32 24 36 10 3
17 11 15 17 -7 21 -41 16 -79 -11z"/>
<path d="M158 5772 c-43 -31 -48 -45 -15 -40 16 2 23 -3 25 -19 3 -19 -3 -23
-42 -28 -56 -9 -62 -29 -7 -23 43 4 43 5 -2 -59 -38 -54 -26 -69 18 -22 l32
36 -5 -64 c-4 -53 -2 -63 11 -63 14 0 17 16 19 93 l3 92 28 3 c36 4 35 22 -1
22 -26 0 -28 3 -24 30 2 18 12 32 24 36 10 3 17 11 15 17 -7 21 -41 16 -79
-11z"/>
<path d="M158 5322 c-43 -31 -48 -45 -15 -40 16 2 23 -3 25 -19 3 -19 -3 -23
-42 -28 -56 -9 -62 -29 -7 -23 43 4 43 5 -2 -59 -38 -54 -26 -69 18 -22 l32
36 -5 -64 c-4 -54 -2 -63 12 -63 13 0 16 12 16 73 1 66 2 70 15 53 11 -15 18
-17 27 -8 14 14 -6 42 -29 42 -26 0 -8 25 20 28 36 4 35 22 -1 22 -26 0 -28 3
-24 30 2 18 12 32 24 36 10 3 17 11 15 17 -7 21 -41 16 -79 -11z"/>
<path d="M158 4872 c-43 -31 -48 -45 -15 -40 16 2 23 -3 25 -19 3 -19 -3 -23
-42 -28 -56 -9 -62 -29 -7 -23 43 4 43 5 -2 -59 -38 -54 -26 -69 18 -22 l32
36 -5 -64 c-4 -54 -2 -63 12 -63 13 0 16 12 16 73 1 66 2 70 15 53 11 -15 18
-17 27 -8 14 14 -6 42 -29 42 -26 0 -8 25 20 28 36 4 35 22 -1 22 -26 0 -28 3
-24 29 2 16 11 32 19 36 17 6 42 -21 43 -47 0 -18 18 -34 27 -24 3 3 2 21 -1
41 -5 25 -12 35 -25 35 -11 0 -21 7 -25 15 -8 22 -36 17 -78 -13z"/>
<path d="M158 4422 c-43 -31 -48 -45 -15 -40 16 2 23 -3 25 -19 3 -19 -3 -23
-42 -28 -56 -9 -62 -29 -7 -23 43 4 43 5 -2 -59 -38 -54 -26 -69 18 -22 l32
36 -5 -64 c-4 -54 -2 -63 12 -63 13 0 16 12 16 73 1 66 2 70 15 53 11 -15 18
-17 27 -8 14 14 -6 42 -29 42 -26 0 -8 25 20 28 36 4 35 22 -1 22 -26 0 -28 3
-24 29 8 55 46 47 62 -13 9 -33 30 -31 30 3 0 20 5 31 14 31 8 0 21 3 30 6 12
5 16 0 16 -20 0 -33 22 -34 39 -2 22 40 7 47 -73 40 -62 -5 -74 -4 -79 10 -9
23 -36 19 -79 -12z"/>
<path d="M158 3972 c-43 -31 -48 -45 -15 -40 16 2 23 -3 25 -19 3 -19 -3 -23
-42 -28 -56 -9 -62 -29 -7 -23 43 4 43 5 -2 -59 -38 -54 -26 -69 18 -22 l32
36 -5 -64 c-4 -54 -2 -63 12 -63 13 0 16 12 16 73 1 66 2 70 15 53 11 -15 18
-17 27 -8 14 14 -6 42 -29 42 -26 0 -8 25 20 28 36 4 35 22 -1 22 -26 0 -28 3
-24 29 8 55 46 47 62 -13 9 -33 30 -31 30 3 0 20 5 31 14 31 8 0 21 3 30 6 12
4 16 0 16 -15 0 -16 -6 -21 -25 -21 -14 0 -25 -4 -25 -10 0 -5 17 -10 38 -10
32 0 39 4 50 30 20 45 10 52 -72 44 -62 -5 -74 -4 -79 10 -9 23 -36 19 -79
-12z"/>
<path d="M158 3522 c-43 -31 -48 -45 -15 -40 16 2 23 -3 25 -19 3 -19 -3 -23
-42 -28 -56 -9 -62 -29 -7 -23 43 4 43 5 -2 -59 -38 -54 -26 -69 18 -22 l32
36 -5 -64 c-4 -54 -2 -63 12 -63 13 0 16 12 16 73 1 66 2 70 15 53 11 -15 18
-17 27 -8 14 14 -6 42 -29 42 -26 0 -8 25 20 28 36 4 35 22 -1 22 -26 0 -28 3
-24 29 8 55 46 47 62 -13 9 -33 30 -31 30 3 0 20 5 31 14 31 8 0 21 3 30 6 12
4 16 0 16 -15 0 -16 -6 -21 -25 -21 -14 0 -25 -4 -25 -10 0 -5 17 -10 38 -10
32 0 39 4 50 30 20 45 10 52 -72 44 -62 -5 -74 -4 -79 10 -9 23 -36 19 -79
-12z"/>
<path d="M320 3425 c-14 -8 -33 -14 -42 -15 -21 0 -24 -20 -4 -20 35 0 116 25
113 34 -5 17 -39 17 -67 1z"/>
<path d="M158 3072 c-43 -31 -48 -45 -15 -40 16 2 23 -3 25 -19 3 -19 -3 -23
-42 -28 -56 -9 -62 -29 -7 -23 43 4 43 5 -2 -59 -38 -54 -26 -69 18 -22 l32
36 -5 -64 c-4 -54 -2 -63 12 -63 13 0 16 12 16 73 1 66 2 70 15 53 11 -15 18
-17 27 -8 14 14 -6 42 -29 42 -26 0 -8 25 20 28 36 4 35 22 -1 22 -26 0 -28 3
-24 29 8 55 46 47 62 -13 9 -33 30 -31 30 3 0 20 5 31 14 31 8 0 21 3 30 6 12
4 16 0 16 -15 0 -16 -6 -21 -25 -21 -14 0 -25 -4 -25 -10 0 -5 17 -10 38 -10
32 0 39 4 50 30 20 45 10 52 -72 44 -62 -5 -74 -4 -79 10 -9 23 -36 19 -79
-12z"/>
<path d="M320 2975 c-14 -8 -33 -14 -42 -15 -21 0 -24 -20 -4 -20 35 0 116 25
113 34 -5 17 -39 17 -67 1z"/>
<path d="M298 2913 c-31 -3 -48 -9 -48 -17 0 -10 14 -12 53 -9 28 3 58 6 65 8
19 6 14 25 -5 23 -10 -1 -39 -3 -65 -5z"/>
<path d="M158 2622 c-43 -31 -48 -45 -15 -40 16 2 23 -3 25 -19 3 -19 -3 -23
-42 -28 -56 -9 -62 -29 -7 -23 43 4 43 5 -2 -59 -38 -54 -26 -69 18 -22 l32
36 -5 -64 c-4 -54 -2 -63 12 -63 13 0 16 12 16 73 1 66 2 70 15 53 11 -15 18
-17 27 -8 14 14 -6 42 -29 42 -26 0 -8 25 20 28 36 4 35 22 -1 22 -26 0 -28 3
-24 29 8 55 46 47 62 -13 9 -33 30 -31 30 3 0 20 5 31 14 31 8 0 21 3 30 6 12
4 16 0 16 -15 0 -16 -6 -21 -25 -21 -14 0 -25 -4 -25 -10 0 -5 17 -10 38 -10
32 0 39 4 50 30 20 45 10 52 -72 44 -62 -5 -74 -4 -79 10 -9 23 -36 19 -79
-12z"/>
<path d="M320 2525 c-14 -8 -33 -14 -42 -15 -25 0 -23 -20 2 -20 11 0 20 -7
20 -15 0 -9 -9 -15 -25 -15 -16 0 -25 -6 -25 -15 0 -11 7 -14 25 -9 22 5 25 3
25 -20 0 -16 6 -26 15 -26 9 0 15 9 15 24 0 18 6 26 22 28 29 4 36 28 8 28
-30 0 -22 34 8 38 13 2 21 9 19 15 -5 18 -39 19 -67 2z"/>
<path d="M158 2172 c-43 -31 -48 -45 -15 -40 16 2 23 -3 25 -19 3 -19 -3 -23
-42 -28 -56 -9 -62 -29 -7 -23 43 4 43 5 -2 -59 -38 -54 -26 -69 18 -22 l32
36 -5 -64 c-4 -54 -2 -63 12 -63 13 0 16 12 16 73 1 66 2 70 15 53 11 -15 18
-17 27 -8 14 14 -6 42 -29 42 -26 0 -8 25 20 28 36 4 35 22 -1 22 -26 0 -28 3
-24 29 8 55 46 47 62 -13 9 -33 30 -31 30 3 0 20 5 31 14 31 8 0 21 3 30 6 12
4 16 0 16 -15 0 -16 -6 -21 -25 -21 -14 0 -25 -4 -25 -10 0 -5 17 -10 38 -10
32 0 39 4 50 30 20 45 10 52 -72 44 -62 -5 -74 -4 -79 10 -9 23 -36 19 -79
-12z"/>
<path d="M320 2075 c-14 -8 -33 -14 -42 -15 -25 0 -23 -20 2 -20 11 0 20 -7
20 -15 0 -9 -9 -15 -25 -15 -16 0 -25 -6 -25 -15 0 -11 7 -14 25 -9 21 5 25 3
25 -15 0 -17 -6 -21 -32 -21 -32 0 -67 -14 -58 -23 9 -9 230 6 230 14 0 13
-47 22 -80 15 -25 -4 -30 -2 -30 14 0 11 8 20 22 22 29 4 36 28 8 28 -30 0
-22 34 8 38 13 2 21 9 19 15 -5 18 -39 19 -67 2z"/>
</g>
</svg>
