<?xml version="1.0" standalone="no"?>
<!DOCTYPE svg PUBLIC "-//W3C//DTD SVG 20010904//EN"
 "http://www.w3.org/TR/2001/REC-SVG-20010904/DTD/svg10.dtd">
<svg version="1.0" xmlns="http://www.w3.org/2000/svg"
 width="50.000000pt" height="725.000000pt" viewBox="0 0 50.000000 725.000000"
 preserveAspectRatio="xMidYMid meet">
<metadata>
Created by potrace 1.16, written by Peter Selinger 2001-2019
</metadata>
<g transform="translate(0.000000,725.000000) scale(0.100000,-0.100000)"
fill="#000000" stroke="none">
<path d="M175 7129 c-16 -10 -34 -21 -40 -23 -5 -2 -7 -7 -3 -11 11 -11 108
25 108 41 0 19 -29 16 -65 -7z"/>
<path d="M175 6679 c-16 -10 -34 -21 -40 -23 -5 -2 -7 -7 -3 -11 11 -11 108
25 108 41 0 19 -29 16 -65 -7z"/>
<path d="M153 6597 c-59 -9 -75 -18 -54 -31 13 -9 134 19 139 32 4 13 3 13
-85 -1z"/>
<path d="M168 6226 c-41 -22 -51 -42 -18 -33 13 3 21 -1 26 -15 8 -25 4 -29
-46 -35 -52 -7 -47 -29 6 -25 l40 3 -7 -78 c-6 -78 -4 -103 11 -103 14 0 20
31 20 110 0 69 2 78 20 83 11 3 20 11 20 17 0 7 -8 10 -20 7 -17 -4 -19 -1
-14 21 4 15 13 32 20 38 20 16 17 34 -3 33 -10 -1 -35 -11 -55 -23z"/>
<path d="M168 5776 c-41 -22 -51 -42 -18 -33 13 3 21 -1 26 -15 8 -25 4 -29
-46 -35 -48 -7 -49 -29 -1 -25 35 3 35 0 -5 -55 -13 -17 -24 -34 -24 -37 0
-14 23 -4 47 22 l26 27 -6 -56 c-3 -31 -1 -62 4 -70 17 -27 29 12 29 97 0 73
2 82 20 87 11 3 20 11 20 17 0 7 -8 10 -20 7 -17 -4 -19 -1 -14 21 4 15 13 32
20 38 20 16 17 34 -3 33 -10 -1 -35 -11 -55 -23z"/>
<path d="M168 5326 c-41 -22 -51 -42 -18 -33 13 3 21 -1 26 -15 8 -25 4 -29
-46 -35 -48 -7 -49 -29 -1 -25 35 3 35 0 -5 -55 -13 -17 -24 -34 -24 -37 0
-14 23 -4 47 22 l26 27 -6 -56 c-6 -61 5 -95 23 -69 5 8 10 42 10 75 0 46 3
56 12 47 17 -17 28 -15 28 7 0 11 -9 23 -20 26 -11 3 -20 10 -20 15 0 4 9 10
20 13 11 3 20 11 20 17 0 7 -8 10 -20 7 -17 -4 -19 -1 -14 21 4 15 13 32 20
38 20 16 17 34 -3 33 -10 -1 -35 -11 -55 -23z"/>
<path d="M168 4876 c-41 -22 -51 -42 -18 -33 13 3 21 -1 26 -15 8 -25 4 -29
-46 -35 -48 -7 -49 -29 -1 -25 35 3 35 0 -5 -55 -13 -17 -24 -34 -24 -37 0
-14 23 -4 47 22 l26 27 -6 -56 c-6 -61 5 -95 23 -69 5 8 10 42 10 75 0 46 3
56 12 47 17 -17 28 -15 28 7 0 11 -9 23 -20 26 -11 3 -20 10 -20 15 0 4 9 10
20 13 11 3 20 11 20 17 0 7 -8 10 -20 7 -17 -4 -19 -1 -14 21 4 15 13 32 20
38 20 16 17 34 -3 33 -10 -1 -35 -11 -55 -23z"/>
<path d="M248 4783 c3 -63 -1 -85 -17 -117 -21 -40 -21 -54 -2 -41 25 15 42
71 48 151 6 78 5 84 -13 84 -17 0 -19 -7 -16 -77z"/>
<path d="M168 4426 c-41 -22 -51 -42 -18 -33 13 3 21 -1 26 -15 8 -25 4 -29
-46 -35 -48 -7 -49 -29 -1 -25 35 3 35 0 -5 -55 -13 -17 -24 -34 -24 -37 0
-14 23 -4 47 22 l26 27 -6 -56 c-6 -61 5 -95 23 -69 5 8 10 42 10 75 0 46 3
56 12 47 17 -17 28 -15 28 7 0 11 -9 23 -20 26 -11 3 -20 10 -20 15 0 4 9 10
20 13 11 3 20 11 20 17 0 7 -8 10 -20 7 -17 -4 -19 -1 -14 21 4 15 13 32 20
38 20 16 17 34 -3 33 -10 -1 -35 -11 -55 -23z"/>
<path d="M343 4423 c-46 -6 -41 -23 7 -23 l40 0 0 -99 c0 -78 -3 -103 -16
-116 -13 -12 -14 -19 -4 -30 20 -24 39 -17 45 18 3 17 5 82 3 142 -3 122 0
118 -75 108z"/>
<path d="M248 4333 c3 -63 -1 -85 -17 -117 -21 -40 -21 -54 -2 -41 23 14 41
68 48 140 3 41 10 75 14 75 5 0 9 5 9 10 0 6 -12 10 -28 10 l-27 0 3 -77z"/>
<path d="M168 3976 c-41 -22 -51 -42 -18 -33 13 3 21 -1 26 -15 8 -25 4 -29
-46 -35 -48 -7 -49 -29 -1 -25 35 3 35 0 -5 -55 -13 -17 -24 -34 -24 -37 0
-14 23 -4 47 22 l26 27 -6 -56 c-6 -61 5 -95 23 -69 5 8 10 42 10 75 0 46 3
56 12 47 17 -17 28 -15 28 7 0 11 -9 23 -20 26 -11 3 -20 10 -20 15 0 4 9 10
20 13 11 3 20 11 20 17 0 7 -8 10 -20 7 -17 -4 -19 -1 -14 21 4 15 13 32 20
38 20 16 17 34 -3 33 -10 -1 -35 -11 -55 -23z"/>
<path d="M343 3973 c-46 -6 -41 -23 7 -23 29 0 40 -4 40 -15 0 -9 -9 -15 -24
-15 -13 0 -38 -3 -55 -6 -24 -5 -31 -3 -31 10 0 9 5 16 10 16 6 0 10 5 10 10
0 6 -12 10 -28 10 l-27 0 3 -73 c4 -68 -2 -94 -36 -159 -2 -5 1 -8 7 -8 20 0
49 60 56 115 6 51 7 53 43 59 74 12 72 14 72 -68 0 -55 -4 -79 -16 -91 -13
-12 -14 -19 -4 -30 20 -24 39 -17 45 18 3 17 5 82 3 142 -3 122 0 118 -75 108z"/>
<path d="M168 3526 c-41 -22 -51 -42 -18 -33 13 3 21 -1 26 -15 8 -25 4 -29
-46 -35 -48 -7 -49 -29 -1 -25 35 3 35 0 -5 -55 -13 -17 -24 -34 -24 -37 0
-14 23 -4 47 22 l26 27 -6 -56 c-6 -61 5 -95 23 -69 5 8 10 42 10 75 0 46 3
56 12 47 17 -17 28 -15 28 7 0 11 -9 23 -20 26 -11 3 -20 10 -20 15 0 4 9 10
20 13 11 3 20 11 20 17 0 7 -8 10 -20 7 -17 -4 -19 -1 -14 21 4 15 13 32 20
38 20 16 17 34 -3 33 -10 -1 -35 -11 -55 -23z"/>
<path d="M342 3523 c-29 -4 -33 -8 -30 -31 2 -19 -2 -28 -14 -30 -11 -2 -18 3
-18 12 0 9 5 16 10 16 6 0 10 5 10 10 0 6 -12 10 -28 10 l-27 0 3 -73 c4 -68
-2 -94 -36 -159 -2 -5 1 -8 7 -8 20 0 49 60 56 116 5 44 10 54 26 54 10 0 19
-7 19 -15 0 -8 5 -15 10 -15 6 0 10 9 10 20 0 15 7 20 25 20 24 0 25 -2 25
-74 0 -55 -4 -79 -16 -91 -13 -12 -14 -19 -4 -30 20 -24 39 -17 45 18 3 17 5
82 3 142 -3 122 0 118 -76 108z m48 -38 c0 -9 -9 -15 -25 -15 -16 0 -25 6 -25
15 0 9 9 15 25 15 16 0 25 -6 25 -15z"/>
<path d="M168 3076 c-41 -22 -51 -42 -18 -33 13 3 21 -1 26 -15 8 -25 4 -29
-46 -35 -48 -7 -49 -29 -1 -25 35 3 35 0 -5 -55 -13 -17 -24 -34 -24 -37 0
-14 23 -4 47 22 l26 27 -6 -56 c-6 -61 5 -95 23 -69 5 8 10 42 10 75 0 46 3
56 12 47 17 -17 28 -15 28 7 0 11 -9 23 -20 26 -11 3 -20 10 -20 15 0 4 9 10
20 13 11 3 20 11 20 17 0 7 -8 10 -20 7 -17 -4 -19 -1 -14 21 4 15 13 32 20
38 20 16 17 34 -3 33 -10 -1 -35 -11 -55 -23z"/>
<path d="M342 3073 c-29 -4 -33 -8 -30 -31 2 -19 -2 -28 -14 -30 -11 -2 -18 3
-18 12 0 9 5 16 10 16 6 0 10 5 10 10 0 6 -12 10 -28 10 l-27 0 3 -73 c4 -68
-2 -94 -36 -159 -2 -5 1 -8 7 -8 17 0 51 62 51 93 0 30 4 33 73 42 l47 6 0
-55 c0 -37 -5 -60 -16 -71 -13 -12 -14 -19 -4 -30 20 -24 39 -17 45 18 3 17 5
82 3 142 -3 122 0 118 -76 108z m48 -38 c0 -9 -9 -15 -25 -15 -16 0 -25 6 -25
15 0 9 9 15 25 15 16 0 25 -6 25 -15z m0 -45 c0 -5 -11 -10 -25 -10 -14 0 -25
5 -25 10 0 6 11 10 25 10 14 0 25 -4 25 -10z m-70 -10 c0 -5 -9 -10 -20 -10
-11 0 -20 5 -20 10 0 6 9 10 20 10 11 0 20 -4 20 -10z"/>
<path d="M168 2626 c-41 -22 -51 -42 -18 -33 13 3 21 -1 26 -15 8 -25 4 -29
-46 -35 -48 -7 -49 -29 -1 -25 35 3 35 0 -5 -55 -13 -17 -24 -34 -24 -37 0
-14 23 -4 47 22 l26 27 -6 -56 c-6 -61 5 -95 23 -69 5 8 10 42 10 75 0 46 3
56 12 47 17 -17 28 -15 28 7 0 11 -9 23 -20 26 -11 3 -20 10 -20 15 0 4 9 10
20 13 11 3 20 11 20 17 0 7 -8 10 -20 7 -17 -4 -19 -1 -14 21 4 15 13 32 20
38 20 16 17 34 -3 33 -10 -1 -35 -11 -55 -23z"/>
<path d="M342 2623 c-29 -4 -33 -8 -30 -31 2 -19 -2 -28 -14 -30 -11 -2 -18 3
-18 12 0 9 5 16 10 16 6 0 10 5 10 10 0 6 -12 10 -28 10 l-27 0 3 -73 c4 -68
-2 -94 -36 -159 -2 -5 1 -8 7 -8 17 0 51 62 51 93 0 30 4 33 73 42 l47 6 0
-55 c0 -37 -5 -60 -16 -71 -13 -12 -14 -19 -4 -30 20 -24 39 -17 45 18 3 17 5
82 3 142 -3 122 0 118 -76 108z m48 -38 c0 -9 -9 -15 -25 -15 -16 0 -25 6 -25
15 0 9 9 15 25 15 16 0 25 -6 25 -15z m0 -45 c0 -5 -11 -10 -25 -10 -14 0 -25
5 -25 10 0 6 11 10 25 10 14 0 25 -4 25 -10z m-70 -10 c0 -5 -9 -10 -20 -10
-11 0 -20 5 -20 10 0 6 9 10 20 10 11 0 20 -4 20 -10z"/>
<path d="M280 2466 c0 -22 11 -46 21 -46 5 0 9 14 9 30 0 20 -5 30 -15 30 -8
0 -15 -6 -15 -14z"/>
<path d="M168 2176 c-41 -22 -51 -42 -18 -33 13 3 21 -1 26 -15 8 -25 4 -29
-46 -35 -48 -7 -49 -29 -1 -25 35 3 35 0 -5 -55 -13 -17 -24 -34 -24 -37 0
-14 23 -4 47 22 l26 27 -6 -56 c-6 -61 5 -95 23 -69 5 8 10 42 10 75 0 46 3
56 12 47 17 -17 28 -15 28 7 0 11 -9 23 -20 26 -11 3 -20 10 -20 15 0 4 9 10
20 13 11 3 20 11 20 17 0 7 -8 10 -20 7 -17 -4 -19 -1 -14 21 4 15 13 32 20
38 20 16 17 34 -3 33 -10 -1 -35 -11 -55 -23z"/>
<path d="M342 2173 c-29 -4 -33 -8 -30 -31 2 -19 -2 -28 -14 -30 -11 -2 -18 3
-18 12 0 9 5 16 10 16 6 0 10 5 10 10 0 6 -12 10 -28 10 l-27 0 3 -73 c4 -68
-2 -94 -36 -159 -2 -5 1 -8 7 -8 17 0 51 62 51 93 0 30 4 33 73 42 l47 6 0
-55 c0 -37 -5 -60 -16 -71 -13 -12 -14 -19 -4 -30 20 -24 39 -17 45 18 3 17 5
82 3 142 -3 122 0 118 -76 108z m48 -38 c0 -9 -9 -15 -25 -15 -16 0 -25 6 -25
15 0 9 9 15 25 15 16 0 25 -6 25 -15z m0 -45 c0 -5 -11 -10 -25 -10 -14 0 -25
5 -25 10 0 6 11 10 25 10 14 0 25 -4 25 -10z m-70 -10 c0 -5 -9 -10 -20 -10
-11 0 -20 5 -20 10 0 6 9 10 20 10 11 0 20 -4 20 -10z"/>
<path d="M320 2030 c0 -5 7 -10 15 -10 8 0 15 -7 15 -15 0 -20 16 -19 24 1 11
28 7 34 -24 34 -16 0 -30 -4 -30 -10z"/>
<path d="M280 2016 c0 -22 11 -46 21 -46 5 0 9 14 9 30 0 20 -5 30 -15 30 -8
0 -15 -6 -15 -14z"/>
<path d="M168 1726 c-41 -22 -51 -42 -18 -33 13 3 21 -1 26 -15 8 -25 4 -29
-46 -35 -48 -7 -49 -29 -1 -25 35 3 35 0 -5 -55 -13 -17 -24 -34 -24 -37 0
-14 23 -4 47 22 l26 27 -6 -56 c-6 -61 5 -95 23 -69 5 8 10 42 10 75 0 46 3
56 12 47 17 -17 28 -15 28 7 0 11 -9 23 -20 26 -11 3 -20 10 -20 15 0 4 9 10
20 13 11 3 20 11 20 17 0 7 -8 10 -20 7 -17 -4 -19 -1 -14 21 4 15 13 32 20
38 20 16 17 34 -3 33 -10 -1 -35 -11 -55 -23z"/>
<path d="M342 1723 c-29 -4 -33 -8 -30 -31 2 -19 -2 -28 -14 -30 -11 -2 -18 3
-18 12 0 9 5 16 10 16 6 0 10 5 10 10 0 6 -12 10 -28 10 l-27 0 3 -73 c4 -68
-2 -94 -36 -159 -2 -5 1 -8 7 -8 17 0 51 62 51 93 0 30 4 33 73 42 l47 6 0
-55 c0 -37 -5 -60 -16 -71 -13 -12 -14 -19 -4 -30 20 -24 39 -17 45 18 3 17 5
82 3 142 -3 122 0 118 -76 108z m48 -38 c0 -9 -9 -15 -25 -15 -16 0 -25 6 -25
15 0 9 9 15 25 15 16 0 25 -6 25 -15z m0 -45 c0 -5 -11 -10 -25 -10 -14 0 -25
5 -25 10 0 6 11 10 25 10 14 0 25 -4 25 -10z m-70 -10 c0 -5 -9 -10 -20 -10
-11 0 -20 5 -20 10 0 6 9 10 20 10 11 0 20 -4 20 -10z"/>
<path d="M320 1580 c0 -5 7 -10 15 -10 8 0 15 -4 15 -10 0 -5 -7 -10 -15 -10
-8 0 -15 -4 -15 -10 0 -5 11 -10 24 -10 16 0 26 7 30 23 9 35 8 37 -24 37 -16
0 -30 -4 -30 -10z"/>
<path d="M280 1566 c0 -22 11 -46 21 -46 5 0 9 14 9 30 0 20 -5 30 -15 30 -8
0 -15 -6 -15 -14z"/>
</g>
</svg>
