<?xml version="1.0" standalone="no"?>
<!DOCTYPE svg PUBLIC "-//W3C//DTD SVG 20010904//EN"
 "http://www.w3.org/TR/2001/REC-SVG-20010904/DTD/svg10.dtd">
<svg version="1.0" xmlns="http://www.w3.org/2000/svg"
 width="50.000000pt" height="725.000000pt" viewBox="0 0 50.000000 725.000000"
 preserveAspectRatio="xMidYMid meet">
<metadata>
Created by potrace 1.16, written by Peter Selinger 2001-2019
</metadata>
<g transform="translate(0.000000,725.000000) scale(0.100000,-0.100000)"
fill="#000000" stroke="none">
<path d="M165 7124 c-22 -13 -44 -25 -50 -27 -5 -3 -7 -7 -4 -10 3 -4 31 1 63
10 40 11 56 20 54 31 -5 23 -19 22 -63 -4z"/>
<path d="M165 6674 c-22 -13 -44 -25 -50 -27 -5 -3 -7 -7 -4 -10 3 -4 31 1 63
10 40 11 56 20 54 31 -5 23 -19 22 -63 -4z"/>
<path d="M133 6587 c-52 -10 -65 -20 -40 -30 16 -6 147 26 147 36 0 9 -40 7
-107 -6z"/>
<path d="M158 6221 c-52 -28 -63 -45 -24 -35 19 4 26 1 31 -16 9 -28 5 -31
-44 -37 -23 -3 -41 -9 -41 -13 0 -14 30 -19 56 -10 14 6 28 10 31 10 3 0 2
-40 -2 -90 -6 -78 -5 -90 9 -90 12 0 16 16 18 93 3 87 4 92 26 95 31 5 28 22
-4 22 -20 0 -25 4 -20 16 3 9 6 22 6 30 0 8 7 14 16 14 17 0 16 32 -1 35 -5 2
-31 -9 -57 -24z"/>
<path d="M158 5771 c-52 -28 -63 -45 -24 -35 19 4 26 1 31 -16 9 -28 5 -31
-44 -37 -23 -3 -41 -9 -41 -13 0 -15 30 -19 56 -9 l27 10 -18 -28 c-10 -16
-28 -39 -41 -54 -48 -51 -20 -55 30 -4 l35 35 -6 -65 c-5 -56 -4 -65 10 -65
14 0 17 15 19 93 3 87 4 92 26 95 31 5 28 22 -4 22 -20 0 -25 4 -20 16 3 9 6
22 6 30 0 8 7 14 16 14 17 0 16 32 -1 35 -5 2 -31 -9 -57 -24z"/>
<path d="M158 5321 c-52 -28 -63 -45 -24 -35 19 4 26 1 31 -16 9 -28 5 -31
-44 -37 -23 -3 -41 -9 -41 -13 0 -15 30 -19 56 -9 l27 10 -18 -28 c-10 -16
-28 -39 -41 -54 -48 -51 -20 -55 30 -4 l35 35 -6 -65 c-5 -56 -4 -65 11 -65
13 0 16 12 16 69 0 64 1 69 20 64 24 -6 29 24 5 33 -22 9 -18 24 5 24 11 0 20
5 20 10 0 6 -12 10 -26 10 -20 0 -25 4 -20 16 3 9 6 22 6 30 0 8 7 14 16 14
17 0 16 32 -1 35 -5 2 -31 -9 -57 -24z"/>
<path d="M158 4871 c-52 -28 -63 -45 -24 -35 19 4 26 1 31 -16 9 -28 5 -31
-44 -37 -23 -3 -41 -9 -41 -13 0 -15 30 -19 56 -9 l27 10 -18 -28 c-10 -16
-28 -39 -41 -54 -48 -51 -20 -55 30 -4 l35 35 -6 -65 c-5 -56 -4 -65 11 -65
13 0 16 12 16 69 0 64 1 69 20 64 24 -6 29 24 5 33 -22 9 -18 24 5 24 11 0 20
5 20 10 0 6 -12 10 -26 10 -20 0 -25 4 -20 16 3 9 6 22 6 30 0 8 7 14 16 14
17 0 16 32 -1 35 -5 2 -31 -9 -57 -24z"/>
<path d="M300 4878 c-46 -28 -44 -27 -38 -34 10 -9 119 29 115 40 -6 19 -41
17 -77 -6z"/>
<path d="M158 4421 c-52 -28 -63 -45 -24 -35 19 4 26 1 31 -16 9 -28 5 -31
-44 -37 -23 -3 -41 -9 -41 -13 0 -15 30 -19 56 -9 l27 10 -18 -28 c-10 -16
-28 -39 -41 -54 -48 -51 -20 -55 30 -4 l35 35 -6 -65 c-5 -56 -4 -65 11 -65
13 0 16 12 16 69 0 64 1 69 20 64 24 -6 29 24 5 33 -22 9 -18 24 5 24 11 0 20
5 20 10 0 6 -12 10 -26 10 -20 0 -25 4 -20 16 3 9 6 22 6 30 0 8 7 14 16 14
17 0 16 32 -1 35 -5 2 -31 -9 -57 -24z"/>
<path d="M300 4428 c-46 -28 -44 -27 -38 -34 10 -9 119 29 115 40 -6 19 -41
17 -77 -6z"/>
<path d="M240 4364 c0 -13 21 -44 30 -44 16 0 11 37 -6 44 -19 7 -24 8 -24 0z"/>
<path d="M158 3971 c-52 -28 -63 -45 -24 -35 19 4 26 1 31 -16 9 -28 5 -31
-44 -37 -23 -3 -41 -9 -41 -13 0 -15 30 -19 56 -9 l27 10 -18 -28 c-10 -16
-28 -39 -41 -54 -48 -51 -20 -55 30 -4 l35 35 -6 -65 c-5 -56 -4 -65 11 -65
13 0 16 12 16 69 0 64 1 69 20 64 24 -6 29 24 5 33 -22 9 -18 24 5 24 11 0 20
5 20 10 0 6 -12 10 -26 10 -20 0 -25 4 -20 16 3 9 6 22 6 30 0 8 7 14 16 14
17 0 16 32 -1 35 -5 2 -31 -9 -57 -24z"/>
<path d="M300 3978 c-46 -28 -44 -27 -38 -34 10 -9 119 29 115 40 -6 19 -41
17 -77 -6z"/>
<path d="M300 3931 c0 -21 13 -41 26 -41 17 0 18 22 2 38 -14 14 -28 16 -28 3z"/>
<path d="M240 3914 c0 -13 21 -44 30 -44 16 0 11 37 -6 44 -19 7 -24 8 -24 0z"/>
<path d="M158 3521 c-52 -28 -63 -45 -24 -35 19 4 26 1 31 -16 9 -28 5 -31
-44 -37 -23 -3 -41 -9 -41 -13 0 -15 30 -19 56 -9 l27 10 -18 -28 c-10 -16
-28 -39 -41 -54 -48 -51 -20 -55 30 -4 l35 35 -6 -65 c-5 -56 -4 -65 11 -65
13 0 16 12 16 69 0 64 1 69 20 64 24 -6 29 24 5 33 -22 9 -18 24 5 24 11 0 20
5 20 10 0 6 -12 10 -26 10 -20 0 -25 4 -20 16 3 9 6 22 6 30 0 8 7 14 16 14
17 0 16 32 -1 35 -5 2 -31 -9 -57 -24z"/>
<path d="M300 3528 c-46 -28 -44 -27 -38 -34 10 -9 119 29 115 40 -6 19 -41
17 -77 -6z"/>
<path d="M371 3474 c-12 -20 -20 -39 -17 -41 10 -10 67 39 64 55 -6 29 -25 23
-47 -14z"/>
<path d="M300 3481 c0 -21 13 -41 26 -41 17 0 18 22 2 38 -14 14 -28 16 -28 3z"/>
<path d="M240 3464 c0 -13 21 -44 30 -44 16 0 11 37 -6 44 -19 7 -24 8 -24 0z"/>
<path d="M158 3071 c-52 -28 -63 -45 -24 -35 19 4 26 1 31 -16 9 -28 5 -31
-44 -37 -23 -3 -41 -9 -41 -13 0 -15 30 -19 56 -9 l27 10 -18 -28 c-10 -16
-28 -39 -41 -54 -48 -51 -20 -55 30 -4 l35 35 -6 -65 c-5 -56 -4 -65 11 -65
13 0 16 12 16 69 0 64 1 69 20 64 24 -6 29 24 5 33 -22 9 -18 24 5 24 11 0 20
5 20 10 0 6 -12 10 -26 10 -20 0 -25 4 -20 16 3 9 6 22 6 30 0 8 7 14 16 14
17 0 16 32 -1 35 -5 2 -31 -9 -57 -24z"/>
<path d="M300 3078 c-46 -28 -44 -27 -38 -34 10 -9 119 29 115 40 -6 19 -41
17 -77 -6z"/>
<path d="M371 3024 c-12 -20 -20 -39 -17 -41 10 -10 67 39 64 55 -6 29 -25 23
-47 -14z"/>
<path d="M300 3031 c0 -21 13 -41 26 -41 17 0 18 22 2 38 -14 14 -28 16 -28 3z"/>
<path d="M240 3014 c0 -13 21 -44 30 -44 16 0 11 37 -6 44 -19 7 -24 8 -24 0z"/>
<path d="M272 2958 c-12 -12 -17 -38 -7 -38 11 0 55 24 55 31 0 4 -7 10 -16
13 -20 8 -18 8 -32 -6z"/>
<path d="M158 2621 c-52 -28 -63 -45 -24 -35 19 4 26 1 31 -16 9 -28 5 -31
-44 -37 -23 -3 -41 -9 -41 -13 0 -15 30 -19 56 -9 l27 10 -18 -28 c-10 -16
-28 -39 -41 -54 -48 -51 -20 -55 30 -4 l35 35 -6 -65 c-5 -56 -4 -65 11 -65
13 0 16 12 16 70 0 68 1 69 23 61 17 -6 24 -20 31 -60 12 -67 26 -65 26 4 0
49 3 57 25 67 29 13 32 23 8 33 -12 4 -24 -1 -35 -14 -20 -26 -23 -26 -48 -1
-25 25 -25 30 0 30 11 0 20 5 20 10 0 6 -12 10 -26 10 -20 0 -25 4 -20 16 3 9
6 22 6 30 0 8 7 14 16 14 17 0 16 32 -1 35 -5 2 -31 -9 -57 -24z"/>
<path d="M300 2628 c-46 -28 -44 -27 -38 -34 10 -9 119 29 115 40 -6 19 -41
17 -77 -6z"/>
<path d="M371 2574 c-12 -20 -20 -39 -17 -41 10 -10 67 39 64 55 -6 29 -25 23
-47 -14z"/>
<path d="M300 2581 c0 -21 13 -41 26 -41 17 0 18 22 2 38 -14 14 -28 16 -28 3z"/>
<path d="M240 2564 c0 -13 21 -44 30 -44 16 0 11 37 -6 44 -19 7 -24 8 -24 0z"/>
<path d="M158 2171 c-52 -28 -63 -45 -24 -35 19 4 26 1 31 -16 9 -28 5 -31
-44 -37 -23 -3 -41 -9 -41 -13 0 -15 30 -19 56 -9 l27 10 -18 -28 c-10 -16
-28 -39 -41 -54 -48 -51 -20 -55 30 -4 l35 35 -6 -65 c-5 -56 -4 -65 11 -65
13 0 16 12 16 70 0 68 1 69 23 61 17 -6 24 -20 31 -60 10 -58 26 -68 26 -16 0
31 3 35 25 35 14 0 25 5 25 10 0 6 -11 10 -25 10 -14 0 -25 5 -25 10 0 6 11
16 25 22 29 13 32 23 8 33 -12 4 -24 -1 -35 -14 -20 -26 -23 -26 -48 -1 -25
25 -25 30 0 30 11 0 20 5 20 10 0 6 -12 10 -26 10 -20 0 -25 4 -20 16 3 9 6
22 6 30 0 8 7 14 16 14 17 0 16 32 -1 35 -5 2 -31 -9 -57 -24z"/>
<path d="M300 2178 c-46 -28 -44 -27 -38 -34 10 -9 119 29 115 40 -6 19 -41
17 -77 -6z"/>
<path d="M371 2124 c-12 -20 -20 -39 -17 -41 10 -10 67 39 64 55 -6 29 -25 23
-47 -14z"/>
<path d="M300 2131 c0 -21 13 -41 26 -41 17 0 18 22 2 38 -14 14 -28 16 -28 3z"/>
<path d="M240 2114 c0 -13 21 -44 30 -44 16 0 11 37 -6 44 -19 7 -24 8 -24 0z"/>
<path d="M158 1721 c-52 -28 -63 -45 -24 -35 19 4 26 1 31 -16 9 -28 5 -31
-44 -37 -23 -3 -41 -9 -41 -13 0 -15 30 -19 56 -9 l27 10 -18 -28 c-10 -16
-28 -39 -41 -54 -48 -51 -20 -55 30 -4 l35 35 -6 -65 c-5 -56 -4 -65 11 -65
13 0 16 12 16 70 0 68 1 69 23 61 17 -6 24 -20 31 -60 10 -58 26 -68 26 -16 0
31 3 35 25 35 14 0 25 5 25 10 0 6 -11 10 -25 10 -14 0 -25 5 -25 10 0 6 11
16 25 22 29 13 32 23 8 33 -12 4 -24 -1 -35 -14 -20 -26 -23 -26 -48 -1 -25
25 -25 30 0 30 11 0 20 5 20 10 0 6 -12 10 -26 10 -20 0 -25 4 -20 16 3 9 6
22 6 30 0 8 7 14 16 14 17 0 16 32 -1 35 -5 2 -31 -9 -57 -24z"/>
<path d="M300 1728 c-46 -28 -44 -27 -38 -34 10 -9 119 29 115 40 -6 19 -41
17 -77 -6z"/>
<path d="M371 1674 c-12 -20 -20 -39 -17 -41 10 -10 67 39 64 55 -6 29 -25 23
-47 -14z"/>
<path d="M300 1681 c0 -21 13 -41 26 -41 17 0 18 22 2 38 -14 14 -28 16 -28 3z"/>
<path d="M240 1664 c0 -13 21 -44 30 -44 16 0 11 37 -6 44 -19 7 -24 8 -24 0z"/>
<path d="M358 1613 c-37 -6 -36 -23 2 -23 28 0 30 -2 30 -40 0 -25 -6 -42 -16
-48 -20 -11 -10 -52 12 -52 20 0 32 36 36 106 3 64 0 67 -64 57z"/>
<path d="M158 1271 c-52 -28 -63 -45 -24 -35 19 4 26 1 31 -16 9 -28 5 -31
-44 -37 -23 -3 -41 -9 -41 -13 0 -15 30 -19 56 -9 l27 10 -18 -28 c-10 -16
-28 -39 -41 -54 -48 -51 -20 -55 30 -4 l35 35 -6 -65 c-5 -56 -4 -65 11 -65
13 0 16 12 16 70 0 68 1 69 23 61 17 -6 24 -20 31 -60 10 -58 26 -68 26 -16 0
31 3 35 25 35 14 0 25 5 25 10 0 6 -11 10 -25 10 -14 0 -25 5 -25 10 0 6 11
16 25 22 29 13 32 23 8 33 -12 4 -24 -1 -35 -14 -20 -26 -23 -26 -48 -1 -25
25 -25 30 0 30 11 0 20 5 20 10 0 6 -12 10 -26 10 -20 0 -25 4 -20 16 3 9 6
22 6 30 0 8 7 14 16 14 17 0 16 32 -1 35 -5 2 -31 -9 -57 -24z"/>
<path d="M300 1278 c-46 -28 -44 -27 -38 -34 10 -9 119 29 115 40 -6 19 -41
17 -77 -6z"/>
<path d="M371 1224 c-12 -20 -20 -39 -17 -41 10 -10 67 39 64 55 -6 29 -25 23
-47 -14z"/>
<path d="M300 1231 c0 -21 13 -41 26 -41 17 0 18 22 2 38 -14 14 -28 16 -28 3z"/>
<path d="M240 1214 c0 -13 21 -44 30 -44 16 0 11 37 -6 44 -19 7 -24 8 -24 0z"/>
<path d="M358 1163 c-37 -6 -36 -23 2 -23 20 0 30 -5 30 -15 0 -8 -9 -15 -20
-15 -11 0 -20 -4 -20 -10 0 -5 9 -10 20 -10 24 0 27 -25 4 -38 -20 -11 -10
-52 12 -52 20 0 32 36 36 106 3 64 0 67 -64 57z"/>
<path d="M158 821 c-52 -28 -63 -45 -24 -35 19 4 26 1 31 -16 9 -28 5 -31 -44
-37 -23 -3 -41 -9 -41 -13 0 -15 30 -19 56 -9 l27 10 -18 -28 c-10 -16 -28
-39 -41 -54 -48 -51 -20 -55 30 -4 l35 35 -6 -65 c-5 -56 -4 -65 11 -65 13 0
16 12 16 70 0 68 1 69 23 61 17 -6 24 -20 31 -57 5 -27 9 -50 10 -50 0 -1 25
2 54 6 41 5 55 3 59 -7 8 -21 33 -15 42 10 15 39 23 135 12 141 -14 9 -91 -4
-91 -15 0 -5 14 -9 30 -9 20 0 30 -5 30 -15 0 -8 -9 -15 -20 -15 -11 0 -20 -4
-20 -10 0 -5 9 -10 20 -10 19 0 28 -24 13 -33 -5 -3 -32 -8 -60 -12 -49 -6
-53 -5 -53 14 0 16 6 21 25 21 14 0 25 5 25 10 0 6 -11 10 -25 10 -14 0 -25 5
-25 10 0 6 11 16 25 22 29 13 32 23 8 33 -12 4 -24 -1 -35 -14 -20 -26 -23
-26 -48 -1 -25 25 -25 30 0 30 11 0 20 5 20 10 0 6 -12 10 -26 10 -20 0 -25 4
-20 16 3 9 6 22 6 30 0 8 7 14 16 14 17 0 16 32 -1 35 -5 2 -31 -9 -57 -24z"/>
<path d="M300 828 c-46 -28 -44 -27 -38 -34 10 -9 119 29 115 40 -6 19 -41 17
-77 -6z"/>
<path d="M371 774 c-12 -20 -20 -39 -17 -41 10 -10 67 39 64 55 -6 29 -25 23
-47 -14z"/>
<path d="M300 781 c0 -21 13 -41 26 -41 17 0 18 22 2 38 -14 14 -28 16 -28 3z"/>
<path d="M240 764 c0 -13 21 -44 30 -44 16 0 11 37 -6 44 -19 7 -24 8 -24 0z"/>
</g>
</svg>
