<?xml version="1.0" standalone="no"?>
<!DOCTYPE svg PUBLIC "-//W3C//DTD SVG 20010904//EN"
 "http://www.w3.org/TR/2001/REC-SVG-20010904/DTD/svg10.dtd">
<svg version="1.0" xmlns="http://www.w3.org/2000/svg"
 width="95.000000pt" height="725.000000pt" viewBox="0 0 95.000000 725.000000"
 preserveAspectRatio="xMidYMid meet">
<metadata>
Created by potrace 1.16, written by Peter Selinger 2001-2019
</metadata>
<g transform="translate(0.000000,725.000000) scale(0.100000,-0.100000)"
fill="#000000" stroke="none">
<path d="M297 7120 c5 -33 3 -40 -11 -40 -13 0 -16 5 -11 20 5 14 2 20 -9 20
-10 0 -16 -9 -16 -24 0 -16 -7 -26 -22 -30 -38 -10 -43 -7 -43 19 0 19 7 28
23 32 13 3 21 10 19 17 -7 20 -34 17 -72 -8 -21 -15 -42 -26 -46 -26 -5 0 -9
-5 -9 -10 0 -6 11 -8 25 -4 18 4 27 1 31 -11 8 -21 -11 -35 -48 -35 -19 0 -28
-5 -28 -16 0 -13 7 -15 35 -10 l35 7 -21 -35 c-11 -19 -27 -40 -35 -46 -7 -7
-14 -16 -14 -21 0 -18 22 -8 48 21 l28 30 -4 -71 c-4 -57 -2 -71 9 -67 10 3
16 28 19 76 5 66 6 70 23 57 17 -12 18 -18 7 -50 -7 -20 -9 -39 -5 -43 4 -4
10 -1 12 6 3 7 15 24 27 36 17 19 23 21 33 10 10 -10 7 -17 -14 -34 -14 -11
-24 -23 -20 -26 10 -10 46 16 70 52 l24 35 13 -32 c18 -42 58 -89 77 -89 11 0
13 7 8 33 -9 39 -14 45 -24 29 -10 -16 -36 21 -57 80 -18 51 -18 48 6 48 26 0
26 20 0 27 -24 6 -16 23 11 23 10 0 19 5 19 11 0 7 -14 10 -35 7 -43 -5 -47
10 -5 19 17 3 30 10 30 16 0 5 -13 7 -30 4 -25 -6 -30 -3 -30 13 0 11 -6 20
-14 20 -11 0 -13 -10 -9 -40z m7 -69 c8 -12 -18 -21 -56 -21 -28 0 -30 -2 -24
-26 6 -24 6 -25 -9 -10 -9 9 -21 16 -26 16 -43 0 49 46 98 49 6 1 14 -3 17 -8z
m16 -56 c8 -20 6 -29 -10 -45 -20 -20 -20 -20 -20 0 0 11 5 20 10 20 6 0 10 5
10 10 0 6 -12 10 -26 10 -17 0 -24 -4 -21 -13 2 -6 -3 -19 -11 -27 -14 -13
-15 -12 -9 4 4 10 7 26 7 36 0 17 8 21 53 29 4 0 12 -10 17 -24z"/>
<path d="M602 7125 c-18 -13 -38 -26 -45 -28 -7 -2 -9 -7 -6 -11 9 -9 129 38
126 49 -6 19 -42 14 -75 -10z"/>
<path d="M382 7048 c3 -7 13 -15 22 -16 12 -3 17 1 14 10 -3 7 -13 15 -22 16
-12 3 -17 -1 -14 -10z"/>
<path d="M297 6670 c5 -33 3 -40 -11 -40 -13 0 -16 5 -11 20 5 14 2 20 -9 20
-10 0 -16 -9 -16 -24 0 -16 -7 -26 -22 -30 -38 -10 -43 -7 -43 19 0 19 7 28
23 32 13 3 21 10 19 17 -7 20 -34 17 -72 -8 -21 -15 -42 -26 -46 -26 -5 0 -9
-5 -9 -10 0 -6 11 -8 25 -4 18 4 27 1 31 -11 8 -21 -11 -35 -48 -35 -19 0 -28
-5 -28 -16 0 -13 7 -15 35 -10 l35 7 -21 -35 c-11 -19 -27 -40 -35 -46 -7 -7
-14 -16 -14 -21 0 -18 22 -8 48 21 l28 30 -4 -71 c-4 -57 -2 -71 9 -67 10 3
16 28 19 76 5 66 6 70 23 57 17 -12 18 -18 7 -50 -7 -20 -9 -39 -5 -43 4 -4
10 -1 12 6 3 7 15 24 27 36 17 19 23 21 33 10 10 -10 7 -17 -14 -34 -14 -11
-24 -23 -20 -26 10 -10 46 16 71 52 15 23 26 31 29 22 2 -7 -5 -23 -16 -35
-24 -27 -17 -39 12 -23 19 9 25 7 47 -20 35 -41 58 -40 49 3 -9 40 -14 45 -25
27 -15 -24 -35 32 -21 58 15 29 14 52 -4 52 -9 0 -15 -9 -15 -22 0 -26 -14
-14 -25 20 -5 18 -2 22 14 22 27 0 27 20 1 27 -24 6 -16 23 11 23 10 0 19 5
19 11 0 7 -14 10 -35 7 -43 -5 -47 10 -5 19 17 3 30 10 30 16 0 5 -13 7 -30 4
-25 -6 -30 -3 -30 13 0 11 -6 20 -14 20 -11 0 -13 -10 -9 -40z m7 -69 c8 -12
-18 -21 -56 -21 -28 0 -30 -2 -24 -26 6 -24 6 -25 -9 -10 -9 9 -21 16 -26 16
-43 0 49 46 98 49 6 1 14 -3 17 -8z m16 -56 c8 -20 6 -29 -10 -45 -20 -20 -20
-20 -20 0 0 11 5 20 10 20 6 0 10 5 10 10 0 6 -12 10 -26 10 -17 0 -24 -4 -21
-13 2 -6 -3 -19 -11 -27 -14 -13 -15 -12 -9 4 4 10 7 26 7 36 0 17 8 21 53 29
4 0 12 -10 17 -24z"/>
<path d="M602 6675 c-18 -13 -38 -26 -45 -28 -7 -2 -9 -7 -6 -11 9 -9 129 38
126 49 -6 19 -42 14 -75 -10z"/>
<path d="M382 6598 c3 -7 13 -15 22 -16 12 -3 17 1 14 10 -3 7 -13 15 -22 16
-12 3 -17 -1 -14 -10z"/>
<path d="M588 6597 c-37 -6 -58 -15 -58 -24 0 -16 1 -16 83 3 37 9 67 21 67
25 0 10 -14 10 -92 -4z"/>
<path d="M621 6237 c-6 -8 -25 -20 -41 -27 -36 -15 -40 -33 -5 -24 18 4 27 1
31 -11 8 -21 -11 -35 -48 -35 -19 0 -28 -5 -28 -16 0 -13 7 -15 40 -9 l41 7
-7 -97 c-6 -82 -5 -97 7 -93 10 3 15 29 17 101 3 93 4 97 27 103 31 8 33 24 3
24 -33 0 -33 48 0 57 13 3 21 10 19 17 -6 17 -42 19 -56 3z"/>
<path d="M621 5787 c-6 -8 -25 -20 -41 -27 -36 -15 -40 -33 -5 -24 18 4 27 1
31 -11 8 -21 -11 -35 -48 -35 -19 0 -28 -5 -28 -16 0 -13 7 -15 35 -10 l35 7
-21 -35 c-11 -19 -27 -40 -35 -46 -7 -7 -14 -16 -14 -21 0 -18 22 -8 48 21
l28 30 -4 -71 c-4 -57 -2 -71 9 -67 10 3 15 30 17 101 3 93 4 97 27 103 31 8
33 24 3 24 -33 0 -33 48 0 57 13 3 21 10 19 17 -6 17 -42 19 -56 3z"/>
<path d="M621 5337 c-6 -8 -25 -20 -41 -27 -36 -15 -40 -33 -5 -24 18 4 27 1
31 -11 8 -21 -11 -35 -48 -35 -19 0 -28 -5 -28 -16 0 -13 7 -15 35 -10 l35 7
-21 -35 c-11 -19 -27 -40 -35 -46 -7 -7 -14 -16 -14 -21 0 -18 22 -8 48 21
l28 30 -4 -71 c-4 -57 -2 -71 9 -67 10 3 16 28 19 79 3 43 8 69 13 62 12 -19
27 -16 27 6 0 11 -9 23 -20 26 -27 9 -25 23 5 31 31 8 33 24 3 24 -33 0 -33
48 0 57 13 3 21 10 19 17 -6 17 -42 19 -56 3z"/>
<path d="M744 4894 c3 -9 6 -29 6 -45 0 -16 5 -29 10 -29 6 0 10 20 10 45 0
35 -4 45 -16 45 -11 0 -14 -5 -10 -16z"/>
<path d="M621 4887 c-6 -8 -25 -20 -41 -27 -36 -15 -40 -33 -5 -24 18 4 27 1
31 -11 8 -21 -11 -35 -48 -35 -19 0 -28 -5 -28 -16 0 -13 7 -15 35 -10 l35 7
-21 -35 c-11 -19 -27 -40 -35 -46 -7 -7 -14 -16 -14 -21 0 -18 22 -8 48 21
l28 30 -4 -71 c-4 -57 -2 -71 9 -67 10 3 16 28 19 79 3 43 8 69 13 62 12 -19
27 -16 27 6 0 11 -9 23 -20 26 -27 9 -25 23 5 31 31 8 33 24 3 24 -33 0 -33
48 0 57 13 3 21 10 19 17 -6 17 -42 19 -56 3z"/>
<path d="M744 4444 c3 -9 6 -29 6 -45 0 -16 5 -29 10 -29 6 0 10 7 10 15 0 9
12 18 30 22 17 3 30 10 30 16 0 5 -13 7 -30 4 -25 -6 -30 -3 -30 13 0 12 -7
20 -16 20 -11 0 -14 -5 -10 -16z"/>
<path d="M621 4437 c-6 -8 -25 -20 -41 -27 -36 -15 -40 -33 -5 -24 18 4 27 1
31 -11 8 -21 -11 -35 -48 -35 -19 0 -28 -5 -28 -16 0 -13 7 -15 35 -10 l35 7
-21 -35 c-11 -19 -27 -40 -35 -46 -7 -7 -14 -16 -14 -21 0 -18 22 -8 48 21
l28 30 -4 -71 c-4 -57 -2 -71 9 -67 10 3 16 28 19 79 3 43 8 69 13 62 12 -19
27 -16 27 6 0 11 -9 23 -20 26 -27 9 -25 23 5 31 31 8 33 24 3 24 -33 0 -33
48 0 57 13 3 21 10 19 17 -6 17 -42 19 -56 3z"/>
<path d="M744 3994 c3 -9 6 -29 6 -45 0 -16 5 -29 10 -29 6 0 10 7 10 15 0 9
12 18 30 22 17 3 30 10 30 16 0 5 -13 7 -30 4 -25 -6 -30 -3 -30 13 0 12 -7
20 -16 20 -11 0 -14 -5 -10 -16z"/>
<path d="M621 3987 c-6 -8 -25 -20 -41 -27 -36 -15 -40 -33 -5 -24 18 4 27 1
31 -11 8 -21 -11 -35 -48 -35 -19 0 -28 -5 -28 -16 0 -13 7 -15 35 -10 l35 7
-21 -35 c-11 -19 -27 -40 -35 -46 -7 -7 -14 -16 -14 -21 0 -18 22 -8 48 21
l28 30 -4 -71 c-4 -57 -2 -71 9 -67 10 3 16 28 19 79 3 43 8 69 13 62 12 -19
27 -16 27 6 0 11 -9 23 -20 26 -27 9 -25 23 5 31 31 8 33 24 3 24 -33 0 -33
48 0 57 13 3 21 10 19 17 -6 17 -42 19 -56 3z"/>
<path d="M700 3940 c0 -16 5 -30 10 -30 6 0 10 6 10 14 0 8 3 21 6 30 4 11 1
16 -10 16 -11 0 -16 -9 -16 -30z"/>
<path d="M747 3520 c5 -33 3 -40 -11 -40 -13 0 -16 5 -11 20 5 14 2 20 -9 20
-10 0 -16 -9 -16 -24 0 -16 -7 -26 -22 -30 -38 -10 -43 -7 -43 19 0 19 7 28
23 32 13 3 21 10 19 17 -7 20 -34 17 -72 -8 -21 -15 -42 -26 -46 -26 -5 0 -9
-5 -9 -10 0 -6 11 -8 25 -4 18 4 27 1 31 -11 8 -21 -11 -35 -48 -35 -19 0 -28
-5 -28 -16 0 -13 7 -15 35 -10 l35 7 -21 -35 c-11 -19 -27 -40 -35 -46 -7 -7
-14 -16 -14 -21 0 -18 22 -8 48 21 l28 30 -4 -71 c-4 -57 -2 -71 9 -67 10 3
16 28 19 79 3 43 8 69 13 62 12 -19 27 -16 27 6 0 11 -9 23 -20 26 -11 3 -20
10 -20 15 0 11 93 40 126 40 38 0 84 12 84 22 0 6 -16 8 -35 6 -43 -5 -47 10
-5 19 17 3 30 10 30 16 0 5 -13 7 -30 4 -25 -6 -30 -3 -30 13 0 11 -6 20 -14
20 -11 0 -13 -10 -9 -40z"/>
<path d="M747 3070 c5 -33 3 -40 -11 -40 -13 0 -16 5 -11 20 5 14 2 20 -9 20
-10 0 -16 -9 -16 -24 0 -16 -7 -26 -22 -30 -38 -10 -43 -7 -43 19 0 19 7 28
23 32 13 3 21 10 19 17 -7 20 -34 17 -72 -8 -21 -15 -42 -26 -46 -26 -5 0 -9
-5 -9 -10 0 -6 11 -8 25 -4 18 4 27 1 31 -11 8 -21 -11 -35 -48 -35 -19 0 -28
-5 -28 -16 0 -13 7 -15 35 -10 l35 7 -21 -35 c-11 -19 -27 -40 -35 -46 -7 -7
-14 -16 -14 -21 0 -18 22 -8 48 21 l28 30 -4 -71 c-4 -57 -2 -71 9 -67 10 3
16 28 19 79 3 43 8 69 13 62 12 -19 27 -16 27 6 0 11 -9 23 -20 26 -11 3 -20
10 -20 15 0 11 93 40 126 40 38 0 84 12 84 22 0 6 -16 8 -35 6 -43 -5 -47 10
-5 19 17 3 30 10 30 16 0 5 -13 7 -30 4 -25 -6 -30 -3 -30 13 0 11 -6 20 -14
20 -11 0 -13 -10 -9 -40z"/>
<path d="M733 2987 c-90 -15 -79 -30 15 -22 42 4 79 9 81 11 7 6 -11 24 -22
22 -7 0 -40 -6 -74 -11z"/>
<path d="M747 2620 c5 -33 3 -40 -11 -40 -13 0 -16 5 -11 20 5 14 2 20 -9 20
-10 0 -16 -9 -16 -24 0 -16 -7 -26 -22 -30 -38 -10 -43 -7 -43 19 0 19 7 28
23 32 13 3 21 10 19 17 -7 20 -34 17 -72 -8 -21 -15 -42 -26 -46 -26 -5 0 -9
-5 -9 -10 0 -6 11 -8 25 -4 18 4 27 1 31 -11 8 -21 -11 -35 -48 -35 -19 0 -28
-5 -28 -16 0 -13 7 -15 35 -10 l35 7 -21 -35 c-11 -19 -27 -40 -35 -46 -7 -7
-14 -16 -14 -21 0 -18 22 -8 48 21 l28 30 -4 -71 c-4 -57 -2 -71 9 -67 10 3
16 28 19 76 5 67 6 70 24 57 16 -12 17 -18 7 -46 -13 -38 -14 -49 -3 -49 13 0
30 42 37 93 6 40 10 46 37 51 17 3 46 6 65 6 23 0 33 4 31 13 -5 14 -11 14
-96 3 -61 -8 -63 -10 -57 -34 5 -22 4 -23 -9 -9 -9 8 -21 18 -28 20 -31 13 44
38 155 52 26 3 47 11 47 17 0 6 -15 8 -35 6 -43 -5 -47 10 -5 19 17 3 30 10
30 16 0 5 -13 7 -30 4 -25 -6 -30 -3 -30 13 0 11 -6 20 -14 20 -11 0 -13 -10
-9 -40z"/>
<path d="M747 2170 c5 -33 3 -40 -11 -40 -13 0 -16 5 -11 20 5 14 2 20 -9 20
-10 0 -16 -9 -16 -24 0 -16 -7 -26 -22 -30 -38 -10 -43 -7 -43 19 0 19 7 28
23 32 13 3 21 10 19 17 -7 20 -34 17 -72 -8 -21 -15 -42 -26 -46 -26 -5 0 -9
-5 -9 -10 0 -6 11 -8 25 -4 18 4 27 1 31 -11 8 -21 -11 -35 -48 -35 -19 0 -28
-5 -28 -16 0 -13 7 -15 35 -10 l35 7 -21 -35 c-11 -19 -27 -40 -35 -46 -7 -7
-14 -16 -14 -21 0 -18 22 -8 48 21 l28 30 -4 -71 c-4 -57 -2 -71 9 -67 10 3
16 28 19 76 5 67 6 70 24 57 16 -12 17 -18 7 -46 -13 -38 -14 -49 -3 -49 13 0
30 42 37 93 6 40 10 46 37 51 17 3 46 6 65 6 23 0 33 4 31 13 -5 14 -11 14
-96 3 -61 -8 -63 -10 -57 -34 5 -22 4 -23 -9 -9 -9 8 -21 18 -28 20 -31 13 44
38 155 52 26 3 47 11 47 17 0 6 -15 8 -35 6 -43 -5 -47 10 -5 19 17 3 30 10
30 16 0 5 -13 7 -30 4 -25 -6 -30 -3 -30 13 0 11 -6 20 -14 20 -11 0 -13 -10
-9 -40z"/>
<path d="M710 2030 c0 -5 11 -10 25 -10 14 0 25 5 25 10 0 6 -11 10 -25 10
-14 0 -25 -4 -25 -10z"/>
<path d="M747 1720 c5 -33 3 -40 -11 -40 -13 0 -16 5 -11 20 5 14 2 20 -9 20
-10 0 -16 -9 -16 -24 0 -16 -7 -26 -22 -30 -38 -10 -43 -7 -43 19 0 19 7 28
23 32 13 3 21 10 19 17 -7 20 -34 17 -72 -8 -21 -15 -42 -26 -46 -26 -5 0 -9
-5 -9 -10 0 -6 11 -8 25 -4 18 4 27 1 31 -11 8 -21 -11 -35 -48 -35 -19 0 -28
-5 -28 -16 0 -13 7 -15 35 -10 l35 7 -21 -35 c-11 -19 -27 -40 -35 -46 -7 -7
-14 -16 -14 -21 0 -18 22 -8 48 21 l28 30 -4 -71 c-4 -57 -2 -71 9 -67 10 3
16 28 19 76 5 67 6 70 24 57 16 -12 17 -18 7 -46 -13 -38 -14 -49 -3 -49 13 0
30 42 37 93 6 40 10 46 37 51 17 3 46 6 65 6 23 0 33 4 31 13 -5 14 -11 14
-96 3 -61 -8 -63 -10 -57 -34 5 -22 4 -23 -9 -9 -9 8 -21 18 -28 20 -31 13 44
38 155 52 26 3 47 11 47 17 0 6 -15 8 -35 6 -43 -5 -47 10 -5 19 17 3 30 10
30 16 0 5 -13 7 -30 4 -25 -6 -30 -3 -30 13 0 11 -6 20 -14 20 -11 0 -13 -10
-9 -40z"/>
<path d="M714 1574 c3 -9 6 -24 6 -35 0 -10 5 -19 10 -19 6 0 10 11 10 25 0
14 5 25 10 25 6 0 10 5 10 10 0 6 -12 10 -26 10 -20 0 -25 -4 -20 -16z"/>
<path d="M747 1270 c5 -33 3 -40 -11 -40 -13 0 -16 5 -11 20 5 14 2 20 -9 20
-10 0 -16 -9 -16 -24 0 -16 -7 -26 -22 -30 -38 -10 -43 -7 -43 19 0 19 7 28
23 32 13 3 21 10 19 17 -7 20 -34 17 -72 -8 -21 -15 -42 -26 -46 -26 -5 0 -9
-5 -9 -10 0 -6 11 -8 25 -4 18 4 27 1 31 -11 8 -21 -11 -35 -48 -35 -19 0 -28
-5 -28 -16 0 -13 7 -15 35 -10 l35 7 -21 -35 c-11 -19 -27 -40 -35 -46 -7 -7
-14 -16 -14 -21 0 -18 22 -8 48 21 l28 30 -4 -71 c-4 -57 -2 -71 9 -67 10 3
16 28 19 76 5 66 6 70 23 57 17 -12 18 -18 7 -50 -7 -20 -9 -39 -5 -43 4 -4
10 -1 12 6 8 20 53 66 53 53 0 -6 5 -11 10 -11 6 0 10 11 10 25 0 14 5 25 10
25 6 0 10 5 10 10 0 6 -12 10 -26 10 -17 0 -24 -4 -21 -13 2 -6 -2 -18 -9 -25
-11 -10 -13 -7 -7 20 3 18 7 35 9 36 1 2 30 6 64 9 38 4 59 10 57 17 -4 13
-11 13 -95 2 -61 -8 -63 -10 -57 -34 5 -22 4 -23 -9 -9 -9 8 -21 18 -28 20
-31 13 44 38 155 52 26 3 47 11 47 17 0 6 -15 8 -35 6 -43 -5 -47 10 -5 19 17
3 30 10 30 16 0 5 -13 7 -30 4 -25 -6 -30 -3 -30 13 0 11 -6 20 -14 20 -11 0
-13 -10 -9 -40z"/>
<path d="M747 820 c5 -33 3 -40 -11 -40 -13 0 -16 5 -11 20 5 14 2 20 -9 20
-10 0 -16 -9 -16 -24 0 -16 -7 -26 -22 -30 -38 -10 -43 -7 -43 19 0 19 7 28
23 32 13 3 21 10 19 17 -7 20 -34 17 -72 -8 -21 -15 -42 -26 -46 -26 -5 0 -9
-5 -9 -10 0 -6 11 -8 25 -4 18 4 27 1 31 -11 8 -21 -11 -35 -48 -35 -19 0 -28
-5 -28 -16 0 -13 7 -15 35 -10 l35 7 -21 -35 c-11 -19 -27 -40 -35 -46 -7 -7
-14 -16 -14 -21 0 -18 22 -8 48 21 l28 30 -4 -71 c-4 -57 -2 -71 9 -67 10 3
16 28 19 76 5 66 6 70 23 57 17 -12 18 -18 7 -50 -7 -20 -9 -39 -5 -43 4 -4
10 -1 12 6 3 7 15 24 27 36 17 19 23 21 33 10 10 -10 7 -17 -14 -34 -14 -11
-23 -23 -19 -27 9 -9 54 27 74 59 19 32 7 52 -14 24 -14 -19 -14 -19 -14 2 0
12 5 22 10 22 6 0 10 5 10 10 0 6 -12 10 -26 10 -17 0 -24 -4 -21 -13 2 -6 -2
-18 -9 -25 -11 -10 -13 -7 -7 20 3 18 7 35 9 36 1 2 30 6 64 9 38 4 59 10 57
17 -4 13 -11 13 -95 2 -61 -8 -63 -10 -57 -34 5 -22 4 -23 -9 -9 -9 8 -21 18
-28 20 -31 13 44 38 155 52 26 3 47 11 47 17 0 6 -15 8 -35 6 -43 -5 -47 10
-5 19 17 3 30 10 30 16 0 5 -13 7 -30 4 -25 -6 -30 -3 -30 13 0 11 -6 20 -14
20 -11 0 -13 -10 -9 -40z"/>
<path d="M747 370 c5 -33 3 -40 -11 -40 -13 0 -16 5 -11 20 5 14 2 20 -9 20
-10 0 -16 -9 -16 -24 0 -16 -7 -26 -22 -30 -38 -10 -43 -7 -43 19 0 19 7 28
23 32 13 3 21 10 19 17 -7 20 -34 17 -72 -8 -21 -15 -42 -26 -46 -26 -5 0 -9
-5 -9 -10 0 -6 11 -8 25 -4 18 4 27 1 31 -11 8 -21 -11 -35 -48 -35 -19 0 -28
-5 -28 -16 0 -13 7 -15 35 -10 l35 7 -21 -35 c-11 -19 -27 -40 -35 -46 -7 -7
-14 -16 -14 -21 0 -18 22 -8 48 21 l28 30 -4 -71 c-4 -57 -2 -71 9 -67 10 3
16 28 19 76 5 66 6 70 23 57 17 -12 18 -18 7 -50 -7 -20 -9 -39 -5 -43 4 -4
10 -1 12 6 3 7 15 24 27 36 17 19 23 21 33 10 10 -10 7 -17 -14 -34 -14 -11
-24 -23 -20 -26 10 -10 46 16 70 52 l24 35 13 -32 c18 -42 58 -89 77 -89 11 0
13 7 8 33 -9 39 -14 45 -24 29 -10 -16 -36 21 -57 80 -18 51 -18 48 6 48 26 0
26 20 0 27 -24 6 -16 23 11 23 10 0 19 5 19 11 0 7 -14 10 -35 7 -43 -5 -47
10 -5 19 17 3 30 10 30 16 0 5 -13 7 -30 4 -25 -6 -30 -3 -30 13 0 11 -6 20
-14 20 -11 0 -13 -10 -9 -40z m7 -69 c8 -12 -18 -21 -56 -21 -28 0 -30 -2 -24
-26 6 -24 6 -25 -9 -10 -9 9 -21 16 -26 16 -43 0 49 46 98 49 6 1 14 -3 17 -8z
m16 -56 c8 -20 6 -29 -10 -45 -20 -20 -20 -20 -20 0 0 11 5 20 10 20 6 0 10 5
10 10 0 6 -12 10 -26 10 -17 0 -24 -4 -21 -13 2 -6 -3 -19 -11 -27 -14 -13
-15 -12 -9 4 4 10 7 26 7 36 0 17 8 21 53 29 4 0 12 -10 17 -24z"/>
</g>
</svg>
