<?xml version="1.0" standalone="no"?>
<!DOCTYPE svg PUBLIC "-//W3C//DTD SVG 20010904//EN"
 "http://www.w3.org/TR/2001/REC-SVG-20010904/DTD/svg10.dtd">
<svg version="1.0" xmlns="http://www.w3.org/2000/svg"
 width="50.000000pt" height="725.000000pt" viewBox="0 0 50.000000 725.000000"
 preserveAspectRatio="xMidYMid meet">
<metadata>
Created by potrace 1.16, written by Peter Selinger 2001-2019
</metadata>
<g transform="translate(0.000000,725.000000) scale(0.100000,-0.100000)"
fill="#000000" stroke="none">
<path d="M210 7157 c0 -22 26 -51 38 -43 16 10 15 22 -4 40 -19 19 -34 21 -34
3z"/>
<path d="M210 6707 c0 -22 26 -51 38 -43 16 10 15 22 -4 40 -19 19 -34 21 -34
3z"/>
<path d="M110 6639 c-10 -23 -10 -33 -1 -42 15 -15 31 7 31 46 0 36 -14 34
-30 -4z"/>
<path d="M214 6246 c5 -21 2 -25 -24 -31 -16 -4 -38 -4 -48 0 -15 4 -22 -2
-32 -24 -12 -29 -8 -51 10 -51 5 0 12 11 16 24 5 20 14 25 62 32 61 10 76 28
47 58 -24 24 -38 20 -31 -8z"/>
<path d="M303 6233 c-42 -5 -43 -23 -2 -23 26 0 29 -3 24 -20 -3 -11 -4 -20
-2 -20 14 0 67 23 67 29 0 11 -35 41 -46 39 -5 0 -24 -3 -41 -5z"/>
<path d="M214 5796 c5 -21 2 -25 -24 -31 -16 -4 -38 -4 -48 0 -15 4 -22 -2
-32 -24 -12 -29 -8 -51 10 -51 5 0 12 11 16 25 4 18 13 25 31 25 25 0 24 -8
-5 -43 -8 -9 -13 -20 -9 -23 10 -10 57 28 63 51 3 13 14 25 25 28 23 6 25 30
3 51 -23 24 -37 20 -30 -8z"/>
<path d="M303 5783 c-42 -5 -43 -23 -2 -23 26 0 29 -3 24 -20 -3 -11 -4 -20
-2 -20 14 0 67 23 67 29 0 11 -35 41 -46 39 -5 0 -24 -3 -41 -5z"/>
<path d="M214 5346 c5 -21 2 -25 -24 -31 -16 -4 -38 -4 -48 0 -15 4 -22 -2
-32 -24 -12 -29 -8 -51 10 -51 5 0 12 11 16 25 4 18 13 25 31 25 25 0 24 -8
-5 -43 -8 -9 -13 -20 -9 -23 10 -10 57 28 63 52 8 33 32 30 36 -3 3 -26 7 -28
51 -31 44 -3 48 -1 43 16 -5 15 -1 21 19 26 30 8 31 17 7 39 -15 14 -27 15
-65 8 -26 -4 -47 -5 -47 0 0 11 -30 39 -42 39 -6 0 -8 -10 -4 -24z m112 -52
c-3 -9 -6 -20 -6 -25 0 -5 -9 -9 -20 -9 -15 0 -20 7 -20 25 0 20 5 25 26 25
20 0 25 -4 20 -16z"/>
<path d="M214 4896 c5 -21 2 -25 -24 -31 -16 -4 -38 -4 -48 0 -15 4 -22 -2
-32 -24 -12 -29 -8 -51 10 -51 5 0 12 11 16 25 4 18 13 25 31 25 25 0 24 -8
-5 -43 -8 -9 -13 -20 -9 -23 10 -10 57 28 63 52 8 33 32 30 36 -3 3 -26 7 -28
51 -31 44 -3 48 -1 43 16 -5 15 -1 21 19 26 30 8 31 17 7 39 -15 14 -27 15
-65 8 -26 -4 -47 -5 -47 0 0 11 -30 39 -42 39 -6 0 -8 -10 -4 -24z m112 -52
c-3 -9 -6 -20 -6 -25 0 -5 -9 -9 -20 -9 -15 0 -20 7 -20 25 0 20 5 25 26 25
20 0 25 -4 20 -16z"/>
<path d="M188 4722 c5 -57 -16 -107 -53 -124 -26 -12 -33 -28 -12 -28 32 0 76
40 87 80 15 56 10 114 -11 118 -14 2 -15 -5 -11 -46z"/>
<path d="M214 4446 c5 -21 2 -25 -24 -31 -16 -4 -38 -4 -48 0 -15 4 -22 -2
-32 -24 -12 -29 -8 -51 10 -51 5 0 12 11 16 25 4 18 13 25 31 25 25 0 24 -8
-5 -43 -8 -9 -13 -20 -9 -23 10 -10 57 28 63 52 8 33 32 30 36 -3 3 -26 7 -28
51 -31 44 -3 48 -1 43 16 -5 15 -1 21 19 26 30 8 31 17 7 39 -15 14 -27 15
-65 8 -26 -4 -47 -5 -47 0 0 11 -30 39 -42 39 -6 0 -8 -10 -4 -24z m112 -52
c-3 -9 -6 -20 -6 -25 0 -5 -9 -9 -20 -9 -15 0 -20 7 -20 25 0 20 5 25 26 25
20 0 25 -4 20 -16z"/>
<path d="M188 4272 c5 -57 -16 -107 -53 -124 -26 -12 -33 -28 -12 -28 32 0 76
40 87 80 15 56 10 114 -11 118 -14 2 -15 -5 -11 -46z"/>
<path d="M130 4283 c1 -14 27 -43 39 -43 17 0 13 37 -5 44 -21 8 -34 8 -34 -1z"/>
<path d="M214 3996 c5 -21 2 -25 -24 -31 -16 -4 -38 -4 -48 0 -15 4 -22 -2
-32 -24 -12 -29 -8 -51 10 -51 5 0 12 11 16 25 4 18 13 25 31 25 25 0 24 -8
-5 -43 -8 -9 -13 -20 -9 -23 10 -10 57 28 63 52 8 33 32 30 36 -3 3 -26 7 -28
51 -31 44 -3 48 -1 43 16 -5 15 -1 21 19 26 30 8 31 17 7 39 -15 14 -27 15
-65 8 -26 -4 -47 -5 -47 0 0 11 -30 39 -42 39 -6 0 -8 -10 -4 -24z m112 -52
c-3 -9 -6 -20 -6 -25 0 -5 -9 -9 -20 -9 -15 0 -20 7 -20 25 0 20 5 25 26 25
20 0 25 -4 20 -16z"/>
<path d="M187 3826 l5 -44 -41 -13 c-22 -7 -41 -18 -41 -26 0 -18 30 -16 52 4
27 24 23 -3 -5 -31 -13 -13 -30 -25 -38 -28 -8 -3 -10 -9 -6 -14 5 -5 25 0 45
11 27 15 40 31 50 60 17 53 12 119 -9 123 -14 3 -16 -4 -12 -42z"/>
<path d="M130 3833 c1 -14 27 -43 39 -43 17 0 13 37 -5 44 -21 8 -34 8 -34 -1z"/>
<path d="M214 3546 c5 -21 2 -25 -24 -31 -16 -4 -38 -4 -48 0 -15 4 -22 -2
-32 -24 -12 -29 -8 -51 10 -51 5 0 12 11 16 25 4 18 13 25 31 25 25 0 24 -8
-5 -43 -8 -9 -13 -20 -9 -23 10 -10 57 28 63 52 8 33 32 30 36 -3 3 -26 7 -28
51 -31 44 -3 48 -1 43 16 -5 15 -1 21 19 26 30 8 31 17 7 39 -15 14 -27 15
-65 8 -26 -4 -47 -5 -47 0 0 11 -30 39 -42 39 -6 0 -8 -10 -4 -24z m112 -52
c-3 -9 -6 -20 -6 -25 0 -5 -9 -9 -20 -9 -15 0 -20 7 -20 25 0 20 5 25 26 25
20 0 25 -4 20 -16z"/>
<path d="M248 3338 c4 -112 12 -122 90 -115 64 5 76 15 67 56 -7 34 -25 42
-25 11 0 -22 -28 -40 -63 -40 -40 0 -49 22 -46 102 3 58 1 73 -11 75 -13 3
-14 -11 -12 -89z"/>
<path d="M187 3376 l5 -44 -41 -13 c-22 -7 -41 -18 -41 -26 0 -18 30 -16 52 4
27 24 23 -3 -5 -31 -13 -13 -30 -25 -38 -28 -8 -3 -10 -9 -6 -14 5 -5 25 0 45
11 27 15 40 31 50 60 17 53 12 119 -9 123 -14 3 -16 -4 -12 -42z"/>
<path d="M130 3383 c1 -14 27 -43 39 -43 17 0 13 37 -5 44 -21 8 -34 8 -34 -1z"/>
<path d="M214 3096 c5 -21 2 -25 -24 -31 -16 -4 -38 -4 -48 0 -15 4 -22 -2
-32 -24 -12 -29 -8 -51 10 -51 5 0 12 11 16 25 4 18 13 25 31 25 25 0 24 -8
-5 -43 -8 -9 -13 -20 -9 -23 10 -10 57 28 63 52 8 33 32 30 36 -3 3 -26 7 -28
51 -31 44 -3 48 -1 43 16 -5 15 -1 21 19 26 30 8 31 17 7 39 -15 14 -27 15
-65 8 -26 -4 -47 -5 -47 0 0 11 -30 39 -42 39 -6 0 -8 -10 -4 -24z m112 -52
c-3 -9 -6 -20 -6 -25 0 -5 -9 -9 -20 -9 -15 0 -20 7 -20 25 0 20 5 25 26 25
20 0 25 -4 20 -16z"/>
<path d="M248 2888 c4 -112 12 -122 90 -115 64 5 76 15 67 56 -7 34 -25 42
-25 11 0 -22 -28 -40 -62 -40 -33 0 -48 18 -48 57 0 28 6 35 40 53 42 22 50
37 24 47 -10 4 -24 -4 -38 -21 l-21 -27 0 33 c0 21 -5 34 -15 36 -13 2 -14
-12 -12 -90z"/>
<path d="M187 2926 l5 -44 -41 -13 c-22 -7 -41 -18 -41 -26 0 -18 30 -16 52 4
27 24 23 -3 -5 -31 -13 -13 -30 -25 -38 -28 -8 -3 -10 -9 -6 -14 5 -5 25 0 45
11 27 15 40 31 50 60 17 53 12 119 -9 123 -14 3 -16 -4 -12 -42z"/>
<path d="M130 2933 c1 -14 27 -43 39 -43 17 0 13 37 -5 44 -21 8 -34 8 -34 -1z"/>
<path d="M214 2646 c5 -21 2 -25 -24 -31 -16 -4 -38 -4 -48 0 -15 4 -22 -2
-32 -24 -12 -29 -8 -51 10 -51 5 0 12 11 16 25 4 18 13 25 31 25 25 0 24 -8
-5 -43 -8 -9 -13 -20 -9 -23 10 -10 57 28 63 52 8 33 32 30 36 -3 3 -26 7 -28
51 -31 44 -3 48 -1 43 16 -5 15 -1 21 19 26 30 8 31 17 7 39 -15 14 -27 15
-65 8 -26 -4 -47 -5 -47 0 0 11 -30 39 -42 39 -6 0 -8 -10 -4 -24z m112 -52
c-3 -9 -6 -20 -6 -25 0 -5 -9 -9 -20 -9 -15 0 -20 7 -20 25 0 20 5 25 26 25
20 0 25 -4 20 -16z"/>
<path d="M248 2438 c4 -112 12 -122 90 -115 64 5 76 15 67 56 -7 34 -25 42
-25 11 0 -22 -28 -40 -62 -40 -31 0 -48 18 -48 49 l0 24 23 -21 c29 -27 47
-28 47 -3 0 12 -11 23 -32 31 l-33 11 38 20 c40 21 47 36 21 46 -10 4 -24 -4
-38 -21 l-21 -27 0 33 c0 21 -5 34 -15 36 -13 2 -14 -12 -12 -90z"/>
<path d="M187 2476 l5 -44 -41 -13 c-22 -7 -41 -18 -41 -26 0 -18 30 -16 52 4
27 24 23 -3 -5 -31 -13 -13 -30 -25 -38 -28 -8 -3 -10 -9 -6 -14 5 -5 25 0 45
11 27 15 40 31 50 60 17 53 12 119 -9 123 -14 3 -16 -4 -12 -42z"/>
<path d="M130 2483 c1 -14 27 -43 39 -43 17 0 13 37 -5 44 -21 8 -34 8 -34 -1z"/>
</g>
</svg>
