<?xml version="1.0" standalone="no"?>
<!DOCTYPE svg PUBLIC "-//W3C//DTD SVG 20010904//EN"
 "http://www.w3.org/TR/2001/REC-SVG-20010904/DTD/svg10.dtd">
<svg version="1.0" xmlns="http://www.w3.org/2000/svg"
 width="50.000000pt" height="725.000000pt" viewBox="0 0 50.000000 725.000000"
 preserveAspectRatio="xMidYMid meet">
<metadata>
Created by potrace 1.16, written by Peter Selinger 2001-2019
</metadata>
<g transform="translate(0.000000,725.000000) scale(0.100000,-0.100000)"
fill="#000000" stroke="none">
<path d="M160 7152 c0 -9 -12 -35 -26 -55 -37 -55 -19 -60 27 -8 42 47 48 65
23 75 -23 9 -24 8 -24 -12z"/>
<path d="M160 6702 c0 -9 -12 -35 -26 -55 -33 -49 -23 -60 19 -20 17 18 45 33
61 35 16 2 32 9 34 17 3 10 -2 13 -22 9 -17 -3 -26 -1 -26 7 0 7 -7 16 -16 19
-23 9 -24 8 -24 -12z"/>
<path d="M160 6252 c0 -9 -12 -35 -26 -55 -33 -49 -23 -60 19 -20 17 18 45 33
61 35 16 2 32 9 34 17 3 10 -2 13 -22 9 -17 -3 -26 -1 -26 7 0 7 -7 16 -16 19
-23 9 -24 8 -24 -12z"/>
<path d="M182 6188 c3 -7 13 -15 22 -16 12 -3 17 1 14 10 -3 7 -13 15 -22 16
-12 3 -17 -1 -14 -10z"/>
<path d="M160 5802 c0 -9 -12 -35 -26 -55 -33 -49 -23 -60 19 -20 17 18 45 33
61 35 16 2 32 9 34 17 3 10 -2 13 -22 9 -17 -3 -26 -1 -26 7 0 7 -7 16 -16 19
-23 9 -24 8 -24 -12z"/>
<path d="M280 5805 c0 -8 -5 -24 -12 -35 -20 -32 2 -37 28 -7 29 34 31 57 4
57 -11 0 -20 -7 -20 -15z"/>
<path d="M182 5738 c3 -7 13 -15 22 -16 12 -3 17 1 14 10 -3 7 -13 15 -22 16
-12 3 -17 -1 -14 -10z"/>
<path d="M160 5352 c0 -9 -12 -35 -26 -55 -33 -49 -23 -60 19 -20 17 18 45 33
61 35 16 2 32 9 34 17 3 10 -2 13 -22 9 -17 -3 -26 -1 -26 7 0 7 -7 16 -16 19
-23 9 -24 8 -24 -12z"/>
<path d="M280 5355 c0 -8 -5 -24 -12 -35 -15 -23 -4 -38 15 -22 7 7 31 15 52
20 21 4 41 14 43 21 4 11 -3 13 -27 8 -23 -5 -31 -3 -31 8 0 8 -9 15 -20 15
-11 0 -20 -7 -20 -15z"/>
<path d="M182 5288 c3 -7 13 -15 22 -16 12 -3 17 1 14 10 -3 7 -13 15 -22 16
-12 3 -17 -1 -14 -10z"/>
<path d="M160 4902 c0 -9 -12 -35 -26 -55 -33 -49 -23 -60 19 -20 17 18 45 33
61 35 16 2 32 9 34 17 3 10 -2 13 -22 9 -17 -3 -26 -1 -26 7 0 7 -7 16 -16 19
-23 9 -24 8 -24 -12z"/>
<path d="M280 4905 c0 -8 -5 -24 -12 -35 -15 -24 -4 -37 17 -20 13 11 18 10
31 -8 8 -12 22 -22 30 -22 22 0 16 28 -8 36 -22 8 -22 8 6 13 16 4 31 12 34
20 4 11 -2 13 -27 8 -23 -5 -31 -3 -31 8 0 8 -9 15 -20 15 -11 0 -20 -7 -20
-15z"/>
<path d="M182 4838 c3 -7 13 -15 22 -16 12 -3 17 1 14 10 -3 7 -13 15 -22 16
-12 3 -17 -1 -14 -10z"/>
<path d="M160 4452 c0 -9 -12 -35 -26 -55 -33 -49 -23 -60 19 -20 17 18 45 33
61 35 16 2 32 9 34 17 3 10 -2 13 -22 9 -17 -3 -26 -1 -26 7 0 7 -7 16 -16 19
-23 9 -24 8 -24 -12z"/>
<path d="M280 4455 c0 -8 -5 -24 -12 -35 -15 -24 -4 -37 17 -20 13 11 18 10
31 -8 8 -12 22 -22 30 -22 22 0 16 28 -8 36 -22 8 -22 8 6 13 16 4 31 12 34
20 4 11 -2 13 -27 8 -23 -5 -31 -3 -31 8 0 8 -9 15 -20 15 -11 0 -20 -7 -20
-15z"/>
<path d="M182 4388 c3 -7 13 -15 22 -16 12 -3 17 1 14 10 -3 7 -13 15 -22 16
-12 3 -17 -1 -14 -10z"/>
<path d="M236 4356 c-42 -7 -71 -16 -74 -25 -3 -10 2 -12 20 -8 14 4 57 10 96
13 40 4 72 10 72 14 0 8 -27 21 -38 19 -4 -1 -38 -7 -76 -13z"/>
<path d="M160 4002 c0 -9 -12 -35 -26 -55 -33 -49 -23 -60 19 -20 17 18 45 33
61 35 16 2 32 9 34 17 3 10 -2 13 -22 9 -17 -3 -26 -1 -26 7 0 7 -7 16 -16 19
-23 9 -24 8 -24 -12z"/>
<path d="M280 4005 c0 -8 -5 -24 -12 -35 -15 -24 -4 -37 17 -20 13 11 18 10
31 -8 8 -12 22 -22 30 -22 22 0 16 28 -8 36 -22 8 -22 8 6 13 16 4 31 12 34
20 4 11 -2 13 -27 8 -23 -5 -31 -3 -31 8 0 8 -9 15 -20 15 -11 0 -20 -7 -20
-15z"/>
<path d="M182 3938 c3 -7 13 -15 22 -16 12 -3 17 1 14 10 -3 7 -13 15 -22 16
-12 3 -17 -1 -14 -10z"/>
<path d="M230 3921 c0 -15 -8 -21 -32 -23 -17 -2 -33 -9 -36 -16 -3 -10 4 -12
32 -7 29 6 36 4 36 -9 0 -23 27 -20 33 4 4 16 14 20 46 20 42 0 54 13 25 24
-9 4 -25 4 -35 1 -11 -4 -26 0 -35 9 -21 21 -34 20 -34 -3z"/>
<path d="M160 3552 c0 -9 -12 -35 -26 -55 -33 -49 -23 -60 19 -20 17 18 45 33
61 35 16 2 32 9 34 17 3 10 -2 13 -22 9 -17 -3 -26 -1 -26 7 0 7 -7 16 -16 19
-23 9 -24 8 -24 -12z"/>
<path d="M280 3555 c0 -8 -5 -24 -12 -35 -15 -24 -4 -37 17 -20 13 11 18 10
31 -8 8 -12 22 -22 30 -22 22 0 16 28 -8 36 -22 8 -22 8 6 13 16 4 31 12 34
20 4 11 -2 13 -27 8 -23 -5 -31 -3 -31 8 0 8 -9 15 -20 15 -11 0 -20 -7 -20
-15z"/>
<path d="M182 3488 c3 -7 13 -15 22 -16 12 -3 17 1 14 10 -3 7 -13 15 -22 16
-12 3 -17 -1 -14 -10z"/>
<path d="M230 3471 c0 -15 -8 -21 -32 -23 -17 -2 -33 -9 -36 -16 -3 -10 4 -12
32 -7 24 5 36 3 36 -4 0 -6 -12 -11 -26 -11 -16 0 -24 -5 -21 -12 4 -13 45
-14 115 -2 43 7 41 24 -4 24 -21 0 -33 4 -29 10 3 6 24 10 46 10 21 0 39 4 39
9 0 13 -30 22 -51 16 -11 -4 -26 0 -35 9 -21 21 -34 20 -34 -3z"/>
<path d="M160 3102 c0 -9 -12 -35 -26 -55 -33 -49 -23 -60 19 -20 17 18 45 33
61 35 16 2 32 9 34 17 3 10 -2 13 -22 9 -17 -3 -26 -1 -26 7 0 7 -7 16 -16 19
-23 9 -24 8 -24 -12z"/>
<path d="M280 3105 c0 -8 -5 -24 -12 -35 -15 -24 -4 -37 17 -20 13 11 18 10
31 -8 8 -12 22 -22 30 -22 22 0 16 28 -8 36 -22 8 -22 8 6 13 16 4 31 12 34
20 4 11 -2 13 -27 8 -23 -5 -31 -3 -31 8 0 8 -9 15 -20 15 -11 0 -20 -7 -20
-15z"/>
<path d="M182 3038 c3 -7 13 -15 22 -16 12 -3 17 1 14 10 -3 7 -13 15 -22 16
-12 3 -17 -1 -14 -10z"/>
<path d="M230 3021 c0 -15 -8 -21 -32 -23 -17 -2 -33 -9 -36 -16 -3 -10 4 -12
32 -7 24 5 36 3 36 -4 0 -6 -12 -11 -26 -11 -16 0 -24 -5 -21 -12 4 -13 45
-14 115 -2 43 7 41 24 -4 24 -21 0 -33 4 -29 10 3 6 24 10 46 10 21 0 39 4 39
9 0 13 -30 22 -51 16 -11 -4 -26 0 -35 9 -21 21 -34 20 -34 -3z"/>
<path d="M198 2907 c-54 -5 -98 -13 -98 -18 0 -15 38 -20 81 -10 24 6 86 11
137 11 70 0 93 3 90 13 -6 16 -84 17 -210 4z"/>
<path d="M160 2652 c0 -9 -12 -35 -26 -55 -33 -49 -23 -60 19 -20 17 18 45 33
61 35 16 2 32 9 34 17 3 10 -2 13 -22 9 -17 -3 -26 -1 -26 7 0 7 -7 16 -16 19
-23 9 -24 8 -24 -12z"/>
<path d="M280 2655 c0 -8 -5 -24 -12 -35 -15 -24 -4 -37 17 -20 13 11 18 10
31 -8 8 -12 22 -22 30 -22 22 0 16 28 -8 36 -22 8 -22 8 6 13 16 4 31 12 34
20 4 11 -2 13 -27 8 -23 -5 -31 -3 -31 8 0 8 -9 15 -20 15 -11 0 -20 -7 -20
-15z"/>
<path d="M182 2588 c3 -7 13 -15 22 -16 12 -3 17 1 14 10 -3 7 -13 15 -22 16
-12 3 -17 -1 -14 -10z"/>
<path d="M230 2571 c0 -15 -8 -21 -32 -23 -17 -2 -33 -9 -36 -16 -3 -10 4 -12
32 -7 24 5 36 3 36 -4 0 -6 -12 -11 -26 -11 -16 0 -24 -5 -21 -12 2 -8 17 -12
39 -10 24 2 37 -1 41 -12 5 -12 -10 -16 -79 -21 -46 -4 -84 -11 -84 -16 0 -15
38 -20 81 -10 81 19 89 16 89 -29 0 -29 -4 -40 -15 -40 -21 0 -19 -14 6 -36
27 -25 39 -7 39 64 l0 52 56 0 c73 0 70 24 -4 28 -37 2 -52 7 -52 18 0 7 7 14
15 14 8 0 15 5 15 10 0 6 -16 10 -36 10 -21 0 -33 4 -29 10 3 6 24 10 46 10
21 0 39 4 39 9 0 13 -30 22 -51 16 -11 -4 -26 0 -35 9 -21 21 -34 20 -34 -3z"/>
<path d="M160 2202 c0 -9 -12 -35 -26 -55 -33 -49 -23 -60 19 -20 17 18 45 33
61 35 16 2 32 9 34 17 3 10 -2 13 -22 9 -17 -3 -26 -1 -26 7 0 7 -7 16 -16 19
-23 9 -24 8 -24 -12z"/>
<path d="M280 2205 c0 -8 -5 -24 -12 -35 -15 -24 -4 -37 17 -20 13 11 18 10
31 -8 8 -12 22 -22 30 -22 22 0 16 28 -8 36 -22 8 -22 8 6 13 16 4 31 12 34
20 4 11 -2 13 -27 8 -23 -5 -31 -3 -31 8 0 8 -9 15 -20 15 -11 0 -20 -7 -20
-15z"/>
<path d="M182 2138 c3 -7 13 -15 22 -16 12 -3 17 1 14 10 -3 7 -13 15 -22 16
-12 3 -17 -1 -14 -10z"/>
<path d="M230 2121 c0 -15 -8 -21 -32 -23 -17 -2 -33 -9 -36 -16 -3 -10 4 -12
32 -7 24 5 36 3 36 -4 0 -6 -12 -11 -26 -11 -16 0 -24 -5 -21 -12 2 -8 17 -12
39 -10 24 2 37 -1 41 -12 5 -12 -10 -16 -79 -21 -46 -4 -84 -11 -84 -16 0 -11
46 -23 58 -15 5 3 15 -8 22 -24 7 -17 19 -30 26 -30 19 0 18 39 -2 47 -22 8 2
23 39 23 25 0 27 -3 27 -40 0 -29 -4 -40 -15 -40 -21 0 -19 -14 6 -36 27 -25
39 -7 39 64 l0 52 56 0 c73 0 70 24 -4 28 -37 2 -52 7 -52 18 0 7 7 14 15 14
8 0 15 5 15 10 0 6 -16 10 -36 10 -21 0 -33 4 -29 10 3 6 24 10 46 10 21 0 39
4 39 9 0 13 -30 22 -51 16 -11 -4 -26 0 -35 9 -21 21 -34 20 -34 -3z"/>
</g>
</svg>
