<?xml version="1.0" standalone="no"?>
<!DOCTYPE svg PUBLIC "-//W3C//DTD SVG 20010904//EN"
 "http://www.w3.org/TR/2001/REC-SVG-20010904/DTD/svg10.dtd">
<svg version="1.0" xmlns="http://www.w3.org/2000/svg"
 width="95.000000pt" height="725.000000pt" viewBox="0 0 95.000000 725.000000"
 preserveAspectRatio="xMidYMid meet">
<metadata>
Created by potrace 1.16, written by Peter Selinger 2001-2019
</metadata>
<g transform="translate(0.000000,725.000000) scale(0.100000,-0.100000)"
fill="#000000" stroke="none">
<path d="M268 7159 c-2 -18 -10 -22 -39 -23 -25 -1 -36 3 -35 13 2 27 -24 22
-35 -6 -6 -15 -18 -36 -26 -46 -24 -26 -6 -34 21 -8 23 22 23 22 29 2 5 -20
-3 -26 -32 -21 -9 1 -12 -4 -7 -15 3 -9 9 -27 12 -40 5 -20 10 -23 40 -18 27
4 34 2 34 -11 0 -12 -10 -16 -38 -16 -37 0 -38 -1 -38 -35 0 -24 -8 -43 -27
-63 -51 -53 -25 -60 27 -7 19 19 38 30 41 25 10 -17 25 -11 25 10 0 11 -7 20
-15 20 -8 0 -15 7 -15 15 0 10 10 15 28 15 21 0 30 -7 41 -32 8 -17 10 -33 5
-35 -5 -2 -16 -8 -24 -13 -23 -14 -6 -22 25 -10 23 9 32 7 49 -8 45 -41 115
-59 102 -26 -3 9 -6 27 -6 40 0 30 -16 32 -23 3 -6 -21 -6 -21 -36 -3 -36 21
-38 29 -11 46 11 7 20 18 20 25 0 20 -30 15 -49 -8 l-17 -21 -12 26 c-11 24
-10 26 13 26 16 0 25 6 25 16 0 12 -7 14 -30 9 -24 -5 -30 -3 -30 10 0 14 6
16 29 12 24 -5 32 -1 46 20 14 21 15 30 6 45 -6 10 -11 25 -11 33 0 8 -9 15
-20 15 -22 0 -27 -15 -7 -27 12 -8 -24 -19 -69 -22 -26 -1 -40 35 -17 43 24
10 33 7 27 -9 -9 -21 10 -19 31 5 12 13 31 20 57 20 21 0 38 5 38 10 0 6 -13
10 -29 10 -16 0 -31 6 -35 15 -8 22 -34 18 -38 -6z m42 -114 c0 -8 -9 -15 -20
-15 -13 0 -18 5 -14 15 4 8 12 15 20 15 8 0 14 -7 14 -15z m-102 -13 c2 -7 -3
-12 -12 -12 -9 0 -16 7 -16 16 0 17 22 14 28 -4z m42 3 c0 -8 -4 -15 -10 -15
-5 0 -10 7 -10 15 0 8 5 15 10 15 6 0 10 -7 10 -15z"/>
<path d="M609 7143 c-6 -15 -18 -36 -26 -46 -9 -9 -13 -20 -9 -25 10 -9 78 68
73 82 -7 22 -27 16 -38 -11z"/>
<path d="M330 7003 c0 -11 33 -43 43 -43 4 0 7 9 7 20 0 11 -4 20 -9 20 -5 0
-16 3 -25 6 -9 3 -16 2 -16 -3z"/>
<path d="M609 6693 c-6 -15 -18 -36 -26 -46 -24 -25 -7 -34 20 -10 12 11 39
24 60 27 43 8 51 30 8 24 -20 -3 -28 0 -27 10 2 27 -24 24 -35 -5z"/>
<path d="M609 6243 c-6 -15 -18 -36 -26 -46 -24 -26 -6 -34 21 -8 23 22 23 22
29 2 3 -12 11 -21 17 -21 7 0 10 8 7 20 -4 15 1 22 19 26 34 9 30 27 -5 22
-20 -3 -28 0 -27 10 2 27 -24 24 -35 -5z"/>
<path d="M718 5809 c-2 -18 -10 -22 -39 -23 -25 -1 -36 3 -35 13 2 27 -24 22
-35 -6 -6 -15 -18 -36 -26 -46 -24 -26 -6 -34 21 -8 23 22 23 22 29 2 3 -12
11 -21 17 -21 7 0 10 8 7 19 -3 12 1 22 10 25 24 10 33 7 27 -9 -11 -27 15
-15 41 20 27 34 26 55 0 55 -7 0 -15 -10 -17 -21z"/>
<path d="M718 5359 c-2 -18 -10 -22 -39 -23 -25 -1 -36 3 -35 13 2 27 -24 22
-35 -6 -6 -15 -18 -36 -26 -46 -24 -26 -6 -34 21 -8 23 22 23 22 29 2 3 -12
11 -21 17 -21 7 0 10 8 7 19 -3 12 1 22 10 25 24 10 33 7 27 -9 -9 -21 10 -19
31 5 12 13 31 20 57 20 21 0 38 5 38 10 0 6 -13 10 -29 10 -16 0 -31 6 -35 15
-8 22 -34 18 -38 -6z"/>
<path d="M718 4909 c-2 -18 -10 -22 -39 -23 -25 -1 -36 3 -35 13 2 27 -24 22
-35 -6 -6 -15 -18 -36 -26 -46 -24 -26 -6 -34 21 -8 23 22 23 22 29 2 3 -12
11 -21 17 -21 7 0 10 8 7 19 -3 12 1 22 10 25 24 10 33 7 27 -9 -9 -21 10 -19
31 5 12 13 31 20 57 20 21 0 38 5 38 10 0 6 -13 10 -29 10 -16 0 -31 6 -35 15
-8 22 -34 18 -38 -6z"/>
<path d="M740 4862 c0 -10 22 -32 32 -32 4 0 8 9 8 20 0 13 -7 20 -20 20 -11
0 -20 -4 -20 -8z"/>
<path d="M718 4459 c-2 -18 -10 -22 -39 -23 -25 -1 -36 3 -35 13 2 27 -24 22
-35 -6 -6 -15 -18 -36 -26 -46 -24 -26 -6 -34 21 -8 23 22 23 22 29 2 3 -12
11 -21 17 -21 7 0 10 8 7 19 -3 12 1 22 10 25 24 10 33 7 27 -9 -9 -21 10 -19
31 5 12 13 31 20 57 20 21 0 38 5 38 10 0 6 -13 10 -29 10 -16 0 -31 6 -35 15
-8 22 -34 18 -38 -6z"/>
<path d="M740 4412 c0 -10 22 -32 32 -32 4 0 8 9 8 20 0 13 -7 20 -20 20 -11
0 -20 -4 -20 -8z"/>
<path d="M594 4354 c3 -9 9 -27 12 -40 3 -13 10 -24 15 -24 12 0 11 37 -1 61
-13 23 -35 26 -26 3z"/>
<path d="M718 4009 c-2 -18 -10 -22 -39 -23 -25 -1 -36 3 -35 13 2 27 -24 22
-35 -6 -6 -15 -18 -36 -26 -46 -24 -26 -6 -34 21 -8 23 22 23 22 29 2 5 -20
-3 -26 -32 -21 -9 1 -12 -4 -7 -15 3 -9 9 -28 12 -41 9 -34 24 -30 24 6 0 28
3 30 35 30 19 0 35 5 35 10 0 6 -8 10 -19 10 -23 0 -35 36 -14 44 24 10 33 7
27 -9 -9 -21 10 -19 31 5 12 13 31 20 57 20 21 0 38 5 38 10 0 6 -13 10 -29
10 -16 0 -31 6 -35 15 -8 22 -34 18 -38 -6z"/>
<path d="M740 3962 c0 -4 5 -13 12 -20 9 -9 6 -12 -15 -12 -15 0 -27 -4 -27
-10 0 -5 12 -10 26 -10 23 0 25 -3 19 -30 -8 -37 7 -39 30 -3 14 21 15 30 6
45 -6 10 -11 25 -11 33 0 8 -9 15 -20 15 -11 0 -20 -4 -20 -8z"/>
<path d="M718 3559 c-2 -18 -10 -22 -39 -23 -25 -1 -36 3 -35 13 2 27 -24 22
-35 -6 -6 -15 -18 -36 -26 -46 -24 -26 -6 -34 21 -8 23 22 23 22 29 2 5 -20
-3 -26 -32 -21 -9 1 -12 -4 -7 -15 3 -9 9 -28 12 -41 9 -34 24 -30 24 6 0 34
19 41 27 10 3 -11 9 -20 14 -20 5 0 9 9 9 20 0 11 5 20 10 20 6 0 10 5 10 10
0 6 -8 10 -19 10 -23 0 -35 36 -14 44 24 10 33 7 27 -9 -9 -21 10 -19 31 5 12
13 31 20 57 20 21 0 38 5 38 10 0 6 -13 10 -29 10 -16 0 -31 6 -35 15 -8 22
-34 18 -38 -6z"/>
<path d="M740 3512 c0 -4 5 -13 12 -20 9 -9 6 -12 -15 -12 -15 0 -27 -4 -27
-10 0 -5 12 -10 26 -10 23 0 25 -3 19 -30 -8 -37 7 -39 30 -3 14 21 15 30 6
45 -6 10 -11 25 -11 33 0 8 -9 15 -20 15 -11 0 -20 -4 -20 -8z"/>
<path d="M718 3109 c-2 -18 -10 -22 -39 -23 -25 -1 -36 3 -35 13 2 27 -24 22
-35 -6 -6 -15 -18 -36 -26 -46 -24 -26 -6 -34 21 -8 23 22 23 22 29 2 5 -20
-3 -26 -32 -21 -9 1 -12 -4 -7 -15 3 -9 9 -28 12 -41 9 -34 24 -30 24 6 0 34
19 41 27 10 3 -11 9 -20 14 -20 5 0 9 9 9 20 0 11 5 20 10 20 6 0 10 -7 10
-15 0 -22 18 -18 25 5 3 11 13 20 21 20 12 0 14 -7 9 -30 -8 -37 7 -39 30 -3
14 21 15 30 6 45 -6 10 -11 25 -11 33 0 8 -9 15 -20 15 -22 0 -27 -15 -7 -27
12 -8 -24 -19 -69 -22 -26 -1 -40 35 -17 43 24 10 33 7 27 -9 -9 -21 10 -19
31 5 12 13 31 20 57 20 21 0 38 5 38 10 0 6 -13 10 -29 10 -16 0 -31 6 -35 15
-8 22 -34 18 -38 -6z"/>
<path d="M718 2659 c-2 -18 -10 -22 -39 -23 -25 -1 -36 3 -35 13 2 27 -24 22
-35 -6 -6 -15 -18 -36 -26 -46 -24 -26 -6 -34 21 -8 23 22 23 22 29 2 5 -20
-3 -26 -32 -21 -9 1 -12 -4 -7 -15 3 -9 9 -28 12 -41 5 -18 11 -23 28 -19 11
3 47 7 79 9 47 2 61 7 74 26 13 18 14 27 5 41 -7 10 -12 26 -12 34 0 8 -9 15
-20 15 -22 0 -27 -15 -7 -27 12 -8 -24 -19 -69 -22 -26 -1 -40 35 -17 43 24
10 33 7 27 -9 -9 -21 10 -19 31 5 12 13 31 20 57 20 21 0 38 5 38 10 0 6 -13
10 -29 10 -16 0 -31 6 -35 15 -8 22 -34 18 -38 -6z m42 -114 c0 -8 -9 -15 -20
-15 -13 0 -18 5 -14 15 4 8 12 15 20 15 8 0 14 -7 14 -15z m-102 -13 c2 -7 -3
-12 -12 -12 -9 0 -16 7 -16 16 0 17 22 14 28 -4z m42 3 c0 -8 -4 -15 -10 -15
-5 0 -10 7 -10 15 0 8 5 15 10 15 6 0 10 -7 10 -15z"/>
<path d="M718 2209 c-2 -18 -10 -22 -39 -23 -25 -1 -36 3 -35 13 2 27 -24 22
-35 -6 -6 -15 -18 -36 -26 -46 -24 -26 -6 -34 21 -8 23 22 23 22 29 2 5 -20
-3 -26 -32 -21 -9 1 -12 -4 -7 -15 3 -9 9 -28 12 -41 5 -18 11 -23 28 -19 11
3 47 7 79 9 47 2 61 7 74 26 13 18 14 27 5 41 -7 10 -12 26 -12 34 0 8 -9 15
-20 15 -22 0 -27 -15 -7 -27 12 -8 -24 -19 -69 -22 -26 -1 -40 35 -17 43 24
10 33 7 27 -9 -9 -21 10 -19 31 5 12 13 31 20 57 20 21 0 38 5 38 10 0 6 -13
10 -29 10 -16 0 -31 6 -35 15 -8 22 -34 18 -38 -6z m42 -114 c0 -8 -9 -15 -20
-15 -13 0 -18 5 -14 15 4 8 12 15 20 15 8 0 14 -7 14 -15z m-102 -13 c2 -7 -3
-12 -12 -12 -9 0 -16 7 -16 16 0 17 22 14 28 -4z m42 3 c0 -8 -4 -15 -10 -15
-5 0 -10 7 -10 15 0 8 5 15 10 15 6 0 10 -7 10 -15z"/>
<path d="M715 2030 c-16 -4 -49 -8 -72 -9 -50 -1 -59 -21 -10 -21 71 0 137 13
137 26 0 15 -9 16 -55 4z"/>
<path d="M718 1759 c-2 -18 -10 -22 -39 -23 -25 -1 -36 3 -35 13 2 27 -24 22
-35 -6 -6 -15 -18 -36 -26 -46 -24 -26 -6 -34 21 -8 23 22 23 22 29 2 5 -20
-3 -26 -32 -21 -9 1 -12 -4 -7 -15 3 -9 9 -28 12 -41 5 -18 11 -23 28 -19 11
3 47 7 79 9 47 2 61 7 74 26 13 18 14 27 5 41 -7 10 -12 26 -12 34 0 8 -9 15
-20 15 -22 0 -27 -15 -7 -27 12 -8 -24 -19 -69 -22 -26 -1 -40 35 -17 43 24
10 33 7 27 -9 -9 -21 10 -19 31 5 12 13 31 20 57 20 21 0 38 5 38 10 0 6 -13
10 -29 10 -16 0 -31 6 -35 15 -8 22 -34 18 -38 -6z m42 -114 c0 -8 -9 -15 -20
-15 -13 0 -18 5 -14 15 4 8 12 15 20 15 8 0 14 -7 14 -15z m-102 -13 c2 -7 -3
-12 -12 -12 -9 0 -16 7 -16 16 0 17 22 14 28 -4z m42 3 c0 -8 -4 -15 -10 -15
-5 0 -10 7 -10 15 0 8 5 15 10 15 6 0 10 -7 10 -15z"/>
<path d="M715 1580 c-16 -4 -48 -8 -70 -9 -40 -1 -41 -2 -41 -36 0 -25 -8 -43
-29 -65 -35 -37 -27 -50 14 -21 19 14 34 37 41 61 l10 38 65 7 c45 5 65 12 65
21 0 15 -9 16 -55 4z"/>
<path d="M718 1309 c-2 -18 -10 -22 -39 -23 -25 -1 -36 3 -35 13 2 27 -24 22
-35 -6 -6 -15 -18 -36 -26 -46 -24 -26 -6 -34 21 -8 23 22 23 22 29 2 5 -20
-3 -26 -32 -21 -9 1 -12 -4 -7 -15 3 -9 9 -28 12 -41 5 -18 11 -23 28 -19 11
3 47 7 79 9 47 2 61 7 74 26 13 18 14 27 5 41 -7 10 -12 26 -12 34 0 8 -9 15
-20 15 -22 0 -27 -15 -7 -27 12 -8 -24 -19 -69 -22 -26 -1 -40 35 -17 43 24
10 33 7 27 -9 -9 -21 10 -19 31 5 12 13 31 20 57 20 21 0 38 5 38 10 0 6 -13
10 -29 10 -16 0 -31 6 -35 15 -8 22 -34 18 -38 -6z m42 -114 c0 -8 -9 -15 -20
-15 -13 0 -18 5 -14 15 4 8 12 15 20 15 8 0 14 -7 14 -15z m-102 -13 c2 -7 -3
-12 -12 -12 -9 0 -16 7 -16 16 0 17 22 14 28 -4z m42 3 c0 -8 -4 -15 -10 -15
-5 0 -10 7 -10 15 0 8 5 15 10 15 6 0 10 -7 10 -15z"/>
<path d="M715 1130 c-16 -4 -48 -8 -70 -9 -40 -1 -41 -2 -41 -36 0 -24 -8 -43
-27 -63 -51 -53 -25 -60 27 -7 19 19 38 30 41 25 10 -17 25 -11 25 10 0 11 -7
20 -15 20 -8 0 -15 6 -15 14 0 10 19 16 65 21 45 5 65 12 65 21 0 15 -9 16
-55 4z"/>
<path d="M718 859 c-2 -18 -10 -22 -39 -23 -25 -1 -36 3 -35 13 2 27 -24 22
-35 -6 -6 -15 -18 -36 -26 -46 -24 -26 -6 -34 21 -8 23 22 23 22 29 2 5 -20
-3 -26 -32 -21 -9 1 -12 -4 -7 -15 3 -9 9 -27 12 -40 5 -20 10 -23 40 -18 27
4 34 2 34 -11 0 -12 -10 -16 -38 -16 -37 0 -38 -1 -38 -35 0 -24 -8 -43 -27
-63 -51 -53 -25 -60 27 -7 19 19 38 30 41 25 10 -17 25 -11 25 10 0 11 -7 20
-15 20 -8 0 -15 7 -15 15 0 10 10 15 30 15 18 0 30 -5 30 -13 0 -20 68 -95
101 -112 39 -20 73 -20 65 1 -3 9 -6 27 -6 40 0 30 -16 32 -23 3 l-6 -22 -33
21 c-18 11 -43 35 -56 54 l-24 33 26 3 c15 2 26 10 26 18 0 12 -7 14 -30 9
-24 -5 -30 -3 -30 10 0 14 6 16 29 12 24 -5 32 -1 46 20 14 21 15 30 6 45 -6
10 -11 25 -11 33 0 8 -9 15 -20 15 -22 0 -27 -15 -7 -27 12 -8 -24 -19 -69
-22 -26 -1 -40 35 -17 43 24 10 33 7 27 -9 -9 -21 10 -19 31 5 12 13 31 20 57
20 21 0 38 5 38 10 0 6 -13 10 -29 10 -16 0 -31 6 -35 15 -8 22 -34 18 -38 -6z
m42 -114 c0 -8 -9 -15 -20 -15 -13 0 -18 5 -14 15 4 8 12 15 20 15 8 0 14 -7
14 -15z m-102 -13 c2 -7 -3 -12 -12 -12 -9 0 -16 7 -16 16 0 17 22 14 28 -4z
m42 3 c0 -8 -4 -15 -10 -15 -5 0 -10 7 -10 15 0 8 5 15 10 15 6 0 10 -7 10
-15z"/>
<path d="M718 409 c-2 -18 -10 -22 -39 -23 -25 -1 -36 3 -35 13 2 27 -24 22
-35 -6 -6 -15 -18 -36 -26 -46 -24 -26 -6 -34 21 -8 23 22 23 22 29 2 5 -20
-3 -26 -32 -21 -9 1 -12 -4 -7 -15 3 -9 9 -27 12 -40 5 -20 10 -23 40 -18 27
4 34 2 34 -11 0 -12 -10 -16 -38 -16 -37 0 -38 -1 -38 -35 0 -24 -8 -43 -27
-63 -51 -53 -25 -60 27 -7 19 19 38 30 41 25 10 -17 25 -11 25 10 0 11 -7 20
-15 20 -8 0 -15 7 -15 15 0 10 10 15 30 15 18 0 30 -5 30 -13 0 -20 68 -95
101 -112 39 -20 73 -20 65 1 -3 9 -6 27 -6 40 0 30 -16 32 -23 3 l-6 -22 -33
21 c-18 11 -43 35 -56 54 l-24 33 26 3 c15 2 26 10 26 18 0 12 -7 14 -30 9
-24 -5 -30 -3 -30 10 0 14 6 16 29 12 24 -5 32 -1 46 20 14 21 15 30 6 45 -6
10 -11 25 -11 33 0 8 -9 15 -20 15 -22 0 -27 -15 -7 -27 12 -8 -24 -19 -69
-22 -26 -1 -40 35 -17 43 24 10 33 7 27 -9 -9 -21 10 -19 31 5 12 13 31 20 57
20 21 0 38 5 38 10 0 6 -13 10 -29 10 -16 0 -31 6 -35 15 -8 22 -34 18 -38 -6z
m42 -114 c0 -8 -9 -15 -20 -15 -13 0 -18 5 -14 15 4 8 12 15 20 15 8 0 14 -7
14 -15z m-102 -13 c2 -7 -3 -12 -12 -12 -9 0 -16 7 -16 16 0 17 22 14 28 -4z
m42 3 c0 -8 -4 -15 -10 -15 -5 0 -10 7 -10 15 0 8 5 15 10 15 6 0 10 -7 10
-15z"/>
<path d="M780 253 c0 -11 33 -43 43 -43 4 0 7 9 7 20 0 11 -4 20 -9 20 -5 0
-16 3 -25 6 -9 3 -16 2 -16 -3z"/>
</g>
</svg>
