<?xml version="1.0" standalone="no"?>
<!DOCTYPE svg PUBLIC "-//W3C//DTD SVG 20010904//EN"
 "http://www.w3.org/TR/2001/REC-SVG-20010904/DTD/svg10.dtd">
<svg version="1.0" xmlns="http://www.w3.org/2000/svg"
 width="95.000000pt" height="725.000000pt" viewBox="0 0 95.000000 725.000000"
 preserveAspectRatio="xMidYMid meet">
<metadata>
Created by potrace 1.16, written by Peter Selinger 2001-2019
</metadata>
<g transform="translate(0.000000,725.000000) scale(0.100000,-0.100000)"
fill="#000000" stroke="none">
<path d="M290 7146 c0 -7 -10 -25 -21 -40 -28 -35 -16 -46 16 -16 20 19 35 24
66 21 31 -2 40 1 37 11 -3 8 -17 12 -36 10 -24 -2 -32 1 -32 12 0 9 -7 16 -15
16 -8 0 -15 -6 -15 -14z"/>
<path d="M156 7109 c-27 -43 -28 -62 -1 -39 13 10 19 10 33 -4 10 -9 24 -16
30 -16 21 0 13 19 -15 34 l-28 15 43 1 c23 0 42 5 42 10 0 6 -11 10 -25 10
-16 0 -25 6 -25 15 0 28 -26 15 -54 -26z"/>
<path d="M609 7113 c-31 -50 -32 -53 -21 -53 14 0 72 62 72 77 0 26 -28 12
-51 -24z"/>
<path d="M310 7091 c0 -12 29 -35 36 -28 11 10 -5 37 -21 37 -8 0 -15 -4 -15
-9z"/>
<path d="M263 7041 c-8 -23 -15 -28 -31 -24 -11 3 -23 11 -26 19 -9 24 -36 17
-33 -8 2 -19 -4 -24 -30 -26 -22 -2 -33 -9 -33 -19 0 -11 6 -14 25 -9 34 9 32
-11 -6 -63 -17 -24 -28 -46 -24 -49 7 -7 55 42 73 74 15 27 25 11 17 -25 -4
-18 -13 -31 -22 -31 -8 0 -13 -7 -11 -17 5 -30 32 -20 50 17 31 67 32 79 4 86
-27 6 -35 23 -13 25 36 4 67 5 67 1 0 -2 -5 -12 -11 -24 -13 -25 -5 -35 16
-18 17 14 31 8 20 -9 -3 -6 -17 -11 -31 -11 -13 0 -24 -4 -24 -10 0 -5 12 -10
28 -10 l27 -1 -33 -30 c-19 -17 -31 -33 -28 -36 11 -12 57 17 74 46 17 31 38
41 85 41 15 0 27 5 27 11 0 8 -15 10 -45 7 -34 -4 -45 -2 -45 8 0 8 11 16 25
20 41 10 29 26 -13 19 -29 -5 -42 -2 -52 9 -11 14 -8 16 23 16 42 0 67 8 67
22 0 6 -16 7 -39 3 -30 -5 -40 -3 -44 9 -9 24 -21 19 -34 -13z"/>
<path d="M340 6893 c1 -13 48 -63 60 -63 19 0 10 39 -12 54 -24 17 -48 21 -48
9z"/>
<path d="M606 6659 c-14 -23 -25 -44 -22 -46 6 -6 46 20 46 29 0 5 18 8 40 8
22 0 40 5 40 10 0 6 -11 10 -25 10 -16 0 -25 6 -25 15 0 28 -26 15 -54 -26z"/>
<path d="M606 6209 c-27 -43 -28 -62 -1 -39 13 10 19 10 33 -4 10 -9 24 -16
30 -16 21 0 13 19 -15 34 l-28 15 43 1 c23 0 42 5 42 10 0 6 -11 10 -25 10
-16 0 -25 6 -25 15 0 28 -26 15 -54 -26z"/>
<path d="M740 5796 c0 -7 -10 -25 -21 -40 -30 -38 -15 -45 21 -11 32 31 40 65
15 65 -8 0 -15 -6 -15 -14z"/>
<path d="M606 5759 c-27 -43 -28 -62 -1 -39 13 10 19 10 33 -4 10 -9 24 -16
30 -16 21 0 13 19 -15 34 l-28 15 43 1 c23 0 42 5 42 10 0 6 -11 10 -25 10
-16 0 -25 6 -25 15 0 28 -26 15 -54 -26z"/>
<path d="M740 5346 c0 -7 -10 -25 -21 -40 -28 -35 -16 -46 16 -16 20 19 35 24
66 21 31 -2 40 1 37 11 -3 8 -17 12 -36 10 -24 -2 -32 1 -32 12 0 9 -7 16 -15
16 -8 0 -15 -6 -15 -14z"/>
<path d="M606 5309 c-27 -43 -28 -62 -1 -39 13 10 19 10 33 -4 10 -9 24 -16
30 -16 21 0 13 19 -15 34 l-28 15 43 1 c23 0 42 5 42 10 0 6 -11 10 -25 10
-16 0 -25 6 -25 15 0 28 -26 15 -54 -26z"/>
<path d="M740 4896 c0 -7 -10 -25 -21 -40 -28 -35 -16 -46 16 -16 20 19 35 24
66 21 31 -2 40 1 37 11 -3 8 -17 12 -36 10 -24 -2 -32 1 -32 12 0 9 -7 16 -15
16 -8 0 -15 -6 -15 -14z"/>
<path d="M606 4859 c-27 -43 -28 -62 -1 -39 13 10 19 10 33 -4 10 -9 24 -16
30 -16 21 0 13 19 -15 34 l-28 15 43 1 c23 0 42 5 42 10 0 6 -11 10 -25 10
-16 0 -25 6 -25 15 0 28 -26 15 -54 -26z"/>
<path d="M760 4841 c0 -12 29 -35 36 -28 11 10 -5 37 -21 37 -8 0 -15 -4 -15
-9z"/>
<path d="M740 4446 c0 -7 -10 -25 -21 -40 -28 -35 -16 -46 16 -16 20 19 35 24
66 21 31 -2 40 1 37 11 -3 8 -17 12 -36 10 -24 -2 -32 1 -32 12 0 9 -7 16 -15
16 -8 0 -15 -6 -15 -14z"/>
<path d="M606 4409 c-27 -43 -28 -62 -1 -39 13 10 19 10 33 -4 10 -9 24 -16
30 -16 21 0 13 19 -15 34 l-28 15 43 1 c23 0 42 5 42 10 0 6 -11 10 -25 10
-16 0 -25 6 -25 15 0 28 -26 15 -54 -26z"/>
<path d="M760 4391 c0 -12 29 -35 36 -28 11 10 -5 37 -21 37 -8 0 -15 -4 -15
-9z"/>
<path d="M620 4345 c0 -14 21 -45 31 -45 18 0 5 45 -13 48 -10 2 -18 1 -18 -3z"/>
<path d="M740 3996 c0 -7 -10 -25 -21 -40 -28 -35 -16 -46 16 -16 20 19 35 24
66 21 31 -2 40 1 37 11 -3 8 -17 12 -36 10 -24 -2 -32 1 -32 12 0 9 -7 16 -15
16 -8 0 -15 -6 -15 -14z"/>
<path d="M606 3959 c-27 -43 -28 -62 -1 -39 13 10 19 10 33 -4 10 -9 24 -16
30 -16 21 0 13 19 -15 34 l-28 15 43 1 c23 0 42 5 42 10 0 6 -11 10 -25 10
-16 0 -25 6 -25 15 0 28 -26 15 -54 -26z"/>
<path d="M760 3941 c0 -12 29 -35 36 -28 11 10 -5 37 -21 37 -8 0 -15 -4 -15
-9z"/>
<path d="M623 3878 c2 -19 -4 -24 -30 -26 -21 -2 -33 -9 -33 -18 0 -16 7 -17
46 -5 16 5 41 12 57 15 28 7 38 26 13 26 -8 0 -16 7 -20 15 -9 24 -36 18 -33
-7z"/>
<path d="M740 3546 c0 -7 -10 -25 -21 -40 -28 -35 -16 -46 16 -16 20 19 35 24
66 21 31 -2 40 1 37 11 -3 8 -17 12 -36 10 -24 -2 -32 1 -32 12 0 9 -7 16 -15
16 -8 0 -15 -6 -15 -14z"/>
<path d="M606 3509 c-27 -43 -28 -62 -1 -39 13 10 19 10 33 -4 10 -9 24 -16
30 -16 21 0 13 19 -15 34 l-28 15 43 1 c23 0 42 5 42 10 0 6 -11 10 -25 10
-16 0 -25 6 -25 15 0 28 -26 15 -54 -26z"/>
<path d="M760 3491 c0 -12 29 -35 36 -28 11 10 -5 37 -21 37 -8 0 -15 -4 -15
-9z"/>
<path d="M623 3428 c2 -19 -4 -24 -30 -26 -21 -2 -33 -9 -33 -18 0 -16 7 -17
46 -5 16 5 41 12 57 15 28 7 38 26 13 26 -8 0 -16 7 -20 15 -9 24 -36 18 -33
-7z"/>
<path d="M630 3361 c0 -5 5 -11 11 -13 17 -6 1 -68 -17 -68 -16 0 -19 -26 -4
-35 17 -11 37 13 54 63 13 36 13 47 4 54 -18 11 -48 10 -48 -1z"/>
<path d="M740 3096 c0 -7 -10 -25 -21 -40 -28 -35 -16 -46 16 -16 20 19 35 24
66 21 31 -2 40 1 37 11 -3 8 -17 12 -36 10 -24 -2 -32 1 -32 12 0 9 -7 16 -15
16 -8 0 -15 -6 -15 -14z"/>
<path d="M606 3059 c-27 -43 -28 -62 -1 -39 13 10 19 10 33 -4 10 -9 24 -16
30 -16 21 0 13 19 -15 34 l-28 15 43 1 c23 0 42 5 42 10 0 6 -11 10 -25 10
-16 0 -25 6 -25 15 0 28 -26 15 -54 -26z"/>
<path d="M760 3041 c0 -12 29 -35 36 -28 11 10 -5 37 -21 37 -8 0 -15 -4 -15
-9z"/>
<path d="M623 2978 c2 -19 -4 -24 -30 -26 -22 -2 -33 -9 -33 -19 0 -11 6 -14
25 -9 34 9 32 -11 -6 -63 -17 -24 -28 -46 -24 -49 7 -7 55 42 73 74 15 27 25
11 17 -25 -4 -18 -13 -31 -22 -31 -8 0 -13 -7 -11 -17 5 -30 32 -20 50 17 31
67 32 79 4 86 -33 8 -33 20 -1 28 26 7 35 26 11 26 -8 0 -16 7 -20 15 -9 24
-36 18 -33 -7z"/>
<path d="M740 2646 c0 -7 -10 -25 -21 -40 -28 -35 -16 -46 16 -16 20 19 35 24
66 21 31 -2 40 1 37 11 -3 8 -17 12 -36 10 -24 -2 -32 1 -32 12 0 9 -7 16 -15
16 -8 0 -15 -6 -15 -14z"/>
<path d="M606 2609 c-27 -43 -28 -62 -1 -39 13 10 19 10 33 -4 10 -9 24 -16
30 -16 21 0 13 19 -15 34 l-28 15 43 1 c23 0 42 5 42 10 0 6 -11 10 -25 10
-16 0 -25 6 -25 15 0 28 -26 15 -54 -26z"/>
<path d="M760 2591 c0 -12 29 -35 36 -28 11 10 -5 37 -21 37 -8 0 -15 -4 -15
-9z"/>
<path d="M713 2541 c-8 -23 -15 -28 -31 -24 -11 3 -23 11 -26 19 -9 24 -36 17
-33 -8 2 -19 -4 -24 -30 -26 -22 -2 -33 -9 -33 -19 0 -11 6 -14 25 -9 34 9 32
-11 -6 -63 -17 -24 -28 -46 -24 -49 7 -7 55 42 73 74 15 27 25 11 17 -25 -4
-18 -13 -31 -22 -31 -8 0 -13 -7 -11 -17 5 -30 32 -20 50 17 31 67 32 79 4 86
-14 3 -26 10 -26 15 0 9 5 10 52 13 30 2 59 32 55 55 -4 26 -22 22 -34 -8z"/>
<path d="M740 2196 c0 -7 -10 -25 -21 -40 -28 -35 -16 -46 16 -16 20 19 35 24
66 21 31 -2 40 1 37 11 -3 8 -17 12 -36 10 -24 -2 -32 1 -32 12 0 9 -7 16 -15
16 -8 0 -15 -6 -15 -14z"/>
<path d="M606 2159 c-27 -43 -28 -62 -1 -39 13 10 19 10 33 -4 10 -9 24 -16
30 -16 21 0 13 19 -15 34 l-28 15 43 1 c23 0 42 5 42 10 0 6 -11 10 -25 10
-16 0 -25 6 -25 15 0 28 -26 15 -54 -26z"/>
<path d="M760 2141 c0 -12 29 -35 36 -28 11 10 -5 37 -21 37 -8 0 -15 -4 -15
-9z"/>
<path d="M713 2091 c-8 -23 -15 -28 -31 -24 -11 3 -23 11 -26 19 -9 24 -36 17
-33 -8 2 -19 -4 -24 -30 -26 -22 -2 -33 -9 -33 -19 0 -11 6 -14 25 -9 34 9 32
-11 -6 -63 -17 -24 -28 -46 -24 -49 7 -7 55 42 73 74 15 27 25 11 17 -25 -4
-18 -13 -31 -22 -31 -8 0 -13 -7 -11 -17 5 -30 32 -20 50 17 31 67 32 79 4 86
-14 3 -26 10 -26 15 0 9 5 10 54 13 16 1 31 7 34 14 2 7 19 12 37 12 40 0 65
8 65 22 0 6 -16 7 -39 3 -30 -5 -40 -3 -44 9 -9 24 -21 19 -34 -13z"/>
<path d="M740 1746 c0 -7 -10 -25 -21 -40 -28 -35 -16 -46 16 -16 20 19 35 24
66 21 31 -2 40 1 37 11 -3 8 -17 12 -36 10 -24 -2 -32 1 -32 12 0 9 -7 16 -15
16 -8 0 -15 -6 -15 -14z"/>
<path d="M606 1709 c-27 -43 -28 -62 -1 -39 13 10 19 10 33 -4 10 -9 24 -16
30 -16 21 0 13 19 -15 34 l-28 15 43 1 c23 0 42 5 42 10 0 6 -11 10 -25 10
-16 0 -25 6 -25 15 0 28 -26 15 -54 -26z"/>
<path d="M760 1691 c0 -12 29 -35 36 -28 11 10 -5 37 -21 37 -8 0 -15 -4 -15
-9z"/>
<path d="M713 1641 c-8 -23 -15 -28 -31 -24 -11 3 -23 11 -26 19 -9 24 -36 17
-33 -8 2 -19 -4 -24 -30 -26 -22 -2 -33 -9 -33 -19 0 -11 6 -14 25 -9 34 9 32
-11 -6 -63 -17 -24 -28 -46 -24 -49 7 -7 55 42 73 74 15 27 25 11 17 -25 -4
-18 -13 -31 -22 -31 -8 0 -13 -7 -11 -17 5 -30 32 -20 50 17 31 67 32 79 4 86
-27 6 -35 23 -13 25 49 5 67 4 63 -6 -16 -39 -17 -45 -7 -45 6 0 18 11 27 25
13 20 14 28 4 40 -11 13 -7 15 23 15 42 0 67 8 67 22 0 6 -16 7 -39 3 -30 -5
-40 -3 -44 9 -9 24 -21 19 -34 -13z"/>
<path d="M740 1296 c0 -7 -10 -25 -21 -40 -28 -35 -16 -46 16 -16 20 19 35 24
66 21 31 -2 40 1 37 11 -3 8 -17 12 -36 10 -24 -2 -32 1 -32 12 0 9 -7 16 -15
16 -8 0 -15 -6 -15 -14z"/>
<path d="M606 1259 c-27 -43 -28 -62 -1 -39 13 10 19 10 33 -4 10 -9 24 -16
30 -16 21 0 13 19 -15 34 l-28 15 43 1 c23 0 42 5 42 10 0 6 -11 10 -25 10
-16 0 -25 6 -25 15 0 28 -26 15 -54 -26z"/>
<path d="M760 1241 c0 -12 29 -35 36 -28 11 10 -5 37 -21 37 -8 0 -15 -4 -15
-9z"/>
<path d="M713 1191 c-8 -23 -15 -28 -31 -24 -11 3 -23 11 -26 19 -9 24 -36 17
-33 -8 2 -19 -4 -24 -30 -26 -22 -2 -33 -9 -33 -19 0 -11 6 -14 25 -9 34 9 32
-11 -6 -63 -17 -24 -28 -46 -24 -49 7 -7 55 42 73 74 15 27 25 11 17 -25 -4
-18 -13 -31 -22 -31 -8 0 -13 -7 -11 -17 5 -30 32 -20 50 17 31 67 32 79 4 86
-27 6 -35 23 -13 25 49 5 67 4 63 -6 -16 -38 -17 -45 -8 -45 5 0 15 7 22 15 7
8 22 15 34 15 33 0 66 11 66 22 0 6 -16 7 -38 3 -29 -5 -42 -2 -52 9 -11 14
-8 16 23 16 42 0 67 8 67 22 0 6 -16 7 -39 3 -30 -5 -40 -3 -44 9 -9 24 -21
19 -34 -13z"/>
<path d="M740 846 c0 -7 -10 -25 -21 -40 -28 -35 -16 -46 16 -16 20 19 35 24
66 21 31 -2 40 1 37 11 -3 8 -17 12 -36 10 -24 -2 -32 1 -32 12 0 9 -7 16 -15
16 -8 0 -15 -6 -15 -14z"/>
<path d="M606 809 c-27 -43 -28 -62 -1 -39 13 10 19 10 33 -4 10 -9 24 -16 30
-16 21 0 13 19 -15 34 l-28 15 43 1 c23 0 42 5 42 10 0 6 -11 10 -25 10 -16 0
-25 6 -25 15 0 28 -26 15 -54 -26z"/>
<path d="M760 791 c0 -12 29 -35 36 -28 11 10 -5 37 -21 37 -8 0 -15 -4 -15
-9z"/>
<path d="M713 741 c-8 -23 -15 -28 -31 -24 -11 3 -23 11 -26 19 -9 24 -36 17
-33 -8 2 -19 -4 -24 -30 -26 -22 -2 -33 -9 -33 -19 0 -11 6 -14 25 -9 34 9 32
-11 -6 -63 -17 -24 -28 -46 -24 -49 7 -7 55 42 73 74 15 27 25 11 17 -25 -4
-18 -13 -31 -22 -31 -8 0 -13 -7 -11 -17 5 -30 32 -20 50 17 31 67 32 79 4 86
-27 6 -35 23 -13 25 49 5 67 4 63 -6 -16 -38 -17 -45 -8 -45 5 0 15 7 22 15 7
8 22 15 34 15 33 0 66 11 66 22 0 6 -16 7 -38 3 -29 -5 -42 -2 -52 9 -11 14
-8 16 23 16 42 0 67 8 67 22 0 6 -16 7 -39 3 -30 -5 -40 -3 -44 9 -9 24 -21
19 -34 -13z"/>
<path d="M748 638 c-32 -6 -58 -15 -58 -20 0 -7 15 -8 38 -4 20 3 61 9 90 12
28 4 52 11 52 15 0 11 -47 10 -122 -3z"/>
<path d="M740 396 c0 -7 -10 -25 -21 -40 -28 -35 -16 -46 16 -16 20 19 35 24
66 21 31 -2 40 1 37 11 -3 8 -17 12 -36 10 -24 -2 -32 1 -32 12 0 9 -7 16 -15
16 -8 0 -15 -6 -15 -14z"/>
<path d="M606 359 c-27 -43 -28 -62 -1 -39 13 10 19 10 33 -4 10 -9 24 -16 30
-16 21 0 13 19 -15 34 l-28 15 43 1 c23 0 42 5 42 10 0 6 -11 10 -25 10 -16 0
-25 6 -25 15 0 28 -26 15 -54 -26z"/>
<path d="M760 341 c0 -12 29 -35 36 -28 11 10 -5 37 -21 37 -8 0 -15 -4 -15
-9z"/>
<path d="M713 291 c-8 -23 -15 -28 -31 -24 -11 3 -23 11 -26 19 -9 24 -36 17
-33 -8 2 -19 -4 -24 -30 -26 -22 -2 -33 -9 -33 -19 0 -11 6 -14 25 -9 34 9 32
-11 -6 -63 -17 -24 -28 -46 -24 -49 7 -7 55 42 73 74 15 27 25 11 17 -25 -4
-18 -13 -31 -22 -31 -8 0 -13 -7 -11 -17 5 -30 32 -20 50 17 31 67 32 79 4 86
-27 6 -35 23 -13 25 36 4 67 5 67 1 0 -2 -5 -12 -11 -24 -13 -25 -5 -35 16
-18 17 14 31 8 20 -9 -3 -6 -17 -11 -31 -11 -13 0 -24 -4 -24 -10 0 -5 12 -10
28 -10 l27 -1 -33 -30 c-19 -17 -31 -33 -28 -36 11 -12 57 17 74 46 17 31 38
41 85 41 15 0 27 5 27 11 0 8 -15 10 -45 7 -34 -4 -45 -2 -45 8 0 8 11 16 25
20 41 10 29 26 -13 19 -29 -5 -42 -2 -52 9 -11 14 -8 16 23 16 42 0 67 8 67
22 0 6 -16 7 -39 3 -30 -5 -40 -3 -44 9 -9 24 -21 19 -34 -13z"/>
</g>
</svg>
