<?xml version="1.0" standalone="no"?>
<!DOCTYPE svg PUBLIC "-//W3C//DTD SVG 20010904//EN"
 "http://www.w3.org/TR/2001/REC-SVG-20010904/DTD/svg10.dtd">
<svg version="1.0" xmlns="http://www.w3.org/2000/svg"
 width="95.000000pt" height="725.000000pt" viewBox="0 0 95.000000 725.000000"
 preserveAspectRatio="xMidYMid meet">
<metadata>
Created by potrace 1.16, written by Peter Selinger 2001-2019
</metadata>
<g transform="translate(0.000000,725.000000) scale(0.100000,-0.100000)"
fill="#000000" stroke="none">
<path d="M280 7165 c0 -9 -7 -30 -16 -46 -20 -40 -9 -50 19 -17 15 18 36 29
65 33 23 4 42 11 42 17 0 6 -14 8 -34 5 -25 -4 -36 -1 -40 9 -7 19 -36 18 -36
-1z"/>
<path d="M170 7157 c0 -7 -11 -29 -25 -50 -20 -29 -24 -41 -15 -56 13 -25 13
-115 -1 -165 -8 -28 -8 -41 1 -50 17 -17 30 12 30 71 0 31 5 54 13 57 10 5 10
7 0 12 -20 9 -15 24 7 24 13 0 18 -5 14 -15 -4 -9 0 -15 10 -15 9 0 16 6 16
14 0 7 3 28 6 46 7 31 6 32 -27 30 -61 -4 -64 -2 -44 20 16 18 20 19 35 5 21
-19 30 -19 30 0 0 9 -10 20 -22 25 -25 10 -17 13 25 10 15 -1 27 3 27 9 0 6
-11 11 -24 11 -13 0 -26 7 -30 15 -7 18 -26 20 -26 2z m30 -127 c0 -5 -9 -10
-21 -10 -11 0 -17 5 -14 10 3 6 13 10 21 10 8 0 14 -4 14 -10z"/>
<path d="M620 7158 c0 -7 -12 -31 -26 -51 -14 -21 -23 -42 -19 -45 10 -10 76
69 73 87 -4 19 -28 27 -28 9z"/>
<path d="M312 7108 c7 -19 38 -22 38 -4 0 10 -9 16 -21 16 -12 0 -19 -5 -17
-12z"/>
<path d="M297 7073 c-21 -3 -27 -9 -23 -20 3 -8 6 -30 6 -48 0 -33 0 -33 40
-28 45 6 45 5 34 -79 -5 -38 -9 -45 -25 -41 -25 7 -24 -9 1 -32 24 -22 50 -13
51 17 0 13 1 71 2 131 l3 107 -31 -1 c-16 -1 -43 -4 -58 -6z m58 -23 c3 -5 -3
-10 -14 -10 -12 0 -21 -4 -21 -10 0 -5 9 -10 21 -10 11 0 17 -4 14 -10 -3 -5
-16 -10 -28 -10 -17 0 -23 6 -23 23 0 32 36 51 51 27z"/>
<path d="M245 6961 c-11 -5 -26 -6 -32 -4 -9 4 -13 -9 -13 -46 0 -49 18 -74
22 -28 0 12 1 29 2 37 1 9 12 16 26 17 14 1 18 0 8 -3 -22 -7 -24 -24 -3 -24
11 0 14 -7 9 -25 -5 -18 -2 -25 9 -25 11 0 16 14 19 48 5 57 -5 69 -47 53z"/>
<path d="M280 6715 c0 -9 -7 -30 -16 -46 -20 -40 -9 -50 19 -17 15 18 36 29
65 33 23 4 42 11 42 17 0 6 -14 8 -34 5 -25 -4 -36 -1 -40 9 -7 19 -36 18 -36
-1z"/>
<path d="M170 6707 c0 -7 -11 -29 -25 -50 -20 -29 -24 -41 -15 -56 13 -25 13
-115 -1 -165 -8 -28 -8 -41 1 -50 17 -17 30 12 30 71 0 31 5 54 13 57 10 5 10
7 0 12 -20 9 -15 24 7 24 13 0 18 -5 14 -15 -4 -9 0 -15 10 -15 9 0 16 6 16
14 0 7 3 28 6 46 7 31 6 32 -27 30 -61 -4 -64 -2 -44 20 16 18 20 19 35 5 21
-19 30 -19 30 0 0 9 -10 20 -22 25 -25 10 -17 13 25 10 15 -1 27 3 27 9 0 6
-11 11 -24 11 -13 0 -26 7 -30 15 -7 18 -26 20 -26 2z m30 -127 c0 -5 -9 -10
-21 -10 -11 0 -17 5 -14 10 3 6 13 10 21 10 8 0 14 -4 14 -10z"/>
<path d="M620 6707 c0 -7 -12 -30 -26 -50 -34 -50 -21 -62 19 -17 23 26 37 34
59 31 15 -1 28 2 28 8 0 6 -11 11 -24 11 -13 0 -26 7 -30 15 -7 18 -26 20 -26
2z"/>
<path d="M312 6658 c7 -19 38 -22 38 -4 0 10 -9 16 -21 16 -12 0 -19 -5 -17
-12z"/>
<path d="M297 6623 c-21 -3 -27 -9 -23 -20 3 -8 6 -30 6 -48 0 -33 0 -33 40
-28 45 6 45 5 34 -79 -5 -38 -9 -45 -25 -41 -25 7 -24 -9 1 -32 24 -22 50 -13
51 17 0 13 1 71 2 131 l3 107 -31 -1 c-16 -1 -43 -4 -58 -6z m58 -23 c3 -5 -3
-10 -14 -10 -12 0 -21 -4 -21 -10 0 -5 9 -10 21 -10 11 0 17 -4 14 -10 -3 -5
-16 -10 -28 -10 -17 0 -23 6 -23 23 0 32 36 51 51 27z"/>
<path d="M245 6511 c-11 -5 -26 -6 -32 -4 -9 4 -13 -9 -13 -43 l0 -49 44 -1
44 -1 4 46 c5 56 -6 68 -47 52z m13 -28 c-22 -5 -24 -23 -3 -23 8 0 15 -4 15
-10 0 -5 -10 -10 -23 -10 -19 0 -23 5 -21 23 1 12 3 23 3 25 1 1 11 1 24 1 16
-1 18 -2 5 -6z"/>
<path d="M620 6257 c0 -7 -12 -30 -26 -50 -30 -45 -25 -60 10 -28 20 19 24 20
36 6 16 -19 30 -19 30 0 0 9 -10 20 -22 25 -25 10 -17 13 25 10 15 -1 27 3 27
9 0 6 -11 11 -24 11 -13 0 -26 7 -30 15 -7 18 -26 20 -26 2z"/>
<path d="M724 5798 c-6 -18 -14 -41 -19 -50 -4 -10 -3 -18 3 -18 14 0 64 79
57 90 -12 20 -30 9 -41 -22z"/>
<path d="M620 5807 c0 -7 -12 -30 -26 -50 -30 -45 -25 -60 10 -28 20 19 24 20
36 6 16 -19 30 -19 30 0 0 9 -10 20 -22 25 -25 10 -17 13 25 10 15 -1 27 3 27
9 0 6 -11 11 -24 11 -13 0 -26 7 -30 15 -7 18 -26 20 -26 2z"/>
<path d="M730 5365 c0 -9 -7 -30 -16 -46 -20 -40 -9 -50 19 -17 15 18 36 29
65 33 23 4 42 11 42 17 0 6 -14 8 -34 5 -25 -4 -36 -1 -40 9 -7 19 -36 18 -36
-1z"/>
<path d="M620 5357 c0 -7 -12 -30 -26 -50 -30 -45 -25 -60 10 -28 20 19 24 20
36 6 16 -19 30 -19 30 0 0 9 -10 20 -22 25 -25 10 -17 13 25 10 15 -1 27 3 27
9 0 6 -11 11 -24 11 -13 0 -26 7 -30 15 -7 18 -26 20 -26 2z"/>
<path d="M730 4915 c0 -9 -7 -30 -16 -46 -20 -40 -9 -50 19 -17 15 18 36 29
65 33 23 4 42 11 42 17 0 6 -14 8 -34 5 -25 -4 -36 -1 -40 9 -7 19 -36 18 -36
-1z"/>
<path d="M620 4907 c0 -7 -12 -30 -26 -50 -30 -45 -25 -60 10 -28 20 19 24 20
36 6 16 -19 30 -19 30 0 0 9 -10 20 -22 25 -25 10 -17 13 25 10 15 -1 27 3 27
9 0 6 -11 11 -24 11 -13 0 -26 7 -30 15 -7 18 -26 20 -26 2z"/>
<path d="M762 4858 c7 -19 38 -22 38 -4 0 10 -9 16 -21 16 -12 0 -19 -5 -17
-12z"/>
<path d="M730 4465 c0 -9 -7 -30 -16 -46 -20 -40 -9 -50 19 -17 15 18 36 29
65 33 23 4 42 11 42 17 0 6 -14 8 -34 5 -25 -4 -36 -1 -40 9 -7 19 -36 18 -36
-1z"/>
<path d="M620 4457 c0 -7 -11 -29 -25 -50 -20 -29 -24 -41 -15 -56 13 -25 13
-115 -1 -165 -8 -28 -8 -41 1 -50 21 -21 30 16 30 122 0 70 -4 102 -12 102 -6
0 -3 9 7 20 16 18 20 19 35 5 21 -19 30 -19 30 0 0 9 -10 20 -22 25 -25 10
-17 13 25 10 15 -1 27 3 27 9 0 6 -11 11 -24 11 -13 0 -26 7 -30 15 -7 18 -26
20 -26 2z"/>
<path d="M762 4408 c7 -19 38 -22 38 -4 0 10 -9 16 -21 16 -12 0 -19 -5 -17
-12z"/>
<path d="M730 4015 c0 -9 -7 -30 -16 -46 -20 -40 -9 -50 19 -17 15 18 36 29
65 33 23 4 42 11 42 17 0 6 -14 8 -34 5 -25 -4 -36 -1 -40 9 -7 19 -36 18 -36
-1z"/>
<path d="M620 4007 c0 -7 -11 -29 -25 -50 -20 -29 -24 -41 -15 -56 13 -25 13
-115 -1 -165 -7 -27 -7 -42 0 -49 19 -19 26 3 31 101 4 82 8 97 23 100 14 3
17 -4 17 -32 0 -20 5 -36 10 -36 6 0 10 6 10 14 0 7 3 28 6 46 7 31 6 32 -27
30 -61 -4 -64 -2 -44 20 16 18 20 19 35 5 21 -19 30 -19 30 0 0 9 -10 20 -22
25 -25 10 -17 13 25 10 15 -1 27 3 27 9 0 6 -11 11 -24 11 -13 0 -26 7 -30 15
-7 18 -26 20 -26 2z"/>
<path d="M762 3958 c7 -19 38 -22 38 -4 0 10 -9 16 -21 16 -12 0 -19 -5 -17
-12z"/>
<path d="M730 3565 c0 -9 -7 -30 -16 -46 -20 -40 -9 -50 19 -17 15 18 36 29
65 33 23 4 42 11 42 17 0 6 -14 8 -34 5 -25 -4 -36 -1 -40 9 -7 19 -36 18 -36
-1z"/>
<path d="M620 3557 c0 -7 -11 -29 -25 -50 -20 -29 -24 -41 -15 -56 13 -25 13
-115 -1 -165 -8 -28 -8 -41 1 -50 19 -19 30 14 30 92 0 65 2 72 20 72 11 0 20
-7 20 -15 0 -8 5 -15 10 -15 6 0 10 6 10 14 0 7 3 28 6 46 7 31 6 32 -27 30
-61 -4 -64 -2 -44 20 16 18 20 19 35 5 21 -19 30 -19 30 0 0 9 -10 20 -22 25
-25 10 -17 13 25 10 15 -1 27 3 27 9 0 6 -11 11 -24 11 -13 0 -26 7 -30 15 -7
18 -26 20 -26 2z m30 -127 c0 -5 -9 -10 -21 -10 -11 0 -17 5 -14 10 3 6 13 10
21 10 8 0 14 -4 14 -10z"/>
<path d="M762 3508 c7 -19 38 -22 38 -4 0 10 -9 16 -21 16 -12 0 -19 -5 -17
-12z"/>
<path d="M730 3115 c0 -9 -7 -30 -16 -46 -20 -40 -9 -50 19 -17 15 18 36 29
65 33 23 4 42 11 42 17 0 6 -14 8 -34 5 -25 -4 -36 -1 -40 9 -7 19 -36 18 -36
-1z"/>
<path d="M620 3107 c0 -7 -11 -29 -25 -50 -20 -29 -24 -41 -15 -56 13 -25 13
-115 -1 -165 -8 -28 -8 -41 1 -50 17 -17 30 12 30 71 0 31 5 54 13 57 10 5 10
7 0 12 -20 9 -15 24 7 24 13 0 18 -5 14 -15 -4 -9 0 -15 10 -15 9 0 16 6 16
14 0 7 3 28 6 46 7 31 6 32 -27 30 -61 -4 -64 -2 -44 20 16 18 20 19 35 5 21
-19 30 -19 30 0 0 9 -10 20 -22 25 -25 10 -17 13 25 10 15 -1 27 3 27 9 0 6
-11 11 -24 11 -13 0 -26 7 -30 15 -7 18 -26 20 -26 2z m30 -127 c0 -5 -9 -10
-21 -10 -11 0 -17 5 -14 10 3 6 13 10 21 10 8 0 14 -4 14 -10z"/>
<path d="M762 3058 c7 -19 38 -22 38 -4 0 10 -9 16 -21 16 -12 0 -19 -5 -17
-12z"/>
<path d="M730 2665 c0 -9 -7 -30 -16 -46 -20 -40 -9 -50 19 -17 15 18 36 29
65 33 23 4 42 11 42 17 0 6 -14 8 -34 5 -25 -4 -36 -1 -40 9 -7 19 -36 18 -36
-1z"/>
<path d="M620 2657 c0 -7 -11 -29 -25 -50 -20 -29 -24 -41 -15 -56 13 -25 13
-115 -1 -165 -8 -28 -8 -41 1 -50 17 -17 30 12 30 71 0 31 5 54 13 57 10 5 10
7 0 12 -20 9 -15 24 7 24 13 0 18 -5 14 -15 -4 -9 0 -15 10 -15 9 0 16 6 16
14 0 7 3 28 6 46 7 31 6 32 -27 30 -61 -4 -64 -2 -44 20 16 18 20 19 35 5 21
-19 30 -19 30 0 0 9 -10 20 -22 25 -25 10 -17 13 25 10 15 -1 27 3 27 9 0 6
-11 11 -24 11 -13 0 -26 7 -30 15 -7 18 -26 20 -26 2z m30 -127 c0 -5 -9 -10
-21 -10 -11 0 -17 5 -14 10 3 6 13 10 21 10 8 0 14 -4 14 -10z"/>
<path d="M762 2608 c7 -19 38 -22 38 -4 0 10 -9 16 -21 16 -12 0 -19 -5 -17
-12z"/>
<path d="M724 2554 c3 -9 6 -31 6 -50 0 -19 5 -34 10 -34 6 0 10 23 10 50 0
39 -3 50 -16 50 -11 0 -14 -5 -10 -16z"/>
<path d="M730 2215 c0 -9 -7 -30 -16 -46 -20 -40 -9 -50 19 -17 15 18 36 29
65 33 23 4 42 11 42 17 0 6 -14 8 -34 5 -25 -4 -36 -1 -40 9 -7 19 -36 18 -36
-1z"/>
<path d="M620 2207 c0 -7 -11 -29 -25 -50 -20 -29 -24 -41 -15 -56 13 -25 13
-115 -1 -165 -8 -28 -8 -41 1 -50 17 -17 30 12 30 71 0 31 5 54 13 57 10 5 10
7 0 12 -20 9 -15 24 7 24 13 0 18 -5 14 -15 -4 -9 0 -15 10 -15 9 0 16 6 16
14 0 7 3 28 6 46 7 31 6 32 -27 30 -61 -4 -64 -2 -44 20 16 18 20 19 35 5 21
-19 30 -19 30 0 0 9 -10 20 -22 25 -25 10 -17 13 25 10 15 -1 27 3 27 9 0 6
-11 11 -24 11 -13 0 -26 7 -30 15 -7 18 -26 20 -26 2z m30 -127 c0 -5 -9 -10
-21 -10 -11 0 -17 5 -14 10 3 6 13 10 21 10 8 0 14 -4 14 -10z"/>
<path d="M762 2158 c7 -19 38 -22 38 -4 0 10 -9 16 -21 16 -12 0 -19 -5 -17
-12z"/>
<path d="M747 2123 c-21 -3 -27 -9 -23 -20 3 -8 6 -30 6 -49 0 -19 5 -34 10
-34 6 0 10 18 10 39 0 31 4 41 20 46 11 3 24 3 30 0 11 -7 13 -89 4 -157 -5
-38 -9 -45 -25 -41 -25 7 -24 -9 1 -32 24 -22 50 -13 51 17 0 13 1 71 2 131
l3 107 -31 -1 c-16 -1 -43 -4 -58 -6z"/>
<path d="M730 1765 c0 -9 -7 -30 -16 -46 -20 -40 -9 -50 19 -17 15 18 36 29
65 33 23 4 42 11 42 17 0 6 -14 8 -34 5 -25 -4 -36 -1 -40 9 -7 19 -36 18 -36
-1z"/>
<path d="M620 1757 c0 -7 -11 -29 -25 -50 -20 -29 -24 -41 -15 -56 13 -25 13
-115 -1 -165 -8 -28 -8 -41 1 -50 17 -17 30 12 30 71 0 31 5 54 13 57 10 5 10
7 0 12 -20 9 -15 24 7 24 13 0 18 -5 14 -15 -4 -9 0 -15 10 -15 9 0 16 6 16
14 0 7 3 28 6 46 7 31 6 32 -27 30 -61 -4 -64 -2 -44 20 16 18 20 19 35 5 21
-19 30 -19 30 0 0 9 -10 20 -22 25 -25 10 -17 13 25 10 15 -1 27 3 27 9 0 6
-11 11 -24 11 -13 0 -26 7 -30 15 -7 18 -26 20 -26 2z m30 -127 c0 -5 -9 -10
-21 -10 -11 0 -17 5 -14 10 3 6 13 10 21 10 8 0 14 -4 14 -10z"/>
<path d="M762 1708 c7 -19 38 -22 38 -4 0 10 -9 16 -21 16 -12 0 -19 -5 -17
-12z"/>
<path d="M749 1673 c-25 -4 -26 -6 -21 -51 2 -26 6 -49 8 -51 9 -10 16 10 17
43 1 38 29 58 50 37 8 -8 5 -11 -11 -11 -12 0 -22 -4 -22 -10 0 -5 9 -10 20
-10 17 0 20 -7 20 -39 0 -21 -3 -59 -6 -83 -5 -38 -9 -45 -25 -41 -25 7 -24
-9 1 -32 24 -22 50 -13 51 17 0 13 1 71 2 131 l3 107 -31 -1 c-16 -1 -42 -4
-56 -6z"/>
<path d="M730 1315 c0 -9 -7 -30 -16 -46 -20 -40 -9 -50 19 -17 15 18 36 29
65 33 23 4 42 11 42 17 0 6 -14 8 -34 5 -25 -4 -36 -1 -40 9 -7 19 -36 18 -36
-1z"/>
<path d="M620 1307 c0 -7 -11 -29 -25 -50 -20 -29 -24 -41 -15 -56 13 -25 13
-115 -1 -165 -8 -28 -8 -41 1 -50 17 -17 30 12 30 71 0 31 5 54 13 57 10 5 10
7 0 12 -20 9 -15 24 7 24 13 0 18 -5 14 -15 -4 -9 0 -15 10 -15 9 0 16 6 16
14 0 7 3 28 6 46 7 31 6 32 -27 30 -61 -4 -64 -2 -44 20 16 18 20 19 35 5 21
-19 30 -19 30 0 0 9 -10 20 -22 25 -25 10 -17 13 25 10 15 -1 27 3 27 9 0 6
-11 11 -24 11 -13 0 -26 7 -30 15 -7 18 -26 20 -26 2z m30 -127 c0 -5 -9 -10
-21 -10 -11 0 -17 5 -14 10 3 6 13 10 21 10 8 0 14 -4 14 -10z"/>
<path d="M762 1258 c7 -19 38 -22 38 -4 0 10 -9 16 -21 16 -12 0 -19 -5 -17
-12z"/>
<path d="M747 1223 c-21 -3 -27 -9 -23 -20 3 -8 6 -30 6 -48 0 -33 0 -33 40
-28 45 6 45 5 34 -79 -5 -38 -9 -45 -25 -41 -25 7 -24 -9 1 -32 24 -22 50 -13
51 17 0 13 1 71 2 131 l3 107 -31 -1 c-16 -1 -43 -4 -58 -6z m58 -23 c3 -5 -3
-10 -14 -10 -12 0 -21 -4 -21 -10 0 -5 9 -10 21 -10 11 0 17 -4 14 -10 -3 -5
-16 -10 -28 -10 -17 0 -23 6 -23 23 0 32 36 51 51 27z"/>
<path d="M730 865 c0 -9 -7 -30 -16 -46 -20 -40 -9 -50 19 -17 15 18 36 29 65
33 23 4 42 11 42 17 0 6 -14 8 -34 5 -25 -4 -36 -1 -40 9 -7 19 -36 18 -36 -1z"/>
<path d="M620 857 c0 -7 -11 -29 -25 -50 -20 -29 -24 -41 -15 -56 13 -25 13
-115 -1 -165 -8 -28 -8 -41 1 -50 17 -17 30 12 30 71 0 31 5 54 13 57 10 5 10
7 0 12 -20 9 -15 24 7 24 13 0 18 -5 14 -15 -4 -9 0 -15 10 -15 9 0 16 6 16
14 0 7 3 28 6 46 7 31 6 32 -27 30 -61 -4 -64 -2 -44 20 16 18 20 19 35 5 21
-19 30 -19 30 0 0 9 -10 20 -22 25 -25 10 -17 13 25 10 15 -1 27 3 27 9 0 6
-11 11 -24 11 -13 0 -26 7 -30 15 -7 18 -26 20 -26 2z m30 -127 c0 -5 -9 -10
-21 -10 -11 0 -17 5 -14 10 3 6 13 10 21 10 8 0 14 -4 14 -10z"/>
<path d="M762 808 c7 -19 38 -22 38 -4 0 10 -9 16 -21 16 -12 0 -19 -5 -17
-12z"/>
<path d="M747 773 c-21 -3 -27 -9 -23 -20 3 -8 6 -30 6 -48 0 -33 0 -33 40
-28 45 6 45 5 34 -79 -5 -38 -9 -45 -25 -41 -25 7 -24 -9 1 -32 24 -22 50 -13
51 17 0 13 1 71 2 131 l3 107 -31 -1 c-16 -1 -43 -4 -58 -6z m58 -23 c3 -5 -3
-10 -14 -10 -12 0 -21 -4 -21 -10 0 -5 9 -10 21 -10 11 0 17 -4 14 -10 -3 -5
-16 -10 -28 -10 -17 0 -23 6 -23 23 0 32 36 51 51 27z"/>
<path d="M650 610 c0 -27 5 -50 10 -50 6 0 10 23 10 50 0 28 -4 50 -10 50 -5
0 -10 -22 -10 -50z"/>
<path d="M730 415 c0 -9 -7 -30 -16 -46 -20 -40 -9 -50 19 -17 15 18 36 29 65
33 23 4 42 11 42 17 0 6 -14 8 -34 5 -25 -4 -36 -1 -40 9 -7 19 -36 18 -36 -1z"/>
<path d="M620 407 c0 -7 -11 -29 -25 -50 -20 -29 -24 -41 -15 -56 13 -25 13
-115 -1 -165 -8 -28 -8 -41 1 -50 17 -17 30 12 30 71 0 31 5 54 13 57 10 5 10
7 0 12 -20 9 -15 24 7 24 13 0 18 -5 14 -15 -4 -9 0 -15 10 -15 9 0 16 6 16
14 0 7 3 28 6 46 7 31 6 32 -27 30 -61 -4 -64 -2 -44 20 16 18 20 19 35 5 21
-19 30 -19 30 0 0 9 -10 20 -22 25 -25 10 -17 13 25 10 15 -1 27 3 27 9 0 6
-11 11 -24 11 -13 0 -26 7 -30 15 -7 18 -26 20 -26 2z m30 -127 c0 -5 -9 -10
-21 -10 -11 0 -17 5 -14 10 3 6 13 10 21 10 8 0 14 -4 14 -10z"/>
<path d="M762 358 c7 -19 38 -22 38 -4 0 10 -9 16 -21 16 -12 0 -19 -5 -17
-12z"/>
<path d="M747 323 c-21 -3 -27 -9 -23 -20 3 -8 6 -30 6 -48 0 -33 0 -33 40
-28 45 6 45 5 34 -79 -5 -38 -9 -45 -25 -41 -25 7 -24 -9 1 -32 24 -22 50 -13
51 17 0 13 1 71 2 131 l3 107 -31 -1 c-16 -1 -43 -4 -58 -6z m58 -23 c3 -5 -3
-10 -14 -10 -12 0 -21 -4 -21 -10 0 -5 9 -10 21 -10 11 0 17 -4 14 -10 -3 -5
-16 -10 -28 -10 -17 0 -23 6 -23 23 0 32 36 51 51 27z"/>
<path d="M695 211 c-11 -5 -26 -6 -32 -4 -9 4 -13 -9 -13 -46 0 -59 17 -69 22
-13 2 30 7 38 27 40 23 4 24 2 17 -37 -5 -32 -3 -41 8 -41 17 0 28 91 12 102
-13 9 -15 9 -41 -1z"/>
</g>
</svg>
