<?xml version="1.0" standalone="no"?>
<!DOCTYPE svg PUBLIC "-//W3C//DTD SVG 20010904//EN"
 "http://www.w3.org/TR/2001/REC-SVG-20010904/DTD/svg10.dtd">
<svg version="1.0" xmlns="http://www.w3.org/2000/svg"
 width="95.000000pt" height="725.000000pt" viewBox="0 0 95.000000 725.000000"
 preserveAspectRatio="xMidYMid meet">
<metadata>
Created by potrace 1.16, written by Peter Selinger 2001-2019
</metadata>
<g transform="translate(0.000000,725.000000) scale(0.100000,-0.100000)"
fill="#000000" stroke="none">
<path d="M271 7144 c-24 -41 -21 -56 7 -31 10 10 30 17 44 17 34 0 58 9 58 22
0 6 -13 8 -30 6 -18 -3 -31 0 -34 9 -9 22 -23 15 -45 -23z"/>
<path d="M170 7161 c0 -5 -12 -24 -26 -41 -31 -36 -26 -49 8 -26 27 18 38 13
38 -16 0 -11 -7 -18 -20 -18 -11 0 -20 -4 -20 -10 0 -5 11 -10 25 -10 14 0 28
-7 31 -15 9 -24 37 -19 29 5 -5 16 -2 20 17 19 13 0 17 -3 11 -6 -20 -8 -15
-23 7 -23 11 0 20 6 20 14 0 8 10 16 22 18 31 4 32 21 1 36 -35 16 -43 15 -43
-4 0 -11 -8 -14 -27 -12 -20 2 -27 9 -28 27 -1 16 4 25 17 29 28 7 22 25 -7
20 -17 -4 -25 -1 -25 8 0 8 -7 14 -15 14 -8 0 -15 -4 -15 -9z"/>
<path d="M615 7151 c-3 -10 -14 -26 -25 -36 -21 -19 -26 -35 -11 -35 16 0 71
58 71 74 0 22 -27 20 -35 -3z"/>
<path d="M312 7108 c7 -19 38 -22 38 -4 0 10 -9 16 -21 16 -12 0 -19 -5 -17
-12z"/>
<path d="M237 7005 c-76 -7 -141 -16 -144 -19 -15 -15 13 -17 113 -7 59 6 131
11 161 11 29 0 53 4 53 9 0 9 -26 22 -38 20 -4 -1 -69 -7 -145 -14z"/>
<path d="M280 6970 c0 -5 7 -10 15 -10 8 0 15 -4 15 -10 0 -5 -11 -10 -25 -10
-16 0 -25 6 -25 15 0 12 -11 15 -50 14 -37 -2 -50 -6 -46 -15 3 -7 8 -29 12
-48 7 -38 24 -49 24 -16 0 14 6 20 23 19 16 -1 18 -2 5 -6 -34 -9 -18 -23 27
-24 25 -1 50 -2 56 -3 14 -1 42 73 35 91 -6 15 -66 18 -66 3z m-50 -30 c0 -5
-6 -10 -14 -10 -8 0 -18 5 -21 10 -3 6 3 10 14 10 12 0 21 -4 21 -10z m75 -30
c-3 -5 -15 -10 -26 -10 -10 0 -19 5 -19 10 0 6 12 10 26 10 14 0 23 -4 19 -10z"/>
<path d="M180 6845 c-13 -14 -20 -28 -16 -32 9 -10 61 23 61 38 0 22 -21 20
-45 -6z"/>
<path d="M271 6694 c-24 -41 -21 -56 7 -31 10 10 30 17 44 17 34 0 58 9 58 22
0 6 -13 8 -30 6 -18 -3 -31 0 -34 9 -9 22 -23 15 -45 -23z"/>
<path d="M170 6711 c0 -5 -12 -24 -26 -41 -31 -36 -26 -49 8 -26 27 18 38 13
38 -16 0 -11 -7 -18 -20 -18 -11 0 -20 -4 -20 -10 0 -5 11 -10 25 -10 14 0 28
-7 31 -15 9 -24 37 -19 29 5 -5 16 -2 20 17 19 13 0 17 -3 11 -6 -20 -8 -15
-23 7 -23 11 0 20 6 20 14 0 8 10 16 22 18 31 4 32 21 1 36 -35 16 -43 15 -43
-4 0 -11 -8 -14 -27 -12 -20 2 -27 9 -28 27 -1 16 4 25 17 29 28 7 22 25 -7
20 -17 -4 -25 -1 -25 8 0 8 -7 14 -15 14 -8 0 -15 -4 -15 -9z"/>
<path d="M620 6711 c0 -5 -12 -24 -26 -41 -32 -38 -25 -49 13 -22 15 11 43 23
61 27 37 8 44 30 7 23 -17 -4 -25 -1 -25 8 0 8 -7 14 -15 14 -8 0 -15 -4 -15
-9z"/>
<path d="M312 6658 c7 -19 38 -22 38 -4 0 10 -9 16 -21 16 -12 0 -19 -5 -17
-12z"/>
<path d="M237 6555 c-76 -7 -141 -16 -144 -19 -15 -15 13 -17 113 -7 59 6 131
11 161 11 29 0 53 4 53 9 0 9 -26 22 -38 20 -4 -1 -69 -7 -145 -14z"/>
<path d="M280 6520 c0 -5 7 -10 15 -10 8 0 15 -4 15 -10 0 -5 -11 -10 -25 -10
-16 0 -25 6 -25 15 0 12 -11 15 -50 14 -37 -2 -50 -6 -46 -15 3 -7 8 -29 12
-48 7 -38 24 -49 24 -16 0 14 6 20 23 19 16 -1 18 -2 5 -6 -35 -9 -17 -23 28
-23 30 0 43 -4 39 -11 -7 -11 31 -59 47 -59 14 0 9 39 -7 48 -14 7 -14 13 0
52 9 24 13 50 11 57 -6 15 -66 18 -66 3z m-50 -30 c0 -5 -6 -10 -14 -10 -8 0
-18 5 -21 10 -3 6 3 10 14 10 12 0 21 -4 21 -10z m75 -30 c-3 -5 -15 -10 -26
-10 -10 0 -19 5 -19 10 0 6 12 10 26 10 14 0 23 -4 19 -10z"/>
<path d="M180 6395 c-13 -14 -20 -28 -16 -32 9 -10 61 23 61 38 0 22 -21 20
-45 -6z"/>
<path d="M620 6261 c0 -5 -12 -24 -26 -41 -31 -36 -26 -49 9 -25 17 11 27 13
32 6 10 -18 38 -13 31 5 -4 11 1 18 14 21 29 8 25 26 -5 21 -17 -4 -25 -1 -25
8 0 8 -7 14 -15 14 -8 0 -15 -4 -15 -9z"/>
<path d="M721 5794 c-12 -20 -19 -39 -16 -42 9 -10 68 55 61 67 -12 19 -23 12
-45 -25z"/>
<path d="M620 5811 c0 -5 -12 -24 -26 -41 -31 -36 -26 -49 9 -25 17 11 27 13
32 6 10 -18 38 -13 31 5 -4 11 1 18 14 21 29 8 25 26 -5 21 -17 -4 -25 -1 -25
8 0 8 -7 14 -15 14 -8 0 -15 -4 -15 -9z"/>
<path d="M721 5344 c-24 -41 -21 -56 7 -31 10 10 30 17 44 17 34 0 58 9 58 22
0 6 -13 8 -30 6 -18 -3 -31 0 -34 9 -9 22 -23 15 -45 -23z"/>
<path d="M620 5361 c0 -5 -12 -24 -26 -41 -31 -36 -26 -49 9 -25 17 11 27 13
32 6 10 -18 38 -13 31 5 -4 11 1 18 14 21 29 8 25 26 -5 21 -17 -4 -25 -1 -25
8 0 8 -7 14 -15 14 -8 0 -15 -4 -15 -9z"/>
<path d="M721 4894 c-24 -41 -21 -56 7 -31 10 10 30 17 44 17 34 0 58 9 58 22
0 6 -13 8 -30 6 -18 -3 -31 0 -34 9 -9 22 -23 15 -45 -23z"/>
<path d="M620 4911 c0 -5 -12 -24 -26 -41 -31 -36 -26 -49 9 -25 17 11 27 13
32 6 10 -18 38 -13 31 5 -4 11 1 18 14 21 29 8 25 26 -5 21 -17 -4 -25 -1 -25
8 0 8 -7 14 -15 14 -8 0 -15 -4 -15 -9z"/>
<path d="M762 4858 c7 -19 38 -22 38 -4 0 10 -9 16 -21 16 -12 0 -19 -5 -17
-12z"/>
<path d="M721 4444 c-24 -41 -21 -56 7 -31 10 10 30 17 44 17 34 0 58 9 58 22
0 6 -13 8 -30 6 -18 -3 -31 0 -34 9 -9 22 -23 15 -45 -23z"/>
<path d="M620 4461 c0 -5 -12 -24 -26 -41 -31 -36 -26 -49 9 -25 17 11 27 13
32 6 10 -18 38 -13 31 5 -4 11 1 18 14 21 29 8 25 26 -5 21 -17 -4 -25 -1 -25
8 0 8 -7 14 -15 14 -8 0 -15 -4 -15 -9z"/>
<path d="M762 4408 c7 -19 38 -22 38 -4 0 10 -9 16 -21 16 -12 0 -19 -5 -17
-12z"/>
<path d="M713 4373 c-65 -6 -52 -24 14 -21 34 2 58 8 61 16 2 7 -4 11 -15 10
-10 -1 -37 -3 -60 -5z"/>
<path d="M600 4350 c0 -5 14 -10 30 -10 17 0 30 5 30 10 0 6 -13 10 -30 10
-16 0 -30 -4 -30 -10z"/>
<path d="M721 3994 c-24 -41 -21 -56 7 -31 10 10 30 17 44 17 34 0 58 9 58 22
0 6 -13 8 -30 6 -18 -3 -31 0 -34 9 -9 22 -23 15 -45 -23z"/>
<path d="M620 4011 c0 -5 -12 -24 -26 -41 -31 -36 -26 -49 8 -26 27 18 38 13
38 -16 0 -11 -7 -18 -20 -18 -11 0 -20 -4 -20 -10 0 -5 11 -10 25 -10 14 0 28
-7 31 -15 9 -21 24 -19 24 4 0 17 8 20 52 23 77 4 75 27 -3 25 -59 -2 -62 -1
-64 22 -1 16 4 25 17 29 28 7 22 25 -7 20 -17 -4 -25 -1 -25 8 0 8 -7 14 -15
14 -8 0 -15 -4 -15 -9z"/>
<path d="M762 3958 c7 -19 38 -22 38 -4 0 10 -9 16 -21 16 -12 0 -19 -5 -17
-12z"/>
<path d="M721 3544 c-24 -41 -21 -56 7 -31 10 10 30 17 44 17 34 0 58 9 58 22
0 6 -13 8 -30 6 -18 -3 -31 0 -34 9 -9 22 -23 15 -45 -23z"/>
<path d="M620 3561 c0 -5 -12 -24 -26 -41 -31 -36 -26 -49 8 -26 27 18 38 13
38 -16 0 -11 -7 -18 -20 -18 -11 0 -20 -4 -20 -10 0 -5 11 -10 25 -10 14 0 28
-7 31 -15 9 -22 24 -18 24 5 0 13 7 20 20 20 11 0 20 -7 20 -15 0 -8 5 -15 10
-15 6 0 10 6 10 14 0 8 10 16 22 18 31 4 32 21 1 36 -35 16 -43 15 -43 -4 0
-11 -8 -14 -27 -12 -20 2 -27 9 -28 27 -1 16 4 25 17 29 28 7 22 25 -7 20 -17
-4 -25 -1 -25 8 0 8 -7 14 -15 14 -8 0 -15 -4 -15 -9z"/>
<path d="M762 3508 c7 -19 38 -22 38 -4 0 10 -9 16 -21 16 -12 0 -19 -5 -17
-12z"/>
<path d="M721 3094 c-24 -41 -21 -56 7 -31 10 10 30 17 44 17 34 0 58 9 58 22
0 6 -13 8 -30 6 -18 -3 -31 0 -34 9 -9 22 -23 15 -45 -23z"/>
<path d="M620 3111 c0 -5 -12 -24 -26 -41 -31 -36 -26 -49 8 -26 27 18 38 13
38 -16 0 -11 -7 -18 -20 -18 -11 0 -20 -4 -20 -10 0 -5 11 -10 25 -10 14 0 28
-7 31 -15 9 -24 37 -19 29 5 -5 16 -2 20 17 19 13 0 17 -3 11 -6 -20 -8 -15
-23 7 -23 11 0 20 6 20 14 0 8 10 16 22 18 31 4 32 21 1 36 -35 16 -43 15 -43
-4 0 -11 -8 -14 -27 -12 -20 2 -27 9 -28 27 -1 16 4 25 17 29 28 7 22 25 -7
20 -17 -4 -25 -1 -25 8 0 8 -7 14 -15 14 -8 0 -15 -4 -15 -9z"/>
<path d="M762 3058 c7 -19 38 -22 38 -4 0 10 -9 16 -21 16 -12 0 -19 -5 -17
-12z"/>
<path d="M721 2644 c-24 -41 -21 -56 7 -31 10 10 30 17 44 17 34 0 58 9 58 22
0 6 -13 8 -30 6 -18 -3 -31 0 -34 9 -9 22 -23 15 -45 -23z"/>
<path d="M620 2661 c0 -5 -12 -24 -26 -41 -31 -36 -26 -49 8 -26 27 18 38 13
38 -16 0 -11 -7 -18 -20 -18 -11 0 -20 -4 -20 -10 0 -5 11 -10 25 -10 14 0 28
-7 31 -15 9 -24 37 -19 29 5 -5 16 -2 20 17 19 13 0 17 -3 11 -6 -20 -8 -15
-23 7 -23 11 0 20 6 20 14 0 8 10 16 22 18 31 4 32 21 1 36 -35 16 -43 15 -43
-4 0 -11 -8 -14 -27 -12 -20 2 -27 9 -28 27 -1 16 4 25 17 29 28 7 22 25 -7
20 -17 -4 -25 -1 -25 8 0 8 -7 14 -15 14 -8 0 -15 -4 -15 -9z"/>
<path d="M762 2608 c7 -19 38 -22 38 -4 0 10 -9 16 -21 16 -12 0 -19 -5 -17
-12z"/>
<path d="M687 2505 c-76 -7 -141 -16 -144 -19 -15 -15 13 -17 113 -7 59 6 131
11 161 11 29 0 53 4 53 9 0 9 -26 22 -38 20 -4 -1 -69 -7 -145 -14z"/>
<path d="M721 2194 c-24 -41 -21 -56 7 -31 10 10 30 17 44 17 34 0 58 9 58 22
0 6 -13 8 -30 6 -18 -3 -31 0 -34 9 -9 22 -23 15 -45 -23z"/>
<path d="M620 2211 c0 -5 -12 -24 -26 -41 -31 -36 -26 -49 8 -26 27 18 38 13
38 -16 0 -11 -7 -18 -20 -18 -11 0 -20 -4 -20 -10 0 -5 11 -10 25 -10 14 0 28
-7 31 -15 9 -24 37 -19 29 5 -5 16 -2 20 17 19 13 0 17 -3 11 -6 -20 -8 -15
-23 7 -23 11 0 20 6 20 14 0 8 10 16 22 18 31 4 32 21 1 36 -35 16 -43 15 -43
-4 0 -11 -8 -14 -27 -12 -20 2 -27 9 -28 27 -1 16 4 25 17 29 28 7 22 25 -7
20 -17 -4 -25 -1 -25 8 0 8 -7 14 -15 14 -8 0 -15 -4 -15 -9z"/>
<path d="M762 2158 c7 -19 38 -22 38 -4 0 10 -9 16 -21 16 -12 0 -19 -5 -17
-12z"/>
<path d="M687 2055 c-76 -7 -141 -16 -144 -19 -15 -15 13 -17 113 -7 59 6 131
11 161 11 29 0 53 4 53 9 0 9 -26 22 -38 20 -4 -1 -69 -7 -145 -14z"/>
<path d="M613 2006 c3 -8 9 -31 13 -50 3 -20 10 -36 15 -36 12 0 11 57 -1 81
-12 22 -35 26 -27 5z"/>
<path d="M721 1744 c-24 -41 -21 -56 7 -31 10 10 30 17 44 17 34 0 58 9 58 22
0 6 -13 8 -30 6 -18 -3 -31 0 -34 9 -9 22 -23 15 -45 -23z"/>
<path d="M620 1761 c0 -5 -12 -24 -26 -41 -31 -36 -26 -49 8 -26 27 18 38 13
38 -16 0 -11 -7 -18 -20 -18 -11 0 -20 -4 -20 -10 0 -5 11 -10 25 -10 14 0 28
-7 31 -15 9 -24 37 -19 29 5 -5 16 -2 20 17 19 13 0 17 -3 11 -6 -20 -8 -15
-23 7 -23 11 0 20 6 20 14 0 8 10 16 22 18 31 4 32 21 1 36 -35 16 -43 15 -43
-4 0 -11 -8 -14 -27 -12 -20 2 -27 9 -28 27 -1 16 4 25 17 29 28 7 22 25 -7
20 -17 -4 -25 -1 -25 8 0 8 -7 14 -15 14 -8 0 -15 -4 -15 -9z"/>
<path d="M762 1708 c7 -19 38 -22 38 -4 0 10 -9 16 -21 16 -12 0 -19 -5 -17
-12z"/>
<path d="M687 1605 c-76 -7 -141 -16 -144 -19 -15 -15 13 -17 113 -7 59 6 131
11 161 11 29 0 53 4 53 9 0 9 -26 22 -38 20 -4 -1 -69 -7 -145 -14z"/>
<path d="M730 1570 c0 -5 7 -10 16 -10 14 0 15 -7 9 -46 -5 -35 -3 -45 6 -42
15 5 41 77 35 95 -6 15 -66 18 -66 3z"/>
<path d="M614 1554 c3 -7 8 -29 12 -48 9 -49 27 -46 22 4 -3 38 -2 40 24 40
16 0 28 5 28 10 0 6 -20 9 -45 8 -32 -1 -44 -5 -41 -14z"/>
<path d="M721 1294 c-24 -41 -21 -56 7 -31 10 10 30 17 44 17 34 0 58 9 58 22
0 6 -13 8 -30 6 -18 -3 -31 0 -34 9 -9 22 -23 15 -45 -23z"/>
<path d="M620 1311 c0 -5 -12 -24 -26 -41 -31 -36 -26 -49 8 -26 27 18 38 13
38 -16 0 -11 -7 -18 -20 -18 -11 0 -20 -4 -20 -10 0 -5 11 -10 25 -10 14 0 28
-7 31 -15 9 -24 37 -19 29 5 -5 16 -2 20 17 19 13 0 17 -3 11 -6 -20 -8 -15
-23 7 -23 11 0 20 6 20 14 0 8 10 16 22 18 31 4 32 21 1 36 -35 16 -43 15 -43
-4 0 -11 -8 -14 -27 -12 -20 2 -27 9 -28 27 -1 16 4 25 17 29 28 7 22 25 -7
20 -17 -4 -25 -1 -25 8 0 8 -7 14 -15 14 -8 0 -15 -4 -15 -9z"/>
<path d="M762 1258 c7 -19 38 -22 38 -4 0 10 -9 16 -21 16 -12 0 -19 -5 -17
-12z"/>
<path d="M687 1155 c-76 -7 -141 -16 -144 -19 -15 -15 13 -17 113 -7 59 6 131
11 161 11 29 0 53 4 53 9 0 9 -26 22 -38 20 -4 -1 -69 -7 -145 -14z"/>
<path d="M730 1120 c0 -5 7 -10 15 -10 8 0 15 -4 15 -9 0 -12 -103 -22 -114
-11 -7 7 1 10 22 10 18 0 32 5 32 10 0 6 -20 9 -45 8 -32 -1 -44 -5 -41 -14 3
-7 8 -29 12 -48 7 -38 24 -50 24 -17 0 19 34 31 85 31 19 0 21 -4 17 -26 -3
-19 -1 -25 8 -22 16 5 43 77 36 95 -6 15 -66 18 -66 3z"/>
<path d="M721 844 c-24 -41 -21 -56 7 -31 10 10 30 17 44 17 34 0 58 9 58 22
0 6 -13 8 -30 6 -18 -3 -31 0 -34 9 -9 22 -23 15 -45 -23z"/>
<path d="M620 861 c0 -5 -12 -24 -26 -41 -31 -36 -26 -49 8 -26 27 18 38 13
38 -16 0 -11 -7 -18 -20 -18 -11 0 -20 -4 -20 -10 0 -5 11 -10 25 -10 14 0 28
-7 31 -15 9 -24 37 -19 29 5 -5 16 -2 20 17 19 13 0 17 -3 11 -6 -20 -8 -15
-23 7 -23 11 0 20 6 20 14 0 8 10 16 22 18 31 4 32 21 1 36 -35 16 -43 15 -43
-4 0 -11 -8 -14 -27 -12 -20 2 -27 9 -28 27 -1 16 4 25 17 29 28 7 22 25 -7
20 -17 -4 -25 -1 -25 8 0 8 -7 14 -15 14 -8 0 -15 -4 -15 -9z"/>
<path d="M762 808 c7 -19 38 -22 38 -4 0 10 -9 16 -21 16 -12 0 -19 -5 -17
-12z"/>
<path d="M687 705 c-76 -7 -141 -16 -144 -19 -15 -15 13 -17 113 -7 59 6 131
11 161 11 29 0 53 4 53 9 0 9 -26 22 -38 20 -4 -1 -69 -7 -145 -14z"/>
<path d="M730 670 c0 -5 7 -10 15 -10 8 0 15 -4 15 -10 0 -5 -11 -10 -25 -10
-16 0 -25 6 -25 15 0 12 -11 15 -50 14 -37 -2 -50 -6 -46 -15 3 -7 8 -29 12
-48 7 -38 24 -49 24 -16 0 13 7 20 20 20 11 0 20 -4 20 -10 0 -5 5 -10 10 -10
6 0 10 7 10 15 0 9 9 15 24 15 20 0 22 -4 18 -26 -3 -19 -1 -25 8 -22 16 5 43
77 36 95 -6 15 -66 18 -66 3z m-50 -30 c0 -5 -6 -10 -14 -10 -8 0 -18 5 -21
10 -3 6 3 10 14 10 12 0 21 -4 21 -10z"/>
<path d="M721 394 c-24 -41 -21 -56 7 -31 10 10 30 17 44 17 34 0 58 9 58 22
0 6 -13 8 -30 6 -18 -3 -31 0 -34 9 -9 22 -23 15 -45 -23z"/>
<path d="M620 411 c0 -5 -12 -24 -26 -41 -31 -36 -26 -49 8 -26 27 18 38 13
38 -16 0 -11 -7 -18 -20 -18 -11 0 -20 -4 -20 -10 0 -5 11 -10 25 -10 14 0 28
-7 31 -15 9 -24 37 -19 29 5 -5 16 -2 20 17 19 13 0 17 -3 11 -6 -20 -8 -15
-23 7 -23 11 0 20 6 20 14 0 8 10 16 22 18 31 4 32 21 1 36 -35 16 -43 15 -43
-4 0 -11 -8 -14 -27 -12 -20 2 -27 9 -28 27 -1 16 4 25 17 29 28 7 22 25 -7
20 -17 -4 -25 -1 -25 8 0 8 -7 14 -15 14 -8 0 -15 -4 -15 -9z"/>
<path d="M762 358 c7 -19 38 -22 38 -4 0 10 -9 16 -21 16 -12 0 -19 -5 -17
-12z"/>
<path d="M687 255 c-76 -7 -141 -16 -144 -19 -15 -15 13 -17 113 -7 59 6 131
11 161 11 29 0 53 4 53 9 0 9 -26 22 -38 20 -4 -1 -69 -7 -145 -14z"/>
<path d="M730 220 c0 -5 7 -10 15 -10 8 0 15 -4 15 -10 0 -5 -11 -10 -25 -10
-16 0 -25 6 -25 15 0 12 -11 15 -50 14 -37 -2 -50 -6 -46 -15 3 -7 8 -29 12
-48 7 -38 24 -49 24 -16 0 14 6 20 23 19 16 -1 18 -2 5 -6 -34 -9 -18 -23 27
-24 25 -1 50 -2 56 -3 14 -1 42 73 35 91 -6 15 -66 18 -66 3z m-50 -30 c0 -5
-6 -10 -14 -10 -8 0 -18 5 -21 10 -3 6 3 10 14 10 12 0 21 -4 21 -10z m75 -30
c-3 -5 -15 -10 -26 -10 -10 0 -19 5 -19 10 0 6 12 10 26 10 14 0 23 -4 19 -10z"/>
</g>
</svg>
