<?xml version="1.0" standalone="no"?>
<!DOCTYPE svg PUBLIC "-//W3C//DTD SVG 20010904//EN"
 "http://www.w3.org/TR/2001/REC-SVG-20010904/DTD/svg10.dtd">
<svg version="1.0" xmlns="http://www.w3.org/2000/svg"
 width="95.000000pt" height="725.000000pt" viewBox="0 0 95.000000 725.000000"
 preserveAspectRatio="xMidYMid meet">
<metadata>
Created by potrace 1.16, written by Peter Selinger 2001-2019
</metadata>
<g transform="translate(0.000000,725.000000) scale(0.100000,-0.100000)"
fill="#000000" stroke="none">
<path d="M273 7166 c-11 -19 -73 -27 -73 -9 0 26 -25 12 -42 -24 -20 -42 -16
-53 9 -31 27 23 74 32 84 16 13 -20 11 -28 -7 -28 -11 0 -14 -5 -10 -16 3 -9
6 -29 6 -46 0 -23 4 -29 15 -24 8 3 15 1 15 -4 0 -5 8 -19 17 -30 18 -21 63
-28 63 -10 0 6 9 10 20 10 23 0 26 10 8 28 -18 18 -38 14 -38 -8 0 -11 -7 -20
-15 -20 -8 0 -12 6 -9 14 3 8 -2 16 -13 19 -14 4 -13 5 5 6 21 1 23 5 20 43
-2 24 -9 43 -17 46 -11 4 -12 -2 -7 -24 5 -21 4 -25 -4 -14 -5 8 -10 23 -10
32 0 9 -6 18 -12 21 -9 3 -7 7 5 12 13 5 23 1 33 -14 18 -24 34 -28 34 -6 0 8
-4 15 -10 15 -5 0 -10 5 -10 10 0 6 9 10 20 10 11 0 20 5 20 11 0 7 -12 10
-30 7 -18 -3 -31 0 -34 9 -7 17 -23 17 -33 -1z"/>
<path d="M608 7133 c-10 -20 -15 -39 -12 -42 8 -8 54 47 54 65 0 27 -25 13
-42 -23z"/>
<path d="M192 7098 c6 -18 28 -21 28 -4 0 9 -7 16 -16 16 -9 0 -14 -5 -12 -12z"/>
<path d="M207 6983 c-9 -8 -9 -43 -1 -43 4 0 13 8 20 18 13 16 14 16 8 0 -3
-10 -2 -18 4 -18 15 0 34 28 27 40 -7 11 -48 14 -58 3z"/>
<path d="M273 6716 c-11 -19 -73 -27 -73 -9 0 26 -25 12 -42 -24 -20 -42 -16
-53 9 -31 27 23 74 32 84 16 13 -20 11 -28 -7 -28 -11 0 -14 -5 -10 -16 3 -9
6 -29 6 -46 0 -23 4 -29 15 -24 9 3 15 0 15 -8 0 -8 6 -17 13 -19 9 -4 8 -8
-3 -16 -8 -5 -12 -12 -9 -15 8 -8 79 6 79 15 0 5 9 9 20 9 23 0 26 10 8 28
-18 18 -38 14 -38 -8 0 -11 -7 -20 -15 -20 -8 0 -12 6 -9 14 3 8 -2 16 -13 19
-14 4 -13 5 5 6 21 1 23 5 20 43 -2 24 -9 43 -17 46 -11 4 -12 -2 -7 -24 5
-21 4 -25 -4 -14 -5 8 -10 23 -10 32 0 9 -6 18 -12 21 -9 3 -7 7 5 12 13 5 23
1 33 -14 18 -24 34 -28 34 -6 0 8 -4 15 -10 15 -5 0 -10 5 -10 10 0 6 9 10 20
10 11 0 20 5 20 11 0 7 -12 10 -30 7 -18 -3 -31 0 -34 9 -7 17 -23 17 -33 -1z"/>
<path d="M608 6683 c-20 -42 -16 -53 9 -30 10 8 35 18 56 22 44 8 51 29 7 23
-20 -3 -30 0 -30 9 0 26 -25 12 -42 -24z"/>
<path d="M192 6648 c6 -18 28 -21 28 -4 0 9 -7 16 -16 16 -9 0 -14 -5 -12 -12z"/>
<path d="M207 6533 c-9 -8 -9 -43 -1 -43 4 0 13 8 20 18 13 16 14 16 8 0 -3
-10 -2 -18 4 -18 15 0 34 28 27 40 -7 11 -48 14 -58 3z"/>
<path d="M273 6266 c-11 -19 -73 -27 -73 -9 0 26 -25 12 -42 -24 -20 -42 -16
-53 9 -31 27 23 74 32 84 16 13 -20 11 -28 -7 -28 -11 0 -14 -5 -10 -16 3 -9
6 -29 6 -46 0 -23 4 -29 15 -24 9 3 15 0 15 -8 0 -8 6 -16 12 -18 9 -3 8 -9
-4 -21 -21 -21 -35 -22 -18 -2 17 21 1 38 -31 33 -16 -2 -25 -11 -27 -25 -4
-27 6 -30 23 -6 11 15 12 14 8 -11 -6 -28 -5 -29 27 -23 18 4 43 7 56 7 14 0
25 8 29 20 3 11 15 20 26 20 22 0 24 11 7 28 -18 18 -38 14 -38 -8 0 -11 -7
-20 -15 -20 -8 0 -12 6 -9 14 3 8 -2 16 -13 19 -14 4 -13 5 5 6 21 1 23 5 20
43 -2 24 -9 43 -17 46 -11 4 -12 -2 -7 -24 5 -21 4 -25 -4 -14 -5 8 -10 23
-10 32 0 9 -6 18 -12 21 -9 3 -7 7 5 12 13 5 23 1 33 -14 18 -24 34 -28 34 -6
0 8 -4 15 -10 15 -5 0 -10 5 -10 10 0 6 9 10 20 10 11 0 20 5 20 11 0 7 -12
10 -30 7 -18 -3 -31 0 -34 9 -7 17 -23 17 -33 -1z"/>
<path d="M608 6233 c-20 -42 -16 -53 9 -30 10 8 35 18 56 22 44 8 51 29 7 23
-20 -3 -30 0 -30 9 0 26 -25 12 -42 -24z"/>
<path d="M192 6198 c6 -18 28 -21 28 -4 0 9 -7 16 -16 16 -9 0 -14 -5 -12 -12z"/>
<path d="M642 6198 c6 -18 28 -21 28 -4 0 9 -7 16 -16 16 -9 0 -14 -5 -12 -12z"/>
<path d="M273 5816 c-11 -19 -73 -27 -73 -9 0 26 -25 12 -42 -24 -20 -42 -16
-53 9 -31 27 23 74 32 84 16 13 -20 11 -28 -7 -28 -11 0 -14 -5 -10 -16 3 -9
6 -29 6 -46 0 -23 4 -29 15 -24 9 3 15 0 15 -8 0 -8 6 -16 12 -18 9 -3 8 -9
-4 -21 -21 -21 -35 -22 -18 -2 17 21 1 38 -31 33 -16 -2 -25 -11 -27 -25 -4
-27 6 -30 23 -6 11 15 12 14 8 -11 -6 -28 -5 -29 27 -23 18 4 43 7 56 7 14 0
25 8 29 20 3 11 15 20 26 20 22 0 24 11 7 28 -18 18 -38 14 -38 -8 0 -11 -7
-20 -15 -20 -8 0 -12 6 -9 14 3 8 -2 16 -13 19 -14 4 -13 5 5 6 21 1 23 5 20
43 -2 24 -9 43 -17 46 -11 4 -12 -2 -7 -24 5 -21 4 -25 -4 -14 -5 8 -10 23
-10 32 0 9 -6 18 -12 21 -9 3 -7 7 5 12 13 5 23 1 33 -14 18 -24 34 -28 34 -6
0 8 -4 15 -10 15 -5 0 -10 5 -10 10 0 6 9 10 20 10 11 0 20 5 20 11 0 7 -12
10 -30 7 -18 -3 -31 0 -34 9 -7 17 -23 17 -33 -1z"/>
<path d="M723 5816 c-11 -19 -73 -27 -73 -9 0 26 -25 12 -42 -24 -20 -42 -16
-53 9 -31 27 23 74 32 84 16 6 -10 15 -7 35 13 15 15 23 32 20 38 -10 15 -23
14 -33 -3z"/>
<path d="M192 5748 c6 -18 28 -21 28 -4 0 9 -7 16 -16 16 -9 0 -14 -5 -12 -12z"/>
<path d="M642 5748 c6 -18 28 -21 28 -4 0 9 -7 16 -16 16 -9 0 -14 -5 -12 -12z"/>
<path d="M296 5553 c-3 -10 -9 -24 -12 -30 -3 -8 2 -13 14 -13 20 0 32 18 32
46 0 20 -26 17 -34 -3z"/>
<path d="M273 5366 c-11 -19 -73 -27 -73 -9 0 26 -25 12 -42 -24 -20 -42 -16
-53 9 -31 27 23 74 32 84 16 13 -20 11 -28 -7 -28 -11 0 -14 -5 -10 -16 3 -9
6 -29 6 -46 0 -23 4 -29 15 -24 9 3 15 0 15 -8 0 -8 6 -16 12 -18 9 -3 8 -9
-4 -21 -21 -21 -35 -22 -18 -2 17 21 1 38 -31 33 -16 -2 -25 -11 -27 -25 -4
-27 6 -30 23 -6 12 16 12 14 8 -10 -4 -21 -2 -27 13 -27 14 0 15 -3 6 -12 -16
-16 -15 -28 1 -28 8 0 20 11 27 25 8 15 22 25 36 25 14 0 25 8 29 20 3 11 15
20 26 20 22 0 24 11 7 28 -18 18 -38 14 -38 -8 0 -11 -7 -20 -15 -20 -8 0 -12
6 -9 14 3 8 -2 16 -13 19 -14 4 -13 5 5 6 21 1 23 5 20 43 -2 24 -9 43 -17 46
-11 4 -12 -2 -7 -24 5 -21 4 -25 -4 -14 -5 8 -10 23 -10 32 0 9 -6 18 -12 21
-9 3 -7 7 5 12 13 5 23 1 33 -14 18 -24 34 -28 34 -6 0 8 -4 15 -10 15 -5 0
-10 5 -10 10 0 6 9 10 20 10 11 0 20 5 20 11 0 7 -12 10 -30 7 -18 -3 -31 0
-34 9 -7 17 -23 17 -33 -1z"/>
<path d="M723 5366 c-11 -19 -73 -27 -73 -9 0 26 -25 12 -42 -24 -20 -42 -16
-53 9 -31 26 22 74 32 84 17 5 -9 11 -10 21 -2 7 6 32 14 56 18 47 8 59 30 12
23 -18 -3 -31 0 -34 9 -7 17 -23 17 -33 -1z"/>
<path d="M192 5298 c6 -18 28 -21 28 -4 0 9 -7 16 -16 16 -9 0 -14 -5 -12 -12z"/>
<path d="M642 5298 c6 -18 28 -21 28 -4 0 9 -7 16 -16 16 -9 0 -14 -5 -12 -12z"/>
<path d="M296 5103 c-3 -10 -9 -24 -12 -30 -3 -8 2 -13 14 -13 20 0 32 18 32
46 0 20 -26 17 -34 -3z"/>
<path d="M273 4916 c-11 -19 -73 -27 -73 -9 0 26 -25 12 -42 -24 -20 -42 -16
-53 9 -31 27 23 74 32 84 16 13 -20 11 -28 -7 -28 -11 0 -14 -5 -10 -16 3 -9
6 -29 6 -46 0 -23 4 -29 15 -24 9 3 15 0 15 -8 0 -8 6 -16 12 -18 9 -3 8 -9
-4 -21 -21 -21 -35 -22 -18 -2 17 21 1 38 -31 33 -16 -2 -25 -11 -27 -25 -4
-27 6 -30 23 -6 12 16 12 14 8 -10 -4 -21 -2 -27 13 -27 14 0 15 -3 6 -12 -16
-16 -15 -28 1 -28 8 0 20 11 27 25 8 15 22 25 36 25 14 0 25 8 29 20 3 11 15
20 26 20 22 0 24 11 7 28 -18 18 -38 14 -38 -8 0 -11 -7 -20 -15 -20 -8 0 -12
6 -9 14 3 8 -2 16 -13 19 -14 4 -13 5 5 6 21 1 23 5 20 43 -2 24 -9 43 -17 46
-11 4 -12 -2 -7 -24 5 -21 4 -25 -4 -14 -5 8 -10 23 -10 32 0 9 -6 18 -12 21
-9 3 -7 7 5 12 13 5 23 1 33 -14 18 -24 34 -28 34 -6 0 8 -4 15 -10 15 -5 0
-10 5 -10 10 0 6 9 10 20 10 11 0 20 5 20 11 0 7 -12 10 -30 7 -18 -3 -31 0
-34 9 -7 17 -23 17 -33 -1z"/>
<path d="M723 4916 c-11 -19 -73 -27 -73 -9 0 26 -25 12 -42 -24 -20 -42 -16
-53 9 -31 25 21 74 32 83 18 5 -9 13 -8 29 1 18 12 23 11 36 -9 18 -25 35 -29
35 -7 0 8 -4 15 -10 15 -5 0 -10 5 -10 10 0 6 9 10 20 10 11 0 20 5 20 11 0 7
-12 10 -30 7 -18 -3 -31 0 -34 9 -7 17 -23 17 -33 -1z"/>
<path d="M192 4848 c6 -18 28 -21 28 -4 0 9 -7 16 -16 16 -9 0 -14 -5 -12 -12z"/>
<path d="M642 4848 c6 -18 28 -21 28 -4 0 9 -7 16 -16 16 -9 0 -14 -5 -12 -12z"/>
<path d="M142 4794 c2 -11 11 -20 22 -22 13 -3 17 1 14 14 -2 11 -11 20 -22
22 -13 3 -17 -1 -14 -14z"/>
<path d="M296 4653 c-3 -10 -9 -24 -12 -30 -3 -8 2 -13 14 -13 20 0 32 18 32
46 0 20 -26 17 -34 -3z"/>
<path d="M273 4466 c-11 -19 -73 -27 -73 -9 0 26 -25 12 -42 -24 -20 -42 -16
-53 9 -31 27 23 74 32 84 16 13 -20 11 -28 -7 -28 -11 0 -14 -5 -10 -16 3 -9
6 -29 6 -46 0 -23 4 -29 15 -24 9 3 15 0 15 -8 0 -8 6 -16 12 -18 9 -3 8 -9
-4 -21 -21 -21 -35 -22 -18 -2 17 21 1 38 -31 33 -16 -2 -25 -11 -27 -25 -4
-27 6 -30 23 -6 12 16 12 14 8 -10 -4 -21 -2 -27 13 -27 14 0 15 -3 6 -12 -16
-16 -15 -28 1 -28 8 0 20 11 27 25 8 15 22 25 36 25 14 0 25 8 29 20 3 11 15
20 26 20 22 0 24 11 7 28 -18 18 -38 14 -38 -8 0 -11 -7 -20 -15 -20 -8 0 -12
6 -9 14 3 8 -2 16 -13 19 -14 4 -13 5 5 6 21 1 23 5 20 43 -2 24 -9 43 -17 46
-11 4 -12 -2 -7 -24 5 -21 4 -25 -4 -14 -5 8 -10 23 -10 32 0 9 -6 18 -12 21
-9 3 -7 7 5 12 13 5 23 1 33 -14 18 -24 34 -28 34 -6 0 8 -4 15 -10 15 -5 0
-10 5 -10 10 0 6 9 10 20 10 11 0 20 5 20 11 0 7 -12 10 -30 7 -18 -3 -31 0
-34 9 -7 17 -23 17 -33 -1z"/>
<path d="M723 4466 c-11 -19 -73 -27 -73 -9 0 26 -25 12 -42 -24 -20 -42 -16
-53 9 -31 10 9 32 19 50 23 29 6 33 4 39 -19 7 -28 18 -33 30 -15 3 6 0 15 -7
20 -11 6 -10 9 4 15 13 4 23 0 33 -15 18 -24 34 -28 34 -6 0 8 -4 15 -10 15
-5 0 -10 5 -10 10 0 6 9 10 20 10 11 0 20 5 20 11 0 7 -12 10 -30 7 -18 -3
-31 0 -34 9 -7 17 -23 17 -33 -1z"/>
<path d="M192 4398 c6 -18 28 -21 28 -4 0 9 -7 16 -16 16 -9 0 -14 -5 -12 -12z"/>
<path d="M642 4398 c6 -18 28 -21 28 -4 0 9 -7 16 -16 16 -9 0 -14 -5 -12 -12z"/>
<path d="M142 4344 c2 -11 11 -20 22 -22 13 -3 17 1 14 14 -2 11 -11 20 -22
22 -13 3 -17 -1 -14 -14z"/>
<path d="M123 4283 c-18 -7 -16 -23 2 -23 8 0 15 -7 15 -15 0 -8 3 -15 6 -15
10 0 33 33 34 48 0 12 -33 15 -57 5z"/>
<path d="M296 4203 c-3 -10 -9 -24 -12 -30 -3 -8 2 -13 14 -13 20 0 32 18 32
46 0 20 -26 17 -34 -3z"/>
<path d="M273 4016 c-11 -19 -73 -27 -73 -9 0 26 -25 12 -42 -24 -20 -42 -16
-53 9 -31 27 23 74 32 84 16 13 -20 11 -28 -7 -28 -11 0 -14 -5 -10 -16 3 -9
6 -29 6 -46 0 -23 4 -29 15 -24 9 3 15 0 15 -8 0 -8 6 -16 12 -18 9 -3 8 -9
-4 -21 -21 -21 -35 -22 -18 -2 17 21 1 38 -31 33 -16 -2 -25 -11 -27 -25 -4
-27 6 -30 23 -6 12 16 12 14 8 -10 -4 -21 -2 -27 13 -27 14 0 15 -3 6 -12 -16
-16 -15 -28 1 -28 8 0 20 11 27 25 8 15 22 25 36 25 14 0 25 8 29 20 3 11 15
20 26 20 22 0 24 11 7 28 -18 18 -38 14 -38 -8 0 -11 -7 -20 -15 -20 -8 0 -12
6 -9 14 3 8 -2 16 -13 19 -14 4 -13 5 5 6 21 1 23 5 20 43 -2 24 -9 43 -17 46
-11 4 -12 -2 -7 -24 5 -21 4 -25 -4 -14 -5 8 -10 23 -10 32 0 9 -6 18 -12 21
-9 3 -7 7 5 12 13 5 23 1 33 -14 18 -24 34 -28 34 -6 0 8 -4 15 -10 15 -5 0
-10 5 -10 10 0 6 9 10 20 10 11 0 20 5 20 11 0 7 -12 10 -30 7 -18 -3 -31 0
-34 9 -7 17 -23 17 -33 -1z"/>
<path d="M723 4016 c-11 -19 -73 -27 -73 -9 0 26 -25 12 -42 -24 -20 -42 -16
-53 9 -31 10 9 32 19 50 23 29 6 33 4 39 -19 7 -28 18 -33 30 -15 3 6 0 15 -7
20 -11 6 -10 9 4 15 13 4 23 0 33 -15 18 -24 34 -28 34 -6 0 8 -4 15 -10 15
-5 0 -10 5 -10 10 0 6 9 10 20 10 11 0 20 5 20 11 0 7 -12 10 -30 7 -18 -3
-31 0 -34 9 -7 17 -23 17 -33 -1z"/>
<path d="M192 3948 c6 -18 28 -21 28 -4 0 9 -7 16 -16 16 -9 0 -14 -5 -12 -12z"/>
<path d="M642 3948 c6 -18 28 -21 28 -4 0 9 -7 16 -16 16 -9 0 -14 -5 -12 -12z"/>
<path d="M683 3926 c4 -10 7 -31 7 -47 0 -16 5 -29 11 -29 16 0 7 83 -10 88
-10 3 -12 0 -8 -12z"/>
<path d="M142 3894 c2 -11 11 -20 22 -22 13 -3 17 1 14 14 -2 11 -11 20 -22
22 -13 3 -17 -1 -14 -14z"/>
<path d="M123 3833 c-18 -7 -16 -23 2 -23 8 0 15 -9 15 -19 0 -11 5 -23 10
-26 6 -3 10 -15 10 -26 0 -10 5 -19 10 -19 14 0 13 43 -2 58 -9 9 -9 15 0 24
28 28 -2 49 -45 31z"/>
<path d="M296 3753 c-3 -10 -9 -24 -12 -30 -3 -8 2 -13 14 -13 20 0 32 18 32
46 0 20 -26 17 -34 -3z"/>
<path d="M273 3566 c-11 -19 -73 -27 -73 -9 0 26 -25 12 -42 -24 -20 -42 -16
-53 9 -31 27 23 74 32 84 16 13 -20 11 -28 -7 -28 -11 0 -14 -5 -10 -16 3 -9
6 -29 6 -46 0 -23 4 -29 15 -24 9 3 15 0 15 -8 0 -8 6 -16 12 -18 9 -3 8 -9
-4 -21 -21 -21 -35 -22 -18 -2 17 21 1 38 -31 33 -16 -2 -25 -11 -27 -25 -4
-27 6 -30 23 -6 12 16 12 14 8 -10 -4 -21 -2 -27 13 -27 14 0 15 -3 6 -12 -16
-16 -15 -28 1 -28 8 0 20 11 27 25 8 15 22 25 36 25 14 0 25 8 29 20 3 11 15
20 26 20 22 0 24 11 7 28 -18 18 -38 14 -38 -8 0 -11 -7 -20 -15 -20 -8 0 -12
6 -9 14 3 8 -2 16 -13 19 -14 4 -13 5 5 6 21 1 23 5 20 43 -2 24 -9 43 -17 46
-11 4 -12 -2 -7 -24 5 -21 4 -25 -4 -14 -5 8 -10 23 -10 32 0 9 -6 18 -12 21
-9 3 -7 7 5 12 13 5 23 1 33 -14 18 -24 34 -28 34 -6 0 8 -4 15 -10 15 -5 0
-10 5 -10 10 0 6 9 10 20 10 11 0 20 5 20 11 0 7 -12 10 -30 7 -18 -3 -31 0
-34 9 -7 17 -23 17 -33 -1z"/>
<path d="M723 3566 c-11 -19 -73 -27 -73 -9 0 26 -25 12 -42 -24 -20 -42 -16
-53 9 -31 27 23 74 32 84 16 13 -20 11 -28 -7 -28 -11 0 -14 -5 -10 -16 3 -9
6 -29 6 -45 0 -16 5 -29 10 -29 6 0 10 16 10 35 0 24 5 35 15 35 18 0 20 36 3
43 -9 3 -7 7 5 12 13 5 23 1 33 -14 18 -24 34 -28 34 -6 0 8 -4 15 -10 15 -5
0 -10 5 -10 10 0 6 9 10 20 10 11 0 20 5 20 11 0 7 -12 10 -30 7 -18 -3 -31 0
-34 9 -7 17 -23 17 -33 -1z"/>
<path d="M192 3498 c6 -18 28 -21 28 -4 0 9 -7 16 -16 16 -9 0 -14 -5 -12 -12z"/>
<path d="M642 3498 c6 -18 28 -21 28 -4 0 9 -7 16 -16 16 -9 0 -14 -5 -12 -12z"/>
<path d="M753 3479 c4 -13 7 -34 7 -46 0 -13 5 -23 11 -23 16 0 7 83 -10 88
-10 4 -12 -1 -8 -19z"/>
<path d="M142 3444 c2 -11 11 -20 22 -22 13 -3 17 1 14 14 -2 11 -11 20 -22
22 -13 3 -17 -1 -14 -14z"/>
<path d="M123 3383 c-18 -7 -16 -23 2 -23 8 0 15 -9 15 -19 0 -11 5 -23 10
-26 20 -12 10 -35 -15 -35 -14 0 -25 -4 -25 -10 0 -5 16 -10 35 -10 20 0 63
-11 97 -25 69 -28 82 -30 127 -14 48 17 37 29 -26 30 -32 0 -51 3 -43 6 19 8
30 23 30 46 0 28 -24 20 -38 -13 -15 -33 -20 -35 -74 -19 -26 6 -38 16 -38 27
0 10 -5 23 -12 30 -9 9 -9 15 0 24 28 28 -2 49 -45 31z"/>
<path d="M723 3116 c-11 -19 -73 -27 -73 -9 0 26 -25 12 -42 -24 -20 -42 -16
-53 9 -31 27 23 74 32 84 16 13 -20 11 -28 -7 -28 -11 0 -14 -5 -10 -16 3 -9
6 -29 6 -45 0 -16 5 -29 10 -29 6 0 10 11 10 25 0 18 5 25 20 25 17 0 19 4 14
28 -4 15 -12 30 -18 34 -6 4 -4 9 7 14 13 4 23 0 33 -15 18 -24 34 -28 34 -6
0 8 -4 15 -10 15 -5 0 -10 5 -10 10 0 6 9 10 20 10 11 0 20 5 20 11 0 7 -12
10 -30 7 -18 -3 -31 0 -34 9 -7 17 -23 17 -33 -1z"/>
<path d="M642 3048 c6 -18 28 -21 28 -4 0 9 -7 16 -16 16 -9 0 -14 -5 -12 -12z"/>
<path d="M753 3029 c4 -13 7 -34 7 -46 0 -13 5 -23 11 -23 16 0 7 83 -10 88
-10 4 -12 -1 -8 -19z"/>
<path d="M723 2666 c-11 -19 -73 -27 -73 -9 0 26 -25 12 -42 -24 -20 -42 -16
-53 9 -31 27 23 74 32 84 16 13 -20 11 -28 -7 -28 -11 0 -14 -5 -10 -16 3 -9
6 -29 6 -45 0 -37 20 -38 21 -1 0 15 3 21 6 15 2 -7 13 -13 24 -13 10 0 19 -4
19 -10 0 -5 5 -10 11 -10 16 0 7 83 -10 88 -11 4 -12 -2 -7 -24 5 -21 4 -25
-4 -14 -5 8 -10 23 -10 32 0 9 -6 18 -12 21 -9 3 -7 7 5 12 13 5 23 1 33 -14
18 -24 34 -28 34 -6 0 8 -4 15 -10 15 -5 0 -10 5 -10 10 0 6 9 10 20 10 11 0
20 5 20 11 0 7 -12 10 -30 7 -18 -3 -31 0 -34 9 -7 17 -23 17 -33 -1z"/>
<path d="M642 2598 c6 -18 28 -21 28 -4 0 9 -7 16 -16 16 -9 0 -14 -5 -12 -12z"/>
<path d="M723 2216 c-11 -19 -73 -27 -73 -9 0 26 -25 12 -42 -24 -20 -42 -16
-53 9 -31 27 23 74 32 84 16 13 -19 11 -28 -5 -28 -11 0 -13 -10 -9 -42 3 -24
6 -43 7 -44 0 0 20 1 44 4 l43 4 -3 41 c-2 23 -9 42 -17 45 -11 4 -12 -2 -7
-24 5 -21 4 -25 -4 -14 -5 8 -10 23 -10 32 0 9 -6 18 -12 21 -9 3 -7 7 5 12
13 5 23 1 33 -14 18 -24 34 -28 34 -6 0 8 -4 15 -10 15 -5 0 -10 5 -10 10 0 6
9 10 20 10 11 0 20 5 20 11 0 7 -12 10 -30 7 -18 -3 -31 0 -34 9 -7 17 -23 17
-33 -1z"/>
<path d="M642 2148 c6 -18 28 -21 28 -4 0 9 -7 16 -16 16 -9 0 -14 -5 -12 -12z"/>
<path d="M723 1766 c-11 -19 -73 -27 -73 -9 0 26 -25 12 -42 -24 -20 -42 -16
-53 9 -31 27 23 74 32 84 16 13 -20 11 -28 -7 -28 -11 0 -14 -5 -10 -16 3 -9
6 -28 6 -44 0 -26 3 -28 28 -26 15 2 35 4 45 5 15 1 18 8 15 43 -2 24 -9 43
-17 46 -11 4 -12 -2 -7 -24 5 -21 4 -25 -4 -14 -5 8 -10 23 -10 32 0 9 -6 18
-12 21 -9 3 -7 7 5 12 13 5 23 1 33 -14 18 -24 34 -28 34 -6 0 8 -4 15 -10 15
-5 0 -10 5 -10 10 0 6 9 10 20 10 11 0 20 5 20 11 0 7 -12 10 -30 7 -18 -3
-31 0 -34 9 -7 17 -23 17 -33 -1z"/>
<path d="M642 1698 c6 -18 28 -21 28 -4 0 9 -7 16 -16 16 -9 0 -14 -5 -12 -12z"/>
<path d="M723 1316 c-11 -19 -73 -27 -73 -9 0 26 -25 12 -42 -24 -20 -42 -16
-53 9 -31 27 23 74 32 84 16 13 -20 11 -28 -7 -28 -11 0 -14 -5 -10 -16 3 -9
6 -28 6 -44 0 -26 3 -28 28 -26 15 2 35 4 45 5 15 1 18 8 15 43 -2 24 -9 43
-17 46 -11 4 -12 -2 -7 -24 5 -21 4 -25 -4 -14 -5 8 -10 23 -10 32 0 9 -6 18
-12 21 -9 3 -7 7 5 12 13 5 23 1 33 -14 18 -24 34 -28 34 -6 0 8 -4 15 -10 15
-5 0 -10 5 -10 10 0 6 9 10 20 10 11 0 20 5 20 11 0 7 -12 10 -30 7 -18 -3
-31 0 -34 9 -7 17 -23 17 -33 -1z"/>
<path d="M642 1248 c6 -18 28 -21 28 -4 0 9 -7 16 -16 16 -9 0 -14 -5 -12 -12z"/>
<path d="M657 1133 c-10 -10 -8 -43 2 -43 9 0 21 24 21 41 0 11 -14 12 -23 2z"/>
<path d="M723 866 c-11 -19 -73 -27 -73 -9 0 26 -25 12 -42 -24 -20 -42 -16
-53 9 -31 27 23 74 32 84 16 13 -20 11 -28 -7 -28 -11 0 -14 -5 -10 -16 3 -9
6 -29 6 -46 0 -23 4 -29 15 -24 9 3 15 0 15 -9 0 -8 7 -15 16 -15 10 0 14 6
10 15 -4 10 1 15 15 15 17 0 20 5 17 42 -2 24 -9 43 -17 46 -11 4 -12 -2 -7
-24 5 -21 4 -25 -4 -14 -5 8 -10 23 -10 32 0 9 -6 18 -12 21 -9 3 -7 7 5 12
13 5 23 1 33 -14 18 -24 34 -28 34 -6 0 8 -4 15 -10 15 -5 0 -10 5 -10 10 0 6
9 10 20 10 11 0 20 5 20 11 0 7 -12 10 -30 7 -18 -3 -31 0 -34 9 -7 17 -23 17
-33 -1z"/>
<path d="M642 798 c6 -18 28 -21 28 -4 0 9 -7 16 -16 16 -9 0 -14 -5 -12 -12z"/>
<path d="M790 690 c0 -15 7 -20 25 -20 27 0 32 9 13 28 -18 18 -38 14 -38 -8z"/>
<path d="M657 683 c-8 -7 -9 -43 -2 -43 3 0 14 9 25 20 11 11 20 22 20 25 0 7
-36 6 -43 -2z"/>
<path d="M723 416 c-11 -19 -73 -27 -73 -9 0 26 -25 12 -42 -24 -20 -42 -16
-53 9 -31 27 23 74 32 84 16 13 -20 11 -28 -7 -28 -11 0 -14 -5 -10 -16 3 -9
6 -29 6 -46 0 -23 4 -29 15 -24 9 3 15 0 15 -9 0 -8 7 -15 16 -15 10 0 14 6
10 15 -4 10 1 15 15 15 17 0 20 5 17 42 -2 24 -9 43 -17 46 -11 4 -12 -2 -7
-24 5 -21 4 -25 -4 -14 -5 8 -10 23 -10 32 0 9 -6 18 -12 21 -9 3 -7 7 5 12
13 5 23 1 33 -14 18 -24 34 -28 34 -6 0 8 -4 15 -10 15 -5 0 -10 5 -10 10 0 6
9 10 20 10 11 0 20 5 20 11 0 7 -12 10 -30 7 -18 -3 -31 0 -34 9 -7 17 -23 17
-33 -1z"/>
<path d="M642 348 c6 -18 28 -21 28 -4 0 9 -7 16 -16 16 -9 0 -14 -5 -12 -12z"/>
<path d="M790 240 c0 -15 7 -20 25 -20 27 0 32 9 13 28 -18 18 -38 14 -38 -8z"/>
<path d="M657 233 c-9 -8 -9 -43 -1 -43 4 0 13 8 20 18 13 16 14 16 8 0 -3
-10 -2 -18 4 -18 15 0 34 28 27 40 -7 11 -48 14 -58 3z"/>
</g>
</svg>
