<?xml version="1.0" standalone="no"?>
<!DOCTYPE svg PUBLIC "-//W3C//DTD SVG 20010904//EN"
 "http://www.w3.org/TR/2001/REC-SVG-20010904/DTD/svg10.dtd">
<svg version="1.0" xmlns="http://www.w3.org/2000/svg"
 width="50.000000pt" height="725.000000pt" viewBox="0 0 50.000000 725.000000"
 preserveAspectRatio="xMidYMid meet">
<metadata>
Created by potrace 1.16, written by Peter Selinger 2001-2019
</metadata>
<g transform="translate(0.000000,725.000000) scale(0.100000,-0.100000)"
fill="#000000" stroke="none">
<path d="M110 7075 c0 -14 21 -45 31 -45 18 0 5 45 -13 48 -10 2 -18 1 -18 -3z"/>
<path d="M210 6629 c-7 -11 -9 -23 -7 -26 8 -7 47 21 47 34 0 21 -28 15 -40
-8z"/>
<path d="M110 6625 c0 -14 21 -45 31 -45 18 0 5 45 -13 48 -10 2 -18 1 -18 -3z"/>
<path d="M210 6179 c-7 -11 -9 -23 -7 -26 8 -7 47 21 47 34 0 21 -28 15 -40
-8z"/>
<path d="M110 6175 c0 -14 21 -45 31 -45 18 0 5 45 -13 48 -10 2 -18 1 -18 -3z"/>
<path d="M137 6120 c-39 -7 -54 -16 -44 -26 8 -9 147 17 147 28 0 9 -49 9
-103 -2z"/>
<path d="M168 5740 c5 -63 6 -62 -50 -74 -46 -10 -34 -30 13 -22 l41 7 -7 -53
c-3 -29 -8 -60 -10 -68 -6 -20 10 -44 24 -36 7 4 11 39 11 87 0 78 0 79 25 79
14 0 25 5 25 10 0 6 -12 10 -26 10 -26 0 -26 0 -19 60 6 55 5 60 -12 60 -17 0
-19 -6 -15 -60z"/>
<path d="M210 5729 c-7 -11 -9 -23 -7 -26 8 -7 47 21 47 34 0 21 -28 15 -40
-8z"/>
<path d="M110 5725 c0 -14 21 -45 31 -45 18 0 5 45 -13 48 -10 2 -18 1 -18 -3z"/>
<path d="M168 5290 c5 -63 6 -62 -50 -74 -46 -10 -34 -30 13 -22 l41 7 -7 -53
c-3 -29 -8 -60 -10 -68 -6 -20 10 -44 24 -36 7 4 11 39 11 87 0 78 0 79 25 79
14 0 25 5 25 10 0 6 -12 10 -26 10 -26 0 -26 0 -19 60 6 55 5 60 -12 60 -17 0
-19 -6 -15 -60z"/>
<path d="M210 5279 c-7 -11 -9 -23 -7 -26 8 -7 47 21 47 34 0 21 -28 15 -40
-8z"/>
<path d="M110 5275 c0 -14 21 -45 31 -45 18 0 5 45 -13 48 -10 2 -18 1 -18 -3z"/>
<path d="M102 5134 c-13 -26 -21 -49 -18 -52 15 -14 73 69 61 88 -11 18 -21
10 -43 -36z"/>
<path d="M168 4840 c5 -63 6 -62 -50 -74 -46 -10 -34 -30 13 -22 l41 7 -7 -53
c-3 -29 -8 -60 -10 -68 -6 -20 10 -44 24 -36 7 4 11 39 11 87 0 78 0 79 25 79
14 0 25 5 25 10 0 6 -12 10 -26 10 -26 0 -26 0 -19 60 6 55 5 60 -12 60 -17 0
-19 -6 -15 -60z"/>
<path d="M210 4829 c-7 -11 -9 -23 -7 -26 8 -7 47 21 47 34 0 21 -28 15 -40
-8z"/>
<path d="M110 4825 c0 -14 21 -45 31 -45 18 0 5 45 -13 48 -10 2 -18 1 -18 -3z"/>
<path d="M102 4684 c-13 -26 -21 -49 -18 -52 15 -14 73 69 61 88 -11 18 -21
10 -43 -36z"/>
<path d="M200 4719 c0 -17 20 -49 30 -49 14 0 12 34 -2 48 -15 15 -28 15 -28
1z"/>
<path d="M168 4390 c5 -63 6 -62 -50 -74 -46 -10 -34 -30 13 -22 l41 7 -7 -53
c-3 -29 -8 -60 -10 -68 -6 -20 10 -44 24 -36 7 4 11 39 11 87 0 78 0 79 25 79
14 0 25 5 25 10 0 6 -12 10 -26 10 -26 0 -26 0 -19 60 6 55 5 60 -12 60 -17 0
-19 -6 -15 -60z"/>
<path d="M210 4379 c-7 -11 -9 -23 -7 -26 8 -7 47 21 47 34 0 21 -28 15 -40
-8z"/>
<path d="M348 4393 c-22 -5 -24 -23 -3 -23 11 0 15 -11 15 -40 0 -53 11 -51
32 7 21 58 11 71 -44 56z"/>
<path d="M110 4375 c0 -14 21 -45 31 -45 18 0 5 45 -13 48 -10 2 -18 1 -18 -3z"/>
<path d="M270 4370 c0 -5 11 -10 25 -10 14 0 25 5 25 10 0 6 -11 10 -25 10
-14 0 -25 -4 -25 -10z"/>
<path d="M102 4234 c-13 -26 -21 -49 -18 -52 15 -14 73 69 61 88 -11 18 -21
10 -43 -36z"/>
<path d="M200 4269 c0 -17 20 -49 30 -49 14 0 12 34 -2 48 -15 15 -28 15 -28
1z"/>
<path d="M168 3940 c5 -63 6 -62 -50 -74 -46 -10 -34 -30 13 -22 l41 7 -7 -53
c-3 -29 -8 -60 -10 -68 -6 -20 10 -44 24 -36 7 4 11 39 11 87 0 78 0 79 25 79
14 0 25 5 25 10 0 6 -12 10 -26 10 -26 0 -26 0 -19 60 6 55 5 60 -12 60 -17 0
-19 -6 -15 -60z"/>
<path d="M210 3929 c-7 -11 -9 -23 -7 -26 8 -7 47 21 47 34 0 21 -28 15 -40
-8z"/>
<path d="M345 3940 c-11 -5 -32 -9 -47 -9 -32 -1 -39 -21 -8 -21 16 0 20 -7
20 -35 0 -48 16 -44 24 5 3 22 11 40 16 40 6 0 10 -18 10 -40 0 -53 11 -51 32
7 13 36 14 49 5 55 -15 9 -26 9 -52 -2z"/>
<path d="M110 3925 c0 -14 21 -45 31 -45 18 0 5 45 -13 48 -10 2 -18 1 -18 -3z"/>
<path d="M102 3784 c-13 -26 -21 -49 -18 -52 15 -14 73 69 61 88 -11 18 -21
10 -43 -36z"/>
<path d="M200 3819 c0 -17 20 -49 30 -49 14 0 12 34 -2 48 -15 15 -28 15 -28
1z"/>
<path d="M168 3490 c5 -63 6 -62 -50 -74 -46 -10 -34 -30 13 -22 l41 7 -7 -53
c-3 -29 -8 -60 -10 -68 -6 -20 10 -44 24 -36 7 4 11 39 11 87 0 78 0 79 25 79
14 0 25 5 25 10 0 6 -12 10 -26 10 -26 0 -26 0 -19 60 6 55 5 60 -12 60 -17 0
-19 -6 -15 -60z"/>
<path d="M210 3479 c-7 -11 -9 -23 -7 -26 8 -7 47 21 47 34 0 21 -28 15 -40
-8z"/>
<path d="M345 3490 c-11 -5 -32 -9 -47 -9 -32 -1 -39 -21 -7 -21 30 0 23 -54
-8 -58 -42 -6 -24 -22 25 -22 58 0 64 4 85 59 13 35 14 47 4 53 -15 9 -26 9
-52 -2z m15 -50 c0 -20 -5 -30 -15 -30 -17 0 -18 4 -9 38 9 32 24 27 24 -8z"/>
<path d="M110 3475 c0 -14 21 -45 31 -45 18 0 5 45 -13 48 -10 2 -18 1 -18 -3z"/>
<path d="M102 3334 c-13 -26 -21 -49 -18 -52 15 -14 73 69 61 88 -11 18 -21
10 -43 -36z"/>
<path d="M200 3369 c0 -17 20 -49 30 -49 14 0 12 34 -2 48 -15 15 -28 15 -28
1z"/>
<path d="M168 3040 c5 -63 6 -62 -50 -74 -46 -10 -34 -30 13 -22 l41 7 -7 -53
c-3 -29 -8 -60 -10 -68 -6 -20 10 -44 24 -36 7 4 11 39 11 87 0 78 0 79 25 79
14 0 25 5 25 10 0 6 -12 10 -26 10 -26 0 -26 0 -19 60 6 55 5 60 -12 60 -17 0
-19 -6 -15 -60z"/>
<path d="M210 3029 c-13 -24 -5 -38 12 -21 24 24 28 10 28 -92 l0 -104 36 -12
c36 -12 107 -7 133 9 9 6 11 18 7 35 -8 31 -22 34 -29 5 -5 -18 -12 -20 -64
-17 l-58 3 -3 48 -3 47 43 0 c54 0 60 5 81 59 19 49 10 67 -28 55 -46 -13
-115 -16 -115 -5 0 19 -29 12 -40 -10z m150 -39 c0 -20 -5 -30 -15 -30 -17 0
-18 4 -9 38 9 32 24 27 24 -8z m-50 -5 c0 -14 -7 -28 -15 -32 -22 -8 -27 0
-19 31 8 34 34 34 34 1z"/>
<path d="M110 3025 c0 -14 21 -45 31 -45 18 0 5 45 -13 48 -10 2 -18 1 -18 -3z"/>
<path d="M102 2884 c-13 -26 -21 -49 -18 -52 15 -14 73 69 61 88 -11 18 -21
10 -43 -36z"/>
<path d="M200 2919 c0 -17 20 -49 30 -49 14 0 12 34 -2 48 -15 15 -28 15 -28
1z"/>
</g>
</svg>
