<?xml version="1.0" standalone="no"?>
<!DOCTYPE svg PUBLIC "-//W3C//DTD SVG 20010904//EN"
 "http://www.w3.org/TR/2001/REC-SVG-20010904/DTD/svg10.dtd">
<svg version="1.0" xmlns="http://www.w3.org/2000/svg"
 width="95.000000pt" height="725.000000pt" viewBox="0 0 95.000000 725.000000"
 preserveAspectRatio="xMidYMid meet">
<metadata>
Created by potrace 1.16, written by Peter Selinger 2001-2019
</metadata>
<g transform="translate(0.000000,725.000000) scale(0.100000,-0.100000)"
fill="#000000" stroke="none">
<path d="M274 7143 c-11 -16 -19 -32 -19 -38 -1 -27 -41 -75 -62 -75 -13 0
-23 4 -23 10 0 5 6 7 13 4 17 -6 51 31 42 45 -10 18 -25 13 -35 -11 -7 -19 -9
-16 -9 20 -1 30 -5 42 -16 42 -12 0 -15 -13 -15 -59 0 -57 -1 -59 -30 -64 -16
-4 -30 -12 -30 -18 0 -8 11 -9 31 -5 l31 6 -7 -86 c-6 -71 -5 -86 6 -82 10 3
15 30 19 89 l5 84 35 6 c19 4 45 10 58 14 31 10 27 -6 -11 -43 -30 -29 -35
-31 -47 -17 -27 32 -42 6 -17 -29 13 -18 16 -17 58 8 l44 27 -29 -26 c-32 -30
-29 -43 6 -24 l23 12 -24 -27 c-29 -31 -21 -45 13 -22 43 27 43 17 1 -19 -22
-18 -36 -37 -33 -41 8 -8 67 27 92 55 15 16 16 22 4 43 -7 12 -15 25 -18 28
-3 3 -6 13 -7 23 -1 16 3 15 26 -7 25 -24 81 -37 81 -18 0 4 -25 20 -55 36
-30 16 -55 32 -55 36 0 11 26 20 56 20 29 0 31 15 4 32 -11 7 -20 23 -20 35 0
12 -12 30 -29 42 -36 26 -35 26 -57 -6z m41 -13 c-3 -5 -11 -10 -16 -10 -6 0
-7 5 -4 10 3 6 11 10 16 10 6 0 7 -4 4 -10z m25 -26 c0 -3 -7 -18 -16 -34 -16
-27 -17 -27 -35 -9 -24 24 -24 28 4 39 26 10 47 12 47 4z"/>
<path d="M100 7068 c0 -16 19 -38 33 -38 4 0 7 10 5 22 -3 25 -38 39 -38 16z"/>
<path d="M550 7068 c0 -16 19 -38 33 -38 4 0 7 10 5 22 -3 25 -38 39 -38 16z"/>
<path d="M102 6953 c-5 -16 -13 -36 -17 -45 -4 -11 -3 -18 4 -18 13 0 51 58
51 78 0 23 -28 12 -38 -15z"/>
<path d="M639 6624 c-5 -15 -7 -29 -4 -32 9 -10 48 35 41 47 -12 18 -26 12
-37 -15z"/>
<path d="M550 6618 c0 -16 19 -38 33 -38 4 0 7 10 5 22 -3 25 -38 39 -38 16z"/>
<path d="M639 6174 c-5 -15 -7 -29 -4 -32 9 -10 48 35 41 47 -12 18 -26 12
-37 -15z"/>
<path d="M550 6168 c0 -16 19 -38 33 -38 4 0 7 10 5 22 -3 25 -38 39 -38 16z"/>
<path d="M587 6120 c-39 -7 -54 -16 -45 -26 8 -8 128 18 128 28 0 9 -29 9 -83
-2z"/>
<path d="M600 5731 c0 -57 -1 -59 -30 -64 -16 -4 -30 -12 -30 -18 0 -8 11 -9
31 -5 l31 6 -7 -86 c-6 -71 -5 -86 6 -82 10 3 15 30 19 89 5 78 7 84 28 87 30
5 28 22 -3 22 -14 0 -25 4 -25 10 0 5 6 7 13 4 17 -6 51 31 42 45 -10 18 -25
13 -35 -11 -7 -19 -9 -16 -9 20 -1 30 -5 42 -16 42 -12 0 -15 -13 -15 -59z"/>
<path d="M550 5718 c0 -16 19 -38 33 -38 4 0 7 10 5 22 -3 25 -38 39 -38 16z"/>
<path d="M600 5281 c0 -57 -1 -59 -30 -64 -16 -4 -30 -12 -30 -18 0 -8 11 -9
31 -5 l31 6 -7 -86 c-6 -71 -5 -86 6 -82 10 3 15 30 19 89 5 78 7 84 28 87 30
5 28 22 -3 22 -14 0 -25 4 -25 10 0 5 6 7 13 4 17 -6 51 31 42 45 -10 18 -25
13 -35 -11 -7 -19 -9 -16 -9 20 -1 30 -5 42 -16 42 -12 0 -15 -13 -15 -59z"/>
<path d="M550 5268 c0 -16 19 -38 33 -38 4 0 7 10 5 22 -3 25 -38 39 -38 16z"/>
<path d="M552 5153 c-5 -16 -13 -36 -17 -45 -4 -11 -3 -18 4 -18 13 0 51 58
51 78 0 23 -28 12 -38 -15z"/>
<path d="M600 4831 c0 -57 -1 -59 -30 -64 -16 -4 -30 -12 -30 -18 0 -8 11 -9
31 -5 l31 6 -7 -86 c-6 -71 -5 -86 6 -82 10 3 15 30 19 89 5 78 7 84 28 87 30
5 28 22 -3 22 -14 0 -25 4 -25 10 0 5 6 7 13 4 17 -6 51 31 42 45 -10 18 -25
13 -35 -11 -7 -19 -9 -16 -9 20 -1 30 -5 42 -16 42 -12 0 -15 -13 -15 -59z"/>
<path d="M550 4818 c0 -16 19 -38 33 -38 4 0 7 10 5 22 -3 25 -38 39 -38 16z"/>
<path d="M552 4703 c-5 -16 -13 -36 -17 -45 -4 -11 -3 -18 4 -18 13 0 51 58
51 78 0 23 -28 12 -38 -15z"/>
<path d="M630 4719 c0 -17 20 -49 30 -49 14 0 12 34 -2 48 -15 15 -28 15 -28
1z"/>
<path d="M721 4439 c-29 -39 -17 -52 32 -37 43 13 51 33 10 24 -26 -6 -27 -5
-9 8 10 8 15 19 11 25 -10 17 -20 13 -44 -20z"/>
<path d="M600 4381 c0 -57 -1 -59 -30 -64 -16 -4 -30 -12 -30 -18 0 -8 11 -9
31 -5 l31 6 -7 -86 c-6 -71 -5 -86 6 -82 10 3 15 30 19 89 5 78 7 84 28 87 30
5 28 22 -3 22 -14 0 -25 4 -25 10 0 5 6 7 13 4 17 -6 51 31 42 45 -10 18 -25
13 -35 -11 -7 -19 -9 -16 -9 20 -1 30 -5 42 -16 42 -12 0 -15 -13 -15 -59z"/>
<path d="M550 4368 c0 -16 19 -38 33 -38 4 0 7 10 5 22 -3 25 -38 39 -38 16z"/>
<path d="M552 4253 c-5 -16 -13 -36 -17 -45 -4 -11 -3 -18 4 -18 13 0 51 58
51 78 0 23 -28 12 -38 -15z"/>
<path d="M630 4269 c0 -17 20 -49 30 -49 14 0 12 34 -2 48 -15 15 -28 15 -28
1z"/>
<path d="M721 3989 c-28 -37 -17 -55 24 -39 15 6 36 8 46 5 30 -10 23 21 -10
44 -16 12 -31 21 -33 21 -2 0 -15 -14 -27 -31z m44 -9 c-3 -5 -11 -10 -16 -10
-6 0 -7 5 -4 10 3 6 11 10 16 10 6 0 7 -4 4 -10z"/>
<path d="M600 3931 c0 -57 -1 -59 -30 -64 -16 -4 -30 -12 -30 -18 0 -8 11 -9
31 -5 l31 6 -7 -86 c-6 -71 -5 -86 6 -82 10 3 15 30 19 89 5 78 7 84 28 87 30
5 28 22 -3 22 -14 0 -25 4 -25 10 0 5 6 7 13 4 17 -6 51 31 42 45 -10 18 -25
13 -35 -11 -7 -19 -9 -16 -9 20 -1 30 -5 42 -16 42 -12 0 -15 -13 -15 -59z"/>
<path d="M550 3918 c0 -16 19 -38 33 -38 4 0 7 10 5 22 -3 25 -38 39 -38 16z"/>
<path d="M552 3803 c-5 -16 -13 -36 -17 -45 -4 -11 -3 -18 4 -18 13 0 51 58
51 78 0 23 -28 12 -38 -15z"/>
<path d="M630 3819 c0 -17 20 -49 30 -49 14 0 12 34 -2 48 -15 15 -28 15 -28
1z"/>
<path d="M724 3543 c-11 -16 -19 -32 -19 -38 -1 -27 -41 -75 -62 -75 -13 0
-23 4 -23 10 0 5 6 7 13 4 17 -6 51 31 42 45 -10 18 -25 13 -35 -11 -7 -19 -9
-16 -9 20 -1 30 -5 42 -16 42 -12 0 -15 -13 -15 -59 0 -57 -1 -59 -30 -64 -16
-4 -30 -12 -30 -18 0 -8 11 -9 31 -5 l31 6 -7 -86 c-6 -71 -5 -86 6 -82 10 3
15 30 19 89 5 81 6 84 30 87 35 4 80 23 80 33 0 5 -4 9 -9 9 -5 0 -7 9 -4 21
7 24 47 42 74 34 30 -10 23 21 -10 44 -36 26 -35 26 -57 -6z m41 -13 c-3 -5
-11 -10 -16 -10 -6 0 -7 5 -4 10 3 6 11 10 16 10 6 0 7 -4 4 -10z"/>
<path d="M550 3468 c0 -16 19 -38 33 -38 4 0 7 10 5 22 -3 25 -38 39 -38 16z"/>
<path d="M552 3353 c-5 -16 -13 -36 -17 -45 -4 -11 -3 -18 4 -18 13 0 51 58
51 78 0 23 -28 12 -38 -15z"/>
<path d="M630 3369 c0 -17 20 -49 30 -49 14 0 12 34 -2 48 -15 15 -28 15 -28
1z"/>
<path d="M724 3093 c-11 -16 -19 -32 -19 -38 -1 -27 -41 -75 -62 -75 -13 0
-23 4 -23 10 0 5 6 7 13 4 17 -6 51 31 42 45 -10 18 -25 13 -35 -11 -7 -19 -9
-16 -9 20 -1 30 -5 42 -16 42 -12 0 -15 -13 -15 -59 0 -57 -1 -59 -30 -64 -16
-4 -30 -12 -30 -18 0 -8 11 -9 31 -5 l31 6 -7 -86 c-6 -71 -5 -86 6 -82 10 3
15 30 19 89 l5 84 35 7 c74 15 90 21 90 34 0 7 -8 17 -17 23 -26 15 -2 35 42
35 43 0 45 17 6 45 -36 26 -35 26 -57 -6z m41 -13 c-3 -5 -11 -10 -16 -10 -6
0 -7 5 -4 10 3 6 11 10 16 10 6 0 7 -4 4 -10z"/>
<path d="M550 3018 c0 -16 19 -38 33 -38 4 0 7 10 5 22 -3 25 -38 39 -38 16z"/>
<path d="M552 2903 c-5 -16 -13 -36 -17 -45 -4 -11 -3 -18 4 -18 13 0 51 58
51 78 0 23 -28 12 -38 -15z"/>
<path d="M630 2919 c0 -17 20 -49 30 -49 14 0 12 34 -2 48 -15 15 -28 15 -28
1z"/>
<path d="M724 2643 c-11 -16 -19 -32 -19 -38 -1 -27 -41 -75 -62 -75 -13 0
-23 4 -23 10 0 5 6 7 13 4 17 -6 51 31 42 45 -10 18 -25 13 -35 -11 -7 -19 -9
-16 -9 20 -1 30 -5 42 -16 42 -12 0 -15 -13 -15 -59 0 -57 -1 -59 -30 -64 -16
-4 -30 -12 -30 -18 0 -8 11 -9 31 -5 l31 6 -7 -86 c-6 -71 -5 -86 6 -82 10 3
15 30 19 89 l5 84 35 7 c74 15 90 21 90 34 0 7 -8 17 -17 23 -22 12 -10 27 30
36 32 8 33 3 10 -36 -20 -34 -15 -42 21 -33 24 6 37 24 18 24 -4 0 -6 15 -4
34 3 28 -1 37 -26 55 -38 26 -36 26 -58 -6z m41 -13 c-3 -5 -11 -10 -16 -10
-6 0 -7 5 -4 10 3 6 11 10 16 10 6 0 7 -4 4 -10z"/>
<path d="M550 2568 c0 -16 19 -38 33 -38 4 0 7 10 5 22 -3 25 -38 39 -38 16z"/>
<path d="M552 2453 c-5 -16 -13 -36 -17 -45 -4 -11 -3 -18 4 -18 13 0 51 58
51 78 0 23 -28 12 -38 -15z"/>
<path d="M630 2469 c0 -17 20 -49 30 -49 14 0 12 34 -2 48 -15 15 -28 15 -28
1z"/>
<path d="M724 2193 c-11 -16 -19 -32 -19 -38 -1 -27 -41 -75 -62 -75 -13 0
-23 4 -23 10 0 5 6 7 13 4 17 -6 51 31 42 45 -10 18 -25 13 -35 -11 -7 -19 -9
-16 -9 20 -1 30 -5 42 -16 42 -12 0 -15 -13 -15 -59 0 -57 -1 -59 -30 -64 -16
-4 -30 -12 -30 -18 0 -8 11 -9 31 -5 l31 6 -7 -86 c-6 -71 -5 -86 6 -82 10 3
15 30 19 89 l5 84 35 7 c74 15 90 21 90 34 0 7 -8 17 -17 23 -22 12 -10 27 30
36 30 8 34 -2 12 -31 -26 -35 -19 -45 28 -38 54 9 57 12 30 34 -13 10 -23 27
-23 38 0 17 -46 62 -63 62 -3 0 -13 -12 -23 -27z m41 -13 c-3 -5 -11 -10 -16
-10 -6 0 -7 5 -4 10 3 6 11 10 16 10 6 0 7 -4 4 -10z"/>
<path d="M550 2118 c0 -16 19 -38 33 -38 4 0 7 10 5 22 -3 25 -38 39 -38 16z"/>
<path d="M552 2003 c-5 -16 -13 -36 -17 -45 -4 -11 -3 -18 4 -18 13 0 51 58
51 78 0 23 -28 12 -38 -15z"/>
<path d="M630 2019 c0 -17 20 -49 30 -49 14 0 12 34 -2 48 -15 15 -28 15 -28
1z"/>
<path d="M724 1743 c-11 -16 -19 -32 -19 -38 -1 -27 -41 -75 -62 -75 -13 0
-23 4 -23 10 0 5 6 7 13 4 17 -6 51 31 42 45 -10 18 -25 13 -35 -11 -7 -19 -9
-16 -9 20 -1 30 -5 42 -16 42 -12 0 -15 -13 -15 -59 0 -57 -1 -59 -30 -64 -16
-4 -30 -12 -30 -18 0 -8 11 -9 31 -5 l31 6 -7 -86 c-6 -71 -5 -86 6 -82 10 3
15 30 19 89 l5 84 35 6 c19 4 45 10 58 14 31 10 27 -6 -11 -43 -30 -29 -35
-31 -47 -17 -27 32 -42 6 -17 -29 13 -18 15 -18 43 -1 42 27 84 67 84 81 0 14
23 24 56 24 29 0 31 15 4 32 -11 7 -20 23 -20 35 0 12 -12 30 -29 42 -36 26
-35 26 -57 -6z m41 -13 c-3 -5 -11 -10 -16 -10 -6 0 -7 5 -4 10 3 6 11 10 16
10 6 0 7 -4 4 -10z m25 -26 c0 -3 -7 -18 -16 -34 -16 -27 -17 -27 -35 -9 -24
24 -24 28 4 39 26 10 47 12 47 4z"/>
<path d="M550 1668 c0 -16 19 -38 33 -38 4 0 7 10 5 22 -3 25 -38 39 -38 16z"/>
<path d="M552 1553 c-5 -16 -13 -36 -17 -45 -4 -11 -3 -18 4 -18 13 0 51 58
51 78 0 23 -28 12 -38 -15z"/>
<path d="M724 1293 c-11 -16 -19 -32 -19 -38 -1 -27 -41 -75 -62 -75 -13 0
-23 4 -23 10 0 5 6 7 13 4 17 -6 51 31 42 45 -10 18 -25 13 -35 -11 -7 -19 -9
-16 -9 20 -1 30 -5 42 -16 42 -12 0 -15 -13 -15 -59 0 -57 -1 -59 -30 -64 -16
-4 -30 -12 -30 -18 0 -8 11 -9 31 -5 l31 6 -7 -86 c-6 -71 -5 -86 6 -82 10 3
15 30 19 89 l5 84 35 6 c19 4 45 10 58 14 31 10 27 -6 -11 -43 -30 -29 -35
-31 -47 -17 -27 32 -42 6 -17 -29 13 -18 16 -17 57 10 24 16 49 33 56 39 9 7
21 2 42 -18 26 -25 82 -38 82 -19 0 4 -25 20 -55 36 -30 16 -55 32 -55 36 0
11 26 20 56 20 29 0 31 15 4 32 -11 7 -20 23 -20 35 0 12 -12 30 -29 42 -36
26 -35 26 -57 -6z m41 -13 c-3 -5 -11 -10 -16 -10 -6 0 -7 5 -4 10 3 6 11 10
16 10 6 0 7 -4 4 -10z m25 -26 c0 -3 -7 -18 -16 -34 -16 -27 -17 -27 -35 -9
-24 24 -24 28 4 39 26 10 47 12 47 4z"/>
<path d="M550 1218 c0 -16 19 -38 33 -38 4 0 7 10 5 22 -3 25 -38 39 -38 16z"/>
<path d="M552 1103 c-5 -16 -13 -36 -17 -45 -4 -11 -3 -18 4 -18 13 0 51 58
51 78 0 23 -28 12 -38 -15z"/>
<path d="M724 843 c-11 -16 -19 -32 -19 -38 -1 -27 -41 -75 -62 -75 -13 0 -23
4 -23 10 0 5 6 7 13 4 17 -6 51 31 42 45 -10 18 -25 13 -35 -11 -7 -19 -9 -16
-9 20 -1 30 -5 42 -16 42 -12 0 -15 -13 -15 -59 0 -57 -1 -59 -30 -64 -16 -4
-30 -12 -30 -18 0 -8 11 -9 31 -5 l31 6 -7 -86 c-6 -71 -5 -86 6 -82 10 3 15
30 19 89 l5 84 35 6 c19 4 45 10 58 14 31 10 27 -6 -11 -43 -30 -29 -35 -31
-47 -17 -27 32 -42 6 -17 -29 13 -18 16 -17 58 8 l44 27 -29 -26 c-34 -31 -29
-42 11 -21 38 19 57 42 47 58 -4 7 6 1 23 -14 27 -26 83 -39 83 -20 0 4 -25
20 -55 36 -30 16 -55 32 -55 36 0 11 26 20 56 20 29 0 31 15 4 32 -11 7 -20
23 -20 35 0 12 -12 30 -29 42 -36 26 -35 26 -57 -6z m41 -13 c-3 -5 -11 -10
-16 -10 -6 0 -7 5 -4 10 3 6 11 10 16 10 6 0 7 -4 4 -10z m25 -26 c0 -3 -7
-18 -16 -34 -16 -27 -17 -27 -35 -9 -24 24 -24 28 4 39 26 10 47 12 47 4z"/>
<path d="M550 768 c0 -16 19 -38 33 -38 4 0 7 10 5 22 -3 25 -38 39 -38 16z"/>
<path d="M552 653 c-5 -16 -13 -36 -17 -45 -4 -11 -3 -18 4 -18 13 0 51 58 51
78 0 23 -28 12 -38 -15z"/>
<path d="M724 393 c-11 -16 -19 -32 -19 -38 -1 -27 -41 -75 -62 -75 -13 0 -23
4 -23 10 0 5 6 7 13 4 17 -6 51 31 42 45 -10 18 -25 13 -35 -11 -7 -19 -9 -16
-9 20 -1 30 -5 42 -16 42 -12 0 -15 -13 -15 -59 0 -57 -1 -59 -30 -64 -16 -4
-30 -12 -30 -18 0 -8 11 -9 31 -5 l31 6 -7 -86 c-6 -71 -5 -86 6 -82 10 3 15
30 19 89 l5 84 35 6 c19 4 45 10 58 14 31 10 27 -6 -11 -43 -30 -29 -35 -31
-47 -17 -27 32 -42 6 -17 -29 13 -18 16 -17 58 8 l44 27 -29 -26 c-32 -30 -29
-43 6 -24 l23 12 -24 -27 c-34 -37 -19 -44 29 -12 35 23 54 56 32 56 -4 0 -8
9 -8 20 0 18 2 18 26 -5 24 -23 80 -35 80 -17 0 4 -25 20 -55 36 -30 16 -55
32 -55 36 0 11 26 20 56 20 29 0 31 15 4 32 -11 7 -20 23 -20 35 0 12 -12 30
-29 42 -36 26 -35 26 -57 -6z m41 -13 c-3 -5 -11 -10 -16 -10 -6 0 -7 5 -4 10
3 6 11 10 16 10 6 0 7 -4 4 -10z m25 -26 c0 -3 -7 -18 -16 -34 -16 -27 -17
-27 -35 -9 -24 24 -24 28 4 39 26 10 47 12 47 4z"/>
<path d="M550 318 c0 -16 19 -38 33 -38 4 0 7 10 5 22 -3 25 -38 39 -38 16z"/>
<path d="M552 203 c-5 -16 -13 -36 -17 -45 -4 -11 -3 -18 4 -18 13 0 51 58 51
78 0 23 -28 12 -38 -15z"/>
</g>
</svg>
