<?xml version="1.0" standalone="no"?>
<!DOCTYPE svg PUBLIC "-//W3C//DTD SVG 20010904//EN"
 "http://www.w3.org/TR/2001/REC-SVG-20010904/DTD/svg10.dtd">
<svg version="1.0" xmlns="http://www.w3.org/2000/svg"
 width="50.000000pt" height="725.000000pt" viewBox="0 0 50.000000 725.000000"
 preserveAspectRatio="xMidYMid meet">
<metadata>
Created by potrace 1.16, written by Peter Selinger 2001-2019
</metadata>
<g transform="translate(0.000000,725.000000) scale(0.100000,-0.100000)"
fill="#000000" stroke="none">
<path d="M241 7162 c-6 -10 -26 -30 -45 -43 -37 -25 -45 -39 -24 -39 20 0 118
63 118 76 0 7 -7 15 -16 18 -22 8 -22 8 -33 -12z"/>
<path d="M241 6712 c-6 -10 -26 -30 -45 -43 -37 -25 -45 -39 -24 -39 20 0 118
63 118 76 0 7 -7 15 -16 18 -22 8 -22 8 -33 -12z"/>
<path d="M255 6657 c-9 -14 -32 -36 -50 -49 -19 -12 -35 -31 -35 -42 0 -15 5
-17 31 -12 17 3 38 6 45 6 8 0 14 5 14 10 0 6 -12 10 -27 10 -26 0 -25 2 19
33 45 30 57 56 31 64 -6 2 -19 -7 -28 -20z"/>
<path d="M241 6262 c-6 -10 -26 -30 -45 -43 -37 -25 -45 -39 -24 -39 20 0 118
63 118 76 0 7 -7 15 -16 18 -22 8 -22 8 -33 -12z"/>
<path d="M255 6207 c-9 -14 -32 -36 -50 -49 -19 -12 -35 -31 -35 -42 0 -15 5
-18 33 -13 l32 6 -37 -22 c-43 -25 -54 -63 -15 -54 138 35 157 41 146 51 -2 2
-26 0 -54 -4 -27 -4 -51 -7 -53 -5 -1 1 25 16 58 34 57 31 73 52 49 67 -6 3
-23 -6 -38 -20 -17 -16 -38 -26 -57 -26 -28 0 -28 1 18 33 45 30 57 56 31 64
-6 2 -19 -7 -28 -20z"/>
<path d="M241 5812 c-6 -10 -26 -30 -45 -43 -37 -25 -45 -39 -24 -39 20 0 118
63 118 76 0 7 -7 15 -16 18 -22 8 -22 8 -33 -12z"/>
<path d="M255 5757 c-9 -14 -32 -36 -50 -49 -19 -12 -35 -31 -35 -42 0 -15 5
-18 33 -13 l32 6 -37 -22 c-43 -25 -54 -63 -15 -54 12 3 49 13 82 21 53 14 61
14 71 1 6 -8 16 -15 23 -15 19 0 12 38 -11 54 -28 20 -38 20 -38 2 0 -9 -15
-15 -42 -18 -24 -3 -44 -4 -46 -3 -1 1 25 16 58 34 57 31 73 52 49 67 -6 3
-23 -6 -38 -20 -17 -16 -38 -26 -57 -26 -28 0 -28 1 18 33 45 30 57 56 31 64
-6 2 -19 -7 -28 -20z"/>
<path d="M241 5362 c-6 -10 -26 -30 -45 -43 -37 -25 -45 -39 -24 -39 20 0 118
63 118 76 0 7 -7 15 -16 18 -22 8 -22 8 -33 -12z"/>
<path d="M255 5307 c-9 -14 -32 -36 -50 -49 -19 -12 -35 -31 -35 -42 0 -15 5
-18 33 -13 l32 6 -37 -22 c-22 -13 -38 -30 -38 -41 0 -19 9 -19 68 -1 21 7 22
5 22 -44 0 -41 -3 -49 -15 -45 -21 9 -19 -10 4 -30 29 -27 41 -11 41 54 0 40
5 64 16 74 19 20 33 20 40 1 4 -8 12 -15 20 -15 22 0 16 37 -8 54 -28 20 -38
20 -38 2 0 -9 -15 -15 -42 -18 -24 -3 -44 -4 -46 -3 -1 1 25 16 58 34 57 31
73 52 49 67 -6 3 -23 -6 -38 -20 -17 -16 -38 -26 -57 -26 -28 0 -28 1 18 33
45 30 57 56 31 64 -6 2 -19 -7 -28 -20z"/>
<path d="M241 4912 c-6 -10 -26 -30 -45 -43 -37 -25 -45 -39 -24 -39 20 0 118
63 118 76 0 7 -7 15 -16 18 -22 8 -22 8 -33 -12z"/>
<path d="M255 4857 c-9 -14 -32 -36 -50 -49 -19 -12 -35 -31 -35 -42 0 -15 5
-18 33 -13 l32 6 -38 -22 c-33 -19 -37 -25 -32 -51 4 -22 -1 -36 -17 -53 -12
-12 -18 -26 -15 -30 12 -12 62 33 62 56 1 22 20 41 43 41 8 0 12 -17 12 -50 0
-40 -3 -48 -15 -44 -21 9 -19 -10 4 -30 29 -27 41 -11 41 54 0 40 5 64 16 74
19 20 33 20 40 1 4 -8 12 -15 20 -15 22 0 16 37 -8 54 -28 20 -38 20 -38 2 0
-9 -15 -15 -42 -18 -24 -3 -44 -4 -46 -3 -1 1 25 16 58 34 57 31 73 52 49 67
-6 3 -23 -6 -38 -20 -17 -16 -38 -26 -57 -26 -28 0 -28 1 18 33 45 30 57 56
31 64 -6 2 -19 -7 -28 -20z"/>
<path d="M241 4462 c-6 -10 -26 -30 -45 -43 -37 -25 -45 -39 -24 -39 20 0 118
63 118 76 0 7 -7 15 -16 18 -22 8 -22 8 -33 -12z"/>
<path d="M255 4407 c-9 -14 -32 -36 -50 -49 -19 -12 -35 -31 -35 -42 0 -15 5
-18 33 -13 l32 6 -38 -22 c-33 -19 -37 -25 -32 -51 4 -22 -1 -36 -17 -53 -12
-12 -18 -26 -15 -30 12 -12 62 33 62 56 1 22 20 41 43 41 8 0 12 -17 12 -50 0
-40 -3 -48 -15 -44 -21 9 -19 -10 4 -30 29 -27 41 -11 41 54 0 40 5 64 16 74
19 20 33 20 40 1 4 -8 12 -15 20 -15 22 0 16 37 -8 54 -28 20 -38 20 -38 2 0
-9 -15 -15 -42 -18 -24 -3 -44 -4 -46 -3 -1 1 25 16 58 34 57 31 73 52 49 67
-6 3 -23 -6 -38 -20 -17 -16 -38 -26 -57 -26 -28 0 -28 1 18 33 45 30 57 56
31 64 -6 2 -19 -7 -28 -20z"/>
<path d="M310 4223 c1 -18 59 -75 69 -69 18 12 12 34 -15 55 -27 21 -54 28
-54 14z"/>
</g>
</svg>
