<?xml version="1.0" standalone="no"?>
<!DOCTYPE svg PUBLIC "-//W3C//DTD SVG 20010904//EN"
 "http://www.w3.org/TR/2001/REC-SVG-20010904/DTD/svg10.dtd">
<svg version="1.0" xmlns="http://www.w3.org/2000/svg"
 width="50.000000pt" height="725.000000pt" viewBox="0 0 50.000000 725.000000"
 preserveAspectRatio="xMidYMid meet">
<metadata>
Created by potrace 1.16, written by Peter Selinger 2001-2019
</metadata>
<g transform="translate(0.000000,725.000000) scale(0.100000,-0.100000)"
fill="#000000" stroke="none">
<path d="M160 7136 c0 -7 -11 -30 -25 -50 -32 -47 -33 -70 -2 -60 28 8 35 16
20 21 -9 3 -5 15 12 37 28 37 32 66 10 66 -8 0 -15 -6 -15 -14z"/>
<path d="M160 6686 c0 -7 -11 -30 -25 -50 -32 -47 -33 -70 -2 -60 l22 6 -22
-24 c-13 -13 -23 -32 -23 -41 0 -18 25 -23 35 -8 3 5 19 12 35 16 17 4 30 11
30 17 0 6 -10 8 -25 4 -33 -8 -32 -3 11 44 34 37 38 60 11 60 -7 0 -17 -10
-22 -22 -6 -13 -18 -24 -29 -26 -16 -3 -15 1 8 30 29 39 34 68 11 68 -8 0 -15
-6 -15 -14z"/>
<path d="M160 6236 c0 -7 -11 -30 -25 -50 -32 -47 -33 -70 -2 -60 l22 6 -22
-24 c-23 -24 -31 -58 -14 -58 5 0 21 7 37 15 16 8 39 12 51 9 27 -7 32 16 8
36 -13 11 -18 10 -29 -6 -8 -10 -17 -16 -21 -12 -4 3 10 24 30 47 35 38 39 61
12 61 -7 0 -17 -10 -22 -22 -6 -13 -18 -24 -29 -26 -16 -3 -15 1 8 30 29 39
34 68 11 68 -8 0 -15 -6 -15 -14z"/>
<path d="M160 5786 c0 -7 -11 -30 -25 -50 -32 -47 -33 -70 -2 -60 l22 6 -22
-24 c-23 -24 -31 -58 -14 -58 5 0 21 7 37 15 16 8 39 12 51 9 27 -7 32 16 8
36 -13 11 -18 10 -29 -6 -8 -10 -17 -16 -21 -12 -4 3 10 24 30 47 35 38 39 61
12 61 -7 0 -17 -10 -22 -22 -6 -13 -18 -24 -29 -26 -16 -3 -15 1 8 30 29 39
34 68 11 68 -8 0 -15 -6 -15 -14z"/>
<path d="M90 5576 c0 -14 24 -56 32 -56 17 0 3 55 -14 58 -10 2 -18 1 -18 -2z"/>
<path d="M160 5336 c0 -7 -11 -30 -25 -50 -32 -47 -33 -70 -2 -60 l22 6 -22
-24 c-23 -24 -31 -58 -14 -58 5 0 21 7 37 15 16 8 39 12 51 9 27 -7 32 16 8
36 -13 11 -18 10 -29 -6 -8 -10 -17 -16 -21 -12 -4 3 10 24 30 47 35 38 39 61
12 61 -7 0 -17 -10 -22 -22 -6 -13 -18 -24 -29 -26 -16 -3 -15 1 8 30 29 39
34 68 11 68 -8 0 -15 -6 -15 -14z"/>
<path d="M152 5124 c1 -9 9 -19 16 -22 9 -3 13 2 10 14 -1 9 -9 19 -16 22 -9
3 -13 -2 -10 -14z"/>
<path d="M90 5126 c0 -14 24 -56 32 -56 17 0 3 55 -14 58 -10 2 -18 1 -18 -2z"/>
<path d="M160 4886 c0 -7 -11 -30 -25 -50 -32 -47 -33 -70 -2 -60 l22 6 -22
-24 c-23 -24 -31 -58 -14 -58 5 0 21 7 37 15 16 8 39 12 51 9 27 -7 32 16 8
36 -13 11 -18 10 -29 -6 -8 -10 -17 -16 -21 -12 -4 3 10 24 30 47 35 38 39 61
12 61 -7 0 -17 -10 -22 -22 -6 -13 -18 -24 -29 -26 -16 -3 -15 1 8 30 29 39
34 68 11 68 -8 0 -15 -6 -15 -14z"/>
<path d="M192 4694 c1 -9 9 -19 16 -22 9 -3 13 2 10 14 -1 9 -9 19 -16 22 -9
3 -13 -2 -10 -14z"/>
<path d="M152 4674 c1 -9 9 -19 16 -22 9 -3 13 2 10 14 -1 9 -9 19 -16 22 -9
3 -13 -2 -10 -14z"/>
<path d="M90 4676 c0 -14 24 -56 32 -56 17 0 3 55 -14 58 -10 2 -18 1 -18 -2z"/>
<path d="M160 4436 c0 -7 -11 -30 -25 -50 -32 -47 -33 -70 -2 -60 l22 6 -22
-24 c-23 -24 -31 -58 -14 -58 5 0 21 7 37 15 16 8 39 12 51 9 27 -7 32 16 8
36 -13 11 -18 10 -29 -6 -8 -10 -17 -16 -21 -12 -4 3 10 24 30 47 35 38 39 61
12 61 -7 0 -17 -10 -22 -22 -6 -13 -18 -24 -29 -26 -16 -3 -15 1 8 30 29 39
34 68 11 68 -8 0 -15 -6 -15 -14z"/>
<path d="M318 4387 c-88 -13 -90 -32 -3 -22 l65 7 -1 -29 c0 -15 -8 -55 -18
-88 -15 -55 -19 -60 -44 -58 -32 2 -32 0 -11 -32 36 -56 66 -19 93 116 13 64
16 98 9 107 -6 6 -13 11 -17 10 -3 0 -36 -6 -73 -11z"/>
<path d="M192 4244 c1 -9 9 -19 16 -22 9 -3 13 2 10 14 -1 9 -9 19 -16 22 -9
3 -13 -2 -10 -14z"/>
<path d="M152 4224 c1 -9 9 -19 16 -22 9 -3 13 2 10 14 -1 9 -9 19 -16 22 -9
3 -13 -2 -10 -14z"/>
<path d="M90 4226 c0 -14 24 -56 32 -56 17 0 3 55 -14 58 -10 2 -18 1 -18 -2z"/>
<path d="M160 3986 c0 -7 -11 -30 -25 -50 -32 -47 -33 -70 -2 -60 l22 6 -22
-24 c-23 -24 -31 -58 -14 -58 5 0 21 7 37 15 16 8 39 12 51 9 27 -7 32 16 8
36 -13 11 -18 10 -29 -6 -8 -10 -17 -16 -21 -12 -4 3 10 24 30 47 35 38 39 61
12 61 -7 0 -17 -10 -22 -22 -6 -13 -18 -24 -29 -26 -16 -3 -15 1 8 30 29 39
34 68 11 68 -8 0 -15 -6 -15 -14z"/>
<path d="M318 3937 c-66 -10 -93 -27 -43 -27 14 0 25 -4 25 -8 0 -29 -37 -106
-67 -141 -41 -48 -38 -63 7 -31 34 24 75 97 85 153 6 30 11 37 31 37 29 0 31
-26 5 -115 -15 -55 -19 -60 -44 -58 -32 2 -32 0 -11 -32 36 -56 66 -19 93 116
13 64 16 98 9 107 -6 6 -13 11 -17 10 -3 0 -36 -6 -73 -11z"/>
<path d="M192 3794 c1 -9 9 -19 16 -22 9 -3 13 2 10 14 -1 9 -9 19 -16 22 -9
3 -13 -2 -10 -14z"/>
<path d="M152 3774 c1 -9 9 -19 16 -22 9 -3 13 2 10 14 -1 9 -9 19 -16 22 -9
3 -13 -2 -10 -14z"/>
<path d="M90 3776 c0 -14 24 -56 32 -56 17 0 3 55 -14 58 -10 2 -18 1 -18 -2z"/>
<path d="M160 3536 c0 -7 -11 -30 -25 -50 -32 -47 -33 -70 -2 -60 l22 6 -22
-24 c-23 -24 -31 -58 -14 -58 5 0 21 7 37 15 16 8 39 12 51 9 27 -7 32 16 8
36 -13 11 -18 10 -29 -6 -8 -10 -17 -16 -21 -12 -4 3 10 24 30 47 35 38 39 61
12 61 -7 0 -17 -10 -22 -22 -6 -13 -18 -24 -29 -26 -16 -3 -15 1 8 30 29 39
34 68 11 68 -8 0 -15 -6 -15 -14z"/>
<path d="M318 3487 c-66 -10 -93 -27 -43 -27 27 0 28 -3 19 -37 -5 -19 -9 -21
-26 -12 -28 15 -34 4 -14 -26 19 -29 18 -32 -33 -87 -32 -36 -21 -46 19 -18
34 24 75 97 85 153 6 30 11 37 31 37 29 0 31 -26 5 -115 -15 -55 -19 -60 -44
-58 -32 2 -32 0 -11 -32 36 -56 66 -19 93 116 13 64 16 98 9 107 -6 6 -13 11
-17 10 -3 0 -36 -6 -73 -11z"/>
<path d="M192 3344 c1 -9 9 -19 16 -22 9 -3 13 2 10 14 -1 9 -9 19 -16 22 -9
3 -13 -2 -10 -14z"/>
<path d="M152 3324 c1 -9 9 -19 16 -22 9 -3 13 2 10 14 -1 9 -9 19 -16 22 -9
3 -13 -2 -10 -14z"/>
<path d="M90 3326 c0 -14 24 -56 32 -56 17 0 3 55 -14 58 -10 2 -18 1 -18 -2z"/>
</g>
</svg>
