<?xml version="1.0" standalone="no"?>
<!DOCTYPE svg PUBLIC "-//W3C//DTD SVG 20010904//EN"
 "http://www.w3.org/TR/2001/REC-SVG-20010904/DTD/svg10.dtd">
<svg version="1.0" xmlns="http://www.w3.org/2000/svg"
 width="50.000000pt" height="725.000000pt" viewBox="0 0 50.000000 725.000000"
 preserveAspectRatio="xMidYMid meet">
<metadata>
Created by potrace 1.16, written by Peter Selinger 2001-2019
</metadata>
<g transform="translate(0.000000,725.000000) scale(0.100000,-0.100000)"
fill="#000000" stroke="none">
<path d="M155 7106 c-9 -18 -25 -43 -35 -54 -30 -32 -26 -56 7 -47 35 8 41 14
24 24 -10 6 -5 17 19 45 19 21 30 42 26 51 -9 24 -24 17 -41 -19z"/>
<path d="M155 6656 c-9 -18 -25 -43 -35 -54 -30 -32 -26 -56 7 -47 26 6 26 6
9 -17 -40 -56 -33 -69 24 -43 42 19 56 41 18 29 -18 -5 -15 1 17 40 29 36 35
50 26 59 -9 9 -17 5 -34 -17 -13 -16 -29 -27 -37 -24 -9 3 -3 15 20 41 19 22
30 43 26 52 -9 24 -24 17 -41 -19z"/>
<path d="M155 6206 c-9 -18 -25 -43 -35 -54 -30 -32 -26 -56 7 -47 26 6 26 6
9 -17 -38 -53 -33 -68 16 -47 18 8 38 13 45 11 20 -4 26 18 9 37 -15 17 -15
20 5 45 16 21 19 30 10 39 -9 9 -17 5 -34 -17 -13 -16 -29 -27 -37 -24 -9 3
-3 15 20 41 19 22 30 43 26 52 -9 24 -24 17 -41 -19z m25 -126 c0 -5 -5 -10
-11 -10 -5 0 -7 5 -4 10 3 6 8 10 11 10 2 0 4 -4 4 -10z"/>
<path d="M155 5756 c-9 -18 -25 -43 -35 -54 -30 -32 -26 -56 7 -47 26 6 26 6
9 -17 -38 -53 -33 -68 16 -47 18 8 38 13 45 11 20 -4 26 18 9 37 -15 17 -15
20 5 45 16 21 19 30 10 39 -9 9 -17 5 -34 -17 -13 -16 -29 -27 -37 -24 -9 3
-3 15 20 41 19 22 30 43 26 52 -9 24 -24 17 -41 -19z m25 -126 c0 -5 -5 -10
-11 -10 -5 0 -7 5 -4 10 3 6 8 10 11 10 2 0 4 -4 4 -10z"/>
<path d="M80 5549 c0 -17 20 -49 30 -49 17 0 11 47 -6 54 -21 8 -24 8 -24 -5z"/>
<path d="M155 5306 c-9 -18 -25 -43 -35 -54 -30 -32 -26 -56 7 -47 26 6 26 6
9 -17 -25 -35 -30 -49 -19 -57 6 -3 15 -16 22 -28 6 -13 16 -23 21 -23 17 0
11 38 -7 45 -16 6 -15 8 6 20 14 7 30 11 37 8 20 -8 27 17 10 36 -15 17 -15
20 5 45 16 21 19 30 10 39 -9 9 -17 5 -34 -17 -13 -16 -29 -27 -37 -24 -9 3
-3 15 20 41 19 22 30 43 26 52 -9 24 -24 17 -41 -19z m25 -126 c0 -5 -5 -10
-11 -10 -5 0 -7 5 -4 10 3 6 8 10 11 10 2 0 4 -4 4 -10z"/>
<path d="M80 5099 c0 -17 20 -49 30 -49 17 0 11 47 -6 54 -21 8 -24 8 -24 -5z"/>
<path d="M155 4856 c-9 -18 -25 -43 -35 -54 -30 -32 -26 -56 7 -47 26 6 26 6
9 -17 -25 -35 -30 -49 -19 -57 6 -3 15 -16 22 -28 6 -13 16 -23 21 -23 17 0
11 38 -7 45 -16 6 -15 8 6 20 14 7 30 11 37 8 20 -8 27 17 10 36 -15 17 -15
20 5 45 16 21 19 30 10 39 -9 9 -17 5 -34 -17 -13 -16 -29 -27 -37 -24 -9 3
-3 15 20 41 19 22 30 43 26 52 -9 24 -24 17 -41 -19z m25 -126 c0 -5 -5 -10
-11 -10 -5 0 -7 5 -4 10 3 6 8 10 11 10 2 0 4 -4 4 -10z"/>
<path d="M182 4673 c5 -25 28 -28 28 -4 0 12 -6 21 -16 21 -9 0 -14 -7 -12
-17z"/>
<path d="M80 4649 c0 -17 20 -49 30 -49 17 0 11 47 -6 54 -21 8 -24 8 -24 -5z"/>
<path d="M155 4406 c-9 -18 -25 -43 -35 -54 -30 -32 -26 -56 7 -47 26 6 26 6
9 -17 -25 -35 -30 -49 -19 -57 6 -3 15 -16 22 -28 6 -13 16 -23 21 -23 17 0
11 38 -7 45 -16 6 -15 8 6 20 14 7 30 11 37 8 20 -8 27 17 10 36 -15 17 -15
20 5 45 16 21 19 30 10 39 -9 9 -17 5 -34 -17 -13 -16 -29 -27 -37 -24 -9 3
-3 15 20 41 19 22 30 43 26 52 -9 24 -24 17 -41 -19z m25 -126 c0 -5 -5 -10
-11 -10 -5 0 -7 5 -4 10 3 6 8 10 11 10 2 0 4 -4 4 -10z"/>
<path d="M283 4357 c-72 -14 -69 -32 3 -23 l57 7 -6 -58 c-4 -32 -10 -68 -13
-80 -5 -17 -2 -23 9 -23 16 0 35 68 40 145 2 46 -5 49 -90 32z"/>
<path d="M182 4223 c5 -25 28 -28 28 -4 0 12 -6 21 -16 21 -9 0 -14 -7 -12
-17z"/>
<path d="M80 4199 c0 -17 20 -49 30 -49 17 0 11 47 -6 54 -21 8 -24 8 -24 -5z"/>
<path d="M155 3956 c-9 -18 -25 -43 -35 -54 -30 -32 -26 -56 7 -47 26 6 26 6
9 -17 -25 -35 -30 -49 -19 -57 6 -3 15 -16 22 -28 6 -13 16 -23 21 -23 17 0
11 38 -7 45 -16 6 -15 8 6 20 14 7 30 11 37 8 20 -8 27 17 10 36 -15 17 -15
20 5 45 16 21 19 30 10 39 -9 9 -17 5 -34 -17 -13 -16 -29 -27 -37 -24 -9 3
-3 15 20 41 19 22 30 43 26 52 -9 24 -24 17 -41 -19z m25 -126 c0 -5 -5 -10
-11 -10 -5 0 -7 5 -4 10 3 6 8 10 11 10 2 0 4 -4 4 -10z"/>
<path d="M283 3907 c-53 -11 -72 -27 -32 -27 20 0 21 -3 15 -57 -4 -31 -9 -68
-13 -81 -4 -18 -2 -23 8 -20 14 5 51 146 43 160 -3 5 5 8 17 8 21 0 22 -3 16
-57 -4 -32 -10 -68 -13 -80 -5 -17 -2 -23 9 -23 16 0 35 68 40 145 2 46 -5 49
-90 32z"/>
<path d="M182 3773 c5 -25 28 -28 28 -4 0 12 -6 21 -16 21 -9 0 -14 -7 -12
-17z"/>
<path d="M80 3749 c0 -17 20 -49 30 -49 17 0 11 47 -6 54 -21 8 -24 8 -24 -5z"/>
<path d="M155 3506 c-9 -18 -25 -43 -35 -54 -30 -32 -26 -56 7 -47 26 6 26 6
9 -17 -25 -35 -30 -49 -19 -57 6 -3 15 -16 22 -28 6 -13 16 -23 21 -23 17 0
11 38 -7 45 -16 6 -15 8 5 19 13 7 33 11 45 10 12 -1 30 -3 41 -3 16 -1 18 -6
12 -42 -9 -54 13 -49 29 7 7 25 17 40 29 42 17 4 18 -1 12 -37 -5 -33 -3 -41
9 -41 9 0 17 14 21 39 5 33 11 40 32 43 35 4 41 28 7 28 -24 0 -25 2 -20 34 4
19 2 36 -3 40 -13 8 -142 -16 -142 -26 0 -5 9 -8 20 -8 16 0 20 -7 20 -30 0
-25 -4 -30 -23 -30 -13 0 -31 8 -41 18 -15 18 -15 21 5 46 16 21 19 30 10 39
-9 9 -17 5 -34 -17 -13 -16 -29 -27 -37 -24 -9 3 -3 15 20 41 19 22 30 43 26
52 -9 24 -24 17 -41 -19z m185 -96 c0 -23 -4 -30 -20 -30 -15 0 -19 6 -17 30
3 42 37 42 37 0z m-160 -30 c0 -5 -5 -10 -11 -10 -5 0 -7 5 -4 10 3 6 8 10 11
10 2 0 4 -4 4 -10z"/>
<path d="M182 3323 c5 -25 28 -28 28 -4 0 12 -6 21 -16 21 -9 0 -14 -7 -12
-17z"/>
<path d="M80 3299 c0 -17 20 -49 30 -49 17 0 11 47 -6 54 -21 8 -24 8 -24 -5z"/>
<path d="M155 3056 c-9 -18 -25 -43 -35 -54 -30 -32 -26 -56 7 -47 26 6 26 6
9 -17 -25 -35 -30 -49 -19 -57 6 -3 15 -16 22 -28 6 -13 16 -23 21 -23 17 0
11 38 -7 45 -16 6 -15 8 5 19 13 7 33 11 45 10 12 -1 30 -3 40 -3 35 -2 17
-71 -19 -71 -25 0 -33 -15 -11 -23 7 -2 35 -1 62 4 28 4 69 8 93 8 23 1 42 6
42 11 0 6 -14 10 -31 10 -24 0 -30 3 -25 16 3 9 6 24 6 34 0 13 9 20 27 22 36
4 43 28 8 28 -24 0 -25 2 -20 34 4 19 2 36 -3 40 -13 8 -142 -16 -142 -26 0
-5 9 -8 20 -8 16 0 20 -7 20 -30 0 -25 -4 -30 -23 -30 -13 0 -31 8 -41 18 -15
18 -15 21 5 46 16 21 19 30 10 39 -9 9 -17 5 -34 -17 -13 -16 -29 -27 -37 -24
-9 3 -3 15 20 41 19 22 30 43 26 52 -9 24 -24 17 -41 -19z m185 -96 c0 -23 -4
-30 -20 -30 -15 0 -19 6 -17 30 3 42 37 42 37 0z m-160 -30 c0 -5 -5 -10 -11
-10 -5 0 -7 5 -4 10 3 6 8 10 11 10 2 0 4 -4 4 -10z m150 -39 c0 -33 -11 -51
-31 -51 -22 0 -23 8 -9 44 11 30 40 35 40 7z"/>
<path d="M182 2873 c5 -25 28 -28 28 -4 0 12 -6 21 -16 21 -9 0 -14 -7 -12
-17z"/>
<path d="M80 2849 c0 -17 20 -49 30 -49 17 0 11 47 -6 54 -21 8 -24 8 -24 -5z"/>
</g>
</svg>
