<?xml version="1.0" standalone="no"?>
<!DOCTYPE svg PUBLIC "-//W3C//DTD SVG 20010904//EN"
 "http://www.w3.org/TR/2001/REC-SVG-20010904/DTD/svg10.dtd">
<svg version="1.0" xmlns="http://www.w3.org/2000/svg"
 width="50.000000pt" height="725.000000pt" viewBox="0 0 50.000000 725.000000"
 preserveAspectRatio="xMidYMid meet">
<metadata>
Created by potrace 1.16, written by Peter Selinger 2001-2019
</metadata>
<g transform="translate(0.000000,725.000000) scale(0.100000,-0.100000)"
fill="#000000" stroke="none">
<path d="M150 7116 c-6 -18 -20 -42 -30 -51 -39 -35 -21 -61 29 -42 34 12 43
33 11 24 -22 -6 -20 -1 13 45 19 26 18 58 -2 58 -5 0 -14 -15 -21 -34z"/>
<path d="M151 6668 c-6 -18 -21 -42 -32 -55 -27 -28 -19 -57 13 -47 l23 6 -22
-24 c-28 -30 -31 -64 -5 -53 9 4 25 10 35 12 20 6 23 19 5 25 -7 3 1 20 22 46
27 34 31 45 21 55 -10 9 -14 8 -22 -5 -5 -10 -19 -23 -31 -29 -23 -12 -21 -7
15 43 19 25 18 58 -2 58 -5 0 -14 -14 -20 -32z"/>
<path d="M151 6218 c-6 -18 -21 -42 -32 -55 -27 -28 -19 -57 13 -47 l23 6 -22
-24 c-13 -13 -23 -32 -23 -41 0 -20 -1 -20 41 -3 19 7 40 11 47 9 7 -3 12 4
12 16 0 23 -25 29 -33 9 -2 -7 -8 -10 -12 -6 -4 4 8 25 26 48 26 32 30 43 20
53 -10 9 -14 8 -22 -5 -5 -10 -19 -23 -31 -29 -23 -12 -21 -7 15 43 19 25 18
58 -2 58 -5 0 -14 -14 -20 -32z"/>
<path d="M151 5768 c-6 -18 -21 -42 -32 -55 -27 -28 -19 -57 13 -47 l23 6 -22
-24 c-13 -13 -23 -32 -23 -41 0 -20 -1 -20 41 -3 19 7 40 11 47 9 7 -3 12 4
12 16 0 23 -25 29 -33 9 -2 -7 -8 -10 -12 -6 -4 4 8 25 26 48 26 32 30 43 20
53 -10 9 -14 8 -22 -5 -5 -10 -19 -23 -31 -29 -23 -12 -21 -7 15 43 19 25 18
58 -2 58 -5 0 -14 -14 -20 -32z"/>
<path d="M80 5559 c0 -17 20 -49 30 -49 17 0 11 47 -6 54 -21 8 -24 8 -24 -5z"/>
<path d="M151 5318 c-6 -18 -21 -42 -32 -55 -27 -28 -19 -57 13 -47 l23 6 -22
-24 c-13 -13 -23 -32 -23 -41 0 -20 -1 -20 41 -3 19 7 40 11 47 9 7 -3 12 4
12 16 0 23 -25 29 -33 9 -2 -7 -8 -10 -12 -6 -4 4 8 25 26 48 26 32 30 43 20
53 -10 9 -14 8 -22 -5 -5 -10 -19 -23 -31 -29 -23 -12 -21 -7 15 43 19 25 18
58 -2 58 -5 0 -14 -14 -20 -32z"/>
<path d="M142 5113 c5 -25 28 -28 28 -4 0 12 -6 21 -16 21 -9 0 -14 -7 -12
-17z"/>
<path d="M80 5109 c0 -17 20 -49 30 -49 17 0 11 47 -6 54 -21 8 -24 8 -24 -5z"/>
<path d="M151 4868 c-6 -18 -21 -42 -32 -55 -27 -28 -19 -57 13 -47 l23 6 -22
-24 c-13 -13 -23 -32 -23 -41 0 -20 -1 -20 41 -3 19 7 40 11 47 9 7 -3 12 4
12 16 0 23 -25 29 -33 9 -2 -7 -8 -10 -12 -6 -4 4 8 25 26 48 26 32 30 43 20
53 -10 9 -14 8 -22 -5 -5 -10 -19 -23 -31 -29 -23 -12 -21 -7 15 43 19 25 18
58 -2 58 -5 0 -14 -14 -20 -32z"/>
<path d="M174 4685 c3 -9 6 -19 6 -21 0 -2 7 -4 16 -4 22 0 13 34 -10 38 -14
3 -17 0 -12 -13z"/>
<path d="M142 4663 c5 -25 28 -28 28 -4 0 12 -6 21 -16 21 -9 0 -14 -7 -12
-17z"/>
<path d="M80 4659 c0 -17 20 -49 30 -49 17 0 11 47 -6 54 -21 8 -24 8 -24 -5z"/>
<path d="M151 4418 c-6 -18 -21 -42 -32 -55 -27 -28 -19 -57 13 -47 l23 6 -22
-24 c-13 -13 -23 -32 -23 -41 0 -20 -1 -20 41 -3 19 7 40 11 47 9 7 -3 12 4
12 16 0 23 -25 29 -33 9 -2 -7 -8 -10 -12 -6 -4 4 8 25 26 48 26 32 30 43 20
53 -10 9 -14 8 -22 -5 -5 -10 -19 -23 -31 -29 -23 -12 -21 -7 15 43 19 25 18
58 -2 58 -5 0 -14 -14 -20 -32z"/>
<path d="M283 4363 c-35 -8 -63 -19 -63 -24 0 -12 10 -11 87 2 42 7 63 16 63
25 0 16 -5 16 -87 -3z"/>
<path d="M174 4235 c3 -9 6 -19 6 -21 0 -2 7 -4 16 -4 22 0 13 34 -10 38 -14
3 -17 0 -12 -13z"/>
<path d="M142 4213 c5 -25 28 -28 28 -4 0 12 -6 21 -16 21 -9 0 -14 -7 -12
-17z"/>
<path d="M80 4209 c0 -17 20 -49 30 -49 17 0 11 47 -6 54 -21 8 -24 8 -24 -5z"/>
<path d="M151 3968 c-6 -18 -21 -42 -32 -55 -27 -28 -19 -57 13 -47 l23 6 -22
-24 c-13 -13 -23 -32 -23 -41 0 -21 -1 -20 41 -3 23 10 39 11 51 5 22 -12 88
-1 88 13 0 7 -15 8 -40 4 -32 -5 -40 -3 -40 9 0 18 -26 20 -33 3 -2 -7 -8 -10
-12 -6 -4 4 8 25 26 48 26 32 30 43 20 53 -10 9 -14 8 -22 -5 -5 -10 -19 -23
-31 -29 -23 -12 -21 -7 15 43 19 25 18 58 -2 58 -5 0 -14 -14 -20 -32z"/>
<path d="M283 3913 c-35 -8 -63 -19 -63 -24 0 -12 10 -11 87 2 42 7 63 16 63
25 0 16 -5 16 -87 -3z"/>
<path d="M174 3785 c3 -9 6 -19 6 -21 0 -2 7 -4 16 -4 22 0 13 34 -10 38 -14
3 -17 0 -12 -13z"/>
<path d="M142 3763 c5 -25 28 -28 28 -4 0 12 -6 21 -16 21 -9 0 -14 -7 -12
-17z"/>
<path d="M80 3759 c0 -17 20 -49 30 -49 17 0 11 47 -6 54 -21 8 -24 8 -24 -5z"/>
<path d="M151 3518 c-6 -18 -21 -42 -32 -55 -27 -28 -19 -57 13 -47 l23 6 -22
-24 c-13 -13 -23 -32 -23 -41 0 -20 0 -20 40 -3 24 10 40 11 61 3 27 -11 27
-12 13 -40 -9 -16 -13 -32 -9 -35 8 -9 45 35 45 54 0 7 8 18 18 23 10 7 13 14
7 18 -6 5 -11 20 -11 34 -2 25 2 27 47 33 35 5 49 11 49 22 0 12 -6 15 -23 10
-12 -3 -46 -10 -75 -16 -28 -7 -52 -16 -52 -21 0 -5 5 -9 10 -9 6 0 10 -13 10
-30 0 -20 -5 -30 -15 -30 -8 0 -15 7 -15 15 0 18 -27 20 -33 3 -2 -7 -8 -10
-12 -6 -4 4 8 25 26 48 26 32 30 43 20 53 -10 9 -14 8 -22 -5 -5 -10 -19 -23
-31 -29 -23 -12 -21 -7 15 43 19 25 18 58 -2 58 -5 0 -14 -14 -20 -32z"/>
<path d="M174 3335 c3 -9 6 -19 6 -21 0 -2 7 -4 16 -4 22 0 13 34 -10 38 -14
3 -17 0 -12 -13z"/>
<path d="M142 3313 c5 -25 28 -28 28 -4 0 12 -6 21 -16 21 -9 0 -14 -7 -12
-17z"/>
<path d="M80 3309 c0 -17 20 -49 30 -49 17 0 11 47 -6 54 -21 8 -24 8 -24 -5z"/>
<path d="M274 3093 c4 -10 10 -32 13 -49 5 -29 3 -32 -31 -38 -32 -6 -52 -26
-26 -26 6 0 10 -13 10 -30 0 -20 -5 -30 -15 -30 -8 0 -15 7 -15 15 0 18 -27
20 -33 3 -2 -7 -8 -10 -12 -6 -4 4 8 25 26 48 26 32 30 43 20 53 -10 9 -14 8
-22 -5 -5 -10 -19 -23 -31 -29 -23 -12 -21 -7 15 43 19 25 18 58 -2 58 -5 0
-14 -14 -20 -32 -6 -18 -21 -42 -32 -55 -27 -28 -19 -57 13 -47 l23 6 -22 -24
c-13 -13 -23 -32 -23 -41 0 -20 0 -20 40 -3 24 10 40 11 61 3 27 -11 27 -12
13 -40 -9 -16 -13 -32 -9 -35 8 -9 45 35 45 54 0 7 8 18 18 23 10 7 13 14 7
18 -13 10 -16 63 -4 63 11 0 11 -1 34 -82 17 -63 66 -128 96 -128 16 0 19 7
19 45 0 25 -4 45 -10 45 -5 0 -10 -9 -10 -20 0 -51 -52 7 -75 83 -16 55 -13
67 16 67 11 0 19 7 19 16 0 12 -6 15 -24 10 -23 -6 -25 -3 -28 36 -3 37 -7 44
-27 46 -20 3 -23 1 -17 -15z"/>
<path d="M174 2885 c3 -9 6 -19 6 -21 0 -2 7 -4 16 -4 22 0 13 34 -10 38 -14
3 -17 0 -12 -13z"/>
<path d="M142 2863 c5 -25 28 -28 28 -4 0 12 -6 21 -16 21 -9 0 -14 -7 -12
-17z"/>
<path d="M80 2859 c0 -17 20 -49 30 -49 17 0 11 47 -6 54 -21 8 -24 8 -24 -5z"/>
<path d="M274 2643 c4 -10 10 -32 13 -49 5 -29 3 -32 -31 -38 -32 -6 -52 -26
-26 -26 6 0 10 -13 10 -30 0 -20 -5 -30 -15 -30 -8 0 -15 7 -15 15 0 18 -27
20 -33 3 -2 -7 -8 -10 -12 -6 -4 4 8 25 26 48 26 32 30 43 20 53 -10 9 -14 8
-22 -5 -5 -10 -19 -23 -31 -29 -23 -12 -21 -7 15 43 19 25 18 58 -2 58 -5 0
-14 -14 -20 -32 -6 -18 -21 -42 -32 -55 -27 -28 -19 -57 13 -47 l23 6 -22 -24
c-13 -13 -23 -32 -23 -41 0 -20 0 -20 40 -3 24 10 40 11 61 3 27 -11 27 -12
13 -40 -9 -16 -13 -32 -9 -35 8 -9 45 35 45 54 0 7 8 18 18 23 10 7 13 14 7
18 -13 10 -16 63 -4 63 11 0 11 -1 34 -82 17 -63 66 -128 96 -128 16 0 19 7
19 45 0 25 -4 45 -10 45 -5 0 -10 -9 -10 -20 0 -51 -52 7 -75 83 -16 54 -13
67 14 67 11 0 21 10 25 23 10 37 7 47 -14 47 -22 0 -27 -15 -9 -26 8 -4 7 -9
-2 -15 -24 -15 -28 -10 -31 34 -3 36 -7 43 -27 45 -20 3 -23 1 -17 -15z"/>
<path d="M174 2435 c3 -9 6 -19 6 -21 0 -2 7 -4 16 -4 22 0 13 34 -10 38 -14
3 -17 0 -12 -13z"/>
<path d="M142 2413 c5 -25 28 -28 28 -4 0 12 -6 21 -16 21 -9 0 -14 -7 -12
-17z"/>
<path d="M80 2409 c0 -17 20 -49 30 -49 17 0 11 47 -6 54 -21 8 -24 8 -24 -5z"/>
<path d="M274 2193 c4 -10 10 -32 13 -49 5 -29 3 -32 -31 -38 -32 -6 -52 -26
-26 -26 6 0 10 -13 10 -30 0 -20 -5 -30 -15 -30 -8 0 -15 7 -15 15 0 18 -27
20 -33 3 -2 -7 -8 -10 -12 -6 -4 4 8 25 26 48 26 32 30 43 20 53 -10 9 -14 8
-22 -5 -5 -10 -19 -23 -31 -29 -23 -12 -21 -7 15 43 19 25 18 58 -2 58 -5 0
-14 -14 -20 -32 -6 -18 -21 -42 -32 -55 -27 -28 -19 -57 13 -47 l23 6 -22 -24
c-13 -13 -23 -32 -23 -41 0 -20 0 -20 40 -3 24 10 40 11 61 3 27 -11 27 -12
13 -40 -9 -16 -13 -32 -9 -35 8 -9 45 35 45 54 0 7 8 18 18 23 10 7 13 14 7
18 -14 11 -16 65 -2 60 6 -2 16 -24 23 -50 10 -38 9 -48 -2 -58 -19 -16 -18
-33 2 -25 12 4 27 -6 51 -34 19 -22 43 -40 54 -40 16 0 19 7 19 45 0 25 -4 45
-10 45 -5 0 -10 -9 -10 -20 0 -27 -15 -25 -39 6 l-21 27 21 33 c21 35 19 54
-7 54 -8 0 -14 -9 -14 -20 0 -30 -17 -24 -23 7 -6 34 -1 43 22 43 11 0 21 10
25 23 10 37 7 47 -14 47 -22 0 -27 -15 -9 -26 8 -4 7 -9 -2 -15 -24 -15 -28
-10 -31 34 -3 36 -7 43 -27 45 -20 3 -23 1 -17 -15z"/>
<path d="M174 1985 c3 -9 6 -19 6 -21 0 -2 7 -4 16 -4 22 0 13 34 -10 38 -14
3 -17 0 -12 -13z"/>
<path d="M142 1963 c5 -25 28 -28 28 -4 0 12 -6 21 -16 21 -9 0 -14 -7 -12
-17z"/>
<path d="M80 1959 c0 -17 20 -49 30 -49 17 0 11 47 -6 54 -21 8 -24 8 -24 -5z"/>
</g>
</svg>
