<?xml version="1.0" standalone="no"?>
<!DOCTYPE svg PUBLIC "-//W3C//DTD SVG 20010904//EN"
 "http://www.w3.org/TR/2001/REC-SVG-20010904/DTD/svg10.dtd">
<svg version="1.0" xmlns="http://www.w3.org/2000/svg"
 width="50.000000pt" height="725.000000pt" viewBox="0 0 50.000000 725.000000"
 preserveAspectRatio="xMidYMid meet">
<metadata>
Created by potrace 1.16, written by Peter Selinger 2001-2019
</metadata>
<g transform="translate(0.000000,725.000000) scale(0.100000,-0.100000)"
fill="#000000" stroke="none">
<path d="M136 7087 c-32 -67 -33 -81 -3 -71 30 9 34 14 19 22 -8 6 -4 18 14
44 24 33 26 58 5 58 -5 0 -20 -24 -35 -53z"/>
<path d="M136 6637 c-32 -67 -33 -81 -3 -71 l22 6 -22 -24 c-38 -41 -29 -56
25 -42 25 7 30 24 6 24 -11 0 -5 12 20 42 20 23 35 46 33 52 -7 21 -27 16 -38
-8 -7 -14 -19 -26 -26 -26 -15 0 -12 7 20 52 18 24 17 48 -2 48 -5 0 -20 -24
-35 -53z"/>
<path d="M136 6187 c-32 -67 -33 -81 -3 -71 l22 6 -22 -24 c-34 -36 -30 -52
10 -43 17 4 40 7 50 7 10 -1 17 7 17 19 0 10 -7 19 -15 19 -8 0 -15 -4 -15
-10 0 -5 -7 -10 -16 -10 -11 0 -5 12 20 42 20 23 35 46 33 52 -7 21 -27 16
-38 -8 -7 -14 -19 -26 -26 -26 -15 0 -12 7 20 52 18 24 17 48 -2 48 -5 0 -20
-24 -35 -53z"/>
<path d="M136 5737 c-32 -67 -33 -81 -3 -71 l22 6 -22 -24 c-34 -36 -30 -52
10 -43 17 4 40 7 50 7 10 -1 17 7 17 19 0 10 -7 19 -15 19 -8 0 -15 -4 -15
-10 0 -5 -7 -10 -16 -10 -11 0 -5 12 20 42 20 23 35 46 33 52 -7 21 -27 16
-38 -8 -7 -14 -19 -26 -26 -26 -15 0 -12 7 20 52 18 24 17 48 -2 48 -5 0 -20
-24 -35 -53z"/>
<path d="M90 5561 c0 -21 13 -41 26 -41 19 0 18 36 -2 44 -21 8 -24 8 -24 -3z"/>
<path d="M136 5287 c-32 -67 -33 -81 -3 -71 l22 6 -22 -24 c-34 -36 -30 -52
10 -43 17 4 40 7 50 7 10 -1 17 7 17 19 0 10 -7 19 -15 19 -8 0 -15 -4 -15
-10 0 -5 -7 -10 -16 -10 -11 0 -5 12 20 42 20 23 35 46 33 52 -7 21 -27 16
-38 -8 -7 -14 -19 -26 -26 -26 -15 0 -12 7 20 52 18 24 17 48 -2 48 -5 0 -20
-24 -35 -53z"/>
<path d="M130 5134 c0 -13 21 -44 30 -44 16 0 11 37 -6 44 -19 7 -24 8 -24 0z"/>
<path d="M90 5111 c0 -21 13 -41 26 -41 19 0 18 36 -2 44 -21 8 -24 8 -24 -3z"/>
<path d="M136 4837 c-32 -67 -33 -81 -3 -71 l22 6 -22 -24 c-34 -36 -30 -52
10 -43 17 4 40 7 50 7 10 -1 17 7 17 19 0 10 -7 19 -15 19 -8 0 -15 -4 -15
-10 0 -5 -7 -10 -16 -10 -11 0 -5 12 20 42 20 23 35 46 33 52 -7 21 -27 16
-38 -8 -7 -14 -19 -26 -26 -26 -15 0 -12 7 20 52 18 24 17 48 -2 48 -5 0 -20
-24 -35 -53z"/>
<path d="M182 4684 c1 -9 9 -19 16 -22 9 -3 13 2 10 14 -1 9 -9 19 -16 22 -9
3 -13 -2 -10 -14z"/>
<path d="M130 4684 c0 -13 21 -44 30 -44 16 0 11 37 -6 44 -19 7 -24 8 -24 0z"/>
<path d="M90 4661 c0 -21 13 -41 26 -41 19 0 18 36 -2 44 -21 8 -24 8 -24 -3z"/>
<path d="M136 4387 c-32 -67 -33 -81 -3 -71 l22 6 -22 -24 c-34 -36 -30 -52
10 -43 17 4 40 7 50 7 10 -1 17 7 17 19 0 10 -7 19 -15 19 -8 0 -15 -4 -15
-10 0 -5 -7 -10 -16 -10 -11 0 -5 12 20 42 20 23 35 46 33 52 -7 21 -27 16
-38 -8 -7 -14 -19 -26 -26 -26 -15 0 -12 7 20 52 18 24 17 48 -2 48 -5 0 -20
-24 -35 -53z"/>
<path d="M223 4279 c-1 -87 2 -119 10 -116 18 6 22 237 5 237 -10 0 -13 -30
-15 -121z"/>
<path d="M182 4234 c1 -9 9 -19 16 -22 9 -3 13 2 10 14 -1 9 -9 19 -16 22 -9
3 -13 -2 -10 -14z"/>
<path d="M130 4234 c0 -13 21 -44 30 -44 16 0 11 37 -6 44 -19 7 -24 8 -24 0z"/>
<path d="M90 4211 c0 -21 13 -41 26 -41 19 0 18 36 -2 44 -21 8 -24 8 -24 -3z"/>
<path d="M136 3937 c-32 -67 -33 -81 -3 -71 l22 6 -22 -24 c-34 -36 -30 -52
10 -43 17 4 40 7 50 7 10 -1 17 7 17 19 0 10 -7 19 -15 19 -8 0 -15 -4 -15
-10 0 -5 -7 -10 -16 -10 -11 0 -5 12 20 42 20 23 35 46 33 52 -7 21 -27 16
-38 -8 -7 -14 -19 -26 -26 -26 -15 0 -12 7 20 52 18 24 17 48 -2 48 -5 0 -20
-24 -35 -53z"/>
<path d="M343 3963 c-32 -6 -29 -21 5 -25 27 -3 27 -3 30 -92 2 -52 -1 -92 -7
-96 -6 -3 -8 -16 -4 -28 6 -26 42 -30 44 -4 5 77 2 229 -5 240 -8 12 -21 13
-63 5z"/>
<path d="M223 3829 c-1 -87 2 -119 10 -116 8 2 14 42 17 108 l5 104 28 3 c43
5 31 22 -15 22 l-43 0 -2 -121z"/>
<path d="M182 3784 c1 -9 9 -19 16 -22 9 -3 13 2 10 14 -1 9 -9 19 -16 22 -9
3 -13 -2 -10 -14z"/>
<path d="M130 3784 c0 -13 21 -44 30 -44 16 0 11 37 -6 44 -19 7 -24 8 -24 0z"/>
<path d="M90 3761 c0 -21 13 -41 26 -41 19 0 18 36 -2 44 -21 8 -24 8 -24 -3z"/>
<path d="M136 3487 c-32 -67 -33 -81 -3 -71 l22 6 -22 -24 c-34 -36 -30 -52
10 -43 17 4 40 7 50 7 10 -1 17 7 17 19 0 10 -7 19 -15 19 -8 0 -15 -4 -15
-10 0 -5 -7 -10 -16 -10 -11 0 -5 12 20 42 20 23 35 46 33 52 -7 21 -27 16
-38 -8 -7 -14 -19 -26 -26 -26 -15 0 -12 7 20 52 18 24 17 48 -2 48 -5 0 -20
-24 -35 -53z"/>
<path d="M343 3513 c-32 -6 -29 -21 5 -25 27 -3 27 -3 30 -92 2 -52 -1 -92 -7
-96 -6 -3 -8 -16 -4 -28 6 -26 42 -30 44 -4 5 77 2 229 -5 240 -8 12 -21 13
-63 5z"/>
<path d="M223 3379 c-1 -87 2 -119 10 -116 8 2 14 42 17 108 l5 104 28 3 c43
5 31 22 -15 22 l-43 0 -2 -121z"/>
<path d="M283 3433 c-40 -8 -26 -26 15 -19 20 3 43 6 50 6 6 0 12 5 12 10 0
10 -34 11 -77 3z"/>
<path d="M182 3334 c1 -9 9 -19 16 -22 9 -3 13 2 10 14 -1 9 -9 19 -16 22 -9
3 -13 -2 -10 -14z"/>
<path d="M130 3334 c0 -13 21 -44 30 -44 16 0 11 37 -6 44 -19 7 -24 8 -24 0z"/>
<path d="M90 3311 c0 -21 13 -41 26 -41 19 0 18 36 -2 44 -21 8 -24 8 -24 -3z"/>
<path d="M136 3037 c-32 -67 -33 -81 -3 -71 l22 6 -22 -24 c-34 -36 -30 -52
10 -43 17 4 40 7 50 7 10 -1 17 7 17 19 0 10 -7 19 -15 19 -8 0 -15 -4 -15
-10 0 -5 -7 -10 -16 -10 -11 0 -5 12 20 42 20 23 35 46 33 52 -7 21 -27 16
-38 -8 -7 -14 -19 -26 -26 -26 -15 0 -12 7 20 52 18 24 17 48 -2 48 -5 0 -20
-24 -35 -53z"/>
<path d="M343 3063 c-32 -6 -29 -21 5 -25 27 -3 27 -3 30 -92 2 -52 -1 -92 -7
-96 -6 -3 -8 -16 -4 -28 6 -26 42 -30 44 -4 5 77 2 229 -5 240 -8 12 -21 13
-63 5z"/>
<path d="M223 2929 c-1 -87 2 -119 10 -116 8 2 14 42 17 108 5 98 6 104 28
107 18 3 22 -1 22 -22 0 -19 -5 -26 -20 -26 -11 0 -20 -4 -20 -10 0 -5 9 -10
20 -10 17 0 20 -7 20 -50 0 -38 4 -50 15 -50 12 0 15 13 15 55 0 42 3 55 15
55 8 0 15 5 15 10 0 6 -7 10 -15 10 -8 0 -15 7 -15 16 0 26 -27 44 -67 44
l-38 0 -2 -121z"/>
<path d="M182 2884 c1 -9 9 -19 16 -22 9 -3 13 2 10 14 -1 9 -9 19 -16 22 -9
3 -13 -2 -10 -14z"/>
<path d="M130 2884 c0 -13 21 -44 30 -44 16 0 11 37 -6 44 -19 7 -24 8 -24 0z"/>
<path d="M90 2861 c0 -21 13 -41 26 -41 19 0 18 36 -2 44 -21 8 -24 8 -24 -3z"/>
<path d="M136 2587 c-32 -67 -33 -81 -3 -71 l22 6 -22 -24 c-34 -36 -30 -52
10 -43 17 4 40 7 50 7 10 -1 17 7 17 19 0 10 -7 19 -15 19 -8 0 -15 -4 -15
-10 0 -5 -7 -10 -16 -10 -11 0 -5 12 20 42 20 23 35 46 33 52 -7 21 -27 16
-38 -8 -7 -14 -19 -26 -26 -26 -15 0 -12 7 20 52 18 24 17 48 -2 48 -5 0 -20
-24 -35 -53z"/>
<path d="M343 2613 c-32 -6 -29 -21 5 -25 27 -3 27 -3 30 -92 2 -52 -1 -92 -7
-96 -6 -3 -8 -16 -4 -28 6 -26 42 -30 44 -4 5 77 2 229 -5 240 -8 12 -21 13
-63 5z"/>
<path d="M223 2479 c-1 -87 2 -119 10 -116 7 2 13 19 15 38 2 22 12 40 28 52
l24 18 0 -31 c0 -20 5 -30 15 -30 12 0 15 13 15 55 0 42 3 55 15 55 8 0 15 5
15 10 0 6 -7 10 -15 10 -8 0 -15 7 -15 16 0 26 -27 44 -67 44 l-38 0 -2 -121z
m77 76 c0 -18 -5 -25 -20 -25 -11 0 -20 -4 -20 -10 0 -5 7 -10 15 -10 21 0 19
-13 -5 -35 -20 -18 -20 -17 -20 37 0 59 4 68 32 68 13 0 18 -7 18 -25z"/>
<path d="M182 2434 c1 -9 9 -19 16 -22 9 -3 13 2 10 14 -1 9 -9 19 -16 22 -9
3 -13 -2 -10 -14z"/>
<path d="M130 2434 c0 -13 21 -44 30 -44 16 0 11 37 -6 44 -19 7 -24 8 -24 0z"/>
<path d="M90 2411 c0 -21 13 -41 26 -41 19 0 18 36 -2 44 -21 8 -24 8 -24 -3z"/>
<path d="M136 2137 c-32 -67 -33 -81 -3 -71 l22 6 -22 -24 c-34 -36 -30 -52
10 -43 17 4 40 7 50 7 10 -1 17 7 17 19 0 10 -7 19 -15 19 -8 0 -15 -4 -15
-10 0 -5 -7 -10 -16 -10 -11 0 -5 12 20 42 20 23 35 46 33 52 -7 21 -27 16
-38 -8 -7 -14 -19 -26 -26 -26 -15 0 -12 7 20 52 18 24 17 48 -2 48 -5 0 -20
-24 -35 -53z"/>
<path d="M343 2163 c-32 -6 -29 -21 5 -25 25 -3 27 -7 30 -55 l3 -52 -25 12
c-29 13 -34 27 -11 27 8 0 15 5 15 10 0 6 -7 10 -15 10 -8 0 -15 7 -15 16 0
26 -27 44 -67 44 l-38 0 -2 -121 c-1 -87 2 -119 10 -116 7 2 13 19 15 38 2 22
12 40 28 52 l24 18 0 -31 c0 -20 5 -30 15 -30 11 0 15 11 15 38 1 30 3 34 11
20 5 -10 17 -18 24 -18 17 0 21 -46 5 -52 -5 -1 -7 -13 -4 -25 7 -27 43 -31
45 -5 5 77 2 229 -5 240 -8 12 -21 13 -63 5z m-43 -58 c0 -18 -5 -25 -20 -25
-11 0 -20 -4 -20 -10 0 -5 7 -10 15 -10 21 0 19 -13 -5 -35 -20 -18 -20 -17
-20 37 0 59 4 68 32 68 13 0 18 -7 18 -25z"/>
<path d="M182 1984 c1 -9 9 -19 16 -22 9 -3 13 2 10 14 -1 9 -9 19 -16 22 -9
3 -13 -2 -10 -14z"/>
<path d="M130 1984 c0 -13 21 -44 30 -44 16 0 11 37 -6 44 -19 7 -24 8 -24 0z"/>
<path d="M90 1961 c0 -21 13 -41 26 -41 19 0 18 36 -2 44 -21 8 -24 8 -24 -3z"/>
<path d="M136 1687 c-32 -67 -33 -81 -3 -71 l22 6 -22 -24 c-34 -36 -30 -52
10 -43 17 4 40 7 50 7 10 -1 17 7 17 19 0 10 -7 19 -15 19 -8 0 -15 -4 -15
-10 0 -5 -7 -10 -16 -10 -11 0 -5 12 20 42 20 23 35 46 33 52 -7 21 -27 16
-38 -8 -7 -14 -19 -26 -26 -26 -15 0 -12 7 20 52 18 24 17 48 -2 48 -5 0 -20
-24 -35 -53z"/>
<path d="M343 1713 c-32 -6 -29 -21 5 -25 25 -3 27 -7 30 -55 l3 -52 -25 12
c-29 13 -34 27 -11 27 8 0 15 5 15 10 0 6 -7 10 -15 10 -8 0 -15 7 -15 16 0
26 -27 44 -67 44 l-38 0 -2 -120 c-1 -109 5 -138 22 -110 3 6 33 10 66 10 46
0 59 -3 59 -15 0 -21 40 -19 41 3 5 77 2 229 -5 240 -8 12 -21 13 -63 5z m-43
-58 c0 -18 -5 -25 -20 -25 -11 0 -20 -4 -20 -10 0 -5 7 -10 15 -10 21 0 19
-13 -5 -35 -20 -18 -20 -17 -20 37 0 59 4 68 32 68 13 0 18 -7 18 -25z m65
-105 c8 0 15 -8 15 -19 0 -19 -39 -31 -102 -31 -36 0 -37 28 -3 53 l25 18 0
-31 c0 -20 5 -30 15 -30 11 0 15 11 15 38 1 30 3 34 11 20 5 -10 17 -18 24
-18z"/>
<path d="M182 1534 c1 -9 9 -19 16 -22 9 -3 13 2 10 14 -1 9 -9 19 -16 22 -9
3 -13 -2 -10 -14z"/>
<path d="M130 1534 c0 -13 21 -44 30 -44 16 0 11 37 -6 44 -19 7 -24 8 -24 0z"/>
<path d="M90 1511 c0 -21 13 -41 26 -41 19 0 18 36 -2 44 -21 8 -24 8 -24 -3z"/>
</g>
</svg>
