<?xml version="1.0" standalone="no"?>
<!DOCTYPE svg PUBLIC "-//W3C//DTD SVG 20010904//EN"
 "http://www.w3.org/TR/2001/REC-SVG-20010904/DTD/svg10.dtd">
<svg version="1.0" xmlns="http://www.w3.org/2000/svg"
 width="50.000000pt" height="725.000000pt" viewBox="0 0 50.000000 725.000000"
 preserveAspectRatio="xMidYMid meet">
<metadata>
Created by potrace 1.16, written by Peter Selinger 2001-2019
</metadata>
<g transform="translate(0.000000,725.000000) scale(0.100000,-0.100000)"
fill="#000000" stroke="none">
<path d="M130 7106 c-6 -18 -20 -42 -30 -51 -25 -22 -26 -45 -2 -45 30 0 62
12 62 22 0 6 -9 8 -20 5 -22 -6 -21 -2 13 46 18 27 18 57 -2 57 -5 0 -14 -15
-21 -34z"/>
<path d="M130 6656 c-6 -18 -20 -42 -30 -51 -26 -23 -26 -45 0 -45 24 0 26
-13 5 -30 -19 -16 -19 -40 0 -40 21 0 65 22 65 32 0 5 -10 6 -22 2 -19 -6 -18
-2 10 32 31 38 42 74 22 74 -6 0 -13 -7 -16 -15 -4 -9 -15 -20 -26 -26 -23
-12 -21 -7 15 44 18 27 18 57 -2 57 -5 0 -14 -15 -21 -34z"/>
<path d="M130 6206 c-6 -18 -20 -42 -30 -51 -26 -23 -26 -45 0 -45 24 0 26
-13 5 -30 -8 -7 -15 -19 -15 -27 0 -12 7 -14 28 -8 15 3 37 7 50 7 26 0 31 35
7 45 -14 5 -14 8 0 29 17 27 20 54 5 54 -6 0 -13 -7 -16 -15 -4 -9 -15 -20
-26 -26 -23 -12 -21 -7 15 44 18 27 18 57 -2 57 -5 0 -14 -15 -21 -34z m20
-126 c0 -5 -5 -10 -11 -10 -5 0 -7 5 -4 10 3 6 8 10 11 10 2 0 4 -4 4 -10z"/>
<path d="M130 5756 c-6 -18 -20 -42 -30 -51 -26 -23 -26 -45 0 -45 24 0 26
-13 5 -30 -8 -7 -15 -19 -15 -27 0 -12 7 -14 28 -8 15 3 37 7 50 7 26 0 31 35
7 45 -14 5 -14 8 0 29 17 27 20 54 5 54 -6 0 -13 -7 -16 -15 -4 -9 -15 -20
-26 -26 -23 -12 -21 -7 15 44 18 27 18 57 -2 57 -5 0 -14 -15 -21 -34z m20
-126 c0 -5 -5 -10 -11 -10 -5 0 -7 5 -4 10 3 6 8 10 11 10 2 0 4 -4 4 -10z"/>
<path d="M82 5539 c1 -12 9 -24 16 -27 9 -3 13 3 10 19 -1 12 -9 24 -16 27 -9
3 -13 -3 -10 -19z"/>
<path d="M130 5306 c-6 -18 -20 -42 -30 -51 -26 -23 -26 -45 0 -45 24 0 26
-13 5 -30 -8 -7 -15 -19 -15 -27 0 -12 7 -14 28 -8 15 3 37 7 50 7 26 0 31 35
7 45 -14 5 -14 8 0 29 17 27 20 54 5 54 -6 0 -13 -7 -16 -15 -4 -9 -15 -20
-26 -26 -23 -12 -21 -7 15 44 18 27 18 57 -2 57 -5 0 -14 -15 -21 -34z m20
-126 c0 -5 -5 -10 -11 -10 -5 0 -7 5 -4 10 3 6 8 10 11 10 2 0 4 -4 4 -10z"/>
<path d="M122 5103 c5 -25 28 -28 28 -4 0 12 -6 21 -16 21 -9 0 -14 -7 -12
-17z"/>
<path d="M82 5089 c1 -12 9 -24 16 -27 9 -3 13 3 10 19 -1 12 -9 24 -16 27 -9
3 -13 -3 -10 -19z"/>
<path d="M130 4856 c-6 -18 -20 -42 -30 -51 -26 -23 -26 -45 0 -45 24 0 26
-13 5 -30 -8 -7 -15 -19 -15 -27 0 -12 7 -14 28 -8 15 3 37 7 50 7 26 0 31 35
7 45 -14 5 -14 8 0 29 17 27 20 54 5 54 -6 0 -13 -7 -16 -15 -4 -9 -15 -20
-26 -26 -23 -12 -21 -7 15 44 18 27 18 57 -2 57 -5 0 -14 -15 -21 -34z m20
-126 c0 -5 -5 -10 -11 -10 -5 0 -7 5 -4 10 3 6 8 10 11 10 2 0 4 -4 4 -10z"/>
<path d="M160 4675 c0 -8 7 -15 15 -15 8 0 15 7 15 15 0 8 -7 15 -15 15 -8 0
-15 -7 -15 -15z"/>
<path d="M122 4653 c5 -25 28 -28 28 -4 0 12 -6 21 -16 21 -9 0 -14 -7 -12
-17z"/>
<path d="M82 4639 c1 -12 9 -24 16 -27 9 -3 13 3 10 19 -1 12 -9 24 -16 27 -9
3 -13 -3 -10 -19z"/>
<path d="M130 4406 c-6 -18 -20 -42 -30 -51 -26 -23 -26 -45 0 -45 24 0 26
-13 5 -30 -8 -7 -15 -19 -15 -27 0 -12 7 -14 28 -8 15 3 37 7 50 7 26 0 31 35
7 45 -14 5 -14 8 0 29 17 27 20 54 5 54 -6 0 -13 -7 -16 -15 -4 -9 -15 -20
-26 -26 -23 -12 -21 -7 15 44 18 27 18 57 -2 57 -5 0 -14 -15 -21 -34z m20
-126 c0 -5 -5 -10 -11 -10 -5 0 -7 5 -4 10 3 6 8 10 11 10 2 0 4 -4 4 -10z"/>
<path d="M233 4398 c-28 -14 -30 -32 -3 -25 27 7 25 -5 -6 -43 -27 -32 -25
-52 3 -34 44 28 74 106 43 111 -8 1 -25 -3 -37 -9z"/>
<path d="M160 4225 c0 -8 7 -15 15 -15 8 0 15 7 15 15 0 8 -7 15 -15 15 -8 0
-15 -7 -15 -15z"/>
<path d="M122 4203 c5 -25 28 -28 28 -4 0 12 -6 21 -16 21 -9 0 -14 -7 -12
-17z"/>
<path d="M82 4189 c1 -12 9 -24 16 -27 9 -3 13 3 10 19 -1 12 -9 24 -16 27 -9
3 -13 -3 -10 -19z"/>
<path d="M130 3956 c-6 -18 -20 -42 -30 -51 -26 -23 -26 -45 0 -45 24 0 26
-13 5 -30 -8 -7 -15 -19 -15 -27 0 -12 7 -14 28 -8 15 3 37 7 50 7 26 0 31 35
7 45 -14 5 -14 8 0 29 17 27 20 54 5 54 -6 0 -13 -7 -16 -15 -4 -9 -15 -20
-26 -26 -23 -12 -21 -7 15 44 18 27 18 57 -2 57 -5 0 -14 -15 -21 -34z m20
-126 c0 -5 -5 -10 -11 -10 -5 0 -7 5 -4 10 3 6 8 10 11 10 2 0 4 -4 4 -10z"/>
<path d="M228 3944 c-33 -17 -34 -22 -11 -39 17 -12 17 -14 -1 -34 -23 -25
-13 -40 14 -23 11 6 26 9 34 6 12 -5 15 2 15 28 0 18 1 42 3 53 4 25 -19 29
-54 9z"/>
<path d="M160 3775 c0 -8 7 -15 15 -15 8 0 15 7 15 15 0 8 -7 15 -15 15 -8 0
-15 -7 -15 -15z"/>
<path d="M122 3753 c5 -25 28 -28 28 -4 0 12 -6 21 -16 21 -9 0 -14 -7 -12
-17z"/>
<path d="M82 3739 c1 -12 9 -24 16 -27 9 -3 13 3 10 19 -1 12 -9 24 -16 27 -9
3 -13 -3 -10 -19z"/>
<path d="M130 3506 c-6 -18 -20 -42 -30 -51 -26 -23 -26 -45 0 -45 24 0 26
-13 5 -30 -8 -7 -15 -19 -15 -27 0 -12 7 -14 28 -8 15 3 37 7 50 7 26 0 31 35
7 45 -14 5 -14 8 0 29 17 27 20 54 5 54 -6 0 -13 -7 -16 -15 -4 -9 -15 -20
-26 -26 -23 -12 -21 -7 15 44 18 27 18 57 -2 57 -5 0 -14 -15 -21 -34z m20
-126 c0 -5 -5 -10 -11 -10 -5 0 -7 5 -4 10 3 6 8 10 11 10 2 0 4 -4 4 -10z"/>
<path d="M328 3508 c-35 -12 -37 -32 -3 -24 14 4 25 3 25 -2 0 -11 -31 -55
-50 -69 -8 -6 -12 -15 -8 -19 11 -11 57 23 79 59 33 54 15 77 -43 55z"/>
<path d="M228 3494 c-33 -17 -34 -22 -11 -39 17 -12 17 -14 -1 -34 -23 -25
-13 -40 14 -23 11 6 26 9 34 6 12 -5 15 2 15 28 0 18 1 42 3 53 4 25 -19 29
-54 9z"/>
<path d="M160 3325 c0 -8 7 -15 15 -15 8 0 15 7 15 15 0 8 -7 15 -15 15 -8 0
-15 -7 -15 -15z"/>
<path d="M122 3303 c5 -25 28 -28 28 -4 0 12 -6 21 -16 21 -9 0 -14 -7 -12
-17z"/>
<path d="M82 3289 c1 -12 9 -24 16 -27 9 -3 13 3 10 19 -1 12 -9 24 -16 27 -9
3 -13 -3 -10 -19z"/>
<path d="M130 3056 c-6 -18 -20 -42 -30 -51 -26 -23 -26 -45 0 -45 24 0 26
-13 5 -30 -8 -7 -15 -19 -15 -27 0 -12 7 -14 28 -8 15 3 37 7 50 7 26 0 31 35
7 45 -14 5 -14 8 0 29 17 27 20 54 5 54 -6 0 -13 -7 -16 -15 -4 -9 -15 -20
-26 -26 -23 -12 -21 -7 15 44 18 27 18 57 -2 57 -5 0 -14 -15 -21 -34z m20
-126 c0 -5 -5 -10 -11 -10 -5 0 -7 5 -4 10 3 6 8 10 11 10 2 0 4 -4 4 -10z"/>
<path d="M328 3058 c-32 -11 -35 -20 -13 -38 20 -17 19 -26 -7 -50 -28 -26
-16 -37 18 -15 19 12 29 14 37 6 6 -6 15 -11 19 -11 12 0 10 38 -2 45 -7 4 -6
13 1 26 12 24 5 49 -13 48 -7 0 -25 -5 -40 -11z m22 -28 c0 -5 -2 -10 -4 -10
-3 0 -8 5 -11 10 -3 6 -1 10 4 10 6 0 11 -4 11 -10z"/>
<path d="M228 3044 c-33 -17 -34 -22 -11 -39 17 -12 17 -14 -1 -34 -23 -25
-13 -40 14 -23 11 6 26 9 34 6 12 -5 15 2 15 28 0 18 1 42 3 53 4 25 -19 29
-54 9z"/>
<path d="M160 2875 c0 -8 7 -15 15 -15 8 0 15 7 15 15 0 8 -7 15 -15 15 -8 0
-15 -7 -15 -15z"/>
<path d="M122 2853 c5 -25 28 -28 28 -4 0 12 -6 21 -16 21 -9 0 -14 -7 -12
-17z"/>
<path d="M82 2839 c1 -12 9 -24 16 -27 9 -3 13 3 10 19 -1 12 -9 24 -16 27 -9
3 -13 -3 -10 -19z"/>
<path d="M130 2606 c-6 -18 -20 -42 -30 -51 -26 -23 -26 -45 0 -45 24 0 26
-13 5 -30 -8 -7 -15 -19 -15 -27 0 -12 7 -14 28 -8 15 3 37 7 50 7 26 0 31 35
7 45 -14 5 -14 8 0 29 17 27 20 54 5 54 -6 0 -13 -7 -16 -15 -4 -9 -15 -20
-26 -26 -23 -12 -21 -7 15 44 18 27 18 57 -2 57 -5 0 -14 -15 -21 -34z m20
-126 c0 -5 -5 -10 -11 -10 -5 0 -7 5 -4 10 3 6 8 10 11 10 2 0 4 -4 4 -10z"/>
<path d="M328 2608 c-32 -11 -35 -20 -13 -38 20 -17 19 -26 -7 -50 -28 -26
-16 -37 18 -15 19 12 29 14 37 6 6 -6 15 -11 19 -11 12 0 10 38 -2 45 -7 4 -6
13 1 26 12 24 5 49 -13 48 -7 0 -25 -5 -40 -11z m22 -28 c0 -5 -2 -10 -4 -10
-3 0 -8 5 -11 10 -3 6 -1 10 4 10 6 0 11 -4 11 -10z"/>
<path d="M228 2594 c-33 -17 -34 -22 -11 -39 17 -12 17 -14 -1 -34 -23 -25
-13 -40 14 -23 11 6 26 9 34 6 12 -5 15 2 15 28 0 18 1 42 3 53 4 25 -19 29
-54 9z"/>
<path d="M218 2473 c-28 -7 -21 -26 7 -21 l24 5 -17 -30 c-9 -16 -25 -35 -34
-41 -21 -13 -23 -26 -5 -26 24 0 87 79 87 109 0 11 -29 13 -62 4z"/>
<path d="M160 2425 c0 -8 7 -15 15 -15 8 0 15 7 15 15 0 8 -7 15 -15 15 -8 0
-15 -7 -15 -15z"/>
<path d="M122 2403 c5 -25 28 -28 28 -4 0 12 -6 21 -16 21 -9 0 -14 -7 -12
-17z"/>
<path d="M82 2389 c1 -12 9 -24 16 -27 9 -3 13 3 10 19 -1 12 -9 24 -16 27 -9
3 -13 -3 -10 -19z"/>
<path d="M130 2156 c-6 -18 -20 -42 -30 -51 -26 -23 -26 -45 0 -45 24 0 26
-13 5 -30 -8 -7 -15 -19 -15 -27 0 -12 7 -14 28 -8 15 3 37 7 50 7 26 0 31 35
7 45 -14 5 -14 8 0 29 17 27 20 54 5 54 -6 0 -13 -7 -16 -15 -4 -9 -15 -20
-26 -26 -23 -12 -21 -7 15 44 18 27 18 57 -2 57 -5 0 -14 -15 -21 -34z m20
-126 c0 -5 -5 -10 -11 -10 -5 0 -7 5 -4 10 3 6 8 10 11 10 2 0 4 -4 4 -10z"/>
<path d="M328 2158 c-32 -11 -35 -20 -13 -38 20 -17 19 -26 -7 -50 -28 -26
-16 -37 18 -15 19 12 29 14 37 6 6 -6 15 -11 19 -11 12 0 10 38 -2 45 -7 4 -6
13 1 26 12 24 5 49 -13 48 -7 0 -25 -5 -40 -11z m22 -28 c0 -5 -2 -10 -4 -10
-3 0 -8 5 -11 10 -3 6 -1 10 4 10 6 0 11 -4 11 -10z"/>
<path d="M228 2144 c-33 -17 -34 -22 -11 -39 17 -12 17 -14 -1 -34 -23 -25
-13 -40 14 -23 11 6 26 9 34 6 12 -5 15 2 15 28 0 18 1 42 3 53 4 25 -19 29
-54 9z"/>
<path d="M218 2023 c-21 -5 -22 -16 -5 -44 10 -17 9 -23 -10 -39 -13 -10 -23
-21 -23 -24 0 -14 28 -5 45 14 13 14 22 17 29 10 13 -13 36 -13 36 -1 0 5 -6
16 -14 24 -9 9 -11 19 -5 28 21 34 1 46 -53 32z"/>
<path d="M160 1975 c0 -8 7 -15 15 -15 8 0 15 7 15 15 0 8 -7 15 -15 15 -8 0
-15 -7 -15 -15z"/>
<path d="M122 1953 c5 -25 28 -28 28 -4 0 12 -6 21 -16 21 -9 0 -14 -7 -12
-17z"/>
<path d="M82 1939 c1 -12 9 -24 16 -27 9 -3 13 3 10 19 -1 12 -9 24 -16 27 -9
3 -13 -3 -10 -19z"/>
<path d="M130 1706 c-6 -18 -20 -42 -30 -51 -26 -23 -26 -45 0 -45 24 0 26
-13 5 -30 -8 -7 -15 -19 -15 -27 0 -12 7 -14 28 -8 15 3 37 7 50 7 26 0 31 35
7 45 -14 5 -14 8 0 29 17 27 20 54 5 54 -6 0 -13 -7 -16 -15 -4 -9 -15 -20
-26 -26 -23 -12 -21 -7 15 44 18 27 18 57 -2 57 -5 0 -14 -15 -21 -34z m20
-126 c0 -5 -5 -10 -11 -10 -5 0 -7 5 -4 10 3 6 8 10 11 10 2 0 4 -4 4 -10z"/>
<path d="M328 1708 c-32 -11 -35 -20 -13 -38 20 -17 19 -26 -7 -50 -28 -26
-16 -37 18 -15 19 12 29 14 37 6 6 -6 15 -11 19 -11 12 0 10 38 -2 45 -7 4 -6
13 1 26 12 24 5 49 -13 48 -7 0 -25 -5 -40 -11z m22 -28 c0 -5 -2 -10 -4 -10
-3 0 -8 5 -11 10 -3 6 -1 10 4 10 6 0 11 -4 11 -10z"/>
<path d="M228 1694 c-33 -17 -34 -22 -11 -39 17 -12 17 -14 -1 -34 -23 -25
-13 -40 14 -23 11 6 26 9 34 6 12 -5 15 2 15 28 0 18 1 42 3 53 4 25 -19 29
-54 9z"/>
<path d="M346 1593 c-4 -4 -36 -10 -72 -14 -36 -3 -68 -9 -71 -13 -4 -3 0 -18
8 -32 12 -24 12 -28 -9 -44 -12 -10 -22 -21 -22 -24 0 -13 25 -5 45 14 l21 20
23 -21 c20 -19 26 -20 48 -8 34 18 80 108 61 120 -16 11 -23 11 -32 2z m-7
-52 c-17 -47 -36 -58 -59 -34 -23 25 -10 49 30 56 14 2 28 5 32 6 4 0 2 -12
-3 -28z"/>
<path d="M160 1525 c0 -8 7 -15 15 -15 8 0 15 7 15 15 0 8 -7 15 -15 15 -8 0
-15 -7 -15 -15z"/>
<path d="M122 1503 c5 -25 28 -28 28 -4 0 12 -6 21 -16 21 -9 0 -14 -7 -12
-17z"/>
<path d="M82 1489 c1 -12 9 -24 16 -27 9 -3 13 3 10 19 -1 12 -9 24 -16 27 -9
3 -13 -3 -10 -19z"/>
<path d="M130 1256 c-6 -18 -20 -42 -30 -51 -26 -23 -26 -45 0 -45 24 0 26
-13 5 -30 -8 -7 -15 -19 -15 -27 0 -12 7 -14 28 -8 15 3 37 7 50 7 26 0 31 35
7 45 -14 5 -14 8 0 29 17 27 20 54 5 54 -6 0 -13 -7 -16 -15 -4 -9 -15 -20
-26 -26 -23 -12 -21 -7 15 44 18 27 18 57 -2 57 -5 0 -14 -15 -21 -34z m20
-126 c0 -5 -5 -10 -11 -10 -5 0 -7 5 -4 10 3 6 8 10 11 10 2 0 4 -4 4 -10z"/>
<path d="M328 1258 c-32 -11 -35 -20 -13 -38 20 -17 19 -26 -7 -50 -28 -26
-16 -37 18 -15 19 12 29 14 37 6 6 -6 15 -11 19 -11 12 0 10 38 -2 45 -7 4 -6
13 1 26 12 24 5 49 -13 48 -7 0 -25 -5 -40 -11z m22 -28 c0 -5 -2 -10 -4 -10
-3 0 -8 5 -11 10 -3 6 -1 10 4 10 6 0 11 -4 11 -10z"/>
<path d="M228 1244 c-33 -17 -34 -22 -11 -39 17 -12 17 -14 -1 -34 -23 -25
-13 -40 14 -23 11 6 26 9 34 6 12 -5 15 2 15 28 0 18 1 42 3 53 4 25 -19 29
-54 9z"/>
<path d="M346 1143 c-4 -4 -36 -10 -72 -14 -36 -3 -68 -9 -71 -13 -4 -3 0 -18
8 -32 12 -24 12 -28 -9 -44 -12 -10 -22 -21 -22 -24 0 -13 25 -5 45 14 l21 20
23 -21 c20 -19 26 -20 47 -9 20 11 27 11 42 -3 20 -18 72 -23 72 -7 0 5 -13
16 -29 25 -41 21 -44 30 -25 66 13 26 14 33 2 40 -16 11 -23 11 -32 2z m-2
-38 c-4 -8 -10 -12 -15 -9 -11 6 -2 24 11 24 5 0 7 -7 4 -15z m-24 -41 c0 -23
-21 -27 -40 -7 -13 15 -15 24 -8 37 9 17 11 17 29 0 10 -9 19 -23 19 -30z"/>
<path d="M160 1075 c0 -8 7 -15 15 -15 8 0 15 7 15 15 0 8 -7 15 -15 15 -8 0
-15 -7 -15 -15z"/>
<path d="M122 1053 c5 -25 28 -28 28 -4 0 12 -6 21 -16 21 -9 0 -14 -7 -12
-17z"/>
<path d="M82 1039 c1 -12 9 -24 16 -27 9 -3 13 3 10 19 -1 12 -9 24 -16 27 -9
3 -13 -3 -10 -19z"/>
</g>
</svg>
