<?xml version="1.0" standalone="no"?>
<!DOCTYPE svg PUBLIC "-//W3C//DTD SVG 20010904//EN"
 "http://www.w3.org/TR/2001/REC-SVG-20010904/DTD/svg10.dtd">
<svg version="1.0" xmlns="http://www.w3.org/2000/svg"
 width="50.000000pt" height="725.000000pt" viewBox="0 0 50.000000 725.000000"
 preserveAspectRatio="xMidYMid meet">
<metadata>
Created by potrace 1.16, written by Peter Selinger 2001-2019
</metadata>
<g transform="translate(0.000000,725.000000) scale(0.100000,-0.100000)"
fill="#000000" stroke="none">
<path d="M116 7079 c-15 -33 -26 -63 -23 -66 8 -8 67 7 67 18 0 5 -7 9 -16 9
-13 0 -12 6 6 35 20 33 22 66 3 64 -4 0 -21 -27 -37 -60z"/>
<path d="M118 6631 c-34 -71 -34 -75 -2 -68 l25 4 -27 -28 c-36 -37 -22 -59
25 -39 32 13 39 26 20 32 -7 2 0 17 16 36 15 18 24 39 21 47 -8 21 -24 19 -31
-5 -3 -11 -13 -20 -21 -20 -13 0 -11 7 6 35 20 33 22 66 3 64 -4 0 -20 -26
-35 -58z"/>
<path d="M118 6181 c-34 -71 -34 -75 -2 -68 l25 4 -27 -28 c-37 -38 -22 -59
28 -38 18 7 39 12 46 11 15 -4 16 24 1 34 -6 3 -15 0 -20 -7 -4 -7 -11 -11
-14 -7 -3 3 6 20 21 37 14 17 23 38 20 46 -8 21 -24 19 -31 -5 -3 -11 -13 -20
-21 -20 -13 0 -11 7 6 35 20 33 22 66 3 64 -4 0 -20 -26 -35 -58z"/>
<path d="M118 5731 c-34 -71 -34 -75 -2 -68 l25 4 -27 -28 c-37 -38 -22 -59
28 -38 18 7 39 12 46 11 15 -4 16 24 1 34 -6 3 -15 0 -20 -7 -4 -7 -11 -11
-14 -7 -3 3 6 20 21 37 14 17 23 38 20 46 -8 21 -24 19 -31 -5 -3 -11 -13 -20
-21 -20 -13 0 -11 7 6 35 20 33 22 66 3 64 -4 0 -20 -26 -35 -58z"/>
<path d="M70 5566 c0 -16 21 -56 30 -56 16 0 11 47 -6 54 -19 7 -24 8 -24 2z"/>
<path d="M118 5281 c-34 -71 -34 -75 -2 -68 l25 4 -27 -28 c-37 -38 -22 -59
28 -38 18 7 39 12 46 11 15 -4 16 24 1 34 -6 3 -15 0 -20 -7 -4 -7 -11 -11
-14 -7 -3 3 6 20 21 37 14 17 23 38 20 46 -8 21 -24 19 -31 -5 -3 -11 -13 -20
-21 -20 -13 0 -11 7 6 35 20 33 22 66 3 64 -4 0 -20 -26 -35 -58z"/>
<path d="M122 5114 c1 -9 9 -19 16 -22 9 -3 13 2 10 14 -1 9 -9 19 -16 22 -9
3 -13 -2 -10 -14z"/>
<path d="M70 5116 c0 -16 21 -56 30 -56 16 0 11 47 -6 54 -19 7 -24 8 -24 2z"/>
<path d="M118 4831 c-34 -71 -34 -75 -2 -68 l25 4 -27 -28 c-37 -38 -22 -59
28 -38 18 7 39 12 46 11 15 -4 16 24 1 34 -6 3 -15 0 -20 -7 -4 -7 -11 -11
-14 -7 -3 3 6 20 21 37 14 17 23 38 20 46 -8 21 -24 19 -31 -5 -3 -11 -13 -20
-21 -20 -13 0 -11 7 6 35 20 33 22 66 3 64 -4 0 -20 -26 -35 -58z"/>
<path d="M150 4692 c0 -10 22 -32 32 -32 15 0 8 28 -8 34 -21 8 -24 8 -24 -2z"/>
<path d="M122 4664 c1 -9 9 -19 16 -22 9 -3 13 2 10 14 -1 9 -9 19 -16 22 -9
3 -13 -2 -10 -14z"/>
<path d="M70 4666 c0 -16 21 -56 30 -56 16 0 11 47 -6 54 -19 7 -24 8 -24 2z"/>
<path d="M258 4428 c-23 -54 -14 -62 20 -18 31 39 34 54 12 57 -9 2 -22 -12
-32 -39z"/>
<path d="M118 4381 c-34 -71 -34 -75 -2 -68 l25 4 -27 -28 c-37 -38 -22 -59
28 -38 18 7 39 12 46 11 15 -4 16 24 1 34 -6 3 -15 0 -20 -7 -4 -7 -11 -11
-14 -7 -3 3 6 20 21 37 14 17 23 38 20 46 -8 21 -24 19 -31 -5 -3 -11 -13 -20
-21 -20 -13 0 -11 7 6 35 20 33 22 66 3 64 -4 0 -20 -26 -35 -58z"/>
<path d="M150 4242 c0 -10 22 -32 32 -32 15 0 8 28 -8 34 -21 8 -24 8 -24 -2z"/>
<path d="M122 4214 c1 -9 9 -19 16 -22 9 -3 13 2 10 14 -1 9 -9 19 -16 22 -9
3 -13 -2 -10 -14z"/>
<path d="M70 4216 c0 -16 21 -56 30 -56 16 0 11 47 -6 54 -19 7 -24 8 -24 2z"/>
<path d="M258 3980 c-10 -24 -23 -40 -33 -40 -12 0 -15 -5 -10 -17 4 -10 9
-33 12 -50 8 -48 26 -40 21 9 -3 36 1 46 29 77 34 37 37 54 12 59 -8 1 -21
-14 -31 -38z"/>
<path d="M118 3931 c-34 -71 -34 -75 -2 -68 l25 4 -27 -28 c-37 -38 -22 -59
28 -38 18 7 39 12 46 11 15 -4 16 24 1 34 -6 3 -15 0 -20 -7 -4 -7 -11 -11
-14 -7 -3 3 6 20 21 37 14 17 23 38 20 46 -8 21 -24 19 -31 -5 -3 -11 -13 -20
-21 -20 -13 0 -11 7 6 35 20 33 22 66 3 64 -4 0 -20 -26 -35 -58z"/>
<path d="M150 3792 c0 -10 22 -32 32 -32 15 0 8 28 -8 34 -21 8 -24 8 -24 -2z"/>
<path d="M122 3764 c1 -9 9 -19 16 -22 9 -3 13 2 10 14 -1 9 -9 19 -16 22 -9
3 -13 -2 -10 -14z"/>
<path d="M70 3766 c0 -16 21 -56 30 -56 16 0 11 47 -6 54 -19 7 -24 8 -24 2z"/>
<path d="M258 3530 c-10 -24 -23 -40 -33 -40 -12 0 -15 -5 -10 -17 4 -10 9
-33 12 -50 8 -46 26 -41 21 5 -2 22 0 43 4 48 46 55 58 75 53 84 -13 20 -30 9
-47 -30z"/>
<path d="M118 3481 c-34 -71 -34 -75 -2 -68 l25 4 -27 -28 c-37 -38 -22 -59
28 -38 18 7 39 12 46 11 15 -4 16 24 1 34 -6 3 -15 0 -20 -7 -4 -7 -11 -11
-14 -7 -3 3 6 20 21 37 14 17 23 38 20 46 -8 21 -24 19 -31 -5 -3 -11 -13 -20
-21 -20 -13 0 -11 7 6 35 20 33 22 66 3 64 -4 0 -20 -26 -35 -58z"/>
<path d="M303 3503 c-32 -6 -29 -23 3 -23 24 0 26 -3 20 -27 -11 -48 -11 -56
1 -60 6 -2 18 18 28 48 15 43 15 53 4 60 -15 9 -19 9 -56 2z"/>
<path d="M150 3342 c0 -10 22 -32 32 -32 15 0 8 28 -8 34 -21 8 -24 8 -24 -2z"/>
<path d="M122 3314 c1 -9 9 -19 16 -22 9 -3 13 2 10 14 -1 9 -9 19 -16 22 -9
3 -13 -2 -10 -14z"/>
<path d="M70 3316 c0 -16 21 -56 30 -56 16 0 11 47 -6 54 -19 7 -24 8 -24 2z"/>
<path d="M258 3080 c-10 -24 -23 -40 -33 -40 -12 0 -15 -5 -10 -17 4 -10 9
-33 12 -50 8 -46 26 -41 21 5 -2 22 0 43 4 48 46 55 58 75 53 84 -13 20 -30 9
-47 -30z"/>
<path d="M118 3031 c-34 -71 -34 -75 -2 -68 l25 4 -27 -28 c-37 -38 -22 -59
28 -38 18 7 39 12 46 11 15 -4 16 24 1 34 -6 3 -15 0 -20 -7 -4 -7 -11 -11
-14 -7 -3 3 6 20 21 37 14 17 23 38 20 46 -8 21 -24 19 -31 -5 -3 -11 -13 -20
-21 -20 -13 0 -11 7 6 35 20 33 22 66 3 64 -4 0 -20 -26 -35 -58z"/>
<path d="M303 3053 c-31 -6 -29 -23 2 -23 14 0 25 -4 25 -10 0 -5 -16 -10 -35
-10 -19 0 -35 -4 -35 -10 0 -5 13 -10 30 -10 24 0 29 -4 27 -21 -4 -44 21 -29
38 22 15 43 15 53 4 60 -15 9 -19 9 -56 2z"/>
<path d="M150 2892 c0 -10 22 -32 32 -32 15 0 8 28 -8 34 -21 8 -24 8 -24 -2z"/>
<path d="M122 2864 c1 -9 9 -19 16 -22 9 -3 13 2 10 14 -1 9 -9 19 -16 22 -9
3 -13 -2 -10 -14z"/>
<path d="M70 2866 c0 -16 21 -56 30 -56 16 0 11 47 -6 54 -19 7 -24 8 -24 2z"/>
<path d="M258 2630 c-10 -24 -23 -40 -33 -40 -12 0 -15 -5 -10 -17 4 -10 9
-31 12 -48 5 -29 7 -30 59 -30 l54 0 16 49 c18 53 9 71 -31 61 -11 -2 -26 -5
-32 -5 -7 0 -13 -4 -13 -10 0 -5 11 -10 25 -10 14 0 25 -4 25 -10 0 -5 -16
-10 -35 -10 -19 0 -35 -4 -35 -10 0 -5 14 -10 30 -10 17 0 30 -4 30 -10 0 -5
-15 -10 -34 -10 -28 0 -35 4 -38 23 -2 12 0 27 4 32 4 6 19 25 34 42 14 18 23
37 19 43 -13 20 -30 9 -47 -30z"/>
<path d="M118 2581 c-34 -71 -34 -75 -2 -68 l25 4 -27 -28 c-37 -38 -22 -59
28 -38 18 7 39 12 46 11 15 -4 16 24 1 34 -6 3 -15 0 -20 -7 -4 -7 -11 -11
-14 -7 -3 3 6 20 21 37 14 17 23 38 20 46 -8 21 -24 19 -31 -5 -3 -11 -13 -20
-21 -20 -13 0 -11 7 6 35 20 33 22 66 3 64 -4 0 -20 -26 -35 -58z"/>
<path d="M150 2442 c0 -10 22 -32 32 -32 15 0 8 28 -8 34 -21 8 -24 8 -24 -2z"/>
<path d="M122 2414 c1 -9 9 -19 16 -22 9 -3 13 2 10 14 -1 9 -9 19 -16 22 -9
3 -13 -2 -10 -14z"/>
<path d="M70 2416 c0 -16 21 -56 30 -56 16 0 11 47 -6 54 -19 7 -24 8 -24 2z"/>
<path d="M258 2180 c-10 -24 -23 -40 -33 -40 -12 0 -15 -5 -10 -17 4 -10 9
-33 12 -51 4 -25 10 -31 23 -27 13 4 19 -2 24 -26 11 -57 7 -97 -11 -108 -17
-9 -17 -11 -1 -27 28 -29 38 -7 38 82 0 79 1 85 19 79 16 -5 22 3 36 46 19 56
11 74 -30 64 -11 -2 -26 -5 -32 -5 -7 0 -13 -4 -13 -10 0 -5 11 -10 25 -10 14
0 25 -4 25 -10 0 -5 -16 -10 -35 -10 -19 0 -35 -4 -35 -10 0 -5 14 -10 30 -10
17 0 30 -4 30 -10 0 -5 -15 -10 -34 -10 -28 0 -35 4 -38 23 -2 12 0 27 4 32 4
6 19 25 34 42 14 18 23 37 19 43 -13 20 -30 9 -47 -30z"/>
<path d="M118 2131 c-34 -71 -34 -75 -2 -68 l25 4 -27 -28 c-37 -38 -22 -59
28 -38 18 7 39 12 46 11 15 -4 16 24 1 34 -6 3 -15 0 -20 -7 -4 -7 -11 -11
-14 -7 -3 3 6 20 21 37 14 17 23 38 20 46 -8 21 -24 19 -31 -5 -3 -11 -13 -20
-21 -20 -13 0 -11 7 6 35 20 33 22 66 3 64 -4 0 -20 -26 -35 -58z"/>
<path d="M150 1992 c0 -10 22 -32 32 -32 15 0 8 28 -8 34 -21 8 -24 8 -24 -2z"/>
<path d="M122 1964 c1 -9 9 -19 16 -22 9 -3 13 2 10 14 -1 9 -9 19 -16 22 -9
3 -13 -2 -10 -14z"/>
<path d="M70 1966 c0 -16 21 -56 30 -56 16 0 11 47 -6 54 -19 7 -24 8 -24 2z"/>
<path d="M258 1730 c-10 -24 -23 -40 -33 -40 -12 0 -15 -5 -10 -17 4 -10 9
-33 12 -51 5 -26 9 -31 24 -27 13 4 19 1 19 -9 0 -9 -8 -16 -19 -16 -11 0 -26
-3 -35 -6 -10 -4 -16 -1 -16 9 0 22 -20 32 -31 16 -4 -7 -11 -11 -14 -7 -3 3
6 20 21 37 14 17 23 38 20 46 -8 21 -24 19 -31 -5 -3 -11 -13 -20 -21 -20 -11
0 -10 9 8 40 18 31 20 42 11 51 -7 7 -14 11 -15 8 -13 -21 -58 -116 -58 -123
0 -5 12 -6 26 -3 l25 4 -27 -28 c-22 -23 -25 -32 -16 -41 9 -9 20 -8 47 5 32
15 35 15 43 0 6 -10 16 -14 26 -10 24 9 4 -25 -30 -52 -15 -12 -24 -24 -20
-28 11 -11 51 18 85 61 l31 39 0 -46 c0 -33 -5 -49 -17 -56 -17 -9 -17 -11 -1
-27 28 -29 38 -7 38 82 0 79 1 85 19 79 16 -5 22 3 36 46 19 56 11 74 -30 64
-11 -2 -26 -5 -32 -5 -7 0 -13 -4 -13 -10 0 -5 11 -10 25 -10 14 0 25 -4 25
-10 0 -5 -16 -10 -35 -10 -19 0 -35 -4 -35 -10 0 -5 14 -10 30 -10 17 0 30 -4
30 -10 0 -5 -15 -10 -34 -10 -28 0 -35 4 -38 23 -2 12 0 27 4 32 4 6 19 25 34
42 14 18 23 37 19 43 -13 20 -30 9 -47 -30z"/>
<path d="M150 1542 c0 -10 22 -32 32 -32 15 0 8 28 -8 34 -21 8 -24 8 -24 -2z"/>
<path d="M122 1514 c1 -9 9 -19 16 -22 9 -3 13 2 10 14 -1 9 -9 19 -16 22 -9
3 -13 -2 -10 -14z"/>
<path d="M70 1516 c0 -16 21 -56 30 -56 16 0 11 47 -6 54 -19 7 -24 8 -24 2z"/>
<path d="M258 1280 c-10 -24 -23 -40 -33 -40 -12 0 -15 -5 -10 -17 4 -10 9
-33 12 -51 5 -26 9 -31 24 -27 13 4 19 1 19 -9 0 -9 -8 -16 -19 -16 -11 0 -26
-3 -35 -6 -10 -4 -16 -1 -16 9 0 22 -20 32 -31 16 -4 -7 -11 -11 -14 -7 -3 3
6 20 21 37 14 17 23 38 20 46 -8 21 -24 19 -31 -5 -3 -11 -13 -20 -21 -20 -11
0 -10 9 8 40 18 31 20 42 11 51 -7 7 -14 11 -15 8 -13 -21 -58 -116 -58 -123
0 -5 12 -6 26 -3 l25 4 -27 -28 c-22 -23 -25 -32 -16 -41 9 -9 20 -8 47 5 32
15 35 15 43 0 6 -10 16 -14 26 -10 24 9 4 -25 -30 -52 -15 -12 -24 -24 -20
-28 11 -11 51 18 85 61 l31 39 0 -46 c0 -33 -5 -49 -17 -56 -17 -9 -17 -11 -1
-27 28 -29 38 -7 38 82 0 79 1 85 19 79 16 -5 22 3 36 46 19 56 11 74 -30 64
-11 -2 -26 -5 -32 -5 -7 0 -13 -4 -13 -10 0 -5 11 -10 25 -10 14 0 25 -4 25
-10 0 -5 -16 -10 -35 -10 -19 0 -35 -4 -35 -10 0 -5 14 -10 30 -10 17 0 30 -4
30 -10 0 -5 -15 -10 -34 -10 -28 0 -35 4 -38 23 -2 12 0 27 4 32 4 6 19 25 34
42 14 18 23 37 19 43 -13 20 -30 9 -47 -30z"/>
<path d="M325 1120 c-10 -11 -16 -22 -13 -25 9 -9 69 17 65 29 -6 19 -32 18
-52 -4z"/>
<path d="M150 1092 c0 -10 22 -32 32 -32 15 0 8 28 -8 34 -21 8 -24 8 -24 -2z"/>
<path d="M122 1064 c1 -9 9 -19 16 -22 9 -3 13 2 10 14 -1 9 -9 19 -16 22 -9
3 -13 -2 -10 -14z"/>
<path d="M70 1066 c0 -16 21 -56 30 -56 16 0 11 47 -6 54 -19 7 -24 8 -24 2z"/>
<path d="M258 830 c-10 -24 -23 -40 -33 -40 -12 0 -15 -5 -10 -17 4 -10 9 -33
12 -51 5 -26 9 -31 24 -27 13 4 19 1 19 -9 0 -9 -8 -16 -19 -16 -11 0 -26 -3
-35 -6 -10 -4 -16 -1 -16 9 0 22 -20 32 -31 16 -4 -7 -11 -11 -14 -7 -3 3 6
20 21 37 14 17 23 38 20 46 -8 21 -24 19 -31 -5 -3 -11 -13 -20 -21 -20 -11 0
-10 9 8 40 18 31 20 42 11 51 -7 7 -14 11 -15 8 -13 -21 -58 -116 -58 -123 0
-5 12 -6 26 -3 l25 4 -27 -28 c-22 -23 -25 -32 -16 -41 9 -9 20 -8 47 5 32 15
35 15 43 0 6 -10 16 -14 26 -10 24 9 4 -25 -30 -52 -15 -12 -24 -24 -20 -28
11 -11 51 18 85 61 l31 39 0 -46 c0 -33 -5 -49 -17 -56 -17 -9 -17 -11 -1 -27
24 -24 38 -9 38 44 l0 47 26 -32 c21 -27 32 -33 65 -33 47 0 51 14 9 29 -17 6
-43 19 -57 31 l-26 20 32 11 c34 12 40 26 15 36 -8 3 -25 -4 -40 -17 l-24 -23
0 27 c0 22 3 26 19 21 16 -5 22 3 36 46 19 56 11 74 -30 64 -11 -2 -26 -5 -32
-5 -7 0 -13 -4 -13 -10 0 -5 11 -10 25 -10 14 0 25 -4 25 -10 0 -5 -16 -10
-35 -10 -19 0 -35 -4 -35 -10 0 -5 14 -10 30 -10 17 0 30 -4 30 -10 0 -5 -15
-10 -34 -10 -28 0 -35 4 -38 23 -2 12 0 27 4 32 4 6 19 25 34 42 14 18 23 37
19 43 -13 20 -30 9 -47 -30z"/>
<path d="M150 642 c0 -10 22 -32 32 -32 15 0 8 28 -8 34 -21 8 -24 8 -24 -2z"/>
<path d="M122 614 c1 -9 9 -19 16 -22 9 -3 13 2 10 14 -1 9 -9 19 -16 22 -9 3
-13 -2 -10 -14z"/>
<path d="M70 616 c0 -16 21 -56 30 -56 16 0 11 47 -6 54 -19 7 -24 8 -24 2z"/>
</g>
</svg>
