<?xml version="1.0" standalone="no"?>
<!DOCTYPE svg PUBLIC "-//W3C//DTD SVG 20010904//EN"
 "http://www.w3.org/TR/2001/REC-SVG-20010904/DTD/svg10.dtd">
<svg version="1.0" xmlns="http://www.w3.org/2000/svg"
 width="50.000000pt" height="725.000000pt" viewBox="0 0 50.000000 725.000000"
 preserveAspectRatio="xMidYMid meet">
<metadata>
Created by potrace 1.16, written by Peter Selinger 2001-2019
</metadata>
<g transform="translate(0.000000,725.000000) scale(0.100000,-0.100000)"
fill="#000000" stroke="none">
<path d="M144 7138 c-3 -13 -15 -35 -25 -50 -29 -40 -25 -62 8 -53 36 9 41 14
24 25 -11 6 -10 14 8 38 11 17 21 37 21 46 0 24 -28 19 -36 -6z"/>
<path d="M144 6688 c-3 -13 -15 -35 -25 -50 -26 -36 -25 -62 1 -55 21 5 19 -4
-8 -36 -25 -28 -2 -39 40 -19 40 18 51 38 18 29 -16 -4 -12 4 17 39 28 35 33
48 24 57 -9 9 -17 5 -35 -18 -31 -38 -45 -26 -17 13 12 17 21 37 21 46 0 24
-28 19 -36 -6z"/>
<path d="M144 6238 c-3 -13 -15 -35 -25 -50 -26 -36 -25 -62 1 -55 21 5 19 -4
-8 -36 -24 -27 -1 -43 31 -22 16 10 34 14 47 10 16 -5 20 -2 20 14 0 11 -7 24
-15 29 -14 7 -13 12 6 36 16 21 19 30 10 39 -9 9 -17 4 -35 -18 -31 -38 -45
-26 -17 13 12 17 21 37 21 46 0 24 -28 19 -36 -6z"/>
<path d="M144 5788 c-3 -13 -15 -35 -25 -50 -26 -36 -25 -62 1 -55 21 5 19 -4
-8 -36 -24 -27 -1 -43 31 -22 16 10 34 14 47 10 16 -5 20 -2 20 14 0 11 -7 24
-15 29 -14 7 -13 12 6 36 16 21 19 30 10 39 -9 9 -17 4 -35 -18 -31 -38 -45
-26 -17 13 12 17 21 37 21 46 0 24 -28 19 -36 -6z"/>
<path d="M80 5586 c0 -14 24 -56 32 -56 17 0 3 55 -14 58 -10 2 -18 1 -18 -2z"/>
<path d="M144 5338 c-3 -13 -15 -35 -25 -50 -26 -36 -25 -62 1 -55 21 5 19 -4
-8 -36 -24 -27 -1 -43 31 -22 16 10 34 14 47 10 16 -5 20 -2 20 14 0 11 -7 24
-15 29 -14 7 -13 12 6 36 16 21 19 30 10 39 -9 9 -17 4 -35 -18 -31 -38 -45
-26 -17 13 12 17 21 37 21 46 0 24 -28 19 -36 -6z"/>
<path d="M130 5151 c0 -21 13 -41 26 -41 17 0 18 22 2 38 -14 14 -28 16 -28 3z"/>
<path d="M80 5136 c0 -14 24 -56 32 -56 17 0 3 55 -14 58 -10 2 -18 1 -18 -2z"/>
<path d="M144 4888 c-3 -13 -15 -35 -25 -50 -26 -36 -25 -62 1 -55 21 5 19 -4
-8 -36 -24 -27 -1 -43 31 -22 16 10 34 14 47 10 16 -5 20 -2 20 14 0 11 -7 24
-15 29 -14 7 -13 12 6 36 16 21 19 30 10 39 -9 9 -17 4 -35 -18 -31 -38 -45
-26 -17 13 12 17 21 37 21 46 0 24 -28 19 -36 -6z"/>
<path d="M172 4708 c6 -18 28 -21 28 -4 0 9 -7 16 -16 16 -9 0 -14 -5 -12 -12z"/>
<path d="M130 4701 c0 -21 13 -41 26 -41 17 0 18 22 2 38 -14 14 -28 16 -28 3z"/>
<path d="M80 4686 c0 -14 24 -56 32 -56 17 0 3 55 -14 58 -10 2 -18 1 -18 -2z"/>
<path d="M144 4438 c-3 -13 -15 -35 -25 -50 -26 -36 -25 -62 1 -55 21 5 19 -4
-8 -36 -24 -27 -1 -43 31 -22 16 10 34 14 47 10 16 -5 20 -2 20 14 0 11 -7 24
-15 29 -14 7 -13 12 6 36 16 21 19 30 10 39 -9 9 -17 4 -35 -18 -31 -38 -45
-26 -17 13 12 17 21 37 21 46 0 24 -28 19 -36 -6z"/>
<path d="M244 4428 c3 -13 6 -29 6 -35 0 -7 7 -13 16 -13 11 0 14 5 10 16 -3
9 -6 24 -6 35 0 11 -7 19 -16 19 -12 0 -15 -6 -10 -22z"/>
<path d="M172 4258 c6 -18 28 -21 28 -4 0 9 -7 16 -16 16 -9 0 -14 -5 -12 -12z"/>
<path d="M130 4251 c0 -21 13 -41 26 -41 17 0 18 22 2 38 -14 14 -28 16 -28 3z"/>
<path d="M80 4236 c0 -14 24 -56 32 -56 17 0 3 55 -14 58 -10 2 -18 1 -18 -2z"/>
<path d="M144 3988 c-3 -13 -15 -35 -25 -50 -26 -36 -25 -62 1 -55 21 5 19 -4
-8 -36 -24 -27 -1 -43 31 -22 16 10 34 14 47 10 16 -5 20 -2 20 14 0 11 -7 24
-15 29 -14 7 -13 12 6 36 16 21 19 30 10 39 -9 9 -17 4 -35 -18 -31 -38 -45
-26 -17 13 12 17 21 37 21 46 0 24 -28 19 -36 -6z"/>
<path d="M327 3978 c8 -43 10 -45 28 -22 20 26 15 48 -12 52 -21 3 -22 0 -16
-30z"/>
<path d="M244 3978 c3 -13 6 -29 6 -35 0 -7 7 -13 15 -13 11 0 14 7 9 25 -5
21 -3 25 15 25 12 0 21 5 21 10 0 6 -16 10 -36 10 -33 0 -36 -2 -30 -22z"/>
<path d="M172 3808 c6 -18 28 -21 28 -4 0 9 -7 16 -16 16 -9 0 -14 -5 -12 -12z"/>
<path d="M130 3801 c0 -21 13 -41 26 -41 17 0 18 22 2 38 -14 14 -28 16 -28 3z"/>
<path d="M80 3786 c0 -14 24 -56 32 -56 17 0 3 55 -14 58 -10 2 -18 1 -18 -2z"/>
<path d="M144 3538 c-3 -13 -15 -35 -25 -50 -26 -36 -25 -62 1 -55 21 5 19 -4
-8 -36 -24 -27 -1 -43 31 -22 16 10 34 14 47 10 16 -5 20 -2 20 14 0 11 -7 24
-15 29 -14 7 -13 12 6 36 16 21 19 30 10 39 -9 9 -17 4 -35 -18 -31 -38 -45
-26 -17 13 12 17 21 37 21 46 0 24 -28 19 -36 -6z"/>
<path d="M326 3535 c4 -15 2 -25 -5 -25 -6 0 -11 -4 -11 -10 0 -20 37 -9 49
14 16 28 8 46 -20 46 -16 0 -18 -5 -13 -25z"/>
<path d="M244 3528 c3 -13 6 -29 6 -35 0 -7 11 -13 25 -13 27 0 34 15 10 24
-22 8 -18 26 5 26 11 0 20 5 20 10 0 6 -16 10 -36 10 -33 0 -36 -2 -30 -22z"/>
<path d="M172 3358 c6 -18 28 -21 28 -4 0 9 -7 16 -16 16 -9 0 -14 -5 -12 -12z"/>
<path d="M130 3351 c0 -21 13 -41 26 -41 17 0 18 22 2 38 -14 14 -28 16 -28 3z"/>
<path d="M80 3336 c0 -14 24 -56 32 -56 17 0 3 55 -14 58 -10 2 -18 1 -18 -2z"/>
<path d="M144 3088 c-3 -13 -15 -35 -25 -50 -26 -36 -25 -62 1 -55 21 5 19 -4
-8 -36 -24 -27 -1 -43 31 -22 16 10 34 14 47 10 16 -5 20 -2 20 14 0 11 -7 24
-15 29 -14 7 -13 12 6 36 16 21 19 30 10 39 -9 9 -17 4 -35 -18 -31 -38 -45
-26 -17 13 12 17 21 37 21 46 0 24 -28 19 -36 -6z"/>
<path d="M326 3085 c4 -15 2 -25 -5 -25 -6 0 -11 -4 -11 -10 0 -20 37 -9 49
14 16 28 8 46 -20 46 -16 0 -18 -5 -13 -25z"/>
<path d="M244 3078 c3 -13 6 -29 6 -35 0 -7 11 -13 25 -13 27 0 34 15 10 24
-22 8 -18 26 5 26 11 0 20 5 20 10 0 6 -16 10 -36 10 -33 0 -36 -2 -30 -22z"/>
<path d="M325 3019 c-22 -4 -57 -8 -77 -8 -21 -1 -38 -6 -38 -12 0 -8 25 -9
88 -4 48 4 89 9 91 10 5 5 -9 25 -17 24 -4 -1 -25 -5 -47 -10z"/>
<path d="M172 2908 c6 -18 28 -21 28 -4 0 9 -7 16 -16 16 -9 0 -14 -5 -12 -12z"/>
<path d="M130 2901 c0 -21 13 -41 26 -41 17 0 18 22 2 38 -14 14 -28 16 -28 3z"/>
<path d="M80 2886 c0 -14 24 -56 32 -56 17 0 3 55 -14 58 -10 2 -18 1 -18 -2z"/>
<path d="M144 2638 c-3 -13 -15 -35 -25 -50 -26 -36 -25 -62 1 -55 21 5 19 -4
-8 -36 -24 -27 -1 -43 31 -22 16 10 34 14 47 10 16 -5 20 -2 20 14 0 11 -7 24
-15 29 -14 7 -13 12 6 36 16 21 19 30 10 39 -9 9 -17 4 -35 -18 -31 -38 -45
-26 -17 13 12 17 21 37 21 46 0 24 -28 19 -36 -6z"/>
<path d="M326 2635 c4 -15 2 -25 -5 -25 -6 0 -11 -4 -11 -10 0 -20 37 -9 49
14 16 28 8 46 -20 46 -16 0 -18 -5 -13 -25z"/>
<path d="M244 2628 c3 -13 6 -29 6 -35 0 -7 11 -13 25 -13 27 0 34 15 10 24
-22 8 -18 26 5 26 11 0 20 5 20 10 0 6 -16 10 -36 10 -33 0 -36 -2 -30 -22z"/>
<path d="M325 2569 c-22 -4 -57 -8 -77 -8 -21 -1 -38 -5 -38 -11 0 -5 7 -10
15 -10 12 0 15 -13 15 -61 0 -80 24 -77 28 3 3 62 10 68 85 68 25 0 37 4 35
12 -6 16 -16 17 -63 7z"/>
<path d="M172 2458 c6 -18 28 -21 28 -4 0 9 -7 16 -16 16 -9 0 -14 -5 -12 -12z"/>
<path d="M130 2451 c0 -21 13 -41 26 -41 17 0 18 22 2 38 -14 14 -28 16 -28 3z"/>
<path d="M80 2436 c0 -14 24 -56 32 -56 17 0 3 55 -14 58 -10 2 -18 1 -18 -2z"/>
<path d="M144 2188 c-3 -13 -15 -35 -25 -50 -26 -36 -25 -62 1 -55 21 5 19 -4
-8 -36 -24 -27 -1 -43 31 -22 16 10 34 14 47 10 16 -5 20 -2 20 14 0 11 -7 24
-15 29 -14 7 -13 12 6 36 16 21 19 30 10 39 -9 9 -17 4 -35 -18 -31 -38 -45
-26 -17 13 12 17 21 37 21 46 0 24 -28 19 -36 -6z"/>
<path d="M326 2185 c4 -15 2 -25 -5 -25 -6 0 -11 -4 -11 -10 0 -20 37 -9 49
14 16 28 8 46 -20 46 -16 0 -18 -5 -13 -25z"/>
<path d="M244 2178 c3 -13 6 -29 6 -35 0 -7 11 -13 25 -13 27 0 34 15 10 24
-22 8 -18 26 5 26 11 0 20 5 20 10 0 6 -16 10 -36 10 -33 0 -36 -2 -30 -22z"/>
<path d="M325 2119 c-22 -4 -57 -8 -77 -8 -21 -1 -38 -5 -38 -11 0 -5 7 -10
15 -10 12 0 15 -13 15 -61 0 -81 24 -77 28 4 2 31 7 57 12 57 4 0 15 3 24 6
14 5 16 -8 16 -105 0 -61 4 -111 9 -111 15 0 21 29 21 103 0 86 7 117 27 117
16 0 13 22 -3 26 -5 1 -27 -2 -49 -7z"/>
<path d="M172 2008 c6 -18 28 -21 28 -4 0 9 -7 16 -16 16 -9 0 -14 -5 -12 -12z"/>
<path d="M130 2001 c0 -21 13 -41 26 -41 17 0 18 22 2 38 -14 14 -28 16 -28 3z"/>
<path d="M80 1986 c0 -14 24 -56 32 -56 17 0 3 55 -14 58 -10 2 -18 1 -18 -2z"/>
<path d="M144 1738 c-3 -13 -15 -35 -25 -50 -26 -36 -25 -62 1 -55 21 5 19 -4
-8 -36 -24 -27 -1 -43 31 -22 16 10 34 14 47 10 16 -5 20 -2 20 14 0 11 -7 24
-15 29 -14 7 -13 12 6 36 16 21 19 30 10 39 -9 9 -17 4 -35 -18 -31 -38 -45
-26 -17 13 12 17 21 37 21 46 0 24 -28 19 -36 -6z"/>
<path d="M326 1735 c4 -15 2 -25 -5 -25 -6 0 -11 -4 -11 -10 0 -20 37 -9 49
14 16 28 8 46 -20 46 -16 0 -18 -5 -13 -25z"/>
<path d="M244 1728 c3 -13 6 -29 6 -35 0 -7 11 -13 25 -13 27 0 34 15 10 24
-22 8 -18 26 5 26 11 0 20 5 20 10 0 6 -16 10 -36 10 -33 0 -36 -2 -30 -22z"/>
<path d="M325 1669 c-22 -4 -57 -8 -77 -8 -21 -1 -38 -5 -38 -11 0 -5 7 -10
15 -10 12 0 15 -13 15 -61 0 -81 24 -77 28 4 2 31 7 57 12 57 4 0 15 3 24 6
11 4 16 1 16 -10 0 -9 -8 -16 -20 -16 -11 0 -20 -4 -20 -10 0 -5 9 -10 20 -10
18 0 20 -7 20 -85 0 -47 4 -85 9 -85 15 0 21 29 21 103 0 86 7 117 27 117 16
0 13 22 -3 26 -5 1 -27 -2 -49 -7z"/>
<path d="M172 1558 c6 -18 28 -21 28 -4 0 9 -7 16 -16 16 -9 0 -14 -5 -12 -12z"/>
<path d="M130 1551 c0 -21 13 -41 26 -41 17 0 18 22 2 38 -14 14 -28 16 -28 3z"/>
<path d="M80 1536 c0 -14 24 -56 32 -56 17 0 3 55 -14 58 -10 2 -18 1 -18 -2z"/>
<path d="M144 1288 c-3 -13 -15 -35 -25 -50 -26 -36 -25 -62 1 -55 21 5 19 -4
-8 -36 -24 -27 -1 -43 31 -22 16 10 34 14 47 10 16 -5 20 -2 20 14 0 11 -7 24
-15 29 -14 7 -13 12 6 36 16 21 19 30 10 39 -9 9 -17 4 -35 -18 -31 -38 -45
-26 -17 13 12 17 21 37 21 46 0 24 -28 19 -36 -6z"/>
<path d="M326 1285 c4 -15 2 -25 -5 -25 -6 0 -11 -4 -11 -10 0 -20 37 -9 49
14 16 28 8 46 -20 46 -16 0 -18 -5 -13 -25z"/>
<path d="M244 1278 c3 -13 6 -29 6 -35 0 -7 11 -13 25 -13 27 0 34 15 10 24
-22 8 -18 26 5 26 11 0 20 5 20 10 0 6 -16 10 -36 10 -33 0 -36 -2 -30 -22z"/>
<path d="M325 1219 c-22 -4 -57 -8 -77 -8 -21 -1 -38 -5 -38 -11 0 -5 7 -10
15 -10 12 0 15 -13 15 -60 0 -59 16 -83 27 -40 3 13 14 20 29 20 23 0 24 -3
24 -65 0 -36 4 -65 9 -65 15 0 21 29 21 103 0 86 7 117 27 117 16 0 13 22 -3
26 -5 1 -27 -2 -49 -7z m-5 -34 c0 -8 -9 -15 -20 -15 -11 0 -20 -4 -20 -10 0
-5 9 -10 20 -10 11 0 20 -4 20 -10 0 -5 -11 -10 -25 -10 -21 0 -25 5 -25 29 0
27 8 34 43 40 4 0 7 -6 7 -14z"/>
<path d="M172 1108 c6 -18 28 -21 28 -4 0 9 -7 16 -16 16 -9 0 -14 -5 -12 -12z"/>
<path d="M130 1101 c0 -21 13 -41 26 -41 17 0 18 22 2 38 -14 14 -28 16 -28 3z"/>
<path d="M80 1086 c0 -14 24 -56 32 -56 17 0 3 55 -14 58 -10 2 -18 1 -18 -2z"/>
<path d="M144 838 c-3 -13 -15 -35 -25 -50 -26 -36 -25 -62 1 -55 21 5 19 -4
-8 -36 -24 -27 -1 -43 31 -22 16 10 34 14 47 10 16 -5 20 -2 20 14 0 11 -7 24
-15 29 -14 7 -13 12 6 36 16 21 19 30 10 39 -9 9 -17 4 -35 -18 -31 -38 -45
-26 -17 13 12 17 21 37 21 46 0 24 -28 19 -36 -6z"/>
<path d="M326 835 c4 -15 2 -25 -5 -25 -6 0 -11 -4 -11 -10 0 -20 37 -9 49 14
16 28 8 46 -20 46 -16 0 -18 -5 -13 -25z"/>
<path d="M244 828 c3 -13 6 -29 6 -35 0 -7 11 -13 25 -13 27 0 34 15 10 24
-22 8 -18 26 5 26 11 0 20 5 20 10 0 6 -16 10 -36 10 -33 0 -36 -2 -30 -22z"/>
<path d="M325 769 c-22 -4 -57 -8 -77 -8 -21 -1 -38 -5 -38 -11 0 -5 7 -10 15
-10 12 0 15 -13 15 -55 0 -52 -1 -55 -25 -55 -14 0 -25 -5 -25 -11 0 -8 19
-10 65 -6 l65 6 0 -44 c0 -45 12 -59 24 -29 3 9 6 29 6 45 0 27 3 29 35 29 26
0 35 4 35 16 0 13 -8 15 -35 12 -33 -4 -35 -2 -35 27 0 46 11 75 27 75 16 0
13 22 -3 26 -5 1 -27 -2 -49 -7z m-5 -34 c0 -8 -9 -15 -20 -15 -11 0 -20 -4
-20 -10 0 -5 9 -10 20 -10 11 0 20 -4 20 -10 0 -5 -11 -10 -25 -10 -21 0 -25
5 -25 29 0 27 8 34 43 40 4 0 7 -6 7 -14z m0 -84 c0 -5 -11 -11 -25 -13 -17
-4 -25 -1 -25 8 0 8 11 14 25 14 14 0 25 -4 25 -9z"/>
<path d="M172 658 c6 -18 28 -21 28 -4 0 9 -7 16 -16 16 -9 0 -14 -5 -12 -12z"/>
<path d="M130 651 c0 -21 13 -41 26 -41 17 0 18 22 2 38 -14 14 -28 16 -28 3z"/>
<path d="M80 636 c0 -14 24 -56 32 -56 17 0 3 55 -14 58 -10 2 -18 1 -18 -2z"/>
</g>
</svg>
