<?xml version="1.0" standalone="no"?>
<!DOCTYPE svg PUBLIC "-//W3C//DTD SVG 20010904//EN"
 "http://www.w3.org/TR/2001/REC-SVG-20010904/DTD/svg10.dtd">
<svg version="1.0" xmlns="http://www.w3.org/2000/svg"
 width="50.000000pt" height="725.000000pt" viewBox="0 0 50.000000 725.000000"
 preserveAspectRatio="xMidYMid meet">
<metadata>
Created by potrace 1.16, written by Peter Selinger 2001-2019
</metadata>
<g transform="translate(0.000000,725.000000) scale(0.100000,-0.100000)"
fill="#000000" stroke="none">
<path d="M144 7104 c3 -9 6 -18 6 -20 0 -2 5 -4 10 -4 6 0 10 9 10 20 0 12 -7
20 -16 20 -11 0 -14 -5 -10 -16z"/>
<path d="M215 6679 c-4 -6 -5 -12 -2 -15 7 -7 37 7 37 17 0 13 -27 11 -35 -2z"/>
<path d="M144 6654 c3 -9 6 -18 6 -20 0 -2 5 -4 10 -4 6 0 10 9 10 20 0 12 -7
20 -16 20 -11 0 -14 -5 -10 -16z"/>
<path d="M184 6230 c-1 -22 -9 -51 -19 -66 -9 -14 -14 -28 -11 -31 9 -9 33 15
46 47 7 16 21 32 31 35 25 8 24 29 -1 22 -15 -4 -20 0 -20 14 0 10 -6 19 -13
19 -8 0 -13 -15 -13 -40z"/>
<path d="M144 6204 c3 -9 6 -18 6 -20 0 -2 5 -4 10 -4 6 0 10 9 10 20 0 12 -7
20 -16 20 -11 0 -14 -5 -10 -16z"/>
<path d="M184 5780 c-1 -22 -9 -51 -19 -66 -21 -33 -9 -46 15 -16 11 13 21 18
25 12 9 -15 25 -12 25 5 0 8 -7 15 -15 15 -20 0 -8 28 16 35 25 8 25 29 -1 22
-15 -4 -20 0 -20 14 0 10 -6 19 -13 19 -8 0 -13 -15 -13 -40z"/>
<path d="M144 5754 c3 -9 6 -18 6 -20 0 -2 5 -4 10 -4 6 0 10 9 10 20 0 12 -7
20 -16 20 -11 0 -14 -5 -10 -16z"/>
<path d="M184 5330 c-1 -22 -9 -51 -19 -66 -21 -33 -9 -46 15 -16 11 13 21 18
25 12 9 -15 25 -12 25 5 0 8 -7 15 -15 15 -20 0 -8 28 16 35 25 8 25 29 -1 22
-15 -4 -20 0 -20 14 0 10 -6 19 -13 19 -8 0 -13 -15 -13 -40z"/>
<path d="M144 5304 c3 -9 6 -18 6 -20 0 -2 5 -4 10 -4 6 0 10 9 10 20 0 12 -7
20 -16 20 -11 0 -14 -5 -10 -16z"/>
<path d="M232 5298 c6 -18 28 -21 28 -4 0 9 -7 16 -16 16 -9 0 -14 -5 -12 -12z"/>
<path d="M184 4880 c-1 -22 -9 -51 -19 -66 -21 -33 -9 -46 15 -16 11 13 21 18
25 12 9 -15 25 -12 25 5 0 8 -7 15 -15 15 -20 0 -8 28 16 35 25 8 25 29 -1 22
-15 -4 -20 0 -20 14 0 10 -6 19 -13 19 -8 0 -13 -15 -13 -40z"/>
<path d="M310 4885 c-7 -9 -10 -18 -7 -21 7 -8 47 14 47 26 0 15 -26 12 -40
-5z"/>
<path d="M144 4854 c3 -9 6 -18 6 -20 0 -2 5 -4 10 -4 6 0 10 9 10 20 0 12 -7
20 -16 20 -11 0 -14 -5 -10 -16z"/>
<path d="M232 4848 c6 -18 28 -21 28 -4 0 9 -7 16 -16 16 -9 0 -14 -5 -12 -12z"/>
<path d="M279 4453 c0 -28 -17 -78 -18 -55 -1 14 -31 17 -31 2 0 -6 7 -13 15
-16 12 -5 13 -9 4 -20 -7 -8 -9 -17 -5 -21 8 -8 46 26 46 41 0 7 14 20 30 29
31 19 40 37 17 37 -7 0 -19 -6 -25 -12 -10 -10 -12 -8 -10 11 2 13 -3 26 -9
28 -9 3 -13 -6 -14 -24z"/>
<path d="M184 4430 c-1 -22 -9 -51 -19 -66 -21 -33 -9 -46 15 -16 11 13 21 18
25 12 9 -15 25 -12 25 5 0 8 -7 15 -15 15 -20 0 -8 28 16 35 25 8 25 29 -1 22
-15 -4 -20 0 -20 14 0 10 -6 19 -13 19 -8 0 -13 -15 -13 -40z"/>
<path d="M144 4404 c3 -9 6 -18 6 -20 0 -2 5 -4 10 -4 6 0 10 9 10 20 0 12 -7
20 -16 20 -11 0 -14 -5 -10 -16z"/>
<path d="M279 4003 c0 -28 -17 -78 -18 -55 -1 14 -31 17 -31 2 0 -6 7 -13 15
-16 12 -5 13 -9 4 -20 -20 -25 0 -29 25 -5 20 19 24 20 36 6 16 -20 30 -19 30
1 0 9 -10 18 -22 22 -21 5 -21 6 7 28 31 25 27 46 -5 26 -17 -11 -19 -9 -17 9
1 12 -4 24 -10 26 -9 3 -13 -6 -14 -24z"/>
<path d="M184 3980 c-1 -22 -9 -51 -19 -66 -21 -33 -9 -46 15 -16 11 13 21 18
25 12 9 -15 25 -12 25 5 0 8 -7 15 -15 15 -20 0 -8 28 16 35 25 8 25 29 -1 22
-15 -4 -20 0 -20 14 0 10 -6 19 -13 19 -8 0 -13 -15 -13 -40z"/>
<path d="M144 3954 c3 -9 6 -18 6 -20 0 -2 5 -4 10 -4 6 0 10 9 10 20 0 12 -7
20 -16 20 -11 0 -14 -5 -10 -16z"/>
<path d="M279 3553 c0 -28 -17 -78 -18 -55 -1 14 -31 17 -31 2 0 -6 7 -13 15
-16 12 -5 13 -9 4 -20 -20 -25 0 -29 25 -5 20 19 24 20 36 6 16 -20 30 -19 30
1 0 9 -10 18 -22 22 -21 5 -21 6 7 28 31 25 27 46 -5 26 -17 -11 -19 -9 -17 9
1 12 -4 24 -10 26 -9 3 -13 -6 -14 -24z"/>
<path d="M184 3530 c-1 -22 -9 -51 -19 -66 -21 -33 -9 -46 15 -16 11 13 21 18
25 12 9 -15 25 -12 25 5 0 8 -7 15 -15 15 -20 0 -8 28 16 35 25 8 25 29 -1 22
-15 -4 -20 0 -20 14 0 10 -6 19 -13 19 -8 0 -13 -15 -13 -40z"/>
<path d="M144 3504 c3 -9 6 -18 6 -20 0 -2 5 -4 10 -4 6 0 10 9 10 20 0 12 -7
20 -16 20 -11 0 -14 -5 -10 -16z"/>
<path d="M100 3410 c-14 -34 -9 -46 15 -37 16 7 22 67 6 67 -5 0 -14 -14 -21
-30z"/>
<path d="M279 3103 c0 -28 -17 -78 -18 -55 -1 14 -31 17 -31 2 0 -5 6 -13 14
-17 22 -12 -2 -39 -40 -45 -29 -4 -31 -2 -21 14 8 11 15 14 21 8 15 -15 26
-12 26 5 0 8 -7 15 -15 15 -20 0 -8 28 16 35 25 8 25 29 -1 22 -15 -4 -20 0
-20 14 0 38 -25 19 -26 -20 -2 -49 -32 -103 -54 -96 -16 5 -40 -29 -40 -55 0
-18 32 -10 37 9 5 19 45 31 106 31 16 0 27 5 27 13 0 8 8 21 19 31 16 15 19
15 31 1 11 -13 9 -15 -14 -15 -14 0 -26 -4 -26 -10 0 -5 20 -10 45 -10 37 0
43 -3 38 -16 -5 -14 -1 -15 28 -9 44 10 46 11 23 36 -11 13 -27 19 -40 16 -16
-3 -24 2 -27 15 -3 10 -13 18 -24 18 -15 1 -12 5 12 25 31 26 27 47 -5 27 -17
-11 -19 -9 -17 9 1 12 -4 24 -10 26 -9 3 -13 -6 -14 -24z"/>
<path d="M144 3054 c3 -9 6 -18 6 -20 0 -2 5 -4 10 -4 6 0 10 9 10 20 0 12 -7
20 -16 20 -11 0 -14 -5 -10 -16z"/>
<path d="M279 2653 c0 -28 -17 -78 -18 -55 -1 14 -31 17 -31 2 0 -5 6 -13 14
-17 22 -12 -2 -39 -40 -45 -29 -4 -31 -2 -21 14 8 11 15 14 21 8 15 -15 26
-12 26 5 0 8 -7 15 -15 15 -20 0 -8 28 16 35 25 8 25 29 -1 22 -15 -4 -20 0
-20 14 0 38 -25 19 -26 -20 -2 -49 -32 -103 -54 -96 -16 5 -40 -29 -40 -55 0
-19 32 -10 37 10 3 11 13 20 22 20 9 0 27 3 41 7 l25 6 -22 -25 c-32 -34 -30
-50 5 -42 33 8 41 15 25 21 -8 3 -4 13 12 27 14 13 25 28 25 33 0 5 8 17 19
27 16 15 19 15 31 1 11 -13 9 -15 -14 -15 -14 0 -26 -4 -26 -10 0 -5 20 -10
45 -10 37 0 43 -3 38 -16 -5 -14 -1 -15 28 -9 44 10 46 11 23 36 -11 13 -27
19 -40 16 -16 -3 -24 2 -27 15 -3 10 -13 18 -24 18 -15 1 -12 5 12 25 31 26
27 47 -5 27 -17 -11 -19 -9 -17 9 1 12 -4 24 -10 26 -9 3 -13 -6 -14 -24z"/>
<path d="M144 2604 c3 -9 6 -18 6 -20 0 -2 5 -4 10 -4 6 0 10 9 10 20 0 12 -7
20 -16 20 -11 0 -14 -5 -10 -16z"/>
<path d="M279 2203 c0 -28 -17 -78 -18 -55 -1 14 -31 17 -31 2 0 -5 6 -13 14
-17 22 -12 -2 -39 -40 -45 -29 -4 -31 -2 -21 14 8 11 15 14 21 8 15 -15 26
-12 26 5 0 8 -7 15 -15 15 -20 0 -8 28 16 35 25 8 25 29 -1 22 -15 -4 -20 0
-20 14 0 38 -25 19 -26 -20 -2 -49 -32 -103 -54 -96 -16 5 -40 -29 -40 -55 0
-19 32 -10 37 10 3 11 13 20 22 20 9 0 27 3 41 7 l25 6 -22 -25 c-28 -29 -30
-53 -5 -44 10 4 7 -2 -8 -13 -37 -29 -17 -42 48 -29 57 12 68 25 25 30 l-28 3
38 23 c20 13 37 28 37 33 0 15 -36 10 -50 -6 -7 -8 -19 -15 -27 -15 -9 0 -5 8
11 24 15 13 26 28 26 33 0 5 8 17 19 27 16 15 19 15 31 1 11 -13 9 -15 -14
-15 -14 0 -26 -4 -26 -10 0 -5 20 -10 45 -10 37 0 43 -3 38 -16 -5 -14 -1 -15
28 -9 44 10 46 11 23 36 -11 13 -27 19 -40 16 -16 -3 -24 2 -27 15 -3 10 -13
18 -24 18 -15 1 -12 5 12 25 31 26 27 47 -5 27 -17 -11 -19 -9 -17 9 1 12 -4
24 -10 26 -9 3 -13 -6 -14 -24z"/>
<path d="M144 2154 c3 -9 6 -18 6 -20 0 -2 5 -4 10 -4 6 0 10 9 10 20 0 12 -7
20 -16 20 -11 0 -14 -5 -10 -16z"/>
<path d="M279 1753 c0 -28 -17 -78 -18 -55 -1 14 -31 17 -31 2 0 -5 6 -13 14
-17 22 -12 -2 -39 -40 -45 -29 -4 -31 -2 -21 14 8 11 15 14 21 8 15 -15 26
-12 26 5 0 8 -7 15 -15 15 -20 0 -8 28 16 35 25 8 25 29 -1 22 -15 -4 -20 0
-20 14 0 38 -25 19 -26 -20 -2 -49 -32 -103 -54 -96 -16 5 -40 -29 -40 -55 0
-19 32 -10 37 10 3 11 13 20 22 20 9 0 27 3 41 7 l25 6 -22 -25 c-28 -29 -30
-53 -5 -44 10 4 7 -2 -8 -13 -39 -31 -16 -43 53 -27 31 7 60 10 63 5 10 -16
24 -9 24 11 0 24 -29 39 -40 21 -4 -7 -18 -11 -31 -9 -23 3 -22 4 14 26 20 13
37 28 37 33 0 15 -36 10 -50 -6 -7 -8 -19 -15 -27 -15 -9 0 -5 8 11 24 15 13
26 28 26 33 0 5 8 17 19 27 16 15 19 15 31 1 11 -13 9 -15 -14 -15 -14 0 -26
-4 -26 -10 0 -5 20 -10 45 -10 37 0 43 -3 38 -16 -5 -14 -1 -15 28 -9 44 10
46 11 23 36 -11 13 -27 19 -40 16 -16 -3 -24 2 -27 15 -3 10 -13 18 -24 18
-15 1 -12 5 12 25 31 26 27 47 -5 27 -17 -11 -19 -9 -17 9 1 12 -4 24 -10 26
-9 3 -13 -6 -14 -24z"/>
<path d="M144 1704 c3 -9 6 -18 6 -20 0 -2 5 -4 10 -4 6 0 10 9 10 20 0 12 -7
20 -16 20 -11 0 -14 -5 -10 -16z"/>
<path d="M279 1303 c0 -28 -17 -78 -18 -55 -1 14 -31 17 -31 2 0 -5 6 -13 14
-17 22 -12 -2 -39 -40 -45 -29 -4 -31 -2 -21 14 8 11 15 14 21 8 15 -15 26
-12 26 5 0 8 -7 15 -15 15 -20 0 -8 28 16 35 25 8 25 29 -1 22 -15 -4 -20 0
-20 14 0 38 -25 19 -26 -20 -2 -49 -32 -103 -54 -96 -16 5 -40 -29 -40 -55 0
-19 32 -10 37 10 3 11 13 20 22 20 9 0 27 3 41 7 l25 6 -22 -25 c-28 -29 -30
-53 -5 -44 11 4 8 -1 -7 -12 -30 -24 -20 -43 19 -35 28 5 30 4 30 -26 0 -17
-4 -31 -10 -31 -13 0 -13 -11 0 -30 16 -23 40 15 40 61 0 36 22 60 35 39 11
-17 25 -11 25 10 0 24 -29 39 -40 21 -4 -7 -18 -11 -31 -9 -23 3 -22 4 14 26
20 13 37 28 37 33 0 15 -36 10 -50 -6 -7 -8 -19 -15 -27 -15 -9 0 -5 8 11 24
15 13 26 28 26 33 0 5 8 17 19 27 16 15 19 15 31 1 11 -13 9 -15 -14 -15 -14
0 -26 -4 -26 -10 0 -5 20 -10 45 -10 37 0 43 -3 38 -16 -5 -14 -1 -15 28 -9
44 10 46 11 23 36 -11 13 -27 19 -40 16 -16 -3 -24 2 -27 15 -3 10 -13 18 -24
18 -15 1 -12 5 12 25 31 26 27 47 -5 27 -17 -11 -19 -9 -17 9 1 12 -4 24 -10
26 -9 3 -13 -6 -14 -24z"/>
<path d="M144 1254 c3 -9 6 -18 6 -20 0 -2 5 -4 10 -4 6 0 10 9 10 20 0 12 -7
20 -16 20 -11 0 -14 -5 -10 -16z"/>
<path d="M279 853 c0 -28 -17 -78 -18 -55 -1 14 -31 17 -31 2 0 -5 6 -13 14
-17 22 -12 -2 -39 -40 -45 -29 -4 -31 -2 -21 14 8 11 15 14 21 8 15 -15 26
-12 26 5 0 8 -7 15 -15 15 -20 0 -8 28 16 35 25 8 25 29 -1 22 -15 -4 -20 0
-20 14 0 38 -25 19 -26 -20 -2 -49 -32 -103 -54 -96 -16 5 -40 -29 -40 -55 0
-19 32 -10 37 10 3 11 13 20 22 20 9 0 27 3 41 7 l25 6 -22 -25 c-28 -29 -30
-53 -5 -44 11 4 9 0 -6 -12 -15 -12 -21 -24 -16 -35 4 -11 -1 -25 -11 -37 -25
-27 -12 -37 20 -16 19 12 24 23 20 37 -5 15 -2 19 14 19 17 0 21 -6 21 -30 0
-16 -4 -30 -10 -30 -13 0 -13 -11 0 -30 16 -23 40 15 40 61 0 36 22 60 35 39
11 -17 25 -11 25 10 0 24 -29 39 -40 21 -4 -7 -18 -11 -31 -9 -23 3 -22 4 14
26 20 13 37 28 37 33 0 15 -36 10 -50 -6 -7 -8 -19 -15 -27 -15 -9 0 -5 8 11
24 15 13 26 28 26 33 0 5 8 17 19 27 16 15 19 15 31 1 11 -13 9 -15 -14 -15
-14 0 -26 -4 -26 -10 0 -5 20 -10 45 -10 37 0 43 -3 38 -16 -5 -14 -1 -15 28
-9 44 10 46 11 23 36 -11 13 -27 19 -40 16 -16 -3 -24 2 -27 15 -3 10 -13 18
-24 18 -15 1 -12 5 12 25 31 26 27 47 -5 27 -17 -11 -19 -9 -17 9 1 12 -4 24
-10 26 -9 3 -13 -6 -14 -24z"/>
<path d="M144 804 c3 -9 6 -18 6 -20 0 -2 5 -4 10 -4 6 0 10 9 10 20 0 12 -7
20 -16 20 -11 0 -14 -5 -10 -16z"/>
<path d="M279 403 c0 -28 -17 -78 -18 -55 -1 14 -31 17 -31 2 0 -5 6 -13 14
-17 22 -12 -2 -39 -40 -45 -29 -4 -31 -2 -21 14 8 11 15 14 21 8 15 -15 26
-12 26 5 0 8 -7 15 -15 15 -20 0 -8 28 16 35 25 8 25 29 -1 22 -15 -4 -20 0
-20 14 0 38 -25 19 -26 -20 -2 -49 -32 -103 -54 -96 -16 5 -40 -29 -40 -55 0
-19 32 -10 37 10 3 11 13 20 22 20 9 0 27 3 41 7 l25 6 -22 -25 c-28 -29 -30
-53 -5 -44 11 4 9 0 -6 -12 -15 -12 -21 -24 -16 -35 4 -11 -1 -25 -11 -37 -25
-27 -12 -37 20 -16 19 12 24 23 20 37 -5 15 -2 19 14 19 17 0 21 -6 21 -30 0
-16 -4 -30 -10 -30 -13 0 -13 -11 0 -30 16 -23 40 15 40 61 0 36 22 60 35 39
11 -17 25 -11 25 10 0 24 -29 39 -40 21 -4 -7 -18 -11 -31 -9 -23 3 -22 4 14
26 20 13 37 28 37 33 0 15 -36 10 -50 -6 -7 -8 -19 -15 -27 -15 -9 0 -5 8 11
24 15 13 26 28 26 33 0 5 8 17 19 27 16 15 19 15 31 1 11 -13 9 -15 -14 -15
-14 0 -26 -4 -26 -10 0 -5 20 -10 45 -10 37 0 43 -3 38 -16 -5 -14 -1 -15 28
-9 44 10 46 11 23 36 -11 13 -27 19 -40 16 -16 -3 -24 2 -27 15 -3 10 -13 18
-24 18 -15 1 -12 5 12 25 31 26 27 47 -5 27 -17 -11 -19 -9 -17 9 1 12 -4 24
-10 26 -9 3 -13 -6 -14 -24z"/>
<path d="M144 354 c3 -9 6 -18 6 -20 0 -2 5 -4 10 -4 6 0 10 9 10 20 0 12 -7
20 -16 20 -11 0 -14 -5 -10 -16z"/>
<path d="M280 142 c0 -12 44 -52 58 -52 20 0 13 28 -10 44 -24 17 -48 21 -48
8z"/>
</g>
</svg>
