<?xml version="1.0" standalone="no"?>
<!DOCTYPE svg PUBLIC "-//W3C//DTD SVG 20010904//EN"
 "http://www.w3.org/TR/2001/REC-SVG-20010904/DTD/svg10.dtd">
<svg version="1.0" xmlns="http://www.w3.org/2000/svg"
 width="50.000000pt" height="725.000000pt" viewBox="0 0 50.000000 725.000000"
 preserveAspectRatio="xMidYMid meet">
<metadata>
Created by potrace 1.16, written by Peter Selinger 2001-2019
</metadata>
<g transform="translate(0.000000,725.000000) scale(0.100000,-0.100000)"
fill="#000000" stroke="none">
<path d="M150 7117 c0 -7 -11 -29 -25 -49 -14 -20 -25 -42 -25 -47 0 -12 29
-14 54 -5 23 9 20 27 -4 21 -18 -4 -16 0 10 33 35 44 38 60 10 60 -11 0 -20
-6 -20 -13z"/>
<path d="M150 6667 c0 -7 -11 -29 -25 -49 -31 -45 -31 -58 -3 -58 l21 0 -21
-23 c-23 -24 -29 -47 -12 -47 5 0 25 8 45 17 38 18 48 39 14 28 -19 -6 -17 -2
11 33 19 25 30 47 27 56 -9 22 -24 20 -30 -3 -2 -10 -15 -25 -28 -31 -20 -11
-19 -8 9 28 37 46 40 62 12 62 -11 0 -20 -6 -20 -13z"/>
<path d="M150 6217 c0 -7 -11 -29 -25 -49 -31 -45 -31 -58 -3 -58 l21 0 -21
-23 c-40 -43 -25 -59 28 -32 16 8 36 12 44 9 21 -8 21 19 1 36 -14 11 -14 15
1 37 15 24 13 53 -5 53 -5 0 -11 -9 -14 -19 -2 -10 -15 -25 -28 -31 -20 -11
-19 -8 9 28 37 46 40 62 12 62 -11 0 -20 -6 -20 -13z m20 -127 c0 -5 -5 -10
-11 -10 -5 0 -7 5 -4 10 3 6 8 10 11 10 2 0 4 -4 4 -10z"/>
<path d="M150 5767 c0 -7 -11 -29 -25 -49 -31 -45 -31 -58 -3 -58 l21 0 -21
-23 c-40 -43 -25 -59 28 -32 16 8 36 12 44 9 21 -8 21 19 1 36 -14 11 -14 15
1 37 15 24 13 53 -5 53 -5 0 -11 -9 -14 -19 -2 -10 -15 -25 -28 -31 -20 -11
-19 -8 9 28 37 46 40 62 12 62 -11 0 -20 -6 -20 -13z m20 -127 c0 -5 -5 -10
-11 -10 -5 0 -7 5 -4 10 3 6 8 10 11 10 2 0 4 -4 4 -10z"/>
<path d="M90 5565 c0 -14 21 -45 31 -45 18 0 5 45 -13 48 -10 2 -18 1 -18 -3z"/>
<path d="M150 5317 c0 -7 -11 -29 -25 -49 -31 -45 -31 -58 -3 -58 l21 0 -21
-23 c-40 -43 -25 -59 28 -32 16 8 36 12 44 9 21 -8 21 19 1 36 -14 11 -14 15
1 37 15 24 13 53 -5 53 -5 0 -11 -9 -14 -19 -2 -10 -15 -25 -28 -31 -20 -11
-19 -8 9 28 37 46 40 62 12 62 -11 0 -20 -6 -20 -13z m20 -127 c0 -5 -5 -10
-11 -10 -5 0 -7 5 -4 10 3 6 8 10 11 10 2 0 4 -4 4 -10z"/>
<path d="M134 5124 c3 -9 6 -18 6 -20 0 -2 7 -4 15 -4 20 0 19 26 -1 34 -24 9
-27 8 -20 -10z"/>
<path d="M90 5115 c0 -14 21 -45 31 -45 18 0 5 45 -13 48 -10 2 -18 1 -18 -3z"/>
<path d="M150 4867 c0 -7 -11 -29 -25 -49 -31 -45 -31 -58 -3 -58 l21 0 -21
-23 c-40 -43 -25 -59 28 -32 16 8 36 12 44 9 21 -8 21 19 1 36 -14 11 -14 15
1 37 15 24 13 53 -5 53 -5 0 -11 -9 -14 -19 -2 -10 -15 -25 -28 -31 -20 -11
-19 -8 9 28 37 46 40 62 12 62 -11 0 -20 -6 -20 -13z m20 -127 c0 -5 -5 -10
-11 -10 -5 0 -7 5 -4 10 3 6 8 10 11 10 2 0 4 -4 4 -10z"/>
<path d="M172 4688 c6 -18 28 -21 28 -4 0 9 -7 16 -16 16 -9 0 -14 -5 -12 -12z"/>
<path d="M134 4674 c3 -9 6 -18 6 -20 0 -2 7 -4 15 -4 20 0 19 26 -1 34 -24 9
-27 8 -20 -10z"/>
<path d="M90 4665 c0 -14 21 -45 31 -45 18 0 5 45 -13 48 -10 2 -18 1 -18 -3z"/>
<path d="M150 4417 c0 -7 -11 -29 -25 -49 -31 -45 -31 -58 -3 -58 l21 0 -21
-23 c-40 -43 -25 -59 28 -32 16 8 36 12 44 9 21 -8 21 19 1 36 -14 11 -14 15
1 37 15 24 13 53 -5 53 -5 0 -11 -9 -14 -19 -2 -10 -15 -25 -28 -31 -20 -11
-19 -8 9 28 37 46 40 62 12 62 -11 0 -20 -6 -20 -13z m20 -127 c0 -5 -5 -10
-11 -10 -5 0 -7 5 -4 10 3 6 8 10 11 10 2 0 4 -4 4 -10z"/>
<path d="M263 4403 c-24 -2 -43 -9 -43 -15 0 -7 20 -9 61 -4 34 3 73 6 85 6
13 0 24 5 24 10 0 10 -40 11 -127 3z"/>
<path d="M172 4238 c6 -18 28 -21 28 -4 0 9 -7 16 -16 16 -9 0 -14 -5 -12 -12z"/>
<path d="M134 4224 c3 -9 6 -18 6 -20 0 -2 7 -4 15 -4 20 0 19 26 -1 34 -24 9
-27 8 -20 -10z"/>
<path d="M90 4215 c0 -14 21 -45 31 -45 18 0 5 45 -13 48 -10 2 -18 1 -18 -3z"/>
<path d="M290 3980 c0 -28 -3 -30 -35 -30 -19 0 -35 -4 -35 -10 0 -5 16 -10
35 -10 26 0 33 -3 29 -15 -4 -9 0 -15 9 -15 8 0 17 9 20 20 4 15 14 20 41 20
20 0 36 5 36 10 0 6 -16 10 -35 10 -33 0 -35 2 -29 25 5 21 3 25 -15 25 -17 0
-21 -6 -21 -30z"/>
<path d="M150 3967 c0 -7 -11 -29 -25 -49 -31 -45 -31 -58 -3 -58 l21 0 -21
-23 c-40 -43 -25 -59 28 -32 16 8 36 12 44 9 21 -8 21 19 1 36 -14 11 -14 15
1 37 15 24 13 53 -5 53 -5 0 -11 -9 -14 -19 -2 -10 -15 -25 -28 -31 -20 -11
-19 -8 9 28 37 46 40 62 12 62 -11 0 -20 -6 -20 -13z m20 -127 c0 -5 -5 -10
-11 -10 -5 0 -7 5 -4 10 3 6 8 10 11 10 2 0 4 -4 4 -10z"/>
<path d="M172 3788 c6 -18 28 -21 28 -4 0 9 -7 16 -16 16 -9 0 -14 -5 -12 -12z"/>
<path d="M134 3774 c3 -9 6 -18 6 -20 0 -2 7 -4 15 -4 20 0 19 26 -1 34 -24 9
-27 8 -20 -10z"/>
<path d="M90 3765 c0 -14 21 -45 31 -45 18 0 5 45 -13 48 -10 2 -18 1 -18 -3z"/>
<path d="M290 3530 c0 -28 -3 -30 -35 -30 -19 0 -35 -4 -35 -10 0 -5 16 -10
35 -10 26 0 33 -3 29 -15 -4 -9 0 -15 9 -15 8 0 17 9 20 20 4 15 14 20 41 20
20 0 36 5 36 10 0 6 -16 10 -35 10 -33 0 -35 2 -29 25 5 21 3 25 -15 25 -17 0
-21 -6 -21 -30z"/>
<path d="M150 3517 c0 -7 -11 -29 -25 -49 -31 -45 -31 -58 -3 -58 l21 0 -21
-23 c-40 -43 -25 -59 28 -32 16 8 36 12 44 9 21 -8 21 19 1 36 -14 11 -14 15
1 37 15 24 13 53 -5 53 -5 0 -11 -9 -14 -19 -2 -10 -15 -25 -28 -31 -20 -11
-19 -8 9 28 37 46 40 62 12 62 -11 0 -20 -6 -20 -13z m20 -127 c0 -5 -5 -10
-11 -10 -5 0 -7 5 -4 10 3 6 8 10 11 10 2 0 4 -4 4 -10z"/>
<path d="M238 3388 c2 -40 6 -75 8 -77 10 -11 16 13 17 75 2 54 -1 69 -13 71
-13 3 -15 -8 -12 -69z"/>
<path d="M172 3338 c6 -18 28 -21 28 -4 0 9 -7 16 -16 16 -9 0 -14 -5 -12 -12z"/>
<path d="M134 3324 c3 -9 6 -18 6 -20 0 -2 7 -4 15 -4 20 0 19 26 -1 34 -24 9
-27 8 -20 -10z"/>
<path d="M90 3315 c0 -14 21 -45 31 -45 18 0 5 45 -13 48 -10 2 -18 1 -18 -3z"/>
<path d="M290 3080 c0 -28 -3 -30 -35 -30 -19 0 -35 -4 -35 -10 0 -5 15 -10
34 -10 30 0 33 -3 29 -21 -5 -18 -2 -20 23 -17 l29 3 -4 -62 c-2 -50 0 -63 12
-63 10 0 16 18 20 67 7 71 -1 87 -36 79 -11 -3 -17 0 -14 7 2 7 20 13 40 15
47 4 48 22 2 22 -33 0 -35 2 -29 25 5 21 3 25 -15 25 -17 0 -21 -6 -21 -30z"/>
<path d="M150 3067 c0 -7 -11 -29 -25 -49 -31 -45 -31 -58 -3 -58 l21 0 -21
-23 c-40 -43 -25 -59 28 -32 16 8 36 12 44 9 21 -8 21 19 1 36 -14 11 -14 15
1 37 15 24 13 53 -5 53 -5 0 -11 -9 -14 -19 -2 -10 -15 -25 -28 -31 -20 -11
-19 -8 9 28 37 46 40 62 12 62 -11 0 -20 -6 -20 -13z m20 -127 c0 -5 -5 -10
-11 -10 -5 0 -7 5 -4 10 3 6 8 10 11 10 2 0 4 -4 4 -10z"/>
<path d="M238 2938 c2 -40 6 -75 8 -77 10 -11 16 13 17 75 2 54 -1 69 -13 71
-13 3 -15 -8 -12 -69z"/>
<path d="M172 2888 c6 -18 28 -21 28 -4 0 9 -7 16 -16 16 -9 0 -14 -5 -12 -12z"/>
<path d="M134 2874 c3 -9 6 -18 6 -20 0 -2 7 -4 15 -4 20 0 19 26 -1 34 -24 9
-27 8 -20 -10z"/>
<path d="M90 2865 c0 -14 21 -45 31 -45 18 0 5 45 -13 48 -10 2 -18 1 -18 -3z"/>
<path d="M290 2630 c0 -28 -3 -30 -35 -30 -19 0 -35 -4 -35 -10 0 -5 15 -10
34 -10 30 0 33 -3 29 -21 -5 -19 -3 -21 21 -17 14 3 29 1 32 -3 3 -5 -9 -9
-25 -9 -17 0 -31 -4 -31 -10 0 -5 11 -10 25 -10 23 0 25 -4 25 -45 0 -31 4
-45 14 -45 9 0 15 20 19 67 7 71 -1 87 -36 79 -11 -3 -17 0 -14 7 2 7 20 13
40 15 47 4 48 22 2 22 -33 0 -35 2 -29 25 5 21 3 25 -15 25 -17 0 -21 -6 -21
-30z"/>
<path d="M150 2617 c0 -7 -11 -29 -25 -49 -31 -45 -31 -58 -3 -58 l21 0 -21
-23 c-40 -43 -25 -59 28 -32 16 8 36 12 44 9 21 -8 21 19 1 36 -14 11 -14 15
1 37 15 24 13 53 -5 53 -5 0 -11 -9 -14 -19 -2 -10 -15 -25 -28 -31 -20 -11
-19 -8 9 28 37 46 40 62 12 62 -11 0 -20 -6 -20 -13z m20 -127 c0 -5 -5 -10
-11 -10 -5 0 -7 5 -4 10 3 6 8 10 11 10 2 0 4 -4 4 -10z"/>
<path d="M238 2488 c2 -40 6 -75 8 -77 10 -11 16 13 17 75 2 54 -1 69 -13 71
-13 3 -15 -8 -12 -69z"/>
<path d="M172 2438 c6 -18 28 -21 28 -4 0 9 -7 16 -16 16 -9 0 -14 -5 -12 -12z"/>
<path d="M134 2424 c3 -9 6 -18 6 -20 0 -2 7 -4 15 -4 20 0 19 26 -1 34 -24 9
-27 8 -20 -10z"/>
<path d="M90 2415 c0 -14 21 -45 31 -45 18 0 5 45 -13 48 -10 2 -18 1 -18 -3z"/>
<path d="M290 2180 c0 -28 -3 -30 -35 -30 -19 0 -35 -4 -35 -10 0 -5 15 -10
34 -10 30 0 33 -3 29 -21 -5 -19 -3 -21 21 -17 14 3 29 1 32 -3 3 -5 -9 -9
-25 -9 -38 0 -41 -17 -3 -23 l27 -4 -27 -2 c-35 -1 -37 -21 -3 -21 21 0 25 -5
25 -30 0 -19 5 -30 14 -30 9 0 15 20 19 67 7 71 -1 87 -36 79 -11 -3 -17 0
-14 7 2 7 20 13 40 15 47 4 48 22 2 22 -33 0 -35 2 -29 25 5 21 3 25 -15 25
-17 0 -21 -6 -21 -30z"/>
<path d="M150 2167 c0 -7 -11 -29 -25 -49 -31 -45 -31 -58 -3 -58 l21 0 -21
-23 c-40 -43 -25 -59 28 -32 16 8 36 12 44 9 21 -8 21 19 1 36 -14 11 -14 15
1 37 15 24 13 53 -5 53 -5 0 -11 -9 -14 -19 -2 -10 -15 -25 -28 -31 -20 -11
-19 -8 9 28 37 46 40 62 12 62 -11 0 -20 -6 -20 -13z m20 -127 c0 -5 -5 -10
-11 -10 -5 0 -7 5 -4 10 3 6 8 10 11 10 2 0 4 -4 4 -10z"/>
<path d="M238 2038 c2 -40 6 -75 8 -77 10 -11 16 13 17 75 2 54 -1 69 -13 71
-13 3 -15 -8 -12 -69z"/>
<path d="M172 1988 c6 -18 28 -21 28 -4 0 9 -7 16 -16 16 -9 0 -14 -5 -12 -12z"/>
<path d="M134 1974 c3 -9 6 -18 6 -20 0 -2 7 -4 15 -4 20 0 19 26 -1 34 -24 9
-27 8 -20 -10z"/>
<path d="M90 1965 c0 -14 21 -45 31 -45 18 0 5 45 -13 48 -10 2 -18 1 -18 -3z"/>
<path d="M290 1730 c0 -28 -3 -30 -35 -30 -19 0 -35 -4 -35 -10 0 -5 15 -10
34 -10 30 0 33 -3 29 -21 -5 -19 -3 -21 21 -17 14 3 29 1 32 -3 3 -5 -9 -9
-25 -9 -38 0 -41 -17 -3 -23 l27 -4 -27 -2 c-36 -1 -37 -21 -1 -21 31 0 28 -5
-9 -14 -26 -6 -27 -5 -30 41 -2 38 -7 49 -22 51 -14 3 -17 0 -12 -13 3 -9 6
-43 6 -76 0 -33 4 -59 10 -59 6 0 10 7 10 15 0 8 6 15 13 15 6 0 22 3 35 6 16
5 22 2 22 -10 0 -9 6 -16 14 -16 9 0 15 20 19 67 7 71 -1 87 -36 79 -11 -3
-17 0 -14 7 2 7 20 13 40 15 47 4 48 22 2 22 -33 0 -35 2 -29 25 5 21 3 25
-15 25 -17 0 -21 -6 -21 -30z"/>
<path d="M150 1717 c0 -7 -11 -29 -25 -49 -31 -45 -31 -58 -3 -58 l21 0 -21
-23 c-40 -43 -25 -59 28 -32 16 8 36 12 44 9 21 -8 21 19 1 36 -14 11 -14 15
1 37 15 24 13 53 -5 53 -5 0 -11 -9 -14 -19 -2 -10 -15 -25 -28 -31 -20 -11
-19 -8 9 28 37 46 40 62 12 62 -11 0 -20 -6 -20 -13z m20 -127 c0 -5 -5 -10
-11 -10 -5 0 -7 5 -4 10 3 6 8 10 11 10 2 0 4 -4 4 -10z"/>
<path d="M172 1538 c6 -18 28 -21 28 -4 0 9 -7 16 -16 16 -9 0 -14 -5 -12 -12z"/>
<path d="M134 1524 c3 -9 6 -18 6 -20 0 -2 7 -4 15 -4 20 0 19 26 -1 34 -24 9
-27 8 -20 -10z"/>
<path d="M90 1515 c0 -14 21 -45 31 -45 18 0 5 45 -13 48 -10 2 -18 1 -18 -3z"/>
<path d="M290 1280 c0 -28 -3 -30 -35 -30 -19 0 -35 -4 -35 -10 0 -5 15 -10
34 -10 30 0 33 -3 29 -21 -5 -19 -3 -21 21 -17 14 3 29 1 32 -3 3 -5 -9 -9
-25 -9 -38 0 -41 -17 -3 -23 l27 -4 -27 -2 c-36 -1 -37 -21 -1 -21 31 0 28 -5
-9 -14 -26 -6 -27 -5 -30 41 -2 33 -8 49 -18 51 -13 2 -15 -9 -12 -68 4 -66 3
-70 -17 -70 -12 0 -21 6 -21 15 0 8 -7 15 -15 15 -18 0 -19 -9 -1 -33 12 -16
25 -17 125 -11 61 4 111 11 111 15 0 12 -38 21 -51 13 -9 -5 -10 10 -5 59 6
60 5 66 -14 72 -11 3 -25 3 -31 -1 -7 -4 -10 -1 -7 7 2 8 21 15 41 17 47 4 48
22 2 22 -33 0 -35 2 -29 25 5 21 3 25 -15 25 -17 0 -21 -6 -21 -30z m40 -190
c0 -5 -17 -10 -37 -9 -34 1 -35 2 -13 9 36 11 50 11 50 0z"/>
<path d="M150 1267 c0 -7 -11 -29 -25 -49 -31 -45 -31 -58 -3 -58 l21 0 -21
-23 c-40 -43 -25 -59 28 -32 16 8 36 12 44 9 21 -8 21 19 1 36 -14 11 -14 15
1 37 15 24 13 53 -5 53 -5 0 -11 -9 -14 -19 -2 -10 -15 -25 -28 -31 -20 -11
-19 -8 9 28 37 46 40 62 12 62 -11 0 -20 -6 -20 -13z m20 -127 c0 -5 -5 -10
-11 -10 -5 0 -7 5 -4 10 3 6 8 10 11 10 2 0 4 -4 4 -10z"/>
<path d="M134 1074 c3 -9 6 -18 6 -20 0 -2 7 -4 15 -4 20 0 19 26 -1 34 -24 9
-27 8 -20 -10z"/>
<path d="M90 1065 c0 -14 21 -45 31 -45 18 0 5 45 -13 48 -10 2 -18 1 -18 -3z"/>
<path d="M290 830 c0 -28 -3 -30 -35 -30 -19 0 -35 -4 -35 -10 0 -5 15 -10 34
-10 30 0 33 -3 29 -21 -5 -19 -3 -21 21 -17 14 3 29 1 32 -3 3 -5 -9 -9 -25
-9 -38 0 -41 -17 -3 -23 l27 -4 -27 -2 c-36 -1 -37 -21 -1 -21 31 0 28 -5 -9
-14 -26 -6 -27 -5 -30 41 -2 33 -8 49 -18 51 -13 2 -15 -9 -12 -68 4 -66 3
-70 -17 -70 -12 0 -21 6 -21 15 0 8 -7 15 -15 15 -18 0 -19 -9 -1 -33 12 -16
25 -17 125 -11 61 4 111 11 111 15 0 12 -38 21 -51 13 -9 -5 -10 10 -5 59 6
60 5 66 -14 72 -11 3 -25 3 -31 -1 -7 -4 -10 -1 -7 7 2 8 21 15 41 17 47 4 48
22 2 22 -33 0 -35 2 -29 25 5 21 3 25 -15 25 -17 0 -21 -6 -21 -30z m40 -190
c0 -5 -17 -10 -37 -9 -34 1 -35 2 -13 9 36 11 50 11 50 0z"/>
<path d="M150 817 c0 -7 -11 -29 -25 -49 -31 -45 -31 -58 -3 -58 l21 0 -21
-23 c-40 -43 -25 -59 28 -32 16 8 36 12 44 9 21 -8 21 19 1 36 -14 11 -14 15
1 37 15 24 13 53 -5 53 -5 0 -11 -9 -14 -19 -2 -10 -15 -25 -28 -31 -20 -11
-19 -8 9 28 37 46 40 62 12 62 -11 0 -20 -6 -20 -13z m20 -127 c0 -5 -5 -10
-11 -10 -5 0 -7 5 -4 10 3 6 8 10 11 10 2 0 4 -4 4 -10z"/>
<path d="M134 624 c3 -9 6 -18 6 -20 0 -2 7 -4 15 -4 20 0 19 26 -1 34 -24 9
-27 8 -20 -10z"/>
<path d="M90 615 c0 -14 21 -45 31 -45 18 0 5 45 -13 48 -10 2 -18 1 -18 -3z"/>
<path d="M220 565 c-13 -14 -21 -28 -17 -31 8 -8 69 28 75 44 7 22 -34 13 -58
-13z"/>
<path d="M290 380 c0 -28 -3 -30 -35 -30 -19 0 -35 -4 -35 -10 0 -5 15 -10 34
-10 30 0 33 -3 29 -21 -5 -19 -3 -21 21 -17 14 3 29 1 32 -3 3 -5 -9 -9 -25
-9 -38 0 -41 -17 -3 -23 l27 -4 -27 -2 c-36 -1 -37 -21 -1 -21 31 0 28 -5 -9
-14 -26 -6 -27 -5 -30 41 -2 33 -8 49 -18 51 -13 2 -15 -9 -12 -68 4 -66 3
-70 -17 -70 -12 0 -21 6 -21 15 0 8 -7 15 -15 15 -18 0 -19 -9 -1 -33 12 -16
25 -17 125 -11 61 4 111 11 111 15 0 12 -38 21 -51 13 -9 -5 -10 10 -5 59 6
60 5 66 -14 72 -11 3 -25 3 -31 -1 -7 -4 -10 -1 -7 7 2 8 21 15 41 17 47 4 48
22 2 22 -33 0 -35 2 -29 25 5 21 3 25 -15 25 -17 0 -21 -6 -21 -30z m40 -190
c0 -5 -17 -10 -37 -9 -34 1 -35 2 -13 9 36 11 50 11 50 0z"/>
<path d="M150 367 c0 -7 -11 -29 -25 -49 -31 -45 -31 -58 -3 -58 l21 0 -21
-23 c-40 -43 -25 -59 28 -32 16 8 36 12 44 9 21 -8 21 19 1 36 -14 11 -14 15
1 37 15 24 13 53 -5 53 -5 0 -11 -9 -14 -19 -2 -10 -15 -25 -28 -31 -20 -11
-19 -8 9 28 37 46 40 62 12 62 -11 0 -20 -6 -20 -13z m20 -127 c0 -5 -5 -10
-11 -10 -5 0 -7 5 -4 10 3 6 8 10 11 10 2 0 4 -4 4 -10z"/>
<path d="M134 174 c3 -9 6 -18 6 -20 0 -2 7 -4 15 -4 20 0 19 26 -1 34 -24 9
-27 8 -20 -10z"/>
<path d="M90 165 c0 -14 21 -45 31 -45 18 0 5 45 -13 48 -10 2 -18 1 -18 -3z"/>
<path d="M220 115 c-13 -14 -21 -28 -17 -31 8 -8 69 28 75 44 7 22 -34 13 -58
-13z"/>
<path d="M330 127 c0 -16 32 -47 48 -47 20 0 13 28 -10 44 -28 20 -38 20 -38
3z"/>
</g>
</svg>
