<?xml version="1.0" standalone="no"?>
<!DOCTYPE svg PUBLIC "-//W3C//DTD SVG 20010904//EN"
 "http://www.w3.org/TR/2001/REC-SVG-20010904/DTD/svg10.dtd">
<svg version="1.0" xmlns="http://www.w3.org/2000/svg"
 width="95.000000pt" height="725.000000pt" viewBox="0 0 95.000000 725.000000"
 preserveAspectRatio="xMidYMid meet">
<metadata>
Created by potrace 1.16, written by Peter Selinger 2001-2019
</metadata>
<g transform="translate(0.000000,725.000000) scale(0.100000,-0.100000)"
fill="#000000" stroke="none">
<path d="M286 7143 c-15 -38 -52 -83 -69 -83 -11 0 -17 -6 -15 -12 6 -18 38
-23 38 -6 0 7 16 24 35 38 33 24 49 55 39 72 -8 13 -21 9 -28 -9z"/>
<path d="M125 7103 c-9 -21 -23 -45 -31 -55 -20 -21 -9 -42 18 -35 20 6 20 5
-1 -17 -30 -32 -28 -50 7 -42 15 4 37 7 50 7 26 -1 28 15 5 41 -15 17 -15 19
0 36 19 21 23 52 7 52 -6 0 -16 -11 -22 -25 -6 -14 -17 -25 -25 -25 -9 0 -6
12 12 40 29 45 31 60 10 60 -8 0 -22 -17 -30 -37z m25 -113 c0 -5 -5 -10 -11
-10 -5 0 -7 5 -4 10 3 6 8 10 11 10 2 0 4 -4 4 -10z"/>
<path d="M575 7103 c-9 -21 -23 -45 -32 -55 -22 -24 -5 -41 31 -32 28 7 36 24
11 24 -12 0 -10 9 10 40 29 45 31 60 10 60 -8 0 -22 -17 -30 -37z"/>
<path d="M325 7109 c5 -15 2 -22 -14 -26 -12 -3 -21 -11 -21 -19 0 -7 -10 -20
-22 -28 -27 -19 -18 -32 11 -16 17 9 21 8 21 -5 0 -8 -7 -15 -15 -15 -21 0
-19 -18 3 -23 16 -4 16 -5 0 -6 -10 0 -18 -5 -18 -11 0 -5 8 -10 18 -11 13 0
12 -2 -5 -9 -29 -12 -31 -34 -3 -25 14 5 20 2 20 -9 0 -20 19 -21 26 -1 4 9
19 15 35 15 16 0 29 5 29 10 0 6 -13 10 -30 10 -16 0 -30 5 -30 10 0 6 7 10
15 10 21 0 19 18 -2 23 -14 4 -12 5 5 6 27 1 30 21 2 21 -11 0 -20 7 -20 16 0
13 5 12 29 -5 34 -25 51 -27 51 -6 0 8 -16 23 -35 33 l-36 18 21 22 c25 26 19
42 -16 42 -21 0 -24 -4 -19 -21z"/>
<path d="M214 6950 c4 -48 4 -50 -21 -50 -40 0 -21 -25 20 -26 19 -1 60 -11
91 -23 47 -20 60 -21 90 -11 47 15 46 30 -2 30 -21 0 -64 5 -94 11 -52 11 -56
14 -61 43 -3 17 -1 35 4 41 16 16 10 35 -11 35 -18 0 -19 -5 -16 -50z"/>
<path d="M150 6941 c0 -12 29 -35 36 -28 11 10 -5 37 -21 37 -8 0 -15 -4 -15
-9z"/>
<path d="M114 6924 c3 -9 6 -18 6 -20 0 -2 7 -4 15 -4 20 0 19 26 -1 34 -24 9
-27 8 -20 -10z"/>
<path d="M70 6915 c0 -14 21 -45 31 -45 18 0 5 45 -13 48 -10 2 -18 1 -18 -3z"/>
<path d="M575 6653 c-9 -21 -23 -45 -31 -55 -20 -21 -9 -42 18 -35 20 6 20 5
-1 -17 -26 -27 -27 -46 -3 -46 25 0 51 20 34 27 -8 3 -3 16 18 43 30 38 39 70
20 70 -6 0 -16 -11 -22 -25 -6 -14 -17 -25 -25 -25 -9 0 -6 12 12 40 29 45 31
60 10 60 -8 0 -22 -17 -30 -37z"/>
<path d="M575 6203 c-9 -21 -23 -45 -31 -55 -20 -21 -9 -42 18 -35 20 6 20 5
-1 -17 -30 -32 -28 -50 7 -42 15 4 37 7 50 7 26 -1 28 15 5 41 -15 17 -15 19
0 36 19 21 23 52 7 52 -6 0 -16 -11 -22 -25 -6 -14 -17 -25 -25 -25 -9 0 -6
12 12 40 29 45 31 60 10 60 -8 0 -22 -17 -30 -37z m25 -113 c0 -5 -5 -10 -11
-10 -5 0 -7 5 -4 10 3 6 8 10 11 10 2 0 4 -4 4 -10z"/>
<path d="M575 5753 c-9 -21 -23 -45 -31 -55 -20 -21 -9 -42 18 -35 20 6 20 5
-1 -17 -30 -32 -28 -50 7 -42 15 4 37 7 50 7 26 -1 28 15 5 41 -15 17 -15 19
0 36 19 21 23 52 7 52 -6 0 -16 -11 -22 -25 -6 -14 -17 -25 -25 -25 -9 0 -6
12 12 40 29 45 31 60 10 60 -8 0 -22 -17 -30 -37z m25 -113 c0 -5 -5 -10 -11
-10 -5 0 -7 5 -4 10 3 6 8 10 11 10 2 0 4 -4 4 -10z"/>
<path d="M520 5565 c0 -14 21 -45 31 -45 18 0 5 45 -13 48 -10 2 -18 1 -18 -3z"/>
<path d="M575 5303 c-9 -21 -23 -45 -31 -55 -20 -21 -9 -42 18 -35 20 6 20 5
-1 -17 -30 -32 -28 -50 7 -42 15 4 37 7 50 7 26 -1 28 15 5 41 -15 17 -15 19
0 36 19 21 23 52 7 52 -6 0 -16 -11 -22 -25 -6 -14 -17 -25 -25 -25 -9 0 -6
12 12 40 29 45 31 60 10 60 -8 0 -22 -17 -30 -37z m25 -113 c0 -5 -5 -10 -11
-10 -5 0 -7 5 -4 10 3 6 8 10 11 10 2 0 4 -4 4 -10z"/>
<path d="M564 5124 c3 -9 6 -18 6 -20 0 -2 7 -4 15 -4 20 0 19 26 -1 34 -24 9
-27 8 -20 -10z"/>
<path d="M520 5115 c0 -14 21 -45 31 -45 18 0 5 45 -13 48 -10 2 -18 1 -18 -3z"/>
<path d="M575 4853 c-9 -21 -23 -45 -31 -55 -20 -21 -9 -42 18 -35 20 6 20 5
-1 -17 -30 -32 -28 -50 7 -42 15 4 37 7 50 7 26 -1 28 15 5 41 -15 17 -15 19
0 36 19 21 23 52 7 52 -6 0 -16 -11 -22 -25 -6 -14 -17 -25 -25 -25 -9 0 -6
12 12 40 29 45 31 60 10 60 -8 0 -22 -17 -30 -37z m25 -113 c0 -5 -5 -10 -11
-10 -5 0 -7 5 -4 10 3 6 8 10 11 10 2 0 4 -4 4 -10z"/>
<path d="M600 4691 c0 -12 29 -35 36 -28 11 10 -5 37 -21 37 -8 0 -15 -4 -15
-9z"/>
<path d="M564 4674 c3 -9 6 -18 6 -20 0 -2 7 -4 15 -4 20 0 19 26 -1 34 -24 9
-27 8 -20 -10z"/>
<path d="M520 4665 c0 -14 21 -45 31 -45 18 0 5 45 -13 48 -10 2 -18 1 -18 -3z"/>
<path d="M740 4452 c0 -5 -11 -26 -25 -47 -15 -20 -23 -40 -20 -44 9 -9 77 68
73 81 -5 15 -28 23 -28 10z"/>
<path d="M575 4403 c-9 -21 -23 -45 -31 -55 -20 -21 -9 -42 18 -35 20 6 20 5
-1 -17 -30 -32 -28 -50 7 -42 15 4 37 7 50 7 26 -1 28 15 5 41 -15 17 -15 19
0 36 19 21 23 52 7 52 -6 0 -16 -11 -22 -25 -6 -14 -17 -25 -25 -25 -9 0 -6
12 12 40 29 45 31 60 10 60 -8 0 -22 -17 -30 -37z m25 -113 c0 -5 -5 -10 -11
-10 -5 0 -7 5 -4 10 3 6 8 10 11 10 2 0 4 -4 4 -10z"/>
<path d="M600 4241 c0 -12 29 -35 36 -28 11 10 -5 37 -21 37 -8 0 -15 -4 -15
-9z"/>
<path d="M564 4224 c3 -9 6 -18 6 -20 0 -2 7 -4 15 -4 20 0 19 26 -1 34 -24 9
-27 8 -20 -10z"/>
<path d="M520 4215 c0 -14 21 -45 31 -45 18 0 5 45 -13 48 -10 2 -18 1 -18 -3z"/>
<path d="M740 4001 c0 -4 -11 -25 -25 -46 -32 -46 -26 -55 14 -24 29 24 45 55
35 71 -7 11 -24 10 -24 -1z"/>
<path d="M575 3953 c-9 -21 -23 -45 -31 -55 -20 -21 -9 -42 18 -35 20 6 20 5
-1 -17 -30 -32 -28 -50 7 -42 15 4 37 7 50 7 26 -1 28 15 5 41 -15 17 -15 19
0 36 19 21 23 52 7 52 -6 0 -16 -11 -22 -25 -6 -14 -17 -25 -25 -25 -9 0 -6
12 12 40 29 45 31 60 10 60 -8 0 -22 -17 -30 -37z m25 -113 c0 -5 -5 -10 -11
-10 -5 0 -7 5 -4 10 3 6 8 10 11 10 2 0 4 -4 4 -10z"/>
<path d="M775 3961 c4 -13 -6 -29 -36 -55 -22 -21 -39 -40 -36 -43 17 -16 135
87 122 107 -3 6 -17 10 -31 10 -20 0 -24 -4 -19 -19z"/>
<path d="M600 3791 c0 -12 29 -35 36 -28 11 10 -5 37 -21 37 -8 0 -15 -4 -15
-9z"/>
<path d="M564 3774 c3 -9 6 -18 6 -20 0 -2 7 -4 15 -4 20 0 19 26 -1 34 -24 9
-27 8 -20 -10z"/>
<path d="M520 3765 c0 -14 21 -45 31 -45 18 0 5 45 -13 48 -10 2 -18 1 -18 -3z"/>
<path d="M740 3551 c0 -4 -11 -25 -25 -46 -32 -46 -26 -55 14 -24 29 24 45 55
35 71 -7 11 -24 10 -24 -1z"/>
<path d="M575 3503 c-9 -21 -23 -45 -31 -55 -20 -21 -9 -42 18 -35 20 6 20 5
-1 -17 -30 -32 -28 -50 7 -42 15 4 37 7 50 7 26 -1 28 15 5 41 -15 17 -15 19
0 36 19 21 23 52 7 52 -6 0 -16 -11 -22 -25 -6 -14 -17 -25 -25 -25 -9 0 -6
12 12 40 29 45 31 60 10 60 -8 0 -22 -17 -30 -37z m25 -113 c0 -5 -5 -10 -11
-10 -5 0 -7 5 -4 10 3 6 8 10 11 10 2 0 4 -4 4 -10z"/>
<path d="M775 3509 c5 -15 2 -22 -14 -26 -12 -3 -21 -11 -21 -19 0 -7 -10 -20
-22 -28 -32 -23 -16 -29 25 -10 34 16 36 16 65 -5 35 -25 52 -27 52 -6 0 8
-16 23 -35 33 l-36 18 21 22 c25 26 19 42 -16 42 -21 0 -24 -4 -19 -21z"/>
<path d="M600 3341 c0 -12 29 -35 36 -28 11 10 -5 37 -21 37 -8 0 -15 -4 -15
-9z"/>
<path d="M564 3324 c3 -9 6 -18 6 -20 0 -2 7 -4 15 -4 20 0 19 26 -1 34 -24 9
-27 8 -20 -10z"/>
<path d="M520 3315 c0 -14 21 -45 31 -45 18 0 5 45 -13 48 -10 2 -18 1 -18 -3z"/>
<path d="M740 3101 c0 -4 -11 -25 -25 -46 -32 -46 -26 -55 14 -24 29 24 45 55
35 71 -7 11 -24 10 -24 -1z"/>
<path d="M575 3053 c-9 -21 -23 -45 -31 -55 -20 -21 -9 -42 18 -35 20 6 20 5
-1 -17 -30 -32 -28 -50 7 -42 15 4 37 7 50 7 26 -1 28 15 5 41 -15 17 -15 19
0 36 19 21 23 52 7 52 -6 0 -16 -11 -22 -25 -6 -14 -17 -25 -25 -25 -9 0 -6
12 12 40 29 45 31 60 10 60 -8 0 -22 -17 -30 -37z m25 -113 c0 -5 -5 -10 -11
-10 -5 0 -7 5 -4 10 3 6 8 10 11 10 2 0 4 -4 4 -10z"/>
<path d="M775 3059 c5 -15 2 -22 -14 -26 -12 -3 -21 -11 -21 -19 0 -7 -10 -20
-22 -28 -32 -23 -16 -29 25 -10 34 16 36 16 65 -5 35 -25 52 -27 52 -6 0 8
-16 23 -35 33 l-36 18 21 22 c25 26 19 42 -16 42 -21 0 -24 -4 -19 -21z"/>
<path d="M738 2953 c-10 -2 -18 -9 -18 -15 0 -6 10 -8 23 -4 12 3 34 6 50 6
15 0 27 5 27 10 0 10 -49 12 -82 3z"/>
<path d="M600 2891 c0 -12 29 -35 36 -28 11 10 -5 37 -21 37 -8 0 -15 -4 -15
-9z"/>
<path d="M564 2874 c3 -9 6 -18 6 -20 0 -2 7 -4 15 -4 20 0 19 26 -1 34 -24 9
-27 8 -20 -10z"/>
<path d="M520 2865 c0 -14 21 -45 31 -45 18 0 5 45 -13 48 -10 2 -18 1 -18 -3z"/>
<path d="M740 2651 c0 -4 -11 -25 -25 -46 -32 -46 -26 -55 14 -24 29 24 45 55
35 71 -7 11 -24 10 -24 -1z"/>
<path d="M575 2603 c-9 -21 -23 -45 -31 -55 -20 -21 -9 -42 18 -35 20 6 20 5
-1 -17 -30 -32 -28 -50 7 -42 15 4 37 7 50 7 26 -1 28 15 5 41 -15 17 -15 19
0 36 19 21 23 52 7 52 -6 0 -16 -11 -22 -25 -6 -14 -17 -25 -25 -25 -9 0 -6
12 12 40 29 45 31 60 10 60 -8 0 -22 -17 -30 -37z m25 -113 c0 -5 -5 -10 -11
-10 -5 0 -7 5 -4 10 3 6 8 10 11 10 2 0 4 -4 4 -10z"/>
<path d="M775 2609 c5 -15 2 -22 -14 -26 -12 -3 -21 -11 -21 -19 0 -7 -10 -20
-22 -28 -32 -23 -16 -29 25 -10 34 16 36 16 65 -5 35 -25 52 -27 52 -6 0 8
-16 23 -35 33 l-36 18 21 22 c25 26 19 42 -16 42 -21 0 -24 -4 -19 -21z"/>
<path d="M738 2503 c-10 -2 -18 -9 -18 -15 0 -6 10 -8 23 -4 12 3 34 6 50 6
15 0 27 5 27 10 0 10 -49 12 -82 3z"/>
<path d="M780 2470 c0 -5 7 -10 15 -10 8 0 15 5 15 10 0 6 -7 10 -15 10 -8 0
-15 -4 -15 -10z"/>
<path d="M720 2460 c0 -5 11 -10 25 -10 14 0 25 5 25 10 0 6 -11 10 -25 10
-14 0 -25 -4 -25 -10z"/>
<path d="M600 2441 c0 -12 29 -35 36 -28 11 10 -5 37 -21 37 -8 0 -15 -4 -15
-9z"/>
<path d="M564 2424 c3 -9 6 -18 6 -20 0 -2 7 -4 15 -4 20 0 19 26 -1 34 -24 9
-27 8 -20 -10z"/>
<path d="M520 2415 c0 -14 21 -45 31 -45 18 0 5 45 -13 48 -10 2 -18 1 -18 -3z"/>
<path d="M740 2201 c0 -4 -11 -25 -25 -46 -32 -46 -26 -55 14 -24 29 24 45 55
35 71 -7 11 -24 10 -24 -1z"/>
<path d="M575 2153 c-9 -21 -23 -45 -31 -55 -20 -21 -9 -42 18 -35 20 6 20 5
-1 -17 -30 -32 -28 -50 7 -42 15 4 37 7 50 7 26 -1 28 15 5 41 -15 17 -15 19
0 36 19 21 23 52 7 52 -6 0 -16 -11 -22 -25 -6 -14 -17 -25 -25 -25 -9 0 -6
12 12 40 29 45 31 60 10 60 -8 0 -22 -17 -30 -37z m25 -113 c0 -5 -5 -10 -11
-10 -5 0 -7 5 -4 10 3 6 8 10 11 10 2 0 4 -4 4 -10z"/>
<path d="M775 2159 c5 -15 2 -22 -14 -26 -12 -3 -21 -11 -21 -19 0 -7 -10 -20
-22 -28 -32 -23 -16 -29 25 -10 34 16 36 16 65 -5 35 -25 52 -27 52 -6 0 8
-16 23 -35 33 l-36 18 21 22 c25 26 19 42 -16 42 -21 0 -24 -4 -19 -21z"/>
<path d="M738 2053 c-10 -2 -18 -9 -18 -15 0 -6 10 -8 23 -4 12 3 34 6 50 6
15 0 27 5 27 10 0 10 -49 12 -82 3z"/>
<path d="M780 2020 c0 -5 7 -10 15 -10 8 0 15 5 15 10 0 6 -7 10 -15 10 -8 0
-15 -4 -15 -10z"/>
<path d="M720 2010 c0 -5 11 -10 25 -10 14 0 25 5 25 10 0 6 -11 10 -25 10
-14 0 -25 -4 -25 -10z"/>
<path d="M600 1991 c0 -12 29 -35 36 -28 11 10 -5 37 -21 37 -8 0 -15 -4 -15
-9z"/>
<path d="M564 1974 c3 -9 6 -18 6 -20 0 -2 7 -4 15 -4 20 0 19 26 -1 34 -24 9
-27 8 -20 -10z"/>
<path d="M715 1979 c-4 -6 -5 -11 -4 -13 11 -6 129 7 129 15 0 13 -117 11
-125 -2z"/>
<path d="M520 1965 c0 -14 21 -45 31 -45 18 0 5 45 -13 48 -10 2 -18 1 -18 -3z"/>
<path d="M740 1751 c0 -4 -11 -25 -25 -46 -32 -46 -26 -55 14 -24 29 24 45 55
35 71 -7 11 -24 10 -24 -1z"/>
<path d="M575 1703 c-9 -21 -23 -45 -31 -55 -20 -21 -9 -42 18 -35 20 6 20 5
-1 -17 -30 -32 -28 -50 7 -42 15 4 37 7 50 7 26 -1 28 15 5 41 -15 17 -15 19
0 36 19 21 23 52 7 52 -6 0 -16 -11 -22 -25 -6 -14 -17 -25 -25 -25 -9 0 -6
12 12 40 29 45 31 60 10 60 -8 0 -22 -17 -30 -37z m25 -113 c0 -5 -5 -10 -11
-10 -5 0 -7 5 -4 10 3 6 8 10 11 10 2 0 4 -4 4 -10z"/>
<path d="M775 1709 c5 -15 2 -22 -14 -26 -12 -3 -21 -11 -21 -19 0 -7 -10 -20
-22 -28 -27 -19 -18 -32 11 -16 17 9 21 8 21 -5 0 -8 -7 -15 -15 -15 -21 0
-19 -18 3 -23 16 -4 16 -5 0 -6 -10 0 -18 -5 -18 -11 0 -5 8 -10 18 -11 13 0
12 -2 -5 -9 -29 -12 -31 -34 -3 -25 14 5 20 2 20 -9 0 -20 19 -21 26 -1 4 9
19 15 35 15 16 0 29 5 29 10 0 6 -13 10 -30 10 -16 0 -30 5 -30 10 0 6 7 10
15 10 21 0 19 18 -2 23 -14 4 -12 5 5 6 27 1 30 21 2 21 -11 0 -20 7 -20 16 0
13 5 12 29 -5 34 -25 51 -27 51 -6 0 8 -16 23 -35 33 l-36 18 21 22 c25 26 19
42 -16 42 -21 0 -24 -4 -19 -21z"/>
<path d="M600 1541 c0 -12 29 -35 36 -28 11 10 -5 37 -21 37 -8 0 -15 -4 -15
-9z"/>
<path d="M564 1524 c3 -9 6 -18 6 -20 0 -2 7 -4 15 -4 20 0 19 26 -1 34 -24 9
-27 8 -20 -10z"/>
<path d="M520 1515 c0 -14 21 -45 31 -45 18 0 5 45 -13 48 -10 2 -18 1 -18 -3z"/>
<path d="M736 1293 c-15 -38 -52 -83 -69 -83 -11 0 -17 -6 -15 -12 6 -18 38
-23 38 -6 0 7 16 24 35 38 33 24 49 55 39 72 -8 13 -21 9 -28 -9z"/>
<path d="M575 1253 c-9 -21 -23 -45 -31 -55 -20 -21 -9 -42 18 -35 20 6 20 5
-1 -17 -30 -32 -28 -50 7 -42 15 4 37 7 50 7 26 -1 28 15 5 41 -15 17 -15 19
0 36 19 21 23 52 7 52 -6 0 -16 -11 -22 -25 -6 -14 -17 -25 -25 -25 -9 0 -6
12 12 40 29 45 31 60 10 60 -8 0 -22 -17 -30 -37z m25 -113 c0 -5 -5 -10 -11
-10 -5 0 -7 5 -4 10 3 6 8 10 11 10 2 0 4 -4 4 -10z"/>
<path d="M775 1259 c5 -15 2 -22 -14 -26 -12 -3 -21 -11 -21 -19 0 -7 -10 -20
-22 -28 -27 -19 -18 -32 11 -16 17 9 21 8 21 -5 0 -8 -7 -15 -15 -15 -21 0
-19 -18 3 -23 16 -4 16 -5 0 -6 -10 0 -18 -5 -18 -11 0 -5 8 -10 18 -11 13 0
12 -2 -5 -9 -29 -12 -31 -34 -3 -25 14 5 20 2 20 -9 0 -20 19 -21 26 -1 4 9
19 15 35 15 16 0 29 5 29 10 0 6 -13 10 -30 10 -16 0 -30 5 -30 10 0 6 7 10
15 10 21 0 19 18 -2 23 -14 4 -12 5 5 6 27 1 30 21 2 21 -11 0 -20 7 -20 16 0
13 5 12 29 -5 34 -25 51 -27 51 -6 0 8 -16 23 -35 33 l-36 18 21 22 c25 26 19
42 -16 42 -21 0 -24 -4 -19 -21z"/>
<path d="M600 1091 c0 -12 29 -35 36 -28 11 10 -5 37 -21 37 -8 0 -15 -4 -15
-9z"/>
<path d="M564 1074 c3 -9 6 -18 6 -20 0 -2 7 -4 15 -4 20 0 19 26 -1 34 -24 9
-27 8 -20 -10z"/>
<path d="M520 1065 c0 -14 21 -45 31 -45 18 0 5 45 -13 48 -10 2 -18 1 -18 -3z"/>
<path d="M736 843 c-15 -38 -52 -83 -69 -83 -11 0 -17 -6 -15 -12 6 -18 38
-23 38 -6 0 7 16 24 35 38 33 24 49 55 39 72 -8 13 -21 9 -28 -9z"/>
<path d="M575 803 c-9 -21 -23 -45 -31 -55 -20 -21 -9 -42 18 -35 20 6 20 5
-1 -17 -30 -32 -28 -50 7 -42 15 4 37 7 50 7 26 -1 28 15 5 41 -15 17 -15 19
0 36 19 21 23 52 7 52 -6 0 -16 -11 -22 -25 -6 -14 -17 -25 -25 -25 -9 0 -6
12 12 40 29 45 31 60 10 60 -8 0 -22 -17 -30 -37z m25 -113 c0 -5 -5 -10 -11
-10 -5 0 -7 5 -4 10 3 6 8 10 11 10 2 0 4 -4 4 -10z"/>
<path d="M775 809 c5 -15 2 -22 -14 -26 -12 -3 -21 -11 -21 -19 0 -7 -10 -20
-22 -28 -27 -19 -18 -32 11 -16 17 9 21 8 21 -5 0 -8 -7 -15 -15 -15 -21 0
-19 -18 3 -23 16 -4 16 -5 0 -6 -10 0 -18 -5 -18 -11 0 -5 8 -10 18 -11 13 0
12 -2 -5 -9 -29 -12 -31 -34 -3 -25 14 5 20 2 20 -9 0 -20 19 -21 26 -1 4 9
19 15 35 15 16 0 29 5 29 10 0 6 -13 10 -30 10 -16 0 -30 5 -30 10 0 6 7 10
15 10 21 0 19 18 -2 23 -14 4 -12 5 5 6 27 1 30 21 2 21 -11 0 -20 7 -20 16 0
13 5 12 29 -5 34 -25 51 -27 51 -6 0 8 -16 23 -35 33 l-36 18 21 22 c25 26 19
42 -16 42 -21 0 -24 -4 -19 -21z"/>
<path d="M663 675 c0 -28 7 -31 25 -13 18 18 14 38 -7 38 -13 0 -18 -7 -18
-25z"/>
<path d="M600 641 c0 -12 29 -35 36 -28 11 10 -5 37 -21 37 -8 0 -15 -4 -15
-9z"/>
<path d="M564 624 c3 -9 6 -18 6 -20 0 -2 7 -4 15 -4 20 0 19 26 -1 34 -24 9
-27 8 -20 -10z"/>
<path d="M520 615 c0 -14 21 -45 31 -45 18 0 5 45 -13 48 -10 2 -18 1 -18 -3z"/>
<path d="M736 393 c-15 -38 -52 -83 -69 -83 -11 0 -17 -6 -15 -12 6 -18 38
-23 38 -6 0 7 16 24 35 38 33 24 49 55 39 72 -8 13 -21 9 -28 -9z"/>
<path d="M575 353 c-9 -21 -23 -45 -31 -55 -20 -21 -9 -42 18 -35 20 6 20 5
-1 -17 -30 -32 -28 -50 7 -42 15 4 37 7 50 7 26 -1 28 15 5 41 -15 17 -15 19
0 36 19 21 23 52 7 52 -6 0 -16 -11 -22 -25 -6 -14 -17 -25 -25 -25 -9 0 -6
12 12 40 29 45 31 60 10 60 -8 0 -22 -17 -30 -37z m25 -113 c0 -5 -5 -10 -11
-10 -5 0 -7 5 -4 10 3 6 8 10 11 10 2 0 4 -4 4 -10z"/>
<path d="M775 359 c5 -15 2 -22 -14 -26 -12 -3 -21 -11 -21 -19 0 -7 -10 -20
-22 -28 -27 -19 -18 -32 11 -16 17 9 21 8 21 -5 0 -8 -7 -15 -15 -15 -21 0
-19 -18 3 -23 16 -4 16 -5 0 -6 -10 0 -18 -5 -18 -11 0 -5 8 -10 18 -11 13 0
12 -2 -5 -9 -29 -12 -31 -34 -3 -25 14 5 20 2 20 -9 0 -20 19 -21 26 -1 4 9
19 15 35 15 16 0 29 5 29 10 0 6 -13 10 -30 10 -16 0 -30 5 -30 10 0 6 7 10
15 10 21 0 19 18 -2 23 -14 4 -12 5 5 6 27 1 30 21 2 21 -11 0 -20 7 -20 16 0
13 5 12 29 -5 34 -25 51 -27 51 -6 0 8 -16 23 -35 33 l-36 18 21 22 c25 26 19
42 -16 42 -21 0 -24 -4 -19 -21z"/>
<path d="M664 213 c5 -68 6 -73 17 -73 8 0 10 12 6 35 -3 19 -1 37 4 40 16 11
10 35 -10 35 -16 0 -19 -6 -17 -37z"/>
<path d="M600 191 c0 -12 29 -35 36 -28 11 10 -5 37 -21 37 -8 0 -15 -4 -15
-9z"/>
<path d="M564 174 c3 -9 6 -18 6 -20 0 -2 7 -4 15 -4 20 0 19 26 -1 34 -24 9
-27 8 -20 -10z"/>
<path d="M520 165 c0 -14 21 -45 31 -45 18 0 5 45 -13 48 -10 2 -18 1 -18 -3z"/>
</g>
</svg>
