<?xml version="1.0" standalone="no"?>
<!DOCTYPE svg PUBLIC "-//W3C//DTD SVG 20010904//EN"
 "http://www.w3.org/TR/2001/REC-SVG-20010904/DTD/svg10.dtd">
<svg version="1.0" xmlns="http://www.w3.org/2000/svg"
 width="95.000000pt" height="725.000000pt" viewBox="0 0 95.000000 725.000000"
 preserveAspectRatio="xMidYMid meet">
<metadata>
Created by potrace 1.16, written by Peter Selinger 2001-2019
</metadata>
<g transform="translate(0.000000,725.000000) scale(0.100000,-0.100000)"
fill="#000000" stroke="none">
<path d="M140 7131 c0 -10 -11 -35 -25 -55 -30 -45 -31 -56 -4 -56 20 0 20 -1
3 -30 -21 -35 -13 -47 21 -32 35 16 65 15 65 -2 0 -9 -7 -12 -20 -9 -12 3 -20
0 -20 -7 0 -6 9 -14 20 -17 11 -3 20 -9 20 -14 0 -5 5 -9 10 -9 6 0 10 11 10
24 0 13 6 27 13 30 10 5 10 7 0 12 -18 8 -16 34 2 34 19 0 21 -66 3 -73 -9 -4
-10 -8 -3 -14 6 -4 16 -20 22 -35 15 -32 64 -45 126 -32 31 7 43 14 45 29 3
25 -17 56 -25 37 -10 -26 -36 -42 -66 -42 -61 0 -62 3 -59 153 3 123 22 112
22 -13 0 -112 17 -138 22 -32 3 59 6 67 23 70 23 3 61 64 51 81 -9 13 -56 15
-56 2 0 -6 4 -12 9 -15 13 -9 1 -46 -15 -46 -10 0 -12 8 -7 31 6 30 5 30 -33
27 -36 -3 -39 -6 -42 -35 -2 -18 -8 -33 -14 -33 -6 0 -8 12 -4 30 5 26 2 30
-15 30 -15 0 -19 -5 -15 -16 3 -9 6 -27 6 -40 0 -17 6 -24 20 -24 31 0 24 -16
-13 -27 -48 -15 -63 -6 -36 23 12 13 19 30 16 38 -9 23 -22 20 -35 -9 -6 -14
-16 -25 -22 -25 -15 0 -12 10 15 46 29 38 31 50 9 58 -23 9 -24 8 -24 -13z"/>
<path d="M590 7131 c0 -10 -11 -35 -25 -55 -32 -47 -31 -56 1 -56 20 0 25 4
20 16 -4 10 4 30 19 50 29 38 31 50 9 58 -23 9 -24 8 -24 -13z"/>
<path d="M340 7020 c0 -5 5 -10 10 -10 6 0 10 -20 10 -45 0 -25 4 -45 8 -45
10 0 33 91 26 102 -7 12 -54 10 -54 -2z"/>
<path d="M124 6925 c3 -9 6 -19 6 -21 0 -2 7 -4 16 -4 22 0 13 34 -10 38 -14
3 -17 0 -12 -13z"/>
<path d="M80 6916 c0 -25 12 -46 26 -46 17 0 18 32 2 48 -16 16 -28 15 -28 -2z"/>
<path d="M140 6681 c0 -10 -11 -35 -25 -55 -30 -45 -31 -56 -4 -56 20 0 20 -1
3 -30 -21 -35 -13 -47 21 -32 35 16 65 15 65 -2 0 -9 -7 -12 -20 -9 -12 3 -20
0 -20 -7 0 -6 9 -14 20 -17 11 -3 20 -9 20 -14 0 -5 5 -9 10 -9 6 0 10 11 10
24 0 13 6 27 13 30 10 5 10 7 0 12 -18 8 -16 34 2 34 19 0 21 -66 3 -73 -9 -4
-10 -8 -3 -14 6 -4 16 -20 22 -35 15 -32 64 -45 126 -32 31 7 43 14 45 29 3
25 -17 56 -25 37 -10 -26 -36 -42 -66 -42 -61 0 -62 3 -59 153 3 123 22 112
22 -13 0 -60 4 -100 10 -100 6 0 10 11 10 25 0 16 6 25 15 25 8 0 15 5 15 10
0 6 -7 10 -16 10 -25 0 -15 64 11 68 23 3 61 64 51 81 -9 13 -56 15 -56 2 0
-6 4 -12 9 -15 13 -9 1 -46 -15 -46 -10 0 -12 8 -7 31 6 30 5 30 -33 27 -36
-3 -39 -6 -42 -35 -2 -18 -8 -33 -14 -33 -6 0 -8 12 -4 30 5 26 2 30 -15 30
-15 0 -19 -5 -15 -16 3 -9 6 -27 6 -40 0 -17 6 -24 20 -24 31 0 24 -16 -13
-27 -48 -15 -63 -6 -36 23 12 13 19 30 16 38 -9 23 -22 20 -35 -9 -6 -14 -16
-25 -22 -25 -15 0 -12 10 15 46 29 38 31 50 9 58 -23 9 -24 8 -24 -13z"/>
<path d="M590 6681 c0 -10 -11 -35 -25 -55 -30 -45 -31 -56 -4 -56 20 0 20 -1
3 -30 -22 -37 -14 -46 26 -30 30 12 44 38 14 26 -11 -4 -8 3 8 25 44 59 43 58
29 71 -9 9 -15 10 -18 2 -8 -24 -32 -49 -39 -42 -4 4 5 23 20 42 30 40 32 52
10 60 -23 9 -24 8 -24 -13z"/>
<path d="M340 6570 c0 -5 5 -10 10 -10 6 0 10 -20 10 -45 0 -25 4 -45 8 -45
10 0 33 91 26 102 -7 12 -54 10 -54 -2z"/>
<path d="M124 6475 c3 -9 6 -19 6 -21 0 -2 7 -4 16 -4 22 0 13 34 -10 38 -14
3 -17 0 -12 -13z"/>
<path d="M80 6466 c0 -25 12 -46 26 -46 17 0 18 32 2 48 -16 16 -28 15 -28 -2z"/>
<path d="M140 6231 c0 -10 -11 -35 -25 -55 -30 -45 -31 -56 -4 -56 20 0 20 -1
3 -30 -21 -35 -13 -47 21 -32 35 16 65 15 65 -2 0 -9 -7 -12 -20 -9 -12 3 -20
0 -20 -7 0 -6 9 -14 20 -17 11 -3 20 -9 20 -14 0 -5 5 -9 10 -9 6 0 10 11 10
24 0 13 6 27 13 30 10 5 10 7 0 12 -18 8 -16 34 2 34 19 0 21 -66 3 -73 -9 -4
-10 -8 -3 -14 6 -4 16 -20 22 -35 15 -32 64 -45 126 -32 31 7 43 14 45 29 3
25 -17 56 -25 37 -10 -26 -36 -42 -66 -42 -61 0 -62 3 -59 153 3 124 22 112
22 -14 0 -88 2 -100 16 -95 9 3 26 6 38 6 19 0 24 8 33 47 6 26 9 51 7 55 -7
12 -54 10 -54 -2 0 -5 5 -10 10 -10 6 0 10 -16 10 -35 0 -28 -4 -35 -20 -35
-11 0 -20 5 -20 10 0 6 7 10 15 10 8 0 15 5 15 10 0 6 -7 10 -16 10 -25 0 -15
64 11 68 23 3 61 64 51 81 -9 13 -56 15 -56 2 0 -6 4 -12 9 -15 13 -9 1 -46
-15 -46 -10 0 -12 8 -7 31 6 30 5 30 -33 27 -36 -3 -39 -6 -42 -35 -2 -18 -8
-33 -14 -33 -6 0 -8 12 -4 30 5 26 2 30 -15 30 -15 0 -19 -5 -15 -16 3 -9 6
-27 6 -40 0 -17 6 -24 20 -24 31 0 24 -16 -13 -27 -48 -15 -63 -6 -36 23 12
13 19 30 16 38 -9 23 -22 20 -35 -9 -6 -14 -16 -25 -22 -25 -15 0 -12 10 15
46 29 38 31 50 9 58 -23 9 -24 8 -24 -13z"/>
<path d="M590 6231 c0 -10 -11 -35 -25 -55 -30 -45 -31 -56 -4 -56 20 0 20 -1
3 -30 -21 -35 -13 -47 21 -32 14 7 35 12 45 12 26 0 26 16 0 32 -19 12 -19 13
2 35 11 12 18 29 15 37 -9 23 -22 20 -35 -9 -6 -14 -16 -25 -22 -25 -15 0 -12
10 15 46 29 38 31 50 9 58 -23 9 -24 8 -24 -13z"/>
<path d="M124 6025 c3 -9 6 -19 6 -21 0 -2 7 -4 16 -4 22 0 13 34 -10 38 -14
3 -17 0 -12 -13z"/>
<path d="M80 6016 c0 -25 12 -46 26 -46 17 0 18 32 2 48 -16 16 -28 15 -28 -2z"/>
<path d="M590 5781 c0 -10 -11 -35 -25 -55 -30 -45 -31 -56 -4 -56 20 0 20 -1
3 -30 -21 -35 -13 -47 21 -32 14 7 35 12 45 12 26 0 26 16 0 32 -19 12 -19 13
2 35 11 12 18 29 15 37 -9 23 -22 20 -35 -9 -6 -14 -16 -25 -22 -25 -15 0 -12
10 15 46 29 38 31 50 9 58 -23 9 -24 8 -24 -13z"/>
<path d="M530 5566 c0 -25 12 -46 26 -46 17 0 18 32 2 48 -16 16 -28 15 -28
-2z"/>
<path d="M590 5331 c0 -10 -11 -35 -25 -55 -30 -45 -31 -56 -4 -56 20 0 20 -1
3 -30 -21 -35 -13 -47 21 -32 14 7 35 12 45 12 26 0 26 16 0 32 -19 12 -19 13
2 35 11 12 18 29 15 37 -9 23 -22 20 -35 -9 -6 -14 -16 -25 -22 -25 -15 0 -12
10 15 46 29 38 31 50 9 58 -23 9 -24 8 -24 -13z"/>
<path d="M574 5125 c3 -9 6 -19 6 -21 0 -2 7 -4 16 -4 22 0 13 34 -10 38 -14
3 -17 0 -12 -13z"/>
<path d="M530 5116 c0 -25 12 -46 26 -46 17 0 18 32 2 48 -16 16 -28 15 -28
-2z"/>
<path d="M590 4881 c0 -10 -11 -35 -25 -55 -30 -45 -31 -56 -4 -56 20 0 20 -1
3 -30 -21 -35 -13 -47 21 -32 14 7 35 12 45 12 26 0 26 16 0 32 -19 12 -19 13
2 35 11 12 18 29 15 37 -9 23 -22 20 -35 -9 -6 -14 -16 -25 -22 -25 -15 0 -12
10 15 46 29 38 31 50 9 58 -23 9 -24 8 -24 -13z"/>
<path d="M612 4688 c3 -7 13 -15 22 -16 12 -3 17 1 14 10 -3 7 -13 15 -22 16
-12 3 -17 -1 -14 -10z"/>
<path d="M574 4675 c3 -9 6 -19 6 -21 0 -2 7 -4 16 -4 22 0 13 34 -10 38 -14
3 -17 0 -12 -13z"/>
<path d="M530 4666 c0 -25 12 -46 26 -46 17 0 18 32 2 48 -16 16 -28 15 -28
-2z"/>
<path d="M590 4431 c0 -10 -11 -35 -25 -55 -30 -45 -31 -56 -4 -56 20 0 20 -1
3 -30 -21 -35 -13 -47 21 -32 14 7 35 12 45 12 26 0 26 16 0 32 -19 12 -19 13
2 35 11 12 18 29 15 37 -9 23 -22 20 -35 -9 -6 -14 -16 -25 -22 -25 -15 0 -12
10 15 46 29 38 31 50 9 58 -23 9 -24 8 -24 -13z"/>
<path d="M654 4404 c3 -9 6 -27 6 -40 0 -13 5 -24 10 -24 6 0 10 18 10 40 0
30 -4 40 -16 40 -11 0 -14 -5 -10 -16z"/>
<path d="M612 4238 c3 -7 13 -15 22 -16 12 -3 17 1 14 10 -3 7 -13 15 -22 16
-12 3 -17 -1 -14 -10z"/>
<path d="M574 4225 c3 -9 6 -19 6 -21 0 -2 7 -4 16 -4 22 0 13 34 -10 38 -14
3 -17 0 -12 -13z"/>
<path d="M530 4216 c0 -25 12 -46 26 -46 17 0 18 32 2 48 -16 16 -28 15 -28
-2z"/>
<path d="M590 3981 c0 -10 -11 -35 -25 -55 -30 -45 -31 -56 -4 -56 20 0 20 -1
3 -30 -21 -35 -13 -47 21 -32 14 7 35 12 45 12 26 0 26 16 0 32 -19 12 -19 13
2 35 11 12 18 29 15 37 -9 23 -22 20 -35 -9 -6 -14 -16 -25 -22 -25 -15 0 -12
10 15 46 29 38 31 50 9 58 -23 9 -24 8 -24 -13z"/>
<path d="M790 3981 c0 -6 4 -12 9 -15 4 -3 6 -17 3 -31 -2 -14 0 -25 6 -25 15
0 44 50 38 66 -6 15 -56 20 -56 5z"/>
<path d="M710 3970 c0 -5 9 -10 20 -10 11 0 20 5 20 10 0 6 -9 10 -20 10 -11
0 -20 -4 -20 -10z"/>
<path d="M657 3933 c3 -21 7 -40 9 -42 7 -8 11 3 17 42 5 32 3 37 -13 37 -16
0 -18 -5 -13 -37z"/>
<path d="M612 3788 c3 -7 13 -15 22 -16 12 -3 17 1 14 10 -3 7 -13 15 -22 16
-12 3 -17 -1 -14 -10z"/>
<path d="M574 3775 c3 -9 6 -19 6 -21 0 -2 7 -4 16 -4 22 0 13 34 -10 38 -14
3 -17 0 -12 -13z"/>
<path d="M530 3766 c0 -25 12 -46 26 -46 17 0 18 32 2 48 -16 16 -28 15 -28
-2z"/>
<path d="M590 3531 c0 -10 -11 -35 -25 -55 -30 -45 -31 -56 -4 -56 20 0 20 -1
3 -30 -21 -35 -13 -47 21 -32 14 7 35 12 45 12 26 0 26 16 0 32 -19 12 -19 13
2 35 11 12 18 29 15 37 -9 23 -22 20 -35 -9 -6 -14 -16 -25 -22 -25 -15 0 -12
10 15 46 29 38 31 50 9 58 -23 9 -24 8 -24 -13z"/>
<path d="M790 3531 c0 -6 4 -12 9 -15 4 -3 6 -17 3 -31 -2 -14 0 -25 6 -25 15
0 44 50 38 66 -6 15 -56 20 -56 5z"/>
<path d="M710 3520 c0 -5 9 -10 20 -10 11 0 20 5 20 10 0 6 -9 10 -20 10 -11
0 -20 -4 -20 -10z"/>
<path d="M654 3504 c3 -9 6 -27 6 -40 0 -19 5 -24 25 -24 14 0 25 5 25 10 0 6
-7 10 -16 10 -13 0 -15 7 -10 30 5 26 2 30 -15 30 -15 0 -19 -5 -15 -16z"/>
<path d="M612 3338 c3 -7 13 -15 22 -16 12 -3 17 1 14 10 -3 7 -13 15 -22 16
-12 3 -17 -1 -14 -10z"/>
<path d="M574 3325 c3 -9 6 -19 6 -21 0 -2 7 -4 16 -4 22 0 13 34 -10 38 -14
3 -17 0 -12 -13z"/>
<path d="M530 3316 c0 -25 12 -46 26 -46 17 0 18 32 2 48 -16 16 -28 15 -28
-2z"/>
<path d="M590 3081 c0 -10 -11 -35 -25 -55 -30 -45 -31 -56 -4 -56 20 0 20 -1
3 -30 -21 -35 -13 -47 21 -32 14 7 35 12 45 12 26 0 26 16 0 32 -19 12 -19 13
2 35 11 12 18 29 15 37 -9 23 -22 20 -35 -9 -6 -14 -16 -25 -22 -25 -15 0 -12
10 15 46 29 38 31 50 9 58 -23 9 -24 8 -24 -13z"/>
<path d="M790 3081 c0 -6 4 -12 9 -15 13 -9 1 -46 -15 -46 -8 0 -14 -4 -14
-10 0 -5 10 -10 23 -10 25 0 65 60 53 79 -9 13 -56 15 -56 2z"/>
<path d="M710 3070 c0 -5 9 -10 20 -10 11 0 20 5 20 10 0 6 -9 10 -20 10 -11
0 -20 -4 -20 -10z"/>
<path d="M654 3054 c3 -9 6 -27 6 -40 0 -19 5 -24 25 -24 14 0 25 5 25 10 0 6
-7 10 -16 10 -13 0 -15 7 -10 30 5 26 2 30 -15 30 -15 0 -19 -5 -15 -16z"/>
<path d="M612 2888 c3 -7 13 -15 22 -16 12 -3 17 1 14 10 -3 7 -13 15 -22 16
-12 3 -17 -1 -14 -10z"/>
<path d="M574 2875 c3 -9 6 -19 6 -21 0 -2 7 -4 16 -4 22 0 13 34 -10 38 -14
3 -17 0 -12 -13z"/>
<path d="M530 2866 c0 -25 12 -46 26 -46 17 0 18 32 2 48 -16 16 -28 15 -28
-2z"/>
<path d="M590 2631 c0 -10 -11 -35 -25 -55 -30 -45 -31 -56 -4 -56 20 0 20 -1
3 -30 -21 -35 -13 -47 21 -32 14 7 35 12 45 12 26 0 26 16 0 32 -19 12 -19 13
2 35 11 12 18 29 15 37 -9 23 -22 20 -35 -9 -6 -14 -16 -25 -22 -25 -15 0 -12
10 15 46 29 38 31 50 9 58 -23 9 -24 8 -24 -13z"/>
<path d="M790 2631 c0 -6 4 -12 9 -15 13 -9 1 -46 -15 -46 -10 0 -12 8 -7 30
5 29 4 30 -31 30 -20 0 -36 -4 -36 -10 0 -5 9 -10 20 -10 19 0 20 -7 20 -100
0 -112 17 -138 22 -32 3 59 6 67 23 70 23 3 61 64 51 81 -9 13 -56 15 -56 2z"/>
<path d="M654 2604 c3 -9 6 -27 6 -40 0 -19 5 -24 25 -24 14 0 25 5 25 10 0 6
-7 10 -16 10 -13 0 -15 7 -10 30 5 26 2 30 -15 30 -15 0 -19 -5 -15 -16z"/>
<path d="M612 2438 c3 -7 13 -15 22 -16 12 -3 17 1 14 10 -3 7 -13 15 -22 16
-12 3 -17 -1 -14 -10z"/>
<path d="M574 2425 c3 -9 6 -19 6 -21 0 -2 7 -4 16 -4 22 0 13 34 -10 38 -14
3 -17 0 -12 -13z"/>
<path d="M530 2416 c0 -25 12 -46 26 -46 17 0 18 32 2 48 -16 16 -28 15 -28
-2z"/>
<path d="M590 2181 c0 -10 -11 -35 -25 -55 -30 -45 -31 -56 -4 -56 20 0 20 -1
3 -30 -21 -35 -13 -47 21 -32 14 7 35 12 45 12 26 0 26 16 0 32 -19 12 -19 13
2 35 11 12 18 29 15 37 -9 23 -22 20 -35 -9 -6 -14 -16 -25 -22 -25 -15 0 -12
10 15 46 29 38 31 50 9 58 -23 9 -24 8 -24 -13z"/>
<path d="M790 2181 c0 -6 4 -12 9 -15 13 -9 1 -46 -15 -46 -10 0 -12 8 -7 31
6 30 5 30 -33 27 -36 -3 -39 -6 -42 -35 -2 -18 -8 -33 -14 -33 -6 0 -8 12 -4
30 5 26 2 30 -15 30 -15 0 -19 -5 -15 -16 3 -9 6 -27 6 -40 0 -17 6 -24 20
-24 18 0 20 -7 20 -78 0 -48 5 -85 13 -96 27 -37 159 -30 165 10 3 24 -17 55
-25 36 -10 -26 -36 -42 -66 -42 -61 0 -62 3 -59 153 3 123 22 112 22 -13 0
-112 17 -138 22 -32 3 59 6 67 23 70 23 3 61 64 51 81 -9 13 -56 15 -56 2z"/>
<path d="M612 1988 c3 -7 13 -15 22 -16 12 -3 17 1 14 10 -3 7 -13 15 -22 16
-12 3 -17 -1 -14 -10z"/>
<path d="M574 1975 c3 -9 6 -19 6 -21 0 -2 7 -4 16 -4 22 0 13 34 -10 38 -14
3 -17 0 -12 -13z"/>
<path d="M530 1966 c0 -25 12 -46 26 -46 17 0 18 32 2 48 -16 16 -28 15 -28
-2z"/>
<path d="M590 1731 c0 -10 -11 -35 -25 -55 -30 -45 -31 -56 -4 -56 20 0 20 -1
3 -30 -21 -35 -13 -47 21 -32 14 7 35 12 45 12 26 0 26 16 0 32 -19 12 -19 13
2 35 11 12 18 29 15 37 -9 23 -22 20 -35 -9 -6 -14 -16 -25 -22 -25 -15 0 -12
10 15 46 29 38 31 50 9 58 -23 9 -24 8 -24 -13z"/>
<path d="M790 1731 c0 -6 4 -12 9 -15 13 -9 1 -46 -15 -46 -10 0 -12 8 -7 31
6 30 5 30 -33 27 -36 -3 -39 -6 -42 -35 -2 -18 -8 -33 -14 -33 -6 0 -8 12 -4
30 5 26 2 30 -15 30 -15 0 -19 -5 -15 -16 3 -9 6 -27 6 -40 0 -17 6 -24 20
-24 11 0 20 -4 20 -10 0 -5 -7 -10 -15 -10 -8 0 -15 -4 -15 -10 0 -5 7 -10 15
-10 12 0 15 -13 15 -58 0 -32 6 -66 13 -76 27 -37 159 -30 165 10 3 24 -17 55
-25 36 -10 -26 -36 -42 -66 -42 -61 0 -62 3 -59 153 3 123 22 112 22 -13 0
-112 17 -138 22 -32 3 59 6 67 23 70 23 3 61 64 51 81 -9 13 -56 15 -56 2z"/>
<path d="M612 1538 c3 -7 13 -15 22 -16 12 -3 17 1 14 10 -3 7 -13 15 -22 16
-12 3 -17 -1 -14 -10z"/>
<path d="M574 1525 c3 -9 6 -19 6 -21 0 -2 7 -4 16 -4 22 0 13 34 -10 38 -14
3 -17 0 -12 -13z"/>
<path d="M530 1516 c0 -25 12 -46 26 -46 17 0 18 32 2 48 -16 16 -28 15 -28
-2z"/>
<path d="M590 1281 c0 -10 -11 -35 -25 -55 -30 -45 -31 -56 -4 -56 20 0 20 -1
3 -30 -21 -35 -13 -47 21 -32 35 16 65 15 65 -2 0 -9 -7 -12 -20 -9 -12 3 -20
0 -20 -7 0 -6 9 -14 20 -17 11 -3 20 -9 20 -14 0 -5 5 -9 10 -9 6 0 10 23 10
50 0 38 4 50 15 50 12 0 15 -13 15 -58 0 -32 6 -66 13 -76 27 -37 159 -30 165
10 3 24 -17 55 -25 36 -10 -26 -36 -42 -66 -42 -61 0 -62 3 -59 153 3 123 22
112 22 -13 0 -112 17 -138 22 -32 3 59 6 67 23 70 23 3 61 64 51 81 -9 13 -56
15 -56 2 0 -6 4 -12 9 -15 13 -9 1 -46 -15 -46 -10 0 -12 8 -7 31 6 30 5 30
-33 27 -36 -3 -39 -6 -42 -35 -2 -18 -8 -33 -14 -33 -6 0 -8 12 -4 30 5 26 2
30 -15 30 -15 0 -19 -5 -15 -16 3 -9 6 -27 6 -40 0 -17 6 -24 20 -24 31 0 24
-16 -13 -27 -48 -15 -63 -6 -36 23 12 13 19 30 16 38 -9 23 -22 20 -35 -9 -6
-14 -16 -25 -22 -25 -15 0 -12 10 15 46 29 38 31 50 9 58 -23 9 -24 8 -24 -13z"/>
<path d="M574 1075 c3 -9 6 -19 6 -21 0 -2 7 -4 16 -4 22 0 13 34 -10 38 -14
3 -17 0 -12 -13z"/>
<path d="M530 1066 c0 -25 12 -46 26 -46 17 0 18 32 2 48 -16 16 -28 15 -28
-2z"/>
<path d="M590 831 c0 -10 -11 -35 -25 -55 -30 -45 -31 -56 -4 -56 20 0 20 -1
3 -30 -21 -35 -13 -47 21 -32 35 16 65 15 65 -2 0 -9 -7 -12 -20 -9 -12 3 -20
0 -20 -7 0 -6 9 -14 20 -17 11 -3 20 -9 20 -14 0 -5 5 -9 10 -9 6 0 10 11 10
24 0 13 6 27 13 30 10 5 10 7 0 12 -18 8 -16 34 2 34 12 0 15 -13 15 -58 0
-32 6 -66 13 -76 27 -37 159 -30 165 10 3 24 -17 55 -25 36 -10 -26 -36 -42
-66 -42 -61 0 -62 3 -59 153 3 123 22 112 22 -13 0 -112 17 -138 22 -32 3 59
6 67 23 70 23 3 61 64 51 81 -9 13 -56 15 -56 2 0 -6 4 -12 9 -15 13 -9 1 -46
-15 -46 -10 0 -12 8 -7 31 6 30 5 30 -33 27 -36 -3 -39 -6 -42 -35 -2 -18 -8
-33 -14 -33 -6 0 -8 12 -4 30 5 26 2 30 -15 30 -15 0 -19 -5 -15 -16 3 -9 6
-27 6 -40 0 -17 6 -24 20 -24 31 0 24 -16 -13 -27 -48 -15 -63 -6 -36 23 12
13 19 30 16 38 -9 23 -22 20 -35 -9 -6 -14 -16 -25 -22 -25 -15 0 -12 10 15
46 29 38 31 50 9 58 -23 9 -24 8 -24 -13z"/>
<path d="M574 625 c3 -9 6 -19 6 -21 0 -2 7 -4 16 -4 22 0 13 34 -10 38 -14 3
-17 0 -12 -13z"/>
<path d="M530 616 c0 -25 12 -46 26 -46 17 0 18 32 2 48 -16 16 -28 15 -28 -2z"/>
<path d="M590 381 c0 -10 -11 -35 -25 -55 -30 -45 -31 -56 -4 -56 20 0 20 -1
3 -30 -21 -35 -13 -47 21 -32 35 16 65 15 65 -2 0 -9 -7 -12 -20 -9 -12 3 -20
0 -20 -7 0 -6 9 -14 20 -17 11 -3 20 -9 20 -14 0 -5 5 -9 10 -9 6 0 10 11 10
24 0 13 6 27 13 30 10 5 10 7 0 12 -18 8 -16 34 2 34 19 0 21 -66 3 -73 -9 -4
-10 -8 -3 -14 6 -4 16 -20 22 -35 15 -32 64 -45 126 -32 31 7 43 14 45 29 3
25 -17 56 -25 37 -10 -26 -36 -42 -66 -42 -61 0 -62 3 -59 153 3 123 22 112
22 -13 0 -112 17 -138 22 -32 3 59 6 67 23 70 23 3 61 64 51 81 -9 13 -56 15
-56 2 0 -6 4 -12 9 -15 13 -9 1 -46 -15 -46 -10 0 -12 8 -7 31 6 30 5 30 -33
27 -36 -3 -39 -6 -42 -35 -2 -18 -8 -33 -14 -33 -6 0 -8 12 -4 30 5 26 2 30
-15 30 -15 0 -19 -5 -15 -16 3 -9 6 -27 6 -40 0 -17 6 -24 20 -24 31 0 24 -16
-13 -27 -48 -15 -63 -6 -36 23 12 13 19 30 16 38 -9 23 -22 20 -35 -9 -6 -14
-16 -25 -22 -25 -15 0 -12 10 15 46 29 38 31 50 9 58 -23 9 -24 8 -24 -13z"/>
<path d="M574 175 c3 -9 6 -19 6 -21 0 -2 7 -4 16 -4 22 0 13 34 -10 38 -14 3
-17 0 -12 -13z"/>
<path d="M530 166 c0 -25 12 -46 26 -46 17 0 18 32 2 48 -16 16 -28 15 -28 -2z"/>
</g>
</svg>
