<?xml version="1.0" standalone="no"?>
<!DOCTYPE svg PUBLIC "-//W3C//DTD SVG 20010904//EN"
 "http://www.w3.org/TR/2001/REC-SVG-20010904/DTD/svg10.dtd">
<svg version="1.0" xmlns="http://www.w3.org/2000/svg"
 width="95.000000pt" height="725.000000pt" viewBox="0 0 95.000000 725.000000"
 preserveAspectRatio="xMidYMid meet">
<metadata>
Created by potrace 1.16, written by Peter Selinger 2001-2019
</metadata>
<g transform="translate(0.000000,725.000000) scale(0.100000,-0.100000)"
fill="#000000" stroke="none">
<path d="M247 7144 c-22 -30 -17 -40 13 -24 12 6 24 9 27 6 3 -3 -2 -8 -11
-12 -24 -9 -19 -24 9 -24 16 0 25 6 25 15 0 9 7 18 15 21 24 9 17 24 -10 24
-14 0 -25 5 -25 10 0 19 -25 9 -43 -16z"/>
<path d="M125 7087 c-40 -69 -42 -81 -16 -74 24 6 27 -5 6 -23 -14 -12 -21
-50 -10 -50 4 0 19 7 35 15 16 8 36 12 44 9 11 -4 16 0 16 15 0 22 -24 29 -35
11 -3 -5 -11 -10 -18 -10 -6 0 3 15 21 33 34 35 42 67 18 67 -8 0 -18 -9 -21
-20 -3 -11 -13 -20 -21 -20 -16 0 -14 6 18 52 18 25 17 48 0 48 -4 0 -20 -24
-37 -53z"/>
<path d="M575 7087 c-41 -71 -43 -81 -14 -74 13 4 30 7 37 7 17 0 15 18 -3 22
-13 2 -11 10 10 41 23 33 26 57 7 57 -4 0 -20 -24 -37 -53z"/>
<path d="M320 7100 c0 -16 -7 -20 -35 -20 -19 0 -35 5 -35 10 0 6 -6 10 -13
10 -9 0 -14 -19 -15 -60 -3 -61 3 -70 27 -47 11 10 12 8 7 -10 -6 -20 -4 -21
31 -18 20 1 39 8 41 14 2 6 17 11 33 11 17 0 32 6 36 15 8 23 -2 28 -25 14
-12 -7 -27 -9 -38 -4 -18 8 -17 9 4 12 25 5 31 23 7 23 -8 0 -15 5 -15 10 0 6
4 10 9 10 15 0 22 33 9 42 -21 13 -28 9 -28 -12z m-18 -70 c3 -17 1 -33 -4
-36 -4 -3 -8 -1 -8 5 0 6 -11 13 -25 17 -40 10 -32 44 11 44 17 0 23 -7 26
-30z"/>
<path d="M250 7040 c0 -5 9 -10 20 -10 11 0 20 5 20 10 0 6 -9 10 -20 10 -11
0 -20 -4 -20 -10z"/>
<path d="M172 6933 c5 -25 28 -28 28 -4 0 12 -6 21 -16 21 -9 0 -14 -7 -12
-17z"/>
<path d="M132 6924 c1 -9 9 -19 16 -22 9 -3 13 2 10 14 -1 9 -9 19 -16 22 -9
3 -13 -2 -10 -14z"/>
<path d="M92 6899 c1 -12 9 -24 16 -27 9 -3 13 3 10 19 -1 12 -9 24 -16 27 -9
3 -13 -3 -10 -19z"/>
<path d="M247 6694 c-22 -30 -17 -40 13 -24 12 6 24 9 27 6 3 -3 -2 -8 -11
-12 -24 -9 -19 -24 9 -24 16 0 25 6 25 15 0 9 7 18 15 21 24 9 17 24 -10 24
-14 0 -25 5 -25 10 0 19 -25 9 -43 -16z"/>
<path d="M125 6637 c-40 -69 -42 -81 -16 -74 24 6 27 -5 6 -23 -14 -12 -21
-50 -10 -50 4 0 19 7 35 15 16 8 36 12 44 9 11 -4 16 0 16 15 0 22 -24 29 -35
11 -3 -5 -11 -10 -18 -10 -6 0 3 15 21 33 34 35 42 67 18 67 -8 0 -18 -9 -21
-20 -3 -11 -13 -20 -21 -20 -16 0 -14 6 18 52 18 25 17 48 0 48 -4 0 -20 -24
-37 -53z"/>
<path d="M575 6637 c-40 -69 -42 -81 -16 -74 24 6 27 -5 6 -23 -14 -11 -22
-50 -10 -50 2 0 20 8 40 17 39 18 48 38 13 28 -20 -6 -19 -3 10 27 33 36 42
68 18 68 -8 0 -18 -9 -21 -20 -3 -11 -13 -20 -21 -20 -16 0 -14 6 18 52 18 25
17 48 0 48 -4 0 -20 -24 -37 -53z"/>
<path d="M320 6650 c0 -16 -7 -20 -35 -20 -19 0 -35 5 -35 10 0 6 -6 10 -13
10 -9 0 -14 -19 -15 -60 -3 -61 3 -70 27 -47 11 10 12 8 7 -10 -6 -20 -4 -21
31 -18 20 1 39 8 41 14 2 6 17 11 33 11 17 0 32 6 36 15 8 23 -2 28 -25 14
-12 -7 -27 -9 -38 -4 -18 8 -17 9 4 12 25 5 31 23 7 23 -8 0 -15 5 -15 10 0 6
4 10 9 10 15 0 22 33 9 42 -21 13 -28 9 -28 -12z m-18 -70 c3 -17 1 -33 -4
-36 -4 -3 -8 -1 -8 5 0 6 -11 13 -25 17 -40 10 -32 44 11 44 17 0 23 -7 26
-30z"/>
<path d="M250 6590 c0 -5 9 -10 20 -10 11 0 20 5 20 10 0 6 -9 10 -20 10 -11
0 -20 -4 -20 -10z"/>
<path d="M172 6483 c5 -25 28 -28 28 -4 0 12 -6 21 -16 21 -9 0 -14 -7 -12
-17z"/>
<path d="M224 6484 c3 -9 6 -22 6 -30 0 -8 5 -14 10 -14 6 0 10 14 10 30 0 21
-5 30 -16 30 -11 0 -14 -5 -10 -16z"/>
<path d="M132 6474 c1 -9 9 -19 16 -22 9 -3 13 2 10 14 -1 9 -9 19 -16 22 -9
3 -13 -2 -10 -14z"/>
<path d="M92 6449 c1 -12 9 -24 16 -27 9 -3 13 3 10 19 -1 12 -9 24 -16 27 -9
3 -13 -3 -10 -19z"/>
<path d="M247 6244 c-22 -30 -17 -40 13 -24 12 6 24 9 27 6 3 -3 -2 -8 -11
-12 -24 -9 -19 -24 9 -24 16 0 25 6 25 15 0 9 7 18 15 21 24 9 17 24 -10 24
-14 0 -25 5 -25 10 0 19 -25 9 -43 -16z"/>
<path d="M125 6187 c-40 -69 -42 -81 -16 -74 24 6 27 -5 6 -23 -14 -12 -21
-50 -10 -50 4 0 19 7 35 15 16 8 36 12 44 9 11 -4 16 0 16 15 0 22 -24 29 -35
11 -3 -5 -11 -10 -18 -10 -6 0 3 15 21 33 34 35 42 67 18 67 -8 0 -18 -9 -21
-20 -3 -11 -13 -20 -21 -20 -16 0 -14 6 18 52 18 25 17 48 0 48 -4 0 -20 -24
-37 -53z"/>
<path d="M575 6187 c-40 -69 -42 -81 -16 -74 24 6 27 -5 6 -23 -14 -12 -21
-50 -10 -50 4 0 19 7 35 15 16 8 36 12 44 9 11 -4 16 0 16 15 0 22 -24 29 -35
11 -3 -5 -11 -10 -18 -10 -6 0 3 15 21 33 34 35 42 67 18 67 -8 0 -18 -9 -21
-20 -3 -11 -13 -20 -21 -20 -16 0 -14 6 18 52 18 25 17 48 0 48 -4 0 -20 -24
-37 -53z"/>
<path d="M320 6200 c0 -16 -7 -20 -35 -20 -19 0 -35 5 -35 10 0 6 -6 10 -13
10 -9 0 -14 -19 -15 -60 -3 -61 3 -70 27 -47 11 10 12 8 6 -11 -6 -21 -4 -23
14 -17 16 5 20 3 15 -9 -5 -12 0 -16 20 -16 16 0 26 -6 26 -15 0 -19 14 -19
30 0 16 19 4 35 -26 35 -23 0 -24 2 -10 15 8 8 26 15 41 15 14 0 28 7 32 15 8
23 -2 28 -25 14 -12 -7 -27 -9 -38 -4 -18 8 -17 9 4 12 25 5 31 23 7 23 -8 0
-15 5 -15 10 0 6 4 10 9 10 15 0 22 33 9 42 -21 13 -28 9 -28 -12z m-18 -70
c3 -17 1 -33 -4 -36 -4 -3 -8 -1 -8 5 0 6 -11 13 -25 17 -40 10 -32 44 11 44
17 0 23 -7 26 -30z"/>
<path d="M250 6140 c0 -5 9 -10 20 -10 11 0 20 5 20 10 0 6 -9 10 -20 10 -11
0 -20 -4 -20 -10z"/>
<path d="M172 6033 c5 -25 28 -28 28 -4 0 12 -6 21 -16 21 -9 0 -14 -7 -12
-17z"/>
<path d="M224 6034 c3 -9 6 -22 6 -30 0 -8 5 -14 10 -14 6 0 10 9 10 20 0 11
5 20 10 20 6 0 10 5 10 10 0 6 -12 10 -26 10 -20 0 -25 -4 -20 -16z"/>
<path d="M132 6024 c1 -9 9 -19 16 -22 9 -3 13 2 10 14 -1 9 -9 19 -16 22 -9
3 -13 -2 -10 -14z"/>
<path d="M92 5999 c1 -12 9 -24 16 -27 9 -3 13 3 10 19 -1 12 -9 24 -16 27 -9
3 -13 -3 -10 -19z"/>
<path d="M247 5794 c-22 -30 -17 -40 13 -24 12 6 24 9 27 6 3 -3 -2 -8 -11
-12 -24 -9 -19 -24 9 -24 16 0 25 6 25 15 0 9 7 18 15 21 24 9 17 24 -10 24
-14 0 -25 5 -25 10 0 19 -25 9 -43 -16z"/>
<path d="M125 5737 c-40 -69 -42 -81 -16 -74 24 6 27 -5 6 -23 -14 -12 -21
-50 -10 -50 4 0 19 7 35 15 16 8 36 12 44 9 11 -4 16 0 16 15 0 22 -24 29 -35
11 -3 -5 -11 -10 -18 -10 -6 0 3 15 21 33 34 35 42 67 18 67 -8 0 -18 -9 -21
-20 -3 -11 -13 -20 -21 -20 -16 0 -14 6 18 52 18 25 17 48 0 48 -4 0 -20 -24
-37 -53z"/>
<path d="M575 5737 c-40 -69 -42 -81 -16 -74 24 6 27 -5 6 -23 -14 -12 -21
-50 -10 -50 4 0 19 7 35 15 16 8 36 12 44 9 11 -4 16 0 16 15 0 22 -24 29 -35
11 -3 -5 -11 -10 -18 -10 -6 0 3 15 21 33 34 35 42 67 18 67 -8 0 -18 -9 -21
-20 -3 -11 -13 -20 -21 -20 -16 0 -14 6 18 52 18 25 17 48 0 48 -4 0 -20 -24
-37 -53z"/>
<path d="M320 5750 c0 -16 -7 -20 -35 -20 -19 0 -35 5 -35 10 0 6 -6 10 -13
10 -9 0 -14 -19 -15 -60 -3 -61 3 -70 27 -47 11 10 12 8 6 -11 -6 -21 -4 -23
14 -17 16 5 20 3 15 -9 -5 -12 0 -16 20 -16 14 0 26 -4 26 -10 0 -5 -11 -10
-25 -10 -14 0 -25 -4 -25 -10 0 -20 65 -11 78 10 16 26 8 40 -24 40 -23 0 -24
2 -10 15 8 8 26 15 41 15 14 0 28 7 32 15 8 23 -2 28 -25 14 -12 -7 -27 -9
-38 -4 -18 8 -17 9 4 12 25 5 31 23 7 23 -8 0 -15 5 -15 10 0 6 4 10 9 10 15
0 22 33 9 42 -21 13 -28 9 -28 -12z m-18 -70 c3 -17 1 -33 -4 -36 -4 -3 -8 -1
-8 5 0 6 -11 13 -25 17 -40 10 -32 44 11 44 17 0 23 -7 26 -30z"/>
<path d="M250 5690 c0 -5 9 -10 20 -10 11 0 20 5 20 10 0 6 -9 10 -20 10 -11
0 -20 -4 -20 -10z"/>
<path d="M172 5583 c5 -25 28 -28 28 -4 0 12 -6 21 -16 21 -9 0 -14 -7 -12
-17z"/>
<path d="M224 5584 c3 -9 6 -22 6 -30 0 -8 7 -14 16 -14 11 0 14 6 9 20 -4 11
-2 20 4 20 6 0 11 5 11 10 0 6 -12 10 -26 10 -20 0 -25 -4 -20 -16z"/>
<path d="M132 5574 c1 -9 9 -19 16 -22 9 -3 13 2 10 14 -1 9 -9 19 -16 22 -9
3 -13 -2 -10 -14z"/>
<path d="M92 5549 c1 -12 9 -24 16 -27 9 -3 13 3 10 19 -1 12 -9 24 -16 27 -9
3 -13 -3 -10 -19z"/>
<path d="M542 5549 c1 -12 9 -24 16 -27 9 -3 13 3 10 19 -1 12 -9 24 -16 27
-9 3 -13 -3 -10 -19z"/>
<path d="M247 5344 c-22 -30 -17 -40 13 -24 12 6 24 9 27 6 3 -3 -2 -8 -11
-12 -24 -9 -19 -24 9 -24 16 0 25 6 25 15 0 9 7 18 15 21 24 9 17 24 -10 24
-14 0 -25 5 -25 10 0 19 -25 9 -43 -16z"/>
<path d="M125 5287 c-40 -69 -42 -81 -16 -74 24 6 27 -5 6 -23 -14 -12 -21
-50 -10 -50 4 0 19 7 35 15 16 8 36 12 44 9 11 -4 16 0 16 15 0 22 -24 29 -35
11 -3 -5 -11 -10 -18 -10 -6 0 3 15 21 33 34 35 42 67 18 67 -8 0 -18 -9 -21
-20 -3 -11 -13 -20 -21 -20 -16 0 -14 6 18 52 18 25 17 48 0 48 -4 0 -20 -24
-37 -53z"/>
<path d="M575 5287 c-40 -69 -42 -81 -16 -74 24 6 27 -5 6 -23 -14 -12 -21
-50 -10 -50 4 0 19 7 35 15 16 8 36 12 44 9 11 -4 16 0 16 15 0 22 -24 29 -35
11 -3 -5 -11 -10 -18 -10 -6 0 3 15 21 33 34 35 42 67 18 67 -8 0 -18 -9 -21
-20 -3 -11 -13 -20 -21 -20 -16 0 -14 6 18 52 18 25 17 48 0 48 -4 0 -20 -24
-37 -53z"/>
<path d="M320 5300 c0 -16 -7 -20 -35 -20 -19 0 -35 5 -35 10 0 6 -6 10 -13
10 -9 0 -14 -19 -15 -60 -3 -61 3 -70 27 -47 11 10 12 8 6 -11 -6 -21 -4 -23
15 -17 15 5 20 4 16 -4 -4 -6 -21 -11 -38 -11 -23 0 -29 -4 -24 -16 3 -9 6
-22 6 -30 0 -8 7 -14 16 -14 11 0 14 6 9 20 -4 11 -2 20 4 20 20 0 11 -41 -14
-65 -13 -14 -29 -25 -35 -25 -5 0 -10 -4 -10 -10 0 -18 28 -11 59 16 17 14 31
32 31 40 0 9 11 14 28 14 17 0 32 8 40 20 16 26 8 40 -24 40 -23 0 -24 2 -10
15 8 8 26 15 41 15 14 0 28 7 32 15 8 23 -2 28 -25 14 -12 -7 -27 -9 -38 -4
-18 8 -17 9 4 12 25 5 31 23 7 23 -8 0 -15 5 -15 10 0 6 4 10 9 10 15 0 22 33
9 42 -21 13 -28 9 -28 -12z m-18 -70 c3 -17 1 -33 -4 -36 -4 -3 -8 -1 -8 5 0
6 -11 13 -25 17 -40 10 -32 44 11 44 17 0 23 -7 26 -30z m28 -100 c0 -5 -7
-10 -15 -10 -8 0 -15 5 -15 10 0 6 7 10 15 10 8 0 15 -4 15 -10z"/>
<path d="M250 5240 c0 -5 9 -10 20 -10 11 0 20 5 20 10 0 6 -9 10 -20 10 -11
0 -20 -4 -20 -10z"/>
<path d="M172 5133 c5 -25 28 -28 28 -4 0 12 -6 21 -16 21 -9 0 -14 -7 -12
-17z"/>
<path d="M132 5124 c1 -9 9 -19 16 -22 9 -3 13 2 10 14 -1 9 -9 19 -16 22 -9
3 -13 -2 -10 -14z"/>
<path d="M582 5124 c1 -9 9 -19 16 -22 9 -3 13 2 10 14 -1 9 -9 19 -16 22 -9
3 -13 -2 -10 -14z"/>
<path d="M92 5099 c1 -12 9 -24 16 -27 9 -3 13 3 10 19 -1 12 -9 24 -16 27 -9
3 -13 -3 -10 -19z"/>
<path d="M542 5099 c1 -12 9 -24 16 -27 9 -3 13 3 10 19 -1 12 -9 24 -16 27
-9 3 -13 -3 -10 -19z"/>
<path d="M247 4894 c-22 -30 -17 -40 13 -24 12 6 24 9 27 6 3 -3 -2 -8 -11
-12 -24 -9 -19 -24 9 -24 16 0 25 6 25 15 0 9 7 18 15 21 24 9 17 24 -10 24
-14 0 -25 5 -25 10 0 19 -25 9 -43 -16z"/>
<path d="M125 4837 c-40 -69 -42 -81 -16 -74 24 6 27 -5 6 -23 -14 -12 -21
-50 -10 -50 4 0 19 7 35 15 16 8 36 12 44 9 11 -4 16 0 16 15 0 22 -24 29 -35
11 -3 -5 -11 -10 -18 -10 -6 0 3 15 21 33 34 35 42 67 18 67 -8 0 -18 -9 -21
-20 -3 -11 -13 -20 -21 -20 -16 0 -14 6 18 52 18 25 17 48 0 48 -4 0 -20 -24
-37 -53z"/>
<path d="M575 4837 c-40 -69 -42 -81 -16 -74 24 6 27 -5 6 -23 -14 -12 -21
-50 -10 -50 4 0 19 7 35 15 16 8 36 12 44 9 11 -4 16 0 16 15 0 22 -24 29 -35
11 -3 -5 -11 -10 -18 -10 -6 0 3 15 21 33 34 35 42 67 18 67 -8 0 -18 -9 -21
-20 -3 -11 -13 -20 -21 -20 -16 0 -14 6 18 52 18 25 17 48 0 48 -4 0 -20 -24
-37 -53z"/>
<path d="M320 4850 c0 -16 -7 -20 -35 -20 -19 0 -35 5 -35 10 0 6 -6 10 -13
10 -9 0 -14 -19 -15 -60 -3 -61 3 -70 27 -47 11 10 12 8 6 -11 -6 -21 -4 -23
15 -17 15 5 20 4 16 -4 -4 -6 -21 -11 -38 -11 -23 0 -29 -4 -24 -16 3 -9 6
-22 6 -30 0 -8 7 -14 16 -14 11 0 14 6 9 20 -4 11 -2 20 4 20 20 0 11 -41 -14
-65 -13 -14 -29 -25 -35 -25 -5 0 -10 -4 -10 -10 0 -30 74 15 90 54 7 17 9 14
9 -17 1 -31 6 -39 27 -47 26 -10 90 -4 99 9 6 11 -6 51 -16 51 -5 0 -9 -7 -9
-15 0 -16 -42 -30 -65 -21 -18 7 -20 56 -2 56 16 0 40 38 32 50 -4 6 -17 10
-31 10 -23 0 -24 2 -10 15 8 8 26 15 41 15 14 0 28 7 32 15 8 23 -2 28 -25 14
-12 -7 -27 -9 -38 -4 -18 8 -17 9 4 12 25 5 31 23 7 23 -8 0 -15 5 -15 10 0 6
4 10 9 10 15 0 22 33 9 42 -21 13 -28 9 -28 -12z m-18 -70 c3 -17 1 -33 -4
-36 -4 -3 -8 -1 -8 5 0 6 -11 13 -25 17 -40 10 -32 44 11 44 17 0 23 -7 26
-30z m28 -100 c0 -5 -7 -10 -15 -10 -8 0 -15 5 -15 10 0 6 7 10 15 10 8 0 15
-4 15 -10z"/>
<path d="M250 4790 c0 -5 9 -10 20 -10 11 0 20 5 20 10 0 6 -9 10 -20 10 -11
0 -20 -4 -20 -10z"/>
<path d="M172 4683 c5 -25 28 -28 28 -4 0 12 -6 21 -16 21 -9 0 -14 -7 -12
-17z"/>
<path d="M622 4683 c5 -25 28 -28 28 -4 0 12 -6 21 -16 21 -9 0 -14 -7 -12
-17z"/>
<path d="M132 4674 c1 -9 9 -19 16 -22 9 -3 13 2 10 14 -1 9 -9 19 -16 22 -9
3 -13 -2 -10 -14z"/>
<path d="M582 4674 c1 -9 9 -19 16 -22 9 -3 13 2 10 14 -1 9 -9 19 -16 22 -9
3 -13 -2 -10 -14z"/>
<path d="M92 4649 c1 -12 9 -24 16 -27 9 -3 13 3 10 19 -1 12 -9 24 -16 27 -9
3 -13 -3 -10 -19z"/>
<path d="M542 4649 c1 -12 9 -24 16 -27 9 -3 13 3 10 19 -1 12 -9 24 -16 27
-9 3 -13 -3 -10 -19z"/>
<path d="M247 4444 c-22 -30 -17 -40 13 -24 12 6 24 9 27 6 3 -3 -2 -8 -11
-12 -24 -9 -19 -24 9 -24 16 0 25 6 25 15 0 9 7 18 15 21 24 9 17 24 -10 24
-14 0 -25 5 -25 10 0 19 -25 9 -43 -16z"/>
<path d="M697 4444 c-11 -14 -16 -28 -13 -31 9 -9 56 26 56 42 0 23 -23 17
-43 -11z"/>
<path d="M125 4387 c-40 -69 -42 -81 -16 -74 24 6 27 -5 6 -23 -14 -12 -21
-50 -10 -50 4 0 19 7 35 15 16 8 36 12 44 9 11 -4 16 0 16 15 0 22 -24 29 -35
11 -3 -5 -11 -10 -18 -10 -6 0 3 15 21 33 34 35 42 67 18 67 -8 0 -18 -9 -21
-20 -3 -11 -13 -20 -21 -20 -16 0 -14 6 18 52 18 25 17 48 0 48 -4 0 -20 -24
-37 -53z"/>
<path d="M575 4387 c-40 -69 -42 -81 -16 -74 24 6 27 -5 6 -23 -14 -12 -21
-50 -10 -50 4 0 19 7 35 15 16 8 36 12 44 9 11 -4 16 0 16 15 0 22 -24 29 -35
11 -3 -5 -11 -10 -18 -10 -6 0 3 15 21 33 34 35 42 67 18 67 -8 0 -18 -9 -21
-20 -3 -11 -13 -20 -21 -20 -16 0 -14 6 18 52 18 25 17 48 0 48 -4 0 -20 -24
-37 -53z"/>
<path d="M320 4400 c0 -16 -7 -20 -35 -20 -19 0 -35 5 -35 10 0 6 -6 10 -13
10 -9 0 -14 -19 -15 -60 -3 -61 3 -70 27 -47 11 10 12 8 6 -11 -6 -21 -4 -23
15 -17 15 5 20 4 16 -4 -4 -6 -21 -11 -38 -11 -23 0 -29 -4 -24 -16 3 -9 6
-22 6 -30 0 -8 7 -14 16 -14 11 0 14 6 9 20 -4 11 -2 20 4 20 20 0 11 -41 -14
-65 -13 -14 -29 -25 -35 -25 -5 0 -10 -4 -10 -10 0 -30 74 15 90 54 7 17 9 14
9 -17 1 -31 6 -39 27 -47 26 -10 90 -4 99 9 6 11 -6 51 -16 51 -5 0 -9 -7 -9
-15 0 -16 -42 -30 -65 -21 -18 7 -20 56 -2 56 16 0 40 38 32 50 -4 6 -17 10
-31 10 -23 0 -24 2 -10 15 8 8 26 15 41 15 14 0 28 7 32 15 8 23 -2 28 -25 14
-12 -7 -27 -9 -38 -4 -18 8 -17 9 4 12 25 5 31 23 7 23 -8 0 -15 5 -15 10 0 6
4 10 9 10 15 0 22 33 9 42 -21 13 -28 9 -28 -12z m-18 -70 c3 -17 1 -33 -4
-36 -4 -3 -8 -1 -8 5 0 6 -11 13 -25 17 -40 10 -32 44 11 44 17 0 23 -7 26
-30z m28 -100 c0 -5 -7 -10 -15 -10 -8 0 -15 5 -15 10 0 6 7 10 15 10 8 0 15
-4 15 -10z"/>
<path d="M250 4340 c0 -5 9 -10 20 -10 11 0 20 5 20 10 0 6 -9 10 -20 10 -11
0 -20 -4 -20 -10z"/>
<path d="M172 4233 c5 -25 28 -28 28 -4 0 12 -6 21 -16 21 -9 0 -14 -7 -12
-17z"/>
<path d="M622 4233 c5 -25 28 -28 28 -4 0 12 -6 21 -16 21 -9 0 -14 -7 -12
-17z"/>
<path d="M132 4224 c1 -9 9 -19 16 -22 9 -3 13 2 10 14 -1 9 -9 19 -16 22 -9
3 -13 -2 -10 -14z"/>
<path d="M582 4224 c1 -9 9 -19 16 -22 9 -3 13 2 10 14 -1 9 -9 19 -16 22 -9
3 -13 -2 -10 -14z"/>
<path d="M92 4199 c1 -12 9 -24 16 -27 9 -3 13 3 10 19 -1 12 -9 24 -16 27 -9
3 -13 -3 -10 -19z"/>
<path d="M542 4199 c1 -12 9 -24 16 -27 9 -3 13 3 10 19 -1 12 -9 24 -16 27
-9 3 -13 -3 -10 -19z"/>
<path d="M342 4174 c1 -9 9 -19 16 -22 9 -3 13 2 10 14 -1 9 -9 19 -16 22 -9
3 -13 -2 -10 -14z"/>
<path d="M697 3994 c-22 -30 -17 -40 11 -25 28 15 32 14 26 -4 -8 -20 6 -18
34 4 28 25 28 31 -3 31 -14 0 -25 5 -25 10 0 19 -25 9 -43 -16z"/>
<path d="M575 3937 c-40 -69 -42 -81 -16 -74 24 6 27 -5 6 -23 -14 -12 -21
-50 -10 -50 4 0 19 7 35 15 16 8 36 12 44 9 11 -4 16 0 16 15 0 22 -24 29 -35
11 -3 -5 -11 -10 -18 -10 -6 0 3 15 21 33 34 35 42 67 18 67 -8 0 -18 -9 -21
-20 -3 -11 -13 -20 -21 -20 -16 0 -14 6 18 52 18 25 17 48 0 48 -4 0 -20 -24
-37 -53z"/>
<path d="M622 3783 c5 -25 28 -28 28 -4 0 12 -6 21 -16 21 -9 0 -14 -7 -12
-17z"/>
<path d="M582 3774 c1 -9 9 -19 16 -22 9 -3 13 2 10 14 -1 9 -9 19 -16 22 -9
3 -13 -2 -10 -14z"/>
<path d="M542 3749 c1 -12 9 -24 16 -27 9 -3 13 3 10 19 -1 12 -9 24 -16 27
-9 3 -13 -3 -10 -19z"/>
<path d="M697 3544 c-22 -30 -17 -40 11 -25 28 15 32 14 26 -4 -8 -20 6 -18
34 4 28 25 28 31 -3 31 -14 0 -25 5 -25 10 0 19 -25 9 -43 -16z"/>
<path d="M575 3487 c-40 -69 -42 -81 -16 -74 24 6 27 -5 6 -23 -14 -12 -21
-50 -10 -50 4 0 19 7 35 15 16 8 36 12 44 9 11 -4 16 0 16 15 0 22 -24 29 -35
11 -3 -5 -11 -10 -18 -10 -6 0 3 15 21 33 34 35 42 67 18 67 -8 0 -18 -9 -21
-20 -3 -11 -13 -20 -21 -20 -16 0 -14 6 18 52 18 25 17 48 0 48 -4 0 -20 -24
-37 -53z"/>
<path d="M674 3484 c3 -9 6 -20 6 -25 0 -5 5 -9 10 -9 6 0 10 11 10 25 0 16
-6 25 -16 25 -11 0 -14 -5 -10 -16z"/>
<path d="M622 3333 c5 -25 28 -28 28 -4 0 12 -6 21 -16 21 -9 0 -14 -7 -12
-17z"/>
<path d="M582 3324 c1 -9 9 -19 16 -22 9 -3 13 2 10 14 -1 9 -9 19 -16 22 -9
3 -13 -2 -10 -14z"/>
<path d="M542 3299 c1 -12 9 -24 16 -27 9 -3 13 3 10 19 -1 12 -9 24 -16 27
-9 3 -13 -3 -10 -19z"/>
<path d="M697 3094 c-22 -30 -17 -40 13 -24 12 6 24 9 27 6 3 -3 -2 -8 -11
-12 -24 -9 -19 -24 9 -24 16 0 25 6 25 15 0 9 7 18 15 21 24 9 17 24 -10 24
-14 0 -25 5 -25 10 0 19 -25 9 -43 -16z"/>
<path d="M575 3037 c-40 -69 -42 -81 -16 -74 24 6 27 -5 6 -23 -14 -12 -21
-50 -10 -50 4 0 19 7 35 15 16 8 36 12 44 9 11 -4 16 0 16 15 0 22 -24 29 -35
11 -3 -5 -11 -10 -18 -10 -6 0 3 15 21 33 34 35 42 67 18 67 -8 0 -18 -9 -21
-20 -3 -11 -13 -20 -21 -20 -16 0 -14 6 18 52 18 25 17 48 0 48 -4 0 -20 -24
-37 -53z"/>
<path d="M770 3045 c0 -15 6 -25 14 -25 19 0 30 32 14 42 -21 13 -28 9 -28
-17z"/>
<path d="M674 3034 c3 -9 6 -20 6 -25 0 -5 5 -9 10 -9 6 0 10 11 10 25 0 16
-6 25 -16 25 -11 0 -14 -5 -10 -16z"/>
<path d="M622 2883 c5 -25 28 -28 28 -4 0 12 -6 21 -16 21 -9 0 -14 -7 -12
-17z"/>
<path d="M582 2874 c1 -9 9 -19 16 -22 9 -3 13 2 10 14 -1 9 -9 19 -16 22 -9
3 -13 -2 -10 -14z"/>
<path d="M542 2849 c1 -12 9 -24 16 -27 9 -3 13 3 10 19 -1 12 -9 24 -16 27
-9 3 -13 -3 -10 -19z"/>
<path d="M697 2644 c-22 -30 -17 -40 13 -24 12 6 24 9 27 6 3 -3 -2 -8 -11
-12 -24 -9 -19 -24 9 -24 16 0 25 6 25 15 0 9 7 18 15 21 24 9 17 24 -10 24
-14 0 -25 5 -25 10 0 19 -25 9 -43 -16z"/>
<path d="M575 2587 c-40 -69 -42 -81 -16 -74 24 6 27 -5 6 -23 -14 -12 -21
-50 -10 -50 4 0 19 7 35 15 16 8 36 12 44 9 11 -4 16 0 16 15 0 22 -24 29 -35
11 -3 -5 -11 -10 -18 -10 -6 0 3 15 21 33 34 35 42 67 18 67 -8 0 -18 -9 -21
-20 -3 -11 -13 -20 -21 -20 -16 0 -14 6 18 52 18 25 17 48 0 48 -4 0 -20 -24
-37 -53z"/>
<path d="M770 2600 c0 -16 -7 -20 -35 -20 -19 0 -35 5 -35 10 0 6 -7 10 -16
10 -11 0 -14 -5 -10 -16 3 -9 6 -19 6 -24 0 -8 41 -6 96 6 26 5 40 34 22 46
-21 13 -28 9 -28 -12z"/>
<path d="M622 2433 c5 -25 28 -28 28 -4 0 12 -6 21 -16 21 -9 0 -14 -7 -12
-17z"/>
<path d="M582 2424 c1 -9 9 -19 16 -22 9 -3 13 2 10 14 -1 9 -9 19 -16 22 -9
3 -13 -2 -10 -14z"/>
<path d="M542 2399 c1 -12 9 -24 16 -27 9 -3 13 3 10 19 -1 12 -9 24 -16 27
-9 3 -13 -3 -10 -19z"/>
<path d="M697 2194 c-22 -30 -17 -40 13 -24 12 6 24 9 27 6 3 -3 -2 -8 -11
-12 -24 -9 -19 -24 9 -24 16 0 25 6 25 15 0 9 7 18 15 21 24 9 17 24 -10 24
-14 0 -25 5 -25 10 0 19 -25 9 -43 -16z"/>
<path d="M575 2137 c-40 -69 -42 -81 -16 -74 24 6 27 -5 6 -23 -14 -12 -21
-50 -10 -50 4 0 19 7 35 15 16 8 36 12 44 9 11 -4 16 0 16 15 0 22 -24 29 -35
11 -3 -5 -11 -10 -18 -10 -6 0 3 15 21 33 34 35 42 67 18 67 -8 0 -18 -9 -21
-20 -3 -11 -13 -20 -21 -20 -16 0 -14 6 18 52 18 25 17 48 0 48 -4 0 -20 -24
-37 -53z"/>
<path d="M770 2150 c0 -16 -7 -20 -35 -20 -19 0 -35 5 -35 10 0 6 -7 10 -16
10 -11 0 -14 -5 -10 -16 3 -9 6 -19 6 -24 0 -8 41 -6 96 6 26 5 40 34 22 46
-21 13 -28 9 -28 -12z"/>
<path d="M700 2090 c0 -5 9 -10 20 -10 11 0 20 5 20 10 0 6 -9 10 -20 10 -11
0 -20 -4 -20 -10z"/>
<path d="M622 1983 c5 -25 28 -28 28 -4 0 12 -6 21 -16 21 -9 0 -14 -7 -12
-17z"/>
<path d="M582 1974 c1 -9 9 -19 16 -22 9 -3 13 2 10 14 -1 9 -9 19 -16 22 -9
3 -13 -2 -10 -14z"/>
<path d="M542 1949 c1 -12 9 -24 16 -27 9 -3 13 3 10 19 -1 12 -9 24 -16 27
-9 3 -13 -3 -10 -19z"/>
<path d="M697 1744 c-22 -30 -17 -40 13 -24 12 6 24 9 27 6 3 -3 -2 -8 -11
-12 -24 -9 -19 -24 9 -24 16 0 25 6 25 15 0 9 7 18 15 21 24 9 17 24 -10 24
-14 0 -25 5 -25 10 0 19 -25 9 -43 -16z"/>
<path d="M575 1687 c-40 -69 -42 -81 -16 -74 24 6 27 -5 6 -23 -14 -12 -21
-50 -10 -50 4 0 19 7 35 15 16 8 36 12 44 9 11 -4 16 0 16 15 0 22 -24 29 -35
11 -3 -5 -11 -10 -18 -10 -6 0 3 15 21 33 34 35 42 67 18 67 -8 0 -18 -9 -21
-20 -3 -11 -13 -20 -21 -20 -16 0 -14 6 18 52 18 25 17 48 0 48 -4 0 -20 -24
-37 -53z"/>
<path d="M770 1700 c0 -16 -7 -20 -35 -20 -19 0 -35 5 -35 10 0 6 -6 10 -13
10 -9 0 -14 -19 -15 -60 -3 -62 1 -68 31 -46 21 16 22 26 1 26 -30 0 -11 35
21 38 54 5 73 12 79 29 4 9 1 20 -6 25 -21 13 -28 9 -28 -12z"/>
<path d="M700 1640 c0 -5 9 -10 20 -10 11 0 20 5 20 10 0 6 -9 10 -20 10 -11
0 -20 -4 -20 -10z"/>
<path d="M622 1533 c5 -25 28 -28 28 -4 0 12 -6 21 -16 21 -9 0 -14 -7 -12
-17z"/>
<path d="M582 1524 c1 -9 9 -19 16 -22 9 -3 13 2 10 14 -1 9 -9 19 -16 22 -9
3 -13 -2 -10 -14z"/>
<path d="M542 1499 c1 -12 9 -24 16 -27 9 -3 13 3 10 19 -1 12 -9 24 -16 27
-9 3 -13 -3 -10 -19z"/>
<path d="M697 1294 c-22 -30 -17 -40 13 -24 12 6 24 9 27 6 3 -3 -2 -8 -11
-12 -24 -9 -19 -24 9 -24 16 0 25 6 25 15 0 9 7 18 15 21 24 9 17 24 -10 24
-14 0 -25 5 -25 10 0 19 -25 9 -43 -16z"/>
<path d="M575 1237 c-40 -69 -42 -81 -16 -74 24 6 27 -5 6 -23 -14 -12 -21
-50 -10 -50 4 0 19 7 35 15 16 8 36 12 44 9 11 -4 16 0 16 15 0 22 -24 29 -35
11 -3 -5 -11 -10 -18 -10 -6 0 3 15 21 33 34 35 42 67 18 67 -8 0 -18 -9 -21
-20 -3 -11 -13 -20 -21 -20 -16 0 -14 6 18 52 18 25 17 48 0 48 -4 0 -20 -24
-37 -53z"/>
<path d="M770 1250 c0 -16 -7 -20 -35 -20 -19 0 -35 5 -35 10 0 6 -6 10 -13
10 -9 0 -14 -19 -15 -60 -3 -62 1 -68 31 -46 21 16 22 26 1 26 -30 0 -11 35
21 38 54 5 73 12 79 29 4 9 1 20 -6 25 -21 13 -28 9 -28 -12z"/>
<path d="M700 1190 c0 -5 9 -10 20 -10 11 0 20 5 20 10 0 6 -9 10 -20 10 -11
0 -20 -4 -20 -10z"/>
<path d="M760 1190 c0 -5 11 -10 25 -10 14 0 25 5 25 10 0 6 -11 10 -25 10
-14 0 -25 -4 -25 -10z"/>
<path d="M622 1083 c5 -25 28 -28 28 -4 0 12 -6 21 -16 21 -9 0 -14 -7 -12
-17z"/>
<path d="M582 1074 c1 -9 9 -19 16 -22 9 -3 13 2 10 14 -1 9 -9 19 -16 22 -9
3 -13 -2 -10 -14z"/>
<path d="M542 1049 c1 -12 9 -24 16 -27 9 -3 13 3 10 19 -1 12 -9 24 -16 27
-9 3 -13 -3 -10 -19z"/>
<path d="M697 844 c-22 -30 -17 -40 13 -24 12 6 24 9 27 6 3 -3 -2 -8 -11 -12
-24 -9 -19 -24 9 -24 16 0 25 6 25 15 0 9 7 18 15 21 24 9 17 24 -10 24 -14 0
-25 5 -25 10 0 19 -25 9 -43 -16z"/>
<path d="M575 787 c-40 -69 -42 -81 -16 -74 24 6 27 -5 6 -23 -14 -12 -21 -50
-10 -50 4 0 19 7 35 15 16 8 36 12 44 9 11 -4 16 0 16 15 0 22 -24 29 -35 11
-3 -5 -11 -10 -18 -10 -6 0 3 15 21 33 34 35 42 67 18 67 -8 0 -18 -9 -21 -20
-3 -11 -13 -20 -21 -20 -16 0 -14 6 18 52 18 25 17 48 0 48 -4 0 -20 -24 -37
-53z"/>
<path d="M770 800 c0 -16 -7 -20 -35 -20 -19 0 -35 5 -35 10 0 6 -6 10 -13 10
-9 0 -14 -19 -15 -60 -3 -62 1 -68 31 -46 21 16 22 26 1 26 -28 0 -11 35 19
38 23 3 27 0 27 -20 0 -13 5 -29 12 -36 18 -18 77 -15 85 3 8 23 -2 28 -25 14
-12 -7 -27 -9 -38 -4 -18 8 -17 9 4 12 25 5 31 23 7 23 -8 0 -15 5 -15 10 0 6
4 10 9 10 15 0 22 33 9 42 -21 13 -28 9 -28 -12z"/>
<path d="M700 740 c0 -5 9 -10 20 -10 11 0 20 5 20 10 0 6 -9 10 -20 10 -11 0
-20 -4 -20 -10z"/>
<path d="M622 633 c5 -25 28 -28 28 -4 0 12 -6 21 -16 21 -9 0 -14 -7 -12 -17z"/>
<path d="M582 624 c1 -9 9 -19 16 -22 9 -3 13 2 10 14 -1 9 -9 19 -16 22 -9 3
-13 -2 -10 -14z"/>
<path d="M542 599 c1 -12 9 -24 16 -27 9 -3 13 3 10 19 -1 12 -9 24 -16 27 -9
3 -13 -3 -10 -19z"/>
<path d="M697 394 c-22 -30 -17 -40 13 -24 12 6 24 9 27 6 3 -3 -2 -8 -11 -12
-24 -9 -19 -24 9 -24 16 0 25 6 25 15 0 9 7 18 15 21 24 9 17 24 -10 24 -14 0
-25 5 -25 10 0 19 -25 9 -43 -16z"/>
<path d="M575 337 c-40 -69 -42 -81 -16 -74 24 6 27 -5 6 -23 -14 -12 -21 -50
-10 -50 4 0 19 7 35 15 16 8 36 12 44 9 11 -4 16 0 16 15 0 22 -24 29 -35 11
-3 -6 -11 -10 -18 -10 -6 0 3 15 21 33 34 35 42 67 18 67 -8 0 -18 -9 -21 -20
-3 -11 -13 -20 -21 -20 -16 0 -14 6 18 52 18 25 17 48 0 48 -4 0 -20 -24 -37
-53z"/>
<path d="M770 350 c0 -16 -7 -20 -35 -20 -19 0 -35 5 -35 10 0 6 -6 10 -13 10
-9 0 -14 -19 -15 -60 -3 -61 3 -70 27 -47 11 10 12 8 6 -10 -7 -25 4 -30 23
-11 19 19 14 37 -14 44 -34 9 -28 38 9 42 23 3 27 0 27 -20 0 -13 5 -29 12
-36 18 -18 77 -15 85 3 8 23 -2 28 -25 14 -12 -7 -27 -9 -38 -4 -18 8 -17 9 4
12 25 5 31 23 7 23 -8 0 -15 5 -15 10 0 6 4 10 9 10 15 0 22 33 9 42 -21 13
-28 9 -28 -12z"/>
<path d="M700 290 c0 -5 9 -10 20 -10 11 0 20 5 20 10 0 6 -9 10 -20 10 -11 0
-20 -4 -20 -10z"/>
<path d="M622 183 c5 -25 28 -28 28 -4 0 12 -6 21 -16 21 -9 0 -14 -7 -12 -17z"/>
<path d="M582 174 c1 -9 9 -19 16 -22 9 -3 13 2 10 14 -1 9 -9 19 -16 22 -9 3
-13 -2 -10 -14z"/>
<path d="M542 149 c1 -12 9 -24 16 -27 9 -3 13 3 10 19 -1 12 -9 24 -16 27 -9
3 -13 -3 -10 -19z"/>
</g>
</svg>
