<?xml version="1.0" standalone="no"?>
<!DOCTYPE svg PUBLIC "-//W3C//DTD SVG 20010904//EN"
 "http://www.w3.org/TR/2001/REC-SVG-20010904/DTD/svg10.dtd">
<svg version="1.0" xmlns="http://www.w3.org/2000/svg"
 width="95.000000pt" height="725.000000pt" viewBox="0 0 95.000000 725.000000"
 preserveAspectRatio="xMidYMid meet">
<metadata>
Created by potrace 1.16, written by Peter Selinger 2001-2019
</metadata>
<g transform="translate(0.000000,725.000000) scale(0.100000,-0.100000)"
fill="#000000" stroke="none">
<path d="M255 7163 c-16 -2 -50 -6 -73 -9 l-44 -5 7 -47 c5 -41 3 -53 -20 -85
-26 -40 -25 -63 3 -52 14 5 14 3 -1 -13 -20 -22 -22 -42 -4 -42 19 0 42 18 34
26 -4 4 7 22 24 40 20 20 29 39 26 48 -9 22 -21 20 -32 -6 -6 -12 -16 -24 -24
-26 -10 -3 -7 5 7 26 12 17 19 37 16 46 -5 13 2 16 39 16 l46 0 -10 -29 c-6
-17 -17 -35 -25 -42 -19 -16 -18 -33 2 -25 15 6 16 -2 10 -80 -6 -69 -5 -85 6
-82 7 3 14 23 16 45 3 37 6 41 34 47 17 3 43 6 59 6 16 0 29 5 29 11 0 8 -18
10 -60 6 -71 -8 -82 9 -12 18 61 8 72 12 72 25 0 7 -11 9 -30 6 -16 -3 -44 -9
-61 -12 -24 -5 -30 -3 -27 7 3 8 18 15 34 17 61 5 94 13 94 22 0 6 -8 10 -19
10 -10 0 -24 7 -31 15 -13 16 -40 21 -40 7 0 -4 5 -13 11 -19 7 -7 2 -12 -19
-15 -29 -4 -29 -3 -16 17 8 12 12 30 8 39 -5 14 -2 16 18 11 21 -5 29 -1 47
31 31 52 14 60 -94 47z m58 -19 c11 -11 -5 -34 -23 -34 -13 0 -17 5 -13 20 5
19 23 26 36 14z m-109 -20 c9 -23 8 -24 -14 -24 -19 0 -27 20 -13 33 11 11 20
8 27 -9z m46 -4 c0 -11 -4 -20 -10 -20 -5 0 -10 9 -10 20 0 11 5 20 10 20 6 0
10 -9 10 -20z"/>
<path d="M590 7133 c0 -29 12 -63 21 -63 10 0 12 41 3 64 -8 21 -24 20 -24 -1z"/>
<path d="M176 6955 c-9 -24 -8 -25 15 -25 14 0 19 5 17 17 -4 23 -24 27 -32 8z"/>
<path d="M180 6913 c0 -5 4 -15 10 -23 11 -18 25 -7 17 15 -6 15 -27 21 -27 8z"/>
<path d="M142 6888 c3 -7 13 -15 22 -16 12 -3 17 1 14 10 -3 7 -13 15 -22 16
-12 3 -17 -1 -14 -10z"/>
<path d="M90 6885 c0 -14 21 -45 31 -45 18 0 5 45 -13 48 -10 2 -18 1 -18 -3z"/>
<path d="M255 6713 c-16 -2 -50 -6 -73 -9 l-44 -5 7 -47 c5 -41 3 -53 -20 -85
-26 -40 -25 -63 3 -52 14 5 14 3 -1 -13 -20 -22 -22 -42 -4 -42 19 0 42 18 34
26 -4 4 7 22 24 40 20 20 29 39 26 48 -9 22 -21 20 -32 -6 -6 -12 -16 -24 -24
-26 -10 -3 -7 5 7 26 12 17 19 37 16 46 -5 13 2 16 39 16 l46 0 -10 -29 c-6
-17 -17 -35 -25 -42 -19 -16 -18 -33 2 -25 15 6 16 -2 10 -80 -6 -69 -5 -85 6
-82 7 3 14 23 16 45 3 34 7 42 28 46 18 3 24 0 24 -14 0 -11 7 -19 15 -19 8 0
15 9 15 20 0 13 7 20 20 20 11 0 20 5 20 10 0 6 -9 10 -20 10 -11 0 -20 4 -20
9 0 5 9 11 20 14 11 3 20 11 20 17 0 7 -8 10 -20 7 -11 -3 -20 -1 -20 4 0 5
11 11 25 15 29 7 34 24 6 24 -10 0 -24 7 -31 15 -13 16 -40 21 -40 7 0 -4 5
-13 11 -19 7 -7 2 -12 -19 -15 -29 -4 -29 -3 -16 17 8 12 12 30 8 39 -5 14 -2
16 18 11 21 -5 29 -1 47 31 31 52 14 60 -94 47z m58 -19 c11 -11 -5 -34 -23
-34 -13 0 -17 5 -13 20 5 19 23 26 36 14z m-109 -20 c9 -23 8 -24 -14 -24 -19
0 -27 20 -13 33 11 11 20 8 27 -9z m46 -4 c0 -11 -4 -20 -10 -20 -5 0 -10 9
-10 20 0 11 5 20 10 20 6 0 10 -9 10 -20z m60 -129 c0 -11 -39 -25 -47 -18 -3
3 -2 10 2 16 8 13 45 15 45 2z m-5 -50 c-8 -13 -45 -15 -45 -2 0 5 10 11 23
13 27 5 31 3 22 -11z"/>
<path d="M730 6711 c0 -5 9 -11 20 -14 17 -4 19 -9 10 -32 -13 -34 -13 -35 4
-35 8 0 24 16 36 37 17 29 18 38 8 44 -17 11 -78 11 -78 0z"/>
<path d="M613 6703 c-23 -4 -28 -20 -17 -60 9 -33 22 -28 26 10 3 30 6 32 46
35 23 2 42 7 42 13 0 9 -54 10 -97 2z"/>
<path d="M176 6505 c-9 -24 -8 -25 15 -25 14 0 19 5 17 17 -4 23 -24 27 -32 8z"/>
<path d="M180 6463 c0 -5 4 -15 10 -23 11 -18 25 -7 17 15 -6 15 -27 21 -27 8z"/>
<path d="M142 6438 c3 -7 13 -15 22 -16 12 -3 17 1 14 10 -3 7 -13 15 -22 16
-12 3 -17 -1 -14 -10z"/>
<path d="M90 6435 c0 -14 21 -45 31 -45 18 0 5 45 -13 48 -10 2 -18 1 -18 -3z"/>
<path d="M255 6263 c-16 -2 -50 -6 -73 -9 l-44 -5 7 -47 c5 -41 3 -53 -20 -85
-26 -40 -25 -63 3 -52 14 5 14 3 -1 -13 -20 -22 -22 -42 -4 -42 19 0 42 18 34
26 -4 4 7 22 24 40 20 20 29 39 26 48 -9 22 -21 20 -32 -6 -6 -12 -16 -24 -24
-26 -10 -3 -7 5 7 26 12 17 19 37 16 46 -5 13 2 16 39 16 l46 0 -10 -29 c-6
-17 -17 -35 -25 -42 -19 -16 -18 -33 2 -25 15 6 16 -2 10 -79 -5 -61 -4 -85 4
-85 7 0 14 9 17 19 5 21 20 26 101 37 28 3 52 11 52 16 0 6 -16 8 -35 6 -24
-3 -35 0 -35 9 0 7 9 13 20 13 11 0 20 5 20 10 0 6 -9 10 -20 10 -11 0 -20 4
-20 9 0 5 9 11 20 14 11 3 20 11 20 17 0 7 -8 10 -20 7 -11 -3 -20 -1 -20 4 0
5 11 11 25 15 29 7 34 24 6 24 -10 0 -24 7 -31 15 -13 16 -40 21 -40 7 0 -4 5
-13 11 -19 7 -7 2 -12 -19 -15 -29 -4 -29 -3 -16 17 8 12 12 30 8 39 -5 14 -2
16 18 11 21 -5 29 -1 47 31 31 52 14 60 -94 47z m58 -19 c11 -11 -5 -34 -23
-34 -13 0 -17 5 -13 20 5 19 23 26 36 14z m-109 -20 c9 -23 8 -24 -14 -24 -19
0 -27 20 -13 33 11 11 20 8 27 -9z m46 -4 c0 -11 -4 -20 -10 -20 -5 0 -10 9
-10 20 0 11 5 20 10 20 6 0 10 -9 10 -20z m60 -129 c0 -11 -39 -25 -47 -18 -3
3 -2 10 2 16 8 13 45 15 45 2z m-5 -50 c-8 -13 -45 -15 -45 -2 0 5 10 11 23
13 27 5 31 3 22 -11z m4 -45 c-2 -2 -14 -7 -26 -10 -17 -5 -23 -3 -23 8 0 15
42 27 49 13 1 -5 1 -10 0 -11z"/>
<path d="M730 6261 c0 -5 9 -11 20 -14 17 -4 19 -9 10 -32 -13 -34 -13 -35 4
-35 8 0 24 16 36 37 17 29 18 38 8 44 -17 11 -78 11 -78 0z"/>
<path d="M613 6253 c-23 -4 -28 -20 -17 -60 9 -33 22 -28 26 9 4 39 25 48 34
14 8 -33 24 -34 24 -1 0 16 6 25 15 25 8 0 15 5 15 10 0 10 -53 11 -97 3z"/>
<path d="M176 6055 c-9 -24 -8 -25 15 -25 14 0 19 5 17 17 -4 23 -24 27 -32 8z"/>
<path d="M180 6013 c0 -5 4 -15 10 -23 11 -18 25 -7 17 15 -6 15 -27 21 -27 8z"/>
<path d="M142 5988 c3 -7 13 -15 22 -16 12 -3 17 1 14 10 -3 7 -13 15 -22 16
-12 3 -17 -1 -14 -10z"/>
<path d="M90 5985 c0 -14 21 -45 31 -45 18 0 5 45 -13 48 -10 2 -18 1 -18 -3z"/>
<path d="M667 5809 c-38 -4 -71 -10 -74 -13 -8 -8 7 -76 17 -76 5 0 10 14 12
32 4 39 25 48 34 14 8 -33 24 -34 24 -1 0 14 5 25 10 25 6 0 10 -9 10 -20 0
-29 18 -25 26 6 4 16 12 24 23 21 17 -3 18 -8 6 -44 -11 -38 20 -28 45 14 32
55 16 60 -133 42z"/>
<path d="M667 5359 c-38 -4 -71 -10 -74 -13 -3 -3 -2 -21 1 -41 6 -28 11 -35
24 -31 9 3 50 7 90 8 71 2 72 2 93 36 31 53 14 59 -134 41z m96 -15 c11 -11
-5 -34 -23 -34 -13 0 -17 5 -13 20 5 19 23 26 36 14z m-109 -20 c9 -23 8 -24
-14 -24 -19 0 -27 20 -13 33 11 11 20 8 27 -9z m46 -4 c0 -11 -4 -20 -10 -20
-5 0 -10 9 -10 20 0 11 5 20 10 20 6 0 10 -9 10 -20z"/>
<path d="M705 4913 c-16 -2 -50 -6 -73 -9 l-44 -5 7 -47 c5 -41 3 -53 -20 -86
-15 -23 -23 -42 -17 -48 12 -12 44 1 39 16 -2 6 4 23 14 38 11 14 16 33 13 42
-5 13 3 16 52 18 33 0 69 0 80 -1 15 -1 28 10 43 35 31 52 13 60 -94 47z m58
-19 c11 -11 -5 -34 -23 -34 -13 0 -17 5 -13 20 5 19 23 26 36 14z m-109 -20
c9 -23 8 -24 -14 -24 -19 0 -27 20 -13 33 11 11 20 8 27 -9z m46 -4 c0 -11 -4
-20 -10 -20 -5 0 -10 9 -10 20 0 11 5 20 10 20 6 0 10 -9 10 -20z"/>
<path d="M705 4463 c-16 -2 -50 -6 -73 -9 l-44 -5 7 -47 c5 -41 3 -53 -20 -85
-26 -40 -25 -63 3 -52 14 5 14 3 -1 -13 -20 -22 -22 -42 -4 -42 19 0 42 18 34
26 -4 4 7 22 24 40 20 20 29 39 26 48 -9 22 -21 20 -32 -6 -6 -12 -16 -24 -24
-26 -10 -3 -7 5 7 26 12 17 19 37 16 46 -5 13 3 16 52 18 33 0 69 0 80 -1 15
-1 28 10 43 35 31 52 13 60 -94 47z m58 -19 c11 -11 -5 -34 -23 -34 -13 0 -17
5 -13 20 5 19 23 26 36 14z m-109 -20 c9 -23 8 -24 -14 -24 -19 0 -27 20 -13
33 11 11 20 8 27 -9z m46 -4 c0 -11 -4 -20 -10 -20 -5 0 -10 9 -10 20 0 11 5
20 10 20 6 0 10 -9 10 -20z"/>
<path d="M620 4240 c0 -5 5 -10 10 -10 6 0 10 5 10 10 0 6 -4 10 -10 10 -5 0
-10 -4 -10 -10z"/>
<path d="M705 4013 c-16 -2 -50 -6 -73 -9 l-44 -5 7 -47 c5 -41 3 -53 -20 -85
-26 -40 -25 -63 3 -52 14 5 14 3 -1 -13 -20 -22 -22 -42 -4 -42 19 0 42 18 34
26 -4 4 7 22 24 40 20 20 29 39 26 48 -9 22 -21 20 -32 -6 -6 -12 -16 -24 -24
-26 -10 -3 -7 5 7 26 12 17 19 37 16 46 -5 13 3 16 52 18 33 0 69 0 80 -1 15
-1 28 10 43 35 31 52 13 60 -94 47z m58 -19 c11 -11 -5 -34 -23 -34 -13 0 -17
5 -13 20 5 19 23 26 36 14z m-109 -20 c9 -23 8 -24 -14 -24 -19 0 -27 20 -13
33 11 11 20 8 27 -9z m46 -4 c0 -11 -4 -20 -10 -20 -5 0 -10 9 -10 20 0 11 5
20 10 20 6 0 10 -9 10 -20z"/>
<path d="M626 3805 c-9 -24 -8 -25 15 -25 14 0 19 5 17 17 -4 23 -24 27 -32 8z"/>
<path d="M705 3563 c-16 -2 -50 -6 -73 -9 l-44 -5 7 -47 c5 -41 3 -53 -20 -85
-26 -40 -25 -63 3 -52 14 5 14 3 -1 -13 -20 -22 -22 -42 -4 -42 19 0 42 18 34
26 -4 4 7 22 24 40 20 20 29 39 26 48 -9 22 -21 20 -32 -6 -6 -12 -16 -24 -24
-26 -10 -3 -7 5 7 26 12 17 19 37 16 46 -5 13 3 16 52 18 33 0 69 0 80 -1 15
-1 28 10 43 35 31 52 13 60 -94 47z m58 -19 c11 -11 -5 -34 -23 -34 -13 0 -17
5 -13 20 5 19 23 26 36 14z m-109 -20 c9 -23 8 -24 -14 -24 -19 0 -27 20 -13
33 11 11 20 8 27 -9z m46 -4 c0 -11 -4 -20 -10 -20 -5 0 -10 9 -10 20 0 11 5
20 10 20 6 0 10 -9 10 -20z"/>
<path d="M626 3355 c-9 -24 -8 -25 15 -25 14 0 19 5 17 17 -4 23 -24 27 -32 8z"/>
<path d="M540 3285 c0 -14 21 -45 31 -45 18 0 5 45 -13 48 -10 2 -18 1 -18 -3z"/>
<path d="M705 3113 c-16 -2 -50 -6 -73 -9 l-44 -5 7 -47 c5 -41 3 -53 -20 -85
-26 -40 -25 -63 3 -52 14 5 14 3 -1 -13 -20 -22 -22 -42 -4 -42 19 0 42 18 34
26 -4 4 7 22 24 40 20 20 29 39 26 48 -9 22 -21 20 -32 -6 -6 -12 -16 -24 -24
-26 -10 -3 -7 5 7 26 12 17 19 37 16 46 -5 13 3 16 52 18 33 0 69 0 80 -1 15
-1 28 10 43 35 31 52 13 60 -94 47z m58 -19 c11 -11 -5 -34 -23 -34 -13 0 -17
5 -13 20 5 19 23 26 36 14z m-109 -20 c9 -23 8 -24 -14 -24 -19 0 -27 20 -13
33 11 11 20 8 27 -9z m46 -4 c0 -11 -4 -20 -10 -20 -5 0 -10 9 -10 20 0 11 5
20 10 20 6 0 10 -9 10 -20z"/>
<path d="M626 2905 c-9 -24 -8 -25 15 -25 14 0 19 5 17 17 -4 23 -24 27 -32 8z"/>
<path d="M592 2838 c3 -7 13 -15 22 -16 12 -3 17 1 14 10 -3 7 -13 15 -22 16
-12 3 -17 -1 -14 -10z"/>
<path d="M540 2835 c0 -14 21 -45 31 -45 18 0 5 45 -13 48 -10 2 -18 1 -18 -3z"/>
<path d="M705 2663 c-16 -2 -50 -6 -73 -9 l-44 -5 7 -47 c5 -41 3 -53 -20 -85
-26 -40 -25 -63 3 -52 14 5 14 3 -1 -13 -20 -22 -22 -42 -4 -42 19 0 42 18 34
26 -4 4 7 22 24 40 20 20 29 39 26 48 -9 22 -21 20 -32 -6 -6 -12 -16 -24 -24
-26 -10 -3 -7 5 7 26 12 17 19 37 16 46 -5 13 3 16 52 18 33 0 69 0 80 -1 15
-1 28 10 43 35 31 52 13 60 -94 47z m58 -19 c11 -11 -5 -34 -23 -34 -13 0 -17
5 -13 20 5 19 23 26 36 14z m-109 -20 c9 -23 8 -24 -14 -24 -19 0 -27 20 -13
33 11 11 20 8 27 -9z m46 -4 c0 -11 -4 -20 -10 -20 -5 0 -10 9 -10 20 0 11 5
20 10 20 6 0 10 -9 10 -20z"/>
<path d="M626 2455 c-9 -24 -8 -25 15 -25 14 0 19 5 17 17 -4 23 -24 27 -32 8z"/>
<path d="M630 2413 c0 -5 4 -15 10 -23 11 -18 25 -7 17 15 -6 15 -27 21 -27 8z"/>
<path d="M592 2388 c3 -7 13 -15 22 -16 12 -3 17 1 14 10 -3 7 -13 15 -22 16
-12 3 -17 -1 -14 -10z"/>
<path d="M540 2385 c0 -14 21 -45 31 -45 18 0 5 45 -13 48 -10 2 -18 1 -18 -3z"/>
<path d="M705 2213 c-16 -2 -50 -6 -73 -9 l-44 -5 7 -47 c5 -41 3 -53 -20 -85
-26 -40 -25 -63 3 -52 14 5 14 3 -1 -13 -20 -22 -22 -42 -4 -42 19 0 42 18 34
26 -4 4 7 22 24 40 20 20 29 39 26 48 -9 22 -21 20 -32 -6 -6 -12 -16 -24 -24
-26 -10 -3 -7 5 7 26 12 17 19 37 16 46 -5 13 2 16 40 16 l46 0 -11 -27 c-6
-16 -18 -36 -26 -46 -9 -9 -13 -20 -9 -25 4 -4 23 10 42 31 25 27 33 44 29 58
-6 17 -3 19 18 14 20 -5 28 0 46 31 31 52 14 60 -94 47z m58 -19 c11 -11 -5
-34 -23 -34 -13 0 -17 5 -13 20 5 19 23 26 36 14z m-109 -20 c9 -23 8 -24 -14
-24 -19 0 -27 20 -13 33 11 11 20 8 27 -9z m46 -4 c0 -11 -4 -20 -10 -20 -5 0
-10 9 -10 20 0 11 5 20 10 20 6 0 10 -9 10 -20z"/>
<path d="M626 2005 c-9 -24 -8 -25 15 -25 14 0 19 5 17 17 -4 23 -24 27 -32 8z"/>
<path d="M630 1963 c0 -5 4 -15 10 -23 11 -18 25 -7 17 15 -6 15 -27 21 -27 8z"/>
<path d="M592 1938 c3 -7 13 -15 22 -16 12 -3 17 1 14 10 -3 7 -13 15 -22 16
-12 3 -17 -1 -14 -10z"/>
<path d="M540 1935 c0 -14 21 -45 31 -45 18 0 5 45 -13 48 -10 2 -18 1 -18 -3z"/>
<path d="M705 1763 c-16 -2 -50 -6 -73 -9 l-44 -5 7 -47 c5 -41 3 -53 -20 -85
-26 -40 -25 -63 3 -52 14 5 14 3 -1 -13 -20 -22 -22 -42 -4 -42 19 0 42 18 34
26 -4 4 7 22 24 40 20 20 29 39 26 48 -9 22 -21 20 -32 -6 -6 -12 -16 -24 -24
-26 -10 -3 -7 5 7 26 12 17 19 37 16 46 -5 13 2 16 39 16 l46 0 -10 -29 c-6
-17 -17 -35 -25 -42 -19 -16 -18 -33 2 -25 15 6 16 -2 10 -79 -5 -54 -3 -85 3
-85 17 0 19 12 22 105 2 53 8 99 16 111 7 12 11 29 7 38 -5 14 -2 16 18 11 21
-5 29 -1 47 31 31 52 14 60 -94 47z m58 -19 c11 -11 -5 -34 -23 -34 -13 0 -17
5 -13 20 5 19 23 26 36 14z m-109 -20 c9 -23 8 -24 -14 -24 -19 0 -27 20 -13
33 11 11 20 8 27 -9z m46 -4 c0 -11 -4 -20 -10 -20 -5 0 -10 9 -10 20 0 11 5
20 10 20 6 0 10 -9 10 -20z"/>
<path d="M626 1555 c-9 -24 -8 -25 15 -25 14 0 19 5 17 17 -4 23 -24 27 -32 8z"/>
<path d="M630 1513 c0 -5 4 -15 10 -23 11 -18 25 -7 17 15 -6 15 -27 21 -27 8z"/>
<path d="M592 1488 c3 -7 13 -15 22 -16 12 -3 17 1 14 10 -3 7 -13 15 -22 16
-12 3 -17 -1 -14 -10z"/>
<path d="M540 1485 c0 -14 21 -45 31 -45 18 0 5 45 -13 48 -10 2 -18 1 -18 -3z"/>
<path d="M705 1313 c-16 -2 -50 -6 -73 -9 l-44 -5 7 -47 c5 -41 3 -53 -20 -85
-26 -40 -25 -63 3 -52 14 5 14 3 -1 -13 -20 -22 -22 -42 -4 -42 19 0 42 18 34
26 -4 4 7 22 24 40 20 20 29 39 26 48 -9 22 -21 20 -32 -6 -6 -12 -16 -24 -24
-26 -10 -3 -7 5 7 26 12 17 19 37 16 46 -5 13 2 16 39 16 l46 0 -10 -29 c-6
-17 -17 -35 -25 -42 -19 -16 -18 -33 2 -25 15 6 16 -2 10 -79 -5 -54 -3 -85 3
-85 17 0 19 12 22 105 2 53 8 99 16 111 7 12 11 29 7 38 -5 14 -2 16 18 11 21
-5 29 -1 47 31 31 52 14 60 -94 47z m58 -19 c11 -11 -5 -34 -23 -34 -13 0 -17
5 -13 20 5 19 23 26 36 14z m-109 -20 c9 -23 8 -24 -14 -24 -19 0 -27 20 -13
33 11 11 20 8 27 -9z m46 -4 c0 -11 -4 -20 -10 -20 -5 0 -10 9 -10 20 0 11 5
20 10 20 6 0 10 -9 10 -20z"/>
<path d="M752 1198 c6 -16 36 -34 44 -25 9 9 -15 37 -33 37 -8 0 -13 -5 -11
-12z"/>
<path d="M626 1105 c-9 -24 -8 -25 15 -25 14 0 19 5 17 17 -4 23 -24 27 -32 8z"/>
<path d="M630 1063 c0 -5 4 -15 10 -23 11 -18 25 -7 17 15 -6 15 -27 21 -27 8z"/>
<path d="M592 1038 c3 -7 13 -15 22 -16 12 -3 17 1 14 10 -3 7 -13 15 -22 16
-12 3 -17 -1 -14 -10z"/>
<path d="M540 1035 c0 -14 21 -45 31 -45 18 0 5 45 -13 48 -10 2 -18 1 -18 -3z"/>
<path d="M705 863 c-16 -2 -50 -6 -73 -9 l-44 -5 7 -47 c5 -41 3 -53 -20 -85
-26 -40 -25 -63 3 -52 14 5 14 3 -1 -13 -20 -22 -22 -42 -4 -42 19 0 42 18 34
26 -4 4 7 22 24 40 20 20 29 39 26 48 -9 22 -21 20 -32 -6 -6 -12 -16 -24 -24
-26 -10 -3 -7 5 7 26 12 17 19 37 16 46 -5 13 2 16 39 16 l46 0 -10 -29 c-6
-17 -17 -35 -25 -42 -19 -16 -18 -33 2 -25 15 6 16 -2 10 -80 -6 -69 -5 -85 6
-82 9 3 15 32 18 89 l5 84 30 3 c61 5 95 13 95 22 0 6 -8 10 -19 10 -10 0 -24
7 -31 15 -13 16 -40 21 -40 7 0 -4 5 -13 11 -19 7 -7 2 -12 -19 -15 -29 -4
-29 -3 -16 17 8 12 12 30 8 39 -5 14 -2 16 18 11 21 -5 29 -1 47 31 31 52 14
60 -94 47z m58 -19 c11 -11 -5 -34 -23 -34 -13 0 -17 5 -13 20 5 19 23 26 36
14z m-109 -20 c9 -23 8 -24 -14 -24 -19 0 -27 20 -13 33 11 11 20 8 27 -9z
m46 -4 c0 -11 -4 -20 -10 -20 -5 0 -10 9 -10 20 0 11 5 20 10 20 6 0 10 -9 10
-20z"/>
<path d="M626 655 c-9 -24 -8 -25 15 -25 14 0 19 5 17 17 -4 23 -24 27 -32 8z"/>
<path d="M630 613 c0 -5 4 -15 10 -23 11 -18 25 -7 17 15 -6 15 -27 21 -27 8z"/>
<path d="M592 588 c3 -7 13 -15 22 -16 12 -3 17 1 14 10 -3 7 -13 15 -22 16
-12 3 -17 -1 -14 -10z"/>
<path d="M540 585 c0 -14 21 -45 31 -45 18 0 5 45 -13 48 -10 2 -18 1 -18 -3z"/>
<path d="M705 413 c-16 -2 -50 -6 -73 -9 l-44 -5 7 -47 c5 -41 3 -53 -20 -85
-26 -40 -25 -63 3 -52 14 5 14 3 -1 -13 -20 -22 -22 -42 -4 -42 19 0 42 18 34
26 -4 4 7 22 24 40 20 20 29 39 26 48 -9 22 -21 20 -32 -6 -6 -12 -16 -24 -24
-26 -10 -3 -7 5 7 26 12 17 19 37 16 46 -5 13 2 16 39 16 l46 0 -10 -29 c-6
-17 -17 -35 -25 -42 -19 -16 -18 -33 2 -25 15 6 16 -2 10 -80 -6 -69 -5 -85 6
-82 8 3 14 26 16 66 l3 61 47 6 c61 8 72 12 72 25 0 7 -11 9 -30 6 -16 -3 -44
-9 -61 -12 -24 -5 -30 -3 -27 7 3 8 18 15 34 17 61 5 94 13 94 22 0 6 -8 10
-19 10 -10 0 -24 7 -31 15 -13 16 -40 21 -40 7 0 -4 5 -13 11 -19 7 -7 2 -12
-19 -15 -29 -4 -29 -3 -16 17 8 12 12 30 8 39 -5 14 -2 16 18 11 21 -5 29 -1
47 31 31 52 14 60 -94 47z m58 -19 c11 -11 -5 -34 -23 -34 -13 0 -17 5 -13 20
5 19 23 26 36 14z m-109 -20 c9 -23 8 -24 -14 -24 -19 0 -27 20 -13 33 11 11
20 8 27 -9z m46 -4 c0 -11 -4 -20 -10 -20 -5 0 -10 9 -10 20 0 11 5 20 10 20
6 0 10 -9 10 -20z"/>
<path d="M626 205 c-9 -24 -8 -25 15 -25 14 0 19 5 17 17 -4 23 -24 27 -32 8z"/>
<path d="M630 163 c0 -5 4 -15 10 -23 11 -18 25 -7 17 15 -6 15 -27 21 -27 8z"/>
<path d="M592 138 c3 -7 13 -15 22 -16 12 -3 17 1 14 10 -3 7 -13 15 -22 16
-12 3 -17 -1 -14 -10z"/>
<path d="M540 135 c0 -14 21 -45 31 -45 18 0 5 45 -13 48 -10 2 -18 1 -18 -3z"/>
</g>
</svg>
