<?xml version="1.0" standalone="no"?>
<!DOCTYPE svg PUBLIC "-//W3C//DTD SVG 20010904//EN"
 "http://www.w3.org/TR/2001/REC-SVG-20010904/DTD/svg10.dtd">
<svg version="1.0" xmlns="http://www.w3.org/2000/svg"
 width="50.000000pt" height="725.000000pt" viewBox="0 0 50.000000 725.000000"
 preserveAspectRatio="xMidYMid meet">
<metadata>
Created by potrace 1.16, written by Peter Selinger 2001-2019
</metadata>
<g transform="translate(0.000000,725.000000) scale(0.100000,-0.100000)"
fill="#000000" stroke="none">
<path d="M190 7152 c0 -5 6 -17 14 -28 12 -15 17 -16 27 -7 10 10 9 15 -1 28
-13 16 -40 21 -40 7z"/>
<path d="M281 6704 c-15 -33 -10 -38 23 -23 29 14 34 34 10 43 -21 8 -19 9
-33 -20z"/>
<path d="M190 6702 c0 -5 6 -17 14 -28 12 -15 17 -16 27 -7 10 10 9 15 -1 28
-13 16 -40 21 -40 7z"/>
<path d="M279 6245 c-13 -36 -48 -50 -45 -19 1 18 -29 42 -39 32 -4 -3 -2 -16
5 -27 9 -17 8 -21 -5 -21 -8 0 -15 -4 -15 -10 0 -11 46 -13 114 -4 50 7 63 24
19 25 -28 0 -28 1 -5 11 26 13 29 33 6 42 -22 9 -21 9 -35 -29z"/>
<path d="M279 5795 c-13 -36 -48 -50 -45 -19 1 18 -29 42 -39 32 -4 -3 -2 -16
5 -27 9 -17 8 -21 -5 -21 -8 0 -15 -4 -15 -10 0 -11 46 -13 114 -4 50 7 63 24
19 25 -28 0 -28 1 -5 11 26 13 29 33 6 42 -22 9 -21 9 -35 -29z"/>
<path d="M218 5723 c-21 -2 -38 -9 -38 -15 0 -7 18 -9 53 -4 28 3 60 6 70 6 9
0 17 5 17 10 0 10 -28 11 -102 3z"/>
<path d="M279 5345 c-13 -36 -48 -50 -45 -19 1 18 -29 42 -39 32 -4 -3 -2 -16
5 -27 9 -17 8 -21 -5 -21 -8 0 -15 -4 -15 -10 0 -5 14 -10 30 -10 17 0 30 -4
30 -10 0 -5 -13 -10 -30 -10 -16 0 -30 -4 -30 -10 0 -5 13 -10 29 -10 16 0 32
-6 35 -12 3 -9 8 -8 16 5 6 9 22 17 35 17 14 0 25 5 25 10 0 6 -12 10 -26 10
-14 0 -23 4 -19 10 3 6 19 10 36 10 37 0 39 20 2 21 -28 0 -28 1 -5 11 26 13
29 33 6 42 -22 9 -21 9 -35 -29z"/>
<path d="M279 4895 c-13 -36 -48 -50 -45 -19 1 18 -29 42 -39 32 -4 -3 -2 -16
5 -27 9 -17 8 -21 -5 -21 -8 0 -15 -4 -15 -10 0 -5 14 -10 30 -10 17 0 30 -4
30 -10 0 -5 -13 -10 -30 -10 -41 0 -38 -20 3 -21 27 0 29 -2 12 -9 -11 -5 -35
-9 -52 -9 -18 -1 -33 -6 -33 -12 0 -8 16 -10 53 -5 28 3 78 6 110 6 43 0 57 3
54 13 -3 8 -21 11 -51 10 -29 -2 -45 1 -41 7 3 6 17 10 31 10 13 0 24 5 24 10
0 6 -12 10 -26 10 -14 0 -23 4 -19 10 3 6 19 10 36 10 37 0 39 20 2 21 -28 0
-28 1 -5 11 26 13 29 33 6 42 -22 9 -21 9 -35 -29z"/>
<path d="M279 4445 c-13 -36 -48 -50 -45 -19 1 18 -29 42 -39 32 -4 -3 -2 -16
5 -27 9 -17 8 -21 -5 -21 -8 0 -15 -4 -15 -10 0 -5 14 -10 30 -10 17 0 30 -4
30 -10 0 -5 -13 -10 -30 -10 -41 0 -38 -20 3 -21 27 0 29 -2 12 -9 -11 -5 -35
-9 -52 -9 -18 -1 -33 -5 -33 -11 0 -5 15 -10 33 -10 30 -1 31 -1 13 -15 -26
-19 -14 -29 20 -18 33 11 42 30 17 36 -10 3 17 5 60 6 58 1 78 4 74 14 -3 8
-21 11 -51 10 -29 -2 -45 1 -41 7 3 6 17 10 31 10 13 0 24 5 24 10 0 6 -12 10
-26 10 -14 0 -23 4 -19 10 3 6 19 10 36 10 37 0 39 20 2 21 -28 0 -28 1 -5 11
26 13 29 33 6 42 -22 9 -21 9 -35 -29z"/>
<path d="M279 3995 c-13 -36 -48 -50 -45 -19 1 18 -29 42 -39 32 -4 -3 -2 -16
5 -27 9 -17 8 -21 -5 -21 -8 0 -15 -4 -15 -10 0 -5 14 -10 30 -10 17 0 30 -4
30 -10 0 -5 -13 -10 -30 -10 -41 0 -38 -20 3 -21 27 0 29 -2 12 -9 -11 -5 -35
-9 -52 -9 -18 -1 -33 -5 -33 -11 0 -5 15 -10 33 -10 30 -1 31 -1 13 -15 -26
-19 -14 -29 20 -18 33 11 42 30 17 36 -10 3 17 5 60 6 58 1 78 4 74 14 -3 8
-21 11 -51 10 -29 -2 -45 1 -41 7 3 6 17 10 31 10 13 0 24 5 24 10 0 6 -12 10
-26 10 -14 0 -23 4 -19 10 3 6 19 10 36 10 37 0 39 20 2 21 -28 0 -28 1 -5 11
26 13 29 33 6 42 -22 9 -21 9 -35 -29z"/>
<path d="M213 3812 c-98 -16 -133 -40 -40 -28 28 4 72 10 97 12 69 8 90 13 90
24 0 13 -34 11 -147 -8z"/>
<path d="M279 3545 c-13 -36 -48 -50 -45 -19 1 18 -29 42 -39 32 -4 -3 -2 -16
5 -27 9 -17 8 -21 -5 -21 -8 0 -15 -4 -15 -10 0 -5 14 -10 30 -10 17 0 30 -4
30 -10 0 -5 -13 -10 -30 -10 -41 0 -38 -20 3 -21 27 0 29 -2 12 -9 -11 -5 -35
-9 -52 -9 -18 -1 -33 -5 -33 -11 0 -5 15 -10 33 -10 31 -1 31 -1 12 -16 -14
-11 -16 -18 -7 -21 21 -8 2 -23 -29 -23 -16 0 -29 -4 -29 -10 0 -5 19 -10 41
-10 41 0 41 0 35 -31 -3 -17 -6 -35 -6 -40 0 -5 -7 -6 -15 -3 -19 8 -19 -10 0
-26 29 -24 45 -4 45 54 0 61 6 66 73 66 43 0 77 14 64 26 -3 4 -35 2 -69 -3
-67 -11 -79 -10 -60 9 17 17 15 26 -5 31 -10 3 17 5 60 6 58 1 78 4 74 14 -3
8 -21 11 -51 10 -29 -2 -45 1 -41 7 3 6 17 10 31 10 13 0 24 5 24 10 0 6 -12
10 -26 10 -14 0 -23 4 -19 10 3 6 19 10 36 10 37 0 39 20 2 21 -28 0 -28 1 -5
11 26 13 29 33 6 42 -22 9 -21 9 -35 -29z"/>
<path d="M279 3095 c-13 -36 -48 -50 -45 -19 1 18 -29 42 -39 32 -4 -3 -2 -16
5 -27 9 -17 8 -21 -5 -21 -8 0 -15 -4 -15 -10 0 -5 14 -10 30 -10 17 0 30 -4
30 -10 0 -5 -13 -10 -30 -10 -41 0 -38 -20 3 -21 27 0 29 -2 12 -9 -11 -5 -35
-9 -52 -9 -18 -1 -33 -5 -33 -11 0 -5 15 -10 33 -10 31 -1 31 -1 12 -16 -14
-11 -16 -18 -7 -21 21 -8 2 -23 -29 -23 -16 0 -29 -4 -29 -10 0 -5 19 -10 42
-10 48 0 42 -11 -15 -30 -20 -6 -37 -15 -37 -20 0 -18 21 -20 50 -5 29 15 30
15 30 -4 0 -14 -5 -19 -15 -15 -19 8 -19 -10 0 -26 29 -24 45 -4 45 54 0 61 6
66 73 66 43 0 77 14 64 26 -3 4 -35 2 -69 -3 -67 -11 -79 -10 -60 9 17 17 15
26 -5 31 -10 3 17 5 60 6 58 1 78 4 74 14 -3 8 -21 11 -51 10 -29 -2 -45 1
-41 7 3 6 17 10 31 10 13 0 24 5 24 10 0 6 -12 10 -26 10 -14 0 -23 4 -19 10
3 6 19 10 36 10 37 0 39 20 2 21 -28 0 -28 1 -5 11 26 13 29 33 6 42 -22 9
-21 9 -35 -29z"/>
<path d="M279 2645 c-13 -36 -48 -50 -45 -19 1 18 -29 42 -39 32 -4 -3 -2 -16
5 -27 9 -17 8 -21 -5 -21 -8 0 -15 -4 -15 -10 0 -5 14 -10 30 -10 17 0 30 -4
30 -10 0 -5 -13 -10 -30 -10 -41 0 -38 -20 3 -21 27 0 29 -2 12 -9 -11 -5 -35
-9 -52 -9 -18 -1 -33 -5 -33 -11 0 -5 15 -10 33 -10 31 -1 31 -1 12 -16 -14
-11 -16 -18 -7 -21 21 -8 2 -23 -29 -23 -16 0 -29 -4 -29 -10 0 -5 19 -10 42
-10 48 0 42 -11 -15 -30 -20 -6 -37 -15 -37 -20 0 -18 21 -20 50 -5 29 15 30
15 30 -4 0 -14 -5 -19 -15 -15 -19 8 -19 -10 0 -26 29 -24 45 -4 45 54 0 40 4
55 16 60 29 11 40 6 56 -28 21 -44 76 -106 94 -106 8 0 14 10 14 24 0 18 -6
26 -22 28 -20 3 -68 59 -68 78 0 4 11 11 25 14 34 9 32 26 -4 26 -20 0 -30 6
-34 20 -4 17 0 20 30 20 23 0 33 4 30 13 -3 8 -21 11 -51 10 -29 -2 -45 1 -41
7 3 6 17 10 31 10 13 0 24 5 24 10 0 6 -12 10 -26 10 -14 0 -23 4 -19 10 3 6
19 10 36 10 37 0 39 20 2 21 -28 0 -28 1 -5 11 26 13 29 33 6 42 -22 9 -21 9
-35 -29z m-16 -147 c7 -26 8 -24 -20 -32 -23 -7 -32 7 -13 19 15 10 12 23 -7
28 -12 3 -9 5 8 6 20 1 28 -5 32 -21z"/>
<path d="M279 2195 c-13 -36 -48 -50 -45 -19 1 18 -29 42 -39 32 -4 -3 -2 -16
5 -27 9 -17 8 -21 -5 -21 -8 0 -15 -4 -15 -10 0 -5 14 -10 30 -10 17 0 30 -4
30 -10 0 -5 -13 -10 -30 -10 -41 0 -38 -20 3 -21 27 0 29 -2 12 -9 -11 -5 -35
-9 -52 -9 -18 -1 -33 -5 -33 -11 0 -5 15 -10 33 -10 31 -1 31 -1 12 -16 -14
-11 -16 -18 -7 -21 21 -8 2 -23 -29 -23 -16 0 -29 -4 -29 -10 0 -5 19 -10 42
-10 48 0 42 -11 -15 -30 -20 -6 -37 -15 -37 -20 0 -18 21 -20 50 -5 29 15 30
15 30 -4 0 -14 -5 -19 -15 -15 -19 8 -19 -10 0 -26 29 -24 45 -4 45 54 0 40 4
55 16 60 29 11 40 6 56 -28 21 -44 76 -106 94 -106 8 0 14 10 14 24 0 18 -6
26 -22 28 -12 2 -33 18 -45 37 -26 39 -29 51 -10 51 8 0 24 8 35 19 22 19 29
41 13 41 -5 0 -11 10 -14 21 -5 19 -10 21 -52 14 -33 -4 -45 -3 -40 4 3 6 17
11 31 11 13 0 24 5 24 10 0 6 -12 10 -26 10 -14 0 -23 4 -19 10 3 6 19 10 36
10 37 0 39 20 2 21 -28 0 -28 1 -5 11 26 13 29 33 6 42 -22 9 -21 9 -35 -29z
m-16 -147 c7 -26 8 -24 -20 -32 -23 -7 -32 7 -13 19 15 10 12 23 -7 28 -12 3
-9 5 8 6 20 1 28 -5 32 -21z m75 2 c11 -18 10 -20 -12 -20 -15 0 -26 7 -29 20
-4 14 0 20 12 20 9 0 22 -9 29 -20z"/>
<path d="M279 1745 c-13 -36 -48 -50 -45 -19 1 18 -29 42 -39 32 -4 -3 -2 -16
5 -27 9 -17 8 -21 -5 -21 -8 0 -15 -4 -15 -10 0 -5 14 -10 30 -10 17 0 30 -4
30 -10 0 -5 -13 -10 -30 -10 -41 0 -38 -20 3 -21 27 0 29 -2 12 -9 -11 -5 -35
-9 -52 -9 -18 -1 -33 -5 -33 -11 0 -5 15 -10 33 -10 31 -1 31 -1 12 -16 -14
-11 -16 -18 -7 -21 21 -8 2 -23 -29 -23 -16 0 -29 -4 -29 -10 0 -5 19 -10 42
-10 48 0 42 -11 -15 -30 -20 -6 -37 -15 -37 -20 0 -18 21 -20 50 -5 29 15 30
15 30 -4 0 -14 -5 -19 -15 -15 -19 8 -19 -10 0 -26 29 -24 45 -4 45 54 0 40 4
55 16 60 28 11 41 6 52 -18 9 -21 8 -27 -11 -39 -27 -18 -17 -33 12 -17 18 9
25 6 52 -25 37 -41 59 -45 59 -10 0 17 -6 25 -17 25 -9 0 -24 7 -34 16 -17 16
-17 17 4 35 20 18 21 20 5 32 -16 12 -16 14 3 27 19 15 26 40 10 40 -5 0 -11
10 -14 21 -5 19 -10 21 -52 14 -33 -4 -45 -3 -40 4 3 6 17 11 31 11 13 0 24 5
24 10 0 6 -12 10 -26 10 -14 0 -23 4 -19 10 3 6 19 10 36 10 37 0 39 20 2 21
-28 0 -28 1 -5 11 26 13 29 33 6 42 -22 9 -21 9 -35 -29z m-16 -147 c7 -26 8
-24 -20 -32 -23 -7 -32 7 -13 19 15 10 12 23 -7 28 -12 3 -9 5 8 6 20 1 28 -5
32 -21z m75 2 c11 -18 10 -20 -12 -20 -15 0 -26 7 -29 20 -4 14 0 20 12 20 9
0 22 -9 29 -20z m-8 -60 c0 -5 -4 -10 -10 -10 -5 0 -10 5 -10 10 0 6 5 10 10
10 6 0 10 -4 10 -10z"/>
</g>
</svg>
