<?xml version="1.0" standalone="no"?>
<!DOCTYPE svg PUBLIC "-//W3C//DTD SVG 20010904//EN"
 "http://www.w3.org/TR/2001/REC-SVG-20010904/DTD/svg10.dtd">
<svg version="1.0" xmlns="http://www.w3.org/2000/svg"
 width="95.000000pt" height="725.000000pt" viewBox="0 0 95.000000 725.000000"
 preserveAspectRatio="xMidYMid meet">
<metadata>
Created by potrace 1.16, written by Peter Selinger 2001-2019
</metadata>
<g transform="translate(0.000000,725.000000) scale(0.100000,-0.100000)"
fill="#000000" stroke="none">
<path d="M322 7158 c3 -20 -2 -23 -39 -26 -49 -4 -58 -19 -13 -24 23 -2 28 -6
20 -18 -7 -12 -12 -12 -22 -2 -6 6 -16 12 -20 12 -13 0 -9 -38 5 -43 10 -4 10
-6 0 -6 -19 -1 -16 -19 5 -24 9 -3 0 -5 -20 -6 -48 -1 -50 -21 -3 -21 28 0 35
-4 35 -20 0 -11 5 -20 10 -20 6 0 10 9 10 20 0 16 7 20 35 20 38 0 48 19 15
27 -23 6 -26 23 -7 42 10 11 10 14 0 18 -7 3 -13 9 -13 14 0 5 6 9 13 9 6 0
18 12 24 27 10 21 10 28 0 35 -23 15 -38 9 -35 -14z"/>
<path d="M772 7150 c1 -35 18 -39 37 -9 11 18 11 23 -1 30 -25 16 -37 9 -36
-21z"/>
<path d="M171 7123 c0 -61 -22 -134 -56 -185 -15 -22 -24 -42 -21 -45 8 -8 36
17 58 52 15 23 18 25 13 8 -5 -18 -2 -23 12 -23 15 0 16 -2 3 -11 -11 -8 -12
-12 -2 -16 6 -2 12 -20 12 -39 0 -37 19 -47 27 -14 3 13 14 20 29 20 34 0 30
20 -3 21 -17 1 -21 3 -10 6 9 2 17 9 17 14 0 5 -8 9 -17 9 -17 1 -17 1 0 11
18 10 24 59 7 59 -5 0 -14 -9 -20 -20 -10 -19 -11 -19 -29 -1 -18 18 -18 22
-4 73 9 29 21 56 27 61 8 5 8 9 -1 15 -6 4 -11 16 -10 27 1 11 -5 21 -15 23
-13 2 -16 -6 -17 -45z"/>
<path d="M230 7160 c0 -5 18 -10 40 -10 22 0 40 5 40 10 0 6 -18 10 -40 10
-22 0 -40 -4 -40 -10z"/>
<path d="M680 7160 c0 -5 18 -10 40 -10 22 0 40 5 40 10 0 6 -18 10 -40 10
-22 0 -40 -4 -40 -10z"/>
<path d="M366 6984 c-8 -21 -1 -28 19 -20 9 3 15 11 13 18 -7 19 -25 20 -32 2z"/>
<path d="M300 6982 c0 -10 22 -32 32 -32 15 0 8 28 -8 34 -21 8 -24 8 -24 -2z"/>
<path d="M130 6870 c0 -5 11 -10 25 -10 14 0 25 5 25 10 0 6 -11 10 -25 10
-14 0 -25 -4 -25 -10z"/>
<path d="M322 6708 c3 -20 -2 -23 -39 -26 -49 -4 -58 -19 -13 -24 23 -2 28 -6
20 -18 -7 -12 -12 -12 -22 -2 -6 6 -16 12 -20 12 -13 0 -9 -38 5 -43 10 -4 10
-6 0 -6 -19 -1 -16 -19 5 -24 9 -3 0 -5 -20 -6 -48 -1 -50 -21 -3 -21 28 0 35
-4 35 -20 0 -11 5 -20 10 -20 6 0 10 9 10 20 0 16 7 20 35 20 38 0 48 19 15
27 -23 6 -26 23 -7 42 10 11 10 14 0 18 -7 3 -13 9 -13 14 0 5 6 9 13 9 6 0
18 12 24 27 10 21 10 28 0 35 -23 15 -38 9 -35 -14z"/>
<path d="M772 6708 c3 -20 -2 -23 -39 -26 -61 -4 -53 -22 10 -22 47 0 53 3 64
27 10 21 10 28 0 35 -23 15 -38 9 -35 -14z"/>
<path d="M171 6673 c0 -61 -22 -134 -56 -185 -15 -22 -24 -42 -21 -45 8 -8 36
17 58 52 15 23 18 25 13 8 -5 -18 -2 -23 12 -23 15 0 16 -2 3 -11 -11 -8 -12
-12 -2 -16 6 -2 12 -20 12 -39 0 -37 19 -47 27 -14 3 13 14 20 29 20 34 0 30
20 -3 21 -17 1 -21 3 -10 6 9 2 17 9 17 14 0 5 -8 9 -17 9 -17 1 -17 1 0 11
18 10 24 59 7 59 -5 0 -14 -9 -20 -20 -10 -19 -11 -19 -29 -1 -18 18 -18 22
-4 73 9 29 21 56 27 61 8 5 8 9 -1 15 -6 4 -11 16 -10 27 1 11 -5 21 -15 23
-13 2 -16 -6 -17 -45z"/>
<path d="M230 6710 c0 -5 18 -10 40 -10 22 0 40 5 40 10 0 6 -18 10 -40 10
-22 0 -40 -4 -40 -10z"/>
<path d="M680 6710 c0 -5 18 -10 40 -10 22 0 40 5 40 10 0 6 -18 10 -40 10
-22 0 -40 -4 -40 -10z"/>
<path d="M640 6660 c0 -5 7 -10 15 -10 8 0 15 5 15 10 0 6 -7 10 -15 10 -8 0
-15 -4 -15 -10z"/>
<path d="M370 6543 c0 -4 -4 -14 -9 -22 -8 -12 -12 -12 -26 2 -9 10 -21 17
-26 17 -12 0 -12 -17 1 -25 5 -3 7 -12 4 -19 -4 -11 5 -13 43 -9 52 6 62 10
48 21 -6 4 -10 13 -10 21 0 15 -25 29 -25 14z"/>
<path d="M130 6420 c0 -5 11 -10 25 -10 14 0 25 5 25 10 0 6 -11 10 -25 10
-14 0 -25 -4 -25 -10z"/>
<path d="M322 6258 c3 -20 -2 -23 -39 -26 -49 -4 -58 -19 -13 -24 23 -2 28 -6
20 -18 -7 -12 -12 -12 -22 -2 -6 6 -16 12 -20 12 -13 0 -9 -38 5 -43 10 -4 10
-6 0 -6 -19 -1 -16 -19 5 -24 9 -3 0 -5 -20 -6 -48 -1 -50 -21 -3 -21 28 0 35
-4 35 -20 0 -11 5 -20 10 -20 6 0 10 9 10 20 0 16 7 20 35 20 38 0 48 19 15
27 -23 6 -26 23 -7 42 10 11 10 14 0 18 -7 3 -13 9 -13 14 0 5 6 9 13 9 6 0
18 12 24 27 10 21 10 28 0 35 -23 15 -38 9 -35 -14z"/>
<path d="M772 6258 c3 -20 -2 -23 -39 -26 -61 -4 -53 -22 10 -22 47 0 53 3 64
27 10 21 10 28 0 35 -23 15 -38 9 -35 -14z"/>
<path d="M171 6223 c0 -61 -22 -134 -56 -185 -15 -22 -24 -42 -21 -45 8 -8 36
17 58 52 15 23 18 25 13 8 -5 -18 -2 -23 12 -23 15 0 16 -2 3 -11 -11 -8 -12
-12 -2 -16 6 -2 12 -20 12 -39 0 -37 19 -47 27 -14 3 13 14 20 29 20 34 0 30
20 -3 21 -17 1 -21 3 -10 6 9 2 17 9 17 14 0 5 -8 9 -17 9 -17 1 -17 1 0 11
18 10 24 59 7 59 -5 0 -14 -9 -20 -20 -10 -19 -11 -19 -29 -1 -18 18 -18 22
-4 73 9 29 21 56 27 61 8 5 8 9 -1 15 -6 4 -11 16 -10 27 1 11 -5 21 -15 23
-13 2 -16 -6 -17 -45z"/>
<path d="M230 6260 c0 -5 18 -10 40 -10 22 0 40 5 40 10 0 6 -18 10 -40 10
-22 0 -40 -4 -40 -10z"/>
<path d="M621 6223 c0 -61 -22 -134 -56 -185 -15 -22 -24 -43 -20 -46 15 -15
65 61 86 130 12 40 27 76 33 81 8 5 8 9 -1 15 -6 4 -11 16 -10 27 1 11 -5 21
-15 23 -13 2 -16 -6 -17 -45z"/>
<path d="M680 6260 c0 -5 18 -10 40 -10 22 0 40 5 40 10 0 6 -18 10 -40 10
-22 0 -40 -4 -40 -10z"/>
<path d="M370 6093 c0 -4 -4 -14 -9 -22 -8 -12 -12 -12 -26 2 -9 10 -21 17
-26 17 -12 0 -12 -17 1 -25 5 -3 7 -12 4 -19 -4 -11 5 -13 43 -9 52 6 62 10
48 21 -6 4 -10 13 -10 21 0 15 -25 29 -25 14z"/>
<path d="M333 6023 c-13 -2 -23 -9 -23 -15 0 -6 12 -8 31 -4 17 3 38 6 45 6 8
0 14 5 14 10 0 10 -25 11 -67 3z"/>
<path d="M130 5970 c0 -5 11 -10 25 -10 14 0 25 5 25 10 0 6 -11 10 -25 10
-14 0 -25 -4 -25 -10z"/>
<path d="M322 5808 c3 -20 -2 -23 -39 -26 -49 -4 -58 -19 -13 -24 23 -2 28 -6
20 -18 -7 -12 -12 -12 -22 -2 -6 6 -16 12 -20 12 -13 0 -9 -38 5 -43 10 -4 10
-6 0 -6 -19 -1 -16 -19 5 -24 9 -3 0 -5 -20 -6 -48 -1 -50 -21 -3 -21 28 0 35
-4 35 -20 0 -11 5 -20 10 -20 6 0 10 9 10 20 0 16 7 20 35 20 38 0 48 19 15
27 -23 6 -26 23 -7 42 10 11 10 14 0 18 -7 3 -13 9 -13 14 0 5 6 9 13 9 6 0
18 12 24 27 10 21 10 28 0 35 -23 15 -38 9 -35 -14z"/>
<path d="M772 5808 c3 -20 -2 -23 -39 -26 -61 -4 -53 -22 10 -22 47 0 53 3 64
27 10 21 10 28 0 35 -23 15 -38 9 -35 -14z"/>
<path d="M171 5773 c0 -61 -22 -134 -56 -185 -15 -22 -24 -42 -21 -45 8 -8 36
17 58 52 15 23 18 25 13 8 -5 -18 -2 -23 12 -23 15 0 16 -2 3 -11 -11 -8 -12
-12 -2 -16 6 -2 12 -20 12 -39 0 -37 19 -47 27 -14 3 13 14 20 29 20 34 0 30
20 -3 21 -17 1 -21 3 -10 6 9 2 17 9 17 14 0 5 -8 9 -17 9 -17 1 -17 1 0 11
18 10 24 59 7 59 -5 0 -14 -9 -20 -20 -10 -19 -11 -19 -29 -1 -18 18 -18 22
-4 73 9 29 21 56 27 61 8 5 8 9 -1 15 -6 4 -11 16 -10 27 1 11 -5 21 -15 23
-13 2 -16 -6 -17 -45z"/>
<path d="M230 5810 c0 -5 18 -10 40 -10 22 0 40 5 40 10 0 6 -18 10 -40 10
-22 0 -40 -4 -40 -10z"/>
<path d="M621 5773 c0 -61 -22 -134 -56 -185 -15 -22 -24 -43 -20 -46 15 -15
65 61 86 130 12 40 27 76 33 81 8 5 8 9 -1 15 -6 4 -11 16 -10 27 1 11 -5 21
-15 23 -13 2 -16 -6 -17 -45z"/>
<path d="M680 5810 c0 -5 18 -10 40 -10 22 0 40 5 40 10 0 6 -18 10 -40 10
-22 0 -40 -4 -40 -10z"/>
<path d="M692 5739 c2 -7 10 -15 17 -17 8 -3 12 1 9 9 -2 7 -10 15 -17 17 -8
3 -12 -1 -9 -9z"/>
<path d="M370 5643 c0 -4 -4 -14 -9 -22 -8 -12 -12 -12 -26 2 -9 10 -21 17
-26 17 -12 0 -12 -17 1 -25 5 -3 7 -12 4 -19 -4 -11 5 -13 43 -9 52 6 62 10
48 21 -6 4 -10 13 -10 21 0 15 -25 29 -25 14z"/>
<path d="M333 5573 c-13 -2 -23 -9 -23 -15 0 -6 12 -8 31 -4 17 3 38 6 45 6 8
0 14 5 14 10 0 10 -25 11 -67 3z"/>
<path d="M323 5543 c-18 -2 -33 -9 -33 -15 0 -7 16 -9 46 -4 26 3 57 6 70 6
13 0 24 5 24 10 0 10 -42 11 -107 3z"/>
<path d="M130 5520 c0 -5 11 -10 25 -10 14 0 25 5 25 10 0 6 -11 10 -25 10
-14 0 -25 -4 -25 -10z"/>
<path d="M322 5358 c3 -20 -2 -23 -39 -26 -49 -4 -58 -19 -13 -24 23 -2 28 -6
20 -18 -7 -12 -12 -12 -22 -2 -6 6 -16 12 -20 12 -13 0 -9 -38 5 -43 10 -4 10
-6 0 -6 -19 -1 -16 -19 5 -24 9 -3 0 -5 -20 -6 -48 -1 -50 -21 -3 -21 28 0 35
-4 35 -20 0 -11 5 -20 10 -20 6 0 10 9 10 20 0 16 7 20 35 20 38 0 48 19 15
27 -23 6 -26 23 -7 42 10 11 10 14 0 18 -7 3 -13 9 -13 14 0 5 6 9 13 9 6 0
18 12 24 27 10 21 10 28 0 35 -23 15 -38 9 -35 -14z"/>
<path d="M772 5358 c3 -20 -2 -23 -39 -26 -48 -4 -59 -22 -13 -22 22 0 28 -4
24 -15 -4 -9 0 -15 10 -15 9 0 16 7 16 15 0 8 6 15 13 15 6 0 18 12 24 27 10
21 10 28 0 35 -23 15 -38 9 -35 -14z"/>
<path d="M171 5323 c0 -61 -22 -134 -56 -185 -15 -22 -24 -42 -21 -45 8 -8 36
17 58 52 15 23 18 25 13 8 -5 -18 -2 -23 12 -23 15 0 16 -2 3 -11 -11 -8 -12
-12 -2 -16 6 -2 12 -20 12 -39 0 -37 19 -47 27 -14 3 13 14 20 29 20 34 0 30
20 -3 21 -17 1 -21 3 -10 6 9 2 17 9 17 14 0 5 -8 9 -17 9 -17 1 -17 1 0 11
18 10 24 59 7 59 -5 0 -14 -9 -20 -20 -10 -19 -11 -19 -29 -1 -18 18 -18 22
-4 73 9 29 21 56 27 61 8 5 8 9 -1 15 -6 4 -11 16 -10 27 1 11 -5 21 -15 23
-13 2 -16 -6 -17 -45z"/>
<path d="M230 5360 c0 -5 18 -10 40 -10 22 0 40 5 40 10 0 6 -18 10 -40 10
-22 0 -40 -4 -40 -10z"/>
<path d="M621 5323 c0 -61 -22 -134 -56 -185 -15 -22 -24 -43 -20 -46 15 -15
65 61 86 130 12 40 27 76 33 81 8 5 8 9 -1 15 -6 4 -11 16 -10 27 1 11 -5 21
-15 23 -13 2 -16 -6 -17 -45z"/>
<path d="M680 5360 c0 -5 18 -10 40 -10 22 0 40 5 40 10 0 6 -18 10 -40 10
-22 0 -40 -4 -40 -10z"/>
<path d="M692 5289 c2 -7 10 -15 17 -17 8 -3 12 1 9 9 -2 7 -10 15 -17 17 -8
3 -12 -1 -9 -9z"/>
<path d="M370 5193 c0 -4 -4 -14 -9 -22 -8 -12 -12 -12 -26 2 -9 10 -21 17
-26 17 -12 0 -12 -17 1 -25 5 -3 7 -12 4 -19 -3 -8 2 -16 13 -19 16 -4 16 -5
1 -6 -10 0 -18 -5 -18 -10 0 -5 8 -12 18 -14 10 -3 6 -5 -10 -6 -35 -1 -37
-21 -3 -21 21 0 25 -5 25 -30 0 -40 18 -38 22 3 3 28 7 32 36 35 17 2 32 7 32
13 0 5 -15 10 -32 10 -18 1 -25 3 -15 6 9 2 17 8 17 13 0 5 -8 11 -17 13 -14
4 -12 5 5 6 20 1 33 21 13 21 -5 0 -8 7 -7 16 0 9 -5 19 -11 21 -7 3 -13 1
-13 -4z"/>
<path d="M130 5070 c0 -5 11 -10 25 -10 14 0 25 5 25 10 0 6 -11 10 -25 10
-14 0 -25 -4 -25 -10z"/>
<path d="M772 4908 c3 -20 -2 -23 -39 -26 -49 -4 -58 -19 -13 -24 23 -2 28 -6
20 -18 -7 -12 -12 -12 -22 -2 -18 18 -28 15 -28 -8 0 -17 7 -20 44 -20 42 0
74 19 48 28 -16 5 -15 22 1 22 6 0 18 12 24 27 10 21 10 28 0 35 -23 15 -38 9
-35 -14z"/>
<path d="M621 4873 c0 -61 -22 -134 -56 -185 -15 -22 -24 -43 -20 -46 15 -15
65 61 86 130 12 40 27 76 33 81 8 5 8 9 -1 15 -6 4 -11 16 -10 27 1 11 -5 21
-15 23 -13 2 -16 -6 -17 -45z"/>
<path d="M680 4910 c0 -5 18 -10 40 -10 22 0 40 5 40 10 0 6 -18 10 -40 10
-22 0 -40 -4 -40 -10z"/>
<path d="M772 4458 c3 -20 -2 -23 -39 -26 -49 -4 -58 -19 -13 -24 23 -2 28 -6
20 -18 -7 -12 -12 -12 -22 -2 -17 17 -28 15 -28 -7 0 -15 8 -21 33 -24 l32 -4
-32 -1 c-46 -3 -41 -22 5 -22 31 0 39 5 50 28 8 17 9 28 2 30 -14 5 -12 22 3
22 6 0 18 12 24 27 10 21 10 28 0 35 -23 15 -38 9 -35 -14z"/>
<path d="M621 4423 c0 -61 -22 -134 -56 -185 -15 -22 -24 -43 -20 -46 15 -15
65 61 86 130 12 40 27 76 33 81 8 5 8 9 -1 15 -6 4 -11 16 -10 27 1 11 -5 21
-15 23 -13 2 -16 -6 -17 -45z"/>
<path d="M680 4460 c0 -5 18 -10 40 -10 22 0 40 5 40 10 0 6 -18 10 -40 10
-22 0 -40 -4 -40 -10z"/>
<path d="M772 4008 c3 -20 -2 -23 -39 -26 -49 -4 -58 -19 -13 -24 23 -2 28 -6
20 -18 -7 -12 -12 -12 -22 -2 -17 17 -28 15 -28 -7 0 -15 8 -21 33 -24 l32 -4
-32 -1 c-45 -3 -42 -20 5 -25 27 -3 22 -4 -20 -5 -90 -3 -70 -22 22 -22 51 0
80 4 80 11 0 6 -9 13 -20 16 -23 6 -26 23 -7 42 10 11 10 14 0 18 -7 3 -13 9
-13 14 0 5 6 9 13 9 6 0 18 12 24 27 10 21 10 28 0 35 -23 15 -38 9 -35 -14z"/>
<path d="M621 3973 c0 -61 -22 -134 -56 -185 -15 -22 -24 -43 -20 -46 15 -15
65 61 86 130 12 40 27 76 33 81 8 5 8 9 -1 15 -6 4 -11 16 -10 27 1 11 -5 21
-15 23 -13 2 -16 -6 -17 -45z"/>
<path d="M680 4010 c0 -5 18 -10 40 -10 22 0 40 5 40 10 0 6 -18 10 -40 10
-22 0 -40 -4 -40 -10z"/>
<path d="M772 3558 c3 -20 -2 -23 -39 -26 -49 -4 -58 -19 -13 -24 23 -2 28 -6
20 -18 -7 -12 -12 -12 -22 -2 -6 6 -16 12 -20 12 -13 0 -9 -38 5 -43 10 -4 10
-6 0 -6 -19 -1 -16 -19 5 -24 9 -3 0 -5 -20 -6 -48 -1 -50 -21 -3 -21 28 0 35
-4 35 -20 0 -11 5 -20 10 -20 6 0 10 9 10 20 0 16 7 20 35 20 38 0 48 19 15
27 -23 6 -26 23 -7 42 10 11 10 14 0 18 -7 3 -13 9 -13 14 0 5 6 9 13 9 6 0
18 12 24 27 10 21 10 28 0 35 -23 15 -38 9 -35 -14z"/>
<path d="M621 3523 c0 -61 -22 -134 -56 -185 -15 -22 -24 -43 -20 -46 15 -15
65 61 86 130 12 40 27 76 33 81 8 5 8 9 -1 15 -6 4 -11 16 -10 27 1 11 -5 21
-15 23 -13 2 -16 -6 -17 -45z"/>
<path d="M680 3560 c0 -5 18 -10 40 -10 22 0 40 5 40 10 0 6 -18 10 -40 10
-22 0 -40 -4 -40 -10z"/>
<path d="M772 3108 c3 -20 -2 -23 -39 -26 -49 -4 -58 -19 -13 -24 23 -2 28 -6
20 -18 -7 -12 -12 -12 -22 -2 -6 6 -16 12 -20 12 -13 0 -9 -38 5 -43 10 -4 10
-6 0 -6 -19 -1 -16 -19 5 -24 9 -3 0 -5 -20 -6 -48 -1 -50 -21 -3 -21 28 0 35
-4 35 -20 0 -11 5 -20 10 -20 6 0 10 9 10 20 0 16 7 20 35 20 38 0 48 19 15
27 -23 6 -26 23 -7 42 10 11 10 14 0 18 -7 3 -13 9 -13 14 0 5 6 9 13 9 6 0
18 12 24 27 10 21 10 28 0 35 -23 15 -38 9 -35 -14z"/>
<path d="M621 3073 c0 -61 -22 -134 -56 -185 -15 -22 -24 -42 -21 -46 9 -8 54
37 62 61 6 18 7 19 16 4 5 -10 13 -17 18 -17 15 0 12 28 -5 37 -12 7 -12 15 2
63 9 30 21 58 27 63 8 5 8 9 -1 15 -6 4 -11 16 -10 27 1 11 -5 21 -15 23 -13
2 -16 -6 -17 -45z"/>
<path d="M680 3110 c0 -5 18 -10 40 -10 22 0 40 5 40 10 0 6 -18 10 -40 10
-22 0 -40 -4 -40 -10z"/>
<path d="M772 2658 c3 -20 -2 -23 -39 -26 -49 -4 -58 -19 -13 -24 23 -2 28 -6
20 -18 -7 -12 -12 -12 -22 -2 -6 6 -16 12 -20 12 -13 0 -9 -38 5 -43 10 -4 10
-6 0 -6 -19 -1 -16 -19 5 -24 9 -3 0 -5 -20 -6 -48 -1 -50 -21 -3 -21 28 0 35
-4 35 -20 0 -11 5 -20 10 -20 6 0 10 9 10 20 0 16 7 20 35 20 38 0 48 19 15
27 -23 6 -26 23 -7 42 10 11 10 14 0 18 -7 3 -13 9 -13 14 0 5 6 9 13 9 6 0
18 12 24 27 10 21 10 28 0 35 -23 15 -38 9 -35 -14z"/>
<path d="M621 2623 c0 -61 -22 -134 -56 -185 -15 -22 -24 -42 -21 -46 9 -8 54
37 62 61 6 18 7 19 16 4 5 -10 13 -17 18 -17 15 0 12 28 -5 37 -12 7 -12 15 2
63 9 30 21 58 27 63 8 5 8 9 -1 15 -6 4 -11 16 -10 27 1 11 -5 21 -15 23 -13
2 -16 -6 -17 -45z"/>
<path d="M680 2660 c0 -5 18 -10 40 -10 22 0 40 5 40 10 0 6 -18 10 -40 10
-22 0 -40 -4 -40 -10z"/>
<path d="M673 2475 c-3 -9 -3 -18 0 -21 9 -9 27 6 27 22 0 19 -19 18 -27 -1z"/>
<path d="M772 2208 c3 -20 -2 -23 -39 -26 -49 -4 -58 -19 -13 -24 23 -2 28 -6
20 -18 -7 -12 -12 -12 -22 -2 -6 6 -16 12 -20 12 -13 0 -9 -38 5 -43 10 -4 10
-6 0 -6 -19 -1 -16 -19 5 -24 9 -3 0 -5 -20 -6 -48 -1 -50 -21 -3 -21 28 0 35
-4 35 -20 0 -11 5 -20 10 -20 6 0 10 9 10 20 0 16 7 20 35 20 38 0 48 19 15
27 -23 6 -26 23 -7 42 10 11 10 14 0 18 -7 3 -13 9 -13 14 0 5 6 9 13 9 6 0
18 12 24 27 10 21 10 28 0 35 -23 15 -38 9 -35 -14z"/>
<path d="M621 2173 c0 -61 -22 -134 -56 -185 -15 -22 -24 -42 -21 -45 8 -8 36
17 58 52 16 24 18 25 13 7 -6 -22 -4 -23 37 -20 39 3 43 6 46 31 4 31 -13 36
-28 7 -10 -19 -11 -19 -29 -1 -18 18 -18 22 -4 73 9 29 21 56 27 61 8 5 8 9
-1 15 -6 4 -11 16 -10 27 1 11 -5 21 -15 23 -13 2 -16 -6 -17 -45z"/>
<path d="M680 2210 c0 -5 18 -10 40 -10 22 0 40 5 40 10 0 6 -18 10 -40 10
-22 0 -40 -4 -40 -10z"/>
<path d="M772 1758 c3 -20 -2 -23 -39 -26 -49 -4 -58 -19 -13 -24 23 -2 28 -6
20 -18 -7 -12 -12 -12 -22 -2 -6 6 -16 12 -20 12 -13 0 -9 -38 5 -43 10 -4 10
-6 0 -6 -19 -1 -16 -19 5 -24 9 -3 0 -5 -20 -6 -48 -1 -50 -21 -3 -21 28 0 35
-4 35 -20 0 -11 5 -20 10 -20 6 0 10 9 10 20 0 16 7 20 35 20 38 0 48 19 15
27 -23 6 -26 23 -7 42 10 11 10 14 0 18 -7 3 -13 9 -13 14 0 5 6 9 13 9 6 0
18 12 24 27 10 21 10 28 0 35 -23 15 -38 9 -35 -14z"/>
<path d="M621 1723 c0 -61 -22 -134 -56 -185 -15 -22 -24 -42 -21 -45 8 -8 36
17 58 52 16 24 18 25 13 7 -6 -22 -4 -23 37 -20 39 3 43 6 46 31 4 31 -13 36
-28 7 -10 -19 -11 -19 -29 -1 -18 18 -18 22 -4 73 9 29 21 56 27 61 8 5 8 9
-1 15 -6 4 -11 16 -10 27 1 11 -5 21 -15 23 -13 2 -16 -6 -17 -45z"/>
<path d="M680 1760 c0 -5 18 -10 40 -10 22 0 40 5 40 10 0 6 -18 10 -40 10
-22 0 -40 -4 -40 -10z"/>
<path d="M620 1510 c0 -5 18 -10 40 -10 22 0 40 5 40 10 0 6 -18 10 -40 10
-22 0 -40 -4 -40 -10z"/>
<path d="M772 1308 c3 -20 -2 -23 -39 -26 -49 -4 -58 -19 -13 -24 23 -2 28 -6
20 -18 -7 -12 -12 -12 -22 -2 -6 6 -16 12 -20 12 -13 0 -9 -38 5 -43 10 -4 10
-6 0 -6 -19 -1 -16 -19 5 -24 9 -3 0 -5 -20 -6 -48 -1 -50 -21 -3 -21 28 0 35
-4 35 -20 0 -11 5 -20 10 -20 6 0 10 9 10 20 0 16 7 20 35 20 38 0 48 19 15
27 -23 6 -26 23 -7 42 10 11 10 14 0 18 -7 3 -13 9 -13 14 0 5 6 9 13 9 6 0
18 12 24 27 10 21 10 28 0 35 -23 15 -38 9 -35 -14z"/>
<path d="M621 1273 c0 -61 -22 -134 -56 -185 -15 -22 -24 -42 -21 -45 8 -8 36
17 58 52 16 24 18 25 13 7 -6 -22 -4 -23 37 -20 39 3 43 6 46 31 4 31 -13 36
-28 7 -10 -19 -11 -19 -29 -1 -18 18 -18 22 -4 73 9 29 21 56 27 61 8 5 8 9
-1 15 -6 4 -11 16 -10 27 1 11 -5 21 -15 23 -13 2 -16 -6 -17 -45z"/>
<path d="M680 1310 c0 -5 18 -10 40 -10 22 0 40 5 40 10 0 6 -18 10 -40 10
-22 0 -40 -4 -40 -10z"/>
<path d="M620 1060 c0 -5 18 -10 40 -10 22 0 40 5 40 10 0 6 -18 10 -40 10
-22 0 -40 -4 -40 -10z"/>
<path d="M640 1030 c0 -5 18 -10 40 -10 22 0 40 5 40 10 0 6 -18 10 -40 10
-22 0 -40 -4 -40 -10z"/>
<path d="M580 1020 c0 -5 11 -10 25 -10 14 0 25 5 25 10 0 6 -11 10 -25 10
-14 0 -25 -4 -25 -10z"/>
<path d="M772 858 c3 -20 -2 -23 -39 -26 -49 -4 -58 -19 -13 -24 23 -2 28 -6
20 -18 -7 -12 -12 -12 -22 -2 -6 6 -16 12 -20 12 -13 0 -9 -38 5 -43 10 -4 10
-6 0 -6 -19 -1 -16 -19 5 -24 9 -3 0 -5 -20 -6 -48 -1 -50 -21 -3 -21 28 0 35
-4 35 -20 0 -11 5 -20 10 -20 6 0 10 9 10 20 0 16 7 20 35 20 38 0 48 19 15
27 -23 6 -26 23 -7 42 10 11 10 14 0 18 -7 3 -13 9 -13 14 0 5 6 9 13 9 6 0
18 12 24 27 10 21 10 28 0 35 -23 15 -38 9 -35 -14z"/>
<path d="M621 823 c0 -61 -22 -134 -56 -185 -15 -22 -24 -42 -21 -45 8 -8 36
17 58 52 15 23 18 25 13 8 -5 -18 -2 -23 12 -23 15 0 16 -2 3 -11 -11 -8 -12
-12 -2 -16 6 -2 12 -20 12 -39 0 -37 19 -47 27 -14 3 13 14 20 29 20 34 0 30
20 -3 21 -17 1 -21 3 -10 6 9 2 17 9 17 14 0 5 -8 9 -17 9 -17 1 -17 1 0 11
18 10 24 59 7 59 -5 0 -14 -9 -20 -20 -10 -19 -11 -19 -29 -1 -18 18 -18 22
-4 73 9 29 21 56 27 61 8 5 8 9 -1 15 -6 4 -11 16 -10 27 1 11 -5 21 -15 23
-13 2 -16 -6 -17 -45z"/>
<path d="M680 860 c0 -5 18 -10 40 -10 22 0 40 5 40 10 0 6 -18 10 -40 10 -22
0 -40 -4 -40 -10z"/>
<path d="M580 570 c0 -5 11 -10 25 -10 14 0 25 5 25 10 0 6 -11 10 -25 10 -14
0 -25 -4 -25 -10z"/>
<path d="M772 408 c3 -20 -2 -23 -39 -26 -49 -4 -58 -19 -13 -24 23 -2 28 -6
20 -18 -7 -12 -12 -12 -22 -2 -6 6 -16 12 -20 12 -13 0 -9 -38 5 -43 10 -4 10
-6 0 -6 -19 -1 -16 -19 5 -24 9 -3 0 -5 -20 -6 -48 -1 -50 -21 -3 -21 28 0 35
-4 35 -20 0 -11 5 -20 10 -20 6 0 10 9 10 20 0 16 7 20 35 20 38 0 48 19 15
27 -23 6 -26 23 -7 42 10 11 10 14 0 18 -7 3 -13 9 -13 14 0 5 6 9 13 9 6 0
18 12 24 27 10 21 10 28 0 35 -23 15 -38 9 -35 -14z"/>
<path d="M621 373 c0 -61 -22 -134 -56 -185 -15 -22 -24 -42 -21 -45 8 -8 36
17 58 52 15 23 18 25 13 8 -5 -18 -2 -23 12 -23 15 0 16 -2 3 -11 -11 -8 -12
-12 -2 -16 6 -2 12 -20 12 -39 0 -37 19 -47 27 -14 3 13 14 20 29 20 34 0 30
20 -3 21 -17 1 -21 3 -10 6 9 2 17 9 17 14 0 5 -8 9 -17 9 -17 1 -17 1 0 11
18 10 24 59 7 59 -5 0 -14 -9 -20 -20 -10 -19 -11 -19 -29 -1 -18 18 -18 22
-4 73 9 29 21 56 27 61 8 5 8 9 -1 15 -6 4 -11 16 -10 27 1 11 -5 21 -15 23
-13 2 -16 -6 -17 -45z"/>
<path d="M680 410 c0 -5 18 -10 40 -10 22 0 40 5 40 10 0 6 -18 10 -40 10 -22
0 -40 -4 -40 -10z"/>
<path d="M750 232 c0 -10 22 -32 32 -32 15 0 8 28 -8 34 -21 8 -24 8 -24 -2z"/>
<path d="M580 120 c0 -5 11 -10 25 -10 14 0 25 5 25 10 0 6 -11 10 -25 10 -14
0 -25 -4 -25 -10z"/>
</g>
</svg>
