<?xml version="1.0" standalone="no"?>
<!DOCTYPE svg PUBLIC "-//W3C//DTD SVG 20010904//EN"
 "http://www.w3.org/TR/2001/REC-SVG-20010904/DTD/svg10.dtd">
<svg version="1.0" xmlns="http://www.w3.org/2000/svg"
 width="50.000000pt" height="725.000000pt" viewBox="0 0 50.000000 725.000000"
 preserveAspectRatio="xMidYMid meet">
<metadata>
Created by potrace 1.16, written by Peter Selinger 2001-2019
</metadata>
<g transform="translate(0.000000,725.000000) scale(0.100000,-0.100000)"
fill="#000000" stroke="none">
<path d="M173 7119 c-47 -14 -42 -31 7 -23 l40 7 0 -102 c0 -94 -1 -101 -20
-101 -26 0 -25 -12 0 -35 37 -34 48 -6 52 135 l3 125 -25 2 c-14 1 -40 -3 -57
-8z"/>
<path d="M173 6669 c-47 -14 -42 -31 7 -23 l40 7 0 -102 c0 -94 -1 -101 -20
-101 -26 0 -25 -12 0 -35 37 -34 48 -6 52 135 l3 125 -25 2 c-14 1 -40 -3 -57
-8z"/>
<path d="M140 6596 c0 -7 7 -19 15 -26 13 -10 18 -11 28 -1 9 10 8 15 -7 27
-25 18 -36 18 -36 0z"/>
<path d="M173 6219 c-47 -14 -42 -31 7 -23 l40 7 0 -102 c0 -94 -1 -101 -20
-101 -26 0 -25 -12 0 -35 37 -34 48 -6 52 135 l3 125 -25 2 c-14 1 -40 -3 -57
-8z"/>
<path d="M140 6146 c0 -7 7 -19 15 -26 13 -10 18 -11 28 -1 9 10 8 15 -7 27
-25 18 -36 18 -36 0z"/>
<path d="M138 6073 c-40 -27 -50 -53 -20 -53 17 0 82 58 82 73 0 14 -25 5 -62
-20z"/>
<path d="M345 5790 c-11 -5 -32 -9 -47 -9 -16 -1 -28 -6 -28 -12 0 -7 18 -9
48 -7 l47 3 0 -105 c0 -101 -1 -105 -22 -108 -29 -4 -29 -13 2 -42 40 -38 49
-17 56 133 5 112 4 134 -9 145 -18 14 -20 14 -47 2z"/>
<path d="M173 5769 c-47 -14 -42 -31 7 -23 l40 7 0 -102 c0 -94 -1 -101 -20
-101 -26 0 -25 -12 0 -35 37 -34 48 -6 52 135 l3 125 -25 2 c-14 1 -40 -3 -57
-8z"/>
<path d="M140 5696 c0 -7 7 -19 15 -26 13 -10 18 -11 28 -1 9 10 8 15 -7 27
-25 18 -36 18 -36 0z"/>
<path d="M138 5623 c-40 -27 -50 -53 -20 -53 17 0 82 58 82 73 0 14 -25 5 -62
-20z"/>
<path d="M345 5340 c-11 -5 -32 -9 -47 -9 -16 -1 -28 -6 -28 -12 0 -7 18 -9
48 -7 l47 3 0 -105 c0 -101 -1 -105 -22 -108 -29 -4 -29 -13 2 -42 40 -38 49
-17 56 133 5 112 4 134 -9 145 -18 14 -20 14 -47 2z"/>
<path d="M173 5319 c-47 -14 -42 -31 7 -23 l40 7 0 -102 c0 -94 -1 -101 -20
-101 -26 0 -25 -12 0 -35 37 -34 48 -6 52 135 l3 125 -25 2 c-14 1 -40 -3 -57
-8z"/>
<path d="M280 5257 c0 -17 20 -37 37 -37 20 0 15 28 -6 40 -26 13 -31 13 -31
-3z"/>
<path d="M140 5246 c0 -7 7 -19 15 -26 13 -10 18 -11 28 -1 9 10 8 15 -7 27
-25 18 -36 18 -36 0z"/>
<path d="M138 5173 c-40 -27 -50 -53 -20 -53 17 0 82 58 82 73 0 14 -25 5 -62
-20z"/>
<path d="M345 4890 c-11 -5 -32 -9 -47 -9 -16 -1 -28 -6 -28 -12 0 -7 18 -9
48 -7 l47 3 0 -105 c0 -101 -1 -105 -22 -108 -29 -4 -29 -13 2 -42 40 -38 49
-17 56 133 5 112 4 134 -9 145 -18 14 -20 14 -47 2z"/>
<path d="M173 4869 c-47 -14 -42 -31 7 -23 l40 7 0 -102 c0 -94 -1 -101 -20
-101 -26 0 -25 -12 0 -35 37 -34 48 -6 52 135 l3 125 -25 2 c-14 1 -40 -3 -57
-8z"/>
<path d="M280 4807 c0 -17 20 -37 37 -37 20 0 15 28 -6 40 -26 13 -31 13 -31
-3z"/>
<path d="M140 4796 c0 -7 7 -19 15 -26 13 -10 18 -11 28 -1 9 10 8 15 -7 27
-25 18 -36 18 -36 0z"/>
<path d="M303 4738 c-46 -34 -53 -52 -27 -62 9 -4 18 -5 19 -4 0 2 16 22 33
44 49 65 41 71 -25 22z"/>
<path d="M138 4723 c-40 -27 -50 -53 -20 -53 17 0 82 58 82 73 0 14 -25 5 -62
-20z"/>
</g>
</svg>
