<?xml version="1.0" standalone="no"?>
<!DOCTYPE svg PUBLIC "-//W3C//DTD SVG 20010904//EN"
 "http://www.w3.org/TR/2001/REC-SVG-20010904/DTD/svg10.dtd">
<svg version="1.0" xmlns="http://www.w3.org/2000/svg"
 width="50.000000pt" height="725.000000pt" viewBox="0 0 50.000000 725.000000"
 preserveAspectRatio="xMidYMid meet">
<metadata>
Created by potrace 1.16, written by Peter Selinger 2001-2019
</metadata>
<g transform="translate(0.000000,725.000000) scale(0.100000,-0.100000)"
fill="#000000" stroke="none">
<path d="M180 7141 c0 -6 6 -11 14 -11 8 0 17 -9 21 -19 8 -27 -5 -71 -21 -71
-19 0 -18 -14 2 -30 25 -21 42 7 46 75 l3 60 -32 3 c-19 2 -33 -1 -33 -7z"/>
<path d="M140 7130 c0 -5 5 -10 10 -10 6 0 10 5 10 10 0 6 -4 10 -10 10 -5 0
-10 -4 -10 -10z"/>
<path d="M180 6691 c0 -6 6 -11 14 -11 8 0 17 -9 21 -19 8 -27 -5 -71 -21 -71
-19 0 -18 -14 2 -30 25 -21 42 7 46 75 l3 60 -32 3 c-19 2 -33 -1 -33 -7z"/>
<path d="M140 6680 c0 -5 5 -10 10 -10 6 0 10 5 10 10 0 6 -4 10 -10 10 -5 0
-10 -4 -10 -10z"/>
<path d="M152 6648 c7 -19 38 -22 38 -4 0 10 -9 16 -21 16 -12 0 -19 -5 -17
-12z"/>
<path d="M180 6241 c0 -6 6 -11 14 -11 8 0 17 -9 21 -19 8 -27 -5 -71 -21 -71
-19 0 -18 -14 2 -30 25 -21 42 7 46 75 l3 60 -32 3 c-19 2 -33 -1 -33 -7z"/>
<path d="M140 6230 c0 -5 5 -10 10 -10 6 0 10 5 10 10 0 6 -4 10 -10 10 -5 0
-10 -4 -10 -10z"/>
<path d="M150 6200 c0 -5 7 -13 16 -18 13 -7 10 -11 -15 -22 -35 -14 -39 -25
-14 -34 25 -10 64 33 57 62 -6 21 -44 33 -44 12z"/>
<path d="M310 5801 c0 -6 9 -11 20 -11 17 0 20 -7 20 -45 0 -33 -4 -45 -15
-45 -19 0 -19 -9 0 -35 24 -31 43 -1 47 75 l3 65 -37 3 c-22 2 -38 -1 -38 -7z"/>
<path d="M180 5791 c0 -6 6 -11 14 -11 8 0 17 -9 21 -19 8 -27 -5 -71 -21 -71
-19 0 -18 -14 2 -30 25 -21 42 7 46 75 l3 60 -32 3 c-19 2 -33 -1 -33 -7z"/>
<path d="M140 5780 c0 -5 5 -10 10 -10 6 0 10 5 10 10 0 6 -4 10 -10 10 -5 0
-10 -4 -10 -10z"/>
<path d="M150 5750 c0 -5 7 -13 16 -18 13 -7 10 -11 -15 -22 -35 -14 -39 -25
-14 -34 25 -10 64 33 57 62 -6 21 -44 33 -44 12z"/>
<path d="M310 5351 c0 -6 9 -11 20 -11 17 0 20 -7 20 -45 0 -33 -4 -45 -15
-45 -19 0 -19 -9 0 -35 24 -31 43 -1 47 75 l3 65 -37 3 c-22 2 -38 -1 -38 -7z"/>
<path d="M180 5341 c0 -6 6 -11 14 -11 8 0 17 -9 21 -19 8 -27 -5 -71 -21 -71
-19 0 -18 -14 2 -30 25 -21 42 7 46 75 l3 60 -32 3 c-19 2 -33 -1 -33 -7z"/>
<path d="M140 5330 c0 -5 5 -10 10 -10 6 0 10 5 10 10 0 6 -4 10 -10 10 -5 0
-10 -4 -10 -10z"/>
<path d="M280 5323 c0 -13 22 -33 37 -33 7 0 13 7 13 15 0 8 -4 15 -9 15 -5 0
-16 3 -25 6 -9 3 -16 2 -16 -3z"/>
<path d="M150 5300 c0 -5 7 -13 16 -18 13 -7 10 -11 -15 -22 -35 -14 -39 -25
-14 -34 25 -10 64 33 57 62 -6 21 -44 33 -44 12z"/>
<path d="M310 4901 c0 -6 9 -11 20 -11 17 0 20 -7 20 -45 0 -33 -4 -45 -15
-45 -19 0 -19 -9 0 -35 24 -31 43 -1 47 75 l3 65 -37 3 c-22 2 -38 -1 -38 -7z"/>
<path d="M180 4891 c0 -6 6 -11 14 -11 8 0 17 -9 21 -19 8 -27 -5 -71 -21 -71
-19 0 -18 -14 2 -30 25 -21 42 7 46 75 l3 60 -32 3 c-19 2 -33 -1 -33 -7z"/>
<path d="M140 4880 c0 -5 5 -10 10 -10 6 0 10 5 10 10 0 6 -4 10 -10 10 -5 0
-10 -4 -10 -10z"/>
<path d="M280 4874 c0 -4 7 -15 16 -25 15 -17 14 -19 -10 -25 -14 -3 -26 -12
-26 -19 0 -25 20 -26 49 -3 21 16 28 29 24 43 -7 24 -3 21 -30 29 -13 4 -23 4
-23 0z"/>
<path d="M150 4850 c0 -5 7 -13 16 -18 13 -7 10 -11 -15 -22 -35 -14 -39 -25
-14 -34 25 -10 64 33 57 62 -6 21 -44 33 -44 12z"/>
<path d="M310 4451 c0 -6 9 -11 20 -11 17 0 20 -7 20 -45 0 -33 -4 -45 -15
-45 -19 0 -19 -9 0 -35 24 -31 43 -1 47 75 l3 65 -37 3 c-22 2 -38 -1 -38 -7z"/>
<path d="M180 4441 c0 -6 6 -11 14 -11 8 0 17 -9 21 -19 8 -27 -5 -71 -21 -71
-19 0 -18 -14 2 -30 25 -21 42 7 46 75 l3 60 -32 3 c-19 2 -33 -1 -33 -7z"/>
<path d="M140 4430 c0 -5 5 -10 10 -10 6 0 10 5 10 10 0 6 -4 10 -10 10 -5 0
-10 -4 -10 -10z"/>
<path d="M280 4424 c0 -4 7 -15 16 -25 15 -17 14 -19 -10 -25 -14 -3 -26 -12
-26 -19 0 -25 20 -26 49 -3 21 16 28 29 24 43 -7 24 -3 21 -30 29 -13 4 -23 4
-23 0z"/>
<path d="M150 4400 c0 -5 7 -13 16 -18 13 -7 10 -11 -15 -22 -35 -14 -39 -25
-14 -34 25 -10 64 33 57 62 -6 21 -44 33 -44 12z"/>
<path d="M230 4299 c-7 -11 -9 -23 -7 -26 9 -9 47 17 47 32 0 22 -28 18 -40
-6z"/>
<path d="M310 4001 c0 -6 9 -11 20 -11 17 0 20 -7 20 -45 0 -33 -4 -45 -15
-45 -19 0 -19 -9 0 -35 24 -31 43 -1 47 75 l3 65 -37 3 c-22 2 -38 -1 -38 -7z"/>
<path d="M180 3991 c0 -6 6 -11 14 -11 8 0 17 -9 21 -19 8 -27 -5 -71 -21 -71
-19 0 -18 -14 2 -30 25 -21 42 7 46 75 l3 60 -32 3 c-19 2 -33 -1 -33 -7z"/>
<path d="M140 3980 c0 -5 5 -10 10 -10 6 0 10 5 10 10 0 6 -4 10 -10 10 -5 0
-10 -4 -10 -10z"/>
<path d="M280 3974 c0 -4 7 -15 16 -25 15 -17 14 -19 -10 -25 -14 -3 -26 -12
-26 -19 0 -25 20 -26 49 -3 21 16 28 29 24 43 -7 24 -3 21 -30 29 -13 4 -23 4
-23 0z"/>
<path d="M150 3950 c0 -5 7 -13 16 -18 13 -7 10 -11 -15 -22 -35 -14 -39 -25
-14 -34 25 -10 64 33 57 62 -6 21 -44 33 -44 12z"/>
<path d="M230 3849 c-7 -11 -9 -23 -7 -26 9 -9 47 17 47 32 0 22 -28 18 -40
-6z"/>
<path d="M177 3763 c2 -75 1 -73 13 -73 6 0 10 28 10 65 0 45 -4 65 -12 65 -9
0 -13 -17 -11 -57z"/>
<path d="M310 3551 c0 -6 9 -11 20 -11 17 0 20 -7 20 -45 0 -33 -4 -45 -15
-45 -19 0 -19 -9 0 -35 24 -31 43 -1 47 75 l3 65 -37 3 c-22 2 -38 -1 -38 -7z"/>
<path d="M180 3541 c0 -6 6 -11 14 -11 8 0 17 -9 21 -19 8 -27 -5 -71 -21 -71
-19 0 -18 -14 2 -30 25 -21 42 7 46 75 l3 60 -32 3 c-19 2 -33 -1 -33 -7z"/>
<path d="M140 3530 c0 -5 5 -10 10 -10 6 0 10 5 10 10 0 6 -4 10 -10 10 -5 0
-10 -4 -10 -10z"/>
<path d="M280 3524 c0 -4 7 -15 16 -25 15 -17 14 -19 -10 -25 -14 -3 -26 -12
-26 -19 0 -25 20 -26 49 -3 21 16 28 29 24 43 -7 24 -3 21 -30 29 -13 4 -23 4
-23 0z"/>
<path d="M150 3500 c0 -5 7 -13 16 -18 13 -7 10 -11 -15 -22 -35 -14 -39 -25
-14 -34 25 -10 64 33 57 62 -6 21 -44 33 -44 12z"/>
<path d="M228 3395 c-7 -15 -20 -25 -32 -25 -19 0 -21 -5 -19 -57 2 -75 1 -73
12 -73 6 0 11 24 13 53 3 46 6 52 26 55 15 2 22 9 18 17 -2 7 2 16 10 19 19 7
18 36 -1 36 -9 0 -21 -11 -27 -25z"/>
<path d="M288 3383 c-37 -6 -36 -23 2 -23 28 0 30 -2 30 -40 0 -29 -4 -40 -15
-40 -18 0 -18 -5 -5 -31 6 -10 17 -19 25 -19 16 0 21 19 28 93 4 39 1 49 -14
57 -10 6 -19 9 -21 9 -2 -1 -15 -4 -30 -6z"/>
<path d="M310 3101 c0 -6 9 -11 20 -11 17 0 20 -7 20 -45 0 -33 -4 -45 -15
-45 -19 0 -19 -9 0 -35 24 -31 43 -1 47 75 l3 65 -37 3 c-22 2 -38 -1 -38 -7z"/>
<path d="M180 3091 c0 -6 6 -11 14 -11 8 0 17 -9 21 -19 8 -27 -5 -71 -21 -71
-19 0 -18 -14 2 -30 25 -21 42 7 46 75 l3 60 -32 3 c-19 2 -33 -1 -33 -7z"/>
<path d="M140 3080 c0 -5 5 -10 10 -10 6 0 10 5 10 10 0 6 -4 10 -10 10 -5 0
-10 -4 -10 -10z"/>
<path d="M280 3074 c0 -4 7 -15 16 -25 15 -17 14 -19 -10 -25 -14 -3 -26 -12
-26 -19 0 -25 20 -26 49 -3 21 16 28 29 24 43 -7 24 -3 21 -30 29 -13 4 -23 4
-23 0z"/>
<path d="M150 3050 c0 -5 7 -13 16 -18 13 -7 10 -11 -15 -22 -35 -14 -39 -25
-14 -34 25 -10 64 33 57 62 -6 21 -44 33 -44 12z"/>
<path d="M228 2945 c-7 -15 -20 -25 -32 -25 -19 0 -21 -5 -19 -57 2 -75 1 -73
13 -73 6 0 10 14 10 30 0 19 5 30 14 30 7 0 34 3 60 6 38 6 46 4 46 -10 0 -9
-7 -16 -15 -16 -18 0 -18 -5 -5 -31 6 -10 17 -19 25 -19 16 0 21 19 28 93 5
55 -8 68 -60 60 -41 -7 -43 -23 -3 -23 19 0 30 -5 30 -14 0 -9 -19 -15 -56
-20 -31 -4 -59 -4 -61 -2 -10 9 9 26 29 26 13 0 18 5 15 14 -3 8 1 17 9 20 19
7 18 36 -1 36 -9 0 -21 -11 -27 -25z"/>
<path d="M310 2651 c0 -6 9 -11 20 -11 17 0 20 -7 20 -45 0 -33 -4 -45 -15
-45 -19 0 -19 -9 0 -35 24 -31 43 -1 47 75 l3 65 -37 3 c-22 2 -38 -1 -38 -7z"/>
<path d="M180 2641 c0 -6 6 -11 14 -11 8 0 17 -9 21 -19 8 -27 -5 -71 -21 -71
-19 0 -18 -14 2 -30 25 -21 42 7 46 75 l3 60 -32 3 c-19 2 -33 -1 -33 -7z"/>
<path d="M140 2630 c0 -5 5 -10 10 -10 6 0 10 5 10 10 0 6 -4 10 -10 10 -5 0
-10 -4 -10 -10z"/>
<path d="M280 2624 c0 -4 7 -15 16 -25 15 -17 14 -19 -10 -25 -14 -3 -26 -12
-26 -19 0 -25 20 -26 49 -3 21 16 28 29 24 43 -7 24 -3 21 -30 29 -13 4 -23 4
-23 0z"/>
<path d="M150 2600 c0 -5 7 -13 16 -18 13 -7 10 -11 -15 -22 -35 -14 -39 -25
-14 -34 25 -10 64 33 57 62 -6 21 -44 33 -44 12z"/>
<path d="M228 2495 c-7 -15 -20 -25 -32 -25 -19 0 -21 -5 -20 -60 1 -34 3 -62
5 -64 2 -2 28 1 57 7 48 10 55 9 63 -6 6 -9 16 -17 24 -17 16 0 21 19 28 93 5
55 -8 68 -60 60 -41 -7 -43 -23 -3 -23 19 0 30 -5 30 -14 0 -9 -19 -15 -56
-20 -31 -4 -59 -4 -61 -2 -10 9 9 26 29 26 13 0 18 5 15 14 -3 8 1 17 9 20 19
7 18 36 -1 36 -9 0 -21 -11 -27 -25z m92 -100 c0 -11 -12 -15 -44 -15 -24 0
-51 -3 -60 -6 -10 -4 -16 -1 -16 9 0 10 12 17 33 20 71 9 87 7 87 -8z"/>
</g>
</svg>
