<?xml version="1.0" standalone="no"?>
<!DOCTYPE svg PUBLIC "-//W3C//DTD SVG 20010904//EN"
 "http://www.w3.org/TR/2001/REC-SVG-20010904/DTD/svg10.dtd">
<svg version="1.0" xmlns="http://www.w3.org/2000/svg"
 width="50.000000pt" height="725.000000pt" viewBox="0 0 50.000000 725.000000"
 preserveAspectRatio="xMidYMid meet">
<metadata>
Created by potrace 1.16, written by Peter Selinger 2001-2019
</metadata>
<g transform="translate(0.000000,725.000000) scale(0.100000,-0.100000)"
fill="#000000" stroke="none">
<path d="M170 7125 c-7 -14 -17 -25 -22 -25 -4 0 -8 -4 -8 -10 0 -17 23 -11
54 14 16 13 25 29 22 35 -12 18 -32 12 -46 -14z"/>
<path d="M170 6675 c-7 -14 -18 -25 -25 -25 -6 0 -17 -32 -24 -72 -6 -40 -18
-84 -26 -98 -16 -29 -19 -50 -6 -50 13 0 39 60 55 131 12 49 22 70 47 91 17
14 28 31 25 37 -12 18 -32 12 -46 -14z"/>
<path d="M170 6225 c-7 -14 -18 -25 -25 -25 -6 0 -16 -31 -23 -69 -6 -39 -19
-86 -29 -105 -18 -40 -11 -60 11 -30 15 20 46 119 46 147 0 9 7 17 16 17 10 0
14 6 11 15 -4 8 5 22 20 33 15 11 23 24 19 30 -12 19 -32 14 -46 -13z"/>
<path d="M190 6180 c0 -5 5 -10 10 -10 6 0 10 -11 10 -25 0 -32 14 -32 28 0
18 38 15 45 -18 45 -16 0 -30 -4 -30 -10z"/>
<path d="M170 5775 c-7 -14 -18 -25 -25 -25 -6 0 -16 -31 -23 -69 -6 -39 -19
-86 -29 -105 -9 -20 -13 -39 -9 -43 9 -10 26 18 47 77 10 30 22 46 35 48 50 7
61 13 72 37 18 38 15 45 -18 45 -29 0 -41 -15 -18 -22 6 -2 9 -12 5 -21 -8
-22 -57 -23 -57 -2 0 8 7 15 16 15 10 0 14 6 11 15 -4 8 5 22 20 33 15 11 23
24 19 30 -12 19 -32 14 -46 -13z"/>
<path d="M170 5325 c-7 -14 -18 -25 -25 -25 -6 0 -17 -32 -24 -72 -6 -40 -18
-84 -26 -98 -8 -14 -14 -31 -15 -37 0 -24 17 -13 34 20 l17 32 -6 -37 c-5 -31
-3 -38 10 -38 14 0 16 10 13 67 -3 61 -1 68 17 71 51 7 62 13 73 37 18 38 15
45 -18 45 -29 0 -41 -15 -18 -22 6 -2 9 -12 5 -21 -8 -22 -57 -23 -57 -2 0 8
7 15 16 15 10 0 14 6 11 15 -4 8 5 22 20 33 15 11 23 24 19 30 -12 19 -32 14
-46 -13z"/>
<path d="M170 4875 c-7 -14 -18 -25 -25 -25 -6 0 -17 -32 -24 -72 -6 -40 -18
-84 -26 -98 -8 -14 -14 -31 -15 -37 0 -24 17 -13 34 20 l17 32 -6 -37 c-5 -30
-3 -38 10 -38 11 0 15 12 15 50 0 38 4 50 15 50 8 0 15 5 15 10 0 6 -9 10 -21
10 -11 0 -17 5 -14 10 3 6 18 10 33 10 33 0 45 8 61 37 17 34 13 43 -19 43
-29 0 -41 -15 -18 -22 6 -2 9 -12 5 -21 -8 -22 -57 -23 -57 -2 0 8 7 15 16 15
10 0 14 6 11 15 -4 8 5 22 20 33 15 11 23 24 19 30 -12 19 -32 14 -46 -13z"/>
<path d="M200 4742 c0 -5 9 -12 19 -15 17 -4 19 -11 14 -48 -3 -24 -10 -47
-16 -50 -12 -8 -2 -39 13 -39 15 0 27 38 31 100 l4 55 -32 3 c-18 2 -33 -1
-33 -6z"/>
<path d="M170 4425 c-7 -14 -18 -25 -25 -25 -6 0 -17 -32 -24 -72 -6 -40 -18
-84 -26 -98 -8 -14 -14 -31 -15 -37 0 -24 17 -13 34 20 l17 32 -6 -37 c-5 -30
-3 -38 10 -38 11 0 15 12 15 50 0 38 4 50 15 50 8 0 15 5 15 10 0 6 -9 10 -21
10 -11 0 -17 5 -14 10 3 6 18 10 33 10 33 0 45 8 61 37 17 34 13 43 -19 43
-29 0 -41 -15 -18 -22 6 -2 9 -12 5 -21 -8 -22 -57 -23 -57 -2 0 8 7 15 16 15
10 0 14 6 11 15 -4 8 5 22 20 33 15 11 23 24 19 30 -12 19 -32 14 -46 -13z"/>
<path d="M200 4292 c0 -5 10 -13 23 -17 20 -7 18 -8 -15 -18 -46 -13 -50 -27
-8 -27 25 0 30 -4 30 -24 0 -13 -5 -26 -12 -28 -14 -5 -3 -38 12 -38 15 0 27
38 31 100 l4 55 -32 3 c-18 2 -33 -1 -33 -6z"/>
<path d="M170 3975 c-7 -14 -18 -25 -25 -25 -6 0 -17 -32 -24 -72 -6 -40 -18
-84 -26 -98 -8 -14 -14 -31 -15 -37 0 -24 17 -13 34 20 l17 32 -6 -37 c-5 -30
-3 -38 10 -38 9 0 15 10 16 28 1 16 3 20 6 10 6 -24 23 -23 23 2 0 15 7 20 25
20 20 0 25 -5 25 -24 0 -13 -5 -26 -12 -28 -14 -5 -3 -38 12 -38 15 0 27 38
31 100 l4 55 -32 3 c-37 4 -45 -12 -10 -22 21 -7 21 -7 2 -16 -34 -15 -47 -12
-40 10 5 17 2 20 -20 20 -15 0 -24 4 -20 10 3 6 18 10 33 10 33 0 45 8 61 37
17 34 13 43 -19 43 -29 0 -41 -15 -18 -22 6 -2 9 -12 5 -21 -8 -22 -57 -23
-57 -2 0 8 7 15 16 15 10 0 14 6 11 15 -4 8 5 22 20 33 15 11 23 24 19 30 -12
19 -32 14 -46 -13z m-13 -177 c-3 -8 -6 -5 -6 6 -1 11 2 17 5 13 3 -3 4 -12 1
-19z"/>
<path d="M170 3525 c-7 -14 -18 -25 -25 -25 -6 0 -17 -32 -24 -72 -6 -40 -18
-84 -26 -98 -8 -14 -14 -31 -15 -37 0 -24 17 -13 34 20 l17 32 -6 -37 c-5 -30
-3 -38 10 -38 9 0 15 10 16 28 1 16 3 20 6 10 6 -25 21 -22 26 5 l4 22 2 -22
c1 -28 21 -31 21 -3 0 11 5 20 10 20 14 0 12 -48 -2 -52 -14 -5 -3 -38 12 -38
15 0 27 38 31 100 l4 55 -63 -3 c-43 -2 -62 1 -57 8 3 5 18 10 33 10 33 0 45
8 61 37 17 34 13 43 -19 43 -29 0 -41 -15 -18 -22 6 -2 9 -12 5 -21 -8 -22
-57 -23 -57 -2 0 8 7 15 16 15 10 0 14 6 11 15 -4 8 5 22 20 33 15 11 23 24
19 30 -12 19 -32 14 -46 -13z m65 -155 c3 -5 -1 -10 -10 -10 -9 0 -13 5 -10
10 3 6 8 10 10 10 2 0 7 -4 10 -10z m-78 -22 c-3 -8 -6 -5 -6 6 -1 11 2 17 5
13 3 -3 4 -12 1 -19z"/>
<path d="M170 3075 c-7 -14 -18 -25 -25 -25 -6 0 -17 -32 -24 -72 -6 -40 -18
-84 -26 -98 -8 -14 -14 -31 -15 -37 0 -24 17 -13 34 20 l17 32 -6 -37 c-5 -30
-3 -38 10 -38 9 0 15 10 16 28 1 16 3 20 6 10 6 -25 21 -22 26 5 l4 22 2 -22
c1 -28 21 -31 21 -3 0 11 5 20 10 20 14 0 12 -48 -2 -52 -14 -5 -3 -38 12 -38
15 0 27 38 31 100 l4 55 -63 -3 c-43 -2 -62 1 -57 8 3 5 18 10 33 10 33 0 45
8 61 37 17 34 13 43 -19 43 -29 0 -41 -15 -18 -22 6 -2 9 -12 5 -21 -8 -22
-57 -23 -57 -2 0 8 7 15 16 15 10 0 14 6 11 15 -4 8 5 22 20 33 15 11 23 24
19 30 -12 19 -32 14 -46 -13z m65 -155 c3 -5 -1 -10 -10 -10 -9 0 -13 5 -10
10 3 6 8 10 10 10 2 0 7 -4 10 -10z m-78 -22 c-3 -8 -6 -5 -6 6 -1 11 2 17 5
13 3 -3 4 -12 1 -19z"/>
<path d="M300 3039 c-11 -8 -12 -12 -2 -16 8 -3 12 -32 12 -94 0 -72 -3 -89
-15 -89 -19 0 -19 -11 -1 -36 27 -36 41 -2 46 119 5 122 -2 143 -40 116z"/>
<path d="M170 2625 c-7 -14 -18 -25 -25 -25 -6 0 -17 -32 -24 -72 -6 -40 -18
-84 -26 -98 -8 -14 -14 -31 -15 -37 0 -24 17 -13 34 20 l17 32 -6 -37 c-5 -30
-3 -38 10 -38 9 0 15 10 16 28 1 16 3 20 6 10 6 -25 21 -22 26 5 l4 22 2 -22
c1 -28 21 -31 21 -3 0 11 5 20 10 20 14 0 12 -48 -2 -52 -14 -5 -3 -38 12 -38
15 0 27 38 31 100 l4 55 -63 -3 c-43 -2 -62 1 -57 8 3 5 18 10 33 10 33 0 45
8 61 37 17 34 13 43 -19 43 -29 0 -41 -15 -18 -22 6 -2 9 -12 5 -21 -8 -22
-57 -23 -57 -2 0 8 7 15 16 15 10 0 14 6 11 15 -4 8 5 22 20 33 15 11 23 24
19 30 -12 19 -32 14 -46 -13z m65 -155 c3 -5 -1 -10 -10 -10 -9 0 -13 5 -10
10 3 6 8 10 10 10 2 0 7 -4 10 -10z m-78 -22 c-3 -8 -6 -5 -6 6 -1 11 2 17 5
13 3 -3 4 -12 1 -19z"/>
<path d="M300 2589 c-11 -8 -12 -12 -2 -16 8 -3 12 -32 12 -94 0 -72 -3 -89
-15 -89 -19 0 -19 -11 -1 -36 27 -36 41 -2 46 119 5 122 -2 143 -40 116z"/>
<path d="M260 2522 c0 -10 22 -32 32 -32 4 0 8 9 8 20 0 13 -7 20 -20 20 -11
0 -20 -4 -20 -8z"/>
<path d="M170 2175 c-7 -14 -18 -25 -25 -25 -6 0 -17 -32 -24 -72 -6 -40 -18
-84 -26 -98 -8 -14 -14 -31 -15 -37 0 -24 17 -13 34 20 l17 32 -6 -37 c-5 -30
-3 -38 10 -38 9 0 15 10 16 28 1 16 3 20 6 10 6 -25 21 -22 26 5 l4 22 2 -22
c1 -28 21 -31 21 -3 0 11 5 20 10 20 6 0 10 -11 10 -25 0 -14 -5 -25 -11 -25
-6 0 -9 -8 -7 -17 6 -32 33 -20 42 20 5 20 15 37 22 37 7 0 18 8 23 18 9 14
10 11 11 -15 0 -23 -5 -33 -15 -33 -19 0 -19 -11 -1 -36 27 -36 41 -2 46 119
5 122 -2 143 -40 116 -11 -8 -12 -12 -2 -16 7 -3 12 -23 12 -51 -1 -38 -5 -50
-25 -65 -24 -17 -24 -17 -22 10 l2 28 -63 -3 c-43 -2 -62 1 -57 8 3 5 18 10
33 10 33 0 45 8 61 37 17 34 13 43 -19 43 -29 0 -41 -15 -18 -22 6 -2 9 -12 5
-21 -8 -22 -57 -23 -57 -2 0 8 7 15 16 15 10 0 14 6 11 15 -4 8 5 22 20 33 15
11 23 24 19 30 -12 19 -32 14 -46 -13z m65 -155 c3 -5 -1 -10 -10 -10 -9 0
-13 5 -10 10 3 6 8 10 10 10 2 0 7 -4 10 -10z m-78 -22 c-3 -8 -6 -5 -6 6 -1
11 2 17 5 13 3 -3 4 -12 1 -19z"/>
<path d="M260 2072 c0 -10 22 -32 32 -32 4 0 8 9 8 20 0 13 -7 20 -20 20 -11
0 -20 -4 -20 -8z"/>
<path d="M170 1725 c-7 -14 -18 -25 -25 -25 -6 0 -17 -32 -24 -72 -6 -40 -18
-84 -26 -98 -8 -14 -14 -31 -15 -37 0 -24 17 -13 34 20 l17 32 -6 -37 c-5 -30
-3 -38 10 -38 9 0 15 10 16 28 1 16 3 20 6 10 6 -25 21 -22 26 5 l4 22 2 -22
c1 -28 21 -31 21 -3 0 11 5 20 10 20 6 0 10 -11 10 -25 0 -14 -5 -25 -11 -25
-6 0 -9 -8 -7 -17 6 -32 33 -20 42 20 5 20 15 37 22 37 7 0 18 8 23 18 9 14
10 11 11 -15 0 -23 -5 -33 -15 -33 -19 0 -19 -11 -1 -36 27 -36 41 -2 46 119
5 122 -2 143 -40 116 -11 -8 -12 -12 -2 -16 7 -3 12 -23 12 -51 -1 -38 -5 -50
-25 -65 -24 -17 -24 -17 -22 10 l2 28 -63 -3 c-43 -2 -62 1 -57 8 3 5 18 10
33 10 33 0 45 8 61 37 17 34 13 43 -19 43 -29 0 -41 -15 -18 -22 6 -2 9 -12 5
-21 -8 -22 -57 -23 -57 -2 0 8 7 15 16 15 10 0 14 6 11 15 -4 8 5 22 20 33 15
11 23 24 19 30 -12 19 -32 14 -46 -13z m65 -155 c3 -5 -1 -10 -10 -10 -9 0
-13 5 -10 10 3 6 8 10 10 10 2 0 7 -4 10 -10z m-78 -22 c-3 -8 -6 -5 -6 6 -1
11 2 17 5 13 3 -3 4 -12 1 -19z"/>
<path d="M388 1703 c-22 -6 -24 -23 -3 -23 12 0 15 -18 15 -101 0 -96 -1 -100
-20 -94 -11 3 -20 2 -20 -3 0 -17 39 -44 55 -39 12 5 15 28 17 122 0 63 1 121
2 127 1 14 -19 19 -46 11z"/>
<path d="M260 1622 c0 -10 22 -32 32 -32 4 0 8 9 8 20 0 13 -7 20 -20 20 -11
0 -20 -4 -20 -8z"/>
<path d="M170 1275 c-7 -14 -18 -25 -25 -25 -6 0 -17 -32 -24 -72 -6 -40 -18
-84 -26 -98 -8 -14 -14 -31 -15 -37 0 -24 17 -13 34 20 l17 32 -6 -37 c-5 -30
-3 -38 10 -38 9 0 15 10 16 28 1 16 3 20 6 10 6 -25 21 -22 26 5 l4 22 2 -22
c1 -28 21 -31 21 -3 0 11 5 20 10 20 6 0 10 -11 10 -25 0 -14 -5 -25 -11 -25
-6 0 -9 -8 -7 -17 6 -32 33 -20 42 20 5 20 15 37 22 37 7 0 18 8 23 18 9 14
10 11 11 -15 0 -23 -5 -33 -15 -33 -19 0 -19 -11 -1 -36 27 -36 41 -2 46 119
5 122 -2 143 -40 116 -11 -8 -12 -12 -2 -16 7 -3 12 -23 12 -51 -1 -38 -5 -50
-25 -65 -24 -17 -24 -17 -22 10 l2 28 -63 -3 c-43 -2 -62 1 -57 8 3 5 18 10
33 10 33 0 45 8 61 37 17 34 13 43 -19 43 -29 0 -41 -15 -18 -22 6 -2 9 -12 5
-21 -8 -22 -57 -23 -57 -2 0 8 7 15 16 15 10 0 14 6 11 15 -4 8 5 22 20 33 15
11 23 24 19 30 -12 19 -32 14 -46 -13z m65 -155 c3 -5 -1 -10 -10 -10 -9 0
-13 5 -10 10 3 6 8 10 10 10 2 0 7 -4 10 -10z m-78 -22 c-3 -8 -6 -5 -6 6 -1
11 2 17 5 13 3 -3 4 -12 1 -19z"/>
<path d="M388 1253 c-22 -6 -24 -23 -3 -23 12 0 15 -18 15 -101 0 -96 -1 -100
-20 -94 -11 3 -20 2 -20 -3 0 -17 39 -44 55 -39 12 5 15 28 17 122 0 63 1 121
2 127 1 14 -19 19 -46 11z"/>
<path d="M350 1182 c0 -10 22 -32 32 -32 4 0 8 9 8 20 0 13 -7 20 -20 20 -11
0 -20 -4 -20 -8z"/>
<path d="M260 1172 c0 -10 22 -32 32 -32 4 0 8 9 8 20 0 13 -7 20 -20 20 -11
0 -20 -4 -20 -8z"/>
<path d="M170 825 c-7 -14 -18 -25 -25 -25 -6 0 -17 -32 -24 -72 -6 -40 -18
-84 -26 -98 -8 -14 -14 -31 -15 -37 0 -24 17 -13 34 20 l17 32 -6 -37 c-5 -30
-3 -38 10 -38 9 0 15 10 16 28 1 16 3 20 6 10 6 -25 21 -22 26 5 l4 22 2 -22
c1 -28 21 -31 21 -3 0 11 5 20 10 20 6 0 10 -11 10 -25 0 -14 -5 -25 -11 -25
-6 0 -9 -8 -7 -17 6 -32 33 -20 42 20 5 20 15 37 22 37 7 0 18 8 23 18 9 14
10 11 11 -15 0 -23 -5 -33 -15 -33 -8 0 -15 -4 -15 -8 0 -5 7 -17 15 -28 15
-19 15 -19 30 0 8 11 15 32 15 47 0 18 6 28 20 32 21 5 37 33 26 44 -3 3 -15
-2 -27 -13 l-21 -19 4 72 c4 75 -3 90 -37 77 -17 -7 -20 -24 -5 -24 6 0 10
-21 10 -47 -1 -39 -5 -51 -25 -66 -24 -17 -24 -17 -22 10 l2 28 -63 -3 c-43
-2 -62 1 -57 8 3 5 18 10 33 10 33 0 45 8 61 37 17 34 13 43 -19 43 -29 0 -41
-15 -18 -22 6 -2 9 -12 5 -21 -8 -22 -57 -23 -57 -2 0 8 7 15 16 15 10 0 14 6
11 15 -4 8 5 22 20 33 15 11 23 24 19 30 -12 19 -32 14 -46 -13z m65 -155 c3
-5 -1 -10 -10 -10 -9 0 -13 5 -10 10 3 6 8 10 10 10 2 0 7 -4 10 -10z m-78
-22 c-3 -8 -6 -5 -6 6 -1 11 2 17 5 13 3 -3 4 -12 1 -19z"/>
<path d="M388 803 c-22 -6 -24 -23 -3 -23 12 0 15 -18 15 -101 0 -96 -1 -100
-20 -94 -11 3 -20 2 -20 -3 0 -17 39 -44 55 -39 12 5 15 28 17 122 0 63 1 121
2 127 1 14 -19 19 -46 11z"/>
<path d="M350 732 c0 -10 22 -32 32 -32 4 0 8 9 8 20 0 13 -7 20 -20 20 -11 0
-20 -4 -20 -8z"/>
<path d="M260 722 c0 -10 22 -32 32 -32 4 0 8 9 8 20 0 13 -7 20 -20 20 -11 0
-20 -4 -20 -8z"/>
</g>
</svg>
