<?xml version="1.0" standalone="no"?>
<!DOCTYPE svg PUBLIC "-//W3C//DTD SVG 20010904//EN"
 "http://www.w3.org/TR/2001/REC-SVG-20010904/DTD/svg10.dtd">
<svg version="1.0" xmlns="http://www.w3.org/2000/svg"
 width="50.000000pt" height="725.000000pt" viewBox="0 0 50.000000 725.000000"
 preserveAspectRatio="xMidYMid meet">
<metadata>
Created by potrace 1.16, written by Peter Selinger 2001-2019
</metadata>
<g transform="translate(0.000000,725.000000) scale(0.100000,-0.100000)"
fill="#000000" stroke="none">
<path d="M153 7133 c-18 -2 -33 -9 -33 -14 0 -15 93 -6 98 9 4 12 -3 13 -65 5z"/>
<path d="M153 6683 c-18 -2 -33 -9 -33 -14 0 -15 93 -6 98 9 4 12 -3 13 -65 5z"/>
<path d="M114 6624 c3 -9 6 -22 6 -30 0 -8 5 -14 10 -14 6 0 10 14 10 30 0 21
-5 30 -16 30 -11 0 -14 -5 -10 -16z"/>
<path d="M153 6233 c-18 -2 -33 -9 -33 -14 0 -15 93 -6 98 9 4 12 -3 13 -65 5z"/>
<path d="M186 6173 c9 -38 13 -41 30 -18 18 25 13 39 -15 43 -19 3 -21 0 -15
-25z"/>
<path d="M114 6174 c3 -9 6 -22 6 -30 0 -8 5 -14 10 -14 6 0 10 9 10 20 0 11
7 20 15 20 8 0 15 5 15 10 0 6 -14 10 -31 10 -24 0 -30 -3 -25 -16z"/>
<path d="M153 5783 c-18 -2 -33 -9 -33 -14 0 -15 93 -6 98 9 4 12 -3 13 -65 5z"/>
<path d="M186 5726 c5 -23 3 -26 -20 -26 -14 0 -26 5 -26 10 0 6 7 10 15 10 8
0 15 5 15 10 0 6 -14 10 -31 10 -24 0 -30 -3 -25 -16 3 -9 6 -22 6 -30 0 -23
66 -18 91 7 24 24 21 43 -10 47 -19 3 -21 0 -15 -22z"/>
<path d="M153 5333 c-18 -2 -33 -9 -33 -14 0 -15 93 -6 98 9 4 12 -3 13 -65 5z"/>
<path d="M186 5276 c5 -23 3 -26 -20 -26 -14 0 -26 5 -26 10 0 6 7 10 15 10 8
0 15 5 15 10 0 6 -14 10 -31 10 -24 0 -30 -3 -25 -16 3 -9 6 -22 6 -30 0 -23
66 -18 91 7 24 24 21 43 -10 47 -19 3 -21 0 -15 -22z"/>
<path d="M94 5194 c3 -9 6 -40 6 -70 0 -30 5 -54 10 -54 6 0 10 30 10 70 0 58
-3 70 -16 70 -11 0 -14 -5 -10 -16z"/>
<path d="M153 4883 c-18 -2 -33 -9 -33 -14 0 -15 93 -6 98 9 4 12 -3 13 -65 5z"/>
<path d="M186 4826 c5 -23 3 -26 -20 -26 -14 0 -26 5 -26 10 0 6 7 10 15 10 8
0 15 5 15 10 0 6 -14 10 -31 10 -24 0 -30 -3 -25 -16 3 -9 6 -22 6 -30 0 -23
66 -18 91 7 24 24 21 43 -10 47 -19 3 -21 0 -15 -22z"/>
<path d="M137 4763 c-39 -3 -47 -7 -43 -19 3 -9 6 -40 6 -70 0 -30 5 -54 10
-54 6 0 10 27 10 60 0 52 3 60 19 60 10 0 33 3 50 6 l31 7 0 -57 c0 -43 -3
-56 -15 -56 -19 0 -19 -14 0 -30 24 -20 32 -3 38 83 l5 77 -31 -2 c-18 -1 -54
-3 -80 -5z"/>
<path d="M153 4433 c-18 -2 -33 -9 -33 -14 0 -15 93 -6 98 9 4 12 -3 13 -65 5z"/>
<path d="M186 4376 c5 -23 3 -26 -20 -26 -14 0 -26 5 -26 10 0 6 7 10 15 10 8
0 15 5 15 10 0 6 -14 10 -31 10 -24 0 -30 -3 -25 -16 3 -9 6 -22 6 -30 0 -23
66 -18 91 7 24 24 21 43 -10 47 -19 3 -21 0 -15 -22z"/>
<path d="M137 4313 c-39 -3 -47 -7 -43 -19 3 -9 6 -40 6 -70 0 -30 5 -54 10
-54 6 0 10 28 11 63 0 52 2 58 11 40 13 -28 28 -30 28 -4 0 19 18 31 46 31 10
0 14 -14 14 -55 0 -42 -3 -55 -15 -55 -19 0 -19 -14 0 -30 24 -20 32 -3 38 83
l5 77 -31 -2 c-18 -1 -54 -3 -80 -5z"/>
<path d="M153 3983 c-18 -2 -33 -9 -33 -14 0 -15 93 -6 98 9 4 12 -3 13 -65 5z"/>
<path d="M186 3926 c5 -23 3 -26 -20 -26 -14 0 -26 5 -26 10 0 6 7 10 15 10 8
0 15 5 15 10 0 6 -14 10 -31 10 -24 0 -30 -3 -25 -16 3 -9 6 -22 6 -30 0 -23
66 -18 91 7 24 24 21 43 -10 47 -19 3 -21 0 -15 -22z"/>
<path d="M137 3863 c-39 -3 -47 -7 -43 -19 3 -9 6 -40 6 -70 0 -30 5 -54 10
-54 6 0 10 28 11 63 0 52 2 58 11 40 14 -28 28 -30 28 -3 0 11 4 20 10 20 5 0
7 -7 4 -15 -9 -23 13 -18 30 7 15 21 16 20 16 -35 0 -44 -3 -57 -15 -57 -19 0
-19 -14 0 -30 24 -20 32 -3 38 83 l5 77 -31 -2 c-18 -1 -54 -3 -80 -5z"/>
<path d="M153 3533 c-18 -2 -33 -9 -33 -14 0 -15 93 -6 98 9 4 12 -3 13 -65 5z"/>
<path d="M186 3476 c5 -23 3 -26 -20 -26 -14 0 -26 5 -26 10 0 6 7 10 15 10 8
0 15 5 15 10 0 6 -14 10 -31 10 -24 0 -30 -3 -25 -16 3 -9 6 -22 6 -30 0 -23
66 -18 91 7 24 24 21 43 -10 47 -19 3 -21 0 -15 -22z"/>
<path d="M137 3413 c-39 -3 -47 -7 -43 -19 3 -9 6 -40 6 -70 0 -30 5 -54 10
-54 6 0 10 28 11 63 1 55 2 59 12 35 9 -23 17 -28 44 -28 30 0 46 14 24 22 -5
2 -3 12 5 22 13 18 14 15 14 -37 0 -44 -3 -57 -15 -57 -19 0 -19 -14 0 -30 24
-20 32 -3 38 83 l5 77 -31 -2 c-18 -1 -54 -3 -80 -5z m37 -38 c-4 -8 -8 -15
-10 -15 -2 0 -4 7 -4 15 0 8 4 15 10 15 5 0 7 -7 4 -15z"/>
<path d="M153 3083 c-18 -2 -33 -9 -33 -14 0 -15 93 -6 98 9 4 12 -3 13 -65 5z"/>
<path d="M186 3026 c5 -23 3 -26 -20 -26 -14 0 -26 5 -26 10 0 6 7 10 15 10 8
0 15 5 15 10 0 6 -14 10 -31 10 -24 0 -30 -3 -25 -16 3 -9 6 -22 6 -30 0 -23
66 -18 91 7 24 24 21 43 -10 47 -19 3 -21 0 -15 -22z"/>
<path d="M137 2963 c-39 -3 -47 -7 -43 -19 3 -9 6 -40 6 -70 0 -30 5 -54 10
-54 6 0 10 28 10 63 l1 62 18 -37 c11 -21 17 -47 14 -58 -4 -14 0 -20 11 -20
11 0 16 9 16 30 0 20 5 30 15 30 16 0 21 16 6 22 -5 2 -3 12 5 22 13 18 14 15
14 -37 0 -44 -3 -57 -15 -57 -19 0 -19 -14 0 -30 24 -20 32 -3 38 83 l5 77
-31 -2 c-18 -1 -54 -3 -80 -5z m37 -38 c-4 -8 -8 -15 -10 -15 -2 0 -4 7 -4 15
0 8 4 15 10 15 5 0 7 -7 4 -15z"/>
<path d="M153 2633 c-18 -2 -33 -9 -33 -14 0 -15 93 -6 98 9 4 12 -3 13 -65 5z"/>
<path d="M273 2603 c-21 -8 -15 -26 7 -20 19 5 20 0 20 -78 0 -65 -3 -86 -15
-93 -19 -10 -10 -42 11 -42 20 0 21 9 28 133 6 106 6 107 -17 106 -12 0 -28
-3 -34 -6z"/>
<path d="M186 2576 c5 -23 3 -26 -20 -26 -14 0 -26 5 -26 10 0 6 7 10 15 10 8
0 15 5 15 10 0 6 -14 10 -31 10 -24 0 -30 -3 -25 -16 3 -9 6 -22 6 -30 0 -23
66 -18 91 7 24 24 21 43 -10 47 -19 3 -21 0 -15 -22z"/>
<path d="M137 2513 c-39 -3 -47 -7 -43 -19 3 -9 6 -40 6 -70 0 -30 5 -54 10
-54 6 0 10 28 10 63 l1 62 18 -37 c11 -21 17 -47 14 -58 -4 -14 0 -20 11 -20
11 0 16 9 16 30 0 20 5 30 15 30 16 0 21 16 6 22 -5 2 -3 12 5 22 13 18 14 15
14 -37 0 -44 -3 -57 -15 -57 -19 0 -19 -14 0 -30 24 -20 32 -3 38 83 l5 77
-31 -2 c-18 -1 -54 -3 -80 -5z m37 -38 c-4 -8 -8 -15 -10 -15 -2 0 -4 7 -4 15
0 8 4 15 10 15 5 0 7 -7 4 -15z"/>
<path d="M153 2183 c-18 -2 -33 -9 -33 -14 0 -15 93 -6 98 9 4 12 -3 13 -65 5z"/>
<path d="M273 2153 c-21 -8 -15 -26 7 -20 19 5 20 0 20 -78 0 -65 -3 -86 -15
-93 -19 -10 -10 -42 11 -42 20 0 21 9 28 133 6 106 6 107 -17 106 -12 0 -28
-3 -34 -6z"/>
<path d="M186 2126 c5 -23 3 -26 -20 -26 -14 0 -26 5 -26 10 0 6 7 10 15 10 8
0 15 5 15 10 0 6 -14 10 -31 10 -24 0 -30 -3 -25 -16 3 -9 6 -22 6 -30 0 -23
66 -18 91 7 24 24 21 43 -10 47 -19 3 -21 0 -15 -22z"/>
<path d="M254 2095 c3 -9 6 -19 6 -21 0 -2 7 -4 16 -4 22 0 13 34 -10 38 -14
3 -17 0 -12 -13z"/>
<path d="M137 2063 c-39 -3 -47 -7 -43 -19 3 -9 6 -40 6 -70 0 -30 5 -54 10
-54 6 0 10 28 10 63 l1 62 18 -37 c11 -21 17 -47 14 -58 -4 -14 0 -20 11 -20
11 0 16 9 16 30 0 20 5 30 15 30 16 0 21 16 6 22 -5 2 -3 12 5 22 13 18 14 15
14 -37 0 -44 -3 -57 -15 -57 -19 0 -19 -14 0 -30 24 -20 32 -3 38 83 l5 77
-31 -2 c-18 -1 -54 -3 -80 -5z m37 -38 c-4 -8 -8 -15 -10 -15 -2 0 -4 7 -4 15
0 8 4 15 10 15 5 0 7 -7 4 -15z"/>
<path d="M153 1733 c-18 -2 -33 -9 -33 -14 0 -15 93 -6 98 9 4 12 -3 13 -65 5z"/>
<path d="M273 1703 c-21 -8 -15 -26 7 -20 19 5 20 0 20 -78 0 -65 -3 -86 -15
-93 -19 -10 -10 -42 11 -42 20 0 21 9 28 133 6 106 6 107 -17 106 -12 0 -28
-3 -34 -6z"/>
<path d="M186 1676 c5 -23 3 -26 -20 -26 -14 0 -26 5 -26 10 0 6 7 10 15 10 8
0 15 5 15 10 0 6 -14 10 -31 10 -24 0 -30 -3 -25 -16 3 -9 6 -22 6 -30 0 -23
66 -18 91 7 24 24 21 43 -10 47 -19 3 -21 0 -15 -22z"/>
<path d="M254 1645 c3 -9 6 -19 6 -21 0 -2 7 -4 16 -4 22 0 13 34 -10 38 -14
3 -17 0 -12 -13z"/>
<path d="M137 1613 c-39 -3 -47 -7 -43 -19 3 -9 6 -40 6 -70 0 -30 5 -54 10
-54 6 0 10 28 10 63 l1 62 18 -37 c11 -21 17 -47 14 -58 -4 -14 0 -20 11 -20
11 0 16 9 16 30 0 20 5 30 15 30 16 0 21 16 6 22 -5 2 -3 12 5 22 13 18 14 15
14 -37 0 -44 -3 -57 -15 -57 -19 0 -19 -14 0 -30 24 -20 32 -3 38 83 l5 77
-31 -2 c-18 -1 -54 -3 -80 -5z m37 -38 c-4 -8 -8 -15 -10 -15 -2 0 -4 7 -4 15
0 8 4 15 10 15 5 0 7 -7 4 -15z"/>
<path d="M262 1578 c-14 -14 -16 -38 -2 -38 9 0 30 31 30 44 0 10 -15 7 -28
-6z"/>
<path d="M153 1283 c-18 -2 -33 -9 -33 -14 0 -15 93 -6 98 9 4 12 -3 13 -65 5z"/>
<path d="M368 1273 c-22 -5 -24 -23 -3 -23 12 0 15 -18 15 -100 0 -82 -3 -100
-15 -100 -19 0 -19 -14 0 -30 30 -25 40 5 45 128 5 106 0 135 -20 131 -3 -1
-13 -3 -22 -6z"/>
<path d="M273 1253 c-21 -8 -15 -26 7 -20 19 5 20 0 20 -78 0 -65 -3 -86 -15
-93 -19 -10 -10 -42 11 -42 20 0 21 9 28 133 6 106 6 107 -17 106 -12 0 -28
-3 -34 -6z"/>
<path d="M186 1226 c5 -23 3 -26 -20 -26 -14 0 -26 5 -26 10 0 6 7 10 15 10 8
0 15 5 15 10 0 6 -14 10 -31 10 -24 0 -30 -3 -25 -16 3 -9 6 -22 6 -30 0 -23
66 -18 91 7 24 24 21 43 -10 47 -19 3 -21 0 -15 -22z"/>
<path d="M254 1195 c3 -9 6 -19 6 -21 0 -2 7 -4 16 -4 22 0 13 34 -10 38 -14
3 -17 0 -12 -13z"/>
<path d="M137 1163 c-39 -3 -47 -7 -43 -19 3 -9 6 -40 6 -70 0 -30 5 -54 10
-54 6 0 10 28 10 63 l1 62 18 -37 c11 -21 17 -47 14 -58 -4 -14 0 -20 11 -20
11 0 16 9 16 30 0 20 5 30 15 30 16 0 21 16 6 22 -5 2 -3 12 5 22 13 18 14 15
14 -37 0 -44 -3 -57 -15 -57 -19 0 -19 -14 0 -30 24 -20 32 -3 38 83 l5 77
-31 -2 c-18 -1 -54 -3 -80 -5z m37 -38 c-4 -8 -8 -15 -10 -15 -2 0 -4 7 -4 15
0 8 4 15 10 15 5 0 7 -7 4 -15z"/>
<path d="M262 1128 c-14 -14 -16 -38 -2 -38 9 0 30 31 30 44 0 10 -15 7 -28
-6z"/>
<path d="M153 833 c-18 -2 -33 -9 -33 -14 0 -15 93 -6 98 9 4 12 -3 13 -65 5z"/>
<path d="M368 823 c-22 -5 -24 -23 -3 -23 12 0 15 -18 15 -100 0 -82 -3 -100
-15 -100 -19 0 -19 -14 0 -30 30 -25 40 5 45 128 5 106 0 135 -20 131 -3 -1
-13 -3 -22 -6z"/>
<path d="M273 803 c-21 -8 -15 -26 7 -20 19 5 20 0 20 -78 0 -65 -3 -86 -15
-93 -19 -10 -10 -42 11 -42 20 0 21 9 28 133 6 106 6 107 -17 106 -12 0 -28
-3 -34 -6z"/>
<path d="M186 776 c5 -23 3 -26 -20 -26 -14 0 -26 5 -26 10 0 6 7 10 15 10 8
0 15 5 15 10 0 6 -14 10 -31 10 -24 0 -30 -3 -25 -16 3 -9 6 -22 6 -30 0 -23
66 -18 91 7 24 24 21 43 -10 47 -19 3 -21 0 -15 -22z"/>
<path d="M254 745 c3 -9 6 -19 6 -21 0 -2 7 -4 16 -4 22 0 13 34 -10 38 -14 3
-17 0 -12 -13z"/>
<path d="M342 744 c1 -9 9 -19 16 -22 9 -3 13 2 10 14 -1 9 -9 19 -16 22 -9 3
-13 -2 -10 -14z"/>
<path d="M137 713 c-39 -3 -47 -7 -43 -19 3 -9 6 -40 6 -70 0 -30 5 -54 10
-54 6 0 10 28 10 63 l1 62 18 -37 c11 -21 17 -47 14 -58 -4 -14 0 -20 11 -20
11 0 16 9 16 30 0 20 5 30 15 30 16 0 21 16 6 22 -5 2 -3 12 5 22 13 18 14 15
14 -37 0 -44 -3 -57 -15 -57 -19 0 -19 -14 0 -30 24 -20 32 -3 38 83 l5 77
-31 -2 c-18 -1 -54 -3 -80 -5z m37 -38 c-4 -8 -8 -15 -10 -15 -2 0 -4 7 -4 15
0 8 4 15 10 15 5 0 7 -7 4 -15z"/>
<path d="M262 678 c-14 -14 -16 -38 -2 -38 9 0 30 31 30 44 0 10 -15 7 -28 -6z"/>
<path d="M153 383 c-18 -2 -33 -9 -33 -14 0 -15 93 -6 98 9 4 12 -3 13 -65 5z"/>
<path d="M368 373 c-22 -5 -24 -23 -3 -23 11 0 15 -12 15 -46 0 -37 -5 -50
-25 -66 -14 -11 -25 -24 -25 -29 0 -16 29 -10 39 9 8 13 10 8 11 -25 0 -32 -4
-43 -15 -43 -19 0 -19 -14 0 -30 30 -25 40 5 45 128 5 106 0 135 -20 131 -3
-1 -13 -3 -22 -6z"/>
<path d="M273 353 c-21 -8 -15 -26 7 -20 19 5 20 0 20 -78 0 -65 -3 -86 -15
-93 -19 -10 -10 -42 11 -42 20 0 21 9 28 133 6 106 6 107 -17 106 -12 0 -28
-3 -34 -6z"/>
<path d="M186 326 c5 -23 3 -26 -20 -26 -14 0 -26 5 -26 10 0 6 7 10 15 10 8
0 15 5 15 10 0 6 -14 10 -31 10 -24 0 -30 -3 -25 -16 3 -9 6 -22 6 -30 0 -23
66 -18 91 7 24 24 21 43 -10 47 -19 3 -21 0 -15 -22z"/>
<path d="M254 295 c3 -9 6 -19 6 -21 0 -2 7 -4 16 -4 22 0 13 34 -10 38 -14 3
-17 0 -12 -13z"/>
<path d="M342 294 c1 -9 9 -19 16 -22 9 -3 13 2 10 14 -1 9 -9 19 -16 22 -9 3
-13 -2 -10 -14z"/>
<path d="M137 263 c-39 -3 -47 -7 -43 -19 3 -9 6 -40 6 -70 0 -30 5 -54 10
-54 6 0 10 28 10 63 l1 62 18 -37 c11 -21 17 -47 14 -58 -4 -14 0 -20 11 -20
11 0 16 9 16 30 0 20 5 30 15 30 16 0 21 16 6 22 -5 2 -3 12 5 22 13 18 14 15
14 -37 0 -44 -3 -57 -15 -57 -19 0 -19 -14 0 -30 24 -20 32 -3 38 83 l5 77
-31 -2 c-18 -1 -54 -3 -80 -5z m37 -38 c-4 -8 -8 -15 -10 -15 -2 0 -4 7 -4 15
0 8 4 15 10 15 5 0 7 -7 4 -15z"/>
<path d="M262 228 c-14 -14 -16 -38 -2 -38 9 0 30 31 30 44 0 10 -15 7 -28 -6z"/>
</g>
</svg>
