<?xml version="1.0" standalone="no"?>
<!DOCTYPE svg PUBLIC "-//W3C//DTD SVG 20010904//EN"
 "http://www.w3.org/TR/2001/REC-SVG-20010904/DTD/svg10.dtd">
<svg version="1.0" xmlns="http://www.w3.org/2000/svg"
 width="50.000000pt" height="725.000000pt" viewBox="0 0 50.000000 725.000000"
 preserveAspectRatio="xMidYMid meet">
<metadata>
Created by potrace 1.16, written by Peter Selinger 2001-2019
</metadata>
<g transform="translate(0.000000,725.000000) scale(0.100000,-0.100000)"
fill="#000000" stroke="none">
<path d="M175 7096 c-22 -11 -42 -22 -44 -23 -2 -2 -2 -6 2 -9 9 -10 108 27
104 39 -5 17 -20 16 -62 -7z"/>
<path d="M175 6646 c-22 -11 -42 -22 -44 -23 -2 -2 -2 -6 2 -9 9 -10 108 27
104 39 -5 17 -20 16 -62 -7z"/>
<path d="M156 6591 c-16 -3 -31 -12 -34 -20 -3 -9 2 -11 14 -8 11 3 36 8 57
12 20 3 37 10 37 15 0 11 -29 11 -74 1z"/>
<path d="M175 6196 c-22 -11 -42 -22 -44 -23 -2 -2 -2 -6 2 -9 9 -10 108 27
104 39 -5 17 -20 16 -62 -7z"/>
<path d="M156 6141 c-16 -3 -31 -12 -34 -20 -3 -9 2 -11 14 -8 11 3 36 8 57
12 20 3 37 10 37 15 0 11 -29 11 -74 1z"/>
<path d="M138 6088 c-32 -6 -58 -14 -58 -19 0 -12 16 -11 100 3 38 7 70 16 70
20 0 10 -38 8 -112 -4z"/>
<path d="M166 5774 c6 -30 4 -36 -15 -41 -24 -6 -29 -23 -6 -23 22 0 18 -17
-5 -23 -11 -3 -20 -10 -20 -17 0 -7 8 -9 20 -5 14 4 20 2 20 -9 0 -11 -13 -18
-40 -22 -54 -9 -53 -28 1 -21 l41 5 -6 -69 c-6 -59 -5 -69 8 -69 13 0 16 12
16 53 0 80 8 97 41 97 16 0 29 5 29 10 0 6 -13 10 -30 10 -34 0 -41 19 -10 27
11 3 20 9 20 14 0 5 -9 9 -20 9 -29 0 -25 27 5 34 26 7 32 20 15 31 -6 4 -18
1 -27 -6 -14 -12 -15 -10 -9 19 7 28 5 32 -14 32 -19 0 -20 -4 -14 -36z"/>
<path d="M166 5324 c6 -30 4 -36 -15 -41 -24 -6 -29 -23 -6 -23 22 0 18 -17
-5 -23 -11 -3 -20 -10 -20 -17 0 -7 8 -9 20 -5 14 4 20 2 20 -9 0 -11 -13 -18
-40 -22 -49 -8 -54 -28 -6 -22 l34 4 -19 -28 c-11 -15 -28 -32 -37 -37 -9 -5
-14 -12 -10 -16 7 -8 40 8 63 31 15 15 15 13 9 -35 -6 -43 -4 -51 10 -51 13 0
16 11 16 53 0 80 8 97 41 97 16 0 29 5 29 10 0 6 -13 10 -30 10 -34 0 -41 19
-10 27 11 3 20 9 20 14 0 5 -9 9 -20 9 -29 0 -25 27 5 34 26 7 32 20 15 31 -6
4 -18 1 -27 -6 -14 -12 -15 -10 -9 19 7 28 5 32 -14 32 -19 0 -20 -4 -14 -36z"/>
<path d="M166 4874 c6 -30 4 -36 -15 -41 -24 -6 -29 -23 -6 -23 22 0 18 -17
-5 -23 -11 -3 -20 -10 -20 -17 0 -7 8 -9 20 -5 14 4 20 2 20 -9 0 -11 -13 -18
-40 -22 -49 -8 -54 -28 -6 -22 l34 4 -19 -28 c-11 -15 -28 -32 -37 -37 -9 -5
-14 -12 -10 -16 7 -8 40 8 63 31 15 15 15 13 9 -35 -6 -43 -4 -51 10 -51 13 0
16 11 16 62 0 59 1 60 18 45 23 -21 32 -21 32 -1 0 9 -9 18 -20 21 -30 8 -24
23 10 23 17 0 30 5 30 10 0 6 -13 10 -30 10 -34 0 -41 19 -10 27 11 3 20 9 20
14 0 5 -9 9 -20 9 -29 0 -25 27 5 34 26 7 32 20 15 31 -6 4 -18 1 -27 -6 -14
-12 -15 -10 -9 19 7 28 5 32 -14 32 -19 0 -20 -4 -14 -36z"/>
<path d="M166 4424 c6 -30 4 -36 -15 -41 -24 -6 -29 -23 -6 -23 22 0 18 -17
-5 -23 -11 -3 -20 -10 -20 -17 0 -7 8 -9 20 -5 14 4 20 2 20 -9 0 -11 -13 -18
-40 -22 -49 -8 -54 -28 -6 -22 l34 4 -19 -28 c-11 -15 -28 -32 -37 -37 -9 -5
-14 -12 -10 -16 7 -8 40 8 63 31 15 15 15 13 9 -35 -6 -43 -4 -51 10 -51 13 0
16 11 16 62 0 59 1 60 18 45 23 -21 32 -21 32 -1 0 9 -9 18 -20 21 -30 8 -24
23 10 23 17 0 30 5 30 10 0 6 -13 10 -30 10 -34 0 -41 19 -10 27 11 3 20 9 20
14 0 5 -9 9 -20 9 -29 0 -25 27 5 34 26 7 32 20 15 31 -6 4 -18 1 -27 -6 -14
-12 -15 -10 -9 19 7 28 5 32 -14 32 -19 0 -20 -4 -14 -36z"/>
<path d="M322 4390 c-66 -15 -56 -35 12 -25 29 5 46 12 46 21 0 15 -8 16 -58
4z"/>
<path d="M166 3974 c6 -30 4 -36 -15 -41 -24 -6 -29 -23 -6 -23 22 0 18 -17
-5 -23 -11 -3 -20 -10 -20 -17 0 -7 8 -9 20 -5 14 4 20 2 20 -9 0 -11 -13 -18
-40 -22 -49 -8 -54 -28 -6 -22 l34 4 -19 -28 c-11 -15 -28 -32 -37 -37 -9 -5
-14 -12 -10 -16 7 -8 40 8 63 31 15 15 15 13 9 -35 -6 -43 -4 -51 10 -51 13 0
16 11 16 62 0 59 1 60 18 45 23 -21 32 -21 32 -1 0 9 -9 18 -20 21 -11 3 -20
9 -20 13 0 8 147 30 203 30 26 0 37 4 37 15 0 19 -43 19 -135 0 -38 -8 -78
-15 -87 -15 -25 0 -23 21 2 27 11 3 20 9 20 14 0 5 -9 9 -20 9 -29 0 -25 27 5
34 26 7 32 20 15 31 -6 4 -18 1 -27 -6 -14 -12 -15 -10 -9 19 7 28 5 32 -14
32 -19 0 -20 -4 -14 -36z"/>
<path d="M322 3940 c-66 -15 -56 -35 12 -25 29 5 46 12 46 21 0 15 -8 16 -58
4z"/>
<path d="M166 3524 c6 -30 4 -36 -15 -41 -24 -6 -29 -23 -6 -23 22 0 18 -17
-5 -23 -11 -3 -20 -10 -20 -17 0 -7 8 -9 20 -5 14 4 20 2 20 -9 0 -11 -13 -18
-40 -22 -49 -8 -54 -28 -6 -22 l34 4 -19 -28 c-11 -15 -28 -32 -37 -37 -9 -5
-14 -12 -10 -16 7 -8 40 8 63 31 15 15 15 13 9 -35 -6 -43 -4 -51 10 -51 13 0
16 11 16 62 0 59 1 60 18 45 23 -21 32 -21 32 -1 0 9 -9 18 -20 21 -25 7 -26
23 -2 23 9 0 34 3 55 6 46 8 47 -3 6 -51 -41 -47 -30 -59 39 -44 58 14 69 29
21 29 l-30 0 20 29 c12 16 21 34 21 40 0 6 19 11 45 11 33 0 45 4 45 15 0 19
-43 19 -135 0 -38 -8 -78 -15 -87 -15 -25 0 -23 21 2 27 11 3 20 9 20 14 0 5
-9 9 -20 9 -29 0 -25 27 5 34 26 7 32 20 15 31 -6 4 -18 1 -27 -6 -14 -12 -15
-10 -9 19 7 28 5 32 -14 32 -19 0 -20 -4 -14 -36z"/>
<path d="M322 3490 c-66 -15 -56 -35 12 -25 29 5 46 12 46 21 0 15 -8 16 -58
4z"/>
<path d="M370 3320 c0 -5 7 -10 15 -10 8 0 15 5 15 10 0 6 -7 10 -15 10 -8 0
-15 -4 -15 -10z"/>
<path d="M166 3074 c6 -30 4 -36 -15 -41 -24 -6 -29 -23 -6 -23 22 0 18 -17
-5 -23 -11 -3 -20 -10 -20 -17 0 -7 8 -9 20 -5 14 4 20 2 20 -9 0 -11 -13 -18
-40 -22 -49 -8 -54 -28 -6 -22 l34 4 -19 -28 c-11 -15 -28 -32 -37 -37 -9 -5
-14 -12 -10 -16 7 -8 40 8 63 31 15 15 15 13 9 -35 -6 -43 -4 -51 10 -51 13 0
16 11 16 62 0 59 1 60 18 45 23 -21 32 -21 32 -1 0 9 -9 18 -20 21 -25 7 -26
23 -2 23 9 0 34 3 55 6 46 8 47 -3 6 -51 -41 -47 -30 -59 39 -44 58 14 69 29
21 29 l-30 0 20 29 c12 16 21 34 21 40 0 6 19 11 45 11 33 0 45 4 45 15 0 19
-43 19 -135 0 -38 -8 -78 -15 -87 -15 -25 0 -23 21 2 27 11 3 20 9 20 14 0 5
-9 9 -20 9 -29 0 -25 27 5 34 26 7 32 20 15 31 -6 4 -18 1 -27 -6 -14 -12 -15
-10 -9 19 7 28 5 32 -14 32 -19 0 -20 -4 -14 -36z"/>
<path d="M322 3040 c-66 -15 -56 -35 12 -25 29 5 46 12 46 21 0 15 -8 16 -58
4z"/>
<path d="M365 2889 c9 -28 36 -59 52 -59 23 0 14 38 -13 59 -34 27 -47 27 -39
0z"/>
</g>
</svg>
