<?xml version="1.0" standalone="no"?>
<!DOCTYPE svg PUBLIC "-//W3C//DTD SVG 20010904//EN"
 "http://www.w3.org/TR/2001/REC-SVG-20010904/DTD/svg10.dtd">
<svg version="1.0" xmlns="http://www.w3.org/2000/svg"
 width="50.000000pt" height="725.000000pt" viewBox="0 0 50.000000 725.000000"
 preserveAspectRatio="xMidYMid meet">
<metadata>
Created by potrace 1.16, written by Peter Selinger 2001-2019
</metadata>
<g transform="translate(0.000000,725.000000) scale(0.100000,-0.100000)"
fill="#000000" stroke="none">
<path d="M133 7113 c-21 -3 -33 -10 -33 -19 0 -10 6 -14 18 -10 9 3 38 8 65
12 26 3 47 10 47 15 0 9 -35 10 -97 2z"/>
<path d="M132 6663 c-29 -4 -33 -7 -28 -26 3 -12 6 -55 6 -94 0 -40 4 -73 9
-73 5 0 12 38 16 85 l7 84 44 7 c24 3 44 10 44 15 0 9 -35 10 -98 2z"/>
<path d="M132 6213 c-29 -4 -33 -7 -28 -26 3 -12 6 -55 6 -94 0 -40 4 -73 9
-73 5 0 12 38 16 86 6 72 9 85 23 82 15 -3 17 -19 14 -131 -2 -76 1 -127 6
-127 18 0 22 30 22 151 0 99 3 119 15 119 8 0 15 5 15 10 0 10 -33 11 -98 3z"/>
<path d="M132 5763 c-29 -4 -33 -7 -28 -26 3 -12 6 -55 6 -94 0 -42 4 -73 10
-73 6 0 10 18 10 39 0 53 8 71 32 71 18 0 19 -5 12 -100 -5 -67 -3 -100 4
-100 18 0 22 29 22 151 0 99 3 119 15 119 8 0 15 5 15 10 0 10 -33 11 -98 3z
m46 -46 c2 -12 -3 -17 -17 -17 -15 0 -21 6 -21 21 0 25 33 22 38 -4z"/>
<path d="M134 5313 l-30 -4 4 -92 c2 -51 6 -94 8 -96 10 -11 17 21 23 102 2
14 41 7 41 -8 0 -8 -7 -15 -15 -15 -18 0 -20 -17 -3 -22 9 -3 12 -26 10 -76
-2 -43 0 -72 6 -72 18 0 22 30 22 151 0 99 3 119 15 119 8 0 15 5 15 10 0 10
-34 11 -96 3z m44 -46 c2 -12 -3 -17 -17 -17 -15 0 -21 6 -21 21 0 25 33 22
38 -4z"/>
<path d="M134 4863 l-30 -4 4 -88 c4 -84 3 -89 -17 -96 -11 -3 -21 -10 -21
-15 0 -20 24 -21 56 -4 36 19 44 34 19 34 -10 0 -13 10 -10 38 2 20 4 40 4 45
2 14 41 7 41 -8 0 -8 -7 -15 -15 -15 -18 0 -20 -17 -3 -22 9 -3 12 -26 10 -76
-2 -43 0 -72 6 -72 18 0 22 30 22 151 0 99 3 119 15 119 8 0 15 5 15 10 0 10
-34 11 -96 3z m44 -46 c2 -12 -3 -17 -17 -17 -15 0 -21 6 -21 21 0 25 33 22
38 -4z"/>
<path d="M268 4413 c-10 -27 -29 -61 -42 -78 l-25 -30 -1 48 c0 35 4 47 15 47
8 0 15 5 15 10 0 12 -19 12 -82 4 l-44 -6 4 -88 c4 -83 3 -88 -17 -95 -11 -3
-21 -10 -21 -15 0 -20 24 -21 56 -4 36 19 44 34 19 34 -10 0 -13 10 -10 38 2
20 4 40 4 45 2 14 41 7 41 -8 0 -8 -7 -15 -15 -15 -18 0 -20 -17 -3 -22 9 -3
12 -26 10 -76 -2 -43 0 -72 6 -72 16 0 22 27 22 91 0 56 2 61 38 94 42 38 78
105 69 129 -11 27 -22 18 -39 -31z m-90 -46 c2 -12 -3 -17 -17 -17 -15 0 -21
6 -21 21 0 25 33 22 38 -4z"/>
<path d="M268 3963 c-10 -27 -29 -61 -42 -78 l-25 -30 -1 48 c0 35 4 47 15 47
8 0 15 5 15 10 0 12 -19 12 -82 4 l-44 -6 4 -88 c4 -83 3 -88 -17 -95 -11 -3
-21 -10 -21 -15 0 -20 24 -21 56 -4 36 19 44 34 19 34 -10 0 -13 10 -10 38 2
20 4 40 4 45 2 14 41 7 41 -8 0 -8 -7 -15 -15 -15 -18 0 -20 -17 -3 -22 9 -3
12 -26 10 -76 -2 -43 0 -72 6 -72 16 0 22 27 22 91 0 56 2 61 40 95 21 19 42
44 45 55 5 16 11 12 38 -28 29 -43 36 -48 75 -51 23 -2 42 0 42 5 0 4 -20 19
-45 32 -50 26 -81 63 -86 100 -6 41 -23 34 -41 -16z m-90 -46 c2 -12 -3 -17
-17 -17 -15 0 -21 6 -21 21 0 25 33 22 38 -4z"/>
<path d="M268 3513 c-10 -27 -29 -61 -42 -78 l-25 -30 -1 48 c0 35 4 47 15 47
8 0 15 5 15 10 0 12 -19 12 -82 4 l-44 -6 4 -88 c4 -83 3 -88 -17 -95 -11 -3
-21 -10 -21 -15 0 -20 24 -21 56 -4 36 19 44 34 19 34 -10 0 -13 10 -10 38 2
20 4 40 4 45 2 14 41 7 41 -8 0 -8 -7 -15 -15 -15 -18 0 -20 -17 -3 -22 9 -3
12 -26 10 -76 -2 -43 0 -72 6 -72 16 0 22 27 22 91 0 56 2 61 40 95 21 19 42
44 45 55 5 16 11 12 38 -28 29 -43 36 -48 75 -51 23 -2 42 0 42 5 0 4 -20 19
-45 32 -50 26 -81 63 -86 100 -6 41 -23 34 -41 -16z m-90 -46 c2 -12 -3 -17
-17 -17 -15 0 -21 6 -21 21 0 25 33 22 38 -4z"/>
<path d="M258 3413 c-32 -8 -20 -26 13 -19 17 3 35 6 40 6 5 0 9 5 9 10 0 10
-30 12 -62 3z"/>
<path d="M268 3063 c-10 -27 -29 -61 -42 -78 l-25 -30 -1 48 c0 35 4 47 15 47
8 0 15 5 15 10 0 12 -19 12 -82 4 l-44 -6 4 -88 c4 -83 3 -88 -17 -95 -11 -3
-21 -10 -21 -15 0 -20 24 -21 56 -4 36 19 44 34 19 34 -10 0 -13 10 -10 38 2
20 4 40 4 45 2 14 41 7 41 -8 0 -8 -7 -15 -15 -15 -18 0 -20 -17 -3 -22 9 -3
12 -26 10 -76 -2 -43 0 -72 6 -72 16 0 22 27 22 91 0 56 2 61 40 95 21 19 42
44 45 55 5 16 11 12 38 -28 29 -43 36 -48 75 -51 23 -2 42 0 42 5 0 4 -20 19
-45 32 -50 26 -81 63 -86 100 -6 41 -23 34 -41 -16z m-90 -46 c2 -12 -3 -17
-17 -17 -15 0 -21 6 -21 21 0 25 33 22 38 -4z"/>
<path d="M258 2963 c-32 -8 -20 -26 13 -19 17 3 35 6 40 6 5 0 9 5 9 10 0 10
-30 12 -62 3z"/>
<path d="M263 2917 c-29 -5 -53 -14 -53 -18 0 -11 34 -11 83 0 l38 9 -21 -35
c-11 -20 -18 -38 -14 -42 8 -8 75 71 71 84 -5 14 -42 15 -104 2z"/>
<path d="M268 2613 c-10 -27 -29 -61 -42 -78 l-25 -30 -1 48 c0 35 4 47 15 47
8 0 15 5 15 10 0 12 -19 12 -82 4 l-44 -6 4 -88 c4 -83 3 -88 -17 -95 -11 -3
-21 -10 -21 -15 0 -20 24 -21 56 -4 36 19 44 34 19 34 -10 0 -13 10 -10 38 2
20 4 40 4 45 2 14 41 7 41 -8 0 -8 -7 -15 -15 -15 -18 0 -20 -17 -3 -22 9 -3
12 -26 10 -76 -2 -43 0 -72 6 -72 16 0 22 27 22 91 0 56 2 61 40 95 21 19 42
44 45 55 5 16 11 12 38 -28 29 -43 36 -48 75 -51 23 -2 42 0 42 5 0 4 -20 19
-45 32 -50 26 -81 63 -86 100 -6 41 -23 34 -41 -16z m-90 -46 c2 -12 -3 -17
-17 -17 -15 0 -21 6 -21 21 0 25 33 22 38 -4z"/>
<path d="M258 2513 c-32 -8 -20 -26 13 -19 17 3 35 6 40 6 5 0 9 5 9 10 0 10
-30 12 -62 3z"/>
<path d="M263 2467 c-29 -5 -53 -14 -53 -18 0 -11 34 -11 82 0 l37 9 -15 -29
c-12 -24 -19 -28 -39 -23 -32 8 -31 1 1 -42 32 -42 46 -43 43 -5 -3 19 6 40
24 65 43 56 28 64 -80 43z"/>
</g>
</svg>
