<?xml version="1.0" standalone="no"?>
<!DOCTYPE svg PUBLIC "-//W3C//DTD SVG 20010904//EN"
 "http://www.w3.org/TR/2001/REC-SVG-20010904/DTD/svg10.dtd">
<svg version="1.0" xmlns="http://www.w3.org/2000/svg"
 width="50.000000pt" height="725.000000pt" viewBox="0 0 50.000000 725.000000"
 preserveAspectRatio="xMidYMid meet">
<metadata>
Created by potrace 1.16, written by Peter Selinger 2001-2019
</metadata>
<g transform="translate(0.000000,725.000000) scale(0.100000,-0.100000)"
fill="#000000" stroke="none">
<path d="M138 7128 c-47 -12 -51 -33 -5 -24 17 4 49 9 70 13 20 3 37 9 37 14
0 12 -54 10 -102 -3z"/>
<path d="M138 6678 c-34 -9 -53 -28 -28 -28 6 0 10 -33 10 -80 0 -64 3 -80 15
-80 12 0 15 16 15 84 l0 85 45 7 c25 3 45 10 45 15 0 11 -54 10 -102 -3z"/>
<path d="M138 6228 c-34 -9 -53 -28 -28 -28 6 0 10 -33 10 -80 0 -64 3 -80 15
-80 12 0 15 16 15 85 0 71 3 85 16 85 13 0 15 -16 13 -120 -3 -107 2 -143 16
-129 2 3 8 62 11 132 5 96 10 127 21 127 7 0 13 5 13 10 0 12 -52 11 -102 -2z"/>
<path d="M138 5778 c-34 -9 -53 -28 -28 -28 6 0 10 -33 10 -80 0 -64 3 -80 15
-80 12 0 15 13 15 55 0 43 3 55 16 55 13 0 15 -13 12 -89 -3 -80 3 -113 17
-100 2 3 8 62 11 132 5 96 10 127 21 127 7 0 13 5 13 10 0 12 -52 11 -102 -2z
m42 -38 c0 -11 -7 -20 -15 -20 -8 0 -15 9 -15 20 0 11 7 20 15 20 8 0 15 -9
15 -20z"/>
<path d="M138 5328 c-34 -9 -53 -28 -28 -28 6 0 10 -33 10 -80 0 -64 3 -80 15
-80 10 0 15 10 15 30 0 21 5 30 16 30 14 0 16 -9 11 -59 -4 -53 4 -93 17 -80
3 3 9 62 12 132 5 96 10 127 21 127 7 0 13 5 13 10 0 12 -52 11 -102 -2z m42
-38 c0 -11 -7 -20 -15 -20 -8 0 -15 9 -15 20 0 11 7 20 15 20 8 0 15 -9 15
-20z m0 -55 c0 -8 -7 -15 -15 -15 -8 0 -15 7 -15 15 0 8 7 15 15 15 8 0 15 -7
15 -15z"/>
<path d="M138 4878 c-34 -9 -53 -28 -28 -28 6 0 10 -32 10 -76 0 -67 -2 -76
-20 -81 -11 -3 -20 -9 -20 -14 0 -19 30 -20 59 -3 31 18 40 34 21 34 -5 0 -10
9 -10 20 0 12 7 20 16 20 14 0 16 -9 11 -59 -4 -53 4 -93 17 -80 3 3 9 62 12
132 5 96 10 127 21 127 7 0 13 5 13 10 0 12 -52 11 -102 -2z m42 -38 c0 -11
-7 -20 -15 -20 -8 0 -15 9 -15 20 0 11 7 20 15 20 8 0 15 -9 15 -20z m0 -55
c0 -8 -7 -15 -15 -15 -8 0 -15 7 -15 15 0 8 7 15 15 15 8 0 15 -7 15 -15z"/>
<path d="M290 4458 c0 -6 -10 -22 -22 -35 -38 -41 -7 -40 46 2 16 12 17 17 6
30 -15 18 -30 20 -30 3z"/>
<path d="M138 4428 c-34 -9 -53 -28 -28 -28 6 0 10 -32 10 -76 0 -67 -2 -76
-20 -81 -11 -3 -20 -9 -20 -14 0 -19 30 -20 59 -3 31 18 40 34 21 34 -5 0 -10
9 -10 20 0 12 7 20 16 20 14 0 16 -9 11 -59 -4 -53 4 -93 17 -80 3 3 9 62 12
132 5 96 10 127 21 127 7 0 13 5 13 10 0 12 -52 11 -102 -2z m42 -38 c0 -11
-7 -20 -15 -20 -8 0 -15 9 -15 20 0 11 7 20 15 20 8 0 15 -9 15 -20z m0 -55
c0 -8 -7 -15 -15 -15 -8 0 -15 7 -15 15 0 8 7 15 15 15 8 0 15 -7 15 -15z"/>
<path d="M290 4007 c0 -15 -41 -57 -56 -57 -5 0 -10 -29 -11 -65 -1 -69 9 -81
40 -47 21 23 21 32 2 32 -10 0 -15 10 -15 29 0 21 9 36 38 57 20 15 39 29 41
30 6 5 -20 34 -30 34 -5 0 -9 -6 -9 -13z"/>
<path d="M138 3978 c-34 -9 -53 -28 -28 -28 6 0 10 -32 10 -76 0 -67 -2 -76
-20 -81 -11 -3 -20 -9 -20 -14 0 -19 30 -20 59 -3 31 18 40 34 21 34 -5 0 -10
9 -10 20 0 12 7 20 16 20 14 0 16 -9 11 -59 -4 -53 4 -93 17 -80 3 3 9 62 12
132 5 96 10 127 21 127 7 0 13 5 13 10 0 12 -52 11 -102 -2z m42 -38 c0 -11
-7 -20 -15 -20 -8 0 -15 9 -15 20 0 11 7 20 15 20 8 0 15 -9 15 -20z m0 -55
c0 -8 -7 -15 -15 -15 -8 0 -15 7 -15 15 0 8 7 15 15 15 8 0 15 -7 15 -15z"/>
<path d="M290 3557 c0 -15 -41 -57 -56 -57 -5 0 -10 -29 -11 -65 -1 -69 6 -78
40 -47 19 17 19 16 3 -22 -9 -22 -21 -46 -28 -53 -15 -19 -2 -29 17 -13 28 24
45 67 47 126 2 38 -1 58 -9 61 -9 3 -13 -7 -13 -31 0 -25 -4 -36 -15 -36 -10
0 -15 10 -15 29 0 21 9 36 38 57 20 15 39 29 41 30 6 5 -20 34 -30 34 -5 0 -9
-6 -9 -13z"/>
<path d="M138 3528 c-34 -9 -53 -28 -28 -28 6 0 10 -32 10 -76 0 -67 -2 -76
-20 -81 -11 -3 -20 -9 -20 -14 0 -19 30 -20 59 -3 31 18 40 34 21 34 -5 0 -10
9 -10 20 0 12 7 20 16 20 14 0 16 -9 11 -59 -4 -53 4 -93 17 -80 3 3 9 62 12
132 5 96 10 127 21 127 7 0 13 5 13 10 0 12 -52 11 -102 -2z m42 -38 c0 -11
-7 -20 -15 -20 -8 0 -15 9 -15 20 0 11 7 20 15 20 8 0 15 -9 15 -20z m0 -55
c0 -8 -7 -15 -15 -15 -8 0 -15 7 -15 15 0 8 7 15 15 15 8 0 15 -7 15 -15z"/>
<path d="M290 3107 c0 -15 -41 -57 -56 -57 -5 0 -10 -29 -11 -65 -1 -69 6 -78
40 -47 19 17 19 16 3 -22 -9 -22 -21 -46 -28 -53 -15 -19 -2 -29 17 -13 28 24
45 67 47 126 2 38 -1 58 -9 61 -9 3 -13 -7 -13 -31 0 -25 -4 -36 -15 -36 -10
0 -15 10 -15 29 0 21 9 36 38 57 20 15 39 29 41 30 6 5 -20 34 -30 34 -5 0 -9
-6 -9 -13z"/>
<path d="M138 3078 c-34 -9 -53 -28 -28 -28 6 0 10 -32 10 -76 0 -67 -2 -76
-20 -81 -11 -3 -20 -9 -20 -14 0 -19 30 -20 59 -3 31 18 40 34 21 34 -5 0 -10
9 -10 20 0 12 7 20 16 20 14 0 16 -9 11 -59 -4 -53 4 -93 17 -80 3 3 9 62 12
132 5 96 10 127 21 127 7 0 13 5 13 10 0 12 -52 11 -102 -2z m42 -38 c0 -11
-7 -20 -15 -20 -8 0 -15 9 -15 20 0 11 7 20 15 20 8 0 15 -9 15 -20z m0 -55
c0 -8 -7 -15 -15 -15 -8 0 -15 7 -15 15 0 8 7 15 15 15 8 0 15 -7 15 -15z"/>
<path d="M388 2999 c3 -37 1 -53 -9 -60 -19 -11 4 -34 25 -26 11 5 16 21 18
57 0 27 1 56 2 63 1 6 -8 13 -20 15 -20 3 -21 -1 -16 -49z"/>
<path d="M350 3030 c0 -5 5 -10 10 -10 6 0 10 5 10 10 0 6 -4 10 -10 10 -5 0
-10 -4 -10 -10z"/>
<path d="M290 2657 c0 -15 -41 -57 -56 -57 -5 0 -10 -29 -11 -65 -1 -69 6 -78
40 -47 19 17 19 16 3 -22 -9 -22 -21 -46 -28 -53 -15 -19 -2 -29 17 -13 28 24
45 67 47 126 2 38 -1 58 -9 61 -9 3 -13 -7 -13 -31 0 -25 -4 -36 -15 -36 -10
0 -15 10 -15 29 0 21 9 36 38 57 20 15 39 29 41 30 6 5 -20 34 -30 34 -5 0 -9
-6 -9 -13z"/>
<path d="M138 2628 c-34 -9 -53 -28 -28 -28 6 0 10 -32 10 -76 0 -67 -2 -76
-20 -81 -11 -3 -20 -9 -20 -14 0 -19 30 -20 59 -3 31 18 40 34 21 34 -5 0 -10
9 -10 20 0 12 7 20 16 20 14 0 16 -9 11 -59 -4 -53 4 -93 17 -80 3 3 9 62 12
132 5 96 10 127 21 127 7 0 13 5 13 10 0 12 -52 11 -102 -2z m42 -38 c0 -11
-7 -20 -15 -20 -8 0 -15 9 -15 20 0 11 7 20 15 20 8 0 15 -9 15 -20z m0 -55
c0 -8 -7 -15 -15 -15 -8 0 -15 7 -15 15 0 8 7 15 15 15 8 0 15 -7 15 -15z"/>
<path d="M388 2549 c3 -37 1 -53 -9 -60 -19 -11 4 -34 25 -26 11 5 16 21 18
57 0 27 1 56 2 63 1 6 -8 13 -20 15 -20 3 -21 -1 -16 -49z"/>
<path d="M325 2468 c0 -85 4 -122 12 -125 8 -3 13 26 15 104 2 59 7 116 12
126 7 14 4 17 -15 17 -24 0 -24 -1 -24 -122z"/>
</g>
</svg>
