<?xml version="1.0" standalone="no"?>
<!DOCTYPE svg PUBLIC "-//W3C//DTD SVG 20010904//EN"
 "http://www.w3.org/TR/2001/REC-SVG-20010904/DTD/svg10.dtd">
<svg version="1.0" xmlns="http://www.w3.org/2000/svg"
 width="95.000000pt" height="725.000000pt" viewBox="0 0 95.000000 725.000000"
 preserveAspectRatio="xMidYMid meet">
<metadata>
Created by potrace 1.16, written by Peter Selinger 2001-2019
</metadata>
<g transform="translate(0.000000,725.000000) scale(0.100000,-0.100000)"
fill="#000000" stroke="none">
<path d="M170 7159 c0 -12 -8 -23 -20 -26 -11 -3 -20 -10 -20 -15 0 -6 9 -8
20 -5 11 3 20 1 20 -4 0 -5 -7 -9 -15 -9 -8 0 -15 -5 -15 -11 0 -8 11 -9 31
-5 17 3 38 6 45 6 21 0 17 20 -3 21 -14 0 -13 3 5 11 27 14 29 28 2 28 -11 0
-20 7 -20 15 0 8 -7 15 -15 15 -9 0 -15 -9 -15 -21z"/>
<path d="M274 7163 c-15 -3 -20 -12 -21 -38 -1 -40 14 -47 23 -10 7 29 34 34
34 6 0 -11 6 -21 12 -23 7 -3 -7 -8 -32 -13 -45 -7 -65 -9 -130 -13 -34 -2
-35 -3 -35 -41 0 -25 -8 -47 -19 -60 -11 -12 -16 -24 -12 -29 8 -7 50 36 58
58 2 6 22 14 45 17 31 4 43 11 47 26 4 18 7 19 22 7 10 -9 12 -16 5 -18 -24
-8 -9 -22 17 -16 15 4 24 4 21 0 -4 -4 -37 -12 -75 -17 -73 -10 -86 -16 -65
-28 7 -5 13 -24 14 -42 2 -33 1 -34 -40 -37 -24 -2 -43 -8 -43 -14 0 -7 27 -8
85 -3 l85 7 0 -26 c0 -14 5 -26 10 -26 6 0 10 11 10 25 0 23 3 25 51 25 66 0
62 24 -4 28 l-47 3 0 40 c0 43 -1 42 78 39 57 -2 59 25 3 34 -22 3 -42 10 -45
14 -3 5 8 23 24 41 36 39 37 41 5 41 -20 0 -24 5 -22 22 2 24 -16 30 -59 21z
m33 -99 c-3 -3 -12 -4 -19 -1 -8 3 -5 6 6 6 11 1 17 -2 13 -5z m-97 -14 c0 -5
-5 -10 -11 -10 -5 0 -7 5 -4 10 3 6 8 10 11 10 2 0 4 -4 4 -10z m-40 -10 c0
-5 -4 -10 -10 -10 -5 0 -10 5 -10 10 0 6 5 10 10 10 6 0 10 -4 10 -10z m78
-67 c-26 -6 -22 -23 5 -24 16 -1 18 -2 5 -6 -22 -6 -24 -23 -2 -23 8 0 12 -4
9 -10 -3 -5 -18 -10 -33 -10 -21 0 -24 2 -12 10 9 6 11 13 5 18 -9 6 -10 17
-6 45 0 4 11 6 24 6 16 -1 18 -2 5 -6z"/>
<path d="M618 7138 c-21 -6 -38 -14 -38 -19 0 -6 16 -7 38 -4 56 10 72 15 72
26 0 11 -23 10 -72 -3z"/>
<path d="M620 6709 c0 -12 -8 -23 -20 -26 -11 -3 -20 -10 -20 -15 0 -6 9 -8
20 -5 11 3 20 1 20 -4 0 -5 7 -9 15 -9 8 0 15 4 15 9 0 5 9 13 20 16 11 3 20
11 20 16 0 5 -9 9 -20 9 -11 0 -20 7 -20 15 0 8 -7 15 -15 15 -9 0 -15 -9 -15
-21z"/>
<path d="M620 6259 c0 -12 -8 -23 -20 -26 -11 -3 -20 -10 -20 -15 0 -6 9 -8
20 -5 11 3 20 1 20 -4 0 -5 -7 -9 -15 -9 -8 0 -15 -5 -15 -11 0 -8 11 -9 31
-5 17 3 38 6 45 6 21 0 17 20 -3 21 -14 0 -13 3 5 11 27 14 29 28 2 28 -11 0
-20 7 -20 15 0 8 -7 15 -15 15 -9 0 -15 -9 -15 -21z"/>
<path d="M620 5809 c0 -12 -8 -23 -20 -26 -11 -3 -20 -10 -20 -15 0 -6 9 -8
20 -5 11 3 20 1 20 -4 0 -5 -7 -9 -15 -9 -8 0 -15 -5 -15 -11 0 -8 11 -9 31
-5 17 3 38 6 45 6 21 0 17 20 -3 21 -14 0 -13 3 5 11 27 14 29 28 2 28 -11 0
-20 7 -20 15 0 8 -7 15 -15 15 -9 0 -15 -9 -15 -21z"/>
<path d="M640 5720 c0 -5 5 -10 10 -10 6 0 10 -7 10 -15 0 -8 4 -15 9 -15 14
0 33 28 26 40 -8 13 -55 13 -55 0z"/>
<path d="M590 5710 c0 -5 9 -10 20 -10 11 0 20 5 20 10 0 6 -9 10 -20 10 -11
0 -20 -4 -20 -10z"/>
<path d="M620 5359 c0 -12 -8 -23 -20 -26 -11 -3 -20 -10 -20 -15 0 -6 9 -8
20 -5 11 3 20 1 20 -4 0 -5 -7 -9 -15 -9 -8 0 -15 -5 -15 -11 0 -8 11 -9 31
-5 17 3 38 6 45 6 21 0 17 20 -3 21 -14 0 -13 3 5 11 27 14 29 28 2 28 -11 0
-20 7 -20 15 0 8 -7 15 -15 15 -9 0 -15 -9 -15 -21z"/>
<path d="M618 5273 c-29 -4 -39 -23 -13 -23 8 0 15 -7 15 -15 0 -23 17 -18 25
8 6 19 8 19 12 5 5 -22 17 -23 33 -3 24 29 0 39 -72 28z"/>
<path d="M620 4909 c0 -12 -8 -23 -20 -26 -11 -3 -20 -10 -20 -15 0 -6 9 -8
20 -5 11 3 20 1 20 -4 0 -5 -7 -9 -15 -9 -8 0 -15 -5 -15 -11 0 -8 11 -9 31
-5 17 3 38 6 45 6 21 0 17 20 -3 21 -14 0 -13 3 5 11 27 14 29 28 2 28 -11 0
-20 7 -20 15 0 8 -7 15 -15 15 -9 0 -15 -9 -15 -21z"/>
<path d="M618 4823 c-29 -5 -39 -23 -13 -23 8 0 15 -4 15 -10 0 -5 -7 -10 -15
-10 -8 0 -15 -5 -15 -11 0 -7 16 -8 48 -3 56 8 51 5 54 35 3 26 -16 31 -74 22z
m42 -23 c0 -5 -5 -10 -11 -10 -5 0 -7 5 -4 10 3 6 8 10 11 10 2 0 4 -4 4 -10z"/>
<path d="M620 4459 c0 -12 -8 -23 -20 -26 -11 -3 -20 -10 -20 -15 0 -6 9 -8
20 -5 11 3 20 1 20 -4 0 -5 -7 -9 -15 -9 -8 0 -15 -5 -15 -11 0 -8 11 -9 31
-5 17 3 38 6 45 6 21 0 17 20 -3 21 -14 0 -13 3 5 11 27 14 29 28 2 28 -11 0
-20 7 -20 15 0 8 -7 15 -15 15 -9 0 -15 -9 -15 -21z"/>
<path d="M610 4373 c-34 -4 -35 -6 -35 -43 0 -24 -8 -46 -19 -59 -11 -12 -16
-24 -12 -29 8 -7 50 36 58 58 2 6 22 14 45 17 31 4 43 11 47 26 9 37 4 39 -84
30z m50 -23 c0 -5 -5 -10 -11 -10 -5 0 -7 5 -4 10 3 6 8 10 11 10 2 0 4 -4 4
-10z m-40 -10 c0 -5 -4 -10 -10 -10 -5 0 -10 5 -10 10 0 6 5 10 10 10 6 0 10
-4 10 -10z"/>
<path d="M620 4009 c0 -12 -8 -23 -20 -26 -11 -3 -20 -10 -20 -15 0 -6 9 -8
20 -5 11 3 20 1 20 -4 0 -5 -7 -9 -15 -9 -8 0 -15 -5 -15 -11 0 -8 11 -9 31
-5 17 3 38 6 45 6 21 0 17 20 -3 21 -14 0 -13 3 5 11 27 14 29 28 2 28 -11 0
-20 7 -20 15 0 8 -7 15 -15 15 -9 0 -15 -9 -15 -21z"/>
<path d="M703 3975 c-1 -36 10 -47 21 -19 10 27 7 54 -7 54 -8 0 -13 -13 -14
-35z"/>
<path d="M610 3923 c-34 -4 -35 -6 -35 -43 0 -24 -8 -46 -19 -59 -11 -12 -16
-24 -12 -29 8 -7 50 36 58 58 2 6 22 14 45 17 31 4 43 11 47 26 9 37 4 39 -84
30z m50 -23 c0 -5 -5 -10 -11 -10 -5 0 -7 5 -4 10 3 6 8 10 11 10 2 0 4 -4 4
-10z m-40 -10 c0 -5 -4 -10 -10 -10 -5 0 -10 5 -10 10 0 6 5 10 10 10 6 0 10
-4 10 -10z"/>
<path d="M620 3559 c0 -12 -8 -23 -20 -26 -11 -3 -20 -10 -20 -15 0 -6 9 -8
20 -5 11 3 20 1 20 -4 0 -5 -7 -9 -15 -9 -8 0 -15 -5 -15 -11 0 -8 11 -9 31
-5 17 3 38 6 45 6 21 0 17 20 -3 21 -14 0 -13 3 5 11 27 14 29 28 2 28 -11 0
-20 7 -20 15 0 8 -7 15 -15 15 -9 0 -15 -9 -15 -21z"/>
<path d="M724 3563 c-15 -3 -20 -12 -21 -38 -1 -40 14 -47 23 -10 7 29 34 34
34 6 0 -22 28 -35 54 -25 24 9 19 24 -9 24 -20 0 -24 5 -22 22 2 24 -16 30
-59 21z"/>
<path d="M610 3473 c-34 -4 -35 -6 -35 -43 0 -24 -8 -46 -19 -59 -11 -12 -16
-24 -12 -29 8 -7 50 36 58 58 2 6 22 14 45 17 31 4 43 11 47 26 9 37 4 39 -84
30z m50 -23 c0 -5 -5 -10 -11 -10 -5 0 -7 5 -4 10 3 6 8 10 11 10 2 0 4 -4 4
-10z m-40 -10 c0 -5 -4 -10 -10 -10 -5 0 -10 5 -10 10 0 6 5 10 10 10 6 0 10
-4 10 -10z"/>
<path d="M620 3109 c0 -12 -8 -23 -20 -26 -11 -3 -20 -10 -20 -15 0 -6 9 -8
20 -5 11 3 20 1 20 -4 0 -5 -7 -9 -15 -9 -8 0 -15 -5 -15 -11 0 -8 11 -9 31
-5 17 3 38 6 45 6 21 0 17 20 -3 21 -14 0 -13 3 5 11 27 14 29 28 2 28 -11 0
-20 7 -20 15 0 8 -7 15 -15 15 -9 0 -15 -9 -15 -21z"/>
<path d="M724 3113 c-15 -3 -20 -12 -21 -38 -1 -40 14 -47 23 -10 7 29 34 34
34 6 0 -11 6 -22 13 -24 6 -3 0 -6 -15 -6 -30 -1 -39 -21 -10 -21 14 -1 12 -5
-10 -25 -30 -26 -34 -35 -17 -35 12 0 109 94 109 104 0 3 -11 6 -25 6 -20 0
-24 5 -22 22 2 24 -16 30 -59 21z"/>
<path d="M610 3023 c-34 -4 -35 -6 -35 -43 0 -24 -8 -46 -19 -59 -11 -12 -16
-24 -12 -29 8 -7 50 36 58 58 2 6 22 14 46 17 27 4 42 11 42 20 0 7 7 16 15
19 44 17 -8 26 -95 17z m50 -23 c0 -5 -5 -10 -11 -10 -5 0 -7 5 -4 10 3 6 8
10 11 10 2 0 4 -4 4 -10z m-40 -10 c0 -5 -4 -10 -10 -10 -5 0 -10 5 -10 10 0
6 5 10 10 10 6 0 10 -4 10 -10z"/>
<path d="M620 2659 c0 -12 -8 -23 -20 -26 -11 -3 -20 -10 -20 -15 0 -6 9 -8
20 -5 11 3 20 1 20 -4 0 -5 -7 -9 -15 -9 -8 0 -15 -5 -15 -11 0 -8 11 -9 31
-5 17 3 38 6 45 6 21 0 17 20 -3 21 -14 0 -13 3 5 11 27 14 29 28 2 28 -11 0
-20 7 -20 15 0 8 -7 15 -15 15 -9 0 -15 -9 -15 -21z"/>
<path d="M724 2663 c-15 -3 -20 -12 -21 -38 -1 -40 14 -47 23 -10 7 29 34 34
34 6 0 -11 6 -21 12 -23 7 -3 -7 -8 -32 -13 -45 -7 -65 -9 -130 -13 -34 -2
-35 -3 -35 -41 0 -25 -8 -47 -19 -60 -11 -12 -16 -24 -12 -29 8 -7 50 36 58
58 2 6 22 14 45 17 31 4 43 11 47 26 4 18 7 19 22 7 10 -9 12 -16 5 -18 -22
-7 -11 -22 12 -17 15 4 28 1 36 -9 17 -20 91 -22 91 -2 0 8 -16 16 -39 20 -22
3 -42 10 -45 14 -3 5 8 23 24 41 36 39 37 41 5 41 -20 0 -24 5 -22 22 2 24
-16 30 -59 21z m33 -99 c-3 -3 -12 -4 -19 -1 -8 3 -5 6 6 6 11 1 17 -2 13 -5z
m-97 -14 c0 -5 -5 -10 -11 -10 -5 0 -7 5 -4 10 3 6 8 10 11 10 2 0 4 -4 4 -10z
m-40 -10 c0 -5 -4 -10 -10 -10 -5 0 -10 5 -10 10 0 6 5 10 10 10 6 0 10 -4 10
-10z"/>
<path d="M620 2209 c0 -12 -8 -23 -20 -26 -11 -3 -20 -10 -20 -15 0 -6 9 -8
20 -5 11 3 20 1 20 -4 0 -5 -7 -9 -15 -9 -8 0 -15 -5 -15 -11 0 -8 11 -9 31
-5 17 3 38 6 45 6 21 0 17 20 -3 21 -14 0 -13 3 5 11 27 14 29 28 2 28 -11 0
-20 7 -20 15 0 8 -7 15 -15 15 -9 0 -15 -9 -15 -21z"/>
<path d="M724 2213 c-15 -3 -20 -12 -21 -38 -1 -40 14 -47 23 -10 7 29 34 34
34 6 0 -11 6 -21 12 -23 7 -3 -7 -8 -32 -13 -45 -7 -65 -9 -130 -13 -34 -2
-35 -3 -35 -41 0 -25 -8 -47 -19 -60 -11 -12 -16 -24 -12 -29 8 -7 50 36 58
58 2 6 22 14 45 17 31 4 43 11 47 26 4 18 7 19 22 7 10 -9 12 -16 5 -18 -23
-8 -10 -22 17 -17 24 4 24 4 -3 -5 -16 -5 -51 -12 -77 -15 -27 -4 -48 -11 -48
-16 0 -10 42 -7 130 8 19 3 54 5 78 4 57 -3 59 24 3 33 -22 3 -42 10 -45 14
-3 5 8 23 24 41 36 39 37 41 5 41 -20 0 -24 5 -22 22 2 24 -16 30 -59 21z m33
-99 c-3 -3 -12 -4 -19 -1 -8 3 -5 6 6 6 11 1 17 -2 13 -5z m-97 -14 c0 -5 -5
-10 -11 -10 -5 0 -7 5 -4 10 3 6 8 10 11 10 2 0 4 -4 4 -10z m-40 -10 c0 -5
-4 -10 -10 -10 -5 0 -10 5 -10 10 0 6 5 10 10 10 6 0 10 -4 10 -10z"/>
<path d="M620 1759 c0 -12 -8 -23 -20 -26 -11 -3 -20 -10 -20 -15 0 -6 9 -8
20 -5 11 3 20 1 20 -4 0 -5 -7 -9 -15 -9 -8 0 -15 -5 -15 -11 0 -8 11 -9 31
-5 17 3 38 6 45 6 21 0 17 20 -3 21 -14 0 -13 3 5 11 27 14 29 28 2 28 -11 0
-20 7 -20 15 0 8 -7 15 -15 15 -9 0 -15 -9 -15 -21z"/>
<path d="M724 1763 c-15 -3 -20 -12 -21 -38 -1 -40 14 -47 23 -10 7 29 34 34
34 6 0 -11 6 -21 12 -23 7 -3 -7 -8 -32 -13 -45 -7 -65 -9 -130 -13 -34 -2
-35 -3 -35 -41 0 -25 -8 -47 -19 -60 -11 -12 -16 -24 -12 -29 8 -7 50 36 58
58 2 6 22 14 45 17 31 4 43 11 47 26 4 18 7 19 22 7 10 -9 12 -16 5 -18 -24
-8 -9 -22 17 -16 15 4 24 4 21 0 -4 -4 -37 -12 -75 -17 -73 -10 -86 -16 -65
-28 7 -5 15 -27 18 -50 8 -55 21 -52 25 7 l3 47 45 7 c25 5 69 8 98 8 65 -1
74 24 13 34 -22 3 -42 10 -45 14 -3 5 8 23 24 41 36 39 37 41 5 41 -20 0 -24
5 -22 22 2 24 -16 30 -59 21z m33 -99 c-3 -3 -12 -4 -19 -1 -8 3 -5 6 6 6 11
1 17 -2 13 -5z m-97 -14 c0 -5 -5 -10 -11 -10 -5 0 -7 5 -4 10 3 6 8 10 11 10
2 0 4 -4 4 -10z m-40 -10 c0 -5 -4 -10 -10 -10 -5 0 -10 5 -10 10 0 6 5 10 10
10 6 0 10 -4 10 -10z"/>
<path d="M620 1309 c0 -12 -8 -23 -20 -26 -11 -3 -20 -10 -20 -15 0 -6 9 -8
20 -5 11 3 20 1 20 -4 0 -5 -7 -9 -15 -9 -8 0 -15 -5 -15 -11 0 -8 11 -9 31
-5 17 3 38 6 45 6 21 0 17 20 -3 21 -14 0 -13 3 5 11 27 14 29 28 2 28 -11 0
-20 7 -20 15 0 8 -7 15 -15 15 -9 0 -15 -9 -15 -21z"/>
<path d="M724 1313 c-15 -3 -20 -12 -21 -38 -1 -40 14 -47 23 -10 7 29 34 34
34 6 0 -11 6 -21 12 -23 7 -3 -7 -8 -32 -13 -45 -7 -65 -9 -130 -13 -34 -2
-35 -3 -35 -41 0 -25 -8 -47 -19 -60 -11 -12 -16 -24 -12 -29 8 -7 50 36 58
58 2 6 22 14 45 17 31 4 43 11 47 26 4 18 7 19 22 7 10 -9 12 -16 5 -18 -24
-8 -9 -22 17 -16 15 4 24 4 21 0 -4 -4 -37 -12 -75 -17 -73 -10 -86 -16 -65
-28 7 -5 15 -27 18 -50 8 -55 21 -52 25 6 2 37 7 49 22 51 27 6 36 -15 36 -85
0 -35 4 -63 10 -63 6 0 10 33 10 80 0 89 -5 83 78 80 57 -2 59 25 3 34 -22 3
-42 10 -45 14 -3 5 8 23 24 41 36 39 37 41 5 41 -20 0 -24 5 -22 22 2 24 -16
30 -59 21z m33 -99 c-3 -3 -12 -4 -19 -1 -8 3 -5 6 6 6 11 1 17 -2 13 -5z
m-97 -14 c0 -5 -5 -10 -11 -10 -5 0 -7 5 -4 10 3 6 8 10 11 10 2 0 4 -4 4 -10z
m-40 -10 c0 -5 -4 -10 -10 -10 -5 0 -10 5 -10 10 0 6 5 10 10 10 6 0 10 -4 10
-10z"/>
<path d="M620 859 c0 -12 -8 -23 -20 -26 -11 -3 -20 -10 -20 -15 0 -6 9 -8 20
-5 11 3 20 1 20 -4 0 -5 -7 -9 -15 -9 -8 0 -15 -5 -15 -11 0 -8 11 -9 31 -5
17 3 38 6 45 6 21 0 17 20 -3 21 -14 0 -13 3 5 11 27 14 29 28 2 28 -11 0 -20
7 -20 15 0 8 -7 15 -15 15 -9 0 -15 -9 -15 -21z"/>
<path d="M724 863 c-15 -3 -20 -12 -21 -38 -1 -40 14 -47 23 -10 7 29 34 34
34 6 0 -11 6 -21 12 -23 7 -3 -7 -8 -32 -13 -45 -7 -65 -9 -130 -13 -34 -2
-35 -3 -35 -41 0 -25 -8 -47 -19 -60 -11 -12 -16 -24 -12 -29 8 -7 50 36 58
58 2 6 22 14 45 17 31 4 43 11 47 26 4 18 7 19 22 7 10 -9 12 -16 5 -18 -24
-8 -9 -22 17 -16 15 4 24 4 21 0 -4 -4 -37 -12 -75 -17 -73 -10 -86 -16 -65
-28 7 -5 15 -27 18 -50 7 -49 22 -55 25 -8 0 17 1 39 2 47 1 9 12 16 26 17 14
1 18 0 8 -3 -24 -7 -23 -24 2 -24 18 0 20 -7 20 -60 0 -33 4 -60 10 -60 6 0
10 33 10 80 0 89 -5 83 78 80 57 -2 59 25 3 34 -22 3 -42 10 -45 14 -3 5 8 23
24 41 36 39 37 41 5 41 -20 0 -24 5 -22 22 2 24 -16 30 -59 21z m33 -99 c-3
-3 -12 -4 -19 -1 -8 3 -5 6 6 6 11 1 17 -2 13 -5z m-97 -14 c0 -5 -5 -10 -11
-10 -5 0 -7 5 -4 10 3 6 8 10 11 10 2 0 4 -4 4 -10z m-40 -10 c0 -5 -4 -10
-10 -10 -5 0 -10 5 -10 10 0 6 5 10 10 10 6 0 10 -4 10 -10z"/>
<path d="M620 409 c0 -12 -8 -23 -20 -26 -11 -3 -20 -10 -20 -15 0 -6 9 -8 20
-5 11 3 20 1 20 -4 0 -5 -7 -9 -15 -9 -8 0 -15 -5 -15 -11 0 -8 11 -9 31 -5
17 3 38 6 45 6 21 0 17 20 -3 21 -14 0 -13 3 5 11 27 14 29 28 2 28 -11 0 -20
7 -20 15 0 8 -7 15 -15 15 -9 0 -15 -9 -15 -21z"/>
<path d="M724 413 c-15 -3 -20 -12 -21 -38 -1 -40 14 -47 23 -10 7 29 34 34
34 6 0 -11 6 -21 12 -23 7 -3 -7 -8 -32 -13 -45 -7 -65 -9 -130 -13 -34 -2
-35 -3 -35 -41 0 -25 -8 -47 -19 -60 -11 -12 -16 -24 -12 -29 8 -7 50 36 58
58 2 6 22 14 45 17 31 4 43 11 47 26 4 18 7 19 22 7 10 -9 12 -16 5 -18 -24
-8 -9 -22 17 -16 15 4 24 4 21 0 -4 -4 -37 -12 -75 -17 -73 -10 -86 -16 -65
-28 7 -5 15 -27 18 -50 5 -38 23 -59 23 -27 0 8 6 17 13 19 8 4 8 8 2 14 -5 4
-10 17 -10 28 0 14 7 21 25 22 14 1 18 0 8 -3 -25 -8 -22 -24 5 -25 16 -1 18
-2 5 -6 -22 -5 -24 -23 -3 -23 11 0 15 -12 15 -45 0 -25 5 -45 10 -45 6 0 10
33 10 80 0 89 -5 83 78 80 57 -2 59 25 3 34 -22 3 -42 10 -45 14 -3 5 8 23 24
41 36 39 37 41 5 41 -20 0 -24 5 -22 22 2 24 -16 30 -59 21z m33 -99 c-3 -3
-12 -4 -19 -1 -8 3 -5 6 6 6 11 1 17 -2 13 -5z m-97 -14 c0 -5 -5 -10 -11 -10
-5 0 -7 5 -4 10 3 6 8 10 11 10 2 0 4 -4 4 -10z m-40 -10 c0 -5 -4 -10 -10
-10 -5 0 -10 5 -10 10 0 6 5 10 10 10 6 0 10 -4 10 -10z"/>
</g>
</svg>
