<?xml version="1.0" standalone="no"?>
<!DOCTYPE svg PUBLIC "-//W3C//DTD SVG 20010904//EN"
 "http://www.w3.org/TR/2001/REC-SVG-20010904/DTD/svg10.dtd">
<svg version="1.0" xmlns="http://www.w3.org/2000/svg"
 width="95.000000pt" height="725.000000pt" viewBox="0 0 95.000000 725.000000"
 preserveAspectRatio="xMidYMid meet">
<metadata>
Created by potrace 1.16, written by Peter Selinger 2001-2019
</metadata>
<g transform="translate(0.000000,725.000000) scale(0.100000,-0.100000)"
fill="#000000" stroke="none">
<path d="M233 7168 c-35 -5 -63 -14 -63 -19 0 -5 7 -9 16 -9 12 0 14 -9 12
-37 -3 -33 -7 -38 -30 -41 -16 -2 -28 -8 -28 -14 0 -7 16 -9 46 -4 26 3 53 6
60 6 24 0 15 20 -8 21 -17 1 -19 2 -5 6 9 2 17 9 17 14 0 5 -8 9 -17 10 -15 0
-15 2 2 9 11 5 29 8 40 8 17 0 17 -1 3 -5 -17 -4 -26 -23 -10 -23 4 0 8 -16 9
-35 2 -27 -1 -35 -13 -35 -11 0 -14 -5 -10 -16 3 -9 9 -33 12 -55 6 -37 24
-55 24 -24 0 18 40 20 41 3 0 -7 0 -35 -1 -62 -1 -36 2 -47 12 -44 9 3 14 27
16 74 3 89 9 114 27 114 18 0 20 19 3 21 -7 1 -30 1 -51 0 -30 -2 -36 0 -31
13 4 10 18 16 40 16 19 0 34 4 34 9 0 13 -34 23 -54 15 -13 -5 -16 1 -16 30 0
30 4 36 21 36 29 0 18 25 -12 26 -13 1 -52 -3 -86 -8z m32 -28 c-27 -12 -35
-12 -35 0 0 6 12 10 28 9 24 0 25 -1 7 -9z m65 -140 c0 -5 -9 -10 -21 -10 -11
0 -17 5 -14 10 3 6 13 10 21 10 8 0 14 -4 14 -10z m-7 -37 c-7 -2 -19 -2 -25
0 -7 3 -2 5 12 5 14 0 19 -2 13 -5z"/>
<path d="M708 7173 c-63 -7 -43 -23 28 -23 48 0 65 3 62 13 -5 13 -32 16 -90
10z"/>
<path d="M620 7150 c0 -5 9 -10 20 -10 11 0 20 5 20 10 0 6 -9 10 -20 10 -11
0 -20 -4 -20 -10z"/>
<path d="M133 7013 c-23 -4 -33 -23 -13 -23 6 0 10 -20 10 -45 0 -41 -2 -45
-25 -45 -14 0 -25 -5 -25 -10 0 -19 25 -21 63 -5 47 19 48 19 42 -7 -5 -23 9
-57 19 -47 3 3 8 42 12 87 4 45 11 82 15 82 5 0 9 5 9 10 0 10 -63 12 -107 3z
m57 -38 c0 -17 -5 -25 -17 -25 -16 0 -16 2 -3 11 11 8 12 12 3 16 -18 7 -16
23 2 23 9 0 15 -9 15 -25z m-10 -55 c-20 -13 -33 -13 -25 0 3 6 14 10 23 10
15 0 15 -2 2 -10z"/>
<path d="M233 6718 c-35 -5 -63 -14 -63 -19 0 -5 7 -9 16 -9 12 0 14 -9 12
-37 -3 -33 -7 -38 -30 -41 -16 -2 -28 -8 -28 -14 0 -7 16 -9 46 -4 26 3 53 6
60 6 24 0 15 20 -8 21 -17 1 -19 2 -5 6 9 2 17 9 17 14 0 5 -8 9 -17 10 -15 0
-15 2 2 9 11 5 29 8 40 8 17 0 17 -1 3 -5 -17 -4 -26 -23 -10 -23 4 0 8 -16 9
-35 2 -27 -1 -35 -13 -35 -10 0 -14 -6 -11 -14 3 -8 9 -31 13 -50 5 -32 4 -36
-15 -36 -22 0 -28 -14 -12 -25 6 -3 28 -1 50 4 l41 9 0 -45 c0 -58 24 -54 28
5 3 41 4 42 38 42 19 0 34 4 34 9 0 13 -30 22 -51 16 -15 -5 -19 -1 -19 19 0
35 10 56 26 56 17 0 19 19 2 21 -7 1 -30 1 -51 0 -30 -2 -36 0 -31 13 4 10 18
16 40 16 19 0 34 4 34 9 0 13 -34 23 -54 15 -13 -5 -16 1 -16 30 0 30 4 36 21
36 29 0 18 25 -12 26 -13 1 -52 -3 -86 -8z m32 -28 c-27 -12 -35 -12 -35 0 0
6 12 10 28 9 24 0 25 -1 7 -9z m65 -140 c0 -5 -9 -10 -21 -10 -11 0 -17 5 -14
10 3 6 13 10 21 10 8 0 14 -4 14 -10z m-7 -37 c-7 -2 -19 -2 -25 0 -7 3 -2 5
12 5 14 0 19 -2 13 -5z m-3 -33 c-19 -13 -30 -13 -30 0 0 6 10 10 23 10 18 0
19 -2 7 -10z"/>
<path d="M683 6718 c-35 -5 -63 -14 -63 -19 0 -5 7 -9 15 -9 11 0 15 -11 15
-40 0 -22 5 -40 10 -40 6 0 10 10 10 23 1 60 8 67 72 67 43 0 59 3 56 13 -6
16 -38 17 -115 5z"/>
<path d="M133 6563 c-23 -4 -33 -23 -13 -23 6 0 10 -20 10 -45 0 -41 -2 -45
-25 -45 -14 0 -25 -5 -25 -10 0 -19 25 -21 63 -5 47 19 48 19 42 -7 -5 -23 9
-57 19 -47 3 3 8 42 12 87 4 45 11 82 15 82 5 0 9 5 9 10 0 10 -63 12 -107 3z
m57 -38 c0 -17 -5 -25 -17 -25 -16 0 -16 2 -3 11 11 8 12 12 3 16 -18 7 -16
23 2 23 9 0 15 -9 15 -25z m-10 -55 c-20 -13 -33 -13 -25 0 3 6 14 10 23 10
15 0 15 -2 2 -10z"/>
<path d="M683 6268 c-35 -5 -63 -14 -63 -19 0 -5 7 -9 15 -9 11 0 15 -11 15
-40 0 -22 5 -40 10 -40 6 0 10 10 10 23 0 46 12 67 36 67 26 0 28 -3 24 -74
-1 -37 1 -47 11 -44 9 3 15 25 17 61 3 50 6 57 23 57 29 0 18 25 -12 26 -13 1
-52 -3 -86 -8z"/>
<path d="M683 5818 c-35 -5 -63 -14 -63 -19 0 -5 7 -9 15 -9 11 0 15 -11 15
-40 0 -22 5 -40 10 -40 6 0 10 11 10 24 0 16 7 26 23 30 39 10 42 7 38 -40 -2
-36 0 -45 10 -42 9 3 15 24 17 61 3 50 6 57 23 57 29 0 18 25 -12 26 -13 1
-52 -3 -86 -8z m32 -28 c-27 -12 -35 -12 -35 0 0 6 12 10 28 9 24 0 25 -1 7
-9z"/>
<path d="M683 5368 c-35 -5 -63 -14 -63 -19 0 -5 7 -9 15 -9 11 0 15 -11 15
-40 0 -22 5 -40 10 -40 6 0 10 5 10 10 0 6 7 10 15 10 21 0 19 20 -2 21 -15 0
-15 2 2 9 11 5 29 8 40 8 17 0 17 -1 3 -5 -19 -5 -25 -23 -8 -23 6 0 10 -14
10 -31 0 -20 4 -29 13 -27 7 3 13 27 15 61 3 50 6 57 23 57 29 0 18 25 -12 26
-13 1 -52 -3 -86 -8z m32 -28 c-27 -12 -35 -12 -35 0 0 6 12 10 28 9 24 0 25
-1 7 -9z"/>
<path d="M683 4918 c-35 -5 -63 -14 -63 -19 0 -5 7 -9 16 -9 12 0 14 -9 12
-37 -3 -33 -7 -38 -30 -41 -16 -2 -28 -8 -28 -14 0 -7 16 -9 46 -4 26 3 53 6
60 6 24 0 15 20 -8 21 -17 1 -19 2 -5 6 9 2 17 9 17 14 0 5 -8 9 -17 10 -15 0
-15 2 2 9 11 5 29 8 40 8 17 0 17 -1 3 -5 -17 -4 -26 -23 -10 -23 4 0 8 -12 8
-26 2 -34 13 -43 28 -21 8 10 26 17 45 17 17 0 31 4 31 9 0 13 -34 23 -54 15
-13 -5 -16 1 -16 30 0 30 4 36 21 36 29 0 18 25 -12 26 -13 1 -52 -3 -86 -8z
m32 -28 c-27 -12 -35 -12 -35 0 0 6 12 10 28 9 24 0 25 -1 7 -9z"/>
<path d="M683 4468 c-35 -5 -63 -14 -63 -19 0 -5 7 -9 16 -9 12 0 14 -9 12
-37 -3 -33 -7 -38 -30 -41 -16 -2 -28 -8 -28 -14 0 -7 16 -9 46 -4 26 3 53 6
60 6 24 0 15 20 -8 21 -17 1 -19 2 -5 6 9 2 17 9 17 14 0 5 -8 9 -17 10 -15 0
-15 2 2 9 11 5 29 8 40 8 17 0 17 -1 3 -5 -17 -4 -26 -23 -10 -23 4 0 8 -12 8
-26 2 -34 13 -43 28 -21 8 10 26 17 45 17 17 0 31 4 31 9 0 13 -34 23 -54 15
-13 -5 -16 1 -16 30 0 30 4 36 21 36 29 0 18 25 -12 26 -13 1 -52 -3 -86 -8z
m32 -28 c-27 -12 -35 -12 -35 0 0 6 12 10 28 9 24 0 25 -1 7 -9z"/>
<path d="M600 4310 c0 -5 20 -10 45 -10 25 0 45 5 45 10 0 6 -20 10 -45 10
-25 0 -45 -4 -45 -10z"/>
<path d="M560 4300 c0 -5 7 -10 15 -10 8 0 15 5 15 10 0 6 -7 10 -15 10 -8 0
-15 -4 -15 -10z"/>
<path d="M683 4018 c-35 -5 -63 -14 -63 -19 0 -5 7 -9 16 -9 12 0 14 -9 12
-37 -3 -33 -7 -38 -30 -41 -16 -2 -28 -8 -28 -14 0 -7 16 -9 46 -4 26 3 53 6
60 6 24 0 15 20 -8 21 -17 1 -19 2 -5 6 9 2 17 9 17 14 0 5 -8 9 -17 10 -15 0
-15 2 2 9 11 5 29 8 40 8 17 0 17 -1 3 -5 -17 -4 -26 -23 -10 -23 4 0 8 -12 8
-26 2 -34 13 -43 28 -21 8 10 26 17 45 17 17 0 31 4 31 9 0 13 -34 23 -54 15
-13 -5 -16 1 -16 30 0 30 4 36 21 36 29 0 18 25 -12 26 -13 1 -52 -3 -86 -8z
m32 -28 c-27 -12 -35 -12 -35 0 0 6 12 10 28 9 24 0 25 -1 7 -9z"/>
<path d="M583 3863 c-23 -4 -33 -23 -13 -23 6 0 10 -20 10 -45 0 -25 4 -45 9
-45 11 0 21 35 21 73 0 25 3 27 40 27 22 0 40 5 40 10 0 10 -63 12 -107 3z"/>
<path d="M683 3568 c-35 -5 -63 -14 -63 -19 0 -5 7 -9 16 -9 12 0 14 -9 12
-37 -3 -33 -7 -38 -30 -41 -16 -2 -28 -8 -28 -14 0 -7 16 -9 46 -4 26 3 53 6
60 6 24 0 15 20 -8 21 -17 1 -19 2 -5 6 9 2 17 9 17 14 0 5 -8 9 -17 10 -15 0
-15 2 2 9 11 5 29 8 40 8 17 0 17 -1 3 -5 -17 -4 -26 -23 -10 -23 4 0 8 -12 8
-26 2 -34 13 -43 28 -21 8 10 26 17 45 17 17 0 31 4 31 9 0 13 -34 23 -54 15
-13 -5 -16 1 -16 30 0 30 4 36 21 36 29 0 18 25 -12 26 -13 1 -52 -3 -86 -8z
m32 -28 c-27 -12 -35 -12 -35 0 0 6 12 10 28 9 24 0 25 -1 7 -9z"/>
<path d="M583 3413 c-23 -4 -33 -23 -13 -23 6 0 10 -20 10 -45 0 -25 4 -45 9
-45 11 0 21 35 21 73 0 18 5 27 16 27 14 0 16 -10 12 -74 -4 -68 3 -109 16
-95 3 3 8 42 12 87 4 45 11 82 15 82 5 0 9 5 9 10 0 10 -63 12 -107 3z"/>
<path d="M683 3118 c-35 -5 -63 -14 -63 -19 0 -5 7 -9 16 -9 12 0 14 -9 12
-37 -3 -33 -7 -38 -30 -41 -16 -2 -28 -8 -28 -14 0 -7 16 -9 46 -4 26 3 53 6
60 6 24 0 15 20 -8 21 -17 1 -19 2 -5 6 9 2 17 9 17 14 0 5 -8 9 -17 10 -15 0
-15 2 2 9 11 5 29 8 40 8 17 0 17 -1 3 -5 -17 -4 -26 -23 -10 -23 4 0 8 -12 8
-26 2 -34 13 -43 28 -21 8 10 26 17 45 17 17 0 31 4 31 9 0 13 -34 23 -54 15
-13 -5 -16 1 -16 30 0 30 4 36 21 36 29 0 18 25 -12 26 -13 1 -52 -3 -86 -8z
m32 -28 c-27 -12 -35 -12 -35 0 0 6 12 10 28 9 24 0 25 -1 7 -9z"/>
<path d="M583 2963 c-23 -4 -33 -23 -13 -23 6 0 10 -20 10 -45 0 -50 14 -60
25 -18 3 15 12 32 18 36 9 6 9 10 0 14 -19 7 -16 23 3 23 14 0 16 -10 12 -74
-4 -68 3 -109 16 -95 3 3 8 42 12 87 4 45 11 82 15 82 5 0 9 5 9 10 0 10 -63
12 -107 3z"/>
<path d="M683 2668 c-35 -5 -63 -14 -63 -19 0 -5 7 -9 16 -9 12 0 14 -9 12
-37 -3 -33 -7 -38 -30 -41 -16 -2 -28 -8 -28 -14 0 -7 16 -9 46 -4 26 3 53 6
60 6 24 0 15 20 -8 21 -17 1 -19 2 -5 6 9 2 17 9 17 14 0 5 -8 9 -17 10 -15 0
-15 2 2 9 11 5 29 8 40 8 17 0 17 -1 3 -5 -17 -4 -26 -23 -10 -23 4 0 8 -12 8
-26 2 -34 13 -43 28 -21 8 10 26 17 45 17 17 0 31 4 31 9 0 13 -34 23 -54 15
-13 -5 -16 1 -16 30 0 30 4 36 21 36 29 0 18 25 -12 26 -13 1 -52 -3 -86 -8z
m32 -28 c-27 -12 -35 -12 -35 0 0 6 12 10 28 9 24 0 25 -1 7 -9z"/>
<path d="M583 2513 c-23 -4 -33 -23 -13 -23 6 0 10 -20 10 -45 0 -44 12 -60
24 -30 3 8 13 15 22 15 14 0 15 -7 11 -37 -6 -35 5 -74 17 -62 3 3 8 42 12 87
4 45 11 82 15 82 5 0 9 5 9 10 0 10 -63 12 -107 3z m57 -38 c0 -17 -5 -25 -17
-25 -16 0 -16 2 -3 11 11 8 12 12 3 16 -18 7 -16 23 2 23 9 0 15 -9 15 -25z"/>
<path d="M683 2218 c-35 -5 -63 -14 -63 -19 0 -5 7 -9 16 -9 12 0 14 -9 12
-37 -3 -33 -7 -38 -30 -41 -16 -2 -28 -8 -28 -14 0 -7 16 -9 46 -4 26 3 53 6
60 6 24 0 15 20 -8 21 -17 1 -19 2 -5 6 9 2 17 9 17 14 0 5 -8 9 -17 10 -15 0
-15 2 2 9 11 5 29 8 40 8 17 0 17 -1 3 -5 -17 -4 -26 -23 -10 -23 4 0 8 -12 8
-26 2 -34 13 -43 28 -21 8 10 26 17 45 17 17 0 31 4 31 9 0 13 -34 23 -54 15
-13 -5 -16 1 -16 30 0 30 4 36 21 36 29 0 18 25 -12 26 -13 1 -52 -3 -86 -8z
m32 -28 c-27 -12 -35 -12 -35 0 0 6 12 10 28 9 24 0 25 -1 7 -9z"/>
<path d="M583 2063 c-23 -4 -33 -23 -13 -23 6 0 10 -20 10 -45 0 -41 -2 -45
-25 -45 -14 0 -25 -5 -25 -10 0 -19 25 -21 63 -5 47 19 48 19 42 -7 -5 -23 9
-57 19 -47 3 3 8 42 12 87 4 45 11 82 15 82 5 0 9 5 9 10 0 10 -63 12 -107 3z
m57 -38 c0 -17 -5 -25 -17 -25 -16 0 -16 2 -3 11 11 8 12 12 3 16 -18 7 -16
23 2 23 9 0 15 -9 15 -25z m-10 -55 c-20 -13 -33 -13 -25 0 3 6 14 10 23 10
15 0 15 -2 2 -10z"/>
<path d="M683 1768 c-35 -5 -63 -14 -63 -19 0 -5 7 -9 16 -9 12 0 14 -9 12
-37 -3 -33 -7 -38 -30 -41 -16 -2 -28 -8 -28 -14 0 -7 16 -9 46 -4 26 3 53 6
60 6 24 0 15 20 -8 21 -17 1 -19 2 -5 6 9 2 17 9 17 14 0 5 -8 9 -17 10 -15 0
-15 2 2 9 11 5 29 8 40 8 17 0 17 -1 3 -5 -17 -4 -26 -23 -10 -23 4 0 8 -16 9
-35 2 -26 -1 -35 -12 -35 -8 0 -15 -4 -15 -9 0 -9 139 -3 150 6 12 11 -26 20
-61 16 -34 -5 -38 -3 -33 11 4 10 18 16 40 16 19 0 34 4 34 9 0 13 -34 23 -54
15 -13 -5 -16 1 -16 30 0 30 4 36 21 36 29 0 18 25 -12 26 -13 1 -52 -3 -86
-8z m32 -28 c-27 -12 -35 -12 -35 0 0 6 12 10 28 9 24 0 25 -1 7 -9z"/>
<path d="M583 1613 c-23 -4 -33 -23 -13 -23 6 0 10 -20 10 -45 0 -41 -2 -45
-25 -45 -14 0 -25 -5 -25 -10 0 -19 25 -21 63 -5 47 19 48 19 42 -7 -5 -23 9
-57 19 -47 3 3 8 42 12 87 4 45 11 82 15 82 5 0 9 5 9 10 0 10 -63 12 -107 3z
m57 -38 c0 -17 -5 -25 -17 -25 -16 0 -16 2 -3 11 11 8 12 12 3 16 -18 7 -16
23 2 23 9 0 15 -9 15 -25z m-10 -55 c-20 -13 -33 -13 -25 0 3 6 14 10 23 10
15 0 15 -2 2 -10z"/>
<path d="M683 1318 c-35 -5 -63 -14 -63 -19 0 -5 7 -9 16 -9 12 0 14 -9 12
-37 -3 -33 -7 -38 -30 -41 -16 -2 -28 -8 -28 -14 0 -7 16 -9 46 -4 26 3 53 6
60 6 24 0 15 20 -8 21 -17 1 -19 2 -5 6 9 2 17 9 17 14 0 5 -8 9 -17 10 -15 0
-15 2 2 9 11 5 29 8 40 8 17 0 17 -1 3 -5 -17 -4 -26 -23 -10 -23 4 0 8 -16 9
-35 2 -27 -1 -35 -13 -35 -11 0 -14 -5 -10 -16 3 -9 9 -33 12 -55 9 -53 22
-49 26 9 l3 47 53 3 c28 2 52 7 52 13 0 11 -12 13 -63 10 -30 -2 -36 0 -31 13
4 10 18 16 40 16 19 0 34 4 34 9 0 13 -34 23 -54 15 -13 -5 -16 1 -16 30 0 30
4 36 21 36 29 0 18 25 -12 26 -13 1 -52 -3 -86 -8z m32 -28 c-27 -12 -35 -12
-35 0 0 6 12 10 28 9 24 0 25 -1 7 -9z"/>
<path d="M583 1163 c-23 -4 -33 -23 -13 -23 6 0 10 -20 10 -45 0 -41 -2 -45
-25 -45 -14 0 -25 -5 -25 -10 0 -19 25 -21 63 -5 47 19 48 19 42 -7 -5 -23 9
-57 19 -47 3 3 8 42 12 87 4 45 11 82 15 82 5 0 9 5 9 10 0 10 -63 12 -107 3z
m57 -38 c0 -17 -5 -25 -17 -25 -16 0 -16 2 -3 11 11 8 12 12 3 16 -18 7 -16
23 2 23 9 0 15 -9 15 -25z m-10 -55 c-20 -13 -33 -13 -25 0 3 6 14 10 23 10
15 0 15 -2 2 -10z"/>
<path d="M683 868 c-35 -5 -63 -14 -63 -19 0 -5 7 -9 16 -9 12 0 14 -9 12 -37
-3 -33 -7 -38 -30 -41 -16 -2 -28 -8 -28 -14 0 -7 16 -9 46 -4 26 3 53 6 60 6
24 0 15 20 -8 21 -17 1 -19 2 -5 6 9 2 17 9 17 14 0 5 -8 9 -17 10 -15 0 -15
2 2 9 11 5 29 8 40 8 17 0 17 -1 3 -5 -17 -4 -26 -23 -10 -23 4 0 8 -16 9 -35
2 -27 -1 -35 -13 -35 -11 0 -14 -5 -10 -16 3 -9 9 -33 12 -55 9 -53 24 -49 24
6 0 33 5 47 16 52 26 10 32 -13 27 -104 -4 -69 -2 -84 8 -81 10 3 15 26 17 74
3 89 9 114 27 114 18 0 20 19 3 21 -7 1 -30 1 -51 0 -30 -2 -36 0 -31 13 4 10
18 16 40 16 19 0 34 4 34 9 0 13 -34 23 -54 15 -13 -5 -16 1 -16 30 0 30 4 36
21 36 29 0 18 25 -12 26 -13 1 -52 -3 -86 -8z m32 -28 c-27 -12 -35 -12 -35 0
0 6 12 10 28 9 24 0 25 -1 7 -9z"/>
<path d="M583 713 c-23 -4 -33 -23 -13 -23 6 0 10 -20 10 -45 0 -41 -2 -45
-25 -45 -14 0 -25 -5 -25 -10 0 -19 25 -21 63 -5 47 19 48 19 42 -7 -5 -23 9
-57 19 -47 3 3 8 42 12 87 4 45 11 82 15 82 5 0 9 5 9 10 0 10 -63 12 -107 3z
m57 -38 c0 -17 -5 -25 -17 -25 -16 0 -16 2 -3 11 11 8 12 12 3 16 -18 7 -16
23 2 23 9 0 15 -9 15 -25z m-10 -55 c-20 -13 -33 -13 -25 0 3 6 14 10 23 10
15 0 15 -2 2 -10z"/>
<path d="M683 418 c-35 -5 -63 -14 -63 -19 0 -5 7 -9 16 -9 12 0 14 -9 12 -37
-3 -33 -7 -38 -30 -41 -16 -2 -28 -8 -28 -14 0 -7 16 -9 46 -4 26 3 53 6 60 6
24 0 15 20 -8 21 -17 1 -19 2 -5 6 9 2 17 9 17 14 0 5 -8 9 -17 10 -15 0 -15
2 2 9 11 5 29 8 40 8 17 0 17 -1 3 -5 -17 -4 -26 -23 -10 -23 4 0 8 -16 9 -35
2 -27 -1 -35 -13 -35 -11 0 -14 -5 -10 -16 3 -9 9 -33 12 -55 8 -46 24 -52 24
-9 0 24 4 30 23 30 21 0 22 -3 19 -76 -3 -59 0 -75 10 -72 9 3 14 27 16 74 3
89 9 114 27 114 18 0 20 19 3 21 -7 1 -30 1 -51 0 -30 -2 -36 0 -31 13 4 10
18 16 40 16 19 0 34 4 34 9 0 13 -34 23 -54 15 -13 -5 -16 1 -16 30 0 30 4 36
21 36 29 0 18 25 -12 26 -13 1 -52 -3 -86 -8z m32 -28 c-27 -12 -35 -12 -35 0
0 6 12 10 28 9 24 0 25 -1 7 -9z m65 -140 c0 -5 -9 -10 -21 -10 -11 0 -17 5
-14 10 3 6 13 10 21 10 8 0 14 -4 14 -10z"/>
<path d="M583 263 c-23 -4 -33 -23 -13 -23 6 0 10 -20 10 -45 0 -41 -2 -45
-25 -45 -14 0 -25 -5 -25 -10 0 -19 25 -21 63 -5 47 19 48 19 42 -7 -5 -23 9
-57 19 -47 3 3 8 42 12 87 4 45 11 82 15 82 5 0 9 5 9 10 0 10 -63 12 -107 3z
m57 -38 c0 -17 -5 -25 -17 -25 -16 0 -16 2 -3 11 11 8 12 12 3 16 -18 7 -16
23 2 23 9 0 15 -9 15 -25z m-10 -55 c-20 -13 -33 -13 -25 0 3 6 14 10 23 10
15 0 15 -2 2 -10z"/>
</g>
</svg>
