<?xml version="1.0" standalone="no"?>
<!DOCTYPE svg PUBLIC "-//W3C//DTD SVG 20010904//EN"
 "http://www.w3.org/TR/2001/REC-SVG-20010904/DTD/svg10.dtd">
<svg version="1.0" xmlns="http://www.w3.org/2000/svg"
 width="50.000000pt" height="725.000000pt" viewBox="0 0 50.000000 725.000000"
 preserveAspectRatio="xMidYMid meet">
<metadata>
Created by potrace 1.16, written by Peter Selinger 2001-2019
</metadata>
<g transform="translate(0.000000,725.000000) scale(0.100000,-0.100000)"
fill="#000000" stroke="none">
<path d="M120 7033 c0 -69 -4 -98 -20 -128 -11 -21 -18 -41 -16 -43 8 -8 26 9
42 39 20 39 25 210 7 216 -10 4 -13 -17 -13 -84z"/>
<path d="M172 6670 c-12 -5 -29 -7 -37 -4 -13 5 -15 -8 -15 -83 0 -69 -4 -98
-20 -128 -21 -41 -20 -55 4 -36 23 19 35 61 43 146 6 63 12 80 25 83 19 4 25
-40 20 -145 -3 -48 -7 -63 -19 -63 -8 0 -13 -5 -11 -12 6 -17 36 -34 45 -24
12 11 20 249 9 264 -10 14 -13 14 -44 2z"/>
<path d="M172 6220 c-12 -5 -29 -7 -37 -4 -13 5 -15 -8 -15 -83 0 -69 -4 -97
-20 -128 -23 -46 -23 -45 -10 -45 20 0 48 62 54 120 6 55 8 57 29 47 20 -9 22
-16 19 -74 -3 -48 -7 -63 -19 -63 -8 0 -13 -5 -11 -12 6 -17 36 -34 45 -24 12
11 20 249 9 264 -10 14 -13 14 -44 2z m18 -40 c0 -11 -6 -20 -14 -20 -18 0
-29 16 -21 30 11 18 35 11 35 -10z"/>
<path d="M172 5770 c-12 -5 -29 -7 -37 -4 -13 5 -15 -8 -15 -83 0 -69 -4 -98
-20 -128 -11 -21 -18 -41 -15 -43 9 -9 35 20 47 54 6 19 16 34 21 34 6 0 16 8
23 18 12 15 13 11 14 -30 0 -37 -4 -48 -16 -48 -9 0 -14 -5 -12 -12 6 -17 36
-34 45 -24 12 11 20 249 9 264 -10 14 -13 14 -44 2z m18 -40 c0 -11 -6 -20
-14 -20 -18 0 -29 16 -21 30 11 18 35 11 35 -10z m0 -71 c0 -3 -10 -11 -23
-16 -22 -10 -23 -9 -19 18 4 25 6 26 23 16 10 -6 19 -15 19 -18z"/>
<path d="M172 5320 c-12 -5 -29 -7 -37 -4 -13 5 -15 -8 -15 -83 0 -69 -4 -98
-20 -128 -11 -21 -18 -41 -15 -43 9 -9 35 20 47 54 6 19 16 34 21 34 6 0 16 8
23 18 12 15 13 11 14 -30 0 -37 -4 -48 -16 -48 -9 0 -14 -5 -12 -12 6 -17 36
-34 45 -24 12 11 20 249 9 264 -10 14 -13 14 -44 2z m18 -40 c0 -21 -24 -28
-35 -10 -8 14 3 30 21 30 8 0 14 -9 14 -20z m0 -71 c0 -3 -10 -11 -23 -16 -22
-10 -23 -9 -19 18 4 25 6 26 23 16 10 -6 19 -15 19 -18z"/>
<path d="M297 5247 c-41 -6 -66 -15 -64 -21 2 -6 15 -10 28 -9 126 10 169 17
166 27 -5 15 -47 16 -130 3z"/>
<path d="M315 4893 c5 -10 10 -34 13 -54 3 -31 1 -37 -20 -42 -12 -4 -36 -7
-51 -7 -19 0 -27 -4 -24 -12 2 -9 19 -12 48 -10 l44 3 -3 -71 c-3 -65 -5 -70
-23 -65 -26 9 -24 -7 6 -35 16 -15 29 -20 35 -14 5 5 10 50 12 99 l3 90 38 3
c47 4 45 25 -4 32 -33 5 -34 6 -34 50 0 40 -3 45 -24 48 -20 3 -22 1 -16 -15z"/>
<path d="M172 4870 c-12 -5 -29 -7 -37 -4 -13 5 -15 -8 -15 -83 0 -69 -4 -98
-20 -128 -11 -21 -18 -41 -15 -43 9 -9 35 20 47 54 6 19 16 34 21 34 6 0 16 8
23 18 12 15 13 11 14 -30 0 -37 -4 -48 -16 -48 -9 0 -14 -5 -12 -12 6 -17 36
-34 45 -24 12 11 20 249 9 264 -10 14 -13 14 -44 2z m18 -40 c0 -11 -6 -20
-14 -20 -18 0 -29 16 -21 30 11 18 35 11 35 -10z m0 -71 c0 -3 -10 -11 -23
-16 -22 -10 -23 -9 -19 18 4 25 6 26 23 16 10 -6 19 -15 19 -18z"/>
<path d="M315 4443 c5 -10 10 -34 13 -54 3 -31 1 -37 -20 -42 -12 -4 -36 -7
-51 -7 -19 0 -27 -4 -24 -12 2 -9 19 -12 48 -10 l44 3 -3 -71 c-3 -65 -5 -70
-23 -65 -26 9 -24 -7 6 -35 16 -15 29 -20 35 -14 5 5 10 50 12 99 l3 90 38 3
c47 4 45 25 -4 32 -33 5 -34 6 -34 50 0 40 -3 45 -24 48 -20 3 -22 1 -16 -15z"/>
<path d="M172 4420 c-12 -5 -29 -7 -37 -4 -13 5 -15 -8 -15 -83 0 -69 -4 -98
-20 -128 -11 -21 -18 -41 -15 -43 9 -9 35 20 47 54 6 19 16 34 21 34 6 0 16 8
23 18 12 15 13 11 14 -30 0 -37 -4 -48 -16 -48 -9 0 -14 -5 -12 -12 6 -17 36
-34 45 -24 12 11 20 249 9 264 -10 14 -13 14 -44 2z m18 -40 c0 -11 -6 -20
-14 -20 -18 0 -29 16 -21 30 11 18 35 11 35 -10z m0 -71 c0 -3 -10 -11 -23
-16 -22 -10 -23 -9 -19 18 4 25 6 26 23 16 10 -6 19 -15 19 -18z"/>
<path d="M240 4285 c0 -3 5 -15 10 -26 14 -25 40 -25 40 1 0 11 -4 20 -9 20
-5 0 -16 3 -25 6 -9 3 -16 3 -16 -1z"/>
</g>
</svg>
