<?xml version="1.0" standalone="no"?>
<!DOCTYPE svg PUBLIC "-//W3C//DTD SVG 20010904//EN"
 "http://www.w3.org/TR/2001/REC-SVG-20010904/DTD/svg10.dtd">
<svg version="1.0" xmlns="http://www.w3.org/2000/svg"
 width="50.000000pt" height="725.000000pt" viewBox="0 0 50.000000 725.000000"
 preserveAspectRatio="xMidYMid meet">
<metadata>
Created by potrace 1.16, written by Peter Selinger 2001-2019
</metadata>
<g transform="translate(0.000000,725.000000) scale(0.100000,-0.100000)"
fill="#000000" stroke="none">
<path d="M118 7036 c-3 -67 -9 -101 -22 -120 -18 -29 -16 -43 4 -31 22 14 39
71 46 158 6 74 5 87 -8 87 -13 0 -16 -18 -20 -94z"/>
<path d="M154 6683 l-32 -4 -4 -93 c-3 -67 -9 -101 -22 -120 -18 -29 -16 -43
4 -31 21 13 38 68 45 148 6 66 10 77 26 77 17 0 19 -9 19 -94 0 -71 -4 -98
-15 -110 -18 -18 -9 -48 14 -44 13 3 18 22 24 93 4 50 6 110 5 135 -3 48 -7
50 -64 43z"/>
<path d="M154 6233 l-32 -4 -4 -93 c-3 -67 -9 -101 -22 -120 -18 -29 -16 -43
4 -31 17 11 40 70 40 104 0 49 9 62 31 48 24 -15 27 -107 4 -131 -18 -18 -9
-48 14 -44 13 3 18 22 24 93 4 50 6 110 5 135 -3 48 -7 50 -64 43z m36 -47 c0
-19 -4 -23 -20 -19 -11 3 -20 14 -20 24 0 12 7 19 20 19 14 0 20 -7 20 -24z"/>
<path d="M154 5783 l-32 -4 -4 -93 c-3 -67 -9 -101 -22 -120 -10 -15 -15 -31
-11 -34 8 -8 45 35 45 52 0 7 14 22 30 34 l30 23 0 -35 c0 -19 -7 -41 -15 -50
-18 -18 -9 -48 14 -44 13 3 18 22 24 93 4 50 6 110 5 135 -3 48 -7 50 -64 43z
m36 -47 c0 -19 -4 -23 -20 -19 -11 3 -20 14 -20 24 0 12 7 19 20 19 14 0 20
-7 20 -24z m0 -67 c0 -3 -11 -11 -25 -17 -26 -12 -32 -3 -19 32 5 12 9 13 25
3 10 -6 19 -15 19 -18z"/>
<path d="M154 5333 l-32 -4 -4 -93 c-3 -67 -9 -101 -22 -120 -10 -15 -15 -31
-11 -34 8 -8 45 35 45 52 0 7 14 22 30 34 l30 23 0 -35 c0 -19 -7 -41 -15 -50
-18 -18 -9 -48 14 -44 13 3 18 22 24 93 4 50 6 110 5 135 -3 48 -7 50 -64 43z
m36 -47 c0 -19 -4 -23 -20 -19 -11 3 -20 14 -20 24 0 12 7 19 20 19 14 0 20
-7 20 -24z m0 -67 c0 -3 -11 -11 -25 -17 -26 -12 -32 -3 -19 32 5 12 9 13 25
3 10 -6 19 -15 19 -18z"/>
<path d="M290 5334 c0 -16 23 -44 35 -44 18 0 20 21 3 38 -12 12 -38 17 -38 6z"/>
<path d="M154 4883 l-32 -4 -4 -93 c-3 -67 -9 -101 -22 -120 -10 -15 -15 -31
-11 -34 8 -8 45 35 45 52 0 7 14 22 30 34 l30 23 0 -35 c0 -19 -7 -41 -15 -50
-18 -18 -9 -48 14 -44 13 3 18 22 24 98 4 52 9 95 10 96 1 2 48 6 105 10 80 5
102 10 102 22 0 11 -10 14 -44 10 -37 -5 -45 -2 -49 13 -5 19 -33 36 -43 26
-3 -3 -1 -14 5 -25 12 -23 -2 -32 -49 -32 -24 0 -29 5 -32 27 -3 29 -12 33
-64 26z m36 -47 c0 -19 -4 -23 -20 -19 -11 3 -20 14 -20 24 0 12 7 19 20 19
14 0 20 -7 20 -24z m0 -67 c0 -3 -11 -11 -25 -17 -26 -12 -32 -3 -19 32 5 12
9 13 25 3 10 -6 19 -15 19 -18z"/>
<path d="M154 4433 l-32 -4 -4 -93 c-3 -67 -9 -101 -22 -120 -10 -15 -15 -31
-11 -34 8 -8 45 35 45 52 0 7 14 22 30 34 l30 23 0 -35 c0 -19 -7 -41 -15 -50
-18 -18 -9 -48 14 -44 13 3 18 22 24 98 4 52 9 95 10 96 1 2 48 6 105 10 80 5
102 10 102 22 0 11 -10 14 -44 10 -37 -5 -45 -2 -49 13 -5 19 -33 36 -43 26
-3 -3 -1 -14 5 -25 12 -23 -2 -32 -49 -32 -24 0 -29 5 -32 27 -3 29 -12 33
-64 26z m36 -47 c0 -19 -4 -23 -20 -19 -11 3 -20 14 -20 24 0 12 7 19 20 19
14 0 20 -7 20 -24z m0 -67 c0 -3 -11 -11 -25 -17 -26 -12 -32 -3 -19 32 5 12
9 13 25 3 10 -6 19 -15 19 -18z"/>
<path d="M318 4323 c-32 -8 -20 -26 13 -19 l32 6 -7 -41 c-8 -53 -23 -79 -42
-79 -24 0 -12 -35 13 -38 13 -2 26 4 32 16 14 25 40 145 35 154 -5 8 -47 9
-76 1z"/>
<path d="M154 3983 l-32 -4 -4 -93 c-3 -67 -9 -101 -22 -120 -10 -15 -15 -31
-11 -34 8 -8 45 35 45 52 0 7 14 22 30 34 l30 23 0 -35 c0 -19 -7 -41 -15 -50
-8 -8 -12 -22 -9 -31 9 -22 39 -15 41 10 1 11 5 55 8 98 l7 77 40 0 c36 0 39
-2 32 -22 -9 -31 -33 -77 -56 -111 -11 -16 -18 -31 -14 -34 9 -9 35 17 63 64
13 24 29 43 33 43 5 0 16 3 26 7 15 6 16 2 10 -37 -8 -54 -22 -80 -42 -80 -24
0 -12 -35 13 -38 13 -2 26 4 32 16 14 27 40 145 34 155 -3 5 -20 7 -37 5 -29
-3 -32 -1 -28 19 4 20 10 23 53 23 39 0 49 3 49 16 0 14 -8 16 -44 12 -37 -5
-45 -2 -49 13 -5 19 -33 36 -43 26 -3 -3 -1 -14 5 -25 12 -23 -2 -32 -49 -32
-24 0 -29 5 -32 27 -3 29 -12 33 -64 26z m36 -47 c0 -19 -4 -23 -20 -19 -11 3
-20 14 -20 24 0 12 7 19 20 19 14 0 20 -7 20 -24z m0 -67 c0 -3 -11 -11 -25
-17 -26 -12 -32 -3 -19 32 5 12 9 13 25 3 10 -6 19 -15 19 -18z"/>
</g>
</svg>
