<?xml version="1.0" standalone="no"?>
<!DOCTYPE svg PUBLIC "-//W3C//DTD SVG 20010904//EN"
 "http://www.w3.org/TR/2001/REC-SVG-20010904/DTD/svg10.dtd">
<svg version="1.0" xmlns="http://www.w3.org/2000/svg"
 width="50.000000pt" height="725.000000pt" viewBox="0 0 50.000000 725.000000"
 preserveAspectRatio="xMidYMid meet">
<metadata>
Created by potrace 1.16, written by Peter Selinger 2001-2019
</metadata>
<g transform="translate(0.000000,725.000000) scale(0.100000,-0.100000)"
fill="#000000" stroke="none">
<path d="M280 7170 c0 -10 -90 -85 -112 -93 -7 -2 -10 -8 -6 -11 9 -11 87 27
121 59 17 15 27 32 23 40 -6 17 -26 20 -26 5z"/>
<path d="M267 6705 c-14 -19 -24 -24 -43 -19 -24 6 -35 -10 -11 -19 7 -2 -2
-12 -20 -23 -61 -35 -29 -42 37 -9 21 11 30 11 50 -1 33 -18 50 -17 50 1 0 9
-12 20 -27 26 -27 10 -27 11 -9 24 11 8 16 21 13 30 -9 21 -19 18 -40 -10z"/>
<path d="M267 6255 c-14 -19 -24 -24 -43 -19 -24 6 -35 -10 -11 -19 7 -2 -2
-12 -20 -23 -61 -35 -29 -42 37 -9 21 11 30 11 50 -1 33 -18 50 -17 50 1 0 9
-12 20 -27 26 -27 10 -27 11 -9 24 11 8 16 21 13 30 -9 21 -19 18 -40 -10z"/>
<path d="M270 6149 c-132 -12 -170 -19 -170 -31 0 -7 18 -9 53 -4 28 3 101 9
160 13 71 4 106 10 104 17 -5 14 -42 16 -147 5z"/>
<path d="M267 5805 c-14 -19 -24 -24 -43 -19 -24 6 -35 -10 -11 -19 7 -2 -2
-12 -20 -23 -61 -35 -29 -42 37 -9 21 11 30 11 50 -1 33 -18 50 -17 50 1 0 9
-12 20 -27 26 -27 10 -27 11 -9 24 11 8 16 21 13 30 -9 21 -19 18 -40 -10z"/>
<path d="M224 5705 c-4 -8 -18 -15 -34 -15 -44 0 -90 -12 -90 -23 0 -6 19 -8
50 -4 47 6 50 5 40 -13 -5 -10 -29 -34 -52 -54 -23 -20 -39 -39 -35 -42 10
-10 57 24 104 75 l42 46 86 4 c59 2 85 7 82 15 -3 7 -29 10 -80 8 -51 -3 -77
0 -77 7 0 17 -30 13 -36 -4z"/>
<path d="M267 5355 c-14 -19 -24 -24 -43 -19 -24 6 -35 -10 -11 -19 7 -2 -2
-12 -20 -23 -61 -35 -29 -42 37 -9 21 11 30 11 50 -1 33 -18 50 -17 50 1 0 9
-12 20 -27 26 -27 10 -27 11 -9 24 11 8 16 21 13 30 -9 21 -19 18 -40 -10z"/>
<path d="M224 5255 c-4 -8 -18 -15 -34 -15 -44 0 -90 -12 -90 -23 0 -6 19 -8
50 -4 47 6 50 5 40 -13 -5 -10 -29 -34 -52 -54 -54 -46 -41 -59 17 -17 l45 32
0 -31 c0 -17 -7 -47 -15 -67 -17 -40 -13 -52 9 -33 16 13 24 45 30 125 4 63
23 75 124 75 55 0 73 3 69 13 -3 8 -26 11 -80 9 -51 -3 -77 0 -77 7 0 17 -30
13 -36 -4z"/>
<path d="M267 4905 c-14 -19 -24 -24 -43 -19 -24 6 -35 -10 -11 -19 7 -2 -2
-12 -20 -23 -61 -35 -29 -42 37 -9 21 11 30 11 50 -1 33 -18 50 -17 50 1 0 9
-12 20 -27 26 -27 10 -27 11 -9 24 11 8 16 21 13 30 -9 21 -19 18 -40 -10z"/>
<path d="M224 4805 c-4 -8 -18 -15 -34 -15 -44 0 -90 -12 -90 -23 0 -6 19 -8
50 -4 47 6 50 5 40 -13 -5 -10 -29 -34 -52 -54 -54 -46 -41 -59 17 -17 l45 32
0 -31 c0 -17 -7 -47 -15 -67 -17 -40 -13 -52 9 -33 16 13 24 45 30 125 4 63
23 75 124 75 55 0 73 3 69 13 -3 8 -26 11 -80 9 -51 -3 -77 0 -77 7 0 17 -30
13 -36 -4z"/>
<path d="M250 4740 c0 -5 11 -10 25 -10 24 0 25 -3 25 -60 0 -46 -4 -61 -17
-69 -17 -9 -17 -11 -1 -28 27 -26 35 -8 41 90 l5 87 -39 0 c-21 0 -39 -4 -39
-10z"/>
<path d="M267 4455 c-14 -19 -24 -24 -43 -19 -24 6 -35 -10 -11 -19 7 -2 -2
-12 -20 -23 -61 -35 -29 -42 37 -9 21 11 30 11 50 -1 33 -18 50 -17 50 1 0 9
-12 20 -27 26 -27 10 -27 11 -9 24 11 8 16 21 13 30 -9 21 -19 18 -40 -10z"/>
<path d="M224 4355 c-4 -8 -18 -15 -34 -15 -44 0 -90 -12 -90 -23 0 -6 19 -8
50 -4 47 6 50 5 40 -13 -5 -10 -29 -34 -52 -54 -54 -46 -41 -59 17 -17 l45 32
0 -31 c0 -17 -7 -47 -15 -67 -17 -41 -12 -54 12 -31 9 9 18 40 21 68 4 47 6
50 22 35 22 -20 42 -19 38 3 -2 9 -13 18 -25 20 -26 4 -36 37 -15 54 9 8 50
14 99 17 57 2 83 7 80 15 -3 7 -29 10 -80 8 -51 -3 -77 0 -77 7 0 17 -30 13
-36 -4z"/>
<path d="M250 4290 c0 -5 11 -10 25 -10 24 0 25 -3 25 -60 0 -46 -4 -61 -17
-69 -17 -9 -17 -11 -1 -28 27 -26 35 -8 41 90 l5 87 -39 0 c-21 0 -39 -4 -39
-10z"/>
<path d="M267 4005 c-14 -19 -24 -24 -43 -19 -24 6 -35 -10 -11 -19 7 -2 -2
-12 -20 -23 -61 -35 -29 -42 37 -9 21 11 30 11 50 -1 33 -18 50 -17 50 1 0 9
-12 20 -27 26 -27 10 -27 11 -9 24 11 8 16 21 13 30 -9 21 -19 18 -40 -10z"/>
<path d="M224 3905 c-4 -8 -18 -15 -34 -15 -44 0 -90 -12 -90 -23 0 -6 19 -8
50 -4 47 6 50 5 40 -13 -5 -10 -29 -34 -52 -54 -54 -46 -41 -59 17 -17 l45 32
0 -31 c0 -17 -7 -47 -15 -67 -8 -20 -13 -38 -10 -41 7 -8 35 19 35 34 0 8 7
14 16 14 9 0 29 9 45 21 l29 20 0 -25 c0 -14 -8 -29 -17 -35 -17 -9 -17 -11
-1 -28 27 -26 35 -8 41 90 l5 87 -39 0 c-21 0 -39 -4 -39 -10 0 -5 11 -10 25
-10 20 0 25 -5 25 -24 0 -31 -16 -42 -23 -16 -3 12 -14 20 -25 20 -25 0 -35
35 -14 52 9 8 50 14 99 17 57 2 83 7 80 15 -3 7 -29 10 -80 8 -51 -3 -77 0
-77 7 0 17 -30 13 -36 -4z m32 -147 c-22 -15 -36 -8 -36 17 0 26 0 26 24 8 16
-12 20 -20 12 -25z"/>
</g>
</svg>
