<?xml version="1.0" standalone="no"?>
<!DOCTYPE svg PUBLIC "-//W3C//DTD SVG 20010904//EN"
 "http://www.w3.org/TR/2001/REC-SVG-20010904/DTD/svg10.dtd">
<svg version="1.0" xmlns="http://www.w3.org/2000/svg"
 width="50.000000pt" height="725.000000pt" viewBox="0 0 50.000000 725.000000"
 preserveAspectRatio="xMidYMid meet">
<metadata>
Created by potrace 1.16, written by Peter Selinger 2001-2019
</metadata>
<g transform="translate(0.000000,725.000000) scale(0.100000,-0.100000)"
fill="#000000" stroke="none">
<path d="M120 7053 c-1 -43 -7 -96 -15 -118 -18 -48 -17 -45 -4 -45 18 0 36
63 43 153 6 75 5 87 -8 87 -13 0 -16 -14 -16 -77z"/>
<path d="M188 6616 c6 -98 -4 -167 -24 -159 -21 8 -17 -11 7 -33 31 -28 38 -6
41 119 1 59 2 115 2 124 1 10 -6 19 -15 21 -14 2 -15 -7 -11 -72z"/>
<path d="M120 6603 c-1 -43 -7 -96 -15 -118 -18 -48 -17 -45 -5 -45 18 0 33
45 42 130 4 47 13 87 18 88 20 7 9 22 -15 22 -24 0 -25 -2 -25 -77z"/>
<path d="M186 6204 c6 -33 5 -36 -10 -31 -10 4 -20 7 -22 7 -2 0 -4 7 -4 15 0
8 5 15 10 15 6 0 10 5 10 10 0 6 -11 10 -25 10 -24 0 -25 -2 -25 -77 -1 -43
-7 -96 -15 -118 -18 -48 -17 -45 -4 -45 17 0 39 66 39 119 0 49 0 49 25 38 20
-10 25 -19 25 -48 0 -61 -11 -98 -26 -92 -21 8 -17 -11 7 -33 31 -28 38 -6 41
119 1 59 2 115 2 124 1 10 -7 19 -17 21 -16 3 -17 -1 -11 -34z"/>
<path d="M186 5754 c6 -33 5 -36 -10 -31 -10 4 -20 7 -22 7 -2 0 -4 7 -4 15 0
8 5 15 10 15 6 0 10 5 10 10 0 6 -11 10 -25 10 -24 0 -25 -2 -25 -77 -1 -43
-7 -96 -15 -118 -18 -48 -17 -45 -4 -45 6 0 18 18 26 40 9 22 20 40 26 40 5 0
16 8 23 18 12 16 13 16 14 -4 0 -46 -12 -83 -26 -77 -21 8 -17 -11 7 -33 31
-28 38 -6 41 119 1 59 2 115 2 124 1 10 -7 19 -17 21 -16 3 -17 -1 -11 -34z
m3 -72 c6 -3 -31 -31 -41 -32 -5 0 -8 14 -8 30 0 31 2 31 49 2z"/>
<path d="M186 5304 c6 -33 5 -36 -10 -31 -10 4 -20 7 -22 7 -2 0 -4 7 -4 15 0
8 5 15 10 15 6 0 10 5 10 10 0 6 -11 10 -25 10 -24 0 -25 -2 -25 -77 -1 -43
-7 -96 -15 -118 -18 -48 -17 -45 -4 -45 6 0 18 18 26 40 9 22 20 40 26 40 5 0
16 8 23 18 12 16 13 16 14 -4 0 -46 -12 -83 -26 -77 -21 8 -17 -11 7 -33 31
-28 38 -6 41 119 1 59 2 115 2 124 1 10 -7 19 -17 21 -16 3 -17 -1 -11 -34z
m3 -72 c6 -3 -31 -31 -41 -32 -5 0 -8 14 -8 30 0 31 2 31 49 2z"/>
<path d="M301 5296 c-47 -7 -76 -16 -79 -25 -4 -11 2 -12 24 -8 16 4 64 10
107 13 49 5 76 11 74 18 -5 15 -39 16 -126 2z"/>
<path d="M186 4854 c6 -33 5 -36 -10 -31 -10 4 -20 7 -22 7 -2 0 -4 7 -4 15 0
8 5 15 10 15 6 0 10 5 10 10 0 6 -11 10 -25 10 -24 0 -25 -2 -25 -77 -1 -43
-7 -96 -15 -118 -18 -48 -17 -45 -4 -45 6 0 18 18 26 40 9 22 20 40 26 40 5 0
16 8 23 18 12 16 13 16 14 -4 0 -46 -12 -83 -26 -77 -21 8 -17 -11 7 -33 31
-28 38 -6 41 119 1 59 2 115 2 124 1 10 -7 19 -17 21 -16 3 -17 -1 -11 -34z
m3 -72 c6 -3 -31 -31 -41 -32 -5 0 -8 14 -8 30 0 31 2 31 49 2z"/>
<path d="M301 4846 c-47 -7 -76 -16 -79 -25 -4 -11 2 -12 24 -8 16 4 64 10
107 13 49 5 76 11 74 18 -5 15 -39 16 -126 2z"/>
<path d="M240 4725 c0 -30 4 -55 9 -55 10 0 23 88 15 101 -14 23 -24 4 -24
-46z"/>
<path d="M186 4404 c6 -33 5 -36 -10 -31 -10 4 -20 7 -22 7 -2 0 -4 7 -4 15 0
8 5 15 10 15 6 0 10 5 10 10 0 6 -11 10 -25 10 -24 0 -25 -2 -25 -77 -1 -43
-7 -96 -15 -118 -18 -48 -17 -45 -4 -45 6 0 18 18 26 40 9 22 20 40 26 40 5 0
16 8 23 18 12 16 13 16 14 -4 0 -46 -12 -83 -26 -77 -21 8 -17 -11 7 -33 31
-28 38 -6 41 119 1 59 2 115 2 124 1 10 -7 19 -17 21 -16 3 -17 -1 -11 -34z
m3 -72 c6 -3 -31 -31 -41 -32 -5 0 -8 14 -8 30 0 31 2 31 49 2z"/>
<path d="M301 4396 c-47 -7 -76 -16 -79 -25 -4 -11 2 -12 24 -8 16 4 64 10
107 13 49 5 76 11 74 18 -5 15 -39 16 -126 2z"/>
<path d="M283 4333 l-43 -4 0 -55 c0 -63 15 -72 23 -13 3 22 7 42 9 44 2 2 24
5 48 7 44 3 45 2 48 -29 3 -25 -1 -33 -13 -33 -20 0 -15 -19 8 -34 23 -15 30
-3 35 64 l4 60 -38 -2 c-22 -1 -58 -3 -81 -5z"/>
<path d="M294 3983 c1 -36 -1 -38 -33 -43 -19 -3 -36 -11 -39 -19 -3 -10 4
-12 37 -6 37 6 41 5 41 -14 0 -17 -6 -21 -30 -21 -30 0 -30 -1 -30 -55 0 -30
5 -55 10 -55 6 0 10 10 10 23 0 38 12 67 26 67 11 0 14 -20 14 -90 0 -119 18
-117 22 3 3 84 5 92 23 92 15 0 21 -8 23 -32 3 -25 -1 -33 -13 -33 -20 0 -15
-19 8 -34 23 -15 30 -3 35 64 l4 60 -36 0 c-29 0 -36 4 -36 20 0 17 7 20 51
20 36 0 49 4 46 13 -3 8 -21 11 -51 10 l-46 -3 0 35 c0 27 -4 35 -19 35 -15 0
-18 -7 -17 -37z"/>
<path d="M186 3954 c6 -33 5 -36 -10 -31 -10 4 -20 7 -22 7 -2 0 -4 7 -4 15 0
8 5 15 10 15 6 0 10 5 10 10 0 6 -11 10 -25 10 -24 0 -25 -2 -25 -77 -1 -43
-7 -96 -15 -118 -18 -48 -17 -45 -4 -45 6 0 18 18 26 40 9 22 20 40 26 40 5 0
16 8 23 18 12 16 13 16 14 -4 0 -46 -12 -83 -26 -77 -21 8 -17 -11 7 -33 31
-28 38 -6 41 119 1 59 2 115 2 124 1 10 -7 19 -17 21 -16 3 -17 -1 -11 -34z
m3 -72 c6 -3 -31 -31 -41 -32 -5 0 -8 14 -8 30 0 31 2 31 49 2z"/>
</g>
</svg>
