<?xml version="1.0" standalone="no"?>
<!DOCTYPE svg PUBLIC "-//W3C//DTD SVG 20010904//EN"
 "http://www.w3.org/TR/2001/REC-SVG-20010904/DTD/svg10.dtd">
<svg version="1.0" xmlns="http://www.w3.org/2000/svg"
 width="50.000000pt" height="725.000000pt" viewBox="0 0 50.000000 725.000000"
 preserveAspectRatio="xMidYMid meet">
<metadata>
Created by potrace 1.16, written by Peter Selinger 2001-2019
</metadata>
<g transform="translate(0.000000,725.000000) scale(0.100000,-0.100000)"
fill="#000000" stroke="none">
<path d="M195 7065 c-5 -2 -27 -6 -47 -10 -57 -9 -48 -27 10 -20 80 11 102 16
102 26 0 9 -43 11 -65 4z"/>
<path d="M180 6662 c0 -49 -1 -50 -35 -56 -19 -4 -35 -12 -35 -18 0 -6 12 -8
31 -4 31 6 31 5 26 -24 -9 -41 19 -41 28 -1 5 22 14 31 36 36 36 8 38 25 4 25
-24 0 -25 3 -23 42 2 34 -1 43 -14 46 -15 3 -18 -4 -18 -46z"/>
<path d="M180 6212 c0 -49 -1 -50 -35 -56 -19 -4 -35 -12 -35 -18 0 -6 12 -8
31 -4 31 6 31 5 26 -24 -9 -41 19 -41 28 -1 5 22 14 31 36 36 36 8 38 25 4 25
-24 0 -25 3 -23 42 2 34 -1 43 -14 46 -15 3 -18 -4 -18 -46z"/>
<path d="M123 6069 c4 -13 7 -34 7 -46 0 -13 5 -23 11 -23 16 0 7 83 -10 88
-10 4 -12 -1 -8 -19z"/>
<path d="M180 5762 c0 -49 -1 -50 -35 -56 -19 -4 -35 -12 -35 -18 0 -6 12 -8
31 -4 27 5 30 3 27 -17 -2 -14 -11 -23 -26 -25 -19 -3 -23 -8 -18 -25 3 -12 6
-32 6 -44 0 -13 5 -23 10 -23 6 0 10 16 10 35 0 28 4 35 19 35 13 0 21 10 25
34 5 28 12 36 36 41 37 8 40 25 5 25 -24 0 -25 3 -23 42 2 34 -1 43 -14 46
-15 3 -18 -4 -18 -46z"/>
<path d="M205 5605 c0 -54 10 -57 32 -9 15 31 15 36 3 44 -28 18 -35 10 -35
-35z"/>
<path d="M180 5312 c0 -49 -1 -50 -35 -56 -19 -4 -35 -12 -35 -18 0 -6 12 -8
31 -4 27 5 30 3 27 -17 -2 -14 -11 -23 -26 -25 -19 -3 -23 -8 -18 -25 3 -12 6
-32 6 -44 0 -21 5 -23 48 -23 47 0 47 0 60 42 11 34 11 43 0 49 -26 17 -35 9
-34 -28 1 -34 -2 -38 -26 -41 -24 -3 -28 0 -28 22 0 19 5 26 19 26 13 0 21 10
25 34 5 28 12 36 36 41 37 8 40 25 5 25 -24 0 -25 3 -23 42 2 34 -1 43 -14 46
-15 3 -18 -4 -18 -46z"/>
<path d="M180 4862 c0 -49 -1 -50 -35 -56 -19 -4 -35 -12 -35 -18 0 -6 12 -8
31 -4 27 5 30 3 27 -17 -2 -14 -11 -23 -26 -25 -19 -3 -23 -8 -18 -25 3 -12 6
-32 6 -44 0 -21 5 -23 48 -23 47 0 47 0 60 42 11 34 11 43 0 49 -26 17 -35 9
-34 -28 1 -34 -2 -38 -26 -41 -24 -3 -28 0 -28 22 0 19 5 26 19 26 13 0 21 10
25 34 5 28 12 36 36 41 37 8 40 25 5 25 -24 0 -25 3 -23 42 2 34 -1 43 -14 46
-15 3 -18 -4 -18 -46z"/>
<path d="M278 4816 c5 -67 -12 -149 -39 -188 -25 -35 -18 -49 12 -22 33 29 47
71 54 172 7 87 7 92 -12 92 -18 0 -19 -6 -15 -54z"/>
<path d="M180 4412 c0 -49 -1 -50 -35 -56 -19 -4 -35 -12 -35 -18 0 -6 12 -8
31 -4 27 5 30 3 27 -17 -2 -14 -11 -23 -26 -25 -19 -3 -23 -8 -18 -25 3 -12 6
-32 6 -44 0 -21 5 -23 48 -23 47 0 47 0 60 42 11 34 11 43 0 49 -26 17 -35 9
-34 -28 1 -34 -2 -38 -26 -41 -24 -3 -28 0 -28 22 0 19 5 26 19 26 13 0 21 10
25 34 5 28 12 36 36 41 37 8 40 25 5 25 -24 0 -25 3 -23 42 2 34 -1 43 -14 46
-15 3 -18 -4 -18 -46z"/>
<path d="M355 4430 c-11 -5 -34 -9 -51 -9 l-31 -1 5 -54 c5 -67 -12 -149 -39
-188 -27 -37 -17 -49 16 -18 31 29 42 65 50 162 7 74 8 76 36 80 l29 5 0 -114
c0 -106 -1 -113 -20 -113 -25 0 -26 -12 -2 -33 43 -39 50 -18 54 165 2 91 0
119 -10 123 -8 3 -14 5 -15 4 -1 0 -11 -4 -22 -9z"/>
<path d="M180 3962 c0 -49 -1 -50 -35 -56 -19 -4 -35 -12 -35 -18 0 -6 12 -8
31 -4 27 5 30 3 27 -17 -2 -14 -11 -23 -26 -25 -19 -3 -23 -8 -18 -25 3 -12 6
-32 6 -44 0 -21 5 -23 48 -23 47 0 47 0 60 42 11 34 11 43 0 49 -26 17 -35 9
-34 -28 1 -34 -2 -38 -26 -41 -24 -3 -28 0 -28 22 0 19 5 26 19 26 13 0 21 10
25 34 5 28 12 36 36 41 37 8 40 25 5 25 -24 0 -25 3 -23 42 2 34 -1 43 -14 46
-15 3 -18 -4 -18 -46z"/>
<path d="M355 3980 c-11 -5 -34 -9 -51 -9 l-31 -1 5 -54 c5 -67 -12 -149 -39
-188 -25 -35 -18 -49 12 -22 29 25 49 75 49 121 0 43 13 72 24 54 4 -6 16 -11
27 -11 17 0 19 -7 19 -70 0 -63 -2 -70 -20 -70 -25 0 -26 -12 -2 -33 43 -39
50 -18 54 165 2 91 0 119 -10 123 -8 3 -14 5 -15 4 -1 0 -11 -4 -22 -9z m13
-75 c-2 -2 -15 -1 -30 2 -18 4 -28 12 -28 24 0 12 9 19 28 21 22 2 28 -1 30
-20 2 -13 2 -25 0 -27z"/>
<path d="M180 3512 c0 -49 -1 -50 -35 -56 -19 -4 -35 -12 -35 -18 0 -6 12 -8
31 -4 27 5 30 3 27 -17 -2 -14 -11 -23 -26 -25 -19 -3 -23 -8 -18 -25 3 -12 6
-32 6 -44 0 -21 5 -23 48 -23 47 0 47 0 60 42 11 34 11 43 0 49 -26 17 -35 9
-34 -28 1 -34 -2 -38 -26 -41 -24 -3 -28 0 -28 22 0 19 5 26 19 26 13 0 21 10
25 34 5 28 12 36 36 41 37 8 40 25 5 25 -24 0 -25 3 -23 42 2 34 -1 43 -14 46
-15 3 -18 -4 -18 -46z"/>
<path d="M355 3530 c-11 -5 -34 -9 -51 -9 l-31 -1 5 -54 c5 -67 -12 -149 -39
-188 -12 -16 -18 -32 -15 -35 10 -10 48 29 63 65 7 17 19 32 27 32 16 0 52 38
43 46 -3 3 -14 1 -25 -5 -29 -15 -32 -14 -32 12 0 29 15 53 24 38 4 -6 16 -11
27 -11 17 0 19 -7 19 -70 0 -63 -2 -70 -20 -70 -25 0 -26 -12 -2 -33 43 -39
50 -18 54 165 2 91 0 119 -10 123 -8 3 -14 5 -15 4 -1 0 -11 -4 -22 -9z m13
-75 c-2 -2 -15 -1 -30 2 -18 4 -28 12 -28 24 0 12 9 19 28 21 22 2 28 -1 30
-20 2 -13 2 -25 0 -27z"/>
</g>
</svg>
