<?xml version="1.0" standalone="no"?>
<!DOCTYPE svg PUBLIC "-//W3C//DTD SVG 20010904//EN"
 "http://www.w3.org/TR/2001/REC-SVG-20010904/DTD/svg10.dtd">
<svg version="1.0" xmlns="http://www.w3.org/2000/svg"
 width="50.000000pt" height="725.000000pt" viewBox="0 0 50.000000 725.000000"
 preserveAspectRatio="xMidYMid meet">
<metadata>
Created by potrace 1.16, written by Peter Selinger 2001-2019
</metadata>
<g transform="translate(0.000000,725.000000) scale(0.100000,-0.100000)"
fill="#000000" stroke="none">
<path d="M125 7028 c-1 -69 -6 -102 -19 -126 -19 -37 -15 -52 8 -33 23 19 35
68 38 161 2 69 0 85 -12 87 -12 3 -15 -12 -15 -89z"/>
<path d="M160 6673 l-35 -4 0 -92 c-1 -68 -6 -101 -19 -125 -21 -41 -12 -56
15 -24 20 25 25 47 34 155 5 47 11 67 20 67 24 0 27 -19 20 -115 -6 -71 -11
-95 -21 -95 -8 0 -14 -4 -14 -9 0 -15 29 -33 44 -28 11 5 15 34 18 134 3 115
-2 147 -22 141 -3 -1 -21 -3 -40 -5z"/>
<path d="M160 6223 l-35 -4 0 -92 c-1 -68 -6 -101 -19 -125 -18 -35 -16 -50 4
-37 20 12 40 72 40 120 0 47 6 53 31 33 20 -17 14 -128 -7 -128 -8 0 -14 -4
-14 -9 0 -15 29 -33 44 -28 11 5 15 34 18 134 3 115 -2 147 -22 141 -3 -1 -21
-3 -40 -5z m38 -51 c3 -17 -2 -22 -17 -22 -16 0 -21 6 -21 26 0 33 33 30 38
-4z"/>
<path d="M160 5773 l-35 -4 0 -92 c-1 -68 -6 -101 -19 -125 -9 -19 -15 -37
-11 -40 8 -8 45 35 45 53 0 7 11 20 25 29 l25 16 0 -35 c0 -24 -5 -35 -15 -35
-8 0 -15 -4 -15 -9 0 -15 29 -33 44 -28 11 5 15 34 18 134 3 115 -2 147 -22
141 -3 -1 -21 -3 -40 -5z m38 -51 c3 -17 -2 -22 -17 -22 -16 0 -21 6 -21 26 0
33 33 30 38 -4z m-17 -53 c22 -11 18 -23 -12 -39 -17 -10 -19 -7 -19 20 0 33
2 35 31 19z"/>
<path d="M291 5330 c-5 -17 -20 -44 -32 -61 -21 -30 -21 -47 1 -34 21 13 70
88 70 107 0 29 -27 21 -39 -12z"/>
<path d="M160 5323 l-35 -4 0 -92 c-1 -68 -6 -101 -19 -125 -9 -19 -15 -37
-11 -40 8 -8 45 35 45 53 0 7 11 20 25 29 l25 16 0 -35 c0 -24 -5 -35 -15 -35
-8 0 -15 -4 -15 -9 0 -15 29 -33 44 -28 11 5 15 34 18 134 3 115 -2 147 -22
141 -3 -1 -21 -3 -40 -5z m38 -51 c3 -17 -2 -22 -17 -22 -16 0 -21 6 -21 26 0
33 33 30 38 -4z m-17 -53 c22 -11 18 -23 -12 -39 -17 -10 -19 -7 -19 20 0 33
2 35 31 19z"/>
<path d="M291 4880 c-5 -17 -20 -44 -32 -61 -24 -34 -18 -51 9 -26 10 9 39 20
64 23 41 6 47 4 53 -16 4 -12 4 -53 0 -92 -6 -57 -11 -71 -26 -75 -23 -6 -24
-21 -3 -48 15 -20 15 -20 34 3 13 15 20 46 24 100 4 42 8 92 11 109 6 51 -25
62 -109 36 -18 -5 -18 -4 -2 18 9 13 16 31 16 41 0 29 -27 20 -39 -12z"/>
<path d="M160 4873 l-35 -4 0 -92 c-1 -68 -6 -101 -19 -125 -9 -19 -15 -37
-11 -40 8 -8 45 35 45 53 0 7 11 20 25 29 l25 16 0 -35 c0 -24 -5 -35 -15 -35
-8 0 -15 -4 -15 -9 0 -15 29 -33 44 -28 11 5 15 34 18 134 3 115 -2 147 -22
141 -3 -1 -21 -3 -40 -5z m38 -51 c3 -17 -2 -22 -17 -22 -16 0 -21 6 -21 26 0
33 33 30 38 -4z m-17 -53 c22 -11 18 -23 -12 -39 -17 -10 -19 -7 -19 20 0 33
2 35 31 19z"/>
<path d="M291 4430 c-5 -17 -20 -44 -32 -61 -24 -34 -18 -51 9 -26 10 9 39 20
64 23 41 6 47 4 53 -16 4 -12 4 -53 0 -92 -6 -57 -11 -71 -26 -75 -23 -6 -24
-21 -3 -48 15 -20 15 -20 34 3 13 15 20 46 24 100 4 42 8 92 11 109 6 51 -25
62 -109 36 -18 -5 -18 -4 -2 18 9 13 16 31 16 41 0 29 -27 20 -39 -12z"/>
<path d="M160 4423 l-35 -4 0 -92 c-1 -68 -6 -101 -19 -125 -9 -19 -15 -37
-11 -40 8 -8 45 35 45 53 0 7 11 20 25 29 l25 16 0 -35 c0 -24 -5 -35 -15 -35
-8 0 -15 -4 -15 -9 0 -15 29 -33 44 -28 11 5 15 34 18 134 3 115 -2 147 -22
141 -3 -1 -21 -3 -40 -5z m38 -51 c3 -17 -2 -22 -17 -22 -16 0 -21 6 -21 26 0
33 33 30 38 -4z m-17 -53 c22 -11 18 -23 -12 -39 -17 -10 -19 -7 -19 20 0 33
2 35 31 19z"/>
<path d="M292 4305 c-25 -51 -26 -55 -13 -55 13 0 62 79 56 90 -11 18 -21 10
-43 -35z"/>
<path d="M291 3980 c-5 -17 -20 -44 -32 -61 -24 -34 -18 -51 9 -26 10 9 39 20
64 23 41 6 47 4 53 -16 4 -12 4 -53 0 -92 -6 -57 -11 -71 -26 -75 -23 -6 -24
-21 -3 -48 15 -20 15 -20 34 3 13 15 20 46 24 100 4 42 8 92 11 109 6 51 -25
62 -109 36 -18 -5 -18 -4 -2 18 9 13 16 31 16 41 0 29 -27 20 -39 -12z"/>
<path d="M160 3973 l-35 -4 0 -92 c-1 -68 -6 -101 -19 -125 -9 -19 -15 -37
-11 -40 8 -8 45 35 45 53 0 7 11 20 25 29 l25 16 0 -35 c0 -24 -5 -35 -15 -35
-8 0 -15 -4 -15 -9 0 -15 29 -33 44 -28 11 5 15 34 18 134 3 115 -2 147 -22
141 -3 -1 -21 -3 -40 -5z m38 -51 c3 -17 -2 -22 -17 -22 -16 0 -21 6 -21 26 0
33 33 30 38 -4z m-17 -53 c22 -11 18 -23 -12 -39 -17 -10 -19 -7 -19 20 0 33
2 35 31 19z"/>
<path d="M305 3881 c-3 -11 -12 -18 -19 -15 -8 3 -12 -7 -12 -31 0 -34 9 -45
20 -26 3 5 15 7 26 4 22 -6 26 7 8 25 -8 8 -8 15 1 26 13 15 7 36 -9 36 -5 0
-11 -9 -15 -19z"/>
<path d="M291 3530 c-5 -17 -20 -44 -32 -61 -24 -34 -18 -51 9 -26 10 9 39 20
64 23 41 6 47 4 53 -16 4 -12 4 -53 0 -92 -6 -57 -11 -71 -26 -75 -23 -6 -24
-21 -3 -48 15 -20 15 -20 34 3 13 15 20 46 24 100 4 42 8 92 11 109 6 51 -25
62 -109 36 -18 -5 -18 -4 -2 18 9 13 16 31 16 41 0 29 -27 20 -39 -12z"/>
<path d="M160 3523 l-35 -4 0 -92 c-1 -68 -6 -101 -19 -125 -9 -19 -15 -37
-11 -40 8 -8 45 35 45 53 0 7 11 20 25 29 l25 16 0 -35 c0 -24 -5 -35 -15 -35
-8 0 -15 -4 -15 -9 0 -15 29 -33 44 -28 11 5 15 34 18 134 3 115 -2 147 -22
141 -3 -1 -21 -3 -40 -5z m38 -51 c3 -17 -2 -22 -17 -22 -16 0 -21 6 -21 26 0
33 33 30 38 -4z m-17 -53 c22 -11 18 -23 -12 -39 -17 -10 -19 -7 -19 20 0 33
2 35 31 19z"/>
<path d="M305 3431 c-3 -11 -12 -18 -19 -15 -8 3 -12 -7 -12 -31 0 -34 9 -45
20 -26 3 5 15 7 26 4 22 -6 26 7 8 25 -8 8 -8 15 1 26 13 15 7 36 -9 36 -5 0
-11 -9 -15 -19z"/>
<path d="M232 3349 c-2 -41 -2 -41 29 -35 17 3 38 6 45 6 8 0 14 5 14 10 0 6
-13 10 -30 10 -25 0 -30 4 -30 25 0 44 -27 29 -28 -16z"/>
<path d="M291 3080 c-5 -17 -20 -44 -32 -61 -24 -34 -18 -51 9 -26 10 9 39 20
64 23 41 6 47 4 53 -16 4 -12 4 -53 0 -92 -6 -57 -11 -71 -26 -75 -23 -6 -24
-21 -3 -48 15 -20 15 -20 34 3 13 15 20 46 24 100 4 42 8 92 11 109 6 51 -25
62 -109 36 -18 -5 -18 -4 -2 18 9 13 16 31 16 41 0 29 -27 20 -39 -12z"/>
<path d="M160 3073 l-35 -4 0 -92 c-1 -68 -6 -101 -19 -125 -9 -19 -15 -37
-11 -40 8 -8 45 35 45 53 0 7 11 20 25 29 l25 16 0 -35 c0 -24 -5 -35 -15 -35
-8 0 -15 -4 -15 -9 0 -15 29 -33 44 -28 11 5 15 34 18 134 3 115 -2 147 -22
141 -3 -1 -21 -3 -40 -5z m38 -51 c3 -17 -2 -22 -17 -22 -16 0 -21 6 -21 26 0
33 33 30 38 -4z m-17 -53 c22 -11 18 -23 -12 -39 -17 -10 -19 -7 -19 20 0 33
2 35 31 19z"/>
<path d="M305 2981 c-3 -11 -12 -18 -19 -15 -8 3 -12 -7 -12 -31 0 -34 9 -45
20 -26 12 18 46 -1 46 -25 0 -13 4 -24 9 -24 12 0 26 84 16 99 -11 18 -25 12
-25 -11 0 -17 -3 -19 -12 -10 -8 8 -8 15 1 26 13 15 7 36 -9 36 -5 0 -11 -9
-15 -19z"/>
<path d="M232 2899 c-2 -41 -2 -41 29 -35 17 3 38 6 45 6 8 0 14 5 14 10 0 6
-13 10 -30 10 -25 0 -30 4 -30 25 0 44 -27 29 -28 -16z"/>
</g>
</svg>
