<?xml version="1.0" standalone="no"?>
<!DOCTYPE svg PUBLIC "-//W3C//DTD SVG 20010904//EN"
 "http://www.w3.org/TR/2001/REC-SVG-20010904/DTD/svg10.dtd">
<svg version="1.0" xmlns="http://www.w3.org/2000/svg"
 width="50.000000pt" height="725.000000pt" viewBox="0 0 50.000000 725.000000"
 preserveAspectRatio="xMidYMid meet">
<metadata>
Created by potrace 1.16, written by Peter Selinger 2001-2019
</metadata>
<g transform="translate(0.000000,725.000000) scale(0.100000,-0.100000)"
fill="#000000" stroke="none">
<path d="M238 7167 c-81 -14 -74 -30 10 -22 37 4 69 9 71 11 5 4 -9 24 -17 23
-4 -1 -33 -6 -64 -12z"/>
<path d="M250 6719 c-25 -6 -55 -12 -67 -15 -18 -3 -23 -11 -23 -35 0 -34 -13
-64 -43 -96 -24 -27 -17 -39 13 -23 24 13 59 82 60 116 0 17 8 23 38 28 20 3
50 6 65 6 18 0 27 5 25 12 -6 16 -16 17 -68 7z"/>
<path d="M250 6269 c-25 -6 -55 -12 -67 -15 -18 -3 -23 -11 -23 -35 0 -34 -13
-64 -43 -96 -24 -27 -17 -39 13 -23 24 13 59 82 60 116 0 17 8 23 38 28 20 3
50 6 65 6 18 0 27 5 25 12 -6 16 -16 17 -68 7z"/>
<path d="M233 6233 c-34 -4 -46 -23 -15 -23 37 0 92 13 92 21 0 9 -17 9 -77 2z"/>
<path d="M250 5819 c-25 -6 -55 -12 -67 -15 -18 -3 -23 -11 -23 -35 0 -34 -13
-64 -43 -96 -11 -13 -18 -26 -15 -29 11 -11 48 16 63 46 9 18 23 30 35 30 11
0 20 5 20 10 0 6 -7 10 -15 10 -9 0 -15 9 -15 24 0 19 6 24 38 30 20 3 50 6
65 6 18 0 27 5 25 12 -6 16 -16 17 -68 7z"/>
<path d="M233 5783 c-34 -4 -46 -23 -15 -23 37 0 92 13 92 21 0 9 -17 9 -77 2z"/>
<path d="M268 5753 c-53 -6 -48 -23 6 -23 49 0 76 7 76 21 0 9 -11 9 -82 2z"/>
<path d="M250 5369 c-25 -6 -55 -12 -67 -15 -18 -3 -23 -11 -23 -35 0 -34 -13
-64 -43 -96 -11 -13 -18 -26 -14 -29 10 -10 55 23 62 46 11 34 26 23 19 -15
-7 -40 11 -48 39 -17 22 24 22 36 1 28 -14 -5 -16 -1 -11 24 5 22 3 30 -8 30
-9 0 -15 9 -15 24 0 19 6 24 38 30 20 3 50 6 65 6 18 0 27 5 25 12 -6 16 -16
17 -68 7z"/>
<path d="M233 5333 c-34 -4 -46 -23 -15 -23 37 0 92 13 92 21 0 9 -17 9 -77 2z"/>
<path d="M268 5303 c-53 -6 -48 -23 6 -23 49 0 76 7 76 21 0 9 -11 9 -82 2z"/>
<path d="M250 4919 c-25 -6 -55 -12 -67 -15 -18 -3 -23 -11 -23 -35 0 -34 -13
-64 -43 -96 -11 -13 -18 -26 -14 -29 10 -10 55 23 62 46 11 34 26 23 19 -15
-7 -40 11 -48 39 -17 22 24 22 36 1 28 -14 -5 -16 -1 -11 24 5 22 3 30 -8 30
-9 0 -15 9 -15 24 0 19 6 24 38 30 20 3 50 6 65 6 18 0 27 5 25 12 -6 16 -16
17 -68 7z"/>
<path d="M233 4883 c-34 -4 -46 -23 -15 -23 37 0 92 13 92 21 0 9 -17 9 -77 2z"/>
<path d="M268 4853 c-48 -5 -50 -23 -3 -23 26 0 33 -3 29 -15 -4 -10 0 -15 15
-15 14 0 21 6 21 20 0 11 5 20 10 20 6 0 10 5 10 10 0 10 -10 10 -82 3z"/>
<path d="M250 4469 c-25 -6 -55 -12 -67 -15 -18 -3 -23 -11 -23 -35 0 -34 -13
-64 -43 -96 -11 -13 -18 -26 -14 -29 10 -10 55 23 62 46 11 34 26 23 19 -15
-7 -40 11 -48 39 -17 22 24 22 36 1 28 -14 -5 -16 -1 -11 24 5 22 3 30 -8 30
-9 0 -15 9 -15 24 0 19 6 24 38 30 20 3 50 6 65 6 18 0 27 5 25 12 -6 16 -16
17 -68 7z"/>
<path d="M233 4433 c-34 -4 -46 -23 -15 -23 37 0 92 13 92 21 0 9 -17 9 -77 2z"/>
<path d="M268 4403 c-48 -5 -50 -23 -2 -23 21 0 33 -4 29 -10 -3 -6 -17 -7
-31 -4 -40 10 -27 -9 31 -44 45 -27 61 -32 90 -26 36 6 49 24 18 24 -29 0 -99
22 -85 27 6 3 12 13 12 24 0 10 5 19 10 19 6 0 10 5 10 10 0 10 -10 10 -82 3z"/>
<path d="M250 4019 c-25 -6 -55 -12 -67 -15 -18 -3 -23 -11 -23 -35 0 -34 -13
-64 -43 -96 -11 -13 -18 -26 -14 -29 10 -10 55 23 62 46 13 40 23 19 19 -37
-8 -98 -12 -127 -19 -145 -4 -11 -3 -18 4 -18 18 0 41 64 41 113 0 27 6 49 15
57 20 17 19 34 -1 26 -14 -5 -16 -1 -11 24 5 22 3 30 -8 30 -9 0 -15 9 -15 24
0 19 6 24 38 30 20 3 50 6 65 6 18 0 27 5 25 12 -6 16 -16 17 -68 7z"/>
<path d="M233 3983 c-34 -4 -46 -23 -15 -23 37 0 92 13 92 21 0 9 -17 9 -77 2z"/>
<path d="M268 3953 c-48 -5 -50 -23 -2 -23 21 0 33 -4 29 -10 -3 -6 -17 -7
-31 -4 -40 10 -27 -9 31 -44 45 -27 61 -32 90 -26 36 6 49 24 18 24 -29 0 -99
22 -85 27 6 3 12 13 12 24 0 10 5 19 10 19 6 0 10 5 10 10 0 10 -10 10 -82 3z"/>
<path d="M250 3569 c-25 -6 -55 -12 -67 -15 -18 -3 -23 -11 -23 -35 0 -34 -13
-64 -43 -96 -11 -13 -18 -26 -14 -29 10 -10 55 23 62 46 13 40 23 19 19 -37
-8 -98 -12 -127 -19 -145 -4 -11 -3 -18 4 -18 16 0 41 62 41 100 0 23 4 30 20
30 11 0 20 5 20 10 0 6 -10 10 -22 10 -20 0 -20 1 -5 18 22 24 22 36 1 28 -14
-5 -16 -1 -11 24 5 22 3 30 -8 30 -9 0 -15 9 -15 24 0 19 6 24 38 30 20 3 50
6 65 6 18 0 27 5 25 12 -6 16 -16 17 -68 7z"/>
<path d="M233 3533 c-34 -4 -46 -23 -15 -23 37 0 92 13 92 21 0 9 -17 9 -77 2z"/>
<path d="M268 3503 c-48 -5 -50 -23 -2 -23 21 0 33 -4 29 -10 -3 -6 -17 -7
-31 -4 -40 10 -27 -9 31 -44 45 -27 61 -32 90 -26 36 6 49 24 18 24 -29 0 -99
22 -85 27 6 3 12 13 12 24 0 10 5 19 10 19 6 0 10 5 10 10 0 10 -10 10 -82 3z"/>
<path d="M260 3391 c0 -6 7 -11 15 -11 12 0 15 -13 15 -60 0 -48 -3 -60 -16
-60 -19 0 -14 -20 9 -34 27 -17 35 3 39 89 l3 80 -33 3 c-18 2 -32 -1 -32 -7z"/>
<path d="M250 3119 c-25 -6 -55 -12 -67 -15 -18 -3 -23 -11 -23 -35 0 -34 -13
-64 -43 -96 -11 -13 -18 -26 -14 -29 10 -10 55 23 62 46 3 11 10 20 14 20 10
0 2 -146 -10 -184 -5 -16 -6 -32 -3 -35 9 -10 33 30 40 66 5 28 9 31 24 23 27
-14 50 -12 50 4 0 8 -17 18 -37 24 -26 7 -31 10 -15 11 28 1 29 21 0 21 -20 0
-20 1 -5 18 22 24 22 36 1 28 -14 -5 -16 -1 -11 24 5 22 3 30 -8 30 -9 0 -15
9 -15 24 0 19 6 24 38 30 20 3 50 6 65 6 18 0 27 5 25 12 -6 16 -16 17 -68 7z"/>
<path d="M233 3083 c-34 -4 -46 -23 -15 -23 37 0 92 13 92 21 0 9 -17 9 -77 2z"/>
<path d="M268 3053 c-48 -5 -50 -23 -2 -23 21 0 33 -4 29 -10 -3 -6 -17 -7
-31 -4 -40 10 -27 -9 31 -44 45 -27 61 -32 90 -26 36 6 49 24 18 24 -29 0 -99
22 -85 27 6 3 12 13 12 24 0 10 5 19 10 19 6 0 10 5 10 10 0 10 -10 10 -82 3z"/>
<path d="M260 2941 c0 -6 7 -11 15 -11 12 0 15 -13 15 -60 0 -48 -3 -60 -16
-60 -19 0 -14 -20 9 -34 27 -17 35 3 39 89 l3 80 -33 3 c-18 2 -32 -1 -32 -7z"/>
<path d="M250 2669 c-25 -6 -55 -12 -67 -15 -18 -3 -23 -11 -23 -35 0 -34 -13
-64 -43 -96 -11 -13 -18 -26 -14 -29 10 -10 55 23 62 46 3 11 10 20 14 20 10
0 2 -146 -10 -184 -11 -34 -3 -48 14 -26 7 8 26 20 42 26 17 6 38 15 48 19 13
5 17 2 17 -14 0 -12 -6 -21 -16 -21 -19 0 -14 -20 9 -34 27 -17 35 3 39 89 l3
80 -33 3 c-18 2 -32 -1 -32 -7 0 -6 7 -11 15 -11 10 0 15 -10 14 -32 -1 -18
-3 -26 -6 -16 -2 9 -21 21 -41 26 -25 7 -30 10 -14 11 28 1 29 21 0 21 -20 0
-20 1 -5 18 22 24 22 36 1 28 -14 -5 -16 -1 -11 24 5 22 3 30 -8 30 -9 0 -15
9 -15 24 0 19 6 24 38 30 20 3 50 6 65 6 18 0 27 5 25 12 -6 16 -16 17 -68 7z
m-7 -260 c-29 -12 -33 -10 -33 11 0 17 3 18 26 8 23 -11 24 -13 7 -19z"/>
<path d="M233 2633 c-34 -4 -46 -23 -15 -23 37 0 92 13 92 21 0 9 -17 9 -77 2z"/>
<path d="M268 2603 c-48 -5 -50 -23 -2 -23 21 0 33 -4 29 -10 -3 -6 -17 -7
-31 -4 -40 10 -27 -9 31 -44 45 -27 61 -32 90 -26 36 6 49 24 18 24 -29 0 -99
22 -85 27 6 3 12 13 12 24 0 10 5 19 10 19 6 0 10 5 10 10 0 10 -10 10 -82 3z"/>
</g>
</svg>
