<?xml version="1.0" standalone="no"?>
<!DOCTYPE svg PUBLIC "-//W3C//DTD SVG 20010904//EN"
 "http://www.w3.org/TR/2001/REC-SVG-20010904/DTD/svg10.dtd">
<svg version="1.0" xmlns="http://www.w3.org/2000/svg"
 width="50.000000pt" height="725.000000pt" viewBox="0 0 50.000000 725.000000"
 preserveAspectRatio="xMidYMid meet">
<metadata>
Created by potrace 1.16, written by Peter Selinger 2001-2019
</metadata>
<g transform="translate(0.000000,725.000000) scale(0.100000,-0.100000)"
fill="#000000" stroke="none">
<path d="M113 7043 c-1 -50 -9 -107 -18 -132 -17 -48 -12 -67 10 -37 18 24 33
102 37 186 2 51 0 65 -12 68 -12 2 -15 -13 -17 -85z"/>
<path d="M150 6683 l-35 -4 -2 -87 c-1 -48 -9 -106 -17 -131 -19 -52 -19 -51
-5 -51 19 0 41 73 47 159 6 71 10 86 25 89 15 3 17 -7 17 -107 0 -95 -2 -111
-16 -111 -11 0 -14 -5 -10 -16 3 -9 6 -18 6 -20 0 -2 9 -4 20 -4 24 0 28 24
32 172 3 84 0 109 -10 113 -8 3 -14 4 -15 3 -1 -1 -18 -3 -37 -5z"/>
<path d="M150 6233 l-35 -4 -2 -87 c-1 -49 -9 -106 -18 -131 -17 -48 -12 -67
10 -37 15 20 35 102 35 142 0 22 2 23 20 12 17 -11 20 -24 20 -75 0 -51 -3
-63 -16 -63 -11 0 -14 -5 -10 -16 3 -9 6 -18 6 -20 0 -2 9 -4 20 -4 24 0 28
24 32 172 3 84 0 109 -10 113 -8 3 -14 4 -15 3 -1 -1 -18 -3 -37 -5z m30 -52
c0 -24 -3 -28 -20 -24 -31 8 -25 53 7 53 8 0 13 -12 13 -29z"/>
<path d="M150 5783 l-35 -4 -2 -87 c-1 -49 -9 -106 -18 -131 -8 -24 -13 -47
-9 -50 9 -10 33 30 40 66 3 18 10 30 16 27 5 -3 15 0 23 6 13 11 15 6 15 -29
0 -31 -4 -41 -16 -41 -11 0 -14 -5 -10 -16 3 -9 6 -18 6 -20 0 -2 9 -4 20 -4
24 0 28 24 32 172 3 84 0 109 -10 113 -8 3 -14 4 -15 3 -1 -1 -18 -3 -37 -5z
m30 -52 c0 -24 -3 -28 -20 -24 -31 8 -25 53 7 53 8 0 13 -12 13 -29z m0 -71
c0 -3 -9 -11 -20 -18 -18 -11 -20 -10 -20 18 0 28 2 29 20 18 11 -7 20 -15 20
-18z"/>
<path d="M150 5333 l-35 -4 -2 -87 c-1 -49 -9 -106 -18 -131 -8 -24 -13 -47
-9 -50 9 -10 33 30 40 66 3 18 10 30 16 27 5 -3 15 0 23 6 13 11 15 6 15 -29
0 -31 -4 -41 -16 -41 -11 0 -14 -5 -10 -16 3 -9 6 -18 6 -20 0 -2 9 -4 20 -4
24 0 28 24 32 172 3 84 0 109 -10 113 -8 3 -14 4 -15 3 -1 -1 -18 -3 -37 -5z
m30 -52 c0 -24 -3 -28 -20 -24 -31 8 -25 53 7 53 8 0 13 -12 13 -29z m0 -71
c0 -3 -9 -11 -20 -18 -18 -11 -20 -10 -20 18 0 28 2 29 20 18 11 -7 20 -15 20
-18z"/>
<path d="M248 5268 c2 -40 6 -75 8 -77 9 -10 13 8 16 74 2 56 0 70 -12 72 -13
3 -15 -8 -12 -69z"/>
<path d="M277 4893 c-30 -3 -37 -8 -33 -19 3 -9 6 -42 6 -75 0 -33 4 -59 10
-59 6 0 10 12 10 28 0 15 3 43 6 63 6 34 10 37 45 43 22 3 39 11 39 16 0 10
-10 10 -83 3z"/>
<path d="M150 4883 l-35 -4 -2 -87 c-1 -49 -9 -106 -18 -131 -8 -24 -13 -47
-9 -50 9 -10 33 30 40 66 3 18 10 30 16 27 5 -3 15 0 23 6 13 11 15 6 15 -29
0 -31 -4 -41 -16 -41 -11 0 -14 -5 -10 -16 3 -9 6 -18 6 -20 0 -2 9 -4 20 -4
24 0 28 24 32 172 3 84 0 109 -10 113 -8 3 -14 4 -15 3 -1 -1 -18 -3 -37 -5z
m30 -52 c0 -24 -3 -28 -20 -24 -31 8 -25 53 7 53 8 0 13 -12 13 -29z m0 -71
c0 -3 -9 -11 -20 -18 -18 -11 -20 -10 -20 18 0 28 2 29 20 18 11 -7 20 -15 20
-18z"/>
<path d="M277 4443 c-30 -3 -37 -8 -33 -19 3 -9 6 -42 6 -75 0 -33 4 -59 10
-59 6 0 10 18 10 39 0 39 0 40 45 47 25 3 45 11 45 16 0 7 -16 8 -40 5 -29 -4
-40 -1 -40 8 0 7 18 15 40 19 22 3 40 11 40 16 0 10 -10 10 -83 3z"/>
<path d="M150 4433 l-35 -4 -2 -87 c-1 -49 -9 -106 -18 -131 -8 -24 -13 -47
-9 -50 9 -10 33 30 40 66 3 18 10 30 16 27 5 -3 15 0 23 6 13 11 15 6 15 -29
0 -31 -4 -41 -16 -41 -11 0 -14 -5 -10 -16 3 -9 6 -18 6 -20 0 -2 9 -4 20 -4
24 0 28 24 32 172 3 84 0 109 -10 113 -8 3 -14 4 -15 3 -1 -1 -18 -3 -37 -5z
m30 -52 c0 -24 -3 -28 -20 -24 -31 8 -25 53 7 53 8 0 13 -12 13 -29z m0 -71
c0 -3 -9 -11 -20 -18 -18 -11 -20 -10 -20 18 0 28 2 29 20 18 11 -7 20 -15 20
-18z"/>
<path d="M277 3993 c-30 -3 -37 -8 -33 -19 3 -9 6 -42 6 -75 0 -33 4 -59 10
-59 6 0 10 9 10 19 0 16 9 21 45 27 25 3 45 11 45 16 0 7 -17 8 -45 5 -25 -4
-45 -3 -45 3 0 5 20 12 45 16 25 3 45 11 45 16 0 7 -16 8 -40 5 -29 -4 -40 -1
-40 8 0 7 18 15 40 19 22 3 40 11 40 16 0 10 -10 10 -83 3z"/>
<path d="M150 3983 l-35 -4 -2 -87 c-1 -49 -9 -106 -18 -131 -8 -24 -13 -47
-9 -50 9 -10 33 30 40 66 3 18 10 30 16 27 5 -3 15 0 23 6 13 11 15 6 15 -29
0 -31 -4 -41 -16 -41 -11 0 -14 -5 -10 -16 3 -9 6 -18 6 -20 0 -2 9 -4 20 -4
24 0 28 24 32 172 3 84 0 109 -10 113 -8 3 -14 4 -15 3 -1 -1 -18 -3 -37 -5z
m30 -52 c0 -24 -3 -28 -20 -24 -31 8 -25 53 7 53 8 0 13 -12 13 -29z m0 -71
c0 -3 -9 -11 -20 -18 -18 -11 -20 -10 -20 18 0 28 2 29 20 18 11 -7 20 -15 20
-18z"/>
<path d="M280 3543 l-36 -4 4 -69 c4 -67 3 -70 -18 -70 -22 0 -23 3 -18 64 6
72 4 75 -57 69 l-40 -5 -2 -86 c-1 -49 -9 -106 -18 -131 -8 -24 -13 -47 -9
-50 9 -10 33 30 40 66 3 18 10 30 16 27 5 -3 15 0 23 6 13 11 15 6 15 -29 0
-31 -4 -41 -16 -41 -11 0 -14 -5 -10 -16 3 -9 6 -18 6 -20 0 -2 8 -4 19 -4 21
0 31 26 31 87 l0 41 78 7 c42 3 86 7 96 8 11 1 21 8 24 15 3 11 -10 12 -67 6
-48 -4 -71 -3 -71 4 0 6 20 14 45 18 25 3 45 11 45 16 0 7 -17 8 -45 5 -25 -4
-45 -3 -45 3 0 5 20 12 45 16 25 3 45 11 45 16 0 7 -16 8 -40 5 -29 -4 -40 -1
-40 8 0 7 18 15 40 19 22 3 40 11 40 16 0 10 -11 10 -80 3z m-100 -62 c0 -24
-3 -28 -20 -24 -31 8 -25 53 7 53 8 0 13 -12 13 -29z m0 -71 c0 -3 -9 -11 -20
-18 -18 -11 -20 -10 -20 18 0 28 2 29 20 18 11 -7 20 -15 20 -18z"/>
<path d="M280 3093 l-36 -4 4 -69 c4 -67 3 -70 -18 -70 -22 0 -23 3 -18 64 6
72 4 75 -57 69 l-40 -5 -2 -86 c-1 -49 -9 -106 -18 -131 -8 -24 -13 -47 -9
-50 9 -10 33 30 40 66 3 18 10 30 16 27 5 -3 15 0 23 6 13 11 15 6 15 -29 0
-31 -4 -41 -16 -41 -11 0 -14 -5 -10 -16 3 -9 6 -18 6 -20 0 -2 8 -4 19 -4 22
0 31 26 31 88 0 31 4 42 13 39 8 -3 11 -24 9 -71 -3 -74 8 -84 46 -43 27 29
28 41 2 34 -18 -5 -20 0 -20 39 0 49 4 52 94 56 30 2 51 8 54 16 3 11 -10 12
-67 6 -48 -4 -71 -3 -71 4 0 6 20 14 45 18 25 3 45 11 45 16 0 7 -17 8 -45 5
-25 -4 -45 -3 -45 3 0 5 20 12 45 16 25 3 45 11 45 16 0 7 -16 8 -40 5 -29 -4
-40 -1 -40 8 0 7 18 15 40 19 22 3 40 11 40 16 0 10 -11 10 -80 3z m-100 -62
c0 -24 -3 -28 -20 -24 -31 8 -25 53 7 53 8 0 13 -12 13 -29z m0 -71 c0 -3 -9
-11 -20 -18 -18 -11 -20 -10 -20 18 0 28 2 29 20 18 11 -7 20 -15 20 -18z"/>
<path d="M280 2643 l-36 -4 4 -69 c4 -67 3 -70 -18 -70 -22 0 -23 3 -18 64 6
72 4 75 -57 69 l-40 -5 -2 -86 c-1 -49 -9 -106 -18 -131 -8 -24 -13 -47 -9
-50 9 -10 33 30 40 66 3 18 10 30 16 27 5 -3 15 0 23 6 13 11 15 6 15 -29 0
-31 -4 -41 -16 -41 -11 0 -14 -5 -10 -16 3 -9 6 -18 6 -20 0 -2 8 -4 19 -4 22
0 31 26 31 88 0 31 4 42 13 39 8 -3 11 -24 9 -71 -3 -74 8 -84 46 -43 27 29
28 41 2 34 -18 -5 -20 0 -20 38 0 46 9 55 61 55 29 0 39 -13 19 -25 -14 -9
-12 -25 3 -25 7 0 22 7 33 15 15 12 16 16 6 23 -11 7 -9 10 7 15 12 3 21 10
21 17 0 8 -20 9 -70 4 -80 -8 -100 10 -25 22 25 3 45 11 45 16 0 7 -17 8 -45
5 -25 -4 -45 -3 -45 3 0 5 20 12 45 16 25 3 45 11 45 16 0 7 -16 8 -40 5 -29
-4 -40 -1 -40 8 0 7 18 15 40 19 22 3 40 11 40 16 0 10 -11 10 -80 3z m-100
-62 c0 -24 -3 -28 -20 -24 -31 8 -25 53 7 53 8 0 13 -12 13 -29z m0 -71 c0 -3
-9 -11 -20 -18 -18 -11 -20 -10 -20 18 0 28 2 29 20 18 11 -7 20 -15 20 -18z"/>
<path d="M280 2193 l-36 -4 4 -69 c4 -67 3 -70 -18 -70 -22 0 -23 3 -18 64 6
72 4 75 -57 69 l-40 -5 -2 -86 c-1 -49 -9 -106 -18 -131 -8 -24 -13 -47 -9
-50 9 -10 33 30 40 66 3 18 10 30 16 27 5 -3 15 0 23 6 13 11 15 6 15 -29 0
-31 -4 -41 -16 -41 -11 0 -14 -5 -10 -16 3 -9 6 -18 6 -20 0 -2 8 -4 19 -4 22
0 31 26 31 88 0 31 4 42 13 39 8 -3 11 -24 9 -71 -3 -74 8 -84 46 -43 27 29
28 41 2 34 -18 -5 -20 0 -20 38 0 46 9 55 61 55 31 0 36 -9 17 -28 -8 -8 -15
-9 -25 0 -29 24 -23 -3 13 -56 33 -50 41 -56 70 -56 19 0 34 5 34 10 0 6 -4
10 -10 10 -5 0 -26 14 -45 32 l-37 32 26 13 c27 14 35 33 14 34 -7 0 -3 4 10
9 12 5 22 14 22 20 0 8 -22 9 -70 4 -80 -8 -100 10 -25 22 25 3 45 11 45 16 0
7 -17 8 -45 5 -25 -4 -45 -3 -45 3 0 5 20 12 45 16 25 3 45 11 45 16 0 7 -16
8 -40 5 -29 -4 -40 -1 -40 8 0 7 18 15 40 19 22 3 40 11 40 16 0 10 -11 10
-80 3z m-100 -62 c0 -24 -3 -28 -20 -24 -31 8 -25 53 7 53 8 0 13 -12 13 -29z
m0 -71 c0 -3 -9 -11 -20 -18 -18 -11 -20 -10 -20 18 0 28 2 29 20 18 11 -7 20
-15 20 -18z"/>
</g>
</svg>
