<?xml version="1.0" standalone="no"?>
<!DOCTYPE svg PUBLIC "-//W3C//DTD SVG 20010904//EN"
 "http://www.w3.org/TR/2001/REC-SVG-20010904/DTD/svg10.dtd">
<svg version="1.0" xmlns="http://www.w3.org/2000/svg"
 width="50.000000pt" height="725.000000pt" viewBox="0 0 50.000000 725.000000"
 preserveAspectRatio="xMidYMid meet">
<metadata>
Created by potrace 1.16, written by Peter Selinger 2001-2019
</metadata>
<g transform="translate(0.000000,725.000000) scale(0.100000,-0.100000)"
fill="#000000" stroke="none">
<path d="M104 7027 c-1 -60 -7 -105 -18 -131 -18 -43 -12 -62 10 -31 21 28 31
78 37 173 4 72 3 82 -11 82 -15 0 -17 -14 -18 -93z"/>
<path d="M135 6673 l-30 -4 -1 -92 c-1 -60 -7 -105 -18 -131 -18 -43 -12 -62
10 -31 21 29 34 83 34 147 0 69 7 88 31 88 16 0 19 -8 19 -49 0 -26 -3 -76 -6
-110 -6 -54 -9 -61 -25 -56 -24 8 -24 -7 -1 -28 44 -40 50 -23 54 143 3 139 6
133 -67 123z"/>
<path d="M135 6223 l-30 -4 -1 -92 c-1 -60 -7 -105 -18 -131 -18 -43 -12 -62
10 -31 19 26 34 82 34 127 0 35 2 37 23 29 23 -9 23 -11 19 -102 -2 -35 -4
-40 -22 -34 -25 8 -26 -7 -2 -28 44 -40 50 -23 54 143 3 139 6 133 -67 123z
m45 -48 c0 -18 -5 -25 -19 -25 -24 0 -33 13 -25 34 10 27 44 20 44 -9z"/>
<path d="M135 5773 l-30 -4 -1 -92 c-1 -60 -7 -105 -18 -131 -9 -22 -14 -42
-10 -45 8 -9 34 30 41 61 3 16 16 33 32 41 l26 13 -4 -43 c-3 -38 -6 -43 -22
-38 -24 8 -24 -7 -1 -28 44 -40 50 -23 54 143 3 139 6 133 -67 123z m45 -48
c0 -18 -5 -25 -19 -25 -24 0 -33 13 -25 34 10 27 44 20 44 -9z m-6 -63 c9 -5
-21 -32 -36 -32 -4 0 -8 11 -8 25 0 24 11 25 44 7z"/>
<path d="M280 5342 c0 -5 6 -17 14 -28 17 -23 41 -8 30 19 -6 17 -44 24 -44 9z"/>
<path d="M135 5323 l-30 -4 -1 -92 c-1 -60 -7 -105 -18 -131 -9 -22 -14 -42
-10 -45 8 -9 34 30 41 61 3 16 16 33 32 41 l26 13 -4 -43 c-3 -38 -6 -43 -22
-38 -24 8 -24 -7 -1 -28 44 -40 50 -23 54 143 3 139 6 133 -67 123z m45 -48
c0 -18 -5 -25 -19 -25 -24 0 -33 13 -25 34 10 27 44 20 44 -9z m-6 -63 c9 -5
-21 -32 -36 -32 -4 0 -8 11 -8 25 0 24 11 25 44 7z"/>
<path d="M280 4894 c0 -3 5 -14 10 -25 9 -17 7 -19 -17 -19 -29 0 -61 -15 -52
-24 9 -10 179 18 176 29 -2 5 -18 9 -35 9 -23 -1 -33 3 -37 17 -6 17 -45 28
-45 13z"/>
<path d="M135 4873 l-30 -4 -1 -92 c-1 -60 -7 -105 -18 -131 -9 -22 -14 -42
-10 -45 8 -9 34 30 41 61 3 16 16 33 32 41 l26 13 -4 -43 c-3 -38 -6 -43 -22
-38 -24 8 -24 -7 -1 -28 44 -40 50 -23 54 143 3 139 6 133 -67 123z m45 -48
c0 -18 -5 -25 -19 -25 -24 0 -33 13 -25 34 10 27 44 20 44 -9z m-6 -63 c9 -5
-21 -32 -36 -32 -4 0 -8 11 -8 25 0 24 11 25 44 7z"/>
<path d="M280 4444 c0 -3 5 -14 10 -25 9 -16 7 -19 -14 -19 -31 0 -56 -9 -56
-21 0 -5 7 -9 16 -9 11 0 14 -6 8 -22 -8 -26 -34 -68 -41 -68 -3 0 -3 32 -1
70 3 39 2 73 -2 75 -4 3 -28 2 -51 -1 l-44 -6 -1 -92 c-1 -59 -7 -105 -18
-130 -9 -22 -14 -42 -10 -45 8 -9 34 30 41 61 3 16 16 33 32 41 l26 13 -4 -43
c-3 -38 -6 -43 -22 -38 -24 8 -24 -7 -1 -28 37 -33 52 -16 52 58 0 28 5 45 15
48 8 4 26 24 41 46 21 33 24 44 15 55 -11 12 -2 16 59 22 45 4 69 11 67 18 -2
6 -18 10 -35 10 -23 -1 -33 3 -37 17 -6 17 -45 28 -45 13z m-100 -69 c0 -18
-5 -25 -19 -25 -24 0 -33 13 -25 34 10 27 44 20 44 -9z m-6 -63 c9 -5 -21 -32
-36 -32 -4 0 -8 11 -8 25 0 24 11 25 44 7z"/>
<path d="M280 3994 c0 -3 5 -14 10 -25 9 -16 7 -19 -14 -19 -31 0 -56 -9 -56
-21 0 -5 7 -9 16 -9 11 0 14 -6 8 -22 -8 -26 -34 -68 -41 -68 -3 0 -3 32 -1
70 3 39 2 73 -2 75 -4 3 -28 2 -51 -1 l-44 -6 -1 -92 c-1 -59 -7 -105 -18
-130 -9 -22 -14 -42 -10 -45 8 -9 34 30 41 61 3 16 16 33 32 41 l26 13 -4 -43
c-3 -38 -6 -43 -22 -38 -24 8 -24 -7 -1 -28 37 -33 52 -16 52 58 0 30 5 45 16
49 14 5 16 -2 13 -56 -3 -43 0 -62 9 -65 8 -3 13 12 14 54 1 32 2 69 3 83 0
14 6 35 13 48 10 18 11 27 2 37 -9 11 1 15 60 21 45 4 69 11 67 18 -2 6 -18
10 -35 10 -23 -1 -33 3 -37 17 -6 17 -45 28 -45 13z m-100 -69 c0 -18 -5 -25
-19 -25 -24 0 -33 13 -25 34 10 27 44 20 44 -9z m-6 -63 c9 -5 -21 -32 -36
-32 -4 0 -8 11 -8 25 0 24 11 25 44 7z"/>
<path d="M280 3544 c0 -3 5 -14 10 -25 9 -16 7 -19 -14 -19 -31 0 -56 -9 -56
-21 0 -5 7 -9 16 -9 11 0 14 -6 8 -22 -8 -26 -34 -68 -41 -68 -3 0 -3 32 -1
70 3 39 2 73 -2 75 -4 3 -28 2 -51 -1 l-44 -6 -1 -92 c-1 -59 -7 -105 -18
-130 -9 -22 -14 -42 -10 -45 8 -9 34 30 41 61 3 16 16 33 32 41 l26 13 -4 -43
c-3 -38 -6 -43 -22 -38 -24 8 -24 -7 -1 -28 37 -33 52 -16 52 58 0 30 5 45 16
49 14 5 16 -2 13 -56 -3 -43 0 -62 9 -65 8 -3 13 12 14 54 1 32 2 69 3 83 0
14 6 35 13 48 11 18 11 26 1 38 -9 11 -7 14 15 14 31 0 33 -14 6 -58 -41 -67
-17 -71 30 -6 32 45 32 47 15 60 -17 13 -15 14 24 14 30 0 41 4 38 13 -2 6
-18 11 -35 11 -23 -1 -33 3 -37 17 -6 17 -45 28 -45 13z m-100 -69 c0 -18 -5
-25 -19 -25 -24 0 -33 13 -25 34 10 27 44 20 44 -9z m-6 -63 c9 -5 -21 -32
-36 -32 -4 0 -8 11 -8 25 0 24 11 25 44 7z"/>
<path d="M280 3094 c0 -3 5 -14 10 -25 9 -16 7 -19 -14 -19 -31 0 -56 -9 -56
-21 0 -5 7 -9 16 -9 11 0 14 -6 8 -22 -8 -26 -34 -68 -41 -68 -3 0 -3 32 -1
70 3 39 2 73 -2 75 -4 3 -28 2 -51 -1 l-44 -6 -1 -92 c-1 -59 -7 -105 -18
-130 -9 -22 -14 -42 -10 -45 8 -9 34 30 41 61 3 16 16 33 32 41 l26 13 -4 -43
c-3 -38 -6 -43 -22 -38 -24 8 -24 -7 -1 -28 37 -33 52 -16 52 58 0 30 5 45 16
49 14 5 16 -2 13 -56 -3 -43 0 -62 9 -65 8 -3 13 12 14 54 1 32 2 69 3 83 0
14 6 35 13 48 11 18 11 26 1 38 -9 11 -7 14 15 14 32 0 32 -11 4 -61 -26 -46
-15 -66 14 -26 17 23 58 38 58 22 0 -18 -43 -86 -65 -103 -28 -23 -32 -32 -11
-32 24 0 63 41 91 94 32 62 31 66 -6 66 -20 0 -28 4 -23 12 4 6 -1 17 -11 25
-17 12 -14 13 24 13 30 0 41 4 38 13 -2 6 -18 11 -35 11 -23 -1 -33 3 -37 17
-6 17 -45 28 -45 13z m-100 -69 c0 -18 -5 -25 -19 -25 -24 0 -33 13 -25 34 10
27 44 20 44 -9z m-6 -63 c9 -5 -21 -32 -36 -32 -4 0 -8 11 -8 25 0 24 11 25
44 7z"/>
<path d="M280 2644 c0 -3 5 -14 10 -25 9 -16 7 -19 -14 -19 -31 0 -56 -9 -56
-21 0 -5 7 -9 16 -9 11 0 14 -6 8 -22 -8 -26 -34 -68 -41 -68 -3 0 -3 32 -1
70 3 39 2 73 -2 75 -4 3 -28 2 -51 -1 l-44 -6 -1 -92 c-1 -59 -7 -105 -18
-130 -9 -22 -14 -42 -10 -45 8 -9 34 30 41 61 3 16 16 33 32 41 l26 13 -4 -43
c-3 -38 -6 -43 -22 -38 -24 8 -24 -7 -1 -28 37 -33 52 -16 52 58 0 30 5 45 16
49 14 5 16 -2 13 -56 -3 -43 0 -62 9 -65 8 -3 13 12 14 54 1 32 2 69 3 83 0
14 6 35 13 48 11 18 11 26 1 38 -9 11 -7 14 15 14 32 0 32 -11 4 -61 -22 -39
-19 -61 4 -41 9 7 18 6 32 -3 18 -14 17 -16 -18 -51 -40 -40 -42 -44 -22 -44
24 0 63 41 91 94 32 62 31 66 -6 66 -20 0 -28 4 -23 12 4 6 -1 17 -11 25 -17
12 -14 13 24 13 30 0 41 4 38 13 -2 6 -18 11 -35 11 -23 -1 -33 3 -37 17 -6
17 -45 28 -45 13z m-100 -69 c0 -18 -5 -25 -19 -25 -24 0 -33 13 -25 34 10 27
44 20 44 -9z m-6 -63 c9 -5 -21 -32 -36 -32 -4 0 -8 11 -8 25 0 24 11 25 44 7z
m186 -2 c0 -5 -12 -10 -26 -10 -14 0 -23 4 -19 10 3 6 15 10 26 10 10 0 19 -4
19 -10z"/>
<path d="M280 2194 c0 -3 5 -14 10 -25 9 -16 7 -19 -14 -19 -31 0 -56 -9 -56
-21 0 -5 7 -9 16 -9 11 0 14 -6 8 -22 -8 -26 -34 -68 -41 -68 -3 0 -3 32 -1
70 3 39 2 73 -2 75 -4 3 -28 2 -51 -1 l-44 -6 -1 -92 c-1 -59 -7 -105 -18
-130 -9 -22 -14 -42 -10 -45 8 -9 34 30 41 61 3 16 16 33 32 41 l26 13 -4 -43
c-3 -38 -6 -43 -22 -38 -24 8 -24 -7 -1 -28 37 -33 52 -16 52 58 0 30 5 45 16
49 14 5 16 -2 13 -56 -3 -43 0 -62 9 -65 8 -3 13 12 14 54 1 32 2 69 3 83 0
14 6 35 13 48 11 18 11 26 1 38 -9 11 -7 14 15 14 32 0 32 -11 4 -61 l-22 -39
25 -26 24 -26 -24 -19 c-29 -24 -21 -37 14 -21 22 10 26 8 45 -18 24 -33 80
-44 80 -15 0 8 -6 15 -12 15 -7 0 -26 11 -43 24 l-29 24 27 53 c15 30 27 58
27 62 0 4 -14 7 -31 7 -20 0 -28 4 -23 12 4 6 -1 17 -11 25 -17 12 -14 13 24
13 30 0 41 4 38 13 -2 6 -18 11 -35 11 -23 -1 -33 3 -37 17 -6 17 -45 28 -45
13z m-100 -69 c0 -18 -5 -25 -19 -25 -24 0 -33 13 -25 34 10 27 44 20 44 -9z
m-6 -63 c9 -5 -21 -32 -36 -32 -4 0 -8 11 -8 25 0 24 11 25 44 7z m186 -2 c0
-5 -12 -10 -26 -10 -14 0 -23 4 -19 10 3 6 15 10 26 10 10 0 19 -4 19 -10z
m-27 -52 c-5 -10 -33 10 -33 23 0 5 9 4 19 -3 11 -7 17 -16 14 -20z"/>
</g>
</svg>
