<?xml version="1.0" standalone="no"?>
<!DOCTYPE svg PUBLIC "-//W3C//DTD SVG 20010904//EN"
 "http://www.w3.org/TR/2001/REC-SVG-20010904/DTD/svg10.dtd">
<svg version="1.0" xmlns="http://www.w3.org/2000/svg"
 width="50.000000pt" height="725.000000pt" viewBox="0 0 50.000000 725.000000"
 preserveAspectRatio="xMidYMid meet">
<metadata>
Created by potrace 1.16, written by Peter Selinger 2001-2019
</metadata>
<g transform="translate(0.000000,725.000000) scale(0.100000,-0.100000)"
fill="#000000" stroke="none">
<path d="M120 7046 c0 -49 -6 -101 -15 -126 -17 -47 -11 -66 10 -36 34 45 50
246 20 246 -12 0 -15 -16 -15 -84z"/>
<path d="M153 6683 l-33 -4 0 -83 c0 -49 -6 -101 -15 -126 -17 -47 -11 -66 10
-36 19 25 35 105 35 171 0 49 2 55 20 55 20 0 21 -5 18 -107 -3 -96 -5 -108
-20 -105 -24 4 -23 -11 3 -34 20 -18 21 -18 35 1 10 13 14 52 16 132 0 62 1
119 2 126 1 13 -21 16 -71 10z"/>
<path d="M153 6233 l-33 -4 0 -83 c0 -49 -6 -101 -15 -126 -18 -51 -18 -50 -4
-50 15 0 37 58 45 118 7 54 10 58 32 43 9 -5 12 -27 10 -72 -3 -54 -6 -64 -20
-61 -24 4 -23 -11 3 -34 20 -18 21 -18 35 1 10 13 14 52 16 132 0 62 1 119 2
126 1 13 -21 16 -71 10z m37 -49 c0 -20 -4 -25 -16 -20 -9 3 -18 6 -20 6 -2 0
-4 9 -4 20 0 13 7 20 20 20 15 0 20 -7 20 -26z"/>
<path d="M153 5783 l-33 -4 0 -83 c0 -49 -6 -101 -15 -126 -8 -24 -13 -45 -11
-48 10 -9 26 11 37 48 7 22 16 37 21 34 5 -3 16 2 24 12 13 17 14 15 12 -26
-3 -37 -6 -44 -20 -42 -24 4 -23 -11 3 -34 20 -18 21 -18 35 1 10 13 14 52 16
132 0 62 1 119 2 126 1 13 -21 16 -71 10z m37 -49 c0 -20 -4 -25 -16 -20 -9 3
-18 6 -20 6 -2 0 -4 9 -4 20 0 13 7 20 20 20 15 0 20 -7 20 -26z m-11 -53 c12
-8 12 -12 2 -25 -19 -23 -31 -20 -31 9 0 27 6 30 29 16z"/>
<path d="M245 5304 c-16 -44 -16 -46 1 -59 11 -8 22 -15 27 -15 12 0 8 28 -5
33 -10 3 -8 12 5 36 17 29 16 51 -2 51 -5 0 -16 -21 -26 -46z"/>
<path d="M153 5333 l-33 -4 0 -83 c0 -49 -6 -101 -15 -126 -8 -24 -13 -45 -11
-48 10 -9 26 11 37 48 7 22 16 37 21 34 5 -3 16 2 24 12 13 17 14 15 12 -26
-3 -37 -6 -44 -20 -42 -24 4 -23 -11 3 -34 20 -18 21 -18 35 1 10 13 14 52 16
132 0 62 1 119 2 126 1 13 -21 16 -71 10z m37 -49 c0 -20 -4 -25 -16 -20 -9 3
-18 6 -20 6 -2 0 -4 9 -4 20 0 13 7 20 20 20 15 0 20 -7 20 -26z m-11 -53 c12
-8 12 -12 2 -25 -19 -23 -31 -20 -31 9 0 27 6 30 29 16z"/>
<path d="M245 4854 c-16 -44 -16 -46 1 -59 11 -8 22 -15 27 -15 12 0 8 28 -5
33 -10 3 -8 12 5 36 17 29 16 51 -2 51 -5 0 -16 -21 -26 -46z"/>
<path d="M302 4858 c-13 -40 -12 -43 10 -60 13 -10 26 -18 31 -18 14 0 7 29
-10 38 -16 9 -16 12 1 36 9 15 14 31 11 36 -13 21 -31 8 -43 -32z"/>
<path d="M153 4883 l-33 -4 0 -83 c0 -49 -6 -101 -15 -126 -8 -24 -13 -45 -11
-48 10 -9 26 11 37 48 7 22 16 37 21 34 5 -3 16 2 24 12 13 17 14 15 12 -26
-3 -37 -6 -44 -20 -42 -24 4 -23 -11 3 -34 20 -18 21 -18 35 1 10 13 14 52 16
132 0 62 1 119 2 126 1 13 -21 16 -71 10z m37 -49 c0 -20 -4 -25 -16 -20 -9 3
-18 6 -20 6 -2 0 -4 9 -4 20 0 13 7 20 20 20 15 0 20 -7 20 -26z m-11 -53 c12
-8 12 -12 2 -25 -19 -23 -31 -20 -31 9 0 27 6 30 29 16z"/>
<path d="M367 4417 l-18 -42 26 -22 c14 -13 30 -23 36 -23 17 0 9 28 -13 43
-23 14 -23 15 -4 35 17 20 17 52 -1 52 -4 0 -16 -19 -26 -43z"/>
<path d="M245 4404 c-16 -44 -16 -46 1 -59 11 -8 22 -15 27 -15 12 0 8 28 -5
33 -10 3 -8 12 5 36 17 29 16 51 -2 51 -5 0 -16 -21 -26 -46z"/>
<path d="M302 4408 c-13 -40 -12 -43 10 -60 13 -10 26 -18 31 -18 14 0 7 29
-10 38 -16 9 -16 12 1 36 9 15 14 31 11 36 -13 21 -31 8 -43 -32z"/>
<path d="M153 4433 l-33 -4 0 -83 c0 -49 -6 -101 -15 -126 -8 -24 -13 -45 -11
-48 10 -9 26 11 37 48 7 22 16 37 21 34 5 -3 16 2 24 12 13 17 14 15 12 -26
-3 -37 -6 -44 -20 -42 -24 4 -23 -11 3 -34 20 -18 21 -18 35 1 10 13 14 52 16
132 0 62 1 119 2 126 1 13 -21 16 -71 10z m37 -49 c0 -20 -4 -25 -16 -20 -9 3
-18 6 -20 6 -2 0 -4 9 -4 20 0 13 7 20 20 20 15 0 20 -7 20 -26z m-11 -53 c12
-8 12 -12 2 -25 -19 -23 -31 -20 -31 9 0 27 6 30 29 16z"/>
<path d="M367 3967 l-18 -42 26 -22 c14 -13 30 -23 36 -23 17 0 9 28 -13 43
-23 14 -23 15 -4 35 17 20 17 52 -1 52 -4 0 -16 -19 -26 -43z"/>
<path d="M245 3954 c-16 -44 -16 -46 1 -59 11 -8 22 -15 27 -15 12 0 8 28 -5
33 -10 3 -8 12 5 36 17 29 16 51 -2 51 -5 0 -16 -21 -26 -46z"/>
<path d="M302 3958 c-13 -40 -12 -43 10 -60 13 -10 26 -18 31 -18 14 0 7 29
-10 38 -16 9 -16 12 1 36 9 15 14 31 11 36 -13 21 -31 8 -43 -32z"/>
<path d="M153 3983 l-33 -4 0 -83 c0 -49 -6 -101 -15 -126 -8 -24 -13 -45 -11
-48 10 -9 26 11 37 48 7 22 16 37 21 34 5 -3 16 2 24 12 13 17 14 15 12 -26
-3 -37 -6 -44 -20 -42 -24 4 -23 -11 3 -34 20 -18 21 -18 35 1 10 13 14 52 16
132 0 62 1 119 2 126 1 13 -21 16 -71 10z m37 -49 c0 -20 -4 -25 -16 -20 -9 3
-18 6 -20 6 -2 0 -4 9 -4 20 0 13 7 20 20 20 15 0 20 -7 20 -26z m-11 -53 c12
-8 12 -12 2 -25 -19 -23 -31 -20 -31 9 0 27 6 30 29 16z"/>
<path d="M277 3864 c-11 -14 -16 -28 -13 -31 9 -9 58 27 53 40 -6 20 -22 17
-40 -9z"/>
<path d="M367 3517 l-18 -42 26 -22 c14 -13 30 -23 36 -23 17 0 9 28 -13 43
-23 14 -23 15 -4 35 17 20 17 52 -1 52 -4 0 -16 -19 -26 -43z"/>
<path d="M245 3504 c-16 -44 -16 -46 1 -59 11 -8 22 -15 27 -15 12 0 8 28 -5
33 -10 3 -8 12 5 36 17 29 16 51 -2 51 -5 0 -16 -21 -26 -46z"/>
<path d="M302 3508 c-13 -40 -12 -43 10 -60 13 -10 26 -18 31 -18 14 0 7 29
-10 38 -16 9 -16 12 1 36 9 15 14 31 11 36 -13 21 -31 8 -43 -32z"/>
<path d="M153 3533 l-33 -4 0 -83 c0 -49 -6 -101 -15 -126 -8 -24 -13 -45 -11
-48 10 -9 26 11 37 48 7 22 16 37 21 34 5 -3 16 2 24 12 13 17 14 15 12 -26
-3 -37 -6 -44 -20 -42 -24 4 -23 -11 3 -34 20 -18 21 -18 35 1 10 13 14 52 16
132 0 62 1 119 2 126 1 13 -21 16 -71 10z m37 -49 c0 -20 -4 -25 -16 -20 -9 3
-18 6 -20 6 -2 0 -4 9 -4 20 0 13 7 20 20 20 15 0 20 -7 20 -26z m-11 -53 c12
-8 12 -12 2 -25 -19 -23 -31 -20 -31 9 0 27 6 30 29 16z"/>
<path d="M277 3415 c-10 -14 -25 -25 -34 -25 -12 0 -14 -7 -9 -31 3 -17 6 -49
6 -70 0 -22 5 -39 10 -39 6 0 10 28 10 63 0 59 2 63 31 80 17 9 29 22 27 29
-7 21 -22 18 -41 -7z"/>
<path d="M367 3067 l-18 -42 26 -22 c14 -13 30 -23 36 -23 17 0 9 28 -13 43
-23 14 -23 15 -4 35 17 20 17 52 -1 52 -4 0 -16 -19 -26 -43z"/>
<path d="M245 3054 c-16 -44 -16 -46 1 -59 11 -8 22 -15 27 -15 12 0 8 28 -5
33 -10 3 -8 12 5 36 17 29 16 51 -2 51 -5 0 -16 -21 -26 -46z"/>
<path d="M302 3058 c-13 -40 -12 -43 10 -60 13 -10 26 -18 31 -18 14 0 7 29
-10 38 -16 9 -16 12 1 36 9 15 14 31 11 36 -13 21 -31 8 -43 -32z"/>
<path d="M153 3083 l-33 -4 0 -83 c0 -49 -6 -101 -15 -126 -8 -24 -13 -45 -11
-48 10 -9 26 11 37 48 7 22 16 37 21 34 5 -3 16 2 24 12 13 17 14 15 12 -26
-3 -37 -6 -44 -20 -42 -24 4 -23 -11 3 -34 20 -18 21 -18 35 1 10 13 14 52 16
132 0 62 1 119 2 126 1 13 -21 16 -71 10z m37 -49 c0 -20 -4 -25 -16 -20 -9 3
-18 6 -20 6 -2 0 -4 9 -4 20 0 13 7 20 20 20 15 0 20 -7 20 -26z m-11 -53 c12
-8 12 -12 2 -25 -19 -23 -31 -20 -31 9 0 27 6 30 29 16z"/>
<path d="M277 2965 c-10 -14 -25 -25 -34 -25 -12 0 -14 -7 -9 -31 3 -17 6 -49
6 -70 0 -22 5 -39 10 -39 6 0 10 25 10 55 0 63 6 69 80 70 l45 0 -2 -44 c-1
-24 -7 -47 -13 -51 -15 -10 0 -42 18 -38 16 3 26 33 35 106 6 54 -11 66 -77
53 -38 -7 -44 -6 -35 5 10 13 5 34 -9 34 -4 0 -15 -12 -25 -25z"/>
<path d="M367 2617 l-18 -42 26 -22 c14 -13 30 -23 36 -23 17 0 9 28 -13 43
-23 14 -23 15 -4 35 17 20 17 52 -1 52 -4 0 -16 -19 -26 -43z"/>
<path d="M245 2604 c-16 -44 -16 -46 1 -59 11 -8 22 -15 27 -15 12 0 8 28 -5
33 -10 3 -8 12 5 36 17 29 16 51 -2 51 -5 0 -16 -21 -26 -46z"/>
<path d="M302 2608 c-13 -40 -12 -43 10 -60 13 -10 26 -18 31 -18 14 0 7 29
-10 38 -16 9 -16 12 1 36 9 15 14 31 11 36 -13 21 -31 8 -43 -32z"/>
<path d="M153 2633 l-33 -4 0 -83 c0 -49 -6 -101 -15 -126 -8 -24 -13 -45 -11
-48 10 -9 26 11 37 48 7 22 16 37 21 34 5 -3 16 2 24 12 13 17 14 15 12 -26
-3 -37 -6 -44 -20 -42 -24 4 -23 -11 3 -34 20 -18 21 -18 35 1 10 13 14 52 16
132 0 62 1 119 2 126 1 13 -21 16 -71 10z m37 -49 c0 -20 -4 -25 -16 -20 -9 3
-18 6 -20 6 -2 0 -4 9 -4 20 0 13 7 20 20 20 15 0 20 -7 20 -26z m-11 -53 c12
-8 12 -12 2 -25 -19 -23 -31 -20 -31 9 0 27 6 30 29 16z"/>
<path d="M277 2515 c-10 -14 -25 -25 -34 -25 -12 0 -14 -7 -9 -31 3 -17 6 -49
6 -70 0 -22 5 -39 10 -39 6 0 10 24 10 54 0 59 1 60 43 70 34 8 34 -4 1 -44
-15 -17 -24 -34 -20 -37 10 -10 81 53 80 71 -1 10 3 15 10 13 14 -5 11 -88 -4
-97 -15 -10 0 -42 18 -38 16 3 26 33 35 106 6 54 -11 66 -77 53 -38 -7 -44 -6
-35 5 10 13 5 34 -9 34 -4 0 -15 -12 -25 -25z"/>
<path d="M367 2167 l-18 -42 26 -22 c14 -13 30 -23 36 -23 17 0 9 28 -13 43
-23 14 -23 15 -4 35 17 20 17 52 -1 52 -4 0 -16 -19 -26 -43z"/>
<path d="M245 2154 c-16 -44 -16 -46 1 -59 11 -8 22 -15 27 -15 12 0 8 28 -5
33 -10 3 -8 12 5 36 17 29 16 51 -2 51 -5 0 -16 -21 -26 -46z"/>
<path d="M302 2158 c-13 -40 -12 -43 10 -60 13 -10 26 -18 31 -18 14 0 7 29
-10 38 -16 9 -16 12 1 36 9 15 14 31 11 36 -13 21 -31 8 -43 -32z"/>
<path d="M153 2183 l-33 -4 0 -83 c0 -49 -6 -101 -15 -126 -8 -24 -13 -45 -11
-48 10 -9 26 11 37 48 7 22 16 37 21 34 5 -3 16 2 24 12 13 17 14 15 12 -26
-3 -37 -6 -44 -20 -42 -24 4 -23 -11 3 -34 20 -18 21 -18 35 1 10 13 14 52 16
132 0 62 1 119 2 126 1 13 -21 16 -71 10z m37 -49 c0 -20 -4 -25 -16 -20 -9 3
-18 6 -20 6 -2 0 -4 9 -4 20 0 13 7 20 20 20 15 0 20 -7 20 -26z m-11 -53 c12
-8 12 -12 2 -25 -19 -23 -31 -20 -31 9 0 27 6 30 29 16z"/>
<path d="M277 2065 c-10 -14 -25 -25 -34 -25 -12 0 -14 -7 -9 -31 3 -17 6 -49
6 -70 0 -22 5 -39 10 -39 6 0 10 24 10 54 0 59 1 60 43 70 32 8 39 -13 6 -21
-11 -3 -18 -11 -15 -18 2 -7 -1 -18 -7 -24 -15 -15 0 -26 17 -12 11 10 19 9
35 -1 25 -16 39 -3 23 22 -8 13 -8 21 -1 26 6 3 8 13 5 21 -4 9 -1 13 6 10 16
-5 14 -87 -2 -97 -15 -10 0 -42 18 -38 16 3 26 33 35 106 6 54 -11 66 -77 53
-38 -7 -44 -6 -35 5 10 13 5 34 -9 34 -4 0 -15 -12 -25 -25z"/>
<path d="M367 1717 l-18 -42 26 -22 c14 -13 30 -23 36 -23 17 0 9 28 -13 43
-23 14 -23 15 -4 35 17 20 17 52 -1 52 -4 0 -16 -19 -26 -43z"/>
<path d="M245 1704 c-16 -44 -16 -46 1 -59 11 -8 22 -15 27 -15 12 0 8 28 -5
33 -10 3 -8 12 5 36 17 29 16 51 -2 51 -5 0 -16 -21 -26 -46z"/>
<path d="M302 1708 c-13 -40 -12 -43 10 -60 13 -10 26 -18 31 -18 14 0 7 29
-10 38 -16 9 -16 12 1 36 9 15 14 31 11 36 -13 21 -31 8 -43 -32z"/>
<path d="M153 1733 l-33 -4 0 -83 c0 -49 -6 -101 -15 -126 -8 -24 -13 -45 -11
-48 10 -9 26 11 37 48 7 22 16 37 21 34 5 -3 16 2 24 12 13 17 14 15 12 -26
-3 -37 -6 -44 -20 -42 -24 4 -23 -11 3 -34 20 -18 21 -18 35 1 10 13 14 52 16
132 0 62 1 119 2 126 1 13 -21 16 -71 10z m37 -49 c0 -20 -4 -25 -16 -20 -9 3
-18 6 -20 6 -2 0 -4 9 -4 20 0 13 7 20 20 20 15 0 20 -7 20 -26z m-11 -53 c12
-8 12 -12 2 -25 -19 -23 -31 -20 -31 9 0 27 6 30 29 16z"/>
<path d="M277 1615 c-10 -14 -25 -25 -34 -25 -12 0 -14 -7 -9 -31 3 -17 6 -48
6 -68 l0 -37 61 4 c43 3 64 1 69 -8 16 -26 39 -2 45 47 3 26 8 58 11 70 6 32
-24 45 -80 34 -38 -7 -44 -6 -35 5 10 13 5 34 -9 34 -4 0 -15 -12 -25 -25z
m53 -46 c0 -6 -9 -13 -21 -16 -11 -3 -18 -11 -15 -18 2 -7 -1 -18 -7 -24 -16
-16 0 -26 17 -12 8 7 20 10 27 6 16 -11 -9 -25 -44 -25 -27 0 -28 2 -25 42 2
35 7 43 28 49 37 10 40 10 40 -2z m56 -4 c3 -8 2 -32 -4 -52 -6 -25 -10 -30
-11 -16 -1 12 -6 25 -11 28 -8 5 -7 11 0 20 7 8 9 19 5 25 -3 5 -1 10 5 10 6
0 13 -7 16 -15z"/>
</g>
</svg>
