<?xml version="1.0" standalone="no"?>
<!DOCTYPE svg PUBLIC "-//W3C//DTD SVG 20010904//EN"
 "http://www.w3.org/TR/2001/REC-SVG-20010904/DTD/svg10.dtd">
<svg version="1.0" xmlns="http://www.w3.org/2000/svg"
 width="50.000000pt" height="725.000000pt" viewBox="0 0 50.000000 725.000000"
 preserveAspectRatio="xMidYMid meet">
<metadata>
Created by potrace 1.16, written by Peter Selinger 2001-2019
</metadata>
<g transform="translate(0.000000,725.000000) scale(0.100000,-0.100000)"
fill="#000000" stroke="none">
<path d="M110 7038 c-1 -46 -7 -101 -15 -123 -18 -48 -17 -45 -5 -45 22 0 42
66 47 156 5 83 4 94 -11 94 -13 0 -16 -13 -16 -82z"/>
<path d="M143 6673 l-33 -4 0 -82 c-1 -45 -7 -100 -15 -122 -18 -48 -17 -45
-5 -45 20 0 40 61 47 142 7 67 11 83 26 86 15 3 17 -7 17 -102 0 -88 -3 -106
-15 -106 -19 0 -19 -11 -1 -36 27 -36 36 -3 39 136 2 147 5 141 -60 133z"/>
<path d="M143 6223 l-33 -4 0 -82 c-1 -45 -7 -100 -15 -122 -18 -48 -17 -45
-5 -45 16 0 38 52 45 112 7 53 9 56 26 45 15 -10 19 -24 19 -74 0 -49 -3 -63
-15 -63 -19 0 -19 -11 -1 -36 27 -36 36 -3 39 136 2 147 5 141 -60 133z m37
-43 c0 -13 -7 -20 -20 -20 -19 0 -27 20 -13 33 13 14 33 6 33 -13z"/>
<path d="M143 5773 l-33 -4 0 -82 c-1 -45 -7 -100 -15 -122 -8 -21 -12 -42 -9
-45 8 -7 34 30 41 58 3 12 10 22 15 22 6 0 17 8 24 18 12 15 13 11 14 -30 0
-36 -4 -48 -15 -48 -19 0 -19 -11 -1 -36 27 -36 36 -3 39 136 2 147 5 141 -60
133z m37 -43 c0 -13 -7 -20 -20 -20 -19 0 -27 20 -13 33 13 14 33 6 33 -13z
m0 -71 c0 -6 -25 -19 -36 -19 -2 0 -4 11 -4 25 0 23 2 24 20 13 11 -7 20 -16
20 -19z"/>
<path d="M143 5323 l-33 -4 0 -82 c-1 -45 -7 -100 -15 -122 -8 -21 -12 -42 -9
-45 8 -7 34 30 41 58 3 12 10 22 15 22 6 0 17 8 24 18 12 15 13 11 14 -30 0
-36 -4 -48 -15 -48 -19 0 -19 -11 -1 -36 27 -36 36 -3 39 136 2 147 5 141 -60
133z m37 -43 c0 -13 -7 -20 -20 -20 -19 0 -27 20 -13 33 13 14 33 6 33 -13z
m0 -71 c0 -6 -25 -19 -36 -19 -2 0 -4 11 -4 25 0 23 2 24 20 13 11 -7 20 -16
20 -19z"/>
<path d="M240 5285 c-7 -8 -10 -18 -7 -21 9 -10 48 7 44 19 -6 18 -23 19 -37
2z"/>
<path d="M143 4873 l-33 -4 0 -82 c-1 -45 -7 -100 -15 -122 -8 -21 -12 -42 -9
-45 8 -7 34 30 41 58 3 12 10 22 15 22 6 0 17 8 24 18 12 15 13 11 14 -30 0
-36 -4 -48 -15 -48 -19 0 -19 -11 -2 -35 24 -31 34 -8 43 92 6 76 9 89 13 59
9 -61 32 -59 24 2 -5 45 -3 51 16 57 23 7 27 20 9 31 -6 4 -19 -2 -29 -14 -23
-29 -27 -28 -31 10 -3 35 -10 38 -65 31z m37 -43 c0 -13 -7 -20 -20 -20 -19 0
-27 20 -13 33 13 14 33 6 33 -13z m0 -71 c0 -6 -25 -19 -36 -19 -2 0 -4 11 -4
25 0 23 2 24 20 13 11 -7 20 -16 20 -19z"/>
<path d="M143 4423 l-33 -4 0 -82 c-1 -45 -7 -100 -15 -122 -8 -21 -12 -42 -9
-45 8 -7 34 30 41 58 3 12 10 22 15 22 6 0 17 8 24 18 12 15 13 11 14 -30 0
-36 -4 -48 -15 -48 -19 0 -19 -11 -2 -35 24 -31 34 -8 43 92 6 76 9 89 13 59
4 -22 12 -42 20 -44 10 -3 12 2 7 22 -5 22 -3 26 14 26 11 0 20 5 20 10 0 6
-9 10 -20 10 -11 0 -20 6 -20 14 0 8 9 18 20 21 22 7 26 20 8 31 -6 4 -19 -2
-29 -14 -23 -29 -27 -28 -31 10 -3 35 -10 38 -65 31z m37 -43 c0 -13 -7 -20
-20 -20 -19 0 -27 20 -13 33 13 14 33 6 33 -13z m0 -71 c0 -6 -25 -19 -36 -19
-2 0 -4 11 -4 25 0 23 2 24 20 13 11 -7 20 -16 20 -19z"/>
<path d="M143 3973 l-33 -4 0 -82 c-1 -45 -7 -100 -15 -122 -8 -21 -12 -42 -9
-45 8 -7 34 30 41 58 3 12 10 22 15 22 6 0 17 8 24 18 12 15 13 11 14 -30 0
-36 -4 -48 -15 -48 -19 0 -19 -11 -2 -35 24 -31 34 -8 43 92 6 76 9 89 13 59
4 -22 12 -42 20 -44 10 -3 12 2 7 22 -5 22 -3 26 14 26 11 0 20 5 20 10 0 6
-9 10 -20 10 -11 0 -20 6 -20 14 0 8 9 18 20 21 22 7 26 20 8 31 -6 4 -19 -2
-29 -14 -23 -29 -27 -28 -31 10 -3 35 -10 38 -65 31z m37 -43 c0 -13 -7 -20
-20 -20 -19 0 -27 20 -13 33 13 14 33 6 33 -13z m0 -71 c0 -6 -25 -19 -36 -19
-2 0 -4 11 -4 25 0 23 2 24 20 13 11 -7 20 -16 20 -19z"/>
<path d="M343 3943 c-29 -6 -30 -23 -2 -23 22 0 22 -3 2 -89 -11 -47 20 -16
39 39 13 40 15 57 7 67 -6 7 -14 12 -18 12 -3 -1 -16 -4 -28 -6z"/>
<path d="M143 3523 l-33 -4 0 -82 c-1 -45 -7 -100 -15 -122 -8 -21 -12 -42 -9
-45 8 -7 34 30 41 58 3 12 10 22 15 22 6 0 17 8 24 18 12 15 13 11 14 -30 0
-36 -4 -48 -15 -48 -19 0 -19 -11 -2 -35 24 -31 34 -8 43 92 6 76 9 89 13 59
4 -22 12 -42 20 -44 10 -3 12 2 7 22 -5 22 -3 26 14 26 11 0 20 5 20 10 0 6
-9 10 -20 10 -11 0 -20 6 -20 14 0 8 9 18 20 21 22 7 26 20 8 31 -6 4 -19 -2
-29 -14 -23 -29 -27 -28 -31 10 -3 35 -10 38 -65 31z m37 -43 c0 -13 -7 -20
-20 -20 -19 0 -27 20 -13 33 13 14 33 6 33 -13z m0 -71 c0 -6 -25 -19 -36 -19
-2 0 -4 11 -4 25 0 23 2 24 20 13 11 -7 20 -16 20 -19z"/>
<path d="M343 3493 c-28 -5 -30 -23 -3 -23 11 0 20 -7 20 -15 0 -8 -9 -15 -20
-15 -11 0 -20 -4 -20 -10 0 -5 7 -10 16 -10 12 0 14 -7 9 -31 -12 -53 16 -29
37 31 13 40 15 57 7 67 -6 7 -14 12 -18 12 -3 -1 -16 -4 -28 -6z"/>
<path d="M143 3073 l-33 -4 0 -82 c-1 -45 -7 -100 -15 -122 -8 -21 -12 -42 -9
-45 8 -7 34 30 41 58 3 12 10 22 15 22 6 0 17 8 24 18 12 15 13 11 14 -30 0
-36 -4 -48 -15 -48 -19 0 -19 -11 -2 -35 24 -31 34 -8 43 92 4 54 9 87 11 73
9 -63 13 -70 36 -65 12 3 42 7 66 8 44 3 45 3 63 57 21 63 12 82 -34 73 -32
-6 -38 -23 -8 -23 11 0 20 -7 20 -15 0 -8 -9 -15 -20 -15 -11 0 -20 -4 -20
-10 0 -5 7 -10 15 -10 8 0 15 -6 15 -14 0 -15 -82 -32 -100 -21 -17 10 -11 25
10 25 11 0 20 5 20 10 0 6 -9 10 -20 10 -11 0 -20 6 -20 14 0 8 9 18 20 21 22
7 26 20 8 31 -6 4 -19 -2 -29 -14 -23 -29 -27 -28 -31 10 -3 35 -10 38 -65 31z
m37 -43 c0 -13 -7 -20 -20 -20 -19 0 -27 20 -13 33 13 14 33 6 33 -13z m0 -71
c0 -6 -25 -19 -36 -19 -2 0 -4 11 -4 25 0 23 2 24 20 13 11 -7 20 -16 20 -19z"/>
<path d="M277 2620 c4 -25 3 -29 -10 -24 -10 3 -21 -2 -29 -15 -18 -29 -28
-26 -28 8 0 37 -6 41 -58 34 l-42 -6 0 -81 c-1 -44 -7 -99 -15 -121 -8 -21
-12 -42 -9 -45 8 -7 34 30 41 58 3 12 10 22 15 22 6 0 17 8 24 18 12 15 13 11
14 -30 0 -36 -4 -48 -15 -48 -19 0 -19 -11 -2 -35 24 -31 34 -8 43 92 4 54 9
87 11 73 9 -63 13 -71 33 -65 11 4 20 3 20 0 0 -12 -23 -50 -43 -72 -11 -13
-18 -26 -15 -29 13 -12 49 19 69 59 27 53 25 51 56 52 23 0 29 7 45 55 21 63
12 82 -34 73 -32 -6 -38 -23 -8 -23 11 0 20 -7 20 -15 0 -8 -9 -15 -20 -15
-11 0 -20 -4 -20 -10 0 -5 7 -10 15 -10 8 0 15 -7 15 -15 0 -9 -9 -15 -23 -15
-21 0 -22 3 -19 80 4 76 3 80 -17 80 -18 0 -20 -4 -14 -30z m-97 -40 c0 -13
-7 -20 -20 -20 -19 0 -27 20 -13 33 13 14 33 6 33 -13z m100 -30 c0 -13 -7
-20 -20 -20 -22 0 -28 25 -7 33 22 10 27 7 27 -13z m-100 -41 c0 -6 -25 -19
-36 -19 -2 0 -4 11 -4 25 0 23 2 24 20 13 11 -7 20 -16 20 -19z m100 -15 c0
-9 -7 -14 -17 -12 -25 5 -28 28 -4 28 12 0 21 -6 21 -16z"/>
<path d="M277 2170 c4 -25 3 -29 -10 -24 -10 3 -21 -2 -29 -15 -18 -29 -28
-26 -28 8 0 37 -6 41 -58 34 l-42 -6 0 -81 c-1 -44 -7 -99 -15 -121 -8 -21
-12 -42 -9 -45 8 -7 34 30 41 58 3 12 10 22 15 22 6 0 17 8 24 18 12 15 13 11
14 -30 0 -36 -4 -48 -15 -48 -19 0 -19 -11 -2 -35 24 -31 34 -8 43 92 4 54 9
87 11 73 9 -63 13 -71 33 -65 11 4 20 3 20 0 0 -12 -23 -50 -43 -72 -11 -13
-18 -26 -15 -29 12 -11 48 17 66 51 l18 35 29 -50 c27 -46 32 -50 67 -50 47 0
48 10 3 34 -35 19 -93 85 -78 87 4 1 17 2 27 3 14 1 24 16 38 56 21 63 12 82
-34 73 -32 -6 -38 -23 -8 -23 11 0 20 -7 20 -15 0 -8 -9 -15 -20 -15 -11 0
-20 -4 -20 -10 0 -5 7 -10 15 -10 8 0 15 -7 15 -15 0 -9 -9 -15 -23 -15 -21 0
-22 3 -19 80 4 76 3 80 -17 80 -18 0 -20 -4 -14 -30z m-97 -40 c0 -13 -7 -20
-20 -20 -19 0 -27 20 -13 33 13 14 33 6 33 -13z m100 -30 c0 -13 -7 -20 -20
-20 -22 0 -28 25 -7 33 22 10 27 7 27 -13z m-100 -41 c0 -6 -25 -19 -36 -19
-2 0 -4 11 -4 25 0 23 2 24 20 13 11 -7 20 -16 20 -19z m100 -15 c0 -9 -7 -14
-17 -12 -25 5 -28 28 -4 28 12 0 21 -6 21 -16z"/>
</g>
</svg>
