<?xml version="1.0" standalone="no"?>
<!DOCTYPE svg PUBLIC "-//W3C//DTD SVG 20010904//EN"
 "http://www.w3.org/TR/2001/REC-SVG-20010904/DTD/svg10.dtd">
<svg version="1.0" xmlns="http://www.w3.org/2000/svg"
 width="50.000000pt" height="725.000000pt" viewBox="0 0 50.000000 725.000000"
 preserveAspectRatio="xMidYMid meet">
<metadata>
Created by potrace 1.16, written by Peter Selinger 2001-2019
</metadata>
<g transform="translate(0.000000,725.000000) scale(0.100000,-0.100000)"
fill="#000000" stroke="none">
<path d="M110 7057 c0 -46 -7 -106 -15 -132 -15 -51 -14 -62 4 -51 16 10 29
72 37 174 6 81 5 92 -10 92 -13 0 -16 -13 -16 -83z"/>
<path d="M143 6693 l-33 -4 0 -83 c0 -46 -7 -105 -15 -131 -15 -51 -14 -62 4
-51 15 10 28 70 36 164 5 60 11 82 21 82 11 0 14 -22 14 -110 0 -93 -3 -110
-18 -119 -16 -9 -16 -11 0 -28 33 -32 43 -3 48 140 5 120 0 151 -20 145 -3 -1
-20 -3 -37 -5z"/>
<path d="M143 6243 l-33 -4 0 -83 c0 -46 -7 -105 -15 -131 -15 -50 -14 -62 4
-51 15 9 31 74 31 124 0 35 3 42 20 42 18 0 20 -7 20 -70 0 -55 -3 -71 -18
-79 -16 -9 -16 -11 0 -28 33 -32 43 -3 48 140 5 120 0 151 -20 145 -3 -1 -20
-3 -37 -5z m27 -48 c0 -16 -6 -25 -15 -25 -9 0 -15 9 -15 25 0 16 6 25 15 25
9 0 15 -9 15 -25z"/>
<path d="M143 5793 l-33 -4 0 -83 c0 -46 -7 -105 -15 -131 -8 -27 -12 -51 -10
-53 10 -10 26 13 36 53 7 28 17 45 30 48 16 4 19 0 19 -33 0 -27 -6 -42 -18
-49 -16 -9 -16 -11 0 -28 33 -32 43 -3 48 140 5 120 0 151 -20 145 -3 -1 -20
-3 -37 -5z m27 -48 c0 -16 -6 -25 -15 -25 -9 0 -15 9 -15 25 0 16 6 25 15 25
9 0 15 -9 15 -25z m0 -70 c0 -8 -9 -19 -20 -25 -18 -9 -20 -8 -20 15 0 18 5
25 20 25 11 0 20 -7 20 -15z"/>
<path d="M143 5343 l-33 -4 0 -83 c0 -46 -7 -105 -15 -131 -8 -27 -12 -51 -10
-53 10 -10 26 13 36 53 7 28 17 45 30 48 16 4 19 0 19 -33 0 -27 -6 -42 -18
-49 -16 -9 -16 -11 0 -28 33 -32 43 -3 48 140 5 120 0 151 -20 145 -3 -1 -20
-3 -37 -5z m27 -48 c0 -16 -6 -25 -15 -25 -9 0 -15 9 -15 25 0 16 6 25 15 25
9 0 15 -9 15 -25z m0 -70 c0 -8 -9 -19 -20 -25 -18 -9 -20 -8 -20 15 0 18 5
25 20 25 11 0 20 -7 20 -15z"/>
<path d="M323 5343 c-13 -2 -23 -9 -23 -15 0 -6 11 -8 26 -5 l26 5 -6 -55 c-8
-70 12 -69 31 3 19 72 13 80 -54 67z"/>
<path d="M143 4893 l-33 -4 0 -83 c0 -46 -7 -105 -15 -131 -8 -27 -12 -51 -10
-53 10 -10 26 13 36 53 7 28 17 45 30 48 16 4 19 0 19 -33 0 -27 -6 -42 -18
-49 -16 -9 -16 -11 0 -28 33 -32 43 -3 48 140 5 120 0 151 -20 145 -3 -1 -20
-3 -37 -5z m27 -48 c0 -16 -6 -25 -15 -25 -9 0 -15 9 -15 25 0 16 6 25 15 25
9 0 15 -9 15 -25z m0 -70 c0 -8 -9 -19 -20 -25 -18 -9 -20 -8 -20 15 0 18 5
25 20 25 11 0 20 -7 20 -15z"/>
<path d="M323 4893 c-13 -2 -23 -9 -23 -15 0 -6 11 -8 25 -6 19 4 25 1 25 -13
0 -14 -7 -19 -25 -19 -14 0 -25 -4 -25 -10 0 -5 11 -10 24 -10 20 0 22 -4 18
-26 -9 -49 21 -21 35 32 19 72 13 80 -54 67z"/>
<path d="M143 4443 l-33 -4 0 -83 c0 -46 -7 -105 -15 -131 -8 -27 -12 -51 -10
-53 10 -10 26 13 36 53 7 28 17 45 30 48 16 4 19 0 19 -33 0 -27 -6 -42 -18
-49 -16 -9 -16 -11 0 -28 33 -32 43 -3 48 140 5 120 0 151 -20 145 -3 -1 -20
-3 -37 -5z m27 -48 c0 -16 -6 -25 -15 -25 -9 0 -15 9 -15 25 0 16 6 25 15 25
9 0 15 -9 15 -25z m0 -70 c0 -8 -9 -19 -20 -25 -18 -9 -20 -8 -20 15 0 18 5
25 20 25 11 0 20 -7 20 -15z"/>
<path d="M323 4443 c-13 -2 -23 -9 -23 -15 0 -6 11 -8 25 -6 19 4 25 1 25 -13
0 -14 -7 -19 -25 -19 -34 0 -32 -18 3 -23 26 -4 26 -4 5 -12 -29 -9 -29 -21
-1 -29 29 -7 33 -2 47 57 16 66 10 73 -56 60z"/>
<path d="M143 3993 l-33 -4 0 -83 c0 -46 -7 -105 -15 -131 -8 -27 -12 -51 -10
-53 10 -10 26 13 36 53 7 28 17 45 30 48 16 4 19 0 19 -33 0 -27 -6 -42 -18
-49 -16 -9 -16 -11 0 -28 33 -32 43 -3 48 140 5 120 0 151 -20 145 -3 -1 -20
-3 -37 -5z m27 -48 c0 -16 -6 -25 -15 -25 -9 0 -15 9 -15 25 0 16 6 25 15 25
9 0 15 -9 15 -25z m0 -70 c0 -8 -9 -19 -20 -25 -18 -9 -20 -8 -20 15 0 18 5
25 20 25 11 0 20 -7 20 -15z"/>
<path d="M310 3993 l-35 -4 1 -110 c0 -60 4 -112 7 -115 7 -7 56 27 57 40 0 4
-9 6 -21 3 -18 -5 -20 -1 -17 31 3 34 6 37 32 37 27 0 31 4 43 50 15 57 11 76
-14 73 -10 -1 -34 -3 -53 -5z m40 -33 c0 -13 -7 -20 -20 -20 -25 0 -27 27 -2
33 9 3 18 5 20 6 1 0 2 -8 2 -19z m-5 -50 c-3 -5 -13 -10 -21 -10 -8 0 -14 5
-14 10 0 6 9 10 21 10 11 0 17 -4 14 -10z"/>
<path d="M143 3543 l-33 -4 0 -83 c0 -46 -7 -105 -15 -131 -8 -27 -12 -51 -10
-53 10 -10 26 13 36 53 7 28 17 45 30 48 16 4 19 0 19 -33 0 -27 -6 -42 -18
-49 -16 -9 -16 -11 0 -28 33 -32 43 -3 48 140 5 120 0 151 -20 145 -3 -1 -20
-3 -37 -5z m27 -48 c0 -16 -6 -25 -15 -25 -9 0 -15 9 -15 25 0 16 6 25 15 25
9 0 15 -9 15 -25z m0 -70 c0 -8 -9 -19 -20 -25 -18 -9 -20 -8 -20 15 0 18 5
25 20 25 11 0 20 -7 20 -15z"/>
<path d="M310 3543 l-35 -4 1 -110 c0 -60 4 -112 7 -115 7 -7 56 27 57 40 0 4
-9 6 -20 3 -17 -4 -20 0 -20 28 0 19 5 37 10 40 17 11 49 -5 43 -21 -6 -17 -2
-17 32 -2 30 14 32 28 4 35 -17 5 -19 10 -13 37 17 73 13 78 -66 69z m40 -33
c0 -13 -7 -20 -20 -20 -25 0 -27 27 -2 33 9 3 18 5 20 6 1 0 2 -8 2 -19z m-5
-50 c-3 -5 -13 -10 -21 -10 -8 0 -14 5 -14 10 0 6 9 10 21 10 11 0 17 -4 14
-10z"/>
<path d="M143 3093 l-33 -4 0 -83 c0 -46 -7 -105 -15 -131 -8 -27 -12 -51 -10
-53 10 -10 26 13 36 53 7 28 17 45 30 48 16 4 19 0 19 -33 0 -27 -6 -42 -18
-49 -16 -9 -16 -11 0 -28 33 -32 43 -3 48 140 5 120 0 151 -20 145 -3 -1 -20
-3 -37 -5z m27 -48 c0 -16 -6 -25 -15 -25 -9 0 -15 9 -15 25 0 16 6 25 15 25
9 0 15 -9 15 -25z m0 -70 c0 -8 -9 -19 -20 -25 -18 -9 -20 -8 -20 15 0 18 5
25 20 25 11 0 20 -7 20 -15z"/>
<path d="M310 3093 l-35 -4 1 -110 c0 -60 4 -112 7 -115 7 -7 56 27 57 40 0 4
-9 6 -20 3 -17 -4 -20 0 -20 28 0 39 11 49 42 39 21 -6 21 -7 3 -20 -18 -13
-18 -15 10 -44 16 -16 35 -30 42 -30 20 0 15 28 -7 42 -11 7 -20 16 -20 20 0
4 9 10 20 13 26 8 26 25 -1 32 -17 5 -19 10 -13 37 17 73 13 78 -66 69z m40
-33 c0 -13 -7 -20 -20 -20 -25 0 -27 27 -2 33 9 3 18 5 20 6 1 0 2 -8 2 -19z
m-5 -50 c-3 -5 -13 -10 -21 -10 -8 0 -14 5 -14 10 0 6 9 10 21 10 11 0 17 -4
14 -10z"/>
<path d="M143 2643 l-33 -4 0 -83 c0 -46 -7 -105 -15 -131 -8 -27 -12 -51 -10
-53 10 -10 26 13 36 53 7 28 17 45 30 48 16 4 19 0 19 -33 0 -27 -6 -42 -18
-49 -16 -9 -16 -11 0 -28 33 -32 43 -3 48 140 5 120 0 151 -20 145 -3 -1 -20
-3 -37 -5z m27 -48 c0 -16 -6 -25 -15 -25 -9 0 -15 9 -15 25 0 16 6 25 15 25
9 0 15 -9 15 -25z m0 -70 c0 -8 -9 -19 -20 -25 -18 -9 -20 -8 -20 15 0 18 5
25 20 25 11 0 20 -7 20 -15z"/>
<path d="M310 2643 l-35 -4 1 -110 c0 -60 4 -112 7 -115 7 -7 56 27 57 40 0 4
-9 6 -20 3 -17 -4 -20 0 -20 28 0 39 11 49 42 39 21 -6 21 -7 3 -20 -18 -13
-18 -15 10 -44 16 -16 35 -30 42 -30 20 0 15 28 -7 42 -11 7 -20 16 -20 20 0
4 9 10 20 13 26 8 26 25 -1 32 -17 5 -19 10 -13 37 17 73 13 78 -66 69z m40
-33 c0 -13 -7 -20 -20 -20 -25 0 -27 27 -2 33 9 3 18 5 20 6 1 0 2 -8 2 -19z
m-5 -50 c-3 -5 -13 -10 -21 -10 -8 0 -14 5 -14 10 0 6 9 10 21 10 11 0 17 -4
14 -10z"/>
<path d="M220 2587 c0 -14 20 -37 32 -37 15 0 8 38 -8 44 -22 8 -24 8 -24 -7z"/>
<path d="M143 2193 l-33 -4 0 -83 c0 -46 -7 -105 -15 -131 -8 -27 -12 -51 -10
-53 10 -10 26 13 36 53 7 28 17 45 30 48 16 4 19 0 19 -33 0 -27 -6 -42 -18
-49 -16 -9 -16 -11 0 -28 33 -32 43 -3 48 140 5 120 0 151 -20 145 -3 -1 -20
-3 -37 -5z m27 -48 c0 -16 -6 -25 -15 -25 -9 0 -15 9 -15 25 0 16 6 25 15 25
9 0 15 -9 15 -25z m0 -70 c0 -8 -9 -19 -20 -25 -18 -9 -20 -8 -20 15 0 18 5
25 20 25 11 0 20 -7 20 -15z"/>
<path d="M310 2193 l-35 -4 1 -110 c0 -60 4 -112 7 -115 7 -7 56 27 57 40 0 4
-9 6 -20 3 -17 -4 -20 0 -20 28 0 39 11 49 42 39 21 -6 21 -7 3 -20 -18 -13
-18 -15 10 -44 16 -16 35 -30 42 -30 20 0 15 28 -7 42 -11 7 -20 16 -20 20 0
4 9 10 20 13 26 8 26 25 -1 32 -17 5 -19 10 -13 37 17 73 13 78 -66 69z m40
-33 c0 -13 -7 -20 -20 -20 -25 0 -27 27 -2 33 9 3 18 5 20 6 1 0 2 -8 2 -19z
m-5 -50 c-3 -5 -13 -10 -21 -10 -8 0 -14 5 -14 10 0 6 9 10 21 10 11 0 17 -4
14 -10z"/>
<path d="M220 2137 c0 -14 20 -37 32 -37 15 0 8 38 -8 44 -22 8 -24 8 -24 -7z"/>
<path d="M223 2083 c-17 -6 -16 -23 1 -23 9 0 12 -7 9 -20 -7 -25 5 -26 23 -2
29 37 10 63 -33 45z"/>
<path d="M143 1743 l-33 -4 0 -83 c0 -46 -7 -105 -15 -131 -8 -27 -12 -51 -10
-53 10 -10 26 13 36 53 7 28 17 45 30 48 16 4 19 0 19 -33 0 -27 -6 -42 -18
-49 -16 -9 -16 -11 0 -28 33 -32 43 -3 48 140 5 120 0 151 -20 145 -3 -1 -20
-3 -37 -5z m27 -48 c0 -16 -6 -25 -15 -25 -9 0 -15 9 -15 25 0 16 6 25 15 25
9 0 15 -9 15 -25z m0 -70 c0 -8 -9 -19 -20 -25 -18 -9 -20 -8 -20 15 0 18 5
25 20 25 11 0 20 -7 20 -15z"/>
<path d="M310 1743 l-35 -4 1 -110 c0 -60 4 -112 7 -115 7 -7 56 27 57 40 0 4
-9 6 -20 3 -17 -4 -20 0 -20 28 0 39 11 49 42 39 21 -6 21 -7 3 -20 -18 -13
-18 -15 10 -44 16 -16 35 -30 42 -30 20 0 15 28 -7 42 -11 7 -20 16 -20 20 0
4 9 10 20 13 26 8 26 25 -1 32 -17 5 -19 10 -13 37 17 73 13 78 -66 69z m40
-33 c0 -13 -7 -20 -20 -20 -25 0 -27 27 -2 33 9 3 18 5 20 6 1 0 2 -8 2 -19z
m-5 -50 c-3 -5 -13 -10 -21 -10 -8 0 -14 5 -14 10 0 6 9 10 21 10 11 0 17 -4
14 -10z"/>
<path d="M220 1687 c0 -14 20 -37 32 -37 15 0 8 38 -8 44 -22 8 -24 8 -24 -7z"/>
<path d="M223 1633 c-18 -7 -16 -23 3 -23 8 0 12 -5 9 -11 -10 -14 4 -79 16
-79 6 0 7 14 4 34 -4 20 -2 36 4 40 6 4 11 16 11 27 0 19 -19 24 -47 12z"/>
<path d="M143 1293 l-33 -4 0 -83 c0 -46 -7 -105 -15 -131 -8 -27 -12 -51 -10
-53 10 -10 26 13 36 53 7 28 17 45 30 48 16 4 19 0 19 -33 0 -27 -6 -42 -18
-49 -16 -9 -16 -11 1 -28 18 -17 19 -17 34 5 21 30 59 28 127 -5 49 -24 57
-25 85 -13 40 16 40 30 -1 30 -17 0 -57 7 -87 16 -55 15 -56 16 -58 54 -1 22
2 42 7 45 6 3 10 15 10 26 0 19 -15 24 -44 13 -19 -7 -21 -24 -3 -24 8 0 12
-16 12 -47 0 -38 -4 -48 -18 -51 -18 -4 -19 4 -15 112 2 90 0 117 -10 121 -8
3 -14 4 -15 3 -1 0 -17 -3 -34 -5z m27 -48 c0 -16 -6 -25 -15 -25 -9 0 -15 9
-15 25 0 16 6 25 15 25 9 0 15 -9 15 -25z m0 -70 c0 -8 -9 -19 -20 -25 -18 -9
-20 -8 -20 15 0 18 5 25 20 25 11 0 20 -7 20 -15z"/>
<path d="M310 1293 l-35 -4 1 -110 c0 -60 4 -112 7 -115 7 -7 56 27 57 40 0 4
-9 6 -20 3 -17 -4 -20 0 -20 28 0 39 11 49 42 39 21 -6 21 -7 3 -20 -18 -13
-18 -15 10 -44 16 -16 35 -30 42 -30 20 0 15 28 -7 42 -11 7 -20 16 -20 20 0
4 9 10 20 13 26 8 26 25 -1 32 -17 5 -19 10 -13 37 17 73 13 78 -66 69z m40
-33 c0 -13 -7 -20 -20 -20 -25 0 -27 27 -2 33 9 3 18 5 20 6 1 0 2 -8 2 -19z
m-5 -50 c-3 -5 -13 -10 -21 -10 -8 0 -14 5 -14 10 0 6 9 10 21 10 11 0 17 -4
14 -10z"/>
<path d="M220 1237 c0 -14 20 -37 32 -37 15 0 8 38 -8 44 -22 8 -24 8 -24 -7z"/>
</g>
</svg>
