<?xml version="1.0" standalone="no"?>
<!DOCTYPE svg PUBLIC "-//W3C//DTD SVG 20010904//EN"
 "http://www.w3.org/TR/2001/REC-SVG-20010904/DTD/svg10.dtd">
<svg version="1.0" xmlns="http://www.w3.org/2000/svg"
 width="50.000000pt" height="725.000000pt" viewBox="0 0 50.000000 725.000000"
 preserveAspectRatio="xMidYMid meet">
<metadata>
Created by potrace 1.16, written by Peter Selinger 2001-2019
</metadata>
<g transform="translate(0.000000,725.000000) scale(0.100000,-0.100000)"
fill="#000000" stroke="none">
<path d="M115 7032 c-1 -71 -5 -106 -18 -131 -18 -35 -17 -48 3 -36 21 13 33
59 40 155 6 88 3 109 -20 110 -3 0 -5 -44 -5 -98z"/>
<path d="M115 6580 c-1 -69 -6 -104 -18 -129 -18 -37 -15 -54 7 -30 22 24 36
79 36 145 0 71 6 94 26 94 11 0 14 -23 14 -110 0 -103 -1 -110 -20 -110 -26 0
-25 -12 0 -35 38 -34 48 -6 52 143 l3 132 -50 -2 -50 -2 0 -96z"/>
<path d="M115 6130 c-1 -69 -6 -104 -18 -129 -18 -37 -15 -54 7 -30 20 21 36
77 36 126 0 41 1 42 20 31 17 -11 20 -24 20 -75 0 -56 -2 -63 -20 -63 -26 0
-25 -12 0 -35 38 -34 48 -6 52 143 l3 132 -50 -2 -50 -2 0 -96z m65 55 c0 -18
-5 -25 -20 -25 -21 0 -24 8 -14 34 10 25 34 19 34 -9z"/>
<path d="M115 5680 c-1 -69 -6 -104 -18 -129 -9 -19 -15 -36 -12 -39 9 -9 34
20 40 48 3 16 17 36 31 44 l24 16 0 -40 c0 -33 -3 -40 -20 -40 -26 0 -25 -12
0 -35 38 -34 48 -6 52 143 l3 132 -50 -2 -50 -2 0 -96z m65 55 c0 -18 -5 -25
-20 -25 -21 0 -24 8 -14 34 10 25 34 19 34 -9z m0 -77 c0 -4 -9 -12 -20 -18
-18 -10 -20 -8 -20 20 0 28 2 29 20 18 11 -7 20 -16 20 -20z"/>
<path d="M290 5348 c0 -7 5 -20 10 -28 12 -19 35 2 27 24 -7 19 -37 21 -37 4z"/>
<path d="M115 5230 c-1 -69 -6 -104 -18 -129 -9 -19 -15 -36 -12 -39 9 -9 34
20 40 48 3 16 17 36 31 44 l24 16 0 -40 c0 -33 -3 -40 -20 -40 -26 0 -25 -12
0 -35 38 -34 48 -6 52 143 l3 132 -50 -2 -50 -2 0 -96z m65 55 c0 -18 -5 -25
-20 -25 -21 0 -24 8 -14 34 10 25 34 19 34 -9z m0 -77 c0 -4 -9 -12 -20 -18
-18 -10 -20 -8 -20 20 0 28 2 29 20 18 11 -7 20 -16 20 -20z"/>
<path d="M293 4891 c3 -15 -1 -21 -16 -23 -11 -2 -22 -9 -25 -17 -3 -10 3 -12
24 -8 16 3 48 9 72 12 48 8 57 25 13 25 -16 0 -31 6 -35 15 -9 23 -39 19 -33
-4z"/>
<path d="M115 4780 c-1 -69 -6 -104 -18 -129 -9 -19 -15 -36 -12 -39 9 -9 34
20 40 48 3 16 17 36 31 44 l24 16 0 -40 c0 -33 -3 -40 -20 -40 -26 0 -25 -12
0 -35 38 -34 48 -6 52 143 l3 132 -50 -2 -50 -2 0 -96z m65 55 c0 -18 -5 -25
-20 -25 -21 0 -24 8 -14 34 10 25 34 19 34 -9z m0 -77 c0 -4 -9 -12 -20 -18
-18 -10 -20 -8 -20 20 0 28 2 29 20 18 11 -7 20 -16 20 -20z"/>
<path d="M293 4440 c4 -15 0 -20 -13 -20 -28 0 -32 -14 -14 -49 19 -39 38 -40
32 -2 -4 28 -2 29 44 35 52 7 66 26 19 26 -16 0 -31 6 -35 15 -9 24 -39 19
-33 -5z"/>
<path d="M115 4330 c-1 -69 -6 -104 -18 -129 -9 -19 -15 -36 -12 -39 9 -9 34
20 40 48 3 16 17 36 31 44 l24 16 0 -40 c0 -33 -3 -40 -20 -40 -26 0 -25 -12
0 -35 38 -34 48 -6 52 143 l3 132 -50 -2 -50 -2 0 -96z m65 55 c0 -18 -5 -25
-20 -25 -21 0 -24 8 -14 34 10 25 34 19 34 -9z m0 -77 c0 -4 -9 -12 -20 -18
-18 -10 -20 -8 -20 20 0 28 2 29 20 18 11 -7 20 -16 20 -20z"/>
<path d="M293 3990 c4 -15 0 -20 -13 -20 -28 0 -32 -14 -14 -49 20 -40 38 -40
32 -1 -4 25 -1 30 15 30 15 0 18 -5 13 -25 -9 -36 13 -32 27 5 6 17 17 30 24
30 7 0 13 5 13 10 0 6 -13 10 -29 10 -16 0 -31 6 -35 15 -9 24 -39 19 -33 -5z"/>
<path d="M115 3880 c-1 -69 -6 -104 -18 -129 -9 -19 -15 -36 -12 -39 9 -9 34
20 40 48 3 16 17 36 31 44 l24 16 0 -40 c0 -33 -3 -40 -20 -40 -26 0 -25 -12
0 -35 38 -34 48 -6 52 143 l3 132 -50 -2 -50 -2 0 -96z m65 55 c0 -18 -5 -25
-20 -25 -21 0 -24 8 -14 34 10 25 34 19 34 -9z m0 -77 c0 -4 -9 -12 -20 -18
-18 -10 -20 -8 -20 20 0 28 2 29 20 18 11 -7 20 -16 20 -20z"/>
<path d="M293 3540 c4 -15 0 -20 -13 -20 -28 0 -32 -14 -14 -49 20 -40 38 -40
32 -1 -4 25 -1 30 15 30 15 0 18 -5 13 -25 -9 -36 13 -32 27 5 6 17 17 30 24
30 7 0 13 5 13 10 0 6 -13 10 -29 10 -16 0 -31 6 -35 15 -9 24 -39 19 -33 -5z"/>
<path d="M115 3430 c-1 -69 -6 -104 -18 -129 -9 -19 -15 -36 -12 -39 9 -9 34
20 40 48 3 16 17 36 31 44 l24 16 0 -40 c0 -33 -3 -40 -20 -40 -25 0 -25 -12
0 -35 33 -30 50 -5 50 71 0 50 3 64 15 64 8 0 15 3 15 8 0 4 3 17 6 30 8 27
-21 32 -30 5 -3 -10 -4 8 -1 40 l4 57 -52 -2 -52 -2 0 -96z m65 55 c0 -18 -5
-25 -20 -25 -21 0 -24 8 -14 34 10 25 34 19 34 -9z m0 -77 c0 -4 -9 -12 -20
-18 -18 -10 -20 -8 -20 20 0 28 2 29 20 18 11 -7 20 -16 20 -20z"/>
<path d="M293 3090 c4 -15 0 -20 -13 -20 -24 0 -36 -18 -21 -33 19 -19 12 -37
-13 -37 -15 0 -27 -7 -30 -17 -3 -10 -4 8 -1 40 l4 57 -52 -2 -52 -2 0 -96
c-1 -69 -6 -104 -18 -129 -9 -19 -15 -36 -12 -39 9 -9 34 20 40 48 3 16 17 36
31 44 l24 16 0 -40 c0 -33 -3 -40 -20 -40 -25 0 -25 -12 0 -35 33 -30 50 -5
50 71 0 48 4 64 14 64 7 0 16 9 19 20 4 16 14 20 47 20 39 0 43 2 58 40 9 22
23 40 30 40 6 0 12 5 12 10 0 6 -13 10 -29 10 -16 0 -31 6 -35 15 -9 24 -39
19 -33 -5z m-113 -55 c0 -18 -5 -25 -20 -25 -21 0 -24 8 -14 34 10 25 34 19
34 -9z m150 6 c0 -17 -12 -41 -20 -41 -4 0 -10 11 -12 25 -4 19 -1 25 13 25
11 0 19 -4 19 -9z m-150 -83 c0 -4 -9 -12 -20 -18 -18 -10 -20 -8 -20 20 0 28
2 29 20 18 11 -7 20 -16 20 -20z"/>
<path d="M350 3000 c0 -5 9 -10 20 -10 14 0 18 -5 13 -16 -5 -14 -2 -16 23
-10 37 10 39 12 24 31 -14 17 -80 21 -80 5z"/>
<path d="M293 2640 c4 -15 0 -20 -13 -20 -24 0 -36 -18 -21 -33 19 -19 12 -37
-13 -37 -15 0 -27 -7 -30 -17 -3 -10 -4 8 -1 40 l4 57 -52 -2 -52 -2 0 -96
c-1 -69 -6 -104 -18 -129 -9 -19 -15 -36 -12 -39 9 -9 34 20 40 48 3 16 17 36
31 44 l24 16 0 -40 c0 -33 -3 -40 -20 -40 -25 0 -25 -12 0 -35 33 -30 50 -5
50 71 0 48 4 64 14 64 7 0 16 9 19 20 4 16 14 20 47 20 39 0 43 2 58 40 9 22
23 40 30 40 6 0 12 5 12 10 0 6 -13 10 -29 10 -16 0 -31 6 -35 15 -9 24 -39
19 -33 -5z m-113 -55 c0 -18 -5 -25 -20 -25 -21 0 -24 8 -14 34 10 25 34 19
34 -9z m150 6 c0 -17 -12 -41 -20 -41 -4 0 -10 11 -12 25 -4 19 -1 25 13 25
11 0 19 -4 19 -9z m-150 -83 c0 -4 -9 -12 -20 -18 -18 -10 -20 -8 -20 20 0 28
2 29 20 18 11 -7 20 -16 20 -20z"/>
<path d="M350 2550 c0 -5 9 -10 20 -10 14 0 18 -5 13 -16 -5 -14 -2 -16 23
-10 37 10 39 12 24 31 -14 17 -80 21 -80 5z"/>
<path d="M292 2503 c4 -21 33 -25 33 -3 0 8 -8 16 -18 18 -14 3 -18 -1 -15
-15z"/>
<path d="M293 2190 c4 -15 0 -20 -13 -20 -24 0 -36 -18 -21 -33 19 -19 12 -37
-13 -37 -15 0 -27 -7 -30 -17 -3 -10 -4 8 -1 40 l4 57 -52 -2 -52 -2 0 -96
c-1 -69 -6 -104 -18 -129 -9 -19 -15 -36 -12 -39 9 -9 34 20 40 48 3 16 17 36
31 44 l24 16 0 -40 c0 -33 -3 -40 -20 -40 -25 0 -25 -12 0 -35 33 -30 50 -5
50 71 0 48 4 64 14 64 7 0 16 9 19 20 4 16 14 20 47 20 39 0 43 2 58 40 9 22
23 40 30 40 6 0 12 5 12 10 0 6 -13 10 -29 10 -16 0 -31 6 -35 15 -9 24 -39
19 -33 -5z m-113 -55 c0 -18 -5 -25 -20 -25 -21 0 -24 8 -14 34 10 25 34 19
34 -9z m150 6 c0 -17 -12 -41 -20 -41 -4 0 -10 11 -12 25 -4 19 -1 25 13 25
11 0 19 -4 19 -9z m-150 -83 c0 -4 -9 -12 -20 -18 -18 -10 -20 -8 -20 20 0 28
2 29 20 18 11 -7 20 -16 20 -20z"/>
<path d="M350 2100 c0 -5 9 -10 20 -10 14 0 18 -5 13 -16 -5 -14 -2 -16 23
-10 37 10 39 12 24 31 -14 17 -80 21 -80 5z"/>
<path d="M290 2050 c0 -16 -7 -20 -35 -20 -20 0 -35 -5 -35 -11 0 -8 16 -10
53 -5 28 3 69 6 90 6 27 0 37 4 37 16 0 13 -7 15 -34 11 -25 -4 -36 -1 -40 9
-8 21 -36 17 -36 -6z"/>
<path d="M293 1740 c4 -15 0 -20 -13 -20 -24 0 -36 -18 -21 -33 19 -19 12 -37
-13 -37 -15 0 -27 -7 -30 -17 -3 -10 -4 8 -1 40 l4 57 -52 -2 -52 -2 0 -96
c-1 -69 -6 -104 -18 -129 -9 -19 -15 -36 -12 -39 9 -9 34 20 40 48 3 16 17 36
31 44 l24 16 0 -40 c0 -33 -3 -40 -20 -40 -25 0 -25 -12 0 -35 33 -30 50 -5
50 71 0 48 4 64 14 64 7 0 16 9 19 20 4 16 14 20 47 20 39 0 43 2 58 40 9 22
23 40 30 40 6 0 12 5 12 10 0 6 -13 10 -29 10 -16 0 -31 6 -35 15 -9 24 -39
19 -33 -5z m-113 -55 c0 -18 -5 -25 -20 -25 -21 0 -24 8 -14 34 10 25 34 19
34 -9z m150 6 c0 -17 -12 -41 -20 -41 -4 0 -10 11 -12 25 -4 19 -1 25 13 25
11 0 19 -4 19 -9z m-150 -83 c0 -4 -9 -12 -20 -18 -18 -10 -20 -8 -20 20 0 28
2 29 20 18 11 -7 20 -16 20 -20z"/>
<path d="M350 1650 c0 -5 9 -10 20 -10 14 0 18 -5 13 -16 -5 -14 -2 -16 23
-10 37 10 39 12 24 31 -14 17 -80 21 -80 5z"/>
<path d="M290 1600 c0 -16 -7 -20 -35 -20 -20 0 -35 -5 -35 -11 0 -8 16 -10
53 -5 28 3 69 6 90 6 27 0 37 4 37 16 0 13 -7 15 -34 11 -25 -4 -36 -1 -40 9
-8 21 -36 17 -36 -6z"/>
<path d="M310 1540 c0 -5 7 -10 15 -10 8 0 15 -5 15 -11 0 -20 -21 -49 -35
-49 -17 0 -17 -2 -9 -24 3 -9 15 -16 25 -16 22 0 64 83 55 107 -6 15 -66 18
-66 3z"/>
<path d="M293 1290 c4 -15 0 -20 -13 -20 -24 0 -36 -18 -21 -33 19 -19 12 -37
-13 -37 -15 0 -27 -7 -30 -17 -3 -10 -4 8 -1 40 l4 57 -52 -2 -52 -2 0 -96
c-1 -69 -6 -104 -18 -129 -9 -19 -15 -36 -12 -39 9 -9 34 20 40 48 3 16 17 36
31 44 l24 16 0 -40 c0 -33 -3 -40 -20 -40 -25 0 -25 -12 0 -35 33 -30 50 -5
50 71 0 48 4 64 14 64 7 0 16 9 19 20 4 16 14 20 47 20 39 0 43 2 58 40 9 22
23 40 30 40 6 0 12 5 12 10 0 6 -13 10 -29 10 -16 0 -31 6 -35 15 -9 24 -39
19 -33 -5z m-113 -55 c0 -18 -5 -25 -20 -25 -21 0 -24 8 -14 34 10 25 34 19
34 -9z m150 6 c0 -17 -12 -41 -20 -41 -4 0 -10 11 -12 25 -4 19 -1 25 13 25
11 0 19 -4 19 -9z m-150 -83 c0 -4 -9 -12 -20 -18 -18 -10 -20 -8 -20 20 0 28
2 29 20 18 11 -7 20 -16 20 -20z"/>
<path d="M350 1200 c0 -5 9 -10 20 -10 14 0 18 -5 13 -16 -5 -14 -2 -16 23
-10 37 10 39 12 24 31 -14 17 -80 21 -80 5z"/>
<path d="M290 1150 c0 -16 -7 -20 -35 -20 -46 0 -45 -18 1 -22 l35 -3 -36 -43
c-21 -24 -35 -45 -32 -48 8 -8 56 26 68 47 10 20 49 26 49 8 0 -21 -21 -49
-36 -49 -11 0 -14 -6 -10 -16 3 -9 6 -18 6 -20 0 -2 9 -4 20 -4 15 0 26 13 41
47 23 54 19 73 -16 73 -14 0 -25 5 -25 10 0 6 18 10 40 10 30 0 40 4 40 16 0
13 -7 15 -34 11 -25 -4 -36 -1 -40 9 -8 21 -36 17 -36 -6z"/>
</g>
</svg>
