<?xml version="1.0" standalone="no"?>
<!DOCTYPE svg PUBLIC "-//W3C//DTD SVG 20010904//EN"
 "http://www.w3.org/TR/2001/REC-SVG-20010904/DTD/svg10.dtd">
<svg version="1.0" xmlns="http://www.w3.org/2000/svg"
 width="50.000000pt" height="725.000000pt" viewBox="0 0 50.000000 725.000000"
 preserveAspectRatio="xMidYMid meet">
<metadata>
Created by potrace 1.16, written by Peter Selinger 2001-2019
</metadata>
<g transform="translate(0.000000,725.000000) scale(0.100000,-0.100000)"
fill="#000000" stroke="none">
<path d="M113 7027 c-1 -60 -8 -108 -17 -132 -17 -39 -15 -52 3 -40 33 20 61
257 31 263 -12 2 -15 -14 -17 -91z"/>
<path d="M145 6673 l-30 -4 -2 -93 c-1 -58 -8 -108 -17 -131 -19 -44 -19 -45
-5 -45 19 0 42 75 48 160 5 70 9 85 24 88 15 3 17 -6 17 -85 0 -104 -6 -134
-26 -126 -21 8 -17 -11 6 -32 12 -11 24 -15 29 -9 5 5 11 70 12 144 4 147 7
141 -56 133z"/>
<path d="M145 6223 l-30 -4 -2 -93 c-1 -59 -8 -108 -17 -131 -17 -39 -15 -52
3 -41 14 9 41 101 42 145 0 20 3 30 6 24 2 -7 11 -13 19 -13 10 0 14 -12 14
-42 0 -60 -9 -88 -26 -81 -21 8 -17 -11 6 -32 12 -11 24 -15 29 -9 5 5 11 70
12 144 4 147 7 141 -56 133z m35 -52 c0 -24 -3 -28 -20 -24 -31 8 -25 53 7 53
8 0 13 -12 13 -29z"/>
<path d="M145 5773 l-30 -4 -2 -93 c-1 -59 -8 -108 -17 -131 -9 -21 -14 -41
-10 -44 9 -10 33 30 40 66 3 18 10 30 16 27 5 -3 16 2 23 12 14 18 14 18 15
-6 0 -42 -11 -69 -26 -63 -21 8 -17 -11 6 -32 12 -11 24 -15 29 -9 5 5 11 70
12 144 4 147 7 141 -56 133z m35 -52 c0 -24 -3 -28 -20 -24 -31 8 -25 53 7 53
8 0 13 -12 13 -29z m-14 -61 c19 0 18 -16 -2 -24 -23 -9 -24 -8 -23 22 0 15 3
21 6 15 2 -7 11 -13 19 -13z"/>
<path d="M145 5323 l-30 -4 -2 -93 c-1 -59 -8 -108 -17 -131 -9 -21 -14 -41
-10 -44 9 -10 33 30 40 66 3 18 10 30 16 27 5 -3 16 2 23 12 14 18 14 18 15
-6 0 -42 -11 -69 -26 -63 -21 8 -17 -11 6 -32 12 -11 24 -15 29 -9 5 5 11 70
12 144 4 147 7 141 -56 133z m35 -52 c0 -24 -3 -28 -20 -24 -31 8 -25 53 7 53
8 0 13 -12 13 -29z m-14 -61 c19 0 18 -16 -2 -24 -23 -9 -24 -8 -23 22 0 15 3
21 6 15 2 -7 11 -13 19 -13z"/>
<path d="M240 5326 c0 -15 24 -66 31 -66 5 0 9 16 9 35 0 28 -4 35 -20 35 -11
0 -20 -2 -20 -4z"/>
<path d="M145 4873 l-30 -4 -2 -93 c-1 -59 -8 -108 -17 -131 -9 -21 -14 -41
-10 -44 9 -10 33 30 40 66 3 18 10 30 16 27 5 -3 16 2 23 12 14 18 14 18 15
-6 0 -42 -11 -69 -26 -63 -20 8 -17 -11 5 -31 33 -30 41 -11 41 97 0 56 4 107
8 112 9 12 52 15 52 3 0 -4 5 -8 10 -8 6 0 10 16 10 35 0 29 -4 35 -21 35 -15
0 -19 -5 -15 -15 3 -10 -1 -15 -13 -15 -10 0 -21 7 -25 15 -3 8 -11 14 -18 13
-7 0 -26 -3 -43 -5z m35 -52 c0 -24 -3 -28 -20 -24 -31 8 -25 53 7 53 8 0 13
-12 13 -29z m-14 -61 c19 0 18 -16 -2 -24 -23 -9 -24 -8 -23 22 0 15 3 21 6
15 2 -7 11 -13 19 -13z"/>
<path d="M145 4423 l-30 -4 -2 -93 c-1 -59 -8 -108 -17 -131 -9 -21 -14 -41
-10 -44 9 -10 33 30 40 66 3 18 10 30 16 27 5 -3 16 2 23 12 14 18 14 18 15
-6 0 -42 -11 -69 -26 -63 -20 8 -17 -11 5 -31 33 -30 41 -11 41 97 0 56 4 107
8 112 9 12 52 15 52 3 0 -4 5 -8 10 -8 6 0 10 16 10 35 0 29 -4 35 -21 35 -15
0 -19 -5 -15 -15 3 -10 -1 -15 -13 -15 -10 0 -21 7 -25 15 -3 8 -11 14 -18 13
-7 0 -26 -3 -43 -5z m35 -52 c0 -24 -3 -28 -20 -24 -31 8 -25 53 7 53 8 0 13
-12 13 -29z m-14 -61 c19 0 18 -16 -2 -24 -23 -9 -24 -8 -23 22 0 15 3 21 6
15 2 -7 11 -13 19 -13z"/>
<path d="M348 4413 c-56 -6 -46 -23 13 -23 35 0 49 4 47 12 -5 14 -12 16 -60
11z"/>
<path d="M350 3990 c0 -13 -8 -24 -20 -27 -47 -12 -7 -33 48 -25 33 4 41 15
20 29 -7 4 -13 15 -13 23 0 8 -8 16 -17 18 -13 2 -18 -3 -18 -18z"/>
<path d="M145 3973 l-30 -4 -2 -93 c-1 -59 -8 -108 -17 -131 -9 -21 -14 -41
-10 -44 9 -10 33 30 40 66 3 18 10 30 16 27 5 -3 16 2 23 12 14 18 14 18 15
-6 0 -42 -11 -69 -26 -63 -20 8 -17 -11 5 -31 33 -30 41 -11 41 97 0 56 4 107
8 112 9 12 52 15 52 3 0 -4 5 -8 10 -8 6 0 10 16 10 35 0 29 -4 35 -21 35 -15
0 -19 -5 -15 -15 3 -10 -1 -15 -13 -15 -10 0 -21 7 -25 15 -3 8 -11 14 -18 13
-7 0 -26 -3 -43 -5z m35 -52 c0 -24 -3 -28 -20 -24 -31 8 -25 53 7 53 8 0 13
-12 13 -29z m-14 -61 c19 0 18 -16 -2 -24 -23 -9 -24 -8 -23 22 0 15 3 21 6
15 2 -7 11 -13 19 -13z"/>
<path d="M350 3540 c0 -13 -8 -24 -20 -27 -47 -12 -7 -33 48 -25 33 4 41 15
20 29 -7 4 -13 15 -13 23 0 8 -8 16 -17 18 -13 2 -18 -3 -18 -18z"/>
<path d="M145 3523 l-30 -4 -2 -93 c-1 -59 -8 -108 -17 -131 -9 -21 -14 -41
-10 -44 9 -10 33 30 40 66 3 18 10 30 16 27 5 -3 16 2 23 12 14 18 14 18 15
-6 0 -42 -11 -69 -26 -63 -20 8 -17 -11 5 -31 33 -30 41 -11 41 97 0 56 4 107
8 112 9 12 52 15 52 3 0 -4 5 -8 10 -8 6 0 10 16 10 35 0 29 -4 35 -21 35 -15
0 -19 -5 -15 -15 3 -10 -1 -15 -13 -15 -10 0 -21 7 -25 15 -3 8 -11 14 -18 13
-7 0 -26 -3 -43 -5z m35 -52 c0 -24 -3 -28 -20 -24 -31 8 -25 53 7 53 8 0 13
-12 13 -29z m-14 -61 c19 0 18 -16 -2 -24 -23 -9 -24 -8 -23 22 0 15 3 21 6
15 2 -7 11 -13 19 -13z"/>
<path d="M234 3434 c4 -11 10 -31 13 -46 9 -44 24 -33 21 14 -2 33 -8 44 -22
46 -15 3 -17 0 -12 -14z"/>
<path d="M350 3090 c0 -13 -8 -24 -20 -27 -47 -12 -7 -33 48 -25 33 4 41 15
20 29 -7 4 -13 15 -13 23 0 8 -8 16 -17 18 -13 2 -18 -3 -18 -18z"/>
<path d="M145 3073 l-30 -4 -2 -93 c-1 -59 -8 -108 -17 -131 -9 -21 -14 -41
-10 -44 9 -10 33 30 40 66 3 18 10 30 16 27 5 -3 16 2 23 12 14 18 14 18 15
-6 0 -42 -11 -69 -26 -63 -20 8 -17 -11 5 -31 33 -30 41 -11 41 97 0 56 4 107
8 112 9 12 52 15 52 3 0 -4 5 -8 10 -8 6 0 10 16 10 35 0 29 -4 35 -21 35 -15
0 -19 -5 -15 -15 3 -10 -1 -15 -13 -15 -10 0 -21 7 -25 15 -3 8 -11 14 -18 13
-7 0 -26 -3 -43 -5z m35 -52 c0 -24 -3 -28 -20 -24 -31 8 -25 53 7 53 8 0 13
-12 13 -29z m-14 -61 c19 0 18 -16 -2 -24 -23 -9 -24 -8 -23 22 0 15 3 21 6
15 2 -7 11 -13 19 -13z"/>
<path d="M300 3000 c0 -5 11 -10 24 -10 23 0 24 -2 15 -32 -11 -41 -12 -38 5
-38 8 0 19 14 25 31 18 52 15 59 -29 59 -22 0 -40 -4 -40 -10z"/>
<path d="M235 2983 c3 -10 9 -30 12 -45 7 -37 23 -36 23 1 0 16 3 36 6 45 5
12 0 16 -21 16 -22 0 -26 -3 -20 -17z"/>
<path d="M350 2640 c0 -13 -8 -24 -20 -27 -47 -12 -7 -33 48 -25 33 4 41 15
20 29 -7 4 -13 15 -13 23 0 8 -8 16 -17 18 -13 2 -18 -3 -18 -18z"/>
<path d="M145 2623 l-30 -4 -2 -93 c-1 -59 -8 -108 -17 -131 -9 -21 -14 -41
-10 -44 9 -10 33 30 40 66 3 18 10 30 16 27 5 -3 16 2 23 12 14 18 14 18 15
-6 0 -42 -11 -69 -26 -63 -20 8 -17 -11 5 -31 33 -30 41 -11 41 97 0 56 4 107
8 112 9 12 52 15 52 3 0 -4 5 -8 10 -8 6 0 10 16 10 35 0 29 -4 35 -21 35 -15
0 -19 -5 -15 -15 3 -10 -1 -15 -13 -15 -10 0 -21 7 -25 15 -3 8 -11 14 -18 13
-7 0 -26 -3 -43 -5z m35 -52 c0 -24 -3 -28 -20 -24 -31 8 -25 53 7 53 8 0 13
-12 13 -29z m-14 -61 c19 0 18 -16 -2 -24 -23 -9 -24 -8 -23 22 0 15 3 21 6
15 2 -7 11 -13 19 -13z"/>
<path d="M300 2550 c0 -5 12 -10 28 -11 24 0 25 -1 7 -9 -34 -15 -65 -12 -59
5 5 11 -1 15 -21 15 -22 0 -26 -3 -20 -17 3 -10 9 -30 12 -45 6 -32 23 -38 23
-9 0 14 9 20 35 23 30 3 34 1 29 -14 -10 -33 23 -20 35 13 18 52 15 59 -29 59
-22 0 -40 -4 -40 -10z"/>
<path d="M350 2190 c0 -13 -8 -24 -20 -27 -47 -12 -7 -33 48 -25 33 4 41 15
20 29 -7 4 -13 15 -13 23 0 8 -8 16 -17 18 -13 2 -18 -3 -18 -18z"/>
<path d="M145 2173 l-30 -4 -2 -93 c-1 -59 -8 -108 -17 -131 -9 -21 -14 -41
-10 -44 9 -10 33 30 40 66 3 18 10 30 16 27 5 -3 16 2 23 12 14 18 14 18 15
-6 0 -42 -11 -69 -26 -63 -20 8 -17 -11 5 -31 33 -30 41 -11 41 97 0 56 4 107
8 112 9 12 52 15 52 3 0 -4 5 -8 10 -8 6 0 10 16 10 35 0 29 -4 35 -21 35 -15
0 -19 -5 -15 -15 3 -10 -1 -15 -13 -15 -10 0 -21 7 -25 15 -3 8 -11 14 -18 13
-7 0 -26 -3 -43 -5z m35 -52 c0 -24 -3 -28 -20 -24 -31 8 -25 53 7 53 8 0 13
-12 13 -29z m-14 -61 c19 0 18 -16 -2 -24 -23 -9 -24 -8 -23 22 0 15 3 21 6
15 2 -7 11 -13 19 -13z"/>
<path d="M300 2100 c0 -5 12 -10 28 -11 24 0 25 -1 7 -9 -34 -15 -65 -12 -59
5 5 11 -1 15 -21 15 -22 0 -26 -3 -20 -17 3 -10 9 -31 12 -47 6 -26 8 -28 42
-22 20 3 43 6 53 6 9 0 21 13 27 31 18 52 15 59 -29 59 -22 0 -40 -4 -40 -10z
m39 -54 c-11 -10 -69 -17 -69 -7 0 5 15 11 33 13 32 3 44 1 36 -6z"/>
<path d="M350 1740 c0 -13 -8 -24 -20 -27 -47 -12 -7 -33 48 -25 33 4 41 15
20 29 -7 4 -13 15 -13 23 0 8 -8 16 -17 18 -13 2 -18 -3 -18 -18z"/>
<path d="M145 1723 l-30 -4 -2 -93 c-1 -59 -8 -108 -17 -131 -9 -21 -14 -41
-10 -44 9 -10 33 30 40 66 3 18 10 30 16 27 5 -3 16 2 23 12 14 18 14 18 15
-6 0 -42 -11 -69 -26 -63 -20 8 -17 -11 5 -31 26 -23 41 -13 41 28 0 29 3 33
28 33 63 1 202 17 202 23 0 16 -30 18 -92 10 -34 -5 -80 -10 -100 -10 l-38 0
0 58 c0 31 4 62 8 67 9 12 52 15 52 3 0 -4 5 -8 10 -8 6 0 10 16 10 35 0 29
-4 35 -21 35 -15 0 -19 -5 -15 -15 3 -10 -1 -15 -13 -15 -10 0 -21 7 -25 15
-3 8 -11 14 -18 13 -7 0 -26 -3 -43 -5z m35 -52 c0 -24 -3 -28 -20 -24 -31 8
-25 53 7 53 8 0 13 -12 13 -29z m-14 -61 c19 0 18 -16 -2 -24 -23 -9 -24 -8
-23 22 0 15 3 21 6 15 2 -7 11 -13 19 -13z"/>
<path d="M300 1650 c0 -5 12 -10 28 -11 24 0 25 -1 7 -9 -34 -15 -65 -12 -59
5 5 11 -1 15 -21 15 -22 0 -26 -3 -20 -17 3 -10 9 -31 12 -47 6 -26 8 -28 42
-22 20 3 43 6 53 6 9 0 21 13 27 31 18 52 15 59 -29 59 -22 0 -40 -4 -40 -10z
m39 -54 c-11 -10 -69 -17 -69 -7 0 5 15 11 33 13 32 3 44 1 36 -6z"/>
<path d="M350 1290 c0 -13 -8 -24 -20 -27 -47 -12 -7 -33 48 -25 33 4 41 15
20 29 -7 4 -13 15 -13 23 0 8 -8 16 -17 18 -13 2 -18 -3 -18 -18z"/>
<path d="M145 1273 l-30 -4 -2 -93 c-1 -59 -8 -108 -17 -131 -9 -21 -14 -41
-10 -44 9 -10 33 30 40 66 3 18 10 30 16 27 5 -3 16 2 23 12 14 18 14 18 15
-6 0 -42 -11 -69 -26 -63 -20 8 -17 -11 5 -31 26 -23 41 -13 41 27 0 31 2 32
40 33 34 1 38 -1 30 -15 -4 -9 -20 -23 -34 -31 -32 -17 -34 -34 -3 -25 28 9
65 43 73 67 4 15 16 18 65 18 32 0 59 4 59 9 0 15 -22 19 -72 13 -32 -3 -48
-1 -48 7 0 6 11 11 24 11 18 0 27 8 35 31 18 52 15 59 -29 59 -44 0 -56 -20
-12 -21 24 0 25 -1 7 -9 -34 -15 -65 -12 -59 5 5 11 -1 15 -21 15 -22 0 -26
-3 -20 -17 3 -10 9 -30 12 -45 3 -16 12 -28 19 -28 8 0 14 -4 14 -10 0 -5 -18
-10 -40 -10 l-40 0 0 58 c0 31 4 62 8 67 9 12 52 15 52 3 0 -4 5 -8 10 -8 6 0
10 16 10 35 0 29 -4 35 -21 35 -15 0 -19 -5 -15 -15 3 -10 -1 -15 -13 -15 -10
0 -21 7 -25 15 -3 8 -11 14 -18 13 -7 0 -26 -3 -43 -5z m35 -52 c0 -24 -3 -28
-20 -24 -31 8 -25 53 7 53 8 0 13 -12 13 -29z m-14 -61 c19 0 18 -16 -2 -24
-23 -9 -24 -8 -23 22 0 15 3 21 6 15 2 -7 11 -13 19 -13z m173 -14 c-11 -10
-69 -17 -69 -7 0 5 15 11 33 13 32 3 44 1 36 -6z"/>
<path d="M350 840 c0 -13 -8 -24 -20 -27 -47 -12 -7 -33 48 -25 33 4 41 15 20
29 -7 4 -13 15 -13 23 0 8 -8 16 -17 18 -13 2 -18 -3 -18 -18z"/>
<path d="M145 823 l-30 -4 -2 -93 c-1 -59 -8 -108 -17 -131 -9 -21 -14 -41
-10 -44 9 -10 33 30 40 66 3 18 10 30 16 27 5 -3 16 2 23 12 14 18 14 18 15
-6 0 -42 -11 -69 -26 -63 -20 8 -17 -11 5 -31 26 -23 41 -13 41 27 0 31 2 32
40 33 34 1 38 -1 30 -15 -4 -9 -20 -23 -34 -31 -32 -17 -34 -34 -3 -25 28 9
65 43 73 67 4 15 16 18 65 18 32 0 59 4 59 9 0 15 -22 19 -72 13 -32 -3 -48
-1 -48 7 0 6 11 11 24 11 18 0 27 8 35 31 18 52 15 59 -29 59 -44 0 -56 -20
-12 -21 24 0 25 -1 7 -9 -34 -15 -65 -12 -59 5 5 11 -1 15 -21 15 -22 0 -26
-3 -20 -17 3 -10 9 -30 12 -45 3 -16 12 -28 19 -28 8 0 14 -4 14 -10 0 -5 -18
-10 -40 -10 l-40 0 0 58 c0 31 4 62 8 67 9 12 52 15 52 3 0 -4 5 -8 10 -8 6 0
10 16 10 35 0 29 -4 35 -21 35 -15 0 -19 -5 -15 -15 3 -10 -1 -15 -13 -15 -10
0 -21 7 -25 15 -3 8 -11 14 -18 13 -7 0 -26 -3 -43 -5z m35 -52 c0 -24 -3 -28
-20 -24 -31 8 -25 53 7 53 8 0 13 -12 13 -29z m-14 -61 c19 0 18 -16 -2 -24
-23 -9 -24 -8 -23 22 0 15 3 21 6 15 2 -7 11 -13 19 -13z m173 -14 c-11 -10
-69 -17 -69 -7 0 5 15 11 33 13 32 3 44 1 36 -6z"/>
<path d="M330 601 c0 -16 51 -71 66 -71 23 0 16 37 -12 59 -28 22 -54 28 -54
12z"/>
</g>
</svg>
