<?xml version="1.0" standalone="no"?>
<!DOCTYPE svg PUBLIC "-//W3C//DTD SVG 20010904//EN"
 "http://www.w3.org/TR/2001/REC-SVG-20010904/DTD/svg10.dtd">
<svg version="1.0" xmlns="http://www.w3.org/2000/svg"
 width="50.000000pt" height="725.000000pt" viewBox="0 0 50.000000 725.000000"
 preserveAspectRatio="xMidYMid meet">
<metadata>
Created by potrace 1.16, written by Peter Selinger 2001-2019
</metadata>
<g transform="translate(0.000000,725.000000) scale(0.100000,-0.100000)"
fill="#000000" stroke="none">
<path d="M118 7058 c4 -50 -8 -141 -24 -182 -5 -14 -3 -17 7 -14 21 7 35 62
43 161 7 81 6 87 -12 87 -16 0 -18 -6 -14 -52z"/>
<path d="M150 6663 l-35 -4 0 -87 c-1 -48 -6 -102 -13 -121 -14 -40 -7 -55 13
-27 14 18 18 39 30 159 5 48 10 57 26 57 17 0 19 -7 19 -59 0 -90 -11 -151
-26 -151 -18 0 -18 -14 1 -30 35 -29 43 -6 47 127 3 116 -1 147 -22 141 -3 -1
-21 -3 -40 -5z"/>
<path d="M149 6213 l-36 -4 5 -52 c4 -49 -8 -140 -24 -181 -5 -14 -3 -17 7
-14 20 6 38 64 39 123 0 39 3 46 11 33 5 -10 17 -18 26 -18 13 0 15 -8 9 -46
-3 -26 -6 -53 -6 -60 0 -8 -7 -14 -15 -14 -19 0 -19 -14 0 -30 35 -29 43 -6
47 127 3 116 -1 147 -22 141 -3 -1 -21 -3 -41 -5z m41 -52 c0 -24 -3 -28 -20
-24 -13 3 -20 14 -20 29 0 17 6 24 20 24 15 0 20 -7 20 -29z"/>
<path d="M149 5763 l-36 -4 5 -52 c4 -49 -8 -140 -24 -181 -5 -14 -3 -17 7
-14 8 2 19 19 25 37 6 18 22 38 38 46 25 13 27 13 22 -1 -3 -9 -6 -27 -6 -40
0 -15 -6 -24 -15 -24 -19 0 -19 -14 0 -30 35 -29 43 -6 47 127 3 116 -1 147
-22 141 -3 -1 -21 -3 -41 -5z m41 -52 c0 -24 -3 -28 -20 -24 -13 3 -20 14 -20
29 0 17 6 24 20 24 15 0 20 -7 20 -29z m-13 -61 c13 0 13 -3 3 -15 -22 -26
-40 -18 -40 18 1 26 2 29 11 15 5 -10 17 -18 26 -18z"/>
<path d="M242 5328 c6 -16 36 -34 44 -26 3 4 4 14 1 23 -7 17 -51 21 -45 3z"/>
<path d="M149 5313 l-36 -4 5 -52 c4 -49 -8 -140 -24 -181 -5 -14 -3 -17 7
-14 8 2 19 19 25 37 6 18 22 38 38 46 25 13 27 13 22 -1 -3 -9 -6 -27 -6 -40
0 -15 -6 -24 -15 -24 -19 0 -19 -14 0 -30 35 -29 43 -6 47 127 3 116 -1 147
-22 141 -3 -1 -21 -3 -41 -5z m41 -52 c0 -24 -3 -28 -20 -24 -13 3 -20 14 -20
29 0 17 6 24 20 24 15 0 20 -7 20 -29z m-13 -61 c13 0 13 -3 3 -15 -22 -26
-40 -18 -40 18 1 26 2 29 11 15 5 -10 17 -18 26 -18z"/>
<path d="M331 4884 c-16 -36 -6 -42 24 -14 30 28 32 40 7 40 -11 0 -24 -12
-31 -26z"/>
<path d="M242 4878 c6 -16 36 -34 44 -26 3 4 4 14 1 23 -7 17 -51 21 -45 3z"/>
<path d="M149 4863 l-36 -4 5 -52 c4 -49 -8 -140 -24 -181 -5 -14 -3 -17 7
-14 8 2 19 19 25 37 6 18 22 38 38 46 25 13 27 13 22 -1 -3 -9 -6 -27 -6 -40
0 -15 -6 -24 -15 -24 -19 0 -19 -14 0 -30 35 -29 43 -6 47 127 3 116 -1 147
-22 141 -3 -1 -21 -3 -41 -5z m41 -52 c0 -24 -3 -28 -20 -24 -13 3 -20 14 -20
29 0 17 6 24 20 24 15 0 20 -7 20 -29z m-13 -61 c13 0 13 -3 3 -15 -22 -26
-40 -18 -40 18 1 26 2 29 11 15 5 -10 17 -18 26 -18z"/>
<path d="M331 4434 c-16 -36 -6 -42 24 -14 30 28 32 40 7 40 -11 0 -24 -12
-31 -26z"/>
<path d="M242 4428 c6 -16 36 -34 44 -26 3 4 4 14 1 23 -7 17 -51 21 -45 3z"/>
<path d="M149 4413 l-36 -4 5 -52 c4 -49 -8 -140 -24 -181 -5 -14 -3 -17 7
-14 8 2 19 19 25 37 6 18 22 38 38 46 25 13 27 13 22 -1 -3 -9 -6 -27 -6 -40
0 -15 -6 -24 -15 -24 -19 0 -19 -14 0 -30 35 -29 43 -6 47 127 3 116 -1 147
-22 141 -3 -1 -21 -3 -41 -5z m41 -52 c0 -24 -3 -28 -20 -24 -13 3 -20 14 -20
29 0 17 6 24 20 24 15 0 20 -7 20 -29z m-13 -61 c13 0 13 -3 3 -15 -22 -26
-40 -18 -40 18 1 26 2 29 11 15 5 -10 17 -18 26 -18z"/>
<path d="M293 4387 c-52 -10 -73 -27 -33 -27 36 0 120 22 120 31 0 11 -16 10
-87 -4z"/>
<path d="M331 3984 c-16 -36 -6 -42 24 -14 30 28 32 40 7 40 -11 0 -24 -12
-31 -26z"/>
<path d="M242 3978 c6 -16 36 -34 44 -26 3 4 4 14 1 23 -7 17 -51 21 -45 3z"/>
<path d="M149 3963 l-36 -4 5 -52 c4 -49 -8 -140 -24 -181 -5 -14 -3 -17 7
-14 8 2 19 19 25 37 6 18 22 38 38 46 25 13 27 13 22 -1 -3 -9 -6 -27 -6 -40
0 -15 -6 -24 -15 -24 -19 0 -19 -14 0 -30 35 -29 43 -6 47 127 3 116 -1 147
-22 141 -3 -1 -21 -3 -41 -5z m41 -52 c0 -24 -3 -28 -20 -24 -13 3 -20 14 -20
29 0 17 6 24 20 24 15 0 20 -7 20 -29z m-13 -61 c13 0 13 -3 3 -15 -22 -26
-40 -18 -40 18 1 26 2 29 11 15 5 -10 17 -18 26 -18z"/>
<path d="M293 3937 c-52 -10 -73 -27 -33 -27 36 0 120 22 120 31 0 11 -16 10
-87 -4z"/>
<path d="M308 3903 c-34 -5 -37 -23 -4 -23 31 0 56 10 56 21 0 9 -4 9 -52 2z"/>
<path d="M250 3880 c0 -5 5 -10 10 -10 6 0 10 5 10 10 0 6 -4 10 -10 10 -5 0
-10 -4 -10 -10z"/>
<path d="M331 3534 c-16 -36 -6 -42 24 -14 30 28 32 40 7 40 -11 0 -24 -12
-31 -26z"/>
<path d="M242 3528 c6 -16 36 -34 44 -26 3 4 4 14 1 23 -7 17 -51 21 -45 3z"/>
<path d="M149 3513 l-36 -4 5 -52 c4 -49 -8 -140 -24 -181 -5 -14 -3 -17 7
-14 8 2 19 19 25 37 6 18 22 38 38 46 25 13 27 13 22 -1 -3 -9 -6 -27 -6 -40
0 -15 -6 -24 -15 -24 -19 0 -19 -14 0 -30 35 -29 43 -6 47 127 3 116 -1 147
-22 141 -3 -1 -21 -3 -41 -5z m41 -52 c0 -24 -3 -28 -20 -24 -13 3 -20 14 -20
29 0 17 6 24 20 24 15 0 20 -7 20 -29z m-13 -61 c13 0 13 -3 3 -15 -22 -26
-40 -18 -40 18 1 26 2 29 11 15 5 -10 17 -18 26 -18z"/>
<path d="M293 3487 c-54 -10 -72 -27 -29 -27 13 0 24 -6 23 -12 -1 -34 4 -48
18 -48 8 0 15 6 15 14 0 8 9 18 20 21 11 3 20 11 20 17 0 6 -9 8 -20 5 -11 -3
-20 -1 -20 3 0 5 14 11 30 15 32 7 42 26 13 24 -10 -1 -42 -6 -70 -12z"/>
<path d="M250 3430 c0 -5 5 -10 10 -10 6 0 10 5 10 10 0 6 -4 10 -10 10 -5 0
-10 -4 -10 -10z"/>
<path d="M331 3084 c-16 -36 -6 -42 24 -14 30 28 32 40 7 40 -11 0 -24 -12
-31 -26z"/>
<path d="M242 3078 c6 -16 36 -34 44 -26 3 4 4 14 1 23 -7 17 -51 21 -45 3z"/>
<path d="M149 3063 l-36 -4 5 -52 c4 -49 -8 -140 -24 -181 -5 -14 -3 -17 7
-14 8 2 19 19 25 37 6 18 22 38 38 46 25 13 27 13 22 -1 -3 -9 -6 -27 -6 -40
0 -15 -6 -24 -15 -24 -19 0 -19 -14 0 -30 35 -29 43 -6 47 127 3 116 -1 147
-22 141 -3 -1 -21 -3 -41 -5z m41 -52 c0 -24 -3 -28 -20 -24 -13 3 -20 14 -20
29 0 17 6 24 20 24 15 0 20 -7 20 -29z m-13 -61 c13 0 13 -3 3 -15 -22 -26
-40 -18 -40 18 1 26 2 29 11 15 5 -10 17 -18 26 -18z"/>
<path d="M293 3037 c-53 -10 -72 -27 -30 -27 17 0 22 -6 23 -25 2 -21 -4 -27
-27 -32 -16 -3 -29 -10 -29 -15 0 -10 37 -7 128 9 43 7 41 26 -3 21 -38 -4
-48 7 -15 17 11 3 20 11 20 17 0 6 -9 8 -20 5 -11 -3 -20 -1 -20 3 0 5 14 11
30 15 32 7 42 26 13 24 -10 -1 -42 -6 -70 -12z"/>
<path d="M250 2980 c0 -5 5 -10 10 -10 6 0 10 5 10 10 0 6 -4 10 -10 10 -5 0
-10 -4 -10 -10z"/>
<path d="M331 2634 c-16 -36 -6 -42 24 -14 30 28 32 40 7 40 -11 0 -24 -12
-31 -26z"/>
<path d="M242 2628 c6 -16 36 -34 44 -26 3 4 4 14 1 23 -7 17 -51 21 -45 3z"/>
<path d="M149 2613 l-36 -4 5 -52 c4 -49 -8 -140 -24 -181 -5 -14 -3 -17 7
-14 8 2 19 19 25 37 6 18 22 38 38 46 25 13 27 13 22 -1 -3 -9 -6 -27 -6 -40
0 -15 -6 -24 -15 -24 -19 0 -19 -14 0 -30 35 -29 43 -6 47 127 3 116 -1 147
-22 141 -3 -1 -21 -3 -41 -5z m41 -52 c0 -24 -3 -28 -20 -24 -13 3 -20 14 -20
29 0 17 6 24 20 24 15 0 20 -7 20 -29z m-13 -61 c13 0 13 -3 3 -15 -22 -26
-40 -18 -40 18 1 26 2 29 11 15 5 -10 17 -18 26 -18z"/>
<path d="M293 2587 c-53 -10 -72 -27 -30 -27 17 0 22 -6 23 -25 2 -21 -4 -27
-27 -32 -26 -5 -42 -23 -20 -23 5 0 13 -9 16 -20 10 -31 39 -26 31 5 -5 21 -3
25 18 25 40 0 86 12 86 22 0 6 -16 8 -35 6 -38 -4 -48 7 -15 17 11 3 20 11 20
17 0 6 -9 8 -20 5 -11 -3 -20 -1 -20 3 0 5 14 11 30 15 32 7 42 26 13 24 -10
-1 -42 -6 -70 -12z"/>
<path d="M250 2530 c0 -5 5 -10 10 -10 6 0 10 5 10 10 0 6 -4 10 -10 10 -5 0
-10 -4 -10 -10z"/>
<path d="M331 2184 c-16 -36 -6 -42 24 -14 30 28 32 40 7 40 -11 0 -24 -12
-31 -26z"/>
<path d="M242 2178 c6 -16 36 -34 44 -26 3 4 4 14 1 23 -7 17 -51 21 -45 3z"/>
<path d="M149 2163 l-36 -4 5 -52 c4 -49 -8 -140 -24 -181 -5 -14 -3 -17 7
-14 8 2 19 19 25 37 6 18 22 38 38 46 25 13 27 13 22 -1 -3 -9 -6 -27 -6 -40
0 -15 -6 -24 -15 -24 -19 0 -19 -14 0 -30 35 -29 43 -6 47 127 3 116 -1 147
-22 141 -3 -1 -21 -3 -41 -5z m41 -52 c0 -24 -3 -28 -20 -24 -13 3 -20 14 -20
29 0 17 6 24 20 24 15 0 20 -7 20 -29z m-13 -61 c13 0 13 -3 3 -15 -22 -26
-40 -18 -40 18 1 26 2 29 11 15 5 -10 17 -18 26 -18z"/>
<path d="M293 2137 c-53 -10 -72 -27 -30 -27 17 0 22 -6 23 -25 2 -21 -4 -27
-27 -32 -26 -5 -42 -23 -20 -23 5 0 13 -9 16 -20 10 -31 39 -26 31 5 -6 22 -3
25 19 25 18 0 25 -5 25 -20 0 -11 4 -20 9 -20 14 0 33 28 26 40 -3 5 1 10 9
10 9 0 16 5 16 11 0 7 -14 10 -35 7 -38 -4 -48 7 -15 17 11 3 20 11 20 17 0 6
-9 8 -20 5 -11 -3 -20 -1 -20 3 0 5 14 11 30 15 32 7 42 26 13 24 -10 -1 -42
-6 -70 -12z"/>
<path d="M250 2080 c0 -5 5 -10 10 -10 6 0 10 5 10 10 0 6 -4 10 -10 10 -5 0
-10 -4 -10 -10z"/>
<path d="M331 1734 c-16 -36 -6 -42 24 -14 30 28 32 40 7 40 -11 0 -24 -12
-31 -26z"/>
<path d="M242 1728 c6 -16 36 -34 44 -26 3 4 4 14 1 23 -7 17 -51 21 -45 3z"/>
<path d="M149 1713 l-36 -4 5 -52 c4 -49 -8 -140 -24 -181 -5 -14 -3 -17 7
-14 8 2 19 19 25 37 6 18 22 38 38 46 25 13 27 13 22 -1 -3 -9 -6 -27 -6 -40
0 -15 -6 -24 -15 -24 -19 0 -19 -14 0 -30 24 -20 45 -4 45 33 l0 35 75 11 c42
6 91 11 110 11 19 0 35 5 35 10 0 6 -15 10 -33 10 -26 0 -33 4 -33 20 0 11 6
20 13 20 7 0 13 5 13 11 0 7 -14 10 -35 7 -38 -4 -48 7 -15 17 11 3 20 11 20
17 0 6 -9 8 -20 5 -11 -3 -20 -1 -20 3 0 5 14 11 30 15 42 9 39 29 -2 21 -18
-4 -50 -9 -70 -13 -41 -6 -52 -23 -15 -23 17 0 22 -6 23 -25 2 -21 -4 -27 -27
-32 -33 -6 -35 -9 -14 -29 22 -23 18 -34 -11 -34 l-27 0 5 84 c5 69 3 86 -9
90 -8 3 -15 5 -16 4 -1 -1 -18 -3 -38 -5z m41 -52 c0 -24 -3 -28 -20 -24 -13
3 -20 14 -20 29 0 17 6 24 20 24 15 0 20 -7 20 -29z m-13 -61 c13 0 13 -3 3
-15 -22 -26 -40 -18 -40 18 1 26 2 29 11 15 5 -10 17 -18 26 -18z m153 -25 c0
-21 -30 -31 -41 -14 -14 23 -11 29 16 29 16 0 25 -6 25 -15z"/>
<path d="M250 1630 c0 -5 5 -10 10 -10 6 0 10 5 10 10 0 6 -4 10 -10 10 -5 0
-10 -4 -10 -10z"/>
<path d="M331 1284 c-16 -36 -6 -42 24 -14 30 28 32 40 7 40 -11 0 -24 -12
-31 -26z"/>
<path d="M242 1278 c6 -16 36 -34 44 -26 3 4 4 14 1 23 -7 17 -51 21 -45 3z"/>
<path d="M149 1263 l-36 -4 5 -52 c4 -49 -8 -140 -24 -181 -5 -14 -3 -17 7
-14 8 2 19 19 25 37 6 18 22 38 38 46 25 13 27 13 22 -1 -3 -9 -6 -27 -6 -40
0 -15 -6 -24 -15 -24 -19 0 -19 -14 0 -30 24 -20 45 -4 45 33 l0 35 75 11 c42
6 91 11 110 11 19 0 35 5 35 10 0 6 -15 10 -33 10 -26 0 -33 4 -33 20 0 11 6
20 13 20 7 0 13 5 13 11 0 7 -14 10 -35 7 -38 -4 -48 7 -15 17 11 3 20 11 20
17 0 6 -9 8 -20 5 -11 -3 -20 -1 -20 3 0 5 14 11 30 15 42 9 39 29 -2 21 -18
-4 -50 -9 -70 -13 -41 -6 -52 -23 -15 -23 17 0 22 -6 23 -25 2 -21 -4 -27 -27
-32 -33 -6 -35 -9 -14 -29 22 -23 18 -34 -11 -34 l-27 0 5 84 c5 69 3 86 -9
90 -8 3 -15 5 -16 4 -1 -1 -18 -3 -38 -5z m41 -52 c0 -24 -3 -28 -20 -24 -13
3 -20 14 -20 29 0 17 6 24 20 24 15 0 20 -7 20 -29z m-13 -61 c13 0 13 -3 3
-15 -22 -26 -40 -18 -40 18 1 26 2 29 11 15 5 -10 17 -18 26 -18z m153 -25 c0
-21 -30 -31 -41 -14 -14 23 -11 29 16 29 16 0 25 -6 25 -15z"/>
<path d="M250 1180 c0 -5 5 -10 10 -10 6 0 10 5 10 10 0 6 -4 10 -10 10 -5 0
-10 -4 -10 -10z"/>
<path d="M244 1038 c3 -13 6 -31 6 -40 0 -10 7 -18 16 -18 11 0 14 5 10 16 -3
9 -6 27 -6 40 0 15 -6 24 -16 24 -12 0 -15 -6 -10 -22z"/>
<path d="M331 834 c-16 -36 -6 -42 24 -14 30 28 32 40 7 40 -11 0 -24 -12 -31
-26z"/>
<path d="M242 828 c6 -16 36 -34 44 -26 3 4 4 14 1 23 -7 17 -51 21 -45 3z"/>
<path d="M149 813 l-36 -4 5 -52 c4 -49 -8 -140 -24 -181 -5 -14 -3 -17 7 -14
8 2 19 19 25 37 6 18 22 38 38 46 25 13 27 13 22 -1 -3 -9 -6 -27 -6 -40 0
-15 -6 -24 -15 -24 -19 0 -19 -14 0 -30 24 -20 45 -4 45 33 l0 35 75 11 c42 6
91 11 110 11 19 0 35 5 35 10 0 6 -15 10 -33 10 -26 0 -33 4 -33 20 0 11 6 20
13 20 7 0 13 5 13 11 0 7 -14 10 -35 7 -38 -4 -48 7 -15 17 11 3 20 11 20 17
0 6 -9 8 -20 5 -11 -3 -20 -1 -20 3 0 5 14 11 30 15 42 9 39 29 -2 21 -18 -4
-50 -9 -70 -13 -41 -6 -52 -23 -15 -23 17 0 22 -6 23 -25 2 -21 -4 -27 -27
-32 -33 -6 -35 -9 -14 -29 22 -23 18 -34 -11 -34 l-27 0 5 84 c5 69 3 86 -9
90 -8 3 -15 5 -16 4 -1 -1 -18 -3 -38 -5z m41 -52 c0 -24 -3 -28 -20 -24 -13
3 -20 14 -20 29 0 17 6 24 20 24 15 0 20 -7 20 -29z m-13 -61 c13 0 13 -3 3
-15 -22 -26 -40 -18 -40 18 1 26 2 29 11 15 5 -10 17 -18 26 -18z m153 -25 c0
-21 -30 -31 -41 -14 -14 23 -11 29 16 29 16 0 25 -6 25 -15z"/>
<path d="M250 730 c0 -5 5 -10 10 -10 6 0 10 5 10 10 0 6 -4 10 -10 10 -5 0
-10 -4 -10 -10z"/>
<path d="M277 613 c-34 -4 -38 -7 -33 -26 3 -12 6 -30 6 -39 0 -10 7 -18 15
-18 11 0 13 8 9 30 -5 22 -3 30 7 30 8 0 24 3 37 6 19 5 22 2 22 -20 0 -33 15
-33 36 -1 28 43 11 49 -99 38z"/>
<path d="M331 384 c-16 -36 -6 -42 24 -14 30 28 32 40 7 40 -11 0 -24 -12 -31
-26z"/>
<path d="M242 378 c6 -16 36 -34 44 -26 3 4 4 14 1 23 -7 17 -51 21 -45 3z"/>
<path d="M149 363 l-36 -4 5 -52 c4 -49 -8 -140 -24 -181 -5 -14 -3 -17 7 -14
8 2 19 19 25 37 6 18 22 38 38 46 25 13 27 13 22 -1 -3 -9 -6 -27 -6 -40 0
-15 -6 -24 -15 -24 -19 0 -19 -14 0 -30 24 -20 45 -4 45 33 l0 35 75 11 c42 6
91 11 110 11 19 0 35 5 35 10 0 6 -15 10 -33 10 -26 0 -33 4 -33 20 0 11 6 20
13 20 7 0 13 5 13 11 0 7 -14 10 -35 7 -38 -4 -48 7 -15 17 11 3 20 11 20 17
0 6 -9 8 -20 5 -11 -3 -20 -1 -20 3 0 5 14 11 30 15 42 9 39 29 -2 21 -18 -4
-50 -9 -70 -13 -41 -6 -52 -23 -15 -23 17 0 22 -6 23 -25 2 -21 -4 -27 -27
-32 -33 -6 -35 -9 -14 -29 22 -23 18 -34 -11 -34 l-27 0 5 84 c5 69 3 86 -9
90 -8 3 -15 5 -16 4 -1 -1 -18 -3 -38 -5z m41 -52 c0 -24 -3 -28 -20 -24 -13
3 -20 14 -20 29 0 17 6 24 20 24 15 0 20 -7 20 -29z m-13 -61 c13 0 13 -3 3
-15 -22 -26 -40 -18 -40 18 1 26 2 29 11 15 5 -10 17 -18 26 -18z m153 -25 c0
-21 -30 -31 -41 -14 -14 23 -11 29 16 29 16 0 25 -6 25 -15z"/>
<path d="M250 280 c0 -5 5 -10 10 -10 6 0 10 5 10 10 0 6 -4 10 -10 10 -5 0
-10 -4 -10 -10z"/>
<path d="M277 163 c-38 -4 -38 -4 -31 -41 4 -20 7 -38 8 -38 0 -1 26 1 57 3
51 5 56 8 67 36 18 48 10 51 -101 40z m63 -33 c0 -16 -7 -20 -35 -20 -40 0
-50 26 -12 33 42 8 47 7 47 -13z"/>
</g>
</svg>
