<?xml version="1.0" standalone="no"?>
<!DOCTYPE svg PUBLIC "-//W3C//DTD SVG 20010904//EN"
 "http://www.w3.org/TR/2001/REC-SVG-20010904/DTD/svg10.dtd">
<svg version="1.0" xmlns="http://www.w3.org/2000/svg"
 width="50.000000pt" height="725.000000pt" viewBox="0 0 50.000000 725.000000"
 preserveAspectRatio="xMidYMid meet">
<metadata>
Created by potrace 1.16, written by Peter Selinger 2001-2019
</metadata>
<g transform="translate(0.000000,725.000000) scale(0.100000,-0.100000)"
fill="#000000" stroke="none">
<path d="M151 7101 c-19 -3 -36 -12 -39 -20 -4 -11 4 -12 34 -7 80 14 94 18
94 27 0 10 -35 10 -89 0z"/>
<path d="M151 6651 c-35 -6 -56 -31 -27 -31 23 0 20 -17 -9 -46 -44 -44 -28
-62 34 -37 41 16 58 40 21 30 -24 -6 -26 5 -5 23 8 7 15 18 15 25 0 8 14 16
30 20 17 4 30 11 30 16 0 10 -35 10 -89 0z"/>
<path d="M151 6201 c-35 -6 -56 -31 -27 -31 23 0 20 -17 -9 -46 -44 -44 -28
-62 34 -37 41 16 58 40 21 30 -24 -6 -26 5 -5 23 8 7 15 18 15 25 0 8 14 16
30 20 17 4 30 11 30 16 0 10 -35 10 -89 0z"/>
<path d="M190 6144 c0 -16 23 -44 35 -44 18 0 20 21 3 38 -12 12 -38 17 -38 6z"/>
<path d="M151 5751 c-35 -6 -56 -31 -27 -31 23 0 20 -17 -9 -46 -44 -44 -28
-62 34 -37 41 16 58 40 21 30 -24 -6 -26 5 -5 23 8 7 15 18 15 25 0 8 14 16
30 20 17 4 30 11 30 16 0 10 -35 10 -89 0z"/>
<path d="M190 5694 c0 -16 23 -44 35 -44 18 0 20 21 3 38 -12 12 -38 17 -38 6z"/>
<path d="M143 5599 c-31 -9 -46 -29 -22 -29 25 0 99 23 99 31 0 11 -35 10 -77
-2z"/>
<path d="M151 5301 c-35 -6 -56 -31 -27 -31 23 0 20 -17 -9 -46 -14 -14 -25
-29 -25 -34 0 -16 19 -21 40 -10 17 9 20 8 20 -9 0 -11 -9 -22 -20 -26 -28 -9
-25 -25 5 -25 18 0 25 -5 25 -20 0 -11 5 -20 10 -20 6 0 10 12 10 26 0 17 6
28 20 31 25 7 26 23 2 23 -15 0 -18 6 -14 32 4 28 2 30 -17 25 -24 -6 -28 5
-6 23 8 7 15 18 15 25 0 8 14 16 30 20 17 4 30 11 30 16 0 10 -35 10 -89 0z"/>
<path d="M190 5244 c0 -16 23 -44 35 -44 18 0 20 21 3 38 -12 12 -38 17 -38 6z"/>
<path d="M151 4851 c-35 -6 -56 -31 -27 -31 23 0 20 -17 -9 -46 -14 -14 -25
-29 -25 -34 0 -16 19 -21 40 -10 17 9 20 8 20 -9 0 -11 -9 -22 -20 -26 -28 -9
-25 -25 5 -25 15 0 25 -6 25 -14 0 -17 -22 -26 -61 -26 -31 0 -37 -11 -16 -28
9 -8 31 -4 80 15 65 26 93 52 42 39 -19 -5 -25 -2 -25 10 0 9 9 18 20 21 25 7
26 23 2 23 -15 0 -18 6 -14 32 4 28 2 30 -17 25 -24 -6 -28 5 -6 23 8 7 15 18
15 25 0 8 14 16 30 20 17 4 30 11 30 16 0 10 -35 10 -89 0z"/>
<path d="M190 4794 c0 -16 23 -44 35 -44 18 0 20 21 3 38 -12 12 -38 17 -38 6z"/>
<path d="M290 4423 c0 -16 -11 -55 -25 -87 -13 -33 -22 -62 -19 -65 11 -12 50
46 69 102 17 51 18 59 5 67 -24 15 -30 12 -30 -17z"/>
<path d="M151 4401 c-35 -6 -56 -31 -27 -31 23 0 20 -17 -9 -46 -14 -14 -25
-29 -25 -34 0 -16 19 -21 40 -10 17 9 20 8 20 -9 0 -11 -9 -22 -20 -26 -28 -9
-25 -25 5 -25 15 0 25 -6 25 -14 0 -17 -22 -26 -61 -26 -31 0 -37 -11 -16 -28
9 -8 31 -4 80 15 65 26 93 52 42 39 -19 -5 -25 -2 -25 10 0 9 9 18 20 21 25 7
26 23 2 23 -15 0 -18 6 -14 32 4 28 2 30 -17 25 -24 -6 -28 5 -6 23 8 7 15 18
15 25 0 8 14 16 30 20 17 4 30 11 30 16 0 10 -35 10 -89 0z"/>
<path d="M190 4344 c0 -16 23 -44 35 -44 18 0 20 21 3 38 -12 12 -38 17 -38 6z"/>
<path d="M290 3973 c0 -16 -11 -55 -25 -87 -13 -33 -22 -62 -19 -65 3 -4 18 9
33 27 33 38 66 44 56 10 -12 -38 -44 -86 -77 -113 -39 -33 -27 -45 20 -20 28
15 45 36 70 88 39 78 37 102 -9 93 -26 -5 -30 -3 -25 10 17 43 18 67 5 75 -23
14 -29 10 -29 -18z"/>
<path d="M151 3951 c-35 -6 -56 -31 -27 -31 23 0 20 -17 -9 -46 -14 -14 -25
-29 -25 -34 0 -16 19 -21 40 -10 17 9 20 8 20 -9 0 -11 -9 -22 -20 -26 -28 -9
-25 -25 5 -25 15 0 25 -6 25 -14 0 -17 -22 -26 -61 -26 -31 0 -37 -11 -16 -28
9 -8 31 -4 80 15 65 26 93 52 42 39 -19 -5 -25 -2 -25 10 0 9 9 18 20 21 25 7
26 23 2 23 -15 0 -18 6 -14 32 4 28 2 30 -17 25 -24 -6 -28 5 -6 23 8 7 15 18
15 25 0 8 14 16 30 20 17 4 30 11 30 16 0 10 -35 10 -89 0z"/>
<path d="M190 3894 c0 -16 23 -44 35 -44 18 0 20 21 3 38 -12 12 -38 17 -38 6z"/>
<path d="M290 3527 c0 -28 -29 -117 -39 -117 -3 0 -12 9 -19 20 -11 18 -42 28
-42 14 0 -16 23 -44 35 -44 8 0 15 -7 15 -16 0 -10 6 -14 14 -11 8 3 21 -4 30
-18 15 -22 14 -25 -20 -55 -45 -39 -35 -52 18 -23 l40 23 20 -25 c15 -19 29
-25 59 -25 50 0 50 12 -1 35 -62 28 -66 37 -40 99 25 63 20 81 -22 72 -25 -5
-29 -3 -24 10 17 43 18 67 5 75 -22 14 -29 11 -29 -14z m50 -101 c0 -1 -5 -17
-11 -35 -9 -25 -14 -29 -25 -20 -15 12 -19 41 -7 52 6 7 43 10 43 3z"/>
<path d="M151 3501 c-35 -6 -56 -31 -27 -31 23 0 20 -17 -9 -46 -14 -14 -25
-29 -25 -34 0 -16 19 -21 40 -10 17 9 20 8 20 -9 0 -11 -9 -22 -20 -26 -28 -9
-25 -25 5 -25 15 0 25 -6 25 -14 0 -17 -22 -26 -61 -26 -31 0 -37 -11 -16 -28
9 -8 31 -4 80 15 65 26 93 52 42 39 -19 -5 -25 -2 -25 10 0 9 9 18 20 21 25 7
26 23 2 23 -15 0 -18 6 -14 32 4 28 2 30 -17 25 -24 -6 -28 5 -6 23 8 7 15 18
15 25 0 8 14 16 30 20 17 4 30 11 30 16 0 10 -35 10 -89 0z"/>
</g>
</svg>
