<?xml version="1.0" standalone="no"?>
<!DOCTYPE svg PUBLIC "-//W3C//DTD SVG 20010904//EN"
 "http://www.w3.org/TR/2001/REC-SVG-20010904/DTD/svg10.dtd">
<svg version="1.0" xmlns="http://www.w3.org/2000/svg"
 width="50.000000pt" height="725.000000pt" viewBox="0 0 50.000000 725.000000"
 preserveAspectRatio="xMidYMid meet">
<metadata>
Created by potrace 1.16, written by Peter Selinger 2001-2019
</metadata>
<g transform="translate(0.000000,725.000000) scale(0.100000,-0.100000)"
fill="#000000" stroke="none">
<path d="M220 7154 c0 -22 -64 -108 -103 -138 -37 -29 -31 -44 10 -23 31 17
78 64 112 115 18 26 20 36 11 47 -16 20 -30 19 -30 -1z"/>
<path d="M220 6705 c0 -23 -63 -108 -103 -139 -17 -14 -29 -28 -25 -31 12 -12
67 25 109 74 l43 50 54 -60 c50 -54 58 -60 90 -57 47 4 51 21 8 36 -47 17
-122 77 -138 109 -15 31 -38 42 -38 18z"/>
<path d="M220 6255 c0 -23 -63 -108 -103 -139 -17 -14 -29 -28 -25 -31 12 -12
67 25 109 74 l43 50 54 -60 c50 -54 58 -60 90 -57 47 4 51 21 8 36 -47 17
-122 77 -138 109 -15 31 -38 42 -38 18z"/>
<path d="M228 6137 c-68 -15 -61 -31 10 -22 31 4 59 8 61 10 5 5 -9 25 -17 24
-4 -1 -28 -6 -54 -12z"/>
<path d="M220 5805 c0 -23 -63 -108 -103 -139 -17 -14 -29 -28 -25 -31 12 -12
67 25 109 74 l43 50 54 -60 c50 -54 58 -60 90 -57 47 4 51 21 8 36 -47 17
-122 77 -138 109 -15 31 -38 42 -38 18z"/>
<path d="M228 5687 c-68 -15 -61 -31 10 -22 31 4 59 8 61 10 5 5 -9 25 -17 24
-4 -1 -28 -6 -54 -12z"/>
<path d="M193 5627 c-104 -14 -93 -30 15 -22 108 8 142 14 142 26 0 11 -60 10
-157 -4z"/>
<path d="M220 5355 c0 -23 -63 -108 -103 -139 -17 -14 -29 -28 -25 -31 12 -12
67 25 109 74 l43 50 54 -60 c50 -54 58 -60 90 -57 47 4 51 21 8 36 -47 17
-122 77 -138 109 -15 31 -38 42 -38 18z"/>
<path d="M228 5237 c-48 -10 -65 -27 -28 -27 11 0 20 -6 20 -14 0 -15 -30 -26
-72 -26 -16 0 -28 -5 -28 -11 0 -8 17 -10 50 -7 48 5 49 4 44 -18 -8 -32 14
-31 26 1 7 18 17 25 37 25 39 0 73 11 73 22 0 6 -21 8 -48 6 -43 -3 -48 -1
-44 15 2 9 13 17 24 17 11 0 18 5 16 12 -6 16 -15 17 -70 5z"/>
<path d="M220 4905 c0 -23 -63 -108 -103 -139 -17 -14 -29 -28 -25 -31 12 -12
67 25 109 74 l43 50 54 -60 c50 -54 58 -60 90 -57 47 4 51 21 8 36 -47 17
-122 77 -138 109 -15 31 -38 42 -38 18z"/>
<path d="M228 4787 c-48 -10 -65 -27 -28 -27 11 0 20 -6 20 -14 0 -15 -30 -26
-72 -26 -16 0 -28 -5 -28 -11 0 -8 17 -10 50 -7 48 5 49 4 44 -18 -8 -32 14
-31 26 1 7 18 17 25 37 25 39 0 73 11 73 22 0 6 -21 8 -48 6 -43 -3 -48 -1
-44 15 2 9 13 17 24 17 11 0 18 5 16 12 -6 16 -15 17 -70 5z"/>
<path d="M166 4633 c7 -39 19 -61 29 -51 12 11 -8 88 -22 88 -11 0 -12 -9 -7
-37z"/>
<path d="M220 4455 c0 -23 -63 -108 -103 -139 -17 -14 -29 -28 -25 -31 12 -12
67 25 109 74 l43 50 54 -60 c50 -54 58 -60 90 -57 47 4 51 21 8 36 -47 17
-122 77 -138 109 -15 31 -38 42 -38 18z"/>
<path d="M228 4337 c-48 -10 -65 -27 -28 -27 11 0 20 -6 20 -14 0 -15 -30 -26
-72 -26 -16 0 -28 -5 -28 -11 0 -8 17 -10 51 -7 41 4 49 2 45 -9 -4 -8 -6 -17
-6 -19 0 -2 -11 -4 -25 -4 -24 0 -26 -2 -19 -37 8 -45 12 -53 26 -53 6 0 8 13
4 34 -6 29 -3 34 16 40 13 3 35 6 49 6 23 0 25 -3 21 -30 -6 -41 22 -40 37 1
14 41 8 49 -40 49 -28 0 -39 4 -37 13 3 6 11 13 19 14 61 8 89 15 89 24 0 7
-19 10 -48 7 -43 -3 -48 -1 -44 15 2 9 13 17 24 17 11 0 18 5 16 12 -6 16 -15
17 -70 5z"/>
<path d="M220 4005 c0 -23 -63 -108 -103 -139 -17 -14 -29 -28 -25 -31 12 -12
67 25 109 74 l43 50 54 -60 c50 -54 58 -60 90 -57 47 4 51 21 8 36 -47 17
-122 77 -138 109 -15 31 -38 42 -38 18z"/>
<path d="M228 3887 c-48 -10 -65 -27 -28 -27 11 0 20 -6 20 -14 0 -15 -30 -26
-72 -26 -16 0 -28 -5 -28 -11 0 -8 17 -10 51 -7 41 4 49 2 45 -9 -4 -8 -6 -17
-6 -19 0 -2 -11 -4 -25 -4 -24 0 -26 -2 -19 -37 3 -21 10 -42 14 -46 4 -5 34
-5 67 -2 58 7 61 8 71 43 14 46 9 52 -39 52 -28 0 -39 4 -37 13 3 6 11 13 19
14 61 8 89 15 89 24 0 7 -19 10 -48 7 -43 -3 -48 -1 -44 15 2 9 13 17 24 17
11 0 18 5 16 12 -6 16 -15 17 -70 5z m55 -151 c-4 -20 -12 -25 -44 -28 -36 -3
-49 5 -49 32 0 10 24 17 66 19 28 1 31 -2 27 -23z"/>
</g>
</svg>
