<?xml version="1.0" standalone="no"?>
<!DOCTYPE svg PUBLIC "-//W3C//DTD SVG 20010904//EN"
 "http://www.w3.org/TR/2001/REC-SVG-20010904/DTD/svg10.dtd">
<svg version="1.0" xmlns="http://www.w3.org/2000/svg"
 width="50.000000pt" height="725.000000pt" viewBox="0 0 50.000000 725.000000"
 preserveAspectRatio="xMidYMid meet">
<metadata>
Created by potrace 1.16, written by Peter Selinger 2001-2019
</metadata>
<g transform="translate(0.000000,725.000000) scale(0.100000,-0.100000)"
fill="#000000" stroke="none">
<path d="M176 7124 c-9 -20 -14 -39 -11 -42 9 -9 55 40 55 60 0 31 -25 20 -44
-18z"/>
<path d="M177 6675 c-9 -19 -21 -35 -26 -35 -5 0 -10 -40 -13 -89 -3 -62 -9
-96 -22 -116 -19 -29 -15 -45 8 -26 22 18 34 60 41 142 5 64 11 81 31 100 26
24 32 59 11 59 -7 0 -21 -16 -30 -35z"/>
<path d="M177 6225 c-9 -19 -21 -35 -26 -35 -5 0 -10 -40 -13 -89 -3 -60 -9
-97 -21 -114 -20 -30 -21 -37 -7 -37 19 0 50 64 50 102 0 60 20 135 41 154 22
20 26 54 6 54 -7 0 -21 -16 -30 -35z"/>
<path d="M190 6181 c0 -5 7 -12 16 -15 13 -5 15 -20 13 -91 -3 -56 -9 -89 -17
-94 -16 -10 -5 -41 14 -41 20 0 22 10 27 138 l3 112 -28 0 c-15 0 -28 -4 -28
-9z"/>
<path d="M177 5775 c-9 -19 -21 -35 -26 -35 -5 0 -10 -40 -13 -89 -3 -60 -9
-97 -21 -114 -20 -30 -21 -37 -7 -37 20 0 50 65 50 110 0 25 5 52 10 60 6 10
10 11 10 3 0 -7 7 -13 15 -13 22 0 18 28 -4 35 -23 7 -18 35 10 61 22 20 25
54 6 54 -7 0 -21 -16 -30 -35z"/>
<path d="M190 5731 c0 -5 7 -12 16 -15 13 -5 15 -20 13 -91 -3 -56 -9 -89 -17
-94 -16 -10 -5 -41 14 -41 20 0 22 10 27 138 l3 112 -28 0 c-15 0 -28 -4 -28
-9z"/>
<path d="M177 5325 c-9 -19 -21 -35 -26 -35 -5 0 -10 -40 -13 -89 -3 -60 -9
-97 -21 -114 -20 -30 -21 -37 -7 -37 20 0 50 65 50 110 0 25 5 52 10 60 6 10
10 11 10 3 0 -7 7 -13 15 -13 22 0 18 28 -4 35 -23 7 -18 35 10 61 22 20 25
54 6 54 -7 0 -21 -16 -30 -35z"/>
<path d="M190 5281 c0 -5 7 -12 16 -15 13 -5 15 -20 13 -91 -3 -56 -9 -89 -17
-94 -16 -10 -5 -41 14 -41 20 0 22 10 27 138 l3 112 -28 0 c-15 0 -28 -4 -28
-9z"/>
<path d="M170 5155 c0 -14 21 -45 31 -45 18 0 5 45 -13 48 -10 2 -18 1 -18 -3z"/>
<path d="M177 4875 c-9 -19 -21 -35 -27 -35 -5 0 -10 -22 -10 -50 0 -47 -2
-50 -25 -50 -16 0 -25 -6 -25 -15 0 -9 9 -15 25 -15 23 0 25 -3 19 -27 -4 -16
-13 -38 -20 -50 -17 -27 -17 -33 -4 -33 16 0 50 62 50 93 0 17 5 27 14 27 8 0
22 3 32 7 15 6 16 1 12 -42 -3 -26 -11 -51 -17 -55 -15 -9 -3 -40 15 -40 20 0
22 11 27 138 l5 112 -29 0 c-31 0 -39 -14 -14 -24 9 -3 15 -18 15 -35 0 -23
-5 -30 -25 -33 -29 -6 -38 2 -24 22 6 10 9 11 9 3 0 -7 7 -13 15 -13 22 0 18
28 -4 35 -23 7 -18 35 10 61 22 20 25 54 6 54 -7 0 -21 -16 -30 -35z"/>
<path d="M170 4705 c0 -14 21 -45 31 -45 18 0 5 45 -13 48 -10 2 -18 1 -18 -3z"/>
<path d="M177 4425 c-9 -19 -21 -35 -27 -35 -5 0 -10 -22 -10 -50 0 -47 -2
-50 -25 -50 -16 0 -25 -6 -25 -15 0 -9 9 -15 25 -15 23 0 25 -3 19 -27 -4 -16
-13 -38 -20 -50 -17 -27 -17 -33 -4 -33 16 0 50 62 50 93 0 17 5 27 14 27 8 0
22 3 32 7 15 6 16 1 12 -42 -3 -26 -11 -51 -17 -55 -15 -9 -3 -40 15 -40 20 0
22 11 27 138 l5 112 -29 0 c-31 0 -39 -14 -14 -24 9 -3 15 -18 15 -35 0 -23
-5 -30 -25 -33 -29 -6 -38 2 -24 22 6 10 9 11 9 3 0 -7 7 -13 15 -13 22 0 18
28 -4 35 -23 7 -18 35 10 61 22 20 25 54 6 54 -7 0 -21 -16 -30 -35z"/>
<path d="M287 4388 c-15 -33 -25 -63 -22 -66 14 -15 92 99 80 118 -14 22 -31
7 -58 -52z"/>
<path d="M170 4255 c0 -14 21 -45 31 -45 18 0 5 45 -13 48 -10 2 -18 1 -18 -3z"/>
<path d="M177 3975 c-9 -19 -21 -35 -27 -35 -5 0 -10 -22 -10 -50 0 -47 -2
-50 -25 -50 -16 0 -25 -6 -25 -15 0 -9 9 -15 25 -15 23 0 25 -3 19 -27 -4 -16
-13 -38 -20 -50 -17 -27 -17 -33 -4 -33 16 0 50 62 50 93 0 17 5 27 14 27 8 0
22 3 32 7 15 6 16 1 12 -42 -3 -26 -11 -51 -17 -55 -15 -9 -3 -40 15 -40 20 0
22 11 27 138 l5 112 -29 0 c-31 0 -39 -14 -14 -24 9 -3 15 -18 15 -35 0 -23
-5 -30 -25 -33 -29 -6 -38 2 -24 22 6 10 9 11 9 3 0 -7 7 -13 15 -13 22 0 18
28 -4 35 -23 7 -18 35 10 61 22 20 25 54 6 54 -7 0 -21 -16 -30 -35z"/>
<path d="M287 3938 c-27 -61 -29 -80 -5 -60 7 5 41 16 76 23 74 15 83 34 13
27 l-50 -5 15 29 c8 16 12 33 9 38 -14 22 -31 6 -58 -52z"/>
<path d="M170 3805 c0 -14 21 -45 31 -45 18 0 5 45 -13 48 -10 2 -18 1 -18 -3z"/>
<path d="M177 3525 c-9 -19 -21 -35 -27 -35 -5 0 -10 -22 -10 -50 0 -47 -2
-50 -25 -50 -16 0 -25 -6 -25 -15 0 -9 9 -15 25 -15 23 0 25 -3 19 -27 -4 -16
-13 -38 -20 -50 -17 -27 -17 -33 -4 -33 16 0 50 62 50 93 0 17 5 27 14 27 8 0
22 3 32 7 15 6 16 1 12 -42 -3 -26 -11 -51 -17 -55 -15 -9 -3 -40 15 -40 20 0
22 11 27 138 l5 112 -29 0 c-31 0 -39 -14 -14 -24 9 -3 15 -18 15 -35 0 -23
-5 -30 -25 -33 -29 -6 -38 2 -24 22 6 10 9 11 9 3 0 -7 7 -13 15 -13 22 0 18
28 -4 35 -23 7 -18 35 10 61 22 20 25 54 6 54 -7 0 -21 -16 -30 -35z"/>
<path d="M287 3488 c-28 -63 -29 -80 -2 -58 31 25 39 -2 28 -92 -10 -87 -8
-111 11 -105 7 2 13 43 16 106 5 108 11 121 58 121 12 0 22 5 22 11 0 8 -17
10 -49 7 l-50 -5 15 29 c8 16 12 33 9 38 -14 22 -31 6 -58 -52z"/>
<path d="M170 3355 c0 -14 21 -45 31 -45 18 0 5 45 -13 48 -10 2 -18 1 -18 -3z"/>
<path d="M177 3075 c-9 -19 -21 -35 -27 -35 -5 0 -10 -22 -10 -50 0 -47 -2
-50 -25 -50 -16 0 -25 -6 -25 -15 0 -9 9 -15 25 -15 23 0 25 -3 19 -27 -4 -16
-13 -38 -20 -50 -17 -27 -17 -33 -4 -33 16 0 50 62 50 93 0 17 5 27 14 27 8 0
22 3 32 7 15 6 16 1 12 -42 -3 -26 -11 -51 -17 -55 -15 -9 -3 -40 15 -40 20 0
22 11 27 138 l5 112 -29 0 c-31 0 -39 -14 -14 -24 9 -3 15 -18 15 -35 0 -23
-5 -30 -25 -33 -29 -6 -38 2 -24 22 6 10 9 11 9 3 0 -7 7 -13 15 -13 22 0 18
28 -4 35 -23 7 -18 35 10 61 22 20 25 54 6 54 -7 0 -21 -16 -30 -35z"/>
<path d="M287 3038 c-28 -63 -29 -80 -2 -58 31 25 39 -2 28 -92 -10 -87 -8
-111 11 -105 6 2 12 35 14 80 l3 77 30 0 c20 0 29 4 26 13 -2 6 -16 11 -31 9
-14 -1 -26 2 -26 7 0 18 31 41 56 41 13 0 24 5 24 11 0 8 -17 10 -49 7 l-50
-5 15 29 c8 16 12 33 9 38 -14 22 -31 6 -58 -52z"/>
<path d="M170 2905 c0 -14 21 -45 31 -45 18 0 5 45 -13 48 -10 2 -18 1 -18 -3z"/>
<path d="M177 2625 c-9 -19 -21 -35 -27 -35 -5 0 -10 -22 -10 -50 0 -47 -2
-50 -25 -50 -16 0 -25 -6 -25 -15 0 -9 9 -15 25 -15 23 0 25 -3 19 -27 -4 -16
-13 -38 -20 -50 -17 -27 -17 -33 -4 -33 16 0 50 62 50 93 0 17 5 27 14 27 8 0
22 3 32 7 15 6 16 1 12 -42 -3 -26 -11 -51 -17 -55 -15 -9 -3 -40 15 -40 20 0
22 11 27 138 l5 112 -29 0 c-31 0 -39 -14 -14 -24 9 -3 15 -18 15 -35 0 -23
-5 -30 -25 -33 -29 -6 -38 2 -24 22 6 10 9 11 9 3 0 -7 7 -13 15 -13 22 0 18
28 -4 35 -23 7 -18 35 10 61 22 20 25 54 6 54 -7 0 -21 -16 -30 -35z"/>
<path d="M287 2588 c-28 -63 -29 -80 -2 -58 31 25 39 -2 28 -92 -5 -46 -8 -89
-5 -96 10 -27 27 -4 30 40 3 44 5 46 38 52 45 9 45 29 -1 24 -29 -3 -35 -1
-35 14 0 13 8 18 31 18 20 0 29 4 26 13 -2 6 -16 11 -31 9 -14 -1 -26 2 -26 7
0 18 31 41 56 41 13 0 24 5 24 11 0 8 -17 10 -49 7 l-50 -5 15 29 c8 16 12 33
9 38 -14 22 -31 6 -58 -52z"/>
<path d="M170 2455 c0 -14 21 -45 31 -45 18 0 5 45 -13 48 -10 2 -18 1 -18 -3z"/>
</g>
</svg>
