<?xml version="1.0" standalone="no"?>
<!DOCTYPE svg PUBLIC "-//W3C//DTD SVG 20010904//EN"
 "http://www.w3.org/TR/2001/REC-SVG-20010904/DTD/svg10.dtd">
<svg version="1.0" xmlns="http://www.w3.org/2000/svg"
 width="50.000000pt" height="725.000000pt" viewBox="0 0 50.000000 725.000000"
 preserveAspectRatio="xMidYMid meet">
<metadata>
Created by potrace 1.16, written by Peter Selinger 2001-2019
</metadata>
<g transform="translate(0.000000,725.000000) scale(0.100000,-0.100000)"
fill="#000000" stroke="none">
<path d="M180 7134 c-12 -31 -13 -44 -1 -44 10 0 41 45 41 60 0 21 -31 9 -40
-16z"/>
<path d="M180 6684 c-12 -31 -13 -44 -1 -44 10 0 41 45 41 60 0 21 -31 9 -40
-16z"/>
<path d="M134 6558 c0 -58 -5 -93 -17 -115 -20 -37 -21 -43 -6 -43 36 0 74
231 39 238 -12 2 -15 -12 -16 -80z"/>
<path d="M180 6234 c-6 -14 -10 -30 -10 -35 0 -5 -8 -9 -17 -9 -16 0 -18 -11
-19 -83 0 -57 -5 -92 -17 -114 -20 -37 -21 -43 -7 -43 20 0 44 68 49 140 5 68
8 75 29 78 21 3 22 1 22 -92 0 -80 -3 -97 -17 -105 -17 -9 -17 -11 -1 -28 11
-11 21 -14 27 -8 5 6 11 66 13 135 3 124 3 125 -20 124 -21 -1 -21 1 -7 22 19
30 19 44 0 44 -9 0 -20 -12 -25 -26z"/>
<path d="M180 5784 c-6 -14 -10 -30 -10 -35 0 -5 -8 -9 -17 -9 -16 0 -18 -11
-19 -83 0 -57 -5 -92 -17 -114 -20 -37 -21 -43 -7 -43 20 0 44 68 49 140 5 68
8 75 29 78 21 3 22 1 22 -92 0 -80 -3 -97 -17 -105 -17 -9 -17 -11 -1 -28 11
-11 21 -14 27 -8 5 6 11 66 13 135 3 124 3 125 -20 124 -21 -1 -21 1 -7 22 19
30 19 44 0 44 -9 0 -20 -12 -25 -26z"/>
<path d="M174 5674 c3 -9 6 -18 6 -20 0 -2 5 -4 10 -4 6 0 10 9 10 20 0 12 -7
20 -16 20 -11 0 -14 -5 -10 -16z"/>
<path d="M180 5334 c-6 -14 -10 -30 -10 -35 0 -5 -8 -9 -17 -9 -16 0 -18 -11
-19 -83 0 -57 -5 -92 -17 -114 -20 -37 -21 -43 -7 -43 20 0 44 68 49 140 5 68
8 75 29 78 21 3 22 1 22 -92 0 -80 -3 -97 -17 -105 -17 -9 -17 -11 -1 -28 11
-11 21 -14 27 -8 5 6 11 66 13 135 3 124 3 125 -20 124 -21 -1 -21 1 -7 22 19
30 19 44 0 44 -9 0 -20 -12 -25 -26z"/>
<path d="M174 5224 c3 -9 6 -18 6 -20 0 -2 5 -4 10 -4 6 0 10 9 10 20 0 12 -7
20 -16 20 -11 0 -14 -5 -10 -16z"/>
<path d="M172 5144 c1 -9 9 -19 16 -22 9 -3 13 2 10 14 -1 9 -9 19 -16 22 -9
3 -13 -2 -10 -14z"/>
<path d="M180 4884 c-6 -14 -10 -30 -10 -35 0 -5 -8 -9 -18 -9 -15 0 -18 -9
-17 -52 0 -51 -1 -53 -28 -56 -33 -4 -31 -27 2 -26 26 1 28 -24 5 -67 -8 -17
-13 -34 -9 -37 10 -11 35 29 47 75 9 31 18 42 35 46 21 4 23 1 23 -44 0 -35
-5 -51 -17 -58 -17 -9 -17 -11 -1 -28 11 -11 21 -14 27 -8 5 6 11 66 13 135 3
124 3 125 -20 124 -21 -1 -21 1 -7 22 19 30 19 44 0 44 -9 0 -20 -12 -25 -26z
m28 -101 c-2 -31 -7 -39 -25 -41 -20 -3 -23 1 -23 31 0 39 6 47 32 47 16 0 19
-6 16 -37z"/>
<path d="M174 4774 c3 -9 6 -18 6 -20 0 -2 5 -4 10 -4 6 0 10 9 10 20 0 12 -7
20 -16 20 -11 0 -14 -5 -10 -16z"/>
<path d="M172 4694 c1 -9 9 -19 16 -22 9 -3 13 2 10 14 -1 9 -9 19 -16 22 -9
3 -13 -2 -10 -14z"/>
<path d="M180 4434 c-6 -14 -10 -30 -10 -35 0 -5 -8 -9 -18 -9 -15 0 -18 -9
-17 -52 0 -51 -1 -53 -28 -56 -33 -4 -31 -27 2 -26 26 1 28 -24 5 -67 -8 -17
-13 -34 -9 -37 10 -11 35 29 47 75 9 31 18 42 35 46 21 4 23 1 23 -44 0 -35
-5 -51 -17 -58 -17 -9 -17 -11 -1 -28 11 -11 21 -14 27 -8 5 6 11 66 13 135 3
124 3 125 -20 124 -21 -1 -21 1 -7 22 19 30 19 44 0 44 -9 0 -20 -12 -25 -26z
m28 -101 c-2 -31 -7 -39 -25 -41 -20 -3 -23 1 -23 31 0 39 6 47 32 47 16 0 19
-6 16 -37z"/>
<path d="M174 4324 c3 -9 6 -18 6 -20 0 -2 5 -4 10 -4 6 0 10 9 10 20 0 12 -7
20 -16 20 -11 0 -14 -5 -10 -16z"/>
<path d="M314 4398 c3 -13 6 -26 6 -30 0 -5 7 -8 15 -8 20 0 20 46 -1 54 -24
9 -27 8 -20 -16z"/>
<path d="M172 4244 c1 -9 9 -19 16 -22 9 -3 13 2 10 14 -1 9 -9 19 -16 22 -9
3 -13 -2 -10 -14z"/>
<path d="M180 3984 c-6 -14 -10 -30 -10 -35 0 -5 -8 -9 -18 -9 -15 0 -18 -9
-17 -52 0 -51 -1 -53 -28 -56 -33 -4 -31 -27 2 -26 26 1 28 -24 5 -67 -8 -17
-13 -34 -9 -37 10 -11 35 29 47 75 9 31 18 42 35 46 21 4 23 1 23 -44 0 -35
-5 -51 -17 -58 -17 -9 -17 -11 -1 -28 11 -11 21 -14 27 -8 5 6 11 66 13 135 3
124 3 125 -20 124 -21 -1 -21 1 -7 22 19 30 19 44 0 44 -9 0 -20 -12 -25 -26z
m28 -101 c-2 -31 -7 -39 -25 -41 -20 -3 -23 1 -23 31 0 39 6 47 32 47 16 0 19
-6 16 -37z"/>
<path d="M174 3874 c3 -9 6 -18 6 -20 0 -2 5 -4 10 -4 6 0 10 9 10 20 0 12 -7
20 -16 20 -11 0 -14 -5 -10 -16z"/>
<path d="M315 3941 c6 -28 4 -30 -26 -33 -18 -2 -35 -9 -37 -17 -4 -10 1 -12
19 -8 13 4 54 10 92 13 64 7 83 16 54 27 -7 3 -25 3 -40 0 -22 -4 -27 -2 -27
15 0 17 -17 32 -37 32 -2 0 -2 -13 2 -29z"/>
<path d="M172 3794 c1 -9 9 -19 16 -22 9 -3 13 2 10 14 -1 9 -9 19 -16 22 -9
3 -13 -2 -10 -14z"/>
<path d="M180 3534 c-6 -14 -10 -30 -10 -35 0 -5 -8 -9 -18 -9 -15 0 -18 -9
-17 -52 0 -51 -1 -53 -28 -56 -33 -4 -31 -27 2 -26 26 1 28 -24 5 -67 -8 -17
-13 -34 -9 -37 10 -11 35 29 47 75 9 31 18 42 35 46 21 4 23 1 23 -44 0 -35
-5 -51 -17 -58 -17 -9 -17 -11 -1 -28 11 -11 21 -14 27 -8 5 6 11 66 13 135 3
124 3 125 -20 124 -21 -1 -21 1 -7 22 19 30 19 44 0 44 -9 0 -20 -12 -25 -26z
m28 -101 c-2 -31 -7 -39 -25 -41 -20 -3 -23 1 -23 31 0 39 6 47 32 47 16 0 19
-6 16 -37z"/>
<path d="M174 3424 c3 -9 6 -18 6 -20 0 -2 5 -4 10 -4 6 0 10 9 10 20 0 12 -7
20 -16 20 -11 0 -14 -5 -10 -16z"/>
<path d="M315 3491 c6 -28 4 -30 -26 -33 -18 -2 -35 -9 -37 -17 -3 -10 2 -12
22 -7 33 8 33 -4 0 -44 -31 -36 -23 -50 24 -43 32 5 46 23 17 23 -21 0 -19 13
5 35 11 10 20 24 20 32 0 9 14 13 45 13 25 0 45 4 45 9 0 13 -23 20 -53 14
-22 -4 -27 -2 -27 15 0 17 -17 32 -37 32 -2 0 -2 -13 2 -29z"/>
<path d="M172 3344 c1 -9 9 -19 16 -22 9 -3 13 2 10 14 -1 9 -9 19 -16 22 -9
3 -13 -2 -10 -14z"/>
<path d="M180 3084 c-6 -14 -10 -30 -10 -35 0 -5 -8 -9 -18 -9 -15 0 -18 -9
-17 -52 0 -51 -1 -53 -28 -56 -33 -4 -31 -27 2 -26 26 1 28 -24 5 -67 -8 -17
-13 -34 -9 -37 10 -11 35 29 47 75 9 31 18 42 35 46 21 4 23 1 23 -44 0 -35
-5 -51 -17 -58 -17 -9 -17 -11 -1 -28 11 -11 21 -14 27 -8 5 6 11 66 13 135 3
124 3 125 -20 124 -21 -1 -21 1 -7 22 19 30 19 44 0 44 -9 0 -20 -12 -25 -26z
m28 -101 c-2 -31 -7 -39 -25 -41 -20 -3 -23 1 -23 31 0 39 6 47 32 47 16 0 19
-6 16 -37z"/>
<path d="M174 2974 c3 -9 6 -18 6 -20 0 -2 5 -4 10 -4 6 0 10 9 10 20 0 12 -7
20 -16 20 -11 0 -14 -5 -10 -16z"/>
<path d="M315 3041 c6 -28 4 -30 -26 -33 -18 -2 -35 -9 -37 -17 -3 -10 2 -12
22 -7 33 8 33 -4 0 -43 -29 -35 -24 -54 12 -45 33 9 31 -11 -6 -38 -30 -22
-38 -42 -21 -53 13 -7 121 27 121 38 0 5 -16 6 -36 2 l-36 -6 42 50 c26 31 40
56 37 66 -9 22 -22 18 -35 -10 -7 -15 -20 -25 -32 -25 -25 0 -25 12 0 35 11
10 20 24 20 32 0 9 14 13 45 13 25 0 45 4 45 9 0 13 -23 20 -53 14 -22 -4 -27
-2 -27 15 0 17 -17 32 -37 32 -2 0 -2 -13 2 -29z"/>
<path d="M172 2894 c1 -9 9 -19 16 -22 9 -3 13 2 10 14 -1 9 -9 19 -16 22 -9
3 -13 -2 -10 -14z"/>
<path d="M180 2634 c-6 -14 -10 -30 -10 -35 0 -5 -8 -9 -18 -9 -15 0 -18 -9
-17 -52 0 -51 -1 -53 -28 -56 -33 -4 -31 -27 2 -26 26 1 28 -24 5 -67 -8 -17
-13 -34 -9 -37 10 -11 35 29 47 75 9 31 18 42 35 46 21 4 23 1 23 -44 0 -35
-5 -51 -17 -58 -17 -9 -17 -11 -1 -28 11 -11 21 -14 27 -8 5 6 11 66 13 135 3
124 3 125 -20 124 -21 -1 -21 1 -7 22 19 30 19 44 0 44 -9 0 -20 -12 -25 -26z
m28 -101 c-2 -31 -7 -39 -25 -41 -20 -3 -23 1 -23 31 0 39 6 47 32 47 16 0 19
-6 16 -37z"/>
<path d="M174 2524 c3 -9 6 -18 6 -20 0 -2 5 -4 10 -4 6 0 10 9 10 20 0 12 -7
20 -16 20 -11 0 -14 -5 -10 -16z"/>
<path d="M315 2591 c6 -28 4 -30 -26 -33 -18 -2 -35 -9 -37 -17 -3 -10 2 -12
22 -7 33 8 33 -4 0 -43 -29 -35 -24 -54 12 -45 33 9 31 -11 -6 -38 -30 -22
-38 -42 -20 -53 5 -3 33 2 61 11 49 16 53 16 65 0 7 -10 18 -15 24 -11 14 8 3
46 -18 63 -21 16 -35 15 -29 -2 4 -9 -3 -16 -16 -20 -39 -10 -39 -7 4 44 25
30 39 55 36 65 -9 22 -22 18 -35 -10 -7 -15 -20 -25 -32 -25 -25 0 -25 12 0
35 11 10 20 24 20 32 0 9 14 13 45 13 25 0 45 4 45 9 0 13 -23 20 -53 14 -22
-4 -27 -2 -27 15 0 17 -17 32 -37 32 -2 0 -2 -13 2 -29z"/>
<path d="M172 2444 c1 -9 9 -19 16 -22 9 -3 13 2 10 14 -1 9 -9 19 -16 22 -9
3 -13 -2 -10 -14z"/>
</g>
</svg>
