<?xml version="1.0" standalone="no"?>
<!DOCTYPE svg PUBLIC "-//W3C//DTD SVG 20010904//EN"
 "http://www.w3.org/TR/2001/REC-SVG-20010904/DTD/svg10.dtd">
<svg version="1.0" xmlns="http://www.w3.org/2000/svg"
 width="50.000000pt" height="725.000000pt" viewBox="0 0 50.000000 725.000000"
 preserveAspectRatio="xMidYMid meet">
<metadata>
Created by potrace 1.16, written by Peter Selinger 2001-2019
</metadata>
<g transform="translate(0.000000,725.000000) scale(0.100000,-0.100000)"
fill="#000000" stroke="none">
<path d="M155 7123 c-8 -20 -13 -39 -10 -42 7 -7 54 50 55 67 0 27 -31 10 -45
-25z"/>
<path d="M156 6675 c-8 -19 -21 -35 -28 -35 -10 0 -13 -22 -14 -83 -1 -51 -7
-96 -18 -121 -19 -45 -19 -46 -7 -46 22 0 51 87 51 152 0 56 4 70 30 106 33
47 37 62 15 62 -8 0 -21 -16 -29 -35z"/>
<path d="M156 6225 c-8 -19 -21 -35 -28 -35 -10 0 -13 -22 -14 -83 -1 -51 -7
-96 -18 -121 -19 -45 -19 -46 -7 -46 22 0 51 87 51 153 0 53 4 69 16 74 9 3
20 0 25 -8 11 -17 0 -182 -13 -190 -12 -8 1 -39 17 -39 21 0 23 8 26 140 3
123 3 124 -20 130 -21 5 -22 7 -7 19 20 17 21 41 1 41 -8 0 -21 -16 -29 -35z"/>
<path d="M156 5775 c-8 -19 -21 -35 -28 -35 -10 0 -13 -22 -14 -83 -1 -51 -7
-96 -18 -121 -19 -45 -19 -46 -7 -46 19 0 51 87 52 141 0 30 3 48 6 42 7 -18
33 -16 33 2 0 9 -10 20 -22 24 -21 8 -22 10 -4 16 11 5 21 3 27 -6 11 -17 0
-182 -13 -190 -12 -8 1 -39 17 -39 21 0 23 8 26 140 3 123 3 124 -20 130 -21
5 -22 7 -7 19 20 17 21 41 1 41 -8 0 -21 -16 -29 -35z"/>
<path d="M156 5325 c-8 -19 -21 -35 -28 -35 -10 0 -13 -22 -14 -83 -1 -51 -7
-96 -18 -121 -19 -45 -19 -46 -7 -46 19 0 51 87 52 141 0 30 3 48 6 42 7 -18
33 -16 33 2 0 9 -10 20 -22 24 -21 8 -22 10 -4 16 23 10 36 -9 36 -52 0 -41
-9 -63 -26 -63 -19 0 -18 -29 1 -36 17 -7 20 -41 4 -46 -14 -5 0 -38 16 -38
21 0 23 8 26 140 3 123 3 124 -20 130 -21 5 -22 7 -7 19 20 17 21 41 1 41 -8
0 -21 -16 -29 -35z"/>
<path d="M156 4875 c-8 -19 -21 -35 -29 -35 -10 0 -13 -13 -9 -55 4 -54 4 -55
-22 -55 -31 0 -35 -20 -6 -27 24 -6 25 -22 5 -70 -8 -20 -13 -38 -10 -41 9 -9
34 31 47 73 11 38 24 55 41 55 4 0 7 -4 7 -10 0 -5 -7 -10 -15 -10 -8 0 -15
-7 -15 -15 0 -9 7 -18 15 -21 17 -7 20 -41 4 -46 -14 -5 0 -38 16 -38 22 0 24
9 27 140 3 124 3 124 -21 130 -21 5 -22 7 -7 19 20 17 21 41 1 41 -8 0 -21
-16 -29 -35z m30 -80 c8 -34 -1 -55 -26 -55 -14 0 -20 6 -19 23 0 12 3 16 6
10 7 -19 33 -16 33 3 0 9 -9 18 -20 21 -22 6 -18 23 5 23 8 0 17 -11 21 -25z"/>
<path d="M156 4425 c-8 -19 -21 -35 -29 -35 -10 0 -13 -13 -9 -55 4 -54 4 -55
-22 -55 -31 0 -35 -20 -6 -27 24 -6 25 -22 5 -70 -8 -20 -13 -38 -10 -41 9 -9
34 31 47 73 11 38 24 55 41 55 4 0 7 -4 7 -10 0 -5 -7 -10 -15 -10 -8 0 -15
-7 -15 -15 0 -9 7 -18 15 -21 17 -7 20 -41 4 -46 -14 -5 0 -38 16 -38 22 0 24
9 27 140 3 124 3 124 -21 130 -21 5 -22 7 -7 19 20 17 21 41 1 41 -8 0 -21
-16 -29 -35z m30 -80 c8 -34 -1 -55 -26 -55 -14 0 -20 6 -19 23 0 12 3 16 6
10 7 -19 33 -16 33 3 0 9 -9 18 -20 21 -22 6 -18 23 5 23 8 0 17 -11 21 -25z"/>
<path d="M290 4452 c0 -5 -16 -34 -35 -67 -34 -56 -39 -75 -16 -60 12 7 91
120 91 129 0 4 -9 6 -20 6 -11 0 -20 -4 -20 -8z"/>
<path d="M156 3975 c-8 -19 -21 -35 -29 -35 -10 0 -13 -13 -9 -55 4 -54 4 -55
-22 -55 -31 0 -35 -20 -6 -27 24 -6 25 -22 5 -70 -8 -20 -13 -38 -10 -41 9 -9
34 31 47 73 11 38 24 55 41 55 4 0 7 -4 7 -10 0 -5 -7 -10 -15 -10 -8 0 -15
-7 -15 -15 0 -9 7 -18 15 -21 17 -7 20 -41 4 -46 -14 -5 0 -38 16 -38 22 0 24
9 27 140 3 124 3 124 -21 130 -21 5 -22 7 -7 19 20 17 21 41 1 41 -8 0 -21
-16 -29 -35z m30 -80 c8 -34 -1 -55 -26 -55 -14 0 -20 6 -19 23 0 12 3 16 6
10 7 -19 33 -16 33 3 0 9 -9 18 -20 21 -22 6 -18 23 5 23 8 0 17 -11 21 -25z"/>
<path d="M290 4002 c0 -5 -16 -34 -35 -67 -54 -88 -25 -85 37 5 l17 25 38 -43
c28 -31 46 -42 66 -42 30 0 36 16 9 24 -28 9 -99 80 -94 94 2 7 -5 12 -17 12
-12 0 -21 -4 -21 -8z"/>
<path d="M156 3525 c-8 -19 -21 -35 -29 -35 -10 0 -13 -13 -9 -55 4 -54 4 -55
-22 -55 -31 0 -35 -20 -6 -27 24 -6 25 -22 5 -70 -8 -20 -13 -38 -10 -41 9 -9
34 31 47 73 11 38 24 55 41 55 4 0 7 -4 7 -10 0 -5 -7 -10 -15 -10 -8 0 -15
-7 -15 -15 0 -9 7 -18 15 -21 17 -7 20 -41 4 -46 -14 -5 0 -38 16 -38 22 0 24
9 27 140 3 124 3 124 -21 130 -21 5 -22 7 -7 19 20 17 21 41 1 41 -8 0 -21
-16 -29 -35z m30 -80 c8 -34 -1 -55 -26 -55 -14 0 -20 6 -19 23 0 12 3 16 6
10 7 -19 33 -16 33 3 0 9 -9 18 -20 21 -22 6 -18 23 5 23 8 0 17 -11 21 -25z"/>
<path d="M290 3552 c0 -5 -16 -34 -35 -67 -36 -60 -39 -81 -7 -52 10 10 28 17
39 17 29 0 53 10 53 22 0 6 -13 7 -31 3 -29 -7 -30 -6 -20 14 16 29 25 27 61
-19 24 -30 39 -40 61 -40 32 0 39 15 11 24 -28 9 -99 80 -94 94 2 7 -5 12 -17
12 -12 0 -21 -4 -21 -8z"/>
<path d="M156 3075 c-8 -19 -21 -35 -29 -35 -10 0 -13 -13 -9 -55 4 -54 4 -55
-22 -55 -31 0 -35 -20 -6 -27 24 -6 25 -22 5 -70 -8 -20 -13 -38 -10 -41 9 -9
34 31 47 73 11 38 24 55 41 55 4 0 7 -4 7 -10 0 -5 -7 -10 -15 -10 -8 0 -15
-7 -15 -15 0 -9 7 -18 15 -21 17 -7 20 -41 4 -46 -14 -5 0 -38 16 -38 22 0 24
9 27 140 3 124 3 124 -21 130 -21 5 -22 7 -7 19 20 17 21 41 1 41 -8 0 -21
-16 -29 -35z m30 -80 c8 -34 -1 -55 -26 -55 -14 0 -20 6 -19 23 0 12 3 16 6
10 7 -19 33 -16 33 3 0 9 -9 18 -20 21 -22 6 -18 23 5 23 8 0 17 -11 21 -25z"/>
<path d="M290 3102 c0 -5 -16 -34 -35 -67 -36 -60 -39 -81 -7 -52 10 10 28 17
39 17 29 0 53 10 53 22 0 6 -13 7 -31 3 -29 -7 -30 -6 -20 14 16 29 25 27 61
-19 24 -30 39 -40 61 -40 32 0 39 15 11 24 -28 9 -99 80 -94 94 2 7 -5 12 -17
12 -12 0 -21 -4 -21 -8z"/>
<path d="M310 2980 c0 -5 7 -10 15 -10 12 0 14 -8 9 -41 -5 -31 -4 -41 6 -37
14 4 42 77 34 90 -7 12 -64 10 -64 -2z"/>
<path d="M270 2970 c0 -5 7 -10 15 -10 8 0 15 5 15 10 0 6 -7 10 -15 10 -8 0
-15 -4 -15 -10z"/>
<path d="M156 2625 c-8 -19 -21 -35 -29 -35 -10 0 -13 -13 -9 -55 4 -54 4 -55
-22 -55 -31 0 -35 -20 -6 -27 24 -6 25 -22 5 -70 -8 -20 -13 -38 -10 -41 9 -9
34 31 47 73 11 38 24 55 41 55 4 0 7 -4 7 -10 0 -5 -7 -10 -15 -10 -8 0 -15
-7 -15 -15 0 -9 7 -18 15 -21 17 -7 20 -41 4 -46 -14 -5 0 -38 16 -38 22 0 24
9 27 140 3 124 3 124 -21 130 -21 5 -22 7 -7 19 20 17 21 41 1 41 -8 0 -21
-16 -29 -35z m30 -80 c8 -34 -1 -55 -26 -55 -14 0 -20 6 -19 23 0 12 3 16 6
10 7 -19 33 -16 33 3 0 9 -9 18 -20 21 -22 6 -18 23 5 23 8 0 17 -11 21 -25z"/>
<path d="M290 2652 c0 -5 -16 -34 -35 -67 -36 -60 -39 -81 -7 -52 10 10 28 17
39 17 29 0 53 10 53 22 0 6 -13 7 -31 3 -29 -7 -30 -6 -20 14 16 29 25 27 61
-19 24 -30 39 -40 61 -40 32 0 39 15 11 24 -28 9 -99 80 -94 94 2 7 -5 12 -17
12 -12 0 -21 -4 -21 -8z"/>
<path d="M310 2530 c0 -5 7 -10 15 -10 8 0 15 -4 15 -10 0 -5 -11 -10 -25 -10
-14 0 -25 -4 -25 -10 0 -5 9 -10 20 -10 14 0 20 -7 20 -21 0 -11 5 -19 11 -17
13 4 40 78 33 90 -7 12 -64 10 -64 -2z"/>
<path d="M270 2520 c0 -5 7 -10 15 -10 8 0 15 5 15 10 0 6 -7 10 -15 10 -8 0
-15 -4 -15 -10z"/>
<path d="M156 2175 c-8 -19 -21 -35 -29 -35 -10 0 -13 -13 -9 -55 4 -54 4 -55
-22 -55 -31 0 -35 -20 -6 -27 24 -6 25 -22 5 -70 -8 -20 -13 -38 -10 -41 9 -9
34 31 47 73 11 38 24 55 41 55 4 0 7 -4 7 -10 0 -5 -7 -10 -15 -10 -8 0 -15
-7 -15 -15 0 -9 7 -18 15 -21 17 -7 20 -41 4 -46 -14 -5 0 -38 16 -38 22 0 24
9 27 140 3 124 3 124 -21 130 -21 5 -22 7 -7 19 20 17 21 41 1 41 -8 0 -21
-16 -29 -35z m30 -80 c8 -34 -1 -55 -26 -55 -14 0 -20 6 -19 23 0 12 3 16 6
10 7 -19 33 -16 33 3 0 9 -9 18 -20 21 -22 6 -18 23 5 23 8 0 17 -11 21 -25z"/>
<path d="M290 2202 c0 -5 -16 -34 -35 -67 -36 -60 -39 -81 -7 -52 10 10 28 17
39 17 29 0 53 10 53 22 0 6 -13 7 -31 3 -29 -7 -30 -6 -20 14 16 29 25 27 61
-19 24 -30 39 -40 61 -40 32 0 39 15 11 24 -28 9 -99 80 -94 94 2 7 -5 12 -17
12 -12 0 -21 -4 -21 -8z"/>
<path d="M310 2080 c0 -5 7 -10 15 -10 8 0 15 -4 15 -10 0 -5 -11 -10 -25 -10
-14 0 -25 -4 -25 -10 0 -5 9 -10 20 -10 11 0 20 -4 20 -10 0 -5 -16 -10 -35
-10 -19 0 -35 -5 -35 -11 0 -6 18 -9 46 -7 44 3 47 5 59 42 8 22 12 43 9 48
-7 12 -64 10 -64 -2z"/>
<path d="M270 2070 c0 -5 7 -10 15 -10 8 0 15 5 15 10 0 6 -7 10 -15 10 -8 0
-15 -4 -15 -10z"/>
<path d="M156 1725 c-8 -19 -21 -35 -29 -35 -10 0 -13 -13 -9 -55 4 -54 4 -55
-22 -55 -31 0 -35 -20 -6 -27 24 -6 25 -22 5 -70 -8 -20 -13 -38 -10 -41 9 -9
34 31 47 73 11 38 24 55 41 55 4 0 7 -4 7 -10 0 -5 -7 -10 -15 -10 -8 0 -15
-7 -15 -15 0 -9 7 -18 15 -21 17 -7 20 -41 4 -46 -14 -5 0 -38 16 -38 22 0 24
9 27 140 3 124 3 124 -21 130 -21 5 -22 7 -7 19 20 17 21 41 1 41 -8 0 -21
-16 -29 -35z m30 -80 c8 -34 -1 -55 -26 -55 -14 0 -20 6 -19 23 0 12 3 16 6
10 7 -19 33 -16 33 3 0 9 -9 18 -20 21 -22 6 -18 23 5 23 8 0 17 -11 21 -25z"/>
<path d="M290 1752 c0 -5 -16 -34 -35 -67 -36 -60 -39 -81 -7 -52 10 10 28 17
39 17 29 0 53 10 53 22 0 6 -13 7 -31 3 -29 -7 -30 -6 -20 14 16 29 25 27 61
-19 24 -30 39 -40 61 -40 32 0 39 15 11 24 -28 9 -99 80 -94 94 2 7 -5 12 -17
12 -12 0 -21 -4 -21 -8z"/>
<path d="M310 1630 c0 -5 7 -10 15 -10 8 0 15 -4 15 -10 0 -5 -11 -10 -25 -10
-14 0 -25 -4 -25 -10 0 -5 9 -10 20 -10 11 0 20 -4 20 -10 0 -5 -13 -10 -29
-10 -25 0 -28 3 -23 25 2 14 8 25 13 25 5 0 9 5 9 10 0 6 -11 10 -25 10 -23 0
-25 -4 -25 -40 0 -22 -7 -57 -15 -77 -17 -41 -19 -53 -6 -53 5 0 17 18 27 40
16 35 22 39 57 42 36 3 40 6 52 42 8 22 12 43 9 48 -7 12 -64 10 -64 -2z"/>
<path d="M156 1275 c-8 -19 -21 -35 -29 -35 -10 0 -13 -13 -9 -55 4 -54 4 -55
-22 -55 -31 0 -35 -20 -6 -27 24 -6 25 -22 5 -70 -8 -20 -13 -38 -10 -41 9 -9
34 31 47 73 11 38 24 55 41 55 4 0 7 -4 7 -10 0 -5 -7 -10 -15 -10 -8 0 -15
-7 -15 -15 0 -9 7 -18 15 -21 17 -7 20 -41 4 -46 -14 -5 0 -38 16 -38 22 0 24
9 27 140 3 124 3 124 -21 130 -21 5 -22 7 -7 19 20 17 21 41 1 41 -8 0 -21
-16 -29 -35z m30 -80 c8 -34 -1 -55 -26 -55 -14 0 -20 6 -19 23 0 12 3 16 6
10 7 -19 33 -16 33 3 0 9 -9 18 -20 21 -22 6 -18 23 5 23 8 0 17 -11 21 -25z"/>
<path d="M290 1302 c0 -5 -16 -34 -35 -67 -36 -60 -39 -81 -7 -52 10 10 28 17
39 17 29 0 53 10 53 22 0 6 -13 7 -31 3 -29 -7 -30 -6 -20 14 16 29 25 27 61
-19 24 -30 39 -40 61 -40 32 0 39 15 11 24 -28 9 -99 80 -94 94 2 7 -5 12 -17
12 -12 0 -21 -4 -21 -8z"/>
<path d="M310 1180 c0 -5 7 -10 15 -10 8 0 15 -4 15 -10 0 -5 -11 -10 -25 -10
-14 0 -25 -4 -25 -10 0 -5 9 -10 20 -10 11 0 20 -4 20 -10 0 -5 -13 -10 -29
-10 -25 0 -28 3 -23 25 2 14 8 25 13 25 5 0 9 5 9 10 0 6 -11 10 -25 10 -22 0
-25 -4 -25 -40 0 -22 -7 -58 -16 -80 -9 -23 -13 -44 -9 -48 4 -4 10 -1 12 6 8
21 23 13 23 -13 0 -14 5 -25 10 -25 13 0 13 67 0 75 -20 13 3 34 42 37 37 3
41 6 53 42 8 22 12 43 9 48 -7 12 -64 10 -64 -2z"/>
<path d="M156 825 c-8 -19 -21 -35 -29 -35 -10 0 -13 -13 -9 -55 4 -54 4 -55
-22 -55 -31 0 -35 -20 -6 -27 24 -6 25 -22 5 -70 -8 -20 -13 -38 -10 -41 9 -9
34 31 47 73 11 38 24 55 41 55 4 0 7 -4 7 -10 0 -5 -7 -10 -15 -10 -8 0 -15
-7 -15 -15 0 -9 7 -18 15 -21 17 -7 20 -41 4 -46 -14 -5 0 -38 16 -38 22 0 24
9 27 140 3 124 3 124 -21 130 -21 5 -22 7 -7 19 20 17 21 41 1 41 -8 0 -21
-16 -29 -35z m30 -80 c8 -34 -1 -55 -26 -55 -14 0 -20 6 -19 23 0 12 3 16 6
10 7 -19 33 -16 33 3 0 9 -9 18 -20 21 -22 6 -18 23 5 23 8 0 17 -11 21 -25z"/>
<path d="M290 852 c0 -5 -16 -34 -35 -67 -36 -60 -39 -81 -7 -52 10 10 28 17
39 17 29 0 53 10 53 22 0 6 -13 7 -31 3 -29 -7 -30 -6 -20 14 16 29 25 27 61
-19 24 -30 39 -40 61 -40 32 0 39 15 11 24 -28 9 -99 80 -94 94 2 7 -5 12 -17
12 -12 0 -21 -4 -21 -8z"/>
<path d="M310 730 c0 -5 7 -10 15 -10 8 0 15 -4 15 -10 0 -5 -11 -10 -25 -10
-14 0 -25 -4 -25 -10 0 -5 9 -10 20 -10 11 0 20 -4 20 -10 0 -5 -13 -10 -29
-10 -25 0 -28 3 -23 25 2 14 8 25 13 25 5 0 9 5 9 10 0 6 -11 10 -25 10 -22 0
-25 -4 -25 -40 0 -22 -7 -58 -16 -80 -9 -23 -13 -44 -9 -48 4 -4 10 -1 12 6 8
21 23 13 23 -13 0 -14 5 -25 10 -25 6 0 10 14 10 30 0 17 5 30 10 30 6 0 10 5
10 10 0 6 -9 10 -20 10 -38 0 -10 29 32 32 37 3 41 6 53 42 8 22 12 43 9 48
-7 12 -64 10 -64 -2z"/>
<path d="M310 610 c0 -5 9 -10 20 -10 17 0 19 -5 14 -25 -4 -18 -2 -25 9 -25
14 0 27 28 27 58 0 7 -14 12 -35 12 -19 0 -35 -4 -35 -10z"/>
<path d="M156 375 c-8 -19 -21 -35 -29 -35 -10 0 -13 -13 -9 -55 4 -54 4 -55
-22 -55 -31 0 -35 -20 -6 -27 24 -6 25 -22 5 -70 -8 -20 -13 -38 -10 -41 9 -9
34 31 47 73 11 38 24 55 41 55 4 0 7 -4 7 -10 0 -5 -7 -10 -15 -10 -8 0 -15
-7 -15 -15 0 -9 7 -18 15 -21 17 -7 20 -41 4 -46 -14 -5 0 -38 16 -38 22 0 24
9 27 140 3 124 3 124 -21 130 -21 5 -22 7 -7 19 20 17 21 41 1 41 -8 0 -21
-16 -29 -35z m30 -80 c8 -34 -1 -55 -26 -55 -14 0 -20 6 -19 23 0 12 3 16 6
10 7 -19 33 -16 33 3 0 9 -9 18 -20 21 -22 6 -18 23 5 23 8 0 17 -11 21 -25z"/>
<path d="M290 402 c0 -5 -16 -34 -35 -67 -36 -60 -39 -81 -7 -52 10 10 28 17
39 17 29 0 53 10 53 22 0 6 -13 7 -31 3 -29 -7 -30 -6 -20 14 16 29 25 27 61
-19 24 -30 39 -40 61 -40 32 0 39 15 11 24 -28 9 -99 80 -94 94 2 7 -5 12 -17
12 -12 0 -21 -4 -21 -8z"/>
<path d="M310 280 c0 -5 7 -10 15 -10 8 0 15 -4 15 -10 0 -5 -11 -10 -25 -10
-14 0 -25 -4 -25 -10 0 -5 9 -10 20 -10 11 0 20 -4 20 -10 0 -5 -13 -10 -29
-10 -25 0 -28 3 -23 25 2 14 8 25 13 25 5 0 9 5 9 10 0 6 -11 10 -25 10 -22 0
-25 -4 -25 -40 0 -22 -7 -58 -16 -80 -9 -23 -13 -44 -9 -48 4 -4 10 -1 12 6 8
21 23 13 23 -13 0 -23 2 -24 53 -18 28 3 53 6 54 7 0 1 4 18 8 39 l7 37 -36 0
c-20 0 -36 -4 -36 -10 0 -5 9 -10 20 -10 37 0 19 -34 -22 -42 -22 -4 -28 -1
-28 13 0 11 5 19 10 19 6 0 10 5 10 10 0 6 -9 10 -20 10 -38 0 -10 29 32 32
37 3 41 6 53 42 8 22 12 43 9 48 -7 12 -64 10 -64 -2z"/>
</g>
</svg>
