<?xml version="1.0" standalone="no"?>
<!DOCTYPE svg PUBLIC "-//W3C//DTD SVG 20010904//EN"
 "http://www.w3.org/TR/2001/REC-SVG-20010904/DTD/svg10.dtd">
<svg version="1.0" xmlns="http://www.w3.org/2000/svg"
 width="95.000000pt" height="725.000000pt" viewBox="0 0 95.000000 725.000000"
 preserveAspectRatio="xMidYMid meet">
<metadata>
Created by potrace 1.16, written by Peter Selinger 2001-2019
</metadata>
<g transform="translate(0.000000,725.000000) scale(0.100000,-0.100000)"
fill="#000000" stroke="none">
<path d="M151 7125 c-7 -19 -18 -35 -26 -35 -9 0 -13 -14 -12 -47 2 -43 0 -48
-20 -51 -28 -4 -30 -22 -3 -29 24 -6 26 -33 4 -74 -8 -17 -13 -34 -9 -37 9
-10 35 28 42 61 5 25 23 39 23 17 0 -5 5 -10 10 -10 6 0 10 9 10 20 0 11 -7
20 -16 20 -8 0 -12 5 -9 10 3 6 13 10 21 10 10 0 14 -13 14 -50 0 -38 -4 -50
-15 -50 -18 0 -19 -9 0 -34 23 -31 35 -8 35 69 0 49 4 75 13 78 8 4 9 8 2 14
-6 4 -10 26 -10 48 0 35 -3 40 -23 39 -21 -1 -21 1 -6 17 16 18 13 49 -4 49
-4 0 -14 -16 -21 -35z m29 -69 c0 -9 -7 -12 -20 -9 -11 3 -20 9 -20 14 0 5 9
9 20 9 11 0 20 -6 20 -14z m-10 -49 c10 -4 8 -6 -7 -6 -16 -1 -23 5 -23 17 0
10 3 13 8 6 4 -6 14 -14 22 -17z"/>
<path d="M602 7128 c-6 -17 -9 -34 -7 -37 11 -10 48 38 42 53 -10 25 -21 19
-35 -16z"/>
<path d="M357 7133 c-4 -3 -7 -16 -7 -29 0 -37 -10 -52 -31 -47 -21 6 -26 39
-6 46 26 9 0 15 -46 10 -37 -4 -47 -9 -43 -20 4 -8 6 -35 6 -59 0 -41 2 -45
20 -39 14 5 20 2 20 -10 0 -11 -6 -14 -25 -9 -21 5 -25 3 -25 -15 0 -18 4 -20
28 -14 15 4 42 7 60 6 37 -2 40 20 4 25 -27 4 -28 16 -3 41 14 14 21 16 25 8
3 -8 9 -7 19 6 8 9 28 17 46 17 17 0 31 5 31 10 0 6 -14 10 -30 10 -27 0 -30
2 -20 19 14 27 13 51 -3 51 -8 0 -17 -3 -20 -7z m-77 -58 c0 -8 -4 -15 -10
-15 -5 0 -10 -4 -10 -10 0 -5 10 -10 23 -10 18 0 19 -2 7 -10 -28 -18 -40 -11
-40 25 0 24 5 35 15 35 8 0 15 -7 15 -15z"/>
<path d="M368 7003 c-20 -5 -24 -23 -5 -23 24 0 57 12 57 21 0 9 -22 10 -52 2z"/>
<path d="M328 6943 c-61 -5 -63 -23 -3 -23 41 0 45 -2 45 -25 0 -29 8 -32 26
-7 18 23 17 49 -2 56 -9 3 -16 5 -17 4 -1 -1 -23 -3 -49 -5z"/>
<path d="M236 6903 c13 -56 33 -60 31 -8 -1 27 -5 35 -19 35 -15 0 -17 -5 -12
-27z"/>
<path d="M151 6675 c-7 -19 -18 -35 -26 -35 -9 0 -13 -14 -12 -47 2 -43 0 -48
-20 -51 -28 -4 -30 -22 -3 -29 24 -6 26 -33 4 -74 -8 -17 -13 -34 -9 -37 9
-10 35 28 42 61 5 25 23 39 23 17 0 -5 5 -10 10 -10 6 0 10 9 10 20 0 11 -7
20 -16 20 -8 0 -12 5 -9 10 3 6 13 10 21 10 10 0 14 -13 14 -50 0 -38 -4 -50
-15 -50 -18 0 -19 -9 0 -34 23 -31 35 -8 35 69 0 49 4 75 13 78 8 4 9 8 2 14
-6 4 -10 26 -10 48 0 35 -3 40 -23 39 -21 -1 -21 1 -6 17 16 18 13 49 -4 49
-4 0 -14 -16 -21 -35z m29 -69 c0 -9 -7 -12 -20 -9 -11 3 -20 9 -20 14 0 5 9
9 20 9 11 0 20 -6 20 -14z m-10 -49 c10 -4 8 -6 -7 -6 -16 -1 -23 5 -23 17 0
10 3 13 8 6 4 -6 14 -14 22 -17z"/>
<path d="M601 6675 c-7 -19 -18 -35 -24 -35 -8 0 -13 -27 -14 -85 -1 -54 -8
-95 -18 -116 -19 -35 -11 -54 11 -24 22 30 34 84 34 153 0 56 3 66 27 86 17
15 24 29 20 39 -10 26 -22 20 -36 -18z"/>
<path d="M357 6683 c-4 -3 -7 -16 -7 -29 0 -37 -10 -52 -31 -47 -21 6 -26 39
-6 46 26 9 0 15 -46 10 -37 -4 -47 -9 -43 -20 4 -8 6 -35 6 -59 0 -41 2 -45
20 -39 14 5 20 2 20 -10 0 -11 -6 -14 -25 -9 -21 5 -25 3 -25 -15 0 -18 4 -20
28 -14 15 4 42 7 60 6 37 -2 40 20 4 25 -27 4 -28 16 -3 41 14 14 21 16 25 8
3 -8 9 -7 19 6 8 9 28 17 46 17 17 0 31 5 31 10 0 6 -14 10 -30 10 -27 0 -30
2 -20 19 14 27 13 51 -3 51 -8 0 -17 -3 -20 -7z m-77 -58 c0 -8 -4 -15 -10
-15 -5 0 -10 -4 -10 -10 0 -5 10 -10 23 -10 18 0 19 -2 7 -10 -28 -18 -40 -11
-40 25 0 24 5 35 15 35 8 0 15 -7 15 -15z"/>
<path d="M368 6553 c-20 -5 -24 -23 -5 -23 24 0 57 12 57 21 0 9 -22 10 -52 2z"/>
<path d="M326 6493 c-48 -4 -48 -4 -42 -35 3 -17 6 -34 6 -39 0 -5 5 -9 10 -9
6 0 10 14 10 30 0 27 3 30 30 30 25 0 30 -4 30 -25 0 -29 8 -32 26 -7 18 23
17 49 -2 56 -9 3 -16 5 -17 4 -1 -1 -24 -3 -51 -5z"/>
<path d="M236 6453 c13 -56 33 -60 31 -8 -1 27 -5 35 -19 35 -15 0 -17 -5 -12
-27z"/>
<path d="M151 6225 c-7 -19 -18 -35 -26 -35 -9 0 -13 -14 -12 -47 2 -43 0 -48
-20 -51 -28 -4 -30 -22 -3 -29 24 -6 26 -33 4 -74 -8 -17 -13 -34 -9 -37 9
-10 35 28 42 61 5 25 23 39 23 17 0 -5 5 -10 10 -10 6 0 10 9 10 20 0 11 -7
20 -16 20 -8 0 -12 5 -9 10 3 6 13 10 21 10 10 0 14 -13 14 -50 0 -38 -4 -50
-15 -50 -18 0 -19 -9 0 -34 23 -31 35 -8 35 69 0 49 4 75 13 78 8 4 9 8 2 14
-6 4 -10 26 -10 48 0 35 -3 40 -23 39 -21 -1 -21 1 -6 17 16 18 13 49 -4 49
-4 0 -14 -16 -21 -35z m29 -69 c0 -9 -7 -12 -20 -9 -11 3 -20 9 -20 14 0 5 9
9 20 9 11 0 20 -6 20 -14z m-10 -49 c10 -4 8 -6 -7 -6 -16 -1 -23 5 -23 17 0
10 3 13 8 6 4 -6 14 -14 22 -17z"/>
<path d="M601 6225 c-7 -19 -18 -35 -24 -35 -8 0 -13 -27 -14 -85 -1 -54 -8
-95 -18 -116 -19 -35 -11 -54 11 -24 21 29 34 83 34 148 0 50 2 57 20 57 19 0
20 -7 20 -95 0 -78 -3 -95 -15 -95 -19 0 -19 -9 0 -34 25 -33 33 -7 36 124 4
124 4 125 -19 124 -21 -1 -21 1 -6 17 16 18 13 49 -4 49 -4 0 -14 -16 -21 -35z"/>
<path d="M357 6233 c-4 -3 -7 -16 -7 -29 0 -37 -10 -52 -31 -47 -21 6 -26 39
-6 46 26 9 0 15 -46 10 -37 -4 -47 -9 -43 -20 4 -8 6 -35 6 -59 0 -41 2 -45
20 -39 14 5 20 2 20 -10 0 -11 -6 -14 -25 -9 -21 5 -25 3 -25 -15 0 -18 4 -20
28 -14 15 4 42 7 60 6 37 -2 40 20 4 25 -27 4 -28 16 -3 41 14 14 21 16 25 8
3 -8 9 -7 19 6 8 9 28 17 46 17 17 0 31 5 31 10 0 6 -14 10 -30 10 -27 0 -30
2 -20 19 14 27 13 51 -3 51 -8 0 -17 -3 -20 -7z m-77 -58 c0 -8 -4 -15 -10
-15 -5 0 -10 -4 -10 -10 0 -5 10 -10 23 -10 18 0 19 -2 7 -10 -28 -18 -40 -11
-40 25 0 24 5 35 15 35 8 0 15 -7 15 -15z"/>
<path d="M368 6103 c-20 -5 -24 -23 -5 -23 24 0 57 12 57 21 0 9 -22 10 -52 2z"/>
<path d="M326 6043 c-48 -4 -48 -4 -42 -35 3 -17 6 -34 6 -39 0 -5 5 -9 10 -9
6 0 10 14 10 30 0 17 5 30 10 30 6 0 8 -11 4 -25 -4 -15 -2 -25 5 -25 6 0 13
11 17 25 3 14 10 25 15 25 5 0 9 -11 9 -25 0 -29 8 -32 26 -7 18 23 17 49 -2
56 -9 3 -16 5 -17 4 -1 -1 -24 -3 -51 -5z"/>
<path d="M236 6003 c13 -56 33 -60 31 -8 -1 27 -5 35 -19 35 -15 0 -17 -5 -12
-27z"/>
<path d="M151 5775 c-7 -19 -18 -35 -26 -35 -9 0 -13 -14 -12 -47 2 -43 0 -48
-20 -51 -28 -4 -30 -22 -3 -29 24 -6 26 -33 4 -74 -8 -17 -13 -34 -9 -37 9
-10 35 28 42 61 5 25 23 39 23 17 0 -5 5 -10 10 -10 6 0 10 9 10 20 0 11 -7
20 -16 20 -8 0 -12 5 -9 10 3 6 13 10 21 10 10 0 14 -13 14 -50 0 -38 -4 -50
-15 -50 -18 0 -19 -9 0 -34 23 -31 35 -8 35 69 0 49 4 75 13 78 8 4 9 8 2 14
-6 4 -10 26 -10 48 0 35 -3 40 -23 39 -21 -1 -21 1 -6 17 16 18 13 49 -4 49
-4 0 -14 -16 -21 -35z m29 -69 c0 -9 -7 -12 -20 -9 -11 3 -20 9 -20 14 0 5 9
9 20 9 11 0 20 -6 20 -14z m-10 -49 c10 -4 8 -6 -7 -6 -16 -1 -23 5 -23 17 0
10 3 13 8 6 4 -6 14 -14 22 -17z"/>
<path d="M601 5775 c-7 -19 -18 -35 -24 -35 -8 0 -13 -27 -14 -85 -1 -54 -8
-95 -18 -116 -19 -35 -11 -54 11 -24 19 26 34 81 35 130 0 22 3 34 6 28 2 -7
11 -13 19 -13 11 0 14 -16 14 -65 0 -51 -3 -65 -15 -65 -19 0 -19 -9 0 -34 25
-33 33 -7 36 124 4 124 4 125 -19 124 -21 -1 -21 1 -6 17 16 18 13 49 -4 49
-4 0 -14 -16 -21 -35z m29 -69 c0 -9 -7 -12 -20 -9 -11 3 -20 9 -20 14 0 5 9
9 20 9 11 0 20 -6 20 -14z"/>
<path d="M357 5783 c-4 -3 -7 -16 -7 -29 0 -37 -10 -52 -31 -47 -21 6 -26 39
-6 46 26 9 0 15 -46 10 -37 -4 -47 -9 -43 -20 4 -8 6 -35 6 -59 0 -41 2 -45
20 -39 14 5 20 2 20 -10 0 -11 -6 -14 -25 -9 -21 5 -25 3 -25 -15 0 -18 4 -20
28 -14 15 4 42 7 60 6 37 -2 40 20 4 25 -27 4 -28 16 -3 41 14 14 21 16 25 8
3 -8 9 -7 19 6 8 9 28 17 46 17 17 0 31 5 31 10 0 6 -14 10 -30 10 -27 0 -30
2 -20 19 14 27 13 51 -3 51 -8 0 -17 -3 -20 -7z m-77 -58 c0 -8 -4 -15 -10
-15 -5 0 -10 -4 -10 -10 0 -5 10 -10 23 -10 18 0 19 -2 7 -10 -28 -18 -40 -11
-40 25 0 24 5 35 15 35 8 0 15 -7 15 -15z"/>
<path d="M368 5653 c-20 -5 -24 -23 -5 -23 24 0 57 12 57 21 0 9 -22 10 -52 2z"/>
<path d="M326 5593 l-48 -4 6 -35 c4 -19 3 -34 -2 -34 -14 0 -23 27 -16 45 4
10 0 15 -15 15 -17 0 -20 -4 -14 -30 4 -24 2 -30 -12 -30 -9 0 -15 -6 -12 -12
2 -7 11 -13 20 -12 10 0 60 1 113 2 70 2 95 5 92 14 -3 7 -15 15 -29 18 -16 4
-20 8 -11 14 17 10 15 43 -4 50 -9 3 -16 5 -17 4 -1 -1 -24 -3 -51 -5z m3 -30
c0 -5 -4 -17 -9 -28 -8 -18 -9 -17 -9 8 -1 15 4 27 9 27 6 0 10 -3 9 -7z m41
-13 c0 -11 -6 -20 -14 -20 -9 0 -12 7 -9 20 3 11 9 20 14 20 5 0 9 -9 9 -20z"/>
<path d="M601 5325 c-7 -19 -18 -35 -24 -35 -8 0 -13 -27 -14 -85 -1 -54 -8
-95 -18 -116 -9 -17 -14 -34 -10 -37 9 -10 35 28 42 61 5 25 23 39 23 17 0 -5
5 -10 10 -10 6 0 10 9 10 20 0 11 -7 20 -15 20 -11 0 -15 10 -14 38 0 20 3 31
6 25 2 -7 11 -13 19 -13 11 0 14 -16 14 -65 0 -51 -3 -65 -15 -65 -19 0 -19
-9 0 -34 25 -33 33 -7 36 124 4 124 4 125 -19 124 -21 -1 -21 1 -6 17 16 18
13 49 -4 49 -4 0 -14 -16 -21 -35z m29 -69 c0 -9 -7 -12 -20 -9 -11 3 -20 9
-20 14 0 5 9 9 20 9 11 0 20 -6 20 -14z"/>
<path d="M601 4875 c-7 -19 -18 -35 -26 -35 -9 0 -13 -14 -12 -47 2 -43 0 -48
-20 -51 -28 -4 -30 -22 -3 -29 24 -6 26 -33 4 -74 -8 -17 -13 -34 -9 -37 9
-10 35 28 42 61 5 25 23 39 23 17 0 -5 5 -10 10 -10 6 0 10 9 10 20 0 11 -7
20 -16 20 -8 0 -12 5 -9 10 3 6 13 10 21 10 10 0 14 -13 14 -50 0 -38 -4 -50
-15 -50 -18 0 -19 -9 0 -34 23 -31 35 -8 35 69 0 49 4 75 13 78 8 4 9 8 2 14
-6 4 -10 26 -10 48 0 35 -3 40 -23 39 -21 -1 -21 1 -6 17 16 18 13 49 -4 49
-4 0 -14 -16 -21 -35z m29 -69 c0 -9 -7 -12 -20 -9 -11 3 -20 9 -20 14 0 5 9
9 20 9 11 0 20 -6 20 -14z m-10 -49 c10 -4 8 -6 -7 -6 -16 -1 -23 5 -23 17 0
10 3 13 8 6 4 -6 14 -14 22 -17z"/>
<path d="M601 4425 c-7 -19 -18 -35 -26 -35 -9 0 -13 -14 -12 -47 2 -43 0 -48
-20 -51 -28 -4 -30 -22 -3 -29 24 -6 26 -33 4 -74 -8 -17 -13 -34 -9 -37 9
-10 35 28 42 61 5 25 23 39 23 17 0 -5 5 -10 10 -10 6 0 10 9 10 20 0 11 -7
20 -16 20 -8 0 -12 5 -9 10 3 6 13 10 21 10 10 0 14 -13 14 -50 0 -38 -4 -50
-15 -50 -18 0 -19 -9 0 -34 23 -31 35 -8 35 69 0 49 4 75 13 78 8 4 9 8 2 14
-6 4 -10 26 -10 48 0 35 -3 40 -23 39 -21 -1 -21 1 -6 17 16 18 13 49 -4 49
-4 0 -14 -16 -21 -35z m29 -69 c0 -9 -7 -12 -20 -9 -11 3 -20 9 -20 14 0 5 9
9 20 9 11 0 20 -6 20 -14z m-10 -49 c10 -4 8 -6 -7 -6 -16 -1 -23 5 -23 17 0
10 3 13 8 6 4 -6 14 -14 22 -17z"/>
<path d="M740 4410 c0 -5 7 -10 15 -10 8 0 15 5 15 10 0 6 -7 10 -15 10 -8 0
-15 -4 -15 -10z"/>
<path d="M670 4400 c0 -5 14 -10 30 -10 17 0 30 5 30 10 0 6 -13 10 -30 10
-16 0 -30 -4 -30 -10z"/>
<path d="M601 3975 c-7 -19 -18 -35 -26 -35 -9 0 -13 -14 -12 -47 2 -43 0 -48
-20 -51 -28 -4 -30 -22 -3 -29 24 -6 26 -33 4 -74 -8 -17 -13 -34 -9 -37 9
-10 35 28 42 61 5 25 23 39 23 17 0 -5 5 -10 10 -10 6 0 10 9 10 20 0 11 -7
20 -16 20 -8 0 -12 5 -9 10 3 6 13 10 21 10 10 0 14 -13 14 -50 0 -38 -4 -50
-15 -50 -18 0 -19 -9 0 -34 23 -31 35 -8 35 69 0 49 4 75 13 78 8 4 9 8 2 14
-6 4 -10 26 -10 48 0 35 -3 40 -23 39 -21 -1 -21 1 -6 17 16 18 13 49 -4 49
-4 0 -14 -16 -21 -35z m29 -69 c0 -9 -7 -12 -20 -9 -11 3 -20 9 -20 14 0 5 9
9 20 9 11 0 20 -6 20 -14z m-10 -49 c10 -4 8 -6 -7 -6 -16 -1 -23 5 -23 17 0
10 3 13 8 6 4 -6 14 -14 22 -17z"/>
<path d="M708 3963 c-45 -5 -51 -23 -8 -23 20 0 30 -5 30 -15 0 -8 5 -15 10
-15 6 0 10 9 10 20 0 11 5 20 10 20 6 0 10 5 10 10 0 6 -6 9 -12 8 -7 -1 -30
-3 -50 -5z"/>
<path d="M601 3525 c-7 -19 -18 -35 -26 -35 -9 0 -13 -14 -12 -47 2 -43 0 -48
-20 -51 -28 -4 -30 -22 -3 -29 24 -6 26 -33 4 -74 -8 -17 -13 -34 -9 -37 9
-10 35 28 42 61 5 25 23 39 23 17 0 -5 5 -10 10 -10 6 0 10 9 10 20 0 11 -7
20 -16 20 -8 0 -12 5 -9 10 3 6 13 10 21 10 10 0 14 -13 14 -50 0 -38 -4 -50
-15 -50 -18 0 -19 -9 0 -34 23 -31 35 -8 35 69 0 49 4 75 13 78 8 4 9 8 2 14
-6 4 -10 26 -10 48 0 35 -3 40 -23 39 -21 -1 -21 1 -6 17 16 18 13 49 -4 49
-4 0 -14 -16 -21 -35z m29 -69 c0 -9 -7 -12 -20 -9 -11 3 -20 9 -20 14 0 5 9
9 20 9 11 0 20 -6 20 -14z m-10 -49 c10 -4 8 -6 -7 -6 -16 -1 -23 5 -23 17 0
10 3 13 8 6 4 -6 14 -14 22 -17z"/>
<path d="M708 3513 c-45 -5 -51 -23 -8 -23 20 0 30 -5 30 -15 0 -8 -4 -15 -10
-15 -5 0 -10 -4 -10 -10 0 -5 9 -10 19 -10 11 0 22 -6 24 -12 4 -10 8 -9 16 2
15 21 14 30 -4 30 -8 0 -15 9 -15 20 0 11 5 20 10 20 6 0 10 5 10 10 0 6 -6 9
-12 8 -7 -1 -30 -3 -50 -5z"/>
<path d="M601 3075 c-7 -19 -18 -35 -26 -35 -9 0 -13 -14 -12 -47 2 -43 0 -48
-20 -51 -28 -4 -30 -22 -3 -29 24 -6 26 -33 4 -74 -8 -17 -13 -34 -9 -37 9
-10 35 28 42 61 5 25 23 39 23 17 0 -5 5 -10 10 -10 6 0 10 9 10 20 0 11 -7
20 -16 20 -8 0 -12 5 -9 10 3 6 13 10 21 10 10 0 14 -13 14 -50 0 -38 -4 -50
-15 -50 -18 0 -19 -9 0 -34 23 -31 35 -8 35 69 0 49 4 75 13 78 8 4 9 8 2 14
-6 4 -10 26 -10 48 0 35 -3 40 -23 39 -21 -1 -21 1 -6 17 16 18 13 49 -4 49
-4 0 -14 -16 -21 -35z m29 -69 c0 -9 -7 -12 -20 -9 -11 3 -20 9 -20 14 0 5 9
9 20 9 11 0 20 -6 20 -14z m-10 -49 c10 -4 8 -6 -7 -6 -16 -1 -23 5 -23 17 0
10 3 13 8 6 4 -6 14 -14 22 -17z"/>
<path d="M708 3063 c-45 -5 -51 -23 -8 -23 20 0 30 -5 30 -15 0 -8 -4 -15 -10
-15 -20 0 -10 -19 13 -23 19 -3 18 -5 -10 -12 -18 -4 -33 -12 -33 -17 0 -16
63 0 78 19 16 22 15 33 -3 33 -8 0 -15 9 -15 20 0 11 5 20 10 20 6 0 10 5 10
10 0 6 -6 9 -12 8 -7 -1 -30 -3 -50 -5z"/>
<path d="M601 2625 c-7 -19 -18 -35 -26 -35 -9 0 -13 -14 -12 -47 2 -43 0 -48
-20 -51 -28 -4 -30 -22 -3 -29 24 -6 26 -33 4 -74 -8 -17 -13 -34 -9 -37 9
-10 35 28 42 61 5 25 23 39 23 17 0 -5 5 -10 10 -10 6 0 10 9 10 20 0 11 -7
20 -16 20 -8 0 -12 5 -9 10 3 6 13 10 21 10 10 0 14 -13 14 -50 0 -38 -4 -50
-15 -50 -18 0 -19 -9 0 -34 23 -31 35 -8 35 69 0 49 4 75 13 78 8 4 9 8 2 14
-6 4 -10 26 -10 48 0 35 -3 40 -23 39 -21 -1 -21 1 -6 17 16 18 13 49 -4 49
-4 0 -14 -16 -21 -35z m29 -69 c0 -9 -7 -12 -20 -9 -11 3 -20 9 -20 14 0 5 9
9 20 9 11 0 20 -6 20 -14z m-10 -49 c10 -4 8 -6 -7 -6 -16 -1 -23 5 -23 17 0
10 3 13 8 6 4 -6 14 -14 22 -17z"/>
<path d="M708 2613 c-45 -5 -51 -23 -8 -23 20 0 30 -5 30 -15 0 -8 -4 -15 -10
-15 -20 0 -10 -19 13 -23 19 -3 18 -5 -10 -12 -33 -8 -45 -25 -18 -25 8 0 15
-9 15 -20 0 -11 5 -20 10 -20 6 0 10 9 10 20 0 11 9 29 20 40 24 24 26 40 5
40 -8 0 -15 9 -15 20 0 11 5 20 10 20 6 0 10 5 10 10 0 6 -6 9 -12 8 -7 -1
-30 -3 -50 -5z"/>
<path d="M601 2175 c-7 -19 -18 -35 -26 -35 -9 0 -13 -14 -12 -47 2 -43 0 -48
-20 -51 -28 -4 -30 -22 -3 -29 24 -6 26 -33 4 -74 -8 -17 -13 -34 -9 -37 9
-10 35 28 42 61 5 25 23 39 23 17 0 -5 5 -10 10 -10 6 0 10 9 10 20 0 11 -7
20 -16 20 -8 0 -12 5 -9 10 3 6 13 10 21 10 10 0 14 -13 14 -50 0 -38 -4 -50
-15 -50 -18 0 -19 -9 0 -34 23 -31 35 -8 35 69 0 49 4 75 13 78 8 4 9 8 2 14
-6 4 -10 26 -10 48 0 35 -3 40 -23 39 -21 -1 -21 1 -6 17 16 18 13 49 -4 49
-4 0 -14 -16 -21 -35z m29 -69 c0 -9 -7 -12 -20 -9 -11 3 -20 9 -20 14 0 5 9
9 20 9 11 0 20 -6 20 -14z m-10 -49 c10 -4 8 -6 -7 -6 -16 -1 -23 5 -23 17 0
10 3 13 8 6 4 -6 14 -14 22 -17z"/>
<path d="M707 2163 c-30 -3 -37 -8 -33 -19 3 -9 6 -36 6 -60 0 -41 2 -45 20
-39 14 5 20 2 20 -10 0 -11 -6 -14 -25 -9 -21 5 -25 3 -25 -15 0 -18 4 -20 28
-14 15 4 42 7 60 6 37 -2 40 20 4 25 -27 4 -28 16 -2 42 24 24 26 40 5 40 -8
0 -15 9 -15 20 0 11 5 20 10 20 6 0 10 5 10 10 0 6 -6 9 -12 8 -7 -1 -30 -3
-51 -5z m23 -38 c0 -8 -4 -15 -10 -15 -5 0 -10 -4 -10 -10 0 -5 10 -10 23 -10
18 0 19 -2 7 -10 -28 -18 -40 -11 -40 25 0 24 5 35 15 35 8 0 15 -7 15 -15z"/>
<path d="M601 1725 c-7 -19 -18 -35 -26 -35 -9 0 -13 -14 -12 -47 2 -43 0 -48
-20 -51 -28 -4 -30 -22 -3 -29 24 -6 26 -33 4 -74 -8 -17 -13 -34 -9 -37 9
-10 35 28 42 61 5 25 23 39 23 17 0 -5 5 -10 10 -10 6 0 10 9 10 20 0 11 -7
20 -16 20 -8 0 -12 5 -9 10 3 6 13 10 21 10 10 0 14 -13 14 -50 0 -38 -4 -50
-15 -50 -18 0 -19 -9 0 -34 23 -31 35 -8 35 69 0 49 4 75 13 78 8 4 9 8 2 14
-6 4 -10 26 -10 48 0 35 -3 40 -23 39 -21 -1 -21 1 -6 17 16 18 13 49 -4 49
-4 0 -14 -16 -21 -35z m29 -69 c0 -9 -7 -12 -20 -9 -11 3 -20 9 -20 14 0 5 9
9 20 9 11 0 20 -6 20 -14z m-10 -49 c10 -4 8 -6 -7 -6 -16 -1 -23 5 -23 17 0
10 3 13 8 6 4 -6 14 -14 22 -17z"/>
<path d="M807 1733 c-4 -3 -7 -16 -7 -29 0 -37 -10 -52 -31 -47 -21 6 -26 39
-6 46 26 9 0 15 -46 10 -37 -4 -47 -9 -43 -20 4 -8 6 -35 6 -59 0 -41 2 -45
20 -39 14 5 20 2 20 -10 0 -11 -6 -14 -25 -9 -21 5 -25 3 -25 -15 0 -18 4 -20
28 -14 15 4 42 7 60 6 37 -2 40 20 4 25 -27 4 -28 16 -2 42 11 11 20 16 20 10
0 -5 5 -10 10 -10 11 0 50 82 50 106 0 14 -21 19 -33 7z m-77 -58 c0 -8 -4
-15 -10 -15 -5 0 -10 -4 -10 -10 0 -5 10 -10 23 -10 18 0 19 -2 7 -10 -28 -18
-40 -11 -40 25 0 24 5 35 15 35 8 0 15 -7 15 -15z"/>
<path d="M601 1275 c-7 -19 -18 -35 -26 -35 -9 0 -13 -14 -12 -47 2 -43 0 -48
-20 -51 -28 -4 -30 -22 -3 -29 24 -6 26 -33 4 -74 -8 -17 -13 -34 -9 -37 9
-10 35 28 42 61 5 25 23 39 23 17 0 -5 5 -10 10 -10 6 0 10 9 10 20 0 11 -7
20 -16 20 -8 0 -12 5 -9 10 3 6 13 10 21 10 10 0 14 -13 14 -50 0 -38 -4 -50
-15 -50 -18 0 -19 -9 0 -34 23 -31 35 -8 35 69 0 49 4 75 13 78 8 4 9 8 2 14
-6 4 -10 26 -10 48 0 35 -3 40 -23 39 -21 -1 -21 1 -6 17 16 18 13 49 -4 49
-4 0 -14 -16 -21 -35z m29 -69 c0 -9 -7 -12 -20 -9 -11 3 -20 9 -20 14 0 5 9
9 20 9 11 0 20 -6 20 -14z m-10 -49 c10 -4 8 -6 -7 -6 -16 -1 -23 5 -23 17 0
10 3 13 8 6 4 -6 14 -14 22 -17z"/>
<path d="M807 1283 c-4 -3 -7 -16 -7 -29 0 -37 -10 -52 -31 -47 -21 6 -26 39
-6 46 26 9 0 15 -46 10 -37 -4 -47 -9 -43 -20 4 -8 6 -35 6 -59 0 -41 2 -45
20 -39 14 5 20 2 20 -10 0 -11 -6 -14 -25 -9 -21 5 -25 3 -25 -15 0 -18 4 -20
28 -14 15 4 42 7 60 6 37 -2 40 20 4 25 -27 4 -28 16 -3 41 14 14 21 16 25 8
3 -8 9 -7 19 6 8 9 28 17 46 17 17 0 31 5 31 10 0 6 -14 10 -30 10 -27 0 -30
2 -20 19 14 27 13 51 -3 51 -8 0 -17 -3 -20 -7z m-77 -58 c0 -8 -4 -15 -10
-15 -5 0 -10 -4 -10 -10 0 -5 10 -10 23 -10 18 0 19 -2 7 -10 -28 -18 -40 -11
-40 25 0 24 5 35 15 35 8 0 15 -7 15 -15z"/>
<path d="M601 825 c-7 -19 -18 -35 -26 -35 -9 0 -13 -14 -12 -47 2 -43 0 -48
-20 -51 -28 -4 -30 -22 -3 -29 24 -6 26 -33 4 -74 -8 -17 -13 -34 -9 -37 9
-10 35 28 42 61 5 25 23 39 23 17 0 -5 5 -10 10 -10 6 0 10 9 10 20 0 11 -7
20 -16 20 -8 0 -12 5 -9 10 3 6 13 10 21 10 10 0 14 -13 14 -50 0 -38 -4 -50
-15 -50 -18 0 -19 -9 0 -34 23 -31 35 -8 35 69 0 49 4 75 13 78 8 4 9 8 2 14
-6 4 -10 26 -10 48 0 35 -3 40 -23 39 -21 -1 -21 1 -6 17 16 18 13 49 -4 49
-4 0 -14 -16 -21 -35z m29 -69 c0 -9 -7 -12 -20 -9 -11 3 -20 9 -20 14 0 5 9
9 20 9 11 0 20 -6 20 -14z m-10 -49 c10 -4 8 -6 -7 -6 -16 -1 -23 5 -23 17 0
10 3 13 8 6 4 -6 14 -14 22 -17z"/>
<path d="M807 833 c-4 -3 -7 -16 -7 -29 0 -37 -10 -52 -31 -47 -21 6 -26 39
-6 46 26 9 0 15 -46 10 -37 -4 -47 -9 -43 -20 4 -8 6 -35 6 -59 0 -41 2 -45
20 -39 14 5 20 2 20 -10 0 -11 -6 -14 -25 -9 -21 5 -25 3 -25 -15 0 -18 4 -20
28 -14 15 4 42 7 60 6 37 -2 40 20 4 25 -27 4 -28 16 -3 41 14 14 21 16 25 8
3 -8 9 -7 19 6 8 9 28 17 46 17 17 0 31 5 31 10 0 6 -14 10 -30 10 -27 0 -30
2 -20 19 14 27 13 51 -3 51 -8 0 -17 -3 -20 -7z m-77 -58 c0 -8 -4 -15 -10
-15 -5 0 -10 -4 -10 -10 0 -5 10 -10 23 -10 18 0 19 -2 7 -10 -28 -18 -40 -11
-40 25 0 24 5 35 15 35 8 0 15 -7 15 -15z"/>
<path d="M818 703 c-20 -5 -24 -23 -5 -23 24 0 57 12 57 21 0 9 -22 10 -52 2z"/>
<path d="M601 375 c-7 -19 -18 -35 -26 -35 -9 0 -13 -14 -12 -47 2 -43 0 -48
-20 -51 -28 -4 -30 -22 -3 -29 24 -6 26 -33 4 -74 -8 -17 -13 -34 -9 -37 9
-10 35 28 42 61 5 25 23 39 23 17 0 -5 5 -10 10 -10 6 0 10 9 10 20 0 11 -7
20 -16 20 -8 0 -12 5 -9 10 3 6 13 10 21 10 10 0 14 -13 14 -50 0 -38 -4 -50
-15 -50 -18 0 -19 -9 0 -34 23 -31 35 -8 35 69 0 49 4 75 13 78 8 4 9 8 2 14
-6 4 -10 26 -10 48 0 35 -3 40 -23 39 -21 -1 -21 1 -6 17 16 18 13 49 -4 49
-4 0 -14 -16 -21 -35z m29 -69 c0 -9 -7 -12 -20 -9 -11 3 -20 9 -20 14 0 5 9
9 20 9 11 0 20 -6 20 -14z m-10 -49 c10 -4 8 -6 -7 -6 -16 -1 -23 5 -23 17 0
10 3 13 8 6 4 -6 14 -14 22 -17z"/>
<path d="M807 383 c-4 -3 -7 -16 -7 -29 0 -37 -10 -52 -31 -47 -21 6 -26 39
-6 46 26 9 0 15 -46 10 -37 -4 -47 -9 -43 -20 4 -8 6 -35 6 -59 0 -41 2 -45
20 -39 14 5 20 2 20 -10 0 -11 -6 -14 -25 -9 -21 5 -25 3 -25 -15 0 -18 4 -20
28 -14 15 4 42 7 60 6 37 -2 40 20 4 25 -27 4 -28 16 -3 41 14 14 21 16 25 8
3 -8 9 -7 19 6 8 9 28 17 46 17 17 0 31 5 31 10 0 6 -14 10 -30 10 -27 0 -30
2 -20 19 14 27 13 51 -3 51 -8 0 -17 -3 -20 -7z m-77 -58 c0 -8 -4 -15 -10
-15 -5 0 -10 -4 -10 -10 0 -5 10 -10 23 -10 18 0 19 -2 7 -10 -28 -18 -40 -11
-40 25 0 24 5 35 15 35 8 0 15 -7 15 -15z"/>
<path d="M818 253 c-20 -5 -24 -23 -5 -23 24 0 57 12 57 21 0 9 -22 10 -52 2z"/>
<path d="M686 153 c13 -55 39 -59 28 -5 -4 18 -13 32 -20 32 -11 0 -13 -8 -8
-27z"/>
</g>
</svg>
