<?xml version="1.0" standalone="no"?>
<!DOCTYPE svg PUBLIC "-//W3C//DTD SVG 20010904//EN"
 "http://www.w3.org/TR/2001/REC-SVG-20010904/DTD/svg10.dtd">
<svg version="1.0" xmlns="http://www.w3.org/2000/svg"
 width="50.000000pt" height="725.000000pt" viewBox="0 0 50.000000 725.000000"
 preserveAspectRatio="xMidYMid meet">
<metadata>
Created by potrace 1.16, written by Peter Selinger 2001-2019
</metadata>
<g transform="translate(0.000000,725.000000) scale(0.100000,-0.100000)"
fill="#000000" stroke="none">
<path d="M180 7169 c0 -6 -9 -24 -21 -41 -12 -16 -18 -32 -15 -36 10 -10 79
64 72 77 -9 14 -36 14 -36 0z"/>
<path d="M180 6720 c0 -7 -9 -25 -21 -42 -24 -33 -18 -49 9 -25 10 10 28 17
40 17 12 0 22 5 22 10 0 6 -4 10 -9 10 -5 0 -8 8 -7 17 0 10 -7 19 -16 21 -10
2 -18 -2 -18 -8z"/>
<path d="M310 6701 c0 -5 7 -11 15 -15 11 -4 14 -13 9 -33 -12 -55 -16 -63
-30 -63 -8 0 -14 -4 -14 -9 0 -14 28 -33 39 -26 13 7 52 136 45 147 -7 11 -64
10 -64 -1z"/>
<path d="M240 6690 c0 -5 14 -10 30 -10 17 0 30 5 30 10 0 6 -13 10 -30 10
-16 0 -30 -4 -30 -10z"/>
<path d="M180 6270 c0 -7 -9 -25 -21 -42 -24 -33 -18 -49 9 -25 10 10 28 17
40 17 12 0 22 5 22 10 0 6 -4 10 -9 10 -5 0 -8 8 -7 17 0 10 -7 19 -16 21 -10
2 -18 -2 -18 -8z"/>
<path d="M310 6251 c0 -5 7 -11 15 -15 11 -4 14 -13 9 -33 -12 -55 -16 -63
-30 -63 -8 0 -14 -4 -14 -9 0 -14 28 -33 39 -26 13 7 52 136 45 147 -7 11 -64
10 -64 -1z"/>
<path d="M240 6240 c0 -5 14 -10 30 -10 17 0 30 5 30 10 0 6 -13 10 -30 10
-16 0 -30 -4 -30 -10z"/>
<path d="M166 6178 c-8 -34 6 -40 57 -26 54 14 64 33 12 24 -28 -6 -35 -4 -35
9 0 23 -27 18 -34 -7z"/>
<path d="M180 5820 c0 -7 -9 -25 -21 -42 -24 -33 -18 -49 9 -25 10 10 28 17
40 17 12 0 22 5 22 10 0 6 -4 10 -9 10 -5 0 -8 8 -7 17 0 10 -7 19 -16 21 -10
2 -18 -2 -18 -8z"/>
<path d="M310 5801 c0 -5 7 -11 15 -15 11 -4 14 -13 9 -33 -12 -55 -16 -63
-30 -63 -8 0 -14 -4 -14 -9 0 -14 28 -33 39 -26 13 7 52 136 45 147 -7 11 -64
10 -64 -1z"/>
<path d="M240 5790 c0 -5 14 -10 30 -10 17 0 30 5 30 10 0 6 -13 10 -30 10
-16 0 -30 -4 -30 -10z"/>
<path d="M280 5745 c0 -8 -8 -15 -17 -15 -10 0 -28 -3 -40 -6 -17 -5 -23 -2
-23 10 0 24 -27 19 -34 -6 -8 -33 7 -42 49 -28 20 6 47 9 61 6 17 -5 24 -2 24
8 0 8 3 21 6 30 4 11 1 16 -10 16 -9 0 -16 -7 -16 -15z"/>
<path d="M180 5370 c0 -7 -9 -25 -21 -42 -24 -33 -18 -49 9 -25 32 29 67 16
55 -20 -6 -18 -23 -16 -23 2 0 23 -27 18 -33 -7 -8 -29 1 -41 27 -34 19 5 20
4 4 -8 -22 -16 -23 -26 -4 -26 8 0 24 12 35 26 16 20 26 25 46 20 18 -5 25 -2
25 8 0 8 3 21 6 30 4 11 1 16 -10 16 -9 0 -16 -7 -16 -15 0 -8 -7 -15 -15 -15
-8 0 -15 7 -15 16 0 9 -8 24 -17 33 -10 9 -18 23 -18 31 0 8 -8 16 -17 18 -10
2 -18 -2 -18 -8z"/>
<path d="M310 5351 c0 -5 7 -11 15 -15 11 -4 14 -13 9 -33 -12 -55 -16 -63
-30 -63 -8 0 -14 -4 -14 -9 0 -14 28 -33 39 -26 13 7 52 136 45 147 -7 11 -64
10 -64 -1z"/>
<path d="M240 5340 c0 -5 14 -10 30 -10 17 0 30 5 30 10 0 6 -13 10 -30 10
-16 0 -30 -4 -30 -10z"/>
<path d="M180 4920 c0 -7 -9 -25 -21 -42 -24 -33 -18 -49 9 -25 32 29 67 16
55 -20 -6 -18 -23 -16 -23 2 0 23 -27 18 -33 -7 -8 -29 1 -41 27 -34 21 5 21
5 1 -11 -15 -11 -17 -17 -7 -20 10 -4 6 -13 -14 -34 -38 -40 -23 -48 26 -14
37 26 53 55 30 55 -6 0 -5 8 2 21 10 15 20 19 41 15 19 -4 27 -1 27 8 0 8 3
21 6 30 4 11 1 16 -10 16 -9 0 -16 -7 -16 -15 0 -8 -7 -15 -15 -15 -8 0 -15 7
-15 16 0 9 -8 24 -17 33 -10 9 -18 23 -18 31 0 8 -8 16 -17 18 -10 2 -18 -2
-18 -8z"/>
<path d="M310 4901 c0 -5 7 -11 15 -15 11 -4 14 -13 9 -33 -12 -55 -16 -63
-30 -63 -8 0 -14 -4 -14 -9 0 -14 28 -33 39 -26 13 7 52 136 45 147 -7 11 -64
10 -64 -1z"/>
<path d="M240 4890 c0 -5 14 -10 30 -10 17 0 30 5 30 10 0 6 -13 10 -30 10
-16 0 -30 -4 -30 -10z"/>
<path d="M180 4470 c0 -7 -9 -25 -21 -42 -24 -33 -18 -49 9 -25 32 29 67 16
55 -20 -6 -18 -23 -16 -23 2 0 23 -27 18 -33 -7 -8 -29 1 -41 27 -34 21 5 21
5 1 -11 -15 -11 -17 -17 -7 -20 10 -4 6 -13 -14 -34 -31 -33 -26 -49 8 -27 30
19 153 33 163 19 3 -6 3 -32 -1 -57 -5 -33 -12 -48 -25 -51 -21 -6 -24 -20 -9
-43 7 -12 13 -12 27 -4 20 12 26 31 41 114 9 47 8 57 -6 68 -9 7 -21 11 -27 8
-6 -2 0 28 12 66 13 39 20 74 17 79 -7 12 -64 12 -64 0 0 -5 7 -12 16 -15 9
-3 13 -13 11 -23 -3 -10 -8 -30 -11 -45 -4 -16 -13 -28 -21 -28 -18 0 -20 -16
-3 -26 8 -5 6 -10 -8 -15 -31 -12 -54 -10 -54 6 0 8 -5 15 -10 15 -6 0 -5 8 2
21 10 15 20 19 41 15 19 -4 27 -1 27 8 0 8 3 21 6 30 4 11 1 16 -10 16 -9 0
-16 -7 -16 -15 0 -8 -7 -15 -15 -15 -8 0 -15 7 -15 16 0 9 -8 24 -17 33 -10 9
-18 23 -18 31 0 8 -8 16 -17 18 -10 2 -18 -2 -18 -8z"/>
<path d="M240 4440 c0 -5 14 -10 30 -10 17 0 30 5 30 10 0 6 -13 10 -30 10
-16 0 -30 -4 -30 -10z"/>
<path d="M180 4020 c0 -7 -9 -25 -21 -42 -24 -33 -18 -49 9 -25 32 29 67 16
55 -20 -6 -18 -23 -16 -23 2 0 23 -27 18 -33 -7 -8 -29 1 -41 27 -34 21 5 21
5 1 -11 -15 -11 -17 -17 -7 -20 10 -4 8 -11 -9 -29 -16 -17 -23 -38 -25 -70
-1 -42 0 -45 20 -40 11 4 42 9 69 13 26 3 47 10 47 16 0 6 -21 7 -55 3 -44 -5
-53 -4 -49 8 3 8 0 17 -6 21 -21 13 23 32 91 39 44 5 69 4 74 -3 3 -6 3 -32
-1 -57 -5 -33 -12 -48 -25 -51 -21 -6 -24 -20 -9 -43 7 -12 13 -12 27 -4 20
12 26 31 41 114 9 47 8 57 -6 68 -9 7 -21 11 -27 8 -6 -2 0 28 12 66 13 39 20
74 17 79 -7 12 -64 12 -64 0 0 -5 7 -11 15 -15 11 -4 14 -13 9 -33 -12 -55
-16 -63 -30 -63 -17 0 -19 -16 -2 -26 8 -5 6 -10 -8 -15 -31 -12 -54 -10 -54
6 0 8 -5 15 -10 15 -6 0 -5 8 2 21 10 15 20 19 41 15 19 -4 27 -1 27 8 0 8 3
21 6 30 4 11 1 16 -10 16 -9 0 -16 -7 -16 -15 0 -8 -7 -15 -15 -15 -8 0 -15 7
-15 16 0 9 -8 24 -17 33 -10 9 -18 23 -18 31 0 8 -8 16 -17 18 -10 2 -18 -2
-18 -8z"/>
<path d="M240 3990 c0 -5 14 -10 30 -10 17 0 30 5 30 10 0 6 -13 10 -30 10
-16 0 -30 -4 -30 -10z"/>
<path d="M180 3570 c0 -7 -9 -25 -21 -42 -24 -33 -18 -49 9 -25 32 29 67 16
55 -20 -6 -18 -23 -16 -23 2 0 23 -27 18 -33 -7 -8 -29 1 -41 27 -34 21 5 21
5 1 -11 -15 -11 -17 -17 -7 -20 10 -4 8 -11 -9 -29 -16 -17 -23 -38 -25 -70
-1 -45 -1 -45 25 -38 14 4 49 8 76 9 50 1 50 2 50 35 0 18 -6 35 -12 38 -8 2
-13 -6 -13 -22 0 -19 -5 -26 -19 -26 -10 0 -33 -3 -50 -6 -25 -5 -30 -4 -25 9
3 8 0 18 -6 22 -21 13 23 32 91 39 44 5 69 4 74 -3 3 -6 3 -32 -1 -57 -5 -33
-12 -48 -25 -51 -21 -6 -24 -20 -9 -43 7 -12 13 -12 27 -4 20 12 26 31 41 114
9 47 8 57 -6 68 -9 7 -21 11 -27 8 -6 -2 0 28 12 66 13 39 20 74 17 79 -7 12
-64 12 -64 0 0 -5 7 -11 15 -15 11 -4 14 -13 9 -33 -12 -55 -16 -63 -30 -63
-17 0 -19 -16 -2 -26 8 -5 6 -10 -8 -15 -31 -12 -54 -10 -54 6 0 8 -5 15 -10
15 -6 0 -5 8 2 21 10 15 20 19 41 15 19 -4 27 -1 27 8 0 8 3 21 6 30 4 11 1
16 -10 16 -9 0 -16 -7 -16 -15 0 -8 -7 -15 -15 -15 -8 0 -15 7 -15 16 0 9 -8
24 -17 33 -10 9 -18 23 -18 31 0 8 -8 16 -17 18 -10 2 -18 -2 -18 -8z"/>
<path d="M240 3540 c0 -5 14 -10 30 -10 17 0 30 5 30 10 0 6 -13 10 -30 10
-16 0 -30 -4 -30 -10z"/>
<path d="M180 3120 c0 -7 -9 -25 -21 -42 -24 -33 -18 -49 9 -25 32 29 67 16
55 -20 -6 -18 -23 -16 -23 2 0 23 -27 18 -33 -7 -8 -29 1 -41 27 -34 21 5 21
5 1 -11 -15 -11 -17 -17 -7 -20 10 -4 8 -11 -9 -29 -16 -17 -23 -38 -25 -70
l-2 -45 32 7 31 6 -24 -26 c-14 -14 -22 -29 -18 -32 10 -10 55 23 62 46 5 17
14 20 38 18 30 -3 32 -1 32 31 0 19 -6 36 -12 39 -8 2 -13 -6 -13 -22 0 -17
-6 -26 -15 -26 -21 0 -16 52 5 62 23 10 68 9 75 -2 3 -6 3 -31 -1 -56 -5 -33
-12 -48 -25 -51 -21 -6 -24 -20 -9 -43 7 -12 13 -12 27 -4 20 12 26 31 41 114
9 47 8 57 -6 68 -9 7 -21 11 -27 8 -6 -2 0 28 12 66 13 39 20 74 17 79 -7 12
-64 12 -64 0 0 -5 7 -11 15 -15 11 -4 14 -13 9 -33 -12 -55 -16 -63 -30 -63
-17 0 -19 -16 -2 -26 8 -5 6 -10 -8 -15 -31 -12 -54 -10 -54 6 0 8 -5 15 -10
15 -6 0 -5 8 2 21 10 15 20 19 41 15 19 -4 27 -1 27 8 0 8 3 21 6 30 4 11 1
16 -10 16 -9 0 -16 -7 -16 -15 0 -8 -7 -15 -15 -15 -8 0 -15 7 -15 16 0 9 -8
24 -17 33 -10 9 -18 23 -18 31 0 8 -8 16 -17 18 -10 2 -18 -2 -18 -8z m38
-232 c-2 -22 -9 -34 -20 -36 -12 -2 -16 1 -12 11 3 8 0 18 -6 22 -8 5 -5 11 7
21 28 21 35 17 31 -18z"/>
<path d="M240 3090 c0 -5 14 -10 30 -10 17 0 30 5 30 10 0 6 -13 10 -30 10
-16 0 -30 -4 -30 -10z"/>
</g>
</svg>
