<?xml version="1.0" standalone="no"?>
<!DOCTYPE svg PUBLIC "-//W3C//DTD SVG 20010904//EN"
 "http://www.w3.org/TR/2001/REC-SVG-20010904/DTD/svg10.dtd">
<svg version="1.0" xmlns="http://www.w3.org/2000/svg"
 width="50.000000pt" height="725.000000pt" viewBox="0 0 50.000000 725.000000"
 preserveAspectRatio="xMidYMid meet">
<metadata>
Created by potrace 1.16, written by Peter Selinger 2001-2019
</metadata>
<g transform="translate(0.000000,725.000000) scale(0.100000,-0.100000)"
fill="#000000" stroke="none">
<path d="M163 7148 c3 -7 11 -30 18 -50 17 -52 31 -47 27 10 -3 41 -6 47 -27
50 -16 3 -22 0 -18 -10z"/>
<path d="M160 6704 c0 -3 5 -14 10 -25 10 -17 7 -19 -20 -19 -21 0 -30 -4 -27
-12 2 -8 17 -12 36 -10 22 1 31 -2 31 -13 0 -8 5 -15 10 -15 6 0 10 9 10 19 0
11 6 22 13 24 8 4 9 8 1 14 -6 4 -13 16 -17 26 -6 15 -47 25 -47 11z"/>
<path d="M160 6254 c0 -3 5 -14 10 -25 10 -17 7 -19 -20 -19 -21 0 -30 -4 -27
-12 2 -8 17 -12 36 -10 22 1 31 -2 31 -13 0 -8 5 -15 10 -15 6 0 10 9 10 19 0
11 6 22 13 24 8 4 9 8 1 14 -6 4 -13 16 -17 26 -6 15 -47 25 -47 11z"/>
<path d="M297 6223 c-24 -3 -37 -9 -34 -16 2 -7 9 -12 15 -11 7 1 35 2 63 3
36 1 49 5 47 14 -5 13 -32 16 -91 10z"/>
<path d="M308 5803 c-2 -20 -9 -29 -26 -31 -25 -4 -25 -28 1 -26 9 1 13 -4 10
-12 -3 -8 0 -14 6 -14 7 0 14 7 17 15 4 9 19 15 41 15 38 0 43 23 5 28 -14 2
-19 8 -15 19 5 13 -11 32 -29 33 -4 0 -8 -12 -10 -27z"/>
<path d="M160 5804 c0 -3 5 -14 10 -25 10 -17 7 -19 -20 -19 -21 0 -30 -4 -27
-12 2 -8 17 -12 36 -10 22 1 31 -2 31 -13 0 -8 5 -15 10 -15 6 0 10 9 10 19 0
11 6 22 13 24 8 4 9 8 1 14 -6 4 -13 16 -17 26 -6 15 -47 25 -47 11z"/>
<path d="M308 5353 c-2 -20 -9 -29 -26 -31 -25 -4 -25 -28 1 -26 9 1 13 -4 10
-12 -3 -8 0 -14 6 -14 7 0 14 7 17 15 4 9 19 15 41 15 38 0 43 23 5 28 -14 2
-19 8 -15 19 5 13 -11 32 -29 33 -4 0 -8 -12 -10 -27z"/>
<path d="M160 5354 c0 -3 5 -14 10 -25 10 -17 7 -19 -20 -19 -21 0 -30 -4 -27
-12 2 -8 17 -12 36 -10 22 1 31 -2 31 -13 0 -8 5 -15 10 -15 6 0 10 9 10 19 0
11 6 22 13 24 8 4 9 8 1 14 -6 4 -13 16 -17 26 -6 15 -47 25 -47 11z"/>
<path d="M217 5238 c-57 -7 -86 -14 -84 -22 2 -6 15 -10 28 -9 13 2 68 6 122
9 64 5 96 11 94 18 -5 15 -53 16 -160 4z"/>
<path d="M308 4903 c-2 -20 -9 -29 -26 -31 -25 -4 -25 -28 1 -26 9 1 13 -4 10
-12 -3 -8 0 -14 6 -14 7 0 14 7 17 15 4 9 19 15 41 15 38 0 43 23 5 28 -14 2
-19 8 -15 19 5 13 -11 32 -29 33 -4 0 -8 -12 -10 -27z"/>
<path d="M160 4904 c0 -3 5 -14 10 -25 10 -17 7 -19 -20 -19 -21 0 -30 -4 -27
-12 2 -8 17 -12 36 -10 22 1 31 -2 31 -13 0 -8 5 -15 10 -15 6 0 10 9 10 19 0
11 6 22 13 24 8 4 9 8 1 14 -6 4 -13 16 -17 26 -6 15 -47 25 -47 11z"/>
<path d="M217 4788 c-57 -7 -86 -14 -84 -22 2 -6 15 -10 28 -9 13 2 68 6 122
9 64 5 96 11 94 18 -5 15 -53 16 -160 4z"/>
<path d="M157 4683 c-3 -27 -1 -52 4 -57 13 -14 17 -6 25 52 5 43 4 52 -8 52
-11 0 -17 -14 -21 -47z"/>
<path d="M308 4453 c-2 -20 -9 -29 -26 -31 -25 -4 -25 -28 1 -26 9 1 13 -4 10
-12 -3 -8 0 -14 6 -14 7 0 14 7 17 15 4 9 19 15 41 15 38 0 43 23 5 28 -14 2
-19 8 -15 19 5 13 -11 32 -29 33 -4 0 -8 -12 -10 -27z"/>
<path d="M160 4454 c0 -3 5 -14 10 -25 10 -17 7 -19 -20 -19 -21 0 -30 -4 -27
-12 2 -8 17 -12 36 -10 22 1 31 -2 31 -13 0 -8 5 -15 10 -15 6 0 10 9 10 19 0
11 6 22 13 24 8 4 9 8 1 14 -6 4 -13 16 -17 26 -6 15 -47 25 -47 11z"/>
<path d="M217 4338 c-57 -7 -86 -14 -84 -22 2 -6 15 -10 28 -9 13 2 68 6 122
9 64 5 96 11 94 18 -5 15 -53 16 -160 4z"/>
<path d="M236 4289 c-38 -5 -71 -10 -72 -12 -1 -1 -4 -24 -6 -51 -4 -64 17
-74 26 -12 5 34 12 45 29 50 32 8 105 7 110 -2 10 -15 -6 -62 -20 -62 -10 0
-13 -6 -9 -16 3 -9 6 -18 6 -20 0 -2 9 -4 20 -4 22 0 29 19 32 90 3 53 -1 54
-116 39z"/>
<path d="M308 4003 c-2 -20 -9 -29 -26 -31 -25 -4 -25 -28 1 -26 9 1 13 -4 10
-12 -3 -8 0 -14 6 -14 7 0 14 7 17 15 4 9 19 15 41 15 38 0 43 23 5 28 -14 2
-19 8 -15 19 5 13 -11 32 -29 33 -4 0 -8 -12 -10 -27z"/>
<path d="M160 4004 c0 -3 5 -14 10 -25 10 -17 7 -19 -20 -19 -21 0 -30 -4 -27
-12 2 -8 17 -12 36 -10 22 1 31 -2 31 -13 0 -8 5 -15 10 -15 6 0 10 9 10 19 0
11 6 22 13 24 8 4 9 8 1 14 -6 4 -13 16 -17 26 -6 15 -47 25 -47 11z"/>
<path d="M235 3911 c6 -21 -17 -31 -73 -31 -23 0 -32 -4 -29 -12 3 -9 21 -12
55 -10 62 5 71 -15 12 -24 -37 -6 -40 -9 -42 -40 -1 -19 -2 -41 -2 -51 -1 -9
4 -18 10 -20 7 -2 14 15 18 42 4 25 11 45 16 45 5 0 15 3 24 6 14 5 16 -5 16
-70 0 -44 4 -76 10 -76 6 0 10 32 10 75 l0 75 29 0 c17 0 32 -3 34 -8 10 -15
-6 -62 -20 -62 -10 0 -13 -6 -9 -16 3 -9 6 -18 6 -20 0 -2 9 -4 20 -4 22 0 29
19 32 90 l3 45 -42 -2 c-32 -1 -43 2 -43 13 0 10 14 14 56 14 40 0 54 3 51 13
-3 8 -22 12 -56 11 -44 -2 -51 1 -51 17 0 13 -7 19 -21 19 -15 0 -19 -5 -14
-19z"/>
</g>
</svg>
