<?xml version="1.0" standalone="no"?>
<!DOCTYPE svg PUBLIC "-//W3C//DTD SVG 20010904//EN"
 "http://www.w3.org/TR/2001/REC-SVG-20010904/DTD/svg10.dtd">
<svg version="1.0" xmlns="http://www.w3.org/2000/svg"
 width="50.000000pt" height="725.000000pt" viewBox="0 0 50.000000 725.000000"
 preserveAspectRatio="xMidYMid meet">
<metadata>
Created by potrace 1.16, written by Peter Selinger 2001-2019
</metadata>
<g transform="translate(0.000000,725.000000) scale(0.100000,-0.100000)"
fill="#000000" stroke="none">
<path d="M172 7153 c2 -5 10 -25 18 -45 23 -61 37 -48 24 21 -5 22 -12 31 -26
31 -11 0 -18 -3 -16 -7z"/>
<path d="M176 6685 c6 -23 3 -25 -26 -25 -21 0 -30 -4 -27 -12 2 -8 18 -12 41
-10 20 2 36 -2 36 -8 0 -5 4 -10 9 -10 12 0 22 44 11 48 -6 2 -10 12 -10 23 0
12 -7 19 -20 19 -17 0 -19 -5 -14 -25z"/>
<path d="M176 6235 c6 -23 3 -25 -26 -25 -21 0 -30 -4 -27 -12 2 -8 18 -12 41
-10 20 2 36 -2 36 -8 0 -5 4 -10 9 -10 12 0 22 44 11 48 -6 2 -10 12 -10 23 0
12 -7 19 -20 19 -17 0 -19 -5 -14 -25z"/>
<path d="M303 6228 c-50 -11 -60 -34 -12 -24 17 3 44 6 60 6 19 0 29 5 29 15
0 17 -15 17 -77 3z"/>
<path d="M300 5804 c0 -17 -6 -28 -20 -31 -23 -6 -27 -23 -5 -23 9 0 12 -6 9
-15 -9 -22 14 -18 26 5 7 13 21 20 40 20 21 0 30 5 30 16 0 12 -7 15 -26 11
-20 -3 -24 -1 -19 11 5 14 -10 31 -27 32 -5 0 -8 -12 -8 -26z"/>
<path d="M176 5785 c6 -23 3 -25 -26 -25 -21 0 -30 -4 -27 -12 2 -8 18 -12 41
-10 20 2 36 -2 36 -8 0 -5 4 -10 9 -10 12 0 22 44 11 48 -6 2 -10 12 -10 23 0
12 -7 19 -20 19 -17 0 -19 -5 -14 -25z"/>
<path d="M300 5354 c0 -17 -6 -28 -20 -31 -23 -6 -27 -23 -5 -23 9 0 12 -6 9
-15 -9 -22 14 -18 26 5 7 13 21 20 40 20 21 0 30 5 30 16 0 12 -7 15 -26 11
-20 -3 -24 -1 -19 11 5 14 -10 31 -27 32 -5 0 -8 -12 -8 -26z"/>
<path d="M176 5335 c6 -23 3 -25 -26 -25 -21 0 -30 -4 -27 -12 2 -8 18 -12 41
-10 20 2 36 -2 36 -8 0 -5 4 -10 9 -10 12 0 22 44 11 48 -6 2 -10 12 -10 23 0
12 -7 19 -20 19 -17 0 -19 -5 -14 -25z"/>
<path d="M298 5253 c-80 -7 -53 -23 38 -23 64 0 85 3 82 13 -5 13 -44 16 -120
10z"/>
<path d="M128 5233 c-21 -2 -38 -9 -38 -15 0 -7 18 -9 53 -4 28 3 60 6 70 6 9
0 17 5 17 10 0 10 -28 11 -102 3z"/>
<path d="M300 4904 c0 -17 -6 -28 -20 -31 -23 -6 -27 -23 -5 -23 9 0 12 -6 9
-15 -9 -22 14 -18 26 5 7 13 21 20 40 20 21 0 30 5 30 16 0 12 -7 15 -26 11
-20 -3 -24 -1 -19 11 5 14 -10 31 -27 32 -5 0 -8 -12 -8 -26z"/>
<path d="M176 4885 c6 -23 3 -25 -26 -25 -21 0 -30 -4 -27 -12 2 -8 18 -12 41
-10 20 2 36 -2 36 -8 0 -5 4 -10 9 -10 12 0 22 44 11 48 -6 2 -10 12 -10 23 0
12 -7 19 -20 19 -17 0 -19 -5 -14 -25z"/>
<path d="M298 4803 c-80 -7 -53 -23 38 -23 64 0 85 3 82 13 -5 13 -44 16 -120
10z"/>
<path d="M128 4783 c-21 -2 -38 -9 -38 -15 0 -7 18 -9 53 -4 28 3 60 6 70 6 9
0 17 5 17 10 0 10 -28 11 -102 3z"/>
<path d="M145 4714 c4 -11 10 -29 12 -41 8 -37 24 -26 21 14 -2 28 -8 39 -22
41 -15 3 -17 0 -11 -14z"/>
<path d="M300 4454 c0 -17 -6 -28 -20 -31 -23 -6 -27 -23 -5 -23 9 0 12 -6 9
-15 -9 -22 14 -18 26 5 7 13 21 20 40 20 21 0 30 5 30 16 0 12 -7 15 -26 11
-20 -3 -24 -1 -19 11 5 14 -10 31 -27 32 -5 0 -8 -12 -8 -26z"/>
<path d="M176 4435 c6 -23 3 -25 -26 -25 -21 0 -30 -4 -27 -12 2 -8 18 -12 41
-10 20 2 36 -2 36 -8 0 -5 4 -10 9 -10 12 0 22 44 11 48 -6 2 -10 12 -10 23 0
12 -7 19 -20 19 -17 0 -19 -5 -14 -25z"/>
<path d="M298 4353 c-80 -7 -53 -23 38 -23 64 0 85 3 82 13 -5 13 -44 16 -120
10z"/>
<path d="M128 4333 c-21 -2 -38 -9 -38 -15 0 -7 18 -9 53 -4 28 3 60 6 70 6 9
0 17 5 17 10 0 10 -28 11 -102 3z"/>
<path d="M214 4255 c0 -41 22 -48 32 -11 7 28 -1 46 -20 46 -7 0 -12 -14 -12
-35z"/>
<path d="M145 4263 c4 -10 10 -28 12 -40 8 -33 23 -28 23 7 0 17 5 30 10 30 6
0 10 5 10 10 0 6 -14 10 -31 10 -26 0 -30 -3 -24 -17z"/>
<path d="M300 4004 c0 -17 -6 -28 -20 -31 -23 -6 -27 -23 -5 -23 9 0 12 -6 9
-15 -9 -22 14 -18 26 5 7 13 21 20 40 20 21 0 30 5 30 16 0 12 -7 15 -26 11
-20 -3 -24 -1 -19 11 5 14 -10 31 -27 32 -5 0 -8 -12 -8 -26z"/>
<path d="M176 3985 c6 -23 3 -25 -26 -25 -21 0 -30 -4 -27 -12 2 -8 18 -12 41
-10 20 2 36 -2 36 -8 0 -5 4 -10 9 -10 12 0 22 44 11 48 -6 2 -10 12 -10 23 0
12 -7 19 -20 19 -17 0 -19 -5 -14 -25z"/>
<path d="M298 3903 c-80 -7 -53 -23 38 -23 64 0 85 3 82 13 -5 13 -44 16 -120
10z"/>
<path d="M128 3883 c-21 -2 -38 -9 -38 -15 0 -7 18 -9 53 -4 28 3 60 6 70 6 9
0 17 5 17 10 0 10 -28 11 -102 3z"/>
<path d="M215 3820 c7 -21 -9 -50 -26 -50 -5 0 -9 9 -9 20 0 11 5 20 10 20 6
0 10 5 10 10 0 6 -14 10 -31 10 -26 0 -30 -3 -24 -17 4 -10 10 -29 13 -41 4
-21 8 -23 41 -17 44 8 43 7 44 46 2 25 -3 34 -16 37 -15 3 -18 0 -12 -18z"/>
<path d="M300 3554 c0 -17 -6 -28 -20 -31 -23 -6 -27 -23 -5 -23 9 0 12 -6 9
-15 -9 -22 14 -18 26 5 7 13 21 20 40 20 21 0 30 5 30 16 0 12 -7 15 -26 11
-20 -3 -24 -1 -19 11 5 14 -10 31 -27 32 -5 0 -8 -12 -8 -26z"/>
<path d="M176 3535 c6 -23 3 -25 -26 -25 -21 0 -30 -4 -27 -12 2 -8 18 -12 41
-10 20 2 36 -2 36 -8 0 -5 4 -10 9 -10 12 0 22 44 11 48 -6 2 -10 12 -10 23 0
12 -7 19 -20 19 -17 0 -19 -5 -14 -25z"/>
<path d="M298 3453 c-27 -2 -48 -8 -48 -14 0 -5 6 -9 14 -9 18 0 26 -31 26
-103 0 -51 -3 -60 -20 -64 -25 -7 -25 -15 0 -38 33 -30 45 -6 46 93 0 119 -3
112 55 112 36 0 49 4 47 13 -5 13 -44 16 -120 10z"/>
<path d="M128 3433 c-21 -2 -38 -9 -38 -15 0 -7 18 -9 53 -4 28 3 60 6 70 6 9
0 17 5 17 10 0 10 -28 11 -102 3z"/>
<path d="M215 3370 c7 -21 -9 -50 -26 -50 -5 0 -9 9 -9 20 0 11 5 20 10 20 6
0 10 5 10 10 0 6 -14 10 -31 10 -26 0 -30 -3 -24 -17 4 -10 10 -29 13 -41 4
-21 8 -23 41 -17 44 8 43 7 44 46 2 25 -3 34 -16 37 -15 3 -18 0 -12 -18z"/>
</g>
</svg>
