<?xml version="1.0" standalone="no"?>
<!DOCTYPE svg PUBLIC "-//W3C//DTD SVG 20010904//EN"
 "http://www.w3.org/TR/2001/REC-SVG-20010904/DTD/svg10.dtd">
<svg version="1.0" xmlns="http://www.w3.org/2000/svg"
 width="50.000000pt" height="725.000000pt" viewBox="0 0 50.000000 725.000000"
 preserveAspectRatio="xMidYMid meet">
<metadata>
Created by potrace 1.16, written by Peter Selinger 2001-2019
</metadata>
<g transform="translate(0.000000,725.000000) scale(0.100000,-0.100000)"
fill="#000000" stroke="none">
<path d="M154 7148 c2 -7 10 -30 17 -50 17 -52 33 -49 25 4 -4 22 -9 45 -12
50 -8 13 -36 9 -30 -4z"/>
<path d="M150 6704 c0 -3 5 -14 10 -24 9 -17 6 -20 -25 -26 -19 -3 -35 -10
-35 -14 0 -14 31 -20 51 -10 15 8 21 7 25 -5 9 -22 24 -19 24 5 0 11 5 20 10
20 6 0 10 5 10 10 0 6 -6 10 -14 10 -7 0 -16 9 -19 20 -4 17 -37 30 -37 14z"/>
<path d="M150 6254 c0 -3 5 -14 10 -24 9 -17 6 -20 -25 -26 -19 -3 -35 -10
-35 -14 0 -14 31 -20 51 -10 15 8 21 7 25 -5 9 -22 24 -19 24 5 0 11 5 20 10
20 6 0 10 5 10 10 0 6 -6 10 -14 10 -7 0 -16 9 -19 20 -4 17 -37 30 -37 14z"/>
<path d="M288 6223 c-31 -5 -39 -23 -10 -23 37 0 92 13 92 21 0 9 -31 10 -82
2z"/>
<path d="M280 5796 c0 -14 -5 -26 -11 -26 -6 0 -8 -9 -3 -22 9 -32 10 -32 33
-9 12 12 32 21 46 21 14 0 25 5 25 10 0 6 -13 10 -29 10 -21 0 -28 5 -27 17 0
10 -7 19 -16 21 -14 3 -18 -3 -18 -22z"/>
<path d="M150 5804 c0 -3 5 -14 10 -24 9 -17 6 -20 -25 -26 -19 -3 -35 -10
-35 -14 0 -14 31 -20 51 -10 15 8 21 7 25 -5 9 -22 24 -19 24 5 0 11 5 20 10
20 6 0 10 5 10 10 0 6 -6 10 -14 10 -7 0 -16 9 -19 20 -4 17 -37 30 -37 14z"/>
<path d="M280 5346 c0 -14 -5 -26 -11 -26 -6 0 -8 -9 -3 -22 9 -32 10 -32 33
-9 12 12 32 21 46 21 14 0 25 5 25 10 0 6 -13 10 -29 10 -21 0 -28 5 -27 17 0
10 -7 19 -16 21 -14 3 -18 -3 -18 -22z"/>
<path d="M150 5354 c0 -3 5 -14 10 -24 9 -17 6 -20 -25 -26 -19 -3 -35 -10
-35 -14 0 -14 31 -20 50 -10 15 8 21 6 29 -7 7 -14 5 -23 -11 -40 -31 -33 -14
-40 27 -12 36 25 46 49 20 49 -8 0 -15 7 -15 15 0 8 5 15 10 15 6 0 10 5 10
10 0 6 -6 10 -14 10 -7 0 -16 9 -19 20 -4 17 -37 30 -37 14z"/>
<path d="M280 4896 c0 -14 -5 -26 -11 -26 -6 0 -8 -9 -3 -22 9 -32 10 -32 33
-9 12 12 32 21 46 21 14 0 25 5 25 10 0 6 -13 10 -29 10 -21 0 -28 5 -27 17 0
10 -7 19 -16 21 -14 3 -18 -3 -18 -22z"/>
<path d="M150 4904 c0 -3 5 -14 10 -24 9 -17 6 -20 -25 -26 -19 -3 -35 -10
-35 -14 0 -14 31 -20 50 -10 15 8 21 6 29 -7 7 -14 5 -23 -11 -40 -12 -13 -20
-25 -17 -27 7 -7 99 17 99 26 0 4 -4 8 -10 8 -5 0 -10 7 -10 15 0 8 -7 15 -15
15 -8 0 -15 7 -15 15 0 8 5 15 10 15 6 0 10 5 10 10 0 6 -6 10 -14 10 -7 0
-16 9 -19 20 -4 17 -37 30 -37 14z"/>
<path d="M270 4790 c0 -5 7 -10 15 -10 17 0 20 -36 5 -74 -6 -17 -14 -24 -25
-20 -19 8 -19 -6 -1 -32 14 -17 16 -18 31 -3 17 16 47 128 39 141 -7 12 -64
10 -64 -2z"/>
<path d="M280 4446 c0 -14 -5 -26 -11 -26 -6 0 -8 -9 -3 -22 9 -32 10 -32 33
-9 12 12 32 21 46 21 14 0 25 5 25 10 0 6 -13 10 -29 10 -21 0 -28 5 -27 17 0
10 -7 19 -16 21 -14 3 -18 -3 -18 -22z"/>
<path d="M150 4454 c0 -3 5 -14 10 -24 9 -17 6 -20 -25 -26 -19 -3 -35 -10
-35 -14 0 -14 31 -20 50 -10 15 8 21 6 29 -7 7 -14 5 -23 -11 -40 -12 -13 -20
-25 -17 -27 7 -7 99 17 99 26 0 4 -4 8 -10 8 -5 0 -10 7 -10 15 0 8 -7 15 -15
15 -8 0 -15 7 -15 15 0 8 5 15 10 15 6 0 10 5 10 10 0 6 -6 10 -14 10 -7 0
-16 9 -19 20 -4 17 -37 30 -37 14z"/>
<path d="M270 4340 c0 -5 7 -10 15 -10 17 0 20 -36 5 -74 -6 -17 -14 -24 -25
-20 -19 8 -19 -6 -1 -32 14 -17 16 -18 31 -3 17 16 47 128 39 141 -7 12 -64
10 -64 -2z"/>
<path d="M180 4280 c0 -5 5 -10 10 -10 6 0 10 -9 10 -20 0 -25 16 -26 30 -1
16 32 12 41 -20 41 -16 0 -30 -4 -30 -10z"/>
<path d="M280 3996 c0 -14 -5 -26 -11 -26 -6 0 -8 -9 -3 -22 9 -32 10 -32 33
-9 12 12 32 21 46 21 14 0 25 5 25 10 0 6 -13 10 -29 10 -21 0 -28 5 -27 17 0
10 -7 19 -16 21 -14 3 -18 -3 -18 -22z"/>
<path d="M150 4004 c0 -3 5 -14 10 -24 9 -17 6 -20 -25 -26 -19 -3 -35 -10
-35 -14 0 -14 31 -20 50 -10 15 8 21 6 29 -7 7 -14 5 -23 -11 -40 -12 -13 -20
-25 -17 -27 7 -7 99 17 99 26 0 4 -4 8 -10 8 -5 0 -10 7 -10 15 0 8 -7 15 -15
15 -8 0 -15 7 -15 15 0 8 5 15 10 15 6 0 10 5 10 10 0 6 -6 10 -14 10 -7 0
-16 9 -19 20 -4 17 -37 30 -37 14z"/>
<path d="M270 3890 c0 -5 7 -10 15 -10 17 0 20 -36 5 -74 -6 -17 -14 -24 -25
-20 -19 8 -19 -6 -1 -32 14 -17 16 -18 31 -3 17 16 47 128 39 141 -7 12 -64
10 -64 -2z"/>
<path d="M180 3830 c0 -5 5 -10 10 -10 21 0 9 -28 -15 -34 -14 -4 -25 -11 -25
-17 0 -7 9 -9 23 -5 12 3 27 6 33 6 11 0 34 42 34 60 0 6 -13 10 -30 10 -16 0
-30 -4 -30 -10z"/>
<path d="M280 3546 c0 -14 -5 -26 -11 -26 -6 0 -8 -9 -3 -22 9 -32 10 -32 33
-9 12 12 32 21 46 21 14 0 25 5 25 10 0 6 -13 10 -29 10 -21 0 -28 5 -27 17 0
10 -7 19 -16 21 -14 3 -18 -3 -18 -22z"/>
<path d="M150 3554 c0 -3 5 -14 10 -24 9 -17 6 -20 -25 -26 -19 -3 -35 -10
-35 -14 0 -14 31 -20 50 -10 15 8 21 6 29 -7 7 -14 5 -23 -11 -40 -12 -13 -20
-25 -17 -27 7 -7 99 17 99 26 0 4 -4 8 -10 8 -5 0 -10 7 -10 15 0 8 -7 15 -15
15 -8 0 -15 7 -15 15 0 8 5 15 10 15 6 0 10 5 10 10 0 6 -6 10 -14 10 -7 0
-16 9 -19 20 -4 17 -37 30 -37 14z"/>
<path d="M270 3440 c0 -5 7 -10 15 -10 17 0 20 -36 5 -74 -6 -17 -14 -24 -25
-20 -19 8 -19 -6 -1 -32 14 -17 16 -18 31 -3 17 16 47 128 39 141 -7 12 -64
10 -64 -2z"/>
<path d="M137 3323 c3 -38 12 -75 19 -83 20 -21 156 -26 209 -8 35 12 40 17
38 42 -3 42 -11 44 -37 11 -23 -29 -27 -30 -105 -30 -62 0 -84 4 -91 15 -17
26 -11 40 19 46 17 4 33 16 40 30 17 37 14 44 -19 44 -16 0 -30 -4 -30 -10 0
-5 5 -10 10 -10 19 0 10 -28 -11 -33 -18 -5 -20 -2 -15 18 5 20 -7 35 -29 35
-1 0 0 -30 2 -67z"/>
</g>
</svg>
