<?xml version="1.0" standalone="no"?>
<!DOCTYPE svg PUBLIC "-//W3C//DTD SVG 20010904//EN"
 "http://www.w3.org/TR/2001/REC-SVG-20010904/DTD/svg10.dtd">
<svg version="1.0" xmlns="http://www.w3.org/2000/svg"
 width="50.000000pt" height="725.000000pt" viewBox="0 0 50.000000 725.000000"
 preserveAspectRatio="xMidYMid meet">
<metadata>
Created by potrace 1.16, written by Peter Selinger 2001-2019
</metadata>
<g transform="translate(0.000000,725.000000) scale(0.100000,-0.100000)"
fill="#000000" stroke="none">
<path d="M174 7125 c12 -46 26 -75 36 -75 7 0 9 14 5 38 -10 55 -13 62 -31 62
-12 0 -15 -6 -10 -25z"/>
<path d="M174 6676 c6 -25 -7 -36 -45 -36 -10 0 -19 -5 -19 -10 0 -17 30 -23
55 -12 18 9 25 8 29 -4 8 -21 29 -17 23 6 -3 10 0 21 7 24 8 3 8 7 0 13 -6 4
-13 16 -17 26 -3 9 -14 17 -23 17 -12 0 -15 -6 -10 -24z"/>
<path d="M174 6226 c6 -25 -7 -36 -45 -36 -10 0 -19 -5 -19 -10 0 -17 30 -23
55 -12 18 9 25 8 29 -4 8 -21 29 -17 23 6 -3 10 0 21 7 24 8 3 8 7 0 13 -6 4
-13 16 -17 26 -3 9 -14 17 -23 17 -12 0 -15 -6 -10 -24z"/>
<path d="M298 6218 c-55 -14 -48 -31 10 -23 61 8 72 12 72 25 0 12 -32 11 -82
-2z"/>
<path d="M290 5796 c0 -14 -8 -29 -17 -34 -15 -9 -15 -11 1 -28 17 -16 19 -16
30 -2 7 9 25 18 41 20 16 1 31 9 33 17 3 10 -3 13 -25 9 -24 -3 -29 -1 -29 16
1 12 -7 22 -16 24 -13 3 -18 -3 -18 -22z"/>
<path d="M174 5776 c6 -25 -7 -36 -45 -36 -10 0 -19 -5 -19 -10 0 -17 30 -23
55 -12 18 9 25 8 29 -4 8 -21 29 -17 23 6 -3 10 0 21 7 24 8 3 8 7 0 13 -6 4
-13 16 -17 26 -3 9 -14 17 -23 17 -12 0 -15 -6 -10 -24z"/>
<path d="M290 5346 c0 -14 -8 -29 -17 -34 -15 -9 -15 -11 1 -28 17 -16 19 -16
30 -2 7 9 25 18 41 20 16 1 31 9 33 17 3 10 -3 13 -25 9 -24 -3 -29 -1 -29 16
1 12 -7 22 -16 24 -13 3 -18 -3 -18 -22z"/>
<path d="M174 5326 c6 -25 -7 -36 -45 -36 -10 0 -19 -5 -19 -10 0 -17 30 -23
55 -12 18 9 25 8 29 -4 8 -21 29 -17 23 6 -3 10 0 21 7 24 8 3 8 7 0 13 -6 4
-13 16 -17 26 -3 9 -14 17 -23 17 -12 0 -15 -6 -10 -24z"/>
<path d="M238 5247 c-111 -14 -100 -31 15 -22 50 4 94 8 96 10 6 7 -10 25 -22
23 -7 0 -47 -6 -89 -11z"/>
<path d="M290 4896 c0 -14 -8 -29 -17 -34 -15 -9 -15 -11 1 -28 17 -16 19 -16
30 -2 7 9 25 18 41 20 16 1 31 9 33 17 3 10 -3 13 -25 9 -24 -3 -29 -1 -29 16
1 12 -7 22 -16 24 -13 3 -18 -3 -18 -22z"/>
<path d="M174 4876 c6 -25 -7 -36 -45 -36 -10 0 -19 -5 -19 -10 0 -17 30 -23
55 -12 18 9 25 8 29 -4 8 -21 29 -17 23 6 -3 10 0 21 7 24 8 3 8 7 0 13 -6 4
-13 16 -17 26 -3 9 -14 17 -23 17 -12 0 -15 -6 -10 -24z"/>
<path d="M237 4797 c-73 -10 -78 -12 -71 -31 4 -12 9 -56 11 -98 3 -43 8 -78
13 -78 4 0 9 38 12 85 2 47 7 87 10 90 3 3 35 8 72 12 42 4 65 10 63 17 -5 15
-18 15 -110 3z"/>
<path d="M290 4446 c0 -14 -8 -29 -17 -34 -15 -9 -15 -11 1 -28 17 -16 19 -16
30 -2 7 9 25 18 41 20 16 1 31 9 33 17 3 10 -3 13 -25 9 -24 -3 -29 -1 -29 16
1 12 -7 22 -16 24 -13 3 -18 -3 -18 -22z"/>
<path d="M174 4426 c6 -25 -7 -36 -45 -36 -10 0 -19 -5 -19 -10 0 -17 30 -23
55 -12 18 9 25 8 29 -4 8 -21 29 -17 23 6 -3 10 0 21 7 24 8 3 8 7 0 13 -6 4
-13 16 -17 26 -3 9 -14 17 -23 17 -12 0 -15 -6 -10 -24z"/>
<path d="M237 4347 c-73 -10 -78 -12 -71 -31 4 -12 9 -56 11 -98 5 -88 23
-107 23 -24 0 56 8 66 51 66 10 0 19 5 19 11 0 7 -12 10 -30 7 -26 -4 -30 -1
-30 17 0 18 7 24 38 29 20 3 52 6 70 6 23 0 32 4 30 13 -6 16 -17 16 -111 4z"/>
<path d="M280 4280 c0 -5 5 -10 10 -10 6 0 10 -13 10 -30 0 -39 15 -38 36 1
13 26 14 33 2 40 -18 12 -58 11 -58 -1z"/>
<path d="M290 3996 c0 -14 -8 -29 -17 -34 -15 -9 -15 -11 1 -28 17 -16 19 -16
30 -2 7 9 25 18 41 20 16 1 31 9 33 17 3 10 -3 13 -25 9 -24 -3 -29 -1 -29 16
1 12 -7 22 -16 24 -13 3 -18 -3 -18 -22z"/>
<path d="M174 3976 c6 -25 -7 -36 -45 -36 -10 0 -19 -5 -19 -10 0 -17 30 -23
55 -12 18 9 25 8 29 -4 8 -21 29 -17 23 6 -3 10 0 21 7 24 8 3 8 7 0 13 -6 4
-13 16 -17 26 -3 9 -14 17 -23 17 -12 0 -15 -6 -10 -24z"/>
<path d="M237 3897 c-73 -10 -78 -12 -71 -31 4 -12 9 -56 11 -98 4 -76 19
-105 25 -50 3 25 7 27 61 33 32 4 59 8 60 10 2 2 9 17 15 33 11 24 11 31 0 37
-18 12 -58 11 -58 -1 0 -5 5 -10 10 -10 20 0 10 -38 -12 -44 -41 -10 -78 -7
-78 8 0 15 21 26 51 26 10 0 19 5 19 11 0 7 -12 10 -30 7 -26 -4 -30 -1 -30
17 0 18 7 24 38 29 20 3 52 6 70 6 23 0 32 4 30 13 -6 16 -17 16 -111 4z"/>
<path d="M290 3546 c0 -14 -8 -29 -17 -34 -15 -9 -15 -11 1 -28 17 -16 19 -16
30 -2 7 9 25 18 41 20 16 1 31 9 33 17 3 10 -3 13 -25 9 -24 -3 -29 -1 -29 16
1 12 -7 22 -16 24 -13 3 -18 -3 -18 -22z"/>
<path d="M174 3526 c6 -25 -7 -36 -45 -36 -10 0 -19 -5 -19 -10 0 -17 30 -23
55 -12 18 9 25 8 29 -4 8 -21 29 -17 23 6 -3 10 0 21 7 24 8 3 8 7 0 13 -6 4
-13 16 -17 26 -3 9 -14 17 -23 17 -12 0 -15 -6 -10 -24z"/>
<path d="M237 3447 c-73 -10 -78 -12 -71 -31 4 -12 9 -54 11 -93 l5 -73 -27 0
c-17 0 -25 -5 -22 -12 2 -8 20 -12 43 -12 196 7 224 10 224 20 0 19 -22 22
-105 14 -82 -8 -102 -3 -92 24 4 11 19 16 44 16 60 0 78 9 91 43 9 24 9 33 -1
39 -17 11 -57 10 -57 -2 0 -5 5 -10 10 -10 20 0 10 -38 -12 -44 -41 -10 -78
-7 -78 8 0 15 21 26 51 26 10 0 19 5 19 11 0 7 -12 10 -30 7 -26 -4 -30 -1
-30 17 0 18 7 24 38 29 20 3 52 6 70 6 23 0 32 4 30 13 -6 16 -17 16 -111 4z"/>
</g>
</svg>
