<?xml version="1.0" standalone="no"?>
<!DOCTYPE svg PUBLIC "-//W3C//DTD SVG 20010904//EN"
 "http://www.w3.org/TR/2001/REC-SVG-20010904/DTD/svg10.dtd">
<svg version="1.0" xmlns="http://www.w3.org/2000/svg"
 width="50.000000pt" height="725.000000pt" viewBox="0 0 50.000000 725.000000"
 preserveAspectRatio="xMidYMid meet">
<metadata>
Created by potrace 1.16, written by Peter Selinger 2001-2019
</metadata>
<g transform="translate(0.000000,725.000000) scale(0.100000,-0.100000)"
fill="#000000" stroke="none">
<path d="M160 7135 c0 -13 45 -95 53 -95 8 0 4 36 -9 83 -5 14 -44 26 -44 12z"/>
<path d="M160 6684 c0 -3 5 -14 10 -25 10 -17 7 -19 -20 -19 -21 0 -30 -4 -27
-12 2 -8 17 -12 36 -10 21 1 34 -3 37 -13 9 -22 27 -18 21 5 -3 10 0 21 6 23
8 2 6 10 -6 21 -9 10 -17 22 -17 27 0 5 -9 9 -20 9 -11 0 -20 -3 -20 -6z"/>
<path d="M160 6234 c0 -3 5 -14 10 -25 10 -17 7 -19 -20 -19 -21 0 -30 -4 -27
-12 2 -8 17 -12 36 -10 21 1 34 -3 37 -13 9 -22 27 -18 21 5 -3 10 0 21 6 23
8 2 6 10 -6 21 -9 10 -17 22 -17 27 0 5 -9 9 -20 9 -11 0 -20 -3 -20 -6z"/>
<path d="M308 6208 c-70 -15 -60 -30 15 -22 69 7 72 8 62 23 -7 12 -12 12 -77
-1z"/>
<path d="M300 5785 c0 -18 -6 -29 -20 -32 -23 -6 -27 -23 -5 -23 8 0 15 -7 15
-15 0 -22 18 -18 25 5 5 15 15 20 42 20 23 0 33 4 30 13 -2 6 -15 11 -29 10
-19 -1 -24 3 -24 20 1 13 -6 23 -16 25 -14 3 -18 -3 -18 -23z"/>
<path d="M160 5784 c0 -3 5 -14 10 -25 10 -17 7 -19 -20 -19 -21 0 -30 -4 -27
-12 2 -8 17 -12 36 -10 21 1 34 -3 37 -13 9 -22 27 -18 21 5 -3 10 0 21 6 23
8 2 6 10 -6 21 -9 10 -17 22 -17 27 0 5 -9 9 -20 9 -11 0 -20 -3 -20 -6z"/>
<path d="M300 5335 c0 -18 -6 -29 -20 -32 -23 -6 -27 -23 -5 -23 8 0 15 -7 15
-15 0 -22 18 -18 25 5 5 15 15 20 42 20 23 0 33 4 30 13 -2 6 -15 11 -29 10
-19 -1 -24 3 -24 20 1 13 -6 23 -16 25 -14 3 -18 -3 -18 -23z"/>
<path d="M160 5334 c0 -3 5 -14 10 -25 10 -17 7 -19 -20 -19 -21 0 -30 -4 -27
-12 2 -8 17 -12 36 -10 21 1 34 -3 37 -13 9 -22 27 -18 21 5 -3 10 0 21 6 23
8 2 6 10 -6 21 -9 10 -17 22 -17 27 0 5 -9 9 -20 9 -11 0 -20 -3 -20 -6z"/>
<path d="M135 5183 c2 -21 7 -64 10 -95 4 -32 11 -58 16 -58 14 0 11 164 -3
178 -21 21 -28 13 -23 -25z"/>
<path d="M300 4885 c0 -18 -6 -29 -20 -32 -23 -6 -27 -23 -5 -23 8 0 15 -7 15
-15 0 -22 18 -18 25 5 5 15 15 20 42 20 23 0 33 4 30 13 -2 6 -15 11 -29 10
-19 -1 -24 3 -24 20 1 13 -6 23 -16 25 -14 3 -18 -3 -18 -23z"/>
<path d="M160 4884 c0 -3 5 -14 10 -25 10 -17 7 -19 -20 -19 -21 0 -30 -4 -27
-12 2 -8 17 -12 36 -10 21 1 34 -3 37 -13 9 -22 27 -18 21 5 -3 10 0 21 6 23
8 2 6 10 -6 21 -9 10 -17 22 -17 27 0 5 -9 9 -20 9 -11 0 -20 -3 -20 -6z"/>
<path d="M305 4779 c-22 -4 -59 -8 -82 -8 -25 -1 -43 -6 -43 -12 0 -9 24 -10
86 -5 l86 7 -4 -61 c-2 -35 -10 -65 -17 -70 -16 -10 -5 -50 14 -50 17 0 22 15
35 110 9 67 9 76 -7 87 -9 7 -19 12 -22 12 -3 -1 -24 -5 -46 -10z"/>
<path d="M135 4733 c2 -21 7 -64 10 -95 10 -89 25 -69 25 31 0 72 -3 90 -16
95 -24 9 -25 9 -19 -31z"/>
<path d="M300 4435 c0 -18 -6 -29 -20 -32 -23 -6 -27 -23 -5 -23 8 0 15 -7 15
-15 0 -22 18 -18 25 5 5 15 15 20 42 20 23 0 33 4 30 13 -2 6 -15 11 -29 10
-19 -1 -24 3 -24 20 1 13 -6 23 -16 25 -14 3 -18 -3 -18 -23z"/>
<path d="M160 4434 c0 -3 5 -14 10 -25 10 -17 7 -19 -20 -19 -21 0 -30 -4 -27
-12 2 -8 17 -12 36 -10 21 1 34 -3 37 -13 9 -22 27 -18 21 5 -3 10 0 21 6 23
8 2 6 10 -6 21 -9 10 -17 22 -17 27 0 5 -9 9 -20 9 -11 0 -20 -3 -20 -6z"/>
<path d="M305 4329 c-22 -4 -59 -8 -82 -8 -25 -1 -43 -6 -43 -12 0 -9 24 -10
86 -5 l86 7 -4 -61 c-2 -35 -10 -65 -17 -70 -16 -10 -5 -50 14 -50 17 0 22 15
35 110 9 67 9 76 -7 87 -9 7 -19 12 -22 12 -3 -1 -24 -5 -46 -10z"/>
<path d="M135 4283 c2 -21 7 -64 10 -95 10 -89 25 -69 25 31 0 72 -3 90 -16
95 -24 9 -25 9 -19 -31z"/>
<path d="M203 4249 c4 -13 7 -32 7 -41 0 -10 5 -18 11 -18 15 0 6 73 -10 78
-10 4 -12 -1 -8 -19z"/>
<path d="M300 3985 c0 -18 -6 -29 -20 -32 -23 -6 -27 -23 -5 -23 8 0 15 -7 15
-15 0 -22 18 -18 25 5 5 15 15 20 42 20 23 0 33 4 30 13 -2 6 -15 11 -29 10
-19 -1 -24 3 -24 20 1 13 -6 23 -16 25 -14 3 -18 -3 -18 -23z"/>
<path d="M160 3984 c0 -3 5 -14 10 -25 10 -17 7 -19 -20 -19 -21 0 -30 -4 -27
-12 2 -8 17 -12 36 -10 21 1 34 -3 37 -13 9 -22 27 -18 21 5 -3 10 0 21 6 23
8 2 6 10 -6 21 -9 10 -17 22 -17 27 0 5 -9 9 -20 9 -11 0 -20 -3 -20 -6z"/>
<path d="M305 3879 c-22 -4 -59 -8 -82 -8 -25 -1 -43 -6 -43 -12 0 -9 24 -10
86 -5 l86 7 -4 -61 c-2 -35 -10 -65 -17 -70 -16 -10 -5 -50 14 -50 17 0 22 15
35 110 9 67 9 76 -7 87 -9 7 -19 12 -22 12 -3 -1 -24 -5 -46 -10z"/>
<path d="M135 3833 c2 -21 7 -64 10 -95 10 -89 25 -69 25 31 0 72 -3 90 -16
95 -24 9 -25 9 -19 -31z"/>
<path d="M260 3820 c0 -5 5 -10 10 -10 6 0 8 -11 4 -25 -4 -18 -2 -25 9 -25
16 0 32 44 22 60 -8 13 -45 13 -45 0z"/>
<path d="M206 3783 c4 -21 8 -40 10 -42 7 -8 11 3 17 42 5 32 3 37 -14 37 -18
0 -19 -4 -13 -37z"/>
<path d="M300 3535 c0 -18 -6 -29 -20 -32 -23 -6 -27 -23 -5 -23 8 0 15 -7 15
-15 0 -22 18 -18 25 5 5 15 15 20 42 20 23 0 33 4 30 13 -2 6 -15 11 -29 10
-19 -1 -24 3 -24 20 1 13 -6 23 -16 25 -14 3 -18 -3 -18 -23z"/>
<path d="M160 3534 c0 -3 5 -14 10 -25 10 -17 7 -19 -20 -19 -21 0 -30 -4 -27
-12 2 -8 17 -12 36 -10 21 1 34 -3 37 -13 9 -22 27 -18 21 5 -3 10 0 21 6 23
8 2 6 10 -6 21 -9 10 -17 22 -17 27 0 5 -9 9 -20 9 -11 0 -20 -3 -20 -6z"/>
<path d="M305 3429 c-22 -4 -59 -8 -82 -8 -25 -1 -43 -6 -43 -12 0 -9 24 -10
86 -5 l86 7 -4 -61 c-2 -35 -10 -65 -17 -70 -16 -10 -5 -50 14 -50 17 0 22 15
35 110 9 67 9 76 -7 87 -9 7 -19 12 -22 12 -3 -1 -24 -5 -46 -10z"/>
<path d="M135 3383 c2 -21 7 -64 10 -95 10 -89 25 -69 25 31 0 72 -3 90 -16
95 -24 9 -25 9 -19 -31z"/>
<path d="M260 3371 c0 -5 5 -11 11 -13 17 -6 -2 -38 -23 -38 -17 0 -19 5 -14
25 5 21 3 25 -14 25 -19 0 -20 -4 -14 -37 4 -21 7 -38 8 -39 0 0 20 1 42 4 37
3 43 7 48 34 3 17 3 34 0 39 -7 12 -44 12 -44 0z"/>
<path d="M300 3085 c0 -18 -6 -29 -20 -32 -23 -6 -27 -23 -5 -23 8 0 15 -7 15
-15 0 -22 18 -18 25 5 5 15 15 20 42 20 23 0 33 4 30 13 -2 6 -15 11 -29 10
-19 -1 -24 3 -24 20 1 13 -6 23 -16 25 -14 3 -18 -3 -18 -23z"/>
<path d="M160 3084 c0 -3 5 -14 10 -25 10 -17 7 -19 -20 -19 -21 0 -30 -4 -27
-12 2 -8 17 -12 36 -10 21 1 34 -3 37 -13 9 -22 27 -18 21 5 -3 10 0 21 6 23
8 2 6 10 -6 21 -9 10 -17 22 -17 27 0 5 -9 9 -20 9 -11 0 -20 -3 -20 -6z"/>
<path d="M305 2979 c-22 -4 -59 -8 -82 -8 -25 -1 -43 -6 -43 -12 0 -9 24 -10
86 -5 l86 7 -4 -60 c-2 -33 -6 -63 -9 -65 -2 -2 -41 -7 -86 -11 l-83 -8 0 71
c0 56 -3 71 -16 76 -9 4 -18 5 -19 4 -4 -4 14 -181 19 -186 2 -2 13 1 23 6 28
15 146 18 151 4 6 -18 30 -14 36 6 3 9 10 51 16 92 9 67 9 76 -7 87 -9 7 -19
12 -22 12 -3 -1 -24 -5 -46 -10z"/>
<path d="M260 2921 c0 -5 5 -11 11 -13 17 -6 -2 -38 -23 -38 -17 0 -19 5 -14
25 5 21 3 25 -14 25 -19 0 -20 -4 -14 -37 4 -21 7 -38 8 -39 0 0 20 1 42 4 37
3 43 7 48 34 3 17 3 34 0 39 -7 12 -44 12 -44 0z"/>
</g>
</svg>
