<?xml version="1.0" standalone="no"?>
<!DOCTYPE svg PUBLIC "-//W3C//DTD SVG 20010904//EN"
 "http://www.w3.org/TR/2001/REC-SVG-20010904/DTD/svg10.dtd">
<svg version="1.0" xmlns="http://www.w3.org/2000/svg"
 width="50.000000pt" height="725.000000pt" viewBox="0 0 50.000000 725.000000"
 preserveAspectRatio="xMidYMid meet">
<metadata>
Created by potrace 1.16, written by Peter Selinger 2001-2019
</metadata>
<g transform="translate(0.000000,725.000000) scale(0.100000,-0.100000)"
fill="#000000" stroke="none">
<path d="M165 7143 c4 -10 11 -33 17 -50 13 -47 32 -43 24 5 -3 20 -6 43 -6
50 0 6 -9 12 -21 12 -16 0 -19 -4 -14 -17z"/>
<path d="M166 6685 c5 -22 3 -25 -21 -25 -17 0 -25 -5 -22 -12 2 -7 17 -13 32
-13 16 0 30 -6 32 -12 7 -20 23 -15 23 7 0 11 5 20 10 20 6 0 10 5 10 10 0 6
-7 10 -15 10 -8 0 -15 9 -15 20 0 13 -7 20 -20 20 -17 0 -19 -5 -14 -25z"/>
<path d="M166 6235 c5 -22 3 -25 -21 -25 -17 0 -25 -5 -22 -12 2 -7 17 -13 32
-13 16 0 30 -6 32 -12 7 -20 23 -15 23 7 0 11 5 20 10 20 6 0 10 5 10 10 0 6
-7 10 -15 10 -8 0 -15 9 -15 20 0 13 -7 20 -20 20 -17 0 -19 -5 -14 -25z"/>
<path d="M283 6223 c-13 -2 -23 -9 -23 -15 0 -6 12 -8 31 -4 17 3 44 6 60 6
16 0 29 5 29 10 0 10 -53 11 -97 3z"/>
<path d="M304 5795 c-4 -16 -13 -25 -25 -25 -10 0 -19 -4 -19 -10 0 -5 6 -10
14 -10 8 0 17 -6 20 -12 3 -9 8 -8 16 5 6 10 23 17 40 17 17 0 30 5 30 10 0 6
-11 10 -24 10 -19 0 -23 4 -19 20 4 14 0 20 -11 20 -8 0 -18 -11 -22 -25z"/>
<path d="M166 5785 c5 -22 3 -25 -21 -25 -17 0 -25 -5 -22 -12 2 -7 17 -13 32
-13 16 0 30 -6 32 -12 7 -20 23 -15 23 7 0 11 5 20 10 20 6 0 10 5 10 10 0 6
-7 10 -15 10 -8 0 -15 9 -15 20 0 13 -7 20 -20 20 -17 0 -19 -5 -14 -25z"/>
<path d="M304 5345 c-4 -16 -13 -25 -25 -25 -10 0 -19 -4 -19 -10 0 -5 6 -10
14 -10 8 0 17 -6 20 -12 3 -9 8 -8 16 5 6 10 23 17 40 17 17 0 30 5 30 10 0 6
-11 10 -24 10 -19 0 -23 4 -19 20 4 14 0 20 -11 20 -8 0 -18 -11 -22 -25z"/>
<path d="M166 5335 c5 -22 3 -25 -21 -25 -17 0 -25 -5 -22 -12 2 -7 17 -13 32
-13 16 0 30 -6 32 -12 7 -20 23 -15 23 7 0 11 5 20 10 20 6 0 10 5 10 10 0 6
-7 10 -15 10 -8 0 -15 9 -15 20 0 13 -7 20 -20 20 -17 0 -19 -5 -14 -25z"/>
<path d="M228 5257 c-54 -10 -80 -27 -40 -27 58 0 122 14 122 26 0 15 -1 15
-82 1z"/>
<path d="M304 4895 c-4 -16 -13 -25 -25 -25 -10 0 -19 -4 -19 -10 0 -5 6 -10
14 -10 8 0 17 -6 20 -12 3 -9 8 -8 16 5 6 10 23 17 40 17 17 0 30 5 30 10 0 6
-11 10 -24 10 -19 0 -23 4 -19 20 4 14 0 20 -11 20 -8 0 -18 -11 -22 -25z"/>
<path d="M166 4885 c5 -22 3 -25 -21 -25 -17 0 -25 -5 -22 -12 2 -7 17 -13 32
-13 16 0 30 -6 32 -12 7 -20 23 -15 23 7 0 11 5 20 10 20 6 0 10 5 10 10 0 6
-7 10 -15 10 -8 0 -15 9 -15 20 0 13 -7 20 -20 20 -17 0 -19 -5 -14 -25z"/>
<path d="M228 4807 c-81 -14 -74 -31 10 -24 43 4 56 3 37 -2 -16 -5 -49 -9
-72 -10 -25 -1 -43 -6 -43 -12 0 -9 21 -10 70 -6 57 5 70 3 70 -9 0 -21 18
-17 31 7 9 18 8 24 -5 31 -9 5 -16 16 -16 23 0 16 0 16 -82 2z"/>
<path d="M304 4445 c-4 -16 -13 -25 -25 -25 -10 0 -19 -4 -19 -10 0 -5 6 -10
14 -10 8 0 17 -6 20 -12 3 -9 8 -8 16 5 6 10 23 17 40 17 17 0 30 5 30 10 0 6
-11 10 -24 10 -19 0 -23 4 -19 20 4 14 0 20 -11 20 -8 0 -18 -11 -22 -25z"/>
<path d="M166 4435 c5 -22 3 -25 -21 -25 -17 0 -25 -5 -22 -12 2 -7 17 -13 32
-13 16 0 30 -6 32 -12 7 -20 23 -15 23 7 0 11 5 20 10 20 6 0 10 5 10 10 0 6
-7 10 -15 10 -8 0 -15 9 -15 20 0 13 -7 20 -20 20 -17 0 -19 -5 -14 -25z"/>
<path d="M228 4357 c-81 -14 -74 -31 10 -24 43 4 56 3 37 -2 -16 -5 -49 -9
-72 -10 -25 -1 -43 -6 -43 -12 0 -9 21 -10 70 -6 39 3 68 2 65 -2 -2 -5 -36
-11 -75 -13 -64 -5 -90 -12 -79 -22 2 -2 43 -1 90 2 81 4 88 6 99 30 9 21 8
27 -4 34 -9 5 -16 16 -16 23 0 16 0 16 -82 2z"/>
<path d="M304 3995 c-4 -16 -13 -25 -25 -25 -10 0 -19 -4 -19 -10 0 -5 6 -10
14 -10 8 0 17 -6 20 -12 3 -9 8 -8 16 5 6 10 23 17 40 17 17 0 30 5 30 10 0 6
-11 10 -24 10 -19 0 -23 4 -19 20 4 14 0 20 -11 20 -8 0 -18 -11 -22 -25z"/>
<path d="M166 3985 c5 -22 3 -25 -21 -25 -17 0 -25 -5 -22 -12 2 -7 17 -13 32
-13 16 0 30 -6 32 -12 7 -20 23 -15 23 7 0 11 5 20 10 20 6 0 10 5 10 10 0 6
-7 10 -15 10 -8 0 -15 9 -15 20 0 13 -7 20 -20 20 -17 0 -19 -5 -14 -25z"/>
<path d="M228 3907 c-81 -14 -74 -31 10 -24 43 4 56 3 37 -2 -16 -5 -49 -9
-72 -10 -25 -1 -43 -6 -43 -12 0 -9 21 -10 70 -6 43 4 68 2 65 -4 -4 -5 -26
-9 -49 -9 -80 0 -103 -9 -110 -43 -3 -16 -4 -32 -2 -34 2 -2 21 0 42 5 64 16
154 23 154 12 0 -5 -7 -10 -16 -10 -11 0 -14 -5 -10 -16 3 -9 6 -18 6 -20 0
-2 8 -4 18 -4 18 0 42 37 42 65 0 17 -44 18 -143 6 -39 -5 -56 -4 -54 3 2 6
35 12 74 14 65 3 71 5 82 29 10 22 10 28 -3 35 -9 5 -16 16 -16 23 0 16 0 16
-82 2z"/>
<path d="M304 3545 c-4 -16 -13 -25 -25 -25 -10 0 -19 -4 -19 -10 0 -5 6 -10
14 -10 8 0 17 -6 20 -12 3 -9 8 -8 16 5 6 10 23 17 40 17 17 0 30 5 30 10 0 6
-11 10 -24 10 -19 0 -23 4 -19 20 4 14 0 20 -11 20 -8 0 -18 -11 -22 -25z"/>
<path d="M166 3535 c5 -22 3 -25 -21 -25 -17 0 -25 -5 -22 -12 2 -7 17 -13 32
-13 16 0 30 -6 32 -12 7 -21 23 -15 24 10 0 21 1 21 8 2 11 -26 5 -35 -25 -35
-36 0 -29 -18 9 -23 31 -4 31 -4 -5 -5 -21 -1 -38 -6 -38 -12 0 -5 17 -11 38
-11 l37 -1 -46 -10 c-41 -9 -48 -13 -53 -40 -3 -17 -4 -33 -2 -35 2 -3 20 0
40 5 24 7 36 7 36 0 0 -13 -60 -73 -80 -80 -8 -3 -12 -9 -8 -13 18 -19 85 29
123 88 12 19 85 35 85 18 0 -6 -7 -11 -16 -11 -11 0 -14 -5 -10 -16 3 -9 6
-18 6 -20 0 -2 8 -4 18 -4 19 0 42 37 42 66 0 12 -11 15 -55 13 -30 -1 -58 0
-62 4 -3 4 9 7 29 7 28 0 37 5 47 27 10 22 10 28 -3 35 -9 5 -16 16 -16 25 0
11 -6 14 -25 9 -19 -5 -23 -3 -18 9 4 11 -1 18 -16 22 -11 3 -21 9 -21 14 0 5
-7 9 -15 9 -8 0 -15 9 -15 20 0 13 -7 20 -20 20 -17 0 -19 -5 -14 -25z m127
-102 c-7 -2 -19 -2 -25 0 -7 3 -2 5 12 5 14 0 19 -2 13 -5z m2 -33 c-3 -5 -13
-10 -21 -10 -8 0 -14 5 -14 10 0 6 9 10 21 10 11 0 17 -4 14 -10z m-75 -39 c0
-5 -11 -11 -25 -13 -24 -5 -32 2 -18 15 9 10 43 8 43 -2z"/>
<path d="M304 3095 c-4 -16 -13 -25 -25 -25 -10 0 -19 -4 -19 -10 0 -5 6 -10
14 -10 8 0 17 -6 20 -12 3 -9 8 -8 16 5 6 10 23 17 40 17 17 0 30 5 30 10 0 6
-11 10 -24 10 -19 0 -23 4 -19 20 4 14 0 20 -11 20 -8 0 -18 -11 -22 -25z"/>
<path d="M166 3085 c5 -22 3 -25 -21 -25 -17 0 -25 -5 -22 -12 2 -7 17 -13 32
-13 16 0 30 -6 32 -12 7 -21 23 -15 24 10 0 21 1 21 8 2 11 -26 5 -35 -25 -35
-36 0 -29 -18 9 -23 31 -4 31 -4 -5 -5 -21 -1 -38 -6 -38 -12 0 -5 17 -11 38
-11 l37 -1 -46 -10 c-41 -9 -48 -13 -53 -40 -3 -17 -4 -33 -2 -35 2 -3 20 0
40 5 24 7 36 7 36 0 0 -13 -60 -73 -80 -80 -8 -3 -12 -9 -8 -13 13 -14 68 17
98 54 17 19 30 31 30 25 0 -6 17 -29 38 -52 30 -32 46 -42 70 -42 44 0 41 22
-5 45 -26 12 -33 20 -22 22 17 4 39 43 39 69 0 12 -11 15 -55 13 -30 -1 -58 0
-62 4 -3 4 9 7 29 7 28 0 37 5 47 27 10 22 10 28 -3 35 -9 5 -16 16 -16 25 0
11 -6 14 -25 9 -19 -5 -23 -3 -18 9 4 11 -1 18 -16 22 -11 3 -21 9 -21 14 0 5
-7 9 -15 9 -8 0 -15 9 -15 20 0 13 -7 20 -20 20 -17 0 -19 -5 -14 -25z m127
-102 c-7 -2 -19 -2 -25 0 -7 3 -2 5 12 5 14 0 19 -2 13 -5z m2 -33 c-3 -5 -13
-10 -21 -10 -8 0 -14 5 -14 10 0 6 9 10 21 10 11 0 17 -4 14 -10z m-75 -39 c0
-5 -11 -11 -25 -13 -24 -5 -32 2 -18 15 9 10 43 8 43 -2z m110 -31 c0 -5 -7
-10 -16 -10 -10 0 -14 -6 -10 -15 8 -21 -8 -19 -28 4 -17 18 -17 19 1 24 32 8
53 7 53 -3z"/>
</g>
</svg>
