<?xml version="1.0" standalone="no"?>
<!DOCTYPE svg PUBLIC "-//W3C//DTD SVG 20010904//EN"
 "http://www.w3.org/TR/2001/REC-SVG-20010904/DTD/svg10.dtd">
<svg version="1.0" xmlns="http://www.w3.org/2000/svg"
 width="50.000000pt" height="725.000000pt" viewBox="0 0 50.000000 725.000000"
 preserveAspectRatio="xMidYMid meet">
<metadata>
Created by potrace 1.16, written by Peter Selinger 2001-2019
</metadata>
<g transform="translate(0.000000,725.000000) scale(0.100000,-0.100000)"
fill="#000000" stroke="none">
<path d="M172 7153 c3 -5 10 -23 17 -40 17 -42 36 -43 27 -2 -3 17 -6 35 -6
40 0 5 -9 9 -21 9 -11 0 -19 -3 -17 -7z"/>
<path d="M172 6693 c2 -13 -5 -19 -24 -21 -16 -2 -28 -7 -28 -12 0 -14 31 -20
50 -10 15 8 21 6 29 -7 14 -27 24 -8 17 32 -5 26 -12 35 -27 35 -13 0 -19 -6
-17 -17z"/>
<path d="M172 6243 c2 -13 -5 -19 -24 -21 -16 -2 -28 -7 -28 -12 0 -14 31 -20
50 -10 15 8 21 6 29 -7 14 -27 24 -8 17 32 -5 26 -12 35 -27 35 -13 0 -19 -6
-17 -17z"/>
<path d="M311 6241 c-19 -3 -36 -12 -39 -18 -2 -9 6 -11 30 -7 66 11 78 15 78
24 0 11 -15 11 -69 1z"/>
<path d="M300 5814 c0 -9 -8 -22 -17 -29 -16 -12 -16 -14 1 -30 15 -15 18 -16
29 -2 7 8 24 17 40 21 33 8 37 30 3 24 -16 -3 -23 0 -22 11 0 8 -7 17 -16 19
-12 2 -18 -3 -18 -14z"/>
<path d="M172 5793 c2 -13 -5 -19 -24 -21 -16 -2 -28 -7 -28 -12 0 -14 31 -20
50 -10 15 8 21 6 29 -7 14 -27 24 -8 17 32 -5 26 -12 35 -27 35 -13 0 -19 -6
-17 -17z"/>
<path d="M300 5364 c0 -9 -8 -22 -17 -29 -16 -12 -16 -14 1 -30 15 -15 18 -16
29 -2 7 8 24 17 40 21 33 8 37 30 3 24 -16 -3 -23 0 -22 11 0 8 -7 17 -16 19
-12 2 -18 -3 -18 -14z"/>
<path d="M172 5343 c2 -13 -5 -19 -24 -21 -16 -2 -28 -7 -28 -12 0 -14 31 -20
50 -10 13 7 21 7 25 0 3 -5 2 -10 -2 -10 -12 0 -48 -69 -40 -76 9 -10 36 15
54 49 20 40 10 97 -18 97 -13 0 -19 -6 -17 -17z"/>
<path d="M300 4914 c0 -9 -8 -22 -17 -29 -16 -12 -16 -14 1 -30 15 -15 18 -16
29 -2 7 8 24 17 40 21 33 8 37 30 3 24 -16 -3 -23 0 -22 11 0 8 -7 17 -16 19
-12 2 -18 -3 -18 -14z"/>
<path d="M172 4893 c2 -13 -5 -19 -24 -21 -16 -2 -28 -7 -28 -12 0 -14 31 -20
50 -10 13 7 21 7 25 0 3 -5 2 -10 -2 -10 -12 0 -48 -69 -40 -77 4 -3 16 2 27
12 13 12 42 19 90 23 50 3 70 9 70 18 0 16 -13 16 -83 5 -43 -7 -47 -6 -41 11
10 33 -6 78 -27 78 -13 0 -19 -6 -17 -17z"/>
<path d="M300 4464 c0 -9 -8 -22 -17 -29 -16 -12 -16 -14 1 -30 15 -15 18 -16
29 -2 7 8 24 17 40 21 33 8 37 30 3 24 -16 -3 -23 0 -22 11 0 8 -7 17 -16 19
-12 2 -18 -3 -18 -14z"/>
<path d="M172 4443 c2 -13 -5 -19 -24 -21 -16 -2 -28 -7 -28 -12 0 -14 31 -20
50 -10 13 7 21 7 25 0 3 -5 2 -10 -2 -10 -12 0 -48 -69 -40 -77 4 -3 16 2 27
12 13 12 42 19 90 23 50 3 70 9 70 18 0 16 -13 16 -83 5 -43 -7 -47 -6 -41 11
10 33 -6 78 -27 78 -13 0 -19 -6 -17 -17z"/>
<path d="M180 4280 c0 -21 -8 -55 -17 -75 -20 -41 -13 -53 22 -37 32 15 95 15
154 1 49 -11 60 -7 41 16 -11 13 -31 16 -102 13 -75 -3 -87 -1 -82 12 3 8 8
36 11 63 5 39 3 47 -11 47 -12 0 -16 -10 -16 -40z"/>
<path d="M300 4014 c0 -9 -8 -22 -17 -29 -16 -12 -16 -14 1 -30 15 -15 18 -16
29 -2 7 8 24 17 40 21 33 8 37 30 3 24 -16 -3 -23 0 -22 11 0 8 -7 17 -16 19
-12 2 -18 -3 -18 -14z"/>
<path d="M172 3993 c2 -13 -5 -19 -24 -21 -16 -2 -28 -7 -28 -12 0 -14 31 -20
50 -10 13 7 21 7 25 0 3 -5 2 -10 -2 -10 -12 0 -48 -69 -40 -77 4 -3 16 2 27
12 13 12 42 19 90 23 50 3 70 9 70 18 0 16 -13 16 -83 5 -43 -7 -47 -6 -41 11
10 33 -6 78 -27 78 -13 0 -19 -6 -17 -17z"/>
<path d="M240 3870 c0 -5 16 -10 35 -10 l35 0 0 -54 0 -54 -60 -4 c-49 -2 -59
0 -55 12 2 8 7 29 10 45 4 17 9 38 12 48 3 12 -1 17 -16 17 -18 0 -21 -6 -21
-40 0 -21 -8 -55 -17 -75 -20 -41 -13 -53 22 -37 36 17 118 16 112 0 -2 -7
-11 -12 -21 -10 -20 4 -20 -7 -1 -32 18 -24 42 -15 51 19 6 23 10 25 36 19 37
-7 35 15 -1 31 -22 9 -23 14 -17 73 l5 62 -54 0 c-30 0 -55 -4 -55 -10z"/>
<path d="M300 3564 c0 -9 -8 -22 -17 -29 -16 -12 -16 -14 1 -30 15 -15 18 -16
29 -2 7 8 24 17 40 21 33 8 37 30 3 24 -16 -3 -23 0 -22 11 0 8 -7 17 -16 19
-12 2 -18 -3 -18 -14z"/>
<path d="M172 3543 c2 -13 -5 -19 -24 -21 -16 -2 -28 -7 -28 -12 0 -14 31 -20
50 -10 13 7 21 7 25 0 3 -5 2 -10 -2 -10 -12 0 -48 -69 -40 -77 4 -3 16 2 27
12 13 12 42 19 90 23 50 3 70 9 70 18 0 16 -13 16 -83 5 -43 -7 -47 -6 -41 11
10 33 -6 78 -27 78 -13 0 -19 -6 -17 -17z"/>
<path d="M240 3420 c0 -5 16 -10 35 -10 l35 0 0 -54 0 -54 -60 -4 c-49 -2 -59
0 -55 12 2 8 7 29 10 45 4 17 9 38 12 48 3 12 -1 17 -16 17 -18 0 -21 -6 -21
-40 0 -21 -8 -55 -17 -75 -20 -41 -13 -53 22 -37 36 17 118 16 112 0 -2 -7
-11 -12 -21 -10 -20 4 -20 -7 -1 -32 18 -24 42 -15 51 19 6 23 10 25 36 19 37
-7 35 15 -1 31 -22 9 -23 14 -17 73 l5 62 -54 0 c-30 0 -55 -4 -55 -10z"/>
<path d="M242 3388 c7 -19 38 -22 38 -4 0 10 -9 16 -21 16 -12 0 -19 -5 -17
-12z"/>
<path d="M300 3114 c0 -9 -8 -22 -17 -29 -16 -12 -16 -14 1 -30 15 -15 18 -16
29 -2 7 8 24 17 40 21 33 8 37 30 3 24 -16 -3 -23 0 -22 11 0 8 -7 17 -16 19
-12 2 -18 -3 -18 -14z"/>
<path d="M172 3093 c2 -13 -5 -19 -24 -21 -16 -2 -28 -7 -28 -12 0 -14 31 -20
50 -10 13 7 21 7 25 0 3 -5 2 -10 -2 -10 -12 0 -48 -69 -40 -77 4 -3 16 2 27
12 13 12 42 19 90 23 50 3 70 9 70 18 0 16 -13 16 -83 5 -43 -7 -47 -6 -41 11
10 33 -6 78 -27 78 -13 0 -19 -6 -17 -17z"/>
<path d="M240 2970 c0 -5 16 -10 35 -10 l35 0 0 -55 c0 -48 -2 -55 -20 -55
-13 0 -20 7 -20 20 0 13 -7 20 -20 20 -22 0 -26 -10 -9 -27 7 -7 2 -12 -20
-15 -25 -4 -30 -1 -27 11 3 9 8 30 11 46 4 17 9 38 12 48 3 12 -1 17 -16 17
-18 0 -21 -6 -21 -40 0 -21 -8 -55 -17 -75 -20 -41 -13 -53 22 -37 36 17 118
16 112 0 -2 -7 -11 -12 -21 -10 -20 4 -20 -7 -1 -32 18 -24 42 -15 51 19 6 23
10 25 36 19 37 -7 35 15 -1 31 -22 9 -23 14 -17 73 l5 62 -54 0 c-30 0 -55 -4
-55 -10z"/>
<path d="M242 2938 c7 -19 38 -22 38 -4 0 10 -9 16 -21 16 -12 0 -19 -5 -17
-12z"/>
<path d="M300 2664 c0 -9 -8 -22 -17 -29 -16 -12 -16 -14 1 -30 15 -15 18 -16
29 -2 7 8 24 17 40 21 33 8 37 30 3 24 -16 -3 -23 0 -22 11 0 8 -7 17 -16 19
-12 2 -18 -3 -18 -14z"/>
<path d="M172 2643 c2 -13 -5 -19 -24 -21 -16 -2 -28 -7 -28 -12 0 -14 31 -20
50 -10 13 7 21 7 25 0 3 -5 2 -10 -2 -10 -12 0 -48 -69 -40 -77 4 -3 16 2 27
12 13 12 42 19 90 23 50 3 70 9 70 18 0 16 -13 16 -83 5 -43 -7 -47 -6 -41 11
10 33 -6 78 -27 78 -13 0 -19 -6 -17 -17z"/>
<path d="M240 2520 c0 -5 16 -10 35 -10 28 0 35 -4 35 -20 0 -11 -7 -20 -15
-20 -8 0 -15 7 -15 15 0 8 -9 15 -20 15 -14 0 -20 -6 -18 -17 2 -10 -5 -19
-16 -21 -16 -3 -18 0 -13 27 6 26 4 31 -13 31 -16 0 -20 -7 -20 -30 0 -28 -2
-30 -41 -30 -28 0 -39 -4 -36 -12 2 -8 19 -13 40 -12 l35 1 -16 -33 c-19 -40
-11 -51 23 -36 36 17 118 16 112 0 -2 -7 -11 -12 -21 -10 -20 4 -20 -7 -1 -32
18 -24 42 -15 51 19 6 23 10 25 36 19 23 -5 29 -3 26 7 -2 8 -14 18 -26 24
-13 6 -22 19 -22 32 0 20 5 23 35 23 19 0 35 4 35 9 0 11 -32 23 -51 19 -10
-2 -13 6 -11 25 3 27 3 27 -52 27 -31 0 -56 -4 -56 -10z m70 -95 c0 -18 -5
-25 -20 -25 -13 0 -20 7 -20 19 0 11 -8 22 -17 24 -10 3 -1 5 20 6 33 1 37 -2
37 -24z m-73 -4 c11 -17 8 -19 -18 -23 -23 -4 -29 -1 -24 9 3 8 5 19 5 24 0
16 25 10 37 -10z"/>
</g>
</svg>
