<?xml version="1.0" standalone="no"?>
<!DOCTYPE svg PUBLIC "-//W3C//DTD SVG 20010904//EN"
 "http://www.w3.org/TR/2001/REC-SVG-20010904/DTD/svg10.dtd">
<svg version="1.0" xmlns="http://www.w3.org/2000/svg"
 width="50.000000pt" height="725.000000pt" viewBox="0 0 50.000000 725.000000"
 preserveAspectRatio="xMidYMid meet">
<metadata>
Created by potrace 1.16, written by Peter Selinger 2001-2019
</metadata>
<g transform="translate(0.000000,725.000000) scale(0.100000,-0.100000)"
fill="#000000" stroke="none">
<path d="M175 7143 c4 -10 11 -33 17 -50 12 -43 33 -44 24 -2 -3 17 -6 40 -6
50 0 13 -7 19 -21 19 -16 0 -19 -4 -14 -17z"/>
<path d="M170 6704 c0 -3 5 -14 10 -25 10 -17 7 -19 -25 -19 -25 0 -35 -4 -32
-12 2 -7 19 -13 37 -13 18 0 35 -6 37 -12 7 -20 23 -15 23 7 0 11 5 20 10 20
6 0 10 5 10 10 0 6 -7 10 -15 10 -8 0 -15 9 -15 20 0 13 -7 20 -20 20 -11 0
-20 -3 -20 -6z"/>
<path d="M170 6254 c0 -3 5 -14 10 -25 10 -17 7 -19 -25 -19 -25 0 -35 -4 -32
-12 2 -7 19 -13 37 -13 18 0 35 -6 37 -12 7 -20 23 -15 23 7 0 11 5 20 10 20
6 0 10 5 10 10 0 6 -7 10 -15 10 -8 0 -15 9 -15 20 0 13 -7 20 -20 20 -11 0
-20 -3 -20 -6z"/>
<path d="M293 6223 c-37 -5 -45 -23 -10 -23 41 0 97 13 97 21 0 9 -26 9 -87 2z"/>
<path d="M300 5795 c0 -18 -5 -25 -20 -25 -11 0 -20 -4 -20 -10 0 -5 7 -10 16
-10 11 0 14 -6 9 -20 -4 -11 -2 -20 4 -20 6 0 11 4 11 9 0 18 32 41 56 41 13
0 24 5 24 10 0 6 -11 10 -24 10 -19 0 -23 4 -19 20 4 15 0 20 -16 20 -16 0
-21 -6 -21 -25z"/>
<path d="M170 5804 c0 -3 5 -14 10 -25 10 -17 7 -19 -25 -19 -25 0 -35 -4 -32
-12 2 -7 19 -13 37 -13 18 0 35 -6 37 -12 7 -20 23 -15 23 7 0 11 5 20 10 20
6 0 10 5 10 10 0 6 -7 10 -15 10 -8 0 -15 9 -15 20 0 13 -7 20 -20 20 -11 0
-20 -3 -20 -6z"/>
<path d="M300 5345 c0 -18 -5 -25 -20 -25 -11 0 -20 -4 -20 -10 0 -5 7 -10 16
-10 11 0 14 -6 9 -20 -4 -11 -2 -20 4 -20 6 0 11 4 11 9 0 18 32 41 56 41 13
0 24 5 24 10 0 6 -11 10 -24 10 -19 0 -23 4 -19 20 4 15 0 20 -16 20 -16 0
-21 -6 -21 -25z"/>
<path d="M170 5354 c0 -3 5 -14 10 -25 10 -17 7 -19 -25 -19 -25 0 -35 -4 -32
-12 2 -7 19 -13 37 -13 18 0 35 -6 37 -12 7 -20 23 -15 23 7 0 11 5 20 10 20
6 0 10 5 10 10 0 6 -7 10 -15 10 -8 0 -15 9 -15 20 0 13 -7 20 -20 20 -11 0
-20 -3 -20 -6z"/>
<path d="M130 5160 c0 -40 4 -70 10 -70 6 0 10 30 10 70 0 40 -4 70 -10 70 -6
0 -10 -30 -10 -70z"/>
<path d="M300 4895 c0 -18 -5 -25 -20 -25 -11 0 -20 -4 -20 -10 0 -5 7 -10 16
-10 11 0 14 -6 9 -20 -4 -11 -2 -20 4 -20 6 0 11 4 11 9 0 18 32 41 56 41 13
0 24 5 24 10 0 6 -11 10 -24 10 -19 0 -23 4 -19 20 4 15 0 20 -16 20 -16 0
-21 -6 -21 -25z"/>
<path d="M170 4904 c0 -3 5 -14 10 -25 10 -17 7 -19 -25 -19 -25 0 -35 -4 -32
-12 2 -7 19 -13 37 -13 18 0 35 -6 37 -12 7 -20 23 -15 23 7 0 11 5 20 10 20
6 0 10 5 10 10 0 6 -7 10 -15 10 -8 0 -15 9 -15 20 0 13 -7 20 -20 20 -11 0
-20 -3 -20 -6z"/>
<path d="M148 4783 c-15 -4 -18 -16 -18 -74 0 -86 18 -92 22 -6 3 56 5 62 26
65 21 3 22 0 22 -62 0 -52 3 -66 15 -66 12 0 15 15 15 75 l0 75 -32 -1 c-18
-1 -41 -3 -50 -6z"/>
<path d="M300 4445 c0 -18 -5 -25 -20 -25 -11 0 -20 -4 -20 -10 0 -5 7 -10 16
-10 11 0 14 -6 9 -20 -4 -11 -2 -20 4 -20 6 0 11 4 11 9 0 18 32 41 56 41 13
0 24 5 24 10 0 6 -11 10 -24 10 -19 0 -23 4 -19 20 4 15 0 20 -16 20 -16 0
-21 -6 -21 -25z"/>
<path d="M170 4454 c0 -3 5 -14 10 -25 10 -17 7 -19 -25 -19 -25 0 -35 -4 -32
-12 2 -7 19 -13 37 -13 18 0 35 -6 37 -12 7 -20 23 -15 23 7 0 11 5 20 10 20
6 0 10 5 10 10 0 6 -7 10 -15 10 -8 0 -15 9 -15 20 0 13 -7 20 -20 20 -11 0
-20 -3 -20 -6z"/>
<path d="M148 4333 c-15 -4 -18 -16 -18 -74 0 -39 4 -69 10 -69 6 0 10 13 10
29 0 26 14 41 41 41 5 0 9 -16 9 -35 0 -24 5 -35 15 -35 12 0 15 15 15 75 l0
75 -32 -1 c-18 -1 -41 -3 -50 -6z m52 -33 c0 -11 -4 -20 -9 -20 -5 0 -16 -3
-25 -6 -11 -4 -16 0 -16 13 0 24 8 33 32 33 11 0 18 -7 18 -20z"/>
<path d="M300 3995 c0 -18 -5 -25 -20 -25 -11 0 -20 -4 -20 -10 0 -5 7 -10 16
-10 11 0 14 -6 9 -20 -4 -11 -2 -20 4 -20 6 0 11 4 11 9 0 18 32 41 56 41 13
0 24 5 24 10 0 6 -11 10 -24 10 -19 0 -23 4 -19 20 4 15 0 20 -16 20 -16 0
-21 -6 -21 -25z"/>
<path d="M170 4004 c0 -3 5 -14 10 -25 10 -17 7 -19 -25 -19 -25 0 -35 -4 -32
-12 2 -7 19 -13 37 -13 18 0 35 -6 37 -12 7 -20 23 -15 23 7 0 11 5 20 10 20
6 0 10 5 10 10 0 6 -7 10 -15 10 -8 0 -15 9 -15 20 0 13 -7 20 -20 20 -11 0
-20 -3 -20 -6z"/>
<path d="M148 3883 c-15 -4 -18 -16 -18 -71 l0 -67 50 -1 50 0 0 73 0 73 -32
-1 c-18 -1 -41 -3 -50 -6z m52 -33 c0 -11 -4 -20 -9 -20 -5 0 -16 -3 -25 -6
-11 -4 -16 0 -16 13 0 24 8 33 32 33 11 0 18 -7 18 -20z m0 -60 c0 -15 -7 -20
-25 -20 -41 0 -30 37 13 39 6 1 12 -8 12 -19z"/>
<path d="M300 3545 c0 -18 -5 -25 -20 -25 -11 0 -20 -4 -20 -10 0 -5 7 -10 16
-10 11 0 14 -6 9 -20 -4 -11 -2 -20 4 -20 6 0 11 4 11 9 0 18 32 41 56 41 13
0 24 5 24 10 0 6 -11 10 -24 10 -19 0 -23 4 -19 20 4 15 0 20 -16 20 -16 0
-21 -6 -21 -25z"/>
<path d="M170 3554 c0 -3 5 -14 10 -25 10 -17 7 -19 -25 -19 -25 0 -35 -4 -32
-12 2 -7 19 -13 37 -13 18 0 35 -6 37 -12 7 -20 23 -15 23 7 0 11 5 20 10 20
6 0 10 5 10 10 0 6 -7 10 -15 10 -8 0 -15 9 -15 20 0 13 -7 20 -20 20 -11 0
-20 -3 -20 -6z"/>
<path d="M255 3388 c0 -58 -5 -81 -23 -112 -26 -43 -22 -58 8 -31 26 23 38 66
42 145 2 51 0 65 -12 68 -12 2 -15 -11 -15 -70z"/>
<path d="M148 3433 c-15 -4 -18 -16 -18 -71 l0 -67 50 -1 50 0 0 73 0 73 -32
-1 c-18 -1 -41 -3 -50 -6z m52 -33 c0 -11 -4 -20 -9 -20 -5 0 -16 -3 -25 -6
-11 -4 -16 0 -16 13 0 24 8 33 32 33 11 0 18 -7 18 -20z m0 -60 c0 -15 -7 -20
-25 -20 -41 0 -30 37 13 39 6 1 12 -8 12 -19z"/>
<path d="M300 3095 c0 -18 -5 -25 -20 -25 -11 0 -20 -4 -20 -10 0 -5 7 -10 16
-10 11 0 14 -6 9 -20 -4 -11 -2 -20 4 -20 6 0 11 4 11 9 0 18 32 41 56 41 13
0 24 5 24 10 0 6 -11 10 -24 10 -19 0 -23 4 -19 20 4 15 0 20 -16 20 -16 0
-21 -6 -21 -25z"/>
<path d="M170 3104 c0 -3 5 -14 10 -25 10 -17 7 -19 -25 -19 -25 0 -35 -4 -32
-12 2 -7 19 -13 37 -13 18 0 35 -6 37 -12 7 -20 23 -15 23 7 0 11 5 20 10 20
6 0 10 5 10 10 0 6 -7 10 -15 10 -8 0 -15 9 -15 20 0 13 -7 20 -20 20 -11 0
-20 -3 -20 -6z"/>
<path d="M320 3010 c-14 -4 -34 -6 -45 -3 -19 4 -20 -1 -20 -69 0 -58 -5 -81
-23 -112 -25 -42 -23 -57 4 -35 26 21 44 73 44 127 0 53 12 72 47 72 22 0 23
-3 23 -91 0 -86 -1 -90 -20 -84 -23 7 -25 -2 -5 -28 7 -10 22 -17 32 -15 16 3
19 17 23 118 6 133 3 140 -60 120z"/>
<path d="M148 2983 c-15 -4 -18 -16 -18 -71 l0 -67 50 -1 50 0 0 73 0 73 -32
-1 c-18 -1 -41 -3 -50 -6z m52 -33 c0 -11 -4 -20 -9 -20 -5 0 -16 -3 -25 -6
-11 -4 -16 0 -16 13 0 24 8 33 32 33 11 0 18 -7 18 -20z m0 -60 c0 -15 -7 -20
-25 -20 -41 0 -30 37 13 39 6 1 12 -8 12 -19z"/>
<path d="M300 2645 c0 -18 -5 -25 -20 -25 -11 0 -20 -4 -20 -10 0 -5 7 -10 16
-10 11 0 14 -6 9 -20 -4 -11 -2 -20 4 -20 6 0 11 4 11 9 0 18 32 41 56 41 13
0 24 5 24 10 0 6 -11 10 -24 10 -19 0 -23 4 -19 20 4 15 0 20 -16 20 -16 0
-21 -6 -21 -25z"/>
<path d="M170 2654 c0 -3 5 -14 10 -25 10 -17 7 -19 -25 -19 -25 0 -35 -4 -32
-12 2 -7 19 -13 37 -13 18 0 35 -6 37 -12 7 -20 23 -15 23 7 0 11 5 20 10 20
6 0 10 5 10 10 0 6 -7 10 -15 10 -8 0 -15 9 -15 20 0 13 -7 20 -20 20 -11 0
-20 -3 -20 -6z"/>
<path d="M320 2560 c-14 -4 -34 -6 -45 -3 -19 4 -20 -1 -20 -69 0 -58 -5 -81
-23 -112 -25 -42 -23 -57 4 -35 21 18 44 71 44 103 0 16 7 26 23 30 44 12 47
9 47 -55 0 -56 -2 -60 -20 -54 -23 7 -25 -2 -5 -28 7 -10 22 -17 32 -15 16 3
19 17 23 118 6 133 3 140 -60 120z m30 -40 c0 -13 -7 -20 -19 -20 -11 0 -26
-3 -35 -6 -19 -7 -22 16 -4 34 20 20 58 15 58 -8z"/>
<path d="M148 2533 c-15 -4 -18 -16 -18 -71 l0 -67 50 -1 50 0 0 73 0 73 -32
-1 c-18 -1 -41 -3 -50 -6z m52 -33 c0 -11 -4 -20 -9 -20 -5 0 -16 -3 -25 -6
-11 -4 -16 0 -16 13 0 24 8 33 32 33 11 0 18 -7 18 -20z m0 -60 c0 -15 -7 -20
-25 -20 -41 0 -30 37 13 39 6 1 12 -8 12 -19z"/>
<path d="M300 2195 c0 -18 -5 -25 -20 -25 -11 0 -20 -4 -20 -10 0 -5 7 -10 16
-10 11 0 14 -6 9 -20 -4 -11 -2 -20 4 -20 6 0 11 4 11 9 0 18 32 41 56 41 13
0 24 5 24 10 0 6 -11 10 -24 10 -19 0 -23 4 -19 20 4 15 0 20 -16 20 -16 0
-21 -6 -21 -25z"/>
<path d="M170 2204 c0 -3 5 -14 10 -25 10 -17 7 -19 -25 -19 -25 0 -35 -4 -32
-12 2 -7 19 -13 37 -13 18 0 35 -6 37 -12 7 -20 23 -15 23 7 0 11 5 20 10 20
6 0 10 5 10 10 0 6 -7 10 -15 10 -8 0 -15 9 -15 20 0 13 -7 20 -20 20 -11 0
-20 -3 -20 -6z"/>
<path d="M320 2110 c-14 -4 -34 -6 -45 -3 -19 4 -20 -1 -20 -69 0 -58 -5 -81
-23 -112 -13 -21 -20 -41 -18 -44 9 -9 39 22 52 54 11 26 20 33 49 36 34 4 35
3 35 -30 0 -29 -3 -32 -20 -27 -23 7 -25 -2 -5 -28 7 -10 22 -17 32 -15 16 3
19 17 23 118 6 133 3 140 -60 120z m30 -40 c0 -13 -7 -20 -19 -20 -11 0 -26
-3 -35 -6 -19 -7 -22 16 -4 34 20 20 58 15 58 -8z m0 -54 c0 -13 -28 -26 -57
-26 -20 0 -15 28 5 33 34 9 52 7 52 -7z"/>
<path d="M148 2083 c-15 -4 -18 -16 -18 -71 l0 -67 50 -1 50 0 0 73 0 73 -32
-1 c-18 -1 -41 -3 -50 -6z m52 -33 c0 -11 -4 -20 -9 -20 -5 0 -16 -3 -25 -6
-11 -4 -16 0 -16 13 0 24 8 33 32 33 11 0 18 -7 18 -20z m0 -60 c0 -15 -7 -20
-25 -20 -41 0 -30 37 13 39 6 1 12 -8 12 -19z"/>
</g>
</svg>
