<?xml version="1.0" standalone="no"?>
<!DOCTYPE svg PUBLIC "-//W3C//DTD SVG 20010904//EN"
 "http://www.w3.org/TR/2001/REC-SVG-20010904/DTD/svg10.dtd">
<svg version="1.0" xmlns="http://www.w3.org/2000/svg"
 width="50.000000pt" height="725.000000pt" viewBox="0 0 50.000000 725.000000"
 preserveAspectRatio="xMidYMid meet">
<metadata>
Created by potrace 1.16, written by Peter Selinger 2001-2019
</metadata>
<g transform="translate(0.000000,725.000000) scale(0.100000,-0.100000)"
fill="#000000" stroke="none">
<path d="M180 7157 c0 -17 34 -97 41 -97 9 0 5 52 -6 88 -4 10 -35 18 -35 9z"/>
<path d="M186 6685 c5 -22 3 -25 -20 -25 -17 0 -26 -5 -26 -16 0 -12 7 -15 31
-12 20 3 33 0 36 -9 8 -21 26 -15 20 7 -3 10 0 21 7 24 8 3 8 7 0 13 -6 4 -13
16 -17 26 -3 9 -13 17 -22 17 -11 0 -14 -6 -9 -25z"/>
<path d="M186 6235 c5 -22 3 -25 -20 -25 -17 0 -26 -5 -26 -16 0 -12 7 -15 31
-12 20 3 33 0 36 -9 8 -21 26 -15 20 7 -3 10 0 21 7 24 8 3 8 7 0 13 -6 4 -13
16 -17 26 -3 9 -13 17 -22 17 -11 0 -14 -6 -9 -25z"/>
<path d="M298 6223 c-33 -5 -37 -23 -5 -23 41 0 97 13 97 21 0 9 -41 10 -92 2z"/>
<path d="M310 5800 c0 -23 -4 -30 -20 -30 -11 0 -20 -4 -20 -10 0 -5 6 -10 14
-10 8 0 16 -6 18 -12 3 -9 9 -8 22 5 10 9 28 17 42 17 13 0 24 5 24 10 0 6
-11 10 -25 10 -18 0 -23 4 -18 16 5 15 -11 33 -29 34 -5 0 -8 -13 -8 -30z"/>
<path d="M186 5785 c5 -22 3 -25 -20 -25 -17 0 -26 -5 -26 -16 0 -12 7 -15 31
-12 20 3 33 0 36 -9 8 -21 26 -15 20 7 -3 10 0 21 7 24 8 3 8 7 0 13 -6 4 -13
16 -17 26 -3 9 -13 17 -22 17 -11 0 -14 -6 -9 -25z"/>
<path d="M310 5350 c0 -23 -4 -30 -20 -30 -11 0 -20 -4 -20 -10 0 -5 6 -10 14
-10 8 0 16 -6 18 -12 3 -9 9 -8 22 5 10 9 28 17 42 17 13 0 24 5 24 10 0 6
-11 10 -25 10 -18 0 -23 4 -18 16 5 15 -11 33 -29 34 -5 0 -8 -13 -8 -30z"/>
<path d="M186 5335 c5 -22 3 -25 -20 -25 -17 0 -26 -5 -26 -16 0 -12 7 -15 31
-12 20 3 33 0 36 -9 8 -21 26 -15 20 7 -3 10 0 21 7 24 8 3 8 7 0 13 -6 4 -13
16 -17 26 -3 9 -13 17 -22 17 -11 0 -14 -6 -9 -25z"/>
<path d="M270 5234 c-14 -3 -44 -7 -67 -10 -24 -3 -43 -10 -43 -15 0 -7 15 -9
38 -5 20 3 67 8 105 12 37 3 67 10 67 15 0 9 -50 10 -100 3z"/>
<path d="M310 4900 c0 -23 -4 -30 -20 -30 -11 0 -20 -4 -20 -10 0 -5 6 -10 14
-10 8 0 16 -6 18 -12 3 -9 9 -8 22 5 10 9 28 17 42 17 13 0 24 5 24 10 0 6
-11 10 -25 10 -18 0 -23 4 -18 16 5 15 -11 33 -29 34 -5 0 -8 -13 -8 -30z"/>
<path d="M186 4885 c5 -22 3 -25 -20 -25 -17 0 -26 -5 -26 -16 0 -12 8 -15 33
-12 21 2 32 -1 31 -9 -1 -7 -2 -22 -2 -33 -1 -13 -9 -20 -22 -20 -11 0 -20 -4
-20 -10 0 -5 9 -10 20 -10 17 0 20 -7 20 -41 0 -54 24 -47 28 8 l3 41 70 7
c38 4 69 12 69 17 0 7 -24 8 -70 4 -54 -6 -70 -4 -71 6 -1 7 -2 22 -3 33 0 11
4 23 9 28 7 4 6 10 -1 15 -6 4 -13 15 -17 25 -3 9 -13 17 -22 17 -11 0 -14 -6
-9 -25z"/>
<path d="M310 4450 c0 -23 -4 -30 -20 -30 -11 0 -20 -4 -20 -10 0 -5 6 -10 14
-10 8 0 16 -6 18 -12 3 -9 9 -8 22 5 10 9 28 17 42 17 13 0 24 5 24 10 0 6
-11 10 -25 10 -18 0 -23 4 -18 16 5 15 -11 33 -29 34 -5 0 -8 -13 -8 -30z"/>
<path d="M186 4435 c5 -22 3 -25 -20 -25 -17 0 -26 -5 -26 -16 0 -12 8 -15 33
-12 21 2 32 -1 31 -9 -1 -7 -2 -22 -2 -33 -1 -13 -9 -20 -22 -20 -11 0 -20 -4
-20 -10 0 -5 9 -10 20 -10 17 0 20 -7 20 -41 0 -55 24 -47 28 9 3 40 5 42 35
42 32 0 32 -1 29 -40 -3 -31 -1 -40 11 -40 11 0 17 12 19 43 2 35 7 43 26 45
27 4 29 22 2 22 -11 0 -20 7 -20 15 0 8 -9 15 -20 15 -14 0 -20 -6 -18 -17 2
-14 -5 -19 -29 -21 -22 -2 -33 1 -34 10 -1 7 -2 22 -3 33 0 11 4 23 9 28 7 4
6 10 -1 15 -6 4 -13 15 -17 25 -3 9 -13 17 -22 17 -11 0 -14 -6 -9 -25z"/>
<path d="M310 4000 c0 -23 -4 -30 -20 -30 -11 0 -20 -4 -20 -10 0 -5 6 -10 14
-10 8 0 16 -6 18 -12 3 -9 9 -8 22 5 10 9 28 17 42 17 13 0 24 5 24 10 0 6
-11 10 -25 10 -18 0 -23 4 -18 16 5 15 -11 33 -29 34 -5 0 -8 -13 -8 -30z"/>
<path d="M186 3985 c5 -22 3 -25 -20 -25 -17 0 -26 -5 -26 -16 0 -12 8 -15 33
-12 21 2 32 -1 31 -9 -1 -7 -2 -22 -2 -33 -1 -13 -9 -20 -22 -20 -11 0 -20 -4
-20 -10 0 -5 9 -10 20 -10 17 0 20 -7 20 -41 0 -55 24 -47 28 9 3 40 4 42 35
41 30 -2 31 -2 5 -6 -35 -5 -37 -23 -3 -23 20 0 25 -5 25 -25 0 -15 6 -25 14
-25 10 0 16 14 18 43 2 35 7 43 26 45 27 4 29 22 2 22 -11 0 -20 7 -20 15 0 8
-9 15 -20 15 -14 0 -20 -6 -18 -17 2 -14 -5 -19 -29 -21 -22 -2 -33 1 -34 10
-1 7 -2 22 -3 33 0 11 4 23 9 28 7 4 6 10 -1 15 -6 4 -13 15 -17 25 -3 9 -13
17 -22 17 -11 0 -14 -6 -9 -25z"/>
<path d="M310 3550 c0 -23 -4 -30 -20 -30 -11 0 -20 -4 -20 -10 0 -5 6 -10 14
-10 8 0 16 -6 18 -12 3 -9 9 -8 22 5 10 9 28 17 42 17 13 0 24 5 24 10 0 6
-11 10 -25 10 -18 0 -23 4 -18 16 5 15 -11 33 -29 34 -5 0 -8 -13 -8 -30z"/>
<path d="M186 3535 c5 -22 3 -25 -20 -25 -17 0 -26 -5 -26 -16 0 -12 8 -15 33
-12 21 2 32 -1 31 -9 -1 -7 -2 -22 -2 -33 -1 -13 -9 -20 -22 -20 -11 0 -20 -4
-20 -10 0 -5 9 -10 20 -10 17 0 20 -7 20 -41 0 -55 24 -47 28 9 3 40 4 42 35
41 30 -2 31 -2 5 -6 -16 -2 -28 -8 -28 -13 0 -5 12 -11 28 -13 l27 -4 -27 -2
c-35 -1 -37 -21 -3 -21 14 0 25 -4 25 -10 0 -5 6 -10 14 -10 10 0 16 14 18 43
2 35 7 43 26 45 27 4 29 22 2 22 -11 0 -20 7 -20 15 0 8 -9 15 -20 15 -14 0
-20 -6 -18 -17 2 -14 -5 -19 -29 -21 -22 -2 -33 1 -34 10 -1 7 -2 22 -3 33 0
11 4 23 9 28 7 4 6 10 -1 15 -6 4 -13 15 -17 25 -3 9 -13 17 -22 17 -11 0 -14
-6 -9 -25z"/>
<path d="M310 3100 c0 -23 -4 -30 -20 -30 -11 0 -20 -4 -20 -10 0 -5 6 -10 14
-10 8 0 16 -6 18 -12 3 -9 9 -8 22 5 10 9 28 17 42 17 13 0 24 5 24 10 0 6
-11 10 -25 10 -18 0 -23 4 -18 16 5 15 -11 33 -29 34 -5 0 -8 -13 -8 -30z"/>
<path d="M186 3085 c5 -22 3 -25 -20 -25 -17 0 -26 -5 -26 -16 0 -12 8 -15 33
-12 21 2 32 -1 31 -9 -1 -7 -2 -22 -2 -33 -1 -13 -9 -20 -22 -20 -11 0 -20 -4
-20 -10 0 -5 9 -10 20 -10 16 0 20 -7 20 -34 0 -35 -15 -46 -68 -46 -15 0 -22
-5 -19 -12 5 -14 11 -14 117 1 41 6 96 11 123 11 26 0 47 4 47 9 0 14 -29 22
-56 15 -24 -6 -25 -5 -22 32 2 32 7 40 26 42 27 4 29 22 2 22 -11 0 -20 7 -20
15 0 8 -9 15 -20 15 -14 0 -20 -6 -18 -17 2 -14 -5 -19 -29 -21 -22 -2 -33 1
-34 10 -1 7 -2 22 -3 33 0 11 4 23 9 28 7 4 6 10 -1 15 -6 4 -13 15 -17 25 -3
9 -13 17 -22 17 -11 0 -14 -6 -9 -25z m82 -132 c-16 -2 -28 -9 -28 -14 0 -5
12 -10 28 -10 l27 -2 -27 -4 c-36 -6 -36 -23 -1 -23 31 0 28 -5 -9 -14 -27 -6
-28 -5 -28 34 0 39 1 40 33 39 30 -2 30 -2 5 -6z"/>
<path d="M310 2650 c0 -23 -4 -30 -20 -30 -11 0 -20 -4 -20 -10 0 -5 6 -10 14
-10 8 0 16 -6 18 -12 3 -9 9 -8 22 5 10 9 28 17 42 17 13 0 24 5 24 10 0 6
-11 10 -25 10 -18 0 -23 4 -18 16 5 15 -11 33 -29 34 -5 0 -8 -13 -8 -30z"/>
<path d="M186 2635 c5 -22 3 -25 -20 -25 -17 0 -26 -5 -26 -16 0 -12 8 -15 33
-12 21 2 32 -1 31 -9 -1 -7 -2 -22 -2 -33 -1 -13 -9 -20 -22 -20 -11 0 -20 -4
-20 -10 0 -5 9 -10 20 -10 16 0 20 -7 20 -34 0 -35 -15 -46 -67 -46 -23 0 -31
-14 -14 -25 6 -3 31 0 56 6 48 12 67 7 47 -13 -16 -16 -15 -28 3 -28 8 0 20
10 26 23 17 32 28 37 92 37 31 0 57 4 57 9 0 14 -29 22 -56 15 -24 -6 -25 -5
-22 32 2 32 7 40 26 42 27 4 29 22 2 22 -11 0 -20 7 -20 15 0 8 -9 15 -20 15
-14 0 -20 -6 -18 -17 2 -14 -5 -19 -29 -21 -22 -2 -33 1 -34 10 -1 7 -2 22 -3
33 0 11 4 23 9 28 7 4 6 10 -1 15 -6 4 -13 15 -17 25 -3 9 -13 17 -22 17 -11
0 -14 -6 -9 -25z m82 -132 c-16 -2 -28 -9 -28 -14 0 -5 12 -10 28 -10 l27 -2
-27 -4 c-36 -6 -36 -23 -1 -23 31 0 28 -5 -9 -14 -27 -6 -28 -5 -28 34 0 39 1
40 33 39 30 -2 30 -2 5 -6z"/>
<path d="M310 2200 c0 -23 -4 -30 -20 -30 -11 0 -20 -4 -20 -10 0 -5 6 -10 14
-10 8 0 16 -6 18 -12 3 -9 9 -8 22 5 10 9 28 17 42 17 13 0 24 5 24 10 0 6
-11 10 -25 10 -18 0 -23 4 -18 16 5 15 -11 33 -29 34 -5 0 -8 -13 -8 -30z"/>
<path d="M186 2185 c5 -22 3 -25 -20 -25 -17 0 -26 -5 -26 -16 0 -12 8 -15 33
-12 21 2 32 -1 31 -9 -1 -7 -2 -22 -2 -33 -1 -13 -9 -20 -22 -20 -11 0 -20 -4
-20 -10 0 -5 9 -10 20 -10 16 0 20 -7 20 -34 0 -35 -15 -46 -67 -46 -23 0 -31
-14 -14 -25 6 -3 31 0 56 6 48 12 67 7 47 -13 -16 -16 -15 -28 3 -28 9 0 21
11 27 25 14 31 26 32 30 3 2 -19 10 -24 41 -26 42 -4 52 15 10 20 -17 2 -28 9
-28 18 0 11 13 16 48 18 47 3 61 15 31 26 -8 3 -27 3 -40 0 -24 -6 -25 -5 -22
32 2 32 7 40 26 42 27 4 29 22 2 22 -11 0 -20 7 -20 15 0 8 -9 15 -20 15 -14
0 -20 -6 -18 -17 2 -14 -5 -19 -29 -21 -22 -2 -33 1 -34 10 -1 7 -2 22 -3 33
0 11 4 23 9 28 7 4 6 10 -1 15 -6 4 -13 15 -17 25 -3 9 -13 17 -22 17 -11 0
-14 -6 -9 -25z m82 -132 c-16 -2 -28 -9 -28 -14 0 -5 12 -10 28 -10 l27 -2
-27 -4 c-36 -6 -36 -23 -1 -23 31 0 28 -5 -9 -14 -27 -6 -28 -5 -28 34 0 39 1
40 33 39 30 -2 30 -2 5 -6z"/>
<path d="M310 1750 c0 -23 -4 -30 -20 -30 -11 0 -20 -4 -20 -10 0 -5 6 -10 14
-10 8 0 16 -6 18 -12 3 -9 9 -8 22 5 10 9 28 17 42 17 13 0 24 5 24 10 0 6
-11 10 -25 10 -18 0 -23 4 -18 16 5 15 -11 33 -29 34 -5 0 -8 -13 -8 -30z"/>
<path d="M186 1735 c5 -22 3 -25 -20 -25 -17 0 -26 -5 -26 -16 0 -12 8 -15 33
-12 21 2 32 -1 31 -9 -1 -7 -2 -22 -2 -33 -1 -13 -9 -20 -22 -20 -11 0 -20 -4
-20 -10 0 -5 9 -10 20 -10 16 0 20 -7 20 -34 0 -35 -15 -46 -68 -46 -15 0 -22
-5 -19 -12 2 -7 16 -12 31 -11 20 1 26 -3 26 -18 0 -57 38 -74 137 -63 92 9
77 29 -23 29 -75 0 -79 1 -82 24 -4 24 13 50 25 38 4 -4 1 -13 -5 -19 -16 -16
-15 -28 3 -28 9 0 21 11 27 25 14 31 26 32 30 3 2 -19 10 -24 41 -26 42 -4 52
15 10 20 -17 2 -28 9 -28 18 0 11 13 16 48 18 47 3 61 15 31 26 -8 3 -27 3
-40 0 -24 -6 -25 -5 -22 32 2 32 7 40 26 42 27 4 29 22 2 22 -11 0 -20 7 -20
15 0 8 -9 15 -20 15 -14 0 -20 -6 -18 -17 2 -14 -5 -19 -29 -21 -22 -2 -33 1
-34 10 -1 7 -2 22 -3 33 0 11 4 23 9 28 7 4 6 10 -1 15 -6 4 -13 15 -17 25 -3
9 -13 17 -22 17 -11 0 -14 -6 -9 -25z m82 -132 c-16 -2 -28 -9 -28 -14 0 -5
12 -10 28 -10 l27 -2 -27 -4 c-36 -6 -36 -23 -1 -23 31 0 28 -5 -9 -14 -27 -6
-28 -5 -28 34 0 39 1 40 33 39 30 -2 30 -2 5 -6z"/>
</g>
</svg>
