<?xml version="1.0" standalone="no"?>
<!DOCTYPE svg PUBLIC "-//W3C//DTD SVG 20010904//EN"
 "http://www.w3.org/TR/2001/REC-SVG-20010904/DTD/svg10.dtd">
<svg version="1.0" xmlns="http://www.w3.org/2000/svg"
 width="50.000000pt" height="725.000000pt" viewBox="0 0 50.000000 725.000000"
 preserveAspectRatio="xMidYMid meet">
<metadata>
Created by potrace 1.16, written by Peter Selinger 2001-2019
</metadata>
<g transform="translate(0.000000,725.000000) scale(0.100000,-0.100000)"
fill="#000000" stroke="none">
<path d="M170 7164 c0 -20 24 -84 32 -84 5 0 7 19 6 42 -2 31 -8 44 -21 46 -9
2 -17 0 -17 -4z"/>
<path d="M173 6700 c4 -15 -1 -22 -19 -26 -34 -9 -30 -24 6 -24 17 0 30 -4 30
-10 0 -5 4 -10 9 -10 14 0 20 40 11 66 -12 30 -45 33 -37 4z"/>
<path d="M173 6250 c4 -15 -1 -22 -19 -26 -34 -9 -30 -24 6 -24 17 0 30 -4 30
-10 0 -5 4 -10 9 -10 14 0 20 40 11 66 -12 30 -45 33 -37 4z"/>
<path d="M270 6230 c-8 -5 -12 -11 -10 -13 9 -8 120 5 120 14 0 12 -91 11
-110 -1z"/>
<path d="M290 5811 c0 -11 -8 -24 -17 -29 -15 -9 -15 -11 1 -28 17 -16 19 -16
28 -1 6 11 22 17 43 17 19 0 35 5 35 10 0 6 -13 10 -29 10 -21 0 -28 5 -27 17
0 10 -7 19 -16 21 -13 2 -18 -3 -18 -17z"/>
<path d="M173 5800 c4 -15 -1 -22 -19 -26 -34 -9 -30 -24 6 -24 17 0 30 -4 30
-10 0 -5 4 -10 9 -10 14 0 20 40 11 66 -12 30 -45 33 -37 4z"/>
<path d="M290 5361 c0 -11 -8 -24 -17 -29 -15 -9 -15 -11 1 -28 17 -16 19 -16
28 -1 6 11 22 17 43 17 19 0 35 5 35 10 0 6 -13 10 -29 10 -21 0 -28 5 -27 17
0 10 -7 19 -16 21 -13 2 -18 -3 -18 -17z"/>
<path d="M173 5350 c4 -15 -1 -22 -19 -26 -34 -9 -30 -24 6 -24 17 0 30 -4 30
-10 0 -5 4 -10 9 -10 14 0 20 40 11 66 -12 30 -45 33 -37 4z"/>
<path d="M122 5255 c-16 -34 -15 -45 2 -45 15 0 26 21 26 51 0 27 -15 24 -28
-6z"/>
<path d="M290 4911 c0 -11 -8 -24 -17 -29 -15 -9 -15 -11 1 -28 17 -16 19 -16
28 -1 6 11 22 17 43 17 19 0 35 5 35 10 0 6 -13 10 -29 10 -21 0 -28 5 -27 17
0 10 -7 19 -16 21 -13 2 -18 -3 -18 -17z"/>
<path d="M173 4900 c4 -15 -1 -22 -19 -26 -34 -9 -30 -24 6 -24 17 0 30 -4 30
-10 0 -5 4 -10 9 -10 14 0 20 40 11 66 -12 30 -45 33 -37 4z"/>
<path d="M310 4830 c0 -5 9 -10 20 -10 11 0 20 -7 20 -15 0 -17 27 -20 49 -6
12 8 12 12 2 25 -15 18 -91 22 -91 6z"/>
<path d="M122 4805 c-16 -34 -15 -45 2 -45 8 0 18 9 21 20 4 13 15 20 31 20
13 0 24 5 24 10 0 6 -9 10 -19 10 -11 0 -26 2 -33 5 -9 4 -19 -4 -26 -20z"/>
<path d="M210 4820 c0 -5 18 -10 40 -10 22 0 40 5 40 10 0 6 -18 10 -40 10
-22 0 -40 -4 -40 -10z"/>
<path d="M290 4461 c0 -11 -8 -24 -17 -29 -15 -9 -15 -11 1 -28 17 -16 19 -16
28 -1 6 11 22 17 43 17 19 0 35 5 35 10 0 6 -13 10 -29 10 -21 0 -28 5 -27 17
0 10 -7 19 -16 21 -13 2 -18 -3 -18 -17z"/>
<path d="M173 4450 c4 -15 -1 -22 -19 -26 -34 -9 -30 -24 6 -24 17 0 30 -4 30
-10 0 -5 4 -10 9 -10 14 0 20 40 11 66 -12 30 -45 33 -37 4z"/>
<path d="M310 4380 c0 -5 9 -10 20 -10 11 0 20 -7 20 -15 0 -17 27 -20 49 -6
12 8 12 12 2 25 -15 18 -91 22 -91 6z"/>
<path d="M122 4355 c-16 -34 -15 -45 2 -45 8 0 18 9 21 20 4 13 15 20 31 20
13 0 24 5 24 10 0 6 -9 10 -19 10 -11 0 -26 2 -33 5 -9 4 -19 -4 -26 -20z"/>
<path d="M210 4370 c0 -5 18 -10 40 -10 22 0 40 5 40 10 0 6 -18 10 -40 10
-22 0 -40 -4 -40 -10z"/>
<path d="M228 4343 c-27 -2 -48 -8 -48 -14 0 -10 62 -12 109 -3 35 7 42 25 9
22 -13 -1 -44 -3 -70 -5z"/>
<path d="M290 4011 c0 -11 -8 -24 -17 -29 -15 -9 -15 -11 1 -28 17 -16 19 -16
28 -1 6 11 22 17 43 17 19 0 35 5 35 10 0 6 -13 10 -29 10 -21 0 -28 5 -27 17
0 10 -7 19 -16 21 -13 2 -18 -3 -18 -17z"/>
<path d="M173 4000 c4 -15 -1 -22 -19 -26 -34 -9 -30 -24 6 -24 17 0 30 -4 30
-10 0 -5 4 -10 9 -10 14 0 20 40 11 66 -12 30 -45 33 -37 4z"/>
<path d="M310 3930 c0 -5 9 -10 20 -10 11 0 20 -7 20 -15 0 -17 27 -20 49 -6
12 8 12 12 2 25 -15 18 -91 22 -91 6z"/>
<path d="M122 3905 c-16 -34 -15 -45 2 -45 8 0 18 9 21 20 4 13 15 20 31 20
13 0 24 5 24 10 0 6 -9 10 -19 10 -11 0 -26 2 -33 5 -9 4 -19 -4 -26 -20z"/>
<path d="M210 3920 c0 -5 18 -10 40 -10 22 0 40 5 40 10 0 6 -18 10 -40 10
-22 0 -40 -4 -40 -10z"/>
<path d="M228 3893 c-27 -2 -48 -8 -48 -14 0 -10 62 -12 109 -3 35 7 42 25 9
22 -13 -1 -44 -3 -70 -5z"/>
<path d="M155 3833 c3 -10 9 -30 12 -45 7 -34 23 -37 23 -5 0 39 -12 67 -27
67 -10 0 -13 -6 -8 -17z"/>
<path d="M290 3561 c0 -11 -8 -24 -17 -29 -15 -9 -15 -11 1 -28 17 -16 19 -16
28 -1 6 11 22 17 43 17 19 0 35 5 35 10 0 6 -13 10 -29 10 -21 0 -28 5 -27 17
0 10 -7 19 -16 21 -13 2 -18 -3 -18 -17z"/>
<path d="M173 3550 c4 -15 -1 -22 -19 -26 -34 -9 -30 -24 6 -24 17 0 30 -4 30
-10 0 -5 4 -10 9 -10 14 0 20 40 11 66 -12 30 -45 33 -37 4z"/>
<path d="M310 3480 c0 -5 9 -10 20 -10 11 0 20 -7 20 -15 0 -17 27 -20 49 -6
12 8 12 12 2 25 -15 18 -91 22 -91 6z"/>
<path d="M122 3455 c-16 -34 -15 -45 2 -45 8 0 18 9 21 20 4 13 15 20 31 20
13 0 24 5 24 10 0 6 -9 10 -19 10 -11 0 -26 2 -33 5 -9 4 -19 -4 -26 -20z"/>
<path d="M210 3470 c0 -5 18 -10 40 -10 22 0 40 5 40 10 0 6 -18 10 -40 10
-22 0 -40 -4 -40 -10z"/>
<path d="M228 3443 c-27 -2 -48 -8 -48 -14 0 -10 62 -12 109 -3 35 7 42 25 9
22 -13 -1 -44 -3 -70 -5z"/>
<path d="M290 3411 c0 -5 7 -12 16 -15 15 -6 14 -17 -3 -63 -3 -7 1 -13 9 -13
16 0 51 77 42 91 -7 12 -64 12 -64 0z"/>
<path d="M220 3400 c0 -5 14 -10 30 -10 17 0 30 5 30 10 0 6 -13 10 -30 10
-16 0 -30 -4 -30 -10z"/>
<path d="M155 3383 c3 -10 9 -30 12 -45 9 -44 23 -32 21 17 -1 37 -5 45 -21
45 -14 0 -17 -5 -12 -17z"/>
<path d="M290 3111 c0 -11 -8 -24 -17 -29 -15 -9 -15 -11 1 -28 17 -16 19 -16
28 -1 6 11 22 17 43 17 19 0 35 5 35 10 0 6 -13 10 -29 10 -21 0 -28 5 -27 17
0 10 -7 19 -16 21 -13 2 -18 -3 -18 -17z"/>
<path d="M173 3100 c4 -15 -1 -22 -19 -26 -34 -9 -30 -24 6 -24 17 0 30 -4 30
-10 0 -5 4 -10 9 -10 14 0 20 40 11 66 -12 30 -45 33 -37 4z"/>
<path d="M310 3030 c0 -5 9 -10 20 -10 11 0 20 -7 20 -15 0 -17 27 -20 49 -6
12 8 12 12 2 25 -15 18 -91 22 -91 6z"/>
<path d="M122 3005 c-16 -34 -15 -45 2 -45 8 0 18 9 21 20 4 13 15 20 31 20
13 0 24 5 24 10 0 6 -9 10 -19 10 -11 0 -26 2 -33 5 -9 4 -19 -4 -26 -20z"/>
<path d="M210 3020 c0 -5 18 -10 40 -10 22 0 40 5 40 10 0 6 -18 10 -40 10
-22 0 -40 -4 -40 -10z"/>
<path d="M228 2993 c-27 -2 -48 -8 -48 -14 0 -10 62 -12 109 -3 35 7 42 25 9
22 -13 -1 -44 -3 -70 -5z"/>
<path d="M290 2964 c0 -4 8 -13 18 -20 15 -12 13 -13 -20 -14 -21 0 -38 -4
-38 -10 0 -5 14 -10 31 -10 26 0 29 -3 24 -20 -4 -14 -2 -20 8 -20 15 0 50 77
41 91 -6 10 -64 12 -64 3z"/>
<path d="M220 2950 c0 -5 14 -10 30 -10 17 0 30 5 30 10 0 6 -13 10 -30 10
-16 0 -30 -4 -30 -10z"/>
<path d="M155 2933 c3 -10 9 -30 12 -45 6 -32 23 -38 23 -8 0 15 7 20 25 20
14 0 25 5 25 10 0 6 -13 10 -30 10 -22 0 -28 4 -24 15 4 11 0 15 -16 15 -17 0
-21 -4 -15 -17z"/>
<path d="M290 2661 c0 -11 -8 -24 -17 -29 -15 -9 -15 -11 1 -28 17 -16 19 -16
28 -1 6 11 22 17 43 17 19 0 35 5 35 10 0 6 -13 10 -29 10 -21 0 -28 5 -27 17
0 10 -7 19 -16 21 -13 2 -18 -3 -18 -17z"/>
<path d="M173 2650 c4 -15 -1 -22 -19 -26 -34 -9 -30 -24 6 -24 17 0 30 -4 30
-10 0 -5 4 -10 9 -10 14 0 20 40 11 66 -12 30 -45 33 -37 4z"/>
<path d="M310 2580 c0 -5 9 -10 20 -10 11 0 20 -7 20 -15 0 -17 27 -20 49 -6
12 8 12 12 2 25 -15 18 -91 22 -91 6z"/>
<path d="M122 2555 c-16 -34 -15 -45 2 -45 8 0 18 9 21 20 4 13 15 20 31 20
13 0 24 5 24 10 0 6 -9 10 -19 10 -11 0 -26 2 -33 5 -9 4 -19 -4 -26 -20z"/>
<path d="M210 2570 c0 -5 18 -10 40 -10 22 0 40 5 40 10 0 6 -18 10 -40 10
-22 0 -40 -4 -40 -10z"/>
<path d="M228 2543 c-27 -2 -48 -8 -48 -14 0 -10 62 -12 109 -3 35 7 42 25 9
22 -13 -1 -44 -3 -70 -5z"/>
<path d="M290 2514 c0 -4 8 -13 18 -20 15 -12 13 -13 -20 -14 -46 0 -51 -20
-5 -21 27 0 29 -2 12 -9 -11 -5 -40 -8 -65 -8 -28 1 -34 3 -17 5 36 6 35 23
-3 23 -22 0 -28 4 -24 15 4 11 0 15 -16 15 -17 0 -21 -4 -15 -17 3 -10 9 -30
12 -46 4 -20 10 -26 22 -22 9 2 44 5 78 6 l61 2 16 40 c8 22 13 44 10 48 -6
10 -64 12 -64 3z"/>
<path d="M220 2500 c0 -5 14 -10 30 -10 17 0 30 5 30 10 0 6 -13 10 -30 10
-16 0 -30 -4 -30 -10z"/>
<path d="M290 2211 c0 -11 -8 -24 -17 -29 -15 -9 -15 -11 1 -28 17 -16 19 -16
28 -1 6 11 22 17 43 17 19 0 35 5 35 10 0 6 -13 10 -29 10 -21 0 -28 5 -27 17
0 10 -7 19 -16 21 -13 2 -18 -3 -18 -17z"/>
<path d="M173 2200 c4 -15 -1 -22 -19 -26 -34 -9 -30 -24 6 -24 17 0 30 -4 30
-10 0 -5 4 -10 9 -10 14 0 20 40 11 66 -12 30 -45 33 -37 4z"/>
<path d="M310 2130 c0 -5 9 -10 20 -10 11 0 20 -7 20 -15 0 -17 27 -20 49 -6
12 8 12 12 2 25 -15 18 -91 22 -91 6z"/>
<path d="M122 2105 c-16 -34 -15 -45 2 -45 8 0 18 9 21 20 4 13 15 20 31 20
13 0 24 5 24 10 0 6 -9 10 -19 10 -11 0 -26 2 -33 5 -9 4 -19 -4 -26 -20z"/>
<path d="M210 2120 c0 -5 18 -10 40 -10 22 0 40 5 40 10 0 6 -18 10 -40 10
-22 0 -40 -4 -40 -10z"/>
<path d="M228 2093 c-27 -2 -48 -8 -48 -14 0 -10 62 -12 109 -3 35 7 42 25 9
22 -13 -1 -44 -3 -70 -5z"/>
<path d="M290 2064 c0 -4 8 -13 18 -20 15 -12 13 -13 -20 -14 -46 0 -51 -20
-5 -21 27 0 29 -2 12 -9 -11 -5 -40 -8 -65 -8 -28 1 -34 3 -17 5 36 6 35 23
-3 23 -22 0 -28 4 -24 15 4 11 0 15 -16 15 -17 0 -21 -4 -15 -17 3 -10 9 -30
12 -46 4 -20 10 -26 22 -22 9 2 44 5 78 6 l61 2 16 40 c8 22 13 44 10 48 -6
10 -64 12 -64 3z"/>
<path d="M220 2050 c0 -5 14 -10 30 -10 17 0 30 5 30 10 0 6 -13 10 -30 10
-16 0 -30 -4 -30 -10z"/>
<path d="M222 1957 c-84 -6 -122 -13 -119 -21 2 -6 17 -10 33 -9 227 13 274
17 274 23 0 10 -27 20 -48 18 -9 0 -72 -5 -140 -11z"/>
<path d="M290 1761 c0 -11 -8 -24 -17 -29 -15 -9 -15 -11 1 -28 17 -16 19 -16
28 -1 6 11 22 17 43 17 19 0 35 5 35 10 0 6 -13 10 -29 10 -21 0 -28 5 -27 17
0 10 -7 19 -16 21 -13 2 -18 -3 -18 -17z"/>
<path d="M173 1750 c4 -15 -1 -22 -19 -26 -34 -9 -30 -24 6 -24 17 0 30 -4 30
-10 0 -5 4 -10 9 -10 14 0 20 40 11 66 -12 30 -45 33 -37 4z"/>
<path d="M310 1680 c0 -5 9 -10 20 -10 11 0 20 -7 20 -15 0 -17 27 -20 49 -6
12 8 12 12 2 25 -15 18 -91 22 -91 6z"/>
<path d="M122 1655 c-16 -34 -15 -45 2 -45 8 0 18 9 21 20 4 13 15 20 31 20
13 0 24 5 24 10 0 6 -9 10 -19 10 -11 0 -26 2 -33 5 -9 4 -19 -4 -26 -20z"/>
<path d="M210 1670 c0 -5 5 -10 10 -10 6 0 10 -4 10 -10 0 -5 -11 -10 -25 -10
-14 0 -25 -4 -25 -10 0 -5 10 -10 23 -10 16 0 22 -6 23 -25 2 -20 -3 -25 -22
-25 -17 0 -22 4 -18 15 4 11 0 15 -16 15 -17 0 -21 -4 -15 -17 3 -10 9 -30 12
-45 5 -24 9 -26 37 -22 24 4 27 3 16 -5 -8 -6 -39 -11 -68 -11 -39 0 -52 -4
-49 -12 3 -9 23 -12 65 -10 l62 4 0 -36 c0 -48 18 -46 22 2 l3 37 78 3 c73 3
96 12 62 26 -9 3 -44 3 -78 -1 -34 -3 -59 -2 -55 2 4 4 21 8 37 7 24 0 31 5
44 40 19 48 16 58 -24 58 -33 0 -36 -7 -11 -26 15 -12 13 -13 -18 -14 -26 0
-31 3 -20 10 13 9 13 11 0 20 -12 7 -8 11 18 16 17 4 32 10 32 15 0 5 -15 10
-32 10 -18 1 -25 3 -15 6 32 8 17 23 -23 23 -22 0 -40 -4 -40 -10z m85 -120
c-27 -12 -35 -12 -35 0 0 6 12 10 28 9 24 0 25 -1 7 -9z m-72 -7 c-7 -2 -19
-2 -25 0 -7 3 -2 5 12 5 14 0 19 -2 13 -5z"/>
</g>
</svg>
