<?xml version="1.0" standalone="no"?>
<!DOCTYPE svg PUBLIC "-//W3C//DTD SVG 20010904//EN"
 "http://www.w3.org/TR/2001/REC-SVG-20010904/DTD/svg10.dtd">
<svg version="1.0" xmlns="http://www.w3.org/2000/svg"
 width="50.000000pt" height="725.000000pt" viewBox="0 0 50.000000 725.000000"
 preserveAspectRatio="xMidYMid meet">
<metadata>
Created by potrace 1.16, written by Peter Selinger 2001-2019
</metadata>
<g transform="translate(0.000000,725.000000) scale(0.100000,-0.100000)"
fill="#000000" stroke="none">
<path d="M155 7143 c4 -10 12 -30 17 -45 5 -16 14 -28 20 -28 6 0 7 7 4 16 -3
9 -6 29 -6 45 0 23 -4 29 -21 29 -16 0 -19 -4 -14 -17z"/>
<path d="M155 6690 c5 -17 2 -20 -20 -20 -17 0 -25 -5 -22 -12 2 -7 17 -13 32
-13 16 0 30 -6 32 -12 3 -7 9 -13 15 -13 6 0 7 7 4 15 -3 9 1 18 9 21 19 8 19
24 0 24 -8 0 -15 7 -15 15 0 8 -9 15 -21 15 -16 0 -19 -4 -14 -20z"/>
<path d="M155 6240 c5 -17 2 -20 -20 -20 -17 0 -25 -5 -22 -12 2 -7 17 -13 32
-13 16 0 30 -6 32 -12 3 -7 9 -13 15 -13 6 0 7 7 4 15 -3 9 1 18 9 21 19 8 19
24 0 24 -8 0 -15 7 -15 15 0 8 -9 15 -21 15 -16 0 -19 -4 -14 -20z"/>
<path d="M263 6233 c-13 -2 -23 -9 -23 -15 0 -6 12 -8 31 -4 17 3 44 6 60 6
16 0 29 5 29 10 0 10 -53 11 -97 3z"/>
<path d="M276 5805 c-4 -14 -13 -25 -21 -25 -8 0 -15 -4 -15 -10 0 -5 5 -10
10 -10 6 0 10 -7 10 -15 0 -22 18 -18 25 5 5 15 15 20 41 20 19 0 34 5 34 10
0 6 -11 10 -24 10 -15 0 -26 7 -29 20 -7 28 -24 25 -31 -5z"/>
<path d="M155 5790 c5 -17 2 -20 -20 -20 -17 0 -25 -5 -22 -12 2 -7 17 -13 32
-13 16 0 30 -6 32 -12 3 -7 9 -13 15 -13 6 0 7 7 4 15 -3 9 1 18 9 21 19 8 19
24 0 24 -8 0 -15 7 -15 15 0 8 -9 15 -21 15 -16 0 -19 -4 -14 -20z"/>
<path d="M276 5355 c-4 -14 -13 -25 -21 -25 -8 0 -15 -4 -15 -10 0 -5 5 -10
10 -10 6 0 10 -7 10 -15 0 -22 18 -18 25 5 5 15 15 20 41 20 19 0 34 5 34 10
0 6 -11 10 -24 10 -15 0 -26 7 -29 20 -7 28 -24 25 -31 -5z"/>
<path d="M155 5340 c5 -17 2 -20 -20 -20 -17 0 -25 -5 -22 -12 2 -7 17 -13 32
-13 16 0 30 -6 32 -12 3 -7 9 -13 15 -13 6 0 7 7 4 15 -3 9 1 18 9 21 19 8 19
24 0 24 -8 0 -15 7 -15 15 0 8 -9 15 -21 15 -16 0 -19 -4 -14 -20z"/>
<path d="M198 5263 c-16 -2 -28 -9 -28 -15 0 -7 15 -8 42 -4 36 6 40 5 28 -9
-7 -8 -11 -18 -8 -21 8 -8 68 30 65 41 -4 11 -56 15 -99 8z"/>
<path d="M276 4905 c-4 -14 -13 -25 -21 -25 -8 0 -15 -4 -15 -10 0 -5 5 -10
10 -10 6 0 10 -7 10 -15 0 -22 18 -18 25 5 5 15 15 20 41 20 19 0 34 5 34 10
0 6 -11 10 -24 10 -15 0 -26 7 -29 20 -7 28 -24 25 -31 -5z"/>
<path d="M155 4890 c5 -17 2 -20 -20 -20 -17 0 -25 -5 -22 -12 2 -7 17 -13 32
-13 16 0 30 -6 32 -12 3 -7 9 -13 15 -13 6 0 7 7 4 15 -3 9 1 18 9 21 19 8 19
24 0 24 -8 0 -15 7 -15 15 0 8 -9 15 -21 15 -16 0 -19 -4 -14 -20z"/>
<path d="M198 4813 c-16 -2 -28 -9 -28 -15 0 -7 15 -8 42 -4 40 7 41 6 25 -12
-9 -10 -17 -32 -17 -49 0 -17 -6 -33 -12 -36 -10 -3 -8 -9 4 -23 23 -24 32
-13 34 44 1 39 6 49 28 62 14 8 24 20 23 25 -4 11 -56 15 -99 8z"/>
<path d="M276 4455 c-4 -14 -13 -25 -21 -25 -8 0 -15 -4 -15 -10 0 -5 5 -10
10 -10 6 0 10 -7 10 -15 0 -22 18 -18 25 5 5 15 15 20 41 20 19 0 34 5 34 10
0 6 -11 10 -24 10 -15 0 -26 7 -29 20 -7 28 -24 25 -31 -5z"/>
<path d="M155 4440 c5 -17 2 -20 -20 -20 -17 0 -25 -5 -22 -12 2 -7 17 -13 32
-13 16 0 30 -6 32 -12 3 -7 9 -13 15 -13 6 0 7 7 4 15 -3 9 1 18 9 21 19 8 19
24 0 24 -8 0 -15 7 -15 15 0 8 -9 15 -21 15 -16 0 -19 -4 -14 -20z"/>
<path d="M198 4363 c-16 -2 -28 -9 -28 -15 0 -7 15 -8 42 -4 40 7 41 6 25 -12
-9 -10 -17 -32 -17 -49 0 -17 -6 -33 -12 -36 -10 -3 -8 -9 4 -23 23 -24 32
-13 34 44 1 39 6 49 28 62 14 8 24 20 23 25 -4 11 -56 15 -99 8z"/>
<path d="M143 4308 c-39 -13 -44 -33 -8 -26 l25 5 -26 -34 c-38 -50 -20 -54
28 -6 27 27 39 47 35 57 -7 18 -9 18 -54 4z"/>
<path d="M276 4005 c-4 -14 -13 -25 -21 -25 -8 0 -15 -4 -15 -10 0 -5 5 -10
10 -10 6 0 10 -7 10 -15 0 -22 18 -18 25 5 5 15 15 20 41 20 19 0 34 5 34 10
0 6 -11 10 -24 10 -15 0 -26 7 -29 20 -7 28 -24 25 -31 -5z"/>
<path d="M155 3990 c5 -17 2 -20 -20 -20 -17 0 -25 -5 -22 -12 2 -7 17 -13 32
-13 16 0 30 -6 32 -12 3 -7 9 -13 15 -13 6 0 7 7 4 15 -3 9 1 18 9 21 19 8 19
24 0 24 -8 0 -15 7 -15 15 0 8 -9 15 -21 15 -16 0 -19 -4 -14 -20z"/>
<path d="M198 3913 c-16 -2 -28 -9 -28 -15 0 -7 15 -8 42 -4 40 7 41 6 25 -12
-9 -10 -17 -32 -17 -49 0 -17 -6 -33 -12 -36 -10 -3 -8 -9 4 -23 23 -24 32
-13 34 44 1 39 6 49 28 62 14 8 24 20 23 25 -4 11 -56 15 -99 8z"/>
<path d="M310 3870 c-6 -12 -10 -24 -7 -26 8 -9 58 19 54 30 -7 20 -36 17 -47
-4z"/>
<path d="M143 3858 c-39 -13 -44 -33 -8 -26 l25 5 -26 -34 c-38 -50 -20 -54
28 -6 27 27 39 47 35 57 -7 18 -9 18 -54 4z"/>
<path d="M276 3555 c-4 -14 -13 -25 -21 -25 -8 0 -15 -4 -15 -10 0 -5 5 -10
10 -10 6 0 10 -7 10 -15 0 -22 18 -18 25 5 5 15 15 20 41 20 19 0 34 5 34 10
0 6 -11 10 -24 10 -15 0 -26 7 -29 20 -7 28 -24 25 -31 -5z"/>
<path d="M155 3540 c5 -17 2 -20 -20 -20 -17 0 -25 -5 -22 -12 2 -7 17 -13 32
-13 16 0 30 -6 32 -12 3 -7 9 -13 15 -13 6 0 7 7 4 15 -3 9 1 18 9 21 19 8 19
24 0 24 -8 0 -15 7 -15 15 0 8 -9 15 -21 15 -16 0 -19 -4 -14 -20z"/>
<path d="M198 3463 c-16 -2 -28 -9 -28 -15 0 -7 15 -8 42 -4 40 7 41 6 25 -12
-9 -10 -17 -32 -17 -49 0 -17 -6 -33 -12 -36 -10 -3 -8 -9 4 -23 23 -24 32
-13 34 44 1 39 6 49 28 62 14 8 24 20 23 25 -4 11 -56 15 -99 8z"/>
<path d="M310 3420 c-8 -15 -17 -19 -31 -15 -29 10 -23 -5 23 -52 30 -30 50
-43 70 -43 39 0 35 23 -6 38 -19 7 -39 19 -46 27 -10 12 -7 17 14 26 28 13 30
32 3 37 -8 2 -21 -6 -27 -18z"/>
<path d="M143 3408 c-39 -13 -44 -33 -8 -26 l25 5 -26 -34 c-38 -50 -20 -54
28 -6 27 27 39 47 35 57 -7 18 -9 18 -54 4z"/>
<path d="M276 3105 c-4 -14 -13 -25 -21 -25 -8 0 -15 -4 -15 -10 0 -5 5 -10
10 -10 6 0 10 -7 10 -15 0 -22 18 -18 25 5 5 15 15 20 41 20 19 0 34 5 34 10
0 6 -11 10 -24 10 -15 0 -26 7 -29 20 -7 28 -24 25 -31 -5z"/>
<path d="M155 3090 c5 -17 2 -20 -20 -20 -17 0 -25 -5 -22 -12 2 -7 17 -13 32
-13 16 0 30 -6 32 -12 3 -7 9 -13 15 -13 6 0 7 7 4 15 -3 9 1 18 9 21 19 8 19
24 0 24 -8 0 -15 7 -15 15 0 8 -9 15 -21 15 -16 0 -19 -4 -14 -20z"/>
<path d="M198 3013 c-16 -2 -28 -9 -28 -15 0 -7 15 -8 42 -4 40 7 41 6 25 -12
-9 -10 -17 -32 -17 -49 0 -17 -6 -33 -12 -36 -10 -3 -10 -7 1 -20 12 -15 10
-17 -23 -17 -20 0 -36 -5 -36 -11 0 -8 16 -10 53 -5 28 3 64 6 80 6 15 0 27 5
27 10 0 6 -15 10 -33 10 -33 0 -33 0 -31 48 1 39 6 49 28 62 14 8 24 20 23 25
-4 11 -56 15 -99 8z"/>
<path d="M310 2970 c-8 -15 -17 -19 -31 -15 -29 10 -23 -5 23 -52 30 -30 50
-43 70 -43 39 0 35 23 -6 38 -19 7 -39 19 -46 27 -10 12 -7 17 14 26 28 13 30
32 3 37 -8 2 -21 -6 -27 -18z"/>
<path d="M143 2958 c-39 -13 -44 -33 -8 -26 l25 5 -26 -34 c-38 -50 -20 -54
28 -6 27 27 39 47 35 57 -7 18 -9 18 -54 4z"/>
<path d="M276 2655 c-4 -14 -13 -25 -21 -25 -8 0 -15 -4 -15 -10 0 -5 5 -10
10 -10 6 0 10 -7 10 -15 0 -22 18 -18 25 5 5 15 15 20 41 20 19 0 34 5 34 10
0 6 -11 10 -24 10 -15 0 -26 7 -29 20 -7 28 -24 25 -31 -5z"/>
<path d="M155 2640 c5 -17 2 -20 -20 -20 -17 0 -25 -5 -22 -12 2 -7 17 -13 32
-13 16 0 30 -6 32 -12 3 -7 9 -13 15 -13 6 0 7 7 4 15 -3 9 1 18 9 21 19 8 19
24 0 24 -8 0 -15 7 -15 15 0 8 -9 15 -21 15 -16 0 -19 -4 -14 -20z"/>
<path d="M198 2563 c-16 -2 -28 -9 -28 -15 0 -7 15 -8 42 -4 40 7 41 6 25 -12
-9 -10 -17 -32 -17 -49 0 -17 -6 -33 -12 -36 -10 -3 -10 -7 1 -20 12 -15 10
-17 -23 -17 -20 0 -36 -5 -36 -11 0 -8 16 -10 53 -5 28 3 64 6 80 6 15 0 27 5
27 10 0 6 -15 10 -33 10 -33 0 -33 0 -31 48 1 39 6 49 28 62 14 8 24 20 23 25
-4 11 -56 15 -99 8z"/>
<path d="M310 2520 c-8 -15 -17 -19 -31 -15 -29 10 -23 -5 23 -52 30 -30 50
-43 70 -43 39 0 35 23 -6 38 -19 7 -39 19 -46 27 -10 12 -7 17 14 26 28 13 30
32 3 37 -8 2 -21 -6 -27 -18z"/>
<path d="M143 2508 c-39 -13 -44 -33 -8 -26 l25 5 -26 -34 c-38 -50 -20 -54
28 -6 27 27 39 47 35 57 -7 18 -9 18 -54 4z"/>
<path d="M112 2360 c-14 -22 -16 -50 -4 -50 15 0 32 24 32 47 0 28 -11 30 -28
3z"/>
<path d="M276 2205 c-4 -14 -13 -25 -21 -25 -8 0 -15 -4 -15 -10 0 -5 5 -10
10 -10 6 0 10 -7 10 -15 0 -22 18 -18 25 5 5 15 15 20 41 20 19 0 34 5 34 10
0 6 -11 10 -24 10 -15 0 -26 7 -29 20 -7 28 -24 25 -31 -5z"/>
<path d="M155 2190 c5 -17 2 -20 -20 -20 -17 0 -25 -5 -22 -12 2 -7 17 -13 32
-13 16 0 30 -6 32 -12 3 -7 9 -13 15 -13 6 0 7 7 4 15 -3 9 1 18 9 21 19 8 19
24 0 24 -8 0 -15 7 -15 15 0 8 -9 15 -21 15 -16 0 -19 -4 -14 -20z"/>
<path d="M198 2113 c-16 -2 -28 -9 -28 -15 0 -7 15 -8 42 -4 40 7 41 6 25 -12
-9 -10 -17 -32 -17 -49 0 -17 -6 -33 -12 -36 -10 -3 -10 -7 1 -20 12 -15 10
-17 -23 -17 -20 0 -36 -5 -36 -11 0 -8 16 -10 53 -5 28 3 64 6 80 6 15 0 27 5
27 10 0 6 -15 10 -33 10 -33 0 -33 0 -31 48 1 39 6 49 28 62 14 8 24 20 23 25
-4 11 -56 15 -99 8z"/>
<path d="M310 2070 c-8 -15 -17 -19 -31 -15 -29 10 -23 -5 23 -52 30 -30 50
-43 70 -43 39 0 35 23 -6 38 -19 7 -39 19 -46 27 -10 12 -7 17 14 26 28 13 30
32 3 37 -8 2 -21 -6 -27 -18z"/>
<path d="M143 2058 c-39 -13 -44 -33 -8 -26 l25 5 -26 -34 c-38 -50 -20 -54
28 -6 27 27 39 47 35 57 -7 18 -9 18 -54 4z"/>
<path d="M112 1910 c-14 -22 -16 -50 -4 -50 15 0 32 24 32 47 0 28 -11 30 -28
3z"/>
<path d="M180 1919 c0 -17 20 -49 30 -49 14 0 12 34 -2 48 -15 15 -28 15 -28
1z"/>
<path d="M276 1755 c-4 -14 -13 -25 -21 -25 -8 0 -15 -4 -15 -10 0 -5 5 -10
10 -10 6 0 10 -7 10 -15 0 -22 18 -18 25 5 5 15 15 20 41 20 19 0 34 5 34 10
0 6 -11 10 -24 10 -15 0 -26 7 -29 20 -7 28 -24 25 -31 -5z"/>
<path d="M155 1740 c5 -17 2 -20 -20 -20 -17 0 -25 -5 -22 -12 2 -7 17 -13 32
-13 16 0 30 -6 32 -12 3 -7 9 -13 15 -13 6 0 7 7 4 15 -3 9 1 18 9 21 19 8 19
24 0 24 -8 0 -15 7 -15 15 0 8 -9 15 -21 15 -16 0 -19 -4 -14 -20z"/>
<path d="M198 1663 c-16 -2 -28 -9 -28 -15 0 -7 15 -8 42 -4 40 7 41 6 25 -12
-9 -10 -17 -32 -17 -49 0 -17 -6 -33 -12 -36 -10 -3 -10 -7 1 -20 12 -15 10
-17 -23 -17 -20 0 -36 -5 -36 -11 0 -8 16 -10 53 -5 28 3 64 6 80 6 15 0 27 5
27 10 0 6 -15 10 -33 10 -33 0 -33 0 -31 48 1 39 6 49 28 62 14 8 24 20 23 25
-4 11 -56 15 -99 8z"/>
<path d="M310 1620 c-8 -15 -17 -19 -31 -15 -29 10 -23 -5 23 -52 30 -30 50
-43 70 -43 39 0 35 23 -6 38 -19 7 -39 19 -46 27 -10 12 -7 17 14 26 28 13 30
32 3 37 -8 2 -21 -6 -27 -18z"/>
<path d="M143 1608 c-39 -13 -44 -33 -8 -26 l25 5 -26 -34 c-38 -50 -20 -54
28 -6 27 27 39 47 35 57 -7 18 -9 18 -54 4z"/>
<path d="M112 1460 c-14 -22 -16 -50 -4 -50 15 0 32 24 32 47 0 28 -11 30 -28
3z"/>
<path d="M180 1469 c0 -17 20 -49 30 -49 14 0 12 34 -2 48 -15 15 -28 15 -28
1z"/>
<path d="M240 1476 c0 -14 24 -56 32 -56 17 0 3 55 -14 58 -10 2 -18 1 -18 -2z"/>
<path d="M276 1305 c-4 -14 -13 -25 -21 -25 -8 0 -15 -4 -15 -10 0 -5 5 -10
10 -10 6 0 10 -7 10 -15 0 -22 18 -18 25 5 5 15 15 20 41 20 19 0 34 5 34 10
0 6 -11 10 -24 10 -15 0 -26 7 -29 20 -7 28 -24 25 -31 -5z"/>
<path d="M155 1290 c5 -17 2 -20 -20 -20 -17 0 -25 -5 -22 -12 2 -7 17 -13 32
-13 16 0 30 -6 32 -12 3 -7 9 -13 15 -13 6 0 7 7 4 15 -3 9 1 18 9 21 19 8 19
24 0 24 -8 0 -15 7 -15 15 0 8 -9 15 -21 15 -16 0 -19 -4 -14 -20z"/>
<path d="M198 1213 c-16 -2 -28 -9 -28 -15 0 -7 15 -8 42 -4 40 7 41 6 25 -12
-9 -10 -17 -32 -17 -49 0 -17 -6 -33 -12 -36 -10 -3 -10 -7 1 -20 12 -15 10
-17 -23 -17 -20 0 -36 -5 -36 -11 0 -8 16 -10 53 -5 28 3 64 6 80 6 15 0 27 5
27 10 0 6 -15 10 -33 10 -33 0 -33 0 -31 48 1 39 6 49 28 62 14 8 24 20 23 25
-4 11 -56 15 -99 8z"/>
<path d="M310 1170 c-8 -15 -17 -19 -31 -15 -29 10 -23 -5 23 -52 30 -30 50
-43 70 -43 39 0 35 23 -6 38 -19 7 -39 19 -46 27 -10 12 -7 17 14 26 28 13 30
32 3 37 -8 2 -21 -6 -27 -18z"/>
<path d="M143 1158 c-39 -13 -44 -33 -8 -26 l25 5 -26 -34 c-38 -50 -20 -54
28 -6 27 27 39 47 35 57 -7 18 -9 18 -54 4z"/>
<path d="M310 1030 c0 -19 32 -60 46 -60 22 0 16 37 -8 54 -26 19 -38 20 -38
6z"/>
<path d="M112 1010 c-14 -22 -16 -50 -4 -50 15 0 32 24 32 47 0 28 -11 30 -28
3z"/>
<path d="M180 1019 c0 -17 20 -49 30 -49 14 0 12 34 -2 48 -15 15 -28 15 -28
1z"/>
<path d="M240 1026 c0 -14 24 -56 32 -56 17 0 3 55 -14 58 -10 2 -18 1 -18 -2z"/>
</g>
</svg>
