<?xml version="1.0" standalone="no"?>
<!DOCTYPE svg PUBLIC "-//W3C//DTD SVG 20010904//EN"
 "http://www.w3.org/TR/2001/REC-SVG-20010904/DTD/svg10.dtd">
<svg version="1.0" xmlns="http://www.w3.org/2000/svg"
 width="50.000000pt" height="725.000000pt" viewBox="0 0 50.000000 725.000000"
 preserveAspectRatio="xMidYMid meet">
<metadata>
Created by potrace 1.16, written by Peter Selinger 2001-2019
</metadata>
<g transform="translate(0.000000,725.000000) scale(0.100000,-0.100000)"
fill="#000000" stroke="none">
<path d="M185 7143 c4 -10 10 -28 12 -40 8 -37 23 -26 23 17 0 34 -3 40 -21
40 -16 0 -19 -4 -14 -17z"/>
<path d="M185 6690 c5 -17 2 -20 -25 -20 -21 0 -30 -4 -27 -12 2 -7 18 -12 36
-12 17 1 31 -2 31 -7 0 -5 5 -9 10 -9 6 0 10 7 10 15 0 8 7 15 15 15 8 0 15 5
15 10 0 6 -7 10 -15 10 -8 0 -15 7 -15 15 0 8 -9 15 -21 15 -16 0 -19 -4 -14
-20z"/>
<path d="M185 6240 c5 -17 2 -20 -25 -20 -21 0 -30 -4 -27 -12 2 -7 18 -12 36
-12 17 1 31 -2 31 -7 0 -5 5 -9 10 -9 6 0 10 7 10 15 0 8 7 15 15 15 8 0 15 5
15 10 0 6 -7 10 -15 10 -8 0 -15 7 -15 15 0 8 -9 15 -21 15 -16 0 -19 -4 -14
-20z"/>
<path d="M293 6233 c-28 -5 -31 -23 -4 -23 42 0 111 13 111 21 0 9 -66 10
-107 2z"/>
<path d="M310 5810 c0 -13 -8 -24 -20 -27 -23 -6 -27 -23 -5 -23 9 0 12 -6 9
-15 -9 -21 9 -19 29 5 10 12 29 20 47 20 16 0 30 5 30 10 0 6 -13 10 -29 10
-21 0 -28 5 -27 17 0 10 -7 19 -16 21 -13 2 -18 -3 -18 -18z"/>
<path d="M185 5790 c5 -17 2 -20 -25 -20 -21 0 -30 -4 -27 -12 2 -7 18 -12 36
-12 17 1 31 -2 31 -7 0 -5 5 -9 10 -9 6 0 10 7 10 15 0 8 7 15 15 15 8 0 15 5
15 10 0 6 -7 10 -15 10 -8 0 -15 7 -15 15 0 8 -9 15 -21 15 -16 0 -19 -4 -14
-20z"/>
<path d="M310 5360 c0 -13 -8 -24 -20 -27 -23 -6 -27 -23 -5 -23 9 0 12 -6 9
-15 -9 -21 9 -19 29 5 10 12 29 20 47 20 16 0 30 5 30 10 0 6 -13 10 -29 10
-21 0 -28 5 -27 17 0 10 -7 19 -16 21 -13 2 -18 -3 -18 -18z"/>
<path d="M185 5340 c5 -17 2 -20 -25 -20 -21 0 -30 -4 -27 -12 2 -7 18 -12 36
-12 17 1 31 -2 31 -7 0 -5 5 -9 10 -9 6 0 10 7 10 15 0 8 7 15 15 15 8 0 15 5
15 10 0 6 -7 10 -15 10 -8 0 -15 7 -15 15 0 8 -9 15 -21 15 -16 0 -19 -4 -14
-20z"/>
<path d="M173 5263 c-13 -2 -23 -9 -23 -15 0 -6 13 -8 35 -4 29 6 34 4 29 -9
-4 -9 -1 -15 9 -15 14 0 27 20 27 41 0 9 -36 10 -77 2z"/>
<path d="M310 4910 c0 -13 -8 -24 -20 -27 -23 -6 -27 -23 -5 -23 9 0 12 -6 9
-15 -9 -21 9 -19 29 5 10 12 29 20 47 20 16 0 30 5 30 10 0 6 -13 10 -29 10
-21 0 -28 5 -27 17 0 10 -7 19 -16 21 -13 2 -18 -3 -18 -18z"/>
<path d="M185 4890 c5 -17 2 -20 -25 -20 -21 0 -30 -4 -27 -12 2 -7 18 -12 36
-12 17 1 31 -2 31 -7 0 -5 5 -9 10 -9 6 0 10 7 10 15 0 8 7 15 15 15 8 0 15 5
15 10 0 6 -7 10 -15 10 -8 0 -15 7 -15 15 0 8 -9 15 -21 15 -16 0 -19 -4 -14
-20z"/>
<path d="M173 4813 c-13 -2 -23 -9 -23 -15 0 -6 14 -8 37 -3 33 6 35 5 24 -9
-8 -9 -24 -16 -37 -16 -13 0 -24 -5 -24 -11 0 -8 14 -10 41 -6 48 6 45 5 54
40 7 25 5 27 -21 26 -16 -1 -39 -4 -51 -6z"/>
<path d="M310 4460 c0 -13 -8 -24 -20 -27 -23 -6 -27 -23 -5 -23 9 0 12 -6 9
-15 -9 -21 9 -19 29 5 10 12 29 20 47 20 16 0 30 5 30 10 0 6 -13 10 -29 10
-21 0 -28 5 -27 17 0 10 -7 19 -16 21 -13 2 -18 -3 -18 -18z"/>
<path d="M185 4440 c5 -17 2 -20 -25 -20 -21 0 -30 -4 -27 -12 2 -7 18 -12 36
-12 17 1 31 -2 31 -7 0 -5 5 -9 10 -9 6 0 10 7 10 15 0 8 7 15 15 15 8 0 15 5
15 10 0 6 -7 10 -15 10 -8 0 -15 7 -15 15 0 8 -9 15 -21 15 -16 0 -19 -4 -14
-20z"/>
<path d="M173 4363 c-13 -2 -23 -9 -23 -15 0 -6 14 -8 37 -3 33 6 35 5 24 -9
-8 -9 -24 -16 -37 -16 -17 0 -24 -6 -24 -19 0 -11 -3 -26 -6 -35 -4 -12 0 -16
15 -16 12 0 21 6 20 13 -3 28 2 36 30 42 26 5 40 26 41 58 0 7 -38 7 -77 0z"/>
<path d="M190 4274 c0 -4 6 -12 14 -18 21 -17 7 -102 -17 -98 -21 4 -21 -7 -1
-33 15 -20 15 -20 35 4 12 15 20 40 21 72 0 27 1 55 2 62 1 6 -11 13 -26 15
-16 2 -28 0 -28 -4z"/>
<path d="M310 4010 c0 -13 -8 -24 -20 -27 -23 -6 -27 -23 -5 -23 9 0 12 -6 9
-15 -9 -21 9 -19 29 5 10 12 29 20 47 20 16 0 30 5 30 10 0 6 -13 10 -29 10
-21 0 -28 5 -27 17 0 10 -7 19 -16 21 -13 2 -18 -3 -18 -18z"/>
<path d="M185 3990 c5 -17 2 -20 -25 -20 -21 0 -30 -4 -27 -12 2 -7 18 -12 36
-12 17 1 31 -2 31 -7 0 -5 5 -9 10 -9 6 0 10 7 10 15 0 8 7 15 15 15 8 0 15 5
15 10 0 6 -7 10 -15 10 -8 0 -15 7 -15 15 0 8 -9 15 -21 15 -16 0 -19 -4 -14
-20z"/>
<path d="M173 3913 c-13 -2 -23 -9 -23 -15 0 -6 14 -8 37 -3 33 6 35 5 24 -9
-8 -9 -24 -16 -37 -16 -17 0 -24 -6 -24 -19 0 -11 -3 -26 -6 -35 -4 -12 0 -16
15 -16 12 0 21 6 20 13 -3 28 2 36 30 42 26 5 40 26 41 58 0 7 -38 7 -77 0z"/>
<path d="M190 3824 c0 -4 6 -12 14 -18 21 -17 7 -102 -17 -98 -21 4 -21 -7 -1
-33 15 -20 15 -20 35 4 12 15 20 40 21 72 0 27 1 55 2 62 1 6 -11 13 -26 15
-16 2 -28 0 -28 -4z"/>
<path d="M142 3778 c3 -7 13 -15 22 -16 12 -3 17 1 14 10 -3 7 -13 15 -22 16
-12 3 -17 -1 -14 -10z"/>
<path d="M310 3560 c0 -13 -8 -24 -20 -27 -23 -6 -27 -23 -5 -23 9 0 12 -6 9
-15 -9 -21 9 -19 29 5 10 12 29 20 47 20 16 0 30 5 30 10 0 6 -13 10 -29 10
-21 0 -28 5 -27 17 0 10 -7 19 -16 21 -13 2 -18 -3 -18 -18z"/>
<path d="M185 3540 c5 -17 2 -20 -25 -20 -21 0 -30 -4 -27 -12 2 -7 18 -12 36
-12 17 1 31 -2 31 -7 0 -5 5 -9 10 -9 6 0 10 7 10 15 0 8 7 15 15 15 8 0 15 5
15 10 0 6 -7 10 -15 10 -8 0 -15 7 -15 15 0 8 -9 15 -21 15 -16 0 -19 -4 -14
-20z"/>
<path d="M173 3463 c-13 -2 -23 -9 -23 -15 0 -6 14 -8 37 -3 33 6 35 5 24 -9
-8 -9 -24 -16 -37 -16 -17 0 -24 -6 -24 -19 0 -11 -3 -26 -6 -35 -4 -12 0 -16
15 -16 12 0 21 6 20 13 -3 28 2 36 30 42 26 5 40 26 41 58 0 7 -38 7 -77 0z"/>
<path d="M190 3374 c0 -4 6 -12 14 -18 21 -17 7 -102 -17 -98 -21 4 -21 -7 -1
-33 15 -20 15 -20 35 4 12 15 20 40 21 72 0 27 1 55 2 62 1 6 -11 13 -26 15
-16 2 -28 0 -28 -4z"/>
<path d="M142 3328 c3 -7 13 -15 22 -16 12 -3 17 1 14 10 -3 7 -13 15 -22 16
-12 3 -17 -1 -14 -10z"/>
<path d="M148 3297 c-40 -11 -48 -24 -24 -33 16 -6 76 25 76 38 0 9 -2 9 -52
-5z"/>
<path d="M310 3110 c0 -13 -8 -24 -20 -27 -23 -6 -27 -23 -5 -23 9 0 12 -6 9
-15 -9 -21 9 -19 29 5 10 12 29 20 47 20 16 0 30 5 30 10 0 6 -13 10 -29 10
-21 0 -28 5 -27 17 0 10 -7 19 -16 21 -13 2 -18 -3 -18 -18z"/>
<path d="M185 3090 c5 -17 2 -20 -25 -20 -21 0 -30 -4 -27 -12 2 -7 18 -12 36
-12 17 1 31 -2 31 -7 0 -5 5 -9 10 -9 6 0 10 7 10 15 0 8 7 15 15 15 8 0 15 5
15 10 0 6 -7 10 -15 10 -8 0 -15 7 -15 15 0 8 -9 15 -21 15 -16 0 -19 -4 -14
-20z"/>
<path d="M308 3027 c-49 -13 -50 -31 -2 -22 33 6 35 5 29 -14 -9 -31 19 -27
35 5 12 22 12 27 0 34 -8 6 -17 9 -20 9 -3 -1 -22 -6 -42 -12z"/>
<path d="M173 3013 c-13 -2 -23 -9 -23 -15 0 -6 14 -8 37 -3 33 6 35 5 24 -9
-8 -9 -24 -16 -37 -16 -17 0 -24 -6 -24 -19 0 -11 -3 -26 -6 -35 -4 -12 0 -16
15 -16 12 0 21 6 20 13 -3 28 2 36 30 42 26 5 40 26 41 58 0 7 -38 7 -77 0z"/>
<path d="M190 2924 c0 -4 6 -12 14 -18 21 -17 7 -102 -17 -98 -21 4 -21 -7 -1
-33 15 -20 15 -20 35 4 12 15 20 40 21 72 0 27 1 55 2 62 1 6 -11 13 -26 15
-16 2 -28 0 -28 -4z"/>
<path d="M142 2878 c3 -7 13 -15 22 -16 12 -3 17 1 14 10 -3 7 -13 15 -22 16
-12 3 -17 -1 -14 -10z"/>
<path d="M148 2847 c-40 -11 -48 -24 -24 -33 16 -6 76 25 76 38 0 9 -2 9 -52
-5z"/>
<path d="M310 2660 c0 -13 -8 -24 -20 -27 -23 -6 -27 -23 -5 -23 9 0 12 -6 9
-15 -9 -21 9 -19 29 5 10 12 29 20 47 20 16 0 30 5 30 10 0 6 -13 10 -29 10
-21 0 -28 5 -27 17 0 10 -7 19 -16 21 -13 2 -18 -3 -18 -18z"/>
<path d="M185 2640 c5 -17 2 -20 -25 -20 -21 0 -30 -4 -27 -12 2 -7 18 -12 36
-12 17 1 31 -2 31 -7 0 -5 5 -9 10 -9 6 0 10 7 10 15 0 8 7 15 15 15 8 0 15 5
15 10 0 6 -7 10 -15 10 -8 0 -15 7 -15 15 0 8 -9 15 -21 15 -16 0 -19 -4 -14
-20z"/>
<path d="M308 2577 c-49 -14 -50 -31 -2 -22 46 8 43 -15 -4 -30 -41 -12 -42
-29 -1 -21 17 3 37 6 43 6 6 0 17 14 25 31 12 27 12 33 0 40 -8 5 -16 8 -19 8
-3 -1 -22 -6 -42 -12z"/>
<path d="M173 2563 c-13 -2 -23 -9 -23 -15 0 -6 14 -8 37 -3 33 6 35 5 24 -9
-8 -9 -24 -16 -37 -16 -17 0 -24 -6 -24 -19 0 -11 -3 -26 -6 -35 -4 -12 0 -16
15 -16 12 0 21 6 20 13 -3 28 2 36 30 42 26 5 40 26 41 58 0 7 -38 7 -77 0z"/>
<path d="M190 2474 c0 -4 6 -12 14 -18 21 -17 7 -102 -17 -98 -21 4 -21 -7 -1
-33 15 -20 15 -20 35 4 12 15 20 40 21 72 0 27 1 55 2 62 1 6 -11 13 -26 15
-16 2 -28 0 -28 -4z"/>
<path d="M142 2428 c3 -7 13 -15 22 -16 12 -3 17 1 14 10 -3 7 -13 15 -22 16
-12 3 -17 -1 -14 -10z"/>
<path d="M148 2397 c-40 -11 -48 -24 -24 -33 16 -6 76 25 76 38 0 9 -2 9 -52
-5z"/>
<path d="M310 2210 c0 -13 -8 -24 -20 -27 -23 -6 -27 -23 -5 -23 9 0 12 -6 9
-15 -9 -21 9 -19 29 5 10 12 29 20 47 20 16 0 30 5 30 10 0 6 -13 10 -29 10
-21 0 -28 5 -27 17 0 10 -7 19 -16 21 -13 2 -18 -3 -18 -18z"/>
<path d="M185 2190 c5 -17 2 -20 -25 -20 -21 0 -30 -4 -27 -12 2 -7 18 -12 36
-12 17 1 31 -2 31 -7 0 -5 5 -9 10 -9 6 0 10 7 10 15 0 8 7 15 15 15 8 0 15 5
15 10 0 6 -7 10 -15 10 -8 0 -15 7 -15 15 0 8 -9 15 -21 15 -16 0 -19 -4 -14
-20z"/>
<path d="M308 2127 c-49 -14 -50 -31 -2 -22 45 8 43 -15 -2 -29 -25 -8 -30
-14 -31 -43 l-1 -34 45 7 46 7 -8 -49 c-8 -58 -11 -64 -31 -64 -19 0 -14 -20
9 -34 12 -7 20 -7 28 1 14 14 32 154 20 166 -5 5 -24 4 -46 -2 -31 -8 -36 -8
-31 5 3 9 6 18 6 20 0 2 10 4 23 4 29 0 58 57 36 71 -8 5 -16 8 -19 8 -3 -1
-22 -6 -42 -12z"/>
<path d="M173 2113 c-13 -2 -23 -9 -23 -15 0 -6 14 -8 37 -3 33 6 35 5 24 -9
-8 -9 -24 -16 -37 -16 -17 0 -24 -6 -24 -19 0 -11 -3 -26 -6 -35 -4 -12 0 -16
15 -16 12 0 21 6 20 13 -3 28 2 36 30 42 26 5 40 26 41 58 0 7 -38 7 -77 0z"/>
<path d="M190 2024 c0 -4 6 -12 14 -18 21 -17 7 -102 -17 -98 -21 4 -21 -7 -1
-33 15 -20 15 -20 35 4 12 15 20 40 21 72 0 27 1 55 2 62 1 6 -11 13 -26 15
-16 2 -28 0 -28 -4z"/>
<path d="M142 1978 c3 -7 13 -15 22 -16 12 -3 17 1 14 10 -3 7 -13 15 -22 16
-12 3 -17 -1 -14 -10z"/>
<path d="M148 1947 c-40 -11 -48 -24 -24 -33 16 -6 76 25 76 38 0 9 -2 9 -52
-5z"/>
<path d="M310 1760 c0 -13 -8 -24 -20 -27 -23 -6 -27 -23 -5 -23 9 0 12 -6 9
-15 -9 -21 9 -19 29 5 10 12 29 20 47 20 16 0 30 5 30 10 0 6 -13 10 -29 10
-21 0 -28 5 -27 17 0 10 -7 19 -16 21 -13 2 -18 -3 -18 -18z"/>
<path d="M185 1740 c5 -17 2 -20 -25 -20 -21 0 -30 -4 -27 -12 2 -7 18 -12 36
-12 17 1 31 -2 31 -7 0 -5 5 -9 10 -9 6 0 10 7 10 15 0 8 7 15 15 15 8 0 15 5
15 10 0 6 -7 10 -15 10 -8 0 -15 7 -15 15 0 8 -9 15 -21 15 -16 0 -19 -4 -14
-20z"/>
<path d="M308 1677 c-49 -14 -50 -31 -2 -22 45 8 43 -15 -2 -29 -25 -8 -30
-14 -31 -43 l-1 -34 45 7 46 7 -8 -49 c-8 -58 -11 -64 -31 -64 -19 0 -14 -20
9 -34 12 -7 20 -7 28 1 14 14 32 154 20 166 -5 5 -24 4 -46 -2 -31 -8 -36 -8
-31 5 3 9 6 18 6 20 0 2 10 4 23 4 29 0 58 57 36 71 -8 5 -16 8 -19 8 -3 -1
-22 -6 -42 -12z"/>
<path d="M173 1663 c-13 -2 -23 -9 -23 -15 0 -6 14 -8 37 -3 33 6 35 5 24 -9
-8 -9 -24 -16 -37 -16 -17 0 -24 -6 -24 -19 0 -11 -3 -26 -6 -35 -4 -12 0 -16
15 -16 12 0 21 6 20 13 -3 28 2 36 30 42 26 5 40 26 41 58 0 7 -38 7 -77 0z"/>
<path d="M190 1574 c0 -4 6 -12 14 -18 21 -17 7 -102 -17 -98 -21 4 -21 -7 -1
-33 15 -20 15 -20 35 4 12 15 20 40 21 72 0 27 1 55 2 62 1 6 -11 13 -26 15
-16 2 -28 0 -28 -4z"/>
<path d="M142 1528 c3 -7 13 -15 22 -16 12 -3 17 1 14 10 -3 7 -13 15 -22 16
-12 3 -17 -1 -14 -10z"/>
<path d="M282 1528 c6 -18 28 -21 28 -4 0 9 -7 16 -16 16 -9 0 -14 -5 -12 -12z"/>
<path d="M148 1497 c-40 -11 -48 -24 -24 -33 16 -6 76 25 76 38 0 9 -2 9 -52
-5z"/>
<path d="M310 1310 c0 -13 -8 -24 -20 -27 -23 -6 -27 -23 -5 -23 9 0 12 -6 9
-15 -9 -21 9 -19 29 5 10 12 29 20 47 20 16 0 30 5 30 10 0 6 -13 10 -29 10
-21 0 -28 5 -27 17 0 10 -7 19 -16 21 -13 2 -18 -3 -18 -18z"/>
<path d="M185 1290 c5 -17 2 -20 -25 -20 -21 0 -30 -4 -27 -12 2 -7 18 -12 36
-12 17 1 31 -2 31 -7 0 -5 5 -9 10 -9 6 0 10 7 10 15 0 8 7 15 15 15 8 0 15 5
15 10 0 6 -7 10 -15 10 -8 0 -15 7 -15 15 0 8 -9 15 -21 15 -16 0 -19 -4 -14
-20z"/>
<path d="M308 1227 c-49 -14 -50 -31 -2 -22 45 8 43 -15 -2 -29 -25 -8 -30
-14 -31 -43 l-1 -34 45 7 46 7 -8 -49 c-8 -58 -11 -64 -31 -64 -19 0 -14 -20
9 -34 12 -7 20 -7 28 1 14 14 32 154 20 166 -5 5 -24 4 -46 -2 -31 -8 -36 -8
-31 5 3 9 6 18 6 20 0 2 10 4 23 4 29 0 58 57 36 71 -8 5 -16 8 -19 8 -3 -1
-22 -6 -42 -12z"/>
<path d="M173 1213 c-13 -2 -23 -9 -23 -15 0 -6 14 -8 37 -3 33 6 35 5 24 -9
-8 -9 -24 -16 -37 -16 -17 0 -24 -6 -24 -19 0 -11 -3 -26 -6 -35 -4 -12 0 -16
15 -16 12 0 21 6 20 13 -3 28 2 36 30 42 26 5 40 26 41 58 0 7 -38 7 -77 0z"/>
<path d="M190 1124 c0 -4 6 -12 14 -18 21 -17 7 -102 -17 -98 -21 4 -21 -7 -1
-33 15 -20 15 -20 35 4 12 15 20 40 21 72 0 27 1 55 2 62 1 6 -11 13 -26 15
-16 2 -28 0 -28 -4z"/>
<path d="M142 1078 c3 -7 13 -15 22 -16 12 -3 17 1 14 10 -3 7 -13 15 -22 16
-12 3 -17 -1 -14 -10z"/>
<path d="M282 1078 c6 -18 28 -21 28 -4 0 9 -7 16 -16 16 -9 0 -14 -5 -12 -12z"/>
<path d="M148 1047 c-40 -11 -48 -24 -24 -33 16 -6 76 25 76 38 0 9 -2 9 -52
-5z"/>
<path d="M283 1048 c-33 -11 -46 -38 -18 -38 19 0 65 29 65 41 0 11 -5 10 -47
-3z"/>
</g>
</svg>
