<?xml version="1.0" standalone="no"?>
<!DOCTYPE svg PUBLIC "-//W3C//DTD SVG 20010904//EN"
 "http://www.w3.org/TR/2001/REC-SVG-20010904/DTD/svg10.dtd">
<svg version="1.0" xmlns="http://www.w3.org/2000/svg"
 width="50.000000pt" height="725.000000pt" viewBox="0 0 50.000000 725.000000"
 preserveAspectRatio="xMidYMid meet">
<metadata>
Created by potrace 1.16, written by Peter Selinger 2001-2019
</metadata>
<g transform="translate(0.000000,725.000000) scale(0.100000,-0.100000)"
fill="#000000" stroke="none">
<path d="M210 7151 c0 -4 5 -22 11 -40 12 -35 35 -43 25 -8 -3 12 -6 30 -6 40
0 9 -7 17 -15 17 -8 0 -15 -4 -15 -9z"/>
<path d="M210 6690 c0 -15 -7 -20 -26 -20 -16 0 -24 -5 -21 -12 2 -8 17 -12
36 -10 17 1 31 -2 31 -8 0 -5 5 -10 10 -10 6 0 10 7 10 15 0 8 5 15 10 15 6 0
10 5 10 10 0 6 -7 10 -15 10 -8 0 -15 7 -15 15 0 8 -7 15 -15 15 -8 0 -15 -9
-15 -20z"/>
<path d="M210 6240 c0 -15 -7 -20 -26 -20 -16 0 -24 -5 -21 -12 2 -8 17 -12
36 -10 17 1 31 -2 31 -8 0 -5 5 -10 10 -10 6 0 10 7 10 15 0 8 5 15 10 15 6 0
10 5 10 10 0 6 -7 10 -15 10 -8 0 -15 7 -15 15 0 8 -7 15 -15 15 -8 0 -15 -9
-15 -20z"/>
<path d="M313 6233 c-40 -8 -26 -26 15 -19 20 3 45 6 55 6 9 0 17 5 17 10 0
10 -44 11 -87 3z"/>
<path d="M326 5805 c-4 -14 -13 -25 -21 -25 -8 0 -15 -4 -15 -10 0 -5 7 -10
15 -10 9 0 12 -6 9 -15 -9 -22 9 -18 24 5 7 11 23 20 37 20 14 0 25 5 25 10 0
6 -9 10 -20 10 -13 0 -20 7 -20 20 0 29 -27 25 -34 -5z"/>
<path d="M210 5790 c0 -15 -7 -20 -26 -20 -16 0 -24 -5 -21 -12 2 -8 17 -12
36 -10 17 1 31 -2 31 -8 0 -5 5 -10 10 -10 6 0 10 7 10 15 0 8 5 15 10 15 6 0
10 5 10 10 0 6 -7 10 -15 10 -8 0 -15 7 -15 15 0 8 -7 15 -15 15 -8 0 -15 -9
-15 -20z"/>
<path d="M326 5355 c-4 -14 -13 -25 -21 -25 -8 0 -15 -4 -15 -10 0 -5 7 -10
15 -10 9 0 12 -6 9 -15 -9 -22 9 -18 24 5 7 11 23 20 37 20 14 0 25 5 25 10 0
6 -9 10 -20 10 -13 0 -20 7 -20 20 0 29 -27 25 -34 -5z"/>
<path d="M210 5340 c0 -15 -7 -20 -26 -20 -16 0 -24 -5 -21 -12 2 -8 17 -12
36 -10 17 1 31 -2 31 -8 0 -5 5 -10 10 -10 6 0 10 7 10 15 0 8 5 15 10 15 6 0
10 5 10 10 0 6 -7 10 -15 10 -8 0 -15 7 -15 15 0 8 -7 15 -15 15 -8 0 -15 -9
-15 -20z"/>
<path d="M272 5284 c1 -9 9 -19 16 -22 9 -3 13 2 10 14 -1 9 -9 19 -16 22 -9
3 -13 -2 -10 -14z"/>
<path d="M326 4905 c-4 -14 -13 -25 -21 -25 -8 0 -15 -4 -15 -10 0 -5 6 -10
13 -10 7 0 13 -9 13 -20 0 -24 -11 -26 -20 -5 -7 19 -26 20 -26 1 0 -17 -22
-26 -61 -26 -16 0 -29 -5 -29 -11 0 -11 48 -9 168 7 48 7 57 24 12 24 -16 0
-30 4 -30 8 0 15 24 32 47 32 13 0 23 5 23 10 0 6 -9 10 -20 10 -13 0 -20 7
-20 20 0 29 -27 25 -34 -5z"/>
<path d="M210 4890 c0 -15 -7 -20 -26 -20 -16 0 -24 -5 -21 -12 2 -8 17 -12
36 -10 17 1 31 -2 31 -8 0 -5 5 -10 10 -10 6 0 10 7 10 15 0 8 5 15 10 15 6 0
10 5 10 10 0 6 -7 10 -15 10 -8 0 -15 7 -15 15 0 8 -7 15 -15 15 -8 0 -15 -9
-15 -20z"/>
<path d="M326 4455 c-4 -14 -13 -25 -21 -25 -8 0 -15 -4 -15 -10 0 -5 6 -10
13 -10 7 0 13 -9 13 -20 0 -24 -11 -26 -20 -5 -7 19 -26 20 -26 1 0 -17 -22
-26 -61 -26 -27 0 -29 -2 -29 -40 0 -45 -30 -133 -56 -161 -24 -26 -9 -37 17
-13 28 25 56 87 64 146 8 52 -1 47 133 64 56 6 72 24 22 24 -16 0 -30 4 -30 8
0 15 24 32 47 32 13 0 23 5 23 10 0 6 -9 10 -20 10 -13 0 -20 7 -20 20 0 29
-27 25 -34 -5z"/>
<path d="M210 4440 c0 -15 -7 -20 -26 -20 -16 0 -24 -5 -21 -12 2 -8 17 -12
36 -10 17 1 31 -2 31 -8 0 -5 5 -10 10 -10 6 0 10 7 10 15 0 8 5 15 10 15 6 0
10 5 10 10 0 6 -7 10 -15 10 -8 0 -15 7 -15 15 0 8 -7 15 -15 15 -8 0 -15 -9
-15 -20z"/>
<path d="M326 4005 c-4 -14 -13 -25 -21 -25 -8 0 -15 -4 -15 -10 0 -5 6 -10
13 -10 7 0 13 -9 13 -20 0 -24 -11 -26 -20 -5 -7 19 -26 20 -26 1 0 -17 -22
-26 -61 -26 -27 0 -29 -2 -29 -40 0 -45 -30 -133 -56 -161 -24 -26 -9 -37 17
-13 28 25 56 87 64 146 8 52 -1 47 133 64 56 6 72 24 22 24 -16 0 -30 4 -30 8
0 15 24 32 47 32 13 0 23 5 23 10 0 6 -9 10 -20 10 -13 0 -20 7 -20 20 0 29
-27 25 -34 -5z"/>
<path d="M210 3990 c0 -15 -7 -20 -26 -20 -16 0 -24 -5 -21 -12 2 -8 17 -12
36 -10 17 1 31 -2 31 -8 0 -5 5 -10 10 -10 6 0 10 7 10 15 0 8 5 15 10 15 6 0
10 5 10 10 0 6 -7 10 -15 10 -8 0 -15 7 -15 15 0 8 -7 15 -15 15 -8 0 -15 -9
-15 -20z"/>
<path d="M310 3860 c0 -5 20 -10 45 -10 25 0 45 5 45 10 0 6 -20 10 -45 10
-25 0 -45 -4 -45 -10z"/>
<path d="M230 3850 c0 -5 16 -10 35 -10 19 0 35 5 35 10 0 6 -16 10 -35 10
-19 0 -35 -4 -35 -10z"/>
<path d="M326 3555 c-4 -14 -13 -25 -21 -25 -8 0 -15 -4 -15 -10 0 -5 6 -10
13 -10 7 0 13 -9 13 -20 0 -24 -11 -26 -20 -5 -7 19 -26 20 -26 1 0 -17 -22
-26 -61 -26 -27 0 -29 -2 -29 -40 0 -45 -30 -133 -56 -161 -24 -26 -9 -37 17
-13 28 25 56 87 64 146 8 52 -1 47 133 64 56 6 72 24 22 24 -16 0 -30 4 -30 8
0 15 24 32 47 32 13 0 23 5 23 10 0 6 -9 10 -20 10 -13 0 -20 7 -20 20 0 29
-27 25 -34 -5z"/>
<path d="M210 3540 c0 -15 -7 -20 -26 -20 -16 0 -24 -5 -21 -12 2 -8 17 -12
36 -10 17 1 31 -2 31 -8 0 -5 5 -10 10 -10 6 0 10 7 10 15 0 8 5 15 10 15 6 0
10 5 10 10 0 6 -7 10 -15 10 -8 0 -15 7 -15 15 0 8 -7 15 -15 15 -8 0 -15 -9
-15 -20z"/>
<path d="M250 3426 c0 -8 -6 -17 -12 -20 -9 -3 -8 -8 5 -16 9 -6 17 -18 17
-25 0 -8 5 -15 10 -15 6 0 10 9 10 19 0 11 5 21 12 23 8 3 4 12 -10 26 -26 26
-32 27 -32 8z"/>
<path d="M310 3410 c0 -5 20 -10 45 -10 25 0 45 5 45 10 0 6 -20 10 -45 10
-25 0 -45 -4 -45 -10z"/>
<path d="M326 3105 c-4 -14 -13 -25 -21 -25 -8 0 -15 -4 -15 -10 0 -5 6 -10
13 -10 7 0 13 -9 13 -20 0 -24 -11 -26 -20 -5 -7 19 -26 20 -26 1 0 -17 -22
-26 -61 -26 -27 0 -29 -2 -29 -40 0 -45 -30 -133 -56 -161 -24 -26 -9 -37 17
-13 28 25 56 87 64 145 6 42 10 48 37 53 66 13 76 9 75 -29 -1 -41 11 -57 24
-32 6 9 21 17 34 17 14 0 25 5 25 10 0 6 -11 10 -24 10 -15 0 -26 7 -29 20 -4
16 0 20 19 20 13 0 24 5 24 10 0 6 -13 10 -30 10 -16 0 -30 4 -30 8 0 15 24
32 47 32 13 0 23 5 23 10 0 6 -9 10 -20 10 -13 0 -20 7 -20 20 0 29 -27 25
-34 -5z"/>
<path d="M210 3090 c0 -15 -7 -20 -26 -20 -16 0 -24 -5 -21 -12 2 -8 17 -12
36 -10 17 1 31 -2 31 -8 0 -5 5 -10 10 -10 6 0 10 7 10 15 0 8 5 15 10 15 6 0
10 5 10 10 0 6 -7 10 -15 10 -8 0 -15 7 -15 15 0 8 -7 15 -15 15 -8 0 -15 -9
-15 -20z"/>
<path d="M250 2976 c0 -8 -6 -17 -12 -20 -9 -3 -8 -8 5 -16 9 -6 17 -18 17
-25 0 -8 5 -15 10 -15 6 0 10 9 10 19 0 11 5 21 12 23 8 3 4 12 -10 26 -26 26
-32 27 -32 8z"/>
<path d="M326 2655 c-4 -14 -13 -25 -21 -25 -8 0 -15 -4 -15 -10 0 -5 6 -10
13 -10 7 0 13 -9 13 -20 0 -24 -11 -26 -20 -5 -7 19 -26 20 -26 1 0 -17 -22
-26 -61 -26 -27 0 -29 -2 -29 -40 0 -45 -30 -133 -56 -161 -24 -26 -9 -37 17
-13 28 25 56 87 64 145 6 42 10 48 37 53 66 13 76 9 75 -29 -1 -19 -5 -35 -9
-35 -4 0 -8 -4 -8 -10 0 -19 38 -10 43 10 3 14 14 20 31 20 14 0 26 5 26 10 0
6 -11 10 -24 10 -15 0 -26 7 -29 20 -4 16 0 20 19 20 13 0 24 5 24 10 0 6 -13
10 -30 10 -16 0 -30 4 -30 8 0 15 24 32 47 32 13 0 23 5 23 10 0 6 -9 10 -20
10 -13 0 -20 7 -20 20 0 29 -27 25 -34 -5z"/>
<path d="M210 2640 c0 -15 -7 -20 -26 -20 -16 0 -24 -5 -21 -12 2 -8 17 -12
36 -10 17 1 31 -2 31 -8 0 -5 5 -10 10 -10 6 0 10 7 10 15 0 8 5 15 10 15 6 0
10 5 10 10 0 6 -7 10 -15 10 -8 0 -15 7 -15 15 0 8 -7 15 -15 15 -8 0 -15 -9
-15 -20z"/>
<path d="M250 2526 c0 -8 -6 -17 -12 -20 -9 -3 -8 -8 5 -16 9 -6 17 -18 17
-25 0 -8 7 -15 16 -15 11 0 14 5 10 17 -4 9 -1 20 5 24 8 4 5 13 -10 28 -25
25 -31 26 -31 7z"/>
<path d="M326 2205 c-4 -14 -13 -25 -21 -25 -8 0 -15 -4 -15 -10 0 -5 6 -10
13 -10 7 0 13 -9 13 -20 0 -24 -11 -26 -20 -5 -7 19 -26 20 -26 1 0 -17 -22
-26 -61 -26 -27 0 -29 -2 -29 -40 0 -45 -30 -133 -56 -161 -24 -26 -9 -37 17
-13 28 25 56 87 64 145 6 42 10 48 37 53 66 13 76 9 75 -29 -1 -19 -5 -35 -9
-35 -4 0 -8 -4 -8 -10 0 -19 38 -10 43 10 3 14 14 20 31 20 14 0 26 5 26 10 0
6 -11 10 -24 10 -15 0 -26 7 -29 20 -4 16 0 20 19 20 13 0 24 5 24 10 0 6 -13
10 -30 10 -16 0 -30 4 -30 8 0 15 24 32 47 32 13 0 23 5 23 10 0 6 -9 10 -20
10 -13 0 -20 7 -20 20 0 29 -27 25 -34 -5z"/>
<path d="M210 2190 c0 -15 -7 -20 -26 -20 -16 0 -24 -5 -21 -12 2 -8 17 -12
36 -10 17 1 31 -2 31 -8 0 -5 5 -10 10 -10 6 0 10 7 10 15 0 8 5 15 10 15 6 0
10 5 10 10 0 6 -7 10 -15 10 -8 0 -15 7 -15 15 0 8 -7 15 -15 15 -8 0 -15 -9
-15 -20z"/>
<path d="M250 2076 c0 -8 -6 -17 -12 -20 -9 -3 -8 -8 5 -16 9 -6 17 -18 17
-25 0 -8 7 -15 16 -15 11 0 14 5 10 17 -4 9 -1 20 5 24 8 4 5 13 -10 28 -25
25 -31 26 -31 7z"/>
<path d="M220 1935 c0 -25 5 -45 10 -45 6 0 10 20 10 45 0 25 -4 45 -10 45 -5
0 -10 -20 -10 -45z"/>
<path d="M326 1755 c-4 -14 -13 -25 -21 -25 -8 0 -15 -4 -15 -10 0 -5 6 -10
13 -10 7 0 13 -9 13 -20 0 -24 -11 -26 -20 -5 -7 19 -26 20 -26 1 0 -17 -22
-26 -61 -26 -27 0 -29 -2 -29 -40 0 -45 -30 -133 -56 -161 -24 -26 -9 -37 17
-13 28 25 56 87 64 145 6 42 10 48 37 53 66 13 76 9 75 -29 -1 -19 -5 -35 -9
-35 -4 0 -8 -4 -8 -10 0 -19 38 -10 43 10 3 14 14 20 31 20 14 0 26 5 26 10 0
6 -11 10 -24 10 -15 0 -26 7 -29 20 -4 16 0 20 19 20 13 0 24 5 24 10 0 6 -13
10 -30 10 -16 0 -30 4 -30 8 0 15 24 32 47 32 13 0 23 5 23 10 0 6 -9 10 -20
10 -13 0 -20 7 -20 20 0 29 -27 25 -34 -5z"/>
<path d="M210 1740 c0 -15 -7 -20 -26 -20 -16 0 -24 -5 -21 -12 2 -8 17 -12
36 -10 17 1 31 -2 31 -8 0 -5 5 -10 10 -10 6 0 10 7 10 15 0 8 5 15 10 15 6 0
10 5 10 10 0 6 -7 10 -15 10 -8 0 -15 7 -15 15 0 8 -7 15 -15 15 -8 0 -15 -9
-15 -20z"/>
<path d="M250 1626 c0 -8 -6 -17 -12 -20 -9 -3 -8 -8 5 -16 9 -6 17 -18 17
-25 0 -8 7 -15 16 -15 11 0 14 5 10 17 -4 9 -1 20 5 24 8 4 5 13 -10 28 -25
25 -31 26 -31 7z"/>
<path d="M328 1543 c-51 -6 -49 -23 2 -23 33 0 40 -3 40 -20 0 -10 -8 -23 -17
-29 -17 -9 -17 -11 -1 -28 24 -24 36 -9 40 52 3 54 2 55 -64 48z"/>
<path d="M220 1485 c0 -25 5 -45 10 -45 6 0 10 16 10 35 0 28 4 35 20 35 11 0
20 5 20 10 0 6 -13 10 -30 10 -29 0 -30 -2 -30 -45z"/>
<path d="M326 1305 c-4 -14 -13 -25 -21 -25 -8 0 -15 -4 -15 -10 0 -5 6 -10
13 -10 7 0 13 -9 13 -20 0 -24 -11 -26 -20 -5 -7 19 -26 20 -26 1 0 -17 -22
-26 -61 -26 -27 0 -29 -2 -29 -40 0 -45 -30 -133 -56 -161 -24 -26 -9 -37 17
-13 28 25 56 87 64 145 6 42 10 48 37 53 66 13 76 9 75 -29 -1 -20 -7 -37 -15
-40 -20 -7 -30 4 -13 14 11 7 9 13 -8 30 -25 25 -31 26 -31 7 0 -8 -6 -17 -12
-20 -9 -3 -8 -8 5 -16 9 -6 17 -18 17 -25 0 -8 7 -15 16 -15 8 0 12 -4 9 -10
-3 -5 -19 -10 -36 -10 -28 0 -29 -2 -29 -45 0 -25 5 -45 10 -45 6 0 10 15 10
34 0 28 4 34 25 38 24 5 25 3 25 -48 0 -30 5 -54 10 -54 6 0 10 18 10 39 0 55
8 71 36 71 29 0 33 -34 7 -49 -17 -9 -17 -11 -1 -28 24 -24 36 -9 40 52 l3 50
-37 -3 c-22 -2 -38 2 -38 8 0 5 4 10 9 10 5 0 11 9 14 20 3 14 14 20 31 20 14
0 26 5 26 10 0 6 -11 10 -24 10 -15 0 -26 7 -29 20 -4 16 0 20 19 20 13 0 24
5 24 10 0 6 -13 10 -30 10 -16 0 -30 4 -30 8 0 15 24 32 47 32 13 0 23 5 23
10 0 6 -9 10 -20 10 -13 0 -20 7 -20 20 0 29 -27 25 -34 -5z"/>
<path d="M210 1290 c0 -15 -7 -20 -26 -20 -16 0 -24 -5 -21 -12 2 -8 17 -12
36 -10 17 1 31 -2 31 -8 0 -5 5 -10 10 -10 6 0 10 7 10 15 0 8 5 15 10 15 6 0
10 5 10 10 0 6 -7 10 -15 10 -8 0 -15 7 -15 15 0 8 -7 15 -15 15 -8 0 -15 -9
-15 -20z"/>
</g>
</svg>
