<?xml version="1.0" standalone="no"?>
<!DOCTYPE svg PUBLIC "-//W3C//DTD SVG 20010904//EN"
 "http://www.w3.org/TR/2001/REC-SVG-20010904/DTD/svg10.dtd">
<svg version="1.0" xmlns="http://www.w3.org/2000/svg"
 width="50.000000pt" height="725.000000pt" viewBox="0 0 50.000000 725.000000"
 preserveAspectRatio="xMidYMid meet">
<metadata>
Created by potrace 1.16, written by Peter Selinger 2001-2019
</metadata>
<g transform="translate(0.000000,725.000000) scale(0.100000,-0.100000)"
fill="#000000" stroke="none">
<path d="M170 7161 c0 -4 5 -22 11 -40 19 -54 38 -32 23 27 -6 21 -34 32 -34
13z"/>
<path d="M172 6698 c2 -19 -2 -24 -25 -26 -43 -5 -26 -27 21 -28 47 0 57 12
39 50 -15 32 -39 35 -35 4z"/>
<path d="M172 6248 c2 -19 -2 -24 -25 -26 -43 -5 -26 -27 21 -28 47 0 57 12
39 50 -15 32 -39 35 -35 4z"/>
<path d="M278 6233 c-32 -8 -20 -26 13 -19 17 3 42 6 55 6 13 0 24 5 24 10 0
10 -59 12 -92 3z"/>
<path d="M290 5810 c0 -11 -7 -23 -15 -26 -8 -4 -15 -10 -15 -14 0 -13 33 -21
44 -10 5 5 23 10 38 10 15 0 28 5 28 10 0 6 -11 10 -25 10 -18 0 -25 5 -25 20
0 11 -7 20 -15 20 -8 0 -15 -9 -15 -20z"/>
<path d="M172 5798 c2 -19 -2 -24 -25 -26 -43 -5 -26 -27 21 -28 47 0 57 12
39 50 -15 32 -39 35 -35 4z"/>
<path d="M290 5360 c0 -11 -7 -23 -15 -26 -8 -4 -15 -10 -15 -14 0 -13 33 -21
44 -10 5 5 23 10 38 10 15 0 28 5 28 10 0 6 -11 10 -25 10 -18 0 -25 5 -25 20
0 11 -7 20 -15 20 -8 0 -15 -9 -15 -20z"/>
<path d="M172 5348 c2 -19 -2 -24 -25 -26 -39 -5 -28 -28 12 -24 41 3 41 -18
0 -53 -17 -14 -29 -28 -26 -31 7 -7 61 21 73 38 20 26 2 118 -23 118 -9 0 -13
-8 -11 -22z"/>
<path d="M290 4910 c0 -11 -7 -23 -15 -26 -8 -4 -15 -10 -15 -14 0 -13 33 -21
44 -10 5 5 23 10 38 10 15 0 28 5 28 10 0 6 -11 10 -25 10 -18 0 -25 5 -25 20
0 11 -7 20 -15 20 -8 0 -15 -9 -15 -20z"/>
<path d="M172 4898 c2 -19 -2 -24 -25 -26 -39 -5 -28 -28 12 -24 41 3 41 -18
0 -53 -17 -14 -29 -28 -26 -31 7 -7 61 21 73 38 20 26 2 118 -23 118 -9 0 -13
-8 -11 -22z"/>
<path d="M250 4845 c0 -6 77 -77 96 -88 15 -9 64 1 64 13 0 5 -13 11 -28 15
-15 3 -48 19 -72 35 -43 29 -60 36 -60 25z"/>
<path d="M290 4460 c0 -11 -7 -23 -15 -26 -8 -4 -15 -10 -15 -14 0 -13 33 -21
44 -10 5 5 23 10 38 10 15 0 28 5 28 10 0 6 -11 10 -25 10 -18 0 -25 5 -25 20
0 11 -7 20 -15 20 -8 0 -15 -9 -15 -20z"/>
<path d="M172 4448 c2 -19 -2 -24 -25 -26 -39 -5 -28 -28 12 -24 41 3 41 -18
0 -53 -17 -14 -29 -28 -26 -31 7 -7 61 21 73 38 20 26 2 118 -23 118 -9 0 -13
-8 -11 -22z"/>
<path d="M250 4395 c0 -6 77 -77 96 -88 15 -9 64 1 64 13 0 5 -13 11 -28 15
-15 3 -48 19 -72 35 -43 29 -60 36 -60 25z"/>
<path d="M203 4335 c-39 -41 -43 -60 -10 -51 12 4 37 9 55 13 40 7 43 27 2 21
-27 -4 -29 -3 -15 12 16 18 20 40 8 40 -5 0 -23 -16 -40 -35z"/>
<path d="M290 4010 c0 -11 -7 -23 -15 -26 -8 -4 -15 -10 -15 -14 0 -13 33 -21
44 -10 5 5 23 10 38 10 15 0 28 5 28 10 0 6 -11 10 -25 10 -18 0 -25 5 -25 20
0 11 -7 20 -15 20 -8 0 -15 -9 -15 -20z"/>
<path d="M172 3998 c2 -19 -2 -24 -25 -26 -39 -5 -28 -28 12 -24 41 3 41 -18
0 -53 -17 -14 -29 -28 -26 -31 7 -7 61 21 73 38 20 26 2 118 -23 118 -9 0 -13
-8 -11 -22z"/>
<path d="M250 3945 c0 -6 77 -77 96 -88 15 -9 64 1 64 13 0 5 -13 11 -28 15
-15 3 -48 19 -72 35 -43 29 -60 36 -60 25z"/>
<path d="M203 3885 c-41 -43 -43 -60 -5 -49 15 5 46 8 70 8 33 0 42 4 42 17 0
19 -30 35 -39 21 -3 -5 -17 -11 -29 -15 -22 -5 -23 -4 -8 12 17 18 21 41 9 41
-5 0 -23 -16 -40 -35z"/>
<path d="M290 3560 c0 -11 -7 -23 -15 -26 -8 -4 -15 -10 -15 -14 0 -13 33 -21
44 -10 5 5 23 10 38 10 15 0 28 5 28 10 0 6 -11 10 -25 10 -18 0 -25 5 -25 20
0 11 -7 20 -15 20 -8 0 -15 -9 -15 -20z"/>
<path d="M172 3548 c2 -19 -2 -24 -25 -26 -39 -5 -28 -28 12 -24 41 3 41 -18
0 -53 -17 -14 -29 -28 -26 -31 7 -7 61 21 73 38 20 26 2 118 -23 118 -9 0 -13
-8 -11 -22z"/>
<path d="M250 3495 c0 -6 77 -77 96 -88 15 -9 64 1 64 13 0 5 -13 11 -28 15
-15 3 -48 19 -72 35 -43 29 -60 36 -60 25z"/>
<path d="M202 3434 c-19 -20 -31 -41 -28 -50 4 -9 -1 -14 -14 -14 -11 0 -20
-4 -20 -10 0 -5 14 -10 30 -10 29 0 30 -2 30 -45 0 -31 -5 -47 -17 -54 -17 -9
-17 -11 -1 -28 26 -25 35 -9 42 80 6 70 5 77 -11 78 -13 0 -11 3 7 10 14 6 40
8 58 5 26 -4 32 -1 32 14 0 19 -30 36 -39 22 -3 -5 -17 -11 -29 -15 -22 -5
-23 -4 -8 12 17 18 21 41 9 41 -5 0 -23 -16 -41 -36z"/>
<path d="M290 3110 c0 -11 -7 -23 -15 -26 -8 -4 -15 -10 -15 -14 0 -13 33 -21
44 -10 5 5 23 10 38 10 15 0 28 5 28 10 0 6 -11 10 -25 10 -18 0 -25 5 -25 20
0 11 -7 20 -15 20 -8 0 -15 -9 -15 -20z"/>
<path d="M172 3098 c2 -19 -2 -24 -25 -26 -39 -5 -28 -28 12 -24 41 3 41 -18
0 -53 -17 -14 -29 -28 -26 -31 7 -7 61 21 73 38 20 26 2 118 -23 118 -9 0 -13
-8 -11 -22z"/>
<path d="M250 3045 c0 -6 77 -77 96 -88 15 -9 64 1 64 13 0 5 -13 11 -28 15
-15 3 -48 19 -72 35 -43 29 -60 36 -60 25z"/>
<path d="M202 2984 c-19 -20 -31 -41 -28 -50 4 -9 -1 -14 -14 -14 -11 0 -20
-4 -20 -10 0 -5 14 -10 30 -10 29 0 30 -2 30 -45 0 -31 -5 -47 -17 -54 -17 -9
-17 -11 -1 -28 26 -25 35 -9 42 80 6 70 5 77 -11 78 -13 0 -11 3 7 10 14 6 40
8 58 5 26 -4 32 -1 32 14 0 19 -30 36 -39 22 -3 -5 -17 -11 -29 -15 -22 -5
-23 -4 -8 12 17 18 21 41 9 41 -5 0 -23 -16 -41 -36z"/>
<path d="M132 2873 c5 -25 28 -28 28 -4 0 12 -6 21 -16 21 -9 0 -14 -7 -12
-17z"/>
<path d="M290 2660 c0 -11 -7 -23 -15 -26 -8 -4 -15 -10 -15 -14 0 -13 33 -21
44 -10 5 5 23 10 38 10 15 0 28 5 28 10 0 6 -11 10 -25 10 -18 0 -25 5 -25 20
0 11 -7 20 -15 20 -8 0 -15 -9 -15 -20z"/>
<path d="M172 2648 c2 -19 -2 -24 -25 -26 -39 -5 -28 -28 12 -24 41 3 41 -18
0 -53 -17 -14 -29 -28 -26 -31 7 -7 61 21 73 38 20 26 2 118 -23 118 -9 0 -13
-8 -11 -22z"/>
<path d="M250 2595 c0 -6 77 -77 96 -88 15 -9 64 1 64 13 0 5 -13 11 -28 15
-15 3 -48 19 -72 35 -43 29 -60 36 -60 25z"/>
<path d="M202 2534 c-19 -20 -31 -41 -28 -50 4 -9 -1 -14 -14 -14 -11 0 -20
-4 -20 -10 0 -5 14 -10 30 -10 29 0 30 -2 30 -45 0 -31 -5 -47 -17 -54 -17 -9
-17 -11 -1 -28 26 -25 35 -9 42 80 6 70 5 77 -11 78 -13 0 -11 3 7 10 14 6 40
8 58 5 26 -4 32 -1 32 14 0 19 -30 36 -39 22 -3 -5 -17 -11 -29 -15 -22 -5
-23 -4 -8 12 17 18 21 41 9 41 -5 0 -23 -16 -41 -36z"/>
<path d="M132 2423 c5 -25 28 -28 28 -4 0 12 -6 21 -16 21 -9 0 -14 -7 -12
-17z"/>
<path d="M133 2388 c-33 -11 -46 -38 -18 -38 19 0 65 29 65 41 0 11 -5 10 -47
-3z"/>
<path d="M290 2210 c0 -11 -7 -23 -15 -26 -8 -4 -15 -10 -15 -14 0 -13 33 -21
44 -10 5 5 23 10 38 10 15 0 28 5 28 10 0 6 -11 10 -25 10 -18 0 -25 5 -25 20
0 11 -7 20 -15 20 -8 0 -15 -9 -15 -20z"/>
<path d="M172 2198 c2 -19 -2 -24 -25 -26 -39 -5 -28 -28 12 -24 41 3 41 -18
0 -53 -17 -14 -29 -28 -26 -31 7 -7 61 21 73 38 20 26 2 118 -23 118 -9 0 -13
-8 -11 -22z"/>
<path d="M250 2145 c0 -6 77 -77 96 -88 15 -9 64 1 64 13 0 5 -13 11 -28 15
-15 3 -48 19 -72 35 -43 29 -60 36 -60 25z"/>
<path d="M202 2084 c-19 -20 -31 -41 -28 -50 4 -9 -1 -14 -14 -14 -11 0 -20
-4 -20 -10 0 -5 14 -10 30 -10 29 0 30 -2 30 -45 0 -31 -5 -47 -17 -54 -17 -9
-17 -11 -1 -28 26 -25 35 -9 42 79 6 68 5 77 -11 81 -11 2 -4 7 19 11 21 5 46
5 55 0 15 -6 13 -8 -9 -12 -40 -5 -34 -22 7 -22 l35 0 0 -55 c0 -44 -3 -55
-16 -55 -19 0 -14 -20 9 -34 25 -16 32 0 36 90 3 80 2 84 -18 84 -14 0 -21 6
-21 19 0 20 -30 38 -39 23 -3 -5 -17 -11 -29 -15 -22 -5 -23 -4 -8 12 17 18
21 41 9 41 -5 0 -23 -16 -41 -36z"/>
<path d="M132 1973 c5 -25 28 -28 28 -4 0 12 -6 21 -16 21 -9 0 -14 -7 -12
-17z"/>
<path d="M133 1938 c-33 -11 -46 -38 -18 -38 19 0 65 29 65 41 0 11 -5 10 -47
-3z"/>
<path d="M290 1760 c0 -11 -7 -23 -15 -26 -8 -4 -15 -10 -15 -14 0 -13 33 -21
44 -10 5 5 23 10 38 10 15 0 28 5 28 10 0 6 -11 10 -25 10 -18 0 -25 5 -25 20
0 11 -7 20 -15 20 -8 0 -15 -9 -15 -20z"/>
<path d="M172 1748 c2 -19 -2 -24 -25 -26 -39 -5 -28 -28 12 -24 41 3 41 -18
0 -53 -17 -14 -29 -28 -26 -31 7 -7 61 21 73 38 20 26 2 118 -23 118 -9 0 -13
-8 -11 -22z"/>
<path d="M250 1695 c0 -6 77 -77 96 -88 15 -9 64 1 64 13 0 5 -13 11 -28 15
-15 3 -48 19 -72 35 -43 29 -60 36 -60 25z"/>
<path d="M202 1634 c-19 -20 -31 -41 -28 -50 4 -9 -1 -14 -14 -14 -11 0 -20
-4 -20 -10 0 -5 14 -10 30 -10 29 0 30 -2 30 -45 0 -31 -5 -47 -17 -54 -17 -9
-17 -11 -1 -28 26 -25 35 -9 42 79 6 68 5 77 -11 81 -11 2 -4 7 19 11 21 5 46
5 55 0 15 -6 13 -8 -9 -12 -40 -5 -34 -22 7 -22 l35 0 0 -55 c0 -44 -3 -55
-16 -55 -19 0 -14 -20 9 -34 25 -16 32 0 36 90 3 80 2 84 -18 84 -14 0 -21 6
-21 19 0 20 -30 38 -39 23 -3 -5 -17 -11 -29 -15 -22 -5 -23 -4 -8 12 17 18
21 41 9 41 -5 0 -23 -16 -41 -36z"/>
<path d="M250 1535 c0 -16 27 -32 37 -21 7 7 -16 36 -28 36 -5 0 -9 -7 -9 -15z"/>
<path d="M132 1523 c5 -25 28 -28 28 -4 0 12 -6 21 -16 21 -9 0 -14 -7 -12
-17z"/>
<path d="M133 1488 c-33 -11 -46 -38 -18 -38 19 0 65 29 65 41 0 11 -5 10 -47
-3z"/>
<path d="M290 1310 c0 -11 -7 -23 -15 -26 -8 -4 -15 -10 -15 -14 0 -13 33 -21
44 -10 5 5 23 10 38 10 15 0 28 5 28 10 0 6 -11 10 -25 10 -18 0 -25 5 -25 20
0 11 -7 20 -15 20 -8 0 -15 -9 -15 -20z"/>
<path d="M172 1298 c2 -19 -2 -24 -25 -26 -39 -5 -28 -28 12 -24 41 3 41 -18
0 -53 -17 -14 -29 -28 -26 -31 7 -7 61 21 73 38 20 26 2 118 -23 118 -9 0 -13
-8 -11 -22z"/>
<path d="M250 1245 c0 -6 77 -77 96 -88 15 -9 64 1 64 13 0 5 -13 11 -28 15
-15 3 -48 19 -72 35 -43 29 -60 36 -60 25z"/>
<path d="M202 1184 c-19 -20 -31 -41 -28 -50 4 -9 -1 -14 -14 -14 -11 0 -20
-4 -20 -10 0 -5 14 -10 30 -10 29 0 30 -2 30 -45 0 -31 -5 -47 -17 -54 -17 -9
-17 -11 -1 -28 26 -25 35 -9 42 79 6 68 5 77 -11 81 -11 2 -4 7 19 11 21 5 46
5 55 0 15 -6 13 -8 -9 -12 -40 -5 -34 -22 7 -22 30 0 35 -3 35 -24 0 -20 -9
-28 -45 -42 -47 -17 -56 -30 -29 -41 8 -3 25 4 38 16 28 26 36 27 36 1 0 -12
-7 -20 -16 -20 -19 0 -14 -20 9 -34 25 -16 32 0 36 90 3 80 2 84 -18 84 -14 0
-21 6 -21 19 0 20 -30 38 -39 23 -3 -5 -17 -11 -29 -15 -22 -5 -23 -4 -8 12
17 18 21 41 9 41 -5 0 -23 -16 -41 -36z"/>
<path d="M250 1085 c0 -16 27 -32 37 -21 7 7 -16 36 -28 36 -5 0 -9 -7 -9 -15z"/>
<path d="M132 1073 c5 -25 28 -28 28 -4 0 12 -6 21 -16 21 -9 0 -14 -7 -12
-17z"/>
<path d="M133 1038 c-33 -11 -46 -38 -18 -38 19 0 65 29 65 41 0 11 -5 10 -47
-3z"/>
</g>
</svg>
