<?xml version="1.0" standalone="no"?>
<!DOCTYPE svg PUBLIC "-//W3C//DTD SVG 20010904//EN"
 "http://www.w3.org/TR/2001/REC-SVG-20010904/DTD/svg10.dtd">
<svg version="1.0" xmlns="http://www.w3.org/2000/svg"
 width="50.000000pt" height="725.000000pt" viewBox="0 0 50.000000 725.000000"
 preserveAspectRatio="xMidYMid meet">
<metadata>
Created by potrace 1.16, written by Peter Selinger 2001-2019
</metadata>
<g transform="translate(0.000000,725.000000) scale(0.100000,-0.100000)"
fill="#000000" stroke="none">
<path d="M164 7144 c3 -9 9 -27 12 -40 10 -38 24 -28 24 16 0 34 -3 40 -21 40
-15 0 -19 -4 -15 -16z"/>
<path d="M165 6690 c5 -15 0 -21 -19 -26 -14 -3 -26 -10 -26 -14 0 -16 20 -21
40 -10 13 7 20 7 20 0 0 -5 5 -10 10 -10 6 0 10 18 10 40 0 34 -3 40 -21 40
-16 0 -19 -4 -14 -20z"/>
<path d="M210 6670 c0 -5 5 -10 10 -10 6 0 10 5 10 10 0 6 -4 10 -10 10 -5 0
-10 -4 -10 -10z"/>
<path d="M165 6240 c5 -15 0 -21 -19 -26 -14 -3 -26 -10 -26 -14 0 -16 20 -21
40 -10 13 7 20 7 20 0 0 -5 5 -10 10 -10 6 0 10 18 10 40 0 34 -3 40 -21 40
-16 0 -19 -4 -14 -20z"/>
<path d="M297 6230 c-36 -7 -55 -16 -46 -23 2 -2 28 -1 57 1 36 3 52 8 52 18
0 15 -5 16 -63 4z"/>
<path d="M210 6220 c0 -5 5 -10 10 -10 6 0 10 5 10 10 0 6 -4 10 -10 10 -5 0
-10 -4 -10 -10z"/>
<path d="M290 5816 c0 -9 -9 -25 -20 -36 -19 -19 -20 -22 -4 -37 15 -15 17
-15 26 0 5 10 21 17 38 17 21 0 30 5 30 16 0 12 -6 15 -23 10 -19 -4 -23 -2
-23 16 1 11 -5 23 -11 25 -7 3 -13 -2 -13 -11z"/>
<path d="M165 5790 c5 -15 0 -21 -19 -26 -14 -3 -26 -10 -26 -14 0 -16 20 -21
40 -10 13 7 20 7 20 0 0 -5 5 -10 10 -10 6 0 10 18 10 40 0 34 -3 40 -21 40
-16 0 -19 -4 -14 -20z"/>
<path d="M210 5770 c0 -5 5 -10 10 -10 6 0 10 5 10 10 0 6 -4 10 -10 10 -5 0
-10 -4 -10 -10z"/>
<path d="M290 5366 c0 -9 -9 -25 -20 -36 -19 -19 -20 -22 -4 -37 15 -15 17
-15 26 0 5 10 21 17 38 17 21 0 30 5 30 16 0 12 -6 15 -23 10 -19 -4 -23 -2
-23 16 1 11 -5 23 -11 25 -7 3 -13 -2 -13 -11z"/>
<path d="M165 5340 c5 -15 0 -21 -19 -26 -14 -3 -26 -10 -26 -14 0 -15 19 -21
37 -12 23 13 48 -9 30 -27 -22 -22 2 -22 32 0 37 28 40 43 6 37 -23 -5 -25 -2
-25 28 0 28 -4 34 -21 34 -16 0 -19 -4 -14 -20z"/>
<path d="M210 5320 c0 -5 5 -10 10 -10 6 0 10 5 10 10 0 6 -4 10 -10 10 -5 0
-10 -4 -10 -10z"/>
<path d="M290 4916 c0 -9 -9 -25 -20 -36 -19 -19 -20 -22 -4 -37 15 -15 17
-15 26 0 5 10 21 17 38 17 21 0 30 5 30 16 0 12 -6 15 -23 10 -19 -4 -23 -2
-23 16 1 11 -5 23 -11 25 -7 3 -13 -2 -13 -11z"/>
<path d="M165 4890 c5 -15 0 -21 -19 -26 -14 -3 -26 -10 -26 -14 0 -15 19 -21
37 -12 23 13 48 -9 30 -27 -6 -6 -17 -11 -25 -11 -10 0 -12 -7 -8 -22 3 -13 6
-33 6 -45 0 -13 6 -23 14 -23 10 0 13 10 9 38 -4 34 -1 39 31 61 42 27 47 45
11 39 -23 -5 -25 -2 -25 28 0 28 -4 34 -21 34 -16 0 -19 -4 -14 -20z"/>
<path d="M210 4870 c0 -5 5 -10 10 -10 6 0 10 5 10 10 0 6 -4 10 -10 10 -5 0
-10 -4 -10 -10z"/>
<path d="M290 4466 c0 -9 -9 -25 -20 -36 -19 -19 -20 -22 -4 -37 15 -15 17
-15 26 0 5 10 21 17 38 17 21 0 30 5 30 16 0 12 -6 15 -23 10 -19 -4 -23 -2
-23 16 1 11 -5 23 -11 25 -7 3 -13 -2 -13 -11z"/>
<path d="M165 4440 c5 -15 0 -21 -19 -26 -14 -3 -26 -10 -26 -14 0 -15 19 -21
37 -12 23 13 48 -9 30 -27 -6 -6 -17 -11 -25 -11 -10 0 -12 -7 -8 -22 3 -13 6
-33 6 -45 0 -13 6 -23 14 -23 11 0 13 9 9 34 l-5 35 48 6 c72 10 74 8 60 -50
-11 -45 20 -28 39 21 23 62 14 71 -62 57 -53 -10 -56 -9 -35 4 29 20 28 36 -3
31 -23 -5 -25 -2 -25 28 0 28 -4 34 -21 34 -16 0 -19 -4 -14 -20z"/>
<path d="M210 4420 c0 -5 5 -10 10 -10 6 0 10 5 10 10 0 6 -4 10 -10 10 -5 0
-10 -4 -10 -10z"/>
<path d="M290 4016 c0 -9 -9 -25 -20 -36 -19 -19 -20 -22 -4 -37 15 -15 17
-15 26 0 5 10 21 17 38 17 21 0 30 5 30 16 0 12 -6 15 -23 10 -19 -4 -23 -2
-23 16 1 11 -5 23 -11 25 -7 3 -13 -2 -13 -11z"/>
<path d="M165 3990 c5 -15 0 -21 -19 -26 -14 -3 -26 -10 -26 -14 0 -15 19 -21
37 -12 23 13 48 -9 30 -27 -6 -6 -17 -11 -25 -11 -10 0 -12 -7 -8 -22 3 -13 6
-33 6 -45 0 -13 6 -23 14 -23 11 0 13 9 9 35 -4 27 -2 35 10 35 8 0 24 3 34 7
14 5 13 1 -6 -20 -14 -15 -22 -30 -19 -33 10 -9 47 15 64 41 18 28 38 24 29
-6 -3 -10 -8 -28 -11 -39 -11 -42 24 -19 41 26 23 62 14 71 -62 57 -53 -10
-56 -9 -35 4 29 20 28 36 -3 31 -23 -5 -25 -2 -25 28 0 28 -4 34 -21 34 -16 0
-19 -4 -14 -20z"/>
<path d="M210 3970 c0 -5 5 -10 10 -10 6 0 10 5 10 10 0 6 -4 10 -10 10 -5 0
-10 -4 -10 -10z"/>
<path d="M290 3566 c0 -9 -9 -25 -20 -36 -19 -19 -20 -22 -4 -37 15 -15 17
-15 26 0 5 10 21 17 38 17 21 0 30 5 30 16 0 12 -6 15 -23 10 -19 -4 -23 -2
-23 16 1 11 -5 23 -11 25 -7 3 -13 -2 -13 -11z"/>
<path d="M165 3540 c5 -15 0 -21 -19 -26 -14 -3 -26 -10 -26 -14 0 -15 19 -21
37 -12 23 13 48 -9 30 -27 -6 -6 -17 -11 -25 -11 -10 0 -12 -7 -8 -22 3 -13 6
-33 6 -45 0 -13 6 -23 14 -23 11 0 13 9 9 35 -4 23 -2 35 6 35 10 0 15 -12 12
-35 0 -6 15 -11 35 -11 28 0 34 3 31 17 -6 21 11 51 24 43 5 -3 7 -14 4 -25
-3 -10 -8 -28 -11 -39 -11 -42 24 -19 41 26 23 62 14 71 -62 57 -53 -10 -56
-9 -35 4 29 20 28 36 -3 31 -23 -5 -25 -2 -25 28 0 28 -4 34 -21 34 -16 0 -19
-4 -14 -20z"/>
<path d="M210 3520 c0 -5 5 -10 10 -10 6 0 10 5 10 10 0 6 -4 10 -10 10 -5 0
-10 -4 -10 -10z"/>
<path d="M290 3116 c0 -9 -9 -25 -20 -36 -19 -19 -20 -22 -4 -37 15 -15 17
-15 26 0 5 10 21 17 38 17 21 0 30 5 30 16 0 12 -6 15 -23 10 -19 -4 -23 -2
-23 16 1 11 -5 23 -11 25 -7 3 -13 -2 -13 -11z"/>
<path d="M165 3090 c5 -15 0 -21 -19 -26 -14 -3 -26 -10 -26 -14 0 -15 19 -21
37 -12 23 13 48 -9 30 -27 -6 -6 -17 -11 -24 -11 -10 0 -12 -11 -7 -42 4 -24
9 -45 13 -48 3 -3 36 -4 72 -2 l67 4 17 45 c23 61 13 70 -62 56 -53 -10 -56
-9 -35 4 29 20 28 36 -3 31 -23 -5 -25 -2 -25 28 0 28 -4 34 -21 34 -16 0 -19
-4 -14 -20z m128 -132 c-3 -16 -9 -28 -13 -28 -13 0 -18 36 -8 55 14 24 28 6
21 -27z m-91 10 c6 -17 -1 -38 -13 -38 -5 0 -9 11 -9 25 0 26 14 34 22 13z
m45 -34 c-3 -3 -12 -4 -19 -1 -8 3 -5 6 6 6 11 1 17 -2 13 -5z"/>
<path d="M210 3070 c0 -5 5 -10 10 -10 6 0 10 5 10 10 0 6 -4 10 -10 10 -5 0
-10 -4 -10 -10z"/>
<path d="M290 2666 c0 -9 -9 -25 -20 -36 -19 -19 -20 -22 -4 -37 15 -15 17
-15 26 0 5 10 21 17 38 17 21 0 30 5 30 16 0 12 -6 15 -23 10 -19 -4 -23 -2
-23 16 1 11 -5 23 -11 25 -7 3 -13 -2 -13 -11z"/>
<path d="M165 2640 c5 -15 0 -21 -19 -26 -14 -3 -26 -10 -26 -14 0 -15 19 -21
37 -12 23 13 48 -9 30 -27 -6 -6 -17 -11 -24 -11 -10 0 -12 -11 -7 -42 4 -24
9 -45 13 -48 3 -3 36 -4 72 -2 l67 4 17 45 c23 61 13 70 -62 56 -53 -10 -56
-9 -35 4 29 20 28 36 -3 31 -23 -5 -25 -2 -25 28 0 28 -4 34 -21 34 -16 0 -19
-4 -14 -20z m128 -132 c-3 -16 -9 -28 -13 -28 -13 0 -18 36 -8 55 14 24 28 6
21 -27z m-91 10 c6 -17 -1 -38 -13 -38 -5 0 -9 11 -9 25 0 26 14 34 22 13z
m45 -34 c-3 -3 -12 -4 -19 -1 -8 3 -5 6 6 6 11 1 17 -2 13 -5z"/>
<path d="M210 2620 c0 -5 5 -10 10 -10 6 0 10 5 10 10 0 6 -4 10 -10 10 -5 0
-10 -4 -10 -10z"/>
<path d="M188 2423 c-29 -7 -20 -23 13 -23 19 0 29 4 27 12 -5 14 -17 17 -40
11z"/>
<path d="M290 2216 c0 -9 -9 -25 -20 -36 -19 -19 -20 -22 -4 -37 15 -15 17
-15 26 0 5 10 21 17 38 17 21 0 30 5 30 16 0 12 -6 15 -23 10 -19 -4 -23 -2
-23 16 1 11 -5 23 -11 25 -7 3 -13 -2 -13 -11z"/>
<path d="M165 2190 c5 -15 0 -21 -19 -26 -14 -3 -26 -10 -26 -14 0 -15 19 -21
37 -12 23 13 48 -9 30 -27 -6 -6 -17 -11 -24 -11 -9 0 -11 -12 -6 -45 3 -25 2
-45 -3 -45 -5 0 -10 -34 -11 -76 -1 -41 1 -74 5 -72 23 10 82 54 82 61 0 5
-13 6 -30 2 -23 -5 -30 -3 -30 9 0 11 9 16 31 16 20 0 29 4 26 13 -2 6 -16 11
-31 9 -25 -3 -26 -1 -16 18 9 17 20 20 69 20 l58 0 18 46 c23 62 14 71 -62 57
-53 -10 -56 -9 -35 4 29 20 28 36 -3 31 -23 -5 -25 -2 -25 28 0 28 -4 34 -21
34 -16 0 -19 -4 -14 -20z m128 -132 c-3 -16 -9 -28 -13 -28 -13 0 -18 36 -8
55 14 24 28 6 21 -27z m-91 10 c6 -17 -1 -38 -13 -38 -5 0 -9 11 -9 25 0 26
14 34 22 13z m45 -34 c-3 -3 -12 -4 -19 -1 -8 3 -5 6 6 6 11 1 17 -2 13 -5z"/>
<path d="M210 2170 c0 -5 5 -10 10 -10 6 0 10 5 10 10 0 6 -4 10 -10 10 -5 0
-10 -4 -10 -10z"/>
<path d="M290 1766 c0 -9 -9 -25 -20 -36 -19 -19 -20 -22 -4 -37 15 -15 17
-15 26 0 5 10 21 17 38 17 21 0 30 5 30 16 0 12 -6 15 -23 10 -19 -4 -23 -2
-23 16 1 11 -5 23 -11 25 -7 3 -13 -2 -13 -11z"/>
<path d="M165 1740 c5 -15 0 -21 -19 -26 -14 -3 -26 -10 -26 -14 0 -15 19 -21
37 -12 23 13 48 -9 30 -27 -6 -6 -17 -11 -24 -11 -9 0 -11 -12 -6 -45 3 -25 2
-45 -3 -45 -5 0 -10 -34 -11 -76 -1 -41 1 -74 5 -72 23 10 82 54 82 61 0 5
-13 6 -30 2 -23 -5 -30 -3 -30 9 0 11 9 16 31 16 20 0 29 4 26 13 -2 6 -16 11
-31 9 -25 -3 -26 -1 -16 18 9 17 20 20 69 20 l58 0 18 46 c23 62 14 71 -62 57
-53 -10 -56 -9 -35 4 29 20 28 36 -3 31 -23 -5 -25 -2 -25 28 0 28 -4 34 -21
34 -16 0 -19 -4 -14 -20z m128 -132 c-3 -16 -9 -28 -13 -28 -13 0 -18 36 -8
55 14 24 28 6 21 -27z m-91 10 c6 -17 -1 -38 -13 -38 -5 0 -9 11 -9 25 0 26
14 34 22 13z m45 -34 c-3 -3 -12 -4 -19 -1 -8 3 -5 6 6 6 11 1 17 -2 13 -5z"/>
<path d="M210 1720 c0 -5 5 -10 10 -10 6 0 10 5 10 10 0 6 -4 10 -10 10 -5 0
-10 -4 -10 -10z"/>
<path d="M278 1523 c-28 -7 -21 -23 10 -23 37 0 72 10 72 21 0 9 -51 10 -82 2z"/>
<path d="M290 1316 c0 -9 -9 -25 -20 -36 -19 -19 -20 -22 -4 -37 15 -15 17
-15 26 0 5 10 21 17 38 17 21 0 30 5 30 16 0 12 -6 15 -23 10 -19 -4 -23 -2
-23 16 1 11 -5 23 -11 25 -7 3 -13 -2 -13 -11z"/>
<path d="M165 1290 c5 -15 0 -21 -19 -26 -14 -3 -26 -10 -26 -14 0 -15 19 -21
37 -12 23 13 48 -9 30 -27 -6 -6 -17 -11 -24 -11 -9 0 -11 -12 -6 -45 3 -25 2
-45 -3 -45 -5 0 -10 -34 -11 -76 -1 -41 1 -74 5 -72 23 10 82 54 82 61 0 5
-13 6 -30 2 -23 -5 -30 -3 -30 9 0 11 9 16 31 16 20 0 29 4 26 13 -2 6 -16 11
-31 9 -25 -3 -26 -1 -16 18 8 15 19 20 38 18 26 -3 27 -6 32 -67 5 -60 7 -65
33 -74 29 -9 81 -3 106 12 10 7 11 13 2 30 -13 24 -31 28 -31 6 0 -18 -40 -29
-69 -20 -30 9 -29 55 2 55 34 0 67 11 67 22 0 7 -18 9 -44 6 -39 -5 -43 -3
-39 13 3 11 11 19 18 19 7 0 20 21 30 46 23 62 14 71 -62 57 -53 -10 -56 -9
-35 4 29 20 28 36 -3 31 -23 -5 -25 -2 -25 28 0 28 -4 34 -21 34 -16 0 -19 -4
-14 -20z m128 -132 c-3 -16 -9 -28 -13 -28 -13 0 -18 36 -8 55 14 24 28 6 21
-27z m-91 10 c6 -17 -1 -38 -13 -38 -5 0 -9 11 -9 25 0 26 14 34 22 13z m45
-34 c-3 -3 -12 -4 -19 -1 -8 3 -5 6 6 6 11 1 17 -2 13 -5z"/>
<path d="M210 1270 c0 -5 5 -10 10 -10 6 0 10 5 10 10 0 6 -4 10 -10 10 -5 0
-10 -4 -10 -10z"/>
</g>
</svg>
