<?xml version="1.0" standalone="no"?>
<!DOCTYPE svg PUBLIC "-//W3C//DTD SVG 20010904//EN"
 "http://www.w3.org/TR/2001/REC-SVG-20010904/DTD/svg10.dtd">
<svg version="1.0" xmlns="http://www.w3.org/2000/svg"
 width="50.000000pt" height="725.000000pt" viewBox="0 0 50.000000 725.000000"
 preserveAspectRatio="xMidYMid meet">
<metadata>
Created by potrace 1.16, written by Peter Selinger 2001-2019
</metadata>
<g transform="translate(0.000000,725.000000) scale(0.100000,-0.100000)"
fill="#000000" stroke="none">
<path d="M170 7153 c0 -16 25 -73 32 -73 9 0 10 26 2 58 -6 19 -34 33 -34 15z"/>
<path d="M170 6690 c0 -15 -7 -20 -26 -20 -16 0 -24 -5 -21 -12 2 -8 17 -12
36 -10 17 1 31 -2 31 -8 0 -5 5 -10 10 -10 6 0 10 7 10 15 0 8 5 15 10 15 6 0
10 5 10 10 0 6 -7 10 -15 10 -8 0 -15 7 -15 15 0 8 -7 15 -15 15 -8 0 -15 -9
-15 -20z"/>
<path d="M170 6240 c0 -15 -7 -20 -26 -20 -16 0 -24 -5 -21 -12 2 -8 17 -12
36 -10 17 1 31 -2 31 -8 0 -5 5 -10 10 -10 6 0 10 7 10 15 0 8 5 15 10 15 6 0
10 5 10 10 0 6 -7 10 -15 10 -8 0 -15 7 -15 15 0 8 -7 15 -15 15 -8 0 -15 -9
-15 -20z"/>
<path d="M273 6233 c-40 -8 -26 -26 15 -19 20 3 47 6 60 6 12 0 22 5 22 10 0
10 -53 11 -97 3z"/>
<path d="M290 5805 c0 -18 -5 -25 -20 -25 -11 0 -20 -4 -20 -10 0 -5 6 -10 14
-10 8 0 17 -6 20 -12 3 -10 9 -8 19 5 8 9 26 17 41 17 14 0 26 5 26 10 0 6
-12 10 -26 10 -16 0 -23 4 -18 11 3 6 0 15 -7 20 -23 14 -29 11 -29 -16z"/>
<path d="M170 5790 c0 -15 -7 -20 -26 -20 -16 0 -24 -5 -21 -12 2 -8 17 -12
36 -10 17 1 31 -2 31 -8 0 -5 5 -10 10 -10 6 0 10 7 10 15 0 8 5 15 10 15 6 0
10 5 10 10 0 6 -7 10 -15 10 -8 0 -15 7 -15 15 0 8 -7 15 -15 15 -8 0 -15 -9
-15 -20z"/>
<path d="M290 5355 c0 -18 -5 -25 -20 -25 -11 0 -20 -4 -20 -10 0 -5 6 -10 14
-10 8 0 17 -6 20 -12 3 -10 9 -8 19 5 8 9 26 17 41 17 14 0 26 5 26 10 0 6
-12 10 -26 10 -16 0 -23 4 -18 11 3 6 0 15 -7 20 -23 14 -29 11 -29 -16z"/>
<path d="M170 5340 c0 -15 -7 -20 -26 -20 -16 0 -24 -5 -21 -12 2 -8 17 -12
36 -10 17 1 31 -2 31 -8 0 -5 5 -10 10 -10 6 0 10 7 10 15 0 8 5 15 10 15 6 0
10 5 10 10 0 6 -7 10 -15 10 -8 0 -15 7 -15 15 0 8 -7 15 -15 15 -8 0 -15 -9
-15 -20z"/>
<path d="M240 5286 c0 -7 -7 -19 -15 -26 -19 -15 -19 -30 -2 -30 19 0 60 47
52 59 -9 16 -35 13 -35 -3z"/>
<path d="M290 4905 c0 -18 -5 -25 -20 -25 -11 0 -20 -4 -20 -10 0 -5 6 -10 14
-10 8 0 17 -6 20 -12 3 -10 9 -8 19 5 8 9 26 17 41 17 14 0 26 5 26 10 0 6
-12 10 -26 10 -16 0 -23 4 -18 11 3 6 0 15 -7 20 -23 14 -29 11 -29 -16z"/>
<path d="M170 4890 c0 -15 -7 -20 -26 -20 -16 0 -24 -5 -21 -12 2 -8 17 -12
36 -10 17 1 31 -2 31 -8 0 -5 5 -10 10 -10 6 0 10 7 10 15 0 8 5 15 10 15 6 0
10 5 10 10 0 6 -7 10 -15 10 -8 0 -15 7 -15 15 0 8 -7 15 -15 15 -8 0 -15 -9
-15 -20z"/>
<path d="M240 4838 c0 -6 -7 -20 -17 -30 -20 -23 -9 -36 17 -20 34 21 46 12
18 -12 -15 -13 -33 -26 -40 -29 -7 -2 -10 -8 -6 -11 8 -10 66 18 101 49 31 28
27 49 -9 42 -14 -2 -25 1 -28 9 -7 17 -36 19 -36 2z"/>
<path d="M290 4455 c0 -18 -5 -25 -20 -25 -11 0 -20 -4 -20 -10 0 -5 6 -10 14
-10 8 0 17 -6 20 -12 3 -10 9 -8 19 5 8 9 26 17 41 17 14 0 26 5 26 10 0 6
-12 10 -26 10 -16 0 -23 4 -18 11 3 6 0 15 -7 20 -23 14 -29 11 -29 -16z"/>
<path d="M170 4440 c0 -15 -7 -20 -26 -20 -16 0 -24 -5 -21 -12 2 -8 17 -12
36 -10 17 1 31 -2 31 -8 0 -5 5 -10 10 -10 6 0 10 7 10 15 0 8 5 15 10 15 6 0
10 5 10 10 0 6 -7 10 -15 10 -8 0 -15 7 -15 15 0 8 -7 15 -15 15 -8 0 -15 -9
-15 -20z"/>
<path d="M240 4386 c0 -7 -7 -19 -15 -26 -23 -19 -18 -30 13 -30 26 -1 26 -1
8 -15 -10 -8 -24 -16 -30 -18 -6 -2 -8 -8 -4 -11 3 -4 22 0 41 9 33 16 37 15
76 -4 48 -25 61 -26 61 -5 0 9 -17 22 -41 32 -36 14 -39 17 -24 28 22 17 9 37
-21 31 -14 -2 -25 1 -28 9 -7 18 -36 18 -36 0z"/>
<path d="M290 4005 c0 -18 -5 -25 -20 -25 -11 0 -20 -4 -20 -10 0 -5 6 -10 14
-10 8 0 17 -6 20 -12 3 -10 9 -8 19 5 8 9 26 17 41 17 14 0 26 5 26 10 0 6
-12 10 -26 10 -16 0 -23 4 -18 11 3 6 0 15 -7 20 -23 14 -29 11 -29 -16z"/>
<path d="M170 3990 c0 -15 -7 -20 -26 -20 -16 0 -24 -5 -21 -12 2 -8 17 -12
36 -10 17 1 31 -2 31 -8 0 -5 5 -10 10 -10 6 0 10 7 10 15 0 8 5 15 10 15 6 0
10 5 10 10 0 6 -7 10 -15 10 -8 0 -15 7 -15 15 0 8 -7 15 -15 15 -8 0 -15 -9
-15 -20z"/>
<path d="M240 3936 c0 -7 -7 -19 -15 -26 -23 -19 -18 -30 13 -30 26 -1 26 -1
8 -15 -10 -8 -24 -16 -30 -18 -6 -2 -8 -8 -4 -12 4 -4 21 0 39 9 34 17 85 12
58 -5 -8 -5 -24 -9 -36 -9 -13 0 -23 -4 -23 -10 0 -15 57 -12 73 4 9 9 19 11
28 5 22 -14 39 -11 39 7 0 9 -17 22 -41 32 -36 14 -39 17 -24 28 22 17 9 37
-21 31 -14 -2 -25 1 -28 9 -7 18 -36 18 -36 0z"/>
<path d="M290 3555 c0 -18 -5 -25 -20 -25 -11 0 -20 -4 -20 -10 0 -5 6 -10 14
-10 8 0 17 -6 20 -12 3 -10 9 -8 19 5 8 9 26 17 41 17 14 0 26 5 26 10 0 6
-12 10 -26 10 -16 0 -23 4 -18 11 3 6 0 15 -7 20 -23 14 -29 11 -29 -16z"/>
<path d="M170 3540 c0 -15 -7 -20 -26 -20 -16 0 -24 -5 -21 -12 2 -8 17 -12
36 -10 17 1 31 -2 31 -8 0 -5 5 -10 10 -10 6 0 10 7 10 15 0 8 5 15 10 15 6 0
10 5 10 10 0 6 -7 10 -15 10 -8 0 -15 7 -15 15 0 8 -7 15 -15 15 -8 0 -15 -9
-15 -20z"/>
<path d="M240 3486 c0 -7 -7 -19 -15 -26 -23 -19 -18 -30 13 -30 26 -1 26 -1
8 -15 -10 -8 -24 -16 -30 -18 -6 -2 -8 -8 -4 -12 4 -4 21 0 39 9 34 17 85 12
58 -5 -8 -5 -24 -9 -36 -9 -13 0 -23 -4 -23 -10 0 -15 57 -12 73 4 9 9 19 11
28 5 22 -14 39 -11 39 7 0 9 -17 22 -41 32 -36 14 -39 17 -24 28 22 17 9 37
-21 31 -14 -2 -25 1 -28 9 -7 18 -36 18 -36 0z"/>
<path d="M250 3340 c0 -5 16 -10 35 -10 19 0 35 5 35 10 0 6 -16 10 -35 10
-19 0 -35 -4 -35 -10z"/>
<path d="M290 3105 c0 -18 -5 -25 -20 -25 -11 0 -20 -4 -20 -10 0 -5 6 -10 14
-10 8 0 17 -6 20 -12 3 -10 9 -8 19 5 8 9 26 17 41 17 14 0 26 5 26 10 0 6
-12 10 -26 10 -16 0 -23 4 -18 11 3 6 0 15 -7 20 -23 14 -29 11 -29 -16z"/>
<path d="M170 3090 c0 -15 -7 -20 -26 -20 -16 0 -24 -5 -21 -12 2 -8 17 -12
36 -10 17 1 31 -2 31 -8 0 -5 5 -10 10 -10 6 0 10 7 10 15 0 8 5 15 10 15 6 0
10 5 10 10 0 6 -7 10 -15 10 -8 0 -15 7 -15 15 0 8 -7 15 -15 15 -8 0 -15 -9
-15 -20z"/>
<path d="M240 3036 c0 -7 -7 -19 -15 -26 -23 -19 -18 -30 13 -30 26 -1 26 -1
8 -15 -10 -8 -24 -16 -30 -18 -6 -2 -8 -8 -4 -12 4 -4 21 0 39 9 34 17 85 12
58 -5 -8 -5 -24 -9 -36 -9 -13 0 -23 -4 -23 -10 0 -15 57 -12 73 4 9 9 19 11
28 5 22 -14 39 -11 39 7 0 9 -17 22 -41 32 -36 14 -39 17 -24 28 22 17 9 37
-21 31 -14 -2 -25 1 -28 9 -7 18 -36 18 -36 0z"/>
<path d="M250 2890 c0 -5 16 -10 35 -10 19 0 35 5 35 10 0 6 -16 10 -35 10
-19 0 -35 -4 -35 -10z"/>
<path d="M260 2860 c0 -5 23 -10 50 -10 28 0 50 5 50 10 0 6 -22 10 -50 10
-27 0 -50 -4 -50 -10z"/>
<path d="M200 2850 c0 -5 11 -10 25 -10 14 0 25 5 25 10 0 6 -11 10 -25 10
-14 0 -25 -4 -25 -10z"/>
<path d="M290 2655 c0 -18 -5 -25 -20 -25 -11 0 -20 -4 -20 -10 0 -5 6 -10 14
-10 8 0 17 -6 20 -12 3 -10 9 -8 19 5 8 9 26 17 41 17 14 0 26 5 26 10 0 6
-12 10 -26 10 -16 0 -23 4 -18 11 3 6 0 15 -7 20 -23 14 -29 11 -29 -16z"/>
<path d="M170 2640 c0 -15 -7 -20 -26 -20 -16 0 -24 -5 -21 -12 2 -8 17 -12
36 -10 17 1 31 -2 31 -8 0 -5 5 -10 10 -10 6 0 10 7 10 15 0 8 5 15 10 15 6 0
10 5 10 10 0 6 -7 10 -15 10 -8 0 -15 7 -15 15 0 8 -7 15 -15 15 -8 0 -15 -9
-15 -20z"/>
<path d="M240 2586 c0 -7 -7 -19 -15 -26 -22 -18 -18 -28 13 -32 l27 -4 -27
-14 c-34 -16 -37 -33 -5 -25 21 6 23 3 22 -32 -1 -34 -4 -38 -28 -41 -15 -2
-27 -8 -27 -14 0 -6 13 -8 30 -6 24 4 30 1 30 -14 0 -10 5 -18 10 -18 6 0 10
9 10 20 0 17 7 20 40 20 51 0 53 20 3 21 -21 1 -30 3 -20 6 9 2 17 9 17 14 0
5 -8 9 -17 10 -14 0 -13 3 5 11 12 6 22 15 22 20 0 5 9 4 19 -2 28 -14 41 -13
41 6 0 9 -17 22 -41 32 -36 14 -39 17 -24 28 22 17 9 37 -21 31 -14 -2 -25 1
-28 9 -7 18 -36 18 -36 0z m68 -85 c11 -7 11 -9 -1 -14 -9 -3 -18 1 -21 9 -6
16 2 18 22 5z"/>
<path d="M290 2205 c0 -18 -5 -25 -20 -25 -11 0 -20 -4 -20 -10 0 -5 6 -10 14
-10 8 0 17 -6 20 -12 3 -10 9 -8 19 5 8 9 26 17 41 17 14 0 26 5 26 10 0 6
-12 10 -26 10 -16 0 -23 4 -18 11 3 6 0 15 -7 20 -23 14 -29 11 -29 -16z"/>
<path d="M170 2190 c0 -15 -7 -20 -26 -20 -16 0 -24 -5 -21 -12 2 -8 17 -12
36 -10 17 1 31 -2 31 -8 0 -5 5 -10 10 -10 6 0 10 7 10 15 0 8 5 15 10 15 6 0
10 5 10 10 0 6 -7 10 -15 10 -8 0 -15 7 -15 15 0 8 -7 15 -15 15 -8 0 -15 -9
-15 -20z"/>
<path d="M240 2136 c0 -7 -7 -19 -15 -26 -22 -18 -18 -28 13 -32 l27 -4 -27
-14 c-34 -16 -37 -33 -5 -25 21 6 23 3 22 -32 -1 -34 -4 -38 -28 -41 -15 -2
-27 -8 -27 -14 0 -6 13 -8 30 -6 24 4 30 1 30 -14 0 -10 5 -18 10 -18 6 0 10
9 10 20 0 17 7 20 40 20 51 0 53 20 3 21 -21 1 -30 3 -20 6 9 2 17 9 17 14 0
5 -8 9 -17 10 -14 0 -13 3 5 11 12 6 22 15 22 20 0 5 9 4 19 -2 28 -14 41 -13
41 6 0 9 -17 22 -41 32 -36 14 -39 17 -24 28 22 17 9 37 -21 31 -14 -2 -25 1
-28 9 -7 18 -36 18 -36 0z m68 -85 c11 -7 11 -9 -1 -14 -9 -3 -18 1 -21 9 -6
16 2 18 22 5z"/>
<path d="M130 2104 c0 -16 23 -44 35 -44 20 0 19 36 -1 44 -20 8 -34 8 -34 0z"/>
<path d="M290 1755 c0 -18 -5 -25 -20 -25 -11 0 -20 -4 -20 -10 0 -5 6 -10 14
-10 8 0 17 -6 20 -12 3 -10 9 -8 19 5 8 9 26 17 41 17 14 0 26 5 26 10 0 6
-12 10 -26 10 -16 0 -23 4 -18 11 3 6 0 15 -7 20 -23 14 -29 11 -29 -16z"/>
<path d="M170 1740 c0 -15 -7 -20 -26 -20 -16 0 -24 -5 -21 -12 2 -8 17 -12
36 -10 17 1 31 -2 31 -8 0 -5 5 -10 10 -10 6 0 10 7 10 15 0 8 5 15 10 15 6 0
10 5 10 10 0 6 -7 10 -15 10 -8 0 -15 7 -15 15 0 8 -7 15 -15 15 -8 0 -15 -9
-15 -20z"/>
<path d="M240 1686 c0 -7 -7 -19 -15 -26 -22 -18 -18 -28 13 -32 l27 -4 -27
-14 c-34 -16 -37 -33 -5 -25 21 6 23 3 22 -32 -1 -34 -4 -38 -28 -41 -15 -2
-27 -8 -27 -14 0 -6 13 -8 30 -6 24 4 30 1 30 -14 0 -10 5 -18 10 -18 6 0 10
9 10 20 0 17 7 20 40 20 51 0 53 20 3 21 -21 1 -30 3 -20 6 9 2 17 9 17 14 0
5 -8 9 -17 10 -14 0 -13 3 5 11 12 6 22 15 22 20 0 5 9 4 19 -2 28 -14 41 -13
41 6 0 9 -17 22 -41 32 -36 14 -39 17 -24 28 22 17 9 37 -21 31 -14 -2 -25 1
-28 9 -7 18 -36 18 -36 0z m68 -85 c11 -7 11 -9 -1 -14 -9 -3 -18 1 -21 9 -6
16 2 18 22 5z"/>
<path d="M130 1654 c0 -16 23 -44 35 -44 20 0 19 36 -1 44 -20 8 -34 8 -34 0z"/>
<path d="M118 1583 c-24 -6 -23 -23 2 -23 13 0 18 -5 14 -15 -8 -21 9 -19 29
3 32 36 13 50 -45 35z"/>
<path d="M290 1305 c0 -18 -5 -25 -20 -25 -11 0 -20 -4 -20 -10 0 -5 6 -10 14
-10 8 0 17 -6 20 -12 3 -10 9 -8 19 5 8 9 26 17 41 17 14 0 26 5 26 10 0 6
-12 10 -26 10 -16 0 -23 4 -18 11 3 6 0 15 -7 20 -23 14 -29 11 -29 -16z"/>
<path d="M170 1290 c0 -15 -7 -20 -26 -20 -16 0 -24 -5 -21 -12 2 -8 17 -12
36 -10 17 1 31 -2 31 -8 0 -5 5 -10 10 -10 6 0 10 7 10 15 0 8 5 15 10 15 6 0
10 5 10 10 0 6 -7 10 -15 10 -8 0 -15 7 -15 15 0 8 -7 15 -15 15 -8 0 -15 -9
-15 -20z"/>
<path d="M240 1236 c0 -7 -7 -19 -15 -26 -22 -18 -18 -28 13 -32 l27 -4 -27
-14 c-34 -16 -37 -33 -5 -25 21 6 23 3 22 -32 -1 -34 -4 -38 -28 -41 -15 -2
-27 -8 -27 -14 0 -6 13 -8 30 -6 24 4 30 1 30 -14 0 -10 5 -18 10 -18 6 0 10
9 10 20 0 17 7 20 40 20 51 0 53 20 3 21 -21 1 -30 3 -20 6 9 2 17 9 17 14 0
5 -8 9 -17 10 -14 0 -13 3 5 11 12 6 22 15 22 20 0 5 9 4 19 -2 28 -14 41 -13
41 6 0 9 -17 22 -41 32 -36 14 -39 17 -24 28 22 17 9 37 -21 31 -14 -2 -25 1
-28 9 -7 18 -36 18 -36 0z m68 -85 c11 -7 11 -9 -1 -14 -9 -3 -18 1 -21 9 -6
16 2 18 22 5z"/>
<path d="M130 1204 c0 -16 23 -44 35 -44 20 0 19 36 -1 44 -20 8 -34 8 -34 0z"/>
<path d="M118 1133 c-25 -6 -23 -23 3 -23 11 0 18 -4 14 -10 -8 -13 5 -60 17
-60 6 0 8 11 6 25 -3 14 1 30 8 36 34 28 6 46 -48 32z"/>
<path d="M290 855 c0 -18 -5 -25 -20 -25 -11 0 -20 -4 -20 -10 0 -5 6 -10 14
-10 8 0 17 -6 20 -12 3 -10 9 -8 19 5 8 9 26 17 41 17 14 0 26 5 26 10 0 6
-12 10 -26 10 -16 0 -23 4 -18 11 3 6 0 15 -7 20 -23 14 -29 11 -29 -16z"/>
<path d="M170 840 c0 -15 -7 -20 -26 -20 -16 0 -24 -5 -21 -12 2 -8 17 -12 36
-10 17 1 31 -2 31 -8 0 -5 5 -10 10 -10 6 0 10 7 10 15 0 8 5 15 10 15 6 0 10
5 10 10 0 6 -7 10 -15 10 -8 0 -15 7 -15 15 0 8 -7 15 -15 15 -8 0 -15 -9 -15
-20z"/>
<path d="M240 786 c0 -7 -7 -19 -15 -26 -22 -18 -18 -28 13 -32 l27 -4 -27
-14 c-34 -16 -37 -33 -5 -25 21 6 23 3 22 -32 -1 -34 -4 -38 -28 -41 -15 -2
-27 -8 -27 -14 0 -6 13 -8 30 -6 24 4 30 1 30 -14 0 -11 -3 -17 -7 -15 -5 3
-27 10 -49 16 -32 9 -43 17 -46 36 -3 14 1 30 8 36 34 28 9 47 -43 33 -27 -7
-31 -24 -5 -24 12 0 17 -9 19 -35 1 -33 0 -35 -29 -35 -19 0 -28 -4 -25 -12 2
-8 18 -12 41 -10 24 2 68 -9 122 -29 79 -30 87 -31 129 -19 58 16 57 30 -2 30
-67 0 -93 9 -93 31 0 15 7 19 40 19 51 0 53 20 3 21 -21 1 -30 3 -20 6 9 2 17
9 17 14 0 5 -8 9 -17 10 -14 0 -13 3 5 11 12 6 22 15 22 20 0 5 9 4 19 -2 28
-14 41 -13 41 6 0 9 -17 22 -41 32 -36 14 -39 17 -24 28 22 17 9 37 -21 31
-14 -2 -25 1 -28 9 -7 18 -36 18 -36 0z m68 -85 c11 -7 11 -9 -1 -14 -9 -3
-18 1 -21 9 -6 16 2 18 22 5z"/>
<path d="M130 754 c0 -16 23 -44 35 -44 20 0 19 36 -1 44 -20 8 -34 8 -34 0z"/>
</g>
</svg>
