<?xml version="1.0" standalone="no"?>
<!DOCTYPE svg PUBLIC "-//W3C//DTD SVG 20010904//EN"
 "http://www.w3.org/TR/2001/REC-SVG-20010904/DTD/svg10.dtd">
<svg version="1.0" xmlns="http://www.w3.org/2000/svg"
 width="50.000000pt" height="725.000000pt" viewBox="0 0 50.000000 725.000000"
 preserveAspectRatio="xMidYMid meet">
<metadata>
Created by potrace 1.16, written by Peter Selinger 2001-2019
</metadata>
<g transform="translate(0.000000,725.000000) scale(0.100000,-0.100000)"
fill="#000000" stroke="none">
<path d="M184 7155 c3 -9 9 -28 12 -41 10 -38 26 -28 22 13 -2 28 -8 39 -22
41 -14 3 -17 0 -12 -13z"/>
<path d="M182 6698 c2 -17 -3 -24 -19 -26 -13 -2 -23 -8 -23 -13 0 -16 29 -22
45 -9 10 9 15 9 15 1 0 -6 5 -11 11 -11 6 0 9 16 7 37 -2 27 -8 39 -21 41 -13
3 -16 -2 -15 -20z"/>
<path d="M182 6248 c2 -17 -3 -24 -19 -26 -13 -2 -23 -8 -23 -13 0 -16 29 -22
45 -9 10 9 15 9 15 1 0 -6 5 -11 11 -11 6 0 9 16 7 37 -2 27 -8 39 -21 41 -13
3 -16 -2 -15 -20z"/>
<path d="M328 6243 c-31 -8 -19 -23 18 -23 24 0 34 4 32 13 -5 13 -24 17 -50
10z"/>
<path d="M287 5788 c-6 -47 -1 -62 14 -35 7 11 22 17 45 17 24 0 34 4 31 13
-2 6 -16 11 -29 10 -18 -1 -25 3 -24 15 0 9 -6 18 -15 20 -12 2 -18 -7 -22
-40z"/>
<path d="M182 5798 c2 -17 -3 -24 -19 -26 -13 -2 -23 -8 -23 -13 0 -16 29 -22
45 -9 10 9 15 9 15 1 0 -6 5 -11 11 -11 6 0 9 16 7 37 -2 27 -8 39 -21 41 -13
3 -16 -2 -15 -20z"/>
<path d="M287 5338 c-6 -47 -1 -62 14 -35 7 11 22 17 45 17 24 0 34 4 31 13
-2 6 -16 11 -29 10 -18 -1 -25 3 -24 15 0 9 -6 18 -15 20 -12 2 -18 -7 -22
-40z"/>
<path d="M182 5348 c2 -17 -3 -24 -19 -26 -13 -2 -23 -8 -23 -13 0 -16 29 -22
45 -9 10 9 15 9 15 1 0 -6 5 -11 11 -11 6 0 9 16 7 37 -2 27 -8 39 -21 41 -13
3 -16 -2 -15 -20z"/>
<path d="M155 5253 c4 -10 10 -28 12 -40 7 -30 23 -29 23 1 0 35 -10 56 -27
56 -11 0 -13 -5 -8 -17z"/>
<path d="M288 4898 c-1 -18 -2 -41 -1 -50 0 -13 -8 -18 -29 -18 -15 0 -28 -5
-28 -11 0 -7 18 -9 48 -7 46 3 47 2 44 -24 -5 -38 13 -35 32 4 18 35 10 48
-32 48 -39 0 -19 25 22 28 23 2 36 8 33 15 -2 7 -16 11 -29 10 -18 -1 -25 3
-24 15 0 9 -7 18 -16 20 -14 3 -18 -4 -20 -30z"/>
<path d="M182 4898 c2 -17 -3 -24 -19 -26 -13 -2 -23 -8 -23 -13 0 -16 29 -22
45 -9 10 9 15 9 15 1 0 -6 5 -11 11 -11 6 0 9 16 7 37 -2 27 -8 39 -21 41 -13
3 -16 -2 -15 -20z"/>
<path d="M155 4803 c4 -10 10 -28 12 -40 8 -33 23 -28 23 7 0 17 5 30 10 30 6
0 10 5 10 10 0 6 -14 10 -31 10 -26 0 -30 -3 -24 -17z"/>
<path d="M288 4448 c-1 -18 -2 -41 -2 -50 0 -14 -13 -18 -68 -24 -58 -6 -68
-9 -62 -23 3 -9 9 -26 11 -38 8 -33 23 -28 23 7 0 20 5 30 15 30 8 0 15 -7 15
-15 0 -8 5 -15 10 -15 6 0 10 9 10 20 0 20 5 21 68 24 13 1 16 -6 14 -26 -5
-38 13 -35 32 4 18 35 10 48 -32 48 -39 0 -19 25 22 28 23 2 36 8 33 15 -2 7
-16 11 -29 10 -18 -1 -25 3 -24 15 0 9 -7 18 -16 20 -14 3 -18 -4 -20 -30z"/>
<path d="M182 4448 c2 -17 -3 -24 -19 -26 -13 -2 -23 -8 -23 -13 0 -16 29 -22
45 -9 10 9 15 9 15 1 0 -6 5 -11 11 -11 6 0 9 16 7 37 -2 27 -8 39 -21 41 -13
3 -16 -2 -15 -20z"/>
<path d="M288 3998 c-1 -18 -2 -41 -2 -50 0 -14 -13 -18 -68 -24 -58 -6 -68
-9 -62 -23 3 -9 9 -26 11 -38 8 -33 23 -28 23 7 0 20 5 30 15 30 8 0 15 -7 15
-15 0 -8 5 -15 10 -15 6 0 10 9 10 20 0 11 7 20 15 20 8 0 15 -7 15 -15 0 -22
18 -18 25 6 9 29 31 18 27 -14 -5 -37 13 -34 32 5 18 35 10 48 -32 48 -39 0
-19 25 22 28 23 2 36 8 33 15 -2 7 -16 11 -29 10 -18 -1 -25 3 -24 15 0 9 -7
18 -16 20 -14 3 -18 -4 -20 -30z"/>
<path d="M182 3998 c2 -17 -3 -24 -19 -26 -13 -2 -23 -8 -23 -13 0 -16 29 -22
45 -9 10 9 15 9 15 1 0 -6 5 -11 11 -11 6 0 9 16 7 37 -2 27 -8 39 -21 41 -13
3 -16 -2 -15 -20z"/>
<path d="M288 3548 c-1 -18 -2 -41 -2 -50 0 -14 -13 -18 -68 -24 -58 -6 -68
-9 -62 -23 3 -9 9 -26 12 -39 3 -17 9 -21 21 -16 9 3 46 9 83 11 63 5 69 8 83
36 17 34 8 47 -33 47 -39 0 -19 25 22 28 23 2 36 8 33 15 -2 7 -16 11 -29 10
-18 -1 -25 3 -24 15 0 9 -7 18 -16 20 -14 3 -18 -4 -20 -30z m35 -84 c9 -10
-4 -34 -19 -34 -16 0 -16 2 -8 24 6 17 16 20 27 10z m-53 -19 c0 -8 -7 -15
-15 -15 -8 0 -15 7 -15 15 0 8 7 15 15 15 8 0 15 -7 15 -15z m-50 -10 c0 -8
-7 -15 -15 -15 -8 0 -15 7 -15 15 0 8 7 15 15 15 8 0 15 -7 15 -15z"/>
<path d="M182 3548 c2 -17 -3 -24 -19 -26 -13 -2 -23 -8 -23 -13 0 -16 29 -22
45 -9 10 9 15 9 15 1 0 -6 5 -11 11 -11 6 0 9 16 7 37 -2 27 -8 39 -21 41 -13
3 -16 -2 -15 -20z"/>
<path d="M288 3098 c-1 -18 -2 -41 -2 -50 0 -14 -13 -18 -68 -24 -58 -6 -68
-9 -62 -23 3 -9 9 -26 12 -39 3 -17 9 -21 21 -16 9 3 46 9 83 11 63 5 69 8 83
36 17 34 8 47 -33 47 -39 0 -19 25 22 28 23 2 36 8 33 15 -2 7 -16 11 -29 10
-18 -1 -25 3 -24 15 0 9 -7 18 -16 20 -14 3 -18 -4 -20 -30z m35 -84 c9 -10
-4 -34 -19 -34 -16 0 -16 2 -8 24 6 17 16 20 27 10z m-53 -19 c0 -8 -7 -15
-15 -15 -8 0 -15 7 -15 15 0 8 7 15 15 15 8 0 15 -7 15 -15z m-50 -10 c0 -8
-7 -15 -15 -15 -8 0 -15 7 -15 15 0 8 7 15 15 15 8 0 15 -7 15 -15z"/>
<path d="M182 3098 c2 -17 -3 -24 -19 -26 -13 -2 -23 -8 -23 -13 0 -16 29 -22
45 -9 10 9 15 9 15 1 0 -6 5 -11 11 -11 6 0 9 16 7 37 -2 27 -8 39 -21 41 -13
3 -16 -2 -15 -20z"/>
<path d="M208 2923 c-63 -5 -62 -23 1 -23 68 0 141 11 141 21 0 9 -47 9 -142
2z"/>
<path d="M288 2648 c-1 -18 -2 -41 -2 -50 0 -14 -13 -18 -68 -24 -58 -6 -68
-9 -62 -23 3 -9 9 -26 12 -39 3 -17 9 -21 21 -16 9 3 46 9 83 11 63 5 69 8 83
36 17 34 8 47 -33 47 -39 0 -19 25 22 28 23 2 36 8 33 15 -2 7 -16 11 -29 10
-18 -1 -25 3 -24 15 0 9 -7 18 -16 20 -14 3 -18 -4 -20 -30z m35 -84 c9 -10
-4 -34 -19 -34 -16 0 -16 2 -8 24 6 17 16 20 27 10z m-53 -19 c0 -8 -7 -15
-15 -15 -8 0 -15 7 -15 15 0 8 7 15 15 15 8 0 15 -7 15 -15z m-50 -10 c0 -8
-7 -15 -15 -15 -8 0 -15 7 -15 15 0 8 7 15 15 15 8 0 15 -7 15 -15z"/>
<path d="M182 2648 c2 -17 -3 -24 -19 -26 -13 -2 -23 -8 -23 -13 0 -16 29 -22
45 -9 10 9 15 9 15 1 0 -6 5 -11 11 -11 6 0 9 16 7 37 -2 27 -8 39 -21 41 -13
3 -16 -2 -15 -20z"/>
<path d="M208 2473 c-47 -4 -48 -5 -48 -38 0 -22 -9 -45 -26 -65 -31 -36 -26
-48 10 -25 15 10 31 34 38 57 14 46 11 44 101 53 37 4 67 11 67 16 0 9 -45 9
-142 2z"/>
<path d="M288 2198 c-1 -18 -2 -41 -2 -50 0 -14 -13 -18 -68 -24 -58 -6 -68
-9 -62 -23 3 -9 9 -26 12 -39 3 -17 9 -21 21 -16 9 3 46 9 83 11 63 5 69 8 83
36 17 34 8 47 -33 47 -39 0 -19 25 22 28 23 2 36 8 33 15 -2 7 -16 11 -29 10
-18 -1 -25 3 -24 15 0 9 -7 18 -16 20 -14 3 -18 -4 -20 -30z m35 -84 c9 -10
-4 -34 -19 -34 -16 0 -16 2 -8 24 6 17 16 20 27 10z m-53 -19 c0 -8 -7 -15
-15 -15 -8 0 -15 7 -15 15 0 8 7 15 15 15 8 0 15 -7 15 -15z m-50 -10 c0 -8
-7 -15 -15 -15 -8 0 -15 7 -15 15 0 8 7 15 15 15 8 0 15 -7 15 -15z"/>
<path d="M182 2198 c2 -17 -3 -24 -19 -26 -13 -2 -23 -8 -23 -13 0 -16 29 -22
45 -9 10 9 15 9 15 1 0 -6 5 -11 11 -11 6 0 9 16 7 37 -2 27 -8 39 -21 41 -13
3 -16 -2 -15 -20z"/>
<path d="M208 2023 c-47 -4 -48 -5 -48 -38 0 -22 -9 -45 -26 -65 -15 -17 -24
-33 -21 -36 9 -9 56 27 63 48 5 18 7 18 23 4 22 -20 41 -20 41 -1 0 9 -11 21
-25 27 -27 12 -32 26 -12 33 6 2 42 7 80 10 37 4 67 11 67 16 0 9 -45 9 -142
2z"/>
<path d="M288 1748 c-1 -18 -2 -41 -2 -50 0 -14 -13 -18 -68 -24 -58 -6 -68
-9 -62 -23 3 -9 9 -26 12 -39 3 -17 9 -21 21 -16 9 3 46 9 83 11 63 5 69 8 83
36 17 34 8 47 -33 47 -39 0 -19 25 22 28 23 2 36 8 33 15 -2 7 -16 11 -29 10
-18 -1 -25 3 -24 15 0 9 -7 18 -16 20 -14 3 -18 -4 -20 -30z m35 -84 c9 -10
-4 -34 -19 -34 -16 0 -16 2 -8 24 6 17 16 20 27 10z m-53 -19 c0 -8 -7 -15
-15 -15 -8 0 -15 7 -15 15 0 8 7 15 15 15 8 0 15 -7 15 -15z m-50 -10 c0 -8
-7 -15 -15 -15 -8 0 -15 7 -15 15 0 8 7 15 15 15 8 0 15 -7 15 -15z"/>
<path d="M182 1748 c2 -17 -3 -24 -19 -26 -13 -2 -23 -8 -23 -13 0 -16 29 -22
45 -9 10 9 15 9 15 1 0 -6 5 -11 11 -11 6 0 9 16 7 37 -2 27 -8 39 -21 41 -13
3 -16 -2 -15 -20z"/>
<path d="M244 1585 c4 -12 -4 -15 -39 -15 -45 0 -45 0 -45 -34 0 -23 -9 -45
-26 -66 -15 -17 -24 -33 -21 -36 9 -9 56 27 63 48 5 18 7 18 23 4 22 -20 41
-20 41 -1 0 9 -11 21 -25 27 -32 15 -27 32 11 36 24 2 32 -3 48 -33 25 -46 90
-105 116 -105 17 0 19 5 13 33 -8 42 -11 44 -26 23 -12 -16 -16 -15 -50 23
-46 51 -48 71 -7 71 17 0 30 5 30 10 0 6 -16 10 -35 10 -19 0 -35 5 -35 10 0
6 -9 10 -21 10 -15 0 -19 -5 -15 -15z"/>
<path d="M288 1298 c-1 -18 -2 -41 -2 -50 0 -14 -13 -18 -68 -24 -58 -6 -68
-9 -62 -23 3 -9 9 -26 12 -39 3 -17 9 -21 21 -16 9 3 46 9 83 11 63 5 69 8 83
36 17 34 8 47 -33 47 -39 0 -19 25 22 28 23 2 36 8 33 15 -2 7 -16 11 -29 10
-18 -1 -25 3 -24 15 0 9 -7 18 -16 20 -14 3 -18 -4 -20 -30z m35 -84 c9 -10
-4 -34 -19 -34 -16 0 -16 2 -8 24 6 17 16 20 27 10z m-53 -19 c0 -8 -7 -15
-15 -15 -8 0 -15 7 -15 15 0 8 7 15 15 15 8 0 15 -7 15 -15z m-50 -10 c0 -8
-7 -15 -15 -15 -8 0 -15 7 -15 15 0 8 7 15 15 15 8 0 15 -7 15 -15z"/>
<path d="M182 1298 c2 -17 -3 -24 -19 -26 -13 -2 -23 -8 -23 -13 0 -16 29 -22
45 -9 10 9 15 9 15 1 0 -6 5 -11 11 -11 6 0 9 16 7 37 -2 27 -8 39 -21 41 -13
3 -16 -2 -15 -20z"/>
<path d="M352 1144 c2 -11 11 -20 22 -22 13 -3 17 1 14 14 -2 11 -11 20 -22
22 -13 3 -17 -1 -14 -14z"/>
<path d="M244 1135 c4 -12 -4 -15 -39 -15 -45 0 -45 0 -45 -34 0 -23 -9 -45
-26 -66 -15 -17 -24 -33 -21 -36 9 -9 56 27 63 48 5 18 7 18 23 4 22 -20 41
-20 41 -1 0 9 -11 21 -25 27 -32 15 -27 32 11 36 24 2 32 -3 48 -33 25 -46 90
-105 116 -105 17 0 19 5 13 33 -8 42 -11 44 -26 23 -12 -16 -16 -15 -50 23
-46 51 -48 71 -7 71 17 0 30 5 30 10 0 6 -16 10 -35 10 -19 0 -35 5 -35 10 0
6 -9 10 -21 10 -15 0 -19 -5 -15 -15z"/>
<path d="M288 848 c-1 -18 -2 -41 -2 -50 0 -14 -13 -18 -68 -24 -58 -6 -68 -9
-62 -23 3 -9 9 -26 12 -39 3 -17 9 -21 21 -16 9 3 46 9 83 11 63 5 69 8 83 36
17 34 8 47 -33 47 -39 0 -19 25 22 28 23 2 36 8 33 15 -2 7 -16 11 -29 10 -18
-1 -25 3 -24 15 0 9 -7 18 -16 20 -14 3 -18 -4 -20 -30z m35 -84 c9 -10 -4
-34 -19 -34 -16 0 -16 2 -8 24 6 17 16 20 27 10z m-53 -19 c0 -8 -7 -15 -15
-15 -8 0 -15 7 -15 15 0 8 7 15 15 15 8 0 15 -7 15 -15z m-50 -10 c0 -8 -7
-15 -15 -15 -8 0 -15 7 -15 15 0 8 7 15 15 15 8 0 15 -7 15 -15z"/>
<path d="M182 848 c2 -17 -3 -24 -19 -26 -13 -2 -23 -8 -23 -13 0 -16 29 -22
45 -9 10 9 15 9 15 1 0 -6 5 -11 11 -11 6 0 9 16 7 37 -2 27 -8 39 -21 41 -13
3 -16 -2 -15 -20z"/>
<path d="M352 694 c2 -11 11 -20 22 -22 13 -3 17 1 14 14 -2 11 -11 20 -22 22
-13 3 -17 -1 -14 -14z"/>
<path d="M244 685 c4 -12 -4 -15 -39 -15 -45 0 -45 0 -45 -34 0 -23 -9 -45
-26 -66 -15 -17 -24 -33 -21 -36 9 -9 56 27 63 48 5 18 7 18 23 4 22 -20 41
-20 41 -1 0 9 -11 21 -25 27 -32 15 -27 32 11 36 24 2 32 -3 47 -30 l19 -33
-28 -22 c-36 -28 -26 -40 16 -18 30 15 32 15 61 -10 17 -14 39 -25 50 -25 16
0 18 5 12 33 -8 41 -11 44 -26 23 -12 -16 -14 -16 -30 2 -16 17 -16 21 -2 32
21 18 19 40 -5 40 -11 0 -20 -7 -20 -15 0 -20 -16 -19 -24 1 -11 28 -7 34 24
34 17 0 30 5 30 10 0 6 -16 10 -35 10 -19 0 -35 5 -35 10 0 6 -9 10 -21 10
-15 0 -19 -5 -15 -15z"/>
</g>
</svg>
