<?xml version="1.0" standalone="no"?>
<!DOCTYPE svg PUBLIC "-//W3C//DTD SVG 20010904//EN"
 "http://www.w3.org/TR/2001/REC-SVG-20010904/DTD/svg10.dtd">
<svg version="1.0" xmlns="http://www.w3.org/2000/svg"
 width="50.000000pt" height="725.000000pt" viewBox="0 0 50.000000 725.000000"
 preserveAspectRatio="xMidYMid meet">
<metadata>
Created by potrace 1.16, written by Peter Selinger 2001-2019
</metadata>
<g transform="translate(0.000000,725.000000) scale(0.100000,-0.100000)"
fill="#000000" stroke="none">
<path d="M170 7154 c0 -4 5 -24 12 -45 11 -38 28 -53 28 -25 0 36 -14 76 -26
76 -8 0 -14 -3 -14 -6z"/>
<path d="M173 6690 c4 -17 0 -22 -24 -27 -42 -8 -37 -27 6 -20 26 4 35 2 35
-9 0 -8 5 -14 10 -14 6 0 10 9 10 20 0 11 5 20 10 20 6 0 10 5 10 10 0 6 -7
10 -15 10 -8 0 -15 7 -15 15 0 8 -7 15 -16 15 -12 0 -15 -6 -11 -20z"/>
<path d="M173 6240 c4 -17 0 -22 -24 -27 -42 -8 -37 -27 6 -20 26 4 35 2 35
-9 0 -8 5 -14 10 -14 6 0 10 9 10 20 0 11 5 20 10 20 6 0 10 5 10 10 0 6 -7
10 -15 10 -8 0 -15 7 -15 15 0 8 -7 15 -16 15 -12 0 -15 -6 -11 -20z"/>
<path d="M278 6233 c-16 -2 -28 -9 -28 -15 0 -7 14 -8 38 -4 20 3 47 6 60 6
12 0 22 5 22 10 0 10 -38 11 -92 3z"/>
<path d="M290 5800 c0 -13 -7 -20 -20 -20 -11 0 -20 -4 -20 -10 0 -5 6 -10 14
-10 8 0 17 -6 20 -12 3 -10 9 -8 19 5 8 9 26 17 41 17 14 0 26 5 26 10 0 6
-11 10 -25 10 -16 0 -25 6 -25 15 0 8 -7 15 -15 15 -8 0 -15 -9 -15 -20z"/>
<path d="M173 5790 c4 -17 0 -22 -24 -27 -42 -8 -37 -27 6 -20 26 4 35 2 35
-9 0 -8 5 -14 10 -14 6 0 10 9 10 20 0 11 5 20 10 20 6 0 10 5 10 10 0 6 -7
10 -15 10 -8 0 -15 7 -15 15 0 8 -7 15 -16 15 -12 0 -15 -6 -11 -20z"/>
<path d="M290 5350 c0 -13 -7 -20 -20 -20 -11 0 -20 -4 -20 -10 0 -5 6 -10 14
-10 8 0 17 -6 20 -12 3 -10 9 -8 19 5 8 9 26 17 41 17 14 0 26 5 26 10 0 6
-11 10 -25 10 -16 0 -25 6 -25 15 0 8 -7 15 -15 15 -8 0 -15 -9 -15 -20z"/>
<path d="M173 5340 c4 -17 0 -22 -24 -27 -42 -8 -37 -27 6 -20 23 4 35 2 35
-6 1 -29 16 -38 43 -26 15 7 27 16 27 21 0 16 -32 21 -41 7 -7 -11 -9 -11 -9
4 0 9 5 17 10 17 6 0 10 5 10 10 0 6 -7 10 -15 10 -8 0 -15 7 -15 15 0 8 -7
15 -16 15 -12 0 -15 -6 -11 -20z"/>
<path d="M290 4900 c0 -13 -7 -20 -20 -20 -11 0 -20 -4 -20 -10 0 -5 6 -10 14
-10 8 0 17 -6 20 -12 3 -10 9 -8 19 5 8 9 26 17 41 17 14 0 26 5 26 10 0 6
-11 10 -25 10 -16 0 -25 6 -25 15 0 8 -7 15 -15 15 -8 0 -15 -9 -15 -20z"/>
<path d="M173 4890 c4 -17 0 -22 -24 -27 -42 -8 -37 -27 6 -20 23 4 35 2 35
-6 1 -29 16 -38 43 -26 15 7 27 16 27 21 0 16 -32 21 -41 7 -7 -11 -9 -11 -9
4 0 9 5 17 10 17 6 0 10 5 10 10 0 6 -7 10 -15 10 -8 0 -15 7 -15 15 0 8 -7
15 -16 15 -12 0 -15 -6 -11 -20z"/>
<path d="M153 4789 c4 -13 7 -45 7 -71 0 -27 5 -48 10 -48 17 0 8 132 -9 138
-10 3 -12 -1 -8 -19z"/>
<path d="M290 4450 c0 -13 -7 -20 -20 -20 -11 0 -20 -4 -20 -10 0 -5 6 -10 14
-10 8 0 17 -6 20 -12 3 -10 9 -8 19 5 8 9 26 17 41 17 14 0 26 5 26 10 0 6
-11 10 -25 10 -16 0 -25 6 -25 15 0 8 -7 15 -15 15 -8 0 -15 -9 -15 -20z"/>
<path d="M173 4440 c4 -17 0 -22 -24 -27 -41 -8 -37 -27 5 -20 28 4 35 2 39
-14 5 -18 -3 -23 -32 -19 -10 1 -12 -5 -7 -22 3 -13 6 -44 6 -70 0 -68 18 -60
22 10 3 54 4 57 31 60 17 2 27 9 28 20 0 11 3 12 6 5 2 -7 18 -13 34 -13 29 0
29 0 29 -60 0 -45 4 -60 14 -60 10 0 15 17 18 63 5 71 -7 89 -52 81 -19 -4
-29 -1 -33 10 -8 19 -33 21 -40 4 -3 -8 -6 -6 -6 5 -1 9 4 17 9 17 6 0 10 5
10 10 0 6 -7 10 -15 10 -8 0 -15 7 -15 15 0 8 -7 15 -16 15 -12 0 -15 -6 -11
-20z"/>
<path d="M290 4000 c0 -13 -7 -20 -20 -20 -11 0 -20 -4 -20 -10 0 -5 6 -10 14
-10 8 0 17 -6 20 -12 3 -10 9 -8 19 5 8 9 26 17 41 17 14 0 26 5 26 10 0 6
-11 10 -25 10 -16 0 -25 6 -25 15 0 8 -7 15 -15 15 -8 0 -15 -9 -15 -20z"/>
<path d="M173 3990 c4 -17 0 -22 -24 -27 -41 -8 -37 -27 5 -20 28 4 35 2 39
-14 5 -18 -3 -23 -32 -19 -10 1 -12 -5 -7 -22 3 -13 6 -44 6 -70 0 -68 18 -60
22 10 3 50 6 57 26 60 24 4 29 -7 10 -26 -18 -18 -3 -25 21 -10 22 13 29 38
11 38 -5 0 -10 8 -9 18 0 10 3 12 6 5 2 -7 18 -13 34 -13 29 0 29 0 29 -60 0
-45 4 -60 14 -60 10 0 15 17 18 63 5 71 -7 89 -52 81 -19 -4 -29 -1 -33 10 -8
19 -33 21 -40 4 -3 -8 -6 -6 -6 5 -1 9 4 17 9 17 6 0 10 5 10 10 0 6 -7 10
-15 10 -8 0 -15 7 -15 15 0 8 -7 15 -16 15 -12 0 -15 -6 -11 -20z"/>
<path d="M290 3550 c0 -13 -7 -20 -20 -20 -11 0 -20 -4 -20 -10 0 -5 6 -10 14
-10 8 0 17 -6 20 -12 3 -10 9 -8 19 5 8 9 26 17 41 17 14 0 26 5 26 10 0 6
-11 10 -25 10 -16 0 -25 6 -25 15 0 8 -7 15 -15 15 -8 0 -15 -9 -15 -20z"/>
<path d="M173 3540 c4 -17 0 -22 -24 -27 -41 -8 -37 -27 5 -20 28 4 35 2 39
-14 5 -18 -3 -23 -32 -19 -10 1 -12 -5 -7 -22 3 -13 6 -44 6 -70 0 -68 18 -60
22 10 3 50 6 57 26 60 24 4 29 -7 10 -26 -18 -18 -3 -25 21 -10 22 13 29 38
11 38 -5 0 -10 8 -9 18 0 10 3 12 6 5 2 -7 18 -13 34 -13 29 0 29 0 29 -60 0
-45 4 -60 14 -60 10 0 15 17 18 63 5 71 -7 89 -52 81 -19 -4 -29 -1 -33 10 -8
19 -33 21 -40 4 -3 -8 -6 -6 -6 5 -1 9 4 17 9 17 6 0 10 5 10 10 0 6 -7 10
-15 10 -8 0 -15 7 -15 15 0 8 -7 15 -16 15 -12 0 -15 -6 -11 -20z"/>
<path d="M247 3398 c-15 -17 -26 -33 -23 -35 9 -9 76 38 76 53 0 22 -22 14
-53 -18z"/>
<path d="M290 3100 c0 -13 -7 -20 -20 -20 -11 0 -20 -4 -20 -10 0 -5 6 -10 14
-10 8 0 17 -6 20 -12 3 -10 9 -8 19 5 8 9 26 17 41 17 14 0 26 5 26 10 0 6
-11 10 -25 10 -16 0 -25 6 -25 15 0 8 -7 15 -15 15 -8 0 -15 -9 -15 -20z"/>
<path d="M173 3090 c4 -17 0 -22 -24 -27 -41 -8 -37 -27 5 -20 28 4 35 2 39
-14 5 -18 -3 -23 -32 -19 -10 1 -12 -5 -7 -22 3 -13 6 -44 6 -70 0 -68 18 -60
22 10 3 50 6 57 26 60 12 2 22 -1 22 -7 0 -6 -4 -11 -10 -11 -18 0 -11 -30 8
-31 10 0 12 -3 5 -6 -24 -9 -13 -19 25 -20 37 -2 38 -1 39 33 1 37 -12 44 -33
17 -12 -16 -12 -16 -7 5 3 13 1 22 -6 22 -6 0 -11 8 -10 18 0 10 3 12 6 5 2
-7 18 -13 34 -13 29 0 29 0 29 -60 0 -45 4 -60 14 -60 10 0 15 17 18 63 5 71
-7 89 -52 81 -19 -4 -29 -1 -33 10 -8 19 -33 21 -40 4 -3 -8 -6 -6 -6 5 -1 9
4 17 9 17 6 0 10 5 10 10 0 6 -7 10 -15 10 -8 0 -15 7 -15 15 0 8 -7 15 -16
15 -12 0 -15 -6 -11 -20z"/>
<path d="M290 2650 c0 -13 -7 -20 -20 -20 -11 0 -20 -4 -20 -10 0 -5 6 -10 14
-10 8 0 17 -6 20 -12 3 -10 9 -8 19 5 8 9 26 17 41 17 14 0 26 5 26 10 0 6
-11 10 -25 10 -16 0 -25 6 -25 15 0 8 -7 15 -15 15 -8 0 -15 -9 -15 -20z"/>
<path d="M173 2640 c4 -17 0 -22 -24 -27 -41 -8 -37 -27 5 -20 28 4 35 2 39
-14 5 -18 -3 -23 -29 -20 -8 1 -10 -19 -7 -66 3 -38 6 -68 7 -68 0 0 40 1 88
3 l86 3 4 62 c5 71 -8 89 -52 81 -19 -4 -29 -1 -33 10 -8 19 -33 21 -40 4 -3
-8 -6 -6 -6 5 -1 9 4 17 9 17 6 0 10 5 10 10 0 6 -7 10 -15 10 -8 0 -15 7 -15
15 0 8 -7 15 -16 15 -12 0 -15 -6 -11 -20z m108 -90 c28 0 29 -2 29 -47 0 -34
-3 -44 -10 -33 -5 8 -7 25 -3 37 6 28 -14 31 -33 6 -12 -16 -12 -16 -7 5 3 13
1 22 -6 22 -6 0 -11 8 -10 18 0 10 3 12 6 5 2 -7 18 -13 34 -13z m-51 -20 c0
-5 -4 -10 -10 -10 -18 0 -11 -30 8 -31 10 0 12 -3 5 -6 -20 -7 -15 -25 5 -19
9 3 24 1 32 -4 11 -7 0 -10 -37 -10 l-53 0 0 38 c0 21 3 42 7 45 10 11 43 8
43 -3z"/>
<path d="M290 2200 c0 -13 -7 -20 -20 -20 -11 0 -20 -4 -20 -10 0 -5 6 -10 14
-10 8 0 17 -6 20 -12 3 -10 9 -8 19 5 8 9 26 17 41 17 14 0 26 5 26 10 0 6
-11 10 -25 10 -16 0 -25 6 -25 15 0 8 -7 15 -15 15 -8 0 -15 -9 -15 -20z"/>
<path d="M173 2190 c4 -17 0 -22 -24 -27 -41 -8 -37 -27 5 -20 28 4 35 2 39
-14 5 -18 -3 -23 -29 -20 -8 1 -10 -19 -7 -66 3 -38 6 -68 7 -68 0 0 40 1 88
3 l86 3 4 62 c5 71 -8 89 -52 81 -19 -4 -29 -1 -33 10 -8 19 -33 21 -40 4 -3
-8 -6 -6 -6 5 -1 9 4 17 9 17 6 0 10 5 10 10 0 6 -7 10 -15 10 -8 0 -15 7 -15
15 0 8 -7 15 -16 15 -12 0 -15 -6 -11 -20z m108 -90 c28 0 29 -2 29 -47 0 -34
-3 -44 -10 -33 -5 8 -7 25 -3 37 6 28 -14 31 -33 6 -12 -16 -12 -16 -7 5 3 13
1 22 -6 22 -6 0 -11 8 -10 18 0 10 3 12 6 5 2 -7 18 -13 34 -13z m-51 -20 c0
-5 -4 -10 -10 -10 -18 0 -11 -30 8 -31 10 0 12 -3 5 -6 -20 -7 -15 -25 5 -19
9 3 24 1 32 -4 11 -7 0 -10 -37 -10 l-53 0 0 38 c0 21 3 42 7 45 10 11 43 8
43 -3z"/>
<path d="M122 1930 c-16 -26 -15 -50 2 -50 15 0 26 21 26 51 0 25 -12 24 -28
-1z"/>
<path d="M290 1750 c0 -13 -7 -20 -20 -20 -11 0 -20 -4 -20 -10 0 -5 6 -10 14
-10 8 0 17 -6 20 -12 3 -10 9 -8 19 5 8 9 26 17 41 17 14 0 26 5 26 10 0 6
-11 10 -25 10 -16 0 -25 6 -25 15 0 8 -7 15 -15 15 -8 0 -15 -9 -15 -20z"/>
<path d="M173 1740 c4 -17 0 -22 -24 -27 -41 -8 -37 -27 5 -20 28 4 35 2 39
-14 5 -18 -3 -23 -29 -20 -8 1 -10 -19 -7 -66 3 -38 6 -68 7 -68 0 0 40 1 88
3 l86 3 4 62 c5 71 -8 89 -52 81 -19 -4 -29 -1 -33 10 -8 19 -33 21 -40 4 -3
-8 -6 -6 -6 5 -1 9 4 17 9 17 6 0 10 5 10 10 0 6 -7 10 -15 10 -8 0 -15 7 -15
15 0 8 -7 15 -16 15 -12 0 -15 -6 -11 -20z m108 -90 c28 0 29 -2 29 -47 0 -34
-3 -44 -10 -33 -5 8 -7 25 -3 37 6 28 -14 31 -33 6 -12 -16 -12 -16 -7 5 3 13
1 22 -6 22 -6 0 -11 8 -10 18 0 10 3 12 6 5 2 -7 18 -13 34 -13z m-51 -20 c0
-5 -4 -10 -10 -10 -18 0 -11 -30 8 -31 10 0 12 -3 5 -6 -20 -7 -15 -25 5 -19
9 3 24 1 32 -4 11 -7 0 -10 -37 -10 l-53 0 0 38 c0 21 3 42 7 45 10 11 43 8
43 -3z"/>
<path d="M170 1500 c0 -22 30 -69 47 -74 73 -20 135 -13 141 16 4 23 -34 33
-54 14 -8 -9 -22 -16 -30 -16 -26 0 -72 29 -79 50 -7 21 -25 28 -25 10z"/>
<path d="M122 1480 c-16 -26 -15 -50 2 -50 15 0 26 21 26 51 0 25 -12 24 -28
-1z"/>
<path d="M290 1300 c0 -13 -7 -20 -20 -20 -11 0 -20 -4 -20 -10 0 -5 6 -10 14
-10 8 0 17 -6 20 -12 3 -10 9 -8 19 5 8 9 26 17 41 17 14 0 26 5 26 10 0 6
-11 10 -25 10 -16 0 -25 6 -25 15 0 8 -7 15 -15 15 -8 0 -15 -9 -15 -20z"/>
<path d="M173 1290 c4 -17 0 -22 -24 -27 -41 -8 -37 -27 5 -20 28 4 35 2 39
-14 5 -18 -3 -23 -29 -20 -8 1 -10 -19 -7 -66 3 -38 6 -68 7 -68 0 0 40 1 88
3 l86 3 4 62 c5 71 -8 89 -52 81 -19 -4 -29 -1 -33 10 -8 19 -33 21 -40 4 -3
-8 -6 -6 -6 5 -1 9 4 17 9 17 6 0 10 5 10 10 0 6 -7 10 -15 10 -8 0 -15 7 -15
15 0 8 -7 15 -16 15 -12 0 -15 -6 -11 -20z m108 -90 c28 0 29 -2 29 -47 0 -34
-3 -44 -10 -33 -5 8 -7 25 -3 37 6 28 -14 31 -33 6 -12 -16 -12 -16 -7 5 3 13
1 22 -6 22 -6 0 -11 8 -10 18 0 10 3 12 6 5 2 -7 18 -13 34 -13z m-51 -20 c0
-5 -4 -10 -10 -10 -18 0 -11 -30 8 -31 10 0 12 -3 5 -6 -20 -7 -15 -25 5 -19
9 3 24 1 32 -4 11 -7 0 -10 -37 -10 l-53 0 0 38 c0 21 3 42 7 45 10 11 43 8
43 -3z"/>
<path d="M220 1063 c1 -14 27 -43 39 -43 17 0 13 37 -5 44 -21 8 -34 8 -34 -1z"/>
<path d="M170 1050 c0 -22 30 -69 47 -74 73 -20 135 -13 141 16 4 23 -34 33
-54 14 -8 -9 -22 -16 -30 -16 -26 0 -72 29 -79 50 -7 21 -25 28 -25 10z"/>
<path d="M122 1030 c-16 -26 -15 -50 2 -50 15 0 26 21 26 51 0 25 -12 24 -28
-1z"/>
<path d="M290 850 c0 -13 -7 -20 -20 -20 -11 0 -20 -4 -20 -10 0 -5 6 -10 14
-10 8 0 17 -6 20 -12 3 -10 9 -8 19 5 8 9 26 17 41 17 14 0 26 5 26 10 0 6
-11 10 -25 10 -16 0 -25 6 -25 15 0 8 -7 15 -15 15 -8 0 -15 -9 -15 -20z"/>
<path d="M173 840 c4 -17 0 -22 -24 -27 -41 -8 -37 -27 5 -20 28 4 35 2 39
-14 5 -18 -3 -23 -29 -20 -8 1 -10 -19 -7 -66 3 -38 6 -68 7 -68 0 0 40 1 88
3 l86 3 4 62 c5 71 -8 89 -52 81 -19 -4 -29 -1 -33 10 -8 19 -33 21 -40 4 -3
-8 -6 -6 -6 5 -1 9 4 17 9 17 6 0 10 5 10 10 0 6 -7 10 -15 10 -8 0 -15 7 -15
15 0 8 -7 15 -16 15 -12 0 -15 -6 -11 -20z m108 -90 c28 0 29 -2 29 -47 0 -34
-3 -44 -10 -33 -5 8 -7 25 -3 37 6 28 -14 31 -33 6 -12 -16 -12 -16 -7 5 3 13
1 22 -6 22 -6 0 -11 8 -10 18 0 10 3 12 6 5 2 -7 18 -13 34 -13z m-51 -20 c0
-5 -4 -10 -10 -10 -18 0 -11 -30 8 -31 10 0 12 -3 5 -6 -20 -7 -15 -25 5 -19
9 3 24 1 32 -4 11 -7 0 -10 -37 -10 l-53 0 0 38 c0 21 3 42 7 45 10 11 43 8
43 -3z"/>
<path d="M220 613 c1 -14 27 -43 39 -43 17 0 13 37 -5 44 -21 8 -34 8 -34 -1z"/>
<path d="M330 612 c0 -12 44 -52 58 -52 20 0 13 28 -10 44 -24 17 -48 21 -48
8z"/>
<path d="M170 600 c0 -22 30 -69 47 -74 73 -20 135 -13 141 16 4 23 -34 33
-54 14 -8 -9 -22 -16 -30 -16 -26 0 -72 29 -79 50 -7 21 -25 28 -25 10z"/>
<path d="M122 580 c-16 -26 -15 -50 2 -50 15 0 26 21 26 51 0 25 -12 24 -28
-1z"/>
</g>
</svg>
