<?xml version="1.0" standalone="no"?>
<!DOCTYPE svg PUBLIC "-//W3C//DTD SVG 20010904//EN"
 "http://www.w3.org/TR/2001/REC-SVG-20010904/DTD/svg10.dtd">
<svg version="1.0" xmlns="http://www.w3.org/2000/svg"
 width="50.000000pt" height="725.000000pt" viewBox="0 0 50.000000 725.000000"
 preserveAspectRatio="xMidYMid meet">
<metadata>
Created by potrace 1.16, written by Peter Selinger 2001-2019
</metadata>
<g transform="translate(0.000000,725.000000) scale(0.100000,-0.100000)"
fill="#000000" stroke="none">
<path d="M154 7144 c3 -9 9 -27 12 -40 10 -38 24 -28 24 16 0 34 -3 40 -21 40
-15 0 -19 -4 -15 -16z"/>
<path d="M155 6690 c5 -17 2 -20 -25 -20 -21 0 -30 -4 -27 -12 2 -7 18 -12 36
-12 17 1 31 -2 31 -7 0 -5 5 -9 10 -9 6 0 10 7 10 15 0 8 7 15 15 15 8 0 15 5
15 10 0 6 -7 10 -15 10 -8 0 -15 7 -15 15 0 8 -9 15 -21 15 -16 0 -19 -4 -14
-20z"/>
<path d="M155 6240 c5 -17 2 -20 -25 -20 -21 0 -30 -4 -27 -12 2 -7 18 -12 36
-12 17 1 31 -2 31 -7 0 -5 5 -9 10 -9 6 0 10 7 10 15 0 8 7 15 15 15 8 0 15 5
15 10 0 6 -7 10 -15 10 -8 0 -15 7 -15 15 0 8 -9 15 -21 15 -16 0 -19 -4 -14
-20z"/>
<path d="M273 6233 c-24 -2 -43 -8 -43 -14 0 -10 79 -13 104 -3 22 8 20 24 -1
22 -10 -1 -37 -3 -60 -5z"/>
<path d="M276 5805 c-4 -16 -13 -25 -26 -25 -11 0 -20 -4 -20 -10 0 -5 7 -10
15 -10 8 0 15 -7 15 -15 0 -19 16 -20 23 -1 3 7 19 16 36 19 17 4 31 12 31 18
0 6 -10 9 -23 7 -18 -4 -23 0 -23 15 1 30 -21 32 -28 2z"/>
<path d="M155 5790 c5 -17 2 -20 -25 -20 -21 0 -30 -4 -27 -12 2 -7 18 -12 36
-12 17 1 31 -2 31 -7 0 -5 5 -9 10 -9 6 0 10 7 10 15 0 8 7 15 15 15 8 0 15 5
15 10 0 6 -7 10 -15 10 -8 0 -15 7 -15 15 0 8 -9 15 -21 15 -16 0 -19 -4 -14
-20z"/>
<path d="M276 5355 c-4 -16 -13 -25 -26 -25 -11 0 -20 -4 -20 -10 0 -5 7 -10
15 -10 8 0 15 -7 15 -15 0 -19 16 -20 23 -1 3 7 19 16 36 19 17 4 31 12 31 18
0 6 -10 9 -23 7 -18 -4 -23 0 -23 15 1 30 -21 32 -28 2z"/>
<path d="M155 5340 c5 -17 2 -20 -25 -20 -21 0 -30 -4 -27 -12 2 -7 18 -12 36
-12 17 1 31 -2 31 -7 0 -5 5 -9 10 -9 6 0 10 7 10 15 0 8 7 15 15 15 8 0 15 5
15 10 0 6 -7 10 -15 10 -8 0 -15 7 -15 15 0 8 -9 15 -21 15 -16 0 -19 -4 -14
-20z"/>
<path d="M133 5263 c-18 -7 -16 -23 2 -23 9 0 12 -6 9 -15 -4 -8 -2 -15 3 -15
13 0 43 34 43 48 0 12 -34 15 -57 5z"/>
<path d="M276 4905 c-4 -16 -13 -25 -26 -25 -11 0 -20 -4 -20 -10 0 -5 7 -10
15 -10 8 0 15 -7 15 -15 0 -19 16 -20 23 -1 3 7 19 16 36 19 17 4 31 12 31 18
0 6 -10 9 -23 7 -18 -4 -23 0 -23 15 1 30 -21 32 -28 2z"/>
<path d="M155 4890 c5 -17 2 -20 -25 -20 -21 0 -30 -4 -27 -12 2 -7 18 -12 36
-12 17 1 31 -2 31 -7 0 -5 5 -9 10 -9 6 0 10 7 10 15 0 8 7 15 15 15 8 0 15 5
15 10 0 6 -7 10 -15 10 -8 0 -15 7 -15 15 0 8 -9 15 -21 15 -16 0 -19 -4 -14
-20z"/>
<path d="M133 4813 c-17 -6 -17 -23 0 -23 14 0 17 -51 3 -61 -12 -9 2 -29 21
-29 12 0 14 7 10 34 -4 24 -1 39 9 47 33 27 1 50 -43 32z"/>
<path d="M276 4455 c-4 -16 -13 -25 -26 -25 -11 0 -20 -4 -20 -10 0 -5 7 -10
15 -10 8 0 15 -7 15 -15 0 -19 16 -20 23 -1 3 7 19 16 36 19 17 4 31 12 31 18
0 6 -10 9 -23 7 -18 -4 -23 0 -23 15 1 30 -21 32 -28 2z"/>
<path d="M155 4440 c5 -17 2 -20 -25 -20 -21 0 -30 -4 -27 -12 2 -7 18 -12 36
-12 17 1 31 -2 31 -7 0 -5 5 -9 10 -9 6 0 10 7 10 15 0 8 7 15 15 15 8 0 15 5
15 10 0 6 -7 10 -15 10 -8 0 -15 7 -15 15 0 8 -9 15 -21 15 -16 0 -19 -4 -14
-20z"/>
<path d="M131 4361 c-8 -5 -19 -7 -25 -5 -8 3 -11 -34 -12 -116 -1 -83 3 -119
10 -117 7 2 12 44 14 110 2 78 6 107 15 107 14 0 17 -51 3 -61 -12 -9 2 -29
21 -29 12 0 14 7 10 34 -4 24 -1 39 9 47 34 28 -6 55 -45 30z"/>
<path d="M276 4005 c-4 -16 -13 -25 -26 -25 -11 0 -20 -4 -20 -10 0 -5 7 -10
15 -10 8 0 15 -7 15 -15 0 -8 -4 -15 -10 -15 -5 0 -10 -6 -10 -13 0 -8 -14
-35 -32 -62 l-32 -48 -8 28 c-5 20 -3 34 7 45 26 29 19 43 -17 36 -18 -4 -40
-7 -48 -7 -12 -1 -15 -21 -16 -120 -1 -83 3 -118 10 -116 7 2 12 44 14 110 2
78 6 107 15 107 15 0 17 -52 2 -62 -14 -10 5 -27 34 -30 19 -2 33 8 61 44 20
26 40 62 45 80 8 24 18 34 43 40 36 10 45 33 9 26 -18 -4 -23 0 -23 15 1 30
-21 32 -28 2z"/>
<path d="M155 3990 c5 -17 2 -20 -25 -20 -21 0 -30 -4 -27 -12 2 -7 18 -12 36
-12 17 1 31 -2 31 -7 0 -5 5 -9 10 -9 6 0 10 7 10 15 0 8 7 15 15 15 8 0 15 5
15 10 0 6 -7 10 -15 10 -8 0 -15 7 -15 15 0 8 -9 15 -21 15 -16 0 -19 -4 -14
-20z"/>
<path d="M276 3555 c-4 -16 -13 -25 -26 -25 -11 0 -20 -4 -20 -10 0 -5 7 -10
15 -10 8 0 15 -7 15 -15 0 -8 -4 -15 -10 -15 -5 0 -10 -6 -10 -13 0 -8 -14
-35 -32 -62 l-32 -48 -8 28 c-5 20 -3 34 7 45 26 29 19 43 -17 36 -18 -4 -40
-7 -48 -7 -12 -1 -15 -21 -16 -120 -1 -83 3 -118 10 -116 7 2 12 44 14 110 2
78 6 107 15 107 15 0 17 -52 2 -62 -14 -10 5 -27 35 -30 18 -2 32 8 59 44 l36
48 40 -40 c33 -32 48 -40 78 -40 49 0 47 13 -5 34 -24 9 -58 29 -77 44 -29 25
-32 32 -23 49 6 11 25 23 42 26 16 4 30 12 30 18 0 6 -10 9 -23 7 -18 -4 -23
0 -23 15 1 30 -21 32 -28 2z"/>
<path d="M155 3540 c5 -17 2 -20 -25 -20 -21 0 -30 -4 -27 -12 2 -7 18 -12 36
-12 17 1 31 -2 31 -7 0 -5 5 -9 10 -9 6 0 10 7 10 15 0 8 7 15 15 15 8 0 15 5
15 10 0 6 -7 10 -15 10 -8 0 -15 7 -15 15 0 8 -9 15 -21 15 -16 0 -19 -4 -14
-20z"/>
<path d="M276 3105 c-4 -16 -13 -25 -26 -25 -11 0 -20 -4 -20 -10 0 -5 7 -10
15 -10 8 0 15 -7 15 -15 0 -8 -4 -15 -10 -15 -5 0 -10 -6 -10 -13 0 -8 -14
-35 -32 -62 l-32 -48 -8 28 c-5 20 -3 34 7 45 26 29 19 43 -17 36 -18 -4 -40
-7 -48 -7 -12 -1 -15 -21 -16 -120 -1 -83 3 -118 10 -116 7 2 12 44 14 110 2
78 6 107 15 107 15 0 17 -52 2 -62 -14 -10 5 -27 35 -30 18 -2 32 8 59 44 l36
48 40 -40 c33 -32 48 -40 78 -40 49 0 47 13 -5 34 -24 9 -58 29 -77 44 -29 25
-32 32 -23 49 6 11 25 23 42 26 16 4 30 12 30 18 0 6 -10 9 -23 7 -18 -4 -23
0 -23 15 1 30 -21 32 -28 2z"/>
<path d="M155 3090 c5 -17 2 -20 -25 -20 -21 0 -30 -4 -27 -12 2 -7 18 -12 36
-12 17 1 31 -2 31 -7 0 -5 5 -9 10 -9 6 0 10 7 10 15 0 8 7 15 15 15 8 0 15 5
15 10 0 6 -7 10 -15 10 -8 0 -15 7 -15 15 0 8 -9 15 -21 15 -16 0 -19 -4 -14
-20z"/>
<path d="M250 2950 c0 -5 9 -10 20 -10 11 0 20 5 20 10 0 6 -9 10 -20 10 -11
0 -20 -4 -20 -10z"/>
<path d="M276 2655 c-4 -16 -13 -25 -26 -25 -11 0 -20 -4 -20 -10 0 -5 7 -10
15 -10 8 0 15 -7 15 -15 0 -8 -4 -15 -10 -15 -5 0 -10 -6 -10 -13 0 -8 -14
-35 -32 -62 l-32 -48 -8 28 c-5 20 -3 34 7 45 26 29 19 43 -17 36 -18 -4 -40
-7 -48 -7 -12 -1 -15 -21 -16 -120 -1 -83 3 -118 10 -116 7 2 12 44 14 110 2
78 6 107 15 107 15 0 17 -52 2 -62 -14 -10 5 -27 35 -30 18 -2 32 8 59 44 l36
48 40 -40 c33 -32 48 -40 78 -40 49 0 47 13 -5 34 -24 9 -58 29 -77 44 -29 25
-32 32 -23 49 6 11 25 23 42 26 16 4 30 12 30 18 0 6 -10 9 -23 7 -18 -4 -23
0 -23 15 1 30 -21 32 -28 2z"/>
<path d="M155 2640 c5 -17 2 -20 -25 -20 -21 0 -30 -4 -27 -12 2 -7 18 -12 36
-12 17 1 31 -2 31 -7 0 -5 5 -9 10 -9 6 0 10 7 10 15 0 8 7 15 15 15 8 0 15 5
15 10 0 6 -7 10 -15 10 -8 0 -15 7 -15 15 0 8 -9 15 -21 15 -16 0 -19 -4 -14
-20z"/>
<path d="M250 2500 c0 -5 8 -10 18 -11 9 0 2 -5 -15 -10 -41 -12 -43 -31 -3
-22 23 4 30 2 30 -11 0 -22 13 -20 28 5 12 18 11 24 -7 40 -22 20 -51 25 -51
9z"/>
<path d="M276 2205 c-4 -16 -13 -25 -26 -25 -11 0 -20 -4 -20 -10 0 -5 7 -10
15 -10 8 0 15 -7 15 -15 0 -8 -4 -15 -10 -15 -5 0 -10 -6 -10 -13 0 -8 -14
-35 -32 -62 l-32 -48 -8 28 c-5 20 -3 34 7 45 26 29 19 43 -17 36 -18 -4 -40
-7 -48 -7 -12 -1 -15 -21 -16 -120 -1 -83 3 -118 10 -116 7 2 12 44 14 110 2
78 6 107 15 107 15 0 17 -52 2 -62 -14 -10 5 -27 35 -30 18 -2 32 8 59 44 l36
48 40 -40 c33 -32 48 -40 78 -40 49 0 47 13 -5 34 -24 9 -58 29 -77 44 -29 25
-32 32 -23 49 6 11 25 23 42 26 16 4 30 12 30 18 0 6 -10 9 -23 7 -18 -4 -23
0 -23 15 1 30 -21 32 -28 2z"/>
<path d="M155 2190 c5 -17 2 -20 -25 -20 -21 0 -30 -4 -27 -12 2 -7 18 -12 36
-12 17 1 31 -2 31 -7 0 -5 5 -9 10 -9 6 0 10 7 10 15 0 8 7 15 15 15 8 0 15 5
15 10 0 6 -7 10 -15 10 -8 0 -15 7 -15 15 0 8 -9 15 -21 15 -16 0 -19 -4 -14
-20z"/>
<path d="M250 2050 c0 -5 8 -10 18 -11 9 0 2 -5 -15 -10 -42 -12 -43 -31 -1
-22 22 4 29 3 24 -5 -4 -7 -16 -12 -27 -12 -10 0 -19 -4 -19 -10 0 -5 16 -10
35 -10 29 0 37 5 46 26 8 22 6 30 -10 45 -22 20 -51 25 -51 9z"/>
<path d="M276 1755 c-4 -16 -13 -25 -26 -25 -11 0 -20 -4 -20 -10 0 -5 7 -10
15 -10 8 0 15 -7 15 -15 0 -8 -4 -15 -10 -15 -5 0 -10 -6 -10 -13 0 -8 -14
-35 -32 -62 l-32 -48 -8 28 c-5 20 -3 34 7 45 26 29 19 43 -17 36 -18 -4 -40
-7 -48 -7 -12 -1 -15 -21 -16 -120 -1 -83 3 -118 10 -116 7 2 12 44 14 110 2
78 6 107 15 107 15 0 17 -52 2 -62 -14 -10 5 -27 35 -30 18 -2 32 8 59 44 l36
48 40 -40 c33 -32 48 -40 78 -40 49 0 47 13 -5 34 -24 9 -58 29 -77 44 -29 25
-32 32 -23 49 6 11 25 23 42 26 16 4 30 12 30 18 0 6 -10 9 -23 7 -18 -4 -23
0 -23 15 1 30 -21 32 -28 2z"/>
<path d="M155 1740 c5 -17 2 -20 -25 -20 -21 0 -30 -4 -27 -12 2 -7 18 -12 36
-12 17 1 31 -2 31 -7 0 -5 5 -9 10 -9 6 0 10 7 10 15 0 8 7 15 15 15 8 0 15 5
15 10 0 6 -7 10 -15 10 -8 0 -15 7 -15 15 0 8 -9 15 -21 15 -16 0 -19 -4 -14
-20z"/>
<path d="M250 1600 c0 -5 8 -10 18 -11 9 0 2 -5 -15 -10 -42 -12 -43 -31 -1
-22 22 4 29 3 24 -5 -4 -7 -16 -12 -27 -12 -10 0 -19 -4 -19 -10 0 -5 16 -10
35 -10 29 0 37 5 46 26 8 22 6 30 -10 45 -22 20 -51 25 -51 9z"/>
<path d="M283 1513 c-43 -6 -42 -23 1 -23 47 0 96 11 96 21 0 9 -35 9 -97 2z"/>
<path d="M170 1490 c0 -5 16 -10 35 -10 19 0 35 5 35 10 0 6 -16 10 -35 10
-19 0 -35 -4 -35 -10z"/>
<path d="M276 1305 c-4 -16 -13 -25 -26 -25 -11 0 -20 -4 -20 -10 0 -5 7 -10
15 -10 8 0 15 -7 15 -15 0 -8 -4 -15 -10 -15 -5 0 -10 -6 -10 -13 0 -8 -14
-35 -32 -62 l-32 -48 -8 28 c-5 20 -3 34 7 45 26 29 19 43 -17 36 -18 -4 -40
-7 -48 -7 -12 -1 -15 -21 -16 -120 -1 -83 3 -118 10 -116 7 2 12 44 14 110 2
78 6 107 15 107 15 0 17 -52 2 -62 -14 -10 5 -27 35 -30 18 -2 32 8 59 44 l36
48 40 -40 c33 -32 48 -40 78 -40 49 0 47 13 -5 34 -24 9 -58 29 -77 44 -29 25
-32 32 -23 49 6 11 25 23 42 26 16 4 30 12 30 18 0 6 -10 9 -23 7 -18 -4 -23
0 -23 15 1 30 -21 32 -28 2z"/>
<path d="M155 1290 c5 -17 2 -20 -25 -20 -21 0 -30 -4 -27 -12 2 -7 18 -12 36
-12 17 1 31 -2 31 -7 0 -5 5 -9 10 -9 6 0 10 7 10 15 0 8 7 15 15 15 8 0 15 5
15 10 0 6 -7 10 -15 10 -8 0 -15 7 -15 15 0 8 -9 15 -21 15 -16 0 -19 -4 -14
-20z"/>
<path d="M250 1150 c0 -5 8 -10 18 -11 9 0 2 -5 -15 -10 -42 -12 -43 -31 -1
-22 22 4 29 3 24 -5 -4 -7 -16 -12 -27 -12 -10 0 -19 -4 -19 -10 0 -5 16 -10
35 -10 29 0 37 5 46 26 8 22 6 30 -10 45 -22 20 -51 25 -51 9z"/>
<path d="M243 1057 c-75 -11 -99 -27 -40 -27 l32 -1 -22 -18 c-28 -23 -32 -57
-5 -46 9 4 32 9 50 12 35 6 44 23 12 23 -18 0 -19 2 -8 20 7 11 22 20 34 20
36 0 84 12 84 21 0 11 -39 9 -137 -4z"/>
<path d="M300 1000 c0 -5 5 -10 10 -10 6 0 10 5 10 10 0 6 -4 10 -10 10 -5 0
-10 -4 -10 -10z"/>
<path d="M276 855 c-4 -16 -13 -25 -26 -25 -11 0 -20 -4 -20 -10 0 -5 7 -10
15 -10 8 0 15 -7 15 -15 0 -8 -4 -15 -10 -15 -5 0 -10 -6 -10 -13 0 -8 -14
-35 -32 -62 l-32 -48 -8 28 c-5 20 -3 34 7 45 26 29 19 43 -17 36 -18 -4 -40
-7 -48 -7 -12 -1 -15 -21 -16 -120 -1 -83 3 -118 10 -116 7 2 12 44 14 110 2
78 6 107 15 107 15 0 17 -52 2 -62 -14 -10 5 -27 35 -30 18 -2 32 8 59 44 l36
48 40 -40 c33 -32 48 -40 78 -40 49 0 47 13 -5 34 -24 9 -58 29 -77 44 -29 25
-32 32 -23 49 6 11 25 23 42 26 16 4 30 12 30 18 0 6 -10 9 -23 7 -18 -4 -23
0 -23 15 1 30 -21 32 -28 2z"/>
<path d="M155 840 c5 -17 2 -20 -25 -20 -21 0 -30 -4 -27 -12 2 -7 18 -12 36
-12 17 1 31 -2 31 -7 0 -5 5 -9 10 -9 6 0 10 7 10 15 0 8 7 15 15 15 8 0 15 5
15 10 0 6 -7 10 -15 10 -8 0 -15 7 -15 15 0 8 -9 15 -21 15 -16 0 -19 -4 -14
-20z"/>
<path d="M250 700 c0 -5 8 -10 18 -11 9 0 2 -5 -15 -10 -42 -12 -43 -31 -1
-22 22 4 29 3 24 -5 -4 -7 -16 -12 -27 -12 -10 0 -19 -4 -19 -10 0 -5 16 -10
35 -10 29 0 37 5 46 26 8 22 6 30 -10 45 -22 20 -51 25 -51 9z"/>
<path d="M243 607 c-75 -11 -99 -27 -40 -27 l32 -1 -22 -18 c-28 -23 -32 -57
-5 -46 9 4 32 9 50 12 35 6 44 23 12 23 -18 0 -19 2 -8 20 7 11 22 20 34 20
36 0 84 12 84 21 0 11 -39 9 -137 -4z"/>
<path d="M300 565 c0 -14 34 -55 45 -55 15 0 2 51 -14 60 -26 13 -31 13 -31
-5z"/>
</g>
</svg>
