<?xml version="1.0" standalone="no"?>
<!DOCTYPE svg PUBLIC "-//W3C//DTD SVG 20010904//EN"
 "http://www.w3.org/TR/2001/REC-SVG-20010904/DTD/svg10.dtd">
<svg version="1.0" xmlns="http://www.w3.org/2000/svg"
 width="50.000000pt" height="725.000000pt" viewBox="0 0 50.000000 725.000000"
 preserveAspectRatio="xMidYMid meet">
<metadata>
Created by potrace 1.16, written by Peter Selinger 2001-2019
</metadata>
<g transform="translate(0.000000,725.000000) scale(0.100000,-0.100000)"
fill="#000000" stroke="none">
<path d="M170 7158 c0 -2 6 -23 14 -47 14 -47 45 -75 33 -30 -4 13 -7 36 -7
52 0 20 -5 27 -20 27 -11 0 -20 -1 -20 -2z"/>
<path d="M176 6685 c5 -22 3 -25 -21 -25 -17 0 -25 -5 -22 -12 2 -7 15 -12 28
-12 13 1 28 -5 32 -12 12 -20 27 -17 27 6 0 11 5 20 10 20 6 0 10 5 10 10 0 6
-7 10 -15 10 -8 0 -15 9 -15 20 0 13 -7 20 -20 20 -17 0 -19 -5 -14 -25z"/>
<path d="M176 6235 c5 -22 3 -25 -21 -25 -17 0 -25 -5 -22 -12 2 -7 15 -12 28
-12 13 1 28 -5 32 -12 12 -20 27 -17 27 6 0 11 5 20 10 20 6 0 10 5 10 10 0 6
-7 10 -15 10 -8 0 -15 9 -15 20 0 13 -7 20 -20 20 -17 0 -19 -5 -14 -25z"/>
<path d="M288 6223 c-37 -6 -36 -23 1 -23 43 0 91 11 91 21 0 9 -41 10 -92 2z"/>
<path d="M300 5795 c0 -18 -5 -25 -20 -25 -11 0 -20 -4 -20 -10 0 -5 7 -10 16
-10 11 0 14 -6 9 -20 -9 -27 3 -25 31 5 13 14 32 25 44 25 11 0 20 5 20 10 0
6 -9 10 -20 10 -13 0 -20 7 -20 20 0 13 -7 20 -20 20 -15 0 -20 -7 -20 -25z"/>
<path d="M176 5785 c5 -22 3 -25 -21 -25 -17 0 -25 -5 -22 -12 2 -7 15 -12 28
-12 13 1 28 -5 32 -12 12 -20 27 -17 27 6 0 11 5 20 10 20 6 0 10 5 10 10 0 6
-7 10 -15 10 -8 0 -15 9 -15 20 0 13 -7 20 -20 20 -17 0 -19 -5 -14 -25z"/>
<path d="M300 5345 c0 -18 -5 -25 -20 -25 -11 0 -20 -4 -20 -10 0 -5 7 -10 16
-10 11 0 14 -6 9 -20 -9 -27 3 -25 31 5 13 14 32 25 44 25 11 0 20 5 20 10 0
6 -9 10 -20 10 -13 0 -20 7 -20 20 0 13 -7 20 -20 20 -15 0 -20 -7 -20 -25z"/>
<path d="M176 5335 c5 -22 3 -25 -21 -25 -17 0 -25 -5 -22 -12 2 -7 15 -12 28
-12 13 1 28 -5 32 -12 12 -20 27 -17 27 6 0 11 5 20 10 20 6 0 10 5 10 10 0 6
-7 10 -15 10 -8 0 -15 9 -15 20 0 13 -7 20 -20 20 -17 0 -19 -5 -14 -25z"/>
<path d="M234 5265 c3 -9 6 -19 6 -21 0 -2 7 -4 16 -4 22 0 13 34 -10 38 -14
3 -17 0 -12 -13z"/>
<path d="M300 4895 c0 -18 -5 -25 -20 -25 -11 0 -20 -4 -20 -10 0 -5 7 -10 16
-10 11 0 14 -6 9 -20 -9 -27 3 -25 31 5 13 14 32 25 44 25 11 0 20 5 20 10 0
6 -9 10 -20 10 -13 0 -20 7 -20 20 0 13 -7 20 -20 20 -15 0 -20 -7 -20 -25z"/>
<path d="M176 4885 c5 -22 3 -25 -21 -25 -17 0 -25 -5 -22 -12 2 -7 15 -12 28
-12 13 1 28 -5 32 -12 12 -20 27 -17 27 6 0 11 5 20 10 20 6 0 10 5 10 10 0 6
-7 10 -15 10 -8 0 -15 9 -15 20 0 13 -7 20 -20 20 -17 0 -19 -5 -14 -25z"/>
<path d="M234 4815 c3 -9 6 -19 6 -21 0 -2 7 -4 16 -4 22 0 13 34 -10 38 -14
3 -17 0 -12 -13z"/>
<path d="M133 4773 c-17 -35 -16 -43 2 -43 18 0 38 37 31 56 -8 21 -20 17 -33
-13z"/>
<path d="M300 4445 c0 -18 -5 -25 -20 -25 -11 0 -20 -4 -20 -10 0 -5 7 -10 16
-10 11 0 14 -6 9 -20 -9 -27 3 -25 31 5 13 14 32 25 44 25 11 0 20 5 20 10 0
6 -9 10 -20 10 -13 0 -20 7 -20 20 0 13 -7 20 -20 20 -15 0 -20 -7 -20 -25z"/>
<path d="M176 4435 c5 -22 3 -25 -21 -25 -17 0 -25 -5 -22 -12 2 -7 15 -12 28
-12 13 1 28 -5 32 -12 12 -20 27 -17 27 6 0 11 5 20 10 20 6 0 10 5 10 10 0 6
-7 10 -15 10 -8 0 -15 9 -15 20 0 13 -7 20 -20 20 -17 0 -19 -5 -14 -25z"/>
<path d="M235 4359 c7 -21 5 -22 -42 -17 -45 4 -50 3 -61 -21 -7 -14 -12 -29
-12 -33 0 -15 28 -8 41 11 11 16 31 21 97 27 74 6 82 5 76 -10 -5 -13 -1 -15
27 -10 43 9 45 10 29 29 -8 10 -30 15 -65 15 -38 0 -55 4 -59 15 -3 8 -13 15
-21 15 -12 0 -15 -6 -10 -21z"/>
<path d="M300 3995 c0 -18 -5 -25 -20 -25 -11 0 -20 -4 -20 -10 0 -5 7 -10 16
-10 11 0 14 -6 9 -20 -9 -27 3 -25 31 5 13 14 32 25 44 25 11 0 20 5 20 10 0
6 -9 10 -20 10 -13 0 -20 7 -20 20 0 13 -7 20 -20 20 -15 0 -20 -7 -20 -25z"/>
<path d="M176 3985 c5 -22 3 -25 -21 -25 -17 0 -25 -5 -22 -12 2 -7 15 -12 28
-12 13 1 28 -5 32 -12 12 -20 27 -17 27 6 0 11 5 20 10 20 6 0 10 5 10 10 0 6
-7 10 -15 10 -8 0 -15 9 -15 20 0 13 -7 20 -20 20 -17 0 -19 -5 -14 -25z"/>
<path d="M235 3909 c7 -21 5 -22 -42 -17 -45 4 -50 3 -61 -21 -7 -14 -12 -29
-12 -33 0 -15 28 -8 41 11 11 16 31 21 97 27 74 6 82 5 76 -10 -5 -13 -1 -15
27 -10 43 9 45 10 29 29 -8 10 -30 15 -65 15 -38 0 -55 4 -59 15 -3 8 -13 15
-21 15 -12 0 -15 -6 -10 -21z"/>
<path d="M178 3843 c-32 -8 -20 -26 13 -19 17 3 35 6 40 6 5 0 9 5 9 10 0 10
-30 12 -62 3z"/>
<path d="M300 3545 c0 -18 -5 -25 -20 -25 -11 0 -20 -4 -20 -10 0 -5 7 -10 16
-10 11 0 14 -6 9 -20 -9 -27 3 -25 31 5 13 14 32 25 44 25 11 0 20 5 20 10 0
6 -9 10 -20 10 -13 0 -20 7 -20 20 0 13 -7 20 -20 20 -15 0 -20 -7 -20 -25z"/>
<path d="M176 3535 c5 -22 3 -25 -21 -25 -17 0 -25 -5 -22 -12 2 -7 15 -12 28
-12 13 1 28 -5 32 -12 12 -20 27 -17 27 6 0 11 5 20 10 20 6 0 10 5 10 10 0 6
-7 10 -15 10 -8 0 -15 9 -15 20 0 13 -7 20 -20 20 -17 0 -19 -5 -14 -25z"/>
<path d="M235 3459 c7 -21 5 -22 -42 -17 -45 4 -50 3 -61 -21 -7 -14 -12 -29
-12 -33 0 -15 28 -8 41 11 11 16 31 21 97 27 74 6 82 5 76 -10 -5 -13 -1 -15
27 -10 43 9 45 10 29 29 -8 10 -30 15 -65 15 -38 0 -55 4 -59 15 -3 8 -13 15
-21 15 -12 0 -15 -6 -10 -21z"/>
<path d="M178 3393 c-32 -8 -20 -26 13 -19 17 3 35 6 40 6 5 0 9 5 9 10 0 10
-30 12 -62 3z"/>
<path d="M171 3349 c-46 -9 -58 -15 -48 -25 9 -9 137 16 137 27 0 11 -29 10
-89 -2z"/>
<path d="M300 3095 c0 -18 -5 -25 -20 -25 -11 0 -20 -4 -20 -10 0 -5 7 -10 16
-10 11 0 14 -6 9 -20 -9 -27 3 -25 31 5 13 14 32 25 44 25 11 0 20 5 20 10 0
6 -9 10 -20 10 -13 0 -20 7 -20 20 0 13 -7 20 -20 20 -15 0 -20 -7 -20 -25z"/>
<path d="M176 3085 c5 -22 3 -25 -21 -25 -17 0 -25 -5 -22 -12 2 -7 15 -12 28
-12 13 1 28 -5 32 -12 12 -20 27 -17 27 6 0 11 5 20 10 20 6 0 10 5 10 10 0 6
-7 10 -15 10 -8 0 -15 9 -15 20 0 13 -7 20 -20 20 -17 0 -19 -5 -14 -25z"/>
<path d="M235 3009 c7 -21 5 -22 -42 -17 -45 4 -50 3 -61 -21 -7 -14 -12 -29
-12 -33 0 -15 28 -8 41 11 11 16 31 21 97 27 74 6 82 5 76 -10 -5 -13 -1 -15
27 -10 43 9 45 10 29 29 -8 10 -30 15 -65 15 -38 0 -55 4 -59 15 -3 8 -13 15
-21 15 -12 0 -15 -6 -10 -21z"/>
<path d="M178 2943 c-32 -8 -20 -26 13 -19 17 3 35 6 40 6 5 0 9 5 9 10 0 10
-30 12 -62 3z"/>
<path d="M205 2905 c-5 -2 -27 -6 -47 -10 -41 -6 -51 -22 -18 -27 20 -3 19 -5
-6 -41 -15 -20 -24 -40 -21 -44 10 -10 67 48 73 74 4 16 16 24 40 29 38 7 47
24 12 23 -13 0 -27 -2 -33 -4z"/>
<path d="M300 2645 c0 -18 -5 -25 -20 -25 -11 0 -20 -4 -20 -10 0 -5 7 -10 16
-10 11 0 14 -6 9 -20 -9 -27 3 -25 31 5 13 14 32 25 44 25 11 0 20 5 20 10 0
6 -9 10 -20 10 -13 0 -20 7 -20 20 0 13 -7 20 -20 20 -15 0 -20 -7 -20 -25z"/>
<path d="M176 2635 c5 -22 3 -25 -21 -25 -17 0 -25 -5 -22 -12 2 -7 15 -12 28
-12 13 1 28 -5 32 -12 12 -20 27 -17 27 6 0 11 5 20 10 20 6 0 10 5 10 10 0 6
-7 10 -15 10 -8 0 -15 9 -15 20 0 13 -7 20 -20 20 -17 0 -19 -5 -14 -25z"/>
<path d="M235 2559 c7 -21 5 -22 -42 -17 -45 4 -50 3 -61 -21 -7 -14 -12 -29
-12 -33 0 -15 28 -8 41 11 11 16 31 21 97 27 74 6 82 5 76 -10 -5 -13 -1 -15
27 -10 43 9 45 10 29 29 -8 10 -30 15 -65 15 -38 0 -55 4 -59 15 -3 8 -13 15
-21 15 -12 0 -15 -6 -10 -21z"/>
<path d="M178 2493 c-32 -8 -20 -26 13 -19 17 3 35 6 40 6 5 0 9 5 9 10 0 10
-30 12 -62 3z"/>
<path d="M205 2455 c-5 -2 -27 -6 -47 -10 -41 -6 -51 -22 -18 -27 20 -3 19 -5
-6 -41 -15 -20 -24 -40 -21 -44 10 -10 57 37 73 72 l13 30 1 -47 c0 -54 12
-65 82 -74 43 -6 123 9 132 25 6 10 -16 61 -26 61 -5 0 -8 -6 -8 -14 0 -22
-40 -46 -75 -46 -41 0 -73 10 -78 23 -8 23 5 77 19 77 8 0 14 5 14 10 0 9 -33
12 -55 5z"/>
<path d="M300 2195 c0 -18 -5 -25 -20 -25 -11 0 -20 -4 -20 -10 0 -5 7 -10 16
-10 11 0 14 -6 9 -20 -9 -27 3 -25 31 5 13 14 32 25 44 25 11 0 20 5 20 10 0
6 -9 10 -20 10 -13 0 -20 7 -20 20 0 13 -7 20 -20 20 -15 0 -20 -7 -20 -25z"/>
<path d="M176 2185 c5 -22 3 -25 -21 -25 -17 0 -25 -5 -22 -12 2 -7 15 -12 28
-12 13 1 28 -5 32 -12 12 -20 27 -17 27 6 0 11 5 20 10 20 6 0 10 5 10 10 0 6
-7 10 -15 10 -8 0 -15 9 -15 20 0 13 -7 20 -20 20 -17 0 -19 -5 -14 -25z"/>
<path d="M235 2109 c7 -21 5 -22 -42 -17 -45 4 -50 3 -61 -21 -7 -14 -12 -29
-12 -33 0 -15 28 -8 41 11 11 16 31 21 97 27 74 6 82 5 76 -10 -5 -13 -1 -15
27 -10 43 9 45 10 29 29 -8 10 -30 15 -65 15 -38 0 -55 4 -59 15 -3 8 -13 15
-21 15 -12 0 -15 -6 -10 -21z"/>
<path d="M287 2033 c6 -39 10 -50 17 -42 2 2 6 21 10 42 6 33 5 37 -13 37 -17
0 -19 -5 -14 -37z"/>
<path d="M178 2043 c-32 -8 -20 -26 13 -19 17 3 35 6 40 6 5 0 9 5 9 10 0 10
-30 12 -62 3z"/>
<path d="M205 2005 c-5 -2 -27 -6 -47 -10 -41 -6 -51 -22 -18 -27 20 -3 19 -5
-6 -41 -15 -20 -24 -40 -21 -44 10 -10 57 37 73 72 l13 30 1 -47 c0 -54 12
-65 82 -74 43 -6 123 9 132 25 6 10 -16 61 -26 61 -5 0 -8 -6 -8 -14 0 -22
-40 -46 -75 -46 -41 0 -73 10 -78 23 -8 23 5 77 19 77 8 0 14 5 14 10 0 9 -33
12 -55 5z"/>
<path d="M300 1745 c0 -18 -5 -25 -20 -25 -11 0 -20 -4 -20 -10 0 -5 7 -10 16
-10 11 0 14 -6 9 -20 -9 -27 3 -25 31 5 13 14 32 25 44 25 11 0 20 5 20 10 0
6 -9 10 -20 10 -13 0 -20 7 -20 20 0 13 -7 20 -20 20 -15 0 -20 -7 -20 -25z"/>
<path d="M176 1735 c5 -22 3 -25 -21 -25 -17 0 -25 -5 -22 -12 2 -7 15 -12 28
-12 13 1 28 -5 32 -12 12 -20 27 -17 27 6 0 11 5 20 10 20 6 0 10 5 10 10 0 6
-7 10 -15 10 -8 0 -15 9 -15 20 0 13 -7 20 -20 20 -17 0 -19 -5 -14 -25z"/>
<path d="M235 1659 c7 -21 5 -22 -42 -17 -45 4 -50 3 -61 -21 -7 -14 -12 -29
-12 -33 0 -15 28 -8 41 11 11 16 31 21 96 27 l82 6 -7 -23 c-5 -19 -7 -20 -10
-6 -2 9 -12 17 -24 17 -14 0 -18 -5 -14 -16 3 -9 6 -27 6 -40 0 -13 5 -24 10
-24 6 0 10 7 10 15 0 10 10 15 26 15 21 0 25 4 21 20 -4 16 0 20 19 20 13 0
24 4 24 8 0 20 -28 32 -76 32 -37 0 -54 4 -58 15 -3 8 -13 15 -21 15 -12 0
-15 -6 -10 -21z"/>
<path d="M178 1593 c-32 -8 -20 -26 13 -19 17 3 35 6 40 6 5 0 9 5 9 10 0 10
-30 12 -62 3z"/>
<path d="M205 1555 c-5 -2 -27 -6 -47 -10 -41 -6 -51 -22 -18 -27 20 -3 19 -5
-6 -41 -15 -20 -24 -40 -21 -44 10 -10 57 37 73 72 l13 30 1 -47 c0 -54 12
-65 82 -74 43 -6 123 9 132 25 6 10 -16 61 -26 61 -5 0 -8 -6 -8 -14 0 -22
-40 -46 -75 -46 -41 0 -73 10 -78 23 -8 23 5 77 19 77 8 0 14 5 14 10 0 9 -33
12 -55 5z"/>
<path d="M300 1295 c0 -18 -5 -25 -20 -25 -11 0 -20 -4 -20 -10 0 -5 7 -10 16
-10 11 0 14 -6 9 -20 -9 -27 3 -25 31 5 13 14 32 25 44 25 11 0 20 5 20 10 0
6 -9 10 -20 10 -13 0 -20 7 -20 20 0 13 -7 20 -20 20 -15 0 -20 -7 -20 -25z"/>
<path d="M176 1285 c5 -22 3 -25 -21 -25 -17 0 -25 -5 -22 -12 2 -7 15 -12 28
-12 13 1 28 -5 32 -12 12 -20 27 -17 27 6 0 11 5 20 10 20 6 0 10 5 10 10 0 6
-7 10 -15 10 -8 0 -15 9 -15 20 0 13 -7 20 -20 20 -17 0 -19 -5 -14 -25z"/>
<path d="M235 1209 c7 -21 5 -22 -42 -17 -45 4 -50 3 -61 -21 -7 -14 -12 -29
-12 -33 0 -15 28 -8 41 11 11 16 31 21 96 27 l82 6 -7 -23 c-5 -19 -7 -20 -10
-6 -2 9 -11 17 -20 17 -13 0 -17 -10 -17 -45 0 -36 3 -45 18 -45 24 0 21 -15
-8 -38 -28 -22 -32 -32 -11 -32 14 0 76 64 76 79 0 12 -29 23 -41 15 -5 -3 -9
0 -9 5 0 6 12 11 26 11 21 0 25 4 21 20 -4 16 0 20 19 20 13 0 24 4 24 8 0 20
-28 32 -76 32 -37 0 -54 4 -58 15 -3 8 -13 15 -21 15 -12 0 -15 -6 -10 -21z"/>
<path d="M178 1143 c-32 -8 -20 -26 13 -19 17 3 35 6 40 6 5 0 9 5 9 10 0 10
-30 12 -62 3z"/>
<path d="M205 1105 c-5 -2 -27 -6 -47 -10 -41 -6 -51 -22 -18 -27 20 -3 19 -5
-6 -41 -15 -20 -24 -40 -21 -44 10 -10 57 37 73 72 l13 30 1 -47 c0 -54 12
-65 82 -74 43 -6 123 9 132 25 6 10 -16 61 -26 61 -5 0 -8 -6 -8 -14 0 -22
-40 -46 -75 -46 -41 0 -73 10 -78 23 -8 23 5 77 19 77 8 0 14 5 14 10 0 9 -33
12 -55 5z"/>
<path d="M300 845 c0 -18 -5 -25 -20 -25 -11 0 -20 -4 -20 -10 0 -5 7 -10 16
-10 11 0 14 -6 9 -20 -9 -27 3 -25 31 5 13 14 32 25 44 25 11 0 20 5 20 10 0
6 -9 10 -20 10 -13 0 -20 7 -20 20 0 13 -7 20 -20 20 -15 0 -20 -7 -20 -25z"/>
<path d="M176 835 c5 -22 3 -25 -21 -25 -17 0 -25 -5 -22 -12 2 -7 15 -12 28
-12 13 1 28 -5 32 -12 12 -20 27 -17 27 6 0 11 5 20 10 20 6 0 10 5 10 10 0 6
-7 10 -15 10 -8 0 -15 9 -15 20 0 13 -7 20 -20 20 -17 0 -19 -5 -14 -25z"/>
<path d="M235 759 c7 -21 5 -22 -42 -17 -45 4 -50 3 -61 -21 -7 -14 -12 -29
-12 -33 0 -15 28 -8 41 11 11 16 31 21 96 27 l82 6 -7 -23 c-5 -19 -7 -20 -10
-6 -2 9 -12 17 -22 17 -16 0 -18 -6 -13 -34 5 -35 -13 -59 -27 -36 -8 12 -25
11 -112 -6 -33 -7 -37 -21 -8 -26 20 -3 19 -5 -6 -41 -15 -20 -24 -40 -21 -44
10 -10 57 37 73 72 l13 30 1 -47 c0 -54 12 -65 82 -74 43 -6 123 9 132 25 6 9
-16 61 -25 61 -4 0 -10 -10 -14 -22 -5 -18 -8 -19 -12 -8 -3 8 -10 18 -16 21
-5 4 -4 15 3 29 10 18 9 24 -1 31 -8 5 -20 7 -26 4 -7 -2 -13 0 -13 5 0 6 12
10 26 10 21 0 25 4 21 20 -4 16 0 20 19 20 13 0 24 4 24 8 0 20 -28 32 -76 32
-37 0 -54 4 -58 15 -3 8 -13 15 -21 15 -12 0 -15 -6 -10 -21z m39 -144 c22
-22 23 -26 8 -34 -9 -5 -13 -13 -9 -17 4 -5 16 -3 26 3 18 12 41 1 41 -19 0
-9 -55 -10 -87 -2 -27 7 -32 20 -26 62 6 39 14 40 47 7z m46 5 c0 -5 -7 -7
-15 -4 -8 4 -15 8 -15 10 0 2 7 4 15 4 8 0 15 -4 15 -10z"/>
<path d="M178 693 c-32 -8 -20 -26 13 -19 17 3 35 6 40 6 5 0 9 5 9 10 0 10
-30 12 -62 3z"/>
</g>
</svg>
