<?xml version="1.0" standalone="no"?>
<!DOCTYPE svg PUBLIC "-//W3C//DTD SVG 20010904//EN"
 "http://www.w3.org/TR/2001/REC-SVG-20010904/DTD/svg10.dtd">
<svg version="1.0" xmlns="http://www.w3.org/2000/svg"
 width="50.000000pt" height="725.000000pt" viewBox="0 0 50.000000 725.000000"
 preserveAspectRatio="xMidYMid meet">
<metadata>
Created by potrace 1.16, written by Peter Selinger 2001-2019
</metadata>
<g transform="translate(0.000000,725.000000) scale(0.100000,-0.100000)"
fill="#000000" stroke="none">
<path d="M174 7154 c3 -9 9 -27 12 -40 10 -38 24 -28 24 16 0 34 -3 40 -21 40
-15 0 -19 -4 -15 -16z"/>
<path d="M175 6700 c5 -17 2 -20 -25 -20 -21 0 -30 -4 -27 -12 2 -7 18 -12 36
-12 17 1 31 -2 31 -7 0 -5 5 -9 10 -9 6 0 10 7 10 15 0 8 7 15 15 15 8 0 15 5
15 10 0 6 -7 10 -15 10 -8 0 -15 7 -15 15 0 8 -9 15 -21 15 -16 0 -19 -4 -14
-20z"/>
<path d="M175 6250 c5 -17 2 -20 -25 -20 -21 0 -30 -4 -27 -12 2 -7 18 -12 36
-12 17 1 31 -2 31 -7 0 -5 5 -9 10 -9 6 0 10 7 10 15 0 8 7 15 15 15 8 0 15 5
15 10 0 6 -7 10 -15 10 -8 0 -15 7 -15 15 0 8 -9 15 -21 15 -16 0 -19 -4 -14
-20z"/>
<path d="M278 6243 c-10 -2 -18 -9 -18 -15 0 -6 10 -8 23 -4 12 3 39 6 60 6
20 0 37 5 37 10 0 10 -69 12 -102 3z"/>
<path d="M290 5815 c0 -16 -6 -25 -15 -25 -19 0 -19 -7 1 -28 15 -14 17 -14
26 1 6 11 22 17 43 17 19 0 35 5 35 10 0 6 -11 10 -25 10 -15 0 -25 6 -25 14
0 12 -20 26 -36 26 -2 0 -4 -11 -4 -25z"/>
<path d="M175 5800 c5 -17 2 -20 -25 -20 -21 0 -30 -4 -27 -12 2 -7 18 -12 36
-12 17 1 31 -2 31 -7 0 -5 5 -9 10 -9 6 0 10 7 10 15 0 8 7 15 15 15 8 0 15 5
15 10 0 6 -7 10 -15 10 -8 0 -15 7 -15 15 0 8 -9 15 -21 15 -16 0 -19 -4 -14
-20z"/>
<path d="M290 5365 c0 -16 -6 -25 -15 -25 -8 0 -15 -4 -15 -10 0 -5 5 -10 10
-10 6 0 10 -7 10 -15 0 -10 -11 -15 -35 -15 -24 0 -35 5 -35 15 0 8 7 15 15
15 8 0 15 5 15 10 0 6 -7 10 -15 10 -8 0 -15 7 -15 15 0 8 -9 15 -21 15 -16 0
-19 -4 -14 -20 5 -17 2 -20 -25 -20 -21 0 -30 -4 -27 -12 2 -7 17 -13 33 -12
17 0 36 -8 46 -19 13 -14 27 -18 60 -16 42 3 43 3 40 -24 -4 -35 15 -35 29 0
12 32 5 53 -17 53 -32 0 -6 25 29 28 41 4 51 22 12 22 -15 0 -25 6 -25 14 0
12 -20 26 -36 26 -2 0 -4 -11 -4 -25z"/>
<path d="M290 4915 c0 -16 -6 -25 -15 -25 -8 0 -15 -4 -15 -10 0 -5 5 -10 10
-10 6 0 10 -7 10 -15 0 -10 -11 -15 -35 -15 -24 0 -35 5 -35 15 0 8 7 15 15
15 8 0 15 5 15 10 0 6 -7 10 -15 10 -8 0 -15 7 -15 15 0 8 -9 15 -21 15 -16 0
-19 -4 -14 -20 5 -17 2 -20 -25 -20 -21 0 -30 -4 -27 -12 2 -7 17 -13 33 -12
17 0 36 -8 46 -19 13 -15 27 -18 58 -15 22 2 40 0 40 -4 0 -5 -18 -8 -40 -8
-22 0 -40 -4 -40 -10 0 -5 18 -10 39 -10 22 0 42 -6 45 -12 3 -10 9 -8 19 5 9
10 28 17 51 17 20 0 36 5 36 10 0 6 -15 10 -34 10 -21 0 -36 6 -40 15 -3 8
-13 15 -22 15 -32 0 -6 25 29 28 41 4 51 22 12 22 -15 0 -25 6 -25 14 0 12
-20 26 -36 26 -2 0 -4 -11 -4 -25z"/>
<path d="M110 4790 c-8 -5 -12 -11 -9 -14 8 -9 109 6 109 15 0 12 -81 11 -100
-1z"/>
<path d="M290 4465 c0 -16 -6 -25 -15 -25 -8 0 -15 -4 -15 -10 0 -5 5 -10 10
-10 6 0 10 -7 10 -15 0 -10 -11 -15 -35 -15 -24 0 -35 5 -35 15 0 8 7 15 15
15 8 0 15 5 15 10 0 6 -7 10 -15 10 -8 0 -15 7 -15 15 0 8 -9 15 -21 15 -16 0
-19 -4 -14 -20 5 -17 2 -20 -25 -20 -21 0 -30 -4 -27 -12 2 -7 17 -13 33 -12
17 0 36 -8 46 -19 13 -15 27 -18 58 -15 22 2 40 0 40 -4 0 -5 -18 -8 -40 -8
-54 0 -51 -20 3 -22 36 -1 38 -2 10 -5 -46 -6 -41 -23 6 -23 31 0 41 4 46 20
5 16 15 20 46 20 21 0 39 5 39 10 0 6 -15 10 -34 10 -21 0 -36 6 -40 15 -3 8
-13 15 -22 15 -32 0 -6 25 29 28 41 4 51 22 12 22 -15 0 -25 6 -25 14 0 12
-20 26 -36 26 -2 0 -4 -11 -4 -25z"/>
<path d="M110 4340 c-8 -5 -12 -11 -9 -14 8 -9 109 6 109 15 0 12 -81 11 -100
-1z"/>
<path d="M170 4310 c0 -5 14 -10 30 -10 17 0 30 5 30 10 0 6 -13 10 -30 10
-16 0 -30 -4 -30 -10z"/>
<path d="M290 4015 c0 -16 -6 -25 -15 -25 -8 0 -15 -4 -15 -10 0 -5 5 -10 10
-10 6 0 10 -7 10 -16 0 -11 -7 -8 -24 10 -13 15 -28 26 -35 26 -6 0 -11 7 -11
15 0 8 -9 15 -21 15 -16 0 -19 -4 -14 -20 5 -17 2 -20 -25 -20 -21 0 -30 -4
-27 -12 2 -7 17 -13 33 -12 16 0 36 -7 45 -18 9 -10 23 -18 30 -18 11 0 11 -2
-1 -11 -11 -8 -12 -12 -2 -16 21 -8 3 -23 -29 -23 -16 0 -29 -4 -29 -10 0 -5
16 -10 36 -10 l37 0 -7 -96 c-6 -77 -5 -95 6 -92 9 3 14 32 16 101 l3 97 29 0
c20 0 31 6 35 20 5 16 15 20 46 20 21 0 39 5 39 10 0 6 -15 10 -34 10 -21 0
-36 6 -40 15 -3 8 -13 15 -22 15 -32 0 -6 25 29 28 41 4 51 22 12 22 -15 0
-25 6 -25 14 0 12 -20 26 -36 26 -2 0 -4 -11 -4 -25z m-60 -60 c0 -8 -4 -15
-10 -15 -5 0 -10 7 -10 15 0 8 5 15 10 15 6 0 10 -7 10 -15z m70 -35 c0 -5
-10 -10 -22 -9 -22 0 -22 1 -3 9 11 5 21 9 23 9 1 1 2 -3 2 -9z m-7 -37 c-7
-2 -19 -2 -25 0 -7 3 -2 5 12 5 14 0 19 -2 13 -5z"/>
<path d="M110 3890 c-8 -5 -12 -11 -9 -14 8 -9 109 6 109 15 0 12 -81 11 -100
-1z"/>
<path d="M290 3565 c0 -16 -6 -25 -15 -25 -8 0 -15 -4 -15 -10 0 -5 5 -10 10
-10 6 0 10 -7 10 -16 0 -11 -7 -8 -24 10 -13 15 -28 26 -35 26 -6 0 -11 7 -11
15 0 8 -9 15 -21 15 -16 0 -19 -4 -14 -20 5 -17 2 -20 -25 -20 -21 0 -30 -4
-27 -12 2 -7 17 -13 33 -12 16 0 36 -7 45 -18 9 -10 23 -18 30 -18 11 0 11 -2
-1 -11 -11 -8 -12 -12 -2 -16 21 -8 3 -23 -29 -23 -16 0 -29 -4 -29 -10 0 -5
-6 -10 -14 -10 -10 0 -16 -17 -19 -62 -2 -35 -8 -73 -12 -85 -4 -13 -3 -23 1
-23 19 0 35 43 41 106 l6 64 35 0 35 0 -7 -96 c-6 -77 -5 -95 6 -92 9 3 14 32
16 101 l3 97 29 0 c20 0 31 6 35 20 5 16 15 20 46 20 21 0 39 5 39 10 0 6 -15
10 -34 10 -21 0 -36 6 -40 15 -3 8 -13 15 -22 15 -32 0 -6 25 29 28 41 4 51
22 12 22 -15 0 -25 6 -25 14 0 12 -20 26 -36 26 -2 0 -4 -11 -4 -25z m-60 -60
c0 -8 -4 -15 -10 -15 -5 0 -10 7 -10 15 0 8 5 15 10 15 6 0 10 -7 10 -15z m70
-35 c0 -5 -10 -10 -22 -9 -22 0 -22 1 -3 9 11 5 21 9 23 9 1 1 2 -3 2 -9z m-7
-37 c-7 -2 -19 -2 -25 0 -7 3 -2 5 12 5 14 0 19 -2 13 -5z"/>
<path d="M110 3440 c-8 -5 -12 -11 -9 -14 8 -9 109 6 109 15 0 12 -81 11 -100
-1z"/>
<path d="M290 3115 c0 -16 -6 -25 -15 -25 -8 0 -15 -4 -15 -10 0 -5 5 -10 10
-10 6 0 10 -7 10 -16 0 -11 -7 -8 -24 10 -13 15 -28 26 -35 26 -6 0 -11 7 -11
15 0 8 -9 15 -21 15 -16 0 -19 -4 -14 -20 5 -17 2 -20 -25 -20 -21 0 -30 -4
-27 -12 2 -7 17 -13 33 -12 16 0 36 -7 45 -18 9 -10 23 -18 30 -18 11 0 11 -2
-1 -11 -11 -8 -12 -12 -2 -16 21 -8 3 -23 -29 -23 -16 0 -29 -4 -29 -10 0 -5
5 -10 10 -10 6 0 10 -9 10 -20 0 -11 -4 -20 -10 -20 -5 0 -10 9 -10 20 0 11
-7 20 -15 20 -11 0 -15 -13 -15 -55 0 -30 -5 -66 -12 -80 -6 -14 -8 -28 -5
-32 11 -11 35 29 41 69 5 29 11 38 26 38 15 0 22 9 27 30 3 17 10 30 16 30 6
0 7 -33 3 -96 -6 -77 -5 -95 6 -92 9 3 14 32 16 101 l3 97 29 0 c20 0 31 6 35
20 5 16 15 20 46 20 21 0 39 5 39 10 0 6 -15 10 -34 10 -21 0 -36 6 -40 15 -3
8 -13 15 -22 15 -32 0 -6 25 29 28 41 4 51 22 12 22 -15 0 -25 6 -25 14 0 12
-20 26 -36 26 -2 0 -4 -11 -4 -25z m-60 -60 c0 -8 -4 -15 -10 -15 -5 0 -10 7
-10 15 0 8 5 15 10 15 6 0 10 -7 10 -15z m70 -35 c0 -5 -10 -10 -22 -9 -22 0
-22 1 -3 9 11 5 21 9 23 9 1 1 2 -3 2 -9z m-7 -37 c-7 -2 -19 -2 -25 0 -7 3
-2 5 12 5 14 0 19 -2 13 -5z"/>
<path d="M110 2990 c-8 -5 -12 -11 -9 -14 8 -9 109 6 109 15 0 12 -81 11 -100
-1z"/>
<path d="M290 2665 c0 -16 -6 -25 -15 -25 -8 0 -15 -4 -15 -10 0 -5 5 -10 10
-10 6 0 10 -7 10 -16 0 -11 -7 -8 -24 10 -13 15 -28 26 -35 26 -6 0 -11 7 -11
15 0 8 -9 15 -21 15 -16 0 -19 -4 -14 -20 5 -17 2 -20 -25 -20 -21 0 -30 -4
-27 -12 2 -7 17 -13 33 -12 16 0 36 -7 45 -18 9 -10 23 -18 30 -18 11 0 11 -2
-1 -11 -11 -8 -12 -12 -2 -16 21 -8 3 -23 -29 -23 -16 0 -29 -4 -29 -10 0 -5
5 -10 10 -10 6 0 10 -9 10 -20 0 -11 -4 -20 -10 -20 -5 0 -10 9 -10 20 0 11
-7 20 -15 20 -11 0 -15 -13 -15 -55 0 -30 -5 -66 -12 -80 -6 -14 -8 -28 -5
-32 11 -11 35 29 41 69 5 29 11 38 26 38 15 0 22 9 27 30 3 17 10 30 16 30 6
0 7 -33 3 -96 -6 -77 -5 -95 6 -92 9 3 14 32 16 101 1 54 7 97 12 97 6 0 10
-13 10 -30 0 -32 2 -33 38 -24 25 7 30 24 7 24 -18 0 -19 11 -3 45 9 20 18 25
50 25 21 0 38 5 38 10 0 6 -15 10 -34 10 -21 0 -36 6 -40 15 -3 8 -13 15 -22
15 -32 0 -6 25 29 28 41 4 51 22 12 22 -15 0 -25 6 -25 14 0 12 -20 26 -36 26
-2 0 -4 -11 -4 -25z m-60 -60 c0 -8 -4 -15 -10 -15 -5 0 -10 7 -10 15 0 8 5
15 10 15 6 0 10 -7 10 -15z m70 -35 c0 -5 -10 -10 -22 -9 -22 0 -22 1 -3 9 11
5 21 9 23 9 1 1 2 -3 2 -9z m-7 -37 c-7 -2 -19 -2 -25 0 -7 3 -2 5 12 5 14 0
19 -2 13 -5z"/>
<path d="M110 2540 c-8 -5 -12 -11 -9 -14 8 -9 109 6 109 15 0 12 -81 11 -100
-1z"/>
<path d="M290 2215 c0 -16 -6 -25 -15 -25 -8 0 -15 -4 -15 -10 0 -5 5 -10 10
-10 6 0 10 -7 10 -16 0 -11 -7 -8 -24 10 -13 15 -28 26 -35 26 -6 0 -11 7 -11
15 0 8 -9 15 -21 15 -16 0 -19 -4 -14 -20 5 -17 2 -20 -25 -20 -21 0 -30 -4
-27 -12 2 -7 17 -13 33 -12 16 0 36 -7 45 -18 9 -10 23 -18 30 -18 11 0 11 -2
-1 -11 -11 -8 -12 -12 -2 -16 21 -8 3 -23 -29 -23 -16 0 -29 -4 -29 -10 0 -5
5 -10 10 -10 6 0 10 -9 10 -20 0 -11 -4 -20 -10 -20 -5 0 -10 9 -10 20 0 11
-7 20 -15 20 -11 0 -15 -13 -15 -55 0 -30 -5 -66 -12 -80 -6 -14 -8 -28 -5
-32 11 -11 35 29 41 69 5 29 11 38 26 38 15 0 22 9 27 30 3 17 10 30 16 30 6
0 7 -33 3 -96 -6 -77 -5 -95 6 -92 9 3 14 32 16 101 1 54 7 97 12 97 6 0 10
-14 10 -31 0 -28 2 -30 29 -24 l28 6 -5 -77 c-4 -62 -2 -76 9 -72 10 3 15 30
17 106 2 86 0 102 -13 102 -8 0 -15 -9 -15 -20 0 -11 -4 -20 -10 -20 -13 0
-13 13 2 45 9 20 18 25 50 25 21 0 38 5 38 10 0 6 -15 10 -34 10 -21 0 -36 6
-40 15 -3 8 -13 15 -22 15 -32 0 -6 25 29 28 41 4 51 22 12 22 -15 0 -25 6
-25 14 0 12 -20 26 -36 26 -2 0 -4 -11 -4 -25z m-60 -60 c0 -8 -4 -15 -10 -15
-5 0 -10 7 -10 15 0 8 5 15 10 15 6 0 10 -7 10 -15z m70 -35 c0 -5 -10 -10
-22 -9 -22 0 -22 1 -3 9 11 5 21 9 23 9 1 1 2 -3 2 -9z m-7 -37 c-7 -2 -19 -2
-25 0 -7 3 -2 5 12 5 14 0 19 -2 13 -5z"/>
<path d="M110 2090 c-8 -5 -12 -11 -9 -14 8 -9 109 6 109 15 0 12 -81 11 -100
-1z"/>
<path d="M290 1765 c0 -16 -6 -25 -15 -25 -8 0 -15 -4 -15 -10 0 -5 5 -10 10
-10 6 0 10 -7 10 -16 0 -11 -7 -8 -24 10 -13 15 -28 26 -35 26 -6 0 -11 7 -11
15 0 8 -9 15 -21 15 -16 0 -19 -4 -14 -20 5 -17 2 -20 -25 -20 -21 0 -30 -4
-27 -12 2 -7 17 -13 33 -12 16 0 36 -7 45 -18 9 -10 23 -18 30 -18 11 0 11 -2
-1 -11 -11 -8 -12 -12 -2 -16 21 -8 3 -23 -29 -23 -16 0 -29 -4 -29 -10 0 -5
5 -10 10 -10 6 0 10 -9 10 -20 0 -11 -4 -20 -10 -20 -5 0 -10 9 -10 20 0 11
-7 20 -15 20 -11 0 -15 -13 -15 -55 0 -30 -5 -66 -12 -80 -6 -14 -8 -28 -4
-32 8 -8 28 20 36 52 4 14 16 21 41 23 l36 3 -5 -52 c-4 -41 -2 -51 9 -47 9 3
15 23 17 56 3 52 3 52 38 52 l34 0 0 -56 c0 -40 3 -55 13 -52 8 3 13 36 15
106 2 86 0 102 -13 102 -8 0 -15 -9 -15 -20 0 -11 -4 -20 -10 -20 -13 0 -13
13 2 45 9 20 18 25 50 25 21 0 38 5 38 10 0 6 -15 10 -34 10 -21 0 -36 6 -40
15 -3 8 -13 15 -22 15 -32 0 -6 25 29 28 41 4 51 22 12 22 -15 0 -25 6 -25 14
0 12 -20 26 -36 26 -2 0 -4 -11 -4 -25z m-60 -60 c0 -8 -4 -15 -10 -15 -5 0
-10 7 -10 15 0 8 5 15 10 15 6 0 10 -7 10 -15z m70 -35 c0 -5 -10 -10 -22 -9
-22 0 -22 1 -3 9 11 5 21 9 23 9 1 1 2 -3 2 -9z m-7 -37 c-7 -2 -19 -2 -25 0
-7 3 -2 5 12 5 14 0 19 -2 13 -5z m-13 -54 c0 -29 2 -30 33 -25 24 5 27 4 12
-3 -11 -5 -30 -10 -42 -10 -20 -1 -23 4 -23 34 0 19 5 35 10 35 6 0 10 -14 10
-31z m-42 -11 c-3 -30 -6 -33 -38 -35 -20 0 -25 1 -12 4 15 3 25 14 29 34 8
40 25 37 21 -3z"/>
<path d="M110 1640 c-8 -5 -12 -11 -9 -14 8 -9 109 6 109 15 0 12 -81 11 -100
-1z"/>
<path d="M290 1315 c0 -16 -6 -25 -15 -25 -8 0 -15 -4 -15 -10 0 -5 5 -10 10
-10 6 0 10 -7 10 -16 0 -11 -7 -8 -24 10 -13 15 -28 26 -35 26 -6 0 -11 7 -11
15 0 8 -9 15 -21 15 -16 0 -19 -4 -14 -20 5 -17 2 -20 -25 -20 -21 0 -30 -4
-27 -12 2 -7 17 -13 33 -12 16 0 36 -7 45 -18 9 -10 23 -18 30 -18 11 0 11 -2
-1 -11 -11 -8 -12 -12 -2 -16 21 -8 3 -23 -29 -23 -16 0 -29 -4 -29 -10 0 -5
5 -10 10 -10 6 0 10 -9 10 -20 0 -11 -4 -20 -10 -20 -5 0 -10 9 -10 20 0 11
-7 20 -15 20 -11 0 -15 -13 -15 -55 0 -30 -5 -66 -12 -80 -6 -14 -8 -28 -4
-32 8 -8 41 37 41 57 0 10 12 16 36 18 l36 3 -5 -52 c-4 -41 -2 -51 9 -47 9 3
15 23 17 56 3 52 3 52 38 52 l34 0 0 -56 c0 -40 3 -55 13 -52 8 3 13 36 15
106 2 86 0 102 -13 102 -8 0 -15 -9 -15 -20 0 -11 -4 -20 -10 -20 -13 0 -13
13 2 45 9 20 18 25 50 25 21 0 38 5 38 10 0 6 -15 10 -34 10 -21 0 -36 6 -40
15 -3 8 -13 15 -22 15 -32 0 -6 25 29 28 41 4 51 22 12 22 -15 0 -25 6 -25 14
0 12 -20 26 -36 26 -2 0 -4 -11 -4 -25z m-60 -60 c0 -8 -4 -15 -10 -15 -5 0
-10 7 -10 15 0 8 5 15 10 15 6 0 10 -7 10 -15z m70 -35 c0 -5 -10 -10 -22 -9
-22 0 -22 1 -3 9 11 5 21 9 23 9 1 1 2 -3 2 -9z m-7 -37 c-7 -2 -19 -2 -25 0
-7 3 -2 5 12 5 14 0 19 -2 13 -5z m-13 -54 c0 -29 2 -30 33 -25 24 5 27 4 12
-3 -11 -5 -30 -10 -42 -10 -20 -1 -23 4 -23 34 0 19 5 35 10 35 6 0 10 -14 10
-31z m-42 -11 c-3 -30 -6 -33 -38 -35 -20 0 -25 1 -12 4 15 3 25 14 29 34 8
40 25 37 21 -3z"/>
<path d="M110 1190 c-8 -5 -12 -11 -9 -14 8 -9 109 6 109 15 0 12 -81 11 -100
-1z"/>
<path d="M187 1013 c6 -39 10 -50 17 -42 2 2 6 21 10 42 6 33 5 37 -13 37 -17
0 -19 -5 -14 -37z"/>
<path d="M290 865 c0 -16 -6 -25 -15 -25 -8 0 -15 -4 -15 -10 0 -5 5 -10 10
-10 6 0 10 -7 10 -16 0 -11 -7 -8 -24 10 -13 15 -28 26 -35 26 -6 0 -11 7 -11
15 0 8 -9 15 -21 15 -16 0 -19 -4 -14 -20 5 -17 2 -20 -25 -20 -21 0 -30 -4
-27 -12 2 -7 17 -13 33 -12 16 0 36 -7 45 -18 9 -10 23 -18 30 -18 11 0 11 -2
-1 -11 -11 -8 -12 -12 -2 -16 21 -8 3 -23 -29 -23 -16 0 -29 -4 -29 -10 0 -5
5 -10 10 -10 6 0 10 -9 10 -20 0 -11 -4 -20 -10 -20 -5 0 -10 9 -10 20 0 11
-7 20 -15 20 -11 0 -15 -13 -15 -55 0 -30 -5 -66 -12 -80 -6 -14 -8 -28 -4
-32 8 -8 41 37 41 57 0 10 12 16 36 18 l36 3 -5 -52 c-4 -41 -2 -51 9 -47 9 3
15 23 17 56 3 52 3 52 38 52 18 0 34 -4 34 -10 0 -5 -9 -10 -20 -10 -11 0 -20
-4 -20 -10 0 -5 9 -10 20 -10 16 0 20 -7 20 -36 0 -24 4 -34 13 -32 8 3 13 36
15 106 2 86 0 102 -13 102 -8 0 -15 -9 -15 -20 0 -11 -4 -20 -10 -20 -13 0
-13 13 2 45 9 20 18 25 50 25 21 0 38 5 38 10 0 6 -15 10 -34 10 -21 0 -36 6
-40 15 -3 8 -13 15 -22 15 -32 0 -6 25 29 28 41 4 51 22 12 22 -15 0 -25 6
-25 14 0 12 -20 26 -36 26 -2 0 -4 -11 -4 -25z m-60 -60 c0 -8 -4 -15 -10 -15
-5 0 -10 7 -10 15 0 8 5 15 10 15 6 0 10 -7 10 -15z m70 -35 c0 -5 -10 -10
-22 -9 -22 0 -22 1 -3 9 11 5 21 9 23 9 1 1 2 -3 2 -9z m-7 -37 c-7 -2 -19 -2
-25 0 -7 3 -2 5 12 5 14 0 19 -2 13 -5z m-13 -54 c0 -29 2 -30 33 -25 24 5 27
4 12 -3 -11 -5 -30 -10 -42 -10 -20 -1 -23 4 -23 34 0 19 5 35 10 35 6 0 10
-14 10 -31z m-42 -11 c-3 -30 -6 -33 -38 -35 -20 0 -25 1 -12 4 15 3 25 14 29
34 8 40 25 37 21 -3z"/>
<path d="M110 740 c-8 -5 -12 -11 -9 -14 8 -9 109 6 109 15 0 12 -81 11 -100
-1z"/>
<path d="M187 563 c9 -60 16 -60 27 0 6 33 5 37 -13 37 -17 0 -19 -5 -14 -37z"/>
<path d="M290 415 c0 -16 -6 -25 -15 -25 -8 0 -15 -4 -15 -10 0 -5 5 -10 10
-10 6 0 10 -7 10 -16 0 -11 -7 -8 -24 10 -13 15 -28 26 -35 26 -6 0 -11 7 -11
15 0 8 -9 15 -21 15 -16 0 -19 -4 -14 -20 5 -17 2 -20 -25 -20 -21 0 -30 -4
-27 -12 2 -7 17 -13 33 -12 16 0 36 -7 45 -18 9 -10 23 -18 30 -18 11 0 11 -2
-1 -11 -11 -8 -12 -12 -2 -16 21 -8 3 -23 -29 -23 -16 0 -29 -4 -29 -10 0 -5
5 -10 10 -10 6 0 10 -9 10 -20 0 -11 -4 -20 -10 -20 -5 0 -10 9 -10 20 0 11
-7 20 -15 20 -11 0 -15 -13 -15 -55 0 -30 -5 -66 -12 -80 -6 -14 -8 -28 -4
-32 8 -8 41 37 41 57 0 10 12 16 36 18 l36 3 -5 -52 c-4 -41 -2 -51 9 -47 9 3
15 23 17 56 3 52 3 52 38 52 18 0 34 -4 34 -10 0 -5 -11 -10 -25 -10 -22 0
-25 -4 -25 -35 0 -19 5 -35 10 -35 6 0 10 11 10 25 0 16 6 25 15 25 11 0 15
-11 15 -36 0 -24 4 -34 13 -32 8 3 13 36 15 106 2 86 0 102 -13 102 -8 0 -15
-9 -15 -20 0 -11 -4 -20 -10 -20 -13 0 -13 13 2 45 9 20 18 25 50 25 21 0 38
5 38 10 0 6 -15 10 -34 10 -21 0 -36 6 -40 15 -3 8 -13 15 -22 15 -32 0 -6 25
29 28 41 4 51 22 12 22 -15 0 -25 6 -25 14 0 12 -20 26 -36 26 -2 0 -4 -11 -4
-25z m-60 -60 c0 -8 -4 -15 -10 -15 -5 0 -10 7 -10 15 0 8 5 15 10 15 6 0 10
-7 10 -15z m70 -35 c0 -5 -10 -10 -22 -9 -22 0 -22 1 -3 9 11 5 21 9 23 9 1 1
2 -3 2 -9z m-7 -37 c-7 -2 -19 -2 -25 0 -7 3 -2 5 12 5 14 0 19 -2 13 -5z
m-13 -54 c0 -29 2 -30 33 -25 24 5 27 4 12 -3 -11 -5 -30 -10 -42 -10 -20 -1
-23 4 -23 34 0 19 5 35 10 35 6 0 10 -14 10 -31z m-42 -11 c-3 -30 -6 -33 -38
-35 -20 0 -25 1 -12 4 15 3 25 14 29 34 8 40 25 37 21 -3z"/>
<path d="M110 290 c-8 -5 -12 -11 -9 -14 8 -9 109 6 109 15 0 12 -81 11 -100
-1z"/>
<path d="M187 113 c6 -39 10 -50 17 -42 2 2 6 21 10 42 6 33 5 37 -13 37 -17
0 -19 -5 -14 -37z"/>
</g>
</svg>
