<?xml version="1.0" standalone="no"?>
<!DOCTYPE svg PUBLIC "-//W3C//DTD SVG 20010904//EN"
 "http://www.w3.org/TR/2001/REC-SVG-20010904/DTD/svg10.dtd">
<svg version="1.0" xmlns="http://www.w3.org/2000/svg"
 width="95.000000pt" height="725.000000pt" viewBox="0 0 95.000000 725.000000"
 preserveAspectRatio="xMidYMid meet">
<metadata>
Created by potrace 1.16, written by Peter Selinger 2001-2019
</metadata>
<g transform="translate(0.000000,725.000000) scale(0.100000,-0.100000)"
fill="#000000" stroke="none">
<path d="M290 7160 c0 -13 -7 -20 -20 -20 -11 0 -20 -4 -20 -10 0 -5 7 -10 15
-10 8 0 15 -4 15 -10 0 -5 -4 -10 -10 -10 -5 0 -10 -7 -10 -15 0 -8 -9 -15
-20 -15 -11 0 -20 -4 -20 -10 0 -5 11 -10 25 -10 21 0 24 -4 22 -30 -1 -21 -7
-30 -19 -30 -10 0 -18 7 -18 15 0 8 5 15 10 15 6 0 10 5 10 10 0 6 -12 10 -26
10 -20 0 -25 -4 -20 -16 3 -9 6 -31 6 -50 0 -19 5 -34 10 -34 6 0 10 7 10 15
0 8 9 15 20 15 11 0 20 -7 20 -15 0 -22 17 -18 23 5 3 12 14 20 26 20 26 0 26
-2 3 -28 -13 -15 -36 -23 -80 -28 -60 -6 -87 -24 -38 -24 15 0 26 -7 29 -20 6
-23 37 -27 37 -5 0 8 -4 15 -10 15 -5 0 -10 5 -10 10 0 6 14 10 30 10 26 0 30
-3 30 -29 0 -16 -5 -31 -11 -33 -14 -5 0 -38 17 -38 14 0 21 21 26 75 2 22 9
31 26 33 31 5 27 22 -5 22 -16 0 -23 4 -17 8 7 4 14 30 15 57 l4 50 -40 -2
c-22 -1 -33 0 -25 3 8 3 22 8 30 11 8 3 23 5 33 4 21 -3 22 12 2 29 -11 10
-18 9 -30 -4 -19 -18 -31 -20 -40 -7 -7 12 34 41 57 41 10 0 18 5 18 10 0 6
-9 10 -19 10 -10 0 -21 7 -25 15 -8 22 -36 18 -36 -5z m36 -145 c10 -9 11 -15
4 -15 -6 0 -18 7 -26 15 -10 9 -11 15 -4 15 6 0 18 -7 26 -15z"/>
<path d="M172 7148 c2 -18 -3 -24 -20 -26 -30 -5 -22 -28 8 -24 13 1 27 -3 31
-10 12 -18 22 -2 22 33 0 28 -15 48 -36 49 -5 0 -7 -10 -5 -22z"/>
<path d="M620 7164 c0 -19 24 -84 32 -84 16 0 9 78 -8 84 -20 8 -24 8 -24 0z"/>
<path d="M142 7058 c6 -16 36 -34 44 -26 3 4 4 14 1 23 -7 17 -51 21 -45 3z"/>
<path d="M114 7004 c3 -9 6 -18 6 -20 0 -2 9 -4 20 -4 24 0 27 25 4 34 -26 10
-36 7 -30 -10z"/>
<path d="M160 6951 c0 -5 -12 -23 -26 -40 -14 -17 -24 -38 -22 -48 6 -34 25
-22 46 30 25 59 26 67 12 67 -5 0 -10 -4 -10 -9z"/>
<path d="M622 6698 c2 -18 -3 -24 -20 -26 -30 -5 -22 -28 8 -24 13 1 27 -3 31
-10 12 -18 22 -2 22 33 0 28 -15 48 -36 49 -5 0 -7 -10 -5 -22z"/>
<path d="M622 6248 c2 -18 -3 -24 -20 -26 -30 -5 -22 -28 8 -24 13 1 27 -3 31
-10 12 -18 22 -2 22 33 0 28 -15 48 -36 49 -5 0 -7 -10 -5 -22z"/>
<path d="M738 6243 c-44 -5 -51 -23 -9 -23 43 0 91 11 91 21 0 9 -11 9 -82 2z"/>
<path d="M740 5810 c0 -13 -7 -20 -20 -20 -11 0 -20 -4 -20 -10 0 -5 6 -10 14
-10 8 0 16 -5 18 -12 3 -8 11 -7 28 5 14 9 32 17 42 17 10 0 18 5 18 10 0 6
-9 10 -19 10 -10 0 -21 7 -25 15 -8 22 -36 18 -36 -5z"/>
<path d="M622 5798 c2 -18 -3 -24 -20 -26 -30 -5 -22 -28 8 -24 13 1 27 -3 31
-10 12 -18 22 -2 22 33 0 28 -15 48 -36 49 -5 0 -7 -10 -5 -22z"/>
<path d="M740 5360 c0 -13 -7 -20 -20 -20 -11 0 -20 -4 -20 -10 0 -5 6 -10 14
-10 8 0 16 -5 18 -12 3 -8 11 -7 28 5 14 9 32 17 42 17 10 0 18 5 18 10 0 6
-9 10 -19 10 -10 0 -21 7 -25 15 -8 22 -36 18 -36 -5z"/>
<path d="M622 5348 c2 -18 -3 -24 -20 -26 -30 -5 -22 -28 8 -24 13 1 27 -3 31
-10 12 -18 22 -2 22 33 0 28 -15 48 -36 49 -5 0 -7 -10 -5 -22z"/>
<path d="M592 5258 c6 -16 36 -34 44 -26 3 4 4 14 1 23 -7 17 -51 21 -45 3z"/>
<path d="M740 4910 c0 -13 -7 -20 -20 -20 -11 0 -20 -4 -20 -10 0 -5 6 -10 14
-10 8 0 16 -5 18 -12 3 -8 11 -7 28 5 14 9 32 17 42 17 10 0 18 5 18 10 0 6
-9 10 -19 10 -10 0 -21 7 -25 15 -8 22 -36 18 -36 -5z"/>
<path d="M622 4898 c2 -18 -3 -24 -20 -26 -30 -5 -22 -28 8 -24 13 1 27 -3 31
-10 12 -18 22 -2 22 33 0 28 -15 48 -36 49 -5 0 -7 -10 -5 -22z"/>
<path d="M592 4808 c6 -16 36 -34 44 -26 3 4 4 14 1 23 -7 17 -51 21 -45 3z"/>
<path d="M564 4754 c3 -9 6 -18 6 -20 0 -2 9 -4 20 -4 24 0 27 25 4 34 -26 10
-36 7 -30 -10z"/>
<path d="M740 4460 c0 -13 -7 -20 -20 -20 -11 0 -20 -4 -20 -10 0 -5 6 -10 14
-10 8 0 16 -5 18 -12 3 -8 11 -7 28 5 14 9 32 17 42 17 10 0 18 5 18 10 0 6
-9 10 -19 10 -10 0 -21 7 -25 15 -8 22 -36 18 -36 -5z"/>
<path d="M622 4448 c2 -18 -3 -24 -20 -26 -30 -5 -22 -28 8 -24 13 1 27 -3 31
-10 12 -18 22 -2 22 33 0 28 -15 48 -36 49 -5 0 -7 -10 -5 -22z"/>
<path d="M592 4358 c6 -16 36 -34 44 -26 3 4 4 14 1 23 -7 17 -51 21 -45 3z"/>
<path d="M564 4304 c3 -9 6 -18 6 -20 0 -2 9 -4 20 -4 24 0 27 25 4 34 -26 10
-36 7 -30 -10z"/>
<path d="M610 4251 c0 -5 -12 -23 -26 -40 -14 -17 -24 -38 -22 -48 6 -34 25
-22 46 30 25 59 26 67 12 67 -5 0 -10 -4 -10 -9z"/>
<path d="M740 4010 c0 -13 -7 -20 -20 -20 -11 0 -20 -4 -20 -10 0 -5 6 -10 14
-10 8 0 16 -5 18 -12 3 -8 11 -7 28 5 14 9 32 17 42 17 10 0 18 5 18 10 0 6
-9 10 -19 10 -10 0 -21 7 -25 15 -8 22 -36 18 -36 -5z"/>
<path d="M622 3998 c2 -18 -3 -24 -20 -26 -30 -5 -22 -28 8 -24 13 1 27 -3 31
-10 12 -18 22 -2 22 33 0 28 -15 48 -36 49 -5 0 -7 -10 -5 -22z"/>
<path d="M723 3927 c-29 -5 -53 -14 -53 -19 0 -6 21 -7 53 -3 57 8 67 12 67
26 0 5 -3 8 -7 8 -5 -1 -32 -6 -60 -12z"/>
<path d="M592 3908 c6 -16 36 -34 44 -26 3 4 4 14 1 23 -7 17 -51 21 -45 3z"/>
<path d="M564 3854 c3 -9 6 -18 6 -20 0 -2 9 -4 20 -4 24 0 27 25 4 34 -26 10
-36 7 -30 -10z"/>
<path d="M610 3801 c0 -5 -12 -23 -26 -40 -14 -17 -24 -38 -22 -48 6 -34 25
-22 46 30 25 59 26 67 12 67 -5 0 -10 -4 -10 -9z"/>
<path d="M740 3560 c0 -13 -7 -20 -20 -20 -11 0 -20 -4 -20 -10 0 -5 6 -10 14
-10 8 0 16 -5 18 -12 3 -8 11 -7 28 5 14 9 32 17 42 17 10 0 18 5 18 10 0 6
-9 10 -19 10 -10 0 -21 7 -25 15 -8 22 -36 18 -36 -5z"/>
<path d="M622 3548 c2 -18 -3 -24 -20 -26 -30 -5 -22 -28 8 -24 13 1 27 -3 31
-10 12 -18 22 -2 22 33 0 28 -15 48 -36 49 -5 0 -7 -10 -5 -22z"/>
<path d="M723 3477 c-29 -5 -53 -14 -53 -19 0 -6 21 -7 53 -3 57 8 67 12 67
26 0 5 -3 8 -7 8 -5 -1 -32 -6 -60 -12z"/>
<path d="M592 3458 c6 -16 36 -34 44 -26 3 4 4 14 1 23 -7 17 -51 21 -45 3z"/>
<path d="M654 3424 c3 -9 6 -31 6 -50 0 -19 5 -34 10 -34 6 0 10 23 10 50 0
39 -3 50 -16 50 -11 0 -14 -5 -10 -16z"/>
<path d="M564 3404 c3 -9 6 -18 6 -20 0 -2 9 -4 20 -4 24 0 27 25 4 34 -26 10
-36 7 -30 -10z"/>
<path d="M610 3351 c0 -5 -12 -23 -26 -40 -14 -17 -24 -38 -22 -48 6 -34 25
-22 46 30 25 59 26 67 12 67 -5 0 -10 -4 -10 -9z"/>
<path d="M740 3110 c0 -13 -7 -20 -20 -20 -11 0 -20 -4 -20 -10 0 -5 6 -10 14
-10 8 0 16 -5 18 -12 3 -8 11 -7 28 5 14 9 32 17 42 17 10 0 18 5 18 10 0 6
-9 10 -19 10 -10 0 -21 7 -25 15 -8 22 -36 18 -36 -5z"/>
<path d="M622 3098 c2 -18 -3 -24 -20 -26 -30 -5 -22 -28 8 -24 13 1 27 -3 31
-10 12 -18 22 -2 22 33 0 28 -15 48 -36 49 -5 0 -7 -10 -5 -22z"/>
<path d="M723 3027 c-29 -5 -53 -14 -53 -19 0 -6 21 -7 53 -3 57 8 67 12 67
26 0 5 -3 8 -7 8 -5 -1 -32 -6 -60 -12z"/>
<path d="M592 3008 c6 -16 36 -34 44 -26 3 4 4 14 1 23 -7 17 -51 21 -45 3z"/>
<path d="M753 3003 c-45 -6 -42 -23 3 -23 l37 0 -6 -40 c-4 -30 -2 -40 9 -40
9 0 15 12 16 35 1 19 2 43 2 52 1 19 -11 22 -61 16z"/>
<path d="M654 2974 c3 -9 6 -31 6 -50 0 -19 5 -34 10 -34 6 0 10 18 10 40 0
22 5 40 10 40 6 0 10 5 10 10 0 6 -12 10 -26 10 -20 0 -25 -4 -20 -16z"/>
<path d="M564 2954 c3 -9 6 -18 6 -20 0 -2 9 -4 20 -4 24 0 27 25 4 34 -26 10
-36 7 -30 -10z"/>
<path d="M610 2901 c0 -5 -12 -23 -26 -40 -14 -17 -24 -38 -22 -48 6 -34 25
-22 46 30 25 59 26 67 12 67 -5 0 -10 -4 -10 -9z"/>
<path d="M740 2660 c0 -13 -7 -20 -20 -20 -11 0 -20 -4 -20 -10 0 -5 6 -10 14
-10 8 0 16 -5 18 -12 3 -8 11 -7 28 5 14 9 32 17 42 17 10 0 18 5 18 10 0 6
-9 10 -19 10 -10 0 -21 7 -25 15 -8 22 -36 18 -36 -5z"/>
<path d="M622 2648 c2 -18 -3 -24 -20 -26 -30 -5 -22 -28 8 -24 13 1 27 -3 31
-10 12 -18 22 -2 22 33 0 28 -15 48 -36 49 -5 0 -7 -10 -5 -22z"/>
<path d="M723 2577 c-29 -5 -53 -14 -53 -19 0 -6 21 -7 53 -3 57 8 67 12 67
26 0 5 -3 8 -7 8 -5 -1 -32 -6 -60 -12z"/>
<path d="M592 2558 c6 -16 36 -34 44 -26 3 4 4 14 1 23 -7 17 -51 21 -45 3z"/>
<path d="M753 2553 c-36 -5 -46 -23 -12 -23 31 0 52 -26 45 -55 -5 -18 -2 -25
9 -25 10 0 16 11 17 35 1 19 2 43 2 52 1 19 -11 22 -61 16z"/>
<path d="M654 2524 c3 -9 6 -31 6 -50 0 -19 5 -34 10 -34 6 0 10 18 10 40 0
22 5 40 10 40 6 0 10 5 10 10 0 6 -12 10 -26 10 -20 0 -25 -4 -20 -16z"/>
<path d="M564 2504 c3 -9 6 -18 6 -20 0 -2 9 -4 20 -4 24 0 27 25 4 34 -26 10
-36 7 -30 -10z"/>
<path d="M710 2510 c0 -5 11 -10 25 -10 14 0 25 5 25 10 0 6 -11 10 -25 10
-14 0 -25 -4 -25 -10z"/>
<path d="M610 2451 c0 -5 -12 -23 -26 -40 -14 -17 -24 -38 -22 -48 6 -34 25
-22 46 30 25 59 26 67 12 67 -5 0 -10 -4 -10 -9z"/>
<path d="M740 2210 c0 -13 -7 -20 -20 -20 -11 0 -20 -4 -20 -10 0 -5 6 -10 14
-10 8 0 16 -5 18 -12 3 -8 11 -7 28 5 14 9 32 17 42 17 10 0 18 5 18 10 0 6
-9 10 -19 10 -10 0 -21 7 -25 15 -8 22 -36 18 -36 -5z"/>
<path d="M622 2198 c2 -18 -3 -24 -20 -26 -30 -5 -22 -28 8 -24 13 1 27 -3 31
-10 12 -18 22 -2 22 33 0 28 -15 48 -36 49 -5 0 -7 -10 -5 -22z"/>
<path d="M723 2127 c-29 -5 -53 -14 -53 -19 0 -6 21 -7 53 -3 57 8 67 12 67
26 0 5 -3 8 -7 8 -5 -1 -32 -6 -60 -12z"/>
<path d="M592 2108 c6 -16 36 -34 44 -26 3 4 4 14 1 23 -7 17 -51 21 -45 3z"/>
<path d="M753 2103 c-36 -5 -46 -23 -12 -23 11 0 27 -7 35 -15 14 -13 14 -15
0 -15 -9 0 -16 5 -16 10 0 6 -11 10 -25 10 -14 0 -25 -4 -25 -10 0 -5 9 -10
20 -10 11 0 20 -4 20 -10 0 -5 9 -10 20 -10 13 0 18 -5 14 -15 -4 -9 0 -15 10
-15 11 0 16 10 18 35 1 19 2 43 2 52 1 19 -11 22 -61 16z"/>
<path d="M654 2074 c3 -9 6 -31 6 -50 0 -19 5 -34 10 -34 6 0 10 7 10 15 0 10
10 15 30 15 17 0 30 5 30 10 0 6 -13 10 -30 10 -20 0 -30 5 -30 15 0 8 5 15
10 15 6 0 10 5 10 10 0 6 -12 10 -26 10 -20 0 -25 -4 -20 -16z"/>
<path d="M564 2054 c3 -9 6 -18 6 -20 0 -2 9 -4 20 -4 24 0 27 25 4 34 -26 10
-36 7 -30 -10z"/>
<path d="M610 2001 c0 -5 -12 -23 -26 -40 -14 -17 -24 -38 -22 -48 6 -34 25
-22 46 30 25 59 26 67 12 67 -5 0 -10 -4 -10 -9z"/>
<path d="M740 1760 c0 -13 -7 -20 -20 -20 -11 0 -20 -4 -20 -10 0 -5 7 -10 15
-10 8 0 15 -4 15 -10 0 -5 -4 -10 -10 -10 -5 0 -10 -7 -10 -15 0 -8 -9 -15
-20 -15 -11 0 -20 -4 -20 -10 0 -5 11 -10 25 -10 21 0 24 -4 22 -30 -1 -21 -7
-30 -19 -30 -10 0 -18 7 -18 15 0 8 5 15 10 15 6 0 10 5 10 10 0 6 -12 10 -26
10 -20 0 -25 -4 -20 -16 3 -9 6 -31 6 -50 0 -19 5 -34 10 -34 6 0 10 7 10 15
0 8 9 15 20 15 11 0 20 -7 20 -15 0 -22 17 -18 23 5 3 12 14 20 26 20 14 0 19
-5 15 -15 -4 -9 0 -15 9 -15 10 0 16 15 20 47 3 27 3 51 0 56 -2 4 -21 5 -41
3 -26 -4 -29 -3 -13 2 14 4 27 14 29 21 3 9 -2 11 -16 7 -11 -4 -23 -2 -26 3
-8 12 32 41 56 41 10 0 18 5 18 10 0 6 -9 10 -19 10 -10 0 -21 7 -25 15 -8 22
-36 18 -36 -5z m36 -145 c10 -9 11 -15 4 -15 -6 0 -18 7 -26 15 -10 9 -11 15
-4 15 6 0 18 -7 26 -15z"/>
<path d="M622 1748 c2 -18 -3 -24 -20 -26 -30 -5 -22 -28 8 -24 13 1 27 -3 31
-10 12 -18 22 -2 22 33 0 28 -15 48 -36 49 -5 0 -7 -10 -5 -22z"/>
<path d="M592 1658 c6 -16 36 -34 44 -26 3 4 4 14 1 23 -7 17 -51 21 -45 3z"/>
<path d="M564 1604 c3 -9 6 -18 6 -20 0 -2 9 -4 20 -4 24 0 27 25 4 34 -26 10
-36 7 -30 -10z"/>
<path d="M610 1551 c0 -5 -12 -23 -26 -40 -14 -17 -24 -38 -22 -48 6 -34 25
-22 46 30 25 59 26 67 12 67 -5 0 -10 -4 -10 -9z"/>
<path d="M740 1310 c0 -13 -7 -20 -20 -20 -11 0 -20 -4 -20 -10 0 -5 7 -10 15
-10 8 0 15 -4 15 -10 0 -5 -4 -10 -10 -10 -5 0 -10 -7 -10 -15 0 -8 -9 -15
-20 -15 -11 0 -20 -4 -20 -10 0 -5 11 -10 25 -10 21 0 24 -4 22 -30 -1 -21 -7
-30 -19 -30 -10 0 -18 7 -18 15 0 8 5 15 10 15 6 0 10 5 10 10 0 6 -12 10 -26
10 -20 0 -25 -4 -20 -16 3 -9 6 -31 6 -50 0 -19 5 -34 10 -34 6 0 10 7 10 15
0 8 9 15 20 15 11 0 20 -7 20 -15 0 -22 17 -18 23 5 3 12 14 20 26 20 14 0 19
-5 15 -15 -4 -9 0 -15 9 -15 10 0 16 15 20 47 3 27 3 51 0 56 -2 4 -21 5 -41
2 -20 -3 -30 -2 -22 1 8 3 22 8 30 11 8 3 23 5 33 4 21 -3 22 12 2 29 -11 10
-18 9 -30 -4 -19 -18 -31 -20 -40 -7 -7 12 34 41 57 41 10 0 18 5 18 10 0 6
-9 10 -19 10 -10 0 -21 7 -25 15 -8 22 -36 18 -36 -5z m36 -145 c10 -9 11 -15
4 -15 -6 0 -18 7 -26 15 -10 9 -11 15 -4 15 6 0 18 -7 26 -15z"/>
<path d="M622 1298 c2 -18 -3 -24 -20 -26 -30 -5 -22 -28 8 -24 13 1 27 -3 31
-10 12 -18 22 -2 22 33 0 28 -15 48 -36 49 -5 0 -7 -10 -5 -22z"/>
<path d="M592 1208 c6 -16 36 -34 44 -26 3 4 4 14 1 23 -7 17 -51 21 -45 3z"/>
<path d="M564 1154 c3 -9 6 -18 6 -20 0 -2 9 -4 20 -4 24 0 27 25 4 34 -26 10
-36 7 -30 -10z"/>
<path d="M610 1101 c0 -5 -12 -23 -26 -40 -14 -17 -24 -38 -22 -48 6 -34 25
-22 46 30 25 59 26 67 12 67 -5 0 -10 -4 -10 -9z"/>
<path d="M740 860 c0 -13 -7 -20 -20 -20 -11 0 -20 -4 -20 -10 0 -5 7 -10 15
-10 8 0 15 -4 15 -10 0 -5 -4 -10 -10 -10 -5 0 -10 -7 -10 -15 0 -8 -9 -15
-20 -15 -11 0 -20 -4 -20 -10 0 -5 11 -10 25 -10 21 0 24 -4 22 -30 -1 -21 -7
-30 -19 -30 -10 0 -18 7 -18 15 0 8 5 15 10 15 6 0 10 5 10 10 0 6 -12 10 -26
10 -20 0 -25 -4 -20 -16 3 -9 6 -31 6 -50 0 -19 5 -34 10 -34 6 0 10 7 10 15
0 8 9 15 20 15 11 0 20 -7 20 -15 0 -22 17 -18 23 5 3 12 14 20 26 20 14 0 19
-5 15 -15 -4 -9 0 -15 9 -15 10 0 16 15 20 47 3 27 3 51 0 56 -2 4 -21 5 -41
2 -20 -3 -30 -2 -22 1 8 3 22 8 30 11 8 3 23 5 33 4 21 -3 22 12 2 29 -11 10
-18 9 -30 -4 -19 -18 -31 -20 -40 -7 -7 12 34 41 57 41 10 0 18 5 18 10 0 6
-9 10 -19 10 -10 0 -21 7 -25 15 -8 22 -36 18 -36 -5z m36 -145 c10 -9 11 -15
4 -15 -6 0 -18 7 -26 15 -10 9 -11 15 -4 15 6 0 18 -7 26 -15z"/>
<path d="M622 848 c2 -18 -3 -24 -20 -26 -30 -5 -22 -28 8 -24 13 1 27 -3 31
-10 12 -18 22 -2 22 33 0 28 -15 48 -36 49 -5 0 -7 -10 -5 -22z"/>
<path d="M592 758 c6 -16 36 -34 44 -26 3 4 4 14 1 23 -7 17 -51 21 -45 3z"/>
<path d="M564 704 c3 -9 6 -18 6 -20 0 -2 9 -4 20 -4 24 0 27 25 4 34 -26 10
-36 7 -30 -10z"/>
<path d="M610 651 c0 -5 -12 -23 -26 -40 -14 -17 -24 -38 -22 -48 6 -34 25
-22 46 30 25 59 26 67 12 67 -5 0 -10 -4 -10 -9z"/>
<path d="M708 627 c-97 -12 -106 -32 -10 -23 106 10 142 17 142 27 0 11 -26
10 -132 -4z"/>
<path d="M740 410 c0 -13 -7 -20 -20 -20 -11 0 -20 -4 -20 -10 0 -5 7 -10 15
-10 8 0 15 -4 15 -10 0 -5 -4 -10 -10 -10 -5 0 -10 -7 -10 -15 0 -8 -9 -15
-20 -15 -11 0 -20 -4 -20 -10 0 -5 11 -10 25 -10 21 0 24 -4 22 -30 -1 -21 -7
-30 -19 -30 -10 0 -18 7 -18 15 0 8 5 15 10 15 6 0 10 5 10 10 0 6 -12 10 -26
10 -20 0 -25 -4 -20 -16 3 -9 6 -31 6 -50 0 -19 5 -34 10 -34 6 0 10 7 10 15
0 8 9 15 20 15 11 0 20 -7 20 -15 0 -22 17 -18 23 5 3 12 14 20 26 20 26 0 26
-2 3 -28 -13 -15 -36 -23 -80 -28 -34 -3 -62 -11 -62 -16 0 -7 24 -8 65 -3
l65 7 0 -30 c0 -17 -5 -32 -11 -34 -14 -5 0 -38 17 -38 14 0 21 21 26 75 2 22
9 31 26 33 31 5 27 22 -5 22 -16 0 -23 4 -17 8 7 4 14 30 15 57 l4 50 -40 -2
c-22 -1 -33 0 -25 3 8 3 22 8 30 11 8 3 23 5 33 4 21 -3 22 12 2 29 -11 10
-18 9 -30 -4 -19 -18 -31 -20 -40 -7 -7 12 34 41 57 41 10 0 18 5 18 10 0 6
-9 10 -19 10 -10 0 -21 7 -25 15 -8 22 -36 18 -36 -5z m36 -145 c10 -9 11 -15
4 -15 -6 0 -18 7 -26 15 -10 9 -11 15 -4 15 6 0 18 -7 26 -15z"/>
<path d="M622 398 c2 -18 -3 -24 -20 -26 -30 -5 -22 -28 8 -24 13 1 27 -3 31
-10 12 -18 22 -2 22 33 0 28 -15 48 -36 49 -5 0 -7 -10 -5 -22z"/>
<path d="M592 308 c6 -16 36 -34 44 -26 3 4 4 14 1 23 -7 17 -51 21 -45 3z"/>
<path d="M564 254 c3 -9 6 -18 6 -20 0 -2 9 -4 20 -4 24 0 27 25 4 34 -26 10
-36 7 -30 -10z"/>
<path d="M610 201 c0 -5 -12 -23 -26 -40 -14 -17 -24 -38 -22 -48 6 -34 25
-22 46 30 25 59 26 67 12 67 -5 0 -10 -4 -10 -9z"/>
</g>
</svg>
