<?xml version="1.0" standalone="no"?>
<!DOCTYPE svg PUBLIC "-//W3C//DTD SVG 20010904//EN"
 "http://www.w3.org/TR/2001/REC-SVG-20010904/DTD/svg10.dtd">
<svg version="1.0" xmlns="http://www.w3.org/2000/svg"
 width="95.000000pt" height="725.000000pt" viewBox="0 0 95.000000 725.000000"
 preserveAspectRatio="xMidYMid meet">
<metadata>
Created by potrace 1.16, written by Peter Selinger 2001-2019
</metadata>
<g transform="translate(0.000000,725.000000) scale(0.100000,-0.100000)"
fill="#000000" stroke="none">
<path d="M290 7155 c0 -18 -5 -25 -20 -25 -11 0 -20 -4 -20 -9 0 -13 43 -22
54 -11 6 6 23 10 38 10 15 0 28 5 28 10 0 6 -12 10 -26 10 -16 0 -23 4 -18 11
3 6 0 15 -7 20 -23 14 -29 11 -29 -16z"/>
<path d="M173 7140 c4 -17 0 -20 -25 -20 -19 0 -28 -4 -25 -12 2 -8 17 -12 36
-10 17 1 31 -2 31 -8 0 -5 5 -10 10 -10 6 0 10 7 10 15 0 8 5 15 10 15 6 0 10
5 10 10 0 6 -7 10 -15 10 -8 0 -15 7 -15 15 0 8 -7 15 -16 15 -11 0 -15 -6
-11 -20z"/>
<path d="M620 7151 c0 -4 5 -22 11 -40 19 -54 38 -32 23 27 -6 21 -34 32 -34
13z"/>
<path d="M269 7058 c0 -30 -1 -31 -9 -10 -13 32 -29 27 -28 -8 1 -18 6 -30 15
-30 7 0 13 -4 13 -10 0 -5 -11 -10 -25 -10 -14 0 -25 -4 -25 -10 0 -5 7 -10
17 -10 14 0 14 -2 -2 -20 -24 -26 -12 -37 19 -17 13 9 26 13 30 10 10 -10 7
-93 -4 -93 -12 0 -13 -11 0 -30 16 -25 28 1 32 73 4 60 2 67 -15 67 -10 0 -15
5 -12 10 11 17 23 11 56 -25 25 -27 40 -35 66 -35 46 0 41 12 -14 40 -46 23
-47 24 -20 28 49 6 24 27 -29 25 -35 -2 -45 0 -34 7 8 5 25 10 38 10 12 0 22
5 22 10 0 6 -13 10 -28 10 -23 0 -28 4 -28 22 1 14 -6 24 -16 26 -14 3 -18 -4
-19 -30z"/>
<path d="M326 7074 c-9 -22 -2 -27 24 -19 12 4 19 12 17 18 -6 19 -34 20 -41
1z"/>
<path d="M143 7063 c-20 -4 -23 -11 -23 -52 0 -26 -7 -70 -15 -97 -18 -59 -17
-54 -4 -54 6 0 18 18 26 40 20 50 43 53 43 6 0 -19 -5 -36 -12 -38 -16 -6 -2
-38 16 -38 20 0 25 24 28 143 3 106 6 103 -59 90z m29 -45 c-15 -15 -26 -4
-18 18 5 13 9 15 18 6 9 -9 9 -15 0 -24z m8 -37 c0 -5 -9 -11 -20 -14 -20 -5
-26 3 -13 16 9 10 33 8 33 -2z"/>
<path d="M245 6901 c4 -14 0 -21 -15 -26 -22 -7 -26 -20 -9 -30 5 -4 19 1 30
11 23 21 26 64 3 64 -11 0 -13 -6 -9 -19z"/>
<path d="M290 6705 c0 -18 -5 -25 -20 -25 -11 0 -20 -4 -20 -9 0 -13 43 -22
54 -11 6 6 23 10 38 10 15 0 28 5 28 10 0 6 -12 10 -26 10 -16 0 -23 4 -18 11
3 6 0 15 -7 20 -23 14 -29 11 -29 -16z"/>
<path d="M173 6690 c4 -17 0 -20 -25 -20 -19 0 -28 -4 -25 -12 2 -8 17 -12 36
-10 17 1 31 -2 31 -8 0 -5 5 -10 10 -10 6 0 10 7 10 15 0 8 5 15 10 15 6 0 10
5 10 10 0 6 -7 10 -15 10 -8 0 -15 7 -15 15 0 8 -7 15 -16 15 -11 0 -15 -6
-11 -20z"/>
<path d="M623 6690 c4 -17 0 -20 -25 -20 -19 0 -28 -4 -25 -12 2 -8 17 -12 36
-10 17 1 31 -2 31 -8 0 -5 5 -10 10 -10 6 0 10 7 10 15 0 8 5 15 10 15 6 0 10
5 10 10 0 6 -7 10 -15 10 -8 0 -15 7 -15 15 0 8 -7 15 -16 15 -11 0 -15 -6
-11 -20z"/>
<path d="M269 6608 c0 -30 -1 -31 -9 -10 -13 32 -29 27 -28 -8 1 -18 6 -30 15
-30 7 0 13 -4 13 -10 0 -5 -11 -10 -25 -10 -14 0 -25 -4 -25 -10 0 -5 7 -10
17 -10 14 0 14 -2 -2 -20 -24 -26 -12 -37 19 -17 13 9 26 13 30 10 10 -10 7
-93 -4 -93 -12 0 -13 -11 0 -30 16 -25 28 1 32 73 4 60 2 67 -15 67 -10 0 -15
5 -12 10 9 14 21 12 39 -6 12 -11 13 -20 6 -34 -14 -27 -12 -33 8 -25 9 4 36
7 60 6 23 -1 42 2 42 7 0 4 -21 19 -47 32 -46 23 -47 24 -20 28 49 6 24 27
-29 25 -35 -2 -45 0 -34 7 8 5 25 10 38 10 12 0 22 5 22 10 0 6 -13 10 -28 10
-23 0 -28 4 -28 22 1 14 -6 24 -16 26 -14 3 -18 -4 -19 -30z"/>
<path d="M326 6624 c-9 -22 -2 -27 24 -19 12 4 19 12 17 18 -6 19 -34 20 -41
1z"/>
<path d="M143 6613 c-20 -4 -23 -11 -23 -52 0 -26 -7 -70 -15 -97 -18 -59 -17
-54 -4 -54 6 0 18 18 26 40 20 50 43 53 43 6 0 -19 -5 -36 -12 -38 -16 -6 -2
-38 16 -38 20 0 25 24 28 143 3 106 6 103 -59 90z m29 -45 c-15 -15 -26 -4
-18 18 5 13 9 15 18 6 9 -9 9 -15 0 -24z m8 -37 c0 -5 -9 -11 -20 -14 -20 -5
-26 3 -13 16 9 10 33 8 33 -2z"/>
<path d="M245 6451 c4 -14 0 -21 -15 -26 -22 -7 -26 -20 -9 -30 5 -4 19 1 30
11 23 21 26 64 3 64 -11 0 -13 -6 -9 -19z"/>
<path d="M290 6255 c0 -18 -5 -25 -20 -25 -11 0 -20 -4 -20 -9 0 -13 43 -22
54 -11 6 6 23 10 38 10 15 0 28 5 28 10 0 6 -12 10 -26 10 -16 0 -23 4 -18 11
3 6 0 15 -7 20 -23 14 -29 11 -29 -16z"/>
<path d="M173 6240 c4 -17 0 -20 -25 -20 -19 0 -28 -4 -25 -12 2 -8 17 -12 36
-10 17 1 31 -2 31 -8 0 -5 5 -10 10 -10 6 0 10 7 10 15 0 8 5 15 10 15 6 0 10
5 10 10 0 6 -7 10 -15 10 -8 0 -15 7 -15 15 0 8 -7 15 -16 15 -11 0 -15 -6
-11 -20z"/>
<path d="M623 6240 c4 -17 0 -20 -25 -20 -19 0 -28 -4 -25 -12 2 -8 17 -12 36
-10 17 1 31 -2 31 -8 0 -5 5 -10 10 -10 6 0 10 7 10 15 0 8 5 15 10 15 6 0 10
5 10 10 0 6 -7 10 -15 10 -8 0 -15 7 -15 15 0 8 -7 15 -16 15 -11 0 -15 -6
-11 -20z"/>
<path d="M728 6233 c-16 -2 -28 -9 -28 -15 0 -7 14 -8 38 -4 20 3 47 6 60 6
12 0 22 5 22 10 0 10 -38 11 -92 3z"/>
<path d="M269 6158 c0 -30 -1 -31 -9 -10 -13 32 -29 27 -28 -8 1 -18 6 -30 15
-30 7 0 13 -4 13 -10 0 -5 -11 -10 -25 -10 -14 0 -25 -4 -25 -10 0 -5 7 -10
17 -10 14 0 14 -2 -2 -20 -24 -26 -12 -37 19 -17 13 9 26 13 30 10 10 -10 7
-93 -4 -93 -12 0 -13 -11 0 -30 16 -25 28 1 32 73 4 60 2 67 -15 67 -10 0 -15
5 -12 10 9 14 21 12 39 -6 12 -11 13 -20 6 -34 -14 -27 -12 -33 8 -25 9 4 36
7 60 6 23 -1 42 2 42 7 0 4 -21 19 -47 32 -46 23 -47 24 -20 28 49 6 24 27
-29 25 -35 -2 -45 0 -34 7 8 5 25 10 38 10 12 0 22 5 22 10 0 6 -13 10 -28 10
-23 0 -28 4 -28 22 1 14 -6 24 -16 26 -14 3 -18 -4 -19 -30z"/>
<path d="M326 6174 c-9 -22 -2 -27 24 -19 12 4 19 12 17 18 -6 19 -34 20 -41
1z"/>
<path d="M143 6163 c-20 -4 -23 -11 -23 -52 0 -26 -7 -70 -15 -97 -18 -59 -17
-54 -4 -54 6 0 18 18 26 40 20 50 43 53 43 6 0 -19 -5 -36 -12 -38 -16 -6 -2
-38 16 -38 20 0 25 24 28 143 3 106 6 103 -59 90z m29 -45 c-15 -15 -26 -4
-18 18 5 13 9 15 18 6 9 -9 9 -15 0 -24z m8 -37 c0 -5 -9 -11 -20 -14 -20 -5
-26 3 -13 16 9 10 33 8 33 -2z"/>
<path d="M245 6001 c4 -14 0 -21 -15 -26 -22 -7 -26 -20 -9 -30 5 -4 19 1 30
11 23 21 26 64 3 64 -11 0 -13 -6 -9 -19z"/>
<path d="M320 5983 c1 -14 27 -43 39 -43 15 0 14 23 -1 38 -13 13 -38 16 -38
5z"/>
<path d="M740 5805 c0 -18 -5 -25 -20 -25 -11 0 -20 -4 -20 -9 0 -13 43 -22
54 -11 6 6 23 10 38 10 15 0 28 5 28 10 0 6 -12 10 -26 10 -16 0 -23 4 -18 11
3 6 0 15 -7 20 -23 14 -29 11 -29 -16z"/>
<path d="M623 5790 c4 -17 0 -20 -25 -20 -19 0 -28 -4 -25 -12 2 -8 17 -12 36
-10 17 1 31 -2 31 -8 0 -5 5 -10 10 -10 6 0 10 7 10 15 0 8 5 15 10 15 6 0 10
5 10 10 0 6 -7 10 -15 10 -8 0 -15 7 -15 15 0 8 -7 15 -16 15 -11 0 -15 -6
-11 -20z"/>
<path d="M740 5355 c0 -18 -5 -25 -20 -25 -11 0 -20 -4 -20 -9 0 -13 43 -22
54 -11 6 6 23 10 38 10 15 0 28 5 28 10 0 6 -12 10 -26 10 -16 0 -23 4 -18 11
3 6 0 15 -7 20 -23 14 -29 11 -29 -16z"/>
<path d="M623 5340 c4 -17 0 -20 -25 -20 -19 0 -28 -4 -25 -12 2 -8 17 -12 36
-10 17 1 31 -2 31 -8 0 -5 5 -10 10 -10 6 0 10 7 10 15 0 8 5 15 10 15 6 0 10
5 10 10 0 6 -7 10 -15 10 -8 0 -15 7 -15 15 0 8 -7 15 -16 15 -11 0 -15 -6
-11 -20z"/>
<path d="M570 5212 c0 -27 -7 -71 -15 -98 -18 -59 -17 -54 -4 -54 16 0 38 62
45 134 6 57 5 66 -10 66 -13 0 -16 -10 -16 -48z"/>
<path d="M740 4905 c0 -18 -5 -25 -20 -25 -11 0 -20 -4 -20 -9 0 -13 43 -22
54 -11 6 6 23 10 38 10 15 0 28 5 28 10 0 6 -12 10 -26 10 -16 0 -23 4 -18 11
3 6 0 15 -7 20 -23 14 -29 11 -29 -16z"/>
<path d="M623 4890 c4 -17 0 -20 -25 -20 -19 0 -28 -4 -25 -12 2 -8 17 -12 36
-10 17 1 31 -2 31 -8 0 -5 5 -10 10 -10 6 0 10 7 10 15 0 8 5 15 10 15 6 0 10
5 10 10 0 6 -7 10 -15 10 -8 0 -15 7 -15 15 0 8 -7 15 -16 15 -11 0 -15 -6
-11 -20z"/>
<path d="M593 4813 c-20 -4 -23 -11 -23 -52 0 -26 -7 -70 -15 -97 -18 -59 -17
-54 -5 -54 16 0 31 39 43 112 7 38 17 68 22 66 13 -4 6 -161 -7 -169 -15 -9
-2 -39 16 -39 20 0 25 24 28 143 3 106 6 103 -59 90z"/>
<path d="M740 4455 c0 -18 -5 -25 -20 -25 -11 0 -20 -4 -20 -9 0 -13 43 -22
54 -11 6 6 23 10 38 10 15 0 28 5 28 10 0 6 -12 10 -26 10 -16 0 -23 4 -18 11
3 6 0 15 -7 20 -23 14 -29 11 -29 -16z"/>
<path d="M623 4440 c4 -17 0 -20 -25 -20 -19 0 -28 -4 -25 -12 2 -8 17 -12 36
-10 17 1 31 -2 31 -8 0 -5 5 -10 10 -10 6 0 10 7 10 15 0 8 5 15 10 15 6 0 10
5 10 10 0 6 -7 10 -15 10 -8 0 -15 7 -15 15 0 8 -7 15 -16 15 -11 0 -15 -6
-11 -20z"/>
<path d="M593 4363 c-20 -4 -23 -11 -23 -52 0 -26 -7 -70 -15 -96 -8 -27 -12
-52 -9 -55 10 -9 34 32 40 69 8 53 12 61 27 61 10 0 13 -13 9 -57 -3 -32 -9
-61 -15 -64 -14 -10 -1 -39 17 -39 20 0 25 24 28 143 3 106 6 103 -59 90z m29
-45 c-15 -15 -26 -4 -18 18 5 13 9 15 18 6 9 -9 9 -15 0 -24z"/>
<path d="M740 4005 c0 -18 -5 -25 -20 -25 -11 0 -20 -4 -20 -9 0 -13 43 -22
54 -11 6 6 23 10 38 10 15 0 28 5 28 10 0 6 -12 10 -26 10 -16 0 -23 4 -18 11
3 6 0 15 -7 20 -23 14 -29 11 -29 -16z"/>
<path d="M623 3990 c4 -17 0 -20 -25 -20 -19 0 -28 -4 -25 -12 2 -8 17 -12 36
-10 17 1 31 -2 31 -8 0 -5 5 -10 10 -10 6 0 10 7 10 15 0 8 5 15 10 15 6 0 10
5 10 10 0 6 -7 10 -15 10 -8 0 -15 7 -15 15 0 8 -7 15 -16 15 -11 0 -15 -6
-11 -20z"/>
<path d="M593 3913 c-20 -4 -23 -11 -23 -52 0 -26 -7 -70 -15 -97 -18 -59 -17
-54 -4 -54 6 0 18 18 26 40 20 50 43 53 43 6 0 -19 -5 -36 -12 -38 -16 -6 -2
-38 16 -38 20 0 25 24 28 143 3 106 6 103 -59 90z m29 -45 c-15 -15 -26 -4
-18 18 5 13 9 15 18 6 9 -9 9 -15 0 -24z m8 -37 c0 -5 -9 -11 -20 -14 -20 -5
-26 3 -13 16 9 10 33 8 33 -2z"/>
<path d="M740 3555 c0 -18 -5 -25 -20 -25 -11 0 -20 -4 -20 -9 0 -13 43 -22
54 -11 6 6 23 10 38 10 15 0 28 5 28 10 0 6 -12 10 -26 10 -16 0 -23 4 -18 11
3 6 0 15 -7 20 -23 14 -29 11 -29 -16z"/>
<path d="M623 3540 c4 -17 0 -20 -25 -20 -19 0 -28 -4 -25 -12 2 -8 17 -12 36
-10 17 1 31 -2 31 -8 0 -5 5 -10 10 -10 6 0 10 7 10 15 0 8 5 15 10 15 6 0 10
5 10 10 0 6 -7 10 -15 10 -8 0 -15 7 -15 15 0 8 -7 15 -16 15 -11 0 -15 -6
-11 -20z"/>
<path d="M593 3463 c-20 -4 -23 -11 -23 -52 0 -26 -7 -70 -15 -97 -18 -59 -17
-54 -4 -54 6 0 18 18 26 40 20 50 43 53 43 6 0 -19 -5 -36 -12 -38 -16 -6 -2
-38 16 -38 20 0 25 24 28 143 3 106 6 103 -59 90z m29 -45 c-15 -15 -26 -4
-18 18 5 13 9 15 18 6 9 -9 9 -15 0 -24z m8 -37 c0 -5 -9 -11 -20 -14 -20 -5
-26 3 -13 16 9 10 33 8 33 -2z"/>
<path d="M682 3454 c1 -9 9 -19 16 -22 9 -3 13 2 10 14 -1 9 -9 19 -16 22 -9
3 -13 -2 -10 -14z"/>
<path d="M740 3105 c0 -18 -5 -25 -20 -25 -11 0 -20 -4 -20 -9 0 -13 43 -22
54 -11 6 6 23 10 38 10 15 0 28 5 28 10 0 6 -12 10 -26 10 -16 0 -23 4 -18 11
3 6 0 15 -7 20 -23 14 -29 11 -29 -16z"/>
<path d="M623 3090 c4 -17 0 -20 -25 -20 -19 0 -28 -4 -25 -12 2 -8 17 -12 36
-10 17 1 31 -2 31 -8 0 -5 5 -10 10 -10 6 0 10 7 10 15 0 8 5 15 10 15 6 0 10
5 10 10 0 6 -7 10 -15 10 -8 0 -15 7 -15 15 0 8 -7 15 -16 15 -11 0 -15 -6
-11 -20z"/>
<path d="M776 3024 c-9 -22 -2 -27 24 -19 12 4 19 12 17 18 -6 19 -34 20 -41
1z"/>
<path d="M593 3013 c-20 -4 -23 -11 -23 -52 0 -26 -7 -70 -15 -97 -18 -59 -17
-54 -4 -54 6 0 18 18 26 40 20 50 43 53 43 6 0 -19 -5 -36 -12 -38 -16 -6 -2
-38 16 -38 20 0 25 24 28 143 3 106 6 103 -59 90z m29 -45 c-15 -15 -26 -4
-18 18 5 13 9 15 18 6 9 -9 9 -15 0 -24z m8 -37 c0 -5 -9 -11 -20 -14 -20 -5
-26 3 -13 16 9 10 33 8 33 -2z"/>
<path d="M682 3004 c1 -9 9 -19 16 -22 9 -3 13 2 10 14 -1 9 -9 19 -16 22 -9
3 -13 -2 -10 -14z"/>
<path d="M740 2655 c0 -18 -5 -25 -20 -25 -11 0 -20 -4 -20 -9 0 -13 43 -22
54 -11 6 6 23 10 38 10 15 0 28 5 28 10 0 6 -12 10 -26 10 -16 0 -23 4 -18 11
3 6 0 15 -7 20 -23 14 -29 11 -29 -16z"/>
<path d="M623 2640 c4 -17 0 -20 -25 -20 -19 0 -28 -4 -25 -12 2 -8 17 -12 36
-10 17 1 31 -2 31 -8 0 -5 5 -10 10 -10 6 0 10 7 10 15 0 8 5 15 10 15 6 0 10
5 10 10 0 6 -7 10 -15 10 -8 0 -15 7 -15 15 0 8 -7 15 -16 15 -11 0 -15 -6
-11 -20z"/>
<path d="M776 2574 c-9 -22 -2 -27 24 -19 12 4 19 12 17 18 -6 19 -34 20 -41
1z"/>
<path d="M593 2563 c-20 -4 -23 -11 -23 -52 0 -26 -7 -70 -15 -97 -18 -59 -17
-54 -4 -54 6 0 18 18 26 40 20 50 43 53 43 6 0 -19 -5 -36 -12 -38 -16 -6 -2
-38 16 -38 20 0 25 24 28 143 3 106 6 103 -59 90z m29 -45 c-15 -15 -26 -4
-18 18 5 13 9 15 18 6 9 -9 9 -15 0 -24z m8 -37 c0 -5 -9 -11 -20 -14 -20 -5
-26 3 -13 16 9 10 33 8 33 -2z"/>
<path d="M682 2540 c1 -33 14 -36 91 -24 56 10 46 28 -12 21 -43 -5 -50 -3
-54 14 -8 30 -26 22 -25 -11z"/>
<path d="M740 2205 c0 -18 -5 -25 -20 -25 -11 0 -20 -4 -20 -9 0 -13 43 -22
54 -11 6 6 23 10 38 10 15 0 28 5 28 10 0 6 -12 10 -26 10 -16 0 -23 4 -18 11
3 6 0 15 -7 20 -23 14 -29 11 -29 -16z"/>
<path d="M623 2190 c4 -17 0 -20 -25 -20 -19 0 -28 -4 -25 -12 2 -8 17 -12 36
-10 17 1 31 -2 31 -8 0 -5 5 -10 10 -10 6 0 10 7 10 15 0 8 5 15 10 15 6 0 10
5 10 10 0 6 -7 10 -15 10 -8 0 -15 7 -15 15 0 8 -7 15 -16 15 -11 0 -15 -6
-11 -20z"/>
<path d="M776 2124 c-9 -22 -2 -27 24 -19 12 4 19 12 17 18 -6 19 -34 20 -41
1z"/>
<path d="M593 2113 c-20 -4 -23 -11 -23 -52 0 -26 -7 -70 -15 -97 -18 -59 -17
-54 -4 -54 6 0 18 18 26 40 20 50 43 53 43 6 0 -19 -5 -36 -12 -38 -16 -6 -2
-38 16 -38 20 0 25 24 28 143 3 106 6 103 -59 90z m29 -45 c-15 -15 -26 -4
-18 18 5 13 9 15 18 6 9 -9 9 -15 0 -24z m8 -37 c0 -5 -9 -11 -20 -14 -20 -5
-26 3 -13 16 9 10 33 8 33 -2z"/>
<path d="M682 2090 c1 -33 14 -36 91 -24 56 10 46 28 -12 21 -43 -5 -50 -3
-54 14 -8 30 -26 22 -25 -11z"/>
<path d="M723 2047 c-94 -15 -77 -29 25 -21 95 7 97 8 87 23 -7 13 -25 12
-112 -2z"/>
<path d="M740 1755 c0 -18 -5 -25 -20 -25 -11 0 -20 -4 -20 -9 0 -13 43 -22
54 -11 6 6 23 10 38 10 15 0 28 5 28 10 0 6 -12 10 -26 10 -16 0 -23 4 -18 11
3 6 0 15 -7 20 -23 14 -29 11 -29 -16z"/>
<path d="M623 1740 c4 -17 0 -20 -25 -20 -19 0 -28 -4 -25 -12 2 -8 17 -12 36
-10 17 1 31 -2 31 -8 0 -5 5 -10 10 -10 6 0 10 7 10 15 0 8 5 15 10 15 6 0 10
5 10 10 0 6 -7 10 -15 10 -8 0 -15 7 -15 15 0 8 -7 15 -16 15 -11 0 -15 -6
-11 -20z"/>
<path d="M719 1658 c0 -30 -1 -31 -9 -10 -13 32 -29 27 -28 -8 1 -18 6 -30 15
-30 7 0 13 -4 13 -10 0 -5 -11 -10 -25 -10 -14 0 -25 -4 -25 -10 0 -5 7 -10
17 -10 14 0 14 -2 -2 -20 -10 -11 -16 -23 -12 -26 8 -9 45 14 57 36 9 16 21
20 66 20 40 0 54 3 51 13 -3 8 -21 11 -53 10 -35 -2 -45 0 -34 7 8 5 25 10 38
10 12 0 22 5 22 10 0 6 -13 10 -28 10 -23 0 -28 4 -28 22 1 14 -6 24 -16 26
-14 3 -18 -4 -19 -30z"/>
<path d="M776 1674 c-9 -22 -2 -27 24 -19 12 4 19 12 17 18 -6 19 -34 20 -41
1z"/>
<path d="M593 1663 c-20 -4 -23 -11 -23 -52 0 -26 -7 -70 -15 -97 -18 -59 -17
-54 -4 -54 6 0 18 18 26 40 20 50 43 53 43 6 0 -19 -5 -36 -12 -38 -16 -6 -2
-38 16 -38 20 0 25 24 28 143 3 106 6 103 -59 90z m29 -45 c-15 -15 -26 -4
-18 18 5 13 9 15 18 6 9 -9 9 -15 0 -24z m8 -37 c0 -5 -9 -11 -20 -14 -20 -5
-26 3 -13 16 9 10 33 8 33 -2z"/>
<path d="M740 1305 c0 -18 -5 -25 -20 -25 -11 0 -20 -4 -20 -9 0 -13 43 -22
54 -11 6 6 23 10 38 10 15 0 28 5 28 10 0 6 -12 10 -26 10 -16 0 -23 4 -18 11
3 6 0 15 -7 20 -23 14 -29 11 -29 -16z"/>
<path d="M623 1290 c4 -17 0 -20 -25 -20 -19 0 -28 -4 -25 -12 2 -8 17 -12 36
-10 17 1 31 -2 31 -8 0 -5 5 -10 10 -10 6 0 10 7 10 15 0 8 5 15 10 15 6 0 10
5 10 10 0 6 -7 10 -15 10 -8 0 -15 7 -15 15 0 8 -7 15 -16 15 -11 0 -15 -6
-11 -20z"/>
<path d="M719 1208 c0 -30 -1 -31 -9 -10 -13 32 -29 27 -28 -8 1 -18 6 -30 15
-30 7 0 13 -4 13 -10 0 -5 -11 -10 -25 -10 -14 0 -25 -4 -25 -10 0 -5 7 -10
17 -10 14 0 14 -2 -2 -20 -10 -11 -16 -23 -12 -26 8 -9 45 14 57 36 15 28 25
25 61 -15 25 -27 40 -35 66 -35 46 0 41 12 -14 40 -46 23 -47 24 -20 28 49 6
24 27 -29 25 -35 -2 -45 0 -34 7 8 5 25 10 38 10 12 0 22 5 22 10 0 6 -13 10
-28 10 -23 0 -28 4 -28 22 1 14 -6 24 -16 26 -14 3 -18 -4 -19 -30z"/>
<path d="M776 1224 c-9 -22 -2 -27 24 -19 12 4 19 12 17 18 -6 19 -34 20 -41
1z"/>
<path d="M593 1213 c-20 -4 -23 -11 -23 -52 0 -26 -7 -70 -15 -97 -18 -59 -17
-54 -4 -54 6 0 18 18 26 40 20 50 43 53 43 6 0 -19 -5 -36 -12 -38 -16 -6 -2
-38 16 -38 20 0 25 24 28 143 3 106 6 103 -59 90z m29 -45 c-6 -6 -15 -9 -18
-5 -4 3 -4 14 0 23 5 13 9 15 18 6 9 -9 9 -15 0 -24z m8 -37 c0 -5 -9 -11 -20
-14 -20 -5 -26 3 -13 16 9 10 33 8 33 -2z"/>
<path d="M740 855 c0 -18 -5 -25 -20 -25 -11 0 -20 -4 -20 -9 0 -13 43 -22 54
-11 6 6 23 10 38 10 15 0 28 5 28 10 0 6 -12 10 -26 10 -16 0 -23 4 -18 11 3
6 0 15 -7 20 -23 14 -29 11 -29 -16z"/>
<path d="M623 840 c4 -17 0 -20 -25 -20 -19 0 -28 -4 -25 -12 2 -8 17 -12 36
-10 17 1 31 -2 31 -8 0 -5 5 -10 10 -10 6 0 10 7 10 15 0 8 5 15 10 15 6 0 10
5 10 10 0 6 -7 10 -15 10 -8 0 -15 7 -15 15 0 8 -7 15 -16 15 -11 0 -15 -6
-11 -20z"/>
<path d="M719 758 c0 -30 -1 -31 -9 -10 -13 32 -29 27 -28 -8 1 -18 6 -30 15
-30 7 0 13 -4 13 -10 0 -5 -11 -10 -25 -10 -14 0 -25 -4 -25 -10 0 -5 7 -10
17 -10 14 0 14 -2 -2 -20 -24 -26 -12 -37 19 -17 13 9 26 13 30 10 10 -10 7
-93 -4 -93 -12 0 -13 -11 0 -30 16 -25 28 1 32 73 4 60 2 67 -15 67 -10 0 -15
5 -12 10 11 17 23 11 56 -25 25 -27 40 -35 66 -35 46 0 41 12 -14 40 -46 23
-47 24 -20 28 49 6 24 27 -29 25 -35 -2 -45 0 -34 7 8 5 25 10 38 10 12 0 22
5 22 10 0 6 -13 10 -28 10 -23 0 -28 4 -28 22 1 14 -6 24 -16 26 -14 3 -18 -4
-19 -30z"/>
<path d="M776 774 c-9 -22 -2 -27 24 -19 12 4 19 12 17 18 -6 19 -34 20 -41 1z"/>
<path d="M593 763 c-20 -4 -23 -11 -23 -52 0 -26 -7 -70 -15 -97 -18 -59 -17
-54 -4 -54 6 0 18 18 26 40 20 50 43 53 43 6 0 -19 -5 -36 -12 -38 -16 -6 -2
-38 16 -38 20 0 25 24 28 143 3 106 6 103 -59 90z m29 -45 c-6 -6 -15 -9 -18
-5 -4 3 -4 14 0 23 5 13 9 15 18 6 9 -9 9 -15 0 -24z m8 -37 c0 -5 -9 -11 -20
-14 -20 -5 -26 3 -13 16 9 10 33 8 33 -2z"/>
<path d="M740 405 c0 -18 -5 -25 -20 -25 -11 0 -20 -4 -20 -9 0 -13 43 -22 54
-11 6 6 23 10 38 10 15 0 28 5 28 10 0 6 -12 10 -26 10 -16 0 -23 4 -18 11 3
6 0 15 -7 20 -23 14 -29 11 -29 -16z"/>
<path d="M623 390 c4 -17 0 -20 -25 -20 -19 0 -28 -4 -25 -12 2 -8 17 -12 36
-10 17 1 31 -2 31 -8 0 -5 5 -10 10 -10 6 0 10 7 10 15 0 8 5 15 10 15 6 0 10
5 10 10 0 6 -7 10 -15 10 -8 0 -15 7 -15 15 0 8 -7 15 -16 15 -11 0 -15 -6
-11 -20z"/>
<path d="M719 308 c0 -30 -1 -31 -9 -10 -13 32 -29 27 -28 -8 1 -18 6 -30 15
-30 7 0 13 -4 13 -10 0 -5 -11 -10 -25 -10 -14 0 -25 -4 -25 -10 0 -5 7 -10
17 -10 14 0 14 -2 -2 -20 -24 -26 -12 -37 19 -17 13 9 26 13 30 10 10 -10 7
-93 -4 -93 -12 0 -13 -11 0 -30 16 -25 28 1 32 73 4 60 2 67 -15 67 -10 0 -15
5 -12 10 11 17 23 11 56 -25 25 -27 40 -35 66 -35 46 0 41 12 -14 40 -46 23
-47 24 -20 28 49 6 24 27 -29 25 -35 -2 -45 0 -34 7 8 5 25 10 38 10 12 0 22
5 22 10 0 6 -13 10 -28 10 -23 0 -28 4 -28 22 1 14 -6 24 -16 26 -14 3 -18 -4
-19 -30z"/>
<path d="M776 324 c-9 -22 -2 -27 24 -19 12 4 19 12 17 18 -6 19 -34 20 -41 1z"/>
<path d="M593 313 c-20 -4 -23 -11 -23 -52 0 -26 -7 -70 -15 -97 -18 -59 -17
-54 -4 -54 6 0 18 18 26 40 20 50 43 53 43 6 0 -19 -5 -36 -12 -38 -16 -6 -2
-38 16 -38 20 0 25 24 28 143 3 106 6 103 -59 90z m29 -45 c-15 -15 -26 -4
-18 18 5 13 9 15 18 6 9 -9 9 -15 0 -24z m8 -37 c0 -5 -9 -11 -20 -14 -20 -5
-26 3 -13 16 9 10 33 8 33 -2z"/>
<path d="M692 158 c6 -18 28 -21 28 -4 0 9 -7 16 -16 16 -9 0 -14 -5 -12 -12z"/>
</g>
</svg>
