<?xml version="1.0" standalone="no"?>
<!DOCTYPE svg PUBLIC "-//W3C//DTD SVG 20010904//EN"
 "http://www.w3.org/TR/2001/REC-SVG-20010904/DTD/svg10.dtd">
<svg version="1.0" xmlns="http://www.w3.org/2000/svg"
 width="95.000000pt" height="725.000000pt" viewBox="0 0 95.000000 725.000000"
 preserveAspectRatio="xMidYMid meet">
<metadata>
Created by potrace 1.16, written by Peter Selinger 2001-2019
</metadata>
<g transform="translate(0.000000,725.000000) scale(0.100000,-0.100000)"
fill="#000000" stroke="none">
<path d="M300 7156 c0 -19 -5 -26 -20 -26 -11 0 -20 -4 -20 -10 0 -5 6 -10 14
-10 23 0 27 -28 5 -35 -22 -7 -24 -16 -8 -32 6 -6 8 -17 4 -23 -6 -9 -10 -8
-17 4 -11 20 -28 21 -28 2 0 -8 -9 -18 -20 -21 -34 -11 -23 -28 13 -21 l32 6
-28 -24 -29 -23 13 -62 c12 -61 29 -83 29 -36 0 22 5 25 33 25 17 0 43 3 56 7
21 5 22 4 12 -15 -15 -29 -14 -52 4 -52 8 0 17 12 21 28 3 15 12 46 20 69 9
24 13 47 9 53 -3 5 -27 16 -53 24 l-47 15 53 0 c28 1 52 6 52 11 0 6 -22 10
-50 10 -43 0 -50 3 -50 20 0 11 7 20 15 20 18 0 20 27 3 32 -21 7 3 28 33 28
16 0 29 5 29 10 0 6 -11 10 -24 10 -16 0 -23 5 -22 17 0 10 -7 19 -16 21 -14
3 -18 -3 -18 -22z m40 -201 l25 -14 -32 -1 c-23 0 -33 5 -33 15 0 18 8 18 40
0z m-70 -10 c0 -10 -10 -15 -27 -15 -26 0 -26 1 -7 15 25 19 34 19 34 0z m80
-34 c0 -10 -48 -21 -91 -21 -37 0 -38 17 -1 23 51 8 92 7 92 -2z"/>
<path d="M183 7150 c4 -15 -1 -22 -19 -26 -35 -9 -30 -27 6 -22 20 3 30 0 30
-9 0 -21 17 -15 23 8 8 29 -9 69 -29 69 -11 0 -15 -6 -11 -20z"/>
<path d="M630 7164 c0 -20 24 -84 32 -84 5 0 8 19 6 42 -2 31 -8 44 -20 46
-10 2 -18 0 -18 -4z"/>
<path d="M140 7062 c0 -18 28 -45 38 -38 17 10 15 33 -4 40 -22 8 -34 8 -34
-2z"/>
<path d="M327 7053 c-13 -12 -7 -23 13 -23 11 0 20 7 20 15 0 15 -21 21 -33 8z"/>
<path d="M114 6994 c3 -9 6 -18 6 -20 0 -2 9 -4 20 -4 23 0 26 10 8 28 -18 18
-41 15 -34 -4z"/>
<path d="M132 6910 c-24 -32 -29 -70 -9 -70 7 0 19 17 26 38 8 20 16 43 18 50
9 23 -13 12 -35 -18z"/>
<path d="M300 6706 c0 -19 -5 -26 -20 -26 -11 0 -20 -4 -20 -10 0 -5 6 -10 14
-10 23 0 27 -28 5 -35 -22 -7 -24 -16 -8 -32 6 -6 8 -17 4 -23 -6 -9 -10 -8
-17 4 -11 20 -28 21 -28 2 0 -8 -9 -18 -20 -21 -34 -11 -23 -28 13 -21 l32 6
-28 -24 -29 -23 13 -62 c12 -61 29 -83 29 -36 0 28 27 35 36 10 8 -19 24 -20
24 -1 0 8 7 17 16 20 28 11 35 7 24 -13 -14 -28 -12 -51 5 -51 8 0 17 12 21
28 3 15 12 46 20 69 9 24 13 47 9 53 -3 5 -27 16 -53 24 l-47 15 53 0 c28 1
52 6 52 11 0 6 -22 10 -50 10 -43 0 -50 3 -50 20 0 11 7 20 15 20 18 0 20 27
3 32 -21 7 3 28 33 28 16 0 29 5 29 10 0 6 -11 10 -24 10 -16 0 -23 5 -22 17
0 10 -7 19 -16 21 -14 3 -18 -3 -18 -22z m40 -201 l25 -14 -32 -1 c-23 0 -33
5 -33 15 0 18 8 18 40 0z m-70 -10 c0 -10 -10 -15 -27 -15 -26 0 -26 1 -7 15
25 19 34 19 34 0z m80 -34 c0 -5 -11 -11 -25 -13 -17 -4 -25 -1 -25 8 0 8 11
14 25 14 14 0 25 -4 25 -9z m-80 -11 c0 -5 -9 -10 -20 -10 -11 0 -20 5 -20 10
0 6 9 10 20 10 11 0 20 -4 20 -10z"/>
<path d="M183 6700 c4 -15 -1 -22 -19 -26 -35 -9 -30 -27 6 -22 20 3 30 0 30
-9 0 -21 17 -15 23 8 8 29 -9 69 -29 69 -11 0 -15 -6 -11 -20z"/>
<path d="M633 6700 c4 -15 -1 -22 -19 -26 -35 -9 -30 -27 6 -22 20 3 30 0 30
-9 0 -21 17 -15 23 8 8 29 -9 69 -29 69 -11 0 -15 -6 -11 -20z"/>
<path d="M140 6612 c0 -18 28 -45 38 -38 17 10 15 33 -4 40 -22 8 -34 8 -34
-2z"/>
<path d="M327 6603 c-13 -12 -7 -23 13 -23 11 0 20 7 20 15 0 15 -21 21 -33 8z"/>
<path d="M114 6544 c3 -9 6 -18 6 -20 0 -2 9 -4 20 -4 23 0 26 10 8 28 -18 18
-41 15 -34 -4z"/>
<path d="M132 6460 c-24 -32 -29 -70 -9 -70 7 0 19 17 26 38 8 20 16 43 18 50
9 23 -13 12 -35 -18z"/>
<path d="M300 6256 c0 -19 -5 -26 -20 -26 -11 0 -20 -4 -20 -10 0 -5 6 -10 14
-10 23 0 27 -28 5 -35 -22 -7 -24 -16 -8 -32 6 -6 8 -17 4 -23 -6 -9 -10 -8
-17 4 -11 20 -28 21 -28 2 0 -8 -9 -18 -20 -21 -34 -11 -23 -28 13 -21 l32 6
-28 -24 c-28 -23 -29 -23 -17 -83 l12 -59 54 4 c36 3 54 1 54 -7 0 -23 30 -10
36 17 3 15 12 46 20 69 9 24 13 47 9 53 -3 5 -27 16 -53 24 l-47 15 53 0 c28
1 52 6 52 11 0 6 -22 10 -50 10 -43 0 -50 3 -50 20 0 11 7 20 15 20 18 0 20
27 3 32 -21 7 3 28 33 28 16 0 29 5 29 10 0 6 -11 10 -24 10 -16 0 -23 5 -22
17 0 10 -7 19 -16 21 -14 3 -18 -3 -18 -22z m40 -201 l25 -14 -32 -1 c-23 0
-33 5 -33 15 0 18 8 18 40 0z m-70 -10 c0 -10 -10 -15 -27 -15 -26 0 -26 1 -7
15 25 19 34 19 34 0z m80 -34 c0 -5 -11 -11 -25 -13 -17 -4 -25 -1 -25 8 0 8
11 14 25 14 14 0 25 -4 25 -9z m-80 -11 c0 -5 -9 -10 -20 -10 -11 0 -20 5 -20
10 0 6 9 10 20 10 11 0 20 -4 20 -10z m74 -35 c-4 -8 -15 -15 -25 -15 -21 0
-26 16 -6 23 24 10 36 7 31 -8z m-74 -5 c0 -5 -7 -10 -15 -10 -8 0 -15 5 -15
10 0 6 7 10 15 10 8 0 15 -4 15 -10z"/>
<path d="M183 6250 c4 -15 -1 -22 -19 -26 -35 -9 -30 -27 6 -22 20 3 30 0 30
-9 0 -21 17 -15 23 8 8 29 -9 69 -29 69 -11 0 -15 -6 -11 -20z"/>
<path d="M633 6250 c4 -15 -1 -22 -19 -26 -35 -9 -30 -27 6 -22 20 3 30 0 30
-9 0 -21 17 -15 23 8 8 29 -9 69 -29 69 -11 0 -15 -6 -11 -20z"/>
<path d="M733 6233 c-13 -2 -23 -9 -23 -15 0 -6 12 -8 31 -4 17 3 44 6 60 6
16 0 29 5 29 10 0 10 -53 11 -97 3z"/>
<path d="M140 6162 c0 -18 28 -45 38 -38 17 10 15 33 -4 40 -22 8 -34 8 -34
-2z"/>
<path d="M327 6153 c-13 -12 -7 -23 13 -23 11 0 20 7 20 15 0 15 -21 21 -33 8z"/>
<path d="M114 6094 c3 -9 6 -18 6 -20 0 -2 9 -4 20 -4 23 0 26 10 8 28 -18 18
-41 15 -34 -4z"/>
<path d="M132 6010 c-24 -32 -29 -70 -9 -70 7 0 19 17 26 38 8 20 16 43 18 50
9 23 -13 12 -35 -18z"/>
<path d="M750 5806 c0 -19 -5 -26 -20 -26 -11 0 -20 -4 -20 -10 0 -5 6 -10 14
-10 8 0 17 -6 20 -12 3 -9 8 -8 16 5 6 10 23 17 40 17 17 0 30 5 30 10 0 6
-11 10 -24 10 -16 0 -23 5 -22 17 0 10 -7 19 -16 21 -14 3 -18 -3 -18 -22z"/>
<path d="M633 5800 c4 -15 -1 -22 -19 -26 -35 -9 -30 -27 6 -22 20 3 30 0 30
-9 0 -21 17 -15 23 8 8 29 -9 69 -29 69 -11 0 -15 -6 -11 -20z"/>
<path d="M750 5356 c0 -19 -5 -26 -20 -26 -11 0 -20 -4 -20 -10 0 -5 6 -10 14
-10 8 0 17 -6 20 -12 3 -9 8 -8 16 5 6 10 23 17 40 17 17 0 30 5 30 10 0 6
-11 10 -24 10 -16 0 -23 5 -22 17 0 10 -7 19 -16 21 -14 3 -18 -3 -18 -22z"/>
<path d="M633 5350 c4 -15 -1 -22 -19 -26 -35 -9 -30 -27 6 -22 20 3 30 0 30
-9 0 -21 17 -15 23 8 8 29 -9 69 -29 69 -11 0 -15 -6 -11 -20z"/>
<path d="M590 5262 c0 -18 28 -45 38 -38 17 10 15 33 -4 40 -22 8 -34 8 -34
-2z"/>
<path d="M750 4906 c0 -19 -5 -26 -20 -26 -11 0 -20 -4 -20 -10 0 -5 6 -10 14
-10 8 0 17 -6 20 -12 3 -9 8 -8 16 5 6 10 23 17 40 17 17 0 30 5 30 10 0 6
-11 10 -24 10 -16 0 -23 5 -22 17 0 10 -7 19 -16 21 -14 3 -18 -3 -18 -22z"/>
<path d="M633 4900 c4 -15 -1 -22 -19 -26 -35 -9 -30 -27 6 -22 20 3 30 0 30
-9 0 -21 17 -15 23 8 8 29 -9 69 -29 69 -11 0 -15 -6 -11 -20z"/>
<path d="M590 4812 c0 -18 28 -45 38 -38 17 10 15 33 -4 40 -22 8 -34 8 -34
-2z"/>
<path d="M564 4744 c3 -9 6 -18 6 -20 0 -2 9 -4 20 -4 23 0 26 10 8 28 -18 18
-41 15 -34 -4z"/>
<path d="M750 4456 c0 -19 -5 -26 -20 -26 -11 0 -20 -4 -20 -10 0 -5 6 -10 14
-10 8 0 17 -6 20 -12 3 -9 8 -8 16 5 6 10 23 17 40 17 17 0 30 5 30 10 0 6
-11 10 -24 10 -16 0 -23 5 -22 17 0 10 -7 19 -16 21 -14 3 -18 -3 -18 -22z"/>
<path d="M633 4450 c4 -15 -1 -22 -19 -26 -35 -9 -30 -27 6 -22 20 3 30 0 30
-9 0 -21 17 -15 23 8 8 29 -9 69 -29 69 -11 0 -15 -6 -11 -20z"/>
<path d="M590 4362 c0 -18 28 -45 38 -38 17 10 15 33 -4 40 -22 8 -34 8 -34
-2z"/>
<path d="M564 4294 c3 -9 6 -18 6 -20 0 -2 9 -4 20 -4 23 0 26 10 8 28 -18 18
-41 15 -34 -4z"/>
<path d="M582 4210 c-24 -32 -29 -70 -9 -70 7 0 19 17 26 38 8 20 16 43 18 50
9 23 -13 12 -35 -18z"/>
<path d="M750 4006 c0 -19 -5 -26 -20 -26 -11 0 -20 -4 -20 -10 0 -5 6 -10 14
-10 23 0 27 -28 5 -35 -27 -9 -24 -29 4 -21 12 3 28 6 35 6 15 0 16 27 0 32
-21 7 3 28 33 28 16 0 29 5 29 10 0 6 -11 10 -24 10 -16 0 -23 5 -22 17 0 10
-7 19 -16 21 -14 3 -18 -3 -18 -22z"/>
<path d="M633 4000 c4 -15 -1 -22 -19 -26 -35 -9 -30 -27 6 -22 20 3 30 0 30
-9 0 -21 17 -15 23 8 8 29 -9 69 -29 69 -11 0 -15 -6 -11 -20z"/>
<path d="M590 3912 c0 -18 28 -45 38 -38 17 10 15 33 -4 40 -22 8 -34 8 -34
-2z"/>
<path d="M564 3844 c3 -9 6 -18 6 -20 0 -2 9 -4 20 -4 23 0 26 10 8 28 -18 18
-41 15 -34 -4z"/>
<path d="M582 3760 c-24 -32 -29 -70 -9 -70 7 0 19 17 26 38 8 20 16 43 18 50
9 23 -13 12 -35 -18z"/>
<path d="M750 3556 c0 -19 -5 -26 -20 -26 -11 0 -20 -4 -20 -10 0 -5 6 -10 14
-10 23 0 27 -28 5 -35 -27 -9 -24 -29 4 -21 12 3 28 6 35 6 15 0 16 27 0 32
-21 7 3 28 33 28 16 0 29 5 29 10 0 6 -11 10 -24 10 -16 0 -23 5 -22 17 0 10
-7 19 -16 21 -14 3 -18 -3 -18 -22z"/>
<path d="M633 3550 c4 -15 -1 -22 -19 -26 -35 -9 -30 -27 6 -22 20 3 30 0 30
-9 0 -21 17 -15 23 8 8 29 -9 69 -29 69 -11 0 -15 -6 -11 -20z"/>
<path d="M590 3462 c0 -18 28 -45 38 -38 17 10 15 33 -4 40 -22 8 -34 8 -34
-2z"/>
<path d="M680 3426 c0 -9 7 -16 16 -16 9 0 14 5 12 12 -6 18 -28 21 -28 4z"/>
<path d="M564 3394 c3 -9 6 -18 6 -20 0 -2 9 -4 20 -4 23 0 26 10 8 28 -18 18
-41 15 -34 -4z"/>
<path d="M582 3310 c-24 -32 -29 -70 -9 -70 7 0 19 17 26 38 8 20 16 43 18 50
9 23 -13 12 -35 -18z"/>
<path d="M750 3106 c0 -19 -5 -26 -20 -26 -11 0 -20 -4 -20 -10 0 -5 6 -10 14
-10 23 0 27 -28 5 -35 -27 -9 -24 -29 4 -21 12 3 28 6 35 6 15 0 16 27 0 32
-21 7 3 28 33 28 16 0 29 5 29 10 0 6 -11 10 -24 10 -16 0 -23 5 -22 17 0 10
-7 19 -16 21 -14 3 -18 -3 -18 -22z"/>
<path d="M633 3100 c4 -15 -1 -22 -19 -26 -35 -9 -30 -27 6 -22 20 3 30 0 30
-9 0 -21 17 -15 23 8 8 29 -9 69 -29 69 -11 0 -15 -6 -11 -20z"/>
<path d="M590 3012 c0 -18 28 -45 38 -38 17 10 15 33 -4 40 -22 8 -34 8 -34
-2z"/>
<path d="M777 3003 c-13 -12 -7 -23 13 -23 11 0 20 7 20 15 0 15 -21 21 -33 8z"/>
<path d="M680 2976 c0 -9 7 -16 16 -16 9 0 14 5 12 12 -6 18 -28 21 -28 4z"/>
<path d="M564 2944 c3 -9 6 -18 6 -20 0 -2 9 -4 20 -4 23 0 26 10 8 28 -18 18
-41 15 -34 -4z"/>
<path d="M582 2860 c-24 -32 -29 -70 -9 -70 7 0 19 17 26 38 8 20 16 43 18 50
9 23 -13 12 -35 -18z"/>
<path d="M750 2656 c0 -19 -5 -26 -20 -26 -11 0 -20 -4 -20 -10 0 -5 6 -10 14
-10 23 0 27 -28 5 -35 -27 -9 -24 -29 4 -21 12 3 28 6 35 6 15 0 16 27 0 32
-21 7 3 28 33 28 16 0 29 5 29 10 0 6 -11 10 -24 10 -16 0 -23 5 -22 17 0 10
-7 19 -16 21 -14 3 -18 -3 -18 -22z"/>
<path d="M633 2650 c4 -15 -1 -22 -19 -26 -35 -9 -30 -27 6 -22 20 3 30 0 30
-9 0 -21 17 -15 23 8 8 29 -9 69 -29 69 -11 0 -15 -6 -11 -20z"/>
<path d="M590 2562 c0 -18 28 -45 38 -38 17 10 15 33 -4 40 -22 8 -34 8 -34
-2z"/>
<path d="M777 2553 c-13 -12 -7 -23 13 -23 11 0 20 7 20 15 0 15 -21 21 -33 8z"/>
<path d="M680 2526 c0 -8 -9 -18 -20 -21 -33 -10 -24 -28 11 -21 17 3 40 6 50
6 11 0 19 5 19 10 0 6 -6 10 -14 10 -8 0 -16 7 -20 15 -7 19 -26 20 -26 1z"/>
<path d="M750 2510 c0 -5 23 -10 50 -10 28 0 50 5 50 10 0 6 -22 10 -50 10
-27 0 -50 -4 -50 -10z"/>
<path d="M564 2494 c3 -9 6 -18 6 -20 0 -2 9 -4 20 -4 23 0 26 10 8 28 -18 18
-41 15 -34 -4z"/>
<path d="M582 2410 c-24 -32 -29 -70 -9 -70 7 0 19 17 26 38 8 20 16 43 18 50
9 23 -13 12 -35 -18z"/>
<path d="M750 2206 c0 -19 -5 -26 -20 -26 -11 0 -20 -4 -20 -10 0 -5 6 -10 14
-10 23 0 27 -28 5 -35 -22 -7 -24 -16 -8 -32 6 -6 8 -17 4 -23 -6 -9 -10 -8
-17 4 -11 20 -28 21 -28 2 0 -8 -9 -18 -20 -21 -37 -12 -22 -27 20 -20 39 7
40 6 40 -24 0 -21 5 -31 15 -31 10 0 15 11 15 35 l0 35 50 0 c28 0 50 5 50 10
0 6 -22 10 -50 10 -43 0 -50 3 -50 20 0 11 7 20 15 20 18 0 20 27 3 32 -21 7
3 28 33 28 16 0 29 5 29 10 0 6 -11 10 -24 10 -16 0 -23 5 -22 17 0 10 -7 19
-16 21 -14 3 -18 -3 -18 -22z"/>
<path d="M633 2200 c4 -15 -1 -22 -19 -26 -35 -9 -30 -27 6 -22 20 3 30 0 30
-9 0 -21 17 -15 23 8 8 29 -9 69 -29 69 -11 0 -15 -6 -11 -20z"/>
<path d="M590 2112 c0 -18 28 -45 38 -38 17 10 15 33 -4 40 -22 8 -34 8 -34
-2z"/>
<path d="M777 2103 c-13 -12 -7 -23 13 -23 11 0 20 7 20 15 0 15 -21 21 -33 8z"/>
<path d="M564 2044 c3 -9 6 -18 6 -20 0 -2 9 -4 20 -4 23 0 26 10 8 28 -18 18
-41 15 -34 -4z"/>
<path d="M582 1960 c-24 -32 -29 -70 -9 -70 7 0 19 17 26 38 8 20 16 43 18 50
9 23 -13 12 -35 -18z"/>
<path d="M750 1756 c0 -19 -5 -26 -20 -26 -11 0 -20 -4 -20 -10 0 -5 6 -10 14
-10 23 0 27 -28 5 -35 -22 -7 -24 -16 -8 -32 6 -6 8 -17 4 -23 -6 -9 -10 -8
-17 4 -11 20 -28 21 -28 2 0 -8 -9 -18 -20 -21 -34 -11 -23 -28 13 -21 l32 6
-30 -25 c-34 -28 -27 -45 9 -21 31 20 36 20 36 1 0 -8 7 -15 15 -15 10 0 15
11 15 35 l0 35 50 0 c28 0 50 5 50 10 0 6 -22 10 -50 10 -43 0 -50 3 -50 20 0
11 7 20 15 20 18 0 20 27 3 32 -21 7 3 28 33 28 16 0 29 5 29 10 0 6 -11 10
-24 10 -16 0 -23 5 -22 17 0 10 -7 19 -16 21 -14 3 -18 -3 -18 -22z"/>
<path d="M633 1750 c4 -15 -1 -22 -19 -26 -35 -9 -30 -27 6 -22 20 3 30 0 30
-9 0 -21 17 -15 23 8 8 29 -9 69 -29 69 -11 0 -15 -6 -11 -20z"/>
<path d="M590 1662 c0 -18 28 -45 38 -38 17 10 15 33 -4 40 -22 8 -34 8 -34
-2z"/>
<path d="M777 1653 c-13 -12 -7 -23 13 -23 11 0 20 7 20 15 0 15 -21 21 -33 8z"/>
<path d="M564 1594 c3 -9 6 -18 6 -20 0 -2 9 -4 20 -4 23 0 26 10 8 28 -18 18
-41 15 -34 -4z"/>
<path d="M582 1510 c-24 -32 -29 -70 -9 -70 7 0 19 17 26 38 8 20 16 43 18 50
9 23 -13 12 -35 -18z"/>
<path d="M750 1306 c0 -19 -5 -26 -20 -26 -11 0 -20 -4 -20 -10 0 -5 6 -10 14
-10 23 0 27 -28 5 -35 -22 -7 -24 -16 -8 -32 6 -6 8 -17 4 -23 -6 -9 -10 -8
-17 4 -11 20 -28 21 -28 2 0 -8 -9 -18 -20 -21 -34 -11 -23 -28 13 -21 l32 6
-30 -25 c-34 -28 -27 -45 9 -21 31 20 36 20 36 1 0 -8 7 -15 15 -15 8 0 15 9
15 20 0 25 1 25 51 -1 23 -11 43 -18 46 -15 14 14 -11 37 -54 50 l-48 15 53 0
c28 1 52 6 52 11 0 6 -22 10 -50 10 -43 0 -50 3 -50 20 0 11 7 20 15 20 18 0
20 27 3 32 -21 7 3 28 33 28 16 0 29 5 29 10 0 6 -11 10 -24 10 -16 0 -23 5
-22 17 0 10 -7 19 -16 21 -14 3 -18 -3 -18 -22z"/>
<path d="M633 1300 c4 -15 -1 -22 -19 -26 -35 -9 -30 -27 6 -22 20 3 30 0 30
-9 0 -21 17 -15 23 8 8 29 -9 69 -29 69 -11 0 -15 -6 -11 -20z"/>
<path d="M590 1212 c0 -18 28 -45 38 -38 17 10 15 33 -4 40 -22 8 -34 8 -34
-2z"/>
<path d="M777 1203 c-13 -12 -7 -23 13 -23 11 0 20 7 20 15 0 15 -21 21 -33 8z"/>
<path d="M564 1144 c3 -9 6 -18 6 -20 0 -2 9 -4 20 -4 23 0 26 10 8 28 -18 18
-41 15 -34 -4z"/>
<path d="M582 1060 c-24 -32 -29 -70 -9 -70 7 0 19 17 26 38 8 20 16 43 18 50
9 23 -13 12 -35 -18z"/>
<path d="M750 856 c0 -19 -5 -26 -20 -26 -11 0 -20 -4 -20 -10 0 -5 6 -10 14
-10 23 0 27 -28 5 -35 -22 -7 -24 -16 -8 -32 6 -6 8 -17 4 -23 -6 -9 -10 -8
-17 4 -11 20 -28 21 -28 2 0 -8 -9 -18 -20 -21 -34 -11 -23 -28 13 -21 l32 6
-28 -24 -29 -23 13 -62 c6 -33 16 -61 20 -61 11 0 11 34 0 81 -7 30 -5 38 10
47 24 16 29 15 29 -3 0 -8 7 -15 15 -15 8 0 15 9 15 20 0 25 1 25 51 -1 23
-11 43 -18 46 -15 14 14 -11 37 -54 50 l-48 15 53 0 c28 1 52 6 52 11 0 6 -22
10 -50 10 -43 0 -50 3 -50 20 0 11 7 20 15 20 18 0 20 27 3 32 -21 7 3 28 33
28 16 0 29 5 29 10 0 6 -11 10 -24 10 -16 0 -23 5 -22 17 0 10 -7 19 -16 21
-14 3 -18 -3 -18 -22z"/>
<path d="M633 850 c4 -15 -1 -22 -19 -26 -35 -9 -30 -27 6 -22 20 3 30 0 30
-9 0 -21 17 -15 23 8 8 29 -9 69 -29 69 -11 0 -15 -6 -11 -20z"/>
<path d="M590 762 c0 -18 28 -45 38 -38 17 10 15 33 -4 40 -22 8 -34 8 -34 -2z"/>
<path d="M777 753 c-13 -12 -7 -23 13 -23 11 0 20 7 20 15 0 15 -21 21 -33 8z"/>
<path d="M564 694 c3 -9 6 -18 6 -20 0 -2 9 -4 20 -4 23 0 26 10 8 28 -18 18
-41 15 -34 -4z"/>
<path d="M582 610 c-24 -32 -29 -70 -9 -70 7 0 19 17 26 38 8 20 16 43 18 50
9 23 -13 12 -35 -18z"/>
<path d="M750 406 c0 -19 -5 -26 -20 -26 -11 0 -20 -4 -20 -10 0 -5 6 -10 14
-10 23 0 27 -28 5 -35 -22 -7 -24 -16 -8 -32 6 -6 8 -17 4 -23 -6 -9 -10 -8
-17 4 -11 20 -28 21 -28 2 0 -8 -9 -18 -20 -21 -34 -11 -23 -28 13 -21 l32 6
-28 -24 -29 -23 13 -62 c13 -70 35 -85 26 -17 l-6 44 37 6 c20 3 48 6 61 6 25
0 25 -4 5 -83 -5 -21 -3 -27 10 -27 9 0 18 11 22 28 3 15 12 46 20 69 9 24 13
47 9 53 -3 5 -27 16 -53 24 l-47 15 53 0 c28 1 52 6 52 11 0 6 -22 10 -50 10
-43 0 -50 3 -50 20 0 11 7 20 15 20 18 0 20 27 3 32 -21 7 3 28 33 28 16 0 29
5 29 10 0 6 -11 10 -24 10 -16 0 -23 5 -22 17 0 10 -7 19 -16 21 -14 3 -18 -3
-18 -22z m40 -201 l25 -14 -32 -1 c-23 0 -33 5 -33 15 0 18 8 18 40 0z m-70
-10 c0 -10 -10 -15 -27 -15 -26 0 -26 1 -7 15 25 19 34 19 34 0z"/>
<path d="M633 400 c4 -15 -1 -22 -19 -26 -35 -9 -30 -27 6 -22 20 3 30 0 30
-9 0 -21 17 -15 23 8 8 29 -9 69 -29 69 -11 0 -15 -6 -11 -20z"/>
<path d="M590 312 c0 -18 28 -45 38 -38 17 10 15 33 -4 40 -22 8 -34 8 -34 -2z"/>
<path d="M777 303 c-13 -12 -7 -23 13 -23 11 0 20 7 20 15 0 15 -21 21 -33 8z"/>
<path d="M564 244 c3 -9 6 -18 6 -20 0 -2 9 -4 20 -4 23 0 26 10 8 28 -18 18
-41 15 -34 -4z"/>
<path d="M582 160 c-24 -32 -29 -70 -9 -70 7 0 19 17 26 38 8 20 16 43 18 50
9 23 -13 12 -35 -18z"/>
</g>
</svg>
