<?xml version="1.0" standalone="no"?>
<!DOCTYPE svg PUBLIC "-//W3C//DTD SVG 20010904//EN"
 "http://www.w3.org/TR/2001/REC-SVG-20010904/DTD/svg10.dtd">
<svg version="1.0" xmlns="http://www.w3.org/2000/svg"
 width="50.000000pt" height="725.000000pt" viewBox="0 0 50.000000 725.000000"
 preserveAspectRatio="xMidYMid meet">
<metadata>
Created by potrace 1.16, written by Peter Selinger 2001-2019
</metadata>
<g transform="translate(0.000000,725.000000) scale(0.100000,-0.100000)"
fill="#000000" stroke="none">
<path d="M227 7133 c3 -21 7 -40 9 -42 7 -8 12 4 19 42 6 33 5 37 -13 37 -18
0 -20 -4 -15 -37z"/>
<path d="M224 6704 c3 -9 6 -27 6 -40 0 -13 5 -24 10 -24 6 0 10 6 10 14 0 8
15 17 35 20 19 4 35 12 35 18 0 6 -11 8 -30 5 -22 -5 -30 -3 -30 8 0 9 -9 15
-21 15 -15 0 -19 -4 -15 -16z"/>
<path d="M225 6224 l0 -46 48 6 c38 6 47 4 47 -9 0 -18 2 -18 35 -3 30 14 32
24 5 38 -14 8 -31 8 -58 0 -45 -12 -52 -12 -52 -1 0 5 16 12 35 15 19 4 35 12
35 18 0 6 -11 8 -30 5 -22 -5 -30 -3 -30 8 0 8 -8 15 -17 15 -15 0 -18 -9 -18
-46z"/>
<path d="M160 6180 c0 -5 11 -10 25 -10 14 0 25 5 25 10 0 6 -11 10 -25 10
-14 0 -25 -4 -25 -10z"/>
<path d="M225 5774 l0 -46 48 6 c38 6 47 4 47 -9 0 -18 2 -18 35 -3 30 14 32
24 5 38 -14 8 -31 8 -58 0 -45 -12 -52 -12 -52 -1 0 5 16 12 35 15 19 4 35 12
35 18 0 6 -11 8 -30 5 -22 -5 -30 -3 -30 8 0 8 -8 15 -17 15 -15 0 -18 -9 -18
-46z"/>
<path d="M154 5732 c-6 -4 -14 -32 -18 -62 -4 -30 -16 -75 -27 -99 -22 -51
-22 -51 -9 -51 19 0 49 64 61 132 10 55 16 68 31 68 10 0 18 5 18 10 0 12 -40
13 -56 2z"/>
<path d="M225 5324 l0 -46 48 6 c38 6 47 4 47 -9 0 -18 2 -18 35 -3 30 14 32
24 5 38 -14 8 -31 8 -58 0 -45 -12 -52 -12 -52 -1 0 5 16 12 35 15 19 4 35 12
35 18 0 6 -11 8 -30 5 -22 -5 -30 -3 -30 8 0 8 -8 15 -17 15 -15 0 -18 -9 -18
-46z"/>
<path d="M154 5282 c-6 -4 -14 -32 -18 -62 -4 -30 -16 -75 -27 -99 -22 -51
-22 -51 -9 -51 19 0 49 64 61 132 10 55 16 68 31 68 10 0 18 5 18 10 0 12 -40
13 -56 2z"/>
<path d="M233 5252 c-29 -8 -53 -19 -53 -23 0 -12 5 -11 64 4 27 7 51 18 54
25 4 14 2 14 -65 -6z"/>
<path d="M225 4860 c0 -55 -2 -61 -22 -66 -13 -4 -23 -11 -23 -16 0 -6 11 -7
25 -4 18 5 25 2 25 -9 0 -11 12 -15 50 -15 39 0 50 3 50 16 0 13 -7 15 -40 9
-25 -4 -40 -3 -40 3 0 6 10 12 22 14 12 2 23 9 26 16 3 9 -4 11 -25 7 -27 -6
-27 -6 -9 9 25 20 56 21 56 1 0 -18 2 -18 35 -3 30 14 32 24 5 38 -14 8 -31 8
-58 0 -45 -12 -52 -12 -52 -1 0 5 16 12 35 15 19 4 35 12 35 18 0 6 -11 8 -30
5 -22 -5 -30 -3 -30 8 0 8 -8 15 -18 15 -15 0 -17 -9 -17 -60z"/>
<path d="M154 4832 c-6 -4 -14 -32 -18 -62 -4 -30 -16 -75 -27 -99 -22 -51
-22 -51 -9 -51 19 0 49 64 61 132 10 55 16 68 31 68 10 0 18 5 18 10 0 12 -40
13 -56 2z"/>
<path d="M225 4410 c0 -55 -2 -61 -22 -66 -13 -4 -23 -11 -23 -16 0 -6 11 -7
25 -4 18 5 25 2 25 -9 0 -11 12 -15 50 -15 39 0 50 3 50 16 0 13 -7 15 -40 9
-25 -4 -40 -3 -40 3 0 6 10 12 22 14 12 2 23 9 26 16 3 9 -4 11 -25 7 -27 -6
-27 -6 -9 9 25 20 56 21 56 1 0 -18 2 -18 35 -3 30 14 32 24 5 38 -14 8 -31 8
-58 0 -45 -12 -52 -12 -52 -1 0 5 16 12 35 15 19 4 35 12 35 18 0 6 -11 8 -30
5 -22 -5 -30 -3 -30 8 0 8 -8 15 -18 15 -15 0 -17 -9 -17 -60z"/>
<path d="M154 4382 c-6 -4 -14 -32 -18 -62 -4 -30 -16 -75 -27 -99 -22 -51
-22 -51 -9 -51 19 0 49 64 61 132 10 55 16 68 31 68 10 0 18 5 18 10 0 12 -40
13 -56 2z"/>
<path d="M170 4264 c-23 -54 -23 -54 -10 -54 14 0 62 79 55 90 -12 19 -24 9
-45 -36z"/>
<path d="M225 3960 c0 -55 -2 -61 -22 -66 -13 -4 -23 -11 -23 -16 0 -6 11 -7
25 -4 18 5 25 2 25 -9 0 -11 12 -15 50 -15 39 0 50 3 50 16 0 13 -7 15 -40 9
-25 -4 -40 -3 -40 3 0 6 10 12 22 14 12 2 23 9 26 16 3 9 -4 11 -25 7 -27 -6
-27 -6 -9 9 25 20 56 21 56 1 0 -18 2 -18 35 -3 30 14 32 24 5 38 -14 8 -31 8
-58 0 -45 -12 -52 -12 -52 -1 0 5 16 12 35 15 19 4 35 12 35 18 0 6 -11 8 -30
5 -22 -5 -30 -3 -30 8 0 8 -8 15 -18 15 -15 0 -17 -9 -17 -60z"/>
<path d="M154 3932 c-6 -4 -14 -32 -18 -62 -4 -30 -16 -75 -27 -99 -22 -51
-22 -51 -9 -51 19 0 49 64 61 132 10 55 16 68 31 68 10 0 18 5 18 10 0 12 -40
13 -56 2z"/>
<path d="M170 3813 c-23 -52 -18 -70 11 -35 10 13 24 22 30 20 6 -2 -8 -25
-31 -51 -24 -26 -40 -51 -37 -54 11 -11 55 26 87 72 30 44 32 65 5 65 -7 0
-15 7 -19 15 -10 26 -25 16 -46 -32z"/>
<path d="M225 3510 c0 -55 -2 -61 -22 -66 -13 -4 -23 -11 -23 -16 0 -6 11 -7
25 -4 18 5 25 2 25 -9 0 -11 12 -15 50 -15 39 0 50 3 50 16 0 13 -7 15 -40 9
-25 -4 -40 -3 -40 3 0 6 10 12 22 14 12 2 23 9 26 16 3 9 -4 11 -25 7 -27 -6
-27 -6 -9 9 25 20 56 21 56 1 0 -18 2 -18 35 -3 30 14 32 24 5 38 -14 8 -31 8
-58 0 -45 -12 -52 -12 -52 -1 0 5 16 12 35 15 19 4 35 12 35 18 0 6 -11 8 -30
5 -22 -5 -30 -3 -30 8 0 8 -8 15 -18 15 -15 0 -17 -9 -17 -60z"/>
<path d="M154 3482 c-6 -4 -14 -32 -18 -62 -4 -30 -16 -75 -27 -99 -22 -51
-22 -51 -9 -51 19 0 49 64 61 132 10 55 16 68 31 68 10 0 18 5 18 10 0 12 -40
13 -56 2z"/>
<path d="M170 3364 c-24 -55 -24 -58 -5 -51 25 10 25 -9 0 -33 -45 -42 -26
-56 22 -16 29 24 29 24 53 5 14 -11 42 -29 63 -40 32 -17 43 -18 77 -9 44 12
54 30 17 30 -33 0 -113 25 -143 45 -24 16 -25 17 -9 41 17 26 13 44 -10 44 -7
0 -15 7 -19 15 -10 26 -25 16 -46 -31z m45 -24 c-3 -5 -10 -10 -16 -10 -5 0
-9 5 -9 10 0 6 7 10 16 10 8 0 12 -4 9 -10z"/>
<path d="M225 3060 c0 -55 -2 -61 -22 -66 -13 -4 -23 -11 -23 -16 0 -6 11 -7
25 -4 18 5 25 2 25 -9 0 -11 12 -15 50 -15 39 0 50 3 50 16 0 13 -7 15 -40 9
-25 -4 -40 -3 -40 3 0 6 10 12 22 14 12 2 23 9 26 16 3 9 -4 11 -25 7 -27 -6
-27 -6 -9 9 25 20 56 21 56 1 0 -18 2 -18 35 -3 30 14 32 24 5 38 -14 8 -31 8
-58 0 -45 -12 -52 -12 -52 -1 0 5 16 12 35 15 19 4 35 12 35 18 0 6 -11 8 -30
5 -22 -5 -30 -3 -30 8 0 8 -8 15 -18 15 -15 0 -17 -9 -17 -60z"/>
<path d="M154 3032 c-6 -4 -14 -32 -18 -62 -4 -30 -16 -75 -27 -99 -22 -51
-22 -51 -9 -51 19 0 49 64 61 132 10 55 16 68 31 68 10 0 18 5 18 10 0 12 -40
13 -56 2z"/>
<path d="M170 2914 c-24 -55 -24 -58 -5 -51 25 10 25 -9 0 -33 -45 -42 -26
-56 22 -16 29 24 29 24 53 5 14 -11 42 -29 63 -40 32 -17 43 -18 77 -9 44 12
54 30 17 30 -33 0 -113 25 -143 45 -24 16 -25 17 -9 41 17 26 13 44 -10 44 -7
0 -15 7 -19 15 -10 26 -25 16 -46 -31z m45 -24 c-3 -5 -10 -10 -16 -10 -5 0
-9 5 -9 10 0 6 7 10 16 10 8 0 12 -4 9 -10z"/>
<path d="M267 2893 c-7 -41 -1 -55 13 -33 12 19 13 70 1 70 -4 0 -11 -17 -14
-37z"/>
<path d="M225 2610 c0 -55 -2 -61 -22 -66 -13 -4 -23 -11 -23 -16 0 -6 11 -7
25 -4 18 5 25 2 25 -9 0 -11 12 -15 50 -15 39 0 50 3 50 16 0 13 -7 15 -40 9
-25 -4 -40 -3 -40 3 0 6 10 12 22 14 12 2 23 9 26 16 3 9 -4 11 -25 7 -27 -6
-27 -6 -9 9 25 20 56 21 56 1 0 -18 2 -18 35 -3 30 14 32 24 5 38 -14 8 -31 8
-58 0 -45 -12 -52 -12 -52 -1 0 5 16 12 35 15 19 4 35 12 35 18 0 6 -11 8 -30
5 -22 -5 -30 -3 -30 8 0 8 -8 15 -18 15 -15 0 -17 -9 -17 -60z"/>
<path d="M154 2582 c-6 -4 -14 -32 -18 -62 -4 -30 -16 -75 -27 -99 -22 -51
-22 -51 -9 -51 19 0 49 64 61 132 10 55 16 68 31 68 10 0 18 5 18 10 0 12 -40
13 -56 2z"/>
<path d="M170 2464 c-24 -55 -24 -58 -5 -51 25 10 25 -9 0 -33 -45 -42 -26
-56 22 -16 29 24 29 24 53 5 14 -11 42 -29 63 -40 32 -17 43 -18 77 -9 44 12
54 30 17 30 -33 0 -113 25 -143 45 -24 16 -25 17 -9 41 17 26 13 44 -10 44 -7
0 -15 7 -19 15 -10 26 -25 16 -46 -31z m45 -24 c-3 -5 -10 -10 -16 -10 -5 0
-9 5 -9 10 0 6 7 10 16 10 8 0 12 -4 9 -10z"/>
<path d="M288 2483 c-10 -2 -18 -12 -18 -21 0 -9 -3 -27 -6 -39 -4 -14 -2 -23
5 -23 6 0 14 14 18 30 7 40 21 38 25 -2 3 -30 6 -33 37 -33 37 0 46 11 31 35
-8 13 -11 12 -24 -5 -12 -16 -15 -17 -20 -5 -2 8 -4 26 -3 40 2 25 -12 32 -45
23z"/>
</g>
</svg>
