<?xml version="1.0" standalone="no"?>
<!DOCTYPE svg PUBLIC "-//W3C//DTD SVG 20010904//EN"
 "http://www.w3.org/TR/2001/REC-SVG-20010904/DTD/svg10.dtd">
<svg version="1.0" xmlns="http://www.w3.org/2000/svg"
 width="50.000000pt" height="725.000000pt" viewBox="0 0 50.000000 725.000000"
 preserveAspectRatio="xMidYMid meet">
<metadata>
Created by potrace 1.16, written by Peter Selinger 2001-2019
</metadata>
<g transform="translate(0.000000,725.000000) scale(0.100000,-0.100000)"
fill="#000000" stroke="none">
<path d="M94 7023 c15 -55 18 -63 27 -63 5 0 9 8 9 18 0 34 -13 62 -27 62 -9
0 -12 -7 -9 -17z"/>
<path d="M173 6603 c-31 -6 -29 -23 2 -23 22 0 25 -3 19 -25 -9 -36 12 -32 32
6 13 26 14 33 2 40 -14 9 -18 9 -55 2z"/>
<path d="M94 6573 c2 -10 7 -28 11 -40 10 -34 28 -28 23 7 -3 17 -1 30 4 30 4
0 8 5 8 10 0 6 -12 10 -26 10 -19 0 -24 -4 -20 -17z"/>
<path d="M173 6153 c-31 -6 -29 -23 2 -23 40 0 28 -33 -16 -43 -21 -5 -28 -3
-32 13 -3 11 -1 20 4 20 5 0 9 5 9 10 0 6 -12 10 -26 10 -21 0 -24 -4 -20 -20
3 -11 9 -29 12 -41 5 -17 11 -20 36 -15 17 3 40 6 52 6 26 0 53 69 33 82 -13
8 -17 8 -54 1z"/>
<path d="M143 5738 c2 -40 0 -43 -26 -46 -22 -3 -27 -7 -22 -23 3 -10 8 -28
11 -39 3 -11 14 -20 25 -20 14 0 19 -7 19 -25 0 -14 5 -25 10 -25 6 0 10 14
10 30 0 24 4 30 23 30 17 0 25 9 34 37 13 41 3 57 -29 49 -15 -3 -18 3 -18 35
0 32 -4 39 -19 39 -17 0 -19 -6 -18 -42z m2 -96 c-6 -15 -8 -15 -15 3 -4 12
-3 23 4 27 14 9 20 -7 11 -30z m55 34 c0 -2 -3 -11 -6 -20 -9 -23 -24 -20 -24
4 0 11 7 20 15 20 8 0 15 -2 15 -4z"/>
<path d="M143 5288 c2 -40 0 -43 -26 -46 -22 -3 -27 -7 -22 -23 3 -10 8 -28
11 -39 3 -11 14 -20 25 -20 15 0 20 -6 17 -22 -2 -17 -13 -25 -40 -32 -21 -5
-38 -13 -38 -18 0 -20 35 -19 81 2 48 23 63 40 34 40 -8 0 -15 9 -15 20 0 14
7 20 23 20 17 0 25 9 34 37 13 41 3 57 -29 49 -15 -3 -18 3 -18 35 0 32 -4 39
-19 39 -17 0 -19 -6 -18 -42z m2 -96 c-6 -15 -8 -15 -15 3 -4 12 -3 23 4 27
14 9 20 -7 11 -30z m55 34 c0 -2 -3 -11 -6 -20 -9 -23 -24 -20 -24 4 0 11 7
20 15 20 8 0 15 -2 15 -4z"/>
<path d="M143 4838 c2 -40 0 -43 -26 -46 -22 -3 -27 -7 -22 -23 3 -10 8 -28
11 -39 3 -11 14 -20 25 -20 15 0 20 -6 17 -22 -2 -17 -13 -25 -40 -32 -21 -5
-38 -13 -38 -18 0 -20 35 -19 77 1 25 12 53 19 64 16 14 -5 19 -1 19 12 0 19
-18 43 -32 43 -4 0 -8 -7 -8 -15 0 -8 -4 -15 -10 -15 -5 0 -10 9 -10 20 0 14
7 20 23 20 17 0 25 9 34 37 13 41 3 57 -29 49 -15 -3 -18 3 -18 35 0 32 -4 39
-19 39 -17 0 -19 -6 -18 -42z m2 -96 c-6 -15 -8 -15 -15 3 -4 12 -3 23 4 27
14 9 20 -7 11 -30z m55 34 c0 -2 -3 -11 -6 -20 -9 -23 -24 -20 -24 4 0 11 7
20 15 20 8 0 15 -2 15 -4z"/>
<path d="M143 4388 c2 -40 0 -43 -26 -46 -22 -3 -27 -7 -22 -23 3 -10 8 -28
11 -39 3 -11 14 -20 25 -20 15 0 20 -6 17 -22 -2 -17 -13 -25 -40 -32 -21 -5
-38 -13 -38 -18 0 -20 35 -19 77 1 25 12 53 19 64 16 14 -5 19 -1 19 12 0 19
-18 43 -32 43 -4 0 -8 -7 -8 -15 0 -8 -4 -15 -10 -15 -5 0 -10 9 -10 20 0 14
7 20 23 20 17 0 25 9 34 37 13 41 3 57 -29 49 -15 -3 -18 3 -18 35 0 32 -4 39
-19 39 -17 0 -19 -6 -18 -42z m2 -96 c-6 -15 -8 -15 -15 3 -4 12 -3 23 4 27
14 9 20 -7 11 -30z m55 34 c0 -2 -3 -11 -6 -20 -9 -23 -24 -20 -24 4 0 11 7
20 15 20 8 0 15 -2 15 -4z"/>
<path d="M283 4373 c-41 -5 -44 -23 -4 -23 43 0 91 11 91 21 0 9 -26 9 -87 2z"/>
<path d="M290 3961 c0 -34 -3 -41 -20 -41 -11 0 -20 -4 -20 -10 0 -5 9 -10 20
-10 13 0 22 -9 26 -25 8 -33 22 -32 26 3 2 19 9 28 26 30 30 5 28 22 -3 22
-22 0 -25 4 -23 32 2 24 -2 33 -14 36 -15 3 -18 -4 -18 -37z"/>
<path d="M143 3938 c2 -40 0 -43 -26 -46 -22 -3 -27 -7 -22 -23 3 -10 8 -28
11 -39 3 -11 14 -20 25 -20 15 0 20 -6 17 -22 -2 -17 -13 -25 -40 -32 -21 -5
-38 -13 -38 -18 0 -20 35 -19 77 1 25 12 53 19 64 16 14 -5 19 -1 19 12 0 19
-18 43 -32 43 -4 0 -8 -7 -8 -15 0 -8 -4 -15 -10 -15 -5 0 -10 9 -10 20 0 14
7 20 23 20 17 0 25 9 34 37 13 41 3 57 -29 49 -15 -3 -18 3 -18 35 0 32 -4 39
-19 39 -17 0 -19 -6 -18 -42z m2 -96 c-6 -15 -8 -15 -15 3 -4 12 -3 23 4 27
14 9 20 -7 11 -30z m55 34 c0 -2 -3 -11 -6 -20 -9 -23 -24 -20 -24 4 0 11 7
20 15 20 8 0 15 -2 15 -4z"/>
<path d="M290 3511 c0 -34 -3 -41 -20 -41 -11 0 -20 -4 -20 -10 0 -5 9 -10 19
-10 23 0 37 -30 19 -42 -7 -4 -23 -8 -35 -8 -13 0 -23 -5 -23 -11 0 -7 27 -9
88 -4 48 4 89 9 92 12 11 10 -26 21 -58 16 -31 -5 -34 -4 -30 18 2 16 11 25
26 27 30 5 28 22 -3 22 -22 0 -25 4 -23 32 2 24 -2 33 -14 36 -15 3 -18 -4
-18 -37z"/>
<path d="M143 3488 c2 -40 0 -43 -26 -46 -22 -3 -27 -7 -22 -23 3 -10 8 -28
11 -39 3 -11 14 -20 25 -20 15 0 20 -6 17 -22 -2 -17 -13 -25 -40 -32 -21 -5
-38 -13 -38 -18 0 -20 35 -19 77 1 25 12 53 19 64 16 14 -5 19 -1 19 12 0 19
-18 43 -32 43 -4 0 -8 -7 -8 -15 0 -8 -4 -15 -10 -15 -5 0 -10 9 -10 20 0 14
7 20 23 20 17 0 25 9 34 37 13 41 3 57 -29 49 -15 -3 -18 3 -18 35 0 32 -4 39
-19 39 -17 0 -19 -6 -18 -42z m2 -96 c-6 -15 -8 -15 -15 3 -4 12 -3 23 4 27
14 9 20 -7 11 -30z m55 34 c0 -2 -3 -11 -6 -20 -9 -23 -24 -20 -24 4 0 11 7
20 15 20 8 0 15 -2 15 -4z"/>
<path d="M290 3061 c0 -34 -3 -41 -20 -41 -11 0 -20 -4 -20 -10 0 -5 9 -10 19
-10 23 0 37 -30 19 -42 -7 -4 -23 -8 -35 -8 -13 0 -23 -5 -23 -11 0 -7 27 -9
88 -4 48 4 89 9 92 12 11 10 -26 21 -58 16 -31 -5 -34 -4 -30 18 2 16 11 25
26 27 30 5 28 22 -3 22 -22 0 -25 4 -23 32 2 24 -2 33 -14 36 -15 3 -18 -4
-18 -37z"/>
<path d="M143 3038 c2 -40 0 -43 -26 -46 -22 -3 -27 -7 -22 -23 3 -10 8 -28
11 -39 3 -11 14 -20 25 -20 15 0 20 -6 17 -22 -2 -17 -13 -25 -40 -32 -21 -5
-38 -13 -38 -18 0 -20 35 -19 77 1 25 12 53 19 64 16 14 -5 19 -1 19 12 0 19
-18 43 -32 43 -4 0 -8 -7 -8 -15 0 -8 -4 -15 -10 -15 -5 0 -10 9 -10 20 0 14
7 20 23 20 17 0 25 9 34 37 13 41 3 57 -29 49 -15 -3 -18 3 -18 35 0 32 -4 39
-19 39 -17 0 -19 -6 -18 -42z m2 -96 c-6 -15 -8 -15 -15 3 -4 12 -3 23 4 27
14 9 20 -7 11 -30z m55 34 c0 -2 -3 -11 -6 -20 -9 -23 -24 -20 -24 4 0 11 7
20 15 20 8 0 15 -2 15 -4z"/>
<path d="M288 2883 c-21 -2 -38 -8 -38 -14 0 -10 63 -12 98 -3 12 4 22 10 22
15 0 9 -11 9 -82 2z"/>
<path d="M290 2611 c0 -34 -3 -41 -20 -41 -11 0 -20 -4 -20 -10 0 -5 9 -10 19
-10 23 0 37 -30 19 -42 -7 -4 -23 -8 -35 -8 -13 0 -23 -4 -23 -10 0 -5 13 -10
29 -10 23 0 30 -5 33 -25 4 -21 1 -25 -18 -25 -30 0 -31 -18 -1 -22 14 -2 23
-11 25 -25 5 -31 22 -29 22 2 0 18 7 26 25 31 30 7 33 24 5 24 -13 0 -20 7
-20 19 0 11 -6 22 -12 24 -7 3 11 6 40 6 28 1 52 5 52 10 0 14 -21 19 -58 13
-31 -4 -33 -3 -30 19 2 16 11 25 26 27 30 5 28 22 -3 22 -22 0 -25 4 -23 32 2
24 -2 33 -14 36 -15 3 -18 -4 -18 -37z"/>
<path d="M143 2588 c2 -40 0 -43 -26 -46 -22 -3 -27 -7 -22 -23 3 -10 8 -28
11 -39 3 -11 14 -20 25 -20 15 0 20 -6 17 -22 -2 -17 -13 -25 -40 -32 -21 -5
-38 -13 -38 -18 0 -20 35 -19 77 1 25 12 53 19 64 16 14 -5 19 -1 19 12 0 19
-18 43 -32 43 -4 0 -8 -7 -8 -15 0 -8 -4 -15 -10 -15 -5 0 -10 9 -10 20 0 14
7 20 23 20 17 0 25 9 34 37 13 41 3 57 -29 49 -15 -3 -18 3 -18 35 0 32 -4 39
-19 39 -17 0 -19 -6 -18 -42z m2 -96 c-6 -15 -8 -15 -15 3 -4 12 -3 23 4 27
14 9 20 -7 11 -30z m55 34 c0 -2 -3 -11 -6 -20 -9 -23 -24 -20 -24 4 0 11 7
20 15 20 8 0 15 -2 15 -4z"/>
<path d="M290 2161 c0 -34 -3 -41 -20 -41 -11 0 -20 -4 -20 -10 0 -5 9 -10 19
-10 23 0 37 -30 19 -42 -7 -4 -23 -8 -35 -8 -13 0 -23 -4 -23 -10 0 -5 13 -10
29 -10 23 0 30 -5 33 -25 4 -21 1 -25 -18 -25 -30 0 -31 -18 -2 -22 13 -2 24
-11 26 -20 3 -15 -4 -18 -35 -18 -36 0 -73 -14 -63 -23 3 -3 56 -3 118 0 85 5
112 9 112 19 0 10 -15 14 -55 14 -42 0 -55 4 -55 15 0 8 11 17 25 21 30 7 33
24 5 24 -13 0 -20 7 -20 19 0 11 -6 22 -12 24 -7 3 11 6 40 6 28 1 52 5 52 10
0 14 -21 19 -58 13 -31 -4 -33 -3 -30 19 2 16 11 25 26 27 30 5 28 22 -3 22
-22 0 -25 4 -23 32 2 24 -2 33 -14 36 -15 3 -18 -4 -18 -37z"/>
<path d="M143 2138 c2 -40 0 -43 -26 -46 -22 -3 -27 -7 -22 -23 3 -10 8 -28
11 -39 3 -11 14 -20 25 -20 15 0 20 -6 17 -22 -2 -17 -13 -25 -40 -32 -21 -5
-38 -13 -38 -18 0 -20 35 -19 77 1 25 12 53 19 64 16 14 -5 19 -1 19 12 0 19
-18 43 -32 43 -4 0 -8 -7 -8 -15 0 -8 -4 -15 -10 -15 -5 0 -10 9 -10 20 0 14
7 20 23 20 17 0 25 9 34 37 13 41 3 57 -29 49 -15 -3 -18 3 -18 35 0 32 -4 39
-19 39 -17 0 -19 -6 -18 -42z m2 -96 c-6 -15 -8 -15 -15 3 -4 12 -3 23 4 27
14 9 20 -7 11 -30z m55 34 c0 -2 -3 -11 -6 -20 -9 -23 -24 -20 -24 4 0 11 7
20 15 20 8 0 15 -2 15 -4z"/>
</g>
</svg>
