<?xml version="1.0" standalone="no"?>
<!DOCTYPE svg PUBLIC "-//W3C//DTD SVG 20010904//EN"
 "http://www.w3.org/TR/2001/REC-SVG-20010904/DTD/svg10.dtd">
<svg version="1.0" xmlns="http://www.w3.org/2000/svg"
 width="50.000000pt" height="725.000000pt" viewBox="0 0 50.000000 725.000000"
 preserveAspectRatio="xMidYMid meet">
<metadata>
Created by potrace 1.16, written by Peter Selinger 2001-2019
</metadata>
<g transform="translate(0.000000,725.000000) scale(0.100000,-0.100000)"
fill="#000000" stroke="none">
<path d="M93 7029 c4 -13 7 -34 7 -46 0 -13 5 -23 11 -23 16 0 7 83 -10 88
-10 4 -12 -1 -8 -19z"/>
<path d="M158 6603 c-37 -6 -36 -23 2 -23 25 0 30 -4 30 -25 0 -34 15 -32 30
4 19 47 9 55 -62 44z"/>
<path d="M93 6579 c4 -13 7 -34 7 -46 0 -13 5 -23 11 -23 16 0 7 83 -10 88
-10 4 -12 -1 -8 -19z"/>
<path d="M158 6153 c-37 -6 -36 -23 2 -23 19 0 30 -5 30 -14 0 -17 -5 -21 -42
-30 -24 -5 -27 -3 -30 26 -2 17 -9 33 -16 36 -9 3 -11 -7 -6 -40 4 -23 8 -44
8 -45 1 -1 25 0 53 3 46 6 51 9 62 40 19 52 11 58 -61 47z"/>
<path d="M137 5710 c2 -47 -1 -80 -7 -80 -6 0 -10 13 -10 29 0 26 -15 49 -25
39 -2 -2 -1 -22 2 -46 4 -32 10 -42 24 -42 15 0 19 -7 19 -31 0 -41 24 -33 28
9 2 23 8 32 21 32 19 0 47 63 35 81 -3 6 -17 9 -31 6 -23 -4 -24 -2 -21 37 3
35 0 41 -17 44 -19 3 -20 -2 -18 -78z m53 -44 c0 -8 -4 -18 -10 -21 -5 -3 -10
3 -10 14 0 12 5 21 10 21 6 0 10 -6 10 -14z"/>
<path d="M137 5260 c2 -47 -1 -80 -7 -80 -6 0 -10 13 -10 29 0 26 -15 49 -25
39 -2 -2 -1 -22 2 -46 4 -32 10 -42 24 -42 13 0 19 -7 19 -25 0 -20 -6 -25
-35 -31 -19 -3 -35 -10 -35 -15 0 -21 34 -20 81 1 48 23 63 40 34 40 -8 0 -15
9 -15 20 0 13 7 20 18 20 11 0 23 13 31 35 15 42 7 58 -26 52 -23 -4 -24 -2
-21 37 3 35 0 41 -17 44 -19 3 -20 -2 -18 -78z m53 -44 c0 -8 -4 -18 -10 -21
-5 -3 -10 3 -10 14 0 12 5 21 10 21 6 0 10 -6 10 -14z"/>
<path d="M137 4810 c2 -47 -1 -80 -7 -80 -6 0 -10 13 -10 29 0 26 -15 49 -25
39 -2 -2 -1 -22 2 -46 4 -32 10 -42 24 -42 13 0 19 -7 19 -25 0 -20 -6 -25
-35 -31 -19 -3 -35 -10 -35 -15 0 -22 36 -20 86 4 30 15 54 22 54 17 0 -6 7
-10 16 -10 21 0 14 30 -10 44 -14 8 -20 8 -23 -1 -7 -20 -23 -15 -23 7 0 13 7
20 18 20 11 0 23 13 31 35 15 42 7 58 -26 52 -23 -4 -24 -2 -21 37 3 35 0 41
-17 44 -19 3 -20 -2 -18 -78z m53 -44 c0 -8 -4 -18 -10 -21 -5 -3 -10 3 -10
14 0 12 5 21 10 21 6 0 10 -6 10 -14z"/>
<path d="M137 4360 c2 -47 -1 -80 -7 -80 -6 0 -10 13 -10 29 0 26 -15 49 -25
39 -2 -2 -1 -22 2 -46 4 -32 10 -42 24 -42 13 0 19 -7 19 -25 0 -20 -6 -25
-35 -31 -19 -3 -35 -10 -35 -15 0 -22 36 -20 86 4 30 15 54 22 54 17 0 -6 7
-10 16 -10 21 0 14 30 -10 44 -14 8 -20 8 -23 -1 -7 -20 -23 -15 -23 7 0 13 7
20 18 20 11 0 23 13 31 35 15 42 7 58 -26 52 -23 -4 -24 -2 -21 37 3 35 0 41
-17 44 -19 3 -20 -2 -18 -78z m53 -44 c0 -8 -4 -18 -10 -21 -5 -3 -10 3 -10
14 0 12 5 21 10 21 6 0 10 -6 10 -14z"/>
<path d="M278 4413 c-26 -3 -38 -9 -38 -20 0 -11 7 -14 23 -10 12 3 48 9 80
12 31 4 57 11 57 16 0 9 -48 9 -122 2z"/>
<path d="M137 3910 c2 -47 -1 -80 -7 -80 -6 0 -10 13 -10 29 0 26 -15 49 -25
39 -2 -2 -1 -22 2 -46 4 -32 10 -42 24 -42 13 0 19 -7 19 -25 0 -20 -6 -25
-35 -31 -19 -3 -35 -10 -35 -15 0 -22 36 -20 86 4 30 15 54 22 54 17 0 -6 7
-10 16 -10 21 0 14 30 -10 44 -14 8 -20 8 -23 -1 -7 -20 -23 -15 -23 7 0 13 7
20 18 20 11 0 23 13 31 35 15 42 7 58 -26 52 -23 -4 -24 -2 -21 37 3 35 0 41
-17 44 -19 3 -20 -2 -18 -78z m53 -44 c0 -8 -4 -18 -10 -21 -5 -3 -10 3 -10
14 0 12 5 21 10 21 6 0 10 -6 10 -14z"/>
<path d="M278 3963 c-26 -3 -38 -9 -38 -20 0 -11 6 -14 25 -9 33 9 32 -6 -6
-49 -41 -46 -30 -60 34 -43 52 13 64 33 18 26 l-30 -4 20 27 c10 15 19 32 19
37 0 12 24 22 56 22 13 0 24 5 24 10 0 10 -46 11 -122 3z"/>
<path d="M350 3870 c0 -5 5 -10 10 -10 6 0 10 5 10 10 0 6 -4 10 -10 10 -5 0
-10 -4 -10 -10z"/>
<path d="M137 3460 c2 -47 -1 -80 -7 -80 -6 0 -10 13 -10 29 0 26 -15 49 -25
39 -2 -2 -1 -22 2 -46 4 -32 10 -42 24 -42 13 0 19 -7 19 -25 0 -20 -6 -25
-35 -31 -19 -3 -35 -10 -35 -15 0 -22 36 -20 86 4 30 15 54 22 54 17 0 -6 7
-10 16 -10 21 0 14 30 -10 44 -14 8 -20 8 -23 -1 -7 -20 -23 -15 -23 7 0 13 7
20 18 20 11 0 23 13 31 35 15 42 7 58 -26 52 -23 -4 -24 -2 -21 37 3 35 0 41
-17 44 -19 3 -20 -2 -18 -78z m53 -44 c0 -8 -4 -18 -10 -21 -5 -3 -10 3 -10
14 0 12 5 21 10 21 6 0 10 -6 10 -14z"/>
<path d="M278 3513 c-26 -3 -38 -9 -38 -20 0 -11 6 -14 25 -9 33 9 32 -6 -6
-49 -41 -46 -30 -60 34 -43 52 13 64 33 18 26 l-30 -4 20 27 c10 15 19 32 19
37 0 12 24 22 56 22 13 0 24 5 24 10 0 10 -46 11 -122 3z"/>
<path d="M340 3441 c0 -13 40 -61 51 -61 17 0 9 49 -10 60 -24 12 -41 13 -41
1z"/>
<path d="M137 3010 c2 -47 -1 -80 -7 -80 -6 0 -10 13 -10 29 0 26 -15 49 -25
39 -2 -2 -1 -22 2 -46 4 -32 10 -42 24 -42 13 0 19 -7 19 -25 0 -20 -6 -25
-35 -31 -19 -3 -35 -10 -35 -15 0 -22 36 -20 86 4 30 15 54 22 54 17 0 -6 7
-10 16 -10 21 0 14 30 -10 44 -14 8 -20 8 -23 -1 -7 -20 -23 -15 -23 7 0 13 7
20 18 20 11 0 23 13 31 35 15 42 7 58 -26 52 -23 -4 -24 -2 -21 37 3 35 0 41
-17 44 -19 3 -20 -2 -18 -78z m53 -44 c0 -8 -4 -18 -10 -21 -5 -3 -10 3 -10
14 0 12 5 21 10 21 6 0 10 -6 10 -14z"/>
<path d="M278 3063 c-26 -3 -38 -9 -38 -20 0 -11 6 -14 25 -9 33 9 32 -6 -6
-49 -41 -46 -30 -60 34 -43 52 13 64 33 18 26 l-30 -4 20 27 c10 15 19 32 19
37 0 12 24 22 56 22 13 0 24 5 24 10 0 10 -46 11 -122 3z"/>
<path d="M340 2991 c0 -13 40 -61 51 -61 17 0 9 49 -10 60 -24 12 -41 13 -41
1z"/>
<path d="M288 2903 c-50 -5 -49 -23 1 -23 51 0 101 10 101 21 0 9 -30 9 -102
2z"/>
<path d="M137 2560 c2 -47 -1 -80 -7 -80 -6 0 -10 13 -10 29 0 26 -15 49 -25
39 -2 -2 -1 -22 2 -46 4 -32 10 -42 24 -42 13 0 19 -7 19 -25 0 -20 -6 -25
-35 -31 -19 -3 -35 -10 -35 -15 0 -22 36 -20 86 4 30 15 54 22 54 17 0 -6 7
-10 16 -10 21 0 14 30 -10 44 -14 8 -20 8 -23 -1 -7 -20 -23 -15 -23 7 0 13 7
20 18 20 11 0 23 13 31 35 15 42 7 58 -26 52 -23 -4 -24 -2 -21 37 3 35 0 41
-17 44 -19 3 -20 -2 -18 -78z m53 -44 c0 -8 -4 -18 -10 -21 -5 -3 -10 3 -10
14 0 12 5 21 10 21 6 0 10 -6 10 -14z"/>
<path d="M278 2613 c-26 -3 -38 -9 -38 -20 0 -11 6 -14 25 -9 33 8 32 -6 -6
-48 -35 -41 -31 -60 12 -51 25 6 29 4 29 -14 0 -16 -6 -21 -25 -21 -14 0 -25
-4 -25 -10 0 -5 11 -10 25 -10 21 0 25 -5 25 -31 0 -38 24 -35 28 5 3 21 10
28 33 33 39 7 37 23 -2 23 -30 0 -31 2 -25 31 6 30 5 31 -23 27 l-30 -4 20 27
c10 15 19 32 19 37 0 12 24 22 56 22 13 0 24 5 24 10 0 10 -46 11 -122 3z"/>
<path d="M340 2541 c0 -13 40 -61 51 -61 17 0 9 49 -10 60 -24 12 -41 13 -41
1z"/>
<path d="M137 2110 c2 -47 -1 -80 -7 -80 -6 0 -10 13 -10 29 0 26 -15 49 -25
39 -2 -2 -1 -22 2 -46 4 -32 10 -42 24 -42 13 0 19 -7 19 -25 0 -20 -6 -25
-35 -31 -19 -3 -35 -10 -35 -15 0 -22 36 -20 86 4 30 15 54 22 54 17 0 -6 7
-10 16 -10 21 0 14 30 -10 44 -14 8 -20 8 -23 -1 -7 -20 -23 -15 -23 7 0 13 7
20 18 20 11 0 23 13 31 35 15 42 7 58 -26 52 -23 -4 -24 -2 -21 37 3 35 0 41
-17 44 -19 3 -20 -2 -18 -78z m53 -44 c0 -8 -4 -18 -10 -21 -5 -3 -10 3 -10
14 0 12 5 21 10 21 6 0 10 -6 10 -14z"/>
<path d="M278 2163 c-26 -3 -38 -9 -38 -20 0 -11 6 -14 25 -9 33 8 32 -6 -6
-48 -35 -41 -31 -60 12 -51 25 6 29 4 29 -14 0 -16 -6 -21 -25 -21 -14 0 -25
-4 -25 -10 0 -5 11 -10 25 -10 20 0 25 -5 25 -24 0 -20 -6 -24 -45 -29 -44 -4
-63 -12 -54 -21 2 -3 57 -2 122 1 79 4 116 10 114 17 -2 6 -27 11 -55 11 -47
0 -52 2 -52 23 0 17 7 24 30 29 39 7 39 23 -1 23 -30 0 -31 2 -25 31 6 30 5
31 -23 27 l-30 -4 20 27 c10 15 19 32 19 37 0 12 24 22 56 22 13 0 24 5 24 10
0 10 -46 11 -122 3z"/>
<path d="M340 2091 c0 -13 40 -61 51 -61 17 0 9 49 -10 60 -24 12 -41 13 -41
1z"/>
</g>
</svg>
