<?xml version="1.0" standalone="no"?>
<!DOCTYPE svg PUBLIC "-//W3C//DTD SVG 20010904//EN"
 "http://www.w3.org/TR/2001/REC-SVG-20010904/DTD/svg10.dtd">
<svg version="1.0" xmlns="http://www.w3.org/2000/svg"
 width="50.000000pt" height="725.000000pt" viewBox="0 0 50.000000 725.000000"
 preserveAspectRatio="xMidYMid meet">
<metadata>
Created by potrace 1.16, written by Peter Selinger 2001-2019
</metadata>
<g transform="translate(0.000000,725.000000) scale(0.100000,-0.100000)"
fill="#000000" stroke="none">
<path d="M104 7028 c3 -13 6 -33 6 -45 0 -13 5 -23 10 -23 6 0 10 20 10 45 0
35 -4 45 -16 45 -12 0 -15 -6 -10 -22z"/>
<path d="M170 6600 c0 -5 7 -10 15 -10 9 0 15 -9 15 -25 0 -32 14 -32 28 0 18
39 15 45 -23 45 -19 0 -35 -4 -35 -10z"/>
<path d="M104 6578 c3 -13 6 -33 6 -45 0 -13 5 -23 10 -23 6 0 10 16 10 35 0
24 5 35 15 35 8 0 15 5 15 10 0 6 -14 10 -31 10 -28 0 -31 -3 -25 -22z"/>
<path d="M170 6150 c0 -5 7 -10 15 -10 20 0 19 -36 -1 -44 -32 -12 -54 -6 -54
14 0 11 7 20 15 20 8 0 15 5 15 10 0 6 -14 10 -31 10 -28 0 -31 -3 -25 -22 3
-13 6 -33 6 -46 0 -17 5 -22 18 -19 9 3 33 8 53 11 28 5 37 12 47 39 17 46 16
47 -23 47 -19 0 -35 -4 -35 -10z"/>
<path d="M148 5745 c4 -44 4 -45 -23 -45 -23 0 -26 -3 -21 -22 3 -13 6 -33 6
-46 0 -19 4 -22 20 -17 16 5 20 2 20 -19 0 -14 5 -26 10 -26 6 0 10 11 10 25
0 17 7 26 23 30 15 4 28 19 35 39 16 45 16 46 -18 46 -28 0 -30 2 -30 40 0 32
-4 40 -19 40 -16 0 -18 -6 -13 -45z m52 -75 c0 -11 -7 -20 -15 -20 -15 0 -21
21 -8 33 12 13 23 7 23 -13z m-50 -10 c0 -11 -4 -20 -10 -20 -5 0 -10 9 -10
20 0 11 5 20 10 20 6 0 10 -9 10 -20z"/>
<path d="M148 5295 c4 -44 4 -45 -23 -45 -23 0 -26 -3 -21 -22 3 -13 6 -33 6
-46 0 -19 4 -22 20 -17 15 5 20 2 20 -14 0 -15 -9 -22 -35 -27 -19 -3 -35 -10
-35 -15 0 -21 33 -20 85 2 56 23 75 44 30 33 -19 -5 -25 -2 -25 10 0 8 10 18
23 21 15 4 28 19 35 39 16 45 16 46 -18 46 -28 0 -30 2 -30 40 0 32 -4 40 -19
40 -16 0 -18 -6 -13 -45z m52 -75 c0 -11 -7 -20 -15 -20 -15 0 -21 21 -8 33
12 13 23 7 23 -13z m-50 -10 c0 -11 -4 -20 -10 -20 -5 0 -10 9 -10 20 0 11 5
20 10 20 6 0 10 -9 10 -20z"/>
<path d="M148 4845 c4 -44 4 -45 -23 -45 -23 0 -26 -3 -21 -22 3 -13 6 -33 6
-46 0 -19 4 -22 20 -17 15 5 20 2 20 -14 0 -15 -9 -22 -35 -27 -19 -3 -35 -10
-35 -15 0 -20 33 -20 78 -1 26 11 49 17 50 11 5 -14 32 -11 32 4 0 15 -31 47
-44 47 -5 0 -6 -7 -2 -15 3 -9 0 -15 -9 -15 -24 0 -17 29 8 35 15 4 28 19 35
39 16 45 16 46 -18 46 -28 0 -30 2 -30 40 0 32 -4 40 -19 40 -16 0 -18 -6 -13
-45z m52 -75 c0 -11 -7 -20 -15 -20 -15 0 -21 21 -8 33 12 13 23 7 23 -13z
m-50 -10 c0 -11 -4 -20 -10 -20 -5 0 -10 9 -10 20 0 11 5 20 10 20 6 0 10 -9
10 -20z"/>
<path d="M298 4437 c-27 -6 -48 -14 -48 -19 0 -10 25 -10 73 1 38 9 38 9 21
-10 -25 -28 -9 -35 31 -13 71 38 23 63 -77 41z"/>
<path d="M148 4395 c4 -44 4 -45 -23 -45 -23 0 -26 -3 -21 -22 3 -13 6 -33 6
-46 0 -19 4 -22 20 -17 15 5 20 2 20 -14 0 -15 -9 -22 -35 -27 -19 -3 -35 -10
-35 -15 0 -20 33 -20 78 -1 26 11 49 17 50 11 5 -14 32 -11 32 4 0 15 -31 47
-44 47 -5 0 -6 -7 -2 -15 3 -9 0 -15 -9 -15 -24 0 -17 29 8 35 15 4 28 19 35
39 16 45 16 46 -18 46 -28 0 -30 2 -30 40 0 32 -4 40 -19 40 -16 0 -18 -6 -13
-45z m52 -75 c0 -11 -7 -20 -15 -20 -15 0 -21 21 -8 33 12 13 23 7 23 -13z
m-50 -10 c0 -11 -4 -20 -10 -20 -5 0 -10 9 -10 20 0 11 5 20 10 20 6 0 10 -9
10 -20z"/>
<path d="M298 3987 c-27 -6 -48 -14 -48 -19 0 -10 25 -10 73 1 37 9 38 9 21
-10 -9 -10 -23 -19 -31 -19 -16 0 -17 -12 -1 -28 17 -17 38 -15 38 3 0 9 14
24 30 33 65 37 15 61 -82 39z"/>
<path d="M148 3945 c4 -44 4 -45 -23 -45 -23 0 -26 -3 -21 -22 3 -13 6 -33 6
-46 0 -19 4 -22 20 -17 15 5 20 2 20 -14 0 -15 -9 -22 -35 -27 -19 -3 -35 -10
-35 -15 0 -20 33 -20 78 -1 26 11 49 17 50 11 5 -14 32 -11 32 4 0 15 -31 47
-44 47 -5 0 -6 -7 -2 -15 3 -9 0 -15 -9 -15 -24 0 -17 29 8 35 15 4 28 19 35
39 16 45 16 46 -18 46 -28 0 -30 2 -30 40 0 32 -4 40 -19 40 -16 0 -18 -6 -13
-45z m52 -75 c0 -11 -7 -20 -15 -20 -15 0 -21 21 -8 33 12 13 23 7 23 -13z
m-50 -10 c0 -11 -4 -20 -10 -20 -5 0 -10 9 -10 20 0 11 5 20 10 20 6 0 10 -9
10 -20z"/>
<path d="M298 3537 c-27 -6 -48 -14 -48 -19 0 -10 25 -10 73 1 37 9 38 9 21
-10 -9 -10 -23 -19 -31 -19 -16 0 -17 -12 -1 -28 17 -17 38 -15 38 3 0 9 14
24 30 33 65 37 15 61 -82 39z"/>
<path d="M148 3495 c4 -44 4 -45 -23 -45 -23 0 -26 -3 -21 -22 3 -13 6 -33 6
-46 0 -19 4 -22 20 -17 15 5 20 2 20 -14 0 -15 -9 -22 -35 -27 -19 -3 -35 -10
-35 -15 0 -20 33 -20 78 -1 26 11 49 17 50 11 2 -5 10 -9 18 -9 8 0 14 -10 14
-25 0 -14 4 -25 10 -25 20 0 33 180 13 187 -10 3 -13 -11 -13 -51 0 -57 -8
-68 -30 -41 -7 8 -17 15 -22 15 -6 0 -8 -7 -4 -15 3 -9 0 -15 -9 -15 -24 0
-17 29 8 35 15 4 28 19 35 39 16 45 16 46 -18 46 -28 0 -30 2 -30 40 0 32 -4
40 -19 40 -16 0 -18 -6 -13 -45z m52 -75 c0 -11 -7 -20 -15 -20 -15 0 -21 21
-8 33 12 13 23 7 23 -13z m-50 -10 c0 -11 -4 -20 -10 -20 -5 0 -10 9 -10 20 0
11 5 20 10 20 6 0 10 -9 10 -20z"/>
<path d="M298 3087 c-27 -6 -48 -14 -48 -19 0 -10 25 -10 73 1 37 9 38 9 21
-10 -9 -10 -23 -19 -31 -19 -16 0 -17 -12 -1 -28 9 -9 4 -12 -25 -12 l-37 0 0
-55 c0 -56 -8 -67 -30 -40 -7 8 -17 15 -22 15 -6 0 -8 -7 -4 -15 3 -9 0 -15
-9 -15 -24 0 -17 29 8 35 15 4 28 19 35 39 16 45 16 46 -18 46 -28 0 -30 2
-30 40 0 32 -4 40 -19 40 -16 0 -18 -6 -13 -45 4 -44 4 -45 -23 -45 -23 0 -26
-3 -21 -22 3 -13 6 -33 6 -46 0 -19 4 -22 20 -17 15 5 20 2 20 -14 0 -15 -9
-22 -35 -27 -19 -3 -35 -10 -35 -15 0 -20 33 -20 78 -1 26 11 49 17 50 11 2
-5 10 -9 18 -9 8 0 14 -10 14 -25 0 -14 4 -25 10 -25 9 0 14 23 25 114 3 27 7
51 9 53 2 2 27 6 55 10 l52 6 -3 -79 c-3 -69 -5 -79 -20 -76 -24 4 -23 -11 2
-33 37 -34 47 -15 52 97 5 112 1 122 -44 112 -38 -8 -36 12 2 34 65 37 15 61
-82 39z m-98 -117 c0 -11 -7 -20 -15 -20 -15 0 -21 21 -8 33 12 13 23 7 23
-13z m-50 -10 c0 -11 -4 -20 -10 -20 -5 0 -10 9 -10 20 0 11 5 20 10 20 6 0
10 -9 10 -20z"/>
<path d="M298 2637 c-27 -6 -48 -14 -48 -19 0 -10 25 -10 73 1 37 9 38 9 21
-10 -9 -10 -23 -19 -31 -19 -16 0 -17 -12 -1 -28 9 -9 4 -12 -25 -12 l-37 0 0
-55 c0 -56 -8 -67 -30 -40 -7 8 -17 15 -22 15 -6 0 -8 -7 -4 -15 3 -9 0 -15
-9 -15 -24 0 -17 29 8 35 15 4 28 19 35 39 16 45 16 46 -18 46 -28 0 -30 2
-30 40 0 32 -4 40 -19 40 -16 0 -18 -6 -13 -45 4 -44 4 -45 -23 -45 -23 0 -26
-3 -21 -22 3 -13 6 -33 6 -46 0 -19 4 -22 20 -17 15 5 20 2 20 -14 0 -15 -9
-22 -35 -27 -19 -3 -35 -10 -35 -15 0 -20 33 -20 78 -1 26 11 49 17 50 11 2
-5 10 -9 18 -9 8 0 14 -10 14 -25 0 -14 4 -25 9 -25 11 0 21 36 21 78 0 18 5
32 13 33 6 0 34 4 60 8 l48 8 -3 -51 c-2 -42 -6 -50 -20 -48 -24 4 -23 -11 2
-33 37 -34 47 -15 52 97 5 112 1 122 -44 112 -38 -8 -36 12 2 34 65 37 15 61
-82 39z m-98 -117 c0 -11 -7 -20 -15 -20 -15 0 -21 21 -8 33 12 13 23 7 23
-13z m190 5 c0 -8 -6 -15 -12 -15 -7 -1 -32 -5 -55 -9 -38 -7 -43 -6 -43 10 0
18 19 25 78 28 22 1 32 -3 32 -14z m-240 -15 c0 -11 -4 -20 -10 -20 -5 0 -10
9 -10 20 0 11 5 20 10 20 6 0 10 -9 10 -20z"/>
<path d="M298 2187 c-27 -6 -48 -14 -48 -19 0 -10 25 -10 73 1 37 9 38 9 21
-10 -9 -10 -23 -19 -31 -19 -16 0 -17 -12 -1 -28 9 -9 4 -12 -25 -12 l-37 0 0
-55 c0 -56 -8 -67 -30 -40 -7 8 -17 15 -22 15 -6 0 -8 -7 -4 -15 3 -9 0 -15
-9 -15 -24 0 -17 29 8 35 15 4 28 19 35 39 16 45 16 46 -18 46 -28 0 -30 2
-30 40 0 32 -4 40 -19 40 -16 0 -18 -6 -13 -45 4 -44 4 -45 -23 -45 -23 0 -26
-3 -21 -22 3 -13 6 -33 6 -46 0 -19 4 -22 20 -17 15 5 20 2 20 -14 0 -15 -9
-22 -35 -27 -19 -3 -35 -10 -35 -15 0 -20 33 -20 78 -1 26 11 49 17 50 11 2
-5 10 -9 18 -9 8 0 14 -10 14 -25 0 -37 18 -30 25 9 6 31 10 34 52 40 72 10
75 9 71 -21 -2 -20 -8 -27 -20 -25 -24 4 -23 -11 2 -33 37 -34 47 -15 52 97 5
112 1 122 -44 112 -38 -8 -36 12 2 34 65 37 15 61 -82 39z m-98 -117 c0 -11
-7 -20 -15 -20 -15 0 -21 21 -8 33 12 13 23 7 23 -13z m190 5 c0 -8 -6 -15
-12 -15 -7 -1 -32 -5 -55 -9 -38 -7 -43 -6 -43 10 0 18 19 25 78 28 22 1 32
-3 32 -14z m-240 -15 c0 -11 -4 -20 -10 -20 -5 0 -10 9 -10 20 0 11 5 20 10
20 6 0 10 -9 10 -20z m240 -33 c0 -7 -8 -13 -17 -13 -10 0 -37 -4 -60 -8 -28
-5 -43 -4 -43 3 0 5 21 13 48 16 26 4 52 8 57 10 6 2 11 4 13 4 1 1 2 -5 2
-12z"/>
<path d="M298 1737 c-27 -6 -48 -14 -48 -19 0 -10 25 -10 73 1 37 9 38 9 21
-10 -9 -10 -23 -19 -31 -19 -16 0 -17 -12 -1 -28 9 -9 4 -12 -25 -12 l-37 0 0
-55 c0 -56 -8 -67 -30 -40 -7 8 -17 15 -22 15 -6 0 -8 -7 -4 -15 3 -9 0 -15
-9 -15 -24 0 -17 29 8 35 15 4 28 19 35 39 16 45 16 46 -18 46 -28 0 -30 2
-30 40 0 32 -4 40 -19 40 -16 0 -18 -6 -13 -45 4 -44 4 -45 -23 -45 -23 0 -26
-3 -21 -22 3 -13 6 -33 6 -46 0 -19 4 -22 20 -17 15 5 20 2 20 -14 0 -15 -9
-22 -35 -27 -19 -3 -35 -10 -35 -15 0 -20 33 -20 78 -1 26 11 49 17 50 11 2
-5 10 -9 18 -9 8 0 14 -10 14 -25 0 -37 18 -30 26 10 4 25 11 35 25 35 15 0
19 -7 19 -40 0 -40 13 -53 24 -24 3 9 6 29 6 45 0 24 4 29 26 29 22 0 25 -4
22 -27 -2 -20 -8 -27 -20 -25 -24 4 -23 -11 2 -33 37 -34 47 -15 52 97 5 112
1 122 -44 112 -38 -8 -36 12 2 34 65 37 15 61 -82 39z m-98 -117 c0 -11 -7
-20 -15 -20 -15 0 -21 21 -8 33 12 13 23 7 23 -13z m190 5 c0 -8 -9 -15 -20
-15 -11 0 -20 7 -20 15 0 8 9 15 20 15 11 0 20 -7 20 -15z m-240 -15 c0 -11
-4 -20 -10 -20 -5 0 -10 9 -10 20 0 11 5 20 10 20 6 0 10 -9 10 -20z m160 6
c0 -8 -7 -16 -15 -20 -10 -4 -15 1 -15 14 0 11 7 20 15 20 8 0 15 -6 15 -14z
m80 -38 c0 -7 -11 -14 -25 -14 -31 -2 -33 13 -2 19 12 2 23 5 25 6 1 0 2 -5 2
-11z m-80 -18 c0 -5 -9 -10 -20 -10 -11 0 -20 5 -20 10 0 6 9 10 20 10 11 0
20 -4 20 -10z"/>
</g>
</svg>
