<?xml version="1.0" standalone="no"?>
<!DOCTYPE svg PUBLIC "-//W3C//DTD SVG 20010904//EN"
 "http://www.w3.org/TR/2001/REC-SVG-20010904/DTD/svg10.dtd">
<svg version="1.0" xmlns="http://www.w3.org/2000/svg"
 width="50.000000pt" height="725.000000pt" viewBox="0 0 50.000000 725.000000"
 preserveAspectRatio="xMidYMid meet">
<metadata>
Created by potrace 1.16, written by Peter Selinger 2001-2019
</metadata>
<g transform="translate(0.000000,725.000000) scale(0.100000,-0.100000)"
fill="#000000" stroke="none">
<path d="M86 7018 c7 -35 20 -55 29 -46 9 9 -10 71 -23 76 -8 2 -10 -6 -6 -30z"/>
<path d="M145 6600 c-22 -4 -46 -5 -53 -3 -12 5 -11 -17 4 -64 7 -25 25 -13
22 15 -3 24 1 27 30 30 30 3 33 1 27 -17 -9 -31 18 -27 35 5 12 22 12 27 0 34
-8 6 -17 9 -20 9 -3 -1 -23 -5 -45 -9z"/>
<path d="M145 6150 c-22 -4 -45 -5 -52 -3 -10 4 -11 -4 -7 -28 9 -47 16 -51
66 -44 36 6 46 12 57 37 12 25 11 32 0 39 -8 5 -16 8 -19 8 -3 -1 -23 -5 -45
-9z m35 -30 c0 -17 -49 -35 -61 -23 -6 6 -8 16 -5 22 9 14 66 14 66 1z"/>
<path d="M124 5738 c1 -39 -1 -43 -23 -40 -18 2 -22 -2 -17 -14 3 -8 6 -25 6
-36 0 -11 8 -22 20 -25 13 -4 20 -14 20 -30 0 -33 24 -25 28 10 2 17 9 27 20
27 10 0 23 14 31 31 12 27 12 32 0 40 -8 5 -22 6 -33 3 -17 -6 -18 -2 -12 29
5 27 3 36 -10 41 -28 11 -31 7 -30 -36z m6 -80 c0 -16 -3 -19 -11 -11 -6 6 -8
16 -5 22 11 17 16 13 16 -11z m50 13 c0 -6 -4 -13 -10 -16 -5 -3 -10 1 -10 9
0 9 5 16 10 16 6 0 10 -4 10 -9z"/>
<path d="M124 5288 c1 -39 -1 -43 -23 -40 -18 2 -22 -2 -17 -14 3 -8 6 -25 6
-36 0 -11 8 -22 20 -25 32 -8 25 -42 -10 -49 -33 -7 -39 -21 -14 -31 17 -6 94
25 94 39 0 4 -4 8 -10 8 -5 0 -10 9 -10 20 0 12 7 20 18 20 10 0 23 13 31 31
12 27 12 32 0 40 -8 5 -22 6 -33 3 -17 -6 -18 -2 -12 29 5 27 3 36 -10 41 -28
11 -31 7 -30 -36z m6 -80 c0 -16 -3 -19 -11 -11 -6 6 -8 16 -5 22 11 17 16 13
16 -11z m50 13 c0 -6 -4 -13 -10 -16 -5 -3 -10 1 -10 9 0 9 5 16 10 16 6 0 10
-4 10 -9z"/>
<path d="M124 4838 c1 -39 -1 -43 -23 -40 -18 2 -22 -2 -17 -14 3 -8 6 -25 6
-36 0 -11 8 -22 20 -25 32 -8 25 -42 -10 -49 -16 -4 -30 -11 -30 -16 0 -19 33
-20 72 -2 31 14 43 15 46 6 7 -22 22 -13 22 13 0 29 -28 45 -41 24 -6 -11 -9
-8 -9 9 0 14 6 22 18 22 10 0 23 13 31 31 12 27 12 32 0 40 -8 5 -22 6 -33 3
-17 -6 -18 -2 -12 29 5 27 3 36 -10 41 -28 11 -31 7 -30 -36z m6 -80 c0 -16
-3 -19 -11 -11 -6 6 -8 16 -5 22 11 17 16 13 16 -11z m50 13 c0 -6 -4 -13 -10
-16 -5 -3 -10 1 -10 9 0 9 5 16 10 16 6 0 10 -4 10 -9z"/>
<path d="M124 4388 c1 -39 -1 -43 -23 -40 -18 2 -22 -2 -17 -14 3 -8 6 -25 6
-36 0 -11 8 -22 20 -25 32 -8 25 -42 -10 -49 -16 -4 -30 -11 -30 -16 0 -19 33
-20 72 -2 31 14 43 15 46 6 7 -22 22 -13 22 13 0 29 -28 45 -41 24 -6 -11 -9
-8 -9 9 0 14 6 22 18 22 10 0 23 13 31 31 12 27 12 32 0 40 -8 5 -22 6 -33 3
-17 -6 -18 -2 -12 29 5 27 3 36 -10 41 -28 11 -31 7 -30 -36z m6 -80 c0 -16
-3 -19 -11 -11 -6 6 -8 16 -5 22 11 17 16 13 16 -11z m50 13 c0 -6 -4 -13 -10
-16 -5 -3 -10 1 -10 9 0 9 5 16 10 16 6 0 10 -4 10 -9z"/>
<path d="M251 4389 c-12 -17 -20 -33 -17 -37 9 -8 61 33 61 48 0 25 -21 20
-44 -11z"/>
<path d="M124 3938 c1 -39 -1 -43 -23 -40 -18 2 -22 -2 -17 -14 3 -8 6 -25 6
-36 0 -11 8 -22 20 -25 32 -8 25 -42 -10 -49 -16 -4 -30 -11 -30 -16 0 -19 33
-20 72 -2 31 14 43 15 46 6 7 -22 22 -13 22 13 0 29 -28 45 -41 24 -6 -11 -9
-8 -9 9 0 15 6 22 19 22 11 0 21 9 25 23 4 16 8 18 14 9 7 -10 21 -10 73 3 35
8 76 15 92 15 26 0 36 13 18 24 -5 3 -45 -2 -89 -10 -75 -15 -82 -15 -97 0
-11 10 -25 14 -37 10 -19 -6 -20 -3 -14 29 5 27 3 36 -10 41 -28 11 -31 7 -30
-36z m6 -80 c0 -16 -3 -19 -11 -11 -6 6 -8 16 -5 22 11 17 16 13 16 -11z m50
13 c0 -6 -4 -13 -10 -16 -5 -3 -10 1 -10 9 0 9 5 16 10 16 6 0 10 -4 10 -9z"/>
<path d="M251 3939 c-12 -17 -20 -33 -17 -37 9 -8 61 33 61 48 0 25 -21 20
-44 -11z"/>
<path d="M124 3488 c1 -39 -1 -43 -23 -40 -18 2 -22 -2 -17 -14 3 -8 6 -25 6
-36 0 -11 8 -22 20 -25 32 -8 25 -42 -10 -49 -16 -4 -30 -11 -30 -16 0 -19 33
-20 72 -2 31 14 43 15 46 6 7 -22 22 -13 22 13 0 29 -28 45 -41 24 -6 -11 -9
-8 -9 9 0 15 6 22 19 22 11 0 22 10 26 23 4 13 8 17 12 10 2 -7 14 -13 25 -13
18 0 19 -4 12 -57 -4 -32 -11 -61 -16 -64 -14 -9 3 -40 21 -37 13 3 17 20 21
88 l5 85 63 9 c37 6 61 14 59 20 -4 12 -23 13 -84 2 -38 -7 -43 -6 -43 11 0
11 5 24 12 31 9 9 9 15 0 24 -10 10 -18 6 -37 -17 -26 -33 -31 -45 -15 -45 6
0 10 -4 10 -10 0 -15 -19 -12 -37 5 -9 10 -23 13 -35 9 -19 -6 -20 -3 -14 29
5 27 3 36 -10 41 -28 11 -31 7 -30 -36z m6 -80 c0 -16 -3 -19 -11 -11 -6 6 -8
16 -5 22 11 17 16 13 16 -11z m50 13 c0 -6 -4 -13 -10 -16 -5 -3 -10 1 -10 9
0 9 5 16 10 16 6 0 10 -4 10 -9z"/>
<path d="M124 3038 c1 -39 -1 -43 -23 -40 -18 2 -22 -2 -17 -14 3 -8 6 -25 6
-36 0 -11 8 -22 20 -25 32 -8 25 -42 -10 -49 -16 -4 -30 -11 -30 -16 0 -19 33
-20 72 -2 31 14 43 15 46 6 5 -17 22 -15 22 3 0 8 9 15 20 15 14 0 20 -7 20
-24 0 -13 -5 -26 -11 -28 -16 -5 2 -39 20 -36 12 2 17 17 19 61 2 39 8 60 18
64 7 3 14 10 14 15 0 6 -7 7 -16 4 -11 -4 -15 -1 -12 12 2 13 19 19 66 26 37
6 61 14 59 20 -4 12 -23 13 -84 2 -38 -7 -43 -6 -43 11 0 11 5 24 12 31 9 9 9
15 0 24 -10 10 -18 6 -37 -17 -26 -33 -31 -45 -15 -45 6 0 10 -4 10 -10 0 -15
-19 -12 -37 5 -9 10 -23 13 -35 9 -19 -6 -20 -3 -14 29 5 27 3 36 -10 41 -28
11 -31 7 -30 -36z m6 -80 c0 -16 -3 -19 -11 -11 -6 6 -8 16 -5 22 11 17 16 13
16 -11z m50 13 c0 -6 -4 -13 -10 -16 -5 -3 -10 1 -10 9 0 9 5 16 10 16 6 0 10
-4 10 -9z m61 -21 c10 0 19 -7 19 -15 0 -19 -43 -37 -66 -28 -9 3 -20 0 -25
-8 -6 -11 -9 -8 -9 9 0 15 6 22 19 22 11 0 22 10 26 23 4 13 8 17 12 10 2 -7
13 -13 24 -13z"/>
<path d="M304 2638 c18 -87 18 -98 -4 -98 -23 0 -28 28 -8 48 9 9 9 15 0 24
-10 10 -18 6 -37 -17 -26 -33 -31 -45 -15 -45 6 0 10 -4 10 -10 0 -15 -19 -12
-37 5 -9 10 -23 13 -35 9 -19 -6 -20 -3 -14 29 5 27 3 36 -10 41 -28 11 -31 7
-30 -36 1 -39 -1 -43 -23 -40 -18 2 -22 -2 -17 -14 3 -8 6 -25 6 -36 0 -11 8
-22 20 -25 32 -8 25 -42 -10 -49 -16 -4 -30 -11 -30 -16 0 -19 33 -20 72 -2
31 14 43 15 46 6 5 -17 22 -15 22 3 0 8 9 15 20 15 14 0 20 -7 20 -24 0 -13
-5 -26 -11 -28 -16 -5 2 -39 20 -36 12 2 17 17 19 61 2 39 8 60 18 64 7 3 14
10 14 15 0 6 -7 8 -15 4 -9 -3 -15 0 -15 10 0 14 26 31 36 22 2 -3 11 -31 20
-64 17 -67 56 -124 85 -124 16 0 19 7 19 40 0 22 -4 40 -10 40 -5 0 -10 -6
-10 -14 0 -8 -5 -18 -10 -21 -12 -8 -45 63 -55 118 -7 36 -7 37 25 37 21 0 30
4 27 13 -2 6 -16 11 -30 10 -22 -1 -27 3 -32 30 -3 18 -4 41 -2 52 1 14 -5 21
-21 23 -19 3 -22 0 -18 -20z m-174 -130 c0 -16 -3 -19 -11 -11 -6 6 -8 16 -5
22 11 17 16 13 16 -11z m50 13 c0 -6 -4 -13 -10 -16 -5 -3 -10 1 -10 9 0 9 5
16 10 16 6 0 10 -4 10 -9z m61 -21 c10 0 19 -7 19 -15 0 -19 -43 -37 -66 -28
-9 3 -20 0 -25 -8 -6 -11 -9 -8 -9 9 0 15 6 22 19 22 11 0 22 10 26 23 4 13 8
17 12 10 2 -7 13 -13 24 -13z"/>
<path d="M304 2188 c18 -87 18 -98 -4 -98 -23 0 -28 28 -8 48 9 9 9 15 0 24
-10 10 -18 6 -37 -17 -26 -33 -31 -45 -15 -45 6 0 10 -4 10 -10 0 -15 -19 -12
-37 5 -9 10 -23 13 -35 9 -19 -6 -20 -3 -14 29 5 27 3 36 -10 41 -28 11 -31 7
-30 -36 1 -39 -1 -43 -23 -40 -18 2 -22 -2 -17 -14 3 -8 6 -25 6 -36 0 -11 8
-22 20 -25 32 -8 25 -42 -10 -49 -16 -4 -30 -11 -30 -16 0 -19 33 -20 72 -2
31 14 43 15 46 6 5 -17 22 -15 22 3 0 8 9 15 20 15 14 0 20 -7 20 -24 0 -13
-5 -26 -11 -28 -16 -5 2 -39 20 -36 12 2 17 17 19 61 2 39 8 60 18 64 7 3 14
10 14 15 0 6 -7 8 -15 4 -9 -3 -15 0 -15 10 0 14 26 31 36 22 2 -3 11 -31 20
-64 17 -67 56 -124 85 -124 16 0 19 7 19 40 0 22 -4 40 -10 40 -5 0 -10 -6
-10 -14 0 -8 -5 -18 -10 -21 -12 -8 -45 63 -55 118 -7 36 -7 37 25 37 21 0 30
4 27 13 -2 6 -16 11 -30 10 -22 -1 -27 3 -32 30 -3 18 -4 41 -2 52 1 14 -5 21
-21 23 -19 3 -22 0 -18 -20z m-174 -130 c0 -16 -3 -19 -11 -11 -6 6 -8 16 -5
22 11 17 16 13 16 -11z m50 13 c0 -6 -4 -13 -10 -16 -5 -3 -10 1 -10 9 0 9 5
16 10 16 6 0 10 -4 10 -9z m61 -21 c10 0 19 -7 19 -15 0 -19 -43 -37 -66 -28
-9 3 -20 0 -25 -8 -6 -11 -9 -8 -9 9 0 15 6 22 19 22 11 0 22 10 26 23 4 13 8
17 12 10 2 -7 13 -13 24 -13z"/>
<path d="M362 2158 c6 -16 36 -34 44 -26 3 4 4 14 1 23 -7 17 -51 21 -45 3z"/>
<path d="M304 1738 c18 -87 18 -98 -4 -98 -23 0 -28 28 -8 48 9 9 9 15 0 24
-10 10 -18 6 -37 -17 -26 -33 -31 -45 -15 -45 6 0 10 -4 10 -10 0 -15 -19 -12
-37 5 -9 10 -23 13 -35 9 -19 -6 -20 -3 -14 29 5 27 3 36 -10 41 -28 11 -31 7
-30 -36 1 -39 -1 -43 -23 -40 -18 2 -22 -2 -17 -14 3 -8 6 -25 6 -36 0 -11 8
-22 20 -25 32 -8 25 -42 -10 -49 -16 -4 -30 -11 -30 -16 0 -19 33 -20 72 -2
31 14 43 15 46 6 5 -17 22 -15 22 3 0 8 9 15 20 15 14 0 20 -7 20 -24 0 -13
-5 -26 -11 -28 -16 -5 2 -39 20 -36 12 2 17 17 19 61 2 39 8 60 18 64 7 3 14
10 14 15 0 6 -7 8 -15 4 -9 -3 -15 0 -15 10 0 15 27 31 36 21 3 -3 9 -21 14
-41 6 -26 4 -36 -6 -40 -22 -9 -16 -28 6 -21 13 4 20 2 20 -6 0 -22 51 -79 71
-79 16 0 19 7 19 40 0 22 -4 40 -10 40 -5 0 -10 -6 -10 -14 0 -31 -20 -26 -37
8 -16 35 -16 37 5 59 12 13 22 31 22 40 0 24 -27 21 -35 -3 -8 -24 -25 -17
-25 11 0 15 7 19 31 19 20 0 29 4 26 13 -2 6 -16 11 -30 10 -22 -1 -27 3 -32
30 -3 18 -4 41 -2 52 1 14 -5 21 -21 23 -19 3 -22 0 -18 -20z m-174 -130 c0
-16 -3 -19 -11 -11 -6 6 -8 16 -5 22 11 17 16 13 16 -11z m50 13 c0 -6 -4 -13
-10 -16 -5 -3 -10 1 -10 9 0 9 5 16 10 16 6 0 10 -4 10 -9z m61 -21 c10 0 19
-7 19 -15 0 -19 -43 -37 -66 -28 -9 3 -20 0 -25 -8 -6 -11 -9 -8 -9 9 0 15 6
22 19 22 11 0 22 10 26 23 4 13 8 17 12 10 2 -7 13 -13 24 -13z"/>
<path d="M362 1708 c6 -16 36 -34 44 -26 3 4 4 14 1 23 -7 17 -51 21 -45 3z"/>
</g>
</svg>
