<?xml version="1.0" standalone="no"?>
<!DOCTYPE svg PUBLIC "-//W3C//DTD SVG 20010904//EN"
 "http://www.w3.org/TR/2001/REC-SVG-20010904/DTD/svg10.dtd">
<svg version="1.0" xmlns="http://www.w3.org/2000/svg"
 width="50.000000pt" height="725.000000pt" viewBox="0 0 50.000000 725.000000"
 preserveAspectRatio="xMidYMid meet">
<metadata>
Created by potrace 1.16, written by Peter Selinger 2001-2019
</metadata>
<g transform="translate(0.000000,725.000000) scale(0.100000,-0.100000)"
fill="#000000" stroke="none">
<path d="M75 7033 c3 -10 9 -30 12 -45 8 -41 23 -34 23 11 0 26 -5 41 -16 45
-24 9 -27 8 -19 -11z"/>
<path d="M135 6600 c-22 -4 -46 -5 -54 -2 -11 4 -13 1 -7 -14 4 -10 10 -31 13
-46 8 -40 23 -35 23 7 0 33 2 35 34 35 30 0 33 -2 28 -25 -6 -34 10 -31 32 6
15 26 16 33 5 40 -16 10 -18 10 -74 -1z"/>
<path d="M135 6150 c-22 -4 -46 -5 -54 -2 -11 4 -13 1 -7 -14 4 -10 10 -31 13
-47 4 -19 10 -26 22 -23 9 2 30 7 47 11 37 7 75 62 53 76 -16 10 -18 10 -74
-1z m45 -24 c0 -3 -7 -12 -16 -20 -22 -23 -54 -20 -54 4 0 16 7 20 35 20 19 0
35 -2 35 -4z"/>
<path d="M126 5749 c8 -45 -6 -63 -40 -53 -15 5 -18 3 -12 -12 4 -11 10 -31
13 -47 4 -21 10 -26 24 -22 16 5 19 1 19 -24 0 -17 5 -31 10 -31 6 0 10 14 10
31 0 21 6 32 18 36 10 2 27 18 37 35 14 25 15 32 4 39 -8 5 -22 7 -31 5 -15
-3 -18 3 -18 34 0 25 -5 40 -16 44 -24 9 -25 9 -18 -35z m4 -89 c0 -11 -4 -20
-10 -20 -5 0 -10 9 -10 20 0 11 5 20 10 20 6 0 10 -9 10 -20z m44 5 c-4 -8
-10 -15 -15 -15 -5 0 -9 7 -9 15 0 8 7 15 15 15 9 0 12 -6 9 -15z"/>
<path d="M126 5299 c8 -45 -6 -63 -40 -53 -15 5 -18 3 -12 -12 4 -11 10 -31
13 -47 4 -21 10 -26 24 -22 15 5 19 1 19 -19 0 -21 -6 -26 -35 -32 -39 -7 -45
-19 -16 -29 20 -6 111 33 111 48 0 4 -9 5 -20 2 -16 -5 -20 -2 -20 15 0 13 8
24 18 27 10 2 27 18 37 35 14 25 15 32 4 39 -8 5 -22 7 -31 5 -15 -3 -18 3
-18 34 0 25 -5 40 -16 44 -24 9 -25 9 -18 -35z m4 -89 c0 -11 -4 -20 -10 -20
-5 0 -10 9 -10 20 0 11 5 20 10 20 6 0 10 -9 10 -20z m44 5 c-4 -8 -10 -15
-15 -15 -5 0 -9 7 -9 15 0 8 7 15 15 15 9 0 12 -6 9 -15z"/>
<path d="M126 4849 c8 -45 -6 -63 -40 -53 -15 5 -18 3 -12 -12 4 -11 10 -31
13 -47 4 -21 10 -26 24 -22 15 5 19 1 19 -19 0 -21 -6 -26 -35 -32 -39 -7 -45
-19 -16 -29 12 -3 38 3 63 16 28 14 43 18 46 10 5 -16 32 -14 32 2 0 14 -31
47 -43 47 -4 0 -7 -7 -7 -15 0 -8 -4 -15 -10 -15 -18 0 -11 42 8 47 10 2 27
18 37 35 14 25 15 32 4 39 -8 5 -22 7 -31 5 -15 -3 -18 3 -18 34 0 25 -5 40
-16 44 -24 9 -25 9 -18 -35z m4 -89 c0 -11 -4 -20 -10 -20 -5 0 -10 9 -10 20
0 11 5 20 10 20 6 0 10 -9 10 -20z m44 5 c-4 -8 -10 -15 -15 -15 -5 0 -9 7 -9
15 0 8 7 15 15 15 9 0 12 -6 9 -15z"/>
<path d="M315 4440 c-11 -5 -35 -9 -53 -9 -22 -1 -32 -5 -29 -13 5 -14 15 -15
67 -3 31 7 33 6 21 -9 -20 -24 -7 -30 28 -11 34 17 40 39 15 49 -19 7 -24 7
-49 -4z"/>
<path d="M126 4399 c8 -45 -6 -63 -40 -53 -15 5 -18 3 -12 -12 4 -11 10 -31
13 -47 4 -21 10 -26 24 -22 15 5 19 1 19 -19 0 -21 -6 -26 -35 -32 -39 -7 -45
-19 -16 -29 12 -3 38 3 63 16 28 14 43 18 46 10 5 -16 32 -14 32 2 0 14 -31
47 -43 47 -4 0 -7 -7 -7 -15 0 -8 -4 -15 -10 -15 -18 0 -11 42 8 47 10 2 27
18 37 35 14 25 15 32 4 39 -8 5 -22 7 -31 5 -15 -3 -18 3 -18 34 0 25 -5 40
-16 44 -24 9 -25 9 -18 -35z m4 -89 c0 -11 -4 -20 -10 -20 -5 0 -10 9 -10 20
0 11 5 20 10 20 6 0 10 -9 10 -20z m44 5 c-4 -8 -10 -15 -15 -15 -5 0 -9 7 -9
15 0 8 7 15 15 15 9 0 12 -6 9 -15z"/>
<path d="M315 3990 c-11 -5 -35 -9 -53 -9 -22 -1 -32 -5 -29 -13 5 -14 14 -15
67 -4 34 7 35 7 14 -11 -16 -14 -19 -27 -16 -60 3 -35 1 -43 -12 -43 -20 0
-21 -14 -1 -30 24 -20 35 -2 35 55 0 50 2 56 30 70 33 17 39 39 14 49 -19 7
-24 7 -49 -4z"/>
<path d="M126 3949 c8 -45 -6 -63 -40 -53 -15 5 -18 3 -12 -12 4 -11 10 -31
13 -47 4 -21 10 -26 24 -22 15 5 19 1 19 -19 0 -21 -6 -26 -35 -32 -39 -7 -45
-19 -16 -29 12 -3 38 3 63 16 28 14 43 18 46 10 5 -16 32 -14 32 2 0 14 -31
47 -43 47 -4 0 -7 -7 -7 -15 0 -8 -4 -15 -10 -15 -18 0 -11 42 8 47 10 2 27
18 37 35 14 25 15 32 4 39 -8 5 -22 7 -31 5 -15 -3 -18 3 -18 34 0 25 -5 40
-16 44 -24 9 -25 9 -18 -35z m4 -89 c0 -11 -4 -20 -10 -20 -5 0 -10 9 -10 20
0 11 5 20 10 20 6 0 10 -9 10 -20z m44 5 c-4 -8 -10 -15 -15 -15 -5 0 -9 7 -9
15 0 8 7 15 15 15 9 0 12 -6 9 -15z"/>
<path d="M315 3540 c-11 -5 -35 -9 -53 -9 -22 -1 -32 -5 -29 -13 5 -14 14 -15
67 -4 l35 7 -23 -20 c-13 -11 -21 -25 -17 -30 7 -12 -46 -22 -97 -19 -36 3
-38 4 -38 39 0 24 -5 39 -16 43 -24 9 -25 9 -18 -35 8 -45 -6 -63 -40 -53 -15
5 -18 3 -12 -12 4 -11 10 -31 13 -47 4 -21 10 -26 24 -22 15 5 19 1 19 -19 0
-21 -6 -26 -35 -32 -39 -7 -45 -19 -16 -29 12 -3 38 3 63 16 28 14 43 18 46
10 5 -16 32 -14 32 2 0 14 -31 47 -43 47 -4 0 -7 -7 -7 -15 0 -8 -4 -15 -10
-15 -18 0 -11 42 9 47 10 2 24 16 31 29 8 13 23 24 34 24 12 0 31 3 44 6 18 5
22 2 22 -15 0 -12 -6 -21 -15 -21 -19 0 -19 -14 0 -30 21 -17 35 -4 35 35 0
18 6 36 13 39 10 5 10 7 0 12 -21 9 -15 22 17 39 33 17 39 39 14 49 -19 7 -24
7 -49 -4z m-185 -130 c0 -11 -4 -20 -10 -20 -5 0 -10 9 -10 20 0 11 5 20 10
20 6 0 10 -9 10 -20z m44 5 c-4 -8 -10 -15 -15 -15 -5 0 -9 7 -9 15 0 8 7 15
15 15 9 0 12 -6 9 -15z"/>
<path d="M350 3460 c0 -5 9 -10 19 -10 11 0 26 -3 35 -6 11 -4 16 -1 16 10 0
12 -10 16 -35 16 -19 0 -35 -4 -35 -10z"/>
<path d="M315 3090 c-11 -5 -35 -9 -53 -9 -22 -1 -32 -5 -29 -13 5 -14 14 -15
67 -4 l35 7 -23 -20 c-13 -11 -21 -25 -17 -30 7 -12 -46 -22 -97 -19 -36 3
-38 4 -38 39 0 24 -5 39 -16 43 -24 9 -25 9 -18 -35 8 -45 -6 -63 -40 -53 -15
5 -18 3 -12 -12 4 -11 10 -31 13 -47 4 -21 10 -26 24 -22 15 5 19 1 19 -19 0
-21 -6 -26 -35 -32 -39 -7 -45 -19 -16 -29 12 -3 38 3 63 16 28 14 43 18 46
10 5 -15 29 -14 35 2 3 6 6 -3 6 -20 1 -22 6 -33 16 -33 16 0 18 12 9 59 -6
29 -34 45 -34 19 0 -6 -7 -4 -18 5 -23 21 -32 21 -32 2 0 -8 -4 -15 -10 -15
-18 0 -11 42 9 47 10 2 24 16 31 29 8 13 23 24 34 24 12 0 31 3 44 6 18 5 22
2 22 -15 0 -12 -6 -21 -15 -21 -19 0 -19 -14 0 -30 21 -17 35 -4 35 35 0 18 6
36 13 39 10 5 10 7 0 12 -21 9 -15 22 17 39 33 17 39 39 14 49 -19 7 -24 7
-49 -4z m-185 -130 c0 -11 -4 -20 -10 -20 -5 0 -10 9 -10 20 0 11 5 20 10 20
6 0 10 -9 10 -20z m44 5 c-4 -8 -10 -15 -15 -15 -5 0 -9 7 -9 15 0 8 7 15 15
15 9 0 12 -6 9 -15z"/>
<path d="M350 3010 c0 -5 9 -10 19 -10 11 0 26 -3 35 -6 11 -4 16 -1 16 10 0
12 -10 16 -35 16 -19 0 -35 -4 -35 -10z"/>
<path d="M315 2640 c-11 -5 -35 -9 -53 -9 -22 -1 -32 -5 -29 -13 5 -14 14 -15
67 -4 l35 7 -23 -20 c-13 -11 -21 -25 -17 -30 7 -12 -46 -22 -97 -19 -36 3
-38 4 -38 39 0 24 -5 39 -16 43 -24 9 -25 9 -18 -35 8 -45 -6 -63 -40 -53 -15
5 -18 3 -12 -12 4 -11 10 -31 13 -47 4 -21 10 -26 24 -22 15 5 19 1 19 -19 0
-21 -6 -26 -35 -32 -39 -7 -45 -19 -16 -29 12 -3 38 3 63 16 28 14 43 18 46
10 5 -15 29 -14 35 2 3 6 6 -3 6 -20 1 -24 6 -33 17 -33 13 0 15 7 11 34 -6
40 3 46 67 46 l42 0 -4 -36 c-6 -48 15 -42 36 10 18 46 6 59 -49 51 l-35 -6 4
38 c3 21 10 42 16 46 8 6 8 10 -1 14 -21 8 -15 22 17 38 33 17 39 39 14 49
-19 7 -24 7 -49 -4z m-15 -120 c0 -11 -7 -20 -15 -20 -18 0 -20 -16 -4 -26 15
-9 -9 -24 -38 -24 -13 0 -23 -5 -23 -12 0 -6 -7 -4 -18 5 -23 21 -32 21 -32 2
0 -8 -4 -15 -10 -15 -18 0 -11 42 9 47 10 2 24 15 31 28 8 15 24 25 44 28 17
2 37 5 44 5 6 1 12 -7 12 -18z m-170 -10 c0 -11 -4 -20 -10 -20 -5 0 -10 9
-10 20 0 11 5 20 10 20 6 0 10 -9 10 -20z m44 5 c-4 -8 -10 -15 -15 -15 -5 0
-9 7 -9 15 0 8 7 15 15 15 9 0 12 -6 9 -15z"/>
<path d="M350 2560 c0 -5 9 -10 19 -10 11 0 26 -3 35 -6 11 -4 16 -1 16 10 0
12 -10 16 -35 16 -19 0 -35 -4 -35 -10z"/>
<path d="M315 2190 c-11 -5 -35 -9 -53 -9 -22 -1 -32 -5 -29 -13 5 -14 14 -15
67 -4 l35 7 -23 -20 c-13 -11 -21 -25 -17 -30 7 -12 -46 -22 -97 -19 -36 3
-38 4 -38 39 0 24 -5 39 -16 43 -24 9 -25 9 -18 -35 8 -45 -6 -63 -40 -53 -15
5 -18 3 -12 -12 4 -11 10 -31 13 -47 4 -21 10 -26 24 -22 15 5 19 1 19 -19 0
-21 -6 -26 -35 -32 -39 -7 -45 -19 -16 -29 12 -3 38 3 63 16 28 14 43 18 46
10 5 -15 29 -14 35 2 3 6 6 -3 6 -20 1 -24 6 -33 17 -33 13 0 15 7 11 36 -4
25 -2 34 6 31 7 -2 13 -16 15 -30 5 -39 22 -33 22 8 0 33 2 35 33 35 32 0 33
-1 29 -36 -6 -48 15 -42 36 10 18 46 6 59 -49 51 l-35 -6 4 38 c3 21 10 42 16
46 8 6 8 10 -1 14 -21 8 -15 22 17 38 33 17 39 39 14 49 -19 7 -24 7 -49 -4z
m-15 -120 c0 -11 -7 -20 -15 -20 -18 0 -20 -16 -4 -26 15 -9 -9 -24 -38 -24
-13 0 -23 -5 -23 -12 0 -6 -7 -4 -18 5 -23 21 -32 21 -32 2 0 -8 -4 -15 -10
-15 -18 0 -11 42 9 47 10 2 24 15 31 28 8 15 24 25 44 28 17 2 37 5 44 5 6 1
12 -7 12 -18z m-170 -10 c0 -11 -4 -20 -10 -20 -5 0 -10 9 -10 20 0 11 5 20
10 20 6 0 10 -9 10 -20z m44 5 c-4 -8 -10 -15 -15 -15 -5 0 -9 7 -9 15 0 8 7
15 15 15 9 0 12 -6 9 -15z"/>
<path d="M350 2110 c0 -5 9 -10 19 -10 11 0 26 -3 35 -6 11 -4 16 -1 16 10 0
12 -10 16 -35 16 -19 0 -35 -4 -35 -10z"/>
<path d="M315 1740 c-11 -5 -35 -9 -53 -9 -22 -1 -32 -5 -29 -13 5 -14 14 -15
67 -4 l35 7 -23 -20 c-13 -11 -21 -25 -17 -30 7 -12 -46 -22 -97 -19 -36 3
-38 4 -38 39 0 24 -5 39 -16 43 -24 9 -25 9 -18 -35 8 -45 -6 -63 -40 -53 -15
5 -18 3 -12 -12 4 -11 10 -31 13 -47 4 -21 10 -26 24 -22 15 5 19 1 19 -19 0
-21 -6 -26 -35 -32 -39 -7 -45 -19 -16 -29 12 -3 38 3 63 16 28 14 43 18 46
10 5 -15 29 -14 35 2 3 6 6 -3 6 -20 1 -24 6 -33 17 -33 13 0 15 7 11 36 -4
25 -2 34 6 31 7 -2 13 -16 15 -30 5 -39 22 -33 22 8 0 19 5 35 11 35 7 0 9
-12 5 -35 -4 -20 -3 -35 3 -35 5 0 15 16 21 35 15 46 27 45 22 -1 -6 -48 15
-42 36 10 18 46 6 59 -49 51 l-35 -6 4 38 c3 21 10 42 16 46 8 6 8 10 -1 14
-21 8 -15 22 17 38 33 17 39 39 14 49 -19 7 -24 7 -49 -4z m-15 -120 c0 -11
-7 -20 -15 -20 -18 0 -20 -16 -4 -26 15 -9 -9 -24 -38 -24 -13 0 -23 -5 -23
-12 0 -6 -7 -4 -18 5 -23 21 -32 21 -32 2 0 -8 -4 -15 -10 -15 -18 0 -11 42 9
47 10 2 24 15 31 28 8 15 24 25 44 28 17 2 37 5 44 5 6 1 12 -7 12 -18z m-170
-10 c0 -11 -4 -20 -10 -20 -5 0 -10 9 -10 20 0 11 5 20 10 20 6 0 10 -9 10
-20z m44 5 c-4 -8 -10 -15 -15 -15 -5 0 -9 7 -9 15 0 8 7 15 15 15 9 0 12 -6
9 -15z"/>
<path d="M350 1660 c0 -5 9 -10 19 -10 11 0 26 -3 35 -6 11 -4 16 -1 16 10 0
12 -10 16 -35 16 -19 0 -35 -4 -35 -10z"/>
<path d="M315 1290 c-11 -5 -35 -9 -53 -9 -22 -1 -32 -5 -29 -13 5 -14 14 -15
67 -4 l35 7 -23 -20 c-13 -11 -21 -25 -17 -30 7 -12 -46 -22 -97 -19 -36 3
-38 4 -38 39 0 24 -5 39 -16 43 -24 9 -25 9 -18 -35 8 -45 -6 -63 -40 -53 -15
5 -18 3 -12 -12 4 -11 10 -31 13 -47 4 -21 10 -26 24 -22 15 5 19 1 19 -19 0
-21 -6 -26 -35 -32 -39 -7 -45 -19 -16 -29 12 -3 38 3 63 16 28 14 43 18 46
10 5 -15 29 -14 35 2 3 6 6 0 6 -15 1 -23 -3 -28 -24 -28 -26 0 -34 -14 -12
-23 7 -3 53 -1 103 4 49 6 101 8 117 5 19 -4 27 -1 27 9 0 9 -10 15 -25 15
-28 0 -30 8 -13 45 15 34 -3 48 -53 40 l-35 -6 4 38 c3 21 10 42 16 46 8 6 8
10 -1 14 -21 8 -15 22 17 38 33 17 39 39 14 49 -19 7 -24 7 -49 -4z m-15 -120
c0 -11 -7 -20 -15 -20 -18 0 -20 -16 -4 -26 15 -9 -9 -24 -38 -24 -13 0 -23
-5 -23 -12 0 -6 -7 -4 -18 5 -23 21 -32 21 -32 2 0 -8 -4 -15 -10 -15 -18 0
-11 42 9 47 10 2 24 15 31 28 8 15 24 25 44 28 17 2 37 5 44 5 6 1 12 -7 12
-18z m-170 -10 c0 -11 -4 -20 -10 -20 -5 0 -10 9 -10 20 0 11 5 20 10 20 6 0
10 -9 10 -20z m44 5 c-4 -8 -10 -15 -15 -15 -5 0 -9 7 -9 15 0 8 7 15 15 15 9
0 12 -6 9 -15z m146 -92 c0 -10 -5 -25 -10 -33 -7 -11 -10 -7 -10 18 0 17 5
32 10 32 6 0 10 -8 10 -17z m42 -13 c-2 -16 -10 -30 -18 -30 -10 0 -11 6 -3
30 6 17 14 30 18 30 4 0 6 -13 3 -30z m-84 -13 c2 -15 -1 -27 -7 -27 -6 0 -11
6 -11 14 0 8 -3 22 -7 32 -4 12 -2 15 8 12 8 -2 15 -17 17 -31z"/>
<path d="M350 1210 c0 -5 9 -10 19 -10 11 0 26 -3 35 -6 11 -4 16 -1 16 10 0
12 -10 16 -35 16 -19 0 -35 -4 -35 -10z"/>
</g>
</svg>
