<?xml version="1.0" standalone="no"?>
<!DOCTYPE svg PUBLIC "-//W3C//DTD SVG 20010904//EN"
 "http://www.w3.org/TR/2001/REC-SVG-20010904/DTD/svg10.dtd">
<svg version="1.0" xmlns="http://www.w3.org/2000/svg"
 width="50.000000pt" height="725.000000pt" viewBox="0 0 50.000000 725.000000"
 preserveAspectRatio="xMidYMid meet">
<metadata>
Created by potrace 1.16, written by Peter Selinger 2001-2019
</metadata>
<g transform="translate(0.000000,725.000000) scale(0.100000,-0.100000)"
fill="#000000" stroke="none">
<path d="M83 7020 c4 -18 7 -36 7 -41 0 -5 5 -9 11 -9 15 0 6 73 -10 78 -11 4
-13 -3 -8 -28z"/>
<path d="M106 6603 c-26 -4 -28 -7 -22 -35 3 -17 6 -34 6 -39 0 -5 5 -9 10 -9
6 0 10 13 10 29 0 28 14 41 47 41 11 0 14 -7 9 -25 -4 -17 -2 -25 7 -25 16 0
40 47 32 61 -6 9 -45 10 -99 2z"/>
<path d="M107 6153 c-27 -4 -29 -7 -22 -41 4 -20 8 -38 8 -39 1 0 23 1 48 4
39 5 47 9 57 36 6 16 9 34 6 38 -5 9 -45 10 -97 2z m61 -30 c-2 -9 -15 -20
-30 -24 -23 -6 -28 -4 -28 11 0 19 13 28 43 29 12 1 17 -5 15 -16z"/>
<path d="M123 5753 c2 -44 0 -48 -22 -51 -20 -3 -22 -8 -17 -34 3 -17 6 -34 6
-39 0 -5 8 -9 19 -9 14 0 17 -6 13 -25 -3 -18 0 -25 12 -25 11 0 16 9 16 30 0
22 5 30 18 30 11 0 22 12 29 31 15 38 10 49 -23 49 -22 0 -24 3 -22 42 2 34
-1 43 -14 46 -15 3 -18 -3 -15 -45z m47 -77 c0 -8 -4 -18 -10 -21 -5 -3 -10 3
-10 14 0 12 5 21 10 21 6 0 10 -6 10 -14z m-40 -10 c0 -8 -4 -18 -10 -21 -5
-3 -10 3 -10 14 0 12 5 21 10 21 6 0 10 -6 10 -14z"/>
<path d="M123 5303 c2 -44 0 -48 -22 -51 -20 -3 -22 -8 -17 -34 3 -17 6 -34 6
-39 0 -5 8 -9 19 -9 28 0 16 -47 -15 -54 -13 -4 -24 -10 -24 -15 0 -20 31 -19
69 2 42 23 52 37 26 37 -8 0 -15 9 -15 20 0 13 7 20 18 20 11 0 22 12 29 31
15 38 10 49 -23 49 -22 0 -24 3 -22 42 2 34 -1 43 -14 46 -15 3 -18 -3 -15
-45z m47 -77 c0 -8 -4 -18 -10 -21 -5 -3 -10 3 -10 14 0 12 5 21 10 21 6 0 10
-6 10 -14z m-40 -10 c0 -8 -4 -18 -10 -21 -5 -3 -10 3 -10 14 0 12 5 21 10 21
6 0 10 -6 10 -14z"/>
<path d="M123 4853 c2 -44 0 -48 -22 -51 -20 -3 -22 -8 -17 -34 3 -17 6 -34 6
-39 0 -5 8 -9 19 -9 28 0 16 -47 -15 -54 -13 -4 -24 -10 -24 -15 0 -20 32 -19
66 1 28 16 38 18 44 8 9 -15 30 -5 30 14 0 20 -32 44 -37 29 -7 -20 -23 -15
-23 7 0 13 7 20 18 20 11 0 22 12 29 31 15 38 10 49 -23 49 -22 0 -24 3 -22
42 2 34 -1 43 -14 46 -15 3 -18 -3 -15 -45z m47 -77 c0 -8 -4 -18 -10 -21 -5
-3 -10 3 -10 14 0 12 5 21 10 21 6 0 10 -6 10 -14z m-40 -10 c0 -8 -4 -18 -10
-21 -5 -3 -10 3 -10 14 0 12 5 21 10 21 6 0 10 -6 10 -14z"/>
<path d="M123 4403 c2 -44 0 -48 -22 -51 -20 -3 -22 -8 -17 -34 3 -17 6 -34 6
-39 0 -5 8 -9 19 -9 28 0 16 -47 -15 -54 -13 -4 -24 -10 -24 -15 0 -20 32 -19
66 1 28 16 38 18 44 8 9 -15 30 -5 30 14 0 20 -32 44 -37 29 -7 -20 -23 -15
-23 7 0 13 7 20 18 20 11 0 22 12 29 31 15 38 10 49 -23 49 -22 0 -24 3 -22
42 2 34 -1 43 -14 46 -15 3 -18 -3 -15 -45z m47 -77 c0 -8 -4 -18 -10 -21 -5
-3 -10 3 -10 14 0 12 5 21 10 21 6 0 10 -6 10 -14z m-40 -10 c0 -8 -4 -18 -10
-21 -5 -3 -10 3 -10 14 0 12 5 21 10 21 6 0 10 -6 10 -14z"/>
<path d="M270 4443 c1 -18 38 -55 49 -49 17 11 13 34 -8 46 -23 12 -41 13 -41
3z"/>
<path d="M123 3953 c2 -44 0 -48 -22 -51 -20 -3 -22 -8 -17 -34 3 -17 6 -34 6
-39 0 -5 8 -9 19 -9 28 0 16 -47 -15 -54 -13 -4 -24 -10 -24 -15 0 -20 32 -19
66 1 28 16 38 18 44 8 9 -15 30 -5 30 14 0 20 -32 44 -37 29 -7 -20 -23 -15
-23 7 0 13 7 20 19 20 12 0 21 9 25 25 4 15 13 25 25 25 17 0 31 25 31 58 0
20 -20 13 -31 -11 -8 -19 -17 -22 -40 -19 -27 4 -29 7 -27 45 2 33 -1 42 -14
45 -15 3 -18 -3 -15 -45z m47 -77 c0 -8 -4 -18 -10 -21 -5 -3 -10 3 -10 14 0
12 5 21 10 21 6 0 10 -6 10 -14z m-40 -10 c0 -8 -4 -18 -10 -21 -5 -3 -10 3
-10 14 0 12 5 21 10 21 6 0 10 -6 10 -14z"/>
<path d="M270 3993 c1 -18 38 -55 49 -49 17 11 13 34 -8 46 -23 12 -41 13 -41
3z"/>
<path d="M123 3503 c2 -44 0 -48 -22 -51 -20 -3 -22 -8 -17 -34 3 -17 6 -34 6
-39 0 -5 8 -9 19 -9 28 0 16 -47 -15 -54 -13 -4 -24 -10 -24 -15 0 -20 32 -19
66 1 28 16 38 18 44 8 9 -15 30 -5 30 14 0 20 -32 44 -37 29 -7 -20 -23 -15
-23 7 0 13 7 20 19 20 12 0 21 9 25 25 4 15 13 25 25 25 10 0 21 8 24 19 3 12
17 21 43 25 22 4 47 9 57 12 11 4 17 0 17 -10 0 -18 17 -21 39 -7 23 15 5 41
-29 41 -17 0 -39 9 -50 20 -20 20 -50 27 -50 12 0 -4 5 -13 11 -19 17 -17 0
-35 -27 -29 -19 5 -27 1 -35 -17 -8 -19 -17 -22 -40 -19 -27 4 -29 7 -27 45 2
33 -1 42 -14 45 -15 3 -18 -3 -15 -45z m47 -77 c0 -8 -4 -18 -10 -21 -5 -3
-10 3 -10 14 0 12 5 21 10 21 6 0 10 -6 10 -14z m-40 -10 c0 -8 -4 -18 -10
-21 -5 -3 -10 3 -10 14 0 12 5 21 10 21 6 0 10 -6 10 -14z"/>
<path d="M123 3053 c2 -44 0 -48 -22 -51 -20 -3 -22 -8 -17 -34 3 -17 6 -34 6
-39 0 -5 8 -9 19 -9 28 0 16 -47 -15 -54 -13 -4 -24 -10 -24 -15 0 -20 32 -19
66 1 28 16 38 18 44 8 9 -15 30 -5 30 14 0 20 -32 44 -37 29 -7 -20 -23 -15
-23 7 0 13 7 20 19 20 12 0 21 9 25 25 4 14 13 25 21 25 19 0 19 -15 -1 -46
-24 -36 -6 -44 22 -9 26 32 31 61 12 67 -21 7 1 26 39 32 21 4 46 9 56 12 11
4 17 0 17 -10 0 -18 17 -21 39 -7 23 15 5 41 -29 41 -17 0 -39 9 -50 20 -20
20 -50 27 -50 12 0 -4 5 -13 11 -19 17 -17 0 -35 -27 -29 -19 5 -27 1 -35 -17
-8 -19 -17 -22 -40 -19 -27 4 -29 7 -27 45 2 33 -1 42 -14 45 -15 3 -18 -3
-15 -45z m47 -77 c0 -8 -4 -18 -10 -21 -5 -3 -10 3 -10 14 0 12 5 21 10 21 6
0 10 -6 10 -14z m-40 -10 c0 -8 -4 -18 -10 -21 -5 -3 -10 3 -10 14 0 12 5 21
10 21 6 0 10 -6 10 -14z"/>
<path d="M123 2603 c2 -44 0 -48 -22 -51 -20 -3 -22 -8 -17 -34 3 -17 6 -34 6
-39 0 -5 8 -9 19 -9 28 0 16 -47 -15 -54 -13 -4 -24 -10 -24 -15 0 -20 32 -19
66 1 28 16 38 18 44 8 9 -15 30 -5 30 14 0 20 -32 44 -37 29 -7 -20 -23 -15
-23 7 0 13 7 20 19 20 12 0 21 9 25 25 4 14 13 25 21 25 19 0 19 -15 -1 -46
-22 -32 -8 -46 16 -16 37 46 41 20 5 -44 -55 -100 -22 -100 36 1 34 60 37 85
9 85 -11 0 -20 6 -20 14 0 8 -5 16 -12 18 -21 7 1 26 39 32 21 4 46 9 56 12
11 4 17 0 17 -10 0 -18 17 -21 39 -7 23 15 5 41 -29 41 -17 0 -39 9 -50 20
-20 20 -50 27 -50 12 0 -4 5 -13 11 -19 17 -17 0 -35 -27 -29 -19 5 -27 1 -35
-17 -8 -19 -17 -22 -40 -19 -27 4 -29 7 -27 45 2 33 -1 42 -14 45 -15 3 -18
-3 -15 -45z m47 -77 c0 -8 -4 -18 -10 -21 -5 -3 -10 3 -10 14 0 12 5 21 10 21
6 0 10 -6 10 -14z m-40 -10 c0 -8 -4 -18 -10 -21 -5 -3 -10 3 -10 14 0 12 5
21 10 21 6 0 10 -6 10 -14z"/>
<path d="M123 2153 c2 -44 0 -48 -22 -51 -20 -3 -22 -8 -17 -34 3 -17 6 -34 6
-39 0 -5 8 -9 19 -9 28 0 16 -47 -15 -54 -13 -4 -24 -10 -24 -15 0 -20 32 -19
66 1 28 16 38 18 44 8 9 -15 30 -5 30 14 0 20 -32 44 -37 29 -7 -20 -23 -15
-23 7 0 13 7 20 19 20 12 0 21 9 25 25 4 14 13 25 21 25 19 0 19 -15 -1 -45
-15 -22 -15 -26 0 -40 20 -21 20 -30 0 -61 -19 -29 -12 -43 12 -23 22 18 74
110 74 132 0 10 -8 17 -20 17 -11 0 -20 6 -20 14 0 8 -5 16 -12 18 -21 7 1 26
39 32 21 4 46 9 56 12 11 4 17 0 17 -10 0 -18 17 -21 39 -7 23 15 5 41 -29 41
-17 0 -39 9 -50 20 -20 20 -50 27 -50 12 0 -4 5 -13 11 -19 17 -17 0 -35 -27
-29 -19 5 -27 1 -35 -17 -8 -19 -17 -22 -40 -19 -27 4 -29 7 -27 45 2 33 -1
42 -14 45 -15 3 -18 -3 -15 -45z m47 -77 c0 -8 -4 -18 -10 -21 -5 -3 -10 3
-10 14 0 12 5 21 10 21 6 0 10 -6 10 -14z m-40 -10 c0 -8 -4 -18 -10 -21 -5
-3 -10 3 -10 14 0 12 5 21 10 21 6 0 10 -6 10 -14z m130 -46 c-6 -11 -15 -18
-20 -15 -13 8 0 35 16 35 12 0 12 -4 4 -20z"/>
<path d="M123 1703 c2 -44 0 -48 -22 -51 -20 -3 -22 -8 -17 -34 3 -17 6 -34 6
-39 0 -5 8 -9 19 -9 28 0 16 -47 -15 -54 -13 -4 -24 -10 -24 -15 0 -20 32 -19
66 1 28 16 38 18 44 8 9 -15 30 -5 30 14 0 20 -32 44 -37 29 -7 -20 -23 -15
-23 7 0 13 7 20 19 20 12 0 21 9 25 25 4 14 13 25 21 25 19 0 19 -15 -1 -45
-15 -22 -15 -26 0 -40 20 -21 20 -30 0 -61 -19 -29 -12 -43 12 -23 22 18 74
110 74 132 0 10 -8 17 -20 17 -11 0 -20 6 -20 14 0 8 -5 16 -12 18 -21 7 1 26
39 32 21 4 46 9 56 12 11 4 17 0 17 -10 0 -18 17 -21 39 -7 23 15 5 41 -29 41
-17 0 -39 9 -50 20 -20 20 -50 27 -50 12 0 -4 5 -13 11 -19 17 -17 0 -35 -27
-29 -19 5 -27 1 -35 -17 -8 -19 -17 -22 -40 -19 -27 4 -29 7 -27 45 2 33 -1
42 -14 45 -15 3 -18 -3 -15 -45z m47 -77 c0 -8 -4 -18 -10 -21 -5 -3 -10 3
-10 14 0 12 5 21 10 21 6 0 10 -6 10 -14z m-40 -10 c0 -8 -4 -18 -10 -21 -5
-3 -10 3 -10 14 0 12 5 21 10 21 6 0 10 -6 10 -14z m130 -46 c-6 -11 -15 -18
-20 -15 -13 8 0 35 16 35 12 0 12 -4 4 -20z"/>
<path d="M327 1623 c-15 -14 -6 -23 18 -17 22 5 25 3 25 -20 0 -16 -6 -26 -15
-26 -20 0 -19 -19 1 -27 22 -8 32 6 40 55 l7 42 -35 0 c-19 0 -38 -3 -41 -7z"/>
<path d="M123 1253 c2 -44 0 -48 -22 -51 -20 -3 -22 -8 -17 -34 3 -17 6 -34 6
-39 0 -5 8 -9 19 -9 28 0 16 -47 -15 -54 -13 -4 -24 -10 -24 -15 0 -20 32 -19
66 1 28 16 38 18 44 8 9 -15 30 -5 30 14 0 20 -32 44 -37 29 -7 -20 -23 -15
-23 7 0 13 7 20 19 20 12 0 21 9 25 25 4 14 13 25 21 25 19 0 19 -15 -1 -45
-15 -22 -15 -26 0 -40 20 -21 20 -30 0 -61 -19 -29 -12 -43 12 -23 22 18 74
110 74 132 0 10 -8 17 -20 17 -11 0 -20 6 -20 14 0 8 -5 16 -12 18 -21 7 1 26
39 32 21 4 46 9 56 12 11 4 17 0 17 -10 0 -18 17 -21 39 -7 23 15 5 41 -29 41
-17 0 -39 9 -50 20 -20 20 -50 27 -50 12 0 -4 5 -13 11 -19 17 -17 0 -35 -27
-29 -19 5 -27 1 -35 -17 -8 -19 -17 -22 -40 -19 -27 4 -29 7 -27 45 2 33 -1
42 -14 45 -15 3 -18 -3 -15 -45z m47 -77 c0 -8 -4 -18 -10 -21 -5 -3 -10 3
-10 14 0 12 5 21 10 21 6 0 10 -6 10 -14z m-40 -10 c0 -8 -4 -18 -10 -21 -5
-3 -10 3 -10 14 0 12 5 21 10 21 6 0 10 -6 10 -14z m130 -46 c-6 -11 -15 -18
-20 -15 -13 8 0 35 16 35 12 0 12 -4 4 -20z"/>
<path d="M306 1098 c2 -66 5 -84 20 -95 40 -29 120 -7 113 32 -6 26 -25 30
-32 5 -4 -17 -12 -21 -39 -18 -31 3 -33 5 -36 47 -2 25 -1 55 3 68 7 31 35 30
35 -2 0 -16 -6 -25 -15 -25 -20 0 -19 -19 1 -27 22 -8 32 6 40 55 l7 42 -49 0
-49 0 1 -82z"/>
</g>
</svg>
