<?xml version="1.0" standalone="no"?>
<!DOCTYPE svg PUBLIC "-//W3C//DTD SVG 20010904//EN"
 "http://www.w3.org/TR/2001/REC-SVG-20010904/DTD/svg10.dtd">
<svg version="1.0" xmlns="http://www.w3.org/2000/svg"
 width="50.000000pt" height="725.000000pt" viewBox="0 0 50.000000 725.000000"
 preserveAspectRatio="xMidYMid meet">
<metadata>
Created by potrace 1.16, written by Peter Selinger 2001-2019
</metadata>
<g transform="translate(0.000000,725.000000) scale(0.100000,-0.100000)"
fill="#000000" stroke="none">
<path d="M171 7115 c-6 -19 -28 -57 -47 -86 -20 -28 -33 -53 -30 -57 18 -17
123 136 112 163 -9 24 -21 17 -35 -20z"/>
<path d="M171 6665 c-6 -19 -28 -57 -47 -86 -20 -28 -33 -53 -30 -56 9 -9 43
25 77 79 22 35 35 46 42 39 14 -14 47 -14 47 -1 0 5 -10 15 -22 21 -13 7 -27
18 -31 25 -13 22 -22 16 -36 -21z"/>
<path d="M171 6215 c-6 -19 -28 -57 -47 -86 -42 -60 -35 -79 9 -28 19 21 46
39 65 43 37 9 44 31 7 24 -21 -5 -23 -3 -14 15 8 14 14 16 22 8 14 -14 47 -15
47 -1 0 5 -10 15 -22 21 -13 7 -27 18 -31 25 -13 22 -22 16 -36 -21z"/>
<path d="M171 5765 c-6 -19 -28 -57 -47 -86 -38 -54 -38 -76 -1 -42 12 11 28
18 35 16 6 -3 12 0 12 6 0 6 -5 11 -11 11 -23 0 3 18 36 24 19 4 35 12 35 18
0 6 -11 8 -25 6 -21 -5 -23 -3 -14 15 8 14 14 16 22 8 14 -14 47 -15 47 -1 0
5 -10 15 -22 21 -13 7 -27 18 -31 25 -13 22 -22 16 -36 -21z"/>
<path d="M180 5670 c0 -5 7 -10 16 -10 14 0 15 -7 10 -40 -5 -30 -3 -40 7 -40
13 0 39 78 31 92 -7 12 -64 10 -64 -2z"/>
<path d="M171 5315 c-6 -19 -28 -57 -47 -86 -38 -54 -38 -76 -1 -42 12 11 28
18 35 16 6 -3 12 0 12 6 0 6 -5 11 -11 11 -23 0 3 18 36 24 19 4 35 12 35 18
0 6 -11 8 -25 6 -21 -5 -23 -3 -14 15 8 14 14 16 22 8 14 -14 47 -15 47 -1 0
5 -10 15 -22 21 -13 7 -27 18 -31 25 -13 22 -22 16 -36 -21z"/>
<path d="M180 5220 c0 -5 7 -10 16 -10 14 0 15 -7 10 -40 -5 -30 -3 -40 7 -40
13 0 39 78 31 92 -7 12 -64 10 -64 -2z"/>
<path d="M160 5180 c0 -5 9 -10 20 -10 11 0 20 5 20 10 0 6 -9 10 -20 10 -11
0 -20 -4 -20 -10z"/>
<path d="M171 4865 c-6 -19 -28 -57 -47 -86 -38 -54 -38 -76 -1 -42 12 11 28
18 35 16 6 -3 12 0 12 6 0 6 -5 11 -11 11 -23 0 3 18 36 24 19 4 35 12 35 18
0 6 -11 8 -25 6 -21 -5 -23 -3 -14 15 8 14 14 16 22 8 14 -14 47 -15 47 -1 0
5 -10 15 -22 21 -13 7 -27 18 -31 25 -13 22 -22 16 -36 -21z"/>
<path d="M180 4770 c0 -5 7 -10 15 -10 9 0 15 -9 15 -24 0 -19 -7 -26 -30 -31
-42 -9 -37 -24 8 -23 36 0 39 3 49 41 6 23 9 45 7 49 -7 12 -64 10 -64 -2z"/>
<path d="M160 4730 c0 -5 9 -10 20 -10 11 0 20 5 20 10 0 6 -9 10 -20 10 -11
0 -20 -4 -20 -10z"/>
<path d="M171 4415 c-6 -19 -28 -57 -47 -86 -33 -47 -40 -79 -12 -51 24 24 29
10 22 -63 -4 -41 -3 -75 1 -75 13 0 65 41 65 52 0 6 -9 8 -20 5 -15 -4 -20 0
-20 14 0 18 13 23 50 20 16 -2 44 75 34 91 -7 12 -64 10 -64 -2 0 -5 7 -10 15
-10 9 0 15 -9 15 -25 0 -14 -4 -25 -9 -25 -5 0 -16 -3 -25 -6 -9 -3 -16 -1
-16 5 0 6 9 11 20 11 11 0 20 5 20 10 0 6 -9 10 -20 10 -13 0 -18 5 -14 15 4
8 1 15 -6 15 -24 0 1 18 35 24 19 4 35 12 35 18 0 6 -11 8 -25 6 -21 -5 -23
-3 -14 15 8 14 14 16 22 8 14 -14 47 -15 47 -1 0 5 -10 15 -22 21 -13 7 -27
18 -31 25 -13 22 -22 16 -36 -21z"/>
<path d="M171 3965 c-6 -19 -28 -57 -47 -86 -33 -47 -40 -79 -12 -51 24 24 29
10 22 -63 -4 -41 -3 -75 1 -75 5 0 23 11 41 25 19 15 35 21 39 15 11 -17 25
-11 25 10 0 22 -28 39 -39 23 -3 -5 -14 -12 -23 -16 -13 -5 -18 -1 -18 13 0
19 13 24 50 21 16 -2 44 75 34 91 -7 12 -64 10 -64 -2 0 -5 7 -10 15 -10 9 0
15 -9 15 -25 0 -14 -4 -25 -9 -25 -5 0 -16 -3 -25 -6 -9 -3 -16 -1 -16 5 0 6
9 11 20 11 11 0 20 5 20 10 0 6 -9 10 -20 10 -13 0 -18 5 -14 15 4 8 1 15 -6
15 -24 0 1 18 35 24 19 4 35 12 35 18 0 6 -11 8 -25 6 -21 -5 -23 -3 -14 15 8
14 14 16 22 8 14 -14 47 -15 47 -1 0 5 -10 15 -22 21 -13 7 -27 18 -31 25 -13
22 -22 16 -36 -21z"/>
<path d="M171 3515 c-6 -19 -28 -57 -47 -86 -33 -47 -40 -79 -12 -51 24 24 29
10 22 -63 -4 -41 -3 -75 1 -75 5 0 23 11 41 25 19 15 35 21 39 15 11 -17 25
-11 25 10 0 22 -28 39 -39 23 -3 -5 -14 -12 -23 -16 -13 -5 -18 -1 -18 13 0
19 13 24 51 21 12 -1 19 9 23 33 9 48 23 54 34 15 4 -18 13 -34 20 -37 14 -4
16 27 3 61 -8 21 -16 25 -60 25 -28 1 -51 -3 -51 -8 0 -6 7 -10 15 -10 9 0 15
-9 15 -25 0 -14 -4 -25 -9 -25 -5 0 -16 -3 -25 -6 -9 -3 -16 -1 -16 5 0 6 9
11 20 11 11 0 20 5 20 10 0 6 -9 10 -20 10 -13 0 -18 5 -14 15 4 8 1 15 -6 15
-24 0 1 18 35 24 19 4 35 12 35 18 0 6 -11 8 -25 6 -21 -5 -23 -3 -14 15 8 14
14 16 22 8 14 -14 47 -15 47 -1 0 5 -10 15 -22 21 -13 7 -27 18 -31 25 -13 22
-22 16 -36 -21z"/>
<path d="M171 3065 c-6 -19 -28 -57 -47 -86 -33 -47 -40 -79 -12 -51 24 24 29
10 22 -63 -4 -41 -3 -75 1 -75 5 0 23 11 41 25 19 15 35 21 39 15 11 -17 25
-11 25 10 0 22 -28 39 -39 23 -3 -5 -14 -12 -23 -16 -13 -5 -18 -1 -18 13 0
19 13 24 51 21 12 -1 19 9 23 33 9 48 23 54 34 15 11 -45 36 -53 30 -10 -5 37
-6 36 46 45 l39 7 -6 -30 c-4 -19 -2 -31 4 -31 14 0 48 41 49 57 0 16 -43 27
-76 19 -14 -4 -59 -7 -100 -7 -41 0 -74 -5 -74 -10 0 -5 7 -9 15 -9 9 0 15 -9
15 -25 0 -14 -4 -25 -9 -25 -5 0 -16 -3 -25 -6 -9 -3 -16 -1 -16 5 0 6 9 11
20 11 11 0 20 5 20 10 0 6 -9 10 -20 10 -13 0 -18 5 -14 15 4 8 1 15 -6 15
-24 0 1 18 35 24 19 4 35 12 35 18 0 6 -11 8 -25 6 -21 -5 -23 -3 -14 15 8 14
14 16 22 8 14 -14 47 -15 47 -1 0 5 -10 15 -22 21 -13 7 -27 18 -31 25 -13 22
-22 16 -36 -21z"/>
<path d="M171 2615 c-6 -19 -28 -57 -47 -86 -33 -47 -40 -79 -12 -51 24 24 29
10 22 -63 -4 -41 -3 -75 1 -75 5 0 23 11 41 25 19 15 35 21 39 15 11 -17 25
-11 25 10 0 22 -28 39 -39 23 -3 -5 -14 -12 -23 -16 -13 -5 -18 -1 -18 13 0
19 13 24 51 21 12 -1 19 9 23 33 9 47 25 55 33 16 3 -18 12 -34 20 -37 21 -8
25 1 14 30 -12 30 -10 32 42 41 36 7 38 6 35 -16 -2 -17 -11 -24 -30 -26 -46
-5 -32 -22 18 -22 36 0 45 3 41 14 -3 8 1 20 9 26 35 30 -6 60 -62 46 -14 -4
-59 -7 -100 -7 -41 0 -74 -5 -74 -10 0 -5 7 -9 15 -9 9 0 15 -9 15 -25 0 -14
-4 -25 -9 -25 -5 0 -16 -3 -25 -6 -9 -3 -16 -1 -16 5 0 6 9 11 20 11 11 0 20
5 20 10 0 6 -9 10 -20 10 -13 0 -18 5 -14 15 4 8 1 15 -6 15 -24 0 1 18 35 24
19 4 35 12 35 18 0 6 -11 8 -25 6 -21 -5 -23 -3 -14 15 8 14 14 16 22 8 14
-14 47 -15 47 -1 0 5 -10 15 -22 21 -13 7 -27 18 -31 25 -13 22 -22 16 -36
-21z"/>
<path d="M171 2165 c-6 -19 -28 -57 -47 -86 -33 -47 -40 -79 -12 -51 24 24 29
10 22 -63 -4 -41 -3 -75 1 -75 5 0 23 11 41 25 19 15 35 21 39 15 11 -17 25
-11 25 10 0 22 -28 39 -39 23 -3 -5 -14 -12 -23 -16 -13 -5 -18 -1 -18 13 0
19 13 24 51 21 12 -1 19 9 23 33 9 48 23 54 34 14 6 -25 14 -33 30 -32 18 0
22 -5 22 -28 0 -18 5 -28 15 -28 10 0 15 10 15 30 0 27 3 30 31 30 23 0 30 4
26 14 -3 8 1 20 9 26 31 26 10 50 -43 50 -24 0 -25 2 -19 45 7 43 6 45 -17 45
-23 0 -24 -2 -19 -50 l5 -50 -39 -1 c-22 -1 -54 0 -71 1 -18 1 -33 -3 -33 -9
0 -6 7 -11 15 -11 9 0 15 -9 15 -25 0 -14 -4 -25 -9 -25 -5 0 -16 -3 -25 -6
-9 -3 -16 -1 -16 5 0 6 9 11 20 11 11 0 20 5 20 10 0 6 -9 10 -20 10 -13 0
-18 5 -14 15 4 8 1 15 -6 15 -24 0 1 18 35 24 19 4 35 12 35 18 0 6 -11 8 -25
6 -21 -5 -23 -3 -14 15 8 14 14 16 22 8 14 -14 47 -15 47 -1 0 5 -10 15 -22
21 -13 7 -27 18 -31 25 -13 22 -22 16 -36 -21z m207 -117 c-4 -27 -28 -36 -28
-10 0 20 8 32 22 32 5 0 8 -10 6 -22z m-58 -7 c0 -27 -17 -35 -23 -11 -5 19 0
30 15 30 4 0 8 -9 8 -19z"/>
<path d="M171 1715 c-6 -19 -28 -57 -47 -86 -33 -47 -40 -79 -12 -51 24 24 29
10 22 -63 -4 -41 -3 -75 1 -75 5 0 23 11 41 25 19 15 35 21 39 15 11 -17 25
-11 25 10 0 22 -28 39 -39 23 -3 -5 -14 -12 -23 -16 -13 -5 -18 -1 -18 13 0
19 13 24 51 21 12 -1 19 9 23 33 9 48 23 54 34 14 7 -25 14 -33 31 -32 18 1
21 -4 19 -25 -2 -21 -9 -27 -35 -29 -18 -2 -33 -8 -33 -13 0 -20 33 -21 86 -3
55 18 70 34 34 34 -13 0 -20 7 -20 20 0 16 7 20 31 20 23 0 30 4 26 14 -3 8 1
20 9 26 31 26 10 50 -43 50 -24 0 -25 2 -19 45 7 43 6 45 -17 45 -23 0 -24 -2
-19 -50 l5 -50 -39 -1 c-22 -1 -54 0 -71 1 -18 1 -33 -3 -33 -9 0 -6 7 -11 15
-11 9 0 15 -9 15 -25 0 -14 -4 -25 -9 -25 -5 0 -16 -3 -25 -6 -9 -3 -16 -1
-16 5 0 6 9 11 20 11 11 0 20 5 20 10 0 6 -9 10 -20 10 -13 0 -18 5 -14 15 4
8 1 15 -6 15 -24 0 1 18 35 24 19 4 35 12 35 18 0 6 -11 8 -25 6 -21 -5 -23
-3 -14 15 8 14 14 16 22 8 14 -14 47 -15 47 -1 0 5 -10 15 -22 21 -13 7 -27
18 -31 25 -13 22 -22 16 -36 -21z m207 -117 c-4 -27 -28 -36 -28 -10 0 20 8
32 22 32 5 0 8 -10 6 -22z m-58 -7 c0 -27 -17 -35 -23 -11 -5 19 0 30 15 30 4
0 8 -9 8 -19z"/>
<path d="M171 1265 c-6 -19 -28 -57 -47 -86 -33 -47 -40 -79 -12 -51 24 24 29
10 22 -63 -4 -41 -3 -75 1 -75 5 0 23 11 41 25 19 15 35 21 39 15 11 -17 25
-11 25 10 0 22 -28 39 -39 23 -3 -5 -14 -12 -23 -16 -13 -5 -18 -1 -18 13 0
19 13 24 51 21 12 -1 19 9 23 33 9 48 23 54 34 14 7 -25 14 -33 31 -32 18 1
21 -4 19 -25 -2 -21 -9 -27 -35 -29 -18 -2 -33 -8 -33 -13 0 -20 33 -21 87 -3
52 18 55 18 67 1 7 -9 18 -17 25 -17 17 0 13 35 -7 53 -21 19 -42 22 -42 7 0
-5 -7 -10 -15 -10 -8 0 -15 9 -15 20 0 16 7 20 31 20 23 0 30 4 26 14 -3 8 1
20 9 26 31 26 10 50 -43 50 -24 0 -25 2 -19 45 7 43 6 45 -17 45 -23 0 -24 -2
-19 -50 l5 -50 -39 -1 c-22 -1 -54 0 -71 1 -18 1 -33 -3 -33 -9 0 -6 7 -11 15
-11 9 0 15 -9 15 -25 0 -14 -4 -25 -9 -25 -5 0 -16 -3 -25 -6 -9 -3 -16 -1
-16 5 0 6 9 11 20 11 11 0 20 5 20 10 0 6 -9 10 -20 10 -13 0 -18 5 -14 15 4
8 1 15 -6 15 -24 0 1 18 35 24 19 4 35 12 35 18 0 6 -11 8 -25 6 -21 -5 -23
-3 -14 15 8 14 14 16 22 8 14 -14 47 -15 47 -1 0 5 -10 15 -22 21 -13 7 -27
18 -31 25 -13 22 -22 16 -36 -21z m207 -117 c-4 -27 -28 -36 -28 -10 0 20 8
32 22 32 5 0 8 -10 6 -22z m-58 -7 c0 -27 -17 -35 -23 -11 -5 19 0 30 15 30 4
0 8 -9 8 -19z"/>
</g>
</svg>
