<?xml version="1.0" standalone="no"?>
<!DOCTYPE svg PUBLIC "-//W3C//DTD SVG 20010904//EN"
 "http://www.w3.org/TR/2001/REC-SVG-20010904/DTD/svg10.dtd">
<svg version="1.0" xmlns="http://www.w3.org/2000/svg"
 width="50.000000pt" height="725.000000pt" viewBox="0 0 50.000000 725.000000"
 preserveAspectRatio="xMidYMid meet">
<metadata>
Created by potrace 1.16, written by Peter Selinger 2001-2019
</metadata>
<g transform="translate(0.000000,725.000000) scale(0.100000,-0.100000)"
fill="#000000" stroke="none">
<path d="M94 7038 c3 -13 6 -31 6 -40 0 -10 5 -18 10 -18 6 0 10 18 10 40 0
30 -4 40 -16 40 -12 0 -15 -6 -10 -22z"/>
<path d="M160 6610 c0 -5 7 -10 16 -10 12 0 15 -6 10 -25 -4 -17 -2 -25 7 -25
16 0 40 47 32 61 -8 12 -65 12 -65 -1z"/>
<path d="M94 6588 c3 -13 6 -31 6 -40 0 -10 5 -18 10 -18 6 0 10 14 10 30 0
20 5 30 15 30 8 0 15 5 15 10 0 6 -14 10 -31 10 -28 0 -31 -3 -25 -22z"/>
<path d="M160 6160 c0 -5 7 -10 15 -10 22 0 18 -31 -5 -37 -29 -8 -24 -23 8
-23 22 0 30 7 39 31 7 18 10 36 7 40 -7 12 -64 11 -64 -1z"/>
<path d="M94 6138 c3 -13 6 -31 6 -40 0 -11 8 -18 20 -18 11 0 20 5 20 10 0 6
-4 10 -10 10 -5 0 -10 9 -10 20 0 11 7 20 15 20 8 0 15 5 15 10 0 6 -14 10
-31 10 -28 0 -31 -3 -25 -22z"/>
<path d="M136 5750 c6 -39 6 -40 -21 -40 -23 0 -26 -3 -21 -22 3 -13 6 -31 6
-40 0 -11 8 -18 20 -18 15 0 20 -7 20 -25 0 -14 5 -25 10 -25 6 0 10 14 10 30
0 25 4 30 23 30 16 0 26 9 34 31 15 38 10 49 -23 49 -20 0 -24 5 -24 29 0 24
-14 41 -36 41 -2 0 -1 -18 2 -40z m52 -67 c-2 -9 -8 -18 -15 -20 -7 -3 -9 3
-6 16 6 25 26 28 21 4z m-48 -13 c0 -11 -4 -20 -10 -20 -5 0 -10 9 -10 20 0
11 5 20 10 20 6 0 10 -9 10 -20z"/>
<path d="M136 5300 c6 -39 6 -40 -21 -40 -23 0 -26 -3 -21 -22 3 -13 6 -31 6
-40 0 -11 8 -18 20 -18 31 0 24 -30 -10 -41 -32 -12 -39 -26 -16 -35 17 -7 96
32 96 47 0 6 -7 9 -15 5 -10 -4 -15 1 -15 14 0 14 7 20 23 20 16 0 26 9 34 31
15 38 10 49 -23 49 -20 0 -24 5 -24 29 0 24 -14 41 -36 41 -2 0 -1 -18 2 -40z
m52 -67 c-2 -9 -8 -18 -15 -20 -7 -3 -9 3 -6 16 6 25 26 28 21 4z m-48 -13 c0
-11 -4 -20 -10 -20 -5 0 -10 9 -10 20 0 11 5 20 10 20 6 0 10 -9 10 -20z"/>
<path d="M136 4850 c6 -39 6 -40 -21 -40 -23 0 -26 -3 -21 -22 3 -13 6 -31 6
-40 0 -11 8 -18 20 -18 31 0 24 -30 -10 -41 -16 -6 -30 -15 -30 -20 0 -19 29
-20 67 -1 21 10 46 17 56 14 21 -4 23 21 2 38 -13 11 -18 10 -30 -6 -14 -18
-14 -18 -15 4 0 16 6 22 23 22 16 0 26 9 34 31 15 38 10 49 -23 49 -20 0 -24
5 -24 29 0 24 -14 41 -36 41 -2 0 -1 -18 2 -40z m52 -67 c-2 -9 -8 -18 -15
-20 -7 -3 -9 3 -6 16 6 25 26 28 21 4z m-48 -13 c0 -11 -4 -20 -10 -20 -5 0
-10 9 -10 20 0 11 5 20 10 20 6 0 10 -9 10 -20z"/>
<path d="M285 4434 c-9 -14 -14 -28 -11 -31 8 -8 66 30 66 44 0 23 -37 14 -55
-13z"/>
<path d="M136 4400 c6 -39 6 -40 -21 -40 -23 0 -26 -3 -21 -22 3 -13 6 -31 6
-40 0 -11 8 -18 20 -18 31 0 24 -30 -10 -41 -16 -6 -30 -15 -30 -20 0 -19 29
-20 67 -1 21 10 46 17 56 14 21 -4 23 21 2 38 -13 11 -18 10 -30 -6 -14 -18
-14 -18 -15 4 0 16 6 22 23 22 16 0 26 9 34 31 15 38 10 49 -23 49 -20 0 -24
5 -24 29 0 24 -14 41 -36 41 -2 0 -1 -18 2 -40z m52 -67 c-2 -9 -8 -18 -15
-20 -7 -3 -9 3 -6 16 6 25 26 28 21 4z m-48 -13 c0 -11 -4 -20 -10 -20 -5 0
-10 9 -10 20 0 11 5 20 10 20 6 0 10 -9 10 -20z"/>
<path d="M286 3985 c-9 -14 -24 -25 -32 -25 -11 0 -15 -6 -11 -19 4 -18 -10
-121 -19 -130 -2 -2 -11 2 -19 9 -13 11 -18 10 -30 -6 -14 -18 -14 -18 -15 4
0 16 6 22 23 22 16 0 26 9 34 31 15 38 10 49 -23 49 -20 0 -24 5 -24 29 0 24
-14 41 -36 41 -2 0 -1 -18 2 -40 6 -39 6 -40 -21 -40 -23 0 -26 -3 -21 -22 3
-13 6 -31 6 -40 0 -11 8 -18 20 -18 31 0 24 -30 -10 -41 -17 -6 -30 -15 -30
-20 0 -20 29 -20 67 0 51 25 72 15 42 -23 -31 -39 -13 -47 21 -9 28 31 51 94
65 175 4 27 14 42 35 55 17 9 30 23 30 30 0 22 -37 14 -54 -12z m-98 -102 c-2
-9 -8 -18 -15 -20 -7 -3 -9 3 -6 16 6 25 26 28 21 4z m-48 -13 c0 -11 -4 -20
-10 -20 -5 0 -10 9 -10 20 0 11 5 20 10 20 6 0 10 -9 10 -20z"/>
<path d="M286 3535 c-9 -14 -24 -25 -32 -25 -11 0 -15 -6 -11 -19 4 -18 -10
-121 -19 -130 -2 -2 -11 2 -19 9 -13 11 -18 10 -30 -6 -14 -18 -14 -18 -15 4
0 16 6 22 23 22 16 0 26 9 34 31 15 38 10 49 -23 49 -20 0 -24 5 -24 29 0 24
-14 41 -36 41 -2 0 -1 -18 2 -40 6 -39 6 -40 -21 -40 -23 0 -26 -3 -21 -22 3
-13 6 -31 6 -40 0 -11 8 -18 20 -18 31 0 24 -30 -10 -41 -17 -6 -30 -15 -30
-20 0 -20 29 -20 67 0 51 25 72 15 42 -23 -31 -39 -13 -47 21 -9 27 30 60 115
60 154 0 22 6 26 45 30 26 4 30 1 27 -18 -4 -30 23 -31 38 -2 21 39 6 52 -53
44 l-52 -6 25 20 c14 11 28 21 33 21 4 0 7 7 7 15 0 24 -36 17 -54 -10z m-98
-102 c-2 -9 -8 -18 -15 -20 -7 -3 -9 3 -6 16 6 25 26 28 21 4z m-48 -13 c0
-11 -4 -20 -10 -20 -5 0 -10 9 -10 20 0 11 5 20 10 20 6 0 10 -9 10 -20z"/>
<path d="M286 3085 c-9 -14 -24 -25 -32 -25 -11 0 -15 -6 -11 -19 4 -18 -10
-121 -19 -130 -2 -2 -11 2 -19 9 -13 11 -18 10 -30 -6 -14 -18 -14 -18 -15 4
0 16 6 22 23 22 16 0 26 9 34 31 15 38 10 49 -23 49 -20 0 -24 5 -24 29 0 24
-14 41 -36 41 -2 0 -1 -18 2 -40 6 -39 6 -40 -21 -40 -23 0 -26 -3 -21 -22 3
-13 6 -31 6 -40 0 -11 8 -18 20 -18 31 0 24 -30 -10 -41 -17 -6 -30 -15 -30
-20 0 -20 29 -20 67 0 51 25 72 15 42 -23 -12 -15 -18 -30 -14 -34 12 -12 63
55 76 100 16 52 23 58 75 58 36 0 43 4 54 29 18 44 6 54 -54 46 l-51 -6 25 20
c14 11 28 21 33 21 4 0 7 7 7 15 0 24 -36 17 -54 -10z m58 -79 c-3 -8 -21 -16
-40 -18 -27 -3 -34 -1 -32 11 2 9 17 18 33 22 36 7 46 3 39 -15z m-156 -23
c-2 -9 -8 -18 -15 -20 -7 -3 -9 3 -6 16 6 25 26 28 21 4z m-48 -13 c0 -11 -4
-20 -10 -20 -5 0 -10 9 -10 20 0 11 5 20 10 20 6 0 10 -9 10 -20z"/>
<path d="M286 2635 c-9 -14 -24 -25 -32 -25 -11 0 -15 -6 -11 -19 4 -18 -10
-121 -19 -130 -2 -2 -11 2 -19 9 -13 11 -18 10 -30 -6 -14 -18 -14 -18 -15 4
0 16 6 22 23 22 16 0 26 9 34 31 15 38 10 49 -23 49 -20 0 -24 5 -24 29 0 24
-14 41 -36 41 -2 0 -1 -18 2 -40 6 -39 6 -40 -21 -40 -23 0 -26 -3 -21 -22 3
-13 6 -31 6 -40 0 -11 8 -18 20 -18 31 0 24 -30 -10 -41 -17 -6 -30 -15 -30
-20 0 -20 29 -20 67 0 51 25 72 15 42 -23 -31 -40 -13 -47 22 -8 l29 32 0 -30
c0 -21 5 -30 16 -30 14 0 16 10 12 75 -5 83 -4 85 62 85 32 0 39 4 50 29 18
44 6 54 -54 46 l-51 -6 25 20 c14 11 28 21 33 21 4 0 7 7 7 15 0 24 -36 17
-54 -10z m58 -79 c-3 -8 -21 -16 -40 -18 -27 -3 -34 -1 -32 11 2 9 17 18 33
22 36 7 46 3 39 -15z m-156 -23 c-2 -9 -8 -18 -15 -20 -7 -3 -9 3 -6 16 6 25
26 28 21 4z m-48 -13 c0 -11 -4 -20 -10 -20 -5 0 -10 9 -10 20 0 11 5 20 10
20 6 0 10 -9 10 -20z"/>
<path d="M286 2185 c-9 -14 -24 -25 -32 -25 -11 0 -15 -6 -11 -19 4 -18 -10
-121 -19 -130 -2 -2 -11 2 -19 9 -13 11 -18 10 -30 -6 -14 -18 -14 -18 -15 4
0 16 6 22 23 22 16 0 26 9 34 31 15 38 10 49 -23 49 -20 0 -24 5 -24 29 0 24
-14 41 -36 41 -2 0 -1 -18 2 -40 6 -39 6 -40 -21 -40 -23 0 -26 -3 -21 -22 3
-13 6 -31 6 -40 0 -11 8 -18 20 -18 31 0 24 -30 -10 -41 -17 -6 -30 -15 -30
-20 0 -20 29 -20 67 0 51 25 72 15 42 -23 -31 -40 -13 -47 22 -8 l29 32 0 -30
c0 -20 5 -30 15 -30 12 0 15 13 15 55 0 54 0 55 30 55 17 0 30 5 30 10 0 6
-16 10 -35 10 -36 0 -47 13 -19 24 9 3 33 6 54 6 32 0 39 4 50 29 18 44 6 54
-54 46 l-51 -6 25 20 c14 11 28 21 33 21 4 0 7 7 7 15 0 24 -36 17 -54 -10z
m58 -79 c-3 -8 -21 -16 -40 -18 -27 -3 -34 -1 -32 11 2 9 17 18 33 22 36 7 46
3 39 -15z m-156 -23 c-2 -9 -8 -18 -15 -20 -7 -3 -9 3 -6 16 6 25 26 28 21 4z
m-48 -13 c0 -11 -4 -20 -10 -20 -5 0 -10 9 -10 20 0 11 5 20 10 20 6 0 10 -9
10 -20z"/>
<path d="M340 2041 c0 -6 11 -11 25 -11 23 0 25 -3 25 -50 0 -35 -5 -52 -17
-58 -21 -12 -10 -42 16 -42 24 0 31 21 34 105 l2 60 -42 3 c-26 2 -43 -1 -43
-7z"/>
<path d="M286 1735 c-9 -14 -24 -25 -32 -25 -11 0 -15 -6 -11 -19 4 -18 -10
-121 -19 -130 -2 -2 -11 2 -19 9 -13 11 -18 10 -30 -6 -14 -18 -14 -18 -15 4
0 16 6 22 23 22 16 0 26 9 34 31 15 38 10 49 -23 49 -20 0 -24 5 -24 29 0 24
-14 41 -36 41 -2 0 -1 -18 2 -40 6 -39 6 -40 -21 -40 -23 0 -26 -3 -21 -22 3
-13 6 -31 6 -40 0 -11 8 -18 20 -18 31 0 24 -30 -10 -41 -17 -6 -30 -15 -30
-20 0 -20 29 -20 67 0 51 25 72 15 42 -23 -31 -40 -13 -47 22 -8 l29 32 0 -30
c0 -20 5 -30 15 -30 12 0 15 13 15 56 0 34 4 53 10 49 6 -3 10 -24 10 -46 0
-21 5 -39 10 -39 6 0 10 20 10 45 0 25 5 45 10 45 6 0 10 5 10 10 0 6 -16 10
-35 10 -36 0 -47 13 -19 24 9 3 33 6 54 6 32 0 39 4 50 29 18 44 6 54 -54 46
l-51 -6 25 20 c14 11 28 21 33 21 4 0 7 7 7 15 0 24 -36 17 -54 -10z m58 -79
c-3 -8 -21 -16 -40 -18 -27 -3 -34 -1 -32 11 2 9 17 18 33 22 36 7 46 3 39
-15z m-156 -23 c-2 -9 -8 -18 -15 -20 -7 -3 -9 3 -6 16 6 25 26 28 21 4z m-48
-13 c0 -11 -4 -20 -10 -20 -5 0 -10 9 -10 20 0 11 5 20 10 20 6 0 10 -9 10
-20z"/>
<path d="M340 1591 c0 -6 11 -11 25 -11 23 0 25 -3 25 -50 0 -35 -5 -52 -17
-58 -21 -12 -10 -42 16 -42 24 0 31 21 34 105 l2 60 -42 3 c-26 2 -43 -1 -43
-7z"/>
<path d="M286 1285 c-9 -14 -24 -25 -32 -25 -11 0 -15 -6 -11 -19 4 -18 -10
-121 -19 -130 -2 -2 -11 2 -19 9 -13 11 -18 10 -30 -6 -14 -18 -14 -18 -15 4
0 16 6 22 23 22 16 0 26 9 34 31 15 38 10 49 -23 49 -20 0 -24 5 -24 29 0 24
-14 41 -36 41 -2 0 -1 -18 2 -40 6 -39 6 -40 -21 -40 -23 0 -26 -3 -21 -22 3
-13 6 -31 6 -40 0 -11 8 -18 20 -18 31 0 24 -30 -10 -41 -17 -6 -30 -15 -30
-20 0 -20 29 -20 67 0 51 25 72 15 42 -23 -31 -40 -13 -47 22 -8 l29 32 0 -30
c0 -20 5 -30 15 -30 12 0 15 13 15 56 0 34 4 53 10 49 6 -3 10 -24 10 -46 0
-21 5 -39 10 -39 6 0 10 21 10 46 0 31 4 44 12 42 8 -3 11 -23 9 -56 -3 -60
15 -71 24 -14 11 68 15 82 25 82 6 0 10 -22 10 -50 0 -35 -5 -52 -17 -58 -21
-12 -10 -42 16 -42 24 0 31 21 34 105 l2 60 -82 -3 c-48 -2 -83 1 -83 6 0 14
26 22 70 22 32 0 39 4 50 29 18 44 6 54 -54 46 l-51 -6 25 20 c14 11 28 21 33
21 4 0 7 7 7 15 0 24 -36 17 -54 -10z m58 -79 c-3 -8 -21 -16 -40 -18 -27 -3
-34 -1 -32 11 2 9 17 18 33 22 36 7 46 3 39 -15z m-156 -23 c-2 -9 -8 -18 -15
-20 -7 -3 -9 3 -6 16 6 25 26 28 21 4z m-48 -13 c0 -11 -4 -20 -10 -20 -5 0
-10 9 -10 20 0 11 5 20 10 20 6 0 10 -9 10 -20z"/>
<path d="M286 835 c-9 -14 -24 -25 -32 -25 -11 0 -15 -6 -11 -19 4 -18 -10
-121 -19 -130 -2 -2 -11 2 -19 9 -13 11 -18 10 -30 -6 -14 -18 -14 -18 -15 4
0 16 6 22 23 22 16 0 26 9 34 31 15 38 10 49 -23 49 -20 0 -24 5 -24 29 0 24
-14 41 -36 41 -2 0 -1 -18 2 -40 6 -39 6 -40 -21 -40 -23 0 -26 -3 -21 -22 3
-13 6 -31 6 -40 0 -11 8 -18 20 -18 31 0 24 -30 -10 -41 -17 -6 -30 -15 -30
-20 0 -20 29 -20 67 0 51 25 72 15 42 -23 -31 -40 -13 -47 22 -8 l29 32 0 -30
c0 -20 5 -30 15 -30 9 0 15 9 15 25 0 14 5 25 10 25 6 0 10 -7 10 -15 0 -8 5
-15 10 -15 6 0 10 9 10 20 0 11 5 20 10 20 6 0 10 -13 10 -30 0 -41 18 -38 26
5 3 20 12 35 20 35 20 0 18 -47 -3 -58 -21 -12 -10 -42 16 -42 24 0 31 21 34
105 l2 60 -82 -3 c-48 -2 -83 1 -83 6 0 14 26 22 70 22 32 0 39 4 50 29 18 44
6 54 -54 46 l-51 -6 25 20 c14 11 28 21 33 21 4 0 7 7 7 15 0 24 -36 17 -54
-10z m58 -79 c-3 -8 -21 -16 -40 -18 -27 -3 -34 -1 -32 11 2 9 17 18 33 22 36
7 46 3 39 -15z m-156 -23 c-2 -9 -8 -18 -15 -20 -7 -3 -9 3 -6 16 6 25 26 28
21 4z m-48 -13 c0 -11 -4 -20 -10 -20 -5 0 -10 9 -10 20 0 11 5 20 10 20 6 0
10 -9 10 -20z m250 -55 c0 -8 -7 -15 -15 -15 -9 0 -12 6 -9 15 4 8 10 15 15
15 5 0 9 -7 9 -15z m-100 -16 c0 -5 -4 -9 -10 -9 -5 0 -10 7 -10 16 0 8 5 12
10 9 6 -3 10 -10 10 -16z m42 6 c0 -5 -5 -11 -11 -13 -6 -2 -11 4 -11 13 0 9
5 15 11 13 6 -2 11 -8 11 -13z"/>
</g>
</svg>
