<?xml version="1.0" standalone="no"?>
<!DOCTYPE svg PUBLIC "-//W3C//DTD SVG 20010904//EN"
 "http://www.w3.org/TR/2001/REC-SVG-20010904/DTD/svg10.dtd">
<svg version="1.0" xmlns="http://www.w3.org/2000/svg"
 width="95.000000pt" height="725.000000pt" viewBox="0 0 95.000000 725.000000"
 preserveAspectRatio="xMidYMid meet">
<metadata>
Created by potrace 1.16, written by Peter Selinger 2001-2019
</metadata>
<g transform="translate(0.000000,725.000000) scale(0.100000,-0.100000)"
fill="#000000" stroke="none">
<path d="M290 7099 l0 -61 -29 5 c-27 6 -30 3 -36 -24 -4 -17 -5 -33 -2 -36 9
-8 27 7 27 21 0 8 16 16 38 20 56 9 94 7 87 -4 -3 -5 -21 -10 -38 -10 -56 0
-77 -10 -77 -36 0 -14 7 -27 15 -30 22 -9 18 -34 -5 -34 -11 0 -20 -4 -20 -10
0 -5 12 -10 26 -10 43 0 21 -25 -25 -28 -27 -2 -41 -7 -38 -15 4 -14 3 -14
125 -3 98 9 126 26 42 26 -38 0 -50 4 -50 15 0 8 9 15 20 15 11 0 20 5 20 10
0 6 -9 10 -20 10 -11 0 -20 7 -20 15 0 8 6 15 14 15 8 0 17 11 20 25 5 18 15
27 36 32 31 6 38 21 18 41 -7 7 -28 9 -56 5 l-45 -6 6 51 c6 47 -1 62 -29 62
-2 0 -4 -28 -4 -61z m38 -125 c-9 -10 -24 -14 -33 -10 -23 9 -9 26 23 26 24 0
25 -1 10 -16z"/>
<path d="M130 7085 c0 -42 -2 -45 -26 -45 -20 0 -25 -4 -20 -16 3 -9 6 -25 6
-36 0 -11 8 -22 20 -25 32 -8 25 -42 -10 -49 -34 -7 -39 -20 -11 -29 12 -3 37
3 60 14 24 13 42 17 46 11 10 -16 25 -11 25 8 0 19 -18 42 -32 42 -4 0 -8 -7
-8 -15 0 -8 -4 -15 -10 -15 -5 0 -10 9 -10 20 0 13 7 20 18 20 11 0 22 12 30
33 16 46 16 47 -19 47 -29 0 -30 2 -24 31 5 22 3 34 -6 40 -25 15 -29 10 -29
-36z m50 -75 c0 -11 -4 -20 -10 -20 -5 0 -10 9 -10 20 0 11 5 20 10 20 6 0 10
-9 10 -20z m-50 -12 c0 -19 -2 -20 -10 -8 -13 19 -13 30 0 30 6 0 10 -10 10
-22z"/>
<path d="M355 7100 c-10 -11 -16 -23 -12 -26 10 -10 62 12 62 27 0 22 -29 22
-50 -1z"/>
<path d="M240 7088 c0 -16 19 -38 33 -38 4 0 7 10 5 22 -3 25 -38 39 -38 16z"/>
<path d="M537 7008 c6 -35 19 -55 28 -46 11 11 -7 78 -21 78 -10 0 -12 -9 -7
-32z"/>
<path d="M600 6590 c0 -5 7 -10 15 -10 9 0 15 -9 15 -25 0 -32 14 -32 28 0 18
39 15 45 -23 45 -19 0 -35 -4 -35 -10z"/>
<path d="M536 6563 c10 -46 13 -53 25 -53 7 0 9 11 6 30 -5 22 -3 30 8 30 8 0
15 5 15 10 0 6 -14 10 -30 10 -28 0 -30 -2 -24 -27z"/>
<path d="M600 6140 c0 -5 7 -10 15 -10 8 0 15 -9 15 -20 0 -13 -7 -20 -20 -20
-11 0 -20 -4 -20 -10 0 -5 13 -10 28 -10 23 0 30 6 40 33 17 46 16 47 -23 47
-19 0 -35 -4 -35 -10z"/>
<path d="M536 6113 c10 -48 13 -53 30 -53 10 0 14 5 10 15 -3 8 -9 22 -12 30
-4 10 0 15 10 15 9 0 16 5 16 10 0 6 -14 10 -30 10 -28 0 -30 -2 -24 -27z"/>
<path d="M580 5735 c0 -42 -2 -45 -26 -45 -20 0 -25 -4 -20 -16 3 -9 6 -25 6
-36 0 -11 8 -22 20 -25 13 -3 20 -14 20 -29 0 -15 6 -24 15 -24 10 0 15 10 15
30 0 22 5 30 18 30 11 0 22 12 30 33 16 46 16 47 -19 47 -29 0 -30 2 -24 31 5
22 3 34 -6 40 -25 15 -29 10 -29 -36z m50 -75 c0 -11 -4 -20 -10 -20 -5 0 -10
9 -10 20 0 11 5 20 10 20 6 0 10 -9 10 -20z m-50 -12 c0 -19 -2 -20 -10 -8
-13 19 -13 30 0 30 6 0 10 -10 10 -22z"/>
<path d="M580 5285 c0 -42 -2 -45 -26 -45 -20 0 -25 -4 -20 -16 3 -9 6 -25 6
-36 0 -11 8 -22 20 -25 32 -8 25 -42 -10 -49 -34 -7 -39 -20 -11 -29 20 -6
111 33 111 48 0 4 -9 5 -20 2 -16 -5 -20 -2 -20 14 0 14 6 21 18 21 11 0 22
12 30 33 16 46 16 47 -19 47 -29 0 -30 2 -24 31 5 22 3 34 -6 40 -25 15 -29
10 -29 -36z m50 -75 c0 -11 -4 -20 -10 -20 -5 0 -10 9 -10 20 0 11 5 20 10 20
6 0 10 -9 10 -20z m-50 -12 c0 -19 -2 -20 -10 -8 -13 19 -13 30 0 30 6 0 10
-10 10 -22z"/>
<path d="M580 4835 c0 -42 -2 -45 -26 -45 -20 0 -25 -4 -20 -16 3 -9 6 -25 6
-36 0 -11 8 -22 20 -25 32 -8 25 -42 -10 -49 -34 -7 -39 -20 -11 -29 12 -3 37
3 60 14 24 13 42 17 46 11 10 -16 25 -11 25 8 0 19 -18 42 -32 42 -4 0 -8 -7
-8 -15 0 -8 -4 -15 -10 -15 -5 0 -10 9 -10 20 0 13 7 20 18 20 11 0 22 12 30
33 16 46 16 47 -19 47 -29 0 -30 2 -24 31 5 22 3 34 -6 40 -25 15 -29 10 -29
-36z m50 -75 c0 -11 -4 -20 -10 -20 -5 0 -10 9 -10 20 0 11 5 20 10 20 6 0 10
-9 10 -20z m-50 -12 c0 -19 -2 -20 -10 -8 -13 19 -13 30 0 30 6 0 10 -10 10
-22z"/>
<path d="M742 4398 c4 -81 24 -88 30 -11 5 54 -1 72 -25 73 -4 0 -7 -28 -5
-62z"/>
<path d="M580 4385 c0 -42 -2 -45 -26 -45 -20 0 -25 -4 -20 -16 3 -9 6 -25 6
-36 0 -11 8 -22 20 -25 32 -8 25 -42 -10 -49 -34 -7 -39 -20 -11 -29 12 -3 37
3 60 14 24 13 42 17 46 11 10 -16 25 -11 25 8 0 19 -18 42 -32 42 -4 0 -8 -7
-8 -15 0 -8 -4 -15 -10 -15 -5 0 -10 9 -10 20 0 13 7 20 18 20 11 0 22 12 30
33 16 46 16 47 -19 47 -29 0 -30 2 -24 31 5 22 3 34 -6 40 -25 15 -29 10 -29
-36z m50 -75 c0 -11 -4 -20 -10 -20 -5 0 -10 9 -10 20 0 11 5 20 10 20 6 0 10
-9 10 -20z m-50 -12 c0 -19 -2 -20 -10 -8 -13 19 -13 30 0 30 6 0 10 -10 10
-22z"/>
<path d="M742 3948 c4 -81 24 -88 30 -11 5 54 -1 72 -25 73 -4 0 -7 -28 -5
-62z"/>
<path d="M580 3935 c0 -42 -2 -45 -26 -45 -20 0 -25 -4 -20 -16 3 -9 6 -25 6
-36 0 -11 8 -22 20 -25 32 -8 25 -42 -10 -49 -34 -7 -39 -20 -11 -29 12 -3 37
3 60 14 24 13 42 17 46 11 10 -16 25 -11 25 8 0 19 -18 42 -32 42 -4 0 -8 -7
-8 -15 0 -8 -4 -15 -10 -15 -5 0 -10 9 -10 20 0 13 7 20 18 20 11 0 22 12 30
33 16 46 16 47 -19 47 -29 0 -30 2 -24 31 5 22 3 34 -6 40 -25 15 -29 10 -29
-36z m50 -75 c0 -11 -4 -20 -10 -20 -5 0 -10 9 -10 20 0 11 5 20 10 20 6 0 10
-9 10 -20z m-50 -12 c0 -19 -2 -20 -10 -8 -13 19 -13 30 0 30 6 0 10 -10 10
-22z"/>
<path d="M690 3938 c0 -16 19 -38 33 -38 4 0 7 10 5 22 -3 25 -38 39 -38 16z"/>
<path d="M742 3498 c4 -81 24 -88 30 -11 5 54 -1 72 -25 73 -4 0 -7 -28 -5
-62z"/>
<path d="M580 3485 c0 -42 -2 -45 -26 -45 -20 0 -25 -4 -20 -16 3 -9 6 -25 6
-36 0 -11 8 -22 20 -25 32 -8 25 -42 -10 -49 -34 -7 -39 -20 -11 -29 12 -3 37
3 60 14 24 13 42 17 46 11 10 -16 25 -11 25 8 0 19 -18 42 -32 42 -4 0 -8 -7
-8 -15 0 -8 -4 -15 -10 -15 -5 0 -10 9 -10 20 0 13 7 20 18 20 11 0 22 12 30
33 16 46 16 47 -19 47 -29 0 -30 2 -24 31 5 22 3 34 -6 40 -25 15 -29 10 -29
-36z m50 -75 c0 -11 -4 -20 -10 -20 -5 0 -10 9 -10 20 0 11 5 20 10 20 6 0 10
-9 10 -20z m-50 -12 c0 -19 -2 -20 -10 -8 -13 19 -13 30 0 30 6 0 10 -10 10
-22z"/>
<path d="M805 3500 c-10 -11 -16 -23 -12 -26 10 -10 62 12 62 27 0 22 -29 22
-50 -1z"/>
<path d="M690 3488 c0 -16 19 -38 33 -38 4 0 7 10 5 22 -3 25 -38 39 -38 16z"/>
<path d="M742 3048 c4 -81 24 -88 30 -11 5 54 -1 72 -25 73 -4 0 -7 -28 -5
-62z"/>
<path d="M580 3035 c0 -42 -2 -45 -26 -45 -20 0 -25 -4 -20 -16 3 -9 6 -25 6
-36 0 -11 8 -22 20 -25 32 -8 25 -42 -10 -49 -34 -7 -39 -20 -11 -29 12 -3 37
3 60 14 24 13 42 17 46 11 10 -16 25 -11 25 8 0 19 -18 42 -32 42 -4 0 -8 -7
-8 -15 0 -8 -4 -15 -10 -15 -5 0 -10 9 -10 20 0 13 7 20 18 20 11 0 22 12 30
33 16 46 16 47 -19 47 -29 0 -30 2 -24 31 5 22 3 34 -6 40 -25 15 -29 10 -29
-36z m50 -75 c0 -11 -4 -20 -10 -20 -5 0 -10 9 -10 20 0 11 5 20 10 20 6 0 10
-9 10 -20z m-50 -12 c0 -19 -2 -20 -10 -8 -13 19 -13 30 0 30 6 0 10 -10 10
-22z"/>
<path d="M805 3050 c-10 -11 -16 -23 -12 -26 10 -10 62 12 62 27 0 22 -29 22
-50 -1z"/>
<path d="M690 3038 c0 -16 19 -38 33 -38 4 0 7 10 5 22 -3 25 -38 39 -38 16z"/>
<path d="M675 2969 c-7 -33 -3 -45 14 -34 13 8 15 65 2 65 -5 0 -12 -14 -16
-31z"/>
<path d="M740 2599 l0 -61 -29 5 c-27 6 -30 3 -36 -24 -4 -17 -5 -33 -2 -36 9
-8 27 7 27 21 0 13 49 26 102 26 21 0 26 -4 21 -16 -4 -12 0 -14 23 -8 38 9
40 12 27 32 -8 13 -22 16 -58 14 l-48 -4 6 50 c6 47 -1 62 -29 62 -2 0 -4 -28
-4 -61z"/>
<path d="M580 2585 c0 -42 -2 -45 -26 -45 -20 0 -25 -4 -20 -16 3 -9 6 -25 6
-36 0 -11 8 -22 20 -25 32 -8 25 -42 -10 -49 -34 -7 -39 -20 -11 -29 12 -3 37
3 60 14 24 13 42 17 46 11 10 -16 25 -11 25 8 0 19 -18 42 -32 42 -4 0 -8 -7
-8 -15 0 -8 -4 -15 -10 -15 -5 0 -10 9 -10 20 0 13 7 20 18 20 11 0 22 12 30
33 16 46 16 47 -19 47 -29 0 -30 2 -24 31 5 22 3 34 -6 40 -25 15 -29 10 -29
-36z m50 -75 c0 -11 -4 -20 -10 -20 -5 0 -10 9 -10 20 0 11 5 20 10 20 6 0 10
-9 10 -20z m-50 -12 c0 -19 -2 -20 -10 -8 -13 19 -13 30 0 30 6 0 10 -10 10
-22z"/>
<path d="M805 2600 c-10 -11 -16 -23 -12 -26 10 -10 62 12 62 27 0 22 -29 22
-50 -1z"/>
<path d="M690 2588 c0 -16 19 -38 33 -38 4 0 7 10 5 22 -3 25 -38 39 -38 16z"/>
<path d="M740 2149 l0 -61 -29 5 c-27 6 -30 3 -36 -24 -4 -17 -5 -33 -2 -36 9
-8 27 7 27 21 0 13 49 26 102 26 21 0 26 -4 21 -16 -4 -12 0 -14 23 -8 38 9
40 12 27 32 -8 13 -22 16 -58 14 l-48 -4 6 50 c6 47 -1 62 -29 62 -2 0 -4 -28
-4 -61z"/>
<path d="M580 2135 c0 -42 -2 -45 -26 -45 -20 0 -25 -4 -20 -16 3 -9 6 -25 6
-36 0 -11 8 -22 20 -25 32 -8 25 -42 -10 -49 -34 -7 -39 -20 -11 -29 12 -3 37
3 60 14 24 13 42 17 46 11 10 -16 25 -11 25 8 0 19 -18 42 -32 42 -4 0 -8 -7
-8 -15 0 -8 -4 -15 -10 -15 -5 0 -10 9 -10 20 0 13 7 20 18 20 11 0 22 12 30
33 16 46 16 47 -19 47 -29 0 -30 2 -24 31 5 22 3 34 -6 40 -25 15 -29 10 -29
-36z m50 -75 c0 -11 -4 -20 -10 -20 -5 0 -10 9 -10 20 0 11 5 20 10 20 6 0 10
-9 10 -20z m-50 -12 c0 -19 -2 -20 -10 -8 -13 19 -13 30 0 30 6 0 10 -10 10
-22z"/>
<path d="M805 2150 c-10 -11 -16 -23 -12 -26 10 -10 62 12 62 27 0 22 -29 22
-50 -1z"/>
<path d="M690 2138 c0 -16 19 -38 33 -38 4 0 7 10 5 22 -3 25 -38 39 -38 16z"/>
<path d="M710 2026 c0 -24 16 -43 26 -33 8 7 -7 57 -17 57 -5 0 -9 -11 -9 -24z"/>
<path d="M740 1699 l0 -61 -29 5 c-27 6 -30 3 -36 -24 -4 -17 -5 -33 -2 -36 9
-8 27 7 27 21 0 8 16 16 38 20 56 9 94 7 87 -4 -3 -5 -21 -10 -38 -10 -59 0
-78 -10 -75 -38 2 -14 9 -27 16 -30 9 -3 13 3 10 19 -2 20 2 25 24 27 22 3 27
0 22 -12 -4 -10 -1 -16 9 -16 9 0 19 9 22 20 4 13 18 23 36 27 30 6 37 21 17
41 -7 7 -28 9 -56 5 l-45 -6 6 51 c6 47 -1 62 -29 62 -2 0 -4 -28 -4 -61z"/>
<path d="M580 1685 c0 -42 -2 -45 -26 -45 -20 0 -25 -4 -20 -16 3 -9 6 -25 6
-36 0 -11 8 -22 20 -25 32 -8 25 -42 -10 -49 -34 -7 -39 -20 -11 -29 12 -3 37
3 60 14 24 13 42 17 46 11 10 -16 25 -11 25 8 0 19 -18 42 -32 42 -4 0 -8 -7
-8 -15 0 -8 -4 -15 -10 -15 -5 0 -10 9 -10 20 0 13 7 20 18 20 11 0 22 12 30
33 16 46 16 47 -19 47 -29 0 -30 2 -24 31 5 22 3 34 -6 40 -25 15 -29 10 -29
-36z m50 -75 c0 -11 -4 -20 -10 -20 -5 0 -10 9 -10 20 0 11 5 20 10 20 6 0 10
-9 10 -20z m-50 -12 c0 -19 -2 -20 -10 -8 -13 19 -13 30 0 30 6 0 10 -10 10
-22z"/>
<path d="M805 1700 c-10 -11 -16 -23 -12 -26 10 -10 62 12 62 27 0 22 -29 22
-50 -1z"/>
<path d="M690 1688 c0 -16 19 -38 33 -38 4 0 7 10 5 22 -3 25 -38 39 -38 16z"/>
<path d="M740 1249 l0 -61 -29 5 c-27 6 -30 3 -36 -24 -4 -17 -5 -33 -2 -36 9
-8 27 7 27 21 0 8 16 16 38 20 56 9 94 7 87 -4 -3 -5 -21 -10 -38 -10 -56 0
-77 -10 -77 -36 0 -30 19 -38 64 -30 25 5 36 13 40 32 5 17 15 26 36 31 31 6
38 21 18 41 -7 7 -28 9 -56 5 l-45 -6 6 51 c6 47 -1 62 -29 62 -2 0 -4 -28 -4
-61z m38 -125 c-9 -10 -24 -14 -33 -10 -23 9 -9 26 23 26 24 0 25 -1 10 -16z"/>
<path d="M580 1235 c0 -42 -2 -45 -26 -45 -20 0 -25 -4 -20 -16 3 -9 6 -25 6
-36 0 -11 8 -22 20 -25 32 -8 25 -42 -10 -49 -34 -7 -39 -20 -11 -29 12 -3 37
3 60 14 24 13 42 17 46 11 10 -16 25 -11 25 8 0 19 -18 42 -32 42 -4 0 -8 -7
-8 -15 0 -8 -4 -15 -10 -15 -5 0 -10 9 -10 20 0 13 7 20 18 20 11 0 22 12 30
33 16 46 16 47 -19 47 -29 0 -30 2 -24 31 5 22 3 34 -6 40 -25 15 -29 10 -29
-36z m50 -75 c0 -11 -4 -20 -10 -20 -5 0 -10 9 -10 20 0 11 5 20 10 20 6 0 10
-9 10 -20z m-50 -12 c0 -19 -2 -20 -10 -8 -13 19 -13 30 0 30 6 0 10 -10 10
-22z"/>
<path d="M805 1250 c-10 -11 -16 -23 -12 -26 10 -10 62 12 62 27 0 22 -29 22
-50 -1z"/>
<path d="M690 1238 c0 -16 19 -38 33 -38 4 0 7 10 5 22 -3 25 -38 39 -38 16z"/>
<path d="M740 799 l0 -61 -29 5 c-27 6 -30 3 -36 -24 -4 -17 -5 -33 -2 -36 9
-8 27 7 27 21 0 8 16 16 38 20 56 9 94 7 87 -4 -3 -5 -21 -10 -38 -10 -56 0
-77 -10 -77 -36 0 -30 19 -38 64 -30 25 5 36 13 40 32 5 17 15 26 36 31 31 6
38 21 18 41 -7 7 -28 9 -56 5 l-45 -6 6 51 c6 47 -1 62 -29 62 -2 0 -4 -28 -4
-61z m38 -125 c-9 -10 -24 -14 -33 -10 -23 9 -9 26 23 26 24 0 25 -1 10 -16z"/>
<path d="M580 785 c0 -42 -2 -45 -26 -45 -20 0 -25 -4 -20 -16 3 -9 6 -25 6
-36 0 -11 8 -22 20 -25 32 -8 25 -42 -10 -49 -34 -7 -39 -20 -11 -29 12 -3 37
3 60 14 24 13 42 17 46 11 10 -16 25 -11 25 8 0 19 -18 42 -32 42 -4 0 -8 -7
-8 -15 0 -8 -4 -15 -10 -15 -5 0 -10 9 -10 20 0 13 7 20 18 20 11 0 22 12 30
33 16 46 16 47 -19 47 -29 0 -30 2 -24 31 5 22 3 34 -6 40 -25 15 -29 10 -29
-36z m50 -75 c0 -11 -4 -20 -10 -20 -5 0 -10 9 -10 20 0 11 5 20 10 20 6 0 10
-9 10 -20z m-50 -12 c0 -19 -2 -20 -10 -8 -13 19 -13 30 0 30 6 0 10 -10 10
-22z"/>
<path d="M805 800 c-10 -11 -16 -23 -12 -26 10 -10 62 12 62 27 0 22 -29 22
-50 -1z"/>
<path d="M690 788 c0 -16 19 -38 33 -38 4 0 7 10 5 22 -3 25 -38 39 -38 16z"/>
<path d="M728 613 c-33 -5 -37 -23 -5 -23 41 0 97 13 97 21 0 9 -41 10 -92 2z"/>
<path d="M740 349 l0 -61 -29 5 c-27 6 -30 3 -36 -24 -4 -17 -5 -33 -2 -36 9
-8 27 7 27 21 0 8 16 16 38 20 56 9 94 7 87 -4 -3 -5 -21 -10 -38 -10 -56 0
-77 -10 -77 -36 0 -14 7 -27 15 -30 22 -9 18 -34 -5 -34 -11 0 -20 -4 -20 -10
0 -5 11 -10 25 -10 19 0 25 -5 25 -21 0 -27 24 -19 28 9 2 14 11 22 23 22 10
0 19 5 19 10 0 6 -9 10 -20 10 -11 0 -20 7 -20 15 0 8 6 15 14 15 8 0 17 11
20 25 5 18 15 27 36 32 31 6 38 21 18 41 -7 7 -28 9 -56 5 l-45 -6 6 51 c6 47
-1 62 -29 62 -2 0 -4 -28 -4 -61z m38 -125 c-9 -10 -24 -14 -33 -10 -23 9 -9
26 23 26 24 0 25 -1 10 -16z"/>
<path d="M580 335 c0 -42 -2 -45 -26 -45 -20 0 -25 -4 -20 -16 3 -9 6 -25 6
-36 0 -11 8 -22 20 -25 32 -8 25 -42 -10 -49 -34 -7 -39 -20 -11 -29 12 -3 37
3 60 14 24 13 42 17 46 11 10 -16 25 -11 25 8 0 19 -18 42 -32 42 -4 0 -8 -7
-8 -15 0 -8 -4 -15 -10 -15 -5 0 -10 9 -10 20 0 13 7 20 18 20 11 0 22 12 30
33 16 46 16 47 -19 47 -29 0 -30 2 -24 31 5 22 3 34 -6 40 -25 15 -29 10 -29
-36z m50 -75 c0 -11 -4 -20 -10 -20 -5 0 -10 9 -10 20 0 11 5 20 10 20 6 0 10
-9 10 -20z m-50 -12 c0 -19 -2 -20 -10 -8 -13 19 -13 30 0 30 6 0 10 -10 10
-22z"/>
<path d="M805 350 c-10 -11 -16 -23 -12 -26 10 -10 62 12 62 27 0 22 -29 22
-50 -1z"/>
<path d="M690 338 c0 -16 19 -38 33 -38 4 0 7 10 5 22 -3 25 -38 39 -38 16z"/>
</g>
</svg>
