<?xml version="1.0" standalone="no"?>
<!DOCTYPE svg PUBLIC "-//W3C//DTD SVG 20010904//EN"
 "http://www.w3.org/TR/2001/REC-SVG-20010904/DTD/svg10.dtd">
<svg version="1.0" xmlns="http://www.w3.org/2000/svg"
 width="95.000000pt" height="725.000000pt" viewBox="0 0 95.000000 725.000000"
 preserveAspectRatio="xMidYMid meet">
<metadata>
Created by potrace 1.16, written by Peter Selinger 2001-2019
</metadata>
<g transform="translate(0.000000,725.000000) scale(0.100000,-0.100000)"
fill="#000000" stroke="none">
<path d="M192 7123 c-32 -43 -37 -68 -9 -45 8 7 18 8 27 1 13 -8 12 -12 -5
-25 -11 -8 -27 -19 -35 -24 -24 -14 -2 -24 26 -12 17 8 31 9 44 2 10 -5 23
-10 29 -10 20 0 11 20 -11 30 -18 7 -19 9 -6 9 10 1 40 -11 67 -26 27 -16 52
-25 56 -21 13 13 -16 47 -50 59 -42 15 -43 21 -9 48 34 27 22 45 -27 38 -29
-4 -39 -2 -39 9 0 27 -25 13 -58 -33z m76 -19 c-9 -10 -24 -14 -33 -10 -23 9
-9 26 23 26 24 0 25 -1 10 -16z"/>
<path d="M645 7127 c-37 -52 -39 -57 -26 -57 16 0 81 69 81 85 0 27 -25 15
-55 -28z"/>
<path d="M220 6990 c0 -13 48 -36 56 -27 4 4 1 13 -6 22 -14 17 -50 20 -50 5z"/>
<path d="M313 6978 c2 -18 -4 -24 -26 -26 -24 -3 -26 -6 -21 -30 10 -39 14
-44 36 -39 14 4 18 1 16 -11 -5 -25 -53 -27 -79 -4 -17 17 -19 24 -9 42 15 27
6 50 -19 50 -10 0 -21 7 -25 15 -8 22 -36 18 -36 -5 0 -15 -7 -20 -25 -20 -23
0 -25 -3 -19 -27 9 -38 13 -43 30 -43 8 0 14 -7 14 -15 0 -10 -10 -15 -30 -15
-20 0 -30 -5 -30 -15 0 -18 20 -19 71 -3 35 10 54 28 29 28 -5 0 -10 7 -10 15
0 25 17 17 30 -14 14 -35 54 -44 118 -28 41 11 57 27 27 27 -8 0 -15 7 -15 15
0 28 26 15 43 -20 17 -36 31 -43 42 -24 4 6 -3 21 -16 35 -19 20 -21 27 -11
49 18 38 15 45 -17 45 -20 0 -30 6 -34 20 -7 28 -37 26 -34 -2z m-112 -61
c-13 -13 -26 -3 -16 12 3 6 11 8 17 5 6 -4 6 -10 -1 -17z m115 -4 c-6 -15 -9
-15 -16 -3 -6 9 -5 17 3 22 16 10 21 2 13 -19z m54 18 c0 -12 -20 -25 -27 -18
-7 7 6 27 18 27 5 0 9 -4 9 -9z m-210 -10 c0 -17 -18 -21 -24 -6 -3 9 0 15 9
15 8 0 15 -4 15 -9z"/>
<path d="M642 6673 c-18 -25 -31 -47 -28 -50 3 -3 21 6 40 21 19 14 45 26 57
26 22 0 22 -1 4 -20 -10 -11 -38 -33 -62 -48 -43 -27 -54 -42 -30 -42 35 0
173 113 161 131 -4 7 -23 9 -45 6 -29 -4 -39 -2 -39 9 0 27 -25 13 -58 -33z"/>
<path d="M642 6223 c-32 -43 -37 -68 -9 -45 8 7 18 8 27 1 13 -8 12 -12 -5
-25 -11 -8 -27 -19 -35 -24 -8 -5 -11 -12 -7 -16 4 -5 28 2 53 16 l45 24 54
-30 c30 -15 57 -26 60 -22 13 13 -16 47 -50 59 -42 15 -43 21 -9 48 34 27 22
45 -27 38 -29 -4 -39 -2 -39 9 0 27 -25 13 -58 -33z m76 -19 c-9 -10 -24 -14
-33 -10 -23 9 -9 26 23 26 24 0 25 -1 10 -16z"/>
<path d="M642 5773 c-32 -43 -37 -68 -9 -45 8 7 18 8 27 1 13 -8 12 -12 -5
-25 -11 -8 -27 -19 -35 -24 -24 -14 -2 -24 26 -12 17 8 31 9 44 2 10 -5 23
-10 29 -10 20 0 11 20 -11 30 -18 7 -19 9 -6 9 10 1 40 -11 67 -26 27 -16 52
-25 56 -21 13 13 -16 47 -50 59 -42 15 -43 21 -9 48 34 27 22 45 -27 38 -29
-4 -39 -2 -39 9 0 27 -25 13 -58 -33z m76 -19 c-9 -10 -24 -14 -33 -10 -23 9
-9 26 23 26 24 0 25 -1 10 -16z"/>
<path d="M642 5323 c-32 -43 -37 -68 -9 -45 8 7 18 8 27 1 13 -8 12 -12 -5
-25 -11 -8 -27 -19 -35 -24 -24 -14 -2 -24 26 -12 17 8 31 9 44 2 10 -5 23
-10 29 -10 20 0 11 20 -11 30 -18 7 -19 9 -6 9 10 1 40 -11 67 -26 27 -16 52
-25 56 -21 13 13 -16 47 -50 59 -42 15 -43 21 -9 48 34 27 22 45 -27 38 -29
-4 -39 -2 -39 9 0 27 -25 13 -58 -33z m76 -19 c-9 -10 -24 -14 -33 -10 -23 9
-9 26 23 26 24 0 25 -1 10 -16z"/>
<path d="M670 5190 c0 -13 48 -36 56 -27 4 4 1 13 -6 22 -14 17 -50 20 -50 5z"/>
<path d="M642 4873 c-32 -43 -37 -68 -9 -45 8 7 18 8 27 1 13 -8 12 -12 -5
-25 -11 -8 -27 -19 -35 -24 -24 -14 -2 -24 26 -12 17 8 31 9 44 2 10 -5 23
-10 29 -10 20 0 11 20 -11 30 -18 7 -19 9 -6 9 10 1 40 -11 67 -26 27 -16 52
-25 56 -21 13 13 -16 47 -50 59 -42 15 -43 21 -9 48 34 27 22 45 -27 38 -29
-4 -39 -2 -39 9 0 27 -25 13 -58 -33z m76 -19 c-9 -10 -24 -14 -33 -10 -23 9
-9 26 23 26 24 0 25 -1 10 -16z"/>
<path d="M670 4740 c0 -13 48 -36 56 -27 4 4 1 13 -6 22 -14 17 -50 20 -50 5z"/>
<path d="M556 4673 c7 -32 21 -50 30 -41 11 12 -7 68 -22 68 -11 0 -13 -7 -8
-27z"/>
<path d="M642 4423 c-32 -43 -37 -68 -9 -45 8 7 18 8 27 1 13 -8 12 -12 -5
-25 -11 -8 -27 -19 -35 -24 -24 -14 -2 -24 26 -12 17 8 31 9 44 2 10 -5 23
-10 29 -10 20 0 11 20 -11 30 -18 7 -19 9 -6 9 10 1 40 -11 67 -26 27 -16 52
-25 56 -21 13 13 -16 47 -50 59 -42 15 -43 21 -9 48 34 27 22 45 -27 38 -29
-4 -39 -2 -39 9 0 27 -25 13 -58 -33z m76 -19 c-9 -10 -24 -14 -33 -10 -23 9
-9 26 23 26 24 0 25 -1 10 -16z"/>
<path d="M670 4290 c0 -13 48 -36 56 -27 4 4 1 13 -6 22 -14 17 -50 20 -50 5z"/>
<path d="M640 4251 c0 -6 4 -12 10 -16 5 -3 7 -12 3 -20 -3 -9 1 -15 10 -15
17 0 32 34 22 50 -8 13 -45 13 -45 1z"/>
<path d="M556 4223 c9 -36 13 -43 26 -43 6 0 8 11 6 25 -4 21 -1 25 18 25 13
0 24 5 24 10 0 6 -18 10 -40 10 -39 0 -40 -1 -34 -27z"/>
<path d="M642 3973 c-32 -43 -37 -68 -9 -45 8 7 18 8 27 1 13 -8 12 -12 -5
-25 -11 -8 -27 -19 -35 -24 -24 -14 -2 -24 26 -12 17 8 31 9 44 2 10 -5 23
-10 29 -10 20 0 11 20 -11 30 -18 7 -19 9 -6 9 10 1 40 -11 67 -26 27 -16 52
-25 56 -21 13 13 -16 47 -50 59 -42 15 -43 21 -9 48 34 27 22 45 -27 38 -29
-4 -39 -2 -39 9 0 27 -25 13 -58 -33z m76 -19 c-9 -10 -24 -14 -33 -10 -23 9
-9 26 23 26 24 0 25 -1 10 -16z"/>
<path d="M670 3840 c0 -13 48 -36 56 -27 4 4 1 13 -6 22 -14 17 -50 20 -50 5z"/>
<path d="M640 3801 c0 -6 5 -13 10 -16 15 -9 2 -25 -21 -25 -10 0 -19 -4 -19
-10 0 -5 13 -10 30 -10 31 0 56 30 46 56 -6 15 -46 20 -46 5z"/>
<path d="M556 3773 c9 -38 13 -43 30 -43 17 0 17 5 4 31 -9 16 -7 19 15 19 14
0 25 5 25 10 0 6 -18 10 -40 10 -39 0 -40 -1 -34 -27z"/>
<path d="M642 3523 c-32 -43 -37 -68 -9 -45 8 7 18 8 27 1 13 -8 12 -12 -5
-25 -11 -8 -27 -19 -35 -24 -24 -14 -2 -24 26 -12 17 8 31 9 44 2 10 -5 23
-10 29 -10 20 0 11 20 -11 30 -18 7 -19 9 -6 9 10 1 40 -11 67 -26 27 -16 52
-25 56 -21 13 13 -16 47 -50 59 -42 15 -43 21 -9 48 34 27 22 45 -27 38 -29
-4 -39 -2 -39 9 0 27 -25 13 -58 -33z m76 -19 c-9 -10 -24 -14 -33 -10 -23 9
-9 26 23 26 24 0 25 -1 10 -16z"/>
<path d="M670 3390 c0 -13 48 -36 56 -27 4 4 1 13 -6 22 -14 17 -50 20 -50 5z"/>
<path d="M600 3370 c0 -15 -7 -20 -25 -20 -23 0 -25 -3 -19 -27 9 -38 13 -43
30 -43 8 0 14 -7 14 -15 0 -8 7 -15 15 -15 8 0 15 9 15 20 0 13 7 20 20 20 22
0 44 34 36 56 -3 8 -14 14 -25 14 -10 0 -21 7 -25 15 -8 22 -36 18 -36 -5z
m51 -53 c-13 -13 -26 -3 -16 12 3 6 11 8 17 5 6 -4 6 -10 -1 -17z m-41 4 c0
-17 -18 -21 -24 -6 -3 9 0 15 9 15 8 0 15 -4 15 -9z"/>
<path d="M642 3073 c-32 -43 -37 -68 -9 -45 8 7 18 8 27 1 13 -8 12 -12 -5
-25 -11 -8 -27 -19 -35 -24 -24 -14 -2 -24 26 -12 17 8 31 9 44 2 10 -5 23
-10 29 -10 20 0 11 20 -11 30 -18 7 -19 9 -6 9 10 1 40 -11 67 -26 27 -16 52
-25 56 -21 13 13 -16 47 -50 59 -42 15 -43 21 -9 48 34 27 22 45 -27 38 -29
-4 -39 -2 -39 9 0 27 -25 13 -58 -33z m76 -19 c-9 -10 -24 -14 -33 -10 -23 9
-9 26 23 26 24 0 25 -1 10 -16z"/>
<path d="M670 2940 c0 -13 48 -36 56 -27 4 4 1 13 -6 22 -14 17 -50 20 -50 5z"/>
<path d="M600 2920 c0 -15 -7 -20 -25 -20 -23 0 -25 -3 -19 -27 9 -38 13 -43
30 -43 8 0 14 -7 14 -15 0 -10 -10 -15 -30 -15 -20 0 -30 -5 -30 -15 0 -18 20
-19 71 -3 35 10 54 28 29 28 -5 0 -10 7 -10 15 0 8 9 15 20 15 22 0 44 34 36
56 -3 8 -14 14 -25 14 -10 0 -21 7 -25 15 -8 22 -36 18 -36 -5z m51 -53 c-13
-13 -26 -3 -16 12 3 6 11 8 17 5 6 -4 6 -10 -1 -17z m-41 4 c0 -17 -18 -21
-24 -6 -3 9 0 15 9 15 8 0 15 -4 15 -9z"/>
<path d="M642 2623 c-32 -43 -37 -68 -9 -45 8 7 18 8 27 1 13 -8 12 -12 -5
-25 -11 -8 -27 -19 -35 -24 -24 -14 -2 -24 26 -12 17 8 31 9 44 2 10 -5 23
-10 29 -10 20 0 11 20 -11 30 -18 7 -19 9 -6 9 10 1 40 -11 67 -26 27 -16 52
-25 56 -21 13 13 -16 47 -50 59 -42 15 -43 21 -9 48 34 27 22 45 -27 38 -29
-4 -39 -2 -39 9 0 27 -25 13 -58 -33z m76 -19 c-9 -10 -24 -14 -33 -10 -23 9
-9 26 23 26 24 0 25 -1 10 -16z"/>
<path d="M670 2490 c0 -13 48 -36 56 -27 4 4 1 13 -6 22 -14 17 -50 20 -50 5z"/>
<path d="M600 2470 c0 -15 -7 -20 -25 -20 -23 0 -25 -3 -19 -27 9 -38 13 -43
30 -43 8 0 14 -7 14 -15 0 -10 -10 -15 -30 -15 -20 0 -30 -5 -30 -15 0 -18 20
-19 71 -3 35 10 54 28 29 28 -5 0 -10 7 -10 15 0 25 17 17 30 -15 13 -32 40
-41 40 -14 0 9 -7 22 -16 29 -14 10 -14 15 -4 34 15 28 7 51 -19 51 -10 0 -21
7 -25 15 -8 22 -36 18 -36 -5z m51 -53 c-13 -13 -26 -3 -16 12 3 6 11 8 17 5
6 -4 6 -10 -1 -17z m-41 4 c0 -17 -18 -21 -24 -6 -3 9 0 15 9 15 8 0 15 -4 15
-9z"/>
<path d="M642 2173 c-32 -43 -37 -68 -9 -45 8 7 18 8 27 1 13 -8 12 -12 -5
-25 -11 -8 -27 -19 -35 -24 -24 -14 -2 -24 26 -12 17 8 31 9 44 2 10 -5 23
-10 29 -10 20 0 11 20 -11 30 -18 7 -19 9 -6 9 10 1 40 -11 67 -26 27 -16 52
-25 56 -21 13 13 -16 47 -50 59 -42 15 -43 21 -9 48 34 27 22 45 -27 38 -29
-4 -39 -2 -39 9 0 27 -25 13 -58 -33z m76 -19 c-9 -10 -24 -14 -33 -10 -23 9
-9 26 23 26 24 0 25 -1 10 -16z"/>
<path d="M670 2040 c0 -13 48 -36 56 -27 4 4 1 13 -6 22 -14 17 -50 20 -50 5z"/>
<path d="M600 2020 c0 -15 -7 -20 -25 -20 -23 0 -25 -3 -19 -27 9 -38 13 -43
30 -43 8 0 14 -7 14 -15 0 -10 -10 -15 -30 -15 -20 0 -30 -5 -30 -15 0 -18 20
-19 71 -3 35 10 54 28 29 28 -5 0 -10 7 -10 15 0 25 17 17 30 -15 13 -32 40
-41 40 -14 0 9 -7 22 -16 29 -14 10 -14 15 -4 34 15 28 7 51 -19 51 -10 0 -21
7 -25 15 -8 22 -36 18 -36 -5z m51 -53 c-13 -13 -26 -3 -16 12 3 6 11 8 17 5
6 -4 6 -10 -1 -17z m-41 4 c0 -17 -18 -21 -24 -6 -3 9 0 15 9 15 8 0 15 -4 15
-9z"/>
<path d="M716 1973 c7 -32 21 -50 30 -41 11 12 -7 68 -22 68 -11 0 -13 -7 -8
-27z"/>
<path d="M642 1723 c-32 -43 -37 -68 -9 -45 8 7 18 8 27 1 13 -8 12 -12 -5
-25 -11 -8 -27 -19 -35 -24 -24 -14 -2 -24 26 -12 17 8 31 9 44 2 10 -5 23
-10 29 -10 20 0 11 20 -11 30 -18 7 -19 9 -6 9 10 1 40 -11 67 -26 27 -16 52
-25 56 -21 13 13 -16 47 -50 59 -42 15 -43 21 -9 48 34 27 22 45 -27 38 -29
-4 -39 -2 -39 9 0 27 -25 13 -58 -33z m76 -19 c-9 -10 -24 -14 -33 -10 -23 9
-9 26 23 26 24 0 25 -1 10 -16z"/>
<path d="M670 1590 c0 -13 48 -36 56 -27 4 4 1 13 -6 22 -14 17 -50 20 -50 5z"/>
<path d="M600 1570 c0 -15 -7 -20 -25 -20 -23 0 -25 -3 -19 -27 9 -38 13 -43
30 -43 8 0 14 -7 14 -15 0 -10 -10 -15 -30 -15 -20 0 -30 -5 -30 -15 0 -18 20
-19 71 -3 35 10 54 28 29 28 -5 0 -10 7 -10 15 0 25 17 17 30 -15 13 -32 40
-41 40 -14 0 9 -7 22 -16 29 -14 10 -14 15 -4 34 15 28 7 51 -19 51 -10 0 -21
7 -25 15 -8 22 -36 18 -36 -5z m51 -53 c-13 -13 -26 -3 -16 12 3 6 11 8 17 5
6 -4 6 -10 -1 -17z m-41 4 c0 -17 -18 -21 -24 -6 -3 9 0 15 9 15 8 0 15 -4 15
-9z"/>
<path d="M770 1550 c0 -5 12 -10 26 -10 21 0 24 -4 19 -20 -8 -27 20 -27 35
-1 18 34 11 41 -35 41 -25 0 -45 -4 -45 -10z"/>
<path d="M716 1523 c9 -36 13 -43 26 -43 6 0 8 11 6 25 -3 14 -1 25 3 25 5 0
9 5 9 10 0 6 -11 10 -25 10 -23 0 -25 -3 -19 -27z"/>
<path d="M642 1273 c-32 -43 -37 -68 -9 -45 8 7 18 8 27 1 13 -8 12 -12 -5
-25 -11 -8 -27 -19 -35 -24 -24 -14 -2 -24 26 -12 17 8 31 9 44 2 10 -5 23
-10 29 -10 20 0 11 20 -11 30 -18 7 -19 9 -6 9 10 1 40 -11 67 -26 27 -16 52
-25 56 -21 13 13 -16 47 -50 59 -42 15 -43 21 -9 48 34 27 22 45 -27 38 -29
-4 -39 -2 -39 9 0 27 -25 13 -58 -33z m76 -19 c-9 -10 -24 -14 -33 -10 -23 9
-9 26 23 26 24 0 25 -1 10 -16z"/>
<path d="M670 1140 c0 -13 48 -36 56 -27 4 4 1 13 -6 22 -14 17 -50 20 -50 5z"/>
<path d="M600 1120 c0 -15 -7 -20 -25 -20 -23 0 -25 -3 -19 -27 9 -38 13 -43
30 -43 8 0 14 -7 14 -15 0 -10 -10 -15 -30 -15 -20 0 -30 -5 -30 -15 0 -18 20
-19 71 -3 35 10 54 28 29 28 -5 0 -10 7 -10 15 0 25 17 17 30 -15 13 -32 40
-41 40 -14 0 9 -7 22 -16 29 -14 10 -14 15 -4 34 15 28 7 51 -19 51 -10 0 -21
7 -25 15 -8 22 -36 18 -36 -5z m51 -53 c-13 -13 -26 -3 -16 12 3 6 11 8 17 5
6 -4 6 -10 -1 -17z m-41 4 c0 -17 -18 -21 -24 -6 -3 9 0 15 9 15 8 0 15 -4 15
-9z"/>
<path d="M770 1100 c0 -5 12 -10 26 -10 36 0 26 -23 -14 -31 -22 -4 -32 -2
-36 7 -3 8 -1 14 4 14 6 0 10 5 10 10 0 6 -11 10 -25 10 -23 0 -25 -3 -19 -27
9 -40 13 -42 70 -36 43 4 54 10 63 30 18 38 14 43 -34 43 -25 0 -45 -4 -45
-10z"/>
<path d="M642 823 c-32 -43 -37 -68 -9 -45 8 7 18 8 27 1 13 -8 12 -12 -5 -25
-11 -8 -27 -19 -35 -24 -24 -14 -2 -24 26 -12 17 8 31 9 44 2 10 -5 23 -10 29
-10 20 0 11 20 -11 30 -18 7 -19 9 -6 9 10 1 40 -11 67 -26 27 -16 52 -25 56
-21 13 13 -16 47 -50 59 -42 15 -43 21 -9 48 34 27 22 45 -27 38 -29 -4 -39
-2 -39 9 0 27 -25 13 -58 -33z m76 -19 c-9 -10 -24 -14 -33 -10 -23 9 -9 26
23 26 24 0 25 -1 10 -16z"/>
<path d="M670 690 c0 -13 48 -36 56 -27 4 4 1 13 -6 22 -14 17 -50 20 -50 5z"/>
<path d="M763 678 c2 -18 -4 -24 -26 -26 -24 -3 -26 -6 -21 -30 10 -39 14 -44
35 -39 14 4 19 0 19 -14 0 -10 5 -19 10 -19 6 0 10 9 10 20 0 14 7 20 23 20
16 0 28 9 35 25 18 38 15 45 -17 45 -20 0 -30 6 -34 20 -7 28 -37 26 -34 -2z
m3 -65 c-6 -15 -9 -15 -16 -3 -6 9 -5 17 3 22 16 10 21 2 13 -19z m54 18 c0
-12 -20 -25 -27 -18 -7 7 6 27 18 27 5 0 9 -4 9 -9z"/>
<path d="M600 670 c0 -15 -7 -20 -25 -20 -23 0 -25 -3 -19 -27 9 -38 13 -43
30 -43 8 0 14 -7 14 -15 0 -10 -10 -15 -30 -15 -20 0 -30 -5 -30 -15 0 -18 20
-19 71 -3 35 10 54 28 29 28 -5 0 -10 7 -10 15 0 25 17 17 30 -15 13 -32 40
-41 40 -14 0 9 -7 22 -16 29 -14 10 -14 15 -4 34 15 28 7 51 -19 51 -10 0 -21
7 -25 15 -8 22 -36 18 -36 -5z m51 -53 c-13 -13 -26 -3 -16 12 3 6 11 8 17 5
6 -4 6 -10 -1 -17z m-41 4 c0 -17 -18 -21 -24 -6 -3 9 0 15 9 15 8 0 15 -4 15
-9z"/>
<path d="M642 373 c-32 -43 -37 -68 -9 -45 8 7 18 8 27 1 13 -8 12 -12 -5 -25
-11 -8 -27 -19 -35 -24 -24 -14 -2 -24 26 -12 17 8 31 9 44 2 10 -5 23 -10 29
-10 20 0 11 20 -11 30 -18 7 -19 9 -6 9 10 1 40 -11 67 -26 27 -16 52 -25 56
-21 13 13 -16 47 -50 59 -42 15 -43 21 -9 48 34 27 22 45 -27 38 -29 -4 -39
-2 -39 9 0 27 -25 13 -58 -33z m76 -19 c-9 -10 -24 -14 -33 -10 -23 9 -9 26
23 26 24 0 25 -1 10 -16z"/>
<path d="M670 240 c0 -13 48 -36 56 -27 4 4 1 13 -6 22 -14 17 -50 20 -50 5z"/>
<path d="M763 228 c2 -18 -4 -24 -26 -26 -24 -3 -26 -6 -21 -30 10 -39 14 -44
36 -39 14 4 18 1 16 -11 -5 -25 -53 -27 -79 -4 -17 17 -19 24 -9 42 15 27 6
50 -19 50 -10 0 -21 7 -25 15 -8 22 -36 18 -36 -5 0 -15 -7 -20 -25 -20 -23 0
-25 -3 -19 -27 9 -38 13 -43 30 -43 8 0 14 -7 14 -15 0 -10 -10 -15 -30 -15
-20 0 -30 -5 -30 -15 0 -18 20 -19 71 -3 35 10 54 28 29 28 -5 0 -10 7 -10 15
0 25 17 17 30 -14 14 -35 54 -44 118 -28 41 11 57 27 27 27 -8 0 -15 7 -15 15
0 9 9 15 23 15 16 0 28 9 35 25 18 38 15 45 -17 45 -20 0 -30 6 -34 20 -7 28
-37 26 -34 -2z m-112 -61 c-13 -13 -26 -3 -16 12 3 6 11 8 17 5 6 -4 6 -10 -1
-17z m115 -4 c-6 -15 -9 -15 -16 -3 -6 9 -5 17 3 22 16 10 21 2 13 -19z m54
18 c0 -12 -20 -25 -27 -18 -7 7 6 27 18 27 5 0 9 -4 9 -9z m-210 -10 c0 -17
-18 -21 -24 -6 -3 9 0 15 9 15 8 0 15 -4 15 -9z"/>
</g>
</svg>
