<?xml version="1.0" standalone="no"?>
<!DOCTYPE svg PUBLIC "-//W3C//DTD SVG 20010904//EN"
 "http://www.w3.org/TR/2001/REC-SVG-20010904/DTD/svg10.dtd">
<svg version="1.0" xmlns="http://www.w3.org/2000/svg"
 width="95.000000pt" height="725.000000pt" viewBox="0 0 95.000000 725.000000"
 preserveAspectRatio="xMidYMid meet">
<metadata>
Created by potrace 1.16, written by Peter Selinger 2001-2019
</metadata>
<g transform="translate(0.000000,725.000000) scale(0.100000,-0.100000)"
fill="#000000" stroke="none">
<path d="M313 7163 c-45 -6 -42 -23 5 -24 30 -2 32 -3 10 -6 -34 -5 -37 -23
-5 -24 16 -1 18 -2 5 -6 -29 -7 -20 -23 12 -23 20 0 30 5 30 15 0 9 9 15 25
15 14 0 25 2 25 4 0 13 -49 56 -61 54 -8 0 -29 -3 -46 -5z"/>
<path d="M123 7118 c2 -38 -1 -43 -22 -46 -20 -3 -22 -8 -17 -34 3 -17 6 -34
6 -39 0 -5 9 -9 20 -9 11 0 20 -6 20 -13 0 -19 -21 -37 -42 -37 -10 0 -18 -5
-18 -10 0 -21 29 -21 71 1 28 14 44 18 47 10 6 -19 22 -12 22 9 0 14 7 20 23
20 28 1 61 25 52 40 -4 6 -1 18 6 26 17 20 9 24 -34 17 -36 -5 -52 -23 -22
-23 8 0 15 -6 15 -14 0 -16 -35 -31 -62 -27 -11 1 -18 -4 -18 -13 0 -9 -4 -16
-10 -16 -5 0 -10 9 -10 20 0 13 7 20 19 20 21 0 47 51 37 75 -3 10 -15 15 -28
13 -19 -3 -22 2 -22 32 -1 24 -6 36 -18 38 -14 3 -17 -4 -15 -40z m3 -95 c-11
-11 -19 6 -11 24 8 17 8 17 12 0 3 -10 2 -21 -1 -24z m44 23 c0 -8 -4 -18 -10
-21 -5 -3 -10 3 -10 14 0 12 5 21 10 21 6 0 10 -6 10 -14z"/>
<path d="M250 7140 c0 -5 5 -10 10 -10 6 0 10 5 10 10 0 6 -4 10 -10 10 -5 0
-10 -4 -10 -10z"/>
<path d="M220 7110 c0 -5 16 -10 35 -10 19 0 35 5 35 10 0 6 -16 10 -35 10
-19 0 -35 -4 -35 -10z"/>
<path d="M240 7080 c0 -5 14 -10 30 -10 17 0 30 5 30 10 0 6 -13 10 -30 10
-16 0 -30 -4 -30 -10z"/>
<path d="M355 7071 c-11 -5 -26 -6 -33 -3 -10 3 -11 -3 -6 -24 9 -41 18 -47
52 -39 34 7 54 51 30 66 -15 10 -17 10 -43 0z m13 -33 c-6 -18 -28 -21 -28 -4
0 9 7 16 16 16 9 0 14 -5 12 -12z"/>
<path d="M534 7039 c3 -17 6 -35 6 -40 0 -5 5 -9 10 -9 6 0 10 18 10 40 0 30
-4 40 -16 40 -13 0 -15 -7 -10 -31z"/>
<path d="M338 6978 c-2 -6 -30 -13 -61 -16 -53 -4 -69 -13 -49 -26 5 -3 32 -2
60 3 l52 8 0 -44 c0 -40 -2 -44 -20 -38 -26 8 -26 -7 0 -30 31 -28 50 -5 50
61 l0 54 35 0 c19 0 35 4 35 9 0 13 -25 20 -49 14 -12 -3 -21 -1 -21 6 0 15
-27 14 -32 -1z"/>
<path d="M313 6713 c-45 -6 -42 -23 5 -24 30 -2 32 -3 10 -6 -34 -5 -37 -23
-5 -24 16 -1 18 -2 5 -6 -29 -7 -20 -23 12 -23 20 0 30 5 30 15 0 9 9 15 25
15 14 0 25 2 25 4 0 13 -49 56 -61 54 -8 0 -29 -3 -46 -5z"/>
<path d="M123 6668 c2 -38 -1 -43 -22 -46 -20 -3 -22 -8 -17 -34 3 -17 6 -34
6 -39 0 -5 9 -9 20 -9 11 0 20 -6 20 -13 0 -19 -21 -37 -42 -37 -10 0 -18 -5
-18 -10 0 -21 29 -21 71 1 28 14 44 18 47 10 6 -19 22 -12 22 9 0 14 7 20 23
20 28 1 61 25 52 40 -4 6 -1 18 6 26 17 20 9 24 -34 17 -36 -5 -52 -23 -22
-23 8 0 15 -6 15 -14 0 -16 -35 -31 -62 -27 -11 1 -18 -4 -18 -13 0 -9 -4 -16
-10 -16 -5 0 -10 9 -10 20 0 13 7 20 19 20 21 0 47 51 37 75 -3 10 -15 15 -28
13 -19 -3 -22 2 -22 32 -1 24 -6 36 -18 38 -14 3 -17 -4 -15 -40z m3 -95 c-11
-11 -19 6 -11 24 8 17 8 17 12 0 3 -10 2 -21 -1 -24z m44 23 c0 -8 -4 -18 -10
-21 -5 -3 -10 3 -10 14 0 12 5 21 10 21 6 0 10 -6 10 -14z"/>
<path d="M250 6690 c0 -5 5 -10 10 -10 6 0 10 5 10 10 0 6 -4 10 -10 10 -5 0
-10 -4 -10 -10z"/>
<path d="M220 6660 c0 -5 16 -10 35 -10 19 0 35 5 35 10 0 6 -16 10 -35 10
-19 0 -35 -4 -35 -10z"/>
<path d="M240 6630 c0 -5 14 -10 30 -10 17 0 30 5 30 10 0 6 -13 10 -30 10
-16 0 -30 -4 -30 -10z"/>
<path d="M580 6628 c-25 -6 -46 -11 -48 -13 -7 -6 11 -75 18 -75 5 0 10 15 12
33 2 27 8 33 31 35 23 3 27 0 27 -22 0 -14 5 -26 10 -26 15 0 34 46 27 64 -7
18 -13 18 -77 4z"/>
<path d="M355 6621 c-11 -5 -26 -6 -33 -3 -10 3 -11 -3 -6 -24 9 -41 18 -47
52 -39 34 7 54 51 30 66 -15 10 -17 10 -43 0z m13 -33 c-6 -18 -28 -21 -28 -4
0 9 7 16 16 16 9 0 14 -5 12 -12z"/>
<path d="M338 6528 c-2 -6 -30 -13 -61 -16 -53 -4 -69 -13 -49 -26 5 -3 32 -2
60 3 l52 8 0 -44 c0 -40 -2 -44 -20 -38 -26 8 -26 -7 0 -30 31 -28 50 -5 50
61 l0 54 35 0 c19 0 35 4 35 9 0 13 -25 20 -49 14 -12 -3 -21 -1 -21 6 0 15
-27 14 -32 -1z"/>
<path d="M262 6468 c6 -16 36 -34 44 -26 3 4 4 14 1 23 -7 17 -51 21 -45 3z"/>
<path d="M577 6178 l-49 -10 7 -37 c4 -20 8 -37 8 -38 1 0 23 1 49 4 40 5 48
10 58 34 14 32 8 60 -12 58 -7 -1 -35 -6 -61 -11z m41 -35 c-4 -22 -58 -31
-58 -10 0 20 10 27 37 27 18 0 24 -5 21 -17z"/>
<path d="M573 5768 c2 -38 -1 -43 -22 -46 -20 -3 -22 -8 -17 -34 3 -17 6 -34
6 -39 0 -5 9 -9 20 -9 15 0 20 -7 20 -25 0 -14 5 -25 10 -25 6 0 10 14 10 30
0 23 5 30 19 30 21 0 47 51 37 75 -3 10 -15 15 -28 13 -19 -3 -22 2 -22 32 -1
24 -6 36 -18 38 -14 3 -17 -4 -15 -40z m3 -95 c-11 -11 -19 6 -11 24 8 17 8
17 12 0 3 -10 2 -21 -1 -24z m44 23 c0 -8 -4 -18 -10 -21 -5 -3 -10 3 -10 14
0 12 5 21 10 21 6 0 10 -6 10 -14z"/>
<path d="M573 5318 c2 -38 -1 -43 -22 -46 -20 -3 -22 -8 -17 -34 3 -17 6 -34
6 -39 0 -5 9 -9 20 -9 11 0 20 -6 20 -13 0 -19 -21 -37 -42 -37 -20 0 -24 -15
-7 -26 13 -7 109 35 109 48 0 5 -9 6 -20 3 -16 -5 -20 -2 -20 14 0 14 6 21 19
21 21 0 47 51 37 75 -3 10 -15 15 -28 13 -19 -3 -22 2 -22 32 -1 24 -6 36 -18
38 -14 3 -17 -4 -15 -40z m3 -95 c-11 -11 -19 6 -11 24 8 17 8 17 12 0 3 -10
2 -21 -1 -24z m44 23 c0 -8 -4 -18 -10 -21 -5 -3 -10 3 -10 14 0 12 5 21 10
21 6 0 10 -6 10 -14z"/>
<path d="M573 4868 c2 -38 -1 -43 -22 -46 -20 -3 -22 -8 -17 -34 3 -17 6 -34
6 -39 0 -5 9 -9 20 -9 11 0 20 -6 20 -13 0 -19 -21 -37 -42 -37 -10 0 -18 -5
-18 -10 0 -21 29 -21 71 1 28 14 44 18 47 10 8 -23 23 -10 20 16 -3 30 -38 47
-38 19 0 -9 -4 -16 -10 -16 -5 0 -10 9 -10 20 0 13 7 20 19 20 21 0 47 51 37
75 -3 10 -15 15 -28 13 -19 -3 -22 2 -22 32 -1 24 -6 36 -18 38 -14 3 -17 -4
-15 -40z m3 -95 c-11 -11 -19 6 -11 24 8 17 8 17 12 0 3 -10 2 -21 -1 -24z
m44 23 c0 -8 -4 -18 -10 -21 -5 -3 -10 3 -10 14 0 12 5 21 10 21 6 0 10 -6 10
-14z"/>
<path d="M763 4463 c-45 -6 -42 -23 3 -23 34 0 36 -2 30 -25 -5 -18 -2 -25 8
-25 16 0 41 54 31 69 -6 11 -12 11 -72 4z"/>
<path d="M573 4418 c2 -38 -1 -43 -22 -46 -20 -3 -22 -8 -17 -34 3 -17 6 -34
6 -39 0 -5 9 -9 20 -9 11 0 20 -6 20 -13 0 -19 -21 -37 -42 -37 -10 0 -18 -5
-18 -10 0 -21 29 -21 71 1 28 14 44 18 47 10 8 -23 23 -10 20 16 -3 30 -38 47
-38 19 0 -9 -4 -16 -10 -16 -5 0 -10 9 -10 20 0 13 7 20 19 20 21 0 47 51 37
75 -3 10 -15 15 -28 13 -19 -3 -22 2 -22 32 -1 24 -6 36 -18 38 -14 3 -17 -4
-15 -40z m3 -95 c-11 -11 -19 6 -11 24 8 17 8 17 12 0 3 -10 2 -21 -1 -24z
m44 23 c0 -8 -4 -18 -10 -21 -5 -3 -10 3 -10 14 0 12 5 21 10 21 6 0 10 -6 10
-14z"/>
<path d="M700 4440 c0 -5 5 -10 10 -10 6 0 10 5 10 10 0 6 -4 10 -10 10 -5 0
-10 -4 -10 -10z"/>
<path d="M763 4013 c-45 -6 -42 -23 5 -24 30 -2 32 -3 10 -6 -32 -5 -38 -23
-8 -23 11 0 20 -4 20 -10 0 -5 7 -10 15 -10 8 0 15 5 15 10 0 6 11 10 25 10
14 0 25 2 25 4 0 13 -49 56 -61 54 -8 0 -29 -3 -46 -5z"/>
<path d="M573 3968 c2 -38 -1 -43 -22 -46 -20 -3 -22 -8 -17 -34 3 -17 6 -34
6 -39 0 -5 9 -9 20 -9 11 0 20 -6 20 -13 0 -19 -21 -37 -42 -37 -10 0 -18 -5
-18 -10 0 -21 29 -21 71 1 28 14 44 18 47 10 8 -23 23 -10 20 16 -3 30 -38 47
-38 19 0 -9 -4 -16 -10 -16 -5 0 -10 9 -10 20 0 13 7 20 19 20 21 0 47 51 37
75 -3 10 -15 15 -28 13 -19 -3 -22 2 -22 32 -1 24 -6 36 -18 38 -14 3 -17 -4
-15 -40z m3 -95 c-11 -11 -19 6 -11 24 8 17 8 17 12 0 3 -10 2 -21 -1 -24z
m44 23 c0 -8 -4 -18 -10 -21 -5 -3 -10 3 -10 14 0 12 5 21 10 21 6 0 10 -6 10
-14z"/>
<path d="M700 3990 c0 -5 5 -10 10 -10 6 0 10 5 10 10 0 6 -4 10 -10 10 -5 0
-10 -4 -10 -10z"/>
<path d="M670 3960 c0 -5 16 -10 35 -10 19 0 35 5 35 10 0 6 -16 10 -35 10
-19 0 -35 -4 -35 -10z"/>
<path d="M763 3563 c-45 -6 -42 -23 5 -24 30 -2 32 -3 10 -6 -34 -5 -37 -23
-5 -24 16 -1 18 -2 5 -6 -29 -7 -20 -23 12 -23 20 0 30 5 30 15 0 9 9 15 25
15 14 0 25 2 25 4 0 13 -49 56 -61 54 -8 0 -29 -3 -46 -5z"/>
<path d="M573 3518 c2 -38 -1 -43 -22 -46 -20 -3 -22 -8 -17 -34 3 -17 6 -34
6 -39 0 -5 9 -9 20 -9 11 0 20 -6 20 -13 0 -19 -21 -37 -42 -37 -10 0 -18 -5
-18 -10 0 -21 29 -21 71 1 28 14 44 18 47 10 8 -23 23 -10 20 16 -3 30 -38 47
-38 19 0 -9 -4 -16 -10 -16 -5 0 -10 9 -10 20 0 13 7 20 19 20 21 0 47 51 37
75 -3 10 -15 15 -28 13 -19 -3 -22 2 -22 32 -1 24 -6 36 -18 38 -14 3 -17 -4
-15 -40z m3 -95 c-11 -11 -19 6 -11 24 8 17 8 17 12 0 3 -10 2 -21 -1 -24z
m44 23 c0 -8 -4 -18 -10 -21 -5 -3 -10 3 -10 14 0 12 5 21 10 21 6 0 10 -6 10
-14z"/>
<path d="M700 3540 c0 -5 5 -10 10 -10 6 0 10 5 10 10 0 6 -4 10 -10 10 -5 0
-10 -4 -10 -10z"/>
<path d="M670 3510 c0 -5 16 -10 35 -10 19 0 35 5 35 10 0 6 -16 10 -35 10
-19 0 -35 -4 -35 -10z"/>
<path d="M690 3480 c0 -5 14 -10 30 -10 17 0 30 5 30 10 0 6 -13 10 -30 10
-16 0 -30 -4 -30 -10z"/>
<path d="M763 3113 c-45 -6 -42 -23 5 -24 30 -2 32 -3 10 -6 -34 -5 -37 -23
-5 -24 16 -1 18 -2 5 -6 -29 -7 -20 -23 12 -23 20 0 30 5 30 15 0 9 9 15 25
15 14 0 25 2 25 4 0 13 -49 56 -61 54 -8 0 -29 -3 -46 -5z"/>
<path d="M573 3068 c2 -38 -1 -43 -22 -46 -20 -3 -22 -8 -17 -34 3 -17 6 -34
6 -39 0 -5 9 -9 20 -9 11 0 20 -6 20 -13 0 -19 -21 -37 -42 -37 -10 0 -18 -5
-18 -10 0 -21 29 -21 71 1 28 14 44 18 47 10 8 -23 23 -10 20 16 -3 30 -38 47
-38 19 0 -9 -4 -16 -10 -16 -5 0 -10 9 -10 20 0 13 7 20 19 20 21 0 47 51 37
75 -3 10 -15 15 -28 13 -19 -3 -22 2 -22 32 -1 24 -6 36 -18 38 -14 3 -17 -4
-15 -40z m3 -95 c-11 -11 -19 6 -11 24 8 17 8 17 12 0 3 -10 2 -21 -1 -24z
m44 23 c0 -8 -4 -18 -10 -21 -5 -3 -10 3 -10 14 0 12 5 21 10 21 6 0 10 -6 10
-14z"/>
<path d="M700 3090 c0 -5 5 -10 10 -10 6 0 10 5 10 10 0 6 -4 10 -10 10 -5 0
-10 -4 -10 -10z"/>
<path d="M670 3060 c0 -5 16 -10 35 -10 19 0 35 5 35 10 0 6 -16 10 -35 10
-19 0 -35 -4 -35 -10z"/>
<path d="M690 3030 c0 -5 14 -10 30 -10 17 0 30 5 30 10 0 6 -13 10 -30 10
-16 0 -30 -4 -30 -10z"/>
<path d="M698 3003 c-16 -2 -28 -9 -28 -14 0 -15 73 -6 78 9 4 12 0 12 -50 5z"/>
<path d="M763 2663 c-45 -6 -42 -23 5 -24 30 -2 32 -3 10 -6 -34 -5 -37 -23
-5 -24 16 -1 18 -2 5 -6 -29 -7 -20 -23 12 -23 20 0 30 5 30 15 0 9 9 15 25
15 14 0 25 2 25 4 0 13 -49 56 -61 54 -8 0 -29 -3 -46 -5z"/>
<path d="M573 2618 c2 -38 -1 -43 -22 -46 -20 -3 -22 -8 -17 -34 3 -17 6 -34
6 -39 0 -5 9 -9 20 -9 11 0 20 -6 20 -13 0 -19 -21 -37 -42 -37 -10 0 -18 -5
-18 -10 0 -21 29 -21 71 1 28 14 44 18 47 10 8 -23 23 -10 20 16 -3 30 -38 47
-38 19 0 -9 -4 -16 -10 -16 -5 0 -10 9 -10 20 0 13 7 20 19 20 21 0 47 51 37
75 -3 10 -15 15 -28 13 -19 -3 -22 2 -22 32 -1 24 -6 36 -18 38 -14 3 -17 -4
-15 -40z m3 -95 c-11 -11 -19 6 -11 24 8 17 8 17 12 0 3 -10 2 -21 -1 -24z
m44 23 c0 -8 -4 -18 -10 -21 -5 -3 -10 3 -10 14 0 12 5 21 10 21 6 0 10 -6 10
-14z"/>
<path d="M700 2640 c0 -5 5 -10 10 -10 6 0 10 5 10 10 0 6 -4 10 -10 10 -5 0
-10 -4 -10 -10z"/>
<path d="M670 2610 c0 -5 16 -10 35 -10 19 0 35 5 35 10 0 6 -16 10 -35 10
-19 0 -35 -4 -35 -10z"/>
<path d="M690 2580 c0 -5 14 -10 30 -10 17 0 30 5 30 10 0 6 -13 10 -30 10
-16 0 -30 -4 -30 -10z"/>
<path d="M698 2553 c-29 -4 -39 -23 -13 -23 8 0 15 -9 15 -20 0 -39 15 -25 48
43 4 7 -2 7 -50 0z"/>
<path d="M763 2213 c-45 -6 -42 -23 5 -24 30 -2 32 -3 10 -6 -34 -5 -37 -23
-5 -24 16 -1 18 -2 5 -6 -29 -7 -20 -23 12 -23 20 0 30 5 30 15 0 9 9 15 25
15 14 0 25 2 25 4 0 13 -49 56 -61 54 -8 0 -29 -3 -46 -5z"/>
<path d="M573 2168 c2 -38 -1 -43 -22 -46 -20 -3 -22 -8 -17 -34 3 -17 6 -34
6 -39 0 -5 9 -9 20 -9 11 0 20 -6 20 -13 0 -19 -21 -37 -42 -37 -10 0 -18 -5
-18 -10 0 -21 29 -21 71 1 28 14 44 18 47 10 6 -19 22 -12 22 9 0 14 7 20 23
20 28 1 61 25 52 40 -4 6 -1 18 6 26 17 20 9 24 -34 17 -36 -5 -52 -23 -22
-23 8 0 15 -6 15 -14 0 -16 -35 -31 -62 -27 -11 1 -18 -4 -18 -13 0 -9 -4 -16
-10 -16 -5 0 -10 9 -10 20 0 13 7 20 19 20 21 0 47 51 37 75 -3 10 -15 15 -28
13 -19 -3 -22 2 -22 32 -1 24 -6 36 -18 38 -14 3 -17 -4 -15 -40z m3 -95 c-11
-11 -19 6 -11 24 8 17 8 17 12 0 3 -10 2 -21 -1 -24z m44 23 c0 -8 -4 -18 -10
-21 -5 -3 -10 3 -10 14 0 12 5 21 10 21 6 0 10 -6 10 -14z"/>
<path d="M700 2190 c0 -5 5 -10 10 -10 6 0 10 5 10 10 0 6 -4 10 -10 10 -5 0
-10 -4 -10 -10z"/>
<path d="M670 2160 c0 -5 16 -10 35 -10 19 0 35 5 35 10 0 6 -16 10 -35 10
-19 0 -35 -4 -35 -10z"/>
<path d="M690 2130 c0 -5 14 -10 30 -10 17 0 30 5 30 10 0 6 -13 10 -30 10
-16 0 -30 -4 -30 -10z"/>
<path d="M763 1763 c-45 -6 -42 -23 5 -24 30 -2 32 -3 10 -6 -34 -5 -37 -23
-5 -24 16 -1 18 -2 5 -6 -29 -7 -20 -23 12 -23 20 0 30 5 30 15 0 9 9 15 25
15 14 0 25 2 25 4 0 13 -49 56 -61 54 -8 0 -29 -3 -46 -5z"/>
<path d="M573 1718 c2 -38 -1 -43 -22 -46 -20 -3 -22 -8 -17 -34 3 -17 6 -34
6 -39 0 -5 9 -9 20 -9 11 0 20 -6 20 -13 0 -19 -21 -37 -42 -37 -10 0 -18 -5
-18 -10 0 -21 29 -21 71 1 28 14 44 18 47 10 6 -19 22 -12 22 9 0 14 7 20 23
20 28 1 61 25 52 40 -4 6 -1 18 6 26 17 20 9 24 -34 17 -36 -5 -52 -23 -22
-23 8 0 15 -6 15 -14 0 -16 -35 -31 -62 -27 -11 1 -18 -4 -18 -13 0 -9 -4 -16
-10 -16 -5 0 -10 9 -10 20 0 13 7 20 19 20 21 0 47 51 37 75 -3 10 -15 15 -28
13 -19 -3 -22 2 -22 32 -1 24 -6 36 -18 38 -14 3 -17 -4 -15 -40z m3 -95 c-11
-11 -19 6 -11 24 8 17 8 17 12 0 3 -10 2 -21 -1 -24z m44 23 c0 -8 -4 -18 -10
-21 -5 -3 -10 3 -10 14 0 12 5 21 10 21 6 0 10 -6 10 -14z"/>
<path d="M700 1740 c0 -5 5 -10 10 -10 6 0 10 5 10 10 0 6 -4 10 -10 10 -5 0
-10 -4 -10 -10z"/>
<path d="M670 1710 c0 -5 16 -10 35 -10 19 0 35 5 35 10 0 6 -16 10 -35 10
-19 0 -35 -4 -35 -10z"/>
<path d="M690 1680 c0 -5 14 -10 30 -10 17 0 30 5 30 10 0 6 -13 10 -30 10
-16 0 -30 -4 -30 -10z"/>
<path d="M763 1656 c4 -10 7 -24 7 -32 0 -8 5 -14 11 -14 15 0 6 53 -10 58
-10 3 -12 0 -8 -12z"/>
<path d="M763 1313 c-45 -6 -42 -23 5 -24 30 -2 32 -3 10 -6 -34 -5 -37 -23
-5 -24 16 -1 18 -2 5 -6 -29 -7 -20 -23 12 -23 20 0 30 5 30 15 0 9 9 15 25
15 14 0 25 2 25 4 0 13 -49 56 -61 54 -8 0 -29 -3 -46 -5z"/>
<path d="M573 1268 c2 -38 -1 -43 -22 -46 -20 -3 -22 -8 -17 -34 3 -17 6 -34
6 -39 0 -5 9 -9 20 -9 11 0 20 -6 20 -13 0 -19 -21 -37 -42 -37 -10 0 -18 -5
-18 -10 0 -21 29 -21 71 1 28 14 44 18 47 10 6 -19 22 -12 22 9 0 14 7 20 23
20 28 1 61 25 52 40 -4 6 -1 18 6 26 17 20 9 24 -34 17 -36 -5 -52 -23 -22
-23 8 0 15 -6 15 -14 0 -16 -35 -31 -62 -27 -11 1 -18 -4 -18 -13 0 -9 -4 -16
-10 -16 -5 0 -10 9 -10 20 0 13 7 20 19 20 21 0 47 51 37 75 -3 10 -15 15 -28
13 -19 -3 -22 2 -22 32 -1 24 -6 36 -18 38 -14 3 -17 -4 -15 -40z m3 -95 c-11
-11 -19 6 -11 24 8 17 8 17 12 0 3 -10 2 -21 -1 -24z m44 23 c0 -8 -4 -18 -10
-21 -5 -3 -10 3 -10 14 0 12 5 21 10 21 6 0 10 -6 10 -14z"/>
<path d="M700 1290 c0 -5 5 -10 10 -10 6 0 10 5 10 10 0 6 -4 10 -10 10 -5 0
-10 -4 -10 -10z"/>
<path d="M670 1260 c0 -5 16 -10 35 -10 19 0 35 5 35 10 0 6 -16 10 -35 10
-19 0 -35 -4 -35 -10z"/>
<path d="M690 1230 c0 -5 14 -10 30 -10 17 0 30 5 30 10 0 6 -13 10 -30 10
-16 0 -30 -4 -30 -10z"/>
<path d="M805 1221 c-11 -5 -26 -6 -34 -3 -10 4 -13 1 -8 -12 4 -10 7 -24 7
-32 0 -8 5 -14 10 -14 6 0 10 9 10 20 0 11 7 20 15 20 8 0 15 -7 15 -15 0 -23
28 -18 35 6 5 14 2 25 -6 30 -16 10 -18 10 -44 0z"/>
<path d="M763 863 c-45 -6 -42 -23 5 -24 30 -2 32 -3 10 -6 -34 -5 -37 -23 -5
-24 16 -1 18 -2 5 -6 -29 -7 -20 -23 12 -23 20 0 30 5 30 15 0 9 9 15 25 15
14 0 25 2 25 4 0 13 -49 56 -61 54 -8 0 -29 -3 -46 -5z"/>
<path d="M573 818 c2 -38 -1 -43 -22 -46 -20 -3 -22 -8 -17 -34 3 -17 6 -34 6
-39 0 -5 9 -9 20 -9 11 0 20 -6 20 -13 0 -19 -21 -37 -42 -37 -10 0 -18 -5
-18 -10 0 -21 29 -21 71 1 28 14 44 18 47 10 6 -19 22 -12 22 9 0 14 7 20 23
20 28 1 61 25 52 40 -4 6 -1 18 6 26 17 20 9 24 -34 17 -36 -5 -52 -23 -22
-23 8 0 15 -6 15 -14 0 -16 -35 -31 -62 -27 -11 1 -18 -4 -18 -13 0 -9 -4 -16
-10 -16 -5 0 -10 9 -10 20 0 13 7 20 19 20 21 0 47 51 37 75 -3 10 -15 15 -28
13 -19 -3 -22 2 -22 32 -1 24 -6 36 -18 38 -14 3 -17 -4 -15 -40z m3 -95 c-11
-11 -19 6 -11 24 8 17 8 17 12 0 3 -10 2 -21 -1 -24z m44 23 c0 -8 -4 -18 -10
-21 -5 -3 -10 3 -10 14 0 12 5 21 10 21 6 0 10 -6 10 -14z"/>
<path d="M700 840 c0 -5 5 -10 10 -10 6 0 10 5 10 10 0 6 -4 10 -10 10 -5 0
-10 -4 -10 -10z"/>
<path d="M670 810 c0 -5 16 -10 35 -10 19 0 35 5 35 10 0 6 -16 10 -35 10 -19
0 -35 -4 -35 -10z"/>
<path d="M690 780 c0 -5 14 -10 30 -10 17 0 30 5 30 10 0 6 -13 10 -30 10 -16
0 -30 -4 -30 -10z"/>
<path d="M805 771 c-11 -5 -26 -6 -33 -3 -10 3 -11 -3 -6 -24 9 -41 18 -47 52
-39 34 7 54 51 30 66 -15 10 -17 10 -43 0z m13 -33 c-6 -18 -28 -21 -28 -4 0
9 7 16 16 16 9 0 14 -5 12 -12z"/>
<path d="M763 413 c-45 -6 -42 -23 5 -24 30 -2 32 -3 10 -6 -34 -5 -37 -23 -5
-24 16 -1 18 -2 5 -6 -29 -7 -20 -23 12 -23 20 0 30 5 30 15 0 9 9 15 25 15
14 0 25 2 25 4 0 13 -49 56 -61 54 -8 0 -29 -3 -46 -5z"/>
<path d="M573 368 c2 -38 -1 -43 -22 -46 -20 -3 -22 -8 -17 -34 3 -17 6 -34 6
-39 0 -5 9 -9 20 -9 11 0 20 -6 20 -13 0 -19 -21 -37 -42 -37 -10 0 -18 -5
-18 -10 0 -21 29 -21 71 1 28 14 44 18 47 10 6 -19 22 -12 22 9 0 14 7 20 23
20 28 1 61 25 52 40 -4 6 -1 18 6 26 17 20 9 24 -34 17 -36 -5 -52 -23 -22
-23 8 0 15 -6 15 -14 0 -16 -35 -31 -62 -27 -11 1 -18 -4 -18 -13 0 -9 -4 -16
-10 -16 -5 0 -10 9 -10 20 0 13 7 20 19 20 21 0 47 51 37 75 -3 10 -15 15 -28
13 -19 -3 -22 2 -22 32 -1 24 -6 36 -18 38 -14 3 -17 -4 -15 -40z m3 -95 c-11
-11 -19 6 -11 24 8 17 8 17 12 0 3 -10 2 -21 -1 -24z m44 23 c0 -8 -4 -18 -10
-21 -5 -3 -10 3 -10 14 0 12 5 21 10 21 6 0 10 -6 10 -14z"/>
<path d="M700 390 c0 -5 5 -10 10 -10 6 0 10 5 10 10 0 6 -4 10 -10 10 -5 0
-10 -4 -10 -10z"/>
<path d="M670 360 c0 -5 16 -10 35 -10 19 0 35 5 35 10 0 6 -16 10 -35 10 -19
0 -35 -4 -35 -10z"/>
<path d="M690 330 c0 -5 14 -10 30 -10 17 0 30 5 30 10 0 6 -13 10 -30 10 -16
0 -30 -4 -30 -10z"/>
<path d="M805 321 c-11 -5 -26 -6 -33 -3 -10 3 -11 -3 -6 -24 9 -41 18 -47 52
-39 34 7 54 51 30 66 -15 10 -17 10 -43 0z m13 -33 c-6 -18 -28 -21 -28 -4 0
9 7 16 16 16 9 0 14 -5 12 -12z"/>
<path d="M762 217 c-60 -6 -91 -14 -89 -21 2 -6 15 -10 28 -9 132 10 189 17
189 23 0 7 -29 23 -33 18 -1 0 -44 -6 -95 -11z"/>
</g>
</svg>
