<?xml version="1.0" standalone="no"?>
<!DOCTYPE svg PUBLIC "-//W3C//DTD SVG 20010904//EN"
 "http://www.w3.org/TR/2001/REC-SVG-20010904/DTD/svg10.dtd">
<svg version="1.0" xmlns="http://www.w3.org/2000/svg"
 width="95.000000pt" height="725.000000pt" viewBox="0 0 95.000000 725.000000"
 preserveAspectRatio="xMidYMid meet">
<metadata>
Created by potrace 1.16, written by Peter Selinger 2001-2019
</metadata>
<g transform="translate(0.000000,725.000000) scale(0.100000,-0.100000)"
fill="#000000" stroke="none">
<path d="M223 7166 c7 -17 -13 -26 -54 -26 -16 0 -29 -5 -29 -11 0 -8 15 -10
46 -6 32 3 42 2 33 -5 -11 -7 -11 -11 -1 -15 17 -7 15 -23 -3 -23 -8 0 -15 7
-15 15 0 8 -5 15 -11 15 -21 0 -4 -45 19 -48 12 -2 22 -7 22 -12 0 -5 15 -11
33 -13 28 -3 27 -4 -10 -5 -23 -1 -44 -6 -47 -11 -3 -4 -17 -6 -31 -3 -15 2
-25 0 -25 -7 0 -6 8 -11 18 -11 14 0 12 -4 -8 -20 -29 -22 -22 -37 9 -20 17 9
22 8 28 -6 5 -13 15 -15 51 -10 25 3 49 12 54 19 17 27 8 37 -34 38 -44 1 -41
3 25 14 28 4 37 11 37 25 0 16 -8 20 -37 22 -37 1 -37 1 -5 5 31 4 36 12 35
51 -1 6 6 12 14 12 8 0 13 6 10 13 -2 7 -20 11 -43 11 -24 -1 -42 3 -47 12
-11 19 -41 18 -34 0z m61 -52 c8 -22 8 -24 -7 -24 -7 0 -13 9 -13 20 0 24 11
26 20 4z m-15 -145 c-21 -13 -49 -11 -49 4 0 9 10 12 31 9 22 -3 27 -7 18 -13z"/>
<path d="M668 7148 c-43 -6 -78 -15 -78 -21 0 -6 19 -7 53 -3 28 3 76 6 105 6
38 0 52 4 50 13 -6 16 -35 17 -130 5z"/>
<path d="M350 7060 c0 -5 4 -10 10 -10 5 0 7 -7 4 -15 -7 -17 22 -21 45 -6 12
8 12 12 2 25 -15 18 -61 22 -61 6z"/>
<path d="M106 7034 c-9 -24 -7 -44 5 -44 6 0 13 9 16 20 4 16 14 20 44 20 22
0 39 5 39 10 0 6 -22 10 -49 10 -35 0 -51 -4 -55 -16z"/>
<path d="M157 6938 c-2 -7 -2 -28 1 -47 5 -36 -7 -51 -45 -51 -24 0 -31 -14
-13 -25 12 -8 120 26 120 37 0 4 -10 9 -22 9 -21 1 -21 2 -3 6 43 11 60 63 20
63 -14 0 -25 5 -25 10 0 14 -27 12 -33 -2z m43 -38 c0 -5 -4 -10 -10 -10 -5 0
-10 5 -10 10 0 6 5 10 10 10 6 0 10 -4 10 -10z"/>
<path d="M116 6893 c9 -35 12 -39 24 -27 13 13 1 54 -16 54 -11 0 -13 -7 -8
-27z"/>
<path d="M223 6716 c7 -17 -13 -26 -54 -26 -16 0 -29 -5 -29 -11 0 -8 15 -10
46 -6 32 3 42 2 33 -5 -11 -7 -11 -11 -1 -15 17 -7 15 -23 -3 -23 -8 0 -15 7
-15 15 0 8 -5 15 -11 15 -21 0 -4 -45 19 -48 12 -2 22 -7 22 -12 0 -5 15 -11
33 -13 28 -3 27 -4 -10 -5 -23 -1 -44 -6 -47 -11 -3 -4 -17 -6 -31 -3 -15 2
-25 0 -25 -7 0 -6 8 -11 18 -11 14 0 12 -4 -8 -20 -29 -22 -22 -37 9 -20 17 9
22 8 28 -6 5 -13 15 -15 51 -10 25 3 49 12 54 19 17 27 8 37 -34 38 -44 1 -41
3 25 14 28 4 37 11 37 25 0 16 -8 20 -37 22 -37 1 -37 1 -5 5 31 4 36 12 35
51 -1 6 6 12 14 12 8 0 13 6 10 13 -2 7 -20 11 -43 11 -24 -1 -42 3 -47 12
-11 19 -41 18 -34 0z m61 -52 c8 -22 8 -24 -7 -24 -7 0 -13 9 -13 20 0 24 11
26 20 4z m-15 -145 c-21 -13 -49 -11 -49 4 0 9 10 12 31 9 22 -3 27 -7 18 -13z"/>
<path d="M668 6698 c-43 -6 -78 -15 -78 -21 0 -6 19 -7 53 -3 28 3 76 6 105 6
38 0 52 4 50 13 -6 16 -35 17 -130 5z"/>
<path d="M630 6640 c0 -11 5 -20 10 -20 6 0 10 9 10 20 0 11 -4 20 -10 20 -5
0 -10 -9 -10 -20z"/>
<path d="M350 6610 c0 -5 4 -10 10 -10 5 0 7 -7 4 -15 -7 -17 22 -21 45 -6 12
8 12 12 2 25 -15 18 -61 22 -61 6z"/>
<path d="M106 6584 c-9 -24 -7 -44 5 -44 6 0 13 9 16 20 4 16 14 20 44 20 22
0 39 5 39 10 0 6 -22 10 -49 10 -35 0 -51 -4 -55 -16z"/>
<path d="M157 6488 c-2 -7 -2 -28 1 -47 5 -36 -7 -51 -45 -51 -13 0 -23 -4
-23 -9 0 -20 22 -22 72 -5 37 12 53 14 56 5 2 -6 8 -11 13 -11 13 0 11 34 -3
48 -9 9 -9 15 0 24 20 20 14 38 -13 38 -14 0 -25 5 -25 10 0 14 -27 12 -33 -2z
m43 -38 c0 -5 -4 -10 -10 -10 -5 0 -10 5 -10 10 0 6 5 10 10 10 6 0 10 -4 10
-10z m7 -36 c-3 -3 -12 -4 -19 -1 -8 3 -5 6 6 6 11 1 17 -2 13 -5z"/>
<path d="M116 6443 c9 -35 12 -39 24 -27 13 13 1 54 -16 54 -11 0 -13 -7 -8
-27z"/>
<path d="M223 6266 c7 -17 -13 -26 -54 -26 -16 0 -29 -5 -29 -11 0 -8 15 -10
46 -6 32 3 42 2 33 -5 -11 -7 -11 -11 -1 -15 17 -7 15 -23 -3 -23 -8 0 -15 7
-15 15 0 8 -5 15 -11 15 -21 0 -4 -45 19 -48 12 -2 22 -7 22 -12 0 -5 15 -11
33 -13 28 -3 27 -4 -10 -5 -23 -1 -44 -6 -47 -11 -3 -4 -17 -6 -31 -3 -15 2
-25 0 -25 -7 0 -6 8 -11 18 -11 14 0 12 -4 -8 -20 -29 -22 -22 -37 9 -20 17 9
22 8 28 -6 5 -13 15 -15 51 -10 25 3 49 12 54 19 17 27 8 37 -34 38 -44 1 -41
3 25 14 28 4 37 11 37 25 0 16 -8 20 -37 22 -37 1 -37 1 -5 5 31 4 36 12 35
51 -1 6 6 12 14 12 8 0 13 6 10 13 -2 7 -20 11 -43 11 -24 -1 -42 3 -47 12
-11 19 -41 18 -34 0z m61 -52 c8 -22 8 -24 -7 -24 -7 0 -13 9 -13 20 0 24 11
26 20 4z m-15 -145 c-21 -13 -49 -11 -49 4 0 9 10 12 31 9 22 -3 27 -7 18 -13z"/>
<path d="M668 6248 c-99 -13 -106 -33 -8 -23 69 7 69 7 76 -19 3 -14 12 -26
19 -26 15 0 28 27 19 41 -3 5 2 9 11 9 26 0 11 25 -16 26 -13 1 -59 -3 -101
-8z"/>
<path d="M660 6210 c0 -5 14 -10 30 -10 17 0 30 5 30 10 0 6 -13 10 -30 10
-16 0 -30 -4 -30 -10z"/>
<path d="M630 6190 c0 -11 5 -20 10 -20 6 0 10 9 10 20 0 11 -4 20 -10 20 -5
0 -10 -9 -10 -20z"/>
<path d="M350 6160 c0 -5 4 -10 10 -10 5 0 7 -7 4 -15 -7 -17 22 -21 45 -6 12
8 12 12 2 25 -15 18 -61 22 -61 6z"/>
<path d="M106 6134 c-9 -24 -7 -44 5 -44 6 0 13 9 16 20 4 16 14 20 44 20 22
0 39 5 39 10 0 6 -22 10 -49 10 -35 0 -51 -4 -55 -16z"/>
<path d="M157 6038 c-2 -7 -2 -28 1 -47 5 -36 -7 -51 -45 -51 -13 0 -23 -4
-23 -9 0 -20 22 -22 72 -5 37 12 53 14 56 5 2 -6 8 -11 13 -11 13 0 11 34 -3
48 -9 9 -9 15 0 24 20 20 14 38 -13 38 -14 0 -25 5 -25 10 0 14 -27 12 -33 -2z
m43 -38 c0 -5 -4 -10 -10 -10 -5 0 -10 5 -10 10 0 6 5 10 10 10 6 0 10 -4 10
-10z m7 -36 c-3 -3 -12 -4 -19 -1 -8 3 -5 6 6 6 11 1 17 -2 13 -5z"/>
<path d="M254 6014 c3 -9 6 -22 6 -30 0 -8 5 -14 10 -14 6 0 10 14 10 30 0 21
-5 30 -16 30 -11 0 -14 -5 -10 -16z"/>
<path d="M116 5993 c9 -35 12 -39 24 -27 13 13 1 54 -16 54 -11 0 -13 -7 -8
-27z"/>
<path d="M223 5816 c7 -17 -13 -26 -54 -26 -16 0 -29 -5 -29 -11 0 -8 15 -10
46 -6 32 3 42 2 33 -5 -11 -7 -11 -11 -1 -15 17 -7 15 -23 -3 -23 -8 0 -15 7
-15 15 0 8 -5 15 -11 15 -21 0 -4 -45 19 -48 12 -2 22 -7 22 -12 0 -5 15 -11
33 -13 28 -3 27 -4 -10 -5 -23 -1 -44 -6 -47 -11 -3 -4 -17 -6 -31 -3 -15 2
-25 0 -25 -7 0 -6 8 -11 18 -11 14 0 12 -4 -8 -20 -29 -22 -22 -37 9 -20 17 9
22 8 28 -6 5 -13 15 -15 51 -10 25 3 49 12 54 19 17 27 8 37 -34 38 -44 1 -41
3 25 14 28 4 37 11 37 25 0 16 -8 20 -37 22 -37 1 -37 1 -5 5 31 4 36 12 35
51 -1 6 6 12 14 12 8 0 13 6 10 13 -2 7 -20 11 -43 11 -24 -1 -42 3 -47 12
-11 19 -41 18 -34 0z m61 -52 c8 -22 8 -24 -7 -24 -7 0 -13 9 -13 20 0 24 11
26 20 4z m-15 -145 c-21 -13 -49 -11 -49 4 0 9 10 12 31 9 22 -3 27 -7 18 -13z"/>
<path d="M668 5798 c-97 -13 -107 -33 -12 -23 51 5 69 4 75 -7 14 -22 10 -28
-16 -28 -14 0 -25 -4 -25 -10 0 -5 18 -10 40 -10 40 0 44 5 43 48 -1 6 6 12
14 12 25 0 8 25 -18 26 -13 1 -59 -3 -101 -8z"/>
<path d="M660 5760 c0 -5 14 -10 30 -10 17 0 30 5 30 10 0 6 -13 10 -30 10
-16 0 -30 -4 -30 -10z"/>
<path d="M632 5738 c3 -23 48 -40 48 -19 0 6 -7 11 -15 11 -8 0 -15 7 -15 15
0 8 -5 15 -11 15 -6 0 -9 -10 -7 -22z"/>
<path d="M350 5710 c0 -5 4 -10 10 -10 5 0 7 -7 4 -15 -7 -17 22 -21 45 -6 12
8 12 12 2 25 -15 18 -61 22 -61 6z"/>
<path d="M106 5684 c-9 -24 -7 -44 5 -44 6 0 13 9 16 20 4 16 14 20 44 20 22
0 39 5 39 10 0 6 -22 10 -49 10 -35 0 -51 -4 -55 -16z"/>
<path d="M157 5588 c-2 -7 -2 -28 1 -47 5 -36 -7 -51 -45 -51 -13 0 -23 -4
-23 -9 0 -20 22 -22 72 -5 37 12 53 14 56 5 2 -6 8 -11 13 -11 13 0 11 34 -3
48 -9 9 -9 15 0 24 20 20 14 38 -13 38 -14 0 -25 5 -25 10 0 14 -27 12 -33 -2z
m43 -38 c0 -5 -4 -10 -10 -10 -5 0 -10 5 -10 10 0 6 5 10 10 10 6 0 10 -4 10
-10z m7 -36 c-3 -3 -12 -4 -19 -1 -8 3 -5 6 6 6 11 1 17 -2 13 -5z"/>
<path d="M290 5580 c0 -5 14 -10 30 -10 20 0 30 -5 30 -15 0 -18 12 -19 28 -3
26 26 13 38 -38 38 -27 0 -50 -4 -50 -10z"/>
<path d="M254 5564 c3 -9 6 -22 6 -30 0 -8 5 -14 10 -14 6 0 10 14 10 30 0 21
-5 30 -16 30 -11 0 -14 -5 -10 -16z"/>
<path d="M116 5543 c9 -35 12 -39 24 -27 13 13 1 54 -16 54 -11 0 -13 -7 -8
-27z"/>
<path d="M223 5366 c7 -17 -13 -26 -54 -26 -16 0 -29 -5 -29 -11 0 -8 15 -10
46 -6 32 3 42 2 33 -5 -11 -7 -11 -11 -1 -15 17 -7 15 -23 -3 -23 -8 0 -15 7
-15 15 0 8 -5 15 -11 15 -21 0 -4 -45 19 -48 12 -2 22 -7 22 -12 0 -5 15 -11
33 -13 28 -3 27 -4 -10 -5 -23 -1 -44 -6 -47 -11 -3 -4 -17 -6 -31 -3 -15 2
-25 0 -25 -7 0 -6 8 -11 18 -11 14 0 12 -4 -8 -20 -29 -22 -22 -37 9 -20 17 9
22 8 28 -6 5 -13 15 -15 51 -10 25 3 49 12 54 19 17 27 8 37 -34 38 -44 1 -41
3 25 14 28 4 37 11 37 25 0 16 -8 20 -37 22 -37 1 -37 1 -5 5 31 4 36 12 35
51 -1 6 6 12 14 12 8 0 13 6 10 13 -2 7 -20 11 -43 11 -24 -1 -42 3 -47 12
-11 19 -41 18 -34 0z m61 -52 c8 -22 8 -24 -7 -24 -7 0 -13 9 -13 20 0 24 11
26 20 4z m-15 -145 c-21 -13 -49 -11 -49 4 0 9 10 12 31 9 22 -3 27 -7 18 -13z"/>
<path d="M673 5366 c7 -17 -13 -26 -54 -26 -16 0 -29 -5 -29 -11 0 -8 15 -10
46 -6 32 3 42 2 33 -5 -11 -7 -11 -11 -1 -15 17 -7 15 -23 -3 -23 -8 0 -15 7
-15 15 0 8 -5 15 -11 15 -6 0 -9 -10 -7 -22 2 -15 13 -24 38 -31 23 -6 36 -5
38 2 2 6 17 11 33 11 28 0 33 8 32 48 -1 6 6 12 14 12 8 0 13 6 10 13 -2 7
-20 11 -43 11 -24 -1 -42 3 -47 12 -11 19 -41 18 -34 0z m61 -52 c8 -22 8 -24
-7 -24 -7 0 -13 9 -13 20 0 24 11 26 20 4z"/>
<path d="M350 5260 c0 -5 4 -10 10 -10 5 0 7 -7 4 -15 -7 -17 22 -21 45 -6 12
8 12 12 2 25 -15 18 -61 22 -61 6z"/>
<path d="M106 5234 c-9 -24 -7 -44 5 -44 6 0 13 9 16 20 4 16 14 20 44 20 22
0 39 5 39 10 0 6 -22 10 -49 10 -35 0 -51 -4 -55 -16z"/>
<path d="M157 5138 c-2 -7 -2 -28 1 -47 5 -36 -7 -51 -45 -51 -13 0 -23 -4
-23 -9 0 -20 22 -22 72 -5 37 12 53 14 56 5 2 -6 8 -11 13 -11 13 0 11 34 -3
48 -9 9 -9 15 0 24 20 20 14 38 -13 38 -14 0 -25 5 -25 10 0 14 -27 12 -33 -2z
m43 -38 c0 -5 -4 -10 -10 -10 -5 0 -10 5 -10 10 0 6 5 10 10 10 6 0 10 -4 10
-10z m7 -36 c-3 -3 -12 -4 -19 -1 -8 3 -5 6 6 6 11 1 17 -2 13 -5z"/>
<path d="M290 5130 c0 -5 14 -10 30 -10 17 0 30 -4 30 -10 0 -5 -4 -10 -10
-10 -5 0 -10 -4 -10 -10 0 -16 32 -11 46 8 25 32 17 42 -36 42 -27 0 -50 -4
-50 -10z"/>
<path d="M254 5114 c3 -9 6 -22 6 -30 0 -9 11 -14 30 -14 17 0 30 5 30 10 0 6
-9 10 -20 10 -13 0 -20 7 -20 20 0 12 -7 20 -16 20 -11 0 -14 -5 -10 -16z"/>
<path d="M116 5093 c9 -35 12 -39 24 -27 13 13 1 54 -16 54 -11 0 -13 -7 -8
-27z"/>
<path d="M223 4916 c7 -17 -13 -26 -54 -26 -16 0 -29 -5 -29 -11 0 -8 15 -10
46 -6 32 3 42 2 33 -5 -11 -7 -11 -11 -1 -15 17 -7 15 -23 -3 -23 -8 0 -15 7
-15 15 0 8 -5 15 -11 15 -21 0 -4 -45 19 -48 12 -2 22 -7 22 -12 0 -5 15 -11
33 -13 28 -3 27 -4 -10 -5 -23 -1 -44 -6 -47 -11 -3 -4 -17 -6 -31 -3 -15 2
-25 0 -25 -7 0 -6 8 -11 18 -11 14 0 12 -4 -8 -20 -29 -22 -22 -37 9 -20 17 9
22 8 28 -6 5 -13 15 -15 52 -10 45 6 46 6 48 -24 1 -17 -2 -30 -7 -30 -6 0
-10 9 -10 20 0 12 -7 20 -16 20 -11 0 -14 -5 -10 -16 3 -9 6 -22 6 -30 0 -8 9
-14 20 -14 11 0 20 -7 20 -15 0 -8 7 -15 15 -15 8 0 15 9 15 20 0 12 7 20 16
20 18 0 43 27 44 48 0 7 -12 12 -29 12 -23 0 -32 7 -43 30 -11 26 -19 30 -53
31 -41 1 -37 3 28 14 28 4 37 11 37 25 0 16 -8 20 -37 22 -37 1 -37 1 -5 5 31
4 36 12 35 51 -1 6 6 12 14 12 8 0 13 6 10 13 -2 7 -20 11 -43 11 -24 -1 -42
3 -47 12 -11 19 -41 18 -34 0z m61 -52 c8 -22 8 -24 -7 -24 -7 0 -13 9 -13 20
0 24 11 26 20 4z m-15 -145 c-21 -13 -49 -11 -49 4 0 9 10 12 31 9 22 -3 27
-7 18 -13z m81 -59 c0 -5 -4 -10 -10 -10 -5 0 -10 5 -10 10 0 6 5 10 10 10 6
0 10 -4 10 -10z"/>
<path d="M673 4916 c7 -17 -13 -26 -54 -26 -16 0 -29 -5 -29 -11 0 -8 15 -10
46 -6 32 3 42 2 33 -5 -11 -7 -11 -11 -1 -15 17 -7 15 -23 -3 -23 -8 0 -15 7
-15 15 0 8 -5 15 -11 15 -6 0 -9 -10 -7 -22 2 -15 13 -24 38 -31 23 -6 36 -5
38 2 2 6 17 11 33 11 28 0 33 8 32 48 -1 6 6 12 14 12 8 0 13 6 10 13 -2 7
-20 11 -43 11 -24 -1 -42 3 -47 12 -11 19 -41 18 -34 0z m61 -52 c8 -22 8 -24
-7 -24 -7 0 -13 9 -13 20 0 24 11 26 20 4z"/>
<path d="M350 4810 c0 -5 4 -10 10 -10 5 0 7 -7 4 -15 -7 -17 22 -21 45 -6 12
8 12 12 2 25 -15 18 -61 22 -61 6z"/>
<path d="M106 4784 c-9 -24 -7 -44 5 -44 6 0 13 9 16 20 4 16 14 20 44 20 22
0 39 5 39 10 0 6 -22 10 -49 10 -35 0 -51 -4 -55 -16z"/>
<path d="M554 4775 c-7 -29 -1 -41 15 -30 14 8 14 55 1 55 -5 0 -12 -11 -16
-25z"/>
<path d="M157 4688 c-2 -7 -2 -28 1 -47 5 -36 -7 -51 -45 -51 -13 0 -23 -4
-23 -9 0 -20 22 -22 72 -5 37 12 53 14 56 5 2 -6 8 -11 13 -11 13 0 11 34 -3
48 -9 9 -9 15 0 24 20 20 14 38 -13 38 -14 0 -25 5 -25 10 0 14 -27 12 -33 -2z
m43 -38 c0 -5 -4 -10 -10 -10 -5 0 -10 5 -10 10 0 6 5 10 10 10 6 0 10 -4 10
-10z m7 -36 c-3 -3 -12 -4 -19 -1 -8 3 -5 6 6 6 11 1 17 -2 13 -5z"/>
<path d="M116 4643 c9 -35 12 -39 24 -27 13 13 1 54 -16 54 -11 0 -13 -7 -8
-27z"/>
<path d="M223 4466 c7 -17 -13 -26 -54 -26 -16 0 -29 -5 -29 -11 0 -8 15 -10
46 -6 32 3 42 2 33 -5 -11 -7 -11 -11 -1 -15 17 -7 15 -23 -3 -23 -8 0 -15 7
-15 15 0 8 -5 15 -11 15 -21 0 -4 -45 19 -48 12 -2 22 -7 22 -12 0 -5 15 -11
33 -13 28 -3 27 -4 -10 -5 -23 -1 -44 -6 -47 -11 -3 -4 -17 -6 -31 -3 -15 2
-25 0 -25 -7 0 -6 8 -11 18 -11 14 0 12 -4 -8 -20 -29 -22 -22 -37 9 -20 17 9
22 8 28 -6 5 -13 15 -15 52 -10 45 6 46 6 48 -24 1 -17 -2 -30 -7 -30 -6 0
-10 9 -10 20 0 12 -7 20 -16 20 -11 0 -14 -5 -10 -16 3 -9 6 -22 6 -30 0 -8 9
-14 21 -14 27 0 19 -24 -9 -28 -24 -4 -31 -22 -8 -22 7 0 28 3 45 6 26 6 30
10 25 30 -5 18 -2 24 11 24 19 0 44 27 45 48 0 7 -12 12 -29 12 -23 0 -32 7
-43 30 -11 26 -19 30 -53 31 -41 1 -37 3 28 14 28 4 37 11 37 25 0 16 -8 20
-37 22 -37 1 -37 1 -5 5 31 4 36 12 35 51 -1 6 6 12 14 12 8 0 13 6 10 13 -2
7 -20 11 -43 11 -24 -1 -42 3 -47 12 -11 19 -41 18 -34 0z m61 -52 c8 -22 8
-24 -7 -24 -7 0 -13 9 -13 20 0 24 11 26 20 4z m-15 -145 c-21 -13 -49 -11
-49 4 0 9 10 12 31 9 22 -3 27 -7 18 -13z m81 -59 c0 -5 -4 -10 -10 -10 -5 0
-10 5 -10 10 0 6 5 10 10 10 6 0 10 -4 10 -10z"/>
<path d="M673 4466 c7 -17 -13 -26 -54 -26 -16 0 -29 -5 -29 -11 0 -8 15 -10
46 -6 32 3 42 2 33 -5 -11 -7 -11 -11 -1 -15 17 -7 15 -23 -3 -23 -8 0 -15 7
-15 15 0 8 -5 15 -11 15 -21 0 -4 -45 19 -48 12 -2 22 -8 22 -13 0 -5 23 -9
50 -9 58 0 69 19 13 22 -37 1 -37 1 -5 5 31 4 36 12 35 51 -1 6 6 12 14 12 8
0 13 6 10 13 -2 7 -20 11 -43 11 -24 -1 -42 3 -47 12 -11 19 -41 18 -34 0z
m61 -52 c8 -22 8 -24 -7 -24 -7 0 -13 9 -13 20 0 24 11 26 20 4z"/>
<path d="M350 4360 c0 -5 4 -10 10 -10 5 0 7 -7 4 -15 -7 -17 22 -21 45 -6 12
8 12 12 2 25 -15 18 -61 22 -61 6z"/>
<path d="M800 4360 c0 -5 4 -10 10 -10 5 0 7 -7 4 -15 -7 -17 22 -21 45 -6 12
8 12 12 2 25 -15 18 -61 22 -61 6z"/>
<path d="M106 4334 c-9 -24 -7 -44 5 -44 6 0 13 9 16 20 4 16 14 20 44 20 22
0 39 5 39 10 0 6 -22 10 -49 10 -35 0 -51 -4 -55 -16z"/>
<path d="M556 4334 c-9 -24 -7 -44 5 -44 6 0 13 9 16 20 4 16 14 20 44 20 22
0 39 5 39 10 0 6 -22 10 -49 10 -35 0 -51 -4 -55 -16z"/>
<path d="M157 4238 c-2 -7 -2 -28 1 -47 5 -36 -7 -51 -45 -51 -13 0 -23 -4
-23 -9 0 -20 22 -22 72 -5 37 12 53 14 56 5 2 -6 8 -11 13 -11 13 0 11 34 -3
48 -9 9 -9 15 0 24 20 20 14 38 -13 38 -14 0 -25 5 -25 10 0 14 -27 12 -33 -2z
m43 -38 c0 -5 -4 -10 -10 -10 -5 0 -10 5 -10 10 0 6 5 10 10 10 6 0 10 -4 10
-10z m7 -36 c-3 -3 -12 -4 -19 -1 -8 3 -5 6 6 6 11 1 17 -2 13 -5z"/>
<path d="M116 4193 c9 -35 12 -39 24 -27 13 13 1 54 -16 54 -11 0 -13 -7 -8
-27z"/>
<path d="M350 4150 c0 -5 5 -10 10 -10 6 0 10 5 10 10 0 6 -4 10 -10 10 -5 0
-10 -4 -10 -10z"/>
<path d="M223 4016 c7 -17 -13 -26 -54 -26 -16 0 -29 -5 -29 -11 0 -8 15 -10
46 -6 32 3 42 2 33 -5 -11 -7 -11 -11 -1 -15 17 -7 15 -23 -3 -23 -8 0 -15 7
-15 15 0 8 -5 15 -11 15 -21 0 -4 -45 19 -48 12 -2 22 -7 22 -12 0 -5 15 -11
33 -13 28 -3 27 -4 -10 -5 -23 -1 -44 -6 -47 -11 -3 -4 -17 -6 -31 -3 -15 2
-25 0 -25 -7 0 -6 8 -11 18 -11 14 0 12 -4 -8 -20 -29 -22 -22 -37 9 -20 17 9
22 8 28 -6 5 -13 15 -15 52 -10 45 6 46 6 48 -24 1 -17 -2 -30 -7 -30 -6 0
-10 9 -10 20 0 12 -7 20 -16 20 -11 0 -14 -5 -10 -16 3 -9 6 -22 6 -30 0 -8 9
-14 21 -14 27 0 19 -24 -9 -28 -24 -4 -31 -22 -8 -22 7 0 28 3 45 6 26 6 30
10 25 30 -5 18 -2 24 11 24 19 0 44 27 45 48 0 7 -12 12 -29 12 -23 0 -32 7
-43 30 -11 26 -19 30 -53 31 -41 1 -37 3 28 14 28 4 37 11 37 25 0 16 -8 20
-37 22 -37 1 -37 1 -5 5 31 4 36 12 35 51 -1 6 6 12 14 12 8 0 13 6 10 13 -2
7 -20 11 -43 11 -24 -1 -42 3 -47 12 -11 19 -41 18 -34 0z m61 -52 c8 -22 8
-24 -7 -24 -7 0 -13 9 -13 20 0 24 11 26 20 4z m-15 -145 c-21 -13 -49 -11
-49 4 0 9 10 12 31 9 22 -3 27 -7 18 -13z m81 -59 c0 -5 -4 -10 -10 -10 -5 0
-10 5 -10 10 0 6 5 10 10 10 6 0 10 -4 10 -10z"/>
<path d="M673 4016 c7 -17 -13 -26 -54 -26 -16 0 -29 -5 -29 -11 0 -8 15 -10
46 -6 32 3 42 2 33 -5 -11 -7 -11 -11 -1 -15 17 -7 15 -23 -3 -23 -8 0 -15 7
-15 15 0 8 -5 15 -11 15 -21 0 -4 -45 19 -48 12 -2 22 -7 22 -12 0 -5 15 -11
33 -13 28 -3 26 -4 -10 -5 -24 -1 -43 3 -43 8 0 6 -22 10 -49 10 -49 0 -61 -9
-61 -46 0 -21 21 -17 27 6 4 16 14 20 44 20 22 0 39 -4 39 -10 0 -11 62 -13
98 -4 13 4 22 14 22 25 0 15 -8 19 -37 21 -37 1 -37 1 -5 5 31 4 36 12 35 51
-1 6 6 12 14 12 8 0 13 6 10 13 -2 7 -20 11 -43 11 -24 -1 -42 3 -47 12 -11
19 -41 18 -34 0z m61 -52 c8 -22 8 -24 -7 -24 -7 0 -13 9 -13 20 0 24 11 26
20 4z"/>
<path d="M350 3910 c0 -5 4 -10 10 -10 5 0 7 -7 4 -15 -7 -17 22 -21 45 -6 12
8 12 12 2 25 -15 18 -61 22 -61 6z"/>
<path d="M800 3910 c0 -5 4 -10 10 -10 5 0 7 -7 4 -15 -7 -17 22 -21 45 -6 12
8 12 12 2 25 -15 18 -61 22 -61 6z"/>
<path d="M106 3884 c-9 -24 -7 -44 5 -44 6 0 13 9 16 20 4 16 14 20 44 20 22
0 39 5 39 10 0 6 -22 10 -49 10 -35 0 -51 -4 -55 -16z"/>
<path d="M600 3860 c0 -5 9 -10 20 -10 11 0 20 5 20 10 0 6 -9 10 -20 10 -11
0 -20 -4 -20 -10z"/>
<path d="M157 3788 c-2 -7 -2 -28 1 -47 5 -36 -7 -51 -45 -51 -13 0 -23 -4
-23 -9 0 -20 22 -22 72 -5 37 12 53 14 56 5 2 -6 8 -11 13 -11 13 0 11 34 -3
48 -9 9 -9 15 0 24 20 20 14 38 -13 38 -14 0 -25 5 -25 10 0 14 -27 12 -33 -2z
m43 -38 c0 -5 -4 -10 -10 -10 -5 0 -10 5 -10 10 0 6 5 10 10 10 6 0 10 -4 10
-10z m7 -36 c-3 -3 -12 -4 -19 -1 -8 3 -5 6 6 6 11 1 17 -2 13 -5z"/>
<path d="M116 3743 c9 -35 12 -39 24 -27 13 13 1 54 -16 54 -11 0 -13 -7 -8
-27z"/>
<path d="M355 3709 c-7 -10 21 -38 38 -39 11 0 8 25 -5 38 -15 15 -25 15 -33
1z"/>
<path d="M673 3566 c7 -17 -13 -26 -54 -26 -16 0 -29 -5 -29 -11 0 -8 15 -10
46 -6 32 3 42 2 33 -5 -11 -7 -11 -11 -1 -15 17 -7 15 -23 -3 -23 -8 0 -15 7
-15 15 0 8 -5 15 -11 15 -21 0 -4 -45 19 -48 12 -2 22 -7 22 -12 0 -5 15 -11
33 -13 28 -3 27 -4 -10 -5 -23 -1 -44 -6 -47 -11 -3 -4 -17 -6 -31 -3 -15 2
-25 0 -25 -7 0 -6 8 -11 18 -11 14 0 12 -4 -8 -20 -14 -10 -22 -22 -18 -25 8
-8 88 35 88 47 0 4 12 8 28 8 47 0 72 11 72 31 0 15 -8 19 -37 21 -37 1 -37 1
-5 5 31 4 36 12 35 51 -1 6 6 12 14 12 8 0 13 6 10 13 -2 7 -20 11 -43 11 -24
-1 -42 3 -47 12 -11 19 -41 18 -34 0z m61 -52 c8 -22 8 -24 -7 -24 -7 0 -13 9
-13 20 0 24 11 26 20 4z"/>
<path d="M800 3460 c0 -5 4 -10 10 -10 5 0 7 -7 4 -15 -7 -17 22 -21 45 -6 12
8 12 12 2 25 -15 18 -61 22 -61 6z"/>
<path d="M556 3434 c-9 -24 -7 -44 5 -44 6 0 13 9 16 20 4 16 14 20 44 20 22
0 39 5 39 10 0 6 -22 10 -49 10 -35 0 -51 -4 -55 -16z"/>
<path d="M673 3116 c7 -17 -13 -26 -54 -26 -16 0 -29 -5 -29 -11 0 -8 15 -10
46 -6 32 3 42 2 33 -5 -11 -7 -11 -11 -1 -15 17 -7 15 -23 -3 -23 -8 0 -15 7
-15 15 0 8 -5 15 -11 15 -21 0 -4 -45 19 -48 12 -2 22 -7 22 -12 0 -5 15 -11
33 -13 28 -3 27 -4 -10 -5 -23 -1 -44 -6 -47 -11 -3 -4 -17 -6 -31 -3 -15 2
-25 0 -25 -7 0 -6 8 -11 18 -11 14 0 12 -4 -8 -20 -29 -22 -22 -37 9 -20 17 9
22 8 27 -5 9 -21 24 -19 24 4 0 35 12 51 39 51 46 0 71 11 71 31 0 15 -8 19
-37 21 -37 1 -37 1 -5 5 31 4 36 12 35 51 -1 6 6 12 14 12 8 0 13 6 10 13 -2
7 -20 11 -43 11 -24 -1 -42 3 -47 12 -11 19 -41 18 -34 0z m61 -52 c8 -22 8
-24 -7 -24 -7 0 -13 9 -13 20 0 24 11 26 20 4z"/>
<path d="M800 3010 c0 -5 4 -10 10 -10 5 0 7 -7 4 -15 -7 -17 22 -21 45 -6 12
8 12 12 2 25 -15 18 -61 22 -61 6z"/>
<path d="M556 2984 c-9 -24 -7 -44 5 -44 6 0 13 9 16 20 4 16 14 20 44 20 22
0 39 5 39 10 0 6 -22 10 -49 10 -35 0 -51 -4 -55 -16z"/>
<path d="M673 2666 c7 -17 -13 -26 -54 -26 -16 0 -29 -5 -29 -11 0 -8 15 -10
46 -6 32 3 42 2 33 -5 -11 -7 -11 -11 -1 -15 17 -7 15 -23 -3 -23 -8 0 -15 7
-15 15 0 8 -5 15 -11 15 -21 0 -4 -45 19 -48 12 -2 22 -7 22 -12 0 -5 15 -11
33 -13 28 -3 27 -4 -10 -5 -23 -1 -44 -6 -47 -11 -3 -4 -17 -6 -31 -3 -15 2
-25 0 -25 -7 0 -6 8 -11 18 -11 14 0 12 -4 -8 -20 -29 -22 -22 -37 9 -20 17 9
22 8 27 -5 9 -23 24 -18 24 9 0 20 4 23 28 18 15 -3 30 -9 33 -15 9 -13 29 0
29 19 0 10 -13 14 -42 15 -44 1 -41 3 25 14 28 4 37 11 37 25 0 16 -8 20 -37
22 -37 1 -37 1 -5 5 31 4 36 12 35 51 -1 6 6 12 14 12 8 0 13 6 10 13 -2 7
-20 11 -43 11 -24 -1 -42 3 -47 12 -11 19 -41 18 -34 0z m61 -52 c8 -22 8 -24
-7 -24 -7 0 -13 9 -13 20 0 24 11 26 20 4z"/>
<path d="M800 2560 c0 -5 4 -10 10 -10 5 0 7 -7 4 -15 -7 -17 22 -21 45 -6 12
8 12 12 2 25 -15 18 -61 22 -61 6z"/>
<path d="M556 2534 c-9 -24 -7 -44 5 -44 6 0 13 9 16 20 4 16 14 20 44 20 22
0 39 5 39 10 0 6 -22 10 -49 10 -35 0 -51 -4 -55 -16z"/>
<path d="M673 2216 c7 -17 -13 -26 -54 -26 -16 0 -29 -5 -29 -11 0 -8 15 -10
46 -6 32 3 42 2 33 -5 -11 -7 -11 -11 -1 -15 17 -7 15 -23 -3 -23 -8 0 -15 7
-15 15 0 8 -5 15 -11 15 -21 0 -4 -45 19 -48 12 -2 22 -7 22 -12 0 -5 15 -11
33 -13 28 -3 27 -4 -10 -5 -23 -1 -44 -6 -47 -11 -3 -4 -17 -6 -31 -3 -15 2
-25 0 -25 -7 0 -6 8 -11 18 -11 14 0 12 -4 -8 -20 -29 -22 -22 -37 9 -20 17 9
22 8 28 -6 5 -13 15 -15 51 -10 25 3 49 12 54 19 17 27 8 37 -34 38 -44 1 -41
3 25 14 28 4 37 11 37 25 0 16 -8 20 -37 22 -37 1 -37 1 -5 5 31 4 36 12 35
51 -1 6 6 12 14 12 8 0 13 6 10 13 -2 7 -20 11 -43 11 -24 -1 -42 3 -47 12
-11 19 -41 18 -34 0z m61 -52 c8 -22 8 -24 -7 -24 -7 0 -13 9 -13 20 0 24 11
26 20 4z m-15 -145 c-21 -13 -49 -11 -49 4 0 9 10 12 31 9 22 -3 27 -7 18 -13z"/>
<path d="M800 2110 c0 -5 4 -10 10 -10 5 0 7 -7 4 -15 -7 -17 22 -21 45 -6 12
8 12 12 2 25 -15 18 -61 22 -61 6z"/>
<path d="M556 2084 c-9 -24 -7 -44 5 -44 6 0 13 9 16 20 4 16 14 20 44 20 22
0 39 5 39 10 0 6 -22 10 -49 10 -35 0 -51 -4 -55 -16z"/>
<path d="M673 1766 c7 -17 -13 -26 -54 -26 -16 0 -29 -5 -29 -11 0 -8 15 -10
46 -6 32 3 42 2 33 -5 -11 -7 -11 -11 -1 -15 17 -7 15 -23 -3 -23 -8 0 -15 7
-15 15 0 8 -5 15 -11 15 -21 0 -4 -45 19 -48 12 -2 22 -7 22 -12 0 -5 15 -11
33 -13 28 -3 27 -4 -10 -5 -23 -1 -44 -6 -47 -11 -3 -4 -17 -6 -31 -3 -15 2
-25 0 -25 -7 0 -6 8 -11 18 -11 14 0 12 -4 -8 -20 -29 -22 -22 -37 9 -20 17 9
22 8 28 -6 5 -13 15 -15 51 -10 25 3 49 12 54 19 17 27 8 37 -34 38 -44 1 -41
3 25 14 28 4 37 11 37 25 0 16 -8 20 -37 22 -37 1 -37 1 -5 5 31 4 36 12 35
51 -1 6 6 12 14 12 8 0 13 6 10 13 -2 7 -20 11 -43 11 -24 -1 -42 3 -47 12
-11 19 -41 18 -34 0z m61 -52 c8 -22 8 -24 -7 -24 -7 0 -13 9 -13 20 0 24 11
26 20 4z m-15 -145 c-21 -13 -49 -11 -49 4 0 9 10 12 31 9 22 -3 27 -7 18 -13z"/>
<path d="M800 1660 c0 -5 4 -10 10 -10 5 0 7 -7 4 -15 -7 -17 22 -21 45 -6 12
8 12 12 2 25 -15 18 -61 22 -61 6z"/>
<path d="M556 1634 c-9 -24 -7 -44 5 -44 6 0 13 9 16 20 4 16 14 20 44 20 22
0 39 5 39 10 0 6 -22 10 -49 10 -35 0 -51 -4 -55 -16z"/>
<path d="M564 1504 c3 -9 6 -22 6 -30 0 -8 5 -14 10 -14 6 0 10 14 10 30 0 21
-5 30 -16 30 -11 0 -14 -5 -10 -16z"/>
<path d="M673 1316 c7 -17 -13 -26 -54 -26 -16 0 -29 -5 -29 -11 0 -8 15 -10
46 -6 32 3 42 2 33 -5 -11 -7 -11 -11 -1 -15 17 -7 15 -23 -3 -23 -8 0 -15 7
-15 15 0 8 -5 15 -11 15 -21 0 -4 -45 19 -48 12 -2 22 -7 22 -12 0 -5 15 -11
33 -13 28 -3 27 -4 -10 -5 -23 -1 -44 -6 -47 -11 -3 -4 -17 -6 -31 -3 -15 2
-25 0 -25 -7 0 -6 8 -11 18 -11 14 0 12 -4 -8 -20 -29 -22 -22 -37 9 -20 17 9
22 8 28 -6 5 -13 15 -15 51 -10 25 3 49 12 54 19 17 27 8 37 -34 38 -44 1 -41
3 25 14 28 4 37 11 37 25 0 16 -8 20 -37 22 -37 1 -37 1 -5 5 31 4 36 12 35
51 -1 6 6 12 14 12 8 0 13 6 10 13 -2 7 -20 11 -43 11 -24 -1 -42 3 -47 12
-11 19 -41 18 -34 0z m61 -52 c8 -22 8 -24 -7 -24 -7 0 -13 9 -13 20 0 24 11
26 20 4z m-15 -145 c-21 -13 -49 -11 -49 4 0 9 10 12 31 9 22 -3 27 -7 18 -13z"/>
<path d="M800 1210 c0 -5 4 -10 10 -10 5 0 7 -7 4 -15 -7 -17 22 -21 45 -6 12
8 12 12 2 25 -15 18 -61 22 -61 6z"/>
<path d="M556 1184 c-9 -24 -7 -44 5 -44 6 0 13 9 16 20 4 16 14 20 44 20 22
0 39 5 39 10 0 6 -22 10 -49 10 -35 0 -51 -4 -55 -16z"/>
<path d="M600 1070 c0 -5 11 -10 25 -10 16 0 25 -6 25 -15 0 -18 12 -19 28 -3
25 25 13 38 -33 38 -25 0 -45 -4 -45 -10z"/>
<path d="M564 1054 c3 -9 6 -22 6 -30 0 -8 5 -14 10 -14 6 0 10 14 10 30 0 21
-5 30 -16 30 -11 0 -14 -5 -10 -16z"/>
<path d="M673 866 c7 -17 -13 -26 -54 -26 -16 0 -29 -5 -29 -11 0 -8 15 -10
46 -6 32 3 42 2 33 -5 -11 -7 -11 -11 -1 -15 17 -7 15 -23 -3 -23 -8 0 -15 7
-15 15 0 8 -5 15 -11 15 -21 0 -4 -45 19 -48 12 -2 22 -7 22 -12 0 -5 15 -11
33 -13 28 -3 27 -4 -10 -5 -23 -1 -44 -6 -47 -11 -3 -4 -17 -6 -31 -3 -15 2
-25 0 -25 -7 0 -6 8 -11 18 -11 14 0 12 -4 -8 -20 -29 -22 -22 -37 9 -20 17 9
22 8 28 -6 5 -13 15 -15 51 -10 25 3 49 12 54 19 17 27 8 37 -34 38 -44 1 -41
3 25 14 28 4 37 11 37 25 0 16 -8 20 -37 22 -37 1 -37 1 -5 5 31 4 36 12 35
51 -1 6 6 12 14 12 8 0 13 6 10 13 -2 7 -20 11 -43 11 -24 -1 -42 3 -47 12
-11 19 -41 18 -34 0z m61 -52 c8 -22 8 -24 -7 -24 -7 0 -13 9 -13 20 0 24 11
26 20 4z m-15 -145 c-21 -13 -49 -11 -49 4 0 9 10 12 31 9 22 -3 27 -7 18 -13z"/>
<path d="M800 760 c0 -5 4 -10 10 -10 5 0 7 -7 4 -15 -7 -17 22 -21 45 -6 12
8 12 12 2 25 -15 18 -61 22 -61 6z"/>
<path d="M556 734 c-9 -24 -7 -44 5 -44 6 0 13 9 16 20 4 16 14 20 44 20 22 0
39 5 39 10 0 6 -22 10 -49 10 -35 0 -51 -4 -55 -16z"/>
<path d="M600 620 c0 -5 11 -10 25 -10 14 0 25 -4 25 -10 0 -5 -9 -10 -20 -10
-11 0 -20 -4 -20 -10 0 -17 52 -11 66 8 24 31 17 42 -31 42 -25 0 -45 -4 -45
-10z"/>
<path d="M566 593 c9 -35 12 -39 24 -27 13 13 1 54 -16 54 -11 0 -13 -7 -8
-27z"/>
<path d="M673 416 c7 -17 -13 -26 -54 -26 -16 0 -29 -5 -29 -11 0 -8 15 -10
46 -6 32 3 42 2 33 -5 -11 -7 -11 -11 -1 -15 17 -7 15 -23 -3 -23 -8 0 -15 7
-15 15 0 8 -5 15 -11 15 -21 0 -4 -45 19 -48 12 -2 22 -7 22 -12 0 -5 15 -11
33 -13 28 -3 27 -4 -10 -5 -23 -1 -44 -6 -47 -11 -3 -4 -17 -6 -31 -3 -15 2
-25 0 -25 -7 0 -6 8 -11 18 -11 14 0 12 -4 -8 -20 -29 -22 -22 -37 9 -20 17 9
22 8 28 -6 5 -13 15 -15 51 -10 25 3 49 12 54 19 17 27 8 37 -34 38 -44 1 -41
3 25 14 28 4 37 11 37 25 0 16 -8 20 -37 22 -37 1 -37 1 -5 5 31 4 36 12 35
51 -1 6 6 12 14 12 8 0 13 6 10 13 -2 7 -20 11 -43 11 -24 -1 -42 3 -47 12
-11 19 -41 18 -34 0z m61 -52 c8 -22 8 -24 -7 -24 -7 0 -13 9 -13 20 0 24 11
26 20 4z m-15 -145 c-21 -13 -49 -11 -49 4 0 9 10 12 31 9 22 -3 27 -7 18 -13z"/>
<path d="M800 310 c0 -5 4 -10 10 -10 5 0 7 -7 4 -15 -7 -17 22 -21 45 -6 12
8 12 12 2 25 -15 18 -61 22 -61 6z"/>
<path d="M556 284 c-9 -24 -7 -44 5 -44 6 0 13 9 16 20 4 16 14 20 44 20 22 0
39 5 39 10 0 6 -22 10 -49 10 -35 0 -51 -4 -55 -16z"/>
<path d="M608 188 c-7 -21 3 -98 13 -98 5 0 9 7 9 15 0 8 7 15 16 15 18 0 43
27 44 48 0 6 -11 12 -25 12 -14 0 -25 5 -25 10 0 14 -27 12 -32 -2z m42 -38
c0 -5 -4 -10 -10 -10 -5 0 -10 5 -10 10 0 6 5 10 10 10 6 0 10 -4 10 -10z"/>
<path d="M566 143 c9 -35 12 -39 24 -27 13 13 1 54 -16 54 -11 0 -13 -7 -8
-27z"/>
</g>
</svg>
