<?xml version="1.0" standalone="no"?>
<!DOCTYPE svg PUBLIC "-//W3C//DTD SVG 20010904//EN"
 "http://www.w3.org/TR/2001/REC-SVG-20010904/DTD/svg10.dtd">
<svg version="1.0" xmlns="http://www.w3.org/2000/svg"
 width="95.000000pt" height="725.000000pt" viewBox="0 0 95.000000 725.000000"
 preserveAspectRatio="xMidYMid meet">
<metadata>
Created by potrace 1.16, written by Peter Selinger 2001-2019
</metadata>
<g transform="translate(0.000000,725.000000) scale(0.100000,-0.100000)"
fill="#000000" stroke="none">
<path d="M263 7147 c3 -9 1 -17 -5 -19 -8 -3 -8 -10 1 -25 16 -32 14 -47 -5
-28 -11 11 -14 25 -10 45 4 22 2 30 -9 30 -11 0 -15 -11 -15 -37 0 -36 -2 -38
-30 -38 -28 0 -30 3 -28 30 2 22 -2 30 -16 33 -16 4 -18 0 -12 -32 7 -36 2
-41 -33 -36 -10 1 -12 -6 -7 -30 3 -18 6 -36 6 -41 0 -5 7 -9 16 -9 10 0 14
-7 12 -22 -2 -17 -11 -24 -30 -26 -16 -2 -28 -7 -28 -12 0 -19 23 -21 67 -4
35 13 48 15 51 6 7 -21 22 -13 22 12 0 26 -21 47 -28 28 -6 -19 -22 -14 -22 8
0 13 7 20 18 20 10 0 22 12 29 30 6 17 18 30 27 30 19 0 21 -11 4 -28 -6 -6
-8 -15 -4 -19 4 -4 20 7 37 25 25 27 30 39 27 74 -2 33 -8 44 -22 46 -14 3
-17 0 -13 -11z m-87 -124 c-11 -11 -19 6 -11 24 8 17 8 17 12 0 3 -10 2 -21
-1 -24z m-49 -5 c-3 -7 -5 -2 -5 12 0 14 2 19 5 13 2 -7 2 -19 0 -25z"/>
<path d="M313 7116 c2 -43 3 -45 37 -49 19 -2 38 -2 43 0 4 2 7 24 7 49 l0 44
-44 0 -44 0 1 -44z m51 8 c10 -27 7 -36 -9 -20 -8 8 -15 19 -15 25 0 17 17 13
24 -5z"/>
<path d="M545 7033 c7 -42 12 -50 21 -40 10 10 -6 77 -18 77 -6 0 -8 -13 -3
-37z"/>
<path d="M263 6697 c3 -9 1 -17 -5 -19 -8 -3 -8 -10 1 -25 16 -32 14 -47 -5
-28 -11 11 -14 25 -10 45 4 22 2 30 -9 30 -11 0 -15 -11 -15 -37 0 -36 -2 -38
-30 -38 -28 0 -30 3 -28 30 2 22 -2 30 -16 33 -16 4 -18 0 -12 -32 7 -36 2
-41 -33 -36 -10 1 -12 -6 -7 -30 3 -18 6 -36 6 -41 0 -5 7 -9 16 -9 10 0 14
-7 12 -22 -2 -17 -11 -24 -30 -26 -16 -2 -28 -7 -28 -12 0 -19 23 -21 67 -4
35 13 48 15 51 6 7 -21 22 -13 22 12 0 26 -21 47 -28 28 -6 -19 -22 -14 -22 8
0 13 7 20 18 20 10 0 22 12 29 30 6 17 18 30 27 30 19 0 21 -11 5 -27 -12 -12
-4 -33 12 -33 5 0 9 6 9 13 0 7 9 23 21 35 27 30 24 105 -5 110 -14 3 -17 0
-13 -11z m-87 -124 c-11 -11 -19 6 -11 24 8 17 8 17 12 0 3 -10 2 -21 -1 -24z
m-49 -5 c-3 -7 -5 -2 -5 12 0 14 2 19 5 13 2 -7 2 -19 0 -25z"/>
<path d="M313 6666 c2 -43 3 -45 37 -49 19 -2 38 -2 43 0 4 2 7 24 7 49 l0 44
-44 0 -44 0 1 -44z m51 8 c10 -27 7 -36 -9 -20 -8 8 -15 19 -15 25 0 17 17 13
24 -5z"/>
<path d="M618 6625 c-3 -3 -22 -6 -43 -7 -35 -1 -37 -3 -31 -31 3 -16 6 -33 6
-38 0 -5 5 -9 10 -9 6 0 10 13 10 29 0 24 5 29 30 33 26 4 30 1 30 -19 0 -13
4 -23 8 -23 12 0 33 50 27 61 -7 10 -38 12 -47 4z"/>
<path d="M240 6515 c0 -14 5 -25 10 -25 6 0 10 11 10 25 0 14 -4 25 -10 25 -5
0 -10 -11 -10 -25z"/>
<path d="M263 6247 c3 -9 1 -17 -5 -19 -8 -3 -8 -10 1 -25 16 -32 14 -47 -5
-28 -11 11 -14 25 -10 45 4 22 2 30 -9 30 -11 0 -15 -11 -15 -37 0 -36 -2 -38
-30 -38 -28 0 -30 3 -28 30 2 22 -2 30 -16 33 -16 4 -18 0 -12 -32 7 -36 2
-41 -33 -36 -10 1 -12 -6 -7 -30 3 -18 6 -36 6 -41 0 -5 7 -9 16 -9 10 0 14
-7 12 -22 -2 -17 -11 -24 -30 -26 -16 -2 -28 -7 -28 -12 0 -19 23 -21 67 -4
35 13 48 15 51 6 7 -21 22 -13 22 12 0 26 -21 47 -28 28 -6 -19 -22 -14 -22 8
0 13 7 20 18 20 10 0 22 12 29 30 6 17 18 30 27 30 19 0 21 -11 5 -27 -12 -12
-4 -33 12 -33 5 0 9 6 9 13 0 6 7 21 15 31 12 16 18 17 27 8 17 -17 31 -15 24
4 -5 13 1 15 32 12 l37 -3 3 48 3 47 -47 0 c-46 0 -46 0 -41 -30 4 -16 3 -38
-1 -47 -5 -13 -9 -4 -12 27 -4 34 -10 46 -24 48 -14 3 -17 0 -13 -11z m101
-23 c10 -27 7 -36 -9 -20 -8 8 -15 19 -15 25 0 17 17 13 24 -5z m-188 -101
c-11 -11 -19 6 -11 24 8 17 8 17 12 0 3 -10 2 -21 -1 -24z m-49 -5 c-3 -7 -5
-2 -5 12 0 14 2 19 5 13 2 -7 2 -19 0 -25z"/>
<path d="M618 6175 c-3 -3 -22 -6 -43 -7 -35 -1 -37 -3 -31 -31 3 -16 6 -33 6
-38 0 -5 9 -9 20 -9 11 0 20 5 20 10 0 6 -4 10 -10 10 -5 0 -10 8 -10 19 0 13
9 20 30 23 24 4 30 1 30 -14 0 -10 -7 -18 -15 -18 -8 0 -15 -4 -15 -10 0 -5
10 -10 23 -10 16 0 26 9 34 31 7 18 10 36 7 40 -6 10 -38 12 -46 4z"/>
<path d="M240 6065 c0 -14 5 -25 10 -25 6 0 10 11 10 25 0 14 -4 25 -10 25 -5
0 -10 -11 -10 -25z"/>
<path d="M263 5797 c3 -9 1 -17 -5 -19 -8 -3 -8 -10 1 -25 16 -32 14 -47 -5
-28 -11 11 -14 25 -10 45 4 22 2 30 -9 30 -11 0 -15 -11 -15 -37 0 -36 -2 -38
-30 -38 -28 0 -30 3 -28 30 2 22 -2 30 -16 33 -16 4 -18 0 -12 -32 7 -36 2
-41 -33 -36 -10 1 -12 -6 -7 -30 3 -18 6 -36 6 -41 0 -5 7 -9 16 -9 10 0 14
-7 12 -22 -2 -17 -11 -24 -30 -26 -16 -2 -28 -7 -28 -12 0 -19 23 -21 67 -4
35 13 48 15 51 6 7 -21 22 -13 22 12 0 26 -21 47 -28 28 -6 -19 -22 -14 -22 8
0 13 7 20 18 20 10 0 22 12 29 30 6 17 18 30 27 30 19 0 21 -11 4 -28 -9 -9
-9 -15 1 -24 11 -10 14 -10 18 0 3 6 11 12 20 12 10 0 12 6 8 20 -4 11 -2 20
4 20 6 0 11 -7 11 -15 0 -10 10 -15 30 -15 17 0 30 5 30 10 0 6 -6 10 -14 10
-8 0 -18 5 -22 11 -4 7 6 10 32 7 l39 -3 3 48 3 47 -47 0 c-46 0 -46 0 -41
-30 4 -16 3 -38 -1 -47 -5 -13 -9 -4 -12 27 -4 34 -10 46 -24 48 -14 3 -17 0
-13 -11z m101 -23 c10 -27 7 -36 -9 -20 -8 8 -15 19 -15 25 0 17 17 13 24 -5z
m-188 -101 c-11 -11 -19 6 -11 24 8 17 8 17 12 0 3 -10 2 -21 -1 -24z m-49 -5
c-3 -7 -5 -2 -5 12 0 14 2 19 5 13 2 -7 2 -19 0 -25z"/>
<path d="M584 5756 c7 -36 2 -41 -33 -36 -10 1 -12 -6 -7 -30 3 -18 6 -36 6
-41 0 -5 7 -9 15 -9 9 0 15 -9 15 -25 0 -16 6 -25 15 -25 10 0 15 10 15 30 0
22 5 30 18 30 19 0 46 55 36 72 -4 6 -17 8 -31 5 -22 -4 -24 -1 -21 27 2 23
-1 31 -16 34 -16 4 -18 0 -12 -32z m42 -83 c-11 -11 -19 6 -11 24 8 17 8 17
12 0 3 -10 2 -21 -1 -24z m-49 -5 c-3 -7 -5 -2 -5 12 0 14 2 19 5 13 2 -7 2
-19 0 -25z"/>
<path d="M240 5615 c0 -14 5 -25 10 -25 6 0 10 11 10 25 0 14 -4 25 -10 25 -5
0 -10 -11 -10 -25z"/>
<path d="M263 5347 c3 -9 1 -17 -5 -19 -8 -3 -8 -10 1 -25 16 -32 14 -47 -5
-28 -11 11 -14 25 -10 45 4 22 2 30 -9 30 -11 0 -15 -11 -15 -37 0 -36 -2 -38
-30 -38 -28 0 -30 3 -28 30 2 22 -2 30 -16 33 -16 4 -18 0 -12 -32 7 -36 2
-41 -33 -36 -10 1 -12 -6 -7 -30 3 -18 6 -36 6 -41 0 -5 7 -9 16 -9 10 0 14
-7 12 -22 -2 -17 -11 -24 -30 -26 -16 -2 -28 -7 -28 -12 0 -19 23 -21 67 -4
35 13 48 15 51 6 7 -21 22 -13 22 12 0 26 -21 47 -28 28 -6 -19 -22 -14 -22 8
0 13 7 20 18 20 10 0 22 12 29 30 6 17 18 30 27 30 19 0 21 -11 5 -27 -7 -7
-8 -17 -3 -25 5 -7 7 -25 5 -40 -4 -45 16 -32 24 15 4 23 9 36 12 30 6 -15 63
-18 63 -3 0 6 -11 10 -24 10 -13 0 -27 7 -30 16 -8 21 -8 24 4 24 6 0 10 -7
10 -15 0 -10 10 -15 30 -15 17 0 30 5 30 10 0 6 -6 10 -14 10 -8 0 -18 5 -22
11 -4 7 6 10 32 7 l39 -3 3 48 3 47 -47 0 c-46 0 -46 0 -41 -30 4 -16 3 -38
-1 -47 -5 -13 -9 -4 -12 27 -4 34 -10 46 -24 48 -14 3 -17 0 -13 -11z m101
-23 c10 -27 7 -36 -9 -20 -8 8 -15 19 -15 25 0 17 17 13 24 -5z m-188 -101
c-11 -11 -19 6 -11 24 8 17 8 17 12 0 3 -10 2 -21 -1 -24z m-49 -5 c-3 -7 -5
-2 -5 12 0 14 2 19 5 13 2 -7 2 -19 0 -25z"/>
<path d="M584 5306 c7 -36 2 -41 -33 -36 -10 1 -12 -6 -7 -30 3 -18 6 -36 6
-41 0 -5 7 -9 16 -9 10 0 14 -7 12 -22 -2 -17 -11 -24 -30 -26 -28 -3 -36 -16
-18 -27 11 -7 110 26 110 37 0 5 -7 8 -15 8 -8 0 -15 9 -15 20 0 13 7 20 18
20 19 0 46 55 36 72 -4 6 -17 8 -31 5 -22 -4 -24 -1 -21 27 2 23 -1 31 -16 34
-16 4 -18 0 -12 -32z m42 -83 c-11 -11 -19 6 -11 24 8 17 8 17 12 0 3 -10 2
-21 -1 -24z m-49 -5 c-3 -7 -5 -2 -5 12 0 14 2 19 5 13 2 -7 2 -19 0 -25z"/>
<path d="M263 4897 c3 -9 1 -17 -5 -19 -8 -3 -8 -10 1 -25 16 -32 14 -47 -5
-28 -11 11 -14 25 -10 45 4 22 2 30 -9 30 -11 0 -15 -11 -15 -37 0 -36 -2 -38
-30 -38 -28 0 -30 3 -28 30 2 22 -2 30 -16 33 -16 4 -18 0 -12 -32 7 -36 2
-41 -33 -36 -10 1 -12 -6 -7 -30 3 -18 6 -36 6 -41 0 -5 7 -9 16 -9 10 0 14
-7 12 -22 -2 -17 -11 -24 -30 -26 -16 -2 -28 -7 -28 -12 0 -19 23 -21 67 -4
35 13 48 15 51 6 7 -21 22 -13 22 12 0 26 -21 47 -28 28 -6 -19 -22 -14 -22 8
0 13 7 20 18 20 10 0 22 12 29 30 6 17 18 30 27 30 19 0 21 -11 5 -27 -7 -7
-8 -17 -3 -25 5 -7 7 -25 5 -40 -1 -16 2 -28 8 -28 6 0 11 7 11 15 0 9 9 15
25 15 14 0 25 5 25 10 0 6 -9 10 -20 10 -13 0 -20 6 -19 18 0 10 3 12 6 5 2
-7 13 -13 24 -13 10 0 19 -4 19 -10 0 -5 11 -10 25 -10 14 0 25 5 25 10 0 6
-7 10 -15 10 -8 0 -15 5 -15 10 0 6 -11 10 -24 10 -13 0 -27 7 -30 16 -8 21
-8 24 4 24 6 0 10 -7 10 -15 0 -10 10 -15 30 -15 17 0 30 5 30 10 0 6 -6 10
-14 10 -8 0 -18 5 -22 11 -4 7 6 10 32 7 l39 -3 3 48 3 47 -47 0 c-46 0 -46 0
-41 -30 4 -16 3 -38 -1 -47 -5 -13 -9 -4 -12 27 -4 34 -10 46 -24 48 -14 3
-17 0 -13 -11z m101 -23 c10 -27 7 -36 -9 -20 -8 8 -15 19 -15 25 0 17 17 13
24 -5z m-188 -101 c-11 -11 -19 6 -11 24 8 17 8 17 12 0 3 -10 2 -21 -1 -24z
m-49 -5 c-3 -7 -5 -2 -5 12 0 14 2 19 5 13 2 -7 2 -19 0 -25z"/>
<path d="M584 4856 c7 -36 2 -41 -33 -36 -10 1 -12 -6 -7 -30 3 -18 6 -36 6
-41 0 -5 7 -9 16 -9 10 0 14 -7 12 -22 -2 -17 -11 -24 -30 -26 -16 -2 -28 -7
-28 -12 0 -19 23 -21 67 -4 35 13 48 15 51 6 7 -21 22 -13 22 12 0 26 -21 47
-28 28 -6 -19 -22 -14 -22 8 0 13 7 20 18 20 19 0 46 55 36 72 -4 6 -17 8 -31
5 -22 -4 -24 -1 -21 27 2 23 -1 31 -16 34 -16 4 -18 0 -12 -32z m42 -83 c-11
-11 -19 6 -11 24 8 17 8 17 12 0 3 -10 2 -21 -1 -24z m-49 -5 c-3 -7 -5 -2 -5
12 0 14 2 19 5 13 2 -7 2 -19 0 -25z"/>
<path d="M263 4447 c3 -9 1 -17 -5 -19 -8 -3 -8 -10 1 -25 16 -32 14 -47 -5
-28 -11 11 -14 25 -10 45 4 22 2 30 -9 30 -11 0 -15 -11 -15 -37 0 -36 -2 -38
-30 -38 -28 0 -30 3 -28 30 2 22 -2 30 -16 33 -16 4 -18 0 -12 -32 7 -36 2
-41 -33 -36 -10 1 -12 -6 -7 -30 3 -18 6 -36 6 -41 0 -5 7 -9 16 -9 10 0 14
-7 12 -22 -2 -17 -11 -24 -30 -26 -16 -2 -28 -7 -28 -12 0 -19 23 -21 67 -4
35 13 48 15 51 6 7 -21 22 -13 22 12 0 26 -21 47 -28 28 -6 -19 -22 -14 -22 8
0 13 7 20 18 20 10 0 22 12 29 30 6 17 18 30 27 30 19 0 21 -11 5 -27 -7 -7
-8 -17 -3 -25 5 -7 7 -25 5 -40 -1 -16 2 -28 8 -28 6 0 11 7 11 16 0 13 7 15
30 11 16 -4 32 -2 35 3 3 6 15 10 26 10 10 0 19 5 19 10 0 6 -6 10 -14 10 -8
0 -16 7 -20 15 -3 9 0 15 9 15 8 0 15 5 15 10 0 6 -6 10 -14 10 -8 0 -18 5
-22 11 -4 7 6 10 32 7 l39 -3 3 48 3 47 -47 0 c-46 0 -46 0 -41 -30 4 -16 3
-38 -1 -47 -5 -13 -9 -4 -12 27 -4 34 -10 46 -24 48 -14 3 -17 0 -13 -11z
m101 -23 c10 -27 7 -36 -9 -20 -8 8 -15 19 -15 25 0 17 17 13 24 -5z m-188
-101 c-11 -11 -19 6 -11 24 8 17 8 17 12 0 3 -10 2 -21 -1 -24z m124 15 c0
-19 -2 -20 -10 -8 -13 19 -13 30 0 30 6 0 10 -10 10 -22z m-173 -20 c-3 -7 -5
-2 -5 12 0 14 2 19 5 13 2 -7 2 -19 0 -25z m168 -20 c6 -4 2 -8 -7 -8 -10 0
-18 7 -18 17 0 9 3 12 8 7 4 -5 12 -12 17 -16z"/>
<path d="M670 4413 c0 -36 -2 -38 -30 -38 -28 0 -30 3 -28 30 2 22 -2 30 -16
33 -16 4 -18 0 -12 -32 7 -36 2 -41 -33 -36 -10 1 -12 -6 -7 -30 3 -18 6 -36
6 -41 0 -5 7 -9 16 -9 10 0 14 -7 12 -22 -2 -17 -11 -24 -30 -26 -16 -2 -28
-7 -28 -12 0 -19 23 -21 67 -4 35 13 48 15 51 6 7 -21 22 -13 22 12 0 26 -21
47 -28 28 -6 -19 -22 -14 -22 8 0 13 7 20 20 20 11 0 20 7 20 15 0 8 9 24 20
35 21 21 29 100 10 100 -5 0 -10 -17 -10 -37z m-44 -90 c-11 -11 -19 6 -11 24
8 17 8 17 12 0 3 -10 2 -21 -1 -24z m-49 -5 c-3 -7 -5 -2 -5 12 0 14 2 19 5
13 2 -7 2 -19 0 -25z"/>
<path d="M263 3997 c3 -9 1 -17 -5 -19 -8 -3 -8 -10 1 -25 16 -32 14 -47 -5
-28 -11 11 -14 25 -10 45 4 22 2 30 -9 30 -11 0 -15 -11 -15 -37 0 -36 -2 -38
-30 -38 -28 0 -30 3 -28 30 2 22 -2 30 -16 33 -16 4 -18 0 -12 -32 7 -36 2
-41 -33 -36 -10 1 -12 -6 -7 -30 3 -18 6 -36 6 -41 0 -5 7 -9 16 -9 10 0 14
-7 12 -22 -2 -17 -11 -24 -30 -26 -16 -2 -28 -7 -28 -12 0 -19 23 -21 67 -4
35 13 48 15 51 6 7 -21 22 -13 22 12 0 26 -21 47 -28 28 -6 -19 -22 -14 -22 8
0 13 7 20 18 20 10 0 22 12 29 30 6 17 18 30 27 30 19 0 21 -11 5 -27 -7 -7
-8 -17 -3 -25 5 -7 7 -25 5 -40 -2 -24 1 -28 23 -28 29 0 35 16 9 23 -14 4
-12 5 5 6 12 0 22 -3 22 -9 0 -5 23 -10 50 -10 58 0 69 19 13 21 -24 1 -29 3
-15 6 24 5 31 23 8 23 -8 0 -16 7 -20 15 -3 9 0 15 9 15 8 0 15 5 15 10 0 6
-6 10 -14 10 -8 0 -18 5 -22 11 -4 7 6 10 32 7 l39 -3 3 48 3 47 -47 0 c-46 0
-46 0 -41 -30 4 -16 3 -38 -1 -47 -5 -13 -9 -4 -12 27 -4 34 -10 46 -24 48
-14 3 -17 0 -13 -11z m101 -23 c10 -27 7 -36 -9 -20 -8 8 -15 19 -15 25 0 17
17 13 24 -5z m-188 -101 c-11 -11 -19 6 -11 24 8 17 8 17 12 0 3 -10 2 -21 -1
-24z m124 15 c0 -19 -2 -20 -10 -8 -13 19 -13 30 0 30 6 0 10 -10 10 -22z
m-173 -20 c-3 -7 -5 -2 -5 12 0 14 2 19 5 13 2 -7 2 -19 0 -25z m168 -20 c6
-4 2 -8 -7 -8 -10 0 -18 7 -18 17 0 9 3 12 8 7 4 -5 12 -12 17 -16z"/>
<path d="M710 4001 c0 -5 5 -13 11 -17 7 -4 9 -21 6 -40 -4 -26 -2 -34 9 -34
23 0 15 94 -8 98 -10 2 -18 -1 -18 -7z"/>
<path d="M670 3963 c0 -36 -2 -38 -30 -38 -28 0 -30 3 -28 30 2 22 -2 30 -16
33 -16 4 -18 0 -12 -32 7 -36 2 -41 -33 -36 -10 1 -12 -6 -7 -30 3 -18 6 -36
6 -41 0 -5 7 -9 16 -9 10 0 14 -7 12 -22 -2 -17 -11 -24 -30 -26 -16 -2 -28
-7 -28 -12 0 -19 23 -21 67 -4 35 13 48 15 51 6 7 -21 22 -13 22 12 0 26 -21
47 -28 28 -6 -19 -22 -14 -22 8 0 13 7 20 20 20 11 0 20 7 20 15 0 8 8 23 18
33 24 24 36 102 16 102 -10 0 -14 -12 -14 -37z m-44 -90 c-11 -11 -19 6 -11
24 8 17 8 17 12 0 3 -10 2 -21 -1 -24z m-49 -5 c-3 -7 -5 -2 -5 12 0 14 2 19
5 13 2 -7 2 -19 0 -25z"/>
<path d="M263 3547 c3 -9 1 -17 -5 -19 -8 -3 -8 -10 1 -25 16 -32 14 -47 -5
-28 -11 11 -14 25 -10 45 4 22 2 30 -9 30 -11 0 -15 -11 -15 -37 0 -36 -2 -38
-30 -38 -28 0 -30 3 -28 30 2 22 -2 30 -16 33 -16 4 -18 0 -12 -32 7 -36 2
-41 -33 -36 -10 1 -12 -6 -7 -30 3 -18 6 -36 6 -41 0 -5 7 -9 16 -9 10 0 14
-7 12 -22 -2 -17 -11 -24 -30 -26 -16 -2 -28 -7 -28 -12 0 -19 23 -21 67 -4
35 13 48 15 51 6 7 -21 22 -13 22 12 0 26 -21 47 -28 28 -6 -19 -22 -14 -22 8
0 13 7 20 18 20 10 0 22 12 29 30 6 17 18 30 27 30 19 0 21 -11 5 -27 -7 -7
-8 -17 -3 -25 5 -7 7 -25 5 -40 -2 -24 1 -28 23 -28 29 0 35 16 9 23 -14 4
-12 5 5 6 12 0 22 -3 22 -9 0 -5 23 -10 50 -10 58 0 69 19 13 21 -24 1 -29 3
-15 6 24 5 31 23 8 23 -8 0 -16 7 -20 15 -3 9 0 15 9 15 8 0 15 5 15 10 0 6
-6 10 -14 10 -8 0 -18 5 -22 11 -4 7 6 10 32 7 l39 -3 3 48 3 47 -47 0 c-46 0
-46 0 -41 -30 4 -16 3 -38 -1 -47 -5 -13 -9 -4 -12 27 -4 34 -10 46 -24 48
-14 3 -17 0 -13 -11z m101 -23 c10 -27 7 -36 -9 -20 -8 8 -15 19 -15 25 0 17
17 13 24 -5z m-188 -101 c-11 -11 -19 6 -11 24 8 17 8 17 12 0 3 -10 2 -21 -1
-24z m124 15 c0 -19 -2 -20 -10 -8 -13 19 -13 30 0 30 6 0 10 -10 10 -22z
m-173 -20 c-3 -7 -5 -2 -5 12 0 14 2 19 5 13 2 -7 2 -19 0 -25z m168 -20 c6
-4 2 -8 -7 -8 -10 0 -18 7 -18 17 0 9 3 12 8 7 4 -5 12 -12 17 -16z"/>
<path d="M713 3546 c4 -9 2 -16 -3 -16 -6 0 -10 -4 -10 -10 0 -5 7 -10 16 -10
12 0 15 -6 10 -25 -5 -19 -2 -25 9 -25 26 0 17 94 -9 98 -14 3 -17 0 -13 -12z"/>
<path d="M670 3513 c0 -36 -2 -38 -30 -38 -28 0 -30 3 -28 30 2 22 -2 30 -16
33 -16 4 -18 0 -12 -32 7 -36 2 -41 -33 -36 -10 1 -12 -6 -7 -30 3 -18 6 -36
6 -41 0 -5 7 -9 16 -9 10 0 14 -7 12 -22 -2 -17 -11 -24 -30 -26 -16 -2 -28
-7 -28 -12 0 -19 23 -21 67 -4 35 13 48 15 51 6 7 -21 22 -13 22 12 0 26 -21
47 -28 28 -6 -19 -22 -14 -22 8 0 13 7 20 20 20 11 0 20 7 20 15 0 8 8 23 18
33 24 24 36 102 16 102 -10 0 -14 -12 -14 -37z m-44 -90 c-11 -11 -19 6 -11
24 8 17 8 17 12 0 3 -10 2 -21 -1 -24z m-49 -5 c-3 -7 -5 -2 -5 12 0 14 2 19
5 13 2 -7 2 -19 0 -25z"/>
<path d="M313 3325 c7 -16 -46 -65 -69 -65 -8 0 -14 -4 -14 -10 0 -15 27 -12
68 9 72 37 91 81 35 81 -18 0 -24 -4 -20 -15z"/>
<path d="M240 3320 c0 -5 11 -10 25 -10 14 0 25 5 25 10 0 6 -11 10 -25 10
-14 0 -25 -4 -25 -10z"/>
<path d="M263 3097 c3 -9 1 -17 -5 -19 -8 -3 -8 -10 1 -25 16 -32 14 -47 -5
-28 -11 11 -14 25 -10 45 4 22 2 30 -9 30 -11 0 -15 -11 -15 -37 0 -36 -2 -38
-30 -38 -28 0 -30 3 -28 30 2 22 -2 30 -16 33 -16 4 -18 0 -12 -32 7 -36 2
-41 -33 -36 -10 1 -12 -6 -7 -30 3 -18 6 -36 6 -41 0 -5 7 -9 16 -9 10 0 14
-7 12 -22 -2 -17 -11 -24 -30 -26 -16 -2 -28 -7 -28 -12 0 -19 23 -21 67 -4
35 13 48 15 51 6 7 -21 22 -13 22 12 0 26 -21 47 -28 28 -6 -19 -22 -14 -22 8
0 13 7 20 18 20 10 0 22 12 29 30 6 17 18 30 27 30 19 0 21 -11 5 -27 -7 -7
-8 -17 -3 -25 5 -7 7 -25 5 -40 -2 -24 1 -28 23 -28 29 0 35 16 9 23 -14 4
-12 5 5 6 12 0 22 -3 22 -9 0 -5 23 -10 50 -10 58 0 69 19 13 21 -24 1 -29 3
-15 6 24 5 31 23 8 23 -8 0 -16 7 -20 15 -3 9 0 15 9 15 8 0 15 5 15 10 0 6
-6 10 -14 10 -8 0 -18 5 -22 11 -4 7 6 10 32 7 l39 -3 3 48 3 47 -47 0 c-46 0
-46 0 -41 -30 4 -16 3 -38 -1 -47 -5 -13 -9 -4 -12 27 -4 34 -10 46 -24 48
-14 3 -17 0 -13 -11z m101 -23 c10 -27 7 -36 -9 -20 -8 8 -15 19 -15 25 0 17
17 13 24 -5z m-188 -101 c-11 -11 -19 6 -11 24 8 17 8 17 12 0 3 -10 2 -21 -1
-24z m124 15 c0 -19 -2 -20 -10 -8 -13 19 -13 30 0 30 6 0 10 -10 10 -22z
m-173 -20 c-3 -7 -5 -2 -5 12 0 14 2 19 5 13 2 -7 2 -19 0 -25z m168 -20 c6
-4 2 -8 -7 -8 -10 0 -18 7 -18 17 0 9 3 12 8 7 4 -5 12 -12 17 -16z"/>
<path d="M713 3096 c4 -9 2 -16 -3 -16 -14 0 -12 -16 3 -32 8 -7 12 -19 9 -26
-2 -6 4 -12 13 -12 25 0 17 93 -9 98 -14 3 -17 0 -13 -12z"/>
<path d="M670 3063 c0 -36 -2 -38 -30 -38 -28 0 -30 3 -28 30 2 22 -2 30 -16
33 -16 4 -18 0 -12 -32 7 -36 2 -41 -33 -36 -10 1 -12 -6 -7 -30 3 -18 6 -36
6 -41 0 -5 7 -9 16 -9 10 0 14 -7 12 -22 -2 -17 -11 -24 -30 -26 -16 -2 -28
-7 -28 -12 0 -19 23 -21 67 -4 35 13 48 15 51 6 7 -21 22 -13 22 12 0 26 -21
47 -28 28 -6 -19 -22 -14 -22 8 0 13 7 20 20 20 11 0 20 7 20 15 0 8 8 23 18
33 24 24 36 102 16 102 -10 0 -14 -12 -14 -37z m-44 -90 c-11 -11 -19 6 -11
24 8 17 8 17 12 0 3 -10 2 -21 -1 -24z m-49 -5 c-3 -7 -5 -2 -5 12 0 14 2 19
5 13 2 -7 2 -19 0 -25z"/>
<path d="M313 2875 c4 -8 2 -17 -4 -20 -5 -4 -12 1 -15 9 -7 17 -54 22 -54 6
0 -5 9 -14 20 -20 27 -14 25 -28 -5 -36 -27 -7 -34 -24 -10 -24 8 0 26 5 39
12 21 9 29 8 44 -5 20 -19 102 -24 102 -7 0 6 -5 10 -10 10 -6 0 -27 7 -47 15
-35 15 -35 16 -18 34 21 24 12 41 -22 41 -18 0 -24 -4 -20 -15z"/>
<path d="M713 2647 c3 -9 2 -17 -4 -19 -14 -5 13 -68 29 -68 9 0 12 13 10 47
-2 38 -7 49 -22 51 -14 3 -17 0 -13 -11z"/>
<path d="M670 2613 c0 -36 -2 -38 -30 -38 -28 0 -30 3 -28 30 2 22 -2 30 -16
33 -16 4 -18 0 -12 -32 7 -36 2 -41 -33 -36 -10 1 -12 -6 -7 -30 3 -18 6 -36
6 -41 0 -5 7 -9 16 -9 10 0 14 -7 12 -22 -2 -17 -11 -24 -30 -26 -16 -2 -28
-7 -28 -12 0 -19 23 -21 67 -4 35 13 48 15 51 6 7 -21 22 -13 22 12 0 26 -21
47 -28 28 -6 -19 -22 -14 -22 8 0 13 7 20 18 20 10 0 22 12 29 30 8 20 18 30
32 30 12 0 21 5 21 10 0 6 -5 10 -11 10 -8 0 -10 12 -6 35 4 26 2 35 -9 35
-10 0 -14 -12 -14 -37z m-44 -90 c-11 -11 -19 6 -11 24 8 17 8 17 12 0 3 -10
2 -21 -1 -24z m-49 -5 c-3 -7 -5 -2 -5 12 0 14 2 19 5 13 2 -7 2 -19 0 -25z"/>
<path d="M713 2197 c3 -9 2 -17 -4 -19 -14 -5 13 -68 29 -68 9 0 12 13 10 47
-2 38 -7 49 -22 51 -14 3 -17 0 -13 -11z"/>
<path d="M760 2190 c0 -11 5 -20 10 -20 6 0 10 9 10 20 0 11 -4 20 -10 20 -5
0 -10 -9 -10 -20z"/>
<path d="M670 2163 c0 -36 -2 -38 -30 -38 -28 0 -30 3 -28 30 2 22 -2 30 -16
33 -16 4 -18 0 -12 -32 7 -36 2 -41 -33 -36 -10 1 -12 -6 -7 -30 3 -18 6 -36
6 -41 0 -5 7 -9 16 -9 10 0 14 -7 12 -22 -2 -17 -11 -24 -30 -26 -16 -2 -28
-7 -28 -12 0 -19 23 -21 67 -4 35 13 48 15 51 6 7 -21 22 -13 22 12 0 26 -21
47 -28 28 -6 -19 -22 -14 -22 8 0 13 7 20 18 20 10 0 22 12 29 30 8 20 18 30
32 30 12 0 21 5 21 10 0 6 -5 10 -11 10 -8 0 -10 12 -6 35 4 26 2 35 -9 35
-10 0 -14 -12 -14 -37z m-44 -90 c-11 -11 -19 6 -11 24 8 17 8 17 12 0 3 -10
2 -21 -1 -24z m-49 -5 c-3 -7 -5 -2 -5 12 0 14 2 19 5 13 2 -7 2 -19 0 -25z"/>
<path d="M760 2130 c0 -5 5 -10 10 -10 6 0 10 5 10 10 0 6 -4 10 -10 10 -5 0
-10 -4 -10 -10z"/>
<path d="M713 1747 c3 -9 2 -17 -4 -19 -14 -5 13 -68 29 -68 9 0 12 13 10 47
-2 38 -7 49 -22 51 -14 3 -17 0 -13 -11z"/>
<path d="M760 1740 c0 -21 15 -27 25 -10 3 6 13 10 21 10 10 0 14 -12 14 -41
0 -58 24 -46 28 14 l3 47 -45 0 c-39 0 -46 -3 -46 -20z"/>
<path d="M670 1713 c0 -36 -2 -38 -30 -38 -28 0 -30 3 -28 30 2 22 -2 30 -16
33 -16 4 -18 0 -12 -32 7 -36 2 -41 -33 -36 -10 1 -12 -6 -7 -30 3 -18 6 -36
6 -41 0 -5 7 -9 16 -9 10 0 14 -7 12 -22 -2 -17 -11 -24 -30 -26 -16 -2 -28
-7 -28 -12 0 -19 23 -21 67 -4 35 13 48 15 51 6 7 -21 22 -13 22 12 0 26 -21
47 -28 28 -6 -19 -22 -14 -22 8 0 13 7 20 18 20 10 0 22 12 29 30 8 20 18 30
32 30 12 0 21 5 21 10 0 6 -5 10 -11 10 -8 0 -10 12 -6 35 4 26 2 35 -9 35
-10 0 -14 -12 -14 -37z m-44 -90 c-11 -11 -19 6 -11 24 8 17 8 17 12 0 3 -10
2 -21 -1 -24z m-49 -5 c-3 -7 -5 -2 -5 12 0 14 2 19 5 13 2 -7 2 -19 0 -25z"/>
<path d="M760 1680 c0 -5 5 -10 10 -10 6 0 10 5 10 10 0 6 -4 10 -10 10 -5 0
-10 -4 -10 -10z"/>
<path d="M713 1297 c3 -9 2 -17 -4 -19 -14 -5 13 -68 29 -68 9 0 12 13 10 47
-2 38 -7 49 -22 51 -14 3 -17 0 -13 -11z"/>
<path d="M762 1288 c4 -25 28 -37 28 -14 0 9 4 16 9 16 12 0 21 -25 21 -57 0
-45 25 -19 28 30 l3 47 -46 0 c-42 0 -46 -2 -43 -22z"/>
<path d="M670 1263 c0 -36 -2 -38 -30 -38 -28 0 -30 3 -28 30 2 22 -2 30 -16
33 -16 4 -18 0 -12 -32 7 -36 2 -41 -33 -36 -10 1 -12 -6 -7 -30 3 -18 6 -36
6 -41 0 -5 7 -9 16 -9 10 0 14 -7 12 -22 -2 -17 -11 -24 -30 -26 -16 -2 -28
-7 -28 -12 0 -19 23 -21 67 -4 35 13 48 15 51 6 7 -21 22 -13 22 12 0 26 -21
47 -28 28 -6 -19 -22 -14 -22 8 0 13 7 20 18 20 10 0 22 12 29 30 8 20 18 30
32 30 12 0 21 5 21 10 0 6 -5 10 -11 10 -8 0 -10 12 -6 35 4 26 2 35 -9 35
-10 0 -14 -12 -14 -37z m-44 -90 c-11 -11 -19 6 -11 24 8 17 8 17 12 0 3 -10
2 -21 -1 -24z m-49 -5 c-3 -7 -5 -2 -5 12 0 14 2 19 5 13 2 -7 2 -19 0 -25z"/>
<path d="M760 1230 c0 -5 5 -10 10 -10 6 0 10 5 10 10 0 6 -4 10 -10 10 -5 0
-10 -4 -10 -10z"/>
<path d="M713 847 c3 -9 2 -17 -4 -19 -14 -5 13 -68 29 -68 9 0 12 13 10 47
-2 38 -7 49 -22 51 -14 3 -17 0 -13 -11z"/>
<path d="M763 815 c1 -25 5 -45 10 -45 4 0 7 5 7 10 0 6 7 10 15 10 8 0 15 5
15 10 0 6 -4 10 -10 10 -5 0 -10 7 -10 15 0 8 4 15 9 15 12 0 21 -25 21 -57 0
-45 25 -19 28 30 l3 47 -45 0 -44 0 1 -45z"/>
<path d="M670 813 c0 -36 -2 -38 -30 -38 -28 0 -30 3 -28 30 2 22 -2 30 -16
33 -16 4 -18 0 -12 -32 7 -36 2 -41 -33 -36 -10 1 -12 -6 -7 -30 3 -18 6 -36
6 -41 0 -5 7 -9 16 -9 10 0 14 -7 12 -22 -2 -17 -11 -24 -30 -26 -16 -2 -28
-7 -28 -12 0 -19 23 -21 67 -4 35 13 48 15 51 6 7 -21 22 -13 22 12 0 26 -21
47 -28 28 -6 -19 -22 -14 -22 8 0 13 7 20 18 20 10 0 22 12 29 30 8 20 18 30
32 30 12 0 21 5 21 10 0 6 -5 10 -11 10 -8 0 -10 12 -6 35 4 26 2 35 -9 35
-10 0 -14 -12 -14 -37z m-44 -90 c-11 -11 -19 6 -11 24 8 17 8 17 12 0 3 -10
2 -21 -1 -24z m-49 -5 c-3 -7 -5 -2 -5 12 0 14 2 19 5 13 2 -7 2 -19 0 -25z"/>
<path d="M713 397 c3 -9 2 -17 -4 -19 -14 -5 13 -68 29 -68 9 0 12 13 10 47
-2 38 -7 49 -22 51 -14 3 -17 0 -13 -11z"/>
<path d="M763 366 c2 -43 3 -45 37 -49 19 -2 38 -2 43 0 4 2 7 24 7 49 l0 44
-44 0 -44 0 1 -44z m51 8 c10 -27 7 -36 -9 -20 -8 8 -15 19 -15 25 0 17 17 13
24 -5z"/>
<path d="M670 363 c0 -36 -2 -38 -30 -38 -28 0 -30 3 -28 30 2 22 -2 30 -16
33 -16 4 -18 0 -12 -32 7 -36 2 -41 -33 -36 -10 1 -12 -6 -7 -30 3 -18 6 -36
6 -41 0 -5 7 -9 16 -9 10 0 14 -7 12 -22 -2 -17 -11 -24 -30 -26 -16 -2 -28
-7 -28 -12 0 -19 23 -21 67 -4 35 13 48 15 51 6 7 -21 22 -13 22 12 0 26 -21
47 -28 28 -6 -19 -22 -14 -22 8 0 13 7 20 18 20 10 0 22 12 29 30 8 20 18 30
32 30 12 0 21 5 21 10 0 6 -5 10 -11 10 -8 0 -10 12 -6 35 4 26 2 35 -9 35
-10 0 -14 -12 -14 -37z m-44 -90 c-11 -11 -19 6 -11 24 8 17 8 17 12 0 3 -10
2 -21 -1 -24z m-49 -5 c-3 -7 -5 -2 -5 12 0 14 2 19 5 13 2 -7 2 -19 0 -25z"/>
</g>
</svg>
