<?xml version="1.0" standalone="no"?>
<!DOCTYPE svg PUBLIC "-//W3C//DTD SVG 20010904//EN"
 "http://www.w3.org/TR/2001/REC-SVG-20010904/DTD/svg10.dtd">
<svg version="1.0" xmlns="http://www.w3.org/2000/svg"
 width="50.000000pt" height="725.000000pt" viewBox="0 0 50.000000 725.000000"
 preserveAspectRatio="xMidYMid meet">
<metadata>
Created by potrace 1.16, written by Peter Selinger 2001-2019
</metadata>
<g transform="translate(0.000000,725.000000) scale(0.100000,-0.100000)"
fill="#000000" stroke="none">
<path d="M121 7104 c-18 -25 -30 -49 -26 -52 8 -8 85 69 85 85 0 27 -27 11
-59 -33z"/>
<path d="M121 6654 c-18 -25 -30 -49 -26 -52 8 -8 85 69 85 85 0 27 -27 11
-59 -33z"/>
<path d="M150 6625 c0 -9 -14 -37 -32 -61 -17 -24 -28 -47 -24 -51 13 -12 87
78 84 101 -4 24 -28 34 -28 11z"/>
<path d="M121 6204 c-18 -25 -30 -49 -26 -52 8 -8 85 69 85 85 0 27 -27 11
-59 -33z"/>
<path d="M150 6174 c0 -9 -14 -36 -32 -60 -31 -44 -33 -69 -2 -43 15 12 16 8
9 -48 -5 -42 -3 -63 5 -68 17 -10 18 -7 22 80 3 44 11 90 18 101 14 22 8 54
-10 54 -5 0 -10 -7 -10 -16z"/>
<path d="M121 5754 c-18 -25 -30 -49 -26 -52 8 -8 85 69 85 85 0 27 -27 11
-59 -33z"/>
<path d="M150 5724 c0 -9 -14 -36 -32 -60 -31 -44 -33 -69 -2 -43 15 12 16 8
9 -48 -5 -42 -3 -63 5 -68 17 -10 18 -7 22 81 5 83 12 109 29 98 6 -3 35 -3
65 1 39 5 54 11 54 22 0 11 -6 14 -22 9 -13 -3 -39 -9 -59 -12 -31 -5 -37 -3
-42 15 -6 24 -27 28 -27 5z"/>
<path d="M121 5304 c-18 -25 -30 -49 -26 -52 8 -8 85 69 85 85 0 27 -27 11
-59 -33z"/>
<path d="M197 5280 c6 -33 -11 -42 -20 -10 -6 24 -27 27 -27 4 0 -9 -14 -36
-32 -60 -31 -44 -33 -69 -2 -43 15 12 16 8 9 -48 -5 -42 -3 -63 5 -68 17 -10
18 -7 22 81 3 44 8 86 12 92 11 18 36 2 36 -24 0 -15 6 -24 15 -24 9 0 15 9
15 24 0 24 16 36 51 36 10 0 19 7 19 15 0 13 -7 15 -35 9 -33 -6 -35 -5 -35
20 0 19 -5 26 -20 26 -16 0 -19 -5 -13 -30z"/>
<path d="M121 4854 c-18 -25 -30 -49 -26 -52 8 -8 85 69 85 85 0 27 -27 11
-59 -33z"/>
<path d="M258 4858 c-3 -46 -28 -67 -28 -24 0 19 -5 26 -20 26 -16 0 -19 -5
-13 -30 6 -33 -11 -42 -20 -10 -6 24 -27 27 -27 4 0 -9 -14 -36 -32 -60 -31
-44 -33 -69 -2 -43 15 12 16 8 9 -48 -5 -42 -3 -63 5 -68 17 -10 18 -7 22 81
3 44 8 86 12 92 11 18 36 2 36 -24 0 -15 6 -24 15 -24 9 0 15 9 15 25 0 14 5
25 10 25 6 0 10 -9 10 -20 0 -28 18 -25 26 5 3 14 10 25 15 25 5 0 9 7 9 15 0
8 -4 15 -9 15 -5 0 -7 18 -4 40 5 32 2 40 -10 40 -11 0 -17 -12 -19 -42z"/>
<path d="M121 4404 c-18 -25 -30 -49 -26 -52 8 -8 85 69 85 85 0 27 -27 11
-59 -33z"/>
<path d="M258 4408 c-3 -46 -28 -67 -28 -24 0 19 -5 26 -20 26 -16 0 -19 -5
-13 -30 6 -33 -11 -42 -20 -10 -6 24 -27 27 -27 4 0 -9 -14 -36 -32 -60 -31
-44 -33 -69 -2 -43 15 12 16 8 9 -48 -5 -42 -3 -63 5 -68 17 -10 18 -7 22 81
5 88 11 106 33 97 20 -7 19 -43 0 -43 -8 0 -15 -5 -15 -11 0 -8 22 -9 73 -4
39 4 74 9 77 12 7 7 -24 23 -36 19 -7 -3 -10 3 -7 15 3 10 9 19 14 19 5 0 9 7
9 15 0 8 -4 15 -9 15 -5 0 -7 18 -4 40 5 32 2 40 -10 40 -11 0 -17 -12 -19
-42z m-8 -93 c0 -8 -4 -15 -10 -15 -5 0 -10 7 -10 15 0 8 5 15 10 15 6 0 10
-7 10 -15z"/>
<path d="M121 3954 c-18 -25 -30 -49 -26 -52 8 -8 85 69 85 85 0 27 -27 11
-59 -33z"/>
<path d="M258 3958 c-3 -46 -28 -67 -28 -24 0 19 -5 26 -20 26 -16 0 -19 -5
-13 -30 6 -33 -11 -42 -20 -10 -6 24 -27 27 -27 4 0 -9 -14 -36 -32 -60 -31
-44 -33 -69 -2 -43 15 12 16 8 9 -48 -5 -42 -3 -63 5 -68 17 -10 18 -7 22 81
5 88 11 106 33 97 20 -7 19 -43 0 -43 -8 0 -15 -4 -15 -10 0 -5 7 -10 15 -10
20 0 19 -19 -2 -42 -23 -25 -9 -34 23 -14 17 12 24 24 21 36 -6 22 11 30 59
30 19 0 34 4 34 9 0 11 -29 23 -40 16 -4 -3 -6 4 -3 15 3 11 9 20 14 20 5 0 9
7 9 15 0 8 -4 15 -9 15 -5 0 -7 18 -4 40 5 32 2 40 -10 40 -11 0 -17 -12 -19
-42z m-8 -93 c0 -8 -4 -15 -10 -15 -5 0 -10 7 -10 15 0 8 5 15 10 15 6 0 10
-7 10 -15z"/>
<path d="M121 3504 c-18 -25 -30 -49 -26 -52 8 -8 85 69 85 85 0 27 -27 11
-59 -33z"/>
<path d="M258 3508 c-3 -46 -28 -67 -28 -24 0 19 -5 26 -20 26 -16 0 -19 -5
-13 -30 6 -33 -11 -42 -20 -10 -6 24 -27 27 -27 4 0 -9 -14 -36 -32 -60 -31
-44 -33 -69 -2 -43 15 12 16 8 9 -48 -5 -42 -3 -63 5 -68 17 -10 18 -7 22 81
5 88 11 106 33 97 20 -7 19 -43 0 -43 -8 0 -15 -4 -15 -10 0 -5 7 -10 15 -10
20 0 19 -19 -2 -42 -23 -25 -9 -34 23 -14 17 12 24 24 21 36 -6 22 11 30 59
30 19 0 34 4 34 9 0 11 -29 23 -40 16 -4 -3 -6 4 -3 15 3 11 9 20 14 20 5 0 9
7 9 15 0 8 -4 15 -9 15 -5 0 -7 18 -4 40 5 32 2 40 -10 40 -11 0 -17 -12 -19
-42z m-8 -93 c0 -8 -4 -15 -10 -15 -5 0 -10 7 -10 15 0 8 5 15 10 15 6 0 10
-7 10 -15z"/>
<path d="M260 3355 c0 -12 24 -55 31 -55 15 0 20 20 9 40 -9 17 -40 29 -40 15z"/>
<path d="M121 3054 c-18 -25 -30 -49 -26 -52 8 -8 85 69 85 85 0 27 -27 11
-59 -33z"/>
<path d="M258 3058 c-3 -46 -28 -67 -28 -24 0 19 -5 26 -20 26 -16 0 -19 -5
-13 -30 6 -33 -11 -42 -20 -10 -6 24 -27 27 -27 4 0 -9 -14 -36 -32 -60 -31
-44 -33 -69 -2 -43 15 12 16 8 9 -48 -5 -42 -3 -63 5 -68 17 -10 18 -7 22 81
5 88 11 106 33 97 20 -7 19 -43 0 -43 -8 0 -15 -4 -15 -10 0 -5 7 -10 15 -10
20 0 19 -19 -2 -42 -23 -25 -9 -34 23 -14 17 12 24 24 21 36 -6 22 11 30 59
30 19 0 34 4 34 9 0 11 -29 23 -40 16 -4 -3 -6 4 -3 15 3 11 9 20 14 20 5 0 9
7 9 15 0 8 -4 15 -9 15 -5 0 -7 18 -4 40 5 32 2 40 -10 40 -11 0 -17 -12 -19
-42z m-8 -93 c0 -8 -4 -15 -10 -15 -5 0 -10 7 -10 15 0 8 5 15 10 15 6 0 10
-7 10 -15z"/>
<path d="M343 3053 c-32 -6 -29 -23 5 -23 37 0 72 10 72 21 0 9 -36 10 -77 2z"/>
<path d="M260 2905 c0 -12 24 -55 31 -55 15 0 20 20 9 40 -9 17 -40 29 -40 15z"/>
<path d="M121 2604 c-18 -25 -30 -49 -26 -52 8 -8 85 69 85 85 0 27 -27 11
-59 -33z"/>
<path d="M258 2608 c-3 -46 -28 -67 -28 -24 0 19 -5 26 -20 26 -16 0 -19 -5
-13 -30 6 -33 -11 -42 -20 -10 -6 24 -27 27 -27 4 0 -9 -14 -36 -32 -60 -31
-44 -33 -69 -2 -43 15 12 16 8 9 -48 -5 -42 -3 -63 5 -68 17 -10 18 -7 22 81
5 88 11 106 33 97 20 -7 19 -43 0 -43 -8 0 -15 -4 -15 -10 0 -5 7 -10 15 -10
20 0 19 -19 -2 -42 -23 -25 -9 -34 23 -14 17 12 24 24 21 36 -6 22 11 30 59
30 19 0 34 4 34 9 0 11 -29 23 -40 16 -4 -3 -6 4 -3 15 5 20 23 28 23 10 0
-11 81 -13 118 -4 12 4 22 11 22 16 0 6 -26 7 -70 3 -60 -6 -70 -5 -70 9 0 9
-4 16 -9 16 -5 0 -7 18 -4 40 5 32 2 40 -10 40 -11 0 -17 -12 -19 -42z m-8
-93 c0 -8 -4 -15 -10 -15 -5 0 -10 7 -10 15 0 8 5 15 10 15 6 0 10 -7 10 -15z"/>
<path d="M343 2603 c-32 -6 -29 -23 5 -23 37 0 72 10 72 21 0 9 -36 10 -77 2z"/>
<path d="M260 2455 c0 -12 24 -55 31 -55 15 0 20 20 9 40 -9 17 -40 29 -40 15z"/>
<path d="M121 2154 c-18 -25 -30 -49 -26 -52 8 -8 85 69 85 85 0 27 -27 11
-59 -33z"/>
<path d="M258 2158 c-3 -46 -28 -67 -28 -24 0 19 -5 26 -20 26 -16 0 -19 -5
-13 -30 6 -33 -11 -42 -20 -10 -6 24 -27 27 -27 4 0 -9 -14 -36 -32 -60 -31
-44 -33 -69 -2 -43 15 12 16 8 9 -48 -5 -42 -3 -63 5 -68 17 -10 18 -7 22 81
5 88 11 106 33 97 20 -7 19 -43 0 -43 -8 0 -15 -4 -15 -10 0 -5 7 -10 15 -10
20 0 19 -19 -2 -42 -23 -25 -9 -34 23 -14 17 12 24 24 21 36 -6 22 11 30 59
30 19 0 34 4 34 9 0 11 -29 23 -40 16 -4 -3 -6 4 -3 15 5 20 23 28 23 11 0 -5
12 -11 28 -13 26 -3 27 -5 30 -70 2 -58 0 -68 -14 -68 -11 0 -14 -5 -10 -16 3
-9 6 -18 6 -20 0 -2 9 -4 20 -4 18 0 20 7 20 79 0 81 12 111 46 111 8 0 14 5
14 11 0 8 -21 9 -70 4 -60 -6 -70 -5 -70 9 0 9 -4 16 -9 16 -5 0 -7 18 -4 40
5 32 2 40 -10 40 -11 0 -17 -12 -19 -42z m-8 -93 c0 -8 -4 -15 -10 -15 -5 0
-10 7 -10 15 0 8 5 15 10 15 6 0 10 -7 10 -15z"/>
<path d="M343 2153 c-32 -6 -29 -23 5 -23 37 0 72 10 72 21 0 9 -36 10 -77 2z"/>
<path d="M260 2005 c0 -12 24 -55 31 -55 15 0 20 20 9 40 -9 17 -40 29 -40 15z"/>
</g>
</svg>
