<?xml version="1.0" standalone="no"?>
<!DOCTYPE svg PUBLIC "-//W3C//DTD SVG 20010904//EN"
 "http://www.w3.org/TR/2001/REC-SVG-20010904/DTD/svg10.dtd">
<svg version="1.0" xmlns="http://www.w3.org/2000/svg"
 width="50.000000pt" height="725.000000pt" viewBox="0 0 50.000000 725.000000"
 preserveAspectRatio="xMidYMid meet">
<metadata>
Created by potrace 1.16, written by Peter Selinger 2001-2019
</metadata>
<g transform="translate(0.000000,725.000000) scale(0.100000,-0.100000)"
fill="#000000" stroke="none">
<path d="M115 7102 c-38 -60 -39 -62 -26 -62 17 0 81 72 81 92 0 32 -24 19
-55 -30z"/>
<path d="M115 6652 c-38 -60 -39 -62 -26 -62 17 0 81 72 81 92 0 32 -24 19
-55 -30z"/>
<path d="M155 6609 c-4 -12 -23 -39 -42 -60 -20 -22 -33 -42 -30 -46 19 -18
114 85 103 112 -8 21 -24 19 -31 -6z"/>
<path d="M115 6202 c-38 -60 -39 -62 -26 -62 17 0 81 72 81 92 0 32 -24 19
-55 -30z"/>
<path d="M155 6159 c-4 -12 -23 -39 -42 -60 -38 -42 -39 -58 -4 -39 21 11 21
9 19 -49 -1 -33 1 -64 5 -68 16 -15 27 23 27 92 0 48 5 78 16 93 16 23 13 52
-5 52 -5 0 -13 -9 -16 -21z"/>
<path d="M115 5752 c-38 -60 -39 -62 -26 -62 17 0 81 72 81 92 0 32 -24 19
-55 -30z"/>
<path d="M220 5730 c-8 -5 -12 -11 -9 -14 8 -8 79 6 79 15 0 12 -51 11 -70 -1z"/>
<path d="M155 5709 c-4 -12 -23 -39 -42 -60 -38 -42 -39 -58 -4 -39 21 11 21
9 19 -49 -1 -33 1 -64 5 -68 16 -15 27 23 27 92 0 48 5 78 16 93 16 23 13 52
-5 52 -5 0 -13 -9 -16 -21z"/>
<path d="M237 5325 c4 -26 2 -36 -11 -41 -20 -8 -21 -24 -1 -24 8 0 15 -7 15
-15 0 -8 5 -15 10 -15 6 0 10 9 10 20 0 11 7 20 15 20 19 0 20 16 2 23 -9 3
-12 16 -9 36 4 26 1 31 -16 31 -18 0 -20 -5 -15 -35z"/>
<path d="M115 5302 c-38 -60 -39 -62 -26 -62 17 0 81 72 81 92 0 32 -24 19
-55 -30z"/>
<path d="M155 5259 c-4 -12 -23 -39 -42 -60 -38 -42 -39 -58 -4 -39 21 11 21
9 19 -49 -1 -33 1 -64 5 -68 16 -15 27 23 27 92 0 48 5 78 16 93 16 23 13 52
-5 52 -5 0 -13 -9 -16 -21z"/>
<path d="M237 4875 c4 -26 2 -36 -11 -41 -20 -8 -21 -24 -1 -24 27 0 16 -18
-15 -25 -50 -11 -36 -28 18 -20 26 4 50 9 55 12 13 8 8 23 -8 23 -8 0 -15 5
-15 10 0 6 7 10 15 10 19 0 20 16 2 23 -9 3 -12 16 -9 36 4 26 1 31 -16 31
-18 0 -20 -5 -15 -35z"/>
<path d="M115 4852 c-38 -60 -39 -62 -26 -62 17 0 81 72 81 92 0 32 -24 19
-55 -30z"/>
<path d="M155 4809 c-4 -12 -23 -39 -42 -60 -38 -42 -39 -58 -4 -39 21 11 21
9 19 -49 -1 -33 1 -64 5 -68 16 -15 27 23 27 92 0 48 5 78 16 93 16 23 13 52
-5 52 -5 0 -13 -9 -16 -21z"/>
<path d="M237 4425 c4 -26 2 -36 -11 -41 -20 -8 -21 -24 -1 -24 27 0 16 -18
-15 -25 -50 -11 -36 -28 18 -20 26 4 50 9 55 12 13 8 8 23 -8 23 -8 0 -15 5
-15 10 0 6 7 10 15 10 19 0 20 16 2 23 -9 3 -12 16 -9 36 4 26 1 31 -16 31
-18 0 -20 -5 -15 -35z"/>
<path d="M115 4402 c-38 -60 -39 -62 -26 -62 17 0 81 72 81 92 0 32 -24 19
-55 -30z"/>
<path d="M155 4359 c-4 -12 -23 -39 -42 -60 -38 -42 -39 -58 -4 -39 21 11 21
9 19 -49 -1 -33 1 -64 5 -68 16 -15 27 23 27 92 0 48 5 78 16 93 16 23 13 52
-5 52 -5 0 -13 -9 -16 -21z"/>
<path d="M228 4283 c-37 -6 -36 -23 1 -23 35 0 61 9 61 21 0 9 -12 9 -62 2z"/>
<path d="M237 3975 c4 -26 2 -36 -11 -41 -20 -8 -21 -24 -1 -24 27 0 16 -18
-15 -25 -36 -8 -40 -25 -5 -25 16 0 25 -6 25 -15 0 -8 -7 -15 -15 -15 -8 0
-15 -4 -15 -10 0 -5 7 -10 15 -10 9 0 18 -7 21 -15 8 -20 24 -19 24 0 0 9 7
18 15 21 19 8 20 24 1 24 -22 0 -27 27 -5 33 22 6 26 27 4 27 -8 0 -15 5 -15
10 0 6 7 10 15 10 19 0 20 16 2 23 -9 3 -12 16 -9 36 4 26 1 31 -16 31 -18 0
-20 -5 -15 -35z"/>
<path d="M115 3952 c-38 -60 -39 -62 -26 -62 17 0 81 72 81 92 0 32 -24 19
-55 -30z"/>
<path d="M155 3909 c-4 -12 -23 -39 -42 -60 -38 -42 -39 -58 -4 -39 21 11 21
9 19 -49 -1 -33 1 -64 5 -68 16 -15 27 23 27 92 0 48 5 78 16 93 16 23 13 52
-5 52 -5 0 -13 -9 -16 -21z"/>
<path d="M237 3525 c4 -26 2 -36 -11 -41 -20 -8 -21 -24 -1 -24 27 0 16 -18
-15 -25 -36 -8 -40 -25 -5 -25 16 0 25 -6 25 -15 0 -8 -7 -15 -15 -15 -22 0
-18 -17 6 -23 27 -7 15 -27 -17 -27 -25 0 -32 -14 -13 -26 14 -8 119 26 119
39 0 5 -11 6 -25 3 -27 -7 -36 11 -10 20 19 8 20 24 1 24 -22 0 -27 27 -5 33
22 6 26 27 4 27 -8 0 -15 5 -15 10 0 6 7 10 15 10 19 0 20 16 2 23 -9 3 -12
16 -9 36 4 26 1 31 -16 31 -18 0 -20 -5 -15 -35z"/>
<path d="M115 3502 c-38 -60 -39 -62 -26 -62 17 0 81 72 81 92 0 32 -24 19
-55 -30z"/>
<path d="M155 3459 c-4 -12 -23 -39 -42 -60 -38 -42 -39 -58 -4 -39 21 11 21
9 19 -49 -1 -33 1 -64 5 -68 16 -15 27 23 27 92 0 48 5 78 16 93 16 23 13 52
-5 52 -5 0 -13 -9 -16 -21z"/>
<path d="M237 3075 c4 -26 2 -36 -11 -41 -20 -8 -21 -24 -1 -24 27 0 16 -18
-15 -25 -36 -8 -40 -25 -5 -25 16 0 25 -6 25 -15 0 -8 -7 -15 -15 -15 -22 0
-18 -17 6 -23 27 -7 15 -27 -17 -27 -25 0 -32 -14 -13 -26 14 -8 119 26 119
39 0 5 -11 6 -25 3 -27 -7 -36 11 -10 20 19 8 20 24 1 24 -22 0 -27 27 -5 33
22 6 26 27 4 27 -8 0 -15 5 -15 10 0 6 7 10 15 10 19 0 20 16 2 23 -9 3 -12
16 -9 36 4 26 1 31 -16 31 -18 0 -20 -5 -15 -35z"/>
<path d="M115 3052 c-38 -60 -39 -62 -26 -62 17 0 81 72 81 92 0 32 -24 19
-55 -30z"/>
<path d="M335 3039 c-4 -6 -5 -12 -4 -13 8 -7 79 7 79 15 0 13 -67 11 -75 -2z"/>
<path d="M155 3009 c-4 -12 -23 -39 -42 -60 -38 -42 -39 -58 -4 -39 21 11 21
9 19 -49 -1 -33 1 -64 5 -68 16 -15 27 23 27 92 0 48 5 78 16 93 16 23 13 52
-5 52 -5 0 -13 -9 -16 -21z"/>
<path d="M237 2625 c4 -26 2 -36 -11 -41 -20 -8 -21 -24 -1 -24 27 0 16 -18
-15 -25 -36 -8 -40 -25 -5 -25 16 0 25 -6 25 -15 0 -8 -7 -15 -15 -15 -22 0
-18 -17 6 -23 27 -7 15 -27 -17 -27 -25 0 -32 -14 -13 -26 14 -8 119 26 119
39 0 5 -11 6 -25 3 -27 -7 -36 11 -10 20 19 8 20 24 1 24 -22 0 -27 27 -5 33
22 6 26 27 4 27 -8 0 -15 5 -15 10 0 6 7 10 15 10 19 0 20 16 2 23 -9 3 -12
16 -9 36 4 26 1 31 -16 31 -18 0 -20 -5 -15 -35z"/>
<path d="M115 2602 c-38 -60 -39 -62 -26 -62 17 0 81 72 81 92 0 32 -24 19
-55 -30z"/>
<path d="M335 2589 c-4 -6 -5 -12 -4 -13 8 -7 79 7 79 15 0 13 -67 11 -75 -2z"/>
<path d="M155 2559 c-4 -12 -23 -39 -42 -60 -38 -42 -39 -58 -4 -39 21 11 21
9 19 -49 -1 -33 1 -64 5 -68 16 -15 27 23 27 92 0 48 5 78 16 93 16 23 13 52
-5 52 -5 0 -13 -9 -16 -21z"/>
<path d="M353 2537 c-77 -14 -66 -30 15 -22 74 8 77 9 67 24 -7 12 -10 12 -82
-2z"/>
<path d="M237 2175 c4 -26 2 -36 -11 -41 -20 -8 -21 -24 -1 -24 27 0 16 -18
-15 -25 -36 -8 -40 -25 -5 -25 16 0 25 -6 25 -15 0 -8 -7 -15 -15 -15 -22 0
-18 -17 6 -23 27 -7 15 -27 -17 -27 -25 0 -32 -14 -13 -26 14 -8 119 26 119
39 0 5 -11 6 -25 3 -27 -7 -36 11 -10 20 19 8 20 24 1 24 -22 0 -27 27 -5 33
22 6 26 27 4 27 -8 0 -15 5 -15 10 0 6 7 10 15 10 19 0 20 16 2 23 -9 3 -12
16 -9 36 4 26 1 31 -16 31 -18 0 -20 -5 -15 -35z"/>
<path d="M115 2152 c-38 -60 -39 -62 -26 -62 17 0 81 72 81 92 0 32 -24 19
-55 -30z"/>
<path d="M335 2139 c-4 -6 -5 -12 -4 -13 8 -7 79 7 79 15 0 13 -67 11 -75 -2z"/>
<path d="M155 2109 c-4 -12 -23 -39 -42 -60 -38 -42 -39 -58 -4 -39 21 11 21
9 19 -49 -1 -33 1 -64 5 -68 16 -15 27 23 27 92 0 48 5 78 16 93 16 23 13 52
-5 52 -5 0 -13 -9 -16 -21z"/>
<path d="M353 2087 c-55 -10 -72 -27 -28 -27 24 0 25 -2 25 -70 0 -57 -3 -70
-16 -70 -19 0 -14 -20 9 -34 27 -17 37 9 37 102 l0 82 31 0 c20 0 29 4 27 13
-6 16 -22 17 -85 4z"/>
</g>
</svg>
