<?xml version="1.0" standalone="no"?>
<!DOCTYPE svg PUBLIC "-//W3C//DTD SVG 20010904//EN"
 "http://www.w3.org/TR/2001/REC-SVG-20010904/DTD/svg10.dtd">
<svg version="1.0" xmlns="http://www.w3.org/2000/svg"
 width="50.000000pt" height="725.000000pt" viewBox="0 0 50.000000 725.000000"
 preserveAspectRatio="xMidYMid meet">
<metadata>
Created by potrace 1.16, written by Peter Selinger 2001-2019
</metadata>
<g transform="translate(0.000000,725.000000) scale(0.100000,-0.100000)"
fill="#000000" stroke="none">
<path d="M126 7119 c-15 -22 -25 -44 -21 -47 9 -10 78 65 71 77 -12 19 -22 13
-50 -30z"/>
<path d="M126 6669 c-15 -22 -25 -44 -21 -47 9 -10 78 65 71 77 -12 19 -22 13
-50 -30z"/>
<path d="M136 6602 c-8 -15 -23 -36 -35 -46 -23 -21 -27 -36 -9 -36 16 0 88
78 88 95 0 25 -29 17 -44 -13z"/>
<path d="M126 6219 c-15 -22 -25 -44 -21 -47 9 -10 78 65 71 77 -12 19 -22 13
-50 -30z"/>
<path d="M139 6158 c-6 -13 -23 -35 -37 -50 -29 -31 -25 -45 9 -28 l22 12 -7
-71 c-6 -61 -5 -71 8 -71 13 0 16 13 18 63 2 100 4 117 17 130 6 6 11 17 11
24 0 21 -28 15 -41 -9z"/>
<path d="M126 5769 c-15 -22 -25 -44 -21 -47 9 -10 78 65 71 77 -12 19 -22 13
-50 -30z"/>
<path d="M236 5795 c-10 -8 -24 -16 -30 -18 -6 -2 -8 -7 -4 -11 10 -12 88 16
88 31 0 17 -30 16 -54 -2z"/>
<path d="M139 5708 c-6 -13 -23 -35 -37 -50 -29 -31 -25 -45 9 -28 l22 12 -7
-71 c-6 -61 -5 -71 8 -71 13 0 16 13 18 63 2 100 4 117 17 130 6 6 11 17 11
24 0 21 -28 15 -41 -9z"/>
<path d="M126 5319 c-15 -22 -25 -44 -21 -47 9 -10 78 65 71 77 -12 19 -22 13
-50 -30z"/>
<path d="M236 5345 c-10 -8 -24 -16 -30 -18 -6 -2 -8 -7 -4 -11 10 -12 88 16
88 31 0 17 -30 16 -54 -2z"/>
<path d="M212 5293 c-45 -11 -65 -21 -73 -36 -6 -12 -23 -34 -37 -49 -29 -31
-25 -45 9 -28 l22 12 -7 -71 c-6 -61 -5 -71 8 -71 13 0 16 14 18 68 1 37 2 74
3 84 2 29 28 68 46 68 35 0 119 22 119 31 0 12 -32 10 -108 -8z"/>
<path d="M126 4869 c-15 -22 -25 -44 -21 -47 9 -10 78 65 71 77 -12 19 -22 13
-50 -30z"/>
<path d="M236 4895 c-10 -8 -24 -16 -30 -18 -6 -2 -8 -7 -4 -11 10 -12 88 16
88 31 0 17 -30 16 -54 -2z"/>
<path d="M212 4843 c-45 -11 -65 -21 -73 -36 -6 -12 -23 -34 -37 -49 -29 -31
-25 -45 9 -28 l22 12 -7 -71 c-6 -61 -5 -71 8 -71 13 0 16 14 18 68 1 37 2 74
3 84 2 29 28 68 46 68 35 0 119 22 119 31 0 12 -32 10 -108 -8z"/>
<path d="M184 4778 c3 -13 6 -31 6 -40 0 -10 5 -18 10 -18 6 0 10 18 10 40 0
30 -4 40 -16 40 -12 0 -15 -6 -10 -22z"/>
<path d="M126 4419 c-15 -22 -25 -44 -21 -47 9 -10 78 65 71 77 -12 19 -22 13
-50 -30z"/>
<path d="M236 4445 c-10 -8 -24 -16 -30 -18 -6 -2 -8 -7 -4 -11 10 -12 88 16
88 31 0 17 -30 16 -54 -2z"/>
<path d="M212 4393 c-45 -11 -65 -21 -73 -36 -6 -12 -23 -34 -37 -49 -29 -31
-25 -45 9 -28 l22 12 -7 -71 c-6 -61 -5 -71 8 -71 13 0 16 14 18 68 1 37 2 74
3 84 2 29 28 68 46 68 35 0 119 22 119 31 0 12 -32 10 -108 -8z"/>
<path d="M275 4325 c0 -54 16 -58 34 -9 11 30 11 38 0 45 -27 17 -34 9 -34
-36z"/>
<path d="M230 4350 c0 -5 7 -10 15 -10 8 0 15 5 15 10 0 6 -7 10 -15 10 -8 0
-15 -4 -15 -10z"/>
<path d="M184 4328 c3 -13 6 -31 6 -40 0 -10 5 -18 10 -18 6 0 10 18 10 40 0
30 -4 40 -16 40 -12 0 -15 -6 -10 -22z"/>
<path d="M126 3969 c-15 -22 -25 -44 -21 -47 9 -10 78 65 71 77 -12 19 -22 13
-50 -30z"/>
<path d="M236 3995 c-10 -8 -24 -16 -30 -18 -6 -2 -8 -7 -4 -11 10 -12 88 16
88 31 0 17 -30 16 -54 -2z"/>
<path d="M212 3943 c-45 -11 -65 -21 -73 -36 -6 -12 -23 -34 -37 -49 -29 -31
-25 -45 9 -28 l22 12 -7 -71 c-6 -61 -5 -71 8 -71 13 0 16 14 18 68 1 37 2 74
3 84 2 29 28 68 46 68 35 0 119 22 119 31 0 12 -32 10 -108 -8z"/>
<path d="M275 3900 c5 -16 2 -20 -19 -20 -14 0 -26 -4 -26 -10 0 -5 11 -10 25
-10 18 0 23 -4 19 -15 -4 -9 0 -15 8 -15 8 0 20 16 27 36 11 30 11 38 0 45
-25 16 -41 10 -34 -11z"/>
<path d="M230 3900 c0 -5 7 -10 15 -10 8 0 15 5 15 10 0 6 -7 10 -15 10 -8 0
-15 -4 -15 -10z"/>
<path d="M184 3878 c3 -13 6 -31 6 -40 0 -10 5 -18 10 -18 6 0 10 18 10 40 0
30 -4 40 -16 40 -12 0 -15 -6 -10 -22z"/>
<path d="M126 3519 c-15 -22 -25 -44 -21 -47 9 -10 78 65 71 77 -12 19 -22 13
-50 -30z"/>
<path d="M236 3545 c-10 -8 -24 -16 -30 -18 -6 -2 -8 -7 -4 -11 10 -12 88 16
88 31 0 17 -30 16 -54 -2z"/>
<path d="M212 3493 c-45 -11 -65 -21 -73 -36 -6 -12 -23 -34 -37 -49 -29 -31
-25 -45 9 -28 l22 12 -7 -71 c-6 -61 -5 -71 8 -71 13 0 16 14 18 68 1 37 2 74
3 84 2 29 28 68 46 68 35 0 119 22 119 31 0 12 -32 10 -108 -8z"/>
<path d="M275 3450 c5 -16 2 -20 -19 -20 -35 0 -33 -20 2 -21 l27 -1 -25 -8
c-44 -14 -50 -11 -50 20 0 21 -5 30 -16 30 -12 0 -15 -6 -10 -22 3 -13 6 -31
6 -40 0 -15 8 -17 51 -15 50 3 52 5 67 41 13 32 13 39 1 47 -25 16 -41 11 -34
-11z"/>
<path d="M230 3450 c0 -5 7 -10 15 -10 8 0 15 5 15 10 0 6 -7 10 -15 10 -8 0
-15 -4 -15 -10z"/>
<path d="M126 3069 c-15 -22 -25 -44 -21 -47 9 -10 78 65 71 77 -12 19 -22 13
-50 -30z"/>
<path d="M236 3095 c-10 -8 -24 -16 -30 -18 -6 -2 -8 -7 -4 -11 10 -12 88 16
88 31 0 17 -30 16 -54 -2z"/>
<path d="M212 3043 c-45 -11 -65 -21 -73 -36 -6 -12 -23 -34 -37 -49 -29 -31
-25 -45 9 -28 l22 12 -7 -71 c-6 -61 -5 -71 8 -71 13 0 16 14 18 68 1 37 2 74
3 84 2 29 28 68 46 68 35 0 119 22 119 31 0 12 -32 10 -108 -8z"/>
<path d="M275 3000 c5 -16 2 -20 -19 -20 -35 0 -33 -20 2 -21 l27 -1 -25 -8
c-44 -14 -50 -11 -50 20 0 21 -5 30 -16 30 -12 0 -15 -6 -10 -22 3 -13 6 -31
6 -40 0 -15 8 -17 51 -15 50 3 52 5 67 41 13 32 13 39 1 47 -25 16 -41 11 -34
-11z"/>
<path d="M230 3000 c0 -5 7 -10 15 -10 8 0 15 5 15 10 0 6 -7 10 -15 10 -8 0
-15 -4 -15 -10z"/>
<path d="M218 2903 c-16 -2 -28 -9 -28 -15 0 -7 14 -8 38 -4 20 3 43 6 50 6 6
0 12 5 12 10 0 10 -20 11 -72 3z"/>
<path d="M126 2619 c-15 -22 -25 -44 -21 -47 9 -10 78 65 71 77 -12 19 -22 13
-50 -30z"/>
<path d="M228 2642 c-28 -17 -36 -32 -18 -32 25 0 6 -18 -25 -24 -21 -4 -39
-15 -46 -29 -6 -12 -23 -34 -37 -49 -29 -31 -25 -45 9 -28 l22 12 -7 -71 c-6
-61 -5 -71 8 -71 13 0 16 14 18 68 2 97 2 98 18 126 8 15 22 26 34 26 18 0 21
-6 22 -40 0 -22 -3 -40 -8 -40 -4 0 -8 14 -8 30 0 21 -5 30 -16 30 -12 0 -15
-6 -10 -22 3 -13 6 -31 6 -40 0 -11 8 -18 20 -18 11 0 20 -4 20 -10 0 -5 -9
-10 -20 -10 -11 0 -20 -4 -20 -10 0 -5 9 -10 20 -10 11 0 20 -7 20 -15 0 -8 5
-15 10 -15 6 0 10 7 10 16 0 9 9 18 20 21 11 3 20 9 20 14 0 5 -9 9 -20 9 -11
0 -20 4 -20 10 0 5 9 9 21 7 28 -3 61 69 38 84 -25 16 -41 11 -34 -11 4 -13 2
-20 -7 -20 -7 0 -14 11 -14 24 -2 20 4 25 32 31 46 8 45 29 -1 22 -37 -6 -50
11 -15 20 25 7 27 33 3 32 -10 0 -30 -8 -45 -17z m49 -138 c-3 -3 -12 -4 -19
-1 -8 3 -5 6 6 6 11 1 17 -2 13 -5z"/>
<path d="M126 2169 c-15 -22 -25 -44 -21 -47 9 -10 78 65 71 77 -12 19 -22 13
-50 -30z"/>
<path d="M228 2192 c-28 -17 -36 -32 -18 -32 25 0 6 -18 -25 -24 -21 -4 -39
-15 -46 -29 -6 -12 -23 -34 -37 -49 -29 -31 -25 -45 9 -28 l22 12 -7 -71 c-6
-61 -5 -71 8 -71 13 0 16 14 18 68 2 97 2 98 18 126 8 15 22 26 34 26 18 0 21
-6 22 -40 0 -22 -3 -40 -8 -40 -4 0 -8 14 -8 30 0 21 -5 30 -16 30 -12 0 -15
-6 -10 -22 3 -13 6 -31 6 -40 0 -11 8 -18 20 -18 11 0 20 -4 20 -10 0 -5 -9
-10 -20 -10 -11 0 -20 -4 -20 -10 0 -5 9 -10 20 -10 11 0 20 -4 20 -10 0 -5
-11 -10 -25 -10 -25 0 -33 -14 -16 -25 13 -7 131 26 131 37 0 5 -16 6 -36 2
-27 -5 -35 -4 -30 5 4 6 14 11 22 11 8 0 14 5 14 10 0 6 -9 10 -20 10 -11 0
-20 4 -20 10 0 5 9 9 21 7 28 -3 61 69 38 84 -25 16 -41 11 -34 -11 4 -13 2
-20 -7 -20 -7 0 -14 11 -14 24 -2 20 4 25 32 31 46 8 45 29 -1 22 -37 -6 -50
11 -15 20 25 7 27 33 3 32 -10 0 -30 -8 -45 -17z m49 -138 c-3 -3 -12 -4 -19
-1 -8 3 -5 6 6 6 11 1 17 -2 13 -5z"/>
<path d="M126 1719 c-15 -22 -25 -44 -21 -47 9 -10 78 65 71 77 -12 19 -22 13
-50 -30z"/>
<path d="M228 1742 c-28 -17 -36 -32 -18 -32 25 0 6 -18 -25 -24 -21 -4 -39
-15 -46 -29 -6 -12 -23 -34 -37 -49 -29 -31 -25 -45 9 -28 l22 12 -7 -71 c-6
-61 -5 -71 8 -71 13 0 16 14 18 68 2 97 2 98 18 126 8 15 22 26 34 26 18 0 21
-6 22 -40 0 -22 -3 -40 -8 -40 -4 0 -8 14 -8 30 0 21 -5 30 -16 30 -12 0 -15
-6 -10 -22 3 -13 6 -31 6 -40 0 -11 8 -18 20 -18 11 0 20 -4 20 -10 0 -5 -9
-10 -20 -10 -11 0 -20 -4 -20 -10 0 -5 9 -10 20 -10 11 0 20 -4 20 -10 0 -5
-11 -10 -25 -10 -25 0 -33 -14 -16 -25 13 -7 131 26 131 37 0 5 -16 6 -36 2
-27 -5 -35 -4 -30 5 4 6 14 11 22 11 8 0 14 5 14 10 0 6 -9 10 -20 10 -11 0
-20 4 -20 10 0 5 9 9 21 7 28 -3 61 69 38 84 -25 16 -41 11 -34 -11 4 -13 2
-20 -7 -20 -7 0 -14 11 -14 24 -2 20 4 25 32 31 46 8 45 29 -1 22 -37 -6 -50
11 -15 20 25 7 27 33 3 32 -10 0 -30 -8 -45 -17z m49 -138 c-3 -3 -12 -4 -19
-1 -8 3 -5 6 6 6 11 1 17 -2 13 -5z"/>
<path d="M363 1703 c-36 -7 -27 -23 13 -23 23 0 34 4 32 12 -5 14 -15 17 -45
11z"/>
<path d="M126 1269 c-15 -22 -25 -44 -21 -47 9 -10 78 65 71 77 -12 19 -22 13
-50 -30z"/>
<path d="M228 1292 c-28 -17 -36 -32 -18 -32 25 0 6 -18 -25 -24 -21 -4 -39
-15 -46 -29 -6 -12 -23 -34 -37 -49 -29 -31 -25 -45 9 -28 l22 12 -7 -71 c-6
-61 -5 -71 8 -71 13 0 16 14 18 68 2 97 2 98 18 126 8 15 22 26 34 26 18 0 21
-6 22 -40 0 -22 -3 -40 -8 -40 -4 0 -8 14 -8 30 0 21 -5 30 -16 30 -12 0 -15
-6 -10 -22 3 -13 6 -31 6 -40 0 -11 8 -18 20 -18 11 0 20 -4 20 -10 0 -5 -9
-10 -20 -10 -11 0 -20 -4 -20 -10 0 -5 9 -10 20 -10 11 0 20 -4 20 -10 0 -5
-11 -10 -25 -10 -25 0 -33 -14 -16 -25 13 -7 131 26 131 37 0 5 -16 6 -36 2
-27 -5 -35 -4 -30 5 4 6 14 11 22 11 8 0 14 5 14 10 0 6 -9 10 -20 10 -11 0
-20 4 -20 10 0 5 9 9 21 7 28 -3 61 69 38 84 -25 16 -41 11 -34 -11 4 -13 2
-20 -7 -20 -7 0 -14 11 -14 24 -2 20 4 25 32 31 46 8 45 29 -1 22 -37 -6 -50
11 -15 20 25 7 27 33 3 32 -10 0 -30 -8 -45 -17z m49 -138 c-3 -3 -12 -4 -19
-1 -8 3 -5 6 6 6 11 1 17 -2 13 -5z"/>
<path d="M363 1253 c-36 -7 -27 -23 13 -23 23 0 34 4 32 12 -5 14 -15 17 -45
11z"/>
<path d="M358 1188 c-21 -6 -38 -15 -38 -20 0 -6 10 -8 23 -4 12 3 37 6 55 6
22 0 32 5 32 15 0 17 -18 18 -72 3z"/>
<path d="M126 819 c-15 -22 -25 -44 -21 -47 9 -10 78 65 71 77 -12 19 -22 13
-50 -30z"/>
<path d="M228 842 c-28 -17 -36 -32 -18 -32 25 0 6 -18 -25 -24 -21 -4 -39
-15 -46 -29 -6 -12 -23 -34 -37 -49 -29 -31 -25 -45 9 -28 l22 12 -7 -71 c-6
-61 -5 -71 8 -71 13 0 16 14 18 68 2 97 2 98 18 126 8 15 22 26 34 26 18 0 21
-6 22 -40 0 -22 -3 -40 -8 -40 -4 0 -8 14 -8 30 0 21 -5 30 -16 30 -12 0 -15
-6 -10 -22 3 -13 6 -31 6 -40 0 -11 8 -18 20 -18 11 0 20 -4 20 -10 0 -5 -9
-10 -20 -10 -11 0 -20 -4 -20 -10 0 -5 9 -10 20 -10 11 0 20 -4 20 -10 0 -5
-11 -10 -25 -10 -25 0 -33 -14 -16 -25 13 -7 131 26 131 37 0 5 -16 6 -36 2
-27 -5 -35 -4 -30 5 4 6 14 11 22 11 8 0 14 5 14 10 0 6 -9 10 -20 10 -11 0
-20 4 -20 10 0 5 9 9 21 7 28 -3 61 69 38 84 -25 16 -41 11 -34 -11 4 -13 2
-20 -7 -20 -7 0 -14 11 -14 24 -2 20 4 25 32 31 46 8 45 29 -1 22 -37 -6 -50
11 -15 20 25 7 27 33 3 32 -10 0 -30 -8 -45 -17z m49 -138 c-3 -3 -12 -4 -19
-1 -8 3 -5 6 6 6 11 1 17 -2 13 -5z"/>
<path d="M363 803 c-36 -7 -27 -23 13 -23 23 0 34 4 32 12 -5 14 -15 17 -45
11z"/>
<path d="M358 738 c-40 -11 -51 -28 -18 -28 18 0 20 -7 20 -70 0 -58 -3 -70
-16 -70 -11 0 -14 -5 -10 -16 3 -9 6 -18 6 -20 0 -2 9 -4 20 -4 18 0 20 7 20
79 0 92 5 111 31 111 10 0 19 7 19 15 0 17 -18 18 -72 3z"/>
</g>
</svg>
