<?xml version="1.0" standalone="no"?>
<!DOCTYPE svg PUBLIC "-//W3C//DTD SVG 20010904//EN"
 "http://www.w3.org/TR/2001/REC-SVG-20010904/DTD/svg10.dtd">
<svg version="1.0" xmlns="http://www.w3.org/2000/svg"
 width="50.000000pt" height="725.000000pt" viewBox="0 0 50.000000 725.000000"
 preserveAspectRatio="xMidYMid meet">
<metadata>
Created by potrace 1.16, written by Peter Selinger 2001-2019
</metadata>
<g transform="translate(0.000000,725.000000) scale(0.100000,-0.100000)"
fill="#000000" stroke="none">
<path d="M150 7138 c0 -18 20 -38 37 -38 7 0 13 9 13 20 0 11 -4 20 -9 20 -5
0 -16 3 -25 6 -10 4 -16 1 -16 -8z"/>
<path d="M150 6688 c0 -18 20 -38 37 -38 7 0 13 9 13 20 0 11 -4 20 -9 20 -5
0 -16 3 -25 6 -10 4 -16 1 -16 -8z"/>
<path d="M123 6617 c-24 -6 -43 -14 -43 -18 0 -15 19 -19 46 -9 15 6 29 8 32
6 3 -3 -14 -31 -38 -61 -52 -70 -43 -86 13 -24 66 72 79 90 73 105 -6 16 -22
16 -83 1z"/>
<path d="M150 6238 c0 -18 20 -38 37 -38 7 0 13 9 13 20 0 11 -4 20 -9 20 -5
0 -16 3 -25 6 -10 4 -16 1 -16 -8z"/>
<path d="M123 6167 c-24 -6 -43 -14 -43 -18 0 -15 19 -19 46 -9 15 6 29 8 32
6 3 -3 -14 -31 -38 -61 -47 -63 -46 -84 1 -39 l31 29 -4 -69 c-2 -49 1 -70 10
-73 9 -3 12 14 14 64 1 37 2 78 2 90 1 12 9 32 19 44 10 11 16 27 13 35 -6 16
-22 16 -83 1z"/>
<path d="M150 5788 c0 -18 20 -38 37 -38 7 0 13 9 13 20 0 11 -4 20 -9 20 -5
0 -16 3 -25 6 -10 4 -16 1 -16 -8z"/>
<path d="M123 5717 c-24 -6 -43 -14 -43 -18 0 -15 19 -19 46 -9 15 6 29 8 32
6 3 -3 -14 -31 -38 -61 -47 -63 -46 -84 1 -39 l31 29 -4 -69 c-2 -49 1 -70 10
-73 9 -4 12 13 12 60 0 64 10 88 42 100 10 4 10 7 0 18 -11 12 -16 11 -28 -5
-8 -11 -14 -15 -14 -10 0 6 9 20 21 33 11 12 18 29 15 37 -6 16 -21 16 -83 1z"/>
<path d="M150 5338 c0 -18 20 -38 37 -38 7 0 13 9 13 20 0 11 -4 20 -9 20 -5
0 -16 3 -25 6 -10 4 -16 1 -16 -8z"/>
<path d="M123 5267 c-24 -6 -43 -14 -43 -18 0 -15 19 -19 46 -9 15 6 29 8 32
6 3 -3 -14 -31 -38 -61 -47 -63 -46 -84 1 -39 l31 29 -4 -69 c-2 -49 1 -70 10
-73 9 -4 12 13 12 61 0 63 1 66 20 54 24 -15 37 -4 20 18 -12 13 -11 17 1 24
11 8 12 11 1 22 -11 11 -16 9 -28 -6 -8 -11 -14 -15 -14 -10 0 6 9 20 21 33
11 12 18 29 15 37 -6 16 -21 16 -83 1z"/>
<path d="M150 4888 c0 -18 20 -38 37 -38 7 0 13 9 13 20 0 11 -4 20 -9 20 -5
0 -16 3 -25 6 -10 4 -16 1 -16 -8z"/>
<path d="M123 4817 c-24 -6 -43 -14 -43 -18 0 -15 19 -19 46 -9 15 6 29 8 32
6 3 -3 -14 -31 -38 -61 -47 -63 -46 -84 1 -39 l31 29 -4 -69 c-2 -49 1 -70 10
-73 9 -4 12 13 12 61 0 63 1 66 20 54 24 -15 37 -4 20 18 -12 13 -11 17 1 24
11 8 12 11 1 22 -11 11 -16 9 -28 -6 -8 -11 -14 -15 -14 -10 0 6 9 20 21 33
11 12 18 29 15 37 -6 16 -21 16 -83 1z"/>
<path d="M237 4750 c-4 -33 -14 -76 -22 -96 -17 -42 -11 -59 11 -29 16 22 29
68 39 138 5 37 3 47 -8 47 -10 0 -16 -18 -20 -60z"/>
<path d="M150 4438 c0 -18 20 -38 37 -38 7 0 13 9 13 20 0 11 -4 20 -9 20 -5
0 -16 3 -25 6 -10 4 -16 1 -16 -8z"/>
<path d="M294 4377 l-62 -9 5 -37 c4 -32 -11 -106 -32 -153 -4 -11 -3 -18 4
-18 17 0 39 53 50 120 6 35 16 67 23 72 19 12 76 10 80 -3 5 -16 48 -1 48 16
0 13 -23 26 -43 24 -7 -1 -40 -6 -73 -12z"/>
<path d="M123 4367 c-24 -6 -43 -14 -43 -18 0 -15 19 -19 46 -9 15 6 29 8 32
6 3 -3 -14 -31 -38 -61 -47 -63 -46 -84 1 -39 l31 29 -4 -69 c-2 -49 1 -70 10
-73 9 -4 12 13 12 61 0 63 1 66 20 54 24 -15 37 -4 20 18 -12 13 -11 17 1 24
11 8 12 11 1 22 -11 11 -16 9 -28 -6 -8 -11 -14 -15 -14 -10 0 6 9 20 21 33
11 12 18 29 15 37 -6 16 -21 16 -83 1z"/>
<path d="M294 3968 c1 -41 0 -43 -30 -46 -30 -3 -32 -5 -27 -40 4 -33 -11
-107 -32 -154 -4 -11 -3 -18 4 -18 15 0 38 48 46 95 14 85 17 95 31 95 9 0 14
-12 14 -36 0 -48 24 -40 28 9 3 35 25 52 34 26 5 -16 48 -1 48 16 0 17 -34 28
-60 20 -18 -6 -20 -2 -20 34 0 33 -4 41 -18 41 -15 0 -19 -8 -18 -42z"/>
<path d="M150 3988 c0 -18 20 -38 37 -38 7 0 13 9 13 20 0 11 -4 20 -9 20 -5
0 -16 3 -25 6 -10 4 -16 1 -16 -8z"/>
<path d="M123 3917 c-24 -6 -43 -14 -43 -18 0 -15 19 -19 46 -9 15 6 29 8 32
6 3 -3 -14 -31 -38 -61 -47 -63 -46 -84 1 -39 l31 29 -4 -69 c-2 -49 1 -70 10
-73 9 -4 12 13 12 61 0 63 1 66 20 54 24 -15 37 -4 20 18 -12 13 -11 17 1 24
11 8 12 11 1 22 -11 11 -16 9 -28 -6 -8 -11 -14 -15 -14 -10 0 6 9 20 21 33
11 12 18 29 15 37 -6 16 -21 16 -83 1z"/>
<path d="M294 3518 c1 -41 -1 -43 -29 -46 -30 -3 -30 -4 -31 -65 -1 -34 -9
-80 -18 -101 -9 -22 -14 -42 -10 -45 9 -9 33 29 44 70 9 32 15 37 47 42 20 4
39 4 42 1 11 -11 -35 -79 -66 -99 -34 -21 -42 -35 -19 -35 26 0 80 45 107 90
36 59 36 70 -1 70 -27 0 -30 3 -30 30 0 30 24 43 32 19 5 -16 48 -1 48 16 0
17 -34 28 -60 20 -18 -6 -20 -2 -20 34 0 33 -4 41 -18 41 -15 0 -19 -8 -18
-42z m6 -93 c0 -14 -7 -28 -15 -32 -22 -8 -27 0 -19 31 8 34 34 34 34 1z"/>
<path d="M150 3538 c0 -18 20 -38 37 -38 7 0 13 9 13 20 0 11 -4 20 -9 20 -5
0 -16 3 -25 6 -10 4 -16 1 -16 -8z"/>
<path d="M123 3467 c-24 -6 -43 -14 -43 -18 0 -15 19 -19 46 -9 15 6 29 8 32
6 3 -3 -14 -31 -38 -61 -47 -63 -46 -84 1 -39 l31 29 -4 -69 c-2 -49 1 -70 10
-73 9 -4 12 13 12 61 0 63 1 66 20 54 24 -15 37 -4 20 18 -12 13 -11 17 1 24
11 8 12 11 1 22 -11 11 -16 9 -28 -6 -8 -11 -14 -15 -14 -10 0 6 9 20 21 33
11 12 18 29 15 37 -6 16 -21 16 -83 1z"/>
<path d="M294 3068 c1 -41 0 -43 -30 -46 -30 -3 -32 -5 -27 -40 4 -33 -11
-107 -32 -154 -4 -11 -3 -18 4 -18 10 0 30 37 46 85 6 19 8 18 31 -10 l24 -30
-24 -21 c-14 -12 -31 -24 -38 -27 -7 -2 -9 -8 -5 -13 5 -5 25 1 47 13 38 20
39 20 56 2 20 -23 84 -27 84 -5 0 8 -10 16 -22 19 -13 4 -32 12 -42 20 -19 14
-19 15 2 51 29 49 28 56 -8 56 -27 0 -30 3 -30 30 0 30 24 43 32 19 5 -16 48
-1 48 16 0 17 -34 28 -60 20 -18 -6 -20 -2 -20 34 0 33 -4 41 -18 41 -15 0
-19 -8 -18 -42z m6 -93 c0 -14 -7 -28 -15 -32 -22 -8 -27 0 -19 31 8 34 34 34
34 1z m40 -54 c0 -5 -3 -17 -6 -26 -6 -14 -8 -14 -25 1 -15 14 -17 19 -7 26
17 11 38 10 38 -1z"/>
<path d="M150 3088 c0 -18 20 -38 37 -38 7 0 13 9 13 20 0 11 -4 20 -9 20 -5
0 -16 3 -25 6 -10 4 -16 1 -16 -8z"/>
<path d="M123 3017 c-24 -6 -43 -14 -43 -18 0 -15 19 -19 46 -9 15 6 29 8 32
6 3 -3 -14 -31 -38 -61 -47 -63 -46 -84 1 -39 l31 29 -4 -69 c-2 -49 1 -70 10
-73 9 -4 12 13 12 61 0 63 1 66 20 54 24 -15 37 -4 20 18 -12 13 -11 17 1 24
11 8 12 11 1 22 -11 11 -16 9 -28 -6 -8 -11 -14 -15 -14 -10 0 6 9 20 21 33
11 12 18 29 15 37 -6 16 -21 16 -83 1z"/>
</g>
</svg>
