<?xml version="1.0" standalone="no"?>
<!DOCTYPE svg PUBLIC "-//W3C//DTD SVG 20010904//EN"
 "http://www.w3.org/TR/2001/REC-SVG-20010904/DTD/svg10.dtd">
<svg version="1.0" xmlns="http://www.w3.org/2000/svg"
 width="50.000000pt" height="725.000000pt" viewBox="0 0 50.000000 725.000000"
 preserveAspectRatio="xMidYMid meet">
<metadata>
Created by potrace 1.16, written by Peter Selinger 2001-2019
</metadata>
<g transform="translate(0.000000,725.000000) scale(0.100000,-0.100000)"
fill="#000000" stroke="none">
<path d="M150 7142 c0 -12 34 -42 48 -42 18 0 14 37 -4 44 -22 9 -44 7 -44 -2z"/>
<path d="M150 6692 c0 -12 34 -42 48 -42 18 0 14 37 -4 44 -22 9 -44 7 -44 -2z"/>
<path d="M155 6615 c-5 -2 -22 -6 -37 -9 -46 -10 -34 -29 14 -22 l42 7 -19
-23 c-11 -13 -30 -35 -44 -50 -27 -31 -24 -45 7 -29 24 13 102 104 102 120 0
10 -41 14 -65 6z"/>
<path d="M150 6242 c0 -12 34 -42 48 -42 18 0 14 37 -4 44 -22 9 -44 7 -44 -2z"/>
<path d="M155 6165 c-5 -2 -22 -6 -37 -9 -46 -10 -34 -29 14 -22 l42 7 -19
-23 c-11 -13 -30 -35 -44 -50 -30 -34 -21 -47 15 -23 l27 17 -6 -49 c-6 -49 5
-85 20 -69 4 4 10 43 11 86 3 62 8 83 23 96 28 25 24 44 -8 43 -16 0 -32 -2
-38 -4z"/>
<path d="M150 5792 c0 -12 34 -42 48 -42 18 0 14 37 -4 44 -22 9 -44 7 -44 -2z"/>
<path d="M155 5715 c-5 -2 -22 -6 -37 -9 -46 -10 -34 -29 14 -22 l42 7 -19
-23 c-11 -13 -30 -35 -44 -50 -30 -34 -21 -47 15 -23 l27 17 -6 -49 c-6 -49 5
-85 20 -69 4 4 10 43 11 86 3 62 8 83 23 96 28 25 24 44 -8 43 -16 0 -32 -2
-38 -4z"/>
<path d="M193 5655 c-3 -9 -3 -18 0 -21 9 -9 27 6 27 22 0 19 -19 18 -27 -1z"/>
<path d="M150 5342 c0 -12 34 -42 48 -42 18 0 14 37 -4 44 -22 9 -44 7 -44 -2z"/>
<path d="M155 5265 c-5 -2 -22 -6 -37 -9 -46 -10 -34 -29 14 -22 l42 7 -19
-23 c-11 -13 -30 -35 -44 -50 -30 -34 -21 -47 15 -23 l27 17 -6 -49 c-5 -47 4
-85 19 -71 3 4 9 33 13 65 4 35 9 53 14 46 11 -18 27 -16 27 2 0 8 -5 15 -12
15 -9 0 -9 3 0 12 7 7 12 18 12 25 0 21 -20 15 -30 -9 -6 -15 -9 -17 -9 -7 -1
9 8 24 19 34 29 26 25 45 -7 44 -16 0 -32 -2 -38 -4z"/>
<path d="M150 4892 c0 -12 34 -42 48 -42 18 0 14 37 -4 44 -22 9 -44 7 -44 -2z"/>
<path d="M345 4860 c-11 -5 -35 -9 -52 -9 -18 -1 -33 -6 -33 -12 0 -8 16 -10
51 -6 l51 6 -7 -49 c-5 -35 -3 -50 4 -50 7 0 13 6 15 13 2 6 10 31 17 55 11
37 11 45 -2 53 -16 10 -18 10 -44 -1z"/>
<path d="M155 4815 c-5 -2 -22 -6 -37 -9 -46 -10 -34 -29 14 -22 l42 7 -19
-23 c-11 -13 -30 -35 -44 -50 -30 -34 -21 -47 15 -23 l27 17 -6 -49 c-5 -47 4
-85 19 -71 3 4 9 33 13 65 4 35 9 53 14 46 11 -18 27 -16 27 2 0 8 -5 15 -12
15 -9 0 -9 3 0 12 7 7 12 18 12 25 0 21 -20 15 -30 -9 -6 -15 -9 -17 -9 -7 -1
9 8 24 19 34 29 26 25 45 -7 44 -16 0 -32 -2 -38 -4z"/>
<path d="M150 4442 c0 -12 34 -42 48 -42 18 0 14 37 -4 44 -22 9 -44 7 -44 -2z"/>
<path d="M345 4410 c-11 -5 -35 -9 -52 -9 -18 -1 -33 -6 -33 -12 0 -8 16 -10
50 -6 44 5 50 4 50 -12 0 -15 -11 -20 -70 -25 -38 -4 -70 -12 -70 -17 0 -7 23
-8 65 -4 62 7 65 6 65 -14 0 -29 18 -26 30 4 6 15 17 25 30 25 11 0 20 5 20
10 0 6 -9 10 -19 10 -15 0 -18 5 -14 21 4 12 0 25 -8 30 -16 10 -18 10 -44 -1z"/>
<path d="M155 4365 c-5 -2 -22 -6 -37 -9 -46 -10 -34 -29 14 -22 l42 7 -19
-23 c-11 -13 -30 -35 -44 -50 -30 -34 -21 -47 15 -23 l27 17 -6 -49 c-5 -47 4
-85 19 -71 3 4 9 33 13 65 4 35 9 53 14 46 11 -18 27 -16 27 2 0 8 -5 15 -12
15 -9 0 -9 3 0 12 7 7 12 18 12 25 0 21 -20 15 -30 -9 -6 -15 -9 -17 -9 -7 -1
9 8 24 19 34 29 26 25 45 -7 44 -16 0 -32 -2 -38 -4z"/>
<path d="M150 3992 c0 -12 34 -42 48 -42 18 0 14 37 -4 44 -22 9 -44 7 -44 -2z"/>
<path d="M345 3960 c-11 -5 -35 -9 -52 -9 -18 -1 -33 -6 -33 -12 0 -8 16 -10
50 -6 44 5 50 4 50 -12 0 -15 -11 -20 -70 -25 -38 -4 -70 -12 -70 -17 0 -7 23
-8 65 -4 54 6 65 5 65 -8 0 -10 -16 -17 -55 -22 -30 -3 -55 -11 -55 -17 0 -7
16 -8 46 -4 26 3 57 6 70 6 17 0 23 6 26 28 2 19 9 28 26 30 27 4 30 22 3 22
-15 0 -18 5 -14 21 4 12 0 25 -8 30 -16 10 -18 10 -44 -1z"/>
<path d="M155 3915 c-5 -2 -22 -6 -37 -9 -46 -10 -34 -29 14 -22 l42 7 -19
-23 c-11 -13 -30 -35 -44 -50 -30 -34 -21 -47 15 -23 l27 17 -6 -49 c-5 -47 4
-85 19 -71 3 4 9 33 13 65 4 35 9 53 14 46 11 -18 27 -16 27 2 0 8 -5 15 -12
15 -9 0 -9 3 0 12 7 7 12 18 12 25 0 21 -20 15 -30 -9 -6 -15 -9 -17 -9 -7 -1
9 8 24 19 34 29 26 25 45 -7 44 -16 0 -32 -2 -38 -4z"/>
<path d="M150 3542 c0 -12 34 -42 48 -42 18 0 14 37 -4 44 -22 9 -44 7 -44 -2z"/>
<path d="M345 3510 c-11 -5 -35 -9 -52 -9 -37 -1 -41 -8 -16 -26 22 -16 8 -35
-28 -35 -16 0 -29 -4 -29 -10 0 -5 13 -10 30 -10 22 0 28 -4 24 -15 -4 -8 -12
-15 -20 -15 -16 0 -19 -17 -3 -22 5 -2 -4 -23 -21 -47 -17 -23 -30 -45 -27
-47 11 -11 35 10 65 56 30 46 36 50 72 50 35 0 39 3 42 28 2 19 9 28 26 30 27
4 30 22 3 22 -15 0 -18 5 -14 21 4 12 0 25 -8 30 -16 10 -18 10 -44 -1z m15
-40 c0 -13 -7 -20 -20 -20 -19 0 -27 20 -13 33 13 14 33 6 33 -13z m-10 -55
c0 -9 -9 -15 -25 -15 -18 0 -23 4 -19 15 4 8 15 15 25 15 10 0 19 -7 19 -15z"/>
<path d="M155 3465 c-5 -2 -22 -6 -37 -9 -46 -10 -34 -29 14 -22 l42 7 -19
-23 c-11 -13 -30 -35 -44 -50 -30 -34 -21 -47 15 -23 l27 17 -6 -49 c-5 -47 4
-85 19 -71 3 4 9 33 13 65 4 35 9 53 14 46 11 -18 27 -16 27 2 0 8 -5 15 -12
15 -9 0 -9 3 0 12 7 7 12 18 12 25 0 21 -20 15 -30 -9 -6 -15 -9 -17 -9 -7 -1
9 8 24 19 34 29 26 25 45 -7 44 -16 0 -32 -2 -38 -4z"/>
<path d="M150 3092 c0 -12 34 -42 48 -42 18 0 14 37 -4 44 -22 9 -44 7 -44 -2z"/>
<path d="M345 3060 c-11 -5 -35 -9 -52 -9 -37 -1 -41 -8 -16 -26 22 -16 8 -35
-28 -35 -16 0 -29 -4 -29 -10 0 -5 13 -10 30 -10 22 0 28 -4 24 -15 -4 -8 -12
-15 -20 -15 -16 0 -19 -17 -3 -22 5 -2 -4 -22 -20 -46 -17 -23 -31 -44 -31
-47 0 -12 22 -3 37 15 23 27 31 25 35 -7 2 -14 8 -28 15 -30 14 -5 6 68 -8 77
-5 4 -2 16 7 28 11 16 25 22 54 22 35 0 39 3 42 28 2 19 9 28 26 30 27 4 30
22 3 22 -15 0 -18 5 -14 21 4 12 0 25 -8 30 -16 10 -18 10 -44 -1z m15 -40 c0
-13 -7 -20 -20 -20 -19 0 -27 20 -13 33 13 14 33 6 33 -13z m-10 -55 c0 -9 -9
-15 -25 -15 -18 0 -23 4 -19 15 4 8 15 15 25 15 10 0 19 -7 19 -15z"/>
<path d="M155 3015 c-5 -2 -22 -6 -37 -9 -46 -10 -34 -29 14 -22 l42 7 -19
-23 c-11 -13 -30 -35 -44 -50 -30 -34 -21 -47 15 -23 l27 17 -6 -49 c-5 -47 4
-85 19 -71 3 4 9 33 13 65 4 35 9 53 14 46 11 -18 27 -16 27 2 0 8 -5 15 -12
15 -9 0 -9 3 0 12 7 7 12 18 12 25 0 21 -20 15 -30 -9 -6 -15 -9 -17 -9 -7 -1
9 8 24 19 34 29 26 25 45 -7 44 -16 0 -32 -2 -38 -4z"/>
<path d="M150 2642 c0 -12 34 -42 48 -42 18 0 14 37 -4 44 -22 9 -44 7 -44 -2z"/>
<path d="M345 2610 c-11 -5 -35 -9 -52 -9 -37 -1 -41 -8 -16 -26 22 -16 8 -35
-28 -35 -16 0 -29 -4 -29 -10 0 -5 13 -10 30 -10 22 0 28 -4 24 -15 -4 -8 -12
-15 -20 -15 -16 0 -19 -17 -3 -22 5 -2 -4 -22 -20 -46 -17 -23 -31 -44 -31
-47 0 -12 22 -3 37 15 23 27 31 25 35 -7 5 -40 26 -41 25 -1 -2 30 1 33 31 36
30 3 32 1 32 -27 0 -39 14 -40 30 -1 20 47 8 63 -43 55 -23 -3 -51 -9 -62 -12
-18 -5 -18 -4 -3 18 11 18 26 25 56 27 36 3 41 6 44 30 2 19 10 28 26 30 27 4
30 22 3 22 -15 0 -18 5 -14 21 4 12 0 25 -8 30 -16 10 -18 10 -44 -1z m15 -40
c0 -13 -7 -20 -20 -20 -19 0 -27 20 -13 33 13 14 33 6 33 -13z m-10 -55 c0 -9
-9 -15 -25 -15 -18 0 -23 4 -19 15 4 8 15 15 25 15 10 0 19 -7 19 -15z"/>
<path d="M155 2565 c-5 -2 -22 -6 -37 -9 -46 -10 -34 -29 14 -22 l42 7 -19
-23 c-11 -13 -30 -35 -44 -50 -30 -34 -21 -47 15 -23 l27 17 -6 -49 c-5 -47 4
-85 19 -71 3 4 9 33 13 65 4 35 9 53 14 46 11 -18 27 -16 27 2 0 8 -5 15 -12
15 -9 0 -9 3 0 12 7 7 12 18 12 25 0 21 -20 15 -30 -9 -6 -15 -9 -17 -9 -7 -1
9 8 24 19 34 29 26 25 45 -7 44 -16 0 -32 -2 -38 -4z"/>
<path d="M150 2192 c0 -12 34 -42 48 -42 18 0 14 37 -4 44 -22 9 -44 7 -44 -2z"/>
<path d="M345 2160 c-11 -5 -35 -9 -52 -9 -37 -1 -41 -8 -16 -26 22 -16 8 -35
-28 -35 -16 0 -29 -4 -29 -10 0 -5 13 -10 30 -10 22 0 28 -4 24 -15 -4 -8 -12
-15 -20 -15 -16 0 -19 -17 -3 -22 5 -2 -4 -22 -20 -46 -17 -23 -31 -44 -31
-47 0 -12 22 -3 37 15 23 27 33 25 33 -4 0 -33 13 -39 65 -32 35 6 45 12 55
36 20 47 8 63 -43 55 -23 -3 -51 -9 -62 -12 -18 -5 -18 -4 -3 18 11 18 26 25
56 27 36 3 41 6 44 30 2 19 10 28 26 30 27 4 30 22 3 22 -15 0 -18 5 -14 21 4
12 0 25 -8 30 -16 10 -18 10 -44 -1z m15 -40 c0 -13 -7 -20 -20 -20 -19 0 -27
20 -13 33 13 14 33 6 33 -13z m-10 -55 c0 -9 -9 -15 -25 -15 -18 0 -23 4 -19
15 4 8 15 15 25 15 10 0 19 -7 19 -15z m10 -114 c0 -13 -9 -20 -30 -23 -17 -3
-33 -1 -36 4 -12 19 6 38 36 38 23 0 30 -5 30 -19z"/>
<path d="M155 2115 c-5 -2 -22 -6 -37 -9 -46 -10 -34 -29 14 -22 l42 7 -19
-23 c-11 -13 -30 -35 -44 -50 -30 -34 -21 -47 15 -23 l27 17 -6 -49 c-5 -47 4
-85 19 -71 3 4 9 33 13 65 4 35 9 53 14 46 11 -18 27 -16 27 2 0 8 -5 15 -12
15 -9 0 -9 3 0 12 7 7 12 18 12 25 0 21 -20 15 -30 -9 -6 -15 -9 -17 -9 -7 -1
9 8 24 19 34 29 26 25 45 -7 44 -16 0 -32 -2 -38 -4z"/>
</g>
</svg>
