<?xml version="1.0" standalone="no"?>
<!DOCTYPE svg PUBLIC "-//W3C//DTD SVG 20010904//EN"
 "http://www.w3.org/TR/2001/REC-SVG-20010904/DTD/svg10.dtd">
<svg version="1.0" xmlns="http://www.w3.org/2000/svg"
 width="50.000000pt" height="725.000000pt" viewBox="0 0 50.000000 725.000000"
 preserveAspectRatio="xMidYMid meet">
<metadata>
Created by potrace 1.16, written by Peter Selinger 2001-2019
</metadata>
<g transform="translate(0.000000,725.000000) scale(0.100000,-0.100000)"
fill="#000000" stroke="none">
<path d="M150 7142 c0 -10 33 -42 43 -42 14 0 6 38 -9 44 -22 8 -34 8 -34 -2z"/>
<path d="M150 6692 c0 -10 33 -42 43 -42 14 0 6 38 -9 44 -22 8 -34 8 -34 -2z"/>
<path d="M133 6617 c-58 -14 -55 -31 3 -23 l45 6 -22 -33 c-12 -17 -34 -44
-47 -59 -30 -32 -23 -48 10 -26 31 21 101 124 93 138 -7 12 -24 11 -82 -3z"/>
<path d="M150 6242 c0 -10 33 -42 43 -42 14 0 6 38 -9 44 -22 8 -34 8 -34 -2z"/>
<path d="M133 6167 c-58 -14 -55 -31 2 -23 l46 6 -30 -43 c-16 -24 -36 -49
-45 -56 -9 -8 -16 -17 -16 -22 0 -18 22 -8 51 21 l30 30 -7 -71 c-6 -59 -4
-71 7 -67 10 3 14 26 15 85 1 57 7 88 19 106 29 45 11 54 -72 34z"/>
<path d="M150 5792 c0 -10 33 -42 43 -42 14 0 6 38 -9 44 -22 8 -34 8 -34 -2z"/>
<path d="M133 5717 c-58 -14 -55 -31 2 -23 l46 6 -30 -43 c-16 -24 -36 -49
-45 -56 -9 -8 -16 -17 -16 -22 0 -18 22 -8 51 21 l30 30 -7 -71 c-6 -59 -4
-71 7 -67 10 3 15 25 17 71 2 55 6 67 22 72 30 10 24 28 -6 21 l-25 -7 22 30
c36 48 17 59 -68 38z"/>
<path d="M150 5342 c0 -10 33 -42 43 -42 14 0 6 38 -9 44 -22 8 -34 8 -34 -2z"/>
<path d="M133 5267 c-58 -14 -55 -31 2 -23 l46 6 -30 -43 c-16 -24 -36 -49
-45 -56 -9 -8 -16 -17 -16 -22 0 -18 22 -8 51 21 l30 30 -7 -71 c-6 -59 -4
-71 7 -67 9 3 15 24 17 62 3 49 5 56 18 45 20 -16 31 -2 16 21 -7 12 -8 20 -2
20 5 0 10 5 10 11 0 7 -10 9 -26 5 l-25 -7 22 30 c36 48 17 59 -68 38z"/>
<path d="M150 4892 c0 -10 33 -42 43 -42 14 0 6 38 -9 44 -22 8 -34 8 -34 -2z"/>
<path d="M253 4873 c-33 -6 -28 -25 5 -21 24 3 27 0 30 -31 2 -19 -2 -37 -9
-41 -15 -10 -3 -43 14 -38 12 5 30 115 20 131 -4 7 -22 7 -60 0z"/>
<path d="M133 4817 c-58 -14 -55 -31 2 -23 l46 6 -30 -43 c-16 -24 -36 -49
-45 -56 -9 -8 -16 -17 -16 -22 0 -18 22 -8 51 21 l30 30 -7 -71 c-6 -59 -4
-71 7 -67 9 3 15 24 17 62 3 49 5 56 18 45 20 -16 31 -2 16 21 -7 12 -8 20 -2
20 5 0 10 5 10 11 0 7 -10 9 -26 5 l-25 -7 22 30 c36 48 17 59 -68 38z"/>
<path d="M150 4442 c0 -10 33 -42 43 -42 14 0 6 38 -9 44 -22 8 -34 8 -34 -2z"/>
<path d="M253 4423 c-33 -6 -28 -25 5 -21 24 3 27 0 30 -31 2 -19 -2 -37 -9
-41 -15 -10 -3 -43 14 -38 12 5 30 115 20 131 -4 7 -22 7 -60 0z"/>
<path d="M242 4378 c3 -7 13 -15 22 -16 12 -3 17 1 14 10 -3 7 -13 15 -22 16
-12 3 -17 -1 -14 -10z"/>
<path d="M133 4367 c-58 -14 -55 -31 2 -23 l46 6 -30 -43 c-16 -24 -36 -49
-45 -56 -9 -8 -16 -17 -16 -22 0 -18 22 -8 51 21 l30 30 -7 -71 c-6 -59 -4
-71 7 -67 9 3 15 24 17 62 3 49 5 56 18 45 20 -16 31 -2 16 21 -7 12 -8 20 -2
20 5 0 10 5 10 11 0 7 -10 9 -26 5 l-25 -7 22 30 c36 48 17 59 -68 38z"/>
<path d="M150 3992 c0 -10 33 -42 43 -42 14 0 6 38 -9 44 -22 8 -34 8 -34 -2z"/>
<path d="M253 3973 c-33 -6 -28 -25 5 -21 24 3 27 0 30 -31 2 -19 -2 -37 -9
-41 -15 -10 -3 -43 14 -38 12 5 30 115 20 131 -4 7 -22 7 -60 0z"/>
<path d="M242 3928 c3 -7 13 -15 22 -16 12 -3 17 1 14 10 -3 7 -13 15 -22 16
-12 3 -17 -1 -14 -10z"/>
<path d="M133 3917 c-58 -14 -55 -31 2 -23 l46 6 -30 -43 c-16 -24 -36 -49
-45 -56 -9 -8 -16 -17 -16 -22 0 -18 22 -8 51 21 l30 30 -7 -71 c-6 -59 -4
-71 7 -67 9 3 15 24 17 62 3 49 5 56 18 45 20 -16 31 -2 16 21 -7 12 -8 20 -2
20 5 0 10 5 10 11 0 7 -10 9 -26 5 l-25 -7 22 30 c36 48 17 59 -68 38z"/>
<path d="M230 3890 c-8 -5 -11 -12 -8 -16 10 -9 38 3 38 16 0 12 -10 13 -30 0z"/>
<path d="M150 3542 c0 -10 33 -42 43 -42 14 0 6 38 -9 44 -22 8 -34 8 -34 -2z"/>
<path d="M353 3533 c-33 -6 -28 -25 5 -21 25 3 27 0 30 -39 2 -34 0 -43 -12
-43 -20 0 -20 -14 -1 -30 25 -20 37 1 42 74 6 72 6 73 -64 59z"/>
<path d="M253 3523 c-33 -6 -28 -25 5 -21 24 3 27 0 30 -31 2 -19 -2 -37 -9
-41 -15 -10 -3 -43 14 -38 12 5 30 115 20 131 -4 7 -22 7 -60 0z"/>
<path d="M242 3478 c3 -7 13 -15 22 -16 12 -3 17 1 14 10 -3 7 -13 15 -22 16
-12 3 -17 -1 -14 -10z"/>
<path d="M133 3467 c-58 -14 -55 -31 2 -23 l46 6 -30 -43 c-16 -24 -36 -49
-45 -56 -9 -8 -16 -17 -16 -22 0 -18 22 -8 51 21 l30 30 -7 -71 c-6 -59 -4
-71 7 -67 9 3 15 24 17 62 3 49 5 56 18 45 20 -16 31 -2 16 21 -7 12 -8 20 -2
20 5 0 10 5 10 11 0 7 -10 9 -26 5 l-25 -7 22 30 c36 48 17 59 -68 38z"/>
<path d="M230 3440 c-8 -5 -11 -12 -8 -16 10 -9 38 3 38 16 0 12 -10 13 -30 0z"/>
<path d="M150 3092 c0 -10 33 -42 43 -42 14 0 6 38 -9 44 -22 8 -34 8 -34 -2z"/>
<path d="M353 3083 c-33 -6 -28 -25 5 -21 25 3 27 0 30 -39 2 -34 0 -43 -12
-43 -20 0 -20 -14 -1 -30 25 -20 37 1 42 74 6 72 6 73 -64 59z"/>
<path d="M253 3073 c-33 -6 -28 -25 5 -21 24 3 27 0 30 -31 2 -19 -2 -37 -9
-41 -15 -10 -3 -43 14 -38 12 5 30 115 20 131 -4 7 -22 7 -60 0z"/>
<path d="M340 3035 c0 -8 7 -15 15 -15 8 0 15 7 15 15 0 8 -7 15 -15 15 -8 0
-15 -7 -15 -15z"/>
<path d="M242 3028 c3 -7 13 -15 22 -16 12 -3 17 1 14 10 -3 7 -13 15 -22 16
-12 3 -17 -1 -14 -10z"/>
<path d="M133 3017 c-58 -14 -55 -31 2 -23 l46 6 -30 -43 c-16 -24 -36 -49
-45 -56 -9 -8 -16 -17 -16 -22 0 -18 22 -8 51 21 l30 30 -7 -71 c-6 -59 -4
-71 7 -67 9 3 15 24 17 62 3 49 5 56 18 45 20 -16 31 -2 16 21 -7 12 -8 20 -2
20 5 0 10 5 10 11 0 7 -10 9 -26 5 l-25 -7 22 30 c36 48 17 59 -68 38z"/>
<path d="M230 2990 c-8 -5 -11 -12 -8 -16 10 -9 38 3 38 16 0 12 -10 13 -30 0z"/>
<path d="M150 2642 c0 -10 33 -42 43 -42 14 0 6 38 -9 44 -22 8 -34 8 -34 -2z"/>
<path d="M353 2633 c-33 -6 -28 -25 5 -21 25 3 27 0 30 -39 2 -34 0 -43 -12
-43 -20 0 -20 -14 -1 -30 25 -20 37 1 42 74 6 72 6 73 -64 59z"/>
<path d="M253 2623 c-33 -6 -28 -25 5 -21 24 3 27 0 30 -31 2 -19 -2 -37 -9
-41 -15 -10 -3 -43 14 -38 12 5 30 115 20 131 -4 7 -22 7 -60 0z"/>
<path d="M340 2585 c0 -8 7 -15 15 -15 8 0 15 7 15 15 0 8 -7 15 -15 15 -8 0
-15 -7 -15 -15z"/>
<path d="M242 2578 c3 -7 13 -15 22 -16 12 -3 17 1 14 10 -3 7 -13 15 -22 16
-12 3 -17 -1 -14 -10z"/>
<path d="M133 2567 c-58 -14 -55 -31 2 -23 l46 6 -30 -43 c-16 -24 -36 -49
-45 -56 -9 -8 -16 -17 -16 -22 0 -18 22 -8 51 21 l30 30 -7 -71 c-6 -59 -4
-71 7 -67 9 3 15 24 17 62 3 49 5 56 18 45 20 -16 31 -2 16 21 -7 12 -8 20 -2
20 5 0 10 5 10 11 0 7 -10 9 -26 5 l-25 -7 22 30 c36 48 17 59 -68 38z"/>
<path d="M334 2546 c-22 -17 -11 -35 13 -20 19 12 29 34 16 34 -5 0 -18 -6
-29 -14z"/>
<path d="M230 2540 c-8 -5 -11 -12 -8 -16 10 -9 38 3 38 16 0 12 -10 13 -30 0z"/>
<path d="M150 2192 c0 -10 33 -42 43 -42 14 0 6 38 -9 44 -22 8 -34 8 -34 -2z"/>
<path d="M353 2183 c-33 -6 -28 -25 5 -21 25 3 27 0 30 -39 2 -34 0 -43 -12
-43 -20 0 -20 -14 -1 -30 25 -20 37 1 42 74 6 72 6 73 -64 59z"/>
<path d="M253 2173 c-33 -6 -28 -25 5 -21 25 3 27 0 30 -34 2 -22 -1 -38 -7
-38 -15 0 -13 -21 4 -45 14 -18 16 -18 33 -2 14 14 14 19 3 26 -9 6 -12 25
-10 62 4 58 -2 63 -58 52z"/>
<path d="M340 2135 c0 -8 7 -15 15 -15 8 0 15 7 15 15 0 8 -7 15 -15 15 -8 0
-15 -7 -15 -15z"/>
<path d="M242 2128 c3 -7 13 -15 22 -16 12 -3 17 1 14 10 -3 7 -13 15 -22 16
-12 3 -17 -1 -14 -10z"/>
<path d="M133 2117 c-58 -14 -55 -31 2 -23 l46 6 -30 -43 c-16 -24 -36 -49
-45 -56 -9 -8 -16 -17 -16 -22 0 -18 22 -8 51 21 l30 30 -7 -71 c-6 -59 -4
-71 7 -67 9 3 15 24 17 62 3 49 5 56 18 45 20 -16 31 -2 16 21 -7 12 -8 20 -2
20 5 0 10 5 10 11 0 7 -10 9 -26 5 l-25 -7 22 30 c36 48 17 59 -68 38z"/>
<path d="M334 2096 c-22 -17 -11 -35 13 -20 19 12 29 34 16 34 -5 0 -18 -6
-29 -14z"/>
<path d="M230 2090 c-8 -5 -11 -12 -8 -16 10 -9 38 3 38 16 0 12 -10 13 -30 0z"/>
<path d="M150 1742 c0 -10 33 -42 43 -42 14 0 6 38 -9 44 -22 8 -34 8 -34 -2z"/>
<path d="M353 1733 c-33 -6 -28 -25 5 -21 25 3 27 0 30 -39 2 -34 0 -43 -12
-43 -20 0 -20 -14 -1 -30 25 -20 37 1 42 74 6 72 6 73 -64 59z"/>
<path d="M253 1723 c-33 -6 -28 -25 5 -21 25 3 27 0 30 -34 2 -22 -1 -38 -7
-38 -15 0 -13 -21 4 -45 14 -18 16 -18 33 -2 14 14 14 19 3 26 -9 6 -12 25
-10 62 4 58 -2 63 -58 52z"/>
<path d="M340 1685 c0 -8 7 -15 15 -15 8 0 15 7 15 15 0 8 -7 15 -15 15 -8 0
-15 -7 -15 -15z"/>
<path d="M242 1678 c3 -7 13 -15 22 -16 12 -3 17 1 14 10 -3 7 -13 15 -22 16
-12 3 -17 -1 -14 -10z"/>
<path d="M133 1667 c-58 -14 -55 -31 2 -23 l46 6 -30 -43 c-16 -24 -36 -49
-45 -56 -9 -8 -16 -17 -16 -22 0 -18 22 -8 51 21 l30 30 -7 -71 c-6 -59 -4
-71 7 -67 9 3 15 24 17 62 3 49 5 56 18 45 20 -16 31 -2 16 21 -7 12 -8 20 -2
20 5 0 10 5 10 11 0 7 -10 9 -26 5 l-25 -7 22 30 c36 48 17 59 -68 38z"/>
<path d="M334 1646 c-22 -17 -11 -35 13 -20 19 12 29 34 16 34 -5 0 -18 -6
-29 -14z"/>
<path d="M230 1640 c-8 -5 -11 -12 -8 -16 10 -9 38 3 38 16 0 12 -10 13 -30 0z"/>
<path d="M254 1564 c3 -9 6 -38 6 -65 0 -27 5 -49 10 -49 6 0 10 28 10 65 0
53 -3 65 -16 65 -11 0 -14 -5 -10 -16z"/>
<path d="M150 1292 c0 -10 33 -42 43 -42 14 0 6 38 -9 44 -22 8 -34 8 -34 -2z"/>
<path d="M353 1283 c-33 -6 -28 -25 5 -21 25 3 27 0 30 -39 2 -34 0 -43 -12
-43 -18 0 -21 -16 -5 -26 14 -8 -8 -24 -33 -24 -11 0 -15 5 -12 15 4 8 1 15
-6 15 -9 0 -11 15 -7 55 3 30 1 57 -4 60 -13 9 -79 -6 -79 -17 0 -5 12 -8 28
-6 24 3 27 0 30 -31 2 -20 -2 -37 -10 -42 -10 -7 -11 -12 0 -29 11 -18 10 -20
-9 -20 -15 0 -19 -4 -15 -16 3 -9 6 -38 6 -65 0 -66 18 -63 22 4 l3 52 43 3
c42 3 42 3 42 -30 0 -19 -5 -39 -10 -44 -12 -12 -3 -44 11 -44 17 0 30 43 28
94 -1 29 1 58 5 65 5 7 11 42 14 77 5 70 5 70 -65 57z"/>
<path d="M340 1235 c0 -8 7 -15 15 -15 8 0 15 7 15 15 0 8 -7 15 -15 15 -8 0
-15 -7 -15 -15z"/>
<path d="M242 1228 c3 -7 13 -15 22 -16 12 -3 17 1 14 10 -3 7 -13 15 -22 16
-12 3 -17 -1 -14 -10z"/>
<path d="M133 1217 c-58 -14 -55 -31 2 -23 l46 6 -30 -43 c-16 -24 -36 -49
-45 -56 -9 -8 -16 -17 -16 -22 0 -18 22 -8 51 21 l30 30 -7 -71 c-6 -59 -4
-71 7 -67 9 3 15 24 17 62 3 49 5 56 18 45 20 -16 31 -2 16 21 -7 12 -8 20 -2
20 5 0 10 5 10 11 0 7 -10 9 -26 5 l-25 -7 22 30 c36 48 17 59 -68 38z"/>
<path d="M334 1196 c-22 -17 -11 -35 13 -20 19 12 29 34 16 34 -5 0 -18 -6
-29 -14z"/>
<path d="M230 1190 c-8 -5 -11 -12 -8 -16 10 -9 38 3 38 16 0 12 -10 13 -30 0z"/>
<path d="M150 842 c0 -10 33 -42 43 -42 14 0 6 38 -9 44 -22 8 -34 8 -34 -2z"/>
<path d="M353 833 c-33 -6 -28 -25 5 -21 25 3 27 0 30 -39 2 -34 0 -43 -12
-43 -18 0 -21 -16 -5 -26 14 -8 -8 -24 -33 -24 -11 0 -15 5 -12 15 4 8 1 15
-6 15 -9 0 -11 15 -7 55 3 30 1 57 -4 60 -13 9 -79 -6 -79 -17 0 -5 12 -8 28
-6 24 3 27 0 30 -31 2 -20 -2 -37 -10 -42 -10 -7 -11 -12 0 -29 11 -18 10 -20
-9 -20 -15 0 -19 -4 -15 -16 3 -9 6 -38 6 -65 0 -27 5 -49 10 -49 6 0 10 13
10 29 0 26 4 29 41 35 49 8 58 2 41 -24 -12 -20 -7 -50 9 -50 17 0 30 43 28
94 -1 29 1 58 5 65 5 7 11 42 14 77 5 70 5 70 -65 57z m17 -182 c0 -9 -80 -25
-87 -17 -3 3 -2 9 2 15 7 13 85 15 85 2z"/>
<path d="M340 785 c0 -8 7 -15 15 -15 8 0 15 7 15 15 0 8 -7 15 -15 15 -8 0
-15 -7 -15 -15z"/>
<path d="M242 778 c3 -7 13 -15 22 -16 12 -3 17 1 14 10 -3 7 -13 15 -22 16
-12 3 -17 -1 -14 -10z"/>
<path d="M133 767 c-58 -14 -55 -31 2 -23 l46 6 -30 -43 c-16 -24 -36 -49 -45
-56 -9 -8 -16 -17 -16 -22 0 -18 22 -8 51 21 l30 30 -7 -71 c-6 -59 -4 -71 7
-67 9 3 15 24 17 62 3 49 5 56 18 45 20 -16 31 -2 16 21 -7 12 -8 20 -2 20 5
0 10 5 10 11 0 7 -10 9 -26 5 l-25 -7 22 30 c36 48 17 59 -68 38z"/>
<path d="M334 746 c-22 -17 -11 -35 13 -20 19 12 29 34 16 34 -5 0 -18 -6 -29
-14z"/>
<path d="M230 740 c-8 -5 -11 -12 -8 -16 10 -9 38 3 38 16 0 12 -10 13 -30 0z"/>
<path d="M150 392 c0 -10 33 -42 43 -42 14 0 6 38 -9 44 -22 8 -34 8 -34 -2z"/>
<path d="M353 383 c-33 -6 -28 -25 5 -21 25 3 27 0 30 -39 2 -34 0 -43 -12
-43 -18 0 -21 -16 -5 -26 14 -8 -8 -24 -33 -24 -11 0 -15 5 -12 15 4 8 1 15
-6 15 -9 0 -11 15 -7 55 3 30 1 57 -4 60 -13 9 -79 -6 -79 -17 0 -5 12 -8 28
-6 24 3 27 0 30 -31 2 -20 -2 -37 -10 -42 -10 -7 -11 -12 0 -29 10 -17 10 -20
-6 -20 -16 0 -18 -7 -14 -62 2 -35 5 -64 6 -65 1 -1 19 3 40 9 34 11 40 10 53
-7 14 -20 14 -20 29 0 10 13 14 39 13 76 -1 30 1 61 6 68 4 7 10 42 13 77 5
70 5 70 -65 57z m17 -182 c0 -9 -80 -25 -87 -17 -3 3 -2 9 2 15 7 13 85 15 85
2z m0 -45 c0 -9 -15 -15 -45 -18 -50 -4 -65 18 -17 25 53 8 62 7 62 -7z"/>
<path d="M340 335 c0 -8 7 -15 15 -15 8 0 15 7 15 15 0 8 -7 15 -15 15 -8 0
-15 -7 -15 -15z"/>
<path d="M242 328 c3 -7 13 -15 22 -16 12 -3 17 1 14 10 -3 7 -13 15 -22 16
-12 3 -17 -1 -14 -10z"/>
<path d="M133 317 c-58 -14 -55 -31 2 -23 l46 6 -30 -43 c-16 -24 -36 -49 -45
-56 -9 -8 -16 -17 -16 -22 0 -18 22 -8 51 21 l30 30 -7 -71 c-6 -59 -4 -71 7
-67 9 3 15 24 17 62 3 49 5 56 18 45 20 -16 31 -2 16 21 -7 12 -8 20 -2 20 5
0 10 5 10 11 0 7 -10 9 -26 5 l-25 -7 22 30 c36 48 17 59 -68 38z"/>
<path d="M334 296 c-22 -17 -11 -35 13 -20 19 12 29 34 16 34 -5 0 -18 -6 -29
-14z"/>
<path d="M230 290 c-8 -5 -11 -12 -8 -16 10 -9 38 3 38 16 0 12 -10 13 -30 0z"/>
</g>
</svg>
