<?xml version="1.0" standalone="no"?>
<!DOCTYPE svg PUBLIC "-//W3C//DTD SVG 20010904//EN"
 "http://www.w3.org/TR/2001/REC-SVG-20010904/DTD/svg10.dtd">
<svg version="1.0" xmlns="http://www.w3.org/2000/svg"
 width="50.000000pt" height="725.000000pt" viewBox="0 0 50.000000 725.000000"
 preserveAspectRatio="xMidYMid meet">
<metadata>
Created by potrace 1.16, written by Peter Selinger 2001-2019
</metadata>
<g transform="translate(0.000000,725.000000) scale(0.100000,-0.100000)"
fill="#000000" stroke="none">
<path d="M170 7131 c0 -24 18 -37 32 -23 8 8 7 16 -2 27 -17 21 -30 19 -30 -4z"/>
<path d="M170 6676 c0 -20 -6 -24 -41 -29 -43 -6 -57 -13 -46 -23 9 -9 167 18
167 28 0 4 -8 8 -18 8 -9 0 -23 9 -30 20 -17 27 -32 25 -32 -4z"/>
<path d="M170 6226 c0 -20 -6 -24 -41 -29 -43 -6 -57 -13 -46 -23 9 -9 167 18
167 28 0 4 -8 8 -18 8 -9 0 -23 9 -30 20 -17 27 -32 25 -32 -4z"/>
<path d="M140 6150 c-8 -5 -12 -11 -9 -14 8 -8 79 6 79 15 0 12 -51 11 -70 -1z"/>
<path d="M170 5776 c0 -20 -6 -24 -41 -29 -43 -6 -57 -13 -46 -23 9 -9 167 18
167 28 0 4 -8 8 -18 8 -9 0 -23 9 -30 20 -17 27 -32 25 -32 -4z"/>
<path d="M140 5700 c-8 -5 -12 -11 -9 -14 8 -8 79 6 79 15 0 12 -51 11 -70 -1z"/>
<path d="M148 5663 c-32 -8 -20 -26 13 -19 17 3 35 6 40 6 5 0 9 5 9 10 0 10
-30 12 -62 3z"/>
<path d="M170 5326 c0 -20 -6 -24 -41 -29 -43 -6 -57 -13 -46 -23 9 -9 167 18
167 28 0 4 -8 8 -18 8 -9 0 -23 9 -30 20 -17 27 -32 25 -32 -4z"/>
<path d="M140 5250 c-8 -5 -12 -11 -9 -14 8 -8 79 6 79 15 0 12 -51 11 -70 -1z"/>
<path d="M148 5213 c-32 -8 -20 -26 13 -19 17 3 35 6 40 6 5 0 9 5 9 10 0 10
-30 12 -62 3z"/>
<path d="M110 5161 c0 -6 5 -13 10 -16 6 -3 10 -17 10 -31 0 -13 5 -24 10 -24
6 0 10 18 10 40 0 33 -3 40 -20 40 -11 0 -20 -4 -20 -9z"/>
<path d="M170 4876 c0 -20 -6 -24 -41 -29 -43 -6 -57 -13 -46 -23 9 -9 167 18
167 28 0 4 -8 8 -18 8 -9 0 -23 9 -30 20 -17 27 -32 25 -32 -4z"/>
<path d="M140 4800 c-8 -5 -12 -11 -9 -14 8 -8 79 6 79 15 0 12 -51 11 -70 -1z"/>
<path d="M148 4763 c-32 -8 -20 -26 13 -19 17 3 35 6 40 6 5 0 9 5 9 10 0 10
-30 12 -62 3z"/>
<path d="M170 4720 c0 -5 5 -10 10 -10 6 0 10 -11 10 -25 0 -32 14 -32 28 0
18 38 15 45 -18 45 -16 0 -30 -4 -30 -10z"/>
<path d="M110 4711 c0 -6 5 -13 10 -16 6 -3 10 -17 10 -31 0 -13 5 -24 10 -24
6 0 10 11 10 24 0 13 3 31 6 40 5 12 0 16 -20 16 -14 0 -26 -4 -26 -9z"/>
<path d="M170 4426 c0 -20 -6 -24 -41 -29 -43 -6 -57 -13 -46 -23 9 -9 167 18
167 28 0 4 -8 8 -18 8 -9 0 -23 9 -30 20 -17 27 -32 25 -32 -4z"/>
<path d="M140 4350 c-8 -5 -12 -11 -9 -14 8 -8 79 6 79 15 0 12 -51 11 -70 -1z"/>
<path d="M148 4313 c-32 -8 -20 -26 13 -19 17 3 35 6 40 6 5 0 9 5 9 10 0 10
-30 12 -62 3z"/>
<path d="M170 4270 c0 -5 5 -10 10 -10 6 0 10 -9 10 -20 0 -14 -7 -20 -21 -20
-18 0 -20 4 -15 25 6 22 3 25 -19 25 -25 0 -33 -14 -15 -25 6 -3 10 -18 10
-32 0 -19 4 -24 16 -19 9 3 26 6 38 6 16 0 25 9 34 33 16 46 16 47 -18 47 -16
0 -30 -4 -30 -10z"/>
<path d="M170 3976 c0 -20 -6 -24 -41 -29 -43 -6 -57 -13 -46 -23 9 -9 167 18
167 28 0 4 -8 8 -18 8 -9 0 -23 9 -30 20 -17 27 -32 25 -32 -4z"/>
<path d="M293 3973 c-35 -4 -46 -23 -14 -23 42 0 111 13 111 21 0 9 -35 9 -97
2z"/>
<path d="M140 3900 c-8 -5 -12 -11 -9 -14 8 -8 79 6 79 15 0 12 -51 11 -70 -1z"/>
<path d="M148 3863 c-32 -8 -20 -26 13 -19 17 3 35 6 40 6 5 0 9 5 9 10 0 10
-30 12 -62 3z"/>
<path d="M170 3820 c0 -5 5 -10 10 -10 6 0 10 -9 10 -20 0 -14 -7 -20 -21 -20
-18 0 -20 4 -15 25 6 22 3 25 -19 25 -25 0 -33 -14 -15 -25 6 -3 10 -18 10
-32 0 -19 4 -24 16 -19 9 3 26 6 38 6 16 0 25 9 34 33 16 46 16 47 -18 47 -16
0 -30 -4 -30 -10z"/>
<path d="M170 3526 c0 -20 -6 -24 -41 -29 -43 -6 -57 -13 -46 -23 9 -9 167 18
167 28 0 4 -8 8 -18 8 -9 0 -23 9 -30 20 -17 27 -32 25 -32 -4z"/>
<path d="M293 3523 c-35 -4 -46 -23 -14 -23 42 0 111 13 111 21 0 9 -35 9 -97
2z"/>
<path d="M140 3450 c-8 -5 -12 -11 -9 -14 8 -8 79 6 79 15 0 12 -51 11 -70 -1z"/>
<path d="M308 3437 c-83 -9 -105 -18 -75 -30 7 -2 35 -1 62 4 28 4 71 8 98 8
46 1 62 13 31 25 -9 3 -19 5 -22 4 -4 0 -46 -6 -94 -11z"/>
<path d="M148 3413 c-32 -8 -20 -26 13 -19 17 3 35 6 40 6 5 0 9 5 9 10 0 10
-30 12 -62 3z"/>
<path d="M170 3370 c0 -5 5 -10 10 -10 6 0 10 -9 10 -20 0 -14 -7 -20 -21 -20
-18 0 -20 4 -15 25 6 22 3 25 -19 25 -25 0 -33 -14 -15 -25 6 -3 10 -18 10
-32 0 -19 4 -24 16 -19 9 3 26 6 38 6 16 0 25 9 34 33 16 46 16 47 -18 47 -16
0 -30 -4 -30 -10z"/>
<path d="M170 3076 c0 -20 -6 -24 -41 -29 -43 -6 -57 -13 -46 -23 9 -9 167 18
167 28 0 4 -8 8 -18 8 -9 0 -23 9 -30 20 -17 27 -32 25 -32 -4z"/>
<path d="M293 3073 c-36 -5 -46 -23 -13 -23 12 0 22 -9 26 -24 9 -36 -2 -46
-47 -46 -21 0 -39 -4 -39 -9 0 -14 21 -19 55 -14 l30 5 0 -78 c0 -51 4 -79 12
-81 9 -3 13 19 15 79 l3 83 53 3 c50 3 67 14 38 25 -7 3 -33 3 -56 0 -38 -5
-43 -4 -37 11 4 10 7 26 7 37 0 14 7 19 25 19 14 0 25 5 25 10 0 10 -33 11
-97 3z"/>
<path d="M140 3000 c-8 -5 -12 -11 -9 -14 8 -8 79 6 79 15 0 12 -51 11 -70 -1z"/>
<path d="M148 2963 c-32 -8 -20 -26 13 -19 17 3 35 6 40 6 5 0 9 5 9 10 0 10
-30 12 -62 3z"/>
<path d="M170 2920 c0 -5 5 -10 10 -10 6 0 10 -9 10 -20 0 -14 -7 -20 -21 -20
-18 0 -20 4 -15 25 6 22 3 25 -19 25 -25 0 -33 -14 -15 -25 6 -3 10 -18 10
-32 0 -19 4 -24 16 -19 9 3 26 6 38 6 16 0 25 9 34 33 16 46 16 47 -18 47 -16
0 -30 -4 -30 -10z"/>
</g>
</svg>
