<?xml version="1.0" standalone="no"?>
<!DOCTYPE svg PUBLIC "-//W3C//DTD SVG 20010904//EN"
 "http://www.w3.org/TR/2001/REC-SVG-20010904/DTD/svg10.dtd">
<svg version="1.0" xmlns="http://www.w3.org/2000/svg"
 width="50.000000pt" height="725.000000pt" viewBox="0 0 50.000000 725.000000"
 preserveAspectRatio="xMidYMid meet">
<metadata>
Created by potrace 1.16, written by Peter Selinger 2001-2019
</metadata>
<g transform="translate(0.000000,725.000000) scale(0.100000,-0.100000)"
fill="#000000" stroke="none">
<path d="M140 7110 c0 -18 20 -50 31 -50 18 0 5 55 -13 58 -10 2 -18 -2 -18
-8z"/>
<path d="M142 6643 c3 -25 0 -28 -29 -31 -22 -2 -33 -9 -33 -19 0 -12 7 -14
33 -8 17 3 49 9 70 12 35 5 48 28 16 28 -8 0 -16 9 -19 20 -3 11 -14 21 -23
23 -14 3 -17 -2 -15 -25z"/>
<path d="M142 6193 c3 -25 0 -28 -29 -31 -22 -2 -33 -9 -33 -19 0 -12 7 -14
33 -8 17 3 49 9 70 12 35 5 48 28 16 28 -8 0 -16 9 -19 20 -3 11 -14 21 -23
23 -14 3 -17 -2 -15 -25z"/>
<path d="M130 6110 c-8 -5 -12 -11 -9 -14 8 -8 79 6 79 15 0 12 -51 11 -70 -1z"/>
<path d="M142 5743 c3 -25 0 -28 -29 -31 -22 -2 -33 -9 -33 -19 0 -12 7 -14
33 -8 17 3 49 9 70 12 35 5 48 28 16 28 -8 0 -16 9 -19 20 -3 11 -14 21 -23
23 -14 3 -17 -2 -15 -25z"/>
<path d="M130 5660 c-8 -5 -12 -11 -9 -14 8 -8 79 6 79 15 0 12 -51 11 -70 -1z"/>
<path d="M135 5619 c-4 -6 -5 -12 -4 -13 8 -7 69 7 69 15 0 13 -57 11 -65 -2z"/>
<path d="M142 5293 c3 -25 0 -28 -29 -31 -22 -2 -33 -9 -33 -19 0 -12 7 -14
33 -8 17 3 49 9 70 12 35 5 48 28 16 28 -8 0 -16 9 -19 20 -3 11 -14 21 -23
23 -14 3 -17 -2 -15 -25z"/>
<path d="M130 5210 c-8 -5 -12 -11 -9 -14 8 -8 79 6 79 15 0 12 -51 11 -70 -1z"/>
<path d="M135 5169 c-4 -6 -5 -12 -4 -13 8 -7 69 7 69 15 0 13 -57 11 -65 -2z"/>
<path d="M105 5114 c4 -11 10 -29 12 -41 8 -37 24 -26 21 14 -2 28 -8 39 -22
41 -15 3 -17 0 -11 -14z"/>
<path d="M142 4843 c3 -25 0 -28 -29 -31 -22 -2 -33 -9 -33 -19 0 -12 7 -14
33 -8 17 3 49 9 70 12 35 5 48 28 16 28 -8 0 -16 9 -19 20 -3 11 -14 21 -23
23 -14 3 -17 -2 -15 -25z"/>
<path d="M130 4760 c-8 -5 -12 -11 -9 -14 8 -8 79 6 79 15 0 12 -51 11 -70 -1z"/>
<path d="M135 4719 c-4 -6 -5 -12 -4 -13 8 -7 69 7 69 15 0 13 -57 11 -65 -2z"/>
<path d="M127 4683 c-22 -4 -27 -8 -21 -21 3 -9 9 -27 11 -39 8 -33 21 -28 25
9 4 39 28 51 28 14 0 -33 13 -33 28 -1 21 46 14 50 -71 38z"/>
<path d="M142 4393 c3 -25 0 -28 -29 -31 -22 -2 -33 -9 -33 -19 0 -12 7 -14
33 -8 17 3 49 9 70 12 35 5 48 28 16 28 -8 0 -16 9 -19 20 -3 11 -14 21 -23
23 -14 3 -17 -2 -15 -25z"/>
<path d="M130 4310 c-8 -5 -12 -11 -9 -14 8 -8 79 6 79 15 0 12 -51 11 -70 -1z"/>
<path d="M135 4269 c-4 -6 -5 -12 -4 -13 8 -7 69 7 69 15 0 13 -57 11 -65 -2z"/>
<path d="M127 4233 c-22 -4 -27 -8 -21 -21 3 -9 9 -27 12 -40 3 -15 10 -21 19
-18 8 3 22 6 32 6 14 0 41 47 41 73 0 7 -35 7 -83 0z m43 -33 c0 -11 -7 -20
-15 -20 -15 0 -21 21 -8 33 12 13 23 7 23 -13z"/>
<path d="M142 3943 c3 -25 0 -28 -29 -31 -22 -2 -33 -9 -33 -19 0 -12 7 -14
33 -8 17 3 49 9 70 12 35 5 48 28 16 28 -8 0 -16 9 -19 20 -3 11 -14 21 -23
23 -14 3 -17 -2 -15 -25z"/>
<path d="M305 3883 c-80 -14 -93 -19 -83 -29 6 -5 209 16 218 23 7 6 -23 23
-40 22 -8 -1 -51 -8 -95 -16z"/>
<path d="M130 3860 c-8 -5 -12 -11 -9 -14 8 -8 79 6 79 15 0 12 -51 11 -70 -1z"/>
<path d="M135 3819 c-4 -6 -5 -12 -4 -13 8 -7 69 7 69 15 0 13 -57 11 -65 -2z"/>
<path d="M127 3783 c-22 -4 -27 -8 -21 -21 3 -9 9 -27 12 -40 3 -15 10 -21 19
-18 8 3 22 6 32 6 14 0 41 47 41 73 0 7 -35 7 -83 0z m43 -33 c0 -11 -7 -20
-15 -20 -15 0 -21 21 -8 33 12 13 23 7 23 -13z"/>
<path d="M300 3486 l0 -54 -40 -7 c-22 -4 -40 -11 -40 -17 0 -7 15 -9 40 -5
40 5 40 5 40 -29 0 -43 16 -44 25 -1 9 40 19 47 73 47 42 0 56 13 26 24 -8 3
-33 3 -55 0 l-40 -7 7 52 c6 48 5 51 -15 51 -19 0 -21 -6 -21 -54z"/>
<path d="M142 3493 c3 -25 0 -28 -29 -31 -22 -2 -33 -9 -33 -19 0 -12 7 -14
33 -8 17 3 49 9 70 12 35 5 48 28 16 28 -8 0 -16 9 -19 20 -3 11 -14 21 -23
23 -14 3 -17 -2 -15 -25z"/>
<path d="M130 3410 c-8 -5 -12 -11 -9 -14 8 -8 79 6 79 15 0 12 -51 11 -70 -1z"/>
<path d="M135 3369 c-4 -6 -5 -12 -4 -13 8 -7 69 7 69 15 0 13 -57 11 -65 -2z"/>
<path d="M127 3333 c-22 -4 -27 -8 -21 -21 3 -9 9 -27 12 -40 3 -15 10 -21 19
-18 8 3 22 6 32 6 14 0 41 47 41 73 0 7 -35 7 -83 0z m43 -33 c0 -11 -7 -20
-15 -20 -15 0 -21 21 -8 33 12 13 23 7 23 -13z"/>
<path d="M300 3036 l0 -54 -40 -7 c-22 -4 -40 -11 -40 -17 0 -7 15 -9 40 -5
40 5 40 5 40 -29 0 -43 16 -44 25 -1 9 40 19 47 73 47 42 0 56 13 26 24 -8 3
-33 3 -55 0 l-40 -7 7 52 c6 48 5 51 -15 51 -19 0 -21 -6 -21 -54z"/>
<path d="M142 3043 c3 -25 0 -28 -29 -31 -22 -2 -33 -9 -33 -19 0 -12 7 -14
33 -8 17 3 49 9 70 12 35 5 48 28 16 28 -8 0 -16 9 -19 20 -3 11 -14 21 -23
23 -14 3 -17 -2 -15 -25z"/>
<path d="M130 2960 c-8 -5 -12 -11 -9 -14 8 -8 79 6 79 15 0 12 -51 11 -70 -1z"/>
<path d="M135 2919 c-4 -6 -5 -12 -4 -13 8 -7 69 7 69 15 0 13 -57 11 -65 -2z"/>
<path d="M243 2883 c3 -10 8 -33 12 -50 10 -50 27 -39 23 14 -2 37 -7 49 -21
51 -14 3 -18 -1 -14 -15z"/>
<path d="M127 2883 c-22 -4 -27 -8 -21 -21 3 -9 9 -27 12 -40 3 -15 10 -21 19
-18 8 3 22 6 32 6 14 0 41 47 41 73 0 7 -35 7 -83 0z m43 -33 c0 -11 -7 -20
-15 -20 -15 0 -21 21 -8 33 12 13 23 7 23 -13z"/>
<path d="M300 2586 l0 -54 -40 -7 c-53 -9 -53 -29 1 -22 39 5 40 4 37 -21 -2
-21 -9 -28 -31 -30 -21 -3 -27 -8 -23 -20 2 -9 7 -32 11 -49 9 -46 25 -41 25
7 0 31 4 40 18 40 9 0 28 3 41 7 23 6 23 4 17 -30 -9 -49 14 -50 37 -1 22 44
16 54 -33 54 -35 0 -38 2 -32 23 7 30 20 37 70 37 42 0 56 13 26 24 -8 3 -33
3 -55 0 l-40 -7 7 52 c6 48 5 51 -15 51 -19 0 -21 -6 -21 -54z"/>
<path d="M142 2593 c3 -25 0 -28 -29 -31 -22 -2 -33 -9 -33 -19 0 -12 7 -14
33 -8 17 3 49 9 70 12 35 5 48 28 16 28 -8 0 -16 9 -19 20 -3 11 -14 21 -23
23 -14 3 -17 -2 -15 -25z"/>
<path d="M130 2510 c-8 -5 -12 -11 -9 -14 8 -8 79 6 79 15 0 12 -51 11 -70 -1z"/>
<path d="M135 2469 c-4 -6 -5 -12 -4 -13 8 -7 69 7 69 15 0 13 -57 11 -65 -2z"/>
<path d="M127 2433 c-22 -4 -27 -8 -21 -21 3 -9 9 -27 12 -40 3 -15 10 -21 19
-18 8 3 22 6 32 6 14 0 41 47 41 73 0 7 -35 7 -83 0z m43 -33 c0 -11 -7 -20
-15 -20 -15 0 -21 21 -8 33 12 13 23 7 23 -13z"/>
<path d="M300 2136 l0 -54 -40 -7 c-53 -9 -53 -29 1 -22 39 5 40 4 37 -21 -2
-21 -9 -28 -31 -30 -21 -3 -27 -8 -23 -20 2 -9 8 -32 11 -50 6 -29 10 -33 28
-28 12 3 38 6 57 6 31 0 37 4 52 41 10 23 15 45 12 50 -3 5 -22 9 -44 9 -35 0
-38 2 -32 23 7 30 20 37 70 37 42 0 56 13 26 24 -8 3 -33 3 -55 0 l-40 -7 7
52 c6 48 5 51 -15 51 -19 0 -21 -6 -21 -54z m60 -160 c0 -33 -13 -46 -46 -46
-29 0 -34 3 -34 24 0 24 6 27 68 35 6 0 12 -5 12 -13z"/>
<path d="M142 2143 c3 -25 0 -28 -29 -31 -22 -2 -33 -9 -33 -19 0 -12 7 -14
33 -8 17 3 49 9 70 12 35 5 48 28 16 28 -8 0 -16 9 -19 20 -3 11 -14 21 -23
23 -14 3 -17 -2 -15 -25z"/>
<path d="M130 2060 c-8 -5 -12 -11 -9 -14 8 -8 79 6 79 15 0 12 -51 11 -70 -1z"/>
<path d="M135 2019 c-4 -6 -5 -12 -4 -13 8 -7 69 7 69 15 0 13 -57 11 -65 -2z"/>
<path d="M127 1983 c-22 -4 -27 -8 -21 -21 3 -9 9 -27 12 -40 3 -15 10 -21 19
-18 8 3 22 6 32 6 14 0 41 47 41 73 0 7 -35 7 -83 0z m43 -33 c0 -11 -7 -20
-15 -20 -15 0 -21 21 -8 33 12 13 23 7 23 -13z"/>
</g>
</svg>
