<?xml version="1.0" standalone="no"?>
<!DOCTYPE svg PUBLIC "-//W3C//DTD SVG 20010904//EN"
 "http://www.w3.org/TR/2001/REC-SVG-20010904/DTD/svg10.dtd">
<svg version="1.0" xmlns="http://www.w3.org/2000/svg"
 width="50.000000pt" height="725.000000pt" viewBox="0 0 50.000000 725.000000"
 preserveAspectRatio="xMidYMid meet">
<metadata>
Created by potrace 1.16, written by Peter Selinger 2001-2019
</metadata>
<g transform="translate(0.000000,725.000000) scale(0.100000,-0.100000)"
fill="#000000" stroke="none">
<path d="M140 7122 c0 -22 13 -42 27 -42 21 0 12 44 -9 48 -10 2 -18 -1 -18
-6z"/>
<path d="M144 6655 c6 -23 3 -25 -34 -31 -40 -7 -51 -18 -27 -27 19 -7 130 18
135 31 2 7 -5 12 -16 12 -11 0 -22 9 -25 20 -3 11 -13 20 -22 20 -13 0 -16 -6
-11 -25z"/>
<path d="M144 6205 c6 -23 3 -25 -34 -31 -40 -7 -51 -18 -27 -27 19 -7 130 18
135 31 2 7 -5 12 -16 12 -11 0 -22 9 -25 20 -3 11 -13 20 -22 20 -13 0 -16 -6
-11 -25z"/>
<path d="M148 6133 c-24 -6 -23 -23 1 -23 26 0 51 10 51 21 0 9 -22 10 -52 2z"/>
<path d="M144 5755 c6 -23 3 -25 -34 -31 -40 -7 -51 -18 -27 -27 19 -7 130 18
135 31 2 7 -5 12 -16 12 -11 0 -22 9 -25 20 -3 11 -13 20 -22 20 -13 0 -16 -6
-11 -25z"/>
<path d="M148 5683 c-24 -6 -23 -23 1 -23 26 0 51 10 51 21 0 9 -22 10 -52 2z"/>
<path d="M130 5630 c0 -5 14 -10 30 -10 17 0 30 5 30 10 0 6 -13 10 -30 10
-16 0 -30 -4 -30 -10z"/>
<path d="M144 5305 c6 -23 3 -25 -34 -31 -40 -7 -51 -18 -27 -27 19 -7 130 18
135 31 2 7 -5 12 -16 12 -11 0 -22 9 -25 20 -3 11 -13 20 -22 20 -13 0 -16 -6
-11 -25z"/>
<path d="M148 5233 c-24 -6 -23 -23 1 -23 26 0 51 10 51 21 0 9 -22 10 -52 2z"/>
<path d="M130 5180 c0 -5 14 -10 30 -10 17 0 30 5 30 10 0 6 -13 10 -30 10
-16 0 -30 -4 -30 -10z"/>
<path d="M114 5118 c3 -13 6 -29 6 -35 0 -7 7 -13 16 -13 11 0 14 5 10 16 -3
9 -6 24 -6 35 0 11 -7 19 -16 19 -12 0 -15 -6 -10 -22z"/>
<path d="M144 4855 c6 -23 3 -25 -34 -31 -40 -7 -51 -18 -27 -27 19 -7 130 18
135 31 2 7 -5 12 -16 12 -11 0 -22 9 -25 20 -3 11 -13 20 -22 20 -13 0 -16 -6
-11 -25z"/>
<path d="M148 4783 c-24 -6 -23 -23 1 -23 26 0 51 10 51 21 0 9 -22 10 -52 2z"/>
<path d="M130 4730 c0 -5 14 -10 30 -10 17 0 30 5 30 10 0 6 -13 10 -30 10
-16 0 -30 -4 -30 -10z"/>
<path d="M160 4690 c0 -5 5 -10 10 -10 6 0 10 -11 10 -25 0 -31 16 -33 24 -2
10 38 7 47 -19 47 -14 0 -25 -4 -25 -10z"/>
<path d="M114 4668 c3 -13 6 -29 6 -35 0 -7 6 -13 13 -13 8 0 13 13 13 35 0
28 -4 35 -19 35 -15 0 -18 -5 -13 -22z"/>
<path d="M144 4405 c6 -23 3 -25 -34 -31 -40 -7 -51 -18 -27 -27 19 -7 130 18
135 31 2 7 -5 12 -16 12 -11 0 -22 9 -25 20 -3 11 -13 20 -22 20 -13 0 -16 -6
-11 -25z"/>
<path d="M148 4333 c-24 -6 -23 -23 1 -23 26 0 51 10 51 21 0 9 -22 10 -52 2z"/>
<path d="M130 4280 c0 -5 14 -10 30 -10 17 0 30 5 30 10 0 6 -13 10 -30 10
-16 0 -30 -4 -30 -10z"/>
<path d="M160 4241 c0 -5 5 -11 12 -13 17 -6 2 -38 -18 -38 -12 0 -15 6 -10
25 5 21 3 25 -15 25 -18 0 -20 -4 -14 -32 10 -46 12 -48 48 -41 18 3 33 6 34
7 0 1 4 18 8 39 7 35 6 37 -19 37 -14 0 -26 -4 -26 -9z"/>
<path d="M144 3955 c6 -23 3 -25 -34 -31 -40 -7 -51 -18 -27 -27 19 -7 130 18
135 31 2 7 -5 12 -16 12 -11 0 -22 9 -25 20 -3 11 -13 20 -22 20 -13 0 -16 -6
-11 -25z"/>
<path d="M315 3955 c-5 -2 -27 -6 -47 -10 -57 -9 -48 -29 10 -21 104 14 122
18 122 27 0 8 -63 11 -85 4z"/>
<path d="M148 3883 c-24 -6 -23 -23 1 -23 26 0 51 10 51 21 0 9 -22 10 -52 2z"/>
<path d="M130 3830 c0 -5 14 -10 30 -10 17 0 30 5 30 10 0 6 -13 10 -30 10
-16 0 -30 -4 -30 -10z"/>
<path d="M160 3791 c0 -5 5 -11 12 -13 17 -6 2 -38 -18 -38 -12 0 -15 6 -10
25 5 21 3 25 -15 25 -18 0 -20 -4 -14 -32 10 -46 12 -48 48 -41 18 3 33 6 34
7 0 1 4 18 8 39 7 35 6 37 -19 37 -14 0 -26 -4 -26 -9z"/>
<path d="M144 3505 c6 -23 3 -25 -34 -31 -40 -7 -51 -18 -27 -27 19 -7 130 18
135 31 2 7 -5 12 -16 12 -11 0 -22 9 -25 20 -3 11 -13 20 -22 20 -13 0 -16 -6
-11 -25z"/>
<path d="M281 3499 c-47 -9 -64 -19 -43 -26 8 -3 12 -34 12 -104 0 -132 18
-129 22 3 2 82 6 103 18 105 8 1 36 5 63 8 26 3 47 10 47 16 0 11 -58 10 -119
-2z"/>
<path d="M148 3433 c-24 -6 -23 -23 1 -23 26 0 51 10 51 21 0 9 -22 10 -52 2z"/>
<path d="M130 3380 c0 -5 14 -10 30 -10 17 0 30 5 30 10 0 6 -13 10 -30 10
-16 0 -30 -4 -30 -10z"/>
<path d="M160 3341 c0 -5 5 -11 12 -13 17 -6 2 -38 -18 -38 -12 0 -15 6 -10
25 5 21 3 25 -15 25 -18 0 -20 -4 -14 -32 10 -46 12 -48 48 -41 18 3 33 6 34
7 0 1 4 18 8 39 7 35 6 37 -19 37 -14 0 -26 -4 -26 -9z"/>
<path d="M144 3055 c6 -23 3 -25 -34 -31 -40 -7 -51 -18 -27 -27 19 -7 130 18
135 31 2 7 -5 12 -16 12 -11 0 -22 9 -25 20 -3 11 -13 20 -22 20 -13 0 -16 -6
-11 -25z"/>
<path d="M281 3049 c-47 -9 -64 -19 -43 -26 8 -3 12 -34 12 -104 0 -59 4 -99
10 -99 6 0 10 28 10 64 0 68 6 75 67 76 20 0 22 -4 17 -30 -9 -43 12 -38 31 7
21 49 9 60 -52 45 -27 -6 -52 -7 -56 -2 -13 12 -4 44 13 47 8 1 36 5 63 8 26
3 47 10 47 16 0 11 -58 10 -119 -2z"/>
<path d="M148 2983 c-24 -6 -23 -23 1 -23 26 0 51 10 51 21 0 9 -22 10 -52 2z"/>
<path d="M130 2930 c0 -5 14 -10 30 -10 17 0 30 5 30 10 0 6 -13 10 -30 10
-16 0 -30 -4 -30 -10z"/>
<path d="M160 2891 c0 -5 5 -11 12 -13 17 -6 2 -38 -18 -38 -12 0 -15 6 -10
25 5 21 3 25 -15 25 -18 0 -20 -4 -14 -32 10 -46 12 -48 48 -41 18 3 33 6 34
7 0 1 4 18 8 39 7 35 6 37 -19 37 -14 0 -26 -4 -26 -9z"/>
<path d="M144 2605 c6 -23 3 -25 -34 -31 -40 -7 -51 -18 -27 -27 19 -7 130 18
135 31 2 7 -5 12 -16 12 -11 0 -22 9 -25 20 -3 11 -13 20 -22 20 -13 0 -16 -6
-11 -25z"/>
<path d="M281 2599 c-47 -9 -64 -19 -43 -26 8 -3 12 -34 12 -104 0 -59 4 -99
10 -99 6 0 10 13 10 29 0 27 3 29 54 35 57 8 56 6 68 81 3 21 -16 24 -87 14
-26 -4 -30 -1 -30 21 0 14 6 26 15 27 8 1 36 5 63 8 26 3 47 10 47 16 0 11
-58 10 -119 -2z m73 -111 c-9 -30 -6 -28 -48 -35 -33 -5 -36 -4 -36 20 0 27
12 34 63 36 25 1 28 -2 21 -21z"/>
<path d="M148 2533 c-24 -6 -23 -23 1 -23 26 0 51 10 51 21 0 9 -22 10 -52 2z"/>
<path d="M130 2480 c0 -5 14 -10 30 -10 17 0 30 5 30 10 0 6 -13 10 -30 10
-16 0 -30 -4 -30 -10z"/>
<path d="M160 2441 c0 -5 5 -11 12 -13 17 -6 2 -38 -18 -38 -12 0 -15 6 -10
25 5 21 3 25 -15 25 -18 0 -20 -4 -14 -32 10 -46 12 -48 48 -41 18 3 33 6 34
7 0 1 4 18 8 39 7 35 6 37 -19 37 -14 0 -26 -4 -26 -9z"/>
<path d="M144 2155 c6 -23 3 -25 -34 -31 -40 -7 -51 -18 -27 -27 19 -7 130 18
135 31 2 7 -5 12 -16 12 -11 0 -22 9 -25 20 -3 11 -13 20 -22 20 -13 0 -16 -6
-11 -25z"/>
<path d="M281 2149 c-47 -9 -64 -19 -43 -26 8 -3 12 -33 12 -99 0 -87 -1 -94
-20 -94 -11 0 -20 -4 -20 -9 0 -17 29 -20 92 -10 34 6 80 7 101 3 31 -5 38 -3
35 7 -4 10 -26 14 -86 14 -78 -1 -82 0 -82 21 0 19 7 23 54 28 57 8 56 6 68
81 3 21 -16 24 -87 14 -26 -4 -30 -1 -30 21 0 14 6 26 15 27 8 1 36 5 63 8 26
3 47 10 47 16 0 11 -58 10 -119 -2z m73 -111 c-9 -30 -6 -28 -48 -35 -33 -5
-36 -4 -36 20 0 27 12 34 63 36 25 1 28 -2 21 -21z"/>
<path d="M148 2083 c-24 -6 -23 -23 1 -23 26 0 51 10 51 21 0 9 -22 10 -52 2z"/>
<path d="M130 2030 c0 -5 14 -10 30 -10 17 0 30 5 30 10 0 6 -13 10 -30 10
-16 0 -30 -4 -30 -10z"/>
<path d="M160 1991 c0 -5 5 -11 12 -13 17 -6 2 -38 -18 -38 -12 0 -15 6 -10
25 5 21 3 25 -15 25 -18 0 -20 -4 -14 -32 10 -46 12 -48 48 -41 18 3 33 6 34
7 0 1 4 18 8 39 7 35 6 37 -19 37 -14 0 -26 -4 -26 -9z"/>
</g>
</svg>
