<?xml version="1.0" standalone="no"?>
<!DOCTYPE svg PUBLIC "-//W3C//DTD SVG 20010904//EN"
 "http://www.w3.org/TR/2001/REC-SVG-20010904/DTD/svg10.dtd">
<svg version="1.0" xmlns="http://www.w3.org/2000/svg"
 width="50.000000pt" height="725.000000pt" viewBox="0 0 50.000000 725.000000"
 preserveAspectRatio="xMidYMid meet">
<metadata>
Created by potrace 1.16, written by Peter Selinger 2001-2019
</metadata>
<g transform="translate(0.000000,725.000000) scale(0.100000,-0.100000)"
fill="#000000" stroke="none">
<path d="M140 7125 c0 -16 26 -55 37 -55 16 0 17 32 1 48 -12 12 -38 17 -38 7z"/>
<path d="M144 6666 c3 -9 8 -22 12 -30 3 -9 -7 -15 -35 -20 -40 -6 -58 -26
-24 -26 33 0 133 24 133 32 0 4 -8 8 -18 8 -9 0 -22 10 -27 22 -12 27 -52 40
-41 14z"/>
<path d="M144 6216 c3 -9 8 -22 12 -30 3 -9 -7 -15 -35 -20 -40 -6 -58 -26
-24 -26 33 0 133 24 133 32 0 4 -8 8 -18 8 -9 0 -22 10 -27 22 -12 27 -52 40
-41 14z"/>
<path d="M143 6123 c-27 -5 -31 -23 -5 -23 28 0 62 12 62 21 0 9 -17 10 -57 2z"/>
<path d="M144 5766 c3 -9 8 -22 12 -30 3 -9 -7 -15 -35 -20 -40 -6 -58 -26
-24 -26 33 0 133 24 133 32 0 4 -8 8 -18 8 -9 0 -22 10 -27 22 -12 27 -52 40
-41 14z"/>
<path d="M143 5673 c-27 -5 -31 -23 -5 -23 28 0 62 12 62 21 0 9 -17 10 -57 2z"/>
<path d="M143 5633 c-27 -5 -31 -23 -5 -23 28 0 62 12 62 21 0 9 -17 10 -57 2z"/>
<path d="M144 5316 c3 -9 8 -22 12 -30 3 -9 -7 -15 -35 -20 -40 -6 -58 -26
-24 -26 33 0 133 24 133 32 0 4 -8 8 -18 8 -9 0 -22 10 -27 22 -12 27 -52 40
-41 14z"/>
<path d="M143 5223 c-27 -5 -31 -23 -5 -23 28 0 62 12 62 21 0 9 -17 10 -57 2z"/>
<path d="M143 5183 c-27 -5 -31 -23 -5 -23 28 0 62 12 62 21 0 9 -17 10 -57 2z"/>
<path d="M113 5119 c4 -13 7 -30 7 -36 0 -7 5 -13 11 -13 15 0 6 63 -10 68
-10 4 -12 -1 -8 -19z"/>
<path d="M144 4866 c3 -9 8 -22 12 -30 3 -9 -7 -15 -35 -20 -40 -6 -58 -26
-24 -26 33 0 133 24 133 32 0 4 -8 8 -18 8 -9 0 -22 10 -27 22 -12 27 -52 40
-41 14z"/>
<path d="M143 4773 c-27 -5 -31 -23 -5 -23 28 0 62 12 62 21 0 9 -17 10 -57 2z"/>
<path d="M143 4733 c-27 -5 -31 -23 -5 -23 28 0 62 12 62 21 0 9 -17 10 -57 2z"/>
<path d="M142 4693 c-29 -4 -33 -7 -28 -26 3 -12 6 -28 6 -34 0 -7 5 -13 10
-13 6 0 10 11 10 25 0 18 5 25 19 25 14 0 18 -5 14 -20 -7 -26 13 -26 27 1 13
24 6 50 -12 47 -7 0 -28 -3 -46 -5z"/>
<path d="M144 4416 c3 -9 8 -22 12 -30 3 -9 -7 -15 -35 -20 -40 -6 -58 -26
-24 -26 33 0 133 24 133 32 0 4 -8 8 -18 8 -9 0 -22 10 -27 22 -12 27 -52 40
-41 14z"/>
<path d="M143 4323 c-27 -5 -31 -23 -5 -23 28 0 62 12 62 21 0 9 -17 10 -57 2z"/>
<path d="M143 4283 c-27 -5 -31 -23 -5 -23 28 0 62 12 62 21 0 9 -17 10 -57 2z"/>
<path d="M142 4243 c-32 -4 -33 -6 -27 -36 9 -42 14 -46 51 -40 26 4 33 11 38
35 7 33 1 49 -17 46 -7 0 -27 -3 -45 -5z m32 -38 c-4 -8 -12 -15 -20 -15 -8 0
-14 7 -14 15 0 8 9 15 20 15 13 0 18 -5 14 -15z"/>
<path d="M144 3966 c3 -9 8 -22 12 -30 3 -9 -7 -15 -35 -20 -40 -6 -58 -26
-24 -26 33 0 133 24 133 32 0 4 -8 8 -18 8 -9 0 -22 10 -27 22 -12 27 -52 40
-41 14z"/>
<path d="M250 3840 c0 -82 3 -100 15 -100 12 0 15 18 15 100 0 82 -3 100 -15
100 -12 0 -15 -18 -15 -100z"/>
<path d="M143 3873 c-27 -5 -31 -23 -5 -23 28 0 62 12 62 21 0 9 -17 10 -57 2z"/>
<path d="M143 3833 c-27 -5 -31 -23 -5 -23 28 0 62 12 62 21 0 9 -17 10 -57 2z"/>
<path d="M142 3793 c-32 -4 -33 -6 -27 -36 9 -42 14 -46 51 -40 26 4 33 11 38
35 7 33 1 49 -17 46 -7 0 -27 -3 -45 -5z m32 -38 c-4 -8 -12 -15 -20 -15 -8 0
-14 7 -14 15 0 8 9 15 20 15 13 0 18 -5 14 -15z"/>
<path d="M144 3516 c3 -9 8 -22 12 -30 3 -9 -7 -15 -35 -20 -40 -6 -58 -26
-24 -26 33 0 133 24 133 32 0 4 -8 8 -18 8 -9 0 -22 10 -27 22 -12 27 -52 40
-41 14z"/>
<path d="M293 3497 l-43 -11 0 -98 c0 -80 3 -98 15 -98 12 0 15 17 15 90 0 50
3 90 8 90 4 0 17 3 30 6 22 6 22 5 22 -85 0 -51 4 -91 10 -91 11 0 17 37 23
132 4 52 1 68 -10 72 -8 3 -18 5 -21 5 -4 -1 -26 -7 -49 -12z"/>
<path d="M143 3423 c-27 -5 -31 -23 -5 -23 28 0 62 12 62 21 0 9 -17 10 -57 2z"/>
<path d="M143 3383 c-27 -5 -31 -23 -5 -23 28 0 62 12 62 21 0 9 -17 10 -57 2z"/>
<path d="M142 3343 c-32 -4 -33 -6 -27 -36 9 -42 14 -46 51 -40 26 4 33 11 38
35 7 33 1 49 -17 46 -7 0 -27 -3 -45 -5z m32 -38 c-4 -8 -12 -15 -20 -15 -8 0
-14 7 -14 15 0 8 9 15 20 15 13 0 18 -5 14 -15z"/>
<path d="M144 3066 c3 -9 8 -22 12 -30 3 -9 -7 -15 -35 -20 -40 -6 -58 -26
-24 -26 33 0 133 24 133 32 0 4 -8 8 -18 8 -9 0 -22 10 -27 22 -12 27 -52 40
-41 14z"/>
<path d="M293 3047 l-43 -11 0 -98 c0 -80 3 -98 15 -98 12 0 15 13 15 60 l0
60 30 0 c30 0 30 -1 30 -55 0 -30 4 -55 10 -55 11 0 17 37 23 132 4 52 1 68
-10 72 -8 3 -18 5 -21 5 -4 -1 -26 -7 -49 -12z m47 -42 c0 -21 -5 -25 -30 -25
-23 0 -30 5 -30 19 0 18 14 27 48 30 6 0 12 -10 12 -24z"/>
<path d="M143 2973 c-27 -5 -31 -23 -5 -23 28 0 62 12 62 21 0 9 -17 10 -57 2z"/>
<path d="M143 2933 c-27 -5 -31 -23 -5 -23 28 0 62 12 62 21 0 9 -17 10 -57 2z"/>
<path d="M142 2893 c-32 -4 -33 -6 -27 -36 9 -42 14 -46 51 -40 26 4 33 11 38
35 7 33 1 49 -17 46 -7 0 -27 -3 -45 -5z m32 -38 c-4 -8 -12 -15 -20 -15 -8 0
-14 7 -14 15 0 8 9 15 20 15 13 0 18 -5 14 -15z"/>
<path d="M144 2616 c3 -9 8 -22 12 -30 3 -9 -7 -15 -35 -20 -40 -6 -58 -26
-24 -26 33 0 133 24 133 32 0 4 -8 8 -18 8 -9 0 -22 10 -27 22 -12 27 -52 40
-41 14z"/>
<path d="M293 2597 l-43 -11 0 -98 c0 -80 3 -98 15 -98 10 0 15 10 15 29 0 24
5 29 30 33 27 4 30 2 30 -24 0 -15 4 -28 10 -28 11 0 17 37 23 132 4 52 1 68
-10 72 -8 3 -18 5 -21 5 -4 -1 -26 -7 -49 -12z m47 -42 c0 -21 -5 -25 -30 -25
-23 0 -30 5 -30 19 0 18 14 27 48 30 6 0 12 -10 12 -24z m0 -59 c0 -14 -21
-26 -46 -26 -8 0 -14 9 -14 20 0 16 7 20 30 20 19 0 30 -5 30 -14z"/>
<path d="M143 2523 c-27 -5 -31 -23 -5 -23 28 0 62 12 62 21 0 9 -17 10 -57 2z"/>
<path d="M143 2483 c-27 -5 -31 -23 -5 -23 28 0 62 12 62 21 0 9 -17 10 -57 2z"/>
<path d="M142 2443 c-32 -4 -33 -6 -27 -36 9 -42 14 -46 51 -40 26 4 33 11 38
35 7 33 1 49 -17 46 -7 0 -27 -3 -45 -5z m32 -38 c-4 -8 -12 -15 -20 -15 -8 0
-14 7 -14 15 0 8 9 15 20 15 13 0 18 -5 14 -15z"/>
<path d="M144 2166 c3 -9 8 -22 12 -30 3 -9 -7 -15 -35 -20 -40 -6 -58 -26
-24 -26 33 0 133 24 133 32 0 4 -8 8 -18 8 -9 0 -22 10 -27 22 -12 27 -52 40
-41 14z"/>
<path d="M293 2147 l-43 -11 0 -93 c0 -86 -1 -93 -20 -93 -11 0 -20 -5 -20
-11 0 -8 32 -9 108 -4 59 4 109 9 112 12 8 8 -25 23 -44 20 -18 -2 -19 4 -17
68 1 39 4 78 8 89 5 18 -12 37 -32 34 -5 0 -29 -6 -52 -11z m47 -42 c0 -21 -5
-25 -30 -25 -23 0 -30 5 -30 19 0 18 14 27 48 30 6 0 12 -10 12 -24z m0 -59
c0 -14 -21 -26 -46 -26 -8 0 -14 9 -14 20 0 16 7 20 30 20 19 0 30 -5 30 -14z
m0 -60 c0 -19 -6 -25 -30 -28 -26 -4 -30 -1 -30 18 0 17 7 24 28 27 15 2 28 5
30 6 1 0 2 -10 2 -23z"/>
<path d="M143 2073 c-27 -5 -31 -23 -5 -23 28 0 62 12 62 21 0 9 -17 10 -57 2z"/>
<path d="M143 2033 c-27 -5 -31 -23 -5 -23 28 0 62 12 62 21 0 9 -17 10 -57 2z"/>
<path d="M142 1993 c-32 -4 -33 -6 -27 -36 9 -42 14 -46 51 -40 26 4 33 11 38
35 7 33 1 49 -17 46 -7 0 -27 -3 -45 -5z m32 -38 c-4 -8 -12 -15 -20 -15 -8 0
-14 7 -14 15 0 8 9 15 20 15 13 0 18 -5 14 -15z"/>
</g>
</svg>
