<?xml version="1.0" standalone="no"?>
<!DOCTYPE svg PUBLIC "-//W3C//DTD SVG 20010904//EN"
 "http://www.w3.org/TR/2001/REC-SVG-20010904/DTD/svg10.dtd">
<svg version="1.0" xmlns="http://www.w3.org/2000/svg"
 width="50.000000pt" height="725.000000pt" viewBox="0 0 50.000000 725.000000"
 preserveAspectRatio="xMidYMid meet">
<metadata>
Created by potrace 1.16, written by Peter Selinger 2001-2019
</metadata>
<g transform="translate(0.000000,725.000000) scale(0.100000,-0.100000)"
fill="#000000" stroke="none">
<path d="M150 7146 c0 -20 22 -56 35 -56 18 0 20 31 3 48 -11 11 -38 17 -38 8z"/>
<path d="M150 6696 c0 -2 4 -16 9 -29 9 -23 7 -25 -30 -31 -39 -6 -55 -26 -21
-26 36 0 132 23 132 31 0 5 -8 9 -18 9 -9 0 -22 10 -27 22 -9 20 -45 39 -45
24z"/>
<path d="M150 6246 c0 -2 4 -16 9 -29 9 -23 7 -25 -30 -31 -39 -6 -55 -26 -21
-26 36 0 132 23 132 31 0 5 -8 9 -18 9 -9 0 -22 10 -27 22 -9 20 -45 39 -45
24z"/>
<path d="M163 6143 c-28 -5 -30 -23 -4 -23 26 0 51 10 51 21 0 9 -8 10 -47 2z"/>
<path d="M150 5796 c0 -2 4 -16 9 -29 9 -23 7 -25 -30 -31 -39 -6 -55 -26 -21
-26 36 0 132 23 132 31 0 5 -8 9 -18 9 -9 0 -22 10 -27 22 -9 20 -45 39 -45
24z"/>
<path d="M163 5693 c-28 -5 -30 -23 -4 -23 26 0 51 10 51 21 0 9 -8 10 -47 2z"/>
<path d="M153 5653 c-31 -6 -29 -23 1 -23 31 0 56 10 56 21 0 9 -17 10 -57 2z"/>
<path d="M150 5346 c0 -2 4 -16 9 -29 9 -23 7 -25 -30 -31 -39 -6 -55 -26 -21
-26 36 0 132 23 132 31 0 5 -8 9 -18 9 -9 0 -22 10 -27 22 -9 20 -45 39 -45
24z"/>
<path d="M163 5243 c-28 -5 -30 -23 -4 -23 26 0 51 10 51 21 0 9 -8 10 -47 2z"/>
<path d="M153 5203 c-31 -6 -29 -23 1 -23 31 0 56 10 56 21 0 9 -17 10 -57 2z"/>
<path d="M124 5134 c3 -9 6 -24 6 -35 0 -11 7 -19 16 -19 11 0 14 5 10 16 -3
9 -6 24 -6 35 0 11 -7 19 -16 19 -11 0 -14 -5 -10 -16z"/>
<path d="M150 4896 c0 -2 4 -16 9 -29 9 -23 7 -25 -30 -31 -39 -6 -55 -26 -21
-26 36 0 132 23 132 31 0 5 -8 9 -18 9 -9 0 -22 10 -27 22 -9 20 -45 39 -45
24z"/>
<path d="M163 4793 c-28 -5 -30 -23 -4 -23 26 0 51 10 51 21 0 9 -8 10 -47 2z"/>
<path d="M153 4753 c-31 -6 -29 -23 1 -23 31 0 56 10 56 21 0 9 -17 10 -57 2z"/>
<path d="M152 4707 c-22 -7 -31 -15 -27 -24 3 -8 5 -23 5 -34 0 -10 7 -19 15
-19 11 0 13 8 9 30 -6 25 -3 30 14 30 15 0 19 -5 15 -20 -4 -13 0 -20 10 -20
16 0 32 44 22 60 -7 12 -19 11 -63 -3z"/>
<path d="M150 4446 c0 -2 4 -16 9 -29 9 -23 7 -25 -30 -31 -39 -6 -55 -26 -21
-26 36 0 132 23 132 31 0 5 -8 9 -18 9 -9 0 -22 10 -27 22 -9 20 -45 39 -45
24z"/>
<path d="M163 4343 c-28 -5 -30 -23 -4 -23 26 0 51 10 51 21 0 9 -8 10 -47 2z"/>
<path d="M153 4303 c-31 -6 -29 -23 1 -23 31 0 56 10 56 21 0 9 -17 10 -57 2z"/>
<path d="M153 4258 c-29 -10 -31 -13 -26 -42 8 -40 5 -38 46 -31 29 6 36 12
41 37 10 49 0 55 -61 36z m27 -38 c-12 -22 -30 -18 -30 6 0 8 9 14 20 14 18 0
19 -3 10 -20z"/>
<path d="M150 3996 c0 -2 4 -16 9 -29 9 -23 7 -25 -30 -31 -39 -6 -55 -26 -21
-26 36 0 132 23 132 31 0 5 -8 9 -18 9 -9 0 -22 10 -27 22 -9 20 -45 39 -45
24z"/>
<path d="M313 3983 c-35 -8 -63 -19 -63 -25 0 -10 37 -7 101 8 24 5 27 3 31
-28 3 -18 3 -70 0 -116 -4 -75 -7 -82 -23 -77 -23 8 -24 1 -3 -30 19 -29 41
-32 48 -7 2 9 8 75 12 146 8 160 12 156 -103 129z"/>
<path d="M163 3893 c-28 -5 -30 -23 -4 -23 26 0 51 10 51 21 0 9 -8 10 -47 2z"/>
<path d="M153 3853 c-31 -6 -29 -23 1 -23 31 0 56 10 56 21 0 9 -17 10 -57 2z"/>
<path d="M153 3808 c-29 -10 -31 -13 -26 -42 8 -40 5 -38 46 -31 29 6 36 12
41 37 10 49 0 55 -61 36z m27 -38 c-12 -22 -30 -18 -30 6 0 8 9 14 20 14 18 0
19 -3 10 -20z"/>
<path d="M150 3546 c0 -2 4 -16 9 -29 9 -23 7 -25 -30 -31 -39 -6 -55 -26 -21
-26 36 0 132 23 132 31 0 5 -8 9 -18 9 -9 0 -22 10 -27 22 -9 20 -45 39 -45
24z"/>
<path d="M313 3533 c-35 -8 -63 -19 -63 -25 0 -10 37 -7 101 8 24 5 27 3 31
-28 3 -18 3 -70 0 -116 -4 -75 -7 -82 -23 -77 -23 8 -24 1 -3 -30 19 -29 41
-32 48 -7 2 9 8 75 12 146 8 160 12 156 -103 129z"/>
<path d="M283 3473 c-13 -2 -23 -11 -23 -19 0 -10 7 -13 28 -8 45 10 52 13 52
24 0 10 -16 11 -57 3z"/>
<path d="M163 3443 c-28 -5 -30 -23 -4 -23 26 0 51 10 51 21 0 9 -8 10 -47 2z"/>
<path d="M153 3403 c-31 -6 -29 -23 1 -23 31 0 56 10 56 21 0 9 -17 10 -57 2z"/>
<path d="M153 3358 c-29 -10 -31 -13 -26 -42 8 -40 5 -38 46 -31 29 6 36 12
41 37 10 49 0 55 -61 36z m27 -38 c-12 -22 -30 -18 -30 6 0 8 9 14 20 14 18 0
19 -3 10 -20z"/>
<path d="M150 3096 c0 -2 4 -16 9 -29 9 -23 7 -25 -30 -31 -39 -6 -55 -26 -21
-26 36 0 132 23 132 31 0 5 -8 9 -18 9 -9 0 -22 10 -27 22 -9 20 -45 39 -45
24z"/>
<path d="M313 3083 c-35 -8 -63 -19 -63 -25 0 -10 37 -7 101 8 24 5 27 3 31
-28 3 -18 3 -70 0 -116 -4 -75 -7 -82 -23 -77 -23 8 -24 1 -3 -30 19 -29 41
-32 48 -7 2 9 8 75 12 146 8 160 12 156 -103 129z"/>
<path d="M283 3023 c-13 -2 -23 -11 -23 -19 0 -10 7 -13 28 -8 45 10 52 13 52
24 0 10 -16 11 -57 3z"/>
<path d="M163 2993 c-28 -5 -30 -23 -4 -23 26 0 51 10 51 21 0 9 -8 10 -47 2z"/>
<path d="M244 2948 c3 -13 6 -31 6 -40 0 -10 5 -18 10 -18 6 0 10 18 10 40 0
30 -4 40 -16 40 -12 0 -15 -6 -10 -22z"/>
<path d="M153 2953 c-31 -6 -29 -23 1 -23 31 0 56 10 56 21 0 9 -17 10 -57 2z"/>
<path d="M153 2908 c-29 -10 -31 -13 -26 -42 8 -40 5 -38 46 -31 29 6 36 12
41 37 10 49 0 55 -61 36z m27 -38 c-12 -22 -30 -18 -30 6 0 8 9 14 20 14 18 0
19 -3 10 -20z"/>
<path d="M150 2646 c0 -2 4 -16 9 -29 9 -23 7 -25 -30 -31 -39 -6 -55 -26 -21
-26 36 0 132 23 132 31 0 5 -8 9 -18 9 -9 0 -22 10 -27 22 -9 20 -45 39 -45
24z"/>
<path d="M313 2633 c-35 -8 -63 -19 -63 -25 0 -10 37 -7 101 8 24 5 27 3 31
-28 3 -18 3 -70 0 -116 -4 -75 -7 -82 -23 -77 -23 8 -24 1 -3 -30 19 -29 41
-32 48 -7 2 9 8 75 12 146 8 160 12 156 -103 129z"/>
<path d="M283 2573 c-13 -2 -23 -11 -23 -19 0 -10 7 -13 28 -8 45 10 52 13 52
24 0 10 -16 11 -57 3z"/>
<path d="M163 2543 c-28 -5 -30 -23 -4 -23 26 0 51 10 51 21 0 9 -8 10 -47 2z"/>
<path d="M272 2523 c-29 -4 -33 -7 -28 -26 3 -12 6 -30 6 -39 0 -10 5 -18 10
-18 6 0 10 13 10 29 0 20 6 30 20 34 16 4 20 0 20 -19 0 -31 26 -32 34 -1 13
49 12 50 -72 40z"/>
<path d="M153 2503 c-31 -6 -29 -23 1 -23 31 0 56 10 56 21 0 9 -17 10 -57 2z"/>
<path d="M153 2458 c-29 -10 -31 -13 -26 -42 8 -40 5 -38 46 -31 29 6 36 12
41 37 10 49 0 55 -61 36z m27 -38 c-12 -22 -30 -18 -30 6 0 8 9 14 20 14 18 0
19 -3 10 -20z"/>
<path d="M150 2196 c0 -2 4 -16 9 -29 9 -23 7 -25 -30 -31 -39 -6 -55 -26 -21
-26 36 0 132 23 132 31 0 5 -8 9 -18 9 -9 0 -22 10 -27 22 -9 20 -45 39 -45
24z"/>
<path d="M313 2183 c-35 -8 -63 -19 -63 -25 0 -10 37 -7 101 8 24 5 27 3 31
-28 3 -18 3 -70 0 -116 -4 -75 -7 -82 -23 -77 -23 8 -24 1 -3 -30 19 -29 41
-32 48 -7 2 9 8 75 12 146 8 160 12 156 -103 129z"/>
<path d="M283 2123 c-13 -2 -23 -11 -23 -19 0 -10 7 -13 28 -8 45 10 52 13 52
24 0 10 -16 11 -57 3z"/>
<path d="M163 2093 c-28 -5 -30 -23 -4 -23 26 0 51 10 51 21 0 9 -8 10 -47 2z"/>
<path d="M272 2073 c-29 -4 -33 -7 -28 -26 3 -12 6 -30 6 -40 0 -15 6 -16 43
-11 23 4 43 7 44 8 0 1 4 18 8 39 8 41 10 40 -73 30z m38 -33 c0 -13 -7 -20
-20 -20 -25 0 -27 27 -2 33 9 3 18 5 20 6 1 0 2 -8 2 -19z"/>
<path d="M153 2053 c-31 -6 -29 -23 1 -23 31 0 56 10 56 21 0 9 -17 10 -57 2z"/>
<path d="M153 2008 c-29 -10 -31 -13 -26 -42 8 -40 5 -38 46 -31 29 6 36 12
41 37 10 49 0 55 -61 36z m27 -38 c-12 -22 -30 -18 -30 6 0 8 9 14 20 14 18 0
19 -3 10 -20z"/>
</g>
</svg>
