<?xml version="1.0" standalone="no"?>
<!DOCTYPE svg PUBLIC "-//W3C//DTD SVG 20010904//EN"
 "http://www.w3.org/TR/2001/REC-SVG-20010904/DTD/svg10.dtd">
<svg version="1.0" xmlns="http://www.w3.org/2000/svg"
 width="50.000000pt" height="725.000000pt" viewBox="0 0 50.000000 725.000000"
 preserveAspectRatio="xMidYMid meet">
<metadata>
Created by potrace 1.16, written by Peter Selinger 2001-2019
</metadata>
<g transform="translate(0.000000,725.000000) scale(0.100000,-0.100000)"
fill="#000000" stroke="none">
<path d="M150 7122 c0 -19 18 -42 32 -42 15 0 8 48 -8 54 -23 9 -24 8 -24 -12z"/>
<path d="M152 6663 c3 -25 -1 -28 -29 -31 -31 -3 -43 -15 -25 -26 14 -8 132
18 128 29 -2 5 -11 9 -20 9 -9 -1 -16 6 -16 16 0 15 -18 30 -37 30 -2 0 -3
-12 -1 -27z"/>
<path d="M152 6213 c3 -25 -1 -28 -29 -31 -31 -3 -43 -15 -25 -26 14 -8 132
18 128 29 -2 5 -11 9 -20 9 -9 -1 -16 6 -16 16 0 15 -18 30 -37 30 -2 0 -3
-12 -1 -27z"/>
<path d="M145 6129 c-4 -6 -5 -12 -4 -14 7 -7 59 8 59 16 0 13 -47 11 -55 -2z"/>
<path d="M152 5763 c3 -25 -1 -28 -29 -31 -31 -3 -43 -15 -25 -26 14 -8 132
18 128 29 -2 5 -11 9 -20 9 -9 -1 -16 6 -16 16 0 15 -18 30 -37 30 -2 0 -3
-12 -1 -27z"/>
<path d="M145 5679 c-4 -6 -5 -12 -4 -14 7 -7 59 8 59 16 0 13 -47 11 -55 -2z"/>
<path d="M148 5643 c-32 -8 -20 -26 13 -19 17 3 35 6 40 6 5 0 9 5 9 10 0 10
-30 12 -62 3z"/>
<path d="M152 5313 c3 -25 -1 -28 -29 -31 -31 -3 -43 -15 -25 -26 14 -8 132
18 128 29 -2 5 -11 9 -20 9 -9 -1 -16 6 -16 16 0 15 -18 30 -37 30 -2 0 -3
-12 -1 -27z"/>
<path d="M145 5229 c-4 -6 -5 -12 -4 -14 7 -7 59 8 59 16 0 13 -47 11 -55 -2z"/>
<path d="M148 5193 c-32 -8 -20 -26 13 -19 17 3 35 6 40 6 5 0 9 5 9 10 0 10
-30 12 -62 3z"/>
<path d="M124 5124 c3 -9 6 -24 6 -35 0 -10 5 -19 10 -19 6 0 10 16 10 35 0
25 -4 35 -16 35 -11 0 -14 -5 -10 -16z"/>
<path d="M152 4863 c3 -25 -1 -28 -29 -31 -31 -3 -43 -15 -25 -26 14 -8 132
18 128 29 -2 5 -11 9 -20 9 -9 -1 -16 6 -16 16 0 15 -18 30 -37 30 -2 0 -3
-12 -1 -27z"/>
<path d="M145 4779 c-4 -6 -5 -12 -4 -14 7 -7 59 8 59 16 0 13 -47 11 -55 -2z"/>
<path d="M148 4743 c-32 -8 -20 -26 13 -19 17 3 35 6 40 6 5 0 9 5 9 10 0 10
-30 12 -62 3z"/>
<path d="M152 4697 c-22 -7 -31 -15 -27 -24 3 -8 5 -23 5 -34 0 -10 5 -19 10
-19 6 0 10 14 10 30 0 20 5 30 15 30 9 0 15 -9 15 -25 0 -33 18 -32 31 2 19
50 3 60 -59 40z"/>
<path d="M152 4413 c3 -25 -1 -28 -29 -31 -31 -3 -43 -15 -25 -26 14 -8 132
18 128 29 -2 5 -11 9 -20 9 -9 -1 -16 6 -16 16 0 15 -18 30 -37 30 -2 0 -3
-12 -1 -27z"/>
<path d="M145 4329 c-4 -6 -5 -12 -4 -14 7 -7 59 8 59 16 0 13 -47 11 -55 -2z"/>
<path d="M148 4293 c-32 -8 -20 -26 13 -19 17 3 35 6 40 6 5 0 9 5 9 10 0 10
-30 12 -62 3z"/>
<path d="M153 4248 c-29 -10 -31 -14 -26 -42 7 -41 12 -45 49 -39 27 4 33 10
37 41 9 54 2 60 -60 40z m27 -38 c0 -11 -7 -20 -15 -20 -8 0 -15 9 -15 20 0
11 7 20 15 20 8 0 15 -9 15 -20z"/>
<path d="M152 3963 c3 -25 -1 -28 -29 -31 -32 -3 -43 -15 -24 -26 4 -3 42 2
82 10 112 24 104 28 107 -51 4 -83 -3 -115 -24 -115 -19 0 -14 -20 9 -34 28
-18 35 3 39 126 5 128 1 137 -50 117 -47 -19 -72 -18 -72 1 0 15 -18 30 -37
30 -2 0 -3 -12 -1 -27z"/>
<path d="M145 3879 c-4 -6 -5 -12 -4 -14 7 -7 59 8 59 16 0 13 -47 11 -55 -2z"/>
<path d="M148 3843 c-32 -8 -20 -26 13 -19 17 3 35 6 40 6 5 0 9 5 9 10 0 10
-30 12 -62 3z"/>
<path d="M153 3798 c-29 -10 -31 -14 -26 -42 7 -41 12 -45 49 -39 27 4 33 10
37 41 9 54 2 60 -60 40z m27 -38 c0 -11 -7 -20 -15 -20 -8 0 -15 9 -15 20 0
11 7 20 15 20 8 0 15 -9 15 -20z"/>
<path d="M152 3513 c3 -25 -1 -28 -29 -31 -32 -3 -43 -15 -24 -26 4 -3 42 2
82 10 112 24 104 28 107 -51 4 -83 -3 -115 -24 -115 -19 0 -14 -20 9 -34 28
-18 35 3 39 126 5 128 1 137 -50 117 -47 -19 -72 -18 -72 1 0 15 -18 30 -37
30 -2 0 -3 -12 -1 -27z"/>
<path d="M230 3451 c0 -12 29 -35 36 -28 11 10 -5 37 -21 37 -8 0 -15 -4 -15
-9z"/>
<path d="M145 3429 c-4 -6 -5 -12 -4 -14 7 -7 59 8 59 16 0 13 -47 11 -55 -2z"/>
<path d="M148 3393 c-32 -8 -20 -26 13 -19 17 3 35 6 40 6 5 0 9 5 9 10 0 10
-30 12 -62 3z"/>
<path d="M153 3348 c-29 -10 -31 -14 -26 -42 7 -41 12 -45 49 -39 27 4 33 10
37 41 9 54 2 60 -60 40z m27 -38 c0 -11 -7 -20 -15 -20 -8 0 -15 9 -15 20 0
11 7 20 15 20 8 0 15 -9 15 -20z"/>
<path d="M152 3063 c3 -25 -1 -28 -29 -31 -32 -3 -43 -15 -24 -26 4 -3 42 2
82 10 112 24 104 28 107 -51 4 -83 -3 -115 -24 -115 -19 0 -14 -20 9 -34 28
-18 35 3 39 126 5 128 1 137 -50 117 -47 -19 -72 -18 -72 1 0 15 -18 30 -37
30 -2 0 -3 -12 -1 -27z"/>
<path d="M230 3001 c0 -12 29 -35 36 -28 11 10 -5 37 -21 37 -8 0 -15 -4 -15
-9z"/>
<path d="M145 2979 c-4 -6 -5 -12 -4 -14 7 -7 59 8 59 16 0 13 -47 11 -55 -2z"/>
<path d="M148 2943 c-32 -8 -20 -26 13 -19 17 3 35 6 40 6 5 0 9 5 9 10 0 10
-30 12 -62 3z"/>
<path d="M245 2935 c-10 -9 -43 -23 -72 -32 -50 -16 -52 -17 -46 -47 8 -41 12
-45 51 -39 22 4 32 11 32 23 0 29 11 50 26 50 7 0 20 10 28 22 27 38 18 50
-19 23z m-65 -75 c0 -11 -7 -20 -15 -20 -8 0 -15 9 -15 20 0 11 7 20 15 20 8
0 15 -9 15 -20z"/>
<path d="M152 2613 c3 -25 -1 -28 -29 -31 -32 -3 -43 -15 -24 -26 4 -3 42 2
82 10 112 24 104 28 107 -51 4 -82 -3 -115 -23 -115 -8 0 -15 -4 -15 -9 0 -15
29 -33 45 -27 12 4 15 25 15 98 0 126 4 138 46 138 l34 0 0 -89 c0 -100 -5
-122 -26 -114 -18 7 -17 -7 1 -31 16 -22 45 -15 45 11 1 10 2 70 3 133 l2 115
-30 -1 c-52 -2 -124 -12 -135 -19 -6 -4 -22 -8 -36 -10 -17 -2 -24 3 -24 15 0
15 -18 30 -37 30 -2 0 -3 -12 -1 -27z"/>
<path d="M230 2551 c0 -12 29 -35 36 -28 11 10 -5 37 -21 37 -8 0 -15 -4 -15
-9z"/>
<path d="M145 2529 c-4 -6 -5 -12 -4 -14 7 -7 59 8 59 16 0 13 -47 11 -55 -2z"/>
<path d="M148 2493 c-32 -8 -20 -26 13 -19 17 3 35 6 40 6 5 0 9 5 9 10 0 10
-30 12 -62 3z"/>
<path d="M245 2485 c-10 -9 -43 -23 -72 -32 -50 -16 -52 -17 -46 -47 8 -41 12
-45 51 -39 22 4 32 11 32 23 0 29 11 50 26 50 7 0 20 10 28 22 27 38 18 50
-19 23z m-65 -75 c0 -11 -7 -20 -15 -20 -8 0 -15 9 -15 20 0 11 7 20 15 20 8
0 15 -9 15 -20z"/>
<path d="M152 2163 c3 -25 -1 -28 -29 -31 -32 -3 -43 -15 -24 -26 4 -3 42 2
82 10 112 24 104 28 107 -51 4 -82 -3 -115 -23 -115 -8 0 -15 -4 -15 -9 0 -15
29 -33 45 -27 12 4 15 25 15 98 0 126 4 138 46 138 l34 0 0 -89 c0 -100 -5
-122 -26 -114 -18 7 -17 -7 1 -31 16 -22 45 -15 45 11 1 10 2 70 3 133 l2 115
-30 -1 c-52 -2 -124 -12 -135 -19 -6 -4 -22 -8 -36 -10 -17 -2 -24 3 -24 15 0
15 -18 30 -37 30 -2 0 -3 -12 -1 -27z"/>
<path d="M330 2107 c0 -14 20 -37 32 -37 15 0 8 38 -8 44 -22 8 -24 8 -24 -7z"/>
<path d="M230 2101 c0 -12 29 -35 36 -28 11 10 -5 37 -21 37 -8 0 -15 -4 -15
-9z"/>
<path d="M145 2079 c-4 -6 -5 -12 -4 -14 7 -7 59 8 59 16 0 13 -47 11 -55 -2z"/>
<path d="M148 2043 c-32 -8 -20 -26 13 -19 17 3 35 6 40 6 5 0 9 5 9 10 0 10
-30 12 -62 3z"/>
<path d="M245 2035 c-10 -9 -43 -23 -72 -32 -50 -16 -52 -17 -46 -47 8 -41 12
-45 51 -39 22 4 32 11 32 23 0 29 11 50 26 50 7 0 20 10 28 22 27 38 18 50
-19 23z m-65 -75 c0 -11 -7 -20 -15 -20 -8 0 -15 9 -15 20 0 11 7 20 15 20 8
0 15 -9 15 -20z"/>
<path d="M152 1713 c3 -25 -1 -28 -29 -31 -32 -3 -43 -15 -24 -26 4 -3 42 2
82 10 112 24 104 28 107 -51 4 -82 -3 -115 -23 -115 -8 0 -15 -4 -15 -9 0 -15
29 -33 45 -27 12 4 15 25 15 98 0 126 4 138 46 138 l34 0 0 -89 c0 -100 -5
-122 -26 -114 -18 7 -17 -7 1 -31 16 -22 45 -15 45 11 1 10 2 70 3 133 l2 115
-30 -1 c-52 -2 -124 -12 -135 -19 -6 -4 -22 -8 -36 -10 -17 -2 -24 3 -24 15 0
15 -18 30 -37 30 -2 0 -3 -12 -1 -27z"/>
<path d="M330 1657 c0 -14 20 -37 32 -37 15 0 8 38 -8 44 -22 8 -24 8 -24 -7z"/>
<path d="M230 1651 c0 -12 29 -35 36 -28 11 10 -5 37 -21 37 -8 0 -15 -4 -15
-9z"/>
<path d="M145 1629 c-4 -6 -5 -12 -4 -14 7 -7 59 8 59 16 0 13 -47 11 -55 -2z"/>
<path d="M343 1591 c-13 -11 -23 -24 -23 -30 0 -19 28 -12 44 11 29 40 17 50
-21 19z"/>
<path d="M148 1593 c-32 -8 -20 -26 13 -19 17 3 35 6 40 6 5 0 9 5 9 10 0 10
-30 12 -62 3z"/>
<path d="M245 1585 c-10 -9 -43 -23 -72 -32 -50 -16 -52 -17 -46 -47 8 -41 12
-45 51 -39 22 4 32 11 32 23 0 29 11 50 26 50 7 0 20 10 28 22 27 38 18 50
-19 23z m-65 -75 c0 -11 -7 -20 -15 -20 -8 0 -15 9 -15 20 0 11 7 20 15 20 8
0 15 -9 15 -20z"/>
</g>
</svg>
