<?xml version="1.0" standalone="no"?>
<!DOCTYPE svg PUBLIC "-//W3C//DTD SVG 20010904//EN"
 "http://www.w3.org/TR/2001/REC-SVG-20010904/DTD/svg10.dtd">
<svg version="1.0" xmlns="http://www.w3.org/2000/svg"
 width="50.000000pt" height="725.000000pt" viewBox="0 0 50.000000 725.000000"
 preserveAspectRatio="xMidYMid meet">
<metadata>
Created by potrace 1.16, written by Peter Selinger 2001-2019
</metadata>
<g transform="translate(0.000000,725.000000) scale(0.100000,-0.100000)"
fill="#000000" stroke="none">
<path d="M160 7120 c0 -18 20 -50 31 -50 18 0 5 55 -13 58 -10 2 -18 -2 -18
-8z"/>
<path d="M162 6653 c3 -25 0 -28 -29 -31 -22 -2 -33 -9 -33 -19 0 -12 7 -14
33 -8 17 3 49 9 70 12 38 6 52 23 18 23 -13 0 -21 8 -23 22 -2 13 -11 24 -21
26 -14 3 -17 -2 -15 -25z"/>
<path d="M162 6203 c3 -25 0 -28 -29 -31 -22 -2 -33 -9 -33 -19 0 -12 7 -14
33 -8 17 3 49 9 70 12 38 6 52 23 18 23 -13 0 -21 8 -23 22 -2 13 -11 24 -21
26 -14 3 -17 -2 -15 -25z"/>
<path d="M158 6123 c-32 -8 -20 -26 13 -19 17 3 35 6 40 6 5 0 9 5 9 10 0 10
-30 12 -62 3z"/>
<path d="M162 5753 c3 -25 0 -28 -29 -31 -22 -2 -33 -9 -33 -19 0 -12 7 -14
33 -8 17 3 49 9 70 12 38 6 52 23 18 23 -13 0 -21 8 -23 22 -2 13 -11 24 -21
26 -14 3 -17 -2 -15 -25z"/>
<path d="M158 5673 c-32 -8 -20 -26 13 -19 17 3 35 6 40 6 5 0 9 5 9 10 0 10
-30 12 -62 3z"/>
<path d="M150 5630 c-8 -5 -12 -11 -9 -14 8 -8 79 6 79 15 0 12 -51 11 -70 -1z"/>
<path d="M162 5303 c3 -25 0 -28 -29 -31 -22 -2 -33 -9 -33 -19 0 -12 7 -14
33 -8 17 3 49 9 70 12 38 6 52 23 18 23 -13 0 -21 8 -23 22 -2 13 -11 24 -21
26 -14 3 -17 -2 -15 -25z"/>
<path d="M158 5223 c-32 -8 -20 -26 13 -19 17 3 35 6 40 6 5 0 9 5 9 10 0 10
-30 12 -62 3z"/>
<path d="M150 5180 c-8 -5 -12 -11 -9 -14 8 -8 79 6 79 15 0 12 -51 11 -70 -1z"/>
<path d="M125 5124 c4 -11 10 -29 12 -41 8 -37 24 -26 21 14 -2 28 -8 39 -22
41 -15 3 -17 0 -11 -14z"/>
<path d="M162 4853 c3 -25 0 -28 -29 -31 -22 -2 -33 -9 -33 -19 0 -12 7 -14
33 -8 17 3 49 9 70 12 38 6 52 23 18 23 -13 0 -21 8 -23 22 -2 13 -11 24 -21
26 -14 3 -17 -2 -15 -25z"/>
<path d="M158 4773 c-32 -8 -20 -26 13 -19 17 3 35 6 40 6 5 0 9 5 9 10 0 10
-30 12 -62 3z"/>
<path d="M150 4730 c-8 -5 -12 -11 -9 -14 8 -8 79 6 79 15 0 12 -51 11 -70 -1z"/>
<path d="M147 4693 c-22 -4 -27 -8 -21 -21 3 -9 9 -27 11 -39 8 -33 21 -28 25
9 4 39 28 51 28 14 0 -33 13 -33 28 -1 21 46 14 50 -71 38z"/>
<path d="M162 4403 c3 -25 0 -28 -29 -31 -22 -2 -33 -9 -33 -19 0 -12 7 -14
33 -8 17 3 49 9 70 12 38 6 52 23 18 23 -13 0 -21 8 -23 22 -2 13 -11 24 -21
26 -14 3 -17 -2 -15 -25z"/>
<path d="M158 4323 c-32 -8 -20 -26 13 -19 17 3 35 6 40 6 5 0 9 5 9 10 0 10
-30 12 -62 3z"/>
<path d="M150 4280 c-8 -5 -12 -11 -9 -14 8 -8 79 6 79 15 0 12 -51 11 -70 -1z"/>
<path d="M147 4243 c-22 -4 -27 -8 -21 -21 3 -9 9 -27 12 -40 3 -15 10 -21 19
-18 8 3 22 6 32 6 14 0 41 47 41 73 0 7 -35 7 -83 0z m43 -27 c0 -16 -18 -31
-27 -22 -8 8 5 36 17 36 5 0 10 -6 10 -14z"/>
<path d="M162 3953 c3 -25 0 -28 -29 -31 -22 -2 -33 -9 -33 -19 0 -12 7 -14
33 -8 17 3 49 9 70 12 38 6 52 23 18 23 -13 0 -21 8 -23 22 -2 13 -11 24 -21
26 -14 3 -17 -2 -15 -25z"/>
<path d="M318 3948 c-21 -6 -38 -15 -38 -20 0 -7 14 -8 38 -4 20 3 45 6 55 6
9 0 17 7 17 15 0 17 -18 18 -72 3z"/>
<path d="M158 3873 c-32 -8 -20 -26 13 -19 17 3 35 6 40 6 5 0 9 5 9 10 0 10
-30 12 -62 3z"/>
<path d="M150 3830 c-8 -5 -12 -11 -9 -14 8 -8 79 6 79 15 0 12 -51 11 -70 -1z"/>
<path d="M147 3793 c-22 -4 -27 -8 -21 -21 3 -9 9 -27 12 -40 3 -15 10 -21 19
-18 8 3 22 6 32 6 14 0 41 47 41 73 0 7 -35 7 -83 0z m43 -27 c0 -16 -18 -31
-27 -22 -8 8 5 36 17 36 5 0 10 -6 10 -14z"/>
<path d="M270 3492 c0 -32 5 -63 12 -70 13 -13 78 -16 116 -6 42 12 17 29 -43
29 -76 0 -87 21 -16 31 33 4 51 11 51 20 0 16 -13 17 -58 5 -31 -9 -32 -9 -32
20 0 19 -5 29 -15 29 -12 0 -15 -13 -15 -58z"/>
<path d="M162 3503 c3 -25 0 -28 -29 -31 -22 -2 -33 -9 -33 -19 0 -12 7 -14
33 -8 17 3 49 9 70 12 38 6 52 23 18 23 -13 0 -21 8 -23 22 -2 13 -11 24 -21
26 -14 3 -17 -2 -15 -25z"/>
<path d="M158 3423 c-32 -8 -20 -26 13 -19 17 3 35 6 40 6 5 0 9 5 9 10 0 10
-30 12 -62 3z"/>
<path d="M150 3380 c-8 -5 -12 -11 -9 -14 8 -8 79 6 79 15 0 12 -51 11 -70 -1z"/>
<path d="M147 3343 c-22 -4 -27 -8 -21 -21 3 -9 9 -27 12 -40 3 -15 10 -21 19
-18 8 3 22 6 32 6 14 0 41 47 41 73 0 7 -35 7 -83 0z m43 -27 c0 -16 -18 -31
-27 -22 -8 8 5 36 17 36 5 0 10 -6 10 -14z"/>
<path d="M270 3042 c0 -32 5 -63 12 -70 13 -13 78 -16 116 -6 42 12 17 29 -43
29 -76 0 -87 21 -16 31 33 4 51 11 51 20 0 16 -13 17 -58 5 -31 -9 -32 -9 -32
20 0 19 -5 29 -15 29 -12 0 -15 -13 -15 -58z"/>
<path d="M162 3053 c3 -25 0 -28 -29 -31 -22 -2 -33 -9 -33 -19 0 -12 7 -14
33 -8 17 3 49 9 70 12 38 6 52 23 18 23 -13 0 -21 8 -23 22 -2 13 -11 24 -21
26 -14 3 -17 -2 -15 -25z"/>
<path d="M158 2973 c-32 -8 -20 -26 13 -19 17 3 35 6 40 6 5 0 9 5 9 10 0 10
-30 12 -62 3z"/>
<path d="M150 2930 c-8 -5 -12 -11 -9 -14 8 -8 79 6 79 15 0 12 -51 11 -70 -1z"/>
<path d="M264 2875 c-1 -49 3 -65 13 -65 11 0 13 14 11 62 -4 83 -23 86 -24 3z"/>
<path d="M147 2893 c-22 -4 -27 -8 -21 -21 3 -9 9 -27 12 -40 3 -15 10 -21 19
-18 8 3 22 6 32 6 14 0 41 47 41 73 0 7 -35 7 -83 0z m43 -27 c0 -16 -18 -31
-27 -22 -8 8 5 36 17 36 5 0 10 -6 10 -14z"/>
<path d="M270 2592 c0 -32 5 -63 12 -70 13 -13 78 -16 116 -6 42 12 17 29 -43
29 -76 0 -87 21 -16 31 33 4 51 11 51 20 0 16 -13 17 -58 5 -31 -9 -32 -9 -32
20 0 19 -5 29 -15 29 -12 0 -15 -13 -15 -58z"/>
<path d="M162 2603 c3 -25 0 -28 -29 -31 -22 -2 -33 -9 -33 -19 0 -12 7 -14
33 -8 17 3 49 9 70 12 38 6 52 23 18 23 -13 0 -21 8 -23 22 -2 13 -11 24 -21
26 -14 3 -17 -2 -15 -25z"/>
<path d="M158 2523 c-32 -8 -20 -26 13 -19 17 3 35 6 40 6 5 0 9 5 9 10 0 10
-30 12 -62 3z"/>
<path d="M150 2480 c-8 -5 -12 -11 -9 -14 8 -8 79 6 79 15 0 12 -51 11 -70 -1z"/>
<path d="M264 2425 c-1 -46 3 -65 12 -65 15 0 24 112 9 122 -18 14 -20 9 -21
-57z"/>
<path d="M310 2480 c0 -5 14 -10 31 -10 l31 0 -4 -62 c-2 -51 0 -63 12 -63 12
0 16 16 18 73 l3 72 -46 0 c-25 0 -45 -4 -45 -10z"/>
<path d="M147 2443 c-22 -4 -27 -8 -21 -21 3 -9 9 -27 12 -40 3 -15 10 -21 19
-18 8 3 22 6 32 6 14 0 41 47 41 73 0 7 -35 7 -83 0z m43 -27 c0 -16 -18 -31
-27 -22 -8 8 5 36 17 36 5 0 10 -6 10 -14z"/>
<path d="M270 2142 c0 -32 5 -63 12 -70 13 -13 78 -16 116 -6 42 12 17 29 -43
29 -76 0 -87 21 -16 31 33 4 51 11 51 20 0 16 -13 17 -58 5 -31 -9 -32 -9 -32
20 0 19 -5 29 -15 29 -12 0 -15 -13 -15 -58z"/>
<path d="M162 2153 c3 -25 0 -28 -29 -31 -22 -2 -33 -9 -33 -19 0 -12 7 -14
33 -8 17 3 49 9 70 12 38 6 52 23 18 23 -13 0 -21 8 -23 22 -2 13 -11 24 -21
26 -14 3 -17 -2 -15 -25z"/>
<path d="M158 2073 c-32 -8 -20 -26 13 -19 17 3 35 6 40 6 5 0 9 5 9 10 0 10
-30 12 -62 3z"/>
<path d="M150 2030 c-8 -5 -12 -11 -9 -14 8 -8 79 6 79 15 0 12 -51 11 -70 -1z"/>
<path d="M264 1975 c-1 -48 3 -65 13 -65 7 0 13 11 13 24 0 25 16 36 56 36 21
0 23 -4 21 -37 -1 -28 2 -38 13 -38 12 0 16 16 18 73 l3 72 -46 0 c-25 0 -45
-4 -45 -10 0 -5 14 -10 30 -10 20 0 30 -5 30 -15 0 -9 -9 -15 -24 -15 -13 0
-32 -3 -42 -7 -14 -5 -16 -2 -11 19 6 22 -6 38 -26 38 -1 0 -2 -29 -3 -65z"/>
<path d="M147 1993 c-22 -4 -27 -8 -21 -21 3 -9 9 -27 12 -40 3 -15 10 -21 19
-18 8 3 22 6 32 6 14 0 41 47 41 73 0 7 -35 7 -83 0z m43 -27 c0 -16 -18 -31
-27 -22 -8 8 5 36 17 36 5 0 10 -6 10 -14z"/>
<path d="M270 1692 c0 -32 5 -63 12 -70 13 -13 78 -16 116 -6 42 12 17 29 -43
29 -76 0 -87 21 -16 31 33 4 51 11 51 20 0 16 -13 17 -58 5 -31 -9 -32 -9 -32
20 0 19 -5 29 -15 29 -12 0 -15 -13 -15 -58z"/>
<path d="M162 1703 c3 -25 0 -28 -29 -31 -22 -2 -33 -9 -33 -19 0 -12 7 -14
33 -8 17 3 49 9 70 12 38 6 52 23 18 23 -13 0 -21 8 -23 22 -2 13 -11 24 -21
26 -14 3 -17 -2 -15 -25z"/>
<path d="M158 1623 c-32 -8 -20 -26 13 -19 17 3 35 6 40 6 5 0 9 5 9 10 0 10
-30 12 -62 3z"/>
<path d="M150 1580 c-8 -5 -12 -11 -9 -14 8 -8 79 6 79 15 0 12 -51 11 -70 -1z"/>
<path d="M264 1525 l-1 -64 44 6 c35 5 46 2 57 -12 23 -32 36 -8 36 66 l0 69
-45 0 c-25 0 -45 -4 -45 -10 0 -5 14 -10 30 -10 20 0 30 -5 30 -15 0 -9 -9
-15 -24 -15 -13 0 -32 -3 -42 -7 -14 -5 -16 -2 -11 19 6 22 -6 38 -26 38 -1 0
-2 -29 -3 -65z m106 -20 c0 -11 -11 -15 -40 -15 -62 0 -50 27 13 29 18 1 27
-4 27 -14z"/>
<path d="M147 1543 c-22 -4 -27 -8 -21 -21 3 -9 9 -27 12 -40 3 -15 10 -21 19
-18 8 3 22 6 32 6 14 0 41 47 41 73 0 7 -35 7 -83 0z m43 -27 c0 -16 -18 -31
-27 -22 -8 8 5 36 17 36 5 0 10 -6 10 -14z"/>
</g>
</svg>
