<?xml version="1.0" standalone="no"?>
<!DOCTYPE svg PUBLIC "-//W3C//DTD SVG 20010904//EN"
 "http://www.w3.org/TR/2001/REC-SVG-20010904/DTD/svg10.dtd">
<svg version="1.0" xmlns="http://www.w3.org/2000/svg"
 width="50.000000pt" height="725.000000pt" viewBox="0 0 50.000000 725.000000"
 preserveAspectRatio="xMidYMid meet">
<metadata>
Created by potrace 1.16, written by Peter Selinger 2001-2019
</metadata>
<g transform="translate(0.000000,725.000000) scale(0.100000,-0.100000)"
fill="#000000" stroke="none">
<path d="M145 7108 c11 -34 23 -44 37 -30 15 15 -1 45 -27 50 -14 3 -16 -1
-10 -20z"/>
<path d="M143 6653 c2 -25 -2 -28 -30 -31 -22 -2 -33 -9 -33 -19 0 -12 7 -14
33 -8 17 3 49 9 70 12 34 5 53 23 24 23 -7 0 -17 10 -22 22 -6 13 -18 24 -27
26 -13 3 -16 -3 -15 -25z"/>
<path d="M143 6203 c2 -25 -2 -28 -30 -31 -22 -2 -33 -9 -33 -19 0 -12 7 -14
33 -8 17 3 49 9 70 12 34 5 53 23 24 23 -7 0 -17 10 -22 22 -6 13 -18 24 -27
26 -13 3 -16 -3 -15 -25z"/>
<path d="M138 6123 c-32 -8 -20 -26 13 -19 17 3 35 6 40 6 5 0 9 5 9 10 0 10
-30 12 -62 3z"/>
<path d="M143 5753 c2 -25 -2 -28 -30 -31 -22 -2 -33 -9 -33 -19 0 -12 7 -14
33 -8 17 3 49 9 70 12 34 5 53 23 24 23 -7 0 -17 10 -22 22 -6 13 -18 24 -27
26 -13 3 -16 -3 -15 -25z"/>
<path d="M138 5673 c-32 -8 -20 -26 13 -19 17 3 35 6 40 6 5 0 9 5 9 10 0 10
-30 12 -62 3z"/>
<path d="M130 5630 c-8 -5 -12 -11 -9 -14 8 -8 79 6 79 15 0 12 -51 11 -70 -1z"/>
<path d="M143 5303 c2 -25 -2 -28 -30 -31 -22 -2 -33 -9 -33 -19 0 -12 7 -14
33 -8 17 3 49 9 70 12 34 5 53 23 24 23 -7 0 -17 10 -22 22 -6 13 -18 24 -27
26 -13 3 -16 -3 -15 -25z"/>
<path d="M138 5223 c-32 -8 -20 -26 13 -19 17 3 35 6 40 6 5 0 9 5 9 10 0 10
-30 12 -62 3z"/>
<path d="M130 5180 c-8 -5 -12 -11 -9 -14 8 -8 79 6 79 15 0 12 -51 11 -70 -1z"/>
<path d="M113 5119 c4 -13 7 -32 7 -41 0 -10 5 -18 11 -18 15 0 6 73 -10 78
-10 4 -12 -1 -8 -19z"/>
<path d="M143 4853 c2 -25 -2 -28 -30 -31 -22 -2 -33 -9 -33 -19 0 -12 7 -14
33 -8 17 3 49 9 70 12 34 5 53 23 24 23 -7 0 -17 10 -22 22 -6 13 -18 24 -27
26 -13 3 -16 -3 -15 -25z"/>
<path d="M138 4773 c-32 -8 -20 -26 13 -19 17 3 35 6 40 6 5 0 9 5 9 10 0 10
-30 12 -62 3z"/>
<path d="M130 4730 c-8 -5 -12 -11 -9 -14 8 -8 79 6 79 15 0 12 -51 11 -70 -1z"/>
<path d="M137 4693 c-24 -4 -28 -8 -23 -26 3 -12 6 -30 6 -39 0 -10 5 -18 10
-18 6 0 10 14 10 30 0 20 5 30 15 30 8 0 15 -9 15 -20 0 -28 19 -25 30 6 16
42 8 47 -63 37z"/>
<path d="M143 4403 c2 -25 -2 -28 -30 -31 -22 -2 -33 -9 -33 -19 0 -12 7 -14
33 -8 17 3 49 9 70 12 34 5 53 23 24 23 -7 0 -17 10 -22 22 -6 13 -18 24 -27
26 -13 3 -16 -3 -15 -25z"/>
<path d="M138 4323 c-32 -8 -20 -26 13 -19 17 3 35 6 40 6 5 0 9 5 9 10 0 10
-30 12 -62 3z"/>
<path d="M130 4280 c-8 -5 -12 -11 -9 -14 8 -8 79 6 79 15 0 12 -51 11 -70 -1z"/>
<path d="M137 4243 c-26 -4 -27 -7 -21 -41 4 -20 7 -38 8 -39 1 -1 18 0 38 3
31 5 37 11 41 38 7 48 4 49 -66 39z m33 -38 c0 -8 -7 -15 -15 -15 -8 0 -15 7
-15 15 0 8 7 15 15 15 8 0 15 -7 15 -15z"/>
<path d="M290 3989 c0 -20 21 -49 35 -49 22 0 18 38 -4 50 -25 13 -31 13 -31
-1z"/>
<path d="M143 3953 c2 -25 -2 -28 -30 -31 -22 -2 -33 -9 -33 -19 0 -12 7 -14
33 -8 17 3 49 9 70 12 34 5 53 23 24 23 -7 0 -17 10 -22 22 -6 13 -18 24 -27
26 -13 3 -16 -3 -15 -25z"/>
<path d="M138 3873 c-32 -8 -20 -26 13 -19 17 3 35 6 40 6 5 0 9 5 9 10 0 10
-30 12 -62 3z"/>
<path d="M130 3830 c-8 -5 -12 -11 -9 -14 8 -8 79 6 79 15 0 12 -51 11 -70 -1z"/>
<path d="M137 3793 c-26 -4 -27 -7 -21 -41 4 -20 7 -38 8 -39 1 -1 18 0 38 3
31 5 37 11 41 38 7 48 4 49 -66 39z m33 -38 c0 -8 -7 -15 -15 -15 -8 0 -15 7
-15 15 0 8 7 15 15 15 8 0 15 -7 15 -15z"/>
<path d="M290 3539 c0 -20 21 -49 35 -49 22 0 18 38 -4 50 -25 13 -31 13 -31
-1z"/>
<path d="M143 3503 c2 -25 -2 -28 -30 -31 -22 -2 -33 -9 -33 -19 0 -12 7 -14
33 -8 17 3 49 9 70 12 34 5 53 23 24 23 -7 0 -17 10 -22 22 -6 13 -18 24 -27
26 -13 3 -16 -3 -15 -25z"/>
<path d="M230 3471 c-14 -27 -13 -51 4 -51 13 0 26 28 26 58 0 19 -18 14 -30
-7z"/>
<path d="M138 3423 c-32 -8 -20 -26 13 -19 17 3 35 6 40 6 5 0 9 5 9 10 0 10
-30 12 -62 3z"/>
<path d="M130 3380 c-8 -5 -12 -11 -9 -14 8 -8 79 6 79 15 0 12 -51 11 -70 -1z"/>
<path d="M137 3343 c-26 -4 -27 -7 -21 -41 4 -20 7 -38 8 -39 1 -1 18 0 38 3
31 5 37 11 41 38 7 48 4 49 -66 39z m33 -38 c0 -8 -7 -15 -15 -15 -8 0 -15 7
-15 15 0 8 7 15 15 15 8 0 15 -7 15 -15z"/>
<path d="M290 3089 c0 -6 5 -19 10 -30 10 -17 7 -19 -24 -19 -36 0 -56 -20
-56 -54 0 -25 27 -19 34 8 4 18 15 25 43 30 68 11 82 8 76 -14 -6 -23 -3 -24
32 -8 47 21 18 62 -38 51 -20 -4 -27 -1 -27 10 0 9 -9 21 -19 27 -25 13 -31
13 -31 -1z"/>
<path d="M143 3053 c2 -25 -2 -28 -30 -31 -22 -2 -33 -9 -33 -19 0 -12 7 -14
33 -8 17 3 49 9 70 12 34 5 53 23 24 23 -7 0 -17 10 -22 22 -6 13 -18 24 -27
26 -13 3 -16 -3 -15 -25z"/>
<path d="M138 2973 c-32 -8 -20 -26 13 -19 17 3 35 6 40 6 5 0 9 5 9 10 0 10
-30 12 -62 3z"/>
<path d="M130 2930 c-8 -5 -12 -11 -9 -14 8 -8 79 6 79 15 0 12 -51 11 -70 -1z"/>
<path d="M137 2893 c-26 -4 -27 -7 -21 -41 4 -20 7 -38 8 -39 1 -1 18 0 38 3
31 5 37 11 41 38 7 48 4 49 -66 39z m33 -38 c0 -8 -7 -15 -15 -15 -8 0 -15 7
-15 15 0 8 7 15 15 15 8 0 15 -7 15 -15z"/>
<path d="M290 2639 c0 -6 5 -19 10 -30 10 -17 7 -19 -24 -19 -36 0 -56 -20
-56 -54 0 -25 27 -19 34 8 4 18 15 25 43 30 68 11 82 8 76 -14 -6 -23 -3 -24
32 -8 47 21 18 62 -38 51 -20 -4 -27 -1 -27 10 0 9 -9 21 -19 27 -25 13 -31
13 -31 -1z"/>
<path d="M143 2603 c2 -25 -2 -28 -30 -31 -22 -2 -33 -9 -33 -19 0 -12 7 -14
33 -8 17 3 49 9 70 12 34 5 53 23 24 23 -7 0 -17 10 -22 22 -6 13 -18 24 -27
26 -13 3 -16 -3 -15 -25z"/>
<path d="M286 2529 c-17 -15 -27 -31 -24 -34 10 -10 88 34 88 50 0 24 -32 16
-64 -16z"/>
<path d="M138 2523 c-32 -8 -20 -26 13 -19 17 3 35 6 40 6 5 0 9 5 9 10 0 10
-30 12 -62 3z"/>
<path d="M130 2480 c-8 -5 -12 -11 -9 -14 8 -8 79 6 79 15 0 12 -51 11 -70 -1z"/>
<path d="M137 2443 c-26 -4 -27 -7 -21 -41 4 -20 7 -38 8 -39 1 -1 18 0 38 3
31 5 37 11 41 38 7 48 4 49 -66 39z m33 -38 c0 -8 -7 -15 -15 -15 -8 0 -15 7
-15 15 0 8 7 15 15 15 8 0 15 -7 15 -15z"/>
<path d="M290 2189 c0 -6 5 -19 10 -30 10 -17 7 -19 -24 -19 -36 0 -56 -20
-56 -54 0 -25 27 -19 34 8 4 18 15 25 43 30 68 11 82 8 76 -14 -6 -23 -3 -24
32 -8 47 21 18 62 -38 51 -20 -4 -27 -1 -27 10 0 9 -9 21 -19 27 -25 13 -31
13 -31 -1z"/>
<path d="M143 2153 c2 -25 -2 -28 -30 -31 -22 -2 -33 -9 -33 -19 0 -12 7 -14
33 -8 17 3 49 9 70 12 34 5 53 23 24 23 -7 0 -17 10 -22 22 -6 13 -18 24 -27
26 -13 3 -16 -3 -15 -25z"/>
<path d="M286 2079 c-17 -15 -27 -31 -24 -34 10 -10 88 34 88 50 0 24 -32 16
-64 -16z"/>
<path d="M138 2073 c-32 -8 -20 -26 13 -19 17 3 35 6 40 6 5 0 9 5 9 10 0 10
-30 12 -62 3z"/>
<path d="M130 2030 c-8 -5 -12 -11 -9 -14 8 -8 79 6 79 15 0 12 -51 11 -70 -1z"/>
<path d="M297 2022 c-37 -9 -66 -21 -64 -27 5 -11 5 -11 100 7 37 7 66 17 64
23 -5 15 -25 14 -100 -3z"/>
<path d="M137 1993 c-26 -4 -27 -7 -21 -41 4 -20 7 -38 8 -39 1 -1 18 0 38 3
31 5 37 11 41 38 7 48 4 49 -66 39z m33 -38 c0 -8 -7 -15 -15 -15 -8 0 -15 7
-15 15 0 8 7 15 15 15 8 0 15 -7 15 -15z"/>
<path d="M290 1739 c0 -6 5 -19 10 -30 10 -17 7 -19 -24 -19 -36 0 -56 -20
-56 -54 0 -25 27 -19 34 8 4 18 15 25 43 30 68 11 82 8 76 -14 -6 -23 -3 -24
32 -8 47 21 18 62 -38 51 -20 -4 -27 -1 -27 10 0 9 -9 21 -19 27 -25 13 -31
13 -31 -1z"/>
<path d="M143 1703 c2 -25 -2 -28 -30 -31 -22 -2 -33 -9 -33 -19 0 -12 7 -14
33 -8 17 3 49 9 70 12 34 5 53 23 24 23 -7 0 -17 10 -22 22 -6 13 -18 24 -27
26 -13 3 -16 -3 -15 -25z"/>
<path d="M285 1628 c-20 -20 -26 -32 -17 -35 23 -9 13 -33 -14 -33 -16 0 -24
-5 -21 -12 2 -7 13 -12 24 -11 17 2 22 -5 27 -37 7 -46 27 -60 83 -60 50 0 75
18 67 48 -8 27 -15 28 -37 2 -19 -22 -57 -26 -75 -8 -7 7 -12 24 -12 39 0 28
19 39 68 39 12 0 22 4 22 9 0 18 -19 22 -54 13 -31 -9 -33 -8 -28 12 3 11 11
25 19 29 19 12 16 37 -4 36 -10 -1 -31 -15 -48 -31z"/>
<path d="M138 1623 c-32 -8 -20 -26 13 -19 17 3 35 6 40 6 5 0 9 5 9 10 0 10
-30 12 -62 3z"/>
<path d="M130 1580 c-8 -5 -12 -11 -9 -14 8 -8 79 6 79 15 0 12 -51 11 -70 -1z"/>
<path d="M137 1543 c-26 -4 -27 -7 -21 -41 4 -20 7 -38 8 -39 1 -1 18 0 38 3
31 5 37 11 41 38 7 48 4 49 -66 39z m33 -38 c0 -8 -7 -15 -15 -15 -8 0 -15 7
-15 15 0 8 7 15 15 15 8 0 15 -7 15 -15z"/>
</g>
</svg>
