<?xml version="1.0" standalone="no"?>
<!DOCTYPE svg PUBLIC "-//W3C//DTD SVG 20010904//EN"
 "http://www.w3.org/TR/2001/REC-SVG-20010904/DTD/svg10.dtd">
<svg version="1.0" xmlns="http://www.w3.org/2000/svg"
 width="50.000000pt" height="725.000000pt" viewBox="0 0 50.000000 725.000000"
 preserveAspectRatio="xMidYMid meet">
<metadata>
Created by potrace 1.16, written by Peter Selinger 2001-2019
</metadata>
<g transform="translate(0.000000,725.000000) scale(0.100000,-0.100000)"
fill="#000000" stroke="none">
<path d="M150 7119 c0 -17 20 -49 30 -49 17 0 11 47 -6 54 -21 8 -24 8 -24 -5z"/>
<path d="M150 6669 c0 -6 4 -19 10 -29 8 -16 4 -19 -35 -25 -48 -7 -62 -25
-20 -25 40 0 125 21 125 31 0 5 -9 9 -20 9 -13 0 -20 7 -20 19 0 10 -7 22 -16
25 -21 8 -24 8 -24 -5z"/>
<path d="M150 6219 c0 -6 4 -19 10 -29 8 -16 4 -19 -35 -25 -48 -7 -62 -25
-20 -25 40 0 125 21 125 31 0 5 -9 9 -20 9 -13 0 -20 7 -20 19 0 10 -7 22 -16
25 -21 8 -24 8 -24 -5z"/>
<path d="M158 6123 c-10 -2 -18 -9 -18 -14 0 -15 53 -6 58 9 4 12 -8 14 -40 5z"/>
<path d="M150 5769 c0 -6 4 -19 10 -29 8 -16 4 -19 -35 -25 -48 -7 -62 -25
-20 -25 40 0 125 21 125 31 0 5 -9 9 -20 9 -13 0 -20 7 -20 19 0 10 -7 22 -16
25 -21 8 -24 8 -24 -5z"/>
<path d="M158 5673 c-10 -2 -18 -9 -18 -14 0 -15 53 -6 58 9 4 12 -8 14 -40 5z"/>
<path d="M153 5633 c-13 -2 -23 -9 -23 -14 0 -15 63 -6 68 9 4 12 -4 13 -45 5z"/>
<path d="M150 5319 c0 -6 4 -19 10 -29 8 -16 4 -19 -35 -25 -48 -7 -62 -25
-20 -25 40 0 125 21 125 31 0 5 -9 9 -20 9 -13 0 -20 7 -20 19 0 10 -7 22 -16
25 -21 8 -24 8 -24 -5z"/>
<path d="M158 5223 c-10 -2 -18 -9 -18 -14 0 -15 53 -6 58 9 4 12 -8 14 -40 5z"/>
<path d="M153 5183 c-13 -2 -23 -9 -23 -14 0 -15 63 -6 68 9 4 12 -4 13 -45 5z"/>
<path d="M115 5114 c4 -11 10 -29 12 -41 8 -37 24 -26 21 14 -2 28 -8 39 -22
41 -15 3 -17 0 -11 -14z"/>
<path d="M150 4869 c0 -6 4 -19 10 -29 8 -16 4 -19 -35 -25 -48 -7 -62 -25
-20 -25 40 0 125 21 125 31 0 5 -9 9 -20 9 -13 0 -20 7 -20 19 0 10 -7 22 -16
25 -21 8 -24 8 -24 -5z"/>
<path d="M158 4773 c-10 -2 -18 -9 -18 -14 0 -15 53 -6 58 9 4 12 -8 14 -40 5z"/>
<path d="M153 4733 c-13 -2 -23 -9 -23 -14 0 -15 63 -6 68 9 4 12 -4 13 -45 5z"/>
<path d="M147 4687 c-28 -8 -36 -15 -31 -26 4 -9 9 -26 11 -38 8 -35 23 -27
23 12 0 24 5 35 15 35 9 0 15 -9 15 -25 0 -35 13 -31 28 7 9 25 9 34 -1 40 -6
4 -14 7 -17 7 -3 -1 -22 -6 -43 -12z"/>
<path d="M150 4419 c0 -6 4 -19 10 -29 8 -16 4 -19 -35 -25 -48 -7 -62 -25
-20 -25 40 0 125 21 125 31 0 5 -9 9 -20 9 -13 0 -20 7 -20 19 0 10 -7 22 -16
25 -21 8 -24 8 -24 -5z"/>
<path d="M158 4323 c-10 -2 -18 -9 -18 -14 0 -15 53 -6 58 9 4 12 -8 14 -40 5z"/>
<path d="M153 4283 c-13 -2 -23 -9 -23 -14 0 -15 63 -6 68 9 4 12 -4 13 -45 5z"/>
<path d="M150 4237 c-19 -6 -36 -11 -37 -12 -2 -1 14 -53 23 -73 0 -1 14 3 30
8 35 12 63 68 41 82 -14 9 -12 9 -57 -5z m28 -34 c-5 -25 -28 -28 -28 -4 0 12
6 21 16 21 9 0 14 -7 12 -17z"/>
<path d="M316 3965 c-22 -19 -37 -37 -34 -40 4 -4 95 30 107 41 5 5 -19 34
-28 34 -3 -1 -24 -16 -45 -35z"/>
<path d="M150 3969 c0 -6 4 -19 10 -29 8 -16 4 -19 -35 -25 -48 -7 -62 -25
-20 -25 40 0 125 21 125 31 0 5 -9 9 -20 9 -13 0 -20 7 -20 19 0 10 -7 22 -16
25 -21 8 -24 8 -24 -5z"/>
<path d="M158 3873 c-10 -2 -18 -9 -18 -14 0 -15 53 -6 58 9 4 12 -8 14 -40 5z"/>
<path d="M153 3833 c-13 -2 -23 -9 -23 -14 0 -15 63 -6 68 9 4 12 -4 13 -45 5z"/>
<path d="M150 3787 c-19 -6 -36 -11 -37 -12 -2 -1 14 -53 23 -73 0 -1 14 3 30
8 35 12 63 68 41 82 -14 9 -12 9 -57 -5z m28 -34 c-5 -25 -28 -28 -28 -4 0 12
6 21 16 21 9 0 14 -7 12 -17z"/>
<path d="M322 3520 c-18 -17 -41 -30 -52 -30 -17 0 -20 -7 -20 -52 -1 -46 -16
-103 -45 -172 -6 -14 -5 -18 6 -14 25 8 49 64 61 141 l12 76 51 22 c62 26 61
25 45 44 -17 20 -20 19 -58 -15z"/>
<path d="M150 3519 c0 -6 4 -19 10 -29 8 -16 4 -19 -35 -25 -48 -7 -62 -25
-20 -25 40 0 125 21 125 31 0 5 -9 9 -20 9 -13 0 -20 7 -20 19 0 10 -7 22 -16
25 -21 8 -24 8 -24 -5z"/>
<path d="M158 3423 c-10 -2 -18 -9 -18 -14 0 -15 53 -6 58 9 4 12 -8 14 -40 5z"/>
<path d="M153 3383 c-13 -2 -23 -9 -23 -14 0 -15 63 -6 68 9 4 12 -4 13 -45 5z"/>
<path d="M150 3337 c-19 -6 -36 -11 -37 -12 -2 -1 14 -53 23 -73 0 -1 14 3 30
8 35 12 63 68 41 82 -14 9 -12 9 -57 -5z m28 -34 c-5 -25 -28 -28 -28 -4 0 12
6 21 16 21 9 0 14 -7 12 -17z"/>
<path d="M322 3070 c-18 -17 -41 -30 -52 -30 -17 0 -20 -7 -20 -52 -1 -46 -16
-104 -45 -170 -11 -28 12 -22 31 8 10 14 22 49 29 77 13 58 23 63 118 66 34 1
47 5 44 14 -4 13 -41 15 -104 3 -39 -7 -43 -6 -43 12 0 14 15 26 53 42 64 27
63 26 47 45 -17 20 -20 19 -58 -15z"/>
<path d="M150 3069 c0 -6 4 -19 10 -29 8 -16 4 -19 -35 -25 -48 -7 -62 -25
-20 -25 40 0 125 21 125 31 0 5 -9 9 -20 9 -13 0 -20 7 -20 19 0 10 -7 22 -16
25 -21 8 -24 8 -24 -5z"/>
<path d="M158 2973 c-10 -2 -18 -9 -18 -14 0 -15 53 -6 58 9 4 12 -8 14 -40 5z"/>
<path d="M153 2933 c-13 -2 -23 -9 -23 -14 0 -15 63 -6 68 9 4 12 -4 13 -45 5z"/>
<path d="M150 2887 c-19 -6 -36 -11 -37 -12 -2 -1 14 -53 23 -73 0 -1 14 3 30
8 35 12 63 68 41 82 -14 9 -12 9 -57 -5z m28 -34 c-5 -25 -28 -28 -28 -4 0 12
6 21 16 21 9 0 14 -7 12 -17z"/>
<path d="M322 2620 c-18 -17 -41 -30 -52 -30 -17 0 -20 -7 -20 -52 -1 -46 -16
-103 -45 -172 -17 -38 20 -10 41 32 20 38 22 40 28 19 3 -12 6 -32 6 -44 0
-13 5 -23 10 -23 17 0 12 98 -6 108 -9 5 -14 17 -12 28 4 21 37 31 111 33 34
1 47 5 44 14 -4 13 -41 15 -104 3 -39 -7 -43 -6 -43 12 0 14 15 26 53 42 64
27 63 26 47 45 -17 20 -20 19 -58 -15z"/>
<path d="M150 2619 c0 -6 4 -19 10 -29 8 -16 4 -19 -35 -25 -48 -7 -62 -25
-20 -25 40 0 125 21 125 31 0 5 -9 9 -20 9 -13 0 -20 7 -20 19 0 10 -7 22 -16
25 -21 8 -24 8 -24 -5z"/>
<path d="M158 2523 c-10 -2 -18 -9 -18 -14 0 -15 53 -6 58 9 4 12 -8 14 -40 5z"/>
<path d="M153 2483 c-13 -2 -23 -9 -23 -14 0 -15 63 -6 68 9 4 12 -4 13 -45 5z"/>
<path d="M150 2437 c-19 -6 -36 -11 -37 -12 -2 -1 14 -53 23 -73 0 -1 14 3 30
8 35 12 63 68 41 82 -14 9 -12 9 -57 -5z m28 -34 c-5 -25 -28 -28 -28 -4 0 12
6 21 16 21 9 0 14 -7 12 -17z"/>
<path d="M322 2170 c-18 -17 -41 -30 -52 -30 -17 0 -20 -7 -20 -52 -1 -46 -16
-103 -45 -172 -17 -38 20 -10 41 32 20 38 22 40 28 19 3 -12 6 -32 6 -44 0
-13 5 -23 10 -23 6 0 10 20 10 45 l0 45 39 0 40 0 -6 -35 c-8 -47 12 -46 32 2
24 58 17 64 -66 57 -71 -7 -71 -7 -67 17 3 27 30 36 111 38 34 1 47 5 44 14
-4 13 -41 15 -104 3 -39 -7 -43 -6 -43 12 0 14 15 26 53 42 64 27 63 26 47 45
-17 20 -20 19 -58 -15z"/>
<path d="M150 2169 c0 -6 4 -19 10 -29 8 -16 4 -19 -35 -25 -48 -7 -62 -25
-20 -25 40 0 125 21 125 31 0 5 -9 9 -20 9 -13 0 -20 7 -20 19 0 10 -7 22 -16
25 -21 8 -24 8 -24 -5z"/>
<path d="M158 2073 c-10 -2 -18 -9 -18 -14 0 -15 53 -6 58 9 4 12 -8 14 -40 5z"/>
<path d="M153 2033 c-13 -2 -23 -9 -23 -14 0 -15 63 -6 68 9 4 12 -4 13 -45 5z"/>
<path d="M150 1987 c-19 -6 -36 -11 -37 -12 -2 -1 14 -53 23 -73 0 -1 14 3 30
8 35 12 63 68 41 82 -14 9 -12 9 -57 -5z m28 -34 c-5 -25 -28 -28 -28 -4 0 12
6 21 16 21 9 0 14 -7 12 -17z"/>
<path d="M322 1720 c-18 -17 -41 -30 -52 -30 -17 0 -20 -7 -20 -52 -1 -46 -16
-103 -45 -172 -17 -38 20 -10 41 32 20 38 22 40 28 19 3 -12 6 -32 6 -45 0
-18 4 -21 23 -18 12 3 38 7 57 10 31 5 37 11 48 47 7 22 10 44 7 50 -4 5 -36
6 -76 2 -70 -6 -71 -6 -67 18 3 27 30 36 111 38 34 1 47 5 44 14 -4 13 -41 15
-104 3 -39 -7 -43 -6 -43 12 0 14 15 26 53 42 64 27 63 26 47 45 -17 20 -20
19 -58 -15z m52 -202 c-8 -28 -3 -24 -41 -33 -32 -6 -33 -5 -33 24 0 30 2 31
41 31 37 0 40 -2 33 -22z"/>
<path d="M150 1719 c0 -6 4 -19 10 -29 8 -16 4 -19 -35 -25 -48 -7 -62 -25
-20 -25 40 0 125 21 125 31 0 5 -9 9 -20 9 -13 0 -20 7 -20 19 0 10 -7 22 -16
25 -21 8 -24 8 -24 -5z"/>
<path d="M158 1623 c-10 -2 -18 -9 -18 -14 0 -15 53 -6 58 9 4 12 -8 14 -40 5z"/>
<path d="M153 1583 c-13 -2 -23 -9 -23 -14 0 -15 63 -6 68 9 4 12 -4 13 -45 5z"/>
<path d="M150 1537 c-19 -6 -36 -11 -37 -12 -2 -1 14 -53 23 -73 0 -1 14 3 30
8 35 12 63 68 41 82 -14 9 -12 9 -57 -5z m28 -34 c-5 -25 -28 -28 -28 -4 0 12
6 21 16 21 9 0 14 -7 12 -17z"/>
</g>
</svg>
