<?xml version="1.0" standalone="no"?>
<!DOCTYPE svg PUBLIC "-//W3C//DTD SVG 20010904//EN"
 "http://www.w3.org/TR/2001/REC-SVG-20010904/DTD/svg10.dtd">
<svg version="1.0" xmlns="http://www.w3.org/2000/svg"
 width="50.000000pt" height="725.000000pt" viewBox="0 0 50.000000 725.000000"
 preserveAspectRatio="xMidYMid meet">
<metadata>
Created by potrace 1.16, written by Peter Selinger 2001-2019
</metadata>
<g transform="translate(0.000000,725.000000) scale(0.100000,-0.100000)"
fill="#000000" stroke="none">
<path d="M140 7118 c0 -8 6 -23 14 -34 12 -15 17 -17 28 -6 9 9 10 17 2 30
-14 21 -44 28 -44 10z"/>
<path d="M140 6670 c0 -6 5 -20 10 -31 9 -17 7 -19 -17 -19 -31 0 -61 -15 -51
-25 9 -9 148 16 148 27 0 4 -8 8 -18 8 -9 0 -22 10 -27 22 -11 24 -45 38 -45
18z"/>
<path d="M140 6220 c0 -6 5 -20 10 -31 9 -17 7 -19 -17 -19 -31 0 -61 -15 -51
-25 9 -9 148 16 148 27 0 4 -8 8 -18 8 -9 0 -22 10 -27 22 -11 24 -45 38 -45
18z"/>
<path d="M143 6123 c-27 -5 -31 -23 -5 -23 28 0 62 12 62 21 0 9 -17 10 -57 2z"/>
<path d="M140 5770 c0 -6 5 -20 10 -31 9 -17 7 -19 -17 -19 -31 0 -61 -15 -51
-25 9 -9 148 16 148 27 0 4 -8 8 -18 8 -9 0 -22 10 -27 22 -11 24 -45 38 -45
18z"/>
<path d="M143 5673 c-27 -5 -31 -23 -5 -23 28 0 62 12 62 21 0 9 -17 10 -57 2z"/>
<path d="M138 5633 c-32 -8 -20 -26 13 -19 17 3 35 6 40 6 5 0 9 5 9 10 0 10
-30 12 -62 3z"/>
<path d="M140 5320 c0 -6 5 -20 10 -31 9 -17 7 -19 -17 -19 -31 0 -61 -15 -51
-25 9 -9 148 16 148 27 0 4 -8 8 -18 8 -9 0 -22 10 -27 22 -11 24 -45 38 -45
18z"/>
<path d="M143 5223 c-27 -5 -31 -23 -5 -23 28 0 62 12 62 21 0 9 -17 10 -57 2z"/>
<path d="M138 5183 c-32 -8 -20 -26 13 -19 17 3 35 6 40 6 5 0 9 5 9 10 0 10
-30 12 -62 3z"/>
<path d="M105 5124 c4 -11 10 -29 12 -41 8 -37 24 -26 21 14 -2 28 -8 39 -22
41 -15 3 -17 0 -11 -14z"/>
<path d="M140 4870 c0 -6 5 -20 10 -31 9 -17 7 -19 -17 -19 -31 0 -61 -15 -51
-25 9 -9 148 16 148 27 0 4 -8 8 -18 8 -9 0 -22 10 -27 22 -11 24 -45 38 -45
18z"/>
<path d="M143 4773 c-27 -5 -31 -23 -5 -23 28 0 62 12 62 21 0 9 -17 10 -57 2z"/>
<path d="M138 4733 c-32 -8 -20 -26 13 -19 17 3 35 6 40 6 5 0 9 5 9 10 0 10
-30 12 -62 3z"/>
<path d="M132 4693 c-27 -4 -32 -8 -27 -21 4 -9 10 -27 12 -39 7 -33 23 -28
23 6 0 16 6 31 15 35 11 4 15 -1 15 -19 0 -14 4 -25 8 -25 12 0 33 50 27 61
-6 9 -12 9 -73 2z"/>
<path d="M140 4420 c0 -6 5 -20 10 -31 9 -17 7 -19 -17 -19 -31 0 -61 -15 -51
-25 9 -9 148 16 148 27 0 4 -8 8 -18 8 -9 0 -22 10 -27 22 -11 24 -45 38 -45
18z"/>
<path d="M143 4323 c-27 -5 -31 -23 -5 -23 28 0 62 12 62 21 0 9 -17 10 -57 2z"/>
<path d="M138 4283 c-32 -8 -20 -26 13 -19 17 3 35 6 40 6 5 0 9 5 9 10 0 10
-30 12 -62 3z"/>
<path d="M132 4243 c-27 -4 -32 -8 -27 -21 4 -9 10 -27 13 -40 3 -15 10 -21
19 -18 8 3 22 6 32 6 17 0 45 56 35 71 -5 9 -12 9 -72 2z m38 -33 c0 -11 -7
-20 -15 -20 -27 0 -18 30 13 39 1 1 2 -8 2 -19z"/>
<path d="M140 3970 c0 -6 5 -20 10 -31 9 -17 7 -19 -17 -19 -31 0 -61 -15 -51
-25 9 -9 148 16 148 27 0 4 -8 8 -18 8 -9 0 -22 10 -27 22 -11 24 -45 38 -45
18z"/>
<path d="M282 3916 c-55 -14 -70 -22 -59 -32 6 -6 36 -1 155 22 12 2 22 9 22
14 0 13 -53 11 -118 -4z"/>
<path d="M143 3873 c-27 -5 -31 -23 -5 -23 28 0 62 12 62 21 0 9 -17 10 -57 2z"/>
<path d="M138 3833 c-32 -8 -20 -26 13 -19 17 3 35 6 40 6 5 0 9 5 9 10 0 10
-30 12 -62 3z"/>
<path d="M132 3793 c-27 -4 -32 -8 -27 -21 4 -9 10 -27 13 -40 3 -15 10 -21
19 -18 8 3 22 6 32 6 17 0 45 56 35 71 -5 9 -12 9 -72 2z m38 -33 c0 -11 -7
-20 -15 -20 -27 0 -18 30 13 39 1 1 2 -8 2 -19z"/>
<path d="M280 3510 c0 -37 -3 -42 -30 -51 -34 -12 -40 -29 -10 -29 26 0 25
-10 -6 -71 -14 -28 -23 -53 -20 -56 11 -11 29 12 59 76 26 52 38 67 57 69 49
5 70 13 70 23 0 8 -16 10 -45 7 l-44 -5 2 35 c2 28 -2 37 -15 40 -15 3 -18 -4
-18 -38z"/>
<path d="M140 3520 c0 -6 5 -20 10 -31 9 -17 7 -19 -17 -19 -31 0 -61 -15 -51
-25 9 -9 148 16 148 27 0 4 -8 8 -18 8 -9 0 -22 10 -27 22 -11 24 -45 38 -45
18z"/>
<path d="M143 3423 c-27 -5 -31 -23 -5 -23 28 0 62 12 62 21 0 9 -17 10 -57 2z"/>
<path d="M138 3383 c-32 -8 -20 -26 13 -19 17 3 35 6 40 6 5 0 9 5 9 10 0 10
-30 12 -62 3z"/>
<path d="M132 3343 c-27 -4 -32 -8 -27 -21 4 -9 10 -27 13 -40 3 -15 10 -21
19 -18 8 3 22 6 32 6 17 0 45 56 35 71 -5 9 -12 9 -72 2z m38 -33 c0 -11 -7
-20 -15 -20 -27 0 -18 30 13 39 1 1 2 -8 2 -19z"/>
<path d="M280 3060 c0 -37 -3 -42 -30 -51 -34 -12 -40 -29 -10 -29 26 0 25
-10 -6 -71 -28 -56 -24 -78 8 -39 14 16 22 21 25 13 3 -7 9 -13 14 -13 13 0
11 38 -2 42 -7 2 -5 17 7 43 14 29 26 41 44 43 49 5 70 13 70 23 0 8 -16 10
-45 7 l-44 -5 2 35 c2 28 -2 37 -15 40 -15 3 -18 -4 -18 -38z"/>
<path d="M140 3070 c0 -6 5 -20 10 -31 9 -17 7 -19 -17 -19 -31 0 -61 -15 -51
-25 9 -9 148 16 148 27 0 4 -8 8 -18 8 -9 0 -22 10 -27 22 -11 24 -45 38 -45
18z"/>
<path d="M143 2973 c-27 -5 -31 -23 -5 -23 28 0 62 12 62 21 0 9 -17 10 -57 2z"/>
<path d="M138 2933 c-32 -8 -20 -26 13 -19 17 3 35 6 40 6 5 0 9 5 9 10 0 10
-30 12 -62 3z"/>
<path d="M132 2893 c-27 -4 -32 -8 -27 -21 4 -9 10 -27 13 -40 3 -15 10 -21
19 -18 8 3 22 6 32 6 17 0 45 56 35 71 -5 9 -12 9 -72 2z m38 -33 c0 -11 -7
-20 -15 -20 -27 0 -18 30 13 39 1 1 2 -8 2 -19z"/>
<path d="M280 2610 c0 -37 -3 -42 -30 -51 -34 -12 -40 -29 -10 -29 26 0 25
-10 -6 -71 -28 -56 -24 -78 8 -39 14 16 22 21 25 13 3 -7 9 -13 14 -13 13 0
11 38 -2 42 -7 2 -5 17 7 43 14 29 26 41 44 43 49 5 70 13 70 23 0 8 -16 10
-45 7 l-44 -5 2 35 c2 28 -2 37 -15 40 -15 3 -18 -4 -18 -38z"/>
<path d="M140 2620 c0 -6 5 -20 10 -31 9 -17 7 -19 -17 -19 -31 0 -61 -15 -51
-25 9 -9 148 16 148 27 0 4 -8 8 -18 8 -9 0 -22 10 -27 22 -11 24 -45 38 -45
18z"/>
<path d="M143 2523 c-27 -5 -31 -23 -5 -23 28 0 62 12 62 21 0 9 -17 10 -57 2z"/>
<path d="M360 2485 c-7 -14 -11 -28 -8 -31 9 -9 59 27 55 40 -7 21 -33 17 -47
-9z"/>
<path d="M138 2483 c-32 -8 -20 -26 13 -19 17 3 35 6 40 6 5 0 9 5 9 10 0 10
-30 12 -62 3z"/>
<path d="M132 2443 c-27 -4 -32 -8 -27 -21 4 -9 10 -27 13 -40 3 -15 10 -21
19 -18 8 3 22 6 32 6 17 0 45 56 35 71 -5 9 -12 9 -72 2z m38 -33 c0 -11 -7
-20 -15 -20 -27 0 -18 30 13 39 1 1 2 -8 2 -19z"/>
<path d="M280 2160 c0 -37 -3 -42 -30 -51 -34 -12 -40 -29 -10 -29 26 0 25
-10 -6 -71 -27 -55 -24 -78 7 -41 17 22 20 22 34 8 15 -14 14 -18 -10 -42 -33
-33 -24 -45 13 -17 33 25 49 56 54 108 2 32 -1 40 -15 43 -14 3 -17 -1 -12
-20 3 -13 2 -35 -4 -48 -6 -16 -10 -19 -10 -8 -1 9 -6 18 -12 20 -7 2 -5 17 7
43 14 29 26 41 44 43 49 5 70 13 70 23 0 8 -16 10 -45 7 l-44 -5 2 35 c2 28
-2 37 -15 40 -15 3 -18 -4 -18 -38z"/>
<path d="M140 2170 c0 -6 5 -20 10 -31 9 -17 7 -19 -17 -19 -31 0 -61 -15 -51
-25 9 -9 148 16 148 27 0 4 -8 8 -18 8 -9 0 -22 10 -27 22 -11 24 -45 38 -45
18z"/>
<path d="M143 2073 c-27 -5 -31 -23 -5 -23 28 0 62 12 62 21 0 9 -17 10 -57 2z"/>
<path d="M360 2035 c-7 -14 -11 -28 -8 -31 9 -9 59 27 55 40 -7 21 -33 17 -47
-9z"/>
<path d="M138 2033 c-32 -8 -20 -26 13 -19 17 3 35 6 40 6 5 0 9 5 9 10 0 10
-30 12 -62 3z"/>
<path d="M132 1993 c-27 -4 -32 -8 -27 -21 4 -9 10 -27 13 -40 3 -15 10 -21
19 -18 8 3 22 6 32 6 17 0 45 56 35 71 -5 9 -12 9 -72 2z m38 -33 c0 -11 -7
-20 -15 -20 -27 0 -18 30 13 39 1 1 2 -8 2 -19z"/>
<path d="M280 1710 c0 -37 -3 -42 -30 -51 -34 -12 -40 -29 -10 -29 26 0 25
-10 -6 -71 -27 -55 -24 -78 7 -41 17 22 20 22 34 8 15 -14 14 -18 -10 -42 -14
-14 -24 -28 -21 -31 7 -8 43 15 63 41 l19 24 22 -39 c19 -34 27 -39 57 -39 44
0 44 10 3 33 -44 23 -80 77 -76 113 2 21 -2 29 -15 32 -14 3 -17 -1 -12 -20 3
-13 2 -35 -4 -48 -6 -16 -10 -19 -10 -8 -1 9 -6 18 -12 20 -7 2 -5 17 7 43 14
29 26 41 44 43 49 5 70 13 70 23 0 8 -16 10 -45 7 l-44 -5 2 35 c2 28 -2 37
-15 40 -15 3 -18 -4 -18 -38z"/>
<path d="M140 1720 c0 -6 5 -20 10 -31 9 -17 7 -19 -17 -19 -31 0 -61 -15 -51
-25 9 -9 148 16 148 27 0 4 -8 8 -18 8 -9 0 -22 10 -27 22 -11 24 -45 38 -45
18z"/>
<path d="M143 1623 c-27 -5 -31 -23 -5 -23 28 0 62 12 62 21 0 9 -17 10 -57 2z"/>
<path d="M360 1585 c-7 -14 -11 -28 -8 -31 9 -9 59 27 55 40 -7 21 -33 17 -47
-9z"/>
<path d="M138 1583 c-32 -8 -20 -26 13 -19 17 3 35 6 40 6 5 0 9 5 9 10 0 10
-30 12 -62 3z"/>
<path d="M132 1543 c-27 -4 -32 -8 -27 -21 4 -9 10 -27 13 -40 3 -15 10 -21
19 -18 8 3 22 6 32 6 17 0 45 56 35 71 -5 9 -12 9 -72 2z m38 -33 c0 -11 -7
-20 -15 -20 -27 0 -18 30 13 39 1 1 2 -8 2 -19z"/>
</g>
</svg>
