<?xml version="1.0" standalone="no"?>
<!DOCTYPE svg PUBLIC "-//W3C//DTD SVG 20010904//EN"
 "http://www.w3.org/TR/2001/REC-SVG-20010904/DTD/svg10.dtd">
<svg version="1.0" xmlns="http://www.w3.org/2000/svg"
 width="50.000000pt" height="725.000000pt" viewBox="0 0 50.000000 725.000000"
 preserveAspectRatio="xMidYMid meet">
<metadata>
Created by potrace 1.16, written by Peter Selinger 2001-2019
</metadata>
<g transform="translate(0.000000,725.000000) scale(0.100000,-0.100000)"
fill="#000000" stroke="none">
<path d="M140 7129 c0 -17 20 -49 30 -49 17 0 11 47 -6 54 -21 8 -24 8 -24 -5z"/>
<path d="M145 6660 c6 -27 4 -30 -17 -30 -27 0 -55 -16 -46 -26 10 -9 138 16
138 27 0 5 -9 9 -20 9 -13 0 -20 7 -20 19 0 16 -18 31 -37 31 -2 0 -2 -13 2
-30z"/>
<path d="M145 6210 c6 -27 4 -30 -17 -30 -27 0 -55 -16 -46 -26 10 -9 138 16
138 27 0 5 -9 9 -20 9 -13 0 -20 7 -20 19 0 16 -18 31 -37 31 -2 0 -2 -13 2
-30z"/>
<path d="M138 6133 c-10 -2 -18 -9 -18 -14 0 -5 8 -9 18 -9 28 0 62 12 62 21
0 9 -31 10 -62 2z"/>
<path d="M145 5760 c6 -27 4 -30 -17 -30 -27 0 -55 -16 -46 -26 10 -9 138 16
138 27 0 5 -9 9 -20 9 -13 0 -20 7 -20 19 0 16 -18 31 -37 31 -2 0 -2 -13 2
-30z"/>
<path d="M138 5683 c-10 -2 -18 -9 -18 -14 0 -5 8 -9 18 -9 28 0 62 12 62 21
0 9 -31 10 -62 2z"/>
<path d="M138 5643 c-32 -8 -20 -26 13 -19 17 3 35 6 40 6 5 0 9 5 9 10 0 10
-30 12 -62 3z"/>
<path d="M145 5310 c6 -27 4 -30 -17 -30 -27 0 -55 -16 -46 -26 10 -9 138 16
138 27 0 5 -9 9 -20 9 -13 0 -20 7 -20 19 0 16 -18 31 -37 31 -2 0 -2 -13 2
-30z"/>
<path d="M138 5233 c-10 -2 -18 -9 -18 -14 0 -5 8 -9 18 -9 28 0 62 12 62 21
0 9 -31 10 -62 2z"/>
<path d="M138 5193 c-32 -8 -20 -26 13 -19 17 3 35 6 40 6 5 0 9 5 9 10 0 10
-30 12 -62 3z"/>
<path d="M104 5134 c3 -9 9 -27 12 -40 3 -13 10 -24 15 -24 13 0 11 54 -3 68
-17 17 -31 15 -24 -4z"/>
<path d="M145 4860 c6 -27 4 -30 -17 -30 -27 0 -55 -16 -46 -26 10 -9 138 16
138 27 0 5 -9 9 -20 9 -13 0 -20 7 -20 19 0 16 -18 31 -37 31 -2 0 -2 -13 2
-30z"/>
<path d="M138 4783 c-10 -2 -18 -9 -18 -14 0 -5 8 -9 18 -9 28 0 62 12 62 21
0 9 -31 10 -62 2z"/>
<path d="M138 4743 c-32 -8 -20 -26 13 -19 17 3 35 6 40 6 5 0 9 5 9 10 0 10
-30 12 -62 3z"/>
<path d="M132 4703 c-25 -3 -32 -8 -28 -20 3 -8 9 -26 12 -39 9 -34 24 -30 24
6 0 20 5 30 15 30 8 0 15 -9 15 -20 0 -11 4 -20 8 -20 12 0 33 50 27 61 -6 9
-12 9 -73 2z"/>
<path d="M145 4410 c6 -27 4 -30 -17 -30 -27 0 -55 -16 -46 -26 10 -9 138 16
138 27 0 5 -9 9 -20 9 -13 0 -20 7 -20 19 0 16 -18 31 -37 31 -2 0 -2 -13 2
-30z"/>
<path d="M138 4333 c-10 -2 -18 -9 -18 -14 0 -5 8 -9 18 -9 28 0 62 12 62 21
0 9 -31 10 -62 2z"/>
<path d="M138 4293 c-32 -8 -20 -26 13 -19 17 3 35 6 40 6 5 0 9 5 9 10 0 10
-30 12 -62 3z"/>
<path d="M132 4253 c-25 -3 -32 -8 -28 -20 3 -8 9 -26 12 -40 4 -16 11 -22 21
-19 8 3 22 6 32 6 17 0 45 56 35 71 -5 9 -12 9 -72 2z m38 -38 c0 -8 -7 -15
-15 -15 -8 0 -15 7 -15 15 0 8 7 15 15 15 8 0 15 -7 15 -15z"/>
<path d="M145 3960 c6 -27 4 -30 -17 -30 -27 0 -55 -16 -46 -26 10 -9 138 16
138 27 0 5 -9 9 -20 9 -13 0 -20 7 -20 19 0 16 -18 31 -37 31 -2 0 -2 -13 2
-30z"/>
<path d="M288 3957 c-30 -7 -48 -16 -48 -25 0 -9 6 -12 18 -7 9 3 31 9 47 11
62 11 75 15 75 24 0 12 -28 11 -92 -3z"/>
<path d="M138 3883 c-10 -2 -18 -9 -18 -14 0 -5 8 -9 18 -9 28 0 62 12 62 21
0 9 -31 10 -62 2z"/>
<path d="M138 3843 c-32 -8 -20 -26 13 -19 17 3 35 6 40 6 5 0 9 5 9 10 0 10
-30 12 -62 3z"/>
<path d="M132 3803 c-25 -3 -32 -8 -28 -20 3 -8 9 -26 12 -40 4 -16 11 -22 21
-19 8 3 22 6 32 6 17 0 45 56 35 71 -5 9 -12 9 -72 2z m38 -38 c0 -8 -7 -15
-15 -15 -8 0 -15 7 -15 15 0 8 7 15 15 15 8 0 15 -7 15 -15z"/>
<path d="M271 3558 c4 -34 -2 -58 -16 -58 -17 0 -21 -26 -5 -32 6 -2 -1 -20
-16 -41 -14 -21 -23 -41 -20 -44 9 -10 47 29 67 70 14 27 26 37 43 37 32 0 56
10 56 22 0 7 -15 8 -38 4 -36 -5 -38 -4 -37 21 0 19 -6 29 -18 31 -11 2 -18
-2 -16 -10z"/>
<path d="M145 3510 c6 -27 4 -30 -17 -30 -27 0 -55 -16 -46 -26 10 -9 138 16
138 27 0 5 -9 9 -20 9 -13 0 -20 7 -20 19 0 16 -18 31 -37 31 -2 0 -2 -13 2
-30z"/>
<path d="M138 3433 c-10 -2 -18 -9 -18 -14 0 -5 8 -9 18 -9 28 0 62 12 62 21
0 9 -31 10 -62 2z"/>
<path d="M138 3393 c-32 -8 -20 -26 13 -19 17 3 35 6 40 6 5 0 9 5 9 10 0 10
-30 12 -62 3z"/>
<path d="M132 3353 c-25 -3 -32 -8 -28 -20 3 -8 9 -26 12 -40 4 -16 11 -22 21
-19 8 3 22 6 32 6 17 0 45 56 35 71 -5 9 -12 9 -72 2z m38 -38 c0 -8 -7 -15
-15 -15 -8 0 -15 7 -15 15 0 8 7 15 15 15 8 0 15 -7 15 -15z"/>
<path d="M271 3108 c4 -34 -2 -58 -16 -58 -17 0 -21 -26 -5 -32 6 -2 -1 -20
-16 -41 -14 -21 -23 -41 -20 -44 9 -10 53 36 67 69 l12 29 46 -45 c38 -37 51
-44 74 -39 36 7 34 16 -6 31 -19 7 -44 23 -56 36 l-22 24 25 6 c42 10 32 29
-12 22 -36 -5 -38 -4 -37 21 0 19 -6 29 -18 31 -11 2 -18 -2 -16 -10z"/>
<path d="M145 3060 c6 -27 4 -30 -17 -30 -27 0 -55 -16 -46 -26 10 -9 138 16
138 27 0 5 -9 9 -20 9 -13 0 -20 7 -20 19 0 16 -18 31 -37 31 -2 0 -2 -13 2
-30z"/>
<path d="M138 2983 c-10 -2 -18 -9 -18 -14 0 -5 8 -9 18 -9 28 0 62 12 62 21
0 9 -31 10 -62 2z"/>
<path d="M138 2943 c-32 -8 -20 -26 13 -19 17 3 35 6 40 6 5 0 9 5 9 10 0 10
-30 12 -62 3z"/>
<path d="M132 2903 c-25 -3 -32 -8 -28 -20 3 -8 9 -26 12 -40 4 -16 11 -22 21
-19 8 3 22 6 32 6 17 0 45 56 35 71 -5 9 -12 9 -72 2z m38 -38 c0 -8 -7 -15
-15 -15 -8 0 -15 7 -15 15 0 8 7 15 15 15 8 0 15 -7 15 -15z"/>
<path d="M271 2658 c4 -34 -2 -58 -16 -58 -17 0 -21 -26 -5 -32 6 -2 -1 -20
-16 -41 -29 -43 -25 -60 7 -32 14 14 32 18 60 16 23 -1 39 2 39 8 0 6 -16 11
-35 11 -33 0 -34 1 -23 25 l12 26 45 -45 c38 -37 51 -44 74 -39 36 7 34 16 -6
31 -19 7 -44 23 -56 36 l-22 24 25 6 c42 10 32 29 -12 22 -36 -5 -38 -4 -37
21 0 19 -6 29 -18 31 -11 2 -18 -2 -16 -10z"/>
<path d="M145 2610 c6 -27 4 -30 -17 -30 -27 0 -55 -16 -46 -26 10 -9 138 16
138 27 0 5 -9 9 -20 9 -13 0 -20 7 -20 19 0 16 -18 31 -37 31 -2 0 -2 -13 2
-30z"/>
<path d="M138 2533 c-10 -2 -18 -9 -18 -14 0 -5 8 -9 18 -9 28 0 62 12 62 21
0 9 -31 10 -62 2z"/>
<path d="M138 2493 c-32 -8 -20 -26 13 -19 17 3 35 6 40 6 5 0 9 5 9 10 0 10
-30 12 -62 3z"/>
<path d="M132 2453 c-25 -3 -32 -8 -28 -20 3 -8 9 -26 12 -40 4 -16 11 -22 21
-19 8 3 22 6 32 6 17 0 45 56 35 71 -5 9 -12 9 -72 2z m38 -38 c0 -8 -7 -15
-15 -15 -8 0 -15 7 -15 15 0 8 7 15 15 15 8 0 15 -7 15 -15z"/>
<path d="M271 2208 c4 -34 -2 -58 -16 -58 -17 0 -21 -26 -5 -32 6 -2 -1 -20
-16 -41 -29 -43 -25 -60 7 -32 14 14 32 18 60 16 23 -1 39 2 39 8 0 6 -16 11
-35 11 -33 0 -34 1 -23 25 l12 26 45 -45 c38 -37 51 -44 74 -39 36 7 34 16 -6
31 -19 7 -44 23 -56 36 l-22 24 25 6 c42 10 32 29 -12 22 -36 -5 -38 -4 -37
21 0 19 -6 29 -18 31 -11 2 -18 -2 -16 -10z"/>
<path d="M145 2160 c6 -27 4 -30 -17 -30 -27 0 -55 -16 -46 -26 10 -9 138 16
138 27 0 5 -9 9 -20 9 -13 0 -20 7 -20 19 0 16 -18 31 -37 31 -2 0 -2 -13 2
-30z"/>
<path d="M138 2083 c-10 -2 -18 -9 -18 -14 0 -5 8 -9 18 -9 28 0 62 12 62 21
0 9 -31 10 -62 2z"/>
<path d="M138 2043 c-32 -8 -20 -26 13 -19 17 3 35 6 40 6 5 0 9 5 9 10 0 10
-30 12 -62 3z"/>
<path d="M283 2038 c-29 -5 -53 -14 -53 -20 0 -7 14 -8 38 -4 20 3 52 6 70 6
22 0 32 5 32 15 0 17 -11 17 -87 3z"/>
<path d="M132 2003 c-25 -3 -32 -8 -28 -20 3 -8 9 -26 12 -40 4 -16 11 -22 21
-19 8 3 22 6 32 6 17 0 45 56 35 71 -5 9 -12 9 -72 2z m38 -38 c0 -8 -7 -15
-15 -15 -8 0 -15 7 -15 15 0 8 7 15 15 15 8 0 15 -7 15 -15z"/>
<path d="M271 1758 c4 -34 -2 -58 -16 -58 -17 0 -21 -26 -5 -32 6 -2 -1 -20
-16 -41 -29 -43 -25 -60 7 -32 14 14 32 18 60 16 23 -1 39 2 39 8 0 6 -16 11
-35 11 -33 0 -34 1 -23 25 l12 26 45 -45 c38 -37 51 -44 74 -39 36 7 34 16 -6
31 -19 7 -44 23 -56 36 l-22 24 25 6 c42 10 32 29 -12 22 -36 -5 -38 -4 -37
21 0 19 -6 29 -18 31 -11 2 -18 -2 -16 -10z"/>
<path d="M145 1710 c6 -27 4 -30 -17 -30 -27 0 -55 -16 -46 -26 10 -9 138 16
138 27 0 5 -9 9 -20 9 -13 0 -20 7 -20 19 0 16 -18 31 -37 31 -2 0 -2 -13 2
-30z"/>
<path d="M138 1633 c-10 -2 -18 -9 -18 -14 0 -5 8 -9 18 -9 28 0 62 12 62 21
0 9 -31 10 -62 2z"/>
<path d="M138 1593 c-32 -8 -20 -26 13 -19 17 3 35 6 40 6 5 0 9 5 9 10 0 10
-30 12 -62 3z"/>
<path d="M283 1588 c-48 -9 -74 -28 -38 -28 12 0 14 -7 9 -27 -6 -24 -5 -26
17 -19 74 23 79 20 57 -29 -6 -14 -20 -25 -30 -25 -13 0 -18 -6 -16 -17 2 -12
12 -18 28 -18 28 0 52 38 54 89 1 29 -1 31 -37 31 -23 0 -37 5 -37 13 0 7 15
12 40 12 29 0 40 4 40 15 0 17 -11 17 -87 3z"/>
<path d="M132 1553 c-25 -3 -32 -8 -28 -20 3 -8 9 -26 12 -40 4 -16 11 -22 21
-19 8 3 22 6 32 6 17 0 45 56 35 71 -5 9 -12 9 -72 2z m38 -38 c0 -8 -7 -15
-15 -15 -8 0 -15 7 -15 15 0 8 7 15 15 15 8 0 15 -7 15 -15z"/>
</g>
</svg>
