<?xml version="1.0" standalone="no"?>
<!DOCTYPE svg PUBLIC "-//W3C//DTD SVG 20010904//EN"
 "http://www.w3.org/TR/2001/REC-SVG-20010904/DTD/svg10.dtd">
<svg version="1.0" xmlns="http://www.w3.org/2000/svg"
 width="50.000000pt" height="725.000000pt" viewBox="0 0 50.000000 725.000000"
 preserveAspectRatio="xMidYMid meet">
<metadata>
Created by potrace 1.16, written by Peter Selinger 2001-2019
</metadata>
<g transform="translate(0.000000,725.000000) scale(0.100000,-0.100000)"
fill="#000000" stroke="none">
<path d="M140 7127 c0 -7 6 -22 14 -33 12 -15 17 -16 27 -7 10 10 9 17 -6 33
-21 23 -35 26 -35 7z"/>
<path d="M140 6679 c0 -6 5 -19 10 -29 9 -17 5 -20 -35 -26 -25 -3 -45 -10
-45 -14 0 -14 28 -19 62 -10 18 4 45 11 61 14 26 6 39 26 16 26 -6 0 -20 11
-31 25 -20 26 -38 33 -38 14z"/>
<path d="M140 6229 c0 -6 5 -19 10 -29 9 -17 5 -20 -35 -26 -25 -3 -45 -10
-45 -14 0 -14 28 -19 62 -10 18 4 45 11 61 14 26 6 39 26 16 26 -6 0 -20 11
-31 25 -20 26 -38 33 -38 14z"/>
<path d="M148 6133 c-10 -2 -18 -9 -18 -14 0 -15 53 -6 58 9 4 12 -8 14 -40 5z"/>
<path d="M140 5779 c0 -6 5 -19 10 -29 9 -17 5 -20 -35 -26 -25 -3 -45 -10
-45 -14 0 -14 28 -19 62 -10 18 4 45 11 61 14 26 6 39 26 16 26 -6 0 -20 11
-31 25 -20 26 -38 33 -38 14z"/>
<path d="M148 5683 c-10 -2 -18 -9 -18 -14 0 -15 53 -6 58 9 4 12 -8 14 -40 5z"/>
<path d="M143 5643 c-13 -2 -23 -9 -23 -14 0 -15 63 -6 68 9 4 12 -4 13 -45 5z"/>
<path d="M140 5329 c0 -6 5 -19 10 -29 9 -17 5 -20 -35 -26 -25 -3 -45 -10
-45 -14 0 -14 28 -19 62 -10 18 4 45 11 61 14 26 6 39 26 16 26 -6 0 -20 11
-31 25 -20 26 -38 33 -38 14z"/>
<path d="M148 5233 c-10 -2 -18 -9 -18 -14 0 -15 53 -6 58 9 4 12 -8 14 -40 5z"/>
<path d="M143 5193 c-13 -2 -23 -9 -23 -14 0 -15 63 -6 68 9 4 12 -4 13 -45 5z"/>
<path d="M113 5119 c4 -13 7 -30 7 -36 0 -7 5 -13 11 -13 15 0 6 63 -10 68
-10 4 -12 -1 -8 -19z"/>
<path d="M140 4879 c0 -6 5 -19 10 -29 9 -17 5 -20 -35 -26 -25 -3 -45 -10
-45 -14 0 -14 28 -19 62 -10 18 4 45 11 61 14 26 6 39 26 16 26 -6 0 -20 11
-31 25 -20 26 -38 33 -38 14z"/>
<path d="M148 4783 c-10 -2 -18 -9 -18 -14 0 -15 53 -6 58 9 4 12 -8 14 -40 5z"/>
<path d="M143 4743 c-13 -2 -23 -9 -23 -14 0 -15 63 -6 68 9 4 12 -4 13 -45 5z"/>
<path d="M142 4697 c-27 -8 -32 -14 -28 -31 3 -12 6 -27 6 -33 0 -7 5 -13 10
-13 6 0 10 14 10 30 0 20 5 30 15 30 8 0 15 -9 15 -20 0 -28 15 -25 29 7 10
21 9 28 -1 34 -15 10 -13 10 -56 -4z"/>
<path d="M140 4429 c0 -6 5 -19 10 -29 9 -17 5 -20 -35 -26 -25 -3 -45 -10
-45 -14 0 -14 28 -19 62 -10 18 4 45 11 61 14 26 6 39 26 16 26 -6 0 -20 11
-31 25 -20 26 -38 33 -38 14z"/>
<path d="M148 4333 c-10 -2 -18 -9 -18 -14 0 -15 53 -6 58 9 4 12 -8 14 -40 5z"/>
<path d="M143 4293 c-13 -2 -23 -9 -23 -14 0 -15 63 -6 68 9 4 12 -4 13 -45 5z"/>
<path d="M142 4247 c-27 -8 -32 -14 -28 -31 3 -12 6 -27 6 -33 0 -14 39 -17
55 -5 6 4 16 20 23 36 11 24 11 31 0 37 -15 10 -13 10 -56 -4z m26 -34 c-5
-25 -28 -28 -28 -4 0 12 6 21 16 21 9 0 14 -7 12 -17z"/>
<path d="M140 3979 c0 -6 5 -19 10 -29 9 -17 5 -20 -35 -26 -25 -3 -45 -10
-45 -14 0 -14 28 -19 62 -10 18 4 45 11 61 14 26 6 39 26 16 26 -6 0 -20 11
-31 25 -20 26 -38 33 -38 14z"/>
<path d="M316 3950 c-16 -17 -27 -33 -23 -36 9 -9 87 38 87 53 0 23 -34 14
-64 -17z"/>
<path d="M148 3883 c-10 -2 -18 -9 -18 -14 0 -15 53 -6 58 9 4 12 -8 14 -40 5z"/>
<path d="M143 3843 c-13 -2 -23 -9 -23 -14 0 -15 63 -6 68 9 4 12 -4 13 -45 5z"/>
<path d="M142 3797 c-27 -8 -32 -14 -28 -31 3 -12 6 -27 6 -33 0 -14 39 -17
55 -5 6 4 16 20 23 36 11 24 11 31 0 37 -15 10 -13 10 -56 -4z m26 -34 c-5
-25 -28 -28 -28 -4 0 12 6 21 16 21 9 0 14 -7 12 -17z"/>
<path d="M140 3529 c0 -6 5 -19 10 -29 9 -17 5 -20 -35 -26 -25 -3 -45 -10
-45 -14 0 -14 28 -19 62 -10 18 4 45 11 61 14 26 6 39 26 16 26 -6 0 -20 11
-31 25 -20 26 -38 33 -38 14z"/>
<path d="M318 3501 c-33 -33 -36 -45 -8 -36 19 6 20 2 20 -59 0 -81 19 -89 22
-8 2 93 3 95 16 100 6 2 12 10 12 18 0 23 -33 15 -62 -15z"/>
<path d="M148 3433 c-10 -2 -18 -9 -18 -14 0 -15 53 -6 58 9 4 12 -8 14 -40 5z"/>
<path d="M143 3393 c-13 -2 -23 -9 -23 -14 0 -15 63 -6 68 9 4 12 -4 13 -45 5z"/>
<path d="M142 3347 c-27 -8 -32 -14 -28 -31 3 -12 6 -27 6 -33 0 -14 39 -17
55 -5 6 4 16 20 23 36 11 24 11 31 0 37 -15 10 -13 10 -56 -4z m26 -34 c-5
-25 -28 -28 -28 -4 0 12 6 21 16 21 9 0 14 -7 12 -17z"/>
<path d="M140 3079 c0 -6 5 -19 10 -29 9 -17 5 -20 -35 -26 -25 -3 -45 -10
-45 -14 0 -14 28 -19 62 -10 18 4 45 11 61 14 26 6 39 26 16 26 -6 0 -20 11
-31 25 -20 26 -38 33 -38 14z"/>
<path d="M318 3051 c-33 -33 -36 -45 -8 -36 19 6 20 2 20 -59 0 -37 4 -66 10
-66 6 0 10 15 10 34 0 25 5 35 20 39 11 3 20 11 20 17 0 7 -8 10 -19 7 -15 -4
-18 1 -16 26 1 17 7 33 14 35 6 2 11 10 11 18 0 23 -33 15 -62 -15z"/>
<path d="M148 2983 c-10 -2 -18 -9 -18 -14 0 -15 53 -6 58 9 4 12 -8 14 -40 5z"/>
<path d="M143 2943 c-13 -2 -23 -9 -23 -14 0 -15 63 -6 68 9 4 12 -4 13 -45 5z"/>
<path d="M142 2897 c-27 -8 -32 -14 -28 -31 3 -12 6 -27 6 -33 0 -14 39 -17
55 -5 6 4 16 20 23 36 11 24 11 31 0 37 -15 10 -13 10 -56 -4z m26 -34 c-5
-25 -28 -28 -28 -4 0 12 6 21 16 21 9 0 14 -7 12 -17z"/>
<path d="M140 2629 c0 -6 5 -19 10 -29 9 -17 5 -20 -35 -26 -25 -3 -45 -10
-45 -14 0 -14 28 -19 62 -10 18 4 45 11 61 14 26 6 39 26 16 26 -6 0 -20 11
-31 25 -20 26 -38 33 -38 14z"/>
<path d="M318 2601 c-33 -33 -36 -45 -8 -36 19 6 20 2 20 -59 0 -37 4 -66 10
-66 6 0 10 15 10 34 0 25 5 35 20 39 11 3 20 11 20 17 0 7 -8 10 -19 7 -15 -4
-18 1 -16 26 1 17 7 33 14 35 6 2 11 10 11 18 0 23 -33 15 -62 -15z"/>
<path d="M148 2533 c-10 -2 -18 -9 -18 -14 0 -15 53 -6 58 9 4 12 -8 14 -40 5z"/>
<path d="M290 2480 c0 -22 5 -40 10 -40 6 0 10 18 10 40 0 22 -4 40 -10 40 -5
0 -10 -18 -10 -40z"/>
<path d="M143 2493 c-13 -2 -23 -9 -23 -14 0 -15 63 -6 68 9 4 12 -4 13 -45 5z"/>
<path d="M142 2447 c-27 -8 -32 -14 -28 -31 3 -12 6 -27 6 -33 0 -14 39 -17
55 -5 6 4 16 20 23 36 11 24 11 31 0 37 -15 10 -13 10 -56 -4z m26 -34 c-5
-25 -28 -28 -28 -4 0 12 6 21 16 21 9 0 14 -7 12 -17z"/>
<path d="M140 2179 c0 -6 5 -19 10 -29 9 -17 5 -20 -35 -26 -25 -3 -45 -10
-45 -14 0 -14 28 -19 62 -10 18 4 45 11 61 14 26 6 39 26 16 26 -6 0 -20 11
-31 25 -20 26 -38 33 -38 14z"/>
<path d="M318 2151 c-33 -33 -36 -45 -8 -36 18 6 20 2 20 -49 0 -30 -4 -58
-10 -61 -6 -4 -10 8 -10 29 0 20 -4 36 -10 36 -5 0 -10 -15 -10 -34 0 -19 -6
-36 -12 -39 -32 -11 8 -19 67 -12 65 7 91 25 35 25 -25 0 -30 4 -30 24 0 15 7
26 20 29 11 3 20 11 20 17 0 7 -8 10 -19 7 -15 -4 -18 1 -16 26 1 17 7 33 14
35 6 2 11 10 11 18 0 23 -33 15 -62 -15z"/>
<path d="M148 2083 c-10 -2 -18 -9 -18 -14 0 -15 53 -6 58 9 4 12 -8 14 -40 5z"/>
<path d="M143 2043 c-13 -2 -23 -9 -23 -14 0 -15 63 -6 68 9 4 12 -4 13 -45 5z"/>
<path d="M142 1997 c-27 -8 -32 -14 -28 -31 3 -12 6 -27 6 -33 0 -14 39 -17
55 -5 6 4 16 20 23 36 11 24 11 31 0 37 -15 10 -13 10 -56 -4z m26 -34 c-5
-25 -28 -28 -28 -4 0 12 6 21 16 21 9 0 14 -7 12 -17z"/>
<path d="M140 1729 c0 -6 5 -19 10 -29 9 -17 5 -20 -35 -26 -25 -3 -45 -10
-45 -14 0 -14 28 -19 62 -10 18 4 45 11 61 14 26 6 39 26 16 26 -6 0 -20 11
-31 25 -20 26 -38 33 -38 14z"/>
<path d="M318 1701 c-33 -33 -36 -45 -8 -36 18 6 20 2 20 -49 0 -30 -4 -58
-10 -61 -6 -4 -10 8 -10 29 0 20 -4 36 -10 36 -5 0 -10 -15 -10 -34 0 -19 -6
-36 -12 -39 -32 -11 8 -19 67 -12 65 7 91 25 35 25 -25 0 -30 4 -30 24 0 15 7
26 20 29 11 3 20 11 20 17 0 7 -8 10 -19 7 -15 -4 -18 1 -16 26 1 17 7 33 14
35 6 2 11 10 11 18 0 23 -33 15 -62 -15z"/>
<path d="M223 1663 c-7 -2 -13 -9 -13 -15 0 -6 7 -8 15 -4 13 5 14 2 4 -15
-16 -30 0 -38 22 -10 33 40 18 63 -28 44z"/>
<path d="M148 1633 c-10 -2 -18 -9 -18 -14 0 -15 53 -6 58 9 4 12 -8 14 -40 5z"/>
<path d="M143 1593 c-13 -2 -23 -9 -23 -14 0 -15 63 -6 68 9 4 12 -4 13 -45 5z"/>
<path d="M142 1547 c-27 -8 -32 -14 -28 -31 3 -12 6 -27 6 -33 0 -14 39 -17
55 -5 6 4 16 20 23 36 11 24 11 31 0 37 -15 10 -13 10 -56 -4z m26 -34 c-5
-25 -28 -28 -28 -4 0 12 6 21 16 21 9 0 14 -7 12 -17z"/>
<path d="M140 1279 c0 -6 5 -19 10 -29 9 -17 5 -20 -35 -26 -25 -3 -45 -10
-45 -14 0 -14 28 -19 62 -10 18 4 45 11 61 14 26 6 39 26 16 26 -6 0 -20 11
-31 25 -20 26 -38 33 -38 14z"/>
<path d="M318 1251 c-33 -33 -36 -45 -8 -36 18 6 20 2 20 -49 0 -30 -4 -58
-10 -61 -6 -4 -10 8 -10 29 0 20 -4 36 -10 36 -5 0 -10 -15 -10 -34 0 -19 -6
-36 -12 -39 -32 -11 8 -19 67 -12 65 7 91 25 35 25 -25 0 -30 4 -30 24 0 15 7
26 20 29 11 3 20 11 20 17 0 7 -8 10 -19 7 -15 -4 -18 1 -16 26 1 17 7 33 14
35 6 2 11 10 11 18 0 23 -33 15 -62 -15z"/>
<path d="M223 1213 c-7 -2 -13 -9 -13 -15 0 -6 7 -8 15 -4 14 5 14 2 0 -24
-19 -36 -19 -40 1 -40 21 0 12 -41 -18 -82 -22 -32 -18 -49 8 -28 22 19 66
109 59 120 -4 6 -13 10 -21 10 -13 0 -13 3 0 22 28 40 13 59 -31 41z"/>
<path d="M148 1183 c-10 -2 -18 -9 -18 -14 0 -15 53 -6 58 9 4 12 -8 14 -40 5z"/>
<path d="M143 1143 c-13 -2 -23 -9 -23 -14 0 -15 63 -6 68 9 4 12 -4 13 -45 5z"/>
<path d="M142 1097 c-27 -8 -32 -14 -28 -31 3 -12 6 -27 6 -33 0 -14 39 -17
55 -5 6 4 16 20 23 36 11 24 11 31 0 37 -15 10 -13 10 -56 -4z m26 -34 c-5
-25 -28 -28 -28 -4 0 12 6 21 16 21 9 0 14 -7 12 -17z"/>
<path d="M140 829 c0 -6 5 -19 10 -29 9 -17 5 -20 -35 -26 -25 -3 -45 -10 -45
-14 0 -14 28 -19 62 -10 18 4 45 11 61 14 26 6 39 26 16 26 -6 0 -20 11 -31
25 -20 26 -38 33 -38 14z"/>
<path d="M318 801 c-33 -33 -36 -45 -8 -36 18 6 20 2 20 -49 0 -30 -4 -58 -10
-61 -6 -4 -10 8 -10 29 0 20 -4 36 -10 36 -5 0 -10 -14 -10 -31 0 -17 -8 -38
-17 -47 -18 -18 -19 -20 3 34 5 10 0 17 -14 21 -19 5 -19 6 -4 33 9 16 14 32
10 36 -10 9 -58 -4 -58 -17 0 -6 7 -9 15 -5 14 5 14 2 0 -24 -19 -36 -19 -40
0 -40 8 0 15 -7 15 -15 0 -8 -5 -15 -11 -15 -6 0 -9 -6 -6 -12 2 -7 -5 -26
-16 -41 -26 -38 -12 -49 18 -14 13 15 26 27 29 27 3 0 25 -14 50 -31 37 -27
50 -31 80 -25 43 8 47 23 9 32 -16 3 -48 13 -73 22 l-45 17 68 8 c68 9 92 27
37 27 -25 0 -30 4 -30 24 0 15 7 26 20 29 11 3 20 11 20 17 0 7 -8 10 -19 7
-15 -4 -18 1 -16 26 1 17 7 33 14 35 6 2 11 10 11 18 0 23 -33 15 -62 -15z"/>
<path d="M148 733 c-10 -2 -18 -9 -18 -14 0 -15 53 -6 58 9 4 12 -8 14 -40 5z"/>
<path d="M143 693 c-13 -2 -23 -9 -23 -14 0 -15 63 -6 68 9 4 12 -4 13 -45 5z"/>
<path d="M142 647 c-27 -8 -32 -14 -28 -31 3 -12 6 -27 6 -33 0 -14 39 -17 55
-5 6 4 16 20 23 36 11 24 11 31 0 37 -15 10 -13 10 -56 -4z m26 -34 c-5 -25
-28 -28 -28 -4 0 12 6 21 16 21 9 0 14 -7 12 -17z"/>
</g>
</svg>
