<?xml version="1.0" standalone="no"?>
<!DOCTYPE svg PUBLIC "-//W3C//DTD SVG 20010904//EN"
 "http://www.w3.org/TR/2001/REC-SVG-20010904/DTD/svg10.dtd">
<svg version="1.0" xmlns="http://www.w3.org/2000/svg"
 width="50.000000pt" height="725.000000pt" viewBox="0 0 50.000000 725.000000"
 preserveAspectRatio="xMidYMid meet">
<metadata>
Created by potrace 1.16, written by Peter Selinger 2001-2019
</metadata>
<g transform="translate(0.000000,725.000000) scale(0.100000,-0.100000)"
fill="#000000" stroke="none">
<path d="M130 7125 c0 -16 26 -55 37 -55 20 0 16 38 -6 50 -21 11 -31 13 -31
5z"/>
<path d="M134 6665 c3 -8 9 -22 12 -30 4 -11 0 -15 -17 -15 -28 0 -56 -16 -47
-25 9 -9 148 17 148 27 0 4 -11 8 -25 8 -15 0 -25 6 -25 15 0 8 -9 19 -19 25
-27 14 -34 13 -27 -5z"/>
<path d="M134 6215 c3 -8 9 -22 12 -30 4 -11 0 -15 -17 -15 -28 0 -56 -16 -47
-25 9 -9 148 17 148 27 0 4 -11 8 -25 8 -15 0 -25 6 -25 15 0 8 -9 19 -19 25
-27 14 -34 13 -27 -5z"/>
<path d="M138 6123 c-10 -2 -18 -9 -18 -15 0 -6 10 -8 23 -4 12 3 28 6 35 6 6
0 12 5 12 10 0 10 -21 11 -52 3z"/>
<path d="M134 5765 c3 -8 9 -22 12 -30 4 -11 0 -15 -17 -15 -28 0 -56 -16 -47
-25 9 -9 148 17 148 27 0 4 -11 8 -25 8 -15 0 -25 6 -25 15 0 8 -9 19 -19 25
-27 14 -34 13 -27 -5z"/>
<path d="M138 5673 c-10 -2 -18 -9 -18 -15 0 -6 10 -8 23 -4 12 3 28 6 35 6 6
0 12 5 12 10 0 10 -21 11 -52 3z"/>
<path d="M138 5633 c-10 -2 -18 -9 -18 -15 0 -6 10 -8 23 -4 12 3 30 6 40 6 9
0 17 5 17 10 0 10 -30 12 -62 3z"/>
<path d="M134 5315 c3 -8 9 -22 12 -30 4 -11 0 -15 -17 -15 -28 0 -56 -16 -47
-25 9 -9 148 17 148 27 0 4 -11 8 -25 8 -15 0 -25 6 -25 15 0 8 -9 19 -19 25
-27 14 -34 13 -27 -5z"/>
<path d="M138 5223 c-10 -2 -18 -9 -18 -15 0 -6 10 -8 23 -4 12 3 28 6 35 6 6
0 12 5 12 10 0 10 -21 11 -52 3z"/>
<path d="M138 5183 c-10 -2 -18 -9 -18 -15 0 -6 10 -8 23 -4 12 3 30 6 40 6 9
0 17 5 17 10 0 10 -30 12 -62 3z"/>
<path d="M104 5124 c3 -9 9 -27 12 -40 9 -35 24 -29 24 10 0 22 -6 36 -16 40
-24 9 -27 8 -20 -10z"/>
<path d="M134 4865 c3 -8 9 -22 12 -30 4 -11 0 -15 -17 -15 -28 0 -56 -16 -47
-25 9 -9 148 17 148 27 0 4 -11 8 -25 8 -15 0 -25 6 -25 15 0 8 -9 19 -19 25
-27 14 -34 13 -27 -5z"/>
<path d="M138 4773 c-10 -2 -18 -9 -18 -15 0 -6 10 -8 23 -4 12 3 28 6 35 6 6
0 12 5 12 10 0 10 -21 11 -52 3z"/>
<path d="M138 4733 c-10 -2 -18 -9 -18 -15 0 -6 10 -8 23 -4 12 3 30 6 40 6 9
0 17 5 17 10 0 10 -30 12 -62 3z"/>
<path d="M132 4693 c-25 -3 -32 -8 -28 -20 3 -8 9 -26 12 -39 9 -34 24 -30 24
6 0 20 5 30 15 30 8 0 15 -9 15 -20 0 -11 4 -20 8 -20 12 0 33 50 27 61 -6 9
-12 9 -73 2z"/>
<path d="M134 4415 c3 -8 9 -22 12 -30 4 -11 0 -15 -17 -15 -28 0 -56 -16 -47
-25 9 -9 148 17 148 27 0 4 -11 8 -25 8 -15 0 -25 6 -25 15 0 8 -9 19 -19 25
-27 14 -34 13 -27 -5z"/>
<path d="M138 4323 c-10 -2 -18 -9 -18 -15 0 -6 10 -8 23 -4 12 3 28 6 35 6 6
0 12 5 12 10 0 10 -21 11 -52 3z"/>
<path d="M138 4283 c-10 -2 -18 -9 -18 -15 0 -6 10 -8 23 -4 12 3 30 6 40 6 9
0 17 5 17 10 0 10 -30 12 -62 3z"/>
<path d="M132 4243 c-25 -3 -32 -8 -28 -20 3 -8 9 -26 12 -39 6 -25 14 -28 50
-18 20 5 48 60 38 75 -5 9 -12 9 -72 2z m38 -37 c0 -8 -7 -16 -15 -20 -10 -4
-15 1 -15 14 0 11 7 20 15 20 8 0 15 -6 15 -14z"/>
<path d="M134 3965 c3 -8 9 -22 12 -30 4 -11 0 -15 -17 -15 -13 0 -31 -4 -39
-10 -28 -18 0 -23 56 -11 47 11 58 11 65 0 11 -18 64 20 64 46 0 26 -21 30
-28 5 -6 -25 -67 -30 -67 -5 0 8 -9 19 -19 25 -27 14 -34 13 -27 -5z"/>
<path d="M138 3873 c-10 -2 -18 -9 -18 -15 0 -6 10 -8 23 -4 12 3 28 6 35 6 6
0 12 5 12 10 0 10 -21 11 -52 3z"/>
<path d="M138 3833 c-10 -2 -18 -9 -18 -15 0 -6 10 -8 23 -4 12 3 30 6 40 6 9
0 17 5 17 10 0 10 -30 12 -62 3z"/>
<path d="M132 3793 c-25 -3 -32 -8 -28 -20 3 -8 9 -26 12 -39 6 -25 14 -28 50
-18 20 5 48 60 38 75 -5 9 -12 9 -72 2z m38 -37 c0 -8 -7 -16 -15 -20 -10 -4
-15 1 -15 14 0 11 7 20 15 20 8 0 15 -6 15 -14z"/>
<path d="M290 3545 c0 -3 19 -30 41 -60 33 -44 47 -55 70 -55 37 0 37 15 2 34
-16 8 -44 30 -62 50 -32 33 -51 44 -51 31z"/>
<path d="M134 3515 c3 -8 9 -22 12 -30 4 -11 0 -15 -17 -15 -13 0 -31 -4 -39
-10 -28 -18 0 -23 56 -11 47 11 58 11 65 0 11 -18 64 20 64 46 0 26 -21 30
-28 5 -6 -25 -67 -30 -67 -5 0 8 -9 19 -19 25 -27 14 -34 13 -27 -5z"/>
<path d="M138 3423 c-10 -2 -18 -9 -18 -15 0 -6 10 -8 23 -4 12 3 28 6 35 6 6
0 12 5 12 10 0 10 -21 11 -52 3z"/>
<path d="M138 3383 c-10 -2 -18 -9 -18 -15 0 -6 10 -8 23 -4 12 3 30 6 40 6 9
0 17 5 17 10 0 10 -30 12 -62 3z"/>
<path d="M132 3343 c-25 -3 -32 -8 -28 -20 3 -8 9 -26 12 -39 6 -25 14 -28 50
-18 20 5 48 60 38 75 -5 9 -12 9 -72 2z m38 -37 c0 -8 -7 -16 -15 -20 -10 -4
-15 1 -15 14 0 11 7 20 15 20 8 0 15 -6 15 -14z"/>
<path d="M290 3095 c0 -3 19 -30 41 -60 33 -44 47 -55 70 -55 37 0 37 15 2 34
-16 8 -44 30 -62 50 -32 33 -51 44 -51 31z"/>
<path d="M134 3065 c3 -8 9 -22 12 -30 4 -11 0 -15 -17 -15 -13 0 -31 -4 -39
-10 -28 -18 0 -23 56 -11 31 7 59 9 63 5 7 -11 68 -16 99 -9 39 9 25 27 -15
19 -35 -6 -37 -6 -24 9 14 17 9 47 -8 47 -5 0 -11 -9 -14 -20 -6 -25 -67 -29
-67 -5 0 8 -9 19 -19 25 -27 14 -34 13 -27 -5z"/>
<path d="M138 2973 c-10 -2 -18 -9 -18 -15 0 -6 10 -8 23 -4 12 3 28 6 35 6 6
0 12 5 12 10 0 10 -21 11 -52 3z"/>
<path d="M138 2933 c-10 -2 -18 -9 -18 -15 0 -6 10 -8 23 -4 12 3 30 6 40 6 9
0 17 5 17 10 0 10 -30 12 -62 3z"/>
<path d="M132 2893 c-25 -3 -32 -8 -28 -20 3 -8 9 -26 12 -39 6 -25 14 -28 50
-18 20 5 48 60 38 75 -5 9 -12 9 -72 2z m38 -37 c0 -8 -7 -16 -15 -20 -10 -4
-15 1 -15 14 0 11 7 20 15 20 8 0 15 -6 15 -14z"/>
<path d="M290 2645 c0 -3 19 -30 41 -60 33 -44 47 -55 70 -55 37 0 37 15 2 34
-16 8 -44 30 -62 50 -32 33 -51 44 -51 31z"/>
<path d="M134 2615 c3 -8 9 -22 12 -30 4 -11 0 -15 -17 -15 -13 0 -31 -4 -39
-10 -28 -18 0 -23 56 -11 38 9 59 10 63 3 3 -6 15 -10 26 -9 15 2 19 -3 18
-20 -2 -17 2 -23 17 -23 13 0 20 7 20 19 0 11 9 23 20 26 36 11 22 26 -17 19
-35 -6 -37 -6 -24 9 14 17 9 47 -8 47 -5 0 -11 -9 -14 -20 -6 -25 -67 -29 -67
-5 0 8 -9 19 -19 25 -27 14 -34 13 -27 -5z"/>
<path d="M138 2523 c-10 -2 -18 -9 -18 -15 0 -6 10 -8 23 -4 12 3 28 6 35 6 6
0 12 5 12 10 0 10 -21 11 -52 3z"/>
<path d="M300 2521 c0 -5 5 -11 12 -13 6 -2 9 -12 5 -21 -4 -11 -12 -14 -23
-10 -14 5 -16 3 -11 -11 4 -10 7 -20 7 -22 0 -2 9 -4 19 -4 26 0 51 68 30 81
-18 11 -39 11 -39 0z"/>
<path d="M138 2483 c-10 -2 -18 -9 -18 -15 0 -6 10 -8 23 -4 12 3 30 6 40 6 9
0 17 5 17 10 0 10 -30 12 -62 3z"/>
<path d="M132 2443 c-25 -3 -32 -8 -28 -20 3 -8 9 -26 12 -39 6 -25 14 -28 50
-18 20 5 48 60 38 75 -5 9 -12 9 -72 2z m38 -37 c0 -8 -7 -16 -15 -20 -10 -4
-15 1 -15 14 0 11 7 20 15 20 8 0 15 -6 15 -14z"/>
<path d="M290 2195 c0 -3 19 -30 41 -60 33 -44 47 -55 70 -55 37 0 37 15 2 34
-16 8 -44 30 -62 50 -32 33 -51 44 -51 31z"/>
<path d="M134 2165 c3 -8 9 -22 12 -30 4 -11 0 -15 -17 -15 -13 0 -31 -4 -39
-10 -28 -18 0 -23 56 -11 38 9 59 10 63 3 3 -6 15 -10 26 -9 15 2 19 -3 18
-20 -2 -17 2 -23 17 -23 13 0 20 7 20 19 0 11 9 23 20 26 36 11 22 26 -17 19
-35 -6 -37 -6 -24 9 14 17 9 47 -8 47 -5 0 -11 -9 -14 -20 -6 -25 -67 -29 -67
-5 0 8 -9 19 -19 25 -27 14 -34 13 -27 -5z"/>
<path d="M138 2073 c-10 -2 -18 -9 -18 -15 0 -6 10 -8 23 -4 12 3 28 6 35 6 6
0 12 5 12 10 0 10 -21 11 -52 3z"/>
<path d="M300 2071 c0 -5 5 -11 12 -13 6 -2 9 -12 5 -21 -4 -11 -12 -14 -23
-10 -14 5 -16 3 -11 -11 4 -10 7 -20 7 -22 0 -2 9 -4 19 -4 26 0 51 68 30 81
-18 11 -39 11 -39 0z"/>
<path d="M138 2033 c-10 -2 -18 -9 -18 -15 0 -6 10 -8 23 -4 12 3 30 6 40 6 9
0 17 5 17 10 0 10 -30 12 -62 3z"/>
<path d="M132 1993 c-25 -3 -32 -8 -28 -20 3 -8 9 -26 12 -39 6 -25 14 -28 50
-18 20 5 48 60 38 75 -5 9 -12 9 -72 2z m38 -37 c0 -8 -7 -16 -15 -20 -10 -4
-15 1 -15 14 0 11 7 20 15 20 8 0 15 -6 15 -14z"/>
<path d="M220 1976 c0 -1 5 -17 11 -35 11 -31 29 -43 29 -18 0 29 -13 57 -26
57 -8 0 -14 -2 -14 -4z"/>
<path d="M290 1745 c0 -3 19 -30 41 -60 33 -44 47 -55 70 -55 37 0 37 15 2 34
-16 8 -44 30 -62 50 -32 33 -51 44 -51 31z"/>
<path d="M134 1715 c3 -8 9 -22 12 -30 4 -11 0 -15 -17 -15 -13 0 -31 -4 -39
-10 -28 -18 0 -23 56 -11 38 9 59 10 63 3 3 -6 15 -10 26 -9 15 2 19 -3 18
-20 -2 -17 2 -23 17 -23 13 0 20 7 20 19 0 11 9 23 20 26 36 11 22 26 -17 19
-35 -6 -37 -6 -24 9 14 17 9 47 -8 47 -5 0 -11 -9 -14 -20 -6 -25 -67 -29 -67
-5 0 8 -9 19 -19 25 -27 14 -34 13 -27 -5z"/>
<path d="M138 1623 c-10 -2 -18 -9 -18 -15 0 -6 10 -8 23 -4 12 3 28 6 35 6 6
0 12 5 12 10 0 10 -21 11 -52 3z"/>
<path d="M300 1621 c0 -5 5 -11 12 -13 6 -2 9 -12 5 -21 -4 -11 -12 -14 -23
-10 -14 5 -16 3 -11 -11 4 -10 7 -24 7 -32 0 -9 11 -14 35 -14 33 0 34 -1 25
-26 -13 -32 -13 -34 3 -34 15 0 49 58 41 71 -3 5 -18 9 -35 9 -16 0 -29 2 -29
4 0 1 5 18 11 36 9 26 9 34 -2 41 -18 11 -39 11 -39 0z"/>
<path d="M138 1583 c-10 -2 -18 -9 -18 -15 0 -6 10 -8 23 -4 12 3 30 6 40 6 9
0 17 5 17 10 0 10 -30 12 -62 3z"/>
<path d="M132 1543 c-25 -3 -32 -8 -28 -20 3 -8 9 -26 12 -39 6 -25 14 -28 50
-18 20 5 48 60 38 75 -5 9 -12 9 -72 2z m38 -37 c0 -8 -7 -16 -15 -20 -10 -4
-15 1 -15 14 0 11 7 20 15 20 8 0 15 -6 15 -14z"/>
<path d="M220 1526 c0 -1 5 -17 11 -35 13 -37 33 -42 27 -6 -4 17 -1 25 8 25
8 0 14 5 14 10 0 6 -13 10 -30 10 -16 0 -30 -2 -30 -4z"/>
<path d="M290 1295 c0 -3 19 -30 41 -60 33 -44 47 -55 70 -55 37 0 37 15 2 34
-16 8 -44 30 -62 50 -32 33 -51 44 -51 31z"/>
<path d="M134 1265 c3 -8 9 -22 12 -30 4 -11 0 -15 -17 -15 -13 0 -31 -4 -39
-10 -28 -18 0 -23 56 -11 38 9 59 10 63 3 3 -6 15 -10 26 -9 15 2 19 -3 18
-20 -2 -17 2 -23 17 -23 13 0 20 7 20 19 0 11 9 23 20 26 36 11 22 26 -17 19
-35 -6 -37 -6 -24 9 14 17 9 47 -8 47 -5 0 -11 -9 -14 -20 -6 -25 -67 -29 -67
-5 0 8 -9 19 -19 25 -27 14 -34 13 -27 -5z"/>
<path d="M138 1173 c-10 -2 -18 -9 -18 -15 0 -6 10 -8 23 -4 12 3 28 6 35 6 6
0 12 5 12 10 0 10 -21 11 -52 3z"/>
<path d="M300 1171 c0 -5 5 -11 12 -13 6 -2 9 -12 5 -21 -4 -10 -12 -14 -22
-11 -13 5 -15 2 -9 -20 6 -24 4 -26 -30 -26 -20 0 -36 -2 -36 -4 0 -1 5 -17
11 -35 13 -37 33 -42 27 -6 -3 14 -1 25 3 25 5 0 11 -11 15 -25 9 -35 24 -31
24 5 0 27 3 30 30 30 28 0 29 -2 20 -26 -13 -32 -13 -34 3 -34 15 0 49 58 41
71 -3 5 -18 9 -35 9 -16 0 -29 2 -29 4 0 1 5 18 11 36 9 26 9 34 -2 41 -18 11
-39 11 -39 0z"/>
<path d="M138 1133 c-10 -2 -18 -9 -18 -15 0 -6 10 -8 23 -4 12 3 30 6 40 6 9
0 17 5 17 10 0 10 -30 12 -62 3z"/>
<path d="M132 1093 c-25 -3 -32 -8 -28 -20 3 -8 9 -26 12 -39 6 -25 14 -28 50
-18 20 5 48 60 38 75 -5 9 -12 9 -72 2z m38 -37 c0 -8 -7 -16 -15 -20 -10 -4
-15 1 -15 14 0 11 7 20 15 20 8 0 15 -6 15 -14z"/>
<path d="M290 845 c0 -3 19 -30 41 -60 33 -44 47 -55 70 -55 37 0 37 15 2 34
-16 8 -44 30 -62 50 -32 33 -51 44 -51 31z"/>
<path d="M134 815 c3 -8 9 -22 12 -30 4 -11 0 -15 -17 -15 -13 0 -31 -4 -39
-10 -28 -18 0 -23 56 -11 38 9 59 10 63 3 3 -6 15 -10 26 -9 15 2 19 -3 18
-20 -2 -17 2 -23 17 -23 13 0 20 7 20 19 0 11 9 23 20 26 36 11 22 26 -17 19
-35 -6 -37 -6 -24 9 14 17 9 47 -8 47 -5 0 -11 -9 -14 -20 -6 -25 -67 -29 -67
-5 0 8 -9 19 -19 25 -27 14 -34 13 -27 -5z"/>
<path d="M138 723 c-10 -2 -18 -9 -18 -15 0 -6 10 -8 23 -4 12 3 28 6 35 6 6
0 12 5 12 10 0 10 -21 11 -52 3z"/>
<path d="M300 721 c0 -5 5 -11 12 -13 6 -2 9 -12 5 -21 -4 -10 -12 -14 -22
-11 -13 5 -15 2 -9 -20 6 -24 4 -26 -30 -26 -20 0 -36 -2 -36 -4 0 -1 5 -17
11 -35 13 -37 33 -42 27 -6 -3 14 -1 25 3 25 5 0 11 -11 15 -25 9 -35 24 -31
25 8 2 30 2 30 6 5 5 -35 19 -36 27 -3 4 14 11 25 16 25 6 0 6 -9 0 -26 -13
-32 -13 -34 3 -34 15 0 49 58 41 71 -3 5 -18 9 -35 9 -16 0 -29 2 -29 4 0 1 5
18 11 36 9 26 9 34 -2 41 -18 11 -39 11 -39 0z"/>
<path d="M138 683 c-10 -2 -18 -9 -18 -15 0 -6 10 -8 23 -4 12 3 30 6 40 6 9
0 17 5 17 10 0 10 -30 12 -62 3z"/>
<path d="M132 643 c-25 -3 -32 -8 -28 -20 3 -8 9 -26 12 -39 6 -25 14 -28 50
-18 20 5 48 60 38 75 -5 9 -12 9 -72 2z m38 -37 c0 -8 -7 -16 -15 -20 -10 -4
-15 1 -15 14 0 11 7 20 15 20 8 0 15 -6 15 -14z"/>
<path d="M290 395 c0 -3 19 -30 41 -60 33 -44 47 -55 70 -55 37 0 37 15 2 34
-16 8 -44 30 -62 50 -32 33 -51 44 -51 31z"/>
<path d="M134 365 c3 -8 9 -22 12 -30 4 -11 0 -15 -17 -15 -13 0 -31 -4 -39
-10 -28 -18 0 -23 56 -11 38 9 59 10 63 3 3 -6 15 -10 26 -9 15 2 19 -3 18
-20 -2 -17 2 -23 17 -23 13 0 20 7 20 19 0 11 9 23 20 26 36 11 22 26 -17 19
-35 -6 -37 -6 -24 9 14 17 9 47 -8 47 -5 0 -11 -9 -14 -20 -6 -25 -67 -29 -67
-5 0 8 -9 19 -19 25 -27 14 -34 13 -27 -5z"/>
<path d="M138 273 c-10 -2 -18 -9 -18 -15 0 -6 10 -8 23 -4 12 3 28 6 35 6 6
0 12 5 12 10 0 10 -21 11 -52 3z"/>
<path d="M300 271 c0 -5 5 -11 12 -13 6 -2 9 -12 5 -21 -4 -10 -12 -14 -22
-11 -13 5 -15 2 -9 -20 6 -24 4 -26 -30 -26 -40 0 -40 1 -26 -34 8 -21 6 -26
-10 -31 -33 -11 -23 -28 11 -21 17 3 69 6 115 6 82 0 111 13 59 26 -27 7 -31
14 -14 31 17 17 1 33 -32 33 -16 0 -29 2 -29 4 0 1 5 18 11 36 9 26 9 34 -2
41 -18 11 -39 11 -39 0z m7 -138 c-3 -10 -5 -4 -5 12 0 17 2 24 5 18 2 -7 2
-21 0 -30z m46 17 c-6 -22 -23 -38 -23 -21 0 17 12 41 20 41 5 0 6 -9 3 -20z
m-79 -6 c8 -21 8 -24 -3 -24 -5 0 -11 9 -14 20 -6 24 8 27 17 4z"/>
<path d="M138 233 c-10 -2 -18 -9 -18 -15 0 -6 10 -8 23 -4 12 3 30 6 40 6 9
0 17 5 17 10 0 10 -30 12 -62 3z"/>
<path d="M132 193 c-25 -3 -32 -8 -28 -20 3 -8 9 -26 12 -39 6 -25 14 -28 50
-18 20 5 48 60 38 75 -5 9 -12 9 -72 2z m38 -37 c0 -8 -7 -16 -15 -20 -10 -4
-15 1 -15 14 0 11 7 20 15 20 8 0 15 -6 15 -14z"/>
</g>
</svg>
