<?xml version="1.0" standalone="no"?>
<!DOCTYPE svg PUBLIC "-//W3C//DTD SVG 20010904//EN"
 "http://www.w3.org/TR/2001/REC-SVG-20010904/DTD/svg10.dtd">
<svg version="1.0" xmlns="http://www.w3.org/2000/svg"
 width="50.000000pt" height="725.000000pt" viewBox="0 0 50.000000 725.000000"
 preserveAspectRatio="xMidYMid meet">
<metadata>
Created by potrace 1.16, written by Peter Selinger 2001-2019
</metadata>
<g transform="translate(0.000000,725.000000) scale(0.100000,-0.100000)"
fill="#000000" stroke="none">
<path d="M140 7130 c0 -18 20 -50 31 -50 18 0 5 55 -13 58 -10 2 -18 -2 -18
-8z"/>
<path d="M142 6663 c3 -25 0 -28 -29 -31 -22 -2 -33 -9 -33 -19 0 -12 7 -14
33 -8 17 3 49 9 70 12 38 6 52 23 18 23 -13 0 -21 8 -23 22 -2 13 -11 24 -21
26 -14 3 -17 -2 -15 -25z"/>
<path d="M142 6213 c3 -25 0 -28 -29 -31 -22 -2 -33 -9 -33 -19 0 -12 7 -14
33 -8 17 3 49 9 70 12 38 6 52 23 18 23 -13 0 -21 8 -23 22 -2 13 -11 24 -21
26 -14 3 -17 -2 -15 -25z"/>
<path d="M138 6133 c-32 -8 -20 -26 13 -19 17 3 35 6 40 6 5 0 9 5 9 10 0 10
-30 12 -62 3z"/>
<path d="M142 5763 c3 -25 0 -28 -29 -31 -22 -2 -33 -9 -33 -19 0 -12 7 -14
33 -8 17 3 49 9 70 12 38 6 52 23 18 23 -13 0 -21 8 -23 22 -2 13 -11 24 -21
26 -14 3 -17 -2 -15 -25z"/>
<path d="M138 5683 c-32 -8 -20 -26 13 -19 17 3 35 6 40 6 5 0 9 5 9 10 0 10
-30 12 -62 3z"/>
<path d="M130 5640 c-8 -5 -12 -11 -9 -14 8 -8 79 6 79 15 0 12 -51 11 -70 -1z"/>
<path d="M142 5313 c3 -25 0 -28 -29 -31 -22 -2 -33 -9 -33 -19 0 -12 7 -14
33 -8 17 3 49 9 70 12 38 6 52 23 18 23 -13 0 -21 8 -23 22 -2 13 -11 24 -21
26 -14 3 -17 -2 -15 -25z"/>
<path d="M138 5233 c-32 -8 -20 -26 13 -19 17 3 35 6 40 6 5 0 9 5 9 10 0 10
-30 12 -62 3z"/>
<path d="M130 5190 c-8 -5 -12 -11 -9 -14 8 -8 79 6 79 15 0 12 -51 11 -70 -1z"/>
<path d="M104 5134 c3 -9 9 -27 12 -40 8 -31 24 -31 24 0 0 35 -10 56 -27 56
-10 0 -13 -6 -9 -16z"/>
<path d="M142 4863 c3 -25 0 -28 -29 -31 -22 -2 -33 -9 -33 -19 0 -12 7 -14
33 -8 17 3 49 9 70 12 38 6 52 23 18 23 -13 0 -21 8 -23 22 -2 13 -11 24 -21
26 -14 3 -17 -2 -15 -25z"/>
<path d="M138 4783 c-32 -8 -20 -26 13 -19 17 3 35 6 40 6 5 0 9 5 9 10 0 10
-30 12 -62 3z"/>
<path d="M130 4740 c-8 -5 -12 -11 -9 -14 8 -8 79 6 79 15 0 12 -51 11 -70 -1z"/>
<path d="M132 4703 c-25 -3 -32 -8 -28 -20 3 -8 9 -26 12 -39 8 -33 24 -30 24
5 0 16 6 31 15 35 11 4 15 -1 15 -19 0 -31 16 -33 24 -2 13 49 13 49 -62 40z"/>
<path d="M142 4413 c3 -25 0 -28 -29 -31 -22 -2 -33 -9 -33 -19 0 -12 7 -14
33 -8 17 3 49 9 70 12 38 6 52 23 18 23 -13 0 -21 8 -23 22 -2 13 -11 24 -21
26 -14 3 -17 -2 -15 -25z"/>
<path d="M138 4333 c-32 -8 -20 -26 13 -19 17 3 35 6 40 6 5 0 9 5 9 10 0 10
-30 12 -62 3z"/>
<path d="M130 4290 c-8 -5 -12 -11 -9 -14 8 -8 79 6 79 15 0 12 -51 11 -70 -1z"/>
<path d="M132 4253 c-25 -3 -32 -8 -28 -20 3 -8 9 -25 12 -38 5 -21 10 -23 37
-18 18 3 33 6 34 7 0 1 4 18 8 39 8 40 11 39 -63 30z m35 -38 c-4 -8 -11 -15
-17 -15 -14 0 -13 27 3 33 16 6 21 1 14 -18z"/>
<path d="M142 3963 c3 -25 0 -28 -29 -31 -22 -2 -33 -9 -33 -19 0 -12 7 -14
33 -8 17 3 49 9 70 12 38 6 52 23 18 23 -13 0 -21 8 -23 22 -2 13 -11 24 -21
26 -14 3 -17 -2 -15 -25z"/>
<path d="M278 3963 c-34 -5 -37 -23 -4 -23 38 0 86 12 86 21 0 9 -31 10 -82 2z"/>
<path d="M138 3883 c-32 -8 -20 -26 13 -19 17 3 35 6 40 6 5 0 9 5 9 10 0 10
-30 12 -62 3z"/>
<path d="M130 3840 c-8 -5 -12 -11 -9 -14 8 -8 79 6 79 15 0 12 -51 11 -70 -1z"/>
<path d="M132 3803 c-25 -3 -32 -8 -28 -20 3 -8 9 -25 12 -38 5 -21 10 -23 37
-18 18 3 33 6 34 7 0 1 4 18 8 39 8 40 11 39 -63 30z m35 -38 c-4 -8 -11 -15
-17 -15 -14 0 -13 27 3 33 16 6 21 1 14 -18z"/>
<path d="M142 3513 c3 -25 0 -28 -29 -31 -22 -2 -33 -9 -33 -19 0 -12 7 -14
33 -8 17 3 49 9 70 12 38 6 52 23 18 23 -13 0 -21 8 -23 22 -2 13 -11 24 -21
26 -14 3 -17 -2 -15 -25z"/>
<path d="M278 3513 c-34 -5 -37 -23 -4 -23 38 0 86 12 86 21 0 9 -31 10 -82 2z"/>
<path d="M215 3443 c4 -10 10 -30 13 -45 6 -37 22 -36 22 1 0 40 -9 61 -27 61
-11 0 -13 -5 -8 -17z"/>
<path d="M138 3433 c-32 -8 -20 -26 13 -19 17 3 35 6 40 6 5 0 9 5 9 10 0 10
-30 12 -62 3z"/>
<path d="M130 3390 c-8 -5 -12 -11 -9 -14 8 -8 79 6 79 15 0 12 -51 11 -70 -1z"/>
<path d="M132 3353 c-25 -3 -32 -8 -28 -20 3 -8 9 -25 12 -38 5 -21 10 -23 37
-18 18 3 33 6 34 7 0 1 4 18 8 39 8 40 11 39 -63 30z m35 -38 c-4 -8 -11 -15
-17 -15 -14 0 -13 27 3 33 16 6 21 1 14 -18z"/>
<path d="M142 3063 c3 -25 0 -28 -29 -31 -22 -2 -33 -9 -33 -19 0 -12 7 -14
33 -8 17 3 49 9 70 12 38 6 52 23 18 23 -13 0 -21 8 -23 22 -2 13 -11 24 -21
26 -14 3 -17 -2 -15 -25z"/>
<path d="M278 3063 c-34 -5 -37 -23 -4 -23 38 0 86 12 86 21 0 9 -31 10 -82 2z"/>
<path d="M338 3023 c-35 -5 -37 -23 -3 -23 24 0 25 -2 19 -40 -9 -55 10 -52
32 6 15 39 15 47 3 55 -8 5 -16 8 -19 7 -3 0 -17 -3 -32 -5z"/>
<path d="M215 2993 c4 -10 10 -30 13 -45 6 -40 22 -35 22 7 0 24 5 35 15 35 8
0 15 5 15 10 0 6 -16 10 -36 10 -31 0 -35 -3 -29 -17z"/>
<path d="M138 2983 c-32 -8 -20 -26 13 -19 17 3 35 6 40 6 5 0 9 5 9 10 0 10
-30 12 -62 3z"/>
<path d="M130 2940 c-8 -5 -12 -11 -9 -14 8 -8 79 6 79 15 0 12 -51 11 -70 -1z"/>
<path d="M132 2903 c-25 -3 -32 -8 -28 -20 3 -8 9 -25 12 -38 5 -21 10 -23 37
-18 18 3 33 6 34 7 0 1 4 18 8 39 8 40 11 39 -63 30z m35 -38 c-4 -8 -11 -15
-17 -15 -14 0 -13 27 3 33 16 6 21 1 14 -18z"/>
<path d="M142 2613 c3 -25 0 -28 -29 -31 -22 -2 -33 -9 -33 -19 0 -12 7 -14
33 -8 17 3 49 9 70 12 38 6 52 23 18 23 -13 0 -21 8 -23 22 -2 13 -11 24 -21
26 -14 3 -17 -2 -15 -25z"/>
<path d="M278 2613 c-34 -5 -37 -23 -4 -23 38 0 86 12 86 21 0 9 -31 10 -82 2z"/>
<path d="M338 2573 c-35 -5 -37 -23 -3 -23 24 0 25 -2 19 -40 -9 -55 10 -52
32 6 15 39 15 47 3 55 -8 5 -16 8 -19 7 -3 0 -17 -3 -32 -5z"/>
<path d="M215 2543 c4 -10 10 -30 13 -45 5 -32 22 -38 22 -8 0 13 5 18 15 14
21 -8 19 13 -2 25 -17 10 -17 10 0 11 9 0 17 5 17 10 0 6 -16 10 -36 10 -31 0
-35 -3 -29 -17z"/>
<path d="M138 2533 c-32 -8 -20 -26 13 -19 17 3 35 6 40 6 5 0 9 5 9 10 0 10
-30 12 -62 3z"/>
<path d="M130 2490 c-8 -5 -12 -11 -9 -14 8 -8 79 6 79 15 0 12 -51 11 -70 -1z"/>
<path d="M132 2453 c-25 -3 -32 -8 -28 -20 3 -8 9 -25 12 -38 5 -21 10 -23 37
-18 18 3 33 6 34 7 0 1 4 18 8 39 8 40 11 39 -63 30z m35 -38 c-4 -8 -11 -15
-17 -15 -14 0 -13 27 3 33 16 6 21 1 14 -18z"/>
<path d="M142 2163 c3 -25 0 -28 -29 -31 -22 -2 -33 -9 -33 -19 0 -12 7 -14
33 -8 17 3 49 9 70 12 38 6 52 23 18 23 -13 0 -21 8 -23 22 -2 13 -11 24 -21
26 -14 3 -17 -2 -15 -25z"/>
<path d="M278 2163 c-34 -5 -37 -23 -4 -23 38 0 86 12 86 21 0 9 -31 10 -82 2z"/>
<path d="M338 2123 c-35 -5 -37 -23 -3 -23 24 0 25 -2 19 -40 -9 -55 10 -52
32 6 15 39 15 47 3 55 -8 5 -16 8 -19 7 -3 0 -17 -3 -32 -5z"/>
<path d="M215 2093 c4 -10 10 -30 13 -45 5 -32 22 -38 22 -8 0 13 5 18 15 14
21 -8 19 13 -2 25 -17 10 -17 10 0 11 9 0 17 5 17 10 0 6 -16 10 -36 10 -31 0
-35 -3 -29 -17z"/>
<path d="M138 2083 c-32 -8 -20 -26 13 -19 17 3 35 6 40 6 5 0 9 5 9 10 0 10
-30 12 -62 3z"/>
<path d="M316 2074 c-4 -9 -4 -19 -1 -22 6 -6 35 18 35 29 0 16 -28 10 -34 -7z"/>
<path d="M130 2040 c-8 -5 -12 -11 -9 -14 8 -8 79 6 79 15 0 12 -51 11 -70 -1z"/>
<path d="M132 2003 c-25 -3 -32 -8 -28 -20 3 -8 9 -25 12 -38 5 -21 10 -23 37
-18 18 3 33 6 34 7 0 1 4 18 8 39 8 40 11 39 -63 30z m35 -38 c-4 -8 -11 -15
-17 -15 -14 0 -13 27 3 33 16 6 21 1 14 -18z"/>
<path d="M142 1713 c3 -25 0 -28 -29 -31 -22 -2 -33 -9 -33 -19 0 -12 7 -14
33 -8 17 3 49 9 70 12 38 6 52 23 18 23 -13 0 -21 8 -23 22 -2 13 -11 24 -21
26 -14 3 -17 -2 -15 -25z"/>
<path d="M278 1713 c-34 -5 -37 -23 -4 -23 38 0 86 12 86 21 0 9 -31 10 -82 2z"/>
<path d="M338 1673 c-35 -5 -37 -23 -3 -23 14 0 25 -4 25 -9 0 -19 -12 -41
-23 -41 -7 0 -7 4 1 12 16 16 15 28 -3 28 -8 0 -17 -11 -21 -25 -7 -30 -7 -30
28 -39 24 -5 28 -2 44 40 15 39 15 47 3 55 -8 5 -16 8 -19 7 -3 0 -17 -3 -32
-5z"/>
<path d="M215 1643 c4 -10 10 -30 13 -45 4 -24 9 -28 38 -28 19 0 34 5 34 10
0 6 -11 10 -25 10 -14 0 -25 4 -25 10 0 5 7 7 15 4 21 -8 19 13 -2 25 -17 10
-17 10 0 11 9 0 17 5 17 10 0 6 -16 10 -36 10 -31 0 -35 -3 -29 -17z"/>
<path d="M138 1633 c-32 -8 -20 -26 13 -19 17 3 35 6 40 6 5 0 9 5 9 10 0 10
-30 12 -62 3z"/>
<path d="M130 1590 c-8 -5 -12 -11 -9 -14 8 -8 79 6 79 15 0 12 -51 11 -70 -1z"/>
<path d="M132 1553 c-25 -3 -32 -8 -28 -20 3 -8 9 -25 12 -38 5 -21 10 -23 37
-18 18 3 33 6 34 7 0 1 4 18 8 39 8 40 11 39 -63 30z m35 -38 c-4 -8 -11 -15
-17 -15 -14 0 -13 27 3 33 16 6 21 1 14 -18z"/>
<path d="M284 1295 c6 -22 3 -28 -14 -32 -26 -7 -26 -23 0 -23 11 0 20 -7 20
-15 0 -11 -11 -15 -41 -15 -35 0 -40 -2 -34 -17 4 -10 10 -30 13 -45 3 -22 10
-28 29 -28 25 0 25 -1 21 -72 -2 -48 1 -72 9 -75 8 -3 14 22 19 77 l7 82 28
-6 c25 -5 29 -2 45 40 21 54 11 66 -44 57 -27 -5 -34 -3 -30 8 2 8 14 15 26
17 27 4 29 22 3 22 -13 0 -21 8 -23 22 -2 13 -11 24 -22 26 -16 3 -18 0 -12
-23z m76 -104 c0 -19 -12 -41 -23 -41 -7 0 -7 4 1 12 7 7 12 16 12 20 0 13
-28 9 -33 -4 -3 -8 -6 -6 -6 5 -1 12 7 17 24 17 14 0 25 -4 25 -9z m-72 -23
c-3 -22 -38 -39 -38 -19 0 6 7 8 15 5 21 -8 19 13 -2 25 -16 9 -15 10 5 11 19
0 23 -5 20 -22z"/>
<path d="M142 1263 c3 -25 0 -28 -29 -31 -22 -2 -33 -9 -33 -19 0 -12 7 -14
33 -8 17 3 49 9 70 12 38 6 52 23 18 23 -13 0 -21 8 -23 22 -2 13 -11 24 -21
26 -14 3 -17 -2 -15 -25z"/>
<path d="M138 1183 c-32 -8 -20 -26 13 -19 17 3 35 6 40 6 5 0 9 5 9 10 0 10
-30 12 -62 3z"/>
<path d="M130 1140 c-8 -5 -12 -11 -9 -14 8 -8 79 6 79 15 0 12 -51 11 -70 -1z"/>
<path d="M132 1103 c-25 -3 -32 -8 -28 -20 3 -8 9 -25 12 -38 5 -21 10 -23 37
-18 18 3 33 6 34 7 0 1 4 18 8 39 8 40 11 39 -63 30z m35 -38 c-4 -8 -11 -15
-17 -15 -14 0 -13 27 3 33 16 6 21 1 14 -18z"/>
<path d="M284 845 c6 -22 3 -28 -14 -32 -26 -7 -26 -23 0 -23 11 0 20 -7 20
-15 0 -11 -11 -15 -41 -15 -35 0 -40 -2 -34 -17 4 -10 10 -30 13 -45 3 -19 10
-28 23 -28 27 0 24 -12 -16 -50 -54 -52 -43 -72 14 -24 l31 26 -2 -48 c-2 -29
1 -48 9 -51 8 -3 14 22 19 77 l7 82 28 -6 c25 -5 29 -2 45 40 21 54 11 66 -44
57 -27 -5 -34 -3 -30 8 2 8 14 15 26 17 27 4 29 22 3 22 -13 0 -21 8 -23 22
-2 13 -11 24 -22 26 -16 3 -18 0 -12 -23z m76 -104 c0 -19 -12 -41 -23 -41 -7
0 -7 4 1 12 7 7 12 16 12 20 0 13 -28 9 -33 -4 -3 -8 -6 -6 -6 5 -1 12 7 17
24 17 14 0 25 -4 25 -9z m-72 -23 c-3 -22 -38 -39 -38 -19 0 6 7 8 15 5 21 -8
19 13 -2 25 -16 9 -15 10 5 11 19 0 23 -5 20 -22z"/>
<path d="M142 813 c3 -25 0 -28 -29 -31 -22 -2 -33 -9 -33 -19 0 -12 7 -14 33
-8 17 3 49 9 70 12 38 6 52 23 18 23 -13 0 -21 8 -23 22 -2 13 -11 24 -21 26
-14 3 -17 -2 -15 -25z"/>
<path d="M138 733 c-32 -8 -20 -26 13 -19 17 3 35 6 40 6 5 0 9 5 9 10 0 10
-30 12 -62 3z"/>
<path d="M130 690 c-8 -5 -12 -11 -9 -14 8 -8 79 6 79 15 0 12 -51 11 -70 -1z"/>
<path d="M132 653 c-25 -3 -32 -8 -28 -20 3 -8 9 -25 12 -38 5 -21 10 -23 37
-18 18 3 33 6 34 7 0 1 4 18 8 39 8 40 11 39 -63 30z m35 -38 c-4 -8 -11 -15
-17 -15 -14 0 -13 27 3 33 16 6 21 1 14 -18z"/>
<path d="M284 395 c6 -22 3 -28 -14 -32 -26 -7 -26 -23 0 -23 11 0 20 -7 20
-15 0 -11 -11 -15 -41 -15 -35 0 -40 -2 -34 -17 4 -10 10 -30 13 -45 3 -19 10
-28 23 -28 27 0 24 -12 -16 -50 -54 -52 -43 -72 14 -24 l31 26 -2 -48 c-2 -30
1 -48 10 -51 8 -3 12 7 13 29 1 18 4 46 8 62 l6 30 25 -37 c21 -31 31 -37 63
-37 47 0 47 10 -3 33 -22 10 -50 32 -62 49 l-22 31 26 -6 c24 -6 28 -3 44 39
21 54 12 66 -44 57 -27 -5 -34 -3 -30 8 2 8 14 15 26 17 27 4 29 22 3 22 -13
0 -21 8 -23 22 -2 13 -11 24 -22 26 -16 3 -18 0 -12 -23z m76 -104 c0 -19 -12
-41 -23 -41 -7 0 -7 4 1 12 7 7 12 16 12 20 0 13 -28 9 -33 -4 -3 -8 -6 -6 -6
5 -1 12 7 17 24 17 14 0 25 -4 25 -9z m-72 -23 c-3 -22 -38 -39 -38 -19 0 6 7
8 15 5 21 -8 19 13 -2 25 -16 9 -15 10 5 11 19 0 23 -5 20 -22z"/>
<path d="M142 363 c3 -25 0 -28 -29 -31 -22 -2 -33 -9 -33 -19 0 -12 7 -14 33
-8 17 3 49 9 70 12 38 6 52 23 18 23 -13 0 -21 8 -23 22 -2 13 -11 24 -21 26
-14 3 -17 -2 -15 -25z"/>
<path d="M138 283 c-32 -8 -20 -26 13 -19 17 3 35 6 40 6 5 0 9 5 9 10 0 10
-30 12 -62 3z"/>
<path d="M130 240 c-8 -5 -12 -11 -9 -14 8 -8 79 6 79 15 0 12 -51 11 -70 -1z"/>
<path d="M132 203 c-25 -3 -32 -8 -28 -20 3 -8 9 -25 12 -38 5 -21 10 -23 37
-18 18 3 33 6 34 7 0 1 4 18 8 39 8 40 11 39 -63 30z m35 -38 c-4 -8 -11 -15
-17 -15 -14 0 -13 27 3 33 16 6 21 1 14 -18z"/>
</g>
</svg>
