<?xml version="1.0" standalone="no"?>
<!DOCTYPE svg PUBLIC "-//W3C//DTD SVG 20010904//EN"
 "http://www.w3.org/TR/2001/REC-SVG-20010904/DTD/svg10.dtd">
<svg version="1.0" xmlns="http://www.w3.org/2000/svg"
 width="50.000000pt" height="725.000000pt" viewBox="0 0 50.000000 725.000000"
 preserveAspectRatio="xMidYMid meet">
<metadata>
Created by potrace 1.16, written by Peter Selinger 2001-2019
</metadata>
<g transform="translate(0.000000,725.000000) scale(0.100000,-0.100000)"
fill="#000000" stroke="none">
<path d="M140 7127 c0 -7 6 -22 14 -33 12 -15 17 -16 27 -7 10 10 9 17 -6 33
-21 23 -35 26 -35 7z"/>
<path d="M140 6678 c0 -7 5 -20 10 -28 11 -17 -8 -28 -52 -29 -31 -1 -38 -17
-10 -25 25 -7 125 18 130 34 3 9 -2 11 -17 7 -12 -3 -19 -1 -15 5 6 10 -23 48
-38 48 -4 0 -8 -6 -8 -12z"/>
<path d="M140 6228 c0 -7 5 -20 10 -28 11 -17 -8 -28 -52 -29 -31 -1 -38 -17
-10 -25 25 -7 125 18 130 34 3 9 -2 11 -17 7 -12 -3 -19 -1 -15 5 6 10 -23 48
-38 48 -4 0 -8 -6 -8 -12z"/>
<path d="M135 6119 c-4 -6 -5 -12 -4 -14 7 -7 59 8 59 16 0 13 -47 11 -55 -2z"/>
<path d="M140 5778 c0 -7 5 -20 10 -28 11 -17 -8 -28 -52 -29 -31 -1 -38 -17
-10 -25 25 -7 125 18 130 34 3 9 -2 11 -17 7 -12 -3 -19 -1 -15 5 6 10 -23 48
-38 48 -4 0 -8 -6 -8 -12z"/>
<path d="M135 5669 c-4 -6 -5 -12 -4 -14 7 -7 59 8 59 16 0 13 -47 11 -55 -2z"/>
<path d="M130 5630 c0 -5 14 -10 30 -10 17 0 30 5 30 10 0 6 -13 10 -30 10
-16 0 -30 -4 -30 -10z"/>
<path d="M140 5328 c0 -7 5 -20 10 -28 11 -17 -8 -28 -52 -29 -31 -1 -38 -17
-10 -25 25 -7 125 18 130 34 3 9 -2 11 -17 7 -12 -3 -19 -1 -15 5 6 10 -23 48
-38 48 -4 0 -8 -6 -8 -12z"/>
<path d="M135 5219 c-4 -6 -5 -12 -4 -14 7 -7 59 8 59 16 0 13 -47 11 -55 -2z"/>
<path d="M130 5180 c0 -5 14 -10 30 -10 17 0 30 5 30 10 0 6 -13 10 -30 10
-16 0 -30 -4 -30 -10z"/>
<path d="M113 5110 c4 -18 7 -36 7 -41 0 -5 5 -9 11 -9 15 0 6 73 -10 78 -11
4 -13 -3 -8 -28z"/>
<path d="M140 4878 c0 -7 5 -20 10 -28 11 -17 -8 -28 -52 -29 -31 -1 -38 -17
-10 -25 25 -7 125 18 130 34 3 9 -2 11 -17 7 -12 -3 -19 -1 -15 5 6 10 -23 48
-38 48 -4 0 -8 -6 -8 -12z"/>
<path d="M135 4769 c-4 -6 -5 -12 -4 -14 7 -7 59 8 59 16 0 13 -47 11 -55 -2z"/>
<path d="M130 4730 c0 -5 14 -10 30 -10 17 0 30 5 30 10 0 6 -13 10 -30 10
-16 0 -30 -4 -30 -10z"/>
<path d="M150 4690 c0 -5 5 -10 10 -10 6 0 10 -11 10 -25 0 -35 16 -31 29 6 6
18 11 34 11 35 0 2 -13 4 -30 4 -16 0 -30 -4 -30 -10z"/>
<path d="M114 4659 c3 -17 6 -35 6 -40 0 -5 5 -9 10 -9 6 0 10 18 10 40 0 30
-4 40 -16 40 -13 0 -15 -7 -10 -31z"/>
<path d="M140 4428 c0 -7 5 -20 10 -28 11 -17 -8 -28 -52 -29 -31 -1 -38 -17
-10 -25 25 -7 125 18 130 34 3 9 -2 11 -17 7 -12 -3 -19 -1 -15 5 6 10 -23 48
-38 48 -4 0 -8 -6 -8 -12z"/>
<path d="M135 4319 c-4 -6 -5 -12 -4 -14 7 -7 59 8 59 16 0 13 -47 11 -55 -2z"/>
<path d="M130 4280 c0 -5 14 -10 30 -10 17 0 30 5 30 10 0 6 -13 10 -30 10
-16 0 -30 -4 -30 -10z"/>
<path d="M150 4241 c0 -5 5 -11 12 -13 14 -5 4 -38 -12 -38 -5 0 -10 11 -10
25 0 16 -6 25 -16 25 -13 0 -15 -7 -9 -37 4 -21 8 -39 8 -39 1 -1 16 1 34 3
22 4 33 12 37 28 3 13 9 30 12 39 5 13 -1 16 -25 16 -17 0 -31 -4 -31 -9z"/>
<path d="M140 3978 c0 -7 5 -20 10 -28 11 -17 -8 -28 -52 -29 -31 -1 -38 -17
-10 -25 25 -7 125 18 130 34 3 9 -2 11 -17 7 -12 -3 -19 -1 -15 5 6 10 -23 48
-38 48 -4 0 -8 -6 -8 -12z"/>
<path d="M220 3910 c0 -5 11 -10 25 -10 14 0 25 5 25 10 0 6 -11 10 -25 10
-14 0 -25 -4 -25 -10z"/>
<path d="M135 3869 c-4 -6 -5 -12 -4 -14 7 -7 59 8 59 16 0 13 -47 11 -55 -2z"/>
<path d="M130 3830 c0 -5 14 -10 30 -10 17 0 30 5 30 10 0 6 -13 10 -30 10
-16 0 -30 -4 -30 -10z"/>
<path d="M150 3791 c0 -5 5 -11 12 -13 14 -5 4 -38 -12 -38 -5 0 -10 11 -10
25 0 16 -6 25 -16 25 -13 0 -15 -7 -9 -37 4 -21 8 -39 8 -39 1 -1 16 1 34 3
22 4 33 12 37 28 3 13 9 30 12 39 5 13 -1 16 -25 16 -17 0 -31 -4 -31 -9z"/>
<path d="M140 3528 c0 -7 5 -20 10 -28 11 -17 -8 -28 -52 -29 -31 -1 -38 -17
-10 -25 25 -7 125 18 130 34 3 9 -2 11 -17 7 -12 -3 -19 -1 -15 5 6 10 -23 48
-38 48 -4 0 -8 -6 -8 -12z"/>
<path d="M220 3460 c0 -5 11 -10 25 -10 14 0 25 5 25 10 0 6 -11 10 -25 10
-14 0 -25 -4 -25 -10z"/>
<path d="M135 3419 c-4 -6 -5 -12 -4 -14 7 -7 59 8 59 16 0 13 -47 11 -55 -2z"/>
<path d="M220 3400 c0 -5 11 -10 25 -10 14 0 25 5 25 10 0 6 -11 10 -25 10
-14 0 -25 -4 -25 -10z"/>
<path d="M130 3380 c0 -5 14 -10 30 -10 17 0 30 5 30 10 0 6 -13 10 -30 10
-16 0 -30 -4 -30 -10z"/>
<path d="M150 3341 c0 -5 5 -11 12 -13 14 -5 4 -38 -12 -38 -5 0 -10 11 -10
25 0 16 -6 25 -16 25 -13 0 -15 -7 -9 -37 4 -21 8 -39 8 -39 1 -1 16 1 34 3
22 4 33 12 37 28 3 13 9 30 12 39 5 13 -1 16 -25 16 -17 0 -31 -4 -31 -9z"/>
<path d="M300 3080 c0 -10 -5 -30 -11 -43 -8 -19 -16 -22 -40 -19 -17 3 -29 0
-29 -7 0 -6 11 -12 25 -12 14 -1 30 -2 37 -3 13 -1 58 70 58 92 0 6 -9 12 -20
12 -13 0 -20 -7 -20 -20z"/>
<path d="M140 3078 c0 -7 5 -20 10 -28 11 -17 -8 -28 -52 -29 -31 -1 -38 -17
-10 -25 25 -7 125 18 130 34 3 9 -2 11 -17 7 -12 -3 -19 -1 -15 5 6 10 -23 48
-38 48 -4 0 -8 -6 -8 -12z"/>
<path d="M135 2969 c-4 -6 -5 -12 -4 -14 7 -7 59 8 59 16 0 13 -47 11 -55 -2z"/>
<path d="M220 2950 c0 -5 11 -10 25 -10 14 0 25 5 25 10 0 6 -11 10 -25 10
-14 0 -25 -4 -25 -10z"/>
<path d="M130 2930 c0 -5 14 -10 30 -10 17 0 30 5 30 10 0 6 -13 10 -30 10
-16 0 -30 -4 -30 -10z"/>
<path d="M150 2891 c0 -5 5 -11 12 -13 14 -5 4 -38 -12 -38 -5 0 -10 11 -10
25 0 16 -6 25 -16 25 -13 0 -15 -7 -9 -37 4 -21 8 -39 8 -39 1 -1 16 1 34 3
22 4 33 12 37 28 3 13 9 30 12 39 5 13 -1 16 -25 16 -17 0 -31 -4 -31 -9z"/>
<path d="M300 2630 c0 -10 -5 -30 -11 -43 -8 -19 -16 -22 -40 -19 -16 2 -29 0
-29 -6 0 -13 62 -22 75 -11 6 4 23 13 39 18 25 10 27 9 21 -9 -7 -23 11 -26
38 -6 36 27 5 53 -48 40 -25 -6 -26 -5 -16 14 16 30 14 42 -9 42 -13 0 -20 -7
-20 -20z"/>
<path d="M140 2628 c0 -7 5 -20 10 -28 11 -17 -8 -28 -52 -29 -31 -1 -38 -17
-10 -25 25 -7 125 18 130 34 3 9 -2 11 -17 7 -12 -3 -19 -1 -15 5 6 10 -23 48
-38 48 -4 0 -8 -6 -8 -12z"/>
<path d="M135 2519 c-4 -6 -5 -12 -4 -14 7 -7 59 8 59 16 0 13 -47 11 -55 -2z"/>
<path d="M220 2500 c0 -5 11 -10 25 -10 14 0 25 5 25 10 0 6 -11 10 -25 10
-14 0 -25 -4 -25 -10z"/>
<path d="M130 2480 c0 -5 14 -10 30 -10 17 0 30 5 30 10 0 6 -13 10 -30 10
-16 0 -30 -4 -30 -10z"/>
<path d="M150 2441 c0 -5 5 -11 12 -13 14 -5 4 -38 -12 -38 -5 0 -10 11 -10
25 0 16 -6 25 -16 25 -13 0 -15 -7 -9 -37 4 -21 8 -39 8 -39 1 -1 16 1 34 3
22 4 33 12 37 28 3 13 9 30 12 39 5 13 -1 16 -25 16 -17 0 -31 -4 -31 -9z"/>
<path d="M300 2180 c0 -10 -5 -30 -11 -43 -8 -19 -16 -22 -40 -19 -16 2 -29 0
-29 -6 0 -13 62 -22 75 -11 6 4 23 13 39 18 25 10 27 9 21 -9 -7 -23 11 -26
38 -6 36 27 5 53 -48 40 -25 -6 -26 -5 -16 14 16 30 14 42 -9 42 -13 0 -20 -7
-20 -20z"/>
<path d="M140 2178 c0 -7 5 -20 10 -28 11 -17 -8 -28 -52 -29 -31 -1 -38 -17
-10 -25 25 -7 125 18 130 34 3 9 -2 11 -17 7 -12 -3 -19 -1 -15 5 6 10 -23 48
-38 48 -4 0 -8 -6 -8 -12z"/>
<path d="M300 2080 c0 -12 -13 -35 -30 -52 -16 -16 -30 -31 -30 -34 0 -12 32
-1 55 19 28 24 39 77 18 84 -8 3 -13 -4 -13 -17z"/>
<path d="M135 2069 c-4 -6 -5 -12 -4 -14 7 -7 59 8 59 16 0 13 -47 11 -55 -2z"/>
<path d="M220 2050 c0 -5 11 -10 25 -10 14 0 25 5 25 10 0 6 -11 10 -25 10
-14 0 -25 -4 -25 -10z"/>
<path d="M130 2030 c0 -5 14 -10 30 -10 17 0 30 5 30 10 0 6 -13 10 -30 10
-16 0 -30 -4 -30 -10z"/>
<path d="M150 1991 c0 -5 5 -11 12 -13 14 -5 4 -38 -12 -38 -5 0 -10 11 -10
25 0 16 -6 25 -16 25 -13 0 -15 -7 -9 -37 4 -21 8 -39 8 -39 1 -1 16 1 34 3
22 4 33 12 37 28 3 13 9 30 12 39 5 13 -1 16 -25 16 -17 0 -31 -4 -31 -9z"/>
<path d="M300 1730 c0 -10 -5 -30 -11 -43 -8 -19 -16 -22 -40 -19 -16 2 -29 0
-29 -6 0 -13 62 -22 75 -11 6 4 23 13 39 18 25 10 27 9 21 -9 -7 -23 11 -26
38 -6 36 27 5 53 -48 40 -25 -6 -26 -5 -16 14 16 30 14 42 -9 42 -13 0 -20 -7
-20 -20z"/>
<path d="M140 1728 c0 -7 5 -20 10 -28 11 -17 -8 -28 -52 -29 -31 -1 -38 -17
-10 -25 25 -7 125 18 130 34 3 9 -2 11 -17 7 -12 -3 -19 -1 -15 5 6 10 -23 48
-38 48 -4 0 -8 -6 -8 -12z"/>
<path d="M300 1629 c0 -11 -13 -34 -30 -51 -16 -16 -30 -31 -30 -34 0 -12 32
-1 58 21 l29 24 23 -24 c23 -25 70 -35 70 -15 0 5 -18 19 -40 30 -23 12 -45
32 -50 45 -12 30 -30 33 -30 4z"/>
<path d="M135 1619 c-4 -6 -5 -12 -4 -14 7 -7 59 8 59 16 0 13 -47 11 -55 -2z"/>
<path d="M220 1600 c0 -5 11 -10 25 -10 14 0 25 5 25 10 0 6 -11 10 -25 10
-14 0 -25 -4 -25 -10z"/>
<path d="M130 1580 c0 -5 14 -10 30 -10 17 0 30 5 30 10 0 6 -13 10 -30 10
-16 0 -30 -4 -30 -10z"/>
<path d="M150 1541 c0 -5 5 -11 12 -13 14 -5 4 -38 -12 -38 -5 0 -10 11 -10
25 0 16 -6 25 -16 25 -13 0 -15 -7 -9 -37 4 -21 8 -39 8 -39 1 -1 16 1 34 3
22 4 33 12 37 28 3 13 9 30 12 39 5 13 -1 16 -25 16 -17 0 -31 -4 -31 -9z"/>
<path d="M300 1280 c0 -10 -5 -30 -11 -43 -8 -19 -16 -22 -40 -19 -16 2 -29 0
-29 -6 0 -13 62 -22 75 -11 6 4 23 13 39 18 25 10 27 9 21 -9 -7 -23 11 -26
38 -6 36 27 5 53 -48 40 -25 -6 -26 -5 -16 14 16 30 14 42 -9 42 -13 0 -20 -7
-20 -20z"/>
<path d="M140 1278 c0 -7 5 -20 10 -28 11 -17 -8 -28 -52 -29 -31 -1 -38 -17
-10 -25 25 -7 125 18 130 34 3 9 -2 11 -17 7 -12 -3 -19 -1 -15 5 6 10 -23 48
-38 48 -4 0 -8 -6 -8 -12z"/>
<path d="M300 1179 c0 -11 -13 -34 -30 -51 -16 -16 -30 -31 -30 -34 0 -12 32
-1 58 21 l29 24 23 -24 c23 -25 70 -35 70 -15 0 5 -18 19 -40 30 -23 12 -45
32 -50 45 -12 30 -30 33 -30 4z"/>
<path d="M135 1169 c-4 -6 -5 -12 -4 -14 7 -7 59 8 59 16 0 13 -47 11 -55 -2z"/>
<path d="M220 1150 c0 -5 11 -10 25 -10 14 0 25 5 25 10 0 6 -11 10 -25 10
-14 0 -25 -4 -25 -10z"/>
<path d="M130 1130 c0 -5 14 -10 30 -10 17 0 30 5 30 10 0 6 -13 10 -30 10
-16 0 -30 -4 -30 -10z"/>
<path d="M150 1091 c0 -5 5 -11 12 -13 14 -5 4 -38 -12 -38 -5 0 -10 11 -10
25 0 16 -6 25 -16 25 -13 0 -15 -7 -9 -37 4 -21 8 -39 8 -39 1 -1 16 1 34 3
22 4 33 12 37 28 3 13 9 30 12 39 5 13 -1 16 -25 16 -17 0 -31 -4 -31 -9z"/>
<path d="M244 1048 c3 -13 6 -31 6 -40 0 -10 5 -18 10 -18 6 0 10 18 10 40 0
30 -4 40 -16 40 -12 0 -15 -6 -10 -22z"/>
<path d="M300 830 c0 -10 -5 -30 -11 -43 -8 -19 -16 -22 -40 -19 -16 2 -29 0
-29 -6 0 -13 62 -22 75 -11 6 4 23 13 39 18 25 10 27 9 21 -9 -7 -23 11 -26
38 -6 36 27 5 53 -48 40 -25 -6 -26 -5 -16 14 16 30 14 42 -9 42 -13 0 -20 -7
-20 -20z"/>
<path d="M140 828 c0 -7 5 -20 10 -28 11 -17 -8 -28 -52 -29 -31 -1 -38 -17
-10 -25 25 -7 125 18 130 34 3 9 -2 11 -17 7 -12 -3 -19 -1 -15 5 6 10 -23 48
-38 48 -4 0 -8 -6 -8 -12z"/>
<path d="M300 729 c0 -11 -13 -34 -30 -51 -16 -16 -30 -31 -30 -34 0 -12 32
-1 58 21 l29 24 23 -24 c23 -25 70 -35 70 -15 0 5 -18 19 -40 30 -23 12 -45
32 -50 45 -12 30 -30 33 -30 4z"/>
<path d="M135 719 c-4 -6 -5 -12 -4 -14 7 -7 59 8 59 16 0 13 -47 11 -55 -2z"/>
<path d="M220 700 c0 -5 11 -10 25 -10 14 0 25 5 25 10 0 6 -11 10 -25 10 -14
0 -25 -4 -25 -10z"/>
<path d="M130 680 c0 -5 14 -10 30 -10 17 0 30 5 30 10 0 6 -13 10 -30 10 -16
0 -30 -4 -30 -10z"/>
<path d="M150 641 c0 -5 5 -11 12 -13 14 -5 4 -38 -12 -38 -5 0 -10 11 -10 25
0 16 -6 25 -16 25 -13 0 -15 -7 -9 -37 4 -21 8 -39 8 -39 1 -1 16 1 34 3 22 4
33 12 37 28 3 13 9 30 12 39 5 13 -1 16 -25 16 -17 0 -31 -4 -31 -9z"/>
<path d="M297 630 c-27 -5 -51 -10 -53 -12 -7 -7 9 -78 17 -78 5 0 9 16 9 35
0 34 1 35 39 35 35 0 38 -2 33 -25 -7 -37 23 -32 38 6 11 26 11 32 -1 40 -16
10 -15 10 -82 -1z"/>
<path d="M300 380 c0 -10 -5 -30 -11 -43 -8 -19 -16 -22 -40 -19 -16 2 -29 0
-29 -6 0 -13 62 -22 75 -11 6 4 23 13 39 18 25 10 27 9 21 -9 -7 -23 11 -26
38 -6 36 27 5 53 -48 40 -25 -6 -26 -5 -16 14 16 30 14 42 -9 42 -13 0 -20 -7
-20 -20z"/>
<path d="M140 378 c0 -7 5 -20 10 -28 11 -17 -8 -28 -52 -29 -31 -1 -38 -17
-10 -25 25 -7 125 18 130 34 3 9 -2 11 -17 7 -12 -3 -19 -1 -15 5 6 10 -23 48
-38 48 -4 0 -8 -6 -8 -12z"/>
<path d="M300 279 c0 -11 -13 -34 -30 -51 -16 -16 -30 -31 -30 -34 0 -12 32
-1 58 21 l29 24 23 -24 c23 -25 70 -35 70 -15 0 5 -18 19 -40 30 -23 12 -45
32 -50 45 -12 30 -30 33 -30 4z"/>
<path d="M135 269 c-4 -6 -5 -12 -4 -14 7 -7 59 8 59 16 0 13 -47 11 -55 -2z"/>
<path d="M220 250 c0 -5 11 -10 25 -10 14 0 25 5 25 10 0 6 -11 10 -25 10 -14
0 -25 -4 -25 -10z"/>
<path d="M130 230 c0 -5 14 -10 30 -10 17 0 30 5 30 10 0 6 -13 10 -30 10 -16
0 -30 -4 -30 -10z"/>
<path d="M150 191 c0 -5 5 -11 12 -13 14 -5 4 -38 -12 -38 -5 0 -10 11 -10 25
0 16 -6 25 -16 25 -13 0 -15 -7 -9 -37 4 -21 8 -39 8 -39 1 -1 16 1 34 3 22 4
33 12 37 28 3 13 9 30 12 39 5 13 -1 16 -25 16 -17 0 -31 -4 -31 -9z"/>
<path d="M330 185 c-8 -2 -32 -6 -53 -10 -37 -6 -38 -6 -31 -43 4 -20 8 -38 9
-40 2 -2 28 -1 57 3 51 6 55 9 67 42 17 45 3 58 -49 48z m13 -45 c-3 -11 -13
-20 -23 -20 -10 0 -25 -3 -34 -6 -12 -5 -16 0 -16 20 0 24 4 26 39 26 34 0 38
-3 34 -20z"/>
</g>
</svg>
