<?xml version="1.0" standalone="no"?>
<!DOCTYPE svg PUBLIC "-//W3C//DTD SVG 20010904//EN"
 "http://www.w3.org/TR/2001/REC-SVG-20010904/DTD/svg10.dtd">
<svg version="1.0" xmlns="http://www.w3.org/2000/svg"
 width="95.000000pt" height="725.000000pt" viewBox="0 0 95.000000 725.000000"
 preserveAspectRatio="xMidYMid meet">
<metadata>
Created by potrace 1.16, written by Peter Selinger 2001-2019
</metadata>
<g transform="translate(0.000000,725.000000) scale(0.100000,-0.100000)"
fill="#000000" stroke="none">
<path d="M270 7153 c0 -26 -28 -63 -48 -63 -10 0 -22 10 -27 22 -13 29 -52 39
-41 12 14 -35 11 -39 -21 -42 -21 -2 -33 -9 -33 -18 0 -16 12 -17 60 -5 19 5
50 12 68 15 30 5 33 4 27 -14 -4 -14 -2 -20 9 -20 12 0 13 -6 6 -31 -5 -18
-17 -40 -26 -50 -22 -25 -10 -37 14 -16 26 24 42 21 42 -8 0 -14 -4 -25 -10
-25 -5 0 -10 7 -10 15 0 23 -17 18 -24 -7 -9 -36 -7 -41 15 -35 20 5 20 5 3
-14 -23 -25 -10 -37 16 -14 34 31 49 125 20 125 -18 0 -18 33 0 52 22 24 26
98 4 98 -6 0 -11 8 -10 17 0 10 -7 19 -16 21 -12 2 -18 -3 -18 -15z m30 -62
c0 -27 -17 -35 -23 -11 -5 19 0 30 15 30 4 0 8 -9 8 -19z"/>
<path d="M363 7143 c-31 -6 -29 -23 2 -23 26 0 31 -13 19 -57 -9 -32 -25 -29
-22 3 2 15 -3 29 -9 31 -18 7 -17 -48 2 -73 20 -26 19 -34 -5 -34 -11 0 -20
-4 -20 -10 0 -5 11 -10 25 -10 22 0 25 -4 25 -32 0 -48 -10 -78 -26 -78 -20 0
-17 -29 2 -37 10 -4 22 1 29 10 17 23 29 146 16 161 -6 7 -7 17 -2 22 14 16
21 110 8 123 -6 6 -13 10 -16 10 -4 -1 -16 -4 -28 -6z"/>
<path d="M600 7135 c0 -13 24 -55 32 -55 15 0 21 30 8 45 -11 14 -40 21 -40
10z"/>
<path d="M145 7029 c-4 -6 -5 -12 -4 -14 7 -7 59 8 59 16 0 13 -47 11 -55 -2z"/>
<path d="M150 6990 c0 -5 14 -10 30 -10 17 0 30 5 30 10 0 6 -13 10 -30 10
-16 0 -30 -4 -30 -10z"/>
<path d="M158 6958 c-34 -9 -37 -12 -32 -36 9 -38 16 -43 51 -36 24 5 32 13
37 36 6 30 1 49 -12 47 -4 -1 -24 -6 -44 -11z m32 -27 c0 -13 -26 -32 -33 -24
-14 13 -6 33 13 33 11 0 20 -4 20 -9z"/>
<path d="M336 6928 c-7 -28 11 -49 24 -28 14 22 12 50 -4 50 -7 0 -16 -10 -20
-22z"/>
<path d="M604 6674 c14 -35 11 -39 -21 -42 -22 -2 -33 -9 -33 -19 0 -12 7 -14
33 -8 17 3 49 9 70 12 37 6 52 23 19 23 -9 0 -22 10 -27 22 -13 29 -52 39 -41
12z"/>
<path d="M604 6224 c14 -35 11 -39 -21 -42 -22 -2 -33 -9 -33 -19 0 -12 7 -14
33 -8 17 3 49 9 70 12 37 6 52 23 19 23 -9 0 -22 10 -27 22 -13 29 -52 39 -41
12z"/>
<path d="M595 6129 c-4 -6 -5 -12 -4 -14 7 -7 59 8 59 16 0 13 -47 11 -55 -2z"/>
<path d="M604 5774 c14 -35 11 -39 -21 -42 -22 -2 -33 -9 -33 -19 0 -12 7 -14
33 -8 17 3 49 9 70 12 37 6 52 23 19 23 -9 0 -22 10 -27 22 -13 29 -52 39 -41
12z"/>
<path d="M595 5679 c-4 -6 -5 -12 -4 -14 7 -7 59 8 59 16 0 13 -47 11 -55 -2z"/>
<path d="M600 5640 c0 -5 14 -10 30 -10 17 0 30 5 30 10 0 6 -13 10 -30 10
-16 0 -30 -4 -30 -10z"/>
<path d="M604 5324 c14 -35 11 -39 -21 -42 -22 -2 -33 -9 -33 -19 0 -12 7 -14
33 -8 17 3 49 9 70 12 37 6 52 23 19 23 -9 0 -22 10 -27 22 -13 29 -52 39 -41
12z"/>
<path d="M595 5229 c-4 -6 -5 -12 -4 -14 7 -7 59 8 59 16 0 13 -47 11 -55 -2z"/>
<path d="M600 5190 c0 -5 14 -10 30 -10 17 0 30 5 30 10 0 6 -13 10 -30 10
-16 0 -30 -4 -30 -10z"/>
<path d="M576 5123 c13 -55 39 -59 28 -5 -4 18 -13 32 -20 32 -11 0 -13 -8 -8
-27z"/>
<path d="M604 4874 c14 -35 11 -39 -21 -42 -22 -2 -33 -9 -33 -19 0 -12 7 -14
33 -8 17 3 49 9 70 12 37 6 52 23 19 23 -9 0 -22 10 -27 22 -13 29 -52 39 -41
12z"/>
<path d="M595 4779 c-4 -6 -5 -12 -4 -14 7 -7 59 8 59 16 0 13 -47 11 -55 -2z"/>
<path d="M600 4740 c0 -5 14 -10 30 -10 17 0 30 5 30 10 0 6 -13 10 -30 10
-16 0 -30 -4 -30 -10z"/>
<path d="M608 4708 c-34 -9 -37 -12 -32 -36 9 -35 13 -42 25 -42 7 0 8 12 4
30 -6 26 -4 30 15 30 17 0 20 -4 15 -20 -4 -14 -2 -20 8 -20 16 0 32 44 22 60
-7 11 -7 11 -57 -2z"/>
<path d="M604 4424 c14 -35 11 -39 -21 -42 -22 -2 -33 -9 -33 -19 0 -12 7 -14
33 -8 17 3 49 9 70 12 37 6 52 23 19 23 -9 0 -22 10 -27 22 -13 29 -52 39 -41
12z"/>
<path d="M595 4329 c-4 -6 -5 -12 -4 -14 7 -7 59 8 59 16 0 13 -47 11 -55 -2z"/>
<path d="M600 4290 c0 -5 14 -10 30 -10 17 0 30 5 30 10 0 6 -13 10 -30 10
-16 0 -30 -4 -30 -10z"/>
<path d="M608 4258 c-34 -9 -37 -12 -32 -36 9 -38 16 -43 51 -36 24 5 32 13
37 36 6 30 1 49 -12 47 -4 -1 -24 -6 -44 -11z m32 -27 c0 -13 -26 -32 -33 -24
-14 13 -6 33 13 33 11 0 20 -4 20 -9z"/>
<path d="M720 4003 c0 -26 -28 -63 -48 -63 -10 0 -22 10 -27 22 -13 29 -52 39
-41 12 14 -35 11 -39 -21 -42 -21 -2 -33 -9 -33 -18 0 -17 -1 -17 85 1 58 11
75 20 98 47 29 35 30 51 4 56 -11 2 -17 -3 -17 -15z"/>
<path d="M595 3879 c-4 -6 -5 -12 -4 -14 7 -7 59 8 59 16 0 13 -47 11 -55 -2z"/>
<path d="M600 3840 c0 -5 14 -10 30 -10 17 0 30 5 30 10 0 6 -13 10 -30 10
-16 0 -30 -4 -30 -10z"/>
<path d="M608 3808 c-34 -9 -37 -12 -32 -36 9 -38 16 -43 51 -36 24 5 32 13
37 36 6 30 1 49 -12 47 -4 -1 -24 -6 -44 -11z m32 -27 c0 -13 -26 -32 -33 -24
-14 13 -6 33 13 33 11 0 20 -4 20 -9z"/>
<path d="M720 3553 c0 -26 -28 -63 -48 -63 -10 0 -22 10 -27 22 -13 29 -52 39
-41 12 14 -35 11 -39 -21 -42 -21 -2 -33 -9 -33 -18 0 -17 -1 -17 83 0 38 8
77 22 86 30 10 9 27 16 39 16 12 0 22 5 22 10 0 6 -6 10 -14 10 -8 0 -13 8
-12 17 0 10 -7 19 -16 21 -12 2 -18 -3 -18 -15z"/>
<path d="M813 3543 c-31 -6 -29 -23 2 -23 17 0 25 -5 25 -17 0 -34 -12 -63
-26 -63 -18 0 -18 -14 1 -30 24 -20 42 4 48 63 4 47 -5 79 -22 76 -3 -1 -16
-4 -28 -6z"/>
<path d="M595 3429 c-4 -6 -5 -12 -4 -14 7 -7 59 8 59 16 0 13 -47 11 -55 -2z"/>
<path d="M600 3390 c0 -5 14 -10 30 -10 17 0 30 5 30 10 0 6 -13 10 -30 10
-16 0 -30 -4 -30 -10z"/>
<path d="M608 3358 c-34 -9 -37 -12 -32 -36 9 -38 16 -43 51 -36 24 5 32 13
37 36 6 30 1 49 -12 47 -4 -1 -24 -6 -44 -11z m32 -27 c0 -13 -26 -32 -33 -24
-14 13 -6 33 13 33 11 0 20 -4 20 -9z"/>
<path d="M720 3103 c0 -26 -28 -63 -48 -63 -10 0 -22 10 -27 22 -13 29 -52 39
-41 12 14 -35 11 -39 -21 -42 -21 -2 -33 -9 -33 -18 0 -16 12 -17 60 -5 19 5
50 12 68 15 30 5 33 4 27 -14 -5 -16 -2 -20 15 -20 17 0 20 4 15 23 -12 38
-11 42 18 45 27 3 39 22 13 22 -8 0 -13 8 -12 17 0 10 -7 19 -16 21 -12 2 -18
-3 -18 -15z"/>
<path d="M813 3093 c-31 -6 -29 -23 2 -23 17 0 25 -5 25 -17 0 -34 -12 -63
-26 -63 -18 0 -18 -14 1 -30 24 -20 42 4 48 63 4 47 -5 79 -22 76 -3 -1 -16
-4 -28 -6z"/>
<path d="M750 3010 c0 -5 7 -10 15 -10 8 0 15 5 15 10 0 6 -7 10 -15 10 -8 0
-15 -4 -15 -10z"/>
<path d="M595 2979 c-4 -6 -5 -12 -4 -14 7 -7 59 8 59 16 0 13 -47 11 -55 -2z"/>
<path d="M600 2940 c0 -5 14 -10 30 -10 17 0 30 5 30 10 0 6 -13 10 -30 10
-16 0 -30 -4 -30 -10z"/>
<path d="M608 2908 c-34 -9 -37 -12 -32 -36 9 -38 16 -43 51 -36 24 5 32 13
37 36 6 30 1 49 -12 47 -4 -1 -24 -6 -44 -11z m32 -27 c0 -13 -26 -32 -33 -24
-14 13 -6 33 13 33 11 0 20 -4 20 -9z"/>
<path d="M720 2653 c0 -26 -28 -63 -48 -63 -10 0 -22 10 -27 22 -13 29 -52 39
-41 12 14 -35 11 -39 -21 -42 -21 -2 -33 -9 -33 -18 0 -16 12 -17 60 -5 19 5
50 12 68 15 30 5 33 4 27 -14 -5 -16 -2 -20 15 -20 17 0 20 4 15 23 -12 38
-11 42 18 45 27 3 39 22 13 22 -8 0 -13 8 -12 17 0 10 -7 19 -16 21 -12 2 -18
-3 -18 -15z"/>
<path d="M813 2643 c-31 -6 -29 -23 2 -23 26 0 31 -13 19 -57 -9 -32 -25 -29
-22 3 2 15 -3 29 -9 31 -20 7 -16 -52 6 -78 15 -19 21 -21 34 -11 28 24 27
147 -2 141 -3 -1 -16 -4 -28 -6z"/>
<path d="M750 2560 c0 -5 7 -10 15 -10 8 0 15 5 15 10 0 6 -7 10 -15 10 -8 0
-15 -4 -15 -10z"/>
<path d="M595 2529 c-4 -6 -5 -12 -4 -14 7 -7 59 8 59 16 0 13 -47 11 -55 -2z"/>
<path d="M600 2490 c0 -5 14 -10 30 -10 17 0 30 5 30 10 0 6 -13 10 -30 10
-16 0 -30 -4 -30 -10z"/>
<path d="M608 2458 c-34 -9 -37 -12 -32 -36 9 -38 16 -43 51 -36 24 5 32 13
37 36 6 30 1 49 -12 47 -4 -1 -24 -6 -44 -11z m32 -27 c0 -13 -26 -32 -33 -24
-14 13 -6 33 13 33 11 0 20 -4 20 -9z"/>
<path d="M720 2203 c0 -26 -28 -63 -48 -63 -10 0 -22 10 -27 22 -13 29 -52 39
-41 12 14 -35 11 -39 -21 -42 -21 -2 -33 -9 -33 -18 0 -16 12 -17 60 -5 19 5
50 12 68 15 30 5 33 4 27 -14 -4 -14 -2 -20 9 -20 10 0 13 -6 10 -15 -9 -22
12 -18 35 7 23 24 27 98 5 98 -6 0 -11 8 -10 17 0 10 -7 19 -16 21 -12 2 -18
-3 -18 -15z m30 -62 c0 -27 -17 -35 -23 -11 -5 19 0 30 15 30 4 0 8 -9 8 -19z"/>
<path d="M813 2193 c-31 -6 -29 -23 2 -23 26 0 31 -13 19 -57 -9 -32 -25 -29
-22 3 2 15 -3 29 -9 31 -20 7 -16 -52 6 -78 15 -19 21 -21 34 -11 28 24 27
147 -2 141 -3 -1 -16 -4 -28 -6z"/>
<path d="M595 2079 c-4 -6 -5 -12 -4 -14 7 -7 59 8 59 16 0 13 -47 11 -55 -2z"/>
<path d="M600 2040 c0 -5 14 -10 30 -10 17 0 30 5 30 10 0 6 -13 10 -30 10
-16 0 -30 -4 -30 -10z"/>
<path d="M608 2008 c-34 -9 -37 -12 -32 -36 9 -38 16 -43 51 -36 24 5 32 13
37 36 6 30 1 49 -12 47 -4 -1 -24 -6 -44 -11z m32 -27 c0 -13 -26 -32 -33 -24
-14 13 -6 33 13 33 11 0 20 -4 20 -9z"/>
<path d="M720 1753 c0 -26 -28 -63 -48 -63 -10 0 -22 10 -27 22 -13 29 -52 39
-41 12 14 -35 11 -39 -21 -42 -21 -2 -33 -9 -33 -18 0 -16 12 -17 60 -5 19 5
50 12 68 15 30 5 33 4 27 -14 -4 -14 -2 -20 9 -20 12 0 13 -6 6 -31 -5 -18
-17 -40 -26 -50 -10 -11 -14 -22 -11 -26 11 -10 68 50 62 65 -2 7 4 23 15 34
22 24 26 98 4 98 -6 0 -11 8 -10 17 0 10 -7 19 -16 21 -12 2 -18 -3 -18 -15z
m30 -62 c0 -27 -17 -35 -23 -11 -5 19 0 30 15 30 4 0 8 -9 8 -19z"/>
<path d="M813 1743 c-31 -6 -29 -23 2 -23 26 0 31 -13 19 -57 -9 -32 -25 -29
-22 3 2 15 -3 29 -9 31 -20 7 -16 -52 6 -78 15 -19 21 -21 34 -11 28 24 27
147 -2 141 -3 -1 -16 -4 -28 -6z"/>
<path d="M595 1629 c-4 -6 -5 -12 -4 -14 7 -7 59 8 59 16 0 13 -47 11 -55 -2z"/>
<path d="M600 1590 c0 -5 14 -10 30 -10 17 0 30 5 30 10 0 6 -13 10 -30 10
-16 0 -30 -4 -30 -10z"/>
<path d="M608 1558 c-34 -9 -37 -12 -32 -36 9 -38 16 -43 51 -36 24 5 32 13
37 36 6 30 1 49 -12 47 -4 -1 -24 -6 -44 -11z m32 -27 c0 -13 -26 -32 -33 -24
-14 13 -6 33 13 33 11 0 20 -4 20 -9z"/>
<path d="M720 1303 c0 -26 -28 -63 -48 -63 -10 0 -22 10 -27 22 -13 29 -52 39
-41 12 14 -35 11 -39 -21 -42 -21 -2 -33 -9 -33 -18 0 -16 12 -17 60 -5 19 5
50 12 68 15 30 5 33 4 27 -14 -4 -14 -2 -20 9 -20 12 0 13 -6 6 -31 -5 -18
-17 -40 -26 -50 -22 -25 -10 -37 14 -16 10 10 28 17 40 17 12 0 22 5 22 10 0
6 -4 10 -9 10 -19 0 -20 32 -1 52 22 24 26 98 4 98 -6 0 -11 8 -10 17 0 10 -7
19 -16 21 -12 2 -18 -3 -18 -15z m30 -62 c0 -27 -17 -35 -23 -11 -5 19 0 30
15 30 4 0 8 -9 8 -19z"/>
<path d="M813 1293 c-31 -6 -29 -23 2 -23 26 0 31 -13 19 -57 -9 -32 -25 -29
-22 3 2 15 -3 29 -9 31 -18 7 -17 -48 2 -73 20 -26 19 -34 -5 -34 -11 0 -20
-4 -20 -10 0 -5 11 -10 25 -10 22 0 25 -4 25 -32 0 -48 -10 -78 -26 -78 -20 0
-17 -29 2 -37 10 -4 22 1 29 10 17 23 29 146 16 161 -6 7 -7 17 -2 22 14 16
21 110 8 123 -6 6 -13 10 -16 10 -4 -1 -16 -4 -28 -6z"/>
<path d="M595 1179 c-4 -6 -5 -12 -4 -14 7 -7 59 8 59 16 0 13 -47 11 -55 -2z"/>
<path d="M600 1140 c0 -5 14 -10 30 -10 17 0 30 5 30 10 0 6 -13 10 -30 10
-16 0 -30 -4 -30 -10z"/>
<path d="M608 1108 c-34 -9 -37 -12 -32 -36 9 -38 16 -43 51 -36 24 5 32 13
37 36 6 30 1 49 -12 47 -4 -1 -24 -6 -44 -11z m32 -27 c0 -13 -26 -32 -33 -24
-14 13 -6 33 13 33 11 0 20 -4 20 -9z"/>
<path d="M720 853 c0 -26 -28 -63 -48 -63 -10 0 -22 10 -27 22 -13 29 -52 39
-41 12 14 -35 11 -39 -21 -42 -21 -2 -33 -9 -33 -18 0 -16 12 -17 60 -5 19 5
50 12 68 15 30 5 33 4 27 -14 -4 -14 -2 -20 9 -20 12 0 13 -6 6 -31 -5 -18
-17 -40 -26 -50 -22 -25 -10 -37 14 -16 10 10 28 17 40 17 12 0 22 5 22 10 0
6 -4 10 -9 10 -19 0 -20 32 -1 52 22 24 26 98 4 98 -6 0 -11 8 -10 17 0 10 -7
19 -16 21 -12 2 -18 -3 -18 -15z m30 -62 c0 -27 -17 -35 -23 -11 -5 19 0 30
15 30 4 0 8 -9 8 -19z"/>
<path d="M813 843 c-31 -6 -29 -23 2 -23 26 0 31 -13 19 -57 -9 -32 -25 -29
-22 3 2 15 -3 29 -9 31 -18 7 -17 -48 2 -73 20 -26 19 -34 -5 -34 -11 0 -20
-4 -20 -10 0 -5 11 -10 25 -10 22 0 25 -4 25 -32 0 -48 -10 -78 -26 -78 -20 0
-17 -29 2 -37 10 -4 22 1 29 10 17 23 29 146 16 161 -6 7 -7 17 -2 22 14 16
21 110 8 123 -6 6 -13 10 -16 10 -4 -1 -16 -4 -28 -6z"/>
<path d="M595 729 c-4 -6 -5 -12 -4 -14 7 -7 59 8 59 16 0 13 -47 11 -55 -2z"/>
<path d="M600 690 c0 -5 14 -10 30 -10 17 0 30 5 30 10 0 6 -13 10 -30 10 -16
0 -30 -4 -30 -10z"/>
<path d="M608 658 c-34 -9 -37 -12 -32 -36 9 -38 16 -43 51 -36 24 5 32 13 37
36 6 30 1 49 -12 47 -4 -1 -24 -6 -44 -11z m32 -27 c0 -13 -26 -32 -33 -24
-14 13 -6 33 13 33 11 0 20 -4 20 -9z"/>
<path d="M706 614 c-9 -33 -5 -37 28 -28 28 7 36 24 11 24 -8 0 -15 7 -15 15
0 25 -17 17 -24 -11z"/>
<path d="M780 610 c0 -5 5 -10 10 -10 6 0 10 5 10 10 0 6 -4 10 -10 10 -5 0
-10 -4 -10 -10z"/>
<path d="M720 403 c0 -26 -28 -63 -48 -63 -10 0 -22 10 -27 22 -13 29 -52 39
-41 12 14 -35 11 -39 -21 -42 -21 -2 -33 -9 -33 -18 0 -16 12 -17 60 -5 19 5
50 12 68 15 30 5 33 4 27 -14 -4 -14 -2 -20 9 -20 12 0 13 -6 6 -31 -5 -18
-17 -40 -26 -50 -22 -25 -10 -37 14 -16 10 10 28 17 40 17 12 0 22 5 22 10 0
6 -4 10 -9 10 -19 0 -20 32 -1 52 22 24 26 98 4 98 -6 0 -11 8 -10 17 0 10 -7
19 -16 21 -12 2 -18 -3 -18 -15z m30 -62 c0 -27 -17 -35 -23 -11 -5 19 0 30
15 30 4 0 8 -9 8 -19z"/>
<path d="M813 393 c-31 -6 -29 -23 2 -23 26 0 31 -13 19 -57 -9 -32 -25 -29
-22 3 2 15 -3 29 -9 31 -18 7 -17 -48 2 -73 20 -26 19 -34 -5 -34 -11 0 -20
-4 -20 -10 0 -5 11 -10 25 -10 22 0 25 -4 25 -32 0 -48 -10 -78 -26 -78 -20 0
-17 -29 2 -37 10 -4 22 1 29 10 17 23 29 146 16 161 -6 7 -7 17 -2 22 14 16
21 110 8 123 -6 6 -13 10 -16 10 -4 -1 -16 -4 -28 -6z"/>
<path d="M595 279 c-4 -6 -5 -12 -4 -14 7 -7 59 8 59 16 0 13 -47 11 -55 -2z"/>
<path d="M600 240 c0 -5 14 -10 30 -10 17 0 30 5 30 10 0 6 -13 10 -30 10 -16
0 -30 -4 -30 -10z"/>
<path d="M608 208 c-34 -9 -37 -12 -32 -36 9 -38 16 -43 51 -36 24 5 32 13 37
36 6 30 1 49 -12 47 -4 -1 -24 -6 -44 -11z m32 -27 c0 -13 -26 -32 -33 -24
-14 13 -6 33 13 33 11 0 20 -4 20 -9z"/>
<path d="M786 178 c-7 -28 11 -49 24 -28 14 22 12 50 -4 50 -7 0 -16 -10 -20
-22z"/>
<path d="M706 164 c-9 -33 -5 -37 28 -28 28 7 36 24 11 24 -8 0 -15 7 -15 15
0 25 -17 17 -24 -11z"/>
</g>
</svg>
