<?xml version="1.0" standalone="no"?>
<!DOCTYPE svg PUBLIC "-//W3C//DTD SVG 20010904//EN"
 "http://www.w3.org/TR/2001/REC-SVG-20010904/DTD/svg10.dtd">
<svg version="1.0" xmlns="http://www.w3.org/2000/svg"
 width="50.000000pt" height="725.000000pt" viewBox="0 0 50.000000 725.000000"
 preserveAspectRatio="xMidYMid meet">
<metadata>
Created by potrace 1.16, written by Peter Selinger 2001-2019
</metadata>
<g transform="translate(0.000000,725.000000) scale(0.100000,-0.100000)"
fill="#000000" stroke="none">
<path d="M148 7107 c-53 -11 -64 -27 -19 -27 47 0 92 12 88 23 -5 15 -15 16
-69 4z"/>
<path d="M148 6657 c-53 -11 -64 -27 -19 -27 47 0 92 12 88 23 -5 15 -15 16
-69 4z"/>
<path d="M94 6574 c3 -9 9 -27 12 -40 9 -36 28 -30 20 7 -3 17 -6 35 -6 40 0
5 -7 9 -16 9 -11 0 -14 -5 -10 -16z"/>
<path d="M148 6207 c-53 -11 -64 -27 -19 -27 47 0 92 12 88 23 -5 15 -15 16
-69 4z"/>
<path d="M150 6140 c0 -5 11 -10 24 -10 19 0 22 -4 18 -25 -2 -14 0 -25 6 -25
14 0 44 49 37 60 -8 13 -85 13 -85 0z"/>
<path d="M94 6124 c3 -9 9 -27 12 -40 9 -35 28 -30 21 6 -4 17 -2 30 3 30 6 0
10 5 10 10 0 6 -12 10 -26 10 -20 0 -25 -4 -20 -16z"/>
<path d="M148 5757 c-53 -11 -64 -27 -19 -27 47 0 92 12 88 23 -5 15 -15 16
-69 4z"/>
<path d="M150 5690 c0 -5 11 -10 24 -10 19 0 23 -4 19 -20 -3 -13 -14 -20 -29
-20 -13 0 -24 -4 -24 -10 0 -5 18 -10 40 -10 32 0 40 4 40 18 0 10 5 23 11 29
6 6 8 16 5 22 -9 14 -86 15 -86 1z"/>
<path d="M94 5674 c3 -9 9 -27 12 -40 9 -35 28 -30 21 6 -4 17 -2 30 3 30 6 0
10 5 10 10 0 6 -12 10 -26 10 -20 0 -25 -4 -20 -16z"/>
<path d="M148 5307 c-53 -11 -64 -27 -19 -27 47 0 92 12 88 23 -5 15 -15 16
-69 4z"/>
<path d="M150 5240 c0 -5 11 -10 24 -10 19 0 23 -4 19 -20 -3 -13 -14 -20 -29
-20 -13 0 -24 -4 -24 -10 0 -5 18 -10 40 -10 32 0 40 4 40 18 0 10 5 23 11 29
6 6 8 16 5 22 -9 14 -86 15 -86 1z"/>
<path d="M90 5236 c0 -1 4 -16 10 -32 5 -16 14 -48 20 -71 6 -24 15 -43 20
-43 14 0 12 28 -6 80 -10 30 -12 46 -5 48 21 7 11 22 -14 22 -14 0 -25 -2 -25
-4z"/>
<path d="M148 4857 c-53 -11 -64 -27 -19 -27 47 0 92 12 88 23 -5 15 -15 16
-69 4z"/>
<path d="M150 4790 c0 -5 11 -10 24 -10 19 0 23 -4 19 -20 -3 -13 -14 -20 -29
-20 -13 0 -24 -4 -24 -10 0 -5 11 -10 24 -10 23 0 24 -2 15 -32 -11 -40 -11
-48 -1 -48 12 0 42 67 42 93 0 13 5 28 11 34 6 6 8 16 5 22 -9 14 -86 15 -86
1z"/>
<path d="M90 4786 c0 -1 4 -16 10 -32 5 -16 14 -48 20 -71 6 -24 15 -43 20
-43 14 0 12 28 -6 80 -10 30 -12 46 -5 48 21 7 11 22 -14 22 -14 0 -25 -2 -25
-4z"/>
<path d="M148 4407 c-53 -11 -64 -27 -19 -27 47 0 92 12 88 23 -5 15 -15 16
-69 4z"/>
<path d="M150 4340 c0 -5 11 -10 24 -10 19 0 23 -4 19 -20 -3 -13 -14 -20 -29
-20 -31 0 -31 -18 -1 -22 21 -3 23 -6 15 -35 -5 -18 -12 -33 -16 -33 -12 0
-43 115 -32 118 20 7 9 22 -16 22 -19 0 -25 -4 -21 -14 3 -8 11 -34 17 -58 6
-24 13 -51 16 -60 4 -14 -1 -18 -20 -18 -16 0 -26 -6 -26 -15 0 -19 25 -19 86
1 59 20 62 23 45 33 -10 7 -10 13 -2 29 6 11 11 31 11 44 0 13 5 29 11 35 6 6
8 16 5 22 -9 14 -86 15 -86 1z"/>
<path d="M148 3957 c-53 -11 -64 -27 -19 -27 47 0 92 12 88 23 -5 15 -15 16
-69 4z"/>
<path d="M273 3923 c-21 -3 -33 -10 -33 -20 0 -11 6 -14 23 -10 12 3 46 9 75
13 28 3 52 10 52 15 0 9 -54 10 -117 2z"/>
<path d="M150 3890 c0 -5 11 -10 24 -10 19 0 23 -4 19 -20 -3 -13 -14 -20 -29
-20 -31 0 -31 -18 -1 -22 21 -3 23 -6 15 -35 -5 -18 -12 -33 -16 -33 -12 0
-43 115 -32 118 20 7 9 22 -16 22 -19 0 -25 -4 -21 -14 3 -8 11 -34 17 -58 6
-24 13 -51 16 -60 4 -14 -1 -18 -20 -18 -16 0 -26 -6 -26 -15 0 -19 25 -19 86
1 59 20 62 23 45 33 -10 7 -10 13 -2 29 6 11 11 31 11 44 0 13 5 29 11 35 6 6
8 16 5 22 -9 14 -86 15 -86 1z"/>
<path d="M290 3523 c3 -47 1 -53 -25 -53 -16 0 -25 -6 -25 -16 0 -12 6 -15 24
-10 22 5 25 2 28 -26 4 -46 26 -47 30 -1 3 35 6 38 36 41 43 4 41 22 -3 22
-36 0 -36 0 -29 35 6 31 4 35 -16 35 -17 0 -21 -5 -20 -27z"/>
<path d="M148 3507 c-53 -11 -64 -27 -19 -27 47 0 92 12 88 23 -5 15 -15 16
-69 4z"/>
<path d="M150 3440 c0 -5 11 -10 24 -10 19 0 23 -4 19 -20 -3 -13 -14 -20 -29
-20 -31 0 -31 -18 -1 -22 21 -3 23 -6 15 -35 -5 -18 -12 -33 -16 -33 -12 0
-43 115 -32 118 20 7 9 22 -16 22 -19 0 -25 -4 -21 -14 3 -8 11 -34 17 -58 6
-24 13 -51 16 -60 4 -14 -1 -18 -20 -18 -16 0 -26 -6 -26 -15 0 -19 25 -19 86
1 59 20 62 23 45 33 -10 7 -10 13 -2 29 6 11 11 31 11 44 0 13 5 29 11 35 6 6
8 16 5 22 -9 14 -86 15 -86 1z"/>
<path d="M290 3073 c3 -47 1 -53 -25 -53 -16 0 -25 -6 -25 -16 0 -12 6 -15 25
-10 23 6 25 3 25 -24 0 -25 -4 -30 -25 -30 -14 0 -25 -5 -25 -11 0 -8 16 -10
50 -6 28 3 50 3 50 -1 0 -23 -55 -83 -90 -98 -42 -19 -56 -40 -17 -28 65 19
89 36 117 80 38 61 38 74 -1 74 -27 0 -30 3 -27 28 2 22 8 28 36 30 43 4 41
22 -3 22 -36 0 -36 0 -29 35 6 31 4 35 -16 35 -17 0 -21 -5 -20 -27z"/>
<path d="M148 3057 c-53 -11 -64 -27 -19 -27 47 0 92 12 88 23 -5 15 -15 16
-69 4z"/>
<path d="M150 2990 c0 -5 11 -10 24 -10 19 0 23 -4 19 -20 -3 -13 -14 -20 -29
-20 -31 0 -31 -18 -1 -22 21 -3 23 -6 15 -35 -5 -18 -12 -33 -16 -33 -12 0
-43 115 -32 118 20 7 9 22 -16 22 -19 0 -25 -4 -21 -14 3 -8 11 -34 17 -58 6
-24 13 -51 16 -60 4 -14 -1 -18 -20 -18 -16 0 -26 -6 -26 -15 0 -19 25 -19 86
1 59 20 62 23 45 33 -10 7 -10 13 -2 29 6 11 11 31 11 44 0 13 5 29 11 35 6 6
8 16 5 22 -9 14 -86 15 -86 1z"/>
<path d="M290 2623 c3 -47 1 -53 -25 -53 -16 0 -25 -6 -25 -16 0 -12 6 -15 25
-10 23 6 25 3 25 -24 0 -25 -4 -30 -25 -30 -32 0 -31 -7 6 -50 28 -33 28 -36
12 -48 -10 -8 -30 -18 -45 -24 -16 -5 -28 -14 -28 -20 0 -10 23 -5 77 18 30
12 34 11 43 -7 8 -14 21 -19 55 -19 53 0 58 14 11 30 -53 17 -60 32 -36 72 28
46 26 58 -11 58 -27 0 -30 3 -27 28 2 22 8 28 36 30 43 4 41 22 -3 22 -36 0
-36 0 -29 35 6 31 4 35 -16 35 -17 0 -21 -5 -20 -27z m50 -151 c0 -5 -6 -17
-14 -28 -15 -19 -15 -19 -30 1 -13 18 -13 21 2 27 24 9 42 9 42 0z"/>
<path d="M148 2607 c-53 -11 -64 -27 -19 -27 47 0 92 12 88 23 -5 15 -15 16
-69 4z"/>
<path d="M150 2540 c0 -5 11 -10 24 -10 19 0 23 -4 19 -20 -3 -13 -14 -20 -29
-20 -31 0 -31 -18 -1 -22 21 -3 23 -6 15 -35 -5 -18 -12 -33 -16 -33 -12 0
-43 115 -32 118 20 7 9 22 -16 22 -19 0 -25 -4 -21 -14 3 -8 11 -34 17 -58 6
-24 13 -51 16 -60 4 -14 -1 -18 -20 -18 -16 0 -26 -6 -26 -15 0 -19 25 -19 86
1 59 20 62 23 45 33 -10 7 -10 13 -2 29 6 11 11 31 11 44 0 13 5 29 11 35 6 6
8 16 5 22 -9 14 -86 15 -86 1z"/>
</g>
</svg>
