<?xml version="1.0" standalone="no"?>
<!DOCTYPE svg PUBLIC "-//W3C//DTD SVG 20010904//EN"
 "http://www.w3.org/TR/2001/REC-SVG-20010904/DTD/svg10.dtd">
<svg version="1.0" xmlns="http://www.w3.org/2000/svg"
 width="50.000000pt" height="725.000000pt" viewBox="0 0 50.000000 725.000000"
 preserveAspectRatio="xMidYMid meet">
<metadata>
Created by potrace 1.16, written by Peter Selinger 2001-2019
</metadata>
<g transform="translate(0.000000,725.000000) scale(0.100000,-0.100000)"
fill="#000000" stroke="none">
<path d="M143 7153 c-18 -2 -33 -9 -33 -15 0 -7 16 -9 46 -4 26 3 53 6 60 6 8
0 14 5 14 10 0 10 -24 11 -87 3z"/>
<path d="M143 6703 c-41 -5 -43 -23 -3 -23 20 0 30 -5 30 -15 0 -22 17 -18 23
5 3 11 12 20 21 20 9 0 16 5 16 10 0 10 -24 11 -87 3z"/>
<path d="M143 6253 c-41 -5 -43 -23 -3 -23 17 0 30 -4 30 -10 0 -5 -9 -10 -20
-10 -11 0 -20 -5 -20 -11 0 -7 14 -8 40 -4 33 6 40 4 40 -9 0 -17 19 -22 22
-6 4 29 1 35 -22 41 l-25 7 23 7 c12 4 22 11 22 16 0 9 -26 9 -87 2z"/>
<path d="M143 5803 c-41 -5 -43 -23 -3 -23 17 0 30 -4 30 -10 0 -5 -9 -10 -20
-10 -11 0 -20 -5 -20 -11 0 -7 14 -8 40 -4 26 4 40 3 40 -4 0 -6 -9 -11 -20
-11 -11 0 -20 -4 -20 -10 0 -19 49 -10 61 11 12 23 5 34 -26 42 -19 5 -19 5 3
12 12 4 22 11 22 16 0 9 -26 9 -87 2z"/>
<path d="M143 5353 c-41 -5 -43 -23 -3 -23 17 0 30 -4 30 -10 0 -5 -9 -10 -20
-10 -11 0 -20 -5 -20 -11 0 -7 14 -8 40 -4 26 4 40 3 40 -4 0 -6 -9 -11 -19
-11 -25 0 -32 -11 -24 -38 7 -28 23 -29 23 -2 0 11 7 20 15 20 18 0 40 39 28
50 -4 4 -17 10 -28 13 -19 5 -19 5 3 12 12 4 22 11 22 16 0 9 -26 9 -87 2z"/>
<path d="M145 4903 l-30 -4 0 -75 0 -76 29 6 c16 3 44 6 63 6 23 0 33 4 30 13
-2 6 -14 12 -26 11 -11 0 -21 5 -21 13 0 7 7 13 15 13 18 0 40 39 28 50 -4 4
-17 10 -28 13 -19 5 -19 5 3 12 12 4 22 11 22 16 0 9 -27 9 -85 2z m25 -33 c0
-5 -7 -10 -15 -10 -8 0 -15 5 -15 10 0 6 7 10 15 10 8 0 15 -4 15 -10z m40
-29 c0 -5 -10 -11 -22 -13 -17 -2 -22 -9 -21 -26 2 -13 -3 -22 -10 -22 -20 0
-18 58 2 63 29 8 51 7 51 -2z"/>
<path d="M145 4453 l-30 -4 0 -75 0 -76 29 6 c16 3 44 6 63 6 23 0 33 4 30 13
-2 6 -14 12 -26 11 -11 0 -21 5 -21 13 0 7 7 13 15 13 18 0 40 39 28 50 -4 4
-17 10 -28 13 -19 5 -19 5 3 12 12 4 22 11 22 16 0 9 -27 9 -85 2z m25 -33 c0
-5 -7 -10 -15 -10 -8 0 -15 5 -15 10 0 6 7 10 15 10 8 0 15 -4 15 -10z m40
-29 c0 -5 -10 -11 -22 -13 -17 -2 -22 -9 -21 -26 2 -13 -3 -22 -10 -22 -20 0
-18 58 2 63 29 8 51 7 51 -2z"/>
<path d="M283 4447 c-41 -14 -43 -32 -3 -23 40 7 40 -12 0 -54 -33 -35 -33
-46 -1 -35 26 8 75 90 67 110 -6 17 -16 17 -63 2z"/>
<path d="M145 4003 l-30 -4 0 -75 0 -76 29 6 c16 3 44 6 63 6 23 0 33 4 30 13
-2 6 -14 12 -26 11 -11 0 -21 5 -21 13 0 7 7 13 15 13 18 0 40 39 28 50 -4 4
-17 10 -28 13 -19 5 -19 5 3 12 12 4 22 11 22 16 0 9 -27 9 -85 2z m25 -33 c0
-5 -7 -10 -15 -10 -8 0 -15 5 -15 10 0 6 7 10 15 10 8 0 15 -4 15 -10z m40
-29 c0 -5 -10 -11 -22 -13 -17 -2 -22 -9 -21 -26 2 -13 -3 -22 -10 -22 -20 0
-18 58 2 63 29 8 51 7 51 -2z"/>
<path d="M283 3997 c-38 -13 -41 -26 -12 -53 l21 -19 -23 -18 c-27 -22 -18
-34 15 -19 19 9 27 8 36 -4 13 -15 90 -20 90 -5 0 4 -20 16 -45 25 l-45 18 16
30 c17 32 13 59 -8 57 -7 -1 -28 -7 -45 -12z m27 -32 c0 -8 -4 -15 -9 -15 -13
0 -22 16 -14 24 11 11 23 6 23 -9z"/>
<path d="M145 3553 l-30 -4 0 -75 0 -76 29 6 c16 3 44 6 63 6 23 0 33 4 30 13
-2 6 -14 12 -26 11 -11 0 -21 5 -21 13 0 7 7 13 15 13 18 0 40 39 28 50 -4 4
-17 10 -28 13 -19 5 -19 5 3 12 12 4 22 11 22 16 0 9 -27 9 -85 2z m25 -33 c0
-5 -7 -10 -15 -10 -8 0 -15 5 -15 10 0 6 7 10 15 10 8 0 15 -4 15 -10z m40
-29 c0 -5 -10 -11 -22 -13 -17 -2 -22 -9 -21 -26 2 -13 -3 -22 -10 -22 -20 0
-18 58 2 63 29 8 51 7 51 -2z"/>
<path d="M283 3547 c-38 -13 -41 -26 -12 -53 l21 -19 -23 -18 c-27 -22 -18
-34 15 -19 19 9 27 8 36 -4 13 -15 90 -20 90 -5 0 4 -20 16 -45 25 l-45 18 16
30 c17 32 13 59 -8 57 -7 -1 -28 -7 -45 -12z m27 -32 c0 -8 -4 -15 -9 -15 -13
0 -22 16 -14 24 11 11 23 6 23 -9z"/>
<path d="M208 3403 c-41 -5 -53 -23 -14 -23 46 0 116 13 116 21 0 9 -30 9
-102 2z"/>
<path d="M145 3103 l-30 -4 0 -75 0 -76 29 6 c16 3 44 6 63 6 23 0 33 4 30 13
-2 6 -14 12 -26 11 -11 0 -21 5 -21 13 0 7 7 13 15 13 18 0 40 39 28 50 -4 4
-17 10 -28 13 -19 5 -19 5 3 12 12 4 22 11 22 16 0 9 -27 9 -85 2z m25 -33 c0
-5 -7 -10 -15 -10 -8 0 -15 5 -15 10 0 6 7 10 15 10 8 0 15 -4 15 -10z m40
-29 c0 -5 -10 -11 -22 -13 -17 -2 -22 -9 -21 -26 2 -13 -3 -22 -10 -22 -20 0
-18 58 2 63 29 8 51 7 51 -2z"/>
<path d="M283 3097 c-38 -13 -41 -26 -12 -53 l21 -19 -23 -18 c-27 -22 -18
-34 15 -19 19 9 27 8 36 -4 13 -15 90 -20 90 -5 0 4 -20 16 -45 25 l-45 18 16
30 c17 32 13 59 -8 57 -7 -1 -28 -7 -45 -12z m27 -32 c0 -8 -4 -15 -9 -15 -13
0 -22 16 -14 24 11 11 23 6 23 -9z"/>
<path d="M208 2953 c-41 -5 -53 -23 -14 -23 46 0 116 13 116 21 0 9 -30 9
-102 2z"/>
<path d="M150 2905 c0 -12 24 -55 32 -55 9 0 10 7 2 38 -4 12 -13 22 -20 22
-8 0 -14 -2 -14 -5z"/>
<path d="M145 2653 l-30 -4 0 -75 0 -76 29 6 c16 3 44 6 63 6 23 0 33 4 30 13
-2 6 -14 12 -26 11 -11 0 -21 5 -21 13 0 7 7 13 15 13 18 0 40 39 28 50 -4 4
-17 10 -28 13 -19 5 -19 5 3 12 12 4 22 11 22 16 0 9 -27 9 -85 2z m25 -33 c0
-5 -7 -10 -15 -10 -8 0 -15 5 -15 10 0 6 7 10 15 10 8 0 15 -4 15 -10z m40
-29 c0 -5 -10 -11 -22 -13 -17 -2 -22 -9 -21 -26 2 -13 -3 -22 -10 -22 -20 0
-18 58 2 63 29 8 51 7 51 -2z"/>
<path d="M283 2647 c-38 -13 -41 -26 -12 -53 l21 -19 -23 -18 c-27 -22 -18
-34 15 -19 19 9 27 8 36 -4 13 -15 90 -20 90 -5 0 4 -20 16 -45 25 l-45 18 16
30 c17 32 13 59 -8 57 -7 -1 -28 -7 -45 -12z m27 -32 c0 -8 -4 -15 -9 -15 -13
0 -22 16 -14 24 11 11 23 6 23 -9z"/>
<path d="M208 2503 c-41 -5 -53 -23 -14 -23 46 0 116 13 116 21 0 9 -30 9
-102 2z"/>
<path d="M248 2473 c-27 -2 -48 -9 -48 -15 0 -6 20 -9 50 -6 43 3 50 0 50 -15
0 -22 19 -18 34 6 8 13 7 20 -4 27 -8 5 -19 9 -25 8 -5 -1 -31 -3 -57 -5z"/>
<path d="M150 2455 c0 -12 24 -55 31 -55 4 0 7 14 7 30 -1 22 -6 30 -20 30
-10 0 -18 -2 -18 -5z"/>
<path d="M145 2203 l-30 -4 0 -75 0 -76 29 6 c16 3 44 6 63 6 23 0 33 4 30 13
-2 6 -14 12 -26 11 -11 0 -21 5 -21 13 0 7 7 13 15 13 18 0 40 39 28 50 -4 4
-17 10 -28 13 -19 5 -19 5 3 12 12 4 22 11 22 16 0 9 -27 9 -85 2z m25 -33 c0
-5 -7 -10 -15 -10 -8 0 -15 5 -15 10 0 6 7 10 15 10 8 0 15 -4 15 -10z m40
-29 c0 -5 -10 -11 -22 -13 -17 -2 -22 -9 -21 -26 2 -13 -3 -22 -10 -22 -20 0
-18 58 2 63 29 8 51 7 51 -2z"/>
<path d="M283 2197 c-38 -13 -41 -26 -12 -53 l21 -19 -23 -18 c-27 -22 -18
-34 15 -19 19 9 27 8 36 -4 13 -15 90 -20 90 -5 0 4 -20 16 -45 25 l-45 18 16
30 c17 32 13 59 -8 57 -7 -1 -28 -7 -45 -12z m27 -32 c0 -8 -4 -15 -9 -15 -13
0 -22 16 -14 24 11 11 23 6 23 -9z"/>
<path d="M208 2053 c-41 -5 -53 -23 -14 -23 46 0 116 13 116 21 0 9 -30 9
-102 2z"/>
<path d="M248 2023 c-27 -2 -48 -9 -48 -15 0 -6 20 -9 50 -6 35 2 50 -1 50 -9
0 -7 -9 -13 -20 -13 -11 0 -20 -4 -20 -10 0 -5 13 -10 28 -10 36 0 66 45 42
60 -8 6 -19 9 -25 8 -5 -1 -31 -3 -57 -5z"/>
<path d="M150 2005 c0 -2 5 -16 12 -30 9 -20 18 -25 50 -25 46 0 51 17 6 22
-25 2 -32 7 -30 21 2 11 -4 17 -18 17 -11 0 -20 -2 -20 -5z"/>
<path d="M145 1753 l-30 -4 0 -75 0 -76 29 6 c16 3 44 6 63 6 23 0 33 4 30 13
-2 6 -14 12 -26 11 -11 0 -21 5 -21 13 0 7 7 13 15 13 18 0 40 39 28 50 -4 4
-17 10 -28 13 -19 5 -19 5 3 12 12 4 22 11 22 16 0 9 -27 9 -85 2z m25 -33 c0
-5 -7 -10 -15 -10 -8 0 -15 5 -15 10 0 6 7 10 15 10 8 0 15 -4 15 -10z m40
-29 c0 -5 -10 -11 -22 -13 -17 -2 -22 -9 -21 -26 2 -13 -3 -22 -10 -22 -20 0
-18 58 2 63 29 8 51 7 51 -2z"/>
<path d="M283 1747 c-38 -13 -41 -26 -12 -53 l21 -19 -23 -18 c-27 -22 -18
-34 15 -19 19 9 27 8 36 -4 13 -15 90 -20 90 -5 0 4 -20 16 -45 25 l-45 18 16
30 c17 32 13 59 -8 57 -7 -1 -28 -7 -45 -12z m27 -32 c0 -8 -4 -15 -9 -15 -13
0 -22 16 -14 24 11 11 23 6 23 -9z"/>
<path d="M208 1603 c-41 -5 -53 -23 -14 -23 46 0 116 13 116 21 0 9 -30 9
-102 2z"/>
<path d="M248 1573 c-27 -2 -48 -9 -48 -15 0 -6 20 -9 50 -6 35 2 50 -1 50 -9
0 -7 -9 -13 -20 -13 -11 0 -20 -4 -20 -10 0 -5 13 -10 28 -10 36 0 66 45 42
60 -8 6 -19 9 -25 8 -5 -1 -31 -3 -57 -5z"/>
<path d="M150 1555 c0 -3 11 -28 25 -55 27 -53 51 -67 43 -25 -4 19 -1 25 13
25 32 0 21 19 -13 22 -25 2 -32 7 -30 21 2 11 -4 17 -18 17 -11 0 -20 -2 -20
-5z"/>
<path d="M145 1303 l-30 -4 0 -75 0 -76 29 6 c16 3 44 6 63 6 23 0 33 4 30 13
-2 6 -14 12 -26 11 -11 0 -21 5 -21 13 0 7 7 13 15 13 18 0 40 39 28 50 -4 4
-17 10 -28 13 -19 5 -19 5 3 12 12 4 22 11 22 16 0 9 -27 9 -85 2z m25 -33 c0
-5 -7 -10 -15 -10 -8 0 -15 5 -15 10 0 6 7 10 15 10 8 0 15 -4 15 -10z m40
-29 c0 -5 -10 -11 -22 -13 -17 -2 -22 -9 -21 -26 2 -13 -3 -22 -10 -22 -20 0
-18 58 2 63 29 8 51 7 51 -2z"/>
<path d="M283 1297 c-38 -13 -41 -26 -12 -53 l21 -19 -23 -18 c-27 -22 -18
-34 15 -19 19 9 27 8 36 -4 13 -15 90 -20 90 -5 0 4 -20 16 -45 25 l-45 18 16
30 c17 32 13 59 -8 57 -7 -1 -28 -7 -45 -12z m27 -32 c0 -8 -4 -15 -9 -15 -13
0 -22 16 -14 24 11 11 23 6 23 -9z"/>
<path d="M208 1153 c-41 -5 -53 -23 -14 -23 46 0 116 13 116 21 0 9 -30 9
-102 2z"/>
<path d="M248 1123 c-27 -2 -48 -9 -48 -15 0 -6 20 -9 50 -6 35 2 50 -1 50 -9
0 -7 -9 -13 -20 -13 -21 0 -28 -16 -9 -22 9 -3 9 -10 0 -27 -7 -12 -10 -25 -7
-28 10 -10 34 18 57 64 18 37 19 47 8 54 -8 5 -18 8 -24 7 -5 -1 -31 -3 -57
-5z"/>
<path d="M150 1105 c0 -3 11 -28 25 -55 27 -53 51 -67 43 -25 -4 19 -1 25 13
25 32 0 21 19 -13 22 -25 2 -32 7 -30 21 2 11 -4 17 -18 17 -11 0 -20 -2 -20
-5z"/>
<path d="M145 853 l-30 -4 0 -75 0 -76 29 6 c16 3 44 6 63 6 23 0 33 4 30 13
-2 6 -14 12 -26 11 -11 0 -21 5 -21 13 0 7 7 13 15 13 18 0 40 39 28 50 -4 4
-17 10 -28 13 -19 5 -19 5 3 12 12 4 22 11 22 16 0 9 -27 9 -85 2z m25 -33 c0
-5 -7 -10 -15 -10 -8 0 -15 5 -15 10 0 6 7 10 15 10 8 0 15 -4 15 -10z m40
-29 c0 -5 -10 -11 -22 -13 -17 -2 -22 -9 -21 -26 2 -13 -3 -22 -10 -22 -20 0
-18 58 2 63 29 8 51 7 51 -2z"/>
<path d="M283 847 c-38 -13 -41 -26 -12 -53 l21 -19 -23 -18 c-27 -22 -18 -34
15 -19 19 9 27 8 36 -4 13 -15 90 -20 90 -5 0 4 -20 16 -45 25 l-45 18 16 30
c17 32 13 59 -8 57 -7 -1 -28 -7 -45 -12z m27 -32 c0 -8 -4 -15 -9 -15 -13 0
-22 16 -14 24 11 11 23 6 23 -9z"/>
<path d="M208 703 c-41 -5 -53 -23 -14 -23 46 0 116 13 116 21 0 9 -30 9 -102
2z"/>
<path d="M248 673 c-27 -2 -48 -9 -48 -15 0 -6 20 -9 50 -6 35 2 50 -1 50 -9
0 -7 -9 -13 -20 -13 -21 0 -28 -16 -9 -22 19 -6 -8 -48 -30 -48 -10 0 -21 9
-24 20 -4 15 0 20 14 20 32 0 21 19 -13 22 -25 2 -32 7 -30 21 2 11 -4 17 -18
17 -25 0 -25 -1 1 -52 24 -47 17 -58 -38 -58 -18 0 -33 -5 -33 -11 0 -8 18
-10 61 -5 34 3 102 6 151 6 67 0 89 3 85 13 -3 8 -22 12 -54 11 l-51 -2 26 50
c21 42 23 51 11 59 -8 5 -18 8 -24 7 -5 -1 -31 -3 -57 -5z"/>
</g>
</svg>
