<?xml version="1.0" standalone="no"?>
<!DOCTYPE svg PUBLIC "-//W3C//DTD SVG 20010904//EN"
 "http://www.w3.org/TR/2001/REC-SVG-20010904/DTD/svg10.dtd">
<svg version="1.0" xmlns="http://www.w3.org/2000/svg"
 width="50.000000pt" height="725.000000pt" viewBox="0 0 50.000000 725.000000"
 preserveAspectRatio="xMidYMid meet">
<metadata>
Created by potrace 1.16, written by Peter Selinger 2001-2019
</metadata>
<g transform="translate(0.000000,725.000000) scale(0.100000,-0.100000)"
fill="#000000" stroke="none">
<path d="M108 7078 c4 -50 -8 -141 -24 -182 -5 -14 -3 -17 7 -14 21 7 36 62
42 161 5 79 4 87 -12 87 -15 0 -17 -7 -13 -52z"/>
<path d="M134 6683 c-30 -4 -31 -4 -26 -56 4 -49 -8 -140 -23 -179 -10 -26 12
-22 26 3 6 12 15 62 19 111 5 59 12 93 21 99 24 14 30 -17 23 -116 -5 -73 -10
-95 -21 -95 -18 0 -12 -20 10 -34 28 -18 37 9 39 127 1 59 2 115 2 125 1 18
-17 22 -70 15z"/>
<path d="M134 6233 c-30 -4 -31 -4 -26 -56 4 -49 -8 -140 -24 -181 -5 -14 -3
-17 7 -14 19 6 38 64 38 120 1 47 1 47 26 36 16 -7 24 -17 20 -26 -3 -7 -5
-36 -5 -63 0 -38 -4 -49 -16 -49 -19 0 -14 -20 9 -34 28 -18 37 9 39 127 1 59
2 115 2 125 1 18 -17 22 -70 15z m46 -57 c0 -12 -5 -16 -16 -12 -9 3 -20 6
-25 6 -10 0 1 32 15 42 13 8 26 -10 26 -36z"/>
<path d="M134 5783 c-30 -4 -31 -4 -26 -56 4 -49 -8 -140 -24 -181 -5 -14 -3
-17 7 -14 8 2 19 19 25 36 5 18 20 39 32 48 22 15 22 14 22 -25 0 -31 -4 -41
-16 -41 -19 0 -14 -20 9 -34 28 -18 37 9 39 127 1 59 2 115 2 125 1 18 -17 22
-70 15z m46 -57 c0 -12 -5 -16 -16 -12 -9 3 -20 6 -25 6 -10 0 1 32 15 42 13
8 26 -10 26 -36z m-6 -57 c-3 -5 -14 -14 -25 -19 -17 -10 -19 -7 -19 19 0 29
1 30 25 19 13 -6 22 -15 19 -19z"/>
<path d="M288 5337 c-63 -11 -78 -27 -25 -27 58 0 107 12 107 26 0 15 -1 15
-82 1z"/>
<path d="M134 5333 c-30 -4 -31 -4 -26 -56 4 -49 -8 -140 -24 -181 -5 -14 -3
-17 7 -14 8 2 19 19 25 36 5 18 20 39 32 48 22 15 22 14 22 -25 0 -31 -4 -41
-16 -41 -19 0 -14 -20 9 -34 28 -18 37 9 39 127 1 59 2 115 2 125 1 18 -17 22
-70 15z m46 -57 c0 -12 -5 -16 -16 -12 -9 3 -20 6 -25 6 -10 0 1 32 15 42 13
8 26 -10 26 -36z m-6 -57 c-3 -5 -14 -14 -25 -19 -17 -10 -19 -7 -19 19 0 29
1 30 25 19 13 -6 22 -15 19 -19z"/>
<path d="M288 4887 c-60 -11 -79 -27 -31 -27 l27 0 -29 -30 c-32 -34 -28 -51
7 -27 44 31 58 44 58 56 0 6 11 11 25 11 16 0 25 6 25 15 0 16 0 16 -82 2z"/>
<path d="M134 4883 c-30 -4 -31 -4 -26 -56 4 -49 -8 -140 -24 -181 -5 -14 -3
-17 7 -14 8 2 19 19 25 36 5 18 20 39 32 48 22 15 22 14 22 -25 0 -31 -4 -41
-16 -41 -19 0 -14 -20 9 -34 28 -18 37 9 39 127 1 59 2 115 2 125 1 18 -17 22
-70 15z m46 -57 c0 -12 -5 -16 -16 -12 -9 3 -20 6 -25 6 -10 0 1 32 15 42 13
8 26 -10 26 -36z m-6 -57 c-3 -5 -14 -14 -25 -19 -17 -10 -19 -7 -19 19 0 29
1 30 25 19 13 -6 22 -15 19 -19z"/>
<path d="M288 4437 c-60 -11 -79 -27 -31 -27 l27 0 -27 -28 c-32 -33 -34 -46
-8 -37 38 12 71 -71 51 -130 -9 -29 -16 -35 -31 -30 -24 8 -25 -7 -1 -28 23
-21 27 -21 46 -1 34 34 12 203 -27 204 -6 1 -2 9 11 19 12 11 22 24 22 30 0 6
11 11 25 11 16 0 25 6 25 15 0 16 0 16 -82 2z"/>
<path d="M134 4433 c-30 -4 -31 -4 -26 -56 4 -49 -8 -140 -24 -181 -5 -14 -3
-17 7 -14 8 2 19 19 25 36 5 18 20 39 32 48 22 15 22 14 22 -25 0 -31 -4 -41
-16 -41 -19 0 -14 -20 9 -34 28 -18 37 9 39 127 1 59 2 115 2 125 1 18 -17 22
-70 15z m46 -57 c0 -12 -5 -16 -16 -12 -9 3 -20 6 -25 6 -10 0 1 32 15 42 13
8 26 -10 26 -36z m-6 -57 c-3 -5 -14 -14 -25 -19 -17 -10 -19 -7 -19 19 0 29
1 30 25 19 13 -6 22 -15 19 -19z"/>
<path d="M288 3987 c-60 -11 -79 -27 -31 -27 l27 0 -27 -28 c-32 -33 -34 -46
-7 -37 26 8 25 -3 -2 -32 -27 -29 -17 -41 16 -19 14 9 27 16 30 16 12 0 16
-64 6 -95 -9 -29 -16 -35 -31 -30 -24 8 -25 -7 -1 -28 23 -21 27 -21 46 -1 34
34 12 203 -27 204 -6 1 -2 9 11 19 12 11 22 24 22 30 0 6 11 11 25 11 16 0 25
6 25 15 0 16 0 16 -82 2z"/>
<path d="M134 3983 c-30 -4 -31 -4 -26 -56 4 -49 -8 -140 -24 -181 -5 -14 -3
-17 7 -14 8 2 19 19 25 36 5 18 20 39 32 48 22 15 22 14 22 -25 0 -31 -4 -41
-16 -41 -19 0 -14 -20 9 -34 28 -18 37 9 39 127 1 59 2 115 2 125 1 18 -17 22
-70 15z m46 -57 c0 -12 -5 -16 -16 -12 -9 3 -20 6 -25 6 -10 0 1 32 15 42 13
8 26 -10 26 -36z m-6 -57 c-3 -5 -14 -14 -25 -19 -17 -10 -19 -7 -19 19 0 29
1 30 25 19 13 -6 22 -15 19 -19z"/>
<path d="M288 3537 c-60 -11 -79 -27 -31 -27 l27 0 -27 -28 c-32 -33 -34 -46
-7 -37 26 8 25 -3 -2 -32 -27 -29 -17 -41 18 -19 43 29 37 12 -12 -33 -25 -24
-43 -45 -41 -48 7 -6 47 15 75 40 26 24 29 11 11 -42 -9 -25 -15 -30 -30 -26
-24 8 -24 -7 -1 -28 23 -21 27 -21 46 -1 34 34 12 203 -27 204 -6 1 -2 9 11
19 12 11 22 24 22 30 0 6 11 11 25 11 16 0 25 6 25 15 0 16 0 16 -82 2z"/>
<path d="M134 3533 c-30 -4 -31 -4 -26 -56 4 -49 -8 -140 -24 -181 -5 -14 -3
-17 7 -14 8 2 19 19 25 36 5 18 20 39 32 48 22 15 22 14 22 -25 0 -31 -4 -41
-16 -41 -19 0 -14 -20 9 -34 28 -18 37 9 39 127 1 59 2 115 2 125 1 18 -17 22
-70 15z m46 -57 c0 -12 -5 -16 -16 -12 -9 3 -20 6 -25 6 -10 0 1 32 15 42 13
8 26 -10 26 -36z m-6 -57 c-3 -5 -14 -14 -25 -19 -17 -10 -19 -7 -19 19 0 29
1 30 25 19 13 -6 22 -15 19 -19z"/>
<path d="M288 3087 c-60 -11 -79 -27 -31 -27 l27 0 -27 -28 c-32 -33 -34 -46
-7 -37 26 8 25 -3 -2 -32 -27 -29 -17 -41 18 -19 43 29 37 12 -12 -33 -25 -24
-43 -45 -41 -48 7 -6 47 15 75 40 26 24 29 11 11 -42 -9 -25 -15 -30 -30 -26
-24 8 -24 -7 -1 -28 23 -21 27 -21 46 -1 12 11 16 35 16 84 0 64 2 70 31 94
17 14 27 30 24 36 -7 12 -35 14 -35 3 0 -5 -7 -16 -15 -26 -13 -18 -14 -18
-34 2 -21 21 -21 21 -1 33 11 7 20 18 20 25 0 7 11 13 25 13 16 0 25 6 25 15
0 16 0 16 -82 2z"/>
<path d="M134 3083 c-30 -4 -31 -4 -26 -56 4 -49 -8 -140 -24 -181 -5 -14 -3
-17 7 -14 8 2 19 19 25 36 5 18 20 39 32 48 22 15 22 14 22 -25 0 -31 -4 -41
-16 -41 -19 0 -14 -20 9 -34 28 -18 37 9 39 127 1 59 2 115 2 125 1 18 -17 22
-70 15z m46 -57 c0 -12 -5 -16 -16 -12 -9 3 -20 6 -25 6 -10 0 1 32 15 42 13
8 26 -10 26 -36z m-6 -57 c-3 -5 -14 -14 -25 -19 -17 -10 -19 -7 -19 19 0 29
1 30 25 19 13 -6 22 -15 19 -19z"/>
<path d="M288 2637 c-60 -11 -79 -27 -31 -27 l27 0 -27 -28 c-32 -33 -34 -46
-7 -37 26 8 25 -3 -2 -32 -27 -29 -17 -41 18 -19 43 29 37 12 -12 -33 -25 -24
-43 -45 -41 -48 7 -6 47 15 75 40 26 24 29 11 11 -42 -9 -25 -15 -30 -30 -26
-24 8 -24 -7 -1 -28 23 -21 27 -21 46 -1 10 10 16 34 16 67 l1 52 22 -27 c15
-18 32 -28 50 -28 35 0 35 16 -1 34 -15 8 -36 24 -47 36 l-20 22 28 24 c16 13
25 29 22 34 -7 12 -35 14 -35 3 0 -5 -7 -16 -15 -26 -13 -18 -14 -18 -34 2
-21 21 -21 21 -1 33 11 7 20 18 20 25 0 7 11 13 25 13 16 0 25 6 25 15 0 16 0
16 -82 2z"/>
<path d="M134 2633 c-30 -4 -31 -4 -26 -56 4 -49 -8 -140 -24 -181 -5 -14 -3
-17 7 -14 8 2 19 19 25 36 5 18 20 39 32 48 22 15 22 14 22 -25 0 -31 -4 -41
-16 -41 -19 0 -14 -20 9 -34 28 -18 37 9 39 127 1 59 2 115 2 125 1 18 -17 22
-70 15z m46 -57 c0 -12 -5 -16 -16 -12 -9 3 -20 6 -25 6 -10 0 1 32 15 42 13
8 26 -10 26 -36z m-6 -57 c-3 -5 -14 -14 -25 -19 -17 -10 -19 -7 -19 19 0 29
1 30 25 19 13 -6 22 -15 19 -19z"/>
</g>
</svg>
