<?xml version="1.0" standalone="no"?>
<!DOCTYPE svg PUBLIC "-//W3C//DTD SVG 20010904//EN"
 "http://www.w3.org/TR/2001/REC-SVG-20010904/DTD/svg10.dtd">
<svg version="1.0" xmlns="http://www.w3.org/2000/svg"
 width="50.000000pt" height="725.000000pt" viewBox="0 0 50.000000 725.000000"
 preserveAspectRatio="xMidYMid meet">
<metadata>
Created by potrace 1.16, written by Peter Selinger 2001-2019
</metadata>
<g transform="translate(0.000000,725.000000) scale(0.100000,-0.100000)"
fill="#000000" stroke="none">
<path d="M103 7040 c-3 -98 12 -122 22 -37 8 63 4 119 -10 124 -6 2 -11 -33
-12 -87z"/>
<path d="M103 6588 c-2 -48 1 -88 6 -88 8 0 14 34 24 135 1 11 10 21 20 23 15
3 17 -6 17 -82 0 -70 3 -86 15 -86 12 0 15 16 17 80 0 44 1 86 2 93 1 8 -16
12 -49 13 l-50 1 -2 -89z"/>
<path d="M103 6138 c-2 -48 1 -88 6 -88 8 0 14 34 24 135 3 28 37 33 37 6 0
-12 -6 -21 -15 -21 -8 0 -15 -4 -15 -10 0 -5 7 -10 15 -10 12 0 15 -13 15 -55
0 -42 3 -55 15 -55 12 0 15 16 17 80 0 44 1 86 2 93 1 8 -16 12 -49 13 l-50 1
-2 -89z"/>
<path d="M103 5688 c-2 -48 1 -88 7 -88 5 0 10 10 12 23 2 14 11 23 26 25 19
3 22 -1 22 -27 0 -21 5 -31 15 -31 12 0 15 16 17 80 0 44 1 86 2 93 1 8 -16
12 -49 13 l-50 1 -2 -89z m67 52 c0 -11 -7 -20 -15 -20 -8 0 -15 -4 -15 -10 0
-5 7 -10 15 -10 8 0 15 -7 15 -15 0 -8 -9 -15 -20 -15 -17 0 -20 7 -20 38 0
21 3 42 7 45 13 14 33 6 33 -13z"/>
<path d="M103 5240 l-3 -87 48 -6 c26 -3 48 -4 49 -4 0 1 3 43 4 92 l3 90 -49
1 -50 1 -2 -87z m67 50 c0 -11 -7 -20 -15 -20 -8 0 -15 -4 -15 -10 0 -5 7 -10
15 -10 8 0 15 -7 15 -15 0 -8 -9 -15 -20 -15 -17 0 -20 7 -20 38 0 21 3 42 7
45 13 14 33 6 33 -13z m0 -105 c0 -9 -9 -15 -25 -15 -24 0 -32 10 -18 23 12
13 43 7 43 -8z"/>
<path d="M103 4791 c-2 -54 2 -88 9 -92 7 -5 4 -17 -12 -39 -12 -17 -19 -34
-16 -37 8 -9 66 47 66 64 0 9 8 11 25 7 l25 -6 2 81 c0 45 1 87 2 94 1 8 -16
12 -49 13 l-50 1 -2 -86z m67 49 c0 -11 -7 -20 -15 -20 -8 0 -15 -4 -15 -10 0
-5 7 -10 15 -10 8 0 15 -7 15 -15 0 -8 -9 -15 -20 -15 -17 0 -20 7 -20 38 0
21 3 42 7 45 13 14 33 6 33 -13z m0 -105 c0 -9 -9 -15 -25 -15 -24 0 -32 10
-18 23 12 13 43 7 43 -8z"/>
<path d="M103 4341 c-2 -54 2 -88 9 -92 7 -5 4 -17 -12 -39 -12 -17 -19 -34
-16 -37 8 -9 66 47 66 64 0 7 5 13 11 13 5 0 7 -5 4 -10 -10 -16 5 -50 21 -50
17 0 19 26 3 36 -7 4 -8 9 -1 13 6 3 12 47 13 96 l3 90 -49 1 -50 1 -2 -86z
m67 49 c0 -11 -7 -20 -15 -20 -8 0 -15 -4 -15 -10 0 -5 7 -10 15 -10 8 0 15
-7 15 -15 0 -8 -9 -15 -20 -15 -17 0 -20 7 -20 38 0 21 3 42 7 45 13 14 33 6
33 -13z m0 -105 c0 -9 -9 -15 -25 -15 -24 0 -32 10 -18 23 12 13 43 7 43 -8z"/>
<path d="M103 3891 c-2 -54 2 -88 9 -92 7 -5 4 -17 -12 -39 -12 -17 -19 -34
-16 -37 8 -9 66 47 66 64 0 7 5 13 11 13 5 0 7 -5 4 -10 -10 -16 5 -50 21 -50
17 0 19 26 3 36 -7 4 -8 9 -1 13 6 3 12 47 13 96 l3 90 -49 1 -50 1 -2 -86z
m67 49 c0 -11 -7 -20 -15 -20 -8 0 -15 -4 -15 -10 0 -5 7 -10 15 -10 8 0 15
-7 15 -15 0 -8 -9 -15 -20 -15 -17 0 -20 7 -20 38 0 21 3 42 7 45 13 14 33 6
33 -13z m0 -105 c0 -9 -9 -15 -25 -15 -24 0 -32 10 -18 23 12 13 43 7 43 -8z"/>
<path d="M253 3943 c-36 -7 -27 -23 13 -23 23 0 34 4 32 12 -5 14 -15 17 -45
11z"/>
<path d="M103 3441 c-2 -54 2 -88 9 -92 7 -5 4 -17 -12 -39 -12 -17 -19 -34
-16 -37 8 -9 66 47 66 64 0 7 5 13 11 13 5 0 7 -5 4 -10 -10 -16 5 -50 21 -50
17 0 19 26 3 36 -7 4 -8 9 -1 13 6 3 12 47 13 96 l3 90 -49 1 -50 1 -2 -86z
m67 49 c0 -11 -7 -20 -15 -20 -8 0 -15 -4 -15 -10 0 -5 7 -10 15 -10 8 0 15
-7 15 -15 0 -8 -9 -15 -20 -15 -17 0 -20 7 -20 38 0 21 3 42 7 45 13 14 33 6
33 -13z m0 -105 c0 -9 -9 -15 -25 -15 -24 0 -32 10 -18 23 12 13 43 7 43 -8z"/>
<path d="M253 3493 c-36 -7 -27 -23 13 -23 23 0 34 4 32 12 -5 14 -15 17 -45
11z"/>
<path d="M278 3447 c-48 -7 -68 -14 -68 -25 0 -10 7 -13 23 -8 12 3 55 11 95
17 39 6 72 15 72 20 0 11 -31 10 -122 -4z"/>
<path d="M103 2991 c-2 -54 2 -88 9 -92 7 -5 4 -17 -12 -39 -12 -17 -19 -34
-16 -37 8 -9 66 47 66 64 0 7 5 13 11 13 5 0 7 -5 4 -10 -10 -16 5 -50 21 -50
17 0 19 26 3 36 -7 4 -8 9 -1 13 6 3 12 47 13 96 l3 90 -49 1 -50 1 -2 -86z
m67 49 c0 -11 -7 -20 -15 -20 -8 0 -15 -4 -15 -10 0 -5 7 -10 15 -10 8 0 15
-7 15 -15 0 -8 -9 -15 -20 -15 -17 0 -20 7 -20 38 0 21 3 42 7 45 13 14 33 6
33 -13z m0 -105 c0 -9 -9 -15 -25 -15 -24 0 -32 10 -18 23 12 13 43 7 43 -8z"/>
<path d="M253 3043 c-36 -7 -27 -23 13 -23 23 0 34 4 32 12 -5 14 -15 17 -45
11z"/>
<path d="M278 2997 c-48 -7 -68 -14 -68 -25 0 -10 7 -12 25 -8 24 6 25 5 25
-44 0 -27 5 -50 10 -50 6 0 10 24 10 54 l0 53 60 7 c33 4 60 11 60 16 0 12
-30 11 -122 -3z"/>
<path d="M103 2541 c-2 -54 2 -88 9 -92 7 -5 4 -17 -12 -39 -12 -17 -19 -34
-16 -37 8 -9 66 47 66 64 0 7 5 13 11 13 5 0 7 -5 4 -10 -10 -16 5 -50 21 -50
17 0 19 26 3 36 -7 4 -8 9 -1 13 6 3 12 47 13 96 l3 90 -49 1 -50 1 -2 -86z
m67 49 c0 -11 -7 -20 -15 -20 -8 0 -15 -4 -15 -10 0 -5 7 -10 15 -10 8 0 15
-7 15 -15 0 -8 -9 -15 -20 -15 -17 0 -20 7 -20 38 0 21 3 42 7 45 13 14 33 6
33 -13z m0 -105 c0 -9 -9 -15 -25 -15 -24 0 -32 10 -18 23 12 13 43 7 43 -8z"/>
<path d="M253 2593 c-36 -7 -27 -23 13 -23 23 0 34 4 32 12 -5 14 -15 17 -45
11z"/>
<path d="M278 2547 c-48 -7 -68 -14 -68 -25 0 -10 7 -12 25 -8 24 6 25 5 25
-44 0 -27 5 -50 10 -50 6 0 10 11 10 25 0 18 5 25 20 25 11 0 20 5 20 10 0 6
-9 10 -20 10 -13 0 -20 7 -20 19 0 15 10 20 60 25 33 4 60 11 60 16 0 12 -30
11 -122 -3z"/>
<path d="M103 2091 c-2 -54 2 -88 9 -92 7 -5 4 -17 -12 -39 -12 -17 -19 -34
-16 -37 8 -9 66 47 66 64 0 7 5 13 11 13 5 0 7 -5 4 -10 -10 -16 5 -50 21 -50
17 0 19 26 3 36 -7 4 -8 9 -1 13 6 3 12 47 13 96 l3 90 -49 1 -50 1 -2 -86z
m67 49 c0 -11 -7 -20 -15 -20 -8 0 -15 -4 -15 -10 0 -5 7 -10 15 -10 8 0 15
-7 15 -15 0 -8 -9 -15 -20 -15 -17 0 -20 7 -20 38 0 21 3 42 7 45 13 14 33 6
33 -13z m0 -105 c0 -9 -9 -15 -25 -15 -24 0 -32 10 -18 23 12 13 43 7 43 -8z"/>
<path d="M253 2143 c-36 -7 -27 -23 13 -23 23 0 34 4 32 12 -5 14 -15 17 -45
11z"/>
<path d="M278 2097 c-48 -7 -68 -14 -68 -25 0 -10 7 -12 25 -8 24 6 25 5 25
-44 0 -27 5 -50 10 -50 6 0 10 11 10 25 0 18 5 25 20 25 11 0 20 5 20 10 0 6
-9 10 -20 10 -13 0 -20 7 -20 19 0 15 10 20 60 25 33 4 60 11 60 16 0 12 -30
11 -122 -3z"/>
<path d="M220 2000 c0 -22 5 -40 10 -40 6 0 10 18 10 40 0 22 -4 40 -10 40 -5
0 -10 -18 -10 -40z"/>
<path d="M103 1641 c-2 -54 2 -88 9 -92 7 -5 4 -17 -12 -39 -12 -17 -19 -34
-16 -37 8 -9 66 47 66 64 0 7 5 13 11 13 5 0 7 -5 4 -10 -3 -6 -3 -19 0 -30 8
-25 60 -27 110 -3 36 17 46 33 20 33 -8 0 -15 7 -15 15 0 8 9 15 20 15 11 0
20 5 20 10 0 6 -9 10 -20 10 -13 0 -20 7 -20 19 0 15 10 20 60 25 33 4 60 11
60 16 0 13 -7 12 -107 -2 -59 -9 -83 -16 -83 -26 0 -10 7 -12 25 -8 24 6 25 4
25 -38 0 -25 -5 -48 -10 -51 -6 -4 -10 8 -10 29 0 20 -4 36 -10 36 -5 0 -10
-15 -10 -34 0 -39 -12 -52 -29 -32 -7 8 -8 15 -2 18 5 1 11 44 12 93 l3 90
-49 1 -50 1 -2 -86z m67 49 c0 -11 -7 -20 -15 -20 -8 0 -15 -4 -15 -10 0 -5 7
-10 15 -10 8 0 15 -7 15 -15 0 -8 -9 -15 -20 -15 -17 0 -20 7 -20 38 0 21 3
42 7 45 13 14 33 6 33 -13z m0 -105 c0 -9 -9 -15 -25 -15 -24 0 -32 10 -18 23
12 13 43 7 43 -8z"/>
<path d="M253 1693 c-36 -7 -27 -23 13 -23 23 0 34 4 32 12 -5 14 -15 17 -45
11z"/>
<path d="M306 1268 c3 -24 7 -48 9 -54 4 -12 -38 -24 -81 -24 -15 0 -24 -6
-24 -16 0 -12 6 -15 25 -10 24 6 25 4 25 -38 0 -25 -4 -48 -10 -51 -6 -4 -10
8 -10 29 0 20 -4 36 -10 36 -5 0 -10 -15 -10 -34 0 -39 -12 -52 -29 -32 -7 8
-8 15 -2 18 5 1 11 44 12 93 l3 90 -49 1 -50 1 -2 -86 c-2 -54 2 -88 9 -92 7
-5 4 -17 -12 -39 -12 -17 -19 -34 -16 -37 8 -9 66 47 66 64 0 7 5 13 11 13 5
0 7 -5 4 -10 -3 -6 -3 -19 0 -30 8 -25 60 -27 110 -3 36 17 46 33 20 33 -24 0
-17 27 8 32 21 4 25 -1 35 -38 14 -51 57 -104 84 -104 16 0 19 5 14 23 -3 12
-6 28 -6 35 0 19 -20 14 -20 -5 0 -15 -4 -14 -19 6 -22 29 -41 87 -41 125 0
21 5 26 25 26 14 0 25 5 25 10 0 6 -13 10 -30 10 -29 0 -30 1 -30 50 0 43 -3
50 -20 50 -18 0 -20 -5 -14 -42z m-136 -28 c0 -11 -7 -20 -15 -20 -8 0 -15 -4
-15 -10 0 -5 7 -10 15 -10 8 0 15 -7 15 -15 0 -8 -9 -15 -20 -15 -17 0 -20 7
-20 38 0 21 3 42 7 45 13 14 33 6 33 -13z m150 -80 c0 -13 -7 -20 -20 -20 -13
0 -20 7 -20 20 0 13 7 20 20 20 13 0 20 -7 20 -20z m-150 -25 c0 -9 -9 -15
-25 -15 -24 0 -32 10 -18 23 12 13 43 7 43 -8z"/>
<path d="M253 1243 c-36 -7 -27 -23 13 -23 23 0 34 4 32 12 -5 14 -15 17 -45
11z"/>
<path d="M306 818 c3 -24 7 -48 9 -54 4 -12 -38 -24 -81 -24 -15 0 -24 -6 -24
-16 0 -12 6 -15 25 -10 24 6 25 4 25 -38 0 -25 -4 -48 -10 -51 -6 -4 -10 8
-10 29 0 20 -4 36 -10 36 -5 0 -10 -15 -10 -34 0 -39 -12 -52 -29 -32 -7 8 -8
15 -2 18 5 1 11 44 12 93 l3 90 -49 1 -50 1 -2 -86 c-2 -54 2 -88 9 -92 7 -5
4 -17 -12 -39 -12 -17 -19 -34 -16 -37 8 -9 66 47 66 64 0 7 5 13 11 13 5 0 7
-5 4 -10 -3 -6 -3 -19 0 -30 8 -25 60 -27 110 -3 36 17 46 33 20 33 -24 0 -17
27 8 32 21 4 25 -1 35 -38 14 -51 57 -104 84 -104 16 0 19 5 14 23 -3 12 -6
28 -6 35 0 19 -20 14 -20 -5 0 -15 -4 -14 -19 6 -22 29 -41 87 -41 125 0 21 5
26 25 26 14 0 25 5 25 10 0 6 -13 10 -30 10 -29 0 -30 1 -30 50 0 43 -3 50
-20 50 -18 0 -20 -5 -14 -42z m-136 -28 c0 -11 -7 -20 -15 -20 -8 0 -15 -4
-15 -10 0 -5 7 -10 15 -10 8 0 15 -7 15 -15 0 -8 -9 -15 -20 -15 -17 0 -20 7
-20 38 0 21 3 42 7 45 13 14 33 6 33 -13z m150 -80 c0 -13 -7 -20 -20 -20 -13
0 -20 7 -20 20 0 13 7 20 20 20 13 0 20 -7 20 -20z m-150 -25 c0 -9 -9 -15
-25 -15 -24 0 -32 10 -18 23 12 13 43 7 43 -8z"/>
<path d="M360 812 c0 -5 6 -17 14 -28 12 -15 17 -16 27 -7 10 10 9 15 -1 28
-13 16 -40 21 -40 7z"/>
<path d="M253 793 c-36 -7 -27 -23 13 -23 23 0 34 4 32 12 -5 14 -15 17 -45
11z"/>
</g>
</svg>
