<?xml version="1.0" standalone="no"?>
<!DOCTYPE svg PUBLIC "-//W3C//DTD SVG 20010904//EN"
 "http://www.w3.org/TR/2001/REC-SVG-20010904/DTD/svg10.dtd">
<svg version="1.0" xmlns="http://www.w3.org/2000/svg"
 width="95.000000pt" height="725.000000pt" viewBox="0 0 95.000000 725.000000"
 preserveAspectRatio="xMidYMid meet">
<metadata>
Created by potrace 1.16, written by Peter Selinger 2001-2019
</metadata>
<g transform="translate(0.000000,725.000000) scale(0.100000,-0.100000)"
fill="#000000" stroke="none">
<path d="M280 7130 c0 -25 -4 -30 -25 -30 -34 0 -32 -20 3 -21 29 -1 24 -3
-20 -13 -42 -9 -35 -30 7 -23 19 3 35 2 35 -4 0 -5 -9 -9 -20 -9 -11 0 -20 -4
-20 -10 0 -5 9 -10 20 -10 11 0 20 -4 20 -10 0 -5 -13 -10 -30 -10 -16 0 -30
-4 -30 -10 0 -5 6 -10 14 -10 8 0 18 -9 21 -20 7 -23 35 -27 35 -5 0 8 -5 15
-11 15 -5 0 -7 5 -4 10 3 6 26 10 51 10 24 0 44 5 44 10 0 6 -13 10 -30 10
-16 0 -30 5 -30 10 0 6 11 10 24 10 15 0 26 7 29 20 4 15 14 20 36 20 17 0 31
5 31 10 0 6 -13 10 -30 10 -21 0 -28 4 -24 14 6 16 -22 29 -47 21 -15 -5 -19
-1 -19 19 0 16 -6 26 -15 26 -10 0 -15 -10 -15 -30z m60 -44 c0 -2 -7 -6 -15
-10 -8 -3 -15 -1 -15 4 0 6 7 10 15 10 8 0 15 -2 15 -4z"/>
<path d="M101 7003 c1 -60 -2 -116 -6 -127 -13 -30 17 -14 40 22 12 19 28 31
43 32 21 0 22 3 22 90 l0 90 -51 0 -50 0 2 -107z m69 67 c0 -15 -7 -20 -25
-20 -24 0 -34 18 -18 33 15 15 43 7 43 -13z m0 -49 c0 -9 -24 -21 -41 -21 -5
0 -9 7 -9 15 0 9 9 15 25 15 14 0 25 -4 25 -9z m0 -51 c0 -15 -7 -20 -25 -20
-29 0 -35 26 -7 33 30 8 32 7 32 -13z"/>
<path d="M550 7016 c0 -118 19 -132 22 -16 0 44 1 85 2 92 1 6 -5 13 -11 16
-10 3 -13 -20 -13 -92z"/>
<path d="M302 6958 c6 -18 28 -21 28 -4 0 9 -7 16 -16 16 -9 0 -14 -5 -12 -12z"/>
<path d="M352 6958 c6 -16 36 -34 44 -25 9 9 -15 37 -33 37 -8 0 -13 -5 -11
-12z"/>
<path d="M215 6948 c-7 -19 20 -101 34 -106 9 -3 10 6 5 34 -4 22 -10 40 -14
42 -4 2 -6 12 -3 22 6 22 -15 28 -22 8z"/>
<path d="M160 6914 c0 -16 23 -44 35 -44 18 0 18 5 5 31 -10 17 -40 27 -40 13z"/>
<path d="M280 6680 c0 -25 -4 -30 -25 -30 -34 0 -32 -20 3 -21 29 -1 24 -3
-20 -13 -42 -9 -35 -30 7 -23 19 3 35 2 35 -4 0 -5 -9 -9 -20 -9 -11 0 -20 -4
-20 -10 0 -5 9 -10 20 -10 11 0 20 -4 20 -10 0 -5 -13 -10 -30 -10 -16 0 -30
-4 -30 -10 0 -5 6 -10 14 -10 8 0 18 -9 21 -20 7 -23 35 -27 35 -5 0 8 -5 15
-11 15 -5 0 -7 5 -4 10 3 6 26 10 51 10 24 0 44 5 44 10 0 6 -13 10 -30 10
-16 0 -30 5 -30 10 0 6 11 10 24 10 15 0 26 7 29 20 4 15 14 20 36 20 17 0 31
5 31 10 0 6 -13 10 -30 10 -21 0 -28 4 -24 14 6 16 -22 29 -47 21 -15 -5 -19
-1 -19 19 0 16 -6 26 -15 26 -10 0 -15 -10 -15 -30z m60 -44 c0 -2 -7 -6 -15
-10 -8 -3 -15 -1 -15 4 0 6 7 10 15 10 8 0 15 -2 15 -4z"/>
<path d="M101 6553 c1 -60 -2 -116 -6 -127 -13 -30 17 -14 40 22 12 19 28 31
43 32 21 0 22 3 22 90 l0 90 -51 0 -50 0 2 -107z m69 67 c0 -15 -7 -20 -25
-20 -24 0 -34 18 -18 33 15 15 43 7 43 -13z m0 -49 c0 -9 -24 -21 -41 -21 -5
0 -9 7 -9 15 0 9 9 15 25 15 14 0 25 -4 25 -9z m0 -51 c0 -15 -7 -20 -25 -20
-29 0 -35 26 -7 33 30 8 32 7 32 -13z"/>
<path d="M550 6565 c0 -117 18 -127 22 -12 3 76 5 82 26 85 21 3 22 1 22 -77
0 -65 3 -81 15 -81 12 0 15 17 15 90 l0 90 -50 0 -50 0 0 -95z"/>
<path d="M302 6508 c6 -18 28 -21 28 -4 0 9 -7 16 -16 16 -9 0 -14 -5 -12 -12z"/>
<path d="M350 6512 c0 -4 5 -13 12 -20 9 -9 4 -12 -25 -12 -20 0 -37 -4 -37
-10 0 -5 11 -10 25 -10 21 0 25 -5 25 -30 0 -44 16 -36 34 17 12 34 13 50 5
60 -12 14 -39 18 -39 5z"/>
<path d="M215 6498 c-7 -19 20 -101 35 -106 9 -3 10 4 5 27 -6 27 -4 31 14 31
12 0 21 5 21 10 0 6 -13 10 -29 10 -24 0 -28 3 -24 20 6 22 -15 28 -22 8z"/>
<path d="M160 6464 c0 -16 23 -44 35 -44 18 0 18 5 5 31 -10 17 -40 27 -40 13z"/>
<path d="M280 6230 c0 -25 -4 -30 -25 -30 -34 0 -32 -20 3 -21 29 -1 24 -3
-20 -13 -42 -9 -35 -30 7 -23 19 3 35 2 35 -4 0 -5 -9 -9 -20 -9 -11 0 -20 -4
-20 -10 0 -5 9 -10 20 -10 11 0 20 -4 20 -10 0 -5 -13 -10 -30 -10 -16 0 -30
-4 -30 -10 0 -5 6 -10 14 -10 8 0 18 -9 21 -20 7 -23 35 -27 35 -5 0 8 -5 15
-11 15 -5 0 -7 5 -4 10 3 6 26 10 51 10 24 0 44 5 44 10 0 6 -13 10 -30 10
-16 0 -30 5 -30 10 0 6 11 10 24 10 15 0 26 7 29 20 4 15 14 20 36 20 17 0 31
5 31 10 0 6 -13 10 -30 10 -21 0 -28 4 -24 14 6 16 -22 29 -47 21 -15 -5 -19
-1 -19 19 0 16 -6 26 -15 26 -10 0 -15 -10 -15 -30z m60 -44 c0 -2 -7 -6 -15
-10 -8 -3 -15 -1 -15 4 0 6 7 10 15 10 8 0 15 -2 15 -4z"/>
<path d="M101 6103 c1 -60 -2 -116 -6 -127 -13 -30 17 -14 40 22 12 19 28 31
43 32 21 0 22 3 22 90 l0 90 -51 0 -50 0 2 -107z m69 67 c0 -15 -7 -20 -25
-20 -24 0 -34 18 -18 33 15 15 43 7 43 -13z m0 -49 c0 -9 -24 -21 -41 -21 -5
0 -9 7 -9 15 0 9 9 15 25 15 14 0 25 -4 25 -9z m0 -51 c0 -15 -7 -20 -25 -20
-29 0 -35 26 -7 33 30 8 32 7 32 -13z"/>
<path d="M550 6115 c0 -57 4 -95 10 -95 6 0 10 25 10 55 0 52 1 55 25 55 23 0
25 -3 25 -50 0 -38 4 -50 15 -50 12 0 15 17 15 90 l0 90 -50 0 -50 0 0 -95z
m70 55 c0 -15 -7 -20 -25 -20 -24 0 -34 18 -18 33 15 15 43 7 43 -13z"/>
<path d="M302 6058 c6 -18 28 -21 28 -4 0 9 -7 16 -16 16 -9 0 -14 -5 -12 -12z"/>
<path d="M350 6061 c0 -6 6 -13 13 -18 12 -8 -48 -21 -105 -22 -21 -1 -25 3
-21 19 6 22 -15 28 -22 8 -7 -19 20 -101 35 -106 9 -3 10 4 5 27 -4 20 -3 31
4 31 6 0 11 -11 11 -25 0 -34 18 -32 22 3 2 21 9 28 31 30 24 3 27 0 27 -27 0
-45 16 -38 34 16 12 34 13 50 5 60 -13 15 -39 18 -39 4z"/>
<path d="M160 6014 c0 -16 23 -44 35 -44 18 0 18 5 5 31 -10 17 -40 27 -40 13z"/>
<path d="M280 5780 c0 -25 -4 -30 -25 -30 -34 0 -32 -20 3 -21 29 -1 24 -3
-20 -13 -42 -9 -35 -30 7 -23 19 3 35 2 35 -4 0 -5 -9 -9 -20 -9 -11 0 -20 -4
-20 -10 0 -5 9 -10 20 -10 11 0 20 -4 20 -10 0 -5 -13 -10 -30 -10 -16 0 -30
-4 -30 -10 0 -5 6 -10 14 -10 8 0 18 -9 21 -20 7 -23 35 -27 35 -5 0 8 -5 15
-11 15 -5 0 -7 5 -4 10 3 6 26 10 51 10 24 0 44 5 44 10 0 6 -13 10 -30 10
-16 0 -30 5 -30 10 0 6 11 10 24 10 15 0 26 7 29 20 4 15 14 20 36 20 17 0 31
5 31 10 0 6 -13 10 -30 10 -21 0 -28 4 -24 14 6 16 -22 29 -47 21 -15 -5 -19
-1 -19 19 0 16 -6 26 -15 26 -10 0 -15 -10 -15 -30z m60 -44 c0 -2 -7 -6 -15
-10 -8 -3 -15 -1 -15 4 0 6 7 10 15 10 8 0 15 -2 15 -4z"/>
<path d="M101 5653 c1 -60 -2 -116 -6 -127 -13 -30 17 -14 40 22 12 19 28 31
43 32 21 0 22 3 22 90 l0 90 -51 0 -50 0 2 -107z m69 67 c0 -15 -7 -20 -25
-20 -24 0 -34 18 -18 33 15 15 43 7 43 -13z m0 -49 c0 -9 -24 -21 -41 -21 -5
0 -9 7 -9 15 0 9 9 15 25 15 14 0 25 -4 25 -9z m0 -51 c0 -15 -7 -20 -25 -20
-29 0 -35 26 -7 33 30 8 32 7 32 -13z"/>
<path d="M550 5665 c0 -57 4 -95 10 -95 6 0 10 14 10 30 0 17 4 30 9 30 5 0
16 3 25 6 13 5 16 -1 16 -25 0 -21 5 -31 15 -31 12 0 15 17 15 90 l0 90 -50 0
-50 0 0 -95z m70 55 c0 -15 -7 -20 -25 -20 -24 0 -34 18 -18 33 15 15 43 7 43
-13z m0 -49 c0 -9 -24 -21 -41 -21 -5 0 -9 7 -9 15 0 9 9 15 25 15 14 0 25 -4
25 -9z"/>
<path d="M302 5608 c6 -18 28 -21 28 -4 0 9 -7 16 -16 16 -9 0 -14 -5 -12 -12z"/>
<path d="M350 5611 c0 -6 6 -13 13 -18 12 -8 -48 -21 -105 -22 -21 -1 -25 3
-21 19 6 22 -15 28 -22 8 -7 -19 20 -101 35 -106 9 -3 10 4 5 27 -4 20 -3 31
4 31 6 0 11 -11 11 -25 0 -14 5 -25 10 -25 6 0 10 11 10 24 0 14 5 28 12 32 8
5 9 -2 5 -24 -8 -42 7 -41 24 1 l13 32 3 -32 c6 -46 18 -41 37 14 12 34 13 50
5 60 -13 15 -39 18 -39 4z"/>
<path d="M160 5564 c0 -16 23 -44 35 -44 18 0 18 5 5 31 -10 17 -40 27 -40 13z"/>
<path d="M280 5330 c0 -25 -4 -30 -25 -30 -34 0 -32 -20 3 -21 29 -1 24 -3
-20 -13 -42 -9 -35 -30 7 -23 19 3 35 2 35 -4 0 -5 -9 -9 -20 -9 -11 0 -20 -4
-20 -10 0 -5 9 -10 20 -10 11 0 20 -4 20 -10 0 -5 -13 -10 -30 -10 -16 0 -30
-4 -30 -10 0 -5 6 -10 14 -10 8 0 18 -9 21 -20 7 -23 35 -27 35 -5 0 8 -5 15
-11 15 -5 0 -7 5 -4 10 3 6 26 10 51 10 24 0 44 5 44 10 0 6 -13 10 -30 10
-16 0 -30 5 -30 10 0 6 11 10 24 10 15 0 26 7 29 20 4 15 14 20 36 20 17 0 31
5 31 10 0 6 -13 10 -30 10 -21 0 -28 4 -24 14 6 16 -22 29 -47 21 -15 -5 -19
-1 -19 19 0 16 -6 26 -15 26 -10 0 -15 -10 -15 -30z m60 -44 c0 -2 -7 -6 -15
-10 -8 -3 -15 -1 -15 4 0 6 7 10 15 10 8 0 15 -2 15 -4z"/>
<path d="M101 5203 c1 -60 -2 -116 -6 -127 -13 -30 17 -14 40 22 12 19 28 31
43 32 21 0 22 3 22 90 l0 90 -51 0 -50 0 2 -107z m69 67 c0 -15 -7 -20 -25
-20 -24 0 -34 18 -18 33 15 15 43 7 43 -13z m0 -49 c0 -9 -24 -21 -41 -21 -5
0 -9 7 -9 15 0 9 9 15 25 15 14 0 25 -4 25 -9z m0 -51 c0 -15 -7 -20 -25 -20
-29 0 -35 26 -7 33 30 8 32 7 32 -13z"/>
<path d="M550 5214 c0 -84 2 -95 16 -90 9 3 31 6 50 6 l34 0 0 90 0 90 -50 0
-50 0 0 -96z m70 56 c0 -15 -7 -20 -25 -20 -24 0 -34 18 -18 33 15 15 43 7 43
-13z m0 -49 c0 -9 -24 -21 -41 -21 -5 0 -9 7 -9 15 0 9 9 15 25 15 14 0 25 -4
25 -9z m0 -51 c0 -15 -7 -20 -25 -20 -29 0 -35 26 -7 33 30 8 32 7 32 -13z"/>
<path d="M302 5158 c6 -18 28 -21 28 -4 0 9 -7 16 -16 16 -9 0 -14 -5 -12 -12z"/>
<path d="M350 5161 c0 -6 6 -13 13 -18 12 -8 -48 -21 -105 -22 -22 -1 -25 2
-21 20 4 16 2 20 -8 17 -15 -5 -16 -23 -4 -75 7 -31 6 -33 -20 -33 -17 0 -25
-5 -22 -12 2 -7 15 -12 28 -11 13 1 68 5 122 9 95 7 121 18 72 30 -28 7 -29
11 -15 50 7 19 7 30 -1 40 -13 16 -39 19 -39 5z m-49 -94 c-8 -8 -11 -5 -11 9
0 27 14 41 18 19 2 -9 -1 -22 -7 -28z m40 0 c-16 -16 -20 -5 -8 23 9 22 11 23
14 6 3 -10 0 -23 -6 -29z m-71 6 c0 -22 -2 -25 -10 -13 -13 20 -13 40 0 40 6
0 10 -12 10 -27z"/>
<path d="M160 5114 c0 -16 23 -44 35 -44 18 0 18 5 5 31 -10 17 -40 27 -40 13z"/>
<path d="M551 4753 c1 -60 -2 -116 -6 -127 -13 -30 17 -14 40 22 12 19 28 31
43 32 21 0 22 3 22 90 l0 90 -51 0 -50 0 2 -107z m69 67 c0 -15 -7 -20 -25
-20 -24 0 -34 18 -18 33 15 15 43 7 43 -13z m0 -49 c0 -9 -24 -21 -41 -21 -5
0 -9 7 -9 15 0 9 9 15 25 15 14 0 25 -4 25 -9z m0 -51 c0 -15 -7 -20 -25 -20
-29 0 -35 26 -7 33 30 8 32 7 32 -13z"/>
<path d="M551 4303 c1 -60 -2 -116 -6 -127 -13 -30 17 -14 40 22 12 19 28 31
43 32 21 0 22 3 22 90 l0 90 -51 0 -50 0 2 -107z m69 67 c0 -15 -7 -20 -25
-20 -24 0 -34 18 -18 33 15 15 43 7 43 -13z m0 -49 c0 -9 -24 -21 -41 -21 -5
0 -9 7 -9 15 0 9 9 15 25 15 14 0 25 -4 25 -9z m0 -51 c0 -15 -7 -20 -25 -20
-29 0 -35 26 -7 33 30 8 32 7 32 -13z"/>
<path d="M610 4214 c0 -16 23 -44 35 -44 18 0 18 5 5 31 -10 17 -40 27 -40 13z"/>
<path d="M763 3963 c-32 -6 -29 -23 3 -23 24 0 26 -3 21 -30 -9 -45 17 -39 31
7 9 29 9 39 -1 45 -13 8 -17 8 -54 1z"/>
<path d="M551 3853 c1 -60 -2 -116 -6 -127 -13 -30 17 -14 40 22 12 19 28 31
43 32 21 0 22 3 22 90 l0 90 -51 0 -50 0 2 -107z m69 67 c0 -15 -7 -20 -25
-20 -24 0 -34 18 -18 33 15 15 43 7 43 -13z m0 -49 c0 -9 -24 -21 -41 -21 -5
0 -9 7 -9 15 0 9 9 15 25 15 14 0 25 -4 25 -9z m0 -51 c0 -15 -7 -20 -25 -20
-29 0 -35 26 -7 33 30 8 32 7 32 -13z"/>
<path d="M680 3940 c0 -5 11 -10 25 -10 14 0 25 5 25 10 0 6 -11 10 -25 10
-14 0 -25 -4 -25 -10z"/>
<path d="M610 3764 c0 -16 23 -44 35 -44 18 0 18 5 5 31 -10 17 -40 27 -40 13z"/>
<path d="M763 3513 c-32 -6 -29 -23 5 -23 21 0 24 -2 12 -10 -8 -5 -32 -10
-52 -10 -42 0 -68 -8 -68 -22 0 -5 24 -6 60 -2 42 5 60 3 60 -5 0 -16 27 -13
34 4 3 9 18 15 36 15 16 0 30 5 30 10 0 6 -14 10 -31 10 -19 0 -28 4 -23 11 3
6 0 15 -7 20 -15 9 -19 9 -56 2z"/>
<path d="M551 3403 c1 -60 -2 -116 -6 -127 -13 -30 17 -14 40 22 12 19 28 31
43 32 21 0 22 3 22 90 l0 90 -51 0 -50 0 2 -107z m69 67 c0 -15 -7 -20 -25
-20 -24 0 -34 18 -18 33 15 15 43 7 43 -13z m0 -49 c0 -9 -24 -21 -41 -21 -5
0 -9 7 -9 15 0 9 9 15 25 15 14 0 25 -4 25 -9z m0 -51 c0 -15 -7 -20 -25 -20
-29 0 -35 26 -7 33 30 8 32 7 32 -13z"/>
<path d="M680 3490 c0 -5 11 -10 25 -10 14 0 25 5 25 10 0 6 -11 10 -25 10
-14 0 -25 -4 -25 -10z"/>
<path d="M610 3314 c0 -16 23 -44 35 -44 18 0 18 5 5 31 -10 17 -40 27 -40 13z"/>
<path d="M763 3063 c-32 -6 -29 -23 5 -23 21 0 24 -2 12 -10 -8 -5 -32 -10
-52 -10 -42 0 -68 -8 -68 -22 0 -5 27 -7 63 -4 l62 5 -47 -11 c-57 -13 -65
-33 -10 -24 20 3 47 6 58 6 13 0 24 8 27 20 4 15 14 20 36 20 17 0 31 5 31 10
0 6 -14 10 -31 10 -19 0 -28 4 -23 11 3 6 0 15 -7 20 -15 9 -19 9 -56 2z"/>
<path d="M551 2953 c1 -60 -2 -116 -6 -127 -13 -30 17 -14 40 22 12 19 28 31
43 32 21 0 22 3 22 90 l0 90 -51 0 -50 0 2 -107z m69 67 c0 -15 -7 -20 -25
-20 -24 0 -34 18 -18 33 15 15 43 7 43 -13z m0 -49 c0 -9 -24 -21 -41 -21 -5
0 -9 7 -9 15 0 9 9 15 25 15 14 0 25 -4 25 -9z m0 -51 c0 -15 -7 -20 -25 -20
-29 0 -35 26 -7 33 30 8 32 7 32 -13z"/>
<path d="M680 3040 c0 -5 11 -10 25 -10 14 0 25 5 25 10 0 6 -11 10 -25 10
-14 0 -25 -4 -25 -10z"/>
<path d="M610 2864 c0 -16 23 -44 35 -44 18 0 18 5 5 31 -10 17 -40 27 -40 13z"/>
<path d="M730 2630 c0 -25 -4 -30 -25 -30 -34 0 -32 -20 3 -21 29 -1 24 -3
-20 -13 -42 -9 -35 -30 7 -23 19 3 35 2 35 -4 0 -5 -9 -9 -20 -9 -11 0 -20 -4
-20 -10 0 -5 9 -10 20 -10 11 0 20 -4 20 -10 0 -5 7 -10 15 -10 8 0 15 7 15
15 0 9 9 15 24 15 15 0 26 7 29 20 4 15 14 20 36 20 17 0 31 5 31 10 0 6 -13
10 -30 10 -21 0 -28 4 -24 14 6 16 -22 29 -47 21 -15 -5 -19 -1 -19 19 0 16
-6 26 -15 26 -10 0 -15 -10 -15 -30z m60 -44 c0 -2 -7 -6 -15 -10 -8 -3 -15
-1 -15 4 0 6 7 10 15 10 8 0 15 -2 15 -4z"/>
<path d="M551 2503 c1 -60 -2 -116 -6 -127 -13 -30 17 -14 40 22 12 19 28 31
43 32 21 0 22 3 22 90 l0 90 -51 0 -50 0 2 -107z m69 67 c0 -15 -7 -20 -25
-20 -24 0 -34 18 -18 33 15 15 43 7 43 -13z m0 -49 c0 -9 -24 -21 -41 -21 -5
0 -9 7 -9 15 0 9 9 15 25 15 14 0 25 -4 25 -9z m0 -51 c0 -15 -7 -20 -25 -20
-29 0 -35 26 -7 33 30 8 32 7 32 -13z"/>
<path d="M610 2414 c0 -16 23 -44 35 -44 18 0 18 5 5 31 -10 17 -40 27 -40 13z"/>
<path d="M730 2180 c0 -25 -4 -30 -25 -30 -34 0 -32 -20 3 -21 29 -1 24 -3
-20 -13 -42 -9 -35 -30 7 -23 19 3 35 2 35 -4 0 -5 -9 -9 -20 -9 -11 0 -20 -4
-20 -10 0 -5 9 -10 20 -10 11 0 20 -4 20 -10 0 -5 7 -10 15 -10 8 0 15 7 15
15 0 9 9 15 24 15 15 0 26 7 29 20 4 15 14 20 36 20 17 0 31 5 31 10 0 6 -13
10 -30 10 -21 0 -28 4 -24 14 6 16 -22 29 -47 21 -15 -5 -19 -1 -19 19 0 16
-6 26 -15 26 -10 0 -15 -10 -15 -30z m60 -44 c0 -2 -7 -6 -15 -10 -8 -3 -15
-1 -15 4 0 6 7 10 15 10 8 0 15 -2 15 -4z"/>
<path d="M551 2053 c1 -60 -2 -116 -6 -127 -13 -30 17 -14 40 22 12 19 28 31
43 32 21 0 22 3 22 90 l0 90 -51 0 -50 0 2 -107z m69 67 c0 -15 -7 -20 -25
-20 -24 0 -34 18 -18 33 15 15 43 7 43 -13z m0 -49 c0 -9 -24 -21 -41 -21 -5
0 -9 7 -9 15 0 9 9 15 25 15 14 0 25 -4 25 -9z m0 -51 c0 -15 -7 -20 -25 -20
-29 0 -35 26 -7 33 30 8 32 7 32 -13z"/>
<path d="M663 1995 c-3 -9 -3 -18 0 -21 9 -9 27 6 27 22 0 19 -19 18 -27 -1z"/>
<path d="M610 1964 c0 -16 23 -44 35 -44 18 0 18 5 5 31 -10 17 -40 27 -40 13z"/>
<path d="M730 1730 c0 -25 -4 -30 -25 -30 -34 0 -32 -20 3 -21 29 -1 24 -3
-20 -13 -42 -9 -35 -30 7 -23 19 3 35 2 35 -4 0 -5 -9 -9 -20 -9 -11 0 -20 -4
-20 -10 0 -5 9 -10 20 -10 11 0 20 -4 20 -10 0 -5 -13 -10 -30 -10 -16 0 -30
-5 -30 -11 0 -8 15 -10 46 -5 26 3 60 6 75 6 16 0 29 5 29 10 0 6 -13 10 -30
10 -16 0 -30 5 -30 10 0 6 11 10 24 10 15 0 26 7 29 20 4 15 14 20 36 20 17 0
31 5 31 10 0 6 -13 10 -30 10 -21 0 -28 4 -24 14 6 16 -22 29 -47 21 -15 -5
-19 -1 -19 19 0 16 -6 26 -15 26 -10 0 -15 -10 -15 -30z m60 -44 c0 -2 -7 -6
-15 -10 -8 -3 -15 -1 -15 4 0 6 7 10 15 10 8 0 15 -2 15 -4z"/>
<path d="M551 1603 c1 -60 -2 -116 -6 -127 -13 -30 17 -14 40 22 12 19 28 31
43 32 21 0 22 3 22 90 l0 90 -51 0 -50 0 2 -107z m69 67 c0 -15 -7 -20 -25
-20 -24 0 -34 18 -18 33 15 15 43 7 43 -13z m0 -49 c0 -9 -24 -21 -41 -21 -5
0 -9 7 -9 15 0 9 9 15 25 15 14 0 25 -4 25 -9z m0 -51 c0 -15 -7 -20 -25 -20
-29 0 -35 26 -7 33 30 8 32 7 32 -13z"/>
<path d="M663 1545 c-3 -9 -3 -18 0 -21 9 -9 27 6 27 22 0 19 -19 18 -27 -1z"/>
<path d="M610 1514 c0 -16 23 -44 35 -44 18 0 18 5 5 31 -10 17 -40 27 -40 13z"/>
<path d="M730 1280 c0 -25 -4 -30 -25 -30 -34 0 -32 -20 3 -21 29 -1 24 -3
-20 -13 -42 -9 -35 -30 7 -23 19 3 35 2 35 -4 0 -5 -9 -9 -20 -9 -11 0 -20 -4
-20 -10 0 -5 9 -10 20 -10 11 0 20 -4 20 -10 0 -5 -13 -10 -30 -10 -16 0 -30
-4 -30 -10 0 -5 6 -10 14 -10 8 0 18 -9 21 -20 7 -23 35 -27 35 -5 0 8 -5 15
-11 15 -5 0 -7 5 -4 10 3 6 26 10 51 10 24 0 44 5 44 10 0 6 -13 10 -30 10
-16 0 -30 5 -30 10 0 6 11 10 24 10 15 0 26 7 29 20 4 15 14 20 36 20 17 0 31
5 31 10 0 6 -13 10 -30 10 -21 0 -28 4 -24 14 6 16 -22 29 -47 21 -15 -5 -19
-1 -19 19 0 16 -6 26 -15 26 -10 0 -15 -10 -15 -30z m60 -44 c0 -2 -7 -6 -15
-10 -8 -3 -15 -1 -15 4 0 6 7 10 15 10 8 0 15 -2 15 -4z"/>
<path d="M551 1153 c1 -60 -2 -116 -6 -127 -13 -30 17 -14 40 22 12 19 28 31
43 32 21 0 22 3 22 90 l0 90 -51 0 -50 0 2 -107z m69 67 c0 -15 -7 -20 -25
-20 -24 0 -34 18 -18 33 15 15 43 7 43 -13z m0 -49 c0 -9 -24 -21 -41 -21 -5
0 -9 7 -9 15 0 9 9 15 25 15 14 0 25 -4 25 -9z m0 -51 c0 -15 -7 -20 -25 -20
-29 0 -35 26 -7 33 30 8 32 7 32 -13z"/>
<path d="M663 1095 c-3 -9 -3 -18 0 -21 9 -9 27 6 27 22 0 19 -19 18 -27 -1z"/>
<path d="M610 1064 c0 -16 23 -44 35 -44 18 0 18 5 5 31 -10 17 -40 27 -40 13z"/>
<path d="M730 830 c0 -25 -4 -30 -25 -30 -34 0 -32 -20 3 -21 29 -1 24 -3 -20
-13 -42 -9 -35 -30 7 -23 19 3 35 2 35 -4 0 -5 -9 -9 -20 -9 -11 0 -20 -4 -20
-10 0 -5 9 -10 20 -10 11 0 20 -4 20 -10 0 -5 -13 -10 -30 -10 -16 0 -30 -4
-30 -10 0 -5 6 -10 14 -10 8 0 18 -9 21 -20 7 -23 35 -27 35 -5 0 8 -5 15 -11
15 -5 0 -7 5 -4 10 3 6 26 10 51 10 24 0 44 5 44 10 0 6 -13 10 -30 10 -16 0
-30 5 -30 10 0 6 11 10 24 10 15 0 26 7 29 20 4 15 14 20 36 20 17 0 31 5 31
10 0 6 -13 10 -30 10 -21 0 -28 4 -24 14 6 16 -22 29 -47 21 -15 -5 -19 -1
-19 19 0 16 -6 26 -15 26 -10 0 -15 -10 -15 -30z m60 -44 c0 -2 -7 -6 -15 -10
-8 -3 -15 -1 -15 4 0 6 7 10 15 10 8 0 15 -2 15 -4z"/>
<path d="M551 703 c1 -60 -2 -116 -6 -127 -13 -30 17 -14 40 22 12 19 28 31
43 32 21 0 22 3 22 90 l0 90 -51 0 -50 0 2 -107z m69 67 c0 -15 -7 -20 -25
-20 -24 0 -34 18 -18 33 15 15 43 7 43 -13z m0 -49 c0 -9 -24 -21 -41 -21 -5
0 -9 7 -9 15 0 9 9 15 25 15 14 0 25 -4 25 -9z m0 -51 c0 -15 -7 -20 -25 -20
-29 0 -35 26 -7 33 30 8 32 7 32 -13z"/>
<path d="M752 658 c6 -18 28 -21 28 -4 0 9 -7 16 -16 16 -9 0 -14 -5 -12 -12z"/>
<path d="M663 645 c-3 -9 -3 -18 0 -21 9 -9 27 6 27 22 0 19 -19 18 -27 -1z"/>
<path d="M610 614 c0 -16 23 -44 35 -44 18 0 18 5 5 31 -10 17 -40 27 -40 13z"/>
<path d="M730 380 c0 -25 -4 -30 -25 -30 -34 0 -32 -20 3 -21 29 -1 24 -3 -20
-13 -42 -9 -35 -30 7 -23 19 3 35 2 35 -4 0 -5 -9 -9 -20 -9 -11 0 -20 -4 -20
-10 0 -5 9 -10 20 -10 11 0 20 -4 20 -10 0 -5 -13 -10 -30 -10 -16 0 -30 -4
-30 -10 0 -5 6 -10 14 -10 8 0 18 -9 21 -20 7 -23 35 -27 35 -5 0 8 -5 15 -11
15 -5 0 -7 4 -4 10 3 6 26 10 51 10 24 0 44 5 44 10 0 6 -13 10 -30 10 -16 0
-30 5 -30 10 0 6 11 10 24 10 15 0 26 7 29 20 4 15 14 20 36 20 17 0 31 5 31
10 0 6 -13 10 -30 10 -21 0 -28 4 -24 14 6 16 -22 29 -47 21 -15 -5 -19 -1
-19 19 0 16 -6 26 -15 26 -10 0 -15 -10 -15 -30z m60 -44 c0 -2 -7 -6 -15 -10
-8 -3 -15 -1 -15 4 0 6 7 10 15 10 8 0 15 -2 15 -4z"/>
<path d="M551 253 c1 -60 -2 -116 -6 -127 -13 -30 17 -14 40 22 12 19 28 31
43 32 21 0 22 3 22 90 l0 90 -51 0 -50 0 2 -107z m69 67 c0 -15 -7 -20 -25
-20 -24 0 -34 18 -18 33 15 15 43 7 43 -13z m0 -49 c0 -9 -24 -21 -41 -21 -5
0 -9 7 -9 15 0 9 9 15 25 15 14 0 25 -4 25 -9z m0 -51 c0 -15 -7 -20 -25 -20
-29 0 -35 26 -7 33 30 8 32 7 32 -13z"/>
<path d="M752 208 c6 -18 28 -21 28 -4 0 9 -7 16 -16 16 -9 0 -14 -5 -12 -12z"/>
<path d="M802 208 c6 -16 36 -34 44 -25 9 9 -15 37 -33 37 -8 0 -13 -5 -11
-12z"/>
<path d="M663 195 c-3 -9 -3 -18 0 -21 9 -9 27 6 27 22 0 19 -19 18 -27 -1z"/>
<path d="M610 164 c0 -16 23 -44 35 -44 18 0 18 5 5 31 -10 17 -40 27 -40 13z"/>
</g>
</svg>
