<?xml version="1.0" standalone="no"?>
<!DOCTYPE svg PUBLIC "-//W3C//DTD SVG 20010904//EN"
 "http://www.w3.org/TR/2001/REC-SVG-20010904/DTD/svg10.dtd">
<svg version="1.0" xmlns="http://www.w3.org/2000/svg"
 width="50.000000pt" height="725.000000pt" viewBox="0 0 50.000000 725.000000"
 preserveAspectRatio="xMidYMid meet">
<metadata>
Created by potrace 1.16, written by Peter Selinger 2001-2019
</metadata>
<g transform="translate(0.000000,725.000000) scale(0.100000,-0.100000)"
fill="#000000" stroke="none">
<path d="M163 7083 c-28 -5 -31 -23 -4 -23 34 0 81 12 81 21 0 9 -36 10 -77 2z"/>
<path d="M170 6670 c0 -29 -4 -40 -15 -40 -8 0 -15 -4 -15 -10 0 -5 7 -10 15
-10 8 0 15 -9 15 -20 0 -11 7 -20 15 -20 9 0 15 9 15 25 0 18 5 25 20 25 11 0
20 5 20 10 0 6 -9 10 -20 10 -16 0 -20 7 -20 35 0 24 -5 35 -15 35 -11 0 -15
-11 -15 -40z"/>
<path d="M170 6220 c0 -29 -4 -40 -15 -40 -8 0 -15 -4 -15 -10 0 -5 7 -10 15
-10 8 0 15 -6 15 -14 0 -14 -8 -18 -62 -30 -30 -7 -38 -26 -12 -26 9 0 33 4
53 10 20 5 48 12 64 15 31 6 37 25 7 25 -11 0 -20 7 -20 15 0 8 9 15 20 15 11
0 20 5 20 10 0 6 -9 10 -20 10 -16 0 -20 7 -20 35 0 24 -5 35 -15 35 -11 0
-15 -11 -15 -40z"/>
<path d="M170 5770 c0 -29 -4 -40 -15 -40 -8 0 -15 -4 -15 -10 0 -5 7 -10 15
-10 8 0 15 -6 15 -14 0 -14 -8 -18 -62 -30 -16 -4 -28 -11 -28 -16 0 -13 31
-13 64 0 26 9 26 9 26 -35 0 -33 4 -45 15 -45 11 0 15 12 15 44 0 36 4 46 20
51 11 3 20 11 20 16 0 5 -9 9 -20 9 -11 0 -20 7 -20 15 0 8 9 15 20 15 11 0
20 5 20 10 0 6 -9 10 -20 10 -16 0 -20 7 -20 35 0 24 -5 35 -15 35 -11 0 -15
-11 -15 -40z"/>
<path d="M170 5320 c0 -29 -4 -40 -15 -40 -8 0 -15 -4 -15 -10 0 -5 7 -10 15
-10 8 0 15 -6 15 -14 0 -14 -8 -18 -62 -30 -16 -4 -28 -11 -28 -16 0 -13 31
-13 64 0 26 9 26 9 26 -35 0 -33 4 -45 15 -45 8 0 15 9 15 20 0 13 7 20 20 20
11 0 20 5 20 10 0 6 -9 10 -20 10 -11 0 -20 6 -20 14 0 8 9 18 20 21 11 3 20
11 20 16 0 5 -9 9 -20 9 -11 0 -20 7 -20 15 0 8 9 15 20 15 11 0 20 5 20 10 0
6 -9 10 -20 10 -16 0 -20 7 -20 35 0 24 -5 35 -15 35 -11 0 -15 -11 -15 -40z"/>
<path d="M170 4870 c0 -29 -4 -40 -15 -40 -8 0 -15 -4 -15 -10 0 -5 7 -10 15
-10 8 0 15 -6 15 -14 0 -14 -8 -18 -62 -30 -16 -4 -28 -11 -28 -16 0 -13 31
-13 64 0 26 9 26 9 26 -35 0 -33 4 -45 15 -45 8 0 15 9 15 20 0 13 7 20 20 20
11 0 20 5 20 10 0 6 -9 10 -20 10 -11 0 -20 6 -20 14 0 8 9 18 20 21 11 3 20
11 20 16 0 5 -9 9 -20 9 -11 0 -20 7 -20 15 0 8 9 15 20 15 11 0 20 5 20 10 0
6 -9 10 -20 10 -16 0 -20 7 -20 35 0 24 -5 35 -15 35 -11 0 -15 -11 -15 -40z"/>
<path d="M120 4713 c0 -10 -9 -33 -21 -52 -20 -33 -20 -49 1 -36 19 11 61 85
55 95 -10 17 -35 11 -35 -7z"/>
<path d="M170 4420 c0 -29 -4 -40 -15 -40 -8 0 -15 -4 -15 -10 0 -5 7 -10 15
-10 8 0 15 -6 15 -14 0 -14 -8 -18 -62 -30 -16 -4 -28 -11 -28 -16 0 -13 31
-13 64 0 25 9 26 8 25 -28 0 -32 -1 -34 -9 -14 -11 26 -40 30 -40 5 0 -10 -9
-33 -21 -52 -27 -45 -14 -54 21 -13 l27 33 78 -50 c79 -52 105 -59 174 -45 47
10 38 19 -32 31 -87 15 -167 50 -167 74 0 12 7 19 20 19 11 0 20 5 20 10 0 6
-9 10 -20 10 -11 0 -20 6 -20 14 0 8 9 18 20 21 11 3 20 11 20 16 0 5 -9 9
-20 9 -11 0 -20 7 -20 15 0 8 9 15 20 15 11 0 20 5 20 10 0 6 -9 10 -20 10
-16 0 -20 7 -20 35 0 24 -5 35 -15 35 -11 0 -15 -11 -15 -40z"/>
<path d="M170 3970 c0 -29 -4 -40 -15 -40 -8 0 -15 -4 -15 -10 0 -5 7 -10 15
-10 8 0 15 -6 15 -14 0 -14 -8 -18 -62 -30 -16 -4 -28 -11 -28 -16 0 -13 31
-13 64 0 25 9 26 8 25 -28 0 -32 -1 -34 -9 -14 -11 26 -40 30 -40 5 0 -10 -9
-33 -21 -52 -27 -45 -14 -54 21 -13 l27 33 78 -50 c79 -52 105 -59 174 -45 47
10 38 19 -32 31 -87 15 -167 50 -167 74 0 12 7 19 20 19 11 0 20 5 20 10 0 6
-9 10 -20 10 -11 0 -20 6 -20 14 0 8 9 18 20 21 11 3 20 11 20 16 0 5 -9 9
-20 9 -11 0 -20 7 -20 15 0 8 9 15 20 15 11 0 20 5 20 10 0 6 -9 10 -20 10
-16 0 -20 7 -20 35 0 24 -5 35 -15 35 -11 0 -15 -11 -15 -40z"/>
<path d="M310 3939 c0 -81 24 -77 28 4 2 46 0 57 -13 57 -12 0 -15 -13 -15
-61z"/>
<path d="M170 3520 c0 -29 -4 -40 -15 -40 -8 0 -15 -4 -15 -10 0 -5 7 -10 15
-10 8 0 15 -6 15 -14 0 -14 -8 -18 -62 -30 -16 -4 -28 -11 -28 -16 0 -13 31
-13 64 0 25 9 26 8 25 -28 0 -32 -1 -34 -9 -14 -11 26 -40 30 -40 5 0 -10 -9
-33 -21 -52 -27 -45 -14 -54 21 -13 l27 33 78 -50 c79 -52 105 -59 174 -45 47
10 38 19 -32 31 -87 15 -167 50 -167 74 0 12 7 19 20 19 11 0 20 5 20 10 0 6
-9 10 -20 10 -11 0 -20 6 -20 14 0 8 9 18 20 21 11 3 20 11 20 16 0 5 -9 9
-20 9 -11 0 -20 7 -20 15 0 8 9 15 20 15 11 0 20 5 20 10 0 6 -9 10 -20 10
-16 0 -20 7 -20 35 0 24 -5 35 -15 35 -11 0 -15 -11 -15 -40z"/>
<path d="M310 3489 c0 -81 24 -77 28 4 2 46 0 57 -13 57 -12 0 -15 -13 -15
-61z"/>
<path d="M260 3487 c0 -14 20 -37 32 -37 15 0 8 38 -8 44 -22 8 -24 8 -24 -7z"/>
<path d="M170 3070 c0 -29 -4 -40 -15 -40 -8 0 -15 -4 -15 -10 0 -5 7 -10 15
-10 8 0 15 -6 15 -14 0 -14 -8 -18 -62 -30 -16 -4 -28 -11 -28 -16 0 -13 31
-13 64 0 25 9 26 8 25 -28 0 -32 -1 -34 -9 -14 -11 26 -40 30 -40 5 0 -10 -9
-33 -21 -52 -27 -45 -14 -54 21 -13 l27 33 78 -50 c79 -52 105 -59 174 -45 47
10 38 19 -32 31 -87 15 -167 50 -167 74 0 12 7 19 20 19 11 0 20 5 20 10 0 6
-9 10 -20 10 -11 0 -20 6 -20 14 0 8 9 18 20 21 11 3 20 11 20 16 0 5 -9 9
-20 9 -11 0 -20 7 -20 15 0 8 9 15 20 15 11 0 20 5 20 10 0 6 -9 10 -20 10
-16 0 -20 7 -20 35 0 24 -5 35 -15 35 -11 0 -15 -11 -15 -40z"/>
<path d="M310 3039 c0 -81 24 -77 28 4 2 46 0 57 -13 57 -12 0 -15 -13 -15
-61z"/>
<path d="M366 3045 c-10 -15 -15 -29 -13 -32 8 -8 58 29 54 40 -7 21 -25 17
-41 -8z"/>
<path d="M260 3037 c0 -14 20 -37 32 -37 15 0 8 38 -8 44 -22 8 -24 8 -24 -7z"/>
<path d="M170 2620 c0 -29 -4 -40 -15 -40 -8 0 -15 -4 -15 -10 0 -5 7 -10 15
-10 8 0 15 -6 15 -14 0 -14 -8 -18 -62 -30 -16 -4 -28 -11 -28 -16 0 -13 31
-13 64 0 25 9 26 8 25 -28 0 -32 -1 -34 -9 -14 -11 26 -40 30 -40 5 0 -10 -9
-33 -21 -52 -27 -45 -14 -54 21 -13 l27 33 78 -50 c79 -52 105 -59 174 -45 47
10 38 19 -32 31 -87 15 -167 50 -167 74 0 12 7 19 20 19 11 0 20 5 20 10 0 6
-9 10 -20 10 -11 0 -20 6 -20 14 0 8 9 18 20 21 11 3 20 11 20 16 0 5 -9 9
-20 9 -11 0 -20 7 -20 15 0 8 9 15 20 15 11 0 20 5 20 10 0 6 -9 10 -20 10
-16 0 -20 7 -20 35 0 24 -5 35 -15 35 -11 0 -15 -11 -15 -40z"/>
<path d="M310 2589 c0 -81 24 -77 28 4 2 46 0 57 -13 57 -12 0 -15 -13 -15
-61z"/>
<path d="M366 2595 c-10 -15 -15 -29 -13 -32 8 -8 58 29 54 40 -7 21 -25 17
-41 -8z"/>
<path d="M260 2587 c0 -14 20 -37 32 -37 15 0 8 38 -8 44 -22 8 -24 8 -24 -7z"/>
<path d="M251 2480 c0 -33 3 -60 8 -60 12 0 26 84 17 105 -12 32 -23 12 -25
-45z"/>
<path d="M170 2170 c0 -29 -4 -40 -15 -40 -8 0 -15 -4 -15 -10 0 -5 7 -10 15
-10 8 0 15 -6 15 -14 0 -14 -8 -18 -62 -30 -16 -4 -28 -11 -28 -16 0 -13 31
-13 64 0 25 9 26 8 25 -28 0 -32 -1 -34 -9 -14 -11 26 -40 30 -40 5 0 -10 -9
-33 -21 -52 -27 -45 -14 -54 21 -13 l27 33 78 -50 c79 -52 105 -59 174 -45 47
10 38 19 -32 31 -87 15 -167 50 -167 74 0 12 7 19 20 19 11 0 20 5 20 10 0 6
-9 10 -20 10 -11 0 -20 6 -20 14 0 8 9 18 20 21 11 3 20 11 20 16 0 5 -9 9
-20 9 -11 0 -20 7 -20 15 0 8 9 15 20 15 11 0 20 5 20 10 0 6 -9 10 -20 10
-16 0 -20 7 -20 35 0 24 -5 35 -15 35 -11 0 -15 -11 -15 -40z"/>
<path d="M310 2145 c0 -56 -4 -61 -46 -56 -7 1 -12 -21 -13 -59 -1 -73 16 -80
25 -10 6 47 8 50 35 50 29 0 29 0 29 65 0 51 -3 65 -15 65 -12 0 -15 -13 -15
-55z"/>
<path d="M366 2145 c-10 -15 -15 -29 -13 -32 8 -8 58 29 54 40 -7 21 -25 17
-41 -8z"/>
<path d="M260 2137 c0 -14 20 -37 32 -37 15 0 8 38 -8 44 -22 8 -24 8 -24 -7z"/>
<path d="M350 2091 c0 -5 7 -11 15 -15 10 -4 15 -20 15 -51 0 -39 -3 -45 -21
-45 -23 0 -21 -18 4 -34 24 -16 34 0 46 74 8 49 8 66 -2 72 -17 11 -57 10 -57
-1z"/>
<path d="M170 1720 c0 -29 -4 -40 -15 -40 -8 0 -15 -4 -15 -10 0 -5 7 -10 15
-10 8 0 15 -6 15 -14 0 -14 -8 -18 -62 -30 -16 -4 -28 -11 -28 -16 0 -13 31
-13 64 0 25 9 26 8 25 -28 0 -32 -1 -34 -9 -14 -11 26 -40 30 -40 5 0 -10 -9
-33 -21 -52 -27 -45 -14 -54 21 -13 l27 33 78 -50 c79 -52 105 -59 174 -45 47
10 38 19 -32 31 -87 15 -167 50 -167 74 0 12 7 19 20 19 11 0 20 5 20 10 0 6
-9 10 -20 10 -11 0 -20 6 -20 14 0 8 9 18 20 21 11 3 20 11 20 16 0 5 -9 9
-20 9 -11 0 -20 7 -20 15 0 8 9 15 20 15 11 0 20 5 20 10 0 6 -9 10 -20 10
-16 0 -20 7 -20 35 0 24 -5 35 -15 35 -11 0 -15 -11 -15 -40z"/>
<path d="M310 1695 c0 -56 -4 -61 -46 -56 -7 1 -12 -21 -13 -59 -1 -73 16 -80
25 -10 6 47 8 50 35 50 29 0 29 0 29 65 0 51 -3 65 -15 65 -12 0 -15 -13 -15
-55z"/>
<path d="M366 1695 c-10 -15 -15 -29 -13 -32 8 -8 58 29 54 40 -7 21 -25 17
-41 -8z"/>
<path d="M260 1687 c0 -14 20 -37 32 -37 15 0 8 38 -8 44 -22 8 -24 8 -24 -7z"/>
<path d="M350 1641 c0 -5 7 -11 15 -15 10 -4 15 -20 15 -51 0 -39 -3 -45 -21
-45 -23 0 -21 -18 4 -34 24 -16 34 0 46 74 8 49 8 66 -2 72 -17 11 -57 10 -57
-1z"/>
<path d="M290 1575 c0 -14 5 -25 10 -25 6 0 10 11 10 25 0 14 -4 25 -10 25 -5
0 -10 -11 -10 -25z"/>
<path d="M170 1270 c0 -29 -4 -40 -15 -40 -8 0 -15 -4 -15 -10 0 -5 7 -10 15
-10 8 0 15 -6 15 -14 0 -14 -8 -18 -62 -30 -16 -4 -28 -11 -28 -16 0 -13 31
-13 64 0 25 9 26 8 25 -28 0 -32 -1 -34 -9 -14 -11 26 -40 30 -40 5 0 -10 -9
-33 -21 -52 -27 -45 -14 -54 21 -13 l27 33 78 -50 c79 -52 105 -59 174 -45 47
10 38 19 -32 31 -87 15 -167 50 -167 74 0 12 7 19 20 19 11 0 20 5 20 10 0 6
-9 10 -20 10 -11 0 -20 6 -20 14 0 8 9 18 20 21 11 3 20 11 20 16 0 5 -9 9
-20 9 -11 0 -20 7 -20 15 0 8 9 15 20 15 11 0 20 5 20 10 0 6 -9 10 -20 10
-16 0 -20 7 -20 35 0 24 -5 35 -15 35 -11 0 -15 -11 -15 -40z"/>
<path d="M310 1245 c0 -56 -4 -61 -46 -56 -7 1 -12 -21 -13 -59 -1 -73 16 -80
25 -10 6 47 8 50 35 50 29 0 29 0 29 65 0 51 -3 65 -15 65 -12 0 -15 -13 -15
-55z"/>
<path d="M366 1245 c-10 -15 -15 -29 -13 -32 8 -8 58 29 54 40 -7 21 -25 17
-41 -8z"/>
<path d="M260 1237 c0 -14 20 -37 32 -37 15 0 8 38 -8 44 -22 8 -24 8 -24 -7z"/>
<path d="M350 1191 c0 -5 7 -11 15 -15 10 -4 15 -20 15 -51 0 -39 -3 -45 -21
-45 -23 0 -21 -18 4 -34 24 -16 34 0 46 74 8 49 8 66 -2 72 -17 11 -57 10 -57
-1z"/>
<path d="M337 1133 c-3 -15 -3 -30 0 -33 7 -7 34 32 30 44 -7 22 -25 15 -30
-11z"/>
<path d="M290 1125 c0 -14 5 -25 10 -25 6 0 10 11 10 25 0 14 -4 25 -10 25 -5
0 -10 -11 -10 -25z"/>
<path d="M170 820 c0 -29 -4 -40 -15 -40 -8 0 -15 -4 -15 -10 0 -5 7 -10 15
-10 8 0 15 -6 15 -14 0 -14 -8 -18 -62 -30 -16 -4 -28 -11 -28 -16 0 -13 31
-13 64 0 25 9 26 8 25 -28 0 -32 -1 -34 -9 -14 -11 26 -40 30 -40 5 0 -10 -9
-33 -21 -52 -27 -45 -14 -54 21 -13 l27 33 78 -50 c79 -52 105 -59 174 -45 47
10 38 19 -32 31 -87 15 -167 50 -167 74 0 12 7 19 20 19 11 0 20 5 20 10 0 6
-9 10 -20 10 -11 0 -20 6 -20 14 0 8 9 18 20 21 11 3 20 11 20 16 0 5 -9 9
-20 9 -11 0 -20 7 -20 15 0 8 9 15 20 15 11 0 20 5 20 10 0 6 -9 10 -20 10
-16 0 -20 7 -20 35 0 24 -5 35 -15 35 -11 0 -15 -11 -15 -40z"/>
<path d="M310 795 c0 -56 -4 -61 -46 -56 -7 1 -12 -21 -13 -59 -1 -73 16 -80
25 -10 6 47 8 50 35 50 29 0 29 0 29 65 0 51 -3 65 -15 65 -12 0 -15 -13 -15
-55z"/>
<path d="M366 795 c-10 -15 -15 -29 -13 -32 8 -8 58 29 54 40 -7 21 -25 17
-41 -8z"/>
<path d="M260 787 c0 -14 20 -37 32 -37 15 0 8 38 -8 44 -22 8 -24 8 -24 -7z"/>
<path d="M350 741 c0 -5 7 -11 15 -15 10 -4 15 -20 15 -51 0 -39 -3 -45 -21
-45 -23 0 -21 -18 4 -34 24 -16 34 0 46 74 8 49 8 66 -2 72 -17 11 -57 10 -57
-1z"/>
<path d="M337 683 c-3 -15 -3 -30 0 -33 7 -7 34 32 30 44 -7 22 -25 15 -30
-11z"/>
<path d="M290 675 c0 -14 5 -25 10 -25 6 0 10 11 10 25 0 14 -4 25 -10 25 -5
0 -10 -11 -10 -25z"/>
</g>
</svg>
