<?xml version="1.0" standalone="no"?>
<!DOCTYPE svg PUBLIC "-//W3C//DTD SVG 20010904//EN"
 "http://www.w3.org/TR/2001/REC-SVG-20010904/DTD/svg10.dtd">
<svg version="1.0" xmlns="http://www.w3.org/2000/svg"
 width="50.000000pt" height="725.000000pt" viewBox="0 0 50.000000 725.000000"
 preserveAspectRatio="xMidYMid meet">
<metadata>
Created by potrace 1.16, written by Peter Selinger 2001-2019
</metadata>
<g transform="translate(0.000000,725.000000) scale(0.100000,-0.100000)"
fill="#000000" stroke="none">
<path d="M104 7078 c3 -13 6 -31 6 -40 0 -10 5 -18 10 -18 6 0 10 18 10 40 0
30 -4 40 -16 40 -12 0 -15 -6 -10 -22z"/>
<path d="M158 6663 c-24 -6 -23 -23 2 -23 15 0 20 -7 20 -25 0 -34 15 -32 30
4 18 45 2 58 -52 44z"/>
<path d="M104 6628 c3 -13 6 -31 6 -40 0 -10 5 -18 10 -18 6 0 10 18 10 40 0
30 -4 40 -16 40 -12 0 -15 -6 -10 -22z"/>
<path d="M158 6213 c-24 -6 -23 -23 2 -23 13 0 20 -7 20 -20 0 -15 -7 -20 -25
-20 -20 0 -25 5 -25 25 0 16 -6 25 -15 25 -13 0 -15 -7 -9 -37 4 -21 7 -39 8
-40 1 -1 20 1 42 4 35 4 42 10 53 39 18 49 4 62 -51 47z"/>
<path d="M158 5763 c-24 -6 -23 -23 2 -23 13 0 20 -7 20 -20 0 -15 -7 -20 -25
-20 -20 0 -25 5 -25 25 0 16 -6 25 -16 25 -12 0 -15 -6 -10 -22 3 -13 6 -30 6
-39 0 -9 9 -19 20 -22 17 -4 20 -14 20 -56 0 -28 5 -51 10 -51 6 0 10 22 10
49 0 27 6 56 13 63 19 20 40 75 32 87 -6 11 -26 12 -57 4z"/>
<path d="M158 5313 c-24 -6 -23 -23 2 -23 13 0 20 -7 20 -20 0 -15 -7 -20 -25
-20 -20 0 -25 5 -25 25 0 16 -6 25 -16 25 -12 0 -15 -6 -10 -22 3 -13 6 -30 6
-39 0 -9 9 -19 20 -22 17 -4 20 -14 20 -56 0 -28 5 -51 10 -51 6 0 10 13 10
29 0 20 6 30 20 34 11 3 20 10 20 17 0 7 -8 9 -20 5 -23 -7 -26 7 -7 27 19 20
40 75 32 87 -6 11 -26 12 -57 4z"/>
<path d="M158 4863 c-24 -6 -23 -23 2 -23 13 0 20 -7 20 -20 0 -15 -7 -20 -25
-20 -20 0 -25 5 -25 25 0 16 -6 25 -16 25 -12 0 -15 -6 -10 -22 3 -13 6 -30 6
-39 0 -9 9 -19 20 -22 17 -4 20 -14 20 -56 0 -28 5 -51 10 -51 6 0 10 13 10
29 0 20 6 30 20 34 11 3 20 10 20 17 0 7 -8 9 -20 5 -23 -7 -26 7 -7 27 19 20
40 75 32 87 -6 11 -26 12 -57 4z"/>
<path d="M94 4718 c3 -13 6 -33 6 -45 0 -13 5 -23 10 -23 6 0 10 20 10 45 0
35 -4 45 -16 45 -12 0 -15 -6 -10 -22z"/>
<path d="M158 4413 c-24 -6 -23 -23 2 -23 13 0 20 -7 20 -20 0 -15 -7 -20 -25
-20 -20 0 -25 5 -25 25 0 16 -6 25 -16 25 -12 0 -15 -6 -10 -22 3 -13 6 -30 6
-39 0 -9 9 -19 20 -22 16 -4 20 -14 20 -51 0 -34 -4 -46 -15 -46 -10 0 -15 11
-15 35 0 25 -4 35 -15 35 -13 0 -15 -7 -9 -37 5 -29 3 -39 -12 -50 -13 -10
-15 -16 -7 -24 9 -9 28 -5 77 16 65 28 90 51 41 39 -20 -5 -25 -3 -25 14 0 11
8 22 20 25 11 3 20 10 20 17 0 7 -8 9 -20 5 -23 -7 -26 7 -7 27 19 20 40 75
32 87 -6 11 -26 12 -57 4z"/>
<path d="M158 3963 c-24 -6 -23 -23 2 -23 13 0 20 -7 20 -20 0 -15 -7 -20 -25
-20 -20 0 -25 5 -25 25 0 16 -6 25 -16 25 -12 0 -15 -6 -10 -22 3 -13 6 -30 6
-39 0 -9 9 -19 20 -22 16 -4 20 -14 20 -51 0 -34 -4 -46 -15 -46 -10 0 -15 11
-15 35 0 25 -4 35 -15 35 -13 0 -15 -7 -9 -37 5 -29 3 -39 -12 -50 -13 -10
-15 -16 -6 -25 8 -8 26 -5 71 15 44 19 58 22 54 11 -8 -21 11 -17 34 9 29 32
55 86 49 103 -10 26 -34 15 -40 -18 -9 -45 -17 -55 -49 -63 -23 -6 -27 -4 -27
13 0 11 8 22 20 25 11 3 20 10 20 17 0 7 -8 9 -20 5 -23 -7 -26 7 -7 27 19 20
40 75 32 87 -6 11 -26 12 -57 4z"/>
<path d="M158 3513 c-24 -6 -23 -23 2 -23 13 0 20 -7 20 -20 0 -15 -7 -20 -25
-20 -20 0 -25 5 -25 25 0 16 -6 25 -16 25 -12 0 -15 -6 -10 -22 3 -13 6 -30 6
-39 0 -9 9 -19 20 -22 16 -4 20 -14 20 -51 0 -34 -4 -46 -15 -46 -10 0 -15 11
-15 35 0 25 -4 35 -15 35 -13 0 -15 -7 -9 -37 5 -29 3 -39 -12 -50 -13 -10
-15 -16 -6 -25 8 -8 26 -5 71 15 44 19 58 22 54 11 -8 -21 11 -17 34 9 29 32
55 86 49 103 -10 26 -34 15 -40 -18 -9 -45 -17 -55 -49 -63 -23 -6 -27 -4 -27
13 0 11 8 22 20 25 11 3 20 10 20 17 0 7 -8 9 -20 5 -23 -7 -26 7 -7 27 19 20
40 75 32 87 -6 11 -26 12 -57 4z"/>
<path d="M280 3502 c0 -5 3 -12 8 -16 4 -4 18 -46 32 -94 l25 -87 43 -9 c49
-10 66 -1 37 20 -46 32 -64 57 -88 121 -15 41 -31 69 -41 71 -9 2 -16 -1 -16
-6z"/>
</g>
</svg>
