<?xml version="1.0" standalone="no"?>
<!DOCTYPE svg PUBLIC "-//W3C//DTD SVG 20010904//EN"
 "http://www.w3.org/TR/2001/REC-SVG-20010904/DTD/svg10.dtd">
<svg version="1.0" xmlns="http://www.w3.org/2000/svg"
 width="50.000000pt" height="725.000000pt" viewBox="0 0 50.000000 725.000000"
 preserveAspectRatio="xMidYMid meet">
<metadata>
Created by potrace 1.16, written by Peter Selinger 2001-2019
</metadata>
<g transform="translate(0.000000,725.000000) scale(0.100000,-0.100000)"
fill="#000000" stroke="none">
<path d="M143 7137 c-62 -14 -55 -31 9 -23 59 8 63 10 53 25 -7 12 -4 12 -62
-2z"/>
<path d="M143 6687 c-47 -11 -56 -24 -20 -29 16 -2 23 -11 25 -30 4 -31 22
-38 22 -9 0 30 11 51 27 51 16 0 13 22 -3 26 -5 1 -28 -3 -51 -9z"/>
<path d="M143 6237 c-47 -11 -56 -24 -20 -29 16 -2 22 -10 22 -28 0 -20 -6
-26 -27 -28 -16 -2 -28 -9 -28 -17 0 -25 30 -24 75 3 46 28 60 48 25 37 -11
-3 -20 -2 -20 4 0 21 13 41 27 41 16 0 13 22 -3 26 -5 1 -28 -3 -51 -9z"/>
<path d="M143 5787 c-47 -11 -56 -24 -20 -29 16 -2 22 -10 22 -28 0 -20 -6
-26 -27 -28 -16 -2 -28 -9 -28 -17 0 -25 30 -24 75 3 46 28 60 48 25 37 -11
-3 -20 -2 -20 4 0 21 13 41 27 41 16 0 13 22 -3 26 -5 1 -28 -3 -51 -9z"/>
<path d="M240 5768 c0 -13 -9 -38 -21 -57 -23 -39 -18 -52 11 -26 21 19 43 82
34 97 -10 16 -24 8 -24 -14z"/>
<path d="M268 5358 c-27 -6 -48 -14 -48 -19 0 -5 5 -9 10 -9 16 0 11 -33 -11
-69 -11 -18 -17 -36 -14 -39 10 -10 44 32 57 72 17 51 42 62 33 14 -7 -35 8
-87 28 -100 7 -4 25 -8 41 -8 25 0 28 3 22 23 -3 12 -6 25 -6 30 0 14 -20 7
-20 -8 0 -19 -14 -19 -30 0 -8 9 -10 27 -6 47 16 81 16 81 -56 66z"/>
<path d="M143 5337 c-47 -11 -56 -24 -20 -29 16 -2 22 -10 22 -28 0 -20 -6
-26 -27 -28 -16 -2 -28 -9 -28 -17 0 -25 30 -24 75 3 46 28 60 48 25 37 -11
-3 -20 -2 -20 4 0 21 13 41 27 41 16 0 13 22 -3 26 -5 1 -28 -3 -51 -9z"/>
<path d="M268 4908 c-27 -6 -48 -14 -48 -19 0 -5 5 -9 10 -9 6 0 10 -7 10 -15
0 -8 -5 -15 -11 -15 -6 0 -9 -6 -6 -14 3 -7 -1 -24 -10 -35 -20 -29 -9 -39 17
-16 23 21 70 27 70 9 0 -22 31 -44 62 -44 27 0 30 3 24 23 -3 12 -6 25 -6 30
0 14 -20 7 -20 -8 0 -19 -14 -19 -30 0 -8 9 -10 27 -6 47 16 81 16 81 -56 66z
m28 -40 c-3 -13 -6 -30 -6 -38 0 -12 -3 -12 -16 2 -13 12 -14 20 -5 37 16 28
35 27 27 -1z"/>
<path d="M143 4887 c-47 -11 -56 -24 -20 -29 16 -2 22 -10 22 -28 0 -20 -6
-26 -27 -28 -16 -2 -28 -9 -28 -17 0 -25 30 -24 75 3 46 28 60 48 25 37 -11
-3 -20 -2 -20 4 0 21 13 41 27 41 16 0 13 22 -3 26 -5 1 -28 -3 -51 -9z"/>
<path d="M268 4458 c-27 -6 -48 -14 -48 -19 0 -5 5 -9 10 -9 6 0 10 -7 10 -15
0 -8 -5 -15 -11 -15 -6 0 -9 -6 -6 -14 3 -7 -1 -24 -10 -35 -20 -29 -9 -39 17
-16 23 21 70 27 70 9 0 -22 31 -44 62 -44 27 0 30 3 24 23 -3 12 -6 25 -6 30
0 14 -20 7 -20 -8 0 -19 -14 -19 -30 0 -8 9 -10 27 -6 47 16 81 16 81 -56 66z
m28 -40 c-3 -13 -6 -30 -6 -38 0 -12 -3 -12 -16 2 -13 12 -14 20 -5 37 16 28
35 27 27 -1z"/>
<path d="M143 4437 c-47 -11 -56 -24 -20 -29 16 -2 22 -10 22 -28 0 -20 -6
-26 -27 -28 -16 -2 -28 -9 -28 -17 0 -25 30 -24 75 3 46 28 60 48 25 37 -11
-3 -20 -2 -20 4 0 21 13 41 27 41 16 0 13 22 -3 26 -5 1 -28 -3 -51 -9z"/>
<path d="M164 4294 c3 -9 6 -22 6 -30 0 -8 5 -14 10 -14 6 0 10 14 10 30 0 21
-5 30 -16 30 -11 0 -14 -5 -10 -16z"/>
<path d="M268 4008 c-27 -6 -48 -14 -48 -19 0 -5 5 -9 10 -9 6 0 10 -7 10 -15
0 -8 -4 -15 -9 -15 -6 0 -9 -8 -8 -17 1 -25 -32 -73 -50 -73 -10 0 -13 -6 -9
-16 3 -9 6 -22 6 -30 0 -8 5 -14 10 -14 6 0 10 11 10 25 0 20 5 25 25 25 14 0
25 5 25 10 0 6 -5 10 -12 10 -8 0 -6 6 4 17 23 22 66 23 71 1 4 -14 0 -16 -26
-11 -26 5 -29 4 -24 -11 4 -10 7 -24 7 -32 0 -20 23 -17 37 5 10 16 20 18 54
14 41 -6 42 -5 36 18 -4 13 -7 27 -7 32 0 14 -20 7 -20 -8 0 -19 -14 -19 -30
0 -8 9 -10 27 -6 47 16 81 16 81 -56 66z m28 -40 c-3 -13 -6 -30 -6 -38 0 -12
-3 -12 -16 2 -13 12 -14 20 -5 37 16 28 35 27 27 -1z"/>
<path d="M143 3987 c-47 -11 -56 -24 -20 -29 16 -2 22 -10 22 -28 0 -20 -6
-26 -27 -28 -16 -2 -28 -9 -28 -17 0 -25 30 -24 75 3 46 28 60 48 25 37 -11
-3 -20 -2 -20 4 0 21 13 41 27 41 16 0 13 22 -3 26 -5 1 -28 -3 -51 -9z"/>
<path d="M268 3558 c-27 -6 -48 -14 -48 -19 0 -5 5 -9 10 -9 6 0 10 -7 10 -15
0 -8 -4 -15 -9 -15 -6 0 -9 -8 -8 -17 1 -24 -32 -73 -49 -73 -11 0 -13 -7 -8
-27 4 -16 8 -30 10 -32 2 -2 27 0 56 3 42 5 56 12 63 29 9 19 16 21 54 19 42
-4 44 -3 38 20 -4 12 -7 26 -7 31 0 14 -20 7 -20 -8 0 -19 -14 -19 -30 0 -8 9
-10 27 -6 47 16 81 16 81 -56 66z m28 -40 c-3 -13 -6 -30 -6 -38 0 -12 -3 -12
-16 2 -13 12 -14 20 -5 37 16 28 35 27 27 -1z m7 -80 c4 -14 0 -16 -25 -11
-27 5 -29 4 -22 -21 4 -18 2 -26 -7 -26 -8 0 -24 -3 -36 -6 -17 -5 -23 -2 -23
10 0 10 9 16 25 16 14 0 25 5 25 10 0 6 -5 10 -12 10 -7 0 -5 7 5 18 20 22 65
22 70 0z"/>
<path d="M143 3537 c-47 -11 -56 -24 -20 -29 16 -2 22 -10 22 -28 0 -20 -6
-26 -27 -28 -16 -2 -28 -9 -28 -17 0 -25 30 -24 75 3 46 28 60 48 25 37 -11
-3 -20 -2 -20 4 0 21 13 41 27 41 16 0 13 22 -3 26 -5 1 -28 -3 -51 -9z"/>
<path d="M268 3108 c-27 -6 -48 -14 -48 -19 0 -5 5 -9 10 -9 6 0 10 -7 10 -15
0 -8 -4 -15 -9 -15 -6 0 -9 -8 -8 -17 1 -25 -32 -73 -50 -73 -10 0 -13 -6 -9
-16 3 -9 6 -22 6 -30 0 -8 9 -14 20 -14 16 0 20 -7 20 -30 0 -20 5 -30 15 -30
10 0 15 11 15 35 0 30 3 35 23 35 14 0 26 9 32 23 9 19 16 22 54 19 42 -4 44
-3 38 20 -4 12 -7 26 -7 31 0 14 -20 7 -20 -8 0 -19 -14 -19 -30 0 -8 9 -10
27 -6 47 16 81 16 81 -56 66z m28 -40 c-3 -13 -6 -30 -6 -38 0 -12 -3 -12 -16
2 -13 12 -14 20 -5 37 16 28 35 27 27 -1z m7 -80 c4 -14 0 -16 -25 -11 -27 5
-29 4 -22 -21 4 -18 2 -26 -7 -26 -8 0 -24 -3 -36 -6 -17 -5 -23 -2 -23 10 0
10 9 16 25 16 14 0 25 5 25 10 0 6 -5 10 -12 10 -7 0 -5 7 5 18 20 22 65 22
70 0z"/>
<path d="M143 3087 c-47 -11 -56 -24 -20 -29 16 -2 22 -10 22 -28 0 -20 -6
-26 -27 -28 -16 -2 -28 -9 -28 -17 0 -25 30 -24 75 3 46 28 60 48 25 37 -11
-3 -20 -2 -20 4 0 21 13 41 27 41 16 0 13 22 -3 26 -5 1 -28 -3 -51 -9z"/>
<path d="M268 2658 c-27 -6 -48 -14 -48 -19 0 -5 5 -9 10 -9 6 0 10 -7 10 -15
0 -8 -4 -15 -9 -15 -6 0 -9 -8 -8 -17 1 -25 -32 -73 -50 -73 -10 0 -13 -6 -9
-16 3 -9 6 -22 6 -30 0 -8 9 -14 20 -14 16 0 20 -7 20 -30 0 -20 5 -30 15 -30
8 0 15 7 15 15 0 10 10 15 30 15 17 0 30 5 30 10 0 6 -13 10 -30 10 -16 0 -30
5 -30 10 0 6 10 10 23 10 14 0 26 9 32 23 9 19 16 22 54 19 42 -4 44 -3 38 20
-4 12 -7 26 -7 31 0 14 -20 7 -20 -8 0 -19 -14 -19 -30 0 -8 9 -10 27 -6 47
16 81 16 81 -56 66z m28 -40 c-3 -13 -6 -30 -6 -38 0 -12 -3 -12 -16 2 -13 12
-14 20 -5 37 16 28 35 27 27 -1z m7 -80 c4 -14 0 -16 -25 -11 -27 5 -29 4 -22
-21 4 -18 2 -26 -7 -26 -8 0 -24 -3 -36 -6 -17 -5 -23 -2 -23 10 0 10 9 16 25
16 14 0 25 5 25 10 0 6 -5 10 -12 10 -7 0 -5 7 5 18 20 22 65 22 70 0z"/>
<path d="M143 2637 c-47 -11 -56 -24 -20 -29 16 -2 22 -10 22 -28 0 -20 -6
-26 -27 -28 -16 -2 -28 -9 -28 -17 0 -25 30 -24 75 3 46 28 60 48 25 37 -11
-3 -20 -2 -20 4 0 21 13 41 27 41 16 0 13 22 -3 26 -5 1 -28 -3 -51 -9z"/>
<path d="M268 2208 c-27 -6 -48 -14 -48 -19 0 -5 5 -9 10 -9 6 0 10 -7 10 -15
0 -8 -4 -15 -9 -15 -6 0 -9 -8 -8 -17 1 -24 -32 -73 -49 -73 -10 0 -13 -7 -8
-25 4 -15 2 -25 -5 -25 -6 0 -11 -6 -11 -14 0 -7 -11 -30 -25 -51 -15 -20 -24
-39 -21 -42 10 -10 48 25 64 59 21 46 42 49 42 8 0 -20 5 -30 15 -30 8 0 15 7
15 15 0 10 10 15 30 15 17 0 30 5 30 10 0 6 -13 10 -30 10 -16 0 -30 5 -30 10
0 6 10 10 23 10 14 0 26 9 32 23 9 19 16 22 54 19 42 -4 44 -3 38 20 -4 12 -7
26 -7 31 0 14 -20 7 -20 -8 0 -19 -14 -19 -30 0 -8 9 -10 27 -6 47 16 81 16
81 -56 66z m28 -40 c-3 -13 -6 -30 -6 -38 0 -12 -3 -12 -16 2 -13 12 -14 20
-5 37 16 28 35 27 27 -1z m7 -80 c4 -14 0 -16 -25 -11 -27 5 -29 4 -22 -21 4
-18 2 -26 -7 -26 -8 0 -24 -3 -36 -6 -17 -5 -23 -2 -23 10 0 10 9 16 25 16 14
0 25 5 25 10 0 6 -5 10 -12 10 -7 0 -5 7 5 18 20 22 65 22 70 0z"/>
<path d="M143 2187 c-47 -11 -56 -24 -20 -29 16 -2 22 -10 22 -28 0 -20 -6
-26 -27 -28 -16 -2 -28 -9 -28 -17 0 -25 30 -24 75 3 46 28 60 48 25 37 -11
-3 -20 -2 -20 4 0 21 13 41 27 41 16 0 13 22 -3 26 -5 1 -28 -3 -51 -9z"/>
<path d="M268 1758 c-27 -6 -48 -14 -48 -19 0 -5 5 -9 10 -9 6 0 10 -7 10 -15
0 -8 -4 -15 -9 -15 -6 0 -9 -8 -8 -17 1 -24 -32 -73 -49 -73 -10 0 -13 -7 -8
-25 4 -15 2 -25 -5 -25 -6 0 -11 -6 -11 -14 0 -7 -11 -30 -25 -50 -14 -20 -25
-39 -25 -41 0 -12 20 -3 42 19 l24 25 88 -41 c87 -40 89 -40 122 -24 46 21 43
36 -7 36 -58 0 -129 20 -129 36 0 9 11 14 30 14 17 0 30 5 30 10 0 6 -13 10
-30 10 -16 0 -30 5 -30 10 0 6 10 10 23 10 14 0 26 9 32 23 9 19 16 22 54 19
42 -4 44 -3 38 20 -4 12 -7 26 -7 31 0 14 -20 7 -20 -8 0 -19 -14 -19 -30 0
-8 9 -10 27 -6 47 16 81 16 81 -56 66z m28 -40 c-3 -13 -6 -30 -6 -38 0 -12
-3 -12 -16 2 -13 12 -14 20 -5 37 16 28 35 27 27 -1z m7 -80 c4 -14 0 -16 -25
-11 -27 5 -29 4 -22 -21 4 -18 2 -26 -7 -26 -8 0 -24 -3 -36 -6 -17 -5 -23 -2
-23 10 0 10 9 16 25 16 14 0 25 5 25 10 0 6 -5 10 -12 10 -7 0 -5 7 5 18 20
22 65 22 70 0z m-93 -108 c0 -11 -7 -20 -15 -20 -8 0 -15 9 -15 20 0 11 7 20
15 20 8 0 15 -9 15 -20z"/>
<path d="M143 1737 c-47 -11 -56 -24 -20 -29 16 -2 22 -10 22 -28 0 -20 -6
-26 -27 -28 -16 -2 -28 -9 -28 -17 0 -25 30 -24 75 3 46 28 60 48 25 37 -11
-3 -20 -2 -20 4 0 21 13 41 27 41 16 0 13 22 -3 26 -5 1 -28 -3 -51 -9z"/>
</g>
</svg>
