<?xml version="1.0" standalone="no"?>
<!DOCTYPE svg PUBLIC "-//W3C//DTD SVG 20010904//EN"
 "http://www.w3.org/TR/2001/REC-SVG-20010904/DTD/svg10.dtd">
<svg version="1.0" xmlns="http://www.w3.org/2000/svg"
 width="50.000000pt" height="725.000000pt" viewBox="0 0 50.000000 725.000000"
 preserveAspectRatio="xMidYMid meet">
<metadata>
Created by potrace 1.16, written by Peter Selinger 2001-2019
</metadata>
<g transform="translate(0.000000,725.000000) scale(0.100000,-0.100000)"
fill="#000000" stroke="none">
<path d="M104 7093 c3 -10 8 -30 12 -45 10 -43 26 -33 22 14 -2 32 -8 44 -21
46 -14 3 -18 -1 -13 -15z"/>
<path d="M137 6663 c-30 -3 -37 -8 -33 -21 3 -9 8 -29 12 -44 9 -39 24 -35 24
7 0 28 4 35 20 35 15 0 20 -7 20 -25 0 -14 4 -25 9 -25 13 0 42 60 35 71 -5 9
-15 9 -87 2z"/>
<path d="M137 6213 c-30 -3 -37 -8 -33 -21 3 -9 8 -29 12 -44 7 -30 13 -32 63
-22 23 5 31 12 31 28 0 12 5 27 11 33 6 6 8 16 5 22 -7 11 -16 11 -89 4z m43
-42 c0 -10 -9 -21 -20 -24 -16 -4 -20 0 -20 19 0 17 6 24 20 24 13 0 20 -7 20
-19z"/>
<path d="M137 5763 c-30 -3 -37 -8 -33 -21 3 -9 8 -29 12 -44 3 -16 12 -28 20
-28 10 0 14 -16 14 -61 0 -44 3 -60 13 -57 7 3 13 28 15 66 2 46 7 62 17 62 9
0 15 10 15 23 0 13 5 28 11 34 6 6 8 16 5 22 -7 11 -16 11 -89 4z m43 -42 c0
-10 -9 -21 -20 -24 -16 -4 -20 0 -20 19 0 17 6 24 20 24 13 0 20 -7 20 -19z"/>
<path d="M137 5313 c-30 -3 -37 -8 -33 -21 3 -9 8 -29 12 -44 3 -16 12 -28 20
-28 10 0 14 -16 14 -61 0 -44 3 -60 13 -57 6 3 13 17 15 32 2 18 11 30 23 33
25 7 25 23 -1 23 -13 0 -20 7 -20 20 0 11 7 20 15 20 9 0 15 9 15 23 0 13 5
28 11 34 6 6 8 16 5 22 -7 11 -16 11 -89 4z m43 -42 c0 -10 -9 -21 -20 -24
-16 -4 -20 0 -20 19 0 17 6 24 20 24 13 0 20 -7 20 -19z"/>
<path d="M137 4863 c-30 -3 -37 -8 -33 -21 3 -9 8 -29 12 -44 3 -16 12 -28 20
-28 10 0 14 -16 14 -61 0 -44 3 -60 13 -57 6 3 13 17 15 32 2 18 11 30 23 33
25 7 25 23 -1 23 -13 0 -20 7 -20 20 0 11 7 20 15 20 9 0 15 9 15 23 0 13 5
28 11 34 6 6 8 16 5 22 -7 11 -16 11 -89 4z m43 -42 c0 -10 -9 -21 -20 -24
-16 -4 -20 0 -20 19 0 17 6 24 20 24 13 0 20 -7 20 -19z"/>
<path d="M100 4712 c0 -46 8 -72 22 -72 14 0 5 103 -9 108 -9 2 -13 -9 -13
-36z"/>
<path d="M137 4413 c-30 -3 -37 -8 -33 -21 3 -9 8 -29 12 -44 3 -16 12 -28 20
-28 10 0 14 -15 14 -54 0 -68 -18 -84 -22 -20 -2 29 -8 49 -17 52 -10 3 -12
-7 -10 -47 3 -43 1 -51 -13 -51 -20 0 -24 -25 -7 -35 12 -8 119 33 119 46 0 5
-4 9 -10 9 -19 0 -10 42 10 47 11 3 20 9 20 14 0 5 -9 9 -20 9 -13 0 -20 7
-20 20 0 11 7 20 15 20 9 0 15 9 15 23 0 13 5 28 11 34 6 6 8 16 5 22 -7 11
-16 11 -89 4z m43 -42 c0 -10 -9 -21 -20 -24 -16 -4 -20 0 -20 19 0 17 6 24
20 24 13 0 20 -7 20 -19z"/>
<path d="M260 4005 c0 -16 26 -55 37 -55 20 0 16 38 -6 50 -21 11 -31 13 -31
5z"/>
<path d="M137 3963 c-30 -3 -37 -8 -33 -21 3 -9 8 -29 12 -44 3 -16 12 -28 20
-28 10 0 14 -15 14 -54 0 -68 -18 -84 -22 -20 -2 29 -8 49 -17 52 -10 3 -12
-7 -10 -47 3 -43 1 -51 -13 -51 -20 0 -24 -25 -7 -35 12 -8 119 33 119 46 0 5
-4 9 -10 9 -19 0 -10 42 10 47 11 3 20 9 20 14 0 5 -9 9 -20 9 -13 0 -20 7
-20 20 0 11 7 20 15 20 9 0 15 9 15 23 0 13 5 28 11 34 6 6 8 16 5 22 -7 11
-16 11 -89 4z m43 -42 c0 -10 -9 -21 -20 -24 -16 -4 -20 0 -20 19 0 17 6 24
20 24 13 0 20 -7 20 -19z"/>
<path d="M265 3543 c4 -10 7 -26 7 -37 -1 -15 5 -17 29 -14 l31 5 -7 -55 c-9
-69 12 -68 32 2 18 60 11 80 -22 74 -17 -4 -25 -1 -25 8 0 7 -9 18 -19 24 -28
14 -34 13 -26 -7z"/>
<path d="M137 3513 c-30 -3 -37 -8 -33 -21 3 -9 8 -29 12 -44 3 -16 12 -28 20
-28 10 0 14 -15 14 -54 0 -68 -18 -84 -22 -20 -2 29 -8 49 -17 52 -10 3 -12
-7 -10 -47 3 -43 1 -51 -13 -51 -20 0 -24 -25 -7 -35 12 -8 119 33 119 46 0 5
-4 9 -10 9 -19 0 -10 42 10 47 11 3 20 9 20 14 0 5 -9 9 -20 9 -13 0 -20 7
-20 20 0 11 7 20 15 20 9 0 15 9 15 23 0 13 5 28 11 34 6 6 8 16 5 22 -7 11
-16 11 -89 4z m43 -42 c0 -10 -9 -21 -20 -24 -16 -4 -20 0 -20 19 0 17 6 24
20 24 13 0 20 -7 20 -19z"/>
<path d="M265 3093 c4 -10 7 -26 7 -37 -1 -15 5 -17 29 -14 42 6 37 -18 -6
-26 -19 -4 -35 -12 -35 -18 0 -6 12 -8 33 -4 33 6 33 6 29 -25 -7 -50 19 -31
35 25 18 60 11 80 -22 74 -17 -4 -25 -1 -25 8 0 7 -9 18 -19 24 -28 14 -34 13
-26 -7z"/>
<path d="M137 3063 c-30 -3 -37 -8 -33 -21 3 -9 8 -29 12 -44 3 -16 12 -28 20
-28 10 0 14 -15 14 -54 0 -68 -18 -84 -22 -20 -2 29 -8 49 -17 52 -10 3 -12
-7 -10 -47 3 -43 1 -51 -13 -51 -20 0 -24 -25 -7 -35 12 -8 119 33 119 46 0 5
-4 9 -10 9 -19 0 -10 42 10 47 11 3 20 9 20 14 0 5 -9 9 -20 9 -13 0 -20 7
-20 20 0 11 7 20 15 20 9 0 15 9 15 23 0 13 5 28 11 34 6 6 8 16 5 22 -7 11
-16 11 -89 4z m43 -42 c0 -10 -9 -21 -20 -24 -16 -4 -20 0 -20 19 0 17 6 24
20 24 13 0 20 -7 20 -19z"/>
<path d="M265 2643 c4 -10 7 -26 7 -37 -1 -15 5 -17 29 -14 42 6 37 -18 -6
-26 -19 -4 -35 -12 -35 -18 0 -6 13 -8 35 -4 29 6 34 4 29 -9 -4 -9 -18 -15
-35 -15 -38 0 -37 -20 1 -21 17 -1 35 -2 41 -3 14 -1 43 90 35 111 -4 10 -15
14 -31 11 -17 -4 -25 -1 -25 8 0 7 -9 18 -19 24 -28 14 -34 13 -26 -7z"/>
<path d="M137 2613 c-30 -3 -37 -8 -33 -21 3 -9 8 -29 12 -44 3 -16 12 -28 20
-28 10 0 14 -15 14 -54 0 -68 -18 -84 -22 -20 -2 29 -8 49 -17 52 -10 3 -12
-7 -10 -47 3 -43 1 -51 -13 -51 -20 0 -24 -25 -7 -35 12 -8 119 33 119 46 0 5
-4 9 -10 9 -19 0 -10 42 10 47 11 3 20 9 20 14 0 5 -9 9 -20 9 -13 0 -20 7
-20 20 0 11 7 20 15 20 9 0 15 9 15 23 0 13 5 28 11 34 6 6 8 16 5 22 -7 11
-16 11 -89 4z m43 -42 c0 -10 -9 -21 -20 -24 -16 -4 -20 0 -20 19 0 17 6 24
20 24 13 0 20 -7 20 -19z"/>
<path d="M265 2193 c12 -32 10 -38 -10 -34 -24 4 -146 3 -151 -1 -9 -9 20 -88
32 -88 10 0 14 -15 14 -54 0 -68 -18 -84 -22 -20 -2 29 -8 49 -17 52 -10 3
-12 -7 -10 -47 3 -43 1 -51 -13 -51 -20 0 -24 -25 -7 -35 12 -8 119 33 119 46
0 5 -4 9 -10 9 -19 0 -10 42 10 47 11 3 20 9 20 14 0 5 -9 9 -20 9 -13 0 -20
7 -20 20 0 11 7 20 15 20 9 0 15 9 15 24 0 34 17 41 24 11 6 -23 1 -120 -9
-185 -2 -14 0 -32 5 -40 7 -12 15 -9 40 15 35 33 39 49 10 40 -18 -6 -20 -2
-20 50 l0 57 41 -4 42 -3 14 49 c18 60 11 80 -22 74 -17 -4 -25 -1 -25 8 0 7
-9 18 -19 24 -28 14 -34 13 -26 -7z m64 -67 c-2 -2 -16 -6 -31 -10 -21 -5 -28
-3 -28 8 0 16 52 27 59 13 1 -5 1 -10 0 -11z m-149 -5 c0 -10 -9 -21 -20 -24
-16 -4 -20 0 -20 19 0 17 6 24 20 24 13 0 20 -7 20 -19z m144 -36 c-4 -9 -19
-15 -35 -15 -34 0 -39 17 -6 23 42 8 46 7 41 -8z"/>
<path d="M265 1743 c12 -32 10 -38 -10 -34 -24 4 -146 3 -151 -1 -9 -9 20 -88
32 -88 10 0 14 -15 14 -54 0 -68 -18 -84 -22 -20 -2 29 -8 49 -17 52 -10 3
-12 -7 -10 -47 3 -43 1 -51 -13 -51 -20 0 -24 -25 -7 -35 12 -8 119 33 119 46
0 5 -4 9 -10 9 -19 0 -10 42 10 47 11 3 20 9 20 14 0 5 -9 9 -20 9 -13 0 -20
7 -20 20 0 11 7 20 15 20 9 0 15 9 15 24 0 34 17 41 24 11 6 -23 1 -120 -9
-185 -2 -14 0 -32 5 -40 7 -12 15 -9 40 15 35 33 39 49 10 40 -18 -6 -20 -2
-20 50 l0 57 41 -4 42 -3 14 49 c18 60 11 80 -22 74 -17 -4 -25 -1 -25 8 0 7
-9 18 -19 24 -28 14 -34 13 -26 -7z m64 -67 c-2 -2 -16 -6 -31 -10 -21 -5 -28
-3 -28 8 0 16 52 27 59 13 1 -5 1 -10 0 -11z m-149 -5 c0 -10 -9 -21 -20 -24
-16 -4 -20 0 -20 19 0 17 6 24 20 24 13 0 20 -7 20 -19z m144 -36 c-4 -9 -19
-15 -35 -15 -34 0 -39 17 -6 23 42 8 46 7 41 -8z"/>
<path d="M337 1574 c-11 -14 -16 -28 -13 -31 10 -11 57 20 54 36 -5 24 -22 22
-41 -5z"/>
<path d="M265 1293 c12 -32 10 -38 -10 -34 -24 4 -146 3 -151 -1 -9 -9 20 -88
32 -88 10 0 14 -15 14 -54 0 -68 -18 -84 -22 -20 -2 29 -8 49 -17 52 -10 3
-12 -7 -10 -47 3 -43 1 -51 -13 -51 -20 0 -24 -25 -7 -35 12 -8 119 33 119 46
0 5 -4 9 -10 9 -19 0 -10 42 10 47 11 3 20 9 20 14 0 5 -9 9 -20 9 -13 0 -20
7 -20 20 0 11 7 20 15 20 9 0 15 9 15 24 0 34 17 41 24 11 6 -23 1 -120 -9
-185 -2 -14 0 -32 5 -40 7 -12 15 -9 40 15 35 33 39 49 10 40 -18 -6 -20 -2
-20 50 l0 57 41 -4 42 -3 14 49 c18 60 11 80 -22 74 -17 -4 -25 -1 -25 8 0 7
-9 18 -19 24 -28 14 -34 13 -26 -7z m64 -67 c-2 -2 -16 -6 -31 -10 -21 -5 -28
-3 -28 8 0 16 52 27 59 13 1 -5 1 -10 0 -11z m-149 -5 c0 -10 -9 -21 -20 -24
-16 -4 -20 0 -20 19 0 17 6 24 20 24 13 0 20 -7 20 -19z m144 -36 c-4 -9 -19
-15 -35 -15 -34 0 -39 17 -6 23 42 8 46 7 41 -8z"/>
<path d="M337 1124 c-18 -24 -20 -25 -38 -8 -38 34 -29 5 16 -55 41 -54 50
-61 81 -61 44 0 45 22 0 38 -18 7 -41 20 -50 30 -15 17 -14 19 9 32 14 8 24
20 23 29 -5 24 -22 22 -41 -5z"/>
</g>
</svg>
