<?xml version="1.0" standalone="no"?>
<!DOCTYPE svg PUBLIC "-//W3C//DTD SVG 20010904//EN"
 "http://www.w3.org/TR/2001/REC-SVG-20010904/DTD/svg10.dtd">
<svg version="1.0" xmlns="http://www.w3.org/2000/svg"
 width="95.000000pt" height="725.000000pt" viewBox="0 0 95.000000 725.000000"
 preserveAspectRatio="xMidYMid meet">
<metadata>
Created by potrace 1.16, written by Peter Selinger 2001-2019
</metadata>
<g transform="translate(0.000000,725.000000) scale(0.100000,-0.100000)"
fill="#000000" stroke="none">
<path d="M210 7177 c0 -14 24 -57 32 -57 15 0 8 -30 -8 -37 -19 -7 -38 18 -21
29 16 10 8 15 -39 20 -36 5 -42 3 -57 -24 -17 -29 -15 -48 4 -48 5 0 15 11 21
25 12 27 38 34 38 10 0 -8 -4 -15 -10 -15 -5 0 -10 -4 -10 -10 0 -5 8 -10 18
-10 15 0 15 -2 2 -11 -11 -8 -12 -12 -2 -16 24 -10 11 -23 -23 -23 -19 0 -35
-4 -35 -10 0 -5 12 -10 28 -10 27 0 27 -1 -16 -41 -24 -23 -41 -43 -39 -46 6
-6 64 24 72 37 9 15 25 12 25 -5 0 -8 -4 -15 -9 -15 -13 0 -55 -69 -47 -77 3
-3 15 2 26 12 20 18 22 18 89 -15 55 -26 75 -31 105 -26 20 4 36 11 36 15 0
11 -25 21 -53 21 -37 0 -98 21 -92 31 4 5 19 9 36 9 16 0 29 5 29 10 0 6 -13
10 -30 10 -16 0 -30 5 -30 10 0 6 6 10 14 10 8 0 18 9 21 20 6 20 7 20 37 -5
33 -28 88 -34 88 -11 0 8 -12 17 -28 20 -15 4 -41 15 -57 26 -28 18 -28 20 -7
20 14 0 22 6 22 16 0 13 -7 15 -35 11 -21 -3 -33 -2 -30 4 4 5 13 9 21 9 20 0
18 18 -3 23 -17 4 -17 5 0 6 21 1 23 21 2 21 -8 0 -15 7 -15 15 0 9 9 15 25
15 16 0 25 -6 25 -16 0 -11 5 -14 16 -10 9 3 22 6 30 6 20 0 17 27 -4 39 -9 5
-38 7 -65 4 -39 -5 -47 -3 -47 11 0 9 -4 16 -9 16 -5 0 -16 3 -25 6 -9 3 -16
4 -16 1z m40 -117 c0 -5 -10 -10 -22 -9 -22 0 -22 1 -3 9 11 5 21 9 23 9 1 1
2 -3 2 -9z m-7 -37 c-7 -2 -19 -2 -25 0 -7 3 -2 5 12 5 14 0 19 -2 13 -5z m15
-50 c-4 -33 -42 -45 -50 -16 -8 29 2 43 28 43 22 0 25 -4 22 -27z m-38 -73 c0
-19 -11 -26 -23 -14 -8 8 3 34 14 34 5 0 9 -9 9 -20z"/>
<path d="M220 6970 c0 -5 7 -10 15 -10 8 0 15 5 15 10 0 6 -7 10 -15 10 -8 0
-15 -4 -15 -10z"/>
<path d="M660 7173 c0 -18 27 -46 38 -39 14 9 16 36 3 36 -5 0 -16 3 -25 6 -9
3 -16 2 -16 -3z"/>
<path d="M660 6723 c0 -18 27 -46 38 -39 14 9 16 36 3 36 -5 0 -16 3 -25 6 -9
3 -16 2 -16 -3z"/>
<path d="M567 6658 c-13 -23 -15 -34 -7 -42 15 -14 40 18 40 51 0 32 -12 29
-33 -9z"/>
<path d="M660 6277 c0 -4 5 -18 12 -32 10 -22 17 -25 60 -25 37 0 48 -4 48
-16 0 -11 5 -14 16 -10 9 3 22 6 30 6 20 0 17 27 -4 39 -9 5 -38 7 -65 4 -39
-5 -47 -3 -47 11 0 9 -4 16 -9 16 -5 0 -16 3 -25 6 -9 3 -16 4 -16 1z"/>
<path d="M567 6209 c-17 -30 -15 -49 4 -49 5 0 15 11 21 25 9 19 19 25 45 25
18 0 33 5 33 10 0 6 -13 10 -29 10 -16 0 -35 2 -43 5 -7 3 -20 -8 -31 -26z"/>
<path d="M660 5827 c0 -4 5 -18 12 -32 10 -22 17 -25 60 -25 37 0 48 -4 48
-16 0 -11 5 -14 16 -10 9 3 22 6 30 6 20 0 17 27 -4 39 -9 5 -38 7 -65 4 -39
-5 -47 -3 -47 11 0 9 -4 16 -9 16 -5 0 -16 3 -25 6 -9 3 -16 4 -16 1z"/>
<path d="M567 5759 c-17 -30 -15 -49 4 -49 5 0 15 11 21 25 9 19 19 25 45 25
18 0 33 5 33 10 0 6 -13 10 -29 10 -16 0 -35 2 -43 5 -7 3 -20 -8 -31 -26z"/>
<path d="M700 5730 c0 -5 14 -10 30 -10 17 0 30 5 30 10 0 6 -13 10 -30 10
-16 0 -30 -4 -30 -10z"/>
<path d="M610 5720 c0 -5 18 -10 40 -10 22 0 40 5 40 10 0 6 -18 10 -40 10
-22 0 -40 -4 -40 -10z"/>
<path d="M660 5377 c0 -4 5 -18 12 -32 10 -22 17 -25 60 -25 37 0 48 -4 48
-16 0 -11 5 -14 16 -10 9 3 22 6 30 6 20 0 17 27 -4 39 -9 5 -38 7 -65 4 -39
-5 -47 -3 -47 11 0 9 -4 16 -9 16 -5 0 -16 3 -25 6 -9 3 -16 4 -16 1z"/>
<path d="M567 5309 c-17 -30 -15 -49 4 -49 5 0 15 11 21 25 9 19 19 25 45 25
18 0 33 5 33 10 0 6 -13 10 -29 10 -16 0 -35 2 -43 5 -7 3 -20 -8 -31 -26z"/>
<path d="M700 5280 c0 -5 14 -10 30 -10 17 0 30 5 30 10 0 6 -13 10 -30 10
-16 0 -30 -4 -30 -10z"/>
<path d="M610 5270 c0 -5 18 -10 40 -10 22 0 40 5 40 10 0 6 -18 10 -40 10
-22 0 -40 -4 -40 -10z"/>
<path d="M668 5253 c-27 -2 -48 -8 -48 -14 0 -10 47 -12 103 -3 40 7 52 25 15
22 -13 -1 -44 -3 -70 -5z"/>
<path d="M660 4927 c0 -4 5 -18 12 -32 10 -22 17 -25 60 -25 37 0 48 -4 48
-16 0 -11 5 -14 16 -10 9 3 22 6 30 6 20 0 17 27 -4 39 -9 5 -38 7 -65 4 -39
-5 -47 -3 -47 11 0 9 -4 16 -9 16 -5 0 -16 3 -25 6 -9 3 -16 4 -16 1z"/>
<path d="M567 4858 c-17 -29 -15 -48 4 -48 5 0 15 11 21 25 12 27 38 34 38 10
0 -8 -4 -15 -10 -15 -5 0 -10 -4 -10 -10 0 -5 8 -10 18 -10 15 0 15 -2 2 -11
-11 -8 -12 -12 -2 -16 6 -2 12 -11 12 -19 0 -8 5 -14 10 -14 6 0 10 6 10 14 0
9 17 16 50 21 68 9 66 28 -2 21 -29 -3 -45 -3 -35 0 20 6 23 24 3 24 -18 0
-29 27 -13 33 19 7 5 14 -39 19 -36 5 -42 3 -57 -24z"/>
<path d="M700 4830 c0 -5 14 -10 30 -10 17 0 30 5 30 10 0 6 -13 10 -30 10
-16 0 -30 -4 -30 -10z"/>
<path d="M660 4477 c0 -14 24 -57 32 -57 15 0 8 -30 -8 -37 -19 -7 -38 18 -21
29 16 10 8 15 -39 20 -36 5 -42 3 -57 -24 -17 -29 -15 -48 4 -48 5 0 15 11 21
25 12 27 38 34 38 10 0 -8 -4 -15 -10 -15 -5 0 -10 -4 -10 -10 0 -5 8 -10 18
-10 15 0 15 -2 2 -11 -11 -8 -12 -12 -2 -16 6 -2 12 -11 12 -19 0 -8 5 -14 10
-14 6 0 10 7 10 15 0 18 36 20 44 3 3 -9 8 -8 16 5 6 9 18 17 25 17 21 0 19
18 -2 23 -17 4 -17 5 0 6 21 1 23 21 2 21 -8 0 -15 7 -15 15 0 9 9 15 25 15
16 0 25 -6 25 -16 0 -11 5 -14 16 -10 9 3 22 6 30 6 20 0 17 27 -4 39 -9 5
-38 7 -65 4 -39 -5 -47 -3 -47 11 0 9 -4 16 -9 16 -5 0 -16 3 -25 6 -9 3 -16
4 -16 1z m40 -117 c0 -5 -10 -10 -22 -9 -22 0 -22 1 -3 9 11 5 21 9 23 9 1 1
2 -3 2 -9z"/>
<path d="M660 4027 c0 -14 24 -57 32 -57 15 0 8 -30 -8 -37 -19 -7 -38 18 -21
29 16 10 8 15 -39 20 -36 5 -42 3 -57 -24 -17 -29 -15 -48 4 -48 5 0 15 11 21
25 12 27 38 34 38 10 0 -8 -4 -15 -10 -15 -5 0 -10 -4 -10 -10 0 -5 8 -10 18
-10 15 0 15 -2 2 -11 -11 -8 -12 -12 -2 -16 24 -10 11 -23 -23 -23 -20 0 -35
-5 -35 -11 0 -8 16 -10 53 -5 28 3 78 6 110 6 46 0 57 3 57 16 0 13 -7 15 -35
11 -21 -3 -33 -2 -30 4 4 5 13 9 21 9 20 0 18 18 -3 23 -17 4 -17 5 0 6 21 1
23 21 2 21 -8 0 -15 7 -15 15 0 9 9 15 25 15 16 0 25 -6 25 -16 0 -11 5 -14
16 -10 9 3 22 6 30 6 20 0 17 27 -4 39 -9 5 -38 7 -65 4 -39 -5 -47 -3 -47 11
0 9 -4 16 -9 16 -5 0 -16 3 -25 6 -9 3 -16 4 -16 1z m40 -117 c0 -5 -10 -10
-22 -9 -22 0 -22 1 -3 9 11 5 21 9 23 9 1 1 2 -3 2 -9z m-7 -37 c-7 -2 -19 -2
-25 0 -7 3 -2 5 12 5 14 0 19 -2 13 -5z"/>
<path d="M660 3577 c0 -14 24 -57 32 -57 15 0 8 -30 -8 -37 -19 -7 -38 18 -21
29 16 10 8 15 -39 20 -36 5 -42 3 -57 -24 -17 -29 -15 -48 4 -48 5 0 15 11 21
25 12 27 38 34 38 10 0 -8 -4 -15 -10 -15 -5 0 -10 -4 -10 -10 0 -5 8 -10 18
-10 15 0 15 -2 2 -11 -11 -8 -12 -12 -2 -16 24 -10 11 -23 -23 -23 -19 0 -35
-4 -35 -10 0 -5 12 -10 28 -10 27 0 27 -1 -16 -41 -24 -23 -41 -43 -39 -46 10
-9 64 26 95 61 29 34 35 36 92 36 49 0 60 3 60 16 0 13 -7 15 -35 11 -21 -3
-33 -2 -30 4 4 5 13 9 21 9 20 0 18 18 -3 23 -17 4 -17 5 0 6 21 1 23 21 2 21
-8 0 -15 7 -15 15 0 9 9 15 25 15 16 0 25 -6 25 -16 0 -11 5 -14 16 -10 9 3
22 6 30 6 20 0 17 27 -4 39 -9 5 -38 7 -65 4 -39 -5 -47 -3 -47 11 0 9 -4 16
-9 16 -5 0 -16 3 -25 6 -9 3 -16 4 -16 1z m40 -117 c0 -5 -10 -10 -22 -9 -22
0 -22 1 -3 9 11 5 21 9 23 9 1 1 2 -3 2 -9z m-7 -37 c-7 -2 -19 -2 -25 0 -7 3
-2 5 12 5 14 0 19 -2 13 -5z"/>
<path d="M660 3127 c0 -14 24 -57 32 -57 15 0 8 -30 -8 -37 -19 -7 -38 18 -21
29 16 10 8 15 -39 20 -36 5 -42 3 -57 -24 -17 -29 -15 -48 4 -48 5 0 15 11 21
25 12 27 38 34 38 10 0 -8 -4 -15 -10 -15 -5 0 -10 -4 -10 -10 0 -5 8 -10 18
-10 15 0 15 -2 2 -11 -11 -8 -12 -12 -2 -16 24 -10 11 -23 -23 -23 -19 0 -35
-4 -35 -10 0 -5 12 -10 28 -10 27 0 27 -1 -16 -41 -24 -23 -41 -43 -39 -46 10
-9 64 26 95 61 17 20 39 36 49 36 10 0 40 -18 67 -40 32 -26 58 -40 77 -40 38
0 39 26 1 34 -15 4 -41 15 -57 26 -28 18 -28 20 -7 20 14 0 22 6 22 16 0 13
-7 15 -35 11 -21 -3 -33 -2 -30 4 4 5 13 9 21 9 20 0 18 18 -3 23 -17 4 -17 5
0 6 21 1 23 21 2 21 -8 0 -15 7 -15 15 0 9 9 15 25 15 16 0 25 -6 25 -16 0
-11 5 -14 16 -10 9 3 22 6 30 6 20 0 17 27 -4 39 -9 5 -38 7 -65 4 -39 -5 -47
-3 -47 11 0 9 -4 16 -9 16 -5 0 -16 3 -25 6 -9 3 -16 4 -16 1z m40 -117 c0 -5
-10 -10 -22 -9 -22 0 -22 1 -3 9 11 5 21 9 23 9 1 1 2 -3 2 -9z m-7 -37 c-7
-2 -19 -2 -25 0 -7 3 -2 5 12 5 14 0 19 -2 13 -5z"/>
<path d="M660 2677 c0 -14 24 -57 32 -57 15 0 8 -30 -8 -37 -19 -7 -38 18 -21
29 16 10 8 15 -39 20 -36 5 -42 3 -57 -24 -17 -29 -15 -48 4 -48 5 0 15 11 21
25 12 27 38 34 38 10 0 -8 -4 -15 -10 -15 -5 0 -10 -4 -10 -10 0 -5 8 -10 18
-10 15 0 15 -2 2 -11 -11 -8 -12 -12 -2 -16 24 -10 11 -23 -23 -23 -19 0 -35
-4 -35 -10 0 -5 12 -10 28 -10 27 0 27 -1 -16 -41 -24 -23 -41 -43 -39 -46 6
-6 64 24 72 37 9 15 25 12 25 -5 0 -8 5 -15 11 -15 7 0 9 11 6 27 -12 65 27
71 97 13 32 -26 58 -40 77 -40 38 0 39 26 1 34 -15 4 -41 15 -57 26 -28 18
-28 20 -7 20 14 0 22 6 22 16 0 13 -7 15 -35 11 -21 -3 -33 -2 -30 4 4 5 13 9
21 9 20 0 18 18 -3 23 -17 4 -17 5 0 6 21 1 23 21 2 21 -8 0 -15 7 -15 15 0 9
9 15 25 15 16 0 25 -6 25 -16 0 -11 5 -14 16 -10 9 3 22 6 30 6 20 0 17 27 -4
39 -9 5 -38 7 -65 4 -39 -5 -47 -3 -47 11 0 9 -4 16 -9 16 -5 0 -16 3 -25 6
-9 3 -16 4 -16 1z m40 -117 c0 -5 -10 -10 -22 -9 -22 0 -22 1 -3 9 11 5 21 9
23 9 1 1 2 -3 2 -9z m-7 -37 c-7 -2 -19 -2 -25 0 -7 3 -2 5 12 5 14 0 19 -2
13 -5z"/>
<path d="M660 2227 c0 -14 24 -57 32 -57 15 0 8 -30 -8 -37 -19 -7 -38 18 -21
29 16 10 8 15 -39 20 -36 5 -42 3 -57 -24 -17 -29 -15 -48 4 -48 5 0 15 11 21
25 12 27 38 34 38 10 0 -8 -4 -15 -10 -15 -5 0 -10 -4 -10 -10 0 -5 8 -10 18
-10 15 0 15 -2 2 -11 -11 -8 -12 -12 -2 -16 24 -10 11 -23 -23 -23 -19 0 -35
-4 -35 -10 0 -5 12 -10 28 -10 27 0 27 -1 -16 -41 -24 -23 -41 -43 -39 -46 6
-6 64 24 72 37 9 15 25 12 25 -5 0 -8 5 -15 11 -15 6 0 10 12 9 28 -3 46 -1
52 25 52 22 0 25 -4 25 -35 0 -38 15 -47 25 -15 6 20 7 20 37 -5 33 -28 88
-34 88 -11 0 8 -12 17 -28 20 -15 4 -41 15 -57 26 -28 18 -28 20 -7 20 14 0
22 6 22 16 0 13 -7 15 -35 11 -21 -3 -33 -2 -30 4 4 5 13 9 21 9 20 0 18 18
-3 23 -17 4 -17 5 0 6 21 1 23 21 2 21 -8 0 -15 7 -15 15 0 9 9 15 25 15 16 0
25 -6 25 -16 0 -11 5 -14 16 -10 9 3 22 6 30 6 20 0 17 27 -4 39 -9 5 -38 7
-65 4 -39 -5 -47 -3 -47 11 0 9 -4 16 -9 16 -5 0 -16 3 -25 6 -9 3 -16 4 -16
1z m40 -117 c0 -5 -10 -10 -22 -9 -22 0 -22 1 -3 9 11 5 21 9 23 9 1 1 2 -3 2
-9z m-7 -37 c-7 -2 -19 -2 -25 0 -7 3 -2 5 12 5 14 0 19 -2 13 -5z"/>
<path d="M670 2020 c0 -5 7 -10 15 -10 8 0 15 5 15 10 0 6 -7 10 -15 10 -8 0
-15 -4 -15 -10z"/>
<path d="M660 1777 c0 -14 24 -57 32 -57 15 0 8 -30 -8 -37 -19 -7 -38 18 -21
29 16 10 8 15 -39 20 -36 5 -42 3 -57 -24 -17 -29 -15 -48 4 -48 5 0 15 11 21
25 12 27 38 34 38 10 0 -8 -4 -15 -10 -15 -5 0 -10 -4 -10 -10 0 -5 8 -10 18
-10 15 0 15 -2 2 -11 -11 -8 -12 -12 -2 -16 24 -10 11 -23 -23 -23 -19 0 -35
-4 -35 -10 0 -5 12 -10 28 -10 27 0 27 -1 -16 -41 -24 -23 -41 -43 -39 -46 6
-6 64 24 72 37 9 15 25 12 25 -5 0 -29 86 -14 95 16 6 19 8 18 37 -6 33 -28
88 -34 88 -11 0 8 -12 17 -28 20 -15 4 -41 15 -57 26 -28 18 -28 20 -7 20 14
0 22 6 22 16 0 13 -7 15 -35 11 -21 -3 -33 -2 -30 4 4 5 13 9 21 9 20 0 18 18
-3 23 -17 4 -17 5 0 6 21 1 23 21 2 21 -8 0 -15 7 -15 15 0 9 9 15 25 15 16 0
25 -6 25 -16 0 -11 5 -14 16 -10 9 3 22 6 30 6 20 0 17 27 -4 39 -9 5 -38 7
-65 4 -39 -5 -47 -3 -47 11 0 9 -4 16 -9 16 -5 0 -16 3 -25 6 -9 3 -16 4 -16
1z m40 -117 c0 -5 -10 -10 -22 -9 -22 0 -22 1 -3 9 11 5 21 9 23 9 1 1 2 -3 2
-9z m-7 -37 c-7 -2 -19 -2 -25 0 -7 3 -2 5 12 5 14 0 19 -2 13 -5z m15 -50
c-4 -33 -42 -45 -50 -16 -8 29 2 43 28 43 22 0 25 -4 22 -27z"/>
<path d="M670 1570 c0 -5 7 -10 15 -10 8 0 15 5 15 10 0 6 -7 10 -15 10 -8 0
-15 -4 -15 -10z"/>
<path d="M660 1327 c0 -14 24 -57 32 -57 15 0 8 -30 -8 -37 -19 -7 -38 18 -21
29 16 10 8 15 -39 20 -36 5 -42 3 -57 -24 -17 -29 -15 -48 4 -48 5 0 15 11 21
25 12 27 38 34 38 10 0 -8 -4 -15 -10 -15 -5 0 -10 -4 -10 -10 0 -5 8 -10 18
-10 15 0 15 -2 2 -11 -11 -8 -12 -12 -2 -16 24 -10 11 -23 -23 -23 -19 0 -35
-4 -35 -10 0 -5 12 -10 28 -10 27 0 27 -1 -16 -41 -24 -23 -41 -43 -39 -46 6
-6 64 24 72 37 9 15 25 12 25 -5 0 -8 7 -15 15 -15 10 0 15 -10 15 -30 0 -41
18 -38 26 5 3 19 12 35 19 35 8 0 17 9 20 20 6 20 7 20 37 -5 33 -28 88 -34
88 -11 0 8 -12 17 -28 20 -15 4 -41 15 -57 26 -28 18 -28 20 -7 20 14 0 22 6
22 16 0 13 -7 15 -35 11 -21 -3 -33 -2 -30 4 4 5 13 9 21 9 20 0 18 18 -3 23
-17 4 -17 5 0 6 21 1 23 21 2 21 -8 0 -15 7 -15 15 0 9 9 15 25 15 16 0 25 -6
25 -16 0 -11 5 -14 16 -10 9 3 22 6 30 6 20 0 17 27 -4 39 -9 5 -38 7 -65 4
-39 -5 -47 -3 -47 11 0 9 -4 16 -9 16 -5 0 -16 3 -25 6 -9 3 -16 4 -16 1z m40
-117 c0 -5 -10 -10 -22 -9 -22 0 -22 1 -3 9 11 5 21 9 23 9 1 1 2 -3 2 -9z
m-7 -37 c-7 -2 -19 -2 -25 0 -7 3 -2 5 12 5 14 0 19 -2 13 -5z m15 -50 c-4
-33 -42 -45 -50 -16 -8 29 2 43 28 43 22 0 25 -4 22 -27z"/>
<path d="M670 1120 c0 -5 7 -10 15 -10 8 0 15 5 15 10 0 6 -7 10 -15 10 -8 0
-15 -4 -15 -10z"/>
<path d="M660 877 c0 -14 24 -57 32 -57 15 0 8 -30 -8 -37 -19 -7 -38 18 -21
29 16 10 8 15 -39 20 -36 5 -42 3 -57 -24 -17 -29 -15 -48 4 -48 5 0 15 11 21
25 12 27 38 34 38 10 0 -8 -4 -15 -10 -15 -5 0 -10 -4 -10 -10 0 -5 8 -10 18
-10 15 0 15 -2 2 -11 -11 -8 -12 -12 -2 -16 24 -10 11 -23 -23 -23 -19 0 -35
-4 -35 -10 0 -5 12 -10 28 -10 27 0 27 -1 -16 -41 -24 -23 -41 -43 -39 -46 6
-6 64 24 72 37 9 15 25 12 25 -5 0 -8 7 -15 15 -15 10 0 15 -10 15 -30 0 -32
14 -40 24 -15 3 9 18 15 36 15 16 0 30 5 30 10 0 6 -13 10 -30 10 -16 0 -30 5
-30 10 0 6 6 10 14 10 8 0 18 9 21 20 6 20 7 20 37 -5 33 -28 88 -34 88 -11 0
8 -12 17 -28 20 -15 4 -41 15 -57 26 -28 18 -28 20 -7 20 14 0 22 6 22 16 0
13 -7 15 -35 11 -21 -3 -33 -2 -30 4 4 5 13 9 21 9 20 0 18 18 -3 23 -17 4
-17 5 0 6 21 1 23 21 2 21 -8 0 -15 7 -15 15 0 9 9 15 25 15 16 0 25 -6 25
-16 0 -11 5 -14 16 -10 9 3 22 6 30 6 20 0 17 27 -4 39 -9 5 -38 7 -65 4 -39
-5 -47 -3 -47 11 0 9 -4 16 -9 16 -5 0 -16 3 -25 6 -9 3 -16 4 -16 1z m40
-117 c0 -5 -10 -10 -22 -9 -22 0 -22 1 -3 9 11 5 21 9 23 9 1 1 2 -3 2 -9z
m-7 -37 c-7 -2 -19 -2 -25 0 -7 3 -2 5 12 5 14 0 19 -2 13 -5z m15 -50 c-4
-33 -42 -45 -50 -16 -8 29 2 43 28 43 22 0 25 -4 22 -27z"/>
<path d="M670 670 c0 -5 7 -10 15 -10 8 0 15 5 15 10 0 6 -7 10 -15 10 -8 0
-15 -4 -15 -10z"/>
<path d="M660 427 c0 -14 24 -57 32 -57 15 0 8 -30 -8 -37 -19 -7 -38 18 -21
29 16 10 8 15 -39 20 -36 5 -42 3 -57 -24 -17 -29 -15 -48 4 -48 5 0 15 11 21
25 12 27 38 34 38 10 0 -8 -4 -15 -10 -15 -5 0 -10 -4 -10 -10 0 -5 8 -10 18
-10 15 0 15 -2 2 -11 -11 -8 -12 -12 -2 -16 24 -10 11 -23 -23 -23 -19 0 -35
-4 -35 -10 0 -5 12 -10 28 -10 27 0 27 -1 -16 -41 -24 -23 -41 -43 -39 -46 6
-6 64 24 72 37 9 15 25 12 25 -5 0 -8 -4 -15 -9 -15 -13 0 -55 -69 -47 -77 8
-9 54 35 62 59 9 28 24 21 24 -12 0 -32 14 -40 24 -15 3 9 18 15 36 15 16 0
30 5 30 10 0 6 -13 10 -30 10 -16 0 -30 5 -30 10 0 6 6 10 14 10 8 0 18 9 21
20 6 20 7 20 37 -5 33 -28 88 -34 88 -11 0 8 -12 17 -28 20 -15 4 -41 15 -57
26 -28 18 -28 20 -7 20 14 0 22 6 22 16 0 13 -7 15 -35 11 -21 -3 -33 -2 -30
4 4 5 13 9 21 9 20 0 18 18 -3 23 -17 4 -17 5 0 6 21 1 23 21 2 21 -8 0 -15 7
-15 15 0 9 9 15 25 15 16 0 25 -6 25 -16 0 -11 5 -14 16 -10 9 3 22 6 30 6 20
0 17 27 -4 39 -9 5 -38 7 -65 4 -39 -5 -47 -3 -47 11 0 9 -4 16 -9 16 -5 0
-16 3 -25 6 -9 3 -16 4 -16 1z m40 -117 c0 -5 -10 -10 -22 -9 -22 0 -22 1 -3
9 11 5 21 9 23 9 1 1 2 -3 2 -9z m-7 -37 c-7 -2 -19 -2 -25 0 -7 3 -2 5 12 5
14 0 19 -2 13 -5z m15 -50 c-4 -33 -42 -45 -50 -16 -8 29 2 43 28 43 22 0 25
-4 22 -27z"/>
<path d="M670 220 c0 -5 7 -10 15 -10 8 0 15 5 15 10 0 6 -7 10 -15 10 -8 0
-15 -4 -15 -10z"/>
</g>
</svg>
