<?xml version="1.0" standalone="no"?>
<!DOCTYPE svg PUBLIC "-//W3C//DTD SVG 20010904//EN"
 "http://www.w3.org/TR/2001/REC-SVG-20010904/DTD/svg10.dtd">
<svg version="1.0" xmlns="http://www.w3.org/2000/svg"
 width="95.000000pt" height="725.000000pt" viewBox="0 0 95.000000 725.000000"
 preserveAspectRatio="xMidYMid meet">
<metadata>
Created by potrace 1.16, written by Peter Selinger 2001-2019
</metadata>
<g transform="translate(0.000000,725.000000) scale(0.100000,-0.100000)"
fill="#000000" stroke="none">
<path d="M310 7126 c0 -35 -4 -45 -20 -49 -17 -4 -19 -1 -14 19 4 17 2 24 -9
24 -15 0 -34 -66 -23 -77 3 -3 20 0 37 7 18 8 54 14 80 14 27 1 49 6 49 11 0
6 3 20 6 33 5 16 2 22 -10 22 -9 0 -16 -8 -16 -20 0 -15 -7 -20 -25 -20 -22 0
-25 4 -25 40 0 29 -4 40 -15 40 -11 0 -15 -12 -15 -44z"/>
<path d="M142 7117 c-32 -8 -41 -15 -37 -26 4 -9 9 -29 12 -44 4 -18 10 -26
19 -23 11 4 14 -7 14 -49 0 -33 -4 -55 -11 -55 -6 0 -9 15 -7 37 2 28 -1 38
-13 41 -14 3 -16 -4 -12 -42 5 -42 4 -46 -17 -46 -25 0 -23 -23 3 -28 21 -4
107 28 107 39 0 5 -4 9 -10 9 -19 0 -10 42 10 47 11 3 20 9 20 14 0 5 -9 9
-20 9 -11 0 -20 4 -20 8 0 5 9 27 20 50 11 22 20 45 20 50 0 8 -28 25 -33 21
-1 -1 -21 -7 -45 -12z m36 -39 c-4 -29 -38 -38 -38 -10 0 22 8 32 27 32 9 0
13 -8 11 -22z"/>
<path d="M555 7093 c3 -10 9 -30 12 -45 7 -37 23 -36 23 1 0 40 -9 61 -27 61
-10 0 -13 -6 -8 -17z"/>
<path d="M340 6974 c0 -36 -7 -81 -15 -101 -18 -42 -18 -43 -5 -43 15 0 40 56
40 89 0 18 7 35 18 41 12 8 13 13 5 16 -18 8 -16 44 2 44 17 0 17 -2 16 -89
-1 -36 -6 -68 -11 -71 -14 -9 -1 -40 15 -40 21 0 23 8 26 115 l3 100 -47 1
-47 2 0 -64z"/>
<path d="M230 6968 c0 -42 -5 -71 -16 -86 -9 -13 -13 -26 -9 -30 8 -9 45 35
45 54 0 8 9 14 20 14 23 0 26 -21 8 -50 -14 -22 -6 -35 17 -27 11 5 15 22 15
74 0 37 3 78 6 91 5 19 2 22 -20 22 -14 0 -26 -4 -26 -10 0 -5 5 -10 10 -10 6
0 10 -7 10 -15 0 -24 -28 -18 -32 7 -2 12 -9 23 -15 26 -10 3 -13 -14 -13 -60z
m60 -18 c0 -5 -7 -10 -15 -10 -8 0 -15 5 -15 10 0 6 7 10 15 10 8 0 15 -4 15
-10z"/>
<path d="M310 6676 c0 -35 -4 -45 -20 -49 -17 -4 -19 -1 -14 19 4 17 2 24 -9
24 -15 0 -34 -66 -23 -77 3 -3 20 0 37 7 18 8 54 14 80 14 27 1 49 6 49 11 0
6 3 20 6 33 5 16 2 22 -10 22 -9 0 -16 -8 -16 -20 0 -15 -7 -20 -25 -20 -22 0
-25 4 -25 40 0 29 -4 40 -15 40 -11 0 -15 -12 -15 -44z"/>
<path d="M142 6667 c-32 -8 -41 -15 -37 -26 4 -9 9 -29 12 -44 4 -18 10 -26
19 -23 11 4 14 -7 14 -49 0 -33 -4 -55 -11 -55 -6 0 -9 15 -7 37 2 28 -1 38
-13 41 -14 3 -16 -4 -12 -42 5 -42 4 -46 -17 -46 -25 0 -23 -23 3 -28 21 -4
107 28 107 39 0 5 -4 9 -10 9 -19 0 -10 42 10 47 11 3 20 9 20 14 0 5 -9 9
-20 9 -11 0 -20 4 -20 8 0 5 9 27 20 50 11 22 20 45 20 50 0 8 -28 25 -33 21
-1 -1 -21 -7 -45 -12z m36 -39 c-4 -29 -38 -38 -38 -10 0 22 8 32 27 32 9 0
13 -8 11 -22z"/>
<path d="M592 6667 c-32 -8 -41 -15 -37 -26 4 -9 9 -28 12 -43 8 -40 21 -34
25 9 2 27 8 39 21 41 13 3 17 -3 17 -27 0 -42 13 -39 29 5 11 30 11 38 0 45
-8 5 -16 8 -19 7 -3 0 -24 -6 -48 -11z"/>
<path d="M340 6524 c0 -36 -7 -81 -15 -101 -18 -42 -18 -43 -4 -43 14 0 52 88
43 102 -4 6 2 18 12 26 13 10 15 16 7 19 -18 7 -16 43 2 43 8 0 15 -6 16 -12
3 -31 -4 -64 -15 -71 -8 -6 -8 -10 2 -14 15 -6 16 -60 1 -65 -14 -5 0 -38 16
-38 21 0 23 8 26 115 l3 100 -47 1 -47 2 0 -64z"/>
<path d="M230 6518 c0 -42 -5 -71 -16 -86 -9 -13 -13 -26 -9 -30 8 -9 45 35
45 54 0 8 9 14 20 14 23 0 26 -21 8 -50 -14 -22 -6 -35 17 -27 11 5 15 22 15
74 0 37 3 78 6 91 5 19 2 22 -20 22 -14 0 -26 -4 -26 -10 0 -5 5 -10 10 -10 6
0 10 -7 10 -15 0 -24 -28 -18 -32 7 -2 12 -9 23 -15 26 -10 3 -13 -14 -13 -60z
m60 -18 c0 -5 -7 -10 -15 -10 -8 0 -15 5 -15 10 0 6 7 10 15 10 8 0 15 -4 15
-10z"/>
<path d="M592 6217 c-32 -8 -41 -15 -37 -26 4 -9 9 -28 12 -43 5 -24 9 -26 37
-21 37 7 39 9 56 51 11 29 11 35 -1 43 -8 5 -16 8 -19 7 -3 0 -24 -6 -48 -11z
m36 -39 c-4 -29 -38 -38 -38 -10 0 22 8 32 27 32 9 0 13 -8 11 -22z"/>
<path d="M592 5767 c-32 -8 -41 -15 -37 -26 4 -9 9 -29 12 -44 4 -18 10 -26
19 -23 11 4 14 -8 14 -54 0 -47 3 -60 15 -60 11 0 15 13 15 53 0 33 8 69 20
95 11 22 20 45 20 50 0 8 -28 25 -33 21 -1 -1 -21 -7 -45 -12z m36 -39 c-4
-29 -38 -38 -38 -10 0 22 8 32 27 32 9 0 13 -8 11 -22z"/>
<path d="M592 5317 c-32 -8 -41 -15 -37 -26 4 -9 9 -29 12 -44 4 -18 10 -26
19 -23 11 4 14 -8 14 -54 0 -47 3 -60 15 -60 10 0 15 10 15 31 0 22 5 32 20
36 11 3 20 9 20 14 0 5 -9 9 -20 9 -11 0 -20 4 -20 8 0 5 9 27 20 50 11 22 20
45 20 50 0 8 -28 25 -33 21 -1 -1 -21 -7 -45 -12z m36 -39 c-4 -29 -38 -38
-38 -10 0 22 8 32 27 32 9 0 13 -8 11 -22z"/>
<path d="M592 4867 c-32 -8 -41 -15 -37 -26 4 -9 9 -29 12 -44 4 -18 10 -26
19 -23 11 4 14 -8 14 -54 0 -47 3 -60 15 -60 10 0 15 10 15 31 0 22 5 32 20
36 11 3 20 9 20 14 0 5 -9 9 -20 9 -11 0 -20 4 -20 8 0 5 9 27 20 50 11 22 20
45 20 50 0 8 -28 25 -33 21 -1 -1 -21 -7 -45 -12z m36 -39 c-4 -29 -38 -38
-38 -10 0 22 8 32 27 32 9 0 13 -8 11 -22z"/>
<path d="M558 4703 c7 -74 18 -75 23 -3 3 35 1 45 -12 48 -14 3 -16 -4 -11
-45z"/>
<path d="M592 4417 c-32 -8 -41 -15 -37 -26 4 -9 9 -29 12 -44 4 -18 10 -26
19 -23 11 4 14 -7 14 -49 0 -33 -4 -55 -11 -55 -6 0 -9 15 -7 37 2 28 -1 38
-13 41 -14 3 -16 -4 -12 -42 5 -42 4 -46 -17 -46 -25 0 -23 -23 3 -28 21 -4
107 28 107 39 0 5 -4 9 -10 9 -19 0 -10 42 10 47 11 3 20 9 20 14 0 5 -9 9
-20 9 -11 0 -20 4 -20 8 0 5 9 27 20 50 11 22 20 45 20 50 0 8 -28 25 -33 21
-1 -1 -21 -7 -45 -12z m36 -39 c-4 -29 -38 -38 -38 -10 0 22 8 32 27 32 9 0
13 -8 11 -22z"/>
<path d="M760 3975 c0 -33 4 -45 15 -45 11 0 15 12 15 45 0 33 -4 45 -15 45
-11 0 -15 -12 -15 -45z"/>
<path d="M592 3967 c-32 -8 -41 -15 -37 -26 4 -9 9 -29 12 -44 4 -18 10 -26
19 -23 11 4 14 -7 14 -49 0 -33 -4 -55 -11 -55 -6 0 -9 15 -7 37 2 28 -1 38
-13 41 -14 3 -16 -4 -12 -42 5 -42 4 -46 -17 -46 -25 0 -23 -23 3 -28 21 -4
107 28 107 39 0 5 -4 9 -10 9 -19 0 -10 42 10 47 11 3 20 9 20 14 0 5 -9 9
-20 9 -11 0 -20 4 -20 8 0 5 9 27 20 50 11 22 20 45 20 50 0 8 -28 25 -33 21
-1 -1 -21 -7 -45 -12z m36 -39 c-4 -29 -38 -38 -38 -10 0 22 8 32 27 32 9 0
13 -8 11 -22z"/>
<path d="M760 3526 c0 -35 -4 -45 -20 -49 -17 -4 -19 -1 -14 19 4 17 2 24 -9
24 -9 0 -17 -14 -22 -36 -8 -44 -2 -51 29 -36 13 6 44 14 70 17 49 8 64 25 21
25 -22 0 -25 4 -25 40 0 29 -4 40 -15 40 -11 0 -15 -12 -15 -44z"/>
<path d="M592 3517 c-32 -8 -41 -15 -37 -26 4 -9 9 -29 12 -44 4 -18 10 -26
19 -23 11 4 14 -7 14 -49 0 -33 -4 -55 -11 -55 -6 0 -9 15 -7 37 2 28 -1 38
-13 41 -14 3 -16 -4 -12 -42 5 -42 4 -46 -17 -46 -25 0 -23 -23 3 -28 21 -4
107 28 107 39 0 5 -4 9 -10 9 -19 0 -10 42 10 47 11 3 20 9 20 14 0 5 -9 9
-20 9 -11 0 -20 4 -20 8 0 5 9 27 20 50 11 22 20 45 20 50 0 8 -28 25 -33 21
-1 -1 -21 -7 -45 -12z m36 -39 c-4 -29 -38 -38 -38 -10 0 22 8 32 27 32 9 0
13 -8 11 -22z"/>
<path d="M760 3076 c0 -35 -4 -45 -20 -49 -17 -4 -19 -1 -14 19 4 17 2 24 -9
24 -15 0 -34 -66 -23 -77 3 -3 20 0 37 7 18 8 54 14 80 14 27 1 49 6 49 11 0
6 3 20 6 33 5 16 2 22 -10 22 -9 0 -16 -8 -16 -20 0 -15 -7 -20 -25 -20 -22 0
-25 4 -25 40 0 29 -4 40 -15 40 -11 0 -15 -12 -15 -44z"/>
<path d="M592 3067 c-32 -8 -41 -15 -37 -26 4 -9 9 -29 12 -44 4 -18 10 -26
19 -23 11 4 14 -7 14 -49 0 -33 -4 -55 -11 -55 -6 0 -9 15 -7 37 2 28 -1 38
-13 41 -14 3 -16 -4 -12 -42 5 -42 4 -46 -17 -46 -25 0 -23 -23 3 -28 21 -4
107 28 107 39 0 5 -4 9 -10 9 -19 0 -10 42 10 47 11 3 20 9 20 14 0 5 -9 9
-20 9 -11 0 -20 4 -20 8 0 5 9 27 20 50 11 22 20 45 20 50 0 8 -28 25 -33 21
-1 -1 -21 -7 -45 -12z m36 -39 c-4 -29 -38 -38 -38 -10 0 22 8 32 27 32 9 0
13 -8 11 -22z"/>
<path d="M760 2626 c0 -35 -4 -45 -20 -49 -17 -4 -19 -1 -14 19 4 17 2 24 -9
24 -15 0 -34 -66 -23 -77 3 -3 20 0 37 7 18 8 54 14 80 14 27 1 49 6 49 11 0
6 3 20 6 33 5 16 2 22 -10 22 -9 0 -16 -8 -16 -20 0 -15 -7 -20 -25 -20 -22 0
-25 4 -25 40 0 29 -4 40 -15 40 -11 0 -15 -12 -15 -44z"/>
<path d="M592 2617 c-32 -8 -41 -15 -37 -26 4 -9 9 -29 12 -44 4 -18 10 -26
19 -23 11 4 14 -7 14 -49 0 -33 -4 -55 -11 -55 -6 0 -9 15 -7 37 2 28 -1 38
-13 41 -14 3 -16 -4 -12 -42 5 -42 4 -46 -17 -46 -25 0 -23 -23 3 -28 21 -4
107 28 107 39 0 5 -4 9 -10 9 -19 0 -10 42 10 47 11 3 20 9 20 14 0 5 -9 9
-20 9 -11 0 -20 4 -20 8 0 5 9 27 20 50 11 22 20 45 20 50 0 8 -28 25 -33 21
-1 -1 -21 -7 -45 -12z m36 -39 c-4 -29 -38 -38 -38 -10 0 22 8 32 27 32 9 0
13 -8 11 -22z"/>
<path d="M680 2468 c0 -42 -5 -71 -16 -86 -22 -31 -7 -43 16 -14 32 39 40 150
13 160 -10 3 -13 -14 -13 -60z"/>
<path d="M760 2176 c0 -35 -4 -45 -20 -49 -17 -4 -19 -1 -14 19 4 17 2 24 -9
24 -15 0 -34 -66 -23 -77 3 -3 20 0 37 7 18 8 54 14 80 14 27 1 49 6 49 11 0
6 3 20 6 33 5 16 2 22 -10 22 -9 0 -16 -8 -16 -20 0 -15 -7 -20 -25 -20 -22 0
-25 4 -25 40 0 29 -4 40 -15 40 -11 0 -15 -12 -15 -44z"/>
<path d="M592 2167 c-32 -8 -41 -15 -37 -26 4 -9 9 -29 12 -44 4 -18 10 -26
19 -23 11 4 14 -7 14 -49 0 -33 -4 -55 -11 -55 -6 0 -9 15 -7 37 2 28 -1 38
-13 41 -14 3 -16 -4 -12 -42 5 -42 4 -46 -17 -46 -25 0 -23 -23 3 -28 21 -4
107 28 107 39 0 5 -4 9 -10 9 -19 0 -10 42 10 47 11 3 20 9 20 14 0 5 -9 9
-20 9 -11 0 -20 4 -20 8 0 5 9 27 20 50 11 22 20 45 20 50 0 8 -28 25 -33 21
-1 -1 -21 -7 -45 -12z m36 -39 c-4 -29 -38 -38 -38 -10 0 22 8 32 27 32 9 0
13 -8 11 -22z"/>
<path d="M680 2018 c0 -42 -5 -71 -16 -86 -22 -31 -7 -43 16 -14 32 39 40 150
13 160 -10 3 -13 -14 -13 -60z"/>
<path d="M720 2070 c0 -5 5 -10 10 -10 14 0 12 -116 -2 -140 -14 -22 -6 -35
17 -27 11 5 15 22 15 74 0 37 3 78 6 91 5 19 2 22 -20 22 -14 0 -26 -4 -26
-10z"/>
<path d="M760 1726 c0 -35 -4 -45 -20 -49 -17 -4 -19 -1 -14 19 4 17 2 24 -9
24 -15 0 -34 -66 -23 -77 3 -3 20 0 37 7 18 8 54 14 80 14 27 1 49 6 49 11 0
6 3 20 6 33 5 16 2 22 -10 22 -9 0 -16 -8 -16 -20 0 -15 -7 -20 -25 -20 -22 0
-25 4 -25 40 0 29 -4 40 -15 40 -11 0 -15 -12 -15 -44z"/>
<path d="M592 1717 c-32 -8 -41 -15 -37 -26 4 -9 9 -29 12 -44 4 -18 10 -26
19 -23 11 4 14 -7 14 -49 0 -33 -4 -55 -11 -55 -6 0 -9 15 -7 37 2 28 -1 38
-13 41 -14 3 -16 -4 -12 -42 5 -42 4 -46 -17 -46 -25 0 -23 -23 3 -28 21 -4
107 28 107 39 0 5 -4 9 -10 9 -19 0 -10 42 10 47 11 3 20 9 20 14 0 5 -9 9
-20 9 -11 0 -20 4 -20 8 0 5 9 27 20 50 11 22 20 45 20 50 0 8 -28 25 -33 21
-1 -1 -21 -7 -45 -12z m36 -39 c-4 -29 -38 -38 -38 -10 0 22 8 32 27 32 9 0
13 -8 11 -22z"/>
<path d="M680 1568 c0 -42 -5 -71 -16 -86 -9 -13 -13 -26 -10 -29 12 -12 37
21 47 63 14 54 39 60 39 9 0 -19 -5 -44 -12 -55 -14 -22 -6 -35 17 -27 11 5
15 22 15 74 0 37 3 78 6 91 5 19 2 22 -20 22 -14 0 -26 -4 -26 -10 0 -5 5 -10
10 -10 6 0 10 -7 10 -15 0 -24 -28 -18 -32 7 -2 12 -9 23 -15 26 -10 3 -13
-14 -13 -60z"/>
<path d="M760 1276 c0 -35 -4 -45 -20 -49 -17 -4 -19 -1 -14 19 4 17 2 24 -9
24 -15 0 -34 -66 -23 -77 3 -3 20 0 37 7 18 8 54 14 80 14 27 1 49 6 49 11 0
6 3 20 6 33 5 16 2 22 -10 22 -9 0 -16 -8 -16 -20 0 -15 -7 -20 -25 -20 -22 0
-25 4 -25 40 0 29 -4 40 -15 40 -11 0 -15 -12 -15 -44z"/>
<path d="M592 1267 c-32 -8 -41 -15 -37 -26 4 -9 9 -29 12 -44 4 -18 10 -26
19 -23 11 4 14 -7 14 -49 0 -33 -4 -55 -11 -55 -6 0 -9 15 -7 37 2 28 -1 38
-13 41 -14 3 -16 -4 -12 -42 5 -42 4 -46 -17 -46 -25 0 -23 -23 3 -28 21 -4
107 28 107 39 0 5 -4 9 -10 9 -19 0 -10 42 10 47 11 3 20 9 20 14 0 5 -9 9
-20 9 -11 0 -20 4 -20 8 0 5 9 27 20 50 11 22 20 45 20 50 0 8 -28 25 -33 21
-1 -1 -21 -7 -45 -12z m36 -39 c-4 -29 -38 -38 -38 -10 0 22 8 32 27 32 9 0
13 -8 11 -22z"/>
<path d="M680 1118 c0 -42 -5 -71 -16 -86 -9 -13 -13 -26 -9 -30 8 -9 45 35
45 54 0 8 9 14 20 14 23 0 26 -21 8 -50 -14 -22 -6 -35 17 -27 11 5 15 22 15
74 0 37 3 78 6 91 5 19 2 22 -20 22 -14 0 -26 -4 -26 -10 0 -5 5 -10 10 -10 6
0 10 -7 10 -15 0 -24 -28 -18 -32 7 -2 12 -9 23 -15 26 -10 3 -13 -14 -13 -60z
m60 -18 c0 -5 -7 -10 -15 -10 -8 0 -15 5 -15 10 0 6 7 10 15 10 8 0 15 -4 15
-10z"/>
<path d="M760 826 c0 -35 -4 -45 -20 -49 -17 -4 -19 -1 -14 19 4 17 2 24 -9
24 -15 0 -34 -66 -23 -77 3 -3 20 0 37 7 18 8 54 14 80 14 27 1 49 6 49 11 0
6 3 20 6 33 5 16 2 22 -10 22 -9 0 -16 -8 -16 -20 0 -15 -7 -20 -25 -20 -22 0
-25 4 -25 40 0 29 -4 40 -15 40 -11 0 -15 -12 -15 -44z"/>
<path d="M592 817 c-32 -8 -41 -15 -37 -26 4 -9 9 -29 12 -44 4 -18 10 -26 19
-23 11 4 14 -7 14 -49 0 -33 -4 -55 -11 -55 -6 0 -9 15 -7 37 2 28 -1 38 -13
41 -14 3 -16 -4 -12 -42 5 -42 4 -46 -17 -46 -25 0 -23 -23 3 -28 21 -4 107
28 107 39 0 5 -4 9 -10 9 -19 0 -10 42 10 47 11 3 20 9 20 14 0 5 -9 9 -20 9
-11 0 -20 4 -20 8 0 5 9 27 20 50 11 22 20 45 20 50 0 8 -28 25 -33 21 -1 -1
-21 -7 -45 -12z m36 -39 c-4 -29 -38 -38 -38 -10 0 22 8 32 27 32 9 0 13 -8
11 -22z"/>
<path d="M790 676 c0 -37 -7 -83 -15 -103 -18 -42 -18 -43 -5 -43 32 0 63 197
33 207 -10 4 -13 -13 -13 -61z"/>
<path d="M680 668 c0 -42 -5 -71 -16 -86 -9 -13 -13 -26 -9 -30 8 -9 45 35 45
54 0 8 9 14 20 14 23 0 26 -21 8 -50 -14 -22 -6 -35 17 -27 11 5 15 22 15 74
0 37 3 78 6 91 5 19 2 22 -20 22 -14 0 -26 -4 -26 -10 0 -5 5 -10 10 -10 6 0
10 -7 10 -15 0 -24 -28 -18 -32 7 -2 12 -9 23 -15 26 -10 3 -13 -14 -13 -60z
m60 -18 c0 -5 -7 -10 -15 -10 -8 0 -15 5 -15 10 0 6 7 10 15 10 8 0 15 -4 15
-10z"/>
<path d="M760 376 c0 -35 -4 -45 -20 -49 -17 -4 -19 -1 -14 19 4 17 2 24 -9
24 -15 0 -34 -66 -23 -77 3 -3 20 0 37 7 18 8 54 14 80 14 27 1 49 6 49 11 0
6 3 20 6 33 5 16 2 22 -10 22 -9 0 -16 -8 -16 -20 0 -15 -7 -20 -25 -20 -22 0
-25 4 -25 40 0 29 -4 40 -15 40 -11 0 -15 -12 -15 -44z"/>
<path d="M592 367 c-32 -8 -41 -15 -37 -26 4 -9 9 -29 12 -44 4 -18 10 -26 19
-23 11 4 14 -7 14 -49 0 -33 -4 -55 -11 -55 -6 0 -9 15 -7 37 2 28 -1 38 -13
41 -14 3 -16 -4 -12 -42 5 -42 4 -46 -17 -46 -25 0 -23 -23 3 -28 21 -4 107
28 107 39 0 5 -4 9 -10 9 -19 0 -10 42 10 47 11 3 20 9 20 14 0 5 -9 9 -20 9
-11 0 -20 4 -20 8 0 5 9 27 20 50 11 22 20 45 20 50 0 8 -28 25 -33 21 -1 -1
-21 -7 -45 -12z m36 -39 c-4 -29 -38 -38 -38 -10 0 22 8 32 27 32 9 0 13 -8
11 -22z"/>
<path d="M790 224 c0 -36 -7 -81 -15 -101 -18 -42 -18 -43 -5 -43 18 0 38 54
45 123 5 47 11 67 21 67 16 0 17 -5 15 -90 -1 -35 -6 -67 -12 -70 -13 -9 0
-40 16 -40 21 0 23 8 26 115 l3 100 -47 1 -47 2 0 -64z"/>
<path d="M680 218 c0 -42 -5 -71 -16 -86 -9 -13 -13 -26 -9 -30 8 -9 45 35 45
54 0 8 9 14 20 14 23 0 26 -21 8 -50 -14 -22 -6 -35 17 -27 11 5 15 22 15 74
0 37 3 78 6 91 5 19 2 22 -20 22 -14 0 -26 -4 -26 -10 0 -5 5 -10 10 -10 6 0
10 -7 10 -15 0 -24 -28 -18 -32 7 -2 12 -9 23 -15 26 -10 3 -13 -14 -13 -60z
m60 -18 c0 -5 -7 -10 -15 -10 -8 0 -15 5 -15 10 0 6 7 10 15 10 8 0 15 -4 15
-10z"/>
</g>
</svg>
