<?xml version="1.0" standalone="no"?>
<!DOCTYPE svg PUBLIC "-//W3C//DTD SVG 20010904//EN"
 "http://www.w3.org/TR/2001/REC-SVG-20010904/DTD/svg10.dtd">
<svg version="1.0" xmlns="http://www.w3.org/2000/svg"
 width="95.000000pt" height="725.000000pt" viewBox="0 0 95.000000 725.000000"
 preserveAspectRatio="xMidYMid meet">
<metadata>
Created by potrace 1.16, written by Peter Selinger 2001-2019
</metadata>
<g transform="translate(0.000000,725.000000) scale(0.100000,-0.100000)"
fill="#000000" stroke="none">
<path d="M352 7135 c-15 -33 -15 -35 1 -35 19 0 50 37 42 49 -11 19 -31 12
-43 -14z"/>
<path d="M260 7133 c0 -5 7 -17 15 -27 11 -15 18 -17 26 -9 16 16 3 43 -21 43
-11 0 -20 -3 -20 -7z"/>
<path d="M157 7107 c-35 -8 -46 -14 -43 -26 2 -9 7 -29 10 -44 5 -20 11 -27
22 -23 12 5 14 -4 12 -51 -2 -37 -8 -58 -17 -61 -11 -4 -12 5 -7 42 6 38 5 46
-8 46 -12 0 -16 -11 -16 -50 0 -38 -4 -50 -15 -50 -17 0 -20 -16 -5 -25 12 -7
140 37 140 49 0 4 -11 6 -25 4 -16 -4 -25 -1 -25 8 0 15 27 44 41 44 5 0 9 5
9 11 0 6 -9 9 -20 6 -15 -4 -20 0 -20 14 0 11 7 22 15 25 8 4 15 15 15 26 0
35 19 8 26 -38 5 -35 10 -44 23 -40 9 3 42 6 74 7 63 2 69 8 84 82 5 26 4 27
-36 27 -22 0 -41 -4 -41 -10 0 -5 9 -10 20 -10 27 0 27 -45 1 -60 -36 -19 -44
-13 -37 30 6 39 6 40 -24 40 -16 0 -30 -4 -30 -10 0 -5 7 -10 15 -10 11 0 15
-10 14 -32 -1 -24 -3 -27 -6 -10 -2 12 -11 22 -19 22 -8 0 -14 7 -14 16 0 9
-9 18 -20 21 -11 3 -17 10 -14 15 6 9 -14 29 -26 26 -3 0 -26 -5 -53 -11z m34
-39 c-11 -30 -37 -35 -44 -9 -5 20 5 29 35 30 14 1 16 -4 9 -21z"/>
<path d="M563 7083 c3 -10 8 -30 11 -45 8 -34 26 -37 26 -5 0 38 -12 67 -27
67 -9 0 -13 -7 -10 -17z"/>
<path d="M346 7034 c-4 -9 -4 -19 -1 -22 6 -6 35 18 35 29 0 16 -28 10 -34 -7z"/>
<path d="M298 6963 l-38 -4 0 -65 c0 -35 4 -64 9 -64 13 0 21 26 21 70 0 33 3
38 27 43 40 7 45 1 41 -57 -2 -40 0 -51 12 -51 12 0 15 14 15 65 0 72 0 73
-87 63z"/>
<path d="M352 6685 c-15 -33 -15 -35 1 -35 19 0 50 37 42 49 -11 19 -31 12
-43 -14z"/>
<path d="M260 6683 c0 -5 7 -17 15 -27 11 -15 18 -17 26 -9 16 16 3 43 -21 43
-11 0 -20 -3 -20 -7z"/>
<path d="M157 6657 c-35 -8 -46 -14 -43 -26 2 -9 7 -29 10 -44 5 -20 11 -27
22 -23 12 5 14 -4 12 -51 -2 -37 -8 -58 -17 -61 -11 -4 -12 5 -7 42 6 38 5 46
-8 46 -12 0 -16 -11 -16 -50 0 -38 -4 -50 -15 -50 -17 0 -20 -16 -5 -25 12 -7
140 37 140 49 0 4 -11 6 -25 4 -16 -4 -25 -1 -25 8 0 15 27 44 41 44 5 0 9 5
9 11 0 6 -9 9 -20 6 -15 -4 -20 0 -20 14 0 11 7 22 15 25 8 4 15 15 15 26 0
35 19 8 26 -38 5 -35 10 -44 23 -40 9 3 42 6 74 7 63 2 69 8 84 82 5 26 4 27
-36 27 -22 0 -41 -4 -41 -10 0 -5 9 -10 20 -10 27 0 27 -45 1 -60 -36 -19 -44
-13 -37 30 6 39 6 40 -24 40 -16 0 -30 -4 -30 -10 0 -5 7 -10 15 -10 11 0 15
-10 14 -32 -1 -24 -3 -27 -6 -10 -2 12 -11 22 -19 22 -8 0 -14 7 -14 16 0 9
-9 18 -20 21 -11 3 -17 10 -14 15 6 9 -14 29 -26 26 -3 0 -26 -5 -53 -11z m34
-39 c-11 -30 -37 -35 -44 -9 -5 20 5 29 35 30 14 1 16 -4 9 -21z"/>
<path d="M607 6657 c-35 -8 -46 -14 -43 -26 2 -9 7 -28 10 -43 9 -41 29 -35
24 7 -3 23 1 36 10 40 30 11 39 5 34 -25 -6 -42 14 -38 33 7 12 29 13 38 3 45
-7 4 -15 7 -18 6 -3 0 -26 -5 -53 -11z"/>
<path d="M346 6584 c-4 -9 -4 -19 -1 -22 6 -6 35 18 35 29 0 16 -28 10 -34 -7z"/>
<path d="M298 6513 l-38 -4 0 -65 c0 -67 16 -87 27 -34 3 17 11 30 17 30 6 0
21 3 34 7 22 5 23 3 20 -28 -2 -25 1 -34 12 -34 12 0 15 14 15 65 0 72 0 73
-87 63z m57 -24 c9 -13 6 -15 -32 -24 -26 -5 -33 -3 -33 9 0 8 10 17 23 19 12
2 25 5 29 6 4 0 10 -4 13 -10z"/>
<path d="M352 6235 c-15 -33 -15 -35 1 -35 19 0 50 37 42 49 -11 19 -31 12
-43 -14z"/>
<path d="M260 6233 c0 -5 7 -17 15 -27 11 -15 18 -17 26 -9 16 16 3 43 -21 43
-11 0 -20 -3 -20 -7z"/>
<path d="M157 6207 c-35 -8 -46 -14 -43 -26 2 -9 7 -29 10 -44 5 -20 11 -27
22 -23 12 5 14 -4 12 -51 -2 -37 -8 -58 -17 -61 -11 -4 -12 5 -7 42 6 38 5 46
-8 46 -12 0 -16 -11 -16 -50 0 -38 -4 -50 -15 -50 -17 0 -20 -16 -5 -25 12 -7
140 37 140 49 0 4 -11 6 -25 4 -16 -4 -25 -1 -25 8 0 15 27 44 41 44 5 0 9 5
9 11 0 6 -9 9 -20 6 -15 -4 -20 0 -20 14 0 11 7 22 15 25 8 4 15 15 15 26 0
35 19 8 26 -38 5 -35 10 -44 23 -40 9 3 42 6 74 7 63 2 69 8 84 82 5 26 4 27
-36 27 -22 0 -41 -4 -41 -10 0 -5 9 -10 20 -10 27 0 27 -45 1 -60 -36 -19 -44
-13 -37 30 6 39 6 40 -24 40 -16 0 -30 -4 -30 -10 0 -5 7 -10 15 -10 11 0 15
-10 14 -32 -1 -24 -3 -27 -6 -10 -2 12 -11 22 -19 22 -8 0 -14 7 -14 16 0 9
-9 18 -20 21 -11 3 -17 10 -14 15 6 9 -14 29 -26 26 -3 0 -26 -5 -53 -11z m34
-39 c-11 -30 -37 -35 -44 -9 -5 20 5 29 35 30 14 1 16 -4 9 -21z"/>
<path d="M607 6207 c-35 -8 -46 -14 -43 -26 2 -9 7 -29 10 -44 5 -20 11 -27
24 -23 9 2 28 7 42 10 29 6 58 75 37 88 -7 4 -14 7 -17 6 -3 0 -26 -5 -53 -11z
m34 -39 c-11 -30 -37 -35 -44 -9 -5 20 5 29 35 30 14 1 16 -4 9 -21z"/>
<path d="M346 6134 c-4 -9 -4 -19 -1 -22 6 -6 35 18 35 29 0 16 -28 10 -34 -7z"/>
<path d="M298 6063 l-38 -4 0 -65 0 -64 28 6 c15 3 33 8 41 10 7 2 20 -1 28
-7 23 -20 34 4 31 67 -3 65 -5 66 -90 57z m57 -24 c9 -13 6 -15 -32 -24 -26
-5 -33 -3 -33 9 0 8 10 17 23 19 12 2 25 5 29 6 4 0 10 -4 13 -10z m5 -54 c0
-8 -9 -15 -19 -15 -11 0 -26 -3 -35 -6 -10 -4 -16 -1 -16 9 0 14 17 21 58 26
6 0 12 -6 12 -14z"/>
<path d="M607 5757 c-35 -8 -46 -14 -43 -26 2 -9 7 -29 10 -44 5 -20 11 -27
21 -23 12 4 15 -6 15 -54 0 -33 4 -60 9 -60 10 0 21 48 21 91 0 15 6 32 13 36
6 4 18 24 24 42 10 28 10 37 0 43 -6 4 -14 7 -17 6 -3 0 -26 -5 -53 -11z m34
-39 c-11 -30 -37 -35 -44 -9 -5 20 5 29 35 30 14 1 16 -4 9 -21z"/>
<path d="M607 5307 c-35 -8 -46 -14 -43 -26 2 -9 7 -29 10 -44 5 -20 11 -27
21 -23 12 4 15 -6 15 -54 0 -63 13 -81 23 -31 4 18 14 32 27 36 26 8 26 29 0
22 -15 -4 -20 0 -20 13 0 11 6 23 13 27 6 4 18 24 24 42 10 28 10 37 0 43 -6
4 -14 7 -17 6 -3 0 -26 -5 -53 -11z m34 -39 c-11 -30 -37 -35 -44 -9 -5 20 5
29 35 30 14 1 16 -4 9 -21z"/>
<path d="M607 4857 c-35 -8 -46 -14 -43 -26 2 -9 7 -29 10 -44 5 -20 11 -27
21 -23 12 4 15 -6 15 -54 0 -63 13 -81 23 -31 4 18 14 32 27 36 26 8 26 29 0
22 -15 -4 -20 0 -20 13 0 11 6 23 13 27 6 4 18 24 24 42 10 28 10 37 0 43 -6
4 -14 7 -17 6 -3 0 -26 -5 -53 -11z m34 -39 c-11 -30 -37 -35 -44 -9 -5 20 5
29 35 30 14 1 16 -4 9 -21z"/>
<path d="M560 4690 c0 -27 5 -50 10 -50 6 0 10 8 10 19 0 10 3 33 6 50 5 24 3
31 -10 31 -13 0 -16 -11 -16 -50z"/>
<path d="M607 4407 c-35 -8 -46 -14 -43 -26 2 -9 7 -29 10 -44 5 -20 11 -27
22 -23 12 5 14 -4 12 -51 -2 -37 -8 -58 -17 -61 -11 -4 -12 5 -7 42 6 38 5 46
-8 46 -12 0 -16 -11 -16 -50 0 -38 -4 -50 -15 -50 -17 0 -20 -16 -5 -25 12 -7
140 37 140 49 0 4 -11 6 -25 4 -16 -4 -25 -1 -25 8 0 15 27 44 41 44 5 0 9 5
9 11 0 6 -9 9 -20 6 -15 -4 -20 0 -20 13 0 11 6 23 13 27 6 4 18 24 24 42 10
28 10 37 0 43 -6 4 -14 7 -17 6 -3 0 -26 -5 -53 -11z m34 -39 c-11 -30 -37
-35 -44 -9 -5 20 5 29 35 30 14 1 16 -4 9 -21z"/>
<path d="M710 3983 c0 -5 7 -17 15 -27 11 -15 18 -17 26 -9 16 16 3 43 -21 43
-11 0 -20 -3 -20 -7z"/>
<path d="M607 3957 c-35 -8 -46 -14 -43 -26 2 -9 7 -29 10 -44 5 -20 11 -27
22 -23 12 5 14 -4 12 -51 -2 -37 -8 -58 -17 -61 -11 -4 -12 5 -7 42 6 38 5 46
-8 46 -12 0 -16 -11 -16 -50 0 -38 -4 -50 -15 -50 -17 0 -20 -16 -5 -25 12 -7
140 37 140 49 0 4 -11 6 -25 4 -16 -4 -25 -1 -25 8 0 15 27 44 41 44 5 0 9 5
9 11 0 6 -9 9 -20 6 -15 -4 -20 0 -20 13 0 11 6 23 13 27 6 4 18 24 24 42 10
28 10 37 0 43 -6 4 -14 7 -17 6 -3 0 -26 -5 -53 -11z m34 -39 c-11 -30 -37
-35 -44 -9 -5 20 5 29 35 30 14 1 16 -4 9 -21z"/>
<path d="M802 3535 c-15 -33 -15 -35 1 -35 19 0 50 37 42 49 -11 19 -31 12
-43 -14z"/>
<path d="M710 3533 c0 -5 7 -17 15 -27 11 -15 18 -17 26 -9 16 16 3 43 -21 43
-11 0 -20 -3 -20 -7z"/>
<path d="M607 3507 c-35 -8 -46 -14 -43 -26 2 -9 7 -29 10 -44 5 -20 11 -27
22 -23 12 5 14 -4 12 -51 -2 -37 -8 -58 -17 -61 -11 -4 -12 5 -7 42 6 38 5 46
-8 46 -12 0 -16 -11 -16 -50 0 -38 -4 -50 -15 -50 -17 0 -20 -16 -5 -25 12 -7
140 37 140 49 0 4 -11 6 -25 4 -16 -4 -25 -1 -25 8 0 15 27 44 41 44 5 0 9 5
9 11 0 6 -9 9 -20 6 -15 -4 -20 0 -20 13 0 11 6 23 13 27 6 4 18 24 24 42 10
28 10 37 0 43 -6 4 -14 7 -17 6 -3 0 -26 -5 -53 -11z m34 -39 c-11 -30 -37
-35 -44 -9 -5 20 5 29 35 30 14 1 16 -4 9 -21z"/>
<path d="M802 3085 c-15 -33 -15 -35 1 -35 19 0 50 37 42 49 -11 19 -31 12
-43 -14z"/>
<path d="M710 3083 c0 -5 7 -17 15 -27 11 -15 18 -17 26 -9 16 16 3 43 -21 43
-11 0 -20 -3 -20 -7z"/>
<path d="M607 3057 c-35 -8 -46 -14 -43 -26 2 -9 7 -29 10 -44 5 -20 11 -27
22 -23 12 5 14 -4 12 -51 -2 -37 -8 -58 -17 -61 -11 -4 -12 5 -7 42 6 38 5 46
-8 46 -12 0 -16 -11 -16 -50 0 -38 -4 -50 -15 -50 -17 0 -20 -16 -5 -25 12 -7
140 37 140 49 0 4 -11 6 -25 4 -16 -4 -25 -1 -25 8 0 15 27 44 41 44 5 0 9 5
9 11 0 6 -9 9 -20 6 -15 -4 -20 0 -20 14 0 11 7 22 15 25 8 4 15 15 15 26 0
35 19 8 26 -37 8 -55 24 -59 24 -6 0 49 -8 71 -27 71 -8 0 -11 5 -7 11 6 10
-13 31 -26 27 -3 0 -26 -5 -53 -11z m34 -39 c-11 -30 -37 -35 -44 -9 -5 20 5
29 35 30 14 1 16 -4 9 -21z"/>
<path d="M802 2635 c-15 -33 -15 -35 1 -35 19 0 50 37 42 49 -11 19 -31 12
-43 -14z"/>
<path d="M710 2633 c0 -5 7 -17 15 -27 11 -15 18 -17 26 -9 16 16 3 43 -21 43
-11 0 -20 -3 -20 -7z"/>
<path d="M607 2607 c-35 -8 -46 -14 -43 -26 2 -9 7 -29 10 -44 5 -20 11 -27
22 -23 12 5 14 -4 12 -51 -2 -37 -8 -58 -17 -61 -11 -4 -12 5 -7 42 6 38 5 46
-8 46 -12 0 -16 -11 -16 -50 0 -38 -4 -50 -15 -50 -17 0 -20 -16 -5 -25 12 -7
140 37 140 49 0 4 -11 6 -25 4 -16 -4 -25 -1 -25 8 0 15 27 44 41 44 5 0 9 5
9 11 0 6 -9 9 -20 6 -15 -4 -20 0 -20 14 0 11 7 22 15 25 8 4 15 15 15 26 0
35 19 8 26 -37 9 -61 24 -57 24 6 0 42 -3 52 -20 56 -11 3 -17 10 -14 15 6 9
-14 29 -26 26 -3 0 -26 -5 -53 -11z m34 -39 c-11 -30 -37 -35 -44 -9 -5 20 5
29 35 30 14 1 16 -4 9 -21z"/>
<path d="M800 2580 c0 -5 10 -10 21 -10 20 0 21 -4 15 -45 -12 -80 24 -47 41
38 5 26 4 27 -36 27 -22 0 -41 -4 -41 -10z"/>
<path d="M730 2570 c0 -5 11 -10 25 -10 14 0 25 5 25 10 0 6 -11 10 -25 10
-14 0 -25 -4 -25 -10z"/>
<path d="M802 2185 c-15 -33 -15 -35 1 -35 19 0 50 37 42 49 -11 19 -31 12
-43 -14z"/>
<path d="M710 2183 c0 -5 7 -17 15 -27 11 -15 18 -17 26 -9 16 16 3 43 -21 43
-11 0 -20 -3 -20 -7z"/>
<path d="M607 2157 c-35 -8 -46 -14 -43 -26 2 -9 7 -29 10 -44 5 -20 11 -27
22 -23 12 5 14 -4 12 -51 -2 -37 -8 -58 -17 -61 -11 -4 -12 5 -7 42 6 38 5 46
-8 46 -12 0 -16 -11 -16 -50 0 -38 -4 -50 -15 -50 -17 0 -20 -16 -5 -25 12 -7
140 37 140 49 0 4 -11 6 -25 4 -16 -4 -25 -1 -25 8 0 15 27 44 41 44 5 0 9 5
9 11 0 6 -9 9 -20 6 -15 -4 -20 0 -20 14 0 11 7 22 15 25 8 4 15 15 15 26 0
35 19 8 26 -37 9 -61 24 -57 24 6 0 42 -3 52 -20 56 -11 3 -17 10 -14 15 6 9
-14 29 -26 26 -3 0 -26 -5 -53 -11z m34 -39 c-11 -30 -37 -35 -44 -9 -5 20 5
29 35 30 14 1 16 -4 9 -21z"/>
<path d="M800 2130 c0 -5 10 -10 21 -10 20 0 21 -4 15 -45 -12 -80 24 -47 41
38 5 26 4 27 -36 27 -22 0 -41 -4 -41 -10z"/>
<path d="M730 2120 c0 -5 7 -10 15 -10 10 0 15 -11 15 -35 0 -19 5 -35 10 -35
6 0 10 10 10 23 0 12 3 32 6 45 6 19 3 22 -25 22 -17 0 -31 -4 -31 -10z"/>
<path d="M802 1735 c-15 -33 -15 -35 1 -35 19 0 50 37 42 49 -11 19 -31 12
-43 -14z"/>
<path d="M710 1733 c0 -5 7 -17 15 -27 11 -15 18 -17 26 -9 16 16 3 43 -21 43
-11 0 -20 -3 -20 -7z"/>
<path d="M607 1707 c-35 -8 -46 -14 -43 -26 2 -9 7 -29 10 -44 5 -20 11 -27
22 -23 12 5 14 -4 12 -51 -2 -37 -8 -58 -17 -61 -11 -4 -12 5 -7 42 6 38 5 46
-8 46 -12 0 -16 -11 -16 -50 0 -38 -4 -50 -15 -50 -17 0 -20 -16 -5 -25 12 -7
140 37 140 49 0 4 -11 6 -25 4 -16 -4 -25 -1 -25 8 0 15 27 44 41 44 5 0 9 5
9 11 0 6 -9 9 -20 6 -15 -4 -20 0 -20 14 0 11 7 22 15 25 8 4 15 15 15 26 0
35 19 8 26 -37 7 -50 24 -61 25 -17 0 15 3 21 6 15 8 -20 23 -15 23 7 0 11 -7
20 -15 20 -8 0 -15 7 -15 16 0 9 -9 18 -20 21 -11 3 -17 10 -14 15 6 9 -14 29
-26 26 -3 0 -26 -5 -53 -11z m34 -39 c-11 -30 -37 -35 -44 -9 -5 20 5 29 35
30 14 1 16 -4 9 -21z"/>
<path d="M800 1680 c0 -5 10 -10 21 -10 20 0 21 -4 15 -45 -12 -80 24 -47 41
38 5 26 4 27 -36 27 -22 0 -41 -4 -41 -10z"/>
<path d="M730 1670 c0 -5 7 -10 15 -10 10 0 15 -11 15 -35 0 -19 5 -35 10 -35
6 0 10 10 10 23 0 12 3 32 6 45 6 19 3 22 -25 22 -17 0 -31 -4 -31 -10z"/>
<path d="M802 1285 c-15 -33 -15 -35 1 -35 19 0 50 37 42 49 -11 19 -31 12
-43 -14z"/>
<path d="M710 1283 c0 -5 7 -17 15 -27 11 -15 18 -17 26 -9 16 16 3 43 -21 43
-11 0 -20 -3 -20 -7z"/>
<path d="M607 1257 c-35 -8 -46 -14 -43 -26 2 -9 7 -29 10 -44 5 -20 11 -27
22 -23 12 5 14 -4 12 -51 -2 -37 -8 -58 -17 -61 -11 -4 -12 5 -7 42 6 38 5 46
-8 46 -12 0 -16 -11 -16 -50 0 -38 -4 -50 -15 -50 -17 0 -20 -16 -5 -25 12 -7
140 37 140 49 0 4 -11 6 -25 4 -16 -4 -25 -1 -25 8 0 15 27 44 41 44 5 0 9 5
9 11 0 6 -9 9 -20 6 -15 -4 -20 0 -20 14 0 11 7 22 15 25 8 4 15 15 15 26 0
35 19 8 26 -37 7 -50 24 -61 25 -17 0 15 3 21 6 15 8 -20 23 -15 23 7 0 11 -7
20 -15 20 -8 0 -15 7 -15 16 0 9 -9 18 -20 21 -11 3 -17 10 -14 15 6 9 -14 29
-26 26 -3 0 -26 -5 -53 -11z m34 -39 c-11 -30 -37 -35 -44 -9 -5 20 5 29 35
30 14 1 16 -4 9 -21z"/>
<path d="M800 1230 c0 -5 10 -10 21 -10 20 0 21 -4 15 -45 -12 -80 24 -47 41
38 5 26 4 27 -36 27 -22 0 -41 -4 -41 -10z"/>
<path d="M730 1220 c0 -5 7 -10 15 -10 10 0 15 -11 15 -35 0 -19 5 -35 10 -35
6 0 10 10 10 23 0 12 3 32 6 45 6 19 3 22 -25 22 -17 0 -31 -4 -31 -10z"/>
<path d="M796 1184 c-4 -9 -4 -19 -1 -22 6 -6 35 18 35 29 0 16 -28 10 -34 -7z"/>
<path d="M802 835 c-15 -33 -15 -35 1 -35 19 0 50 37 42 49 -11 19 -31 12 -43
-14z"/>
<path d="M710 833 c0 -5 7 -17 15 -27 11 -15 18 -17 26 -9 16 16 3 43 -21 43
-11 0 -20 -3 -20 -7z"/>
<path d="M607 807 c-35 -8 -46 -14 -43 -26 2 -9 7 -29 10 -44 5 -20 11 -27 22
-23 12 5 14 -4 12 -51 -2 -37 -8 -58 -17 -61 -11 -4 -12 5 -7 42 6 38 5 46 -8
46 -12 0 -16 -11 -16 -50 0 -38 -4 -50 -15 -50 -17 0 -20 -16 -5 -25 12 -7
140 37 140 49 0 4 -11 6 -25 4 -16 -4 -25 -1 -25 8 0 15 27 44 41 44 5 0 9 5
9 11 0 6 -9 9 -20 6 -15 -4 -20 0 -20 14 0 11 7 22 15 25 8 4 15 15 15 26 0
35 19 8 26 -38 5 -35 10 -44 23 -40 9 3 42 6 74 7 63 2 69 8 84 82 5 26 4 27
-36 27 -22 0 -41 -4 -41 -10 0 -5 9 -10 20 -10 27 0 27 -45 1 -60 -36 -19 -44
-13 -37 30 6 39 6 40 -24 40 -16 0 -30 -4 -30 -10 0 -5 7 -10 15 -10 11 0 15
-10 14 -32 -1 -24 -3 -27 -6 -10 -2 12 -11 22 -19 22 -8 0 -14 7 -14 16 0 9
-9 18 -20 21 -11 3 -17 10 -14 15 6 9 -14 29 -26 26 -3 0 -26 -5 -53 -11z m34
-39 c-11 -30 -37 -35 -44 -9 -5 20 5 29 35 30 14 1 16 -4 9 -21z"/>
<path d="M796 734 c-4 -9 -4 -19 -1 -22 6 -6 35 18 35 29 0 16 -28 10 -34 -7z"/>
<path d="M802 385 c-15 -33 -15 -35 1 -35 19 0 50 37 42 49 -11 19 -31 12 -43
-14z"/>
<path d="M710 383 c0 -5 7 -17 15 -27 11 -15 18 -17 26 -9 16 16 3 43 -21 43
-11 0 -20 -3 -20 -7z"/>
<path d="M607 357 c-35 -8 -46 -14 -43 -26 2 -9 7 -29 10 -44 5 -20 11 -27 22
-23 12 5 14 -4 12 -51 -2 -37 -8 -58 -17 -61 -11 -4 -12 5 -7 42 6 38 5 46 -8
46 -12 0 -16 -11 -16 -50 0 -38 -4 -50 -15 -50 -17 0 -20 -16 -5 -25 12 -7
140 37 140 49 0 4 -11 6 -25 4 -16 -4 -25 -1 -25 8 0 15 27 44 41 44 5 0 9 5
9 11 0 6 -9 9 -20 6 -15 -4 -20 0 -20 14 0 11 7 22 15 25 8 4 15 15 15 26 0
35 19 8 26 -38 5 -35 10 -44 23 -40 9 3 42 6 74 7 63 2 69 8 84 82 5 26 4 27
-36 27 -22 0 -41 -4 -41 -10 0 -5 9 -10 20 -10 27 0 27 -45 1 -60 -36 -19 -44
-13 -37 30 6 39 6 40 -24 40 -16 0 -30 -4 -30 -10 0 -5 7 -10 15 -10 11 0 15
-10 14 -32 -1 -24 -3 -27 -6 -10 -2 12 -11 22 -19 22 -8 0 -14 7 -14 16 0 9
-9 18 -20 21 -11 3 -17 10 -14 15 6 9 -14 29 -26 26 -3 0 -26 -5 -53 -11z m34
-39 c-11 -30 -37 -35 -44 -9 -5 20 5 29 35 30 14 1 16 -4 9 -21z"/>
<path d="M796 284 c-4 -9 -4 -19 -1 -22 6 -6 35 18 35 29 0 16 -28 10 -34 -7z"/>
<path d="M710 145 c0 -36 4 -65 9 -65 14 0 21 27 21 81 0 37 -4 49 -15 49 -12
0 -15 -14 -15 -65z"/>
</g>
</svg>
