<?xml version="1.0" standalone="no"?>
<!DOCTYPE svg PUBLIC "-//W3C//DTD SVG 20010904//EN"
 "http://www.w3.org/TR/2001/REC-SVG-20010904/DTD/svg10.dtd">
<svg version="1.0" xmlns="http://www.w3.org/2000/svg"
 width="95.000000pt" height="725.000000pt" viewBox="0 0 95.000000 725.000000"
 preserveAspectRatio="xMidYMid meet">
<metadata>
Created by potrace 1.16, written by Peter Selinger 2001-2019
</metadata>
<g transform="translate(0.000000,725.000000) scale(0.100000,-0.100000)"
fill="#000000" stroke="none">
<path d="M286 7145 c6 -23 3 -25 -25 -25 -21 0 -31 -5 -31 -16 0 -10 6 -13 19
-9 12 4 21 0 25 -12 4 -10 2 -19 -3 -21 -6 -2 -11 -14 -11 -26 0 -12 -5 -27
-12 -34 -9 -9 -9 -15 0 -24 15 -15 22 -7 32 34 l8 33 1 -37 c1 -51 17 -48 24
4 4 28 1 48 -9 62 -18 26 -18 36 0 36 9 0 12 -7 9 -21 -8 -29 18 -21 32 9 6
13 19 22 32 22 13 0 23 5 23 11 0 7 -14 10 -35 7 -23 -3 -35 0 -35 8 0 11 -21
24 -41 24 -5 0 -7 -11 -3 -25z"/>
<path d="M132 7123 c-29 -4 -33 -7 -28 -26 3 -12 6 -32 6 -44 0 -14 6 -23 15
-23 12 0 15 -13 15 -55 0 -64 -17 -75 -22 -13 -2 24 -9 43 -17 46 -11 4 -13
-5 -8 -47 5 -41 3 -51 -8 -51 -8 0 -15 -7 -15 -15 0 -21 26 -19 87 7 54 22 73
45 28 34 -21 -5 -25 -3 -25 15 0 12 8 23 20 26 23 6 27 23 5 23 -8 0 -15 9
-15 20 0 11 4 20 8 20 11 0 33 70 26 82 -5 8 -12 8 -72 1z m38 -43 c0 -13 -7
-20 -20 -20 -13 0 -20 7 -20 20 0 13 7 20 20 20 13 0 20 -7 20 -20z"/>
<path d="M553 7099 c4 -13 7 -34 7 -46 0 -13 5 -23 11 -23 16 0 7 83 -10 88
-10 4 -12 -1 -8 -19z"/>
<path d="M354 7082 c-23 -20 -39 -88 -22 -98 15 -10 28 17 22 46 l-6 25 21
-25 c11 -14 21 -28 21 -32 0 -9 50 -11 50 -3 0 3 -15 19 -32 35 -26 23 -30 32
-19 39 7 5 10 14 7 20 -10 15 -17 14 -42 -7z"/>
<path d="M227 7053 c-11 -21 -16 -63 -8 -63 12 0 31 33 31 54 0 16 -16 22 -23
9z"/>
<path d="M286 6695 c6 -23 3 -25 -25 -25 -21 0 -31 -5 -31 -16 0 -10 6 -13 19
-9 12 4 21 0 25 -12 4 -10 2 -19 -3 -21 -6 -2 -11 -14 -11 -27 0 -13 -5 -27
-11 -30 -6 -4 -8 -13 -5 -21 3 -8 2 -14 -2 -14 -4 0 -7 -20 -7 -44 0 -29 -6
-51 -19 -65 -11 -12 -16 -24 -12 -29 12 -12 56 47 56 76 1 15 7 52 15 82 13
52 13 53 14 18 1 -51 17 -48 24 4 4 28 1 48 -9 62 -18 26 -18 36 0 36 9 0 12
-7 9 -21 -8 -29 18 -21 32 9 6 13 19 22 32 22 13 0 23 5 23 11 0 7 -14 10 -35
7 -23 -3 -35 0 -35 8 0 11 -21 24 -41 24 -5 0 -7 -11 -3 -25z"/>
<path d="M132 6673 c-29 -4 -33 -7 -28 -26 3 -12 6 -32 6 -44 0 -14 6 -23 15
-23 12 0 15 -13 15 -55 0 -64 -17 -75 -22 -13 -2 24 -9 43 -17 46 -11 4 -13
-5 -8 -47 5 -41 3 -51 -8 -51 -8 0 -15 -7 -15 -15 0 -21 26 -19 87 7 54 22 73
45 28 34 -21 -5 -25 -3 -25 15 0 12 8 23 20 26 23 6 27 23 5 23 -8 0 -15 9
-15 20 0 11 4 20 8 20 11 0 33 70 26 82 -5 8 -12 8 -72 1z m38 -43 c0 -13 -7
-20 -20 -20 -13 0 -20 7 -20 20 0 13 7 20 20 20 13 0 20 -7 20 -20z"/>
<path d="M582 6673 c-29 -4 -33 -7 -28 -26 3 -12 6 -32 6 -44 0 -13 5 -23 10
-23 6 0 10 16 10 35 0 28 4 35 20 35 15 0 20 -7 20 -25 0 -14 4 -25 9 -25 11
0 33 59 25 71 -5 9 -11 9 -72 2z"/>
<path d="M354 6632 c-23 -20 -39 -88 -22 -98 15 -10 28 17 22 46 l-6 25 21
-25 c11 -14 21 -28 21 -32 0 -9 50 -11 50 -3 0 3 -15 19 -32 35 -26 23 -30 32
-19 39 7 5 10 14 7 20 -10 15 -17 14 -42 -7z"/>
<path d="M227 6603 c-11 -21 -16 -63 -8 -63 12 0 31 33 31 54 0 16 -16 22 -23
9z"/>
<path d="M286 6245 c6 -23 3 -25 -25 -25 -21 0 -31 -5 -31 -16 0 -10 6 -13 19
-9 12 4 21 0 25 -12 4 -10 2 -19 -3 -21 -6 -2 -11 -14 -11 -27 0 -13 -5 -27
-11 -30 -6 -4 -8 -13 -5 -21 3 -8 2 -14 -2 -14 -4 0 -7 -20 -7 -44 0 -29 -6
-51 -19 -65 -11 -12 -16 -24 -12 -29 12 -12 56 47 56 76 1 15 7 52 15 82 13
52 13 53 14 18 1 -51 17 -48 24 4 4 28 1 48 -9 62 -18 26 -18 36 0 36 9 0 12
-7 9 -21 -8 -29 18 -21 32 9 6 13 19 22 32 22 13 0 23 5 23 11 0 7 -14 10 -35
7 -23 -3 -35 0 -35 8 0 11 -21 24 -41 24 -5 0 -7 -11 -3 -25z"/>
<path d="M132 6223 c-29 -4 -33 -7 -28 -26 3 -12 6 -32 6 -44 0 -14 6 -23 15
-23 12 0 15 -13 15 -55 0 -64 -17 -75 -22 -13 -2 24 -9 43 -17 46 -11 4 -13
-5 -8 -47 5 -41 3 -51 -8 -51 -8 0 -15 -7 -15 -15 0 -21 26 -19 87 7 54 22 73
45 28 34 -21 -5 -25 -3 -25 15 0 12 8 23 20 26 23 6 27 23 5 23 -8 0 -15 9
-15 20 0 11 4 20 8 20 11 0 33 70 26 82 -5 8 -12 8 -72 1z m38 -43 c0 -13 -7
-20 -20 -20 -13 0 -20 7 -20 20 0 13 7 20 20 20 13 0 20 -7 20 -20z"/>
<path d="M582 6223 c-32 -4 -32 -5 -26 -46 4 -23 8 -43 8 -44 1 -1 18 0 38 3
30 5 37 12 46 42 6 19 9 39 6 44 -5 8 -12 8 -72 1z m38 -43 c0 -13 -7 -20 -20
-20 -13 0 -20 7 -20 20 0 13 7 20 20 20 13 0 20 -7 20 -20z"/>
<path d="M354 6182 c-26 -22 -39 -91 -18 -99 10 -4 14 -25 14 -85 0 -59 3 -79
13 -76 18 7 23 158 4 158 -8 0 -13 13 -14 37 l-1 37 19 -24 c10 -14 19 -28 19
-32 0 -9 50 -11 50 -3 0 3 -15 19 -32 35 -26 23 -30 32 -19 39 7 5 10 14 7 20
-10 15 -17 14 -42 -7z"/>
<path d="M227 6153 c-11 -21 -16 -63 -8 -63 12 0 31 33 31 54 0 16 -16 22 -23
9z"/>
<path d="M286 5795 c6 -23 3 -25 -25 -25 -21 0 -31 -5 -31 -16 0 -10 6 -13 19
-9 12 4 21 0 25 -12 4 -10 2 -19 -3 -21 -6 -2 -11 -14 -11 -27 0 -13 -5 -27
-11 -30 -6 -4 -8 -13 -5 -21 3 -8 2 -14 -2 -14 -4 0 -7 -20 -7 -44 0 -29 -6
-51 -19 -65 -11 -12 -16 -24 -12 -29 12 -11 56 46 56 74 0 14 6 24 14 24 7 0
28 3 45 6 l31 7 0 -63 c0 -45 3 -61 13 -58 8 3 13 31 15 81 2 62 0 77 -12 77
-8 0 -16 -4 -18 -9 -1 -4 -20 -11 -40 -15 -42 -8 -44 -3 -28 59 8 30 8 30 9
-7 1 -51 17 -48 24 4 4 28 1 48 -9 62 -18 26 -18 36 0 36 9 0 12 -7 9 -21 -8
-29 18 -21 32 9 6 13 19 22 32 22 13 0 23 5 23 11 0 7 -14 10 -35 7 -23 -3
-35 0 -35 8 0 11 -21 24 -41 24 -5 0 -7 -11 -3 -25z"/>
<path d="M132 5773 c-29 -4 -33 -7 -28 -26 3 -12 6 -32 6 -44 0 -14 6 -23 15
-23 12 0 15 -13 15 -55 0 -64 -17 -75 -22 -13 -2 24 -9 43 -17 46 -11 4 -13
-5 -8 -47 5 -41 3 -51 -8 -51 -8 0 -15 -7 -15 -15 0 -21 26 -19 87 7 54 22 73
45 28 34 -21 -5 -25 -3 -25 15 0 12 8 23 20 26 23 6 27 23 5 23 -8 0 -15 9
-15 20 0 11 4 20 8 20 11 0 33 70 26 82 -5 8 -12 8 -72 1z m38 -43 c0 -13 -7
-20 -20 -20 -13 0 -20 7 -20 20 0 13 7 20 20 20 13 0 20 -7 20 -20z"/>
<path d="M582 5773 c-29 -4 -33 -7 -28 -26 3 -12 6 -32 6 -44 0 -14 6 -23 15
-23 12 0 15 -13 15 -60 0 -80 17 -77 25 5 4 36 11 65 14 65 10 0 31 71 25 82
-5 8 -12 8 -72 1z m38 -43 c0 -13 -7 -20 -20 -20 -13 0 -20 7 -20 20 0 13 7
20 20 20 13 0 20 -7 20 -20z"/>
<path d="M354 5732 c-23 -20 -39 -88 -22 -98 15 -10 28 17 22 46 l-6 25 21
-25 c11 -14 21 -28 21 -32 0 -9 50 -11 50 -3 0 3 -15 19 -32 35 -26 23 -30 32
-19 39 7 5 10 14 7 20 -10 15 -17 14 -42 -7z"/>
<path d="M227 5703 c-11 -21 -16 -63 -8 -63 12 0 31 33 31 54 0 16 -16 22 -23
9z"/>
<path d="M286 5345 c6 -23 3 -25 -25 -25 -21 0 -31 -5 -31 -16 0 -10 6 -13 19
-9 12 4 21 0 25 -12 4 -10 2 -19 -3 -21 -6 -2 -11 -14 -11 -27 0 -13 -5 -27
-11 -30 -6 -4 -8 -13 -5 -21 3 -8 2 -14 -2 -14 -4 0 -7 -20 -7 -44 0 -29 -6
-51 -19 -65 -11 -12 -16 -24 -12 -29 5 -4 20 7 35 25 19 23 39 34 69 39 l42 7
0 -43 c0 -29 4 -40 13 -38 8 3 13 31 15 81 2 62 0 77 -12 77 -8 0 -16 -4 -18
-9 -1 -4 -20 -11 -40 -15 -42 -8 -44 -3 -28 59 8 30 8 30 9 -7 1 -51 17 -48
24 4 4 28 1 48 -9 62 -18 26 -18 36 0 36 9 0 12 -7 9 -21 -8 -29 18 -21 32 9
6 13 19 22 32 22 13 0 23 5 23 11 0 7 -14 10 -35 7 -23 -3 -35 0 -35 8 0 11
-21 24 -41 24 -5 0 -7 -11 -3 -25z m64 -215 c0 -5 -6 -10 -14 -10 -7 0 -28 -3
-45 -6 -19 -4 -31 -2 -31 4 0 10 24 16 73 21 9 0 17 -3 17 -9z"/>
<path d="M132 5323 c-29 -4 -33 -7 -28 -26 3 -12 6 -32 6 -44 0 -14 6 -23 15
-23 12 0 15 -13 15 -55 0 -64 -17 -75 -22 -13 -2 24 -9 43 -17 46 -11 4 -13
-5 -8 -47 5 -41 3 -51 -8 -51 -8 0 -15 -7 -15 -15 0 -21 26 -19 87 7 54 22 73
45 28 34 -21 -5 -25 -3 -25 15 0 12 8 23 20 26 23 6 27 23 5 23 -8 0 -15 9
-15 20 0 11 4 20 8 20 11 0 33 70 26 82 -5 8 -12 8 -72 1z m38 -43 c0 -13 -7
-20 -20 -20 -13 0 -20 7 -20 20 0 13 7 20 20 20 13 0 20 -7 20 -20z"/>
<path d="M582 5323 c-29 -4 -33 -7 -28 -26 3 -12 6 -32 6 -44 0 -14 6 -23 15
-23 12 0 15 -13 15 -60 0 -33 4 -60 10 -60 6 0 10 14 10 31 0 22 5 32 20 36
23 6 27 23 5 23 -8 0 -15 9 -15 20 0 11 4 20 8 20 11 0 33 70 26 82 -5 8 -12
8 -72 1z m38 -43 c0 -13 -7 -20 -20 -20 -13 0 -20 7 -20 20 0 13 7 20 20 20
13 0 20 -7 20 -20z"/>
<path d="M354 5282 c-23 -20 -39 -88 -22 -98 15 -10 28 17 22 46 l-6 25 21
-25 c11 -14 21 -28 21 -32 0 -9 50 -11 50 -3 0 3 -15 19 -32 35 -26 23 -30 32
-19 39 7 5 10 14 7 20 -10 15 -17 14 -42 -7z"/>
<path d="M227 5253 c-11 -21 -16 -63 -8 -63 12 0 31 33 31 54 0 16 -16 22 -23
9z"/>
<path d="M582 4873 c-29 -4 -33 -7 -28 -26 3 -12 6 -32 6 -44 0 -14 6 -23 15
-23 12 0 15 -13 15 -60 0 -33 4 -60 10 -60 6 0 10 14 10 31 0 22 5 32 20 36
23 6 27 23 5 23 -8 0 -15 9 -15 20 0 11 4 20 8 20 11 0 33 70 26 82 -5 8 -12
8 -72 1z m38 -43 c0 -13 -7 -20 -20 -20 -13 0 -20 7 -20 20 0 13 7 20 20 20
13 0 20 -7 20 -20z"/>
<path d="M540 4737 c0 -40 12 -87 22 -87 14 0 5 103 -9 108 -8 2 -13 -6 -13
-21z"/>
<path d="M582 4423 c-29 -4 -33 -7 -28 -26 3 -12 6 -32 6 -44 0 -14 6 -23 15
-23 12 0 15 -13 15 -55 0 -64 -17 -75 -22 -13 -2 24 -9 43 -17 46 -11 4 -13
-5 -8 -47 5 -41 3 -51 -8 -51 -8 0 -15 -7 -15 -15 0 -21 26 -19 87 7 54 22 73
45 28 34 -21 -5 -25 -3 -25 15 0 12 8 23 20 26 23 6 27 23 5 23 -8 0 -15 9
-15 20 0 11 4 20 8 20 11 0 33 70 26 82 -5 8 -12 8 -72 1z m38 -43 c0 -13 -7
-20 -20 -20 -13 0 -20 7 -20 20 0 13 7 20 20 20 13 0 20 -7 20 -20z"/>
<path d="M730 4012 c0 -18 28 -45 38 -38 17 10 15 33 -4 40 -22 8 -34 8 -34
-2z"/>
<path d="M582 3973 c-29 -4 -33 -7 -28 -26 3 -12 6 -32 6 -44 0 -14 6 -23 15
-23 12 0 15 -13 15 -55 0 -64 -17 -75 -22 -13 -2 24 -9 43 -17 46 -11 4 -13
-5 -8 -47 5 -41 3 -51 -8 -51 -8 0 -15 -7 -15 -15 0 -21 26 -19 87 7 54 22 73
45 28 34 -21 -5 -25 -3 -25 15 0 12 8 23 20 26 23 6 27 23 5 23 -8 0 -15 9
-15 20 0 11 4 20 8 20 11 0 33 70 26 82 -5 8 -12 8 -72 1z m38 -43 c0 -13 -7
-20 -20 -20 -13 0 -20 7 -20 20 0 13 7 20 20 20 13 0 20 -7 20 -20z"/>
<path d="M736 3545 c6 -23 3 -25 -25 -25 -22 0 -31 -5 -31 -16 0 -11 5 -14 16
-10 9 3 47 11 85 18 70 11 99 34 34 26 -23 -3 -35 0 -35 8 0 11 -21 24 -41 24
-5 0 -7 -11 -3 -25z"/>
<path d="M582 3523 c-29 -4 -33 -7 -28 -26 3 -12 6 -32 6 -44 0 -14 6 -23 15
-23 12 0 15 -13 15 -55 0 -64 -17 -75 -22 -13 -2 24 -9 43 -17 46 -11 4 -13
-5 -8 -47 5 -41 3 -51 -8 -51 -8 0 -15 -7 -15 -15 0 -21 26 -19 87 7 54 22 73
45 28 34 -21 -5 -25 -3 -25 15 0 12 8 23 20 26 23 6 27 23 5 23 -8 0 -15 9
-15 20 0 11 4 20 8 20 11 0 33 70 26 82 -5 8 -12 8 -72 1z m38 -43 c0 -13 -7
-20 -20 -20 -13 0 -20 7 -20 20 0 13 7 20 20 20 13 0 20 -7 20 -20z"/>
<path d="M736 3095 c6 -23 3 -25 -25 -25 -21 0 -31 -5 -31 -16 0 -11 6 -13 19
-9 14 4 21 0 26 -15 9 -29 29 -25 21 4 -5 22 -3 24 49 31 30 3 55 11 55 17 0
6 -15 8 -35 6 -23 -3 -35 0 -35 8 0 11 -21 24 -41 24 -5 0 -7 -11 -3 -25z"/>
<path d="M582 3073 c-29 -4 -33 -7 -28 -26 3 -12 6 -32 6 -44 0 -14 6 -23 15
-23 12 0 15 -13 15 -55 0 -64 -17 -75 -22 -13 -2 24 -9 43 -17 46 -11 4 -13
-5 -8 -47 5 -41 3 -51 -8 -51 -8 0 -15 -7 -15 -15 0 -21 26 -19 87 7 54 22 73
45 28 34 -21 -5 -25 -3 -25 15 0 12 8 23 20 26 23 6 27 23 5 23 -8 0 -15 9
-15 20 0 11 4 20 8 20 11 0 33 70 26 82 -5 8 -12 8 -72 1z m38 -43 c0 -13 -7
-20 -20 -20 -13 0 -20 7 -20 20 0 13 7 20 20 20 13 0 20 -7 20 -20z"/>
<path d="M736 2645 c6 -23 3 -25 -25 -25 -21 0 -31 -5 -31 -16 0 -11 6 -13 19
-9 14 4 21 0 26 -15 9 -29 28 -25 21 5 -5 18 -2 25 8 25 10 0 12 -7 9 -21 -8
-29 18 -21 32 9 6 13 19 22 32 22 13 0 23 5 23 11 0 7 -14 10 -35 7 -23 -3
-35 0 -35 8 0 11 -21 24 -41 24 -5 0 -7 -11 -3 -25z"/>
<path d="M582 2623 c-29 -4 -33 -7 -28 -26 3 -12 6 -32 6 -44 0 -14 6 -23 15
-23 12 0 15 -13 15 -55 0 -64 -17 -75 -22 -13 -2 24 -9 43 -17 46 -11 4 -13
-5 -8 -47 5 -41 3 -51 -8 -51 -8 0 -15 -7 -15 -15 0 -21 26 -19 87 7 54 22 73
45 28 34 -21 -5 -25 -3 -25 15 0 12 8 23 20 26 23 6 27 23 5 23 -8 0 -15 9
-15 20 0 11 4 20 8 20 11 0 33 70 26 82 -5 8 -12 8 -72 1z m38 -43 c0 -13 -7
-20 -20 -20 -13 0 -20 7 -20 20 0 13 7 20 20 20 13 0 20 -7 20 -20z"/>
<path d="M736 2195 c6 -23 3 -25 -25 -25 -21 0 -31 -5 -31 -16 0 -10 6 -13 18
-10 24 8 42 -29 42 -84 0 -53 16 -51 23 2 4 28 1 48 -9 62 -18 26 -18 36 0 36
9 0 12 -7 9 -21 -8 -29 18 -21 32 9 6 13 19 22 32 22 13 0 23 5 23 11 0 7 -14
10 -35 7 -23 -3 -35 0 -35 8 0 11 -21 24 -41 24 -5 0 -7 -11 -3 -25z"/>
<path d="M582 2173 c-29 -4 -33 -7 -28 -26 3 -12 6 -32 6 -44 0 -14 6 -23 15
-23 12 0 15 -13 15 -55 0 -64 -17 -75 -22 -13 -2 24 -9 43 -17 46 -11 4 -13
-5 -8 -47 5 -41 3 -51 -8 -51 -8 0 -15 -7 -15 -15 0 -21 26 -19 87 7 54 22 73
45 28 34 -21 -5 -25 -3 -25 15 0 12 8 23 20 26 23 6 27 23 5 23 -8 0 -15 9
-15 20 0 11 4 20 8 20 11 0 33 70 26 82 -5 8 -12 8 -72 1z m38 -43 c0 -13 -7
-20 -20 -20 -13 0 -20 7 -20 20 0 13 7 20 20 20 13 0 20 -7 20 -20z"/>
<path d="M736 1745 c6 -23 3 -25 -25 -25 -21 0 -31 -5 -31 -16 0 -10 6 -13 19
-9 12 4 21 0 25 -12 4 -10 2 -19 -3 -21 -6 -2 -11 -14 -11 -26 0 -12 -5 -27
-12 -34 -9 -9 -9 -15 0 -24 15 -15 22 -7 32 34 l8 33 1 -37 c1 -51 17 -48 24
4 4 28 1 48 -9 62 -18 26 -18 36 0 36 9 0 12 -7 9 -21 -8 -29 18 -21 32 9 6
13 19 22 32 22 13 0 23 5 23 11 0 7 -14 10 -35 7 -23 -3 -35 0 -35 8 0 11 -21
24 -41 24 -5 0 -7 -11 -3 -25z"/>
<path d="M582 1723 c-29 -4 -33 -7 -28 -26 3 -12 6 -32 6 -44 0 -14 6 -23 15
-23 12 0 15 -13 15 -55 0 -64 -17 -75 -22 -13 -2 24 -9 43 -17 46 -11 4 -13
-5 -8 -47 5 -41 3 -51 -8 -51 -8 0 -15 -7 -15 -15 0 -21 26 -19 87 7 54 22 73
45 28 34 -21 -5 -25 -3 -25 15 0 12 8 23 20 26 23 6 27 23 5 23 -8 0 -15 9
-15 20 0 11 4 20 8 20 11 0 33 70 26 82 -5 8 -12 8 -72 1z m38 -43 c0 -13 -7
-20 -20 -20 -13 0 -20 7 -20 20 0 13 7 20 20 20 13 0 20 -7 20 -20z"/>
<path d="M680 1650 c0 -5 5 -10 10 -10 6 0 10 5 10 10 0 6 -4 10 -10 10 -5 0
-10 -4 -10 -10z"/>
<path d="M736 1295 c6 -23 3 -25 -25 -25 -21 0 -31 -5 -31 -16 0 -10 6 -13 19
-9 12 4 21 0 25 -12 4 -10 2 -19 -3 -21 -6 -2 -11 -14 -11 -26 0 -12 -5 -27
-12 -34 -9 -9 -9 -15 0 -24 15 -15 22 -7 32 34 l8 33 1 -37 c1 -51 17 -48 24
4 4 28 1 48 -9 62 -18 26 -18 36 0 36 9 0 12 -7 9 -21 -8 -29 18 -21 32 9 6
13 19 22 32 22 13 0 23 5 23 11 0 7 -14 10 -35 7 -23 -3 -35 0 -35 8 0 11 -21
24 -41 24 -5 0 -7 -11 -3 -25z"/>
<path d="M582 1273 c-29 -4 -33 -7 -28 -26 3 -12 6 -32 6 -44 0 -14 6 -23 15
-23 12 0 15 -13 15 -55 0 -64 -17 -75 -22 -13 -2 24 -9 43 -17 46 -11 4 -13
-5 -8 -47 5 -41 3 -51 -8 -51 -8 0 -15 -7 -15 -15 0 -21 26 -19 87 7 54 22 73
45 28 34 -21 -5 -25 -3 -25 15 0 12 8 23 20 26 23 6 27 23 5 23 -8 0 -15 9
-15 20 0 11 4 20 8 20 11 0 33 70 26 82 -5 8 -12 8 -72 1z m38 -43 c0 -13 -7
-20 -20 -20 -13 0 -20 7 -20 20 0 13 7 20 20 20 13 0 20 -7 20 -20z"/>
<path d="M677 1203 c-11 -21 -16 -63 -8 -63 12 0 31 33 31 54 0 16 -16 22 -23
9z"/>
<path d="M736 845 c6 -23 3 -25 -25 -25 -21 0 -31 -5 -31 -16 0 -10 6 -13 19
-9 12 4 21 0 25 -12 4 -10 2 -19 -3 -21 -6 -2 -11 -14 -11 -26 0 -12 -5 -27
-12 -34 -9 -9 -9 -15 0 -24 15 -15 22 -7 32 34 l8 33 1 -37 c1 -51 17 -48 24
4 4 28 1 48 -9 62 -18 26 -18 36 0 36 9 0 12 -7 9 -21 -8 -29 18 -21 32 9 6
13 19 22 32 22 13 0 23 5 23 11 0 7 -14 10 -35 7 -23 -3 -35 0 -35 8 0 11 -21
24 -41 24 -5 0 -7 -11 -3 -25z"/>
<path d="M582 823 c-29 -4 -33 -7 -28 -26 3 -12 6 -32 6 -44 0 -14 6 -23 15
-23 12 0 15 -13 15 -55 0 -64 -17 -75 -22 -13 -2 24 -9 43 -17 46 -11 4 -13
-5 -8 -47 5 -41 3 -51 -8 -51 -8 0 -15 -7 -15 -15 0 -21 26 -19 87 7 54 22 73
45 28 34 -21 -5 -25 -3 -25 15 0 12 8 23 20 26 23 6 27 23 5 23 -8 0 -15 9
-15 20 0 11 4 20 8 20 11 0 33 70 26 82 -5 8 -12 8 -72 1z m38 -43 c0 -13 -7
-20 -20 -20 -13 0 -20 7 -20 20 0 13 7 20 20 20 13 0 20 -7 20 -20z"/>
<path d="M810 785 c-7 -8 -10 -18 -7 -21 9 -10 48 7 44 19 -6 18 -23 19 -37 2z"/>
<path d="M677 753 c-11 -21 -16 -63 -8 -63 12 0 31 33 31 54 0 16 -16 22 -23
9z"/>
<path d="M736 395 c6 -23 3 -25 -25 -25 -21 0 -31 -5 -31 -16 0 -10 6 -13 19
-9 12 4 21 0 25 -12 4 -10 2 -19 -3 -21 -6 -2 -11 -14 -11 -26 0 -12 -5 -27
-12 -34 -9 -9 -9 -15 0 -24 15 -15 22 -7 32 34 l8 33 1 -37 c1 -51 17 -48 24
4 4 28 1 48 -9 62 -18 26 -18 36 0 36 9 0 12 -7 9 -21 -8 -29 18 -21 32 9 6
13 19 22 32 22 13 0 23 5 23 11 0 7 -14 10 -35 7 -23 -3 -35 0 -35 8 0 11 -21
24 -41 24 -5 0 -7 -11 -3 -25z"/>
<path d="M582 373 c-29 -4 -33 -7 -28 -26 3 -12 6 -32 6 -44 0 -14 6 -23 15
-23 12 0 15 -13 15 -55 0 -64 -17 -75 -22 -13 -2 24 -9 43 -17 46 -11 4 -13
-5 -8 -47 5 -41 3 -51 -8 -51 -8 0 -15 -7 -15 -15 0 -21 26 -19 87 7 54 22 73
45 28 34 -21 -5 -25 -3 -25 15 0 12 8 23 20 26 23 6 27 23 5 23 -8 0 -15 9
-15 20 0 11 4 20 8 20 11 0 33 70 26 82 -5 8 -12 8 -72 1z m38 -43 c0 -13 -7
-20 -20 -20 -13 0 -20 7 -20 20 0 13 7 20 20 20 13 0 20 -7 20 -20z"/>
<path d="M804 332 c-23 -20 -39 -88 -22 -98 15 -10 27 16 21 47 -4 22 -1 27
22 33 14 4 25 12 23 18 -7 19 -21 19 -44 0z"/>
<path d="M677 303 c-11 -21 -16 -63 -8 -63 12 0 31 33 31 54 0 16 -16 22 -23
9z"/>
</g>
</svg>
