<?xml version="1.0" standalone="no"?>
<!DOCTYPE svg PUBLIC "-//W3C//DTD SVG 20010904//EN"
 "http://www.w3.org/TR/2001/REC-SVG-20010904/DTD/svg10.dtd">
<svg version="1.0" xmlns="http://www.w3.org/2000/svg"
 width="95.000000pt" height="725.000000pt" viewBox="0 0 95.000000 725.000000"
 preserveAspectRatio="xMidYMid meet">
<metadata>
Created by potrace 1.16, written by Peter Selinger 2001-2019
</metadata>
<g transform="translate(0.000000,725.000000) scale(0.100000,-0.100000)"
fill="#000000" stroke="none">
<path d="M250 7165 c0 -8 -9 -15 -20 -15 -11 0 -20 -4 -20 -10 0 -5 9 -10 20
-10 15 0 19 -6 17 -30 -2 -32 -11 -39 -21 -15 -3 8 -1 15 4 15 6 0 10 5 10 10
0 6 -11 10 -25 10 -29 0 -28 2 -14 -38 6 -19 19 -32 32 -35 12 -2 3 -5 -20 -6
-54 -1 -57 -21 -3 -21 29 0 40 -4 40 -15 0 -22 17 -18 23 5 4 16 14 20 51 20
47 0 62 14 27 25 -17 5 -18 10 -10 35 9 24 7 32 -10 49 -12 12 -28 21 -36 21
-8 0 -15 5 -15 10 0 6 -7 10 -15 10 -8 0 -15 -7 -15 -15z m60 -29 c0 -2 3 -11
6 -19 3 -8 -3 -22 -12 -32 -15 -14 -15 -18 -3 -26 11 -7 11 -9 -4 -9 -13 0
-17 7 -15 28 2 15 8 30 13 35 6 4 4 11 -5 17 -13 8 -12 10 3 10 9 0 17 -2 17
-4z"/>
<path d="M693 7153 c-34 -4 -46 -23 -15 -23 37 0 92 13 92 21 0 9 -17 9 -77 2z"/>
<path d="M170 7001 c0 -6 -7 -11 -15 -11 -8 0 -15 -4 -15 -10 0 -5 9 -10 20
-10 11 0 20 -7 20 -15 0 -8 -4 -15 -10 -15 -5 0 -10 5 -10 10 0 6 -7 10 -15
10 -16 0 -18 -12 -9 -47 4 -13 14 -23 23 -23 14 0 14 -2 1 -10 -8 -5 -27 -10
-42 -10 -16 0 -28 -5 -28 -11 0 -8 14 -10 40 -6 37 5 40 3 40 -19 0 -32 16
-31 24 1 5 18 13 25 31 25 14 0 25 5 25 10 0 6 -11 10 -25 10 -14 0 -25 5 -25
10 0 6 8 10 19 10 11 0 21 9 25 23 10 39 7 47 -21 48 -24 2 -25 2 -5 6 23 5
31 23 10 23 -7 0 -23 3 -35 6 -14 4 -23 2 -23 -5z m50 -66 c0 -8 -2 -15 -4
-15 -2 0 -6 7 -10 15 -3 8 -1 15 4 15 6 0 10 -7 10 -15z"/>
<path d="M320 7001 c0 -5 8 -12 18 -14 16 -4 16 -5 0 -6 -10 0 -18 -6 -18 -12
0 -7 10 -9 26 -5 26 7 26 6 20 -29 -9 -47 9 -46 29 2 11 25 12 39 5 41 -6 2
-17 10 -24 18 -16 16 -56 19 -56 5z"/>
<path d="M280 6990 c0 -5 7 -10 15 -10 8 0 15 5 15 10 0 6 -7 10 -15 10 -8 0
-15 -4 -15 -10z"/>
<path d="M274 6954 c3 -9 6 -24 6 -35 0 -10 5 -19 10 -19 6 0 10 16 10 35 0
25 -4 35 -16 35 -11 0 -14 -5 -10 -16z"/>
<path d="M250 6715 c0 -8 -9 -15 -20 -15 -11 0 -20 -4 -20 -10 0 -5 9 -10 20
-10 15 0 19 -6 17 -30 -2 -32 -11 -39 -21 -15 -3 8 -1 15 4 15 6 0 10 5 10 10
0 6 -11 10 -25 10 -29 0 -28 2 -14 -38 6 -19 19 -32 32 -35 12 -2 3 -5 -20 -6
-54 -1 -57 -21 -3 -21 29 0 40 -4 40 -15 0 -22 17 -18 23 5 4 16 14 20 51 20
47 0 62 14 27 25 -17 5 -18 10 -10 35 9 24 7 32 -10 49 -12 12 -28 21 -36 21
-8 0 -15 5 -15 10 0 6 -7 10 -15 10 -8 0 -15 -7 -15 -15z m60 -29 c0 -2 3 -11
6 -19 3 -8 -3 -22 -12 -32 -15 -14 -15 -18 -3 -26 11 -7 11 -9 -4 -9 -13 0
-17 7 -15 28 2 15 8 30 13 35 6 4 4 11 -5 17 -13 8 -12 10 3 10 9 0 17 -2 17
-4z"/>
<path d="M693 6703 c-34 -4 -46 -23 -15 -23 37 0 92 13 92 21 0 9 -17 9 -77 2z"/>
<path d="M640 6666 c0 -1 5 -17 11 -35 12 -35 35 -43 25 -8 -3 12 -6 28 -6 35
0 6 -7 12 -15 12 -8 0 -15 -2 -15 -4z"/>
<path d="M170 6551 c0 -6 -7 -11 -15 -11 -8 0 -15 -4 -15 -10 0 -5 9 -10 20
-10 11 0 20 -7 20 -15 0 -8 -4 -15 -10 -15 -5 0 -10 5 -10 10 0 6 -7 10 -15
10 -16 0 -18 -12 -9 -47 4 -13 14 -23 23 -23 14 0 14 -2 1 -10 -8 -5 -27 -10
-42 -10 -16 0 -28 -5 -28 -11 0 -8 14 -10 40 -6 37 5 40 3 40 -19 0 -32 16
-31 24 1 5 18 13 25 31 25 14 0 25 5 25 10 0 6 -11 10 -25 10 -14 0 -25 5 -25
10 0 6 8 10 19 10 11 0 21 9 25 23 10 39 7 47 -21 48 -24 2 -25 2 -5 6 23 5
31 23 10 23 -7 0 -23 3 -35 6 -14 4 -23 2 -23 -5z m50 -66 c0 -8 -2 -15 -4
-15 -2 0 -6 7 -10 15 -3 8 -1 15 4 15 6 0 10 -7 10 -15z"/>
<path d="M320 6551 c0 -5 8 -12 18 -14 16 -4 16 -5 0 -6 -10 0 -18 -6 -18 -12
0 -7 10 -9 26 -5 26 7 26 6 20 -29 -9 -47 9 -46 29 2 11 25 12 39 5 41 -6 2
-17 10 -24 18 -16 16 -56 19 -56 5z"/>
<path d="M280 6540 c0 -5 7 -10 15 -10 8 0 15 5 15 10 0 6 -7 10 -15 10 -8 0
-15 -4 -15 -10z"/>
<path d="M274 6504 c3 -9 6 -24 6 -35 0 -10 5 -19 10 -19 6 0 10 7 10 15 0 8
9 15 20 15 11 0 20 5 20 10 0 6 -9 10 -20 10 -11 0 -20 5 -20 10 0 6 -7 10
-16 10 -11 0 -14 -5 -10 -16z"/>
<path d="M250 6265 c0 -8 -9 -15 -20 -15 -11 0 -20 -4 -20 -10 0 -5 9 -10 20
-10 15 0 19 -6 17 -30 -2 -32 -11 -39 -21 -15 -3 8 -1 15 4 15 6 0 10 5 10 10
0 6 -11 10 -25 10 -29 0 -28 2 -14 -38 6 -19 19 -32 32 -35 12 -2 3 -5 -20 -6
-54 -1 -57 -21 -3 -21 29 0 40 -4 40 -15 0 -22 17 -18 23 5 4 16 14 20 51 20
47 0 62 14 27 25 -17 5 -18 10 -10 35 9 24 7 32 -10 49 -12 12 -28 21 -36 21
-8 0 -15 5 -15 10 0 6 -7 10 -15 10 -8 0 -15 -7 -15 -15z m60 -29 c0 -2 3 -11
6 -19 3 -8 -3 -22 -12 -32 -15 -14 -15 -18 -3 -26 11 -7 11 -9 -4 -9 -13 0
-17 7 -15 28 2 15 8 30 13 35 6 4 4 11 -5 17 -13 8 -12 10 3 10 9 0 17 -2 17
-4z"/>
<path d="M693 6253 c-18 -2 -33 -9 -33 -15 0 -7 17 -8 49 -4 55 7 65 -2 54
-54 -8 -42 13 -38 27 4 10 31 9 37 -9 55 -12 12 -29 20 -38 19 -10 0 -33 -3
-50 -5z"/>
<path d="M720 6220 c0 -5 7 -10 15 -10 8 0 15 5 15 10 0 6 -7 10 -15 10 -8 0
-15 -4 -15 -10z"/>
<path d="M640 6216 c0 -1 5 -17 11 -35 13 -37 34 -42 25 -6 -4 14 -2 25 4 25
5 0 10 5 10 10 0 6 -11 10 -25 10 -14 0 -25 -2 -25 -4z"/>
<path d="M170 6101 c0 -6 -7 -11 -15 -11 -8 0 -15 -4 -15 -10 0 -5 9 -10 20
-10 11 0 20 -7 20 -15 0 -8 -4 -15 -10 -15 -5 0 -10 5 -10 10 0 6 -7 10 -15
10 -16 0 -18 -12 -9 -47 4 -13 14 -23 23 -23 14 0 14 -2 1 -10 -8 -5 -27 -10
-42 -10 -16 0 -28 -5 -28 -11 0 -8 14 -10 40 -6 37 5 40 3 40 -19 0 -32 16
-31 24 1 5 18 13 25 31 25 14 0 25 5 25 10 0 6 -11 10 -25 10 -14 0 -25 5 -25
10 0 6 8 10 19 10 11 0 21 9 25 23 10 39 7 47 -21 48 -24 2 -25 2 -5 6 23 5
31 23 10 23 -7 0 -23 3 -35 6 -14 4 -23 2 -23 -5z m50 -66 c0 -8 -2 -15 -4
-15 -2 0 -6 7 -10 15 -3 8 -1 15 4 15 6 0 10 -7 10 -15z"/>
<path d="M320 6101 c0 -5 8 -12 18 -14 16 -4 16 -5 0 -6 -10 0 -18 -6 -18 -12
0 -7 10 -9 25 -5 20 5 25 3 25 -13 0 -11 -5 -21 -12 -23 -13 -5 -2 -28 12 -28
15 0 43 74 30 78 -6 2 -17 10 -24 18 -16 16 -56 19 -56 5z"/>
<path d="M280 6090 c0 -5 7 -10 15 -10 8 0 15 5 15 10 0 6 -7 10 -15 10 -8 0
-15 -4 -15 -10z"/>
<path d="M274 6054 c3 -9 6 -24 6 -35 0 -14 7 -19 30 -19 35 0 40 17 8 23
l-23 4 23 2 c27 1 30 21 2 21 -11 0 -20 5 -20 10 0 6 -7 10 -16 10 -11 0 -14
-5 -10 -16z"/>
<path d="M250 5815 c0 -8 -9 -15 -20 -15 -11 0 -20 -4 -20 -10 0 -5 9 -10 20
-10 15 0 19 -6 17 -30 -2 -32 -11 -39 -21 -15 -3 8 -1 15 4 15 6 0 10 5 10 10
0 6 -11 10 -25 10 -29 0 -28 2 -14 -38 6 -19 19 -32 32 -35 12 -2 3 -5 -20 -6
-54 -1 -57 -21 -3 -21 29 0 40 -4 40 -15 0 -22 17 -18 23 5 4 16 14 20 51 20
47 0 62 14 27 25 -17 5 -18 10 -10 35 9 24 7 32 -10 49 -12 12 -28 21 -36 21
-8 0 -15 5 -15 10 0 6 -7 10 -15 10 -8 0 -15 -7 -15 -15z m60 -29 c0 -2 3 -11
6 -19 3 -8 -3 -22 -12 -32 -15 -14 -15 -18 -3 -26 11 -7 11 -9 -4 -9 -13 0
-17 7 -15 28 2 15 8 30 13 35 6 4 4 11 -5 17 -13 8 -12 10 3 10 9 0 17 -2 17
-4z"/>
<path d="M693 5803 c-18 -2 -33 -9 -33 -15 0 -7 17 -8 49 -4 55 7 61 1 53 -51
-6 -44 13 -43 28 1 10 31 9 37 -9 55 -12 12 -29 20 -38 19 -10 0 -33 -3 -50
-5z"/>
<path d="M720 5770 c0 -5 7 -10 15 -10 8 0 15 5 15 10 0 6 -7 10 -15 10 -8 0
-15 -4 -15 -10z"/>
<path d="M640 5766 c0 -1 5 -17 11 -35 13 -37 33 -42 27 -6 -3 14 -1 25 3 25
5 0 9 5 9 10 0 6 -11 10 -25 10 -14 0 -25 -2 -25 -4z"/>
<path d="M690 5740 c0 -5 11 -10 25 -10 14 0 25 5 25 10 0 6 -11 10 -25 10
-14 0 -25 -4 -25 -10z"/>
<path d="M170 5651 c0 -6 -7 -11 -15 -11 -8 0 -15 -4 -15 -10 0 -5 9 -10 20
-10 11 0 20 -7 20 -15 0 -8 -4 -15 -10 -15 -5 0 -10 5 -10 10 0 6 -7 10 -15
10 -16 0 -18 -12 -9 -47 4 -13 14 -23 23 -23 14 0 14 -2 1 -10 -8 -5 -27 -10
-42 -10 -16 0 -28 -5 -28 -11 0 -8 14 -10 40 -6 37 5 40 3 40 -19 0 -32 16
-31 24 1 5 18 13 25 31 25 14 0 25 5 25 10 0 6 -11 10 -25 10 -14 0 -25 5 -25
10 0 6 8 10 19 10 11 0 21 9 25 23 10 39 7 47 -21 48 -24 2 -25 2 -5 6 23 5
31 23 10 23 -7 0 -23 3 -35 6 -14 4 -23 2 -23 -5z m50 -66 c0 -8 -2 -15 -4
-15 -2 0 -6 7 -10 15 -3 8 -1 15 4 15 6 0 10 -7 10 -15z"/>
<path d="M320 5651 c0 -5 8 -12 18 -14 16 -4 16 -5 0 -6 -10 0 -18 -6 -18 -12
0 -7 10 -9 25 -5 20 5 25 3 25 -13 0 -11 -5 -21 -12 -23 -13 -5 -2 -28 12 -28
15 0 43 74 30 78 -6 2 -17 10 -24 18 -16 16 -56 19 -56 5z"/>
<path d="M280 5640 c0 -5 7 -10 15 -10 8 0 15 5 15 10 0 6 -7 10 -15 10 -8 0
-15 -4 -15 -10z"/>
<path d="M274 5604 c3 -9 6 -24 6 -35 0 -14 7 -19 30 -19 35 0 40 17 8 23
l-23 4 23 2 c27 1 30 21 2 21 -11 0 -20 5 -20 10 0 6 -7 10 -16 10 -11 0 -14
-5 -10 -16z"/>
<path d="M333 5541 c-47 -6 -73 -16 -62 -24 2 -2 37 -2 77 1 48 3 72 8 69 16
-5 14 -19 15 -84 7z"/>
<path d="M250 5365 c0 -8 -9 -15 -20 -15 -11 0 -20 -4 -20 -10 0 -5 9 -10 20
-10 15 0 19 -6 17 -30 -2 -32 -11 -39 -21 -15 -3 8 -1 15 4 15 6 0 10 5 10 10
0 6 -11 10 -25 10 -29 0 -28 2 -14 -38 6 -19 19 -32 32 -35 12 -2 3 -5 -20 -6
-54 -1 -57 -21 -3 -21 29 0 40 -4 40 -15 0 -22 17 -18 23 5 6 23 37 27 37 5 0
-8 -7 -15 -15 -15 -8 0 -15 -4 -15 -10 0 -5 6 -10 14 -10 8 0 16 -7 20 -15 3
-8 1 -15 -4 -15 -6 0 -10 5 -10 10 0 6 -7 10 -16 10 -11 0 -14 -5 -10 -16 3
-9 6 -24 6 -35 0 -13 7 -19 23 -20 20 -1 19 -2 -5 -11 -34 -12 -37 -31 -5 -26
16 2 23 -3 25 -19 5 -31 22 -29 22 2 0 23 4 25 41 25 28 0 39 4 36 13 -2 7
-18 11 -41 9 l-37 -3 4 38 c4 38 27 60 27 25 0 -11 -5 -22 -12 -24 -13 -5 -2
-28 12 -28 14 0 43 74 31 78 -22 7 -56 45 -43 49 18 7 15 21 -7 28 -17 5 -18
10 -10 35 9 24 7 32 -10 49 -12 12 -28 21 -36 21 -8 0 -15 5 -15 10 0 6 -7 10
-15 10 -8 0 -15 -7 -15 -15z m60 -29 c0 -2 3 -11 6 -19 3 -8 -3 -22 -12 -32
-15 -14 -15 -18 -3 -26 11 -7 11 -9 -4 -9 -13 0 -17 7 -15 28 2 15 8 30 13 35
6 4 4 11 -5 17 -13 8 -12 10 3 10 9 0 17 -2 17 -4z"/>
<path d="M693 5353 c-18 -2 -33 -9 -33 -15 0 -7 17 -8 49 -4 51 7 68 -5 55
-39 -7 -17 -24 -20 -24 -5 0 6 -11 10 -25 10 -14 0 -25 -4 -25 -10 0 -5 9 -10
21 -10 11 0 27 -7 35 -15 23 -22 31 -19 44 19 10 31 9 37 -9 55 -12 12 -29 20
-38 19 -10 0 -33 -3 -50 -5z"/>
<path d="M720 5320 c0 -5 7 -10 15 -10 8 0 15 5 15 10 0 6 -7 10 -15 10 -8 0
-15 -4 -15 -10z"/>
<path d="M640 5316 c0 -1 5 -17 11 -35 9 -25 16 -31 40 -31 16 0 29 5 29 10 0
6 -9 10 -19 10 -10 0 -21 7 -25 15 -3 8 -1 15 4 15 6 0 10 5 10 10 0 6 -11 10
-25 10 -14 0 -25 -2 -25 -4z"/>
<path d="M170 5201 c0 -6 -7 -11 -15 -11 -8 0 -15 -4 -15 -10 0 -5 9 -10 20
-10 11 0 20 -7 20 -15 0 -8 -4 -15 -10 -15 -5 0 -10 5 -10 10 0 6 -7 10 -15
10 -16 0 -18 -12 -9 -47 4 -13 14 -23 23 -23 14 0 14 -2 1 -10 -8 -5 -27 -10
-42 -10 -16 0 -28 -5 -28 -11 0 -8 14 -10 40 -6 37 5 40 3 40 -19 0 -32 16
-31 24 1 5 18 13 25 31 25 14 0 25 5 25 10 0 6 -11 10 -25 10 -14 0 -25 5 -25
10 0 6 8 10 19 10 11 0 21 9 25 23 10 39 7 47 -21 48 -24 2 -25 2 -5 6 23 5
31 23 10 23 -7 0 -23 3 -35 6 -14 4 -23 2 -23 -5z m50 -66 c0 -8 -2 -15 -4
-15 -2 0 -6 7 -10 15 -3 8 -1 15 4 15 6 0 10 -7 10 -15z"/>
<path d="M693 4903 c-18 -2 -33 -9 -33 -15 0 -7 17 -8 49 -4 51 7 68 -5 55
-39 -7 -17 -24 -20 -24 -5 0 6 -11 10 -25 10 -14 0 -25 -4 -25 -10 0 -5 9 -10
21 -10 11 0 27 -7 35 -15 14 -13 13 -15 -5 -15 -12 0 -21 5 -21 10 0 6 -9 10
-19 10 -10 0 -21 7 -25 15 -3 8 -1 15 4 15 6 0 10 5 10 10 0 6 -11 10 -25 10
-29 0 -28 2 -14 -38 7 -22 18 -32 37 -35 16 -2 7 -5 -20 -6 -29 0 -48 -6 -48
-12 0 -9 20 -10 68 -6 37 4 82 7 100 7 35 0 43 15 13 25 -17 5 -18 10 -10 35
9 24 7 32 -10 49 -12 12 -29 20 -38 19 -10 0 -33 -3 -50 -5z"/>
<path d="M720 4870 c0 -5 7 -10 15 -10 8 0 15 5 15 10 0 6 -7 10 -15 10 -8 0
-15 -4 -15 -10z"/>
<path d="M700 4465 c0 -8 -9 -15 -20 -15 -11 0 -20 -4 -20 -10 0 -5 9 -10 20
-10 15 0 19 -6 17 -30 -2 -32 -11 -39 -21 -15 -3 8 -1 15 4 15 6 0 10 5 10 10
0 6 -11 10 -25 10 -29 0 -28 2 -14 -38 6 -19 19 -32 32 -35 12 -2 3 -5 -20 -6
-54 -1 -57 -21 -3 -21 29 0 40 -4 40 -15 0 -22 17 -18 23 5 4 16 14 20 51 20
47 0 62 14 27 25 -17 5 -18 10 -10 35 9 24 7 32 -10 49 -12 12 -28 21 -36 21
-8 0 -15 5 -15 10 0 6 -7 10 -15 10 -8 0 -15 -7 -15 -15z m60 -29 c0 -2 3 -11
6 -19 3 -8 -3 -22 -12 -32 -15 -14 -15 -18 -3 -26 11 -7 11 -9 -4 -9 -13 0
-17 7 -15 28 2 15 8 30 13 35 6 4 4 11 -5 17 -13 8 -12 10 3 10 9 0 17 -2 17
-4z"/>
<path d="M700 4015 c0 -8 -9 -15 -20 -15 -11 0 -20 -4 -20 -10 0 -5 9 -10 20
-10 15 0 19 -6 17 -30 -2 -32 -11 -39 -21 -15 -3 8 -1 15 4 15 6 0 10 5 10 10
0 6 -11 10 -25 10 -29 0 -28 2 -14 -38 6 -19 19 -32 32 -35 12 -2 3 -5 -20 -6
-54 -1 -57 -21 -3 -21 29 0 40 -4 40 -15 0 -22 17 -18 23 5 4 16 14 20 51 20
47 0 62 14 27 25 -17 5 -18 10 -10 35 9 24 7 32 -10 49 -12 12 -28 21 -36 21
-8 0 -15 5 -15 10 0 6 -7 10 -15 10 -8 0 -15 -7 -15 -15z m60 -29 c0 -2 3 -11
6 -19 3 -8 -3 -22 -12 -32 -15 -14 -15 -18 -3 -26 11 -7 11 -9 -4 -9 -13 0
-17 7 -15 28 2 15 8 30 13 35 6 4 4 11 -5 17 -13 8 -12 10 3 10 9 0 17 -2 17
-4z"/>
<path d="M650 3840 c0 -5 9 -10 20 -10 11 0 20 5 20 10 0 6 -9 10 -20 10 -11
0 -20 -4 -20 -10z"/>
<path d="M590 3830 c0 -5 11 -10 25 -10 14 0 25 5 25 10 0 6 -11 10 -25 10
-14 0 -25 -4 -25 -10z"/>
<path d="M700 3565 c0 -8 -9 -15 -20 -15 -11 0 -20 -4 -20 -10 0 -5 9 -10 20
-10 15 0 19 -6 17 -30 -2 -32 -11 -39 -21 -15 -3 8 -1 15 4 15 6 0 10 5 10 10
0 6 -11 10 -25 10 -29 0 -28 2 -14 -38 6 -19 19 -32 32 -35 12 -2 3 -5 -20 -6
-54 -1 -57 -21 -3 -21 29 0 40 -4 40 -15 0 -22 17 -18 23 5 4 16 14 20 51 20
47 0 62 14 27 25 -17 5 -18 10 -10 35 9 24 7 32 -10 49 -12 12 -28 21 -36 21
-8 0 -15 5 -15 10 0 6 -7 10 -15 10 -8 0 -15 -7 -15 -15z m60 -29 c0 -2 3 -11
6 -19 3 -8 -3 -22 -12 -32 -15 -14 -15 -18 -3 -26 11 -7 11 -9 -4 -9 -13 0
-17 7 -15 28 2 15 8 30 13 35 6 4 4 11 -5 17 -13 8 -12 10 3 10 9 0 17 -2 17
-4z"/>
<path d="M650 3390 c0 -5 9 -10 20 -10 11 0 20 5 20 10 0 6 -9 10 -20 10 -11
0 -20 -4 -20 -10z"/>
<path d="M590 3380 c0 -5 11 -10 25 -10 14 0 25 5 25 10 0 6 -11 10 -25 10
-14 0 -25 -4 -25 -10z"/>
<path d="M580 3348 c0 -25 12 -58 21 -58 10 0 12 31 3 54 -7 19 -24 21 -24 4z"/>
<path d="M700 3115 c0 -8 -9 -15 -20 -15 -11 0 -20 -4 -20 -10 0 -5 9 -10 20
-10 15 0 19 -6 17 -30 -2 -32 -11 -39 -21 -15 -3 8 -1 15 4 15 6 0 10 5 10 10
0 6 -11 10 -25 10 -29 0 -28 2 -14 -38 6 -19 19 -32 32 -35 12 -2 3 -5 -20 -6
-54 -1 -57 -21 -3 -21 29 0 40 -4 40 -15 0 -22 17 -18 23 5 4 16 14 20 51 20
47 0 62 14 27 25 -17 5 -18 10 -10 35 9 24 7 32 -10 49 -12 12 -28 21 -36 21
-8 0 -15 5 -15 10 0 6 -7 10 -15 10 -8 0 -15 -7 -15 -15z m60 -29 c0 -2 3 -11
6 -19 3 -8 -3 -22 -12 -32 -15 -14 -15 -18 -3 -26 11 -7 11 -9 -4 -9 -13 0
-17 7 -15 28 2 15 8 30 13 35 6 4 4 11 -5 17 -13 8 -12 10 3 10 9 0 17 -2 17
-4z"/>
<path d="M650 2940 c0 -5 9 -10 20 -10 11 0 20 5 20 10 0 6 -9 10 -20 10 -11
0 -20 -4 -20 -10z"/>
<path d="M590 2930 c0 -5 11 -10 25 -10 14 0 25 -4 25 -10 0 -5 7 -10 15 -10
9 0 15 -9 15 -25 0 -31 16 -33 24 -2 10 40 7 47 -24 47 -16 0 -30 5 -30 10 0
6 -11 10 -25 10 -14 0 -25 -4 -25 -10z"/>
<path d="M580 2898 c0 -25 12 -58 21 -58 5 0 9 16 9 35 0 24 -5 35 -15 35 -8
0 -15 -6 -15 -12z"/>
<path d="M700 2665 c0 -8 -9 -15 -20 -15 -11 0 -20 -4 -20 -10 0 -5 9 -10 20
-10 15 0 19 -6 17 -30 -2 -32 -11 -39 -21 -15 -3 8 -1 15 4 15 6 0 10 5 10 10
0 6 -11 10 -25 10 -29 0 -28 2 -14 -38 6 -19 19 -32 32 -35 12 -2 3 -5 -20 -6
-54 -1 -57 -21 -3 -21 29 0 40 -4 40 -15 0 -22 17 -18 23 5 4 16 14 20 51 20
47 0 62 14 27 25 -17 5 -18 10 -10 35 9 24 7 32 -10 49 -12 12 -28 21 -36 21
-8 0 -15 5 -15 10 0 6 -7 10 -15 10 -8 0 -15 -7 -15 -15z m60 -29 c0 -2 3 -11
6 -19 3 -8 -3 -22 -12 -32 -15 -14 -15 -18 -3 -26 11 -7 11 -9 -4 -9 -13 0
-17 7 -15 28 2 15 8 30 13 35 6 4 4 11 -5 17 -13 8 -12 10 3 10 9 0 17 -2 17
-4z"/>
<path d="M650 2490 c0 -5 9 -10 20 -10 11 0 20 5 20 10 0 6 -9 10 -20 10 -11
0 -20 -4 -20 -10z"/>
<path d="M590 2480 c0 -5 11 -10 25 -10 14 0 25 -4 25 -10 0 -5 7 -10 15 -10
9 0 15 -9 15 -25 0 -31 16 -33 24 -2 10 40 7 47 -24 47 -16 0 -30 5 -30 10 0
6 -11 10 -25 10 -14 0 -25 -4 -25 -10z"/>
<path d="M580 2448 c0 -25 12 -58 21 -58 5 0 9 7 9 15 0 9 9 15 25 15 14 0 25
5 25 10 0 6 -11 10 -25 10 -14 0 -25 5 -25 10 0 6 -7 10 -15 10 -8 0 -15 -6
-15 -12z"/>
<path d="M700 2215 c0 -8 -9 -15 -20 -15 -11 0 -20 -4 -20 -10 0 -5 9 -10 20
-10 15 0 19 -6 17 -30 -2 -32 -11 -39 -21 -15 -3 8 -1 15 4 15 6 0 10 5 10 10
0 6 -11 10 -25 10 -29 0 -28 2 -14 -38 6 -19 19 -32 32 -35 12 -2 3 -5 -20 -6
-54 -1 -57 -21 -3 -21 29 0 40 -4 40 -15 0 -22 17 -18 23 5 4 16 14 20 51 20
47 0 62 14 27 25 -17 5 -18 10 -10 35 9 24 7 32 -10 49 -12 12 -28 21 -36 21
-8 0 -15 5 -15 10 0 6 -7 10 -15 10 -8 0 -15 -7 -15 -15z m60 -29 c0 -2 3 -11
6 -19 3 -8 -3 -22 -12 -32 -15 -14 -15 -18 -3 -26 11 -7 11 -9 -4 -9 -13 0
-17 7 -15 28 2 15 8 30 13 35 6 4 4 11 -5 17 -13 8 -12 10 3 10 9 0 17 -2 17
-4z"/>
<path d="M650 2040 c0 -5 9 -10 20 -10 11 0 20 5 20 10 0 6 -9 10 -20 10 -11
0 -20 -4 -20 -10z"/>
<path d="M590 2030 c0 -5 11 -10 25 -10 14 0 25 -4 25 -10 0 -5 7 -10 15 -10
8 0 15 -8 14 -17 0 -11 -3 -13 -6 -5 -2 6 -16 12 -29 12 -13 0 -24 5 -24 10 0
6 -7 10 -15 10 -16 0 -18 -12 -9 -47 4 -14 14 -23 25 -23 21 0 26 16 7 23 -7
3 -3 6 10 6 12 1 22 -3 22 -9 0 -20 38 -10 44 13 10 40 7 47 -24 47 -16 0 -30
5 -30 10 0 6 -11 10 -25 10 -14 0 -25 -4 -25 -10z"/>
<path d="M700 1765 c0 -8 -9 -15 -20 -15 -11 0 -20 -4 -20 -10 0 -5 9 -10 20
-10 15 0 19 -6 17 -30 -2 -32 -11 -39 -21 -15 -3 8 -1 15 4 15 6 0 10 5 10 10
0 6 -11 10 -25 10 -29 0 -28 2 -14 -38 6 -19 19 -32 32 -35 12 -2 3 -5 -20 -6
-54 -1 -57 -21 -3 -21 29 0 40 -4 40 -15 0 -22 17 -18 23 5 4 16 14 20 51 20
47 0 62 14 27 25 -17 5 -18 10 -10 35 9 24 7 32 -10 49 -12 12 -28 21 -36 21
-8 0 -15 5 -15 10 0 6 -7 10 -15 10 -8 0 -15 -7 -15 -15z m60 -29 c0 -2 3 -11
6 -19 3 -8 -3 -22 -12 -32 -15 -14 -15 -18 -3 -26 11 -7 11 -9 -4 -9 -13 0
-17 7 -15 28 2 15 8 30 13 35 6 4 4 11 -5 17 -13 8 -12 10 3 10 9 0 17 -2 17
-4z"/>
<path d="M650 1590 c0 -5 9 -10 20 -10 11 0 20 5 20 10 0 6 -9 10 -20 10 -11
0 -20 -4 -20 -10z"/>
<path d="M590 1580 c0 -5 11 -10 25 -10 14 0 25 -4 25 -10 0 -5 7 -10 15 -10
8 0 15 -8 14 -17 0 -11 -3 -13 -6 -5 -2 6 -16 12 -29 12 -13 0 -24 5 -24 10 0
6 -7 10 -15 10 -16 0 -18 -12 -9 -47 4 -14 14 -23 25 -23 21 0 26 16 7 23 -7
3 -3 6 10 6 12 1 22 -3 22 -9 0 -20 38 -10 44 13 10 40 7 47 -24 47 -16 0 -30
5 -30 10 0 6 -11 10 -25 10 -14 0 -25 -4 -25 -10z"/>
<path d="M573 1473 c-18 -2 -33 -9 -33 -15 0 -7 16 -9 46 -4 26 3 62 6 80 6
19 0 34 5 34 10 0 10 -61 11 -127 3z"/>
<path d="M700 1315 c0 -8 -9 -15 -20 -15 -11 0 -20 -4 -20 -10 0 -5 9 -10 20
-10 15 0 19 -6 17 -30 -2 -32 -11 -39 -21 -15 -3 8 -1 15 4 15 6 0 10 5 10 10
0 6 -11 10 -25 10 -29 0 -28 2 -14 -38 6 -19 19 -32 32 -35 12 -2 3 -5 -20 -6
-54 -1 -57 -21 -3 -21 29 0 40 -4 40 -15 0 -22 17 -18 23 5 4 16 14 20 51 20
47 0 62 14 27 25 -17 5 -18 10 -10 35 9 24 7 32 -10 49 -12 12 -28 21 -36 21
-8 0 -15 5 -15 10 0 6 -7 10 -15 10 -8 0 -15 -7 -15 -15z m60 -29 c0 -2 3 -11
6 -19 3 -8 -3 -22 -12 -32 -15 -14 -15 -18 -3 -26 11 -7 11 -9 -4 -9 -13 0
-17 7 -15 28 2 15 8 30 13 35 6 4 4 11 -5 17 -13 8 -12 10 3 10 9 0 17 -2 17
-4z"/>
<path d="M620 1151 c0 -6 -7 -11 -15 -11 -8 0 -15 -4 -15 -10 0 -5 9 -10 20
-10 11 0 20 -7 20 -15 0 -8 -4 -15 -10 -15 -5 0 -10 5 -10 10 0 6 -7 10 -15
10 -16 0 -18 -12 -9 -47 4 -13 14 -23 23 -23 14 0 14 -2 1 -10 -8 -5 -27 -10
-42 -10 -16 0 -28 -5 -28 -11 0 -8 14 -10 40 -6 37 5 40 3 40 -19 0 -32 16
-31 24 1 5 18 13 25 31 25 14 0 25 5 25 10 0 6 -11 10 -25 10 -14 0 -25 5 -25
10 0 6 8 10 19 10 11 0 21 9 25 23 10 39 7 47 -21 48 -24 2 -25 2 -5 6 23 5
31 23 10 23 -7 0 -23 3 -35 6 -14 4 -23 2 -23 -5z m50 -66 c0 -8 -2 -15 -4
-15 -2 0 -6 7 -10 15 -3 8 -1 15 4 15 6 0 10 -7 10 -15z"/>
<path d="M700 865 c0 -8 -9 -15 -20 -15 -11 0 -20 -4 -20 -10 0 -5 9 -10 20
-10 15 0 19 -6 17 -30 -2 -32 -11 -39 -21 -15 -3 8 -1 15 4 15 6 0 10 5 10 10
0 6 -11 10 -25 10 -29 0 -28 2 -14 -38 6 -19 19 -32 32 -35 12 -2 3 -5 -20 -6
-54 -1 -57 -21 -3 -21 29 0 40 -4 40 -15 0 -22 17 -18 23 5 4 16 14 20 51 20
47 0 62 14 27 25 -17 5 -18 10 -10 35 9 24 7 32 -10 49 -12 12 -28 21 -36 21
-8 0 -15 5 -15 10 0 6 -7 10 -15 10 -8 0 -15 -7 -15 -15z m60 -29 c0 -2 3 -11
6 -19 3 -8 -3 -22 -12 -32 -15 -14 -15 -18 -3 -26 11 -7 11 -9 -4 -9 -13 0
-17 7 -15 28 2 15 8 30 13 35 6 4 4 11 -5 17 -13 8 -12 10 3 10 9 0 17 -2 17
-4z"/>
<path d="M620 701 c0 -6 -7 -11 -15 -11 -8 0 -15 -4 -15 -10 0 -5 9 -10 20
-10 11 0 20 -7 20 -15 0 -8 -4 -15 -10 -15 -5 0 -10 5 -10 10 0 6 -7 10 -15
10 -16 0 -18 -12 -9 -47 4 -13 14 -23 23 -23 14 0 14 -2 1 -10 -8 -5 -27 -10
-42 -10 -16 0 -28 -5 -28 -11 0 -8 14 -10 40 -6 37 5 40 3 40 -19 0 -32 16
-31 24 1 5 18 13 25 31 25 14 0 25 5 25 10 0 6 -11 10 -25 10 -14 0 -25 5 -25
10 0 6 8 10 19 10 11 0 21 9 25 23 10 39 7 47 -21 48 -24 2 -25 2 -5 6 23 5
31 23 10 23 -7 0 -23 3 -35 6 -14 4 -23 2 -23 -5z m50 -66 c0 -8 -2 -15 -4
-15 -2 0 -6 7 -10 15 -3 8 -1 15 4 15 6 0 10 -7 10 -15z"/>
<path d="M770 700 c0 -5 11 -10 25 -10 14 0 25 5 25 10 0 6 -11 10 -25 10 -14
0 -25 -4 -25 -10z"/>
<path d="M730 690 c0 -5 7 -10 15 -10 8 0 15 5 15 10 0 6 -7 10 -15 10 -8 0
-15 -4 -15 -10z"/>
<path d="M700 415 c0 -8 -9 -15 -20 -15 -11 0 -20 -4 -20 -10 0 -5 9 -10 20
-10 15 0 19 -6 17 -30 -2 -32 -11 -39 -21 -15 -3 8 -1 15 4 15 6 0 10 5 10 10
0 6 -11 10 -25 10 -29 0 -28 2 -14 -38 6 -19 19 -32 32 -35 12 -2 3 -5 -20 -6
-54 -1 -57 -21 -3 -21 29 0 40 -4 40 -15 0 -22 17 -18 23 5 4 16 14 20 51 20
47 0 62 14 27 25 -17 5 -18 10 -10 35 9 24 7 32 -10 49 -12 12 -28 21 -36 21
-8 0 -15 5 -15 10 0 6 -7 10 -15 10 -8 0 -15 -7 -15 -15z m60 -29 c0 -2 3 -11
6 -19 3 -8 -3 -22 -12 -32 -15 -14 -15 -18 -3 -26 11 -7 11 -9 -4 -9 -13 0
-17 7 -15 28 2 15 8 30 13 35 6 4 4 11 -5 17 -13 8 -12 10 3 10 9 0 17 -2 17
-4z"/>
<path d="M620 251 c0 -6 -7 -11 -15 -11 -8 0 -15 -4 -15 -10 0 -5 9 -10 20
-10 11 0 20 -7 20 -15 0 -8 -4 -15 -10 -15 -5 0 -10 5 -10 10 0 6 -7 10 -15
10 -16 0 -18 -12 -9 -47 4 -13 14 -23 23 -23 14 0 14 -2 1 -10 -8 -5 -27 -10
-42 -10 -16 0 -28 -5 -28 -11 0 -8 14 -10 40 -6 37 5 40 3 40 -19 0 -32 16
-31 24 1 5 18 13 25 31 25 14 0 25 5 25 10 0 6 -11 10 -25 10 -14 0 -25 5 -25
10 0 6 8 10 19 10 11 0 21 9 25 23 10 39 7 47 -21 48 -24 2 -25 2 -5 6 23 5
31 23 10 23 -7 0 -23 3 -35 6 -14 4 -23 2 -23 -5z m50 -66 c0 -8 -2 -15 -4
-15 -2 0 -6 7 -10 15 -3 8 -1 15 4 15 6 0 10 -7 10 -15z"/>
<path d="M770 250 c0 -5 11 -10 25 -10 14 0 25 5 25 10 0 6 -11 10 -25 10 -14
0 -25 -4 -25 -10z"/>
<path d="M730 240 c0 -5 7 -10 15 -10 8 0 15 5 15 10 0 6 -7 10 -15 10 -8 0
-15 -4 -15 -10z"/>
<path d="M724 204 c3 -9 6 -24 6 -35 0 -10 5 -19 10 -19 6 0 10 16 10 35 0 25
-4 35 -16 35 -11 0 -14 -5 -10 -16z"/>
</g>
</svg>
