<?xml version="1.0" standalone="no"?>
<!DOCTYPE svg PUBLIC "-//W3C//DTD SVG 20010904//EN"
 "http://www.w3.org/TR/2001/REC-SVG-20010904/DTD/svg10.dtd">
<svg version="1.0" xmlns="http://www.w3.org/2000/svg"
 width="50.000000pt" height="725.000000pt" viewBox="0 0 50.000000 725.000000"
 preserveAspectRatio="xMidYMid meet">
<metadata>
Created by potrace 1.16, written by Peter Selinger 2001-2019
</metadata>
<g transform="translate(0.000000,725.000000) scale(0.100000,-0.100000)"
fill="#000000" stroke="none">
<path d="M230 7162 c0 -5 6 -17 14 -28 12 -15 17 -16 27 -7 10 10 9 15 -1 28
-13 16 -40 21 -40 7z"/>
<path d="M230 6714 c0 -3 5 -14 10 -25 10 -17 7 -19 -30 -19 -23 0 -40 -5 -40
-11 0 -9 24 -10 86 -6 48 3 89 9 92 12 11 10 -22 25 -41 19 -12 -4 -24 1 -33
15 -14 19 -44 30 -44 15z"/>
<path d="M230 6264 c0 -3 5 -14 10 -25 10 -17 7 -19 -30 -19 -39 0 -54 -13
-26 -23 7 -3 16 -22 20 -41 9 -49 29 -46 24 3 l-3 39 62 7 c61 6 79 17 48 29
-8 3 -22 3 -31 -1 -9 -3 -21 3 -30 16 -14 19 -44 30 -44 15z"/>
<path d="M230 5814 c0 -3 5 -14 10 -25 10 -17 7 -19 -30 -19 -39 0 -54 -13
-26 -23 7 -3 16 -22 20 -41 9 -50 29 -46 24 4 -3 39 -3 40 29 40 31 0 32 -2
27 -30 -4 -16 -3 -30 1 -30 12 0 34 33 35 53 0 9 7 17 15 17 8 0 15 4 15 9 0
13 -27 21 -46 14 -9 -3 -21 3 -30 16 -14 19 -44 30 -44 15z"/>
<path d="M230 5364 c0 -3 5 -14 10 -25 10 -17 7 -19 -30 -19 -42 0 -49 -6 -26
-24 8 -6 17 -26 21 -43 l7 -33 -62 0 c-45 0 -61 -3 -57 -12 2 -8 18 -12 38
-11 19 1 91 5 162 9 70 4 127 10 127 14 0 16 -35 20 -110 14 l-78 -7 -4 37
c-4 35 -3 36 29 36 31 0 32 -2 27 -30 -4 -16 -3 -30 1 -30 12 0 34 33 35 53 0
9 7 17 15 17 8 0 15 4 15 9 0 13 -27 21 -46 14 -9 -3 -21 3 -30 16 -14 19 -44
30 -44 15z"/>
<path d="M230 4914 c0 -3 5 -14 10 -25 10 -17 7 -19 -30 -19 -42 0 -49 -6 -26
-24 8 -6 17 -26 21 -43 l7 -33 -62 0 c-45 0 -61 -3 -57 -12 2 -8 18 -12 38
-11 19 1 91 5 162 9 70 4 127 10 127 14 0 16 -35 20 -110 14 l-78 -7 -4 37
c-4 35 -3 36 29 36 31 0 32 -2 27 -30 -4 -16 -3 -30 1 -30 12 0 34 33 35 53 0
9 7 17 15 17 8 0 15 4 15 9 0 13 -27 21 -46 14 -9 -3 -21 3 -30 16 -14 19 -44
30 -44 15z"/>
<path d="M198 4713 c-32 -3 -48 -9 -48 -17 0 -11 22 -13 108 -9 59 3 109 7
111 9 1 1 0 7 -4 13 -6 11 -65 12 -167 4z"/>
<path d="M230 4464 c0 -3 5 -14 10 -25 10 -17 7 -19 -30 -19 -42 0 -49 -6 -26
-24 8 -6 17 -26 21 -43 l7 -33 -62 0 c-45 0 -61 -3 -57 -12 4 -13 31 -15 102
-7 35 3 40 1 40 -16 0 -16 -8 -21 -42 -23 -31 -2 -43 -8 -43 -19 0 -12 8 -14
45 -9 l45 7 0 -60 c0 -78 17 -79 26 -1 l7 60 49 0 c66 0 60 24 -6 28 -38 3
-46 6 -42 18 3 9 6 18 6 20 0 2 32 4 70 4 39 0 70 4 70 9 0 17 -33 21 -110 15
l-78 -7 -4 37 c-4 35 -3 36 29 36 31 0 32 -2 27 -30 -4 -16 -3 -30 1 -30 12 0
34 33 35 53 0 9 7 17 15 17 8 0 15 4 15 9 0 13 -27 21 -46 14 -9 -3 -21 3 -30
16 -14 19 -44 30 -44 15z"/>
</g>
</svg>
