<?xml version="1.0" standalone="no"?>
<!DOCTYPE svg PUBLIC "-//W3C//DTD SVG 20010904//EN"
 "http://www.w3.org/TR/2001/REC-SVG-20010904/DTD/svg10.dtd">
<svg version="1.0" xmlns="http://www.w3.org/2000/svg"
 width="50.000000pt" height="725.000000pt" viewBox="0 0 50.000000 725.000000"
 preserveAspectRatio="xMidYMid meet">
<metadata>
Created by potrace 1.16, written by Peter Selinger 2001-2019
</metadata>
<g transform="translate(0.000000,725.000000) scale(0.100000,-0.100000)"
fill="#000000" stroke="none">
<path d="M243 7143 c-53 -5 -57 -23 -5 -23 54 0 112 11 112 21 0 9 -24 9 -107
2z"/>
<path d="M250 6710 c0 -15 -7 -20 -25 -20 -14 0 -25 -4 -25 -10 0 -5 9 -10 20
-10 11 0 20 -7 20 -15 0 -19 19 -19 26 0 4 8 24 18 45 21 49 8 51 24 4 24 -24
0 -35 5 -35 15 0 8 -7 15 -15 15 -8 0 -15 -9 -15 -20z"/>
<path d="M250 6260 c0 -15 -7 -20 -25 -20 -14 0 -25 -4 -25 -10 0 -5 9 -10 20
-10 11 0 20 -7 20 -15 0 -19 19 -19 26 0 4 8 24 18 45 21 49 8 51 24 4 24 -24
0 -35 5 -35 15 0 8 -7 15 -15 15 -8 0 -15 -9 -15 -20z"/>
<path d="M180 6185 c0 -12 24 -55 32 -55 9 0 11 22 2 44 -5 14 -34 24 -34 11z"/>
<path d="M250 5810 c0 -15 -7 -20 -25 -20 -14 0 -25 -4 -25 -10 0 -5 9 -10 21
-10 16 0 19 -4 14 -20 -6 -17 -2 -20 29 -20 26 0 36 -4 36 -16 0 -9 6 -14 13
-11 6 2 12 15 12 28 0 20 -5 24 -27 22 -43 -3 -33 16 12 23 49 8 53 24 5 24
-24 0 -35 5 -35 15 0 8 -7 15 -15 15 -8 0 -15 -9 -15 -20z"/>
<path d="M180 5735 c0 -12 24 -55 32 -55 4 0 8 14 8 30 0 23 -4 30 -20 30 -11
0 -20 -2 -20 -5z"/>
<path d="M250 5360 c0 -15 -7 -20 -25 -20 -14 0 -25 -4 -25 -10 0 -5 9 -10 21
-10 16 0 19 -4 14 -20 -6 -17 -2 -20 30 -20 22 0 34 -4 30 -10 -3 -5 -19 -10
-36 -10 -16 0 -29 -4 -29 -10 0 -5 20 -10 45 -10 39 0 45 3 51 24 8 34 -3 49
-32 42 -13 -4 -24 -2 -24 4 0 5 18 13 40 16 49 8 53 24 5 24 -24 0 -35 5 -35
15 0 8 -7 15 -15 15 -8 0 -15 -9 -15 -20z"/>
<path d="M180 5285 c0 -12 24 -55 32 -55 4 0 8 14 8 30 0 23 -4 30 -20 30 -11
0 -20 -2 -20 -5z"/>
<path d="M250 4910 c0 -15 -7 -20 -25 -20 -14 0 -25 -4 -25 -10 0 -5 9 -10 21
-10 16 0 19 -4 14 -20 -6 -17 -2 -20 30 -20 22 0 34 -4 30 -10 -3 -5 -19 -10
-36 -10 -32 0 -35 -6 -15 -32 16 -22 26 -23 26 -3 0 9 9 15 25 15 18 0 26 7
31 24 8 34 -3 49 -32 42 -13 -4 -24 -2 -24 4 0 5 18 13 40 16 49 8 53 24 5 24
-24 0 -35 5 -35 15 0 8 -7 15 -15 15 -8 0 -15 -9 -15 -20z"/>
<path d="M180 4835 c0 -12 24 -55 32 -55 4 0 8 14 8 30 0 23 -4 30 -20 30 -11
0 -20 -2 -20 -5z"/>
<path d="M250 4460 c0 -15 -7 -20 -25 -20 -14 0 -25 -4 -25 -10 0 -5 9 -10 21
-10 16 0 19 -4 14 -20 -6 -17 -2 -20 30 -20 22 0 34 -4 30 -10 -3 -5 -19 -10
-36 -10 -30 0 -36 -9 -18 -27 8 -8 0 -13 -30 -18 -23 -4 -41 -11 -41 -17 0 -6
12 -8 31 -4 17 3 58 6 91 6 43 0 58 3 55 13 -2 7 -19 11 -41 10 -20 -1 -36 2
-36 7 0 6 11 10 25 10 18 0 26 7 31 24 8 34 -3 49 -32 42 -13 -4 -24 -2 -24 4
0 5 18 13 40 16 49 8 53 24 5 24 -24 0 -35 5 -35 15 0 8 -7 15 -15 15 -8 0
-15 -9 -15 -20z"/>
<path d="M180 4385 c0 -12 24 -55 32 -55 4 0 8 14 8 30 0 23 -4 30 -20 30 -11
0 -20 -2 -20 -5z"/>
<path d="M250 4010 c0 -15 -7 -20 -25 -20 -14 0 -25 -4 -25 -10 0 -5 9 -10 21
-10 16 0 19 -4 14 -20 -6 -17 -2 -20 30 -20 22 0 34 -4 30 -10 -3 -5 -19 -10
-36 -10 -30 0 -36 -9 -18 -27 8 -8 0 -13 -30 -18 -42 -7 -57 -25 -22 -25 11 0
23 -9 26 -20 9 -29 28 -25 23 5 -5 24 -4 25 54 25 43 0 58 3 55 13 -2 7 -19
11 -41 10 -20 -1 -36 2 -36 7 0 6 11 10 25 10 18 0 26 7 31 24 8 34 -3 49 -32
42 -13 -4 -24 -2 -24 4 0 5 18 13 40 16 49 8 53 24 5 24 -24 0 -35 5 -35 15 0
8 -7 15 -15 15 -8 0 -15 -9 -15 -20z"/>
<path d="M180 3935 c0 -12 24 -55 32 -55 4 0 8 14 8 30 0 23 -4 30 -20 30 -11
0 -20 -2 -20 -5z"/>
<path d="M250 3560 c0 -15 -7 -20 -25 -20 -14 0 -25 -4 -25 -10 0 -5 9 -10 21
-10 16 0 19 -4 14 -20 -6 -17 -2 -20 30 -20 22 0 34 -4 30 -10 -3 -5 -19 -10
-36 -10 -30 0 -36 -9 -18 -27 8 -8 0 -13 -30 -18 -42 -7 -57 -25 -22 -25 11 0
23 -9 26 -20 9 -29 28 -25 23 5 -4 21 -1 25 18 25 17 0 24 -6 24 -20 0 -11 4
-20 9 -20 5 0 13 9 16 20 4 11 15 20 27 20 11 0 18 5 15 13 -2 7 -19 11 -41
10 -20 -1 -36 2 -36 7 0 6 11 10 25 10 18 0 26 7 31 24 8 34 -3 49 -32 42 -13
-4 -24 -2 -24 4 0 5 18 13 40 16 49 8 53 24 5 24 -24 0 -35 5 -35 15 0 8 -7
15 -15 15 -8 0 -15 -9 -15 -20z"/>
<path d="M180 3485 c0 -12 24 -55 32 -55 4 0 8 14 8 30 0 23 -4 30 -20 30 -11
0 -20 -2 -20 -5z"/>
<path d="M250 3110 c0 -15 -7 -20 -25 -20 -14 0 -25 -4 -25 -10 0 -5 9 -10 21
-10 16 0 19 -4 14 -20 -6 -17 -2 -20 30 -20 22 0 34 -4 30 -10 -3 -5 -19 -10
-36 -10 -30 0 -36 -9 -18 -27 8 -8 0 -13 -30 -18 -41 -7 -57 -25 -22 -25 10 0
21 -6 24 -14 6 -15 -31 -26 -84 -26 -16 0 -29 -5 -29 -11 0 -10 161 -6 268 7
60 7 52 24 -13 24 -44 0 -53 3 -49 15 4 8 15 15 26 15 11 0 18 5 15 13 -2 7
-19 11 -41 10 -20 -1 -36 2 -36 7 0 6 11 10 25 10 18 0 26 7 31 24 8 34 -3 49
-32 42 -13 -4 -24 -2 -24 4 0 5 18 13 40 16 49 8 53 24 5 24 -24 0 -35 5 -35
15 0 8 -7 15 -15 15 -8 0 -15 -9 -15 -20z m28 -177 c-5 -26 -34 -28 -41 -3 -4
16 0 20 20 20 18 0 24 -5 21 -17z"/>
<path d="M180 3035 c0 -12 24 -55 32 -55 4 0 8 14 8 30 0 23 -4 30 -20 30 -11
0 -20 -2 -20 -5z"/>
<path d="M250 2660 c0 -15 -7 -20 -25 -20 -14 0 -25 -4 -25 -10 0 -5 9 -10 21
-10 16 0 19 -4 14 -20 -6 -17 -2 -20 30 -20 22 0 34 -4 30 -10 -3 -5 -19 -10
-36 -10 -30 0 -36 -9 -18 -27 8 -8 0 -13 -30 -18 -41 -7 -57 -25 -22 -25 10 0
21 -6 24 -14 6 -15 -31 -26 -84 -26 -16 0 -29 -5 -29 -11 0 -10 161 -6 268 7
60 7 52 24 -13 24 -44 0 -53 3 -49 15 4 8 15 15 26 15 11 0 18 5 15 13 -2 7
-19 11 -41 10 -20 -1 -36 2 -36 7 0 6 11 10 25 10 18 0 26 7 31 24 8 34 -3 49
-32 42 -13 -4 -24 -2 -24 4 0 5 18 13 40 16 49 8 53 24 5 24 -24 0 -35 5 -35
15 0 8 -7 15 -15 15 -8 0 -15 -9 -15 -20z m28 -177 c-5 -26 -34 -28 -41 -3 -4
16 0 20 20 20 18 0 24 -5 21 -17z"/>
<path d="M180 2585 c0 -12 24 -55 32 -55 4 0 8 14 8 30 0 23 -4 30 -20 30 -11
0 -20 -2 -20 -5z"/>
<path d="M213 2413 c-48 -3 -63 -8 -63 -19 0 -13 10 -14 63 -7 34 4 84 7 110
6 33 -1 47 2 44 10 -4 13 -53 16 -154 10z"/>
<path d="M250 2210 c0 -15 -7 -20 -25 -20 -14 0 -25 -4 -25 -10 0 -5 9 -10 21
-10 16 0 19 -4 14 -20 -6 -17 -2 -20 30 -20 22 0 34 -4 30 -10 -3 -5 -19 -10
-36 -10 -30 0 -36 -9 -18 -27 8 -8 0 -13 -30 -18 -41 -7 -57 -25 -22 -25 10 0
21 -6 24 -14 6 -15 -31 -26 -84 -26 -16 0 -29 -5 -29 -11 0 -9 21 -10 70 -6
57 5 70 3 70 -9 0 -10 -12 -14 -45 -14 -35 0 -45 -4 -45 -16 0 -14 7 -15 45
-10 l45 7 0 -40 c0 -23 4 -41 10 -41 9 0 14 16 22 65 3 17 10 20 52 17 34 -1
47 1 44 10 -3 8 -25 14 -52 16 -52 3 -54 22 -2 22 47 0 96 11 96 21 0 5 -25 9
-55 9 -44 0 -53 3 -49 15 4 8 15 15 26 15 11 0 18 5 15 13 -2 7 -19 11 -41 10
-20 -1 -36 2 -36 7 0 6 11 10 25 10 18 0 26 7 31 24 8 34 -3 49 -32 42 -13 -4
-24 -2 -24 4 0 5 18 13 40 16 49 8 53 24 5 24 -24 0 -35 5 -35 15 0 8 -7 15
-15 15 -8 0 -15 -9 -15 -20z m28 -177 c-5 -26 -34 -28 -41 -3 -4 16 0 20 20
20 18 0 24 -5 21 -17z"/>
<path d="M180 2135 c0 -12 24 -55 32 -55 4 0 8 14 8 30 0 23 -4 30 -20 30 -11
0 -20 -2 -20 -5z"/>
</g>
</svg>
