<?xml version="1.0" standalone="no"?>
<!DOCTYPE svg PUBLIC "-//W3C//DTD SVG 20010904//EN"
 "http://www.w3.org/TR/2001/REC-SVG-20010904/DTD/svg10.dtd">
<svg version="1.0" xmlns="http://www.w3.org/2000/svg"
 width="95.000000pt" height="725.000000pt" viewBox="0 0 95.000000 725.000000"
 preserveAspectRatio="xMidYMid meet">
<metadata>
Created by potrace 1.16, written by Peter Selinger 2001-2019
</metadata>
<g transform="translate(0.000000,725.000000) scale(0.100000,-0.100000)"
fill="#000000" stroke="none">
<path d="M330 7154 c0 -3 5 -14 10 -25 10 -17 7 -19 -27 -19 -27 0 -42 6 -51
20 -17 28 -36 26 -28 -4 4 -18 1 -25 -13 -29 -15 -3 -18 -1 -14 11 5 12 1 14
-15 10 -14 -4 -22 -2 -22 7 0 11 -20 25 -36 25 -2 0 -2 -11 2 -25 5 -21 3 -25
-15 -25 -25 0 -25 2 -6 -44 l15 -36 -30 0 c-16 0 -30 -4 -30 -10 0 -5 16 -10
35 -10 24 0 35 -5 35 -15 0 -8 -7 -15 -15 -15 -8 0 -15 -7 -15 -16 0 -11 5
-14 16 -10 12 5 14 1 9 -17 -4 -12 -14 -33 -22 -45 -8 -13 -12 -26 -9 -29 11
-12 43 28 55 67 7 23 18 40 26 40 8 0 15 5 15 10 0 6 -7 10 -15 10 -9 0 -12 6
-9 15 4 8 12 15 20 15 8 0 14 5 14 10 0 6 -13 10 -28 10 -34 0 -63 44 -36 54
23 9 24 8 24 -19 0 -30 7 -31 28 -5 11 14 34 23 69 27 l52 6 6 -37 c9 -46 29
-47 23 -2 -4 34 -2 35 34 41 42 7 52 25 14 25 -15 0 -26 7 -29 20 -4 17 -37
30 -37 14z"/>
<path d="M580 7144 c0 -13 21 -44 30 -44 16 0 11 37 -6 44 -19 7 -24 8 -24 0z"/>
<path d="M248 7063 c-21 -5 -24 -23 -4 -23 22 0 46 11 46 21 0 9 -13 10 -42 2z"/>
<path d="M250 7020 c0 -5 9 -10 20 -10 11 0 20 5 20 10 0 6 -9 10 -20 10 -11
0 -20 -4 -20 -10z"/>
<path d="M238 6983 c-18 -5 -24 -38 -10 -60 9 -14 62 -5 62 11 0 6 3 21 6 34
5 18 3 22 -17 21 -13 -1 -32 -3 -41 -6z m32 -28 c0 -8 -7 -15 -15 -15 -16 0
-20 12 -8 23 11 12 23 8 23 -8z"/>
<path d="M330 6704 c0 -3 5 -14 10 -25 10 -17 7 -19 -27 -19 -27 0 -42 6 -51
20 -17 28 -36 26 -28 -4 4 -18 1 -25 -13 -29 -15 -3 -18 -1 -14 11 5 12 1 14
-15 10 -14 -4 -22 -2 -22 7 0 11 -20 25 -36 25 -2 0 -2 -11 2 -25 5 -21 3 -25
-15 -25 -25 0 -25 2 -6 -44 l15 -36 -30 0 c-16 0 -30 -4 -30 -10 0 -5 16 -10
35 -10 24 0 35 -5 35 -15 0 -8 -7 -15 -15 -15 -8 0 -15 -7 -15 -16 0 -11 5
-14 16 -10 12 5 14 1 9 -17 -4 -12 -14 -33 -22 -45 -8 -13 -12 -26 -9 -29 11
-12 43 28 55 67 7 23 18 40 26 40 8 0 15 5 15 10 0 6 -7 10 -15 10 -9 0 -12 6
-9 15 4 8 12 15 20 15 8 0 14 5 14 10 0 6 -13 10 -28 10 -34 0 -63 44 -36 54
23 9 24 8 24 -19 0 -30 7 -31 28 -5 11 14 34 23 69 27 l52 6 6 -37 c9 -46 29
-47 23 -1 -3 29 -1 35 15 35 16 0 19 -5 14 -30 -9 -43 8 -37 27 10 20 51 20
50 -8 50 -15 0 -26 7 -29 20 -4 17 -37 30 -37 14z"/>
<path d="M586 6675 c5 -21 3 -25 -15 -25 -12 0 -21 -5 -21 -11 0 -11 83 -4
103 8 15 9 6 25 -13 20 -12 -3 -20 0 -20 8 0 11 -20 25 -36 25 -2 0 -2 -11 2
-25z"/>
<path d="M248 6613 c-21 -5 -24 -23 -4 -23 22 0 46 11 46 21 0 9 -13 10 -42 2z"/>
<path d="M250 6570 c0 -5 9 -10 20 -10 11 0 20 5 20 10 0 6 -9 10 -20 10 -11
0 -20 -4 -20 -10z"/>
<path d="M238 6533 c-18 -5 -24 -38 -10 -60 9 -14 62 -5 62 11 0 6 3 21 6 34
5 18 3 22 -17 21 -13 -1 -32 -3 -41 -6z m32 -28 c0 -8 -7 -15 -15 -15 -16 0
-20 12 -8 23 11 12 23 8 23 -8z"/>
<path d="M330 6254 c0 -3 5 -14 10 -25 10 -17 7 -19 -27 -19 -27 0 -42 6 -51
20 -17 28 -36 26 -28 -4 4 -18 1 -25 -13 -29 -15 -3 -18 -1 -14 11 5 12 1 14
-15 10 -14 -4 -22 -2 -22 7 0 11 -20 25 -36 25 -2 0 -2 -11 2 -25 5 -21 3 -25
-15 -25 -25 0 -25 2 -6 -44 l15 -36 -30 0 c-16 0 -30 -4 -30 -10 0 -5 16 -10
35 -10 24 0 35 -5 35 -15 0 -8 -7 -15 -15 -15 -8 0 -15 -7 -15 -16 0 -11 5
-14 16 -10 12 5 14 1 9 -17 -4 -12 -14 -33 -22 -45 -8 -13 -12 -26 -9 -29 11
-12 43 28 55 67 7 23 18 40 26 40 8 0 15 5 15 10 0 6 -7 10 -15 10 -9 0 -12 6
-9 15 4 8 12 15 20 15 8 0 14 5 14 10 0 6 -13 10 -28 10 -34 0 -63 44 -36 54
23 9 24 8 24 -19 0 -30 7 -31 28 -5 11 14 34 23 68 26 48 6 51 5 57 -17 10
-35 9 -39 -8 -39 -8 0 -15 -4 -15 -10 0 -11 51 -13 99 -4 34 7 42 24 12 24
-19 0 -19 2 -5 35 18 45 18 45 -10 45 -15 0 -26 7 -29 20 -4 17 -37 30 -37 14z
m50 -78 c0 -21 -11 -46 -20 -46 -4 0 -10 14 -12 30 -4 24 -1 30 14 30 10 0 18
-6 18 -14z"/>
<path d="M586 6225 c5 -21 3 -25 -15 -25 -12 0 -21 -2 -21 -4 0 -15 32 -76 40
-76 13 0 13 16 0 40 -9 17 -6 20 17 26 46 10 53 13 53 25 0 6 -9 9 -20 6 -12
-3 -20 0 -20 8 0 11 -20 25 -36 25 -2 0 -2 -11 2 -25z"/>
<path d="M248 6163 c-21 -5 -24 -23 -4 -23 22 0 46 11 46 21 0 9 -13 10 -42 2z"/>
<path d="M250 6120 c0 -5 9 -10 20 -10 11 0 20 5 20 10 0 6 -9 10 -20 10 -11
0 -20 -4 -20 -10z"/>
<path d="M238 6083 c-18 -5 -24 -38 -10 -60 9 -14 62 -5 62 11 0 6 3 21 6 34
5 18 3 22 -17 21 -13 -1 -32 -3 -41 -6z m32 -28 c0 -8 -7 -15 -15 -15 -16 0
-20 12 -8 23 11 12 23 8 23 -8z"/>
<path d="M330 5804 c0 -3 5 -14 10 -25 10 -17 7 -19 -27 -19 -27 0 -42 6 -51
20 -17 28 -36 26 -28 -4 4 -18 1 -25 -13 -29 -15 -3 -18 -1 -14 11 5 12 1 14
-15 10 -14 -4 -22 -2 -22 7 0 11 -20 25 -36 25 -2 0 -2 -11 2 -25 5 -21 3 -25
-15 -25 -25 0 -25 2 -6 -44 l15 -36 -30 0 c-16 0 -30 -4 -30 -10 0 -5 16 -10
35 -10 24 0 35 -5 35 -15 0 -8 -7 -15 -15 -15 -8 0 -15 -7 -15 -16 0 -11 5
-14 16 -10 12 5 14 1 9 -17 -4 -12 -14 -33 -22 -45 -8 -13 -12 -26 -9 -29 11
-12 43 28 55 67 7 23 18 40 26 40 8 0 15 5 15 10 0 6 -7 10 -15 10 -9 0 -12 6
-9 15 4 8 12 15 20 15 8 0 14 5 14 10 0 6 -13 10 -28 10 -34 0 -63 44 -36 54
23 9 24 8 24 -19 0 -30 7 -31 28 -5 11 14 34 23 68 26 48 6 51 5 57 -17 10
-35 9 -39 -8 -39 -8 0 -15 -4 -15 -10 0 -11 51 -13 99 -4 34 7 42 24 12 24
-19 0 -19 2 -5 35 18 45 18 45 -10 45 -15 0 -26 7 -29 20 -4 17 -37 30 -37 14z
m50 -78 c0 -21 -11 -46 -20 -46 -4 0 -10 14 -12 30 -4 24 -1 30 14 30 10 0 18
-6 18 -14z"/>
<path d="M586 5775 c5 -21 3 -25 -15 -25 -12 0 -21 -2 -21 -4 0 -15 32 -76 40
-76 13 0 13 20 0 40 -6 9 -5 17 3 22 20 13 27 9 27 -17 0 -48 30 -20 36 34 2
18 -1 22 -17 18 -11 -3 -19 0 -19 8 0 11 -20 25 -36 25 -2 0 -2 -11 2 -25z"/>
<path d="M248 5713 c-21 -5 -24 -23 -4 -23 22 0 46 11 46 21 0 9 -13 10 -42 2z"/>
<path d="M250 5670 c0 -5 9 -10 20 -10 11 0 20 5 20 10 0 6 -9 10 -20 10 -11
0 -20 -4 -20 -10z"/>
<path d="M238 5633 c-18 -5 -24 -38 -10 -60 9 -14 62 -5 62 11 0 6 3 21 6 34
5 18 3 22 -17 21 -13 -1 -32 -3 -41 -6z m32 -28 c0 -8 -7 -15 -15 -15 -16 0
-20 12 -8 23 11 12 23 8 23 -8z"/>
<path d="M330 5620 c-8 -5 -12 -11 -10 -13 9 -8 110 5 110 14 0 12 -81 11
-100 -1z"/>
<path d="M330 5354 c0 -3 5 -14 10 -25 10 -17 7 -19 -27 -19 -27 0 -42 6 -51
20 -17 28 -36 26 -28 -4 4 -18 1 -25 -13 -29 -15 -3 -18 -1 -14 11 5 12 1 14
-15 10 -14 -4 -22 -2 -22 7 0 11 -20 25 -36 25 -2 0 -2 -11 2 -25 5 -21 3 -25
-15 -25 -25 0 -25 2 -6 -44 l15 -36 -30 0 c-16 0 -30 -4 -30 -10 0 -5 16 -10
35 -10 24 0 35 -5 35 -15 0 -8 -7 -15 -15 -15 -8 0 -15 -7 -15 -16 0 -11 5
-14 16 -10 12 5 14 1 9 -17 -4 -12 -14 -33 -22 -45 -8 -13 -12 -26 -9 -29 11
-12 43 28 55 67 7 23 18 40 26 40 8 0 15 5 15 10 0 6 -7 10 -15 10 -9 0 -12 6
-9 15 4 8 12 15 20 15 8 0 14 5 14 10 0 6 -13 10 -28 10 -34 0 -63 44 -36 54
23 9 24 8 24 -19 0 -30 7 -31 28 -5 11 14 34 23 68 26 48 6 51 5 57 -17 10
-35 9 -39 -8 -39 -8 0 -15 -4 -15 -10 0 -5 11 -10 25 -10 28 0 35 -27 10 -36
-8 -4 -15 -10 -15 -15 0 -5 7 -9 15 -9 12 0 15 -13 15 -60 0 -33 4 -60 10 -60
6 0 10 19 10 43 0 66 9 87 36 87 13 0 24 5 24 10 0 6 -12 10 -26 10 -33 0 -30
33 4 38 27 4 29 22 3 22 -19 0 -19 2 -5 35 18 45 18 45 -10 45 -15 0 -26 7
-29 20 -4 17 -37 30 -37 14z m50 -78 c0 -21 -11 -46 -20 -46 -4 0 -10 14 -12
30 -4 24 -1 30 14 30 10 0 18 -6 18 -14z"/>
<path d="M586 5325 c5 -21 3 -25 -15 -25 -25 0 -25 2 -6 -44 l15 -36 -30 0
c-16 0 -30 -4 -30 -10 0 -12 15 -12 88 -4 55 7 72 24 24 24 -21 0 -32 7 -40
25 -6 14 -10 25 -8 25 3 0 11 3 20 6 12 5 16 0 16 -20 0 -49 30 -22 36 33 2
18 -1 22 -17 18 -11 -3 -19 0 -19 8 0 11 -20 25 -36 25 -2 0 -2 -11 2 -25z"/>
<path d="M248 5263 c-21 -5 -24 -23 -4 -23 22 0 46 11 46 21 0 9 -13 10 -42 2z"/>
<path d="M250 5220 c0 -5 9 -10 20 -10 11 0 20 5 20 10 0 6 -9 10 -20 10 -11
0 -20 -4 -20 -10z"/>
<path d="M238 5183 c-18 -5 -24 -38 -10 -60 9 -14 62 -5 62 11 0 6 3 21 6 34
5 18 3 22 -17 21 -13 -1 -32 -3 -41 -6z m32 -28 c0 -8 -7 -15 -15 -15 -16 0
-20 12 -8 23 11 12 23 8 23 -8z"/>
<path d="M586 4875 c5 -21 3 -25 -15 -25 -25 0 -25 2 -6 -44 l15 -36 -30 0
c-16 0 -30 -4 -30 -10 0 -12 15 -12 88 -4 55 7 72 24 24 24 -21 0 -32 7 -40
25 -6 14 -10 25 -8 25 3 0 11 3 20 6 12 5 16 0 16 -20 0 -49 30 -22 36 33 2
18 -1 22 -17 18 -11 -3 -19 0 -19 8 0 11 -20 25 -36 25 -2 0 -2 -11 2 -25z"/>
<path d="M588 4723 c-16 -3 -28 -11 -28 -19 0 -10 6 -13 18 -10 9 3 29 8 45
12 15 3 27 10 27 15 0 9 -12 9 -62 2z"/>
<path d="M586 4425 c5 -21 3 -25 -15 -25 -25 0 -25 2 -6 -44 l15 -36 -30 0
c-16 0 -30 -4 -30 -10 0 -5 16 -10 35 -10 24 0 35 -5 35 -15 0 -8 -7 -15 -15
-15 -8 0 -15 -7 -15 -16 0 -11 5 -14 16 -10 12 5 14 1 9 -17 -4 -12 -14 -33
-22 -45 -8 -13 -12 -26 -9 -29 11 -12 43 28 55 67 7 23 18 40 26 40 8 0 15 5
15 10 0 6 -7 10 -15 10 -9 0 -12 6 -9 15 4 8 12 15 20 15 8 0 14 5 14 10 0 6
-13 10 -28 10 -21 0 -32 7 -40 25 -6 14 -10 25 -8 25 3 0 11 3 20 6 12 5 16 0
16 -20 0 -49 30 -22 36 33 2 18 -1 22 -17 18 -11 -3 -19 0 -19 8 0 11 -20 25
-36 25 -2 0 -2 -11 2 -25z"/>
<path d="M586 3975 c5 -21 3 -25 -15 -25 -25 0 -25 2 -6 -44 l15 -36 -30 0
c-16 0 -30 -4 -30 -10 0 -5 16 -10 35 -10 24 0 35 -5 35 -15 0 -8 -7 -15 -15
-15 -8 0 -15 -7 -15 -16 0 -11 5 -14 16 -10 12 5 14 1 9 -17 -4 -12 -14 -33
-22 -45 -8 -13 -12 -26 -9 -29 11 -12 43 28 55 67 7 23 18 40 26 40 8 0 15 5
15 10 0 6 -7 10 -15 10 -9 0 -12 6 -9 15 4 8 12 15 20 15 8 0 14 5 14 10 0 6
-13 10 -28 10 -21 0 -32 7 -40 25 -6 14 -10 25 -8 25 3 0 11 3 20 6 12 5 16 0
16 -20 0 -49 30 -22 36 33 2 18 -1 22 -17 18 -11 -3 -19 0 -19 8 0 11 -20 25
-36 25 -2 0 -2 -11 2 -25z"/>
<path d="M680 3991 c0 -21 13 -41 26 -41 17 0 18 22 2 38 -14 14 -28 16 -28 3z"/>
<path d="M586 3525 c5 -21 3 -25 -15 -25 -25 0 -25 2 -6 -44 l15 -36 -30 0
c-16 0 -30 -4 -30 -10 0 -5 16 -10 35 -10 24 0 35 -5 35 -15 0 -8 -7 -15 -15
-15 -8 0 -15 -7 -15 -16 0 -11 5 -14 16 -10 12 5 14 1 9 -17 -4 -12 -14 -33
-22 -45 -8 -13 -12 -26 -9 -29 11 -12 43 28 55 67 7 23 18 40 26 40 8 0 15 5
15 10 0 6 -7 10 -15 10 -9 0 -12 6 -9 15 4 8 12 15 20 15 8 0 14 5 14 10 0 6
-13 10 -28 10 -21 0 -32 7 -40 25 -6 14 -10 25 -8 25 3 0 11 3 20 6 12 5 16 0
16 -20 0 -31 11 -33 27 -7 8 13 29 22 58 26 25 4 45 11 45 16 0 5 -6 9 -13 9
-7 0 -18 9 -25 20 -17 28 -36 26 -28 -4 4 -18 1 -25 -13 -29 -15 -3 -18 -1
-14 11 5 12 1 14 -15 10 -14 -4 -22 -2 -22 7 0 11 -20 25 -36 25 -2 0 -2 -11
2 -25z"/>
<path d="M586 3075 c5 -21 3 -25 -15 -25 -25 0 -25 2 -6 -44 l15 -36 -30 0
c-16 0 -30 -4 -30 -10 0 -5 16 -10 35 -10 24 0 35 -5 35 -15 0 -8 -7 -15 -15
-15 -8 0 -15 -7 -15 -16 0 -11 5 -14 16 -10 12 5 14 1 9 -17 -4 -12 -14 -33
-22 -45 -8 -13 -12 -26 -9 -29 11 -12 43 28 55 67 7 23 18 40 26 40 8 0 15 5
15 10 0 6 -7 10 -15 10 -9 0 -12 6 -9 15 4 8 12 15 20 15 8 0 14 5 14 10 0 6
-13 10 -28 10 -21 0 -32 7 -40 25 -6 14 -10 25 -8 25 3 0 11 3 20 6 12 5 16 0
16 -20 0 -31 11 -33 27 -7 8 13 29 22 58 26 25 4 45 11 45 16 0 5 -6 9 -13 9
-7 0 -18 9 -25 20 -17 28 -36 26 -28 -4 4 -18 1 -25 -13 -29 -15 -3 -18 -1
-14 11 5 12 1 14 -15 10 -14 -4 -22 -2 -22 7 0 11 -20 25 -36 25 -2 0 -2 -11
2 -25z"/>
<path d="M698 3013 c-21 -5 -24 -23 -4 -23 22 0 46 11 46 21 0 9 -13 10 -42 2z"/>
<path d="M586 2625 c5 -21 3 -25 -15 -25 -25 0 -25 2 -6 -44 l15 -36 -30 0
c-16 0 -30 -4 -30 -10 0 -5 16 -10 35 -10 24 0 35 -5 35 -15 0 -8 -7 -15 -15
-15 -8 0 -15 -7 -15 -16 0 -11 5 -14 16 -10 12 5 14 1 9 -17 -4 -12 -14 -33
-22 -45 -8 -13 -12 -26 -9 -29 11 -12 43 28 55 67 7 23 18 40 26 40 8 0 15 5
15 10 0 6 -7 10 -15 10 -9 0 -12 6 -9 15 4 8 12 15 20 15 8 0 14 5 14 10 0 6
-13 10 -28 10 -21 0 -32 7 -40 25 -6 14 -10 25 -8 25 3 0 11 3 20 6 12 5 16 0
16 -20 0 -31 11 -33 27 -7 8 13 29 22 58 26 25 4 45 11 45 16 0 5 -6 9 -13 9
-7 0 -18 9 -25 20 -17 28 -36 26 -28 -4 4 -18 1 -25 -13 -29 -15 -3 -18 -1
-14 11 5 12 1 14 -15 10 -14 -4 -22 -2 -22 7 0 11 -20 25 -36 25 -2 0 -2 -11
2 -25z"/>
<path d="M698 2563 c-21 -5 -24 -23 -4 -23 22 0 46 11 46 21 0 9 -13 10 -42 2z"/>
<path d="M700 2520 c0 -5 9 -10 20 -10 11 0 20 5 20 10 0 6 -9 10 -20 10 -11
0 -20 -4 -20 -10z"/>
<path d="M586 2175 c5 -21 3 -25 -15 -25 -25 0 -25 2 -6 -44 l15 -36 -30 0
c-16 0 -30 -4 -30 -10 0 -5 16 -10 35 -10 24 0 35 -5 35 -15 0 -8 -7 -15 -15
-15 -8 0 -15 -7 -15 -16 0 -11 5 -14 16 -10 12 5 14 1 9 -17 -4 -12 -14 -33
-22 -45 -8 -13 -12 -26 -9 -29 11 -12 43 28 55 67 7 23 18 40 26 40 8 0 15 5
15 10 0 6 -7 10 -15 10 -9 0 -12 6 -9 15 4 8 12 15 20 15 8 0 14 5 14 10 0 6
-13 10 -28 10 -21 0 -32 7 -40 25 -6 14 -10 25 -8 25 3 0 11 3 20 6 12 5 16 0
16 -20 0 -31 11 -33 27 -7 8 13 29 22 58 26 25 4 45 11 45 16 0 5 -6 9 -13 9
-7 0 -18 9 -25 20 -17 28 -36 26 -28 -4 4 -18 1 -25 -13 -29 -15 -3 -18 -1
-14 11 5 12 1 14 -15 10 -14 -4 -22 -2 -22 7 0 11 -20 25 -36 25 -2 0 -2 -11
2 -25z"/>
<path d="M698 2113 c-21 -5 -24 -23 -4 -23 22 0 46 11 46 21 0 9 -13 10 -42 2z"/>
<path d="M700 2070 c0 -5 9 -10 20 -10 11 0 20 5 20 10 0 6 -9 10 -20 10 -11
0 -20 -4 -20 -10z"/>
<path d="M670 2005 c0 -14 5 -25 10 -25 6 0 10 11 10 25 0 14 -4 25 -10 25 -5
0 -10 -11 -10 -25z"/>
<path d="M586 1725 c5 -21 3 -25 -15 -25 -25 0 -25 2 -6 -44 l15 -36 -30 0
c-16 0 -30 -4 -30 -10 0 -5 16 -10 35 -10 24 0 35 -5 35 -15 0 -8 -7 -15 -15
-15 -8 0 -15 -7 -15 -16 0 -11 5 -14 16 -10 12 5 14 1 9 -17 -4 -12 -14 -33
-22 -45 -8 -13 -12 -26 -9 -29 11 -12 43 28 55 67 7 23 18 40 26 40 8 0 15 5
15 10 0 6 -7 10 -15 10 -9 0 -12 6 -9 15 4 8 12 15 20 15 8 0 14 5 14 10 0 6
-13 10 -28 10 -21 0 -32 7 -40 25 -6 14 -10 25 -8 25 3 0 11 3 20 6 12 5 16 0
16 -20 0 -31 11 -33 27 -7 8 13 29 22 58 26 25 4 45 11 45 16 0 5 -6 9 -13 9
-7 0 -18 9 -25 20 -17 28 -36 26 -28 -4 4 -18 1 -25 -13 -29 -15 -3 -18 -1
-14 11 5 12 1 14 -15 10 -14 -4 -22 -2 -22 7 0 11 -20 25 -36 25 -2 0 -2 -11
2 -25z"/>
<path d="M698 1663 c-21 -5 -24 -23 -4 -23 22 0 46 11 46 21 0 9 -13 10 -42 2z"/>
<path d="M700 1620 c0 -5 9 -10 20 -10 11 0 20 5 20 10 0 6 -9 10 -20 10 -11
0 -20 -4 -20 -10z"/>
<path d="M688 1583 c-11 -3 -18 -14 -18 -29 0 -29 16 -32 23 -4 3 11 10 20 16
20 6 0 11 -9 11 -20 0 -40 29 -8 30 33 0 7 -33 8 -62 0z"/>
<path d="M586 1275 c5 -21 3 -25 -15 -25 -25 0 -25 2 -6 -44 l15 -36 -30 0
c-16 0 -30 -4 -30 -10 0 -5 16 -10 35 -10 24 0 35 -5 35 -15 0 -8 -7 -15 -15
-15 -8 0 -15 -7 -15 -16 0 -11 5 -14 16 -10 12 5 14 1 9 -17 -4 -12 -14 -33
-22 -45 -8 -13 -12 -26 -9 -29 11 -12 43 28 55 67 7 23 18 40 26 40 8 0 15 5
15 10 0 6 -7 10 -15 10 -9 0 -12 6 -9 15 4 8 12 15 20 15 8 0 14 5 14 10 0 6
-13 10 -28 10 -21 0 -32 7 -40 25 -6 14 -10 25 -8 25 3 0 11 3 20 6 12 5 16 0
16 -20 0 -31 11 -33 27 -7 8 13 29 22 58 26 25 4 45 11 45 16 0 5 -6 9 -13 9
-7 0 -18 9 -25 20 -17 28 -36 26 -28 -4 4 -18 1 -25 -13 -29 -15 -3 -18 -1
-14 11 5 12 1 14 -15 10 -14 -4 -22 -2 -22 7 0 11 -20 25 -36 25 -2 0 -2 -11
2 -25z"/>
<path d="M698 1213 c-21 -5 -24 -23 -4 -23 22 0 46 11 46 21 0 9 -13 10 -42 2z"/>
<path d="M700 1170 c0 -5 9 -10 20 -10 11 0 20 5 20 10 0 6 -9 10 -20 10 -11
0 -20 -4 -20 -10z"/>
<path d="M688 1133 c-18 -5 -24 -38 -10 -60 9 -14 62 -5 62 11 0 6 3 21 6 34
5 18 3 22 -17 21 -13 -1 -32 -3 -41 -6z m32 -28 c0 -8 -7 -15 -15 -15 -16 0
-20 12 -8 23 11 12 23 8 23 -8z"/>
<path d="M780 855 c0 -14 21 -45 31 -45 18 0 5 45 -13 48 -10 2 -18 1 -18 -3z"/>
<path d="M586 825 c5 -21 3 -25 -15 -25 -25 0 -25 2 -6 -44 l15 -36 -30 0
c-16 0 -30 -4 -30 -10 0 -5 16 -10 35 -10 24 0 35 -5 35 -15 0 -8 -7 -15 -15
-15 -8 0 -15 -7 -15 -16 0 -11 5 -14 16 -10 12 5 14 1 9 -17 -4 -12 -14 -33
-22 -45 -8 -13 -12 -26 -9 -29 11 -12 43 28 55 67 7 23 18 40 26 40 8 0 15 5
15 10 0 6 -7 10 -15 10 -9 0 -12 6 -9 15 4 8 12 15 20 15 8 0 14 5 14 10 0 6
-13 10 -28 10 -21 0 -32 7 -40 25 -6 14 -10 25 -8 25 3 0 11 3 20 6 12 5 16 0
16 -20 0 -31 11 -33 27 -7 8 13 29 22 58 26 25 4 45 11 45 16 0 5 -6 9 -13 9
-7 0 -18 9 -25 20 -17 28 -36 26 -28 -4 4 -18 1 -25 -13 -29 -15 -3 -18 -1
-14 11 5 12 1 14 -15 10 -14 -4 -22 -2 -22 7 0 11 -20 25 -36 25 -2 0 -2 -11
2 -25z"/>
<path d="M698 763 c-21 -5 -24 -23 -4 -23 22 0 46 11 46 21 0 9 -13 10 -42 2z"/>
<path d="M700 720 c0 -5 9 -10 20 -10 11 0 20 5 20 10 0 6 -9 10 -20 10 -11 0
-20 -4 -20 -10z"/>
<path d="M688 683 c-18 -5 -24 -38 -10 -60 9 -14 62 -5 62 11 0 6 3 21 6 34 5
18 3 22 -17 21 -13 -1 -32 -3 -41 -6z m32 -28 c0 -8 -7 -15 -15 -15 -16 0 -20
12 -8 23 11 12 23 8 23 -8z"/>
<path d="M780 404 c0 -3 5 -14 10 -25 10 -17 7 -19 -27 -19 -27 0 -42 6 -51
20 -17 28 -36 26 -28 -4 4 -18 1 -25 -13 -29 -15 -3 -18 -1 -14 11 5 12 1 14
-15 10 -14 -4 -22 -2 -22 7 0 11 -20 25 -36 25 -2 0 -2 -11 2 -25 5 -21 3 -25
-15 -25 -25 0 -25 2 -6 -44 l15 -36 -30 0 c-16 0 -30 -4 -30 -10 0 -5 16 -10
35 -10 24 0 35 -5 35 -15 0 -8 -7 -15 -15 -15 -8 0 -15 -7 -15 -16 0 -11 5
-14 16 -10 12 5 14 1 9 -17 -4 -12 -14 -33 -22 -45 -8 -13 -12 -26 -9 -29 11
-12 43 28 55 67 7 23 18 40 26 40 8 0 15 5 15 10 0 6 -7 10 -15 10 -9 0 -12 6
-9 15 4 8 12 15 20 15 8 0 14 5 14 10 0 6 -13 10 -28 10 -34 0 -63 44 -36 54
23 9 24 8 24 -19 0 -30 7 -31 29 -4 13 17 34 22 116 29 55 5 101 9 103 10 1 0
2 5 2 10 0 6 -11 10 -24 10 -15 0 -26 7 -29 20 -4 17 -37 30 -37 14z"/>
<path d="M698 313 c-21 -5 -24 -23 -4 -23 22 0 46 11 46 21 0 9 -13 10 -42 2z"/>
<path d="M700 270 c0 -5 9 -10 20 -10 11 0 20 5 20 10 0 6 -9 10 -20 10 -11 0
-20 -4 -20 -10z"/>
<path d="M688 233 c-18 -5 -24 -38 -10 -60 9 -14 62 -5 62 11 0 6 3 21 6 34 5
18 3 22 -17 21 -13 -1 -32 -3 -41 -6z m32 -28 c0 -8 -7 -15 -15 -15 -16 0 -20
12 -8 23 11 12 23 8 23 -8z"/>
</g>
</svg>
