<?xml version="1.0" standalone="no"?>
<!DOCTYPE svg PUBLIC "-//W3C//DTD SVG 20010904//EN"
 "http://www.w3.org/TR/2001/REC-SVG-20010904/DTD/svg10.dtd">
<svg version="1.0" xmlns="http://www.w3.org/2000/svg"
 width="50.000000pt" height="725.000000pt" viewBox="0 0 50.000000 725.000000"
 preserveAspectRatio="xMidYMid meet">
<metadata>
Created by potrace 1.16, written by Peter Selinger 2001-2019
</metadata>
<g transform="translate(0.000000,725.000000) scale(0.100000,-0.100000)"
fill="#000000" stroke="none">
<path d="M194 7074 c3 -22 8 -63 12 -91 7 -63 24 -71 23 -10 -1 71 -13 130
-28 135 -10 3 -12 -4 -7 -34z"/>
<path d="M315 6669 c-22 -4 -60 -8 -83 -8 l-44 -1 6 -37 c3 -21 8 -62 12 -90
10 -87 28 -64 20 26 l-6 78 52 7 c106 12 102 15 94 -56 -3 -34 -11 -65 -17
-69 -15 -9 -1 -49 17 -49 8 0 14 1 15 3 0 1 6 43 14 92 11 80 11 91 -3 103
-17 13 -19 13 -77 1z"/>
<path d="M315 6219 c-22 -4 -60 -8 -83 -8 l-44 -1 6 -37 c3 -21 8 -62 12 -90
10 -87 28 -64 20 26 l-6 78 52 7 c106 12 102 15 94 -56 -3 -34 -11 -65 -17
-69 -15 -9 -1 -49 17 -49 8 0 14 1 15 3 0 1 6 43 14 92 11 80 11 91 -3 103
-17 13 -19 13 -77 1z"/>
<path d="M244 6144 c3 -9 6 -22 6 -30 0 -8 5 -14 10 -14 6 0 10 14 10 30 0 21
-5 30 -16 30 -11 0 -14 -5 -10 -16z"/>
<path d="M315 5769 c-22 -4 -60 -8 -83 -8 l-44 -1 6 -37 c3 -21 8 -62 12 -90
10 -87 28 -64 20 26 l-6 78 52 7 c106 12 102 15 94 -56 -3 -34 -11 -65 -17
-69 -15 -9 -1 -49 17 -49 8 0 14 1 15 3 0 1 6 43 14 92 11 80 11 91 -3 103
-17 13 -19 13 -77 1z"/>
<path d="M306 5693 c11 -45 21 -46 26 -3 2 17 -3 25 -15 28 -15 3 -17 -1 -11
-25z"/>
<path d="M244 5694 c3 -9 6 -22 6 -30 0 -8 5 -14 10 -14 6 0 10 9 10 20 0 11
5 20 10 20 6 0 10 5 10 10 0 6 -12 10 -26 10 -20 0 -25 -4 -20 -16z"/>
<path d="M315 5319 c-22 -4 -60 -8 -83 -8 l-44 -1 6 -37 c3 -21 8 -62 12 -90
10 -87 28 -64 20 26 l-6 78 52 7 c106 12 102 15 94 -56 -3 -34 -11 -65 -17
-69 -15 -9 -1 -49 17 -49 8 0 14 1 15 3 0 1 6 43 14 92 11 80 11 91 -3 103
-17 13 -19 13 -77 1z"/>
<path d="M306 5245 c5 -21 3 -25 -15 -25 -12 0 -21 5 -21 10 0 6 5 10 10 10 6
0 10 5 10 10 0 6 -11 10 -25 10 -23 0 -25 -3 -19 -27 9 -38 14 -42 51 -36 24
4 32 11 36 31 6 31 1 42 -19 42 -10 0 -13 -7 -8 -25z"/>
<path d="M315 4869 c-22 -4 -60 -8 -83 -8 l-44 -1 6 -37 c3 -21 8 -62 12 -91
5 -43 9 -52 22 -48 10 3 38 8 64 12 39 5 49 3 54 -10 5 -13 32 -23 35 -13 0 1
6 43 14 92 11 80 11 91 -3 103 -17 13 -19 13 -77 1z m55 -46 c0 -16 -3 -44 -6
-64 l-6 -36 -61 -6 c-34 -3 -62 -5 -63 -4 -1 1 -5 30 -9 64 l-7 62 39 4 c105
11 113 9 113 -20z"/>
<path d="M306 4795 c5 -21 3 -25 -15 -25 -12 0 -21 5 -21 10 0 6 5 10 10 10 6
0 10 5 10 10 0 6 -11 10 -25 10 -23 0 -25 -3 -19 -27 9 -38 14 -42 51 -36 24
4 32 11 36 31 6 31 1 42 -19 42 -10 0 -13 -7 -8 -25z"/>
<path d="M100 4434 c0 -16 23 -44 35 -44 20 0 19 36 -1 44 -20 8 -34 8 -34 0z"/>
<path d="M315 4419 c-22 -4 -60 -8 -83 -8 l-44 -1 6 -37 c3 -21 8 -62 12 -91
5 -43 9 -52 22 -48 10 3 38 8 64 12 39 5 49 3 54 -10 5 -13 32 -23 35 -13 0 1
6 43 14 92 11 80 11 91 -3 103 -17 13 -19 13 -77 1z m55 -46 c0 -16 -3 -44 -6
-64 l-6 -36 -61 -6 c-34 -3 -62 -5 -63 -4 -1 1 -5 30 -9 64 l-7 62 39 4 c105
11 113 9 113 -20z"/>
<path d="M306 4345 c5 -21 3 -25 -15 -25 -12 0 -21 5 -21 10 0 6 5 10 10 10 6
0 10 5 10 10 0 6 -11 10 -25 10 -23 0 -25 -3 -19 -27 9 -38 14 -42 51 -36 24
4 32 11 36 31 6 31 1 42 -19 42 -10 0 -13 -7 -8 -25z"/>
<path d="M100 3984 c0 -16 23 -44 35 -44 20 0 19 36 -1 44 -20 8 -34 8 -34 0z"/>
<path d="M315 3969 c-22 -4 -60 -8 -83 -8 l-44 -1 6 -37 c3 -21 8 -62 12 -91
5 -43 9 -52 22 -48 10 3 38 8 64 12 39 5 49 3 54 -10 5 -13 32 -23 35 -13 0 1
6 43 14 92 11 80 11 91 -3 103 -17 13 -19 13 -77 1z m55 -46 c0 -16 -3 -44 -6
-64 l-6 -36 -61 -6 c-34 -3 -62 -5 -63 -4 -1 1 -5 30 -9 64 l-7 62 39 4 c105
11 113 9 113 -20z"/>
<path d="M306 3895 c5 -21 3 -25 -15 -25 -12 0 -21 5 -21 10 0 6 5 10 10 10 6
0 10 5 10 10 0 6 -11 10 -25 10 -23 0 -25 -3 -19 -27 9 -38 14 -42 51 -36 24
4 32 11 36 31 6 31 1 42 -19 42 -10 0 -13 -7 -8 -25z"/>
<path d="M108 3893 c-25 -6 -22 -23 3 -23 16 0 19 -4 14 -20 -3 -11 -2 -20 3
-20 11 0 42 44 42 60 0 10 -30 12 -62 3z"/>
<path d="M100 3534 c0 -16 23 -44 35 -44 20 0 19 36 -1 44 -20 8 -34 8 -34 0z"/>
<path d="M315 3519 c-22 -4 -60 -8 -83 -8 l-44 -1 6 -37 c3 -21 8 -62 12 -91
5 -43 9 -52 22 -48 10 3 38 8 64 12 39 5 49 3 54 -10 5 -13 32 -23 35 -13 0 1
6 43 14 92 11 80 11 91 -3 103 -17 13 -19 13 -77 1z m55 -46 c0 -16 -3 -44 -6
-64 l-6 -36 -61 -6 c-34 -3 -62 -5 -63 -4 -1 1 -5 30 -9 64 l-7 62 39 4 c105
11 113 9 113 -20z"/>
<path d="M306 3445 c5 -21 3 -25 -15 -25 -12 0 -21 5 -21 10 0 6 5 10 10 10 6
0 10 5 10 10 0 6 -11 10 -25 10 -23 0 -25 -3 -19 -27 9 -38 14 -42 51 -36 24
4 32 11 36 31 6 31 1 42 -19 42 -10 0 -13 -7 -8 -25z"/>
<path d="M108 3443 c-25 -6 -22 -23 3 -23 15 0 19 -5 15 -15 -6 -16 23 -84 37
-85 13 0 8 38 -7 53 -13 13 -13 17 -1 33 29 38 11 52 -47 37z"/>
<path d="M100 3084 c0 -16 23 -44 35 -44 20 0 19 36 -1 44 -20 8 -34 8 -34 0z"/>
<path d="M315 3069 c-22 -4 -60 -8 -83 -8 l-44 -1 6 -37 c3 -21 8 -62 12 -91
5 -43 9 -52 22 -48 10 3 38 8 64 12 39 5 49 3 54 -10 5 -13 32 -23 35 -13 0 1
6 43 14 92 11 80 11 91 -3 103 -17 13 -19 13 -77 1z m55 -46 c0 -16 -3 -44 -6
-64 l-6 -36 -61 -6 c-34 -3 -62 -5 -63 -4 -1 1 -5 30 -9 64 l-7 62 39 4 c105
11 113 9 113 -20z"/>
<path d="M306 2995 c5 -21 3 -25 -15 -25 -12 0 -21 5 -21 10 0 6 5 10 10 10 6
0 10 5 10 10 0 6 -11 10 -25 10 -23 0 -25 -3 -19 -27 9 -38 14 -42 51 -36 24
4 32 11 36 31 6 31 1 42 -19 42 -10 0 -13 -7 -8 -25z"/>
<path d="M108 2993 c-25 -6 -22 -23 3 -23 15 0 19 -5 15 -18 -4 -10 1 -27 9
-38 21 -28 19 -32 -25 -39 -59 -10 -48 -25 18 -23 41 1 75 -6 121 -26 70 -28
102 -32 150 -15 48 17 37 29 -25 29 -31 0 -88 8 -126 17 -61 15 -72 20 -80 45
-6 15 -15 28 -20 28 -6 0 -3 11 6 25 9 13 16 29 16 35 0 10 -30 12 -62 3z"/>
</g>
</svg>
