<?xml version="1.0" standalone="no"?>
<!DOCTYPE svg PUBLIC "-//W3C//DTD SVG 20010904//EN"
 "http://www.w3.org/TR/2001/REC-SVG-20010904/DTD/svg10.dtd">
<svg version="1.0" xmlns="http://www.w3.org/2000/svg"
 width="50.000000pt" height="725.000000pt" viewBox="0 0 50.000000 725.000000"
 preserveAspectRatio="xMidYMid meet">
<metadata>
Created by potrace 1.16, written by Peter Selinger 2001-2019
</metadata>
<g transform="translate(0.000000,725.000000) scale(0.100000,-0.100000)"
fill="#000000" stroke="none">
<path d="M242 7113 c5 -26 38 -29 38 -4 0 15 -6 21 -21 21 -14 0 -19 -5 -17
-17z"/>
<path d="M322 6678 c-6 -17 -9 -34 -7 -37 10 -9 58 47 51 58 -13 20 -31 11
-44 -21z"/>
<path d="M242 6663 c5 -26 38 -29 38 -4 0 15 -6 21 -21 21 -14 0 -19 -5 -17
-17z"/>
<path d="M322 6228 c-6 -17 -9 -34 -7 -37 10 -9 58 47 51 58 -13 20 -31 11
-44 -21z"/>
<path d="M242 6213 c5 -26 38 -29 38 -4 0 15 -6 21 -21 21 -14 0 -19 -5 -17
-17z"/>
<path d="M295 6175 c-5 -2 -22 -6 -37 -9 -16 -4 -28 -11 -28 -16 0 -6 10 -8
23 -6 12 3 43 8 70 11 53 7 64 25 15 24 -18 0 -37 -2 -43 -4z"/>
<path d="M322 5778 c-6 -17 -9 -34 -7 -37 10 -9 58 47 51 58 -13 20 -31 11
-44 -21z"/>
<path d="M242 5763 c5 -26 38 -29 38 -4 0 15 -6 21 -21 21 -14 0 -19 -5 -17
-17z"/>
<path d="M295 5725 c-5 -2 -22 -6 -37 -9 -16 -4 -28 -11 -28 -16 0 -6 10 -8
23 -6 12 3 43 8 70 11 53 7 64 25 15 24 -18 0 -37 -2 -43 -4z"/>
<path d="M215 5640 c-4 -23 -5 -43 -3 -46 3 -2 21 3 41 11 20 8 48 15 62 15
14 0 25 5 25 11 0 8 -16 10 -50 5 -47 -6 -50 -5 -47 15 4 41 -21 31 -28 -11z"/>
<path d="M322 5328 c-6 -17 -9 -34 -7 -37 10 -9 58 47 51 58 -13 20 -31 11
-44 -21z"/>
<path d="M242 5313 c5 -26 38 -29 38 -4 0 15 -6 21 -21 21 -14 0 -19 -5 -17
-17z"/>
<path d="M295 5275 c-5 -2 -22 -6 -37 -9 -16 -4 -28 -11 -28 -16 0 -6 10 -8
23 -6 12 3 43 8 70 11 53 7 64 25 15 24 -18 0 -37 -2 -43 -4z"/>
<path d="M340 5215 c0 -18 -5 -25 -19 -25 -10 0 -33 -3 -50 -6 -28 -6 -31 -4
-29 16 2 13 -2 25 -9 27 -11 4 -30 -73 -21 -83 3 -2 21 3 41 11 41 17 87 20
87 5 0 -5 4 -10 10 -10 11 0 32 69 24 82 -11 18 -34 7 -34 -17z"/>
<path d="M322 4878 c-6 -17 -9 -34 -7 -37 10 -9 58 47 51 58 -13 20 -31 11
-44 -21z"/>
<path d="M242 4863 c5 -26 38 -29 38 -4 0 15 -6 21 -21 21 -14 0 -19 -5 -17
-17z"/>
<path d="M295 4825 c-5 -2 -22 -6 -37 -9 -33 -8 -38 -27 -5 -23 18 2 22 -3 22
-28 0 -20 -5 -31 -18 -33 -12 -3 -16 2 -15 19 5 41 -20 31 -27 -11 -8 -49 -4
-56 25 -40 29 15 32 10 14 -24 -8 -16 -12 -31 -9 -34 8 -8 32 17 45 48 12 28
50 43 50 20 0 -5 4 -10 10 -10 11 0 32 69 24 82 -11 18 -34 7 -34 -17 0 -18
-5 -25 -18 -25 -15 0 -18 6 -14 30 3 25 10 32 33 37 16 3 29 9 29 14 0 9 -53
11 -75 4z"/>
<path d="M322 4428 c-6 -17 -9 -34 -7 -37 10 -9 58 47 51 58 -13 20 -31 11
-44 -21z"/>
<path d="M120 4417 c0 -19 36 -50 49 -42 21 13 7 39 -26 49 -17 5 -23 3 -23
-7z"/>
<path d="M242 4413 c5 -26 38 -29 38 -4 0 15 -6 21 -21 21 -14 0 -19 -5 -17
-17z"/>
<path d="M295 4375 c-5 -2 -22 -6 -37 -9 -33 -8 -38 -27 -5 -23 18 2 22 -3 22
-28 0 -20 -5 -31 -18 -33 -12 -3 -16 2 -15 19 5 41 -20 31 -27 -11 -8 -49 -4
-56 25 -40 29 15 32 10 14 -24 -8 -16 -12 -31 -9 -34 8 -8 32 17 45 48 12 28
50 43 50 20 0 -5 4 -10 10 -10 11 0 32 69 24 82 -11 18 -34 7 -34 -17 0 -18
-5 -25 -18 -25 -15 0 -18 6 -14 30 3 25 10 32 33 37 16 3 29 9 29 14 0 9 -53
11 -75 4z"/>
<path d="M322 3978 c-6 -17 -9 -34 -7 -37 10 -9 58 47 51 58 -13 20 -31 11
-44 -21z"/>
<path d="M120 3967 c0 -19 36 -50 49 -42 21 13 7 39 -26 49 -17 5 -23 3 -23
-7z"/>
<path d="M242 3963 c5 -26 38 -29 38 -4 0 15 -6 21 -21 21 -14 0 -19 -5 -17
-17z"/>
<path d="M295 3925 c-5 -2 -22 -6 -37 -9 -33 -8 -38 -27 -5 -23 18 2 22 -3 22
-28 0 -20 -5 -31 -18 -33 -12 -3 -16 2 -15 19 5 41 -20 31 -27 -11 -8 -49 -4
-56 25 -40 29 15 32 10 14 -24 -8 -16 -12 -31 -9 -34 8 -8 32 17 45 48 12 28
50 43 50 20 0 -5 4 -10 10 -10 11 0 32 69 24 82 -11 18 -34 7 -34 -17 0 -18
-5 -25 -18 -25 -15 0 -18 6 -14 30 3 25 10 32 33 37 16 3 29 9 29 14 0 9 -53
11 -75 4z"/>
<path d="M118 3879 c-24 -14 -23 -32 1 -24 16 5 18 2 14 -15 -3 -11 -1 -20 5
-20 13 0 42 40 42 57 0 15 -38 17 -62 2z"/>
<path d="M322 3528 c-6 -17 -9 -34 -7 -37 10 -9 58 47 51 58 -13 20 -31 11
-44 -21z"/>
<path d="M120 3517 c0 -19 36 -50 49 -42 21 13 7 39 -26 49 -17 5 -23 3 -23
-7z"/>
<path d="M242 3513 c5 -26 38 -29 38 -4 0 15 -6 21 -21 21 -14 0 -19 -5 -17
-17z"/>
<path d="M295 3475 c-5 -2 -22 -6 -37 -9 -33 -8 -38 -27 -5 -23 18 2 22 -3 22
-28 0 -20 -5 -31 -18 -33 -12 -3 -16 2 -15 19 5 41 -20 31 -27 -11 -8 -49 -4
-56 25 -40 29 15 32 10 14 -24 -8 -16 -12 -31 -9 -34 8 -8 32 17 45 48 12 28
50 43 50 20 0 -5 4 -10 10 -10 11 0 32 69 24 82 -11 18 -34 7 -34 -17 0 -18
-5 -25 -18 -25 -15 0 -18 6 -14 30 3 25 10 32 33 37 16 3 29 9 29 14 0 9 -53
11 -75 4z"/>
<path d="M118 3429 c-25 -14 -23 -32 3 -24 16 5 19 4 14 -5 -9 -14 14 -90 27
-90 12 0 10 48 -2 55 -7 4 -5 14 5 28 8 12 15 27 15 34 0 15 -38 17 -62 2z"/>
<path d="M322 3078 c-6 -17 -9 -34 -7 -37 10 -9 58 47 51 58 -13 20 -31 11
-44 -21z"/>
<path d="M120 3067 c0 -19 36 -50 49 -42 21 13 7 39 -26 49 -17 5 -23 3 -23
-7z"/>
<path d="M242 3063 c5 -26 38 -29 38 -4 0 15 -6 21 -21 21 -14 0 -19 -5 -17
-17z"/>
<path d="M295 3025 c-5 -2 -22 -6 -37 -9 -33 -8 -38 -27 -5 -23 18 2 22 -3 22
-28 0 -21 -5 -31 -18 -33 -15 -3 -18 0 -13 16 4 11 2 23 -4 27 -16 10 -18 5
-26 -45 -8 -46 -10 -45 43 -23 14 6 7 -24 -11 -49 -19 -26 -76 -6 -76 27 0 13
-5 27 -10 30 -7 4 -5 14 5 28 8 12 15 27 15 34 0 16 -34 17 -61 3 -24 -13 -25
-33 -1 -26 13 5 17 0 18 -22 1 -15 5 -37 9 -49 7 -21 4 -23 -30 -23 -25 0 -35
-4 -32 -12 2 -8 18 -12 38 -10 18 1 73 -11 124 -30 86 -30 93 -31 138 -19 26
8 47 17 47 21 0 5 -38 11 -85 15 -47 4 -84 10 -83 14 2 3 12 23 23 44 17 34
55 53 55 27 0 -5 4 -10 10 -10 11 0 32 69 24 82 -11 18 -34 7 -34 -17 0 -18
-5 -25 -18 -25 -15 0 -18 6 -14 30 3 25 10 32 33 37 16 3 29 9 29 14 0 9 -53
11 -75 4z"/>
</g>
</svg>
