<?xml version="1.0" standalone="no"?>
<!DOCTYPE svg PUBLIC "-//W3C//DTD SVG 20010904//EN"
 "http://www.w3.org/TR/2001/REC-SVG-20010904/DTD/svg10.dtd">
<svg version="1.0" xmlns="http://www.w3.org/2000/svg"
 width="50.000000pt" height="725.000000pt" viewBox="0 0 50.000000 725.000000"
 preserveAspectRatio="xMidYMid meet">
<metadata>
Created by potrace 1.16, written by Peter Selinger 2001-2019
</metadata>
<g transform="translate(0.000000,725.000000) scale(0.100000,-0.100000)"
fill="#000000" stroke="none">
<path d="M273 7138 c-63 -14 -55 -31 10 -23 57 8 67 12 67 26 0 11 -20 10 -77
-3z"/>
<path d="M273 6688 c-63 -14 -55 -31 10 -23 57 8 67 12 67 26 0 11 -20 10 -77
-3z"/>
<path d="M224 6604 c3 -9 6 -24 6 -35 0 -10 5 -19 10 -19 6 0 10 16 10 35 0
25 -4 35 -16 35 -11 0 -14 -5 -10 -16z"/>
<path d="M273 6238 c-63 -14 -55 -31 10 -23 57 8 67 12 67 26 0 11 -20 10 -77
-3z"/>
<path d="M300 6180 c0 -5 5 -10 10 -10 6 0 10 -11 10 -25 0 -31 25 -33 34 -2
10 40 7 47 -24 47 -16 0 -30 -4 -30 -10z"/>
<path d="M237 6173 c-11 -3 -16 -10 -13 -20 3 -8 6 -23 6 -34 0 -10 5 -19 10
-19 6 0 10 14 10 30 0 23 4 30 20 30 11 0 20 5 20 10 0 10 -21 11 -53 3z"/>
<path d="M273 5788 c-63 -14 -55 -31 10 -23 57 8 67 12 67 26 0 11 -20 10 -77
-3z"/>
<path d="M300 5730 c0 -5 5 -10 10 -10 6 0 10 -9 10 -20 0 -11 -6 -20 -12 -20
-7 0 -23 -3 -35 -6 -19 -5 -23 -2 -23 15 0 14 6 21 20 21 11 0 20 5 20 11 0 8
-11 9 -32 5 -17 -3 -32 -7 -34 -9 -1 -1 1 -17 3 -35 l5 -33 57 7 c31 3 57 7
58 8 0 0 4 18 8 39 7 36 7 37 -24 37 -17 0 -31 -4 -31 -10z"/>
<path d="M273 5338 c-63 -14 -55 -31 10 -23 57 8 67 12 67 26 0 11 -20 10 -77
-3z"/>
<path d="M300 5280 c0 -5 5 -10 10 -10 6 0 10 -9 10 -20 0 -11 -6 -20 -12 -20
-7 0 -23 -3 -35 -6 -19 -5 -23 -2 -23 15 0 14 6 21 20 21 11 0 20 5 20 11 0 8
-11 9 -32 5 -17 -3 -33 -7 -34 -9 -7 -7 29 -137 38 -137 6 0 8 13 5 34 -6 38
3 46 53 46 23 0 29 5 34 31 9 47 8 49 -24 49 -16 0 -30 -4 -30 -10z"/>
<path d="M273 4888 c-63 -14 -55 -31 10 -23 57 8 67 12 67 26 0 11 -20 10 -77
-3z"/>
<path d="M300 4830 c0 -5 5 -10 10 -10 6 0 10 -9 10 -20 0 -11 -6 -20 -12 -20
-7 0 -23 -3 -35 -6 -19 -5 -23 -2 -23 15 0 14 6 21 20 21 11 0 20 5 20 11 0 8
-11 9 -32 5 -17 -3 -33 -7 -34 -9 -7 -7 29 -137 38 -137 7 0 8 14 5 35 -5 28
-2 35 14 40 27 9 40 -3 33 -31 -7 -28 11 -33 24 -6 5 9 12 41 16 70 l7 52 -31
0 c-16 0 -30 -4 -30 -10z"/>
<path d="M273 4438 c-63 -14 -55 -31 10 -23 57 8 67 12 67 26 0 11 -20 10 -77
-3z"/>
<path d="M300 4380 c0 -5 5 -10 10 -10 6 0 10 -9 10 -20 0 -11 -6 -20 -12 -20
-7 0 -23 -3 -35 -6 -19 -5 -23 -2 -23 15 0 14 6 21 20 21 11 0 20 5 20 11 0 8
-11 9 -32 5 -17 -3 -33 -7 -34 -9 -3 -3 12 -77 22 -109 3 -10 -2 -19 -16 -23
-11 -3 -20 -10 -20 -15 0 -9 170 -2 180 7 9 8 -26 23 -47 20 -19 -4 -20 -2 -8
17 7 12 16 45 19 74 l7 52 -31 0 c-16 0 -30 -4 -30 -10z m14 -79 c9 -15 -12
-61 -28 -61 -17 0 -28 52 -13 62 16 10 35 10 41 -1z"/>
<path d="M273 3988 c-63 -14 -55 -31 10 -23 57 8 67 12 67 26 0 11 -20 10 -77
-3z"/>
<path d="M120 3982 c0 -13 30 -52 41 -52 17 0 9 39 -10 50 -23 12 -31 13 -31
2z"/>
<path d="M300 3930 c0 -5 5 -10 10 -10 6 0 10 -9 10 -20 0 -11 -6 -20 -12 -20
-7 0 -23 -3 -35 -6 -19 -5 -23 -2 -23 15 0 14 6 21 20 21 11 0 20 5 20 11 0 8
-11 9 -32 5 -17 -3 -33 -7 -34 -9 -3 -3 12 -77 22 -109 3 -10 -2 -19 -16 -23
-11 -3 -20 -10 -20 -15 0 -9 170 -2 180 7 9 8 -26 23 -47 20 -19 -4 -20 -2 -8
17 7 12 16 45 19 74 l7 52 -31 0 c-16 0 -30 -4 -30 -10z m14 -79 c9 -15 -12
-61 -28 -61 -17 0 -28 52 -13 62 16 10 35 10 41 -1z"/>
<path d="M273 3538 c-63 -14 -55 -31 10 -23 57 8 67 12 67 26 0 11 -20 10 -77
-3z"/>
<path d="M120 3532 c0 -13 30 -52 41 -52 17 0 9 39 -10 50 -23 12 -31 13 -31
2z"/>
<path d="M300 3480 c0 -5 5 -10 10 -10 6 0 10 -9 10 -20 0 -11 -6 -20 -12 -20
-7 0 -23 -3 -35 -6 -19 -5 -23 -2 -23 15 0 14 6 21 20 21 11 0 20 5 20 11 0 8
-11 9 -32 5 -17 -3 -33 -7 -34 -9 -3 -3 12 -77 22 -109 3 -10 -2 -19 -16 -23
-11 -3 -20 -10 -20 -15 0 -9 170 -2 180 7 9 8 -26 23 -47 20 -19 -4 -20 -2 -8
17 7 12 16 45 19 74 l7 52 -31 0 c-16 0 -30 -4 -30 -10z m14 -79 c9 -15 -12
-61 -28 -61 -17 0 -28 52 -13 62 16 10 35 10 41 -1z"/>
<path d="M128 3447 c-33 -13 -37 -27 -7 -27 16 0 19 -4 14 -20 -9 -28 7 -25
34 6 18 20 20 28 10 40 -13 16 -14 16 -51 1z"/>
<path d="M273 3088 c-63 -14 -55 -31 10 -23 57 8 67 12 67 26 0 11 -20 10 -77
-3z"/>
<path d="M120 3082 c0 -13 30 -52 41 -52 17 0 9 39 -10 50 -23 12 -31 13 -31
2z"/>
<path d="M300 3030 c0 -5 5 -10 10 -10 6 0 10 -9 10 -20 0 -11 -6 -20 -12 -20
-7 0 -23 -3 -35 -6 -19 -5 -23 -2 -23 15 0 14 6 21 20 21 11 0 20 5 20 11 0 8
-11 9 -32 5 -17 -3 -33 -7 -34 -9 -3 -3 12 -77 22 -109 3 -10 -2 -19 -16 -23
-11 -3 -20 -10 -20 -15 0 -9 170 -2 180 7 9 8 -26 23 -47 20 -19 -4 -20 -2 -8
17 7 12 16 45 19 74 l7 52 -31 0 c-16 0 -30 -4 -30 -10z m14 -79 c9 -15 -12
-61 -28 -61 -17 0 -28 52 -13 62 16 10 35 10 41 -1z"/>
<path d="M128 2997 c-33 -13 -37 -27 -8 -27 16 0 19 -5 14 -24 -3 -13 -1 -27
5 -30 6 -4 11 -16 11 -27 0 -10 5 -19 10 -19 13 0 13 57 0 62 -6 2 -1 14 10
26 17 18 19 26 10 37 -14 17 -15 17 -52 2z"/>
<path d="M273 2638 c-63 -14 -55 -31 10 -23 57 8 67 12 67 26 0 11 -20 10 -77
-3z"/>
<path d="M120 2632 c0 -13 30 -52 41 -52 17 0 9 39 -10 50 -23 12 -31 13 -31
2z"/>
<path d="M300 2580 c0 -5 5 -10 10 -10 6 0 10 -9 10 -20 0 -11 -6 -20 -12 -20
-7 0 -23 -3 -35 -6 -19 -5 -23 -2 -23 15 0 14 6 21 20 21 11 0 20 5 20 11 0 8
-11 9 -32 5 -17 -3 -33 -7 -34 -9 -3 -2 12 -77 22 -108 3 -10 -5 -20 -21 -27
-42 -19 -55 -15 -55 17 0 16 -5 31 -10 33 -6 2 -1 14 11 27 18 20 19 25 7 37
-11 11 -19 12 -46 2 -36 -14 -42 -28 -11 -28 16 0 19 -4 14 -20 -4 -12 -1 -27
5 -35 19 -23 4 -45 -31 -45 -20 0 -29 -4 -26 -12 2 -9 20 -12 49 -10 34 3 65
-5 122 -29 75 -31 78 -32 123 -18 71 22 67 39 -10 39 -35 0 -79 3 -97 6 -49
10 -16 24 58 24 34 0 62 4 62 10 0 13 -46 24 -60 15 -7 -4 -5 3 3 16 8 13 18
48 21 77 l7 52 -31 0 c-16 0 -30 -4 -30 -10z m14 -79 c9 -15 -12 -61 -28 -61
-17 0 -28 52 -13 62 16 10 35 10 41 -1z"/>
</g>
</svg>
