<?xml version="1.0" standalone="no"?>
<!DOCTYPE svg PUBLIC "-//W3C//DTD SVG 20010904//EN"
 "http://www.w3.org/TR/2001/REC-SVG-20010904/DTD/svg10.dtd">
<svg version="1.0" xmlns="http://www.w3.org/2000/svg"
 width="50.000000pt" height="725.000000pt" viewBox="0 0 50.000000 725.000000"
 preserveAspectRatio="xMidYMid meet">
<metadata>
Created by potrace 1.16, written by Peter Selinger 2001-2019
</metadata>
<g transform="translate(0.000000,725.000000) scale(0.100000,-0.100000)"
fill="#000000" stroke="none">
<path d="M268 7148 c-49 -10 -65 -28 -25 -28 49 0 97 13 97 26 0 16 -5 16 -72
2z"/>
<path d="M268 6698 c-49 -10 -65 -28 -25 -28 49 0 97 13 97 26 0 16 -5 16 -72
2z"/>
<path d="M220 6646 c0 -1 5 -17 11 -35 11 -31 29 -43 29 -18 0 29 -13 57 -26
57 -8 0 -14 -2 -14 -4z"/>
<path d="M268 6248 c-49 -10 -65 -28 -25 -28 49 0 97 13 97 26 0 16 -5 16 -72
2z"/>
<path d="M258 6203 c-21 -2 -38 -6 -38 -7 0 -2 5 -17 11 -35 13 -37 33 -42 27
-6 -4 16 -1 25 8 25 7 0 19 3 28 6 12 5 16 0 16 -20 0 -33 13 -33 28 -1 22 47
20 48 -80 38z"/>
<path d="M268 5798 c-49 -10 -65 -28 -25 -28 49 0 97 13 97 26 0 16 -5 16 -72
2z"/>
<path d="M258 5753 c-21 -2 -38 -6 -38 -7 0 -19 25 -66 35 -66 41 0 74 14 84
36 21 46 19 47 -81 37z m52 -27 c0 -20 -40 -32 -51 -15 -6 10 -2 16 14 21 34
10 37 9 37 -6z"/>
<path d="M268 5348 c-49 -10 -65 -28 -25 -28 49 0 97 13 97 26 0 16 -5 16 -72
2z"/>
<path d="M258 5303 c-21 -2 -38 -6 -38 -7 0 -19 25 -66 35 -66 41 0 74 14 84
36 21 46 19 47 -81 37z m52 -27 c0 -20 -40 -32 -51 -15 -6 10 -2 16 14 21 34
10 37 9 37 -6z"/>
<path d="M204 5194 c3 -9 6 -25 6 -37 0 -26 16 -54 25 -45 13 12 -7 98 -22 98
-10 0 -13 -6 -9 -16z"/>
<path d="M268 4898 c-49 -10 -65 -28 -25 -28 49 0 97 13 97 26 0 16 -5 16 -72
2z"/>
<path d="M258 4853 c-21 -2 -38 -6 -38 -7 0 -19 25 -66 35 -66 41 0 74 14 84
36 21 46 19 47 -81 37z m52 -27 c0 -20 -40 -32 -51 -15 -6 10 -2 16 14 21 34
10 37 9 37 -6z"/>
<path d="M293 4773 c-60 -6 -54 -23 7 -23 49 0 50 -1 50 -30 0 -16 -4 -30 -10
-30 -13 0 -13 -20 0 -40 14 -23 28 -2 40 60 11 56 4 72 -30 68 -8 -1 -34 -3
-57 -5z"/>
<path d="M205 4735 c3 -14 7 -36 10 -50 9 -44 24 -27 22 25 -2 40 -5 50 -20
50 -13 0 -16 -6 -12 -25z"/>
<path d="M268 4448 c-49 -10 -65 -28 -25 -28 49 0 97 13 97 26 0 16 -5 16 -72
2z"/>
<path d="M258 4403 c-21 -2 -38 -6 -38 -7 0 -19 25 -66 35 -66 41 0 74 14 84
36 21 46 19 47 -81 37z m52 -27 c0 -20 -40 -32 -51 -15 -6 10 -2 16 14 21 34
10 37 9 37 -6z"/>
<path d="M293 4323 c-60 -6 -54 -23 7 -23 28 0 50 -4 50 -10 0 -5 -18 -10 -40
-10 -22 0 -40 -4 -40 -10 0 -5 18 -10 40 -10 22 0 40 -4 40 -10 0 -5 -4 -10
-10 -10 -13 0 -13 -20 0 -40 14 -23 28 -2 40 60 11 56 4 72 -30 68 -8 -1 -34
-3 -57 -5z"/>
<path d="M205 4285 c3 -14 7 -36 10 -50 6 -29 25 -34 25 -6 0 11 6 22 13 25 9
3 7 8 -5 16 -9 6 -15 17 -12 25 4 10 -1 15 -15 15 -18 0 -20 -5 -16 -25z"/>
<path d="M268 3998 c-49 -10 -65 -28 -25 -28 49 0 97 13 97 26 0 16 -5 16 -72
2z"/>
<path d="M258 3953 c-21 -2 -38 -6 -38 -7 0 -19 25 -66 35 -66 41 0 74 14 84
36 21 46 19 47 -81 37z m52 -27 c0 -20 -40 -32 -51 -15 -6 10 -2 16 14 21 34
10 37 9 37 -6z"/>
<path d="M293 3873 c-44 -4 -56 -16 -27 -27 8 -3 13 -10 9 -15 -8 -13 5 -61
16 -61 5 0 9 9 9 20 0 15 7 20 25 20 14 0 25 -4 25 -10 0 -5 -4 -10 -10 -10
-13 0 -13 -20 0 -40 14 -23 28 -2 40 60 11 56 4 72 -30 68 -8 -1 -34 -3 -57
-5z m57 -33 c0 -5 -11 -10 -25 -10 -14 0 -25 5 -25 10 0 6 11 10 25 10 14 0
25 -4 25 -10z"/>
<path d="M205 3835 c3 -14 7 -36 10 -50 6 -29 25 -34 25 -6 0 11 6 22 13 25 9
3 7 8 -5 16 -9 6 -15 17 -12 25 4 10 -1 15 -15 15 -18 0 -20 -5 -16 -25z"/>
<path d="M268 3548 c-49 -10 -65 -28 -25 -28 49 0 97 13 97 26 0 16 -5 16 -72
2z"/>
<path d="M258 3503 c-21 -2 -38 -6 -38 -7 0 -19 25 -66 35 -66 41 0 74 14 84
36 21 46 19 47 -81 37z m52 -27 c0 -20 -40 -32 -51 -15 -6 10 -2 16 14 21 34
10 37 9 37 -6z"/>
<path d="M293 3423 c-42 -4 -56 -16 -30 -26 9 -3 12 -18 11 -41 -3 -34 -1 -36
26 -36 17 0 33 -7 39 -17 15 -26 29 -6 41 57 11 56 4 72 -30 68 -8 -1 -34 -3
-57 -5z m57 -33 c0 -5 -11 -10 -25 -10 -14 0 -25 5 -25 10 0 6 11 10 25 10 14
0 25 -4 25 -10z m0 -40 c0 -5 -11 -10 -25 -10 -14 0 -25 5 -25 10 0 6 11 10
25 10 14 0 25 -4 25 -10z"/>
<path d="M205 3385 c3 -14 7 -36 10 -50 4 -17 12 -25 25 -25 22 0 27 15 8 23
-10 4 -9 8 2 16 13 10 13 13 -2 21 -9 6 -15 17 -12 25 4 10 -1 15 -15 15 -18
0 -20 -5 -16 -25z"/>
<path d="M268 3098 c-49 -10 -65 -28 -25 -28 49 0 97 13 97 26 0 16 -5 16 -72
2z"/>
<path d="M130 3068 c0 -18 20 -38 38 -38 8 0 12 9 10 23 -3 25 -48 39 -48 15z"/>
<path d="M258 3053 c-21 -2 -38 -6 -38 -7 0 -19 25 -66 35 -66 41 0 74 14 84
36 21 46 19 47 -81 37z m52 -27 c0 -20 -40 -32 -51 -15 -6 10 -2 16 14 21 34
10 37 9 37 -6z"/>
<path d="M293 2973 c-42 -4 -56 -16 -30 -26 9 -3 12 -18 11 -41 -3 -34 -1 -36
26 -36 17 0 33 -7 39 -17 15 -26 29 -6 41 57 11 56 4 72 -30 68 -8 -1 -34 -3
-57 -5z m57 -33 c0 -5 -11 -10 -25 -10 -14 0 -25 5 -25 10 0 6 11 10 25 10 14
0 25 -4 25 -10z m0 -40 c0 -5 -11 -10 -25 -10 -14 0 -25 5 -25 10 0 6 11 10
25 10 14 0 25 -4 25 -10z"/>
<path d="M205 2935 c3 -14 7 -36 10 -50 4 -17 12 -25 25 -25 22 0 27 15 8 23
-10 4 -9 8 2 16 13 10 13 13 -2 21 -9 6 -15 17 -12 25 4 10 -1 15 -15 15 -18
0 -20 -5 -16 -25z"/>
<path d="M268 2648 c-49 -10 -65 -28 -25 -28 49 0 97 13 97 26 0 16 -5 16 -72
2z"/>
<path d="M130 2618 c0 -18 20 -38 38 -38 24 0 10 45 -15 48 -14 2 -23 -2 -23
-10z"/>
<path d="M258 2603 c-21 -2 -38 -6 -38 -7 0 -19 25 -66 35 -66 41 0 74 14 84
36 21 46 19 47 -81 37z m52 -27 c0 -20 -40 -32 -51 -15 -6 10 -2 16 14 21 34
10 37 9 37 -6z"/>
<path d="M118 2533 c-22 -5 -24 -23 -3 -23 8 0 15 -7 15 -15 0 -20 13 -19 33
3 32 36 13 50 -45 35z"/>
<path d="M293 2523 c-42 -4 -56 -16 -30 -26 9 -3 12 -18 11 -41 -3 -34 -1 -36
26 -36 17 0 33 -7 39 -17 15 -26 29 -6 41 57 11 56 4 72 -30 68 -8 -1 -34 -3
-57 -5z m57 -33 c0 -5 -11 -10 -25 -10 -14 0 -25 5 -25 10 0 6 11 10 25 10 14
0 25 -4 25 -10z m0 -40 c0 -5 -11 -10 -25 -10 -14 0 -25 5 -25 10 0 6 11 10
25 10 14 0 25 -4 25 -10z"/>
<path d="M205 2485 c3 -14 7 -36 10 -50 4 -17 12 -25 25 -25 22 0 27 15 8 23
-10 4 -9 8 2 16 13 10 13 13 -2 21 -9 6 -15 17 -12 25 4 10 -1 15 -15 15 -18
0 -20 -5 -16 -25z"/>
<path d="M268 2198 c-49 -10 -65 -28 -25 -28 49 0 97 13 97 26 0 16 -5 16 -72
2z"/>
<path d="M130 2168 c0 -18 20 -38 38 -38 24 0 10 45 -15 48 -14 2 -23 -2 -23
-10z"/>
<path d="M258 2153 c-21 -2 -38 -6 -38 -7 0 -19 25 -66 35 -66 41 0 74 14 84
36 21 46 19 47 -81 37z m52 -27 c0 -20 -40 -32 -51 -15 -6 10 -2 16 14 21 34
10 37 9 37 -6z"/>
<path d="M118 2083 c-22 -5 -24 -23 -3 -23 9 0 15 -9 15 -24 0 -14 5 -28 10
-31 6 -3 10 -15 10 -26 0 -10 5 -19 10 -19 15 0 12 58 -2 63 -10 3 -8 9 5 24
32 37 14 52 -45 36z"/>
<path d="M293 2073 c-42 -4 -56 -16 -30 -26 9 -3 12 -18 11 -41 -3 -34 -1 -36
26 -36 17 0 33 -7 39 -17 15 -26 29 -6 41 57 11 56 4 72 -30 68 -8 -1 -34 -3
-57 -5z m57 -33 c0 -5 -11 -10 -25 -10 -14 0 -25 5 -25 10 0 6 11 10 25 10 14
0 25 -4 25 -10z m0 -40 c0 -5 -11 -10 -25 -10 -14 0 -25 5 -25 10 0 6 11 10
25 10 14 0 25 -4 25 -10z"/>
<path d="M205 2035 c3 -14 7 -36 10 -50 4 -17 12 -25 25 -25 22 0 27 15 8 23
-10 4 -9 8 2 16 13 10 13 13 -2 21 -9 6 -15 17 -12 25 4 10 -1 15 -15 15 -18
0 -20 -5 -16 -25z"/>
<path d="M268 1748 c-49 -10 -65 -28 -25 -28 49 0 97 13 97 26 0 16 -5 16 -72
2z"/>
<path d="M130 1718 c0 -18 20 -38 38 -38 24 0 10 45 -15 48 -14 2 -23 -2 -23
-10z"/>
<path d="M258 1703 c-21 -2 -38 -6 -38 -7 0 -19 25 -66 35 -66 41 0 74 14 84
36 21 46 19 47 -81 37z m52 -27 c0 -20 -40 -32 -51 -15 -6 10 -2 16 14 21 34
10 37 9 37 -6z"/>
<path d="M118 1633 c-22 -5 -24 -23 -3 -23 9 0 15 -9 15 -24 0 -14 5 -28 10
-31 6 -3 10 -15 10 -26 0 -15 -7 -19 -36 -19 -24 0 -34 -4 -31 -12 2 -9 19
-12 47 -10 30 3 66 -5 126 -28 l84 -33 45 17 c25 10 45 22 45 27 0 5 -27 9
-61 9 -34 0 -92 7 -130 17 -65 15 -69 18 -69 44 0 15 -6 29 -12 32 -10 3 -8 9
5 24 32 37 14 52 -45 36z"/>
<path d="M293 1623 c-42 -4 -56 -16 -30 -26 9 -3 12 -18 11 -41 -3 -34 -1 -36
26 -36 17 0 33 -7 39 -17 15 -26 29 -6 41 57 11 56 4 72 -30 68 -8 -1 -34 -3
-57 -5z m57 -33 c0 -5 -11 -10 -25 -10 -14 0 -25 5 -25 10 0 6 11 10 25 10 14
0 25 -4 25 -10z m0 -40 c0 -5 -11 -10 -25 -10 -14 0 -25 5 -25 10 0 6 11 10
25 10 14 0 25 -4 25 -10z"/>
<path d="M205 1585 c3 -14 7 -36 10 -50 4 -17 12 -25 25 -25 22 0 27 15 8 23
-10 4 -9 8 2 16 13 10 13 13 -2 21 -9 6 -15 17 -12 25 4 10 -1 15 -15 15 -18
0 -20 -5 -16 -25z"/>
</g>
</svg>
