<?xml version="1.0" standalone="no"?>
<!DOCTYPE svg PUBLIC "-//W3C//DTD SVG 20010904//EN"
 "http://www.w3.org/TR/2001/REC-SVG-20010904/DTD/svg10.dtd">
<svg version="1.0" xmlns="http://www.w3.org/2000/svg"
 width="50.000000pt" height="725.000000pt" viewBox="0 0 50.000000 725.000000"
 preserveAspectRatio="xMidYMid meet">
<metadata>
Created by potrace 1.16, written by Peter Selinger 2001-2019
</metadata>
<g transform="translate(0.000000,725.000000) scale(0.100000,-0.100000)"
fill="#000000" stroke="none">
<path d="M234 7109 c3 -17 6 -40 6 -50 0 -11 5 -19 10 -19 11 0 13 42 4 78
-10 34 -27 27 -20 -9z"/>
<path d="M313 6703 c-33 -6 -28 -23 6 -23 29 0 29 0 19 -40 -18 -72 12 -68 32
4 17 63 9 72 -57 59z"/>
<path d="M234 6659 c3 -17 6 -40 6 -50 0 -11 5 -19 11 -19 7 0 10 15 7 40 -2
28 0 40 9 40 7 0 13 5 13 10 0 6 -12 10 -26 10 -24 0 -26 -3 -20 -31z"/>
<path d="M313 6253 c-34 -7 -28 -23 9 -23 20 0 28 -4 23 -9 -12 -12 -81 -18
-91 -8 -4 4 0 7 9 7 10 0 17 5 17 10 0 6 -12 10 -26 10 -24 0 -26 -3 -20 -31
3 -17 6 -40 6 -50 0 -11 5 -19 10 -19 6 0 10 9 10 19 0 20 19 31 54 31 20 0
22 -4 18 -26 -8 -43 20 -24 36 24 22 66 11 78 -55 65z"/>
<path d="M313 5803 c-34 -7 -28 -23 9 -23 20 0 28 -4 23 -9 -12 -12 -81 -18
-91 -8 -4 4 0 7 9 7 10 0 17 5 17 10 0 6 -12 10 -26 10 -24 0 -26 -3 -20 -31
3 -17 6 -40 6 -50 0 -11 7 -19 16 -19 11 0 14 5 10 17 -4 9 -1 20 6 25 19 11
70 10 63 -2 -3 -5 -15 -10 -26 -10 -25 0 -25 -20 1 -21 11 -1 25 -2 32 -3 14
-1 42 79 34 99 -5 15 -19 16 -63 8z"/>
<path d="M313 5353 c-34 -7 -28 -23 9 -23 20 0 28 -4 23 -9 -12 -12 -81 -18
-91 -8 -4 4 0 7 9 7 10 0 17 5 17 10 0 6 -12 10 -26 10 -24 0 -26 -3 -20 -31
3 -17 6 -40 6 -50 0 -11 7 -19 16 -19 11 0 14 5 10 17 -4 9 -1 20 6 25 19 11
70 10 63 -2 -3 -5 -15 -10 -26 -10 -25 0 -25 -20 1 -21 11 -1 25 -2 32 -3 14
-1 42 79 34 99 -5 15 -19 16 -63 8z"/>
<path d="M204 5214 c3 -9 6 -36 6 -60 0 -24 5 -44 10 -44 6 0 10 27 10 60 0
48 -3 60 -16 60 -11 0 -14 -5 -10 -16z"/>
<path d="M313 4903 c-34 -7 -28 -23 9 -23 20 0 28 -4 23 -9 -12 -12 -81 -18
-91 -8 -4 4 0 7 9 7 10 0 17 5 17 10 0 6 -12 10 -26 10 -24 0 -26 -3 -20 -31
3 -17 6 -40 6 -50 0 -11 7 -19 16 -19 11 0 14 5 10 17 -4 9 -1 20 6 25 19 11
70 10 63 -2 -3 -5 -15 -10 -26 -10 -25 0 -25 -20 1 -21 11 -1 25 -2 32 -3 14
-1 42 79 34 99 -5 15 -19 16 -63 8z"/>
<path d="M333 4783 c-44 -6 -42 -23 1 -23 19 0 37 -3 39 -7 10 -17 -6 -73 -20
-73 -21 0 -11 -34 11 -38 25 -5 33 10 41 76 7 54 -2 74 -30 70 -5 -1 -25 -3
-42 -5z"/>
<path d="M196 4763 c-4 -10 -2 -19 3 -21 6 -2 11 -21 11 -43 0 -53 18 -50 22
4 3 38 6 42 31 45 32 4 37 22 5 22 -13 0 -33 3 -44 6 -15 4 -23 0 -28 -13z"/>
<path d="M282 4446 c-52 -10 -54 -11 -48 -39 3 -16 6 -38 6 -48 0 -11 7 -19
16 -19 11 0 14 6 9 20 -4 11 -2 20 4 20 6 0 11 -14 11 -31 0 -31 -1 -31 -39
-25 -31 5 -40 3 -46 -11 -3 -10 -1 -19 4 -21 6 -2 11 -21 11 -43 0 -53 18 -50
22 4 2 35 7 43 26 45 17 3 22 -2 22 -17 0 -12 6 -21 15 -21 9 0 15 9 15 25 0
21 5 25 29 25 36 0 40 -6 34 -47 -3 -20 -11 -33 -20 -33 -21 0 -11 -34 11 -38
25 -5 33 10 41 76 8 64 -1 74 -57 65 -25 -3 -38 -2 -38 6 0 6 10 10 21 8 17
-2 25 7 36 41 25 72 16 78 -85 58z m63 -26 c-3 -5 -13 -10 -21 -10 -8 0 -14 5
-14 10 0 6 9 10 21 10 11 0 17 -4 14 -10z m-65 -4 c0 -11 -19 -15 -25 -6 -3 5
1 10 9 10 9 0 16 -2 16 -4z m55 -36 c-3 -5 -10 -10 -16 -10 -5 0 -9 5 -9 10 0
6 7 10 16 10 8 0 12 -4 9 -10z"/>
<path d="M282 3996 c-52 -10 -54 -11 -48 -39 3 -16 6 -38 6 -48 0 -11 7 -19
16 -19 11 0 14 6 9 20 -4 11 -2 20 4 20 6 0 11 -14 11 -31 0 -31 -1 -31 -39
-25 -31 5 -40 3 -46 -11 -3 -10 -1 -19 4 -21 6 -2 11 -21 11 -43 0 -53 18 -50
22 4 2 35 7 43 26 45 15 2 22 -2 22 -12 0 -9 -8 -16 -20 -16 -21 0 -27 -15
-10 -25 12 -8 90 15 90 27 0 4 -7 8 -15 8 -8 0 -15 7 -15 15 0 16 55 22 63 8
10 -17 -6 -73 -20 -73 -21 0 -11 -34 11 -38 25 -5 33 10 41 76 8 64 -1 74 -57
65 -25 -3 -38 -2 -38 6 0 6 10 10 21 8 17 -2 25 7 36 41 25 72 16 78 -85 58z
m63 -26 c-3 -5 -13 -10 -21 -10 -8 0 -14 5 -14 10 0 6 9 10 21 10 11 0 17 -4
14 -10z m-65 -4 c0 -11 -19 -15 -25 -6 -3 5 1 10 9 10 9 0 16 -2 16 -4z m55
-36 c-3 -5 -10 -10 -16 -10 -5 0 -9 5 -9 10 0 6 7 10 16 10 8 0 12 -4 9 -10z"/>
<path d="M282 3546 c-52 -10 -54 -11 -48 -39 3 -16 6 -38 6 -48 0 -11 7 -19
16 -19 11 0 14 6 9 20 -4 11 -2 20 4 20 6 0 11 -14 11 -31 0 -31 -1 -31 -39
-25 -31 5 -40 3 -46 -11 -3 -10 -1 -19 4 -21 6 -2 11 -21 11 -43 0 -53 18 -50
22 4 2 35 7 43 26 45 15 2 22 -2 22 -12 0 -10 -9 -16 -21 -16 -12 0 -19 -5
-16 -12 2 -7 15 -12 28 -10 13 1 39 3 57 4 23 2 32 7 32 19 0 21 -31 34 -42
17 -6 -10 -8 -8 -8 5 0 12 8 17 29 17 36 0 40 -6 34 -47 -3 -20 -11 -33 -20
-33 -21 0 -11 -34 11 -38 25 -5 33 10 41 76 8 64 -1 74 -57 65 -25 -3 -38 -2
-38 6 0 6 10 10 21 8 17 -2 25 7 36 41 25 72 16 78 -85 58z m63 -26 c-3 -5
-13 -10 -21 -10 -8 0 -14 5 -14 10 0 6 9 10 21 10 11 0 17 -4 14 -10z m-65 -4
c0 -11 -19 -15 -25 -6 -3 5 1 10 9 10 9 0 16 -2 16 -4z m55 -36 c-3 -5 -10
-10 -16 -10 -5 0 -9 5 -9 10 0 6 7 10 16 10 8 0 12 -4 9 -10z"/>
<path d="M282 3096 c-52 -10 -54 -11 -48 -39 3 -16 6 -38 6 -48 0 -11 7 -19
16 -19 11 0 14 6 9 20 -4 11 -2 20 4 20 6 0 11 -14 11 -31 0 -31 -1 -31 -39
-25 -31 5 -40 3 -46 -11 -3 -10 -1 -19 4 -21 6 -2 11 -21 11 -43 0 -53 18 -50
22 4 2 35 7 43 26 45 15 2 22 -2 22 -12 0 -10 -9 -16 -21 -16 -12 0 -19 -5
-16 -12 2 -7 15 -12 28 -10 13 1 39 3 57 4 23 2 32 7 32 19 0 21 -31 34 -42
17 -6 -10 -8 -8 -8 5 0 12 8 17 29 17 36 0 40 -6 34 -47 -3 -20 -11 -33 -20
-33 -21 0 -11 -34 11 -38 25 -5 33 10 41 76 8 64 -1 74 -57 65 -25 -3 -38 -2
-38 6 0 6 10 10 21 8 17 -2 25 7 36 41 25 72 16 78 -85 58z m63 -26 c-3 -5
-13 -10 -21 -10 -8 0 -14 5 -14 10 0 6 9 10 21 10 11 0 17 -4 14 -10z m-65 -4
c0 -11 -19 -15 -25 -6 -3 5 1 10 9 10 9 0 16 -2 16 -4z m55 -36 c-3 -5 -10
-10 -16 -10 -5 0 -9 5 -9 10 0 6 7 10 16 10 8 0 12 -4 9 -10z"/>
<path d="M110 3083 c1 -13 38 -53 49 -53 19 0 12 39 -8 50 -23 12 -41 13 -41
3z"/>
<path d="M282 2646 c-52 -10 -54 -11 -48 -39 3 -16 6 -38 6 -48 0 -11 7 -19
16 -19 11 0 14 6 9 20 -4 11 -2 20 4 20 6 0 11 -14 11 -31 0 -31 -1 -31 -39
-25 -31 5 -40 3 -46 -11 -3 -10 -1 -19 4 -21 6 -2 11 -21 11 -43 0 -53 18 -50
22 4 2 35 7 43 26 45 15 2 22 -2 22 -12 0 -10 -9 -16 -21 -16 -12 0 -19 -5
-16 -12 2 -7 15 -12 28 -10 13 1 39 3 57 4 23 2 32 7 32 19 0 21 -31 34 -42
17 -6 -10 -8 -8 -8 5 0 12 8 17 29 17 36 0 40 -6 34 -47 -3 -20 -11 -33 -20
-33 -21 0 -11 -34 11 -38 25 -5 33 10 41 76 8 64 -1 74 -57 65 -25 -3 -38 -2
-38 6 0 6 10 10 21 8 17 -2 25 7 36 41 25 72 16 78 -85 58z m63 -26 c-3 -5
-13 -10 -21 -10 -8 0 -14 5 -14 10 0 6 9 10 21 10 11 0 17 -4 14 -10z m-65 -4
c0 -11 -19 -15 -25 -6 -3 5 1 10 9 10 9 0 16 -2 16 -4z m55 -36 c-3 -5 -10
-10 -16 -10 -5 0 -9 5 -9 10 0 6 7 10 16 10 8 0 12 -4 9 -10z"/>
<path d="M110 2633 c1 -13 38 -53 49 -53 19 0 12 39 -8 50 -23 12 -41 13 -41
3z"/>
<path d="M118 2537 c-35 -13 -36 -27 -3 -27 18 0 23 -4 19 -15 -9 -21 10 -19
31 5 19 20 14 51 -7 49 -7 -1 -25 -6 -40 -12z"/>
<path d="M282 2196 c-52 -10 -54 -11 -48 -39 3 -16 6 -38 6 -48 0 -11 7 -19
16 -19 11 0 14 6 9 20 -4 11 -2 20 4 20 6 0 11 -14 11 -31 0 -31 -1 -31 -39
-25 -31 5 -40 3 -46 -11 -3 -10 -1 -19 4 -21 6 -2 11 -21 11 -43 0 -53 18 -50
22 4 2 35 7 43 26 45 15 2 22 -2 22 -12 0 -10 -9 -16 -21 -16 -12 0 -19 -5
-16 -12 2 -7 15 -12 28 -10 13 1 39 3 57 4 23 2 32 7 32 19 0 21 -31 34 -42
17 -6 -10 -8 -8 -8 5 0 12 8 17 29 17 36 0 40 -6 34 -47 -3 -20 -11 -33 -20
-33 -21 0 -11 -34 11 -38 25 -5 33 10 41 76 8 64 -1 74 -57 65 -25 -3 -38 -2
-38 6 0 6 10 10 21 8 17 -2 25 7 36 41 25 72 16 78 -85 58z m63 -26 c-3 -5
-13 -10 -21 -10 -8 0 -14 5 -14 10 0 6 9 10 21 10 11 0 17 -4 14 -10z m-65 -4
c0 -11 -19 -15 -25 -6 -3 5 1 10 9 10 9 0 16 -2 16 -4z m55 -36 c-3 -5 -10
-10 -16 -10 -5 0 -9 5 -9 10 0 6 7 10 16 10 8 0 12 -4 9 -10z"/>
<path d="M110 2183 c1 -13 38 -53 49 -53 19 0 12 39 -8 50 -23 12 -41 13 -41
3z"/>
<path d="M118 2087 c-34 -13 -36 -27 -4 -27 19 0 22 -4 19 -24 -3 -13 0 -27 6
-30 6 -4 11 -16 11 -27 0 -10 5 -19 10 -19 14 0 13 43 -2 58 -9 9 -7 16 6 31
19 21 15 52 -6 50 -7 -1 -25 -6 -40 -12z"/>
<path d="M282 1746 c-52 -10 -54 -11 -48 -39 3 -16 6 -38 6 -48 0 -11 7 -19
16 -19 11 0 14 6 9 20 -4 11 -2 20 4 20 6 0 11 -14 11 -31 0 -31 -1 -31 -39
-25 -31 5 -40 3 -46 -11 -3 -10 -1 -19 4 -21 6 -2 11 -21 11 -43 0 -53 18 -50
22 4 2 35 7 43 26 45 15 2 22 -2 22 -12 0 -10 -9 -16 -21 -16 -12 0 -19 -5
-16 -12 2 -7 15 -12 28 -10 13 1 39 3 57 4 23 2 32 7 32 19 0 21 -31 34 -42
17 -6 -10 -8 -8 -8 5 0 12 8 17 29 17 36 0 40 -6 34 -47 -3 -20 -11 -33 -20
-33 -21 0 -11 -34 11 -38 25 -5 33 10 41 76 8 64 -1 74 -57 65 -25 -3 -38 -2
-38 6 0 6 10 10 21 8 17 -2 25 7 36 41 25 72 16 78 -85 58z m63 -26 c-3 -5
-13 -10 -21 -10 -8 0 -14 5 -14 10 0 6 9 10 21 10 11 0 17 -4 14 -10z m-65 -4
c0 -11 -19 -15 -25 -6 -3 5 1 10 9 10 9 0 16 -2 16 -4z m55 -36 c-3 -5 -10
-10 -16 -10 -5 0 -9 5 -9 10 0 6 7 10 16 10 8 0 12 -4 9 -10z"/>
<path d="M110 1733 c1 -13 38 -53 49 -53 19 0 12 39 -8 50 -23 12 -41 13 -41
3z"/>
<path d="M118 1637 c-34 -13 -36 -27 -4 -27 19 0 23 -4 19 -20 -3 -11 0 -27 7
-35 19 -23 4 -45 -31 -45 -20 0 -29 -4 -26 -12 2 -9 19 -12 48 -10 32 2 65 -5
118 -27 41 -17 80 -31 89 -31 23 0 92 22 92 30 0 4 -32 10 -71 14 -38 3 -97
14 -130 23 -48 13 -59 20 -59 38 0 11 -5 26 -12 33 -9 9 -7 16 6 31 19 21 15
52 -6 50 -7 -1 -25 -6 -40 -12z"/>
</g>
</svg>
