<?xml version="1.0" standalone="no"?>
<!DOCTYPE svg PUBLIC "-//W3C//DTD SVG 20010904//EN"
 "http://www.w3.org/TR/2001/REC-SVG-20010904/DTD/svg10.dtd">
<svg version="1.0" xmlns="http://www.w3.org/2000/svg"
 width="50.000000pt" height="725.000000pt" viewBox="0 0 50.000000 725.000000"
 preserveAspectRatio="xMidYMid meet">
<metadata>
Created by potrace 1.16, written by Peter Selinger 2001-2019
</metadata>
<g transform="translate(0.000000,725.000000) scale(0.100000,-0.100000)"
fill="#000000" stroke="none">
<path d="M214 7109 c3 -17 6 -35 6 -40 0 -5 5 -9 10 -9 6 0 10 18 10 40 0 30
-4 40 -16 40 -13 0 -15 -7 -10 -31z"/>
<path d="M344 6665 c-1 -55 19 -61 36 -10 13 38 7 55 -18 55 -13 0 -17 -10
-18 -45z"/>
<path d="M231 6693 c-20 -4 -22 -9 -17 -35 3 -17 6 -34 6 -39 0 -5 4 -9 9 -9
6 0 11 15 13 33 3 28 7 32 36 35 17 2 32 7 32 13 0 9 -35 10 -79 2z"/>
<path d="M344 6215 c-1 -55 19 -61 36 -10 13 38 7 55 -18 55 -13 0 -17 -10
-18 -45z"/>
<path d="M231 6243 c-20 -4 -22 -9 -17 -35 3 -17 6 -34 6 -39 0 -5 4 -9 9 -9
6 0 12 15 14 33 4 29 5 30 12 10 10 -31 25 -29 25 2 0 16 6 25 15 25 8 0 15 5
15 10 0 10 -34 11 -79 3z"/>
<path d="M344 5765 c-1 -55 19 -61 36 -10 13 38 7 55 -18 55 -13 0 -17 -10
-18 -45z"/>
<path d="M231 5793 c-20 -4 -22 -9 -17 -35 3 -17 6 -34 6 -39 0 -5 4 -9 9 -9
6 0 12 15 14 33 4 29 5 30 12 10 10 -31 25 -29 25 2 0 14 5 25 10 25 6 0 10
-9 10 -20 0 -24 15 -27 24 -4 16 43 -9 53 -93 37z"/>
<path d="M344 5329 c0 -18 -5 -34 -11 -36 -9 -3 -11 4 -6 28 l6 32 -57 -6
c-32 -3 -60 -8 -63 -10 -2 -3 -1 -22 3 -42 6 -36 8 -37 43 -31 20 3 53 6 73 6
33 0 38 4 48 35 13 39 7 55 -20 55 -14 0 -18 -7 -16 -31z m-44 -19 c0 -11 -4
-20 -10 -20 -5 0 -10 9 -10 20 0 11 5 20 10 20 6 0 10 -9 10 -20z m-40 -16 c0
-8 -4 -14 -10 -14 -5 0 -10 9 -10 21 0 11 5 17 10 14 6 -3 10 -13 10 -21z"/>
<path d="M344 4879 c0 -18 -5 -34 -11 -36 -9 -3 -11 4 -6 28 l6 32 -57 -6
c-32 -3 -60 -8 -63 -10 -2 -3 -1 -22 3 -42 6 -36 8 -37 43 -31 20 3 53 6 73 6
33 0 38 4 48 35 13 39 7 55 -20 55 -14 0 -18 -7 -16 -31z m-44 -19 c0 -11 -4
-20 -10 -20 -5 0 -10 9 -10 20 0 11 5 20 10 20 6 0 10 -9 10 -20z m-40 -16 c0
-8 -4 -14 -10 -14 -5 0 -10 9 -10 21 0 11 5 17 10 14 6 -3 10 -13 10 -21z"/>
<path d="M276 4729 c2 -72 7 -100 18 -88 2 2 6 41 8 87 3 68 1 82 -12 82 -12
0 -15 -15 -14 -81z"/>
<path d="M344 4429 c0 -18 -5 -34 -11 -36 -9 -3 -11 4 -6 28 l6 32 -57 -6
c-32 -3 -60 -8 -63 -10 -2 -3 -1 -22 3 -42 6 -36 8 -37 43 -31 20 3 53 6 73 6
33 0 38 4 48 35 13 39 7 55 -20 55 -14 0 -18 -7 -16 -31z m-44 -19 c0 -11 -4
-20 -10 -20 -5 0 -10 9 -10 20 0 11 5 20 10 20 6 0 10 -9 10 -20z m-40 -16 c0
-8 -4 -14 -10 -14 -5 0 -10 9 -10 21 0 11 5 17 10 14 6 -3 10 -13 10 -21z"/>
<path d="M276 4279 c2 -72 7 -100 18 -88 2 2 6 41 8 87 3 68 1 82 -12 82 -12
0 -15 -15 -14 -81z"/>
<path d="M212 4324 c2 -11 11 -20 22 -22 13 -3 17 1 14 14 -2 11 -11 20 -22
22 -13 3 -17 -1 -14 -14z"/>
<path d="M344 3979 c0 -18 -5 -34 -11 -36 -9 -3 -11 4 -6 28 l6 32 -57 -6
c-32 -3 -60 -8 -63 -10 -2 -3 -1 -22 3 -42 6 -36 8 -37 43 -31 20 3 53 6 73 6
33 0 38 4 48 35 13 39 7 55 -20 55 -14 0 -18 -7 -16 -31z m-44 -19 c0 -11 -4
-20 -10 -20 -5 0 -10 9 -10 20 0 11 5 20 10 20 6 0 10 -9 10 -20z m-40 -16 c0
-8 -4 -14 -10 -14 -5 0 -10 9 -10 21 0 11 5 17 10 14 6 -3 10 -13 10 -21z"/>
<path d="M276 3829 c2 -72 7 -100 18 -88 2 2 6 41 8 87 3 68 1 82 -12 82 -12
0 -15 -15 -14 -81z"/>
<path d="M212 3874 c2 -11 11 -20 22 -22 13 -3 17 1 14 14 -2 11 -11 20 -22
22 -13 3 -17 -1 -14 -14z"/>
<path d="M218 3822 c-32 -19 -35 -30 -12 -39 11 -4 23 2 35 18 32 41 24 49
-23 21z"/>
<path d="M344 3529 c0 -18 -5 -34 -11 -36 -9 -3 -11 4 -6 28 l6 32 -57 -6
c-32 -3 -60 -8 -63 -10 -2 -3 -1 -22 3 -42 6 -36 8 -37 43 -31 20 3 53 6 73 6
33 0 38 4 48 35 13 39 7 55 -20 55 -14 0 -18 -7 -16 -31z m-44 -19 c0 -11 -4
-20 -10 -20 -5 0 -10 9 -10 20 0 11 5 20 10 20 6 0 10 -9 10 -20z m-40 -16 c0
-8 -4 -14 -10 -14 -5 0 -10 9 -10 21 0 11 5 17 10 14 6 -3 10 -13 10 -21z"/>
<path d="M276 3379 c2 -72 7 -100 18 -88 2 2 6 41 8 87 3 68 1 82 -12 82 -12
0 -15 -15 -14 -81z"/>
<path d="M342 3439 c-16 -25 -11 -33 18 -24 12 4 20 13 18 23 -5 24 -22 24
-36 1z"/>
<path d="M212 3424 c2 -11 11 -20 22 -22 13 -3 17 1 14 14 -2 11 -11 20 -22
22 -13 3 -17 -1 -14 -14z"/>
<path d="M218 3372 c-32 -19 -35 -30 -12 -39 11 -4 23 2 35 18 32 41 24 49
-23 21z"/>
<path d="M344 3079 c0 -18 -5 -34 -11 -36 -9 -3 -11 4 -6 28 l6 32 -57 -6
c-32 -3 -60 -8 -63 -10 -2 -3 -1 -22 3 -42 6 -36 8 -37 43 -31 20 3 53 6 73 6
33 0 38 4 48 35 13 39 7 55 -20 55 -14 0 -18 -7 -16 -31z m-44 -19 c0 -11 -4
-20 -10 -20 -5 0 -10 9 -10 20 0 11 5 20 10 20 6 0 10 -9 10 -20z m-40 -16 c0
-8 -4 -14 -10 -14 -5 0 -10 9 -10 21 0 11 5 17 10 14 6 -3 10 -13 10 -21z"/>
<path d="M276 2929 c2 -72 7 -100 18 -88 2 2 6 41 8 87 3 68 1 82 -12 82 -12
0 -15 -15 -14 -81z"/>
<path d="M342 2989 c-16 -25 -11 -33 18 -24 12 4 20 13 18 23 -5 24 -22 24
-36 1z"/>
<path d="M212 2974 c2 -11 11 -20 22 -22 13 -3 17 1 14 14 -2 11 -11 20 -22
22 -13 3 -17 -1 -14 -14z"/>
<path d="M218 2922 c-32 -19 -35 -30 -12 -39 11 -4 23 2 35 18 32 41 24 49
-23 21z"/>
<path d="M320 2933 c0 -10 52 -63 62 -63 4 0 8 11 8 23 0 16 -9 28 -25 35 -29
14 -45 15 -45 5z"/>
<path d="M344 2629 c0 -18 -5 -34 -11 -36 -9 -3 -11 4 -6 28 l6 32 -57 -6
c-32 -3 -60 -8 -63 -10 -2 -3 -1 -22 3 -42 6 -36 8 -37 43 -31 20 3 53 6 73 6
33 0 38 4 48 35 13 39 7 55 -20 55 -14 0 -18 -7 -16 -31z m-44 -19 c0 -11 -4
-20 -10 -20 -5 0 -10 9 -10 20 0 11 5 20 10 20 6 0 10 -9 10 -20z m-40 -16 c0
-8 -4 -14 -10 -14 -5 0 -10 9 -10 21 0 11 5 17 10 14 6 -3 10 -13 10 -21z"/>
<path d="M110 2621 c0 -18 37 -54 48 -47 18 11 14 34 -7 46 -24 12 -41 13 -41
1z"/>
<path d="M276 2479 c2 -72 7 -100 18 -88 2 2 6 41 8 87 3 68 1 82 -12 82 -12
0 -15 -15 -14 -81z"/>
<path d="M342 2539 c-16 -25 -11 -33 18 -24 12 4 20 13 18 23 -5 24 -22 24
-36 1z"/>
<path d="M212 2524 c2 -11 11 -20 22 -22 13 -3 17 1 14 14 -2 11 -11 20 -22
22 -13 3 -17 -1 -14 -14z"/>
<path d="M218 2472 c-32 -19 -35 -30 -12 -39 11 -4 23 2 35 18 32 41 24 49
-23 21z"/>
<path d="M320 2483 c0 -10 52 -63 62 -63 4 0 8 11 8 23 0 16 -9 28 -25 35 -29
14 -45 15 -45 5z"/>
<path d="M344 2179 c0 -18 -5 -34 -11 -36 -9 -3 -11 4 -6 28 l6 32 -57 -6
c-32 -3 -60 -8 -63 -10 -2 -3 -1 -22 3 -42 6 -36 8 -37 43 -31 20 3 53 6 73 6
33 0 38 4 48 35 13 39 7 55 -20 55 -14 0 -18 -7 -16 -31z m-44 -19 c0 -11 -4
-20 -10 -20 -5 0 -10 9 -10 20 0 11 5 20 10 20 6 0 10 -9 10 -20z m-40 -16 c0
-8 -4 -14 -10 -14 -5 0 -10 9 -10 21 0 11 5 17 10 14 6 -3 10 -13 10 -21z"/>
<path d="M110 2171 c0 -18 37 -54 48 -47 18 11 14 34 -7 46 -24 12 -41 13 -41
1z"/>
<path d="M276 2029 c2 -72 7 -100 18 -88 2 2 6 41 8 87 3 68 1 82 -12 82 -12
0 -15 -15 -14 -81z"/>
<path d="M342 2089 c-16 -25 -11 -33 18 -24 12 4 20 13 18 23 -5 24 -22 24
-36 1z"/>
<path d="M108 2087 c-35 -13 -36 -27 -3 -27 18 0 23 -4 19 -15 -9 -23 10 -18
35 9 38 40 10 57 -51 33z"/>
<path d="M212 2074 c2 -11 11 -20 22 -22 13 -3 17 1 14 14 -2 11 -11 20 -22
22 -13 3 -17 -1 -14 -14z"/>
<path d="M218 2022 c-32 -19 -35 -30 -12 -39 11 -4 23 2 35 18 32 41 24 49
-23 21z"/>
<path d="M320 2033 c0 -10 52 -63 62 -63 4 0 8 11 8 23 0 16 -9 28 -25 35 -29
14 -45 15 -45 5z"/>
<path d="M344 1729 c0 -18 -5 -34 -11 -36 -9 -3 -11 4 -6 28 l6 32 -57 -6
c-32 -3 -60 -8 -63 -10 -2 -3 -1 -22 3 -42 6 -36 8 -37 43 -31 20 3 53 6 73 6
33 0 38 4 48 35 13 39 7 55 -20 55 -14 0 -18 -7 -16 -31z m-44 -19 c0 -11 -4
-20 -10 -20 -5 0 -10 9 -10 20 0 11 5 20 10 20 6 0 10 -9 10 -20z m-40 -16 c0
-8 -4 -14 -10 -14 -5 0 -10 9 -10 21 0 11 5 17 10 14 6 -3 10 -13 10 -21z"/>
<path d="M110 1721 c0 -18 37 -54 48 -47 18 11 14 34 -7 46 -24 12 -41 13 -41
1z"/>
<path d="M276 1579 c2 -72 7 -100 18 -88 2 2 6 41 8 87 3 68 1 82 -12 82 -12
0 -15 -15 -14 -81z"/>
<path d="M342 1639 c-16 -25 -11 -33 18 -24 12 4 20 13 18 23 -5 24 -22 24
-36 1z"/>
<path d="M108 1637 c-35 -14 -36 -27 -2 -27 14 0 23 -4 19 -9 -6 -11 17 -91
26 -91 15 0 18 35 5 55 -13 20 -12 24 6 43 36 36 5 52 -54 29z"/>
<path d="M212 1624 c2 -11 11 -20 22 -22 13 -3 17 1 14 14 -2 11 -11 20 -22
22 -13 3 -17 -1 -14 -14z"/>
<path d="M218 1572 c-32 -19 -35 -30 -12 -39 11 -4 23 2 35 18 32 41 24 49
-23 21z"/>
<path d="M320 1583 c0 -10 52 -63 62 -63 4 0 8 11 8 23 0 16 -9 28 -25 35 -29
14 -45 15 -45 5z"/>
<path d="M344 1279 c0 -18 -5 -34 -11 -36 -9 -3 -11 4 -6 28 l6 32 -57 -6
c-32 -3 -60 -8 -63 -10 -2 -3 -1 -22 3 -42 6 -36 8 -37 43 -31 20 3 53 6 73 6
33 0 38 4 48 35 13 39 7 55 -20 55 -14 0 -18 -7 -16 -31z m-44 -19 c0 -11 -4
-20 -10 -20 -5 0 -10 9 -10 20 0 11 5 20 10 20 6 0 10 -9 10 -20z m-40 -16 c0
-8 -4 -14 -10 -14 -5 0 -10 9 -10 21 0 11 5 17 10 14 6 -3 10 -13 10 -21z"/>
<path d="M110 1271 c0 -18 37 -54 48 -47 18 11 14 34 -7 46 -24 12 -41 13 -41
1z"/>
<path d="M276 1129 c2 -72 7 -100 18 -88 2 2 6 41 8 87 3 68 1 82 -12 82 -12
0 -15 -15 -14 -81z"/>
<path d="M342 1189 c-16 -25 -11 -33 18 -24 12 4 20 13 18 23 -5 24 -22 24
-36 1z"/>
<path d="M108 1187 c-34 -13 -36 -27 -5 -27 16 0 22 -6 23 -22 1 -13 5 -33 9
-45 7 -21 4 -23 -24 -23 -21 0 -31 -5 -31 -15 0 -11 11 -15 44 -14 29 2 71 -9
125 -31 77 -31 84 -32 127 -20 24 7 43 18 41 24 -2 6 -37 14 -78 17 -87 6
-180 35 -173 52 2 7 -2 21 -10 32 -13 18 -12 22 6 42 35 37 5 54 -54 30z"/>
<path d="M212 1174 c2 -11 11 -20 22 -22 13 -3 17 1 14 14 -2 11 -11 20 -22
22 -13 3 -17 -1 -14 -14z"/>
<path d="M218 1122 c-32 -19 -35 -30 -12 -39 11 -4 23 2 35 18 32 41 24 49
-23 21z"/>
<path d="M320 1133 c0 -10 52 -63 62 -63 4 0 8 11 8 23 0 16 -9 28 -25 35 -29
14 -45 15 -45 5z"/>
</g>
</svg>
