<?xml version="1.0" standalone="no"?>
<!DOCTYPE svg PUBLIC "-//W3C//DTD SVG 20010904//EN"
 "http://www.w3.org/TR/2001/REC-SVG-20010904/DTD/svg10.dtd">
<svg version="1.0" xmlns="http://www.w3.org/2000/svg"
 width="50.000000pt" height="725.000000pt" viewBox="0 0 50.000000 725.000000"
 preserveAspectRatio="xMidYMid meet">
<metadata>
Created by potrace 1.16, written by Peter Selinger 2001-2019
</metadata>
<g transform="translate(0.000000,725.000000) scale(0.100000,-0.100000)"
fill="#000000" stroke="none">
<path d="M273 7127 c-89 -14 -81 -31 9 -22 77 7 88 10 88 26 0 10 -11 10 -97
-4z"/>
<path d="M273 6677 c-89 -14 -81 -31 9 -22 77 7 88 10 88 26 0 10 -11 10 -97
-4z"/>
<path d="M204 6608 c3 -13 6 -31 6 -40 0 -10 5 -18 10 -18 6 0 10 18 10 40 0
30 -4 40 -16 40 -12 0 -15 -6 -10 -22z"/>
<path d="M273 6227 c-89 -14 -81 -31 9 -22 77 7 88 10 88 26 0 10 -11 10 -97
-4z"/>
<path d="M293 6193 c-18 -2 -33 -9 -33 -15 0 -7 16 -9 46 -4 l46 6 -7 -40 c-9
-51 10 -54 31 -4 26 61 14 69 -83 57z"/>
<path d="M204 6158 c3 -13 6 -31 6 -40 0 -10 5 -18 10 -18 6 0 10 18 10 40 0
30 -4 40 -16 40 -12 0 -15 -6 -10 -22z"/>
<path d="M273 5777 c-89 -14 -81 -31 9 -22 77 7 88 10 88 26 0 10 -11 10 -97
-4z"/>
<path d="M293 5743 c-18 -2 -33 -9 -33 -15 0 -7 16 -9 45 -5 27 4 45 3 45 -3
0 -6 -10 -10 -22 -10 -13 0 -40 -3 -60 -6 -31 -5 -38 -4 -38 10 0 9 -7 16 -16
16 -12 0 -15 -6 -10 -22 3 -13 6 -31 6 -40 0 -10 5 -18 10 -18 6 0 10 6 10 14
0 8 15 16 38 20 61 10 72 8 72 -14 0 -32 20 -23 36 16 26 61 14 69 -83 57z"/>
<path d="M244 5345 c5 -20 3 -25 -14 -25 -11 0 -20 -4 -20 -10 0 -5 9 -10 20
-10 15 0 20 -7 20 -25 0 -14 -4 -25 -10 -25 -5 0 -10 7 -10 15 0 8 -7 15 -16
15 -12 0 -15 -6 -10 -22 3 -13 6 -31 6 -40 0 -10 5 -18 10 -18 6 0 10 7 10 15
0 18 16 20 24 3 3 -9 8 -8 16 5 16 25 70 23 70 -3 0 -32 20 -23 36 16 24 57
14 68 -54 59 -31 -4 -54 -3 -49 1 4 4 26 10 49 13 23 3 43 12 46 19 3 11 -6
12 -42 7 -37 -6 -46 -4 -46 8 0 13 -19 27 -37 27 -3 0 -2 -11 1 -25z m106 -75
c0 -5 -19 -9 -42 -9 -40 1 -41 2 -13 9 44 11 55 11 55 0z"/>
<path d="M244 4895 c5 -20 3 -25 -14 -25 -11 0 -20 -4 -20 -10 0 -5 9 -10 20
-10 15 0 20 -7 20 -25 0 -14 -4 -25 -10 -25 -5 0 -10 7 -10 15 0 8 -7 15 -16
15 -12 0 -15 -6 -10 -22 3 -13 6 -31 6 -40 0 -10 5 -18 10 -18 6 0 10 7 10 15
0 18 16 20 24 3 3 -9 8 -8 16 5 13 21 30 22 30 2 0 -8 5 -15 10 -15 6 0 10 7
10 15 0 8 5 15 10 15 6 0 10 -9 10 -20 0 -32 20 -23 36 16 19 45 12 64 -23 65
-27 0 -27 1 -5 9 25 11 30 30 7 30 -8 0 -15 7 -15 15 0 8 -9 15 -20 15 -13 0
-20 -7 -20 -20 0 -11 -4 -20 -10 -20 -5 0 -10 6 -10 14 0 12 -20 26 -37 26 -3
0 -2 -11 1 -25z m56 -45 c0 -5 -8 -10 -17 -10 -15 0 -16 2 -3 10 19 12 20 12
20 0z m50 -30 c0 -5 -4 -10 -10 -10 -5 0 -10 5 -10 10 0 6 5 10 10 10 6 0 10
-4 10 -10z m-53 -6 c-3 -3 -12 -4 -19 -1 -8 3 -5 6 6 6 11 1 17 -2 13 -5z"/>
<path d="M244 4445 c5 -20 3 -25 -14 -25 -11 0 -20 -4 -20 -10 0 -5 9 -10 20
-10 15 0 20 -7 20 -25 0 -14 -4 -25 -10 -25 -5 0 -10 7 -10 15 0 8 -7 15 -16
15 -12 0 -15 -6 -10 -22 3 -13 6 -31 6 -40 0 -15 10 -18 61 -18 56 0 60 2 54
20 -4 11 -2 20 4 20 6 0 11 -9 11 -20 0 -32 20 -23 36 16 19 45 12 64 -23 65
-27 0 -27 1 -5 9 25 11 30 30 7 30 -8 0 -15 7 -15 15 0 8 -9 15 -20 15 -13 0
-20 -7 -20 -20 0 -11 -4 -20 -10 -20 -5 0 -10 6 -10 14 0 12 -20 26 -37 26 -3
0 -2 -11 1 -25z m56 -45 c0 -5 -8 -10 -17 -10 -15 0 -16 2 -3 10 19 12 20 12
20 0z m50 -30 c0 -5 -4 -10 -10 -10 -5 0 -10 5 -10 10 0 6 5 10 10 10 6 0 10
-4 10 -10z m-53 -6 c-3 -3 -12 -4 -19 -1 -8 3 -5 6 6 6 11 1 17 -2 13 -5z m3
-34 c0 -5 -7 -10 -16 -10 -8 0 -12 5 -9 10 3 6 10 10 16 10 5 0 9 -4 9 -10z"/>
<path d="M244 3995 c5 -20 3 -25 -14 -25 -11 0 -20 -4 -20 -10 0 -5 9 -10 20
-10 15 0 20 -7 20 -25 0 -14 -4 -25 -10 -25 -5 0 -10 7 -10 15 0 8 -7 15 -16
15 -12 0 -15 -6 -10 -22 3 -13 6 -31 6 -40 0 -15 10 -18 61 -18 56 0 60 2 54
20 -4 11 -2 20 4 20 6 0 11 -9 11 -20 0 -32 20 -23 36 16 19 45 12 64 -23 65
-27 0 -27 1 -5 9 25 11 30 30 7 30 -8 0 -15 7 -15 15 0 8 -9 15 -20 15 -13 0
-20 -7 -20 -20 0 -11 -4 -20 -10 -20 -5 0 -10 6 -10 14 0 12 -20 26 -37 26 -3
0 -2 -11 1 -25z m56 -45 c0 -5 -8 -10 -17 -10 -15 0 -16 2 -3 10 19 12 20 12
20 0z m50 -30 c0 -5 -4 -10 -10 -10 -5 0 -10 5 -10 10 0 6 5 10 10 10 6 0 10
-4 10 -10z m-53 -6 c-3 -3 -12 -4 -19 -1 -8 3 -5 6 6 6 11 1 17 -2 13 -5z m3
-34 c0 -5 -7 -10 -16 -10 -8 0 -12 5 -9 10 3 6 10 10 16 10 5 0 9 -4 9 -10z"/>
<path d="M230 3785 c0 -30 5 -55 10 -55 6 0 10 25 10 55 0 30 -4 55 -10 55 -5
0 -10 -25 -10 -55z"/>
<path d="M244 3545 c5 -20 3 -25 -14 -25 -11 0 -20 -4 -20 -10 0 -5 9 -10 20
-10 15 0 20 -7 20 -25 0 -14 -4 -25 -10 -25 -5 0 -10 7 -10 15 0 8 -7 15 -16
15 -12 0 -15 -6 -10 -22 3 -13 6 -31 6 -40 0 -15 10 -18 61 -18 56 0 60 2 54
20 -4 11 -2 20 4 20 6 0 11 -9 11 -20 0 -32 20 -23 36 16 19 45 12 64 -23 65
-27 0 -27 1 -5 9 25 11 30 30 7 30 -8 0 -15 7 -15 15 0 8 -9 15 -20 15 -13 0
-20 -7 -20 -20 0 -11 -4 -20 -10 -20 -5 0 -10 6 -10 14 0 12 -20 26 -37 26 -3
0 -2 -11 1 -25z m56 -45 c0 -5 -8 -10 -17 -10 -15 0 -16 2 -3 10 19 12 20 12
20 0z m50 -30 c0 -5 -4 -10 -10 -10 -5 0 -10 5 -10 10 0 6 5 10 10 10 6 0 10
-4 10 -10z m-53 -6 c-3 -3 -12 -4 -19 -1 -8 3 -5 6 6 6 11 1 17 -2 13 -5z m3
-34 c0 -5 -7 -10 -16 -10 -8 0 -12 5 -9 10 3 6 10 10 16 10 5 0 9 -4 9 -10z"/>
<path d="M230 3336 c0 -63 19 -78 22 -16 0 22 1 45 2 52 1 6 -5 13 -11 16 -10
3 -13 -12 -13 -52z"/>
<path d="M270 3380 c0 -5 12 -10 26 -10 25 0 26 -2 21 -39 -6 -44 7 -75 22
-52 5 7 9 35 9 62 l0 49 -39 0 c-22 0 -39 -4 -39 -10z"/>
<path d="M244 3095 c5 -20 3 -25 -14 -25 -11 0 -20 -4 -20 -10 0 -5 9 -10 20
-10 15 0 20 -7 20 -25 0 -14 -4 -25 -10 -25 -5 0 -10 7 -10 15 0 8 -7 15 -16
15 -12 0 -15 -6 -10 -22 3 -13 6 -31 6 -40 0 -15 10 -18 61 -18 56 0 60 2 54
20 -4 11 -2 20 4 20 6 0 11 -9 11 -20 0 -32 20 -23 36 16 19 45 12 64 -23 65
-27 0 -27 1 -5 9 25 11 30 30 7 30 -8 0 -15 7 -15 15 0 8 -9 15 -20 15 -13 0
-20 -7 -20 -20 0 -11 -4 -20 -10 -20 -5 0 -10 6 -10 14 0 12 -20 26 -37 26 -3
0 -2 -11 1 -25z m56 -45 c0 -5 -8 -10 -17 -10 -15 0 -16 2 -3 10 19 12 20 12
20 0z m50 -30 c0 -5 -4 -10 -10 -10 -5 0 -10 5 -10 10 0 6 5 10 10 10 6 0 10
-4 10 -10z m-53 -6 c-3 -3 -12 -4 -19 -1 -8 3 -5 6 6 6 11 1 17 -2 13 -5z m3
-34 c0 -5 -7 -10 -16 -10 -8 0 -12 5 -9 10 3 6 10 10 16 10 5 0 9 -4 9 -10z"/>
<path d="M230 2886 c0 -63 19 -78 22 -16 0 22 1 45 2 52 1 6 -5 13 -11 16 -10
3 -13 -12 -13 -52z"/>
<path d="M270 2930 c0 -5 11 -10 25 -10 14 0 25 -4 25 -10 0 -5 -11 -10 -25
-10 -14 0 -25 -4 -25 -10 0 -5 12 -10 26 -10 20 0 24 -4 20 -17 -3 -10 -1 -25
4 -33 16 -23 28 4 28 61 l0 49 -39 0 c-22 0 -39 -4 -39 -10z"/>
<path d="M244 2645 c5 -20 3 -25 -14 -25 -11 0 -20 -4 -20 -10 0 -5 9 -10 20
-10 15 0 20 -7 20 -25 0 -14 -4 -25 -10 -25 -5 0 -10 7 -10 15 0 8 -7 15 -16
15 -12 0 -15 -6 -10 -22 3 -13 6 -31 6 -40 0 -15 10 -18 61 -18 56 0 60 2 54
20 -4 11 -2 20 4 20 6 0 11 -9 11 -20 0 -32 20 -23 36 16 19 45 12 64 -23 65
-27 0 -27 1 -5 9 25 11 30 30 7 30 -8 0 -15 7 -15 15 0 8 -9 15 -20 15 -13 0
-20 -7 -20 -20 0 -11 -4 -20 -10 -20 -5 0 -10 6 -10 14 0 12 -20 26 -37 26 -3
0 -2 -11 1 -25z m56 -45 c0 -5 -8 -10 -17 -10 -15 0 -16 2 -3 10 19 12 20 12
20 0z m50 -30 c0 -5 -4 -10 -10 -10 -5 0 -10 5 -10 10 0 6 5 10 10 10 6 0 10
-4 10 -10z m-53 -6 c-3 -3 -12 -4 -19 -1 -8 3 -5 6 6 6 11 1 17 -2 13 -5z m3
-34 c0 -5 -7 -10 -16 -10 -8 0 -12 5 -9 10 3 6 10 10 16 10 5 0 9 -4 9 -10z"/>
<path d="M230 2436 c0 -38 4 -56 13 -56 16 0 15 102 -1 108 -8 2 -12 -14 -12
-52z"/>
<path d="M270 2480 c0 -5 11 -10 25 -10 14 0 25 -4 25 -10 0 -5 -11 -10 -25
-10 -14 0 -25 -4 -25 -10 0 -5 11 -10 25 -10 14 0 25 -4 25 -10 0 -5 -11 -10
-25 -10 -14 0 -25 -4 -25 -10 0 -5 11 -10 24 -10 13 0 27 -6 29 -12 10 -25 25
13 25 63 l0 49 -39 0 c-22 0 -39 -4 -39 -10z"/>
<path d="M244 2195 c5 -20 3 -25 -14 -25 -11 0 -20 -4 -20 -10 0 -5 9 -10 20
-10 15 0 20 -7 20 -25 0 -14 -4 -25 -10 -25 -5 0 -10 7 -10 15 0 8 -7 15 -16
15 -12 0 -15 -6 -10 -22 3 -13 6 -31 6 -40 0 -15 10 -18 61 -18 56 0 60 2 54
20 -4 11 -2 20 4 20 6 0 11 -9 11 -20 0 -32 20 -23 36 16 19 45 12 64 -23 65
-27 0 -27 1 -5 9 25 11 30 30 7 30 -8 0 -15 7 -15 15 0 8 -9 15 -20 15 -13 0
-20 -7 -20 -20 0 -11 -4 -20 -10 -20 -5 0 -10 6 -10 14 0 12 -20 26 -37 26 -3
0 -2 -11 1 -25z m56 -45 c0 -5 -8 -10 -17 -10 -15 0 -16 2 -3 10 19 12 20 12
20 0z m50 -30 c0 -5 -4 -10 -10 -10 -5 0 -10 5 -10 10 0 6 5 10 10 10 6 0 10
-4 10 -10z m-53 -6 c-3 -3 -12 -4 -19 -1 -8 3 -5 6 6 6 11 1 17 -2 13 -5z m3
-34 c0 -5 -7 -10 -16 -10 -8 0 -12 5 -9 10 3 6 10 10 16 10 5 0 9 -4 9 -10z"/>
<path d="M110 2157 c0 -17 20 -37 37 -37 20 0 15 28 -6 40 -26 13 -31 13 -31
-3z"/>
<path d="M230 1986 c0 -38 4 -56 13 -56 16 0 15 102 -1 108 -8 2 -12 -14 -12
-52z"/>
<path d="M270 2030 c0 -5 11 -10 25 -10 14 0 25 -4 25 -10 0 -5 -11 -10 -25
-10 -14 0 -25 -4 -25 -10 0 -5 11 -10 25 -10 14 0 25 -4 25 -10 0 -5 -11 -10
-25 -10 -14 0 -25 -4 -25 -10 0 -5 11 -10 24 -10 13 0 27 -6 29 -12 10 -25 25
13 25 63 l0 49 -39 0 c-22 0 -39 -4 -39 -10z"/>
<path d="M244 1745 c5 -20 3 -25 -14 -25 -11 0 -20 -4 -20 -10 0 -5 9 -10 20
-10 15 0 20 -7 20 -25 0 -14 -4 -25 -10 -25 -5 0 -10 7 -10 15 0 8 -7 15 -16
15 -12 0 -15 -6 -10 -22 3 -13 6 -31 6 -40 0 -15 10 -18 61 -18 56 0 60 2 54
20 -4 11 -2 20 4 20 6 0 11 -9 11 -20 0 -32 20 -23 36 16 19 45 12 64 -23 65
-27 0 -27 1 -5 9 25 11 30 30 7 30 -8 0 -15 7 -15 15 0 8 -9 15 -20 15 -13 0
-20 -7 -20 -20 0 -11 -4 -20 -10 -20 -5 0 -10 6 -10 14 0 12 -20 26 -37 26 -3
0 -2 -11 1 -25z m56 -45 c0 -5 -8 -10 -17 -10 -15 0 -16 2 -3 10 19 12 20 12
20 0z m50 -30 c0 -5 -4 -10 -10 -10 -5 0 -10 5 -10 10 0 6 5 10 10 10 6 0 10
-4 10 -10z m-53 -6 c-3 -3 -12 -4 -19 -1 -8 3 -5 6 6 6 11 1 17 -2 13 -5z m3
-34 c0 -5 -7 -10 -16 -10 -8 0 -12 5 -9 10 3 6 10 10 16 10 5 0 9 -4 9 -10z"/>
<path d="M110 1707 c0 -17 20 -37 37 -37 20 0 15 28 -6 40 -26 13 -31 13 -31
-3z"/>
<path d="M113 1618 c-29 -14 -30 -32 -3 -25 17 4 20 2 15 -14 -8 -25 7 -24 30
1 18 20 14 50 -7 49 -7 0 -23 -5 -35 -11z"/>
<path d="M230 1536 c0 -38 4 -56 13 -56 16 0 15 102 -1 108 -8 2 -12 -14 -12
-52z"/>
<path d="M270 1580 c0 -5 11 -10 25 -10 14 0 25 -4 25 -10 0 -5 -11 -10 -25
-10 -14 0 -25 -4 -25 -10 0 -5 11 -10 25 -10 14 0 25 -4 25 -10 0 -5 -11 -10
-25 -10 -14 0 -25 -4 -25 -10 0 -5 11 -10 24 -10 13 0 27 -6 29 -12 10 -25 25
13 25 63 l0 49 -39 0 c-22 0 -39 -4 -39 -10z"/>
<path d="M244 1295 c5 -20 3 -25 -14 -25 -11 0 -20 -4 -20 -10 0 -5 9 -10 20
-10 15 0 20 -7 20 -25 0 -14 -4 -25 -10 -25 -5 0 -10 7 -10 15 0 8 -7 15 -16
15 -12 0 -15 -6 -10 -22 3 -13 6 -31 6 -40 0 -15 10 -18 61 -18 56 0 60 2 54
20 -4 11 -2 20 4 20 6 0 11 -9 11 -20 0 -32 20 -23 36 16 19 45 12 64 -23 65
-27 0 -27 1 -5 9 25 11 30 30 7 30 -8 0 -15 7 -15 15 0 8 -9 15 -20 15 -13 0
-20 -7 -20 -20 0 -11 -4 -20 -10 -20 -5 0 -10 6 -10 14 0 12 -20 26 -37 26 -3
0 -2 -11 1 -25z m56 -45 c0 -5 -8 -10 -17 -10 -15 0 -16 2 -3 10 19 12 20 12
20 0z m50 -30 c0 -5 -4 -10 -10 -10 -5 0 -10 5 -10 10 0 6 5 10 10 10 6 0 10
-4 10 -10z m-53 -6 c-3 -3 -12 -4 -19 -1 -8 3 -5 6 6 6 11 1 17 -2 13 -5z m3
-34 c0 -5 -7 -10 -16 -10 -8 0 -12 5 -9 10 3 6 10 10 16 10 5 0 9 -4 9 -10z"/>
<path d="M110 1257 c0 -17 20 -37 37 -37 20 0 15 28 -6 40 -26 13 -31 13 -31
-3z"/>
<path d="M113 1168 c-29 -14 -30 -32 -2 -25 16 4 19 2 14 -11 -6 -16 23 -82
37 -82 14 0 8 37 -7 50 -14 12 -14 15 1 31 18 20 13 49 -8 48 -7 0 -23 -5 -35
-11z"/>
<path d="M230 1086 c0 -38 4 -56 13 -56 16 0 15 102 -1 108 -8 2 -12 -14 -12
-52z"/>
<path d="M270 1130 c0 -5 11 -10 25 -10 14 0 25 -4 25 -10 0 -5 -11 -10 -25
-10 -14 0 -25 -4 -25 -10 0 -5 11 -10 25 -10 14 0 25 -4 25 -10 0 -5 -11 -10
-25 -10 -14 0 -25 -4 -25 -10 0 -5 11 -10 24 -10 13 0 27 -6 29 -12 10 -25 25
13 25 63 l0 49 -39 0 c-22 0 -39 -4 -39 -10z"/>
<path d="M244 845 c5 -20 3 -25 -14 -25 -11 0 -20 -4 -20 -10 0 -5 9 -10 20
-10 15 0 20 -7 20 -25 0 -14 -4 -25 -10 -25 -5 0 -10 7 -10 15 0 8 -7 15 -16
15 -12 0 -15 -6 -10 -22 3 -13 6 -31 6 -40 0 -15 10 -18 61 -18 56 0 60 2 54
20 -4 11 -2 20 4 20 6 0 11 -9 11 -20 0 -32 20 -23 36 16 19 45 12 64 -23 65
-27 0 -27 1 -5 9 25 11 30 30 7 30 -8 0 -15 7 -15 15 0 8 -9 15 -20 15 -13 0
-20 -7 -20 -20 0 -11 -4 -20 -10 -20 -5 0 -10 6 -10 14 0 12 -20 26 -37 26 -3
0 -2 -11 1 -25z m56 -45 c0 -5 -8 -10 -17 -10 -15 0 -16 2 -3 10 19 12 20 12
20 0z m50 -30 c0 -5 -4 -10 -10 -10 -5 0 -10 5 -10 10 0 6 5 10 10 10 6 0 10
-4 10 -10z m-53 -6 c-3 -3 -12 -4 -19 -1 -8 3 -5 6 6 6 11 1 17 -2 13 -5z m3
-34 c0 -5 -7 -10 -16 -10 -8 0 -12 5 -9 10 3 6 10 10 16 10 5 0 9 -4 9 -10z"/>
<path d="M110 807 c0 -17 20 -37 37 -37 20 0 15 28 -6 40 -26 13 -31 13 -31
-3z"/>
<path d="M113 718 c-29 -14 -30 -32 -3 -25 17 4 20 2 15 -14 -4 -10 1 -29 9
-41 22 -32 20 -36 -19 -44 -53 -10 -42 -24 18 -24 34 0 78 -10 128 -30 75 -29
78 -29 123 -14 25 9 46 20 46 25 0 5 -30 9 -67 10 -105 2 -109 4 -109 68 0 34
-5 56 -12 59 -8 2 -12 -13 -12 -51 l0 -55 -27 7 c-18 5 -29 15 -31 28 -2 12
-10 27 -18 34 -13 10 -12 14 2 30 18 20 13 49 -8 48 -7 0 -23 -5 -35 -11z"/>
<path d="M270 680 c0 -5 11 -10 25 -10 14 0 25 -4 25 -10 0 -5 -11 -10 -25
-10 -14 0 -25 -4 -25 -10 0 -5 11 -10 25 -10 14 0 25 -4 25 -10 0 -5 -11 -10
-25 -10 -14 0 -25 -4 -25 -10 0 -5 11 -10 24 -10 13 0 27 -6 29 -12 10 -25 25
13 25 63 l0 49 -39 0 c-22 0 -39 -4 -39 -10z"/>
</g>
</svg>
