<?xml version="1.0" standalone="no"?>
<!DOCTYPE svg PUBLIC "-//W3C//DTD SVG 20010904//EN"
 "http://www.w3.org/TR/2001/REC-SVG-20010904/DTD/svg10.dtd">
<svg version="1.0" xmlns="http://www.w3.org/2000/svg"
 width="95.000000pt" height="725.000000pt" viewBox="0 0 95.000000 725.000000"
 preserveAspectRatio="xMidYMid meet">
<metadata>
Created by potrace 1.16, written by Peter Selinger 2001-2019
</metadata>
<g transform="translate(0.000000,725.000000) scale(0.100000,-0.100000)"
fill="#000000" stroke="none">
<path d="M320 7160 c-8 -5 -12 -11 -10 -13 8 -8 70 5 70 14 0 12 -41 11 -60
-1z"/>
<path d="M200 7150 c0 -5 14 -10 30 -10 17 0 30 5 30 10 0 6 -13 10 -30 10
-16 0 -30 -4 -30 -10z"/>
<path d="M650 7150 c0 -5 14 -10 30 -10 17 0 30 5 30 10 0 6 -13 10 -30 10
-16 0 -30 -4 -30 -10z"/>
<path d="M340 7130 c0 -5 6 -10 14 -10 9 0 12 -7 9 -21 -4 -16 -2 -20 8 -17 8
2 15 17 17 31 3 23 0 27 -22 27 -14 0 -26 -4 -26 -10z"/>
<path d="M210 7121 c0 -5 10 -12 23 -14 l22 -4 -22 -2 c-13 0 -23 -5 -23 -11
0 -9 17 -14 48 -13 6 1 12 -3 12 -8 0 -5 -7 -9 -15 -9 -13 0 -15 -7 -9 -35 5
-29 3 -35 -11 -35 -14 0 -16 6 -11 30 5 25 2 30 -15 30 -16 0 -19 -4 -14 -20
3 -10 1 -36 -4 -57 -12 -44 -5 -56 16 -28 14 19 14 17 8 -22 -8 -49 4 -55 43
-24 27 24 28 34 2 26 -11 -4 -20 -2 -20 4 0 6 9 11 20 11 28 0 25 20 -2 21
-17 1 -19 2 -5 6 9 2 17 13 17 24 0 10 5 19 10 19 6 0 10 -7 10 -15 0 -24 67
-20 75 5 8 24 -1 40 -21 40 -11 0 -13 -6 -9 -20 4 -14 2 -20 -8 -20 -10 0 -13
7 -10 20 3 11 0 27 -7 35 -9 10 -9 15 -1 15 6 0 11 14 11 30 0 20 -5 30 -15
30 -11 0 -14 -7 -9 -25 5 -21 3 -24 -10 -19 -11 4 -15 13 -11 25 5 16 1 19
-29 19 -20 0 -36 -4 -36 -9z"/>
<path d="M180 7100 c0 -11 5 -20 10 -20 6 0 10 9 10 20 0 11 -4 20 -10 20 -5
0 -10 -9 -10 -20z"/>
<path d="M330 7100 c0 -5 5 -10 10 -10 6 0 10 5 10 10 0 6 -4 10 -10 10 -5 0
-10 -4 -10 -10z"/>
<path d="M320 7060 c0 -5 11 -10 25 -10 14 0 25 5 25 10 0 6 -11 10 -25 10
-14 0 -25 -4 -25 -10z"/>
<path d="M320 6710 c-8 -5 -12 -11 -10 -13 8 -8 70 5 70 14 0 12 -41 11 -60
-1z"/>
<path d="M200 6700 c0 -5 14 -10 30 -10 17 0 30 5 30 10 0 6 -13 10 -30 10
-16 0 -30 -4 -30 -10z"/>
<path d="M650 6700 c0 -5 14 -10 30 -10 17 0 30 5 30 10 0 6 -13 10 -30 10
-16 0 -30 -4 -30 -10z"/>
<path d="M340 6680 c0 -5 6 -10 14 -10 9 0 12 -7 9 -21 -4 -16 -2 -20 8 -17 8
2 15 17 17 31 3 23 0 27 -22 27 -14 0 -26 -4 -26 -10z"/>
<path d="M210 6671 c0 -5 10 -12 23 -14 l22 -4 -22 -2 c-13 0 -23 -5 -23 -11
0 -9 17 -14 48 -13 6 1 12 -3 12 -8 0 -5 -7 -9 -15 -9 -13 0 -15 -7 -9 -35 5
-29 3 -35 -11 -35 -14 0 -16 6 -11 30 5 25 2 30 -15 30 -16 0 -19 -4 -14 -20
3 -10 1 -36 -4 -57 -12 -44 -5 -56 16 -28 14 19 14 17 8 -22 -8 -49 4 -55 43
-24 27 24 28 34 2 26 -11 -4 -20 -2 -20 4 0 6 9 11 20 11 28 0 25 20 -2 21
-17 1 -19 2 -5 6 9 2 17 13 17 24 0 10 5 19 10 19 6 0 10 -7 10 -15 0 -24 67
-20 75 5 8 24 -1 40 -21 40 -11 0 -13 -6 -9 -20 4 -14 2 -20 -8 -20 -10 0 -13
7 -10 20 3 11 0 27 -7 35 -9 10 -9 15 -1 15 6 0 11 14 11 30 0 20 -5 30 -15
30 -11 0 -14 -7 -9 -25 5 -21 3 -24 -10 -19 -11 4 -15 13 -11 25 5 16 1 19
-29 19 -20 0 -36 -4 -36 -9z"/>
<path d="M180 6650 c0 -11 5 -20 10 -20 6 0 10 9 10 20 0 11 -4 20 -10 20 -5
0 -10 -9 -10 -20z"/>
<path d="M630 6650 c0 -11 5 -20 10 -20 6 0 10 9 10 20 0 11 -4 20 -10 20 -5
0 -10 -9 -10 -20z"/>
<path d="M330 6650 c0 -5 5 -10 10 -10 6 0 10 5 10 10 0 6 -4 10 -10 10 -5 0
-10 -4 -10 -10z"/>
<path d="M320 6610 c0 -5 11 -10 25 -10 14 0 25 5 25 10 0 6 -11 10 -25 10
-14 0 -25 -4 -25 -10z"/>
<path d="M328 6503 c-20 -5 -24 -23 -5 -23 24 0 57 12 57 21 0 9 -22 10 -52 2z"/>
<path d="M320 6260 c-8 -5 -12 -11 -10 -13 8 -8 70 5 70 14 0 12 -41 11 -60
-1z"/>
<path d="M200 6250 c0 -5 14 -10 30 -10 17 0 30 5 30 10 0 6 -13 10 -30 10
-16 0 -30 -4 -30 -10z"/>
<path d="M650 6250 c0 -5 14 -10 30 -10 17 0 30 5 30 10 0 6 -13 10 -30 10
-16 0 -30 -4 -30 -10z"/>
<path d="M340 6230 c0 -5 6 -10 14 -10 9 0 12 -7 9 -21 -4 -16 -2 -20 8 -17 8
2 15 17 17 31 3 23 0 27 -22 27 -14 0 -26 -4 -26 -10z"/>
<path d="M210 6221 c0 -5 10 -12 23 -14 l22 -4 -22 -2 c-13 0 -23 -5 -23 -11
0 -9 17 -14 48 -13 6 1 12 -3 12 -8 0 -5 -7 -9 -15 -9 -13 0 -15 -7 -9 -35 5
-29 3 -35 -11 -35 -14 0 -16 6 -11 30 5 25 2 30 -15 30 -16 0 -19 -4 -14 -20
3 -10 1 -36 -4 -57 -12 -44 -5 -56 16 -28 14 19 14 17 8 -22 -8 -49 4 -55 43
-24 27 24 28 34 2 26 -11 -4 -20 -2 -20 4 0 6 9 11 20 11 28 0 25 20 -2 21
-17 1 -19 2 -5 6 9 2 17 13 17 24 0 10 5 19 10 19 10 0 15 -34 12 -73 -4 -47
43 -76 92 -57 28 10 31 17 16 40 -9 13 -12 13 -21 -2 -12 -22 -59 -24 -59 -4
0 8 14 17 30 21 17 4 30 11 30 17 0 6 -12 8 -30 5 -22 -5 -30 -3 -30 8 0 8 9
15 19 15 20 0 37 32 26 50 -3 5 -13 10 -21 10 -11 0 -13 -6 -9 -20 4 -14 2
-20 -8 -20 -10 0 -13 7 -10 20 3 11 0 27 -7 35 -9 10 -9 15 -1 15 6 0 11 14
11 30 0 20 -5 30 -15 30 -11 0 -14 -7 -9 -25 5 -21 3 -24 -10 -19 -11 4 -15
13 -11 25 5 16 1 19 -29 19 -20 0 -36 -4 -36 -9z"/>
<path d="M660 6220 c0 -5 9 -10 19 -10 14 0 18 -5 14 -20 -8 -29 16 -25 27 6
14 35 14 34 -25 34 -19 0 -35 -4 -35 -10z"/>
<path d="M180 6200 c0 -11 5 -20 10 -20 6 0 10 9 10 20 0 11 -4 20 -10 20 -5
0 -10 -9 -10 -20z"/>
<path d="M630 6200 c0 -11 5 -20 10 -20 6 0 10 9 10 20 0 11 -4 20 -10 20 -5
0 -10 -9 -10 -20z"/>
<path d="M330 6200 c0 -5 5 -10 10 -10 6 0 10 5 10 10 0 6 -4 10 -10 10 -5 0
-10 -4 -10 -10z"/>
<path d="M320 6160 c0 -5 11 -10 25 -10 14 0 25 5 25 10 0 6 -11 10 -25 10
-14 0 -25 -4 -25 -10z"/>
<path d="M320 5810 c-8 -5 -12 -11 -10 -13 8 -8 70 5 70 14 0 12 -41 11 -60
-1z"/>
<path d="M200 5800 c0 -5 14 -10 30 -10 17 0 30 5 30 10 0 6 -13 10 -30 10
-16 0 -30 -4 -30 -10z"/>
<path d="M650 5800 c0 -5 14 -10 30 -10 17 0 30 5 30 10 0 6 -13 10 -30 10
-16 0 -30 -4 -30 -10z"/>
<path d="M340 5780 c0 -5 6 -10 14 -10 9 0 12 -7 9 -21 -4 -16 -2 -20 8 -17 8
2 15 17 17 31 3 23 0 27 -22 27 -14 0 -26 -4 -26 -10z"/>
<path d="M210 5771 c0 -5 10 -12 23 -14 l22 -4 -22 -2 c-13 0 -23 -5 -23 -11
0 -9 17 -14 48 -13 6 1 12 -3 12 -8 0 -5 -7 -9 -15 -9 -13 0 -15 -7 -9 -35 5
-29 3 -35 -11 -35 -14 0 -16 6 -11 30 5 25 2 30 -15 30 -16 0 -19 -4 -14 -20
3 -10 1 -36 -4 -57 -12 -44 -5 -56 16 -28 14 19 14 17 8 -22 -8 -49 4 -55 43
-24 27 24 28 34 2 26 -11 -4 -20 -2 -20 4 0 6 9 11 20 11 28 0 25 20 -2 21
-17 1 -19 2 -5 6 9 2 17 13 17 24 0 10 5 19 10 19 10 0 15 -34 12 -73 -4 -47
43 -76 92 -57 28 10 31 17 16 40 -9 13 -12 13 -21 -2 -12 -22 -59 -24 -59 -4
0 8 14 17 30 21 17 4 30 11 30 17 0 6 -12 8 -30 5 -22 -5 -30 -3 -30 8 0 8 9
15 19 15 20 0 37 32 26 50 -3 5 -13 10 -21 10 -11 0 -13 -6 -9 -20 4 -14 2
-20 -8 -20 -10 0 -13 7 -10 20 3 11 0 27 -7 35 -9 10 -9 15 -1 15 6 0 11 14
11 30 0 20 -5 30 -15 30 -11 0 -14 -7 -9 -25 5 -21 3 -24 -10 -19 -11 4 -15
13 -11 25 5 16 1 19 -29 19 -20 0 -36 -4 -36 -9z"/>
<path d="M660 5771 c0 -5 10 -12 23 -14 l22 -4 -22 -2 c-29 -1 -30 -17 -1 -25
26 -6 33 -1 43 32 6 20 3 22 -29 22 -20 0 -36 -4 -36 -9z"/>
<path d="M180 5750 c0 -11 5 -20 10 -20 6 0 10 9 10 20 0 11 -4 20 -10 20 -5
0 -10 -9 -10 -20z"/>
<path d="M630 5750 c0 -11 5 -20 10 -20 6 0 10 9 10 20 0 11 -4 20 -10 20 -5
0 -10 -9 -10 -20z"/>
<path d="M100 5755 c0 -3 5 -15 10 -26 14 -25 40 -25 40 1 0 11 -4 20 -9 20
-5 0 -16 3 -25 6 -9 3 -16 3 -16 -1z"/>
<path d="M330 5750 c0 -5 5 -10 10 -10 6 0 10 5 10 10 0 6 -4 10 -10 10 -5 0
-10 -4 -10 -10z"/>
<path d="M320 5710 c0 -5 11 -10 25 -10 14 0 25 5 25 10 0 6 -11 10 -25 10
-14 0 -25 -4 -25 -10z"/>
<path d="M320 5360 c-8 -5 -12 -11 -10 -13 8 -8 70 5 70 14 0 12 -41 11 -60
-1z"/>
<path d="M770 5360 c-8 -5 -12 -11 -10 -13 8 -8 70 5 70 14 0 12 -41 11 -60
-1z"/>
<path d="M200 5350 c0 -5 14 -10 30 -10 17 0 30 5 30 10 0 6 -13 10 -30 10
-16 0 -30 -4 -30 -10z"/>
<path d="M650 5350 c0 -5 14 -10 30 -10 17 0 30 5 30 10 0 6 -13 10 -30 10
-16 0 -30 -4 -30 -10z"/>
<path d="M340 5330 c0 -5 6 -10 14 -10 9 0 12 -7 9 -21 -4 -16 -2 -20 8 -17 8
2 15 17 17 31 3 23 0 27 -22 27 -14 0 -26 -4 -26 -10z"/>
<path d="M210 5321 c0 -5 10 -12 23 -14 l22 -4 -22 -2 c-13 0 -23 -5 -23 -11
0 -9 17 -14 48 -13 6 1 12 -3 12 -8 0 -5 -7 -9 -15 -9 -13 0 -15 -7 -9 -35 5
-29 3 -35 -11 -35 -14 0 -16 6 -11 30 5 25 2 30 -15 30 -16 0 -19 -4 -14 -20
3 -10 1 -36 -4 -57 -12 -44 -5 -56 16 -28 14 19 14 17 8 -22 -8 -49 4 -55 43
-24 27 24 28 34 2 26 -11 -4 -20 -2 -20 4 0 6 9 11 20 11 28 0 25 20 -2 21
-17 1 -19 2 -5 6 9 2 17 13 17 24 0 10 5 19 10 19 10 0 15 -34 12 -73 -4 -47
43 -76 92 -57 28 10 31 17 16 40 -9 13 -12 13 -21 -2 -12 -22 -59 -24 -59 -4
0 8 14 17 30 21 17 4 30 11 30 17 0 6 -12 8 -30 5 -22 -5 -30 -3 -30 8 0 8 9
15 19 15 20 0 37 32 26 50 -3 5 -13 10 -21 10 -11 0 -13 -6 -9 -20 4 -14 2
-20 -8 -20 -10 0 -13 7 -10 20 3 11 0 27 -7 35 -9 10 -9 15 -1 15 6 0 11 14
11 30 0 20 -5 30 -15 30 -11 0 -14 -7 -9 -25 5 -21 3 -24 -10 -19 -11 4 -15
13 -11 25 5 16 1 19 -29 19 -20 0 -36 -4 -36 -9z"/>
<path d="M660 5321 c0 -5 10 -12 23 -14 l22 -4 -22 -2 c-29 -1 -30 -17 -1 -25
26 -6 33 -1 43 32 6 20 3 22 -29 22 -20 0 -36 -4 -36 -9z"/>
<path d="M180 5300 c0 -11 5 -20 10 -20 6 0 10 9 10 20 0 11 -4 20 -10 20 -5
0 -10 -9 -10 -20z"/>
<path d="M630 5300 c0 -11 5 -20 10 -20 6 0 10 9 10 20 0 11 -4 20 -10 20 -5
0 -10 -9 -10 -20z"/>
<path d="M100 5305 c0 -3 5 -15 10 -26 14 -25 40 -25 40 1 0 11 -4 20 -9 20
-5 0 -16 3 -25 6 -9 3 -16 3 -16 -1z"/>
<path d="M330 5300 c0 -5 5 -10 10 -10 6 0 10 5 10 10 0 6 -4 10 -10 10 -5 0
-10 -4 -10 -10z"/>
<path d="M320 5260 c0 -5 11 -10 25 -10 14 0 25 5 25 10 0 6 -11 10 -25 10
-14 0 -25 -4 -25 -10z"/>
<path d="M108 5217 c-34 -13 -37 -31 -4 -25 17 4 23 1 19 -9 -8 -19 11 -16 31
6 32 35 7 49 -46 28z"/>
<path d="M320 4910 c-8 -5 -12 -11 -10 -13 8 -8 70 5 70 14 0 12 -41 11 -60
-1z"/>
<path d="M770 4910 c-8 -5 -12 -11 -10 -13 8 -8 70 5 70 14 0 12 -41 11 -60
-1z"/>
<path d="M200 4900 c0 -5 14 -10 30 -10 17 0 30 5 30 10 0 6 -13 10 -30 10
-16 0 -30 -4 -30 -10z"/>
<path d="M650 4900 c0 -5 14 -10 30 -10 17 0 30 5 30 10 0 6 -13 10 -30 10
-16 0 -30 -4 -30 -10z"/>
<path d="M340 4880 c0 -5 6 -10 14 -10 9 0 12 -7 9 -21 -4 -16 -2 -20 8 -17 8
2 15 17 17 31 3 23 0 27 -22 27 -14 0 -26 -4 -26 -10z"/>
<path d="M210 4871 c0 -5 10 -12 23 -14 l22 -4 -22 -2 c-13 0 -23 -5 -23 -11
0 -9 17 -14 48 -13 6 1 12 -3 12 -8 0 -5 -7 -9 -15 -9 -13 0 -15 -7 -9 -35 5
-29 3 -35 -11 -35 -14 0 -16 6 -11 30 5 25 2 30 -15 30 -16 0 -19 -4 -14 -20
3 -10 1 -36 -4 -57 -12 -44 -5 -56 16 -28 14 19 14 17 8 -22 -8 -49 4 -55 43
-24 27 24 28 34 2 26 -11 -4 -20 -2 -20 4 0 6 9 11 20 11 28 0 25 20 -2 21
-17 1 -19 2 -5 6 9 2 17 13 17 24 0 10 5 19 10 19 10 0 15 -34 12 -73 -4 -47
43 -76 92 -57 28 10 31 17 16 40 -9 13 -12 13 -21 -2 -12 -22 -59 -24 -59 -4
0 8 14 17 30 21 17 4 30 11 30 17 0 6 -12 8 -30 5 -22 -5 -30 -3 -30 8 0 8 9
15 19 15 20 0 37 32 26 50 -3 5 -13 10 -21 10 -11 0 -13 -6 -9 -20 4 -14 2
-20 -8 -20 -10 0 -13 7 -10 20 3 11 0 27 -7 35 -9 10 -9 15 -1 15 6 0 11 14
11 30 0 20 -5 30 -15 30 -11 0 -14 -7 -9 -25 5 -21 3 -24 -10 -19 -11 4 -15
13 -11 25 5 16 1 19 -29 19 -20 0 -36 -4 -36 -9z"/>
<path d="M660 4871 c0 -5 10 -12 23 -14 l22 -4 -22 -2 c-29 -1 -30 -17 -1 -25
26 -6 33 -1 43 32 6 20 3 22 -29 22 -20 0 -36 -4 -36 -9z"/>
<path d="M744 4864 c3 -9 6 -22 6 -30 0 -8 5 -14 10 -14 6 0 10 14 10 30 0 21
-5 30 -16 30 -11 0 -14 -5 -10 -16z"/>
<path d="M180 4850 c0 -11 5 -20 10 -20 6 0 10 9 10 20 0 11 -4 20 -10 20 -5
0 -10 -9 -10 -20z"/>
<path d="M630 4850 c0 -11 5 -20 10 -20 6 0 10 9 10 20 0 11 -4 20 -10 20 -5
0 -10 -9 -10 -20z"/>
<path d="M100 4855 c0 -3 5 -15 10 -26 14 -25 40 -25 40 1 0 11 -4 20 -9 20
-5 0 -16 3 -25 6 -9 3 -16 3 -16 -1z"/>
<path d="M330 4850 c0 -5 5 -10 10 -10 6 0 10 5 10 10 0 6 -4 10 -10 10 -5 0
-10 -4 -10 -10z"/>
<path d="M320 4810 c0 -5 11 -10 25 -10 14 0 25 5 25 10 0 6 -11 10 -25 10
-14 0 -25 -4 -25 -10z"/>
<path d="M108 4767 c-35 -14 -37 -31 -3 -25 13 3 22 1 19 -4 -7 -12 18 -98 28
-98 12 0 9 55 -4 68 -9 9 -7 16 6 31 32 35 7 49 -46 28z"/>
<path d="M320 4460 c-8 -5 -12 -11 -10 -13 8 -8 70 5 70 14 0 12 -41 11 -60
-1z"/>
<path d="M770 4460 c-8 -5 -12 -11 -10 -13 8 -8 70 5 70 14 0 12 -41 11 -60
-1z"/>
<path d="M200 4450 c0 -5 14 -10 30 -10 17 0 30 5 30 10 0 6 -13 10 -30 10
-16 0 -30 -4 -30 -10z"/>
<path d="M650 4450 c0 -5 14 -10 30 -10 17 0 30 5 30 10 0 6 -13 10 -30 10
-16 0 -30 -4 -30 -10z"/>
<path d="M340 4430 c0 -5 6 -10 14 -10 9 0 12 -7 9 -21 -4 -16 -2 -20 8 -17 8
2 15 17 17 31 3 23 0 27 -22 27 -14 0 -26 -4 -26 -10z"/>
<path d="M790 4430 c0 -5 6 -10 14 -10 9 0 12 -7 9 -21 -4 -16 -2 -20 8 -17 8
2 15 17 17 31 3 23 0 27 -22 27 -14 0 -26 -4 -26 -10z"/>
<path d="M210 4421 c0 -5 10 -12 23 -14 l22 -4 -22 -2 c-13 0 -23 -5 -23 -11
0 -9 17 -14 48 -13 6 1 12 -3 12 -8 0 -5 -7 -9 -15 -9 -13 0 -15 -7 -9 -35 5
-29 3 -35 -11 -35 -14 0 -16 6 -11 30 5 25 2 30 -15 30 -16 0 -19 -4 -14 -20
3 -10 1 -36 -4 -57 -12 -44 -5 -56 16 -28 15 19 15 18 9 -14 -3 -18 -6 -37 -6
-41 0 -4 -11 -5 -25 -2 -19 3 -25 10 -25 31 0 15 -5 32 -12 39 -9 9 -7 16 7
32 28 31 7 46 -39 29 -40 -14 -49 -34 -13 -27 18 3 22 -1 24 -21 1 -14 3 -37
5 -51 2 -21 -2 -26 -25 -28 -46 -5 -26 -27 21 -24 25 2 73 -7 126 -24 78 -26
88 -27 125 -14 23 7 41 16 41 20 0 4 -39 10 -86 13 -48 3 -89 9 -93 12 -3 4 4
15 17 25 27 23 28 33 2 25 -11 -4 -20 -2 -20 4 0 6 9 11 20 11 28 0 25 20 -2
21 -17 1 -19 2 -5 6 9 2 17 13 17 24 0 10 5 19 10 19 10 0 15 -34 12 -73 -4
-47 43 -76 92 -57 28 10 31 17 16 40 -9 13 -12 13 -21 -2 -12 -22 -59 -24 -59
-4 0 8 14 17 30 21 17 4 30 11 30 17 0 6 -12 8 -30 5 -22 -5 -30 -3 -30 8 0 8
9 15 19 15 20 0 37 32 26 50 -3 5 -13 10 -21 10 -11 0 -13 -6 -9 -20 4 -14 2
-20 -8 -20 -10 0 -13 7 -10 20 3 11 0 27 -7 35 -9 10 -9 15 -1 15 6 0 11 14
11 30 0 20 -5 30 -15 30 -11 0 -14 -7 -9 -25 5 -21 3 -24 -10 -19 -11 4 -15
13 -11 25 5 16 1 19 -29 19 -20 0 -36 -4 -36 -9z"/>
<path d="M660 4421 c0 -5 10 -12 23 -14 l22 -4 -22 -2 c-29 -1 -30 -17 -1 -25
26 -6 33 -1 43 32 6 20 3 22 -29 22 -20 0 -36 -4 -36 -9z"/>
<path d="M744 4414 c3 -9 6 -22 6 -30 0 -8 5 -14 10 -14 6 0 10 14 10 30 0 21
-5 30 -16 30 -11 0 -14 -5 -10 -16z"/>
<path d="M180 4400 c0 -11 5 -20 10 -20 6 0 10 9 10 20 0 11 -4 20 -10 20 -5
0 -10 -9 -10 -20z"/>
<path d="M630 4400 c0 -11 5 -20 10 -20 6 0 10 9 10 20 0 11 -4 20 -10 20 -5
0 -10 -9 -10 -20z"/>
<path d="M100 4405 c0 -3 5 -15 10 -26 14 -25 40 -25 40 1 0 11 -4 20 -9 20
-5 0 -16 3 -25 6 -9 3 -16 3 -16 -1z"/>
<path d="M330 4400 c0 -5 5 -10 10 -10 6 0 10 5 10 10 0 6 -4 10 -10 10 -5 0
-10 -4 -10 -10z"/>
<path d="M320 4360 c0 -5 11 -10 25 -10 14 0 25 5 25 10 0 6 -11 10 -25 10
-14 0 -25 -4 -25 -10z"/>
<path d="M770 4010 c-8 -5 -12 -11 -10 -13 8 -8 70 5 70 14 0 12 -41 11 -60
-1z"/>
<path d="M650 4000 c0 -5 14 -10 30 -10 17 0 30 5 30 10 0 6 -13 10 -30 10
-16 0 -30 -4 -30 -10z"/>
<path d="M790 3980 c0 -5 6 -10 14 -10 9 0 12 -7 9 -21 -4 -16 -2 -20 8 -17 8
2 15 17 17 31 3 23 0 27 -22 27 -14 0 -26 -4 -26 -10z"/>
<path d="M660 3971 c0 -5 10 -12 23 -14 l22 -4 -22 -2 c-29 -1 -30 -17 -1 -25
26 -6 33 -1 43 32 6 20 3 22 -29 22 -20 0 -36 -4 -36 -9z"/>
<path d="M744 3964 c3 -9 6 -22 6 -30 0 -8 5 -14 10 -14 6 0 10 14 10 30 0 21
-5 30 -16 30 -11 0 -14 -5 -10 -16z"/>
<path d="M630 3950 c0 -11 5 -20 10 -20 6 0 10 9 10 20 0 11 -4 20 -10 20 -5
0 -10 -9 -10 -20z"/>
<path d="M780 3950 c0 -5 5 -10 10 -10 6 0 10 5 10 10 0 6 -4 10 -10 10 -5 0
-10 -4 -10 -10z"/>
<path d="M770 3560 c-8 -5 -12 -11 -10 -13 8 -8 70 5 70 14 0 12 -41 11 -60
-1z"/>
<path d="M650 3550 c0 -5 14 -10 30 -10 17 0 30 5 30 10 0 6 -13 10 -30 10
-16 0 -30 -4 -30 -10z"/>
<path d="M790 3530 c0 -5 6 -10 14 -10 9 0 12 -7 9 -21 -4 -16 -2 -20 8 -17 8
2 15 17 17 31 3 23 0 27 -22 27 -14 0 -26 -4 -26 -10z"/>
<path d="M660 3521 c0 -5 10 -12 23 -14 l22 -4 -22 -2 c-13 0 -23 -5 -23 -11
0 -9 6 -11 43 -14 6 -1 17 -7 23 -15 10 -13 14 -13 28 1 21 21 21 68 1 68 -11
0 -14 -7 -9 -25 5 -21 3 -24 -10 -19 -11 4 -15 13 -11 25 5 16 1 19 -29 19
-20 0 -36 -4 -36 -9z"/>
<path d="M630 3500 c0 -11 5 -20 10 -20 6 0 10 9 10 20 0 11 -4 20 -10 20 -5
0 -10 -9 -10 -20z"/>
<path d="M780 3500 c0 -5 5 -10 10 -10 6 0 10 5 10 10 0 6 -4 10 -10 10 -5 0
-10 -4 -10 -10z"/>
<path d="M770 3110 c-8 -5 -12 -11 -10 -13 8 -8 70 5 70 14 0 12 -41 11 -60
-1z"/>
<path d="M650 3100 c0 -5 14 -10 30 -10 17 0 30 5 30 10 0 6 -13 10 -30 10
-16 0 -30 -4 -30 -10z"/>
<path d="M790 3080 c0 -5 6 -10 14 -10 9 0 12 -7 9 -21 -4 -16 -2 -20 8 -17 8
2 15 17 17 31 3 23 0 27 -22 27 -14 0 -26 -4 -26 -10z"/>
<path d="M660 3071 c0 -5 10 -12 23 -14 l22 -4 -22 -2 c-13 0 -23 -5 -23 -11
0 -9 17 -14 48 -13 6 1 12 -3 12 -8 0 -5 -7 -9 -15 -9 -8 0 -15 -4 -15 -10 0
-5 16 -10 36 -10 28 0 35 3 30 15 -3 8 -1 15 4 15 6 0 10 14 10 30 0 20 -5 30
-15 30 -11 0 -14 -7 -9 -25 5 -21 3 -24 -10 -19 -11 4 -15 13 -11 25 5 16 1
19 -29 19 -20 0 -36 -4 -36 -9z"/>
<path d="M630 3050 c0 -11 5 -20 10 -20 6 0 10 9 10 20 0 11 -4 20 -10 20 -5
0 -10 -9 -10 -20z"/>
<path d="M780 3050 c0 -5 5 -10 10 -10 6 0 10 5 10 10 0 6 -4 10 -10 10 -5 0
-10 -4 -10 -10z"/>
<path d="M770 3010 c0 -5 11 -10 25 -10 14 0 25 5 25 10 0 6 -11 10 -25 10
-14 0 -25 -4 -25 -10z"/>
<path d="M650 2990 c0 -5 7 -10 15 -10 8 0 15 5 15 10 0 6 -7 10 -15 10 -8 0
-15 -4 -15 -10z"/>
<path d="M770 2660 c-8 -5 -12 -11 -10 -13 8 -8 70 5 70 14 0 12 -41 11 -60
-1z"/>
<path d="M650 2650 c0 -5 14 -10 30 -10 17 0 30 5 30 10 0 6 -13 10 -30 10
-16 0 -30 -4 -30 -10z"/>
<path d="M790 2630 c0 -5 6 -10 14 -10 9 0 12 -7 9 -21 -4 -16 -2 -20 8 -17 8
2 15 17 17 31 3 23 0 27 -22 27 -14 0 -26 -4 -26 -10z"/>
<path d="M660 2621 c0 -5 10 -12 23 -14 l22 -4 -22 -2 c-13 0 -23 -5 -23 -11
0 -9 17 -14 48 -13 6 1 12 -3 12 -8 0 -5 -7 -9 -15 -9 -8 0 -15 -4 -15 -10 0
-5 16 -10 36 -10 28 0 35 3 30 15 -3 8 -1 15 4 15 6 0 10 14 10 30 0 20 -5 30
-15 30 -11 0 -14 -7 -9 -25 5 -21 3 -24 -10 -19 -11 4 -15 13 -11 25 5 16 1
19 -29 19 -20 0 -36 -4 -36 -9z"/>
<path d="M630 2600 c0 -11 5 -20 10 -20 6 0 10 9 10 20 0 11 -4 20 -10 20 -5
0 -10 -9 -10 -20z"/>
<path d="M780 2600 c0 -5 5 -10 10 -10 6 0 10 5 10 10 0 6 -4 10 -10 10 -5 0
-10 -4 -10 -10z"/>
<path d="M770 2560 c0 -5 11 -10 25 -10 14 0 25 5 25 10 0 6 -11 10 -25 10
-14 0 -25 -4 -25 -10z"/>
<path d="M644 2518 c1 -18 -3 -46 -7 -61 -6 -21 -5 -28 5 -25 12 4 19 23 31
86 5 26 3 32 -12 32 -13 0 -17 -8 -17 -32z"/>
<path d="M770 2210 c-8 -5 -12 -11 -10 -13 8 -8 70 5 70 14 0 12 -41 11 -60
-1z"/>
<path d="M650 2200 c0 -5 14 -10 30 -10 17 0 30 5 30 10 0 6 -13 10 -30 10
-16 0 -30 -4 -30 -10z"/>
<path d="M790 2180 c0 -5 6 -10 14 -10 9 0 12 -7 9 -21 -4 -16 -2 -20 8 -17 8
2 15 17 17 31 3 23 0 27 -22 27 -14 0 -26 -4 -26 -10z"/>
<path d="M660 2171 c0 -5 10 -12 23 -14 l22 -4 -22 -2 c-13 0 -23 -5 -23 -11
0 -9 17 -14 48 -13 6 1 12 -3 12 -8 0 -5 -7 -9 -15 -9 -8 0 -15 -4 -15 -10 0
-5 16 -10 36 -10 28 0 35 3 30 15 -3 8 -1 15 4 15 6 0 10 14 10 30 0 20 -5 30
-15 30 -11 0 -14 -7 -9 -25 5 -21 3 -24 -10 -19 -11 4 -15 13 -11 25 5 16 1
19 -29 19 -20 0 -36 -4 -36 -9z"/>
<path d="M630 2150 c0 -11 5 -20 10 -20 6 0 10 9 10 20 0 11 -4 20 -10 20 -5
0 -10 -9 -10 -20z"/>
<path d="M780 2150 c0 -5 5 -10 10 -10 6 0 10 5 10 10 0 6 -4 10 -10 10 -5 0
-10 -4 -10 -10z"/>
<path d="M770 2110 c0 -5 11 -10 25 -10 14 0 25 5 25 10 0 6 -11 10 -25 10
-14 0 -25 -4 -25 -10z"/>
<path d="M644 2068 c1 -18 -3 -46 -7 -61 -6 -21 -5 -28 5 -25 12 4 19 23 31
86 5 26 3 32 -12 32 -13 0 -17 -8 -17 -32z"/>
<path d="M783 2060 c0 -34 22 -41 32 -10 7 23 -1 40 -19 40 -7 0 -13 -12 -13
-30z"/>
<path d="M730 2070 c0 -5 9 -10 20 -10 11 0 20 5 20 10 0 6 -9 10 -20 10 -11
0 -20 -4 -20 -10z"/>
<path d="M770 1760 c-8 -5 -12 -11 -10 -13 8 -8 70 5 70 14 0 12 -41 11 -60
-1z"/>
<path d="M650 1750 c0 -5 14 -10 30 -10 17 0 30 5 30 10 0 6 -13 10 -30 10
-16 0 -30 -4 -30 -10z"/>
<path d="M790 1730 c0 -5 6 -10 14 -10 9 0 12 -7 9 -21 -4 -16 -2 -20 8 -17 8
2 15 17 17 31 3 23 0 27 -22 27 -14 0 -26 -4 -26 -10z"/>
<path d="M660 1721 c0 -5 10 -12 23 -14 l22 -4 -22 -2 c-13 0 -23 -5 -23 -11
0 -9 17 -14 48 -13 6 1 12 -3 12 -8 0 -5 -7 -9 -16 -9 -12 0 -15 -6 -10 -22 3
-13 6 -31 6 -40 0 -10 5 -18 10 -18 6 0 10 7 10 15 0 9 9 15 25 15 31 0 33 20
3 21 -19 1 -19 2 -5 6 11 3 16 11 13 19 -3 8 -1 14 4 14 6 0 10 14 10 30 0 20
-5 30 -15 30 -11 0 -14 -7 -9 -25 5 -21 3 -24 -10 -19 -11 4 -15 13 -11 25 5
16 1 19 -29 19 -20 0 -36 -4 -36 -9z"/>
<path d="M630 1700 c0 -11 5 -20 10 -20 6 0 10 9 10 20 0 11 -4 20 -10 20 -5
0 -10 -9 -10 -20z"/>
<path d="M780 1700 c0 -5 5 -10 10 -10 6 0 10 5 10 10 0 6 -4 10 -10 10 -5 0
-10 -4 -10 -10z"/>
<path d="M770 1660 c0 -5 11 -10 25 -10 14 0 25 5 25 10 0 6 -11 10 -25 10
-14 0 -25 -4 -25 -10z"/>
<path d="M644 1618 c1 -18 -3 -46 -7 -61 -6 -21 -5 -28 5 -25 12 4 19 23 31
86 5 26 3 32 -12 32 -13 0 -17 -8 -17 -32z"/>
<path d="M783 1610 c0 -34 22 -41 32 -10 7 23 -1 40 -19 40 -7 0 -13 -12 -13
-30z"/>
<path d="M770 1310 c-8 -5 -12 -11 -10 -13 8 -8 70 5 70 14 0 12 -41 11 -60
-1z"/>
<path d="M650 1300 c0 -5 14 -10 30 -10 17 0 30 5 30 10 0 6 -13 10 -30 10
-16 0 -30 -4 -30 -10z"/>
<path d="M790 1280 c0 -5 6 -10 14 -10 9 0 12 -7 9 -21 -4 -16 -2 -20 8 -17 8
2 15 17 17 31 3 23 0 27 -22 27 -14 0 -26 -4 -26 -10z"/>
<path d="M660 1271 c0 -5 10 -12 23 -14 l22 -4 -22 -2 c-13 0 -23 -5 -23 -11
0 -9 17 -14 48 -13 6 1 12 -3 12 -8 0 -5 -7 -9 -16 -9 -12 0 -15 -6 -10 -22 3
-13 6 -31 6 -40 0 -10 5 -18 10 -18 6 0 10 7 10 15 0 8 5 15 10 15 6 0 10 -7
10 -15 0 -27 18 -16 25 15 4 19 2 36 -5 45 -9 11 -9 15 -1 15 6 0 11 14 11 30
0 20 -5 30 -15 30 -11 0 -14 -7 -9 -25 5 -21 3 -24 -10 -19 -11 4 -15 13 -11
25 5 16 1 19 -29 19 -20 0 -36 -4 -36 -9z"/>
<path d="M630 1250 c0 -11 5 -20 10 -20 6 0 10 9 10 20 0 11 -4 20 -10 20 -5
0 -10 -9 -10 -20z"/>
<path d="M780 1250 c0 -5 5 -10 10 -10 6 0 10 5 10 10 0 6 -4 10 -10 10 -5 0
-10 -4 -10 -10z"/>
<path d="M770 1210 c0 -5 11 -10 25 -10 14 0 25 5 25 10 0 6 -11 10 -25 10
-14 0 -25 -4 -25 -10z"/>
<path d="M644 1168 c1 -18 -3 -46 -7 -61 -6 -21 -5 -28 5 -25 12 4 19 23 31
86 5 26 3 32 -12 32 -13 0 -17 -8 -17 -32z"/>
<path d="M783 1160 c0 -34 22 -41 32 -10 7 23 -1 40 -19 40 -7 0 -13 -12 -13
-30z"/>
<path d="M770 860 c-8 -5 -12 -11 -10 -13 8 -8 70 5 70 14 0 12 -41 11 -60 -1z"/>
<path d="M650 850 c0 -5 14 -10 30 -10 17 0 30 5 30 10 0 6 -13 10 -30 10 -16
0 -30 -4 -30 -10z"/>
<path d="M790 830 c0 -5 6 -10 14 -10 9 0 12 -7 9 -21 -4 -16 -2 -20 8 -17 8
2 15 17 17 31 3 23 0 27 -22 27 -14 0 -26 -4 -26 -10z"/>
<path d="M660 821 c0 -5 10 -12 23 -14 l22 -4 -22 -2 c-13 0 -23 -5 -23 -11 0
-9 17 -14 48 -13 6 1 12 -3 12 -8 0 -5 -7 -9 -15 -9 -13 0 -15 -7 -9 -35 5
-29 3 -35 -11 -35 -14 0 -16 6 -11 30 4 24 2 30 -13 30 -13 0 -17 -8 -17 -32
1 -18 -3 -45 -7 -60 -5 -19 -4 -28 4 -28 6 0 13 9 16 20 4 14 14 20 34 20 22
0 29 5 29 20 0 11 5 20 10 20 6 0 10 -7 10 -15 0 -24 67 -20 75 5 8 24 -1 40
-21 40 -11 0 -13 -6 -9 -20 4 -14 2 -20 -8 -20 -10 0 -13 7 -10 20 3 11 0 27
-7 35 -9 10 -9 15 -1 15 6 0 11 14 11 30 0 20 -5 30 -15 30 -11 0 -14 -7 -9
-25 5 -21 3 -24 -10 -19 -11 4 -15 13 -11 25 5 16 1 19 -29 19 -20 0 -36 -4
-36 -9z"/>
<path d="M630 800 c0 -11 5 -20 10 -20 6 0 10 9 10 20 0 11 -4 20 -10 20 -5 0
-10 -9 -10 -20z"/>
<path d="M780 800 c0 -5 5 -10 10 -10 6 0 10 5 10 10 0 6 -4 10 -10 10 -5 0
-10 -4 -10 -10z"/>
<path d="M770 760 c0 -5 11 -10 25 -10 14 0 25 5 25 10 0 6 -11 10 -25 10 -14
0 -25 -4 -25 -10z"/>
<path d="M770 410 c-8 -5 -12 -11 -10 -13 8 -8 70 5 70 14 0 12 -41 11 -60 -1z"/>
<path d="M650 400 c0 -5 14 -10 30 -10 17 0 30 5 30 10 0 6 -13 10 -30 10 -16
0 -30 -4 -30 -10z"/>
<path d="M790 380 c0 -5 6 -10 14 -10 9 0 12 -7 9 -21 -4 -16 -2 -20 8 -17 8
2 15 17 17 31 3 23 0 27 -22 27 -14 0 -26 -4 -26 -10z"/>
<path d="M660 371 c0 -5 10 -12 23 -14 l22 -4 -22 -2 c-13 0 -23 -5 -23 -11 0
-9 17 -14 48 -13 6 1 12 -3 12 -8 0 -5 -7 -9 -15 -9 -13 0 -15 -7 -9 -35 5
-29 3 -35 -11 -35 -14 0 -16 6 -11 30 4 24 2 30 -13 30 -13 0 -17 -8 -17 -32
1 -18 -3 -45 -7 -60 -5 -19 -4 -28 4 -28 6 0 13 9 16 20 4 14 14 20 34 20 22
0 29 5 29 20 0 11 5 20 10 20 6 0 10 -7 10 -15 0 -24 67 -20 75 5 8 24 -1 40
-21 40 -11 0 -13 -6 -9 -20 4 -14 2 -20 -8 -20 -10 0 -13 7 -10 20 3 11 0 27
-7 35 -9 10 -9 15 -1 15 6 0 11 14 11 30 0 20 -5 30 -15 30 -11 0 -14 -7 -9
-25 5 -21 3 -24 -10 -19 -11 4 -15 13 -11 25 5 16 1 19 -29 19 -20 0 -36 -4
-36 -9z"/>
<path d="M630 350 c0 -11 5 -20 10 -20 6 0 10 9 10 20 0 11 -4 20 -10 20 -5 0
-10 -9 -10 -20z"/>
<path d="M780 350 c0 -5 5 -10 10 -10 6 0 10 5 10 10 0 6 -4 10 -10 10 -5 0
-10 -4 -10 -10z"/>
<path d="M770 310 c0 -5 11 -10 25 -10 14 0 25 5 25 10 0 6 -11 10 -25 10 -14
0 -25 -4 -25 -10z"/>
<path d="M690 200 c0 -5 9 -10 20 -10 11 0 20 5 20 10 0 6 -9 10 -20 10 -11 0
-20 -4 -20 -10z"/>
</g>
</svg>
