<?xml version="1.0" standalone="no"?>
<!DOCTYPE svg PUBLIC "-//W3C//DTD SVG 20010904//EN"
 "http://www.w3.org/TR/2001/REC-SVG-20010904/DTD/svg10.dtd">
<svg version="1.0" xmlns="http://www.w3.org/2000/svg"
 width="50.000000pt" height="725.000000pt" viewBox="0 0 50.000000 725.000000"
 preserveAspectRatio="xMidYMid meet">
<metadata>
Created by potrace 1.16, written by Peter Selinger 2001-2019
</metadata>
<g transform="translate(0.000000,725.000000) scale(0.100000,-0.100000)"
fill="#000000" stroke="none">
<path d="M235 7121 c-11 -5 -44 -12 -72 -16 -59 -8 -72 -25 -20 -25 46 0 147
21 147 30 0 6 -27 22 -33 19 -1 0 -11 -4 -22 -8z"/>
<path d="M180 6692 c0 -30 -14 -42 -51 -42 -10 0 -19 -4 -19 -10 0 -5 14 -10
30 -10 30 0 30 0 16 -29 -9 -16 -27 -43 -42 -60 -15 -18 -24 -35 -21 -38 14
-13 59 31 84 82 24 50 29 54 70 60 23 3 43 10 43 15 0 14 -29 20 -54 10 -22
-8 -24 -7 -23 18 1 18 -4 27 -15 30 -14 3 -18 -3 -18 -26z"/>
<path d="M180 6242 c0 -30 -14 -42 -51 -42 -10 0 -19 -4 -19 -10 0 -5 14 -10
30 -10 30 0 30 0 16 -29 -9 -16 -27 -43 -42 -60 -33 -39 -24 -52 16 -22 30 22
30 22 30 1 0 -12 -7 -35 -16 -51 -17 -34 -12 -48 11 -29 19 16 35 73 35 130 0
58 6 66 58 75 23 4 42 10 42 15 0 14 -29 20 -54 10 -22 -8 -24 -7 -23 18 1 18
-4 27 -15 30 -14 3 -18 -3 -18 -26z"/>
<path d="M180 5792 c0 -30 -14 -42 -51 -42 -10 0 -19 -4 -19 -10 0 -5 14 -10
30 -10 30 0 30 0 16 -29 -9 -16 -27 -43 -42 -60 -33 -39 -24 -52 16 -22 30 22
30 22 30 1 0 -12 -7 -35 -16 -51 -17 -34 -12 -48 11 -29 17 14 35 72 35 111 0
24 15 39 40 39 11 0 20 -65 13 -105 -3 -21 -11 -35 -20 -35 -18 0 -12 -20 10
-34 27 -17 35 3 38 99 l3 90 -42 -1 c-23 0 -42 2 -42 5 1 18 20 29 58 36 23 4
42 10 42 15 0 14 -29 20 -54 10 -22 -8 -24 -7 -23 18 1 18 -4 27 -15 30 -14 3
-18 -3 -18 -26z"/>
<path d="M180 5342 c0 -30 -14 -42 -51 -42 -10 0 -19 -4 -19 -10 0 -5 14 -10
30 -10 30 0 30 0 16 -29 -9 -16 -27 -43 -42 -60 -33 -39 -24 -52 16 -22 30 22
30 22 30 1 0 -12 -7 -35 -16 -51 -8 -17 -13 -33 -10 -36 12 -12 37 22 47 63
10 40 14 44 41 44 29 0 30 -2 24 -31 -3 -17 -6 -38 -6 -45 0 -8 -7 -14 -16
-14 -19 0 -14 -20 9 -34 27 -17 35 3 38 99 l3 90 -42 -1 c-23 0 -42 2 -42 5 1
18 20 29 58 36 23 4 42 10 42 15 0 14 -29 20 -54 10 -22 -8 -24 -7 -23 18 1
18 -4 27 -15 30 -14 3 -18 -3 -18 -26z m60 -111 c0 -12 -39 -25 -48 -16 -7 7
17 25 36 25 6 0 12 -4 12 -9z"/>
<path d="M180 4892 c0 -30 -14 -42 -51 -42 -10 0 -19 -4 -19 -10 0 -5 14 -10
30 -10 30 0 30 0 16 -29 -9 -16 -27 -43 -42 -60 -33 -39 -24 -52 16 -22 30 22
30 22 30 1 0 -12 -7 -35 -16 -51 -8 -17 -13 -34 -9 -37 8 -9 45 36 45 54 0 9
11 14 30 14 25 0 30 -4 30 -25 0 -16 -6 -25 -16 -25 -19 0 -14 -20 9 -34 27
-17 35 3 38 99 l3 90 -42 -1 c-23 0 -42 2 -42 5 1 18 20 29 58 36 23 4 42 10
42 15 0 14 -29 20 -54 10 -22 -8 -24 -7 -23 18 1 18 -4 27 -15 30 -14 3 -18
-3 -18 -26z m60 -111 c0 -12 -39 -25 -48 -16 -7 7 17 25 36 25 6 0 12 -4 12
-9z m-5 -51 c-28 -12 -45 -12 -45 0 0 6 15 10 33 9 27 0 29 -2 12 -9z"/>
<path d="M180 4442 c0 -30 -14 -42 -51 -42 -10 0 -19 -4 -19 -10 0 -5 14 -10
30 -10 30 0 30 0 16 -29 -9 -16 -27 -43 -42 -60 -33 -39 -24 -52 16 -22 30 22
30 22 30 1 0 -12 -7 -35 -16 -51 -8 -17 -13 -34 -9 -37 8 -9 45 36 45 54 0 9
11 14 30 14 25 0 30 -4 30 -25 0 -16 -6 -25 -16 -25 -19 0 -14 -20 9 -34 27
-17 35 3 38 99 l3 90 -42 -1 c-23 0 -42 2 -42 5 1 18 20 29 58 36 23 4 42 10
42 15 0 14 -29 20 -54 10 -22 -8 -24 -7 -23 18 1 18 -4 27 -15 30 -14 3 -18
-3 -18 -26z m60 -111 c0 -12 -39 -25 -48 -16 -7 7 17 25 36 25 6 0 12 -4 12
-9z m-5 -51 c-28 -12 -45 -12 -45 0 0 6 15 10 33 9 27 0 29 -2 12 -9z"/>
<path d="M358 4433 c-25 -6 -23 -23 2 -23 17 0 19 -5 14 -25 -4 -15 -2 -25 4
-25 15 0 54 58 47 70 -6 10 -35 11 -67 3z"/>
<path d="M180 3992 c0 -30 -14 -42 -51 -42 -10 0 -19 -4 -19 -10 0 -5 14 -10
30 -10 30 0 30 0 16 -29 -9 -16 -27 -43 -42 -60 -33 -39 -24 -52 16 -22 30 22
30 22 30 1 0 -12 -7 -35 -16 -51 -8 -17 -13 -34 -9 -37 8 -9 45 36 45 54 0 9
11 14 30 14 25 0 30 -4 30 -25 0 -16 -6 -25 -16 -25 -19 0 -14 -20 9 -34 27
-17 35 3 38 99 l3 90 -42 -1 c-23 0 -42 2 -42 5 1 18 20 29 58 36 23 4 42 10
42 15 0 14 -29 20 -54 10 -22 -8 -24 -7 -23 18 1 18 -4 27 -15 30 -14 3 -18
-3 -18 -26z m60 -111 c0 -12 -39 -25 -48 -16 -7 7 17 25 36 25 6 0 12 -4 12
-9z m-5 -51 c-28 -12 -45 -12 -45 0 0 6 15 10 33 9 27 0 29 -2 12 -9z"/>
<path d="M358 3983 c-24 -6 -23 -23 2 -23 23 0 23 0 10 -36 -8 -20 -7 -31 4
-43 8 -9 16 -25 18 -36 2 -16 -2 -19 -19 -18 -13 2 -23 0 -23 -3 0 -10 44 -43
57 -44 22 0 27 50 10 86 -9 19 -21 34 -27 34 -6 0 1 16 15 35 15 19 24 39 20
45 -6 10 -35 12 -67 3z"/>
<path d="M180 3542 c0 -30 -14 -42 -51 -42 -10 0 -19 -4 -19 -10 0 -5 14 -10
30 -10 30 0 30 0 16 -29 -9 -16 -27 -43 -42 -60 -33 -39 -24 -52 16 -22 30 22
30 22 30 1 0 -12 -7 -35 -16 -51 -8 -17 -13 -34 -9 -37 8 -9 45 36 45 54 0 9
11 14 30 14 25 0 30 -4 30 -25 0 -16 -6 -25 -16 -25 -19 0 -14 -20 9 -34 27
-17 35 3 38 99 l3 90 -42 -1 c-23 0 -42 2 -42 5 1 18 20 29 58 36 23 4 42 10
42 15 0 14 -29 20 -54 10 -22 -8 -24 -7 -23 18 1 18 -4 27 -15 30 -14 3 -18
-3 -18 -26z m60 -111 c0 -12 -39 -25 -48 -16 -7 7 17 25 36 25 6 0 12 -4 12
-9z m-5 -51 c-28 -12 -45 -12 -45 0 0 6 15 10 33 9 27 0 29 -2 12 -9z"/>
<path d="M367 3533 c-4 -3 -19 -6 -35 -5 l-28 1 -3 -155 c-1 -90 2 -154 7
-154 16 0 22 40 22 152 0 120 4 138 31 138 22 0 22 0 9 -36 -8 -20 -7 -31 4
-43 8 -9 16 -25 18 -36 2 -16 -2 -19 -19 -18 -13 2 -23 0 -23 -3 0 -10 44 -43
57 -44 22 0 27 50 10 86 -9 19 -21 34 -27 34 -6 0 1 16 15 35 15 19 24 39 20
45 -7 11 -48 14 -58 3z"/>
</g>
</svg>
