<?xml version="1.0" standalone="no"?>
<!DOCTYPE svg PUBLIC "-//W3C//DTD SVG 20010904//EN"
 "http://www.w3.org/TR/2001/REC-SVG-20010904/DTD/svg10.dtd">
<svg version="1.0" xmlns="http://www.w3.org/2000/svg"
 width="50.000000pt" height="725.000000pt" viewBox="0 0 50.000000 725.000000"
 preserveAspectRatio="xMidYMid meet">
<metadata>
Created by potrace 1.16, written by Peter Selinger 2001-2019
</metadata>
<g transform="translate(0.000000,725.000000) scale(0.100000,-0.100000)"
fill="#000000" stroke="none">
<path d="M211 7150 c-13 -11 -29 -20 -37 -20 -8 0 -14 -4 -14 -10 0 -13 14
-13 62 2 25 7 38 17 36 26 -4 23 -20 23 -47 2z"/>
<path d="M211 6700 c-13 -11 -29 -20 -37 -20 -8 0 -14 -4 -14 -10 0 -13 14
-13 62 2 25 7 38 17 36 26 -4 23 -20 23 -47 2z"/>
<path d="M167 6635 c-37 -7 -70 -15 -74 -19 -15 -15 10 -18 69 -8 35 6 80 14
101 17 20 3 37 10 37 15 0 13 -46 11 -133 -5z"/>
<path d="M211 6250 c-13 -11 -29 -20 -37 -20 -8 0 -14 -4 -14 -10 0 -5 7 -10
16 -10 25 0 10 -25 -17 -28 -48 -5 -69 -13 -69 -23 0 -7 17 -9 50 -4 l50 7 0
-82 c0 -61 3 -81 13 -78 8 3 13 32 15 85 l3 81 39 6 c53 8 53 29 0 24 -29 -2
-40 0 -40 10 0 8 9 16 20 19 12 3 20 12 18 21 -4 23 -20 24 -47 2z"/>
<path d="M211 5800 c-13 -11 -29 -20 -37 -20 -8 0 -14 -4 -14 -10 0 -5 7 -10
16 -10 25 0 10 -25 -17 -28 -47 -5 -69 -12 -69 -22 0 -6 8 -10 19 -10 14 0 22
-12 30 -45 6 -25 16 -45 21 -45 13 0 1 83 -14 92 -6 4 1 8 17 8 l27 0 0 -81
c0 -60 3 -80 13 -77 8 3 13 32 15 85 l3 81 39 6 c53 8 53 29 0 24 -29 -2 -40
0 -40 10 0 8 9 16 20 19 12 3 20 12 18 21 -4 23 -20 24 -47 2z"/>
<path d="M211 5350 c-13 -11 -29 -20 -37 -20 -8 0 -14 -4 -14 -10 0 -5 7 -10
16 -10 25 0 10 -25 -17 -28 -47 -5 -69 -12 -69 -22 0 -6 9 -10 20 -10 13 0 20
-7 20 -20 0 -13 -7 -20 -20 -20 -11 0 -20 -4 -20 -9 0 -12 29 -23 41 -15 5 3
12 -2 15 -10 3 -9 10 -16 15 -16 14 0 2 82 -13 92 -9 5 -4 8 15 8 l27 0 0 -81
c0 -60 3 -80 13 -77 8 3 13 32 15 85 l3 81 39 6 c53 8 53 29 0 24 -29 -2 -40
0 -40 10 0 8 9 16 20 19 12 3 20 12 18 21 -4 23 -20 24 -47 2z"/>
<path d="M211 4900 c-13 -11 -29 -20 -37 -20 -8 0 -14 -4 -14 -10 0 -5 7 -10
16 -10 25 0 10 -25 -17 -28 -47 -5 -69 -12 -69 -22 0 -6 9 -10 20 -10 13 0 20
-7 20 -20 0 -13 -7 -20 -20 -20 -11 0 -20 -4 -20 -9 0 -12 29 -23 41 -15 5 3
12 -2 15 -10 3 -9 10 -16 15 -16 14 0 2 82 -13 92 -9 5 -4 8 15 8 l27 0 0 -81
c0 -60 3 -80 13 -77 8 3 13 32 15 85 l3 81 39 6 c53 8 53 29 0 24 -29 -2 -40
0 -40 10 0 8 9 16 20 19 12 3 20 12 18 21 -4 23 -20 24 -47 2z"/>
<path d="M240 4780 c0 -5 14 -10 30 -10 17 0 30 5 30 10 0 6 -13 10 -30 10
-16 0 -30 -4 -30 -10z"/>
<path d="M211 4450 c-13 -11 -29 -20 -37 -20 -8 0 -14 -4 -14 -10 0 -5 7 -10
16 -10 25 0 10 -25 -17 -28 -47 -5 -69 -12 -69 -22 0 -6 9 -10 20 -10 13 0 20
-7 20 -20 0 -13 -7 -20 -20 -20 -11 0 -20 -4 -20 -9 0 -12 29 -23 41 -15 5 3
12 -2 15 -10 3 -9 10 -16 15 -16 14 0 2 82 -13 92 -9 5 -4 8 15 8 l27 0 0 -81
c0 -60 3 -80 13 -77 8 3 13 32 15 86 2 64 6 82 18 82 11 0 13 -9 8 -40 -6 -39
7 -57 20 -25 3 8 12 15 21 15 19 0 19 7 0 26 -8 9 -15 20 -15 25 0 5 7 9 15 9
8 0 15 5 15 11 0 7 -15 10 -40 7 -29 -2 -40 0 -40 10 0 8 9 16 20 19 12 3 20
12 18 21 -4 23 -20 24 -47 2z"/>
<path d="M211 4000 c-13 -11 -29 -20 -37 -20 -8 0 -14 -4 -14 -10 0 -5 7 -10
16 -10 25 0 10 -25 -17 -28 -47 -5 -69 -12 -69 -22 0 -6 9 -10 20 -10 13 0 20
-7 20 -20 0 -13 -7 -20 -20 -20 -11 0 -20 -4 -20 -9 0 -11 29 -23 40 -16 14 9
23 -16 11 -28 -20 -20 -12 -29 19 -22 26 6 30 4 30 -15 0 -27 24 -21 28 7 2
13 13 24 28 27 32 8 31 30 -1 24 -24 -5 -25 -3 -25 43 0 37 4 49 15 49 12 0
14 -8 9 -40 -6 -39 7 -57 20 -25 3 8 12 15 21 15 19 0 19 7 0 26 -8 9 -15 20
-15 25 0 5 7 9 15 9 8 0 15 5 15 11 0 7 -15 10 -40 7 -29 -2 -40 0 -40 10 0 8
9 16 20 19 12 3 20 12 18 21 -4 23 -20 24 -47 2z m-21 -140 c0 -27 -4 -50 -10
-50 -5 0 -10 6 -11 13 -2 43 -10 71 -21 78 -9 6 -4 9 15 9 26 0 27 -2 27 -50z"/>
<path d="M211 3550 c-13 -11 -29 -20 -37 -20 -8 0 -14 -4 -14 -10 0 -5 7 -10
16 -10 25 0 10 -25 -17 -28 -47 -5 -69 -12 -69 -22 0 -6 9 -10 20 -10 13 0 20
-7 20 -20 0 -13 -7 -20 -20 -20 -11 0 -20 -4 -20 -9 0 -11 29 -23 40 -16 14 9
23 -16 11 -28 -20 -20 -12 -29 19 -22 23 5 30 3 30 -8 0 -10 -14 -18 -40 -22
-39 -7 -50 -18 -31 -30 13 -7 161 36 161 48 0 5 -13 6 -30 2 -38 -8 -43 20 -5
29 14 4 25 11 25 17 0 7 -11 9 -25 7 -24 -5 -25 -3 -25 43 0 37 4 49 15 49 12
0 14 -8 9 -40 -6 -39 7 -57 20 -25 3 8 12 15 21 15 19 0 19 7 0 26 -8 9 -15
20 -15 25 0 5 7 9 15 9 8 0 15 5 15 11 0 7 -15 10 -40 7 -29 -2 -40 0 -40 10
0 8 9 16 20 19 12 3 20 12 18 21 -4 23 -20 24 -47 2z m-21 -140 c0 -27 -4 -50
-10 -50 -5 0 -10 6 -11 13 -2 43 -10 71 -21 78 -9 6 -4 9 15 9 26 0 27 -2 27
-50z"/>
<path d="M211 3100 c-13 -11 -29 -20 -37 -20 -8 0 -14 -4 -14 -10 0 -5 7 -10
16 -10 25 0 10 -25 -17 -28 -47 -5 -69 -12 -69 -22 0 -6 9 -10 20 -10 13 0 20
-7 20 -20 0 -13 -7 -20 -20 -20 -11 0 -20 -4 -20 -9 0 -11 29 -23 40 -16 14 9
23 -16 11 -28 -20 -20 -12 -29 19 -22 23 5 30 3 30 -8 0 -10 -14 -18 -40 -22
-39 -7 -50 -18 -31 -30 13 -7 161 36 161 48 0 5 -13 6 -30 2 -38 -8 -43 20 -5
29 14 4 25 11 25 17 0 7 -11 9 -25 7 -24 -5 -25 -3 -25 43 0 37 4 49 15 49 12
0 14 -8 9 -40 -6 -39 7 -57 20 -25 3 8 12 15 21 15 19 0 19 7 0 26 -8 9 -15
20 -15 25 0 5 7 9 15 9 8 0 15 5 15 11 0 7 -15 10 -40 7 -29 -2 -40 0 -40 10
0 8 9 16 20 19 12 3 20 12 18 21 -4 23 -20 24 -47 2z m-21 -140 c0 -27 -4 -50
-10 -50 -5 0 -10 6 -11 13 -2 43 -10 71 -21 78 -9 6 -4 9 15 9 26 0 27 -2 27
-50z"/>
<path d="M358 3078 c-36 -13 -37 -32 -2 -24 20 5 25 4 22 -6 -27 -70 -14 -78
27 -17 21 33 24 43 13 50 -16 11 -25 10 -60 -3z"/>
<path d="M211 2650 c-13 -11 -29 -20 -37 -20 -8 0 -14 -4 -14 -10 0 -5 7 -10
16 -10 25 0 10 -25 -17 -28 -47 -5 -69 -12 -69 -22 0 -6 9 -10 20 -10 13 0 20
-7 20 -20 0 -13 -7 -20 -20 -20 -11 0 -20 -4 -20 -9 0 -11 29 -23 40 -16 14 9
23 -16 11 -28 -20 -20 -12 -29 19 -22 23 5 30 3 30 -8 0 -10 -14 -18 -40 -22
-39 -7 -50 -18 -31 -30 13 -7 161 36 161 48 0 5 -13 6 -30 2 -38 -8 -43 20 -5
29 14 4 25 11 25 17 0 7 -11 9 -25 7 -24 -5 -25 -3 -25 43 0 37 4 49 15 49 12
0 14 -8 9 -40 -6 -39 7 -57 20 -25 3 8 12 15 21 15 19 0 19 7 0 26 -8 9 -15
20 -15 25 0 5 7 9 15 9 8 0 15 5 15 11 0 7 -15 10 -40 7 -29 -2 -40 0 -40 10
0 8 9 16 20 19 12 3 20 12 18 21 -4 23 -20 24 -47 2z m-21 -140 c0 -27 -4 -50
-10 -50 -5 0 -10 6 -11 13 -2 43 -10 71 -21 78 -9 6 -4 9 15 9 26 0 27 -2 27
-50z"/>
<path d="M358 2628 c-35 -12 -37 -32 -3 -24 28 7 29 7 15 -29 -8 -20 -6 -32 5
-48 22 -32 20 -60 -5 -52 -26 8 -25 -2 3 -26 30 -25 45 -24 53 7 6 24 -2 50
-28 85 -9 13 -7 23 12 49 19 26 20 34 9 41 -17 11 -26 10 -61 -3z"/>
<path d="M211 2200 c-13 -11 -29 -20 -37 -20 -8 0 -14 -4 -14 -10 0 -5 7 -10
16 -10 25 0 10 -25 -17 -28 -47 -5 -69 -12 -69 -22 0 -6 9 -10 20 -10 13 0 20
-7 20 -20 0 -13 -7 -20 -20 -20 -11 0 -20 -4 -20 -9 0 -11 29 -23 40 -16 14 9
23 -16 11 -28 -20 -20 -12 -29 19 -22 23 5 30 3 30 -8 0 -10 -14 -18 -40 -22
-39 -7 -50 -18 -31 -30 13 -7 161 36 161 48 0 5 -13 6 -30 2 -38 -8 -43 20 -5
29 14 4 25 11 25 17 0 7 -11 9 -25 7 -24 -5 -25 -3 -25 43 0 37 4 49 15 49 12
0 14 -8 9 -40 -6 -39 7 -57 20 -25 3 8 12 15 21 15 19 0 19 7 0 26 -8 9 -15
20 -15 25 0 5 7 9 15 9 8 0 15 5 15 11 0 7 -15 10 -40 7 -29 -2 -40 0 -40 10
0 8 9 16 20 19 12 3 20 12 18 21 -4 23 -20 24 -47 2z m-21 -140 c0 -27 -4 -50
-10 -50 -5 0 -10 6 -11 13 -2 43 -10 71 -21 78 -9 6 -4 9 15 9 26 0 27 -2 27
-50z"/>
<path d="M348 2177 l-38 -11 0 -143 c0 -79 4 -143 9 -143 8 0 21 139 21 225 0
31 5 45 16 49 23 9 26 3 14 -28 -8 -21 -7 -32 5 -49 22 -32 20 -60 -5 -52 -26
8 -25 -2 3 -26 30 -25 45 -24 53 7 6 24 -2 50 -28 85 -9 13 -7 23 12 49 19 26
20 34 9 41 -16 10 -22 10 -71 -4z"/>
</g>
</svg>
