<?xml version="1.0" standalone="no"?>
<!DOCTYPE svg PUBLIC "-//W3C//DTD SVG 20010904//EN"
 "http://www.w3.org/TR/2001/REC-SVG-20010904/DTD/svg10.dtd">
<svg version="1.0" xmlns="http://www.w3.org/2000/svg"
 width="50.000000pt" height="725.000000pt" viewBox="0 0 50.000000 725.000000"
 preserveAspectRatio="xMidYMid meet">
<metadata>
Created by potrace 1.16, written by Peter Selinger 2001-2019
</metadata>
<g transform="translate(0.000000,725.000000) scale(0.100000,-0.100000)"
fill="#000000" stroke="none">
<path d="M170 7166 c0 -7 -7 -19 -15 -26 -8 -7 -15 -16 -15 -21 0 -17 27 -9
50 17 21 21 22 27 10 34 -21 13 -30 12 -30 -4z"/>
<path d="M170 6716 c0 -8 -10 -23 -22 -33 -20 -15 -23 -29 -25 -95 -2 -57 1
-78 10 -78 9 0 13 22 15 70 2 65 4 72 34 100 28 25 31 31 18 40 -21 14 -30 12
-30 -4z"/>
<path d="M170 6266 c0 -8 -10 -23 -22 -33 -20 -15 -23 -29 -25 -95 -2 -57 1
-78 10 -78 9 0 13 21 15 66 1 37 3 68 4 69 2 1 18 5 36 8 30 6 32 5 26 -18 -8
-31 11 -33 26 -4 18 33 5 52 -32 45 -31 -6 -31 -6 -13 15 17 17 17 22 5 29
-21 14 -30 12 -30 -4z"/>
<path d="M170 5816 c0 -8 -10 -23 -22 -33 -20 -15 -23 -29 -25 -95 -2 -66 0
-78 13 -78 12 0 15 6 11 22 -11 41 2 68 34 68 33 0 72 33 67 58 -3 12 -13 17
-37 15 -32 -1 -32 -1 -15 19 16 16 16 21 4 28 -21 14 -30 12 -30 -4z m50 -66
c0 -12 -33 -30 -54 -30 -28 0 -17 28 12 33 15 2 30 5 35 6 4 0 7 -3 7 -9z"/>
<path d="M170 5366 c0 -8 -10 -23 -22 -33 -20 -15 -23 -29 -25 -95 -2 -64 0
-78 13 -78 10 0 14 8 12 22 -3 20 3 24 45 31 61 12 63 32 2 23 -29 -5 -45 -4
-45 3 0 6 14 11 30 11 34 0 73 33 68 58 -3 12 -13 17 -37 15 -32 -1 -32 -1
-15 19 16 16 16 21 4 28 -21 14 -30 12 -30 -4z m50 -66 c0 -12 -33 -30 -54
-30 -28 0 -17 28 12 33 15 2 30 5 35 6 4 0 7 -3 7 -9z"/>
<path d="M170 4916 c0 -8 -10 -23 -22 -33 -20 -16 -23 -29 -25 -97 -2 -77 -2
-78 20 -71 12 3 41 9 65 12 l42 6 0 -34 c0 -43 -12 -61 -33 -53 -20 7 -21 -4
-3 -28 29 -39 60 -4 71 78 8 62 -1 68 -76 54 -64 -12 -72 -12 -65 -1 3 5 26
12 51 15 25 4 45 12 45 18 0 7 -16 8 -45 4 -29 -5 -45 -4 -45 3 0 6 14 11 30
11 34 0 73 33 68 58 -3 12 -13 17 -37 15 -32 -1 -32 -1 -15 19 16 16 16 21 4
28 -21 14 -30 12 -30 -4z m50 -66 c0 -12 -33 -30 -54 -30 -28 0 -17 28 12 33
15 2 30 5 35 6 4 0 7 -3 7 -9z"/>
<path d="M170 4466 c0 -8 -10 -23 -22 -33 -20 -16 -23 -29 -25 -97 -2 -77 -2
-78 20 -71 12 3 41 9 65 12 l42 6 0 -34 c0 -43 -12 -61 -33 -53 -20 7 -21 -4
-3 -28 29 -39 60 -4 71 78 8 62 -1 68 -76 54 -64 -12 -72 -12 -65 -1 3 5 26
12 51 15 25 4 45 12 45 18 0 7 -16 8 -45 4 -29 -5 -45 -4 -45 3 0 6 14 11 30
11 34 0 73 33 68 58 -3 12 -13 17 -37 15 -32 -1 -32 -1 -15 19 16 16 16 21 4
28 -21 14 -30 12 -30 -4z m50 -66 c0 -12 -33 -30 -54 -30 -28 0 -17 28 12 33
15 2 30 5 35 6 4 0 7 -3 7 -9z"/>
<path d="M84 4225 c-7 -29 -1 -41 15 -30 14 8 14 55 1 55 -5 0 -12 -11 -16
-25z"/>
<path d="M170 4016 c0 -8 -10 -23 -22 -33 -20 -16 -23 -29 -25 -97 -2 -77 -2
-78 20 -71 12 3 41 9 65 12 l42 6 0 -34 c0 -43 -12 -61 -33 -53 -20 7 -21 -4
-3 -28 29 -39 60 -4 71 78 8 62 -1 68 -76 54 -64 -12 -72 -12 -65 -1 3 5 26
12 51 15 25 4 45 12 45 18 0 7 -16 8 -45 4 -29 -5 -45 -4 -45 3 0 6 14 11 30
11 34 0 73 33 68 58 -3 12 -13 17 -37 15 -32 -1 -32 -1 -15 19 16 16 16 21 4
28 -21 14 -30 12 -30 -4z m50 -66 c0 -12 -33 -30 -54 -30 -28 0 -17 28 12 33
15 2 30 5 35 6 4 0 7 -3 7 -9z"/>
<path d="M84 3775 c-7 -29 -1 -41 15 -30 14 8 14 55 1 55 -5 0 -12 -11 -16
-25z"/>
<path d="M120 3791 c0 -21 13 -41 26 -41 17 0 18 22 2 38 -14 14 -28 16 -28 3z"/>
<path d="M170 3566 c0 -8 -10 -23 -22 -33 -20 -16 -23 -29 -25 -97 -2 -77 -2
-78 20 -71 12 3 41 9 65 12 l42 6 0 -34 c0 -43 -12 -61 -33 -53 -20 7 -21 -4
-3 -28 29 -39 60 -4 71 78 8 62 -1 68 -76 54 -64 -12 -72 -12 -65 -1 3 5 26
12 51 15 25 4 45 12 45 18 0 7 -16 8 -45 4 -29 -5 -45 -4 -45 3 0 6 14 11 30
11 34 0 73 33 68 58 -3 12 -13 17 -37 15 -32 -1 -32 -1 -15 19 16 16 16 21 4
28 -21 14 -30 12 -30 -4z m50 -66 c0 -12 -33 -30 -54 -30 -28 0 -17 28 12 33
15 2 30 5 35 6 4 0 7 -3 7 -9z"/>
<path d="M154 3344 c5 -14 4 -15 -9 -4 -20 16 -29 8 -20 -19 6 -21 35 -30 35
-11 0 5 7 7 15 4 10 -4 15 0 15 14 0 11 -7 23 -16 26 -24 9 -27 8 -20 -10z"/>
<path d="M84 3325 c-7 -29 -1 -41 15 -30 14 8 14 55 1 55 -5 0 -12 -11 -16
-25z"/>
<path d="M170 3116 c0 -8 -10 -23 -22 -33 -20 -16 -23 -29 -25 -97 -2 -77 -2
-78 20 -71 12 3 41 9 65 12 l42 6 0 -34 c0 -43 -12 -61 -33 -53 -20 7 -21 -4
-3 -28 29 -39 60 -4 71 78 8 62 -1 68 -76 54 -64 -12 -72 -12 -65 -1 3 5 26
12 51 15 25 4 45 12 45 18 0 7 -16 8 -45 4 -29 -5 -45 -4 -45 3 0 6 14 11 30
11 34 0 73 33 68 58 -3 12 -13 17 -37 15 -32 -1 -32 -1 -15 19 16 16 16 21 4
28 -21 14 -30 12 -30 -4z m50 -66 c0 -12 -33 -30 -54 -30 -28 0 -17 28 12 33
15 2 30 5 35 6 4 0 7 -3 7 -9z"/>
<path d="M190 2915 c0 -14 21 -45 31 -45 18 0 5 45 -13 48 -10 2 -18 1 -18 -3z"/>
<path d="M154 2894 c5 -14 4 -15 -9 -4 -20 16 -29 8 -20 -19 6 -21 35 -30 35
-11 0 5 7 7 15 4 10 -4 15 0 15 14 0 11 -7 23 -16 26 -24 9 -27 8 -20 -10z"/>
<path d="M84 2875 c-7 -29 -1 -41 15 -30 14 8 14 55 1 55 -5 0 -12 -11 -16
-25z"/>
<path d="M170 2666 c0 -8 -10 -23 -22 -33 -20 -16 -23 -29 -25 -97 -2 -77 -2
-78 20 -71 12 3 41 9 65 12 l42 6 0 -34 c0 -43 -12 -61 -33 -53 -20 7 -21 -4
-3 -28 29 -39 60 -4 71 78 8 62 -1 68 -76 54 -64 -12 -72 -12 -65 -1 3 5 26
12 51 15 25 4 45 12 45 18 0 7 -16 8 -45 4 -29 -5 -45 -4 -45 3 0 6 14 11 30
11 34 0 73 33 68 58 -3 12 -13 17 -37 15 -32 -1 -32 -1 -15 19 16 16 16 21 4
28 -21 14 -30 12 -30 -4z m50 -66 c0 -12 -33 -30 -54 -30 -28 0 -17 28 12 33
15 2 30 5 35 6 4 0 7 -3 7 -9z"/>
<path d="M363 2628 c-39 -13 -44 -33 -7 -25 19 3 24 1 20 -10 -13 -34 -18 -63
-10 -63 5 1 22 19 37 41 22 32 26 44 16 55 -13 16 -12 16 -56 2z"/>
<path d="M190 2465 c0 -14 21 -45 31 -45 18 0 5 45 -13 48 -10 2 -18 1 -18 -3z"/>
<path d="M154 2444 c5 -14 4 -15 -9 -4 -20 16 -29 8 -20 -19 6 -21 35 -30 35
-11 0 5 7 7 15 4 10 -4 15 0 15 14 0 11 -7 23 -16 26 -24 9 -27 8 -20 -10z"/>
<path d="M84 2425 c-7 -29 -1 -41 15 -30 14 8 14 55 1 55 -5 0 -12 -11 -16
-25z"/>
<path d="M170 2216 c0 -8 -10 -23 -22 -33 -20 -16 -23 -29 -25 -97 -2 -77 -2
-78 20 -71 12 3 41 9 65 12 l42 6 0 -34 c0 -43 -12 -61 -33 -53 -20 7 -21 -4
-3 -28 29 -39 60 -4 71 78 8 62 -1 68 -76 54 -64 -12 -72 -12 -65 -1 3 5 26
12 51 15 25 4 45 12 45 18 0 7 -16 8 -45 4 -29 -5 -45 -4 -45 3 0 6 14 11 30
11 34 0 73 33 68 58 -3 12 -13 17 -37 15 -32 -1 -32 -1 -15 19 16 16 16 21 4
28 -21 14 -30 12 -30 -4z m50 -66 c0 -12 -33 -30 -54 -30 -28 0 -17 28 12 33
15 2 30 5 35 6 4 0 7 -3 7 -9z"/>
<path d="M363 2178 c-39 -13 -45 -33 -8 -26 14 3 25 4 25 3 0 -1 -5 -16 -11
-33 -9 -27 -8 -35 10 -58 26 -33 26 -44 1 -44 -11 0 -20 -4 -20 -10 0 -14 48
-43 60 -35 19 12 11 75 -14 99 l-23 24 24 31 c20 26 23 34 13 46 -14 17 -13
17 -57 3z"/>
<path d="M190 2015 c0 -14 21 -45 31 -45 18 0 5 45 -13 48 -10 2 -18 1 -18 -3z"/>
<path d="M154 1994 c5 -14 4 -15 -9 -4 -20 16 -29 8 -20 -19 6 -21 35 -30 35
-11 0 5 7 7 15 4 10 -4 15 0 15 14 0 11 -7 23 -16 26 -24 9 -27 8 -20 -10z"/>
<path d="M84 1975 c-7 -29 -1 -41 15 -30 14 8 14 55 1 55 -5 0 -12 -11 -16
-25z"/>
<path d="M170 1766 c0 -8 -10 -23 -22 -33 -20 -16 -23 -29 -25 -97 -2 -77 -2
-78 20 -71 12 3 41 9 65 12 l42 6 0 -34 c0 -43 -12 -61 -33 -53 -20 7 -21 -4
-3 -28 29 -39 60 -4 71 78 8 62 -1 68 -76 54 -64 -12 -72 -12 -65 -1 3 5 26
12 51 15 25 4 45 12 45 18 0 7 -16 8 -45 4 -29 -5 -45 -4 -45 3 0 6 14 11 30
11 34 0 73 33 68 58 -3 12 -13 17 -37 15 -32 -1 -32 -1 -15 19 16 16 16 21 4
28 -21 14 -30 12 -30 -4z m50 -66 c0 -12 -33 -30 -54 -30 -28 0 -17 28 12 33
15 2 30 5 35 6 4 0 7 -3 7 -9z"/>
<path d="M375 1730 c-11 -5 -33 -9 -49 -9 -21 -1 -27 -5 -22 -17 3 -9 6 -76 6
-150 0 -83 4 -134 10 -134 6 0 10 49 10 128 0 131 3 144 33 155 20 8 20 8 6
-31 -9 -27 -8 -35 10 -58 26 -33 26 -44 1 -44 -11 0 -20 -4 -20 -10 0 -14 48
-43 60 -35 19 12 11 75 -14 99 l-23 24 24 31 c20 26 23 34 13 46 -14 17 -17
17 -45 5z"/>
<path d="M190 1565 c0 -14 21 -45 31 -45 18 0 5 45 -13 48 -10 2 -18 1 -18 -3z"/>
<path d="M154 1544 c5 -14 4 -15 -9 -4 -20 16 -29 8 -20 -19 6 -21 35 -30 35
-11 0 5 7 7 15 4 10 -4 15 0 15 14 0 11 -7 23 -16 26 -24 9 -27 8 -20 -10z"/>
<path d="M84 1525 c-7 -29 -1 -41 15 -30 14 8 14 55 1 55 -5 0 -12 -11 -16
-25z"/>
</g>
</svg>
