<?xml version="1.0" standalone="no"?>
<!DOCTYPE svg PUBLIC "-//W3C//DTD SVG 20010904//EN"
 "http://www.w3.org/TR/2001/REC-SVG-20010904/DTD/svg10.dtd">
<svg version="1.0" xmlns="http://www.w3.org/2000/svg"
 width="50.000000pt" height="725.000000pt" viewBox="0 0 50.000000 725.000000"
 preserveAspectRatio="xMidYMid meet">
<metadata>
Created by potrace 1.16, written by Peter Selinger 2001-2019
</metadata>
<g transform="translate(0.000000,725.000000) scale(0.100000,-0.100000)"
fill="#000000" stroke="none">
<path d="M170 7174 c1 -15 26 -44 39 -44 6 0 11 9 11 20 0 11 -4 20 -9 20 -5
0 -16 3 -25 6 -9 3 -16 2 -16 -2z"/>
<path d="M170 6722 c0 -6 5 -14 10 -17 20 -12 9 -23 -30 -30 -22 -4 -40 -11
-40 -17 0 -7 14 -8 38 -5 20 4 63 9 95 13 65 8 77 24 17 24 -29 0 -40 4 -40
15 0 8 -4 15 -9 15 -5 0 -16 3 -25 6 -9 3 -16 1 -16 -4z"/>
<path d="M170 6272 c0 -6 5 -14 10 -17 20 -12 9 -23 -27 -30 l-38 -6 -2 -67
c-1 -59 -14 -117 -38 -174 -4 -11 -3 -18 4 -18 19 0 51 83 57 152 10 92 13 95
94 103 75 8 96 25 30 25 -29 0 -40 4 -40 15 0 8 -4 15 -9 15 -5 0 -16 3 -25 6
-9 3 -16 1 -16 -4z"/>
<path d="M170 5822 c0 -6 5 -14 10 -17 20 -12 9 -23 -27 -30 l-38 -6 -2 -67
c-1 -59 -14 -117 -38 -174 -4 -11 -3 -18 4 -18 19 0 51 83 57 152 10 92 13 95
94 103 75 8 96 25 30 25 -29 0 -40 4 -40 15 0 8 -4 15 -9 15 -5 0 -16 3 -25 6
-9 3 -16 1 -16 -4z"/>
<path d="M244 5734 c3 -9 6 -27 6 -40 0 -34 16 -30 29 7 13 37 7 49 -21 49
-14 0 -18 -5 -14 -16z"/>
<path d="M180 5730 c0 -5 9 -10 20 -10 11 0 20 5 20 10 0 6 -9 10 -20 10 -11
0 -20 -4 -20 -10z"/>
<path d="M170 5372 c0 -6 5 -14 10 -17 20 -12 9 -23 -27 -30 l-38 -6 -2 -67
c-1 -59 -14 -117 -38 -174 -4 -11 -3 -18 4 -18 15 0 47 72 56 126 6 41 7 41
58 47 35 5 54 3 60 -6 7 -9 10 -9 14 1 2 6 13 12 24 12 24 0 24 14 2 40 -23
26 -57 27 -48 1 4 -15 -1 -20 -26 -25 -73 -14 -90 -6 -69 34 7 13 27 20 80 25
75 8 96 25 30 25 -29 0 -40 4 -40 15 0 8 -4 15 -9 15 -5 0 -16 3 -25 6 -9 3
-16 1 -16 -4z"/>
<path d="M180 5280 c0 -5 9 -10 20 -10 11 0 20 5 20 10 0 6 -9 10 -20 10 -11
0 -20 -4 -20 -10z"/>
<path d="M170 4922 c0 -6 5 -14 10 -17 20 -12 9 -23 -27 -30 l-38 -6 -2 -67
c-1 -59 -14 -117 -38 -174 -4 -11 -3 -18 4 -18 15 0 47 72 56 126 6 41 7 41
58 47 28 4 53 5 55 2 2 -2 -19 -7 -47 -11 -28 -4 -51 -11 -51 -17 0 -6 18 -7
46 -3 26 3 56 6 66 6 14 0 18 5 14 15 -4 10 1 15 14 15 25 0 25 13 3 40 -23
26 -57 27 -48 1 4 -15 -1 -20 -26 -25 -73 -14 -90 -6 -69 34 7 13 27 20 80 25
75 8 96 25 30 25 -29 0 -40 4 -40 15 0 8 -4 15 -9 15 -5 0 -16 3 -25 6 -9 3
-16 1 -16 -4z"/>
<path d="M180 4830 c0 -5 9 -10 20 -10 11 0 20 5 20 10 0 6 -9 10 -20 10 -11
0 -20 -4 -20 -10z"/>
<path d="M170 4472 c0 -6 5 -14 10 -17 20 -12 9 -23 -27 -30 l-38 -6 -2 -67
c-1 -59 -14 -117 -38 -174 -4 -11 -3 -18 4 -18 15 0 47 72 56 126 6 41 7 41
58 47 28 4 53 5 55 2 2 -2 -19 -7 -47 -11 -28 -4 -51 -11 -51 -17 0 -6 18 -7
46 -3 26 3 56 6 66 6 14 0 18 5 14 15 -4 10 1 15 14 15 25 0 25 13 3 40 -23
26 -57 27 -48 1 4 -15 -1 -20 -26 -25 -73 -14 -90 -6 -69 34 7 13 27 20 80 25
75 8 96 25 30 25 -29 0 -40 4 -40 15 0 8 -4 15 -9 15 -5 0 -16 3 -25 6 -9 3
-16 1 -16 -4z"/>
<path d="M180 4380 c0 -5 9 -10 20 -10 11 0 20 5 20 10 0 6 -9 10 -20 10 -11
0 -20 -4 -20 -10z"/>
<path d="M145 4253 c0 -21 -3 -50 -8 -65 -10 -37 10 -37 24 -1 12 32 8 95 -6
100 -7 2 -11 -12 -10 -34z"/>
<path d="M170 4022 c0 -6 5 -14 10 -17 20 -12 9 -23 -27 -30 l-38 -6 -2 -67
c-1 -59 -14 -117 -38 -174 -4 -11 -3 -18 4 -18 15 0 47 72 56 126 6 41 7 41
58 47 28 4 53 5 55 2 2 -2 -19 -7 -47 -11 -28 -4 -51 -11 -51 -17 0 -6 18 -7
46 -3 26 3 56 6 66 6 14 0 18 5 14 15 -4 10 1 15 14 15 25 0 25 13 3 40 -23
26 -57 27 -48 1 4 -15 -1 -20 -26 -25 -73 -14 -90 -6 -69 34 7 13 27 20 80 25
75 8 96 25 30 25 -29 0 -40 4 -40 15 0 8 -4 15 -9 15 -5 0 -16 3 -25 6 -9 3
-16 1 -16 -4z"/>
<path d="M180 3930 c0 -5 9 -10 20 -10 11 0 20 5 20 10 0 6 -9 10 -20 10 -11
0 -20 -4 -20 -10z"/>
<path d="M223 3843 c-44 -6 -42 -23 2 -23 35 0 35 0 35 -45 0 -34 -4 -45 -16
-45 -19 0 -14 -20 9 -34 27 -17 38 9 35 84 -3 70 -4 71 -65 63z"/>
<path d="M146 3816 c3 -13 1 -41 -5 -62 -11 -40 -7 -54 9 -38 17 17 30 108 17
116 -21 13 -28 9 -21 -16z"/>
<path d="M170 3572 c0 -6 5 -14 10 -17 20 -12 9 -23 -27 -30 l-38 -6 -2 -67
c-1 -59 -14 -117 -38 -174 -4 -11 -3 -18 4 -18 15 0 47 72 56 126 6 41 7 41
58 47 28 4 53 5 55 2 2 -2 -19 -7 -47 -11 -28 -4 -51 -11 -51 -17 0 -6 18 -7
46 -3 26 3 56 6 66 6 14 0 18 5 14 15 -4 10 1 15 14 15 25 0 25 13 3 40 -23
26 -57 27 -48 1 4 -15 -1 -20 -26 -25 -73 -14 -90 -6 -69 34 7 13 27 20 80 25
75 8 96 25 30 25 -29 0 -40 4 -40 15 0 8 -4 15 -9 15 -5 0 -16 3 -25 6 -9 3
-16 1 -16 -4z"/>
<path d="M180 3480 c0 -5 9 -10 20 -10 11 0 20 5 20 10 0 6 -9 10 -20 10 -11
0 -20 -4 -20 -10z"/>
<path d="M223 3393 c-45 -6 -42 -23 5 -24 33 -1 34 -2 12 -9 -38 -12 -72 -12
-64 1 6 10 -11 28 -26 29 -4 0 -6 -17 -5 -37 0 -21 -4 -51 -8 -66 -6 -22 -5
-28 5 -25 7 3 17 19 22 36 6 23 15 32 30 32 12 0 31 3 44 6 19 6 22 3 22 -25
0 -22 -5 -31 -16 -31 -19 0 -14 -20 9 -34 27 -17 38 9 35 84 -3 70 -4 71 -65
63z"/>
<path d="M170 3122 c0 -6 5 -14 10 -17 20 -12 9 -23 -27 -30 l-38 -6 -2 -67
c-1 -59 -14 -117 -38 -174 -4 -11 -3 -18 4 -18 15 0 47 72 56 126 6 41 7 41
58 47 28 4 53 5 55 2 2 -2 -19 -7 -47 -11 -28 -4 -51 -11 -51 -17 0 -6 18 -7
46 -3 26 3 56 6 66 6 14 0 18 5 14 15 -4 10 1 15 14 15 25 0 25 13 3 40 -23
26 -57 27 -48 1 4 -15 -1 -20 -26 -25 -73 -14 -90 -6 -69 34 7 13 27 20 80 25
75 8 96 25 30 25 -29 0 -40 4 -40 15 0 8 -4 15 -9 15 -5 0 -16 3 -25 6 -9 3
-16 1 -16 -4z"/>
<path d="M180 3030 c0 -5 9 -10 20 -10 11 0 20 5 20 10 0 6 -9 10 -20 10 -11
0 -20 -4 -20 -10z"/>
<path d="M223 2943 c-45 -6 -42 -23 5 -24 33 -1 34 -2 12 -9 -38 -12 -72 -12
-64 1 6 10 -11 28 -26 29 -4 0 -6 -17 -5 -37 0 -21 -3 -50 -8 -65 -5 -19 -4
-28 4 -28 6 0 13 9 16 19 4 15 16 20 54 23 34 2 49 -1 49 -9 0 -7 -7 -13 -16
-13 -19 0 -14 -20 9 -34 27 -17 38 9 35 84 -3 70 -4 71 -65 63z m22 -63 c-11
-5 -33 -8 -50 -8 -29 1 -29 1 5 8 49 10 69 10 45 0z"/>
<path d="M170 2672 c0 -6 5 -14 10 -17 20 -12 9 -23 -27 -30 l-38 -6 -2 -67
c-1 -59 -14 -117 -38 -174 -4 -11 -3 -18 4 -18 15 0 47 73 56 128 6 40 9 42
38 41 31 -2 31 -2 5 -6 -33 -5 -37 -23 -5 -23 16 0 22 -6 23 -25 1 -16 -3 -25
-13 -25 -8 0 -11 5 -7 11 6 10 -11 28 -26 29 -4 0 -6 -17 -5 -37 0 -21 -3 -50
-8 -65 -5 -19 -4 -28 4 -28 6 0 13 9 16 20 8 30 43 26 43 -5 0 -14 5 -25 10
-25 6 0 10 11 10 24 0 15 7 26 20 29 13 3 20 0 20 -9 0 -8 -7 -14 -16 -14 -19
0 -14 -20 9 -34 27 -17 38 9 35 84 l-3 65 -33 -3 c-21 -1 -31 2 -27 8 3 5 18
10 32 10 18 0 24 4 19 15 -4 10 1 15 14 15 25 0 25 13 3 40 -24 27 -57 27 -48
0 4 -13 2 -20 -8 -20 -9 0 -12 9 -9 30 4 27 8 30 38 30 19 0 34 5 34 10 0 6
-18 10 -40 10 -29 0 -40 4 -40 15 0 8 -4 15 -9 15 -5 0 -16 3 -25 6 -9 3 -16
1 -16 -4z m24 -71 c4 -5 0 -12 -6 -15 -10 -5 -10 -7 0 -12 22 -10 12 -24 -18
-24 -32 0 -36 9 -20 41 11 20 35 25 44 10z m59 -138 c-7 -2 -19 -2 -25 0 -7 3
-2 5 12 5 14 0 19 -2 13 -5z m4 -29 c-3 -3 -12 -4 -19 -1 -8 3 -5 6 6 6 11 1
17 -2 13 -5z m-60 -10 c-3 -3 -12 -4 -19 -1 -8 3 -5 6 6 6 11 1 17 -2 13 -5z"/>
<path d="M170 2222 c0 -6 5 -14 10 -17 20 -12 9 -23 -27 -30 l-38 -6 -2 -67
c-1 -59 -14 -117 -38 -174 -4 -11 -3 -18 4 -18 15 0 47 73 56 128 6 40 9 42
38 41 31 -2 31 -2 5 -6 -33 -5 -37 -23 -5 -23 16 0 22 -6 23 -25 1 -16 -3 -25
-13 -25 -8 0 -11 5 -7 11 6 10 -11 28 -26 29 -4 0 -6 -17 -5 -37 0 -21 -3 -50
-8 -65 -5 -19 -4 -28 4 -28 6 0 13 9 16 20 8 30 43 26 43 -5 0 -14 5 -25 10
-25 6 0 10 11 10 24 0 15 7 26 20 29 13 3 20 0 20 -9 0 -8 -7 -14 -16 -14 -19
0 -14 -20 9 -34 27 -17 38 9 35 84 l-3 65 -33 -3 c-21 -1 -31 2 -27 8 3 5 18
10 32 10 18 0 24 4 19 15 -4 10 1 15 14 15 25 0 25 13 3 40 -24 27 -57 27 -48
0 4 -13 2 -20 -8 -20 -9 0 -12 9 -9 30 4 27 8 30 38 30 19 0 34 5 34 10 0 6
-18 10 -40 10 -29 0 -40 4 -40 15 0 8 -4 15 -9 15 -5 0 -16 3 -25 6 -9 3 -16
1 -16 -4z m24 -71 c4 -5 0 -12 -6 -15 -10 -5 -10 -7 0 -12 22 -10 12 -24 -18
-24 -32 0 -36 9 -20 41 11 20 35 25 44 10z m59 -138 c-7 -2 -19 -2 -25 0 -7 3
-2 5 12 5 14 0 19 -2 13 -5z m4 -29 c-3 -3 -12 -4 -19 -1 -8 3 -5 6 6 6 11 1
17 -2 13 -5z m-60 -10 c-3 -3 -12 -4 -19 -1 -8 3 -5 6 6 6 11 1 17 -2 13 -5z"/>
<path d="M368 2168 c-36 -13 -36 -31 -1 -22 20 5 25 4 21 -7 -27 -71 -14 -79
27 -18 21 33 24 43 13 50 -16 11 -25 10 -60 -3z"/>
<path d="M170 1772 c0 -6 5 -14 10 -17 20 -12 9 -23 -27 -30 l-38 -6 -2 -67
c-1 -59 -14 -117 -38 -174 -4 -11 -3 -18 4 -18 15 0 47 73 56 128 6 40 9 42
38 41 31 -2 31 -2 5 -6 -33 -5 -37 -23 -5 -23 16 0 22 -6 23 -25 1 -16 -3 -25
-13 -25 -8 0 -11 5 -7 11 6 10 -11 28 -26 29 -4 0 -6 -17 -5 -37 0 -21 -3 -50
-8 -65 -5 -19 -4 -28 4 -28 6 0 13 9 16 20 8 30 43 26 43 -5 0 -14 5 -25 10
-25 6 0 10 11 10 24 0 15 7 26 20 29 13 3 20 0 20 -9 0 -8 -7 -14 -16 -14 -19
0 -14 -20 9 -34 27 -17 38 9 35 84 l-3 65 -33 -3 c-21 -1 -31 2 -27 8 3 5 18
10 32 10 18 0 24 4 19 15 -4 10 1 15 14 15 25 0 25 13 3 40 -24 27 -57 27 -48
0 4 -13 2 -20 -8 -20 -9 0 -12 9 -9 30 4 27 8 30 38 30 19 0 34 5 34 10 0 6
-18 10 -40 10 -29 0 -40 4 -40 15 0 8 -4 15 -9 15 -5 0 -16 3 -25 6 -9 3 -16
1 -16 -4z m24 -71 c4 -5 0 -12 -6 -15 -10 -5 -10 -7 0 -12 22 -10 12 -24 -18
-24 -32 0 -36 9 -20 41 11 20 35 25 44 10z m59 -138 c-7 -2 -19 -2 -25 0 -7 3
-2 5 12 5 14 0 19 -2 13 -5z m4 -29 c-3 -3 -12 -4 -19 -1 -8 3 -5 6 6 6 11 1
17 -2 13 -5z m-60 -10 c-3 -3 -12 -4 -19 -1 -8 3 -5 6 6 6 11 1 17 -2 13 -5z"/>
<path d="M368 1718 c-35 -12 -37 -31 -3 -22 29 7 29 7 14 -34 -9 -27 -8 -35
10 -58 26 -33 26 -44 1 -44 -11 0 -20 -3 -20 -7 1 -14 50 -44 60 -38 17 11 11
71 -10 98 -25 31 -25 32 1 69 18 25 19 32 8 39 -17 11 -26 10 -61 -3z"/>
<path d="M170 1322 c0 -6 5 -14 10 -17 20 -12 9 -23 -27 -30 l-38 -6 -2 -67
c-1 -59 -14 -117 -38 -174 -4 -11 -3 -18 4 -18 15 0 47 73 56 128 6 40 9 42
38 41 31 -2 31 -2 5 -6 -33 -5 -37 -23 -5 -23 16 0 22 -6 23 -25 1 -16 -3 -25
-13 -25 -8 0 -11 5 -7 11 6 10 -11 28 -26 29 -4 0 -6 -17 -5 -37 0 -21 -3 -50
-8 -65 -5 -19 -4 -28 4 -28 6 0 13 9 16 20 8 30 43 26 43 -5 0 -14 5 -25 10
-25 6 0 10 11 10 24 0 15 7 26 20 29 13 3 20 0 20 -9 0 -8 -7 -14 -16 -14 -19
0 -14 -20 9 -34 27 -17 38 9 35 84 l-3 65 -33 -3 c-21 -1 -31 2 -27 8 3 5 18
10 32 10 18 0 24 4 19 15 -4 10 1 15 14 15 25 0 25 13 3 40 -24 27 -57 27 -48
0 4 -13 2 -20 -8 -20 -9 0 -12 9 -9 30 4 27 8 30 38 30 19 0 34 5 34 10 0 6
-18 10 -40 10 -29 0 -40 4 -40 15 0 8 -4 15 -9 15 -5 0 -16 3 -25 6 -9 3 -16
1 -16 -4z m24 -71 c4 -5 0 -12 -6 -15 -10 -5 -10 -7 0 -12 22 -10 12 -24 -18
-24 -32 0 -36 9 -20 41 11 20 35 25 44 10z m59 -138 c-7 -2 -19 -2 -25 0 -7 3
-2 5 12 5 14 0 19 -2 13 -5z m4 -29 c-3 -3 -12 -4 -19 -1 -8 3 -5 6 6 6 11 1
17 -2 13 -5z m-60 -10 c-3 -3 -12 -4 -19 -1 -8 3 -5 6 6 6 11 1 17 -2 13 -5z"/>
<path d="M372 1270 c-12 -5 -29 -7 -37 -4 -13 5 -15 -15 -15 -145 0 -137 7
-178 24 -135 3 9 6 69 6 135 0 99 3 121 15 126 23 8 26 0 14 -35 -9 -27 -8
-35 10 -58 26 -33 26 -44 1 -44 -11 0 -20 -3 -20 -7 1 -14 50 -44 60 -38 17
11 11 71 -10 98 -25 31 -25 32 1 69 18 25 19 32 8 39 -17 11 -27 10 -57 -1z"/>
</g>
</svg>
