<?xml version="1.0" standalone="no"?>
<!DOCTYPE svg PUBLIC "-//W3C//DTD SVG 20010904//EN"
 "http://www.w3.org/TR/2001/REC-SVG-20010904/DTD/svg10.dtd">
<svg version="1.0" xmlns="http://www.w3.org/2000/svg"
 width="50.000000pt" height="725.000000pt" viewBox="0 0 50.000000 725.000000"
 preserveAspectRatio="xMidYMid meet">
<metadata>
Created by potrace 1.16, written by Peter Selinger 2001-2019
</metadata>
<g transform="translate(0.000000,725.000000) scale(0.100000,-0.100000)"
fill="#000000" stroke="none">
<path d="M152 7134 c2 -11 11 -20 22 -22 13 -3 17 1 14 14 -2 11 -11 20 -22
22 -13 3 -17 -1 -14 -14z"/>
<path d="M217 6698 c-4 -12 -5 -24 -3 -26 7 -7 46 23 46 35 0 22 -37 14 -43
-9z"/>
<path d="M152 6684 c2 -11 11 -20 22 -22 13 -3 17 1 14 14 -2 11 -11 20 -22
22 -13 3 -17 -1 -14 -14z"/>
<path d="M217 6248 c-4 -12 -5 -24 -3 -26 7 -7 46 23 46 35 0 22 -37 14 -43
-9z"/>
<path d="M150 6235 c0 -7 8 -19 18 -24 14 -9 11 -10 -15 -11 -23 0 -33 -5 -33
-16 0 -11 6 -13 19 -9 18 6 128 25 144 25 4 0 7 5 7 11 0 8 -15 10 -49 5 -43
-6 -49 -4 -54 14 -6 23 -37 28 -37 5z"/>
<path d="M217 5798 c-4 -12 -5 -24 -3 -26 7 -7 46 23 46 35 0 22 -37 14 -43
-9z"/>
<path d="M150 5785 c0 -7 8 -19 18 -24 14 -9 11 -10 -15 -11 -23 0 -33 -5 -33
-16 0 -11 6 -13 19 -9 18 6 128 25 144 25 4 0 7 5 7 11 0 8 -15 10 -49 5 -43
-6 -49 -4 -54 14 -6 23 -37 28 -37 5z"/>
<path d="M123 5693 c3 -10 8 -35 12 -55 3 -21 11 -38 17 -38 6 0 8 12 4 31 -3
17 -6 42 -6 55 0 15 -6 24 -16 24 -10 0 -14 -6 -11 -17z"/>
<path d="M217 5348 c-4 -12 -5 -24 -3 -26 7 -7 46 23 46 35 0 22 -37 14 -43
-9z"/>
<path d="M150 5335 c0 -7 8 -19 18 -24 14 -9 11 -10 -15 -11 -23 0 -33 -5 -33
-16 0 -11 6 -13 19 -9 18 6 128 25 144 25 4 0 7 5 7 11 0 8 -15 10 -49 5 -43
-6 -49 -4 -54 14 -6 23 -37 28 -37 5z"/>
<path d="M210 5260 c0 -5 10 -10 21 -10 20 0 21 -4 15 -46 -4 -33 -3 -45 6
-42 14 5 26 40 27 81 1 24 -2 27 -34 27 -19 0 -35 -4 -35 -10z"/>
<path d="M123 5243 c3 -10 8 -35 12 -55 9 -55 28 -48 19 7 -6 44 -5 45 20 45
14 0 26 5 26 10 0 6 -18 10 -41 10 -34 0 -40 -3 -36 -17z"/>
<path d="M217 4898 c-4 -12 -5 -24 -3 -26 7 -7 46 23 46 35 0 22 -37 14 -43
-9z"/>
<path d="M150 4885 c0 -7 8 -19 18 -24 14 -9 11 -10 -15 -11 -23 0 -33 -5 -33
-15 0 -11 7 -14 25 -9 15 4 25 2 25 -5 0 -6 -12 -11 -26 -11 -19 0 -24 -4 -21
-17 3 -10 8 -35 12 -55 9 -56 27 -48 21 9 -3 30 -2 42 4 34 13 -23 41 5 34 34
-5 20 -1 23 45 29 28 4 51 12 51 18 0 7 -16 8 -49 4 -43 -6 -49 -4 -54 14 -6
23 -37 28 -37 5z"/>
<path d="M210 4810 c0 -5 10 -10 21 -10 20 0 21 -4 15 -46 -4 -33 -3 -45 6
-42 14 5 26 40 27 81 1 24 -2 27 -34 27 -19 0 -35 -4 -35 -10z"/>
<path d="M217 4448 c-4 -12 -5 -24 -3 -26 7 -7 46 23 46 35 0 22 -37 14 -43
-9z"/>
<path d="M150 4435 c0 -7 8 -19 18 -24 14 -9 11 -10 -15 -11 -23 0 -33 -5 -33
-15 0 -11 7 -14 25 -9 15 4 25 2 25 -5 0 -6 -12 -11 -26 -11 -19 0 -24 -4 -21
-17 3 -10 8 -35 12 -55 9 -56 27 -48 21 9 -3 30 -2 42 4 34 7 -13 11 -13 25
-1 15 12 18 12 26 -3 6 -9 17 -17 25 -17 11 0 13 -7 8 -26 -5 -20 -3 -25 7
-22 15 5 26 38 28 81 1 22 -3 27 -24 27 -35 0 -31 19 5 27 51 10 35 26 -19 19
-43 -6 -49 -4 -54 14 -6 23 -37 28 -37 5z m47 -67 c-3 -8 -6 -5 -6 6 -1 11 2
17 5 13 3 -3 4 -12 1 -19z m53 -28 c0 -5 -4 -10 -9 -10 -6 0 -13 5 -16 10 -3
6 1 10 9 10 9 0 16 -4 16 -10z"/>
<path d="M217 3998 c-4 -12 -5 -24 -3 -26 7 -7 46 23 46 35 0 22 -37 14 -43
-9z"/>
<path d="M150 3985 c0 -7 8 -19 18 -24 14 -9 11 -10 -15 -11 -23 0 -33 -5 -33
-15 0 -11 7 -14 25 -9 15 4 25 2 25 -5 0 -6 -12 -11 -26 -11 -19 0 -24 -4 -21
-17 3 -10 8 -35 12 -55 9 -56 27 -48 21 9 -3 30 -2 42 4 34 7 -13 11 -13 25
-1 14 12 18 12 26 -1 6 -10 3 -15 -11 -17 -29 -5 -25 -22 5 -22 14 0 25 5 25
10 0 6 5 10 10 10 6 0 8 -11 4 -26 -5 -20 -3 -25 7 -22 15 5 26 38 28 81 1 22
-3 27 -24 27 -35 0 -31 19 5 27 51 10 35 26 -19 19 -43 -6 -49 -4 -54 14 -6
23 -37 28 -37 5z m47 -67 c-3 -8 -6 -5 -6 6 -1 11 2 17 5 13 3 -3 4 -12 1 -19z
m53 -28 c0 -5 -4 -10 -9 -10 -6 0 -13 5 -16 10 -3 6 1 10 9 10 9 0 16 -4 16
-10z"/>
<path d="M217 3548 c-4 -12 -5 -24 -3 -26 7 -7 46 23 46 35 0 22 -37 14 -43
-9z"/>
<path d="M150 3535 c0 -7 8 -19 18 -24 14 -9 11 -10 -15 -11 -23 0 -33 -5 -33
-15 0 -11 7 -14 25 -9 15 4 25 2 25 -5 0 -6 -12 -11 -26 -11 -19 0 -24 -4 -21
-17 3 -10 8 -35 12 -55 9 -56 27 -48 21 9 -3 30 -2 42 4 34 7 -13 11 -13 25
-1 14 12 18 12 26 -1 6 -10 3 -15 -11 -17 -11 -2 -20 -8 -20 -13 0 -14 48 -11
53 4 2 6 8 9 12 5 14 -13 -7 -28 -41 -28 -19 0 -34 -4 -34 -10 0 -13 87 -13
94 -1 4 5 9 30 12 55 7 45 6 46 -20 46 -36 0 -33 19 4 27 51 10 35 26 -19 19
-43 -6 -49 -4 -54 14 -6 23 -37 28 -37 5z m47 -67 c-3 -8 -6 -5 -6 6 -1 11 2
17 5 13 3 -3 4 -12 1 -19z m53 -28 c0 -5 -4 -10 -9 -10 -6 0 -13 5 -16 10 -3
6 1 10 9 10 9 0 16 -4 16 -10z"/>
<path d="M217 3098 c-4 -12 -5 -24 -3 -26 7 -7 46 23 46 35 0 22 -37 14 -43
-9z"/>
<path d="M150 3085 c0 -7 8 -19 18 -24 14 -9 11 -10 -15 -11 -23 0 -33 -5 -33
-15 0 -11 7 -14 25 -9 15 4 25 2 25 -5 0 -6 -12 -11 -26 -11 -19 0 -24 -4 -21
-17 3 -10 8 -35 12 -55 9 -56 27 -48 21 9 -3 30 -2 42 4 34 7 -13 11 -13 25
-1 14 12 18 12 26 -1 6 -10 3 -15 -11 -17 -11 -2 -20 -8 -20 -13 0 -14 48 -11
53 4 2 6 8 9 12 5 14 -13 -7 -28 -41 -28 -19 0 -34 -4 -34 -10 0 -13 87 -13
94 -1 4 5 9 30 12 55 7 45 6 46 -20 46 -36 0 -33 19 4 27 51 10 35 26 -19 19
-43 -6 -49 -4 -54 14 -6 23 -37 28 -37 5z m47 -67 c-3 -8 -6 -5 -6 6 -1 11 2
17 5 13 3 -3 4 -12 1 -19z m53 -28 c0 -5 -4 -10 -9 -10 -6 0 -13 5 -16 10 -3
6 1 10 9 10 9 0 16 -4 16 -10z"/>
<path d="M172 2887 c-51 -6 -81 -15 -79 -21 4 -13 6 -13 115 -2 53 6 81 13 79
20 -5 14 -17 15 -115 3z"/>
<path d="M217 2648 c-4 -12 -5 -24 -3 -26 7 -7 46 23 46 35 0 22 -37 14 -43
-9z"/>
<path d="M150 2635 c0 -7 8 -19 18 -24 14 -9 11 -10 -15 -11 -23 0 -33 -5 -33
-15 0 -11 7 -14 25 -9 15 4 25 2 25 -5 0 -6 -12 -11 -26 -11 -19 0 -24 -4 -21
-17 3 -10 8 -35 12 -55 9 -56 27 -48 21 9 -3 30 -2 42 4 34 7 -13 11 -13 25
-1 14 12 18 12 26 -1 6 -10 3 -15 -11 -17 -11 -2 -20 -8 -20 -13 0 -14 48 -11
53 4 2 6 8 9 12 5 14 -13 -7 -28 -41 -28 -32 0 -34 -2 -28 -25 6 -24 4 -25
-41 -25 -33 0 -45 -4 -42 -12 2 -8 18 -12 41 -10 43 3 46 -9 9 -37 -14 -12
-24 -24 -21 -27 11 -10 55 19 72 47 14 24 24 29 57 29 28 0 39 4 36 13 -2 7
-18 11 -41 9 -20 -2 -36 2 -36 8 0 5 11 10 24 10 30 0 35 6 42 64 7 45 6 46
-20 46 -36 0 -33 19 4 27 51 10 35 26 -19 19 -43 -6 -49 -4 -54 14 -6 23 -37
28 -37 5z m47 -67 c-3 -8 -6 -5 -6 6 -1 11 2 17 5 13 3 -3 4 -12 1 -19z m53
-28 c0 -5 -4 -10 -9 -10 -6 0 -13 5 -16 10 -3 6 1 10 9 10 9 0 16 -4 16 -10z"/>
<path d="M217 2198 c-4 -12 -5 -24 -3 -26 7 -7 46 23 46 35 0 22 -37 14 -43
-9z"/>
<path d="M150 2185 c0 -7 8 -19 18 -24 14 -9 11 -10 -15 -11 -23 0 -33 -5 -33
-15 0 -11 7 -14 25 -9 15 4 25 2 25 -5 0 -6 -12 -11 -26 -11 -19 0 -24 -4 -21
-17 3 -10 8 -35 12 -55 9 -56 27 -48 21 9 -3 30 -2 42 4 34 7 -13 11 -13 25
-1 14 12 18 12 26 -1 6 -10 3 -15 -11 -17 -11 -2 -20 -8 -20 -13 0 -14 48 -11
53 4 2 6 8 9 12 5 14 -13 -7 -28 -41 -28 -32 0 -34 -2 -28 -25 6 -24 4 -25
-41 -25 -33 0 -45 -4 -42 -12 2 -8 18 -12 41 -10 43 3 46 -9 9 -37 -14 -12
-24 -24 -21 -27 11 -10 55 19 72 47 14 24 24 29 57 29 28 0 39 4 36 13 -2 7
-18 11 -41 9 -20 -2 -36 2 -36 8 0 5 11 10 24 10 30 0 35 6 42 64 7 45 6 46
-20 46 -36 0 -33 19 4 27 51 10 35 26 -19 19 -43 -6 -49 -4 -54 14 -6 23 -37
28 -37 5z m47 -67 c-3 -8 -6 -5 -6 6 -1 11 2 17 5 13 3 -3 4 -12 1 -19z m53
-28 c0 -5 -4 -10 -9 -10 -6 0 -13 5 -16 10 -3 6 1 10 9 10 9 0 16 -4 16 -10z"/>
<path d="M220 1942 c0 -10 43 -52 53 -52 16 0 6 40 -12 50 -24 12 -41 13 -41
2z"/>
<path d="M217 1748 c-4 -12 -5 -24 -3 -26 7 -7 46 23 46 35 0 22 -37 14 -43
-9z"/>
<path d="M150 1735 c0 -7 8 -19 18 -24 14 -9 11 -10 -15 -11 -23 0 -33 -5 -33
-15 0 -11 7 -14 25 -9 15 4 25 2 25 -5 0 -6 -12 -11 -26 -11 -19 0 -24 -4 -21
-17 3 -10 8 -35 12 -55 9 -56 27 -48 21 9 -3 30 -2 42 4 34 7 -13 11 -13 25
-1 14 12 18 12 26 -1 6 -10 3 -15 -11 -17 -11 -2 -20 -8 -20 -13 0 -14 48 -11
53 4 2 6 8 9 12 5 14 -13 -7 -28 -41 -28 -32 0 -34 -2 -28 -25 6 -24 4 -25
-41 -25 -33 0 -45 -4 -42 -12 2 -8 18 -12 41 -10 43 3 46 -9 9 -37 -14 -12
-24 -24 -21 -27 11 -10 55 19 72 47 14 24 24 29 57 29 28 0 39 4 36 13 -2 7
-18 11 -41 9 -20 -2 -36 2 -36 8 0 5 11 10 24 10 30 0 35 6 42 64 7 45 6 46
-20 46 -36 0 -33 19 4 27 51 10 35 26 -19 19 -43 -6 -49 -4 -54 14 -6 23 -37
28 -37 5z m47 -67 c-3 -8 -6 -5 -6 6 -1 11 2 17 5 13 3 -3 4 -12 1 -19z m53
-28 c0 -5 -4 -10 -9 -10 -6 0 -13 5 -16 10 -3 6 1 10 9 10 9 0 16 -4 16 -10z"/>
<path d="M358 1713 c-23 -6 -23 -23 -2 -23 13 0 15 -7 11 -30 -9 -40 6 -38 32
6 29 49 17 62 -41 47z"/>
<path d="M220 1492 c0 -10 43 -52 53 -52 16 0 6 40 -12 50 -24 12 -41 13 -41
2z"/>
<path d="M217 1298 c-4 -12 -5 -24 -3 -26 7 -7 46 23 46 35 0 22 -37 14 -43
-9z"/>
<path d="M150 1285 c0 -7 8 -19 18 -24 14 -9 11 -10 -15 -11 -23 0 -33 -5 -33
-15 0 -11 7 -14 25 -9 15 4 25 2 25 -5 0 -6 -12 -11 -26 -11 -19 0 -24 -4 -21
-17 3 -10 8 -35 12 -55 9 -56 27 -48 21 9 -3 30 -2 42 4 34 7 -13 11 -13 25
-1 14 12 18 12 26 -1 6 -10 3 -15 -11 -17 -11 -2 -20 -8 -20 -13 0 -14 48 -11
53 4 2 6 8 9 12 5 14 -13 -7 -28 -41 -28 -32 0 -34 -2 -28 -25 6 -24 4 -25
-41 -25 -33 0 -45 -4 -42 -12 2 -8 18 -12 41 -10 43 3 46 -9 9 -37 -14 -12
-24 -24 -21 -27 11 -10 55 19 72 47 14 24 24 29 57 29 28 0 39 4 36 13 -2 7
-18 11 -41 9 -20 -2 -36 2 -36 8 0 5 11 10 24 10 30 0 35 6 42 64 7 45 6 46
-20 46 -36 0 -33 19 4 27 51 10 35 26 -19 19 -43 -6 -49 -4 -54 14 -6 23 -37
28 -37 5z m47 -67 c-3 -8 -6 -5 -6 6 -1 11 2 17 5 13 3 -3 4 -12 1 -19z m53
-28 c0 -5 -4 -10 -9 -10 -6 0 -13 5 -16 10 -3 6 1 10 9 10 9 0 16 -4 16 -10z"/>
<path d="M358 1263 c-22 -6 -24 -23 -2 -23 13 0 15 -7 10 -34 -5 -24 -2 -37 9
-46 19 -16 19 -40 0 -40 -8 0 -15 -4 -15 -8 0 -15 38 -44 49 -37 18 10 12 70
-8 92 -19 20 -19 21 0 52 27 45 14 59 -43 44z"/>
<path d="M220 1042 c0 -10 43 -52 53 -52 16 0 6 40 -12 50 -24 12 -41 13 -41
2z"/>
<path d="M217 848 c-4 -12 -5 -24 -3 -26 7 -7 46 23 46 35 0 22 -37 14 -43 -9z"/>
<path d="M150 835 c0 -7 8 -19 18 -24 14 -9 11 -10 -15 -11 -23 0 -33 -5 -33
-15 0 -11 7 -14 25 -9 15 4 25 2 25 -5 0 -6 -12 -11 -26 -11 -19 0 -24 -4 -21
-17 3 -10 8 -35 12 -55 9 -56 27 -48 21 9 -3 30 -2 42 4 34 7 -13 11 -13 25
-1 14 12 18 12 26 -1 6 -10 3 -15 -11 -17 -11 -2 -20 -8 -20 -13 0 -14 48 -11
53 4 2 6 8 9 12 5 14 -13 -7 -28 -41 -28 -32 0 -34 -2 -28 -25 6 -24 4 -25
-41 -25 -33 0 -45 -4 -42 -12 2 -8 18 -12 41 -10 43 3 46 -9 9 -37 -14 -12
-24 -24 -21 -27 11 -10 55 19 72 47 14 24 24 29 57 29 28 0 39 4 36 13 -2 7
-18 11 -41 9 -20 -2 -36 2 -36 8 0 5 11 10 24 10 30 0 35 6 42 64 7 45 6 46
-20 46 -36 0 -33 19 4 27 51 10 35 26 -19 19 -43 -6 -49 -4 -54 14 -6 23 -37
28 -37 5z m47 -67 c-3 -8 -6 -5 -6 6 -1 11 2 17 5 13 3 -3 4 -12 1 -19z m53
-28 c0 -5 -4 -10 -9 -10 -6 0 -13 5 -16 10 -3 6 1 10 9 10 9 0 16 -4 16 -10z"/>
<path d="M355 811 c-11 -5 -26 -6 -32 -4 -10 4 -13 -28 -13 -141 0 -91 4 -146
10 -146 6 0 10 29 10 68 0 120 11 202 28 202 11 0 13 -8 8 -34 -5 -24 -2 -37
9 -46 19 -16 19 -40 0 -40 -8 0 -15 -4 -15 -8 0 -15 38 -44 49 -37 18 10 12
70 -8 92 -19 20 -19 21 0 52 28 46 9 63 -46 42z"/>
<path d="M220 592 c0 -10 43 -52 53 -52 16 0 6 40 -12 50 -24 12 -41 13 -41 2z"/>
</g>
</svg>
