<?xml version="1.0" standalone="no"?>
<!DOCTYPE svg PUBLIC "-//W3C//DTD SVG 20010904//EN"
 "http://www.w3.org/TR/2001/REC-SVG-20010904/DTD/svg10.dtd">
<svg version="1.0" xmlns="http://www.w3.org/2000/svg"
 width="50.000000pt" height="725.000000pt" viewBox="0 0 50.000000 725.000000"
 preserveAspectRatio="xMidYMid meet">
<metadata>
Created by potrace 1.16, written by Peter Selinger 2001-2019
</metadata>
<g transform="translate(0.000000,725.000000) scale(0.100000,-0.100000)"
fill="#000000" stroke="none">
<path d="M148 7128 c-51 -11 -65 -28 -23 -28 40 0 125 21 125 31 0 11 -39 10
-102 -3z"/>
<path d="M148 6678 c-51 -11 -65 -28 -23 -28 40 0 125 21 125 31 0 11 -39 10
-102 -3z"/>
<path d="M97 6518 c-6 -87 -5 -94 12 -83 13 7 15 165 2 165 -4 0 -11 -37 -14
-82z"/>
<path d="M148 6228 c-51 -11 -65 -28 -23 -28 40 0 125 21 125 31 0 11 -39 10
-102 -3z"/>
<path d="M163 6163 c-38 -7 -26 -24 15 -21 l37 3 -1 -55 c-1 -30 -3 -68 -5
-85 -3 -22 0 -30 11 -30 12 0 16 19 18 98 l3 97 -28 -1 c-15 -1 -38 -4 -50 -6z"/>
<path d="M97 6068 c-6 -85 -3 -99 12 -82 14 14 19 164 5 164 -7 0 -13 -31 -17
-82z"/>
<path d="M148 5778 c-48 -10 -66 -28 -28 -28 26 0 27 -40 1 -47 -15 -4 -19
-18 -24 -86 -3 -45 -4 -83 -2 -85 12 -12 25 16 25 54 0 24 5 44 11 44 5 0 15
13 20 30 11 30 40 47 60 34 10 -6 10 -28 -3 -144 -2 -17 2 -25 12 -25 12 0 16
19 18 99 l3 99 -41 -6 c-38 -5 -41 -3 -38 16 2 16 13 23 46 30 23 4 42 12 42
18 0 11 -39 10 -102 -3z m-15 -108 c-3 -12 -8 -19 -11 -16 -5 6 5 36 12 36 2
0 2 -9 -1 -20z"/>
<path d="M148 5328 c-48 -10 -66 -28 -28 -28 26 0 27 -40 1 -47 -15 -4 -19
-18 -24 -86 -3 -45 -4 -83 -2 -85 12 -12 25 16 25 54 0 24 4 44 10 44 5 0 16
15 24 33 l14 32 1 -32 c1 -25 6 -32 24 -35 18 -2 21 -8 19 -33 -8 -64 -7 -70
8 -70 12 0 16 19 18 98 l3 97 -26 0 c-14 0 -25 4 -25 9 0 15 30 41 46 41 8 0
14 5 14 10 0 12 -38 11 -102 -2z m19 -60 c-3 -7 -5 -2 -5 12 0 14 2 19 5 13 2
-7 2 -19 0 -25z m51 -46 c2 -15 -2 -22 -12 -22 -11 0 -16 9 -16 26 0 31 23 28
28 -4z m-85 -2 c-3 -12 -8 -19 -11 -16 -5 6 5 36 12 36 2 0 2 -9 -1 -20z"/>
<path d="M148 4878 c-48 -10 -66 -28 -28 -28 26 0 27 -40 1 -47 -15 -4 -19
-18 -24 -86 -3 -45 -4 -83 -2 -85 12 -12 25 16 25 54 0 24 4 44 10 44 5 0 16
15 24 33 l14 32 1 -32 c1 -25 6 -32 24 -35 18 -2 21 -8 19 -33 -8 -64 -7 -70
8 -70 12 0 16 19 18 98 l3 97 -26 0 c-14 0 -25 4 -25 9 0 15 30 41 46 41 8 0
14 5 14 10 0 12 -38 11 -102 -2z m19 -60 c-3 -7 -5 -2 -5 12 0 14 2 19 5 13 2
-7 2 -19 0 -25z m51 -46 c2 -15 -2 -22 -12 -22 -11 0 -16 9 -16 26 0 31 23 28
28 -4z m-85 -2 c-3 -12 -8 -19 -11 -16 -5 6 5 36 12 36 2 0 2 -9 -1 -20z"/>
<path d="M153 4703 c-28 -5 -30 -23 -4 -23 26 0 51 10 51 21 0 9 -8 10 -47 2z"/>
<path d="M148 4428 c-48 -10 -66 -28 -28 -28 14 0 20 -7 20 -21 0 -12 -8 -23
-20 -26 -16 -4 -20 -14 -20 -52 0 -25 -3 -63 -6 -83 l-7 -37 52 6 c33 4 56 2
65 -6 28 -23 36 -1 36 95 0 94 0 94 -25 94 -14 0 -25 4 -25 9 0 15 30 41 46
41 8 0 14 5 14 10 0 12 -38 11 -102 -2z m19 -60 c-3 -7 -5 -2 -5 12 0 14 2 19
5 13 2 -7 2 -19 0 -25z m51 -46 c2 -15 -2 -22 -12 -22 -11 0 -16 9 -16 26 0
31 23 28 28 -4z m-85 -2 c-3 -12 -8 -19 -11 -16 -5 6 5 36 12 36 2 0 2 -9 -1
-20z m60 -42 c23 -3 32 -25 19 -45 -4 -7 -27 -15 -50 -19 l-42 -7 0 37 c0 20
5 36 11 36 5 0 15 15 22 33 l12 32 3 -32 c2 -24 9 -33 25 -35z"/>
<path d="M153 4253 c-28 -5 -30 -23 -4 -23 26 0 51 10 51 21 0 9 -8 10 -47 2z"/>
<path d="M148 3978 c-48 -10 -66 -28 -28 -28 14 0 20 -7 20 -21 0 -12 -8 -23
-20 -26 -16 -4 -20 -14 -20 -52 0 -25 -3 -63 -6 -83 l-7 -37 52 6 c33 4 56 2
65 -6 25 -21 36 -3 36 59 0 49 3 58 15 54 9 -4 15 0 15 10 0 9 -7 16 -15 16
-9 0 -15 9 -15 25 0 20 -5 25 -25 25 -14 0 -25 4 -25 9 0 15 30 41 46 41 8 0
14 5 14 10 0 12 -38 11 -102 -2z m19 -60 c-3 -7 -5 -2 -5 12 0 14 2 19 5 13 2
-7 2 -19 0 -25z m51 -46 c2 -15 -2 -22 -12 -22 -11 0 -16 9 -16 26 0 31 23 28
28 -4z m-85 -2 c-3 -12 -8 -19 -11 -16 -5 6 5 36 12 36 2 0 2 -9 -1 -20z m60
-42 c23 -3 32 -25 19 -45 -4 -7 -27 -15 -50 -19 l-42 -7 0 37 c0 20 5 36 11
36 5 0 15 15 22 33 l12 32 3 -32 c2 -24 9 -33 25 -35z"/>
<path d="M153 3803 c-28 -5 -30 -23 -4 -23 26 0 51 10 51 21 0 9 -8 10 -47 2z"/>
<path d="M148 3528 c-48 -10 -66 -28 -28 -28 14 0 20 -7 20 -21 0 -12 -8 -23
-20 -26 -16 -4 -20 -14 -20 -52 0 -25 -3 -63 -6 -83 l-7 -37 52 6 c33 4 56 2
65 -6 25 -21 36 -3 36 59 0 50 2 58 16 53 16 -6 16 -43 -1 -85 -4 -11 -3 -18
4 -18 20 0 33 52 34 139 2 59 -2 85 -10 88 -9 3 -13 -10 -13 -46 0 -39 -4 -51
-15 -51 -9 0 -15 9 -15 25 0 20 -5 25 -25 25 -14 0 -25 4 -25 9 0 15 30 41 46
41 8 0 14 5 14 10 0 12 -38 11 -102 -2z m19 -60 c-3 -7 -5 -2 -5 12 0 14 2 19
5 13 2 -7 2 -19 0 -25z m51 -46 c2 -15 -2 -22 -12 -22 -11 0 -16 9 -16 26 0
31 23 28 28 -4z m-85 -2 c-3 -12 -8 -19 -11 -16 -5 6 5 36 12 36 2 0 2 -9 -1
-20z m60 -42 c23 -3 32 -25 19 -45 -4 -7 -27 -15 -50 -19 l-42 -7 0 37 c0 20
5 36 11 36 5 0 15 15 22 33 l12 32 3 -32 c2 -24 9 -33 25 -35z"/>
<path d="M153 3353 c-28 -5 -30 -23 -4 -23 26 0 51 10 51 21 0 9 -8 10 -47 2z"/>
<path d="M148 3078 c-48 -10 -66 -28 -28 -28 14 0 20 -7 20 -21 0 -12 -8 -23
-20 -26 -16 -4 -20 -14 -20 -52 0 -25 -3 -63 -6 -83 l-7 -37 52 6 c35 4 56 2
66 -7 23 -19 34 -2 37 62 2 48 6 56 18 48 12 -7 13 -16 3 -52 -6 -23 -10 -45
-7 -47 10 -10 25 18 32 60 6 34 12 43 25 41 10 -2 17 4 17 13 0 8 -7 15 -14
15 -11 0 -16 14 -18 47 -4 66 -28 70 -28 4 0 -39 -4 -51 -15 -51 -9 0 -15 9
-15 25 0 20 -5 25 -25 25 -14 0 -25 4 -25 9 0 15 30 41 46 41 8 0 14 5 14 10
0 12 -38 11 -102 -2z m19 -60 c-3 -7 -5 -2 -5 12 0 14 2 19 5 13 2 -7 2 -19 0
-25z m51 -46 c2 -15 -2 -22 -12 -22 -11 0 -16 9 -16 26 0 31 23 28 28 -4z
m-85 -2 c-3 -12 -8 -19 -11 -16 -5 6 5 36 12 36 2 0 2 -9 -1 -20z m60 -42 c23
-3 32 -25 19 -45 -4 -7 -27 -15 -50 -19 l-42 -7 0 37 c0 20 5 36 11 36 5 0 15
15 22 33 l12 32 3 -32 c2 -24 9 -33 25 -35z"/>
<path d="M153 2903 c-28 -5 -30 -23 -4 -23 26 0 51 10 51 21 0 9 -8 10 -47 2z"/>
<path d="M148 2628 c-48 -10 -66 -28 -28 -28 14 0 20 -7 20 -21 0 -12 -8 -23
-20 -26 -16 -4 -20 -14 -20 -52 0 -25 -3 -63 -6 -83 l-7 -37 52 6 c33 4 56 2
65 -6 25 -21 36 -3 36 59 0 50 2 58 16 53 16 -6 16 -43 -2 -87 -5 -14 -3 -17
7 -14 8 2 18 22 23 44 14 62 14 64 31 57 14 -5 15 -15 10 -54 -6 -41 -4 -49 9
-49 13 0 16 15 18 95 0 52 1 101 2 107 1 7 -6 14 -15 16 -14 3 -16 -4 -12 -42
5 -37 3 -46 -10 -46 -12 0 -17 12 -19 47 -4 66 -28 70 -28 4 0 -39 -4 -51 -15
-51 -9 0 -15 9 -15 25 0 20 -5 25 -25 25 -14 0 -25 4 -25 9 0 15 30 41 46 41
8 0 14 5 14 10 0 12 -38 11 -102 -2z m19 -60 c-3 -7 -5 -2 -5 12 0 14 2 19 5
13 2 -7 2 -19 0 -25z m51 -46 c2 -15 -2 -22 -12 -22 -11 0 -16 9 -16 26 0 31
23 28 28 -4z m-85 -2 c-3 -12 -8 -19 -11 -16 -5 6 5 36 12 36 2 0 2 -9 -1 -20z
m60 -42 c23 -3 32 -25 19 -45 -4 -7 -27 -15 -50 -19 l-42 -7 0 37 c0 20 5 36
11 36 5 0 15 15 22 33 l12 32 3 -32 c2 -24 9 -33 25 -35z"/>
<path d="M153 2453 c-28 -5 -30 -23 -4 -23 26 0 51 10 51 21 0 9 -8 10 -47 2z"/>
<path d="M148 2178 c-48 -10 -66 -28 -28 -28 14 0 20 -7 20 -21 0 -12 -8 -23
-20 -26 -16 -4 -20 -14 -20 -52 0 -25 -3 -63 -6 -83 l-7 -37 52 6 c33 4 56 2
65 -6 25 -21 36 -3 36 59 0 50 2 58 16 53 16 -6 16 -43 -2 -87 -5 -14 -3 -17
7 -14 8 2 18 22 23 44 14 62 14 64 31 57 14 -5 15 -15 10 -54 -6 -41 -4 -49 9
-49 13 0 16 11 16 56 0 51 2 55 20 49 12 -4 20 -2 20 5 0 7 -9 14 -21 17 -17
5 -20 12 -17 47 2 31 -1 41 -13 44 -14 3 -16 -4 -12 -42 5 -37 3 -46 -10 -46
-12 0 -17 12 -19 47 -4 66 -28 70 -28 4 0 -39 -4 -51 -15 -51 -9 0 -15 9 -15
25 0 20 -5 25 -25 25 -14 0 -25 4 -25 9 0 15 30 41 46 41 8 0 14 5 14 10 0 12
-38 11 -102 -2z m19 -60 c-3 -7 -5 -2 -5 12 0 14 2 19 5 13 2 -7 2 -19 0 -25z
m51 -46 c2 -15 -2 -22 -12 -22 -11 0 -16 9 -16 26 0 31 23 28 28 -4z m-85 -2
c-3 -12 -8 -19 -11 -16 -5 6 5 36 12 36 2 0 2 -9 -1 -20z m60 -42 c23 -3 32
-25 19 -45 -4 -7 -27 -15 -50 -19 l-42 -7 0 37 c0 20 5 36 11 36 5 0 15 15 22
33 l12 32 3 -32 c2 -24 9 -33 25 -35z"/>
<path d="M153 2003 c-28 -5 -30 -23 -4 -23 26 0 51 10 51 21 0 9 -8 10 -47 2z"/>
<path d="M381 1723 c4 -76 0 -103 -17 -103 -12 0 -15 9 -12 42 2 33 -1 43 -13
46 -14 3 -16 -4 -12 -42 5 -37 3 -46 -10 -46 -12 0 -17 12 -19 47 -4 66 -28
70 -28 4 0 -39 -4 -51 -15 -51 -9 0 -15 9 -15 25 0 20 -5 25 -25 25 -14 0 -25
4 -25 9 0 15 30 41 46 41 8 0 14 5 14 10 0 13 -24 13 -93 -1 -55 -11 -78 -29
-37 -29 27 0 27 -40 0 -47 -16 -4 -20 -14 -20 -52 0 -25 -3 -63 -6 -83 l-7
-37 52 6 c33 4 56 2 65 -6 25 -21 36 -3 36 59 0 50 2 58 16 53 16 -6 16 -43
-2 -87 -5 -14 -3 -17 7 -14 8 2 18 22 23 44 14 62 14 64 31 57 14 -5 15 -15
10 -54 -6 -41 -4 -49 9 -49 13 0 16 11 16 56 0 40 3 55 13 52 8 -3 13 -30 15
-77 2 -51 6 -71 15 -68 15 5 27 288 12 299 -20 15 -27 7 -24 -29z m-214 -55
c-3 -7 -5 -2 -5 12 0 14 2 19 5 13 2 -7 2 -19 0 -25z m51 -46 c2 -15 -2 -22
-12 -22 -11 0 -16 9 -16 26 0 31 23 28 28 -4z m-85 -2 c-3 -12 -8 -19 -11 -16
-5 6 5 36 12 36 2 0 2 -9 -1 -20z m60 -42 c23 -3 32 -25 19 -45 -4 -7 -27 -15
-50 -19 l-42 -7 0 37 c0 20 5 36 11 36 5 0 15 15 22 33 l12 32 3 -32 c2 -24 9
-33 25 -35z"/>
<path d="M153 1553 c-28 -5 -30 -23 -4 -23 26 0 51 10 51 21 0 9 -8 10 -47 2z"/>
</g>
</svg>
