<?xml version="1.0" standalone="no"?>
<!DOCTYPE svg PUBLIC "-//W3C//DTD SVG 20010904//EN"
 "http://www.w3.org/TR/2001/REC-SVG-20010904/DTD/svg10.dtd">
<svg version="1.0" xmlns="http://www.w3.org/2000/svg"
 width="50.000000pt" height="725.000000pt" viewBox="0 0 50.000000 725.000000"
 preserveAspectRatio="xMidYMid meet">
<metadata>
Created by potrace 1.16, written by Peter Selinger 2001-2019
</metadata>
<g transform="translate(0.000000,725.000000) scale(0.100000,-0.100000)"
fill="#000000" stroke="none">
<path d="M148 7117 c-50 -11 -65 -27 -25 -27 49 0 97 13 97 26 0 16 -5 16 -72
1z"/>
<path d="M148 6667 c-50 -11 -65 -27 -25 -27 49 0 97 13 97 26 0 16 -5 16 -72
1z"/>
<path d="M93 6509 c-1 -66 2 -89 10 -86 18 5 22 177 5 177 -10 0 -13 -24 -15
-91z"/>
<path d="M148 6217 c-50 -11 -65 -27 -25 -27 49 0 97 13 97 26 0 16 -5 16 -72
1z"/>
<path d="M160 6151 c0 -5 10 -11 23 -13 20 -3 22 -8 22 -63 -1 -33 -4 -67 -8
-75 -4 -8 -3 -22 3 -30 18 -28 28 4 31 95 l3 90 -37 3 c-20 2 -37 -1 -37 -7z"/>
<path d="M93 6059 c-1 -66 2 -89 10 -86 8 2 13 32 15 80 2 59 6 77 17 77 8 0
15 5 15 10 0 6 -12 10 -27 10 l-28 0 -2 -91z"/>
<path d="M148 5767 c-52 -11 -61 -21 -27 -30 25 -7 20 -31 -7 -35 -17 -3 -19
-13 -21 -93 -1 -66 2 -89 10 -86 7 2 13 19 15 38 1 19 9 48 17 64 7 17 16 38
19 48 4 12 14 17 28 15 21 -3 23 -8 23 -63 -1 -33 -4 -67 -8 -75 -4 -8 -3 -22
3 -30 18 -28 28 4 31 95 l3 90 -37 3 c-30 3 -37 7 -35 20 2 10 15 18 31 20 15
2 27 9 27 18 0 16 -5 16 -72 1z m-21 -119 c-3 -7 -5 -2 -5 12 0 14 2 19 5 13
2 -7 2 -19 0 -25z"/>
<path d="M148 5317 c-52 -11 -61 -21 -27 -30 25 -7 20 -31 -7 -35 -17 -3 -19
-13 -21 -93 -1 -66 2 -89 10 -86 7 2 13 21 15 42 2 21 10 48 18 59 8 11 15 30
15 41 1 13 4 9 8 -10 4 -21 13 -31 30 -33 19 -3 22 -8 18 -30 -2 -15 -7 -34
-10 -42 -4 -8 -3 -22 3 -30 18 -28 28 4 31 95 3 86 3 90 -19 93 -25 4 -32 42
-7 42 8 0 15 7 15 15 0 17 -4 17 -72 2z m62 -108 c0 -20 -15 -26 -25 -9 -9 15
3 43 15 35 5 -3 10 -15 10 -26z m-83 -11 c-3 -7 -5 -2 -5 12 0 14 2 19 5 13 2
-7 2 -19 0 -25z"/>
<path d="M148 4867 c-52 -11 -61 -21 -27 -30 25 -7 20 -31 -7 -35 -17 -3 -19
-13 -21 -93 -1 -66 2 -89 10 -86 7 2 13 21 15 42 2 21 10 48 18 59 8 11 15 30
15 41 1 13 4 9 8 -10 4 -21 13 -31 30 -33 19 -3 22 -8 18 -30 -2 -15 -7 -34
-10 -42 -4 -8 -3 -22 3 -30 18 -28 28 4 31 95 3 86 3 90 -19 93 -25 4 -32 42
-7 42 8 0 15 7 15 15 0 17 -4 17 -72 2z m62 -108 c0 -20 -15 -26 -25 -9 -9 15
3 43 15 35 5 -3 10 -15 10 -26z m-83 -11 c-3 -7 -5 -2 -5 12 0 14 2 19 5 13 2
-7 2 -19 0 -25z"/>
<path d="M148 4693 c-24 -6 -23 -23 1 -23 26 0 51 10 51 21 0 9 -22 10 -52 2z"/>
<path d="M148 4417 c-52 -11 -61 -21 -27 -30 25 -7 20 -31 -7 -35 -17 -3 -19
-12 -21 -92 l-2 -89 51 6 c37 4 52 2 59 -8 17 -27 27 6 30 96 3 86 3 90 -19
93 -25 4 -32 42 -7 42 8 0 15 7 15 15 0 17 -4 17 -72 2z m62 -108 c0 -20 -15
-26 -25 -9 -9 15 3 43 15 35 5 -3 10 -15 10 -26z m-83 -11 c-3 -7 -5 -2 -5 12
0 14 2 19 5 13 2 -7 2 -19 0 -25z m61 -26 c33 -5 30 -49 -4 -62 -46 -18 -64
-13 -64 18 0 15 7 36 15 46 8 11 16 29 16 40 1 14 4 11 8 -9 4 -21 13 -31 29
-33z"/>
<path d="M148 4243 c-24 -6 -23 -23 1 -23 26 0 51 10 51 21 0 9 -22 10 -52 2z"/>
<path d="M148 3967 c-52 -11 -61 -21 -27 -30 25 -7 20 -31 -7 -35 -17 -3 -19
-12 -21 -92 l-2 -89 51 6 c37 4 52 2 59 -8 17 -27 27 6 30 96 3 86 3 90 -19
93 -25 4 -32 42 -7 42 8 0 15 7 15 15 0 17 -4 17 -72 2z m62 -108 c0 -20 -15
-26 -25 -9 -9 15 3 43 15 35 5 -3 10 -15 10 -26z m-83 -11 c-3 -7 -5 -2 -5 12
0 14 2 19 5 13 2 -7 2 -19 0 -25z m61 -26 c33 -5 30 -49 -4 -62 -46 -18 -64
-13 -64 18 0 15 7 36 15 46 8 11 16 29 16 40 1 14 4 11 8 -9 4 -21 13 -31 29
-33z"/>
<path d="M148 3793 c-24 -6 -23 -23 1 -23 26 0 51 10 51 21 0 9 -22 10 -52 2z"/>
<path d="M255 3943 c4 -10 10 -28 12 -40 8 -37 23 -26 23 17 0 34 -3 40 -21
40 -16 0 -19 -4 -14 -17z"/>
<path d="M148 3517 c-52 -11 -61 -21 -27 -30 25 -7 20 -31 -7 -35 -17 -3 -19
-12 -21 -92 l-2 -89 51 6 c37 4 52 2 59 -8 17 -27 27 6 30 96 3 86 3 90 -19
93 -25 4 -32 42 -7 42 8 0 15 7 15 15 0 17 -4 17 -72 2z m62 -108 c0 -20 -15
-26 -25 -9 -9 15 3 43 15 35 5 -3 10 -15 10 -26z m-83 -11 c-3 -7 -5 -2 -5 12
0 14 2 19 5 13 2 -7 2 -19 0 -25z m61 -26 c33 -5 30 -49 -4 -62 -46 -18 -64
-13 -64 18 0 15 7 36 15 46 8 11 16 29 16 40 1 14 4 11 8 -9 4 -21 13 -31 29
-33z"/>
<path d="M148 3343 c-24 -6 -23 -23 1 -23 26 0 51 10 51 21 0 9 -22 10 -52 2z"/>
<path d="M297 3518 c-39 -8 -47 -14 -41 -27 3 -9 9 -26 11 -38 8 -34 21 -28
25 10 2 27 8 33 31 35 23 3 27 0 27 -23 0 -32 16 -29 38 8 15 24 15 29 2 37
-18 11 -29 11 -93 -2z"/>
<path d="M148 3067 c-52 -11 -61 -21 -27 -30 25 -7 20 -31 -7 -35 -17 -3 -19
-12 -21 -92 l-2 -89 51 6 c37 4 52 2 59 -8 17 -27 27 6 30 96 3 86 3 90 -19
93 -25 4 -32 42 -7 42 8 0 15 7 15 15 0 17 -4 17 -72 2z m62 -108 c0 -20 -15
-26 -25 -9 -9 15 3 43 15 35 5 -3 10 -15 10 -26z m-83 -11 c-3 -7 -5 -2 -5 12
0 14 2 19 5 13 2 -7 2 -19 0 -25z m61 -26 c33 -5 30 -49 -4 -62 -46 -18 -64
-13 -64 18 0 15 7 36 15 46 8 11 16 29 16 40 1 14 4 11 8 -9 4 -21 13 -31 29
-33z"/>
<path d="M148 2893 c-24 -6 -23 -23 1 -23 26 0 51 10 51 21 0 9 -22 10 -52 2z"/>
<path d="M297 3068 c-39 -8 -47 -14 -41 -27 3 -9 9 -26 11 -37 10 -47 133 2
133 52 0 24 -28 27 -103 12z m51 -35 c-4 -22 -58 -31 -58 -10 0 20 10 27 37
27 18 0 24 -5 21 -17z"/>
<path d="M148 2617 c-52 -11 -61 -21 -27 -30 25 -7 20 -31 -7 -35 -17 -3 -19
-12 -21 -92 l-2 -89 51 6 c37 4 52 2 59 -8 17 -27 27 6 30 96 3 86 3 90 -19
93 -25 4 -32 42 -7 42 8 0 15 7 15 15 0 17 -4 17 -72 2z m62 -108 c0 -20 -15
-26 -25 -9 -9 15 3 43 15 35 5 -3 10 -15 10 -26z m-83 -11 c-3 -7 -5 -2 -5 12
0 14 2 19 5 13 2 -7 2 -19 0 -25z m61 -26 c33 -5 30 -49 -4 -62 -46 -18 -64
-13 -64 18 0 15 7 36 15 46 8 11 16 29 16 40 1 14 4 11 8 -9 4 -21 13 -31 29
-33z"/>
<path d="M148 2443 c-24 -6 -23 -23 1 -23 26 0 51 10 51 21 0 9 -22 10 -52 2z"/>
<path d="M297 2618 c-39 -8 -47 -14 -41 -27 3 -9 9 -26 11 -37 4 -19 10 -21
46 -17 39 4 41 3 23 -11 -11 -9 -34 -19 -53 -22 -18 -3 -33 -11 -33 -16 0 -7
13 -8 33 -3 17 3 49 9 70 12 38 6 51 28 22 39 -13 5 -12 10 5 34 24 34 25 46
4 54 -19 7 -24 7 -87 -6z m51 -35 c-4 -22 -58 -31 -58 -10 0 20 10 27 37 27
18 0 24 -5 21 -17z"/>
<path d="M148 2167 c-52 -11 -61 -21 -27 -30 25 -7 20 -31 -7 -35 -17 -3 -19
-12 -21 -92 l-2 -89 51 6 c37 4 52 2 59 -8 17 -27 27 6 30 96 3 86 3 90 -19
93 -25 4 -32 42 -7 42 8 0 15 7 15 15 0 17 -4 17 -72 2z m62 -108 c0 -20 -15
-26 -25 -9 -9 15 3 43 15 35 5 -3 10 -15 10 -26z m-83 -11 c-3 -7 -5 -2 -5 12
0 14 2 19 5 13 2 -7 2 -19 0 -25z m61 -26 c33 -5 30 -49 -4 -62 -46 -18 -64
-13 -64 18 0 15 7 36 15 46 8 11 16 29 16 40 1 14 4 11 8 -9 4 -21 13 -31 29
-33z"/>
<path d="M148 1993 c-24 -6 -23 -23 1 -23 26 0 51 10 51 21 0 9 -22 10 -52 2z"/>
<path d="M297 2168 c-39 -8 -47 -14 -41 -27 3 -9 9 -26 11 -37 4 -19 10 -21
46 -17 39 4 41 3 23 -11 -11 -9 -34 -19 -53 -22 -18 -3 -33 -11 -33 -16 0 -7
13 -8 33 -3 17 3 49 9 70 12 38 6 51 28 22 39 -13 5 -12 10 5 34 24 34 25 46
4 54 -19 7 -24 7 -87 -6z m51 -35 c-4 -22 -58 -31 -58 -10 0 20 10 27 37 27
18 0 24 -5 21 -17z"/>
<path d="M288 2003 c-50 -5 -49 -23 1 -23 51 0 101 10 101 21 0 9 -30 9 -102
2z"/>
<path d="M148 1717 c-52 -11 -61 -21 -27 -30 25 -7 20 -31 -7 -35 -17 -3 -19
-12 -21 -92 l-2 -89 51 6 c37 4 52 2 59 -8 17 -27 27 6 30 96 3 86 3 90 -19
93 -25 4 -32 42 -7 42 8 0 15 7 15 15 0 17 -4 17 -72 2z m62 -108 c0 -20 -15
-26 -25 -9 -9 15 3 43 15 35 5 -3 10 -15 10 -26z m-83 -11 c-3 -7 -5 -2 -5 12
0 14 2 19 5 13 2 -7 2 -19 0 -25z m61 -26 c33 -5 30 -49 -4 -62 -46 -18 -64
-13 -64 18 0 15 7 36 15 46 8 11 16 29 16 40 1 14 4 11 8 -9 4 -21 13 -31 29
-33z"/>
<path d="M148 1543 c-24 -6 -23 -23 1 -23 26 0 51 10 51 21 0 9 -22 10 -52 2z"/>
<path d="M297 1718 c-39 -8 -47 -14 -41 -27 3 -9 9 -26 11 -37 4 -19 10 -21
46 -17 39 4 41 3 23 -11 -11 -9 -34 -19 -53 -22 -18 -3 -33 -11 -33 -16 0 -6
12 -8 30 -4 25 5 30 2 30 -14 0 -16 -7 -20 -30 -20 -16 0 -30 -4 -30 -10 0 -5
14 -10 30 -10 23 0 30 -4 30 -20 0 -27 13 -25 25 3 6 12 20 23 33 25 30 5 28
22 -3 22 -18 0 -25 5 -25 20 0 15 7 20 25 20 28 0 35 27 10 36 -13 5 -12 10 5
34 24 34 25 46 4 54 -19 7 -24 7 -87 -6z m51 -35 c-4 -22 -58 -31 -58 -10 0
20 10 27 37 27 18 0 24 -5 21 -17z"/>
<path d="M148 1267 c-52 -11 -61 -21 -27 -30 25 -7 20 -31 -7 -35 -17 -3 -19
-12 -21 -92 l-2 -89 51 6 c37 4 52 2 59 -8 17 -27 27 6 30 96 3 86 3 90 -19
93 -25 4 -32 42 -7 42 8 0 15 7 15 15 0 17 -4 17 -72 2z m62 -108 c0 -20 -15
-26 -25 -9 -9 15 3 43 15 35 5 -3 10 -15 10 -26z m-83 -11 c-3 -7 -5 -2 -5 12
0 14 2 19 5 13 2 -7 2 -19 0 -25z m61 -26 c33 -5 30 -49 -4 -62 -46 -18 -64
-13 -64 18 0 15 7 36 15 46 8 11 16 29 16 40 1 14 4 11 8 -9 4 -21 13 -31 29
-33z"/>
<path d="M148 1093 c-24 -6 -23 -23 1 -23 26 0 51 10 51 21 0 9 -22 10 -52 2z"/>
<path d="M297 1268 c-39 -8 -47 -14 -41 -27 3 -9 9 -26 11 -37 4 -19 10 -21
46 -17 39 4 41 3 23 -11 -11 -9 -34 -19 -53 -22 -18 -3 -33 -11 -33 -16 0 -6
12 -8 30 -4 25 5 30 2 30 -14 0 -16 -7 -20 -30 -20 -16 0 -30 -4 -30 -10 0 -5
14 -10 31 -10 44 0 37 -34 -9 -38 -17 -2 -32 -8 -32 -14 0 -7 22 -9 68 -5 37
4 77 7 90 7 12 0 22 5 22 10 0 6 -20 10 -45 10 -25 0 -45 4 -45 8 0 14 23 32
42 32 10 0 18 5 18 10 0 6 -11 10 -25 10 -18 0 -25 5 -25 20 0 15 7 20 25 20
28 0 35 27 10 36 -13 5 -12 10 5 34 24 34 25 46 4 54 -19 7 -24 7 -87 -6z m51
-35 c-4 -22 -58 -31 -58 -10 0 20 10 27 37 27 18 0 24 -5 21 -17z"/>
</g>
</svg>
