<?xml version="1.0" standalone="no"?>
<!DOCTYPE svg PUBLIC "-//W3C//DTD SVG 20010904//EN"
 "http://www.w3.org/TR/2001/REC-SVG-20010904/DTD/svg10.dtd">
<svg version="1.0" xmlns="http://www.w3.org/2000/svg"
 width="50.000000pt" height="725.000000pt" viewBox="0 0 50.000000 725.000000"
 preserveAspectRatio="xMidYMid meet">
<metadata>
Created by potrace 1.16, written by Peter Selinger 2001-2019
</metadata>
<g transform="translate(0.000000,725.000000) scale(0.100000,-0.100000)"
fill="#000000" stroke="none">
<path d="M133 7128 c-44 -9 -59 -28 -23 -28 36 0 120 22 120 31 0 11 -41 10
-97 -3z"/>
<path d="M133 6678 c-44 -9 -59 -28 -23 -28 36 0 120 22 120 31 0 11 -41 10
-97 -3z"/>
<path d="M88 6535 c-1 -36 -2 -72 -2 -82 -1 -9 5 -18 12 -20 9 -4 12 17 12 81
0 101 -19 119 -22 21z"/>
<path d="M133 6228 c-44 -9 -59 -28 -23 -28 36 0 120 22 120 31 0 11 -41 10
-97 -3z"/>
<path d="M170 6161 c0 -6 7 -11 15 -11 12 0 15 -14 15 -64 0 -41 -4 -66 -12
-68 -16 -6 -2 -38 17 -38 12 0 15 15 17 75 1 41 2 83 2 93 1 11 -8 18 -26 20
-16 2 -28 -1 -28 -7z"/>
<path d="M108 6153 c-15 -4 -18 -17 -20 -69 -1 -35 -2 -71 -2 -81 -1 -9 4 -18
11 -20 9 -3 13 18 15 74 3 72 5 78 26 81 12 2 22 8 22 13 0 9 -21 10 -52 2z"/>
<path d="M133 5778 c-44 -9 -59 -28 -23 -28 14 0 20 -7 20 -21 0 -12 -8 -23
-20 -26 -17 -5 -20 -15 -22 -69 -1 -35 -2 -71 -2 -81 -1 -9 5 -18 12 -20 8 -3
12 10 12 45 0 35 4 52 15 56 8 3 15 14 15 25 0 11 4 22 9 26 5 3 7 20 4 39 -5
32 -4 33 36 40 23 3 41 11 41 16 0 12 -40 11 -97 -2z m-16 -120 c-3 -8 -6 -5
-6 6 -1 11 2 17 5 13 3 -3 4 -12 1 -19z"/>
<path d="M170 5711 c0 -6 7 -11 15 -11 12 0 15 -14 15 -64 0 -41 -4 -66 -12
-68 -16 -6 -2 -38 17 -38 12 0 15 15 17 75 1 41 2 83 2 93 1 11 -8 18 -26 20
-16 2 -28 -1 -28 -7z"/>
<path d="M133 5328 c-44 -9 -59 -28 -23 -28 14 0 20 -7 20 -21 0 -12 -8 -23
-20 -26 -17 -5 -20 -15 -22 -69 -1 -35 -2 -71 -2 -81 -1 -9 5 -18 12 -20 8 -3
12 10 12 45 0 35 4 52 15 56 8 3 15 14 15 25 0 11 5 23 10 26 6 4 10 -7 10
-24 0 -24 4 -31 20 -31 15 0 20 -7 20 -29 0 -16 -5 -31 -12 -33 -16 -6 -2 -38
17 -38 12 0 15 15 17 75 1 41 2 83 2 93 1 10 -8 18 -21 20 -32 5 -30 40 2 48
14 3 25 10 25 15 0 11 -41 10 -97 -3z m24 -60 c-3 -7 -5 -2 -5 12 0 14 2 19 5
13 2 -7 2 -19 0 -25z m43 -43 c0 -14 -4 -25 -10 -25 -5 0 -10 11 -10 25 0 14
5 25 10 25 6 0 10 -11 10 -25z m-83 -17 c-3 -8 -6 -5 -6 6 -1 11 2 17 5 13 3
-3 4 -12 1 -19z"/>
<path d="M133 4878 c-44 -9 -59 -28 -23 -28 14 0 20 -7 20 -21 0 -12 -8 -23
-20 -26 -17 -5 -20 -15 -22 -69 -1 -35 -2 -71 -2 -81 -1 -9 5 -18 12 -20 8 -3
12 10 12 45 0 35 4 52 15 56 8 3 15 14 15 25 0 11 5 23 10 26 6 4 10 -7 10
-24 0 -24 4 -31 20 -31 15 0 20 -7 20 -29 0 -16 -5 -31 -12 -33 -16 -6 -2 -38
17 -38 12 0 15 15 17 75 1 41 2 83 2 93 1 10 -8 18 -21 20 -32 5 -30 40 2 48
14 3 25 10 25 15 0 11 -41 10 -97 -3z m24 -60 c-3 -7 -5 -2 -5 12 0 14 2 19 5
13 2 -7 2 -19 0 -25z m43 -43 c0 -14 -4 -25 -10 -25 -5 0 -10 11 -10 25 0 14
5 25 10 25 6 0 10 -11 10 -25z m-83 -17 c-3 -8 -6 -5 -6 6 -1 11 2 17 5 13 3
-3 4 -12 1 -19z"/>
<path d="M143 4703 c-13 -2 -23 -9 -23 -14 0 -15 53 -7 58 9 2 6 0 11 -5 11
-4 -1 -18 -4 -30 -6z"/>
<path d="M133 4428 c-44 -9 -59 -28 -23 -28 14 0 20 -7 20 -21 0 -12 -8 -23
-20 -26 -17 -5 -20 -15 -22 -69 -1 -35 -2 -71 -2 -80 -1 -14 11 -17 67 -18
l67 -2 2 73 c1 40 2 81 2 91 1 10 -8 18 -21 20 -32 5 -30 40 2 48 14 3 25 10
25 15 0 11 -41 10 -97 -3z m24 -60 c-3 -7 -5 -2 -5 12 0 14 2 19 5 13 2 -7 2
-19 0 -25z m43 -43 c0 -14 -4 -25 -10 -25 -5 0 -10 11 -10 25 0 14 5 25 10 25
6 0 10 -11 10 -25z m-19 -45 c14 0 19 -7 19 -29 0 -24 -5 -29 -31 -35 -17 -3
-38 -6 -45 -6 -20 0 -19 66 1 74 8 3 15 14 15 24 0 33 15 35 18 3 2 -23 8 -31
23 -31z m-64 28 c-3 -8 -6 -5 -6 6 -1 11 2 17 5 13 3 -3 4 -12 1 -19z"/>
<path d="M143 4253 c-13 -2 -23 -9 -23 -14 0 -15 53 -7 58 9 2 6 0 11 -5 11
-4 -1 -18 -4 -30 -6z"/>
<path d="M280 4015 c0 -16 26 -55 37 -55 20 0 16 38 -6 50 -21 11 -31 13 -31
5z"/>
<path d="M133 3978 c-44 -9 -59 -28 -23 -28 14 0 20 -7 20 -21 0 -12 -8 -23
-20 -26 -17 -5 -20 -15 -22 -69 -1 -35 -2 -71 -2 -80 -1 -14 11 -17 67 -18
l67 -2 2 73 c1 40 2 81 2 91 1 10 -8 18 -21 20 -32 5 -30 40 2 48 14 3 25 10
25 15 0 11 -41 10 -97 -3z m24 -60 c-3 -7 -5 -2 -5 12 0 14 2 19 5 13 2 -7 2
-19 0 -25z m43 -43 c0 -14 -4 -25 -10 -25 -5 0 -10 11 -10 25 0 14 5 25 10 25
6 0 10 -11 10 -25z m-19 -45 c14 0 19 -7 19 -29 0 -24 -5 -29 -31 -35 -17 -3
-38 -6 -45 -6 -20 0 -19 66 1 74 8 3 15 14 15 24 0 33 15 35 18 3 2 -23 8 -31
23 -31z m-64 28 c-3 -8 -6 -5 -6 6 -1 11 2 17 5 13 3 -3 4 -12 1 -19z"/>
<path d="M143 3803 c-13 -2 -23 -9 -23 -14 0 -15 53 -7 58 9 2 6 0 11 -5 11
-4 -1 -18 -4 -30 -6z"/>
<path d="M285 3553 c12 -33 10 -38 -17 -41 -16 -2 -28 -8 -28 -14 0 -10 103
-4 136 9 26 10 14 25 -16 21 -20 -3 -30 0 -30 8 0 7 -9 18 -19 24 -28 14 -34
13 -26 -7z"/>
<path d="M133 3528 c-44 -9 -59 -28 -23 -28 14 0 20 -7 20 -21 0 -12 -8 -23
-20 -26 -17 -5 -20 -15 -22 -69 -1 -35 -2 -71 -2 -80 -1 -14 11 -17 67 -18
l67 -2 2 73 c1 40 2 81 2 91 1 10 -8 18 -21 20 -32 5 -30 40 2 48 14 3 25 10
25 15 0 11 -41 10 -97 -3z m24 -60 c-3 -7 -5 -2 -5 12 0 14 2 19 5 13 2 -7 2
-19 0 -25z m43 -43 c0 -14 -4 -25 -10 -25 -5 0 -10 11 -10 25 0 14 5 25 10 25
6 0 10 -11 10 -25z m-19 -45 c14 0 19 -7 19 -29 0 -24 -5 -29 -31 -35 -17 -3
-38 -6 -45 -6 -20 0 -19 66 1 74 8 3 15 14 15 24 0 33 15 35 18 3 2 -23 8 -31
23 -31z m-64 28 c-3 -8 -6 -5 -6 6 -1 11 2 17 5 13 3 -3 4 -12 1 -19z"/>
<path d="M143 3353 c-13 -2 -23 -9 -23 -14 0 -15 53 -7 58 9 2 6 0 11 -5 11
-4 -1 -18 -4 -30 -6z"/>
<path d="M285 3103 c12 -33 10 -38 -17 -41 -16 -2 -28 -8 -28 -14 0 -10 103
-4 136 9 26 10 14 25 -16 21 -20 -3 -30 0 -30 8 0 7 -9 18 -19 24 -28 14 -34
13 -26 -7z"/>
<path d="M133 3078 c-44 -9 -59 -28 -23 -28 14 0 20 -7 20 -21 0 -12 -8 -23
-20 -26 -17 -5 -20 -15 -22 -69 -1 -35 -2 -71 -2 -80 -1 -14 11 -17 67 -18
l67 -2 2 73 c1 40 2 81 2 91 1 10 -8 18 -21 20 -32 5 -30 40 2 48 14 3 25 10
25 15 0 11 -41 10 -97 -3z m24 -60 c-3 -7 -5 -2 -5 12 0 14 2 19 5 13 2 -7 2
-19 0 -25z m43 -43 c0 -14 -4 -25 -10 -25 -5 0 -10 11 -10 25 0 14 5 25 10 25
6 0 10 -11 10 -25z m-19 -45 c14 0 19 -7 19 -29 0 -24 -5 -29 -31 -35 -17 -3
-38 -6 -45 -6 -20 0 -19 66 1 74 8 3 15 14 15 24 0 33 15 35 18 3 2 -23 8 -31
23 -31z m-64 28 c-3 -8 -6 -5 -6 6 -1 11 2 17 5 13 3 -3 4 -12 1 -19z"/>
<path d="M143 2903 c-13 -2 -23 -9 -23 -14 0 -15 53 -7 58 9 2 6 0 11 -5 11
-4 -1 -18 -4 -30 -6z"/>
<path d="M248 2993 c-10 -20 -15 -39 -12 -42 7 -8 54 50 54 67 0 25 -26 10
-42 -25z"/>
<path d="M285 2653 c12 -33 10 -38 -17 -41 -16 -2 -28 -8 -28 -14 0 -10 103
-4 136 9 26 10 14 25 -16 21 -20 -3 -30 0 -30 8 0 7 -9 18 -19 24 -28 14 -34
13 -26 -7z"/>
<path d="M133 2628 c-44 -9 -59 -28 -23 -28 14 0 20 -7 20 -21 0 -12 -8 -23
-20 -26 -17 -5 -20 -15 -22 -69 -1 -35 -2 -71 -2 -80 -1 -14 11 -17 67 -18
l67 -2 2 73 c1 40 2 81 2 91 1 10 -8 18 -21 20 -32 5 -30 40 2 48 14 3 25 10
25 15 0 11 -41 10 -97 -3z m24 -60 c-3 -7 -5 -2 -5 12 0 14 2 19 5 13 2 -7 2
-19 0 -25z m43 -43 c0 -14 -4 -25 -10 -25 -5 0 -10 11 -10 25 0 14 5 25 10 25
6 0 10 -11 10 -25z m-19 -45 c14 0 19 -7 19 -29 0 -24 -5 -29 -31 -35 -17 -3
-38 -6 -45 -6 -20 0 -19 66 1 74 8 3 15 14 15 24 0 33 15 35 18 3 2 -23 8 -31
23 -31z m-64 28 c-3 -8 -6 -5 -6 6 -1 11 2 17 5 13 3 -3 4 -12 1 -19z"/>
<path d="M143 2453 c-13 -2 -23 -9 -23 -14 0 -15 53 -7 58 9 2 6 0 11 -5 11
-4 -1 -18 -4 -30 -6z"/>
<path d="M248 2543 c-20 -43 -16 -53 12 -28 11 10 20 13 20 7 0 -7 7 -12 15
-12 17 0 20 16 5 25 -5 3 -10 15 -10 26 0 31 -24 21 -42 -18z"/>
<path d="M285 2203 c12 -33 10 -38 -17 -41 -16 -2 -28 -8 -28 -14 0 -7 17 -9
50 -5 54 7 62 -2 39 -45 -18 -33 1 -35 27 -3 14 18 21 37 18 48 -3 9 -1 17 5
17 6 0 11 5 11 11 0 7 -12 10 -30 7 -20 -3 -30 0 -30 8 0 7 -9 18 -19 24 -28
14 -34 13 -26 -7z"/>
<path d="M133 2178 c-44 -9 -59 -28 -23 -28 14 0 20 -7 20 -21 0 -12 -8 -23
-20 -26 -17 -5 -20 -15 -22 -69 -1 -35 -2 -71 -2 -80 -1 -14 11 -17 67 -18
l67 -2 2 73 c1 40 2 81 2 91 1 10 -8 18 -21 20 -32 5 -30 40 2 48 14 3 25 10
25 15 0 11 -41 10 -97 -3z m24 -60 c-3 -7 -5 -2 -5 12 0 14 2 19 5 13 2 -7 2
-19 0 -25z m43 -43 c0 -14 -4 -25 -10 -25 -5 0 -10 11 -10 25 0 14 5 25 10 25
6 0 10 -11 10 -25z m-19 -45 c14 0 19 -7 19 -29 0 -24 -5 -29 -31 -35 -17 -3
-38 -6 -45 -6 -20 0 -19 66 1 74 8 3 15 14 15 24 0 33 15 35 18 3 2 -23 8 -31
23 -31z m-64 28 c-3 -8 -6 -5 -6 6 -1 11 2 17 5 13 3 -3 4 -12 1 -19z"/>
<path d="M143 2003 c-13 -2 -23 -9 -23 -14 0 -15 53 -7 58 9 2 6 0 11 -5 11
-4 -1 -18 -4 -30 -6z"/>
<path d="M248 2093 c-20 -43 -16 -53 12 -28 11 10 20 13 20 7 0 -7 7 -12 15
-12 17 0 20 16 5 25 -5 3 -10 15 -10 26 0 31 -24 21 -42 -18z"/>
<path d="M285 1753 c12 -33 10 -38 -17 -41 -16 -2 -28 -8 -28 -14 0 -7 18 -9
51 -5 49 6 51 5 46 -16 -2 -12 -8 -30 -12 -41 -7 -15 -5 -17 13 -12 11 4 23 2
27 -4 3 -5 13 -10 21 -10 18 0 19 29 1 36 -15 5 -19 64 -5 64 4 0 8 5 8 11 0
7 -12 10 -30 7 -20 -3 -30 0 -30 8 0 7 -9 18 -19 24 -28 14 -34 13 -26 -7z"/>
<path d="M133 1728 c-44 -9 -59 -28 -23 -28 14 0 20 -7 20 -21 0 -12 -8 -23
-20 -26 -17 -5 -20 -15 -22 -69 -1 -35 -2 -71 -2 -80 -1 -14 11 -17 67 -18
l67 -2 2 73 c1 40 2 81 2 91 1 10 -8 18 -21 20 -32 5 -30 40 2 48 14 3 25 10
25 15 0 11 -41 10 -97 -3z m24 -60 c-3 -7 -5 -2 -5 12 0 14 2 19 5 13 2 -7 2
-19 0 -25z m43 -43 c0 -14 -4 -25 -10 -25 -5 0 -10 11 -10 25 0 14 5 25 10 25
6 0 10 -11 10 -25z m-19 -45 c14 0 19 -7 19 -29 0 -24 -5 -29 -31 -35 -17 -3
-38 -6 -45 -6 -20 0 -19 66 1 74 8 3 15 14 15 24 0 33 15 35 18 3 2 -23 8 -31
23 -31z m-64 28 c-3 -8 -6 -5 -6 6 -1 11 2 17 5 13 3 -3 4 -12 1 -19z"/>
<path d="M143 1553 c-13 -2 -23 -9 -23 -14 0 -15 53 -7 58 9 2 6 0 11 -5 11
-4 -1 -18 -4 -30 -6z"/>
<path d="M248 1643 c-20 -43 -16 -53 12 -28 11 10 20 13 20 7 0 -7 7 -12 15
-12 17 0 20 16 5 25 -5 3 -10 15 -10 26 0 31 -24 21 -42 -18z"/>
<path d="M285 1303 c12 -33 10 -38 -17 -41 -16 -2 -28 -8 -28 -14 0 -7 18 -9
51 -5 49 6 51 5 46 -16 -2 -12 -8 -30 -12 -41 -7 -15 -5 -17 13 -12 11 4 23 2
27 -4 3 -5 13 -10 21 -10 18 0 19 29 1 36 -15 5 -19 64 -5 64 4 0 8 5 8 11 0
7 -12 10 -30 7 -20 -3 -30 0 -30 8 0 7 -9 18 -19 24 -28 14 -34 13 -26 -7z"/>
<path d="M133 1278 c-44 -9 -59 -28 -23 -28 14 0 20 -7 20 -21 0 -12 -8 -23
-20 -26 -17 -5 -20 -15 -22 -69 -1 -35 -2 -71 -2 -80 -1 -14 11 -17 67 -18
l67 -2 2 73 c1 40 2 81 2 91 1 10 -8 18 -21 20 -32 5 -30 40 2 48 14 3 25 10
25 15 0 11 -41 10 -97 -3z m24 -60 c-3 -7 -5 -2 -5 12 0 14 2 19 5 13 2 -7 2
-19 0 -25z m43 -43 c0 -14 -4 -25 -10 -25 -5 0 -10 11 -10 25 0 14 5 25 10 25
6 0 10 -11 10 -25z m-19 -45 c14 0 19 -7 19 -29 0 -24 -5 -29 -31 -35 -17 -3
-38 -6 -45 -6 -20 0 -19 66 1 74 8 3 15 14 15 24 0 33 15 35 18 3 2 -23 8 -31
23 -31z m-64 28 c-3 -8 -6 -5 -6 6 -1 11 2 17 5 13 3 -3 4 -12 1 -19z"/>
<path d="M143 1103 c-13 -2 -23 -9 -23 -14 0 -15 53 -7 58 9 2 6 0 11 -5 11
-4 -1 -18 -4 -30 -6z"/>
<path d="M248 1193 c-20 -43 -16 -53 12 -28 11 10 20 13 20 7 0 -7 7 -12 15
-12 17 0 20 16 5 25 -5 3 -10 15 -10 26 0 31 -24 21 -42 -18z"/>
<path d="M288 1128 c-74 -13 -78 -32 -5 -23 120 14 137 18 137 26 0 11 -57 10
-132 -3z"/>
<path d="M285 853 c12 -33 10 -38 -17 -41 -16 -2 -28 -8 -28 -14 0 -7 18 -9
51 -5 49 6 51 5 46 -16 -2 -12 -8 -30 -12 -41 -7 -15 -5 -17 13 -12 11 4 23 2
27 -4 3 -5 13 -10 21 -10 18 0 19 29 1 36 -15 5 -19 64 -5 64 4 0 8 5 8 11 0
7 -12 10 -30 7 -20 -3 -30 0 -30 8 0 7 -9 18 -19 24 -28 14 -34 13 -26 -7z"/>
<path d="M133 828 c-44 -9 -59 -28 -23 -28 14 0 20 -7 20 -21 0 -12 -8 -23
-20 -26 -17 -5 -20 -15 -22 -69 -1 -35 -2 -71 -2 -80 -1 -14 11 -17 67 -18
l67 -2 2 73 c1 40 2 81 2 91 1 10 -8 18 -21 20 -32 5 -30 40 2 48 14 3 25 10
25 15 0 11 -41 10 -97 -3z m24 -60 c-3 -7 -5 -2 -5 12 0 14 2 19 5 13 2 -7 2
-19 0 -25z m43 -43 c0 -14 -4 -25 -10 -25 -5 0 -10 11 -10 25 0 14 5 25 10 25
6 0 10 -11 10 -25z m-19 -45 c14 0 19 -7 19 -29 0 -24 -5 -29 -31 -35 -17 -3
-38 -6 -45 -6 -20 0 -19 66 1 74 8 3 15 14 15 24 0 33 15 35 18 3 2 -23 8 -31
23 -31z m-64 28 c-3 -8 -6 -5 -6 6 -1 11 2 17 5 13 3 -3 4 -12 1 -19z"/>
<path d="M143 653 c-13 -2 -23 -9 -23 -14 0 -15 53 -7 58 9 2 6 0 11 -5 11 -4
-1 -18 -4 -30 -6z"/>
<path d="M248 743 c-20 -42 -16 -53 9 -31 15 14 20 14 31 2 23 -25 7 -44 -39
-44 -10 0 -19 -5 -19 -11 0 -8 12 -10 35 -6 l35 6 0 -65 c0 -35 4 -64 9 -64
14 0 21 27 21 80 l0 49 45 7 c55 8 59 24 6 24 -43 0 -91 38 -91 71 0 31 -24
21 -42 -18z"/>
</g>
</svg>
