<?xml version="1.0" standalone="no"?>
<!DOCTYPE svg PUBLIC "-//W3C//DTD SVG 20010904//EN"
 "http://www.w3.org/TR/2001/REC-SVG-20010904/DTD/svg10.dtd">
<svg version="1.0" xmlns="http://www.w3.org/2000/svg"
 width="95.000000pt" height="725.000000pt" viewBox="0 0 95.000000 725.000000"
 preserveAspectRatio="xMidYMid meet">
<metadata>
Created by potrace 1.16, written by Peter Selinger 2001-2019
</metadata>
<g transform="translate(0.000000,725.000000) scale(0.100000,-0.100000)"
fill="#000000" stroke="none">
<path d="M327 7090 c6 -60 6 -60 -21 -60 -14 0 -26 -4 -26 -10 0 -5 11 -10 25
-10 19 0 25 -5 25 -22 -1 -21 -2 -21 -11 -5 -14 24 -23 21 -36 -14 -7 -19 -16
-28 -23 -24 -9 5 -9 10 -1 18 6 6 11 19 11 30 0 15 -5 17 -30 12 -31 -7 -39 5
-21 33 7 11 9 11 14 -2 8 -20 37 -21 37 -1 0 14 -31 37 -47 34 -4 -1 -16 -1
-25 0 -21 1 -25 37 -5 44 29 10 -6 18 -52 12 -53 -7 -66 -19 -30 -28 25 -7 20
-31 -7 -35 -17 -2 -19 -13 -21 -93 -2 -78 0 -90 13 -85 46 18 66 18 85 0 12
-11 23 -14 27 -9 13 18 47 15 103 -10 48 -21 61 -23 88 -14 44 15 39 29 -11
30 -47 1 -110 20 -115 35 -1 5 9 17 22 27 l25 18 0 -31 c0 -20 5 -30 15 -30
12 0 15 13 15 55 0 54 1 56 30 62 38 7 33 29 -5 25 l-28 -3 7 49 c5 40 3 51
-10 56 -8 3 -17 6 -19 6 -2 0 -1 -27 2 -60z m-137 -65 c0 -14 -4 -25 -10 -25
-11 0 -14 33 -3 43 11 11 13 8 13 -18z m-73 -17 c-3 -7 -5 -2 -5 12 0 14 2 19
5 13 2 -7 2 -19 0 -25z m54 -25 c24 -7 25 -23 2 -23 -10 0 -28 -3 -40 -6 -27
-7 -31 10 -8 32 8 9 16 25 16 37 2 16 3 14 6 -7 3 -17 12 -30 24 -33z m62 -22
c-3 -10 0 -22 6 -25 16 -10 13 -26 -4 -26 -8 0 -15 6 -15 13 0 6 -3 22 -6 35
-5 16 -2 22 9 22 10 0 13 -6 10 -19z m-43 -31 c0 -5 -19 -9 -42 -9 -40 1 -41
2 -13 9 44 11 55 11 55 0z"/>
<path d="M568 7123 c-34 -5 -37 -23 -4 -23 38 0 86 12 86 21 0 9 -31 10 -82 2z"/>
<path d="M371 7094 c-6 -15 -10 -29 -7 -31 8 -9 46 22 44 36 -5 25 -24 22 -37
-5z"/>
<path d="M282 7074 c2 -11 11 -20 22 -22 13 -3 17 1 14 14 -2 11 -11 20 -22
22 -13 3 -17 -1 -14 -14z"/>
<path d="M360 6987 c0 -17 29 -57 41 -57 16 0 10 36 -9 53 -22 20 -32 21 -32
4z"/>
<path d="M568 6673 c-34 -5 -37 -23 -4 -23 38 0 86 12 86 21 0 9 -31 10 -82 2z"/>
<path d="M533 6520 c-2 -83 6 -112 21 -74 12 31 7 164 -6 164 -9 0 -14 -26
-15 -90z"/>
<path d="M568 6223 c-34 -5 -37 -23 -4 -23 38 0 86 12 86 21 0 9 -31 10 -82 2z"/>
<path d="M575 6163 l-40 -4 -2 -89 c-1 -50 2 -90 6 -90 15 0 21 29 21 96 0 54
3 64 18 64 9 0 27 3 40 6 21 6 22 4 22 -60 0 -37 -4 -66 -10 -66 -15 0 -12
-26 6 -41 25 -21 32 3 29 100 -2 96 1 93 -90 84z"/>
<path d="M568 5773 c-33 -5 -36 -18 -7 -26 25 -7 20 -31 -7 -35 -17 -2 -19
-12 -21 -92 -1 -50 2 -90 6 -90 13 0 21 27 21 66 0 19 4 34 10 34 5 0 13 12
16 28 7 28 20 42 42 42 8 0 12 -20 12 -65 0 -37 -4 -65 -10 -65 -15 0 -12 -26
6 -41 25 -21 32 3 29 100 l-2 86 -32 0 c-26 0 -31 3 -29 20 2 12 12 21 26 23
12 2 22 8 22 13 0 9 -30 10 -82 2z m-1 -115 c-3 -7 -5 -2 -5 12 0 14 2 19 5
13 2 -7 2 -19 0 -25z"/>
<path d="M568 5323 c-33 -5 -36 -18 -7 -26 25 -7 20 -31 -7 -35 -17 -2 -19
-12 -21 -92 -1 -50 2 -90 6 -90 13 0 21 27 21 66 0 19 4 34 10 34 5 0 14 15
19 33 l9 32 1 -28 c1 -20 7 -31 21 -34 14 -4 20 -14 20 -34 0 -16 -4 -29 -10
-29 -15 0 -12 -26 6 -41 25 -21 32 3 29 100 -2 71 -5 87 -19 89 -17 4 -23 42
-6 42 6 0 10 5 10 10 0 10 -29 11 -82 3z m72 -98 c0 -14 -4 -25 -10 -25 -11 0
-14 33 -3 43 11 11 13 8 13 -18z m-73 -17 c-3 -7 -5 -2 -5 12 0 14 2 19 5 13
2 -7 2 -19 0 -25z"/>
<path d="M568 4873 c-33 -5 -36 -18 -7 -26 25 -7 20 -31 -7 -35 -17 -2 -19
-12 -21 -92 -2 -85 9 -118 23 -66 4 18 14 25 42 30 35 5 59 -2 35 -11 -18 -6
-16 -28 3 -44 25 -21 32 3 29 100 -2 71 -5 87 -19 89 -17 4 -23 42 -6 42 6 0
10 5 10 10 0 10 -29 11 -82 3z m72 -98 c0 -14 -4 -25 -10 -25 -11 0 -14 33 -3
43 11 11 13 8 13 -18z m-73 -17 c-3 -7 -5 -2 -5 12 0 14 2 19 5 13 2 -7 2 -19
0 -25z m54 -25 c24 -7 25 -23 2 -23 -10 0 -28 -3 -40 -6 -27 -7 -31 10 -8 32
8 9 16 25 16 37 2 16 3 14 6 -7 3 -17 12 -30 24 -33z"/>
<path d="M568 4423 c-33 -5 -36 -18 -7 -26 25 -7 20 -31 -7 -35 -17 -2 -19
-13 -21 -93 -2 -78 0 -90 13 -85 46 18 66 18 85 0 30 -27 37 -7 34 95 -2 71
-5 87 -19 89 -17 4 -23 42 -6 42 6 0 10 5 10 10 0 10 -29 11 -82 3z m72 -98
c0 -14 -4 -25 -10 -25 -11 0 -14 33 -3 43 11 11 13 8 13 -18z m-73 -17 c-3 -7
-5 -2 -5 12 0 14 2 19 5 13 2 -7 2 -19 0 -25z m54 -25 c24 -7 25 -23 2 -23
-10 0 -28 -3 -40 -6 -27 -7 -31 10 -8 32 8 9 16 25 16 37 2 16 3 14 6 -7 3
-17 12 -30 24 -33z m19 -53 c0 -5 -19 -9 -42 -9 -40 1 -41 2 -13 9 44 11 55
11 55 0z"/>
<path d="M568 3973 c-33 -5 -36 -18 -7 -26 25 -7 20 -31 -7 -35 -17 -2 -19
-13 -21 -93 -2 -78 0 -90 13 -85 46 18 66 18 85 0 30 -27 37 -7 34 95 -2 71
-5 87 -19 89 -17 4 -23 42 -6 42 6 0 10 5 10 10 0 10 -29 11 -82 3z m72 -98
c0 -14 -4 -25 -10 -25 -11 0 -14 33 -3 43 11 11 13 8 13 -18z m-73 -17 c-3 -7
-5 -2 -5 12 0 14 2 19 5 13 2 -7 2 -19 0 -25z m54 -25 c24 -7 25 -23 2 -23
-10 0 -28 -3 -40 -6 -27 -7 -31 10 -8 32 8 9 16 25 16 37 2 16 3 14 6 -7 3
-17 12 -30 24 -33z m19 -53 c0 -5 -19 -9 -42 -9 -40 1 -41 2 -13 9 44 11 55
11 55 0z"/>
<path d="M732 3924 c2 -11 11 -20 22 -22 13 -3 17 1 14 14 -2 11 -11 20 -22
22 -13 3 -17 -1 -14 -14z"/>
<path d="M568 3523 c-33 -5 -36 -18 -7 -26 25 -7 20 -31 -7 -35 -17 -2 -19
-13 -21 -93 -2 -78 0 -90 13 -85 46 18 66 18 85 0 30 -27 37 -7 34 95 -2 71
-5 87 -19 89 -17 4 -23 42 -6 42 6 0 10 5 10 10 0 10 -29 11 -82 3z m72 -98
c0 -14 -4 -25 -10 -25 -11 0 -14 33 -3 43 11 11 13 8 13 -18z m-73 -17 c-3 -7
-5 -2 -5 12 0 14 2 19 5 13 2 -7 2 -19 0 -25z m54 -25 c24 -7 25 -23 2 -23
-10 0 -28 -3 -40 -6 -27 -7 -31 10 -8 32 8 9 16 25 16 37 2 16 3 14 6 -7 3
-17 12 -30 24 -33z m19 -53 c0 -5 -19 -9 -42 -9 -40 1 -41 2 -13 9 44 11 55
11 55 0z"/>
<path d="M821 3494 c-6 -15 -10 -29 -7 -31 8 -9 46 22 44 36 -5 25 -24 22 -37
-5z"/>
<path d="M732 3474 c2 -11 11 -20 22 -22 13 -3 17 1 14 14 -2 11 -11 20 -22
22 -13 3 -17 -1 -14 -14z"/>
<path d="M568 3073 c-33 -5 -36 -18 -7 -26 25 -7 20 -31 -7 -35 -17 -2 -19
-13 -21 -93 -2 -78 0 -90 13 -85 46 18 66 18 85 0 30 -27 37 -7 34 95 -2 71
-5 87 -19 89 -17 4 -23 42 -6 42 6 0 10 5 10 10 0 10 -29 11 -82 3z m72 -98
c0 -14 -4 -25 -10 -25 -11 0 -14 33 -3 43 11 11 13 8 13 -18z m-73 -17 c-3 -7
-5 -2 -5 12 0 14 2 19 5 13 2 -7 2 -19 0 -25z m54 -25 c24 -7 25 -23 2 -23
-10 0 -28 -3 -40 -6 -27 -7 -31 10 -8 32 8 9 16 25 16 37 2 16 3 14 6 -7 3
-17 12 -30 24 -33z m19 -53 c0 -5 -19 -9 -42 -9 -40 1 -41 2 -13 9 44 11 55
11 55 0z"/>
<path d="M821 3044 c-6 -15 -10 -29 -7 -31 8 -9 46 22 44 36 -5 25 -24 22 -37
-5z"/>
<path d="M732 3024 c2 -11 11 -20 22 -22 13 -3 17 1 14 14 -2 11 -11 20 -22
22 -13 3 -17 -1 -14 -14z"/>
<path d="M783 2987 c-60 -11 -71 -27 -19 -27 51 0 97 11 93 23 -5 15 -15 16
-74 4z"/>
<path d="M777 2590 c6 -60 6 -60 -21 -60 -14 0 -26 -4 -26 -10 0 -5 11 -10 25
-10 25 0 25 -1 19 -55 -6 -47 -4 -55 10 -55 13 0 16 11 16 55 0 54 1 56 30 62
38 7 33 29 -5 25 l-28 -3 7 49 c5 40 3 51 -10 56 -8 3 -17 6 -19 6 -2 0 -1
-27 2 -60z"/>
<path d="M568 2623 c-33 -5 -36 -18 -7 -26 25 -7 20 -31 -7 -35 -17 -2 -19
-13 -21 -93 -2 -78 0 -90 13 -85 46 18 66 18 85 0 30 -27 37 -7 34 95 -2 71
-5 87 -19 89 -17 4 -23 42 -6 42 6 0 10 5 10 10 0 10 -29 11 -82 3z m72 -98
c0 -14 -4 -25 -10 -25 -11 0 -14 33 -3 43 11 11 13 8 13 -18z m-73 -17 c-3 -7
-5 -2 -5 12 0 14 2 19 5 13 2 -7 2 -19 0 -25z m54 -25 c24 -7 25 -23 2 -23
-10 0 -28 -3 -40 -6 -27 -7 -31 10 -8 32 8 9 16 25 16 37 2 16 3 14 6 -7 3
-17 12 -30 24 -33z m19 -53 c0 -5 -19 -9 -42 -9 -40 1 -41 2 -13 9 44 11 55
11 55 0z"/>
<path d="M821 2594 c-6 -15 -10 -29 -7 -31 8 -9 46 22 44 36 -5 25 -24 22 -37
-5z"/>
<path d="M732 2574 c2 -11 11 -20 22 -22 13 -3 17 1 14 14 -2 11 -11 20 -22
22 -13 3 -17 -1 -14 -14z"/>
<path d="M777 2140 c6 -60 6 -60 -21 -60 -14 0 -26 -4 -26 -10 0 -5 11 -10 25
-10 19 0 25 -5 25 -22 -1 -21 -2 -21 -11 -5 -14 25 -23 21 -37 -15 -14 -39 -8
-47 18 -23 20 18 20 17 20 -13 0 -22 5 -32 15 -32 12 0 15 13 15 55 0 54 1 56
30 62 38 7 33 29 -5 25 l-28 -3 7 49 c5 40 3 51 -10 56 -8 3 -17 6 -19 6 -2 0
-1 -27 2 -60z"/>
<path d="M568 2173 c-33 -5 -36 -18 -7 -26 25 -7 20 -31 -7 -35 -17 -2 -19
-13 -21 -93 -2 -78 0 -90 13 -85 46 18 66 18 85 0 30 -27 37 -7 34 95 -2 71
-5 87 -19 89 -17 4 -23 42 -6 42 6 0 10 5 10 10 0 10 -29 11 -82 3z m72 -98
c0 -14 -4 -25 -10 -25 -11 0 -14 33 -3 43 11 11 13 8 13 -18z m-73 -17 c-3 -7
-5 -2 -5 12 0 14 2 19 5 13 2 -7 2 -19 0 -25z m54 -25 c24 -7 25 -23 2 -23
-10 0 -28 -3 -40 -6 -27 -7 -31 10 -8 32 8 9 16 25 16 37 2 16 3 14 6 -7 3
-17 12 -30 24 -33z m19 -53 c0 -5 -19 -9 -42 -9 -40 1 -41 2 -13 9 44 11 55
11 55 0z"/>
<path d="M821 2144 c-6 -15 -10 -29 -7 -31 8 -9 46 22 44 36 -5 25 -24 22 -37
-5z"/>
<path d="M732 2124 c2 -11 11 -20 22 -22 13 -3 17 1 14 14 -2 11 -11 20 -22
22 -13 3 -17 -1 -14 -14z"/>
<path d="M777 1690 c6 -60 6 -60 -21 -60 -14 0 -26 -4 -26 -10 0 -5 11 -10 25
-10 19 0 25 -5 25 -22 -1 -21 -2 -21 -11 -5 -14 25 -23 21 -37 -15 -14 -39 -8
-47 18 -23 20 18 20 17 20 -13 0 -22 5 -32 15 -32 12 0 15 13 15 55 0 54 1 56
30 62 38 7 33 29 -5 25 l-28 -3 7 49 c5 40 3 51 -10 56 -8 3 -17 6 -19 6 -2 0
-1 -27 2 -60z"/>
<path d="M568 1723 c-33 -5 -36 -18 -7 -26 25 -7 20 -31 -7 -35 -17 -2 -19
-13 -21 -93 -2 -78 0 -90 13 -85 46 18 66 18 85 0 30 -27 37 -7 34 95 -2 71
-5 87 -19 89 -17 4 -23 42 -6 42 6 0 10 5 10 10 0 10 -29 11 -82 3z m72 -98
c0 -14 -4 -25 -10 -25 -11 0 -14 33 -3 43 11 11 13 8 13 -18z m-73 -17 c-3 -7
-5 -2 -5 12 0 14 2 19 5 13 2 -7 2 -19 0 -25z m54 -25 c24 -7 25 -23 2 -23
-10 0 -28 -3 -40 -6 -27 -7 -31 10 -8 32 8 9 16 25 16 37 2 16 3 14 6 -7 3
-17 12 -30 24 -33z m19 -53 c0 -5 -19 -9 -42 -9 -40 1 -41 2 -13 9 44 11 55
11 55 0z"/>
<path d="M821 1694 c-6 -15 -10 -29 -7 -31 8 -9 46 22 44 36 -5 25 -24 22 -37
-5z"/>
<path d="M732 1674 c2 -11 11 -20 22 -22 13 -3 17 1 14 14 -2 11 -11 20 -22
22 -13 3 -17 -1 -14 -14z"/>
<path d="M810 1587 c0 -17 29 -57 41 -57 16 0 10 36 -9 53 -22 20 -32 21 -32
4z"/>
<path d="M777 1240 c6 -60 6 -60 -21 -60 -14 0 -26 -4 -26 -10 0 -5 11 -10 25
-10 19 0 25 -5 25 -22 -1 -21 -2 -21 -11 -5 -14 25 -23 21 -37 -15 -14 -39 -8
-47 18 -23 20 18 20 17 20 -13 0 -22 5 -32 15 -32 12 0 15 13 15 55 0 54 1 56
30 62 38 7 33 29 -5 25 l-28 -3 7 49 c5 40 3 51 -10 56 -8 3 -17 6 -19 6 -2 0
-1 -27 2 -60z"/>
<path d="M568 1273 c-33 -5 -36 -18 -7 -26 25 -7 20 -31 -7 -35 -17 -2 -19
-13 -21 -93 -2 -78 0 -90 13 -85 46 18 66 18 85 0 29 -26 41 -3 33 68 -7 66 2
112 18 85 11 -21 38 -22 38 -2 0 14 -31 37 -47 34 -27 -5 -43 3 -43 21 0 11 5
20 10 20 6 0 10 5 10 10 0 10 -29 11 -82 3z m72 -98 c0 -14 -4 -25 -10 -25
-11 0 -14 33 -3 43 11 11 13 8 13 -18z m-73 -17 c-3 -7 -5 -2 -5 12 0 14 2 19
5 13 2 -7 2 -19 0 -25z m54 -25 c24 -7 25 -23 2 -23 -10 0 -28 -3 -40 -6 -27
-7 -31 10 -8 32 8 9 16 25 16 37 2 16 3 14 6 -7 3 -17 12 -30 24 -33z m19 -53
c0 -5 -19 -9 -42 -9 -40 1 -41 2 -13 9 44 11 55 11 55 0z"/>
<path d="M821 1244 c-6 -15 -10 -29 -7 -31 8 -9 46 22 44 36 -5 25 -24 22 -37
-5z"/>
<path d="M732 1224 c2 -11 11 -20 22 -22 13 -3 17 1 14 14 -2 11 -11 20 -22
22 -13 3 -17 -1 -14 -14z"/>
<path d="M810 1137 c0 -17 29 -57 41 -57 16 0 10 36 -9 53 -22 20 -32 21 -32
4z"/>
<path d="M777 790 c6 -60 6 -60 -21 -60 -14 0 -26 -4 -26 -10 0 -5 11 -10 25
-10 19 0 25 -5 25 -22 -1 -21 -2 -21 -11 -5 -14 25 -23 21 -37 -15 -14 -39 -8
-47 18 -23 20 18 20 17 20 -13 0 -22 5 -32 15 -32 12 0 15 13 15 55 0 54 1 56
30 62 38 7 33 29 -5 25 l-28 -3 7 49 c5 40 3 51 -10 56 -8 3 -17 6 -19 6 -2 0
-1 -27 2 -60z"/>
<path d="M568 823 c-33 -5 -36 -18 -7 -26 25 -7 20 -31 -7 -35 -17 -2 -19 -13
-21 -93 -2 -78 0 -90 13 -85 46 18 66 18 85 0 17 -16 22 -16 30 -4 5 8 8 34 5
58 -4 32 -2 42 9 42 9 0 12 -6 9 -15 -4 -8 -2 -15 3 -15 15 0 33 23 33 43 0
15 -5 17 -30 12 -31 -7 -39 5 -21 33 7 11 9 11 14 -2 8 -20 37 -21 37 -1 0 14
-31 37 -47 34 -27 -5 -43 3 -43 21 0 11 5 20 10 20 6 0 10 5 10 10 0 10 -29
11 -82 3z m72 -98 c0 -14 -4 -25 -10 -25 -11 0 -14 33 -3 43 11 11 13 8 13
-18z m-73 -17 c-3 -7 -5 -2 -5 12 0 14 2 19 5 13 2 -7 2 -19 0 -25z m54 -25
c24 -7 25 -23 2 -23 -10 0 -28 -3 -40 -6 -27 -7 -31 10 -8 32 8 9 16 25 16 37
2 16 3 14 6 -7 3 -17 12 -30 24 -33z m19 -53 c0 -5 -19 -9 -42 -9 -40 1 -41 2
-13 9 44 11 55 11 55 0z"/>
<path d="M821 794 c-6 -15 -10 -29 -7 -31 8 -9 46 22 44 36 -5 25 -24 22 -37
-5z"/>
<path d="M732 774 c2 -11 11 -20 22 -22 13 -3 17 1 14 14 -2 11 -11 20 -22 22
-13 3 -17 -1 -14 -14z"/>
<path d="M810 687 c0 -17 29 -57 41 -57 16 0 10 36 -9 53 -22 20 -32 21 -32 4z"/>
<path d="M777 340 c6 -60 6 -60 -21 -60 -14 0 -26 -4 -26 -10 0 -5 11 -10 25
-10 19 0 25 -5 25 -22 -1 -21 -2 -21 -11 -5 -14 24 -23 21 -36 -14 -7 -19 -16
-28 -23 -24 -9 5 -9 10 -1 18 6 6 11 19 11 30 0 15 -5 17 -30 12 -31 -7 -39 5
-21 33 7 11 9 11 14 -2 8 -20 37 -21 37 -1 0 14 -31 37 -47 34 -4 -1 -16 -1
-25 0 -21 1 -25 37 -5 44 29 10 -6 18 -52 12 -53 -7 -66 -19 -30 -28 25 -7 20
-31 -7 -35 -17 -2 -19 -13 -21 -93 -2 -78 0 -90 13 -85 46 18 66 18 85 0 17
-16 22 -16 30 -4 5 8 8 34 5 58 -5 33 -2 42 10 42 8 0 12 -5 9 -10 -4 -6 -1
-24 7 -40 13 -31 28 -40 28 -17 0 6 12 20 25 30 l25 18 0 -31 c0 -20 5 -30 15
-30 12 0 15 13 15 55 0 54 1 56 30 62 38 7 33 29 -5 25 l-28 -3 7 49 c5 40 3
51 -10 56 -8 3 -17 6 -19 6 -2 0 -1 -27 2 -60z m-137 -65 c0 -14 -4 -25 -10
-25 -11 0 -14 33 -3 43 11 11 13 8 13 -18z m-73 -17 c-3 -7 -5 -2 -5 12 0 14
2 19 5 13 2 -7 2 -19 0 -25z m54 -25 c24 -7 25 -23 2 -23 -10 0 -28 -3 -40 -6
-27 -7 -31 10 -8 32 8 9 16 25 16 37 2 16 3 14 6 -7 3 -17 12 -30 24 -33z m19
-53 c0 -5 -19 -9 -42 -9 -40 1 -41 2 -13 9 44 11 55 11 55 0z"/>
<path d="M821 344 c-6 -15 -10 -29 -7 -31 8 -9 46 22 44 36 -5 25 -24 22 -37
-5z"/>
<path d="M732 324 c2 -11 11 -20 22 -22 13 -3 17 1 14 14 -2 11 -11 20 -22 22
-13 3 -17 -1 -14 -14z"/>
<path d="M810 237 c0 -17 29 -57 41 -57 16 0 10 36 -9 53 -22 20 -32 21 -32 4z"/>
</g>
</svg>
