<?xml version="1.0" standalone="no"?>
<!DOCTYPE svg PUBLIC "-//W3C//DTD SVG 20010904//EN"
 "http://www.w3.org/TR/2001/REC-SVG-20010904/DTD/svg10.dtd">
<svg version="1.0" xmlns="http://www.w3.org/2000/svg"
 width="50.000000pt" height="725.000000pt" viewBox="0 0 50.000000 725.000000"
 preserveAspectRatio="xMidYMid meet">
<metadata>
Created by potrace 1.16, written by Peter Selinger 2001-2019
</metadata>
<g transform="translate(0.000000,725.000000) scale(0.100000,-0.100000)"
fill="#000000" stroke="none">
<path d="M166 7113 c-4 -16 -23 -52 -43 -81 -37 -55 -38 -79 -2 -46 27 24 79
114 79 137 0 28 -27 20 -34 -10z"/>
<path d="M166 6663 c-4 -16 -23 -52 -43 -81 -20 -29 -33 -55 -29 -59 10 -10
46 28 76 81 26 46 29 47 39 27 7 -11 18 -21 26 -21 25 0 17 36 -10 48 -14 6
-25 16 -25 22 0 22 -28 8 -34 -17z"/>
<path d="M166 6213 c-4 -16 -23 -52 -43 -81 -20 -29 -33 -55 -29 -59 10 -10
46 28 76 81 26 46 29 47 39 27 7 -11 18 -21 26 -21 25 0 17 36 -10 48 -14 6
-25 16 -25 22 0 22 -28 8 -34 -17z"/>
<path d="M183 6133 c-28 -5 -30 -23 -4 -23 26 0 51 10 51 21 0 9 -8 10 -47 2z"/>
<path d="M166 5763 c-4 -16 -23 -52 -43 -81 -20 -29 -33 -55 -29 -59 10 -10
46 28 76 81 26 46 29 47 39 27 7 -11 18 -21 26 -21 25 0 17 36 -10 48 -14 6
-25 16 -25 22 0 22 -28 8 -34 -17z"/>
<path d="M183 5683 c-28 -5 -30 -23 -4 -23 26 0 51 10 51 21 0 9 -8 10 -47 2z"/>
<path d="M163 5627 c-42 -10 -59 -27 -27 -27 29 0 104 22 104 31 0 11 -21 10
-77 -4z"/>
<path d="M166 5313 c-4 -16 -23 -52 -43 -81 -20 -29 -33 -55 -29 -59 10 -10
46 28 76 81 26 46 29 47 39 27 7 -11 18 -21 26 -21 25 0 17 36 -10 48 -14 6
-25 16 -25 22 0 22 -28 8 -34 -17z"/>
<path d="M182 5233 c-18 -4 -22 -10 -20 -31 2 -21 -2 -28 -19 -30 -31 -5 -29
-22 2 -22 22 0 25 -4 25 -36 0 -49 24 -40 28 10 2 28 9 40 23 43 25 7 25 23
-1 23 -23 0 -27 18 -5 26 8 4 15 10 15 15 0 9 -8 10 -48 2z"/>
<path d="M166 4863 c-4 -16 -23 -52 -43 -81 -20 -29 -33 -55 -29 -59 10 -10
46 28 76 81 26 46 29 47 39 27 7 -11 18 -21 26 -21 25 0 17 36 -10 48 -14 6
-25 16 -25 22 0 22 -28 8 -34 -17z"/>
<path d="M182 4783 c-18 -4 -22 -10 -20 -31 2 -21 -2 -28 -19 -30 -31 -5 -29
-22 2 -22 22 0 25 -4 25 -36 0 -49 24 -40 28 10 2 28 9 40 23 43 25 7 25 23
-1 23 -23 0 -27 18 -5 26 8 4 15 10 15 15 0 9 -8 10 -48 2z"/>
<path d="M120 4675 c0 -16 27 -32 37 -21 7 7 -16 36 -28 36 -5 0 -9 -7 -9 -15z"/>
<path d="M166 4413 c-4 -16 -23 -52 -43 -81 -20 -29 -33 -55 -29 -59 10 -10
46 28 76 81 26 46 29 47 39 27 7 -11 18 -21 26 -21 25 0 17 36 -10 48 -14 6
-25 16 -25 22 0 22 -28 8 -34 -17z"/>
<path d="M182 4333 c-18 -4 -22 -10 -20 -31 2 -21 -2 -28 -19 -30 -31 -5 -29
-22 2 -22 22 0 25 -4 25 -36 0 -49 24 -40 28 10 2 28 9 40 23 43 25 7 25 23
-1 23 -23 0 -27 18 -5 26 8 4 15 10 15 15 0 9 -8 10 -48 2z"/>
<path d="M213 4235 c-3 -9 -3 -19 1 -22 7 -7 36 16 36 28 0 15 -30 10 -37 -6z"/>
<path d="M120 4225 c0 -16 27 -32 37 -21 7 7 -16 36 -28 36 -5 0 -9 -7 -9 -15z"/>
<path d="M166 3963 c-4 -16 -23 -52 -43 -81 -20 -29 -33 -55 -29 -59 10 -10
46 28 76 81 26 46 29 47 39 27 7 -11 18 -21 26 -21 25 0 17 36 -10 48 -14 6
-25 16 -25 22 0 22 -28 8 -34 -17z"/>
<path d="M182 3883 c-18 -4 -22 -10 -20 -31 2 -21 -2 -28 -19 -30 -31 -5 -29
-22 2 -22 21 0 25 -5 25 -30 0 -27 -4 -30 -40 -36 -41 -7 -52 -20 -25 -30 21
-9 136 38 131 53 -3 7 -1 15 4 18 16 10 11 27 -7 23 -9 -2 -20 -14 -24 -28 -6
-23 -7 -22 -8 8 -1 26 4 35 19 39 11 3 20 9 20 14 0 5 -9 9 -20 9 -23 0 -27
18 -5 26 8 4 15 10 15 15 0 9 -8 10 -48 2z"/>
<path d="M120 3775 c0 -16 27 -32 37 -21 7 7 -16 36 -28 36 -5 0 -9 -7 -9 -15z"/>
<path d="M166 3513 c-4 -16 -23 -52 -43 -81 -20 -29 -33 -55 -29 -59 10 -10
46 28 76 81 26 46 29 47 39 27 7 -11 18 -21 26 -21 25 0 17 36 -10 48 -14 6
-25 16 -25 22 0 22 -28 8 -34 -17z"/>
<path d="M182 3433 c-18 -4 -22 -10 -20 -31 2 -21 -2 -28 -19 -30 -31 -5 -29
-22 2 -22 21 0 25 -5 25 -30 0 -27 -4 -30 -40 -36 -41 -7 -52 -20 -25 -30 21
-9 136 38 131 53 -3 7 -1 15 4 18 16 10 11 27 -7 23 -9 -2 -20 -14 -24 -28 -6
-23 -7 -22 -8 8 -1 26 4 35 19 39 11 3 20 9 20 14 0 5 -9 9 -20 9 -23 0 -27
18 -5 26 8 4 15 10 15 15 0 9 -8 10 -48 2z"/>
<path d="M345 3435 c-5 -2 -31 -6 -57 -10 -71 -9 -61 -29 10 -21 103 12 132
18 132 27 0 8 -63 11 -85 4z"/>
<path d="M120 3325 c0 -16 27 -32 37 -21 7 7 -16 36 -28 36 -5 0 -9 -7 -9 -15z"/>
<path d="M166 3063 c-4 -16 -23 -52 -43 -81 -20 -29 -33 -55 -29 -59 10 -10
46 28 76 81 26 46 29 47 39 27 7 -11 18 -21 26 -21 25 0 17 36 -10 48 -14 6
-25 16 -25 22 0 22 -28 8 -34 -17z"/>
<path d="M315 3070 c4 -12 4 -37 1 -55 -6 -29 -12 -35 -41 -41 -46 -8 -45 -27
0 -22 34 4 35 3 35 -29 0 -43 16 -42 24 1 6 31 10 34 51 41 56 8 59 25 4 25
l-41 0 4 48 c3 43 1 47 -20 50 -20 3 -23 0 -17 -18z"/>
<path d="M182 2983 c-18 -4 -22 -10 -20 -31 2 -21 -2 -28 -19 -30 -31 -5 -29
-22 2 -22 21 0 25 -5 25 -30 0 -27 -4 -30 -40 -36 -41 -7 -52 -20 -25 -30 21
-9 136 38 131 53 -3 7 -1 15 4 18 16 10 11 27 -7 23 -9 -2 -20 -14 -24 -28 -6
-23 -7 -22 -8 8 -1 26 4 35 19 39 11 3 20 9 20 14 0 5 -9 9 -20 9 -23 0 -27
18 -5 26 8 4 15 10 15 15 0 9 -8 10 -48 2z"/>
<path d="M120 2875 c0 -16 27 -32 37 -21 7 7 -16 36 -28 36 -5 0 -9 -7 -9 -15z"/>
<path d="M166 2613 c-4 -16 -23 -52 -43 -81 -20 -29 -33 -55 -29 -59 10 -10
46 28 76 81 26 46 29 47 39 27 7 -11 18 -21 26 -21 25 0 17 36 -10 48 -14 6
-25 16 -25 22 0 22 -28 8 -34 -17z"/>
<path d="M315 2620 c4 -12 4 -37 1 -55 -6 -29 -12 -35 -41 -41 -46 -8 -45 -27
0 -22 34 4 35 3 35 -29 0 -43 16 -42 24 1 6 31 10 34 51 41 56 8 59 25 4 25
l-41 0 4 48 c3 43 1 47 -20 50 -20 3 -23 0 -17 -18z"/>
<path d="M182 2533 c-18 -4 -22 -10 -20 -31 2 -21 -2 -28 -19 -30 -31 -5 -29
-22 2 -22 21 0 25 -5 25 -30 0 -27 -4 -30 -40 -36 -41 -7 -52 -20 -25 -30 22
-9 135 38 132 55 -1 8 3 16 10 18 6 2 14 -12 18 -36 9 -51 25 -53 25 -3 0 50
-11 64 -46 60 -20 -2 -30 -10 -35 -28 -6 -23 -7 -22 -8 8 -1 26 4 35 19 39 11
3 20 9 20 14 0 5 -9 9 -20 9 -23 0 -27 18 -5 26 8 4 15 10 15 15 0 9 -8 10
-48 2z"/>
<path d="M120 2425 c0 -16 27 -32 37 -21 7 7 -16 36 -28 36 -5 0 -9 -7 -9 -15z"/>
<path d="M166 2163 c-4 -16 -23 -52 -43 -81 -20 -29 -33 -55 -29 -59 10 -10
46 28 76 81 26 46 29 47 39 27 7 -11 18 -21 26 -21 25 0 17 36 -10 48 -14 6
-25 16 -25 22 0 22 -28 8 -34 -17z"/>
<path d="M315 2170 c4 -12 4 -37 1 -55 -6 -29 -12 -35 -41 -41 -46 -8 -45 -27
0 -22 34 4 36 2 33 -21 -3 -23 -9 -27 -48 -31 -37 -4 -45 -9 -51 -30 -6 -23
-7 -22 -8 8 -1 26 4 35 19 39 11 3 20 9 20 14 0 5 -9 9 -20 9 -25 0 -26 16 -3
29 26 14 11 22 -26 15 -27 -6 -31 -11 -29 -33 2 -20 -2 -27 -19 -29 -31 -5
-29 -22 2 -22 21 0 25 -5 25 -30 0 -27 -4 -30 -40 -36 -41 -7 -52 -20 -25 -30
22 -9 135 38 132 55 -1 8 3 16 10 18 6 2 14 -12 18 -36 9 -53 23 -52 27 2 3
41 4 42 40 45 l36 3 -5 -42 c-8 -56 14 -49 34 10 17 51 7 65 -41 55 -24 -5
-28 -4 -23 11 4 9 7 20 7 25 0 4 20 11 45 14 56 9 59 26 4 26 l-41 0 4 48 c3
43 1 47 -20 50 -20 3 -23 0 -17 -18z"/>
<path d="M120 1975 c0 -16 27 -32 37 -21 7 7 -16 36 -28 36 -5 0 -9 -7 -9 -15z"/>
<path d="M166 1713 c-4 -16 -23 -52 -43 -81 -20 -29 -33 -55 -29 -59 10 -10
46 28 76 81 26 46 29 47 39 27 7 -11 18 -21 26 -21 25 0 17 36 -10 48 -14 6
-25 16 -25 22 0 22 -28 8 -34 -17z"/>
<path d="M315 1720 c4 -12 4 -37 1 -55 -6 -29 -12 -35 -41 -41 -46 -8 -45 -27
0 -22 34 4 36 2 33 -21 -3 -23 -9 -27 -48 -31 -37 -4 -45 -9 -51 -30 -6 -23
-7 -22 -8 8 -1 26 4 35 19 39 11 3 20 9 20 14 0 5 -9 9 -20 9 -25 0 -26 16 -3
29 26 14 11 22 -26 15 -27 -6 -31 -11 -29 -33 2 -20 -2 -27 -19 -29 -31 -5
-29 -22 2 -22 21 0 25 -5 25 -30 0 -27 -4 -30 -40 -36 -41 -7 -52 -20 -25 -30
22 -9 135 38 132 55 -1 8 3 16 10 18 6 2 14 -13 18 -38 l7 -41 45 6 c25 3 52
6 59 6 8 0 14 9 14 20 0 10 5 31 12 45 15 33 -3 48 -46 39 -24 -5 -28 -4 -23
11 4 9 7 20 7 25 0 4 20 11 45 14 56 9 59 26 4 26 l-41 0 4 48 c3 43 1 47 -20
50 -20 3 -23 0 -17 -18z m49 -207 c-8 -34 -3 -29 -41 -38 -31 -6 -33 -5 -33
23 0 37 6 42 47 42 31 0 33 -2 27 -27z"/>
<path d="M120 1525 c0 -16 27 -32 37 -21 7 7 -16 36 -28 36 -5 0 -9 -7 -9 -15z"/>
</g>
</svg>
