<?xml version="1.0" standalone="no"?>
<!DOCTYPE svg PUBLIC "-//W3C//DTD SVG 20010904//EN"
 "http://www.w3.org/TR/2001/REC-SVG-20010904/DTD/svg10.dtd">
<svg version="1.0" xmlns="http://www.w3.org/2000/svg"
 width="50.000000pt" height="725.000000pt" viewBox="0 0 50.000000 725.000000"
 preserveAspectRatio="xMidYMid meet">
<metadata>
Created by potrace 1.16, written by Peter Selinger 2001-2019
</metadata>
<g transform="translate(0.000000,725.000000) scale(0.100000,-0.100000)"
fill="#000000" stroke="none">
<path d="M170 7130 c0 -28 -25 -76 -66 -127 -36 -44 -40 -53 -24 -53 18 0 80
71 106 121 20 40 23 54 13 65 -16 20 -29 17 -29 -6z"/>
<path d="M170 6680 c0 -28 -25 -76 -67 -128 -39 -48 -38 -63 1 -37 25 17 86
100 86 118 0 6 9 2 20 -8 15 -14 23 -16 32 -7 9 9 3 20 -23 47 -39 40 -49 43
-49 15z"/>
<path d="M170 6230 c0 -28 -25 -76 -67 -128 -20 -24 -33 -46 -30 -49 7 -6 67
35 67 45 0 4 11 8 25 8 42 3 75 14 75 25 0 8 -13 10 -35 6 -40 -6 -39 -7 -23
28 11 24 12 24 30 8 14 -12 21 -14 30 -5 9 9 3 20 -23 47 -39 40 -49 43 -49
15z"/>
<path d="M170 5780 c0 -28 -25 -76 -67 -128 -20 -24 -33 -46 -30 -49 7 -6 67
35 67 45 0 4 11 8 25 8 42 3 75 14 75 25 0 8 -13 10 -35 6 -40 -6 -39 -7 -23
28 11 24 12 24 30 8 14 -12 21 -14 30 -5 9 9 3 20 -23 47 -39 40 -49 43 -49
15z"/>
<path d="M163 5627 c-46 -11 -58 -27 -20 -27 34 0 97 20 97 30 0 12 -21 11
-77 -3z"/>
<path d="M170 5330 c0 -28 -25 -76 -66 -127 -19 -23 -34 -44 -34 -47 0 -13 20
-4 48 22 18 17 36 26 43 22 16 -11 2 -30 -22 -30 -10 0 -19 -4 -19 -10 0 -5
11 -10 25 -10 22 0 25 -4 25 -35 0 -47 17 -44 25 5 4 26 13 41 26 45 25 8 24
25 -1 25 -11 0 -20 4 -20 9 0 5 9 13 20 16 35 11 23 28 -15 22 -40 -6 -39 -7
-23 28 11 24 12 24 30 8 14 -12 21 -14 30 -5 9 9 3 20 -23 47 -39 40 -49 43
-49 15z"/>
<path d="M170 4880 c0 -28 -25 -76 -66 -127 -19 -23 -34 -44 -34 -47 0 -13 20
-4 48 22 18 17 36 26 43 22 16 -11 2 -30 -22 -30 -10 0 -19 -4 -19 -10 0 -5
11 -10 25 -10 22 0 25 -4 25 -35 0 -47 17 -44 25 5 4 26 13 41 26 45 25 8 24
25 -1 25 -11 0 -20 4 -20 9 0 5 9 13 20 16 35 11 23 28 -15 22 -40 -6 -39 -7
-23 28 11 24 12 24 30 8 14 -12 21 -14 30 -5 9 9 3 20 -23 47 -39 40 -49 43
-49 15z"/>
<path d="M122 4673 c4 -22 38 -30 38 -10 0 8 -7 18 -16 21 -23 9 -26 8 -22
-11z"/>
<path d="M170 4430 c0 -28 -25 -76 -66 -127 -19 -23 -34 -44 -34 -47 0 -13 20
-4 48 22 18 17 36 26 43 22 16 -11 2 -30 -22 -30 -10 0 -19 -4 -19 -10 0 -5
11 -10 25 -10 22 0 25 -4 25 -35 0 -47 17 -44 25 5 4 26 13 41 26 45 25 8 24
25 -1 25 -11 0 -20 4 -20 9 0 5 9 13 20 16 35 11 23 28 -15 22 -40 -6 -39 -7
-23 28 11 24 12 24 30 8 14 -12 21 -14 30 -5 9 9 3 20 -23 47 -39 40 -49 43
-49 15z"/>
<path d="M210 4234 c0 -17 22 -14 28 4 2 7 -3 12 -12 12 -9 0 -16 -7 -16 -16z"/>
<path d="M122 4223 c4 -22 38 -30 38 -10 0 8 -7 18 -16 21 -23 9 -26 8 -22
-11z"/>
<path d="M170 3980 c0 -28 -25 -76 -66 -127 -19 -23 -34 -44 -34 -47 0 -13 20
-4 48 22 18 17 36 26 43 22 16 -11 2 -30 -22 -30 -10 0 -19 -4 -19 -10 0 -5
11 -10 25 -10 21 0 25 -5 25 -30 0 -27 -4 -30 -40 -36 -24 -4 -40 -12 -40 -20
0 -20 30 -17 94 7 57 22 78 47 30 35 -22 -6 -25 -4 -20 9 3 9 6 23 6 30 0 8 9
17 20 20 11 3 20 11 20 16 0 5 -9 9 -20 9 -11 0 -20 4 -20 9 0 5 9 13 20 16
35 11 23 28 -15 22 -40 -6 -39 -7 -23 28 11 24 12 24 30 8 14 -12 21 -14 30
-5 9 9 3 20 -23 47 -39 40 -49 43 -49 15z"/>
<path d="M210 3784 c0 -17 22 -14 28 4 2 7 -3 12 -12 12 -9 0 -16 -7 -16 -16z"/>
<path d="M122 3773 c4 -22 38 -30 38 -10 0 8 -7 18 -16 21 -23 9 -26 8 -22
-11z"/>
<path d="M170 3530 c0 -28 -25 -76 -66 -127 -19 -23 -34 -44 -34 -47 0 -13 20
-4 48 22 18 17 36 26 43 22 16 -11 2 -30 -22 -30 -10 0 -19 -4 -19 -10 0 -5
11 -10 25 -10 21 0 25 -5 25 -30 0 -27 -4 -30 -40 -36 -24 -4 -40 -12 -40 -20
0 -20 30 -17 94 7 57 22 78 47 30 35 -22 -6 -25 -4 -20 9 3 9 6 23 6 30 0 8 9
17 20 20 11 3 20 11 20 16 0 5 -9 9 -20 9 -11 0 -20 4 -20 9 0 5 9 13 20 16
35 11 23 28 -15 22 -40 -6 -39 -7 -23 28 11 24 12 24 30 8 14 -12 21 -14 30
-5 9 9 3 20 -23 47 -39 40 -49 43 -49 15z"/>
<path d="M254 3429 c3 -17 6 -58 6 -90 0 -48 3 -59 16 -59 14 0 16 8 10 53 -3
28 -6 69 -6 90 0 27 -4 37 -16 37 -13 0 -15 -7 -10 -31z"/>
<path d="M210 3334 c0 -17 22 -14 28 4 2 7 -3 12 -12 12 -9 0 -16 -7 -16 -16z"/>
<path d="M122 3323 c4 -22 38 -30 38 -10 0 8 -7 18 -16 21 -23 9 -26 8 -22
-11z"/>
<path d="M170 3080 c0 -28 -25 -76 -66 -127 -19 -23 -34 -44 -34 -47 0 -13 20
-4 48 22 18 17 36 26 43 22 16 -11 2 -30 -22 -30 -10 0 -19 -4 -19 -10 0 -5
11 -10 25 -10 21 0 25 -5 25 -30 0 -27 -4 -30 -40 -36 -24 -4 -40 -12 -40 -20
0 -20 30 -17 94 7 57 22 78 47 30 35 -22 -6 -25 -4 -20 9 3 9 6 23 6 30 0 8 9
17 20 20 11 3 20 11 20 16 0 5 -9 9 -20 9 -11 0 -20 4 -20 9 0 5 9 13 20 16
35 11 23 28 -15 22 -40 -6 -39 -7 -23 28 11 24 12 24 30 8 14 -12 21 -14 30
-5 9 9 3 20 -23 47 -39 40 -49 43 -49 15z"/>
<path d="M348 3023 c-42 -7 -33 -23 12 -23 l40 0 0 -60 c0 -43 -4 -61 -16 -68
-19 -10 -9 -62 12 -62 17 0 32 58 36 145 l3 70 -30 1 c-16 1 -42 -1 -57 -3z"/>
<path d="M254 2979 c3 -17 6 -58 6 -90 0 -47 3 -59 16 -59 13 0 14 11 8 80 -6
70 -5 80 10 80 9 0 16 5 16 10 0 6 -14 10 -31 10 -30 0 -31 -2 -25 -31z"/>
<path d="M210 2884 c0 -17 22 -14 28 4 2 7 -3 12 -12 12 -9 0 -16 -7 -16 -16z"/>
<path d="M122 2873 c4 -22 38 -30 38 -10 0 8 -7 18 -16 21 -23 9 -26 8 -22
-11z"/>
<path d="M170 2630 c0 -28 -25 -76 -66 -127 -19 -23 -34 -44 -34 -47 0 -13 20
-4 48 22 18 17 36 26 43 22 16 -11 2 -30 -22 -30 -10 0 -19 -4 -19 -10 0 -5
11 -10 25 -10 21 0 25 -5 25 -30 0 -27 -4 -30 -40 -36 -24 -4 -40 -12 -40 -20
0 -20 30 -17 94 7 57 22 78 47 30 35 -22 -6 -25 -4 -20 9 3 9 6 23 6 30 0 8 9
17 20 20 11 3 20 11 20 16 0 5 -9 9 -20 9 -11 0 -20 4 -20 9 0 5 9 13 20 16
35 11 23 28 -15 22 -40 -6 -39 -7 -23 28 11 24 12 24 30 8 14 -12 21 -14 30
-5 9 9 3 20 -23 47 -39 40 -49 43 -49 15z"/>
<path d="M348 2573 c-42 -7 -33 -23 12 -23 35 0 40 -3 40 -24 0 -19 -6 -24
-37 -30 -71 -11 -83 -8 -83 19 0 16 6 25 15 25 8 0 15 5 15 10 0 6 -14 10 -31
10 -30 0 -31 -2 -25 -31 3 -17 6 -58 6 -90 0 -48 3 -59 16 -59 13 0 15 8 12
39 -3 38 -2 39 32 45 63 10 80 8 80 -14 0 -10 -7 -23 -16 -28 -19 -10 -9 -62
12 -62 17 0 32 58 36 145 l3 70 -30 1 c-16 1 -42 -1 -57 -3z"/>
<path d="M210 2434 c0 -17 22 -14 28 4 2 7 -3 12 -12 12 -9 0 -16 -7 -16 -16z"/>
<path d="M122 2423 c4 -22 38 -30 38 -10 0 8 -7 18 -16 21 -23 9 -26 8 -22
-11z"/>
<path d="M170 2180 c0 -28 -25 -76 -66 -127 -19 -23 -34 -44 -34 -47 0 -13 20
-4 48 22 18 17 36 26 43 22 16 -11 2 -30 -22 -30 -10 0 -19 -4 -19 -10 0 -5
11 -10 25 -10 21 0 25 -5 25 -30 0 -27 -4 -30 -40 -36 -24 -4 -40 -12 -40 -20
0 -20 30 -17 94 7 57 22 78 47 30 35 -22 -6 -25 -4 -20 9 3 9 6 23 6 30 0 8 9
17 20 20 11 3 20 11 20 16 0 5 -9 9 -20 9 -11 0 -20 4 -20 9 0 5 9 13 20 16
35 11 23 28 -15 22 -40 -6 -39 -7 -23 28 11 24 12 24 30 8 14 -12 21 -14 30
-5 9 9 3 20 -23 47 -39 40 -49 43 -49 15z"/>
<path d="M348 2123 c-25 -4 -28 -8 -28 -44 0 -32 -3 -39 -20 -39 -15 0 -20 7
-20 25 0 16 6 25 15 25 8 0 15 5 15 10 0 6 -14 10 -31 10 -30 0 -31 -2 -25
-31 3 -17 6 -58 6 -90 0 -48 3 -59 16 -59 13 0 15 8 12 40 -3 33 0 40 14 40
13 0 18 -8 18 -31 0 -41 24 -33 28 9 3 26 8 32 28 32 28 0 34 -33 8 -48 -19
-10 -9 -62 12 -62 17 0 32 58 36 145 l3 70 -30 1 c-16 1 -42 -1 -57 -3z m52
-48 c0 -20 -5 -25 -25 -25 -26 0 -29 7 -19 34 10 27 44 20 44 -9z"/>
<path d="M210 1984 c0 -17 22 -14 28 4 2 7 -3 12 -12 12 -9 0 -16 -7 -16 -16z"/>
<path d="M122 1973 c4 -22 38 -30 38 -10 0 8 -7 18 -16 21 -23 9 -26 8 -22
-11z"/>
<path d="M170 1730 c0 -28 -25 -76 -66 -127 -19 -23 -34 -44 -34 -47 0 -13 20
-4 48 22 18 17 36 26 43 22 16 -11 2 -30 -22 -30 -10 0 -19 -4 -19 -10 0 -5
11 -10 25 -10 21 0 25 -5 25 -30 0 -27 -4 -30 -40 -36 -24 -4 -40 -12 -40 -20
0 -20 30 -17 94 7 57 22 78 47 30 35 -22 -6 -25 -4 -20 9 3 9 6 23 6 30 0 8 9
17 20 20 11 3 20 11 20 16 0 5 -9 9 -20 9 -11 0 -20 4 -20 9 0 5 9 13 20 16
35 11 23 28 -15 22 -40 -6 -39 -7 -23 28 11 24 12 24 30 8 14 -12 21 -14 30
-5 9 9 3 20 -23 47 -39 40 -49 43 -49 15z"/>
<path d="M348 1673 c-25 -4 -28 -8 -28 -44 0 -32 -3 -39 -20 -39 -15 0 -20 7
-20 25 0 16 6 25 15 25 8 0 15 5 15 10 0 6 -14 10 -31 10 -30 0 -31 -2 -25
-31 3 -17 6 -58 6 -89 l0 -58 60 5 c51 5 60 3 60 -11 0 -9 7 -16 15 -16 18 0
33 55 37 145 l3 70 -30 1 c-16 1 -42 -1 -57 -3z m52 -48 c0 -20 -5 -25 -25
-25 -26 0 -29 7 -19 34 10 27 44 20 44 -9z m-2 -77 c-2 -15 -11 -24 -25 -26
-19 -3 -23 1 -23 22 0 21 5 26 26 26 21 0 25 -4 22 -22z m-78 -13 c0 -15 -6
-25 -14 -25 -7 0 -16 11 -18 25 -4 19 -1 25 13 25 14 0 19 -7 19 -25z"/>
<path d="M210 1534 c0 -17 22 -14 28 4 2 7 -3 12 -12 12 -9 0 -16 -7 -16 -16z"/>
<path d="M122 1523 c4 -22 38 -30 38 -10 0 8 -7 18 -16 21 -23 9 -26 8 -22
-11z"/>
</g>
</svg>
