<?xml version="1.0" standalone="no"?>
<!DOCTYPE svg PUBLIC "-//W3C//DTD SVG 20010904//EN"
 "http://www.w3.org/TR/2001/REC-SVG-20010904/DTD/svg10.dtd">
<svg version="1.0" xmlns="http://www.w3.org/2000/svg"
 width="50.000000pt" height="725.000000pt" viewBox="0 0 50.000000 725.000000"
 preserveAspectRatio="xMidYMid meet">
<metadata>
Created by potrace 1.16, written by Peter Selinger 2001-2019
</metadata>
<g transform="translate(0.000000,725.000000) scale(0.100000,-0.100000)"
fill="#000000" stroke="none">
<path d="M177 7132 c-3 -16 -24 -53 -46 -82 -23 -30 -41 -58 -41 -62 0 -18 21
-5 54 33 42 49 70 105 62 125 -9 23 -23 16 -29 -14z"/>
<path d="M177 6682 c-3 -16 -24 -53 -46 -82 -23 -30 -41 -58 -41 -62 0 -25 45
15 89 80 21 30 25 32 40 18 23 -21 31 -20 31 3 0 11 -9 22 -19 26 -10 3 -21
15 -24 25 -7 29 -24 24 -30 -8z"/>
<path d="M177 6232 c-3 -16 -24 -53 -46 -82 -23 -30 -41 -58 -41 -62 0 -14 16
-9 34 11 10 11 38 22 67 26 27 4 49 12 49 17 0 7 -16 9 -40 5 l-40 -5 21 30
c19 27 23 28 38 14 23 -21 31 -20 31 3 0 11 -9 22 -19 26 -10 3 -21 15 -24 25
-7 29 -24 24 -30 -8z"/>
<path d="M177 5782 c-3 -16 -24 -53 -46 -82 -23 -30 -41 -58 -41 -62 0 -14 16
-9 34 11 10 11 38 22 67 26 27 4 49 12 49 17 0 7 -16 9 -40 5 l-40 -5 21 30
c19 27 23 28 38 14 23 -21 31 -20 31 3 0 11 -9 22 -19 26 -10 3 -21 15 -24 25
-7 29 -24 24 -30 -8z"/>
<path d="M173 5647 c-59 -14 -55 -31 5 -22 52 8 62 12 62 26 0 11 -10 10 -67
-4z"/>
<path d="M177 5332 c-3 -16 -24 -53 -46 -82 -23 -30 -41 -58 -41 -62 0 -14 17
-8 35 12 21 24 45 26 45 5 0 -8 -9 -15 -20 -15 -11 0 -20 -4 -20 -10 0 -5 8
-10 19 -10 14 0 21 -10 25 -35 9 -47 26 -45 26 4 0 30 4 40 20 44 11 3 20 11
20 17 0 7 -8 10 -20 7 -13 -3 -20 0 -20 9 0 8 9 14 20 14 11 0 20 5 20 11 0 8
-14 10 -40 6 l-40 -5 21 30 c19 27 23 28 38 14 23 -21 31 -20 31 3 0 11 -9 22
-19 26 -10 3 -21 15 -24 25 -7 29 -24 24 -30 -8z"/>
<path d="M177 4882 c-3 -16 -24 -53 -46 -82 -23 -30 -41 -58 -41 -62 0 -14 17
-8 35 12 21 24 45 26 45 5 0 -8 -9 -15 -20 -15 -11 0 -20 -4 -20 -10 0 -5 8
-10 19 -10 14 0 21 -10 25 -35 9 -47 26 -45 26 4 0 30 4 40 20 44 11 3 20 11
20 17 0 7 -8 10 -20 7 -13 -3 -20 0 -20 9 0 8 9 14 20 14 11 0 20 5 20 11 0 8
-14 10 -40 6 l-40 -5 21 30 c19 27 23 28 38 14 23 -21 31 -20 31 3 0 11 -9 22
-19 26 -10 3 -21 15 -24 25 -7 29 -24 24 -30 -8z"/>
<path d="M124 4685 c3 -9 6 -19 6 -21 0 -2 7 -4 16 -4 22 0 13 34 -10 38 -14
3 -17 0 -12 -13z"/>
<path d="M177 4432 c-3 -16 -24 -53 -46 -82 -23 -30 -41 -58 -41 -62 0 -14 17
-8 35 12 21 24 45 26 45 5 0 -8 -9 -15 -20 -15 -11 0 -20 -4 -20 -10 0 -5 8
-10 19 -10 14 0 21 -10 25 -35 9 -47 26 -45 26 4 0 30 4 40 20 44 11 3 20 11
20 17 0 7 -8 10 -20 7 -13 -3 -20 0 -20 9 0 8 9 14 20 14 11 0 20 5 20 11 0 8
-14 10 -40 6 l-40 -5 21 30 c19 27 23 28 38 14 23 -21 31 -20 31 3 0 11 -9 22
-19 26 -10 3 -21 15 -24 25 -7 29 -24 24 -30 -8z"/>
<path d="M217 4248 c-4 -12 -4 -24 -2 -26 7 -8 35 20 35 34 0 23 -27 16 -33
-8z"/>
<path d="M124 4235 c3 -9 6 -19 6 -21 0 -2 7 -4 16 -4 22 0 13 34 -10 38 -14
3 -17 0 -12 -13z"/>
<path d="M177 3982 c-3 -16 -24 -53 -46 -82 -23 -30 -41 -58 -41 -62 0 -14 17
-8 35 12 21 24 45 26 45 5 0 -8 -9 -15 -20 -15 -11 0 -20 -4 -20 -10 0 -5 8
-10 19 -10 12 0 20 -9 24 -27 7 -37 2 -43 -39 -43 -36 0 -43 -10 -21 -28 18
-15 130 26 123 44 -3 7 -1 16 4 19 15 9 12 35 -4 35 -7 0 -18 -15 -24 -32
l-10 -33 -1 36 c-1 29 3 38 19 42 11 3 20 11 20 17 0 7 -8 10 -20 7 -13 -3
-20 0 -20 9 0 8 9 14 20 14 11 0 20 5 20 11 0 8 -14 10 -40 6 l-40 -5 21 30
c19 27 23 28 38 14 23 -21 31 -20 31 3 0 11 -9 22 -19 26 -10 3 -21 15 -24 25
-7 29 -24 24 -30 -8z"/>
<path d="M124 3785 c3 -9 6 -19 6 -21 0 -2 7 -4 16 -4 22 0 13 34 -10 38 -14
3 -17 0 -12 -13z"/>
<path d="M177 3532 c-3 -16 -24 -53 -46 -82 -23 -30 -41 -58 -41 -62 0 -14 17
-8 35 12 21 24 45 26 45 5 0 -8 -9 -15 -20 -15 -11 0 -20 -4 -20 -10 0 -5 8
-10 19 -10 12 0 20 -9 24 -27 7 -37 2 -43 -39 -43 -36 0 -43 -10 -21 -28 18
-15 130 26 123 44 -3 7 -1 16 4 19 15 9 12 35 -4 35 -7 0 -18 -15 -24 -32
l-10 -33 -1 36 c-1 29 3 38 19 42 11 3 20 11 20 17 0 7 -8 10 -20 7 -13 -3
-20 0 -20 9 0 8 9 14 20 14 11 0 20 5 20 11 0 8 -14 10 -40 6 l-40 -5 21 30
c19 27 23 28 38 14 23 -21 31 -20 31 3 0 11 -9 22 -19 26 -10 3 -21 15 -24 25
-7 29 -24 24 -30 -8z"/>
<path d="M310 3547 c0 -8 -11 -36 -25 -62 -27 -53 -25 -68 3 -41 29 25 56 81
49 100 -8 19 -27 21 -27 3z"/>
<path d="M124 3335 c3 -9 6 -19 6 -21 0 -2 7 -4 16 -4 22 0 13 34 -10 38 -14
3 -17 0 -12 -13z"/>
<path d="M177 3082 c-3 -16 -24 -53 -46 -82 -23 -30 -41 -58 -41 -62 0 -14 17
-8 35 12 21 24 45 26 45 5 0 -8 -9 -15 -20 -15 -11 0 -20 -4 -20 -10 0 -5 8
-10 19 -10 12 0 20 -9 24 -27 7 -37 2 -43 -39 -43 -36 0 -43 -10 -21 -28 18
-15 130 26 123 44 -3 7 -1 16 4 19 15 9 12 35 -4 35 -7 0 -18 -15 -24 -32
l-10 -33 -1 36 c-1 29 3 38 19 42 11 3 20 11 20 17 0 7 -8 10 -20 7 -13 -3
-20 0 -20 9 0 8 9 14 20 14 11 0 20 5 20 11 0 8 -14 10 -40 6 l-40 -5 21 30
c19 27 23 28 38 14 23 -21 31 -20 31 3 0 11 -9 22 -19 26 -10 3 -21 15 -24 25
-7 29 -24 24 -30 -8z"/>
<path d="M310 3097 c0 -8 -11 -36 -25 -62 -25 -51 -26 -66 -1 -46 8 7 37 13
63 14 l48 2 -1 -60 c-1 -84 -10 -115 -34 -115 -11 0 -20 -3 -20 -6 0 -16 22
-44 35 -44 27 0 43 53 46 155 l4 100 -30 0 c-16 -1 -42 -4 -57 -8 l-27 -7 16
28 c16 29 13 62 -7 62 -5 0 -10 -6 -10 -13z"/>
<path d="M124 2885 c3 -9 6 -19 6 -21 0 -2 7 -4 16 -4 22 0 13 34 -10 38 -14
3 -17 0 -12 -13z"/>
<path d="M177 2632 c-3 -16 -24 -53 -46 -82 -23 -30 -41 -58 -41 -62 0 -14 17
-8 35 12 21 24 45 26 45 5 0 -8 -9 -15 -20 -15 -11 0 -20 -4 -20 -10 0 -5 8
-10 19 -10 12 0 20 -9 24 -27 7 -37 2 -43 -39 -43 -36 0 -43 -10 -21 -28 18
-15 130 26 123 44 -3 7 -1 16 4 19 15 9 12 35 -4 35 -7 0 -18 -15 -24 -32
l-10 -33 -1 36 c-1 29 3 38 19 42 11 3 20 11 20 17 0 7 -8 10 -20 7 -13 -3
-20 0 -20 9 0 8 9 14 20 14 11 0 20 5 20 11 0 8 -14 10 -40 6 l-40 -5 21 30
c19 27 23 28 38 14 23 -21 31 -20 31 3 0 11 -9 22 -19 26 -10 3 -21 15 -24 25
-7 29 -24 24 -30 -8z"/>
<path d="M310 2647 c0 -8 -11 -36 -25 -62 -25 -51 -26 -66 -1 -46 8 7 37 13
63 14 l48 2 -1 -60 c-1 -84 -10 -115 -34 -115 -11 0 -20 -3 -20 -6 0 -16 22
-44 35 -44 27 0 43 53 46 155 l4 100 -30 0 c-16 -1 -42 -4 -57 -8 l-27 -7 16
28 c16 29 13 62 -7 62 -5 0 -10 -6 -10 -13z"/>
<path d="M263 2496 c4 -10 7 -24 7 -32 0 -8 5 -14 11 -14 15 0 6 53 -10 58
-10 3 -12 0 -8 -12z"/>
<path d="M124 2435 c3 -9 6 -19 6 -21 0 -2 7 -4 16 -4 22 0 13 34 -10 38 -14
3 -17 0 -12 -13z"/>
<path d="M177 2182 c-3 -16 -24 -53 -46 -82 -23 -30 -41 -58 -41 -62 0 -14 17
-8 35 12 21 24 45 26 45 5 0 -8 -9 -15 -20 -15 -11 0 -20 -4 -20 -10 0 -5 8
-10 19 -10 12 0 20 -9 24 -27 7 -37 2 -43 -39 -43 -36 0 -43 -10 -21 -28 18
-15 130 26 123 44 -3 7 -1 16 4 19 15 9 12 35 -4 35 -7 0 -18 -15 -24 -32
l-10 -33 -1 36 c-1 29 3 38 19 42 11 3 20 11 20 17 0 7 -8 10 -20 7 -13 -3
-20 0 -20 9 0 8 9 14 20 14 11 0 20 5 20 11 0 8 -14 10 -40 6 l-40 -5 21 30
c19 27 23 28 38 14 23 -21 31 -20 31 3 0 11 -9 22 -19 26 -10 3 -21 15 -24 25
-7 29 -24 24 -30 -8z"/>
<path d="M310 2197 c0 -8 -11 -36 -25 -62 -25 -51 -26 -66 -1 -46 8 7 37 13
63 14 l48 2 -1 -60 c-1 -84 -10 -115 -34 -115 -11 0 -20 -3 -20 -6 0 -16 22
-44 35 -44 27 0 43 53 46 155 l4 100 -30 0 c-16 -1 -42 -4 -57 -8 l-27 -7 16
28 c16 29 13 62 -7 62 -5 0 -10 -6 -10 -13z"/>
<path d="M265 2043 c3 -8 5 -21 5 -29 0 -8 5 -14 10 -14 6 0 10 9 10 20 0 13
7 20 20 20 13 0 20 -7 20 -20 0 -18 20 -30 20 -12 0 4 3 17 6 30 6 21 4 22
-45 21 -40 -2 -51 -5 -46 -16z"/>
<path d="M124 1985 c3 -9 6 -19 6 -21 0 -2 7 -4 16 -4 22 0 13 34 -10 38 -14
3 -17 0 -12 -13z"/>
<path d="M177 1732 c-3 -16 -24 -53 -46 -82 -23 -30 -41 -58 -41 -62 0 -14 17
-8 35 12 21 24 45 26 45 5 0 -8 -9 -15 -20 -15 -11 0 -20 -4 -20 -10 0 -5 8
-10 19 -10 12 0 20 -9 24 -27 7 -37 2 -43 -39 -43 -36 0 -43 -10 -21 -28 18
-15 130 26 123 44 -3 7 -1 16 4 19 15 9 12 35 -4 35 -7 0 -18 -15 -24 -32
l-10 -33 -1 36 c-1 29 3 38 19 42 11 3 20 11 20 17 0 7 -8 10 -20 7 -13 -3
-20 0 -20 9 0 8 9 14 20 14 11 0 20 5 20 11 0 8 -14 10 -40 6 l-40 -5 21 30
c19 27 23 28 38 14 23 -21 31 -20 31 3 0 11 -9 22 -19 26 -10 3 -21 15 -24 25
-7 29 -24 24 -30 -8z"/>
<path d="M310 1747 c0 -8 -11 -36 -25 -62 -25 -51 -26 -66 -1 -46 8 7 37 13
63 14 l48 2 -1 -60 c-1 -84 -10 -115 -34 -115 -11 0 -20 -3 -20 -6 0 -16 22
-44 35 -44 27 0 43 53 46 155 l4 100 -30 0 c-16 -1 -42 -4 -57 -8 l-27 -7 16
28 c16 29 13 62 -7 62 -5 0 -10 -6 -10 -13z"/>
<path d="M264 1591 c17 -62 16 -61 49 -54 39 7 33 2 42 41 l7 32 -51 -1 c-42
-2 -51 -5 -47 -18z m66 -16 c0 -8 -9 -15 -20 -15 -11 0 -20 7 -20 15 0 8 9 15
20 15 11 0 20 -7 20 -15z"/>
<path d="M124 1535 c3 -9 6 -19 6 -21 0 -2 7 -4 16 -4 22 0 13 34 -10 38 -14
3 -17 0 -12 -13z"/>
</g>
</svg>
