<?xml version="1.0" standalone="no"?>
<!DOCTYPE svg PUBLIC "-//W3C//DTD SVG 20010904//EN"
 "http://www.w3.org/TR/2001/REC-SVG-20010904/DTD/svg10.dtd">
<svg version="1.0" xmlns="http://www.w3.org/2000/svg"
 width="50.000000pt" height="725.000000pt" viewBox="0 0 50.000000 725.000000"
 preserveAspectRatio="xMidYMid meet">
<metadata>
Created by potrace 1.16, written by Peter Selinger 2001-2019
</metadata>
<g transform="translate(0.000000,725.000000) scale(0.100000,-0.100000)"
fill="#000000" stroke="none">
<path d="M150 7127 c0 -13 -18 -52 -41 -87 -22 -34 -38 -65 -34 -68 19 -19
114 130 102 161 -9 25 -27 21 -27 -6z"/>
<path d="M150 6677 c0 -13 -18 -52 -41 -87 -22 -34 -38 -65 -35 -68 10 -9 47
31 76 81 23 41 29 45 40 32 17 -21 30 -19 30 5 0 11 -7 20 -15 20 -8 0 -19 9
-25 20 -14 27 -30 25 -30 -3z"/>
<path d="M150 6227 c0 -13 -18 -52 -41 -87 -42 -65 -45 -88 -6 -53 12 12 39
25 60 28 36 7 55 21 44 32 -4 3 -19 1 -36 -5 l-30 -11 16 35 c15 31 18 32 33
19 22 -20 30 -19 30 5 0 11 -7 20 -15 20 -8 0 -19 9 -25 20 -14 27 -30 25 -30
-3z"/>
<path d="M150 5777 c0 -13 -18 -52 -41 -87 -42 -65 -45 -88 -6 -53 12 12 39
25 60 28 36 7 55 21 44 32 -4 3 -19 1 -36 -5 l-30 -11 16 35 c15 31 18 32 33
19 22 -20 30 -19 30 5 0 11 -7 20 -15 20 -8 0 -19 9 -25 20 -14 27 -30 25 -30
-3z"/>
<path d="M143 5637 c-43 -10 -59 -27 -25 -27 30 0 92 21 92 30 0 12 -10 11
-67 -3z"/>
<path d="M150 5327 c0 -13 -18 -52 -41 -87 -42 -65 -45 -88 -6 -52 25 24 51
29 45 10 -3 -7 -14 -14 -26 -16 -30 -5 -28 -22 3 -22 22 0 25 -4 25 -35 0 -48
17 -44 25 6 4 22 13 43 21 46 19 7 18 23 -1 23 -20 0 -19 10 2 26 26 18 9 28
-26 16 l-30 -11 16 35 c15 31 18 32 33 19 22 -20 30 -19 30 5 0 11 -7 20 -15
20 -8 0 -19 9 -25 20 -14 27 -30 25 -30 -3z"/>
<path d="M150 4877 c0 -13 -18 -52 -41 -87 -42 -65 -45 -88 -6 -52 25 24 51
29 45 10 -3 -7 -14 -14 -26 -16 -30 -5 -28 -22 3 -22 22 0 25 -4 25 -35 0 -48
17 -44 25 6 4 22 13 43 21 46 19 7 18 23 -1 23 -20 0 -19 10 2 26 26 18 9 28
-26 16 l-30 -11 16 35 c15 31 18 32 33 19 22 -20 30 -19 30 5 0 11 -7 20 -15
20 -8 0 -19 9 -25 20 -14 27 -30 25 -30 -3z"/>
<path d="M104 4685 c3 -9 6 -19 6 -21 0 -2 7 -4 16 -4 22 0 13 34 -10 38 -14
3 -17 0 -12 -13z"/>
<path d="M150 4427 c0 -13 -18 -52 -41 -87 -42 -65 -45 -88 -6 -52 25 24 51
29 45 10 -3 -7 -14 -14 -26 -16 -30 -5 -28 -22 3 -22 22 0 25 -4 25 -35 0 -19
5 -35 10 -35 6 0 10 9 10 21 0 11 4 17 10 14 12 -7 40 12 40 26 0 14 -28 11
-33 -3 -3 -8 -6 -6 -6 5 -1 10 6 20 14 23 8 4 15 10 15 15 0 5 -7 9 -15 9 -20
0 -19 10 2 26 26 18 9 28 -26 16 l-30 -11 16 35 c15 31 18 32 33 19 22 -20 30
-19 30 5 0 11 -7 20 -15 20 -8 0 -19 9 -25 20 -14 27 -30 25 -30 -3z"/>
<path d="M104 4235 c3 -9 6 -19 6 -21 0 -2 7 -4 16 -4 22 0 13 34 -10 38 -14
3 -17 0 -12 -13z"/>
<path d="M150 3977 c0 -13 -18 -52 -41 -87 -42 -65 -45 -88 -6 -52 25 24 51
29 45 10 -3 -7 -14 -14 -26 -16 -30 -5 -28 -22 3 -22 21 0 25 -5 25 -30 0 -25
-4 -30 -35 -36 -35 -6 -44 -17 -25 -29 12 -8 130 34 130 47 0 4 -11 6 -25 2
-16 -4 -25 -2 -25 6 0 6 5 8 10 5 12 -7 40 12 40 26 0 14 -28 11 -33 -3 -3 -8
-6 -6 -6 5 -1 10 6 20 14 23 8 4 15 10 15 15 0 5 -7 9 -15 9 -20 0 -19 10 2
26 26 18 9 28 -26 16 l-30 -11 16 35 c15 31 18 32 33 19 22 -20 30 -19 30 5 0
11 -7 20 -15 20 -8 0 -19 9 -25 20 -14 27 -30 25 -30 -3z"/>
<path d="M104 3785 c3 -9 6 -19 6 -21 0 -2 7 -4 16 -4 22 0 13 34 -10 38 -14
3 -17 0 -12 -13z"/>
<path d="M150 3527 c0 -13 -18 -52 -41 -87 -42 -65 -45 -88 -6 -52 25 24 51
29 45 10 -3 -7 -14 -14 -26 -16 -30 -5 -28 -22 3 -22 21 0 25 -5 25 -30 0 -25
-4 -30 -35 -36 -35 -6 -44 -17 -25 -29 12 -8 130 34 130 47 0 4 -11 6 -25 2
-16 -4 -25 -2 -25 6 0 6 5 8 10 5 12 -7 40 12 40 26 0 14 -28 11 -33 -3 -3 -8
-6 -6 -6 5 -1 10 6 20 14 23 8 4 15 10 15 15 0 5 -7 9 -15 9 -20 0 -19 10 2
26 26 18 9 28 -26 16 l-30 -11 16 35 c15 31 18 32 33 19 22 -20 30 -19 30 5 0
11 -7 20 -15 20 -8 0 -19 9 -25 20 -14 27 -30 25 -30 -3z"/>
<path d="M262 3513 c-23 -69 -24 -73 -16 -73 14 0 55 70 52 87 -6 30 -23 23
-36 -14z"/>
<path d="M104 3335 c3 -9 6 -19 6 -21 0 -2 7 -4 16 -4 22 0 13 34 -10 38 -14
3 -17 0 -12 -13z"/>
<path d="M150 3077 c0 -13 -18 -52 -41 -87 -42 -65 -45 -88 -6 -52 25 24 51
29 45 10 -3 -7 -14 -14 -26 -16 -30 -5 -28 -22 3 -22 21 0 25 -5 25 -30 0 -25
-4 -30 -35 -36 -35 -6 -44 -17 -25 -29 12 -8 130 34 130 47 0 4 -11 6 -25 2
-16 -4 -25 -2 -25 6 0 6 5 8 10 5 12 -7 40 12 40 26 0 14 -28 11 -33 -3 -3 -8
-6 -6 -6 5 -1 10 6 20 14 23 8 4 15 10 15 15 0 5 -7 9 -15 9 -20 0 -19 10 2
26 26 18 9 28 -26 16 l-30 -11 16 35 c15 31 18 32 33 19 22 -20 30 -19 30 5 0
11 -7 20 -15 20 -8 0 -19 9 -25 20 -14 27 -30 25 -30 -3z"/>
<path d="M262 3063 c-23 -69 -24 -73 -16 -73 5 0 18 13 29 30 14 19 25 26 34
21 16 -10 -4 -54 -51 -106 -17 -20 -28 -39 -24 -42 16 -17 141 138 132 163 -4
11 -14 14 -35 9 -23 -5 -29 -2 -34 14 -8 31 -21 25 -35 -16z"/>
<path d="M104 2885 c3 -9 6 -19 6 -21 0 -2 7 -4 16 -4 22 0 13 34 -10 38 -14
3 -17 0 -12 -13z"/>
<path d="M150 2627 c0 -13 -18 -52 -41 -87 -42 -65 -45 -88 -6 -52 25 24 51
29 45 10 -3 -7 -14 -14 -26 -16 -30 -5 -28 -22 3 -22 21 0 25 -5 25 -30 0 -25
-4 -30 -35 -36 -35 -6 -44 -17 -25 -29 12 -8 130 34 130 47 0 4 -11 6 -25 2
-16 -4 -25 -2 -25 6 0 6 5 8 10 5 12 -7 40 12 40 26 0 14 -28 11 -33 -3 -3 -8
-6 -6 -6 5 -1 10 6 20 14 23 8 4 15 10 15 15 0 5 -7 9 -15 9 -20 0 -19 10 2
26 26 18 9 28 -26 16 l-30 -11 16 35 c15 31 18 32 33 19 22 -20 30 -19 30 5 0
11 -7 20 -15 20 -8 0 -19 9 -25 20 -14 27 -30 25 -30 -3z"/>
<path d="M262 2613 c-25 -73 -25 -73 -8 -73 30 0 30 -30 1 -60 -39 -41 -22
-51 18 -12 l33 32 29 -30 c22 -23 37 -30 59 -28 36 4 45 23 14 32 -13 3 -38
15 -56 26 l-34 21 27 35 c33 43 27 68 -14 59 -23 -5 -29 -2 -34 14 -8 31 -21
25 -35 -16z m58 -30 c0 -2 -5 -13 -11 -24 -8 -16 -13 -18 -24 -9 -11 9 -12 16
-3 30 10 15 38 18 38 3z"/>
<path d="M104 2435 c3 -9 6 -19 6 -21 0 -2 7 -4 16 -4 22 0 13 34 -10 38 -14
3 -17 0 -12 -13z"/>
<path d="M150 2177 c0 -13 -18 -52 -41 -87 -42 -65 -45 -88 -6 -52 25 24 51
29 45 10 -3 -7 -14 -14 -26 -16 -30 -5 -28 -22 3 -22 21 0 25 -5 25 -30 0 -25
-4 -30 -35 -36 -35 -6 -44 -17 -25 -29 12 -8 130 34 130 47 0 4 -11 6 -25 2
-16 -4 -25 -2 -25 6 0 6 5 8 10 5 12 -7 40 12 40 26 0 14 -28 11 -33 -3 -3 -8
-6 -6 -6 5 -1 10 6 20 14 23 8 4 15 10 15 15 0 5 -7 9 -15 9 -20 0 -19 10 2
26 26 18 9 28 -26 16 l-30 -11 16 35 c15 31 18 32 33 19 22 -20 30 -19 30 5 0
11 -7 20 -15 20 -8 0 -19 9 -25 20 -14 27 -30 25 -30 -3z"/>
<path d="M262 2163 c-25 -73 -25 -73 -8 -73 30 0 30 -30 1 -60 -39 -41 -22
-51 18 -12 l33 32 29 -30 c22 -23 37 -30 59 -28 36 4 45 23 14 32 -13 3 -38
15 -56 26 l-34 21 27 35 c33 43 27 68 -14 59 -23 -5 -29 -2 -34 14 -8 31 -21
25 -35 -16z m58 -30 c0 -2 -5 -13 -11 -24 -8 -16 -13 -18 -24 -9 -11 9 -12 16
-3 30 10 15 38 18 38 3z"/>
<path d="M104 1985 c3 -9 6 -19 6 -21 0 -2 7 -4 16 -4 22 0 13 34 -10 38 -14
3 -17 0 -12 -13z"/>
<path d="M244 1949 c3 -17 6 -38 6 -45 0 -8 5 -14 10 -14 6 0 10 20 10 45 0
35 -4 45 -16 45 -13 0 -15 -7 -10 -31z"/>
<path d="M150 1727 c0 -13 -18 -52 -41 -87 -42 -65 -45 -88 -6 -52 25 24 51
29 45 10 -3 -7 -14 -14 -26 -16 -30 -5 -28 -22 3 -22 21 0 25 -5 25 -30 0 -25
-4 -30 -35 -36 -35 -6 -44 -17 -25 -29 12 -8 130 34 130 47 0 4 -11 6 -25 2
-16 -4 -25 -2 -25 6 0 6 5 8 10 5 12 -7 40 12 40 26 0 14 -28 11 -33 -3 -3 -8
-6 -6 -6 5 -1 10 6 20 14 23 8 4 15 10 15 15 0 5 -7 9 -15 9 -20 0 -19 10 2
26 26 18 9 28 -26 16 l-30 -11 16 35 c15 31 18 32 33 19 22 -20 30 -19 30 5 0
11 -7 20 -15 20 -8 0 -19 9 -25 20 -14 27 -30 25 -30 -3z"/>
<path d="M262 1713 c-25 -73 -25 -73 -8 -73 30 0 30 -30 1 -60 -39 -41 -22
-51 18 -12 l33 32 23 -24 c19 -21 20 -24 6 -30 -9 -3 -25 -6 -36 -6 -10 0 -19
-4 -19 -10 0 -5 11 -10 25 -10 21 0 25 -5 25 -31 0 -42 22 -33 34 14 7 28 15
37 34 39 33 4 39 24 10 32 -13 3 -38 15 -56 26 l-34 21 27 35 c33 43 27 68
-14 59 -23 -5 -29 -2 -34 14 -8 31 -21 25 -35 -16z m58 -30 c0 -2 -5 -13 -11
-24 -8 -16 -13 -18 -24 -9 -11 9 -12 16 -3 30 10 15 38 18 38 3z"/>
<path d="M104 1535 c3 -9 6 -19 6 -21 0 -2 7 -4 16 -4 22 0 13 34 -10 38 -14
3 -17 0 -12 -13z"/>
<path d="M244 1499 c3 -17 6 -38 6 -45 0 -8 5 -14 10 -14 6 0 10 20 10 45 0
35 -4 45 -16 45 -13 0 -15 -7 -10 -31z"/>
<path d="M150 1277 c0 -13 -18 -52 -41 -87 -42 -65 -45 -88 -6 -52 25 24 51
29 45 10 -3 -7 -14 -14 -26 -16 -30 -5 -28 -22 3 -22 21 0 25 -5 25 -30 0 -25
-4 -30 -35 -36 -35 -6 -44 -17 -25 -29 12 -8 130 34 130 47 0 4 -11 6 -25 2
-16 -4 -25 -2 -25 6 0 6 5 8 10 5 12 -7 40 12 40 26 0 14 -28 11 -33 -3 -3 -8
-6 -6 -6 5 -1 10 6 20 14 23 8 4 15 10 15 15 0 5 -7 9 -15 9 -20 0 -19 10 2
26 26 18 9 28 -26 16 l-30 -11 16 35 c15 31 18 32 33 19 22 -20 30 -19 30 5 0
11 -7 20 -15 20 -8 0 -19 9 -25 20 -14 27 -30 25 -30 -3z"/>
<path d="M262 1263 c-25 -73 -25 -73 -8 -73 30 0 30 -30 1 -60 -39 -41 -22
-51 18 -12 l33 32 23 -24 c19 -21 20 -24 6 -30 -9 -3 -25 -6 -36 -6 -10 0 -19
-4 -19 -10 0 -5 11 -10 25 -10 29 0 36 -34 9 -44 -33 -13 -44 -6 -44 24 0 21
-5 30 -16 30 -13 0 -15 -7 -10 -31 3 -17 6 -38 6 -46 0 -9 7 -13 18 -10 9 3
34 8 54 11 33 6 37 10 43 46 5 32 11 39 33 42 33 4 40 24 10 32 -13 3 -38 15
-56 26 l-34 21 27 35 c33 43 27 68 -14 59 -23 -5 -29 -2 -34 14 -8 31 -21 25
-35 -16z m58 -30 c0 -2 -5 -13 -11 -24 -8 -16 -13 -18 -24 -9 -11 9 -12 16 -3
30 10 15 38 18 38 3z"/>
<path d="M104 1085 c3 -9 6 -19 6 -21 0 -2 7 -4 16 -4 22 0 13 34 -10 38 -14
3 -17 0 -12 -13z"/>
</g>
</svg>
