<?xml version="1.0" standalone="no"?>
<!DOCTYPE svg PUBLIC "-//W3C//DTD SVG 20010904//EN"
 "http://www.w3.org/TR/2001/REC-SVG-20010904/DTD/svg10.dtd">
<svg version="1.0" xmlns="http://www.w3.org/2000/svg"
 width="50.000000pt" height="725.000000pt" viewBox="0 0 50.000000 725.000000"
 preserveAspectRatio="xMidYMid meet">
<metadata>
Created by potrace 1.16, written by Peter Selinger 2001-2019
</metadata>
<g transform="translate(0.000000,725.000000) scale(0.100000,-0.100000)"
fill="#000000" stroke="none">
<path d="M150 7126 c0 -19 -48 -107 -73 -133 -31 -35 -11 -41 24 -7 32 30 79
112 79 139 0 8 -7 15 -15 15 -8 0 -15 -6 -15 -14z"/>
<path d="M150 6676 c0 -19 -48 -107 -73 -133 -11 -13 -17 -26 -14 -30 11 -10
66 47 89 91 14 28 23 35 31 27 16 -16 37 -14 37 3 0 8 -9 18 -20 21 -11 3 -20
13 -20 21 0 8 -7 14 -15 14 -8 0 -15 -6 -15 -14z"/>
<path d="M150 6226 c0 -19 -48 -107 -73 -133 -30 -33 -12 -42 21 -11 15 15 44
30 65 33 22 4 37 13 37 21 0 17 -1 17 -35 4 l-25 -10 16 31 c11 23 19 28 27
20 16 -16 37 -14 37 3 0 8 -9 18 -20 21 -11 3 -20 13 -20 21 0 8 -7 14 -15 14
-8 0 -15 -6 -15 -14z"/>
<path d="M150 5776 c0 -19 -48 -107 -73 -133 -30 -33 -12 -42 21 -11 15 15 44
30 65 33 22 4 37 13 37 21 0 17 -1 17 -35 4 l-25 -10 16 31 c11 23 19 28 27
20 16 -16 37 -14 37 3 0 8 -9 18 -20 21 -11 3 -20 13 -20 21 0 8 -7 14 -15 14
-8 0 -15 -6 -15 -14z"/>
<path d="M143 5637 c-48 -12 -57 -28 -15 -26 41 1 75 13 80 27 4 14 -5 13 -65
-1z"/>
<path d="M150 5326 c0 -19 -48 -107 -73 -133 -31 -34 -11 -41 22 -9 16 16 34
25 40 21 16 -9 3 -25 -20 -25 -10 0 -19 -4 -19 -10 0 -5 11 -10 25 -10 23 0
25 -4 25 -40 0 -22 5 -40 10 -40 6 0 10 18 10 40 0 29 5 42 20 50 24 13 26 30
5 30 -8 0 -15 5 -15 10 0 6 5 10 10 10 6 0 10 7 10 15 0 18 -1 18 -35 5 l-25
-10 16 31 c11 23 19 28 27 20 16 -16 37 -14 37 3 0 8 -9 18 -20 21 -11 3 -20
13 -20 21 0 8 -7 14 -15 14 -8 0 -15 -6 -15 -14z"/>
<path d="M150 4876 c0 -19 -48 -107 -73 -133 -31 -34 -11 -41 22 -9 16 16 34
25 40 21 16 -9 3 -25 -20 -25 -10 0 -19 -4 -19 -10 0 -5 11 -10 25 -10 23 0
25 -4 25 -40 0 -22 5 -40 10 -40 6 0 10 18 10 40 0 29 5 42 20 50 24 13 26 30
5 30 -8 0 -15 5 -15 10 0 6 5 10 10 10 6 0 10 7 10 15 0 18 -1 18 -35 5 l-25
-10 16 31 c11 23 19 28 27 20 16 -16 37 -14 37 3 0 8 -9 18 -20 21 -11 3 -20
13 -20 21 0 8 -7 14 -15 14 -8 0 -15 -6 -15 -14z"/>
<path d="M104 4675 c3 -9 6 -19 6 -21 0 -2 7 -4 16 -4 22 0 13 34 -10 38 -14
3 -17 0 -12 -13z"/>
<path d="M150 4426 c0 -19 -48 -107 -73 -133 -31 -34 -11 -41 22 -9 16 16 34
25 40 21 16 -9 3 -25 -20 -25 -10 0 -19 -4 -19 -10 0 -5 11 -10 25 -10 23 0
25 -4 25 -40 0 -22 5 -40 10 -40 6 0 10 18 10 40 0 29 5 42 20 50 24 13 26 30
5 30 -8 0 -15 5 -15 10 0 6 5 10 10 10 6 0 10 7 10 15 0 18 -1 18 -35 5 l-25
-10 16 31 c11 23 19 28 27 20 16 -16 37 -14 37 3 0 8 -9 18 -20 21 -11 3 -20
13 -20 21 0 8 -7 14 -15 14 -8 0 -15 -6 -15 -14z"/>
<path d="M190 4245 c0 -8 7 -15 15 -15 8 0 15 7 15 15 0 8 -7 15 -15 15 -8 0
-15 -7 -15 -15z"/>
<path d="M104 4225 c3 -9 6 -19 6 -21 0 -2 7 -4 16 -4 22 0 13 34 -10 38 -14
3 -17 0 -12 -13z"/>
<path d="M150 3976 c0 -19 -48 -107 -73 -133 -31 -34 -11 -41 22 -9 16 16 34
25 40 21 16 -9 3 -25 -20 -25 -10 0 -19 -4 -19 -10 0 -5 12 -10 26 -10 23 0
25 -3 22 -32 -3 -29 -7 -33 -35 -36 -20 -2 -33 -9 -33 -17 0 -26 20 -27 75 -4
56 23 70 39 35 39 -15 0 -20 7 -20 25 0 14 8 29 20 35 24 13 26 30 5 30 -8 0
-15 5 -15 10 0 6 5 10 10 10 6 0 10 7 10 15 0 18 -1 18 -35 5 l-25 -10 16 31
c11 23 19 28 27 20 16 -16 37 -14 37 3 0 8 -9 18 -20 21 -11 3 -20 13 -20 21
0 8 -7 14 -15 14 -8 0 -15 -6 -15 -14z"/>
<path d="M190 3795 c0 -8 7 -15 15 -15 8 0 15 7 15 15 0 8 -7 15 -15 15 -8 0
-15 -7 -15 -15z"/>
<path d="M104 3775 c3 -9 6 -19 6 -21 0 -2 7 -4 16 -4 22 0 13 34 -10 38 -14
3 -17 0 -12 -13z"/>
<path d="M150 3526 c0 -19 -48 -107 -73 -133 -31 -34 -11 -41 22 -9 16 16 34
25 40 21 16 -9 3 -25 -20 -25 -10 0 -19 -4 -19 -10 0 -5 12 -10 26 -10 23 0
25 -3 22 -32 -3 -29 -7 -33 -35 -36 -20 -2 -33 -9 -33 -17 0 -26 20 -27 75 -4
56 23 70 39 35 39 -15 0 -20 7 -20 25 0 14 8 29 20 35 24 13 26 30 5 30 -8 0
-15 5 -15 10 0 6 5 10 10 10 6 0 10 7 10 15 0 18 -1 18 -35 5 l-25 -10 16 31
c11 23 19 28 27 20 16 -16 37 -14 37 3 0 8 -9 18 -20 21 -11 3 -20 13 -20 21
0 8 -7 14 -15 14 -8 0 -15 -6 -15 -14z"/>
<path d="M237 3473 c-3 -16 -9 -36 -12 -45 -4 -10 -3 -18 2 -18 12 0 43 54 43
74 0 27 -27 18 -33 -11z"/>
<path d="M190 3345 c0 -8 7 -15 15 -15 8 0 15 7 15 15 0 8 -7 15 -15 15 -8 0
-15 -7 -15 -15z"/>
<path d="M104 3325 c3 -9 6 -19 6 -21 0 -2 7 -4 16 -4 22 0 13 34 -10 38 -14
3 -17 0 -12 -13z"/>
<path d="M150 3076 c0 -19 -48 -107 -73 -133 -31 -34 -11 -41 22 -9 16 16 34
25 40 21 16 -9 3 -25 -20 -25 -10 0 -19 -4 -19 -10 0 -5 12 -10 26 -10 23 0
25 -3 22 -32 -3 -29 -7 -33 -35 -36 -20 -2 -33 -9 -33 -17 0 -26 20 -27 75 -4
56 23 70 39 35 39 -15 0 -20 7 -20 25 0 14 8 29 20 35 24 13 26 30 5 30 -8 0
-15 5 -15 10 0 6 5 10 10 10 6 0 10 7 10 15 0 18 -1 18 -35 5 l-25 -10 16 31
c11 23 19 28 27 20 16 -16 37 -14 37 3 0 8 -9 18 -20 21 -11 3 -20 13 -20 21
0 8 -7 14 -15 14 -8 0 -15 -6 -15 -14z"/>
<path d="M233 3008 c-12 -46 -8 -64 8 -35 6 9 16 17 24 17 34 0 115 23 115 32
0 10 -60 5 -94 -8 -12 -4 -16 0 -16 15 0 37 -25 22 -37 -21z"/>
<path d="M190 2895 c0 -8 7 -15 15 -15 8 0 15 7 15 15 0 8 -7 15 -15 15 -8 0
-15 -7 -15 -15z"/>
<path d="M104 2875 c3 -9 6 -19 6 -21 0 -2 7 -4 16 -4 22 0 13 34 -10 38 -14
3 -17 0 -12 -13z"/>
<path d="M150 2626 c0 -19 -48 -107 -73 -133 -31 -34 -11 -41 22 -9 16 16 34
25 40 21 16 -9 3 -25 -20 -25 -10 0 -19 -4 -19 -10 0 -5 12 -10 26 -10 23 0
25 -3 22 -32 -3 -29 -7 -33 -35 -36 -20 -2 -33 -9 -33 -17 0 -26 20 -27 75 -4
56 23 70 39 35 39 -15 0 -20 7 -20 25 0 14 8 29 20 35 24 13 26 30 5 30 -8 0
-15 5 -15 10 0 6 5 10 10 10 6 0 10 7 10 15 0 18 -1 18 -35 5 l-25 -10 16 31
c11 23 19 28 27 20 16 -16 37 -14 37 3 0 8 -9 18 -20 21 -11 3 -20 13 -20 21
0 8 -7 14 -15 14 -8 0 -15 -6 -15 -14z"/>
<path d="M233 2558 c-12 -46 -8 -64 8 -35 6 9 16 17 24 17 34 0 115 23 115 32
0 10 -60 5 -94 -8 -12 -4 -16 0 -16 15 0 37 -25 22 -37 -21z"/>
<path d="M335 2509 c-22 -4 -57 -8 -77 -8 -21 -1 -38 -6 -38 -12 0 -8 27 -9
93 -4 50 4 94 9 97 12 5 4 -21 23 -30 22 -3 -1 -23 -5 -45 -10z"/>
<path d="M190 2445 c0 -8 7 -15 15 -15 8 0 15 7 15 15 0 8 -7 15 -15 15 -8 0
-15 -7 -15 -15z"/>
<path d="M104 2425 c3 -9 6 -19 6 -21 0 -2 7 -4 16 -4 22 0 13 34 -10 38 -14
3 -17 0 -12 -13z"/>
<path d="M294 2164 c1 -29 -4 -49 -11 -51 -8 -3 -13 4 -13 16 0 37 -26 22 -37
-21 -12 -46 -8 -64 8 -35 14 25 59 23 59 -3 0 -17 -7 -20 -40 -20 -22 0 -40
-4 -40 -10 0 -5 18 -10 41 -10 l41 0 -4 -71 c-2 -51 1 -73 10 -76 9 -4 12 16
12 76 l0 81 45 0 c25 0 45 4 45 9 0 14 -21 19 -57 13 -28 -4 -33 -2 -33 16 0
15 9 22 30 27 39 8 39 25 0 25 -28 0 -29 2 -27 37 1 27 -2 38 -14 40 -12 3
-15 -6 -15 -43z"/>
<path d="M150 2176 c0 -19 -48 -107 -73 -133 -31 -34 -11 -41 22 -9 16 16 34
25 40 21 16 -9 3 -25 -20 -25 -10 0 -19 -4 -19 -10 0 -5 12 -10 26 -10 23 0
25 -3 22 -32 -3 -29 -7 -33 -35 -36 -20 -2 -33 -9 -33 -17 0 -26 20 -27 75 -4
56 23 70 39 35 39 -15 0 -20 7 -20 25 0 14 8 29 20 35 24 13 26 30 5 30 -8 0
-15 5 -15 10 0 6 5 10 10 10 6 0 10 7 10 15 0 18 -1 18 -35 5 l-25 -10 16 31
c11 23 19 28 27 20 16 -16 37 -14 37 3 0 8 -9 18 -20 21 -11 3 -20 13 -20 21
0 8 -7 14 -15 14 -8 0 -15 -6 -15 -14z"/>
<path d="M190 1995 c0 -8 7 -15 15 -15 8 0 15 7 15 15 0 8 -7 15 -15 15 -8 0
-15 -7 -15 -15z"/>
<path d="M104 1975 c3 -9 6 -19 6 -21 0 -2 7 -4 16 -4 22 0 13 34 -10 38 -14
3 -17 0 -12 -13z"/>
<path d="M294 1714 c1 -29 -4 -49 -11 -51 -8 -3 -13 4 -13 16 0 37 -26 22 -37
-21 -12 -46 -8 -64 8 -35 14 25 59 23 59 -3 0 -17 -7 -20 -40 -20 -22 0 -40
-4 -40 -10 0 -5 14 -10 30 -10 17 0 30 -4 30 -8 0 -5 -16 -27 -36 -51 -47 -54
-35 -66 16 -16 l40 39 -3 -54 c-1 -35 2 -54 11 -57 9 -4 12 16 12 76 l0 81 45
0 c25 0 45 4 45 9 0 14 -21 19 -57 13 -28 -4 -33 -2 -33 16 0 15 9 22 30 27
39 8 39 25 0 25 -28 0 -29 2 -27 37 1 27 -2 38 -14 40 -12 3 -15 -6 -15 -43z"/>
<path d="M150 1726 c0 -19 -48 -107 -73 -133 -31 -34 -11 -41 22 -9 16 16 34
25 40 21 16 -9 3 -25 -20 -25 -10 0 -19 -4 -19 -10 0 -5 12 -10 26 -10 23 0
25 -3 22 -32 -3 -29 -7 -33 -35 -36 -20 -2 -33 -9 -33 -17 0 -26 20 -27 75 -4
56 23 70 39 35 39 -15 0 -20 7 -20 25 0 14 8 29 20 35 24 13 26 30 5 30 -8 0
-15 5 -15 10 0 6 5 10 10 10 6 0 10 7 10 15 0 18 -1 18 -35 5 l-25 -10 16 31
c11 23 19 28 27 20 16 -16 37 -14 37 3 0 8 -9 18 -20 21 -11 3 -20 13 -20 21
0 8 -7 14 -15 14 -8 0 -15 -6 -15 -14z"/>
<path d="M190 1545 c0 -8 7 -15 15 -15 8 0 15 7 15 15 0 8 -7 15 -15 15 -8 0
-15 -7 -15 -15z"/>
<path d="M104 1525 c3 -9 6 -19 6 -21 0 -2 7 -4 16 -4 22 0 13 34 -10 38 -14
3 -17 0 -12 -13z"/>
<path d="M294 1264 c1 -29 -4 -49 -11 -51 -8 -3 -13 4 -13 16 0 37 -26 22 -37
-21 -12 -46 -8 -64 8 -35 14 25 59 23 59 -3 0 -17 -7 -20 -40 -20 -22 0 -40
-4 -40 -10 0 -5 14 -10 30 -10 17 0 30 -4 30 -8 0 -5 -16 -27 -36 -51 -47 -54
-35 -66 16 -16 l40 39 -3 -54 c-1 -34 2 -54 10 -57 8 -3 13 15 15 59 l3 63 22
-37 c19 -33 27 -38 58 -38 19 0 35 3 35 8 0 4 -20 19 -44 34 -25 14 -49 36
-56 47 -10 20 -8 21 30 21 22 0 40 4 40 9 0 14 -21 19 -57 13 -28 -4 -33 -2
-33 16 0 15 9 22 30 27 39 8 39 25 0 25 -28 0 -29 2 -27 37 1 27 -2 38 -14 40
-12 3 -15 -6 -15 -43z"/>
<path d="M150 1276 c0 -19 -48 -107 -73 -133 -31 -34 -11 -41 22 -9 16 16 34
25 40 21 16 -9 3 -25 -20 -25 -10 0 -19 -4 -19 -10 0 -5 12 -10 26 -10 23 0
25 -3 22 -32 -3 -29 -7 -33 -35 -36 -20 -2 -33 -9 -33 -17 0 -26 20 -27 75 -4
56 23 70 39 35 39 -15 0 -20 7 -20 25 0 14 8 29 20 35 24 13 26 30 5 30 -8 0
-15 5 -15 10 0 6 5 10 10 10 6 0 10 7 10 15 0 18 -1 18 -35 5 l-25 -10 16 31
c11 23 19 28 27 20 16 -16 37 -14 37 3 0 8 -9 18 -20 21 -11 3 -20 13 -20 21
0 8 -7 14 -15 14 -8 0 -15 -6 -15 -14z"/>
<path d="M190 1095 c0 -8 7 -15 15 -15 8 0 15 7 15 15 0 8 -7 15 -15 15 -8 0
-15 -7 -15 -15z"/>
<path d="M104 1075 c3 -9 6 -19 6 -21 0 -2 7 -4 16 -4 22 0 13 34 -10 38 -14
3 -17 0 -12 -13z"/>
</g>
</svg>
