<?xml version="1.0" standalone="no"?>
<!DOCTYPE svg PUBLIC "-//W3C//DTD SVG 20010904//EN"
 "http://www.w3.org/TR/2001/REC-SVG-20010904/DTD/svg10.dtd">
<svg version="1.0" xmlns="http://www.w3.org/2000/svg"
 width="50.000000pt" height="725.000000pt" viewBox="0 0 50.000000 725.000000"
 preserveAspectRatio="xMidYMid meet">
<metadata>
Created by potrace 1.16, written by Peter Selinger 2001-2019
</metadata>
<g transform="translate(0.000000,725.000000) scale(0.100000,-0.100000)"
fill="#000000" stroke="none">
<path d="M160 7135 c0 -19 -35 -89 -63 -127 -25 -33 -15 -49 13 -23 33 30 92
134 86 150 -7 20 -36 19 -36 0z"/>
<path d="M160 6685 c0 -19 -35 -89 -63 -127 -11 -15 -18 -31 -14 -34 10 -10
46 25 74 73 25 43 37 51 48 33 9 -15 25 -12 25 4 0 18 -43 66 -59 66 -6 0 -11
-7 -11 -15z"/>
<path d="M160 6235 c0 -19 -35 -89 -63 -127 -28 -37 -14 -48 21 -15 15 15 41
27 61 29 19 2 36 9 39 17 3 10 -3 11 -27 6 -34 -7 -39 1 -17 31 12 15 17 17
27 7 35 -35 40 5 5 41 -26 29 -46 34 -46 11z"/>
<path d="M160 5785 c0 -19 -35 -89 -63 -127 -28 -37 -14 -48 21 -15 15 15 41
27 61 29 19 2 36 9 39 17 3 10 -3 11 -27 6 -34 -7 -39 1 -17 31 12 15 17 17
27 7 35 -35 40 5 5 41 -26 29 -46 34 -46 11z"/>
<path d="M153 5637 c-59 -14 -55 -31 5 -22 52 8 62 12 62 26 0 11 -10 10 -67
-4z"/>
<path d="M160 5335 c0 -19 -35 -89 -63 -127 -28 -38 -13 -48 22 -14 18 17 31
24 35 17 10 -16 -2 -31 -25 -31 -10 0 -19 -4 -19 -10 0 -5 11 -10 25 -10 22 0
25 -4 25 -36 0 -46 24 -41 28 7 2 19 10 38 18 42 18 11 18 27 -1 27 -8 0 -15
4 -15 9 0 5 7 11 15 15 29 11 16 28 -15 21 -33 -7 -37 1 -16 31 12 15 17 17
27 7 35 -35 40 5 5 41 -26 29 -46 34 -46 11z"/>
<path d="M160 4885 c0 -19 -35 -89 -63 -127 -28 -38 -13 -48 22 -14 18 17 31
24 35 17 10 -16 -2 -31 -25 -31 -10 0 -19 -4 -19 -10 0 -5 11 -10 25 -10 22 0
25 -4 25 -36 0 -46 24 -41 28 7 2 19 10 38 18 42 18 11 18 27 -1 27 -8 0 -15
4 -15 9 0 5 7 11 15 15 29 11 16 28 -15 21 -33 -7 -37 1 -16 31 12 15 17 17
27 7 35 -35 40 5 5 41 -26 29 -46 34 -46 11z"/>
<path d="M112 4683 c4 -22 38 -30 38 -10 0 8 -7 18 -16 21 -23 9 -26 8 -22
-11z"/>
<path d="M160 4435 c0 -19 -35 -89 -63 -127 -28 -38 -13 -48 22 -14 18 17 31
24 35 17 10 -16 -2 -31 -25 -31 -10 0 -19 -4 -19 -10 0 -5 11 -10 25 -10 22 0
25 -4 25 -36 0 -46 24 -41 28 7 2 19 10 38 18 42 18 11 18 27 -1 27 -8 0 -15
4 -15 9 0 5 7 11 15 15 29 11 16 28 -15 21 -33 -7 -37 1 -16 31 12 15 17 17
27 7 35 -35 40 5 5 41 -26 29 -46 34 -46 11z"/>
<path d="M203 4245 c-3 -9 -3 -18 0 -21 9 -9 27 6 27 22 0 19 -19 18 -27 -1z"/>
<path d="M112 4233 c4 -22 38 -30 38 -10 0 8 -7 18 -16 21 -23 9 -26 8 -22
-11z"/>
<path d="M160 3985 c0 -19 -35 -89 -63 -127 -28 -38 -13 -48 22 -14 18 17 31
24 35 17 10 -16 -2 -31 -25 -31 -10 0 -19 -4 -19 -10 0 -5 11 -10 25 -10 21 0
25 -5 25 -29 0 -30 -14 -41 -56 -41 -13 0 -24 -5 -24 -10 0 -21 30 -21 88 0
54 20 59 24 60 51 0 19 -4 29 -11 26 -7 -2 -12 -14 -11 -26 0 -11 -3 -21 -8
-21 -15 0 -9 58 7 64 8 3 15 10 15 16 0 5 -7 10 -15 10 -8 0 -15 4 -15 9 0 5
7 11 15 15 29 11 16 28 -15 21 -33 -7 -37 1 -16 31 12 15 17 17 27 7 35 -35
40 5 5 41 -26 29 -46 34 -46 11z"/>
<path d="M112 3783 c4 -22 38 -30 38 -10 0 8 -7 18 -16 21 -23 9 -26 8 -22
-11z"/>
<path d="M160 3535 c0 -19 -35 -89 -63 -127 -28 -38 -13 -48 22 -14 18 17 31
24 35 17 10 -16 -2 -31 -25 -31 -10 0 -19 -4 -19 -10 0 -5 11 -10 25 -10 21 0
25 -5 25 -29 0 -30 -14 -41 -56 -41 -13 0 -24 -5 -24 -10 0 -21 30 -21 88 0
54 20 59 24 60 51 0 19 -4 29 -11 26 -7 -2 -12 -14 -11 -26 0 -11 -3 -21 -8
-21 -15 0 -9 58 7 64 8 3 15 10 15 16 0 5 -7 10 -15 10 -8 0 -15 4 -15 9 0 5
7 11 15 15 29 11 16 28 -15 21 -33 -7 -37 1 -16 31 12 15 17 17 27 7 35 -35
40 5 5 41 -26 29 -46 34 -46 11z"/>
<path d="M340 3530 c0 -5 7 -10 15 -10 9 0 15 -9 15 -25 0 -14 4 -25 10 -25
14 0 32 39 26 56 -6 16 -66 20 -66 4z"/>
<path d="M280 3520 c0 -5 11 -10 25 -10 14 0 25 5 25 10 0 6 -11 10 -25 10
-14 0 -25 -4 -25 -10z"/>
<path d="M112 3333 c4 -22 38 -30 38 -10 0 8 -7 18 -16 21 -23 9 -26 8 -22
-11z"/>
<path d="M160 3085 c0 -19 -35 -89 -63 -127 -28 -38 -13 -48 22 -14 18 17 31
24 35 17 10 -16 -2 -31 -25 -31 -10 0 -19 -4 -19 -10 0 -5 11 -10 25 -10 21 0
25 -5 25 -29 0 -30 -14 -41 -56 -41 -13 0 -24 -5 -24 -10 0 -21 30 -21 88 0
54 20 59 24 60 51 0 19 -4 29 -11 26 -7 -2 -12 -14 -11 -26 0 -11 -3 -21 -8
-21 -15 0 -9 58 7 64 8 3 15 10 15 16 0 5 -7 10 -15 10 -8 0 -15 4 -15 9 0 5
7 11 15 15 29 11 16 28 -15 21 -33 -7 -37 1 -16 31 12 15 17 17 27 7 35 -35
40 5 5 41 -26 29 -46 34 -46 11z"/>
<path d="M340 3081 c0 -6 7 -11 15 -11 8 0 15 -9 15 -19 0 -16 -9 -21 -45 -27
-67 -10 -56 -27 13 -18 31 3 58 7 59 8 1 1 4 18 5 37 3 32 1 34 -29 37 -19 2
-33 -1 -33 -7z"/>
<path d="M280 3070 c0 -5 11 -10 25 -10 14 0 25 5 25 10 0 6 -11 10 -25 10
-14 0 -25 -4 -25 -10z"/>
<path d="M112 2883 c4 -22 38 -30 38 -10 0 8 -7 18 -16 21 -23 9 -26 8 -22
-11z"/>
<path d="M160 2635 c0 -19 -35 -89 -63 -127 -28 -38 -13 -48 22 -14 18 17 31
24 35 17 10 -16 -2 -31 -25 -31 -10 0 -19 -4 -19 -10 0 -5 11 -10 25 -10 21 0
25 -5 25 -29 0 -30 -14 -41 -56 -41 -13 0 -24 -5 -24 -10 0 -21 30 -21 85 -1
67 25 66 25 59 6 -9 -22 13 -18 25 4 6 10 16 50 22 89 l12 71 57 7 c54 6 58 8
64 36 3 17 3 34 0 39 -7 12 -64 11 -64 -1 0 -5 7 -10 15 -10 8 0 15 -8 15 -19
0 -13 -10 -20 -31 -25 -50 -10 -58 -8 -52 14 3 11 14 20 24 20 11 0 19 5 19
10 0 6 -17 10 -37 10 l-38 0 0 -57 c-1 -72 -13 -153 -25 -153 -4 0 -6 10 -3
21 4 16 2 20 -8 17 -8 -3 -14 -15 -13 -27 0 -11 -3 -21 -8 -21 -15 0 -9 58 7
64 8 3 15 10 15 16 0 5 -7 10 -15 10 -8 0 -15 4 -15 9 0 5 7 11 15 15 29 11
16 28 -15 21 -33 -7 -37 1 -16 31 12 15 17 17 27 7 35 -35 40 5 5 41 -26 29
-46 34 -46 11z"/>
<path d="M112 2433 c4 -22 38 -30 38 -10 0 8 -7 18 -16 21 -23 9 -26 8 -22
-11z"/>
<path d="M160 2185 c0 -19 -35 -89 -63 -127 -28 -38 -13 -48 22 -14 18 17 31
24 35 17 10 -16 -2 -31 -25 -31 -10 0 -19 -4 -19 -10 0 -5 11 -10 25 -10 21 0
25 -5 25 -29 0 -30 -14 -41 -56 -41 -13 0 -24 -5 -24 -10 0 -21 30 -21 85 -1
67 25 66 25 58 5 -4 -12 -2 -15 8 -12 8 2 20 25 28 50 14 45 14 46 65 52 28 3
66 6 84 6 17 0 32 4 32 9 0 16 -25 19 -71 10 -24 -4 -56 -8 -70 -9 -23 0 -25
3 -21 30 4 28 7 30 62 36 54 6 58 8 64 36 3 17 3 34 0 39 -7 12 -64 11 -64 -1
0 -5 7 -10 15 -10 8 0 15 -8 15 -19 0 -13 -10 -20 -31 -25 -50 -10 -58 -8 -52
14 3 11 14 20 24 20 11 0 19 5 19 10 0 6 -17 10 -37 10 l-38 0 0 -57 c-1 -72
-13 -153 -25 -153 -4 0 -6 10 -3 21 4 16 2 20 -8 17 -8 -3 -14 -15 -13 -27 0
-11 -3 -21 -8 -21 -15 0 -9 58 7 64 8 3 15 10 15 16 0 5 -7 10 -15 10 -8 0
-15 4 -15 9 0 5 7 11 15 15 29 11 16 28 -15 21 -33 -7 -37 1 -16 31 12 15 17
17 27 7 35 -35 40 5 5 41 -26 29 -46 34 -46 11z"/>
<path d="M112 1983 c4 -22 38 -30 38 -10 0 8 -7 18 -16 21 -23 9 -26 8 -22
-11z"/>
<path d="M160 1735 c0 -19 -35 -89 -63 -127 -28 -38 -13 -48 22 -14 18 17 31
24 35 17 10 -16 -2 -31 -25 -31 -10 0 -19 -4 -19 -10 0 -5 11 -10 25 -10 21 0
25 -5 25 -29 0 -30 -14 -41 -56 -41 -13 0 -24 -5 -24 -10 0 -21 30 -21 85 -1
67 25 66 25 58 5 -4 -12 -2 -15 8 -12 8 2 20 25 28 51 12 38 19 47 38 47 16 0
23 -6 23 -20 0 -11 7 -20 15 -20 9 0 15 9 15 25 0 23 4 25 45 25 25 0 45 4 45
9 0 13 -23 20 -53 14 -24 -5 -27 -2 -27 21 0 35 -28 34 -32 -1 -2 -22 -9 -29
-29 -31 -23 -3 -25 0 -21 27 4 29 7 31 62 37 54 6 58 8 64 36 3 17 3 34 0 39
-7 12 -64 11 -64 -1 0 -5 7 -10 15 -10 8 0 15 -8 15 -19 0 -13 -10 -20 -31
-25 -50 -10 -58 -8 -52 14 3 11 14 20 24 20 11 0 19 5 19 10 0 6 -17 10 -37
10 l-38 0 0 -57 c-1 -72 -13 -153 -25 -153 -4 0 -6 10 -3 21 4 16 2 20 -8 17
-8 -3 -14 -15 -13 -27 0 -11 -3 -21 -8 -21 -15 0 -9 58 7 64 8 3 15 10 15 16
0 5 -7 10 -15 10 -8 0 -15 4 -15 9 0 5 7 11 15 15 29 11 16 28 -15 21 -33 -7
-37 1 -16 31 12 15 17 17 27 7 35 -35 40 5 5 41 -26 29 -46 34 -46 11z"/>
<path d="M112 1533 c4 -22 38 -30 38 -10 0 8 -7 18 -16 21 -23 9 -26 8 -22
-11z"/>
<path d="M160 1285 c0 -19 -35 -89 -63 -127 -28 -38 -13 -48 22 -14 18 17 31
24 35 17 10 -16 -2 -31 -25 -31 -10 0 -19 -4 -19 -10 0 -5 11 -10 25 -10 21 0
25 -5 25 -29 0 -30 -14 -41 -56 -41 -13 0 -24 -5 -24 -10 0 -21 30 -21 85 -1
67 25 66 25 58 5 -4 -12 -2 -15 8 -12 8 2 20 25 28 51 12 38 19 47 38 47 16 0
23 -6 23 -20 0 -11 7 -20 15 -20 9 0 15 9 15 25 0 23 4 25 45 25 25 0 45 4 45
9 0 13 -23 20 -53 14 -24 -5 -27 -2 -27 21 0 35 -28 34 -32 -1 -2 -22 -9 -29
-29 -31 -23 -3 -25 0 -21 27 4 29 7 31 62 37 54 6 58 8 64 36 3 17 3 34 0 39
-7 12 -64 11 -64 -1 0 -5 7 -10 15 -10 8 0 15 -8 15 -19 0 -13 -10 -20 -31
-25 -50 -10 -58 -8 -52 14 3 11 14 20 24 20 11 0 19 5 19 10 0 6 -17 10 -37
10 l-38 0 0 -57 c-1 -72 -13 -153 -25 -153 -4 0 -6 10 -3 21 4 16 2 20 -8 17
-8 -3 -14 -15 -13 -27 0 -11 -3 -21 -8 -21 -15 0 -9 58 7 64 8 3 15 10 15 16
0 5 -7 10 -15 10 -8 0 -15 4 -15 9 0 5 7 11 15 15 29 11 16 28 -15 21 -33 -7
-37 1 -16 31 12 15 17 17 27 7 35 -35 40 5 5 41 -26 29 -46 34 -46 11z"/>
<path d="M112 1083 c4 -22 38 -30 38 -10 0 8 -7 18 -16 21 -23 9 -26 8 -22
-11z"/>
<path d="M274 1063 c3 -10 8 -30 12 -45 8 -34 24 -37 24 -5 0 38 -12 67 -27
67 -9 0 -12 -6 -9 -17z"/>
<path d="M160 835 c0 -19 -35 -89 -63 -127 -28 -38 -13 -48 22 -14 18 17 31
24 35 17 10 -16 -2 -31 -25 -31 -10 0 -19 -4 -19 -10 0 -5 11 -10 25 -10 21 0
25 -5 25 -29 0 -30 -14 -41 -56 -41 -13 0 -24 -5 -24 -10 0 -21 30 -21 85 -1
67 25 66 25 58 5 -4 -12 -2 -15 8 -12 8 2 20 25 28 51 12 39 19 47 38 47 32 0
27 -34 -5 -38 -16 -3 -21 -9 -18 -20 3 -9 8 -29 12 -44 9 -41 26 -34 22 10 -3
36 -2 37 34 40 37 3 38 3 32 -27 -9 -43 18 -42 34 1 15 39 0 62 -35 53 -18 -4
-23 -1 -23 15 0 17 7 20 45 20 25 0 45 4 45 9 0 13 -23 20 -53 14 -24 -5 -27
-2 -27 21 0 35 -28 34 -32 -1 -2 -22 -9 -29 -29 -31 -23 -3 -25 0 -21 27 4 29
7 31 62 37 54 6 58 8 64 36 3 17 3 34 0 39 -7 12 -64 11 -64 -1 0 -5 7 -10 15
-10 8 0 15 -8 15 -19 0 -13 -10 -20 -31 -25 -50 -10 -58 -8 -52 14 3 11 14 20
24 20 11 0 19 5 19 10 0 6 -17 10 -37 10 l-38 0 0 -57 c-1 -72 -13 -153 -25
-153 -4 0 -6 10 -3 21 4 16 2 20 -8 17 -8 -3 -14 -15 -13 -27 0 -11 -3 -21 -8
-21 -15 0 -9 58 7 64 8 3 15 10 15 16 0 5 -7 10 -15 10 -8 0 -15 4 -15 9 0 5
7 11 15 15 29 11 16 28 -15 21 -33 -7 -37 1 -16 31 12 15 17 17 27 7 35 -35
40 5 5 41 -26 29 -46 34 -46 11z"/>
<path d="M112 633 c4 -22 38 -30 38 -10 0 8 -7 18 -16 21 -23 9 -26 8 -22 -11z"/>
<path d="M160 385 c0 -19 -35 -89 -63 -127 -28 -38 -13 -48 22 -14 18 17 31
24 35 17 10 -16 -2 -31 -25 -31 -10 0 -19 -4 -19 -10 0 -5 11 -10 25 -10 21 0
25 -5 25 -29 0 -30 -14 -41 -56 -41 -13 0 -24 -5 -24 -10 0 -21 30 -21 85 -1
67 25 66 25 58 5 -4 -12 -2 -15 8 -12 8 2 20 25 28 51 12 39 19 47 38 47 32 0
27 -34 -5 -38 -16 -3 -21 -9 -18 -20 3 -9 8 -30 12 -45 4 -19 11 -26 23 -23 9
2 32 7 51 10 28 5 38 13 48 38 15 39 0 62 -35 53 -18 -4 -23 -1 -23 15 0 17 7
20 45 20 25 0 45 4 45 9 0 13 -23 20 -53 14 -24 -5 -27 -2 -27 21 0 35 -28 34
-32 -1 -2 -22 -9 -29 -29 -31 -23 -3 -25 0 -21 27 4 29 7 31 62 37 54 6 58 8
64 36 3 17 3 34 0 39 -7 12 -64 11 -64 -1 0 -5 7 -10 15 -10 8 0 15 -8 15 -19
0 -13 -10 -20 -31 -25 -50 -10 -58 -8 -52 14 3 11 14 20 24 20 11 0 19 5 19
10 0 6 -17 10 -37 10 l-38 0 0 -57 c-1 -72 -13 -153 -25 -153 -4 0 -6 10 -3
21 4 16 2 20 -8 17 -8 -3 -14 -15 -13 -27 0 -11 -3 -21 -8 -21 -15 0 -9 58 7
64 8 3 15 10 15 16 0 5 -7 10 -15 10 -8 0 -15 4 -15 9 0 5 7 11 15 15 29 11
16 28 -15 21 -33 -7 -37 1 -16 31 12 15 17 17 27 7 35 -35 40 5 5 41 -26 29
-46 34 -46 11z m220 -224 c0 -16 -30 -41 -50 -41 -17 0 -34 33 -22 44 9 10 72
7 72 -3z"/>
<path d="M112 183 c4 -22 38 -30 38 -10 0 8 -7 18 -16 21 -23 9 -26 8 -22 -11z"/>
</g>
</svg>
