<?xml version="1.0" standalone="no"?>
<!DOCTYPE svg PUBLIC "-//W3C//DTD SVG 20010904//EN"
 "http://www.w3.org/TR/2001/REC-SVG-20010904/DTD/svg10.dtd">
<svg version="1.0" xmlns="http://www.w3.org/2000/svg"
 width="50.000000pt" height="725.000000pt" viewBox="0 0 50.000000 725.000000"
 preserveAspectRatio="xMidYMid meet">
<metadata>
Created by potrace 1.16, written by Peter Selinger 2001-2019
</metadata>
<g transform="translate(0.000000,725.000000) scale(0.100000,-0.100000)"
fill="#000000" stroke="none">
<path d="M146 7136 c-3 -13 -22 -47 -41 -76 -20 -29 -33 -55 -30 -58 16 -17
123 126 110 148 -11 18 -33 11 -39 -14z"/>
<path d="M146 6686 c-3 -13 -22 -47 -41 -76 -20 -29 -33 -55 -30 -58 7 -7 43
26 75 70 24 32 29 36 40 23 14 -17 40 -20 40 -4 0 13 -55 69 -68 69 -5 0 -13
-11 -16 -24z"/>
<path d="M146 6236 c-3 -13 -22 -47 -41 -76 -36 -54 -40 -76 -7 -47 10 10 29
17 43 17 36 0 69 11 69 22 0 6 -14 8 -36 3 l-36 -6 18 30 c16 27 20 29 34 16
19 -18 40 -20 40 -4 0 13 -55 69 -68 69 -5 0 -13 -11 -16 -24z"/>
<path d="M146 5786 c-3 -13 -22 -47 -41 -76 -36 -54 -40 -76 -7 -47 10 10 29
17 43 17 36 0 69 11 69 22 0 6 -14 8 -36 3 l-36 -6 18 30 c16 27 20 29 34 16
19 -18 40 -20 40 -4 0 13 -55 69 -68 69 -5 0 -13 -11 -16 -24z"/>
<path d="M143 5649 c-18 -5 -33 -14 -33 -19 0 -12 -2 -12 60 1 27 6 50 15 50
20 0 11 -34 10 -77 -2z"/>
<path d="M146 5336 c-3 -13 -22 -47 -41 -76 -37 -55 -39 -76 -5 -45 19 17 50
15 50 -4 0 -5 -9 -13 -20 -16 -11 -3 -20 -11 -20 -17 0 -6 9 -8 20 -5 18 4 20
0 20 -35 0 -52 24 -47 28 6 2 28 9 40 23 43 25 7 25 23 -1 23 -11 0 -20 7 -20
15 0 8 7 15 15 15 8 0 15 5 15 11 0 7 -12 9 -36 4 l-36 -6 18 30 c16 27 20 29
34 16 19 -18 40 -20 40 -4 0 13 -55 69 -68 69 -5 0 -13 -11 -16 -24z"/>
<path d="M146 4886 c-3 -13 -22 -47 -41 -76 -37 -55 -39 -76 -5 -45 19 17 50
15 50 -4 0 -5 -9 -13 -20 -16 -11 -3 -20 -11 -20 -17 0 -6 9 -8 20 -5 18 4 20
0 20 -35 0 -52 24 -47 28 6 2 28 9 40 23 43 25 7 25 23 -1 23 -11 0 -20 7 -20
15 0 8 7 15 15 15 8 0 15 5 15 11 0 7 -12 9 -36 4 l-36 -6 18 30 c16 27 20 29
34 16 19 -18 40 -20 40 -4 0 13 -55 69 -68 69 -5 0 -13 -11 -16 -24z"/>
<path d="M104 4695 c3 -9 6 -19 6 -21 0 -2 7 -4 16 -4 22 0 13 34 -10 38 -14
3 -17 0 -12 -13z"/>
<path d="M146 4436 c-3 -13 -22 -47 -41 -76 -37 -55 -39 -76 -5 -45 19 17 50
15 50 -4 0 -5 -9 -13 -20 -16 -11 -3 -20 -11 -20 -17 0 -6 9 -8 20 -5 18 4 20
0 20 -35 0 -52 24 -47 28 6 2 28 9 40 23 43 25 7 25 23 -1 23 -11 0 -20 7 -20
15 0 8 7 15 15 15 8 0 15 5 15 11 0 7 -12 9 -36 4 l-36 -6 18 30 c16 27 20 29
34 16 19 -18 40 -20 40 -4 0 13 -55 69 -68 69 -5 0 -13 -11 -16 -24z"/>
<path d="M193 4265 c-3 -9 -3 -18 0 -21 9 -9 27 6 27 22 0 19 -19 18 -27 -1z"/>
<path d="M104 4245 c3 -9 6 -19 6 -21 0 -2 7 -4 16 -4 22 0 13 34 -10 38 -14
3 -17 0 -12 -13z"/>
<path d="M146 3986 c-3 -13 -22 -47 -41 -76 -37 -55 -39 -76 -5 -45 19 17 50
15 50 -4 0 -5 -9 -13 -20 -16 -11 -3 -20 -11 -20 -17 0 -6 9 -8 20 -5 17 4 20
0 20 -28 0 -31 -3 -35 -35 -41 -39 -7 -45 -19 -16 -29 20 -6 111 33 111 48 0
5 -7 7 -15 3 -11 -4 -15 2 -15 25 0 22 5 32 20 36 11 3 20 9 20 14 0 5 -9 9
-20 9 -11 0 -20 7 -20 15 0 8 7 15 15 15 8 0 15 5 15 11 0 7 -12 9 -36 4 l-36
-6 18 30 c16 27 20 29 34 16 19 -18 40 -20 40 -4 0 13 -55 69 -68 69 -5 0 -13
-11 -16 -24z"/>
<path d="M193 3815 c-3 -9 -3 -18 0 -21 9 -9 27 6 27 22 0 19 -19 18 -27 -1z"/>
<path d="M104 3795 c3 -9 6 -19 6 -21 0 -2 7 -4 16 -4 22 0 13 34 -10 38 -14
3 -17 0 -12 -13z"/>
<path d="M295 3546 c-22 -11 -42 -22 -44 -23 -2 -2 -2 -6 2 -9 3 -3 29 0 57 7
35 9 50 18 48 28 -4 22 -19 21 -63 -3z"/>
<path d="M146 3536 c-3 -13 -22 -47 -41 -76 -37 -55 -39 -76 -5 -45 19 17 50
15 50 -4 0 -5 -9 -13 -20 -16 -11 -3 -20 -11 -20 -17 0 -6 9 -8 20 -5 17 4 20
0 20 -28 0 -31 -3 -35 -35 -41 -39 -7 -45 -19 -16 -29 20 -6 111 33 111 48 0
5 -7 7 -15 3 -11 -4 -15 2 -15 25 0 22 5 32 20 36 11 3 20 9 20 14 0 5 -9 9
-20 9 -11 0 -20 7 -20 15 0 8 7 15 15 15 8 0 15 5 15 11 0 7 -12 9 -36 4 l-36
-6 18 30 c16 27 20 29 34 16 19 -18 40 -20 40 -4 0 13 -55 69 -68 69 -5 0 -13
-11 -16 -24z"/>
<path d="M193 3365 c-3 -9 -3 -18 0 -21 9 -9 27 6 27 22 0 19 -19 18 -27 -1z"/>
<path d="M104 3345 c3 -9 6 -19 6 -21 0 -2 7 -4 16 -4 22 0 13 34 -10 38 -14
3 -17 0 -12 -13z"/>
<path d="M295 3096 c-22 -11 -42 -22 -44 -23 -2 -2 -2 -6 2 -9 3 -3 29 0 57 7
35 9 50 18 48 28 -4 22 -19 21 -63 -3z"/>
<path d="M146 3086 c-3 -13 -22 -47 -41 -76 -37 -55 -39 -76 -5 -45 19 17 50
15 50 -4 0 -5 -9 -13 -20 -16 -11 -3 -20 -11 -20 -17 0 -6 9 -8 20 -5 17 4 20
0 20 -28 0 -31 -3 -35 -35 -41 -39 -7 -45 -19 -16 -29 20 -6 111 33 111 48 0
5 -7 7 -15 3 -11 -4 -15 2 -15 25 0 22 5 32 20 36 11 3 20 9 20 14 0 5 -9 9
-20 9 -11 0 -20 7 -20 15 0 8 7 15 15 15 8 0 15 5 15 11 0 7 -12 9 -36 4 l-36
-6 18 30 c16 27 20 29 34 16 19 -18 40 -20 40 -4 0 13 -55 69 -68 69 -5 0 -13
-11 -16 -24z"/>
<path d="M242 3023 c5 -25 28 -28 28 -4 0 12 -6 21 -16 21 -9 0 -14 -7 -12
-17z"/>
<path d="M193 2915 c-3 -9 -3 -18 0 -21 9 -9 27 6 27 22 0 19 -19 18 -27 -1z"/>
<path d="M104 2895 c3 -9 6 -19 6 -21 0 -2 7 -4 16 -4 22 0 13 34 -10 38 -14
3 -17 0 -12 -13z"/>
<path d="M293 2646 c-42 -21 -55 -36 -30 -36 8 0 19 -11 25 -25 6 -14 16 -25
22 -25 16 0 11 32 -7 45 -16 12 -14 14 20 20 27 5 37 12 35 23 -4 22 -18 22
-65 -2z"/>
<path d="M146 2636 c-3 -13 -22 -47 -41 -76 -37 -55 -39 -76 -5 -45 19 17 50
15 50 -4 0 -5 -9 -13 -20 -16 -11 -3 -20 -11 -20 -17 0 -6 9 -8 20 -5 17 4 20
0 20 -28 0 -31 -3 -35 -35 -41 -39 -7 -45 -19 -16 -29 20 -6 111 33 111 48 0
5 -7 7 -15 3 -11 -4 -15 2 -15 25 0 22 5 32 20 36 11 3 20 9 20 14 0 5 -9 9
-20 9 -11 0 -20 7 -20 15 0 8 7 15 15 15 8 0 15 5 15 11 0 7 -12 9 -36 4 l-36
-6 18 30 c16 27 20 29 34 16 19 -18 40 -20 40 -4 0 13 -55 69 -68 69 -5 0 -13
-11 -16 -24z"/>
<path d="M242 2573 c5 -25 28 -28 28 -4 0 12 -6 21 -16 21 -9 0 -14 -7 -12
-17z"/>
<path d="M193 2465 c-3 -9 -3 -18 0 -21 9 -9 27 6 27 22 0 19 -19 18 -27 -1z"/>
<path d="M104 2445 c3 -9 6 -19 6 -21 0 -2 7 -4 16 -4 22 0 13 34 -10 38 -14
3 -17 0 -12 -13z"/>
<path d="M293 2196 c-42 -21 -55 -36 -30 -36 8 0 19 -11 25 -25 6 -14 16 -25
22 -25 16 0 11 32 -7 45 -16 12 -14 14 20 20 27 5 37 12 35 23 -4 22 -18 22
-65 -2z"/>
<path d="M146 2186 c-3 -13 -22 -47 -41 -76 -37 -55 -39 -76 -5 -45 19 17 50
15 50 -4 0 -5 -9 -13 -20 -16 -11 -3 -20 -11 -20 -17 0 -6 9 -8 20 -5 17 4 20
0 20 -28 0 -31 -3 -35 -35 -41 -39 -7 -45 -19 -16 -29 20 -6 111 33 111 48 0
5 -7 7 -15 3 -11 -4 -15 2 -15 25 0 22 5 32 20 36 11 3 20 9 20 14 0 5 -9 9
-20 9 -11 0 -20 7 -20 15 0 8 7 15 15 15 8 0 15 5 15 11 0 7 -12 9 -36 4 l-36
-6 18 30 c16 27 20 29 34 16 19 -18 40 -20 40 -4 0 13 -55 69 -68 69 -5 0 -13
-11 -16 -24z"/>
<path d="M346 2153 c-3 -10 -9 -24 -12 -30 -9 -19 11 -16 37 7 21 17 22 21 9
30 -21 14 -27 13 -34 -7z"/>
<path d="M242 2123 c5 -25 28 -28 28 -4 0 12 -6 21 -16 21 -9 0 -14 -7 -12
-17z"/>
<path d="M193 2015 c-3 -9 -3 -18 0 -21 9 -9 27 6 27 22 0 19 -19 18 -27 -1z"/>
<path d="M104 1995 c3 -9 6 -19 6 -21 0 -2 7 -4 16 -4 22 0 13 34 -10 38 -14
3 -17 0 -12 -13z"/>
<path d="M293 1746 c-42 -21 -55 -36 -30 -36 8 0 19 -11 25 -25 6 -14 16 -25
22 -25 16 0 11 32 -7 45 -16 12 -14 14 20 20 27 5 37 12 35 23 -4 22 -18 22
-65 -2z"/>
<path d="M146 1736 c-3 -13 -22 -47 -41 -76 -37 -55 -39 -76 -5 -45 19 17 50
15 50 -4 0 -5 -9 -13 -20 -16 -11 -3 -20 -11 -20 -17 0 -6 9 -8 20 -5 17 4 20
0 20 -28 0 -31 -3 -35 -35 -41 -39 -7 -45 -19 -16 -29 20 -6 111 33 111 48 0
5 -7 7 -15 3 -11 -4 -15 2 -15 25 0 22 5 32 20 36 11 3 20 9 20 14 0 5 -9 9
-20 9 -11 0 -20 7 -20 15 0 8 7 15 15 15 8 0 15 5 15 11 0 7 -12 9 -36 4 l-36
-6 18 30 c16 27 20 29 34 16 19 -18 40 -20 40 -4 0 13 -55 69 -68 69 -5 0 -13
-11 -16 -24z"/>
<path d="M343 1694 c-12 -27 -8 -54 9 -54 7 0 8 -17 4 -46 -7 -57 11 -56 31 1
16 47 11 65 -18 65 -21 0 -21 0 2 20 21 17 22 21 9 30 -21 14 -24 13 -37 -16z"/>
<path d="M242 1673 c5 -25 28 -28 28 -4 0 12 -6 21 -16 21 -9 0 -14 -7 -12
-17z"/>
<path d="M290 1640 c0 -5 9 -10 20 -10 11 0 20 5 20 10 0 6 -9 10 -20 10 -11
0 -20 -4 -20 -10z"/>
<path d="M230 1630 c0 -5 11 -10 25 -10 14 0 25 5 25 10 0 6 -11 10 -25 10
-14 0 -25 -4 -25 -10z"/>
<path d="M193 1565 c-3 -9 -3 -18 0 -21 9 -9 27 6 27 22 0 19 -19 18 -27 -1z"/>
<path d="M104 1545 c3 -9 6 -19 6 -21 0 -2 7 -4 16 -4 22 0 13 34 -10 38 -14
3 -17 0 -12 -13z"/>
<path d="M293 1296 c-42 -21 -55 -36 -30 -36 8 0 19 -11 25 -25 6 -14 16 -25
22 -25 16 0 11 32 -7 45 -16 12 -14 14 20 20 27 5 37 12 35 23 -4 22 -18 22
-65 -2z"/>
<path d="M146 1286 c-3 -13 -22 -47 -41 -76 -37 -55 -39 -76 -5 -45 19 17 50
15 50 -4 0 -5 -9 -13 -20 -16 -11 -3 -20 -11 -20 -17 0 -6 9 -8 20 -5 17 4 20
0 20 -28 0 -31 -3 -35 -35 -41 -39 -7 -45 -19 -16 -29 20 -6 111 33 111 48 0
5 -7 7 -15 3 -11 -4 -15 2 -15 25 0 22 5 32 20 36 11 3 20 9 20 14 0 5 -9 9
-20 9 -11 0 -20 7 -20 15 0 8 7 15 15 15 8 0 15 5 15 11 0 7 -12 9 -36 4 l-36
-6 18 30 c16 27 20 29 34 16 19 -18 40 -20 40 -4 0 13 -55 69 -68 69 -5 0 -13
-11 -16 -24z"/>
<path d="M343 1244 c-12 -26 -8 -54 8 -54 5 0 9 -7 9 -15 0 -8 -9 -15 -20 -15
-11 0 -20 -4 -20 -10 0 -5 9 -10 19 -10 14 0 18 -5 14 -20 -3 -12 0 -20 7 -20
6 0 14 9 17 20 4 14 14 20 34 20 32 0 39 19 10 27 -11 3 -21 13 -24 24 -3 11
-14 19 -27 19 l-22 0 23 20 c21 17 22 21 9 30 -21 14 -24 13 -37 -16z"/>
<path d="M242 1223 c5 -25 28 -28 28 -4 0 12 -6 21 -16 21 -9 0 -14 -7 -12
-17z"/>
<path d="M290 1190 c0 -5 9 -10 20 -10 11 0 20 5 20 10 0 6 -9 10 -20 10 -11
0 -20 -4 -20 -10z"/>
<path d="M230 1180 c0 -5 11 -10 25 -10 14 0 25 5 25 10 0 6 -11 10 -25 10
-14 0 -25 -4 -25 -10z"/>
<path d="M223 1135 c-18 -8 -33 -21 -33 -30 0 -19 19 -20 26 0 3 8 26 17 50
21 24 3 44 10 44 15 0 14 -51 10 -87 -6z"/>
<path d="M104 1095 c3 -9 6 -19 6 -21 0 -2 7 -4 16 -4 22 0 13 34 -10 38 -14
3 -17 0 -12 -13z"/>
<path d="M293 846 c-42 -21 -55 -36 -30 -36 8 0 19 -11 25 -25 6 -14 16 -25
22 -25 16 0 11 32 -7 45 -16 12 -14 14 20 20 27 5 37 12 35 23 -4 22 -18 22
-65 -2z"/>
<path d="M146 836 c-3 -13 -22 -47 -41 -76 -37 -55 -39 -76 -5 -45 19 17 50
15 50 -4 0 -5 -9 -13 -20 -16 -11 -3 -20 -11 -20 -17 0 -6 9 -8 20 -5 17 4 20
0 20 -28 0 -31 -3 -35 -35 -41 -39 -7 -45 -19 -16 -29 20 -6 111 33 111 48 0
5 -7 7 -15 3 -11 -4 -15 2 -15 25 0 22 5 32 20 36 11 3 20 9 20 14 0 5 -9 9
-20 9 -11 0 -20 7 -20 15 0 8 7 15 15 15 8 0 15 5 15 11 0 7 -12 9 -36 4 l-36
-6 18 30 c16 27 20 29 34 16 19 -18 40 -20 40 -4 0 13 -55 69 -68 69 -5 0 -13
-11 -16 -24z"/>
<path d="M343 794 c-12 -26 -8 -54 8 -54 5 0 9 -7 9 -15 0 -8 -9 -15 -20 -15
-26 0 -26 -18 0 -22 36 -6 5 -28 -48 -35 -29 -3 -52 -10 -52 -14 0 -11 17 -11
88 -3 46 6 52 9 52 30 0 20 5 24 30 24 33 0 41 19 11 27 -11 3 -21 13 -24 24
-3 11 -14 19 -27 19 l-22 0 23 20 c21 17 22 21 9 30 -21 14 -24 13 -37 -16z"/>
<path d="M242 773 c5 -25 28 -28 28 -4 0 12 -6 21 -16 21 -9 0 -14 -7 -12 -17z"/>
<path d="M290 740 c0 -5 9 -10 20 -10 11 0 20 5 20 10 0 6 -9 10 -20 10 -11 0
-20 -4 -20 -10z"/>
<path d="M230 730 c0 -5 11 -10 25 -10 14 0 25 5 25 10 0 6 -11 10 -25 10 -14
0 -25 -4 -25 -10z"/>
<path d="M223 685 c-18 -8 -33 -21 -33 -30 0 -19 19 -20 26 0 3 8 26 17 50 21
24 3 44 10 44 15 0 14 -51 10 -87 -6z"/>
<path d="M104 645 c3 -9 6 -19 6 -21 0 -2 7 -4 16 -4 22 0 13 34 -10 38 -14 3
-17 0 -12 -13z"/>
<path d="M293 396 c-42 -21 -55 -36 -30 -36 8 0 19 -11 25 -25 6 -14 16 -25
22 -25 16 0 11 32 -7 45 -16 12 -14 14 20 20 27 5 37 12 35 23 -4 22 -18 22
-65 -2z"/>
<path d="M146 386 c-3 -13 -22 -47 -41 -76 -37 -55 -39 -76 -5 -45 19 17 50
15 50 -4 0 -5 -9 -13 -20 -16 -11 -3 -20 -11 -20 -17 0 -6 9 -8 20 -5 17 4 20
0 20 -28 0 -31 -3 -35 -35 -41 -39 -7 -45 -19 -16 -29 20 -6 111 33 111 48 0
5 -7 7 -15 3 -11 -4 -15 2 -15 25 0 22 5 32 20 36 11 3 20 9 20 14 0 5 -9 9
-20 9 -11 0 -20 7 -20 15 0 8 7 15 15 15 8 0 15 5 15 11 0 7 -12 9 -36 4 l-36
-6 18 30 c16 27 20 29 34 16 19 -18 40 -20 40 -4 0 13 -55 69 -68 69 -5 0 -13
-11 -16 -24z"/>
<path d="M343 344 c-12 -26 -8 -54 8 -54 5 0 9 -7 9 -15 0 -8 -9 -15 -21 -15
-16 0 -19 4 -14 20 5 16 2 20 -14 20 -15 0 -21 -6 -21 -23 0 -19 -8 -25 -45
-35 -25 -7 -48 -19 -52 -27 -8 -23 7 -33 20 -14 7 9 27 20 45 23 25 6 32 4 32
-8 0 -10 -9 -16 -25 -16 -14 0 -25 -4 -25 -10 0 -5 11 -10 25 -10 22 0 25 -4
25 -35 0 -25 -4 -35 -16 -35 -19 0 -14 -20 9 -34 24 -15 37 7 37 67 0 46 1 47
30 47 25 0 30 4 30 25 0 21 5 25 30 25 33 0 41 19 11 27 -11 3 -21 13 -24 24
-3 11 -14 19 -27 19 l-22 0 23 20 c21 17 22 21 9 30 -21 14 -24 13 -37 -16z
m11 -119 c-4 -8 -12 -15 -20 -15 -8 0 -14 7 -14 15 0 8 9 15 20 15 13 0 18 -5
14 -15z"/>
<path d="M242 323 c5 -25 28 -28 28 -4 0 12 -6 21 -16 21 -9 0 -14 -7 -12 -17z"/>
<path d="M230 280 c0 -5 11 -10 25 -10 14 0 25 5 25 10 0 6 -11 10 -25 10 -14
0 -25 -4 -25 -10z"/>
<path d="M104 195 c3 -9 6 -19 6 -21 0 -2 7 -4 16 -4 22 0 13 34 -10 38 -14 3
-17 0 -12 -13z"/>
</g>
</svg>
