<?xml version="1.0" standalone="no"?>
<!DOCTYPE svg PUBLIC "-//W3C//DTD SVG 20010904//EN"
 "http://www.w3.org/TR/2001/REC-SVG-20010904/DTD/svg10.dtd">
<svg version="1.0" xmlns="http://www.w3.org/2000/svg"
 width="50.000000pt" height="725.000000pt" viewBox="0 0 50.000000 725.000000"
 preserveAspectRatio="xMidYMid meet">
<metadata>
Created by potrace 1.16, written by Peter Selinger 2001-2019
</metadata>
<g transform="translate(0.000000,725.000000) scale(0.100000,-0.100000)"
fill="#000000" stroke="none">
<path d="M153 7103 c-12 -27 -30 -60 -39 -75 -24 -35 -8 -50 18 -18 23 28 68
114 68 130 0 27 -28 5 -47 -37z"/>
<path d="M161 6668 c-7 -18 -23 -50 -36 -70 -27 -40 -31 -58 -15 -58 9 0 64
78 73 103 2 6 11 4 24 -4 31 -19 43 -1 16 21 -13 10 -23 23 -23 29 0 25 -29 9
-39 -21z"/>
<path d="M153 6203 c-12 -27 -30 -60 -39 -75 -21 -32 -12 -48 13 -26 10 9 37
19 61 23 23 4 42 11 42 17 0 7 -14 8 -35 5 -39 -6 -40 -5 -24 26 16 30 15 30
38 16 29 -19 40 -1 14 21 -13 10 -23 23 -23 29 0 28 -28 6 -47 -36z"/>
<path d="M153 5753 c-12 -27 -30 -60 -39 -75 -21 -32 -12 -48 13 -26 10 9 37
19 61 23 23 4 42 11 42 17 0 7 -14 8 -35 5 -39 -6 -40 -5 -24 26 16 30 15 30
38 16 29 -19 40 -1 14 21 -13 10 -23 23 -23 29 0 28 -28 6 -47 -36z"/>
<path d="M148 5643 c-31 -5 -39 -23 -10 -23 37 0 92 13 92 21 0 9 -31 10 -82
2z"/>
<path d="M153 5303 c-12 -27 -30 -60 -39 -75 -21 -32 -12 -48 14 -25 23 21 42
22 42 2 0 -9 -9 -15 -25 -15 -14 0 -25 -4 -25 -10 0 -5 11 -10 25 -10 22 0 25
-4 25 -35 0 -48 16 -44 24 5 4 26 11 40 21 40 8 0 15 5 15 10 0 6 -7 10 -15
10 -8 0 -15 7 -15 15 0 8 7 15 15 15 8 0 15 5 15 11 0 8 -12 10 -35 6 -39 -6
-40 -5 -24 26 16 30 15 30 38 16 29 -19 40 -1 14 21 -13 10 -23 23 -23 29 0
28 -28 6 -47 -36z"/>
<path d="M153 4853 c-12 -27 -30 -60 -39 -75 -21 -32 -12 -48 14 -25 23 21 42
22 42 2 0 -9 -9 -15 -25 -15 -14 0 -25 -4 -25 -10 0 -5 11 -10 25 -10 22 0 25
-4 25 -35 0 -48 16 -44 24 5 4 26 11 40 21 40 8 0 15 5 15 10 0 6 -7 10 -15
10 -8 0 -15 7 -15 15 0 8 7 15 15 15 8 0 15 5 15 11 0 8 -12 10 -35 6 -39 -6
-40 -5 -24 26 16 30 15 30 38 16 29 -19 40 -1 14 21 -13 10 -23 23 -23 29 0
28 -28 6 -47 -36z"/>
<path d="M120 4697 c0 -18 28 -42 37 -33 9 8 -9 38 -25 44 -7 2 -12 -3 -12
-11z"/>
<path d="M153 4403 c-12 -27 -30 -60 -39 -75 -21 -32 -12 -48 14 -25 23 21 42
22 42 2 0 -9 -9 -15 -25 -15 -14 0 -25 -4 -25 -10 0 -5 11 -10 25 -10 22 0 25
-4 25 -35 0 -48 16 -44 24 5 4 26 11 40 21 40 8 0 15 5 15 10 0 6 -7 10 -15
10 -8 0 -15 7 -15 15 0 8 7 15 15 15 8 0 15 5 15 11 0 8 -12 10 -35 6 -39 -6
-40 -5 -24 26 16 30 15 30 38 16 29 -19 40 -1 14 21 -13 10 -23 23 -23 29 0
28 -28 6 -47 -36z"/>
<path d="M210 4255 c0 -8 7 -15 15 -15 8 0 15 7 15 15 0 8 -7 15 -15 15 -8 0
-15 -7 -15 -15z"/>
<path d="M120 4247 c0 -18 28 -42 37 -33 9 8 -9 38 -25 44 -7 2 -12 -3 -12
-11z"/>
<path d="M153 3953 c-12 -27 -30 -60 -39 -75 -21 -32 -12 -48 14 -25 23 21 42
22 42 2 0 -9 -9 -15 -25 -15 -14 0 -25 -4 -25 -10 0 -5 11 -10 25 -10 22 0 25
-4 25 -32 0 -33 0 -33 -13 -9 -6 14 -18 26 -24 29 -15 4 -17 -24 -3 -33 18
-11 10 -25 -15 -25 -15 0 -25 -6 -25 -14 0 -25 26 -25 76 -1 27 14 55 25 62
25 6 0 12 5 12 11 0 7 -10 9 -26 5 -24 -6 -26 -5 -20 16 3 13 6 26 6 31 0 4 7
7 15 7 8 0 15 5 15 10 0 6 -7 10 -15 10 -8 0 -15 7 -15 15 0 8 7 15 15 15 8 0
15 5 15 11 0 8 -12 10 -35 6 -39 -6 -40 -5 -24 26 16 30 15 30 38 16 29 -19
40 -1 14 21 -13 10 -23 23 -23 29 0 28 -28 6 -47 -36z"/>
<path d="M210 3805 c0 -8 7 -15 15 -15 8 0 15 7 15 15 0 8 -7 15 -15 15 -8 0
-15 -7 -15 -15z"/>
<path d="M153 3503 c-12 -27 -30 -60 -39 -75 -21 -32 -12 -48 14 -25 23 21 42
22 42 2 0 -9 -9 -15 -25 -15 -14 0 -25 -4 -25 -10 0 -5 11 -10 25 -10 22 0 25
-4 25 -32 0 -33 0 -33 -13 -9 -6 14 -18 26 -24 29 -15 4 -17 -24 -3 -33 18
-11 10 -25 -15 -25 -15 0 -25 -6 -25 -14 0 -25 26 -25 76 -1 27 14 55 25 62
25 6 0 12 5 12 11 0 7 -10 9 -26 5 -24 -6 -26 -5 -20 16 3 13 6 26 6 31 0 4 7
7 15 7 8 0 15 5 15 10 0 6 -7 10 -15 10 -8 0 -15 7 -15 15 0 8 7 15 15 15 8 0
15 5 15 11 0 8 -12 10 -35 6 -39 -6 -40 -5 -24 26 16 30 15 30 38 16 29 -19
40 -1 14 21 -13 10 -23 23 -23 29 0 28 -28 6 -47 -36z"/>
<path d="M264 3513 c3 -21 6 -48 6 -60 0 -13 5 -23 10 -23 11 0 14 78 4 104
-12 32 -27 16 -20 -21z"/>
<path d="M210 3355 c0 -8 7 -15 15 -15 8 0 15 7 15 15 0 8 -7 15 -15 15 -8 0
-15 -7 -15 -15z"/>
<path d="M330 3100 c0 -5 5 -10 11 -10 7 0 9 -16 4 -50 -5 -39 -4 -50 7 -50
14 0 41 97 31 113 -6 11 -53 9 -53 -3z"/>
<path d="M153 3053 c-12 -27 -30 -60 -39 -75 -21 -32 -12 -48 14 -25 23 21 42
22 42 2 0 -9 -9 -15 -25 -15 -14 0 -25 -4 -25 -10 0 -5 11 -10 25 -10 22 0 25
-4 25 -32 0 -33 0 -33 -13 -9 -6 14 -18 26 -24 29 -15 4 -17 -24 -3 -33 18
-11 10 -25 -15 -25 -15 0 -25 -6 -25 -14 0 -25 26 -25 76 -1 27 14 55 25 62
25 6 0 12 5 12 11 0 7 -10 9 -26 5 -24 -6 -26 -5 -20 16 3 13 6 26 6 31 0 4 7
7 15 7 8 0 15 5 15 10 0 6 -7 10 -15 10 -8 0 -15 7 -15 15 0 8 7 15 15 15 8 0
15 5 15 11 0 8 -12 10 -35 6 -39 -6 -40 -5 -24 26 16 30 15 30 38 16 29 -19
40 -1 14 21 -13 10 -23 23 -23 29 0 28 -28 6 -47 -36z"/>
<path d="M264 3063 c3 -21 6 -48 6 -60 0 -13 5 -23 10 -23 6 0 10 23 10 50 0
38 4 50 15 50 8 0 15 5 15 10 0 6 -14 10 -31 10 -31 0 -31 -1 -25 -37z"/>
<path d="M210 2905 c0 -8 7 -15 15 -15 8 0 15 7 15 15 0 8 -7 15 -15 15 -8 0
-15 -7 -15 -15z"/>
<path d="M330 2650 c0 -5 5 -10 10 -10 6 0 10 -7 10 -15 0 -8 -6 -15 -14 -15
-8 0 -21 -3 -30 -6 -11 -4 -16 -1 -16 10 0 9 7 16 15 16 8 0 15 5 15 10 0 6
-14 10 -31 10 -31 0 -31 -1 -25 -37 3 -21 6 -48 6 -60 0 -13 5 -23 10 -23 6 0
10 11 10 24 0 17 7 25 25 28 21 4 25 1 25 -18 0 -13 6 -24 13 -24 13 0 39 98
30 113 -6 11 -53 9 -53 -3z"/>
<path d="M153 2603 c-12 -27 -30 -60 -39 -75 -21 -32 -12 -48 14 -25 23 21 42
22 42 2 0 -9 -9 -15 -25 -15 -14 0 -25 -4 -25 -10 0 -5 11 -10 25 -10 22 0 25
-4 25 -32 0 -33 0 -33 -13 -9 -6 14 -18 26 -24 29 -15 4 -17 -24 -3 -33 18
-11 10 -25 -15 -25 -15 0 -25 -6 -25 -14 0 -25 26 -25 76 -1 27 14 55 25 62
25 6 0 12 5 12 11 0 7 -10 9 -26 5 -24 -6 -26 -5 -20 16 3 13 6 26 6 31 0 4 7
7 15 7 8 0 15 5 15 10 0 6 -7 10 -15 10 -8 0 -15 7 -15 15 0 8 7 15 15 15 8 0
15 5 15 11 0 8 -12 10 -35 6 -39 -6 -40 -5 -24 26 16 30 15 30 38 16 29 -19
40 -1 14 21 -13 10 -23 23 -23 29 0 28 -28 6 -47 -36z"/>
<path d="M210 2455 c0 -8 7 -15 15 -15 8 0 15 7 15 15 0 8 -7 15 -15 15 -8 0
-15 -7 -15 -15z"/>
<path d="M330 2200 c0 -5 5 -10 10 -10 6 0 10 -7 10 -15 0 -8 -6 -15 -14 -15
-8 0 -21 -3 -30 -6 -11 -4 -16 -1 -16 10 0 9 7 16 15 16 8 0 15 5 15 10 0 6
-14 10 -31 10 l-30 0 7 -57 c3 -32 7 -58 8 -59 0 0 22 1 47 4 l45 4 11 51 c6
29 9 55 6 60 -6 11 -53 9 -53 -3z m10 -75 c0 -9 -9 -15 -25 -15 -31 0 -33 17
-2 23 12 2 23 5 25 6 1 0 2 -6 2 -14z"/>
<path d="M153 2153 c-12 -27 -30 -60 -39 -75 -21 -32 -12 -48 14 -25 23 21 42
22 42 2 0 -9 -9 -15 -25 -15 -14 0 -25 -4 -25 -10 0 -5 11 -10 25 -10 22 0 25
-4 25 -32 0 -33 0 -33 -13 -9 -6 14 -18 26 -24 29 -15 4 -17 -24 -3 -33 18
-11 10 -25 -15 -25 -15 0 -25 -6 -25 -14 0 -25 26 -25 76 -1 27 14 55 25 62
25 6 0 12 5 12 11 0 7 -10 9 -26 5 -24 -6 -26 -5 -20 16 3 13 6 26 6 31 0 4 7
7 15 7 8 0 15 5 15 10 0 6 -7 10 -15 10 -8 0 -15 7 -15 15 0 8 7 15 15 15 8 0
15 5 15 11 0 8 -12 10 -35 6 -39 -6 -40 -5 -24 26 16 30 15 30 38 16 29 -19
40 -1 14 21 -13 10 -23 23 -23 29 0 28 -28 6 -47 -36z"/>
<path d="M210 2005 c0 -8 7 -15 15 -15 8 0 15 7 15 15 0 8 -7 15 -15 15 -8 0
-15 -7 -15 -15z"/>
<path d="M330 1750 c0 -5 5 -10 10 -10 6 0 10 -7 10 -15 0 -8 -6 -15 -14 -15
-8 0 -21 -3 -30 -6 -11 -4 -16 -1 -16 10 0 9 7 16 15 16 8 0 15 5 15 10 0 6
-13 10 -30 10 -33 0 -34 -3 -20 -85 5 -32 4 -55 -2 -63 -6 -7 -8 -15 -4 -19 8
-9 46 27 46 44 0 8 11 13 28 13 26 0 29 4 39 53 6 28 9 55 6 60 -6 11 -53 9
-53 -3z m10 -75 c0 -9 -9 -15 -25 -15 -31 0 -33 17 -2 23 12 2 23 5 25 6 1 0
2 -6 2 -14z"/>
<path d="M153 1703 c-12 -27 -30 -60 -39 -75 -21 -32 -12 -48 14 -25 23 21 42
22 42 2 0 -9 -9 -15 -25 -15 -14 0 -25 -4 -25 -10 0 -5 11 -10 25 -10 22 0 25
-4 25 -32 0 -33 0 -33 -13 -9 -6 14 -18 26 -24 29 -15 4 -17 -24 -3 -33 18
-11 10 -25 -15 -25 -15 0 -25 -6 -25 -14 0 -25 26 -25 76 -1 27 14 55 25 62
25 6 0 12 5 12 11 0 7 -10 9 -26 5 -24 -6 -26 -5 -20 16 3 13 6 26 6 31 0 4 7
7 15 7 8 0 15 5 15 10 0 6 -7 10 -15 10 -8 0 -15 7 -15 15 0 8 7 15 15 15 8 0
15 5 15 11 0 8 -12 10 -35 6 -39 -6 -40 -5 -24 26 16 30 15 30 38 16 29 -19
40 -1 14 21 -13 10 -23 23 -23 29 0 28 -28 6 -47 -36z"/>
<path d="M210 1555 c0 -8 7 -15 15 -15 8 0 15 7 15 15 0 8 -7 15 -15 15 -8 0
-15 -7 -15 -15z"/>
<path d="M330 1300 c0 -5 5 -10 10 -10 6 0 10 -7 10 -15 0 -8 -6 -15 -14 -15
-8 0 -21 -3 -30 -6 -11 -4 -16 -1 -16 10 0 9 7 16 15 16 8 0 15 5 15 10 0 6
-14 10 -31 10 l-31 0 7 -52 c3 -29 9 -60 11 -70 3 -9 0 -19 -6 -23 -24 -15 -6
-21 55 -17 l66 4 -6 -28 c-18 -78 -26 -95 -46 -89 -22 7 -24 -3 -5 -27 28 -37
46 -17 77 86 23 76 16 87 -52 79 -41 -5 -49 -3 -49 11 0 11 9 16 28 16 26 0
29 4 39 53 6 28 9 55 6 60 -6 11 -53 9 -53 -3z m10 -75 c0 -9 -9 -15 -25 -15
-31 0 -33 17 -2 23 12 2 23 5 25 6 1 0 2 -6 2 -14z"/>
<path d="M153 1253 c-12 -27 -30 -60 -39 -75 -21 -32 -12 -48 14 -25 23 21 42
22 42 2 0 -9 -9 -15 -25 -15 -14 0 -25 -4 -25 -10 0 -5 11 -10 25 -10 22 0 25
-4 25 -32 0 -33 0 -33 -13 -9 -6 14 -18 26 -24 29 -15 4 -17 -24 -3 -33 18
-11 10 -25 -15 -25 -15 0 -25 -6 -25 -14 0 -25 26 -25 76 -1 27 14 55 25 62
25 6 0 12 5 12 11 0 7 -10 9 -26 5 -24 -6 -26 -5 -20 16 3 13 6 26 6 31 0 4 7
7 15 7 8 0 15 5 15 10 0 6 -7 10 -15 10 -8 0 -15 7 -15 15 0 8 7 15 15 15 8 0
15 5 15 11 0 8 -12 10 -35 6 -39 -6 -40 -5 -24 26 16 30 15 30 38 16 29 -19
40 -1 14 21 -13 10 -23 23 -23 29 0 28 -28 6 -47 -36z"/>
<path d="M210 1105 c0 -8 7 -15 15 -15 8 0 15 7 15 15 0 8 -7 15 -15 15 -8 0
-15 -7 -15 -15z"/>
<path d="M330 850 c0 -5 5 -10 10 -10 6 0 10 -7 10 -15 0 -8 -6 -15 -14 -15
-8 0 -21 -3 -30 -6 -11 -4 -16 -1 -16 10 0 9 7 16 15 16 8 0 15 5 15 10 0 6
-14 10 -31 10 l-31 0 7 -52 c3 -29 9 -60 11 -70 3 -9 0 -19 -6 -23 -16 -10
-12 -28 5 -21 19 7 19 -4 -1 -32 -28 -40 -4 -39 31 1 22 25 40 37 59 37 24 0
26 -3 20 -27 -17 -77 -25 -94 -45 -88 -22 7 -24 -3 -5 -27 28 -37 46 -17 77
86 23 76 16 87 -52 79 -41 -5 -49 -3 -49 11 0 11 9 16 28 16 26 0 29 4 39 53
6 28 9 55 6 60 -6 11 -53 9 -53 -3z m10 -75 c0 -9 -9 -15 -25 -15 -31 0 -33
17 -2 23 12 2 23 5 25 6 1 0 2 -6 2 -14z"/>
<path d="M153 803 c-12 -27 -30 -60 -39 -75 -21 -32 -12 -48 14 -25 23 21 42
22 42 2 0 -9 -9 -15 -25 -15 -14 0 -25 -4 -25 -10 0 -5 11 -10 25 -10 22 0 25
-4 25 -32 0 -33 0 -33 -13 -9 -6 14 -18 26 -24 29 -15 4 -17 -24 -3 -33 18
-11 10 -25 -15 -25 -15 0 -25 -6 -25 -14 0 -25 26 -25 76 -1 27 14 55 25 62
25 6 0 12 5 12 11 0 7 -10 9 -26 5 -24 -6 -26 -5 -20 16 3 13 6 26 6 31 0 4 7
7 15 7 8 0 15 5 15 10 0 6 -7 10 -15 10 -8 0 -15 7 -15 15 0 8 7 15 15 15 8 0
15 5 15 11 0 8 -12 10 -35 6 -39 -6 -40 -5 -24 26 16 30 15 30 38 16 29 -19
40 -1 14 21 -13 10 -23 23 -23 29 0 28 -28 6 -47 -36z"/>
<path d="M210 655 c0 -8 7 -15 15 -15 8 0 15 7 15 15 0 8 -7 15 -15 15 -8 0
-15 -7 -15 -15z"/>
<path d="M330 400 c0 -5 5 -10 10 -10 6 0 10 -7 10 -15 0 -8 -6 -15 -14 -15
-8 0 -21 -3 -30 -6 -11 -4 -16 -1 -16 10 0 9 7 16 15 16 8 0 15 5 15 10 0 6
-14 10 -31 10 l-31 0 7 -52 c3 -29 9 -60 11 -70 3 -9 0 -19 -6 -23 -16 -10
-12 -28 5 -21 19 7 19 -4 -1 -32 -28 -41 -3 -39 32 2 19 22 34 36 34 32 0 -16
-30 -63 -59 -90 -17 -17 -31 -33 -31 -38 0 -33 80 37 105 92 21 46 38 54 29
13 -17 -77 -25 -94 -45 -88 -22 7 -24 -3 -5 -28 28 -36 46 -16 77 87 23 76 16
87 -52 79 -41 -5 -49 -3 -49 11 0 11 9 16 28 16 26 0 29 4 39 53 6 28 9 55 6
60 -6 11 -53 9 -53 -3z m10 -75 c0 -9 -9 -15 -25 -15 -31 0 -33 17 -2 23 12 2
23 5 25 6 1 0 2 -6 2 -14z"/>
<path d="M153 353 c-12 -27 -30 -60 -39 -75 -21 -32 -12 -48 14 -25 23 21 42
22 42 2 0 -9 -9 -15 -25 -15 -14 0 -25 -4 -25 -10 0 -5 11 -10 25 -10 22 0 25
-4 25 -32 0 -33 0 -33 -13 -9 -6 14 -18 26 -24 29 -15 4 -17 -24 -3 -33 18
-11 10 -25 -15 -25 -15 0 -25 -6 -25 -14 0 -25 26 -25 76 -1 27 14 55 25 62
25 6 0 12 5 12 11 0 7 -10 9 -26 5 -24 -6 -26 -5 -20 16 3 13 6 26 6 31 0 4 7
7 15 7 8 0 15 5 15 10 0 6 -7 10 -15 10 -8 0 -15 7 -15 15 0 8 7 15 15 15 8 0
15 5 15 11 0 8 -12 10 -35 6 -39 -6 -40 -5 -24 26 16 30 15 30 38 16 29 -19
40 -1 14 21 -13 10 -23 23 -23 29 0 28 -28 6 -47 -36z"/>
<path d="M210 205 c0 -8 7 -15 15 -15 8 0 15 7 15 15 0 8 -7 15 -15 15 -8 0
-15 -7 -15 -15z"/>
</g>
</svg>
