<?xml version="1.0" standalone="no"?>
<!DOCTYPE svg PUBLIC "-//W3C//DTD SVG 20010904//EN"
 "http://www.w3.org/TR/2001/REC-SVG-20010904/DTD/svg10.dtd">
<svg version="1.0" xmlns="http://www.w3.org/2000/svg"
 width="95.000000pt" height="725.000000pt" viewBox="0 0 95.000000 725.000000"
 preserveAspectRatio="xMidYMid meet">
<metadata>
Created by potrace 1.16, written by Peter Selinger 2001-2019
</metadata>
<g transform="translate(0.000000,725.000000) scale(0.100000,-0.100000)"
fill="#000000" stroke="none">
<path d="M165 7121 c-3 -16 -24 -55 -46 -86 -42 -60 -45 -83 -6 -47 25 24 47
29 47 11 0 -6 -9 -13 -20 -16 -11 -3 -20 -9 -20 -14 0 -5 9 -9 20 -9 12 0 20
-7 20 -17 0 -13 -3 -14 -12 -5 -20 20 -31 14 -24 -14 5 -20 3 -27 -14 -31 -24
-6 -26 -21 -5 -29 17 -7 125 35 125 49 0 5 -9 7 -20 4 -17 -4 -20 0 -20 25 0
21 6 31 20 35 23 6 27 23 5 23 -17 0 -20 16 -5 25 22 14 9 26 -20 20 -30 -7
-30 -6 -19 19 13 27 24 33 34 16 9 -15 35 -12 35 5 0 8 -9 19 -20 25 -11 6
-20 17 -20 25 0 27 -28 15 -35 -14z"/>
<path d="M615 7121 c-3 -16 -24 -55 -46 -86 -22 -32 -37 -60 -34 -63 17 -17
115 121 115 163 0 27 -28 16 -35 -14z"/>
<path d="M298 7133 c-41 -6 -34 -23 10 -23 46 0 82 9 82 21 0 9 -40 10 -92 2z"/>
<path d="M321 7090 c-19 -4 -41 -6 -49 -3 -11 5 -13 1 -8 -15 3 -12 8 -30 11
-41 5 -16 13 -18 53 -13 26 2 48 5 49 6 1 1 4 17 5 36 3 39 -6 43 -61 30z m29
-30 c0 -6 -7 -13 -15 -16 -20 -8 -48 3 -40 16 8 13 55 13 55 0z"/>
<path d="M358 7003 c-24 -4 -27 -8 -22 -32 4 -16 1 -32 -5 -35 -10 -7 -16 12
-12 42 1 8 -12 12 -39 12 l-40 0 -2 -45 c-1 -25 -2 -55 -2 -67 -1 -12 4 -23
11 -25 8 -3 13 14 15 51 2 31 8 56 13 56 6 -1 9 -12 8 -26 -2 -22 2 -24 42
-24 41 0 73 19 47 28 -8 2 -8 8 1 23 20 31 28 22 25 -28 -2 -39 -6 -47 -20
-45 -21 3 -22 -6 -4 -30 18 -25 45 -22 50 5 11 52 12 127 2 137 -10 10 -18 10
-68 3z"/>
<path d="M200 6944 c0 -9 5 -14 12 -12 18 6 21 28 4 28 -9 0 -16 -7 -16 -16z"/>
<path d="M165 6671 c-3 -16 -24 -55 -46 -86 -42 -60 -45 -83 -6 -47 25 24 47
29 47 11 0 -6 -9 -13 -20 -16 -11 -3 -20 -9 -20 -14 0 -5 9 -9 20 -9 12 0 20
-7 20 -17 0 -13 -3 -14 -12 -5 -20 20 -31 14 -24 -14 5 -20 3 -27 -14 -31 -24
-6 -26 -21 -5 -29 17 -7 125 35 125 49 0 5 -9 7 -20 4 -17 -4 -20 0 -20 25 0
21 6 31 20 35 23 6 27 23 5 23 -17 0 -20 16 -5 25 22 14 9 26 -20 20 -30 -7
-30 -6 -19 19 13 27 24 33 34 16 9 -15 35 -12 35 5 0 8 -9 19 -20 25 -11 6
-20 17 -20 25 0 27 -28 15 -35 -14z"/>
<path d="M615 6671 c-3 -16 -24 -55 -46 -86 -22 -32 -37 -60 -34 -63 9 -9 72
57 86 89 12 30 23 36 34 19 9 -15 35 -12 35 5 0 8 -9 19 -20 25 -11 6 -20 17
-20 25 0 27 -28 15 -35 -14z"/>
<path d="M298 6683 c-41 -6 -34 -23 10 -23 46 0 82 9 82 21 0 9 -40 10 -92 2z"/>
<path d="M321 6640 c-19 -4 -41 -6 -49 -3 -11 5 -13 1 -8 -15 3 -12 8 -30 11
-41 5 -16 13 -18 53 -13 26 2 48 5 49 6 1 1 4 17 5 36 3 39 -6 43 -61 30z m29
-30 c0 -6 -7 -13 -15 -16 -20 -8 -48 3 -40 16 8 13 55 13 55 0z"/>
<path d="M358 6553 c-24 -4 -27 -8 -22 -32 4 -16 1 -32 -5 -35 -10 -7 -16 12
-12 42 1 8 -12 12 -39 12 l-40 0 -2 -45 c-1 -25 -2 -55 -2 -67 -1 -12 4 -23
11 -25 8 -3 13 14 15 51 2 31 8 56 13 56 6 -1 9 -12 8 -25 -1 -16 5 -25 19
-28 15 -4 18 -11 13 -26 -5 -15 -2 -21 9 -21 10 0 16 9 16 24 0 15 7 26 20 29
20 5 28 27 10 27 -6 0 -5 8 2 20 21 32 29 23 26 -27 -2 -39 -6 -47 -20 -45
-21 3 -22 -6 -4 -30 18 -25 45 -22 50 5 11 52 12 127 2 137 -10 10 -18 10 -68
3z"/>
<path d="M200 6494 c0 -9 5 -14 12 -12 18 6 21 28 4 28 -9 0 -16 -7 -16 -16z"/>
<path d="M615 6221 c-3 -16 -24 -55 -46 -86 -41 -59 -45 -83 -8 -49 11 10 39
24 62 29 49 13 67 41 18 30 -31 -7 -31 -6 -20 19 13 27 24 33 34 16 9 -15 35
-12 35 5 0 8 -9 19 -20 25 -11 6 -20 17 -20 25 0 27 -28 15 -35 -14z"/>
<path d="M615 5771 c-3 -16 -24 -55 -46 -86 -41 -59 -45 -83 -8 -49 11 10 39
24 62 29 49 13 67 41 18 30 -31 -7 -31 -6 -20 19 13 27 24 33 34 16 9 -15 35
-12 35 5 0 8 -9 19 -20 25 -11 6 -20 17 -20 25 0 27 -28 15 -35 -14z"/>
<path d="M608 5638 c-35 -9 -53 -28 -27 -28 25 0 99 23 99 31 0 11 -23 10 -72
-3z"/>
<path d="M615 5321 c-3 -16 -24 -55 -46 -86 -42 -60 -45 -83 -6 -47 25 24 47
29 47 11 0 -6 -9 -13 -20 -16 -11 -3 -20 -9 -20 -14 0 -5 9 -9 20 -9 16 0 20
-7 20 -30 0 -20 5 -30 15 -30 11 0 15 11 15 36 0 27 5 37 20 41 23 6 27 23 5
23 -17 0 -20 16 -5 25 22 14 9 26 -20 20 -30 -7 -30 -6 -19 19 13 27 24 33 34
16 9 -15 35 -12 35 5 0 8 -9 19 -20 25 -11 6 -20 17 -20 25 0 27 -28 15 -35
-14z"/>
<path d="M615 4871 c-3 -16 -24 -55 -46 -86 -42 -60 -45 -83 -6 -47 25 24 47
29 47 11 0 -6 -9 -13 -20 -16 -11 -3 -20 -9 -20 -14 0 -5 9 -9 20 -9 12 0 20
-7 20 -16 0 -14 -3 -14 -15 -4 -19 16 -29 8 -21 -18 4 -13 16 -19 36 -20 28
-1 30 2 30 35 0 26 5 36 20 40 23 6 27 23 5 23 -17 0 -20 16 -5 25 22 14 9 26
-20 20 -30 -7 -30 -6 -19 19 13 27 24 33 34 16 9 -15 35 -12 35 5 0 8 -9 19
-20 25 -11 6 -20 17 -20 25 0 27 -28 15 -35 -14z"/>
<path d="M615 4421 c-3 -16 -24 -55 -46 -86 -42 -60 -45 -83 -6 -47 25 24 47
29 47 11 0 -6 -9 -13 -20 -16 -11 -3 -20 -9 -20 -14 0 -5 9 -9 20 -9 12 0 20
-7 20 -16 0 -14 -3 -14 -15 -4 -19 16 -29 8 -21 -18 4 -13 16 -19 36 -20 28
-1 30 2 30 35 0 26 5 36 20 40 23 6 27 23 5 23 -17 0 -20 16 -5 25 22 14 9 26
-20 20 -30 -7 -30 -6 -19 19 13 27 24 33 34 16 9 -15 35 -12 35 5 0 8 -9 19
-20 25 -11 6 -20 17 -20 25 0 27 -28 15 -35 -14z"/>
<path d="M650 4244 c0 -9 5 -14 12 -12 18 6 21 28 4 28 -9 0 -16 -7 -16 -16z"/>
<path d="M615 3971 c-3 -16 -24 -55 -46 -86 -42 -60 -45 -83 -6 -47 25 24 47
29 47 11 0 -6 -9 -13 -20 -16 -11 -3 -20 -9 -20 -14 0 -5 9 -9 20 -9 12 0 20
-7 20 -17 0 -13 -3 -14 -12 -5 -20 20 -31 14 -24 -14 5 -20 3 -27 -14 -31 -24
-6 -26 -21 -5 -29 17 -7 125 35 125 49 0 5 -9 7 -20 4 -17 -4 -20 0 -20 25 0
21 6 31 20 35 23 6 27 23 5 23 -17 0 -20 16 -5 25 22 14 9 26 -20 20 -30 -7
-30 -6 -19 19 13 27 24 33 34 16 9 -15 35 -12 35 5 0 8 -9 19 -20 25 -11 6
-20 17 -20 25 0 27 -28 15 -35 -14z"/>
<path d="M650 3794 c0 -9 5 -14 12 -12 18 6 21 28 4 28 -9 0 -16 -7 -16 -16z"/>
<path d="M615 3521 c-3 -16 -24 -55 -46 -86 -42 -60 -45 -83 -6 -47 25 24 47
29 47 11 0 -6 -9 -13 -20 -16 -11 -3 -20 -9 -20 -14 0 -5 9 -9 20 -9 12 0 20
-7 20 -17 0 -13 -3 -14 -12 -5 -20 20 -31 14 -24 -14 5 -20 3 -27 -14 -31 -24
-6 -26 -21 -5 -29 17 -7 125 35 125 49 0 5 -9 7 -20 4 -17 -4 -20 0 -20 25 0
21 6 31 20 35 23 6 27 23 5 23 -17 0 -20 16 -5 25 22 14 9 26 -20 20 -30 -7
-30 -6 -19 19 13 27 24 33 34 16 9 -15 35 -12 35 5 0 8 -9 19 -20 25 -11 6
-20 17 -20 25 0 27 -28 15 -35 -14z"/>
<path d="M748 3533 c-41 -6 -34 -23 10 -23 46 0 82 9 82 21 0 9 -40 10 -92 2z"/>
<path d="M650 3344 c0 -9 5 -14 12 -12 18 6 21 28 4 28 -9 0 -16 -7 -16 -16z"/>
<path d="M615 3071 c-3 -16 -24 -55 -46 -86 -42 -60 -45 -83 -6 -47 25 24 47
29 47 11 0 -6 -9 -13 -20 -16 -11 -3 -20 -9 -20 -14 0 -5 9 -9 20 -9 12 0 20
-7 20 -17 0 -13 -3 -14 -12 -5 -20 20 -31 14 -24 -14 5 -20 3 -27 -14 -31 -24
-6 -26 -21 -5 -29 17 -7 125 35 125 49 0 5 -9 7 -20 4 -17 -4 -20 0 -20 25 0
21 6 31 20 35 23 6 27 23 5 23 -17 0 -20 16 -5 25 22 14 9 26 -20 20 -30 -7
-30 -6 -19 19 13 27 24 33 34 16 9 -15 35 -12 35 5 0 8 -9 19 -20 25 -11 6
-20 17 -20 25 0 27 -28 15 -35 -14z"/>
<path d="M748 3083 c-41 -6 -34 -23 10 -23 46 0 82 9 82 21 0 9 -40 10 -92 2z"/>
<path d="M714 3023 c15 -55 18 -63 27 -63 12 0 12 22 -1 54 -11 29 -34 36 -26
9z"/>
<path d="M650 2894 c0 -17 22 -14 28 4 2 7 -3 12 -12 12 -9 0 -16 -7 -16 -16z"/>
<path d="M615 2621 c-3 -16 -24 -55 -46 -86 -42 -60 -45 -83 -6 -47 25 24 47
29 47 11 0 -6 -9 -13 -20 -16 -11 -3 -20 -9 -20 -14 0 -5 9 -9 20 -9 12 0 20
-7 20 -17 0 -13 -3 -14 -12 -5 -20 20 -31 14 -24 -14 5 -20 3 -27 -14 -31 -24
-6 -26 -21 -5 -29 17 -7 125 35 125 49 0 5 -9 7 -20 4 -17 -4 -20 0 -20 25 0
21 6 31 20 35 23 6 27 23 5 23 -17 0 -20 16 -5 25 22 14 9 26 -20 20 -30 -7
-30 -6 -19 19 13 27 24 33 34 16 9 -15 35 -12 35 5 0 8 -9 19 -20 25 -11 6
-20 17 -20 25 0 27 -28 15 -35 -14z"/>
<path d="M748 2633 c-41 -6 -34 -23 10 -23 46 0 82 9 82 21 0 9 -40 10 -92 2z"/>
<path d="M771 2590 c-19 -5 -41 -6 -49 -3 -11 5 -13 1 -8 -15 3 -12 9 -31 12
-42 8 -30 26 -24 22 8 -3 23 1 27 25 30 22 3 27 -1 27 -17 0 -12 4 -21 10 -21
14 0 32 39 26 56 -6 15 -14 16 -65 4z"/>
<path d="M650 2444 c0 -17 22 -14 28 4 2 7 -3 12 -12 12 -9 0 -16 -7 -16 -16z"/>
<path d="M615 2171 c-3 -16 -24 -55 -46 -86 -42 -60 -45 -83 -6 -47 25 24 47
29 47 11 0 -6 -9 -13 -20 -16 -11 -3 -20 -9 -20 -14 0 -5 9 -9 20 -9 12 0 20
-7 20 -17 0 -13 -3 -14 -12 -5 -20 20 -31 14 -24 -14 5 -20 3 -27 -14 -31 -24
-6 -26 -21 -5 -29 17 -7 125 35 125 49 0 5 -9 7 -20 4 -17 -4 -20 0 -20 25 0
21 6 31 20 35 23 6 27 23 5 23 -17 0 -20 16 -5 25 22 14 9 26 -20 20 -30 -7
-30 -6 -19 19 13 27 24 33 34 16 9 -15 35 -12 35 5 0 8 -9 19 -20 25 -11 6
-20 17 -20 25 0 27 -28 15 -35 -14z"/>
<path d="M748 2183 c-41 -6 -34 -23 10 -23 46 0 82 9 82 21 0 9 -40 10 -92 2z"/>
<path d="M771 2140 c-19 -4 -41 -6 -49 -3 -11 5 -13 1 -8 -15 3 -12 8 -30 11
-41 5 -16 13 -18 53 -13 26 2 48 5 49 6 1 1 4 17 5 36 3 39 -6 43 -61 30z m29
-30 c0 -6 -7 -13 -15 -16 -20 -8 -48 3 -40 16 8 13 55 13 55 0z"/>
<path d="M650 1994 c0 -17 22 -14 28 4 2 7 -3 12 -12 12 -9 0 -16 -7 -16 -16z"/>
<path d="M615 1721 c-3 -16 -24 -55 -46 -86 -42 -60 -45 -83 -6 -47 25 24 47
29 47 11 0 -6 -9 -13 -20 -16 -11 -3 -20 -9 -20 -14 0 -5 9 -9 20 -9 12 0 20
-7 20 -17 0 -13 -3 -14 -12 -5 -20 20 -31 14 -24 -14 5 -20 3 -27 -14 -31 -24
-6 -26 -21 -5 -29 17 -7 125 35 125 49 0 5 -9 7 -20 4 -17 -4 -20 0 -20 25 0
21 6 31 20 35 23 6 27 23 5 23 -17 0 -20 16 -5 25 22 14 9 26 -20 20 -30 -7
-30 -6 -19 19 13 27 24 33 34 16 9 -15 35 -12 35 5 0 8 -9 19 -20 25 -11 6
-20 17 -20 25 0 27 -28 15 -35 -14z"/>
<path d="M748 1733 c-41 -6 -34 -23 10 -23 46 0 82 9 82 21 0 9 -40 10 -92 2z"/>
<path d="M771 1690 c-19 -4 -41 -6 -49 -3 -11 5 -13 1 -8 -15 3 -12 8 -30 11
-41 5 -16 13 -18 53 -13 26 2 48 5 49 6 1 1 4 17 5 36 3 39 -6 43 -61 30z m29
-30 c0 -6 -7 -13 -15 -16 -20 -8 -48 3 -40 16 8 13 55 13 55 0z"/>
<path d="M687 1528 c-3 -35 -2 -67 3 -72 15 -15 18 -6 22 63 4 87 -17 95 -25
9z"/>
<path d="M650 1544 c0 -17 22 -14 28 4 2 7 -3 12 -12 12 -9 0 -16 -7 -16 -16z"/>
<path d="M615 1271 c-3 -16 -24 -55 -46 -86 -42 -60 -45 -83 -6 -47 25 24 47
29 47 11 0 -6 -9 -13 -20 -16 -11 -3 -20 -9 -20 -14 0 -5 9 -9 20 -9 12 0 20
-7 20 -17 0 -13 -3 -14 -12 -5 -20 20 -31 14 -24 -14 5 -20 3 -27 -14 -31 -24
-6 -26 -21 -5 -29 17 -7 125 35 125 49 0 5 -9 7 -20 4 -17 -4 -20 0 -20 25 0
21 6 31 20 35 23 6 27 23 5 23 -17 0 -20 16 -5 25 22 14 9 26 -20 20 -30 -7
-30 -6 -19 19 13 27 24 33 34 16 9 -15 35 -12 35 5 0 8 -9 19 -20 25 -11 6
-20 17 -20 25 0 27 -28 15 -35 -14z"/>
<path d="M748 1283 c-41 -6 -34 -23 10 -23 46 0 82 9 82 21 0 9 -40 10 -92 2z"/>
<path d="M771 1240 c-19 -4 -41 -6 -49 -3 -11 5 -13 1 -8 -15 3 -12 8 -30 11
-41 5 -16 13 -18 53 -13 26 2 48 5 49 6 1 1 4 17 5 36 3 39 -6 43 -61 30z m29
-30 c0 -6 -7 -13 -15 -16 -20 -8 -48 3 -40 16 8 13 55 13 55 0z"/>
<path d="M808 1153 c-40 -6 -34 -23 8 -23 l35 0 -3 -47 c-2 -39 -6 -47 -20
-45 -21 3 -22 -6 -4 -30 18 -25 45 -22 50 5 11 52 12 127 2 137 -10 10 -18 10
-68 3z"/>
<path d="M688 1095 c-1 -25 -2 -55 -2 -67 -1 -12 4 -23 11 -25 8 -3 13 14 15
54 3 55 4 58 31 61 42 5 32 22 -13 22 l-40 0 -2 -45z"/>
<path d="M650 1094 c0 -17 22 -14 28 4 2 7 -3 12 -12 12 -9 0 -16 -7 -16 -16z"/>
<path d="M615 821 c-3 -16 -24 -55 -46 -86 -42 -60 -45 -83 -6 -47 25 24 47
29 47 11 0 -6 -9 -13 -20 -16 -11 -3 -20 -9 -20 -14 0 -5 9 -9 20 -9 12 0 20
-7 20 -17 0 -13 -3 -14 -12 -5 -20 20 -31 14 -24 -14 5 -20 3 -27 -14 -31 -24
-6 -26 -21 -5 -29 17 -7 125 35 125 49 0 5 -9 7 -20 4 -17 -4 -20 0 -20 25 0
21 6 31 20 35 23 6 27 23 5 23 -17 0 -20 16 -5 25 22 14 9 26 -20 20 -30 -7
-30 -6 -19 19 13 27 24 33 34 16 9 -15 35 -12 35 5 0 8 -9 19 -20 25 -11 6
-20 17 -20 25 0 27 -28 15 -35 -14z"/>
<path d="M748 833 c-41 -6 -34 -23 10 -23 46 0 82 9 82 21 0 9 -40 10 -92 2z"/>
<path d="M771 790 c-19 -4 -41 -6 -49 -3 -11 5 -13 1 -8 -15 3 -12 8 -30 11
-41 5 -16 13 -18 53 -13 26 2 48 5 49 6 1 1 4 17 5 36 3 39 -6 43 -61 30z m29
-30 c0 -6 -7 -13 -15 -16 -20 -8 -48 3 -40 16 8 13 55 13 55 0z"/>
<path d="M808 703 c-40 -6 -34 -23 8 -23 l35 0 -3 -47 c-2 -39 -6 -47 -20 -45
-21 3 -22 -6 -4 -30 18 -25 45 -22 50 5 11 52 12 127 2 137 -10 10 -18 10 -68
3z"/>
<path d="M688 645 c-1 -25 -2 -55 -2 -67 -1 -12 5 -23 12 -25 8 -3 12 11 12
51 0 61 15 81 30 42 14 -37 30 -32 28 9 -1 34 -3 35 -40 35 l-38 0 -2 -45z"/>
<path d="M650 644 c0 -17 22 -14 28 4 2 7 -3 12 -12 12 -9 0 -16 -7 -16 -16z"/>
<path d="M615 371 c-3 -16 -24 -55 -46 -86 -42 -60 -45 -83 -6 -47 25 24 47
29 47 11 0 -6 -9 -13 -20 -16 -11 -3 -20 -9 -20 -14 0 -5 9 -9 20 -9 12 0 20
-7 20 -17 0 -13 -3 -14 -12 -5 -20 20 -31 14 -24 -14 5 -20 3 -27 -14 -31 -24
-6 -26 -21 -5 -29 17 -7 125 35 125 49 0 5 -9 7 -20 4 -17 -4 -20 0 -20 25 0
21 6 31 20 35 23 6 27 23 5 23 -17 0 -20 16 -5 25 22 14 9 26 -20 20 -30 -7
-30 -6 -19 19 13 27 24 33 34 16 9 -15 35 -12 35 5 0 8 -9 19 -20 25 -11 6
-20 17 -20 25 0 27 -28 15 -35 -14z"/>
<path d="M748 383 c-41 -6 -34 -23 10 -23 46 0 82 9 82 21 0 9 -40 10 -92 2z"/>
<path d="M771 340 c-19 -4 -41 -6 -49 -3 -11 5 -13 1 -8 -15 3 -12 8 -30 11
-41 5 -16 13 -18 53 -13 26 2 48 5 49 6 1 1 4 17 5 36 3 39 -6 43 -61 30z m29
-30 c0 -6 -7 -13 -15 -16 -20 -8 -48 3 -40 16 8 13 55 13 55 0z"/>
<path d="M807 253 c-24 -4 -26 -8 -21 -31 9 -38 13 -40 34 -14 26 32 31 28 28
-25 -2 -39 -6 -47 -20 -45 -21 3 -22 -6 -4 -30 18 -25 45 -22 50 4 11 53 12
128 2 138 -10 10 -18 10 -69 3z"/>
<path d="M688 195 c-1 -25 -2 -55 -2 -67 -1 -12 5 -23 12 -26 8 -2 12 12 12
52 0 61 15 81 30 42 14 -37 30 -32 28 9 -1 34 -3 35 -40 35 l-38 0 -2 -45z"/>
<path d="M650 194 c0 -17 22 -14 28 4 2 7 -3 12 -12 12 -9 0 -16 -7 -16 -16z"/>
</g>
</svg>
