<?xml version="1.0" standalone="no"?>
<!DOCTYPE svg PUBLIC "-//W3C//DTD SVG 20010904//EN"
 "http://www.w3.org/TR/2001/REC-SVG-20010904/DTD/svg10.dtd">
<svg version="1.0" xmlns="http://www.w3.org/2000/svg"
 width="95.000000pt" height="725.000000pt" viewBox="0 0 95.000000 725.000000"
 preserveAspectRatio="xMidYMid meet">
<metadata>
Created by potrace 1.16, written by Peter Selinger 2001-2019
</metadata>
<g transform="translate(0.000000,725.000000) scale(0.100000,-0.100000)"
fill="#000000" stroke="none">
<path d="M296 7135 c-9 -14 -24 -25 -32 -25 -11 0 -14 -5 -10 -16 3 -9 6 -38
6 -65 0 -44 2 -49 21 -46 12 1 24 -3 26 -9 5 -16 -59 -28 -68 -13 -11 18 -37
3 -42 -23 -3 -18 -5 -16 -6 8 -1 24 4 33 19 37 23 6 27 27 5 27 -8 0 -15 5
-15 10 0 6 7 10 15 10 8 0 15 5 15 11 0 7 -12 9 -36 5 l-35 -7 16 31 c15 30
18 31 34 16 23 -21 31 -20 31 3 0 11 -9 23 -20 26 -11 3 -20 13 -20 21 0 26
-27 14 -33 -14 -3 -15 -22 -52 -42 -81 -39 -59 -39 -78 0 -41 20 19 28 21 37
12 10 -10 8 -14 -10 -18 -27 -8 -29 -24 -2 -24 15 0 20 -7 20 -29 0 -26 -4
-30 -40 -36 -39 -7 -50 -18 -30 -30 14 -9 131 38 126 50 -2 6 16 10 41 10 l44
1 -3 -50 c-2 -33 1 -51 10 -53 9 -3 12 11 12 51 l0 56 51 0 c36 0 49 4 46 13
-2 7 -21 12 -45 12 -27 0 -42 5 -42 12 0 7 10 12 23 10 20 -2 23 3 28 58 7 71
5 75 -27 75 -25 0 -33 -15 -11 -23 18 -7 6 -14 -35 -20 -21 -3 -38 -2 -38 4 0
5 9 9 21 9 14 0 19 5 16 14 -3 8 1 17 9 20 18 7 18 36 0 36 -7 0 -21 -11 -30
-25z m44 -85 c-14 -4 -34 -8 -45 -9 -16 -1 -17 1 -5 9 8 5 29 9 45 9 29 -1 29
-1 5 -9z m10 -30 c-8 -5 -28 -9 -45 -9 -29 1 -29 1 -5 9 14 4 34 8 45 9 16 1
17 -1 5 -9z"/>
<path d="M617 7122 c-3 -15 -22 -52 -42 -81 -19 -30 -33 -56 -30 -59 16 -17
105 112 105 153 0 27 -27 16 -33 -13z"/>
<path d="M120 6945 c0 -16 27 -32 37 -21 7 7 -16 36 -28 36 -5 0 -9 -7 -9 -15z"/>
<path d="M250 6911 c0 -6 -10 -19 -22 -31 -30 -27 -14 -38 20 -13 29 21 35 44
15 51 -7 2 -13 -1 -13 -7z"/>
<path d="M296 6685 c-9 -14 -24 -25 -32 -25 -11 0 -14 -5 -10 -16 3 -9 6 -38
6 -65 0 -44 2 -49 21 -46 12 1 24 -3 26 -9 5 -16 -59 -28 -68 -13 -11 18 -37
3 -42 -23 -3 -18 -5 -16 -6 8 -1 24 4 33 19 37 23 6 27 27 5 27 -8 0 -15 5
-15 10 0 6 7 10 15 10 8 0 15 5 15 11 0 7 -12 9 -36 5 l-35 -7 16 31 c15 30
18 31 34 16 23 -21 31 -20 31 3 0 11 -9 23 -20 26 -11 3 -20 13 -20 21 0 26
-27 14 -33 -14 -3 -15 -22 -52 -42 -81 -39 -59 -39 -78 0 -41 20 19 28 21 37
12 10 -10 8 -14 -10 -18 -27 -8 -29 -24 -2 -24 15 0 20 -7 20 -29 0 -26 -4
-30 -40 -36 -39 -7 -50 -18 -30 -30 14 -9 131 38 126 50 -2 6 16 10 41 10 l44
1 -3 -50 c-2 -33 1 -51 10 -53 9 -3 12 11 12 51 l0 56 51 0 c36 0 49 4 46 13
-2 7 -21 12 -45 12 -27 0 -42 5 -42 12 0 7 10 12 23 10 20 -2 23 3 28 58 7 71
5 75 -27 75 -25 0 -33 -15 -11 -23 18 -7 6 -14 -35 -20 -21 -3 -38 -2 -38 4 0
5 9 9 21 9 14 0 19 5 16 14 -3 8 1 17 9 20 18 7 18 36 0 36 -7 0 -21 -11 -30
-25z m44 -85 c-14 -4 -34 -8 -45 -9 -16 -1 -17 1 -5 9 8 5 29 9 45 9 29 -1 29
-1 5 -9z m10 -30 c-8 -5 -28 -9 -45 -9 -29 1 -29 1 -5 9 14 4 34 8 45 9 16 1
17 -1 5 -9z"/>
<path d="M617 6672 c-3 -15 -22 -52 -42 -81 -19 -30 -33 -56 -30 -59 9 -9 56
41 77 81 18 36 21 38 37 23 23 -21 31 -20 31 3 0 11 -9 23 -20 26 -11 3 -20
13 -20 21 0 26 -27 14 -33 -14z"/>
<path d="M120 6495 c0 -16 27 -32 37 -21 7 7 -16 36 -28 36 -5 0 -9 -7 -9 -15z"/>
<path d="M250 6461 c0 -6 -10 -19 -22 -31 -30 -27 -14 -38 20 -13 29 21 35 44
15 51 -7 2 -13 -1 -13 -7z"/>
<path d="M360 6464 c0 -15 43 -64 56 -64 20 0 17 27 -6 50 -19 19 -50 27 -50
14z"/>
<path d="M617 6222 c-3 -15 -22 -52 -42 -81 -38 -58 -39 -78 -2 -43 13 12 32
22 43 22 31 0 64 12 64 22 0 6 -14 8 -36 4 l-35 -7 16 31 c15 30 18 31 34 16
23 -21 31 -20 31 3 0 11 -9 23 -20 26 -11 3 -20 13 -20 21 0 26 -27 14 -33
-14z"/>
<path d="M617 5772 c-3 -15 -22 -52 -42 -81 -38 -58 -39 -78 -2 -43 13 12 32
22 43 22 31 0 64 12 64 22 0 6 -14 8 -36 4 l-35 -7 16 31 c15 30 18 31 34 16
23 -21 31 -20 31 3 0 11 -9 23 -20 26 -11 3 -20 13 -20 21 0 26 -27 14 -33
-14z"/>
<path d="M618 5648 c-21 -6 -38 -14 -38 -19 0 -6 16 -7 38 -4 52 9 62 13 62
25 0 12 -12 11 -62 -2z"/>
<path d="M617 5322 c-3 -15 -22 -52 -42 -81 -39 -59 -39 -78 0 -41 20 19 28
21 37 12 10 -10 8 -14 -10 -18 -27 -8 -29 -24 -2 -24 16 0 20 -7 20 -35 0 -19
5 -35 10 -35 6 0 10 17 10 39 0 30 4 40 20 44 23 6 27 27 5 27 -8 0 -15 5 -15
10 0 6 7 10 15 10 8 0 15 5 15 11 0 7 -12 9 -36 5 l-35 -7 16 31 c15 30 18 31
34 16 23 -21 31 -20 31 3 0 11 -9 23 -20 26 -11 3 -20 13 -20 21 0 26 -27 14
-33 -14z"/>
<path d="M617 4872 c-3 -15 -22 -52 -42 -81 -39 -59 -39 -78 0 -41 20 19 28
21 37 12 10 -10 8 -14 -10 -18 -27 -8 -29 -24 -2 -24 16 0 20 -7 20 -35 0 -19
5 -35 10 -35 6 0 10 17 10 39 0 30 4 40 20 44 23 6 27 27 5 27 -8 0 -15 5 -15
10 0 6 7 10 15 10 8 0 15 5 15 11 0 7 -12 9 -36 5 l-35 -7 16 31 c15 30 18 31
34 16 23 -21 31 -20 31 3 0 11 -9 23 -20 26 -11 3 -20 13 -20 21 0 26 -27 14
-33 -14z"/>
<path d="M570 4695 c0 -16 27 -32 37 -21 7 7 -16 36 -28 36 -5 0 -9 -7 -9 -15z"/>
<path d="M617 4422 c-3 -15 -22 -52 -42 -81 -39 -59 -39 -78 0 -41 20 19 28
21 37 12 10 -10 8 -14 -10 -18 -27 -8 -29 -24 -2 -24 16 0 20 -7 20 -35 0 -19
5 -35 10 -35 6 0 10 17 10 39 0 30 4 40 20 44 23 6 27 27 5 27 -8 0 -15 5 -15
10 0 6 7 10 15 10 8 0 15 5 15 11 0 7 -12 9 -36 5 l-35 -7 16 31 c15 30 18 31
34 16 23 -21 31 -20 31 3 0 11 -9 23 -20 26 -11 3 -20 13 -20 21 0 26 -27 14
-33 -14z"/>
<path d="M653 4255 c-3 -9 -3 -19 1 -22 7 -7 36 16 36 28 0 15 -30 10 -37 -6z"/>
<path d="M570 4245 c0 -16 27 -32 37 -21 7 7 -16 36 -28 36 -5 0 -9 -7 -9 -15z"/>
<path d="M617 3972 c-3 -15 -22 -52 -42 -81 -39 -59 -39 -78 0 -41 20 19 28
21 37 12 10 -10 8 -14 -10 -18 -27 -8 -29 -24 -2 -24 15 0 20 -7 20 -29 0 -26
-4 -30 -40 -36 -39 -7 -50 -18 -30 -30 16 -10 131 38 125 52 -2 7 0 15 5 18
16 10 11 27 -7 23 -9 -2 -20 -14 -24 -28 -7 -23 -7 -23 -8 6 -1 24 4 33 19 37
23 6 27 27 5 27 -8 0 -15 5 -15 10 0 6 7 10 15 10 8 0 15 5 15 11 0 7 -12 9
-36 5 l-35 -7 16 31 c15 30 18 31 34 16 23 -21 31 -20 31 3 0 11 -9 23 -20 26
-11 3 -20 13 -20 21 0 26 -27 14 -33 -14z"/>
<path d="M570 3795 c0 -16 27 -32 37 -21 7 7 -16 36 -28 36 -5 0 -9 -7 -9 -15z"/>
<path d="M745 3534 c-9 -14 -14 -28 -12 -31 9 -8 57 28 57 43 0 23 -27 16 -45
-12z"/>
<path d="M617 3522 c-3 -15 -22 -52 -42 -81 -39 -59 -39 -78 0 -41 20 19 28
21 37 12 10 -10 8 -14 -10 -18 -27 -8 -29 -24 -2 -24 15 0 20 -7 20 -29 0 -26
-4 -30 -40 -36 -39 -7 -50 -18 -30 -30 16 -10 131 38 125 52 -2 7 0 15 5 18
16 10 11 27 -7 23 -9 -2 -20 -14 -24 -28 -7 -23 -7 -23 -8 6 -1 24 4 33 19 37
23 6 27 27 5 27 -8 0 -15 5 -15 10 0 6 7 10 15 10 8 0 15 5 15 11 0 7 -12 9
-36 5 l-35 -7 16 31 c15 30 18 31 34 16 23 -21 31 -20 31 3 0 11 -9 23 -20 26
-11 3 -20 13 -20 21 0 26 -27 14 -33 -14z"/>
<path d="M570 3345 c0 -16 27 -32 37 -21 7 7 -16 36 -28 36 -5 0 -9 -7 -9 -15z"/>
<path d="M746 3085 c-9 -14 -24 -25 -32 -25 -11 0 -14 -5 -10 -16 3 -9 6 -38
6 -65 0 -27 5 -49 10 -49 6 0 10 26 10 58 0 54 2 59 30 75 31 19 41 47 16 47
-7 0 -21 -11 -30 -25z"/>
<path d="M617 3072 c-3 -15 -22 -52 -42 -81 -39 -59 -39 -78 0 -41 20 19 28
21 37 12 10 -10 8 -14 -10 -18 -27 -8 -29 -24 -2 -24 15 0 20 -7 20 -29 0 -26
-4 -30 -40 -36 -39 -7 -50 -18 -30 -30 16 -10 131 38 125 52 -2 7 0 15 5 18
16 10 11 27 -7 23 -9 -2 -20 -14 -24 -28 -7 -23 -7 -23 -8 6 -1 24 4 33 19 37
23 6 27 27 5 27 -8 0 -15 5 -15 10 0 6 7 10 15 10 8 0 15 5 15 11 0 7 -12 9
-36 5 l-35 -7 16 31 c15 30 18 31 34 16 23 -21 31 -20 31 3 0 11 -9 23 -20 26
-11 3 -20 13 -20 21 0 26 -27 14 -33 -14z"/>
<path d="M570 2895 c0 -16 27 -32 37 -21 7 7 -16 36 -28 36 -5 0 -9 -7 -9 -15z"/>
<path d="M746 2635 c-9 -14 -24 -25 -32 -25 -11 0 -14 -5 -10 -16 3 -9 6 -38
6 -65 0 -27 5 -49 10 -49 6 0 10 25 10 55 0 49 2 55 21 55 14 0 19 5 16 14 -3
8 1 17 9 20 18 7 18 36 0 36 -7 0 -21 -11 -30 -25z"/>
<path d="M617 2622 c-3 -15 -22 -52 -42 -81 -39 -59 -39 -78 0 -41 20 19 28
21 37 12 10 -10 8 -14 -10 -18 -27 -8 -29 -24 -2 -24 15 0 20 -7 20 -29 0 -26
-4 -30 -40 -36 -39 -7 -50 -18 -30 -30 16 -10 131 38 125 52 -2 7 0 15 5 18
16 10 11 27 -7 23 -9 -2 -20 -14 -24 -28 -7 -23 -7 -23 -8 6 -1 24 4 33 19 37
23 6 27 27 5 27 -8 0 -15 5 -15 10 0 6 7 10 15 10 8 0 15 5 15 11 0 7 -12 9
-36 5 l-35 -7 16 31 c15 30 18 31 34 16 23 -21 31 -20 31 3 0 11 -9 23 -20 26
-11 3 -20 13 -20 21 0 26 -27 14 -33 -14z"/>
<path d="M790 2610 c0 -5 5 -10 10 -10 6 0 10 -27 10 -61 0 -44 3 -60 13 -57
11 4 28 114 20 131 -6 11 -53 9 -53 -3z"/>
<path d="M570 2445 c0 -16 27 -32 37 -21 7 7 -16 36 -28 36 -5 0 -9 -7 -9 -15z"/>
<path d="M746 2185 c-9 -14 -24 -25 -32 -25 -11 0 -14 -5 -10 -16 3 -9 6 -38
6 -65 0 -27 5 -49 10 -49 6 0 10 15 10 34 0 36 12 46 56 46 21 0 24 -4 24 -41
0 -64 24 -43 31 27 7 70 5 74 -27 74 -25 0 -33 -15 -11 -23 18 -7 6 -14 -35
-20 -21 -3 -38 -2 -38 4 0 5 9 9 21 9 14 0 19 5 16 14 -3 8 1 17 9 20 18 7 18
36 0 36 -7 0 -21 -11 -30 -25z"/>
<path d="M617 2172 c-3 -15 -22 -52 -42 -81 -39 -59 -39 -78 0 -41 20 19 28
21 37 12 10 -10 8 -14 -10 -18 -27 -8 -29 -24 -2 -24 15 0 20 -7 20 -29 0 -26
-4 -30 -40 -36 -39 -7 -50 -18 -30 -30 16 -10 131 38 125 52 -2 7 0 15 5 18
16 10 11 27 -7 23 -9 -2 -20 -14 -24 -28 -7 -23 -7 -23 -8 6 -1 24 4 33 19 37
23 6 27 27 5 27 -8 0 -15 5 -15 10 0 6 7 10 15 10 8 0 15 5 15 11 0 7 -12 9
-36 5 l-35 -7 16 31 c15 30 18 31 34 16 23 -21 31 -20 31 3 0 11 -9 23 -20 26
-11 3 -20 13 -20 21 0 26 -27 14 -33 -14z"/>
<path d="M570 1995 c0 -16 27 -32 37 -21 7 7 -16 36 -28 36 -5 0 -9 -7 -9 -15z"/>
<path d="M746 1735 c-9 -14 -24 -25 -32 -25 -11 0 -14 -5 -10 -16 3 -9 6 -38
6 -65 0 -27 5 -49 10 -49 6 0 10 8 10 19 0 13 10 20 31 25 47 9 49 8 49 -20 0
-51 25 -18 31 42 7 70 5 74 -27 74 -25 0 -33 -15 -11 -23 18 -7 6 -14 -35 -20
-21 -3 -38 -2 -38 4 0 5 9 9 21 9 14 0 19 5 16 14 -3 8 1 17 9 20 18 7 18 36
0 36 -7 0 -21 -11 -30 -25z m44 -85 c-14 -4 -34 -8 -45 -9 -16 -1 -17 1 -5 9
8 5 29 9 45 9 29 -1 29 -1 5 -9z"/>
<path d="M617 1722 c-3 -15 -22 -52 -42 -81 -39 -59 -39 -78 0 -41 20 19 28
21 37 12 10 -10 8 -14 -10 -18 -27 -8 -29 -24 -2 -24 15 0 20 -7 20 -29 0 -26
-4 -30 -40 -36 -39 -7 -50 -18 -30 -30 16 -10 131 38 125 52 -2 7 0 15 5 18
16 10 11 27 -7 23 -9 -2 -20 -14 -24 -28 -7 -23 -7 -23 -8 6 -1 24 4 33 19 37
23 6 27 27 5 27 -8 0 -15 5 -15 10 0 6 7 10 15 10 8 0 15 5 15 11 0 7 -12 9
-36 5 l-35 -7 16 31 c15 30 18 31 34 16 23 -21 31 -20 31 3 0 11 -9 23 -20 26
-11 3 -20 13 -20 21 0 26 -27 14 -33 -14z"/>
<path d="M570 1545 c0 -16 27 -32 37 -21 7 7 -16 36 -28 36 -5 0 -9 -7 -9 -15z"/>
<path d="M746 1285 c-9 -14 -24 -25 -32 -25 -11 0 -14 -5 -10 -16 3 -9 6 -37
6 -62 l0 -47 62 1 63 1 6 59 c7 70 5 74 -27 74 -25 0 -33 -15 -11 -23 18 -7 6
-14 -35 -20 -21 -3 -38 -2 -38 4 0 5 9 9 21 9 14 0 19 5 16 14 -3 8 1 17 9 20
18 7 18 36 0 36 -7 0 -21 -11 -30 -25z m44 -85 c-14 -4 -34 -8 -45 -9 -16 -1
-17 1 -5 9 8 5 29 9 45 9 29 -1 29 -1 5 -9z m10 -30 c-8 -5 -28 -9 -45 -9 -29
1 -29 1 -5 9 14 4 34 8 45 9 16 1 17 -1 5 -9z"/>
<path d="M617 1272 c-3 -15 -22 -52 -42 -81 -39 -59 -39 -78 0 -41 20 19 28
21 37 12 10 -10 8 -14 -10 -18 -27 -8 -29 -24 -2 -24 15 0 20 -7 20 -29 0 -26
-4 -30 -40 -36 -39 -7 -50 -18 -30 -30 16 -10 131 38 125 52 -2 7 0 15 5 18
16 10 11 27 -7 23 -9 -2 -20 -14 -24 -28 -7 -23 -7 -23 -8 6 -1 24 4 33 19 37
23 6 27 27 5 27 -8 0 -15 5 -15 10 0 6 7 10 15 10 8 0 15 5 15 11 0 7 -12 9
-36 5 l-35 -7 16 31 c15 30 18 31 34 16 23 -21 31 -20 31 3 0 11 -9 23 -20 26
-11 3 -20 13 -20 21 0 26 -27 14 -33 -14z"/>
<path d="M570 1095 c0 -16 27 -32 37 -21 7 7 -16 36 -28 36 -5 0 -9 -7 -9 -15z"/>
<path d="M746 835 c-9 -14 -24 -25 -32 -25 -11 0 -14 -5 -10 -16 3 -9 6 -37 6
-62 l0 -47 62 1 63 1 6 59 c7 70 5 74 -27 74 -25 0 -33 -15 -11 -23 18 -7 6
-14 -35 -20 -21 -3 -38 -2 -38 4 0 5 9 9 21 9 14 0 19 5 16 14 -3 8 1 17 9 20
18 7 18 36 0 36 -7 0 -21 -11 -30 -25z m44 -85 c-14 -4 -34 -8 -45 -9 -16 -1
-17 1 -5 9 8 5 29 9 45 9 29 -1 29 -1 5 -9z m10 -30 c-8 -5 -28 -9 -45 -9 -29
1 -29 1 -5 9 14 4 34 8 45 9 16 1 17 -1 5 -9z"/>
<path d="M617 822 c-3 -15 -22 -52 -42 -81 -39 -59 -39 -78 0 -41 20 19 28 21
37 12 10 -10 8 -14 -10 -18 -27 -8 -29 -24 -2 -24 15 0 20 -7 20 -29 0 -26 -4
-30 -40 -36 -39 -7 -50 -18 -30 -30 14 -9 131 38 126 50 -2 6 36 11 98 13 55
2 103 6 105 8 3 2 0 9 -7 16 -8 8 -33 8 -94 0 -59 -7 -85 -7 -89 0 -11 17 -37
2 -42 -24 -3 -18 -5 -16 -6 8 -1 24 4 33 19 37 23 6 27 27 5 27 -8 0 -15 5
-15 10 0 6 7 10 15 10 8 0 15 5 15 11 0 7 -12 9 -36 5 l-35 -7 16 31 c15 30
18 31 34 16 23 -21 31 -20 31 3 0 11 -9 23 -20 26 -11 3 -20 13 -20 21 0 26
-27 14 -33 -14z"/>
<path d="M570 645 c0 -16 27 -32 37 -21 7 7 -16 36 -28 36 -5 0 -9 -7 -9 -15z"/>
<path d="M746 385 c-9 -14 -24 -25 -32 -25 -11 0 -14 -5 -10 -16 3 -9 6 -38 6
-65 0 -44 2 -49 21 -46 12 1 24 -3 26 -9 5 -16 -59 -28 -68 -13 -11 18 -37 3
-42 -23 -3 -18 -5 -16 -6 8 -1 24 4 33 19 37 23 6 27 27 5 27 -8 0 -15 5 -15
10 0 6 7 10 15 10 8 0 15 5 15 11 0 7 -12 9 -36 5 l-35 -7 16 31 c15 30 18 31
34 16 23 -21 31 -20 31 3 0 11 -9 23 -20 26 -11 3 -20 13 -20 21 0 26 -27 14
-33 -14 -3 -15 -22 -52 -42 -81 -39 -59 -39 -78 0 -41 20 19 28 21 37 12 10
-10 8 -14 -10 -18 -27 -8 -29 -24 -2 -24 15 0 20 -7 20 -29 0 -26 -4 -30 -40
-36 -39 -7 -50 -18 -30 -30 14 -9 131 38 126 50 -2 6 16 10 41 10 l44 1 -3
-50 c-2 -33 1 -51 10 -53 9 -3 12 11 12 51 l0 56 51 0 c36 0 49 4 46 13 -2 7
-21 12 -45 12 -27 0 -42 5 -42 12 0 7 10 12 23 10 20 -2 23 3 28 58 7 71 5 75
-27 75 -25 0 -33 -15 -11 -23 18 -7 6 -14 -35 -20 -21 -3 -38 -2 -38 4 0 5 9
9 21 9 14 0 19 5 16 14 -3 8 1 17 9 20 18 7 18 36 0 36 -7 0 -21 -11 -30 -25z
m44 -85 c-14 -4 -34 -8 -45 -9 -16 -1 -17 1 -5 9 8 5 29 9 45 9 29 -1 29 -1 5
-9z m10 -30 c-8 -5 -28 -9 -45 -9 -29 1 -29 1 -5 9 14 4 34 8 45 9 16 1 17 -1
5 -9z"/>
<path d="M570 195 c0 -16 27 -32 37 -21 7 7 -16 36 -28 36 -5 0 -9 -7 -9 -15z"/>
</g>
</svg>
