<?xml version="1.0" standalone="no"?>
<!DOCTYPE svg PUBLIC "-//W3C//DTD SVG 20010904//EN"
 "http://www.w3.org/TR/2001/REC-SVG-20010904/DTD/svg10.dtd">
<svg version="1.0" xmlns="http://www.w3.org/2000/svg"
 width="95.000000pt" height="725.000000pt" viewBox="0 0 95.000000 725.000000"
 preserveAspectRatio="xMidYMid meet">
<metadata>
Created by potrace 1.16, written by Peter Selinger 2001-2019
</metadata>
<g transform="translate(0.000000,725.000000) scale(0.100000,-0.100000)"
fill="#000000" stroke="none">
<path d="M150 7114 c-6 -14 -10 -28 -10 -31 0 -3 -13 -25 -30 -50 -16 -24 -30
-48 -30 -54 0 -16 19 -10 32 11 15 23 38 27 38 5 0 -8 -9 -15 -20 -15 -11 0
-20 -4 -20 -10 0 -5 12 -10 26 -10 22 0 25 -3 22 -32 -2 -27 -9 -34 -35 -42
-18 -5 -33 -12 -33 -17 0 -19 24 -19 65 0 25 12 49 21 55 21 5 0 10 5 10 11 0
6 -9 9 -20 6 -17 -4 -20 0 -20 29 0 27 4 34 20 34 11 0 20 5 20 10 0 6 -9 10
-20 10 -11 0 -20 7 -20 15 0 8 7 15 15 15 8 0 15 5 15 11 0 7 -11 9 -30 6 -34
-7 -34 -7 -19 27 10 21 14 23 31 13 15 -10 21 -9 28 3 7 10 10 -7 10 -57 l0
-72 52 6 c29 4 59 13 67 20 10 10 17 11 24 4 13 -13 67 -15 67 -3 0 5 -11 14
-25 20 -25 11 -25 13 -10 48 8 20 12 40 9 46 -5 8 -82 2 -92 -7 -2 -1 7 -18
18 -38 l21 -35 -23 -16 c-12 -9 -26 -16 -30 -16 -11 0 -10 28 1 32 4 2 12 13
15 26 5 15 3 24 -8 28 -19 7 -21 31 -3 37 30 11 -5 17 -50 9 -55 -10 -73 -6
-73 14 0 24 -30 15 -40 -12z m130 -44 c0 -11 5 -20 10 -20 6 0 10 -4 10 -10 0
-5 -12 -10 -27 -10 -23 0 -25 2 -13 11 11 7 12 12 3 15 -7 3 -9 12 -6 20 8 21
23 17 23 -6z m100 -11 c0 -18 -2 -20 -15 -9 -13 11 -13 15 -3 21 18 12 18 12
18 -12z m-100 -64 c0 -8 -7 -15 -15 -15 -16 0 -20 12 -8 23 11 12 23 8 23 -8z"/>
<path d="M600 7114 c-6 -14 -10 -28 -10 -31 0 -3 -13 -25 -30 -50 -31 -45 -37
-63 -21 -63 18 0 101 130 101 160 0 21 -31 9 -40 -16z"/>
<path d="M196 6944 c-8 -21 -3 -26 18 -18 9 4 15 11 13 17 -6 18 -24 19 -31 1z"/>
<path d="M100 6931 c0 -12 29 -35 36 -28 11 10 -5 37 -21 37 -8 0 -15 -4 -15
-9z"/>
<path d="M298 6923 c-44 -5 -52 -23 -10 -23 45 0 102 12 102 21 0 9 -20 9 -92
2z"/>
<path d="M150 6664 c-6 -14 -10 -28 -10 -31 0 -3 -13 -25 -30 -50 -16 -24 -30
-48 -30 -54 0 -16 19 -10 32 11 15 23 38 27 38 5 0 -8 -9 -15 -20 -15 -11 0
-20 -4 -20 -10 0 -5 12 -10 26 -10 22 0 25 -3 22 -32 -2 -27 -9 -34 -35 -42
-18 -5 -33 -12 -33 -17 0 -19 24 -19 65 0 25 12 49 21 55 21 5 0 10 5 10 11 0
6 -9 9 -20 6 -17 -4 -20 0 -20 29 0 27 4 34 20 34 11 0 20 5 20 10 0 6 -9 10
-20 10 -11 0 -20 7 -20 15 0 8 7 15 15 15 8 0 15 5 15 11 0 7 -11 9 -30 6 -34
-7 -34 -7 -19 27 10 21 14 23 31 13 15 -10 21 -9 28 3 7 10 10 -8 10 -58 l0
-74 31 7 c22 5 34 3 40 -6 14 -23 10 -29 -16 -29 -14 0 -25 -4 -25 -10 0 -5
11 -10 25 -10 18 0 25 -5 25 -20 0 -27 18 -25 22 3 2 16 11 23 31 25 33 4 36
22 3 22 -30 0 -40 24 -19 45 11 12 19 13 26 6 13 -13 67 -15 67 -3 0 5 -11 14
-25 20 -25 11 -25 13 -10 48 8 20 12 40 9 46 -5 8 -82 2 -92 -7 -2 -1 7 -18
18 -38 l21 -35 -23 -16 c-12 -9 -26 -16 -30 -16 -11 0 -10 28 1 32 4 2 12 13
15 26 5 15 3 24 -8 28 -19 7 -21 31 -3 37 30 11 -5 17 -50 9 -55 -10 -73 -6
-73 14 0 24 -30 15 -40 -12z m130 -44 c0 -11 5 -20 10 -20 6 0 10 -4 10 -10 0
-5 -12 -10 -27 -10 -23 0 -25 2 -13 11 11 7 12 12 3 15 -7 3 -9 12 -6 20 8 21
23 17 23 -6z m100 -11 c0 -18 -2 -20 -15 -9 -13 11 -13 15 -3 21 18 12 18 12
18 -12z m-100 -64 c0 -8 -7 -15 -15 -15 -16 0 -20 12 -8 23 11 12 23 8 23 -8z"/>
<path d="M600 6664 c-6 -14 -10 -28 -10 -31 0 -3 -13 -25 -30 -50 -31 -45 -37
-63 -21 -63 10 0 52 53 73 94 10 18 18 25 22 17 10 -16 36 -14 36 4 0 9 -7 18
-15 21 -8 4 -15 12 -15 20 0 24 -30 15 -40 -12z"/>
<path d="M196 6494 c-8 -21 -3 -26 18 -18 9 4 15 11 13 17 -6 18 -24 19 -31 1z"/>
<path d="M100 6481 c0 -12 29 -35 36 -28 11 10 -5 37 -21 37 -8 0 -15 -4 -15
-9z"/>
<path d="M150 6214 c-6 -14 -10 -28 -10 -31 0 -3 -13 -25 -30 -50 -16 -24 -30
-48 -30 -54 0 -16 19 -10 32 11 15 23 38 27 38 5 0 -8 -9 -15 -20 -15 -11 0
-20 -4 -20 -10 0 -5 12 -10 26 -10 22 0 25 -3 22 -32 -2 -27 -9 -34 -35 -42
-18 -5 -33 -12 -33 -17 0 -19 24 -19 65 0 25 12 49 21 55 21 5 0 10 5 10 11 0
6 -9 9 -20 6 -17 -4 -20 0 -20 29 0 27 4 34 20 34 11 0 20 5 20 10 0 6 -9 10
-20 10 -11 0 -20 7 -20 15 0 8 7 15 15 15 8 0 15 5 15 11 0 7 -11 9 -30 6 -34
-7 -34 -7 -19 27 10 21 14 23 31 13 15 -10 21 -9 28 3 7 10 10 -8 10 -58 l0
-74 31 7 c22 5 34 3 40 -6 14 -23 10 -29 -16 -29 -14 0 -25 -4 -25 -10 0 -5
11 -10 25 -10 16 0 25 -6 25 -15 0 -11 -12 -15 -46 -15 -32 0 -44 -4 -41 -12
4 -13 46 -14 155 -2 67 7 68 24 1 24 -36 0 -49 4 -47 13 3 6 17 13 31 15 33 4
36 22 3 22 -30 0 -40 24 -19 45 11 12 19 13 26 6 13 -13 67 -15 67 -3 0 5 -11
14 -25 20 -25 11 -25 13 -10 48 8 20 12 40 9 46 -5 8 -82 2 -92 -7 -2 -1 7
-18 18 -38 l21 -35 -23 -16 c-12 -9 -26 -16 -30 -16 -11 0 -10 28 1 32 4 2 12
13 15 26 5 15 3 24 -8 28 -19 7 -21 31 -3 37 30 11 -5 17 -50 9 -55 -10 -73
-6 -73 14 0 24 -30 15 -40 -12z m130 -44 c0 -11 5 -20 10 -20 6 0 10 -4 10
-10 0 -5 -12 -10 -27 -10 -23 0 -25 2 -13 11 11 7 12 12 3 15 -7 3 -9 12 -6
20 8 21 23 17 23 -6z m100 -11 c0 -18 -2 -20 -15 -9 -13 11 -13 15 -3 21 18
12 18 12 18 -12z m-100 -64 c0 -8 -7 -15 -15 -15 -16 0 -20 12 -8 23 11 12 23
8 23 -8z"/>
<path d="M600 6214 c-6 -14 -10 -28 -10 -31 0 -3 -13 -25 -30 -50 -16 -24 -30
-48 -30 -54 0 -16 19 -10 32 11 7 11 22 20 33 20 32 0 65 12 65 22 0 6 -13 8
-30 5 -33 -7 -35 -3 -16 32 8 15 16 20 20 12 10 -16 36 -13 36 4 0 9 -7 18
-15 21 -8 4 -15 12 -15 20 0 24 -30 15 -40 -12z"/>
<path d="M196 6044 c-8 -21 -3 -26 18 -18 9 4 15 11 13 17 -6 18 -24 19 -31 1z"/>
<path d="M100 6031 c0 -12 29 -35 36 -28 11 10 -5 37 -21 37 -8 0 -15 -4 -15
-9z"/>
<path d="M600 5764 c-6 -14 -10 -28 -10 -31 0 -3 -13 -25 -30 -50 -16 -24 -30
-48 -30 -54 0 -16 19 -10 32 11 7 11 22 20 33 20 32 0 65 12 65 22 0 6 -13 8
-30 5 -33 -7 -35 -3 -16 32 8 15 16 20 20 12 10 -16 36 -13 36 4 0 9 -7 18
-15 21 -8 4 -15 12 -15 20 0 24 -30 15 -40 -12z"/>
<path d="M588 5633 c-34 -5 -37 -23 -4 -23 38 0 86 12 86 21 0 9 -31 10 -82 2z"/>
<path d="M600 5314 c-6 -14 -10 -28 -10 -31 0 -3 -13 -25 -30 -50 -16 -24 -30
-48 -30 -54 0 -16 19 -10 32 11 15 23 38 27 38 5 0 -8 -9 -15 -20 -15 -11 0
-20 -4 -20 -10 0 -5 11 -10 25 -10 23 0 25 -4 25 -40 0 -22 5 -40 10 -40 6 0
10 20 10 45 0 38 3 45 20 45 11 0 20 5 20 10 0 6 -9 10 -20 10 -11 0 -20 7
-20 15 0 8 7 15 15 15 8 0 15 5 15 11 0 7 -11 9 -30 6 -33 -7 -35 -3 -16 32 8
15 16 20 20 12 10 -16 36 -13 36 4 0 9 -7 18 -15 21 -8 4 -15 12 -15 20 0 24
-30 15 -40 -12z"/>
<path d="M600 4864 c-6 -14 -10 -28 -10 -31 0 -3 -13 -25 -30 -50 -16 -24 -30
-48 -30 -54 0 -16 19 -10 32 11 15 23 38 27 38 5 0 -8 -9 -15 -20 -15 -11 0
-20 -4 -20 -10 0 -5 11 -10 25 -10 23 0 25 -4 25 -40 0 -22 5 -40 10 -40 6 0
10 20 10 45 0 38 3 45 20 45 11 0 20 5 20 10 0 6 -9 10 -20 10 -11 0 -20 7
-20 15 0 8 7 15 15 15 8 0 15 5 15 11 0 7 -11 9 -30 6 -33 -7 -35 -3 -16 32 8
15 16 20 20 12 10 -16 36 -13 36 4 0 9 -7 18 -15 21 -8 4 -15 12 -15 20 0 24
-30 15 -40 -12z"/>
<path d="M550 4681 c0 -12 29 -35 36 -28 11 10 -5 37 -21 37 -8 0 -15 -4 -15
-9z"/>
<path d="M600 4414 c-6 -14 -10 -28 -10 -31 0 -3 -13 -25 -30 -50 -16 -24 -30
-48 -30 -54 0 -16 19 -10 32 11 15 23 38 27 38 5 0 -8 -9 -15 -20 -15 -11 0
-20 -4 -20 -10 0 -5 11 -10 25 -10 23 0 25 -4 25 -40 0 -22 5 -40 10 -40 6 0
10 20 10 45 0 38 3 45 20 45 11 0 20 5 20 10 0 6 -9 10 -20 10 -11 0 -20 7
-20 15 0 8 7 15 15 15 8 0 15 5 15 11 0 7 -11 9 -30 6 -33 -7 -35 -3 -16 32 8
15 16 20 20 12 10 -16 36 -13 36 4 0 9 -7 18 -15 21 -8 4 -15 12 -15 20 0 24
-30 15 -40 -12z"/>
<path d="M646 4244 c-8 -21 -3 -26 18 -18 9 4 15 11 13 17 -6 18 -24 19 -31 1z"/>
<path d="M550 4231 c0 -12 29 -35 36 -28 11 10 -5 37 -21 37 -8 0 -15 -4 -15
-9z"/>
<path d="M600 3964 c-6 -14 -10 -28 -10 -31 0 -3 -13 -25 -30 -50 -16 -24 -30
-48 -30 -54 0 -16 19 -10 32 11 15 23 38 27 38 5 0 -8 -9 -15 -20 -15 -11 0
-20 -4 -20 -10 0 -5 12 -10 26 -10 22 0 25 -3 22 -32 -2 -27 -9 -34 -35 -42
-18 -5 -33 -12 -33 -17 0 -19 24 -19 65 0 25 12 49 21 55 21 5 0 10 5 10 11 0
6 -9 9 -20 6 -17 -4 -20 0 -20 29 0 27 4 34 20 34 11 0 20 5 20 10 0 6 -9 10
-20 10 -11 0 -20 7 -20 15 0 8 7 15 15 15 8 0 15 5 15 11 0 7 -11 9 -30 6 -33
-7 -35 -3 -16 32 8 15 16 20 20 12 10 -16 36 -13 36 4 0 9 -7 18 -15 21 -8 4
-15 12 -15 20 0 24 -30 15 -40 -12z"/>
<path d="M646 3794 c-8 -21 -3 -26 18 -18 9 4 15 11 13 17 -6 18 -24 19 -31 1z"/>
<path d="M550 3781 c0 -12 29 -35 36 -28 11 10 -5 37 -21 37 -8 0 -15 -4 -15
-9z"/>
<path d="M600 3514 c-6 -14 -10 -28 -10 -31 0 -3 -13 -25 -30 -50 -16 -24 -30
-48 -30 -54 0 -16 19 -10 32 11 15 23 38 27 38 5 0 -8 -9 -15 -20 -15 -11 0
-20 -4 -20 -10 0 -5 12 -10 26 -10 22 0 25 -3 22 -32 -2 -27 -9 -34 -35 -42
-18 -5 -33 -12 -33 -17 0 -19 24 -19 65 0 25 12 49 21 55 21 5 0 10 5 10 11 0
6 -9 9 -20 6 -17 -4 -20 0 -20 29 0 27 4 34 20 34 11 0 20 5 20 10 0 6 -9 10
-20 10 -11 0 -20 7 -20 15 0 8 7 15 15 15 8 0 15 5 15 11 0 7 -11 9 -30 6 -34
-7 -34 -7 -19 27 10 21 14 23 31 13 13 -9 21 -9 26 -1 4 6 26 14 50 17 24 3
46 8 49 11 14 13 -8 17 -54 8 -55 -10 -73 -6 -73 14 0 24 -30 15 -40 -12z"/>
<path d="M646 3344 c-8 -21 -3 -26 18 -18 9 4 15 11 13 17 -6 18 -24 19 -31 1z"/>
<path d="M550 3331 c0 -12 29 -35 36 -28 11 10 -5 37 -21 37 -8 0 -15 -4 -15
-9z"/>
<path d="M600 3064 c-6 -14 -10 -28 -10 -31 0 -3 -13 -25 -30 -50 -16 -24 -30
-48 -30 -54 0 -16 19 -10 32 11 15 23 38 27 38 5 0 -8 -9 -15 -20 -15 -11 0
-20 -4 -20 -10 0 -5 12 -10 26 -10 22 0 25 -3 22 -32 -2 -27 -9 -34 -35 -42
-18 -5 -33 -12 -33 -17 0 -19 24 -19 65 0 25 12 49 21 55 21 5 0 10 5 10 11 0
6 -9 9 -20 6 -17 -4 -20 0 -20 29 0 27 4 34 20 34 11 0 20 5 20 10 0 6 -9 10
-20 10 -11 0 -20 7 -20 15 0 8 7 15 15 15 8 0 15 5 15 11 0 7 -11 9 -30 6 -34
-7 -34 -7 -19 27 10 21 14 23 32 13 15 -9 21 -9 24 1 7 18 63 16 63 -3 0 -8 5
-15 10 -15 6 0 10 9 10 19 0 11 6 21 13 24 30 11 -5 17 -50 9 -55 -10 -73 -6
-73 14 0 24 -30 15 -40 -12z"/>
<path d="M646 2894 c-8 -21 -3 -26 18 -18 18 7 17 25 -1 31 -6 2 -13 -4 -17
-13z"/>
<path d="M550 2881 c0 -12 29 -35 36 -28 11 10 -5 37 -21 37 -8 0 -15 -4 -15
-9z"/>
<path d="M600 2614 c-6 -14 -10 -28 -10 -31 0 -3 -13 -25 -30 -50 -16 -24 -30
-48 -30 -54 0 -16 19 -10 32 11 15 23 38 27 38 5 0 -8 -9 -15 -20 -15 -11 0
-20 -4 -20 -10 0 -5 12 -10 26 -10 22 0 25 -3 22 -32 -2 -27 -9 -34 -35 -42
-18 -5 -33 -12 -33 -17 0 -19 24 -19 65 0 25 12 49 21 55 21 5 0 10 5 10 11 0
6 -9 9 -20 6 -17 -4 -20 0 -20 29 0 27 4 34 20 34 11 0 20 5 20 10 0 6 -9 10
-20 10 -11 0 -20 7 -20 15 0 8 7 15 15 15 8 0 15 5 15 11 0 7 -11 9 -30 6 -34
-7 -34 -7 -19 27 10 21 14 23 32 13 15 -9 21 -9 24 1 3 6 18 12 34 12 22 0 29
-5 29 -20 0 -11 5 -20 10 -20 6 0 10 -7 10 -15 0 -20 16 -19 24 2 4 11 1 22
-8 29 -19 14 -21 31 -3 37 30 11 -5 17 -50 9 -55 -10 -73 -6 -73 14 0 24 -30
15 -40 -12z"/>
<path d="M700 2550 c0 -5 5 -10 10 -10 6 0 10 5 10 10 0 6 -4 10 -10 10 -5 0
-10 -4 -10 -10z"/>
<path d="M646 2444 c-8 -21 -3 -26 18 -18 18 7 17 25 -1 31 -6 2 -13 -4 -17
-13z"/>
<path d="M550 2431 c0 -12 29 -35 36 -28 11 10 -5 37 -21 37 -8 0 -15 -4 -15
-9z"/>
<path d="M600 2164 c-6 -14 -10 -28 -10 -31 0 -3 -13 -25 -30 -50 -16 -24 -30
-48 -30 -54 0 -16 19 -10 32 11 15 23 38 27 38 5 0 -8 -9 -15 -20 -15 -11 0
-20 -4 -20 -10 0 -5 12 -10 26 -10 22 0 25 -3 22 -32 -2 -27 -9 -34 -35 -42
-18 -5 -33 -12 -33 -17 0 -19 24 -19 65 0 25 12 49 21 55 21 5 0 10 5 10 11 0
6 -9 9 -20 6 -17 -4 -20 0 -20 29 0 27 4 34 20 34 11 0 20 5 20 10 0 6 -9 10
-20 10 -11 0 -20 7 -20 15 0 8 7 15 15 15 8 0 15 5 15 11 0 7 -11 9 -30 6 -34
-7 -34 -7 -19 27 10 21 14 23 32 13 15 -9 21 -9 24 1 3 6 18 12 34 12 22 0 29
-5 29 -20 0 -11 5 -20 10 -20 6 0 10 -4 10 -10 0 -5 -11 -10 -25 -10 -14 0
-25 -4 -25 -10 0 -5 15 -10 34 -10 26 0 35 5 40 23 3 14 0 26 -9 33 -18 14
-19 31 -2 37 30 11 -5 17 -50 9 -55 -10 -73 -6 -73 14 0 24 -30 15 -40 -12z"/>
<path d="M700 2100 c0 -5 5 -10 10 -10 6 0 10 5 10 10 0 6 -4 10 -10 10 -5 0
-10 -4 -10 -10z"/>
<path d="M646 1994 c-8 -21 -3 -26 18 -18 9 4 15 11 13 17 -6 18 -24 19 -31 1z"/>
<path d="M550 1981 c0 -12 29 -35 36 -28 11 10 -5 37 -21 37 -8 0 -15 -4 -15
-9z"/>
<path d="M600 1714 c-6 -14 -10 -28 -10 -31 0 -3 -13 -25 -30 -50 -16 -24 -30
-48 -30 -54 0 -16 19 -10 32 11 15 23 38 27 38 5 0 -8 -9 -15 -20 -15 -11 0
-20 -4 -20 -10 0 -5 12 -10 26 -10 22 0 25 -3 22 -32 -2 -27 -9 -34 -35 -42
-18 -5 -33 -12 -33 -17 0 -19 24 -19 65 0 25 12 49 21 55 21 5 0 10 5 10 11 0
6 -9 9 -20 6 -17 -4 -20 0 -20 29 0 27 4 34 20 34 11 0 20 5 20 10 0 6 -9 10
-20 10 -11 0 -20 7 -20 15 0 8 7 15 15 15 8 0 15 5 15 11 0 7 -11 9 -30 6 -34
-7 -34 -7 -19 27 10 21 14 23 32 13 15 -9 21 -9 24 1 3 6 18 12 34 12 22 0 29
-5 29 -20 0 -11 5 -20 10 -20 6 0 10 -4 10 -10 0 -5 -11 -10 -25 -10 -14 0
-25 -4 -25 -10 0 -5 7 -10 15 -10 8 0 15 -9 15 -20 0 -11 5 -20 10 -20 6 0 10
9 10 19 0 11 4 21 9 23 4 2 12 13 15 26 5 15 3 24 -8 28 -19 7 -21 31 -3 37
30 11 -5 17 -50 9 -55 -10 -73 -6 -73 14 0 24 -30 15 -40 -12z"/>
<path d="M700 1650 c0 -5 5 -10 10 -10 6 0 10 5 10 10 0 6 -4 10 -10 10 -5 0
-10 -4 -10 -10z"/>
<path d="M646 1544 c-8 -21 -3 -26 18 -18 9 4 15 11 13 17 -6 18 -24 19 -31 1z"/>
<path d="M550 1531 c0 -12 29 -35 36 -28 11 10 -5 37 -21 37 -8 0 -15 -4 -15
-9z"/>
<path d="M600 1264 c-6 -14 -10 -28 -10 -31 0 -3 -13 -25 -30 -50 -16 -24 -30
-48 -30 -54 0 -16 19 -10 32 11 15 23 38 27 38 5 0 -8 -9 -15 -20 -15 -11 0
-20 -4 -20 -10 0 -5 12 -10 26 -10 22 0 25 -3 22 -32 -2 -27 -9 -34 -35 -42
-18 -5 -33 -12 -33 -17 0 -19 24 -19 65 0 25 12 49 21 55 21 5 0 10 5 10 11 0
6 -9 9 -20 6 -17 -4 -20 0 -20 29 0 27 4 34 20 34 11 0 20 5 20 10 0 6 -9 10
-20 10 -11 0 -20 7 -20 15 0 8 7 15 15 15 8 0 15 5 15 11 0 7 -11 9 -30 6 -34
-7 -34 -7 -19 27 10 21 14 23 31 13 15 -10 21 -9 28 3 7 10 10 -8 10 -59 0
-71 1 -73 23 -67 12 3 37 6 55 6 17 0 32 5 32 10 0 6 -9 10 -20 10 -20 0 -29
25 -11 32 4 2 12 13 15 26 5 15 3 24 -8 28 -19 7 -21 31 -3 37 30 11 -5 17
-50 9 -55 -10 -73 -6 -73 14 0 24 -30 15 -40 -12z m130 -44 c0 -11 5 -20 10
-20 6 0 10 -4 10 -10 0 -5 -12 -10 -27 -10 -23 0 -25 2 -13 11 11 7 12 12 3
15 -7 3 -9 12 -6 20 8 21 23 17 23 -6z m0 -75 c0 -8 -7 -15 -15 -15 -16 0 -20
12 -8 23 11 12 23 8 23 -8z"/>
<path d="M646 1094 c-4 -9 -5 -19 -3 -21 8 -7 38 10 34 20 -6 18 -24 19 -31 1z"/>
<path d="M550 1081 c0 -12 29 -35 36 -28 11 10 -5 37 -21 37 -8 0 -15 -4 -15
-9z"/>
<path d="M600 814 c-6 -14 -10 -28 -10 -31 0 -3 -13 -25 -30 -50 -16 -24 -30
-48 -30 -54 0 -16 19 -10 32 11 15 23 38 27 38 5 0 -8 -9 -15 -20 -15 -11 0
-20 -4 -20 -10 0 -5 12 -10 26 -10 22 0 25 -3 22 -32 -2 -27 -9 -34 -35 -42
-18 -5 -33 -12 -33 -17 0 -19 24 -19 65 0 25 12 49 21 55 21 5 0 10 5 10 11 0
6 -9 9 -20 6 -17 -4 -20 0 -20 29 0 27 4 34 20 34 11 0 20 5 20 10 0 6 -9 10
-20 10 -11 0 -20 7 -20 15 0 8 7 15 15 15 8 0 15 5 15 11 0 7 -11 9 -30 6 -34
-7 -34 -7 -19 27 10 21 14 23 31 13 15 -10 21 -9 28 3 7 10 10 -7 10 -57 l0
-72 52 6 c29 4 59 12 66 20 7 7 17 13 22 13 14 0 52 92 42 102 -11 11 -92 -1
-92 -14 0 -6 14 -8 30 -6 24 4 30 1 30 -15 0 -20 -51 -77 -69 -77 -13 0 -15
27 -2 32 4 2 12 13 15 26 5 15 3 24 -8 28 -19 7 -21 31 -3 37 30 11 -5 17 -50
9 -55 -10 -73 -6 -73 14 0 24 -30 15 -40 -12z m130 -44 c0 -11 5 -20 10 -20 6
0 10 -4 10 -10 0 -5 -12 -10 -27 -10 -23 0 -25 2 -13 11 11 7 12 12 3 15 -7 3
-9 12 -6 20 8 21 23 17 23 -6z m0 -75 c0 -8 -7 -15 -15 -15 -16 0 -20 12 -8
23 11 12 23 8 23 -8z"/>
<path d="M646 644 c-8 -21 -3 -26 18 -18 18 7 17 25 -1 31 -6 2 -13 -4 -17
-13z"/>
<path d="M550 631 c0 -12 29 -35 36 -28 11 10 -5 37 -21 37 -8 0 -15 -4 -15
-9z"/>
<path d="M600 364 c-6 -14 -10 -28 -10 -31 0 -3 -13 -25 -30 -50 -16 -24 -30
-48 -30 -54 0 -16 19 -10 32 11 15 23 38 27 38 5 0 -8 -9 -15 -20 -15 -11 0
-20 -4 -20 -10 0 -5 12 -10 26 -10 22 0 25 -3 22 -32 -2 -27 -9 -34 -35 -42
-18 -5 -33 -12 -33 -17 0 -19 24 -19 65 0 25 12 49 21 55 21 5 0 10 5 10 11 0
6 -9 9 -20 6 -17 -4 -20 0 -20 29 0 27 4 34 20 34 11 0 20 5 20 10 0 6 -9 10
-20 10 -11 0 -20 7 -20 15 0 8 7 15 15 15 8 0 15 5 15 11 0 7 -11 9 -30 6 -34
-7 -34 -7 -19 27 10 21 14 23 31 13 15 -10 21 -9 28 3 7 10 10 -7 10 -57 l0
-72 52 6 c29 4 59 13 67 20 10 10 17 11 24 4 13 -13 67 -15 67 -3 0 5 -11 14
-25 20 -25 11 -25 13 -10 48 8 20 12 40 9 46 -5 8 -82 2 -92 -7 -2 -1 7 -18
18 -38 l21 -35 -23 -16 c-12 -9 -26 -16 -30 -16 -11 0 -10 28 1 32 4 2 12 13
15 26 5 15 3 24 -8 28 -19 7 -21 31 -3 37 30 11 -5 17 -50 9 -55 -10 -73 -6
-73 14 0 24 -30 15 -40 -12z m130 -44 c0 -11 5 -20 10 -20 6 0 10 -4 10 -10 0
-5 -12 -10 -27 -10 -23 0 -25 2 -13 11 11 7 12 12 3 15 -7 3 -9 12 -6 20 8 21
23 17 23 -6z m100 -11 c0 -18 -2 -20 -15 -9 -13 11 -13 15 -3 21 18 12 18 12
18 -12z m-100 -64 c0 -8 -7 -15 -15 -15 -16 0 -20 12 -8 23 11 12 23 8 23 -8z"/>
<path d="M646 194 c-4 -9 -5 -19 -3 -21 8 -7 38 10 34 20 -6 18 -24 19 -31 1z"/>
<path d="M550 181 c0 -12 29 -35 36 -28 11 10 -5 37 -21 37 -8 0 -15 -4 -15
-9z"/>
</g>
</svg>
