<?xml version="1.0" standalone="no"?>
<!DOCTYPE svg PUBLIC "-//W3C//DTD SVG 20010904//EN"
 "http://www.w3.org/TR/2001/REC-SVG-20010904/DTD/svg10.dtd">
<svg version="1.0" xmlns="http://www.w3.org/2000/svg"
 width="95.000000pt" height="725.000000pt" viewBox="0 0 95.000000 725.000000"
 preserveAspectRatio="xMidYMid meet">
<metadata>
Created by potrace 1.16, written by Peter Selinger 2001-2019
</metadata>
<g transform="translate(0.000000,725.000000) scale(0.100000,-0.100000)"
fill="#000000" stroke="none">
<path d="M326 7097 c-32 -65 -33 -81 -6 -74 15 4 20 0 20 -15 0 -17 -4 -19
-27 -14 -16 4 -36 8 -45 9 -24 2 -24 37 0 37 11 0 21 13 30 41 7 23 11 44 8
46 -8 9 -86 -9 -86 -19 0 -6 11 -8 25 -6 14 3 25 2 25 -3 0 -21 -14 -39 -31
-39 -14 0 -19 -8 -20 -30 -1 -16 -2 -36 -3 -42 -1 -8 9 -12 27 -10 25 3 27 0
22 -23 -3 -14 -7 -36 -10 -50 -3 -14 -12 -25 -20 -25 -20 0 -19 -29 1 -37 23
-9 36 11 49 74 11 52 13 55 20 31 4 -16 13 -28 21 -28 8 0 14 -10 14 -25 0
-16 6 -25 15 -25 10 0 15 10 15 30 0 25 4 30 24 30 18 0 25 7 30 31 7 35 1 49
-20 49 -8 0 -14 -10 -14 -24 0 -14 -4 -27 -9 -31 -6 -3 -8 10 -6 32 1 21 3 45
4 53 1 11 4 11 13 2 7 -7 16 -12 20 -12 12 0 9 35 -4 48 -16 16 -28 15 -28 -2
0 -7 -11 -16 -25 -18 l-24 -5 19 27 c21 29 27 70 11 70 -5 0 -20 -24 -35 -53z"/>
<path d="M150 7112 c0 -16 -16 -54 -35 -86 -39 -65 -40 -68 -22 -65 35 4 57
-2 57 -17 0 -14 -3 -14 -15 -4 -9 7 -18 11 -20 8 -10 -9 6 -37 23 -41 10 -3 2
-5 -15 -6 -34 -1 -46 -24 -20 -34 20 -8 108 36 103 50 -3 7 -1 15 4 18 6 4 10
10 10 16 0 14 -28 11 -33 -3 -4 -8 -6 -7 -6 4 -1 9 5 19 12 21 9 4 8 8 -3 16
-13 10 -13 13 3 25 26 20 21 29 -13 23 -28 -6 -29 -5 -18 18 12 27 23 31 33
15 9 -15 25 -12 25 5 0 9 -7 18 -15 21 -8 4 -15 12 -15 19 0 11 -20 25 -36 25
-2 0 -4 -13 -4 -28z m0 -117 c0 -8 -7 -15 -16 -15 -14 0 -14 3 -4 15 7 8 14
15 16 15 2 0 4 -7 4 -15z"/>
<path d="M600 7112 c0 -16 -16 -54 -35 -87 -20 -32 -33 -60 -30 -63 11 -11 54
43 80 100 22 49 25 62 14 69 -23 14 -29 10 -29 -19z"/>
<path d="M326 6647 c-32 -65 -33 -81 -6 -74 15 4 20 0 20 -15 0 -17 -4 -19
-27 -14 -16 4 -36 8 -45 9 -24 2 -24 37 0 37 11 0 21 13 30 41 7 23 11 44 8
46 -8 9 -86 -9 -86 -19 0 -6 11 -8 25 -6 14 3 25 2 25 -3 0 -21 -14 -39 -31
-39 -14 0 -19 -8 -20 -30 -1 -16 -2 -36 -3 -42 -1 -8 9 -12 27 -10 25 3 27 0
22 -23 -3 -14 -7 -36 -10 -50 -3 -14 -12 -25 -20 -25 -20 0 -19 -29 1 -37 10
-4 22 0 29 10 11 15 13 15 27 0 15 -14 20 -14 62 2 45 17 61 35 31 35 -8 0
-15 9 -15 20 0 14 7 20 24 20 18 0 25 7 30 31 7 35 1 49 -20 49 -8 0 -14 -10
-14 -24 0 -14 -4 -27 -9 -31 -6 -3 -8 10 -6 32 1 21 3 45 4 53 1 11 4 11 13 2
7 -7 16 -12 20 -12 12 0 9 35 -4 48 -16 16 -28 15 -28 -2 0 -7 -11 -16 -25
-18 l-24 -5 19 27 c21 29 27 70 11 70 -5 0 -20 -24 -35 -53z m1 -177 c18 0 16
-37 -2 -44 -26 -10 -47 5 -41 28 3 11 6 32 7 46 l1 25 11 -27 c6 -16 17 -28
24 -28z"/>
<path d="M150 6662 c0 -16 -16 -54 -35 -86 -39 -65 -40 -68 -22 -65 35 4 57
-2 57 -17 0 -14 -3 -14 -15 -4 -9 7 -18 11 -20 8 -10 -9 6 -37 23 -41 10 -3 2
-5 -15 -6 -34 -1 -46 -24 -20 -34 20 -8 108 36 103 50 -3 7 -1 15 4 18 6 4 10
10 10 16 0 14 -28 11 -33 -3 -4 -8 -6 -7 -6 4 -1 9 5 19 12 21 9 4 8 8 -3 16
-13 10 -13 13 3 25 26 20 21 29 -13 23 -28 -6 -29 -5 -18 18 12 27 23 31 33
15 9 -15 25 -12 25 5 0 9 -7 18 -15 21 -8 4 -15 12 -15 19 0 11 -20 25 -36 25
-2 0 -4 -13 -4 -28z m0 -117 c0 -8 -7 -15 -16 -15 -14 0 -14 3 -4 15 7 8 14
15 16 15 2 0 4 -7 4 -15z"/>
<path d="M600 6662 c0 -16 -16 -54 -35 -87 -20 -32 -33 -60 -30 -63 9 -10 52
38 70 79 18 39 29 47 40 29 9 -15 25 -12 25 5 0 9 -7 18 -15 21 -8 4 -15 12
-15 19 0 11 -20 25 -36 25 -2 0 -4 -13 -4 -28z"/>
<path d="M326 6197 c-32 -65 -33 -81 -6 -74 15 4 20 0 20 -15 0 -17 -4 -19
-27 -14 -16 4 -36 8 -45 9 -24 2 -24 37 0 37 11 0 21 13 30 41 7 23 11 44 8
46 -8 9 -86 -9 -86 -19 0 -6 11 -8 25 -6 14 3 25 2 25 -3 0 -21 -14 -39 -31
-39 -14 0 -19 -8 -20 -30 -1 -16 -2 -36 -3 -42 -1 -8 9 -12 27 -10 25 3 27 0
22 -23 -3 -14 -7 -36 -10 -50 -3 -14 -12 -25 -20 -25 -20 0 -19 -29 1 -37 10
-4 22 0 29 10 11 15 13 15 28 0 14 -14 19 -14 58 1 40 16 44 16 55 1 17 -22
37 -9 28 18 -6 23 -31 47 -47 47 -5 0 -7 -7 -3 -15 3 -8 1 -15 -4 -15 -6 0
-10 9 -10 20 0 14 7 20 24 20 18 0 25 7 30 31 7 35 1 49 -20 49 -8 0 -14 -10
-14 -24 0 -14 -4 -27 -9 -31 -6 -3 -8 10 -6 32 1 21 3 45 4 53 1 11 4 11 13 2
7 -7 16 -12 20 -12 12 0 9 35 -4 48 -16 16 -28 15 -28 -2 0 -7 -11 -16 -25
-18 l-24 -5 19 27 c21 29 27 70 11 70 -5 0 -20 -24 -35 -53z m1 -177 c18 0 16
-37 -2 -44 -26 -10 -47 5 -41 28 3 11 6 32 7 46 l1 25 11 -27 c6 -16 17 -28
24 -28z"/>
<path d="M150 6212 c0 -16 -16 -54 -35 -86 -39 -65 -40 -68 -22 -65 35 4 57
-2 57 -17 0 -14 -3 -14 -15 -4 -9 7 -18 11 -20 8 -10 -9 6 -37 23 -41 10 -3 2
-5 -15 -6 -34 -1 -46 -24 -20 -34 20 -8 108 36 103 50 -3 7 -1 15 4 18 6 4 10
10 10 16 0 14 -28 11 -33 -3 -4 -8 -6 -7 -6 4 -1 9 5 19 12 21 9 4 8 8 -3 16
-13 10 -13 13 3 25 26 20 21 29 -13 23 -28 -6 -29 -5 -18 18 12 27 23 31 33
15 9 -15 25 -12 25 5 0 9 -7 18 -15 21 -8 4 -15 12 -15 19 0 11 -20 25 -36 25
-2 0 -4 -13 -4 -28z m0 -117 c0 -8 -7 -15 -16 -15 -14 0 -14 3 -4 15 7 8 14
15 16 15 2 0 4 -7 4 -15z"/>
<path d="M600 6212 c0 -16 -16 -54 -35 -87 -40 -65 -38 -82 3 -42 16 15 35 27
44 27 25 0 48 11 48 22 0 6 -12 8 -30 5 -28 -6 -29 -5 -18 18 12 27 23 31 33
15 9 -15 25 -12 25 5 0 9 -7 18 -15 21 -8 4 -15 12 -15 19 0 11 -20 25 -36 25
-2 0 -4 -13 -4 -28z"/>
<path d="M600 5762 c0 -16 -16 -54 -35 -86 -19 -32 -35 -59 -35 -61 0 -5 67
-4 93 1 45 9 32 27 -15 20 -36 -6 -40 -5 -28 9 7 8 21 15 30 15 26 0 50 11 50
22 0 6 -12 8 -30 5 -28 -6 -29 -5 -18 18 12 27 23 31 33 15 9 -15 25 -12 25 5
0 9 -7 18 -15 21 -8 4 -15 12 -15 19 0 11 -20 25 -36 25 -2 0 -4 -13 -4 -28z"/>
<path d="M600 5312 c0 -16 -16 -54 -35 -86 -39 -65 -40 -68 -22 -65 45 6 57
-1 57 -32 0 -39 24 -34 28 7 2 16 9 32 15 36 9 6 8 11 -3 18 -13 9 -13 12 3
24 26 20 21 29 -13 23 -28 -6 -29 -5 -18 18 12 27 23 31 33 15 9 -15 25 -12
25 5 0 9 -7 18 -15 21 -8 4 -15 12 -15 19 0 11 -20 25 -36 25 -2 0 -4 -13 -4
-28z m0 -117 c0 -8 -7 -15 -16 -15 -14 0 -14 3 -4 15 7 8 14 15 16 15 2 0 4
-7 4 -15z"/>
<path d="M600 4862 c0 -16 -16 -54 -35 -86 -39 -65 -40 -68 -22 -65 35 4 57
-2 57 -17 0 -14 -3 -14 -15 -4 -18 15 -28 9 -20 -13 7 -16 43 -30 57 -21 4 3
8 18 8 34 0 15 6 31 13 33 9 4 8 8 -3 16 -13 10 -13 13 3 25 26 20 21 29 -13
23 -28 -6 -29 -5 -18 18 12 27 23 31 33 15 9 -15 25 -12 25 5 0 9 -7 18 -15
21 -8 4 -15 12 -15 19 0 11 -20 25 -36 25 -2 0 -4 -13 -4 -28z m0 -117 c0 -8
-7 -15 -16 -15 -14 0 -14 3 -4 15 7 8 14 15 16 15 2 0 4 -7 4 -15z"/>
<path d="M600 4412 c0 -16 -16 -54 -35 -86 -39 -65 -40 -68 -22 -65 35 4 57
-2 57 -17 0 -14 -3 -14 -15 -4 -18 15 -28 9 -20 -13 10 -25 46 -28 77 -6 15
11 28 25 28 30 0 14 -28 11 -33 -3 -4 -8 -6 -7 -6 4 -1 9 5 19 12 21 9 4 8 8
-3 16 -13 10 -13 13 3 25 26 20 21 29 -13 23 -28 -6 -29 -5 -18 18 12 27 23
31 33 15 9 -15 25 -12 25 5 0 9 -7 18 -15 21 -8 4 -15 12 -15 19 0 11 -20 25
-36 25 -2 0 -4 -13 -4 -28z m0 -117 c0 -8 -7 -15 -16 -15 -14 0 -14 3 -4 15 7
8 14 15 16 15 2 0 4 -7 4 -15z"/>
<path d="M600 3962 c0 -16 -16 -54 -35 -86 -39 -65 -40 -68 -22 -65 35 4 57
-2 57 -17 0 -14 -3 -14 -15 -4 -9 7 -18 11 -20 8 -10 -9 6 -37 23 -41 10 -3 2
-5 -15 -6 -34 -1 -46 -24 -20 -34 20 -8 108 36 103 50 -3 7 -1 15 4 18 6 4 10
10 10 16 0 14 -28 11 -33 -3 -4 -8 -6 -7 -6 4 -1 9 5 19 12 21 9 4 8 8 -3 16
-13 10 -13 13 3 25 26 20 21 29 -13 23 -28 -6 -29 -5 -18 18 12 27 23 31 33
15 9 -15 25 -12 25 5 0 9 -7 18 -15 21 -8 4 -15 12 -15 19 0 11 -20 25 -36 25
-2 0 -4 -13 -4 -28z m0 -117 c0 -8 -7 -15 -16 -15 -14 0 -14 3 -4 15 7 8 14
15 16 15 2 0 4 -7 4 -15z"/>
<path d="M600 3512 c0 -16 -16 -54 -35 -86 -39 -65 -40 -68 -22 -65 35 4 57
-2 57 -17 0 -14 -3 -14 -15 -4 -9 7 -18 11 -20 8 -10 -9 6 -37 23 -41 10 -3 2
-5 -15 -6 -34 -1 -46 -24 -20 -34 20 -8 108 36 103 50 -3 7 -1 15 4 18 6 4 10
10 10 16 0 14 -28 11 -33 -3 -4 -8 -6 -7 -6 4 -1 9 5 19 12 21 9 4 8 8 -3 16
-13 10 -13 13 3 25 26 20 21 29 -13 23 -28 -6 -29 -5 -18 18 12 27 23 31 33
15 9 -15 25 -12 25 5 0 9 -7 18 -15 21 -8 4 -15 12 -15 19 0 11 -20 25 -36 25
-2 0 -4 -13 -4 -28z m0 -117 c0 -8 -7 -15 -16 -15 -14 0 -14 3 -4 15 7 8 14
15 16 15 2 0 4 -7 4 -15z"/>
<path d="M693 3523 c-13 -2 -23 -9 -23 -15 0 -6 11 -8 26 -5 23 4 25 2 19 -24
-9 -42 18 -38 33 4 7 18 12 36 12 40 0 7 -30 7 -67 0z"/>
<path d="M600 3062 c0 -16 -16 -54 -35 -86 -39 -65 -40 -68 -22 -65 35 4 57
-2 57 -17 0 -14 -3 -14 -15 -4 -9 7 -18 11 -20 8 -10 -9 6 -37 23 -41 10 -3 2
-5 -15 -6 -34 -1 -46 -24 -20 -34 20 -8 108 36 103 50 -3 7 -1 15 4 18 6 4 10
10 10 16 0 14 -28 11 -33 -3 -4 -8 -6 -7 -6 4 -1 9 5 19 12 21 9 4 8 8 -3 16
-13 10 -13 13 3 25 26 20 21 29 -13 23 -28 -6 -29 -5 -18 18 14 30 18 31 46 5
12 -11 34 -20 49 -20 24 0 30 6 41 41 7 23 11 44 8 46 -8 9 -86 -9 -86 -19 0
-6 11 -8 25 -6 26 5 29 1 19 -26 -8 -20 -44 -21 -44 -1 0 9 -7 18 -15 21 -8 4
-15 12 -15 19 0 11 -20 25 -36 25 -2 0 -4 -13 -4 -28z m0 -117 c0 -8 -7 -15
-16 -15 -14 0 -14 3 -4 15 7 8 14 15 16 15 2 0 4 -7 4 -15z"/>
<path d="M600 2612 c0 -16 -16 -54 -35 -86 -39 -65 -40 -68 -22 -65 35 4 57
-2 57 -17 0 -14 -3 -14 -15 -4 -9 7 -18 11 -20 8 -10 -9 6 -37 23 -41 10 -3 2
-5 -15 -6 -34 -1 -46 -24 -20 -34 20 -8 108 36 103 50 -3 7 -1 15 4 18 6 4 10
10 10 16 0 14 -28 11 -33 -3 -4 -8 -6 -7 -6 4 -1 9 5 19 12 21 9 4 8 8 -3 16
-13 10 -13 13 3 25 26 20 21 29 -13 23 -28 -6 -29 -5 -18 18 12 27 23 31 33
15 9 -15 25 -12 25 5 0 9 -7 18 -15 21 -8 4 -15 12 -15 19 0 11 -20 25 -36 25
-2 0 -4 -13 -4 -28z m0 -117 c0 -8 -7 -15 -16 -15 -14 0 -14 3 -4 15 7 8 14
15 16 15 2 0 4 -7 4 -15z"/>
<path d="M693 2623 c-13 -2 -23 -9 -23 -15 0 -6 11 -8 25 -6 14 3 25 2 25 -3
0 -21 -14 -39 -31 -39 -14 0 -19 -8 -20 -30 -1 -16 -2 -36 -3 -42 -1 -8 9 -12
27 -10 25 3 27 0 22 -23 -3 -14 -7 -36 -10 -50 -3 -14 -12 -25 -20 -25 -20 0
-19 -29 1 -37 24 -9 40 19 53 90 11 63 4 83 -26 72 -8 -2 -13 4 -13 15 0 13 7
20 19 20 11 0 21 9 24 23 3 12 9 32 12 45 8 23 -4 26 -62 15z"/>
<path d="M776 2147 c-39 -80 -37 -86 21 -65 38 14 45 33 8 26 l-24 -5 19 27
c21 29 27 70 11 70 -5 0 -20 -24 -35 -53z"/>
<path d="M600 2162 c0 -16 -16 -54 -35 -86 -39 -65 -40 -68 -22 -65 35 4 57
-2 57 -17 0 -14 -3 -14 -15 -4 -9 7 -18 11 -20 8 -10 -9 6 -37 23 -41 10 -3 2
-5 -15 -6 -34 -1 -46 -24 -20 -34 20 -8 108 36 103 50 -3 7 -1 15 4 18 6 4 10
10 10 16 0 14 -28 11 -33 -3 -4 -8 -6 -7 -6 4 -1 9 5 19 12 21 9 4 8 8 -3 16
-13 10 -13 13 3 25 26 20 21 29 -13 23 -28 -6 -29 -5 -18 18 12 27 23 31 33
15 9 -15 25 -12 25 5 0 9 -7 18 -15 21 -8 4 -15 12 -15 19 0 11 -20 25 -36 25
-2 0 -4 -13 -4 -28z m0 -117 c0 -8 -7 -15 -16 -15 -14 0 -14 3 -4 15 7 8 14
15 16 15 2 0 4 -7 4 -15z"/>
<path d="M693 2173 c-13 -2 -23 -9 -23 -15 0 -6 11 -8 25 -6 14 3 25 2 25 -3
0 -21 -14 -39 -31 -39 -14 0 -19 -8 -20 -30 -1 -16 -2 -36 -3 -42 -1 -8 9 -12
27 -10 25 3 27 0 22 -23 -3 -14 -7 -36 -10 -50 -3 -14 -12 -25 -20 -25 -20 0
-19 -29 1 -37 24 -9 40 19 53 90 11 63 4 83 -26 72 -8 -2 -13 4 -13 15 0 13 7
20 19 20 11 0 21 9 24 23 3 12 9 32 12 45 8 23 -4 26 -62 15z"/>
<path d="M776 1697 c-39 -81 -36 -89 27 -62 23 9 38 11 42 5 10 -16 25 -11 25
8 0 19 -18 42 -32 42 -4 0 -8 -6 -8 -14 0 -7 -11 -16 -25 -18 l-24 -5 19 27
c21 29 27 70 11 70 -5 0 -20 -24 -35 -53z"/>
<path d="M600 1712 c0 -16 -16 -54 -35 -86 -39 -65 -40 -68 -22 -65 35 4 57
-2 57 -17 0 -14 -3 -14 -15 -4 -9 7 -18 11 -20 8 -10 -9 6 -37 23 -41 10 -3 2
-5 -15 -6 -34 -1 -46 -24 -20 -34 20 -8 108 36 103 50 -3 7 -1 15 4 18 6 4 10
10 10 16 0 14 -28 11 -33 -3 -4 -8 -6 -7 -6 4 -1 9 5 19 12 21 9 4 8 8 -3 16
-13 10 -13 13 3 25 26 20 21 29 -13 23 -28 -6 -29 -5 -18 18 12 27 23 31 33
15 9 -15 25 -12 25 5 0 9 -7 18 -15 21 -8 4 -15 12 -15 19 0 11 -20 25 -36 25
-2 0 -4 -13 -4 -28z m0 -117 c0 -8 -7 -15 -16 -15 -14 0 -14 3 -4 15 7 8 14
15 16 15 2 0 4 -7 4 -15z"/>
<path d="M693 1723 c-13 -2 -23 -9 -23 -15 0 -6 11 -8 25 -6 14 3 25 2 25 -3
0 -21 -14 -39 -31 -39 -14 0 -19 -8 -20 -30 -1 -16 -2 -36 -3 -42 -1 -8 9 -12
27 -10 25 3 27 0 22 -23 -3 -14 -7 -36 -10 -50 -3 -14 -12 -25 -20 -25 -20 0
-19 -29 1 -37 24 -9 40 19 53 90 11 63 4 83 -26 72 -8 -2 -13 4 -13 15 0 13 7
20 19 20 11 0 21 9 24 23 3 12 9 32 12 45 8 23 -4 26 -62 15z"/>
<path d="M776 1247 c-39 -81 -36 -89 27 -62 23 9 38 11 42 5 10 -16 25 -11 25
8 0 19 -18 42 -32 42 -4 0 -8 -6 -8 -14 0 -7 -11 -16 -25 -18 l-24 -5 19 27
c21 29 27 70 11 70 -5 0 -20 -24 -35 -53z"/>
<path d="M600 1262 c0 -16 -16 -54 -35 -86 -39 -65 -40 -68 -22 -65 35 4 57
-2 57 -17 0 -14 -3 -14 -15 -4 -9 7 -18 11 -20 8 -10 -9 6 -37 23 -41 10 -3 2
-5 -15 -6 -34 -1 -46 -24 -20 -34 20 -8 108 36 103 50 -3 7 -1 15 4 18 6 4 10
10 10 16 0 14 -28 11 -33 -3 -4 -8 -6 -7 -6 4 -1 9 5 19 12 21 9 4 8 8 -3 16
-13 10 -13 13 3 25 26 20 21 29 -13 23 -28 -6 -29 -5 -18 18 12 27 23 31 33
15 9 -15 25 -12 25 5 0 9 -7 18 -15 21 -8 4 -15 12 -15 19 0 11 -20 25 -36 25
-2 0 -4 -13 -4 -28z m0 -117 c0 -8 -7 -15 -16 -15 -14 0 -14 3 -4 15 7 8 14
15 16 15 2 0 4 -7 4 -15z"/>
<path d="M693 1273 c-13 -2 -23 -9 -23 -15 0 -6 11 -8 25 -6 14 3 25 2 25 -3
0 -21 -14 -39 -31 -39 -14 0 -19 -8 -20 -30 -1 -16 -2 -36 -3 -42 -1 -8 9 -12
27 -10 25 3 27 0 22 -23 -3 -14 -7 -36 -10 -50 -3 -14 -12 -25 -20 -25 -20 0
-19 -29 1 -37 23 -9 36 11 49 74 11 52 13 55 20 31 10 -38 25 -35 25 5 0 27
-5 34 -31 44 -18 7 -36 10 -40 7 -5 -3 -9 4 -9 15 0 14 6 21 19 21 11 0 21 9
24 23 3 12 9 32 12 45 8 23 -4 26 -62 15z"/>
<path d="M776 797 c-39 -81 -36 -89 27 -62 23 9 38 11 42 5 10 -16 25 -11 25
8 0 19 -18 42 -32 42 -4 0 -8 -6 -8 -14 0 -7 -11 -16 -25 -18 l-24 -5 19 27
c21 29 27 70 11 70 -5 0 -20 -24 -35 -53z"/>
<path d="M600 812 c0 -16 -16 -54 -35 -86 -39 -65 -40 -68 -22 -65 35 4 57 -2
57 -17 0 -14 -3 -14 -15 -4 -9 7 -18 11 -20 8 -10 -9 6 -37 23 -41 10 -3 2 -5
-15 -6 -34 -1 -46 -24 -20 -34 20 -8 108 36 103 50 -3 7 -1 15 4 18 6 4 10 10
10 16 0 14 -28 11 -33 -3 -4 -8 -6 -7 -6 4 -1 9 5 19 12 21 9 4 8 8 -3 16 -13
10 -13 13 3 25 26 20 21 29 -13 23 -28 -6 -29 -5 -18 18 12 27 23 31 33 15 9
-15 25 -12 25 5 0 9 -7 18 -15 21 -8 4 -15 12 -15 19 0 11 -20 25 -36 25 -2 0
-4 -13 -4 -28z m0 -117 c0 -8 -7 -15 -16 -15 -14 0 -14 3 -4 15 7 8 14 15 16
15 2 0 4 -7 4 -15z"/>
<path d="M693 823 c-13 -2 -23 -9 -23 -15 0 -6 11 -8 25 -6 14 3 25 2 25 -3 0
-21 -14 -39 -31 -39 -14 0 -19 -8 -20 -30 -1 -16 -2 -36 -3 -42 -1 -8 9 -12
27 -10 25 3 27 0 22 -23 -3 -14 -7 -36 -10 -50 -3 -14 -12 -25 -20 -25 -20 0
-19 -29 1 -37 23 -9 36 11 49 74 11 52 13 55 20 31 4 -16 11 -28 15 -28 5 0
10 12 12 28 2 19 9 28 26 30 39 6 24 21 -20 21 -72 0 -88 4 -88 23 0 11 7 18
19 18 11 0 21 9 24 23 3 12 9 32 12 45 8 23 -4 26 -62 15z"/>
<path d="M840 675 c0 -39 14 -46 30 -14 14 25 6 49 -15 49 -11 0 -15 -10 -15
-35z"/>
<path d="M776 347 c-39 -81 -36 -89 27 -62 23 9 38 11 42 5 10 -16 25 -11 25
8 0 19 -18 42 -32 42 -4 0 -8 -6 -8 -14 0 -7 -11 -16 -25 -18 l-24 -5 19 27
c21 29 27 70 11 70 -5 0 -20 -24 -35 -53z"/>
<path d="M600 362 c0 -16 -16 -54 -35 -86 -39 -65 -40 -68 -22 -65 35 4 57 -2
57 -17 0 -14 -3 -14 -15 -4 -9 7 -18 11 -20 8 -10 -9 6 -37 23 -41 10 -3 2 -5
-15 -6 -34 -1 -46 -24 -20 -34 20 -8 108 36 103 50 -3 7 -1 15 4 18 6 4 10 10
10 16 0 14 -28 11 -33 -3 -4 -8 -6 -7 -6 4 -1 9 5 19 12 21 9 4 8 8 -3 16 -13
10 -13 13 3 25 26 20 21 29 -13 23 -28 -6 -29 -5 -18 18 12 27 23 31 33 15 9
-15 25 -12 25 5 0 9 -7 18 -15 21 -8 4 -15 12 -15 19 0 11 -20 25 -36 25 -2 0
-4 -13 -4 -28z m0 -117 c0 -8 -7 -15 -16 -15 -14 0 -14 3 -4 15 7 8 14 15 16
15 2 0 4 -7 4 -15z"/>
<path d="M693 373 c-13 -2 -23 -9 -23 -15 0 -6 11 -8 25 -6 14 3 25 2 25 -3 0
-21 -14 -39 -31 -39 -14 0 -19 -8 -20 -30 -1 -16 -2 -36 -3 -42 -1 -8 9 -12
27 -10 25 3 27 0 22 -23 -3 -14 -7 -36 -10 -50 -3 -14 -12 -25 -20 -25 -20 0
-19 -29 1 -37 23 -9 36 11 49 74 11 51 13 55 20 31 7 -26 9 -27 58 -21 29 3
53 7 54 7 1 1 4 17 5 36 2 25 -1 35 -14 38 -12 2 -17 -5 -20 -25 -2 -22 -9
-29 -32 -31 -34 -4 -32 21 2 26 39 6 23 21 -20 21 -72 0 -88 4 -88 23 0 11 7
18 19 18 11 0 21 9 24 23 3 12 9 32 12 45 8 23 -4 26 -62 15z"/>
</g>
</svg>
