<?xml version="1.0" standalone="no"?>
<!DOCTYPE svg PUBLIC "-//W3C//DTD SVG 20010904//EN"
 "http://www.w3.org/TR/2001/REC-SVG-20010904/DTD/svg10.dtd">
<svg version="1.0" xmlns="http://www.w3.org/2000/svg"
 width="95.000000pt" height="725.000000pt" viewBox="0 0 95.000000 725.000000"
 preserveAspectRatio="xMidYMid meet">
<metadata>
Created by potrace 1.16, written by Peter Selinger 2001-2019
</metadata>
<g transform="translate(0.000000,725.000000) scale(0.100000,-0.100000)"
fill="#000000" stroke="none">
<path d="M156 7139 c-3 -17 -19 -51 -36 -75 -16 -25 -30 -49 -30 -55 0 -16 19
-10 32 11 15 24 28 26 28 5 0 -8 -7 -15 -15 -15 -22 0 -18 -17 6 -23 16 -4 20
-12 17 -34 -2 -23 -8 -28 -35 -31 -35 -3 -41 -13 -19 -31 10 -8 25 -6 64 11
51 23 71 45 32 35 -17 -4 -20 0 -20 24 0 22 6 32 26 39 39 15 62 12 69 -10 8
-25 25 -26 25 -1 0 22 26 31 93 31 26 0 47 5 47 10 0 12 -8 13 -70 12 -25 0
-37 2 -27 4 9 3 17 12 17 21 0 9 -6 13 -15 9 -8 -3 -15 0 -15 6 0 6 11 8 28 5
24 -5 31 -1 46 25 26 42 12 51 -68 43 -62 -7 -79 -16 -56 -30 15 -9 12 -25 -5
-25 -8 0 -15 9 -15 20 0 11 -5 20 -11 20 -6 0 -9 -12 -7 -27 2 -20 10 -29 28
-33 17 -3 26 -12 27 -27 2 -19 -2 -23 -26 -23 -16 0 -43 -3 -60 -6 -24 -5 -31
-3 -31 10 0 9 7 16 15 16 8 0 15 5 15 11 0 7 -11 9 -29 6 l-30 -6 17 29 c13
23 19 26 25 14 9 -16 37 -19 37 -3 0 10 -54 69 -63 69 -2 0 -7 -14 -11 -31z
m222 -11 c-2 -6 -10 -14 -16 -16 -7 -2 -10 2 -6 12 7 18 28 22 22 4z m-48 -7
c0 -6 -4 -13 -10 -16 -5 -3 -10 1 -10 9 0 9 5 16 10 16 6 0 10 -4 10 -9z"/>
<path d="M606 7139 c-3 -17 -19 -51 -36 -75 -32 -47 -37 -64 -20 -64 17 0 91
122 88 144 -5 32 -25 29 -32 -5z"/>
<path d="M196 6974 c-8 -21 -1 -28 19 -20 9 3 15 11 13 18 -7 19 -25 20 -32 2z"/>
<path d="M110 6955 c0 -16 27 -32 37 -21 7 7 -16 36 -28 36 -5 0 -9 -7 -9 -15z"/>
<path d="M156 6689 c-3 -17 -19 -51 -36 -75 -16 -25 -30 -49 -30 -55 0 -16 19
-10 32 11 15 24 28 26 28 5 0 -8 -7 -15 -15 -15 -22 0 -18 -17 6 -23 16 -4 20
-12 17 -34 -2 -23 -8 -28 -35 -31 -35 -3 -41 -13 -19 -31 10 -8 25 -6 64 11
51 23 71 45 32 35 -17 -4 -20 0 -20 24 0 22 6 32 26 39 39 15 62 12 69 -10 3
-11 11 -20 16 -20 5 0 9 9 9 20 0 13 7 20 20 20 13 0 18 -5 14 -15 -9 -22 14
-18 28 5 9 13 24 20 45 20 18 0 33 5 33 10 0 12 -8 13 -70 12 -25 0 -37 2 -27
4 9 3 17 12 17 21 0 9 -6 13 -15 9 -8 -3 -15 0 -15 6 0 6 11 8 28 5 24 -5 31
-1 46 25 26 42 12 51 -68 43 -62 -7 -79 -16 -56 -30 15 -9 12 -25 -5 -25 -8 0
-15 9 -15 20 0 11 -5 20 -11 20 -6 0 -9 -12 -7 -27 2 -20 10 -29 28 -33 17 -3
26 -12 27 -27 2 -19 -2 -23 -26 -23 -16 0 -43 -3 -60 -6 -24 -5 -31 -3 -31 10
0 9 7 16 15 16 8 0 15 5 15 11 0 7 -11 9 -29 6 l-30 -6 17 29 c13 23 19 26 25
14 9 -16 37 -19 37 -3 0 10 -54 69 -63 69 -2 0 -7 -14 -11 -31z m222 -11 c-2
-6 -10 -14 -16 -16 -7 -2 -10 2 -6 12 7 18 28 22 22 4z m-48 -7 c0 -6 -4 -13
-10 -16 -5 -3 -10 1 -10 9 0 9 5 16 10 16 6 0 10 -4 10 -9z"/>
<path d="M606 6689 c-3 -17 -19 -51 -36 -75 -32 -47 -37 -64 -20 -64 6 0 28
27 49 60 27 41 41 55 45 45 6 -17 36 -21 36 -4 0 10 -54 69 -63 69 -2 0 -7
-14 -11 -31z"/>
<path d="M196 6524 c-8 -21 -1 -28 19 -20 9 3 15 11 13 18 -7 19 -25 20 -32 2z"/>
<path d="M110 6505 c0 -16 27 -32 37 -21 7 7 -16 36 -28 36 -5 0 -9 -7 -9 -15z"/>
<path d="M156 6239 c-3 -17 -19 -51 -36 -75 -16 -25 -30 -49 -30 -55 0 -16 19
-10 32 11 15 24 28 26 28 5 0 -8 -7 -15 -15 -15 -22 0 -18 -17 6 -23 16 -4 20
-12 17 -34 -2 -23 -8 -28 -35 -31 -35 -3 -41 -13 -19 -31 10 -8 25 -6 64 11
51 23 71 45 31 35 -18 -5 -20 -1 -17 26 3 28 8 33 41 41 30 8 40 7 47 -5 6 -8
6 -15 0 -17 -6 -2 -10 -8 -10 -14 0 -7 20 -9 56 -5 56 6 80 16 57 24 -25 9 0
33 33 33 19 0 34 5 34 10 0 12 -8 13 -70 12 -25 0 -37 2 -27 4 9 3 17 12 17
21 0 9 -6 13 -15 9 -8 -3 -15 0 -15 6 0 6 11 8 28 5 24 -5 31 -1 46 25 26 42
12 51 -68 43 -62 -7 -79 -16 -56 -30 15 -9 12 -25 -5 -25 -8 0 -15 9 -15 20 0
11 -5 20 -11 20 -6 0 -9 -12 -7 -27 2 -20 10 -29 28 -33 17 -3 26 -12 27 -27
2 -19 -2 -23 -26 -23 -16 0 -43 -3 -60 -6 -24 -5 -31 -3 -31 10 0 9 7 16 15
16 8 0 15 5 15 11 0 7 -11 9 -29 6 l-30 -6 17 29 c13 23 19 26 25 14 9 -16 37
-19 37 -3 0 10 -54 69 -63 69 -2 0 -7 -14 -11 -31z m222 -11 c-2 -6 -10 -14
-16 -16 -7 -2 -10 2 -6 12 7 18 28 22 22 4z m-48 -7 c0 -6 -4 -13 -10 -16 -5
-3 -10 1 -10 9 0 9 5 16 10 16 6 0 10 -4 10 -9z m4 -126 c-4 -8 -12 -15 -20
-15 -8 0 -14 7 -14 15 0 8 9 15 20 15 13 0 18 -5 14 -15z"/>
<path d="M606 6239 c-3 -17 -19 -51 -36 -75 -16 -25 -30 -49 -30 -55 0 -15 18
-10 32 9 7 11 30 22 51 26 20 4 37 12 37 18 0 6 -11 8 -29 5 l-30 -6 17 29
c13 23 19 26 25 14 9 -16 37 -19 37 -3 0 10 -54 69 -63 69 -2 0 -7 -14 -11
-31z"/>
<path d="M196 6074 c-8 -21 -1 -28 19 -20 9 3 15 11 13 18 -7 19 -25 20 -32 2z"/>
<path d="M110 6055 c0 -16 27 -32 37 -21 7 7 -16 36 -28 36 -5 0 -9 -7 -9 -15z"/>
<path d="M156 5789 c-3 -17 -19 -51 -36 -75 -16 -25 -30 -49 -30 -55 0 -16 19
-10 32 11 15 24 28 26 28 5 0 -8 -7 -15 -15 -15 -22 0 -18 -17 6 -23 16 -4 20
-12 17 -34 -2 -23 -8 -28 -35 -31 -36 -4 -41 -13 -19 -31 11 -10 23 -8 53 8
29 14 51 18 81 14 28 -4 42 -2 42 6 0 10 -29 15 -83 14 -14 0 -17 7 -15 31 3
27 8 32 41 40 30 8 40 7 47 -5 6 -8 6 -15 0 -17 -6 -2 -10 -8 -10 -14 0 -7 20
-9 56 -5 56 6 80 16 57 24 -25 9 0 33 33 33 19 0 34 5 34 10 0 12 -8 13 -70
12 -25 0 -37 2 -27 4 9 3 17 12 17 21 0 9 -6 13 -15 9 -8 -3 -15 0 -15 6 0 6
11 8 28 5 24 -5 31 -1 46 25 26 42 12 51 -68 43 -62 -7 -79 -16 -56 -30 15 -9
12 -25 -5 -25 -8 0 -15 9 -15 20 0 11 -5 20 -11 20 -6 0 -9 -12 -7 -27 2 -20
10 -29 28 -33 17 -3 26 -12 27 -27 2 -19 -2 -23 -26 -23 -16 0 -43 -3 -60 -6
-24 -5 -31 -3 -31 10 0 9 7 16 15 16 8 0 15 5 15 11 0 7 -11 9 -29 6 l-30 -6
17 29 c13 23 19 26 25 14 9 -16 37 -19 37 -3 0 10 -54 69 -63 69 -2 0 -7 -14
-11 -31z m222 -11 c-2 -6 -10 -14 -16 -16 -7 -2 -10 2 -6 12 7 18 28 22 22 4z
m-48 -7 c0 -6 -4 -13 -10 -16 -5 -3 -10 1 -10 9 0 9 5 16 10 16 6 0 10 -4 10
-9z m4 -126 c-4 -8 -12 -15 -20 -15 -8 0 -14 7 -14 15 0 8 9 15 20 15 13 0 18
-5 14 -15z"/>
<path d="M606 5789 c-3 -17 -19 -51 -36 -75 -16 -25 -30 -49 -30 -55 0 -15 18
-10 32 9 7 11 30 22 51 26 20 4 37 12 37 18 0 6 -11 8 -29 5 l-30 -6 17 29
c13 23 19 26 25 14 9 -16 37 -19 37 -3 0 10 -54 69 -63 69 -2 0 -7 -14 -11
-31z"/>
<path d="M598 5663 c-31 -5 -38 -23 -9 -23 34 0 81 12 81 21 0 9 -22 10 -72 2z"/>
<path d="M196 5624 c-8 -21 -1 -28 19 -20 9 3 15 11 13 18 -7 19 -25 20 -32 2z"/>
<path d="M110 5605 c0 -16 27 -32 37 -21 7 7 -16 36 -28 36 -5 0 -9 -7 -9 -15z"/>
<path d="M328 5593 c-21 -2 -38 -9 -38 -14 0 -15 123 -7 128 9 4 12 -11 13
-90 5z"/>
<path d="M156 5339 c-3 -17 -19 -51 -36 -75 -16 -25 -30 -49 -30 -55 0 -16 19
-10 32 11 15 24 28 26 28 5 0 -8 -7 -15 -15 -15 -22 0 -18 -17 6 -23 16 -4 20
-12 17 -34 -2 -23 -8 -28 -35 -31 -36 -4 -41 -13 -19 -31 11 -10 23 -8 53 8
29 14 51 18 81 14 28 -4 42 -2 42 6 0 10 -29 15 -83 14 -14 0 -17 7 -15 31 3
27 8 32 41 40 30 8 40 7 47 -5 6 -8 6 -15 0 -17 -17 -6 -11 -22 8 -22 15 0 18
-10 20 -62 2 -34 4 -64 7 -66 11 -12 25 14 25 48 0 38 0 39 42 42 24 2 43 9
46 17 4 11 -4 13 -42 8 -36 -5 -47 -4 -44 6 3 6 14 13 26 15 21 3 32 22 12 22
-5 0 -7 7 -4 15 4 9 19 15 40 15 19 0 34 5 34 10 0 12 -8 13 -70 12 -25 0 -37
2 -27 4 9 3 17 12 17 21 0 9 -6 13 -15 9 -8 -3 -15 0 -15 6 0 6 11 8 28 5 24
-5 31 -1 46 25 26 42 12 51 -68 43 -62 -7 -79 -16 -56 -30 15 -9 12 -25 -5
-25 -8 0 -15 9 -15 20 0 11 -5 20 -11 20 -6 0 -9 -12 -7 -27 2 -20 10 -29 28
-33 17 -3 26 -12 27 -27 2 -19 -2 -23 -26 -23 -16 0 -43 -3 -60 -6 -24 -5 -31
-3 -31 10 0 9 7 16 15 16 8 0 15 5 15 11 0 7 -11 9 -29 6 l-30 -6 17 29 c13
23 19 26 25 14 9 -16 37 -19 37 -3 0 10 -54 69 -63 69 -2 0 -7 -14 -11 -31z
m222 -11 c-2 -6 -10 -14 -16 -16 -7 -2 -10 2 -6 12 7 18 28 22 22 4z m-48 -7
c0 -6 -4 -13 -10 -16 -5 -3 -10 1 -10 9 0 9 5 16 10 16 6 0 10 -4 10 -9z m4
-126 c-4 -8 -12 -15 -20 -15 -8 0 -14 7 -14 15 0 8 9 15 20 15 13 0 18 -5 14
-15z"/>
<path d="M606 5339 c-3 -17 -19 -51 -36 -75 -16 -25 -30 -49 -30 -55 0 -16 19
-10 32 11 15 24 28 26 28 5 0 -8 -7 -15 -15 -15 -22 0 -18 -17 5 -23 15 -4 20
-14 20 -36 0 -17 5 -31 10 -31 6 0 10 16 10 36 0 27 5 37 20 41 11 3 20 9 20
14 0 5 -9 9 -20 9 -11 0 -20 7 -20 15 0 8 7 15 15 15 8 0 15 5 15 11 0 7 -11
9 -29 6 l-30 -6 17 29 c13 23 19 26 25 14 9 -16 37 -19 37 -3 0 10 -54 69 -63
69 -2 0 -7 -14 -11 -31z"/>
<path d="M196 5174 c-8 -21 -1 -28 19 -20 9 3 15 11 13 18 -7 19 -25 20 -32 2z"/>
<path d="M110 5155 c0 -16 27 -32 37 -21 7 7 -16 36 -28 36 -5 0 -9 -7 -9 -15z"/>
<path d="M606 4889 c-3 -17 -19 -51 -36 -75 -16 -25 -30 -49 -30 -55 0 -16 19
-10 32 11 15 24 28 26 28 5 0 -8 -7 -15 -15 -15 -22 0 -18 -17 5 -23 15 -4 20
-14 20 -36 0 -17 5 -31 10 -31 6 0 10 16 10 36 0 27 5 37 20 41 11 3 20 9 20
14 0 5 -9 9 -20 9 -11 0 -20 7 -20 15 0 8 7 15 15 15 8 0 15 5 15 11 0 7 -11
9 -29 6 l-30 -6 17 29 c13 23 19 26 25 14 9 -16 37 -19 37 -3 0 10 -54 69 -63
69 -2 0 -7 -14 -11 -31z"/>
<path d="M560 4705 c0 -16 27 -32 37 -21 7 7 -16 36 -28 36 -5 0 -9 -7 -9 -15z"/>
<path d="M606 4439 c-3 -17 -19 -51 -36 -75 -16 -25 -30 -49 -30 -55 0 -16 19
-10 32 11 15 24 28 26 28 5 0 -8 -7 -15 -15 -15 -22 0 -18 -17 5 -23 15 -4 20
-14 20 -36 0 -17 5 -31 10 -31 6 0 10 16 10 36 0 27 5 37 20 41 11 3 20 9 20
14 0 5 -9 9 -20 9 -11 0 -20 7 -20 15 0 8 7 15 15 15 8 0 15 5 15 11 0 7 -11
9 -29 6 l-30 -6 17 29 c13 23 19 26 25 14 9 -16 37 -19 37 -3 0 10 -54 69 -63
69 -2 0 -7 -14 -11 -31z"/>
<path d="M646 4274 c-8 -21 -1 -28 19 -20 9 3 15 11 13 18 -7 19 -25 20 -32 2z"/>
<path d="M560 4255 c0 -16 27 -32 37 -21 7 7 -16 36 -28 36 -5 0 -9 -7 -9 -15z"/>
<path d="M606 3989 c-3 -17 -19 -51 -36 -75 -16 -25 -30 -49 -30 -55 0 -16 19
-10 32 11 15 24 28 26 28 5 0 -8 -7 -15 -15 -15 -22 0 -18 -17 6 -23 16 -4 20
-12 17 -34 -2 -23 -8 -28 -35 -31 -35 -3 -41 -13 -19 -31 10 -8 25 -6 64 11
51 23 71 45 32 35 -17 -4 -20 0 -20 25 0 21 6 31 20 35 11 3 20 9 20 14 0 5
-9 9 -20 9 -11 0 -20 7 -20 15 0 8 7 15 15 15 8 0 15 5 15 11 0 7 -11 9 -29 6
l-30 -6 17 29 c13 23 19 26 25 14 9 -16 37 -19 37 -3 0 10 -54 69 -63 69 -2 0
-7 -14 -11 -31z"/>
<path d="M646 3824 c-8 -21 -1 -28 19 -20 9 3 15 11 13 18 -7 19 -25 20 -32 2z"/>
<path d="M560 3805 c0 -16 27 -32 37 -21 7 7 -16 36 -28 36 -5 0 -9 -7 -9 -15z"/>
<path d="M606 3539 c-3 -17 -19 -51 -36 -75 -16 -25 -30 -49 -30 -55 0 -16 19
-10 32 11 15 24 28 26 28 5 0 -8 -7 -15 -15 -15 -22 0 -18 -17 6 -23 16 -4 20
-12 17 -34 -2 -23 -8 -28 -35 -31 -35 -3 -41 -13 -19 -31 10 -8 25 -6 64 11
51 23 71 45 32 35 -17 -4 -20 0 -20 25 0 21 6 31 20 35 11 3 20 9 20 14 0 5
-9 9 -20 9 -11 0 -20 7 -20 15 0 8 7 15 15 15 8 0 15 5 15 11 0 7 -11 9 -29 6
l-30 -6 17 29 c13 23 19 26 25 14 9 -16 37 -19 37 -3 0 10 -54 69 -63 69 -2 0
-7 -14 -11 -31z"/>
<path d="M690 3516 c0 -14 5 -28 11 -31 15 -10 18 -4 12 28 -7 34 -23 36 -23
3z"/>
<path d="M646 3374 c-8 -21 -1 -28 19 -20 9 3 15 11 13 18 -7 19 -25 20 -32 2z"/>
<path d="M560 3355 c0 -16 27 -32 37 -21 7 7 -16 36 -28 36 -5 0 -9 -7 -9 -15z"/>
<path d="M606 3089 c-3 -17 -19 -51 -36 -75 -16 -25 -30 -49 -30 -55 0 -16 19
-10 32 11 15 24 28 26 28 5 0 -8 -7 -15 -15 -15 -22 0 -18 -17 6 -23 16 -4 20
-12 17 -34 -2 -23 -8 -28 -35 -31 -35 -3 -41 -13 -19 -31 10 -8 25 -6 64 11
51 23 71 45 32 35 -17 -4 -20 0 -20 25 0 21 6 31 20 35 11 3 20 9 20 14 0 5
-9 9 -20 9 -11 0 -20 7 -20 15 0 8 7 15 15 15 8 0 15 5 15 11 0 7 -11 9 -29 6
l-30 -6 17 29 c13 23 19 26 25 14 9 -16 37 -19 37 -3 0 10 -54 69 -63 69 -2 0
-7 -14 -11 -31z"/>
<path d="M790 3100 c0 -5 9 -10 20 -10 16 0 19 -5 14 -30 -4 -16 -2 -30 3 -30
13 0 45 58 38 70 -8 13 -75 13 -75 0z"/>
<path d="M720 3090 c0 -5 14 -10 30 -10 17 0 30 5 30 10 0 6 -13 10 -30 10
-16 0 -30 -4 -30 -10z"/>
<path d="M690 3066 c0 -14 5 -28 11 -31 15 -10 18 -4 12 28 -7 34 -23 36 -23
3z"/>
<path d="M646 2924 c-8 -21 -1 -28 19 -20 9 3 15 11 13 18 -7 19 -25 20 -32 2z"/>
<path d="M560 2905 c0 -16 27 -32 37 -21 7 7 -16 36 -28 36 -5 0 -9 -7 -9 -15z"/>
<path d="M606 2639 c-3 -17 -19 -51 -36 -75 -16 -25 -30 -49 -30 -55 0 -16 19
-10 32 11 15 24 28 26 28 5 0 -8 -7 -15 -15 -15 -22 0 -18 -17 6 -23 16 -4 20
-12 17 -34 -2 -23 -8 -28 -35 -31 -35 -3 -41 -13 -19 -31 10 -8 25 -6 64 11
51 23 71 45 32 35 -17 -4 -20 0 -20 25 0 21 6 31 20 35 11 3 20 9 20 14 0 5
-9 9 -20 9 -11 0 -20 7 -20 15 0 8 7 15 15 15 8 0 15 5 15 11 0 7 -11 9 -29 6
l-30 -6 17 29 c13 23 19 26 25 14 9 -16 37 -19 37 -3 0 10 -54 69 -63 69 -2 0
-7 -14 -11 -31z"/>
<path d="M790 2650 c0 -5 9 -10 20 -10 16 0 19 -5 14 -30 -4 -16 -2 -30 3 -30
13 0 45 58 38 70 -8 13 -75 13 -75 0z"/>
<path d="M724 2638 c3 -7 9 -21 12 -30 9 -24 24 -23 24 2 0 11 5 20 10 20 6 0
10 5 10 10 0 6 -14 10 -31 10 -21 0 -29 -4 -25 -12z"/>
<path d="M690 2616 c0 -14 5 -28 11 -31 15 -10 18 -4 12 28 -7 34 -23 36 -23
3z"/>
<path d="M646 2474 c-8 -21 -1 -28 19 -20 9 3 15 11 13 18 -7 19 -25 20 -32 2z"/>
<path d="M560 2455 c0 -16 27 -32 37 -21 7 7 -16 36 -28 36 -5 0 -9 -7 -9 -15z"/>
<path d="M606 2189 c-3 -17 -19 -51 -36 -75 -16 -25 -30 -49 -30 -55 0 -16 19
-10 32 11 15 24 28 26 28 5 0 -8 -7 -15 -15 -15 -22 0 -18 -17 6 -23 16 -4 20
-12 17 -34 -2 -23 -8 -28 -35 -31 -35 -3 -41 -13 -19 -31 10 -8 25 -6 64 11
51 23 71 45 32 35 -17 -4 -20 0 -20 25 0 21 6 31 20 35 11 3 20 9 20 14 0 5
-9 9 -20 9 -11 0 -20 7 -20 15 0 8 7 15 15 15 8 0 15 5 15 11 0 7 -11 9 -29 6
l-30 -6 17 29 c13 23 19 26 25 14 9 -16 37 -19 37 -3 0 10 -54 69 -63 69 -2 0
-7 -14 -11 -31z"/>
<path d="M757 2203 c-25 -3 -36 -8 -33 -16 3 -7 9 -20 12 -29 9 -24 24 -23 24
2 0 22 15 27 24 8 3 -10 9 -8 19 5 21 25 27 21 21 -13 -8 -39 7 -38 29 0 29
49 17 54 -96 43z"/>
<path d="M690 2166 c0 -14 5 -28 11 -31 15 -10 18 -4 12 28 -7 34 -23 36 -23
3z"/>
<path d="M646 2024 c-8 -21 -1 -28 19 -20 9 3 15 11 13 18 -7 19 -25 20 -32 2z"/>
<path d="M560 2005 c0 -16 27 -32 37 -21 7 7 -16 36 -28 36 -5 0 -9 -7 -9 -15z"/>
<path d="M606 1739 c-3 -17 -19 -51 -36 -75 -16 -25 -30 -49 -30 -55 0 -16 19
-10 32 11 15 24 28 26 28 5 0 -8 -7 -15 -15 -15 -22 0 -18 -17 6 -23 16 -4 20
-12 17 -34 -2 -23 -8 -28 -35 -31 -35 -3 -41 -13 -19 -31 10 -8 25 -6 64 11
51 23 71 45 32 35 -17 -4 -20 0 -20 25 0 21 6 31 20 35 11 3 20 9 20 14 0 5
-9 9 -20 9 -11 0 -20 7 -20 15 0 8 7 15 15 15 8 0 15 5 15 11 0 7 -11 9 -29 6
l-30 -6 17 29 c13 23 19 26 25 14 9 -16 37 -19 37 -3 0 10 -54 69 -63 69 -2 0
-7 -14 -11 -31z"/>
<path d="M758 1753 c-37 -4 -48 -15 -28 -28 15 -9 12 -25 -5 -25 -8 0 -15 9
-15 20 0 11 -5 20 -11 20 -6 0 -9 -12 -7 -27 3 -28 4 -28 75 -28 68 0 73 2 88
28 27 46 13 51 -97 40z m70 -25 c-2 -6 -10 -14 -16 -16 -7 -2 -10 2 -6 12 7
18 28 22 22 4z m-48 -7 c0 -6 -4 -13 -10 -16 -5 -3 -10 1 -10 9 0 9 5 16 10
16 6 0 10 -4 10 -9z"/>
<path d="M646 1574 c-8 -21 -1 -28 19 -20 9 3 15 11 13 18 -7 19 -25 20 -32 2z"/>
<path d="M560 1555 c0 -16 27 -32 37 -21 7 7 -16 36 -28 36 -5 0 -9 -7 -9 -15z"/>
<path d="M606 1289 c-3 -17 -19 -51 -36 -75 -16 -25 -30 -49 -30 -55 0 -16 19
-10 32 11 15 24 28 26 28 5 0 -8 -7 -15 -15 -15 -22 0 -18 -17 6 -23 16 -4 20
-12 17 -34 -2 -23 -8 -28 -35 -31 -35 -3 -41 -13 -19 -31 10 -8 25 -6 64 11
51 23 71 45 32 35 -17 -4 -20 0 -20 25 0 21 6 31 20 35 11 3 20 9 20 14 0 5
-9 9 -20 9 -11 0 -20 7 -20 15 0 8 7 15 15 15 8 0 15 5 15 11 0 7 -11 9 -29 6
l-30 -6 17 29 c13 23 19 26 25 14 9 -16 37 -19 37 -3 0 10 -54 69 -63 69 -2 0
-7 -14 -11 -31z"/>
<path d="M758 1303 c-37 -4 -48 -15 -28 -28 15 -9 12 -25 -5 -25 -8 0 -15 9
-15 20 0 11 -5 20 -11 20 -6 0 -9 -12 -7 -27 3 -28 4 -28 75 -28 68 0 73 2 88
28 27 46 13 51 -97 40z m70 -25 c-2 -6 -10 -14 -16 -16 -7 -2 -10 2 -6 12 7
18 28 22 22 4z m-48 -7 c0 -6 -4 -13 -10 -16 -5 -3 -10 1 -10 9 0 9 5 16 10
16 6 0 10 -4 10 -9z"/>
<path d="M768 1223 c-40 -6 -34 -23 7 -23 24 0 35 5 35 15 0 8 -3 14 -7 14 -5
-1 -20 -4 -35 -6z"/>
<path d="M646 1124 c-8 -21 -1 -28 19 -20 9 3 15 11 13 18 -7 19 -25 20 -32 2z"/>
<path d="M560 1105 c0 -16 27 -32 37 -21 7 7 -16 36 -28 36 -5 0 -9 -7 -9 -15z"/>
<path d="M606 839 c-3 -17 -19 -51 -36 -75 -16 -25 -30 -49 -30 -55 0 -16 19
-10 32 11 15 24 28 26 28 5 0 -8 -7 -15 -15 -15 -22 0 -18 -17 6 -23 16 -4 20
-12 17 -34 -2 -23 -8 -28 -35 -31 -35 -3 -41 -13 -19 -31 10 -8 25 -6 64 11
51 23 71 45 32 35 -17 -4 -20 0 -20 25 0 21 6 31 20 35 11 3 20 9 20 14 0 5
-9 9 -20 9 -11 0 -20 7 -20 15 0 8 7 15 15 15 8 0 15 5 15 11 0 7 -11 9 -29 6
l-30 -6 17 29 c13 23 19 26 25 14 9 -16 37 -19 37 -3 0 10 -54 69 -63 69 -2 0
-7 -14 -11 -31z"/>
<path d="M758 853 c-37 -4 -48 -15 -28 -28 15 -9 12 -25 -5 -25 -8 0 -15 9
-15 20 0 11 -5 20 -11 20 -6 0 -9 -12 -7 -27 2 -22 9 -29 30 -31 17 -2 25 -8
22 -16 -3 -7 3 -19 12 -27 13 -11 18 -11 21 -1 3 6 11 12 19 12 8 0 14 7 14
16 0 10 -6 14 -15 10 -8 -3 -15 0 -15 6 0 6 11 8 28 5 24 -5 31 -1 46 24 28
48 15 53 -96 42z m70 -25 c-2 -6 -10 -14 -16 -16 -7 -2 -10 2 -6 12 7 18 28
22 22 4z m-48 -7 c0 -6 -4 -13 -10 -16 -5 -3 -10 1 -10 9 0 9 5 16 10 16 6 0
10 -4 10 -9z"/>
<path d="M646 674 c-8 -21 -1 -28 19 -20 9 3 15 11 13 18 -7 19 -25 20 -32 2z"/>
<path d="M560 655 c0 -16 27 -32 37 -21 7 7 -16 36 -28 36 -5 0 -9 -7 -9 -15z"/>
<path d="M606 389 c-3 -17 -19 -51 -36 -75 -16 -25 -30 -49 -30 -55 0 -16 19
-10 32 11 15 24 28 26 28 5 0 -8 -7 -15 -15 -15 -22 0 -18 -17 6 -23 16 -4 20
-12 17 -34 -2 -23 -8 -28 -35 -31 -35 -3 -41 -13 -19 -31 10 -8 25 -6 64 11
51 23 71 45 32 35 -17 -4 -20 0 -20 24 0 39 18 45 153 54 59 4 107 11 107 16
0 11 -9 12 -70 11 -25 0 -37 2 -27 4 9 3 17 12 17 21 0 9 -6 13 -15 9 -8 -3
-15 0 -15 6 0 6 11 8 28 5 24 -5 31 -1 46 25 26 42 12 51 -68 43 -62 -7 -79
-16 -56 -30 15 -9 12 -25 -5 -25 -8 0 -15 9 -15 20 0 11 -5 20 -11 20 -6 0 -9
-12 -7 -27 2 -20 10 -29 28 -33 17 -3 26 -12 27 -27 2 -19 -2 -23 -26 -23 -16
0 -43 -3 -60 -6 -24 -5 -31 -3 -31 10 0 9 7 16 15 16 8 0 15 5 15 11 0 7 -11
9 -29 6 l-30 -6 17 29 c13 23 19 26 25 14 9 -16 37 -19 37 -3 0 10 -54 69 -63
69 -2 0 -7 -14 -11 -31z m222 -11 c-2 -6 -10 -14 -16 -16 -7 -2 -10 2 -6 12 7
18 28 22 22 4z m-48 -7 c0 -6 -4 -13 -10 -16 -5 -3 -10 1 -10 9 0 9 5 16 10
16 6 0 10 -4 10 -9z"/>
<path d="M646 224 c-8 -21 -1 -28 19 -20 9 3 15 11 13 18 -7 19 -25 20 -32 2z"/>
<path d="M560 205 c0 -16 27 -32 37 -21 7 7 -16 36 -28 36 -5 0 -9 -7 -9 -15z"/>
</g>
</svg>
