<?xml version="1.0" standalone="no"?>
<!DOCTYPE svg PUBLIC "-//W3C//DTD SVG 20010904//EN"
 "http://www.w3.org/TR/2001/REC-SVG-20010904/DTD/svg10.dtd">
<svg version="1.0" xmlns="http://www.w3.org/2000/svg"
 width="95.000000pt" height="725.000000pt" viewBox="0 0 95.000000 725.000000"
 preserveAspectRatio="xMidYMid meet">
<metadata>
Created by potrace 1.16, written by Peter Selinger 2001-2019
</metadata>
<g transform="translate(0.000000,725.000000) scale(0.100000,-0.100000)"
fill="#000000" stroke="none">
<path d="M305 7158 c-61 -13 -61 -13 -41 -33 23 -23 21 -66 -4 -72 -42 -11
-19 -25 30 -18 42 6 50 4 50 -9 0 -23 17 -20 23 4 3 12 14 20 26 20 12 0 21 5
21 10 0 6 -10 10 -23 10 -21 0 -23 4 -19 33 3 17 9 35 15 38 12 8 0 29 -16 28
-7 -1 -34 -6 -62 -11z m25 -28 c-8 -5 -19 -10 -25 -10 -5 0 -3 5 5 10 8 5 20
10 25 10 6 0 3 -5 -5 -10z m3 -37 c-7 -2 -19 -2 -25 0 -7 3 -2 5 12 5 14 0 19
-2 13 -5z m0 -30 c-7 -2 -19 -2 -25 0 -7 3 -2 5 12 5 14 0 19 -2 13 -5z"/>
<path d="M157 7143 c-2 -5 -7 -20 -11 -34 -3 -15 -22 -50 -41 -79 -40 -60 -39
-77 3 -37 32 30 42 33 42 13 0 -8 -9 -18 -20 -21 -11 -3 -20 -11 -20 -17 0 -6
9 -8 20 -5 17 4 20 0 19 -31 -1 -24 -3 -29 -6 -14 -2 12 -11 22 -20 22 -11 0
-14 -6 -9 -25 5 -20 3 -25 -14 -25 -24 0 -27 -18 -4 -27 22 -8 116 37 110 54
-3 7 -1 15 4 18 6 4 10 10 10 16 0 14 -27 11 -34 -3 -3 -7 -5 -5 -3 6 1 10 12
22 25 27 21 8 22 6 22 -36 0 -57 18 -59 22 -2 5 65 23 40 23 -32 0 -40 4 -66
12 -68 8 -3 13 21 15 79 2 46 1 86 -2 90 -3 3 -29 2 -59 -3 -57 -11 -76 -5
-48 15 26 20 21 29 -13 23 -28 -6 -29 -5 -18 18 12 27 23 31 33 15 11 -17 25
-11 25 10 0 11 -7 23 -15 26 -8 4 -15 12 -15 20 0 15 -26 20 -33 7z"/>
<path d="M607 7143 c-2 -5 -7 -20 -11 -34 -3 -15 -22 -50 -41 -79 -39 -58 -39
-76 1 -39 54 50 102 159 71 159 -9 0 -18 -3 -20 -7z"/>
<path d="M305 6708 c-61 -13 -61 -13 -41 -33 23 -23 21 -66 -4 -72 -42 -11
-19 -25 30 -18 42 6 50 4 50 -9 0 -23 17 -20 23 4 3 12 14 20 26 20 12 0 21 5
21 10 0 6 -10 10 -23 10 -21 0 -23 4 -19 33 3 17 9 35 15 38 12 8 0 29 -16 28
-7 -1 -34 -6 -62 -11z m25 -28 c-8 -5 -19 -10 -25 -10 -5 0 -3 5 5 10 8 5 20
10 25 10 6 0 3 -5 -5 -10z m3 -37 c-7 -2 -19 -2 -25 0 -7 3 -2 5 12 5 14 0 19
-2 13 -5z m0 -30 c-7 -2 -19 -2 -25 0 -7 3 -2 5 12 5 14 0 19 -2 13 -5z"/>
<path d="M157 6693 c-2 -5 -7 -20 -11 -34 -3 -15 -22 -50 -41 -79 -40 -60 -39
-77 3 -37 32 30 42 33 42 13 0 -8 -9 -18 -20 -21 -11 -3 -20 -11 -20 -17 0 -6
9 -8 20 -5 17 4 20 0 19 -31 -1 -24 -3 -29 -6 -14 -2 12 -11 22 -20 22 -11 0
-14 -6 -9 -25 5 -20 3 -25 -14 -25 -24 0 -27 -18 -4 -27 22 -8 116 37 110 54
-3 7 -1 15 4 18 6 4 10 10 10 16 0 14 -27 11 -34 -3 -3 -7 -5 -5 -3 6 1 10 12
22 25 27 21 8 22 6 22 -36 0 -49 17 -62 22 -18 2 14 9 28 17 31 10 3 12 -8 10
-53 -3 -38 0 -60 8 -62 8 -3 13 21 15 79 2 46 1 86 -2 90 -3 3 -29 2 -59 -3
-57 -11 -76 -5 -48 15 26 20 21 29 -13 23 -28 -6 -29 -5 -18 18 12 27 23 31
33 15 11 -17 25 -11 25 10 0 11 -7 23 -15 26 -8 4 -15 12 -15 20 0 15 -26 20
-33 7z"/>
<path d="M607 6693 c-2 -5 -7 -20 -11 -34 -3 -15 -22 -50 -41 -79 -20 -29 -33
-55 -30 -58 8 -9 61 46 81 84 19 35 28 41 39 24 11 -17 25 -11 25 10 0 11 -7
23 -15 26 -8 4 -15 12 -15 20 0 15 -26 20 -33 7z"/>
<path d="M305 6258 c-61 -13 -61 -13 -41 -33 23 -23 21 -66 -4 -72 -42 -11
-19 -25 30 -18 42 6 50 4 50 -9 0 -23 17 -20 23 4 3 12 14 20 26 20 12 0 21 5
21 10 0 6 -10 10 -23 10 -21 0 -23 4 -19 33 3 17 9 35 15 38 12 8 0 29 -16 28
-7 -1 -34 -6 -62 -11z m25 -28 c-8 -5 -19 -10 -25 -10 -5 0 -3 5 5 10 8 5 20
10 25 10 6 0 3 -5 -5 -10z m3 -37 c-7 -2 -19 -2 -25 0 -7 3 -2 5 12 5 14 0 19
-2 13 -5z m0 -30 c-7 -2 -19 -2 -25 0 -7 3 -2 5 12 5 14 0 19 -2 13 -5z"/>
<path d="M157 6243 c-2 -5 -7 -20 -11 -34 -3 -15 -22 -50 -41 -79 -40 -60 -39
-77 3 -37 32 30 42 33 42 13 0 -8 -9 -18 -20 -21 -11 -3 -20 -11 -20 -17 0 -6
9 -8 20 -5 17 4 20 0 19 -31 -1 -24 -3 -29 -6 -14 -2 12 -11 22 -20 22 -11 0
-14 -6 -9 -25 5 -20 3 -25 -14 -25 -24 0 -27 -18 -4 -27 22 -8 116 37 110 54
-3 7 -1 15 4 18 6 4 10 10 10 16 0 14 -27 11 -34 -3 -3 -7 -5 -5 -3 6 1 10 12
22 25 27 21 8 22 6 22 -36 0 -25 5 -45 10 -45 6 0 10 7 10 15 0 8 7 15 16 15
12 0 15 -9 12 -41 -2 -26 2 -44 9 -46 8 -3 12 21 15 79 2 46 1 86 -2 90 -3 3
-29 2 -59 -3 -57 -11 -76 -5 -48 15 26 20 21 29 -13 23 -28 -6 -29 -5 -18 18
12 27 23 31 33 15 11 -17 25 -11 25 10 0 11 -7 23 -15 26 -8 4 -15 12 -15 20
0 15 -26 20 -33 7z"/>
<path d="M607 6243 c-2 -5 -7 -20 -11 -34 -3 -15 -22 -50 -41 -79 -40 -60 -39
-77 3 -37 16 15 38 27 49 27 29 0 53 10 53 22 0 6 -12 8 -30 5 -28 -6 -29 -5
-18 18 12 27 23 31 33 15 11 -17 25 -11 25 10 0 11 -7 23 -15 26 -8 4 -15 12
-15 20 0 15 -26 20 -33 7z"/>
<path d="M305 5808 c-61 -13 -61 -13 -41 -33 23 -23 21 -66 -4 -72 -42 -11
-19 -25 30 -18 42 6 50 4 50 -9 0 -23 17 -20 23 4 3 12 14 20 26 20 12 0 21 5
21 10 0 6 -10 10 -23 10 -21 0 -23 4 -19 33 3 17 9 35 15 38 12 8 0 29 -16 28
-7 -1 -34 -6 -62 -11z m25 -28 c-8 -5 -19 -10 -25 -10 -5 0 -3 5 5 10 8 5 20
10 25 10 6 0 3 -5 -5 -10z m3 -37 c-7 -2 -19 -2 -25 0 -7 3 -2 5 12 5 14 0 19
-2 13 -5z m0 -30 c-7 -2 -19 -2 -25 0 -7 3 -2 5 12 5 14 0 19 -2 13 -5z"/>
<path d="M157 5793 c-2 -5 -7 -20 -11 -34 -3 -15 -22 -50 -41 -79 -40 -60 -39
-77 3 -37 32 30 42 33 42 13 0 -8 -9 -18 -20 -21 -11 -3 -20 -11 -20 -17 0 -6
9 -8 20 -5 17 4 20 0 19 -31 -1 -24 -3 -29 -6 -14 -2 12 -11 22 -20 22 -11 0
-14 -6 -9 -25 5 -20 3 -25 -14 -25 -24 0 -27 -18 -4 -27 22 -8 116 37 110 54
-3 7 -1 15 4 18 6 4 10 10 10 16 0 14 -27 11 -34 -3 -3 -7 -5 -5 -3 6 1 10 12
22 25 27 20 8 22 6 22 -29 0 -21 -5 -43 -12 -50 -18 -18 0 -27 32 -15 27 10
28 9 27 -15 -1 -13 3 -27 10 -29 8 -3 12 21 15 79 2 46 1 86 -2 90 -3 3 -29 2
-59 -3 -57 -11 -76 -5 -48 15 26 20 21 29 -13 23 -28 -6 -29 -5 -18 18 12 27
23 31 33 15 11 -17 25 -11 25 10 0 11 -7 23 -15 26 -8 4 -15 12 -15 20 0 15
-26 20 -33 7z m118 -223 c-3 -5 -10 -10 -16 -10 -5 0 -9 5 -9 10 0 6 7 10 16
10 8 0 12 -4 9 -10z"/>
<path d="M607 5793 c-2 -5 -7 -20 -11 -34 -3 -15 -22 -50 -41 -79 -40 -60 -39
-77 3 -37 16 15 38 27 49 27 29 0 53 10 53 22 0 6 -12 8 -30 5 -28 -6 -29 -5
-18 18 12 27 23 31 33 15 11 -17 25 -11 25 10 0 11 -7 23 -15 26 -8 4 -15 12
-15 20 0 15 -26 20 -33 7z"/>
<path d="M593 5639 c-18 -5 -33 -14 -33 -19 0 -12 -2 -12 60 1 27 6 50 15 50
20 0 11 -34 10 -77 -2z"/>
<path d="M305 5358 c-61 -13 -61 -13 -41 -33 23 -23 21 -66 -4 -72 -11 -3 -20
-10 -20 -15 0 -6 20 -7 51 -3 l52 7 -7 -27 c-6 -25 -5 -27 16 -21 13 3 35 6
51 6 15 0 27 5 27 10 0 6 -16 10 -36 10 -39 0 -44 23 -6 28 29 4 28 22 -1 22
-21 0 -23 4 -19 33 3 17 9 35 15 38 12 8 0 29 -16 28 -7 -1 -34 -6 -62 -11z
m25 -28 c-8 -5 -19 -10 -25 -10 -5 0 -3 5 5 10 8 5 20 10 25 10 6 0 3 -5 -5
-10z m3 -37 c-7 -2 -19 -2 -25 0 -7 3 -2 5 12 5 14 0 19 -2 13 -5z m0 -30 c-7
-2 -19 -2 -25 0 -7 3 -2 5 12 5 14 0 19 -2 13 -5z"/>
<path d="M157 5343 c-2 -5 -7 -20 -11 -34 -3 -15 -22 -50 -41 -79 -40 -60 -39
-77 3 -37 32 30 42 33 42 13 0 -8 -9 -18 -20 -21 -11 -3 -20 -11 -20 -17 0 -6
9 -8 20 -5 17 4 20 0 19 -31 -1 -24 -3 -29 -6 -14 -2 12 -11 22 -20 22 -11 0
-14 -6 -9 -25 5 -20 3 -25 -14 -25 -24 0 -27 -18 -4 -27 22 -8 116 37 110 54
-3 7 -1 15 4 18 6 4 10 10 10 16 0 14 -27 11 -34 -3 -3 -7 -5 -5 -3 6 1 10 12
22 25 27 20 8 22 6 22 -29 0 -21 -5 -43 -12 -50 -18 -18 0 -27 32 -15 27 10
28 9 27 -15 -1 -13 3 -27 10 -29 8 -3 12 21 15 79 2 46 1 86 -2 90 -3 3 -29 2
-59 -3 -57 -11 -76 -5 -48 15 26 20 21 29 -13 23 -28 -6 -29 -5 -18 18 12 27
23 31 33 15 11 -17 25 -11 25 10 0 11 -7 23 -15 26 -8 4 -15 12 -15 20 0 15
-26 20 -33 7z m118 -223 c-3 -5 -10 -10 -16 -10 -5 0 -9 5 -9 10 0 6 7 10 16
10 8 0 12 -4 9 -10z"/>
<path d="M607 5343 c-2 -5 -7 -20 -11 -34 -3 -15 -22 -50 -41 -79 -40 -60 -39
-77 3 -37 32 30 42 33 42 13 0 -8 -9 -18 -20 -21 -11 -3 -20 -11 -20 -17 0 -6
9 -8 20 -5 17 4 20 0 20 -34 0 -52 18 -50 26 2 5 29 13 43 25 46 25 7 24 23
-1 23 -23 0 -27 18 -5 26 27 11 16 27 -15 21 -28 -6 -29 -5 -18 18 12 27 23
31 33 15 11 -17 25 -11 25 10 0 11 -7 23 -15 26 -8 4 -15 12 -15 20 0 15 -26
20 -33 7z"/>
<path d="M305 4908 c-61 -13 -61 -13 -41 -33 23 -23 21 -66 -4 -72 -42 -11
-19 -25 30 -18 41 6 50 4 50 -8 0 -9 -4 -17 -8 -19 -11 -4 -2 -108 9 -108 5 0
9 12 9 28 0 57 10 72 46 72 19 0 34 5 34 10 0 6 -16 10 -36 10 -39 0 -44 23
-6 28 29 4 28 22 -1 22 -21 0 -23 4 -19 33 3 17 9 35 15 38 12 8 0 29 -16 28
-7 -1 -34 -6 -62 -11z m25 -28 c-8 -5 -19 -10 -25 -10 -5 0 -3 5 5 10 8 5 20
10 25 10 6 0 3 -5 -5 -10z m3 -37 c-7 -2 -19 -2 -25 0 -7 3 -2 5 12 5 14 0 19
-2 13 -5z m0 -30 c-7 -2 -19 -2 -25 0 -7 3 -2 5 12 5 14 0 19 -2 13 -5z"/>
<path d="M157 4893 c-2 -5 -7 -20 -11 -34 -3 -15 -22 -50 -41 -79 -40 -60 -39
-77 3 -37 32 30 42 33 42 13 0 -8 -9 -18 -20 -21 -11 -3 -20 -11 -20 -17 0 -6
9 -8 20 -5 17 4 20 0 19 -31 -1 -24 -3 -29 -6 -14 -2 12 -11 22 -20 22 -11 0
-14 -6 -9 -25 5 -20 3 -25 -14 -25 -24 0 -27 -18 -4 -27 22 -8 116 37 110 54
-3 7 -1 15 4 18 6 4 10 10 10 16 0 14 -27 11 -34 -3 -3 -7 -5 -5 -3 6 1 10 12
22 25 27 20 8 22 6 22 -29 0 -21 -5 -43 -12 -50 -18 -18 0 -27 32 -15 27 10
28 9 27 -15 -1 -13 3 -27 10 -29 8 -3 12 21 15 79 2 46 1 86 -2 90 -3 3 -29 2
-59 -3 -57 -11 -76 -5 -48 15 26 20 21 29 -13 23 -28 -6 -29 -5 -18 18 12 27
23 31 33 15 11 -17 25 -11 25 10 0 11 -7 23 -15 26 -8 4 -15 12 -15 20 0 15
-26 20 -33 7z m118 -223 c-3 -5 -10 -10 -16 -10 -5 0 -9 5 -9 10 0 6 7 10 16
10 8 0 12 -4 9 -10z"/>
<path d="M607 4893 c-2 -5 -7 -20 -11 -34 -3 -15 -22 -50 -41 -79 -40 -60 -39
-77 3 -37 32 30 42 33 42 13 0 -8 -9 -18 -20 -21 -11 -3 -20 -11 -20 -17 0 -6
9 -8 20 -5 17 4 20 0 20 -34 0 -52 18 -50 26 2 5 29 13 43 25 46 25 7 24 23
-1 23 -23 0 -27 18 -5 26 27 11 16 27 -15 21 -28 -6 -29 -5 -18 18 12 27 23
31 33 15 11 -17 25 -11 25 10 0 11 -7 23 -15 26 -8 4 -15 12 -15 20 0 15 -26
20 -33 7z"/>
<path d="M562 4673 c5 -25 28 -28 28 -4 0 12 -6 21 -16 21 -9 0 -14 -7 -12
-17z"/>
<path d="M305 4458 c-61 -13 -61 -13 -41 -33 23 -23 21 -66 -4 -72 -42 -11
-19 -25 30 -18 41 6 50 4 50 -8 0 -9 -4 -17 -8 -19 -10 -4 -3 -108 8 -108 4 0
10 20 13 45 10 97 41 61 32 -37 -5 -56 -4 -68 9 -68 11 0 15 17 18 73 2 39 8
80 12 90 7 14 3 17 -29 17 -40 0 -46 22 -7 28 29 4 28 22 -1 22 -21 0 -23 4
-19 33 3 17 9 35 15 38 12 8 0 29 -16 28 -7 -1 -34 -6 -62 -11z m25 -28 c-8
-5 -19 -10 -25 -10 -5 0 -3 5 5 10 8 5 20 10 25 10 6 0 3 -5 -5 -10z m3 -37
c-7 -2 -19 -2 -25 0 -7 3 -2 5 12 5 14 0 19 -2 13 -5z m0 -30 c-7 -2 -19 -2
-25 0 -7 3 -2 5 12 5 14 0 19 -2 13 -5z"/>
<path d="M157 4443 c-2 -5 -7 -20 -11 -34 -3 -15 -22 -50 -41 -79 -40 -60 -39
-77 3 -37 32 30 42 33 42 13 0 -8 -9 -18 -20 -21 -11 -3 -20 -11 -20 -17 0 -6
9 -8 20 -5 17 4 20 0 19 -31 -1 -24 -3 -29 -6 -14 -2 12 -11 22 -20 22 -11 0
-14 -6 -9 -25 5 -20 3 -25 -14 -25 -24 0 -27 -18 -4 -27 22 -8 116 37 110 54
-3 7 -1 15 4 18 6 4 10 10 10 16 0 14 -27 11 -34 -3 -3 -7 -5 -5 -3 6 1 10 12
22 25 27 20 8 22 6 22 -29 0 -21 -5 -43 -12 -50 -18 -18 0 -27 32 -15 27 10
28 9 27 -15 -1 -13 3 -27 10 -29 8 -3 12 21 15 79 2 46 1 86 -2 90 -3 3 -29 2
-59 -3 -57 -11 -76 -5 -48 15 26 20 21 29 -13 23 -28 -6 -29 -5 -18 18 12 27
23 31 33 15 11 -17 25 -11 25 10 0 11 -7 23 -15 26 -8 4 -15 12 -15 20 0 15
-26 20 -33 7z m118 -223 c-3 -5 -10 -10 -16 -10 -5 0 -9 5 -9 10 0 6 7 10 16
10 8 0 12 -4 9 -10z"/>
<path d="M607 4443 c-2 -5 -7 -20 -11 -34 -3 -15 -22 -50 -41 -79 -40 -60 -39
-77 3 -37 32 30 42 33 42 13 0 -8 -9 -18 -20 -21 -11 -3 -20 -11 -20 -17 0 -6
9 -8 20 -5 17 4 20 0 20 -34 0 -21 5 -39 10 -39 6 0 10 6 10 13 0 7 10 17 22
22 26 12 36 35 15 35 -9 0 -18 -6 -20 -12 -3 -8 -6 -5 -6 5 -1 11 8 21 19 24
11 3 20 9 20 14 0 5 -9 9 -20 9 -23 0 -27 18 -5 26 27 11 16 27 -15 21 -28 -6
-29 -5 -18 18 12 27 23 31 33 15 11 -17 25 -11 25 10 0 11 -7 23 -15 26 -8 4
-15 12 -15 20 0 15 -26 20 -33 7z"/>
<path d="M562 4223 c5 -25 28 -28 28 -4 0 12 -6 21 -16 21 -9 0 -14 -7 -12
-17z"/>
<path d="M305 4008 c-61 -13 -61 -13 -41 -33 23 -23 21 -66 -4 -72 -42 -11
-19 -25 30 -18 41 6 50 4 50 -8 0 -9 -4 -17 -8 -19 -11 -4 -2 -108 9 -108 5 0
9 14 9 30 0 24 4 30 21 30 20 0 21 -4 14 -60 -6 -50 -4 -60 8 -60 12 0 16 16
19 73 2 39 8 80 12 90 7 14 3 17 -29 17 -40 0 -46 22 -7 28 29 4 28 22 -1 22
-21 0 -23 4 -19 33 3 17 9 35 15 38 12 8 0 29 -16 28 -7 -1 -34 -6 -62 -11z
m25 -28 c-8 -5 -19 -10 -25 -10 -5 0 -3 5 5 10 8 5 20 10 25 10 6 0 3 -5 -5
-10z m3 -37 c-7 -2 -19 -2 -25 0 -7 3 -2 5 12 5 14 0 19 -2 13 -5z m0 -30 c-7
-2 -19 -2 -25 0 -7 3 -2 5 12 5 14 0 19 -2 13 -5z m47 -73 c0 -5 -4 -10 -10
-10 -5 0 -10 5 -10 10 0 6 5 10 10 10 6 0 10 -4 10 -10z"/>
<path d="M157 3993 c-2 -5 -7 -20 -11 -34 -3 -15 -22 -50 -41 -79 -40 -60 -39
-77 3 -37 32 30 42 33 42 13 0 -8 -9 -18 -20 -21 -11 -3 -20 -11 -20 -17 0 -6
9 -8 20 -5 17 4 20 0 19 -31 -1 -24 -3 -29 -6 -14 -2 12 -11 22 -20 22 -11 0
-14 -6 -9 -25 5 -20 3 -25 -14 -25 -24 0 -27 -18 -4 -27 22 -8 116 37 110 54
-3 7 -1 15 4 18 6 4 10 10 10 16 0 14 -27 11 -34 -3 -3 -7 -5 -5 -3 6 1 10 12
22 25 27 20 8 22 6 22 -29 0 -21 -5 -43 -12 -50 -18 -18 0 -27 32 -15 27 10
28 9 27 -15 -1 -13 3 -27 10 -29 8 -3 12 21 15 79 2 46 1 86 -2 90 -3 3 -29 2
-59 -3 -57 -11 -76 -5 -48 15 26 20 21 29 -13 23 -28 -6 -29 -5 -18 18 12 27
23 31 33 15 11 -17 25 -11 25 10 0 11 -7 23 -15 26 -8 4 -15 12 -15 20 0 15
-26 20 -33 7z m118 -223 c-3 -5 -10 -10 -16 -10 -5 0 -9 5 -9 10 0 6 7 10 16
10 8 0 12 -4 9 -10z"/>
<path d="M607 3993 c-2 -5 -7 -20 -11 -34 -3 -15 -22 -50 -41 -79 -40 -60 -39
-77 3 -37 32 30 42 33 42 13 0 -8 -9 -18 -20 -21 -11 -3 -20 -11 -20 -17 0 -6
9 -8 20 -5 17 4 20 0 19 -31 -1 -24 -3 -29 -6 -14 -2 12 -11 22 -20 22 -11 0
-14 -6 -9 -25 5 -20 3 -25 -14 -25 -24 0 -27 -18 -4 -27 22 -8 116 37 110 54
-3 7 -1 15 4 18 6 4 10 10 10 16 0 14 -28 11 -33 -3 -3 -8 -6 -5 -6 5 -1 11 8
21 19 24 11 3 20 9 20 14 0 5 -9 9 -20 9 -23 0 -27 18 -5 26 27 11 16 27 -15
21 -28 -6 -29 -5 -18 18 12 27 23 31 33 15 11 -17 25 -11 25 10 0 11 -7 23
-15 26 -8 4 -15 12 -15 20 0 15 -26 20 -33 7z"/>
<path d="M305 3558 c-61 -13 -61 -13 -41 -33 23 -23 21 -66 -4 -72 -42 -11
-19 -25 30 -18 41 6 50 4 50 -8 0 -9 -4 -17 -8 -19 -11 -4 -2 -108 9 -108 5 0
9 7 9 15 0 8 9 15 20 15 18 0 19 -5 13 -45 -5 -37 -3 -45 10 -45 12 0 16 15
19 73 2 39 8 80 12 90 7 14 3 17 -29 17 -40 0 -46 22 -7 28 29 4 28 22 -1 22
-21 0 -23 4 -19 33 3 17 9 35 15 38 12 8 0 29 -16 28 -7 -1 -34 -6 -62 -11z
m25 -28 c-8 -5 -19 -10 -25 -10 -5 0 -3 5 5 10 8 5 20 10 25 10 6 0 3 -5 -5
-10z m3 -37 c-7 -2 -19 -2 -25 0 -7 3 -2 5 12 5 14 0 19 -2 13 -5z m0 -30 c-7
-2 -19 -2 -25 0 -7 3 -2 5 12 5 14 0 19 -2 13 -5z m47 -73 c0 -5 -4 -10 -10
-10 -5 0 -10 5 -10 10 0 6 5 10 10 10 6 0 10 -4 10 -10z m-3 -36 c-3 -3 -12
-4 -19 -1 -8 3 -5 6 6 6 11 1 17 -2 13 -5z"/>
<path d="M753 3557 c-78 -15 -67 -31 15 -22 74 8 77 9 67 24 -7 12 -10 12 -82
-2z"/>
<path d="M157 3543 c-2 -5 -7 -20 -11 -34 -3 -15 -22 -50 -41 -79 -40 -60 -39
-77 3 -37 32 30 42 33 42 13 0 -8 -9 -18 -20 -21 -11 -3 -20 -11 -20 -17 0 -6
9 -8 20 -5 17 4 20 0 19 -31 -1 -24 -3 -29 -6 -14 -2 12 -11 22 -20 22 -11 0
-14 -6 -9 -25 5 -20 3 -25 -14 -25 -24 0 -27 -18 -4 -27 22 -8 116 37 110 54
-3 7 -1 15 4 18 6 4 10 10 10 16 0 14 -27 11 -34 -3 -3 -7 -5 -5 -3 6 1 10 12
22 25 27 20 8 22 6 22 -29 0 -21 -5 -43 -12 -50 -18 -18 0 -27 32 -15 27 10
28 9 27 -15 -1 -13 3 -27 10 -29 8 -3 12 21 15 79 2 46 1 86 -2 90 -3 3 -29 2
-59 -3 -57 -11 -76 -5 -48 15 26 20 21 29 -13 23 -28 -6 -29 -5 -18 18 12 27
23 31 33 15 11 -17 25 -11 25 10 0 11 -7 23 -15 26 -8 4 -15 12 -15 20 0 15
-26 20 -33 7z m118 -223 c-3 -5 -10 -10 -16 -10 -5 0 -9 5 -9 10 0 6 7 10 16
10 8 0 12 -4 9 -10z"/>
<path d="M607 3543 c-2 -5 -7 -20 -11 -34 -3 -15 -22 -50 -41 -79 -40 -60 -39
-77 3 -37 32 30 42 33 42 13 0 -8 -9 -18 -20 -21 -11 -3 -20 -11 -20 -17 0 -6
9 -8 20 -5 17 4 20 0 19 -31 -1 -24 -3 -29 -6 -14 -2 12 -11 22 -20 22 -11 0
-14 -6 -9 -25 5 -20 3 -25 -14 -25 -24 0 -27 -18 -4 -27 22 -8 116 37 110 54
-3 7 -1 15 4 18 6 4 10 10 10 16 0 14 -28 11 -33 -3 -3 -8 -6 -5 -6 5 -1 11 8
21 19 24 11 3 20 9 20 14 0 5 -9 9 -20 9 -23 0 -27 18 -5 26 27 11 16 27 -15
21 -28 -6 -29 -5 -18 18 12 27 23 31 33 15 11 -17 25 -11 25 10 0 11 -7 23
-15 26 -8 4 -15 12 -15 20 0 15 -26 20 -33 7z"/>
<path d="M305 3108 c-61 -13 -61 -13 -41 -33 23 -23 21 -66 -4 -72 -42 -11
-19 -25 30 -18 42 6 50 4 50 -9 0 -9 -4 -16 -9 -16 -4 0 -6 -22 -3 -50 3 -33
1 -50 -7 -50 -6 0 -11 -5 -11 -11 0 -7 12 -9 35 -5 34 7 35 6 35 -24 0 -20 5
-30 15 -30 10 0 15 10 15 30 0 20 5 30 15 30 20 0 19 16 -1 24 -16 6 -16 39 1
79 6 14 2 17 -30 17 -40 0 -46 22 -7 28 29 4 28 22 -1 22 -21 0 -23 4 -19 33
3 17 9 35 15 38 12 8 0 29 -16 28 -7 -1 -34 -6 -62 -11z m25 -28 c-8 -5 -19
-10 -25 -10 -5 0 -3 5 5 10 8 5 20 10 25 10 6 0 3 -5 -5 -10z m3 -37 c-7 -2
-19 -2 -25 0 -7 3 -2 5 12 5 14 0 19 -2 13 -5z m0 -30 c-7 -2 -19 -2 -25 0 -7
3 -2 5 12 5 14 0 19 -2 13 -5z m47 -73 c0 -5 -4 -10 -10 -10 -5 0 -10 5 -10
10 0 6 5 10 10 10 6 0 10 -4 10 -10z m-3 -36 c-3 -3 -12 -4 -19 -1 -8 3 -5 6
6 6 11 1 17 -2 13 -5z m0 -30 c-3 -3 -12 -4 -19 -1 -8 3 -5 6 6 6 11 1 17 -2
13 -5z"/>
<path d="M755 3108 c-61 -13 -61 -13 -41 -33 9 -9 16 -30 16 -46 0 -16 5 -29
10 -29 6 0 10 18 10 39 0 42 10 51 62 51 19 0 28 4 26 13 -6 16 -23 17 -83 5z"/>
<path d="M157 3093 c-2 -5 -7 -20 -11 -34 -3 -15 -22 -50 -41 -79 -40 -60 -39
-77 3 -37 32 30 42 33 42 13 0 -8 -9 -18 -20 -21 -11 -3 -20 -11 -20 -17 0 -6
9 -8 20 -5 17 4 20 0 19 -31 -1 -24 -3 -29 -6 -14 -2 12 -11 22 -20 22 -11 0
-14 -6 -9 -25 5 -20 3 -25 -14 -25 -24 0 -27 -18 -4 -27 22 -8 116 37 110 54
-3 7 -1 15 4 18 6 4 10 10 10 16 0 14 -27 11 -34 -3 -3 -7 -5 -5 -3 6 1 10 12
22 25 27 20 8 22 6 22 -29 0 -21 -5 -43 -12 -50 -18 -18 0 -27 32 -15 27 10
28 9 27 -15 -1 -13 3 -27 10 -29 8 -3 12 21 15 79 2 46 1 86 -2 90 -3 3 -29 2
-59 -3 -57 -11 -76 -5 -48 15 26 20 21 29 -13 23 -28 -6 -29 -5 -18 18 12 27
23 31 33 15 11 -17 25 -11 25 10 0 11 -7 23 -15 26 -8 4 -15 12 -15 20 0 15
-26 20 -33 7z m118 -223 c-3 -5 -10 -10 -16 -10 -5 0 -9 5 -9 10 0 6 7 10 16
10 8 0 12 -4 9 -10z"/>
<path d="M607 3093 c-2 -5 -7 -20 -11 -34 -3 -15 -22 -50 -41 -79 -40 -60 -39
-77 3 -37 32 30 42 33 42 13 0 -8 -9 -18 -20 -21 -11 -3 -20 -11 -20 -17 0 -6
9 -8 20 -5 17 4 20 0 19 -31 -1 -24 -3 -29 -6 -14 -2 12 -11 22 -20 22 -11 0
-14 -6 -9 -25 5 -20 3 -25 -14 -25 -24 0 -27 -18 -4 -27 22 -8 116 37 110 54
-3 7 -1 15 4 18 6 4 10 10 10 16 0 14 -28 11 -33 -3 -3 -8 -6 -5 -6 5 -1 11 8
21 19 24 11 3 20 9 20 14 0 5 -9 9 -20 9 -23 0 -27 18 -5 26 27 11 16 27 -15
21 -28 -6 -29 -5 -18 18 12 27 23 31 33 15 11 -17 25 -11 25 10 0 11 -7 23
-15 26 -8 4 -15 12 -15 20 0 15 -26 20 -33 7z"/>
<path d="M755 2658 c-61 -13 -61 -13 -41 -33 9 -9 16 -30 16 -46 0 -16 5 -29
10 -29 6 0 10 18 10 39 0 34 12 51 36 51 2 0 4 -29 4 -65 0 -36 4 -65 9 -65 4
0 12 28 15 62 4 35 12 66 18 69 13 8 1 29 -15 28 -7 -1 -34 -6 -62 -11z"/>
<path d="M607 2643 c-2 -5 -7 -20 -11 -34 -3 -15 -22 -50 -41 -79 -40 -60 -39
-77 3 -37 32 30 42 33 42 13 0 -8 -9 -18 -20 -21 -11 -3 -20 -11 -20 -17 0 -6
9 -8 20 -5 17 4 20 0 19 -31 -1 -24 -3 -29 -6 -14 -2 12 -11 22 -20 22 -11 0
-14 -6 -9 -25 5 -20 3 -25 -14 -25 -24 0 -27 -18 -4 -27 22 -8 116 37 110 54
-3 7 -1 15 4 18 6 4 10 10 10 16 0 14 -28 11 -33 -3 -3 -8 -6 -5 -6 5 -1 11 8
21 19 24 11 3 20 9 20 14 0 5 -9 9 -20 9 -23 0 -27 18 -5 26 27 11 16 27 -15
21 -28 -6 -29 -5 -18 18 12 27 23 31 33 15 11 -17 25 -11 25 10 0 11 -7 23
-15 26 -8 4 -15 12 -15 20 0 15 -26 20 -33 7z"/>
<path d="M755 2208 c-61 -13 -61 -13 -41 -33 9 -9 16 -30 16 -46 0 -16 5 -29
10 -29 6 0 10 11 10 25 0 18 5 25 20 25 17 0 20 -7 20 -45 0 -66 16 -55 24 17
4 35 12 66 18 69 13 8 1 29 -15 28 -7 -1 -34 -6 -62 -11z m25 -28 c-8 -5 -19
-10 -25 -10 -5 0 -3 5 5 10 8 5 20 10 25 10 6 0 3 -5 -5 -10z"/>
<path d="M607 2193 c-2 -5 -7 -20 -11 -34 -3 -15 -22 -50 -41 -79 -40 -60 -39
-77 3 -37 32 30 42 33 42 13 0 -8 -9 -18 -20 -21 -11 -3 -20 -11 -20 -17 0 -6
9 -8 20 -5 17 4 20 0 19 -31 -1 -24 -3 -29 -6 -14 -2 12 -11 22 -20 22 -11 0
-14 -6 -9 -25 5 -20 3 -25 -14 -25 -24 0 -27 -18 -4 -27 22 -8 116 37 110 54
-3 7 -1 15 4 18 6 4 10 10 10 16 0 14 -28 11 -33 -3 -3 -8 -6 -5 -6 5 -1 11 8
21 19 24 11 3 20 9 20 14 0 5 -9 9 -20 9 -23 0 -27 18 -5 26 27 11 16 27 -15
21 -28 -6 -29 -5 -18 18 12 27 23 31 33 15 11 -17 25 -11 25 10 0 11 -7 23
-15 26 -8 4 -15 12 -15 20 0 15 -26 20 -33 7z"/>
<path d="M755 1758 c-61 -13 -61 -13 -41 -33 9 -9 16 -30 16 -46 0 -16 5 -29
10 -29 6 0 10 5 10 10 0 6 9 10 20 10 16 0 20 -7 20 -30 0 -54 17 -31 24 32 4
35 12 66 18 69 13 8 1 29 -15 28 -7 -1 -34 -6 -62 -11z m25 -28 c-8 -5 -19
-10 -25 -10 -5 0 -3 5 5 10 8 5 20 10 25 10 6 0 3 -5 -5 -10z m3 -37 c-7 -2
-19 -2 -25 0 -7 3 -2 5 12 5 14 0 19 -2 13 -5z"/>
<path d="M607 1743 c-2 -5 -7 -20 -11 -34 -3 -15 -22 -50 -41 -79 -40 -60 -39
-77 3 -37 32 30 42 33 42 13 0 -8 -9 -18 -20 -21 -11 -3 -20 -11 -20 -17 0 -6
9 -8 20 -5 17 4 20 0 19 -31 -1 -24 -3 -29 -6 -14 -2 12 -11 22 -20 22 -11 0
-14 -6 -9 -25 5 -20 3 -25 -14 -25 -24 0 -27 -18 -4 -27 22 -8 116 37 110 54
-3 7 -1 15 4 18 6 4 10 10 10 16 0 14 -28 11 -33 -3 -3 -8 -6 -5 -6 5 -1 11 8
21 19 24 11 3 20 9 20 14 0 5 -9 9 -20 9 -23 0 -27 18 -5 26 27 11 16 27 -15
21 -28 -6 -29 -5 -18 18 12 27 23 31 33 15 11 -17 25 -11 25 10 0 11 -7 23
-15 26 -8 4 -15 12 -15 20 0 15 -26 20 -33 7z"/>
<path d="M755 1308 c-61 -13 -61 -13 -41 -33 23 -23 21 -66 -4 -72 -42 -11
-19 -25 30 -18 42 6 50 4 50 -9 0 -23 17 -20 23 4 3 12 14 20 26 20 12 0 21 5
21 10 0 6 -10 10 -23 10 -21 0 -23 4 -19 33 3 17 9 35 15 38 12 8 0 29 -16 28
-7 -1 -34 -6 -62 -11z m25 -28 c-8 -5 -19 -10 -25 -10 -5 0 -3 5 5 10 8 5 20
10 25 10 6 0 3 -5 -5 -10z m3 -37 c-7 -2 -19 -2 -25 0 -7 3 -2 5 12 5 14 0 19
-2 13 -5z m0 -30 c-7 -2 -19 -2 -25 0 -7 3 -2 5 12 5 14 0 19 -2 13 -5z"/>
<path d="M607 1293 c-2 -5 -7 -20 -11 -34 -3 -15 -22 -50 -41 -79 -40 -60 -39
-77 3 -37 32 30 42 33 42 13 0 -8 -9 -18 -20 -21 -11 -3 -20 -11 -20 -17 0 -6
9 -8 20 -5 17 4 20 0 19 -31 -1 -24 -3 -29 -6 -14 -2 12 -11 22 -20 22 -11 0
-14 -6 -9 -25 5 -20 3 -25 -14 -25 -24 0 -27 -18 -4 -27 22 -8 116 37 110 54
-3 7 -1 15 4 18 6 4 10 10 10 16 0 14 -28 11 -33 -3 -3 -8 -6 -5 -6 5 -1 11 8
21 19 24 11 3 20 9 20 14 0 5 -9 9 -20 9 -23 0 -27 18 -5 26 27 11 16 27 -15
21 -28 -6 -29 -5 -18 18 12 27 23 31 33 15 11 -17 25 -11 25 10 0 11 -7 23
-15 26 -8 4 -15 12 -15 20 0 15 -26 20 -33 7z"/>
<path d="M755 858 c-61 -13 -61 -13 -41 -33 23 -23 21 -66 -4 -72 -42 -11 -19
-25 30 -18 42 6 50 4 50 -9 0 -23 17 -20 23 4 3 12 14 20 26 20 12 0 21 5 21
10 0 6 -10 10 -23 10 -21 0 -23 4 -19 33 3 17 9 35 15 38 12 8 0 29 -16 28 -7
-1 -34 -6 -62 -11z m25 -28 c-8 -5 -19 -10 -25 -10 -5 0 -3 5 5 10 8 5 20 10
25 10 6 0 3 -5 -5 -10z m3 -37 c-7 -2 -19 -2 -25 0 -7 3 -2 5 12 5 14 0 19 -2
13 -5z m0 -30 c-7 -2 -19 -2 -25 0 -7 3 -2 5 12 5 14 0 19 -2 13 -5z"/>
<path d="M607 843 c-2 -5 -7 -20 -11 -34 -3 -15 -22 -50 -41 -79 -40 -60 -39
-77 3 -37 32 30 42 33 42 13 0 -8 -9 -18 -20 -21 -11 -3 -20 -11 -20 -17 0 -6
9 -8 20 -5 17 4 20 0 19 -31 -1 -24 -3 -29 -6 -14 -2 12 -11 22 -20 22 -11 0
-14 -6 -9 -25 5 -20 3 -25 -14 -25 -24 0 -27 -18 -4 -27 22 -8 116 37 110 54
-3 7 -1 15 4 18 6 4 10 10 10 16 0 14 -28 11 -33 -3 -3 -8 -6 -6 -6 5 -1 21
36 37 85 37 24 0 34 4 34 16 0 10 -6 14 -17 10 -50 -13 -103 -17 -103 -7 0 7
7 14 15 17 27 11 16 27 -15 21 -28 -6 -29 -5 -18 18 12 27 23 31 33 15 11 -17
25 -11 25 10 0 11 -7 23 -15 26 -8 4 -15 12 -15 20 0 15 -26 20 -33 7z"/>
<path d="M755 408 c-61 -13 -61 -13 -41 -33 23 -23 21 -66 -4 -72 -42 -11 -19
-25 30 -18 42 6 50 4 50 -9 0 -23 17 -20 23 4 3 12 14 20 26 20 12 0 21 5 21
10 0 6 -10 10 -23 10 -21 0 -23 4 -19 33 3 17 9 35 15 38 12 8 0 29 -16 28 -7
-1 -34 -6 -62 -11z m25 -28 c-8 -5 -19 -10 -25 -10 -5 0 -3 5 5 10 8 5 20 10
25 10 6 0 3 -5 -5 -10z m3 -37 c-7 -2 -19 -2 -25 0 -7 3 -2 5 12 5 14 0 19 -2
13 -5z m0 -30 c-7 -2 -19 -2 -25 0 -7 3 -2 5 12 5 14 0 19 -2 13 -5z"/>
<path d="M607 393 c-2 -5 -7 -20 -11 -34 -3 -15 -22 -50 -41 -79 -40 -60 -39
-77 3 -37 32 30 42 33 42 13 0 -8 -9 -18 -20 -21 -11 -3 -20 -11 -20 -17 0 -6
9 -8 20 -5 17 4 20 0 19 -31 -1 -24 -3 -29 -6 -14 -2 12 -11 22 -20 22 -11 0
-14 -6 -9 -25 5 -20 3 -25 -14 -25 -24 0 -27 -18 -4 -27 22 -8 116 37 110 54
-3 7 -1 15 4 18 6 4 10 10 10 16 0 14 -27 11 -34 -3 -3 -7 -5 -5 -3 6 1 10 12
22 25 27 21 8 22 6 22 -36 0 -57 18 -59 22 -2 2 35 7 43 26 45 12 2 22 10 22
18 0 10 -6 14 -17 10 -50 -13 -103 -17 -103 -7 0 7 7 14 15 17 27 11 16 27
-15 21 -28 -6 -29 -5 -18 18 12 27 23 31 33 15 11 -17 25 -11 25 10 0 11 -7
23 -15 26 -8 4 -15 12 -15 20 0 15 -26 20 -33 7z"/>
</g>
</svg>
