<?xml version="1.0" standalone="no"?>
<!DOCTYPE svg PUBLIC "-//W3C//DTD SVG 20010904//EN"
 "http://www.w3.org/TR/2001/REC-SVG-20010904/DTD/svg10.dtd">
<svg version="1.0" xmlns="http://www.w3.org/2000/svg"
 width="50.000000pt" height="725.000000pt" viewBox="0 0 50.000000 725.000000"
 preserveAspectRatio="xMidYMid meet">
<metadata>
Created by potrace 1.16, written by Peter Selinger 2001-2019
</metadata>
<g transform="translate(0.000000,725.000000) scale(0.100000,-0.100000)"
fill="#000000" stroke="none">
<path d="M179 7073 c1 -49 5 -90 7 -92 11 -11 16 15 17 90 2 67 -1 84 -13 86
-13 3 -14 -10 -11 -84z"/>
<path d="M225 6713 l-50 -4 4 -87 c1 -48 5 -89 7 -91 9 -10 14 9 20 77 7 78 7
78 78 84 16 2 31 9 34 16 2 7 -5 11 -20 10 -12 -1 -45 -3 -73 -5z"/>
<path d="M222 6263 c-43 -3 -53 -7 -48 -19 3 -9 6 -49 6 -90 0 -84 14 -99 24
-24 6 46 9 50 34 50 38 0 72 11 72 22 0 6 -19 7 -50 3 -42 -6 -50 -4 -50 9 0
16 20 23 74 28 16 2 31 9 34 16 2 7 -5 11 -20 10 -12 -1 -47 -3 -76 -5z"/>
<path d="M222 5813 c-43 -3 -53 -7 -48 -19 3 -9 6 -49 6 -90 0 -43 4 -74 10
-74 6 0 10 11 10 25 0 22 5 25 60 31 76 8 81 28 5 22 -41 -4 -55 -1 -55 9 0 8
11 13 28 13 38 0 72 11 72 22 0 6 -19 7 -50 3 -42 -6 -50 -4 -50 9 0 16 20 23
74 28 16 2 31 9 34 16 2 7 -5 11 -20 10 -12 -1 -47 -3 -76 -5z"/>
<path d="M225 5363 l-50 -4 3 -76 c5 -84 0 -93 -55 -93 -33 0 -44 -13 -20 -23
8 -3 33 -1 58 3 24 4 88 11 142 15 90 6 117 15 83 28 -7 3 -44 1 -82 -3 -94
-13 -104 -12 -104 5 0 10 17 16 60 21 76 8 81 28 5 22 -41 -4 -55 -1 -55 9 0
8 11 13 28 13 38 0 72 11 72 22 0 6 -19 7 -50 3 -42 -6 -50 -4 -50 9 0 16 20
23 74 28 16 2 31 9 34 16 2 7 -5 11 -20 10 -12 -1 -46 -3 -73 -5z"/>
<path d="M225 4913 l-50 -4 3 -76 c5 -84 0 -93 -55 -93 -18 0 -33 -4 -33 -9 0
-13 27 -21 46 -14 25 9 33 -16 27 -84 -3 -35 -2 -63 3 -63 5 0 27 16 49 34 43
36 43 60 0 32 -25 -16 -25 -16 -25 16 0 74 2 75 111 83 92 6 119 15 85 28 -7
3 -44 1 -82 -3 -94 -13 -104 -12 -104 5 0 10 17 16 60 21 76 8 81 28 5 22 -41
-4 -55 -1 -55 9 0 8 11 13 28 13 38 0 72 11 72 22 0 6 -19 7 -50 3 -42 -6 -50
-4 -50 9 0 16 20 23 74 28 16 2 31 9 34 16 2 7 -5 11 -20 10 -12 -1 -46 -3
-73 -5z"/>
<path d="M225 4463 l-50 -4 3 -76 c5 -84 0 -93 -55 -93 -18 0 -33 -4 -33 -9 0
-13 27 -21 46 -14 25 9 33 -16 27 -84 -3 -35 -2 -63 3 -63 5 0 27 16 49 34 43
36 43 60 0 32 -25 -16 -25 -16 -25 16 0 74 2 75 111 83 92 6 119 15 85 28 -7
3 -44 1 -82 -3 -94 -13 -104 -12 -104 5 0 10 17 16 60 21 76 8 81 28 5 22 -41
-4 -55 -1 -55 9 0 8 11 13 28 13 38 0 72 11 72 22 0 6 -19 7 -50 3 -42 -6 -50
-4 -50 9 0 16 20 23 74 28 16 2 31 9 34 16 2 7 -5 11 -20 10 -12 -1 -46 -3
-73 -5z"/>
<path d="M295 4254 c-9 -14 -14 -28 -11 -31 9 -9 56 26 56 42 0 24 -26 17 -45
-11z"/>
<path d="M225 4013 l-50 -4 3 -76 c5 -84 0 -93 -55 -93 -18 0 -33 -4 -33 -9 0
-13 27 -21 46 -14 25 9 33 -16 27 -84 -3 -35 -2 -63 3 -63 5 0 27 16 49 34 43
36 43 60 0 32 -25 -16 -25 -16 -25 16 0 74 2 75 111 83 92 6 119 15 85 28 -7
3 -44 1 -82 -3 -94 -13 -104 -12 -104 5 0 10 17 16 60 21 76 8 81 28 5 22 -41
-4 -55 -1 -55 9 0 8 11 13 28 13 38 0 72 11 72 22 0 6 -19 7 -50 3 -42 -6 -50
-4 -50 9 0 16 20 23 74 28 16 2 31 9 34 16 2 7 -5 11 -20 10 -12 -1 -46 -3
-73 -5z"/>
<path d="M298 3808 c-14 -20 -15 -21 -41 -3 -48 31 -40 9 20 -54 54 -56 62
-61 101 -61 49 0 55 14 12 29 -17 5 -44 20 -61 32 -30 21 -30 21 -10 36 24 16
28 43 7 43 -7 0 -20 -10 -28 -22z"/>
</g>
</svg>
