<?xml version="1.0" standalone="no"?>
<!DOCTYPE svg PUBLIC "-//W3C//DTD SVG 20010904//EN"
 "http://www.w3.org/TR/2001/REC-SVG-20010904/DTD/svg10.dtd">
<svg version="1.0" xmlns="http://www.w3.org/2000/svg"
 width="50.000000pt" height="725.000000pt" viewBox="0 0 50.000000 725.000000"
 preserveAspectRatio="xMidYMid meet">
<metadata>
Created by potrace 1.16, written by Peter Selinger 2001-2019
</metadata>
<g transform="translate(0.000000,725.000000) scale(0.100000,-0.100000)"
fill="#000000" stroke="none">
<path d="M125 7058 c0 -46 -4 -109 -9 -140 -7 -48 -6 -58 6 -58 18 0 28 66 28
193 0 63 -3 87 -12 87 -9 0 -13 -23 -13 -82z"/>
<path d="M150 6693 c-24 -4 -25 -6 -25 -86 0 -45 -4 -108 -9 -139 -7 -48 -6
-58 6 -58 18 0 28 65 28 181 0 61 3 78 16 83 32 12 36 7 29 -44 -5 -33 -3 -50
4 -50 12 0 20 27 24 80 2 31 -1 35 -23 36 -14 1 -36 0 -50 -3z"/>
<path d="M150 6243 c-24 -4 -25 -6 -25 -86 0 -45 -4 -108 -9 -139 -7 -48 -6
-58 6 -58 17 0 28 64 28 163 0 50 2 57 20 57 15 0 20 -7 20 -25 0 -14 4 -25
10 -25 11 0 19 28 23 80 2 31 -1 35 -23 36 -14 1 -36 0 -50 -3z m50 -28 c0 -9
-9 -15 -25 -15 -26 0 -34 15 -12 23 23 10 37 7 37 -8z"/>
<path d="M150 5793 c-24 -4 -25 -6 -25 -86 0 -45 -4 -108 -9 -139 -7 -48 -6
-58 6 -58 15 0 28 62 28 136 0 33 18 48 45 38 15 -6 23 15 28 76 2 31 -1 35
-23 36 -14 1 -36 0 -50 -3z m50 -28 c0 -9 -9 -15 -25 -15 -26 0 -34 15 -12 23
23 10 37 7 37 -8z m-10 -44 c0 -5 -9 -11 -20 -14 -13 -3 -20 0 -20 9 0 8 9 14
20 14 11 0 20 -4 20 -9z"/>
<path d="M284 5338 c3 -13 6 -40 6 -60 0 -21 5 -38 10 -38 6 0 10 27 10 60 0
49 -3 60 -16 60 -12 0 -15 -6 -10 -22z"/>
<path d="M150 5343 c-24 -4 -25 -6 -25 -86 0 -45 -4 -108 -9 -139 -7 -48 -6
-58 6 -58 15 0 28 62 28 136 0 33 18 48 45 38 15 -6 23 15 28 76 2 31 -1 35
-23 36 -14 1 -36 0 -50 -3z m50 -28 c0 -9 -9 -15 -25 -15 -26 0 -34 15 -12 23
23 10 37 7 37 -8z m-10 -44 c0 -5 -9 -11 -20 -14 -13 -3 -20 0 -20 9 0 8 9 14
20 14 11 0 20 -4 20 -9z"/>
<path d="M317 4913 c-34 -4 -38 -7 -33 -26 3 -12 6 -39 6 -59 0 -21 5 -38 10
-38 6 0 10 23 10 50 0 46 2 50 24 50 14 0 27 -4 30 -8 3 -5 2 -65 -1 -135 -5
-115 -8 -127 -25 -127 -23 0 -23 -5 2 -30 44 -44 48 -31 51 166 3 178 9 166
-74 157z"/>
<path d="M150 4893 c-24 -4 -25 -6 -25 -86 0 -45 -4 -108 -9 -139 -7 -48 -6
-58 6 -58 15 0 28 62 28 136 0 33 18 48 45 38 15 -6 23 15 28 76 2 31 -1 35
-23 36 -14 1 -36 0 -50 -3z m50 -28 c0 -9 -9 -15 -25 -15 -26 0 -34 15 -12 23
23 10 37 7 37 -8z m-10 -44 c0 -5 -9 -11 -20 -14 -13 -3 -20 0 -20 9 0 8 9 14
20 14 11 0 20 -4 20 -9z"/>
<path d="M317 4463 c-34 -4 -38 -7 -33 -26 3 -12 6 -39 6 -59 0 -21 5 -38 10
-38 6 0 10 11 10 25 0 18 7 26 25 31 14 4 27 5 29 3 2 -2 1 -55 -2 -116 -4
-102 -6 -113 -23 -113 -24 0 -24 -5 1 -30 44 -44 48 -31 51 166 3 178 9 166
-74 157z m47 -32 c3 -5 -8 -11 -24 -13 -20 -3 -30 0 -30 9 0 14 46 18 54 4z"/>
<path d="M150 4443 c-24 -4 -25 -6 -25 -86 0 -45 -4 -108 -9 -139 -7 -48 -6
-58 6 -58 15 0 28 62 28 136 0 33 18 48 45 38 15 -6 23 15 28 76 2 31 -1 35
-23 36 -14 1 -36 0 -50 -3z m50 -28 c0 -9 -9 -15 -25 -15 -26 0 -34 15 -12 23
23 10 37 7 37 -8z m-10 -44 c0 -5 -9 -11 -20 -14 -13 -3 -20 0 -20 9 0 8 9 14
20 14 11 0 20 -4 20 -9z"/>
<path d="M317 4013 c-34 -4 -38 -7 -33 -26 3 -12 6 -39 6 -59 0 -36 0 -37 35
-31 l35 6 0 -92 c0 -84 -1 -91 -20 -91 -25 0 -25 -5 0 -30 44 -44 48 -31 51
166 3 178 9 166 -74 157z m47 -32 c3 -5 -8 -11 -24 -13 -20 -3 -30 0 -30 9 0
14 46 18 54 4z m6 -41 c0 -12 -48 -25 -58 -16 -8 9 18 26 41 26 9 0 17 -4 17
-10z"/>
<path d="M150 3993 c-24 -4 -25 -6 -25 -86 0 -45 -4 -108 -9 -139 -7 -48 -6
-58 6 -58 15 0 28 62 28 136 0 33 18 48 45 38 15 -6 23 15 28 76 2 31 -1 35
-23 36 -14 1 -36 0 -50 -3z m50 -28 c0 -9 -9 -15 -25 -15 -26 0 -34 15 -12 23
23 10 37 7 37 -8z m-10 -44 c0 -5 -9 -11 -20 -14 -13 -3 -20 0 -20 9 0 8 9 14
20 14 11 0 20 -4 20 -9z"/>
<path d="M317 3563 c-34 -4 -38 -7 -33 -26 3 -12 6 -39 6 -59 0 -36 0 -37 35
-31 l35 6 0 -92 c0 -84 -1 -91 -20 -91 -25 0 -25 -5 0 -30 44 -44 48 -31 51
166 3 178 9 166 -74 157z m47 -32 c3 -5 -8 -11 -24 -13 -20 -3 -30 0 -30 9 0
14 46 18 54 4z m6 -41 c0 -12 -48 -25 -58 -16 -8 9 18 26 41 26 9 0 17 -4 17
-10z"/>
<path d="M150 3543 c-24 -4 -25 -6 -25 -86 0 -45 -4 -108 -9 -139 -7 -48 -6
-58 6 -58 15 0 28 62 28 136 0 33 18 48 45 38 15 -6 23 15 28 76 2 31 -1 35
-23 36 -14 1 -36 0 -50 -3z m50 -28 c0 -9 -9 -15 -25 -15 -26 0 -34 15 -12 23
23 10 37 7 37 -8z m-10 -44 c0 -5 -9 -11 -20 -14 -13 -3 -20 0 -20 9 0 8 9 14
20 14 11 0 20 -4 20 -9z"/>
<path d="M230 3453 c0 -5 4 -15 10 -23 11 -18 25 -7 17 15 -6 15 -27 21 -27 8z"/>
<path d="M317 3113 c-34 -4 -38 -7 -33 -26 3 -12 6 -39 6 -59 0 -36 0 -37 35
-31 l35 6 0 -92 c0 -84 -1 -91 -20 -91 -25 0 -25 -5 0 -30 44 -44 48 -31 51
166 3 178 9 166 -74 157z m47 -32 c3 -5 -8 -11 -24 -13 -20 -3 -30 0 -30 9 0
14 46 18 54 4z m6 -41 c0 -12 -48 -25 -58 -16 -8 9 18 26 41 26 9 0 17 -4 17
-10z"/>
<path d="M150 3093 c-24 -4 -25 -6 -25 -86 0 -45 -4 -108 -9 -139 -7 -48 -6
-58 6 -58 15 0 28 62 28 136 0 33 18 48 45 38 15 -6 23 15 28 76 2 31 -1 35
-23 36 -14 1 -36 0 -50 -3z m50 -28 c0 -9 -9 -15 -25 -15 -26 0 -34 15 -12 23
23 10 37 7 37 -8z m-10 -44 c0 -5 -9 -11 -20 -14 -13 -3 -20 0 -20 9 0 8 9 14
20 14 11 0 20 -4 20 -9z"/>
<path d="M235 2990 c5 -17 2 -20 -24 -20 -17 0 -31 -4 -31 -10 0 -11 46 -13
103 -4 44 8 50 24 8 24 -16 0 -31 6 -35 15 -8 23 -28 18 -21 -5z"/>
<path d="M317 2663 c-34 -4 -38 -7 -33 -26 3 -12 6 -39 6 -59 0 -36 0 -37 35
-31 l35 6 0 -92 c0 -84 -1 -91 -20 -91 -25 0 -25 -5 0 -30 44 -44 48 -31 51
166 3 178 9 166 -74 157z m47 -32 c3 -5 -8 -11 -24 -13 -20 -3 -30 0 -30 9 0
14 46 18 54 4z m6 -41 c0 -12 -48 -25 -58 -16 -8 9 18 26 41 26 9 0 17 -4 17
-10z"/>
<path d="M150 2643 c-24 -4 -25 -6 -25 -86 0 -45 -4 -108 -9 -139 -7 -48 -6
-58 6 -58 15 0 28 62 28 136 0 33 18 48 45 38 15 -6 23 15 28 76 2 31 -1 35
-23 36 -14 1 -36 0 -50 -3z m50 -28 c0 -9 -9 -15 -25 -15 -26 0 -34 15 -12 23
23 10 37 7 37 -8z m-10 -44 c0 -5 -9 -11 -20 -14 -13 -3 -20 0 -20 9 0 8 9 14
20 14 11 0 20 -4 20 -9z"/>
<path d="M235 2540 c5 -17 2 -20 -24 -20 -17 0 -31 -4 -31 -10 0 -5 10 -10 22
-10 20 0 20 -1 5 -18 -23 -25 -21 -42 4 -42 12 0 19 5 17 12 -6 18 41 58 68
58 13 0 24 5 24 10 0 6 -13 10 -29 10 -16 0 -31 6 -35 15 -8 23 -28 18 -21 -5z"/>
<path d="M317 2213 c-34 -4 -38 -7 -33 -26 3 -12 6 -39 6 -59 0 -36 0 -37 35
-31 l35 6 0 -92 c0 -84 -1 -91 -20 -91 -25 0 -25 -5 0 -30 44 -44 48 -31 51
166 3 178 9 166 -74 157z m47 -32 c3 -5 -8 -11 -24 -13 -20 -3 -30 0 -30 9 0
14 46 18 54 4z m6 -41 c0 -12 -48 -25 -58 -16 -8 9 18 26 41 26 9 0 17 -4 17
-10z"/>
<path d="M150 2193 c-24 -4 -25 -6 -25 -86 0 -45 -4 -108 -9 -139 -7 -48 -6
-58 6 -58 15 0 28 62 28 136 0 33 18 48 45 38 15 -6 23 15 28 76 2 31 -1 35
-23 36 -14 1 -36 0 -50 -3z m50 -28 c0 -9 -9 -15 -25 -15 -26 0 -34 15 -12 23
23 10 37 7 37 -8z m-10 -44 c0 -5 -9 -11 -20 -14 -13 -3 -20 0 -20 9 0 8 9 14
20 14 11 0 20 -4 20 -9z"/>
<path d="M235 2090 c5 -17 2 -20 -24 -20 -17 0 -31 -4 -31 -10 0 -5 10 -10 22
-10 20 0 20 -1 5 -18 -22 -24 -22 -42 1 -42 13 -1 10 -6 -13 -25 -33 -27 -29
-43 7 -25 33 17 88 72 88 87 0 20 -24 15 -38 -7 -7 -12 -17 -18 -22 -15 -15 9
40 55 66 55 13 0 24 5 24 10 0 6 -13 10 -29 10 -16 0 -31 6 -35 15 -8 23 -28
18 -21 -5z"/>
<path d="M317 1763 c-34 -4 -38 -7 -33 -26 3 -12 6 -39 6 -59 0 -36 0 -37 35
-31 l35 6 0 -92 c0 -84 -1 -91 -20 -91 -25 0 -25 -5 0 -30 44 -44 48 -31 51
166 3 178 9 166 -74 157z m47 -32 c3 -5 -8 -11 -24 -13 -20 -3 -30 0 -30 9 0
14 46 18 54 4z m6 -41 c0 -12 -48 -25 -58 -16 -8 9 18 26 41 26 9 0 17 -4 17
-10z"/>
<path d="M150 1743 c-24 -4 -25 -6 -25 -86 0 -45 -4 -108 -9 -139 -7 -48 -6
-58 6 -58 15 0 28 62 28 136 0 33 18 48 45 38 15 -6 23 15 28 76 2 31 -1 35
-23 36 -14 1 -36 0 -50 -3z m50 -28 c0 -9 -9 -15 -25 -15 -26 0 -34 15 -12 23
23 10 37 7 37 -8z m-10 -44 c0 -5 -9 -11 -20 -14 -13 -3 -20 0 -20 9 0 8 9 14
20 14 11 0 20 -4 20 -9z"/>
<path d="M235 1640 c5 -17 2 -20 -24 -20 -17 0 -31 -4 -31 -10 0 -5 10 -10 22
-10 20 0 20 -1 5 -18 -22 -24 -22 -42 1 -42 13 -1 10 -6 -13 -25 -33 -27 -29
-43 7 -25 33 17 88 72 88 87 0 20 -24 15 -38 -7 -7 -12 -17 -18 -22 -15 -15 9
40 55 66 55 13 0 24 5 24 10 0 6 -13 10 -29 10 -16 0 -31 6 -35 15 -8 23 -28
18 -21 -5z"/>
<path d="M253 1513 c-46 -50 -49 -66 -9 -39 35 22 66 57 66 73 0 22 -13 14
-57 -34z"/>
<path d="M317 1313 c-34 -4 -38 -7 -33 -26 3 -12 6 -39 6 -59 0 -36 0 -37 35
-31 l35 6 0 -92 c0 -84 -1 -91 -20 -91 -11 0 -20 7 -20 15 0 9 -7 18 -15 21
-11 5 -12 10 -2 24 25 40 -5 31 -48 -15 -49 -53 -52 -71 -5 -36 26 19 31 20
36 6 3 -8 11 -15 16 -15 6 0 21 -11 34 -25 48 -51 52 -40 55 161 3 178 9 166
-74 157z m47 -32 c3 -5 -8 -11 -24 -13 -20 -3 -30 0 -30 9 0 14 46 18 54 4z
m6 -41 c0 -12 -48 -25 -58 -16 -8 9 18 26 41 26 9 0 17 -4 17 -10z"/>
<path d="M150 1293 c-24 -4 -25 -6 -25 -86 0 -45 -4 -108 -9 -139 -7 -48 -6
-58 6 -58 15 0 28 62 28 136 0 33 18 48 45 38 15 -6 23 15 28 76 2 31 -1 35
-23 36 -14 1 -36 0 -50 -3z m50 -28 c0 -9 -9 -15 -25 -15 -26 0 -34 15 -12 23
23 10 37 7 37 -8z m-10 -44 c0 -5 -9 -11 -20 -14 -13 -3 -20 0 -20 9 0 8 9 14
20 14 11 0 20 -4 20 -9z"/>
<path d="M235 1190 c5 -17 2 -20 -24 -20 -17 0 -31 -4 -31 -10 0 -5 10 -10 22
-10 20 0 20 -1 5 -18 -22 -24 -22 -42 1 -42 13 -1 10 -6 -13 -25 -33 -27 -29
-43 7 -25 33 17 88 72 88 87 0 20 -24 15 -38 -7 -7 -12 -17 -18 -22 -15 -15 9
40 55 66 55 13 0 24 5 24 10 0 6 -13 10 -29 10 -16 0 -31 6 -35 15 -8 23 -28
18 -21 -5z"/>
</g>
</svg>
