<?xml version="1.0" standalone="no"?>
<!DOCTYPE svg PUBLIC "-//W3C//DTD SVG 20010904//EN"
 "http://www.w3.org/TR/2001/REC-SVG-20010904/DTD/svg10.dtd">
<svg version="1.0" xmlns="http://www.w3.org/2000/svg"
 width="50.000000pt" height="725.000000pt" viewBox="0 0 50.000000 725.000000"
 preserveAspectRatio="xMidYMid meet">
<metadata>
Created by potrace 1.16, written by Peter Selinger 2001-2019
</metadata>
<g transform="translate(0.000000,725.000000) scale(0.100000,-0.100000)"
fill="#000000" stroke="none">
<path d="M143 7130 c-28 -12 -31 -34 -3 -25 18 6 19 3 14 -24 -8 -41 6 -39 34
5 32 49 14 67 -45 44z"/>
<path d="M143 6680 c-27 -11 -31 -34 -5 -26 15 5 18 0 18 -31 0 -21 4 -46 8
-56 6 -13 5 -16 -8 -11 -9 3 -16 2 -16 -3 0 -16 38 -45 49 -38 16 10 13 56 -5
76 -15 17 -14 20 6 48 32 45 10 64 -47 41z"/>
<path d="M142 6230 c-12 -5 -28 -7 -35 -5 -9 4 -12 -28 -14 -135 -1 -103 2
-140 10 -137 8 2 14 45 19 116 3 61 9 118 12 126 10 27 22 15 22 -22 0 -21 4
-46 8 -56 6 -13 5 -16 -8 -11 -9 3 -16 2 -16 -3 0 -16 38 -45 49 -38 16 10 13
56 -5 76 -15 17 -14 20 6 48 32 45 10 64 -48 41z"/>
<path d="M142 5780 c-12 -5 -28 -7 -35 -5 -9 4 -12 -28 -14 -135 -1 -103 2
-140 10 -137 8 2 14 45 19 116 3 61 9 118 12 126 10 27 22 15 22 -22 0 -21 4
-46 8 -56 6 -13 5 -16 -8 -11 -9 3 -16 2 -16 -3 0 -16 38 -45 49 -38 16 10 13
56 -5 76 -15 17 -14 20 6 48 32 45 10 64 -48 41z"/>
<path d="M224 5748 c3 -13 6 -62 6 -110 0 -49 4 -88 9 -88 13 0 19 203 6 212
-19 14 -27 8 -21 -14z"/>
<path d="M142 5330 c-12 -5 -28 -7 -35 -5 -9 4 -12 -28 -14 -135 -1 -103 2
-140 10 -137 8 2 14 45 19 116 3 61 9 118 12 126 10 27 22 15 22 -22 0 -21 4
-46 8 -56 6 -13 5 -16 -8 -11 -9 3 -16 2 -16 -3 0 -16 38 -45 49 -38 16 10 13
56 -5 76 -15 17 -14 20 6 48 32 45 10 64 -48 41z"/>
<path d="M285 5319 c-16 -5 -39 -6 -49 -3 -16 5 -18 3 -13 -17 4 -13 7 -63 7
-111 0 -52 4 -88 10 -88 6 0 10 36 10 88 0 94 8 112 47 112 22 0 23 -2 23
-101 0 -76 3 -100 13 -97 8 3 14 40 19 109 8 123 4 130 -67 108z"/>
<path d="M142 4880 c-12 -5 -28 -7 -35 -5 -9 4 -12 -28 -14 -135 -1 -103 2
-140 10 -137 8 2 14 45 19 116 3 61 9 118 12 126 10 27 22 15 22 -22 0 -21 4
-46 8 -56 6 -13 5 -16 -8 -11 -9 3 -16 2 -16 -3 0 -16 38 -45 49 -38 16 10 13
56 -5 76 -15 17 -14 20 6 48 32 45 10 64 -48 41z"/>
<path d="M285 4869 c-16 -5 -39 -6 -49 -3 -16 5 -18 3 -13 -17 4 -13 7 -63 7
-111 0 -52 4 -88 10 -88 6 0 10 28 10 65 l0 65 35 0 35 0 0 -66 c0 -48 3 -65
13 -62 8 3 14 40 19 109 8 123 4 130 -67 108z m35 -38 c0 -20 -18 -31 -51 -31
-21 0 -25 20 -7 38 20 20 58 15 58 -7z"/>
<path d="M142 4430 c-12 -5 -28 -7 -35 -5 -9 4 -12 -28 -14 -135 -1 -103 2
-140 10 -137 8 2 14 45 19 116 3 61 9 118 12 126 10 27 22 15 22 -22 0 -21 4
-46 8 -56 6 -13 5 -16 -8 -11 -9 3 -16 2 -16 -3 0 -16 38 -45 49 -38 16 10 13
56 -5 76 -15 17 -14 20 6 48 32 45 10 64 -48 41z"/>
<path d="M285 4419 c-16 -5 -39 -6 -49 -3 -16 5 -18 3 -13 -17 4 -13 7 -63 7
-111 0 -52 4 -88 10 -88 6 0 10 16 10 35 0 33 2 35 35 35 33 0 35 -2 35 -36 0
-24 4 -34 13 -32 8 3 14 40 19 109 8 123 4 130 -67 108z m35 -38 c0 -20 -18
-31 -51 -31 -21 0 -25 20 -7 38 20 20 58 15 58 -7z m0 -65 c0 -13 -28 -26 -57
-26 -7 0 -13 9 -13 20 0 16 7 20 35 20 23 0 35 -5 35 -14z"/>
<path d="M142 3980 c-12 -5 -28 -7 -35 -5 -9 4 -12 -28 -14 -135 -1 -103 2
-140 10 -137 8 2 14 45 19 116 3 61 9 118 12 126 10 27 22 15 22 -22 0 -21 4
-46 8 -56 6 -13 5 -16 -8 -11 -9 3 -16 2 -16 -3 0 -16 38 -45 49 -38 16 10 13
56 -5 76 -15 17 -14 20 6 48 32 45 10 64 -48 41z"/>
<path d="M285 3969 c-16 -5 -37 -7 -45 -4 -13 4 -15 -11 -15 -98 l0 -102 -32
-3 c-18 -2 -33 -8 -33 -14 0 -7 41 -8 128 -3 70 4 129 9 131 11 12 10 -16 25
-42 21 l-30 -4 6 98 c5 82 4 98 -9 103 -18 7 -20 7 -59 -5z m35 -38 c0 -20
-18 -31 -51 -31 -21 0 -25 20 -7 38 20 20 58 15 58 -7z m0 -65 c0 -13 -28 -26
-57 -26 -7 0 -13 9 -13 20 0 16 7 20 35 20 23 0 35 -5 35 -14z m0 -71 c0 -22
-4 -25 -35 -25 -31 0 -35 3 -35 25 0 22 4 25 35 25 31 0 35 -3 35 -25z"/>
</g>
</svg>
