<?xml version="1.0" standalone="no"?>
<!DOCTYPE svg PUBLIC "-//W3C//DTD SVG 20010904//EN"
 "http://www.w3.org/TR/2001/REC-SVG-20010904/DTD/svg10.dtd">
<svg version="1.0" xmlns="http://www.w3.org/2000/svg"
 width="95.000000pt" height="725.000000pt" viewBox="0 0 95.000000 725.000000"
 preserveAspectRatio="xMidYMid meet">
<metadata>
Created by potrace 1.16, written by Peter Selinger 2001-2019
</metadata>
<g transform="translate(0.000000,725.000000) scale(0.100000,-0.100000)"
fill="#000000" stroke="none">
<path d="M286 7155 c-10 -8 -23 -16 -28 -17 -14 -5 13 -58 29 -58 17 0 17 27
1 33 -7 3 2 10 20 17 35 13 41 25 16 34 -19 7 -15 8 -38 -9z"/>
<path d="M145 7130 c-4 -6 -16 -8 -27 -4 -19 6 -20 3 -14 -40 4 -26 2 -90 -4
-142 -8 -68 -9 -99 -1 -107 6 -6 13 -8 16 -5 3 3 9 65 13 138 4 74 11 135 17
137 14 4 14 -90 1 -99 -15 -10 18 -43 33 -34 14 9 14 51 -1 75 -9 15 -8 24 6
45 9 15 14 31 11 36 -8 13 -42 13 -50 0z"/>
<path d="M588 7126 c-23 -17 -23 -29 1 -21 15 5 18 1 13 -20 -2 -14 0 -25 4
-25 13 0 45 60 38 71 -8 13 -36 11 -56 -5z"/>
<path d="M336 7114 c-8 -22 -5 -24 22 -17 25 6 25 26 0 31 -9 2 -18 -5 -22
-14z"/>
<path d="M210 7098 c1 -23 27 -48 49 -48 12 0 19 -4 16 -10 -3 -5 -19 -10 -36
-10 -16 0 -29 -5 -29 -11 0 -8 15 -10 46 -5 26 3 64 6 85 6 53 0 50 20 -3 21
-42 1 -42 1 -15 12 45 18 31 29 -28 22 -51 -7 -55 -6 -55 14 0 12 -6 21 -15
21 -8 0 -15 -6 -15 -12z"/>
<path d="M280 7000 c0 -5 12 -10 26 -10 14 0 23 -4 19 -10 -3 -5 -21 -10 -38
-10 -51 0 -107 -12 -107 -22 0 -5 31 -7 73 -4 61 5 65 4 28 -4 -78 -17 -72
-30 12 -23 47 5 57 9 57 24 0 14 7 19 30 19 17 0 30 5 30 10 0 6 -11 10 -25
10 -18 0 -23 4 -19 15 5 12 -3 15 -40 15 -25 0 -46 -4 -46 -10z"/>
<path d="M220 6990 c0 -5 11 -10 25 -10 14 0 25 5 25 10 0 6 -11 10 -25 10
-14 0 -25 -4 -25 -10z"/>
<path d="M171 6879 c-10 -23 -11 -33 -2 -42 15 -15 31 7 31 46 0 36 -12 34
-29 -4z"/>
<path d="M272 6893 c4 -22 38 -30 38 -10 0 8 -7 18 -16 21 -23 9 -26 8 -22
-11z"/>
<path d="M360 6902 c0 -5 9 -17 20 -27 16 -15 23 -16 33 -6 9 10 8 15 -7 27
-22 16 -46 19 -46 6z"/>
<path d="M224 6884 c3 -9 6 -20 6 -25 0 -15 57 -39 93 -39 18 0 42 6 52 14 19
14 19 15 -5 35 -32 26 -43 26 -35 1 10 -31 -49 -27 -81 5 -29 29 -39 32 -30 9z"/>
<path d="M588 6676 c-10 -7 -18 -16 -18 -20 0 -4 8 -5 18 -2 14 5 17 -1 18
-42 0 -26 -5 -50 -10 -54 -15 -10 18 -43 33 -34 14 9 14 51 -1 75 -9 15 -8 24
6 45 9 15 14 31 11 36 -9 14 -37 12 -57 -4z"/>
<path d="M595 6230 c-4 -6 -16 -8 -27 -4 -19 6 -20 3 -14 -40 4 -26 2 -90 -4
-142 -8 -68 -9 -99 -1 -107 6 -6 13 -8 16 -5 3 3 9 65 13 138 4 74 11 135 17
137 14 4 14 -90 1 -99 -15 -10 18 -43 33 -34 14 9 14 51 -1 75 -9 15 -8 24 6
45 9 15 14 31 11 36 -8 13 -42 13 -50 0z"/>
<path d="M728 5802 c-49 -30 -30 -42 31 -21 34 12 40 24 15 33 -9 3 -16 6 -17
5 -1 0 -14 -8 -29 -17z"/>
<path d="M595 5780 c-4 -6 -16 -8 -27 -4 -19 6 -20 3 -14 -40 4 -26 2 -90 -4
-142 -8 -68 -9 -99 -1 -107 6 -6 13 -8 16 -5 3 3 9 65 13 138 4 74 11 135 17
137 14 4 14 -90 1 -99 -15 -10 18 -43 33 -34 14 9 14 51 -1 75 -9 15 -8 24 6
45 9 15 14 31 11 36 -8 13 -42 13 -50 0z"/>
<path d="M728 5352 c-49 -30 -30 -42 31 -21 34 12 40 24 15 33 -9 3 -16 6 -17
5 -1 0 -14 -8 -29 -17z"/>
<path d="M595 5330 c-4 -6 -16 -8 -27 -4 -19 6 -20 3 -14 -40 4 -26 2 -90 -4
-142 -8 -68 -9 -99 -1 -107 6 -6 13 -8 16 -5 3 3 9 65 13 138 4 74 11 135 17
137 14 4 14 -90 1 -99 -15 -10 18 -43 33 -34 14 9 14 51 -1 75 -9 15 -8 24 6
45 9 15 14 31 11 36 -8 13 -42 13 -50 0z"/>
<path d="M662 5293 c5 -25 28 -28 28 -4 0 12 -6 21 -16 21 -9 0 -14 -7 -12
-17z"/>
<path d="M736 4905 c-10 -8 -23 -16 -28 -17 -14 -5 13 -58 29 -58 17 0 17 27
1 33 -7 3 2 10 20 17 35 13 41 25 16 34 -19 7 -15 8 -38 -9z"/>
<path d="M595 4880 c-4 -6 -16 -8 -27 -4 -19 6 -20 3 -14 -40 4 -26 2 -90 -4
-142 -8 -68 -9 -99 -1 -107 6 -6 13 -8 16 -5 3 3 9 65 13 138 4 74 11 135 17
137 14 4 14 -90 1 -99 -15 -10 18 -43 33 -34 14 9 14 51 -1 75 -9 15 -8 24 6
45 9 15 14 31 11 36 -8 13 -42 13 -50 0z"/>
<path d="M662 4843 c5 -25 28 -28 28 -4 0 12 -6 21 -16 21 -9 0 -14 -7 -12
-17z"/>
<path d="M736 4455 c-10 -8 -23 -16 -28 -17 -14 -5 13 -58 29 -58 17 0 17 27
1 33 -7 3 2 10 20 17 35 13 41 25 16 34 -19 7 -15 8 -38 -9z"/>
<path d="M595 4430 c-4 -6 -16 -8 -27 -4 -19 6 -20 3 -14 -40 4 -26 2 -90 -4
-142 -8 -68 -9 -99 -1 -107 6 -6 13 -8 16 -5 3 3 9 65 13 138 4 74 11 135 17
137 14 4 14 -90 1 -99 -15 -10 18 -43 33 -34 14 9 14 51 -1 75 -9 15 -8 24 6
45 9 15 14 31 11 36 -8 13 -42 13 -50 0z"/>
<path d="M786 4414 c-8 -22 -5 -24 22 -17 25 6 25 26 0 31 -9 2 -18 -5 -22
-14z"/>
<path d="M662 4393 c5 -25 28 -28 28 -4 0 12 -6 21 -16 21 -9 0 -14 -7 -12
-17z"/>
<path d="M736 4005 c-10 -8 -23 -16 -28 -17 -14 -5 13 -58 29 -58 17 0 17 27
1 33 -7 3 2 10 20 17 35 13 41 25 16 34 -19 7 -15 8 -38 -9z"/>
<path d="M595 3980 c-4 -6 -16 -8 -27 -4 -19 6 -20 3 -14 -40 4 -26 2 -90 -4
-142 -8 -68 -9 -99 -1 -107 6 -6 13 -8 16 -5 3 3 9 65 13 138 4 74 11 135 17
137 14 4 14 -90 1 -99 -15 -10 18 -43 33 -34 14 9 14 51 -1 75 -9 15 -8 24 6
45 9 15 14 31 11 36 -8 13 -42 13 -50 0z"/>
<path d="M786 3964 c-8 -22 -5 -24 22 -17 25 6 25 26 0 31 -9 2 -18 -5 -22
-14z"/>
<path d="M660 3948 c1 -40 54 -59 118 -42 45 12 22 25 -33 19 -51 -7 -55 -6
-55 14 0 12 -6 21 -15 21 -8 0 -15 -6 -15 -12z"/>
<path d="M736 3555 c-10 -8 -23 -16 -28 -17 -14 -5 13 -58 29 -58 17 0 17 27
1 33 -7 3 2 10 20 17 35 13 41 25 16 34 -19 7 -15 8 -38 -9z"/>
<path d="M595 3530 c-4 -6 -16 -8 -27 -4 -19 6 -20 3 -14 -40 4 -26 2 -90 -4
-142 -8 -68 -9 -99 -1 -107 6 -6 13 -8 16 -5 3 3 9 65 13 138 4 74 11 135 17
137 14 4 14 -90 1 -99 -15 -10 18 -43 33 -34 14 9 14 51 -1 75 -9 15 -8 24 6
45 9 15 14 31 11 36 -8 13 -42 13 -50 0z"/>
<path d="M786 3514 c-8 -22 -5 -24 22 -17 25 6 25 26 0 31 -9 2 -18 -5 -22
-14z"/>
<path d="M660 3498 c1 -22 26 -48 48 -48 11 0 22 -6 24 -12 3 -9 9 -8 22 5 10
9 24 17 32 17 8 0 14 5 14 11 0 7 -18 8 -55 4 -51 -7 -55 -6 -55 14 0 12 -6
21 -15 21 -8 0 -15 -6 -15 -12z"/>
<path d="M736 3105 c-10 -8 -23 -16 -28 -17 -14 -5 13 -58 29 -58 17 0 17 27
1 33 -7 3 2 10 20 17 35 13 41 25 16 34 -19 7 -15 8 -38 -9z"/>
<path d="M595 3080 c-4 -6 -16 -8 -27 -4 -19 6 -20 3 -14 -40 4 -26 2 -90 -4
-142 -8 -68 -9 -99 -1 -107 6 -6 13 -8 16 -5 3 3 9 65 13 138 4 74 11 135 17
137 14 4 14 -90 1 -99 -15 -10 18 -43 33 -34 14 9 14 51 -1 75 -9 15 -8 24 6
45 9 15 14 31 11 36 -8 13 -42 13 -50 0z"/>
<path d="M786 3064 c-8 -22 -5 -24 22 -17 25 6 25 26 0 31 -9 2 -18 -5 -22
-14z"/>
<path d="M660 3048 c1 -23 27 -48 49 -48 12 0 19 -4 16 -10 -3 -5 -19 -10 -36
-10 -16 0 -29 -5 -29 -11 0 -8 15 -10 46 -5 26 3 64 6 85 6 53 0 50 20 -3 21
-42 1 -42 1 -15 12 45 18 31 29 -28 22 -51 -7 -55 -6 -55 14 0 12 -6 21 -15
21 -8 0 -15 -6 -15 -12z"/>
<path d="M736 2655 c-10 -8 -23 -16 -28 -17 -14 -5 13 -58 29 -58 17 0 17 27
1 33 -7 3 2 10 20 17 35 13 41 25 16 34 -19 7 -15 8 -38 -9z"/>
<path d="M595 2630 c-4 -6 -16 -8 -27 -4 -19 6 -20 3 -14 -40 4 -26 2 -90 -4
-142 -8 -68 -9 -99 -1 -107 6 -6 13 -8 16 -5 3 3 9 65 13 138 4 74 11 135 17
137 14 4 14 -90 1 -99 -15 -10 18 -43 33 -34 14 9 14 51 -1 75 -9 15 -8 24 6
45 9 15 14 31 11 36 -8 13 -42 13 -50 0z"/>
<path d="M786 2614 c-8 -22 -5 -24 22 -17 25 6 25 26 0 31 -9 2 -18 -5 -22
-14z"/>
<path d="M660 2598 c1 -23 27 -48 49 -48 12 0 19 -4 16 -10 -3 -5 -19 -10 -36
-10 -16 0 -29 -5 -29 -11 0 -8 15 -10 46 -5 26 3 64 6 85 6 53 0 50 20 -3 21
-42 1 -42 1 -15 12 45 18 31 29 -28 22 -51 -7 -55 -6 -55 14 0 12 -6 21 -15
21 -8 0 -15 -6 -15 -12z"/>
<path d="M730 2500 c0 -5 12 -10 26 -10 23 0 25 -3 19 -30 -9 -43 11 -38 30 6
8 20 15 38 15 40 0 2 -20 4 -45 4 -25 0 -45 -4 -45 -10z"/>
<path d="M670 2490 c0 -5 11 -10 25 -10 14 0 25 5 25 10 0 6 -11 10 -25 10
-14 0 -25 -4 -25 -10z"/>
<path d="M736 2205 c-10 -8 -23 -16 -28 -17 -14 -5 13 -58 29 -58 17 0 17 27
1 33 -7 3 2 10 20 17 35 13 41 25 16 34 -19 7 -15 8 -38 -9z"/>
<path d="M595 2180 c-4 -6 -16 -8 -27 -4 -19 6 -20 3 -14 -40 4 -26 2 -90 -4
-142 -8 -68 -9 -99 -1 -107 6 -6 13 -8 16 -5 3 3 9 65 13 138 4 74 11 135 17
137 14 4 14 -90 1 -99 -15 -10 18 -43 33 -34 14 9 14 51 -1 75 -9 15 -8 24 6
45 9 15 14 31 11 36 -8 13 -42 13 -50 0z"/>
<path d="M786 2164 c-8 -22 -5 -24 22 -17 25 6 25 26 0 31 -9 2 -18 -5 -22
-14z"/>
<path d="M660 2148 c1 -23 27 -48 49 -48 12 0 19 -4 16 -10 -3 -5 -19 -10 -36
-10 -16 0 -29 -5 -29 -11 0 -8 15 -10 46 -5 26 3 64 6 85 6 53 0 50 20 -3 21
-42 1 -42 1 -15 12 45 18 31 29 -28 22 -51 -7 -55 -6 -55 14 0 12 -6 21 -15
21 -8 0 -15 -6 -15 -12z"/>
<path d="M730 2050 c0 -5 12 -10 26 -10 14 0 23 -4 19 -10 -3 -5 -21 -10 -38
-10 -51 0 -107 -12 -107 -22 0 -6 26 -7 66 -3 51 6 68 4 75 -6 8 -12 12 -11
23 4 7 9 25 17 40 17 14 0 26 5 26 10 0 6 -11 10 -25 10 -18 0 -23 4 -19 15 5
12 -3 15 -40 15 -25 0 -46 -4 -46 -10z"/>
<path d="M670 2040 c0 -5 11 -10 25 -10 14 0 25 5 25 10 0 6 -11 10 -25 10
-14 0 -25 -4 -25 -10z"/>
<path d="M736 1755 c-10 -8 -23 -16 -28 -17 -14 -5 13 -58 29 -58 17 0 17 27
1 33 -7 3 2 10 20 17 35 13 41 25 16 34 -19 7 -15 8 -38 -9z"/>
<path d="M595 1730 c-4 -6 -16 -8 -27 -4 -19 6 -20 3 -14 -40 4 -26 2 -90 -4
-142 -8 -68 -9 -99 -1 -107 6 -6 13 -8 16 -5 3 3 9 65 13 138 4 74 11 135 17
137 14 4 14 -90 1 -99 -15 -10 18 -43 33 -34 14 9 14 51 -1 75 -9 15 -8 24 6
45 9 15 14 31 11 36 -8 13 -42 13 -50 0z"/>
<path d="M786 1714 c-8 -22 -5 -24 22 -17 25 6 25 26 0 31 -9 2 -18 -5 -22
-14z"/>
<path d="M660 1698 c1 -23 27 -48 49 -48 12 0 19 -4 16 -10 -3 -5 -19 -10 -36
-10 -16 0 -29 -5 -29 -11 0 -8 15 -10 46 -5 26 3 64 6 85 6 53 0 50 20 -3 21
-42 1 -42 1 -15 12 45 18 31 29 -28 22 -51 -7 -55 -6 -55 14 0 12 -6 21 -15
21 -8 0 -15 -6 -15 -12z"/>
<path d="M730 1600 c0 -5 12 -10 26 -10 14 0 23 -4 19 -10 -3 -5 -21 -10 -38
-10 -51 0 -107 -12 -107 -22 0 -5 31 -7 73 -4 61 5 65 4 28 -4 -78 -17 -72
-30 12 -23 47 5 57 9 57 24 0 14 7 19 30 19 17 0 30 5 30 10 0 6 -11 10 -25
10 -18 0 -23 4 -19 15 5 12 -3 15 -40 15 -25 0 -46 -4 -46 -10z"/>
<path d="M670 1590 c0 -5 11 -10 25 -10 14 0 25 5 25 10 0 6 -11 10 -25 10
-14 0 -25 -4 -25 -10z"/>
<path d="M736 1305 c-10 -8 -23 -16 -28 -17 -14 -5 13 -58 29 -58 17 0 17 27
1 33 -7 3 2 10 20 17 35 13 41 25 16 34 -19 7 -15 8 -38 -9z"/>
<path d="M595 1280 c-4 -6 -16 -8 -27 -4 -19 6 -20 3 -14 -40 4 -26 2 -90 -4
-142 -8 -68 -9 -99 -1 -107 6 -6 13 -8 16 -5 3 3 9 65 13 138 4 74 11 135 17
137 14 4 14 -90 1 -99 -15 -10 18 -43 33 -34 14 9 14 51 -1 75 -9 15 -8 24 6
45 9 15 14 31 11 36 -8 13 -42 13 -50 0z"/>
<path d="M786 1264 c-8 -22 -5 -24 22 -17 25 6 25 26 0 31 -9 2 -18 -5 -22
-14z"/>
<path d="M660 1248 c1 -23 27 -48 49 -48 12 0 19 -4 16 -10 -3 -5 -19 -10 -36
-10 -16 0 -29 -5 -29 -11 0 -8 15 -10 46 -5 26 3 64 6 85 6 53 0 50 20 -3 21
-42 1 -42 1 -15 12 45 18 31 29 -28 22 -51 -7 -55 -6 -55 14 0 12 -6 21 -15
21 -8 0 -15 -6 -15 -12z"/>
<path d="M730 1150 c0 -5 12 -10 26 -10 14 0 23 -4 19 -10 -3 -5 -21 -10 -38
-10 -51 0 -107 -12 -107 -22 0 -5 31 -7 73 -4 61 5 65 4 28 -4 -78 -17 -72
-30 12 -23 47 5 57 9 57 24 0 14 7 19 30 19 17 0 30 5 30 10 0 6 -11 10 -25
10 -18 0 -23 4 -19 15 5 12 -3 15 -40 15 -25 0 -46 -4 -46 -10z"/>
<path d="M670 1140 c0 -5 11 -10 25 -10 14 0 25 5 25 10 0 6 -11 10 -25 10
-14 0 -25 -4 -25 -10z"/>
<path d="M621 1029 c-10 -23 -11 -33 -2 -42 15 -15 31 7 31 46 0 36 -12 34
-29 -4z"/>
<path d="M736 855 c-10 -8 -23 -16 -28 -17 -14 -5 13 -58 29 -58 17 0 17 27 1
33 -7 3 2 10 20 17 35 13 41 25 16 34 -19 7 -15 8 -38 -9z"/>
<path d="M595 830 c-4 -6 -16 -8 -27 -4 -19 6 -20 3 -14 -40 4 -26 2 -90 -4
-142 -8 -68 -9 -99 -1 -107 6 -6 13 -8 16 -5 3 3 9 65 13 138 4 74 11 135 17
137 14 4 14 -90 1 -99 -15 -10 18 -43 33 -34 14 9 14 51 -1 75 -9 15 -8 24 6
45 9 15 14 31 11 36 -8 13 -42 13 -50 0z"/>
<path d="M786 814 c-8 -22 -5 -24 22 -17 25 6 25 26 0 31 -9 2 -18 -5 -22 -14z"/>
<path d="M660 798 c1 -23 27 -48 49 -48 12 0 19 -4 16 -10 -3 -5 -19 -10 -36
-10 -16 0 -29 -5 -29 -11 0 -8 15 -10 46 -5 26 3 64 6 85 6 53 0 50 20 -3 21
-42 1 -42 1 -15 12 45 18 31 29 -28 22 -51 -7 -55 -6 -55 14 0 12 -6 21 -15
21 -8 0 -15 -6 -15 -12z"/>
<path d="M730 700 c0 -5 12 -10 26 -10 14 0 23 -4 19 -10 -3 -5 -21 -10 -38
-10 -51 0 -107 -12 -107 -22 0 -5 31 -7 73 -4 61 5 65 4 28 -4 -78 -17 -72
-30 12 -23 47 5 57 9 57 24 0 14 7 19 30 19 17 0 30 5 30 10 0 6 -11 10 -25
10 -18 0 -23 4 -19 15 5 12 -3 15 -40 15 -25 0 -46 -4 -46 -10z"/>
<path d="M670 690 c0 -5 11 -10 25 -10 14 0 25 5 25 10 0 6 -11 10 -25 10 -14
0 -25 -4 -25 -10z"/>
<path d="M621 579 c-10 -23 -11 -33 -2 -42 15 -15 31 7 31 46 0 36 -12 34 -29
-4z"/>
<path d="M674 584 c3 -9 6 -20 6 -25 0 -15 57 -39 93 -39 18 0 42 6 52 14 19
14 19 15 -5 35 -32 26 -43 26 -35 1 10 -31 -49 -27 -81 5 -29 29 -39 32 -30 9z"/>
<path d="M736 405 c-10 -8 -23 -16 -28 -17 -14 -5 13 -58 29 -58 17 0 17 27 1
33 -7 3 2 10 20 17 35 13 41 25 16 34 -19 7 -15 8 -38 -9z"/>
<path d="M595 380 c-4 -6 -16 -8 -27 -4 -19 6 -20 3 -14 -40 4 -26 2 -90 -4
-142 -8 -68 -9 -99 -1 -107 6 -6 13 -8 16 -5 3 3 9 65 13 138 4 74 11 135 17
137 14 4 14 -90 1 -99 -15 -10 18 -43 33 -34 14 9 14 51 -1 75 -9 15 -8 24 6
45 9 15 14 31 11 36 -8 13 -42 13 -50 0z"/>
<path d="M786 364 c-8 -22 -5 -24 22 -17 25 6 25 26 0 31 -9 2 -18 -5 -22 -14z"/>
<path d="M660 348 c1 -23 27 -48 49 -48 12 0 19 -4 16 -10 -3 -5 -19 -10 -36
-10 -16 0 -29 -5 -29 -11 0 -8 15 -10 46 -5 26 3 64 6 85 6 53 0 50 20 -3 21
-42 1 -42 1 -15 12 45 18 31 29 -28 22 -51 -7 -55 -6 -55 14 0 12 -6 21 -15
21 -8 0 -15 -6 -15 -12z"/>
<path d="M730 250 c0 -5 12 -10 26 -10 14 0 23 -4 19 -10 -3 -5 -21 -10 -38
-10 -51 0 -107 -12 -107 -22 0 -5 31 -7 73 -4 61 5 65 4 28 -4 -78 -17 -72
-30 12 -23 47 5 57 9 57 24 0 14 7 19 30 19 17 0 30 5 30 10 0 6 -11 10 -25
10 -18 0 -23 4 -19 15 5 12 -3 15 -40 15 -25 0 -46 -4 -46 -10z"/>
<path d="M670 240 c0 -5 11 -10 25 -10 14 0 25 5 25 10 0 6 -11 10 -25 10 -14
0 -25 -4 -25 -10z"/>
<path d="M621 129 c-10 -23 -11 -33 -2 -42 15 -15 31 7 31 46 0 36 -12 34 -29
-4z"/>
<path d="M722 143 c4 -22 38 -30 38 -10 0 8 -7 18 -16 21 -23 9 -26 8 -22 -11z"/>
<path d="M674 134 c3 -9 6 -20 6 -25 0 -15 57 -39 93 -39 18 0 42 6 52 14 19
14 19 15 -5 35 -32 26 -43 26 -35 1 10 -31 -49 -27 -81 5 -29 29 -39 32 -30 9z"/>
</g>
</svg>
