<?xml version="1.0" standalone="no"?>
<!DOCTYPE svg PUBLIC "-//W3C//DTD SVG 20010904//EN"
 "http://www.w3.org/TR/2001/REC-SVG-20010904/DTD/svg10.dtd">
<svg version="1.0" xmlns="http://www.w3.org/2000/svg"
 width="50.000000pt" height="725.000000pt" viewBox="0 0 50.000000 725.000000"
 preserveAspectRatio="xMidYMid meet">
<metadata>
Created by potrace 1.16, written by Peter Selinger 2001-2019
</metadata>
<g transform="translate(0.000000,725.000000) scale(0.100000,-0.100000)"
fill="#000000" stroke="none">
<path d="M233 7158 c-90 -14 -82 -32 10 -23 39 4 74 9 76 10 5 5 -9 25 -17 24
-4 -1 -35 -6 -69 -11z"/>
<path d="M233 6708 c-90 -14 -82 -32 10 -23 39 4 74 9 76 10 5 5 -9 25 -17 24
-4 -1 -35 -6 -69 -11z"/>
<path d="M120 6641 c-13 -25 -13 -51 0 -51 12 0 30 33 30 54 0 22 -17 20 -30
-3z"/>
<path d="M233 6258 c-90 -14 -82 -32 10 -23 39 4 74 9 76 10 5 5 -9 25 -17 24
-4 -1 -35 -6 -69 -11z"/>
<path d="M288 6223 c-27 -2 -48 -9 -48 -15 0 -7 20 -9 55 -6 45 4 53 2 43 -9
-15 -18 -9 -22 30 -16 17 3 32 11 32 17 0 19 -22 36 -44 34 -12 -1 -42 -3 -68
-5z"/>
<path d="M120 6191 c-13 -25 -13 -51 0 -51 6 0 16 11 22 25 9 20 18 25 50 25
21 0 38 5 38 10 0 6 -22 10 -50 10 -38 0 -52 -4 -60 -19z"/>
<path d="M233 5808 c-65 -10 -86 -28 -33 -28 17 0 30 -4 30 -10 0 -5 -22 -10
-50 -10 -51 0 -70 -15 -70 -54 0 -24 19 -19 32 9 9 20 18 25 50 25 38 0 38 0
38 -41 0 -55 24 -47 28 9 3 39 5 42 32 42 15 0 37 3 47 7 16 6 16 5 4 -10 -8
-10 -12 -19 -10 -21 10 -9 69 8 69 19 0 26 -27 36 -84 29 -39 -5 -56 -3 -56 5
0 6 14 11 31 11 19 0 29 4 27 12 -6 16 -14 17 -85 6z"/>
<path d="M233 5358 c-65 -10 -86 -28 -33 -28 17 0 30 -4 30 -10 0 -5 -22 -10
-50 -10 -51 0 -70 -15 -70 -54 0 -24 19 -19 32 9 9 20 18 25 50 25 38 0 38 0
38 -41 0 -55 24 -47 28 9 3 39 5 42 32 42 15 0 37 3 47 7 16 6 16 5 4 -10 -8
-10 -12 -19 -10 -21 10 -9 69 8 69 19 0 26 -27 36 -84 29 -39 -5 -56 -3 -56 5
0 6 14 11 31 11 19 0 29 4 27 12 -6 16 -14 17 -85 6z"/>
<path d="M170 5271 c0 -5 7 -12 16 -15 22 -9 24 -8 24 9 0 8 -9 15 -20 15 -11
0 -20 -4 -20 -9z"/>
<path d="M233 4908 c-65 -10 -86 -28 -33 -28 17 0 30 -4 30 -10 0 -5 -22 -10
-50 -10 -51 0 -70 -15 -70 -54 0 -24 19 -19 32 9 9 20 18 25 50 25 38 0 38 0
38 -41 0 -55 24 -47 28 9 3 39 5 42 32 42 15 0 37 3 47 7 16 6 16 5 4 -10 -8
-10 -12 -19 -10 -21 10 -9 69 8 69 19 0 26 -27 36 -84 29 -39 -5 -56 -3 -56 5
0 6 14 11 31 11 19 0 29 4 27 12 -6 16 -14 17 -85 6z"/>
<path d="M170 4820 c0 -5 5 -10 11 -10 5 0 7 -4 4 -10 -3 -5 -15 -10 -26 -10
-10 0 -19 -4 -19 -9 0 -18 22 -23 46 -10 31 16 34 59 4 59 -11 0 -20 -4 -20
-10z"/>
<path d="M233 4458 c-65 -10 -86 -28 -33 -28 17 0 30 -4 30 -10 0 -5 -22 -10
-50 -10 -51 0 -70 -15 -70 -54 0 -24 19 -19 32 9 9 20 18 25 50 25 38 0 38 0
38 -41 0 -55 24 -47 28 9 2 29 8 42 18 42 11 0 13 -6 9 -22 -6 -16 -4 -20 8
-15 8 3 35 9 61 12 47 7 58 23 32 44 -9 7 -33 9 -70 5 -39 -5 -56 -3 -56 5 0
6 14 11 31 11 19 0 29 4 27 12 -6 16 -14 17 -85 6z m112 -58 c-3 -5 -11 -10
-16 -10 -6 0 -7 5 -4 10 3 6 11 10 16 10 6 0 7 -4 4 -10z"/>
<path d="M170 4370 c0 -5 5 -10 11 -10 5 0 7 -4 4 -10 -3 -5 -15 -10 -26 -10
-10 0 -19 -4 -19 -9 0 -18 22 -23 46 -10 31 16 34 59 4 59 -11 0 -20 -4 -20
-10z"/>
<path d="M233 4008 c-65 -10 -86 -28 -33 -28 17 0 30 -4 30 -10 0 -5 -22 -10
-50 -10 -51 0 -70 -15 -70 -54 0 -24 19 -19 32 9 9 20 18 25 50 25 38 0 38 0
38 -41 0 -55 24 -47 28 9 2 29 8 42 18 42 11 0 13 -6 9 -22 -6 -16 -4 -20 8
-15 8 3 35 9 61 12 47 7 58 23 32 44 -9 7 -33 9 -70 5 -39 -5 -56 -3 -56 5 0
6 14 11 31 11 19 0 29 4 27 12 -6 16 -14 17 -85 6z m112 -58 c-3 -5 -11 -10
-16 -10 -6 0 -7 5 -4 10 3 6 11 10 16 10 6 0 7 -4 4 -10z"/>
<path d="M170 3920 c0 -5 5 -10 11 -10 5 0 7 -4 4 -10 -3 -5 -15 -10 -26 -10
-10 0 -19 -4 -19 -9 0 -18 22 -23 46 -10 31 16 34 59 4 59 -11 0 -20 -4 -20
-10z"/>
<path d="M280 3891 c0 -11 39 -25 47 -18 3 3 2 10 -2 16 -8 13 -45 15 -45 2z"/>
<path d="M233 3558 c-65 -10 -86 -28 -33 -28 17 0 30 -4 30 -10 0 -5 -22 -10
-50 -10 -51 0 -70 -15 -70 -54 0 -24 19 -19 32 9 9 20 18 25 50 25 38 0 38 0
38 -41 0 -55 24 -47 28 9 2 29 8 42 18 42 11 0 13 -6 9 -22 -6 -16 -4 -20 8
-15 8 3 35 9 61 12 47 7 58 23 32 44 -9 7 -33 9 -70 5 -39 -5 -56 -3 -56 5 0
6 14 11 31 11 19 0 29 4 27 12 -6 16 -14 17 -85 6z m112 -58 c-3 -5 -11 -10
-16 -10 -6 0 -7 5 -4 10 3 6 11 10 16 10 6 0 7 -4 4 -10z"/>
<path d="M170 3470 c0 -5 5 -10 11 -10 5 0 7 -4 4 -10 -3 -5 -15 -10 -26 -10
-25 0 -25 -20 1 -27 26 -7 25 -9 -6 -50 -35 -46 -22 -55 21 -13 36 35 45 64
23 73 -10 4 -10 6 0 6 6 1 12 12 12 26 0 18 -5 25 -20 25 -11 0 -20 -4 -20
-10z"/>
<path d="M280 3441 c0 -11 39 -25 47 -18 3 3 2 10 -2 16 -8 13 -45 15 -45 2z"/>
<path d="M233 3108 c-65 -10 -86 -28 -33 -28 17 0 30 -4 30 -10 0 -5 -22 -10
-50 -10 -51 0 -70 -15 -70 -54 0 -24 19 -19 32 9 9 20 18 25 50 25 38 0 38 0
38 -41 0 -55 24 -47 28 9 2 29 8 42 18 42 11 0 13 -6 9 -22 -6 -16 -4 -20 8
-15 8 3 35 9 61 12 47 7 58 23 32 44 -9 7 -33 9 -70 5 -39 -5 -56 -3 -56 5 0
6 14 11 31 11 19 0 29 4 27 12 -6 16 -14 17 -85 6z m112 -58 c-3 -5 -11 -10
-16 -10 -6 0 -7 5 -4 10 3 6 11 10 16 10 6 0 7 -4 4 -10z"/>
<path d="M170 3020 c0 -5 5 -10 11 -10 5 0 7 -4 4 -10 -3 -5 -15 -10 -26 -10
-25 0 -25 -20 1 -27 26 -7 25 -9 -6 -50 -35 -45 -22 -55 19 -15 23 22 43 32
65 32 18 0 32 5 32 10 0 6 -12 10 -26 10 -14 0 -32 7 -40 15 -9 8 -11 15 -5
15 6 0 11 11 11 25 0 18 -5 25 -20 25 -11 0 -20 -4 -20 -10z"/>
<path d="M280 2991 c0 -11 39 -25 47 -18 3 3 2 10 -2 16 -8 13 -45 15 -45 2z"/>
<path d="M280 2950 c0 -5 5 -10 10 -10 18 0 10 -50 -11 -71 -22 -22 -13 -47
14 -36 16 6 42 100 32 117 -8 13 -45 13 -45 0z"/>
<path d="M233 2658 c-65 -10 -86 -28 -33 -28 17 0 30 -4 30 -10 0 -5 -22 -10
-50 -10 -51 0 -70 -15 -70 -54 0 -24 19 -19 32 9 9 20 18 25 50 25 38 0 38 0
38 -41 0 -55 24 -47 28 9 2 29 8 42 18 42 11 0 13 -6 9 -22 -6 -16 -4 -20 8
-15 8 3 35 9 61 12 47 7 58 23 32 44 -9 7 -33 9 -70 5 -39 -5 -56 -3 -56 5 0
6 14 11 31 11 19 0 29 4 27 12 -6 16 -14 17 -85 6z m112 -58 c-3 -5 -11 -10
-16 -10 -6 0 -7 5 -4 10 3 6 11 10 16 10 6 0 7 -4 4 -10z"/>
<path d="M170 2570 c0 -5 5 -10 11 -10 5 0 7 -4 4 -10 -3 -5 -15 -10 -26 -10
-25 0 -25 -20 1 -27 26 -7 25 -9 -6 -50 -35 -45 -22 -55 19 -15 23 22 43 32
65 32 18 0 32 5 32 10 0 6 -12 10 -26 10 -14 0 -32 7 -40 15 -9 8 -11 15 -5
15 6 0 11 11 11 25 0 18 -5 25 -20 25 -11 0 -20 -4 -20 -10z"/>
<path d="M280 2541 c0 -11 39 -25 47 -18 3 3 2 10 -2 16 -8 13 -45 15 -45 2z"/>
<path d="M280 2500 c0 -5 5 -10 10 -10 18 0 10 -50 -11 -71 -22 -22 -13 -47
14 -36 16 6 42 100 32 117 -8 13 -45 13 -45 0z"/>
<path d="M210 2459 c-11 -8 -12 -12 -2 -16 6 -2 12 -13 12 -24 0 -27 15 -23
29 8 10 21 9 28 -1 34 -17 11 -20 11 -38 -2z"/>
<path d="M233 2208 c-65 -10 -86 -28 -33 -28 17 0 30 -4 30 -10 0 -5 -22 -10
-50 -10 -51 0 -70 -15 -70 -54 0 -24 19 -19 32 9 9 20 18 25 50 25 38 0 38 0
38 -41 0 -55 24 -47 28 9 2 29 8 42 18 42 11 0 13 -6 9 -22 -6 -16 -4 -20 8
-15 8 3 35 9 61 12 47 7 58 23 32 44 -9 7 -33 9 -70 5 -39 -5 -56 -3 -56 5 0
6 14 11 31 11 19 0 29 4 27 12 -6 16 -14 17 -85 6z m112 -58 c-3 -5 -11 -10
-16 -10 -6 0 -7 5 -4 10 3 6 11 10 16 10 6 0 7 -4 4 -10z"/>
<path d="M170 2120 c0 -5 5 -10 11 -10 5 0 7 -4 4 -10 -3 -5 -15 -10 -26 -10
-25 0 -25 -20 1 -27 26 -7 25 -9 -6 -50 -35 -45 -22 -55 19 -15 23 22 43 32
65 32 18 0 32 5 32 10 0 6 -12 10 -26 10 -14 0 -32 7 -40 15 -9 8 -11 15 -5
15 6 0 11 11 11 25 0 18 -5 25 -20 25 -11 0 -20 -4 -20 -10z"/>
<path d="M280 2091 c0 -11 39 -25 47 -18 3 3 2 10 -2 16 -8 13 -45 15 -45 2z"/>
<path d="M280 2050 c0 -5 5 -10 10 -10 18 0 10 -50 -11 -71 -22 -22 -13 -47
14 -36 16 6 42 100 32 117 -8 13 -45 13 -45 0z"/>
<path d="M210 2010 c-13 -9 -13 -11 0 -20 13 -9 13 -11 0 -20 -8 -5 -21 -10
-27 -10 -7 0 -13 -4 -13 -10 0 -11 15 -12 46 -4 28 7 51 54 32 65 -17 11 -20
11 -38 -1z"/>
<path d="M233 1758 c-65 -10 -86 -28 -33 -28 17 0 30 -4 30 -10 0 -5 -22 -10
-50 -10 -51 0 -70 -15 -70 -54 0 -24 19 -19 32 9 9 20 18 25 50 25 38 0 38 0
38 -41 0 -55 24 -47 28 9 2 29 8 42 18 42 11 0 13 -6 9 -22 -6 -16 -4 -20 8
-15 8 3 35 9 61 12 47 7 58 23 32 44 -9 7 -33 9 -70 5 -39 -5 -56 -3 -56 5 0
6 14 11 31 11 19 0 29 4 27 12 -6 16 -14 17 -85 6z m112 -58 c-3 -5 -11 -10
-16 -10 -6 0 -7 5 -4 10 3 6 11 10 16 10 6 0 7 -4 4 -10z"/>
<path d="M170 1670 c0 -5 5 -10 11 -10 5 0 7 -4 4 -10 -3 -5 -15 -10 -26 -10
-25 0 -25 -20 1 -27 25 -7 25 -9 -5 -49 -29 -37 -31 -49 -10 -40 12 4 15 -4
15 -39 0 -42 1 -44 38 -54 45 -13 94 -14 146 -2 49 12 59 22 50 55 -7 31 -20
34 -27 6 -9 -34 -97 -52 -164 -34 -32 9 -29 31 6 39 34 7 61 53 39 66 -17 11
-20 11 -38 -1 -13 -9 -13 -11 0 -20 13 -9 13 -11 0 -20 -23 -15 -29 -12 -26
13 4 37 15 47 52 47 19 0 34 5 34 10 0 6 -12 10 -26 10 -14 0 -32 7 -40 15 -9
8 -11 15 -5 15 6 0 11 11 11 25 0 18 -5 25 -20 25 -11 0 -20 -4 -20 -10z"/>
<path d="M280 1641 c0 -11 39 -25 47 -18 3 3 2 10 -2 16 -8 13 -45 15 -45 2z"/>
<path d="M280 1600 c0 -5 5 -10 10 -10 18 0 10 -50 -11 -71 -22 -22 -13 -47
14 -36 16 6 42 100 32 117 -8 13 -45 13 -45 0z"/>
</g>
</svg>
