<?xml version="1.0" standalone="no"?>
<!DOCTYPE svg PUBLIC "-//W3C//DTD SVG 20010904//EN"
 "http://www.w3.org/TR/2001/REC-SVG-20010904/DTD/svg10.dtd">
<svg version="1.0" xmlns="http://www.w3.org/2000/svg"
 width="50.000000pt" height="725.000000pt" viewBox="0 0 50.000000 725.000000"
 preserveAspectRatio="xMidYMid meet">
<metadata>
Created by potrace 1.16, written by Peter Selinger 2001-2019
</metadata>
<g transform="translate(0.000000,725.000000) scale(0.100000,-0.100000)"
fill="#000000" stroke="none">
<path d="M213 7153 c-24 -2 -43 -8 -43 -14 0 -10 66 -12 123 -3 20 4 37 11 37
15 0 9 -33 9 -117 2z"/>
<path d="M213 6703 c-24 -2 -43 -8 -43 -14 0 -10 66 -12 123 -3 20 4 37 11 37
15 0 9 -33 9 -117 2z"/>
<path d="M110 6630 c-14 -34 -9 -46 15 -37 16 7 22 67 6 67 -5 0 -14 -14 -21
-30z"/>
<path d="M213 6253 c-24 -2 -43 -8 -43 -14 0 -10 66 -12 123 -3 20 4 37 11 37
15 0 9 -33 9 -117 2z"/>
<path d="M283 6213 c-29 -2 -53 -9 -53 -15 0 -7 21 -9 60 -6 55 4 60 3 54 -14
-5 -16 -2 -18 23 -12 15 4 33 11 38 16 13 13 -22 39 -49 36 -12 -1 -45 -3 -73
-5z"/>
<path d="M112 6185 c-16 -35 -15 -45 4 -45 9 0 18 9 21 20 4 16 14 20 44 20
22 0 39 5 39 10 0 6 -15 10 -34 10 -19 0 -41 2 -48 5 -9 4 -19 -4 -26 -20z"/>
<path d="M213 5803 c-49 -5 -59 -23 -13 -23 l30 0 0 -66 c0 -48 3 -65 13 -62
6 3 13 23 15 46 3 39 5 42 32 42 15 0 36 3 45 7 14 5 16 2 10 -16 -6 -20 -4
-21 22 -15 42 10 51 23 28 40 -14 11 -34 13 -77 8 -37 -4 -58 -3 -58 4 0 12
24 22 51 22 10 0 19 5 19 10 0 10 -31 10 -117 3z"/>
<path d="M112 5735 c-16 -35 -15 -45 4 -45 9 0 18 9 21 20 4 16 14 20 44 20
22 0 39 5 39 10 0 6 -15 10 -34 10 -19 0 -41 2 -48 5 -9 4 -19 -4 -26 -20z"/>
<path d="M213 5353 c-49 -5 -59 -23 -13 -23 l30 0 0 -66 c0 -48 3 -65 13 -62
6 3 13 23 15 46 3 39 5 42 32 42 15 0 36 3 45 7 14 5 16 2 10 -16 -6 -20 -4
-21 22 -15 42 10 51 23 28 40 -14 11 -34 13 -77 8 -37 -4 -58 -3 -58 4 0 12
24 22 51 22 10 0 19 5 19 10 0 10 -31 10 -117 3z"/>
<path d="M112 5285 c-16 -35 -15 -45 4 -45 9 0 18 9 21 20 4 16 14 20 44 20
22 0 39 5 39 10 0 6 -15 10 -34 10 -19 0 -41 2 -48 5 -9 4 -19 -4 -26 -20z"/>
<path d="M170 5261 c0 -5 7 -12 16 -15 22 -9 24 -8 24 9 0 8 -9 15 -20 15 -11
0 -20 -4 -20 -9z"/>
<path d="M213 4903 c-49 -5 -59 -23 -13 -23 l30 0 0 -66 c0 -48 3 -65 13 -62
6 3 13 23 15 46 3 39 5 42 32 42 15 0 36 3 45 7 14 5 16 2 10 -16 -6 -20 -4
-21 22 -15 42 10 51 23 28 40 -14 11 -34 13 -77 8 -37 -4 -58 -3 -58 4 0 12
24 22 51 22 10 0 19 5 19 10 0 10 -31 10 -117 3z"/>
<path d="M112 4835 c-16 -35 -15 -45 4 -45 9 0 18 9 21 20 4 16 14 20 44 20
22 0 39 5 39 10 0 6 -15 10 -34 10 -19 0 -41 2 -48 5 -9 4 -19 -4 -26 -20z"/>
<path d="M170 4810 c0 -5 5 -10 11 -10 5 0 7 -4 4 -10 -3 -5 -15 -10 -26 -10
-10 0 -19 -4 -19 -9 0 -18 18 -21 44 -10 33 15 37 59 6 59 -11 0 -20 -4 -20
-10z"/>
<path d="M213 4453 c-49 -5 -59 -23 -13 -23 l30 0 0 -66 c0 -48 3 -65 13 -62
6 3 13 23 15 46 3 34 7 42 23 42 16 0 19 -4 14 -22 -6 -17 -4 -20 10 -15 9 4
19 7 21 7 2 0 4 9 4 20 0 11 5 20 11 20 6 0 8 -9 4 -20 -6 -19 -3 -20 22 -14
42 10 51 23 28 40 -14 11 -34 13 -77 8 -37 -4 -58 -3 -58 4 0 12 24 22 51 22
10 0 19 5 19 10 0 10 -31 10 -117 3z"/>
<path d="M112 4385 c-16 -35 -15 -45 4 -45 9 0 18 9 21 20 4 16 14 20 44 20
22 0 39 5 39 10 0 6 -15 10 -34 10 -19 0 -41 2 -48 5 -9 4 -19 -4 -26 -20z"/>
<path d="M170 4360 c0 -5 5 -10 11 -10 5 0 7 -4 4 -10 -3 -5 -15 -10 -26 -10
-10 0 -19 -4 -19 -9 0 -18 18 -21 44 -10 33 15 37 59 6 59 -11 0 -20 -4 -20
-10z"/>
<path d="M213 4003 c-49 -5 -59 -23 -13 -23 l30 0 0 -66 c0 -48 3 -65 13 -62
6 3 13 23 15 46 3 34 7 42 23 42 16 0 19 -4 14 -22 -6 -17 -4 -20 10 -15 9 4
19 7 21 7 2 0 4 9 4 20 0 11 5 20 11 20 6 0 8 -9 4 -20 -6 -19 -3 -20 22 -14
42 10 51 23 28 40 -14 11 -34 13 -77 8 -37 -4 -58 -3 -58 4 0 12 24 22 51 22
10 0 19 5 19 10 0 10 -31 10 -117 3z"/>
<path d="M112 3935 c-16 -35 -15 -45 4 -45 9 0 18 9 21 20 4 16 14 20 44 20
22 0 39 5 39 10 0 6 -15 10 -34 10 -19 0 -41 2 -48 5 -9 4 -19 -4 -26 -20z"/>
<path d="M170 3910 c0 -5 5 -10 11 -10 5 0 7 -4 4 -10 -3 -5 -15 -10 -26 -10
-10 0 -19 -4 -19 -9 0 -18 18 -21 44 -10 33 15 37 59 6 59 -11 0 -20 -4 -20
-10z"/>
<path d="M292 3878 c3 -7 15 -15 27 -16 16 -3 22 1 19 10 -3 7 -15 15 -27 16
-16 3 -22 -1 -19 -10z"/>
<path d="M213 3553 c-49 -5 -59 -23 -13 -23 l30 0 0 -66 c0 -48 3 -65 13 -62
6 3 13 23 15 46 3 34 7 42 23 42 16 0 19 -4 14 -22 -6 -17 -4 -20 10 -15 9 4
19 7 21 7 2 0 4 9 4 20 0 11 5 20 11 20 6 0 8 -9 4 -20 -6 -19 -3 -20 22 -14
42 10 51 23 28 40 -14 11 -34 13 -77 8 -37 -4 -58 -3 -58 4 0 12 24 22 51 22
10 0 19 5 19 10 0 10 -31 10 -117 3z"/>
<path d="M112 3485 c-16 -35 -15 -45 4 -45 9 0 18 9 21 20 4 16 14 20 44 20
22 0 39 5 39 10 0 6 -15 10 -34 10 -19 0 -41 2 -48 5 -9 4 -19 -4 -26 -20z"/>
<path d="M170 3460 c0 -5 5 -10 11 -10 5 0 7 -4 4 -10 -3 -5 -15 -10 -26 -10
-10 0 -19 -4 -19 -9 0 -18 18 -21 44 -10 33 15 37 59 6 59 -11 0 -20 -4 -20
-10z"/>
<path d="M292 3428 c3 -7 15 -15 27 -16 16 -3 22 1 19 10 -3 7 -15 15 -27 16
-16 3 -22 -1 -19 -10z"/>
<path d="M155 3353 c10 -59 15 -73 27 -73 10 0 3 84 -9 103 -13 21 -23 3 -18
-30z"/>
<path d="M213 3103 c-49 -5 -59 -23 -13 -23 l30 0 0 -66 c0 -48 3 -65 13 -62
6 3 13 23 15 46 3 34 7 42 23 42 16 0 19 -4 14 -22 -6 -17 -4 -20 10 -15 9 4
19 7 21 7 2 0 4 9 4 20 0 11 5 20 11 20 6 0 8 -9 4 -20 -6 -19 -3 -20 22 -14
42 10 51 23 28 40 -14 11 -34 13 -77 8 -37 -4 -58 -3 -58 4 0 12 24 22 51 22
10 0 19 5 19 10 0 10 -31 10 -117 3z"/>
<path d="M112 3035 c-16 -35 -15 -45 4 -45 9 0 18 9 21 20 4 16 14 20 44 20
22 0 39 5 39 10 0 6 -15 10 -34 10 -19 0 -41 2 -48 5 -9 4 -19 -4 -26 -20z"/>
<path d="M170 3010 c0 -5 5 -10 11 -10 5 0 7 -4 4 -10 -3 -5 -15 -10 -26 -10
-10 0 -19 -4 -19 -9 0 -18 18 -21 44 -10 33 15 37 59 6 59 -11 0 -20 -4 -20
-10z"/>
<path d="M292 2978 c3 -7 15 -15 27 -16 16 -3 22 1 19 10 -3 7 -15 15 -27 16
-16 3 -22 -1 -19 -10z"/>
<path d="M260 2940 c0 -5 11 -10 25 -10 24 0 24 -2 18 -46 -5 -36 -3 -46 7
-42 16 5 43 77 36 95 -6 15 -86 18 -86 3z"/>
<path d="M155 2903 c10 -59 15 -73 27 -73 7 0 8 16 4 45 -7 43 -6 45 18 45 14
0 26 5 26 10 0 6 -18 10 -40 10 l-41 0 6 -37z"/>
<path d="M213 2653 c-49 -5 -59 -23 -13 -23 l30 0 0 -66 c0 -48 3 -65 13 -62
6 3 13 23 15 46 3 34 7 42 23 42 16 0 19 -4 14 -22 -6 -17 -4 -20 10 -15 9 4
19 7 21 7 2 0 4 9 4 20 0 11 5 20 11 20 6 0 8 -9 4 -20 -6 -19 -3 -20 22 -14
42 10 51 23 28 40 -14 11 -34 13 -77 8 -37 -4 -58 -3 -58 4 0 12 24 22 51 22
10 0 19 5 19 10 0 10 -31 10 -117 3z"/>
<path d="M112 2585 c-16 -35 -15 -45 4 -45 9 0 18 9 21 20 4 16 14 20 44 20
22 0 39 5 39 10 0 6 -15 10 -34 10 -19 0 -41 2 -48 5 -9 4 -19 -4 -26 -20z"/>
<path d="M170 2560 c0 -5 5 -10 11 -10 5 0 7 -4 4 -10 -3 -5 -15 -10 -26 -10
-10 0 -19 -4 -19 -9 0 -18 18 -21 44 -10 33 15 37 59 6 59 -11 0 -20 -4 -20
-10z"/>
<path d="M292 2528 c3 -7 15 -15 27 -16 16 -3 22 1 19 10 -3 7 -15 15 -27 16
-16 3 -22 -1 -19 -10z"/>
<path d="M260 2490 c0 -5 11 -10 25 -10 38 0 30 -17 -12 -24 -56 -9 -93 -7
-93 4 0 6 11 10 25 10 14 0 25 5 25 10 0 6 -18 10 -40 10 l-41 0 6 -37 c10
-57 15 -73 26 -73 5 0 9 11 9 25 0 22 5 25 33 25 17 0 42 3 55 6 19 5 22 2 22
-21 0 -16 5 -25 12 -23 14 5 40 78 34 95 -6 15 -86 18 -86 3z"/>
<path d="M213 2203 c-49 -5 -59 -23 -13 -23 l30 0 0 -66 c0 -48 3 -65 13 -62
6 3 13 23 15 46 3 34 7 42 23 42 16 0 19 -4 14 -22 -6 -17 -4 -20 10 -15 9 4
19 7 21 7 2 0 4 9 4 20 0 11 5 20 11 20 6 0 8 -9 4 -20 -6 -19 -3 -20 22 -14
42 10 51 23 28 40 -14 11 -34 13 -77 8 -37 -4 -58 -3 -58 4 0 12 24 22 51 22
10 0 19 5 19 10 0 10 -31 10 -117 3z"/>
<path d="M112 2135 c-16 -35 -15 -45 4 -45 9 0 18 9 21 20 4 16 14 20 44 20
22 0 39 5 39 10 0 6 -15 10 -34 10 -19 0 -41 2 -48 5 -9 4 -19 -4 -26 -20z"/>
<path d="M170 2110 c0 -5 5 -10 11 -10 5 0 7 -4 4 -10 -3 -5 -15 -10 -26 -10
-10 0 -19 -4 -19 -9 0 -18 18 -21 44 -10 33 15 37 59 6 59 -11 0 -20 -4 -20
-10z"/>
<path d="M292 2078 c3 -7 15 -15 27 -16 16 -3 22 1 19 10 -3 7 -15 15 -27 16
-16 3 -22 -1 -19 -10z"/>
<path d="M260 2040 c0 -5 11 -10 25 -10 38 0 30 -17 -12 -24 -56 -9 -93 -7
-93 4 0 6 11 10 25 10 14 0 25 5 25 10 0 6 -18 10 -40 10 l-41 0 6 -37 c13
-72 9 -69 83 -65 37 2 72 5 78 7 13 4 37 82 29 95 -8 13 -85 13 -85 0z m38
-62 c-5 -16 -108 -24 -108 -9 0 5 19 12 43 14 23 2 48 4 55 5 8 1 12 -4 10
-10z"/>
<path d="M213 1753 c-49 -5 -59 -23 -13 -23 l30 0 0 -66 c0 -48 3 -65 13 -62
6 3 13 23 15 46 3 34 7 42 23 42 16 0 19 -4 14 -22 -6 -17 -4 -20 10 -15 9 4
19 7 21 7 2 0 4 9 4 20 0 11 5 20 11 20 6 0 8 -9 4 -20 -6 -19 -3 -20 22 -14
42 10 51 23 28 40 -14 11 -34 13 -77 8 -37 -4 -58 -3 -58 4 0 12 24 22 51 22
10 0 19 5 19 10 0 10 -31 10 -117 3z"/>
<path d="M112 1685 c-16 -35 -15 -45 4 -45 9 0 18 9 21 20 4 16 14 20 44 20
22 0 39 5 39 10 0 6 -15 10 -34 10 -19 0 -41 2 -48 5 -9 4 -19 -4 -26 -20z"/>
<path d="M170 1660 c0 -5 5 -10 11 -10 5 0 7 -4 4 -10 -3 -5 -15 -10 -26 -10
-10 0 -19 -4 -19 -9 0 -18 18 -21 44 -10 33 15 37 59 6 59 -11 0 -20 -4 -20
-10z"/>
<path d="M292 1628 c3 -7 15 -15 27 -16 16 -3 22 1 19 10 -3 7 -15 15 -27 16
-16 3 -22 -1 -19 -10z"/>
<path d="M260 1590 c0 -5 11 -10 25 -10 14 0 25 -4 25 -10 0 -16 -47 -12 -54
5 -4 11 -20 15 -56 15 l-51 0 6 -37 c12 -71 14 -73 45 -67 25 6 29 3 32 -22 2
-23 9 -30 38 -36 36 -7 98 -1 119 12 8 4 10 17 5 33 -7 32 -20 35 -29 7 -7
-23 -70 -38 -94 -23 -28 18 -23 32 15 35 33 3 39 7 51 43 7 22 11 45 9 52 -6
15 -86 18 -86 3z m-30 -30 c0 -5 -11 -10 -25 -10 -14 0 -25 5 -25 10 0 6 11
10 25 10 14 0 25 -4 25 -10z m68 -32 c-5 -16 -48 -24 -48 -10 0 11 17 20 38
21 8 1 12 -5 10 -11z m-68 -8 c0 -5 -9 -10 -20 -10 -11 0 -20 5 -20 10 0 6 9
10 20 10 11 0 20 -4 20 -10z"/>
</g>
</svg>
