<?xml version="1.0" standalone="no"?>
<!DOCTYPE svg PUBLIC "-//W3C//DTD SVG 20010904//EN"
 "http://www.w3.org/TR/2001/REC-SVG-20010904/DTD/svg10.dtd">
<svg version="1.0" xmlns="http://www.w3.org/2000/svg"
 width="50.000000pt" height="725.000000pt" viewBox="0 0 50.000000 725.000000"
 preserveAspectRatio="xMidYMid meet">
<metadata>
Created by potrace 1.16, written by Peter Selinger 2001-2019
</metadata>
<g transform="translate(0.000000,725.000000) scale(0.100000,-0.100000)"
fill="#000000" stroke="none">
<path d="M218 7163 c-41 -5 -53 -23 -14 -23 46 0 116 13 116 21 0 9 -30 9
-102 2z"/>
<path d="M218 6713 c-41 -5 -53 -23 -14 -23 46 0 116 13 116 21 0 9 -30 9
-102 2z"/>
<path d="M113 6643 c-17 -35 -16 -43 2 -43 17 0 39 46 29 61 -9 15 -18 10 -31
-18z"/>
<path d="M218 6263 c-41 -5 -53 -23 -14 -23 46 0 116 13 116 21 0 9 -30 9
-102 2z"/>
<path d="M313 6233 c-54 -5 -56 -23 -3 -23 33 0 38 -3 33 -17 -5 -13 -2 -15
11 -10 10 4 24 7 32 7 21 0 17 28 -5 40 -11 5 -21 9 -23 8 -2 -1 -22 -3 -45
-5z"/>
<path d="M113 6193 c-17 -35 -16 -43 2 -43 9 0 20 11 25 25 8 22 15 25 60 25
27 0 50 5 50 10 0 6 -27 10 -62 10 -59 0 -64 -2 -75 -27z"/>
<path d="M218 5813 c-42 -5 -52 -23 -13 -23 14 0 25 -4 25 -10 0 -5 -24 -10
-52 -10 -48 0 -54 -3 -65 -27 -17 -35 -16 -43 2 -43 9 0 20 11 25 25 8 21 16
25 50 25 l40 0 0 -40 c0 -29 4 -40 15 -40 12 0 15 14 15 65 l0 65 30 0 c17 0
30 5 30 10 0 10 -28 11 -102 3z"/>
<path d="M313 5783 c-54 -5 -56 -23 -3 -23 33 0 38 -3 33 -17 -5 -13 -2 -15
11 -10 10 4 24 7 32 7 21 0 17 28 -5 40 -11 5 -21 9 -23 8 -2 -1 -22 -3 -45
-5z"/>
<path d="M218 5363 c-42 -5 -52 -23 -13 -23 14 0 25 -4 25 -10 0 -5 -24 -10
-52 -10 -48 0 -54 -3 -65 -27 -17 -35 -16 -43 2 -43 9 0 20 11 25 25 8 21 16
25 50 25 l40 0 0 -40 c0 -29 4 -40 15 -40 12 0 15 14 15 65 l0 65 30 0 c17 0
30 5 30 10 0 10 -28 11 -102 3z"/>
<path d="M313 5333 c-54 -5 -56 -23 -3 -23 33 0 38 -3 33 -17 -5 -13 -2 -15
11 -10 10 4 24 7 32 7 21 0 17 28 -5 40 -11 5 -21 9 -23 8 -2 -1 -22 -3 -45
-5z"/>
<path d="M172 5278 c3 -7 13 -15 22 -16 12 -3 17 1 14 10 -3 7 -13 15 -22 16
-12 3 -17 -1 -14 -10z"/>
<path d="M218 4913 c-42 -5 -52 -23 -13 -23 14 0 25 -4 25 -10 0 -5 -24 -10
-52 -10 -48 0 -54 -3 -65 -27 -17 -35 -16 -43 2 -43 9 0 20 11 25 25 8 21 16
25 50 25 l40 0 0 -40 c0 -29 4 -40 15 -40 12 0 15 14 15 65 l0 65 30 0 c17 0
30 5 30 10 0 10 -28 11 -102 3z"/>
<path d="M313 4883 c-54 -5 -56 -23 -3 -23 33 0 38 -3 33 -17 -5 -13 -2 -15
11 -10 10 4 24 7 32 7 21 0 17 28 -5 40 -11 5 -21 9 -23 8 -2 -1 -22 -3 -45
-5z"/>
<path d="M170 4830 c0 -5 7 -13 16 -18 14 -8 12 -10 -10 -16 -14 -3 -26 -11
-26 -16 0 -14 32 -12 53 4 15 12 16 18 7 35 -11 21 -40 29 -40 11z"/>
<path d="M218 4463 c-42 -5 -52 -23 -13 -23 14 0 25 -4 25 -10 0 -5 -24 -10
-52 -10 -48 0 -54 -3 -65 -27 -17 -35 -16 -43 2 -43 9 0 20 11 25 25 8 21 16
25 50 25 l40 0 0 -40 c0 -29 4 -40 15 -40 12 0 15 14 15 65 l0 65 30 0 c17 0
30 5 30 10 0 10 -28 11 -102 3z"/>
<path d="M313 4433 c-40 -4 -62 -23 -27 -23 14 0 14 -3 4 -15 -16 -20 -7 -29
20 -20 13 4 19 12 16 21 -3 8 1 14 9 14 9 0 12 -6 8 -17 -5 -13 -2 -15 11 -10
10 4 24 7 32 7 21 0 17 28 -5 40 -11 5 -21 9 -23 8 -2 -1 -22 -3 -45 -5z"/>
<path d="M170 4380 c0 -5 7 -13 16 -18 14 -8 12 -10 -10 -16 -14 -3 -26 -11
-26 -16 0 -14 32 -12 53 4 15 12 16 18 7 35 -11 21 -40 29 -40 11z"/>
<path d="M218 4013 c-42 -5 -52 -23 -13 -23 14 0 25 -4 25 -10 0 -5 -24 -10
-52 -10 -48 0 -54 -3 -65 -27 -17 -35 -16 -43 2 -43 9 0 20 11 25 25 8 21 16
25 50 25 l40 0 0 -40 c0 -29 4 -40 15 -40 12 0 15 14 15 65 l0 65 30 0 c17 0
30 5 30 10 0 10 -28 11 -102 3z"/>
<path d="M313 3983 c-40 -4 -62 -23 -27 -23 14 0 14 -3 4 -15 -16 -20 -7 -29
20 -20 13 4 19 12 16 21 -3 8 1 14 9 14 9 0 12 -6 8 -17 -5 -13 -2 -15 11 -10
10 4 24 7 32 7 21 0 17 28 -5 40 -11 5 -21 9 -23 8 -2 -1 -22 -3 -45 -5z"/>
<path d="M170 3930 c0 -5 7 -13 16 -18 14 -8 12 -10 -10 -16 -14 -3 -26 -11
-26 -16 0 -14 32 -12 53 4 15 12 16 18 7 35 -11 21 -40 29 -40 11z"/>
<path d="M280 3901 c0 -11 39 -25 47 -18 3 3 2 10 -2 16 -8 13 -45 15 -45 2z"/>
<path d="M218 3563 c-42 -5 -52 -23 -13 -23 14 0 25 -4 25 -10 0 -5 -24 -10
-52 -10 -48 0 -54 -3 -65 -27 -17 -35 -16 -43 2 -43 9 0 20 11 25 25 8 21 16
25 50 25 l40 0 0 -40 c0 -29 4 -40 15 -40 12 0 15 14 15 65 l0 65 30 0 c17 0
30 5 30 10 0 10 -28 11 -102 3z"/>
<path d="M313 3533 c-40 -4 -62 -23 -27 -23 14 0 14 -3 4 -15 -16 -20 -7 -29
20 -20 13 4 19 12 16 21 -3 8 1 14 9 14 9 0 12 -6 8 -17 -5 -13 -2 -15 11 -10
10 4 24 7 32 7 21 0 17 28 -5 40 -11 5 -21 9 -23 8 -2 -1 -22 -3 -45 -5z"/>
<path d="M170 3480 c0 -5 7 -13 16 -18 14 -8 12 -10 -10 -16 -14 -3 -26 -11
-26 -16 0 -14 32 -12 53 4 15 12 16 18 7 35 -11 21 -40 29 -40 11z"/>
<path d="M280 3451 c0 -5 9 -13 21 -16 16 -5 18 -10 8 -21 -6 -8 -18 -14 -25
-14 -8 0 -14 -5 -14 -11 0 -13 58 -5 73 10 13 13 -22 61 -44 61 -11 0 -19 -4
-19 -9z"/>
<path d="M218 3113 c-42 -5 -52 -23 -13 -23 14 0 25 -4 25 -10 0 -5 -24 -10
-52 -10 -48 0 -54 -3 -65 -27 -17 -35 -16 -43 2 -43 9 0 20 11 25 25 8 21 16
25 50 25 l40 0 0 -40 c0 -29 4 -40 15 -40 12 0 15 14 15 65 l0 65 30 0 c17 0
30 5 30 10 0 10 -28 11 -102 3z"/>
<path d="M313 3083 c-40 -4 -62 -23 -27 -23 14 0 14 -3 4 -15 -16 -20 -7 -29
20 -20 13 4 19 12 16 21 -3 8 1 14 9 14 9 0 12 -6 8 -17 -5 -13 -2 -15 11 -10
10 4 24 7 32 7 21 0 17 28 -5 40 -11 5 -21 9 -23 8 -2 -1 -22 -3 -45 -5z"/>
<path d="M170 3030 c0 -5 7 -13 16 -18 14 -8 12 -10 -10 -16 -14 -3 -26 -11
-26 -16 0 -14 32 -12 53 4 15 12 16 18 7 35 -11 21 -40 29 -40 11z"/>
<path d="M280 3001 c0 -5 9 -13 21 -16 16 -5 18 -10 8 -21 -6 -8 -18 -14 -25
-14 -8 0 -14 -5 -14 -11 0 -13 58 -5 73 10 13 13 -22 61 -44 61 -11 0 -19 -4
-19 -9z"/>
<path d="M293 2908 c-24 -5 -43 -14 -43 -20 0 -6 10 -8 23 -4 12 3 34 6 50 6
17 0 27 5 27 15 0 17 2 17 -57 3z"/>
<path d="M218 2663 c-42 -5 -52 -23 -13 -23 14 0 25 -4 25 -10 0 -5 -24 -10
-52 -10 -48 0 -54 -3 -65 -27 -17 -35 -16 -43 2 -43 9 0 20 11 25 25 8 21 16
25 50 25 l40 0 0 -40 c0 -29 4 -40 15 -40 12 0 15 14 15 65 l0 65 30 0 c17 0
30 5 30 10 0 10 -28 11 -102 3z"/>
<path d="M313 2633 c-40 -4 -62 -23 -27 -23 14 0 14 -3 4 -15 -16 -20 -7 -29
20 -20 13 4 19 12 16 21 -3 8 1 14 9 14 9 0 12 -6 8 -17 -5 -13 -2 -15 11 -10
10 4 24 7 32 7 21 0 17 28 -5 40 -11 5 -21 9 -23 8 -2 -1 -22 -3 -45 -5z"/>
<path d="M170 2580 c0 -5 7 -13 16 -18 14 -8 12 -10 -10 -16 -14 -3 -26 -11
-26 -16 0 -14 32 -12 53 4 15 12 16 18 7 35 -11 21 -40 29 -40 11z"/>
<path d="M280 2551 c0 -5 9 -13 21 -16 16 -5 18 -10 8 -21 -6 -8 -18 -14 -25
-14 -10 0 -13 -7 -8 -25 5 -19 2 -25 -10 -25 -9 0 -16 -4 -16 -10 0 -5 9 -10
20 -10 11 0 20 -7 20 -15 0 -8 5 -15 10 -15 6 0 10 9 10 20 0 13 7 20 20 20
11 0 20 7 20 16 0 11 -6 14 -20 9 -14 -5 -20 -2 -20 9 0 9 6 16 14 16 24 0 28
18 10 45 -16 24 -54 35 -54 16z"/>
<path d="M218 2213 c-42 -5 -52 -23 -13 -23 14 0 25 -4 25 -10 0 -5 -24 -10
-52 -10 -48 0 -54 -3 -65 -27 -17 -35 -16 -43 2 -43 9 0 20 11 25 25 8 21 16
25 50 25 l40 0 0 -40 c0 -29 4 -40 15 -40 12 0 15 14 15 65 l0 65 30 0 c17 0
30 5 30 10 0 10 -28 11 -102 3z"/>
<path d="M313 2183 c-40 -4 -62 -23 -27 -23 14 0 14 -3 4 -15 -16 -20 -7 -29
20 -20 13 4 19 12 16 21 -3 8 1 14 9 14 9 0 12 -6 8 -17 -5 -13 -2 -15 11 -10
10 4 24 7 32 7 21 0 17 28 -5 40 -11 5 -21 9 -23 8 -2 -1 -22 -3 -45 -5z"/>
<path d="M170 2130 c0 -5 7 -13 16 -18 14 -8 12 -10 -10 -16 -14 -3 -26 -11
-26 -16 0 -14 32 -12 53 4 15 12 16 18 7 35 -11 21 -40 29 -40 11z"/>
<path d="M280 2101 c0 -5 9 -13 21 -16 16 -5 18 -10 8 -21 -6 -8 -18 -14 -25
-14 -10 0 -13 -7 -8 -25 5 -19 2 -25 -10 -25 -9 0 -16 -4 -16 -10 0 -5 9 -10
20 -10 11 0 20 -4 20 -10 0 -5 -16 -10 -35 -10 -34 0 -48 -14 -22 -22 28 -9
148 4 144 15 -2 7 -18 12 -35 12 -19 0 -32 5 -32 12 0 7 9 13 20 13 11 0 20 7
20 16 0 11 -6 14 -20 9 -14 -5 -20 -2 -20 9 0 9 6 16 14 16 24 0 28 18 10 45
-16 24 -54 35 -54 16z"/>
<path d="M218 1763 c-42 -5 -52 -23 -13 -23 14 0 25 -4 25 -10 0 -5 -24 -10
-52 -10 -48 0 -54 -3 -65 -27 -17 -35 -16 -43 2 -43 9 0 20 11 25 25 8 21 16
25 50 25 l40 0 0 -40 c0 -29 4 -40 15 -40 12 0 15 14 15 65 l0 65 30 0 c17 0
30 5 30 10 0 10 -28 11 -102 3z"/>
<path d="M313 1733 c-40 -4 -62 -23 -27 -23 14 0 14 -3 4 -15 -16 -20 -7 -29
20 -20 13 4 19 12 16 21 -3 8 1 14 9 14 9 0 12 -6 8 -17 -5 -13 -2 -15 11 -10
10 4 24 7 32 7 21 0 17 28 -5 40 -11 5 -21 9 -23 8 -2 -1 -22 -3 -45 -5z"/>
<path d="M170 1680 c0 -5 8 -14 18 -19 13 -8 14 -10 2 -11 -8 0 -22 -5 -30
-10 -13 -8 -13 -11 -1 -19 11 -7 9 -10 -8 -16 -27 -8 -28 -29 -1 -22 16 4 18
2 10 -13 -22 -42 -2 -41 29 1 19 26 21 33 10 40 -11 8 -11 12 4 23 15 12 16
18 7 35 -11 21 -40 29 -40 11z"/>
<path d="M280 1651 c0 -5 9 -13 21 -16 16 -5 18 -10 8 -21 -6 -8 -18 -14 -25
-14 -10 0 -13 -7 -8 -25 5 -19 2 -25 -10 -25 -9 0 -16 -4 -16 -10 0 -5 9 -10
20 -10 11 0 20 -4 20 -10 0 -5 -16 -10 -35 -10 -34 0 -48 -14 -22 -22 28 -9
148 4 144 15 -2 7 -18 12 -35 12 -19 0 -32 5 -32 12 0 7 9 13 20 13 11 0 20 7
20 16 0 11 -6 14 -20 9 -14 -5 -20 -2 -20 9 0 9 6 16 14 16 24 0 28 18 10 45
-16 24 -54 35 -54 16z"/>
<path d="M218 1313 c-42 -5 -52 -23 -13 -23 14 0 25 -4 25 -10 0 -5 -24 -10
-52 -10 -48 0 -54 -3 -65 -27 -17 -35 -16 -43 2 -43 9 0 20 11 25 25 8 21 16
25 50 25 l40 0 0 -40 c0 -29 4 -40 15 -40 12 0 15 14 15 65 l0 65 30 0 c17 0
30 5 30 10 0 10 -28 11 -102 3z"/>
<path d="M313 1283 c-40 -4 -62 -23 -27 -23 14 0 14 -3 4 -15 -16 -20 -7 -29
20 -20 13 4 19 12 16 21 -3 8 1 14 9 14 9 0 12 -6 8 -17 -5 -13 -2 -15 11 -10
10 4 24 7 32 7 21 0 17 28 -5 40 -11 5 -21 9 -23 8 -2 -1 -22 -3 -45 -5z"/>
<path d="M170 1230 c0 -5 8 -14 18 -19 13 -8 14 -10 2 -11 -8 0 -22 -5 -30
-10 -13 -8 -13 -11 -1 -19 11 -7 9 -10 -8 -16 -27 -8 -28 -29 0 -22 19 5 20 4
5 -18 -9 -14 -16 -29 -16 -35 0 -21 17 -9 44 32 21 32 24 43 14 50 -10 7 -9
11 5 22 15 12 16 18 7 35 -11 21 -40 29 -40 11z"/>
<path d="M280 1201 c0 -5 9 -13 21 -16 16 -5 18 -10 8 -21 -6 -8 -18 -14 -25
-14 -10 0 -13 -7 -8 -25 5 -19 2 -25 -10 -25 -9 0 -16 -4 -16 -10 0 -5 9 -10
20 -10 11 0 20 -4 20 -10 0 -5 -16 -10 -35 -10 -34 0 -48 -14 -22 -22 28 -9
148 4 144 15 -2 7 -18 12 -35 12 -19 0 -32 5 -32 12 0 7 9 13 20 13 11 0 20 7
20 16 0 11 -6 14 -20 9 -14 -5 -20 -2 -20 9 0 9 6 16 14 16 24 0 28 18 10 45
-16 24 -54 35 -54 16z"/>
<path d="M176 1076 c-3 -13 -22 -38 -42 -56 -41 -35 -40 -49 3 -27 32 17 73
68 73 92 0 24 -27 17 -34 -9z"/>
<path d="M218 863 c-42 -5 -52 -23 -13 -23 14 0 25 -4 25 -10 0 -5 -24 -10
-52 -10 -48 0 -54 -3 -65 -27 -17 -35 -16 -43 2 -43 9 0 20 11 25 25 8 21 16
25 50 25 l40 0 0 -40 c0 -29 4 -40 15 -40 12 0 15 14 15 65 l0 65 30 0 c17 0
30 5 30 10 0 10 -28 11 -102 3z"/>
<path d="M313 833 c-40 -4 -62 -23 -27 -23 14 0 14 -3 4 -15 -16 -20 -7 -29
20 -20 13 4 19 12 16 21 -3 8 1 14 9 14 9 0 12 -6 8 -17 -5 -13 -2 -15 11 -10
10 4 24 7 32 7 21 0 17 28 -5 40 -11 5 -21 9 -23 8 -2 -1 -22 -3 -45 -5z"/>
<path d="M170 780 c0 -5 8 -14 18 -19 13 -8 14 -10 2 -11 -8 0 -22 -5 -30 -10
-13 -8 -13 -11 -1 -19 11 -7 9 -10 -8 -16 -27 -8 -28 -29 0 -22 19 5 20 4 5
-18 -9 -14 -16 -29 -16 -35 0 -21 17 -9 44 32 21 32 24 43 14 50 -10 7 -9 11
5 22 15 12 16 18 7 35 -11 21 -40 29 -40 11z"/>
<path d="M280 751 c0 -5 9 -13 21 -16 16 -5 18 -10 8 -21 -6 -8 -18 -14 -25
-14 -10 0 -13 -7 -8 -25 5 -19 2 -25 -10 -25 -9 0 -16 -4 -16 -10 0 -5 9 -10
20 -10 11 0 20 -4 20 -10 0 -5 -16 -10 -35 -10 -34 0 -48 -14 -22 -22 28 -9
148 4 144 15 -2 7 -18 12 -35 12 -19 0 -32 5 -32 12 0 7 9 13 20 13 11 0 20 7
20 16 0 11 -6 14 -20 9 -14 -5 -20 -2 -20 9 0 9 6 16 14 16 24 0 28 18 10 45
-16 24 -54 35 -54 16z"/>
<path d="M176 626 c-5 -22 -10 -24 -46 -19 -26 4 -40 2 -40 -6 0 -6 15 -11 33
-11 l32 -1 -29 -25 c-38 -33 -26 -42 20 -15 l36 22 55 -26 c56 -25 89 -30 131
-19 42 12 26 34 -26 34 -66 0 -158 28 -143 43 16 16 14 47 -3 47 -8 0 -17 -11
-20 -24z"/>
</g>
</svg>
