<?xml version="1.0" standalone="no"?>
<!DOCTYPE svg PUBLIC "-//W3C//DTD SVG 20010904//EN"
 "http://www.w3.org/TR/2001/REC-SVG-20010904/DTD/svg10.dtd">
<svg version="1.0" xmlns="http://www.w3.org/2000/svg"
 width="50.000000pt" height="725.000000pt" viewBox="0 0 50.000000 725.000000"
 preserveAspectRatio="xMidYMid meet">
<metadata>
Created by potrace 1.16, written by Peter Selinger 2001-2019
</metadata>
<g transform="translate(0.000000,725.000000) scale(0.100000,-0.100000)"
fill="#000000" stroke="none">
<path d="M238 7168 c-82 -14 -74 -31 10 -23 37 4 69 9 71 11 5 4 -9 24 -17 23
-4 -1 -33 -6 -64 -11z"/>
<path d="M238 6718 c-82 -14 -74 -31 10 -23 37 4 69 9 71 11 5 4 -9 24 -17 23
-4 -1 -33 -6 -64 -11z"/>
<path d="M122 6655 c-16 -34 -15 -45 2 -45 15 0 26 21 26 51 0 27 -15 24 -28
-6z"/>
<path d="M238 6268 c-82 -14 -74 -31 10 -23 37 4 69 9 71 11 5 4 -9 24 -17 23
-4 -1 -33 -6 -64 -11z"/>
<path d="M280 6230 c0 -5 16 -10 35 -10 28 0 33 -3 28 -16 -5 -14 -2 -16 23
-10 36 9 38 11 31 31 -5 11 -21 15 -62 15 -30 0 -55 -4 -55 -10z"/>
<path d="M122 6205 c-16 -34 -15 -45 2 -45 8 0 17 9 21 19 6 21 33 31 88 31
20 0 37 5 37 10 0 6 -29 10 -68 10 -64 0 -70 -2 -80 -25z"/>
<path d="M238 5818 c-64 -11 -75 -25 -25 -31 20 -2 12 -4 -24 -5 -49 -2 -57
-5 -67 -27 -16 -34 -15 -45 2 -45 8 0 17 9 21 19 6 19 32 31 72 31 17 0 21 -5
20 -26 -1 -15 4 -29 11 -31 11 -4 18 32 14 80 -1 13 6 17 29 17 19 0 29 4 27
12 -6 16 -14 17 -80 6z"/>
<path d="M280 5780 c0 -5 16 -10 35 -10 28 0 33 -3 28 -16 -5 -14 -2 -16 23
-10 36 9 38 11 31 31 -5 11 -21 15 -62 15 -30 0 -55 -4 -55 -10z"/>
<path d="M238 5368 c-64 -11 -75 -25 -25 -31 20 -2 12 -4 -24 -5 -49 -2 -57
-5 -67 -27 -7 -14 -12 -30 -12 -35 0 -12 30 -14 30 -2 0 4 4 13 9 21 8 12 12
12 26 -2 20 -21 35 -22 35 -3 0 8 -8 17 -17 19 -10 3 -4 5 14 6 28 1 32 -2 30
-25 -1 -15 4 -29 11 -31 11 -4 18 32 14 80 -1 13 6 17 29 17 19 0 29 4 27 12
-6 16 -14 17 -80 6z"/>
<path d="M280 5330 c0 -5 16 -10 35 -10 28 0 33 -3 28 -16 -5 -14 -2 -16 23
-10 36 9 38 11 31 31 -5 11 -21 15 -62 15 -30 0 -55 -4 -55 -10z"/>
<path d="M238 4918 c-64 -11 -75 -25 -25 -31 20 -2 12 -4 -24 -5 -49 -2 -57
-5 -67 -27 -7 -14 -12 -30 -12 -35 0 -12 30 -14 30 -2 0 4 4 13 9 21 8 12 12
12 25 -2 15 -15 15 -17 -1 -26 -23 -12 -11 -25 16 -16 26 8 29 52 4 58 -10 3
-4 5 14 6 28 1 32 -2 30 -25 -1 -15 4 -29 11 -31 11 -4 18 32 14 80 -1 13 6
17 29 17 19 0 29 4 27 12 -6 16 -14 17 -80 6z"/>
<path d="M280 4880 c0 -5 16 -10 35 -10 28 0 33 -3 28 -16 -5 -14 -2 -16 23
-10 36 9 38 11 31 31 -5 11 -21 15 -62 15 -30 0 -55 -4 -55 -10z"/>
<path d="M238 4468 c-64 -11 -75 -25 -25 -31 20 -2 12 -4 -24 -5 -49 -2 -57
-5 -67 -27 -7 -14 -12 -30 -12 -35 0 -12 30 -14 30 -2 0 4 4 13 9 21 8 12 12
12 25 -2 15 -15 15 -17 -1 -26 -23 -12 -11 -25 16 -16 26 8 29 52 4 58 -10 3
-4 5 14 6 28 1 32 -2 30 -25 -1 -15 4 -29 11 -31 11 -4 18 32 14 80 -1 13 6
17 29 17 19 0 29 4 27 12 -6 16 -14 17 -80 6z"/>
<path d="M280 4430 c0 -5 5 -10 11 -10 8 0 7 -5 -1 -15 -16 -20 -10 -26 19
-18 13 3 20 11 17 19 -3 8 1 14 9 14 9 0 12 -6 8 -16 -5 -14 -2 -16 23 -10 36
9 38 11 31 31 -5 11 -21 15 -62 15 -30 0 -55 -4 -55 -10z"/>
<path d="M238 4018 c-64 -11 -75 -25 -25 -31 20 -2 12 -4 -24 -5 -49 -2 -57
-5 -67 -27 -7 -14 -12 -30 -12 -35 0 -12 30 -14 30 -2 0 4 4 13 9 21 8 12 12
12 25 -2 15 -15 15 -17 -1 -26 -23 -12 -11 -25 16 -16 26 8 29 52 4 58 -10 3
-4 5 14 6 28 1 32 -2 30 -25 -1 -15 4 -29 11 -31 11 -4 18 32 14 80 -1 13 6
17 29 17 19 0 29 4 27 12 -6 16 -14 17 -80 6z"/>
<path d="M280 3980 c0 -5 5 -10 11 -10 8 0 7 -5 -1 -15 -16 -20 -10 -26 19
-18 13 3 20 11 17 19 -3 8 1 14 9 14 9 0 12 -6 8 -16 -5 -14 -2 -16 23 -10 36
9 38 11 31 31 -5 11 -21 15 -62 15 -30 0 -55 -4 -55 -10z"/>
<path d="M280 3911 c0 -11 39 -25 47 -18 3 3 2 10 -2 16 -8 13 -45 15 -45 2z"/>
<path d="M238 3568 c-64 -11 -75 -25 -25 -31 20 -2 12 -4 -24 -5 -49 -2 -57
-5 -67 -27 -7 -14 -12 -30 -12 -35 0 -12 30 -14 30 -2 0 4 4 13 9 21 8 12 12
12 25 -2 15 -15 15 -17 -1 -26 -23 -12 -11 -25 16 -16 26 8 29 52 4 58 -10 3
-4 5 14 6 29 1 32 -2 30 -26 -1 -16 -6 -31 -11 -34 -11 -9 1 -29 18 -29 12 0
19 42 18 108 0 18 6 22 30 22 18 0 28 4 26 12 -6 16 -14 17 -80 6z"/>
<path d="M280 3530 c0 -5 5 -10 11 -10 8 0 7 -5 -1 -15 -16 -20 -10 -26 19
-18 13 3 20 11 17 19 -3 8 1 14 9 14 9 0 12 -6 8 -16 -5 -14 -2 -16 23 -10 36
9 38 11 31 31 -5 11 -21 15 -62 15 -30 0 -55 -4 -55 -10z"/>
<path d="M280 3461 c0 -11 39 -25 47 -18 3 3 2 10 -2 16 -8 13 -45 15 -45 2z"/>
<path d="M238 3118 c-64 -11 -75 -25 -25 -31 20 -2 12 -4 -24 -5 -49 -2 -57
-5 -67 -27 -7 -14 -12 -30 -12 -35 0 -12 30 -14 30 -2 0 4 4 13 9 21 8 12 12
12 25 -2 15 -15 15 -17 -1 -26 -23 -12 -11 -25 16 -16 26 8 29 52 4 58 -10 3
-4 5 13 6 28 1 31 -2 30 -29 -1 -16 -5 -30 -10 -30 -4 0 -6 -7 -2 -15 4 -11
-2 -15 -24 -15 -17 0 -30 -4 -30 -10 0 -11 37 -13 104 -4 53 8 61 21 14 26
-21 2 -32 8 -30 16 1 8 3 33 4 58 2 41 4 44 31 44 18 0 27 5 25 12 -6 16 -14
17 -80 6z"/>
<path d="M280 3080 c0 -5 5 -10 11 -10 8 0 7 -5 -1 -15 -16 -20 -10 -26 19
-18 13 3 20 11 17 19 -3 8 1 14 9 14 9 0 12 -6 8 -16 -5 -14 -2 -16 23 -10 36
9 38 11 31 31 -5 11 -21 15 -62 15 -30 0 -55 -4 -55 -10z"/>
<path d="M280 3011 c0 -11 39 -25 47 -18 3 3 2 10 -2 16 -8 13 -45 15 -45 2z"/>
<path d="M238 2668 c-64 -11 -75 -25 -25 -31 20 -2 12 -4 -24 -5 -49 -2 -57
-5 -67 -27 -7 -14 -12 -30 -12 -35 0 -12 30 -14 30 -2 0 4 4 13 9 21 8 12 12
12 25 -2 15 -15 15 -17 -1 -26 -23 -12 -11 -25 16 -16 26 8 29 52 4 58 -10 3
-4 5 13 6 28 1 31 -2 30 -29 -1 -16 -5 -30 -10 -30 -4 0 -6 -7 -2 -15 4 -11
-2 -15 -24 -15 -17 0 -30 -4 -30 -10 0 -5 6 -10 14 -10 8 0 18 -9 21 -20 8
-25 25 -26 25 -1 0 19 25 31 68 31 34 0 26 18 -10 22 -21 2 -32 8 -30 16 1 8
3 33 4 58 2 41 4 44 31 44 18 0 27 5 25 12 -6 16 -14 17 -80 6z"/>
<path d="M280 2630 c0 -5 5 -10 11 -10 8 0 7 -5 -1 -15 -16 -20 -10 -26 19
-18 13 3 20 11 17 19 -3 8 1 14 9 14 9 0 12 -6 8 -16 -5 -14 -2 -16 23 -10 36
9 38 11 31 31 -5 11 -21 15 -62 15 -30 0 -55 -4 -55 -10z"/>
<path d="M280 2561 c0 -11 39 -25 47 -18 3 3 2 10 -2 16 -8 13 -45 15 -45 2z"/>
<path d="M238 2218 c-64 -11 -75 -25 -25 -31 20 -2 12 -4 -24 -5 -49 -2 -57
-5 -67 -27 -7 -14 -12 -30 -12 -35 0 -12 30 -14 30 -2 0 4 4 13 9 21 8 12 12
12 25 -2 15 -15 15 -17 -1 -26 -23 -12 -11 -25 16 -16 26 8 29 52 4 58 -10 3
-4 5 13 6 28 1 31 -2 30 -29 -1 -16 -5 -30 -10 -30 -4 0 -6 -7 -2 -15 4 -11
-2 -15 -24 -15 -17 0 -30 -4 -30 -10 0 -5 6 -10 14 -10 8 0 18 -9 21 -20 3
-11 11 -20 16 -20 5 0 9 9 9 20 0 13 7 20 20 20 13 0 18 -5 14 -15 -4 -8 -1
-15 6 -15 6 0 14 9 17 20 3 11 12 20 19 20 29 0 13 19 -18 22 -21 2 -32 8 -30
16 1 8 3 33 4 58 2 41 4 44 31 44 18 0 27 5 25 12 -6 16 -14 17 -80 6z"/>
<path d="M280 2180 c0 -5 5 -10 11 -10 8 0 7 -5 -1 -15 -16 -20 -10 -26 19
-18 13 3 20 11 17 19 -3 8 1 14 9 14 9 0 12 -6 8 -16 -5 -14 -2 -16 23 -10 36
9 38 11 31 31 -5 11 -21 15 -62 15 -30 0 -55 -4 -55 -10z"/>
<path d="M280 2111 c0 -11 39 -25 47 -18 3 3 2 10 -2 16 -8 13 -45 15 -45 2z"/>
<path d="M238 1768 c-64 -11 -75 -25 -25 -31 20 -2 12 -4 -24 -5 -49 -2 -57
-5 -67 -27 -7 -14 -12 -30 -12 -35 0 -12 30 -14 30 -2 0 4 4 13 9 21 8 12 12
12 25 -2 15 -15 15 -17 -1 -26 -23 -12 -11 -25 16 -16 26 8 29 52 4 58 -10 3
-4 5 13 6 28 1 31 -2 30 -29 -1 -16 -5 -30 -10 -30 -4 0 -6 -7 -2 -15 4 -11
-2 -15 -24 -15 -17 0 -30 -4 -30 -10 0 -5 6 -10 14 -10 8 0 16 -7 20 -15 4
-11 -1 -15 -19 -15 -14 0 -25 -4 -25 -10 0 -5 16 -10 35 -10 31 0 35 3 35 25
0 19 5 25 23 25 20 -1 21 -2 5 -14 -28 -21 -22 -26 37 -26 30 0 55 4 55 9 0
13 -27 21 -45 15 -9 -4 -15 0 -15 10 0 9 7 16 15 16 29 0 14 19 -17 22 -21 2
-32 8 -30 16 1 8 3 33 4 58 2 41 4 44 31 44 18 0 27 5 25 12 -6 16 -14 17 -80
6z"/>
<path d="M280 1730 c0 -5 5 -10 11 -10 8 0 7 -5 -1 -15 -16 -20 -10 -26 19
-18 13 3 20 11 17 19 -3 8 1 14 9 14 9 0 12 -6 8 -16 -5 -14 -2 -16 23 -10 36
9 38 11 31 31 -5 11 -21 15 -62 15 -30 0 -55 -4 -55 -10z"/>
<path d="M280 1661 c0 -11 39 -25 47 -18 3 3 2 10 -2 16 -8 13 -45 15 -45 2z"/>
<path d="M238 1318 c-64 -11 -75 -25 -25 -31 20 -2 12 -4 -24 -5 -49 -2 -57
-5 -67 -27 -7 -14 -12 -30 -12 -35 0 -12 30 -14 30 -2 0 4 4 13 9 21 8 12 12
12 25 -2 15 -15 15 -17 -1 -26 -23 -12 -11 -25 16 -16 26 8 29 52 4 58 -10 3
-4 5 13 6 28 1 31 -2 30 -29 -1 -16 -5 -30 -10 -30 -4 0 -6 -7 -2 -15 4 -11
-2 -15 -24 -15 -17 0 -30 -4 -30 -10 0 -5 6 -10 14 -10 8 0 16 -7 20 -15 4
-11 -1 -15 -19 -15 -14 0 -25 -4 -25 -10 0 -5 12 -10 26 -10 21 0 25 -3 19
-17 -18 -45 -17 -50 17 -62 18 -6 50 -23 70 -36 45 -30 48 -30 48 -6 0 20 -46
47 -97 57 l-30 6 16 34 c15 32 19 33 69 34 28 0 52 4 52 9 0 13 -27 21 -45 15
-9 -4 -15 0 -15 10 0 9 7 16 15 16 29 0 14 19 -17 22 -21 2 -32 8 -30 16 1 8
3 33 4 58 2 41 4 44 31 44 18 0 27 5 25 12 -6 16 -14 17 -80 6z m32 -173 c0
-2 -9 -9 -20 -15 -16 -9 -20 -8 -20 5 0 8 9 15 20 15 11 0 20 -2 20 -5z"/>
<path d="M280 1280 c0 -5 5 -10 11 -10 8 0 7 -5 -1 -15 -16 -20 -10 -26 19
-18 13 3 20 11 17 19 -3 8 1 14 9 14 9 0 12 -6 8 -16 -5 -14 -2 -16 23 -10 36
9 38 11 31 31 -5 11 -21 15 -62 15 -30 0 -55 -4 -55 -10z"/>
<path d="M280 1211 c0 -11 39 -25 47 -18 3 3 2 10 -2 16 -8 13 -45 15 -45 2z"/>
<path d="M238 868 c-64 -11 -75 -25 -25 -31 20 -2 12 -4 -24 -5 -49 -2 -57 -5
-67 -27 -7 -14 -12 -30 -12 -35 0 -12 30 -14 30 -2 0 4 4 13 9 21 8 12 12 12
25 -2 15 -15 15 -17 -1 -26 -23 -12 -11 -25 16 -16 26 8 29 52 4 58 -10 3 -4
5 13 6 28 1 31 -2 30 -29 -1 -16 -5 -30 -10 -30 -4 0 -6 -7 -2 -15 4 -11 -2
-15 -24 -15 -17 0 -30 -4 -30 -10 0 -5 6 -10 14 -10 8 0 16 -7 20 -15 4 -11
-1 -15 -19 -15 -14 0 -25 -4 -25 -10 0 -5 12 -10 26 -10 21 0 25 -3 19 -17
-17 -43 -17 -51 6 -58 l22 -7 -24 -14 c-13 -7 -32 -13 -41 -14 -20 0 -25 -20
-5 -20 6 0 33 7 58 16 45 17 47 16 77 -4 37 -27 42 -27 42 -3 0 12 -12 25 -30
33 -21 9 -28 18 -24 28 16 36 16 60 1 60 -8 0 -17 -13 -20 -30 -5 -23 -12 -30
-30 -30 -24 0 -24 0 -8 35 15 33 19 34 69 35 28 0 52 4 52 9 0 13 -27 21 -45
15 -9 -4 -15 0 -15 10 0 9 7 16 15 16 29 0 14 19 -17 22 -21 2 -32 8 -30 16 1
8 3 33 4 58 2 41 4 44 31 44 18 0 27 5 25 12 -6 16 -14 17 -80 6z m32 -173 c0
-2 -9 -9 -20 -15 -16 -9 -20 -8 -20 5 0 8 9 15 20 15 11 0 20 -2 20 -5z"/>
<path d="M280 830 c0 -5 5 -10 11 -10 8 0 7 -5 -1 -15 -16 -20 -10 -26 19 -18
13 3 20 11 17 19 -3 8 1 14 9 14 9 0 12 -6 8 -16 -5 -14 -2 -16 23 -10 36 9
38 11 31 31 -5 11 -21 15 -62 15 -30 0 -55 -4 -55 -10z"/>
<path d="M280 761 c0 -11 39 -25 47 -18 3 3 2 10 -2 16 -8 13 -45 15 -45 2z"/>
<path d="M238 418 c-64 -11 -75 -25 -25 -31 20 -2 12 -4 -24 -5 -49 -2 -57 -5
-67 -27 -7 -14 -12 -30 -12 -35 0 -12 30 -14 30 -2 0 4 4 13 9 21 8 12 12 12
25 -2 15 -15 15 -17 -1 -26 -23 -12 -11 -25 16 -16 26 8 29 52 4 58 -10 3 -4
5 13 6 28 1 31 -2 30 -29 -1 -16 -5 -30 -10 -30 -4 0 -6 -7 -2 -15 4 -11 -2
-15 -24 -15 -17 0 -30 -4 -30 -10 0 -5 6 -10 14 -10 8 0 16 -7 20 -15 4 -11
-1 -15 -19 -15 -14 0 -25 -4 -25 -10 0 -5 11 -10 25 -10 14 0 25 -4 25 -9 0
-11 -35 -21 -72 -21 -16 0 -28 -5 -28 -11 0 -7 15 -10 40 -7 27 2 40 0 40 -9
0 -6 10 -15 22 -19 l21 -6 -24 -14 c-13 -7 -32 -13 -41 -14 -20 0 -25 -20 -5
-20 6 0 33 7 58 16 45 17 47 16 77 -4 37 -27 42 -27 42 -4 0 10 -12 25 -27 32
-16 8 -29 15 -31 16 -2 1 1 12 8 23 8 17 20 21 55 21 25 0 45 4 45 9 0 11
-114 21 -118 10 -6 -15 -32 -10 -32 6 0 12 13 15 55 15 30 0 55 4 55 9 0 13
-27 21 -45 15 -9 -4 -15 0 -15 10 0 9 7 16 15 16 29 0 14 19 -17 22 -21 2 -32
8 -30 16 1 8 3 33 4 58 2 41 4 44 31 44 18 0 27 5 25 12 -6 16 -14 17 -80 6z
m32 -173 c0 -2 -9 -9 -20 -15 -16 -9 -20 -8 -20 5 0 8 9 15 20 15 11 0 20 -2
20 -5z m-10 -95 c0 -5 -12 -10 -26 -10 -14 0 -23 4 -19 10 3 6 15 10 26 10 10
0 19 -4 19 -10z"/>
<path d="M280 380 c0 -5 5 -10 11 -10 8 0 7 -5 -1 -15 -16 -20 -10 -26 19 -18
13 3 20 11 17 19 -3 8 1 14 9 14 9 0 12 -6 8 -16 -5 -14 -2 -16 23 -10 36 9
38 11 31 31 -5 11 -21 15 -62 15 -30 0 -55 -4 -55 -10z"/>
<path d="M280 311 c0 -11 39 -25 47 -18 3 3 2 10 -2 16 -8 13 -45 15 -45 2z"/>
</g>
</svg>
