<?xml version="1.0" standalone="no"?>
<!DOCTYPE svg PUBLIC "-//W3C//DTD SVG 20010904//EN"
 "http://www.w3.org/TR/2001/REC-SVG-20010904/DTD/svg10.dtd">
<svg version="1.0" xmlns="http://www.w3.org/2000/svg"
 width="50.000000pt" height="725.000000pt" viewBox="0 0 50.000000 725.000000"
 preserveAspectRatio="xMidYMid meet">
<metadata>
Created by potrace 1.16, written by Peter Selinger 2001-2019
</metadata>
<g transform="translate(0.000000,725.000000) scale(0.100000,-0.100000)"
fill="#000000" stroke="none">
<path d="M213 7153 c-43 -6 -42 -23 1 -23 47 0 96 11 96 21 0 9 -35 9 -97 2z"/>
<path d="M213 6703 c-43 -6 -42 -23 1 -23 47 0 96 11 96 21 0 9 -35 9 -97 2z"/>
<path d="M120 6641 c-13 -25 -13 -51 0 -51 12 0 30 33 30 54 0 22 -17 20 -30
-3z"/>
<path d="M213 6253 c-43 -6 -42 -23 1 -23 47 0 96 11 96 21 0 9 -35 9 -97 2z"/>
<path d="M290 6211 c0 -6 14 -11 31 -11 27 0 30 -2 19 -15 -18 -22 -8 -26 28
-13 51 19 38 42 -26 46 -32 2 -52 -1 -52 -7z"/>
<path d="M119 6188 c-11 -21 -12 -48 0 -48 5 0 15 10 23 22 12 17 27 22 76 26
89 6 77 23 -14 20 -59 -2 -78 -7 -85 -20z"/>
<path d="M213 5803 c-39 -5 -45 -23 -8 -23 14 0 25 -4 25 -10 0 -9 -16 -12
-80 -14 -17 -1 -27 -9 -34 -28 -13 -36 1 -49 22 -20 11 13 33 25 56 29 l38 6
-4 -38 c-2 -24 2 -40 10 -42 8 -3 12 8 12 36 0 30 4 41 15 41 8 0 15 5 15 10
0 6 -7 10 -15 10 -27 0 -16 20 15 27 17 3 30 9 30 14 0 9 -35 9 -97 2z"/>
<path d="M290 5761 c0 -6 14 -11 31 -11 27 0 30 -2 19 -15 -18 -22 -8 -26 28
-13 51 19 38 42 -26 46 -32 2 -52 -1 -52 -7z"/>
<path d="M213 5353 c-39 -5 -45 -23 -8 -23 14 0 25 -4 25 -10 0 -9 -16 -12
-80 -14 -17 -1 -27 -9 -34 -28 -13 -36 2 -50 21 -21 13 20 17 21 30 8 16 -17
43 -20 43 -5 0 5 -8 14 -17 19 -15 9 -14 10 10 11 27 0 28 -2 25 -37 -2 -22 2
-38 10 -40 8 -3 12 8 12 36 0 30 4 41 15 41 8 0 15 5 15 10 0 6 -7 10 -15 10
-27 0 -16 20 15 27 17 3 30 9 30 14 0 9 -35 9 -97 2z"/>
<path d="M290 5311 c0 -6 14 -11 31 -11 27 0 30 -2 19 -15 -18 -22 -8 -26 28
-13 51 19 38 42 -26 46 -32 2 -52 -1 -52 -7z"/>
<path d="M213 4903 c-39 -5 -45 -23 -8 -23 14 0 25 -4 25 -10 0 -9 -16 -12
-80 -14 -17 -1 -27 -9 -34 -28 -13 -36 2 -50 21 -21 13 20 17 21 30 8 16 -17
43 -20 43 -5 0 5 -8 14 -17 19 -15 9 -14 10 10 11 27 0 28 -2 25 -37 -2 -22 2
-38 10 -40 8 -3 12 8 12 36 0 30 4 41 15 41 8 0 15 5 15 10 0 6 -7 10 -15 10
-27 0 -16 20 15 27 17 3 30 9 30 14 0 9 -35 9 -97 2z"/>
<path d="M290 4861 c0 -6 14 -11 31 -11 27 0 30 -2 19 -15 -18 -22 -8 -26 28
-13 51 19 38 42 -26 46 -32 2 -52 -1 -52 -7z"/>
<path d="M163 4783 c-7 -2 -13 -9 -13 -15 0 -14 43 -6 48 10 4 12 -12 15 -35
5z"/>
<path d="M213 4453 c-39 -5 -45 -23 -8 -23 14 0 25 -4 25 -10 0 -9 -16 -12
-80 -14 -17 -1 -27 -9 -34 -28 -13 -36 2 -50 21 -21 13 20 17 21 30 8 16 -17
43 -20 43 -5 0 5 -8 14 -17 19 -15 9 -14 10 10 11 27 0 28 -2 25 -37 -2 -22 2
-38 10 -40 8 -3 12 8 12 36 0 30 4 41 15 41 8 0 15 5 15 10 0 6 -7 10 -15 10
-27 0 -16 20 15 27 17 3 30 9 30 14 0 9 -35 9 -97 2z"/>
<path d="M287 4393 c-6 -33 -3 -38 19 -29 9 3 14 12 10 21 -4 10 1 15 16 15
17 0 18 -2 8 -15 -18 -22 -8 -26 28 -13 50 19 38 42 -24 46 -49 3 -52 2 -57
-25z"/>
<path d="M163 4333 c-7 -2 -13 -9 -13 -15 0 -14 43 -6 48 10 4 12 -12 15 -35
5z"/>
<path d="M213 4003 c-39 -5 -45 -23 -8 -23 14 0 25 -4 25 -10 0 -9 -16 -12
-80 -14 -17 -1 -27 -9 -34 -28 -13 -36 2 -50 21 -21 13 20 17 21 30 8 16 -17
43 -20 43 -5 0 5 -8 14 -17 19 -15 9 -14 10 10 11 27 0 28 -2 25 -37 -2 -22 2
-38 10 -40 8 -3 12 8 12 36 0 30 4 41 15 41 8 0 15 5 15 10 0 6 -7 10 -15 10
-27 0 -16 20 15 27 17 3 30 9 30 14 0 9 -35 9 -97 2z"/>
<path d="M287 3943 c-6 -33 -3 -38 19 -29 9 3 14 12 10 21 -4 10 1 15 16 15
17 0 18 -2 8 -15 -18 -22 -8 -26 28 -13 50 19 38 42 -24 46 -49 3 -52 2 -57
-25z"/>
<path d="M270 3890 c0 -9 31 -30 44 -30 13 0 5 28 -10 34 -23 9 -34 7 -34 -4z"/>
<path d="M163 3883 c-7 -2 -13 -9 -13 -15 0 -14 43 -6 48 10 4 12 -12 15 -35
5z"/>
<path d="M213 3553 c-39 -5 -45 -23 -8 -23 14 0 25 -4 25 -10 0 -9 -16 -12
-80 -14 -17 -1 -27 -9 -34 -28 -13 -36 2 -50 21 -21 13 20 17 21 30 8 16 -17
43 -20 43 -5 0 5 -8 14 -17 19 -15 9 -14 10 10 11 27 0 28 -2 25 -37 -2 -22 2
-38 10 -40 8 -3 12 8 12 36 0 30 4 41 15 41 8 0 15 5 15 10 0 6 -7 10 -15 10
-27 0 -16 20 15 27 17 3 30 9 30 14 0 9 -35 9 -97 2z"/>
<path d="M287 3493 c-6 -33 -3 -38 19 -29 9 3 14 12 10 21 -4 10 1 15 16 15
17 0 18 -2 8 -15 -18 -22 -8 -26 28 -13 50 19 38 42 -24 46 -49 3 -52 2 -57
-25z"/>
<path d="M270 3440 c0 -9 31 -30 44 -30 13 0 5 28 -10 34 -23 9 -34 7 -34 -4z"/>
<path d="M163 3433 c-7 -2 -13 -9 -13 -15 0 -14 43 -6 48 10 4 12 -12 15 -35
5z"/>
<path d="M152 3388 c5 -15 35 -34 43 -27 3 4 3 14 -1 23 -7 18 -48 23 -42 4z"/>
<path d="M213 3103 c-39 -5 -45 -23 -8 -23 14 0 25 -4 25 -10 0 -9 -16 -12
-80 -14 -17 -1 -27 -9 -34 -28 -13 -36 2 -50 21 -21 13 20 17 21 30 8 16 -17
43 -20 43 -5 0 5 -8 14 -17 19 -15 9 -14 10 10 11 27 0 28 -2 25 -37 -2 -22 2
-38 10 -40 8 -3 12 8 12 36 0 30 4 41 15 41 8 0 15 5 15 10 0 6 -7 10 -15 10
-27 0 -16 20 15 27 17 3 30 9 30 14 0 9 -35 9 -97 2z"/>
<path d="M287 3043 c-6 -33 -3 -38 19 -29 9 3 14 12 10 21 -4 10 1 15 16 15
17 0 18 -2 8 -15 -18 -22 -8 -26 28 -13 50 19 38 42 -24 46 -49 3 -52 2 -57
-25z"/>
<path d="M270 2990 c0 -9 31 -30 44 -30 13 0 5 28 -10 34 -23 9 -34 7 -34 -4z"/>
<path d="M163 2983 c-7 -2 -13 -9 -13 -15 0 -14 43 -6 48 10 4 12 -12 15 -35
5z"/>
<path d="M152 2938 c5 -15 35 -34 43 -27 3 4 3 14 -1 23 -7 18 -48 23 -42 4z"/>
<path d="M122 2893 c3 -19 48 -32 48 -14 0 10 -31 31 -45 31 -4 0 -5 -8 -3
-17z"/>
<path d="M213 2653 c-39 -5 -45 -23 -8 -23 14 0 25 -4 25 -10 0 -9 -16 -12
-80 -14 -17 -1 -27 -9 -34 -28 -13 -36 2 -50 21 -21 13 20 17 21 30 8 16 -17
43 -20 43 -5 0 5 -8 14 -17 19 -15 9 -14 10 10 11 27 0 28 -2 25 -37 -2 -22 2
-38 10 -40 8 -3 12 8 12 36 0 30 4 41 15 41 8 0 15 5 15 10 0 6 -7 10 -15 10
-27 0 -16 20 15 27 17 3 30 9 30 14 0 9 -35 9 -97 2z"/>
<path d="M287 2593 c-6 -33 -3 -38 19 -29 9 3 14 12 10 21 -4 10 1 15 16 15
17 0 18 -2 8 -15 -18 -22 -8 -26 28 -13 50 19 38 42 -24 46 -49 3 -52 2 -57
-25z"/>
<path d="M270 2540 c0 -9 31 -30 44 -30 13 0 5 28 -10 34 -23 9 -34 7 -34 -4z"/>
<path d="M163 2533 c-7 -2 -13 -9 -13 -15 0 -14 43 -6 48 10 4 12 -12 15 -35
5z"/>
<path d="M152 2488 c5 -15 35 -34 43 -27 3 4 3 14 -1 23 -7 18 -48 23 -42 4z"/>
<path d="M122 2443 c3 -19 48 -32 48 -14 0 10 -31 31 -45 31 -4 0 -5 -8 -3
-17z"/>
<path d="M148 2385 c-42 -39 -48 -55 -19 -55 10 0 30 17 45 40 41 63 31 68
-26 15z"/>
<path d="M213 2203 c-39 -5 -45 -23 -8 -23 14 0 25 -4 25 -10 0 -9 -16 -12
-80 -14 -17 -1 -27 -9 -34 -28 -13 -36 2 -50 21 -21 13 20 17 21 30 8 16 -17
43 -20 43 -5 0 5 -8 14 -17 19 -15 9 -14 10 10 11 27 0 28 -2 25 -37 -2 -22 2
-38 10 -40 8 -3 12 8 12 36 0 30 4 41 15 41 8 0 15 5 15 10 0 6 -7 10 -15 10
-27 0 -16 20 15 27 17 3 30 9 30 14 0 9 -35 9 -97 2z"/>
<path d="M287 2143 c-6 -33 -3 -38 19 -29 9 3 14 12 10 21 -4 10 1 15 16 15
17 0 18 -2 8 -15 -18 -22 -8 -26 28 -13 50 19 38 42 -24 46 -49 3 -52 2 -57
-25z"/>
<path d="M274 2085 c3 -8 1 -15 -4 -15 -6 0 -10 -25 -10 -56 0 -73 24 -70 28
4 2 40 6 50 18 45 8 -3 14 1 14 10 0 8 -7 18 -16 21 -26 10 -36 7 -30 -9z"/>
<path d="M163 2083 c-7 -2 -13 -9 -13 -15 0 -14 43 -6 48 10 4 12 -12 15 -35
5z"/>
<path d="M152 2038 c5 -15 35 -34 43 -27 3 4 3 14 -1 23 -7 18 -48 23 -42 4z"/>
<path d="M122 1993 c3 -19 48 -32 48 -14 0 10 -31 31 -45 31 -4 0 -5 -8 -3
-17z"/>
<path d="M148 1935 c-42 -39 -48 -55 -19 -55 10 0 30 17 45 40 41 63 31 68
-26 15z"/>
<path d="M213 1753 c-39 -5 -45 -23 -8 -23 14 0 25 -4 25 -10 0 -9 -16 -12
-80 -14 -17 -1 -27 -9 -34 -28 -13 -36 2 -50 21 -21 13 20 17 21 30 8 16 -17
43 -20 43 -5 0 5 -8 14 -17 19 -15 9 -14 10 10 11 27 0 28 -2 25 -37 -2 -22 2
-38 10 -40 8 -3 12 8 12 36 0 30 4 41 15 41 8 0 15 5 15 10 0 6 -7 10 -15 10
-27 0 -16 20 15 27 17 3 30 9 30 14 0 9 -35 9 -97 2z"/>
<path d="M287 1693 c-6 -33 -3 -38 19 -29 9 3 14 12 10 21 -4 10 1 15 16 15
17 0 18 -2 8 -15 -18 -22 -8 -26 28 -13 50 19 38 42 -24 46 -49 3 -52 2 -57
-25z"/>
<path d="M274 1635 c3 -8 1 -15 -4 -15 -6 0 -10 -25 -10 -56 0 -40 4 -55 13
-52 6 3 13 14 15 26 3 17 10 22 33 22 16 0 29 5 29 10 0 6 -13 10 -30 10 -23
0 -30 4 -30 20 0 13 5 18 15 14 9 -4 15 0 15 9 0 8 -7 18 -16 21 -26 10 -36 7
-30 -9z"/>
<path d="M163 1633 c-7 -2 -13 -9 -13 -15 0 -14 43 -6 48 10 4 12 -12 15 -35
5z"/>
<path d="M152 1588 c5 -15 35 -34 43 -27 3 4 3 14 -1 23 -7 18 -48 23 -42 4z"/>
<path d="M122 1543 c3 -19 48 -32 48 -14 0 10 -31 31 -45 31 -4 0 -5 -8 -3
-17z"/>
<path d="M148 1485 c-42 -39 -48 -55 -19 -55 10 0 30 17 45 40 41 63 31 68
-26 15z"/>
<path d="M213 1303 c-39 -5 -45 -23 -8 -23 14 0 25 -4 25 -10 0 -9 -16 -12
-80 -14 -17 -1 -27 -9 -34 -28 -13 -36 2 -50 21 -21 13 20 17 21 30 8 16 -17
43 -20 43 -5 0 5 -8 14 -17 19 -15 9 -14 10 10 11 27 0 28 -2 25 -37 -2 -22 2
-38 10 -40 8 -3 12 8 12 36 0 30 4 41 15 41 8 0 15 5 15 10 0 6 -7 10 -15 10
-27 0 -16 20 15 27 17 3 30 9 30 14 0 9 -35 9 -97 2z"/>
<path d="M287 1243 c-6 -33 -3 -38 19 -29 9 3 14 12 10 21 -4 10 1 15 16 15
17 0 18 -2 8 -15 -18 -22 -8 -26 28 -13 50 19 38 42 -24 46 -49 3 -52 2 -57
-25z"/>
<path d="M274 1185 c3 -8 1 -15 -4 -15 -6 0 -10 -25 -10 -56 0 -40 4 -55 13
-52 6 3 13 14 15 26 3 17 10 22 33 22 16 0 29 5 29 10 0 6 -13 10 -30 10 -23
0 -30 4 -30 20 0 13 5 18 15 14 9 -4 15 0 15 9 0 8 -7 18 -16 21 -26 10 -36 7
-30 -9z"/>
<path d="M163 1183 c-7 -2 -13 -9 -13 -15 0 -14 43 -6 48 10 4 12 -12 15 -35
5z"/>
<path d="M152 1138 c5 -15 35 -34 43 -27 3 4 3 14 -1 23 -7 18 -48 23 -42 4z"/>
<path d="M122 1093 c3 -19 48 -32 48 -14 0 10 -31 31 -45 31 -4 0 -5 -8 -3
-17z"/>
<path d="M148 1035 c-42 -39 -48 -55 -19 -55 10 0 30 17 45 40 41 63 31 68
-26 15z"/>
<path d="M213 1049 c4 -13 7 -34 7 -46 0 -13 5 -23 11 -23 16 0 7 83 -10 88
-10 4 -12 -1 -8 -19z"/>
<path d="M213 853 c-39 -5 -45 -23 -8 -23 14 0 25 -4 25 -10 0 -9 -16 -12 -80
-14 -17 -1 -27 -9 -34 -28 -13 -36 2 -50 21 -21 13 20 17 21 30 8 16 -17 43
-20 43 -5 0 5 -8 14 -17 19 -15 9 -14 10 10 11 27 0 28 -2 25 -37 -2 -22 2
-38 10 -40 8 -3 12 8 12 36 0 30 4 41 15 41 8 0 15 5 15 10 0 6 -7 10 -15 10
-27 0 -16 20 15 27 17 3 30 9 30 14 0 9 -35 9 -97 2z"/>
<path d="M287 793 c-6 -33 -3 -38 19 -29 9 3 14 12 10 21 -4 10 1 15 16 15 17
0 18 -2 8 -15 -18 -22 -8 -26 28 -13 50 19 38 42 -24 46 -49 3 -52 2 -57 -25z"/>
<path d="M274 735 c3 -8 1 -15 -4 -15 -6 0 -10 -22 -10 -50 0 -47 -1 -50 -26
-50 -22 0 -25 -3 -20 -22 3 -13 6 -33 6 -45 0 -13 5 -23 10 -23 6 0 10 15 10
34 0 28 4 35 23 38 16 2 23 11 25 31 3 23 8 27 33 27 16 0 29 5 29 10 0 6 -13
10 -30 10 -23 0 -30 4 -30 20 0 13 5 18 15 14 9 -4 15 0 15 9 0 8 -7 18 -16
21 -26 10 -36 7 -30 -9z"/>
<path d="M163 733 c-7 -2 -13 -9 -13 -15 0 -14 43 -6 48 10 4 12 -12 15 -35 5z"/>
<path d="M152 688 c5 -15 35 -34 43 -27 3 4 3 14 -1 23 -7 18 -48 23 -42 4z"/>
<path d="M122 643 c3 -19 48 -32 48 -14 0 10 -31 31 -45 31 -4 0 -5 -8 -3 -17z"/>
<path d="M300 620 c0 -5 5 -10 10 -10 6 0 10 -13 10 -30 0 -16 5 -30 10 -30
13 0 32 49 26 67 -6 15 -56 18 -56 3z"/>
<path d="M148 585 c-42 -39 -48 -55 -19 -55 10 0 30 17 45 40 41 63 31 68 -26
15z"/>
<path d="M213 403 c-39 -5 -45 -23 -8 -23 14 0 25 -4 25 -10 0 -9 -16 -12 -80
-14 -17 -1 -27 -9 -34 -28 -13 -36 2 -50 21 -21 13 20 17 21 30 8 16 -17 43
-20 43 -5 0 5 -8 14 -17 19 -15 9 -14 10 10 11 27 0 28 -2 25 -37 -2 -22 2
-38 10 -40 8 -3 12 8 12 36 0 30 4 41 15 41 8 0 15 5 15 10 0 6 -7 10 -15 10
-27 0 -16 20 15 27 17 3 30 9 30 14 0 9 -35 9 -97 2z"/>
<path d="M287 343 c-6 -33 -3 -38 19 -29 9 3 14 12 10 21 -4 10 1 15 16 15 17
0 18 -2 8 -15 -18 -22 -8 -26 28 -13 50 19 38 42 -24 46 -49 3 -52 2 -57 -25z"/>
<path d="M274 285 c3 -8 1 -15 -4 -15 -6 0 -10 -22 -10 -50 0 -47 -2 -50 -25
-50 -24 0 -25 -2 -19 -42 4 -24 7 -44 8 -44 1 -1 27 3 59 8 49 9 60 14 68 36
5 14 8 31 5 39 -6 15 -56 18 -56 3 0 -5 5 -10 10 -10 6 0 10 -9 10 -19 0 -21
-19 -31 -56 -31 -32 0 -34 37 -1 42 16 2 23 11 25 31 3 23 8 27 33 27 16 0 29
5 29 10 0 6 -13 10 -30 10 -23 0 -30 4 -30 20 0 13 5 18 15 14 9 -4 15 0 15 9
0 8 -7 18 -16 21 -26 10 -36 7 -30 -9z"/>
<path d="M163 283 c-7 -2 -13 -9 -13 -15 0 -14 43 -6 48 10 4 12 -12 15 -35 5z"/>
<path d="M152 238 c5 -15 35 -34 43 -27 3 4 3 14 -1 23 -7 18 -48 23 -42 4z"/>
<path d="M122 193 c3 -19 48 -32 48 -14 0 10 -31 31 -45 31 -4 0 -5 -8 -3 -17z"/>
<path d="M148 135 c-42 -39 -48 -55 -19 -55 10 0 30 17 45 40 41 63 31 68 -26
15z"/>
</g>
</svg>
