<?xml version="1.0" standalone="no"?>
<!DOCTYPE svg PUBLIC "-//W3C//DTD SVG 20010904//EN"
 "http://www.w3.org/TR/2001/REC-SVG-20010904/DTD/svg10.dtd">
<svg version="1.0" xmlns="http://www.w3.org/2000/svg"
 width="50.000000pt" height="725.000000pt" viewBox="0 0 50.000000 725.000000"
 preserveAspectRatio="xMidYMid meet">
<metadata>
Created by potrace 1.16, written by Peter Selinger 2001-2019
</metadata>
<g transform="translate(0.000000,725.000000) scale(0.100000,-0.100000)"
fill="#000000" stroke="none">
<path d="M243 7161 c-41 -7 -61 -17 -52 -25 9 -9 123 10 127 22 4 13 -8 14
-75 3z"/>
<path d="M243 6711 c-41 -7 -61 -17 -52 -25 9 -9 123 10 127 22 4 13 -8 14
-75 3z"/>
<path d="M122 6638 c-8 -22 -9 -35 -2 -42 14 -14 30 10 30 47 0 36 -13 34 -28
-5z"/>
<path d="M243 6261 c-41 -7 -61 -17 -52 -25 9 -9 123 10 127 22 4 13 -8 14
-75 3z"/>
<path d="M300 6220 c0 -5 11 -10 25 -10 18 0 23 -4 18 -16 -5 -14 -1 -15 28
-9 43 9 45 11 29 30 -14 17 -100 21 -100 5z"/>
<path d="M123 6189 c-7 -18 -10 -36 -7 -40 10 -17 24 -9 30 16 5 19 13 25 35
25 16 0 29 5 29 10 0 6 -11 10 -24 10 -13 0 -30 2 -38 5 -8 3 -18 -6 -25 -26z"/>
<path d="M230 6210 c0 -5 14 -10 30 -10 17 0 30 5 30 10 0 6 -13 10 -30 10
-16 0 -30 -4 -30 -10z"/>
<path d="M260 5813 c-54 -8 -70 -14 -70 -24 0 -6 10 -9 22 -7 24 3 24 4 26
-69 2 -54 22 -57 22 -3 0 29 4 40 15 40 8 0 15 5 15 10 0 6 -4 10 -10 10 -20
0 -10 19 12 22 12 2 23 9 26 16 4 12 -8 13 -58 5z"/>
<path d="M300 5770 c0 -5 11 -10 25 -10 18 0 23 -4 18 -16 -5 -14 -1 -15 28
-9 43 9 45 11 29 30 -14 17 -100 21 -100 5z"/>
<path d="M123 5739 c-7 -18 -10 -36 -7 -40 10 -17 24 -9 30 16 5 19 13 25 35
25 16 0 29 5 29 10 0 6 -11 10 -24 10 -13 0 -30 2 -38 5 -8 3 -18 -6 -25 -26z"/>
<path d="M260 5363 c-54 -8 -70 -14 -70 -24 0 -6 10 -9 22 -7 24 3 24 4 26
-69 2 -54 22 -57 22 -3 0 29 4 40 15 40 8 0 15 5 15 10 0 6 -4 10 -10 10 -20
0 -10 19 12 22 12 2 23 9 26 16 4 12 -8 13 -58 5z"/>
<path d="M300 5320 c0 -5 11 -10 25 -10 18 0 23 -4 18 -16 -5 -14 -1 -15 28
-9 43 9 45 11 29 30 -14 17 -100 21 -100 5z"/>
<path d="M123 5289 c-7 -18 -10 -36 -7 -40 10 -17 24 -9 30 16 7 28 29 33 38
10 6 -17 36 -21 36 -5 0 6 -4 10 -10 10 -5 0 -7 7 -4 15 5 11 -1 15 -19 15
-14 0 -31 2 -39 5 -8 3 -18 -6 -25 -26z"/>
<path d="M260 4913 c-54 -8 -70 -14 -70 -24 0 -6 10 -9 22 -7 24 3 24 4 26
-69 2 -54 22 -57 22 -3 0 29 4 40 15 40 8 0 15 5 15 10 0 6 -4 10 -10 10 -20
0 -10 19 12 22 12 2 23 9 26 16 4 12 -8 13 -58 5z"/>
<path d="M300 4870 c0 -5 11 -10 25 -10 18 0 23 -4 18 -16 -5 -14 -1 -15 28
-9 43 9 45 11 29 30 -14 17 -100 21 -100 5z"/>
<path d="M123 4839 c-7 -18 -10 -36 -7 -40 10 -17 24 -9 30 16 7 28 29 33 38
10 6 -17 36 -21 36 -5 0 6 -4 10 -10 10 -5 0 -7 7 -4 15 5 11 -1 15 -19 15
-14 0 -31 2 -39 5 -8 3 -18 -6 -25 -26z"/>
<path d="M160 4785 c0 -16 9 -19 34 -9 25 9 19 24 -9 24 -16 0 -25 -6 -25 -15z"/>
<path d="M260 4463 c-54 -8 -70 -14 -70 -24 0 -6 10 -9 22 -7 24 3 24 4 26
-69 2 -54 22 -57 22 -3 0 29 4 40 15 40 8 0 15 5 15 10 0 6 -4 10 -10 10 -20
0 -10 19 12 22 12 2 23 9 26 16 4 12 -8 13 -58 5z"/>
<path d="M300 4420 c0 -5 11 -10 25 -10 18 0 23 -4 18 -16 -5 -14 -1 -15 28
-9 43 9 45 11 29 30 -14 17 -100 21 -100 5z"/>
<path d="M123 4389 c-7 -18 -10 -36 -7 -40 10 -17 24 -9 30 16 7 28 29 33 38
10 6 -17 36 -21 36 -5 0 6 -4 10 -10 10 -5 0 -7 7 -4 15 5 11 -1 15 -19 15
-14 0 -31 2 -39 5 -8 3 -18 -6 -25 -26z"/>
<path d="M295 4389 c-4 -6 -5 -12 -2 -15 7 -7 37 7 37 17 0 13 -27 11 -35 -2z"/>
<path d="M160 4335 c0 -16 9 -19 34 -9 25 9 19 24 -9 24 -16 0 -25 -6 -25 -15z"/>
<path d="M260 4013 c-54 -8 -70 -14 -70 -24 0 -6 10 -9 22 -7 24 3 24 4 26
-69 2 -54 22 -57 22 -3 0 29 4 40 15 40 8 0 15 5 15 10 0 6 -4 10 -10 10 -20
0 -10 19 12 22 12 2 23 9 26 16 4 12 -8 13 -58 5z"/>
<path d="M300 3970 c0 -5 11 -10 25 -10 18 0 23 -4 18 -16 -5 -14 -1 -15 28
-9 43 9 45 11 29 30 -14 17 -100 21 -100 5z"/>
<path d="M123 3939 c-7 -18 -10 -36 -7 -40 10 -17 24 -9 30 16 7 28 29 33 38
10 6 -17 36 -21 36 -5 0 6 -4 10 -10 10 -5 0 -7 7 -4 15 5 11 -1 15 -19 15
-14 0 -31 2 -39 5 -8 3 -18 -6 -25 -26z"/>
<path d="M295 3939 c-4 -6 -5 -12 -2 -15 7 -7 37 7 37 17 0 13 -27 11 -35 -2z"/>
<path d="M280 3901 c0 -11 39 -25 47 -18 3 3 2 10 -2 16 -8 13 -45 15 -45 2z"/>
<path d="M160 3885 c0 -16 9 -19 34 -9 25 9 19 24 -9 24 -16 0 -25 -6 -25 -15z"/>
<path d="M260 3563 c-54 -8 -70 -14 -70 -24 0 -6 10 -9 22 -7 24 3 24 4 26
-69 2 -54 22 -57 22 -3 0 29 4 40 15 40 8 0 15 5 15 10 0 6 -4 10 -10 10 -20
0 -10 19 12 22 12 2 23 9 26 16 4 12 -8 13 -58 5z"/>
<path d="M300 3520 c0 -5 11 -10 25 -10 18 0 23 -4 18 -16 -5 -14 -1 -15 28
-9 43 9 45 11 29 30 -14 17 -100 21 -100 5z"/>
<path d="M123 3489 c-7 -18 -10 -36 -7 -40 10 -17 24 -9 30 16 7 28 29 33 38
10 6 -17 36 -21 36 -5 0 6 -4 10 -10 10 -5 0 -7 7 -4 15 5 11 -1 15 -19 15
-14 0 -31 2 -39 5 -8 3 -18 -6 -25 -26z"/>
<path d="M295 3489 c-4 -6 -5 -12 -2 -15 7 -7 37 7 37 17 0 13 -27 11 -35 -2z"/>
<path d="M280 3451 c0 -11 39 -25 47 -18 3 3 2 10 -2 16 -8 13 -45 15 -45 2z"/>
<path d="M160 3435 c0 -16 9 -19 34 -9 25 9 19 24 -9 24 -16 0 -25 -6 -25 -15z"/>
<path d="M143 3373 c-37 -5 -45 -23 -10 -23 41 0 97 13 97 21 0 9 -26 9 -87 2z"/>
<path d="M260 3113 c-54 -8 -70 -14 -70 -24 0 -6 10 -9 22 -7 24 3 24 4 26
-69 2 -54 22 -57 22 -3 0 29 4 40 15 40 8 0 15 5 15 10 0 6 -4 10 -10 10 -20
0 -10 19 12 22 12 2 23 9 26 16 4 12 -8 13 -58 5z"/>
<path d="M300 3070 c0 -5 11 -10 25 -10 18 0 23 -4 18 -16 -5 -14 -1 -15 28
-9 43 9 45 11 29 30 -14 17 -100 21 -100 5z"/>
<path d="M123 3039 c-7 -18 -10 -36 -7 -40 10 -17 24 -9 30 16 7 28 29 33 38
10 6 -17 36 -21 36 -5 0 6 -4 10 -10 10 -5 0 -7 7 -4 15 5 11 -1 15 -19 15
-14 0 -31 2 -39 5 -8 3 -18 -6 -25 -26z"/>
<path d="M295 3039 c-4 -6 -5 -12 -2 -15 7 -7 37 7 37 17 0 13 -27 11 -35 -2z"/>
<path d="M280 3001 c0 -11 39 -25 47 -18 3 3 2 10 -2 16 -8 13 -45 15 -45 2z"/>
<path d="M164 2960 c6 -39 6 -40 -24 -40 -16 0 -30 -4 -30 -10 0 -5 14 -10 31
-10 l30 0 -3 -56 c-2 -39 1 -58 10 -61 9 -4 12 13 12 61 0 59 2 66 20 66 11 0
20 5 20 10 0 6 -7 10 -15 10 -8 0 -15 7 -15 15 0 8 -6 15 -12 15 -8 1 -6 6 5
14 24 18 21 26 -9 26 -25 0 -26 -2 -20 -40z"/>
<path d="M260 2663 c-54 -8 -70 -14 -70 -24 0 -6 10 -9 22 -7 24 3 24 4 26
-69 2 -54 22 -57 22 -3 0 29 4 40 15 40 8 0 15 5 15 10 0 6 -4 10 -10 10 -20
0 -10 19 12 22 12 2 23 9 26 16 4 12 -8 13 -58 5z"/>
<path d="M300 2620 c0 -5 11 -10 25 -10 18 0 23 -4 18 -16 -5 -14 -1 -15 28
-9 43 9 45 11 29 30 -14 17 -100 21 -100 5z"/>
<path d="M123 2589 c-7 -18 -10 -36 -7 -40 10 -17 24 -9 30 16 7 28 29 33 38
10 6 -17 36 -21 36 -5 0 6 -4 10 -10 10 -5 0 -7 7 -4 15 5 11 -1 15 -19 15
-14 0 -31 2 -39 5 -8 3 -18 -6 -25 -26z"/>
<path d="M295 2589 c-4 -6 -5 -12 -2 -15 7 -7 37 7 37 17 0 13 -27 11 -35 -2z"/>
<path d="M280 2551 c0 -11 39 -25 47 -18 3 3 2 10 -2 16 -8 13 -45 15 -45 2z"/>
<path d="M164 2510 c6 -39 6 -40 -24 -40 -37 0 -40 -17 -4 -22 l25 -3 -35 -35
c-53 -53 -44 -72 12 -25 l29 24 -1 -36 c-1 -21 4 -38 12 -40 9 -4 12 13 12 61
0 59 2 66 20 66 11 0 20 5 20 10 0 6 -7 10 -15 10 -8 0 -15 7 -15 15 0 8 -6
15 -12 15 -8 1 -6 6 5 14 24 18 21 26 -9 26 -25 0 -26 -2 -20 -40z"/>
<path d="M260 2213 c-54 -8 -70 -14 -70 -24 0 -6 10 -9 22 -7 24 3 24 4 26
-69 2 -54 22 -57 22 -3 0 29 4 40 15 40 8 0 15 5 15 10 0 6 -4 10 -10 10 -20
0 -10 19 12 22 12 2 23 9 26 16 4 12 -8 13 -58 5z"/>
<path d="M300 2170 c0 -5 11 -10 25 -10 18 0 23 -4 18 -16 -5 -14 -1 -15 28
-9 43 9 45 11 29 30 -14 17 -100 21 -100 5z"/>
<path d="M123 2139 c-7 -18 -10 -36 -7 -40 10 -17 24 -9 30 16 7 28 29 33 38
10 6 -17 36 -21 36 -5 0 6 -4 10 -10 10 -5 0 -7 7 -4 15 5 11 -1 15 -19 15
-14 0 -31 2 -39 5 -8 3 -18 -6 -25 -26z"/>
<path d="M295 2139 c-4 -6 -5 -12 -2 -15 7 -7 37 7 37 17 0 13 -27 11 -35 -2z"/>
<path d="M280 2101 c0 -11 39 -25 47 -18 3 3 2 10 -2 16 -8 13 -45 15 -45 2z"/>
<path d="M164 2060 c6 -39 6 -40 -24 -40 -37 0 -40 -17 -4 -22 l25 -3 -35 -35
c-53 -53 -44 -72 12 -25 l29 24 -1 -36 c-1 -21 4 -38 12 -40 8 -3 12 9 12 40
0 40 2 45 20 40 28 -8 26 23 -2 32 l-23 8 23 4 c25 5 30 23 7 23 -8 0 -15 7
-15 15 0 8 -6 15 -12 15 -8 1 -6 6 5 14 24 18 21 26 -9 26 -25 0 -26 -2 -20
-40z"/>
<path d="M260 1763 c-54 -8 -70 -14 -70 -24 0 -6 10 -9 22 -7 24 3 24 4 26
-69 2 -54 22 -57 22 -3 0 29 4 40 15 40 8 0 15 5 15 10 0 6 -4 10 -10 10 -20
0 -10 19 12 22 12 2 23 9 26 16 4 12 -8 13 -58 5z"/>
<path d="M300 1720 c0 -5 11 -10 25 -10 18 0 23 -4 18 -16 -5 -14 -1 -15 28
-9 43 9 45 11 29 30 -14 17 -100 21 -100 5z"/>
<path d="M123 1689 c-7 -18 -10 -36 -7 -40 10 -17 24 -9 30 16 7 28 29 33 38
10 6 -17 36 -21 36 -5 0 6 -4 10 -10 10 -5 0 -7 7 -4 15 5 11 -1 15 -19 15
-14 0 -31 2 -39 5 -8 3 -18 -6 -25 -26z"/>
<path d="M295 1689 c-4 -6 -5 -12 -2 -15 7 -7 37 7 37 17 0 13 -27 11 -35 -2z"/>
<path d="M280 1651 c0 -11 39 -25 47 -18 3 3 2 10 -2 16 -8 13 -45 15 -45 2z"/>
<path d="M164 1610 c6 -39 6 -40 -24 -40 -37 0 -40 -17 -4 -22 l25 -3 -35 -35
c-53 -53 -44 -72 12 -25 l29 24 -1 -36 c-1 -21 4 -38 12 -40 8 -3 12 9 12 40
0 40 2 45 20 40 28 -8 26 23 -2 32 l-23 8 23 4 c25 5 30 23 7 23 -8 0 -15 7
-15 15 0 8 -6 15 -12 15 -8 1 -6 6 5 14 24 18 21 26 -9 26 -25 0 -26 -2 -20
-40z"/>
<path d="M288 1593 c-16 -2 -28 -9 -28 -14 0 -10 43 -12 78 -3 12 4 22 10 22
15 0 9 -22 10 -72 2z"/>
<path d="M260 1313 c-54 -8 -70 -14 -70 -24 0 -6 10 -9 22 -7 24 3 24 4 26
-69 2 -54 22 -57 22 -3 0 29 4 40 15 40 8 0 15 5 15 10 0 6 -4 10 -10 10 -20
0 -10 19 12 22 12 2 23 9 26 16 4 12 -8 13 -58 5z"/>
<path d="M300 1270 c0 -5 11 -10 25 -10 18 0 23 -4 18 -16 -5 -14 -1 -15 28
-9 43 9 45 11 29 30 -14 17 -100 21 -100 5z"/>
<path d="M123 1239 c-7 -18 -10 -36 -7 -40 10 -17 24 -9 30 16 7 28 29 33 38
10 6 -17 36 -21 36 -5 0 6 -4 10 -10 10 -5 0 -7 7 -4 15 5 11 -1 15 -19 15
-14 0 -31 2 -39 5 -8 3 -18 -6 -25 -26z"/>
<path d="M295 1239 c-4 -6 -5 -12 -2 -15 7 -7 37 7 37 17 0 13 -27 11 -35 -2z"/>
<path d="M284 1175 c6 -28 4 -35 -9 -35 -8 0 -15 -4 -15 -10 0 -5 7 -10 16
-10 14 0 16 -9 10 -70 -6 -60 -5 -70 8 -70 13 0 16 13 16 70 0 66 1 70 25 76
32 8 32 24 0 24 -23 0 -24 2 -15 20 13 25 5 40 -22 40 -18 0 -19 -4 -14 -35z"/>
<path d="M164 1160 c6 -39 6 -40 -24 -40 -37 0 -40 -17 -4 -22 l25 -3 -35 -35
c-53 -53 -44 -72 12 -25 l29 24 -1 -36 c-1 -21 4 -38 12 -40 8 -3 12 9 12 40
0 40 2 45 20 40 28 -8 26 23 -2 32 l-23 8 23 4 c25 5 30 23 7 23 -8 0 -15 7
-15 15 0 8 -6 15 -12 15 -8 1 -6 6 5 14 24 18 21 26 -9 26 -25 0 -26 -2 -20
-40z"/>
<path d="M260 863 c-54 -8 -70 -14 -70 -24 0 -6 10 -9 22 -7 24 3 24 4 26 -69
2 -54 22 -57 22 -3 0 29 4 40 15 40 8 0 15 5 15 10 0 6 -4 10 -10 10 -20 0
-10 19 12 22 12 2 23 9 26 16 4 12 -8 13 -58 5z"/>
<path d="M300 820 c0 -5 11 -10 25 -10 18 0 23 -4 18 -16 -5 -14 -1 -15 28 -9
43 9 45 11 29 30 -14 17 -100 21 -100 5z"/>
<path d="M123 789 c-7 -18 -10 -36 -7 -40 10 -17 24 -9 30 16 7 28 29 33 38
10 6 -17 36 -21 36 -5 0 6 -4 10 -10 10 -5 0 -7 7 -4 15 5 11 -1 15 -19 15
-14 0 -31 2 -39 5 -8 3 -18 -6 -25 -26z"/>
<path d="M295 789 c-4 -6 -5 -12 -2 -15 7 -7 37 7 37 17 0 13 -27 11 -35 -2z"/>
<path d="M284 725 c6 -28 4 -35 -9 -35 -17 0 -20 -17 -4 -22 7 -2 -1 -19 -20
-40 -17 -20 -31 -38 -31 -42 0 -14 22 -5 46 19 l25 25 -7 -50 c-6 -42 -4 -50
10 -50 13 0 16 12 16 70 0 66 1 70 25 76 32 8 32 24 0 24 -23 0 -24 2 -15 20
13 25 5 40 -22 40 -18 0 -19 -4 -14 -35z"/>
<path d="M164 710 c6 -39 6 -40 -24 -40 -37 0 -40 -17 -4 -22 l25 -3 -35 -35
c-53 -53 -44 -72 12 -25 l29 24 -1 -36 c-1 -21 4 -38 12 -40 8 -3 12 9 12 40
0 40 2 45 20 40 28 -8 26 23 -2 32 l-23 8 23 4 c25 5 30 23 7 23 -8 0 -15 7
-15 15 0 8 -6 15 -12 15 -8 1 -6 6 5 14 24 18 21 26 -9 26 -25 0 -26 -2 -20
-40z"/>
<path d="M260 413 c-54 -8 -70 -14 -70 -24 0 -6 10 -9 22 -7 24 3 24 4 26 -69
2 -54 22 -57 22 -3 0 29 4 40 15 40 8 0 15 5 15 10 0 6 -4 10 -10 10 -20 0
-10 19 12 22 12 2 23 9 26 16 4 12 -8 13 -58 5z"/>
<path d="M300 370 c0 -5 11 -10 25 -10 18 0 23 -4 18 -16 -5 -14 -1 -15 28 -9
43 9 45 11 29 30 -14 17 -100 21 -100 5z"/>
<path d="M123 339 c-7 -18 -10 -36 -7 -40 10 -17 24 -9 30 16 7 28 29 33 38
10 6 -17 36 -21 36 -5 0 6 -4 10 -10 10 -5 0 -7 7 -4 15 5 11 -1 15 -19 15
-14 0 -31 2 -39 5 -8 3 -18 -6 -25 -26z"/>
<path d="M295 339 c-4 -6 -5 -12 -2 -15 7 -7 37 7 37 17 0 13 -27 11 -35 -2z"/>
<path d="M284 275 c6 -28 4 -35 -9 -35 -17 0 -20 -17 -4 -22 7 -2 -1 -19 -20
-40 -17 -20 -31 -38 -31 -42 0 -14 22 -5 46 19 l25 25 -7 -50 c-6 -42 -4 -50
10 -50 13 0 16 11 16 57 l0 58 25 -38 c18 -26 33 -37 50 -37 29 0 34 26 7 34
-10 4 -32 20 -47 36 -29 31 -29 31 -7 37 30 7 28 23 -3 23 -23 0 -24 2 -15 20
13 25 5 40 -22 40 -18 0 -19 -4 -14 -35z"/>
<path d="M164 260 c6 -39 6 -40 -24 -40 -37 0 -40 -17 -4 -22 l25 -3 -35 -35
c-53 -53 -44 -72 12 -25 l29 24 -1 -36 c-1 -21 4 -38 12 -40 8 -3 12 9 12 40
0 40 2 45 20 40 28 -8 26 23 -2 32 l-23 8 23 4 c25 5 30 23 7 23 -8 0 -15 7
-15 15 0 8 -6 15 -12 15 -8 1 -6 6 5 14 24 18 21 26 -9 26 -25 0 -26 -2 -20
-40z"/>
</g>
</svg>
