<?xml version="1.0" standalone="no"?>
<!DOCTYPE svg PUBLIC "-//W3C//DTD SVG 20010904//EN"
 "http://www.w3.org/TR/2001/REC-SVG-20010904/DTD/svg10.dtd">
<svg version="1.0" xmlns="http://www.w3.org/2000/svg"
 width="95.000000pt" height="725.000000pt" viewBox="0 0 95.000000 725.000000"
 preserveAspectRatio="xMidYMid meet">
<metadata>
Created by potrace 1.16, written by Peter Selinger 2001-2019
</metadata>
<g transform="translate(0.000000,725.000000) scale(0.100000,-0.100000)"
fill="#000000" stroke="none">
<path d="M233 7163 c-46 -4 -60 -23 -18 -23 14 0 25 -4 25 -10 0 -5 -24 -10
-54 -10 -40 0 -55 -4 -60 -16 -10 -27 -7 -44 9 -44 8 0 15 6 15 14 0 14 29 26
68 26 19 0 22 -5 22 -35 0 -33 12 -46 25 -26 3 5 6 30 7 55 2 40 5 45 30 50
15 3 28 10 28 16 0 10 -13 10 -97 3z"/>
<path d="M683 7163 c-62 -6 -53 -23 11 -23 58 0 86 7 86 21 0 9 -15 9 -97 2z"/>
<path d="M290 7120 c0 -5 16 -10 35 -10 28 0 33 -3 28 -16 -5 -14 -2 -16 23
-10 37 10 39 12 24 31 -14 17 -110 22 -110 5z"/>
<path d="M285 7090 c-9 -14 13 -50 30 -50 18 0 20 16 3 24 -10 5 -10 7 0 12 6
3 12 10 12 15 0 12 -37 12 -45 -1z"/>
<path d="M190 7080 c0 -5 7 -10 15 -10 8 0 15 5 15 10 0 6 -7 10 -15 10 -8 0
-15 -4 -15 -10z"/>
<path d="M173 7041 c3 -13 -3 -22 -20 -30 -17 -8 -23 -17 -19 -27 3 -9 6 -22
6 -31 0 -10 6 -13 18 -9 10 4 7 -2 -8 -13 -32 -26 -19 -39 17 -17 27 17 27 17
-2 -8 -16 -14 -33 -26 -37 -26 -5 0 -8 -5 -8 -11 0 -14 39 -2 64 20 18 15 19
15 13 -2 -4 -10 -7 -21 -7 -23 0 -2 -7 -4 -15 -4 -20 0 -19 -29 1 -37 30 -11
46 25 41 89 -4 43 -2 58 9 62 10 4 16 -4 21 -24 9 -48 22 -35 20 20 -2 40 -5
50 -19 50 -10 0 -18 -4 -18 -9 0 -5 -10 -11 -22 -14 -19 -5 -21 -4 -8 6 9 7
16 22 17 35 1 17 -4 22 -24 22 -20 0 -24 -4 -20 -19z m2 -61 c3 -5 1 -10 -4
-10 -6 0 -11 5 -11 10 0 6 2 10 4 10 3 0 8 -4 11 -10z"/>
<path d="M300 7020 c0 -5 12 -10 26 -10 25 0 26 -2 20 -40 -5 -30 -3 -40 7
-40 13 0 39 78 31 92 -7 12 -84 10 -84 -2z"/>
<path d="M233 6713 c-46 -4 -60 -23 -18 -23 14 0 25 -4 25 -10 0 -5 -24 -10
-54 -10 -40 0 -55 -4 -60 -16 -10 -27 -7 -44 9 -44 8 0 15 6 15 14 0 14 29 26
68 26 19 0 22 -5 22 -35 0 -33 12 -46 25 -26 3 5 6 30 7 55 2 40 5 45 30 50
15 3 28 10 28 16 0 10 -13 10 -97 3z"/>
<path d="M683 6713 c-62 -6 -53 -23 11 -23 58 0 86 7 86 21 0 9 -15 9 -97 2z"/>
<path d="M290 6670 c0 -5 16 -10 35 -10 28 0 33 -3 28 -16 -5 -14 -2 -16 23
-10 37 10 39 12 24 31 -14 17 -110 22 -110 5z"/>
<path d="M576 6654 c-10 -26 -7 -44 8 -44 14 0 29 37 20 52 -8 13 -21 9 -28
-8z"/>
<path d="M285 6640 c-9 -14 13 -50 30 -50 18 0 20 16 3 24 -10 5 -10 7 0 12 6
3 12 10 12 15 0 12 -37 12 -45 -1z"/>
<path d="M190 6630 c0 -5 7 -10 15 -10 8 0 15 5 15 10 0 6 -7 10 -15 10 -8 0
-15 -4 -15 -10z"/>
<path d="M173 6591 c3 -13 -3 -22 -20 -30 -17 -8 -23 -17 -19 -27 3 -9 6 -22
6 -31 0 -10 6 -13 18 -9 10 4 7 -2 -8 -13 -32 -26 -19 -39 17 -17 27 17 27 17
-2 -8 -16 -14 -33 -26 -37 -26 -5 0 -8 -5 -8 -11 0 -14 39 -2 64 20 18 15 19
15 13 -2 -4 -10 -7 -21 -7 -23 0 -2 -7 -4 -15 -4 -20 0 -19 -29 1 -37 30 -11
46 25 41 89 -4 43 -2 58 9 62 10 4 16 -4 21 -24 6 -34 23 -41 23 -10 0 12 7
20 18 20 9 0 27 3 39 6 18 5 21 3 16 -15 -4 -14 -1 -21 9 -21 14 0 41 77 32
92 -7 12 -84 10 -84 -2 0 -5 11 -10 25 -10 35 0 31 -16 -6 -24 -52 -10 -61 -8
-54 14 5 16 2 20 -14 20 -12 0 -21 -4 -21 -9 0 -5 -10 -11 -22 -14 -19 -5 -21
-4 -8 6 9 7 16 22 17 35 1 17 -4 22 -24 22 -20 0 -24 -4 -20 -19z m2 -61 c3
-5 1 -10 -4 -10 -6 0 -11 5 -11 10 0 6 2 10 4 10 3 0 8 -4 11 -10z"/>
<path d="M233 6263 c-46 -4 -60 -23 -18 -23 14 0 25 -4 25 -10 0 -5 -24 -10
-54 -10 -40 0 -55 -4 -60 -16 -10 -27 -7 -44 9 -44 8 0 15 6 15 14 0 14 29 26
68 26 19 0 22 -5 22 -35 0 -33 12 -46 25 -26 3 5 6 30 7 55 2 40 5 45 30 50
15 3 28 10 28 16 0 10 -13 10 -97 3z"/>
<path d="M683 6263 c-62 -6 -53 -23 11 -23 58 0 86 7 86 21 0 9 -15 9 -97 2z"/>
<path d="M290 6220 c0 -5 16 -10 35 -10 28 0 33 -3 28 -16 -5 -14 -2 -16 23
-10 37 10 39 12 24 31 -14 17 -110 22 -110 5z"/>
<path d="M740 6220 c0 -5 16 -10 35 -10 28 0 33 -3 28 -16 -5 -14 -2 -16 23
-10 37 10 39 12 24 31 -14 17 -110 22 -110 5z"/>
<path d="M576 6204 c-10 -27 -7 -44 9 -44 8 0 15 6 15 14 0 17 31 26 88 26 23
0 42 5 42 10 0 6 -31 10 -74 10 -58 0 -75 -3 -80 -16z"/>
<path d="M285 6190 c-9 -14 13 -50 30 -50 18 0 20 16 3 24 -10 5 -10 7 0 12 6
3 12 10 12 15 0 12 -37 12 -45 -1z"/>
<path d="M190 6180 c0 -5 7 -10 15 -10 8 0 15 5 15 10 0 6 -7 10 -15 10 -8 0
-15 -4 -15 -10z"/>
<path d="M173 6141 c3 -13 -3 -22 -20 -30 -17 -8 -23 -17 -19 -27 3 -9 6 -22
6 -31 0 -10 6 -13 18 -9 10 4 7 -2 -8 -13 -32 -26 -19 -39 17 -17 27 17 27 17
-2 -8 -16 -14 -33 -26 -37 -26 -5 0 -8 -5 -8 -11 0 -14 39 -2 64 20 18 15 19
15 13 -2 -4 -10 -7 -21 -7 -23 0 -2 -7 -4 -15 -4 -20 0 -19 -29 1 -37 30 -11
46 25 41 89 -4 43 -2 58 9 62 10 4 16 -4 21 -25 6 -29 8 -31 42 -25 20 3 45 6
56 6 16 0 24 10 32 42 6 23 9 46 7 50 -7 12 -84 10 -84 -2 0 -5 11 -10 25 -10
35 0 31 -16 -6 -24 -52 -10 -61 -8 -54 14 5 16 2 20 -14 20 -12 0 -21 -4 -21
-9 0 -5 -10 -11 -22 -14 -19 -5 -21 -4 -8 6 9 7 16 22 17 35 1 17 -4 22 -24
22 -20 0 -24 -4 -20 -19z m2 -61 c3 -5 1 -10 -4 -10 -6 0 -11 5 -11 10 0 6 2
10 4 10 3 0 8 -4 11 -10z m170 -19 c-15 -14 -75 -24 -75 -12 0 8 21 14 70 20
8 0 10 -2 5 -8z"/>
<path d="M233 5813 c-46 -4 -60 -23 -18 -23 14 0 25 -4 25 -10 0 -5 -24 -10
-54 -10 -40 0 -55 -4 -60 -16 -10 -27 -7 -44 9 -44 8 0 15 6 15 14 0 14 29 26
68 26 19 0 22 -5 22 -35 0 -33 12 -46 25 -26 3 5 6 30 7 55 2 40 5 45 30 50
15 3 28 10 28 16 0 10 -13 10 -97 3z"/>
<path d="M683 5813 c-46 -4 -60 -23 -18 -23 14 0 25 -4 25 -10 0 -5 -24 -10
-54 -10 -40 0 -55 -4 -60 -16 -10 -27 -7 -44 9 -44 8 0 15 6 15 14 0 14 29 26
68 26 19 0 22 -5 22 -35 0 -33 12 -46 25 -26 3 5 6 30 7 55 2 40 5 45 30 50
15 3 28 10 28 16 0 10 -13 10 -97 3z"/>
<path d="M290 5770 c0 -5 16 -10 35 -10 28 0 33 -3 28 -16 -5 -14 -2 -16 23
-10 37 10 39 12 24 31 -14 17 -110 22 -110 5z"/>
<path d="M740 5770 c0 -5 16 -10 35 -10 28 0 33 -3 28 -16 -5 -14 -2 -16 23
-10 37 10 39 12 24 31 -14 17 -110 22 -110 5z"/>
<path d="M285 5740 c-9 -14 13 -50 30 -50 18 0 20 16 3 24 -10 5 -10 7 0 12 6
3 12 10 12 15 0 12 -37 12 -45 -1z"/>
<path d="M190 5730 c0 -5 7 -10 15 -10 8 0 15 5 15 10 0 6 -7 10 -15 10 -8 0
-15 -4 -15 -10z"/>
<path d="M173 5691 c3 -13 -3 -22 -20 -30 -17 -8 -23 -17 -19 -27 3 -9 6 -22
6 -31 0 -10 6 -13 18 -9 10 4 7 -2 -8 -13 -32 -26 -19 -39 17 -17 27 17 27 17
-2 -8 -16 -14 -33 -26 -37 -26 -5 0 -8 -5 -8 -11 0 -14 39 -2 64 20 18 15 19
15 13 -2 -4 -10 -7 -21 -7 -23 0 -2 -7 -4 -15 -4 -20 0 -19 -29 1 -37 30 -11
46 25 41 89 -4 43 -2 58 9 62 10 4 16 -4 21 -25 6 -29 8 -31 42 -25 20 3 45 6
56 6 16 0 24 10 32 42 6 23 9 46 7 50 -7 12 -84 10 -84 -2 0 -5 11 -10 25 -10
35 0 31 -16 -6 -24 -52 -10 -61 -8 -54 14 5 16 2 20 -14 20 -12 0 -21 -4 -21
-9 0 -5 -10 -11 -22 -14 -19 -5 -21 -4 -8 6 9 7 16 22 17 35 1 17 -4 22 -24
22 -20 0 -24 -4 -20 -19z m2 -61 c3 -5 1 -10 -4 -10 -6 0 -11 5 -11 10 0 6 2
10 4 10 3 0 8 -4 11 -10z m170 -19 c-15 -14 -75 -24 -75 -12 0 8 21 14 70 20
8 0 10 -2 5 -8z"/>
<path d="M278 5553 c-33 -5 -37 -23 -5 -23 41 0 97 13 97 21 0 9 -41 10 -92 2z"/>
<path d="M233 5363 c-46 -4 -60 -23 -18 -23 14 0 25 -4 25 -10 0 -5 -24 -10
-54 -10 -40 0 -55 -4 -60 -16 -10 -27 -7 -44 9 -44 8 0 15 6 15 14 0 14 29 26
68 26 19 0 22 -5 22 -35 0 -33 12 -46 25 -26 3 5 6 30 7 55 2 40 5 45 30 50
15 3 28 10 28 16 0 10 -13 10 -97 3z"/>
<path d="M683 5363 c-46 -4 -60 -23 -18 -23 14 0 25 -4 25 -10 0 -5 -24 -10
-54 -10 -40 0 -55 -4 -60 -16 -10 -27 -7 -44 9 -44 8 0 15 6 15 14 0 14 29 26
68 26 19 0 22 -5 22 -35 0 -33 12 -46 25 -26 3 5 6 30 7 55 2 40 5 45 30 50
15 3 28 10 28 16 0 10 -13 10 -97 3z"/>
<path d="M290 5320 c0 -5 16 -10 35 -10 28 0 33 -3 28 -16 -5 -14 -2 -16 23
-10 37 10 39 12 24 31 -14 17 -110 22 -110 5z"/>
<path d="M740 5320 c0 -5 16 -10 35 -10 28 0 33 -3 28 -16 -5 -14 -2 -16 23
-10 37 10 39 12 24 31 -14 17 -110 22 -110 5z"/>
<path d="M285 5290 c-9 -14 13 -50 30 -50 18 0 20 16 3 24 -10 5 -10 7 0 12 6
3 12 10 12 15 0 12 -37 12 -45 -1z"/>
<path d="M190 5280 c0 -5 7 -10 15 -10 8 0 15 5 15 10 0 6 -7 10 -15 10 -8 0
-15 -4 -15 -10z"/>
<path d="M640 5280 c0 -5 7 -10 15 -10 8 0 15 5 15 10 0 6 -7 10 -15 10 -8 0
-15 -4 -15 -10z"/>
<path d="M173 5241 c3 -13 -3 -22 -20 -30 -17 -8 -23 -17 -19 -27 3 -9 6 -22
6 -31 0 -10 6 -13 18 -9 10 4 7 -2 -8 -13 -32 -26 -19 -39 17 -17 27 17 27 17
-2 -8 -16 -14 -33 -26 -37 -26 -5 0 -8 -5 -8 -11 0 -14 39 -2 64 20 18 15 19
15 13 -2 -4 -10 -7 -21 -7 -23 0 -2 -7 -4 -15 -4 -20 0 -19 -29 1 -37 30 -11
46 25 41 89 -4 43 -2 58 9 62 10 4 16 -4 21 -24 4 -21 11 -30 24 -30 11 0 19
-4 19 -10 0 -5 -9 -10 -20 -10 -11 0 -20 -4 -20 -10 0 -5 9 -10 19 -10 11 0
22 -6 25 -12 3 -9 8 -8 16 5 6 9 22 17 35 17 14 0 25 5 25 10 0 6 -14 10 -31
10 -17 0 -28 4 -24 10 3 6 16 10 29 10 17 0 24 9 33 43 7 23 8 46 4 50 -5 5
-26 7 -47 5 -32 -2 -40 -7 -42 -25 -2 -13 -10 -23 -18 -23 -11 0 -13 6 -9 20
5 16 2 20 -14 20 -12 0 -21 -4 -21 -9 0 -5 -10 -11 -22 -14 -19 -5 -21 -4 -8
6 9 7 16 22 17 35 1 17 -4 22 -24 22 -20 0 -24 -4 -20 -19z m177 -41 c0 -5 -9
-10 -21 -10 -11 0 -17 5 -14 10 3 6 13 10 21 10 8 0 14 -4 14 -10z m-175 -20
c3 -5 1 -10 -4 -10 -6 0 -11 5 -11 10 0 6 2 10 4 10 3 0 8 -4 11 -10z m170
-20 c-3 -5 -13 -10 -21 -10 -8 0 -12 5 -9 10 3 6 13 10 21 10 8 0 12 -4 9 -10z
m-55 -10 c0 -5 -4 -10 -10 -10 -5 0 -10 5 -10 10 0 6 5 10 10 10 6 0 10 -4 10
-10z"/>
<path d="M233 4913 c-46 -4 -60 -23 -18 -23 14 0 25 -4 25 -10 0 -5 -24 -10
-54 -10 -40 0 -55 -4 -60 -16 -10 -27 -7 -44 9 -44 8 0 15 6 15 14 0 14 29 26
68 26 19 0 22 -5 22 -35 0 -33 12 -46 25 -26 3 5 6 30 7 55 2 40 5 45 30 50
15 3 28 10 28 16 0 10 -13 10 -97 3z"/>
<path d="M683 4913 c-46 -4 -60 -23 -18 -23 14 0 25 -4 25 -10 0 -5 -24 -10
-54 -10 -40 0 -55 -4 -60 -16 -10 -27 -7 -44 9 -44 8 0 15 6 15 14 0 14 29 26
68 26 19 0 22 -5 22 -35 0 -33 12 -46 25 -26 3 5 6 30 7 55 2 40 5 45 30 50
15 3 28 10 28 16 0 10 -13 10 -97 3z"/>
<path d="M290 4870 c0 -5 16 -10 35 -10 28 0 33 -3 28 -16 -5 -14 -2 -16 23
-10 37 10 39 12 24 31 -14 17 -110 22 -110 5z"/>
<path d="M740 4870 c0 -5 16 -10 35 -10 28 0 33 -3 28 -16 -5 -14 -2 -16 23
-10 37 10 39 12 24 31 -14 17 -110 22 -110 5z"/>
<path d="M285 4840 c-9 -14 13 -50 30 -50 18 0 20 16 3 24 -10 5 -10 7 0 12 6
3 12 10 12 15 0 12 -37 12 -45 -1z"/>
<path d="M190 4830 c0 -5 7 -10 15 -10 8 0 15 5 15 10 0 6 -7 10 -15 10 -8 0
-15 -4 -15 -10z"/>
<path d="M640 4830 c0 -5 7 -10 15 -10 8 0 15 5 15 10 0 6 -7 10 -15 10 -8 0
-15 -4 -15 -10z"/>
<path d="M173 4791 c3 -13 -3 -22 -20 -30 -17 -8 -23 -17 -19 -27 3 -9 6 -22
6 -31 0 -10 6 -13 18 -9 10 4 7 -2 -8 -13 -32 -26 -19 -39 17 -17 27 17 27 17
-2 -8 -16 -14 -33 -26 -37 -26 -5 0 -8 -5 -8 -11 0 -14 39 -2 64 20 18 15 19
15 13 -2 -4 -10 -7 -21 -7 -23 0 -2 -7 -4 -15 -4 -20 0 -19 -29 1 -37 10 -3
22 0 28 8 8 10 28 13 71 11 69 -4 125 5 125 18 0 6 -21 10 -46 10 -27 0 -43 4
-39 10 3 6 17 10 31 10 13 0 24 5 24 10 0 6 -14 10 -31 10 -17 0 -28 4 -24 10
3 6 16 10 29 10 17 0 24 9 33 43 7 23 8 46 4 50 -5 5 -26 7 -47 5 -32 -2 -40
-7 -42 -25 -2 -13 -10 -23 -18 -23 -11 0 -13 6 -9 20 5 16 2 20 -14 20 -12 0
-21 -4 -21 -9 0 -5 -10 -11 -22 -14 -19 -5 -21 -4 -8 6 9 7 16 22 17 35 1 17
-4 22 -24 22 -20 0 -24 -4 -20 -19z m177 -41 c0 -5 -9 -10 -21 -10 -11 0 -17
5 -14 10 3 6 13 10 21 10 8 0 14 -4 14 -10z m-175 -20 c3 -5 1 -10 -4 -10 -6
0 -11 5 -11 10 0 6 2 10 4 10 3 0 8 -4 11 -10z m75 -42 c0 -11 8 -18 20 -18
11 0 20 -4 20 -10 0 -5 -9 -10 -20 -10 -11 0 -20 -4 -20 -10 0 -5 9 -10 20
-10 11 0 20 -4 20 -10 0 -5 -15 -10 -34 -10 -33 0 -34 1 -39 53 -3 32 -1 55 6
59 13 8 27 -9 27 -34z m95 22 c-3 -5 -13 -10 -21 -10 -8 0 -12 5 -9 10 3 6 13
10 21 10 8 0 12 -4 9 -10z m-55 -10 c0 -5 -4 -10 -10 -10 -5 0 -10 5 -10 10 0
6 5 10 10 10 6 0 10 -4 10 -10z"/>
<path d="M620 4795 c0 -16 9 -19 34 -9 25 9 19 24 -9 24 -16 0 -25 -6 -25 -15z"/>
<path d="M683 4463 c-46 -4 -60 -23 -18 -23 14 0 25 -4 25 -10 0 -5 -24 -10
-54 -10 -40 0 -55 -4 -60 -16 -10 -27 -7 -44 9 -44 8 0 15 6 15 14 0 14 29 26
68 26 19 0 22 -5 22 -35 0 -33 12 -46 25 -26 3 5 6 30 7 55 2 40 5 45 30 50
15 3 28 10 28 16 0 10 -13 10 -97 3z"/>
<path d="M740 4420 c0 -5 16 -10 35 -10 28 0 33 -3 28 -16 -5 -14 -2 -16 23
-10 37 10 39 12 24 31 -14 17 -110 22 -110 5z"/>
<path d="M735 4389 c-4 -6 -5 -13 -2 -16 8 -7 47 7 47 18 0 13 -37 11 -45 -2z"/>
<path d="M640 4380 c0 -5 7 -10 15 -10 8 0 15 5 15 10 0 6 -7 10 -15 10 -8 0
-15 -4 -15 -10z"/>
<path d="M620 4345 c0 -16 9 -19 34 -9 25 9 19 24 -9 24 -16 0 -25 -6 -25 -15z"/>
<path d="M683 4013 c-46 -4 -60 -23 -18 -23 14 0 25 -4 25 -10 0 -5 -24 -10
-54 -10 -40 0 -55 -4 -60 -16 -10 -27 -7 -44 9 -44 8 0 15 6 15 14 0 14 29 26
68 26 19 0 22 -5 22 -35 0 -33 12 -46 25 -26 3 5 6 30 7 55 2 40 5 45 30 50
15 3 28 10 28 16 0 10 -13 10 -97 3z"/>
<path d="M740 3970 c0 -5 16 -10 35 -10 28 0 33 -3 28 -16 -5 -14 -2 -16 23
-10 37 10 39 12 24 31 -14 17 -110 22 -110 5z"/>
<path d="M735 3940 c-9 -14 13 -50 30 -50 18 0 20 16 3 24 -10 5 -10 7 0 12 6
3 12 10 12 15 0 12 -37 12 -45 -1z"/>
<path d="M640 3930 c0 -5 7 -10 15 -10 8 0 15 5 15 10 0 6 -7 10 -15 10 -8 0
-15 -4 -15 -10z"/>
<path d="M620 3895 c0 -16 9 -19 34 -9 25 9 19 24 -9 24 -16 0 -25 -6 -25 -15z"/>
<path d="M683 3563 c-46 -4 -60 -23 -18 -23 14 0 25 -4 25 -10 0 -5 -24 -10
-54 -10 -40 0 -55 -4 -60 -16 -10 -27 -7 -44 9 -44 8 0 15 6 15 14 0 14 29 26
68 26 19 0 22 -5 22 -35 0 -33 12 -46 25 -26 3 5 6 30 7 55 2 40 5 45 30 50
15 3 28 10 28 16 0 10 -13 10 -97 3z"/>
<path d="M740 3520 c0 -5 16 -10 35 -10 28 0 33 -3 28 -16 -5 -14 -2 -16 23
-10 37 10 39 12 24 31 -14 17 -110 22 -110 5z"/>
<path d="M735 3490 c-9 -14 13 -50 30 -50 18 0 20 16 3 24 -10 5 -10 7 0 12 6
3 12 10 12 15 0 12 -37 12 -45 -1z"/>
<path d="M640 3480 c0 -5 7 -10 15 -10 8 0 15 5 15 10 0 6 -7 10 -15 10 -8 0
-15 -4 -15 -10z"/>
<path d="M623 3440 c3 -13 -1 -21 -14 -25 -10 -4 -19 -11 -19 -16 0 -12 10
-11 47 2 23 7 31 16 31 35 0 19 -6 24 -25 24 -20 0 -24 -4 -20 -20z"/>
<path d="M683 3113 c-46 -4 -60 -23 -18 -23 14 0 25 -4 25 -10 0 -5 -24 -10
-54 -10 -40 0 -55 -4 -60 -16 -10 -27 -7 -44 9 -44 8 0 15 6 15 14 0 14 29 26
68 26 19 0 22 -5 22 -35 0 -33 12 -46 25 -26 3 5 6 30 7 55 2 40 5 45 30 50
15 3 28 10 28 16 0 10 -13 10 -97 3z"/>
<path d="M740 3070 c0 -5 16 -10 35 -10 28 0 33 -3 28 -16 -5 -14 -2 -16 23
-10 37 10 39 12 24 31 -14 17 -110 22 -110 5z"/>
<path d="M735 3040 c-9 -14 13 -50 30 -50 18 0 20 16 3 24 -10 5 -10 7 0 12 6
3 12 10 12 15 0 12 -37 12 -45 -1z"/>
<path d="M640 3030 c0 -5 7 -10 15 -10 8 0 15 5 15 10 0 6 -7 10 -15 10 -8 0
-15 -4 -15 -10z"/>
<path d="M623 2990 c3 -11 2 -20 -2 -20 -19 0 -42 -27 -35 -43 8 -21 24 -22
24 -1 0 8 13 20 29 25 21 7 29 17 29 35 0 19 -6 24 -25 24 -20 0 -24 -4 -20
-20z"/>
<path d="M683 2663 c-46 -4 -60 -23 -18 -23 14 0 25 -4 25 -10 0 -5 -24 -10
-54 -10 -40 0 -55 -4 -60 -16 -10 -27 -7 -44 9 -44 8 0 15 6 15 14 0 14 29 26
68 26 19 0 22 -5 22 -35 0 -33 12 -46 25 -26 3 5 6 30 7 55 2 40 5 45 30 50
15 3 28 10 28 16 0 10 -13 10 -97 3z"/>
<path d="M740 2620 c0 -5 16 -10 35 -10 28 0 33 -3 28 -16 -5 -14 -2 -16 23
-10 37 10 39 12 24 31 -14 17 -110 22 -110 5z"/>
<path d="M735 2590 c-9 -14 13 -50 30 -50 18 0 20 16 3 24 -10 5 -10 7 0 12 6
3 12 10 12 15 0 12 -37 12 -45 -1z"/>
<path d="M640 2580 c0 -5 7 -10 15 -10 8 0 15 5 15 10 0 6 -7 10 -15 10 -8 0
-15 -4 -15 -10z"/>
<path d="M623 2540 c3 -11 2 -20 -2 -20 -19 0 -42 -27 -35 -43 8 -22 24 -22
24 0 0 13 3 14 12 5 17 -17 31 -15 24 3 -3 9 0 18 8 21 7 3 14 16 14 30 0 19
-6 24 -25 24 -20 0 -24 -4 -20 -20z"/>
<path d="M683 2213 c-46 -4 -60 -23 -18 -23 14 0 25 -4 25 -10 0 -5 -24 -10
-54 -10 -40 0 -55 -4 -60 -16 -10 -27 -7 -44 9 -44 8 0 15 6 15 14 0 14 29 26
68 26 19 0 22 -5 22 -35 0 -33 12 -46 25 -26 3 5 6 30 7 55 2 40 5 45 30 50
15 3 28 10 28 16 0 10 -13 10 -97 3z"/>
<path d="M740 2170 c0 -5 16 -10 35 -10 28 0 33 -3 28 -16 -5 -14 -2 -16 23
-10 37 10 39 12 24 31 -14 17 -110 22 -110 5z"/>
<path d="M735 2140 c-9 -14 13 -50 30 -50 18 0 20 16 3 24 -10 5 -10 7 0 12 6
3 12 10 12 15 0 12 -37 12 -45 -1z"/>
<path d="M640 2130 c0 -5 7 -10 15 -10 8 0 15 5 15 10 0 6 -7 10 -15 10 -8 0
-15 -4 -15 -10z"/>
<path d="M623 2091 c3 -13 -3 -22 -19 -30 -20 -9 -23 -16 -18 -38 4 -16 8 -29
9 -31 1 -1 23 6 49 17 51 22 63 47 19 38 -23 -4 -25 -3 -12 6 8 7 15 22 16 35
1 17 -4 22 -24 22 -20 0 -24 -4 -20 -19z m2 -61 c3 -5 1 -10 -4 -10 -6 0 -11
5 -11 10 0 6 2 10 4 10 3 0 8 -4 11 -10z"/>
<path d="M683 1763 c-46 -4 -60 -23 -18 -23 14 0 25 -4 25 -10 0 -5 -24 -10
-54 -10 -40 0 -55 -4 -60 -16 -10 -27 -7 -44 9 -44 8 0 15 6 15 14 0 14 29 26
68 26 19 0 22 -5 22 -35 0 -33 12 -46 25 -26 3 5 6 30 7 55 2 40 5 45 30 50
15 3 28 10 28 16 0 10 -13 10 -97 3z"/>
<path d="M740 1720 c0 -5 16 -10 35 -10 28 0 33 -3 28 -16 -5 -14 -2 -16 23
-10 37 10 39 12 24 31 -14 17 -110 22 -110 5z"/>
<path d="M735 1690 c-9 -14 13 -50 30 -50 18 0 20 16 3 24 -10 5 -10 7 0 12 6
3 12 10 12 15 0 12 -37 12 -45 -1z"/>
<path d="M640 1680 c0 -5 7 -10 15 -10 8 0 15 5 15 10 0 6 -7 10 -15 10 -8 0
-15 -4 -15 -10z"/>
<path d="M623 1641 c3 -13 -3 -22 -20 -30 -17 -8 -23 -17 -19 -27 3 -9 6 -22
6 -30 0 -10 7 -13 24 -8 19 4 26 1 31 -16 9 -30 -2 -70 -20 -70 -20 0 -19 -29
1 -37 30 -11 46 25 41 89 -4 43 -2 58 9 62 26 10 15 29 -13 23 -23 -4 -25 -3
-12 6 8 7 15 22 16 35 1 17 -4 22 -24 22 -20 0 -24 -4 -20 -19z m2 -61 c3 -5
1 -10 -4 -10 -6 0 -11 5 -11 10 0 6 2 10 4 10 3 0 8 -4 11 -10z"/>
<path d="M683 1313 c-46 -4 -60 -23 -18 -23 14 0 25 -4 25 -10 0 -5 -24 -10
-54 -10 -40 0 -55 -4 -60 -16 -10 -27 -7 -44 9 -44 8 0 15 6 15 14 0 14 29 26
68 26 19 0 22 -5 22 -35 0 -33 12 -46 25 -26 3 5 6 30 7 55 2 40 5 45 30 50
15 3 28 10 28 16 0 10 -13 10 -97 3z"/>
<path d="M740 1270 c0 -5 16 -10 35 -10 28 0 33 -3 28 -16 -5 -14 -2 -16 23
-10 37 10 39 12 24 31 -14 17 -110 22 -110 5z"/>
<path d="M735 1240 c-9 -14 13 -50 30 -50 18 0 20 16 3 24 -10 5 -10 7 0 12 6
3 12 10 12 15 0 12 -37 12 -45 -1z"/>
<path d="M640 1230 c0 -5 7 -10 15 -10 8 0 15 5 15 10 0 6 -7 10 -15 10 -8 0
-15 -4 -15 -10z"/>
<path d="M623 1191 c3 -13 -3 -22 -20 -30 -17 -8 -23 -17 -19 -27 3 -9 6 -22
6 -31 0 -10 6 -13 18 -9 10 4 7 -2 -8 -13 -31 -25 -19 -39 14 -17 32 20 36 20
36 -3 0 -30 -11 -51 -26 -51 -20 0 -18 -29 2 -37 30 -11 46 25 41 89 -4 43 -2
58 9 62 26 10 15 29 -13 23 -23 -4 -25 -3 -12 6 8 7 15 22 16 35 1 17 -4 22
-24 22 -20 0 -24 -4 -20 -19z m2 -61 c3 -5 1 -10 -4 -10 -6 0 -11 5 -11 10 0
6 2 10 4 10 3 0 8 -4 11 -10z"/>
<path d="M683 863 c-46 -4 -60 -23 -18 -23 14 0 25 -4 25 -10 0 -5 -24 -10
-54 -10 -40 0 -55 -4 -60 -16 -10 -27 -7 -44 9 -44 8 0 15 6 15 14 0 14 29 26
68 26 19 0 22 -5 22 -35 0 -33 12 -46 25 -26 3 5 6 30 7 55 2 40 5 45 30 50
15 3 28 10 28 16 0 10 -13 10 -97 3z"/>
<path d="M740 820 c0 -5 16 -10 35 -10 28 0 33 -3 28 -16 -5 -14 -2 -16 23
-10 37 10 39 12 24 31 -14 17 -110 22 -110 5z"/>
<path d="M735 790 c-9 -14 13 -50 30 -50 18 0 20 16 3 24 -10 5 -10 7 0 12 6
3 12 10 12 15 0 12 -37 12 -45 -1z"/>
<path d="M640 780 c0 -5 7 -10 15 -10 8 0 15 5 15 10 0 6 -7 10 -15 10 -8 0
-15 -4 -15 -10z"/>
<path d="M623 741 c3 -13 -3 -22 -20 -30 -17 -8 -23 -17 -19 -27 3 -9 6 -22 6
-31 0 -10 6 -13 18 -9 10 4 7 -2 -8 -13 -32 -26 -19 -39 17 -17 27 17 27 17
-2 -8 -16 -14 -33 -26 -37 -26 -5 0 -8 -5 -8 -11 0 -14 39 -2 64 20 18 15 19
15 13 -2 -4 -10 -7 -21 -7 -23 0 -2 -7 -4 -15 -4 -20 0 -19 -29 1 -37 30 -11
46 25 41 89 -4 43 -2 58 9 62 26 10 15 29 -13 23 -23 -4 -25 -3 -12 6 8 7 15
22 16 35 1 17 -4 22 -24 22 -20 0 -24 -4 -20 -19z m2 -61 c3 -5 1 -10 -4 -10
-6 0 -11 5 -11 10 0 6 2 10 4 10 3 0 8 -4 11 -10z"/>
<path d="M683 413 c-46 -4 -60 -23 -18 -23 14 0 25 -4 25 -10 0 -5 -24 -10
-54 -10 -40 0 -55 -4 -60 -16 -10 -27 -7 -44 9 -44 8 0 15 6 15 14 0 14 29 26
68 26 19 0 22 -5 22 -35 0 -33 12 -46 25 -26 3 5 6 30 7 55 2 40 5 45 30 50
15 3 28 10 28 16 0 10 -13 10 -97 3z"/>
<path d="M740 370 c0 -5 16 -10 35 -10 28 0 33 -3 28 -16 -5 -14 -2 -16 23
-10 37 10 39 12 24 31 -14 17 -110 22 -110 5z"/>
<path d="M735 340 c-9 -14 13 -50 30 -50 18 0 20 16 3 24 -10 5 -10 7 0 12 6
3 12 10 12 15 0 12 -37 12 -45 -1z"/>
<path d="M640 330 c0 -5 7 -10 15 -10 8 0 15 5 15 10 0 6 -7 10 -15 10 -8 0
-15 -4 -15 -10z"/>
<path d="M623 291 c3 -13 -3 -22 -20 -30 -17 -8 -23 -17 -19 -27 3 -9 6 -22 6
-31 0 -10 6 -13 18 -9 10 4 7 -2 -8 -13 -32 -26 -19 -39 17 -17 27 17 27 17
-2 -8 -16 -14 -33 -26 -37 -26 -5 0 -8 -5 -8 -11 0 -14 39 -2 64 20 18 15 19
15 13 -2 -4 -10 -7 -21 -7 -23 0 -2 -7 -4 -15 -4 -20 0 -19 -29 1 -37 30 -11
46 25 41 89 -4 43 -2 58 9 62 10 4 16 -4 21 -24 8 -45 27 -37 19 8 -3 20 -6
43 -6 50 0 6 -7 12 -15 12 -8 0 -15 -4 -15 -9 0 -5 -10 -11 -22 -14 -19 -5
-21 -4 -8 6 9 7 16 22 17 35 1 17 -4 22 -24 22 -20 0 -24 -4 -20 -19z m2 -61
c3 -5 1 -10 -4 -10 -6 0 -11 5 -11 10 0 6 2 10 4 10 3 0 8 -4 11 -10z"/>
</g>
</svg>
