<?xml version="1.0" standalone="no"?>
<!DOCTYPE svg PUBLIC "-//W3C//DTD SVG 20010904//EN"
 "http://www.w3.org/TR/2001/REC-SVG-20010904/DTD/svg10.dtd">
<svg version="1.0" xmlns="http://www.w3.org/2000/svg"
 width="50.000000pt" height="725.000000pt" viewBox="0 0 50.000000 725.000000"
 preserveAspectRatio="xMidYMid meet">
<metadata>
Created by potrace 1.16, written by Peter Selinger 2001-2019
</metadata>
<g transform="translate(0.000000,725.000000) scale(0.100000,-0.100000)"
fill="#000000" stroke="none">
<path d="M143 7113 c-40 -5 -44 -23 -5 -23 45 0 102 12 102 21 0 9 -35 9 -97
2z"/>
<path d="M143 6663 c-40 -5 -44 -23 -5 -23 45 0 102 12 102 21 0 9 -35 9 -97
2z"/>
<path d="M148 6623 c-21 -2 -38 -8 -38 -14 0 -10 63 -12 98 -3 12 4 22 10 22
15 0 9 -11 9 -82 2z"/>
<path d="M162 6238 c2 -19 -2 -24 -24 -26 -35 -4 -37 -22 -3 -22 14 0 25 -4
25 -10 0 -5 -11 -10 -25 -10 -14 0 -25 -4 -25 -10 0 -5 11 -10 25 -10 16 0 25
-6 25 -15 0 -8 7 -15 15 -15 8 0 15 7 15 16 0 9 9 18 20 21 26 7 26 23 0 23
-11 0 -20 5 -20 10 0 6 11 10 25 10 14 0 25 5 25 10 0 6 -11 10 -25 10 -18 0
-25 5 -25 20 0 11 -7 20 -16 20 -10 0 -14 -7 -12 -22z"/>
<path d="M162 5788 c2 -19 -2 -24 -24 -26 -35 -4 -37 -22 -3 -22 14 0 25 -4
25 -10 0 -5 -11 -10 -25 -10 -14 0 -25 -4 -25 -10 0 -5 11 -10 25 -10 14 0 25
-4 25 -9 0 -10 -34 -21 -67 -21 -13 0 -23 -5 -23 -11 0 -8 15 -10 46 -5 26 3
65 6 86 6 44 0 49 20 7 31 l-24 7 23 7 c27 9 29 25 2 25 -11 0 -20 5 -20 10 0
6 11 10 25 10 14 0 25 5 25 10 0 6 -11 10 -25 10 -18 0 -25 5 -25 20 0 11 -7
20 -16 20 -10 0 -14 -7 -12 -22z"/>
<path d="M162 5338 c2 -19 -2 -24 -24 -26 -35 -4 -37 -22 -3 -22 14 0 25 -4
25 -10 0 -5 -11 -10 -25 -10 -14 0 -25 -4 -25 -10 0 -5 11 -10 25 -10 14 0 25
-4 25 -9 0 -10 -34 -21 -67 -21 -13 0 -23 -5 -23 -11 0 -8 15 -10 46 -5 26 3
65 6 86 6 44 0 49 20 7 31 l-24 7 23 7 c27 9 29 25 2 25 -11 0 -20 5 -20 10 0
6 11 10 25 10 14 0 25 5 25 10 0 6 -11 10 -25 10 -18 0 -25 5 -25 20 0 11 -7
20 -16 20 -10 0 -14 -7 -12 -22z"/>
<path d="M130 5150 c0 -21 -5 -51 -12 -65 -14 -31 -1 -47 18 -21 16 22 19 126
4 126 -5 0 -10 -18 -10 -40z"/>
<path d="M162 4888 c2 -19 -2 -24 -24 -26 -35 -4 -37 -22 -3 -22 14 0 25 -4
25 -10 0 -5 -11 -10 -25 -10 -14 0 -25 -4 -25 -10 0 -5 11 -10 25 -10 14 0 25
-4 25 -9 0 -10 -34 -21 -67 -21 -13 0 -23 -5 -23 -11 0 -8 15 -10 46 -5 26 3
65 6 86 6 44 0 49 20 7 31 l-24 7 23 7 c27 9 29 25 2 25 -11 0 -20 5 -20 10 0
6 11 10 25 10 14 0 25 5 25 10 0 6 -11 10 -25 10 -18 0 -25 5 -25 20 0 11 -7
20 -16 20 -10 0 -14 -7 -12 -22z"/>
<path d="M170 4741 c0 -6 7 -11 15 -11 12 0 15 -13 15 -55 0 -42 -3 -55 -15
-55 -17 0 -19 -9 -6 -29 5 -8 16 -11 25 -8 12 5 16 22 18 67 1 33 2 68 2 78 1
11 -8 18 -26 20 -16 2 -28 -1 -28 -7z"/>
<path d="M127 4693 c-2 -27 -8 -58 -12 -70 -9 -28 10 -32 23 -5 16 30 21 122
6 122 -7 0 -14 -19 -17 -47z"/>
<path d="M162 4438 c2 -19 -2 -24 -24 -26 -35 -4 -37 -22 -3 -22 14 0 25 -4
25 -10 0 -5 -11 -10 -25 -10 -14 0 -25 -4 -25 -10 0 -5 11 -10 25 -10 14 0 25
-4 25 -9 0 -10 -34 -21 -67 -21 -13 0 -23 -5 -23 -11 0 -8 15 -10 46 -5 26 3
65 6 86 6 44 0 49 20 7 31 l-24 7 23 7 c27 9 29 25 2 25 -11 0 -20 5 -20 10 0
6 11 10 25 10 14 0 25 5 25 10 0 6 -11 10 -25 10 -18 0 -25 5 -25 20 0 11 -7
20 -16 20 -10 0 -14 -7 -12 -22z"/>
<path d="M170 4291 c0 -6 7 -11 15 -11 8 0 15 -4 15 -10 0 -5 -7 -10 -15 -10
-8 0 -15 -4 -15 -10 0 -5 7 -10 15 -10 10 0 15 -11 15 -35 0 -24 -5 -35 -15
-35 -17 0 -19 -9 -6 -29 5 -8 16 -11 25 -8 12 5 16 22 18 67 1 33 2 68 2 78 1
11 -8 18 -26 20 -16 2 -28 -1 -28 -7z"/>
<path d="M127 4243 c-2 -27 -8 -58 -12 -70 -9 -28 10 -31 24 -4 17 32 22 121
6 121 -8 0 -15 -17 -18 -47z"/>
<path d="M162 3988 c2 -19 -2 -24 -24 -26 -35 -4 -37 -22 -3 -22 14 0 25 -4
25 -10 0 -5 -11 -10 -25 -10 -14 0 -25 -4 -25 -10 0 -5 11 -10 25 -10 14 0 25
-4 25 -9 0 -10 -34 -21 -67 -21 -13 0 -23 -5 -23 -11 0 -8 15 -10 46 -5 26 3
65 6 86 6 44 0 49 20 7 31 l-24 7 23 7 c27 9 29 25 2 25 -11 0 -20 5 -20 10 0
6 11 10 25 10 14 0 25 5 25 10 0 6 -11 10 -25 10 -18 0 -25 5 -25 20 0 11 -7
20 -16 20 -10 0 -14 -7 -12 -22z"/>
<path d="M170 3841 c0 -6 7 -11 15 -11 8 0 15 -4 15 -10 0 -5 -7 -10 -15 -10
-8 0 -15 -4 -15 -10 0 -5 7 -10 15 -10 8 0 15 -4 15 -10 0 -5 -11 -10 -24 -10
-20 0 -23 4 -20 35 4 57 -23 45 -29 -12 -2 -27 -8 -58 -12 -70 -10 -32 12 -30
27 2 13 28 58 36 58 10 0 -8 -7 -15 -15 -15 -17 0 -19 -9 -6 -29 5 -8 16 -11
25 -8 12 5 16 22 18 67 1 33 2 68 2 78 1 11 -8 18 -26 20 -16 2 -28 -1 -28 -7z"/>
<path d="M162 3538 c2 -19 -2 -24 -24 -26 -35 -4 -37 -22 -3 -22 14 0 25 -4
25 -10 0 -5 -11 -10 -25 -10 -14 0 -25 -4 -25 -10 0 -5 11 -10 25 -10 14 0 25
-4 25 -9 0 -10 -34 -21 -67 -21 -13 0 -23 -5 -23 -11 0 -8 15 -10 46 -5 26 3
65 6 86 6 44 0 49 20 7 31 l-24 7 23 7 c27 9 29 25 2 25 -11 0 -20 5 -20 10 0
6 11 10 25 10 14 0 25 5 25 10 0 6 -11 10 -25 10 -18 0 -25 5 -25 20 0 11 -7
20 -16 20 -10 0 -14 -7 -12 -22z"/>
<path d="M290 3517 c0 -22 26 -51 38 -43 16 10 15 22 -4 40 -19 19 -34 21 -34
3z"/>
<path d="M170 3391 c0 -6 7 -11 15 -11 8 0 15 -4 15 -10 0 -5 -7 -10 -15 -10
-8 0 -15 -4 -15 -10 0 -5 7 -10 15 -10 8 0 15 -4 15 -10 0 -5 -11 -10 -24 -10
-20 0 -23 4 -20 35 4 57 -23 45 -29 -12 -2 -27 -8 -58 -12 -70 -10 -32 12 -30
27 2 13 28 58 36 58 10 0 -8 -7 -15 -15 -15 -17 0 -19 -9 -6 -29 5 -8 16 -11
25 -8 12 5 16 22 18 67 1 33 2 68 2 78 1 11 -8 18 -26 20 -16 2 -28 -1 -28 -7z"/>
<path d="M162 3088 c2 -19 -2 -24 -24 -26 -35 -4 -37 -22 -3 -22 14 0 25 -4
25 -10 0 -5 -11 -10 -25 -10 -14 0 -25 -4 -25 -10 0 -5 11 -10 25 -10 14 0 25
-4 25 -9 0 -10 -34 -21 -67 -21 -13 0 -23 -4 -23 -10 0 -13 183 0 192 14 11
16 10 56 -1 56 -5 0 -13 -10 -18 -23 -6 -19 -13 -22 -33 -16 l-25 7 23 7 c27
9 29 25 2 25 -11 0 -20 5 -20 10 0 6 11 10 25 10 14 0 25 5 25 10 0 6 -11 10
-25 10 -18 0 -25 5 -25 20 0 11 -7 20 -16 20 -10 0 -14 -7 -12 -22z"/>
<path d="M290 3067 c0 -22 26 -51 38 -43 16 10 15 22 -4 40 -19 19 -34 21 -34
3z"/>
<path d="M170 2941 c0 -6 7 -11 15 -11 8 0 15 -4 15 -10 0 -5 -7 -10 -15 -10
-8 0 -15 -4 -15 -10 0 -5 7 -10 15 -10 8 0 15 -4 15 -10 0 -5 -11 -10 -24 -10
-20 0 -23 4 -20 35 4 57 -23 45 -29 -12 -2 -27 -8 -58 -12 -70 -10 -32 12 -30
27 2 13 28 58 36 58 10 0 -8 -7 -15 -15 -15 -17 0 -19 -9 -6 -29 5 -8 16 -11
25 -8 12 5 16 22 18 67 1 33 2 68 2 78 1 11 -8 18 -26 20 -16 2 -28 -1 -28 -7z"/>
<path d="M162 2638 c2 -19 -2 -24 -24 -26 -35 -4 -37 -22 -3 -22 14 0 25 -4
25 -10 0 -5 -11 -10 -25 -10 -14 0 -25 -4 -25 -10 0 -5 11 -10 25 -10 14 0 25
-4 25 -9 0 -10 -34 -21 -67 -21 -13 0 -23 -4 -23 -10 0 -13 183 0 192 14 4 6
9 14 10 18 2 4 24 11 51 14 40 6 47 4 47 -10 0 -13 5 -16 23 -10 29 9 31 10
24 29 -4 9 -19 15 -41 15 -25 0 -36 5 -41 19 -6 19 -33 36 -43 26 -3 -3 0 -17
7 -31 11 -26 11 -27 -18 -21 -25 5 -31 2 -38 -17 -6 -18 -13 -21 -33 -15 l-25
7 23 7 c27 9 29 25 2 25 -11 0 -20 5 -20 10 0 6 11 10 25 10 14 0 25 5 25 10
0 6 -11 10 -25 10 -18 0 -25 5 -25 20 0 11 -7 20 -16 20 -10 0 -14 -7 -12 -22z"/>
<path d="M170 2491 c0 -6 7 -11 15 -11 8 0 15 -4 15 -10 0 -5 -7 -10 -15 -10
-8 0 -15 -4 -15 -10 0 -5 7 -10 15 -10 8 0 15 -4 15 -10 0 -5 -11 -10 -24 -10
-20 0 -23 4 -20 35 4 57 -23 45 -29 -12 -2 -27 -8 -58 -12 -70 -10 -32 12 -30
27 2 13 28 58 36 58 10 0 -8 -7 -15 -15 -15 -17 0 -19 -9 -6 -29 5 -8 16 -11
25 -8 12 5 16 22 18 67 1 33 2 68 2 78 1 11 -8 18 -26 20 -16 2 -28 -1 -28 -7z"/>
<path d="M162 2188 c2 -19 -2 -24 -24 -26 -35 -4 -37 -22 -3 -22 14 0 25 -4
25 -10 0 -5 -11 -10 -25 -10 -14 0 -25 -4 -25 -10 0 -5 11 -10 25 -10 14 0 25
-4 25 -9 0 -10 -34 -21 -67 -21 -13 0 -23 -3 -23 -7 0 -5 60 -7 133 -7 158 1
157 1 157 14 0 7 -18 8 -50 4 -43 -6 -49 -4 -45 9 11 27 105 37 105 11 0 -11
6 -14 23 -8 29 9 31 10 24 29 -4 9 -19 15 -41 15 -25 0 -36 5 -41 19 -6 19
-33 36 -43 26 -3 -3 0 -17 7 -31 11 -26 11 -27 -18 -21 -25 5 -31 2 -38 -17
-6 -18 -13 -21 -33 -15 l-25 7 23 7 c27 9 29 25 2 25 -11 0 -20 5 -20 10 0 6
11 10 25 10 14 0 25 5 25 10 0 6 -11 10 -25 10 -18 0 -25 5 -25 20 0 11 -7 20
-16 20 -10 0 -14 -7 -12 -22z"/>
<path d="M170 2041 c0 -6 7 -11 15 -11 8 0 15 -4 15 -10 0 -5 -7 -10 -15 -10
-8 0 -15 -4 -15 -10 0 -5 7 -10 15 -10 8 0 15 -4 15 -10 0 -5 -11 -10 -24 -10
-20 0 -23 4 -20 35 4 57 -23 45 -29 -12 -2 -27 -8 -58 -12 -70 -10 -32 12 -30
27 2 13 28 58 36 58 10 0 -8 -7 -15 -15 -15 -17 0 -19 -9 -6 -29 5 -8 16 -11
25 -8 12 5 16 22 18 67 1 33 2 68 2 78 1 11 -8 18 -26 20 -16 2 -28 -1 -28 -7z"/>
<path d="M162 1738 c2 -19 -2 -24 -24 -26 -35 -4 -37 -22 -3 -22 14 0 25 -4
25 -10 0 -5 -11 -10 -25 -10 -14 0 -25 -4 -25 -10 0 -5 11 -10 25 -10 14 0 25
-4 25 -9 0 -10 -34 -21 -67 -21 -13 0 -23 -5 -23 -11 0 -7 23 -8 69 -3 39 3
90 3 115 0 l46 -7 0 -50 c0 -66 24 -62 28 5 2 30 8 49 18 53 33 12 11 23 -36
17 -43 -6 -49 -4 -45 9 11 27 105 37 105 11 0 -11 6 -14 23 -8 29 9 31 10 24
29 -4 9 -19 15 -41 15 -25 0 -36 5 -41 19 -6 19 -33 36 -43 26 -3 -3 0 -17 7
-31 11 -26 11 -27 -18 -21 -25 5 -31 2 -38 -17 -6 -18 -13 -21 -33 -15 l-25 7
23 7 c27 9 29 25 2 25 -11 0 -20 5 -20 10 0 6 11 10 25 10 14 0 25 5 25 10 0
6 -11 10 -25 10 -18 0 -25 5 -25 20 0 11 -7 20 -16 20 -10 0 -14 -7 -12 -22z"/>
<path d="M170 1591 c0 -6 7 -11 15 -11 8 0 15 -4 15 -10 0 -5 -7 -10 -15 -10
-8 0 -15 -4 -15 -10 0 -5 7 -10 15 -10 8 0 15 -4 15 -10 0 -5 -11 -10 -24 -10
-20 0 -23 4 -20 35 4 57 -23 45 -29 -12 -2 -27 -8 -58 -12 -70 -10 -32 12 -30
27 2 13 28 58 36 58 10 0 -8 -7 -15 -15 -15 -17 0 -19 -9 -6 -29 5 -8 16 -11
25 -8 12 5 16 22 18 67 1 33 2 68 2 78 1 11 -8 18 -26 20 -16 2 -28 -1 -28 -7z"/>
<path d="M162 1288 c2 -19 -2 -24 -24 -26 -35 -4 -37 -22 -3 -22 14 0 25 -4
25 -10 0 -5 -11 -10 -25 -10 -14 0 -25 -4 -25 -10 0 -5 11 -10 25 -10 14 0 25
-4 25 -9 0 -10 -34 -21 -67 -21 -13 0 -23 -5 -23 -11 0 -7 23 -8 69 -3 39 3
90 3 115 0 l46 -7 0 -50 c0 -36 4 -49 13 -47 6 3 13 14 15 26 2 14 11 22 23
22 10 0 19 5 19 10 0 6 -9 10 -20 10 -23 0 -27 28 -5 36 34 13 12 24 -35 18
-43 -6 -49 -4 -45 9 11 27 105 37 105 11 0 -11 6 -14 23 -8 29 9 31 10 24 29
-4 9 -19 15 -41 15 -25 0 -36 5 -41 19 -6 19 -33 36 -43 26 -3 -3 0 -17 7 -31
11 -26 11 -27 -18 -21 -25 5 -31 2 -38 -17 -6 -18 -13 -21 -33 -15 l-25 7 23
7 c27 9 29 25 2 25 -11 0 -20 5 -20 10 0 6 11 10 25 10 14 0 25 5 25 10 0 6
-11 10 -25 10 -18 0 -25 5 -25 20 0 11 -7 20 -16 20 -10 0 -14 -7 -12 -22z"/>
<path d="M170 1141 c0 -6 7 -11 15 -11 8 0 15 -4 15 -10 0 -5 -7 -10 -15 -10
-8 0 -15 -4 -15 -10 0 -5 7 -10 15 -10 8 0 15 -4 15 -10 0 -5 -11 -10 -24 -10
-20 0 -23 4 -20 35 4 57 -23 45 -29 -12 -2 -27 -8 -58 -12 -70 -10 -32 12 -30
27 2 13 28 58 36 58 10 0 -8 -7 -15 -15 -15 -17 0 -19 -9 -6 -29 5 -8 16 -11
25 -8 12 5 16 22 18 67 1 33 2 68 2 78 1 11 -8 18 -26 20 -16 2 -28 -1 -28 -7z"/>
<path d="M162 838 c2 -19 -2 -24 -24 -26 -35 -4 -37 -22 -3 -22 14 0 25 -4 25
-10 0 -5 -11 -10 -25 -10 -14 0 -25 -4 -25 -10 0 -5 11 -10 25 -10 14 0 25 -4
25 -9 0 -10 -34 -21 -67 -21 -13 0 -23 -5 -23 -11 0 -7 23 -8 69 -3 39 3 90 3
115 0 l46 -7 0 -50 c0 -36 4 -49 13 -47 6 3 13 14 15 26 2 14 11 22 23 22 10
0 19 5 19 10 0 6 -9 10 -20 10 -23 0 -27 28 -5 36 34 13 12 24 -35 18 -43 -6
-49 -4 -45 9 11 27 105 37 105 11 0 -11 6 -14 23 -8 29 9 31 10 24 29 -4 9
-19 15 -41 15 -25 0 -36 5 -41 19 -6 19 -33 36 -43 26 -3 -3 0 -17 7 -31 11
-26 11 -27 -18 -21 -25 5 -31 2 -38 -17 -6 -18 -13 -21 -33 -15 l-25 7 23 7
c27 9 29 25 2 25 -11 0 -20 5 -20 10 0 6 11 10 25 10 14 0 25 5 25 10 0 6 -11
10 -25 10 -18 0 -25 5 -25 20 0 11 -7 20 -16 20 -10 0 -14 -7 -12 -22z"/>
<path d="M170 691 c0 -6 7 -11 15 -11 8 0 15 -4 15 -10 0 -5 -7 -10 -15 -10
-8 0 -15 -4 -15 -10 0 -5 7 -10 15 -10 8 0 15 -4 15 -10 0 -5 -11 -10 -24 -10
-20 0 -23 4 -20 35 4 57 -23 45 -29 -12 -2 -27 -8 -58 -12 -70 -10 -32 12 -30
27 2 13 28 58 36 58 10 0 -8 -7 -15 -15 -15 -17 0 -19 -9 -6 -29 12 -19 41 -6
41 18 0 10 7 21 14 24 20 8 49 65 42 83 -9 25 -24 15 -30 -21 -11 -56 -28 -55
-24 1 3 47 2 49 -24 52 -16 2 -28 -1 -28 -7z"/>
<path d="M162 388 c2 -19 -2 -24 -24 -26 -35 -4 -37 -22 -3 -22 14 0 25 -4 25
-10 0 -5 -11 -10 -25 -10 -14 0 -25 -4 -25 -10 0 -5 11 -10 25 -10 14 0 25 -4
25 -9 0 -10 -34 -21 -67 -21 -13 0 -23 -5 -23 -11 0 -7 23 -8 69 -3 39 3 90 3
115 0 44 -7 46 -8 46 -42 0 -37 -17 -47 -22 -12 -5 35 -25 32 -32 -6 -11 -56
-28 -56 -24 0 3 47 2 49 -24 52 -16 2 -28 -1 -28 -7 0 -6 7 -11 15 -11 8 0 15
-4 15 -10 0 -5 -7 -10 -15 -10 -8 0 -15 -4 -15 -10 0 -5 7 -10 15 -10 8 0 15
-4 15 -10 0 -5 -11 -10 -24 -10 -20 0 -23 4 -20 35 4 57 -23 45 -29 -12 -2
-27 -8 -58 -12 -70 -10 -32 12 -30 27 2 13 28 58 36 58 10 0 -8 -7 -15 -15
-15 -17 0 -19 -9 -6 -29 11 -17 41 -7 41 13 0 8 11 26 25 40 l25 25 41 -35
c45 -37 109 -48 109 -19 0 8 -9 15 -20 15 -37 0 -70 22 -70 47 0 16 6 23 20
23 11 0 20 5 20 10 0 6 -9 10 -20 10 -23 0 -27 28 -5 36 34 13 12 24 -35 18
-43 -6 -49 -4 -45 9 11 27 105 37 105 11 0 -11 6 -14 23 -8 29 9 31 10 24 29
-4 9 -19 15 -41 15 -25 0 -36 5 -41 19 -6 19 -33 36 -43 26 -3 -3 0 -17 7 -31
11 -26 11 -27 -18 -21 -25 5 -31 2 -38 -17 -6 -18 -13 -21 -33 -15 l-25 7 23
7 c27 9 29 25 2 25 -11 0 -20 5 -20 10 0 6 11 10 25 10 14 0 25 5 25 10 0 6
-11 10 -25 10 -18 0 -25 5 -25 20 0 11 -7 20 -16 20 -10 0 -14 -7 -12 -22z"/>
</g>
</svg>
