<?xml version="1.0" standalone="no"?>
<!DOCTYPE svg PUBLIC "-//W3C//DTD SVG 20010904//EN"
 "http://www.w3.org/TR/2001/REC-SVG-20010904/DTD/svg10.dtd">
<svg version="1.0" xmlns="http://www.w3.org/2000/svg"
 width="50.000000pt" height="725.000000pt" viewBox="0 0 50.000000 725.000000"
 preserveAspectRatio="xMidYMid meet">
<metadata>
Created by potrace 1.16, written by Peter Selinger 2001-2019
</metadata>
<g transform="translate(0.000000,725.000000) scale(0.100000,-0.100000)"
fill="#000000" stroke="none">
<path d="M153 7108 c-73 -13 -69 -31 5 -23 80 9 102 14 102 25 0 12 -36 11
-107 -2z"/>
<path d="M126 6675 c5 -19 2 -25 -10 -25 -9 0 -16 -4 -16 -10 0 -5 9 -10 20
-10 13 0 20 -7 20 -20 0 -11 5 -20 10 -20 6 0 10 11 10 25 0 22 4 25 34 25 41
0 66 8 66 22 0 7 -18 8 -49 4 -43 -6 -49 -4 -54 14 -3 11 -12 20 -21 20 -12 0
-15 -6 -10 -25z"/>
<path d="M198 6243 c-4 -34 -33 -43 -41 -13 -3 11 -12 20 -21 20 -12 0 -15 -6
-10 -25 5 -19 2 -25 -10 -25 -9 0 -16 -4 -16 -10 0 -5 9 -10 20 -10 13 0 20
-7 20 -20 0 -11 5 -20 10 -20 6 0 10 11 10 25 0 16 6 25 15 25 8 0 15 -9 15
-20 0 -26 17 -26 25 -1 3 11 15 23 26 26 22 7 26 25 5 25 -8 0 -16 10 -18 22
-5 32 -26 33 -30 1z"/>
<path d="M198 5793 c-4 -34 -33 -43 -41 -13 -3 11 -12 20 -21 20 -12 0 -15 -6
-10 -25 5 -19 2 -25 -10 -25 -9 0 -16 -4 -16 -10 0 -5 9 -10 20 -10 13 0 20
-7 20 -20 0 -11 7 -20 15 -20 11 0 14 7 9 25 -5 19 -2 25 10 25 9 0 16 -8 16
-20 0 -11 7 -20 15 -20 8 0 15 9 15 19 0 11 9 23 20 26 23 7 27 25 6 25 -8 0
-16 10 -18 22 -5 32 -26 33 -30 1z"/>
<path d="M198 5343 c-4 -34 -33 -43 -41 -13 -3 11 -12 20 -21 20 -12 0 -15 -6
-10 -25 5 -19 2 -25 -10 -25 -9 0 -16 -4 -16 -10 0 -5 9 -10 20 -10 13 0 20
-7 20 -20 0 -11 7 -20 15 -20 11 0 14 7 9 25 -5 19 -2 25 10 25 9 0 16 -8 16
-20 0 -11 7 -20 15 -20 8 0 15 9 15 19 0 11 9 23 20 26 23 7 27 25 6 25 -8 0
-16 10 -18 22 -5 32 -26 33 -30 1z"/>
<path d="M113 5206 c4 -10 7 -26 7 -37 0 -10 5 -19 11 -19 15 0 6 63 -10 68
-10 3 -12 0 -8 -12z"/>
<path d="M198 4893 c-4 -34 -33 -43 -41 -13 -3 11 -12 20 -21 20 -12 0 -15 -6
-10 -25 5 -19 2 -25 -10 -25 -9 0 -16 -4 -16 -10 0 -5 9 -10 20 -10 13 0 20
-7 20 -20 0 -11 7 -20 15 -20 11 0 14 7 9 25 -5 19 -2 25 10 25 9 0 16 -8 16
-20 0 -11 7 -20 15 -20 8 0 15 9 15 19 0 11 9 23 20 26 23 7 27 25 6 25 -8 0
-16 10 -18 22 -5 32 -26 33 -30 1z"/>
<path d="M170 4770 c0 -5 11 -10 24 -10 19 0 23 -4 19 -20 -7 -26 13 -26 27
-1 17 33 11 41 -30 41 -22 0 -40 -4 -40 -10z"/>
<path d="M117 4738 c3 -18 7 -35 9 -37 6 -7 11 2 17 37 6 27 4 32 -13 32 -17
0 -19 -5 -13 -32z"/>
<path d="M198 4443 c-4 -34 -33 -43 -41 -13 -3 11 -12 20 -21 20 -12 0 -15 -6
-10 -25 5 -19 2 -25 -10 -25 -9 0 -16 -4 -16 -10 0 -5 9 -10 20 -10 13 0 20
-7 20 -20 0 -11 7 -20 15 -20 11 0 14 7 9 25 -5 19 -2 25 10 25 9 0 16 -8 16
-20 0 -11 7 -20 15 -20 8 0 15 9 15 19 0 11 9 23 20 26 23 7 27 25 6 25 -8 0
-16 10 -18 22 -5 32 -26 33 -30 1z"/>
<path d="M170 4320 c0 -5 12 -10 27 -10 36 0 18 -17 -26 -26 -31 -6 -33 -5
-26 15 5 17 2 21 -14 21 -18 0 -20 -4 -14 -32 3 -18 6 -34 7 -35 5 -7 109 26
116 37 19 30 11 40 -30 40 -22 0 -40 -4 -40 -10z"/>
<path d="M198 3993 c-4 -34 -33 -43 -41 -13 -3 11 -12 20 -21 20 -12 0 -15 -6
-10 -25 5 -19 2 -25 -10 -25 -9 0 -16 -4 -16 -10 0 -5 9 -10 20 -10 13 0 20
-7 20 -20 0 -11 7 -20 15 -20 11 0 14 7 9 25 -5 19 -2 25 10 25 9 0 16 -8 16
-20 0 -11 7 -20 15 -20 8 0 15 9 15 19 0 11 9 23 20 26 23 7 27 25 6 25 -8 0
-16 10 -18 22 -5 32 -26 33 -30 1z"/>
<path d="M170 3870 c0 -5 12 -10 27 -10 36 0 18 -17 -26 -26 -31 -6 -33 -5
-26 15 5 17 2 21 -14 21 -18 0 -20 -4 -14 -32 3 -18 6 -34 7 -35 5 -7 109 26
116 37 19 30 11 40 -30 40 -22 0 -40 -4 -40 -10z"/>
<path d="M143 3787 c-105 -14 -93 -31 15 -22 48 4 89 9 91 10 6 7 -10 25 -22
24 -7 -1 -45 -6 -84 -12z"/>
<path d="M198 3543 c-4 -34 -33 -43 -41 -13 -3 11 -12 20 -21 20 -12 0 -15 -6
-10 -25 5 -19 2 -25 -10 -25 -9 0 -16 -4 -16 -10 0 -5 9 -10 20 -10 13 0 20
-7 20 -19 0 -11 4 -21 9 -23 15 -5 17 -51 2 -56 -9 -3 -11 1 -6 17 5 17 2 21
-15 21 -16 0 -20 -4 -16 -16 3 -9 6 -24 6 -35 0 -16 5 -18 25 -13 14 3 25 2
25 -4 0 -11 -34 -22 -72 -22 -16 0 -28 -4 -28 -10 0 -5 20 -10 45 -10 l45 0 0
-40 c0 -40 13 -53 24 -24 3 9 6 29 6 45 0 26 3 29 31 29 20 0 29 4 26 13 -2 6
-16 11 -31 10 -17 -1 -26 3 -26 13 0 8 9 14 20 14 18 0 40 26 40 49 0 6 -11
11 -25 11 -25 0 -65 31 -65 50 0 6 7 10 15 10 8 0 15 -9 15 -20 0 -11 7 -20
15 -20 8 0 15 9 15 19 0 11 9 23 20 26 23 7 27 25 6 25 -8 0 -16 10 -18 22 -5
32 -26 33 -30 1z m17 -143 c-3 -5 -10 -10 -16 -10 -5 0 -9 5 -9 10 0 6 7 10
16 10 8 0 12 -4 9 -10z"/>
<path d="M198 3093 c-4 -34 -33 -43 -41 -13 -3 11 -12 20 -21 20 -12 0 -15 -6
-10 -25 5 -19 2 -25 -10 -25 -9 0 -16 -4 -16 -10 0 -5 9 -10 20 -10 13 0 20
-7 20 -19 0 -11 4 -21 9 -23 15 -5 17 -51 2 -56 -9 -3 -11 1 -6 17 5 17 2 21
-15 21 -16 0 -20 -4 -16 -16 3 -9 6 -24 6 -35 0 -16 5 -18 25 -13 14 3 25 2
25 -4 0 -11 -34 -22 -72 -22 -16 0 -28 -4 -28 -10 0 -5 20 -10 45 -10 l45 0 0
-40 c0 -40 13 -53 24 -24 3 9 6 29 6 45 0 26 3 29 31 29 20 0 29 4 26 13 -2 6
-16 11 -31 10 -17 -1 -26 3 -26 13 0 8 9 14 20 14 18 0 40 26 40 49 0 6 -11
11 -25 11 -25 0 -65 31 -65 50 0 6 7 10 15 10 8 0 15 -9 15 -20 0 -11 7 -20
15 -20 8 0 15 9 15 19 0 11 9 23 20 26 23 7 27 25 6 25 -8 0 -16 10 -18 22 -5
32 -26 33 -30 1z m17 -143 c-3 -5 -10 -10 -16 -10 -5 0 -9 5 -9 10 0 6 7 10
16 10 8 0 12 -4 9 -10z"/>
<path d="M298 3013 c-33 -5 -37 -23 -5 -23 41 0 97 13 97 21 0 9 -41 10 -92 2z"/>
<path d="M198 2643 c-4 -34 -33 -43 -41 -13 -3 11 -12 20 -21 20 -12 0 -15 -6
-10 -25 5 -19 2 -25 -10 -25 -9 0 -16 -4 -16 -10 0 -5 9 -10 20 -10 13 0 20
-7 20 -19 0 -11 4 -21 9 -23 15 -5 17 -51 2 -56 -9 -3 -11 1 -6 17 5 17 2 21
-15 21 -16 0 -20 -4 -16 -16 3 -9 6 -24 6 -35 0 -16 5 -18 25 -13 14 3 25 2
25 -4 0 -11 -34 -22 -72 -22 -16 0 -28 -4 -28 -10 0 -5 20 -10 45 -10 l45 0 0
-40 c0 -40 13 -53 24 -24 3 9 6 29 6 45 0 26 3 29 31 29 20 0 29 4 26 13 -2 6
-16 11 -31 10 -17 -1 -26 3 -26 13 0 8 9 14 20 14 18 0 40 26 40 49 0 6 -11
11 -25 11 -25 0 -65 31 -65 50 0 6 7 10 15 10 8 0 15 -9 15 -20 0 -11 7 -20
15 -20 8 0 15 9 15 19 0 11 9 23 20 26 23 7 27 25 6 25 -8 0 -16 10 -18 22 -5
32 -26 33 -30 1z m17 -143 c-3 -5 -10 -10 -16 -10 -5 0 -9 5 -9 10 0 6 7 10
16 10 8 0 12 -4 9 -10z"/>
<path d="M310 2600 c0 -33 -3 -40 -20 -40 -11 0 -20 -4 -20 -10 0 -5 9 -10 20
-10 15 0 20 -7 20 -26 0 -34 24 -26 28 9 3 21 9 27 28 27 13 0 24 5 24 10 0 6
-11 10 -25 10 -22 0 -25 4 -25 35 0 24 -5 35 -15 35 -11 0 -15 -11 -15 -40z"/>
<path d="M198 2193 c-4 -34 -33 -43 -41 -13 -3 11 -12 20 -21 20 -12 0 -15 -6
-10 -25 5 -19 2 -25 -10 -25 -9 0 -16 -4 -16 -10 0 -5 9 -10 20 -10 13 0 20
-7 20 -19 0 -11 4 -21 9 -23 15 -5 17 -51 2 -56 -9 -3 -11 1 -6 17 5 17 2 21
-15 21 -16 0 -20 -4 -16 -16 3 -9 6 -24 6 -35 0 -16 5 -18 25 -13 14 3 25 2
25 -4 0 -11 -34 -22 -72 -22 -16 0 -28 -4 -28 -10 0 -5 20 -10 45 -10 l45 0 0
-40 c0 -40 13 -53 24 -24 3 9 6 29 6 45 0 26 3 29 31 29 20 0 29 4 26 13 -2 6
-16 11 -31 10 -17 -1 -26 3 -26 13 0 8 9 14 20 14 18 0 40 26 40 49 0 6 -11
11 -25 11 -25 0 -65 31 -65 50 0 6 7 10 15 10 8 0 15 -9 15 -20 0 -11 7 -20
15 -20 8 0 15 9 15 19 0 11 9 23 20 26 23 7 27 25 6 25 -8 0 -16 10 -18 22 -5
32 -26 33 -30 1z m17 -143 c-3 -5 -10 -10 -16 -10 -5 0 -9 5 -9 10 0 6 7 10
16 10 8 0 12 -4 9 -10z"/>
<path d="M310 2150 c0 -33 -3 -40 -20 -40 -11 0 -20 -4 -20 -10 0 -5 9 -10 20
-10 32 0 24 -30 -10 -36 -44 -9 -37 -28 8 -20 20 3 58 6 85 6 37 0 47 4 47 16
0 14 -7 15 -40 10 -36 -6 -40 -4 -40 14 0 15 7 20 25 20 14 0 25 5 25 10 0 6
-11 10 -25 10 -22 0 -25 4 -25 35 0 24 -5 35 -15 35 -11 0 -15 -11 -15 -40z"/>
<path d="M198 1743 c-4 -34 -33 -43 -41 -13 -3 11 -12 20 -21 20 -12 0 -15 -6
-10 -25 5 -19 2 -25 -10 -25 -9 0 -16 -4 -16 -10 0 -5 9 -10 20 -10 13 0 20
-7 20 -19 0 -11 4 -21 9 -23 15 -5 17 -51 2 -56 -9 -3 -11 1 -6 17 5 17 2 21
-15 21 -16 0 -20 -4 -16 -16 3 -9 6 -24 6 -35 0 -16 5 -18 25 -13 14 3 25 2
25 -4 0 -11 -34 -22 -72 -22 -16 0 -28 -4 -28 -10 0 -5 20 -10 45 -10 l45 0 0
-40 c0 -40 13 -53 24 -24 3 9 6 29 6 45 0 26 3 29 31 29 20 0 29 4 26 13 -2 6
-16 11 -31 10 -17 -1 -26 3 -26 13 0 8 9 14 20 14 18 0 40 26 40 49 0 6 -11
11 -25 11 -25 0 -65 31 -65 50 0 6 7 10 15 10 8 0 15 -9 15 -20 0 -11 7 -20
15 -20 8 0 15 9 15 19 0 11 9 23 20 26 23 7 27 25 6 25 -8 0 -16 10 -18 22 -5
32 -26 33 -30 1z m17 -143 c-3 -5 -10 -10 -16 -10 -5 0 -9 5 -9 10 0 6 7 10
16 10 8 0 12 -4 9 -10z"/>
<path d="M310 1700 c0 -33 -3 -40 -20 -40 -11 0 -20 -4 -20 -10 0 -5 9 -10 20
-10 32 0 24 -30 -10 -36 -44 -9 -37 -28 8 -20 20 3 58 6 85 6 37 0 47 4 47 16
0 14 -7 15 -40 10 -36 -6 -40 -4 -40 14 0 15 7 20 25 20 14 0 25 5 25 10 0 6
-11 10 -25 10 -22 0 -25 4 -25 35 0 24 -5 35 -15 35 -11 0 -15 -11 -15 -40z"/>
<path d="M303 1543 c-37 -5 -45 -23 -10 -23 41 0 97 13 97 21 0 9 -26 9 -87 2z"/>
<path d="M198 1293 c-4 -34 -33 -43 -41 -13 -3 11 -12 20 -21 20 -12 0 -15 -6
-10 -25 5 -19 2 -25 -10 -25 -9 0 -16 -4 -16 -10 0 -5 9 -10 20 -10 13 0 20
-7 20 -19 0 -11 4 -21 9 -23 15 -5 17 -51 2 -56 -9 -3 -11 1 -6 17 5 17 2 21
-15 21 -16 0 -20 -4 -16 -16 3 -9 6 -24 6 -35 0 -16 5 -18 25 -13 14 3 25 2
25 -4 0 -11 -34 -22 -72 -22 -16 0 -28 -4 -28 -10 0 -5 20 -10 45 -10 l45 0 0
-40 c0 -40 13 -53 24 -24 3 9 6 29 6 45 0 26 3 29 31 29 20 0 29 4 26 13 -2 6
-16 11 -31 10 -17 -1 -26 3 -26 13 0 8 9 14 20 14 18 0 40 26 40 49 0 6 -11
11 -25 11 -25 0 -65 31 -65 50 0 6 7 10 15 10 8 0 15 -9 15 -20 0 -11 7 -20
15 -20 8 0 15 9 15 19 0 11 9 23 20 26 23 7 27 25 6 25 -8 0 -16 10 -18 22 -5
32 -26 33 -30 1z m17 -143 c-3 -5 -10 -10 -16 -10 -5 0 -9 5 -9 10 0 6 7 10
16 10 8 0 12 -4 9 -10z"/>
<path d="M310 1250 c0 -33 -3 -40 -20 -40 -11 0 -20 -4 -20 -10 0 -5 9 -10 20
-10 32 0 24 -30 -10 -36 -44 -9 -37 -28 8 -20 20 3 58 6 85 6 37 0 47 4 47 16
0 14 -7 15 -40 10 -36 -6 -40 -4 -40 14 0 15 7 20 25 20 14 0 25 5 25 10 0 6
-11 10 -25 10 -22 0 -25 4 -25 35 0 24 -5 35 -15 35 -11 0 -15 -11 -15 -40z"/>
<path d="M310 1110 c0 -13 -7 -20 -20 -20 -11 0 -20 -4 -20 -10 0 -5 9 -10 20
-10 15 0 20 -7 20 -26 0 -34 24 -26 28 9 3 21 9 27 28 27 13 0 24 5 24 10 0 6
-11 10 -25 10 -16 0 -25 6 -25 15 0 8 -7 15 -15 15 -8 0 -15 -9 -15 -20z"/>
<path d="M198 843 c-4 -34 -33 -43 -41 -13 -3 11 -12 20 -21 20 -12 0 -15 -6
-10 -25 5 -19 2 -25 -10 -25 -9 0 -16 -4 -16 -10 0 -5 9 -10 20 -10 13 0 20
-7 20 -19 0 -11 4 -21 9 -23 15 -5 17 -51 2 -56 -9 -3 -11 1 -6 17 5 17 2 21
-15 21 -16 0 -20 -4 -16 -16 3 -9 6 -24 6 -35 0 -16 5 -18 25 -13 14 3 25 2
25 -4 0 -11 -34 -22 -72 -22 -16 0 -28 -4 -28 -10 0 -5 20 -10 45 -10 l45 0 0
-40 c0 -40 13 -53 24 -24 3 9 6 29 6 45 0 26 3 29 31 29 20 0 29 4 26 13 -2 6
-16 11 -31 10 -17 -1 -26 3 -26 13 0 8 9 14 20 14 18 0 40 26 40 49 0 6 -11
11 -25 11 -25 0 -65 31 -65 50 0 6 7 10 15 10 8 0 15 -9 15 -20 0 -11 7 -20
15 -20 8 0 15 9 15 19 0 11 9 23 20 26 23 7 27 25 6 25 -8 0 -16 10 -18 22 -5
32 -26 33 -30 1z m17 -143 c-3 -5 -10 -10 -16 -10 -5 0 -9 5 -9 10 0 6 7 10
16 10 8 0 12 -4 9 -10z"/>
<path d="M310 800 c0 -33 -3 -40 -20 -40 -11 0 -20 -4 -20 -10 0 -5 9 -10 20
-10 32 0 24 -30 -10 -36 -44 -9 -37 -28 8 -20 20 3 58 6 85 6 37 0 47 4 47 16
0 14 -7 15 -40 10 -36 -6 -40 -4 -40 14 0 15 7 20 25 20 14 0 25 5 25 10 0 6
-11 10 -25 10 -22 0 -25 4 -25 35 0 24 -5 35 -15 35 -11 0 -15 -11 -15 -40z"/>
<path d="M310 660 c0 -13 -7 -20 -20 -20 -11 0 -20 -4 -20 -10 0 -5 9 -10 20
-10 11 0 20 -7 20 -15 0 -11 -11 -15 -41 -15 -28 0 -39 -4 -36 -12 3 -10 30
-12 103 -10 54 2 101 6 104 9 11 11 -28 23 -62 19 -32 -3 -38 -1 -38 15 0 14
7 19 25 19 14 0 25 5 25 10 0 6 -11 10 -25 10 -16 0 -25 6 -25 15 0 8 -7 15
-15 15 -8 0 -15 -9 -15 -20z"/>
</g>
</svg>
