<?xml version="1.0" standalone="no"?>
<!DOCTYPE svg PUBLIC "-//W3C//DTD SVG 20010904//EN"
 "http://www.w3.org/TR/2001/REC-SVG-20010904/DTD/svg10.dtd">
<svg version="1.0" xmlns="http://www.w3.org/2000/svg"
 width="50.000000pt" height="725.000000pt" viewBox="0 0 50.000000 725.000000"
 preserveAspectRatio="xMidYMid meet">
<metadata>
Created by potrace 1.16, written by Peter Selinger 2001-2019
</metadata>
<g transform="translate(0.000000,725.000000) scale(0.100000,-0.100000)"
fill="#000000" stroke="none">
<path d="M148 7108 c-79 -14 -75 -32 5 -23 76 8 97 14 97 26 0 11 -24 10 -102
-3z"/>
<path d="M126 6675 c5 -21 3 -25 -15 -25 -12 0 -21 -4 -21 -10 0 -5 9 -10 21
-10 12 0 23 -8 26 -20 7 -28 23 -25 23 5 0 21 5 25 29 25 36 0 61 9 61 22 0 6
-17 8 -44 4 -38 -6 -44 -4 -49 14 -3 11 -12 20 -21 20 -12 0 -15 -6 -10 -25z"/>
<path d="M190 6240 c0 -34 -25 -42 -33 -10 -3 11 -12 20 -21 20 -12 0 -15 -6
-10 -25 5 -21 3 -25 -15 -25 -12 0 -21 -4 -21 -10 0 -5 9 -10 21 -10 12 0 23
-8 26 -20 7 -28 23 -25 23 5 0 16 6 25 15 25 8 0 15 -9 15 -20 0 -11 5 -20 10
-20 6 0 10 9 10 19 0 11 9 23 20 26 24 8 27 25 4 25 -11 0 -14 5 -10 17 6 15
-8 32 -26 33 -5 0 -8 -13 -8 -30z"/>
<path d="M190 5790 c0 -34 -25 -42 -33 -10 -3 11 -12 20 -21 20 -12 0 -15 -6
-10 -25 5 -21 3 -25 -15 -25 -12 0 -21 -4 -21 -10 0 -5 9 -10 21 -10 12 0 23
-8 26 -20 7 -28 23 -25 23 5 0 16 6 25 16 25 11 0 14 -6 9 -20 -5 -14 -2 -20
9 -20 9 0 16 8 16 19 0 11 9 23 20 26 24 8 27 25 4 25 -11 0 -14 5 -10 17 6
15 -8 32 -26 33 -5 0 -8 -13 -8 -30z"/>
<path d="M190 5340 c0 -34 -25 -42 -33 -10 -3 11 -12 20 -21 20 -12 0 -15 -6
-10 -25 5 -21 3 -25 -15 -25 -12 0 -21 -4 -21 -10 0 -5 9 -10 21 -10 12 0 23
-8 26 -20 7 -28 23 -25 23 5 0 16 6 25 16 25 11 0 14 -6 9 -20 -5 -14 -2 -20
9 -20 9 0 16 8 16 19 0 11 9 23 20 26 24 8 27 25 4 25 -11 0 -14 5 -10 17 6
15 -8 32 -26 33 -5 0 -8 -13 -8 -30z"/>
<path d="M113 5199 c4 -13 7 -30 7 -36 0 -7 5 -13 11 -13 15 0 6 63 -10 68
-10 4 -12 -1 -8 -19z"/>
<path d="M190 4890 c0 -34 -25 -42 -33 -10 -3 11 -12 20 -21 20 -12 0 -15 -6
-10 -25 5 -21 3 -25 -15 -25 -12 0 -21 -4 -21 -10 0 -5 9 -10 21 -10 12 0 23
-8 26 -20 7 -28 23 -25 23 5 0 16 6 25 16 25 11 0 14 -6 9 -20 -5 -14 -2 -20
9 -20 9 0 16 8 16 19 0 11 9 23 20 26 24 8 27 25 4 25 -11 0 -14 5 -10 17 6
15 -8 32 -26 33 -5 0 -8 -13 -8 -30z"/>
<path d="M170 4770 c0 -5 9 -10 20 -10 12 0 20 -7 20 -16 0 -23 24 -11 28 14
3 19 -1 22 -32 22 -20 0 -36 -4 -36 -10z"/>
<path d="M115 4738 c8 -34 13 -44 19 -37 2 2 6 19 9 37 6 28 4 32 -14 32 -18
0 -20 -4 -14 -32z"/>
<path d="M190 4440 c0 -34 -25 -42 -33 -10 -3 11 -12 20 -21 20 -12 0 -15 -6
-10 -25 5 -21 3 -25 -15 -25 -12 0 -21 -4 -21 -10 0 -5 9 -10 21 -10 12 0 23
-8 26 -20 7 -28 23 -25 23 5 0 16 6 25 16 25 11 0 14 -6 9 -20 -5 -14 -2 -20
9 -20 9 0 16 8 16 19 0 11 9 23 20 26 24 8 27 25 4 25 -11 0 -14 5 -10 17 6
15 -8 32 -26 33 -5 0 -8 -13 -8 -30z"/>
<path d="M170 4320 c0 -5 9 -10 20 -10 11 0 20 -4 20 -10 0 -5 -7 -10 -15 -10
-8 0 -15 -4 -15 -10 0 -16 47 -11 54 6 13 34 7 44 -29 44 -19 0 -35 -4 -35
-10z"/>
<path d="M115 4288 c9 -41 7 -38 33 -31 25 6 30 23 6 23 -11 0 -14 6 -9 20 5
16 2 20 -15 20 -19 0 -21 -4 -15 -32z"/>
<path d="M190 3990 c0 -34 -25 -42 -33 -10 -3 11 -12 20 -21 20 -12 0 -15 -6
-10 -25 5 -21 3 -25 -15 -25 -12 0 -21 -4 -21 -10 0 -5 9 -10 21 -10 12 0 23
-8 26 -20 7 -28 23 -25 23 5 0 16 6 25 16 25 11 0 14 -6 9 -20 -5 -14 -2 -20
9 -20 9 0 16 8 16 19 0 11 9 23 20 26 24 8 27 25 4 25 -11 0 -14 5 -10 17 6
15 -8 32 -26 33 -5 0 -8 -13 -8 -30z"/>
<path d="M170 3870 c0 -5 9 -10 20 -10 11 0 20 -4 20 -10 0 -5 -7 -10 -15 -10
-8 0 -15 -4 -15 -10 0 -16 47 -11 54 6 13 34 7 44 -29 44 -19 0 -35 -4 -35
-10z"/>
<path d="M115 3838 c9 -41 7 -38 33 -31 25 6 30 23 6 23 -11 0 -14 6 -9 20 5
16 2 20 -15 20 -19 0 -21 -4 -15 -32z"/>
<path d="M143 3787 c-40 -6 -73 -14 -73 -18 0 -14 28 -17 66 -8 22 4 56 9 77
9 38 0 50 13 21 24 -9 3 -16 5 -17 4 -1 -1 -35 -6 -74 -11z"/>
<path d="M190 3540 c0 -34 -25 -42 -33 -10 -3 11 -12 20 -21 20 -12 0 -15 -6
-10 -25 5 -21 3 -25 -15 -25 -12 0 -21 -4 -21 -10 0 -5 9 -10 21 -10 12 0 23
-8 26 -20 3 -11 9 -20 14 -20 5 0 9 -13 9 -30 0 -16 -5 -30 -11 -30 -6 0 -8 9
-4 20 5 16 2 20 -15 20 -18 0 -21 -4 -16 -22 3 -13 6 -29 6 -36 0 -9 7 -11 21
-7 15 5 20 3 17 -6 -3 -8 -22 -15 -46 -17 -23 -2 -42 -7 -42 -12 0 -13 22 -18
58 -12 l32 5 0 -47 c0 -61 18 -60 22 2 3 45 4 47 36 50 17 2 32 7 32 12 0 12
-28 20 -45 14 -9 -4 -15 0 -15 10 0 9 8 16 19 16 19 0 31 18 31 46 0 8 -10 14
-25 14 -14 0 -25 5 -25 10 0 6 5 10 10 10 6 0 10 9 10 19 0 11 9 23 20 26 24
8 27 25 4 25 -11 0 -14 5 -10 17 6 15 -8 32 -26 33 -5 0 -8 -13 -8 -30z m-2
-62 c-6 -18 -28 -21 -28 -4 0 9 7 16 16 16 9 0 14 -5 12 -12z m22 -78 c0 -5
-4 -10 -10 -10 -5 0 -10 5 -10 10 0 6 5 10 10 10 6 0 10 -4 10 -10z"/>
<path d="M190 3090 c0 -34 -25 -42 -33 -10 -3 11 -12 20 -21 20 -12 0 -15 -6
-10 -25 5 -21 3 -25 -15 -25 -12 0 -21 -4 -21 -10 0 -5 9 -10 21 -10 12 0 23
-8 26 -20 3 -11 9 -20 14 -20 5 0 9 -13 9 -30 0 -16 -5 -30 -11 -30 -6 0 -8 9
-4 20 5 16 2 20 -15 20 -18 0 -21 -4 -16 -22 3 -13 6 -29 6 -36 0 -9 7 -11 21
-7 15 5 20 3 17 -6 -3 -8 -22 -15 -46 -17 -23 -2 -42 -7 -42 -12 0 -13 22 -18
58 -12 l32 5 0 -47 c0 -61 18 -60 22 2 3 45 4 47 36 50 17 2 32 7 32 12 0 12
-28 20 -45 14 -9 -4 -15 0 -15 10 0 9 8 16 19 16 19 0 31 18 31 46 0 8 -10 14
-25 14 -14 0 -25 5 -25 10 0 6 5 10 10 10 6 0 10 9 10 19 0 11 9 23 20 26 24
8 27 25 4 25 -11 0 -14 5 -10 17 6 15 -8 32 -26 33 -5 0 -8 -13 -8 -30z m-2
-62 c-6 -18 -28 -21 -28 -4 0 9 7 16 16 16 9 0 14 -5 12 -12z m22 -78 c0 -5
-4 -10 -10 -10 -5 0 -10 5 -10 10 0 6 5 10 10 10 6 0 10 -4 10 -10z"/>
<path d="M290 3085 c0 -13 24 -55 32 -55 19 0 21 33 3 46 -19 14 -35 18 -35 9z"/>
<path d="M190 2640 c0 -34 -25 -42 -33 -10 -3 11 -12 20 -21 20 -12 0 -15 -6
-10 -25 5 -21 3 -25 -15 -25 -12 0 -21 -4 -21 -10 0 -5 9 -10 21 -10 12 0 23
-8 26 -20 3 -11 9 -20 14 -20 5 0 9 -13 9 -30 0 -16 -5 -30 -11 -30 -6 0 -8 9
-4 20 5 16 2 20 -15 20 -18 0 -21 -4 -16 -22 3 -13 6 -29 6 -36 0 -9 7 -11 21
-7 15 5 20 3 17 -6 -3 -8 -22 -15 -46 -17 -23 -2 -42 -7 -42 -12 0 -13 22 -18
58 -12 l32 5 0 -47 c0 -61 18 -60 22 2 3 45 4 47 36 50 17 2 32 7 32 12 0 12
-28 20 -45 14 -9 -4 -15 0 -15 10 0 9 8 16 20 16 15 0 22 8 26 29 4 17 12 32
20 35 16 6 19 46 4 46 -6 0 -16 -11 -22 -25 -11 -24 -48 -36 -48 -15 0 6 5 10
10 10 6 0 10 9 10 19 0 11 9 23 20 26 24 8 27 25 4 25 -11 0 -14 5 -10 17 6
15 -8 32 -26 33 -5 0 -8 -13 -8 -30z m-2 -62 c-6 -18 -28 -21 -28 -4 0 9 7 16
16 16 9 0 14 -5 12 -12z m22 -78 c0 -5 -4 -10 -10 -10 -5 0 -10 5 -10 10 0 6
5 10 10 10 6 0 10 -4 10 -10z"/>
<path d="M290 2635 c0 -13 24 -55 32 -55 19 0 21 33 3 46 -19 14 -35 18 -35 9z"/>
<path d="M190 2190 c0 -34 -25 -42 -33 -10 -3 11 -12 20 -21 20 -12 0 -15 -6
-10 -25 5 -21 3 -25 -15 -25 -12 0 -21 -4 -21 -10 0 -5 9 -10 21 -10 12 0 23
-8 26 -20 3 -11 9 -20 14 -20 5 0 9 -13 9 -30 0 -16 -5 -30 -11 -30 -6 0 -8 9
-4 20 5 16 2 20 -15 20 -18 0 -21 -4 -16 -22 3 -13 6 -29 6 -36 0 -9 7 -11 21
-7 15 5 20 3 17 -6 -3 -8 -22 -15 -46 -17 -23 -2 -42 -7 -42 -12 0 -13 22 -18
58 -12 l32 5 0 -47 c0 -61 18 -60 22 2 3 45 4 47 36 50 17 2 32 7 32 12 0 12
-28 20 -45 14 -9 -4 -15 0 -15 10 0 9 8 16 20 16 13 0 22 9 26 26 10 38 40 65
80 71 29 5 34 9 28 27 -6 22 -31 46 -47 46 -5 0 -6 -8 -2 -17 12 -33 10 -38
-17 -36 -20 1 -29 -5 -38 -28 -12 -27 -50 -42 -50 -19 0 6 5 10 10 10 6 0 10
9 10 19 0 11 9 23 20 26 24 8 27 25 4 25 -11 0 -14 5 -10 17 6 15 -8 32 -26
33 -5 0 -8 -13 -8 -30z m-2 -62 c-6 -18 -28 -21 -28 -4 0 9 7 16 16 16 9 0 14
-5 12 -12z m22 -78 c0 -5 -4 -10 -10 -10 -5 0 -10 5 -10 10 0 6 5 10 10 10 6
0 10 -4 10 -10z"/>
<path d="M363 2120 c0 -26 3 -29 21 -24 33 10 41 21 26 39 -22 26 -47 19 -47
-15z"/>
<path d="M190 1740 c0 -34 -25 -42 -33 -10 -3 11 -12 20 -21 20 -12 0 -15 -6
-10 -25 5 -21 3 -25 -15 -25 -12 0 -21 -4 -21 -10 0 -5 9 -10 21 -10 12 0 23
-8 26 -20 3 -11 9 -20 14 -20 5 0 9 -13 9 -30 0 -16 -5 -30 -11 -30 -6 0 -8 9
-4 20 5 16 2 20 -15 20 -18 0 -21 -4 -16 -22 3 -13 6 -29 6 -36 0 -9 7 -11 21
-7 15 5 20 3 17 -6 -3 -8 -22 -15 -46 -17 -23 -2 -42 -7 -42 -12 0 -13 22 -18
58 -12 l32 5 0 -47 c0 -61 18 -60 22 2 3 45 4 47 36 50 17 2 32 7 32 12 0 12
-28 20 -45 14 -9 -4 -15 0 -15 10 0 9 8 16 20 16 13 0 22 9 26 26 10 38 40 65
80 71 29 5 34 9 28 27 -6 22 -31 46 -47 46 -5 0 -6 -8 -2 -17 12 -33 10 -38
-17 -36 -20 1 -29 -5 -38 -28 -12 -27 -50 -42 -50 -19 0 6 5 10 10 10 6 0 10
9 10 19 0 11 9 23 20 26 24 8 27 25 4 25 -11 0 -14 5 -10 17 6 15 -8 32 -26
33 -5 0 -8 -13 -8 -30z m-2 -62 c-6 -18 -28 -21 -28 -4 0 9 7 16 16 16 9 0 14
-5 12 -12z m22 -78 c0 -5 -4 -10 -10 -10 -5 0 -10 5 -10 10 0 6 5 10 10 10 6
0 10 -4 10 -10z"/>
<path d="M363 1670 c0 -26 3 -29 21 -24 33 10 41 21 26 39 -22 26 -47 19 -47
-15z"/>
<path d="M290 1625 c0 -15 -7 -40 -16 -58 -12 -22 -13 -32 -5 -35 6 -2 34 -21
61 -43 52 -41 70 -48 70 -26 0 19 -29 43 -72 62 l-37 15 20 45 c21 46 19 65
-7 65 -8 0 -14 -10 -14 -25z"/>
<path d="M190 1290 c0 -34 -25 -42 -33 -10 -3 11 -12 20 -21 20 -12 0 -15 -6
-10 -25 5 -21 3 -25 -15 -25 -12 0 -21 -4 -21 -10 0 -5 9 -10 21 -10 12 0 23
-8 26 -20 3 -11 9 -20 14 -20 5 0 9 -13 9 -30 0 -16 -5 -30 -11 -30 -6 0 -8 9
-4 20 5 16 2 20 -15 20 -18 0 -21 -4 -16 -22 3 -13 6 -29 6 -36 0 -9 7 -11 21
-7 15 5 20 3 17 -6 -3 -8 -22 -15 -46 -17 -23 -2 -42 -7 -42 -12 0 -13 22 -18
58 -12 l32 5 0 -47 c0 -61 18 -60 22 2 3 45 4 47 36 50 17 2 32 7 32 12 0 12
-28 20 -45 14 -9 -4 -15 0 -15 10 0 9 8 16 20 16 13 0 22 9 26 26 10 38 40 65
80 71 29 5 34 9 28 27 -6 22 -31 46 -47 46 -5 0 -6 -8 -2 -17 12 -33 10 -38
-17 -36 -20 1 -29 -5 -38 -28 -12 -27 -50 -42 -50 -19 0 6 5 10 10 10 6 0 10
9 10 19 0 11 9 23 20 26 24 8 27 25 4 25 -11 0 -14 5 -10 17 6 15 -8 32 -26
33 -5 0 -8 -13 -8 -30z m-2 -62 c-6 -18 -28 -21 -28 -4 0 9 7 16 16 16 9 0 14
-5 12 -12z m22 -78 c0 -5 -4 -10 -10 -10 -5 0 -10 5 -10 10 0 6 5 10 10 10 6
0 10 -4 10 -10z"/>
<path d="M363 1220 c0 -26 3 -29 21 -24 33 10 41 21 26 39 -22 26 -47 19 -47
-15z"/>
<path d="M290 1173 c-1 -16 -7 -39 -15 -53 -19 -33 -18 -38 5 -45 28 -9 25
-21 -10 -35 -16 -7 -30 -16 -30 -21 0 -13 16 -11 57 6 34 14 38 14 58 -5 12
-11 27 -20 33 -20 21 0 13 28 -13 48 -22 17 -24 24 -15 47 14 38 12 65 -5 65
-9 0 -15 -9 -15 -23 0 -29 -23 -62 -38 -53 -7 4 -4 21 9 51 21 46 19 65 -7 65
-9 0 -14 -10 -14 -27z"/>
<path d="M190 840 c0 -34 -25 -42 -33 -10 -3 11 -12 20 -21 20 -12 0 -15 -6
-10 -25 5 -21 3 -25 -15 -25 -12 0 -21 -4 -21 -10 0 -5 9 -10 21 -10 12 0 23
-8 26 -20 3 -11 9 -20 14 -20 5 0 9 -13 9 -30 0 -16 -5 -30 -11 -30 -6 0 -8 9
-4 20 5 16 2 20 -15 20 -18 0 -21 -4 -16 -22 3 -13 6 -29 6 -36 0 -9 7 -11 21
-7 15 5 20 3 17 -6 -3 -8 -22 -15 -46 -17 -23 -2 -42 -7 -42 -12 0 -13 22 -18
58 -12 l32 5 0 -47 c0 -61 18 -60 22 2 3 45 4 47 36 50 17 2 32 7 32 12 0 12
-28 20 -45 14 -10 -4 -15 0 -15 11 0 14 6 16 31 11 17 -3 35 -6 40 -6 5 0 6
-6 3 -14 -3 -9 3 -17 15 -21 29 -9 26 -20 -9 -35 -16 -7 -30 -16 -30 -21 0
-13 16 -11 57 6 34 14 38 14 58 -5 12 -11 27 -20 33 -20 21 0 13 28 -13 48
-22 17 -24 24 -15 46 8 21 16 26 45 26 19 0 35 4 35 9 0 13 -25 20 -49 14 -12
-3 -21 -1 -21 6 0 16 -19 14 -37 -5 -12 -11 -13 -18 -5 -23 9 -5 9 -12 -1 -26
-22 -28 -38 -10 -21 23 21 43 22 76 2 80 -12 2 -17 -5 -20 -30 -2 -27 -8 -34
-30 -36 -23 -3 -26 0 -21 19 9 33 41 60 79 66 29 5 34 9 28 27 -6 22 -31 46
-47 46 -5 0 -6 -8 -2 -17 12 -33 10 -38 -17 -36 -20 1 -29 -5 -38 -28 -12 -27
-50 -42 -50 -19 0 6 5 10 10 10 6 0 10 9 10 19 0 11 9 23 20 26 24 8 27 25 4
25 -11 0 -14 5 -10 17 6 15 -8 32 -26 33 -5 0 -8 -13 -8 -30z m-2 -62 c-6 -18
-28 -21 -28 -4 0 9 7 16 16 16 9 0 14 -5 12 -12z m22 -78 c0 -5 -4 -10 -10
-10 -5 0 -10 5 -10 10 0 6 5 10 10 10 6 0 10 -4 10 -10z"/>
<path d="M363 770 c0 -26 3 -29 21 -24 33 10 41 21 26 39 -22 26 -47 19 -47
-15z"/>
</g>
</svg>
