<?xml version="1.0" standalone="no"?>
<!DOCTYPE svg PUBLIC "-//W3C//DTD SVG 20010904//EN"
 "http://www.w3.org/TR/2001/REC-SVG-20010904/DTD/svg10.dtd">
<svg version="1.0" xmlns="http://www.w3.org/2000/svg"
 width="95.000000pt" height="725.000000pt" viewBox="0 0 95.000000 725.000000"
 preserveAspectRatio="xMidYMid meet">
<metadata>
Created by potrace 1.16, written by Peter Selinger 2001-2019
</metadata>
<g transform="translate(0.000000,725.000000) scale(0.100000,-0.100000)"
fill="#000000" stroke="none">
<path d="M173 7138 c3 -29 -28 -37 -36 -8 -3 11 -11 20 -17 20 -8 0 -10 -9 -6
-25 5 -20 3 -25 -14 -25 -11 0 -20 -4 -20 -10 0 -5 9 -10 20 -10 13 0 20 -7
20 -20 0 -11 6 -20 13 -20 8 0 12 -17 13 -50 l2 -50 -39 -6 c-52 -9 -51 -28 1
-21 l39 5 -6 -44 c-5 -37 -3 -44 11 -44 12 0 16 10 16 45 0 39 3 45 25 51 14
3 25 10 25 15 0 5 -11 9 -25 9 -14 0 -25 5 -25 10 0 6 8 10 19 10 11 0 21 9
25 23 9 34 8 37 -19 37 -14 0 -25 5 -25 10 0 6 5 10 10 10 6 0 10 9 10 20 0
13 7 20 20 20 23 0 27 18 6 26 -8 3 -12 13 -9 25 4 14 0 19 -16 19 -15 0 -20
-6 -18 -22z m-3 -56 c0 -13 -12 -22 -22 -16 -10 6 -1 24 13 24 5 0 9 -4 9 -8z
m20 -82 c0 -5 -4 -10 -10 -10 -5 0 -10 5 -10 10 0 6 5 10 10 10 6 0 10 -4 10
-10z"/>
<path d="M312 7123 c2 -23 -1 -29 -19 -31 -31 -5 -29 -22 3 -22 14 0 23 -4 19
-10 -3 -5 -17 -10 -31 -10 -13 0 -24 -4 -24 -10 0 -5 6 -10 14 -10 8 0 16 -7
20 -15 3 -8 1 -15 -4 -15 -6 0 -10 -5 -10 -11 0 -7 16 -8 48 -3 50 7 65 14 45
21 -21 7 -2 33 24 33 15 0 23 5 20 13 -2 7 -18 11 -41 9 -25 -2 -36 1 -31 7 3
6 13 11 21 11 8 0 14 5 14 10 0 6 -9 10 -20 10 -14 0 -19 6 -17 22 1 15 -4 23
-16 26 -15 3 -18 -2 -15 -25z m24 -110 c-10 -10 -19 5 -10 18 6 11 8 11 12 0
2 -7 1 -15 -2 -18z"/>
<path d="M593 7107 c-73 -11 -88 -33 -17 -23 26 3 60 6 76 6 19 0 28 5 26 12
-6 16 -14 17 -85 5z"/>
<path d="M100 7006 c0 -22 11 -46 21 -46 5 0 9 14 9 30 0 20 -5 30 -15 30 -8
0 -15 -6 -15 -14z"/>
<path d="M318 6973 c-33 -5 -37 -23 -5 -23 33 0 67 11 67 21 0 9 -12 9 -62 2z"/>
<path d="M288 6933 c-32 -8 -20 -26 13 -19 17 3 49 6 70 6 22 0 39 5 39 10 0
10 -88 12 -122 3z"/>
<path d="M173 6688 c3 -29 -28 -37 -36 -8 -3 11 -11 20 -17 20 -8 0 -10 -9 -6
-25 5 -20 3 -25 -14 -25 -11 0 -20 -4 -20 -10 0 -5 9 -10 20 -10 13 0 20 -7
20 -20 0 -11 6 -20 13 -20 8 0 12 -17 13 -50 l2 -50 -39 -6 c-52 -9 -51 -28 1
-21 l39 5 -6 -44 c-5 -37 -3 -44 11 -44 12 0 16 10 16 45 0 39 3 45 25 51 14
3 25 10 25 15 0 5 -11 9 -25 9 -14 0 -25 5 -25 10 0 6 8 10 19 10 11 0 21 9
25 23 9 34 8 37 -19 37 -14 0 -25 5 -25 10 0 6 5 10 10 10 6 0 10 9 10 20 0
13 7 20 20 20 23 0 27 18 6 26 -8 3 -12 13 -9 25 4 14 0 19 -16 19 -15 0 -20
-6 -18 -22z m-3 -56 c0 -13 -12 -22 -22 -16 -10 6 -1 24 13 24 5 0 9 -4 9 -8z
m20 -82 c0 -5 -4 -10 -10 -10 -5 0 -10 5 -10 10 0 6 5 10 10 10 6 0 10 -4 10
-10z"/>
<path d="M312 6673 c2 -23 -1 -29 -19 -31 -31 -5 -29 -22 3 -22 14 0 23 -4 19
-10 -3 -5 -17 -10 -31 -10 -13 0 -24 -4 -24 -10 0 -5 6 -10 14 -10 8 0 16 -7
20 -15 3 -8 1 -15 -4 -15 -21 0 -9 -20 13 -21 16 -1 18 -2 5 -6 -10 -2 -18 -8
-18 -13 0 -5 8 -10 18 -13 13 -3 10 -6 -10 -11 -35 -10 -37 -30 -3 -24 19 4
25 1 25 -13 0 -11 5 -19 10 -19 6 0 10 9 10 20 0 16 7 20 35 20 47 0 45 18 -2
23 -33 3 -35 5 -15 12 26 9 29 22 5 28 -17 4 -17 5 0 6 17 1 25 21 7 21 -5 0
-7 7 -4 15 4 8 17 15 31 15 15 0 23 5 20 13 -2 7 -18 11 -41 9 -25 -2 -36 1
-31 7 3 6 13 11 21 11 8 0 14 5 14 10 0 6 -9 10 -20 10 -14 0 -19 6 -17 22 1
15 -4 23 -16 26 -15 3 -18 -2 -15 -25z m24 -110 c-10 -10 -19 5 -10 18 6 11 8
11 12 0 2 -7 1 -15 -2 -18z"/>
<path d="M564 6675 c5 -20 3 -25 -14 -25 -11 0 -20 -4 -20 -10 0 -5 9 -10 20
-10 13 0 20 -7 20 -20 0 -27 18 -25 22 3 2 18 10 23 46 25 28 2 42 7 39 15 -2
7 -19 11 -44 9 -34 -3 -41 0 -46 17 -3 12 -11 21 -17 21 -8 0 -10 -9 -6 -25z"/>
<path d="M100 6556 c0 -22 11 -46 21 -46 5 0 9 14 9 30 0 20 -5 30 -15 30 -8
0 -15 -6 -15 -14z"/>
<path d="M173 6238 c3 -29 -28 -37 -36 -8 -3 11 -11 20 -17 20 -8 0 -10 -9 -6
-25 5 -20 3 -25 -14 -25 -11 0 -20 -4 -20 -10 0 -5 9 -10 20 -10 13 0 20 -7
20 -20 0 -11 6 -20 13 -20 8 0 12 -17 13 -50 l2 -50 -39 -6 c-52 -9 -51 -28 1
-21 l39 5 -6 -44 c-5 -37 -3 -44 11 -44 12 0 16 10 16 45 0 39 3 45 25 51 14
3 25 10 25 15 0 5 -11 9 -25 9 -14 0 -25 5 -25 10 0 6 8 10 19 10 11 0 21 9
25 23 9 34 8 37 -19 37 -14 0 -25 5 -25 10 0 6 5 10 10 10 6 0 10 9 10 20 0
13 7 20 20 20 23 0 27 18 6 26 -8 3 -12 13 -9 25 4 14 0 19 -16 19 -15 0 -20
-6 -18 -22z m-3 -56 c0 -13 -12 -22 -22 -16 -10 6 -1 24 13 24 5 0 9 -4 9 -8z
m20 -82 c0 -5 -4 -10 -10 -10 -5 0 -10 5 -10 10 0 6 5 10 10 10 6 0 10 -4 10
-10z"/>
<path d="M623 6238 c3 -29 -28 -37 -36 -8 -3 11 -11 20 -17 20 -8 0 -10 -9 -6
-25 5 -20 3 -25 -14 -25 -11 0 -20 -4 -20 -10 0 -5 9 -10 20 -10 13 0 20 -7
20 -20 0 -27 18 -26 22 2 4 28 28 36 28 9 0 -12 5 -21 10 -21 6 0 10 9 10 20
0 13 7 20 20 20 23 0 27 18 6 26 -8 3 -12 13 -9 25 4 14 0 19 -16 19 -15 0
-20 -6 -18 -22z"/>
<path d="M312 6223 c2 -23 -1 -29 -19 -31 -31 -5 -29 -22 3 -22 14 0 23 -4 19
-10 -8 -14 -41 -13 -65 2 -22 14 -33 8 -24 -16 4 -9 17 -16 34 -16 16 0 30 -7
34 -15 3 -8 1 -15 -4 -15 -21 0 -9 -20 13 -21 16 -1 18 -2 5 -6 -10 -2 -18 -8
-18 -13 0 -5 8 -10 18 -13 13 -3 10 -6 -10 -11 -35 -10 -37 -30 -3 -24 19 4
25 1 25 -13 0 -11 5 -19 10 -19 6 0 10 9 10 20 0 16 7 20 35 20 47 0 45 18 -2
23 -33 3 -35 5 -15 12 26 9 29 22 5 28 -17 4 -17 5 0 6 17 1 25 21 7 21 -5 0
-7 7 -4 15 4 8 17 15 31 15 15 0 23 5 20 13 -2 7 -18 11 -41 9 -25 -2 -36 1
-31 7 3 6 13 11 21 11 8 0 14 5 14 10 0 6 -9 10 -20 10 -14 0 -19 6 -17 22 1
15 -4 23 -16 26 -15 3 -18 -2 -15 -25z m24 -110 c-10 -10 -19 5 -10 18 6 11 8
11 12 0 2 -7 1 -15 -2 -18z"/>
<path d="M100 6106 c0 -22 11 -46 21 -46 5 0 9 14 9 30 0 20 -5 30 -15 30 -8
0 -15 -6 -15 -14z"/>
<path d="M173 5788 c3 -29 -28 -37 -36 -8 -3 11 -11 20 -17 20 -8 0 -10 -9 -6
-25 5 -20 3 -25 -14 -25 -11 0 -20 -4 -20 -10 0 -5 9 -10 20 -10 13 0 20 -7
20 -20 0 -11 6 -20 13 -20 8 0 12 -17 13 -50 l2 -50 -39 -6 c-52 -9 -51 -28 1
-21 l39 5 -6 -44 c-5 -37 -3 -44 11 -44 12 0 16 10 16 44 0 38 4 46 23 52 12
4 25 12 30 18 5 8 10 6 17 -4 8 -13 11 -12 24 5 9 11 16 23 16 28 0 13 -48 7
-64 -8 -17 -17 -46 -20 -46 -5 0 6 8 10 19 10 11 0 21 9 25 23 9 34 8 37 -19
37 -14 0 -25 5 -25 10 0 6 5 10 10 10 6 0 10 9 10 20 0 13 7 20 20 20 23 0 27
18 6 26 -8 3 -12 13 -9 25 4 14 0 19 -16 19 -15 0 -20 -6 -18 -22z m-3 -56 c0
-13 -12 -22 -22 -16 -10 6 -1 24 13 24 5 0 9 -4 9 -8z m20 -82 c0 -5 -4 -10
-10 -10 -5 0 -10 5 -10 10 0 6 5 10 10 10 6 0 10 -4 10 -10z"/>
<path d="M623 5788 c3 -29 -28 -37 -36 -8 -3 11 -11 20 -17 20 -8 0 -10 -9 -6
-25 5 -20 3 -25 -14 -25 -11 0 -20 -4 -20 -10 0 -5 9 -10 20 -10 13 0 20 -7
20 -20 0 -11 7 -20 16 -20 10 0 14 7 12 22 -2 11 3 23 11 26 9 3 11 -1 6 -17
-5 -15 -2 -21 9 -21 9 0 16 9 16 20 0 13 7 20 20 20 23 0 27 18 6 26 -8 3 -12
13 -9 25 4 14 0 19 -16 19 -15 0 -20 -6 -18 -22z"/>
<path d="M312 5773 c2 -23 -1 -29 -19 -31 -31 -5 -29 -22 3 -22 14 0 23 -4 19
-10 -8 -14 -41 -13 -65 2 -22 14 -33 8 -24 -16 4 -9 17 -16 34 -16 16 0 30 -7
34 -15 3 -8 1 -15 -4 -15 -21 0 -9 -20 13 -21 16 -1 18 -2 5 -6 -10 -2 -18 -8
-18 -13 0 -5 8 -10 18 -13 13 -3 10 -6 -10 -11 -35 -10 -37 -30 -3 -24 19 4
25 1 25 -13 0 -11 5 -19 10 -19 6 0 10 9 10 20 0 16 7 20 35 20 47 0 45 18 -2
23 -33 3 -35 5 -15 12 26 9 29 22 5 28 -17 4 -17 5 0 6 17 1 25 21 7 21 -5 0
-7 7 -4 15 4 8 17 15 31 15 15 0 23 5 20 13 -2 7 -18 11 -41 9 -25 -2 -36 1
-31 7 3 6 13 11 21 11 8 0 14 5 14 10 0 6 -9 10 -20 10 -14 0 -19 6 -17 22 1
15 -4 23 -16 26 -15 3 -18 -2 -15 -25z m24 -110 c-10 -10 -19 5 -10 18 6 11 8
11 12 0 2 -7 1 -15 -2 -18z"/>
<path d="M100 5656 c0 -22 11 -46 21 -46 5 0 9 14 9 30 0 20 -5 30 -15 30 -8
0 -15 -6 -15 -14z"/>
<path d="M173 5338 c3 -29 -28 -37 -36 -8 -3 11 -11 20 -17 20 -8 0 -10 -9 -6
-25 5 -20 3 -25 -14 -25 -11 0 -20 -4 -20 -10 0 -5 9 -10 20 -10 13 0 20 -7
20 -20 0 -11 6 -20 13 -20 8 0 12 -17 13 -50 l2 -50 -39 -6 c-52 -9 -51 -28 1
-21 l39 5 -6 -44 c-5 -37 -3 -44 11 -44 12 0 16 10 16 45 0 39 3 45 25 51 14
3 25 10 25 15 0 5 5 9 10 9 6 0 10 -8 10 -17 0 -26 18 -50 28 -37 4 6 17 13
30 16 17 5 22 2 22 -13 0 -10 5 -19 10 -19 6 0 10 9 10 20 0 16 7 20 35 20 47
0 45 18 -2 23 -33 3 -35 5 -15 12 26 9 29 22 5 28 -17 4 -17 5 0 6 17 1 25 21
7 21 -5 0 -7 7 -4 15 4 8 17 15 31 15 15 0 23 5 20 13 -2 7 -18 11 -41 9 -25
-2 -36 1 -31 7 3 6 13 11 21 11 8 0 14 5 14 10 0 6 -9 10 -20 10 -14 0 -19 6
-17 22 1 15 -4 23 -16 26 -15 3 -18 -2 -15 -25 2 -23 -1 -29 -19 -31 -31 -5
-29 -22 3 -22 14 0 23 -4 19 -10 -8 -14 -41 -13 -65 2 -22 14 -33 8 -24 -16 4
-9 17 -16 34 -16 16 0 30 -7 34 -15 3 -8 1 -15 -4 -15 -21 0 -9 -20 13 -21 16
-1 18 -2 5 -6 -10 -2 -18 -8 -18 -13 0 -5 8 -10 18 -12 12 -3 7 -7 -15 -15
-27 -10 -33 -9 -33 2 0 8 5 17 10 20 18 11 10 25 -14 25 -14 0 -31 -7 -40 -15
-17 -17 -46 -20 -46 -5 0 6 8 10 19 10 11 0 21 9 25 23 9 34 8 37 -19 37 -14
0 -25 5 -25 10 0 6 5 10 10 10 6 0 10 9 10 20 0 13 7 20 20 20 23 0 27 18 6
26 -8 3 -12 13 -9 25 4 14 0 19 -16 19 -15 0 -20 -6 -18 -22z m-3 -56 c0 -13
-12 -22 -22 -16 -10 6 -1 24 13 24 5 0 9 -4 9 -8z m166 -69 c-10 -10 -19 5
-10 18 6 11 8 11 12 0 2 -7 1 -15 -2 -18z m-146 -13 c0 -5 -4 -10 -10 -10 -5
0 -10 5 -10 10 0 6 5 10 10 10 6 0 10 -4 10 -10z"/>
<path d="M623 5338 c3 -29 -28 -37 -36 -8 -3 11 -11 20 -17 20 -8 0 -10 -9 -6
-25 5 -20 3 -25 -14 -25 -11 0 -20 -4 -20 -10 0 -5 9 -10 20 -10 13 0 20 -7
20 -20 0 -11 7 -20 16 -20 10 0 14 7 12 22 -2 11 3 23 11 26 9 3 11 -1 6 -17
-5 -15 -2 -21 9 -21 9 0 16 9 16 20 0 13 7 20 20 20 23 0 27 18 6 26 -8 3 -12
13 -9 25 4 14 0 19 -16 19 -15 0 -20 -6 -18 -22z"/>
<path d="M100 5206 c0 -22 11 -46 21 -46 5 0 9 14 9 30 0 20 -5 30 -15 30 -8
0 -15 -6 -15 -14z"/>
<path d="M550 5203 c0 -23 17 -49 26 -41 9 10 -4 58 -16 58 -6 0 -10 -8 -10
-17z"/>
<path d="M173 4888 c3 -29 -28 -37 -36 -8 -3 11 -11 20 -17 20 -8 0 -10 -9 -6
-25 5 -20 3 -25 -14 -25 -11 0 -20 -4 -20 -10 0 -5 9 -10 20 -10 13 0 20 -7
20 -20 0 -11 6 -20 13 -20 8 0 12 -17 13 -50 l2 -50 -39 -6 c-52 -9 -51 -28 1
-21 l39 5 -6 -44 c-5 -37 -3 -44 11 -44 12 0 16 10 16 44 0 38 4 46 23 52 12
4 25 12 29 18 9 13 14 8 22 -26 6 -25 4 -28 -19 -28 -14 0 -25 -4 -25 -10 0
-5 16 -10 35 -10 19 0 58 -9 87 -20 43 -16 59 -18 85 -9 49 16 40 29 -21 29
-51 0 -53 1 -48 25 4 21 10 25 38 25 46 0 43 18 -3 23 -33 3 -35 5 -15 12 26
9 29 22 5 28 -17 4 -17 5 0 6 17 1 25 21 7 21 -5 0 -7 7 -4 15 4 8 17 15 31
15 15 0 23 5 20 13 -2 7 -18 11 -41 9 -25 -2 -36 1 -31 7 3 6 13 11 21 11 8 0
14 5 14 10 0 6 -9 10 -20 10 -14 0 -19 6 -17 22 1 15 -4 23 -16 26 -15 3 -18
-2 -15 -25 2 -23 -1 -29 -19 -31 -31 -5 -29 -22 3 -22 14 0 23 -4 19 -10 -8
-14 -41 -13 -65 2 -22 14 -33 8 -24 -16 4 -9 17 -16 34 -16 16 0 30 -7 34 -15
3 -8 1 -15 -4 -15 -21 0 -9 -20 13 -21 16 -1 18 -2 5 -6 -10 -2 -18 -8 -18
-13 0 -5 8 -10 18 -12 12 -3 7 -7 -15 -15 -27 -10 -33 -9 -33 2 0 8 5 17 10
20 18 11 10 25 -14 25 -14 0 -31 -7 -40 -15 -17 -17 -46 -20 -46 -5 0 6 8 10
19 10 11 0 21 9 25 23 9 34 8 37 -19 37 -14 0 -25 5 -25 10 0 6 5 10 10 10 6
0 10 9 10 20 0 13 7 20 20 20 23 0 27 18 6 26 -8 3 -12 13 -9 25 4 14 0 19
-16 19 -15 0 -20 -6 -18 -22z m-3 -56 c0 -13 -12 -22 -22 -16 -10 6 -1 24 13
24 5 0 9 -4 9 -8z m166 -69 c-10 -10 -19 5 -10 18 6 11 8 11 12 0 2 -7 1 -15
-2 -18z m-146 -13 c0 -5 -4 -10 -10 -10 -5 0 -10 5 -10 10 0 6 5 10 10 10 6 0
10 -4 10 -10z m127 -117 c-8 -7 -47 7 -47 17 0 14 45 16 48 2 2 -8 1 -16 -1
-19z"/>
<path d="M623 4888 c3 -29 -28 -37 -36 -8 -3 11 -11 20 -17 20 -8 0 -10 -9 -6
-25 5 -20 3 -25 -14 -25 -11 0 -20 -4 -20 -10 0 -5 9 -10 20 -10 13 0 20 -7
20 -20 0 -11 7 -20 16 -20 10 0 14 7 12 22 -2 11 3 23 11 26 9 3 11 -1 6 -17
-5 -15 -2 -21 9 -21 9 0 16 9 16 20 0 13 7 20 20 20 23 0 27 18 6 26 -8 3 -12
13 -9 25 4 14 0 19 -16 19 -15 0 -20 -6 -18 -22z"/>
<path d="M590 4770 c0 -5 11 -10 25 -10 16 0 25 -6 25 -15 0 -20 16 -19 24 1
11 29 6 34 -34 34 -22 0 -40 -4 -40 -10z"/>
<path d="M100 4756 c0 -22 11 -46 21 -46 5 0 9 14 9 30 0 20 -5 30 -15 30 -8
0 -15 -6 -15 -14z"/>
<path d="M550 4756 c0 -22 11 -46 21 -46 5 0 9 14 9 30 0 20 -5 30 -15 30 -8
0 -15 -6 -15 -14z"/>
<path d="M623 4438 c3 -29 -28 -37 -36 -8 -3 11 -11 20 -17 20 -8 0 -10 -9 -6
-25 5 -20 3 -25 -14 -25 -11 0 -20 -4 -20 -10 0 -5 9 -10 20 -10 13 0 20 -7
20 -20 0 -11 7 -20 16 -20 10 0 14 7 12 22 -2 11 3 23 11 26 9 3 11 -1 6 -17
-5 -15 -2 -21 9 -21 9 0 16 9 16 20 0 13 7 20 20 20 23 0 27 18 6 26 -8 3 -12
13 -9 25 4 14 0 19 -16 19 -15 0 -20 -6 -18 -22z"/>
<path d="M590 4320 c0 -5 11 -10 25 -10 14 0 25 -4 25 -10 0 -5 -9 -10 -20
-10 -11 0 -20 -4 -20 -10 0 -5 13 -10 29 -10 21 0 30 6 35 23 9 36 8 37 -34
37 -22 0 -40 -4 -40 -10z"/>
<path d="M550 4306 c0 -22 11 -46 21 -46 5 0 9 14 9 30 0 20 -5 30 -15 30 -8
0 -15 -6 -15 -14z"/>
<path d="M623 3988 c3 -29 -28 -37 -36 -8 -3 11 -11 20 -17 20 -8 0 -10 -9 -6
-25 5 -20 3 -25 -14 -25 -11 0 -20 -4 -20 -10 0 -5 9 -10 20 -10 13 0 20 -7
20 -20 0 -11 7 -20 16 -20 10 0 14 7 12 22 -2 11 3 23 11 26 9 3 11 -1 6 -17
-5 -15 -2 -21 9 -21 9 0 16 9 16 20 0 13 7 20 20 20 23 0 27 18 6 26 -8 3 -12
13 -9 25 4 14 0 19 -16 19 -15 0 -20 -6 -18 -22z"/>
<path d="M590 3870 c0 -5 11 -10 25 -10 14 0 25 -4 25 -10 0 -5 -9 -10 -20
-10 -11 0 -20 -4 -20 -10 0 -5 13 -10 29 -10 21 0 30 6 35 23 9 36 8 37 -34
37 -22 0 -40 -4 -40 -10z"/>
<path d="M550 3856 c0 -22 11 -46 21 -46 5 0 9 14 9 30 0 20 -5 30 -15 30 -8
0 -15 -6 -15 -14z"/>
<path d="M573 3787 c-29 -5 -53 -14 -53 -20 0 -6 20 -7 53 -3 72 10 97 17 97
27 0 11 -27 10 -97 -4z"/>
<path d="M623 3538 c3 -29 -28 -37 -36 -8 -3 11 -11 20 -17 20 -8 0 -10 -9 -6
-25 5 -20 3 -25 -14 -25 -11 0 -20 -4 -20 -10 0 -5 9 -10 20 -10 13 0 20 -7
20 -20 0 -11 6 -20 13 -20 8 0 12 -17 13 -50 l2 -50 -39 -6 c-52 -9 -51 -28 1
-21 l39 5 -6 -44 c-5 -37 -3 -44 11 -44 12 0 16 10 16 45 0 39 3 45 25 51 14
3 25 10 25 15 0 5 -11 9 -25 9 -14 0 -25 5 -25 10 0 6 8 10 19 10 11 0 21 9
25 23 9 34 8 37 -19 37 -14 0 -25 5 -25 10 0 6 5 10 10 10 6 0 10 9 10 20 0
13 7 20 20 20 23 0 27 18 6 26 -8 3 -12 13 -9 25 4 14 0 19 -16 19 -15 0 -20
-6 -18 -22z m-3 -56 c0 -13 -12 -22 -22 -16 -10 6 -1 24 13 24 5 0 9 -4 9 -8z
m20 -82 c0 -5 -4 -10 -10 -10 -5 0 -10 5 -10 10 0 6 5 10 10 10 6 0 10 -4 10
-10z"/>
<path d="M550 3406 c0 -22 11 -46 21 -46 5 0 9 14 9 30 0 20 -5 30 -15 30 -8
0 -15 -6 -15 -14z"/>
<path d="M623 3088 c3 -29 -28 -37 -36 -8 -3 11 -11 20 -17 20 -8 0 -10 -9 -6
-25 5 -20 3 -25 -14 -25 -11 0 -20 -4 -20 -10 0 -5 9 -10 20 -10 13 0 20 -7
20 -20 0 -11 6 -20 13 -20 8 0 12 -17 13 -50 l2 -50 -39 -6 c-52 -9 -51 -28 1
-21 l39 5 -6 -44 c-5 -37 -3 -44 11 -44 12 0 16 10 16 45 0 39 3 45 25 51 14
3 25 10 25 15 0 5 -11 9 -25 9 -14 0 -25 5 -25 10 0 6 8 10 19 10 11 0 21 9
25 23 9 34 8 37 -19 37 -14 0 -25 5 -25 10 0 6 5 10 10 10 6 0 10 9 10 20 0
13 7 20 20 20 23 0 27 18 6 26 -8 3 -12 13 -9 25 4 14 0 19 -16 19 -15 0 -20
-6 -18 -22z m-3 -56 c0 -13 -12 -22 -22 -16 -10 6 -1 24 13 24 5 0 9 -4 9 -8z
m20 -82 c0 -5 -4 -10 -10 -10 -5 0 -10 5 -10 10 0 6 5 10 10 10 6 0 10 -4 10
-10z"/>
<path d="M753 3043 c-38 -5 -45 -23 -9 -23 38 0 86 12 86 21 0 9 -17 9 -77 2z"/>
<path d="M550 2956 c0 -22 11 -46 21 -46 5 0 9 14 9 30 0 20 -5 30 -15 30 -8
0 -15 -6 -15 -14z"/>
<path d="M623 2638 c3 -29 -28 -37 -36 -8 -3 11 -11 20 -17 20 -8 0 -10 -9 -6
-25 5 -20 3 -25 -14 -25 -11 0 -20 -4 -20 -10 0 -5 9 -10 20 -10 13 0 20 -7
20 -20 0 -11 6 -20 13 -20 8 0 12 -17 13 -50 l2 -50 -39 -6 c-52 -9 -51 -28 1
-21 l39 5 -6 -44 c-5 -37 -3 -44 11 -44 12 0 16 10 16 45 0 39 3 45 25 51 14
3 25 10 25 15 0 5 -11 9 -25 9 -14 0 -25 5 -25 10 0 6 8 10 19 10 11 0 21 9
25 23 9 34 8 37 -19 37 -14 0 -25 5 -25 10 0 6 5 10 10 10 6 0 10 9 10 20 0
13 7 20 20 20 23 0 27 18 6 26 -8 3 -12 13 -9 25 4 14 0 19 -16 19 -15 0 -20
-6 -18 -22z m-3 -56 c0 -13 -12 -22 -22 -16 -10 6 -1 24 13 24 5 0 9 -4 9 -8z
m20 -82 c0 -5 -4 -10 -10 -10 -5 0 -10 5 -10 10 0 6 5 10 10 10 6 0 10 -4 10
-10z"/>
<path d="M762 2623 c2 -23 -1 -29 -19 -31 -31 -5 -29 -22 2 -22 16 0 25 -6 25
-15 0 -22 17 -18 23 5 3 11 12 20 21 20 9 0 16 5 16 10 0 6 -9 10 -20 10 -14
0 -19 6 -17 22 1 15 -4 23 -16 26 -15 3 -18 -2 -15 -25z"/>
<path d="M550 2506 c0 -22 11 -46 21 -46 5 0 9 14 9 30 0 20 -5 30 -15 30 -8
0 -15 -6 -15 -14z"/>
<path d="M623 2188 c3 -29 -28 -37 -36 -8 -3 11 -11 20 -17 20 -8 0 -10 -9 -6
-25 5 -20 3 -25 -14 -25 -11 0 -20 -4 -20 -10 0 -5 9 -10 20 -10 13 0 20 -7
20 -20 0 -11 6 -20 13 -20 8 0 12 -17 13 -50 l2 -50 -39 -6 c-52 -9 -51 -28 1
-21 l39 5 -6 -44 c-5 -37 -3 -44 11 -44 12 0 16 10 16 45 0 39 3 45 25 51 14
3 25 10 25 15 0 5 -11 9 -25 9 -14 0 -25 5 -25 10 0 6 8 10 19 10 11 0 21 9
25 23 9 34 8 37 -19 37 -14 0 -25 5 -25 10 0 6 5 10 10 10 6 0 10 9 10 20 0
13 7 20 20 20 23 0 27 18 6 26 -8 3 -12 13 -9 25 4 14 0 19 -16 19 -15 0 -20
-6 -18 -22z m-3 -56 c0 -13 -12 -22 -22 -16 -10 6 -1 24 13 24 5 0 9 -4 9 -8z
m20 -82 c0 -5 -4 -10 -10 -10 -5 0 -10 5 -10 10 0 6 5 10 10 10 6 0 10 -4 10
-10z"/>
<path d="M762 2173 c2 -23 -1 -29 -19 -31 -31 -5 -29 -22 3 -22 14 0 23 -4 19
-10 -3 -5 -17 -10 -31 -10 -13 0 -24 -5 -24 -11 0 -7 24 -9 78 -4 85 8 87 9
77 25 -4 6 -20 8 -42 4 -26 -5 -34 -4 -29 5 4 6 14 11 22 11 8 0 14 5 14 10 0
6 -9 10 -20 10 -14 0 -19 6 -17 22 1 15 -4 23 -16 26 -15 3 -18 -2 -15 -25z"/>
<path d="M550 2056 c0 -22 11 -46 21 -46 5 0 9 14 9 30 0 20 -5 30 -15 30 -8
0 -15 -6 -15 -14z"/>
<path d="M623 1738 c3 -29 -28 -37 -36 -8 -3 11 -11 20 -17 20 -8 0 -10 -9 -6
-25 5 -20 3 -25 -14 -25 -11 0 -20 -4 -20 -10 0 -5 9 -10 20 -10 13 0 20 -7
20 -20 0 -11 6 -20 13 -20 8 0 12 -17 13 -50 l2 -50 -39 -6 c-52 -9 -51 -28 1
-21 l39 5 -6 -44 c-5 -37 -3 -44 11 -44 12 0 16 10 16 45 0 39 3 45 25 51 14
3 25 10 25 15 0 5 -11 9 -25 9 -14 0 -25 5 -25 10 0 6 8 10 19 10 11 0 21 9
25 23 9 34 8 37 -19 37 -14 0 -25 5 -25 10 0 6 5 10 10 10 6 0 10 9 10 20 0
13 7 20 20 20 23 0 27 18 6 26 -8 3 -12 13 -9 25 4 14 0 19 -16 19 -15 0 -20
-6 -18 -22z m-3 -56 c0 -13 -12 -22 -22 -16 -10 6 -1 24 13 24 5 0 9 -4 9 -8z
m20 -82 c0 -5 -4 -10 -10 -10 -5 0 -10 5 -10 10 0 6 5 10 10 10 6 0 10 -4 10
-10z"/>
<path d="M762 1723 c2 -23 -1 -29 -19 -31 -31 -5 -29 -22 3 -22 14 0 23 -4 19
-10 -3 -5 -17 -10 -31 -10 -13 0 -24 -4 -24 -10 0 -5 6 -10 14 -10 8 0 16 -7
20 -15 8 -21 23 -19 29 5 4 16 14 20 52 20 33 0 45 4 42 13 -2 7 -18 11 -41 9
-25 -2 -36 1 -31 7 3 6 13 11 21 11 8 0 14 5 14 10 0 6 -9 10 -20 10 -14 0
-19 6 -17 22 1 15 -4 23 -16 26 -15 3 -18 -2 -15 -25z"/>
<path d="M550 1606 c0 -22 11 -46 21 -46 5 0 9 14 9 30 0 20 -5 30 -15 30 -8
0 -15 -6 -15 -14z"/>
<path d="M623 1288 c3 -29 -28 -37 -36 -8 -3 11 -11 20 -17 20 -8 0 -10 -9 -6
-25 5 -20 3 -25 -14 -25 -11 0 -20 -4 -20 -10 0 -5 9 -10 20 -10 13 0 20 -7
20 -20 0 -11 6 -20 13 -20 8 0 12 -17 13 -50 l2 -50 -39 -6 c-52 -9 -51 -28 1
-21 l39 5 -6 -44 c-5 -37 -3 -44 11 -44 12 0 16 10 16 45 0 39 3 45 25 51 14
3 25 10 25 15 0 5 -11 9 -25 9 -14 0 -25 5 -25 10 0 6 8 10 19 10 11 0 21 9
25 23 9 34 8 37 -19 37 -14 0 -25 5 -25 10 0 6 5 10 10 10 6 0 10 9 10 20 0
13 7 20 20 20 23 0 27 18 6 26 -8 3 -12 13 -9 25 4 14 0 19 -16 19 -15 0 -20
-6 -18 -22z m-3 -56 c0 -13 -12 -22 -22 -16 -10 6 -1 24 13 24 5 0 9 -4 9 -8z
m20 -82 c0 -5 -4 -10 -10 -10 -5 0 -10 5 -10 10 0 6 5 10 10 10 6 0 10 -4 10
-10z"/>
<path d="M762 1273 c2 -23 -1 -29 -19 -31 -31 -5 -29 -22 3 -22 14 0 23 -4 19
-10 -3 -5 -17 -10 -31 -10 -13 0 -24 -4 -24 -10 0 -5 6 -10 14 -10 8 0 16 -7
20 -15 8 -22 23 -18 31 8 6 19 8 19 12 5 6 -22 22 -23 29 -3 4 8 17 15 31 15
15 0 23 5 20 13 -2 7 -18 11 -41 9 -25 -2 -36 1 -31 7 3 6 13 11 21 11 8 0 14
5 14 10 0 6 -9 10 -20 10 -14 0 -19 6 -17 22 1 15 -4 23 -16 26 -15 3 -18 -2
-15 -25z"/>
<path d="M550 1156 c0 -22 11 -46 21 -46 5 0 9 14 9 30 0 20 -5 30 -15 30 -8
0 -15 -6 -15 -14z"/>
<path d="M623 838 c3 -29 -28 -37 -36 -8 -3 11 -11 20 -17 20 -8 0 -10 -9 -6
-25 5 -20 3 -25 -14 -25 -11 0 -20 -4 -20 -10 0 -5 9 -10 20 -10 13 0 20 -7
20 -20 0 -11 6 -20 13 -20 8 0 12 -17 13 -50 l2 -50 -39 -6 c-52 -9 -51 -28 1
-21 l39 5 -6 -44 c-5 -37 -3 -44 11 -44 12 0 16 10 16 45 0 39 3 45 25 51 14
3 25 10 25 15 0 5 -11 9 -25 9 -14 0 -25 5 -25 10 0 6 8 10 19 10 11 0 21 9
25 23 9 34 8 37 -19 37 -14 0 -25 5 -25 10 0 6 5 10 10 10 6 0 10 9 10 20 0
13 7 20 20 20 23 0 27 18 6 26 -8 3 -12 13 -9 25 4 14 0 19 -16 19 -15 0 -20
-6 -18 -22z m-3 -56 c0 -13 -12 -22 -22 -16 -10 6 -1 24 13 24 5 0 9 -4 9 -8z
m20 -82 c0 -5 -4 -10 -10 -10 -5 0 -10 5 -10 10 0 6 5 10 10 10 6 0 10 -4 10
-10z"/>
<path d="M762 823 c2 -23 -1 -29 -19 -31 -31 -5 -29 -22 3 -22 14 0 23 -4 19
-10 -3 -5 -17 -10 -31 -10 -13 0 -24 -4 -24 -10 0 -5 6 -10 14 -10 8 0 16 -7
20 -15 3 -8 1 -15 -4 -15 -6 0 -10 -5 -10 -11 0 -7 16 -8 48 -3 50 7 65 14 45
21 -21 7 -2 33 24 33 15 0 23 5 20 13 -2 7 -18 11 -41 9 -25 -2 -36 1 -31 7 3
6 13 11 21 11 8 0 14 5 14 10 0 6 -9 10 -20 10 -14 0 -19 6 -17 22 1 15 -4 23
-16 26 -15 3 -18 -2 -15 -25z m24 -110 c-10 -10 -19 5 -10 18 6 11 8 11 12 0
2 -7 1 -15 -2 -18z"/>
<path d="M550 706 c0 -22 11 -46 21 -46 5 0 9 14 9 30 0 20 -5 30 -15 30 -8 0
-15 -6 -15 -14z"/>
<path d="M623 388 c3 -29 -28 -37 -36 -8 -3 11 -11 20 -17 20 -8 0 -10 -9 -6
-25 5 -20 3 -25 -14 -25 -11 0 -20 -4 -20 -10 0 -5 9 -10 20 -10 13 0 20 -7
20 -20 0 -11 6 -20 13 -20 8 0 12 -17 13 -50 l2 -50 -39 -6 c-52 -9 -51 -28 1
-21 l39 5 -6 -44 c-5 -37 -3 -44 11 -44 12 0 16 10 16 45 0 39 3 45 25 51 14
3 25 10 25 15 0 5 -11 9 -25 9 -14 0 -25 5 -25 10 0 6 8 10 19 10 11 0 21 9
25 23 9 34 8 37 -19 37 -14 0 -25 5 -25 10 0 6 5 10 10 10 6 0 10 9 10 20 0
13 7 20 20 20 23 0 27 18 6 26 -8 3 -12 13 -9 25 4 14 0 19 -16 19 -15 0 -20
-6 -18 -22z m-3 -56 c0 -13 -12 -22 -22 -16 -10 6 -1 24 13 24 5 0 9 -4 9 -8z
m20 -82 c0 -5 -4 -10 -10 -10 -5 0 -10 5 -10 10 0 6 5 10 10 10 6 0 10 -4 10
-10z"/>
<path d="M762 373 c2 -23 -1 -29 -19 -31 -31 -5 -29 -22 3 -22 14 0 23 -4 19
-10 -3 -5 -17 -10 -31 -10 -13 0 -24 -4 -24 -10 0 -5 6 -10 14 -10 8 0 16 -7
20 -15 3 -8 1 -15 -4 -15 -6 0 -10 -5 -10 -11 0 -7 16 -8 48 -3 50 7 65 14 45
21 -21 7 -2 33 24 33 15 0 23 5 20 13 -2 7 -18 11 -41 9 -25 -2 -36 1 -31 7 3
6 13 11 21 11 8 0 14 5 14 10 0 6 -9 10 -20 10 -14 0 -19 6 -17 22 1 15 -4 23
-16 26 -15 3 -18 -2 -15 -25z m24 -110 c-10 -10 -19 5 -10 18 6 11 8 11 12 0
2 -7 1 -15 -2 -18z"/>
<path d="M550 256 c0 -22 11 -46 21 -46 5 0 9 14 9 30 0 20 -5 30 -15 30 -8 0
-15 -6 -15 -14z"/>
<path d="M768 223 c-33 -5 -37 -23 -5 -23 33 0 67 11 67 21 0 9 -12 9 -62 2z"/>
</g>
</svg>
