<?xml version="1.0" standalone="no"?>
<!DOCTYPE svg PUBLIC "-//W3C//DTD SVG 20010904//EN"
 "http://www.w3.org/TR/2001/REC-SVG-20010904/DTD/svg10.dtd">
<svg version="1.0" xmlns="http://www.w3.org/2000/svg"
 width="50.000000pt" height="725.000000pt" viewBox="0 0 50.000000 725.000000"
 preserveAspectRatio="xMidYMid meet">
<metadata>
Created by potrace 1.16, written by Peter Selinger 2001-2019
</metadata>
<g transform="translate(0.000000,725.000000) scale(0.100000,-0.100000)"
fill="#000000" stroke="none">
<path d="M170 7135 c0 -14 21 -45 31 -45 18 0 5 45 -13 48 -10 2 -18 1 -18 -3z"/>
<path d="M175 6671 c4 -14 -1 -20 -20 -25 -14 -4 -25 -11 -25 -17 0 -9 71 -5
108 6 19 7 14 25 -7 25 -10 0 -21 7 -25 15 -8 23 -39 19 -31 -4z"/>
<path d="M175 6221 c4 -14 -1 -20 -20 -25 -23 -6 -36 -26 -16 -26 5 0 12 -16
15 -35 10 -49 30 -45 23 4 -5 40 -5 40 31 43 37 3 59 28 24 28 -11 0 -22 7
-26 15 -8 23 -39 19 -31 -4z"/>
<path d="M175 5771 c4 -14 -1 -20 -20 -25 -23 -6 -36 -26 -16 -26 5 0 12 -16
15 -35 10 -50 30 -45 23 5 -4 35 -3 40 15 40 18 0 20 -5 15 -35 -7 -40 4 -45
26 -12 21 32 19 77 -3 77 -10 0 -20 7 -24 15 -8 23 -39 19 -31 -4z"/>
<path d="M175 5320 c4 -13 2 -20 -7 -20 -22 0 -44 -19 -32 -27 6 -5 14 -20 18
-35 6 -26 4 -28 -23 -28 -27 0 -49 -15 -38 -26 7 -7 187 20 187 28 0 4 -11 8
-25 8 -25 0 -34 14 -16 25 5 3 9 19 9 35 -1 22 -6 30 -18 30 -10 0 -20 7 -24
15 -9 24 -39 19 -31 -5z m35 -64 c0 -13 -7 -29 -15 -36 -12 -10 -15 -9 -15 8
0 11 -3 27 -6 36 -4 12 0 16 15 16 15 0 21 -6 21 -24z"/>
<path d="M175 4870 c4 -13 2 -20 -7 -20 -22 0 -44 -19 -32 -27 6 -5 14 -20 18
-35 6 -26 4 -28 -23 -28 -27 0 -49 -15 -38 -26 7 -7 187 20 187 28 0 4 -11 8
-25 8 -25 0 -34 14 -16 25 5 3 9 19 9 35 -1 22 -6 30 -18 30 -10 0 -20 7 -24
15 -9 24 -39 19 -31 -5z m35 -64 c0 -13 -7 -29 -15 -36 -12 -10 -15 -9 -15 8
0 11 -3 27 -6 36 -4 12 0 16 15 16 15 0 21 -6 21 -24z"/>
<path d="M140 4660 c0 -33 4 -60 9 -60 9 0 23 98 15 111 -14 24 -24 3 -24 -51z"/>
<path d="M175 4420 c4 -13 2 -20 -7 -20 -22 0 -44 -19 -32 -27 6 -5 14 -20 18
-35 6 -26 4 -28 -23 -28 -27 0 -49 -15 -38 -26 7 -7 187 20 187 28 0 4 -11 8
-25 8 -25 0 -34 14 -16 25 5 3 9 19 9 35 -1 22 -6 30 -18 30 -10 0 -20 7 -24
15 -9 24 -39 19 -31 -5z m35 -64 c0 -13 -7 -29 -15 -36 -12 -10 -15 -9 -15 8
0 11 -3 27 -6 36 -4 12 0 16 15 16 15 0 21 -6 21 -24z"/>
<path d="M178 4273 l-38 -4 0 -60 c0 -33 4 -59 10 -59 6 0 10 12 10 28 0 51
11 72 36 72 22 0 24 -4 24 -50 0 -38 4 -50 15 -50 13 0 15 11 13 62 -3 68 -3
68 -70 61z"/>
<path d="M175 3970 c4 -13 2 -20 -7 -20 -22 0 -44 -19 -32 -27 6 -5 14 -20 18
-35 6 -26 4 -28 -23 -28 -27 0 -49 -15 -38 -26 7 -7 187 20 187 28 0 4 -11 8
-25 8 -25 0 -34 14 -16 25 5 3 9 19 9 35 -1 22 -6 30 -18 30 -10 0 -20 7 -24
15 -9 24 -39 19 -31 -5z m35 -64 c0 -13 -7 -29 -15 -36 -12 -10 -15 -9 -15 8
0 11 -3 27 -6 36 -4 12 0 16 15 16 15 0 21 -6 21 -24z"/>
<path d="M178 3823 l-38 -4 0 -60 c0 -33 4 -59 10 -59 6 0 10 9 10 20 0 13 10
24 26 30 35 14 34 14 34 -20 0 -20 5 -30 15 -30 13 0 15 11 13 62 -3 68 -3 68
-70 61z m42 -33 c0 -5 -4 -10 -9 -10 -5 0 -16 -3 -25 -6 -11 -4 -16 -1 -16 10
0 10 9 16 25 16 14 0 25 -4 25 -10z"/>
<path d="M175 3520 c4 -13 2 -20 -7 -20 -22 0 -44 -19 -32 -27 6 -5 14 -20 18
-35 6 -26 4 -28 -23 -28 -27 0 -49 -15 -38 -26 7 -7 187 20 187 28 0 4 -11 8
-25 8 -25 0 -34 14 -16 25 5 3 9 19 9 35 -1 22 -6 30 -18 30 -10 0 -20 7 -24
15 -9 24 -39 19 -31 -5z m35 -64 c0 -13 -7 -29 -15 -36 -12 -10 -15 -9 -15 8
0 11 -3 27 -6 36 -4 12 0 16 15 16 15 0 21 -6 21 -24z"/>
<path d="M178 3373 l-38 -4 0 -57 0 -57 55 -1 56 0 -3 60 c-3 66 -3 66 -70 59z
m42 -33 c0 -5 -4 -10 -9 -10 -5 0 -16 -3 -25 -6 -11 -4 -16 -1 -16 10 0 10 9
16 25 16 14 0 25 -4 25 -10z m0 -45 c0 -10 -10 -15 -30 -15 -36 0 -38 7 -7 20
32 13 37 12 37 -5z"/>
<path d="M175 3070 c4 -13 2 -20 -7 -20 -22 0 -44 -19 -32 -27 6 -5 14 -20 18
-35 6 -26 4 -28 -23 -28 -27 0 -49 -15 -38 -26 7 -7 187 20 187 28 0 4 -11 8
-25 8 -25 0 -34 14 -16 25 5 3 9 19 9 35 -1 22 -6 30 -18 30 -10 0 -20 7 -24
15 -9 24 -39 19 -31 -5z m35 -64 c0 -13 -7 -29 -15 -36 -12 -10 -15 -9 -15 8
0 11 -3 27 -6 36 -4 12 0 16 15 16 15 0 21 -6 21 -24z"/>
<path d="M328 3058 c-27 -6 -48 -14 -48 -19 0 -11 14 -11 63 0 22 5 39 5 43 0
10 -16 -7 -69 -22 -69 -19 0 -18 -29 2 -37 22 -8 33 7 49 68 19 72 11 77 -87
57z"/>
<path d="M178 2923 l-38 -4 0 -57 0 -57 55 -1 56 0 -3 60 c-3 66 -3 66 -70 59z
m42 -33 c0 -5 -4 -10 -9 -10 -5 0 -16 -3 -25 -6 -11 -4 -16 -1 -16 10 0 10 9
16 25 16 14 0 25 -4 25 -10z m0 -45 c0 -10 -10 -15 -30 -15 -36 0 -38 7 -7 20
32 13 37 12 37 -5z"/>
<path d="M175 2620 c4 -13 2 -20 -7 -20 -22 0 -44 -19 -32 -27 6 -5 14 -20 18
-35 6 -26 4 -28 -23 -28 -28 0 -49 -15 -38 -26 3 -3 42 0 87 7 69 11 83 11 90
-1 7 -12 14 -10 34 9 14 14 31 39 38 57 21 58 56 52 43 -6 -4 -17 -13 -30 -22
-30 -8 0 -13 -7 -11 -17 2 -10 12 -18 23 -18 19 0 31 23 49 96 8 36 -12 42
-85 28 -57 -11 -81 -29 -39 -29 19 0 19 -2 7 -32 -12 -28 -18 -32 -43 -30 -36
5 -40 8 -27 24 18 22 13 68 -7 68 -10 0 -20 7 -24 15 -9 24 -39 19 -31 -5z
m35 -64 c0 -13 -7 -29 -15 -36 -12 -10 -15 -9 -15 8 0 11 -3 27 -6 36 -4 12 0
16 15 16 15 0 21 -6 21 -24z"/>
<path d="M178 2473 l-38 -4 0 -57 0 -57 55 -1 56 0 -3 60 c-3 66 -3 66 -70 59z
m42 -33 c0 -5 -4 -10 -9 -10 -5 0 -16 -3 -25 -6 -11 -4 -16 -1 -16 10 0 10 9
16 25 16 14 0 25 -4 25 -10z m0 -45 c0 -10 -10 -15 -30 -15 -36 0 -38 7 -7 20
32 13 37 12 37 -5z"/>
<path d="M175 2170 c4 -13 2 -20 -7 -20 -22 0 -44 -19 -32 -27 6 -5 14 -20 18
-35 6 -26 4 -28 -23 -28 -28 0 -49 -15 -38 -26 3 -3 42 0 87 7 69 11 83 11 90
-1 7 -12 14 -10 34 9 14 14 31 39 38 57 21 58 56 52 43 -6 -4 -17 -13 -30 -22
-30 -8 0 -13 -7 -11 -17 2 -10 12 -18 23 -18 19 0 31 23 49 96 8 36 -12 42
-85 28 -57 -11 -81 -29 -39 -29 19 0 19 -2 7 -32 -12 -28 -18 -32 -43 -30 -36
5 -40 8 -27 24 18 22 13 68 -7 68 -10 0 -20 7 -24 15 -9 24 -39 19 -31 -5z
m35 -64 c0 -13 -7 -29 -15 -36 -12 -10 -15 -9 -15 8 0 11 -3 27 -6 36 -4 12 0
16 15 16 15 0 21 -6 21 -24z"/>
<path d="M178 2023 l-38 -4 0 -57 0 -57 55 -1 56 0 -3 60 c-3 66 -3 66 -70 59z
m42 -33 c0 -5 -4 -10 -9 -10 -5 0 -16 -3 -25 -6 -11 -4 -16 -1 -16 10 0 10 9
16 25 16 14 0 25 -4 25 -10z m0 -45 c0 -10 -10 -15 -30 -15 -36 0 -38 7 -7 20
32 13 37 12 37 -5z"/>
<path d="M284 1994 c3 -9 6 -31 6 -50 0 -25 4 -34 16 -34 13 0 15 7 10 31 -3
17 -6 40 -6 50 0 11 -7 19 -16 19 -11 0 -14 -5 -10 -16z"/>
<path d="M175 1720 c4 -13 2 -20 -7 -20 -22 0 -44 -19 -32 -27 6 -5 14 -20 18
-35 6 -26 4 -28 -23 -28 -28 0 -49 -15 -38 -26 3 -3 42 0 87 7 69 11 83 11 90
-1 7 -12 14 -10 34 9 14 14 31 39 38 57 21 58 56 52 43 -6 -4 -17 -13 -30 -22
-30 -8 0 -13 -7 -11 -17 2 -10 12 -18 23 -18 19 0 31 23 49 96 8 36 -12 42
-85 28 -57 -11 -81 -29 -39 -29 19 0 19 -2 7 -32 -12 -28 -18 -32 -43 -30 -36
5 -40 8 -27 24 18 22 13 68 -7 68 -10 0 -20 7 -24 15 -9 24 -39 19 -31 -5z
m35 -64 c0 -13 -7 -29 -15 -36 -12 -10 -15 -9 -15 8 0 11 -3 27 -6 36 -4 12 0
16 15 16 15 0 21 -6 21 -24z"/>
<path d="M178 1573 l-38 -4 0 -57 0 -57 55 -1 56 0 -3 60 c-3 66 -3 66 -70 59z
m42 -33 c0 -5 -4 -10 -9 -10 -5 0 -16 -3 -25 -6 -11 -4 -16 -1 -16 10 0 10 9
16 25 16 14 0 25 -4 25 -10z m0 -45 c0 -10 -10 -15 -30 -15 -36 0 -38 7 -7 20
32 13 37 12 37 -5z"/>
<path d="M350 1560 c0 -5 7 -10 15 -10 10 0 15 -11 15 -35 0 -19 4 -35 10 -35
12 0 42 69 34 81 -7 12 -74 11 -74 -1z"/>
<path d="M284 1544 c3 -9 6 -31 6 -50 0 -24 4 -34 16 -34 13 0 15 7 9 40 -6
33 -4 40 9 40 9 0 16 5 16 10 0 6 -14 10 -31 10 -24 0 -30 -3 -25 -16z"/>
<path d="M175 1270 c4 -13 2 -20 -7 -20 -22 0 -44 -19 -32 -27 6 -5 14 -20 18
-35 6 -26 4 -28 -23 -28 -28 0 -49 -15 -38 -26 3 -3 42 0 87 7 69 11 83 11 90
-1 7 -12 14 -10 34 9 14 14 31 39 38 57 21 58 56 52 43 -6 -4 -17 -13 -30 -22
-30 -8 0 -13 -7 -11 -17 2 -10 12 -18 23 -18 19 0 31 23 49 96 8 36 -12 42
-85 28 -57 -11 -81 -29 -39 -29 19 0 19 -2 7 -32 -12 -28 -18 -32 -43 -30 -36
5 -40 8 -27 24 18 22 13 68 -7 68 -10 0 -20 7 -24 15 -9 24 -39 19 -31 -5z
m35 -64 c0 -13 -7 -29 -15 -36 -12 -10 -15 -9 -15 8 0 11 -3 27 -6 36 -4 12 0
16 15 16 15 0 21 -6 21 -24z"/>
<path d="M178 1123 l-38 -4 0 -57 0 -57 55 -1 56 0 -3 60 c-3 66 -3 66 -70 59z
m42 -33 c0 -5 -4 -10 -9 -10 -5 0 -16 -3 -25 -6 -11 -4 -16 -1 -16 10 0 10 9
16 25 16 14 0 25 -4 25 -10z m0 -45 c0 -10 -10 -15 -30 -15 -36 0 -38 7 -7 20
32 13 37 12 37 -5z"/>
<path d="M350 1111 c0 -6 7 -11 15 -11 9 0 15 -9 15 -25 0 -18 -7 -26 -24 -31
-14 -3 -30 -3 -35 1 -17 10 -13 45 4 45 8 0 15 5 15 10 0 6 -13 10 -29 10 -28
0 -28 -1 -23 -47 2 -27 5 -49 6 -49 0 -1 26 1 58 3 51 5 57 8 61 32 14 67 14
66 -25 69 -22 2 -38 -1 -38 -7z"/>
</g>
</svg>
