<?xml version="1.0" standalone="no"?>
<!DOCTYPE svg PUBLIC "-//W3C//DTD SVG 20010904//EN"
 "http://www.w3.org/TR/2001/REC-SVG-20010904/DTD/svg10.dtd">
<svg version="1.0" xmlns="http://www.w3.org/2000/svg"
 width="50.000000pt" height="725.000000pt" viewBox="0 0 50.000000 725.000000"
 preserveAspectRatio="xMidYMid meet">
<metadata>
Created by potrace 1.16, written by Peter Selinger 2001-2019
</metadata>
<g transform="translate(0.000000,725.000000) scale(0.100000,-0.100000)"
fill="#000000" stroke="none">
<path d="M148 7053 c-10 -2 -18 -9 -18 -14 0 -5 8 -9 18 -9 28 0 62 12 62 21
0 9 -31 10 -62 2z"/>
<path d="M114 6570 c-1 -63 2 -100 9 -100 15 0 77 49 77 62 0 5 -6 8 -12 5
-49 -20 -48 -20 -48 11 0 26 4 31 35 36 47 9 47 31 0 23 -34 -6 -35 -5 -29 20
6 22 -6 42 -26 43 -3 0 -6 -45 -6 -100z"/>
<path d="M297 6245 c-67 -12 -86 -20 -75 -30 10 -10 178 19 175 30 -5 14 -22
14 -100 0z"/>
<path d="M114 6120 c-1 -63 2 -100 9 -100 15 0 77 49 77 62 0 5 -6 8 -12 5
-49 -20 -48 -20 -48 11 0 26 4 31 35 36 47 9 47 31 0 23 -34 -6 -35 -5 -29 20
6 22 -6 42 -26 43 -3 0 -6 -45 -6 -100z"/>
<path d="M300 5795 c-36 -7 -68 -13 -72 -14 -5 -1 -8 -6 -8 -12 0 -7 12 -10
29 -7 27 4 28 3 18 -19 -13 -30 1 -44 19 -18 34 48 45 55 80 55 24 0 34 4 32
13 -6 16 -21 17 -98 2z"/>
<path d="M114 5670 c-1 -63 2 -100 9 -100 15 0 77 49 77 62 0 5 -6 8 -12 5
-49 -20 -48 -20 -48 11 0 26 4 31 35 36 47 9 47 31 0 23 -34 -6 -35 -5 -29 20
6 22 -6 42 -26 43 -3 0 -6 -45 -6 -100z"/>
<path d="M300 5345 c-36 -7 -68 -13 -72 -14 -5 -1 -8 -6 -8 -12 0 -7 12 -10
29 -7 27 4 28 3 18 -19 -5 -13 -15 -23 -21 -23 -7 0 -12 -31 -13 -81 -2 -59 1
-79 10 -76 7 2 13 29 15 71 2 46 8 73 20 85 9 10 25 28 34 39 12 15 29 22 54
22 24 0 34 4 32 13 -6 16 -21 17 -98 2z"/>
<path d="M114 5220 c-1 -63 2 -100 9 -100 15 0 77 49 77 62 0 5 -6 8 -12 5
-49 -20 -48 -20 -48 11 0 26 4 31 35 36 47 9 47 31 0 23 -34 -6 -35 -5 -29 20
6 22 -6 42 -26 43 -3 0 -6 -45 -6 -100z"/>
<path d="M300 4895 c-36 -7 -68 -13 -72 -14 -5 -1 -8 -6 -8 -12 0 -7 12 -10
29 -7 27 4 28 3 18 -19 -5 -13 -15 -23 -21 -23 -7 0 -12 -31 -13 -81 -2 -59 1
-79 10 -76 7 2 13 29 15 69 3 70 10 77 70 78 21 0 22 -4 22 -75 0 -58 3 -75
14 -75 11 0 15 19 18 78 2 42 -1 83 -5 89 -6 9 -23 11 -51 6 -39 -6 -40 -5
-26 13 23 29 32 34 68 34 23 0 32 4 30 13 -6 16 -21 17 -98 2z"/>
<path d="M114 4770 c-1 -63 2 -100 9 -100 15 0 77 49 77 62 0 5 -6 8 -12 5
-49 -20 -48 -20 -48 11 0 26 4 31 35 36 47 9 47 31 0 23 -34 -6 -35 -5 -29 20
6 22 -6 42 -26 43 -3 0 -6 -45 -6 -100z"/>
<path d="M300 4445 c-36 -7 -68 -13 -72 -14 -5 -1 -8 -6 -8 -12 0 -7 12 -10
29 -7 27 4 28 3 18 -19 -5 -13 -15 -23 -21 -23 -7 0 -12 -31 -13 -81 -2 -59 1
-79 10 -76 7 2 13 25 15 50 3 44 5 47 32 47 15 0 35 3 44 6 13 5 16 -3 16 -50
0 -42 4 -56 14 -56 11 0 15 19 18 78 2 42 -1 83 -5 89 -6 9 -23 11 -51 6 -39
-6 -40 -5 -26 13 23 29 32 34 68 34 23 0 32 4 30 13 -6 16 -21 17 -98 2z m50
-94 c0 -8 -47 -21 -76 -21 -20 0 -17 18 4 23 31 8 72 7 72 -2z"/>
<path d="M114 4320 c-1 -63 2 -100 9 -100 15 0 77 49 77 62 0 5 -6 8 -12 5
-49 -20 -48 -20 -48 11 0 26 4 31 35 36 47 9 47 31 0 23 -34 -6 -35 -5 -29 20
6 22 -6 42 -26 43 -3 0 -6 -45 -6 -100z"/>
<path d="M300 3995 c-36 -7 -68 -13 -72 -14 -5 -1 -8 -6 -8 -12 0 -7 12 -10
29 -7 27 4 28 3 18 -19 -5 -13 -15 -23 -21 -23 -7 0 -12 -31 -13 -81 -2 -59 1
-79 10 -76 7 2 13 25 15 50 3 44 5 47 32 47 15 0 35 3 44 6 11 4 16 1 16 -10
0 -12 -10 -16 -40 -16 -22 0 -40 -4 -40 -10 0 -5 18 -10 40 -10 38 0 40 -2 40
-30 0 -19 5 -30 14 -30 11 0 15 19 18 78 2 42 -1 83 -5 89 -6 9 -23 11 -51 6
-39 -6 -40 -5 -26 13 23 29 32 34 68 34 23 0 32 4 30 13 -6 16 -21 17 -98 2z
m50 -94 c0 -8 -47 -21 -76 -21 -20 0 -17 18 4 23 31 8 72 7 72 -2z"/>
<path d="M114 3870 c-1 -63 2 -100 9 -100 15 0 77 49 77 62 0 5 -6 8 -12 5
-49 -20 -48 -20 -48 11 0 26 4 31 35 36 47 9 47 31 0 23 -34 -6 -35 -5 -29 20
6 22 -6 42 -26 43 -3 0 -6 -45 -6 -100z"/>
<path d="M300 3545 c-36 -7 -68 -13 -72 -14 -5 -1 -8 -6 -8 -12 0 -7 12 -10
29 -7 27 4 28 3 18 -19 -5 -13 -15 -23 -21 -23 -7 0 -12 -30 -13 -80 l-2 -79
29 4 c17 3 44 7 60 10 17 2 30 0 30 -5 0 -6 6 -10 14 -10 11 0 15 19 18 78 2
42 -1 83 -5 89 -6 9 -23 11 -51 6 -39 -6 -40 -5 -26 13 23 29 32 34 68 34 23
0 32 4 30 13 -6 16 -21 17 -98 2z m50 -94 c0 -8 -47 -21 -76 -21 -20 0 -17 18
4 23 31 8 72 7 72 -2z m0 -46 c0 -11 -11 -15 -40 -15 -22 0 -40 -4 -40 -10 0
-5 18 -10 40 -10 22 0 40 -4 40 -10 0 -5 -6 -10 -14 -10 -7 0 -28 -3 -45 -6
-30 -6 -31 -5 -31 29 0 34 2 36 38 40 20 2 40 4 45 5 4 1 7 -5 7 -13z"/>
<path d="M114 3420 c-1 -63 2 -100 9 -100 15 0 77 49 77 62 0 5 -6 8 -12 5
-49 -20 -48 -20 -48 11 0 26 4 31 35 36 47 9 47 31 0 23 -34 -6 -35 -5 -29 20
6 22 -6 42 -26 43 -3 0 -6 -45 -6 -100z"/>
<path d="M300 3095 c-36 -7 -68 -13 -72 -14 -5 -1 -8 -6 -8 -12 0 -7 12 -10
29 -7 27 4 28 3 18 -19 -5 -13 -15 -23 -21 -23 -7 0 -12 -31 -13 -81 -2 -69 0
-80 13 -75 18 7 11 -8 -19 -41 -11 -13 -17 -26 -14 -30 10 -9 60 29 72 55 9
21 57 37 63 21 2 -5 10 -9 17 -9 16 0 26 147 12 167 -6 9 -23 11 -51 6 -39 -6
-40 -5 -26 13 23 29 32 34 68 34 23 0 32 4 30 13 -6 16 -21 17 -98 2z m50 -94
c0 -8 -47 -21 -76 -21 -20 0 -17 18 4 23 31 8 72 7 72 -2z m0 -46 c0 -11 -11
-15 -40 -15 -22 0 -40 -4 -40 -10 0 -5 18 -10 40 -10 22 0 40 -4 40 -10 0 -5
-6 -10 -14 -10 -7 0 -28 -3 -45 -6 -30 -6 -31 -5 -31 29 0 34 2 36 38 40 20 2
40 4 45 5 4 1 7 -5 7 -13z"/>
<path d="M114 2970 c-1 -63 2 -100 9 -100 15 0 77 49 77 62 0 5 -6 8 -12 5
-49 -20 -48 -20 -48 11 0 26 4 31 35 36 47 9 47 31 0 23 -34 -6 -35 -5 -29 20
6 22 -6 42 -26 43 -3 0 -6 -45 -6 -100z"/>
<path d="M300 2645 c-36 -7 -68 -13 -72 -14 -5 -1 -8 -6 -8 -12 0 -7 12 -10
29 -7 27 4 28 3 18 -19 -5 -13 -15 -23 -21 -23 -7 0 -12 -31 -13 -81 -2 -69 0
-80 13 -75 18 7 11 -8 -19 -41 -11 -13 -17 -26 -14 -30 10 -9 60 29 72 55 9
21 57 37 63 21 2 -5 10 -9 17 -9 16 0 26 147 12 167 -6 9 -23 11 -51 6 -39 -6
-40 -5 -26 13 23 29 32 34 68 34 23 0 32 4 30 13 -6 16 -21 17 -98 2z m50 -94
c0 -8 -47 -21 -76 -21 -20 0 -17 18 4 23 31 8 72 7 72 -2z m0 -46 c0 -11 -11
-15 -40 -15 -22 0 -40 -4 -40 -10 0 -5 18 -10 40 -10 22 0 40 -4 40 -10 0 -5
-6 -10 -14 -10 -7 0 -28 -3 -45 -6 -30 -6 -31 -5 -31 29 0 34 2 36 38 40 20 2
40 4 45 5 4 1 7 -5 7 -13z"/>
<path d="M114 2520 c-1 -63 2 -100 9 -100 15 0 77 49 77 62 0 5 -6 8 -12 5
-49 -20 -48 -20 -48 11 0 26 4 31 35 36 47 9 47 31 0 23 -34 -6 -35 -5 -29 20
6 22 -6 42 -26 43 -3 0 -6 -45 -6 -100z"/>
<path d="M320 2403 c1 -18 58 -76 68 -69 19 12 14 33 -14 55 -27 21 -54 28
-54 14z"/>
</g>
</svg>
