<?xml version="1.0" standalone="no"?>
<!DOCTYPE svg PUBLIC "-//W3C//DTD SVG 20010904//EN"
 "http://www.w3.org/TR/2001/REC-SVG-20010904/DTD/svg10.dtd">
<svg version="1.0" xmlns="http://www.w3.org/2000/svg"
 width="50.000000pt" height="725.000000pt" viewBox="0 0 50.000000 725.000000"
 preserveAspectRatio="xMidYMid meet">
<metadata>
Created by potrace 1.16, written by Peter Selinger 2001-2019
</metadata>
<g transform="translate(0.000000,725.000000) scale(0.100000,-0.100000)"
fill="#000000" stroke="none">
<path d="M180 7151 c0 -5 -16 -31 -36 -56 -39 -51 -39 -65 -2 -41 34 22 71 75
64 92 -6 15 -26 19 -26 5z"/>
<path d="M180 6701 c0 -5 -16 -31 -36 -56 -39 -51 -39 -65 -2 -41 34 22 71 75
64 92 -6 15 -26 19 -26 5z"/>
<path d="M170 6585 c-12 -19 -30 -40 -41 -45 -19 -11 -26 -30 -10 -30 19 0
102 73 99 88 -6 28 -26 23 -48 -13z"/>
<path d="M180 6251 c0 -5 -16 -31 -36 -56 -39 -51 -39 -65 -2 -41 34 22 71 75
64 92 -6 15 -26 19 -26 5z"/>
<path d="M170 6135 c-12 -19 -30 -40 -41 -45 -19 -11 -26 -30 -10 -30 19 0
102 73 99 88 -6 28 -26 23 -48 -13z"/>
<path d="M185 6061 c-3 -11 -26 -38 -51 -61 -25 -23 -43 -44 -41 -47 16 -16
142 90 133 113 -8 20 -34 17 -41 -5z"/>
<path d="M180 5801 c0 -5 -16 -31 -36 -56 -39 -51 -39 -65 -2 -41 34 22 71 75
64 92 -6 15 -26 19 -26 5z"/>
<path d="M345 5799 c-22 -4 -57 -8 -77 -8 -35 -1 -49 -13 -30 -25 8 -5 174 14
182 21 5 4 -21 23 -30 22 -3 -1 -23 -5 -45 -10z"/>
<path d="M170 5685 c-12 -19 -30 -40 -41 -45 -19 -11 -26 -30 -10 -30 19 0
102 73 99 88 -6 28 -26 23 -48 -13z"/>
<path d="M185 5611 c-3 -11 -26 -38 -51 -61 -25 -23 -43 -44 -41 -47 16 -16
142 90 133 113 -8 20 -34 17 -41 -5z"/>
<path d="M180 5351 c0 -5 -16 -31 -36 -56 -39 -51 -39 -65 -2 -41 34 22 71 75
64 92 -6 15 -26 19 -26 5z"/>
<path d="M345 5349 c-22 -4 -57 -8 -78 -8 -27 -1 -37 -5 -34 -13 2 -7 17 -12
32 -11 24 2 26 -1 21 -22 -8 -33 5 -31 37 5 20 23 36 30 62 30 36 0 47 13 19
24 -9 3 -16 5 -17 5 -1 -1 -20 -5 -42 -10z"/>
<path d="M170 5235 c-12 -19 -30 -40 -41 -45 -19 -11 -26 -30 -10 -30 19 0
102 73 99 88 -6 28 -26 23 -48 -13z"/>
<path d="M185 5161 c-3 -11 -26 -38 -51 -61 -25 -23 -43 -44 -41 -47 16 -16
142 90 133 113 -8 20 -34 17 -41 -5z"/>
<path d="M180 4901 c0 -5 -16 -31 -36 -56 -39 -51 -39 -65 -2 -41 34 22 71 75
64 92 -6 15 -26 19 -26 5z"/>
<path d="M345 4899 c-22 -4 -57 -8 -78 -8 -27 -1 -37 -5 -34 -13 2 -7 16 -12
31 -11 14 1 26 -2 26 -7 0 -18 -13 -40 -24 -40 -16 0 -15 -152 2 -157 9 -4 12
15 12 71 0 73 1 76 37 111 27 26 45 35 70 35 34 0 44 13 17 24 -9 3 -16 5 -17
5 -1 -1 -20 -5 -42 -10z"/>
<path d="M170 4785 c-12 -19 -30 -40 -41 -45 -19 -11 -26 -30 -10 -30 19 0
102 73 99 88 -6 28 -26 23 -48 -13z"/>
<path d="M185 4711 c-3 -11 -26 -38 -51 -61 -25 -23 -43 -44 -41 -47 16 -16
142 90 133 113 -8 20 -34 17 -41 -5z"/>
<path d="M180 4451 c0 -5 -16 -31 -36 -56 -39 -51 -39 -65 -2 -41 34 22 71 75
64 92 -6 15 -26 19 -26 5z"/>
<path d="M345 4449 c-22 -4 -57 -8 -78 -8 -27 -1 -37 -5 -34 -13 2 -7 16 -12
31 -11 14 1 26 -2 26 -7 0 -18 -13 -40 -24 -40 -16 0 -15 -152 2 -157 9 -4 12
14 12 65 l0 70 40 10 c21 5 42 7 45 4 3 -3 5 -39 5 -79 0 -55 3 -74 13 -70 8
2 12 29 12 88 l0 84 -44 -3 c-41 -3 -43 -1 -30 15 22 28 32 33 67 33 34 0 43
14 16 24 -9 3 -16 5 -17 5 -1 -1 -20 -5 -42 -10z"/>
<path d="M170 4335 c-12 -19 -30 -40 -41 -45 -19 -11 -26 -30 -10 -30 19 0
102 73 99 88 -6 28 -26 23 -48 -13z"/>
<path d="M185 4261 c-3 -11 -26 -38 -51 -61 -25 -23 -43 -44 -41 -47 16 -16
142 90 133 113 -8 20 -34 17 -41 -5z"/>
<path d="M180 4001 c0 -5 -16 -31 -36 -56 -39 -51 -39 -65 -2 -41 34 22 71 75
64 92 -6 15 -26 19 -26 5z"/>
<path d="M345 3999 c-22 -4 -57 -8 -78 -8 -27 -1 -37 -5 -34 -13 2 -7 16 -12
31 -11 14 1 26 -2 26 -7 0 -18 -13 -40 -24 -40 -16 0 -15 -152 2 -157 8 -3 12
10 12 46 0 46 2 51 23 51 12 0 32 3 45 6 21 6 22 4 22 -51 0 -41 3 -56 13 -52
8 2 12 29 12 88 l0 84 -44 -3 c-41 -3 -43 -1 -30 15 22 28 32 33 67 33 34 0
43 14 16 24 -9 3 -16 5 -17 5 -1 -1 -20 -5 -42 -10z m24 -103 c-11 -10 -89
-17 -89 -8 0 13 73 31 84 21 5 -5 8 -10 5 -13z"/>
<path d="M170 3885 c-12 -19 -30 -40 -41 -45 -19 -11 -26 -30 -10 -30 19 0
102 73 99 88 -6 28 -26 23 -48 -13z"/>
<path d="M185 3811 c-3 -11 -26 -38 -51 -61 -25 -23 -43 -44 -41 -47 16 -16
142 90 133 113 -8 20 -34 17 -41 -5z"/>
<path d="M180 3551 c0 -5 -16 -31 -36 -56 -39 -51 -39 -65 -2 -41 34 22 71 75
64 92 -6 15 -26 19 -26 5z"/>
<path d="M345 3549 c-22 -4 -57 -8 -78 -8 -27 -1 -37 -5 -34 -13 2 -7 16 -12
31 -11 14 1 26 -2 26 -7 0 -18 -13 -40 -24 -40 -16 0 -15 -152 2 -157 7 -3 12
5 12 20 0 25 20 37 68 37 18 0 22 -5 22 -31 0 -20 4 -29 13 -26 8 2 12 29 12
88 l0 84 -44 -3 c-41 -3 -43 -1 -30 15 22 28 32 33 67 33 34 0 43 14 16 24 -9
3 -16 5 -17 5 -1 -1 -20 -5 -42 -10z m24 -103 c-11 -10 -89 -17 -89 -8 0 13
73 31 84 21 5 -5 8 -10 5 -13z m1 -40 c0 -9 -15 -15 -45 -18 -53 -4 -64 18
-12 25 17 2 38 5 45 5 6 1 12 -4 12 -12z"/>
<path d="M170 3435 c-12 -19 -30 -40 -41 -45 -19 -11 -26 -30 -10 -30 19 0
102 73 99 88 -6 28 -26 23 -48 -13z"/>
<path d="M185 3361 c-3 -11 -26 -38 -51 -61 -25 -23 -43 -44 -41 -47 16 -16
142 90 133 113 -8 20 -34 17 -41 -5z"/>
<path d="M180 3101 c0 -5 -16 -31 -36 -56 -39 -51 -39 -65 -2 -41 34 22 71 75
64 92 -6 15 -26 19 -26 5z"/>
<path d="M345 3099 c-22 -4 -57 -8 -78 -8 -27 -1 -37 -5 -34 -13 2 -7 16 -12
31 -11 14 1 26 -2 26 -7 0 -18 -13 -40 -24 -40 -7 0 -11 -26 -11 -78 l0 -77
45 4 c49 3 60 7 60 22 0 5 -17 7 -40 3 -43 -7 -57 9 -17 20 51 14 67 8 67 -25
0 -20 4 -29 13 -26 8 2 12 29 12 88 l0 84 -44 -3 c-41 -3 -43 -1 -30 15 22 28
32 33 67 33 34 0 43 14 16 24 -9 3 -16 5 -17 5 -1 -1 -20 -5 -42 -10z m24
-103 c-11 -10 -89 -17 -89 -8 0 13 73 31 84 21 5 -5 8 -10 5 -13z m1 -40 c0
-9 -15 -15 -45 -18 -53 -4 -64 18 -12 25 17 2 38 5 45 5 6 1 12 -4 12 -12z"/>
<path d="M170 2985 c-12 -19 -30 -40 -41 -45 -19 -11 -26 -30 -10 -30 19 0
102 73 99 88 -6 28 -26 23 -48 -13z"/>
<path d="M185 2911 c-3 -11 -26 -38 -51 -61 -25 -23 -43 -44 -41 -47 16 -16
142 90 133 113 -8 20 -34 17 -41 -5z"/>
<path d="M180 2651 c0 -5 -16 -31 -36 -56 -39 -51 -39 -65 -2 -41 34 22 71 75
64 92 -6 15 -26 19 -26 5z"/>
<path d="M345 2649 c-22 -4 -57 -8 -78 -8 -27 -1 -37 -5 -34 -13 2 -7 16 -12
31 -11 14 1 26 -2 26 -7 0 -18 -13 -40 -24 -40 -16 0 -15 -148 2 -159 9 -5 6
-13 -13 -31 -28 -27 -33 -45 -9 -36 26 10 73 50 73 62 1 7 10 14 21 17 39 10
22 28 -20 21 -43 -7 -57 9 -17 20 51 14 67 8 67 -25 0 -20 4 -29 13 -26 8 2
12 29 12 88 l0 84 -44 -3 c-41 -3 -43 -1 -30 15 22 28 32 33 67 33 34 0 43 14
16 24 -9 3 -16 5 -17 5 -1 -1 -20 -5 -42 -10z m24 -103 c-11 -10 -89 -17 -89
-8 0 13 73 31 84 21 5 -5 8 -10 5 -13z m1 -40 c0 -9 -15 -15 -45 -18 -53 -4
-64 18 -12 25 17 2 38 5 45 5 6 1 12 -4 12 -12z"/>
<path d="M170 2535 c-12 -19 -30 -40 -41 -45 -19 -11 -26 -30 -10 -30 19 0
102 73 99 88 -6 28 -26 23 -48 -13z"/>
<path d="M185 2461 c-3 -11 -26 -38 -51 -61 -25 -23 -43 -44 -41 -47 16 -16
142 90 133 113 -8 20 -34 17 -41 -5z"/>
<path d="M180 2201 c0 -5 -16 -31 -36 -56 -39 -51 -39 -65 -2 -41 34 22 71 75
64 92 -6 15 -26 19 -26 5z"/>
<path d="M345 2199 c-22 -4 -57 -8 -78 -8 -27 -1 -37 -5 -34 -13 2 -7 16 -12
31 -11 14 1 26 -2 26 -7 0 -18 -13 -40 -24 -40 -16 0 -15 -148 2 -159 9 -5 6
-13 -13 -31 -28 -27 -33 -45 -9 -36 26 10 73 50 73 62 1 7 10 14 21 17 39 10
22 28 -20 21 -43 -7 -57 9 -17 20 51 14 67 8 67 -25 0 -20 4 -29 13 -26 8 2
12 29 12 88 l0 84 -44 -3 c-41 -3 -43 -1 -30 15 22 28 32 33 67 33 34 0 43 14
16 24 -9 3 -16 5 -17 5 -1 -1 -20 -5 -42 -10z m24 -103 c-11 -10 -89 -17 -89
-8 0 13 73 31 84 21 5 -5 8 -10 5 -13z m1 -40 c0 -9 -15 -15 -45 -18 -53 -4
-64 18 -12 25 17 2 38 5 45 5 6 1 12 -4 12 -12z"/>
<path d="M170 2085 c-12 -19 -30 -40 -41 -45 -19 -11 -26 -30 -10 -30 19 0
102 73 99 88 -6 28 -26 23 -48 -13z"/>
<path d="M185 2011 c-3 -11 -26 -38 -51 -61 -25 -23 -43 -44 -41 -47 16 -16
142 90 133 113 -8 20 -34 17 -41 -5z"/>
<path d="M350 1954 c0 -4 9 -22 21 -40 24 -40 49 -45 49 -9 0 17 -9 29 -30 40
-32 16 -40 18 -40 9z"/>
</g>
</svg>
