<?xml version="1.0" standalone="no"?>
<!DOCTYPE svg PUBLIC "-//W3C//DTD SVG 20010904//EN"
 "http://www.w3.org/TR/2001/REC-SVG-20010904/DTD/svg10.dtd">
<svg version="1.0" xmlns="http://www.w3.org/2000/svg"
 width="95.000000pt" height="725.000000pt" viewBox="0 0 95.000000 725.000000"
 preserveAspectRatio="xMidYMid meet">
<metadata>
Created by potrace 1.16, written by Peter Selinger 2001-2019
</metadata>
<g transform="translate(0.000000,725.000000) scale(0.100000,-0.100000)"
fill="#000000" stroke="none">
<path d="M224 7125 c5 -19 2 -25 -9 -25 -12 0 -15 6 -10 20 5 16 2 20 -14 20
-16 0 -21 -6 -21 -25 0 -16 -6 -25 -16 -25 -11 0 -14 6 -9 20 5 16 2 20 -15
20 -16 0 -20 -4 -16 -16 3 -9 9 -33 12 -55 6 -33 10 -38 25 -34 11 4 19 2 19
-3 0 -11 -34 -22 -67 -22 -13 0 -23 -5 -23 -11 0 -7 15 -10 39 -7 l39 3 -31
-42 c-37 -53 -27 -71 15 -24 l30 33 -4 -47 c-2 -32 1 -49 10 -52 8 -3 12 10
12 48 0 50 1 51 18 36 10 -10 24 -17 31 -17 20 0 8 34 -17 45 -30 13 -28 35 3
35 14 0 25 5 25 10 0 6 -11 10 -25 10 -14 0 -25 5 -25 11 0 6 8 8 19 4 16 -5
21 2 31 44 13 53 8 71 -17 71 -11 0 -14 -6 -9 -25z m-4 -55 c0 -5 -4 -10 -10
-10 -5 0 -10 5 -10 10 0 6 5 10 10 10 6 0 10 -4 10 -10z m-50 -10 c0 -5 -4
-10 -10 -10 -5 0 -10 5 -10 10 0 6 5 10 10 10 6 0 10 -4 10 -10z"/>
<path d="M321 7141 c-35 -6 -56 -31 -27 -31 20 0 21 -29 1 -36 -18 -7 -22
-150 -4 -156 7 -2 0 -17 -15 -35 -28 -33 -32 -43 -16 -43 16 0 80 61 80 76 0
8 9 14 20 14 22 0 27 -16 8 -22 -15 -5 30 -68 49 -68 21 0 15 37 -8 53 -11 8
-16 16 -11 18 6 2 12 41 14 86 3 89 -2 98 -48 87 -13 -3 -24 -2 -24 2 0 19 16
32 48 39 17 3 32 11 32 16 0 10 -45 10 -99 0z m59 -90 c0 -9 -60 -24 -68 -17
-2 3 -1 9 3 15 7 13 65 15 65 2z m0 -40 c0 -11 -25 -21 -56 -21 -33 0 -30 18
4 23 48 7 52 7 52 -2z m0 -51 c0 -5 -18 -10 -40 -10 -22 0 -40 5 -40 10 0 6
18 10 40 10 22 0 40 -4 40 -10z"/>
<path d="M564 7114 c3 -9 9 -33 12 -55 7 -43 24 -53 24 -15 0 46 -13 86 -27
86 -10 0 -13 -6 -9 -16z"/>
<path d="M672 6663 c-1 -21 -3 -47 -4 -57 -2 -10 2 -21 8 -23 14 -5 39 90 29
107 -14 23 -32 9 -33 -27z"/>
<path d="M620 6680 c0 -5 9 -10 20 -10 11 0 20 5 20 10 0 6 -9 10 -20 10 -11
0 -20 -4 -20 -10z"/>
<path d="M564 6664 c3 -9 9 -33 12 -55 10 -58 25 -47 22 16 -2 46 -5 55 -21
55 -13 0 -17 -5 -13 -16z"/>
<path d="M674 6225 c5 -18 2 -25 -8 -25 -7 0 -28 -3 -46 -6 -30 -6 -32 -5 -25
15 5 17 2 21 -15 21 -16 0 -20 -4 -16 -16 3 -9 9 -33 12 -55 7 -43 24 -53 24
-14 0 14 6 25 13 25 6 0 22 3 35 6 19 5 22 3 20 -16 -6 -46 20 -30 32 19 13
53 8 71 -17 71 -11 0 -14 -6 -9 -25z"/>
<path d="M620 6230 c0 -5 9 -10 20 -10 11 0 20 5 20 10 0 6 -9 10 -20 10 -11
0 -20 -4 -20 -10z"/>
<path d="M674 5775 c5 -18 2 -25 -8 -25 -7 0 -28 -3 -46 -6 -30 -6 -32 -5 -25
15 5 17 2 21 -15 21 -16 0 -20 -4 -16 -16 3 -9 9 -33 12 -55 6 -35 9 -39 28
-32 11 4 35 7 53 7 30 0 33 2 43 47 13 51 8 69 -17 69 -11 0 -14 -6 -9 -25z
m-4 -55 c0 -5 -6 -10 -12 -10 -7 0 -23 -3 -35 -6 -13 -4 -23 -2 -23 4 0 9 20
17 58 21 6 0 12 -3 12 -9z"/>
<path d="M620 5780 c0 -5 9 -10 20 -10 11 0 20 5 20 10 0 6 -9 10 -20 10 -11
0 -20 -4 -20 -10z"/>
<path d="M674 5325 c5 -18 2 -25 -8 -25 -7 0 -28 -3 -46 -6 -30 -6 -32 -5 -25
15 5 17 2 21 -15 21 -16 0 -20 -4 -16 -16 3 -9 9 -33 12 -55 6 -35 9 -39 28
-32 11 4 35 7 53 7 30 0 33 2 43 47 13 51 8 69 -17 69 -11 0 -14 -6 -9 -25z
m-4 -55 c0 -5 -6 -10 -12 -10 -7 0 -23 -3 -35 -6 -13 -4 -23 -2 -23 4 0 9 20
17 58 21 6 0 12 -3 12 -9z"/>
<path d="M620 5330 c0 -5 9 -10 20 -10 11 0 20 5 20 10 0 6 -9 10 -20 10 -11
0 -20 -4 -20 -10z"/>
<path d="M593 5207 c-60 -9 -87 -27 -42 -27 40 0 149 23 149 32 0 10 -24 9
-107 -5z"/>
<path d="M674 4875 c5 -19 2 -25 -9 -25 -12 0 -15 6 -10 20 5 16 2 20 -14 20
-16 0 -21 -6 -21 -25 0 -16 -6 -25 -16 -25 -11 0 -14 6 -9 20 5 16 2 20 -15
20 -16 0 -20 -4 -16 -16 3 -9 9 -33 12 -55 6 -33 10 -38 25 -34 11 4 19 2 19
-3 0 -11 -34 -22 -67 -22 -13 0 -23 -5 -23 -11 0 -8 15 -10 46 -6 l46 5 -4
-66 c-2 -46 1 -66 10 -69 9 -4 12 12 12 55 0 76 6 92 36 92 13 0 24 5 24 10 0
6 -11 10 -25 10 -14 0 -25 5 -25 11 0 6 8 8 19 4 16 -5 21 2 31 44 13 53 8 71
-17 71 -11 0 -14 -6 -9 -25z m-4 -55 c0 -5 -4 -10 -10 -10 -5 0 -10 5 -10 10
0 6 5 10 10 10 6 0 10 -4 10 -10z m-50 -10 c0 -5 -4 -10 -10 -10 -5 0 -10 5
-10 10 0 6 5 10 10 10 6 0 10 -4 10 -10z"/>
<path d="M674 4425 c5 -19 2 -25 -9 -25 -12 0 -15 6 -10 20 5 16 2 20 -14 20
-16 0 -21 -6 -21 -25 0 -16 -6 -25 -16 -25 -11 0 -14 6 -9 20 5 16 2 20 -15
20 -16 0 -20 -4 -16 -16 3 -9 9 -33 12 -55 6 -33 10 -38 25 -34 11 4 19 2 19
-3 0 -11 -34 -22 -67 -22 -13 0 -23 -5 -23 -11 0 -7 15 -10 39 -7 l39 3 -31
-42 c-37 -53 -27 -71 15 -24 l30 33 -4 -47 c-2 -32 1 -49 10 -52 9 -3 12 12
12 55 0 76 6 92 36 92 13 0 24 5 24 10 0 6 -11 10 -25 10 -14 0 -25 5 -25 11
0 6 8 8 19 4 16 -5 21 2 31 44 13 53 8 71 -17 71 -11 0 -14 -6 -9 -25z m-4
-55 c0 -5 -4 -10 -10 -10 -5 0 -10 5 -10 10 0 6 5 10 10 10 6 0 10 -4 10 -10z
m-50 -10 c0 -5 -4 -10 -10 -10 -5 0 -10 5 -10 10 0 6 5 10 10 10 6 0 10 -4 10
-10z"/>
<path d="M674 3975 c5 -19 2 -25 -9 -25 -12 0 -15 6 -10 20 5 16 2 20 -14 20
-16 0 -21 -6 -21 -25 0 -16 -6 -25 -16 -25 -11 0 -14 6 -9 20 5 16 2 20 -15
20 -16 0 -20 -4 -16 -16 3 -9 9 -33 12 -55 6 -33 10 -38 25 -34 11 4 19 2 19
-3 0 -11 -34 -22 -67 -22 -13 0 -23 -5 -23 -11 0 -7 15 -10 39 -7 l39 3 -31
-42 c-37 -53 -27 -71 15 -24 l30 33 -4 -47 c-2 -32 1 -49 10 -52 8 -3 12 10
12 48 0 50 1 51 18 36 10 -10 24 -17 31 -17 20 0 8 34 -17 45 -30 13 -28 35 3
35 14 0 25 5 25 10 0 6 -11 10 -25 10 -14 0 -25 5 -25 11 0 6 8 8 19 4 16 -5
21 2 31 44 13 53 8 71 -17 71 -11 0 -14 -6 -9 -25z m-4 -55 c0 -5 -4 -10 -10
-10 -5 0 -10 5 -10 10 0 6 5 10 10 10 6 0 10 -4 10 -10z m-50 -10 c0 -5 -4
-10 -10 -10 -5 0 -10 5 -10 10 0 6 5 10 10 10 6 0 10 -4 10 -10z"/>
<path d="M674 3525 c5 -19 2 -25 -9 -25 -12 0 -15 6 -10 20 5 16 2 20 -14 20
-16 0 -21 -6 -21 -25 0 -16 -6 -25 -16 -25 -11 0 -14 6 -9 20 5 16 2 20 -15
20 -16 0 -20 -4 -16 -16 3 -9 9 -33 12 -55 6 -33 10 -38 25 -34 11 4 19 2 19
-3 0 -11 -34 -22 -67 -22 -13 0 -23 -5 -23 -11 0 -7 15 -10 39 -7 l39 3 -31
-42 c-37 -53 -27 -71 15 -24 l30 33 -4 -47 c-2 -32 1 -49 10 -52 8 -3 12 10
12 48 0 50 1 51 18 36 10 -10 24 -17 31 -17 20 0 8 34 -17 45 -30 13 -28 35 3
35 14 0 25 5 25 10 0 6 -11 10 -25 10 -14 0 -25 5 -25 11 0 6 8 8 19 4 16 -5
21 2 31 44 13 53 8 71 -17 71 -11 0 -14 -6 -9 -25z m-4 -55 c0 -5 -4 -10 -10
-10 -5 0 -10 5 -10 10 0 6 5 10 10 10 6 0 10 -4 10 -10z m-50 -10 c0 -5 -4
-10 -10 -10 -5 0 -10 5 -10 10 0 6 5 10 10 10 6 0 10 -4 10 -10z"/>
<path d="M771 3541 c-49 -9 -55 -34 -7 -27 20 3 52 8 71 11 19 3 35 10 35 15
0 11 -44 11 -99 1z"/>
<path d="M674 3075 c5 -19 2 -25 -9 -25 -12 0 -15 6 -10 20 5 16 2 20 -14 20
-16 0 -21 -6 -21 -25 0 -16 -6 -25 -16 -25 -11 0 -14 6 -9 20 5 16 2 20 -15
20 -16 0 -20 -4 -16 -16 3 -9 9 -33 12 -55 6 -33 10 -38 25 -34 11 4 19 2 19
-3 0 -11 -34 -22 -67 -22 -13 0 -23 -5 -23 -11 0 -7 15 -10 39 -7 l39 3 -31
-42 c-37 -53 -27 -71 15 -24 l30 33 -4 -47 c-2 -32 1 -49 10 -52 8 -3 12 10
12 48 0 50 1 51 18 36 10 -10 24 -17 31 -17 20 0 8 34 -17 45 -30 13 -28 35 3
35 14 0 25 5 25 10 0 6 -11 10 -25 10 -14 0 -25 5 -25 11 0 6 8 8 19 4 16 -5
21 2 31 44 13 53 8 71 -17 71 -11 0 -14 -6 -9 -25z m-4 -55 c0 -5 -4 -10 -10
-10 -5 0 -10 5 -10 10 0 6 5 10 10 10 6 0 10 -4 10 -10z m-50 -10 c0 -5 -4
-10 -10 -10 -5 0 -10 5 -10 10 0 6 5 10 10 10 6 0 10 -4 10 -10z"/>
<path d="M771 3091 c-35 -6 -56 -31 -26 -31 13 0 16 -6 11 -25 -9 -35 11 -32
32 4 11 20 27 32 49 36 18 3 33 10 33 15 0 11 -44 11 -99 1z"/>
<path d="M674 2625 c5 -19 2 -25 -9 -25 -12 0 -15 6 -10 20 5 16 2 20 -14 20
-16 0 -21 -6 -21 -25 0 -16 -6 -25 -16 -25 -11 0 -14 6 -9 20 5 16 2 20 -15
20 -16 0 -20 -4 -16 -16 3 -9 9 -33 12 -55 6 -33 10 -38 25 -34 11 4 19 2 19
-3 0 -11 -34 -22 -67 -22 -13 0 -23 -5 -23 -11 0 -7 15 -10 39 -7 l39 3 -31
-42 c-37 -53 -27 -71 15 -24 l30 33 -4 -47 c-2 -32 1 -49 10 -52 8 -3 12 10
12 48 0 50 1 51 18 36 10 -10 24 -17 31 -17 20 0 8 34 -17 45 -30 13 -28 35 3
35 14 0 25 5 25 10 0 6 -11 10 -25 10 -14 0 -25 5 -25 11 0 6 8 8 19 4 16 -5
21 2 31 44 13 53 8 71 -17 71 -11 0 -14 -6 -9 -25z m-4 -55 c0 -5 -4 -10 -10
-10 -5 0 -10 5 -10 10 0 6 5 10 10 10 6 0 10 -4 10 -10z m-50 -10 c0 -5 -4
-10 -10 -10 -5 0 -10 5 -10 10 0 6 5 10 10 10 6 0 10 -4 10 -10z"/>
<path d="M771 2641 c-35 -6 -56 -31 -27 -31 20 0 21 -29 1 -36 -11 -5 -15 -24
-15 -80 0 -90 15 -98 22 -11 7 79 39 132 86 142 17 3 32 10 32 15 0 11 -44 11
-99 1z"/>
<path d="M674 2175 c5 -19 2 -25 -9 -25 -12 0 -15 6 -10 20 5 16 2 20 -14 20
-16 0 -21 -6 -21 -25 0 -16 -6 -25 -16 -25 -11 0 -14 6 -9 20 5 16 2 20 -15
20 -16 0 -20 -4 -16 -16 3 -9 9 -33 12 -55 6 -33 10 -38 25 -34 11 4 19 2 19
-3 0 -11 -34 -22 -67 -22 -13 0 -23 -5 -23 -11 0 -7 15 -10 39 -7 l39 3 -31
-42 c-37 -53 -27 -71 15 -24 l30 33 -4 -47 c-2 -32 1 -49 10 -52 8 -3 12 10
12 48 0 50 1 51 18 36 10 -10 24 -17 31 -17 20 0 8 34 -17 45 -30 13 -28 35 3
35 14 0 25 5 25 10 0 6 -11 10 -25 10 -14 0 -25 5 -25 11 0 6 8 8 19 4 16 -5
21 2 31 44 13 53 8 71 -17 71 -11 0 -14 -6 -9 -25z m-4 -55 c0 -5 -4 -10 -10
-10 -5 0 -10 5 -10 10 0 6 5 10 10 10 6 0 10 -4 10 -10z m-50 -10 c0 -5 -4
-10 -10 -10 -5 0 -10 5 -10 10 0 6 5 10 10 10 6 0 10 -4 10 -10z"/>
<path d="M771 2191 c-35 -6 -56 -31 -27 -31 20 0 21 -29 1 -36 -11 -5 -15 -24
-15 -80 0 -43 4 -74 10 -74 6 0 10 20 10 44 0 69 14 96 50 96 l30 0 0 -75 c0
-58 3 -75 14 -75 11 0 15 19 18 83 2 47 -1 85 -7 89 -5 5 -22 5 -37 2 -16 -3
-28 -2 -28 3 0 18 17 31 48 38 17 3 32 11 32 16 0 10 -45 10 -99 0z"/>
<path d="M674 1725 c5 -19 2 -25 -9 -25 -12 0 -15 6 -10 20 5 16 2 20 -14 20
-16 0 -21 -6 -21 -25 0 -16 -6 -25 -16 -25 -11 0 -14 6 -9 20 5 16 2 20 -15
20 -16 0 -20 -4 -16 -16 3 -9 9 -33 12 -55 6 -33 10 -38 25 -34 11 4 19 2 19
-3 0 -11 -34 -22 -67 -22 -13 0 -23 -5 -23 -11 0 -7 15 -10 39 -7 l39 3 -31
-42 c-37 -53 -27 -71 15 -24 l30 33 -4 -47 c-2 -32 1 -49 10 -52 8 -3 12 10
12 48 0 50 1 51 18 36 10 -10 24 -17 31 -17 20 0 8 34 -17 45 -30 13 -28 35 3
35 14 0 25 5 25 10 0 6 -11 10 -25 10 -14 0 -25 5 -25 11 0 6 8 8 19 4 16 -5
21 2 31 44 13 53 8 71 -17 71 -11 0 -14 -6 -9 -25z m-4 -55 c0 -5 -4 -10 -10
-10 -5 0 -10 5 -10 10 0 6 5 10 10 10 6 0 10 -4 10 -10z m-50 -10 c0 -5 -4
-10 -10 -10 -5 0 -10 5 -10 10 0 6 5 10 10 10 6 0 10 -4 10 -10z"/>
<path d="M771 1741 c-35 -6 -56 -31 -27 -31 20 0 21 -29 1 -36 -11 -5 -15 -24
-15 -80 0 -43 4 -74 10 -74 6 0 10 20 10 45 0 36 3 45 18 45 9 0 27 3 40 6 21
6 22 4 22 -50 0 -42 4 -56 14 -56 11 0 15 19 18 83 2 47 -1 85 -7 89 -5 5 -22
5 -37 2 -16 -3 -28 -2 -28 3 0 18 17 31 48 38 17 3 32 11 32 16 0 10 -45 10
-99 0z m59 -90 c0 -9 -60 -24 -68 -17 -2 3 -1 9 3 15 7 13 65 15 65 2z"/>
<path d="M674 1275 c5 -19 2 -25 -9 -25 -12 0 -15 6 -10 20 5 16 2 20 -14 20
-16 0 -21 -6 -21 -25 0 -16 -6 -25 -16 -25 -11 0 -14 6 -9 20 5 16 2 20 -15
20 -16 0 -20 -4 -16 -16 3 -9 9 -33 12 -55 6 -33 10 -38 25 -34 11 4 19 2 19
-3 0 -11 -34 -22 -67 -22 -13 0 -23 -5 -23 -11 0 -7 15 -10 39 -7 l39 3 -31
-42 c-37 -53 -27 -71 15 -24 l30 33 -4 -47 c-2 -32 1 -49 10 -52 8 -3 12 10
12 48 0 50 1 51 18 36 10 -10 24 -17 31 -17 20 0 8 34 -17 45 -30 13 -28 35 3
35 14 0 25 5 25 10 0 6 -11 10 -25 10 -14 0 -25 5 -25 11 0 6 8 8 19 4 16 -5
21 2 31 44 13 53 8 71 -17 71 -11 0 -14 -6 -9 -25z m-4 -55 c0 -5 -4 -10 -10
-10 -5 0 -10 5 -10 10 0 6 5 10 10 10 6 0 10 -4 10 -10z m-50 -10 c0 -5 -4
-10 -10 -10 -5 0 -10 5 -10 10 0 6 5 10 10 10 6 0 10 -4 10 -10z"/>
<path d="M771 1291 c-35 -6 -56 -31 -27 -31 20 0 21 -29 1 -36 -11 -5 -15 -24
-15 -80 0 -43 4 -74 10 -74 6 0 10 11 10 25 0 23 4 25 40 25 38 0 40 -2 40
-30 0 -19 5 -30 14 -30 11 0 15 19 18 83 2 47 -1 85 -7 89 -5 5 -22 5 -37 2
-16 -3 -28 -2 -28 3 0 18 17 31 48 38 17 3 32 11 32 16 0 10 -45 10 -99 0z
m59 -90 c0 -9 -60 -24 -68 -17 -2 3 -1 9 3 15 7 13 65 15 65 2z m0 -40 c0 -11
-25 -21 -56 -21 -33 0 -30 18 4 23 48 7 52 7 52 -2z"/>
<path d="M674 825 c5 -19 2 -25 -9 -25 -12 0 -15 6 -10 20 5 16 2 20 -14 20
-16 0 -21 -6 -21 -25 0 -16 -6 -25 -16 -25 -11 0 -14 6 -9 20 5 16 2 20 -15
20 -16 0 -20 -4 -16 -16 3 -9 9 -33 12 -55 6 -33 10 -38 25 -34 11 4 19 2 19
-3 0 -11 -34 -22 -67 -22 -13 0 -23 -5 -23 -11 0 -7 15 -10 39 -7 l39 3 -31
-42 c-37 -53 -27 -71 15 -24 l30 33 -4 -47 c-2 -32 1 -49 10 -52 8 -3 12 10
12 48 0 50 1 51 18 36 10 -10 24 -17 31 -17 20 0 8 34 -17 45 -30 13 -28 35 3
35 14 0 25 5 25 10 0 6 -11 10 -25 10 -14 0 -25 5 -25 11 0 6 8 8 19 4 16 -5
21 2 31 44 13 53 8 71 -17 71 -11 0 -14 -6 -9 -25z m-4 -55 c0 -5 -4 -10 -10
-10 -5 0 -10 5 -10 10 0 6 5 10 10 10 6 0 10 -4 10 -10z m-50 -10 c0 -5 -4
-10 -10 -10 -5 0 -10 5 -10 10 0 6 5 10 10 10 6 0 10 -4 10 -10z"/>
<path d="M771 841 c-35 -6 -56 -31 -27 -31 20 0 21 -29 1 -36 -11 -5 -15 -23
-15 -79 l0 -72 50 5 c33 3 50 1 50 -7 0 -6 6 -11 14 -11 11 0 15 19 18 83 2
47 -1 85 -7 89 -5 5 -22 5 -37 2 -16 -3 -28 -2 -28 3 0 18 17 31 48 38 17 3
32 11 32 16 0 10 -45 10 -99 0z m59 -90 c0 -9 -60 -24 -68 -17 -2 3 -1 9 3 15
7 13 65 15 65 2z m0 -40 c0 -11 -25 -21 -56 -21 -33 0 -30 18 4 23 48 7 52 7
52 -2z m0 -51 c0 -5 -18 -10 -40 -10 -22 0 -40 5 -40 10 0 6 18 10 40 10 22 0
40 -4 40 -10z"/>
<path d="M674 375 c5 -19 2 -25 -9 -25 -12 0 -15 6 -10 20 5 16 2 20 -14 20
-16 0 -21 -6 -21 -25 0 -16 -6 -25 -16 -25 -11 0 -14 6 -9 20 5 16 2 20 -15
20 -16 0 -20 -4 -16 -16 3 -9 9 -33 12 -55 6 -33 10 -38 25 -34 11 4 19 2 19
-3 0 -11 -34 -22 -67 -22 -13 0 -23 -5 -23 -11 0 -7 15 -10 39 -7 l39 3 -31
-42 c-37 -53 -27 -71 15 -24 l30 33 -4 -47 c-2 -32 1 -49 10 -52 8 -3 12 10
12 48 0 50 1 51 18 36 10 -10 24 -17 31 -17 20 0 8 34 -17 45 -30 13 -28 35 3
35 14 0 25 5 25 10 0 6 -11 10 -25 10 -14 0 -25 5 -25 11 0 6 8 8 19 4 16 -5
21 2 31 44 13 53 8 71 -17 71 -11 0 -14 -6 -9 -25z m-4 -55 c0 -5 -4 -10 -10
-10 -5 0 -10 5 -10 10 0 6 5 10 10 10 6 0 10 -4 10 -10z m-50 -10 c0 -5 -4
-10 -10 -10 -5 0 -10 5 -10 10 0 6 5 10 10 10 6 0 10 -4 10 -10z"/>
<path d="M771 391 c-35 -6 -56 -31 -27 -31 20 0 21 -29 1 -36 -18 -7 -22 -150
-4 -156 7 -2 0 -17 -15 -35 -28 -33 -32 -43 -16 -43 16 0 80 61 80 76 0 8 9
14 20 14 11 0 20 -4 20 -10 0 -5 6 -10 14 -10 11 0 15 19 18 83 2 47 -1 85 -7
89 -5 5 -22 5 -37 2 -16 -3 -28 -2 -28 3 0 18 17 31 48 38 17 3 32 11 32 16 0
10 -45 10 -99 0z m59 -90 c0 -9 -60 -24 -68 -17 -2 3 -1 9 3 15 7 13 65 15 65
2z m0 -40 c0 -11 -25 -21 -56 -21 -33 0 -30 18 4 23 48 7 52 7 52 -2z m0 -51
c0 -5 -18 -10 -40 -10 -22 0 -40 5 -40 10 0 6 18 10 40 10 22 0 40 -4 40 -10z"/>
</g>
</svg>
