<?xml version="1.0" standalone="no"?>
<!DOCTYPE svg PUBLIC "-//W3C//DTD SVG 20010904//EN"
 "http://www.w3.org/TR/2001/REC-SVG-20010904/DTD/svg10.dtd">
<svg version="1.0" xmlns="http://www.w3.org/2000/svg"
 width="95.000000pt" height="725.000000pt" viewBox="0 0 95.000000 725.000000"
 preserveAspectRatio="xMidYMid meet">
<metadata>
Created by potrace 1.16, written by Peter Selinger 2001-2019
</metadata>
<g transform="translate(0.000000,725.000000) scale(0.100000,-0.100000)"
fill="#000000" stroke="none">
<path d="M156 7148 c-3 -7 -7 -26 -11 -43 -3 -16 -22 -54 -41 -83 -38 -58 -38
-79 0 -43 l24 23 -5 -81 c-5 -68 -3 -81 9 -81 8 0 23 9 34 21 12 14 25 18 41
14 18 -4 23 -1 23 15 0 30 -25 35 -51 11 -29 -27 -39 -26 -39 3 0 24 16 36 50
36 13 0 22 11 29 38 17 61 16 65 -29 60 -47 -4 -54 7 -10 16 17 3 30 11 30 17
0 6 -9 9 -20 6 -21 -5 -27 7 -9 19 6 3 16 1 22 -5 16 -16 27 -14 27 5 0 9 -9
18 -19 21 -11 3 -21 13 -24 24 -6 21 -26 26 -31 7z m39 -138 c-3 -5 -15 -10
-26 -10 -11 0 -17 5 -14 10 3 6 15 10 26 10 11 0 17 -4 14 -10z m-5 -40 c0 -5
-9 -10 -20 -10 -11 0 -20 5 -20 10 0 6 9 10 20 10 11 0 20 -4 20 -10z"/>
<path d="M300 7061 l0 -101 -25 0 c-14 0 -25 -5 -25 -11 0 -8 14 -10 45 -6 25
4 45 3 45 -2 0 -14 -69 -71 -85 -71 -8 0 -15 -5 -15 -11 0 -14 45 -4 77 16 12
8 34 31 49 51 23 29 25 37 13 45 -8 5 -24 7 -36 4 -13 -3 -23 -1 -23 4 0 5 16
11 36 13 34 3 38 6 50 47 7 25 11 48 8 53 -7 12 -64 10 -64 -2 0 -5 7 -10 15
-10 8 0 15 -4 15 -10 0 -5 -7 -10 -15 -10 -8 0 -15 -4 -15 -10 0 -5 5 -10 10
-10 6 0 10 -7 10 -15 0 -9 -9 -15 -21 -15 -19 0 -21 5 -17 72 2 63 1 73 -15
76 -15 3 -17 -7 -17 -97z"/>
<path d="M606 7148 c-3 -7 -7 -26 -11 -43 -3 -16 -22 -54 -41 -83 -20 -30 -33
-56 -30 -60 20 -20 125 150 113 183 -8 18 -26 20 -31 3z"/>
<path d="M247 7089 c-10 -11 -16 -28 -13 -37 2 -9 7 -29 10 -44 8 -35 30 -37
24 -3 -4 17 -1 25 8 25 8 0 14 5 14 10 0 6 -7 10 -15 10 -8 0 -15 4 -15 9 0 5
7 14 15 21 8 7 15 16 15 21 0 15 -24 8 -43 -12z"/>
<path d="M156 6698 c-3 -7 -7 -26 -11 -43 -3 -16 -22 -54 -41 -83 -38 -58 -38
-79 0 -43 l24 23 -5 -81 c-5 -68 -3 -81 9 -81 8 0 23 9 34 21 12 14 25 18 41
14 18 -4 23 -1 23 15 0 30 -25 35 -51 11 -29 -27 -39 -26 -39 3 0 24 16 36 50
36 13 0 22 11 29 38 17 61 16 65 -29 60 -47 -4 -54 7 -10 16 17 3 30 11 30 17
0 6 -9 9 -20 6 -21 -5 -27 7 -9 19 6 3 16 1 22 -5 16 -16 27 -14 27 5 0 9 -9
18 -19 21 -11 3 -21 13 -24 24 -6 21 -26 26 -31 7z m39 -138 c-3 -5 -15 -10
-26 -10 -11 0 -17 5 -14 10 3 6 15 10 26 10 11 0 17 -4 14 -10z m-5 -40 c0 -5
-9 -10 -20 -10 -11 0 -20 5 -20 10 0 6 9 10 20 10 11 0 20 -4 20 -10z"/>
<path d="M300 6611 l0 -101 -25 0 c-32 0 -31 -7 2 -42 l27 -28 -32 -12 c-18
-7 -32 -16 -32 -20 0 -11 13 -10 46 2 22 9 31 7 49 -10 21 -20 105 -30 105
-12 0 4 -23 18 -51 30 l-51 21 28 36 c23 30 25 38 13 46 -8 5 -24 7 -36 4 -13
-3 -23 -1 -23 4 0 5 16 11 36 13 34 3 38 6 50 47 7 25 11 48 8 53 -7 12 -64
10 -64 -2 0 -5 7 -10 15 -10 8 0 15 -4 15 -10 0 -5 -7 -10 -15 -10 -8 0 -15
-4 -15 -10 0 -5 5 -10 10 -10 6 0 10 -7 10 -15 0 -9 -9 -15 -21 -15 -19 0 -21
5 -17 72 2 63 1 73 -15 76 -15 3 -17 -7 -17 -97z m40 -120 c0 -5 -6 -14 -14
-20 -10 -8 -16 -8 -25 3 -9 11 -9 15 1 19 21 9 38 8 38 -2z"/>
<path d="M606 6698 c-3 -7 -7 -26 -11 -43 -3 -16 -22 -54 -41 -83 -20 -30 -33
-56 -30 -60 10 -9 47 31 78 86 30 52 41 61 53 42 10 -15 25 -12 25 6 0 9 -9
18 -19 21 -11 3 -21 13 -24 24 -6 21 -26 26 -31 7z"/>
<path d="M247 6639 c-10 -11 -16 -28 -13 -37 2 -9 7 -29 10 -44 8 -35 30 -37
24 -3 -4 17 -1 25 8 25 8 0 14 5 14 10 0 6 -7 10 -15 10 -8 0 -15 4 -15 9 0 5
7 14 15 21 8 7 15 16 15 21 0 15 -24 8 -43 -12z"/>
<path d="M606 6248 c-3 -7 -7 -26 -11 -43 -3 -16 -22 -54 -41 -83 -20 -30 -33
-56 -30 -60 8 -7 44 26 63 59 9 16 28 30 45 33 15 3 28 11 28 17 0 6 -9 9 -20
6 -21 -5 -27 7 -9 19 6 3 16 1 22 -5 16 -16 27 -14 27 5 0 9 -9 18 -19 21 -11
3 -21 13 -24 24 -6 21 -26 26 -31 7z"/>
<path d="M606 5798 c-3 -7 -7 -26 -11 -43 -3 -16 -22 -54 -41 -83 -20 -30 -33
-56 -30 -60 8 -7 44 26 63 59 9 16 28 30 45 33 15 3 28 11 28 17 0 6 -9 9 -20
6 -21 -5 -27 7 -9 19 6 3 16 1 22 -5 16 -16 27 -14 27 5 0 9 -9 18 -19 21 -11
3 -21 13 -24 24 -6 21 -26 26 -31 7z"/>
<path d="M610 5680 c0 -5 9 -10 21 -10 16 0 19 -5 15 -20 -3 -11 -9 -29 -12
-40 -4 -14 -1 -20 10 -20 9 0 19 15 25 38 16 57 14 62 -24 62 -19 0 -35 -4
-35 -10z"/>
<path d="M606 5348 c-3 -7 -7 -26 -11 -43 -3 -16 -22 -54 -41 -83 -20 -30 -33
-56 -30 -60 8 -7 44 26 63 59 9 16 28 30 45 33 15 3 28 11 28 17 0 6 -9 9 -20
6 -21 -5 -27 7 -9 19 6 3 16 1 22 -5 16 -16 27 -14 27 5 0 9 -9 18 -19 21 -11
3 -21 13 -24 24 -6 21 -26 26 -31 7z"/>
<path d="M610 5230 c0 -5 9 -10 21 -10 11 0 17 -4 14 -10 -3 -5 -15 -10 -26
-10 -10 0 -19 -4 -19 -10 0 -5 9 -10 21 -10 16 0 19 -4 14 -20 -4 -14 -2 -20
9 -20 9 0 19 15 25 38 16 57 14 62 -24 62 -19 0 -35 -4 -35 -10z"/>
<path d="M606 4898 c-3 -7 -7 -26 -11 -43 -3 -16 -22 -54 -41 -83 -20 -30 -33
-56 -30 -60 8 -7 44 26 63 59 9 16 28 30 45 33 15 3 28 11 28 17 0 6 -9 9 -20
6 -21 -5 -27 7 -9 19 6 3 16 1 22 -5 16 -16 27 -14 27 5 0 9 -9 18 -19 21 -11
3 -21 13 -24 24 -6 21 -26 26 -31 7z"/>
<path d="M610 4780 c0 -5 9 -10 21 -10 11 0 17 -4 14 -10 -3 -5 -15 -10 -26
-10 -10 0 -19 -4 -19 -10 0 -5 9 -10 20 -10 11 0 20 -4 20 -10 0 -5 -9 -10
-19 -10 -18 0 -38 -17 -30 -24 2 -2 19 -1 36 1 27 4 34 11 43 42 15 56 13 61
-25 61 -19 0 -35 -4 -35 -10z"/>
<path d="M606 4448 c-3 -7 -7 -26 -11 -43 -3 -16 -22 -54 -41 -83 -38 -58 -38
-79 0 -43 l24 23 -5 -81 c-7 -91 1 -99 51 -55 30 27 28 46 -4 26 -27 -17 -30
-15 -30 12 0 24 16 36 50 36 13 0 22 11 29 38 17 61 16 65 -29 60 -47 -4 -54
7 -10 16 17 3 30 11 30 17 0 6 -9 9 -20 6 -21 -5 -27 7 -9 19 6 3 16 1 22 -5
16 -16 27 -14 27 5 0 9 -9 18 -19 21 -11 3 -21 13 -24 24 -6 21 -26 26 -31 7z
m39 -138 c-3 -5 -15 -10 -26 -10 -11 0 -17 5 -14 10 3 6 15 10 26 10 11 0 17
-4 14 -10z m-5 -40 c0 -5 -9 -10 -20 -10 -11 0 -20 5 -20 10 0 6 9 10 20 10
11 0 20 -4 20 -10z"/>
<path d="M606 3998 c-3 -7 -7 -26 -11 -43 -3 -16 -22 -54 -41 -83 -38 -58 -38
-79 0 -43 l24 23 -5 -81 c-5 -68 -3 -81 9 -81 8 0 23 9 34 21 12 14 25 18 41
14 18 -4 23 -1 23 15 0 30 -25 35 -51 11 -29 -27 -39 -26 -39 3 0 24 16 36 50
36 13 0 22 11 29 38 17 61 16 65 -29 60 -47 -4 -54 7 -10 16 17 3 30 11 30 17
0 6 -9 9 -20 6 -21 -5 -27 7 -9 19 6 3 16 1 22 -5 16 -16 27 -14 27 5 0 9 -9
18 -19 21 -11 3 -21 13 -24 24 -6 21 -26 26 -31 7z m39 -138 c-3 -5 -15 -10
-26 -10 -11 0 -17 5 -14 10 3 6 15 10 26 10 11 0 17 -4 14 -10z m-5 -40 c0 -5
-9 -10 -20 -10 -11 0 -20 5 -20 10 0 6 9 10 20 10 11 0 20 -4 20 -10z"/>
<path d="M606 3548 c-3 -7 -7 -26 -11 -43 -3 -16 -22 -54 -41 -83 -38 -58 -38
-79 0 -43 l24 23 -5 -81 c-5 -68 -3 -81 9 -81 8 0 23 9 34 21 12 14 25 18 41
14 18 -4 23 -1 23 15 0 30 -25 35 -51 11 -29 -27 -39 -26 -39 3 0 24 16 36 50
36 13 0 22 11 29 38 17 61 16 65 -29 60 -47 -4 -54 7 -10 16 17 3 30 11 30 17
0 6 -9 9 -20 6 -21 -5 -27 7 -9 19 6 3 16 1 22 -5 16 -16 27 -14 27 5 0 9 -9
18 -19 21 -11 3 -21 13 -24 24 -6 21 -26 26 -31 7z m39 -138 c-3 -5 -15 -10
-26 -10 -11 0 -17 5 -14 10 3 6 15 10 26 10 11 0 17 -4 14 -10z m-5 -40 c0 -5
-9 -10 -20 -10 -11 0 -20 5 -20 10 0 6 9 10 20 10 11 0 20 -4 20 -10z"/>
<path d="M706 3494 c-4 -9 -4 -19 -1 -22 6 -6 35 18 35 29 0 16 -28 10 -34 -7z"/>
<path d="M606 3098 c-3 -7 -7 -26 -11 -43 -3 -16 -22 -54 -41 -83 -38 -58 -38
-79 0 -43 l24 23 -5 -81 c-5 -68 -3 -81 9 -81 8 0 23 9 34 21 12 14 25 18 41
14 18 -4 23 -1 23 15 0 30 -25 35 -51 11 -29 -27 -39 -26 -39 3 0 24 16 36 50
36 13 0 22 11 29 38 17 61 16 65 -29 60 -47 -4 -54 7 -10 16 17 3 30 11 30 17
0 6 -9 9 -20 6 -21 -5 -27 7 -9 19 6 3 16 1 22 -5 16 -16 27 -14 27 5 0 9 -9
18 -19 21 -11 3 -21 13 -24 24 -6 21 -26 26 -31 7z m39 -138 c-3 -5 -15 -10
-26 -10 -11 0 -17 5 -14 10 3 6 15 10 26 10 11 0 17 -4 14 -10z m-5 -40 c0 -5
-9 -10 -20 -10 -11 0 -20 5 -20 10 0 6 9 10 20 10 11 0 20 -4 20 -10z"/>
<path d="M697 3039 c-10 -11 -16 -28 -13 -37 2 -9 7 -29 10 -44 10 -46 28 -33
21 15 -5 33 -3 46 9 56 9 8 16 17 16 22 0 15 -24 8 -43 -12z"/>
<path d="M606 2648 c-3 -7 -7 -26 -11 -43 -3 -16 -22 -54 -41 -83 -38 -58 -38
-79 0 -43 l24 23 -5 -81 c-5 -68 -3 -81 9 -81 8 0 23 9 34 21 12 14 25 18 41
14 18 -4 23 -1 23 15 0 30 -25 35 -51 11 -29 -27 -39 -26 -39 3 0 24 16 36 50
36 13 0 22 11 29 38 17 61 16 65 -29 60 -47 -4 -54 7 -10 16 17 3 30 11 30 17
0 6 -9 9 -20 6 -21 -5 -27 7 -9 19 6 3 16 1 22 -5 16 -16 27 -14 27 5 0 9 -9
18 -19 21 -11 3 -21 13 -24 24 -6 21 -26 26 -31 7z m39 -138 c-3 -5 -15 -10
-26 -10 -11 0 -17 5 -14 10 3 6 15 10 26 10 11 0 17 -4 14 -10z m-5 -40 c0 -5
-9 -10 -20 -10 -11 0 -20 5 -20 10 0 6 9 10 20 10 11 0 20 -4 20 -10z"/>
<path d="M697 2589 c-10 -11 -16 -28 -13 -37 2 -9 7 -29 10 -44 8 -35 30 -37
24 -3 -4 17 -1 25 8 25 8 0 14 5 14 10 0 6 -7 10 -15 10 -8 0 -15 4 -15 9 0 5
7 14 15 21 8 7 15 16 15 21 0 15 -24 8 -43 -12z"/>
<path d="M606 2198 c-3 -7 -7 -26 -11 -43 -3 -16 -22 -54 -41 -83 -38 -58 -38
-79 0 -43 l24 23 -5 -81 c-5 -68 -3 -81 9 -81 8 0 23 9 34 21 12 14 25 18 41
14 18 -4 23 -1 23 15 0 30 -25 35 -51 11 -29 -27 -39 -26 -39 3 0 24 16 36 50
36 13 0 22 11 29 38 17 61 16 65 -29 60 -47 -4 -54 7 -10 16 17 3 30 11 30 17
0 6 -9 9 -20 6 -21 -5 -27 7 -9 19 6 3 16 1 22 -5 16 -16 27 -14 27 5 0 9 -9
18 -19 21 -11 3 -21 13 -24 24 -6 21 -26 26 -31 7z m39 -138 c-3 -5 -15 -10
-26 -10 -11 0 -17 5 -14 10 3 6 15 10 26 10 11 0 17 -4 14 -10z m-5 -40 c0 -5
-9 -10 -20 -10 -11 0 -20 5 -20 10 0 6 9 10 20 10 11 0 20 -4 20 -10z"/>
<path d="M697 2139 c-10 -11 -16 -28 -13 -37 2 -9 7 -29 10 -44 8 -35 30 -37
24 -3 -4 17 -1 25 8 25 8 0 14 5 14 10 0 6 -7 10 -15 10 -8 0 -15 4 -15 9 0 5
7 14 15 21 8 7 15 16 15 21 0 15 -24 8 -43 -12z"/>
<path d="M606 1748 c-3 -7 -7 -26 -11 -43 -3 -16 -22 -54 -41 -83 -38 -58 -38
-79 0 -43 l24 23 -5 -81 c-5 -68 -3 -81 9 -81 8 0 23 9 34 21 12 14 25 18 41
14 18 -4 23 -1 23 15 0 30 -25 35 -51 11 -29 -27 -39 -26 -39 3 0 24 16 36 50
36 13 0 22 11 29 38 17 61 16 65 -29 60 -47 -4 -54 7 -10 16 17 3 30 11 30 17
0 6 -9 9 -20 6 -21 -5 -27 7 -9 19 6 3 16 1 22 -5 16 -16 27 -14 27 5 0 9 -9
18 -19 21 -11 3 -21 13 -24 24 -6 21 -26 26 -31 7z m39 -138 c-3 -5 -15 -10
-26 -10 -11 0 -17 5 -14 10 3 6 15 10 26 10 11 0 17 -4 14 -10z m-5 -40 c0 -5
-9 -10 -20 -10 -11 0 -20 5 -20 10 0 6 9 10 20 10 11 0 20 -4 20 -10z"/>
<path d="M697 1689 c-10 -11 -16 -28 -13 -37 2 -9 7 -29 10 -44 8 -35 30 -37
24 -3 -4 17 -1 25 8 25 8 0 14 5 14 10 0 6 -7 10 -15 10 -8 0 -15 4 -15 9 0 5
7 14 15 21 8 7 15 16 15 21 0 15 -24 8 -43 -12z"/>
<path d="M800 1690 c0 -5 7 -10 16 -10 13 0 14 -8 8 -46 -5 -36 -4 -46 6 -42
14 4 42 87 34 100 -7 12 -64 10 -64 -2z"/>
<path d="M606 1298 c-3 -7 -7 -26 -11 -43 -3 -16 -22 -54 -41 -83 -38 -58 -38
-79 0 -43 l24 23 -5 -81 c-5 -68 -3 -81 9 -81 8 0 23 9 34 21 12 14 25 18 41
14 18 -4 23 -1 23 15 0 30 -25 35 -51 11 -29 -27 -39 -26 -39 3 0 24 16 36 50
36 13 0 22 11 29 38 17 61 16 65 -29 60 -47 -4 -54 7 -10 16 17 3 30 11 30 17
0 6 -9 9 -20 6 -21 -5 -27 7 -9 19 6 3 16 1 22 -5 16 -16 27 -14 27 5 0 9 -9
18 -19 21 -11 3 -21 13 -24 24 -6 21 -26 26 -31 7z m39 -138 c-3 -5 -15 -10
-26 -10 -11 0 -17 5 -14 10 3 6 15 10 26 10 11 0 17 -4 14 -10z m-5 -40 c0 -5
-9 -10 -20 -10 -11 0 -20 5 -20 10 0 6 9 10 20 10 11 0 20 -4 20 -10z"/>
<path d="M697 1239 c-10 -11 -16 -28 -13 -37 2 -9 7 -29 10 -44 8 -35 30 -37
24 -3 -4 17 -1 25 8 25 8 0 14 5 14 10 0 6 -7 10 -15 10 -8 0 -15 4 -15 9 0 5
7 14 15 21 8 7 15 16 15 21 0 15 -24 8 -43 -12z"/>
<path d="M800 1240 c0 -5 7 -10 15 -10 8 0 15 -4 15 -10 0 -5 -7 -10 -15 -10
-8 0 -15 -4 -15 -10 0 -5 5 -10 10 -10 6 0 10 -12 10 -26 0 -15 5 -24 12 -22
13 5 40 87 32 100 -7 12 -64 10 -64 -2z"/>
<path d="M606 848 c-3 -7 -7 -26 -11 -43 -3 -16 -22 -54 -41 -83 -38 -58 -38
-79 0 -43 l24 23 -5 -81 c-5 -68 -3 -81 9 -81 8 0 23 9 34 21 12 14 25 18 41
14 18 -4 23 -1 23 15 0 30 -25 35 -51 11 -29 -27 -39 -26 -39 3 0 24 16 36 50
36 13 0 22 11 29 38 17 61 16 65 -29 60 -47 -4 -54 7 -10 16 17 3 30 11 30 17
0 6 -9 9 -20 6 -21 -5 -27 7 -9 19 6 3 16 1 22 -5 16 -16 27 -14 27 5 0 9 -9
18 -19 21 -11 3 -21 13 -24 24 -6 21 -26 26 -31 7z m39 -138 c-3 -5 -15 -10
-26 -10 -11 0 -17 5 -14 10 3 6 15 10 26 10 11 0 17 -4 14 -10z m-5 -40 c0 -5
-9 -10 -20 -10 -11 0 -20 5 -20 10 0 6 9 10 20 10 11 0 20 -4 20 -10z"/>
<path d="M697 789 c-10 -11 -16 -28 -13 -37 2 -9 7 -29 10 -44 8 -35 30 -37
24 -3 -4 17 -1 25 8 25 8 0 14 5 14 10 0 6 -7 10 -15 10 -8 0 -15 4 -15 9 0 5
7 14 15 21 8 7 15 16 15 21 0 15 -24 8 -43 -12z"/>
<path d="M800 790 c0 -5 7 -10 15 -10 8 0 15 -4 15 -10 0 -5 -7 -10 -15 -10
-8 0 -15 -4 -15 -10 0 -5 5 -10 10 -10 6 0 10 -7 10 -15 0 -8 -9 -15 -20 -15
-11 0 -20 -5 -20 -11 0 -6 14 -9 31 -7 28 3 33 8 45 47 7 25 11 48 8 53 -7 12
-64 10 -64 -2z"/>
<path d="M606 398 c-3 -7 -7 -26 -11 -43 -3 -16 -22 -54 -41 -83 -38 -58 -38
-79 0 -43 l24 23 -5 -81 c-5 -68 -3 -81 9 -81 8 0 23 9 34 21 12 14 25 18 41
14 18 -4 23 -1 23 15 0 30 -25 35 -51 11 -29 -27 -39 -26 -39 3 0 24 16 36 50
36 13 0 22 11 29 38 17 61 16 65 -29 60 -47 -4 -54 7 -10 16 17 3 30 11 30 17
0 6 -9 9 -20 6 -21 -5 -27 7 -9 19 6 3 16 1 22 -5 16 -16 27 -14 27 5 0 9 -9
18 -19 21 -11 3 -21 13 -24 24 -6 21 -26 26 -31 7z m39 -138 c-3 -5 -15 -10
-26 -10 -11 0 -17 5 -14 10 3 6 15 10 26 10 11 0 17 -4 14 -10z m-5 -40 c0 -5
-9 -10 -20 -10 -11 0 -20 5 -20 10 0 6 9 10 20 10 11 0 20 -4 20 -10z"/>
<path d="M750 311 c0 -61 4 -101 10 -101 6 0 10 6 10 14 0 10 13 16 36 18 34
3 38 6 50 47 7 25 11 48 8 53 -7 12 -64 10 -64 -2 0 -5 7 -10 15 -10 8 0 15
-4 15 -10 0 -5 -7 -10 -15 -10 -8 0 -15 -4 -15 -10 0 -5 5 -10 10 -10 6 0 10
-7 10 -15 0 -9 -9 -15 -21 -15 -19 0 -21 5 -17 72 2 63 1 73 -15 76 -15 3 -17
-7 -17 -97z"/>
<path d="M697 339 c-10 -11 -16 -28 -13 -37 2 -9 7 -29 10 -44 8 -35 30 -37
24 -3 -4 17 -1 25 8 25 8 0 14 5 14 10 0 6 -7 10 -15 10 -8 0 -15 4 -15 9 0 5
7 14 15 21 8 7 15 16 15 21 0 15 -24 8 -43 -12z"/>
</g>
</svg>
