<?xml version="1.0" standalone="no"?>
<!DOCTYPE svg PUBLIC "-//W3C//DTD SVG 20010904//EN"
 "http://www.w3.org/TR/2001/REC-SVG-20010904/DTD/svg10.dtd">
<svg version="1.0" xmlns="http://www.w3.org/2000/svg"
 width="95.000000pt" height="725.000000pt" viewBox="0 0 95.000000 725.000000"
 preserveAspectRatio="xMidYMid meet">
<metadata>
Created by potrace 1.16, written by Peter Selinger 2001-2019
</metadata>
<g transform="translate(0.000000,725.000000) scale(0.100000,-0.100000)"
fill="#000000" stroke="none">
<path d="M151 7120 c-6 -21 -27 -60 -47 -86 -38 -49 -39 -63 -4 -44 21 11 21
11 19 -64 -2 -41 0 -78 4 -82 4 -4 19 3 33 17 14 13 34 23 45 21 21 -4 26 17
7 36 -16 16 -28 15 -28 -2 0 -7 -9 -16 -20 -19 -16 -4 -20 0 -20 19 0 23 4 26
44 28 13 1 22 12 28 35 14 51 5 64 -40 56 -24 -4 -34 -3 -27 3 6 6 19 12 29
14 11 1 21 9 24 17 3 9 -1 11 -17 6 -16 -5 -20 -3 -15 9 7 18 20 21 29 6 9
-15 35 -12 35 4 0 8 -9 17 -19 21 -10 3 -21 15 -24 25 -8 32 -23 23 -36 -20z
m39 -110 c0 -5 -10 -10 -22 -10 -19 0 -20 2 -8 10 19 13 30 13 30 0z m-15 -40
c-28 -12 -37 -12 -30 0 3 6 16 10 28 9 21 0 21 -1 2 -9z"/>
<path d="M290 7135 c0 -16 -6 -25 -15 -25 -8 0 -15 -4 -15 -10 0 -5 7 -10 15
-10 8 0 15 -4 15 -10 0 -5 -11 -10 -25 -10 -14 0 -25 -5 -25 -11 0 -8 16 -10
50 -5 40 5 50 4 50 -8 0 -8 -6 -17 -12 -20 -10 -5 -10 -7 0 -12 17 -8 15 -24
-3 -24 -8 0 -15 -4 -15 -10 0 -11 24 -13 69 -4 34 7 43 24 12 24 -13 0 -20 9
-23 30 -3 17 -1 30 4 30 4 0 8 5 8 10 0 6 -13 10 -30 10 -16 0 -30 5 -30 10 0
6 9 10 20 10 11 0 20 5 20 10 0 6 -9 10 -20 10 -13 0 -20 7 -20 20 0 11 -7 20
-15 20 -9 0 -15 -9 -15 -25z"/>
<path d="M601 7120 c-6 -21 -27 -60 -46 -85 -38 -49 -41 -55 -25 -55 30 0 117
137 106 166 -9 25 -23 15 -35 -26z"/>
<path d="M246 7024 c-3 -9 -3 -21 0 -26 4 -6 -1 -17 -11 -24 -27 -20 -11 -29
25 -14 28 12 41 30 21 30 -4 0 -6 11 -3 25 5 29 -22 36 -32 9z"/>
<path d="M151 6670 c-6 -21 -27 -60 -47 -86 -38 -49 -39 -63 -4 -44 21 11 21
11 19 -64 -2 -41 0 -78 4 -82 4 -4 19 3 33 17 14 13 34 23 45 21 21 -4 26 17
7 36 -16 16 -28 15 -28 -2 0 -7 -9 -16 -20 -19 -16 -4 -20 0 -20 19 0 23 4 26
44 28 13 1 22 12 28 35 14 51 5 64 -40 56 -24 -4 -34 -3 -27 3 6 6 19 12 29
14 11 1 21 9 24 17 3 9 -1 11 -17 6 -16 -5 -20 -3 -15 9 7 18 20 21 29 6 9
-15 35 -12 35 4 0 8 -9 17 -19 21 -10 3 -21 15 -24 25 -8 32 -23 23 -36 -20z
m39 -110 c0 -5 -10 -10 -22 -10 -19 0 -20 2 -8 10 19 13 30 13 30 0z m-15 -40
c-28 -12 -37 -12 -30 0 3 6 16 10 28 9 21 0 21 -1 2 -9z"/>
<path d="M290 6685 c0 -16 -6 -25 -15 -25 -8 0 -15 -4 -15 -10 0 -5 7 -10 15
-10 8 0 15 -4 15 -10 0 -5 -11 -10 -25 -10 -14 0 -25 -5 -25 -11 0 -8 16 -10
50 -5 40 5 50 4 50 -8 0 -8 -6 -17 -12 -20 -10 -5 -10 -7 0 -12 17 -8 15 -24
-3 -24 -8 0 -15 -4 -15 -10 0 -11 24 -13 69 -4 34 7 43 24 12 24 -13 0 -20 9
-23 30 -3 17 -1 30 4 30 4 0 8 5 8 10 0 6 -13 10 -30 10 -16 0 -30 5 -30 10 0
6 9 10 20 10 11 0 20 5 20 10 0 6 -9 10 -20 10 -13 0 -20 7 -20 20 0 11 -7 20
-15 20 -9 0 -15 -9 -15 -25z"/>
<path d="M601 6670 c-6 -21 -27 -60 -47 -86 -36 -47 -39 -59 -11 -48 15 5 70
79 80 107 3 9 8 9 18 0 7 -7 19 -13 26 -13 20 0 15 28 -6 35 -10 3 -21 15 -24
25 -8 32 -23 23 -36 -20z"/>
<path d="M246 6574 c-3 -9 -3 -21 0 -26 4 -6 -1 -17 -11 -24 -27 -20 -11 -29
25 -14 28 12 41 30 21 30 -4 0 -6 11 -3 25 5 29 -22 36 -32 9z"/>
<path d="M281 6499 c-56 -10 -69 -15 -59 -25 9 -8 168 17 168 27 0 11 -35 10
-109 -2z"/>
<path d="M151 6220 c-6 -21 -27 -60 -47 -86 -38 -49 -39 -63 -4 -44 21 11 21
11 19 -64 -2 -41 0 -78 4 -82 4 -4 19 3 33 17 14 13 34 23 45 21 21 -4 26 17
7 36 -16 16 -28 15 -28 -2 0 -7 -9 -16 -20 -19 -16 -4 -20 0 -20 19 0 23 4 26
44 28 13 1 22 12 28 35 14 51 5 64 -40 56 -24 -4 -34 -3 -27 3 6 6 19 12 29
14 11 1 21 9 24 17 3 9 -1 11 -17 6 -16 -5 -20 -3 -15 9 7 18 20 21 29 6 9
-15 35 -12 35 4 0 8 -9 17 -19 21 -10 3 -21 15 -24 25 -8 32 -23 23 -36 -20z
m39 -110 c0 -5 -10 -10 -22 -10 -19 0 -20 2 -8 10 19 13 30 13 30 0z m-15 -40
c-28 -12 -37 -12 -30 0 3 6 16 10 28 9 21 0 21 -1 2 -9z"/>
<path d="M290 6235 c0 -16 -6 -25 -15 -25 -8 0 -15 -4 -15 -10 0 -5 7 -10 15
-10 8 0 15 -4 15 -10 0 -5 -11 -10 -25 -10 -14 0 -25 -5 -25 -11 0 -8 16 -10
50 -5 40 5 50 4 50 -8 0 -8 -6 -17 -12 -20 -10 -5 -10 -7 0 -12 17 -8 15 -24
-3 -24 -8 0 -15 -4 -15 -10 0 -11 24 -13 69 -4 34 7 43 24 12 24 -13 0 -20 9
-23 30 -3 17 -1 30 4 30 4 0 8 5 8 10 0 6 -13 10 -30 10 -16 0 -30 5 -30 10 0
6 9 10 20 10 11 0 20 5 20 10 0 6 -9 10 -20 10 -13 0 -20 7 -20 20 0 11 -7 20
-15 20 -9 0 -15 -9 -15 -25z"/>
<path d="M601 6220 c-6 -21 -27 -60 -46 -85 -19 -25 -35 -47 -35 -50 0 -15 25
-1 53 29 18 19 41 36 51 38 11 1 21 9 24 17 3 9 -1 11 -17 6 -16 -5 -20 -3
-15 9 7 18 20 21 29 6 9 -15 35 -12 35 4 0 8 -9 17 -19 21 -10 3 -21 15 -24
25 -8 32 -23 23 -36 -20z"/>
<path d="M246 6124 c-3 -9 -3 -21 0 -26 4 -6 -1 -17 -11 -24 -27 -20 -11 -29
25 -14 28 12 41 30 21 30 -4 0 -6 11 -3 25 5 29 -22 36 -32 9z"/>
<path d="M325 6055 c-5 -2 -31 -6 -57 -10 -47 -6 -68 -25 -28 -25 26 0 25 -12
-5 -48 -28 -33 -31 -42 -14 -42 17 0 69 60 69 80 0 14 11 20 50 25 53 7 70 26
23 24 -16 0 -32 -2 -38 -4z"/>
<path d="M151 5770 c-6 -21 -27 -60 -47 -86 -38 -49 -39 -63 -4 -44 21 11 21
11 19 -64 -2 -41 0 -78 4 -82 4 -4 19 3 33 17 14 13 34 23 45 21 21 -4 26 17
7 36 -16 16 -28 15 -28 -2 0 -7 -9 -16 -20 -19 -16 -4 -20 0 -20 19 0 23 4 26
44 28 13 1 22 12 28 35 14 51 5 64 -40 56 -24 -4 -34 -3 -27 3 6 6 19 12 29
14 11 1 21 9 24 17 3 9 -1 11 -17 6 -16 -5 -20 -3 -15 9 7 18 20 21 29 6 9
-15 35 -12 35 4 0 8 -9 17 -19 21 -10 3 -21 15 -24 25 -8 32 -23 23 -36 -20z
m39 -110 c0 -5 -10 -10 -22 -10 -19 0 -20 2 -8 10 19 13 30 13 30 0z m-15 -40
c-28 -12 -37 -12 -30 0 3 6 16 10 28 9 21 0 21 -1 2 -9z"/>
<path d="M290 5785 c0 -16 -6 -25 -15 -25 -8 0 -15 -4 -15 -10 0 -5 7 -10 15
-10 8 0 15 -4 15 -10 0 -5 -11 -10 -25 -10 -14 0 -25 -5 -25 -11 0 -8 16 -10
50 -5 40 5 50 4 50 -8 0 -8 -6 -17 -12 -20 -10 -5 -10 -7 0 -12 17 -8 15 -24
-3 -24 -8 0 -15 -4 -15 -10 0 -11 24 -13 69 -4 34 7 43 24 12 24 -13 0 -20 9
-23 30 -3 17 -1 30 4 30 4 0 8 5 8 10 0 6 -13 10 -30 10 -16 0 -30 5 -30 10 0
6 9 10 20 10 11 0 20 5 20 10 0 6 -9 10 -20 10 -13 0 -20 7 -20 20 0 11 -7 20
-15 20 -9 0 -15 -9 -15 -25z"/>
<path d="M601 5770 c-6 -21 -27 -60 -46 -85 -19 -25 -35 -47 -35 -50 0 -15 25
-1 53 29 18 19 41 36 51 38 11 1 21 9 24 17 3 9 -1 11 -17 6 -16 -5 -20 -3
-15 9 7 18 20 21 29 6 9 -15 35 -12 35 4 0 8 -9 17 -19 21 -10 3 -21 15 -24
25 -8 32 -23 23 -36 -20z"/>
<path d="M246 5674 c-3 -9 -3 -21 0 -26 4 -6 -1 -17 -11 -24 -27 -20 -11 -29
25 -14 28 12 41 30 21 30 -4 0 -6 11 -3 25 5 29 -22 36 -32 9z"/>
<path d="M608 5683 c-10 -2 -18 -9 -18 -15 0 -6 11 -8 26 -4 26 7 27 6 21 -34
-6 -50 13 -50 26 -1 14 55 0 69 -55 54z"/>
<path d="M325 5605 c-5 -2 -31 -6 -57 -10 -47 -6 -68 -25 -28 -25 26 0 25 -12
-5 -48 -28 -33 -31 -42 -14 -42 18 0 69 60 69 81 0 10 5 19 10 19 6 0 10 -17
10 -38 0 -50 14 -62 71 -62 53 0 64 9 55 46 -8 29 -22 31 -29 4 -4 -14 -14
-20 -35 -20 -37 0 -44 9 -36 49 5 24 12 31 30 31 13 0 24 5 24 10 0 9 -43 13
-65 5z"/>
<path d="M601 5320 c-6 -21 -27 -60 -46 -85 -19 -25 -35 -47 -35 -50 0 -15 25
-1 53 29 18 19 41 36 51 38 11 1 21 9 24 17 3 9 -1 11 -17 6 -16 -5 -20 -3
-15 9 7 18 20 21 29 6 9 -15 35 -12 35 4 0 8 -9 17 -19 21 -10 3 -21 15 -24
25 -8 32 -23 23 -36 -20z"/>
<path d="M608 5233 c-10 -2 -18 -9 -18 -15 0 -6 10 -8 25 -4 14 4 25 2 25 -4
0 -5 -9 -10 -20 -10 -11 0 -20 -4 -20 -10 0 -5 9 -10 21 -10 16 0 19 -4 14
-21 -5 -15 -3 -20 6 -17 15 5 33 64 25 84 -5 14 -24 16 -58 7z"/>
<path d="M601 4870 c-6 -21 -27 -60 -46 -85 -19 -25 -35 -47 -35 -50 0 -15 25
-1 53 29 18 19 41 36 51 38 11 1 21 9 24 17 3 9 -1 11 -17 6 -16 -5 -20 -3
-15 9 7 18 20 21 29 6 9 -15 35 -12 35 4 0 8 -9 17 -19 21 -10 3 -21 15 -24
25 -8 32 -23 23 -36 -20z"/>
<path d="M608 4783 c-10 -2 -18 -9 -18 -15 0 -6 10 -8 25 -4 14 4 25 2 25 -4
0 -5 -9 -10 -20 -10 -28 0 -25 -20 3 -21 17 -1 15 -3 -10 -11 -44 -14 -42 -27
4 -24 33 2 38 6 46 35 14 55 0 69 -55 54z"/>
<path d="M601 4420 c-6 -21 -27 -60 -47 -86 -38 -49 -39 -63 -4 -44 22 12 22
11 20 -57 -3 -110 -4 -109 48 -62 38 34 37 44 -2 30 -24 -10 -26 -8 -26 14 0
24 4 27 44 29 13 1 22 12 28 35 14 51 5 64 -40 56 -24 -4 -34 -3 -27 3 6 6 19
12 29 14 11 1 21 9 24 17 3 9 -1 11 -17 6 -16 -5 -20 -3 -15 9 7 18 20 21 29
6 9 -15 35 -12 35 4 0 8 -9 17 -19 21 -10 3 -21 15 -24 25 -8 32 -23 23 -36
-20z m39 -110 c0 -5 -10 -10 -22 -10 -19 0 -20 2 -8 10 19 13 30 13 30 0z
m-15 -40 c-28 -12 -37 -12 -30 0 3 6 16 10 28 9 21 0 21 -1 2 -9z"/>
<path d="M601 3970 c-6 -21 -27 -60 -47 -86 -38 -49 -39 -63 -4 -44 21 11 21
11 19 -64 -2 -41 0 -78 4 -82 4 -4 19 3 33 17 14 13 34 23 45 21 21 -4 26 17
7 36 -16 16 -28 15 -28 -2 0 -7 -9 -16 -20 -19 -16 -4 -20 0 -20 19 0 23 4 26
44 28 13 1 22 12 28 35 14 51 5 64 -40 56 -24 -4 -34 -3 -27 3 6 6 19 12 29
14 11 1 21 9 24 17 3 9 -1 11 -17 6 -16 -5 -20 -3 -15 9 7 18 20 21 29 6 9
-15 35 -12 35 4 0 8 -9 17 -19 21 -10 3 -21 15 -24 25 -8 32 -23 23 -36 -20z
m39 -110 c0 -5 -10 -10 -22 -10 -19 0 -20 2 -8 10 19 13 30 13 30 0z m-15 -40
c-28 -12 -37 -12 -30 0 3 6 16 10 28 9 21 0 21 -1 2 -9z"/>
<path d="M601 3520 c-6 -21 -27 -60 -47 -86 -38 -49 -39 -63 -4 -44 21 11 21
11 19 -64 -2 -41 0 -78 4 -82 4 -4 19 3 33 17 14 13 34 23 45 21 21 -4 26 17
7 36 -16 16 -28 15 -28 -2 0 -7 -9 -16 -20 -19 -16 -4 -20 0 -20 19 0 23 4 26
44 28 13 1 22 12 28 35 14 51 5 64 -40 56 -24 -4 -34 -3 -27 3 6 6 19 12 29
14 11 1 21 9 24 17 3 9 -1 11 -17 6 -16 -5 -20 -3 -15 9 7 18 20 21 29 6 9
-15 35 -12 35 4 0 8 -9 17 -19 21 -10 3 -21 15 -24 25 -8 32 -23 23 -36 -20z
m39 -110 c0 -5 -10 -10 -22 -10 -19 0 -20 2 -8 10 19 13 30 13 30 0z m-15 -40
c-28 -12 -37 -12 -30 0 3 6 16 10 28 9 21 0 21 -1 2 -9z"/>
<path d="M733 3513 c-13 -2 -23 -9 -23 -15 0 -6 12 -8 31 -4 17 3 40 6 50 6
11 0 19 5 19 10 0 10 -34 11 -77 3z"/>
<path d="M601 3070 c-6 -21 -27 -60 -47 -86 -38 -49 -39 -63 -4 -44 21 11 21
11 19 -64 -2 -41 0 -78 4 -82 4 -4 19 3 33 17 14 13 34 23 45 21 21 -4 26 17
7 36 -16 16 -28 15 -28 -2 0 -7 -9 -16 -20 -19 -16 -4 -20 0 -20 19 0 23 4 26
44 28 13 1 22 12 28 35 14 51 5 64 -40 56 -24 -4 -34 -3 -27 3 6 6 19 12 29
14 11 1 21 9 24 17 3 9 -1 11 -17 6 -16 -5 -20 -3 -15 9 7 18 20 21 29 6 9
-15 35 -12 35 4 0 8 -9 17 -19 21 -10 3 -21 15 -24 25 -8 32 -23 23 -36 -20z
m39 -110 c0 -5 -10 -10 -22 -10 -19 0 -20 2 -8 10 19 13 30 13 30 0z m-15 -40
c-28 -12 -37 -12 -30 0 3 6 16 10 28 9 21 0 21 -1 2 -9z"/>
<path d="M740 3085 c0 -16 -6 -25 -15 -25 -8 0 -15 -4 -15 -10 0 -5 6 -10 14
-10 8 0 16 -7 20 -15 8 -22 26 -18 26 5 0 13 7 20 20 20 11 0 20 5 20 10 0 6
-9 10 -20 10 -13 0 -20 7 -20 20 0 11 -7 20 -15 20 -9 0 -15 -9 -15 -25z"/>
<path d="M601 2620 c-6 -21 -27 -60 -47 -86 -38 -49 -39 -63 -4 -44 21 11 21
11 19 -64 -2 -41 0 -78 4 -82 4 -4 19 3 33 17 14 13 34 23 45 21 21 -4 26 17
7 36 -16 16 -28 15 -28 -2 0 -7 -9 -16 -20 -19 -16 -4 -20 0 -20 19 0 23 4 26
44 28 13 1 22 12 28 35 14 51 5 64 -40 56 -24 -4 -34 -3 -27 3 6 6 19 12 29
14 11 1 21 9 24 17 3 9 -1 11 -17 6 -16 -5 -20 -3 -15 9 7 18 20 21 29 6 9
-15 35 -12 35 4 0 8 -9 17 -19 21 -10 3 -21 15 -24 25 -8 32 -23 23 -36 -20z
m39 -110 c0 -5 -10 -10 -22 -10 -19 0 -20 2 -8 10 19 13 30 13 30 0z m-15 -40
c-28 -12 -37 -12 -30 0 3 6 16 10 28 9 21 0 21 -1 2 -9z"/>
<path d="M740 2635 c0 -16 -6 -25 -15 -25 -8 0 -15 -4 -15 -10 0 -5 7 -10 15
-10 8 0 15 -4 15 -10 0 -5 -11 -10 -25 -10 -14 0 -25 -5 -25 -11 0 -8 15 -10
46 -5 26 3 57 6 70 6 13 0 24 5 24 10 0 6 -13 10 -30 10 -16 0 -30 5 -30 10 0
6 9 10 20 10 11 0 20 5 20 10 0 6 -9 10 -20 10 -13 0 -20 7 -20 20 0 11 -7 20
-15 20 -9 0 -15 -9 -15 -25z"/>
<path d="M601 2170 c-6 -21 -27 -60 -47 -86 -38 -49 -39 -63 -4 -44 21 11 21
11 19 -64 -2 -41 0 -78 4 -82 4 -4 19 3 33 17 14 13 34 23 45 21 21 -4 26 17
7 36 -16 16 -28 15 -28 -2 0 -7 -9 -16 -20 -19 -16 -4 -20 0 -20 19 0 23 4 26
44 28 13 1 22 12 28 35 14 51 5 64 -40 56 -24 -4 -34 -3 -27 3 6 6 19 12 29
14 11 1 21 9 24 17 3 9 -1 11 -17 6 -16 -5 -20 -3 -15 9 7 18 20 21 29 6 9
-15 35 -12 35 4 0 8 -9 17 -19 21 -10 3 -21 15 -24 25 -8 32 -23 23 -36 -20z
m39 -110 c0 -5 -10 -10 -22 -10 -19 0 -20 2 -8 10 19 13 30 13 30 0z m-15 -40
c-28 -12 -37 -12 -30 0 3 6 16 10 28 9 21 0 21 -1 2 -9z"/>
<path d="M740 2185 c0 -16 -6 -25 -15 -25 -8 0 -15 -4 -15 -10 0 -5 7 -10 15
-10 8 0 15 -4 15 -10 0 -5 -11 -10 -25 -10 -14 0 -25 -5 -25 -11 0 -8 15 -10
46 -5 26 3 57 6 70 6 13 0 24 5 24 10 0 6 -13 10 -30 10 -16 0 -30 5 -30 10 0
6 9 10 20 10 11 0 20 5 20 10 0 6 -9 10 -20 10 -13 0 -20 7 -20 20 0 11 -7 20
-15 20 -9 0 -15 -9 -15 -25z"/>
<path d="M690 2060 c0 -5 9 -10 20 -10 11 0 20 5 20 10 0 6 -9 10 -20 10 -11
0 -20 -4 -20 -10z"/>
<path d="M601 1720 c-6 -21 -27 -60 -47 -86 -38 -49 -39 -63 -4 -44 21 11 21
11 19 -64 -2 -41 0 -78 4 -82 4 -4 19 3 33 17 14 13 34 23 45 21 21 -4 26 17
7 36 -16 16 -28 15 -28 -2 0 -7 -9 -16 -20 -19 -16 -4 -20 0 -20 19 0 23 4 26
44 28 13 1 22 12 28 35 14 51 5 64 -40 56 -24 -4 -34 -3 -27 3 6 6 19 12 29
14 11 1 21 9 24 17 3 9 -1 11 -17 6 -16 -5 -20 -3 -15 9 7 18 20 21 29 6 9
-15 35 -12 35 4 0 8 -9 17 -19 21 -10 3 -21 15 -24 25 -8 32 -23 23 -36 -20z
m39 -110 c0 -5 -10 -10 -22 -10 -19 0 -20 2 -8 10 19 13 30 13 30 0z m-15 -40
c-28 -12 -37 -12 -30 0 3 6 16 10 28 9 21 0 21 -1 2 -9z"/>
<path d="M740 1735 c0 -16 -6 -25 -15 -25 -8 0 -15 -4 -15 -10 0 -5 7 -10 15
-10 8 0 15 -4 15 -10 0 -5 -11 -10 -25 -10 -14 0 -25 -5 -25 -11 0 -8 15 -10
46 -5 26 3 57 6 70 6 13 0 24 5 24 10 0 6 -13 10 -30 10 -16 0 -30 5 -30 10 0
6 9 10 20 10 11 0 20 5 20 10 0 6 -9 10 -20 10 -13 0 -20 7 -20 20 0 11 -7 20
-15 20 -9 0 -15 -9 -15 -25z"/>
<path d="M697 1626 c-7 -17 2 -56 13 -56 8 0 20 34 20 58 0 17 -27 15 -33 -2z"/>
<path d="M601 1270 c-6 -21 -27 -60 -47 -86 -38 -49 -39 -63 -4 -44 21 11 21
11 19 -64 -2 -41 0 -78 4 -82 4 -4 19 3 33 17 14 13 34 23 45 21 21 -4 26 17
7 36 -16 16 -28 15 -28 -2 0 -7 -9 -16 -20 -19 -16 -4 -20 0 -20 19 0 23 4 26
44 28 13 1 22 12 28 35 14 51 5 64 -40 56 -24 -4 -34 -3 -27 3 6 6 19 12 29
14 11 1 21 9 24 17 3 9 -1 11 -17 6 -16 -5 -20 -3 -15 9 7 18 20 21 29 6 9
-15 35 -12 35 4 0 8 -9 17 -19 21 -10 3 -21 15 -24 25 -8 32 -23 23 -36 -20z
m39 -110 c0 -5 -10 -10 -22 -10 -19 0 -20 2 -8 10 19 13 30 13 30 0z m-15 -40
c-28 -12 -37 -12 -30 0 3 6 16 10 28 9 21 0 21 -1 2 -9z"/>
<path d="M740 1285 c0 -16 -6 -25 -15 -25 -8 0 -15 -4 -15 -10 0 -5 7 -10 15
-10 8 0 15 -4 15 -10 0 -5 -11 -10 -25 -10 -14 0 -25 -5 -25 -11 0 -8 15 -10
46 -5 26 3 57 6 70 6 13 0 24 5 24 10 0 6 -13 10 -30 10 -16 0 -30 5 -30 10 0
6 9 10 20 10 11 0 20 5 20 10 0 6 -9 10 -20 10 -13 0 -20 7 -20 20 0 11 -7 20
-15 20 -9 0 -15 -9 -15 -25z"/>
<path d="M696 1174 c-3 -9 -3 -21 0 -26 4 -6 -1 -17 -11 -24 -27 -20 -11 -29
25 -14 28 12 41 30 21 30 -4 0 -6 11 -3 25 5 29 -22 36 -32 9z"/>
<path d="M601 820 c-6 -21 -27 -60 -47 -86 -38 -49 -39 -63 -4 -44 21 11 21
11 19 -64 -2 -41 0 -78 4 -82 4 -4 19 3 33 17 14 13 34 23 45 21 21 -4 26 17
7 36 -16 16 -28 15 -28 -2 0 -7 -9 -16 -20 -19 -16 -4 -20 0 -20 19 0 23 4 26
44 28 13 1 22 12 28 35 14 51 5 64 -40 56 -24 -4 -34 -3 -27 3 6 6 19 12 29
14 11 1 21 9 24 17 3 9 -1 11 -17 6 -16 -5 -20 -3 -15 9 7 18 20 21 29 6 9
-15 35 -12 35 4 0 8 -9 17 -19 21 -10 3 -21 15 -24 25 -8 32 -23 23 -36 -20z
m39 -110 c0 -5 -10 -10 -22 -10 -19 0 -20 2 -8 10 19 13 30 13 30 0z m-15 -40
c-28 -12 -37 -12 -30 0 3 6 16 10 28 9 21 0 21 -1 2 -9z"/>
<path d="M740 835 c0 -16 -6 -25 -15 -25 -8 0 -15 -4 -15 -10 0 -5 7 -10 15
-10 8 0 15 -4 15 -10 0 -5 -11 -10 -25 -10 -14 0 -25 -5 -25 -11 0 -8 15 -10
46 -5 26 3 57 6 70 6 13 0 24 5 24 10 0 6 -13 10 -30 10 -16 0 -30 5 -30 10 0
6 9 10 20 10 11 0 20 5 20 10 0 6 -9 10 -20 10 -13 0 -20 7 -20 20 0 11 -7 20
-15 20 -9 0 -15 -9 -15 -25z"/>
<path d="M696 724 c-3 -9 -3 -21 0 -26 4 -6 -1 -17 -11 -24 -27 -20 -11 -29
25 -14 28 12 41 30 21 30 -4 0 -6 11 -3 25 5 29 -22 36 -32 9z"/>
<path d="M770 720 c0 -5 11 -10 25 -10 14 0 25 5 25 10 0 6 -11 10 -25 10 -14
0 -25 -4 -25 -10z"/>
<path d="M601 370 c-6 -21 -27 -60 -47 -86 -38 -49 -39 -63 -4 -44 21 11 21
11 19 -64 -2 -41 0 -78 4 -82 4 -4 19 3 33 17 14 13 34 23 45 21 21 -4 26 17
7 36 -16 16 -28 15 -28 -2 0 -7 -9 -16 -20 -19 -16 -4 -20 0 -20 19 0 23 4 26
44 28 13 1 22 12 28 35 14 51 5 64 -40 56 -24 -4 -34 -3 -27 3 6 6 19 12 29
14 11 1 21 9 24 17 3 9 -1 11 -17 6 -16 -5 -20 -3 -15 9 7 18 20 21 29 6 9
-15 35 -12 35 4 0 8 -9 17 -19 21 -10 3 -21 15 -24 25 -8 32 -23 23 -36 -20z
m39 -110 c0 -5 -10 -10 -22 -10 -19 0 -20 2 -8 10 19 13 30 13 30 0z m-15 -40
c-28 -12 -37 -12 -30 0 3 6 16 10 28 9 21 0 21 -1 2 -9z"/>
<path d="M740 385 c0 -16 -6 -25 -15 -25 -8 0 -15 -4 -15 -10 0 -5 7 -10 15
-10 8 0 15 -4 15 -10 0 -5 -11 -10 -25 -10 -14 0 -25 -5 -25 -11 0 -8 16 -10
50 -5 40 5 50 4 50 -8 0 -8 -6 -17 -12 -20 -10 -5 -10 -7 0 -12 6 -3 12 -12
12 -20 0 -8 7 -14 16 -14 13 0 15 8 12 40 -2 22 0 40 4 40 5 0 8 5 8 10 0 6
-13 10 -30 10 -16 0 -30 5 -30 10 0 6 9 10 20 10 11 0 20 5 20 10 0 6 -9 10
-20 10 -13 0 -20 7 -20 20 0 11 -7 20 -15 20 -9 0 -15 -9 -15 -25z"/>
<path d="M696 274 c-3 -9 -3 -21 0 -26 4 -6 -1 -17 -11 -24 -27 -20 -11 -29
25 -14 28 12 41 30 21 30 -4 0 -6 11 -3 25 5 29 -22 36 -32 9z"/>
</g>
</svg>
