<?xml version="1.0" standalone="no"?>
<!DOCTYPE svg PUBLIC "-//W3C//DTD SVG 20010904//EN"
 "http://www.w3.org/TR/2001/REC-SVG-20010904/DTD/svg10.dtd">
<svg version="1.0" xmlns="http://www.w3.org/2000/svg"
 width="50.000000pt" height="725.000000pt" viewBox="0 0 50.000000 725.000000"
 preserveAspectRatio="xMidYMid meet">
<metadata>
Created by potrace 1.16, written by Peter Selinger 2001-2019
</metadata>
<g transform="translate(0.000000,725.000000) scale(0.100000,-0.100000)"
fill="#000000" stroke="none">
<path d="M265 7150 c-16 -11 -38 -20 -47 -20 -10 0 -18 -5 -18 -11 0 -7 12 -9
36 -4 56 10 86 24 82 37 -7 19 -21 19 -53 -2z"/>
<path d="M265 6700 c-16 -11 -38 -20 -47 -20 -10 0 -18 -5 -18 -11 0 -7 12 -9
36 -4 56 10 86 24 82 37 -7 19 -21 19 -53 -2z"/>
<path d="M237 6631 c-63 -9 -106 -20 -104 -26 2 -5 13 -9 23 -9 52 3 229 26
234 30 6 7 -22 24 -35 22 -5 0 -58 -8 -118 -17z"/>
<path d="M265 6250 c-16 -11 -38 -20 -47 -20 -10 0 -18 -4 -18 -10 0 -5 11
-10 25 -10 15 0 25 -6 25 -14 0 -14 -42 -26 -92 -26 -19 0 -28 -4 -25 -12 4
-13 19 -14 82 -6 30 3 30 2 27 -39 -3 -34 0 -43 12 -43 12 0 16 10 16 44 l0
44 60 7 c33 4 60 11 60 15 0 15 -30 19 -75 11 -40 -8 -45 -7 -45 11 0 11 11
23 26 28 14 6 24 15 22 22 -7 19 -21 19 -53 -2z"/>
<path d="M265 5800 c-16 -11 -38 -20 -47 -20 -10 0 -18 -4 -18 -10 0 -5 11
-10 25 -10 15 0 25 -6 25 -14 0 -14 -42 -26 -92 -26 -19 0 -28 -4 -25 -12 3
-9 19 -12 48 -10 l44 4 -25 -27 c-14 -15 -37 -34 -52 -43 -16 -9 -28 -20 -28
-25 0 -14 43 4 83 34 l37 30 0 -26 c0 -16 6 -25 15 -25 11 0 15 12 15 44 l0
44 60 7 c33 4 60 11 60 15 0 15 -30 19 -75 11 -40 -8 -45 -7 -45 11 0 11 11
23 26 28 14 6 24 15 22 22 -7 19 -21 19 -53 -2z"/>
<path d="M265 5350 c-16 -11 -38 -20 -47 -20 -10 0 -18 -4 -18 -10 0 -5 11
-10 25 -10 15 0 25 -6 25 -14 0 -14 -42 -26 -92 -26 -19 0 -28 -4 -25 -12 3
-9 19 -12 48 -10 l44 4 -25 -27 c-14 -15 -37 -34 -52 -43 -16 -9 -28 -20 -28
-25 0 -14 43 4 83 34 l37 30 0 -26 c0 -16 6 -25 15 -25 11 0 15 11 15 35 l0
36 61 -42 c47 -32 64 -38 72 -29 15 15 -24 47 -86 71 l-42 17 58 7 c31 4 57
11 57 15 0 15 -30 19 -75 11 -40 -8 -45 -7 -45 11 0 11 11 23 26 28 14 6 24
15 22 22 -7 19 -21 19 -53 -2z"/>
<path d="M265 4900 c-16 -11 -38 -20 -47 -20 -10 0 -18 -4 -18 -10 0 -5 11
-10 25 -10 15 0 25 -6 25 -14 0 -14 -42 -26 -92 -26 -19 0 -28 -4 -25 -12 3
-9 19 -12 48 -10 l44 4 -25 -27 c-14 -15 -37 -34 -52 -43 -16 -9 -28 -20 -28
-25 0 -14 43 4 83 34 l37 30 0 -26 c0 -16 6 -25 15 -25 11 0 15 11 15 35 l0
36 61 -42 c47 -32 64 -38 72 -29 15 15 -24 47 -86 71 l-42 17 58 7 c31 4 57
11 57 15 0 15 -30 19 -75 11 -40 -8 -45 -7 -45 11 0 11 11 23 26 28 14 6 24
15 22 22 -7 19 -21 19 -53 -2z"/>
<path d="M193 4650 c-2 -66 7 -90 21 -54 12 30 7 124 -6 124 -9 0 -14 -22 -15
-70z"/>
<path d="M265 4450 c-16 -11 -38 -20 -47 -20 -10 0 -18 -4 -18 -10 0 -5 11
-10 25 -10 15 0 25 -6 25 -14 0 -14 -42 -26 -92 -26 -19 0 -28 -4 -25 -12 3
-9 19 -12 48 -10 l44 4 -25 -27 c-14 -15 -37 -34 -52 -43 -16 -9 -28 -20 -28
-25 0 -14 43 4 83 34 l37 30 0 -26 c0 -19 -5 -25 -22 -25 -22 0 -23 -5 -25
-70 -1 -39 2 -70 7 -70 12 0 20 28 20 75 0 36 4 44 23 49 50 13 57 9 57 -39 0
-25 -4 -45 -10 -45 -14 0 -12 -13 5 -36 22 -29 35 -2 35 79 l0 67 -30 0 c-27
0 -30 3 -30 30 l0 31 61 -42 c47 -32 64 -38 72 -29 15 15 -24 47 -86 71 l-42
17 58 7 c31 4 57 11 57 15 0 15 -30 19 -75 11 -40 -8 -45 -7 -45 11 0 11 11
23 26 28 14 6 24 15 22 22 -7 19 -21 19 -53 -2z"/>
<path d="M265 4000 c-16 -11 -38 -20 -47 -20 -10 0 -18 -4 -18 -10 0 -5 11
-10 25 -10 15 0 25 -6 25 -14 0 -14 -42 -26 -92 -26 -19 0 -28 -4 -25 -12 3
-9 19 -12 48 -10 l44 4 -25 -27 c-14 -15 -37 -34 -52 -43 -16 -9 -28 -20 -28
-25 0 -14 43 4 83 34 l37 30 0 -26 c0 -19 -5 -25 -22 -25 -22 0 -23 -5 -25
-70 -1 -39 2 -70 7 -70 10 0 20 25 20 51 0 13 7 19 24 19 13 0 31 3 40 6 12 4
16 0 16 -15 0 -12 -4 -21 -10 -21 -14 0 -12 -13 5 -36 22 -29 35 -2 35 79 l0
67 -30 0 c-27 0 -30 3 -30 30 l0 31 61 -42 c47 -32 64 -38 72 -29 15 15 -24
47 -86 71 l-42 17 58 7 c31 4 57 11 57 15 0 15 -30 19 -75 11 -40 -8 -45 -7
-45 11 0 11 11 23 26 28 14 6 24 15 22 22 -7 19 -21 19 -53 -2z m35 -205 c0
-8 -4 -15 -9 -15 -5 0 -23 -3 -40 -6 -24 -5 -31 -3 -31 9 0 16 18 24 58 26 13
1 22 -5 22 -14z"/>
<path d="M265 3550 c-16 -11 -38 -20 -47 -20 -10 0 -18 -4 -18 -10 0 -5 11
-10 25 -10 15 0 25 -6 25 -14 0 -14 -42 -26 -92 -26 -19 0 -28 -4 -25 -12 3
-9 19 -12 48 -10 l44 4 -25 -27 c-14 -15 -37 -34 -52 -43 -16 -9 -28 -20 -28
-25 0 -14 43 4 83 34 l37 30 0 -26 c0 -19 -5 -25 -22 -25 -22 0 -23 -5 -25
-70 -2 -64 6 -86 22 -60 10 17 67 11 81 -7 21 -28 34 1 34 80 l0 67 -30 0
c-27 0 -30 3 -30 30 l0 31 61 -42 c47 -32 64 -38 72 -29 15 15 -24 47 -86 71
l-42 17 58 7 c31 4 57 11 57 15 0 15 -30 19 -75 11 -40 -8 -45 -7 -45 11 0 11
11 23 26 28 14 6 24 15 22 22 -7 19 -21 19 -53 -2z m35 -205 c0 -8 -4 -15 -9
-15 -5 0 -23 -3 -40 -6 -24 -5 -31 -3 -31 9 0 16 18 24 58 26 13 1 22 -5 22
-14z m0 -55 c0 -17 -7 -20 -40 -20 -50 0 -57 27 -7 33 17 2 35 5 40 5 4 1 7
-7 7 -18z"/>
</g>
</svg>
