<?xml version="1.0" standalone="no"?>
<!DOCTYPE svg PUBLIC "-//W3C//DTD SVG 20010904//EN"
 "http://www.w3.org/TR/2001/REC-SVG-20010904/DTD/svg10.dtd">
<svg version="1.0" xmlns="http://www.w3.org/2000/svg"
 width="50.000000pt" height="725.000000pt" viewBox="0 0 50.000000 725.000000"
 preserveAspectRatio="xMidYMid meet">
<metadata>
Created by potrace 1.16, written by Peter Selinger 2001-2019
</metadata>
<g transform="translate(0.000000,725.000000) scale(0.100000,-0.100000)"
fill="#000000" stroke="none">
<path d="M120 7073 c0 -32 -3 -68 -6 -80 -5 -16 -2 -23 9 -23 11 0 16 18 21
70 4 38 4 74 1 80 -15 24 -25 6 -25 -47z"/>
<path d="M185 6679 c-16 -5 -38 -6 -47 -3 -16 5 -18 -2 -18 -53 0 -32 -3 -68
-6 -80 -5 -16 -2 -23 8 -23 11 0 17 17 22 62 3 34 8 64 11 66 3 3 21 8 42 11
20 3 38 12 41 19 4 14 -10 14 -53 1z"/>
<path d="M185 6229 c-16 -5 -38 -6 -47 -3 -16 5 -18 -2 -18 -53 0 -32 -3 -68
-6 -80 -5 -16 -2 -23 8 -23 11 0 17 17 22 62 3 34 8 64 11 66 3 3 21 8 42 11
20 3 38 12 41 19 4 14 -10 14 -53 1z"/>
<path d="M183 6183 c-13 -2 -23 -9 -23 -14 0 -15 63 -6 68 9 4 12 -4 13 -45 5z"/>
<path d="M185 5779 c-16 -5 -38 -6 -47 -3 -16 5 -18 -2 -18 -53 0 -32 -3 -68
-6 -80 -5 -17 -2 -23 10 -23 10 0 16 9 16 25 0 21 5 25 29 25 35 0 61 9 61 21
0 5 -20 6 -43 3 l-44 -6 5 31 c4 31 10 35 66 43 22 3 35 28 14 27 -7 0 -26 -5
-43 -10z"/>
<path d="M183 5733 c-13 -2 -23 -9 -23 -14 0 -15 63 -6 68 9 4 12 -4 13 -45 5z"/>
<path d="M185 5329 c-16 -5 -38 -6 -47 -3 -16 5 -18 -2 -18 -53 0 -32 -3 -68
-6 -80 -5 -17 -2 -23 10 -23 10 0 16 9 16 25 0 16 6 25 15 25 8 0 15 -7 15
-15 0 -21 9 -19 36 11 29 30 29 34 7 34 -17 1 -17 1 0 11 21 12 22 29 2 29
-22 0 -18 17 5 23 22 6 28 28 8 26 -7 0 -26 -5 -43 -10z m-18 -59 c0 -16 -6
-30 -12 -30 -7 0 -10 11 -7 30 2 17 8 30 11 30 4 0 8 -13 8 -30z"/>
<path d="M185 4879 c-16 -5 -38 -6 -47 -3 -16 5 -18 -2 -18 -53 0 -32 -3 -69
-7 -81 -6 -23 -5 -24 52 -17 l57 8 -7 -44 c-9 -53 -12 -59 -31 -59 -18 0 -18
-14 2 -30 23 -20 40 4 52 75 11 67 9 75 -19 75 -23 0 -26 18 -4 26 21 8 19 24
-2 24 -17 1 -17 1 0 11 21 12 22 29 2 29 -22 0 -18 17 5 23 22 6 28 28 8 26
-7 0 -26 -5 -43 -10z m-18 -59 c0 -16 -6 -30 -12 -30 -7 0 -10 11 -7 30 2 17
8 30 11 30 4 0 8 -13 8 -30z m1 -62 c-6 -18 -28 -21 -28 -4 0 9 7 16 16 16 9
0 14 -5 12 -12z"/>
<path d="M185 4429 c-16 -5 -38 -6 -47 -3 -16 5 -18 -2 -18 -53 0 -32 -3 -69
-7 -81 -6 -23 -5 -24 52 -17 l57 8 -7 -44 c-9 -53 -12 -59 -31 -59 -18 0 -18
-14 2 -30 23 -20 40 4 52 75 11 67 9 75 -19 75 -23 0 -26 18 -4 26 21 8 19 24
-2 24 -17 1 -17 1 0 11 21 12 22 29 2 29 -22 0 -18 17 5 23 22 6 28 28 8 26
-7 0 -26 -5 -43 -10z m-18 -59 c0 -16 -6 -30 -12 -30 -7 0 -10 11 -7 30 2 17
8 30 11 30 4 0 8 -13 8 -30z m1 -62 c-6 -18 -28 -21 -28 -4 0 9 7 16 16 16 9
0 14 -5 12 -12z"/>
<path d="M76 4238 c-9 -36 -7 -48 9 -48 10 0 15 11 15 35 0 39 -14 47 -24 13z"/>
<path d="M185 3979 c-16 -5 -38 -6 -47 -3 -16 5 -18 -2 -18 -53 0 -32 -3 -69
-7 -81 -6 -23 -5 -24 52 -17 l57 8 -7 -44 c-9 -53 -12 -59 -31 -59 -18 0 -18
-14 2 -30 23 -20 40 4 52 75 11 67 9 75 -19 75 -23 0 -26 18 -4 26 21 8 19 24
-2 24 -17 1 -17 1 0 11 21 12 22 29 2 29 -22 0 -18 17 5 23 22 6 28 28 8 26
-7 0 -26 -5 -43 -10z m-18 -59 c0 -16 -6 -30 -12 -30 -7 0 -10 11 -7 30 2 17
8 30 11 30 4 0 8 -13 8 -30z m1 -62 c-6 -18 -28 -21 -28 -4 0 9 7 16 16 16 9
0 14 -5 12 -12z"/>
<path d="M76 3788 c-9 -36 -7 -48 9 -48 10 0 15 11 15 35 0 39 -14 47 -24 13z"/>
<path d="M110 3793 c0 -5 4 -15 10 -23 11 -18 25 -7 17 15 -6 15 -27 21 -27 8z"/>
<path d="M185 3529 c-16 -5 -38 -6 -47 -3 -16 5 -18 -2 -18 -53 0 -32 -3 -69
-7 -81 -6 -23 -5 -24 52 -17 l57 8 -7 -44 c-9 -53 -12 -59 -31 -59 -18 0 -18
-14 2 -30 23 -20 40 4 52 75 11 67 9 75 -19 75 -23 0 -26 18 -4 26 21 8 19 24
-2 24 -17 1 -17 1 0 11 21 12 22 29 2 29 -22 0 -18 17 5 23 22 6 28 28 8 26
-7 0 -26 -5 -43 -10z m-18 -59 c0 -16 -6 -30 -12 -30 -7 0 -10 11 -7 30 2 17
8 30 11 30 4 0 8 -13 8 -30z m1 -62 c-6 -18 -28 -21 -28 -4 0 9 7 16 16 16 9
0 14 -5 12 -12z"/>
<path d="M76 3338 c-9 -36 -7 -48 9 -48 10 0 15 11 15 35 0 39 -14 47 -24 13z"/>
<path d="M140 3353 c0 -5 4 -15 10 -23 11 -18 25 -7 17 15 -6 15 -27 21 -27 8z"/>
<path d="M110 3343 c0 -5 4 -15 10 -23 11 -18 25 -7 17 15 -6 15 -27 21 -27 8z"/>
<path d="M185 3079 c-16 -5 -38 -6 -47 -3 -16 5 -18 -2 -18 -53 0 -32 -3 -69
-7 -81 -6 -23 -5 -24 51 -17 54 7 56 7 55 -16 0 -13 -3 -18 -6 -11 -5 14 -33
17 -33 3 0 -5 7 -17 16 -26 18 -18 12 -45 -11 -45 -19 0 -19 -14 1 -30 23 -20
40 4 52 75 11 67 9 75 -19 75 -23 0 -26 18 -4 26 21 8 19 24 -2 24 -17 1 -17
1 0 11 21 12 22 29 2 29 -22 0 -18 17 5 23 22 6 28 28 8 26 -7 0 -26 -5 -43
-10z m-18 -59 c0 -16 -6 -30 -12 -30 -7 0 -10 11 -7 30 2 17 8 30 11 30 4 0 8
-13 8 -30z m1 -62 c-6 -18 -28 -21 -28 -4 0 9 7 16 16 16 9 0 14 -5 12 -12z"/>
<path d="M76 2888 c-9 -36 -7 -48 9 -48 10 0 15 11 15 35 0 39 -14 47 -24 13z"/>
<path d="M140 2903 c0 -5 4 -15 10 -23 11 -18 25 -7 17 15 -6 15 -27 21 -27 8z"/>
<path d="M110 2893 c0 -5 4 -15 10 -23 11 -18 25 -7 17 15 -6 15 -27 21 -27 8z"/>
<path d="M335 2629 c-4 -12 -23 -39 -42 -60 -20 -22 -33 -42 -30 -45 17 -18
116 93 102 115 -10 17 -23 13 -30 -10z"/>
<path d="M185 2629 c-16 -5 -38 -6 -47 -3 -16 5 -18 -2 -18 -53 0 -32 -3 -69
-7 -81 -6 -23 -5 -24 51 -17 54 7 56 7 55 -16 0 -13 -3 -18 -6 -11 -5 14 -33
17 -33 3 0 -5 7 -17 16 -26 18 -18 12 -45 -11 -45 -19 0 -19 -14 1 -30 23 -20
40 4 52 75 11 67 9 75 -19 75 -23 0 -26 18 -4 26 21 8 19 24 -2 24 -17 1 -17
1 0 11 21 12 22 29 2 29 -22 0 -18 17 5 23 22 6 28 28 8 26 -7 0 -26 -5 -43
-10z m-18 -59 c0 -16 -6 -30 -12 -30 -7 0 -10 11 -7 30 2 17 8 30 11 30 4 0 8
-13 8 -30z m1 -62 c-6 -18 -28 -21 -28 -4 0 9 7 16 16 16 9 0 14 -5 12 -12z"/>
<path d="M76 2438 c-9 -36 -7 -48 9 -48 10 0 15 11 15 35 0 39 -14 47 -24 13z"/>
<path d="M140 2453 c0 -5 4 -15 10 -23 11 -18 25 -7 17 15 -6 15 -27 21 -27 8z"/>
<path d="M110 2443 c0 -5 4 -15 10 -23 11 -18 25 -7 17 15 -6 15 -27 21 -27 8z"/>
<path d="M340 2192 c0 -5 -6 -16 -13 -26 -11 -16 -17 -17 -36 -6 -31 16 -40 3
-12 -16 l22 -16 -22 -24 c-30 -32 -18 -42 19 -15 29 20 29 20 47 1 10 -11 24
-20 32 -20 21 0 15 27 -11 47 -21 16 -22 20 -9 40 8 12 12 27 8 33 -7 12 -25
14 -25 2z"/>
<path d="M185 2179 c-16 -5 -38 -6 -47 -3 -16 5 -18 -2 -18 -53 0 -32 -3 -69
-7 -81 -6 -23 -5 -24 51 -17 54 7 56 7 55 -16 0 -13 -3 -18 -6 -11 -5 14 -33
17 -33 3 0 -5 7 -17 16 -26 18 -18 12 -45 -11 -45 -19 0 -19 -14 1 -30 23 -20
40 4 52 75 11 67 9 75 -19 75 -23 0 -26 18 -4 26 21 8 19 24 -2 24 -17 1 -17
1 0 11 21 12 22 29 2 29 -22 0 -18 17 5 23 22 6 28 28 8 26 -7 0 -26 -5 -43
-10z m-18 -59 c0 -16 -6 -30 -12 -30 -7 0 -10 11 -7 30 2 17 8 30 11 30 4 0 8
-13 8 -30z m1 -62 c-6 -18 -28 -21 -28 -4 0 9 7 16 16 16 9 0 14 -5 12 -12z"/>
<path d="M76 1988 c-9 -36 -7 -48 9 -48 10 0 15 11 15 35 0 39 -14 47 -24 13z"/>
<path d="M140 2003 c0 -5 4 -15 10 -23 11 -18 25 -7 17 15 -6 15 -27 21 -27 8z"/>
<path d="M110 1993 c0 -5 4 -15 10 -23 11 -18 25 -7 17 15 -6 15 -27 21 -27 8z"/>
<path d="M340 1742 c0 -5 -6 -16 -13 -26 -11 -16 -17 -17 -36 -6 -31 16 -40 3
-12 -16 l22 -16 -22 -24 c-30 -32 -18 -42 19 -15 29 20 29 20 47 1 10 -11 24
-20 32 -20 21 0 15 27 -11 47 -21 16 -22 20 -9 40 8 12 12 27 8 33 -7 12 -25
14 -25 2z"/>
<path d="M185 1729 c-16 -5 -38 -6 -47 -3 -16 5 -18 -2 -18 -53 0 -32 -3 -69
-7 -81 -6 -23 -5 -24 51 -17 54 7 56 7 55 -16 0 -13 -3 -18 -6 -11 -5 14 -33
17 -33 3 0 -5 7 -17 16 -26 18 -18 12 -45 -11 -45 -19 0 -19 -14 1 -30 23 -20
40 4 52 75 11 67 9 75 -19 75 -23 0 -26 18 -4 26 21 8 19 24 -2 24 -17 1 -17
1 0 11 21 12 22 29 2 29 -22 0 -18 17 5 23 22 6 28 28 8 26 -7 0 -26 -5 -43
-10z m-18 -59 c0 -16 -6 -30 -12 -30 -7 0 -10 11 -7 30 2 17 8 30 11 30 4 0 8
-13 8 -30z m1 -62 c-6 -18 -28 -21 -28 -4 0 9 7 16 16 16 9 0 14 -5 12 -12z"/>
<path d="M330 1595 c0 -37 -24 -78 -54 -95 -32 -17 -34 -34 -3 -25 47 15 106
98 93 132 -10 24 -36 15 -36 -12z"/>
<path d="M76 1538 c-9 -36 -7 -48 9 -48 10 0 15 11 15 35 0 39 -14 47 -24 13z"/>
<path d="M140 1553 c0 -5 4 -15 10 -23 11 -18 25 -7 17 15 -6 15 -27 21 -27 8z"/>
<path d="M110 1543 c0 -5 4 -15 10 -23 11 -18 25 -7 17 15 -6 15 -27 21 -27 8z"/>
<path d="M340 1292 c0 -5 -6 -16 -13 -26 -11 -16 -17 -17 -36 -6 -31 16 -40 3
-12 -16 l22 -16 -22 -24 c-30 -32 -18 -42 19 -15 29 20 29 20 47 1 10 -11 24
-20 32 -20 21 0 15 27 -11 47 -21 16 -22 20 -9 40 8 12 12 27 8 33 -7 12 -25
14 -25 2z"/>
<path d="M185 1279 c-16 -5 -38 -6 -47 -3 -16 5 -18 -2 -18 -53 0 -32 -3 -69
-7 -81 -6 -23 -5 -24 51 -17 54 7 56 7 55 -16 0 -13 -3 -18 -6 -11 -5 14 -33
17 -33 3 0 -5 7 -17 16 -26 18 -18 12 -45 -11 -45 -19 0 -19 -14 1 -30 23 -20
40 4 52 75 11 67 9 75 -19 75 -23 0 -26 18 -4 26 21 8 19 24 -2 24 -17 1 -17
1 0 11 21 12 22 29 2 29 -22 0 -18 17 5 23 22 6 28 28 8 26 -7 0 -26 -5 -43
-10z m-18 -59 c0 -16 -6 -30 -12 -30 -7 0 -10 11 -7 30 2 17 8 30 11 30 4 0 8
-13 8 -30z m1 -62 c-6 -18 -28 -21 -28 -4 0 9 7 16 16 16 9 0 14 -5 12 -12z"/>
<path d="M330 1141 c0 -35 -6 -38 -32 -14 -27 25 -33 8 -9 -26 l21 -30 -30
-17 c-16 -10 -30 -22 -30 -27 0 -10 39 1 58 16 10 8 19 4 35 -17 17 -21 29
-27 51 -24 42 4 41 20 -2 43 -38 21 -39 22 -30 95 2 17 -2 25 -14 28 -14 3
-18 -3 -18 -27z"/>
<path d="M76 1088 c-9 -36 -7 -48 9 -48 10 0 15 11 15 35 0 39 -14 47 -24 13z"/>
<path d="M140 1103 c0 -5 4 -15 10 -23 11 -18 25 -7 17 15 -6 15 -27 21 -27 8z"/>
<path d="M110 1093 c0 -5 4 -15 10 -23 11 -18 25 -7 17 15 -6 15 -27 21 -27 8z"/>
</g>
</svg>
