<?xml version="1.0" standalone="no"?>
<!DOCTYPE svg PUBLIC "-//W3C//DTD SVG 20010904//EN"
 "http://www.w3.org/TR/2001/REC-SVG-20010904/DTD/svg10.dtd">
<svg version="1.0" xmlns="http://www.w3.org/2000/svg"
 width="50.000000pt" height="725.000000pt" viewBox="0 0 50.000000 725.000000"
 preserveAspectRatio="xMidYMid meet">
<metadata>
Created by potrace 1.16, written by Peter Selinger 2001-2019
</metadata>
<g transform="translate(0.000000,725.000000) scale(0.100000,-0.100000)"
fill="#000000" stroke="none">
<path d="M114 7050 c0 -54 3 -79 10 -77 14 5 15 149 1 154 -6 2 -10 -29 -11
-77z"/>
<path d="M180 6679 c-19 -4 -42 -6 -50 -4 -12 4 -15 -9 -16 -75 -1 -97 19
-106 24 -12 3 66 3 66 71 74 14 2 26 9 29 16 4 13 -7 14 -58 1z"/>
<path d="M180 6229 c-19 -4 -42 -6 -50 -4 -12 4 -15 -9 -16 -75 0 -54 3 -79
10 -77 6 2 12 22 14 44 3 40 4 41 48 48 24 3 44 11 44 17 0 7 -16 8 -45 4 -29
-5 -45 -3 -45 3 0 10 22 18 69 23 14 2 26 9 29 16 4 13 -7 14 -58 1z"/>
<path d="M180 5779 c-19 -4 -42 -6 -50 -4 -12 4 -15 -9 -16 -75 0 -54 3 -79
10 -77 6 2 12 13 14 24 2 16 13 22 48 28 24 3 44 11 44 17 0 7 -16 8 -45 4
-26 -4 -45 -3 -45 2 0 5 20 13 45 16 25 4 45 12 45 18 0 7 -16 8 -45 4 -29 -5
-45 -3 -45 3 0 10 22 18 69 23 14 2 26 9 29 16 4 13 -7 14 -58 1z"/>
<path d="M180 5329 c-19 -4 -42 -6 -50 -4 -12 4 -15 -9 -16 -75 0 -54 3 -79
10 -77 6 2 12 13 14 25 4 25 32 31 32 7 0 -8 5 -15 10 -15 6 0 10 9 10 20 0
13 7 20 20 20 27 0 25 18 -2 23 l-23 4 23 8 c12 4 22 11 22 15 0 5 -10 10 -22
13 -22 3 -22 4 5 15 15 6 27 16 27 22 0 11 -11 11 -60 -1z m-10 -39 c0 -5 -7
-10 -15 -10 -8 0 -15 5 -15 10 0 6 7 10 15 10 8 0 15 -4 15 -10z m-5 -40 c-3
-5 -10 -10 -16 -10 -5 0 -9 5 -9 10 0 6 7 10 16 10 8 0 12 -4 9 -10z"/>
<path d="M180 4879 c-19 -4 -42 -6 -50 -4 -12 4 -15 -9 -16 -76 l-1 -80 31 7
c60 14 71 11 68 -16 -6 -52 -13 -70 -27 -70 -17 0 -19 -9 -6 -29 23 -36 55 19
63 109 3 32 0 35 -24 38 -32 4 -38 22 -8 22 27 0 25 18 -2 23 l-23 4 23 8 c12
4 22 11 22 15 0 5 -10 10 -22 13 -22 3 -22 4 5 15 15 6 27 16 27 22 0 11 -11
11 -60 -1z m-10 -39 c0 -5 -7 -10 -15 -10 -8 0 -15 5 -15 10 0 6 7 10 15 10 8
0 15 -4 15 -10z m-5 -40 c-3 -5 -10 -10 -16 -10 -5 0 -9 5 -9 10 0 6 7 10 16
10 8 0 12 -4 9 -10z m0 -40 c-3 -5 -10 -10 -16 -10 -5 0 -9 5 -9 10 0 6 7 10
16 10 8 0 12 -4 9 -10z"/>
<path d="M180 4429 c-19 -4 -42 -6 -50 -4 -12 4 -15 -9 -16 -76 l-1 -80 31 7
c60 14 71 11 68 -16 -6 -52 -13 -70 -27 -70 -17 0 -19 -9 -6 -29 23 -36 55 19
63 109 3 32 0 35 -24 38 -32 4 -38 22 -8 22 27 0 25 18 -2 23 l-23 4 23 8 c12
4 22 11 22 15 0 5 -10 10 -22 13 -22 3 -22 4 5 15 15 6 27 16 27 22 0 11 -11
11 -60 -1z m-10 -39 c0 -5 -7 -10 -15 -10 -8 0 -15 5 -15 10 0 6 7 10 15 10 8
0 15 -4 15 -10z m-5 -40 c-3 -5 -10 -10 -16 -10 -5 0 -9 5 -9 10 0 6 7 10 16
10 8 0 12 -4 9 -10z m0 -40 c-3 -5 -10 -10 -16 -10 -5 0 -9 5 -9 10 0 6 7 10
16 10 8 0 12 -4 9 -10z"/>
<path d="M76 4244 c-10 -27 -7 -56 7 -52 14 5 23 68 9 68 -6 0 -13 -7 -16 -16z"/>
<path d="M180 3979 c-19 -4 -42 -6 -50 -4 -12 4 -15 -9 -16 -76 l-1 -80 31 7
c60 14 71 11 68 -16 -6 -52 -13 -70 -27 -70 -17 0 -19 -9 -6 -29 23 -36 55 19
63 109 3 32 0 35 -24 38 -32 4 -38 22 -8 22 27 0 25 18 -2 23 l-23 4 23 8 c12
4 22 11 22 15 0 5 -10 10 -22 13 -22 3 -22 4 5 15 15 6 27 16 27 22 0 11 -11
11 -60 -1z m-10 -39 c0 -5 -7 -10 -15 -10 -8 0 -15 5 -15 10 0 6 7 10 15 10 8
0 15 -4 15 -10z m-5 -40 c-3 -5 -10 -10 -16 -10 -5 0 -9 5 -9 10 0 6 7 10 16
10 8 0 12 -4 9 -10z m0 -40 c-3 -5 -10 -10 -16 -10 -5 0 -9 5 -9 10 0 6 7 10
16 10 8 0 12 -4 9 -10z"/>
<path d="M76 3794 c-10 -27 -7 -56 7 -52 14 5 23 68 9 68 -6 0 -13 -7 -16 -16z"/>
<path d="M110 3780 c0 -11 5 -20 10 -20 6 0 10 9 10 20 0 11 -4 20 -10 20 -5
0 -10 -9 -10 -20z"/>
<path d="M180 3529 c-19 -4 -42 -6 -50 -4 -12 4 -15 -9 -16 -76 l-1 -80 31 7
c60 14 71 11 68 -16 -6 -52 -13 -70 -27 -70 -17 0 -19 -9 -6 -29 23 -36 55 19
63 109 3 32 0 35 -24 38 -32 4 -38 22 -8 22 27 0 25 18 -2 23 l-23 4 23 8 c12
4 22 11 22 15 0 5 -10 10 -22 13 -22 3 -22 4 5 15 15 6 27 16 27 22 0 11 -11
11 -60 -1z m-10 -39 c0 -5 -7 -10 -15 -10 -8 0 -15 5 -15 10 0 6 7 10 15 10 8
0 15 -4 15 -10z m-5 -40 c-3 -5 -10 -10 -16 -10 -5 0 -9 5 -9 10 0 6 7 10 16
10 8 0 12 -4 9 -10z m0 -40 c-3 -5 -10 -10 -16 -10 -5 0 -9 5 -9 10 0 6 7 10
16 10 8 0 12 -4 9 -10z"/>
<path d="M76 3344 c-10 -27 -7 -56 7 -52 14 5 23 68 9 68 -6 0 -13 -7 -16 -16z"/>
<path d="M142 3344 c1 -9 9 -19 16 -22 9 -3 13 2 10 14 -1 9 -9 19 -16 22 -9
3 -13 -2 -10 -14z"/>
<path d="M110 3330 c0 -11 5 -20 10 -20 6 0 10 9 10 20 0 11 -4 20 -10 20 -5
0 -10 -9 -10 -20z"/>
<path d="M180 3079 c-19 -4 -42 -6 -50 -4 -12 4 -15 -9 -16 -76 l-1 -80 31 7
c60 14 71 11 68 -16 -6 -52 -13 -70 -27 -70 -17 0 -19 -9 -6 -29 23 -36 55 19
63 109 3 32 0 35 -24 38 -32 4 -38 22 -8 22 27 0 25 18 -2 23 l-23 4 23 8 c12
4 22 11 22 15 0 5 -10 10 -22 13 -22 3 -22 4 5 15 15 6 27 16 27 22 0 11 -11
11 -60 -1z m-10 -39 c0 -5 -7 -10 -15 -10 -8 0 -15 5 -15 10 0 6 7 10 15 10 8
0 15 -4 15 -10z m-5 -40 c-3 -5 -10 -10 -16 -10 -5 0 -9 5 -9 10 0 6 7 10 16
10 8 0 12 -4 9 -10z m0 -40 c-3 -5 -10 -10 -16 -10 -5 0 -9 5 -9 10 0 6 7 10
16 10 8 0 12 -4 9 -10z"/>
<path d="M170 2913 c0 -5 4 -15 10 -23 11 -18 25 -7 17 15 -6 15 -27 21 -27 8z"/>
<path d="M76 2894 c-10 -27 -7 -56 7 -52 14 5 23 68 9 68 -6 0 -13 -7 -16 -16z"/>
<path d="M142 2894 c1 -9 9 -19 16 -22 9 -3 13 2 10 14 -1 9 -9 19 -16 22 -9
3 -13 -2 -10 -14z"/>
<path d="M110 2880 c0 -11 5 -20 10 -20 6 0 10 9 10 20 0 11 -4 20 -10 20 -5
0 -10 -9 -10 -20z"/>
<path d="M180 2629 c-19 -4 -42 -6 -50 -4 -12 4 -15 -9 -16 -76 l-1 -80 31 7
c60 14 71 11 68 -16 -6 -52 -13 -70 -28 -70 -11 0 -14 -5 -10 -16 3 -9 6 -18
6 -20 0 -2 7 -4 15 -4 20 0 31 24 44 94 6 33 19 69 29 80 47 53 64 86 52 101
-17 20 -30 19 -30 -3 0 -31 -58 -112 -80 -112 -11 0 -20 5 -20 10 0 6 9 10 20
10 27 0 25 18 -2 23 l-23 4 23 8 c12 4 22 11 22 15 0 5 -10 10 -22 13 -22 3
-22 4 5 15 15 6 27 16 27 22 0 11 -11 11 -60 -1z m-10 -39 c0 -5 -7 -10 -15
-10 -8 0 -15 5 -15 10 0 6 7 10 15 10 8 0 15 -4 15 -10z m-5 -40 c-3 -5 -10
-10 -16 -10 -5 0 -9 5 -9 10 0 6 7 10 16 10 8 0 12 -4 9 -10z m0 -40 c-3 -5
-10 -10 -16 -10 -5 0 -9 5 -9 10 0 6 7 10 16 10 8 0 12 -4 9 -10z"/>
<path d="M170 2463 c0 -5 4 -15 10 -23 11 -18 25 -7 17 15 -6 15 -27 21 -27 8z"/>
<path d="M76 2444 c-10 -27 -7 -56 7 -52 14 5 23 68 9 68 -6 0 -13 -7 -16 -16z"/>
<path d="M142 2444 c1 -9 9 -19 16 -22 9 -3 13 2 10 14 -1 9 -9 19 -16 22 -9
3 -13 -2 -10 -14z"/>
<path d="M110 2430 c0 -11 5 -20 10 -20 6 0 10 9 10 20 0 11 -4 20 -10 20 -5
0 -10 -9 -10 -20z"/>
<path d="M180 2179 c-19 -4 -42 -6 -50 -4 -12 4 -15 -9 -16 -76 l-1 -80 31 7
c60 14 71 11 68 -16 -6 -52 -13 -70 -28 -70 -11 0 -14 -5 -10 -16 3 -9 6 -18
6 -20 0 -2 7 -4 15 -4 20 0 31 24 44 95 15 79 35 100 25 25 -11 -78 -11 -103
2 -107 14 -5 24 51 24 130 0 44 5 67 21 88 17 24 18 33 9 44 -17 20 -30 19
-30 -3 0 -31 -58 -112 -80 -112 -11 0 -20 5 -20 10 0 6 9 10 20 10 27 0 25 18
-2 23 l-23 4 23 8 c12 4 22 11 22 15 0 5 -10 10 -22 13 -22 3 -22 4 5 15 15 6
27 16 27 22 0 11 -11 11 -60 -1z m-10 -39 c0 -5 -7 -10 -15 -10 -8 0 -15 5
-15 10 0 6 7 10 15 10 8 0 15 -4 15 -10z m-5 -40 c-3 -5 -10 -10 -16 -10 -5 0
-9 5 -9 10 0 6 7 10 16 10 8 0 12 -4 9 -10z m0 -40 c-3 -5 -10 -10 -16 -10 -5
0 -9 5 -9 10 0 6 7 10 16 10 8 0 12 -4 9 -10z"/>
<path d="M170 2013 c0 -5 4 -15 10 -23 11 -18 25 -7 17 15 -6 15 -27 21 -27 8z"/>
<path d="M76 1994 c-10 -27 -7 -56 7 -52 14 5 23 68 9 68 -6 0 -13 -7 -16 -16z"/>
<path d="M142 1994 c1 -9 9 -19 16 -22 9 -3 13 2 10 14 -1 9 -9 19 -16 22 -9
3 -13 -2 -10 -14z"/>
<path d="M110 1980 c0 -11 5 -20 10 -20 6 0 10 9 10 20 0 11 -4 20 -10 20 -5
0 -10 -9 -10 -20z"/>
<path d="M180 1729 c-19 -4 -42 -6 -50 -4 -12 4 -15 -9 -16 -76 l-1 -80 31 7
c60 14 71 11 68 -16 -6 -52 -13 -70 -28 -70 -11 0 -14 -5 -10 -16 3 -9 6 -18
6 -20 0 -2 7 -4 15 -4 20 0 31 24 44 95 15 79 35 100 25 25 -11 -78 -11 -103
2 -107 14 -5 24 51 24 130 0 44 5 67 21 88 17 24 18 33 9 44 -17 20 -30 19
-30 -3 0 -31 -58 -112 -80 -112 -11 0 -20 5 -20 10 0 6 9 10 20 10 27 0 25 18
-2 23 l-23 4 23 8 c12 4 22 11 22 15 0 5 -10 10 -22 13 -22 3 -22 4 5 15 15 6
27 16 27 22 0 11 -11 11 -60 -1z m-10 -39 c0 -5 -7 -10 -15 -10 -8 0 -15 5
-15 10 0 6 7 10 15 10 8 0 15 -4 15 -10z m-5 -40 c-3 -5 -10 -10 -16 -10 -5 0
-9 5 -9 10 0 6 7 10 16 10 8 0 12 -4 9 -10z m0 -40 c-3 -5 -10 -10 -16 -10 -5
0 -9 5 -9 10 0 6 7 10 16 10 8 0 12 -4 9 -10z"/>
<path d="M343 1638 c-40 -8 -60 -28 -30 -28 32 0 127 24 127 31 0 11 -42 10
-97 -3z"/>
<path d="M170 1563 c0 -5 4 -15 10 -23 11 -18 25 -7 17 15 -6 15 -27 21 -27 8z"/>
<path d="M76 1544 c-10 -27 -7 -56 7 -52 14 5 23 68 9 68 -6 0 -13 -7 -16 -16z"/>
<path d="M142 1544 c1 -9 9 -19 16 -22 9 -3 13 2 10 14 -1 9 -9 19 -16 22 -9
3 -13 -2 -10 -14z"/>
<path d="M110 1530 c0 -11 5 -20 10 -20 6 0 10 9 10 20 0 11 -4 20 -10 20 -5
0 -10 -9 -10 -20z"/>
<path d="M363 1266 c8 -52 -1 -74 -34 -81 -38 -9 -38 -29 1 -23 l30 5 0 -64
c0 -56 -2 -63 -20 -63 -25 0 -25 -5 -1 -32 36 -38 50 -18 53 79 3 83 4 88 26
91 30 5 28 22 -3 22 -25 0 -26 1 -19 50 6 47 5 50 -16 50 -20 0 -22 -4 -17
-34z"/>
<path d="M180 1279 c-19 -4 -42 -6 -50 -4 -12 4 -15 -9 -16 -76 l-1 -80 31 7
c60 14 71 11 68 -16 -6 -52 -13 -70 -28 -70 -11 0 -14 -5 -10 -16 3 -9 6 -18
6 -20 0 -2 7 -4 15 -4 20 0 31 24 44 95 15 79 35 100 25 25 -11 -78 -11 -103
2 -107 14 -5 24 51 24 130 0 44 5 67 21 88 17 24 18 33 9 44 -17 20 -30 19
-30 -3 0 -31 -58 -112 -80 -112 -11 0 -20 5 -20 10 0 6 9 10 20 10 27 0 25 18
-2 23 l-23 4 23 8 c12 4 22 11 22 15 0 5 -10 10 -22 13 -22 3 -22 4 5 15 15 6
27 16 27 22 0 11 -11 11 -60 -1z m-10 -39 c0 -5 -7 -10 -15 -10 -8 0 -15 5
-15 10 0 6 7 10 15 10 8 0 15 -4 15 -10z m-5 -40 c-3 -5 -10 -10 -16 -10 -5 0
-9 5 -9 10 0 6 7 10 16 10 8 0 12 -4 9 -10z m0 -40 c-3 -5 -10 -10 -16 -10 -5
0 -9 5 -9 10 0 6 7 10 16 10 8 0 12 -4 9 -10z"/>
<path d="M170 1113 c0 -5 4 -15 10 -23 11 -18 25 -7 17 15 -6 15 -27 21 -27 8z"/>
<path d="M76 1094 c-10 -27 -7 -56 7 -52 14 5 23 68 9 68 -6 0 -13 -7 -16 -16z"/>
<path d="M142 1094 c1 -9 9 -19 16 -22 9 -3 13 2 10 14 -1 9 -9 19 -16 22 -9
3 -13 -2 -10 -14z"/>
<path d="M110 1080 c0 -11 5 -20 10 -20 6 0 10 9 10 20 0 11 -4 20 -10 20 -5
0 -10 -9 -10 -20z"/>
<path d="M363 816 c8 -52 -1 -74 -34 -81 -38 -9 -38 -29 1 -23 l30 5 0 -64 c0
-56 -2 -63 -20 -63 -25 0 -25 -5 -1 -32 36 -38 50 -18 53 79 3 83 4 88 26 91
30 5 28 22 -3 22 -25 0 -26 1 -19 50 6 47 5 50 -16 50 -20 0 -22 -4 -17 -34z"/>
<path d="M180 829 c-19 -4 -42 -6 -50 -4 -12 4 -15 -9 -16 -76 l-1 -80 31 7
c60 14 71 11 68 -16 -6 -52 -13 -70 -28 -70 -11 0 -14 -5 -10 -16 3 -9 6 -18
6 -20 0 -2 7 -4 15 -4 20 0 31 24 44 95 15 79 35 100 25 25 -11 -78 -11 -103
2 -107 14 -5 24 51 24 130 0 44 5 67 21 88 17 24 18 33 9 44 -17 20 -30 19
-30 -3 0 -31 -58 -112 -80 -112 -11 0 -20 5 -20 10 0 6 9 10 20 10 27 0 25 18
-2 23 l-23 4 23 8 c12 4 22 11 22 15 0 5 -10 10 -22 13 -22 3 -22 4 5 15 15 6
27 16 27 22 0 11 -11 11 -60 -1z m-10 -39 c0 -5 -7 -10 -15 -10 -8 0 -15 5
-15 10 0 6 7 10 15 10 8 0 15 -4 15 -10z m-5 -40 c-3 -5 -10 -10 -16 -10 -5 0
-9 5 -9 10 0 6 7 10 16 10 8 0 12 -4 9 -10z m0 -40 c-3 -5 -10 -10 -16 -10 -5
0 -9 5 -9 10 0 6 7 10 16 10 8 0 12 -4 9 -10z"/>
<path d="M302 668 c6 -16 36 -34 44 -26 3 4 4 14 1 23 -7 17 -51 21 -45 3z"/>
<path d="M170 663 c0 -5 4 -15 10 -23 11 -18 25 -7 17 15 -6 15 -27 21 -27 8z"/>
<path d="M76 644 c-10 -27 -7 -56 7 -52 14 5 23 68 9 68 -6 0 -13 -7 -16 -16z"/>
<path d="M142 644 c1 -9 9 -19 16 -22 9 -3 13 2 10 14 -1 9 -9 19 -16 22 -9 3
-13 -2 -10 -14z"/>
<path d="M110 630 c0 -11 5 -20 10 -20 6 0 10 9 10 20 0 11 -4 20 -10 20 -5 0
-10 -9 -10 -20z"/>
</g>
</svg>
