<?xml version="1.0" standalone="no"?>
<!DOCTYPE svg PUBLIC "-//W3C//DTD SVG 20010904//EN"
 "http://www.w3.org/TR/2001/REC-SVG-20010904/DTD/svg10.dtd">
<svg version="1.0" xmlns="http://www.w3.org/2000/svg"
 width="95.000000pt" height="725.000000pt" viewBox="0 0 95.000000 725.000000"
 preserveAspectRatio="xMidYMid meet">
<metadata>
Created by potrace 1.16, written by Peter Selinger 2001-2019
</metadata>
<g transform="translate(0.000000,725.000000) scale(0.100000,-0.100000)"
fill="#000000" stroke="none">
<path d="M304 7135 c5 -21 3 -25 -15 -25 -18 0 -20 -4 -14 -22 19 -62 18 -68
-6 -69 -13 0 -34 -2 -47 -3 -30 -3 -40 14 -13 21 24 6 28 23 6 23 -8 0 -15 5
-15 10 0 6 7 10 15 10 8 0 15 5 15 10 0 6 -7 10 -15 10 -22 0 -18 21 5 27 37
10 22 26 -17 19 -21 -3 -49 -6 -63 -6 -24 0 -25 -2 -26 -80 l-1 -80 54 6 c50
6 53 6 53 -16 0 -20 -2 -21 -17 -9 -12 10 -17 11 -20 2 -2 -7 -11 -9 -19 -6
-9 3 -14 -1 -14 -12 0 -13 6 -15 31 -10 28 6 30 5 27 -17 -2 -15 -9 -22 -20
-20 -22 3 -22 -6 -3 -32 20 -26 42 -7 50 43 16 95 14 92 48 89 41 -4 44 -32 5
-36 -38 -4 -35 -22 3 -22 30 0 31 -1 27 -47 -2 -29 1 -48 9 -50 8 -3 13 13 15
49 l3 53 38 3 c49 4 48 22 -2 22 -34 0 -38 3 -34 20 4 16 14 20 44 20 29 0 39
4 39 16 0 13 -7 15 -33 11 l-33 -5 10 34 c6 19 14 34 18 34 5 0 8 5 8 10 0 6
-13 10 -29 10 -20 0 -30 6 -34 20 -3 11 -13 20 -22 20 -13 0 -16 -6 -11 -25z
m-134 -30 c0 -8 -7 -15 -15 -15 -8 0 -15 7 -15 15 0 8 7 15 15 15 8 0 15 -7
15 -15z m180 -22 c0 -20 -13 -53 -20 -53 -5 0 -13 14 -19 30 -9 28 -8 30 15
30 13 0 24 -3 24 -7z m-185 -23 c-3 -5 -10 -10 -16 -10 -5 0 -9 5 -9 10 0 6 7
10 16 10 8 0 12 -4 9 -10z m5 -40 c0 -5 -7 -10 -15 -10 -8 0 -15 5 -15 10 0 6
7 10 15 10 8 0 15 -4 15 -10z"/>
<path d="M564 7060 c-1 -106 20 -103 24 3 2 58 0 77 -10 77 -9 0 -13 -22 -14
-80z"/>
<path d="M75 6929 c-7 -33 -3 -45 14 -34 13 8 15 65 2 65 -5 0 -12 -14 -16
-31z"/>
<path d="M110 6952 c0 -19 12 -42 22 -42 14 0 5 43 -9 48 -7 2 -13 -1 -13 -6z"/>
<path d="M605 6693 l-40 -4 -1 -80 c-1 -99 20 -104 24 -6 3 65 4 67 30 67 37
0 72 11 72 21 0 9 -7 9 -85 2z"/>
<path d="M605 6243 l-40 -4 -1 -80 c0 -53 3 -78 10 -76 6 2 12 22 14 45 3 40
4 41 48 48 24 3 44 11 44 16 0 7 -17 8 -45 5 -36 -5 -45 -4 -45 8 0 10 10 15
28 15 37 0 72 10 72 21 0 9 -7 9 -85 2z"/>
<path d="M605 5793 l-40 -4 -1 -80 c0 -53 3 -78 10 -76 6 2 12 13 14 25 3 16
13 22 48 28 24 3 44 11 44 16 0 7 -17 8 -45 5 -25 -4 -45 -3 -45 3 0 5 20 12
45 16 25 3 45 11 45 16 0 7 -17 8 -45 5 -36 -5 -45 -4 -45 8 0 10 10 15 28 15
37 0 72 10 72 21 0 9 -7 9 -85 2z"/>
<path d="M605 5343 l-40 -4 -1 -80 c0 -53 3 -78 10 -76 6 2 12 13 14 25 4 25
32 31 32 7 0 -8 5 -15 10 -15 6 0 10 7 10 16 0 9 9 18 20 21 23 6 27 23 5 23
-8 0 -15 5 -15 10 0 6 7 10 15 10 8 0 15 5 15 10 0 6 -7 10 -15 10 -22 0 -18
21 5 27 11 3 20 9 20 14 0 9 -7 9 -85 2z m15 -38 c0 -8 -7 -15 -15 -15 -8 0
-15 7 -15 15 0 8 7 15 15 15 8 0 15 -7 15 -15z m-5 -45 c-3 -5 -10 -10 -16
-10 -5 0 -9 5 -9 10 0 6 7 10 16 10 8 0 12 -4 9 -10z"/>
<path d="M605 4893 l-40 -4 -1 -79 -1 -80 55 7 54 6 -7 -44 c-9 -54 -12 -60
-30 -52 -19 7 -19 -6 0 -32 14 -17 17 -17 30 -4 22 22 40 140 23 151 -7 4 -18
6 -25 3 -7 -2 -15 0 -19 6 -3 6 3 13 15 16 24 6 28 23 6 23 -8 0 -15 5 -15 10
0 6 7 10 15 10 8 0 15 5 15 10 0 6 -7 10 -15 10 -22 0 -18 21 5 27 11 3 20 9
20 14 0 9 -7 9 -85 2z m15 -38 c0 -8 -7 -15 -15 -15 -8 0 -15 7 -15 15 0 8 7
15 15 15 8 0 15 -7 15 -15z m-5 -45 c-3 -5 -10 -10 -16 -10 -5 0 -9 5 -9 10 0
6 7 10 16 10 8 0 12 -4 9 -10z m5 -40 c0 -5 -7 -10 -15 -10 -8 0 -15 5 -15 10
0 6 7 10 15 10 8 0 15 -4 15 -10z"/>
<path d="M605 4443 l-40 -4 -1 -79 -1 -80 55 7 54 6 -7 -44 c-9 -54 -12 -60
-30 -52 -19 7 -19 -6 0 -32 14 -17 17 -17 30 -4 22 22 40 140 23 151 -7 4 -18
6 -25 3 -7 -2 -15 0 -19 6 -3 6 3 13 15 16 24 6 28 23 6 23 -8 0 -15 5 -15 10
0 6 7 10 15 10 8 0 15 5 15 10 0 6 -7 10 -15 10 -22 0 -18 21 5 27 11 3 20 9
20 14 0 9 -7 9 -85 2z m15 -38 c0 -8 -7 -15 -15 -15 -8 0 -15 7 -15 15 0 8 7
15 15 15 8 0 15 -7 15 -15z m-5 -45 c-3 -5 -10 -10 -16 -10 -5 0 -9 5 -9 10 0
6 7 10 16 10 8 0 12 -4 9 -10z m5 -40 c0 -5 -7 -10 -15 -10 -8 0 -15 5 -15 10
0 6 7 10 15 10 8 0 15 -4 15 -10z"/>
<path d="M525 4229 c-7 -33 -3 -45 14 -34 13 8 15 65 2 65 -5 0 -12 -14 -16
-31z"/>
<path d="M605 3993 l-40 -4 -1 -79 -1 -80 55 7 54 6 -7 -44 c-9 -54 -12 -60
-30 -52 -19 7 -19 -6 0 -32 14 -17 17 -17 30 -4 22 22 40 140 23 151 -7 4 -18
6 -25 3 -7 -2 -15 0 -19 6 -3 6 3 13 15 16 24 6 28 23 6 23 -8 0 -15 5 -15 10
0 6 7 10 15 10 8 0 15 5 15 10 0 6 -7 10 -15 10 -22 0 -18 21 5 27 11 3 20 9
20 14 0 9 -7 9 -85 2z m15 -38 c0 -8 -7 -15 -15 -15 -8 0 -15 7 -15 15 0 8 7
15 15 15 8 0 15 -7 15 -15z m-5 -45 c-3 -5 -10 -10 -16 -10 -5 0 -9 5 -9 10 0
6 7 10 16 10 8 0 12 -4 9 -10z m5 -40 c0 -5 -7 -10 -15 -10 -8 0 -15 5 -15 10
0 6 7 10 15 10 8 0 15 -4 15 -10z"/>
<path d="M525 3779 c-7 -33 -3 -45 14 -34 13 8 15 65 2 65 -5 0 -12 -14 -16
-31z"/>
<path d="M560 3802 c0 -19 12 -42 22 -42 14 0 5 43 -9 48 -7 2 -13 -1 -13 -6z"/>
<path d="M605 3543 l-40 -4 -1 -79 -1 -80 55 7 54 6 -7 -44 c-9 -54 -12 -60
-30 -52 -19 7 -19 -6 0 -32 14 -17 17 -17 30 -4 22 22 40 140 23 151 -7 4 -18
6 -25 3 -7 -2 -15 0 -19 6 -3 6 3 13 15 16 24 6 28 23 6 23 -8 0 -15 5 -15 10
0 6 7 10 15 10 8 0 15 5 15 10 0 6 -7 10 -15 10 -22 0 -18 21 5 27 11 3 20 9
20 14 0 9 -7 9 -85 2z m15 -38 c0 -8 -7 -15 -15 -15 -8 0 -15 7 -15 15 0 8 7
15 15 15 8 0 15 -7 15 -15z m-5 -45 c-3 -5 -10 -10 -16 -10 -5 0 -9 5 -9 10 0
6 7 10 16 10 8 0 12 -4 9 -10z m5 -40 c0 -5 -7 -10 -15 -10 -8 0 -15 5 -15 10
0 6 7 10 15 10 8 0 15 -4 15 -10z"/>
<path d="M525 3329 c-7 -33 -3 -45 14 -34 13 8 15 65 2 65 -5 0 -12 -14 -16
-31z"/>
<path d="M560 3352 c0 -19 12 -42 22 -42 14 0 5 43 -9 48 -7 2 -13 -1 -13 -6z"/>
<path d="M600 3346 c0 -9 7 -16 16 -16 17 0 14 22 -4 28 -7 2 -12 -3 -12 -12z"/>
<path d="M605 3093 l-40 -4 -1 -79 -1 -80 54 6 c50 6 53 6 53 -16 0 -20 -2
-21 -17 -9 -12 10 -17 11 -20 2 -2 -7 -11 -9 -19 -6 -9 3 -14 -1 -14 -12 0
-13 6 -15 31 -10 28 6 30 5 27 -17 -2 -15 -9 -22 -20 -20 -22 3 -22 -6 -3 -33
14 -17 17 -17 30 -4 22 22 40 140 23 151 -7 4 -18 6 -25 3 -7 -2 -15 0 -19 6
-3 6 3 13 15 16 24 6 28 23 6 23 -8 0 -15 5 -15 10 0 6 7 10 15 10 8 0 15 5
15 10 0 6 -7 10 -15 10 -22 0 -18 21 5 27 11 3 20 9 20 14 0 9 -7 9 -85 2z
m15 -38 c0 -8 -7 -15 -15 -15 -8 0 -15 7 -15 15 0 8 7 15 15 15 8 0 15 -7 15
-15z m-5 -45 c-3 -5 -10 -10 -16 -10 -5 0 -9 5 -9 10 0 6 7 10 16 10 8 0 12
-4 9 -10z m5 -40 c0 -5 -7 -10 -15 -10 -8 0 -15 5 -15 10 0 6 7 10 15 10 8 0
15 -4 15 -10z"/>
<path d="M525 2879 c-7 -33 -3 -45 14 -34 13 8 15 65 2 65 -5 0 -12 -14 -16
-31z"/>
<path d="M560 2902 c0 -19 12 -42 22 -42 14 0 5 43 -9 48 -7 2 -13 -1 -13 -6z"/>
<path d="M750 2652 c0 -22 13 -42 27 -42 21 0 12 44 -9 48 -10 2 -18 -1 -18
-6z"/>
<path d="M605 2643 l-40 -4 -1 -79 -1 -80 54 6 c50 6 53 6 53 -16 0 -20 -2
-21 -17 -9 -12 10 -17 11 -20 2 -2 -7 -11 -9 -19 -6 -9 3 -14 -1 -14 -12 0
-13 6 -15 31 -10 28 6 30 5 27 -17 -2 -15 -9 -22 -20 -20 -22 3 -22 -6 -3 -33
14 -17 17 -17 30 -4 22 22 40 140 23 151 -7 4 -18 6 -25 3 -7 -2 -15 0 -19 6
-3 6 3 13 15 16 24 6 28 23 6 23 -8 0 -15 5 -15 10 0 6 7 10 15 10 8 0 15 5
15 10 0 6 -7 10 -15 10 -22 0 -18 21 5 27 11 3 20 9 20 14 0 9 -7 9 -85 2z
m15 -38 c0 -8 -7 -15 -15 -15 -8 0 -15 7 -15 15 0 8 7 15 15 15 8 0 15 -7 15
-15z m-5 -45 c-3 -5 -10 -10 -16 -10 -5 0 -9 5 -9 10 0 6 7 10 16 10 8 0 12
-4 9 -10z m5 -40 c0 -5 -7 -10 -15 -10 -8 0 -15 5 -15 10 0 6 7 10 15 10 8 0
15 -4 15 -10z"/>
<path d="M525 2429 c-7 -33 -3 -45 14 -34 13 8 15 65 2 65 -5 0 -12 -14 -16
-31z"/>
<path d="M560 2452 c0 -19 12 -42 22 -42 14 0 5 43 -9 48 -7 2 -13 -1 -13 -6z"/>
<path d="M754 2185 c5 -20 3 -25 -14 -25 -11 0 -20 -7 -20 -15 0 -10 8 -13 28
-10 15 2 44 7 65 10 44 7 50 25 8 25 -20 0 -30 6 -34 20 -3 11 -13 20 -22 20
-13 0 -16 -6 -11 -25z"/>
<path d="M605 2193 l-40 -4 -1 -79 -1 -80 54 6 c50 6 53 6 53 -16 0 -20 -2
-21 -17 -9 -12 10 -17 11 -20 2 -2 -7 -11 -9 -19 -6 -9 3 -14 -1 -14 -12 0
-13 6 -15 31 -10 28 6 30 5 27 -17 -2 -15 -9 -22 -20 -20 -22 3 -22 -6 -3 -33
14 -17 17 -17 30 -4 22 22 40 140 23 151 -7 4 -18 6 -25 3 -7 -2 -15 0 -19 6
-3 6 3 13 15 16 24 6 28 23 6 23 -8 0 -15 5 -15 10 0 6 7 10 15 10 8 0 15 5
15 10 0 6 -7 10 -15 10 -22 0 -18 21 5 27 11 3 20 9 20 14 0 9 -7 9 -85 2z
m15 -38 c0 -8 -7 -15 -15 -15 -8 0 -15 7 -15 15 0 8 7 15 15 15 8 0 15 -7 15
-15z m-5 -45 c-3 -5 -10 -10 -16 -10 -5 0 -9 5 -9 10 0 6 7 10 16 10 8 0 12
-4 9 -10z m5 -40 c0 -5 -7 -10 -15 -10 -8 0 -15 5 -15 10 0 6 7 10 15 10 8 0
15 -4 15 -10z"/>
<path d="M525 1979 c-7 -33 -3 -45 14 -34 13 8 15 65 2 65 -5 0 -12 -14 -16
-31z"/>
<path d="M560 2002 c0 -19 12 -42 22 -42 14 0 5 43 -9 48 -7 2 -13 -1 -13 -6z"/>
<path d="M754 1735 c5 -21 3 -25 -15 -25 -18 0 -20 -4 -14 -22 3 -13 9 -33 12
-45 3 -13 9 -23 14 -23 15 0 19 18 9 44 -9 24 -7 26 18 26 37 0 72 10 72 21 0
5 -13 9 -29 9 -20 0 -30 6 -34 20 -3 11 -13 20 -22 20 -13 0 -16 -6 -11 -25z"/>
<path d="M605 1743 l-40 -4 -1 -79 -1 -80 54 6 c50 6 53 6 53 -16 0 -20 -2
-21 -17 -9 -12 10 -17 11 -20 2 -2 -7 -11 -9 -19 -6 -9 3 -14 -1 -14 -12 0
-13 6 -15 31 -10 28 6 30 5 27 -17 -2 -15 -9 -22 -20 -20 -22 3 -22 -6 -3 -33
14 -17 17 -17 30 -4 22 22 40 140 23 151 -7 4 -18 6 -25 3 -7 -2 -15 0 -19 6
-3 6 3 13 15 16 24 6 28 23 6 23 -8 0 -15 5 -15 10 0 6 7 10 15 10 8 0 15 5
15 10 0 6 -7 10 -15 10 -22 0 -18 21 5 27 11 3 20 9 20 14 0 9 -7 9 -85 2z
m15 -38 c0 -8 -7 -15 -15 -15 -8 0 -15 7 -15 15 0 8 7 15 15 15 8 0 15 -7 15
-15z m-5 -45 c-3 -5 -10 -10 -16 -10 -5 0 -9 5 -9 10 0 6 7 10 16 10 8 0 12
-4 9 -10z m5 -40 c0 -5 -7 -10 -15 -10 -8 0 -15 5 -15 10 0 6 7 10 15 10 8 0
15 -4 15 -10z"/>
<path d="M525 1529 c-7 -33 -3 -45 14 -34 13 8 15 65 2 65 -5 0 -12 -14 -16
-31z"/>
<path d="M560 1552 c0 -19 12 -42 22 -42 14 0 5 43 -9 48 -7 2 -13 -1 -13 -6z"/>
<path d="M754 1285 c5 -21 3 -25 -15 -25 -18 0 -20 -4 -14 -22 3 -13 9 -33 12
-45 3 -13 9 -23 14 -23 15 0 19 18 9 44 -9 24 -7 26 16 26 23 0 25 -3 19 -31
-10 -43 16 -35 30 9 5 18 13 32 17 32 4 0 8 5 8 10 0 6 -13 10 -29 10 -20 0
-30 6 -34 20 -3 11 -13 20 -22 20 -13 0 -16 -6 -11 -25z"/>
<path d="M605 1293 l-40 -4 -1 -79 -1 -80 54 6 c50 6 53 6 53 -16 0 -20 -2
-21 -17 -9 -12 10 -17 11 -20 2 -2 -7 -11 -9 -19 -6 -9 3 -14 -1 -14 -12 0
-13 6 -15 31 -10 28 6 30 5 27 -17 -2 -15 -9 -22 -20 -20 -22 3 -22 -6 -3 -33
14 -17 17 -17 30 -4 22 22 40 140 23 151 -7 4 -18 6 -25 3 -7 -2 -15 0 -19 6
-3 6 3 13 15 16 24 6 28 23 6 23 -8 0 -15 5 -15 10 0 6 7 10 15 10 8 0 15 5
15 10 0 6 -7 10 -15 10 -22 0 -18 21 5 27 11 3 20 9 20 14 0 9 -7 9 -85 2z
m15 -38 c0 -8 -7 -15 -15 -15 -8 0 -15 7 -15 15 0 8 7 15 15 15 8 0 15 -7 15
-15z m-5 -45 c-3 -5 -10 -10 -16 -10 -5 0 -9 5 -9 10 0 6 7 10 16 10 8 0 12
-4 9 -10z m5 -40 c0 -5 -7 -10 -15 -10 -8 0 -15 5 -15 10 0 6 7 10 15 10 8 0
15 -4 15 -10z"/>
<path d="M525 1079 c-7 -33 -3 -45 14 -34 13 8 15 65 2 65 -5 0 -12 -14 -16
-31z"/>
<path d="M560 1102 c0 -19 12 -42 22 -42 14 0 5 43 -9 48 -7 2 -13 -1 -13 -6z"/>
<path d="M754 835 c5 -21 3 -25 -15 -25 -18 0 -20 -4 -14 -22 19 -62 18 -68
-6 -69 -13 0 -34 -2 -47 -3 -30 -3 -40 14 -13 21 24 6 28 23 6 23 -8 0 -15 5
-15 10 0 6 7 10 15 10 8 0 15 5 15 10 0 6 -7 10 -15 10 -22 0 -18 21 5 27 37
10 22 26 -17 19 -21 -3 -49 -6 -63 -6 -24 0 -25 -2 -26 -80 l-1 -80 54 6 c50
6 53 6 53 -16 0 -20 -2 -21 -17 -9 -12 10 -17 11 -20 2 -2 -7 -11 -9 -19 -6
-9 3 -14 -1 -14 -12 0 -13 6 -15 31 -10 28 6 30 5 27 -17 -2 -15 -9 -22 -20
-20 -22 3 -22 -6 -3 -33 14 -17 17 -17 30 -4 9 8 20 41 25 73 5 32 11 61 13
63 3 2 43 7 91 10 67 5 86 9 86 21 0 11 -8 13 -33 9 l-33 -5 10 34 c6 19 14
34 18 34 5 0 8 5 8 10 0 6 -13 10 -29 10 -20 0 -30 6 -34 20 -3 11 -13 20 -22
20 -13 0 -16 -6 -11 -25z m-134 -30 c0 -8 -7 -15 -15 -15 -8 0 -15 7 -15 15 0
8 7 15 15 15 8 0 15 -7 15 -15z m180 -22 c0 -20 -13 -53 -20 -53 -5 0 -13 14
-19 30 -9 28 -8 30 15 30 13 0 24 -3 24 -7z m-185 -23 c-3 -5 -10 -10 -16 -10
-5 0 -9 5 -9 10 0 6 7 10 16 10 8 0 12 -4 9 -10z m5 -40 c0 -5 -7 -10 -15 -10
-8 0 -15 5 -15 10 0 6 7 10 15 10 8 0 15 -4 15 -10z"/>
<path d="M525 629 c-7 -33 -3 -45 14 -34 13 8 15 65 2 65 -5 0 -12 -14 -16
-31z"/>
<path d="M560 652 c0 -19 12 -42 22 -42 14 0 5 43 -9 48 -7 2 -13 -1 -13 -6z"/>
<path d="M754 385 c5 -21 3 -25 -15 -25 -18 0 -20 -4 -14 -22 19 -62 18 -68
-6 -69 -13 0 -34 -2 -47 -3 -30 -3 -40 14 -13 21 24 6 28 23 6 23 -8 0 -15 5
-15 10 0 6 7 10 15 10 8 0 15 5 15 10 0 6 -7 10 -15 10 -22 0 -18 21 5 27 37
10 22 26 -17 19 -21 -3 -49 -6 -63 -6 -24 0 -25 -2 -26 -80 l-1 -80 54 6 c50
6 53 6 53 -16 0 -20 -2 -21 -17 -9 -12 10 -17 11 -20 2 -2 -7 -11 -9 -19 -6
-9 3 -14 -1 -14 -12 0 -13 6 -15 31 -10 28 6 30 5 27 -17 -2 -15 -9 -22 -20
-20 -22 3 -22 -6 -3 -33 14 -17 17 -17 30 -4 9 8 20 41 25 73 5 32 11 61 13
63 3 2 43 7 91 10 67 5 86 9 86 21 0 11 -8 13 -33 9 l-33 -5 10 34 c6 19 14
34 18 34 5 0 8 5 8 10 0 6 -13 10 -29 10 -20 0 -30 6 -34 20 -3 11 -13 20 -22
20 -13 0 -16 -6 -11 -25z m-134 -30 c0 -8 -7 -15 -15 -15 -8 0 -15 7 -15 15 0
8 7 15 15 15 8 0 15 -7 15 -15z m180 -22 c0 -20 -13 -53 -20 -53 -5 0 -13 14
-19 30 -9 28 -8 30 15 30 13 0 24 -3 24 -7z m-185 -23 c-3 -5 -10 -10 -16 -10
-5 0 -9 5 -9 10 0 6 7 10 16 10 8 0 12 -4 9 -10z m5 -40 c0 -5 -7 -10 -15 -10
-8 0 -15 5 -15 10 0 6 7 10 15 10 8 0 15 -4 15 -10z"/>
<path d="M738 213 c-16 -2 -28 -9 -28 -15 0 -7 18 -9 53 -4 28 3 64 6 80 6 15
0 27 5 27 10 0 10 -76 11 -132 3z"/>
<path d="M525 179 c-7 -33 -3 -45 14 -34 13 8 15 65 2 65 -5 0 -12 -14 -16
-31z"/>
<path d="M560 202 c0 -19 12 -42 22 -42 14 0 5 43 -9 48 -7 2 -13 -1 -13 -6z"/>
</g>
</svg>
