<?xml version="1.0" standalone="no"?>
<!DOCTYPE svg PUBLIC "-//W3C//DTD SVG 20010904//EN"
 "http://www.w3.org/TR/2001/REC-SVG-20010904/DTD/svg10.dtd">
<svg version="1.0" xmlns="http://www.w3.org/2000/svg"
 width="95.000000pt" height="725.000000pt" viewBox="0 0 95.000000 725.000000"
 preserveAspectRatio="xMidYMid meet">
<metadata>
Created by potrace 1.16, written by Peter Selinger 2001-2019
</metadata>
<g transform="translate(0.000000,725.000000) scale(0.100000,-0.100000)"
fill="#000000" stroke="none">
<path d="M158 7133 l-38 -4 -2 -60 c-1 -32 -2 -67 -2 -76 -1 -19 9 -20 62 -9
25 6 32 4 32 -8 0 -10 -6 -13 -15 -10 -9 4 -15 0 -15 -10 0 -9 7 -16 15 -16 8
0 15 -4 15 -9 0 -23 -14 -41 -32 -41 -22 0 -20 -18 5 -34 12 -7 20 -7 27 0 13
13 40 135 33 147 -2 4 -15 7 -29 7 -14 0 -22 4 -19 10 3 6 15 10 26 10 10 0
19 5 19 10 0 6 -9 10 -20 10 -11 0 -20 5 -20 10 0 6 9 10 20 10 11 0 20 5 20
10 0 6 -9 10 -20 10 -11 0 -20 5 -20 11 0 6 9 13 20 16 11 3 20 9 20 14 0 9
-11 9 -82 2z m12 -38 c0 -8 -4 -15 -10 -15 -5 0 -10 7 -10 15 0 8 5 15 10 15
6 0 10 -7 10 -15z m0 -44 c0 -5 -6 -12 -12 -15 -10 -5 -10 -7 0 -12 17 -8 15
-24 -3 -24 -10 0 -15 10 -15 30 0 20 5 30 15 30 8 0 15 -4 15 -9z"/>
<path d="M340 7128 c-25 -5 -55 -12 -67 -14 -13 -2 -23 -9 -23 -15 0 -6 11 -8
28 -5 15 3 51 8 80 11 31 4 52 11 49 18 -5 15 -15 16 -67 5z"/>
<path d="M568 7058 c-4 -63 3 -102 15 -87 3 2 7 39 11 82 6 63 4 77 -7 77 -11
0 -16 -18 -19 -72z"/>
<path d="M318 7083 c-16 -2 -28 -6 -28 -7 0 -2 5 -17 11 -35 17 -49 71 -36 85
22 7 29 2 30 -68 20z m28 -50 c-11 -11 -19 6 -11 24 8 17 8 17 12 0 3 -10 2
-21 -1 -24z"/>
<path d="M298 6983 c-12 -3 -18 -14 -18 -34 0 -21 5 -29 18 -29 26 0 41 14 44
40 3 25 -11 32 -44 23z m14 -35 c-7 -7 -12 -8 -12 -2 0 14 12 26 19 19 2 -3
-1 -11 -7 -17z"/>
<path d="M140 6963 c0 -5 4 -15 10 -23 11 -18 25 -7 17 15 -6 15 -27 21 -27 8z"/>
<path d="M82 6940 c-13 -21 -9 -40 9 -40 5 0 14 10 19 23 7 17 9 18 9 5 1 -10
6 -18 12 -18 6 0 9 10 7 23 -4 29 -39 34 -56 7z"/>
<path d="M158 6683 l-38 -4 -2 -60 c-1 -32 -2 -67 -2 -76 -1 -19 9 -20 62 -9
25 6 32 4 32 -8 0 -10 -6 -13 -15 -10 -9 4 -15 0 -15 -10 0 -9 7 -16 15 -16 8
0 15 -4 15 -9 0 -23 -14 -41 -32 -41 -22 0 -20 -18 5 -34 12 -7 20 -7 27 0 13
13 40 135 33 147 -2 4 -15 7 -29 7 -14 0 -22 4 -19 10 3 6 15 10 26 10 10 0
19 5 19 10 0 6 -9 10 -20 10 -11 0 -20 5 -20 10 0 6 9 10 20 10 11 0 20 5 20
10 0 6 -9 10 -20 10 -11 0 -20 5 -20 11 0 6 9 13 20 16 11 3 20 9 20 14 0 9
-11 9 -82 2z m12 -38 c0 -8 -4 -15 -10 -15 -5 0 -10 7 -10 15 0 8 5 15 10 15
6 0 10 -7 10 -15z m0 -44 c0 -5 -6 -12 -12 -15 -10 -5 -10 -7 0 -12 17 -8 15
-24 -3 -24 -10 0 -15 10 -15 30 0 20 5 30 15 30 8 0 15 -4 15 -9z"/>
<path d="M340 6678 c-25 -5 -55 -12 -67 -14 -13 -2 -23 -9 -23 -15 0 -6 11 -8
28 -5 15 3 51 8 80 11 31 4 52 11 49 18 -5 15 -15 16 -67 5z"/>
<path d="M608 6683 l-38 -4 -2 -60 c-1 -32 -2 -66 -2 -76 -1 -9 5 -18 12 -20
8 -3 12 8 12 35 0 71 10 102 34 102 32 0 66 11 66 21 0 9 -11 9 -82 2z"/>
<path d="M318 6633 c-16 -2 -28 -6 -28 -7 0 -2 5 -17 11 -35 17 -49 71 -36 85
22 7 29 2 30 -68 20z m28 -50 c-11 -11 -19 6 -11 24 8 17 8 17 12 0 3 -10 2
-21 -1 -24z"/>
<path d="M298 6533 c-22 -5 -25 -63 -4 -63 25 0 46 12 46 26 0 8 5 14 10 14 6
0 10 -9 10 -20 0 -11 5 -20 10 -20 6 0 10 15 10 34 0 32 -2 34 -32 33 -18 0
-41 -2 -50 -4z m14 -35 c-7 -7 -12 -8 -12 -2 0 14 12 26 19 19 2 -3 -1 -11 -7
-17z"/>
<path d="M140 6513 c0 -5 4 -15 10 -23 11 -18 25 -7 17 15 -6 15 -27 21 -27 8z"/>
<path d="M82 6490 c-13 -21 -9 -40 9 -40 5 0 14 10 19 23 7 17 9 18 9 5 1 -10
6 -18 12 -18 6 0 9 10 7 23 -4 29 -39 34 -56 7z"/>
<path d="M158 6233 l-38 -4 -2 -60 c-1 -32 -2 -67 -2 -76 -1 -19 9 -20 62 -9
25 6 32 4 32 -8 0 -10 -6 -13 -15 -10 -9 4 -15 0 -15 -10 0 -9 7 -16 15 -16 8
0 15 -4 15 -9 0 -23 -14 -41 -32 -41 -22 0 -20 -18 5 -34 12 -7 20 -7 27 0 13
13 40 135 33 147 -2 4 -15 7 -29 7 -14 0 -22 4 -19 10 3 6 15 10 26 10 10 0
19 5 19 10 0 6 -9 10 -20 10 -11 0 -20 5 -20 10 0 6 9 10 20 10 11 0 20 5 20
10 0 6 -9 10 -20 10 -11 0 -20 5 -20 11 0 6 9 13 20 16 11 3 20 9 20 14 0 9
-11 9 -82 2z m12 -38 c0 -8 -4 -15 -10 -15 -5 0 -10 7 -10 15 0 8 5 15 10 15
6 0 10 -7 10 -15z m0 -44 c0 -5 -6 -12 -12 -15 -10 -5 -10 -7 0 -12 17 -8 15
-24 -3 -24 -10 0 -15 10 -15 30 0 20 5 30 15 30 8 0 15 -4 15 -9z"/>
<path d="M340 6228 c-25 -5 -55 -12 -67 -14 -13 -2 -23 -9 -23 -15 0 -6 11 -8
28 -5 15 3 51 8 80 11 31 4 52 11 49 18 -5 15 -15 16 -67 5z"/>
<path d="M608 6233 l-38 -4 -2 -60 c-1 -32 -2 -66 -2 -76 -1 -9 5 -18 12 -20
8 -3 12 9 12 40 l0 45 50 7 c28 4 50 12 50 17 0 7 -17 8 -45 5 -36 -5 -45 -4
-45 8 0 9 9 15 23 15 33 0 67 11 67 21 0 9 -11 9 -82 2z"/>
<path d="M318 6183 c-16 -2 -28 -6 -28 -7 0 -2 5 -17 11 -35 17 -49 71 -36 85
22 7 29 2 30 -68 20z m28 -50 c-11 -11 -19 6 -11 24 8 17 8 17 12 0 3 -10 2
-21 -1 -24z"/>
<path d="M388 6095 c-3 -3 -23 -7 -44 -9 -22 -2 -45 -4 -51 -5 -18 -2 -17 -61
1 -61 25 0 46 12 46 26 0 8 5 14 10 14 6 0 10 -9 10 -20 0 -11 5 -20 10 -20 6
0 10 11 10 25 0 14 4 25 9 25 5 0 7 -9 4 -20 -7 -26 13 -26 27 -1 15 30 12 51
-8 51 -10 0 -21 -2 -24 -5z m-76 -47 c-7 -7 -12 -8 -12 -2 0 14 12 26 19 19 2
-3 -1 -11 -7 -17z"/>
<path d="M140 6063 c0 -5 4 -15 10 -23 11 -18 25 -7 17 15 -6 15 -27 21 -27 8z"/>
<path d="M82 6040 c-13 -21 -9 -40 9 -40 5 0 14 10 19 23 7 17 9 18 9 5 1 -10
6 -18 12 -18 6 0 9 10 7 23 -4 29 -39 34 -56 7z"/>
<path d="M158 5783 l-38 -4 -2 -60 c-1 -32 -2 -67 -2 -76 -1 -19 9 -20 62 -9
25 6 32 4 32 -8 0 -10 -6 -13 -15 -10 -9 4 -15 0 -15 -10 0 -9 7 -16 15 -16 8
0 15 -4 15 -9 0 -23 -14 -41 -32 -41 -22 0 -20 -18 5 -34 12 -7 20 -7 27 0 13
13 40 135 33 147 -2 4 -15 7 -29 7 -14 0 -22 4 -19 10 3 6 15 10 26 10 10 0
19 5 19 10 0 6 -9 10 -20 10 -11 0 -20 5 -20 10 0 6 9 10 20 10 11 0 20 5 20
10 0 6 -9 10 -20 10 -11 0 -20 5 -20 11 0 6 9 13 20 16 11 3 20 9 20 14 0 9
-11 9 -82 2z m12 -38 c0 -8 -4 -15 -10 -15 -5 0 -10 7 -10 15 0 8 5 15 10 15
6 0 10 -7 10 -15z m0 -44 c0 -5 -6 -12 -12 -15 -10 -5 -10 -7 0 -12 17 -8 15
-24 -3 -24 -10 0 -15 10 -15 30 0 20 5 30 15 30 8 0 15 -4 15 -9z"/>
<path d="M340 5778 c-25 -5 -55 -12 -67 -14 -13 -2 -23 -9 -23 -15 0 -6 11 -8
28 -5 15 3 51 8 80 11 31 4 52 11 49 18 -5 15 -15 16 -67 5z"/>
<path d="M608 5783 l-38 -4 -2 -60 c-1 -32 -2 -66 -2 -76 -1 -9 5 -18 12 -20
8 -3 12 9 12 40 l0 45 50 7 c28 4 50 12 50 17 0 7 -17 8 -45 5 -36 -5 -45 -4
-45 8 0 9 9 15 23 15 33 0 67 11 67 21 0 9 -11 9 -82 2z"/>
<path d="M318 5733 c-16 -2 -28 -6 -28 -7 0 -2 5 -17 11 -35 17 -49 71 -36 85
22 7 29 2 30 -68 20z m28 -50 c-11 -11 -19 6 -11 24 8 17 8 17 12 0 3 -10 2
-21 -1 -24z"/>
<path d="M610 5690 c-8 -5 -12 -11 -10 -13 9 -7 90 5 90 14 0 12 -61 11 -80
-1z"/>
<path d="M388 5645 c-3 -3 -23 -7 -44 -9 -22 -2 -45 -4 -51 -5 -18 -2 -17 -61
1 -61 25 0 46 12 46 26 0 8 5 14 10 14 6 0 10 -9 10 -20 0 -17 4 -19 28 -14
34 8 31 5 38 42 6 27 4 32 -13 32 -11 0 -22 -2 -25 -5z m-76 -47 c-7 -7 -12
-8 -12 -2 0 14 12 26 19 19 2 -3 -1 -11 -7 -17z m88 18 c0 -3 -4 -8 -10 -11
-5 -3 -10 -1 -10 4 0 6 5 11 10 11 6 0 10 -2 10 -4z"/>
<path d="M140 5613 c0 -5 4 -15 10 -23 11 -18 25 -7 17 15 -6 15 -27 21 -27 8z"/>
<path d="M82 5590 c-13 -21 -9 -40 9 -40 5 0 14 10 19 23 7 17 9 18 9 5 1 -10
6 -18 12 -18 6 0 9 10 7 23 -4 29 -39 34 -56 7z"/>
<path d="M158 5333 l-38 -4 -2 -60 c-1 -32 -2 -67 -2 -76 -1 -19 9 -20 62 -9
25 6 32 4 32 -8 0 -10 -6 -13 -15 -10 -9 4 -15 0 -15 -10 0 -9 7 -16 15 -16 8
0 15 -4 15 -9 0 -23 -14 -41 -32 -41 -23 0 -20 -19 6 -34 24 -15 41 11 51 77
l8 52 7 -48 c3 -27 13 -53 21 -58 29 -18 159 -8 159 13 0 7 -23 8 -62 4 -96
-11 -104 -2 -92 110 l9 89 63 8 c56 8 75 18 54 31 -4 2 -30 0 -57 -6 -28 -5
-60 -12 -73 -14 -14 -3 -22 -11 -21 -22 1 -9 1 -33 0 -53 -1 -34 -3 -35 -31
-31 -32 5 -32 22 1 22 10 0 19 5 19 10 0 6 -9 10 -20 10 -11 0 -20 5 -20 10 0
6 9 10 20 10 11 0 20 5 20 10 0 6 -9 10 -20 10 -11 0 -20 5 -20 11 0 6 9 13
20 16 11 3 20 9 20 14 0 9 -11 9 -82 2z m12 -38 c0 -8 -4 -15 -10 -15 -5 0
-10 7 -10 15 0 8 5 15 10 15 6 0 10 -7 10 -15z m0 -44 c0 -5 -6 -12 -12 -15
-10 -5 -10 -7 0 -12 17 -8 15 -24 -3 -24 -10 0 -15 10 -15 30 0 20 5 30 15 30
8 0 15 -4 15 -9z"/>
<path d="M608 5333 l-38 -4 -2 -60 c-1 -32 -2 -66 -2 -76 -1 -9 5 -18 12 -20
8 -3 12 9 12 41 0 34 4 46 15 46 18 0 20 -16 3 -24 -10 -5 -10 -7 0 -12 6 -3
12 -12 12 -20 0 -21 17 -17 23 6 3 12 14 20 26 20 12 0 21 5 21 10 0 6 -9 10
-20 10 -11 0 -20 5 -20 10 0 6 9 10 20 10 11 0 20 5 20 10 0 6 -9 10 -20 10
-11 0 -20 5 -20 11 0 6 9 13 20 16 11 3 20 9 20 14 0 9 -11 9 -82 2z m12 -38
c0 -8 -4 -15 -10 -15 -5 0 -10 7 -10 15 0 8 5 15 10 15 6 0 10 -7 10 -15z"/>
<path d="M318 5283 c-16 -2 -28 -6 -28 -7 0 -2 5 -17 11 -35 17 -49 71 -36 85
22 7 29 2 30 -68 20z m28 -50 c-11 -11 -19 6 -11 24 8 17 8 17 12 0 3 -10 2
-21 -1 -24z"/>
<path d="M388 5195 c-3 -3 -23 -7 -44 -9 -22 -2 -45 -4 -51 -5 -18 -2 -17 -61
1 -61 25 0 46 12 46 26 0 8 5 14 10 14 6 0 10 -9 10 -20 0 -17 4 -19 28 -14
34 8 31 5 38 42 6 27 4 32 -13 32 -11 0 -22 -2 -25 -5z m-76 -47 c-7 -7 -12
-8 -12 -2 0 14 12 26 19 19 2 -3 -1 -11 -7 -17z m88 18 c0 -3 -4 -8 -10 -11
-5 -3 -10 -1 -10 4 0 6 5 11 10 11 6 0 10 -2 10 -4z"/>
<path d="M140 5163 c0 -5 4 -15 10 -23 11 -18 25 -7 17 15 -6 15 -27 21 -27 8z"/>
<path d="M82 5140 c-13 -21 -9 -40 9 -40 5 0 14 10 19 23 7 17 9 18 9 5 1 -10
6 -18 12 -18 6 0 9 10 7 23 -4 29 -39 34 -56 7z"/>
<path d="M608 4883 l-38 -4 -2 -60 c-1 -32 -2 -67 -2 -76 -1 -19 9 -20 62 -9
31 7 32 7 32 -27 0 -49 -9 -67 -32 -67 -22 0 -20 -18 5 -34 12 -7 20 -7 27 0
13 13 40 135 33 147 -2 4 -15 7 -29 7 -14 0 -22 4 -19 10 3 6 15 10 26 10 10
0 19 5 19 10 0 6 -9 10 -20 10 -11 0 -20 5 -20 10 0 6 9 10 20 10 11 0 20 5
20 10 0 6 -9 10 -20 10 -11 0 -20 5 -20 11 0 6 9 13 20 16 11 3 20 9 20 14 0
9 -11 9 -82 2z m12 -38 c0 -8 -4 -15 -10 -15 -5 0 -10 7 -10 15 0 8 5 15 10
15 6 0 10 -7 10 -15z m0 -44 c0 -5 -6 -12 -12 -15 -10 -5 -10 -7 0 -12 17 -8
15 -24 -3 -24 -10 0 -15 10 -15 30 0 20 5 30 15 30 8 0 15 -4 15 -9z"/>
<path d="M608 4433 l-38 -4 -2 -60 c-1 -32 -2 -67 -2 -76 -1 -19 9 -20 62 -9
31 7 32 7 32 -27 0 -49 -9 -67 -32 -67 -22 0 -20 -18 5 -34 12 -7 20 -7 27 0
13 13 40 135 33 147 -2 4 -15 7 -29 7 -14 0 -22 4 -19 10 3 6 15 10 26 10 10
0 19 5 19 10 0 6 -9 10 -20 10 -11 0 -20 5 -20 10 0 6 9 10 20 10 11 0 20 5
20 10 0 6 -9 10 -20 10 -11 0 -20 5 -20 11 0 6 9 13 20 16 11 3 20 9 20 14 0
9 -11 9 -82 2z m12 -38 c0 -8 -4 -15 -10 -15 -5 0 -10 7 -10 15 0 8 5 15 10
15 6 0 10 -7 10 -15z m0 -44 c0 -5 -6 -12 -12 -15 -10 -5 -10 -7 0 -12 17 -8
15 -24 -3 -24 -10 0 -15 10 -15 30 0 20 5 30 15 30 8 0 15 -4 15 -9z"/>
<path d="M532 4239 c-9 -14 -10 -25 -4 -31 15 -15 32 0 32 28 0 30 -11 31 -28
3z"/>
<path d="M608 3983 l-38 -4 -2 -60 c-1 -32 -2 -67 -2 -76 -1 -19 9 -20 62 -9
31 7 32 7 32 -27 0 -49 -9 -67 -32 -67 -22 0 -20 -18 5 -34 12 -7 20 -7 27 0
13 13 40 135 33 147 -2 4 -15 7 -29 7 -14 0 -22 4 -19 10 3 6 15 10 26 10 10
0 19 5 19 10 0 6 -9 10 -20 10 -11 0 -20 5 -20 10 0 6 9 10 20 10 11 0 20 5
20 10 0 6 -9 10 -20 10 -11 0 -20 5 -20 11 0 6 9 13 20 16 11 3 20 9 20 14 0
9 -11 9 -82 2z m12 -38 c0 -8 -4 -15 -10 -15 -5 0 -10 7 -10 15 0 8 5 15 10
15 6 0 10 -7 10 -15z m0 -44 c0 -5 -6 -12 -12 -15 -10 -5 -10 -7 0 -12 17 -8
15 -24 -3 -24 -10 0 -15 10 -15 30 0 20 5 30 15 30 8 0 15 -4 15 -9z"/>
<path d="M532 3790 c-13 -21 -9 -40 9 -40 5 0 14 10 19 23 7 17 9 18 9 5 1
-10 6 -18 12 -18 6 0 9 10 7 23 -4 29 -39 34 -56 7z"/>
<path d="M608 3533 l-38 -4 -2 -60 c-1 -32 -2 -67 -2 -76 -1 -19 9 -20 62 -9
31 7 32 7 32 -27 0 -49 -9 -67 -32 -67 -22 0 -20 -18 5 -34 12 -7 20 -7 27 0
13 13 40 135 33 147 -2 4 -15 7 -29 7 -14 0 -22 4 -19 10 3 6 15 10 26 10 10
0 19 5 19 10 0 6 -9 10 -20 10 -11 0 -20 5 -20 10 0 6 9 10 20 10 11 0 20 5
20 10 0 6 -9 10 -20 10 -11 0 -20 5 -20 11 0 6 9 13 20 16 11 3 20 9 20 14 0
9 -11 9 -82 2z m12 -38 c0 -8 -4 -15 -10 -15 -5 0 -10 7 -10 15 0 8 5 15 10
15 6 0 10 -7 10 -15z m0 -44 c0 -5 -6 -12 -12 -15 -10 -5 -10 -7 0 -12 17 -8
15 -24 -3 -24 -10 0 -15 10 -15 30 0 20 5 30 15 30 8 0 15 -4 15 -9z"/>
<path d="M590 3363 c0 -5 4 -15 10 -23 11 -18 25 -7 17 15 -6 15 -27 21 -27 8z"/>
<path d="M532 3340 c-13 -21 -9 -40 9 -40 5 0 14 10 19 23 7 17 9 18 9 5 1
-10 6 -18 12 -18 6 0 9 10 7 23 -4 29 -39 34 -56 7z"/>
<path d="M608 3083 l-38 -4 -2 -60 c-1 -32 -2 -67 -2 -76 -1 -19 9 -20 62 -9
25 6 32 4 32 -8 0 -10 -6 -13 -15 -10 -9 4 -15 0 -15 -10 0 -9 7 -16 15 -16 8
0 15 -4 15 -9 0 -23 -14 -41 -32 -41 -22 0 -20 -18 5 -34 12 -7 20 -7 27 0 13
13 40 135 33 147 -2 4 -15 7 -29 7 -14 0 -22 4 -19 10 3 6 15 10 26 10 10 0
19 5 19 10 0 6 -9 10 -20 10 -11 0 -20 5 -20 10 0 6 9 10 20 10 11 0 20 5 20
10 0 6 -9 10 -20 10 -11 0 -20 5 -20 11 0 6 9 13 20 16 11 3 20 9 20 14 0 9
-11 9 -82 2z m12 -38 c0 -8 -4 -15 -10 -15 -5 0 -10 7 -10 15 0 8 5 15 10 15
6 0 10 -7 10 -15z m0 -44 c0 -5 -6 -12 -12 -15 -10 -5 -10 -7 0 -12 17 -8 15
-24 -3 -24 -10 0 -15 10 -15 30 0 20 5 30 15 30 8 0 15 -4 15 -9z"/>
<path d="M590 2913 c0 -5 4 -15 10 -23 11 -18 25 -7 17 15 -6 15 -27 21 -27 8z"/>
<path d="M532 2890 c-13 -21 -9 -40 9 -40 5 0 14 10 19 23 7 17 9 18 9 5 1
-10 6 -18 12 -18 6 0 9 10 7 23 -4 29 -39 34 -56 7z"/>
<path d="M608 2633 l-38 -4 -2 -60 c-1 -32 -2 -67 -2 -76 -1 -19 9 -20 62 -9
25 6 32 4 32 -8 0 -10 -6 -13 -15 -10 -9 4 -15 0 -15 -10 0 -9 7 -16 15 -16 8
0 15 -4 15 -9 0 -23 -14 -41 -32 -41 -22 0 -20 -18 5 -34 12 -7 20 -7 27 0 13
13 40 135 33 147 -2 4 -15 7 -29 7 -14 0 -22 4 -19 10 3 6 15 10 26 10 10 0
19 5 19 10 0 6 -9 10 -20 10 -11 0 -20 5 -20 10 0 6 9 10 20 10 11 0 20 5 20
10 0 6 -9 10 -20 10 -11 0 -20 5 -20 11 0 6 9 13 20 16 11 3 20 9 20 14 0 9
-11 9 -82 2z m12 -38 c0 -8 -4 -15 -10 -15 -5 0 -10 7 -10 15 0 8 5 15 10 15
6 0 10 -7 10 -15z m0 -44 c0 -5 -6 -12 -12 -15 -10 -5 -10 -7 0 -12 17 -8 15
-24 -3 -24 -10 0 -15 10 -15 30 0 20 5 30 15 30 8 0 15 -4 15 -9z"/>
<path d="M790 2628 c-25 -5 -55 -12 -67 -14 -13 -2 -23 -9 -23 -15 0 -6 11 -8
28 -5 15 3 51 8 80 11 31 4 52 11 49 18 -5 15 -15 16 -67 5z"/>
<path d="M590 2463 c0 -5 4 -15 10 -23 11 -18 25 -7 17 15 -6 15 -27 21 -27 8z"/>
<path d="M532 2440 c-13 -21 -9 -40 9 -40 5 0 14 10 19 23 7 17 9 18 9 5 1
-10 6 -18 12 -18 6 0 9 10 7 23 -4 29 -39 34 -56 7z"/>
<path d="M608 2183 l-38 -4 -2 -60 c-1 -32 -2 -67 -2 -76 -1 -19 9 -20 62 -9
25 6 32 4 32 -8 0 -10 -6 -13 -15 -10 -9 4 -15 0 -15 -10 0 -9 7 -16 15 -16 8
0 15 -4 15 -9 0 -23 -14 -41 -32 -41 -22 0 -20 -18 5 -34 12 -7 20 -7 27 0 13
13 40 135 33 147 -2 4 -15 7 -29 7 -14 0 -22 4 -19 10 3 6 15 10 26 10 10 0
19 5 19 10 0 6 -9 10 -20 10 -11 0 -20 5 -20 10 0 6 9 10 20 10 11 0 20 5 20
10 0 6 -9 10 -20 10 -11 0 -20 5 -20 11 0 6 9 13 20 16 11 3 20 9 20 14 0 9
-11 9 -82 2z m12 -38 c0 -8 -4 -15 -10 -15 -5 0 -10 7 -10 15 0 8 5 15 10 15
6 0 10 -7 10 -15z m0 -44 c0 -5 -6 -12 -12 -15 -10 -5 -10 -7 0 -12 17 -8 15
-24 -3 -24 -10 0 -15 10 -15 30 0 20 5 30 15 30 8 0 15 -4 15 -9z"/>
<path d="M790 2178 c-25 -5 -55 -12 -67 -14 -13 -2 -23 -9 -23 -15 0 -6 11 -8
28 -5 15 3 51 8 80 11 31 4 52 11 49 18 -5 15 -15 16 -67 5z"/>
<path d="M740 2126 c0 -15 24 -66 31 -66 10 0 12 31 3 54 -5 13 -34 24 -34 12z"/>
<path d="M590 2013 c0 -5 4 -15 10 -23 11 -18 25 -7 17 15 -6 15 -27 21 -27 8z"/>
<path d="M532 1990 c-13 -21 -9 -40 9 -40 5 0 14 10 19 23 7 17 9 18 9 5 1
-10 6 -18 12 -18 6 0 9 10 7 23 -4 29 -39 34 -56 7z"/>
<path d="M608 1733 l-38 -4 -2 -60 c-1 -32 -2 -67 -2 -76 -1 -19 9 -20 62 -9
25 6 32 4 32 -8 0 -10 -6 -13 -15 -10 -9 4 -15 0 -15 -10 0 -9 7 -16 15 -16 8
0 15 -4 15 -9 0 -23 -14 -41 -32 -41 -22 0 -20 -18 5 -34 12 -7 20 -7 27 0 13
13 40 135 33 147 -2 4 -15 7 -29 7 -14 0 -22 4 -19 10 3 6 15 10 26 10 10 0
19 5 19 10 0 6 -9 10 -20 10 -11 0 -20 5 -20 10 0 6 9 10 20 10 11 0 20 5 20
10 0 6 -9 10 -20 10 -11 0 -20 5 -20 11 0 6 9 13 20 16 11 3 20 9 20 14 0 9
-11 9 -82 2z m12 -38 c0 -8 -4 -15 -10 -15 -5 0 -10 7 -10 15 0 8 5 15 10 15
6 0 10 -7 10 -15z m0 -44 c0 -5 -6 -12 -12 -15 -10 -5 -10 -7 0 -12 17 -8 15
-24 -3 -24 -10 0 -15 10 -15 30 0 20 5 30 15 30 8 0 15 -4 15 -9z"/>
<path d="M790 1728 c-25 -5 -55 -12 -67 -14 -13 -2 -23 -9 -23 -15 0 -6 11 -8
28 -5 15 3 51 8 80 11 31 4 52 11 49 18 -5 15 -15 16 -67 5z"/>
<path d="M768 1683 c-16 -2 -28 -6 -28 -7 0 -2 5 -17 11 -35 13 -37 29 -41 29
-7 0 14 5 28 10 31 6 4 10 -5 10 -19 0 -33 18 -33 30 0 18 46 14 48 -62 37z"/>
<path d="M590 1563 c0 -5 4 -15 10 -23 11 -18 25 -7 17 15 -6 15 -27 21 -27 8z"/>
<path d="M532 1540 c-13 -21 -9 -40 9 -40 5 0 14 10 19 23 7 17 9 18 9 5 1
-10 6 -18 12 -18 6 0 9 10 7 23 -4 29 -39 34 -56 7z"/>
<path d="M608 1283 l-38 -4 -2 -60 c-1 -32 -2 -67 -2 -76 -1 -19 9 -20 62 -9
25 6 32 4 32 -8 0 -10 -6 -13 -15 -10 -9 4 -15 0 -15 -10 0 -9 7 -16 15 -16 8
0 15 -4 15 -9 0 -23 -14 -41 -32 -41 -22 0 -20 -18 5 -34 12 -7 20 -7 27 0 13
13 40 135 33 147 -2 4 -15 7 -29 7 -14 0 -22 4 -19 10 3 6 15 10 26 10 10 0
19 5 19 10 0 6 -9 10 -20 10 -11 0 -20 5 -20 10 0 6 9 10 20 10 11 0 20 5 20
10 0 6 -9 10 -20 10 -11 0 -20 5 -20 11 0 6 9 13 20 16 11 3 20 9 20 14 0 9
-11 9 -82 2z m12 -38 c0 -8 -4 -15 -10 -15 -5 0 -10 7 -10 15 0 8 5 15 10 15
6 0 10 -7 10 -15z m0 -44 c0 -5 -6 -12 -12 -15 -10 -5 -10 -7 0 -12 17 -8 15
-24 -3 -24 -10 0 -15 10 -15 30 0 20 5 30 15 30 8 0 15 -4 15 -9z"/>
<path d="M790 1278 c-25 -5 -55 -12 -67 -14 -13 -2 -23 -9 -23 -15 0 -6 11 -8
28 -5 15 3 51 8 80 11 31 4 52 11 49 18 -5 15 -15 16 -67 5z"/>
<path d="M768 1233 c-16 -2 -28 -6 -28 -7 0 -2 5 -17 11 -35 17 -49 71 -36 85
22 7 29 2 30 -68 20z m28 -50 c-11 -11 -19 6 -11 24 8 17 8 17 12 0 3 -10 2
-21 -1 -24z"/>
<path d="M590 1113 c0 -5 4 -15 10 -23 11 -18 25 -7 17 15 -6 15 -27 21 -27 8z"/>
<path d="M532 1090 c-13 -21 -9 -40 9 -40 5 0 14 10 19 23 7 17 9 18 9 5 1
-10 6 -18 12 -18 6 0 9 10 7 23 -4 29 -39 34 -56 7z"/>
<path d="M608 833 l-38 -4 -2 -60 c-1 -32 -2 -67 -2 -76 -1 -19 9 -20 62 -9
25 6 32 4 32 -8 0 -10 -6 -13 -15 -10 -9 4 -15 0 -15 -10 0 -9 7 -16 15 -16 8
0 15 -4 15 -9 0 -23 -14 -41 -32 -41 -22 0 -20 -18 5 -34 12 -7 20 -7 27 0 13
13 40 135 33 147 -2 4 -15 7 -29 7 -14 0 -22 4 -19 10 3 6 15 10 26 10 10 0
19 5 19 10 0 6 -9 10 -20 10 -11 0 -20 5 -20 10 0 6 9 10 20 10 11 0 20 5 20
10 0 6 -9 10 -20 10 -11 0 -20 5 -20 11 0 6 9 13 20 16 11 3 20 9 20 14 0 9
-11 9 -82 2z m12 -38 c0 -8 -4 -15 -10 -15 -5 0 -10 7 -10 15 0 8 5 15 10 15
6 0 10 -7 10 -15z m0 -44 c0 -5 -6 -12 -12 -15 -10 -5 -10 -7 0 -12 17 -8 15
-24 -3 -24 -10 0 -15 10 -15 30 0 20 5 30 15 30 8 0 15 -4 15 -9z"/>
<path d="M790 828 c-25 -5 -55 -12 -67 -14 -13 -2 -23 -9 -23 -15 0 -6 11 -8
28 -5 15 3 51 8 80 11 31 4 52 11 49 18 -5 15 -15 16 -67 5z"/>
<path d="M768 783 c-16 -2 -28 -6 -28 -7 0 -2 5 -17 11 -35 17 -49 71 -36 85
22 7 29 2 30 -68 20z m28 -50 c-11 -11 -19 6 -11 24 8 17 8 17 12 0 3 -10 2
-21 -1 -24z"/>
<path d="M730 650 c0 -16 5 -30 10 -30 6 0 10 14 10 30 0 17 -4 30 -10 30 -5
0 -10 -13 -10 -30z"/>
<path d="M590 663 c0 -5 4 -15 10 -23 11 -18 25 -7 17 15 -6 15 -27 21 -27 8z"/>
<path d="M532 640 c-13 -21 -9 -40 9 -40 5 0 14 10 19 23 7 17 9 18 9 5 1 -10
6 -18 12 -18 6 0 9 10 7 23 -4 29 -39 34 -56 7z"/>
<path d="M608 383 l-38 -4 -2 -60 c-1 -32 -2 -67 -2 -76 -1 -19 9 -20 62 -9
25 6 32 4 32 -8 0 -10 -6 -13 -15 -10 -9 4 -15 0 -15 -10 0 -9 7 -16 15 -16 8
0 15 -4 15 -9 0 -23 -14 -41 -32 -41 -22 0 -20 -18 5 -34 12 -7 20 -7 27 0 13
13 40 135 33 147 -2 4 -15 7 -29 7 -14 0 -22 4 -19 10 3 6 15 10 26 10 10 0
19 5 19 10 0 6 -9 10 -20 10 -11 0 -20 5 -20 10 0 6 9 10 20 10 11 0 20 5 20
10 0 6 -9 10 -20 10 -11 0 -20 5 -20 11 0 6 9 13 20 16 11 3 20 9 20 14 0 9
-11 9 -82 2z m12 -38 c0 -8 -4 -15 -10 -15 -5 0 -10 7 -10 15 0 8 5 15 10 15
6 0 10 -7 10 -15z m0 -44 c0 -5 -6 -12 -12 -15 -10 -5 -10 -7 0 -12 17 -8 15
-24 -3 -24 -10 0 -15 10 -15 30 0 20 5 30 15 30 8 0 15 -4 15 -9z"/>
<path d="M790 378 c-25 -5 -55 -12 -67 -14 -13 -2 -23 -9 -23 -15 0 -6 11 -8
28 -5 15 3 51 8 80 11 31 4 52 11 49 18 -5 15 -15 16 -67 5z"/>
<path d="M768 333 c-16 -2 -28 -6 -28 -7 0 -2 5 -17 11 -35 17 -49 71 -36 85
22 7 29 2 30 -68 20z m28 -50 c-11 -11 -19 6 -11 24 8 17 8 17 12 0 3 -10 2
-21 -1 -24z"/>
<path d="M748 233 c-19 -5 -26 -63 -8 -63 6 0 10 9 10 19 0 11 5 23 10 26 6 3
10 -3 10 -14 0 -28 16 -27 23 1 10 35 -1 43 -45 31z"/>
<path d="M590 213 c0 -5 4 -15 10 -23 11 -18 25 -7 17 15 -6 15 -27 21 -27 8z"/>
<path d="M532 190 c-13 -21 -9 -40 9 -40 5 0 14 10 19 23 7 17 9 18 9 5 1 -10
6 -18 12 -18 6 0 9 10 7 23 -4 29 -39 34 -56 7z"/>
</g>
</svg>
