<?xml version="1.0" standalone="no"?>
<!DOCTYPE svg PUBLIC "-//W3C//DTD SVG 20010904//EN"
 "http://www.w3.org/TR/2001/REC-SVG-20010904/DTD/svg10.dtd">
<svg version="1.0" xmlns="http://www.w3.org/2000/svg"
 width="95.000000pt" height="725.000000pt" viewBox="0 0 95.000000 725.000000"
 preserveAspectRatio="xMidYMid meet">
<metadata>
Created by potrace 1.16, written by Peter Selinger 2001-2019
</metadata>
<g transform="translate(0.000000,725.000000) scale(0.100000,-0.100000)"
fill="#000000" stroke="none">
<path d="M360 7146 c0 -14 -4 -26 -10 -26 -5 0 -9 -10 -7 -22 2 -20 -3 -23
-35 -26 -21 -2 -38 -8 -38 -14 0 -7 20 -9 55 -6 59 5 78 14 56 27 -19 12 -4
31 25 31 13 0 24 5 24 10 0 6 -8 10 -19 10 -12 0 -18 7 -17 17 0 10 -7 19 -16
21 -14 3 -18 -3 -18 -22z"/>
<path d="M273 7130 c4 -15 0 -20 -14 -20 -10 0 -19 -4 -19 -10 0 -5 9 -10 19
-10 11 0 26 -3 34 -6 8 -3 17 2 21 13 4 10 2 19 -3 21 -6 2 -11 10 -11 18 0 8
-7 14 -16 14 -11 0 -15 -6 -11 -20z"/>
<path d="M150 7133 l-35 -4 -1 -79 c0 -44 2 -80 5 -80 3 1 25 5 49 9 32 6 42
5 42 -5 0 -8 -6 -11 -15 -8 -8 4 -15 1 -15 -5 0 -6 -7 -8 -15 -5 -9 4 -15 0
-15 -9 0 -20 20 -33 29 -19 10 16 35 -3 28 -22 -4 -9 -14 -16 -23 -16 -11 0
-14 -5 -10 -16 3 -9 6 -18 6 -20 0 -2 9 -4 20 -4 19 0 40 48 40 95 0 29 14 47
32 40 8 -3 20 1 27 9 11 13 10 18 -2 31 -19 19 -37 19 -37 1 0 -17 -17 -24
-47 -18 -29 5 -30 22 -2 22 12 0 19 5 16 13 -2 6 -12 11 -21 11 -9 -1 -16 2
-16 7 0 5 7 9 15 9 8 0 15 7 15 15 0 8 -4 15 -10 15 -5 0 -10 5 -10 10 0 6 9
10 20 10 11 0 20 5 20 10 0 10 -20 10 -90 3z m18 -35 c-6 -18 -28 -21 -28 -4
0 9 7 16 16 16 9 0 14 -5 12 -12z m-3 -48 c-3 -5 -10 -10 -16 -10 -5 0 -9 5
-9 10 0 6 7 10 16 10 8 0 12 -4 9 -10z m5 -40 c0 -5 -7 -10 -15 -10 -8 0 -15
5 -15 10 0 6 7 10 15 10 8 0 15 -4 15 -10z"/>
<path d="M565 7055 c-1 -98 19 -95 23 3 2 54 0 72 -10 72 -9 0 -13 -21 -13
-75z"/>
<path d="M110 6952 c0 -19 12 -42 22 -42 14 0 5 43 -9 48 -7 2 -13 -1 -13 -6z"/>
<path d="M76 6924 c-7 -18 0 -34 15 -34 5 0 9 11 9 25 0 28 -15 34 -24 9z"/>
<path d="M360 6696 c0 -14 -4 -26 -10 -26 -5 0 -9 -10 -7 -22 2 -20 -3 -23
-35 -26 -21 -2 -38 -8 -38 -14 0 -7 20 -9 55 -6 59 5 78 14 56 27 -19 12 -4
31 25 31 13 0 24 5 24 10 0 6 -8 10 -19 10 -12 0 -18 7 -17 17 0 10 -7 19 -16
21 -14 3 -18 -3 -18 -22z"/>
<path d="M273 6680 c4 -15 0 -20 -14 -20 -10 0 -19 -4 -19 -10 0 -5 9 -10 19
-10 11 0 26 -3 34 -6 8 -3 17 2 21 13 4 10 2 19 -3 21 -6 2 -11 10 -11 18 0 8
-7 14 -16 14 -11 0 -15 -6 -11 -20z"/>
<path d="M150 6683 l-35 -4 -1 -79 c0 -44 2 -80 5 -80 3 1 25 5 49 9 32 6 42
5 42 -5 0 -8 -6 -11 -15 -8 -8 4 -15 1 -15 -5 0 -6 -7 -8 -15 -5 -9 4 -15 0
-15 -9 0 -20 20 -33 29 -19 10 16 35 -3 28 -22 -4 -9 -14 -16 -23 -16 -11 0
-14 -5 -10 -16 3 -9 6 -18 6 -20 0 -2 9 -4 20 -4 19 0 40 48 40 95 0 29 14 47
32 40 8 -3 20 1 27 9 11 13 10 18 -2 31 -19 19 -37 19 -37 1 0 -17 -17 -24
-47 -18 -29 5 -30 22 -2 22 12 0 19 5 16 13 -2 6 -12 11 -21 11 -9 -1 -16 2
-16 7 0 5 7 9 15 9 8 0 15 7 15 15 0 8 -4 15 -10 15 -5 0 -10 5 -10 10 0 6 9
10 20 10 11 0 20 5 20 10 0 10 -20 10 -90 3z m18 -35 c-6 -18 -28 -21 -28 -4
0 9 7 16 16 16 9 0 14 -5 12 -12z m-3 -48 c-3 -5 -10 -10 -16 -10 -5 0 -9 5
-9 10 0 6 7 10 16 10 8 0 12 -4 9 -10z m5 -40 c0 -5 -7 -10 -15 -10 -8 0 -15
5 -15 10 0 6 7 10 15 10 8 0 15 -4 15 -10z"/>
<path d="M600 6683 l-35 -4 0 -75 c-1 -90 19 -96 23 -7 l3 61 49 7 c28 4 50
11 50 16 0 9 -21 9 -90 2z"/>
<path d="M378 6573 c-43 -7 -33 -23 13 -23 27 0 39 4 37 12 -5 14 -14 16 -50
11z"/>
<path d="M110 6502 c0 -19 12 -42 22 -42 14 0 5 43 -9 48 -7 2 -13 -1 -13 -6z"/>
<path d="M76 6474 c-7 -18 0 -34 15 -34 5 0 9 11 9 25 0 28 -15 34 -24 9z"/>
<path d="M360 6246 c0 -14 -4 -26 -10 -26 -5 0 -9 -10 -7 -22 2 -20 -3 -23
-35 -26 -21 -2 -38 -8 -38 -14 0 -6 20 -9 50 -6 42 2 50 0 50 -14 0 -10 -5
-18 -11 -18 -6 0 -8 -9 -3 -22 9 -32 14 -35 25 -15 6 9 19 17 29 17 25 0 25
11 0 33 -11 9 -20 23 -20 31 0 8 -5 16 -12 18 -19 7 2 28 28 28 13 0 24 5 24
10 0 6 -8 10 -19 10 -12 0 -18 7 -17 17 0 10 -7 19 -16 21 -14 3 -18 -3 -18
-22z"/>
<path d="M273 6230 c4 -15 0 -20 -14 -20 -10 0 -19 -4 -19 -10 0 -5 9 -10 19
-10 11 0 26 -3 34 -6 8 -3 17 2 21 13 4 10 2 19 -3 21 -6 2 -11 10 -11 18 0 8
-7 14 -16 14 -11 0 -15 -6 -11 -20z"/>
<path d="M150 6233 l-35 -4 -1 -79 c0 -44 2 -80 5 -80 3 1 25 5 49 9 32 6 42
5 42 -5 0 -8 -6 -11 -15 -8 -8 4 -15 1 -15 -5 0 -6 -7 -8 -15 -5 -9 4 -15 0
-15 -9 0 -20 20 -33 29 -19 10 16 35 -3 28 -22 -4 -9 -14 -16 -23 -16 -11 0
-14 -5 -10 -16 3 -9 6 -18 6 -20 0 -2 9 -4 20 -4 19 0 40 48 40 95 0 29 14 47
32 40 8 -3 20 1 27 9 11 13 10 18 -2 31 -19 19 -37 19 -37 1 0 -17 -17 -24
-47 -18 -29 5 -30 22 -2 22 12 0 19 5 16 13 -2 6 -12 11 -21 11 -9 -1 -16 2
-16 7 0 5 7 9 15 9 8 0 15 7 15 15 0 8 -4 15 -10 15 -5 0 -10 5 -10 10 0 6 9
10 20 10 11 0 20 5 20 10 0 10 -20 10 -90 3z m18 -35 c-6 -18 -28 -21 -28 -4
0 9 7 16 16 16 9 0 14 -5 12 -12z m-3 -48 c-3 -5 -10 -10 -16 -10 -5 0 -9 5
-9 10 0 6 7 10 16 10 8 0 12 -4 9 -10z m5 -40 c0 -5 -7 -10 -15 -10 -8 0 -15
5 -15 10 0 6 7 10 15 10 8 0 15 -4 15 -10z"/>
<path d="M600 6233 l-35 -4 0 -75 c-1 -47 3 -73 10 -71 5 2 11 20 13 40 3 35
6 37 43 43 24 4 39 12 39 21 0 10 -7 12 -20 9 -11 -3 -29 -9 -40 -12 -14 -4
-20 -1 -20 9 0 10 16 17 50 22 28 4 50 11 50 16 0 9 -21 9 -90 2z"/>
<path d="M110 6052 c0 -19 12 -42 22 -42 14 0 5 43 -9 48 -7 2 -13 -1 -13 -6z"/>
<path d="M76 6024 c-7 -18 0 -34 15 -34 5 0 9 11 9 25 0 28 -15 34 -24 9z"/>
<path d="M360 5796 c0 -14 -4 -26 -10 -26 -5 0 -9 -10 -7 -22 2 -20 -3 -23
-35 -26 -21 -2 -38 -8 -38 -14 0 -6 20 -9 50 -6 42 2 50 0 50 -14 0 -10 -5
-18 -11 -18 -6 0 -8 -9 -4 -21 9 -28 -8 -39 -63 -39 -31 0 -42 -4 -40 -12 5
-15 2 -15 96 -5 39 5 72 12 72 18 0 5 -9 9 -21 9 -27 0 -19 24 9 28 27 4 28
13 2 35 -11 9 -20 23 -20 31 0 8 -5 16 -12 18 -19 7 2 28 28 28 13 0 24 5 24
10 0 6 -8 10 -19 10 -12 0 -18 7 -17 17 0 10 -7 19 -16 21 -14 3 -18 -3 -18
-22z"/>
<path d="M273 5780 c4 -15 0 -20 -14 -20 -10 0 -19 -4 -19 -10 0 -5 9 -10 19
-10 11 0 26 -3 34 -6 8 -3 17 2 21 13 4 10 2 19 -3 21 -6 2 -11 10 -11 18 0 8
-7 14 -16 14 -11 0 -15 -6 -11 -20z"/>
<path d="M150 5783 l-35 -4 -1 -79 c0 -44 2 -80 5 -80 3 1 25 5 49 9 32 6 42
5 42 -5 0 -8 -6 -11 -15 -8 -8 4 -15 1 -15 -5 0 -6 -7 -8 -15 -5 -9 4 -15 0
-15 -9 0 -20 20 -33 29 -19 10 16 35 -3 28 -22 -4 -9 -14 -16 -23 -16 -11 0
-14 -5 -10 -16 3 -9 6 -18 6 -20 0 -2 9 -4 20 -4 19 0 40 48 40 95 0 29 14 47
32 40 8 -3 20 1 27 9 11 13 10 18 -2 31 -19 19 -37 19 -37 1 0 -17 -17 -24
-47 -18 -29 5 -30 22 -2 22 12 0 19 5 16 13 -2 6 -12 11 -21 11 -9 -1 -16 2
-16 7 0 5 7 9 15 9 8 0 15 7 15 15 0 8 -4 15 -10 15 -5 0 -10 5 -10 10 0 6 9
10 20 10 11 0 20 5 20 10 0 10 -20 10 -90 3z m18 -35 c-6 -18 -28 -21 -28 -4
0 9 7 16 16 16 9 0 14 -5 12 -12z m-3 -48 c-3 -5 -10 -10 -16 -10 -5 0 -9 5
-9 10 0 6 7 10 16 10 8 0 12 -4 9 -10z m5 -40 c0 -5 -7 -10 -15 -10 -8 0 -15
5 -15 10 0 6 7 10 15 10 8 0 15 -4 15 -10z"/>
<path d="M600 5783 l-35 -4 0 -74 c-1 -70 11 -99 22 -56 5 20 30 31 71 31 15
0 22 5 19 13 -4 13 -20 13 -62 3 -14 -4 -25 -2 -25 4 0 5 18 13 40 16 25 4 40
12 40 21 0 10 -7 12 -20 9 -11 -3 -29 -9 -40 -12 -14 -4 -20 -1 -20 9 0 10 16
17 50 22 28 4 50 11 50 16 0 9 -21 9 -90 2z"/>
<path d="M110 5602 c0 -19 12 -42 22 -42 14 0 5 43 -9 48 -7 2 -13 -1 -13 -6z"/>
<path d="M76 5574 c-7 -18 0 -34 15 -34 5 0 9 11 9 25 0 28 -15 34 -24 9z"/>
<path d="M360 5346 c0 -14 -4 -26 -10 -26 -5 0 -9 -10 -7 -22 2 -20 -3 -23
-35 -26 -21 -2 -38 -8 -38 -14 0 -6 20 -9 50 -6 42 2 50 0 50 -14 0 -10 -5
-18 -11 -18 -6 0 -8 -9 -4 -21 9 -28 -8 -39 -63 -39 -31 0 -42 -4 -40 -12 5
-15 2 -15 96 -5 39 5 72 12 72 18 0 5 -9 9 -21 9 -27 0 -19 24 9 28 27 4 28
13 2 35 -11 9 -20 23 -20 31 0 8 -5 16 -12 18 -19 7 2 28 28 28 13 0 24 5 24
10 0 6 -8 10 -19 10 -12 0 -18 7 -17 17 0 10 -7 19 -16 21 -14 3 -18 -3 -18
-22z"/>
<path d="M273 5330 c4 -15 0 -20 -14 -20 -10 0 -19 -4 -19 -10 0 -5 9 -10 19
-10 11 0 26 -3 34 -6 8 -3 17 2 21 13 4 10 2 19 -3 21 -6 2 -11 10 -11 18 0 8
-7 14 -16 14 -11 0 -15 -6 -11 -20z"/>
<path d="M150 5333 l-35 -4 -1 -79 c0 -44 2 -80 5 -80 3 1 25 5 49 9 32 6 42
5 42 -5 0 -8 -6 -11 -15 -8 -8 4 -15 1 -15 -5 0 -6 -7 -8 -15 -5 -9 4 -15 0
-15 -9 0 -20 20 -33 29 -19 10 16 35 -3 28 -22 -4 -9 -14 -16 -23 -16 -11 0
-14 -5 -10 -16 3 -9 6 -18 6 -20 0 -2 9 -4 20 -4 19 0 40 48 40 95 0 29 14 47
32 40 8 -3 20 1 27 9 11 13 10 18 -2 31 -19 19 -37 19 -37 1 0 -17 -17 -24
-47 -18 -29 5 -30 22 -2 22 12 0 19 5 16 13 -2 6 -12 11 -21 11 -9 -1 -16 2
-16 7 0 5 7 9 15 9 8 0 15 7 15 15 0 8 -4 15 -10 15 -5 0 -10 5 -10 10 0 6 9
10 20 10 11 0 20 5 20 10 0 10 -20 10 -90 3z m18 -35 c-6 -18 -28 -21 -28 -4
0 9 7 16 16 16 9 0 14 -5 12 -12z m-3 -48 c-3 -5 -10 -10 -16 -10 -5 0 -9 5
-9 10 0 6 7 10 16 10 8 0 12 -4 9 -10z m5 -40 c0 -5 -7 -10 -15 -10 -8 0 -15
5 -15 10 0 6 7 10 15 10 8 0 15 -4 15 -10z"/>
<path d="M600 5333 l-35 -4 0 -74 c-1 -71 11 -99 22 -55 6 23 33 27 33 5 0 -8
5 -15 10 -15 6 0 10 9 10 20 0 14 7 20 21 20 12 0 19 5 16 13 -2 6 -12 11 -21
11 -9 -1 -16 2 -16 7 0 5 7 9 15 9 8 0 15 7 15 15 0 8 -4 15 -10 15 -5 0 -10
5 -10 10 0 6 9 10 20 10 11 0 20 5 20 10 0 10 -20 10 -90 3z m18 -35 c-6 -18
-28 -21 -28 -4 0 9 7 16 16 16 9 0 14 -5 12 -12z m-3 -48 c-3 -5 -10 -10 -16
-10 -5 0 -9 5 -9 10 0 6 7 10 16 10 8 0 12 -4 9 -10z"/>
<path d="M110 5152 c0 -19 12 -42 22 -42 14 0 5 43 -9 48 -7 2 -13 -1 -13 -6z"/>
<path d="M76 5124 c-7 -18 0 -34 15 -34 5 0 9 11 9 25 0 28 -15 34 -24 9z"/>
<path d="M298 5123 c-54 -6 -47 -23 10 -23 55 0 92 9 92 21 0 9 -30 9 -102 2z"/>
<path d="M360 4896 c0 -14 -4 -26 -10 -26 -5 0 -9 -10 -7 -22 2 -20 -3 -23
-35 -26 -39 -3 -54 -22 -18 -22 12 0 22 -9 26 -24 11 -43 1 -61 -34 -64 -20
-2 -32 -8 -29 -15 2 -7 18 -11 37 -9 21 2 30 0 25 -7 -3 -6 -17 -11 -31 -11
-13 0 -24 -4 -24 -10 0 -5 14 -10 31 -10 19 0 28 -4 24 -11 -9 -14 3 -59 15
-59 6 0 10 15 10 34 0 30 4 35 30 41 40 9 38 25 -2 25 -25 0 -29 3 -18 10 8 5
27 10 43 10 15 0 27 5 27 10 0 6 -9 10 -21 10 -27 0 -19 24 9 28 27 4 28 13 2
35 -11 9 -20 23 -20 31 0 8 -5 16 -12 18 -19 7 2 28 28 28 13 0 24 5 24 10 0
6 -8 10 -19 10 -12 0 -18 7 -17 17 0 10 -7 19 -16 21 -14 3 -18 -3 -18 -22z
m1 -124 c-6 -2 -8 -14 -5 -28 4 -15 2 -24 -5 -24 -14 0 -14 31 1 67 10 24 12
25 16 8 2 -10 -1 -21 -7 -23z"/>
<path d="M273 4880 c4 -15 0 -20 -14 -20 -10 0 -19 -4 -19 -10 0 -5 9 -10 19
-10 11 0 26 -3 34 -6 8 -3 17 2 21 13 4 10 2 19 -3 21 -6 2 -11 10 -11 18 0 8
-7 14 -16 14 -11 0 -15 -6 -11 -20z"/>
<path d="M150 4883 l-35 -4 -1 -79 c0 -44 2 -80 5 -80 3 1 25 5 49 9 32 6 42
5 42 -5 0 -8 -6 -11 -15 -8 -8 4 -15 1 -15 -5 0 -6 -7 -8 -15 -5 -9 4 -15 0
-15 -9 0 -20 20 -33 29 -19 10 16 35 -3 28 -22 -4 -9 -14 -16 -23 -16 -11 0
-14 -5 -10 -16 3 -9 6 -18 6 -20 0 -2 9 -4 20 -4 19 0 40 48 40 95 0 29 14 47
32 40 8 -3 20 1 27 9 11 13 10 18 -2 31 -19 19 -37 19 -37 1 0 -17 -17 -24
-47 -18 -29 5 -30 22 -2 22 12 0 19 5 16 13 -2 6 -12 11 -21 11 -9 -1 -16 2
-16 7 0 5 7 9 15 9 8 0 15 7 15 15 0 8 -4 15 -10 15 -5 0 -10 5 -10 10 0 6 9
10 20 10 11 0 20 5 20 10 0 10 -20 10 -90 3z m18 -35 c-6 -18 -28 -21 -28 -4
0 9 7 16 16 16 9 0 14 -5 12 -12z m-3 -48 c-3 -5 -10 -10 -16 -10 -5 0 -9 5
-9 10 0 6 7 10 16 10 8 0 12 -4 9 -10z m5 -40 c0 -5 -7 -10 -15 -10 -8 0 -15
5 -15 10 0 6 7 10 15 10 8 0 15 -4 15 -10z"/>
<path d="M600 4883 l-35 -4 -1 -79 c0 -44 2 -80 5 -80 3 1 25 5 49 9 l42 8 0
-44 c0 -37 -4 -46 -21 -50 -12 -4 -18 -11 -15 -20 3 -8 6 -17 6 -19 0 -2 9 -4
20 -4 20 0 30 25 45 113 6 36 5 38 -25 43 -34 7 -41 24 -9 24 12 0 19 5 16 13
-2 6 -12 11 -21 11 -9 -1 -16 2 -16 7 0 5 7 9 15 9 8 0 15 7 15 15 0 8 -4 15
-10 15 -5 0 -10 5 -10 10 0 6 9 10 20 10 11 0 20 5 20 10 0 10 -20 10 -90 3z
m18 -35 c-6 -18 -28 -21 -28 -4 0 9 7 16 16 16 9 0 14 -5 12 -12z m-3 -48 c-3
-5 -10 -10 -16 -10 -5 0 -9 5 -9 10 0 6 7 10 16 10 8 0 12 -4 9 -10z m5 -40
c0 -5 -7 -10 -15 -10 -8 0 -15 5 -15 10 0 6 7 10 15 10 8 0 15 -4 15 -10z"/>
<path d="M110 4702 c0 -19 12 -42 22 -42 14 0 5 43 -9 48 -7 2 -13 -1 -13 -6z"/>
<path d="M76 4674 c-7 -18 0 -34 15 -34 5 0 9 11 9 25 0 28 -15 34 -24 9z"/>
<path d="M600 4433 l-35 -4 -1 -79 c0 -44 2 -80 5 -80 3 1 25 5 49 9 l42 8 0
-44 c0 -37 -4 -46 -21 -50 -12 -4 -18 -11 -15 -20 3 -8 6 -17 6 -19 0 -2 9 -4
20 -4 20 0 30 25 45 113 6 36 5 38 -25 43 -34 7 -41 24 -9 24 12 0 19 5 16 13
-2 6 -12 11 -21 11 -9 -1 -16 2 -16 7 0 5 7 9 15 9 8 0 15 7 15 15 0 8 -4 15
-10 15 -5 0 -10 5 -10 10 0 6 9 10 20 10 11 0 20 5 20 10 0 10 -20 10 -90 3z
m18 -35 c-6 -18 -28 -21 -28 -4 0 9 7 16 16 16 9 0 14 -5 12 -12z m-3 -48 c-3
-5 -10 -10 -16 -10 -5 0 -9 5 -9 10 0 6 7 10 16 10 8 0 12 -4 9 -10z m5 -40
c0 -5 -7 -10 -15 -10 -8 0 -15 5 -15 10 0 6 7 10 15 10 8 0 15 -4 15 -10z"/>
<path d="M526 4224 c-7 -18 0 -34 15 -34 5 0 9 11 9 25 0 28 -15 34 -24 9z"/>
<path d="M600 3983 l-35 -4 -1 -79 c0 -44 2 -80 5 -80 3 1 25 5 49 9 l42 8 0
-44 c0 -37 -4 -46 -21 -50 -12 -4 -18 -11 -15 -20 3 -8 6 -17 6 -19 0 -2 9 -4
20 -4 20 0 30 25 45 113 6 36 5 38 -25 43 -34 7 -41 24 -9 24 12 0 19 5 16 13
-2 6 -12 11 -21 11 -9 -1 -16 2 -16 7 0 5 7 9 15 9 8 0 15 7 15 15 0 8 -4 15
-10 15 -5 0 -10 5 -10 10 0 6 9 10 20 10 11 0 20 5 20 10 0 10 -20 10 -90 3z
m18 -35 c-6 -18 -28 -21 -28 -4 0 9 7 16 16 16 9 0 14 -5 12 -12z m-3 -48 c-3
-5 -10 -10 -16 -10 -5 0 -9 5 -9 10 0 6 7 10 16 10 8 0 12 -4 9 -10z m5 -40
c0 -5 -7 -10 -15 -10 -8 0 -15 5 -15 10 0 6 7 10 15 10 8 0 15 -4 15 -10z"/>
<path d="M560 3802 c0 -19 12 -42 22 -42 14 0 5 43 -9 48 -7 2 -13 -1 -13 -6z"/>
<path d="M526 3774 c-7 -18 0 -34 15 -34 5 0 9 11 9 25 0 28 -15 34 -24 9z"/>
<path d="M600 3533 l-35 -4 -1 -79 c0 -44 2 -80 5 -80 3 1 25 5 49 9 l42 8 0
-44 c0 -37 -4 -46 -21 -50 -12 -4 -18 -11 -15 -20 3 -8 6 -17 6 -19 0 -2 9 -4
20 -4 20 0 30 25 45 113 6 36 5 38 -25 43 -34 7 -41 24 -9 24 12 0 19 5 16 13
-2 6 -12 11 -21 11 -9 -1 -16 2 -16 7 0 5 7 9 15 9 8 0 15 7 15 15 0 8 -4 15
-10 15 -5 0 -10 5 -10 10 0 6 9 10 20 10 11 0 20 5 20 10 0 10 -20 10 -90 3z
m18 -35 c-6 -18 -28 -21 -28 -4 0 9 7 16 16 16 9 0 14 -5 12 -12z m-3 -48 c-3
-5 -10 -10 -16 -10 -5 0 -9 5 -9 10 0 6 7 10 16 10 8 0 12 -4 9 -10z m5 -40
c0 -5 -7 -10 -15 -10 -8 0 -15 5 -15 10 0 6 7 10 15 10 8 0 15 -4 15 -10z"/>
<path d="M560 3352 c0 -19 12 -42 22 -42 14 0 5 43 -9 48 -7 2 -13 -1 -13 -6z"/>
<path d="M602 3344 c1 -9 9 -19 16 -22 9 -3 13 2 10 14 -1 9 -9 19 -16 22 -9
3 -13 -2 -10 -14z"/>
<path d="M526 3324 c-7 -18 0 -34 15 -34 5 0 9 11 9 25 0 28 -15 34 -24 9z"/>
<path d="M600 3083 l-35 -4 -1 -79 c0 -44 2 -80 5 -80 3 1 25 5 49 9 32 6 42
5 42 -5 0 -8 -6 -11 -15 -8 -8 4 -15 1 -15 -5 0 -6 -7 -8 -15 -5 -9 4 -15 0
-15 -9 0 -20 20 -33 29 -19 10 16 35 -3 28 -22 -4 -9 -14 -16 -23 -16 -11 0
-14 -5 -10 -16 3 -9 6 -18 6 -20 0 -2 9 -4 20 -4 20 0 30 25 45 113 6 36 5 38
-25 43 -34 7 -41 24 -9 24 12 0 19 5 16 13 -2 6 -12 11 -21 11 -9 -1 -16 2
-16 7 0 5 7 9 15 9 8 0 15 7 15 15 0 8 -4 15 -10 15 -5 0 -10 5 -10 10 0 6 9
10 20 10 11 0 20 5 20 10 0 10 -20 10 -90 3z m18 -35 c-6 -18 -28 -21 -28 -4
0 9 7 16 16 16 9 0 14 -5 12 -12z m-3 -48 c-3 -5 -10 -10 -16 -10 -5 0 -9 5
-9 10 0 6 7 10 16 10 8 0 12 -4 9 -10z m5 -40 c0 -5 -7 -10 -15 -10 -8 0 -15
5 -15 10 0 6 7 10 15 10 8 0 15 -4 15 -10z"/>
<path d="M560 2902 c0 -19 12 -42 22 -42 14 0 5 43 -9 48 -7 2 -13 -1 -13 -6z"/>
<path d="M526 2874 c-7 -18 0 -34 15 -34 5 0 9 11 9 25 0 28 -15 34 -24 9z"/>
<path d="M725 2623 c7 -29 21 -50 29 -42 10 11 -8 69 -21 69 -12 0 -14 -7 -8
-27z"/>
<path d="M600 2633 l-35 -4 -1 -79 c0 -44 2 -80 5 -80 3 1 25 5 49 9 32 6 42
5 42 -5 0 -8 -6 -11 -15 -8 -8 4 -15 1 -15 -5 0 -6 -7 -8 -15 -5 -9 4 -15 0
-15 -9 0 -20 20 -33 29 -19 10 16 35 -3 28 -22 -4 -9 -14 -16 -23 -16 -11 0
-14 -5 -10 -16 3 -9 6 -18 6 -20 0 -2 9 -4 20 -4 20 0 30 25 45 113 6 36 5 38
-25 43 -34 7 -41 24 -9 24 12 0 19 5 16 13 -2 6 -12 11 -21 11 -9 -1 -16 2
-16 7 0 5 7 9 15 9 8 0 15 7 15 15 0 8 -4 15 -10 15 -5 0 -10 5 -10 10 0 6 9
10 20 10 11 0 20 5 20 10 0 10 -20 10 -90 3z m18 -35 c-6 -18 -28 -21 -28 -4
0 9 7 16 16 16 9 0 14 -5 12 -12z m-3 -48 c-3 -5 -10 -10 -16 -10 -5 0 -9 5
-9 10 0 6 7 10 16 10 8 0 12 -4 9 -10z m5 -40 c0 -5 -7 -10 -15 -10 -8 0 -15
5 -15 10 0 6 7 10 15 10 8 0 15 -4 15 -10z"/>
<path d="M560 2452 c0 -19 12 -42 22 -42 14 0 5 43 -9 48 -7 2 -13 -1 -13 -6z"/>
<path d="M526 2424 c-7 -18 0 -34 15 -34 5 0 9 11 9 25 0 28 -15 34 -24 9z"/>
<path d="M723 2180 c4 -15 0 -20 -14 -20 -10 0 -19 -4 -19 -10 0 -5 9 -10 19
-10 11 0 26 -3 34 -6 8 -3 17 2 21 13 4 10 2 19 -3 21 -6 2 -11 10 -11 18 0 8
-7 14 -16 14 -11 0 -15 -6 -11 -20z"/>
<path d="M600 2183 l-35 -4 -1 -79 c0 -44 2 -80 5 -80 3 1 25 5 49 9 32 6 42
5 42 -5 0 -8 -6 -11 -15 -8 -8 4 -15 1 -15 -5 0 -6 -7 -8 -15 -5 -9 4 -15 0
-15 -9 0 -20 20 -33 29 -19 10 16 35 -3 28 -22 -4 -9 -14 -16 -23 -16 -11 0
-14 -5 -10 -16 3 -9 6 -18 6 -20 0 -2 9 -4 20 -4 20 0 30 25 45 113 6 36 5 38
-25 43 -34 7 -41 24 -9 24 12 0 19 5 16 13 -2 6 -12 11 -21 11 -9 -1 -16 2
-16 7 0 5 7 9 15 9 8 0 15 7 15 15 0 8 -4 15 -10 15 -5 0 -10 5 -10 10 0 6 9
10 20 10 11 0 20 5 20 10 0 10 -20 10 -90 3z m18 -35 c-6 -18 -28 -21 -28 -4
0 9 7 16 16 16 9 0 14 -5 12 -12z m-3 -48 c-3 -5 -10 -10 -16 -10 -5 0 -9 5
-9 10 0 6 7 10 16 10 8 0 12 -4 9 -10z m5 -40 c0 -5 -7 -10 -15 -10 -8 0 -15
5 -15 10 0 6 7 10 15 10 8 0 15 -4 15 -10z"/>
<path d="M560 2002 c0 -19 12 -42 22 -42 14 0 5 43 -9 48 -7 2 -13 -1 -13 -6z"/>
<path d="M526 1974 c-7 -18 0 -34 15 -34 5 0 9 11 9 25 0 28 -15 34 -24 9z"/>
<path d="M723 1730 c4 -15 0 -20 -14 -20 -10 0 -19 -4 -19 -10 0 -5 9 -10 19
-10 11 0 26 -3 34 -6 8 -3 17 2 21 13 4 10 2 19 -3 21 -6 2 -11 10 -11 18 0 8
-7 14 -16 14 -11 0 -15 -6 -11 -20z"/>
<path d="M600 1733 l-35 -4 -1 -79 c0 -44 2 -80 5 -80 3 1 25 5 49 9 32 6 42
5 42 -5 0 -8 -6 -11 -15 -8 -8 4 -15 1 -15 -5 0 -6 -7 -8 -15 -5 -9 4 -15 0
-15 -9 0 -20 20 -33 29 -19 10 16 35 -3 28 -22 -4 -9 -14 -16 -23 -16 -11 0
-14 -5 -10 -16 3 -9 6 -18 6 -20 0 -2 9 -4 20 -4 20 0 30 25 45 113 6 36 5 38
-25 43 -34 7 -41 24 -9 24 12 0 19 5 16 13 -2 6 -12 11 -21 11 -9 -1 -16 2
-16 7 0 5 7 9 15 9 8 0 15 7 15 15 0 8 -4 15 -10 15 -5 0 -10 5 -10 10 0 6 9
10 20 10 11 0 20 5 20 10 0 10 -20 10 -90 3z m18 -35 c-6 -18 -28 -21 -28 -4
0 9 7 16 16 16 9 0 14 -5 12 -12z m-3 -48 c-3 -5 -10 -10 -16 -10 -5 0 -9 5
-9 10 0 6 7 10 16 10 8 0 12 -4 9 -10z m5 -40 c0 -5 -7 -10 -15 -10 -8 0 -15
5 -15 10 0 6 7 10 15 10 8 0 15 -4 15 -10z"/>
<path d="M800 1720 c-8 -5 -12 -11 -10 -14 9 -8 90 6 90 15 0 12 -61 11 -80
-1z"/>
<path d="M560 1552 c0 -19 12 -42 22 -42 14 0 5 43 -9 48 -7 2 -13 -1 -13 -6z"/>
<path d="M526 1524 c-7 -18 0 -34 15 -34 5 0 9 11 9 25 0 28 -15 34 -24 9z"/>
<path d="M810 1296 c0 -14 -4 -26 -10 -26 -13 0 -13 -11 0 -30 9 -13 12 -13
21 3 5 9 21 17 34 17 14 0 25 5 25 10 0 6 -8 10 -19 10 -12 0 -18 7 -17 17 0
10 -7 19 -16 21 -14 3 -18 -3 -18 -22z"/>
<path d="M723 1280 c4 -15 0 -20 -14 -20 -10 0 -19 -4 -19 -10 0 -5 9 -10 19
-10 11 0 26 -3 34 -6 8 -3 17 2 21 13 4 10 2 19 -3 21 -6 2 -11 10 -11 18 0 8
-7 14 -16 14 -11 0 -15 -6 -11 -20z"/>
<path d="M600 1283 l-35 -4 -1 -79 c0 -44 2 -80 5 -80 3 1 25 5 49 9 32 6 42
5 42 -5 0 -8 -6 -11 -15 -8 -8 4 -15 1 -15 -5 0 -6 -7 -8 -15 -5 -9 4 -15 0
-15 -9 0 -20 20 -33 29 -19 10 16 35 -3 28 -22 -4 -9 -14 -16 -23 -16 -11 0
-14 -5 -10 -16 3 -9 6 -18 6 -20 0 -2 9 -4 20 -4 20 0 30 25 45 113 6 36 5 38
-25 43 -34 7 -41 24 -9 24 12 0 19 5 16 13 -2 6 -12 11 -21 11 -9 -1 -16 2
-16 7 0 5 7 9 15 9 8 0 15 7 15 15 0 8 -4 15 -10 15 -5 0 -10 5 -10 10 0 6 9
10 20 10 11 0 20 5 20 10 0 10 -20 10 -90 3z m18 -35 c-6 -18 -28 -21 -28 -4
0 9 7 16 16 16 9 0 14 -5 12 -12z m-3 -48 c-3 -5 -10 -10 -16 -10 -5 0 -9 5
-9 10 0 6 7 10 16 10 8 0 12 -4 9 -10z m5 -40 c0 -5 -7 -10 -15 -10 -8 0 -15
5 -15 10 0 6 7 10 15 10 8 0 15 -4 15 -10z"/>
<path d="M560 1102 c0 -19 12 -42 22 -42 14 0 5 43 -9 48 -7 2 -13 -1 -13 -6z"/>
<path d="M526 1074 c-7 -18 0 -34 15 -34 5 0 9 11 9 25 0 28 -15 34 -24 9z"/>
<path d="M810 846 c0 -14 -4 -26 -10 -26 -5 0 -9 -10 -7 -22 2 -20 -3 -23 -35
-26 -21 -2 -38 -8 -38 -14 0 -7 20 -9 55 -6 59 5 78 14 56 27 -19 12 -4 31 25
31 13 0 24 5 24 10 0 6 -8 10 -19 10 -12 0 -18 7 -17 17 0 10 -7 19 -16 21
-14 3 -18 -3 -18 -22z"/>
<path d="M723 830 c4 -15 0 -20 -14 -20 -10 0 -19 -4 -19 -10 0 -5 9 -10 19
-10 11 0 26 -3 34 -6 8 -3 17 2 21 13 4 10 2 19 -3 21 -6 2 -11 10 -11 18 0 8
-7 14 -16 14 -11 0 -15 -6 -11 -20z"/>
<path d="M600 833 l-35 -4 -1 -79 c0 -44 2 -80 5 -80 3 1 25 5 49 9 32 6 42 5
42 -5 0 -8 -6 -11 -15 -8 -8 4 -15 1 -15 -5 0 -6 -7 -8 -15 -5 -9 4 -15 0 -15
-9 0 -20 20 -33 29 -19 10 16 35 -3 28 -22 -4 -9 -14 -16 -23 -16 -11 0 -14
-5 -10 -16 3 -9 6 -18 6 -20 0 -2 9 -4 20 -4 20 0 30 25 45 113 6 36 5 38 -25
43 -34 7 -41 24 -9 24 12 0 19 5 16 13 -2 6 -12 11 -21 11 -9 -1 -16 2 -16 7
0 5 7 9 15 9 8 0 15 7 15 15 0 8 -4 15 -10 15 -5 0 -10 5 -10 10 0 6 9 10 20
10 11 0 20 5 20 10 0 10 -20 10 -90 3z m18 -35 c-6 -18 -28 -21 -28 -4 0 9 7
16 16 16 9 0 14 -5 12 -12z m-3 -48 c-3 -5 -10 -10 -16 -10 -5 0 -9 5 -9 10 0
6 7 10 16 10 8 0 12 -4 9 -10z m5 -40 c0 -5 -7 -10 -15 -10 -8 0 -15 5 -15 10
0 6 7 10 15 10 8 0 15 -4 15 -10z"/>
<path d="M560 652 c0 -19 12 -42 22 -42 14 0 5 43 -9 48 -7 2 -13 -1 -13 -6z"/>
<path d="M526 624 c-7 -18 0 -34 15 -34 5 0 9 11 9 25 0 28 -15 34 -24 9z"/>
<path d="M810 396 c0 -14 -4 -26 -10 -26 -5 0 -9 -10 -7 -22 2 -20 -3 -23 -35
-26 -21 -2 -38 -8 -38 -14 0 -7 20 -9 55 -6 59 5 78 14 56 27 -19 12 -4 31 25
31 13 0 24 5 24 10 0 6 -8 10 -19 10 -12 0 -18 7 -17 17 0 10 -7 19 -16 21
-14 3 -18 -3 -18 -22z"/>
<path d="M723 380 c4 -15 0 -20 -14 -20 -10 0 -19 -4 -19 -10 0 -5 9 -10 19
-10 11 0 26 -3 34 -6 8 -3 17 2 21 13 4 10 2 19 -3 21 -6 2 -11 10 -11 18 0 8
-7 14 -16 14 -11 0 -15 -6 -11 -20z"/>
<path d="M600 383 l-35 -4 -1 -79 c0 -44 2 -80 5 -80 3 1 25 5 49 9 32 6 42 5
42 -5 0 -8 -6 -11 -15 -8 -8 4 -15 1 -15 -5 0 -6 -7 -8 -15 -5 -9 4 -15 0 -15
-9 0 -20 20 -33 29 -19 10 16 35 -3 28 -22 -4 -9 -14 -16 -23 -16 -11 0 -14
-5 -10 -16 3 -9 6 -18 6 -20 0 -2 9 -4 20 -4 20 0 30 25 45 113 6 36 5 38 -25
43 -34 7 -41 24 -9 24 12 0 19 5 16 13 -2 6 -12 11 -21 11 -9 -1 -16 2 -16 7
0 5 7 9 15 9 8 0 15 7 15 15 0 8 -4 15 -10 15 -5 0 -10 5 -10 10 0 6 9 10 20
10 11 0 20 5 20 10 0 10 -20 10 -90 3z m18 -35 c-6 -18 -28 -21 -28 -4 0 9 7
16 16 16 9 0 14 -5 12 -12z m-3 -48 c-3 -5 -10 -10 -16 -10 -5 0 -9 5 -9 10 0
6 7 10 16 10 8 0 12 -4 9 -10z m5 -40 c0 -5 -7 -10 -15 -10 -8 0 -15 5 -15 10
0 6 7 10 15 10 8 0 15 -4 15 -10z"/>
<path d="M714 268 c3 -13 6 -26 6 -30 0 -5 5 -8 10 -8 6 0 10 14 10 30 0 21
-5 30 -16 30 -12 0 -15 -6 -10 -22z"/>
<path d="M560 202 c0 -19 12 -42 22 -42 14 0 5 43 -9 48 -7 2 -13 -1 -13 -6z"/>
<path d="M526 174 c-7 -18 0 -34 15 -34 5 0 9 11 9 25 0 28 -15 34 -24 9z"/>
</g>
</svg>
