<?xml version="1.0" standalone="no"?>
<!DOCTYPE svg PUBLIC "-//W3C//DTD SVG 20010904//EN"
 "http://www.w3.org/TR/2001/REC-SVG-20010904/DTD/svg10.dtd">
<svg version="1.0" xmlns="http://www.w3.org/2000/svg"
 width="95.000000pt" height="725.000000pt" viewBox="0 0 95.000000 725.000000"
 preserveAspectRatio="xMidYMid meet">
<metadata>
Created by potrace 1.16, written by Peter Selinger 2001-2019
</metadata>
<g transform="translate(0.000000,725.000000) scale(0.100000,-0.100000)"
fill="#000000" stroke="none">
<path d="M300 7130 c0 -13 -7 -20 -20 -20 -11 0 -20 -4 -20 -10 0 -5 9 -10 20
-10 11 0 20 -4 20 -10 0 -5 -13 -10 -30 -10 -16 0 -30 -5 -30 -11 0 -7 24 -9
78 -4 42 4 79 9 82 12 10 9 -26 22 -47 16 -14 -3 -23 -1 -23 6 0 6 9 11 20 11
11 0 20 5 20 10 0 6 -9 10 -20 10 -11 0 -20 7 -20 15 0 8 -7 15 -15 15 -8 0
-15 -9 -15 -20z"/>
<path d="M161 7130 c-19 -5 -39 -6 -45 -4 -7 3 -12 -24 -13 -82 -1 -76 1 -85
15 -79 10 4 32 9 50 12 24 4 32 2 32 -9 0 -11 -9 -14 -35 -12 -36 2 -41 -2
-26 -24 5 -9 17 -11 36 -6 24 6 27 4 22 -10 -4 -10 -7 -22 -7 -27 0 -5 -7 -9
-15 -9 -20 0 -19 -14 1 -31 14 -11 18 -10 30 6 8 10 14 29 14 41 0 34 10 54
29 54 9 0 25 7 36 16 17 13 18 16 5 24 -13 8 -12 10 3 10 21 0 22 7 3 26 -19
18 -36 18 -36 0 0 -8 -6 -17 -12 -19 -10 -4 -9 -8 2 -16 9 -7 10 -11 3 -11 -6
0 -15 5 -18 10 -3 6 -17 10 -31 10 -29 0 -32 20 -4 27 27 7 25 21 -2 26 l-23
4 23 8 c25 8 30 25 7 25 -8 0 -15 5 -15 10 0 6 7 10 15 10 8 0 15 7 15 15 0
16 -8 17 -59 5z m-1 -41 c0 -5 -7 -9 -15 -9 -15 0 -20 12 -9 23 8 8 24 -1 24
-14z m0 -39 c0 -5 -7 -10 -15 -10 -8 0 -15 5 -15 10 0 6 7 10 15 10 8 0 15 -4
15 -10z m0 -39 c0 -5 -7 -11 -15 -15 -9 -3 -15 0 -15 9 0 8 7 15 15 15 8 0 15
-4 15 -9z"/>
<path d="M554 7055 c-1 -57 2 -75 13 -75 11 0 13 16 11 72 -4 97 -23 100 -24
3z"/>
<path d="M340 7020 c0 -5 14 -10 30 -10 17 0 30 5 30 10 0 6 -13 10 -30 10
-16 0 -30 -4 -30 -10z"/>
<path d="M100 6943 c0 -5 4 -15 10 -23 11 -18 25 -7 17 15 -6 15 -27 21 -27 8z"/>
<path d="M66 6924 c-10 -25 -7 -34 9 -34 9 0 15 9 15 25 0 28 -15 34 -24 9z"/>
<path d="M300 6680 c0 -13 -7 -20 -20 -20 -11 0 -20 -4 -20 -10 0 -5 9 -10 20
-10 11 0 20 -4 20 -10 0 -5 -13 -10 -30 -10 -16 0 -30 -5 -30 -11 0 -8 16 -10
50 -6 48 6 50 5 50 -18 0 -30 10 -55 21 -55 5 0 9 7 9 15 0 8 7 15 15 15 8 0
15 5 15 10 0 6 -6 10 -14 10 -8 0 -16 7 -20 15 -4 10 1 15 14 15 11 0 20 4 20
9 0 13 -25 20 -49 14 -12 -3 -21 -1 -21 6 0 6 9 11 20 11 11 0 20 5 20 10 0 6
-9 10 -20 10 -11 0 -20 7 -20 15 0 8 -7 15 -15 15 -8 0 -15 -9 -15 -20z"/>
<path d="M161 6680 c-19 -5 -39 -6 -45 -4 -7 3 -12 -24 -13 -82 -1 -76 1 -85
15 -79 10 4 32 9 50 12 24 4 32 2 32 -9 0 -11 -9 -14 -35 -12 -36 2 -41 -2
-26 -24 5 -9 17 -11 36 -6 24 6 27 4 22 -10 -4 -10 -7 -22 -7 -27 0 -5 -7 -9
-15 -9 -20 0 -19 -14 1 -31 14 -11 18 -10 30 6 8 10 14 29 14 41 0 34 10 54
29 54 9 0 25 7 36 16 17 13 18 16 5 24 -13 8 -12 10 3 10 21 0 22 7 3 26 -19
18 -36 18 -36 0 0 -8 -6 -17 -12 -19 -10 -4 -9 -8 2 -16 9 -7 10 -11 3 -11 -6
0 -15 5 -18 10 -3 6 -17 10 -31 10 -29 0 -32 20 -4 27 27 7 25 21 -2 26 l-23
4 23 8 c25 8 30 25 7 25 -8 0 -15 5 -15 10 0 6 7 10 15 10 8 0 15 7 15 15 0
16 -8 17 -59 5z m-1 -41 c0 -5 -7 -9 -15 -9 -15 0 -20 12 -9 23 8 8 24 -1 24
-14z m0 -39 c0 -5 -7 -10 -15 -10 -8 0 -15 5 -15 10 0 6 7 10 15 10 8 0 15 -4
15 -10z m0 -39 c0 -5 -7 -11 -15 -15 -9 -3 -15 0 -15 9 0 8 7 15 15 15 8 0 15
-4 15 -9z"/>
<path d="M611 6680 c-19 -5 -39 -6 -45 -4 -8 3 -12 -20 -12 -71 -1 -55 3 -75
12 -75 9 0 14 20 16 63 l3 62 43 3 c28 2 42 8 42 18 0 15 -8 16 -59 4z"/>
<path d="M100 6493 c0 -5 4 -15 10 -23 11 -18 25 -7 17 15 -6 15 -27 21 -27 8z"/>
<path d="M66 6474 c-10 -25 -7 -34 9 -34 9 0 15 9 15 25 0 28 -15 34 -24 9z"/>
<path d="M300 6230 c0 -13 -7 -20 -20 -20 -11 0 -20 -4 -20 -10 0 -5 9 -10 20
-10 11 0 20 -4 20 -10 0 -5 -13 -10 -30 -10 -16 0 -30 -5 -30 -11 0 -8 16 -10
50 -6 l50 6 0 -34 c0 -24 -5 -35 -15 -35 -8 0 -15 -4 -15 -10 0 -11 42 -13 78
-4 12 4 22 10 22 15 0 5 -10 10 -22 10 -17 1 -19 2 -5 6 20 5 23 23 3 23 -8 0
-16 7 -20 15 -4 10 1 15 14 15 11 0 20 4 20 9 0 13 -25 20 -49 14 -12 -3 -21
-1 -21 6 0 6 9 11 20 11 11 0 20 5 20 10 0 6 -9 10 -20 10 -11 0 -20 7 -20 15
0 8 -7 15 -15 15 -8 0 -15 -9 -15 -20z"/>
<path d="M161 6230 c-19 -5 -39 -6 -45 -4 -7 3 -12 -24 -13 -82 -1 -76 1 -85
15 -79 10 4 32 9 50 12 24 4 32 2 32 -9 0 -11 -9 -14 -35 -12 -36 2 -41 -2
-26 -24 5 -9 17 -11 36 -6 24 6 27 4 22 -10 -4 -10 -7 -22 -7 -27 0 -5 -7 -9
-15 -9 -20 0 -19 -14 1 -31 14 -11 18 -10 30 6 8 10 14 29 14 41 0 34 10 54
29 54 9 0 25 7 36 16 17 13 18 16 5 24 -13 8 -12 10 3 10 21 0 22 7 3 26 -19
18 -36 18 -36 0 0 -8 -6 -17 -12 -19 -10 -4 -9 -8 2 -16 9 -7 10 -11 3 -11 -6
0 -15 5 -18 10 -3 6 -17 10 -31 10 -29 0 -32 20 -4 27 27 7 25 21 -2 26 l-23
4 23 8 c25 8 30 25 7 25 -8 0 -15 5 -15 10 0 6 7 10 15 10 8 0 15 7 15 15 0
16 -8 17 -59 5z m-1 -41 c0 -5 -7 -9 -15 -9 -15 0 -20 12 -9 23 8 8 24 -1 24
-14z m0 -39 c0 -5 -7 -10 -15 -10 -8 0 -15 5 -15 10 0 6 7 10 15 10 8 0 15 -4
15 -10z m0 -39 c0 -5 -7 -11 -15 -15 -9 -3 -15 0 -15 9 0 8 7 15 15 15 8 0 15
-4 15 -9z"/>
<path d="M611 6230 c-19 -5 -39 -6 -45 -4 -8 3 -12 -20 -12 -71 -1 -56 3 -75
13 -75 9 0 13 13 13 40 0 35 3 40 23 40 34 0 67 11 67 22 0 6 -18 8 -46 3 -36
-5 -45 -4 -42 7 3 7 23 14 46 16 29 2 42 8 42 18 0 15 -8 16 -59 4z"/>
<path d="M100 6043 c0 -5 4 -15 10 -23 11 -18 25 -7 17 15 -6 15 -27 21 -27 8z"/>
<path d="M66 6024 c-10 -25 -7 -34 9 -34 9 0 15 9 15 25 0 28 -15 34 -24 9z"/>
<path d="M300 5780 c0 -13 -7 -20 -20 -20 -11 0 -20 -4 -20 -10 0 -5 9 -10 20
-10 11 0 20 -4 20 -10 0 -5 -13 -10 -30 -10 -16 0 -30 -5 -30 -11 0 -8 16 -10
50 -6 l50 6 0 -34 c0 -24 -5 -35 -15 -35 -8 0 -15 -4 -15 -10 0 -11 42 -13 78
-4 12 4 22 10 22 15 0 5 -10 10 -22 10 -17 1 -19 2 -5 6 20 5 23 23 3 23 -8 0
-16 7 -20 15 -4 10 1 15 14 15 11 0 20 4 20 9 0 13 -25 20 -49 14 -12 -3 -21
-1 -21 6 0 6 9 11 20 11 11 0 20 5 20 10 0 6 -9 10 -20 10 -11 0 -20 7 -20 15
0 8 -7 15 -15 15 -8 0 -15 -9 -15 -20z"/>
<path d="M161 5780 c-19 -5 -39 -6 -45 -4 -7 3 -12 -24 -13 -82 -1 -76 1 -85
15 -79 10 4 32 9 50 12 24 4 32 2 32 -9 0 -11 -9 -14 -35 -12 -36 2 -41 -2
-26 -24 5 -9 17 -11 36 -6 24 6 27 4 22 -10 -4 -10 -7 -22 -7 -27 0 -5 -7 -9
-15 -9 -20 0 -19 -14 1 -31 14 -11 18 -10 30 6 8 10 14 29 14 41 0 33 10 54
26 54 8 0 11 -6 7 -16 -5 -14 -2 -16 18 -11 13 3 45 9 72 12 72 11 59 29 -15
21 -58 -6 -62 -5 -43 9 17 14 18 17 5 25 -13 8 -12 10 3 10 21 0 22 7 3 26
-19 18 -36 18 -36 0 0 -8 -6 -17 -12 -19 -10 -4 -9 -8 2 -16 9 -7 10 -11 3
-11 -6 0 -15 5 -18 10 -3 6 -17 10 -31 10 -29 0 -32 20 -4 27 27 7 25 21 -2
26 l-23 4 23 8 c25 8 30 25 7 25 -8 0 -15 5 -15 10 0 6 7 10 15 10 8 0 15 7
15 15 0 16 -8 17 -59 5z m-1 -41 c0 -5 -7 -9 -15 -9 -15 0 -20 12 -9 23 8 8
24 -1 24 -14z m0 -39 c0 -5 -7 -10 -15 -10 -8 0 -15 5 -15 10 0 6 7 10 15 10
8 0 15 -4 15 -10z m0 -39 c0 -5 -7 -11 -15 -15 -9 -3 -15 0 -15 9 0 8 7 15 15
15 8 0 15 -4 15 -9z"/>
<path d="M611 5780 c-19 -5 -39 -6 -45 -4 -8 3 -12 -20 -12 -71 -1 -56 3 -75
13 -75 7 0 13 9 13 20 0 14 7 20 23 20 34 0 67 11 67 22 0 6 -17 8 -45 4 -29
-5 -45 -4 -45 3 0 6 10 11 23 11 34 0 67 11 67 22 0 6 -18 8 -46 3 -36 -5 -45
-4 -42 7 3 7 23 14 46 16 29 2 42 8 42 18 0 15 -8 16 -59 4z"/>
<path d="M100 5593 c0 -5 4 -15 10 -23 11 -18 25 -7 17 15 -6 15 -27 21 -27 8z"/>
<path d="M66 5574 c-10 -25 -7 -34 9 -34 9 0 15 9 15 25 0 28 -15 34 -24 9z"/>
<path d="M300 5330 c0 -13 -7 -20 -20 -20 -11 0 -20 -4 -20 -10 0 -5 9 -10 20
-10 11 0 20 -4 20 -10 0 -5 -13 -10 -30 -10 -16 0 -30 -5 -30 -11 0 -8 16 -10
50 -6 l50 6 0 -34 c0 -24 -5 -35 -15 -35 -8 0 -15 -4 -15 -10 0 -11 42 -13 78
-4 12 4 22 10 22 15 0 5 -10 10 -22 10 -17 1 -19 2 -5 6 20 5 23 23 3 23 -8 0
-16 7 -20 15 -4 10 1 15 14 15 11 0 20 4 20 9 0 13 -25 20 -49 14 -12 -3 -21
-1 -21 6 0 6 9 11 20 11 11 0 20 5 20 10 0 6 -9 10 -20 10 -11 0 -20 7 -20 15
0 8 -7 15 -15 15 -8 0 -15 -9 -15 -20z"/>
<path d="M161 5330 c-19 -5 -39 -6 -45 -4 -7 3 -12 -24 -13 -82 -1 -76 1 -85
15 -79 10 4 32 9 50 12 24 4 32 2 32 -9 0 -11 -9 -14 -35 -12 -36 2 -41 -2
-26 -24 5 -9 17 -11 36 -6 24 6 27 4 22 -10 -4 -10 -7 -22 -7 -27 0 -5 -7 -9
-15 -9 -20 0 -19 -14 1 -31 14 -11 18 -10 30 6 8 10 14 29 14 41 0 33 10 54
27 54 8 0 11 -5 7 -11 -3 -6 -1 -15 5 -19 9 -5 4 -16 -15 -39 -14 -17 -24 -34
-21 -38 11 -10 67 38 73 62 5 19 15 25 50 31 70 10 54 28 -18 20 -58 -6 -62
-5 -43 9 17 14 18 17 5 25 -13 8 -12 10 3 10 21 0 22 7 3 26 -19 18 -36 18
-36 0 0 -8 -6 -17 -12 -19 -10 -4 -9 -8 2 -16 9 -7 10 -11 3 -11 -6 0 -15 5
-18 10 -3 6 -17 10 -31 10 -29 0 -32 20 -4 27 27 7 25 21 -2 26 l-23 4 23 8
c25 8 30 25 7 25 -8 0 -15 5 -15 10 0 6 7 10 15 10 8 0 15 7 15 15 0 16 -8 17
-59 5z m-1 -41 c0 -5 -7 -9 -15 -9 -15 0 -20 12 -9 23 8 8 24 -1 24 -14z m0
-39 c0 -5 -7 -10 -15 -10 -8 0 -15 5 -15 10 0 6 7 10 15 10 8 0 15 -4 15 -10z
m0 -39 c0 -5 -7 -11 -15 -15 -9 -3 -15 0 -15 9 0 8 7 15 15 15 8 0 15 -4 15
-9z"/>
<path d="M611 5330 c-19 -5 -39 -6 -45 -4 -8 3 -12 -20 -12 -71 -1 -56 3 -75
13 -75 7 0 13 9 13 20 0 11 7 20 15 20 8 0 15 -7 15 -15 0 -8 5 -15 10 -15 6
0 10 7 10 16 0 9 9 18 20 21 27 7 25 21 -2 26 l-23 4 23 8 c25 8 30 25 7 25
-8 0 -15 5 -15 10 0 6 7 10 15 10 8 0 15 7 15 15 0 16 -8 17 -59 5z m-1 -41
c0 -5 -7 -9 -15 -9 -15 0 -20 12 -9 23 8 8 24 -1 24 -14z m0 -39 c0 -5 -7 -10
-15 -10 -8 0 -15 5 -15 10 0 6 7 10 15 10 8 0 15 -4 15 -10z"/>
<path d="M100 5143 c0 -5 4 -15 10 -23 11 -18 25 -7 17 15 -6 15 -27 21 -27 8z"/>
<path d="M66 5124 c-10 -25 -7 -34 9 -34 9 0 15 9 15 25 0 28 -15 34 -24 9z"/>
<path d="M300 4880 c0 -13 -7 -20 -20 -20 -11 0 -20 -4 -20 -10 0 -5 9 -10 20
-10 11 0 20 -4 20 -10 0 -5 -13 -10 -30 -10 -16 0 -30 -5 -30 -11 0 -8 16 -10
50 -6 l50 6 0 -34 c0 -24 -5 -35 -15 -35 -8 0 -15 -4 -15 -10 0 -11 42 -13 78
-4 12 4 22 10 22 15 0 5 -10 10 -22 10 -17 1 -19 2 -5 6 20 5 23 23 3 23 -8 0
-16 7 -20 15 -4 10 1 15 14 15 11 0 20 4 20 9 0 13 -25 20 -49 14 -12 -3 -21
-1 -21 6 0 6 9 11 20 11 11 0 20 5 20 10 0 6 -9 10 -20 10 -11 0 -20 7 -20 15
0 8 -7 15 -15 15 -8 0 -15 -9 -15 -20z"/>
<path d="M161 4880 c-19 -5 -39 -6 -45 -4 -7 3 -12 -24 -13 -82 -1 -76 1 -85
15 -79 10 4 32 9 50 12 24 4 32 2 32 -9 0 -11 -9 -14 -35 -12 -36 2 -41 -2
-26 -24 5 -9 17 -11 36 -6 24 6 27 4 22 -10 -4 -10 -7 -22 -7 -27 0 -5 -7 -9
-15 -9 -20 0 -19 -14 1 -31 14 -11 18 -10 30 6 8 10 14 29 14 41 0 33 10 54
27 54 8 0 11 -5 7 -11 -3 -6 -1 -15 5 -19 9 -5 4 -16 -15 -39 -14 -17 -24 -34
-21 -38 11 -10 67 38 73 63 10 38 24 28 24 -16 0 -34 4 -42 26 -50 27 -11 90
-4 99 10 8 13 -6 40 -21 40 -8 0 -14 -4 -14 -9 0 -17 -41 -24 -55 -10 -19 20
-8 69 16 69 11 0 19 5 19 11 0 8 -19 10 -62 5 -58 -6 -62 -5 -43 9 17 14 18
17 5 25 -13 8 -12 10 3 10 21 0 22 7 3 26 -19 18 -36 18 -36 0 0 -8 -6 -17
-12 -19 -10 -4 -9 -8 2 -16 9 -7 10 -11 3 -11 -6 0 -15 5 -18 10 -3 6 -17 10
-31 10 -29 0 -32 20 -4 27 27 7 25 21 -2 26 l-23 4 23 8 c25 8 30 25 7 25 -8
0 -15 5 -15 10 0 6 7 10 15 10 8 0 15 7 15 15 0 16 -8 17 -59 5z m-1 -41 c0
-5 -7 -9 -15 -9 -15 0 -20 12 -9 23 8 8 24 -1 24 -14z m0 -39 c0 -5 -7 -10
-15 -10 -8 0 -15 5 -15 10 0 6 7 10 15 10 8 0 15 -4 15 -10z m0 -39 c0 -5 -7
-11 -15 -15 -9 -3 -15 0 -15 9 0 8 7 15 15 15 8 0 15 -4 15 -9z"/>
<path d="M611 4880 c-19 -5 -39 -6 -45 -4 -7 3 -12 -24 -13 -82 -1 -76 1 -85
15 -79 10 4 32 9 50 12 30 5 32 4 32 -23 0 -44 -11 -74 -26 -74 -18 0 -18 -14
1 -30 11 -9 19 -10 26 -3 12 12 39 134 32 146 -2 4 -15 7 -29 7 -29 0 -32 20
-4 27 27 7 25 21 -2 26 l-23 4 23 8 c25 8 30 25 7 25 -8 0 -15 5 -15 10 0 6 7
10 15 10 8 0 15 7 15 15 0 16 -8 17 -59 5z m-1 -41 c0 -5 -7 -9 -15 -9 -15 0
-20 12 -9 23 8 8 24 -1 24 -14z m0 -39 c0 -5 -7 -10 -15 -10 -8 0 -15 5 -15
10 0 6 7 10 15 10 8 0 15 -4 15 -10z m0 -39 c0 -5 -7 -11 -15 -15 -9 -3 -15 0
-15 9 0 8 7 15 15 15 8 0 15 -4 15 -9z"/>
<path d="M100 4693 c0 -5 4 -15 10 -23 11 -18 25 -7 17 15 -6 15 -27 21 -27 8z"/>
<path d="M66 4674 c-10 -25 -7 -34 9 -34 9 0 15 9 15 25 0 28 -15 34 -24 9z"/>
<path d="M611 4430 c-19 -5 -39 -6 -45 -4 -7 3 -12 -24 -13 -82 -1 -76 1 -85
15 -79 10 4 32 9 50 12 30 5 32 4 32 -23 0 -44 -11 -74 -26 -74 -18 0 -18 -14
1 -30 11 -9 19 -10 26 -3 12 12 39 134 32 146 -2 4 -15 7 -29 7 -29 0 -32 20
-4 27 27 7 25 21 -2 26 l-23 4 23 8 c25 8 30 25 7 25 -8 0 -15 5 -15 10 0 6 7
10 15 10 8 0 15 7 15 15 0 16 -8 17 -59 5z m-1 -41 c0 -5 -7 -9 -15 -9 -15 0
-20 12 -9 23 8 8 24 -1 24 -14z m0 -39 c0 -5 -7 -10 -15 -10 -8 0 -15 5 -15
10 0 6 7 10 15 10 8 0 15 -4 15 -10z m0 -39 c0 -5 -7 -11 -15 -15 -9 -3 -15 0
-15 9 0 8 7 15 15 15 8 0 15 -4 15 -9z"/>
<path d="M516 4224 c-10 -25 -7 -34 9 -34 9 0 15 9 15 25 0 28 -15 34 -24 9z"/>
<path d="M611 3980 c-19 -5 -39 -6 -45 -4 -7 3 -12 -24 -13 -82 -1 -76 1 -85
15 -79 10 4 32 9 50 12 30 5 32 4 32 -23 0 -44 -11 -74 -26 -74 -18 0 -18 -14
1 -30 11 -9 19 -10 26 -3 12 12 39 134 32 146 -2 4 -15 7 -29 7 -29 0 -32 20
-4 27 27 7 25 21 -2 26 l-23 4 23 8 c25 8 30 25 7 25 -8 0 -15 5 -15 10 0 6 7
10 15 10 8 0 15 7 15 15 0 16 -8 17 -59 5z m-1 -41 c0 -5 -7 -9 -15 -9 -15 0
-20 12 -9 23 8 8 24 -1 24 -14z m0 -39 c0 -5 -7 -10 -15 -10 -8 0 -15 5 -15
10 0 6 7 10 15 10 8 0 15 -4 15 -10z m0 -39 c0 -5 -7 -11 -15 -15 -9 -3 -15 0
-15 9 0 8 7 15 15 15 8 0 15 -4 15 -9z"/>
<path d="M550 3793 c0 -5 4 -15 10 -23 11 -18 25 -7 17 15 -6 15 -27 21 -27 8z"/>
<path d="M516 3774 c-10 -25 -7 -34 9 -34 9 0 15 9 15 25 0 28 -15 34 -24 9z"/>
<path d="M611 3530 c-19 -5 -39 -6 -45 -4 -7 3 -12 -24 -13 -82 -1 -76 1 -85
15 -79 10 4 32 9 50 12 30 5 32 4 32 -23 0 -44 -11 -74 -26 -74 -18 0 -18 -14
1 -30 11 -9 19 -10 26 -3 12 12 39 134 32 146 -2 4 -15 7 -29 7 -29 0 -32 20
-4 27 27 7 25 21 -2 26 l-23 4 23 8 c25 8 30 25 7 25 -8 0 -15 5 -15 10 0 6 7
10 15 10 8 0 15 7 15 15 0 16 -8 17 -59 5z m-1 -41 c0 -5 -7 -9 -15 -9 -15 0
-20 12 -9 23 8 8 24 -1 24 -14z m0 -39 c0 -5 -7 -10 -15 -10 -8 0 -15 5 -15
10 0 6 7 10 15 10 8 0 15 -4 15 -10z m0 -39 c0 -5 -7 -11 -15 -15 -9 -3 -15 0
-15 9 0 8 7 15 15 15 8 0 15 -4 15 -9z"/>
<path d="M584 3344 c3 -9 6 -18 6 -20 0 -2 7 -4 15 -4 20 0 19 26 -1 34 -24 9
-27 8 -20 -10z"/>
<path d="M550 3343 c0 -5 4 -15 10 -23 11 -18 25 -7 17 15 -6 15 -27 21 -27 8z"/>
<path d="M516 3324 c-10 -25 -7 -34 9 -34 9 0 15 9 15 25 0 28 -15 34 -24 9z"/>
<path d="M611 3080 c-19 -5 -39 -6 -45 -4 -7 3 -12 -24 -13 -82 -1 -76 1 -85
15 -79 10 4 32 9 50 12 24 4 32 2 32 -9 0 -11 -9 -14 -35 -12 -36 2 -41 -2
-26 -24 5 -9 17 -11 36 -6 24 6 27 4 22 -10 -4 -10 -7 -22 -7 -27 0 -5 -7 -9
-15 -9 -19 0 -19 -14 0 -30 11 -9 19 -10 26 -3 12 12 39 134 32 146 -2 4 -15
7 -29 7 -29 0 -32 20 -4 27 27 7 25 21 -2 26 l-23 4 23 8 c25 8 30 25 7 25 -8
0 -15 5 -15 10 0 6 7 10 15 10 8 0 15 7 15 15 0 16 -8 17 -59 5z m-1 -41 c0
-5 -7 -9 -15 -9 -15 0 -20 12 -9 23 8 8 24 -1 24 -14z m0 -39 c0 -5 -7 -10
-15 -10 -8 0 -15 5 -15 10 0 6 7 10 15 10 8 0 15 -4 15 -10z m0 -39 c0 -5 -7
-11 -15 -15 -9 -3 -15 0 -15 9 0 8 7 15 15 15 8 0 15 -4 15 -9z"/>
<path d="M550 2893 c0 -5 4 -15 10 -23 11 -18 25 -7 17 15 -6 15 -27 21 -27 8z"/>
<path d="M516 2874 c-10 -25 -7 -34 9 -34 9 0 15 9 15 25 0 28 -15 34 -24 9z"/>
<path d="M611 2630 c-19 -5 -39 -6 -45 -4 -7 3 -12 -24 -13 -82 -1 -76 1 -85
15 -79 10 4 32 9 50 12 24 4 32 2 32 -9 0 -11 -9 -14 -35 -12 -36 2 -41 -2
-26 -24 5 -9 17 -11 36 -6 24 6 27 4 22 -10 -4 -10 -7 -22 -7 -27 0 -5 -7 -9
-15 -9 -19 0 -19 -14 0 -30 11 -9 19 -10 26 -3 12 12 39 134 32 146 -2 4 -15
7 -29 7 -29 0 -32 20 -4 27 27 7 25 21 -2 26 l-23 4 23 8 c25 8 30 25 7 25 -8
0 -15 5 -15 10 0 6 7 10 15 10 8 0 15 7 15 15 0 16 -8 17 -59 5z m-1 -41 c0
-5 -7 -9 -15 -9 -15 0 -20 12 -9 23 8 8 24 -1 24 -14z m0 -39 c0 -5 -7 -10
-15 -10 -8 0 -15 5 -15 10 0 6 7 10 15 10 8 0 15 -4 15 -10z m0 -39 c0 -5 -7
-11 -15 -15 -9 -3 -15 0 -15 9 0 8 7 15 15 15 8 0 15 -4 15 -9z"/>
<path d="M743 2613 c-38 -5 -45 -23 -9 -23 38 0 86 12 86 21 0 9 -17 9 -77 2z"/>
<path d="M550 2443 c0 -5 4 -15 10 -23 11 -18 25 -7 17 15 -6 15 -27 21 -27 8z"/>
<path d="M516 2424 c-10 -25 -7 -34 9 -34 9 0 15 9 15 25 0 28 -15 34 -24 9z"/>
<path d="M750 2180 c0 -13 -7 -20 -20 -20 -11 0 -20 -4 -20 -10 0 -5 9 -10 20
-10 11 0 20 -4 20 -10 0 -5 7 -10 15 -10 8 0 15 7 15 15 0 8 9 15 20 15 11 0
20 5 20 10 0 6 -9 10 -20 10 -11 0 -20 7 -20 15 0 8 -7 15 -15 15 -8 0 -15 -9
-15 -20z"/>
<path d="M611 2180 c-19 -5 -39 -6 -45 -4 -7 3 -12 -24 -13 -82 -1 -76 1 -85
15 -79 10 4 32 9 50 12 24 4 32 2 32 -9 0 -11 -9 -14 -35 -12 -36 2 -41 -2
-26 -24 5 -9 17 -11 36 -6 24 6 27 4 22 -10 -4 -10 -7 -22 -7 -27 0 -5 -7 -9
-15 -9 -19 0 -19 -14 0 -30 11 -9 19 -10 26 -3 12 12 39 134 32 146 -2 4 -15
7 -29 7 -29 0 -32 20 -4 27 27 7 25 21 -2 26 l-23 4 23 8 c25 8 30 25 7 25 -8
0 -15 5 -15 10 0 6 7 10 15 10 8 0 15 7 15 15 0 16 -8 17 -59 5z m-1 -41 c0
-5 -7 -9 -15 -9 -15 0 -20 12 -9 23 8 8 24 -1 24 -14z m0 -39 c0 -5 -7 -10
-15 -10 -8 0 -15 5 -15 10 0 6 7 10 15 10 8 0 15 -4 15 -10z m0 -39 c0 -5 -7
-11 -15 -15 -9 -3 -15 0 -15 9 0 8 7 15 15 15 8 0 15 -4 15 -9z"/>
<path d="M550 1993 c0 -5 4 -15 10 -23 11 -18 25 -7 17 15 -6 15 -27 21 -27 8z"/>
<path d="M516 1974 c-10 -25 -7 -34 9 -34 9 0 15 9 15 25 0 28 -15 34 -24 9z"/>
<path d="M750 1730 c0 -13 -7 -20 -20 -20 -11 0 -20 -4 -20 -10 0 -5 9 -10 20
-10 11 0 20 -4 20 -10 0 -5 -13 -10 -30 -10 -16 0 -30 -5 -30 -11 0 -7 24 -9
78 -4 42 4 79 9 82 12 10 9 -26 22 -47 16 -14 -3 -23 -1 -23 6 0 6 9 11 20 11
11 0 20 5 20 10 0 6 -9 10 -20 10 -11 0 -20 7 -20 15 0 8 -7 15 -15 15 -8 0
-15 -9 -15 -20z"/>
<path d="M611 1730 c-19 -5 -39 -6 -45 -4 -7 3 -12 -24 -13 -82 -1 -76 1 -85
15 -79 10 4 32 9 50 12 24 4 32 2 32 -9 0 -11 -9 -14 -35 -12 -36 2 -41 -2
-26 -24 5 -9 17 -11 36 -6 24 6 27 4 22 -10 -4 -10 -7 -22 -7 -27 0 -5 -7 -9
-15 -9 -19 0 -19 -14 0 -30 11 -9 19 -10 26 -3 12 12 39 134 32 146 -2 4 -15
7 -29 7 -29 0 -32 20 -4 27 27 7 25 21 -2 26 l-23 4 23 8 c25 8 30 25 7 25 -8
0 -15 5 -15 10 0 6 7 10 15 10 8 0 15 7 15 15 0 16 -8 17 -59 5z m-1 -41 c0
-5 -7 -9 -15 -9 -15 0 -20 12 -9 23 8 8 24 -1 24 -14z m0 -39 c0 -5 -7 -10
-15 -10 -8 0 -15 5 -15 10 0 6 7 10 15 10 8 0 15 -4 15 -10z m0 -39 c0 -5 -7
-11 -15 -15 -9 -3 -15 0 -15 9 0 8 7 15 15 15 8 0 15 -4 15 -9z"/>
<path d="M550 1543 c0 -5 4 -15 10 -23 11 -18 25 -7 17 15 -6 15 -27 21 -27 8z"/>
<path d="M516 1524 c-10 -25 -7 -34 9 -34 9 0 15 9 15 25 0 28 -15 34 -24 9z"/>
<path d="M750 1280 c0 -13 -7 -20 -20 -20 -11 0 -20 -4 -20 -10 0 -5 9 -10 20
-10 11 0 20 -4 20 -10 0 -5 -13 -10 -30 -10 -16 0 -30 -5 -30 -11 0 -7 24 -9
78 -4 42 4 79 9 82 12 10 9 -26 22 -47 16 -14 -3 -23 -1 -23 6 0 6 9 11 20 11
11 0 20 5 20 10 0 6 -9 10 -20 10 -11 0 -20 7 -20 15 0 8 -7 15 -15 15 -8 0
-15 -9 -15 -20z"/>
<path d="M611 1280 c-19 -5 -39 -6 -45 -4 -7 3 -12 -24 -13 -82 -1 -76 1 -85
15 -79 10 4 32 9 50 12 24 4 32 2 32 -9 0 -11 -9 -14 -35 -12 -36 2 -41 -2
-26 -24 5 -9 17 -11 36 -6 24 6 27 4 22 -10 -4 -10 -7 -22 -7 -27 0 -5 -7 -9
-15 -9 -19 0 -19 -14 0 -30 11 -9 19 -10 26 -3 12 12 39 134 32 146 -2 4 -15
7 -29 7 -29 0 -32 20 -4 27 27 7 25 21 -2 26 l-23 4 23 8 c25 8 30 25 7 25 -8
0 -15 5 -15 10 0 6 7 10 15 10 8 0 15 7 15 15 0 16 -8 17 -59 5z m-1 -41 c0
-5 -7 -9 -15 -9 -15 0 -20 12 -9 23 8 8 24 -1 24 -14z m0 -39 c0 -5 -7 -10
-15 -10 -8 0 -15 5 -15 10 0 6 7 10 15 10 8 0 15 -4 15 -10z m0 -39 c0 -5 -7
-11 -15 -15 -9 -3 -15 0 -15 9 0 8 7 15 15 15 8 0 15 -4 15 -9z"/>
<path d="M720 1160 c0 -5 9 -10 20 -10 11 0 20 5 20 10 0 6 -9 10 -20 10 -11
0 -20 -4 -20 -10z"/>
<path d="M690 1150 c0 -5 5 -10 10 -10 6 0 10 5 10 10 0 6 -4 10 -10 10 -5 0
-10 -4 -10 -10z"/>
<path d="M550 1093 c0 -5 4 -15 10 -23 11 -18 25 -7 17 15 -6 15 -27 21 -27 8z"/>
<path d="M516 1074 c-10 -25 -7 -34 9 -34 9 0 15 9 15 25 0 28 -15 34 -24 9z"/>
<path d="M750 830 c0 -13 -7 -20 -20 -20 -11 0 -20 -4 -20 -10 0 -5 9 -10 20
-10 11 0 20 -4 20 -10 0 -5 -13 -10 -30 -10 -16 0 -30 -5 -30 -11 0 -7 24 -9
78 -4 42 4 79 9 82 12 10 9 -26 22 -47 16 -14 -3 -23 -1 -23 6 0 6 9 11 20 11
11 0 20 5 20 10 0 6 -9 10 -20 10 -11 0 -20 7 -20 15 0 8 -7 15 -15 15 -8 0
-15 -9 -15 -20z"/>
<path d="M611 830 c-19 -5 -39 -6 -45 -4 -7 3 -12 -24 -13 -82 -1 -76 1 -85
15 -79 10 4 32 9 50 12 24 4 32 2 32 -9 0 -11 -9 -14 -35 -12 -36 2 -41 -2
-26 -24 5 -9 17 -11 36 -6 24 6 27 4 22 -10 -4 -10 -7 -22 -7 -27 0 -5 -7 -9
-15 -9 -19 0 -19 -14 0 -30 11 -9 19 -10 26 -3 12 12 39 134 32 146 -2 4 -15
7 -29 7 -29 0 -32 20 -4 27 27 7 25 21 -2 26 l-23 4 23 8 c25 8 30 25 7 25 -8
0 -15 5 -15 10 0 6 7 10 15 10 8 0 15 7 15 15 0 16 -8 17 -59 5z m-1 -41 c0
-5 -7 -9 -15 -9 -15 0 -20 12 -9 23 8 8 24 -1 24 -14z m0 -39 c0 -5 -7 -10
-15 -10 -8 0 -15 5 -15 10 0 6 7 10 15 10 8 0 15 -4 15 -10z m0 -39 c0 -5 -7
-11 -15 -15 -9 -3 -15 0 -15 9 0 8 7 15 15 15 8 0 15 -4 15 -9z"/>
<path d="M710 726 c0 -8 -6 -16 -12 -18 -9 -3 -8 -9 4 -21 21 -21 28 -21 28
-2 0 8 7 15 15 15 19 0 19 7 1 26 -19 18 -36 18 -36 0z"/>
<path d="M550 643 c0 -5 4 -15 10 -23 11 -18 25 -7 17 15 -6 15 -27 21 -27 8z"/>
<path d="M516 624 c-10 -25 -7 -34 9 -34 9 0 15 9 15 25 0 28 -15 34 -24 9z"/>
<path d="M750 380 c0 -13 -7 -20 -20 -20 -11 0 -20 -4 -20 -10 0 -5 9 -10 20
-10 11 0 20 -4 20 -10 0 -5 -13 -10 -30 -10 -16 0 -30 -5 -30 -11 0 -7 24 -9
78 -4 42 4 79 9 82 12 10 9 -26 22 -47 16 -14 -3 -23 -1 -23 6 0 6 9 11 20 11
11 0 20 5 20 10 0 6 -9 10 -20 10 -11 0 -20 7 -20 15 0 8 -7 15 -15 15 -8 0
-15 -9 -15 -20z"/>
<path d="M611 380 c-19 -5 -39 -6 -45 -4 -7 3 -12 -24 -13 -82 -1 -76 1 -85
15 -79 10 4 32 9 50 12 24 4 32 2 32 -9 0 -11 -9 -14 -35 -12 -36 2 -41 -2
-26 -24 5 -9 17 -11 36 -6 24 6 27 4 22 -10 -4 -10 -7 -22 -7 -27 0 -5 -7 -9
-15 -9 -20 0 -19 -14 1 -31 14 -11 18 -10 30 6 8 10 14 29 14 41 0 34 10 54
29 54 9 0 25 7 36 16 17 13 18 16 5 24 -13 8 -12 10 3 10 21 0 22 7 3 26 -19
18 -36 18 -36 0 0 -8 -6 -17 -12 -19 -10 -4 -9 -8 2 -16 9 -7 10 -11 3 -11 -6
0 -15 5 -18 10 -3 6 -17 10 -31 10 -29 0 -32 20 -4 27 27 7 25 21 -2 26 l-23
4 23 8 c25 8 30 25 7 25 -8 0 -15 5 -15 10 0 6 7 10 15 10 8 0 15 7 15 15 0
16 -8 17 -59 5z m-1 -41 c0 -5 -7 -9 -15 -9 -15 0 -20 12 -9 23 8 8 24 -1 24
-14z m0 -39 c0 -5 -7 -10 -15 -10 -8 0 -15 5 -15 10 0 6 7 10 15 10 8 0 15 -4
15 -10z m0 -39 c0 -5 -7 -11 -15 -15 -9 -3 -15 0 -15 9 0 8 7 15 15 15 8 0 15
-4 15 -9z"/>
<path d="M550 193 c0 -5 4 -15 10 -23 11 -18 25 -7 17 15 -6 15 -27 21 -27 8z"/>
<path d="M516 174 c-10 -25 -7 -34 9 -34 9 0 15 9 15 25 0 28 -15 34 -24 9z"/>
</g>
</svg>
