<?xml version="1.0" standalone="no"?>
<!DOCTYPE svg PUBLIC "-//W3C//DTD SVG 20010904//EN"
 "http://www.w3.org/TR/2001/REC-SVG-20010904/DTD/svg10.dtd">
<svg version="1.0" xmlns="http://www.w3.org/2000/svg"
 width="95.000000pt" height="725.000000pt" viewBox="0 0 95.000000 725.000000"
 preserveAspectRatio="xMidYMid meet">
<metadata>
Created by potrace 1.16, written by Peter Selinger 2001-2019
</metadata>
<g transform="translate(0.000000,725.000000) scale(0.100000,-0.100000)"
fill="#000000" stroke="none">
<path d="M280 7135 c0 -21 -27 -75 -53 -102 -11 -13 -18 -26 -15 -29 11 -11
46 16 69 52 l23 37 39 -46 c38 -46 69 -59 83 -35 4 6 2 14 -5 16 -30 10 -96
70 -101 92 -7 28 -40 41 -40 15z"/>
<path d="M165 7119 c-16 -5 -37 -7 -45 -4 -12 4 -15 -9 -16 -75 l-2 -79 44 6
c29 4 44 2 44 -5 0 -6 -7 -9 -15 -6 -8 4 -15 2 -15 -3 0 -6 -18 -8 -40 -6 -36
4 -40 1 -46 -22 -8 -32 3 -46 19 -24 7 9 18 14 25 12 6 -3 12 -1 12 4 0 4 14
9 30 10 35 3 38 -9 9 -38 -22 -22 -19 -49 6 -49 19 0 30 28 39 98 6 49 5 54
-14 59 -23 6 -27 23 -5 23 8 0 15 5 15 10 0 6 -7 10 -15 10 -8 0 -15 5 -15 10
0 6 7 10 15 10 8 0 15 5 15 10 0 6 -7 10 -15 10 -8 0 -15 5 -15 10 0 6 7 10
15 10 8 0 15 7 15 15 0 17 -3 17 -45 4z m-15 -39 c0 -5 -4 -10 -10 -10 -5 0
-10 5 -10 10 0 6 5 10 10 10 6 0 10 -4 10 -10z m0 -40 c0 -5 -4 -10 -10 -10
-5 0 -10 5 -10 10 0 6 5 10 10 10 6 0 10 -4 10 -10z m0 -40 c0 -5 -4 -10 -10
-10 -5 0 -10 5 -10 10 0 6 5 10 10 10 6 0 10 -4 10 -10z"/>
<path d="M554 7040 c-2 -81 10 -107 21 -47 9 44 2 120 -10 124 -6 2 -11 -29
-11 -77z"/>
<path d="M288 7033 c-24 -6 -23 -23 1 -23 26 0 51 10 51 21 0 9 -22 10 -52 2z"/>
<path d="M295 6995 c-5 -2 -22 -6 -37 -9 -21 -5 -28 -12 -28 -31 0 -13 4 -26
8 -29 18 -11 49 7 59 32 10 25 11 26 12 5 1 -13 6 -23 12 -23 13 0 8 53 -6 56
-5 1 -14 1 -20 -1z m-25 -35 c0 -5 -4 -10 -10 -10 -5 0 -10 5 -10 10 0 6 5 10
10 10 6 0 10 -4 10 -10z"/>
<path d="M280 6685 c0 -21 -27 -75 -53 -102 -11 -13 -18 -26 -15 -29 11 -11
46 15 68 51 12 19 23 35 25 35 1 0 20 -21 41 -47 21 -26 34 -44 28 -41 -9 6
-37 2 -121 -17 -16 -4 -23 -13 -23 -30 0 -13 4 -26 8 -29 18 -11 49 7 59 32
10 25 11 26 12 5 1 -28 21 -31 21 -3 0 11 5 20 10 20 6 0 10 -9 10 -20 0 -29
16 -24 30 9 6 16 20 31 31 34 28 7 23 20 -15 41 -43 23 -73 54 -78 81 -4 24
-38 34 -38 10z m-10 -175 c0 -5 -4 -10 -10 -10 -5 0 -10 5 -10 10 0 6 5 10 10
10 6 0 10 -4 10 -10z"/>
<path d="M165 6669 c-16 -5 -37 -7 -45 -4 -12 4 -15 -9 -16 -75 l-2 -79 44 6
c29 4 44 2 44 -5 0 -6 -7 -9 -15 -6 -8 4 -15 2 -15 -3 0 -6 -18 -8 -40 -6 -36
4 -40 1 -46 -22 -8 -32 3 -46 19 -24 7 9 18 14 25 12 6 -3 12 -1 12 4 0 4 14
9 30 10 35 3 38 -9 9 -38 -22 -22 -19 -49 6 -49 19 0 30 28 39 98 6 49 5 54
-14 59 -23 6 -27 23 -5 23 8 0 15 5 15 10 0 6 -7 10 -15 10 -8 0 -15 5 -15 10
0 6 7 10 15 10 8 0 15 5 15 10 0 6 -7 10 -15 10 -8 0 -15 5 -15 10 0 6 7 10
15 10 8 0 15 7 15 15 0 17 -3 17 -45 4z m-15 -39 c0 -5 -4 -10 -10 -10 -5 0
-10 5 -10 10 0 6 5 10 10 10 6 0 10 -4 10 -10z m0 -40 c0 -5 -4 -10 -10 -10
-5 0 -10 5 -10 10 0 6 5 10 10 10 6 0 10 -4 10 -10z m0 -40 c0 -5 -4 -10 -10
-10 -5 0 -10 5 -10 10 0 6 5 10 10 10 6 0 10 -4 10 -10z"/>
<path d="M615 6669 c-16 -5 -37 -7 -45 -4 -12 4 -15 -9 -16 -75 -1 -44 2 -80
6 -80 11 0 20 38 20 86 0 44 10 54 56 54 15 0 24 6 24 15 0 17 -3 17 -45 4z"/>
<path d="M288 6583 c-24 -6 -23 -23 1 -23 26 0 51 10 51 21 0 9 -22 10 -52 2z"/>
<path d="M280 6235 c0 -21 -27 -75 -53 -102 -11 -13 -18 -26 -15 -29 11 -11
46 15 68 51 12 19 23 35 25 35 1 0 20 -21 41 -47 21 -26 34 -44 28 -41 -9 6
-37 2 -121 -17 -16 -4 -23 -13 -23 -30 0 -13 4 -26 8 -29 18 -11 49 7 59 32
10 25 11 26 12 5 1 -18 7 -23 30 -23 22 0 31 6 41 29 6 16 20 31 31 34 28 7
23 20 -15 41 -43 23 -73 54 -78 81 -4 24 -38 34 -38 10z m70 -165 c0 -5 -4
-10 -10 -10 -5 0 -10 5 -10 10 0 6 5 10 10 10 6 0 10 -4 10 -10z m-80 -10 c0
-5 -4 -10 -10 -10 -5 0 -10 5 -10 10 0 6 5 10 10 10 6 0 10 -4 10 -10z"/>
<path d="M165 6219 c-16 -5 -37 -7 -45 -4 -12 4 -15 -9 -16 -75 l-2 -79 44 6
c29 4 44 2 44 -5 0 -6 -7 -9 -15 -6 -8 4 -15 2 -15 -3 0 -6 -18 -8 -40 -6 -36
4 -40 1 -46 -22 -8 -32 3 -46 19 -24 7 9 18 14 25 12 6 -3 12 -1 12 4 0 4 14
9 30 10 35 3 38 -9 9 -38 -22 -22 -19 -49 6 -49 19 0 30 28 39 98 6 49 5 54
-14 59 -23 6 -27 23 -5 23 8 0 15 5 15 10 0 6 -7 10 -15 10 -8 0 -15 5 -15 10
0 6 7 10 15 10 8 0 15 5 15 10 0 6 -7 10 -15 10 -8 0 -15 5 -15 10 0 6 7 10
15 10 8 0 15 7 15 15 0 17 -3 17 -45 4z m-15 -39 c0 -5 -4 -10 -10 -10 -5 0
-10 5 -10 10 0 6 5 10 10 10 6 0 10 -4 10 -10z m0 -40 c0 -5 -4 -10 -10 -10
-5 0 -10 5 -10 10 0 6 5 10 10 10 6 0 10 -4 10 -10z m0 -40 c0 -5 -4 -10 -10
-10 -5 0 -10 5 -10 10 0 6 5 10 10 10 6 0 10 -4 10 -10z"/>
<path d="M615 6219 c-16 -5 -37 -7 -45 -4 -12 4 -15 -9 -16 -75 -1 -44 2 -80
6 -80 9 0 20 36 20 67 0 17 8 23 40 28 22 4 40 11 40 17 0 6 -15 7 -40 3 -24
-4 -40 -3 -40 3 0 12 24 22 56 22 15 0 24 6 24 15 0 17 -3 17 -45 4z"/>
<path d="M288 6133 c-24 -6 -23 -23 1 -23 26 0 51 10 51 21 0 9 -22 10 -52 2z"/>
<path d="M280 5785 c0 -21 -27 -75 -53 -102 -11 -13 -18 -26 -15 -29 11 -11
46 15 68 51 12 19 23 35 25 35 1 0 20 -21 41 -47 21 -26 34 -44 28 -41 -9 6
-37 2 -121 -17 -25 -6 -32 -42 -11 -63 9 -9 8 -16 -5 -30 -19 -21 -22 -32 -7
-32 17 0 59 53 60 75 0 11 5 27 10 35 8 12 10 11 10 -7 0 -19 6 -23 29 -23 22
0 31 6 41 29 6 16 20 31 31 34 28 7 23 20 -15 41 -43 23 -73 54 -78 81 -4 24
-38 34 -38 10z m70 -165 c0 -5 -4 -10 -10 -10 -5 0 -10 5 -10 10 0 6 5 10 10
10 6 0 10 -4 10 -10z m-80 -10 c0 -5 -4 -10 -10 -10 -5 0 -10 5 -10 10 0 6 5
10 10 10 6 0 10 -4 10 -10z"/>
<path d="M165 5769 c-16 -5 -37 -7 -45 -4 -12 4 -15 -9 -16 -75 l-2 -79 44 6
c29 4 44 2 44 -5 0 -6 -7 -9 -15 -6 -8 4 -15 2 -15 -3 0 -6 -18 -8 -40 -6 -36
4 -40 1 -46 -22 -8 -32 3 -46 19 -24 7 9 18 14 25 12 6 -3 12 -1 12 4 0 4 14
9 30 10 35 3 38 -9 9 -38 -22 -22 -19 -49 6 -49 19 0 30 28 39 98 6 49 5 54
-14 59 -23 6 -27 23 -5 23 8 0 15 5 15 10 0 6 -7 10 -15 10 -8 0 -15 5 -15 10
0 6 7 10 15 10 8 0 15 5 15 10 0 6 -7 10 -15 10 -8 0 -15 5 -15 10 0 6 7 10
15 10 8 0 15 7 15 15 0 17 -3 17 -45 4z m-15 -39 c0 -5 -4 -10 -10 -10 -5 0
-10 5 -10 10 0 6 5 10 10 10 6 0 10 -4 10 -10z m0 -40 c0 -5 -4 -10 -10 -10
-5 0 -10 5 -10 10 0 6 5 10 10 10 6 0 10 -4 10 -10z m0 -40 c0 -5 -4 -10 -10
-10 -5 0 -10 5 -10 10 0 6 5 10 10 10 6 0 10 -4 10 -10z"/>
<path d="M615 5769 c-16 -5 -37 -7 -45 -4 -12 4 -15 -9 -16 -75 -2 -78 8 -104
20 -56 5 19 15 26 46 31 22 4 40 11 40 17 0 7 -15 8 -40 4 -22 -3 -40 -2 -40
3 0 5 18 12 40 16 22 4 40 11 40 17 0 6 -15 7 -40 3 -24 -4 -40 -3 -40 3 0 12
24 22 56 22 15 0 24 6 24 15 0 17 -3 17 -45 4z"/>
<path d="M288 5683 c-24 -6 -23 -23 1 -23 26 0 51 10 51 21 0 9 -22 10 -52 2z"/>
<path d="M280 5335 c0 -21 -27 -75 -53 -102 -11 -13 -18 -26 -15 -29 11 -11
46 15 68 51 12 19 23 35 25 35 1 0 20 -21 41 -47 21 -26 34 -44 28 -41 -9 6
-37 2 -121 -17 -25 -6 -32 -42 -11 -63 9 -9 8 -16 -5 -30 -9 -10 -17 -22 -17
-25 0 -12 28 -7 34 6 5 10 7 10 12 0 12 -26 21 -12 22 31 0 48 21 103 22 59 0
-19 6 -23 29 -23 22 0 31 6 41 29 6 16 20 31 31 34 28 7 23 20 -15 41 -43 23
-73 54 -78 81 -4 24 -38 34 -38 10z m70 -165 c0 -5 -4 -10 -10 -10 -5 0 -10 5
-10 10 0 6 5 10 10 10 6 0 10 -4 10 -10z m-80 -10 c0 -5 -4 -10 -10 -10 -5 0
-10 5 -10 10 0 6 5 10 10 10 6 0 10 -4 10 -10z"/>
<path d="M165 5319 c-16 -5 -37 -7 -45 -4 -12 4 -15 -9 -16 -75 l-2 -79 44 6
c29 4 44 2 44 -5 0 -6 -7 -9 -15 -6 -8 4 -15 2 -15 -3 0 -6 -18 -8 -40 -6 -36
4 -40 1 -46 -22 -8 -32 3 -46 19 -24 7 9 18 14 25 12 6 -3 12 -1 12 4 0 4 14
9 30 10 35 3 38 -9 9 -38 -22 -22 -19 -49 6 -49 19 0 30 28 39 98 6 49 5 54
-14 59 -23 6 -27 23 -5 23 8 0 15 5 15 10 0 6 -7 10 -15 10 -8 0 -15 5 -15 10
0 6 7 10 15 10 8 0 15 5 15 10 0 6 -7 10 -15 10 -8 0 -15 5 -15 10 0 6 7 10
15 10 8 0 15 7 15 15 0 17 -3 17 -45 4z m-15 -39 c0 -5 -4 -10 -10 -10 -5 0
-10 5 -10 10 0 6 5 10 10 10 6 0 10 -4 10 -10z m0 -40 c0 -5 -4 -10 -10 -10
-5 0 -10 5 -10 10 0 6 5 10 10 10 6 0 10 -4 10 -10z m0 -40 c0 -5 -4 -10 -10
-10 -5 0 -10 5 -10 10 0 6 5 10 10 10 6 0 10 -4 10 -10z"/>
<path d="M615 5319 c-16 -5 -37 -7 -45 -4 -12 4 -15 -9 -16 -75 -2 -79 8 -104
20 -55 7 27 26 34 26 10 0 -22 18 -18 25 5 3 11 13 20 21 20 8 0 14 5 14 10 0
6 -7 10 -15 10 -8 0 -15 5 -15 10 0 6 7 10 15 10 8 0 15 5 15 10 0 6 -7 10
-15 10 -8 0 -15 5 -15 10 0 6 7 10 15 10 8 0 15 7 15 15 0 17 -3 17 -45 4z
m-15 -39 c0 -5 -4 -10 -10 -10 -5 0 -10 5 -10 10 0 6 5 10 10 10 6 0 10 -4 10
-10z m0 -40 c0 -5 -4 -10 -10 -10 -5 0 -10 5 -10 10 0 6 5 10 10 10 6 0 10 -4
10 -10z"/>
<path d="M288 5233 c-24 -6 -23 -23 1 -23 26 0 51 10 51 21 0 9 -22 10 -52 2z"/>
<path d="M280 4885 c0 -21 -27 -75 -53 -102 -11 -13 -18 -26 -15 -29 11 -11
46 15 68 51 12 19 23 35 25 35 1 0 20 -21 41 -47 21 -26 34 -44 28 -41 -9 6
-37 2 -121 -17 -25 -6 -32 -42 -11 -63 9 -9 8 -16 -5 -30 -9 -10 -17 -22 -17
-25 0 -12 28 -7 34 6 5 10 7 10 12 0 12 -26 21 -12 22 31 0 47 21 103 22 59 0
-12 6 -23 13 -26 9 -3 8 -13 -6 -37 -10 -18 -15 -35 -13 -38 11 -11 40 25 63
79 15 35 32 59 44 62 28 7 23 20 -15 41 -43 23 -73 54 -78 81 -4 24 -38 34
-38 10z m70 -165 c0 -5 -4 -10 -10 -10 -5 0 -10 5 -10 10 0 6 5 10 10 10 6 0
10 -4 10 -10z m-80 -10 c0 -5 -4 -10 -10 -10 -5 0 -10 5 -10 10 0 6 5 10 10
10 6 0 10 -4 10 -10z"/>
<path d="M165 4869 c-16 -5 -37 -7 -45 -4 -12 4 -15 -9 -16 -75 l-2 -79 44 6
c29 4 44 2 44 -5 0 -6 -7 -9 -15 -6 -8 4 -15 2 -15 -3 0 -6 -18 -8 -40 -6 -36
4 -40 1 -46 -22 -8 -32 3 -46 19 -24 7 9 18 14 25 12 6 -3 12 -1 12 4 0 4 14
9 30 10 35 3 38 -9 9 -38 -22 -22 -19 -49 6 -49 19 0 30 28 39 98 6 49 5 54
-14 59 -23 6 -27 23 -5 23 8 0 15 5 15 10 0 6 -7 10 -15 10 -8 0 -15 5 -15 10
0 6 7 10 15 10 8 0 15 5 15 10 0 6 -7 10 -15 10 -8 0 -15 5 -15 10 0 6 7 10
15 10 8 0 15 7 15 15 0 17 -3 17 -45 4z m-15 -39 c0 -5 -4 -10 -10 -10 -5 0
-10 5 -10 10 0 6 5 10 10 10 6 0 10 -4 10 -10z m0 -40 c0 -5 -4 -10 -10 -10
-5 0 -10 5 -10 10 0 6 5 10 10 10 6 0 10 -4 10 -10z m0 -40 c0 -5 -4 -10 -10
-10 -5 0 -10 5 -10 10 0 6 5 10 10 10 6 0 10 -4 10 -10z"/>
<path d="M615 4869 c-16 -5 -37 -7 -45 -4 -12 4 -15 -9 -16 -75 l-2 -79 44 6
c44 6 44 6 44 -26 0 -18 -9 -40 -21 -52 -22 -22 -19 -49 6 -49 19 0 30 28 39
98 6 49 5 54 -14 59 -23 6 -27 23 -5 23 8 0 15 5 15 10 0 6 -7 10 -15 10 -8 0
-15 5 -15 10 0 6 7 10 15 10 8 0 15 5 15 10 0 6 -7 10 -15 10 -8 0 -15 5 -15
10 0 6 7 10 15 10 8 0 15 7 15 15 0 17 -3 17 -45 4z m-15 -39 c0 -5 -4 -10
-10 -10 -5 0 -10 5 -10 10 0 6 5 10 10 10 6 0 10 -4 10 -10z m0 -40 c0 -5 -4
-10 -10 -10 -5 0 -10 5 -10 10 0 6 5 10 10 10 6 0 10 -4 10 -10z m0 -40 c0 -5
-4 -10 -10 -10 -5 0 -10 5 -10 10 0 6 5 10 10 10 6 0 10 -4 10 -10z"/>
<path d="M288 4783 c-24 -6 -23 -23 1 -23 26 0 51 10 51 21 0 9 -22 10 -52 2z"/>
<path d="M280 4435 c0 -21 -27 -75 -53 -102 -11 -13 -18 -26 -15 -29 11 -11
46 15 68 51 12 19 23 35 25 35 1 0 20 -21 41 -47 21 -26 34 -44 28 -41 -9 6
-37 2 -121 -17 -25 -6 -32 -42 -11 -63 9 -9 8 -16 -5 -30 -9 -10 -17 -22 -17
-25 0 -12 28 -7 34 6 5 10 7 10 12 0 12 -26 21 -12 22 31 0 47 21 103 22 59 0
-12 6 -23 13 -26 9 -3 8 -13 -6 -37 -20 -36 -16 -50 8 -30 13 11 19 9 38 -9
13 -11 29 -21 35 -21 23 0 12 30 -17 48 l-29 18 20 46 c11 26 28 48 39 51 28
7 23 20 -15 41 -43 23 -73 54 -78 81 -4 24 -38 34 -38 10z m70 -165 c0 -5 -4
-10 -10 -10 -5 0 -10 5 -10 10 0 6 5 10 10 10 6 0 10 -4 10 -10z m-80 -10 c0
-5 -4 -10 -10 -10 -5 0 -10 5 -10 10 0 6 5 10 10 10 6 0 10 -4 10 -10z"/>
<path d="M165 4419 c-16 -5 -37 -7 -45 -4 -12 4 -15 -9 -16 -75 l-2 -79 44 6
c29 4 44 2 44 -5 0 -6 -7 -9 -15 -6 -8 4 -15 2 -15 -3 0 -6 -18 -8 -40 -6 -36
4 -40 1 -46 -22 -8 -32 3 -46 19 -24 7 9 18 14 25 12 6 -3 12 -1 12 4 0 4 14
9 30 10 35 3 38 -9 9 -38 -22 -22 -19 -49 6 -49 19 0 30 28 39 98 6 49 5 54
-14 59 -23 6 -27 23 -5 23 8 0 15 5 15 10 0 6 -7 10 -15 10 -8 0 -15 5 -15 10
0 6 7 10 15 10 8 0 15 5 15 10 0 6 -7 10 -15 10 -8 0 -15 5 -15 10 0 6 7 10
15 10 8 0 15 7 15 15 0 17 -3 17 -45 4z m-15 -39 c0 -5 -4 -10 -10 -10 -5 0
-10 5 -10 10 0 6 5 10 10 10 6 0 10 -4 10 -10z m0 -40 c0 -5 -4 -10 -10 -10
-5 0 -10 5 -10 10 0 6 5 10 10 10 6 0 10 -4 10 -10z m0 -40 c0 -5 -4 -10 -10
-10 -5 0 -10 5 -10 10 0 6 5 10 10 10 6 0 10 -4 10 -10z"/>
<path d="M615 4419 c-16 -5 -37 -7 -45 -4 -12 4 -15 -9 -16 -75 l-2 -79 44 6
c44 6 44 6 44 -26 0 -18 -9 -40 -21 -52 -22 -22 -19 -49 6 -49 19 0 30 28 39
98 6 49 5 54 -14 59 -23 6 -27 23 -5 23 8 0 15 5 15 10 0 6 -7 10 -15 10 -8 0
-15 5 -15 10 0 6 7 10 15 10 8 0 15 5 15 10 0 6 -7 10 -15 10 -8 0 -15 5 -15
10 0 6 7 10 15 10 8 0 15 7 15 15 0 17 -3 17 -45 4z m-15 -39 c0 -5 -4 -10
-10 -10 -5 0 -10 5 -10 10 0 6 5 10 10 10 6 0 10 -4 10 -10z m0 -40 c0 -5 -4
-10 -10 -10 -5 0 -10 5 -10 10 0 6 5 10 10 10 6 0 10 -4 10 -10z m0 -40 c0 -5
-4 -10 -10 -10 -5 0 -10 5 -10 10 0 6 5 10 10 10 6 0 10 -4 10 -10z"/>
<path d="M288 4333 c-24 -6 -23 -23 1 -23 26 0 51 10 51 21 0 9 -22 10 -52 2z"/>
<path d="M524 4225 c-7 -29 -1 -41 15 -30 14 8 14 55 1 55 -5 0 -12 -11 -16
-25z"/>
<path d="M615 3969 c-16 -5 -37 -7 -45 -4 -12 4 -15 -9 -16 -75 l-2 -79 44 6
c44 6 44 6 44 -26 0 -18 -9 -40 -21 -52 -22 -22 -19 -49 6 -49 19 0 30 28 39
98 6 49 5 54 -14 59 -23 6 -27 23 -5 23 8 0 15 5 15 10 0 6 -7 10 -15 10 -8 0
-15 5 -15 10 0 6 7 10 15 10 8 0 15 5 15 10 0 6 -7 10 -15 10 -8 0 -15 5 -15
10 0 6 7 10 15 10 8 0 15 7 15 15 0 17 -3 17 -45 4z m-15 -39 c0 -5 -4 -10
-10 -10 -5 0 -10 5 -10 10 0 6 5 10 10 10 6 0 10 -4 10 -10z m0 -40 c0 -5 -4
-10 -10 -10 -5 0 -10 5 -10 10 0 6 5 10 10 10 6 0 10 -4 10 -10z m0 -40 c0 -5
-4 -10 -10 -10 -5 0 -10 5 -10 10 0 6 5 10 10 10 6 0 10 -4 10 -10z"/>
<path d="M524 3775 c-8 -32 3 -46 19 -24 7 9 18 14 25 11 9 -3 13 2 10 14 -2
11 -13 20 -25 22 -17 3 -24 -3 -29 -23z"/>
<path d="M615 3519 c-16 -5 -37 -7 -45 -4 -12 4 -15 -9 -16 -75 l-2 -79 44 6
c44 6 44 6 44 -26 0 -18 -9 -40 -21 -52 -22 -22 -19 -49 6 -49 19 0 30 28 39
98 6 49 5 54 -14 59 -23 6 -27 23 -5 23 8 0 15 5 15 10 0 6 -7 10 -15 10 -8 0
-15 5 -15 10 0 6 7 10 15 10 8 0 15 5 15 10 0 6 -7 10 -15 10 -8 0 -15 5 -15
10 0 6 7 10 15 10 8 0 15 7 15 15 0 17 -3 17 -45 4z m-15 -39 c0 -5 -4 -10
-10 -10 -5 0 -10 5 -10 10 0 6 5 10 10 10 6 0 10 -4 10 -10z m0 -40 c0 -5 -4
-10 -10 -10 -5 0 -10 5 -10 10 0 6 5 10 10 10 6 0 10 -4 10 -10z m0 -40 c0 -5
-4 -10 -10 -10 -5 0 -10 5 -10 10 0 6 5 10 10 10 6 0 10 -4 10 -10z"/>
<path d="M524 3325 c-8 -32 3 -46 19 -24 7 9 18 14 25 12 6 -3 12 0 12 6 0 6
7 8 16 4 12 -4 15 -2 12 8 -3 8 -21 15 -41 17 -32 2 -37 -1 -43 -23z"/>
<path d="M615 3069 c-16 -5 -37 -7 -45 -4 -12 4 -15 -9 -16 -75 l-2 -79 44 6
c29 4 44 2 44 -5 0 -6 -7 -9 -15 -6 -8 4 -15 2 -15 -3 0 -6 -18 -8 -40 -6 -36
4 -40 1 -46 -22 -8 -32 3 -46 19 -24 7 9 18 14 25 12 6 -3 12 -1 12 4 0 4 14
9 30 10 35 3 38 -9 9 -38 -22 -22 -19 -49 6 -49 19 0 30 28 39 98 6 49 5 54
-14 59 -23 6 -27 23 -5 23 8 0 15 5 15 10 0 6 -7 10 -15 10 -8 0 -15 5 -15 10
0 6 7 10 15 10 8 0 15 5 15 10 0 6 -7 10 -15 10 -8 0 -15 5 -15 10 0 6 7 10
15 10 8 0 15 7 15 15 0 17 -3 17 -45 4z m-15 -39 c0 -5 -4 -10 -10 -10 -5 0
-10 5 -10 10 0 6 5 10 10 10 6 0 10 -4 10 -10z m0 -40 c0 -5 -4 -10 -10 -10
-5 0 -10 5 -10 10 0 6 5 10 10 10 6 0 10 -4 10 -10z m0 -40 c0 -5 -4 -10 -10
-10 -5 0 -10 5 -10 10 0 6 5 10 10 10 6 0 10 -4 10 -10z"/>
<path d="M730 2635 c0 -21 -28 -75 -53 -102 -24 -27 -18 -39 11 -24 26 14 85
109 78 127 -7 19 -36 18 -36 -1z"/>
<path d="M615 2619 c-16 -5 -37 -7 -45 -4 -12 4 -15 -9 -16 -75 l-2 -79 44 6
c29 4 44 2 44 -5 0 -6 -7 -9 -15 -6 -8 4 -15 2 -15 -3 0 -6 -18 -8 -40 -6 -36
4 -40 1 -46 -22 -8 -32 3 -46 19 -24 7 9 18 14 25 12 6 -3 12 -1 12 4 0 4 14
9 30 10 35 3 38 -9 9 -38 -22 -22 -19 -49 6 -49 19 0 30 28 39 98 6 49 5 54
-14 59 -23 6 -27 23 -5 23 8 0 15 5 15 10 0 6 -7 10 -15 10 -8 0 -15 5 -15 10
0 6 7 10 15 10 8 0 15 5 15 10 0 6 -7 10 -15 10 -8 0 -15 5 -15 10 0 6 7 10
15 10 8 0 15 7 15 15 0 17 -3 17 -45 4z m-15 -39 c0 -5 -4 -10 -10 -10 -5 0
-10 5 -10 10 0 6 5 10 10 10 6 0 10 -4 10 -10z m0 -40 c0 -5 -4 -10 -10 -10
-5 0 -10 5 -10 10 0 6 5 10 10 10 6 0 10 -4 10 -10z m0 -40 c0 -5 -4 -10 -10
-10 -5 0 -10 5 -10 10 0 6 5 10 10 10 6 0 10 -4 10 -10z"/>
<path d="M730 2185 c0 -21 -27 -75 -53 -102 -11 -13 -18 -26 -15 -29 11 -11
46 16 69 52 l23 37 39 -46 c38 -46 69 -59 83 -35 4 6 2 14 -5 16 -30 10 -96
70 -101 92 -7 28 -40 41 -40 15z"/>
<path d="M615 2169 c-16 -5 -37 -7 -45 -4 -12 4 -15 -9 -16 -75 l-2 -79 44 6
c29 4 44 2 44 -5 0 -6 -7 -9 -15 -6 -8 4 -15 2 -15 -3 0 -6 -18 -8 -40 -6 -36
4 -40 1 -46 -22 -8 -32 3 -46 19 -24 7 9 18 14 25 12 6 -3 12 -1 12 4 0 4 14
9 30 10 35 3 38 -9 9 -38 -22 -22 -19 -49 6 -49 19 0 30 28 39 98 6 49 5 54
-14 59 -23 6 -27 23 -5 23 8 0 15 5 15 10 0 6 -7 10 -15 10 -8 0 -15 5 -15 10
0 6 7 10 15 10 8 0 15 5 15 10 0 6 -7 10 -15 10 -8 0 -15 5 -15 10 0 6 7 10
15 10 8 0 15 7 15 15 0 17 -3 17 -45 4z m-15 -39 c0 -5 -4 -10 -10 -10 -5 0
-10 5 -10 10 0 6 5 10 10 10 6 0 10 -4 10 -10z m0 -40 c0 -5 -4 -10 -10 -10
-5 0 -10 5 -10 10 0 6 5 10 10 10 6 0 10 -4 10 -10z m0 -40 c0 -5 -4 -10 -10
-10 -5 0 -10 5 -10 10 0 6 5 10 10 10 6 0 10 -4 10 -10z"/>
<path d="M730 1735 c0 -21 -27 -75 -53 -102 -11 -13 -18 -26 -15 -29 11 -11
46 16 69 52 l23 37 39 -46 c38 -46 69 -59 83 -35 4 6 2 14 -5 16 -30 10 -96
70 -101 92 -7 28 -40 41 -40 15z"/>
<path d="M615 1719 c-16 -5 -37 -7 -45 -4 -12 4 -15 -9 -16 -75 l-2 -79 44 6
c29 4 44 2 44 -5 0 -6 -7 -9 -15 -6 -8 4 -15 2 -15 -3 0 -6 -18 -8 -40 -6 -36
4 -40 1 -46 -22 -8 -32 3 -46 19 -24 7 9 18 14 25 12 6 -3 12 -1 12 4 0 4 14
9 30 10 35 3 38 -9 9 -38 -22 -22 -19 -49 6 -49 19 0 30 28 39 98 6 49 5 54
-14 59 -23 6 -27 23 -5 23 8 0 15 5 15 10 0 6 -7 10 -15 10 -8 0 -15 5 -15 10
0 6 7 10 15 10 8 0 15 5 15 10 0 6 -7 10 -15 10 -8 0 -15 5 -15 10 0 6 7 10
15 10 8 0 15 7 15 15 0 17 -3 17 -45 4z m-15 -39 c0 -5 -4 -10 -10 -10 -5 0
-10 5 -10 10 0 6 5 10 10 10 6 0 10 -4 10 -10z m0 -40 c0 -5 -4 -10 -10 -10
-5 0 -10 5 -10 10 0 6 5 10 10 10 6 0 10 -4 10 -10z m0 -40 c0 -5 -4 -10 -10
-10 -5 0 -10 5 -10 10 0 6 5 10 10 10 6 0 10 -4 10 -10z"/>
<path d="M738 1633 c-24 -6 -23 -23 1 -23 26 0 51 10 51 21 0 9 -22 10 -52 2z"/>
<path d="M730 1285 c0 -21 -27 -75 -53 -102 -11 -13 -18 -26 -15 -29 11 -11
46 16 69 52 l23 37 39 -46 c38 -46 69 -59 83 -35 4 6 2 14 -5 16 -30 10 -96
70 -101 92 -7 28 -40 41 -40 15z"/>
<path d="M615 1269 c-16 -5 -37 -7 -45 -4 -12 4 -15 -9 -16 -75 l-2 -79 44 6
c29 4 44 2 44 -5 0 -6 -7 -9 -15 -6 -8 4 -15 2 -15 -3 0 -6 -18 -8 -40 -6 -36
4 -40 1 -46 -22 -8 -32 3 -46 19 -24 7 9 18 14 25 12 6 -3 12 -1 12 4 0 4 14
9 30 10 35 3 38 -9 9 -38 -22 -22 -19 -49 6 -49 19 0 30 28 39 98 6 49 5 54
-14 59 -23 6 -27 23 -5 23 8 0 15 5 15 10 0 6 -7 10 -15 10 -8 0 -15 5 -15 10
0 6 7 10 15 10 8 0 15 5 15 10 0 6 -7 10 -15 10 -8 0 -15 5 -15 10 0 6 7 10
15 10 8 0 15 7 15 15 0 17 -3 17 -45 4z m-15 -39 c0 -5 -4 -10 -10 -10 -5 0
-10 5 -10 10 0 6 5 10 10 10 6 0 10 -4 10 -10z m0 -40 c0 -5 -4 -10 -10 -10
-5 0 -10 5 -10 10 0 6 5 10 10 10 6 0 10 -4 10 -10z m0 -40 c0 -5 -4 -10 -10
-10 -5 0 -10 5 -10 10 0 6 5 10 10 10 6 0 10 -4 10 -10z"/>
<path d="M738 1183 c-24 -6 -23 -23 1 -23 26 0 51 10 51 21 0 9 -22 10 -52 2z"/>
<path d="M680 1105 c0 -14 5 -25 10 -25 6 0 10 11 10 25 0 14 -4 25 -10 25 -5
0 -10 -11 -10 -25z"/>
<path d="M730 835 c0 -21 -27 -75 -53 -102 -11 -13 -18 -26 -15 -29 11 -11 46
16 69 52 l23 37 39 -46 c38 -46 69 -59 83 -35 4 6 2 14 -5 16 -30 10 -96 70
-101 92 -7 28 -40 41 -40 15z"/>
<path d="M615 819 c-16 -5 -37 -7 -45 -4 -12 4 -15 -9 -16 -75 l-2 -79 44 6
c29 4 44 2 44 -5 0 -6 -7 -9 -15 -6 -8 4 -15 2 -15 -3 0 -6 -18 -8 -40 -6 -36
4 -40 1 -46 -22 -8 -32 3 -46 19 -24 7 9 18 14 25 12 6 -3 12 -1 12 4 0 4 14
9 30 10 35 3 38 -9 9 -38 -22 -22 -19 -49 6 -49 19 0 30 28 39 98 6 49 5 54
-14 59 -23 6 -27 23 -5 23 8 0 15 5 15 10 0 6 -7 10 -15 10 -8 0 -15 5 -15 10
0 6 7 10 15 10 8 0 15 5 15 10 0 6 -7 10 -15 10 -8 0 -15 5 -15 10 0 6 7 10
15 10 8 0 15 7 15 15 0 17 -3 17 -45 4z m-15 -39 c0 -5 -4 -10 -10 -10 -5 0
-10 5 -10 10 0 6 5 10 10 10 6 0 10 -4 10 -10z m0 -40 c0 -5 -4 -10 -10 -10
-5 0 -10 5 -10 10 0 6 5 10 10 10 6 0 10 -4 10 -10z m0 -40 c0 -5 -4 -10 -10
-10 -5 0 -10 5 -10 10 0 6 5 10 10 10 6 0 10 -4 10 -10z"/>
<path d="M738 733 c-24 -6 -23 -23 1 -23 26 0 51 10 51 21 0 9 -22 10 -52 2z"/>
<path d="M693 683 c-15 -6 -18 -53 -3 -53 6 0 10 9 10 20 0 11 5 20 10 20 6 0
10 -7 10 -15 0 -8 4 -15 9 -15 9 0 21 24 21 41 0 9 -36 11 -57 2z"/>
<path d="M730 385 c0 -21 -27 -75 -53 -102 -11 -13 -18 -26 -15 -29 11 -11 46
16 69 52 l23 37 39 -46 c38 -46 69 -59 83 -35 4 6 2 14 -5 16 -30 10 -96 70
-101 92 -7 28 -40 41 -40 15z"/>
<path d="M615 369 c-16 -5 -37 -7 -45 -4 -12 4 -15 -9 -16 -75 l-2 -79 44 6
c29 4 44 2 44 -5 0 -6 -7 -9 -15 -6 -8 4 -15 2 -15 -3 0 -6 -18 -8 -40 -6 -36
4 -40 1 -46 -22 -8 -32 3 -46 19 -24 7 9 18 14 25 12 6 -3 12 -1 12 4 0 4 14
9 30 10 35 3 38 -9 9 -38 -22 -22 -19 -49 6 -49 19 0 30 28 39 98 6 49 5 54
-14 59 -23 6 -27 23 -5 23 8 0 15 5 15 10 0 6 -7 10 -15 10 -8 0 -15 5 -15 10
0 6 7 10 15 10 8 0 15 5 15 10 0 6 -7 10 -15 10 -8 0 -15 5 -15 10 0 6 7 10
15 10 8 0 15 7 15 15 0 17 -3 17 -45 4z m-15 -39 c0 -5 -4 -10 -10 -10 -5 0
-10 5 -10 10 0 6 5 10 10 10 6 0 10 -4 10 -10z m0 -40 c0 -5 -4 -10 -10 -10
-5 0 -10 5 -10 10 0 6 5 10 10 10 6 0 10 -4 10 -10z m0 -40 c0 -5 -4 -10 -10
-10 -5 0 -10 5 -10 10 0 6 5 10 10 10 6 0 10 -4 10 -10z"/>
<path d="M738 283 c-24 -6 -23 -23 1 -23 26 0 51 10 51 21 0 9 -22 10 -52 2z"/>
<path d="M692 231 c-8 -4 -12 -19 -10 -32 2 -19 8 -23 27 -21 30 3 28 1 36 35
6 24 4 27 -16 27 -13 0 -30 -4 -37 -9z m28 -21 c0 -5 -4 -10 -10 -10 -5 0 -10
5 -10 10 0 6 5 10 10 10 6 0 10 -4 10 -10z"/>
</g>
</svg>
