<?xml version="1.0" standalone="no"?>
<!DOCTYPE svg PUBLIC "-//W3C//DTD SVG 20010904//EN"
 "http://www.w3.org/TR/2001/REC-SVG-20010904/DTD/svg10.dtd">
<svg version="1.0" xmlns="http://www.w3.org/2000/svg"
 width="95.000000pt" height="725.000000pt" viewBox="0 0 95.000000 725.000000"
 preserveAspectRatio="xMidYMid meet">
<metadata>
Created by potrace 1.16, written by Peter Selinger 2001-2019
</metadata>
<g transform="translate(0.000000,725.000000) scale(0.100000,-0.100000)"
fill="#000000" stroke="none">
<path d="M216 7154 c-5 -18 -3 -30 6 -35 9 -6 10 -9 1 -9 -7 0 -18 -18 -24
-40 -13 -44 -39 -54 -39 -15 0 18 4 23 15 19 17 -7 21 11 4 22 -8 4 -7 9 2 16
11 7 11 11 2 15 -7 2 -13 13 -13 24 0 11 -7 19 -16 19 -11 0 -14 -6 -9 -21 5
-15 2 -22 -12 -25 -14 -4 -20 -14 -20 -35 0 -21 4 -28 14 -25 8 3 13 -2 13
-13 0 -10 -9 -21 -20 -24 -19 -5 -38 -52 -26 -64 4 -4 18 5 32 20 16 18 35 27
54 27 34 0 36 -6 14 -38 -24 -34 -6 -41 22 -9 28 33 31 64 7 70 -10 2 0 7 24
12 23 4 44 14 47 21 8 21 26 17 26 -6 0 -16 -7 -20 -35 -20 -19 0 -35 -4 -35
-10 0 -5 14 -10 31 -10 31 0 69 30 69 54 0 6 5 5 12 -2 16 -16 28 -15 28 2 0
7 -10 21 -22 29 -19 13 -20 16 -5 16 21 1 23 21 2 21 -8 0 -15 9 -15 20 0 11
-4 20 -10 20 -5 0 -10 -9 -10 -20 0 -11 -7 -23 -16 -27 -8 -3 -13 -12 -10 -20
3 -8 -2 -17 -12 -20 -9 -4 -20 -11 -24 -17 -4 -6 -10 -8 -13 -4 -3 3 2 13 11
23 15 14 15 18 3 26 -10 6 -10 9 -1 9 6 0 12 5 12 11 0 6 -8 8 -19 4 -14 -4
-18 -1 -17 11 2 28 -21 27 -28 -2z m18 -79 c-4 -8 -8 -15 -10 -15 -2 0 -4 7
-4 15 0 8 4 15 10 15 5 0 7 -7 4 -15z"/>
<path d="M666 7154 c-4 -14 -4 -29 -1 -32 7 -7 35 30 32 42 -7 21 -25 15 -31
-10z"/>
<path d="M350 7040 c0 -5 5 -10 10 -10 6 0 10 -7 10 -15 0 -17 35 -21 45 -5 4
6 1 17 -5 25 -14 17 -60 20 -60 5z"/>
<path d="M216 6704 c-5 -18 -3 -30 6 -35 9 -6 10 -9 1 -9 -7 0 -18 -18 -24
-40 -13 -44 -39 -54 -39 -15 0 18 4 23 15 19 17 -7 21 11 4 22 -8 4 -7 9 2 16
11 7 11 11 2 15 -7 2 -13 13 -13 24 0 11 -7 19 -16 19 -11 0 -14 -6 -9 -21 5
-15 2 -22 -12 -25 -14 -4 -20 -14 -20 -35 0 -21 4 -28 14 -25 8 3 13 -2 13
-13 0 -10 -9 -21 -20 -24 -19 -5 -38 -52 -26 -64 4 -4 18 5 32 20 25 27 84 39
84 17 0 -5 -6 -10 -14 -10 -7 0 -13 -10 -13 -23 0 -19 5 -23 33 -24 33 -1 44
9 24 22 -5 3 -7 19 -4 34 5 23 2 30 -12 34 -12 2 -3 7 23 12 23 4 44 14 47 21
8 21 26 17 26 -6 0 -16 -7 -20 -35 -20 -19 0 -35 -4 -35 -10 0 -5 14 -10 31
-10 31 0 69 30 69 54 0 6 5 5 12 -2 16 -16 28 -15 28 2 0 7 -10 21 -22 29 -19
13 -20 16 -5 16 21 1 23 21 2 21 -8 0 -15 9 -15 20 0 11 -4 20 -10 20 -5 0
-10 -9 -10 -20 0 -11 -7 -23 -16 -27 -8 -3 -13 -12 -10 -20 3 -8 -2 -17 -12
-20 -9 -4 -20 -11 -24 -17 -4 -6 -10 -8 -13 -4 -3 3 2 13 11 23 15 14 15 18 3
26 -10 6 -10 9 -1 9 6 0 12 5 12 11 0 6 -8 8 -19 4 -14 -4 -18 -1 -17 11 2 28
-21 27 -28 -2z m18 -79 c-4 -8 -8 -15 -10 -15 -2 0 -4 7 -4 15 0 8 4 15 10 15
5 0 7 -7 4 -15z"/>
<path d="M666 6708 c-3 -13 -6 -26 -6 -30 0 -10 32 -10 54 -2 23 9 20 27 -3
19 -14 -4 -18 -1 -17 11 2 26 -21 28 -28 2z"/>
<path d="M350 6590 c0 -5 5 -10 10 -10 6 0 10 -7 10 -15 0 -17 35 -21 45 -5 4
6 1 17 -5 25 -14 17 -60 20 -60 5z"/>
<path d="M216 6254 c-5 -18 -3 -30 6 -35 9 -6 10 -9 1 -9 -7 0 -18 -18 -24
-40 -13 -44 -39 -54 -39 -15 0 18 4 23 15 19 17 -7 21 11 4 22 -8 4 -7 9 2 16
11 7 11 11 2 15 -7 2 -13 13 -13 24 0 11 -7 19 -16 19 -11 0 -14 -6 -9 -21 5
-15 2 -22 -12 -25 -14 -4 -20 -14 -20 -35 0 -21 4 -28 14 -25 8 3 13 -2 13
-13 0 -10 -9 -21 -20 -24 -19 -5 -38 -52 -26 -64 4 -4 18 5 32 20 14 15 33 27
44 27 16 0 18 -6 15 -33 -4 -32 -3 -33 30 -34 34 -1 46 9 25 22 -5 3 -7 19 -4
34 5 23 2 30 -12 34 -12 2 -3 7 23 12 23 4 44 14 47 21 8 21 26 17 26 -6 0
-16 -7 -20 -35 -20 -19 0 -35 -4 -35 -10 0 -5 14 -10 31 -10 31 0 69 30 69 54
0 6 5 5 12 -2 16 -16 28 -15 28 2 0 7 -10 21 -22 29 -19 13 -20 16 -5 16 21 1
23 21 2 21 -8 0 -15 9 -15 20 0 11 -4 20 -10 20 -5 0 -10 -9 -10 -20 0 -11 -7
-23 -16 -27 -8 -3 -13 -12 -10 -20 3 -8 -2 -17 -12 -20 -9 -4 -20 -11 -24 -17
-4 -6 -10 -8 -13 -4 -3 3 2 13 11 23 15 14 15 18 3 26 -10 6 -10 9 -1 9 6 0
12 5 12 11 0 6 -8 8 -19 4 -14 -4 -18 -1 -17 11 2 28 -21 27 -28 -2z m18 -79
c-4 -8 -8 -15 -10 -15 -2 0 -4 7 -4 15 0 8 4 15 10 15 5 0 7 -7 4 -15z"/>
<path d="M666 6258 c-3 -13 -6 -26 -6 -30 0 -10 32 -10 54 -2 23 9 20 27 -3
19 -14 -4 -18 -1 -17 11 2 26 -21 28 -28 2z"/>
<path d="M688 6213 c-32 -5 -38 -23 -9 -23 26 0 51 10 51 21 0 5 -3 8 -7 8 -5
-1 -20 -4 -35 -6z"/>
<path d="M350 6140 c0 -5 5 -10 10 -10 6 0 10 -7 10 -15 0 -17 35 -21 45 -5 4
6 1 17 -5 25 -14 17 -60 20 -60 5z"/>
<path d="M216 5804 c-5 -18 -3 -30 6 -35 9 -6 10 -9 1 -9 -7 0 -18 -18 -24
-40 -13 -44 -39 -54 -39 -15 0 18 4 23 15 19 17 -7 21 11 4 22 -8 4 -7 9 2 16
11 7 11 11 2 15 -7 2 -13 13 -13 24 0 11 -7 19 -16 19 -11 0 -14 -6 -9 -21 5
-15 2 -22 -12 -25 -14 -4 -20 -14 -20 -35 0 -21 4 -28 14 -25 8 3 13 -2 13
-13 0 -10 -9 -21 -20 -24 -19 -5 -38 -52 -26 -64 4 -4 18 5 32 20 14 15 34 27
44 27 23 0 27 -18 5 -26 -8 -4 -15 -11 -15 -16 0 -6 7 -8 14 -5 9 4 13 1 10
-7 -3 -8 7 -12 31 -13 34 -1 46 9 25 22 -5 3 -7 19 -4 34 5 23 2 30 -12 34
-12 2 -3 7 23 12 23 4 44 14 47 21 8 21 26 17 26 -6 0 -16 -7 -20 -35 -20 -19
0 -35 -4 -35 -10 0 -5 14 -10 31 -10 31 0 69 30 69 54 0 6 5 5 12 -2 16 -16
28 -15 28 2 0 7 -10 21 -22 29 -19 13 -20 16 -5 16 21 1 23 21 2 21 -8 0 -15
9 -15 20 0 11 -4 20 -10 20 -5 0 -10 -9 -10 -20 0 -11 -7 -23 -16 -27 -8 -3
-13 -12 -10 -20 3 -8 -2 -17 -12 -20 -9 -4 -20 -11 -24 -17 -4 -6 -10 -8 -13
-4 -3 3 2 13 11 23 15 14 15 18 3 26 -10 6 -10 9 -1 9 6 0 12 5 12 11 0 6 -8
8 -19 4 -14 -4 -18 -1 -17 11 2 28 -21 27 -28 -2z m18 -79 c-4 -8 -8 -15 -10
-15 -2 0 -4 7 -4 15 0 8 4 15 10 15 5 0 7 -7 4 -15z"/>
<path d="M666 5804 c-5 -18 -3 -30 6 -35 10 -7 10 -9 1 -9 -7 0 -13 -4 -13
-10 0 -5 7 -10 15 -10 9 0 12 -6 9 -15 -4 -8 -1 -15 5 -15 6 0 11 4 11 9 0 5
7 17 17 26 14 14 14 18 2 26 -10 6 -10 9 -1 9 6 0 12 5 12 11 0 6 -8 8 -19 4
-14 -4 -18 -1 -17 11 2 28 -21 27 -28 -2z"/>
<path d="M350 5690 c0 -5 5 -10 10 -10 6 0 10 -7 10 -15 0 -17 35 -21 45 -5 4
6 1 17 -5 25 -14 17 -60 20 -60 5z"/>
<path d="M216 5354 c-5 -18 -3 -30 6 -35 9 -6 10 -9 1 -9 -7 0 -18 -18 -24
-40 -13 -44 -39 -54 -39 -15 0 18 4 23 15 19 17 -7 21 11 4 22 -8 4 -7 9 2 16
11 7 11 11 2 15 -7 2 -13 13 -13 24 0 11 -7 19 -16 19 -11 0 -14 -6 -9 -21 5
-15 2 -22 -12 -25 -14 -4 -20 -14 -20 -35 0 -21 4 -28 14 -25 8 3 13 -2 13
-13 0 -10 -9 -21 -20 -24 -19 -5 -38 -52 -26 -64 4 -4 18 5 32 20 14 15 34 27
44 27 23 0 27 -18 5 -26 -8 -4 -15 -11 -15 -16 0 -6 7 -8 14 -5 9 4 13 1 10
-7 -3 -8 7 -12 30 -13 32 -1 34 1 31 26 -1 14 -3 34 -4 43 0 9 -9 18 -18 21
-10 2 0 7 24 12 23 4 44 14 47 21 8 21 26 17 26 -6 0 -16 -7 -20 -35 -20 -19
0 -35 -4 -35 -10 0 -5 14 -10 31 -10 31 0 69 30 69 54 0 6 5 5 12 -2 16 -16
28 -15 28 2 0 7 -10 21 -22 29 -19 13 -20 16 -5 16 21 1 23 21 2 21 -8 0 -15
9 -15 20 0 11 -4 20 -10 20 -5 0 -10 -9 -10 -20 0 -11 -7 -23 -16 -27 -8 -3
-13 -12 -10 -20 3 -8 -2 -17 -12 -20 -9 -4 -20 -11 -24 -17 -4 -6 -10 -8 -13
-4 -3 3 2 13 11 23 15 14 15 18 3 26 -10 6 -10 9 -1 9 6 0 12 5 12 11 0 6 -8
8 -19 4 -14 -4 -18 -1 -17 11 2 28 -21 27 -28 -2z m18 -79 c-4 -8 -8 -15 -10
-15 -2 0 -4 7 -4 15 0 8 4 15 10 15 5 0 7 -7 4 -15z"/>
<path d="M666 5354 c-5 -18 -3 -30 6 -35 9 -6 9 -9 1 -9 -11 0 -39 -67 -31
-75 6 -6 88 19 88 26 0 4 -8 9 -17 11 -15 3 -15 5 2 21 15 16 16 20 4 28 -10
6 -10 9 -1 9 6 0 12 5 12 11 0 6 -8 8 -19 4 -14 -4 -18 -1 -17 11 2 28 -21 27
-28 -2z m18 -79 c-4 -8 -8 -15 -10 -15 -2 0 -4 7 -4 15 0 8 4 15 10 15 5 0 7
-7 4 -15z"/>
<path d="M350 5240 c0 -5 5 -10 10 -10 6 0 10 -7 10 -15 0 -17 35 -21 45 -5 4
6 1 17 -5 25 -14 17 -60 20 -60 5z"/>
<path d="M216 4904 c-5 -18 -3 -30 6 -35 9 -6 10 -9 1 -9 -7 0 -18 -18 -24
-40 -13 -44 -39 -54 -39 -15 0 18 4 23 15 19 17 -7 21 11 4 22 -8 4 -7 9 2 16
11 7 11 11 2 15 -7 2 -13 13 -13 24 0 11 -7 19 -16 19 -11 0 -14 -6 -9 -21 5
-15 2 -22 -12 -25 -14 -4 -20 -14 -20 -35 0 -21 4 -28 14 -25 8 3 13 -2 13
-13 0 -10 -9 -21 -20 -24 -19 -5 -38 -52 -26 -64 4 -4 18 5 32 20 14 15 34 27
44 27 23 0 27 -18 5 -26 -8 -4 -15 -11 -15 -16 0 -6 7 -8 14 -5 10 4 13 1 10
-7 -6 -16 17 -26 44 -19 15 4 20 12 17 31 -1 15 -3 35 -4 44 0 9 -9 18 -18 21
-10 2 0 7 24 12 23 4 44 14 47 21 8 21 26 17 26 -6 0 -16 -7 -20 -35 -20 -19
0 -35 -4 -35 -10 0 -5 14 -10 31 -10 31 0 69 30 69 54 0 6 5 5 12 -2 16 -16
28 -15 28 2 0 7 -10 21 -22 29 -19 13 -20 16 -5 16 21 1 23 21 2 21 -8 0 -15
9 -15 20 0 11 -4 20 -10 20 -5 0 -10 -9 -10 -20 0 -11 -7 -23 -16 -27 -8 -3
-13 -12 -10 -20 3 -8 -2 -17 -12 -20 -9 -4 -20 -11 -24 -17 -4 -6 -10 -8 -13
-4 -3 3 2 13 11 23 15 14 15 18 3 26 -10 6 -10 9 -1 9 6 0 12 5 12 11 0 6 -8
8 -19 4 -14 -4 -18 -1 -17 11 2 28 -21 27 -28 -2z m18 -79 c-4 -8 -8 -15 -10
-15 -2 0 -4 7 -4 15 0 8 4 15 10 15 5 0 7 -7 4 -15z"/>
<path d="M666 4904 c-5 -18 -3 -30 6 -35 9 -6 9 -9 1 -9 -11 0 -39 -67 -31
-75 1 -1 24 2 51 8 34 9 47 16 47 29 0 21 -16 24 -23 6 -2 -7 -7 -10 -11 -7
-4 4 1 14 10 24 15 14 15 18 3 26 -10 6 -10 9 -1 9 6 0 12 5 12 11 0 6 -8 8
-19 4 -14 -4 -18 -1 -17 11 2 28 -21 27 -28 -2z m18 -79 c-4 -8 -8 -15 -10
-15 -2 0 -4 7 -4 15 0 8 4 15 10 15 5 0 7 -7 4 -15z"/>
<path d="M350 4790 c0 -5 5 -10 10 -10 6 0 10 -7 10 -15 0 -17 35 -21 45 -5 4
6 1 17 -5 25 -14 17 -60 20 -60 5z"/>
<path d="M216 4454 c-5 -18 -3 -30 6 -35 9 -6 10 -9 1 -9 -7 0 -18 -18 -24
-40 -13 -44 -39 -54 -39 -15 0 18 4 23 15 19 17 -7 21 11 4 22 -8 4 -7 9 2 16
11 7 11 11 2 15 -7 2 -13 13 -13 24 0 11 -7 19 -16 19 -11 0 -14 -6 -9 -21 5
-15 2 -22 -12 -25 -14 -4 -20 -14 -20 -35 0 -21 4 -28 14 -25 8 3 13 -2 13
-13 0 -10 -9 -21 -20 -24 -19 -5 -38 -52 -26 -64 4 -4 18 5 32 20 14 15 34 27
45 27 27 0 19 -24 -8 -28 -15 -2 -23 -13 -28 -39 -3 -19 -4 -37 -2 -39 2 -3
30 -2 61 2 55 7 72 18 39 27 -16 4 -16 5 -1 6 12 1 16 8 14 29 -2 15 -4 35 -5
44 0 9 -9 18 -18 21 -10 2 0 7 24 12 23 4 44 14 47 21 8 21 26 17 26 -6 0 -16
-7 -20 -35 -20 -19 0 -35 -4 -35 -10 0 -5 14 -10 31 -10 31 0 69 30 69 54 0 6
5 5 12 -2 16 -16 28 -15 28 2 0 7 -10 21 -22 29 -19 13 -20 16 -5 16 21 1 23
21 2 21 -8 0 -15 9 -15 20 0 11 -4 20 -10 20 -5 0 -10 -9 -10 -20 0 -11 -7
-23 -16 -27 -8 -3 -13 -12 -10 -20 3 -8 -2 -17 -12 -20 -9 -4 -20 -11 -24 -17
-4 -6 -10 -8 -13 -4 -3 3 2 13 11 23 15 14 15 18 3 26 -10 6 -10 9 -1 9 6 0
12 5 12 11 0 6 -8 8 -19 4 -14 -4 -18 -1 -17 11 2 28 -21 27 -28 -2z m18 -79
c-4 -8 -8 -15 -10 -15 -2 0 -4 7 -4 15 0 8 4 15 10 15 5 0 7 -7 4 -15z m-50
-120 c-4 -9 0 -15 7 -15 11 0 11 -3 -1 -10 -22 -14 -30 -12 -30 9 0 16 6 22
27 30 1 1 0 -6 -3 -14z"/>
<path d="M666 4454 c-5 -18 -3 -30 6 -35 9 -6 9 -9 1 -9 -11 0 -39 -67 -31
-75 1 -1 24 2 51 8 34 9 47 16 47 29 0 21 -16 24 -23 6 -2 -7 -7 -10 -11 -7
-4 4 1 14 10 24 15 14 15 18 3 26 -10 6 -10 9 -1 9 6 0 12 5 12 11 0 6 -8 8
-19 4 -14 -4 -18 -1 -17 11 2 28 -21 27 -28 -2z m18 -79 c-4 -8 -8 -15 -10
-15 -2 0 -4 7 -4 15 0 8 4 15 10 15 5 0 7 -7 4 -15z"/>
<path d="M578 4423 c-32 -8 -20 -26 13 -19 17 3 35 6 40 6 5 0 9 5 9 10 0 10
-30 12 -62 3z"/>
<path d="M350 4340 c0 -5 5 -10 10 -10 6 0 10 -7 10 -15 0 -17 35 -21 45 -5 4
6 1 17 -5 25 -14 17 -60 20 -60 5z"/>
<path d="M216 4004 c-5 -18 -3 -30 6 -35 9 -6 10 -9 1 -9 -7 0 -18 -18 -24
-40 -13 -44 -39 -54 -39 -15 0 18 4 23 15 19 17 -7 21 11 4 22 -8 4 -7 9 2 16
11 7 11 11 2 15 -7 2 -13 13 -13 24 0 11 -7 19 -16 19 -11 0 -14 -6 -9 -21 5
-15 2 -22 -12 -25 -14 -4 -20 -14 -20 -35 0 -21 4 -28 14 -25 8 3 13 -2 13
-13 0 -10 -9 -21 -20 -24 -19 -5 -38 -52 -26 -64 4 -4 18 5 32 20 14 15 34 27
45 27 27 0 19 -24 -8 -28 -18 -3 -33 -35 -33 -74 0 -7 128 -1 137 7 2 1 6 15
9 32 5 26 2 32 -15 38 -12 3 -21 15 -21 25 0 10 -8 20 -17 23 -10 2 0 7 24 12
23 4 44 14 47 21 8 21 26 17 26 -6 0 -16 -7 -20 -35 -20 -19 0 -35 -4 -35 -10
0 -5 14 -10 31 -10 31 0 69 30 69 54 0 6 5 5 12 -2 16 -16 28 -15 28 2 0 7
-10 21 -22 29 -19 13 -20 16 -5 16 21 1 23 21 2 21 -8 0 -15 9 -15 20 0 11 -4
20 -10 20 -5 0 -10 -9 -10 -20 0 -11 -7 -23 -16 -27 -8 -3 -13 -12 -10 -20 3
-8 -2 -17 -12 -20 -9 -4 -20 -11 -24 -17 -4 -6 -10 -8 -13 -4 -3 3 2 13 11 23
15 14 15 18 3 26 -10 6 -10 9 -1 9 6 0 12 5 12 11 0 6 -8 8 -19 4 -14 -4 -18
-1 -17 11 2 28 -21 27 -28 -2z m18 -79 c-4 -8 -8 -15 -10 -15 -2 0 -4 7 -4 15
0 8 4 15 10 15 5 0 7 -7 4 -15z m-50 -120 c-4 -9 0 -15 7 -15 11 0 11 -3 -1
-10 -22 -14 -30 -12 -30 9 0 16 6 22 27 30 1 1 0 -6 -3 -14z m63 -21 c-3 -3
-12 -4 -19 -1 -8 3 -5 6 6 6 11 1 17 -2 13 -5z"/>
<path d="M666 4004 c-5 -18 -3 -30 6 -35 9 -6 9 -9 1 -9 -11 0 -39 -67 -31
-75 1 -1 24 2 51 8 34 9 47 16 47 29 0 21 -16 24 -23 6 -2 -7 -7 -10 -11 -7
-4 4 1 14 10 24 15 14 15 18 3 26 -10 6 -10 9 -1 9 6 0 12 5 12 11 0 6 -8 8
-19 4 -14 -4 -18 -1 -17 11 2 28 -21 27 -28 -2z m18 -79 c-4 -8 -8 -15 -10
-15 -2 0 -4 7 -4 15 0 8 4 15 10 15 5 0 7 -7 4 -15z"/>
<path d="M595 3999 c5 -15 2 -22 -14 -26 -24 -6 -28 -23 -6 -23 10 0 15 -11
15 -35 0 -19 5 -35 10 -35 6 0 10 13 10 29 0 16 8 37 17 47 13 13 14 19 5 22
-6 2 -12 12 -12 23 0 11 -7 19 -16 19 -11 0 -14 -6 -9 -21z"/>
<path d="M350 3890 c0 -5 5 -10 10 -10 6 0 10 -7 10 -15 0 -17 35 -21 45 -5 4
6 1 17 -5 25 -14 17 -60 20 -60 5z"/>
<path d="M216 3554 c-5 -18 -3 -30 6 -35 9 -6 10 -9 1 -9 -7 0 -18 -18 -24
-40 -13 -44 -39 -54 -39 -15 0 18 4 23 15 19 17 -7 21 11 4 22 -8 4 -7 9 2 16
11 7 11 11 2 15 -7 2 -13 13 -13 24 0 11 -7 19 -16 19 -11 0 -14 -6 -9 -21 5
-15 2 -22 -12 -25 -14 -4 -20 -14 -20 -35 0 -21 4 -28 14 -25 8 3 13 -2 13
-13 0 -10 -9 -21 -20 -24 -19 -5 -38 -52 -26 -64 4 -4 18 5 32 20 14 15 34 27
45 27 27 0 19 -24 -8 -28 -18 -3 -33 -35 -33 -74 0 -7 128 -1 137 7 2 1 6 15
9 32 5 26 2 32 -15 38 -12 3 -21 15 -21 25 0 10 -8 20 -17 23 -10 2 0 7 24 12
23 4 44 14 47 21 8 21 26 17 26 -6 0 -16 -7 -20 -35 -20 -19 0 -35 -4 -35 -10
0 -5 14 -10 31 -10 31 0 69 30 69 54 0 6 5 5 12 -2 16 -16 28 -15 28 2 0 7
-10 21 -22 29 -19 13 -20 16 -5 16 21 1 23 21 2 21 -8 0 -15 9 -15 20 0 11 -4
20 -10 20 -5 0 -10 -9 -10 -20 0 -11 -7 -23 -16 -27 -8 -3 -13 -12 -10 -20 3
-8 -2 -17 -12 -20 -9 -4 -20 -11 -24 -17 -4 -6 -10 -8 -13 -4 -3 3 2 13 11 23
15 14 15 18 3 26 -10 6 -10 9 -1 9 6 0 12 5 12 11 0 6 -8 8 -19 4 -14 -4 -18
-1 -17 11 2 28 -21 27 -28 -2z m18 -79 c-4 -8 -8 -15 -10 -15 -2 0 -4 7 -4 15
0 8 4 15 10 15 5 0 7 -7 4 -15z m-50 -120 c-4 -9 0 -15 7 -15 11 0 11 -3 -1
-10 -22 -14 -30 -12 -30 9 0 16 6 22 27 30 1 1 0 -6 -3 -14z m63 -21 c-3 -3
-12 -4 -19 -1 -8 3 -5 6 6 6 11 1 17 -2 13 -5z"/>
<path d="M666 3554 c-5 -18 -3 -30 6 -35 9 -6 9 -9 1 -9 -11 0 -39 -67 -31
-75 1 -1 24 2 51 8 34 9 47 16 47 29 0 21 -16 24 -23 6 -2 -7 -7 -10 -11 -7
-4 4 1 14 10 24 15 14 15 18 3 26 -10 6 -10 9 -1 9 6 0 12 5 12 11 0 6 -8 8
-19 4 -14 -4 -18 -1 -17 11 2 28 -21 27 -28 -2z m18 -79 c-4 -8 -8 -15 -10
-15 -2 0 -4 7 -4 15 0 8 4 15 10 15 5 0 7 -7 4 -15z"/>
<path d="M595 3549 c5 -15 2 -22 -12 -25 -14 -4 -20 -14 -20 -35 0 -21 4 -28
14 -25 8 3 13 -2 13 -14 0 -11 5 -20 10 -20 6 0 10 13 10 29 0 16 8 37 17 47
13 13 14 19 5 22 -6 2 -12 12 -12 23 0 11 -7 19 -16 19 -11 0 -14 -6 -9 -21z"/>
<path d="M350 3440 c0 -5 5 -10 10 -10 6 0 10 -7 10 -15 0 -17 35 -21 45 -5 4
6 1 17 -5 25 -14 17 -60 20 -60 5z"/>
<path d="M188 3293 c-16 -2 -28 -9 -28 -14 0 -15 63 -6 68 9 2 6 0 11 -5 11
-4 -1 -20 -4 -35 -6z"/>
<path d="M216 3104 c-5 -18 -3 -30 6 -35 9 -6 10 -9 1 -9 -7 0 -18 -18 -24
-40 -13 -44 -39 -54 -39 -15 0 18 4 23 15 19 17 -7 21 11 4 22 -8 4 -7 9 2 16
11 7 11 11 2 15 -7 2 -13 13 -13 24 0 11 -7 19 -16 19 -11 0 -14 -6 -9 -21 5
-15 2 -22 -12 -25 -14 -4 -20 -14 -20 -35 0 -21 4 -28 14 -25 8 3 13 -2 13
-13 0 -10 -9 -21 -20 -24 -19 -5 -38 -52 -26 -64 4 -4 18 5 32 20 14 15 34 27
45 27 27 0 19 -24 -8 -28 -24 -4 -42 -67 -24 -85 6 -6 11 -28 11 -49 0 -43 5
-45 55 -21 32 15 51 41 23 30 -47 -17 -58 -18 -58 -3 0 8 11 16 27 18 14 2 28
9 31 15 2 9 -5 11 -29 6 -23 -4 -30 -3 -25 5 4 7 27 12 50 12 37 0 45 4 50 23
10 36 7 45 -14 52 -11 3 -20 15 -20 25 0 10 -8 20 -17 23 -10 2 0 7 24 12 23
4 44 14 47 21 8 21 26 17 26 -6 0 -16 -7 -20 -35 -20 -19 0 -35 -4 -35 -10 0
-5 14 -10 31 -10 31 0 69 30 69 54 0 6 5 5 12 -2 16 -16 28 -15 28 2 0 7 -10
21 -22 29 -19 13 -20 16 -5 16 21 1 23 21 2 21 -8 0 -15 9 -15 20 0 11 -4 20
-10 20 -5 0 -10 -9 -10 -20 0 -11 -7 -23 -16 -27 -8 -3 -13 -12 -10 -20 3 -8
-2 -17 -12 -20 -9 -4 -20 -11 -24 -17 -4 -6 -10 -8 -13 -4 -3 3 2 13 11 23 15
14 15 18 3 26 -10 6 -10 9 -1 9 6 0 12 5 12 11 0 6 -8 8 -19 4 -14 -4 -18 -1
-17 11 2 28 -21 27 -28 -2z m18 -79 c-4 -8 -8 -15 -10 -15 -2 0 -4 7 -4 15 0
8 4 15 10 15 5 0 7 -7 4 -15z m-50 -120 c-4 -9 0 -15 7 -15 11 0 11 -3 -1 -10
-22 -14 -30 -12 -30 9 0 16 6 22 27 30 1 1 0 -6 -3 -14z m63 -21 c-3 -3 -12
-4 -19 -1 -8 3 -5 6 6 6 11 1 17 -2 13 -5z"/>
<path d="M666 3104 c-5 -18 -3 -30 6 -35 9 -6 9 -9 1 -9 -11 0 -39 -67 -31
-75 1 -1 24 2 51 8 34 9 47 16 47 29 0 21 -16 24 -23 6 -2 -7 -7 -10 -11 -7
-4 4 1 14 10 24 15 14 15 18 3 26 -10 6 -10 9 -1 9 6 0 12 5 12 11 0 6 -8 8
-19 4 -14 -4 -18 -1 -17 11 2 28 -21 27 -28 -2z m18 -79 c-4 -8 -8 -15 -10
-15 -2 0 -4 7 -4 15 0 8 4 15 10 15 5 0 7 -7 4 -15z"/>
<path d="M595 3099 c5 -15 2 -22 -12 -25 -14 -4 -20 -14 -20 -35 0 -21 4 -28
14 -25 8 3 13 -2 13 -14 0 -11 5 -20 10 -20 6 0 10 11 10 25 0 18 4 23 15 19
17 -7 21 11 4 22 -8 4 -7 9 2 16 11 7 11 11 2 15 -7 2 -13 13 -13 24 0 11 -7
19 -16 19 -11 0 -14 -6 -9 -21z"/>
<path d="M350 2990 c0 -5 5 -10 10 -10 6 0 10 -7 10 -15 0 -17 35 -21 45 -5 4
6 1 17 -5 25 -14 17 -60 20 -60 5z"/>
<path d="M216 2654 c-5 -18 -3 -30 6 -35 9 -6 10 -9 1 -9 -7 0 -18 -18 -24
-40 -13 -44 -39 -54 -39 -15 0 18 4 23 15 19 17 -7 21 11 4 22 -8 4 -7 9 2 16
11 7 11 11 2 15 -7 2 -13 13 -13 24 0 11 -7 19 -16 19 -11 0 -14 -6 -9 -21 5
-15 2 -22 -12 -25 -14 -4 -20 -14 -20 -35 0 -21 4 -28 14 -25 8 3 13 -2 13
-13 0 -10 -9 -21 -20 -24 -19 -5 -38 -52 -26 -64 4 -4 18 5 32 20 14 15 34 27
45 27 27 0 19 -24 -8 -28 -24 -4 -42 -67 -24 -85 6 -6 11 -28 11 -49 0 -43 5
-45 55 -21 32 15 51 41 23 30 -47 -17 -58 -18 -58 -3 0 8 11 16 27 18 14 2 28
9 31 15 2 9 -5 11 -29 6 -23 -4 -30 -3 -25 5 4 7 27 12 52 12 32 0 44 4 44 15
0 8 6 15 14 15 20 0 66 39 66 56 0 22 -20 17 -42 -11 -17 -22 -21 -23 -34 -10
-9 8 -20 15 -25 15 -5 0 -9 9 -9 19 0 11 -8 21 -17 24 -10 2 0 7 24 12 23 4
44 14 47 21 8 21 26 17 26 -6 0 -16 -7 -20 -35 -20 -19 0 -35 -4 -35 -10 0 -5
14 -10 31 -10 31 0 69 30 69 54 0 6 5 5 12 -2 16 -16 28 -15 28 2 0 7 -10 21
-22 29 -19 13 -20 16 -5 16 21 1 23 21 2 21 -8 0 -15 9 -15 20 0 11 -4 20 -10
20 -5 0 -10 -9 -10 -20 0 -11 -7 -23 -16 -27 -8 -3 -13 -12 -10 -20 3 -8 -2
-17 -12 -20 -9 -4 -20 -11 -24 -17 -4 -6 -10 -8 -13 -4 -3 3 2 13 11 23 15 14
15 18 3 26 -10 6 -10 9 -1 9 6 0 12 5 12 11 0 6 -8 8 -19 4 -14 -4 -18 -1 -17
11 2 28 -21 27 -28 -2z m18 -79 c-4 -8 -8 -15 -10 -15 -2 0 -4 7 -4 15 0 8 4
15 10 15 5 0 7 -7 4 -15z m-50 -120 c-4 -9 0 -15 7 -15 11 0 11 -3 -1 -10 -22
-14 -30 -12 -30 9 0 16 6 22 27 30 1 1 0 -6 -3 -14z m63 -21 c-3 -3 -12 -4
-19 -1 -8 3 -5 6 6 6 11 1 17 -2 13 -5z"/>
<path d="M666 2654 c-5 -18 -3 -30 6 -35 9 -6 9 -9 1 -9 -11 0 -39 -67 -31
-75 1 -1 24 2 51 8 34 9 47 16 47 29 0 21 -16 24 -23 6 -2 -7 -7 -10 -11 -7
-4 4 1 14 10 24 15 14 15 18 3 26 -10 6 -10 9 -1 9 6 0 12 5 12 11 0 6 -8 8
-19 4 -14 -4 -18 -1 -17 11 2 28 -21 27 -28 -2z m18 -79 c-4 -8 -8 -15 -10
-15 -2 0 -4 7 -4 15 0 8 4 15 10 15 5 0 7 -7 4 -15z"/>
<path d="M595 2649 c5 -15 2 -22 -12 -25 -14 -4 -20 -14 -20 -35 0 -21 4 -28
14 -25 8 3 13 -2 13 -14 0 -11 5 -20 10 -20 6 0 10 11 10 25 0 18 4 23 15 19
17 -7 21 11 4 22 -8 4 -7 9 2 16 11 7 11 11 2 15 -7 2 -13 13 -13 24 0 11 -7
19 -16 19 -11 0 -14 -6 -9 -21z"/>
<path d="M760 2630 c-8 -5 -12 -11 -10 -13 9 -8 80 5 80 14 0 12 -51 11 -70
-1z"/>
<path d="M350 2540 c0 -5 5 -10 10 -10 6 0 10 -7 10 -15 0 -17 35 -21 45 -5 4
6 1 17 -5 25 -14 17 -60 20 -60 5z"/>
<path d="M216 2204 c-5 -18 -3 -30 6 -35 9 -6 10 -9 1 -9 -7 0 -18 -18 -24
-40 -13 -44 -39 -54 -39 -15 0 18 4 23 15 19 17 -7 21 11 4 22 -8 4 -7 9 2 16
11 7 11 11 2 15 -7 2 -13 13 -13 24 0 11 -7 19 -16 19 -11 0 -14 -6 -9 -21 5
-15 2 -22 -12 -25 -14 -4 -20 -14 -20 -35 0 -21 4 -28 14 -25 8 3 13 -2 13
-13 0 -10 -9 -21 -20 -24 -19 -5 -38 -52 -26 -64 4 -4 18 5 32 20 14 15 34 27
45 27 27 0 19 -24 -8 -28 -24 -4 -42 -67 -24 -85 6 -6 11 -28 11 -49 0 -43 5
-45 55 -21 32 15 51 41 23 30 -47 -17 -58 -18 -58 -3 0 8 11 16 27 18 14 2 28
9 31 15 2 9 -5 11 -29 6 -23 -4 -30 -3 -25 5 4 7 27 12 52 12 32 0 44 4 44 15
0 8 6 15 14 15 20 0 66 39 66 56 0 22 -20 17 -42 -11 -17 -22 -21 -23 -34 -10
-9 8 -20 15 -25 15 -5 0 -9 9 -9 19 0 11 -8 21 -17 24 -10 2 0 7 24 12 23 4
44 14 47 21 8 21 26 17 26 -6 0 -16 -7 -20 -35 -20 -19 0 -35 -4 -35 -10 0 -5
14 -10 31 -10 31 0 69 30 69 54 0 6 5 5 12 -2 16 -16 28 -15 28 2 0 7 -10 21
-22 29 -19 13 -20 16 -5 16 21 1 23 21 2 21 -8 0 -15 9 -15 20 0 11 -4 20 -10
20 -5 0 -10 -9 -10 -20 0 -11 -7 -23 -16 -27 -8 -3 -13 -12 -10 -20 3 -8 -2
-17 -12 -20 -9 -4 -20 -11 -24 -17 -4 -6 -10 -8 -13 -4 -3 3 2 13 11 23 15 14
15 18 3 26 -10 6 -10 9 -1 9 6 0 12 5 12 11 0 6 -8 8 -19 4 -14 -4 -18 -1 -17
11 2 28 -21 27 -28 -2z m18 -79 c-4 -8 -8 -15 -10 -15 -2 0 -4 7 -4 15 0 8 4
15 10 15 5 0 7 -7 4 -15z m-50 -120 c-4 -9 0 -15 7 -15 11 0 11 -3 -1 -10 -22
-14 -30 -12 -30 9 0 16 6 22 27 30 1 1 0 -6 -3 -14z m63 -21 c-3 -3 -12 -4
-19 -1 -8 3 -5 6 6 6 11 1 17 -2 13 -5z"/>
<path d="M666 2204 c-5 -18 -3 -30 6 -35 9 -6 9 -9 1 -9 -11 0 -39 -67 -31
-75 1 -1 24 2 51 8 34 9 47 16 47 29 0 21 -16 24 -23 6 -2 -7 -7 -10 -11 -7
-4 4 1 14 10 24 15 14 15 18 3 26 -10 6 -10 9 -1 9 6 0 12 5 12 11 0 6 -8 8
-19 4 -14 -4 -18 -1 -17 11 2 28 -21 27 -28 -2z m18 -79 c-4 -8 -8 -15 -10
-15 -2 0 -4 7 -4 15 0 8 4 15 10 15 5 0 7 -7 4 -15z"/>
<path d="M780 2210 c0 -11 -7 -23 -15 -26 -19 -8 -20 -24 -1 -24 11 0 13 -9 9
-35 -3 -21 -1 -35 5 -35 12 0 22 24 22 56 0 15 6 24 15 24 8 0 15 5 15 10 0 6
-7 10 -15 10 -8 0 -15 9 -15 20 0 11 -4 20 -10 20 -5 0 -10 -9 -10 -20z"/>
<path d="M595 2199 c5 -15 2 -22 -12 -25 -14 -4 -20 -14 -20 -35 0 -21 4 -28
14 -25 8 3 13 -2 13 -14 0 -11 5 -20 10 -20 6 0 10 11 10 25 0 18 4 23 15 19
17 -7 21 11 4 22 -8 4 -7 9 2 16 11 7 11 11 2 15 -7 2 -13 13 -13 24 0 11 -7
19 -16 19 -11 0 -14 -6 -9 -21z"/>
<path d="M350 2090 c0 -5 5 -10 10 -10 6 0 10 -7 10 -15 0 -17 35 -21 45 -5 4
6 1 17 -5 25 -14 17 -60 20 -60 5z"/>
<path d="M311 1979 c-13 -17 -20 -33 -17 -36 9 -9 60 31 64 51 5 26 -21 18
-47 -15z"/>
<path d="M216 1754 c-5 -18 -3 -30 6 -35 9 -6 10 -9 1 -9 -7 0 -18 -18 -24
-40 -13 -44 -39 -54 -39 -15 0 18 4 23 15 19 17 -7 21 11 4 22 -8 4 -7 9 2 16
11 7 11 11 2 15 -7 2 -13 13 -13 24 0 11 -7 19 -16 19 -11 0 -14 -6 -9 -21 5
-15 2 -22 -12 -25 -14 -4 -20 -14 -20 -35 0 -21 4 -28 14 -25 8 3 13 -2 13
-13 0 -10 -9 -21 -20 -24 -19 -5 -38 -52 -26 -64 4 -4 18 5 32 20 14 15 34 27
45 27 27 0 19 -24 -8 -28 -24 -4 -42 -67 -24 -85 6 -6 11 -28 11 -49 0 -43 5
-45 55 -21 32 15 51 41 23 30 -47 -17 -58 -18 -58 -3 0 8 11 16 27 18 14 2 28
9 31 15 2 9 -5 11 -29 6 -23 -4 -30 -3 -25 5 4 7 27 12 52 12 32 0 44 4 44 15
0 8 6 15 14 15 20 0 66 39 66 56 0 22 -20 17 -42 -11 -17 -22 -21 -23 -34 -10
-9 8 -20 15 -25 15 -5 0 -9 9 -9 19 0 11 -8 21 -17 24 -10 2 0 7 24 12 23 4
44 14 47 21 8 21 26 17 26 -6 0 -16 -7 -20 -35 -20 -19 0 -35 -4 -35 -10 0 -5
14 -10 31 -10 31 0 69 30 69 54 0 6 5 5 12 -2 16 -16 28 -15 28 2 0 7 -10 21
-22 29 -19 13 -20 16 -5 16 21 1 23 21 2 21 -8 0 -15 9 -15 20 0 11 -4 20 -10
20 -5 0 -10 -9 -10 -20 0 -11 -7 -23 -16 -27 -8 -3 -13 -12 -10 -20 3 -8 -2
-17 -12 -20 -9 -4 -20 -11 -24 -17 -4 -6 -10 -8 -13 -4 -3 3 2 13 11 23 15 14
15 18 3 26 -10 6 -10 9 -1 9 6 0 12 5 12 11 0 6 -8 8 -19 4 -14 -4 -18 -1 -17
11 2 28 -21 27 -28 -2z m18 -79 c-4 -8 -8 -15 -10 -15 -2 0 -4 7 -4 15 0 8 4
15 10 15 5 0 7 -7 4 -15z m-50 -120 c-4 -9 0 -15 7 -15 11 0 11 -3 -1 -10 -22
-14 -30 -12 -30 9 0 16 6 22 27 30 1 1 0 -6 -3 -14z m63 -21 c-3 -3 -12 -4
-19 -1 -8 3 -5 6 6 6 11 1 17 -2 13 -5z"/>
<path d="M666 1754 c-5 -18 -3 -30 6 -35 9 -6 9 -9 1 -9 -11 0 -39 -67 -31
-75 7 -7 93 20 101 32 12 20 27 15 27 -7 0 -11 4 -20 9 -20 11 0 21 25 21 56
0 15 6 24 15 24 8 0 15 5 15 10 0 6 -7 10 -15 10 -8 0 -15 9 -15 20 0 11 -4
20 -10 20 -5 0 -10 -9 -10 -20 0 -11 -7 -23 -16 -27 -8 -3 -13 -12 -10 -20 3
-8 -2 -17 -12 -20 -9 -4 -20 -11 -24 -17 -4 -6 -10 -8 -13 -4 -3 3 2 13 11 23
15 14 15 18 3 26 -10 6 -10 9 -1 9 6 0 12 5 12 11 0 6 -8 8 -19 4 -14 -4 -18
-1 -17 11 2 28 -21 27 -28 -2z m18 -79 c-4 -8 -8 -15 -10 -15 -2 0 -4 7 -4 15
0 8 4 15 10 15 5 0 7 -7 4 -15z"/>
<path d="M595 1749 c5 -15 2 -22 -12 -25 -14 -4 -20 -14 -20 -35 0 -21 4 -28
14 -25 8 3 13 -2 13 -14 0 -11 5 -20 10 -20 6 0 10 11 10 25 0 18 4 23 15 19
17 -7 21 11 4 22 -8 4 -7 9 2 16 11 7 11 11 2 15 -7 2 -13 13 -13 24 0 11 -7
19 -16 19 -11 0 -14 -6 -9 -21z"/>
<path d="M350 1640 c0 -5 5 -10 10 -10 6 0 10 -7 10 -15 0 -17 35 -21 45 -5 4
6 1 17 -5 25 -14 17 -60 20 -60 5z"/>
<path d="M311 1529 c-13 -17 -20 -33 -17 -36 9 -9 60 31 64 51 5 26 -21 18
-47 -15z"/>
<path d="M302 1459 c-49 -47 -49 -58 0 -34 43 23 68 45 68 62 0 23 -24 14 -68
-28z"/>
<path d="M666 1304 c-5 -18 -3 -30 6 -35 9 -6 9 -9 1 -9 -11 0 -39 -67 -31
-75 7 -7 93 20 101 32 12 20 27 15 27 -7 0 -26 17 -26 25 1 5 15 10 18 18 10
15 -15 27 -14 27 3 0 7 -10 21 -22 29 -19 13 -20 16 -5 16 21 1 23 21 2 21 -8
0 -15 9 -15 20 0 11 -4 20 -10 20 -5 0 -10 -9 -10 -20 0 -11 -7 -23 -16 -27
-8 -3 -13 -12 -10 -20 3 -8 -2 -17 -12 -20 -9 -4 -20 -11 -24 -17 -4 -6 -10
-8 -13 -4 -3 3 2 13 11 23 15 14 15 18 3 26 -10 6 -10 9 -1 9 6 0 12 5 12 11
0 6 -8 8 -19 4 -14 -4 -18 -1 -17 11 2 28 -21 27 -28 -2z m18 -79 c-4 -8 -8
-15 -10 -15 -2 0 -4 7 -4 15 0 8 4 15 10 15 5 0 7 -7 4 -15z"/>
<path d="M595 1299 c5 -15 2 -22 -12 -25 -14 -4 -20 -14 -20 -35 0 -21 4 -28
14 -25 8 3 13 -2 13 -14 0 -11 5 -20 10 -20 6 0 10 11 10 25 0 18 4 23 15 19
17 -7 21 11 4 22 -8 4 -7 9 2 16 11 7 11 11 2 15 -7 2 -13 13 -13 24 0 11 -7
19 -16 19 -11 0 -14 -6 -9 -21z"/>
<path d="M666 854 c-5 -18 -3 -30 6 -35 9 -6 9 -9 1 -9 -11 0 -39 -67 -31 -75
7 -7 93 20 101 32 12 20 27 15 27 -7 0 -26 17 -26 25 1 5 15 10 18 18 10 15
-15 27 -14 27 3 0 7 -10 21 -22 29 -19 13 -20 16 -5 16 21 1 23 21 2 21 -8 0
-15 9 -15 20 0 11 -4 20 -10 20 -5 0 -10 -9 -10 -20 0 -11 -7 -23 -16 -27 -8
-3 -13 -12 -10 -20 3 -8 -2 -17 -12 -20 -9 -4 -20 -11 -24 -17 -4 -6 -10 -8
-13 -4 -3 3 2 13 11 23 15 14 15 18 3 26 -10 6 -10 9 -1 9 6 0 12 5 12 11 0 6
-8 8 -19 4 -14 -4 -18 -1 -17 11 2 28 -21 27 -28 -2z m18 -79 c-4 -8 -8 -15
-10 -15 -2 0 -4 7 -4 15 0 8 4 15 10 15 5 0 7 -7 4 -15z"/>
<path d="M595 849 c5 -15 2 -22 -12 -25 -14 -4 -20 -14 -20 -35 0 -21 4 -28
14 -25 8 3 13 -2 13 -14 0 -11 5 -20 10 -20 6 0 10 11 10 25 0 18 4 23 15 19
17 -7 21 11 4 22 -8 4 -7 9 2 16 11 7 11 11 2 15 -7 2 -13 13 -13 24 0 11 -7
19 -16 19 -11 0 -14 -6 -9 -21z"/>
<path d="M550 711 c-12 -23 -13 -51 -2 -51 15 0 32 24 32 47 0 28 -16 30 -30
4z"/>
<path d="M666 404 c-5 -18 -3 -30 6 -35 9 -6 10 -9 1 -9 -7 0 -18 -18 -24 -40
-13 -44 -39 -54 -39 -15 0 18 4 23 15 19 17 -7 21 11 4 22 -8 4 -7 9 2 16 11
7 11 11 2 15 -7 2 -13 13 -13 24 0 11 -7 19 -16 19 -11 0 -14 -6 -9 -21 5 -15
2 -22 -12 -25 -14 -4 -20 -14 -20 -35 0 -21 4 -28 14 -25 8 3 13 -2 13 -13 0
-10 -9 -21 -20 -24 -19 -5 -38 -52 -26 -64 4 -4 18 5 32 20 18 20 35 27 60 27
28 0 35 3 30 15 -4 11 5 16 34 21 21 4 41 13 44 20 8 21 26 17 26 -6 0 -16 -7
-20 -35 -20 -19 0 -35 -4 -35 -10 0 -5 14 -10 31 -10 31 0 69 30 69 54 0 6 5
5 12 -2 16 -16 28 -15 28 2 0 7 -10 21 -22 29 -19 13 -20 16 -5 16 21 1 23 21
2 21 -8 0 -15 9 -15 20 0 11 -4 20 -10 20 -5 0 -10 -9 -10 -20 0 -11 -7 -23
-16 -27 -8 -3 -13 -12 -10 -20 3 -8 -2 -17 -12 -20 -9 -4 -20 -11 -24 -17 -4
-6 -10 -8 -13 -4 -3 3 2 13 11 23 15 14 15 18 3 26 -10 6 -10 9 -1 9 6 0 12 5
12 11 0 6 -8 8 -19 4 -14 -4 -18 -1 -17 11 2 28 -21 27 -28 -2z m18 -79 c-4
-8 -8 -15 -10 -15 -2 0 -4 7 -4 15 0 8 4 15 10 15 5 0 7 -7 4 -15z"/>
<path d="M800 290 c0 -5 5 -10 10 -10 6 0 10 -7 10 -15 0 -17 35 -21 45 -5 4
6 1 17 -5 25 -14 17 -60 20 -60 5z"/>
</g>
</svg>
