<?xml version="1.0" standalone="no"?>
<!DOCTYPE svg PUBLIC "-//W3C//DTD SVG 20010904//EN"
 "http://www.w3.org/TR/2001/REC-SVG-20010904/DTD/svg10.dtd">
<svg version="1.0" xmlns="http://www.w3.org/2000/svg"
 width="50.000000pt" height="725.000000pt" viewBox="0 0 50.000000 725.000000"
 preserveAspectRatio="xMidYMid meet">
<metadata>
Created by potrace 1.16, written by Peter Selinger 2001-2019
</metadata>
<g transform="translate(0.000000,725.000000) scale(0.100000,-0.100000)"
fill="#000000" stroke="none">
<path d="M155 7123 c-8 -20 -13 -39 -10 -42 7 -7 54 50 55 67 0 27 -31 10 -45
-25z"/>
<path d="M155 6673 c-8 -20 -13 -39 -10 -42 7 -7 54 50 55 67 0 27 -31 10 -45
-25z"/>
<path d="M106 6588 c6 -40 19 -67 27 -57 2 2 2 25 -1 52 -3 32 -9 47 -18 47
-11 0 -13 -10 -8 -42z"/>
<path d="M155 6224 c-8 -20 -24 -38 -35 -41 -17 -5 -20 -11 -14 -42 8 -50 12
-61 22 -61 5 0 7 20 5 44 l-5 44 47 4 47 3 -6 -48 c-9 -66 13 -59 31 8 14 58
6 69 -44 60 -35 -6 -43 5 -18 25 19 16 19 40 0 40 -8 0 -21 -16 -30 -36z"/>
<path d="M155 5774 c-8 -20 -24 -38 -35 -41 -17 -5 -20 -11 -14 -42 8 -52 12
-61 24 -61 7 0 9 8 5 19 -4 15 1 20 26 25 52 10 57 8 51 -20 -9 -49 21 -21 35
31 14 58 6 69 -44 60 -35 -6 -43 5 -18 25 19 16 19 40 0 40 -8 0 -21 -16 -30
-36z m64 -68 c-2 -2 -23 -7 -46 -11 -35 -5 -43 -4 -43 9 0 10 12 16 43 18 36
3 58 -5 46 -16z"/>
<path d="M155 5324 c-8 -20 -24 -38 -35 -41 -17 -5 -20 -11 -14 -42 8 -52 12
-61 24 -61 7 0 9 8 5 20 -5 14 -2 20 9 20 9 0 16 -7 16 -15 0 -22 17 -18 23 5
8 31 35 26 29 -6 -9 -49 21 -21 35 31 14 58 6 69 -44 60 -35 -6 -43 5 -18 25
19 16 19 40 0 40 -8 0 -21 -16 -30 -36z m65 -59 c0 -8 -7 -15 -15 -15 -26 0
-18 20 13 29 1 1 2 -6 2 -14z m-60 -10 c0 -8 -7 -15 -15 -15 -8 0 -15 7 -15
15 0 8 7 15 15 15 8 0 15 -7 15 -15z"/>
<path d="M155 4874 c-8 -20 -24 -38 -36 -41 -15 -4 -19 -11 -15 -27 3 -11 6
-30 6 -41 1 -36 12 -42 69 -36 l55 6 12 50 c15 58 7 69 -43 60 -35 -6 -43 5
-18 25 19 16 19 40 0 40 -8 0 -21 -16 -30 -36z m65 -59 c0 -8 -7 -15 -15 -15
-26 0 -18 20 13 29 1 1 2 -6 2 -14z m-60 -10 c0 -8 -7 -15 -15 -15 -8 0 -15 7
-15 15 0 8 7 15 15 15 8 0 15 -7 15 -15z m54 -40 c-6 -16 -34 -21 -34 -7 0 13
11 22 26 22 8 0 11 -6 8 -15z m-54 -5 c0 -5 -7 -10 -15 -10 -8 0 -15 5 -15 10
0 6 7 10 15 10 8 0 15 -4 15 -10z"/>
<path d="M155 4424 c-8 -20 -24 -38 -35 -41 -17 -5 -20 -11 -14 -42 9 -55 14
-71 24 -71 12 0 -5 -45 -31 -82 -12 -16 -18 -32 -15 -35 11 -11 55 39 73 83
15 35 23 44 47 46 27 3 31 8 42 53 15 58 7 69 -43 60 -35 -6 -43 5 -18 25 19
16 19 40 0 40 -8 0 -21 -16 -30 -36z m65 -59 c0 -8 -7 -15 -15 -15 -26 0 -18
20 13 29 1 1 2 -6 2 -14z m-60 -10 c0 -8 -7 -15 -15 -15 -8 0 -15 7 -15 15 0
8 7 15 15 15 8 0 15 -7 15 -15z m54 -40 c-6 -16 -34 -21 -34 -7 0 13 11 22 26
22 8 0 11 -6 8 -15z m-54 -5 c0 -5 -7 -10 -15 -10 -8 0 -15 5 -15 10 0 6 7 10
15 10 8 0 15 -4 15 -10z"/>
<path d="M155 3974 c-8 -20 -24 -38 -35 -41 -17 -5 -20 -11 -14 -42 9 -55 14
-71 24 -71 12 0 -5 -45 -31 -82 -12 -16 -18 -32 -15 -35 11 -11 49 31 72 82
l24 50 0 -62 c0 -86 16 -96 144 -91 52 1 100 8 105 13 12 12 3 85 -10 85 -5 0
-9 -7 -9 -15 0 -8 -9 -24 -20 -35 -16 -16 -33 -20 -88 -20 -90 0 -107 12 -98
70 4 24 13 48 20 54 7 6 18 31 24 56 13 53 4 63 -45 55 -35 -6 -43 5 -18 25
19 16 19 40 0 40 -8 0 -21 -16 -30 -36z m65 -59 c0 -8 -7 -15 -15 -15 -26 0
-18 20 13 29 1 1 2 -6 2 -14z m-60 -10 c0 -8 -7 -15 -15 -15 -8 0 -15 7 -15
15 0 8 7 15 15 15 8 0 15 -7 15 -15z m54 -40 c-6 -16 -34 -21 -34 -7 0 13 11
22 26 22 8 0 11 -6 8 -15z m-54 -5 c0 -5 -7 -10 -15 -10 -8 0 -15 5 -15 10 0
6 7 10 15 10 8 0 15 -4 15 -10z"/>
<path d="M155 3524 c-8 -20 -24 -38 -35 -41 -17 -5 -20 -11 -14 -42 9 -55 14
-71 24 -71 12 0 -5 -45 -31 -82 -12 -16 -18 -32 -15 -35 11 -11 49 31 72 82
l24 50 0 -62 c0 -86 16 -96 144 -91 52 1 100 8 105 13 12 12 3 85 -10 85 -5 0
-9 -7 -9 -15 0 -8 -9 -24 -20 -35 -16 -16 -33 -20 -88 -20 -90 0 -107 12 -98
70 4 24 13 48 20 54 7 6 18 31 24 56 13 53 4 63 -45 55 -35 -6 -43 5 -18 25
19 16 19 40 0 40 -8 0 -21 -16 -30 -36z m65 -59 c0 -8 -7 -15 -15 -15 -26 0
-18 20 13 29 1 1 2 -6 2 -14z m-60 -10 c0 -8 -7 -15 -15 -15 -8 0 -15 7 -15
15 0 8 7 15 15 15 8 0 15 -7 15 -15z m54 -40 c-6 -16 -34 -21 -34 -7 0 13 11
22 26 22 8 0 11 -6 8 -15z m-54 -5 c0 -5 -7 -10 -15 -10 -8 0 -15 5 -15 10 0
6 7 10 15 10 8 0 15 -4 15 -10z"/>
<path d="M228 3339 c-10 -17 -18 -35 -18 -40 0 -12 31 -11 50 1 12 8 13 11 1
19 -9 6 -10 11 -2 15 15 10 14 36 -1 36 -7 0 -21 -14 -30 -31z"/>
<path d="M155 3074 c-8 -20 -24 -38 -35 -41 -17 -5 -20 -11 -14 -42 9 -55 14
-71 24 -71 12 0 -5 -45 -31 -82 -12 -16 -18 -32 -15 -35 11 -11 49 31 72 82
l24 50 0 -62 c0 -86 16 -96 144 -91 52 1 100 8 105 13 12 12 3 85 -10 85 -5 0
-9 -7 -9 -15 0 -8 -9 -24 -20 -35 -16 -16 -33 -20 -88 -20 -90 0 -107 12 -98
70 4 24 13 48 20 54 7 6 18 31 24 56 13 53 4 63 -45 55 -35 -6 -43 5 -18 25
19 16 19 40 0 40 -8 0 -21 -16 -30 -36z m65 -59 c0 -8 -7 -15 -15 -15 -26 0
-18 20 13 29 1 1 2 -6 2 -14z m-60 -10 c0 -8 -7 -15 -15 -15 -8 0 -15 7 -15
15 0 8 7 15 15 15 8 0 15 -7 15 -15z m54 -40 c-6 -16 -34 -21 -34 -7 0 13 11
22 26 22 8 0 11 -6 8 -15z m-54 -5 c0 -5 -7 -10 -15 -10 -8 0 -15 5 -15 10 0
6 7 10 15 10 8 0 15 -4 15 -10z"/>
<path d="M226 2885 c-22 -41 -17 -50 21 -40 15 5 34 7 41 6 6 -1 12 5 12 13 0
19 -23 33 -28 18 -2 -7 -9 -12 -15 -12 -8 0 -7 4 1 12 16 16 15 38 -1 38 -7 0
-21 -16 -31 -35z"/>
<path d="M155 2624 c-8 -20 -24 -38 -35 -41 -17 -5 -20 -11 -14 -42 9 -55 14
-71 24 -71 12 0 -5 -45 -31 -82 -12 -16 -18 -32 -15 -35 11 -11 49 31 72 82
l24 50 0 -62 c0 -86 16 -96 144 -91 52 1 100 8 105 13 12 12 3 85 -10 85 -5 0
-9 -7 -9 -15 0 -8 -9 -24 -20 -35 -16 -16 -33 -20 -88 -20 -90 0 -107 12 -98
70 4 24 13 48 20 54 7 6 18 31 24 56 13 53 4 63 -45 55 -35 -6 -43 5 -18 25
19 16 19 40 0 40 -8 0 -21 -16 -30 -36z m65 -59 c0 -8 -7 -15 -15 -15 -26 0
-18 20 13 29 1 1 2 -6 2 -14z m-60 -10 c0 -8 -7 -15 -15 -15 -8 0 -15 7 -15
15 0 8 7 15 15 15 8 0 15 -7 15 -15z m54 -40 c-6 -16 -34 -21 -34 -7 0 13 11
22 26 22 8 0 11 -6 8 -15z m-54 -5 c0 -5 -7 -10 -15 -10 -8 0 -15 5 -15 10 0
6 7 10 15 10 8 0 15 -4 15 -10z"/>
<path d="M284 2604 c3 -9 6 -18 6 -20 0 -2 7 -4 15 -4 20 0 19 26 -1 34 -24 9
-27 8 -20 -10z"/>
<path d="M226 2435 c-22 -41 -17 -50 21 -40 15 5 34 7 41 6 6 -1 12 5 12 13 0
19 -23 33 -28 18 -2 -7 -9 -12 -15 -12 -8 0 -7 4 1 12 16 16 15 38 -1 38 -7 0
-21 -16 -31 -35z"/>
<path d="M155 2174 c-8 -20 -24 -38 -35 -41 -17 -5 -20 -11 -14 -42 9 -55 14
-71 24 -71 12 0 -5 -45 -31 -82 -12 -16 -18 -32 -15 -35 11 -11 49 31 72 82
l24 50 0 -62 c0 -86 16 -96 144 -91 52 1 100 8 105 13 12 12 3 85 -10 85 -5 0
-9 -7 -9 -15 0 -8 -9 -24 -20 -35 -16 -16 -33 -20 -88 -20 -90 0 -107 12 -98
70 4 24 13 48 20 54 7 6 18 31 24 56 13 53 4 63 -45 55 -35 -6 -43 5 -18 25
19 16 19 40 0 40 -8 0 -21 -16 -30 -36z m65 -59 c0 -8 -7 -15 -15 -15 -26 0
-18 20 13 29 1 1 2 -6 2 -14z m-60 -10 c0 -8 -7 -15 -15 -15 -8 0 -15 7 -15
15 0 8 7 15 15 15 8 0 15 -7 15 -15z m54 -40 c-6 -16 -34 -21 -34 -7 0 13 11
22 26 22 8 0 11 -6 8 -15z m-54 -5 c0 -5 -7 -10 -15 -10 -8 0 -15 5 -15 10 0
6 7 10 15 10 8 0 15 -4 15 -10z"/>
<path d="M284 2154 c3 -9 6 -18 6 -20 0 -2 7 -4 15 -4 20 0 19 26 -1 34 -24 9
-27 8 -20 -10z"/>
<path d="M272 2098 c6 -16 36 -34 44 -25 9 9 -15 37 -33 37 -8 0 -13 -5 -11
-12z"/>
<path d="M226 1985 c-22 -41 -17 -50 21 -40 15 5 34 7 41 6 6 -1 12 5 12 13 0
19 -23 33 -28 18 -2 -7 -9 -12 -15 -12 -8 0 -7 4 1 12 16 16 15 38 -1 38 -7 0
-21 -16 -31 -35z"/>
<path d="M155 1724 c-8 -20 -24 -38 -35 -41 -17 -5 -20 -11 -14 -42 9 -55 14
-71 24 -71 12 0 -5 -45 -31 -82 -12 -16 -18 -32 -15 -35 11 -11 49 31 72 82
l24 50 0 -62 c0 -86 16 -96 144 -91 52 1 100 8 105 13 12 12 3 85 -10 85 -5 0
-9 -7 -9 -15 0 -8 -9 -24 -20 -35 -16 -16 -33 -20 -88 -20 -90 0 -107 12 -98
70 4 24 13 48 20 54 7 6 18 31 24 56 13 53 4 63 -45 55 -35 -6 -43 5 -18 25
19 16 19 40 0 40 -8 0 -21 -16 -30 -36z m65 -59 c0 -8 -7 -15 -15 -15 -26 0
-18 20 13 29 1 1 2 -6 2 -14z m-60 -10 c0 -8 -7 -15 -15 -15 -8 0 -15 7 -15
15 0 8 7 15 15 15 8 0 15 -7 15 -15z m54 -40 c-6 -16 -34 -21 -34 -7 0 13 11
22 26 22 8 0 11 -6 8 -15z m-54 -5 c0 -5 -7 -10 -15 -10 -8 0 -15 5 -15 10 0
6 7 10 15 10 8 0 15 -4 15 -10z"/>
<path d="M284 1704 c3 -9 6 -18 6 -20 0 -2 7 -4 15 -4 20 0 19 26 -1 34 -24 9
-27 8 -20 -10z"/>
<path d="M272 1648 c6 -16 36 -34 44 -25 9 9 -15 37 -33 37 -8 0 -13 -5 -11
-12z"/>
<path d="M312 1603 c-18 -3 -36 -11 -39 -19 -3 -8 -10 -14 -17 -14 -14 0 -52
-67 -43 -76 3 -4 19 -3 34 1 15 5 34 7 41 6 6 -1 12 5 12 13 0 19 -23 33 -28
18 -2 -7 -7 -12 -12 -12 -4 0 -3 11 3 24 13 26 67 46 126 46 17 0 31 5 31 10
0 10 -42 11 -108 3z"/>
<path d="M155 1274 c-8 -20 -24 -38 -35 -41 -17 -5 -20 -11 -14 -42 9 -55 14
-71 24 -71 12 0 -5 -45 -31 -82 -12 -16 -18 -32 -15 -35 11 -11 49 31 72 82
l24 50 0 -62 c0 -86 16 -96 144 -91 52 1 100 8 105 13 12 12 3 85 -10 85 -5 0
-9 -7 -9 -15 0 -8 -9 -24 -20 -35 -16 -16 -33 -20 -88 -20 -90 0 -107 12 -98
70 4 24 13 48 20 54 7 6 18 31 24 56 13 53 4 63 -45 55 -35 -6 -43 5 -18 25
19 16 19 40 0 40 -8 0 -21 -16 -30 -36z m65 -59 c0 -8 -7 -15 -15 -15 -26 0
-18 20 13 29 1 1 2 -6 2 -14z m-60 -10 c0 -8 -7 -15 -15 -15 -8 0 -15 7 -15
15 0 8 7 15 15 15 8 0 15 -7 15 -15z m54 -40 c-6 -16 -34 -21 -34 -7 0 13 11
22 26 22 8 0 11 -6 8 -15z m-54 -5 c0 -5 -7 -10 -15 -10 -8 0 -15 5 -15 10 0
6 7 10 15 10 8 0 15 -4 15 -10z"/>
<path d="M334 1228 c1 -73 1 -73 -27 -76 -16 -2 -31 -10 -34 -18 -3 -8 -10
-14 -17 -14 -14 0 -52 -67 -43 -76 3 -4 19 -3 34 1 15 5 34 7 41 6 6 -1 12 5
12 13 0 19 -23 33 -28 18 -2 -7 -8 -12 -13 -12 -5 0 -4 10 3 23 7 12 13 23 13
24 0 1 12 4 28 8 27 7 27 7 27 -45 0 -70 24 -63 28 8 3 50 4 52 33 52 16 0 29
5 29 10 0 6 -14 10 -31 10 l-31 0 4 67 c2 57 0 68 -13 71 -14 3 -17 -7 -15
-70z"/>
<path d="M284 1254 c3 -9 6 -18 6 -20 0 -2 7 -4 15 -4 20 0 19 26 -1 34 -24 9
-27 8 -20 -10z"/>
<path d="M272 1198 c6 -16 36 -34 44 -25 9 9 -15 37 -33 37 -8 0 -13 -5 -11
-12z"/>
</g>
</svg>
