<?xml version="1.0" standalone="no"?>
<!DOCTYPE svg PUBLIC "-//W3C//DTD SVG 20010904//EN"
 "http://www.w3.org/TR/2001/REC-SVG-20010904/DTD/svg10.dtd">
<svg version="1.0" xmlns="http://www.w3.org/2000/svg"
 width="95.000000pt" height="725.000000pt" viewBox="0 0 95.000000 725.000000"
 preserveAspectRatio="xMidYMid meet">
<metadata>
Created by potrace 1.16, written by Peter Selinger 2001-2019
</metadata>
<g transform="translate(0.000000,725.000000) scale(0.100000,-0.100000)"
fill="#000000" stroke="none">
<path d="M280 7136 c0 -8 -11 -27 -23 -43 -19 -22 -23 -36 -19 -68 2 -22 9
-43 15 -46 12 -9 -22 -81 -42 -87 -10 -4 -12 0 -6 14 4 11 10 30 13 43 4 21 2
23 -17 18 -22 -5 -25 4 -12 37 5 14 10 16 15 8 10 -17 26 -15 26 3 0 7 -8 19
-17 24 -10 6 -12 11 -5 11 17 0 15 20 -3 20 -8 0 -15 7 -15 15 0 9 7 18 15 21
19 8 19 23 1 30 -8 3 -28 -5 -45 -17 -32 -24 -42 -45 -16 -35 9 3 15 0 15 -9
0 -8 -13 -15 -32 -17 -17 -2 -34 -9 -36 -17 -4 -11 2 -12 24 -7 l29 8 -24 -26
c-30 -32 -22 -44 15 -20 l27 18 -7 -29 c-10 -38 -6 -35 -50 -37 -41 -1 -45
-23 -4 -23 16 0 28 -7 36 -23 9 -20 7 -24 -14 -34 -24 -11 -33 -28 -14 -28 6
0 25 7 41 16 28 14 32 14 48 0 22 -20 31 -20 31 0 0 8 11 30 25 48 14 18 25
38 25 44 0 6 3 13 8 15 4 3 6 -16 4 -41 -5 -71 17 -89 98 -83 42 2 53 15 45
50 -7 35 -25 42 -25 11 0 -26 -43 -44 -71 -30 -25 14 -24 30 2 30 12 0 19 5
16 13 -2 6 3 20 11 30 13 14 13 20 3 30 -10 8 -15 9 -18 1 -2 -6 -10 -20 -18
-30 -13 -17 -14 -17 -15 -2 0 10 9 25 19 35 10 10 26 36 35 57 18 44 9 61 -29
51 -11 -2 -28 -5 -37 -5 -11 0 -18 -8 -18 -20 0 -11 -6 -20 -14 -20 -20 0 -9
34 20 61 29 27 31 49 4 49 -11 0 -20 -6 -20 -14z m63 -83 c-7 -2 -19 -2 -25 0
-7 3 -2 5 12 5 14 0 19 -2 13 -5z m-3 -33 c0 -5 -7 -10 -16 -10 -8 0 -12 5 -9
10 3 6 10 10 16 10 5 0 9 -4 9 -10z m-50 -10 c0 -5 -7 -10 -15 -10 -8 0 -15 5
-15 10 0 6 7 10 15 10 8 0 15 -4 15 -10z m-106 -85 c-4 -8 -13 -15 -21 -15
-13 0 -13 3 -3 15 7 8 16 15 21 15 5 0 6 -7 3 -15z"/>
<path d="M605 7115 c-16 -13 -27 -27 -24 -29 9 -10 90 27 86 38 -7 20 -31 16
-62 -9z"/>
<path d="M280 6686 c0 -8 -11 -27 -23 -43 -19 -22 -23 -36 -19 -68 2 -22 9
-43 15 -46 12 -9 -22 -81 -42 -87 -10 -4 -12 0 -6 14 4 11 10 30 13 43 4 21 2
23 -17 18 -22 -5 -25 4 -12 37 5 14 10 16 15 8 10 -17 26 -15 26 3 0 7 -8 19
-17 24 -10 6 -12 11 -5 11 17 0 15 20 -3 20 -8 0 -15 7 -15 15 0 9 7 18 15 21
19 8 19 23 1 30 -8 3 -28 -5 -45 -17 -32 -24 -42 -45 -16 -35 9 3 15 0 15 -9
0 -8 -13 -15 -32 -17 -17 -2 -34 -9 -36 -17 -4 -11 2 -12 24 -7 l29 8 -24 -26
c-30 -32 -22 -44 15 -20 l27 18 -7 -29 c-10 -38 -6 -35 -50 -37 -41 -1 -45
-23 -4 -23 16 0 28 -7 36 -23 9 -20 7 -24 -14 -34 -24 -11 -33 -28 -14 -28 6
0 25 7 41 16 28 14 32 14 48 0 22 -20 31 -20 31 0 0 8 11 30 25 48 14 18 25
38 25 44 0 6 3 13 8 15 4 3 6 -16 4 -41 -5 -71 17 -89 98 -83 42 2 53 15 45
50 -4 17 -13 31 -21 31 -8 0 -14 5 -14 10 0 6 -7 10 -15 10 -22 0 -18 -31 5
-37 27 -7 25 -22 -6 -33 -17 -7 -32 -7 -45 0 -25 14 -24 30 2 30 12 0 19 5 16
13 -2 6 3 20 11 30 13 14 13 20 3 30 -10 8 -15 9 -18 1 -2 -6 -10 -20 -18 -30
-13 -17 -14 -17 -15 -2 0 10 9 25 19 35 10 10 26 36 35 57 18 44 9 61 -29 51
-11 -2 -28 -5 -37 -5 -11 0 -18 -8 -18 -20 0 -11 -6 -20 -14 -20 -20 0 -9 34
20 61 29 27 31 49 4 49 -11 0 -20 -6 -20 -14z m63 -83 c-7 -2 -19 -2 -25 0 -7
3 -2 5 12 5 14 0 19 -2 13 -5z m-3 -33 c0 -5 -7 -10 -16 -10 -8 0 -12 5 -9 10
3 6 10 10 16 10 5 0 9 -4 9 -10z m-50 -10 c0 -5 -7 -10 -15 -10 -8 0 -15 5
-15 10 0 6 7 10 15 10 8 0 15 -4 15 -10z m-106 -85 c-4 -8 -13 -15 -21 -15
-13 0 -13 3 -3 15 7 8 16 15 21 15 5 0 6 -7 3 -15z"/>
<path d="M605 6665 c-16 -13 -27 -27 -24 -29 9 -10 90 27 86 38 -7 20 -31 16
-62 -9z"/>
<path d="M581 6611 c-19 -3 -36 -12 -39 -20 -4 -11 1 -12 19 -7 13 3 43 9 67
12 23 4 42 11 42 15 0 10 -36 10 -89 0z"/>
<path d="M608 6217 c-30 -25 -37 -43 -13 -33 9 3 15 0 15 -9 0 -8 -13 -15 -32
-17 -17 -2 -33 -9 -36 -16 -3 -10 4 -12 32 -7 35 7 36 7 36 -25 0 -42 24 -35
28 8 2 20 9 32 18 32 8 0 14 5 14 10 0 6 -7 10 -15 10 -20 0 -19 27 1 38 18
10 11 32 -9 32 -7 -1 -24 -11 -39 -23z"/>
<path d="M608 5767 c-30 -25 -37 -43 -13 -33 9 3 15 0 15 -9 0 -8 -13 -15 -32
-17 -17 -2 -34 -9 -36 -17 -4 -11 2 -12 24 -7 l29 8 -24 -26 c-30 -32 -22 -44
13 -21 24 16 26 16 26 0 0 -30 25 -10 28 23 2 20 9 32 18 32 8 0 14 5 14 10 0
6 -7 10 -15 10 -20 0 -19 27 1 38 18 10 11 32 -9 32 -7 -1 -24 -11 -39 -23z"/>
<path d="M608 5317 c-30 -25 -37 -43 -13 -33 9 3 15 0 15 -9 0 -8 -13 -15 -32
-17 -17 -2 -34 -9 -36 -17 -4 -11 2 -12 24 -7 l29 8 -24 -26 c-30 -32 -22 -44
13 -21 24 16 26 16 26 1 0 -23 19 -20 29 6 5 14 10 17 15 10 10 -17 26 -15 26
3 0 7 -8 19 -17 24 -10 6 -12 11 -5 11 17 0 15 20 -3 20 -20 0 -19 27 1 38 18
10 11 32 -9 32 -7 -1 -24 -11 -39 -23z"/>
<path d="M608 4867 c-30 -25 -37 -43 -13 -33 9 3 15 0 15 -9 0 -8 -13 -15 -32
-17 -17 -2 -34 -9 -36 -17 -4 -11 2 -12 24 -7 l29 8 -24 -26 c-30 -32 -22 -44
13 -21 31 20 32 11 9 -47 -16 -40 -16 -42 2 -52 10 -6 30 -21 45 -33 34 -28
40 -29 40 -2 0 15 -11 25 -39 36 -37 15 -39 17 -26 37 7 11 16 36 20 54 5 25
10 31 18 23 15 -15 27 -14 27 4 0 7 -8 19 -17 24 -10 6 -12 11 -5 11 17 0 15
20 -3 20 -20 0 -19 27 1 38 18 10 11 32 -9 32 -7 -1 -24 -11 -39 -23z"/>
<path d="M608 4417 c-30 -25 -37 -43 -13 -33 9 3 15 0 15 -9 0 -8 -13 -15 -32
-17 -17 -2 -34 -9 -36 -17 -4 -11 2 -12 24 -7 l29 8 -24 -26 c-30 -32 -22 -44
13 -21 30 20 32 11 10 -45 -13 -32 -14 -43 -4 -55 10 -12 7 -17 -14 -26 -26
-12 -35 -29 -16 -29 6 0 25 7 41 16 28 14 32 14 48 0 23 -21 31 -20 31 4 0 10
-7 23 -16 28 -13 7 -14 13 -5 30 15 28 14 52 -3 52 -7 0 -16 -13 -19 -30 -4
-18 -13 -30 -22 -30 -14 0 -14 3 -1 23 8 12 17 37 21 55 5 25 10 31 18 23 15
-15 27 -14 27 4 0 7 -8 19 -17 24 -10 6 -12 11 -5 11 17 0 15 20 -3 20 -20 0
-19 27 1 38 18 10 11 32 -9 32 -7 -1 -24 -11 -39 -23z"/>
<path d="M608 3967 c-30 -25 -37 -43 -13 -33 9 3 15 0 15 -9 0 -8 -13 -15 -32
-17 -17 -2 -34 -9 -36 -17 -4 -11 2 -12 24 -7 l29 8 -24 -26 c-30 -32 -22 -44
15 -20 l27 18 -7 -29 c-10 -38 -6 -35 -50 -37 -41 -1 -45 -23 -4 -23 16 0 28
-7 36 -23 9 -20 7 -24 -14 -34 -24 -11 -33 -28 -14 -28 6 0 25 7 41 16 28 14
32 14 48 0 23 -21 31 -20 31 4 0 10 -7 23 -16 28 -13 7 -14 13 -5 30 18 34 14
55 -9 49 -21 -5 -24 4 -11 37 5 14 10 16 15 8 10 -17 26 -15 26 3 0 7 -8 19
-17 24 -10 6 -12 11 -5 11 17 0 15 20 -3 20 -20 0 -19 27 1 38 18 10 11 32 -9
32 -7 -1 -24 -11 -39 -23z m26 -192 c-4 -8 -13 -15 -21 -15 -13 0 -13 3 -3 15
7 8 16 15 21 15 5 0 6 -7 3 -15z"/>
<path d="M718 3513 c-10 -20 -15 -39 -13 -42 8 -7 65 51 65 66 0 28 -36 11
-52 -24z"/>
<path d="M608 3517 c-30 -25 -37 -43 -13 -33 9 3 15 0 15 -9 0 -8 -13 -15 -32
-17 -17 -2 -34 -9 -36 -17 -4 -11 2 -12 24 -7 l29 8 -24 -26 c-30 -32 -22 -44
15 -20 l27 18 -7 -29 c-10 -38 -6 -35 -50 -37 -41 -1 -45 -23 -4 -23 16 0 28
-7 36 -23 9 -20 7 -24 -14 -34 -24 -11 -33 -28 -14 -28 6 0 25 7 41 16 28 14
32 14 48 0 23 -21 31 -20 31 4 0 10 -7 23 -16 28 -13 7 -14 13 -5 30 18 34 14
55 -9 49 -21 -5 -24 4 -11 37 5 14 10 16 15 8 10 -17 26 -15 26 3 0 7 -8 19
-17 24 -10 6 -12 11 -5 11 17 0 15 20 -3 20 -20 0 -19 27 1 38 18 10 11 32 -9
32 -7 -1 -24 -11 -39 -23z m26 -192 c-4 -8 -13 -15 -21 -15 -13 0 -13 3 -3 15
7 8 16 15 21 15 5 0 6 -7 3 -15z"/>
<path d="M726 3077 c-3 -12 -14 -31 -24 -42 -13 -15 -17 -31 -14 -62 5 -56 22
-56 22 0 0 35 6 49 30 72 34 33 39 55 11 55 -11 0 -21 -9 -25 -23z"/>
<path d="M608 3067 c-30 -25 -37 -43 -13 -33 9 3 15 0 15 -9 0 -8 -13 -15 -32
-17 -17 -2 -34 -9 -36 -17 -4 -11 2 -12 24 -7 l29 8 -24 -26 c-30 -32 -22 -44
15 -20 l27 18 -7 -29 c-10 -38 -6 -35 -50 -37 -41 -1 -45 -23 -4 -23 16 0 28
-7 36 -23 9 -20 7 -24 -14 -34 -24 -11 -33 -28 -14 -28 6 0 25 7 41 16 28 14
32 14 48 0 23 -21 31 -20 31 4 0 10 -7 23 -16 28 -13 7 -14 13 -5 30 18 34 14
55 -9 49 -21 -5 -24 4 -11 37 5 14 10 16 15 8 10 -17 26 -15 26 3 0 7 -8 19
-17 24 -10 6 -12 11 -5 11 17 0 15 20 -3 20 -20 0 -19 27 1 38 18 10 11 32 -9
32 -7 -1 -24 -11 -39 -23z m26 -192 c-4 -8 -13 -15 -21 -15 -13 0 -13 3 -3 15
7 8 16 15 21 15 5 0 6 -7 3 -15z"/>
<path d="M730 2636 c0 -8 -10 -27 -23 -43 -19 -22 -23 -37 -19 -70 5 -56 18
-55 25 3 3 31 13 54 31 73 31 32 33 51 6 51 -11 0 -20 -6 -20 -14z"/>
<path d="M608 2617 c-30 -25 -37 -43 -13 -33 9 3 15 0 15 -9 0 -8 -13 -15 -32
-17 -17 -2 -34 -9 -36 -17 -4 -11 2 -12 24 -7 l29 8 -24 -26 c-30 -32 -22 -44
15 -20 l27 18 -7 -29 c-10 -38 -6 -35 -50 -37 -41 -1 -45 -23 -4 -23 16 0 28
-7 36 -23 9 -20 7 -24 -14 -34 -24 -11 -33 -28 -14 -28 6 0 25 7 41 16 28 14
32 14 48 0 23 -21 31 -20 31 4 0 10 -7 23 -16 28 -13 7 -14 13 -5 30 18 34 14
55 -9 49 -21 -5 -24 4 -11 37 5 14 10 16 15 8 10 -17 26 -15 26 3 0 7 -8 19
-17 24 -10 6 -12 11 -5 11 17 0 15 20 -3 20 -20 0 -19 27 1 38 18 10 11 32 -9
32 -7 -1 -24 -11 -39 -23z m26 -192 c-4 -8 -13 -15 -21 -15 -13 0 -13 3 -3 15
7 8 16 15 21 15 5 0 6 -7 3 -15z"/>
<path d="M768 2583 c-37 -6 -36 -23 1 -23 29 0 29 -1 20 -32 -12 -42 -11 -48
1 -48 6 0 20 21 31 47 16 37 17 48 7 55 -7 4 -17 7 -23 6 -5 0 -22 -3 -37 -5z"/>
<path d="M730 2186 c0 -8 -10 -27 -23 -43 -19 -22 -23 -37 -19 -70 4 -43 22
-61 22 -23 0 14 7 20 24 20 13 0 32 3 41 6 13 5 15 2 9 -20 -11 -44 15 -30 37
21 21 50 14 68 -26 58 -11 -2 -28 -5 -37 -5 -33 0 -19 -20 15 -21 30 -1 31 -1
7 -9 -14 -4 -35 -8 -47 -9 -27 -1 -21 28 13 60 29 27 31 49 4 49 -11 0 -20 -6
-20 -14z"/>
<path d="M608 2167 c-30 -25 -37 -43 -13 -33 9 3 15 0 15 -9 0 -8 -13 -15 -32
-17 -17 -2 -34 -9 -36 -17 -4 -11 2 -12 24 -7 l29 8 -24 -26 c-30 -32 -22 -44
15 -20 l27 18 -7 -29 c-10 -38 -6 -35 -50 -37 -41 -1 -45 -23 -4 -23 16 0 28
-7 36 -23 9 -20 7 -24 -14 -34 -24 -11 -33 -28 -14 -28 6 0 25 7 41 16 28 14
32 14 48 0 23 -21 31 -20 31 4 0 10 -7 23 -16 28 -13 7 -14 13 -5 30 18 34 14
55 -9 49 -21 -5 -24 4 -11 37 5 14 10 16 15 8 10 -17 26 -15 26 3 0 7 -8 19
-17 24 -10 6 -12 11 -5 11 17 0 15 20 -3 20 -20 0 -19 27 1 38 18 10 11 32 -9
32 -7 -1 -24 -11 -39 -23z m26 -192 c-4 -8 -13 -15 -21 -15 -13 0 -13 3 -3 15
7 8 16 15 21 15 5 0 6 -7 3 -15z"/>
<path d="M730 1736 c0 -8 -10 -27 -23 -43 -19 -22 -23 -37 -19 -70 4 -43 22
-61 22 -23 0 11 7 20 15 20 8 0 15 -7 15 -15 0 -22 17 -18 23 5 3 11 10 20 16
20 7 0 9 -10 5 -25 -11 -44 15 -28 37 22 21 50 14 68 -26 58 -11 -2 -28 -5
-37 -5 -11 0 -18 -8 -18 -20 0 -11 -6 -20 -14 -20 -20 0 -9 34 20 61 29 27 31
49 4 49 -11 0 -20 -6 -20 -14z m63 -83 c-7 -2 -19 -2 -25 0 -7 3 -2 5 12 5 14
0 19 -2 13 -5z"/>
<path d="M608 1717 c-30 -25 -37 -43 -13 -33 9 3 15 0 15 -9 0 -8 -13 -15 -32
-17 -17 -2 -34 -9 -36 -17 -4 -11 2 -12 24 -7 l29 8 -24 -26 c-30 -32 -22 -44
15 -20 l27 18 -7 -29 c-10 -38 -6 -35 -50 -37 -41 -1 -45 -23 -4 -23 16 0 28
-7 36 -23 9 -20 7 -24 -14 -34 -24 -11 -33 -28 -14 -28 6 0 25 7 41 16 28 14
32 14 48 0 23 -21 31 -20 31 4 0 10 -7 23 -16 28 -13 7 -14 13 -5 30 18 34 14
55 -9 49 -21 -5 -24 4 -11 37 5 14 10 16 15 8 10 -17 26 -15 26 3 0 7 -8 19
-17 24 -10 6 -12 11 -5 11 17 0 15 20 -3 20 -20 0 -19 27 1 38 18 10 11 32 -9
32 -7 -1 -24 -11 -39 -23z m26 -192 c-4 -8 -13 -15 -21 -15 -13 0 -13 3 -3 15
7 8 16 15 21 15 5 0 6 -7 3 -15z"/>
<path d="M730 1286 c0 -8 -10 -27 -23 -43 -19 -22 -23 -37 -19 -70 4 -37 7
-43 28 -43 13 0 24 5 24 10 0 6 -7 10 -15 10 -8 0 -15 5 -15 10 0 15 21 12 34
-4 6 -8 21 -17 34 -21 19 -6 25 0 42 41 22 51 15 69 -25 59 -11 -2 -28 -5 -37
-5 -11 0 -18 -8 -18 -20 0 -11 -6 -20 -14 -20 -20 0 -9 34 20 61 29 27 31 49
4 49 -11 0 -20 -6 -20 -14z m63 -83 c-7 -2 -19 -2 -25 0 -7 3 -2 5 12 5 14 0
19 -2 13 -5z m-3 -33 c0 -5 -7 -10 -16 -10 -8 0 -12 5 -9 10 3 6 10 10 16 10
5 0 9 -4 9 -10z"/>
<path d="M608 1267 c-30 -25 -37 -43 -13 -33 9 3 15 0 15 -9 0 -8 -13 -15 -32
-17 -17 -2 -34 -9 -36 -17 -4 -11 2 -12 24 -7 l29 8 -24 -26 c-30 -32 -22 -44
15 -20 l27 18 -7 -29 c-10 -38 -6 -35 -50 -37 -41 -1 -45 -23 -4 -23 16 0 28
-7 36 -23 9 -20 7 -24 -14 -34 -24 -11 -33 -28 -14 -28 6 0 25 7 41 16 28 14
32 14 48 0 23 -21 31 -20 31 4 0 10 -7 23 -16 28 -13 7 -14 13 -5 30 18 34 14
55 -9 49 -21 -5 -24 4 -11 37 5 14 10 16 15 8 10 -17 26 -15 26 3 0 7 -8 19
-17 24 -10 6 -12 11 -5 11 17 0 15 20 -3 20 -20 0 -19 27 1 38 18 10 11 32 -9
32 -7 -1 -24 -11 -39 -23z m26 -192 c-4 -8 -13 -15 -21 -15 -13 0 -13 3 -3 15
7 8 16 15 21 15 5 0 6 -7 3 -15z"/>
<path d="M730 836 c0 -8 -11 -27 -23 -43 -19 -22 -23 -36 -19 -68 2 -22 9 -43
15 -46 12 -9 -22 -81 -42 -87 -10 -4 -12 0 -6 14 4 11 10 30 13 43 4 21 2 23
-17 18 -22 -5 -25 4 -12 37 5 14 10 16 15 8 10 -17 26 -15 26 3 0 7 -8 19 -17
24 -10 6 -12 11 -5 11 17 0 15 20 -3 20 -8 0 -15 7 -15 15 0 9 7 18 15 21 19
8 19 23 1 30 -8 3 -28 -5 -45 -17 -32 -24 -42 -45 -16 -35 9 3 15 0 15 -9 0
-8 -13 -15 -32 -17 -17 -2 -34 -9 -36 -17 -4 -11 2 -12 24 -7 l29 8 -24 -26
c-30 -32 -22 -44 15 -20 l27 18 -7 -29 c-10 -38 -6 -35 -50 -37 -41 -1 -45
-23 -4 -23 16 0 28 -7 36 -23 9 -20 7 -24 -14 -34 -24 -11 -33 -28 -14 -28 6
0 25 7 41 16 28 14 32 14 48 0 22 -20 31 -20 31 0 0 8 11 30 25 48 32 42 44
96 21 96 -9 0 -16 5 -16 10 0 15 21 12 34 -4 6 -8 21 -17 34 -21 19 -6 25 0
42 41 22 51 15 69 -25 59 -11 -2 -28 -5 -37 -5 -11 0 -18 -8 -18 -20 0 -11 -6
-20 -14 -20 -20 0 -9 34 20 61 29 27 31 49 4 49 -11 0 -20 -6 -20 -14z m63
-83 c-7 -2 -19 -2 -25 0 -7 3 -2 5 12 5 14 0 19 -2 13 -5z m-3 -33 c0 -5 -7
-10 -16 -10 -8 0 -12 5 -9 10 3 6 10 10 16 10 5 0 9 -4 9 -10z m-156 -95 c-4
-8 -13 -15 -21 -15 -13 0 -13 3 -3 15 7 8 16 15 21 15 5 0 6 -7 3 -15z"/>
<path d="M730 386 c0 -8 -11 -27 -23 -43 -19 -22 -23 -36 -19 -68 2 -22 9 -43
15 -46 12 -9 -22 -81 -42 -87 -10 -4 -12 0 -6 14 4 11 10 30 13 43 4 21 2 23
-17 18 -22 -5 -25 4 -12 37 5 14 10 16 15 8 10 -17 26 -15 26 3 0 7 -8 19 -17
24 -10 6 -12 11 -5 11 17 0 15 20 -3 20 -8 0 -15 7 -15 15 0 9 7 18 15 21 19
8 19 23 1 30 -8 3 -28 -5 -45 -17 -32 -24 -42 -45 -16 -35 9 3 15 0 15 -9 0
-8 -13 -15 -32 -17 -17 -2 -34 -9 -36 -17 -4 -11 2 -12 24 -7 l29 8 -24 -26
c-30 -32 -22 -44 15 -20 l27 18 -7 -29 c-10 -38 -6 -35 -50 -37 -41 -1 -45
-23 -4 -23 16 0 28 -7 36 -23 9 -20 7 -24 -14 -34 -24 -11 -33 -28 -14 -28 6
0 25 7 41 16 28 14 32 14 48 0 22 -20 31 -20 31 0 0 8 11 30 25 48 14 18 25
38 25 44 0 6 3 13 8 15 4 3 6 -16 4 -41 -5 -71 17 -89 98 -83 42 2 53 15 45
50 -7 35 -25 42 -25 11 0 -26 -43 -44 -71 -30 -26 15 -26 82 0 107 10 10 26
36 35 57 18 44 9 61 -29 51 -11 -2 -28 -5 -37 -5 -11 0 -18 -8 -18 -20 0 -11
-6 -20 -14 -20 -20 0 -9 34 20 61 29 27 31 49 4 49 -11 0 -20 -6 -20 -14z m63
-83 c-7 -2 -19 -2 -25 0 -7 3 -2 5 12 5 14 0 19 -2 13 -5z m-3 -33 c0 -5 -7
-10 -16 -10 -8 0 -12 5 -9 10 3 6 10 10 16 10 5 0 9 -4 9 -10z m-50 -10 c0 -5
-7 -10 -15 -10 -8 0 -15 5 -15 10 0 6 7 10 15 10 8 0 15 -4 15 -10z m-106 -85
c-4 -8 -13 -15 -21 -15 -13 0 -13 3 -3 15 7 8 16 15 21 15 5 0 6 -7 3 -15z"/>
</g>
</svg>
