<?xml version="1.0" standalone="no"?>
<!DOCTYPE svg PUBLIC "-//W3C//DTD SVG 20010904//EN"
 "http://www.w3.org/TR/2001/REC-SVG-20010904/DTD/svg10.dtd">
<svg version="1.0" xmlns="http://www.w3.org/2000/svg"
 width="50.000000pt" height="725.000000pt" viewBox="0 0 50.000000 725.000000"
 preserveAspectRatio="xMidYMid meet">
<metadata>
Created by potrace 1.16, written by Peter Selinger 2001-2019
</metadata>
<g transform="translate(0.000000,725.000000) scale(0.100000,-0.100000)"
fill="#000000" stroke="none">
<path d="M135 7113 c-9 -21 -23 -45 -32 -55 -25 -28 -6 -34 23 -7 31 29 57 76
49 89 -12 19 -25 10 -40 -27z"/>
<path d="M135 6664 c-9 -21 -23 -46 -32 -56 -28 -31 -4 -33 27 -3 33 31 49 29
29 -4 -23 -35 -3 -33 35 5 38 38 39 59 0 51 -19 -3 -23 0 -21 16 4 36 -22 29
-38 -9z"/>
<path d="M135 6214 c-9 -21 -23 -46 -31 -55 -13 -15 -14 -26 -3 -78 6 -34 16
-61 20 -61 11 0 11 34 0 82 -7 32 -5 40 15 59 28 26 41 20 23 -10 -23 -35 -3
-33 35 5 38 38 39 59 0 51 -19 -3 -23 0 -21 16 4 36 -22 29 -38 -9z"/>
<path d="M135 5764 c-9 -21 -23 -46 -31 -55 -13 -15 -14 -26 -3 -78 6 -34 16
-61 20 -61 11 0 11 34 0 82 -7 32 -5 40 15 59 13 12 27 20 30 17 7 -7 -18 -48
-28 -48 -5 0 -8 -4 -8 -10 0 -20 22 -9 60 31 42 44 43 64 4 56 -19 -3 -23 0
-21 16 4 36 -22 29 -38 -9z"/>
<path d="M180 5680 c0 -5 6 -10 14 -10 11 0 12 -8 5 -37 -11 -50 -11 -53 4
-53 11 0 37 70 37 100 0 6 -13 10 -30 10 -16 0 -30 -4 -30 -10z"/>
<path d="M135 5314 c-9 -21 -23 -46 -31 -55 -13 -15 -14 -26 -3 -78 12 -61 29
-83 29 -36 0 14 6 25 13 25 6 0 22 3 35 6 21 6 22 4 16 -20 -4 -19 -2 -26 8
-26 8 0 19 19 26 45 17 63 16 65 -18 65 -16 0 -30 -4 -30 -10 0 -5 8 -10 17
-10 28 0 1 -18 -38 -25 -33 -6 -37 -5 -41 19 -4 18 2 32 18 47 13 12 27 20 30
17 7 -7 -18 -48 -28 -48 -5 0 -8 -4 -8 -10 0 -20 22 -9 60 31 42 44 43 64 4
56 -19 -3 -23 0 -21 16 4 36 -22 29 -38 -9z"/>
<path d="M135 4864 c-9 -21 -23 -46 -31 -55 -13 -15 -14 -26 -3 -78 12 -61 29
-83 29 -36 0 14 5 25 10 25 6 0 10 -7 10 -15 0 -22 17 -18 23 5 3 11 10 20 16
20 7 0 9 -10 5 -25 -4 -18 -2 -25 8 -25 8 0 19 19 26 45 17 65 17 68 -24 63
l-37 -4 32 28 c35 31 32 53 -5 45 -19 -3 -23 0 -21 16 4 36 -22 29 -38 -9z
m35 -42 c0 -5 -10 -19 -22 -32 -15 -16 -18 -25 -10 -28 17 -5 15 -22 -2 -22
-23 0 -24 43 -2 68 20 22 36 29 36 14z m35 -62 c-3 -5 -10 -10 -16 -10 -5 0
-9 5 -9 10 0 6 7 10 16 10 8 0 12 -4 9 -10z"/>
<path d="M135 4414 c-9 -21 -23 -46 -31 -55 -13 -15 -14 -26 -3 -78 11 -59 12
-61 38 -54 14 4 38 7 52 6 22 -2 27 4 37 43 17 64 16 67 -24 62 l-37 -4 32 28
c35 31 32 53 -5 45 -19 -3 -23 0 -21 16 4 36 -22 29 -38 -9z m35 -42 c0 -5
-10 -19 -22 -32 -15 -16 -18 -25 -10 -28 17 -5 15 -22 -2 -22 -23 0 -24 43 -2
68 20 22 36 29 36 14z m35 -62 c-3 -5 -10 -10 -16 -10 -5 0 -9 5 -9 10 0 6 7
10 16 10 8 0 12 -4 9 -10z m-5 -40 c0 -5 -7 -10 -16 -10 -8 0 -12 5 -9 10 3 6
10 10 16 10 5 0 9 -4 9 -10z m-50 -10 c0 -5 -4 -10 -10 -10 -5 0 -10 5 -10 10
0 6 5 10 10 10 6 0 10 -4 10 -10z"/>
<path d="M135 3964 c-9 -21 -23 -46 -31 -55 -13 -15 -14 -26 -3 -78 11 -59 12
-61 38 -54 14 4 38 7 52 6 22 -2 27 4 37 43 17 64 16 67 -24 62 l-37 -4 32 28
c35 31 32 53 -5 45 -19 -3 -23 0 -21 16 4 36 -22 29 -38 -9z m35 -42 c0 -5
-10 -19 -22 -32 -15 -16 -18 -25 -10 -28 17 -5 15 -22 -2 -22 -23 0 -24 43 -2
68 20 22 36 29 36 14z m35 -62 c-3 -5 -10 -10 -16 -10 -5 0 -9 5 -9 10 0 6 7
10 16 10 8 0 12 -4 9 -10z m-5 -40 c0 -5 -7 -10 -16 -10 -8 0 -12 5 -9 10 3 6
10 10 16 10 5 0 9 -4 9 -10z m-50 -10 c0 -5 -4 -10 -10 -10 -5 0 -10 5 -10 10
0 6 5 10 10 10 6 0 10 -4 10 -10z"/>
<path d="M76 3744 c-10 -27 -7 -56 7 -52 14 5 23 68 9 68 -6 0 -13 -7 -16 -16z"/>
<path d="M135 3514 c-9 -21 -23 -46 -31 -55 -13 -15 -14 -26 -3 -78 11 -59 12
-61 38 -54 14 4 38 7 52 6 22 -2 27 4 37 43 17 64 16 67 -24 62 l-37 -4 32 28
c35 31 32 53 -5 45 -19 -3 -23 0 -21 16 4 36 -22 29 -38 -9z m35 -42 c0 -5
-10 -19 -22 -32 -15 -16 -18 -25 -10 -28 17 -5 15 -22 -2 -22 -23 0 -24 43 -2
68 20 22 36 29 36 14z m35 -62 c-3 -5 -10 -10 -16 -10 -5 0 -9 5 -9 10 0 6 7
10 16 10 8 0 12 -4 9 -10z m-5 -40 c0 -5 -7 -10 -16 -10 -8 0 -12 5 -9 10 3 6
10 10 16 10 5 0 9 -4 9 -10z m-50 -10 c0 -5 -4 -10 -10 -10 -5 0 -10 5 -10 10
0 6 5 10 10 10 6 0 10 -4 10 -10z"/>
<path d="M76 3294 c-10 -27 -7 -56 7 -52 14 5 23 68 9 68 -6 0 -13 -7 -16 -16z"/>
<path d="M122 3289 c1 -12 9 -24 16 -27 9 -3 13 3 10 19 -1 12 -9 24 -16 27
-9 3 -13 -3 -10 -19z"/>
<path d="M135 3064 c-9 -21 -23 -46 -31 -55 -13 -15 -14 -26 -3 -78 11 -59 12
-61 38 -54 14 4 38 7 52 6 22 -2 27 4 37 43 17 64 16 67 -24 62 l-37 -4 32 28
c35 31 32 53 -5 45 -19 -3 -23 0 -21 16 4 36 -22 29 -38 -9z m35 -42 c0 -5
-10 -19 -22 -32 -15 -16 -18 -25 -10 -28 17 -5 15 -22 -2 -22 -23 0 -24 43 -2
68 20 22 36 29 36 14z m35 -62 c-3 -5 -10 -10 -16 -10 -5 0 -9 5 -9 10 0 6 7
10 16 10 8 0 12 -4 9 -10z m-5 -40 c0 -5 -7 -10 -16 -10 -8 0 -12 5 -9 10 3 6
10 10 16 10 5 0 9 -4 9 -10z m-50 -10 c0 -5 -4 -10 -10 -10 -5 0 -10 5 -10 10
0 6 5 10 10 10 6 0 10 -4 10 -10z"/>
<path d="M162 2854 c1 -9 9 -19 16 -22 9 -3 13 2 10 14 -1 9 -9 19 -16 22 -9
3 -13 -2 -10 -14z"/>
<path d="M76 2844 c-10 -27 -7 -56 7 -52 14 5 23 68 9 68 -6 0 -13 -7 -16 -16z"/>
<path d="M122 2839 c1 -12 9 -24 16 -27 9 -3 13 3 10 19 -1 12 -9 24 -16 27
-9 3 -13 -3 -10 -19z"/>
<path d="M135 2614 c-9 -21 -23 -46 -31 -55 -13 -15 -14 -26 -3 -78 11 -59 12
-61 38 -54 14 4 38 7 52 6 22 -2 27 4 37 43 17 64 16 67 -24 62 l-37 -4 32 28
c35 31 32 53 -5 45 -19 -3 -23 0 -21 16 4 36 -22 29 -38 -9z m35 -42 c0 -5
-10 -19 -22 -32 -15 -16 -18 -25 -10 -28 17 -5 15 -22 -2 -22 -23 0 -24 43 -2
68 20 22 36 29 36 14z m35 -62 c-3 -5 -10 -10 -16 -10 -5 0 -9 5 -9 10 0 6 7
10 16 10 8 0 12 -4 9 -10z m-5 -40 c0 -5 -7 -10 -16 -10 -8 0 -12 5 -9 10 3 6
10 10 16 10 5 0 9 -4 9 -10z m-50 -10 c0 -5 -4 -10 -10 -10 -5 0 -10 5 -10 10
0 6 5 10 10 10 6 0 10 -4 10 -10z"/>
<path d="M162 2404 c1 -9 9 -19 16 -22 9 -3 13 2 10 14 -1 9 -9 19 -16 22 -9
3 -13 -2 -10 -14z"/>
<path d="M200 2411 c0 -12 29 -35 36 -28 11 10 -5 37 -21 37 -8 0 -15 -4 -15
-9z"/>
<path d="M76 2394 c-10 -27 -7 -56 7 -52 14 5 23 68 9 68 -6 0 -13 -7 -16 -16z"/>
<path d="M122 2389 c1 -12 9 -24 16 -27 9 -3 13 3 10 19 -1 12 -9 24 -16 27
-9 3 -13 -3 -10 -19z"/>
<path d="M135 2164 c-9 -21 -23 -46 -31 -55 -13 -15 -14 -26 -3 -78 11 -59 12
-61 38 -54 14 4 38 7 52 6 22 -2 27 4 37 43 17 64 16 67 -24 62 l-37 -4 32 28
c35 31 32 53 -5 45 -19 -3 -23 0 -21 16 4 36 -22 29 -38 -9z m35 -42 c0 -5
-10 -19 -22 -32 -15 -16 -18 -25 -10 -28 17 -5 15 -22 -2 -22 -23 0 -24 43 -2
68 20 22 36 29 36 14z m35 -62 c-3 -5 -10 -10 -16 -10 -5 0 -9 5 -9 10 0 6 7
10 16 10 8 0 12 -4 9 -10z m-5 -40 c0 -5 -7 -10 -16 -10 -8 0 -12 5 -9 10 3 6
10 10 16 10 5 0 9 -4 9 -10z m-50 -10 c0 -5 -4 -10 -10 -10 -5 0 -10 5 -10 10
0 6 5 10 10 10 6 0 10 -4 10 -10z"/>
<path d="M298 2118 c-55 -12 -64 -29 -15 -27 51 2 90 13 95 27 4 14 -13 14
-80 0z"/>
<path d="M162 1954 c1 -9 9 -19 16 -22 9 -3 13 2 10 14 -1 9 -9 19 -16 22 -9
3 -13 -2 -10 -14z"/>
<path d="M200 1961 c0 -12 29 -35 36 -28 11 10 -5 37 -21 37 -8 0 -15 -4 -15
-9z"/>
<path d="M76 1944 c-10 -27 -7 -56 7 -52 14 5 23 68 9 68 -6 0 -13 -7 -16 -16z"/>
<path d="M122 1939 c1 -12 9 -24 16 -27 9 -3 13 3 10 19 -1 12 -9 24 -16 27
-9 3 -13 -3 -10 -19z"/>
<path d="M135 1714 c-9 -21 -23 -46 -31 -55 -13 -15 -14 -26 -3 -78 11 -59 12
-61 38 -54 14 4 38 7 52 6 22 -2 27 4 37 43 17 64 16 67 -24 62 l-37 -4 32 28
c35 31 32 53 -5 45 -19 -3 -23 0 -21 16 4 36 -22 29 -38 -9z m35 -42 c0 -5
-10 -19 -22 -32 -15 -16 -18 -25 -10 -28 17 -5 15 -22 -2 -22 -23 0 -24 43 -2
68 20 22 36 29 36 14z m35 -62 c-3 -5 -10 -10 -16 -10 -5 0 -9 5 -9 10 0 6 7
10 16 10 8 0 12 -4 9 -10z m-5 -40 c0 -5 -7 -10 -16 -10 -8 0 -12 5 -9 10 3 6
10 10 16 10 5 0 9 -4 9 -10z m-50 -10 c0 -5 -4 -10 -10 -10 -5 0 -10 5 -10 10
0 6 5 10 10 10 6 0 10 -4 10 -10z"/>
<path d="M298 1668 c-55 -12 -64 -29 -15 -27 51 2 90 13 95 27 4 14 -13 14
-80 0z"/>
<path d="M246 1569 c-4 -23 -5 -44 -3 -46 7 -7 127 31 127 41 0 8 -55 1 -86
-11 -11 -4 -13 2 -8 26 5 24 3 31 -8 31 -10 0 -18 -14 -22 -41z"/>
<path d="M162 1504 c1 -9 9 -19 16 -22 9 -3 13 2 10 14 -1 9 -9 19 -16 22 -9
3 -13 -2 -10 -14z"/>
<path d="M200 1511 c0 -12 29 -35 36 -28 11 10 -5 37 -21 37 -8 0 -15 -4 -15
-9z"/>
<path d="M76 1494 c-10 -27 -7 -56 7 -52 14 5 23 68 9 68 -6 0 -13 -7 -16 -16z"/>
<path d="M122 1489 c1 -12 9 -24 16 -27 9 -3 13 3 10 19 -1 12 -9 24 -16 27
-9 3 -13 -3 -10 -19z"/>
<path d="M135 1264 c-9 -21 -23 -46 -31 -55 -13 -15 -14 -26 -3 -78 11 -59 12
-61 38 -54 14 4 38 7 52 6 22 -2 27 4 37 43 17 64 16 67 -24 62 l-37 -4 32 28
c35 31 32 53 -5 45 -19 -3 -23 0 -21 16 4 36 -22 29 -38 -9z m35 -42 c0 -5
-10 -19 -22 -32 -15 -16 -18 -25 -10 -28 17 -5 15 -22 -2 -22 -23 0 -24 43 -2
68 20 22 36 29 36 14z m35 -62 c-3 -5 -10 -10 -16 -10 -5 0 -9 5 -9 10 0 6 7
10 16 10 8 0 12 -4 9 -10z m-5 -40 c0 -5 -7 -10 -16 -10 -8 0 -12 5 -9 10 3 6
10 10 16 10 5 0 9 -4 9 -10z m-50 -10 c0 -5 -4 -10 -10 -10 -5 0 -10 5 -10 10
0 6 5 10 10 10 6 0 10 -4 10 -10z"/>
<path d="M298 1218 c-55 -12 -64 -29 -15 -27 51 2 90 13 95 27 4 14 -13 14
-80 0z"/>
<path d="M360 1151 c0 -23 -5 -30 -27 -35 -16 -4 -36 -9 -45 -12 -15 -4 -17
-1 -12 25 5 24 3 31 -8 31 -10 0 -18 -14 -22 -41 -4 -23 -5 -44 -2 -46 3 -3
28 3 57 12 42 14 53 15 60 4 12 -20 21 -5 26 46 5 37 3 45 -11 45 -11 0 -16
-9 -16 -29z"/>
<path d="M162 1054 c1 -9 9 -19 16 -22 9 -3 13 2 10 14 -1 9 -9 19 -16 22 -9
3 -13 -2 -10 -14z"/>
<path d="M200 1061 c0 -12 29 -35 36 -28 11 10 -5 37 -21 37 -8 0 -15 -4 -15
-9z"/>
<path d="M76 1044 c-10 -27 -7 -56 7 -52 14 5 23 68 9 68 -6 0 -13 -7 -16 -16z"/>
<path d="M122 1039 c1 -12 9 -24 16 -27 9 -3 13 3 10 19 -1 12 -9 24 -16 27
-9 3 -13 -3 -10 -19z"/>
<path d="M135 814 c-9 -21 -23 -46 -31 -55 -13 -15 -14 -26 -3 -78 11 -59 12
-61 38 -54 14 4 38 7 52 6 22 -2 27 4 37 43 17 64 16 67 -24 62 l-37 -4 32 28
c35 31 32 53 -5 45 -19 -3 -23 0 -21 16 4 36 -22 29 -38 -9z m35 -42 c0 -5
-10 -19 -22 -32 -15 -16 -18 -25 -10 -28 17 -5 15 -22 -2 -22 -23 0 -24 43 -2
68 20 22 36 29 36 14z m35 -62 c-3 -5 -10 -10 -16 -10 -5 0 -9 5 -9 10 0 6 7
10 16 10 8 0 12 -4 9 -10z m-5 -40 c0 -5 -7 -10 -16 -10 -8 0 -12 5 -9 10 3 6
10 10 16 10 5 0 9 -4 9 -10z m-50 -10 c0 -5 -4 -10 -10 -10 -5 0 -10 5 -10 10
0 6 5 10 10 10 6 0 10 -4 10 -10z"/>
<path d="M298 808 c-2 -36 -7 -44 -25 -46 -31 -5 -29 -22 3 -22 23 0 25 -3 22
-42 -2 -23 -9 -43 -15 -46 -9 -2 -11 5 -7 27 5 24 3 31 -10 31 -9 0 -16 -6
-16 -14 0 -7 -3 -28 -6 -46 -7 -32 -7 -32 25 -25 30 6 31 5 31 -27 0 -45 15
-58 69 -58 63 0 74 9 66 54 -7 37 -25 50 -25 18 0 -24 -19 -42 -45 -42 -28 0
-45 18 -45 47 0 27 28 42 40 22 13 -20 22 -5 27 46 5 37 3 45 -11 45 -11 0
-16 -9 -16 -30 0 -20 -5 -30 -15 -30 -11 0 -15 11 -15 39 0 33 4 40 22 43 12
2 23 9 26 17 3 10 -2 13 -22 9 -26 -5 -27 -4 -24 31 2 27 -1 36 -14 39 -13 3
-17 -6 -20 -40z"/>
<path d="M162 604 c1 -9 9 -19 16 -22 9 -3 13 2 10 14 -1 9 -9 19 -16 22 -9 3
-13 -2 -10 -14z"/>
<path d="M200 611 c0 -12 29 -35 36 -28 11 10 -5 37 -21 37 -8 0 -15 -4 -15
-9z"/>
<path d="M76 594 c-10 -27 -7 -56 7 -52 14 5 23 68 9 68 -6 0 -13 -7 -16 -16z"/>
<path d="M122 589 c1 -12 9 -24 16 -27 9 -3 13 3 10 19 -1 12 -9 24 -16 27 -9
3 -13 -3 -10 -19z"/>
</g>
</svg>
