<?xml version="1.0" standalone="no"?>
<!DOCTYPE svg PUBLIC "-//W3C//DTD SVG 20010904//EN"
 "http://www.w3.org/TR/2001/REC-SVG-20010904/DTD/svg10.dtd">
<svg version="1.0" xmlns="http://www.w3.org/2000/svg"
 width="95.000000pt" height="725.000000pt" viewBox="0 0 95.000000 725.000000"
 preserveAspectRatio="xMidYMid meet">
<metadata>
Created by potrace 1.16, written by Peter Selinger 2001-2019
</metadata>
<g transform="translate(0.000000,725.000000) scale(0.100000,-0.100000)"
fill="#000000" stroke="none">
<path d="M133 7102 c-25 -52 -23 -64 6 -38 29 27 46 16 23 -14 -13 -17 -19
-37 -17 -63 2 -20 -1 -37 -6 -37 -5 0 -9 16 -9 35 0 25 -4 35 -16 35 -13 0
-14 -8 -8 -47 3 -27 7 -49 8 -49 0 -1 16 1 34 3 26 4 31 9 27 24 -5 13 -1 19
10 19 12 0 15 -6 10 -20 -4 -14 -2 -20 9 -20 8 0 17 13 21 30 4 17 11 27 16
24 13 -7 49 24 49 43 0 22 -27 15 -35 -9 -5 -18 -8 -19 -12 -8 -9 22 -25 30
-48 24 -17 -5 -15 -1 9 24 31 33 27 57 -9 48 -19 -5 -22 -2 -17 19 8 43 -21
28 -45 -23z m77 -102 c0 -5 -7 -10 -15 -10 -8 0 -15 5 -15 10 0 6 7 10 15 10
8 0 15 -4 15 -10z"/>
<path d="M583 7102 c-12 -25 -20 -49 -17 -52 9 -8 64 62 64 82 0 33 -25 17
-47 -30z"/>
<path d="M292 7108 c2 -19 -2 -24 -24 -26 -16 -2 -28 -8 -28 -14 0 -7 24 -8
73 -3 39 3 74 8 76 10 10 11 -14 26 -34 21 -17 -4 -24 -1 -28 14 -7 29 -39 26
-35 -2z"/>
<path d="M340 7042 c0 -12 34 -42 48 -42 19 0 14 28 -7 40 -24 12 -41 13 -41
2z"/>
<path d="M326 6975 c-7 -34 -7 -34 -26 -15 -38 38 -54 22 -18 -17 21 -22 21
-23 3 -43 -10 -11 -26 -22 -36 -25 -11 -4 -19 -11 -19 -16 0 -17 28 -9 59 16
l30 26 17 -26 c13 -20 24 -25 60 -25 49 0 59 15 17 25 -16 3 -39 14 -53 25
-24 18 -24 18 -7 56 15 30 16 39 5 45 -21 14 -25 11 -32 -26z"/>
<path d="M162 6899 c1 -12 9 -24 16 -27 9 -3 13 3 10 19 -1 12 -9 24 -16 27
-9 3 -13 -3 -10 -19z"/>
<path d="M200 6905 c0 -16 27 -32 37 -21 7 7 -16 36 -28 36 -5 0 -9 -7 -9 -15z"/>
<path d="M122 6889 c1 -12 9 -24 16 -27 9 -3 13 3 10 19 -1 12 -9 24 -16 27
-9 3 -13 -3 -10 -19z"/>
<path d="M74 6875 c-7 -29 -1 -41 15 -30 14 8 14 55 1 55 -5 0 -12 -11 -16
-25z"/>
<path d="M583 6652 c-24 -51 -23 -64 5 -39 30 27 47 22 27 -9 -26 -40 -8 -42
32 -2 38 38 37 64 -2 54 -19 -5 -22 -2 -17 19 8 43 -21 28 -45 -23z"/>
<path d="M583 6202 c-24 -51 -23 -64 5 -39 30 27 47 22 27 -9 -26 -40 -8 -42
32 -2 38 38 37 64 -2 54 -19 -5 -22 -2 -17 19 8 43 -21 28 -45 -23z"/>
<path d="M553 6090 c4 -18 7 -41 7 -51 0 -11 5 -19 11 -19 16 0 7 93 -10 98
-11 4 -13 -3 -8 -28z"/>
<path d="M583 5752 c-25 -52 -23 -64 6 -38 30 27 46 15 22 -16 -28 -35 -27
-38 13 -38 34 0 34 0 29 -40 -8 -55 11 -51 27 6 15 51 4 69 -35 58 -17 -5 -15
-1 9 24 31 33 27 57 -9 48 -19 -5 -22 -2 -17 19 8 43 -21 28 -45 -23z"/>
<path d="M554 5639 c3 -17 6 -40 6 -50 0 -11 5 -19 10 -19 6 0 10 23 10 50 0
39 -3 50 -16 50 -13 0 -15 -7 -10 -31z"/>
<path d="M583 5302 c-25 -52 -23 -64 6 -38 30 27 46 15 22 -16 -28 -35 -27
-38 14 -38 19 0 35 -4 35 -10 0 -5 -16 -10 -35 -10 -19 0 -35 -4 -35 -10 0 -5
14 -10 30 -10 23 0 30 -4 30 -20 0 -36 17 -21 30 26 15 51 4 69 -35 58 -17 -5
-15 -1 9 24 31 33 27 57 -9 48 -19 -5 -22 -2 -17 19 8 43 -21 28 -45 -23z"/>
<path d="M554 5189 c3 -17 6 -40 6 -50 0 -11 5 -19 10 -19 6 0 10 23 10 50 0
39 -3 50 -16 50 -13 0 -15 -7 -10 -31z"/>
<path d="M583 4852 c-25 -52 -23 -64 6 -38 29 27 46 16 23 -14 -16 -22 -19
-42 -13 -97 2 -18 21 -16 21 2 0 8 7 15 15 15 8 0 15 -9 15 -20 0 -36 17 -21
30 26 15 51 4 69 -35 58 -17 -5 -15 -1 9 24 31 33 27 57 -9 48 -19 -5 -22 -2
-17 19 8 43 -21 28 -45 -23z m77 -102 c0 -5 -7 -10 -15 -10 -8 0 -15 5 -15 10
0 6 7 10 15 10 8 0 15 -4 15 -10z"/>
<path d="M554 4739 c3 -17 6 -40 6 -50 0 -11 5 -19 10 -19 6 0 10 23 10 50 0
39 -3 50 -16 50 -13 0 -15 -7 -10 -31z"/>
<path d="M583 4402 c-25 -52 -23 -64 6 -38 29 27 46 16 23 -14 -13 -17 -19
-37 -17 -63 2 -20 -1 -37 -6 -37 -5 0 -9 16 -9 35 0 25 -4 35 -16 35 -13 0
-14 -8 -8 -47 3 -27 7 -49 8 -49 0 -1 16 1 34 3 26 4 31 9 27 24 -5 13 -1 19
10 19 12 0 15 -6 10 -20 -4 -14 -2 -20 8 -20 9 0 20 19 27 46 15 51 4 69 -35
58 -17 -5 -15 -1 9 24 31 33 27 57 -9 48 -19 -5 -22 -2 -17 19 8 43 -21 28
-45 -23z m77 -102 c0 -5 -7 -10 -15 -10 -8 0 -15 5 -15 10 0 6 7 10 15 10 8 0
15 -4 15 -10z"/>
<path d="M583 3952 c-25 -52 -23 -64 6 -38 29 27 46 16 23 -14 -13 -17 -19
-37 -17 -63 2 -20 -1 -37 -6 -37 -5 0 -9 16 -9 35 0 25 -4 35 -16 35 -13 0
-14 -8 -8 -47 3 -27 7 -49 8 -49 0 -1 16 1 34 3 26 4 31 9 27 24 -5 13 -1 19
10 19 12 0 15 -6 10 -20 -4 -14 -2 -20 8 -20 9 0 20 19 27 46 15 51 4 69 -35
58 -17 -5 -15 -1 9 24 31 33 27 57 -9 48 -19 -5 -22 -2 -17 19 8 43 -21 28
-45 -23z m77 -102 c0 -5 -7 -10 -15 -10 -8 0 -15 5 -15 10 0 6 7 10 15 10 8 0
15 -4 15 -10z"/>
<path d="M524 3725 c-7 -29 -1 -41 15 -30 14 8 14 55 1 55 -5 0 -12 -11 -16
-25z"/>
<path d="M583 3502 c-25 -52 -23 -64 6 -38 29 27 46 16 23 -14 -13 -17 -19
-37 -17 -63 2 -20 -1 -37 -6 -37 -5 0 -9 16 -9 35 0 25 -4 35 -16 35 -13 0
-14 -8 -8 -47 3 -27 7 -49 8 -49 0 -1 16 1 34 3 26 4 31 9 27 24 -5 13 -1 19
10 19 12 0 15 -6 10 -20 -4 -14 -2 -20 8 -20 9 0 20 19 27 46 15 51 4 69 -35
58 -17 -5 -15 -1 9 24 31 33 27 57 -9 48 -19 -5 -22 -2 -17 19 8 43 -21 28
-45 -23z m77 -102 c0 -5 -7 -10 -15 -10 -8 0 -15 5 -15 10 0 6 7 10 15 10 8 0
15 -4 15 -10z"/>
<path d="M572 3289 c1 -12 9 -24 16 -27 9 -3 13 3 10 19 -1 12 -9 24 -16 27
-9 3 -13 -3 -10 -19z"/>
<path d="M524 3275 c-7 -29 -1 -41 15 -30 14 8 14 55 1 55 -5 0 -12 -11 -16
-25z"/>
<path d="M583 3052 c-25 -52 -23 -64 6 -38 29 27 46 16 23 -14 -13 -17 -19
-37 -17 -63 2 -20 -1 -37 -6 -37 -5 0 -9 16 -9 35 0 25 -4 35 -16 35 -13 0
-14 -8 -8 -47 3 -27 7 -49 8 -49 0 -1 16 1 34 3 26 4 31 9 27 24 -5 13 -1 19
10 19 12 0 15 -6 10 -20 -4 -14 -2 -20 8 -20 9 0 20 19 27 46 15 51 4 69 -35
58 -17 -5 -15 -1 9 24 31 33 27 57 -9 48 -19 -5 -22 -2 -17 19 8 43 -21 28
-45 -23z m77 -102 c0 -5 -7 -10 -15 -10 -8 0 -15 5 -15 10 0 6 7 10 15 10 8 0
15 -4 15 -10z"/>
<path d="M612 2849 c1 -12 9 -24 16 -27 9 -3 13 3 10 19 -1 12 -9 24 -16 27
-9 3 -13 -3 -10 -19z"/>
<path d="M572 2839 c1 -12 9 -24 16 -27 9 -3 13 3 10 19 -1 12 -9 24 -16 27
-9 3 -13 -3 -10 -19z"/>
<path d="M524 2825 c-7 -29 -1 -41 15 -30 14 8 14 55 1 55 -5 0 -12 -11 -16
-25z"/>
<path d="M583 2602 c-25 -52 -23 -64 6 -38 29 27 46 16 23 -14 -13 -17 -19
-37 -17 -63 2 -20 -1 -37 -6 -37 -5 0 -9 16 -9 35 0 25 -4 35 -16 35 -13 0
-14 -8 -8 -47 3 -27 7 -49 8 -49 0 -1 16 1 34 3 26 4 31 9 27 24 -5 13 -1 19
10 19 12 0 15 -6 10 -20 -4 -14 -2 -20 8 -20 9 0 20 19 27 46 15 51 4 69 -35
58 -17 -5 -15 -1 9 24 31 33 27 57 -9 48 -19 -5 -22 -2 -17 19 8 43 -21 28
-45 -23z m77 -102 c0 -5 -7 -10 -15 -10 -8 0 -15 5 -15 10 0 6 7 10 15 10 8 0
15 -4 15 -10z"/>
<path d="M612 2399 c1 -12 9 -24 16 -27 9 -3 13 3 10 19 -1 12 -9 24 -16 27
-9 3 -13 -3 -10 -19z"/>
<path d="M650 2405 c0 -16 27 -32 37 -21 7 7 -16 36 -28 36 -5 0 -9 -7 -9 -15z"/>
<path d="M572 2389 c1 -12 9 -24 16 -27 9 -3 13 3 10 19 -1 12 -9 24 -16 27
-9 3 -13 -3 -10 -19z"/>
<path d="M524 2375 c-7 -29 -1 -41 15 -30 14 8 14 55 1 55 -5 0 -12 -11 -16
-25z"/>
<path d="M583 2152 c-25 -52 -23 -64 6 -38 29 27 46 16 23 -14 -13 -17 -19
-37 -17 -63 2 -20 -1 -37 -6 -37 -5 0 -9 16 -9 35 0 25 -4 35 -16 35 -13 0
-14 -8 -8 -47 3 -27 7 -49 8 -49 0 -1 16 1 34 3 26 4 31 9 27 24 -5 13 -1 19
10 19 12 0 15 -6 10 -20 -4 -14 -2 -20 8 -20 9 0 20 19 27 46 15 51 4 69 -35
58 -17 -5 -15 -1 9 24 31 33 27 57 -9 48 -19 -5 -22 -2 -17 19 8 43 -21 28
-45 -23z m77 -102 c0 -5 -7 -10 -15 -10 -8 0 -15 5 -15 10 0 6 7 10 15 10 8 0
15 -4 15 -10z"/>
<path d="M740 2172 c0 -22 13 -42 27 -42 21 0 12 44 -9 48 -10 2 -18 -1 -18
-6z"/>
<path d="M612 1949 c1 -12 9 -24 16 -27 9 -3 13 3 10 19 -1 12 -9 24 -16 27
-9 3 -13 -3 -10 -19z"/>
<path d="M650 1955 c0 -16 27 -32 37 -21 7 7 -16 36 -28 36 -5 0 -9 -7 -9 -15z"/>
<path d="M572 1939 c1 -12 9 -24 16 -27 9 -3 13 3 10 19 -1 12 -9 24 -16 27
-9 3 -13 -3 -10 -19z"/>
<path d="M524 1925 c-7 -29 -1 -41 15 -30 14 8 14 55 1 55 -5 0 -12 -11 -16
-25z"/>
<path d="M583 1702 c-25 -52 -23 -64 6 -38 29 27 46 16 23 -14 -13 -17 -19
-37 -17 -63 2 -20 -1 -37 -6 -37 -5 0 -9 16 -9 35 0 25 -4 35 -16 35 -13 0
-14 -8 -8 -47 3 -27 7 -49 8 -49 0 -1 16 1 34 3 26 4 31 9 27 24 -5 13 -1 19
10 19 12 0 15 -6 10 -20 -4 -14 -2 -20 8 -20 9 0 20 19 27 46 15 51 4 69 -35
58 -17 -5 -15 -1 9 24 31 33 27 57 -9 48 -19 -5 -22 -2 -17 19 8 43 -21 28
-45 -23z m77 -102 c0 -5 -7 -10 -15 -10 -8 0 -15 5 -15 10 0 6 7 10 15 10 8 0
15 -4 15 -10z"/>
<path d="M742 1708 c2 -19 -2 -24 -24 -26 -16 -2 -28 -8 -28 -14 0 -7 24 -8
73 -3 39 3 74 8 76 10 10 11 -14 26 -34 21 -17 -4 -24 -1 -28 14 -7 29 -39 26
-35 -2z"/>
<path d="M612 1499 c1 -12 9 -24 16 -27 9 -3 13 3 10 19 -1 12 -9 24 -16 27
-9 3 -13 -3 -10 -19z"/>
<path d="M650 1505 c0 -16 27 -32 37 -21 7 7 -16 36 -28 36 -5 0 -9 -7 -9 -15z"/>
<path d="M572 1489 c1 -12 9 -24 16 -27 9 -3 13 3 10 19 -1 12 -9 24 -16 27
-9 3 -13 -3 -10 -19z"/>
<path d="M524 1475 c-7 -29 -1 -41 15 -30 14 8 14 55 1 55 -5 0 -12 -11 -16
-25z"/>
<path d="M583 1252 c-25 -52 -23 -64 6 -38 29 27 46 16 23 -14 -13 -17 -19
-37 -17 -63 2 -20 -1 -37 -6 -37 -5 0 -9 16 -9 35 0 25 -4 35 -16 35 -13 0
-14 -8 -8 -47 3 -27 7 -49 8 -49 0 -1 16 1 34 3 26 4 31 9 27 24 -5 13 -1 19
10 19 12 0 15 -6 10 -20 -4 -14 -2 -20 9 -20 8 0 17 13 21 30 4 17 11 27 16
24 13 -7 49 24 49 43 0 22 -27 15 -35 -9 -5 -18 -8 -19 -12 -8 -9 22 -25 30
-48 24 -17 -5 -15 -1 9 24 31 33 27 57 -9 48 -19 -5 -22 -2 -17 19 8 43 -21
28 -45 -23z m77 -102 c0 -5 -7 -10 -15 -10 -8 0 -15 5 -15 10 0 6 7 10 15 10
8 0 15 -4 15 -10z"/>
<path d="M742 1258 c2 -19 -2 -24 -24 -26 -16 -2 -28 -8 -28 -14 0 -7 24 -8
73 -3 39 3 74 8 76 10 10 11 -14 26 -34 21 -17 -4 -24 -1 -28 14 -7 29 -39 26
-35 -2z"/>
<path d="M612 1049 c1 -12 9 -24 16 -27 9 -3 13 3 10 19 -1 12 -9 24 -16 27
-9 3 -13 -3 -10 -19z"/>
<path d="M650 1055 c0 -16 27 -32 37 -21 7 7 -16 36 -28 36 -5 0 -9 -7 -9 -15z"/>
<path d="M572 1039 c1 -12 9 -24 16 -27 9 -3 13 3 10 19 -1 12 -9 24 -16 27
-9 3 -13 -3 -10 -19z"/>
<path d="M524 1025 c-7 -29 -1 -41 15 -30 14 8 14 55 1 55 -5 0 -12 -11 -16
-25z"/>
<path d="M583 802 c-25 -52 -23 -64 6 -38 29 27 46 16 23 -14 -13 -17 -19 -37
-17 -63 2 -20 -1 -37 -6 -37 -5 0 -9 16 -9 35 0 25 -4 35 -16 35 -13 0 -14 -8
-8 -47 3 -27 7 -49 8 -49 0 -1 16 1 34 3 26 4 31 9 27 24 -5 13 -1 19 10 19
12 0 15 -6 10 -20 -4 -14 -2 -20 9 -20 8 0 17 13 21 30 4 17 11 27 16 24 13
-7 49 24 49 43 0 22 -27 15 -35 -9 -5 -18 -8 -19 -12 -8 -9 22 -25 30 -48 24
-17 -5 -15 -1 9 24 31 33 27 57 -9 48 -19 -5 -22 -2 -17 19 8 43 -21 28 -45
-23z m77 -102 c0 -5 -7 -10 -15 -10 -8 0 -15 5 -15 10 0 6 7 10 15 10 8 0 15
-4 15 -10z"/>
<path d="M742 808 c2 -19 -2 -24 -24 -26 -16 -2 -28 -8 -28 -14 0 -7 24 -8 73
-3 39 3 74 8 76 10 10 11 -14 26 -34 21 -17 -4 -24 -1 -28 14 -7 29 -39 26
-35 -2z"/>
<path d="M790 742 c0 -12 34 -42 48 -42 19 0 14 28 -7 40 -24 12 -41 13 -41 2z"/>
<path d="M612 599 c1 -12 9 -24 16 -27 9 -3 13 3 10 19 -1 12 -9 24 -16 27 -9
3 -13 -3 -10 -19z"/>
<path d="M650 605 c0 -16 27 -32 37 -21 7 7 -16 36 -28 36 -5 0 -9 -7 -9 -15z"/>
<path d="M572 589 c1 -12 9 -24 16 -27 9 -3 13 3 10 19 -1 12 -9 24 -16 27 -9
3 -13 -3 -10 -19z"/>
<path d="M524 575 c-7 -29 -1 -41 15 -30 14 8 14 55 1 55 -5 0 -12 -11 -16
-25z"/>
<path d="M583 352 c-25 -52 -23 -64 6 -38 29 27 46 16 23 -14 -13 -17 -19 -37
-17 -63 2 -20 -1 -37 -6 -37 -5 0 -9 16 -9 35 0 25 -4 35 -16 35 -13 0 -14 -8
-8 -47 3 -27 7 -49 8 -49 0 -1 16 1 34 3 26 4 31 9 27 24 -5 13 -1 19 10 19
12 0 15 -6 10 -20 -4 -14 -2 -20 9 -20 8 0 17 13 21 30 4 17 11 27 16 24 13
-7 49 24 49 43 0 22 -27 15 -35 -9 -5 -18 -8 -19 -12 -8 -9 22 -25 30 -48 24
-17 -5 -15 -1 9 24 31 33 27 57 -9 48 -19 -5 -22 -2 -17 19 8 43 -21 28 -45
-23z m77 -102 c0 -5 -7 -10 -15 -10 -8 0 -15 5 -15 10 0 6 7 10 15 10 8 0 15
-4 15 -10z"/>
<path d="M742 358 c2 -19 -2 -24 -24 -26 -16 -2 -28 -8 -28 -14 0 -7 24 -8 73
-3 39 3 74 8 76 10 10 11 -14 26 -34 21 -17 -4 -24 -1 -28 14 -7 29 -39 26
-35 -2z"/>
<path d="M790 292 c0 -12 34 -42 48 -42 19 0 14 28 -7 40 -24 12 -41 13 -41 2z"/>
<path d="M776 228 c-8 -38 -49 -94 -76 -103 -23 -7 -27 -25 -5 -25 43 0 142
133 113 151 -21 14 -25 11 -32 -23z"/>
<path d="M612 149 c1 -12 9 -24 16 -27 9 -3 13 3 10 19 -1 12 -9 24 -16 27 -9
3 -13 -3 -10 -19z"/>
<path d="M650 155 c0 -16 27 -32 37 -21 7 7 -16 36 -28 36 -5 0 -9 -7 -9 -15z"/>
<path d="M572 139 c1 -12 9 -24 16 -27 9 -3 13 3 10 19 -1 12 -9 24 -16 27 -9
3 -13 -3 -10 -19z"/>
<path d="M524 125 c-7 -29 -1 -41 15 -30 14 8 14 55 1 55 -5 0 -12 -11 -16
-25z"/>
</g>
</svg>
