<?xml version="1.0" standalone="no"?>
<!DOCTYPE svg PUBLIC "-//W3C//DTD SVG 20010904//EN"
 "http://www.w3.org/TR/2001/REC-SVG-20010904/DTD/svg10.dtd">
<svg version="1.0" xmlns="http://www.w3.org/2000/svg"
 width="95.000000pt" height="725.000000pt" viewBox="0 0 95.000000 725.000000"
 preserveAspectRatio="xMidYMid meet">
<metadata>
Created by potrace 1.16, written by Peter Selinger 2001-2019
</metadata>
<g transform="translate(0.000000,725.000000) scale(0.100000,-0.100000)"
fill="#000000" stroke="none">
<path d="M310 7141 c0 -21 -6 -32 -20 -36 -11 -3 -20 -11 -20 -17 0 -6 9 -8
20 -5 11 3 20 1 20 -4 0 -5 -9 -9 -20 -9 -11 0 -20 -4 -20 -10 0 -5 9 -10 20
-10 11 0 20 -4 20 -10 0 -16 -56 -12 -71 6 -7 9 -21 13 -32 10 -16 -4 -14 1 9
25 24 25 26 31 14 39 -8 6 -21 8 -27 5 -7 -2 -13 3 -13 11 0 27 -30 11 -52
-28 -25 -43 -18 -60 12 -33 11 10 23 15 27 12 11 -12 -29 -47 -54 -47 -22 0
-23 -3 -17 -42 4 -24 9 -46 13 -49 3 -3 29 -4 58 -1 47 4 52 6 55 30 3 26 5
27 101 36 104 10 127 23 50 29 -39 3 -44 5 -25 11 12 5 22 12 22 17 0 5 -10 9
-22 10 -21 1 -20 2 5 11 34 12 36 32 2 26 -22 -5 -25 -2 -25 23 0 19 -5 29
-15 29 -10 0 -15 -10 -15 -29z m-100 -121 c0 -5 -7 -10 -15 -10 -8 0 -15 5
-15 10 0 6 7 10 15 10 8 0 15 -4 15 -10z m-50 -4 c0 -2 -7 -6 -15 -10 -8 -3
-15 -1 -15 4 0 6 7 10 15 10 8 0 15 -2 15 -4z m0 -36 c0 -5 -7 -10 -16 -10 -8
0 -12 5 -9 10 3 6 10 10 16 10 5 0 9 -4 9 -10z m47 4 c-3 -3 -12 -4 -19 -1 -8
3 -5 6 6 6 11 1 17 -2 13 -5z"/>
<path d="M591 7114 c-23 -38 -26 -54 -12 -54 12 0 61 63 61 78 0 25 -29 11
-49 -24z"/>
<path d="M304 7003 l-41 -4 4 -44 c4 -28 0 -54 -11 -76 -20 -40 -13 -50 16
-22 14 14 22 39 26 72 4 45 7 51 27 51 18 0 25 -7 30 -30 9 -40 -3 -90 -21
-90 -8 0 -14 -4 -14 -8 0 -14 23 -32 42 -32 15 0 18 10 20 70 1 39 2 80 2 93
1 24 -9 27 -80 20z"/>
<path d="M204 6924 c6 -14 4 -15 -10 -4 -13 11 -17 11 -24 1 -5 -9 -10 -10
-14 -2 -4 6 -11 11 -17 11 -11 0 -11 -21 0 -39 8 -12 12 -12 24 -2 12 9 16 9
19 -1 4 -10 8 -10 21 1 11 9 17 10 17 2 0 -6 5 -11 10 -11 16 0 11 47 -6 54
-24 9 -27 8 -20 -10z"/>
<path d="M86 6904 c-10 -27 -7 -44 9 -44 10 0 15 10 15 30 0 32 -14 40 -24 14z"/>
<path d="M310 6691 c0 -21 -6 -32 -20 -36 -11 -3 -20 -11 -20 -17 0 -6 9 -8
20 -5 11 3 20 1 20 -4 0 -5 -9 -9 -20 -9 -11 0 -20 -4 -20 -10 0 -5 9 -10 20
-10 11 0 20 -4 20 -10 0 -16 -56 -12 -71 6 -7 9 -21 13 -32 10 -16 -4 -14 1 9
25 24 25 26 31 14 39 -8 6 -21 8 -27 5 -7 -2 -13 3 -13 11 0 27 -30 11 -52
-28 -25 -43 -18 -60 12 -33 11 10 23 15 27 12 11 -12 -29 -47 -54 -47 -22 0
-23 -3 -17 -42 4 -24 9 -46 13 -49 3 -3 29 -4 58 -1 47 4 52 6 55 30 3 26 5
27 101 36 104 10 127 23 50 29 -39 3 -44 5 -25 11 12 5 22 12 22 17 0 5 -10 9
-22 10 -21 1 -20 2 5 11 34 12 36 32 2 26 -22 -5 -25 -2 -25 23 0 19 -5 29
-15 29 -10 0 -15 -10 -15 -29z m-100 -121 c0 -5 -7 -10 -15 -10 -8 0 -15 5
-15 10 0 6 7 10 15 10 8 0 15 -4 15 -10z m-50 -4 c0 -2 -7 -6 -15 -10 -8 -3
-15 -1 -15 4 0 6 7 10 15 10 8 0 15 -2 15 -4z m0 -36 c0 -5 -7 -10 -16 -10 -8
0 -12 5 -9 10 3 6 10 10 16 10 5 0 9 -4 9 -10z m47 4 c-3 -3 -12 -4 -19 -1 -8
3 -5 6 6 6 11 1 17 -2 13 -5z"/>
<path d="M591 6664 c-31 -53 -26 -71 11 -37 22 19 36 10 18 -12 -28 -34 3 -27
38 8 31 31 34 39 22 47 -8 5 -21 8 -27 5 -7 -2 -13 2 -13 10 0 27 -28 15 -49
-21z"/>
<path d="M304 6553 l-41 -4 4 -44 c4 -28 0 -54 -11 -76 -9 -18 -14 -34 -11
-37 11 -11 45 33 51 64 5 29 10 34 35 34 21 0 29 -5 29 -17 0 -34 -12 -63 -26
-63 -8 0 -14 -4 -14 -8 0 -14 23 -32 42 -32 15 0 18 10 20 70 1 39 2 80 2 93
1 24 -9 27 -80 20z m46 -33 c0 -5 -11 -10 -25 -10 -14 0 -25 5 -25 10 0 6 11
10 25 10 14 0 25 -4 25 -10z"/>
<path d="M204 6474 c6 -14 4 -15 -10 -4 -13 11 -17 11 -24 1 -5 -9 -10 -10
-14 -2 -4 6 -11 11 -17 11 -11 0 -11 -21 0 -39 8 -12 12 -12 24 -2 12 9 16 9
19 -1 4 -10 8 -10 21 1 11 9 17 10 17 2 0 -6 5 -11 10 -11 16 0 11 47 -6 54
-24 9 -27 8 -20 -10z"/>
<path d="M86 6454 c-10 -27 -7 -44 9 -44 10 0 15 10 15 30 0 32 -14 40 -24 14z"/>
<path d="M310 6241 c0 -21 -6 -32 -20 -36 -11 -3 -20 -11 -20 -17 0 -6 9 -8
20 -5 11 3 20 1 20 -4 0 -5 -9 -9 -20 -9 -11 0 -20 -4 -20 -10 0 -5 9 -10 20
-10 11 0 20 -4 20 -10 0 -16 -56 -12 -71 6 -7 9 -21 13 -32 10 -16 -4 -14 1 9
25 24 25 26 31 14 39 -8 6 -21 8 -27 5 -7 -2 -13 3 -13 11 0 27 -30 11 -52
-28 -25 -43 -18 -60 12 -33 11 10 23 15 27 12 11 -12 -29 -47 -54 -47 -22 0
-23 -3 -17 -42 4 -24 9 -46 13 -49 3 -3 29 -4 58 -1 47 4 52 6 55 30 3 26 5
27 101 36 104 10 127 23 50 29 -39 3 -44 5 -25 11 12 5 22 12 22 17 0 5 -10 9
-22 10 -21 1 -20 2 5 11 34 12 36 32 2 26 -22 -5 -25 -2 -25 23 0 19 -5 29
-15 29 -10 0 -15 -10 -15 -29z m-100 -121 c0 -5 -7 -10 -15 -10 -8 0 -15 5
-15 10 0 6 7 10 15 10 8 0 15 -4 15 -10z m-50 -4 c0 -2 -7 -6 -15 -10 -8 -3
-15 -1 -15 4 0 6 7 10 15 10 8 0 15 -2 15 -4z m0 -36 c0 -5 -7 -10 -16 -10 -8
0 -12 5 -9 10 3 6 10 10 16 10 5 0 9 -4 9 -10z m47 4 c-3 -3 -12 -4 -19 -1 -8
3 -5 6 6 6 11 1 17 -2 13 -5z"/>
<path d="M591 6214 c-31 -53 -26 -71 11 -37 22 19 36 10 18 -12 -28 -34 3 -27
38 8 31 31 34 39 22 47 -8 5 -21 8 -27 5 -7 -2 -13 2 -13 10 0 27 -28 15 -49
-21z"/>
<path d="M556 6098 c12 -77 35 -81 27 -5 -4 31 -10 47 -19 47 -11 0 -13 -10
-8 -42z"/>
<path d="M304 6103 l-41 -4 4 -44 c4 -28 0 -54 -11 -76 -9 -18 -14 -34 -11
-37 7 -8 45 29 45 43 0 11 58 30 66 22 8 -8 -10 -47 -22 -47 -8 0 -14 -4 -14
-8 0 -14 23 -32 42 -32 15 0 18 10 20 70 1 39 2 80 2 93 1 24 -9 27 -80 20z
m46 -33 c0 -5 -11 -10 -25 -10 -14 0 -25 5 -25 10 0 6 11 10 25 10 14 0 25 -4
25 -10z m10 -34 c0 -2 -13 -6 -30 -8 -16 -3 -30 -1 -30 4 0 4 14 8 30 8 17 0
30 -2 30 -4z"/>
<path d="M204 6024 c6 -14 4 -15 -10 -4 -13 11 -17 11 -24 1 -5 -9 -10 -10
-14 -2 -4 6 -11 11 -17 11 -11 0 -11 -21 0 -39 8 -12 12 -12 24 -2 12 9 16 9
19 -1 4 -10 8 -10 21 1 11 9 17 10 17 2 0 -6 5 -11 10 -11 16 0 11 47 -6 54
-24 9 -27 8 -20 -10z"/>
<path d="M86 6004 c-10 -27 -7 -44 9 -44 10 0 15 10 15 30 0 32 -14 40 -24 14z"/>
<path d="M591 5764 c-31 -53 -26 -71 11 -37 10 9 21 13 25 10 11 -12 -29 -47
-54 -47 -22 0 -23 -3 -18 -37 9 -53 13 -63 25 -63 6 0 8 15 4 39 -5 34 -4 39
17 44 54 15 62 10 55 -33 -5 -32 -3 -40 9 -40 8 0 15 9 15 21 0 11 5 29 11 40
13 26 -6 53 -34 45 -16 -4 -14 1 9 25 24 25 26 31 14 39 -8 6 -21 8 -27 5 -7
-2 -13 2 -13 10 0 27 -28 15 -49 -21z"/>
<path d="M591 5314 c-31 -53 -26 -71 11 -37 10 9 21 13 25 10 11 -12 -29 -47
-54 -47 -22 0 -23 -3 -18 -37 9 -54 13 -63 25 -63 6 0 10 10 8 23 -3 19 2 22
34 25 32 3 36 1 31 -17 -4 -15 -1 -21 11 -21 10 0 16 8 16 21 0 11 5 29 11 40
13 26 -6 53 -34 45 -16 -4 -14 1 9 25 24 25 26 31 14 39 -8 6 -21 8 -27 5 -7
-2 -13 2 -13 10 0 27 -28 15 -49 -21z m69 -93 c0 -5 -18 -11 -40 -13 -40 -4
-55 7 -22 15 31 8 62 7 62 -2z"/>
<path d="M591 4864 c-31 -53 -26 -71 11 -37 10 9 21 13 25 10 11 -12 -29 -47
-54 -47 -22 0 -23 -3 -18 -37 9 -54 13 -63 25 -63 6 0 10 10 8 22 -2 11 3 23
10 25 6 3 12 -2 12 -11 0 -9 5 -16 10 -16 6 0 10 7 10 15 0 8 6 15 14 15 9 0
12 -7 9 -20 -4 -14 0 -20 11 -20 10 0 16 8 16 21 0 11 5 29 11 40 13 26 -6 53
-34 45 -16 -4 -14 1 9 25 24 25 26 31 14 39 -8 6 -21 8 -27 5 -7 -2 -13 2 -13
10 0 27 -28 15 -49 -21z m69 -94 c0 -5 -7 -10 -15 -10 -8 0 -15 5 -15 10 0 6
7 10 15 10 8 0 15 -4 15 -10z m-50 -4 c0 -2 -7 -6 -15 -10 -8 -3 -15 -1 -15 4
0 6 7 10 15 10 8 0 15 -2 15 -4z"/>
<path d="M591 4414 c-31 -53 -26 -71 11 -37 10 9 21 13 25 10 11 -12 -29 -47
-54 -47 -22 0 -23 -3 -17 -42 4 -24 9 -46 13 -49 3 -3 30 -4 59 -1 44 3 52 7
52 24 0 10 5 28 11 39 13 26 -6 53 -34 45 -16 -4 -14 1 9 25 24 25 26 31 14
39 -8 6 -21 8 -27 5 -7 -2 -13 2 -13 10 0 27 -28 15 -49 -21z m69 -94 c0 -5
-7 -10 -15 -10 -8 0 -15 5 -15 10 0 6 7 10 15 10 8 0 15 -4 15 -10z m-50 -4
c0 -2 -7 -6 -15 -10 -8 -3 -15 -1 -15 4 0 6 7 10 15 10 8 0 15 -2 15 -4z m0
-36 c0 -5 -7 -10 -16 -10 -8 0 -12 5 -9 10 3 6 10 10 16 10 5 0 9 -4 9 -10z
m47 4 c-3 -3 -12 -4 -19 -1 -8 3 -5 6 6 6 11 1 17 -2 13 -5z"/>
<path d="M591 3964 c-31 -53 -26 -71 11 -37 10 9 21 13 25 10 11 -12 -29 -47
-54 -47 -22 0 -23 -3 -17 -42 4 -24 9 -46 13 -49 3 -3 30 -4 59 -1 44 3 52 7
52 24 0 10 5 28 11 39 13 26 -6 53 -34 45 -16 -4 -14 1 9 25 24 25 26 31 14
39 -8 6 -21 8 -27 5 -7 -2 -13 2 -13 10 0 27 -28 15 -49 -21z m69 -94 c0 -5
-7 -10 -15 -10 -8 0 -15 5 -15 10 0 6 7 10 15 10 8 0 15 -4 15 -10z m-50 -4
c0 -2 -7 -6 -15 -10 -8 -3 -15 -1 -15 4 0 6 7 10 15 10 8 0 15 -2 15 -4z m0
-36 c0 -5 -7 -10 -16 -10 -8 0 -12 5 -9 10 3 6 10 10 16 10 5 0 9 -4 9 -10z
m47 4 c-3 -3 -12 -4 -19 -1 -8 3 -5 6 6 6 11 1 17 -2 13 -5z"/>
<path d="M536 3754 c-10 -27 -7 -44 9 -44 10 0 15 10 15 30 0 32 -14 40 -24
14z"/>
<path d="M591 3514 c-31 -53 -26 -71 11 -37 10 9 21 13 25 10 11 -12 -29 -47
-54 -47 -22 0 -23 -3 -17 -42 4 -24 9 -46 13 -49 3 -3 30 -4 59 -1 44 3 52 7
52 24 0 10 5 28 11 39 13 26 -6 53 -34 45 -16 -4 -14 1 9 25 24 25 26 31 14
39 -8 6 -21 8 -27 5 -7 -2 -13 2 -13 10 0 27 -28 15 -49 -21z m69 -94 c0 -5
-7 -10 -15 -10 -8 0 -15 5 -15 10 0 6 7 10 15 10 8 0 15 -4 15 -10z m-50 -4
c0 -2 -7 -6 -15 -10 -8 -3 -15 -1 -15 4 0 6 7 10 15 10 8 0 15 -2 15 -4z m0
-36 c0 -5 -7 -10 -16 -10 -8 0 -12 5 -9 10 3 6 10 10 16 10 5 0 9 -4 9 -10z
m47 4 c-3 -3 -12 -4 -19 -1 -8 3 -5 6 6 6 11 1 17 -2 13 -5z"/>
<path d="M580 3318 c0 -7 5 -20 10 -28 7 -12 12 -12 21 -3 9 9 9 16 -1 28 -15
18 -30 20 -30 3z"/>
<path d="M536 3304 c-10 -27 -7 -44 9 -44 10 0 15 10 15 30 0 32 -14 40 -24
14z"/>
<path d="M591 3064 c-31 -53 -26 -71 11 -37 10 9 21 13 25 10 11 -12 -29 -47
-54 -47 -22 0 -23 -3 -17 -42 4 -24 9 -46 13 -49 3 -3 30 -4 59 -1 44 3 52 7
52 24 0 10 5 28 11 39 13 26 -6 53 -34 45 -16 -4 -14 1 9 25 24 25 26 31 14
39 -8 6 -21 8 -27 5 -7 -2 -13 2 -13 10 0 27 -28 15 -49 -21z m69 -94 c0 -5
-7 -10 -15 -10 -8 0 -15 5 -15 10 0 6 7 10 15 10 8 0 15 -4 15 -10z m-50 -4
c0 -2 -7 -6 -15 -10 -8 -3 -15 -1 -15 4 0 6 7 10 15 10 8 0 15 -2 15 -4z m0
-36 c0 -5 -7 -10 -16 -10 -8 0 -12 5 -9 10 3 6 10 10 16 10 5 0 9 -4 9 -10z
m47 4 c-3 -3 -12 -4 -19 -1 -8 3 -5 6 6 6 11 1 17 -2 13 -5z"/>
<path d="M580 2868 c0 -7 4 -19 9 -27 8 -12 12 -12 24 -2 12 9 16 9 20 -1 4
-10 7 -11 18 0 11 10 10 15 -4 30 -15 14 -19 15 -26 3 -6 -9 -11 -10 -15 -2
-10 15 -26 14 -26 -1z"/>
<path d="M536 2854 c-10 -27 -7 -44 9 -44 10 0 15 10 15 30 0 32 -14 40 -24
14z"/>
<path d="M591 2614 c-31 -53 -26 -71 11 -37 10 9 21 13 25 10 11 -12 -29 -47
-54 -47 -22 0 -23 -3 -17 -42 4 -24 9 -46 13 -49 3 -3 30 -4 59 -1 44 3 52 7
52 24 0 10 5 28 11 39 13 26 -6 53 -34 45 -16 -4 -14 1 9 25 24 25 26 31 14
39 -8 6 -21 8 -27 5 -7 -2 -13 2 -13 10 0 27 -28 15 -49 -21z m69 -94 c0 -5
-7 -10 -15 -10 -8 0 -15 5 -15 10 0 6 7 10 15 10 8 0 15 -4 15 -10z m-50 -4
c0 -2 -7 -6 -15 -10 -8 -3 -15 -1 -15 4 0 6 7 10 15 10 8 0 15 -2 15 -4z m0
-36 c0 -5 -7 -10 -16 -10 -8 0 -12 5 -9 10 3 6 10 10 16 10 5 0 9 -4 9 -10z
m47 4 c-3 -3 -12 -4 -19 -1 -8 3 -5 6 6 6 11 1 17 -2 13 -5z"/>
<path d="M654 2424 c6 -14 4 -15 -10 -4 -13 11 -17 11 -24 1 -5 -9 -10 -10
-14 -2 -4 6 -11 11 -17 11 -11 0 -11 -21 0 -39 8 -12 12 -12 24 -2 12 9 16 9
19 -1 4 -10 8 -10 21 1 11 9 17 10 17 2 0 -6 5 -11 10 -11 16 0 11 47 -6 54
-24 9 -27 8 -20 -10z"/>
<path d="M536 2404 c-10 -27 -7 -44 9 -44 10 0 15 10 15 30 0 32 -14 40 -24
14z"/>
<path d="M591 2164 c-31 -53 -26 -71 11 -37 10 9 21 13 25 10 11 -12 -29 -47
-54 -47 -22 0 -23 -3 -17 -42 4 -24 9 -46 13 -49 3 -3 30 -4 59 -1 44 3 52 7
52 24 0 10 5 28 11 39 13 26 -6 53 -34 45 -16 -4 -14 1 9 25 24 25 26 31 14
39 -8 6 -21 8 -27 5 -7 -2 -13 2 -13 10 0 27 -28 15 -49 -21z m69 -94 c0 -5
-7 -10 -15 -10 -8 0 -15 5 -15 10 0 6 7 10 15 10 8 0 15 -4 15 -10z m-50 -4
c0 -2 -7 -6 -15 -10 -8 -3 -15 -1 -15 4 0 6 7 10 15 10 8 0 15 -2 15 -4z m0
-36 c0 -5 -7 -10 -16 -10 -8 0 -12 5 -9 10 3 6 10 10 16 10 5 0 9 -4 9 -10z
m47 4 c-3 -3 -12 -4 -19 -1 -8 3 -5 6 6 6 11 1 17 -2 13 -5z"/>
<path d="M785 2163 c-11 -2 -30 -6 -42 -9 -40 -8 -26 -25 15 -19 68 11 82 15
82 25 0 10 -18 11 -55 3z"/>
<path d="M654 1974 c6 -14 4 -15 -10 -4 -13 11 -17 11 -24 1 -5 -9 -10 -10
-14 -2 -4 6 -11 11 -17 11 -11 0 -11 -21 0 -39 8 -12 12 -12 24 -2 12 9 16 9
19 -1 4 -10 8 -10 21 1 11 9 17 10 17 2 0 -6 5 -11 10 -11 16 0 11 47 -6 54
-24 9 -27 8 -20 -10z"/>
<path d="M536 1954 c-10 -27 -7 -44 9 -44 10 0 15 10 15 30 0 32 -14 40 -24
14z"/>
<path d="M591 1714 c-31 -53 -26 -71 11 -37 10 9 21 13 25 10 11 -12 -29 -47
-54 -47 -22 0 -23 -3 -17 -42 4 -24 9 -46 13 -49 3 -3 30 -4 59 -1 44 3 52 7
52 24 0 10 5 28 11 39 13 26 -6 53 -34 45 -16 -4 -14 1 9 25 24 25 26 31 14
39 -8 6 -21 8 -27 5 -7 -2 -13 2 -13 10 0 27 -28 15 -49 -21z m69 -94 c0 -5
-7 -10 -15 -10 -8 0 -15 5 -15 10 0 6 7 10 15 10 8 0 15 -4 15 -10z m-50 -4
c0 -2 -7 -6 -15 -10 -8 -3 -15 -1 -15 4 0 6 7 10 15 10 8 0 15 -2 15 -4z m0
-36 c0 -5 -7 -10 -16 -10 -8 0 -12 5 -9 10 3 6 10 10 16 10 5 0 9 -4 9 -10z
m47 4 c-3 -3 -12 -4 -19 -1 -8 3 -5 6 6 6 11 1 17 -2 13 -5z"/>
<path d="M785 1713 c-11 -2 -30 -6 -42 -9 -40 -8 -26 -25 15 -19 68 11 82 15
82 25 0 10 -18 11 -55 3z"/>
<path d="M758 1673 c-21 -2 -38 -8 -38 -14 0 -10 53 -12 88 -3 26 7 30 25 5
22 -10 -1 -35 -3 -55 -5z"/>
<path d="M654 1524 c6 -14 4 -15 -10 -4 -13 11 -17 11 -24 1 -5 -9 -10 -10
-14 -2 -4 6 -11 11 -17 11 -11 0 -11 -21 0 -39 8 -12 12 -12 24 -2 12 9 16 9
19 -1 4 -10 8 -10 21 1 11 9 17 10 17 2 0 -6 5 -11 10 -11 16 0 11 47 -6 54
-24 9 -27 8 -20 -10z"/>
<path d="M536 1504 c-10 -27 -7 -44 9 -44 10 0 15 10 15 30 0 32 -14 40 -24
14z"/>
<path d="M760 1291 c0 -21 -6 -32 -20 -36 -11 -3 -20 -11 -20 -17 0 -6 9 -8
20 -5 11 3 20 1 20 -4 0 -5 -9 -9 -20 -9 -11 0 -20 -4 -20 -10 0 -5 9 -10 20
-10 11 0 20 -7 20 -15 0 -21 17 -19 30 5 6 11 17 20 25 20 24 0 17 20 -7 21
-21 1 -20 2 5 11 34 12 36 32 2 26 -22 -5 -25 -2 -25 23 0 19 -5 29 -15 29
-10 0 -15 -10 -15 -29z"/>
<path d="M591 1264 c-31 -53 -26 -71 11 -37 10 9 21 13 25 10 11 -12 -29 -47
-54 -47 -22 0 -23 -3 -17 -42 4 -24 9 -46 13 -49 3 -3 30 -4 59 -1 44 3 52 7
52 24 0 10 5 28 11 39 13 26 -6 53 -34 45 -16 -4 -14 1 9 25 24 25 26 31 14
39 -8 6 -21 8 -27 5 -7 -2 -13 2 -13 10 0 27 -28 15 -49 -21z m69 -94 c0 -5
-7 -10 -15 -10 -8 0 -15 5 -15 10 0 6 7 10 15 10 8 0 15 -4 15 -10z m-50 -4
c0 -2 -7 -6 -15 -10 -8 -3 -15 -1 -15 4 0 6 7 10 15 10 8 0 15 -2 15 -4z m0
-36 c0 -5 -7 -10 -16 -10 -8 0 -12 5 -9 10 3 6 10 10 16 10 5 0 9 -4 9 -10z
m47 4 c-3 -3 -12 -4 -19 -1 -8 3 -5 6 6 6 11 1 17 -2 13 -5z"/>
<path d="M654 1074 c6 -14 4 -15 -10 -4 -13 11 -17 11 -24 1 -5 -9 -10 -10
-14 -2 -4 6 -11 11 -17 11 -11 0 -11 -21 0 -39 8 -12 12 -12 24 -2 12 9 16 9
19 -1 4 -10 8 -10 21 1 11 9 17 10 17 2 0 -6 5 -11 10 -11 16 0 11 47 -6 54
-24 9 -27 8 -20 -10z"/>
<path d="M536 1054 c-10 -27 -7 -44 9 -44 10 0 15 10 15 30 0 32 -14 40 -24
14z"/>
<path d="M760 841 c0 -21 -6 -32 -20 -36 -11 -3 -20 -11 -20 -17 0 -6 9 -8 20
-5 11 3 20 1 20 -4 0 -5 -9 -9 -20 -9 -11 0 -20 -4 -20 -10 0 -5 9 -10 20 -10
11 0 20 -4 20 -10 0 -16 -56 -12 -71 6 -7 9 -21 13 -32 10 -16 -4 -14 1 9 25
24 25 26 31 14 39 -8 6 -21 8 -27 5 -7 -2 -13 3 -13 11 0 27 -30 11 -52 -28
-25 -43 -18 -60 12 -33 11 10 23 15 27 12 11 -12 -29 -47 -54 -47 -22 0 -23
-3 -17 -42 4 -24 9 -46 13 -49 3 -3 29 -4 58 -1 47 4 52 6 55 30 3 26 5 27
101 36 104 10 127 23 50 29 -39 3 -44 5 -25 11 12 5 22 12 22 17 0 5 -10 9
-22 10 -21 1 -20 2 5 11 34 12 36 32 2 26 -22 -5 -25 -2 -25 23 0 19 -5 29
-15 29 -10 0 -15 -10 -15 -29z m-100 -121 c0 -5 -7 -10 -15 -10 -8 0 -15 5
-15 10 0 6 7 10 15 10 8 0 15 -4 15 -10z m-50 -4 c0 -2 -7 -6 -15 -10 -8 -3
-15 -1 -15 4 0 6 7 10 15 10 8 0 15 -2 15 -4z m0 -36 c0 -5 -7 -10 -16 -10 -8
0 -12 5 -9 10 3 6 10 10 16 10 5 0 9 -4 9 -10z m47 4 c-3 -3 -12 -4 -19 -1 -8
3 -5 6 6 6 11 1 17 -2 13 -5z"/>
<path d="M654 624 c6 -14 4 -15 -10 -4 -13 11 -17 11 -24 1 -5 -9 -10 -10 -14
-2 -4 6 -11 11 -17 11 -11 0 -11 -21 0 -39 8 -12 12 -12 24 -2 12 9 16 9 19
-1 4 -10 8 -10 21 1 11 9 17 10 17 2 0 -6 5 -11 10 -11 16 0 11 47 -6 54 -24
9 -27 8 -20 -10z"/>
<path d="M536 604 c-10 -27 -7 -44 9 -44 10 0 15 10 15 30 0 32 -14 40 -24 14z"/>
<path d="M760 391 c0 -21 -6 -32 -20 -36 -11 -3 -20 -11 -20 -17 0 -6 9 -8 20
-5 11 3 20 1 20 -4 0 -5 -9 -9 -20 -9 -11 0 -20 -4 -20 -10 0 -5 9 -10 20 -10
11 0 20 -4 20 -10 0 -16 -56 -12 -71 6 -7 9 -21 13 -32 10 -16 -4 -14 1 9 25
24 25 26 31 14 39 -8 6 -21 8 -27 5 -7 -2 -13 3 -13 11 0 27 -30 11 -52 -28
-25 -43 -18 -60 12 -33 11 10 23 15 27 12 11 -12 -29 -47 -54 -47 -22 0 -23
-3 -17 -42 4 -24 9 -46 13 -49 3 -3 29 -4 58 -1 47 4 52 6 55 30 3 26 5 27
101 36 104 10 127 23 50 29 -39 3 -44 5 -25 11 12 5 22 12 22 17 0 5 -10 9
-22 10 -21 1 -20 2 5 11 34 12 36 32 2 26 -22 -5 -25 -2 -25 23 0 19 -5 29
-15 29 -10 0 -15 -10 -15 -29z m-100 -121 c0 -5 -7 -10 -15 -10 -8 0 -15 5
-15 10 0 6 7 10 15 10 8 0 15 -4 15 -10z m-50 -4 c0 -2 -7 -6 -15 -10 -8 -3
-15 -1 -15 4 0 6 7 10 15 10 8 0 15 -2 15 -4z m0 -36 c0 -5 -7 -10 -16 -10 -8
0 -12 5 -9 10 3 6 10 10 16 10 5 0 9 -4 9 -10z m47 4 c-3 -3 -12 -4 -19 -1 -8
3 -5 6 6 6 11 1 17 -2 13 -5z"/>
<path d="M717 206 c4 -29 0 -55 -11 -77 -20 -40 -12 -50 17 -21 28 29 33 134
6 140 -14 2 -16 -4 -12 -42z"/>
<path d="M654 174 c6 -14 4 -15 -10 -4 -13 11 -17 11 -24 1 -5 -9 -10 -10 -14
-2 -4 6 -11 11 -17 11 -11 0 -11 -21 0 -39 8 -12 12 -12 24 -2 12 9 16 9 19
-1 4 -10 8 -10 21 1 11 9 17 10 17 2 0 -6 5 -11 10 -11 16 0 11 47 -6 54 -24
9 -27 8 -20 -10z"/>
<path d="M536 154 c-10 -27 -7 -44 9 -44 10 0 15 10 15 30 0 32 -14 40 -24 14z"/>
</g>
</svg>
