<?xml version="1.0" standalone="no"?>
<!DOCTYPE svg PUBLIC "-//W3C//DTD SVG 20010904//EN"
 "http://www.w3.org/TR/2001/REC-SVG-20010904/DTD/svg10.dtd">
<svg version="1.0" xmlns="http://www.w3.org/2000/svg"
 width="95.000000pt" height="725.000000pt" viewBox="0 0 95.000000 725.000000"
 preserveAspectRatio="xMidYMid meet">
<metadata>
Created by potrace 1.16, written by Peter Selinger 2001-2019
</metadata>
<g transform="translate(0.000000,725.000000) scale(0.100000,-0.100000)"
fill="#000000" stroke="none">
<path d="M128 7098 c-31 -58 -29 -72 5 -41 12 11 30 23 40 26 15 6 16 4 7 -13
-6 -10 -18 -23 -27 -29 -14 -8 -15 -12 -4 -25 11 -14 11 -16 -3 -16 -9 0 -16
7 -16 15 0 8 -7 15 -15 15 -13 0 -15 -7 -9 -37 3 -21 9 -41 13 -45 3 -3 29 -4
58 -1 51 5 52 6 58 44 7 43 1 59 -22 59 -13 0 -12 5 6 24 28 30 19 49 -19 41
-25 -6 -28 -4 -23 14 11 41 -22 21 -49 -31z m82 -78 c0 -5 -7 -10 -16 -10 -8
0 -12 5 -9 10 3 6 10 10 16 10 5 0 9 -4 9 -10z m0 -40 c0 -5 -7 -10 -15 -10
-8 0 -15 5 -15 10 0 6 7 10 15 10 8 0 15 -4 15 -10z m-55 -10 c-3 -5 -10 -10
-16 -10 -5 0 -9 5 -9 10 0 6 7 10 16 10 8 0 12 -4 9 -10z"/>
<path d="M580 7103 c-14 -27 -26 -51 -28 -55 -2 -5 1 -8 7 -8 14 0 71 78 71
97 0 29 -27 10 -50 -34z"/>
<path d="M300 7131 c0 -6 5 -13 10 -16 20 -12 9 -25 -20 -25 -16 0 -30 -5 -30
-11 0 -7 24 -9 78 -4 85 8 87 9 77 25 -4 6 -18 9 -35 5 -22 -5 -28 -2 -33 14
-5 21 -47 31 -47 12z"/>
<path d="M350 7050 c0 -5 5 -10 10 -10 6 0 10 -9 10 -20 0 -25 -48 -40 -61
-19 -14 22 -11 29 11 29 11 0 20 5 20 10 0 6 -16 10 -35 10 -40 0 -39 1 -23
-52 7 -24 16 -37 24 -34 27 10 34 -68 7 -83 -14 -8 -15 -12 -4 -25 28 -34 41
-19 41 48 0 53 3 66 18 70 20 7 47 61 37 76 -8 13 -55 13 -55 0z"/>
<path d="M160 6920 c0 -5 -7 -7 -16 -3 -12 4 -15 0 -12 -17 4 -28 28 -39 29
-13 0 10 3 13 6 6 6 -17 33 -17 33 0 0 14 -20 37 -32 37 -4 0 -8 -4 -8 -10z"/>
<path d="M200 6925 c0 -14 21 -45 31 -45 18 0 5 45 -13 48 -10 2 -18 1 -18 -3z"/>
<path d="M84 6895 c-7 -29 -1 -41 15 -30 14 8 14 55 1 55 -5 0 -12 -11 -16
-25z"/>
<path d="M128 6648 c-31 -58 -29 -72 5 -41 12 11 30 23 40 26 15 6 16 4 7 -13
-6 -10 -18 -23 -27 -29 -14 -8 -15 -12 -4 -25 11 -14 11 -16 -3 -16 -9 0 -16
7 -16 15 0 8 -7 15 -15 15 -13 0 -15 -7 -9 -37 3 -21 9 -41 13 -45 3 -3 29 -4
58 -1 51 5 52 6 58 44 7 43 1 59 -22 59 -13 0 -12 5 6 24 28 30 19 49 -19 41
-25 -6 -28 -4 -23 14 11 41 -22 21 -49 -31z m82 -78 c0 -5 -7 -10 -16 -10 -8
0 -12 5 -9 10 3 6 10 10 16 10 5 0 9 -4 9 -10z m0 -40 c0 -5 -7 -10 -15 -10
-8 0 -15 5 -15 10 0 6 7 10 15 10 8 0 15 -4 15 -10z m-55 -10 c-3 -5 -10 -10
-16 -10 -5 0 -9 5 -9 10 0 6 7 10 16 10 8 0 12 -4 9 -10z"/>
<path d="M578 6648 c-31 -58 -29 -72 5 -41 12 11 30 23 41 27 18 6 18 5 1 -20
-26 -40 -8 -42 32 -2 40 40 37 63 -7 53 -25 -6 -28 -4 -23 14 11 41 -22 21
-49 -31z"/>
<path d="M300 6681 c0 -6 5 -13 10 -16 20 -12 9 -25 -20 -25 -16 0 -30 -5 -30
-11 0 -7 24 -9 78 -4 85 8 87 9 77 25 -4 6 -18 9 -35 5 -22 -5 -28 -2 -33 14
-5 21 -47 31 -47 12z"/>
<path d="M350 6600 c0 -5 5 -10 10 -10 6 0 10 -9 10 -20 0 -25 -48 -40 -61
-19 -14 22 -11 29 11 29 11 0 20 5 20 10 0 6 -16 10 -35 10 -40 0 -39 1 -23
-52 7 -24 16 -37 24 -34 27 10 34 -68 7 -83 -14 -8 -15 -12 -4 -25 28 -34 41
-19 41 48 0 53 3 66 18 70 20 7 47 61 37 76 -8 13 -55 13 -55 0z"/>
<path d="M260 6463 c-12 -28 -12 -28 -21 -5 -7 19 -39 33 -39 16 0 -14 21 -42
36 -48 19 -7 64 29 64 51 0 23 -26 14 -40 -14z"/>
<path d="M160 6470 c0 -5 -7 -7 -16 -3 -12 4 -15 0 -12 -17 4 -28 28 -39 29
-13 0 10 3 13 6 6 6 -17 33 -17 33 0 0 14 -20 37 -32 37 -4 0 -8 -4 -8 -10z"/>
<path d="M84 6445 c-7 -29 -1 -41 15 -30 14 8 14 55 1 55 -5 0 -12 -11 -16
-25z"/>
<path d="M128 6198 c-31 -58 -29 -72 5 -41 12 11 30 23 40 26 15 6 16 4 7 -13
-6 -10 -18 -23 -27 -29 -14 -8 -15 -12 -4 -25 11 -14 11 -16 -3 -16 -9 0 -16
7 -16 15 0 8 -7 15 -15 15 -13 0 -15 -7 -9 -37 3 -21 9 -41 13 -45 3 -3 29 -4
58 -1 51 5 52 6 58 44 7 43 1 59 -22 59 -13 0 -12 5 6 24 28 30 19 49 -19 41
-25 -6 -28 -4 -23 14 11 41 -22 21 -49 -31z m82 -78 c0 -5 -7 -10 -16 -10 -8
0 -12 5 -9 10 3 6 10 10 16 10 5 0 9 -4 9 -10z m0 -40 c0 -5 -7 -10 -15 -10
-8 0 -15 5 -15 10 0 6 7 10 15 10 8 0 15 -4 15 -10z m-55 -10 c-3 -5 -10 -10
-16 -10 -5 0 -9 5 -9 10 0 6 7 10 16 10 8 0 12 -4 9 -10z"/>
<path d="M578 6198 c-31 -58 -29 -72 5 -41 12 11 30 23 41 27 18 6 18 5 1 -20
-26 -40 -8 -42 32 -2 40 40 37 63 -7 53 -25 -6 -28 -4 -23 14 11 41 -22 21
-49 -31z"/>
<path d="M300 6231 c0 -6 5 -13 10 -16 20 -12 9 -25 -20 -25 -16 0 -30 -5 -30
-11 0 -7 24 -9 78 -4 85 8 87 9 77 25 -4 6 -18 9 -35 5 -22 -5 -28 -2 -33 14
-5 21 -47 31 -47 12z"/>
<path d="M350 6150 c0 -5 5 -10 10 -10 6 0 10 -9 10 -20 0 -25 -48 -40 -61
-19 -14 22 -11 29 11 29 11 0 20 5 20 10 0 6 -16 10 -35 10 -40 0 -39 1 -23
-52 7 -24 16 -37 24 -34 27 10 34 -68 7 -83 -14 -8 -15 -12 -4 -25 28 -34 41
-19 41 48 0 53 3 66 18 70 20 7 47 61 37 76 -8 13 -55 13 -55 0z"/>
<path d="M554 6108 c3 -13 6 -31 6 -40 0 -10 5 -18 10 -18 6 0 10 18 10 40 0
30 -4 40 -16 40 -12 0 -15 -6 -10 -22z"/>
<path d="M260 6013 c-12 -28 -12 -28 -21 -5 -7 19 -39 33 -39 16 0 -14 21 -42
36 -48 19 -7 64 29 64 51 0 23 -26 14 -40 -14z"/>
<path d="M370 6034 c0 -12 42 -64 51 -64 18 0 9 39 -13 54 -23 17 -38 20 -38
10z"/>
<path d="M160 6020 c0 -5 -7 -7 -16 -3 -12 4 -15 0 -12 -17 4 -28 28 -39 29
-13 0 10 3 13 6 6 6 -17 33 -17 33 0 0 14 -20 37 -32 37 -4 0 -8 -4 -8 -10z"/>
<path d="M84 5995 c-7 -29 -1 -41 15 -30 14 8 14 55 1 55 -5 0 -12 -11 -16
-25z"/>
<path d="M578 5748 c-31 -58 -29 -72 5 -41 12 11 30 23 40 26 15 6 16 4 7 -14
-6 -11 -18 -23 -26 -26 -29 -11 -14 -26 22 -20 l37 6 -6 -39 c-7 -55 19 -55
28 0 7 44 2 60 -22 60 -13 0 -12 5 6 24 28 30 19 49 -19 41 -25 -6 -28 -4 -23
14 11 41 -22 21 -49 -31z"/>
<path d="M554 5658 c3 -13 6 -31 6 -40 0 -10 5 -18 10 -18 6 0 10 18 10 40 0
30 -4 40 -16 40 -12 0 -15 -6 -10 -22z"/>
<path d="M578 5298 c-31 -58 -29 -72 5 -41 12 11 30 23 40 26 15 6 16 4 7 -14
-6 -11 -18 -23 -26 -26 -29 -11 -14 -26 21 -20 19 3 35 2 35 -4 0 -5 -7 -9
-15 -9 -8 0 -15 -4 -15 -10 0 -5 7 -10 16 -10 11 0 14 -6 9 -20 -4 -14 -2 -20
8 -20 10 0 18 14 22 40 7 44 2 60 -22 60 -13 0 -12 5 6 24 28 30 19 49 -19 41
-25 -6 -28 -4 -23 14 11 41 -22 21 -49 -31z"/>
<path d="M554 5208 c3 -13 6 -31 6 -40 0 -10 5 -18 10 -18 6 0 10 7 10 15 0 8
9 15 20 15 11 0 20 5 20 10 0 6 -9 10 -20 10 -11 0 -20 7 -20 15 0 8 -7 15
-16 15 -12 0 -15 -6 -10 -22z"/>
<path d="M578 4848 c-31 -58 -29 -72 5 -41 12 11 30 23 40 26 15 6 16 4 7 -13
-6 -10 -18 -23 -27 -29 -14 -8 -15 -12 -4 -25 11 -14 11 -16 -3 -16 -9 0 -16
7 -16 15 0 8 -7 15 -16 15 -12 0 -15 -6 -10 -22 3 -13 6 -31 6 -40 0 -10 5
-18 10 -18 6 0 10 7 10 15 0 8 7 15 15 15 8 0 15 -4 15 -10 0 -5 5 -10 10 -10
6 0 10 7 10 15 0 8 7 15 16 15 11 0 14 -6 9 -20 -4 -14 -2 -20 8 -20 10 0 18
14 22 40 7 44 2 60 -22 60 -13 0 -12 5 6 24 28 30 19 49 -19 41 -25 -6 -28 -4
-23 14 11 41 -22 21 -49 -31z m82 -78 c0 -5 -7 -10 -16 -10 -8 0 -12 5 -9 10
3 6 10 10 16 10 5 0 9 -4 9 -10z"/>
<path d="M578 4398 c-31 -58 -29 -72 5 -41 12 11 30 23 40 26 15 6 16 4 7 -13
-6 -10 -18 -23 -27 -29 -14 -8 -15 -12 -4 -25 11 -14 11 -16 -3 -16 -9 0 -16
7 -16 15 0 8 -7 15 -15 15 -13 0 -15 -7 -9 -37 3 -21 9 -41 13 -45 3 -3 29 -4
58 -1 51 5 52 6 58 44 7 43 1 59 -22 59 -13 0 -12 5 6 24 28 30 19 49 -19 41
-25 -6 -28 -4 -23 14 11 41 -22 21 -49 -31z m82 -78 c0 -5 -7 -10 -16 -10 -8
0 -12 5 -9 10 3 6 10 10 16 10 5 0 9 -4 9 -10z m0 -40 c0 -5 -7 -10 -15 -10
-8 0 -15 5 -15 10 0 6 7 10 15 10 8 0 15 -4 15 -10z m-55 -10 c-3 -5 -10 -10
-16 -10 -5 0 -9 5 -9 10 0 6 7 10 16 10 8 0 12 -4 9 -10z"/>
<path d="M578 3948 c-31 -58 -29 -72 5 -41 12 11 30 23 40 26 15 6 16 4 7 -13
-6 -10 -18 -23 -27 -29 -14 -8 -15 -12 -4 -25 11 -14 11 -16 -3 -16 -9 0 -16
7 -16 15 0 8 -7 15 -15 15 -13 0 -15 -7 -9 -37 3 -21 9 -41 13 -45 3 -3 29 -4
58 -1 51 5 52 6 58 44 7 43 1 59 -22 59 -13 0 -12 5 6 24 28 30 19 49 -19 41
-25 -6 -28 -4 -23 14 11 41 -22 21 -49 -31z m82 -78 c0 -5 -7 -10 -16 -10 -8
0 -12 5 -9 10 3 6 10 10 16 10 5 0 9 -4 9 -10z m0 -40 c0 -5 -7 -10 -15 -10
-8 0 -15 5 -15 10 0 6 7 10 15 10 8 0 15 -4 15 -10z m-55 -10 c-3 -5 -10 -10
-16 -10 -5 0 -9 5 -9 10 0 6 7 10 16 10 8 0 12 -4 9 -10z"/>
<path d="M534 3745 c-7 -29 -1 -41 15 -30 14 8 14 55 1 55 -5 0 -12 -11 -16
-25z"/>
<path d="M578 3498 c-31 -58 -29 -72 5 -41 12 11 30 23 40 26 15 6 16 4 7 -13
-6 -10 -18 -23 -27 -29 -14 -8 -15 -12 -4 -25 11 -14 11 -16 -3 -16 -9 0 -16
7 -16 15 0 8 -7 15 -15 15 -13 0 -15 -7 -9 -37 3 -21 9 -41 13 -45 3 -3 29 -4
58 -1 51 5 52 6 58 44 7 43 1 59 -22 59 -13 0 -12 5 6 24 28 30 19 49 -19 41
-25 -6 -28 -4 -23 14 11 41 -22 21 -49 -31z m82 -78 c0 -5 -7 -10 -16 -10 -8
0 -12 5 -9 10 3 6 10 10 16 10 5 0 9 -4 9 -10z m0 -40 c0 -5 -7 -10 -15 -10
-8 0 -15 5 -15 10 0 6 7 10 15 10 8 0 15 -4 15 -10z m-55 -10 c-3 -5 -10 -10
-16 -10 -5 0 -9 5 -9 10 0 6 7 10 16 10 8 0 12 -4 9 -10z"/>
<path d="M534 3295 c-7 -29 -1 -41 15 -30 14 8 14 55 1 55 -5 0 -12 -11 -16
-25z"/>
<path d="M582 3299 c1 -12 9 -24 16 -27 9 -3 13 3 10 19 -1 12 -9 24 -16 27
-9 3 -13 -3 -10 -19z"/>
<path d="M578 3048 c-31 -58 -29 -72 5 -41 12 11 30 23 40 26 15 6 16 4 7 -13
-6 -10 -18 -23 -27 -29 -14 -8 -15 -12 -4 -25 11 -14 11 -16 -3 -16 -9 0 -16
7 -16 15 0 8 -7 15 -15 15 -13 0 -15 -7 -9 -37 3 -21 9 -41 13 -45 3 -3 29 -4
58 -1 51 5 52 6 58 44 7 43 1 59 -22 59 -13 0 -12 5 6 24 28 30 19 49 -19 41
-25 -6 -28 -4 -23 14 11 41 -22 21 -49 -31z m82 -78 c0 -5 -7 -10 -16 -10 -8
0 -12 5 -9 10 3 6 10 10 16 10 5 0 9 -4 9 -10z m0 -40 c0 -5 -7 -10 -15 -10
-8 0 -15 5 -15 10 0 6 7 10 15 10 8 0 15 -4 15 -10z m-55 -10 c-3 -5 -10 -10
-16 -10 -5 0 -9 5 -9 10 0 6 7 10 16 10 8 0 12 -4 9 -10z"/>
<path d="M610 2870 c0 -5 -7 -7 -16 -3 -12 4 -15 0 -12 -17 4 -28 28 -39 29
-13 0 10 3 13 6 6 6 -17 33 -17 33 0 0 14 -20 37 -32 37 -4 0 -8 -4 -8 -10z"/>
<path d="M534 2845 c-7 -29 -1 -41 15 -30 14 8 14 55 1 55 -5 0 -12 -11 -16
-25z"/>
<path d="M578 2598 c-31 -58 -29 -72 5 -41 12 11 30 23 40 26 15 6 16 4 7 -13
-6 -10 -18 -23 -27 -29 -14 -8 -15 -12 -4 -25 11 -14 11 -16 -3 -16 -9 0 -16
7 -16 15 0 8 -7 15 -15 15 -13 0 -15 -7 -9 -37 3 -21 9 -41 13 -45 3 -3 29 -4
58 -1 51 5 52 6 58 44 7 43 1 59 -22 59 -13 0 -12 5 6 24 28 30 19 49 -19 41
-25 -6 -28 -4 -23 14 11 41 -22 21 -49 -31z m82 -78 c0 -5 -7 -10 -16 -10 -8
0 -12 5 -9 10 3 6 10 10 16 10 5 0 9 -4 9 -10z m0 -40 c0 -5 -7 -10 -15 -10
-8 0 -15 5 -15 10 0 6 7 10 15 10 8 0 15 -4 15 -10z m-55 -10 c-3 -5 -10 -10
-16 -10 -5 0 -9 5 -9 10 0 6 7 10 16 10 8 0 12 -4 9 -10z"/>
<path d="M610 2420 c0 -5 -7 -7 -16 -3 -12 4 -15 0 -12 -17 4 -28 28 -39 29
-13 0 10 3 13 6 6 6 -17 33 -17 33 0 0 14 -20 37 -32 37 -4 0 -8 -4 -8 -10z"/>
<path d="M650 2425 c0 -14 21 -45 31 -45 18 0 5 45 -13 48 -10 2 -18 1 -18 -3z"/>
<path d="M534 2395 c-7 -29 -1 -41 15 -30 14 8 14 55 1 55 -5 0 -12 -11 -16
-25z"/>
<path d="M578 2148 c-31 -58 -29 -72 5 -41 12 11 30 23 40 26 15 6 16 4 7 -13
-6 -10 -18 -23 -27 -29 -14 -8 -15 -12 -4 -25 11 -14 11 -16 -3 -16 -9 0 -16
7 -16 15 0 8 -7 15 -15 15 -13 0 -15 -7 -9 -37 3 -21 9 -41 13 -45 3 -3 29 -4
58 -1 51 5 52 6 58 44 7 43 1 59 -22 59 -13 0 -12 5 6 24 28 30 19 49 -19 41
-25 -6 -28 -4 -23 14 11 41 -22 21 -49 -31z m82 -78 c0 -5 -7 -10 -16 -10 -8
0 -12 5 -9 10 3 6 10 10 16 10 5 0 9 -4 9 -10z m0 -40 c0 -5 -7 -10 -15 -10
-8 0 -15 5 -15 10 0 6 7 10 15 10 8 0 15 -4 15 -10z m-55 -10 c-3 -5 -10 -10
-16 -10 -5 0 -9 5 -9 10 0 6 7 10 16 10 8 0 12 -4 9 -10z"/>
<path d="M750 2183 c1 -14 27 -43 39 -43 23 0 7 45 -16 48 -13 2 -23 0 -23 -5z"/>
<path d="M610 1970 c0 -5 -7 -7 -16 -3 -12 4 -15 0 -12 -17 4 -28 28 -39 29
-13 0 10 3 13 6 6 6 -17 33 -17 33 0 0 14 -20 37 -32 37 -4 0 -8 -4 -8 -10z"/>
<path d="M650 1975 c0 -14 21 -45 31 -45 18 0 5 45 -13 48 -10 2 -18 1 -18 -3z"/>
<path d="M534 1945 c-7 -29 -1 -41 15 -30 14 8 14 55 1 55 -5 0 -12 -11 -16
-25z"/>
<path d="M578 1698 c-31 -58 -29 -72 5 -41 12 11 30 23 40 26 15 6 16 4 7 -13
-6 -10 -18 -23 -27 -29 -14 -8 -15 -12 -4 -25 11 -14 11 -16 -3 -16 -9 0 -16
7 -16 15 0 8 -7 15 -15 15 -13 0 -15 -7 -9 -37 3 -21 9 -41 13 -45 3 -3 29 -4
58 -1 51 5 52 6 58 44 7 43 1 59 -22 59 -13 0 -12 5 6 24 28 30 19 49 -19 41
-25 -6 -28 -4 -23 14 11 41 -22 21 -49 -31z m82 -78 c0 -5 -7 -10 -16 -10 -8
0 -12 5 -9 10 3 6 10 10 16 10 5 0 9 -4 9 -10z m0 -40 c0 -5 -7 -10 -15 -10
-8 0 -15 5 -15 10 0 6 7 10 15 10 8 0 15 -4 15 -10z m-55 -10 c-3 -5 -10 -10
-16 -10 -5 0 -9 5 -9 10 0 6 7 10 16 10 8 0 12 -4 9 -10z"/>
<path d="M750 1731 c0 -6 5 -13 10 -16 20 -12 9 -25 -20 -25 -16 0 -30 -5 -30
-11 0 -7 24 -9 78 -4 85 8 87 9 77 25 -4 6 -18 9 -35 5 -22 -5 -28 -2 -33 14
-5 21 -47 31 -47 12z"/>
<path d="M610 1520 c0 -5 -7 -7 -16 -3 -12 4 -15 0 -12 -17 4 -28 28 -39 29
-13 0 10 3 13 6 6 6 -17 33 -17 33 0 0 14 -20 37 -32 37 -4 0 -8 -4 -8 -10z"/>
<path d="M650 1525 c0 -14 21 -45 31 -45 18 0 5 45 -13 48 -10 2 -18 1 -18 -3z"/>
<path d="M534 1495 c-7 -29 -1 -41 15 -30 14 8 14 55 1 55 -5 0 -12 -11 -16
-25z"/>
<path d="M578 1248 c-31 -58 -29 -72 5 -41 12 11 30 23 40 26 15 6 16 4 7 -13
-6 -10 -18 -23 -27 -29 -14 -8 -15 -12 -4 -25 11 -14 11 -16 -3 -16 -9 0 -16
7 -16 15 0 8 -7 15 -15 15 -13 0 -15 -7 -9 -37 3 -21 9 -41 13 -45 3 -3 29 -4
58 -1 51 5 52 6 58 44 7 43 1 59 -22 59 -13 0 -12 5 6 24 28 30 19 49 -19 41
-25 -6 -28 -4 -23 14 11 41 -22 21 -49 -31z m82 -78 c0 -5 -7 -10 -16 -10 -8
0 -12 5 -9 10 3 6 10 10 16 10 5 0 9 -4 9 -10z m0 -40 c0 -5 -7 -10 -15 -10
-8 0 -15 5 -15 10 0 6 7 10 15 10 8 0 15 -4 15 -10z m-55 -10 c-3 -5 -10 -10
-16 -10 -5 0 -9 5 -9 10 0 6 7 10 16 10 8 0 12 -4 9 -10z"/>
<path d="M750 1281 c0 -6 5 -13 10 -16 20 -12 9 -25 -20 -25 -16 0 -30 -5 -30
-11 0 -7 24 -9 78 -4 85 8 87 9 77 25 -4 6 -18 9 -35 5 -22 -5 -28 -2 -33 14
-5 21 -47 31 -47 12z"/>
<path d="M720 1194 c0 -19 24 -84 32 -84 11 0 10 33 -2 64 -8 23 -30 37 -30
20z"/>
<path d="M610 1070 c0 -5 -7 -7 -16 -3 -12 4 -15 0 -12 -17 4 -28 28 -39 29
-13 0 10 3 13 6 6 6 -17 33 -17 33 0 0 14 -20 37 -32 37 -4 0 -8 -4 -8 -10z"/>
<path d="M650 1075 c0 -14 21 -45 31 -45 18 0 5 45 -13 48 -10 2 -18 1 -18 -3z"/>
<path d="M534 1045 c-7 -29 -1 -41 15 -30 14 8 14 55 1 55 -5 0 -12 -11 -16
-25z"/>
<path d="M578 798 c-31 -58 -29 -72 5 -41 12 11 30 23 40 26 15 6 16 4 7 -13
-6 -10 -18 -23 -27 -29 -14 -8 -15 -12 -4 -25 11 -14 11 -16 -3 -16 -9 0 -16
7 -16 15 0 8 -7 15 -15 15 -13 0 -15 -7 -9 -37 3 -21 9 -41 13 -45 3 -3 29 -4
58 -1 51 5 52 6 58 44 7 43 1 59 -22 59 -13 0 -12 5 6 24 28 30 19 49 -19 41
-25 -6 -28 -4 -23 14 11 41 -22 21 -49 -31z m82 -78 c0 -5 -7 -10 -16 -10 -8
0 -12 5 -9 10 3 6 10 10 16 10 5 0 9 -4 9 -10z m0 -40 c0 -5 -7 -10 -15 -10
-8 0 -15 5 -15 10 0 6 7 10 15 10 8 0 15 -4 15 -10z m-55 -10 c-3 -5 -10 -10
-16 -10 -5 0 -9 5 -9 10 0 6 7 10 16 10 8 0 12 -4 9 -10z"/>
<path d="M750 831 c0 -6 5 -13 10 -16 20 -12 9 -25 -20 -25 -16 0 -30 -5 -30
-11 0 -7 24 -9 78 -4 85 8 87 9 77 25 -4 6 -18 9 -35 5 -22 -5 -28 -2 -33 14
-5 21 -47 31 -47 12z"/>
<path d="M800 750 c0 -5 5 -10 10 -10 6 0 10 -11 10 -25 0 -14 4 -25 8 -25 13
0 35 47 28 59 -9 14 -56 15 -56 1z"/>
<path d="M720 744 c0 -4 5 -24 12 -45 14 -49 33 -51 25 -4 -5 30 -3 35 14 35
10 0 19 5 19 10 0 6 -16 10 -35 10 -19 0 -35 -3 -35 -6z"/>
<path d="M610 620 c0 -5 -7 -7 -16 -3 -12 4 -15 0 -12 -17 4 -28 28 -39 29
-13 0 10 3 13 6 6 6 -17 33 -17 33 0 0 14 -20 37 -32 37 -4 0 -8 -4 -8 -10z"/>
<path d="M650 625 c0 -14 21 -45 31 -45 18 0 5 45 -13 48 -10 2 -18 1 -18 -3z"/>
<path d="M534 595 c-7 -29 -1 -41 15 -30 14 8 14 55 1 55 -5 0 -12 -11 -16
-25z"/>
<path d="M578 348 c-31 -58 -29 -72 5 -41 12 11 30 23 40 26 15 6 16 4 7 -13
-6 -10 -18 -23 -27 -29 -14 -8 -15 -12 -4 -25 11 -14 11 -16 -3 -16 -9 0 -16
7 -16 15 0 8 -7 15 -15 15 -13 0 -15 -7 -9 -37 3 -21 9 -41 13 -45 3 -3 29 -4
58 -1 51 5 52 6 58 44 7 43 1 59 -22 59 -13 0 -12 5 6 24 28 30 19 49 -19 41
-25 -6 -28 -4 -23 14 11 41 -22 21 -49 -31z m82 -78 c0 -5 -7 -10 -16 -10 -8
0 -12 5 -9 10 3 6 10 10 16 10 5 0 9 -4 9 -10z m0 -40 c0 -5 -7 -10 -15 -10
-8 0 -15 5 -15 10 0 6 7 10 15 10 8 0 15 -4 15 -10z m-55 -10 c-3 -5 -10 -10
-16 -10 -5 0 -9 5 -9 10 0 6 7 10 16 10 8 0 12 -4 9 -10z"/>
<path d="M750 381 c0 -6 5 -13 10 -16 20 -12 9 -25 -20 -25 -16 0 -30 -5 -30
-11 0 -7 24 -9 78 -4 85 8 87 9 77 25 -4 6 -18 9 -35 5 -22 -5 -28 -2 -33 14
-5 21 -47 31 -47 12z"/>
<path d="M800 300 c0 -5 5 -10 10 -10 6 0 10 -9 10 -20 0 -25 -48 -40 -61 -19
-14 22 -11 29 11 29 11 0 20 5 20 10 0 6 -16 10 -35 10 -40 0 -39 1 -23 -51 9
-33 14 -38 35 -34 12 3 33 7 46 10 23 4 53 57 42 75 -8 13 -55 13 -55 0z"/>
<path d="M610 170 c0 -5 -7 -7 -16 -3 -12 4 -15 0 -12 -17 4 -28 28 -39 29
-13 0 10 3 13 6 6 6 -17 33 -17 33 0 0 14 -20 37 -32 37 -4 0 -8 -4 -8 -10z"/>
<path d="M650 175 c0 -14 21 -45 31 -45 18 0 5 45 -13 48 -10 2 -18 1 -18 -3z"/>
<path d="M534 145 c-7 -29 -1 -41 15 -30 14 8 14 55 1 55 -5 0 -12 -11 -16
-25z"/>
</g>
</svg>
