<?xml version="1.0" standalone="no"?>
<!DOCTYPE svg PUBLIC "-//W3C//DTD SVG 20010904//EN"
 "http://www.w3.org/TR/2001/REC-SVG-20010904/DTD/svg10.dtd">
<svg version="1.0" xmlns="http://www.w3.org/2000/svg"
 width="95.000000pt" height="725.000000pt" viewBox="0 0 95.000000 725.000000"
 preserveAspectRatio="xMidYMid meet">
<metadata>
Created by potrace 1.16, written by Peter Selinger 2001-2019
</metadata>
<g transform="translate(0.000000,725.000000) scale(0.100000,-0.100000)"
fill="#000000" stroke="none">
<path d="M296 7131 c6 -27 4 -31 -15 -31 -11 0 -21 -4 -21 -10 0 -5 9 -10 21
-10 11 0 17 -4 14 -10 -3 -5 -17 -10 -31 -10 -13 0 -24 -3 -24 -7 0 -5 -11 -8
-24 -8 l-25 0 25 26 c32 33 30 42 -6 37 -23 -4 -27 -2 -19 8 12 15 4 34 -14
34 -13 -1 -61 -90 -52 -98 3 -3 14 3 24 12 28 26 46 16 22 -11 -12 -12 -18
-29 -15 -37 3 -9 1 -16 -5 -16 -6 0 -11 7 -11 15 0 8 -7 15 -16 15 -13 0 -15
-7 -10 -31 3 -17 6 -37 6 -44 0 -10 16 -13 54 -12 l53 1 13 48 c9 38 16 48 32
48 20 0 20 -1 5 -18 -21 -23 -22 -36 -3 -29 8 3 16 -2 19 -14 4 -14 14 -19 40
-19 42 0 67 8 67 22 0 6 -17 8 -45 4 -28 -5 -45 -3 -45 3 0 5 12 11 27 13 14
2 28 9 31 16 3 10 -3 11 -25 6 -25 -7 -27 -6 -14 9 8 10 28 17 47 17 25 0 34
4 34 16 0 12 -7 15 -25 11 -25 -4 -25 -4 -9 20 12 19 13 28 4 37 -8 8 -14 7
-21 -6 -14 -25 -27 -22 -31 4 -2 13 -11 24 -20 26 -15 3 -17 -2 -12 -27z m-86
-151 c0 -5 -7 -10 -16 -10 -8 0 -12 5 -9 10 3 6 10 10 16 10 5 0 9 -4 9 -10z
m-50 -10 c0 -5 -4 -10 -10 -10 -5 0 -10 5 -10 10 0 6 5 10 10 10 6 0 10 -4 10
-10z"/>
<path d="M592 7103 c-12 -25 -20 -48 -16 -52 8 -8 75 71 71 84 -9 25 -34 11
-55 -32z"/>
<path d="M95 6899 c-7 -33 -3 -45 14 -34 13 8 15 65 2 65 -5 0 -12 -14 -16
-31z"/>
<path d="M210 6923 c0 -5 6 -18 14 -29 17 -22 35 -11 20 13 -12 19 -34 29 -34
16z"/>
<path d="M134 6904 c3 -9 6 -18 6 -20 0 -2 5 -4 10 -4 6 0 10 9 10 20 0 12 -7
20 -16 20 -11 0 -14 -5 -10 -16z"/>
<path d="M174 6904 c3 -9 6 -18 6 -20 0 -2 5 -4 10 -4 6 0 10 9 10 20 0 12 -7
20 -16 20 -11 0 -14 -5 -10 -16z"/>
<path d="M296 6681 c6 -27 4 -31 -15 -31 -11 0 -21 -4 -21 -10 0 -5 9 -10 21
-10 11 0 17 -4 14 -10 -3 -5 -17 -10 -31 -10 -13 0 -24 -3 -24 -7 0 -5 -11 -8
-24 -8 l-25 0 25 26 c32 33 30 42 -6 37 -23 -4 -27 -2 -19 8 12 15 4 34 -14
34 -13 -1 -61 -90 -52 -98 3 -3 14 3 24 12 28 26 46 16 22 -11 -12 -12 -18
-29 -15 -37 3 -9 1 -16 -5 -16 -6 0 -11 7 -11 15 0 8 -7 15 -16 15 -13 0 -15
-7 -10 -31 3 -17 6 -37 6 -44 0 -10 16 -13 54 -12 l53 1 13 48 c9 38 16 48 32
48 20 0 20 -1 5 -18 -21 -23 -22 -36 -3 -29 8 3 16 -2 19 -14 4 -14 14 -19 40
-19 42 0 67 8 67 22 0 6 -17 8 -45 4 -28 -5 -45 -3 -45 3 0 5 12 11 27 13 14
2 28 9 31 16 3 10 -3 11 -25 6 -25 -7 -27 -6 -14 9 8 10 28 17 47 17 25 0 34
4 34 16 0 12 -7 15 -25 11 -25 -4 -25 -4 -9 20 12 19 13 28 4 37 -8 8 -14 7
-21 -6 -14 -25 -27 -22 -31 4 -2 13 -11 24 -20 26 -15 3 -17 -2 -12 -27z m-86
-151 c0 -5 -7 -10 -16 -10 -8 0 -12 5 -9 10 3 6 10 10 16 10 5 0 9 -4 9 -10z
m-50 -10 c0 -5 -4 -10 -10 -10 -5 0 -10 5 -10 10 0 6 5 10 10 10 6 0 10 -4 10
-10z"/>
<path d="M592 6653 c-25 -50 -22 -66 6 -40 25 22 50 24 32 2 -24 -29 0 -29 30
0 38 36 38 48 0 43 -23 -4 -27 -2 -19 8 6 7 8 18 4 24 -13 20 -30 8 -53 -37z"/>
<path d="M280 6440 c0 -27 5 -50 10 -50 6 0 10 23 10 50 0 28 -4 50 -10 50 -5
0 -10 -22 -10 -50z"/>
<path d="M95 6449 c-7 -33 -3 -45 14 -34 13 8 15 65 2 65 -5 0 -12 -14 -16
-31z"/>
<path d="M210 6473 c0 -5 6 -18 14 -29 17 -22 35 -11 20 13 -12 19 -34 29 -34
16z"/>
<path d="M134 6454 c3 -9 6 -18 6 -20 0 -2 5 -4 10 -4 6 0 10 9 10 20 0 12 -7
20 -16 20 -11 0 -14 -5 -10 -16z"/>
<path d="M174 6454 c3 -9 6 -18 6 -20 0 -2 5 -4 10 -4 6 0 10 9 10 20 0 12 -7
20 -16 20 -11 0 -14 -5 -10 -16z"/>
<path d="M296 6231 c6 -27 4 -31 -15 -31 -11 0 -21 -4 -21 -10 0 -5 9 -10 21
-10 11 0 17 -4 14 -10 -3 -5 -17 -10 -31 -10 -13 0 -24 -3 -24 -7 0 -5 -11 -8
-24 -8 l-25 0 25 26 c32 33 30 42 -6 37 -23 -4 -27 -2 -19 8 12 15 4 34 -14
34 -13 -1 -61 -90 -52 -98 3 -3 14 3 24 12 28 26 46 16 22 -11 -12 -12 -18
-29 -15 -37 3 -9 1 -16 -5 -16 -6 0 -11 7 -11 15 0 8 -7 15 -16 15 -13 0 -15
-7 -10 -31 3 -17 6 -37 6 -44 0 -10 16 -13 54 -12 l53 1 13 48 c9 38 16 48 32
48 20 0 20 -1 5 -18 -21 -23 -22 -36 -3 -29 8 3 16 -2 19 -14 4 -14 14 -19 40
-19 42 0 67 8 67 22 0 6 -17 8 -45 4 -28 -5 -45 -3 -45 3 0 5 12 11 27 13 14
2 28 9 31 16 3 10 -3 11 -25 6 -25 -7 -27 -6 -14 9 8 10 28 17 47 17 25 0 34
4 34 16 0 12 -7 15 -25 11 -25 -4 -25 -4 -9 20 12 19 13 28 4 37 -8 8 -14 7
-21 -6 -14 -25 -27 -22 -31 4 -2 13 -11 24 -20 26 -15 3 -17 -2 -12 -27z m-86
-151 c0 -5 -7 -10 -16 -10 -8 0 -12 5 -9 10 3 6 10 10 16 10 5 0 9 -4 9 -10z
m-50 -10 c0 -5 -4 -10 -10 -10 -5 0 -10 5 -10 10 0 6 5 10 10 10 6 0 10 -4 10
-10z"/>
<path d="M592 6203 c-25 -50 -22 -66 6 -40 25 22 50 24 32 2 -24 -29 0 -29 30
0 38 36 38 48 0 43 -23 -4 -27 -2 -19 8 6 7 8 18 4 24 -13 20 -30 8 -53 -37z"/>
<path d="M563 6100 c4 -18 7 -39 7 -46 0 -8 5 -14 11 -14 16 0 7 83 -10 88
-11 4 -13 -3 -8 -28z"/>
<path d="M298 6043 c-14 -3 -18 -15 -18 -54 0 -60 18 -65 22 -6 3 39 5 42 33
42 31 0 37 -17 21 -55 -3 -8 -2 -21 3 -29 16 -26 31 0 31 55 l0 54 -37 -1
c-21 -1 -46 -3 -55 -6z"/>
<path d="M95 5999 c-7 -33 -3 -45 14 -34 13 8 15 65 2 65 -5 0 -12 -14 -16
-31z"/>
<path d="M210 6023 c0 -5 6 -18 14 -29 17 -22 35 -11 20 13 -12 19 -34 29 -34
16z"/>
<path d="M134 6004 c3 -9 6 -18 6 -20 0 -2 5 -4 10 -4 6 0 10 9 10 20 0 12 -7
20 -16 20 -11 0 -14 -5 -10 -16z"/>
<path d="M174 6004 c3 -9 6 -18 6 -20 0 -2 5 -4 10 -4 6 0 10 9 10 20 0 12 -7
20 -16 20 -11 0 -14 -5 -10 -16z"/>
<path d="M296 5781 c6 -27 4 -31 -15 -31 -11 0 -21 -4 -21 -10 0 -5 9 -10 21
-10 11 0 17 -4 14 -10 -3 -5 -17 -10 -31 -10 -13 0 -24 -3 -24 -7 0 -5 -11 -8
-24 -8 l-25 0 25 26 c32 33 30 42 -6 37 -23 -4 -27 -2 -19 8 12 15 4 34 -14
34 -13 -1 -61 -90 -52 -98 3 -3 14 3 24 12 28 26 46 16 22 -11 -12 -12 -18
-29 -15 -37 3 -9 1 -16 -5 -16 -6 0 -11 7 -11 15 0 8 -7 15 -16 15 -13 0 -15
-7 -10 -31 3 -17 6 -37 6 -44 0 -10 16 -13 54 -12 l53 1 13 48 c9 38 16 48 32
48 20 0 20 -1 5 -18 -21 -23 -22 -36 -3 -29 8 3 16 -2 19 -14 4 -14 14 -19 40
-19 42 0 67 8 67 22 0 6 -17 8 -45 4 -28 -5 -45 -3 -45 3 0 5 12 11 27 13 14
2 28 9 31 16 3 10 -3 11 -25 6 -25 -7 -27 -6 -14 9 8 10 28 17 47 17 25 0 34
4 34 16 0 12 -7 15 -25 11 -25 -4 -25 -4 -9 20 12 19 13 28 4 37 -8 8 -14 7
-21 -6 -14 -25 -27 -22 -31 4 -2 13 -11 24 -20 26 -15 3 -17 -2 -12 -27z m-86
-151 c0 -5 -7 -10 -16 -10 -8 0 -12 5 -9 10 3 6 10 10 16 10 5 0 9 -4 9 -10z
m-50 -10 c0 -5 -4 -10 -10 -10 -5 0 -10 5 -10 10 0 6 5 10 10 10 6 0 10 -4 10
-10z"/>
<path d="M592 5753 c-25 -51 -22 -65 7 -39 28 26 46 16 21 -11 -27 -29 -25
-33 10 -33 28 0 30 -2 30 -40 0 -54 13 -51 28 7 14 51 5 68 -32 59 -15 -4 -14
0 8 23 34 35 33 44 -4 39 -23 -4 -27 -2 -19 8 6 7 8 18 4 24 -13 20 -30 8 -53
-37z"/>
<path d="M564 5649 c3 -17 6 -38 6 -45 0 -8 5 -14 10 -14 6 0 10 20 10 45 0
35 -4 45 -16 45 -13 0 -15 -7 -10 -31z"/>
<path d="M298 5593 c-14 -3 -18 -15 -18 -54 0 -27 5 -49 10 -49 6 0 10 11 10
25 0 21 5 25 31 25 24 0 29 -3 25 -17 -3 -10 -2 -24 3 -32 16 -26 31 0 31 55
l0 54 -37 -1 c-21 -1 -46 -3 -55 -6z m62 -23 c0 -5 -14 -10 -31 -10 -17 0 -28
4 -24 10 3 6 17 10 31 10 13 0 24 -4 24 -10z"/>
<path d="M95 5549 c-7 -33 -3 -45 14 -34 13 8 15 65 2 65 -5 0 -12 -14 -16
-31z"/>
<path d="M210 5573 c0 -5 6 -18 14 -29 17 -22 35 -11 20 13 -12 19 -34 29 -34
16z"/>
<path d="M134 5554 c3 -9 6 -18 6 -20 0 -2 5 -4 10 -4 6 0 10 9 10 20 0 12 -7
20 -16 20 -11 0 -14 -5 -10 -16z"/>
<path d="M174 5554 c3 -9 6 -18 6 -20 0 -2 5 -4 10 -4 6 0 10 9 10 20 0 12 -7
20 -16 20 -11 0 -14 -5 -10 -16z"/>
<path d="M296 5331 c6 -27 4 -31 -15 -31 -11 0 -21 -4 -21 -10 0 -5 9 -10 21
-10 11 0 17 -4 14 -10 -3 -5 -17 -10 -31 -10 -13 0 -24 -3 -24 -7 0 -5 -11 -8
-24 -8 l-25 0 25 26 c32 33 30 42 -6 37 -23 -4 -27 -2 -19 8 12 15 4 34 -14
34 -13 -1 -61 -90 -52 -98 3 -3 14 3 24 12 28 26 46 16 22 -11 -12 -12 -18
-29 -15 -37 3 -9 1 -16 -5 -16 -6 0 -11 7 -11 15 0 8 -7 15 -16 15 -13 0 -15
-7 -10 -31 3 -17 6 -37 6 -44 0 -10 16 -13 54 -12 l53 1 13 48 c9 38 16 48 32
48 20 0 20 -1 5 -18 -21 -23 -22 -36 -3 -29 8 3 16 -2 19 -14 4 -14 14 -19 40
-19 42 0 67 8 67 22 0 6 -17 8 -45 4 -28 -5 -45 -3 -45 3 0 5 12 11 27 13 14
2 28 9 31 16 3 10 -3 11 -25 6 -25 -7 -27 -6 -14 9 8 10 28 17 47 17 25 0 34
4 34 16 0 12 -7 15 -25 11 -25 -4 -25 -4 -9 20 12 19 13 28 4 37 -8 8 -14 7
-21 -6 -14 -25 -27 -22 -31 4 -2 13 -11 24 -20 26 -15 3 -17 -2 -12 -27z m-86
-151 c0 -5 -7 -10 -16 -10 -8 0 -12 5 -9 10 3 6 10 10 16 10 5 0 9 -4 9 -10z
m-50 -10 c0 -5 -4 -10 -10 -10 -5 0 -10 5 -10 10 0 6 5 10 10 10 6 0 10 -4 10
-10z"/>
<path d="M592 5303 c-25 -51 -22 -65 7 -39 28 26 46 16 21 -11 -27 -30 -26
-33 13 -33 24 0 28 -3 17 -10 -23 -15 -60 -12 -60 5 0 8 -7 15 -16 15 -13 0
-15 -7 -10 -31 3 -17 6 -38 6 -45 0 -8 5 -14 10 -14 6 0 10 9 10 20 0 13 7 20
19 20 11 0 26 3 35 6 12 5 16 0 16 -20 0 -41 15 -30 28 21 14 51 5 68 -32 59
-15 -4 -14 0 8 23 34 35 33 44 -4 39 -23 -4 -27 -2 -19 8 6 7 8 18 4 24 -13
20 -30 8 -53 -37z"/>
<path d="M298 5143 c-14 -3 -18 -15 -18 -53 l0 -49 36 6 c24 4 39 2 44 -7 15
-25 30 2 30 56 l0 54 -37 -1 c-21 -1 -46 -3 -55 -6z m62 -23 c0 -5 -14 -10
-31 -10 -17 0 -28 4 -24 10 3 6 17 10 31 10 13 0 24 -4 24 -10z m-10 -40 c-20
-13 -50 -13 -50 0 0 6 15 10 33 10 24 0 28 -3 17 -10z"/>
<path d="M95 5099 c-7 -33 -3 -45 14 -34 13 8 15 65 2 65 -5 0 -12 -14 -16
-31z"/>
<path d="M210 5123 c0 -5 6 -18 14 -29 17 -22 35 -11 20 13 -12 19 -34 29 -34
16z"/>
<path d="M134 5104 c3 -9 6 -18 6 -20 0 -2 5 -4 10 -4 6 0 10 9 10 20 0 12 -7
20 -16 20 -11 0 -14 -5 -10 -16z"/>
<path d="M174 5104 c3 -9 6 -18 6 -20 0 -2 5 -4 10 -4 6 0 10 9 10 20 0 12 -7
20 -16 20 -11 0 -14 -5 -10 -16z"/>
<path d="M592 4853 c-25 -51 -22 -65 7 -39 28 26 46 16 22 -11 -12 -12 -18
-29 -15 -37 3 -9 1 -16 -5 -16 -6 0 -11 7 -11 15 0 8 -7 15 -16 15 -13 0 -15
-7 -10 -31 3 -17 6 -38 6 -45 0 -8 5 -14 10 -14 6 0 10 9 10 20 0 11 5 20 10
20 6 0 10 -7 10 -15 0 -22 17 -18 23 5 7 28 27 25 27 -5 0 -40 15 -29 28 22
14 51 5 68 -32 59 -15 -4 -14 0 8 23 34 35 33 44 -4 39 -23 -4 -27 -2 -19 8 6
7 8 18 4 24 -13 20 -30 8 -53 -37z"/>
<path d="M592 4403 c-25 -51 -22 -65 7 -39 28 26 46 16 22 -11 -12 -12 -18
-29 -15 -37 3 -9 1 -16 -5 -16 -6 0 -11 7 -11 15 0 8 -7 15 -16 15 -13 0 -15
-7 -10 -31 3 -17 6 -37 6 -44 0 -10 16 -13 53 -12 l54 1 12 45 c13 49 3 65
-33 57 -15 -4 -14 0 8 23 34 35 33 44 -4 39 -23 -4 -27 -2 -19 8 6 7 8 18 4
24 -13 20 -30 8 -53 -37z m68 -123 c0 -5 -7 -10 -16 -10 -8 0 -12 5 -9 10 3 6
10 10 16 10 5 0 9 -4 9 -10z m-50 -10 c0 -5 -4 -10 -10 -10 -5 0 -10 5 -10 10
0 6 5 10 10 10 6 0 10 -4 10 -10z"/>
<path d="M592 3953 c-25 -51 -22 -65 7 -39 28 26 46 16 22 -11 -12 -12 -18
-29 -15 -37 3 -9 1 -16 -5 -16 -6 0 -11 7 -11 15 0 8 -7 15 -16 15 -13 0 -15
-7 -10 -31 3 -17 6 -37 6 -44 0 -10 16 -13 53 -12 l54 1 12 45 c13 49 3 65
-33 57 -15 -4 -14 0 8 23 34 35 33 44 -4 39 -23 -4 -27 -2 -19 8 6 7 8 18 4
24 -13 20 -30 8 -53 -37z m68 -123 c0 -5 -7 -10 -16 -10 -8 0 -12 5 -9 10 3 6
10 10 16 10 5 0 9 -4 9 -10z m-50 -10 c0 -5 -4 -10 -10 -10 -5 0 -10 5 -10 10
0 6 5 10 10 10 6 0 10 -4 10 -10z"/>
<path d="M545 3749 c-7 -33 -3 -45 14 -34 13 8 15 65 2 65 -5 0 -12 -14 -16
-31z"/>
<path d="M592 3503 c-25 -51 -22 -65 7 -39 28 26 46 16 22 -11 -12 -12 -18
-29 -15 -37 3 -9 1 -16 -5 -16 -6 0 -11 7 -11 15 0 8 -7 15 -16 15 -13 0 -15
-7 -10 -31 3 -17 6 -37 6 -44 0 -10 16 -13 53 -12 l54 1 12 45 c13 49 3 65
-33 57 -15 -4 -14 0 8 23 34 35 33 44 -4 39 -23 -4 -27 -2 -19 8 6 7 8 18 4
24 -13 20 -30 8 -53 -37z m68 -123 c0 -5 -7 -10 -16 -10 -8 0 -12 5 -9 10 3 6
10 10 16 10 5 0 9 -4 9 -10z m-50 -10 c0 -5 -4 -10 -10 -10 -5 0 -10 5 -10 10
0 6 5 10 10 10 6 0 10 -4 10 -10z"/>
<path d="M545 3299 c-7 -33 -3 -45 14 -34 13 8 15 65 2 65 -5 0 -12 -14 -16
-31z"/>
<path d="M584 3304 c3 -9 6 -18 6 -20 0 -2 5 -4 10 -4 6 0 10 9 10 20 0 12 -7
20 -16 20 -11 0 -14 -5 -10 -16z"/>
<path d="M592 3053 c-25 -51 -22 -65 7 -39 28 26 46 16 22 -11 -12 -12 -18
-29 -15 -37 3 -9 1 -16 -5 -16 -6 0 -11 7 -11 15 0 8 -7 15 -16 15 -13 0 -15
-7 -10 -31 3 -17 6 -37 6 -44 0 -10 16 -13 53 -12 l54 1 12 45 c13 49 3 65
-33 57 -15 -4 -14 0 8 23 34 35 33 44 -4 39 -23 -4 -27 -2 -19 8 6 7 8 18 4
24 -13 20 -30 8 -53 -37z m68 -123 c0 -5 -7 -10 -16 -10 -8 0 -12 5 -9 10 3 6
10 10 16 10 5 0 9 -4 9 -10z m-50 -10 c0 -5 -4 -10 -10 -10 -5 0 -10 5 -10 10
0 6 5 10 10 10 6 0 10 -4 10 -10z"/>
<path d="M545 2849 c-7 -33 -3 -45 14 -34 13 8 15 65 2 65 -5 0 -12 -14 -16
-31z"/>
<path d="M584 2854 c3 -9 6 -18 6 -20 0 -2 5 -4 10 -4 6 0 10 9 10 20 0 12 -7
20 -16 20 -11 0 -14 -5 -10 -16z"/>
<path d="M624 2854 c3 -9 6 -18 6 -20 0 -2 5 -4 10 -4 6 0 10 9 10 20 0 12 -7
20 -16 20 -11 0 -14 -5 -10 -16z"/>
<path d="M592 2603 c-25 -51 -22 -65 7 -39 28 26 46 16 22 -11 -12 -12 -18
-29 -15 -37 3 -9 1 -16 -5 -16 -6 0 -11 7 -11 15 0 8 -7 15 -16 15 -13 0 -15
-7 -10 -31 3 -17 6 -37 6 -44 0 -10 16 -13 53 -12 l54 1 12 45 c13 49 3 65
-33 57 -15 -4 -14 0 8 23 34 35 33 44 -4 39 -23 -4 -27 -2 -19 8 6 7 8 18 4
24 -13 20 -30 8 -53 -37z m68 -123 c0 -5 -7 -10 -16 -10 -8 0 -12 5 -9 10 3 6
10 10 16 10 5 0 9 -4 9 -10z m-50 -10 c0 -5 -4 -10 -10 -10 -5 0 -10 5 -10 10
0 6 5 10 10 10 6 0 10 -4 10 -10z"/>
<path d="M545 2399 c-7 -33 -3 -45 14 -34 13 8 15 65 2 65 -5 0 -12 -14 -16
-31z"/>
<path d="M660 2423 c0 -5 6 -18 14 -29 17 -22 35 -11 20 13 -12 19 -34 29 -34
16z"/>
<path d="M584 2404 c3 -9 6 -18 6 -20 0 -2 5 -4 10 -4 6 0 10 9 10 20 0 12 -7
20 -16 20 -11 0 -14 -5 -10 -16z"/>
<path d="M624 2404 c3 -9 6 -18 6 -20 0 -2 5 -4 10 -4 6 0 10 9 10 20 0 12 -7
20 -16 20 -11 0 -14 -5 -10 -16z"/>
<path d="M592 2153 c-25 -51 -22 -65 7 -39 28 26 46 16 22 -11 -12 -12 -18
-29 -15 -37 3 -9 1 -16 -5 -16 -6 0 -11 7 -11 15 0 8 -7 15 -16 15 -13 0 -15
-7 -10 -31 3 -17 6 -37 6 -44 0 -10 16 -13 53 -12 l54 1 12 45 c13 49 3 65
-33 57 -15 -4 -14 0 8 23 34 35 33 44 -4 39 -23 -4 -27 -2 -19 8 6 7 8 18 4
24 -13 20 -30 8 -53 -37z m68 -123 c0 -5 -7 -10 -16 -10 -8 0 -12 5 -9 10 3 6
10 10 16 10 5 0 9 -4 9 -10z m-50 -10 c0 -5 -4 -10 -10 -10 -5 0 -10 5 -10 10
0 6 5 10 10 10 6 0 10 -4 10 -10z"/>
<path d="M738 2153 c-33 -5 -37 -23 -5 -23 33 0 67 11 67 21 0 9 -12 9 -62 2z"/>
<path d="M545 1949 c-7 -33 -3 -45 14 -34 13 8 15 65 2 65 -5 0 -12 -14 -16
-31z"/>
<path d="M660 1973 c0 -5 6 -18 14 -29 17 -22 35 -11 20 13 -12 19 -34 29 -34
16z"/>
<path d="M584 1954 c3 -9 6 -18 6 -20 0 -2 5 -4 10 -4 6 0 10 9 10 20 0 12 -7
20 -16 20 -11 0 -14 -5 -10 -16z"/>
<path d="M624 1954 c3 -9 6 -18 6 -20 0 -2 5 -4 10 -4 6 0 10 9 10 20 0 12 -7
20 -16 20 -11 0 -14 -5 -10 -16z"/>
<path d="M746 1731 c6 -27 4 -31 -15 -31 -11 0 -21 -4 -21 -10 0 -5 9 -10 19
-10 11 0 21 -5 23 -12 3 -7 13 -3 27 11 14 14 19 26 13 30 -5 3 -11 15 -13 26
-3 11 -12 21 -22 23 -14 3 -16 -2 -11 -27z"/>
<path d="M592 1703 c-25 -51 -22 -65 7 -39 28 26 46 16 22 -11 -12 -12 -18
-29 -15 -37 3 -9 1 -16 -5 -16 -6 0 -11 7 -11 15 0 8 -7 15 -16 15 -13 0 -15
-7 -10 -31 3 -17 6 -37 6 -44 0 -10 16 -13 53 -12 l54 1 12 45 c13 49 3 65
-33 57 -15 -4 -14 0 8 23 34 35 33 44 -4 39 -23 -4 -27 -2 -19 8 6 7 8 18 4
24 -13 20 -30 8 -53 -37z m68 -123 c0 -5 -7 -10 -16 -10 -8 0 -12 5 -9 10 3 6
10 10 16 10 5 0 9 -4 9 -10z m-50 -10 c0 -5 -4 -10 -10 -10 -5 0 -10 5 -10 10
0 6 5 10 10 10 6 0 10 -4 10 -10z"/>
<path d="M545 1499 c-7 -33 -3 -45 14 -34 13 8 15 65 2 65 -5 0 -12 -14 -16
-31z"/>
<path d="M660 1523 c0 -5 6 -18 14 -29 17 -22 35 -11 20 13 -12 19 -34 29 -34
16z"/>
<path d="M584 1504 c3 -9 6 -18 6 -20 0 -2 5 -4 10 -4 6 0 10 9 10 20 0 12 -7
20 -16 20 -11 0 -14 -5 -10 -16z"/>
<path d="M624 1504 c3 -9 6 -18 6 -20 0 -2 5 -4 10 -4 6 0 10 9 10 20 0 12 -7
20 -16 20 -11 0 -14 -5 -10 -16z"/>
<path d="M746 1281 c6 -27 4 -31 -15 -31 -11 0 -21 -4 -21 -10 0 -5 9 -10 21
-10 11 0 17 -4 14 -10 -3 -5 -17 -10 -31 -10 -13 0 -24 -3 -24 -7 0 -5 -11 -8
-24 -8 l-25 0 25 26 c32 33 30 42 -6 37 -23 -4 -27 -2 -19 8 12 15 4 34 -14
34 -13 -1 -61 -90 -52 -98 3 -3 14 3 24 12 28 26 46 16 22 -11 -12 -12 -18
-29 -15 -37 3 -9 1 -16 -5 -16 -6 0 -11 7 -11 15 0 8 -7 15 -16 15 -13 0 -15
-7 -10 -31 3 -17 6 -37 6 -44 0 -10 16 -13 54 -12 l53 1 12 47 c11 43 15 47
49 53 20 3 56 6 80 6 31 0 42 4 42 16 0 12 -8 14 -47 9 -45 -6 -47 -5 -28 10
13 11 16 18 9 23 -7 4 -13 16 -15 27 -3 11 -12 21 -22 23 -14 3 -16 -2 -11
-27z m-86 -151 c0 -5 -7 -10 -16 -10 -8 0 -12 5 -9 10 3 6 10 10 16 10 5 0 9
-4 9 -10z m-50 -10 c0 -5 -4 -10 -10 -10 -5 0 -10 5 -10 10 0 6 5 10 10 10 6
0 10 -4 10 -10z"/>
<path d="M545 1049 c-7 -33 -3 -45 14 -34 13 8 15 65 2 65 -5 0 -12 -14 -16
-31z"/>
<path d="M660 1073 c0 -5 6 -18 14 -29 17 -22 35 -11 20 13 -12 19 -34 29 -34
16z"/>
<path d="M584 1054 c3 -9 6 -18 6 -20 0 -2 5 -4 10 -4 6 0 10 9 10 20 0 12 -7
20 -16 20 -11 0 -14 -5 -10 -16z"/>
<path d="M624 1054 c3 -9 6 -18 6 -20 0 -2 5 -4 10 -4 6 0 10 9 10 20 0 12 -7
20 -16 20 -11 0 -14 -5 -10 -16z"/>
<path d="M746 831 c6 -27 4 -31 -15 -31 -11 0 -21 -4 -21 -10 0 -5 9 -10 21
-10 11 0 17 -4 14 -10 -3 -5 -17 -10 -31 -10 -13 0 -24 -3 -24 -7 0 -5 -11 -8
-24 -8 l-25 0 25 26 c32 33 30 42 -6 37 -23 -4 -27 -2 -19 8 12 15 4 34 -14
34 -13 -1 -61 -90 -52 -98 3 -3 14 3 24 12 28 26 46 16 22 -11 -12 -12 -18
-29 -15 -37 3 -9 1 -16 -5 -16 -6 0 -11 7 -11 15 0 8 -7 15 -16 15 -13 0 -15
-7 -10 -31 3 -17 6 -37 6 -44 0 -10 16 -13 54 -12 l53 1 13 48 c9 38 16 48 32
48 20 0 21 -1 3 -20 -30 -34 -8 -34 33 -1 25 20 51 31 71 31 22 0 31 5 31 16
0 12 -7 15 -25 11 -25 -4 -25 -4 -9 20 12 19 13 28 4 37 -8 8 -14 7 -21 -6
-14 -25 -27 -22 -31 4 -2 13 -11 24 -20 26 -15 3 -17 -2 -12 -27z m-86 -151
c0 -5 -7 -10 -16 -10 -8 0 -12 5 -9 10 3 6 10 10 16 10 5 0 9 -4 9 -10z m-50
-10 c0 -5 -4 -10 -10 -10 -5 0 -10 5 -10 10 0 6 5 10 10 10 6 0 10 -4 10 -10z"/>
<path d="M545 599 c-7 -33 -3 -45 14 -34 13 8 15 65 2 65 -5 0 -12 -14 -16
-31z"/>
<path d="M660 623 c0 -5 6 -18 14 -29 17 -22 35 -11 20 13 -12 19 -34 29 -34
16z"/>
<path d="M584 604 c3 -9 6 -18 6 -20 0 -2 5 -4 10 -4 6 0 10 9 10 20 0 12 -7
20 -16 20 -11 0 -14 -5 -10 -16z"/>
<path d="M624 604 c3 -9 6 -18 6 -20 0 -2 5 -4 10 -4 6 0 10 9 10 20 0 12 -7
20 -16 20 -11 0 -14 -5 -10 -16z"/>
<path d="M746 381 c6 -27 4 -31 -15 -31 -11 0 -21 -4 -21 -10 0 -5 9 -10 21
-10 11 0 17 -4 14 -10 -3 -5 -17 -10 -31 -10 -13 0 -24 -3 -24 -7 0 -5 -11 -8
-24 -8 l-25 0 25 26 c32 33 30 42 -6 37 -23 -4 -27 -2 -19 8 12 15 4 34 -14
34 -13 -1 -61 -90 -52 -98 3 -3 14 3 24 12 28 26 46 16 22 -11 -12 -12 -18
-29 -15 -37 3 -9 1 -16 -5 -16 -6 0 -11 7 -11 15 0 8 -7 15 -16 15 -13 0 -15
-7 -10 -31 3 -17 6 -37 6 -44 0 -10 16 -13 54 -12 l53 1 13 48 c9 38 16 48 32
48 20 0 21 -1 3 -20 -24 -26 -11 -39 15 -15 12 11 20 14 20 6 0 -16 52 -10 58
7 3 10 -3 11 -25 6 -25 -7 -27 -6 -14 9 8 10 28 17 47 17 25 0 34 4 34 16 0
12 -7 15 -25 11 -25 -4 -25 -4 -9 20 12 19 13 28 4 37 -8 8 -14 7 -21 -6 -14
-25 -27 -22 -31 4 -2 13 -11 24 -20 26 -15 3 -17 -2 -12 -27z m-86 -151 c0 -5
-7 -10 -16 -10 -8 0 -12 5 -9 10 3 6 10 10 16 10 5 0 9 -4 9 -10z m-50 -10 c0
-5 -4 -10 -10 -10 -5 0 -10 5 -10 10 0 6 5 10 10 10 6 0 10 -4 10 -10z"/>
<path d="M545 149 c-7 -33 -3 -45 14 -34 13 8 15 65 2 65 -5 0 -12 -14 -16
-31z"/>
<path d="M660 173 c0 -5 6 -18 14 -29 17 -22 35 -11 20 13 -12 19 -34 29 -34
16z"/>
<path d="M584 154 c3 -9 6 -18 6 -20 0 -2 5 -4 10 -4 6 0 10 9 10 20 0 12 -7
20 -16 20 -11 0 -14 -5 -10 -16z"/>
<path d="M624 154 c3 -9 6 -18 6 -20 0 -2 5 -4 10 -4 6 0 10 9 10 20 0 12 -7
20 -16 20 -11 0 -14 -5 -10 -16z"/>
</g>
</svg>
