<?xml version="1.0" standalone="no"?>
<!DOCTYPE svg PUBLIC "-//W3C//DTD SVG 20010904//EN"
 "http://www.w3.org/TR/2001/REC-SVG-20010904/DTD/svg10.dtd">
<svg version="1.0" xmlns="http://www.w3.org/2000/svg"
 width="50.000000pt" height="725.000000pt" viewBox="0 0 50.000000 725.000000"
 preserveAspectRatio="xMidYMid meet">
<metadata>
Created by potrace 1.16, written by Peter Selinger 2001-2019
</metadata>
<g transform="translate(0.000000,725.000000) scale(0.100000,-0.100000)"
fill="#000000" stroke="none">
<path d="M168 7108 c-37 -10 -52 -28 -24 -28 36 0 76 14 76 26 0 16 -1 16 -52
2z"/>
<path d="M110 6652 c0 -26 5 -53 12 -60 15 -15 104 -16 114 -1 9 16 -17 30
-41 22 -32 -10 -48 -9 -52 4 -2 6 12 14 36 18 26 4 41 12 41 22 0 10 -6 13
-20 9 -11 -3 -30 -9 -42 -12 -17 -5 -20 -3 -14 12 6 16 -7 33 -26 34 -5 0 -8
-22 -8 -48z"/>
<path d="M110 6202 c0 -26 5 -53 12 -60 15 -15 104 -16 114 -1 9 16 -17 30
-41 22 -32 -10 -48 -9 -52 4 -2 6 12 14 36 18 26 4 41 12 41 22 0 10 -6 13
-20 9 -11 -3 -30 -9 -42 -12 -17 -5 -20 -3 -14 12 6 16 -7 33 -26 34 -5 0 -8
-22 -8 -48z"/>
<path d="M152 6075 c-56 -14 -69 -21 -59 -31 10 -11 140 20 145 34 5 15 -16
14 -86 -3z"/>
<path d="M110 5752 c0 -26 5 -53 12 -60 15 -15 104 -16 114 -1 9 16 -17 30
-41 22 -32 -10 -48 -9 -52 4 -2 6 12 14 36 18 26 4 41 12 41 22 0 10 -6 13
-20 9 -11 -3 -30 -9 -42 -12 -17 -5 -20 -3 -14 12 6 16 -7 33 -26 34 -5 0 -8
-22 -8 -48z"/>
<path d="M156 5645 c5 -21 3 -25 -14 -25 -28 0 -52 -10 -52 -22 0 -7 14 -8 36
-5 l35 6 -3 -51 c-2 -33 1 -52 9 -55 8 -3 13 14 15 53 3 52 6 59 27 64 35 8
42 34 7 28 -20 -4 -26 -1 -26 13 0 12 -7 19 -20 19 -17 0 -19 -5 -14 -25z"/>
<path d="M290 5340 c-7 -17 -10 -34 -6 -37 10 -10 59 43 52 56 -13 20 -33 11
-46 -19z"/>
<path d="M110 5302 c0 -26 5 -53 12 -60 15 -15 104 -16 114 -1 9 16 -17 30
-41 22 -32 -10 -48 -9 -52 4 -2 6 12 14 36 18 26 4 41 12 41 22 0 10 -6 13
-20 9 -11 -3 -30 -9 -42 -12 -17 -5 -20 -3 -14 12 6 16 -7 33 -26 34 -5 0 -8
-22 -8 -48z"/>
<path d="M156 5195 c5 -21 3 -25 -14 -25 -28 0 -52 -10 -52 -22 0 -7 14 -8 36
-5 l35 6 -3 -51 c-2 -33 1 -52 9 -55 8 -3 13 14 15 53 3 52 6 59 27 64 35 8
42 34 7 28 -20 -4 -26 -1 -26 13 0 12 -7 19 -20 19 -17 0 -19 -5 -14 -25z"/>
<path d="M290 4890 c-7 -16 -18 -30 -24 -30 -7 0 -12 -27 -13 -75 -2 -41 1
-75 6 -75 14 0 21 27 21 78 0 38 5 52 31 78 30 31 32 54 5 54 -8 0 -19 -13
-26 -30z"/>
<path d="M110 4852 c0 -26 5 -53 12 -60 15 -15 104 -16 114 -1 9 16 -17 30
-41 22 -32 -10 -48 -9 -52 4 -2 6 12 14 36 18 26 4 41 12 41 22 0 10 -6 13
-20 9 -11 -3 -30 -9 -42 -12 -17 -5 -20 -3 -14 12 6 16 -7 33 -26 34 -5 0 -8
-22 -8 -48z"/>
<path d="M156 4745 c5 -21 3 -25 -14 -25 -28 0 -52 -10 -52 -22 0 -7 14 -8 36
-5 l35 6 -3 -51 c-2 -33 1 -52 9 -55 8 -3 13 14 15 53 3 52 6 59 27 64 35 8
42 34 7 28 -20 -4 -26 -1 -26 13 0 12 -7 19 -20 19 -17 0 -19 -5 -14 -25z"/>
<path d="M290 4440 c-7 -16 -18 -30 -24 -30 -7 0 -12 -27 -13 -75 -4 -108 22
-99 29 10 3 37 6 40 33 43 30 3 31 2 27 -38 -2 -22 0 -40 6 -40 12 0 43 91 35
103 -3 5 -21 7 -40 4 -34 -6 -35 -5 -18 13 9 10 14 24 10 29 -12 20 -32 11
-45 -19z"/>
<path d="M110 4402 c0 -26 5 -53 12 -60 15 -15 104 -16 114 -1 9 16 -17 30
-41 22 -32 -10 -48 -9 -52 4 -2 6 12 14 36 18 26 4 41 12 41 22 0 10 -6 13
-20 9 -11 -3 -30 -9 -42 -12 -17 -5 -20 -3 -14 12 6 16 -7 33 -26 34 -5 0 -8
-22 -8 -48z"/>
<path d="M156 4295 c5 -21 3 -25 -14 -25 -28 0 -52 -10 -52 -22 0 -7 14 -8 36
-5 l35 6 -3 -51 c-2 -33 1 -52 9 -55 8 -3 13 14 15 53 3 52 6 59 27 64 35 8
42 34 7 28 -20 -4 -26 -1 -26 13 0 12 -7 19 -20 19 -17 0 -19 -5 -14 -25z"/>
<path d="M290 3990 c-7 -16 -18 -30 -24 -30 -7 0 -12 -27 -13 -75 -2 -41 1
-75 6 -75 12 0 21 26 21 61 0 18 5 29 14 29 8 0 21 3 30 6 12 5 16 0 16 -20 0
-14 4 -26 9 -26 11 0 41 91 34 103 -3 5 -21 7 -40 4 -34 -6 -35 -5 -18 13 9
10 14 24 10 29 -12 20 -32 11 -45 -19z m40 -60 c-36 -11 -52 -11 -45 0 3 6 21
10 38 9 31 -1 31 -1 7 -9z"/>
<path d="M110 3952 c0 -26 5 -53 12 -60 15 -15 104 -16 114 -1 9 16 -17 30
-41 22 -32 -10 -48 -9 -52 4 -2 6 12 14 36 18 26 4 41 12 41 22 0 10 -6 13
-20 9 -11 -3 -30 -9 -42 -12 -17 -5 -20 -3 -14 12 6 16 -7 33 -26 34 -5 0 -8
-22 -8 -48z"/>
<path d="M156 3845 c5 -21 3 -25 -14 -25 -28 0 -52 -10 -52 -22 0 -7 14 -8 36
-5 l35 6 -3 -51 c-2 -33 1 -52 9 -55 8 -3 13 14 15 53 3 52 6 59 27 64 35 8
42 34 7 28 -20 -4 -26 -1 -26 13 0 12 -7 19 -20 19 -17 0 -19 -5 -14 -25z"/>
<path d="M290 3540 c-7 -16 -18 -30 -24 -30 -7 0 -12 -27 -13 -75 -3 -73 10
-101 23 -50 7 27 33 40 63 30 15 -4 21 3 34 42 9 26 13 51 10 56 -3 5 -21 7
-40 4 -34 -6 -35 -5 -18 13 9 10 14 24 10 29 -12 20 -32 11 -45 -19z m40 -60
c-36 -11 -52 -11 -45 0 3 6 21 10 38 9 31 -1 31 -1 7 -9z m10 -30 c0 -5 -6
-10 -14 -10 -8 0 -21 -3 -30 -6 -9 -3 -16 -1 -16 4 0 9 9 13 53 21 4 0 7 -3 7
-9z"/>
<path d="M110 3502 c0 -26 5 -53 12 -60 15 -15 104 -16 114 -1 9 16 -17 30
-41 22 -32 -10 -48 -9 -52 4 -2 6 12 14 36 18 26 4 41 12 41 22 0 10 -6 13
-20 9 -11 -3 -30 -9 -42 -12 -17 -5 -20 -3 -14 12 6 16 -7 33 -26 34 -5 0 -8
-22 -8 -48z"/>
<path d="M156 3395 c5 -21 3 -25 -14 -25 -28 0 -52 -10 -52 -22 0 -7 14 -8 36
-5 l35 6 -3 -51 c-2 -33 1 -52 9 -55 8 -3 13 14 15 53 3 52 6 59 27 64 35 8
42 34 7 28 -20 -4 -26 -1 -26 13 0 12 -7 19 -20 19 -17 0 -19 -5 -14 -25z"/>
<path d="M290 3090 c-7 -16 -18 -30 -24 -30 -7 0 -12 -27 -13 -75 -2 -44 1
-75 7 -75 6 0 10 4 10 9 0 6 20 13 44 16 41 7 43 9 55 53 20 78 20 77 -22 76
-36 -1 -37 0 -21 17 9 10 13 23 9 28 -12 20 -32 11 -45 -19z m40 -60 c-36 -11
-52 -11 -45 0 3 6 21 10 38 9 31 -1 31 -1 7 -9z m10 -30 c0 -5 -6 -10 -14 -10
-8 0 -21 -3 -30 -6 -9 -3 -16 -1 -16 4 0 9 9 13 53 21 4 0 7 -3 7 -9z m-1 -34
c-2 -2 -17 -6 -34 -10 -22 -5 -26 -4 -15 4 14 9 59 15 49 6z"/>
<path d="M110 3052 c0 -26 5 -53 12 -60 15 -15 104 -16 114 -1 9 16 -17 30
-41 22 -32 -10 -48 -9 -52 4 -2 6 12 14 36 18 26 4 41 12 41 22 0 10 -6 13
-20 9 -11 -3 -30 -9 -42 -12 -17 -5 -20 -3 -14 12 6 16 -7 33 -26 34 -5 0 -8
-22 -8 -48z"/>
<path d="M156 2945 c5 -21 3 -25 -14 -25 -28 0 -52 -10 -52 -22 0 -7 14 -8 36
-5 l35 6 -3 -51 c-2 -33 1 -52 9 -55 8 -3 13 14 15 53 3 52 6 59 27 64 35 8
42 34 7 28 -20 -4 -26 -1 -26 13 0 12 -7 19 -20 19 -17 0 -19 -5 -14 -25z"/>
<path d="M290 2640 c-7 -16 -18 -30 -24 -30 -7 0 -12 -30 -14 -86 -2 -73 0
-85 13 -80 8 3 37 8 65 12 l50 7 0 -31 c0 -43 -9 -62 -31 -62 -10 0 -19 -3
-19 -7 1 -14 27 -43 39 -43 17 0 38 56 43 110 l3 45 -70 -1 c-45 -1 -63 1 -50
6 11 5 29 9 41 9 16 1 23 11 33 49 20 78 20 77 -22 76 -36 -1 -37 0 -21 17 9
10 13 23 9 28 -12 20 -32 11 -45 -19z m40 -60 c-36 -11 -52 -11 -45 0 3 6 21
10 38 9 31 -1 31 -1 7 -9z m10 -30 c0 -5 -6 -10 -14 -10 -8 0 -21 -3 -30 -6
-9 -3 -16 -1 -16 4 0 9 9 13 53 21 4 0 7 -3 7 -9z m-1 -34 c-2 -2 -17 -6 -34
-10 -22 -5 -26 -4 -15 4 14 9 59 15 49 6z"/>
<path d="M110 2602 c0 -26 5 -53 12 -60 15 -15 104 -16 114 -1 9 16 -17 30
-41 22 -32 -10 -48 -9 -52 4 -2 6 12 14 36 18 26 4 41 12 41 22 0 10 -6 13
-20 9 -11 -3 -30 -9 -42 -12 -17 -5 -20 -3 -14 12 6 16 -7 33 -26 34 -5 0 -8
-22 -8 -48z"/>
<path d="M156 2495 c5 -21 3 -25 -14 -25 -28 0 -52 -10 -52 -22 0 -7 14 -8 36
-5 l35 6 -3 -51 c-2 -33 1 -52 9 -55 8 -3 13 14 15 53 3 52 6 59 27 64 35 8
42 34 7 28 -20 -4 -26 -1 -26 13 0 12 -7 19 -20 19 -17 0 -19 -5 -14 -25z"/>
<path d="M290 2190 c-7 -16 -18 -30 -24 -30 -7 0 -12 -30 -14 -86 -2 -73 0
-85 13 -80 8 3 37 8 65 12 l50 7 0 -31 c0 -43 -9 -62 -31 -62 -10 0 -19 -3
-19 -7 1 -14 27 -43 39 -43 17 0 38 56 43 110 l3 45 -70 -1 c-45 -1 -63 1 -50
6 11 5 29 9 41 9 16 1 23 11 33 49 20 78 20 77 -22 76 -36 -1 -37 0 -21 17 9
10 13 23 9 28 -12 20 -32 11 -45 -19z m40 -60 c-36 -11 -52 -11 -45 0 3 6 21
10 38 9 31 -1 31 -1 7 -9z m10 -30 c0 -5 -6 -10 -14 -10 -8 0 -21 -3 -30 -6
-9 -3 -16 -1 -16 4 0 9 9 13 53 21 4 0 7 -3 7 -9z m-1 -34 c-2 -2 -17 -6 -34
-10 -22 -5 -26 -4 -15 4 14 9 59 15 49 6z"/>
<path d="M110 2152 c0 -26 5 -53 12 -60 15 -15 104 -16 114 -1 9 16 -17 30
-41 22 -32 -10 -48 -9 -52 4 -2 6 12 14 36 18 26 4 41 12 41 22 0 10 -6 13
-20 9 -11 -3 -30 -9 -42 -12 -17 -5 -20 -3 -14 12 6 16 -7 33 -26 34 -5 0 -8
-22 -8 -48z"/>
<path d="M156 2045 c5 -21 3 -25 -14 -25 -28 0 -52 -10 -52 -22 0 -7 14 -8 36
-5 l35 6 -3 -51 c-2 -33 1 -52 9 -55 8 -3 13 14 15 53 3 52 6 59 27 64 35 8
42 34 7 28 -20 -4 -26 -1 -26 13 0 12 -7 19 -20 19 -17 0 -19 -5 -14 -25z"/>
<path d="M222 1968 c-14 -14 -16 -48 -2 -48 10 0 30 32 30 49 0 14 -13 14 -28
-1z"/>
<path d="M290 1740 c-7 -16 -18 -30 -24 -30 -7 0 -12 -30 -14 -86 -2 -73 0
-85 13 -80 8 3 37 8 65 12 l50 7 0 -31 c0 -43 -9 -62 -31 -62 -10 0 -19 -3
-19 -7 1 -14 27 -43 39 -43 17 0 38 56 43 110 l3 45 -70 -1 c-45 -1 -63 1 -50
6 11 5 29 9 41 9 16 1 23 11 33 49 20 78 20 77 -22 76 -36 -1 -37 0 -21 17 9
10 13 23 9 28 -12 20 -32 11 -45 -19z m40 -60 c-36 -11 -52 -11 -45 0 3 6 21
10 38 9 31 -1 31 -1 7 -9z m10 -30 c0 -5 -6 -10 -14 -10 -8 0 -21 -3 -30 -6
-9 -3 -16 -1 -16 4 0 9 9 13 53 21 4 0 7 -3 7 -9z m-1 -34 c-2 -2 -17 -6 -34
-10 -22 -5 -26 -4 -15 4 14 9 59 15 49 6z"/>
<path d="M110 1702 c0 -26 5 -53 12 -60 15 -15 104 -16 114 -1 9 16 -17 30
-41 22 -32 -10 -48 -9 -52 4 -2 6 12 14 36 18 26 4 41 12 41 22 0 10 -6 13
-20 9 -11 -3 -30 -9 -42 -12 -17 -5 -20 -3 -14 12 6 16 -7 33 -26 34 -5 0 -8
-22 -8 -48z"/>
<path d="M156 1595 c5 -21 3 -25 -14 -25 -28 0 -52 -10 -52 -22 0 -7 14 -8 36
-5 l35 6 -3 -51 c-2 -33 1 -52 9 -55 8 -3 13 14 15 53 3 52 6 59 27 64 35 8
42 34 7 28 -20 -4 -26 -1 -26 13 0 12 -7 19 -20 19 -17 0 -19 -5 -14 -25z"/>
<path d="M222 1518 c-14 -14 -16 -48 -2 -48 10 0 30 32 30 49 0 14 -13 14 -28
-1z"/>
<path d="M262 1514 c1 -9 9 -19 16 -22 9 -3 13 2 10 14 -1 9 -9 19 -16 22 -9
3 -13 -2 -10 -14z"/>
<path d="M290 1290 c-7 -16 -18 -30 -24 -30 -7 0 -12 -30 -14 -86 -2 -73 0
-85 13 -80 8 3 37 8 65 12 l50 7 0 -31 c0 -43 -9 -62 -31 -62 -10 0 -19 -3
-19 -7 1 -14 27 -43 39 -43 17 0 38 56 43 110 l3 45 -70 -1 c-45 -1 -63 1 -50
6 11 5 29 9 41 9 16 1 23 11 33 49 20 78 20 77 -22 76 -36 -1 -37 0 -21 17 9
10 13 23 9 28 -12 20 -32 11 -45 -19z m40 -60 c-36 -11 -52 -11 -45 0 3 6 21
10 38 9 31 -1 31 -1 7 -9z m10 -30 c0 -5 -6 -10 -14 -10 -8 0 -21 -3 -30 -6
-9 -3 -16 -1 -16 4 0 9 9 13 53 21 4 0 7 -3 7 -9z m-1 -34 c-2 -2 -17 -6 -34
-10 -22 -5 -26 -4 -15 4 14 9 59 15 49 6z"/>
<path d="M110 1252 c0 -26 5 -53 12 -60 15 -15 104 -16 114 -1 9 16 -17 30
-41 22 -32 -10 -48 -9 -52 4 -2 6 12 14 36 18 26 4 41 12 41 22 0 10 -6 13
-20 9 -11 -3 -30 -9 -42 -12 -17 -5 -20 -3 -14 12 6 16 -7 33 -26 34 -5 0 -8
-22 -8 -48z"/>
<path d="M156 1145 c5 -21 3 -25 -14 -25 -28 0 -52 -10 -52 -22 0 -7 14 -8 36
-5 l35 6 -3 -51 c-2 -33 1 -52 9 -55 8 -3 13 14 15 53 3 52 6 59 27 64 35 8
42 34 7 28 -20 -4 -26 -1 -26 13 0 12 -7 19 -20 19 -17 0 -19 -5 -14 -25z"/>
<path d="M294 1075 c3 -9 6 -19 6 -21 0 -2 7 -4 16 -4 22 0 13 34 -10 38 -14
3 -17 0 -12 -13z"/>
<path d="M222 1068 c-14 -14 -16 -48 -2 -48 10 0 30 32 30 49 0 14 -13 14 -28
-1z"/>
<path d="M262 1064 c1 -9 9 -19 16 -22 9 -3 13 2 10 14 -1 9 -9 19 -16 22 -9
3 -13 -2 -10 -14z"/>
<path d="M290 840 c-7 -16 -18 -30 -24 -30 -7 0 -12 -30 -14 -86 -2 -73 0 -85
13 -80 8 3 37 8 65 12 l50 7 0 -31 c0 -43 -9 -62 -31 -62 -10 0 -19 -3 -19 -7
1 -14 27 -43 39 -43 17 0 38 56 43 110 l3 45 -70 -1 c-45 -1 -63 1 -50 6 11 5
29 9 41 9 16 1 23 11 33 49 20 78 20 77 -22 76 -36 -1 -37 0 -21 17 9 10 13
23 9 28 -12 20 -32 11 -45 -19z m40 -60 c-36 -11 -52 -11 -45 0 3 6 21 10 38
9 31 -1 31 -1 7 -9z m10 -30 c0 -5 -6 -10 -14 -10 -8 0 -21 -3 -30 -6 -9 -3
-16 -1 -16 4 0 9 9 13 53 21 4 0 7 -3 7 -9z m-1 -34 c-2 -2 -17 -6 -34 -10
-22 -5 -26 -4 -15 4 14 9 59 15 49 6z"/>
<path d="M110 802 c0 -26 5 -53 12 -60 15 -15 104 -16 114 -1 9 16 -17 30 -41
22 -32 -10 -48 -9 -52 4 -2 6 12 14 36 18 26 4 41 12 41 22 0 10 -6 13 -20 9
-11 -3 -30 -9 -42 -12 -17 -5 -20 -3 -14 12 6 16 -7 33 -26 34 -5 0 -8 -22 -8
-48z"/>
<path d="M156 695 c5 -21 3 -25 -14 -25 -28 0 -52 -10 -52 -22 0 -7 14 -8 36
-5 l35 6 -3 -51 c-2 -33 1 -52 9 -55 8 -3 13 14 15 53 3 52 6 59 27 64 35 8
42 34 7 28 -20 -4 -26 -1 -26 13 0 12 -7 19 -20 19 -17 0 -19 -5 -14 -25z"/>
<path d="M330 644 c0 -13 21 -44 30 -44 16 0 11 37 -6 44 -19 7 -24 8 -24 0z"/>
<path d="M294 625 c3 -9 6 -19 6 -21 0 -2 7 -4 16 -4 22 0 13 34 -10 38 -14 3
-17 0 -12 -13z"/>
<path d="M222 618 c-14 -14 -16 -48 -2 -48 10 0 30 32 30 49 0 14 -13 14 -28
-1z"/>
<path d="M262 614 c1 -9 9 -19 16 -22 9 -3 13 2 10 14 -1 9 -9 19 -16 22 -9 3
-13 -2 -10 -14z"/>
</g>
</svg>
