<?xml version="1.0" standalone="no"?>
<!DOCTYPE svg PUBLIC "-//W3C//DTD SVG 20010904//EN"
 "http://www.w3.org/TR/2001/REC-SVG-20010904/DTD/svg10.dtd">
<svg version="1.0" xmlns="http://www.w3.org/2000/svg"
 width="50.000000pt" height="725.000000pt" viewBox="0 0 50.000000 725.000000"
 preserveAspectRatio="xMidYMid meet">
<metadata>
Created by potrace 1.16, written by Peter Selinger 2001-2019
</metadata>
<g transform="translate(0.000000,725.000000) scale(0.100000,-0.100000)"
fill="#000000" stroke="none">
<path d="M173 7119 c4 -13 7 -27 7 -31 0 -5 5 -8 11 -8 15 0 6 53 -10 58 -10
4 -12 -1 -8 -19z"/>
<path d="M270 6690 c0 -5 7 -10 16 -10 11 0 14 -6 9 -20 -3 -11 -2 -20 3 -20
15 0 44 38 37 49 -8 14 -65 14 -65 1z"/>
<path d="M174 6668 c3 -13 6 -26 6 -30 0 -18 20 -6 20 12 0 16 7 20 30 20 17
0 30 5 30 10 0 6 -21 10 -46 10 -43 0 -46 -2 -40 -22z"/>
<path d="M270 6241 c0 -6 7 -11 16 -11 9 0 14 -6 12 -12 -6 -16 -98 -24 -98
-9 0 6 14 11 30 11 17 0 30 5 30 10 0 6 -21 10 -46 10 -44 0 -46 -1 -40 -25 6
-24 4 -25 -35 -25 -28 0 -39 -4 -36 -12 2 -7 15 -12 28 -11 13 2 81 8 152 15
70 7 127 16 127 20 0 4 -17 8 -39 8 -31 0 -38 4 -37 18 1 12 -8 18 -31 20 -19
2 -33 -1 -33 -7z"/>
<path d="M240 5810 c0 -16 -7 -20 -36 -20 -34 0 -36 -2 -30 -25 6 -24 4 -25
-34 -25 -22 0 -40 -4 -40 -9 0 -18 19 -21 62 -12 53 12 58 8 19 -15 -17 -10
-31 -22 -31 -26 0 -17 31 -6 65 23 31 27 44 31 115 36 81 6 112 23 41 23 -31
0 -38 4 -37 17 1 12 -7 19 -24 21 -14 2 -29 10 -33 18 -12 21 -37 17 -37 -6z
m60 -40 c0 -12 -28 -25 -36 -17 -9 9 6 27 22 27 8 0 14 -5 14 -10z m-70 -10
c0 -5 -7 -10 -15 -10 -8 0 -15 5 -15 10 0 6 7 10 15 10 8 0 15 -4 15 -10z"/>
<path d="M240 5360 c0 -16 -7 -20 -36 -20 -34 0 -36 -2 -30 -25 6 -24 4 -25
-34 -25 -22 0 -40 -4 -40 -9 0 -18 19 -21 62 -12 53 12 58 8 19 -15 -17 -10
-31 -22 -31 -26 0 -17 31 -6 65 23 31 27 44 31 115 36 81 6 112 23 41 23 -31
0 -38 4 -37 17 1 12 -7 19 -24 21 -14 2 -29 10 -33 18 -12 21 -37 17 -37 -6z
m60 -40 c0 -12 -28 -25 -36 -17 -9 9 6 27 22 27 8 0 14 -5 14 -10z m-70 -10
c0 -5 -7 -10 -15 -10 -8 0 -15 5 -15 10 0 6 7 10 15 10 8 0 15 -4 15 -10z"/>
<path d="M300 5263 c0 -10 66 -53 80 -53 25 0 7 31 -26 45 -41 17 -54 19 -54
8z"/>
<path d="M240 4910 c0 -16 -7 -20 -36 -20 -34 0 -36 -2 -30 -25 6 -24 4 -25
-34 -25 -22 0 -40 -4 -40 -9 0 -18 19 -21 62 -12 53 12 58 8 19 -15 -17 -10
-31 -22 -31 -26 0 -16 30 -7 62 19 18 15 27 20 19 10 -8 -10 -11 -20 -8 -23 9
-9 48 20 43 32 -6 16 26 24 92 24 28 0 52 5 52 10 0 6 -17 10 -39 10 -31 0
-38 4 -37 17 1 12 -7 19 -24 21 -14 2 -29 10 -33 18 -12 21 -37 17 -37 -6z
m60 -40 c0 -12 -28 -25 -36 -17 -9 9 6 27 22 27 8 0 14 -5 14 -10z m-70 -10
c0 -5 -7 -10 -15 -10 -8 0 -15 5 -15 10 0 6 7 10 15 10 8 0 15 -4 15 -10z"/>
<path d="M300 4813 c0 -10 66 -53 80 -53 25 0 7 31 -26 45 -41 17 -54 19 -54
8z"/>
<path d="M240 4460 c0 -16 -7 -20 -36 -20 -34 0 -36 -2 -30 -25 6 -24 4 -25
-34 -25 -22 0 -40 -4 -40 -9 0 -18 19 -21 62 -12 53 12 58 8 19 -15 -36 -21
-41 -39 -10 -31 20 5 21 3 17 -54 -3 -44 -1 -59 9 -59 9 0 13 19 13 69 0 53 4
72 18 82 15 13 16 12 3 -4 -8 -9 -11 -20 -8 -23 9 -9 48 20 43 32 -6 16 26 24
92 24 28 0 52 5 52 10 0 6 -17 10 -39 10 -31 0 -38 4 -37 17 1 12 -7 19 -24
21 -14 2 -29 10 -33 18 -12 21 -37 17 -37 -6z m60 -40 c0 -12 -28 -25 -36 -17
-9 9 6 27 22 27 8 0 14 -5 14 -10z m-70 -10 c0 -5 -7 -10 -15 -10 -8 0 -15 5
-15 10 0 6 7 10 15 10 8 0 15 -4 15 -10z"/>
<path d="M300 4363 c0 -10 66 -53 80 -53 25 0 7 31 -26 45 -41 17 -54 19 -54
8z"/>
<path d="M240 4010 c0 -16 -7 -20 -36 -20 -34 0 -36 -2 -30 -25 6 -24 4 -25
-34 -25 -22 0 -40 -4 -40 -9 0 -18 19 -21 62 -12 53 12 58 8 19 -15 -36 -21
-41 -39 -10 -31 20 5 21 3 17 -54 -3 -44 -1 -59 9 -59 9 0 13 15 13 50 0 52 1
53 52 64 26 6 27 5 22 -24 -4 -17 -2 -30 4 -30 14 0 35 57 26 71 -4 7 6 3 23
-9 37 -26 56 -28 51 -6 -4 20 -77 51 -87 37 -3 -6 -17 -13 -31 -17 -17 -5 -21
-4 -11 2 7 5 11 14 7 20 -8 13 28 22 92 22 28 0 52 5 52 10 0 6 -17 10 -39 10
-31 0 -38 4 -37 17 1 12 -7 19 -24 21 -14 2 -29 10 -33 18 -12 21 -37 17 -37
-6z m60 -40 c0 -12 -28 -25 -36 -17 -9 9 6 27 22 27 8 0 14 -5 14 -10z m-70
-10 c0 -5 -7 -10 -15 -10 -8 0 -15 5 -15 10 0 6 7 10 15 10 8 0 15 -4 15 -10z
m10 -44 c0 -2 -8 -10 -17 -17 -16 -13 -17 -12 -4 4 13 16 21 21 21 13z"/>
<path d="M240 3560 c0 -16 -7 -20 -36 -20 -34 0 -36 -2 -30 -25 6 -24 4 -25
-34 -25 -22 0 -40 -4 -40 -9 0 -18 19 -21 62 -12 53 12 58 8 19 -15 -36 -21
-41 -39 -10 -31 20 5 21 3 17 -54 -3 -44 -1 -59 9 -59 9 0 13 14 13 40 0 36 3
40 25 40 14 0 25 5 25 10 0 6 -10 10 -22 10 -28 0 -21 6 18 13 29 6 30 4 26
-24 -2 -16 0 -29 6 -29 14 0 35 57 26 71 -4 7 6 3 23 -9 37 -26 56 -28 51 -6
-4 20 -77 51 -87 37 -3 -6 -17 -13 -31 -17 -17 -5 -21 -4 -11 2 7 5 11 14 7
20 -8 13 28 22 92 22 28 0 52 5 52 10 0 6 -17 10 -39 10 -31 0 -38 4 -37 17 1
12 -7 19 -24 21 -14 2 -29 10 -33 18 -12 21 -37 17 -37 -6z m60 -40 c0 -12
-28 -25 -36 -17 -9 9 6 27 22 27 8 0 14 -5 14 -10z m-70 -10 c0 -5 -7 -10 -15
-10 -8 0 -15 5 -15 10 0 6 7 10 15 10 8 0 15 -4 15 -10z m10 -44 c0 -2 -8 -10
-17 -17 -16 -13 -17 -12 -4 4 13 16 21 21 21 13z"/>
<path d="M240 3110 c0 -16 -7 -20 -36 -20 -34 0 -36 -2 -30 -25 6 -24 4 -25
-34 -25 -22 0 -40 -4 -40 -9 0 -18 19 -21 62 -12 53 12 58 8 19 -15 -36 -21
-41 -39 -10 -31 20 5 21 3 17 -54 -3 -44 -1 -59 9 -59 7 0 13 11 13 24 0 13 6
27 13 29 9 4 8 8 -3 16 -13 9 -13 11 3 11 9 0 17 -4 17 -10 0 -5 13 -10 29
-10 22 0 31 6 41 29 6 17 8 35 4 42 -4 7 6 3 23 -9 37 -26 56 -28 51 -6 -4 20
-77 51 -87 37 -3 -6 -17 -13 -31 -17 -17 -5 -21 -4 -11 2 7 5 11 14 7 20 -8
13 28 22 92 22 28 0 52 5 52 10 0 6 -17 10 -39 10 -31 0 -38 4 -37 17 1 12 -7
19 -24 21 -14 2 -29 10 -33 18 -12 21 -37 17 -37 -6z m60 -40 c0 -12 -28 -25
-36 -17 -9 9 6 27 22 27 8 0 14 -5 14 -10z m-70 -10 c0 -5 -7 -10 -15 -10 -8
0 -15 5 -15 10 0 6 7 10 15 10 8 0 15 -4 15 -10z m10 -44 c0 -2 -8 -10 -17
-17 -16 -13 -17 -12 -4 4 13 16 21 21 21 13z m43 -56 c-5 -20 -23 -28 -23 -10
0 6 -10 11 -22 11 -19 1 -17 3 7 9 17 4 33 8 37 9 3 0 4 -8 1 -19z"/>
<path d="M240 2660 c0 -16 -7 -20 -36 -20 -34 0 -36 -2 -30 -25 6 -24 4 -25
-34 -25 -22 0 -40 -4 -40 -9 0 -18 19 -21 62 -12 53 12 58 8 19 -15 -36 -21
-41 -39 -10 -31 20 5 21 3 17 -54 -3 -44 -1 -59 9 -59 7 0 13 5 13 10 0 6 7
10 15 10 8 0 15 5 15 10 0 6 -8 10 -17 10 -15 0 -16 2 -3 10 13 9 13 11 0 20
-13 8 -12 10 3 10 9 0 17 -4 17 -10 0 -5 13 -10 29 -10 22 0 31 6 41 29 6 17
8 35 4 42 -4 7 6 3 23 -9 37 -26 56 -28 51 -6 -4 20 -77 51 -87 37 -3 -6 -17
-13 -31 -17 -17 -5 -21 -4 -11 2 7 5 11 14 7 20 -8 13 28 22 92 22 28 0 52 5
52 10 0 6 -17 10 -39 10 -31 0 -38 4 -37 17 1 12 -7 19 -24 21 -14 2 -29 10
-33 18 -12 21 -37 17 -37 -6z m60 -40 c0 -12 -28 -25 -36 -17 -9 9 6 27 22 27
8 0 14 -5 14 -10z m-70 -10 c0 -5 -7 -10 -15 -10 -8 0 -15 5 -15 10 0 6 7 10
15 10 8 0 15 -4 15 -10z m10 -44 c0 -2 -8 -10 -17 -17 -16 -13 -17 -12 -4 4
13 16 21 21 21 13z m43 -56 c-5 -20 -23 -28 -23 -10 0 6 -10 11 -22 11 -19 1
-17 3 7 9 17 4 33 8 37 9 3 0 4 -8 1 -19z"/>
<path d="M250 2450 c0 -5 11 -10 25 -10 14 0 25 5 25 10 0 6 -11 10 -25 10
-14 0 -25 -4 -25 -10z"/>
<path d="M240 2210 c0 -16 -7 -20 -36 -20 -34 0 -36 -2 -30 -25 6 -24 4 -25
-34 -25 -22 0 -40 -4 -40 -9 0 -18 19 -21 62 -12 53 12 58 8 19 -15 -36 -21
-41 -39 -10 -31 21 6 21 3 16 -60 l-5 -65 30 6 c17 3 37 6 44 6 8 0 14 5 14
10 0 6 -7 10 -15 10 -8 0 -15 5 -15 10 0 6 -8 10 -17 10 -15 0 -16 2 -3 10 13
9 13 11 0 20 -13 8 -12 10 3 10 9 0 17 -4 17 -10 0 -5 13 -10 29 -10 22 0 31
6 41 29 6 17 8 35 4 42 -4 7 6 3 23 -9 37 -26 56 -28 51 -6 -4 20 -77 51 -87
37 -3 -6 -17 -13 -31 -17 -17 -5 -21 -4 -11 2 7 5 11 14 7 20 -8 13 28 22 92
22 28 0 52 5 52 10 0 6 -17 10 -39 10 -31 0 -38 4 -37 17 1 12 -7 19 -24 21
-14 2 -29 10 -33 18 -12 21 -37 17 -37 -6z m60 -40 c0 -12 -28 -25 -36 -17 -9
9 6 27 22 27 8 0 14 -5 14 -10z m-70 -10 c0 -5 -7 -10 -15 -10 -8 0 -15 5 -15
10 0 6 7 10 15 10 8 0 15 -4 15 -10z m10 -44 c0 -2 -8 -10 -17 -17 -16 -13
-17 -12 -4 4 13 16 21 21 21 13z m43 -56 c-5 -20 -23 -28 -23 -10 0 6 -10 11
-22 11 -19 1 -17 3 7 9 17 4 33 8 37 9 3 0 4 -8 1 -19z"/>
<path d="M250 2000 c0 -5 7 -10 15 -10 8 0 15 -4 15 -10 0 -5 16 -10 35 -10
28 0 35 -4 35 -19 0 -31 -11 -51 -27 -51 -10 0 -13 -6 -9 -16 3 -9 6 -18 6
-20 0 -2 7 -4 15 -4 21 0 43 39 47 85 l3 40 -42 3 c-24 2 -43 7 -43 13 0 5
-11 9 -25 9 -14 0 -25 -4 -25 -10z"/>
<path d="M240 1760 c0 -16 -7 -20 -36 -20 -34 0 -36 -2 -30 -25 6 -24 4 -25
-34 -25 -22 0 -40 -4 -40 -9 0 -18 19 -21 62 -12 53 12 58 8 19 -15 -36 -21
-41 -39 -10 -31 21 6 21 3 16 -60 l-5 -65 30 6 c17 3 37 6 44 6 8 0 14 5 14
10 0 6 -7 10 -15 10 -8 0 -15 5 -15 10 0 6 -8 10 -17 10 -15 0 -16 2 -3 10 13
9 13 11 0 20 -13 8 -12 10 3 10 9 0 17 -4 17 -10 0 -5 13 -10 29 -10 22 0 31
6 41 29 6 17 8 35 4 42 -4 7 6 3 23 -9 37 -26 56 -28 51 -6 -4 20 -77 51 -87
37 -3 -6 -17 -13 -31 -17 -17 -5 -21 -4 -11 2 7 5 11 14 7 20 -8 13 28 22 92
22 28 0 52 5 52 10 0 6 -17 10 -39 10 -31 0 -38 4 -37 17 1 12 -7 19 -24 21
-14 2 -29 10 -33 18 -12 21 -37 17 -37 -6z m60 -40 c0 -12 -28 -25 -36 -17 -9
9 6 27 22 27 8 0 14 -5 14 -10z m-70 -10 c0 -5 -7 -10 -15 -10 -8 0 -15 5 -15
10 0 6 7 10 15 10 8 0 15 -4 15 -10z m10 -44 c0 -2 -8 -10 -17 -17 -16 -13
-17 -12 -4 4 13 16 21 21 21 13z m43 -56 c-5 -20 -23 -28 -23 -10 0 6 -10 11
-22 11 -19 1 -17 3 7 9 17 4 33 8 37 9 3 0 4 -8 1 -19z"/>
<path d="M250 1550 c0 -5 7 -10 15 -10 8 0 15 -4 15 -10 0 -5 16 -10 35 -10
28 0 35 -4 35 -19 0 -31 -11 -51 -27 -51 -10 0 -13 -6 -9 -16 3 -9 6 -18 6
-20 0 -2 7 -4 15 -4 21 0 43 39 47 85 l3 40 -42 3 c-24 2 -43 7 -43 13 0 5
-11 9 -25 9 -14 0 -25 -4 -25 -10z"/>
<path d="M140 1481 c-5 -11 -10 -24 -10 -30 0 -17 27 -13 34 5 16 41 -4 62
-24 25z"/>
<path d="M240 1310 c0 -16 -7 -20 -36 -20 -34 0 -36 -2 -30 -25 6 -24 4 -25
-34 -25 -22 0 -40 -4 -40 -9 0 -18 19 -21 62 -12 53 12 58 8 19 -15 -36 -21
-41 -39 -10 -31 21 6 21 3 16 -60 l-5 -65 30 6 c17 3 37 6 44 6 8 0 14 5 14
10 0 6 -7 10 -15 10 -8 0 -15 5 -15 10 0 6 -8 10 -17 10 -15 0 -16 2 -3 10 13
9 13 11 0 20 -13 8 -12 10 3 10 9 0 17 -4 17 -10 0 -5 13 -10 29 -10 22 0 31
6 41 29 6 17 8 35 4 42 -4 7 6 3 23 -9 37 -26 56 -28 51 -6 -4 20 -77 51 -87
37 -3 -6 -17 -13 -31 -17 -17 -5 -21 -4 -11 2 7 5 11 14 7 20 -8 13 28 22 92
22 28 0 52 5 52 10 0 6 -17 10 -39 10 -31 0 -38 4 -37 17 1 12 -7 19 -24 21
-14 2 -29 10 -33 18 -12 21 -37 17 -37 -6z m60 -40 c0 -12 -28 -25 -36 -17 -9
9 6 27 22 27 8 0 14 -5 14 -10z m-70 -10 c0 -5 -7 -10 -15 -10 -8 0 -15 5 -15
10 0 6 7 10 15 10 8 0 15 -4 15 -10z m10 -44 c0 -2 -8 -10 -17 -17 -16 -13
-17 -12 -4 4 13 16 21 21 21 13z m43 -56 c-5 -20 -23 -28 -23 -10 0 6 -10 11
-22 11 -19 1 -17 3 7 9 17 4 33 8 37 9 3 0 4 -8 1 -19z"/>
<path d="M250 1100 c0 -5 7 -10 15 -10 8 0 15 -4 15 -10 0 -5 16 -10 35 -10
28 0 35 -4 35 -19 0 -31 -11 -51 -27 -51 -10 0 -13 -6 -9 -16 3 -9 6 -18 6
-20 0 -2 7 -4 15 -4 21 0 43 39 47 85 l3 40 -42 3 c-24 2 -43 7 -43 13 0 5
-11 9 -25 9 -14 0 -25 -4 -25 -10z"/>
<path d="M140 1031 c-5 -11 -10 -24 -10 -30 0 -17 27 -13 34 5 16 41 -4 62
-24 25z"/>
<path d="M192 1024 c1 -9 9 -19 16 -22 9 -3 13 2 10 14 -1 9 -9 19 -16 22 -9
3 -13 -2 -10 -14z"/>
<path d="M240 860 c0 -16 -7 -20 -36 -20 -34 0 -36 -2 -30 -25 6 -24 4 -25
-34 -25 -22 0 -40 -4 -40 -9 0 -18 19 -21 62 -12 53 12 58 8 19 -15 -36 -21
-41 -39 -10 -31 21 6 21 3 16 -60 l-5 -65 30 6 c17 3 37 6 44 6 8 0 14 5 14
10 0 6 -7 10 -15 10 -8 0 -15 5 -15 10 0 6 -8 10 -17 10 -15 0 -16 2 -3 10 13
9 13 11 0 20 -13 8 -12 10 3 10 9 0 17 -4 17 -10 0 -5 13 -10 29 -10 22 0 31
6 41 29 6 17 8 35 4 42 -4 7 6 3 23 -9 37 -26 56 -28 51 -6 -4 20 -77 51 -87
37 -3 -6 -17 -13 -31 -17 -17 -5 -21 -4 -11 2 7 5 11 14 7 20 -8 13 28 22 92
22 28 0 52 5 52 10 0 6 -17 10 -39 10 -31 0 -38 4 -37 17 1 12 -7 19 -24 21
-14 2 -29 10 -33 18 -12 21 -37 17 -37 -6z m60 -40 c0 -12 -28 -25 -36 -17 -9
9 6 27 22 27 8 0 14 -5 14 -10z m-70 -10 c0 -5 -7 -10 -15 -10 -8 0 -15 5 -15
10 0 6 7 10 15 10 8 0 15 -4 15 -10z m10 -44 c0 -2 -8 -10 -17 -17 -16 -13
-17 -12 -4 4 13 16 21 21 21 13z m43 -56 c-5 -20 -23 -28 -23 -10 0 6 -10 11
-22 11 -19 1 -17 3 7 9 17 4 33 8 37 9 3 0 4 -8 1 -19z"/>
<path d="M250 650 c0 -5 7 -10 15 -10 8 0 15 -4 15 -10 0 -5 16 -10 35 -10 28
0 35 -4 35 -19 0 -31 -11 -51 -27 -51 -10 0 -13 -6 -9 -16 3 -9 6 -18 6 -20 0
-2 7 -4 15 -4 21 0 43 39 47 85 l3 40 -42 3 c-24 2 -43 7 -43 13 0 5 -11 9
-25 9 -14 0 -25 -4 -25 -10z"/>
<path d="M140 581 c-5 -11 -10 -24 -10 -30 0 -17 27 -13 34 5 16 41 -4 62 -24
25z"/>
<path d="M234 585 c3 -9 6 -19 6 -21 0 -2 7 -4 16 -4 22 0 13 34 -10 38 -14 3
-17 0 -12 -13z"/>
<path d="M192 574 c1 -9 9 -19 16 -22 9 -3 13 2 10 14 -1 9 -9 19 -16 22 -9 3
-13 -2 -10 -14z"/>
<path d="M240 410 c0 -16 -7 -20 -36 -20 -34 0 -36 -2 -30 -25 6 -24 4 -25
-34 -25 -22 0 -40 -4 -40 -9 0 -18 19 -21 62 -12 53 12 58 8 19 -15 -36 -21
-41 -39 -10 -31 21 6 21 3 16 -60 l-5 -65 30 6 c17 3 37 6 44 6 8 0 14 5 14
10 0 6 -7 10 -15 10 -8 0 -15 5 -15 10 0 6 -8 10 -17 10 -15 0 -16 2 -3 10 13
9 13 11 0 20 -13 8 -12 10 3 10 9 0 17 -4 17 -10 0 -5 13 -10 29 -10 22 0 31
6 41 29 6 17 8 35 4 42 -4 7 6 3 23 -9 37 -26 56 -28 51 -6 -4 20 -77 51 -87
37 -3 -6 -17 -13 -31 -17 -17 -5 -21 -4 -11 2 7 5 11 14 7 20 -8 13 28 22 92
22 28 0 52 5 52 10 0 6 -17 10 -39 10 -31 0 -38 4 -37 17 1 12 -7 19 -24 21
-14 2 -29 10 -33 18 -12 21 -37 17 -37 -6z m60 -40 c0 -12 -28 -25 -36 -17 -9
9 6 27 22 27 8 0 14 -5 14 -10z m-70 -10 c0 -5 -7 -10 -15 -10 -8 0 -15 5 -15
10 0 6 7 10 15 10 8 0 15 -4 15 -10z m10 -44 c0 -2 -8 -10 -17 -17 -16 -13
-17 -12 -4 4 13 16 21 21 21 13z m43 -56 c-5 -20 -23 -28 -23 -10 0 6 -10 11
-22 11 -19 1 -17 3 7 9 17 4 33 8 37 9 3 0 4 -8 1 -19z"/>
<path d="M250 200 c0 -5 7 -10 15 -10 8 0 15 -4 15 -10 0 -5 16 -10 35 -10 28
0 35 -4 35 -19 0 -31 -11 -51 -27 -51 -10 0 -13 -6 -9 -16 3 -9 6 -18 6 -20 0
-2 7 -4 15 -4 21 0 43 39 47 85 l3 40 -42 3 c-24 2 -43 7 -43 13 0 5 -11 9
-25 9 -14 0 -25 -4 -25 -10z"/>
<path d="M280 154 c0 -13 21 -44 30 -44 16 0 11 37 -6 44 -19 7 -24 8 -24 0z"/>
<path d="M140 131 c-5 -11 -10 -24 -10 -30 0 -17 27 -13 34 5 16 41 -4 62 -24
25z"/>
<path d="M234 135 c3 -9 6 -19 6 -21 0 -2 7 -4 16 -4 22 0 13 34 -10 38 -14 3
-17 0 -12 -13z"/>
<path d="M192 124 c1 -9 9 -19 16 -22 9 -3 13 2 10 14 -1 9 -9 19 -16 22 -9 3
-13 -2 -10 -14z"/>
</g>
</svg>
