<?xml version="1.0" standalone="no"?>
<!DOCTYPE svg PUBLIC "-//W3C//DTD SVG 20010904//EN"
 "http://www.w3.org/TR/2001/REC-SVG-20010904/DTD/svg10.dtd">
<svg version="1.0" xmlns="http://www.w3.org/2000/svg"
 width="95.000000pt" height="725.000000pt" viewBox="0 0 95.000000 725.000000"
 preserveAspectRatio="xMidYMid meet">
<metadata>
Created by potrace 1.16, written by Peter Selinger 2001-2019
</metadata>
<g transform="translate(0.000000,725.000000) scale(0.100000,-0.100000)"
fill="#000000" stroke="none">
<path d="M320 7152 c0 -10 -6 -26 -14 -37 -7 -11 -16 -53 -20 -93 l-6 -72 42
6 c72 12 73 11 76 -23 4 -40 -13 -74 -33 -67 -18 7 -19 -5 -1 -28 29 -39 50
-14 65 78 11 70 6 76 -64 70 -27 -2 -40 -1 -27 1 31 6 28 21 -5 26 -26 4 -25
4 5 6 28 1 35 7 48 36 20 50 18 55 -23 55 -35 0 -36 1 -19 19 19 21 14 41 -10
41 -8 0 -14 -8 -14 -18z m24 -73 c-29 -11 -34 -10 -28 5 3 8 13 12 27 8 20 -5
20 -6 1 -13z m11 -29 c-3 -5 -16 -10 -28 -9 -21 0 -21 1 -2 9 28 12 37 12 30
0z"/>
<path d="M218 7113 c-27 -4 -27 -5 -31 -91 l-3 -87 -2 88 -2 87 -39 0 -39 0
-5 -97 c-2 -54 -8 -108 -12 -120 -4 -13 -3 -23 2 -23 12 0 33 45 33 71 0 18
25 37 36 27 9 -10 -9 -68 -22 -68 -8 0 -14 -4 -14 -8 0 -12 22 -32 36 -32 10
0 46 63 58 103 3 9 13 17 22 17 13 0 15 -7 9 -37 -4 -21 -12 -41 -18 -45 -9
-5 -7 -12 6 -25 11 -11 20 -14 25 -8 4 6 14 10 22 10 9 0 16 11 18 28 3 27
-12 38 -22 15 -3 -7 -4 33 -3 89 1 78 -1 104 -11 108 -8 3 -14 4 -15 4 -1 -1
-14 -4 -29 -6z m-63 -48 c0 -10 -6 -20 -12 -22 -8 -3 -13 5 -13 22 0 17 5 25
13 23 6 -3 12 -13 12 -23z m95 5 c0 -11 -7 -20 -15 -20 -8 0 -15 9 -15 20 0
11 7 20 15 20 8 0 15 -9 15 -20z m-2 -58 c2 -7 -3 -12 -12 -12 -9 0 -16 7 -16
16 0 17 22 14 28 -4z m-90 -4 c-6 -18 -28 -21 -28 -4 0 9 7 16 16 16 9 0 14
-5 12 -12z"/>
<path d="M547 7013 c-2 -54 -8 -108 -12 -120 -4 -13 -3 -23 2 -23 20 0 36 58
41 148 4 78 2 92 -11 92 -12 0 -16 -18 -20 -97z"/>
<path d="M310 6915 c0 -8 5 -15 10 -15 6 0 10 7 10 15 0 8 -4 15 -10 15 -5 0
-10 -7 -10 -15z"/>
<path d="M320 6702 c0 -10 -6 -26 -14 -37 -7 -11 -16 -53 -20 -93 l-6 -72 42
6 c72 12 73 11 76 -23 4 -40 -13 -74 -33 -67 -18 7 -19 -5 -1 -28 29 -39 50
-14 65 78 11 70 6 76 -64 70 -27 -2 -40 -1 -27 1 31 6 28 21 -5 26 -26 4 -25
4 5 6 28 1 35 7 48 36 20 50 18 55 -23 55 -35 0 -36 1 -19 19 19 21 14 41 -10
41 -8 0 -14 -8 -14 -18z m24 -73 c-29 -11 -34 -10 -28 5 3 8 13 12 27 8 20 -5
20 -6 1 -13z m11 -29 c-3 -5 -16 -10 -28 -9 -21 0 -21 1 -2 9 28 12 37 12 30
0z"/>
<path d="M218 6663 c-27 -4 -27 -5 -31 -91 l-3 -87 -2 88 -2 87 -39 0 -39 0
-5 -97 c-2 -54 -8 -108 -12 -120 -4 -13 -3 -23 2 -23 12 0 33 45 33 71 0 18
25 37 36 27 9 -10 -9 -68 -22 -68 -8 0 -14 -4 -14 -8 0 -12 22 -32 36 -32 10
0 46 63 58 103 3 9 13 17 22 17 13 0 15 -7 9 -37 -4 -21 -12 -41 -18 -45 -9
-5 -7 -12 6 -25 11 -11 20 -14 25 -8 4 6 14 10 22 10 9 0 16 11 18 28 3 27
-12 38 -22 15 -3 -7 -4 33 -3 89 1 78 -1 104 -11 108 -8 3 -14 4 -15 4 -1 -1
-14 -4 -29 -6z m-63 -48 c0 -10 -6 -20 -12 -22 -8 -3 -13 5 -13 22 0 17 5 25
13 23 6 -3 12 -13 12 -23z m95 5 c0 -11 -7 -20 -15 -20 -8 0 -15 9 -15 20 0
11 7 20 15 20 8 0 15 -9 15 -20z m-2 -58 c2 -7 -3 -12 -12 -12 -9 0 -16 7 -16
16 0 17 22 14 28 -4z m-90 -4 c-6 -18 -28 -21 -28 -4 0 9 7 16 16 16 9 0 14
-5 12 -12z"/>
<path d="M547 6563 c-2 -54 -8 -108 -12 -120 -4 -13 -3 -23 2 -23 19 0 35 56
41 138 5 92 25 109 30 26 5 -73 -6 -134 -24 -134 -19 0 -14 -20 9 -34 29 -18
37 10 37 132 l0 112 -39 0 -39 0 -5 -97z"/>
<path d="M342 6474 c1 -9 9 -19 16 -22 9 -3 13 2 10 14 -1 9 -9 19 -16 22 -9
3 -13 -2 -10 -14z"/>
<path d="M310 6465 c0 -8 5 -15 10 -15 6 0 10 7 10 15 0 8 -4 15 -10 15 -5 0
-10 -7 -10 -15z"/>
<path d="M320 6252 c0 -10 -6 -26 -14 -37 -7 -11 -16 -53 -20 -93 l-6 -72 42
6 c64 10 70 10 75 -4 3 -7 -1 -10 -11 -6 -9 3 -16 1 -16 -5 0 -6 -7 -8 -15 -5
-9 4 -15 0 -15 -9 0 -20 20 -33 29 -19 4 6 12 7 20 3 18 -12 -4 -52 -24 -45
-18 7 -19 -5 -1 -28 29 -39 50 -14 65 78 11 70 6 76 -64 70 -27 -2 -40 -1 -27
1 31 6 28 21 -5 26 -26 4 -25 4 5 6 28 1 35 7 48 36 20 50 18 55 -23 55 -35 0
-36 1 -19 19 19 21 14 41 -10 41 -8 0 -14 -8 -14 -18z m24 -73 c-29 -11 -34
-10 -28 5 3 8 13 12 27 8 20 -5 20 -6 1 -13z m11 -29 c-3 -5 -16 -10 -28 -9
-21 0 -21 1 -2 9 28 12 37 12 30 0z"/>
<path d="M218 6213 c-27 -4 -27 -5 -31 -91 l-3 -87 -2 88 -2 87 -39 0 -39 0
-5 -97 c-2 -54 -8 -108 -12 -120 -4 -13 -3 -23 2 -23 12 0 33 45 33 71 0 18
25 37 36 27 9 -10 -9 -68 -22 -68 -8 0 -14 -4 -14 -8 0 -12 22 -32 36 -32 10
0 46 63 58 103 3 9 13 17 22 17 13 0 15 -7 9 -37 -4 -21 -12 -41 -18 -45 -9
-5 -7 -12 6 -25 11 -11 20 -14 25 -8 4 6 14 10 22 10 9 0 16 11 18 28 3 27
-12 38 -22 15 -3 -7 -4 33 -3 89 1 78 -1 104 -11 108 -8 3 -14 4 -15 4 -1 -1
-14 -4 -29 -6z m-63 -48 c0 -10 -6 -20 -12 -22 -8 -3 -13 5 -13 22 0 17 5 25
13 23 6 -3 12 -13 12 -23z m95 5 c0 -11 -7 -20 -15 -20 -8 0 -15 9 -15 20 0
11 7 20 15 20 8 0 15 -9 15 -20z m-2 -58 c2 -7 -3 -12 -12 -12 -9 0 -16 7 -16
16 0 17 22 14 28 -4z m-90 -4 c-6 -18 -28 -21 -28 -4 0 9 7 16 16 16 9 0 14
-5 12 -12z"/>
<path d="M547 6113 c-2 -54 -8 -108 -12 -120 -4 -13 -3 -23 2 -23 15 0 31 43
39 100 7 55 34 72 34 21 0 -51 -12 -91 -27 -91 -18 0 -12 -20 10 -34 29 -18
37 10 37 132 l0 112 -39 0 -39 0 -5 -97z m58 52 c0 -10 -6 -20 -12 -22 -8 -3
-13 5 -13 22 0 17 5 25 13 23 6 -3 12 -13 12 -23z"/>
<path d="M310 6015 c0 -8 5 -15 10 -15 6 0 10 7 10 15 0 8 -4 15 -10 15 -5 0
-10 -7 -10 -15z"/>
<path d="M547 5663 c-2 -54 -8 -108 -12 -120 -4 -13 -3 -23 2 -23 12 0 33 45
33 71 0 18 25 37 36 27 10 -10 -9 -68 -23 -68 -18 0 -12 -20 10 -34 29 -18 37
10 37 132 l0 112 -39 0 -39 0 -5 -97z m58 52 c0 -10 -6 -20 -12 -22 -8 -3 -13
5 -13 22 0 17 5 25 13 23 6 -3 12 -13 12 -23z m3 -57 c-6 -18 -28 -21 -28 -4
0 9 7 16 16 16 9 0 14 -5 12 -12z"/>
<path d="M547 5213 c-2 -54 -8 -108 -12 -120 -4 -13 -3 -23 2 -23 12 0 33 45
33 71 0 18 25 37 36 27 9 -10 -9 -68 -22 -68 -17 0 -18 -12 -2 -28 20 -20 33
-14 57 28 30 53 43 210 18 210 -13 0 -17 -15 -20 -87 l-3 -88 -2 88 -2 87 -39
0 -39 0 -5 -97z m58 52 c0 -10 -6 -20 -12 -22 -8 -3 -13 5 -13 22 0 17 5 25
13 23 6 -3 12 -13 12 -23z m3 -57 c-6 -18 -28 -21 -28 -4 0 9 7 16 16 16 9 0
14 -5 12 -12z"/>
<path d="M668 4863 c-27 -4 -27 -5 -31 -91 l-3 -87 -2 88 -2 87 -39 0 -39 0
-5 -97 c-2 -54 -8 -108 -12 -120 -4 -13 -3 -23 2 -23 12 0 33 45 33 71 0 18
25 37 36 27 9 -10 -9 -68 -22 -68 -17 0 -18 -12 -2 -28 20 -20 33 -14 56 27
15 26 24 65 29 115 4 57 10 76 21 76 21 0 13 -177 -9 -190 -12 -8 -11 -12 3
-27 10 -9 21 -13 25 -9 12 12 20 240 8 248 -5 4 -12 7 -15 6 -3 0 -17 -3 -32
-5z m-63 -48 c0 -10 -6 -20 -12 -22 -8 -3 -13 5 -13 22 0 17 5 25 13 23 6 -3
12 -13 12 -23z m3 -57 c-6 -18 -28 -21 -28 -4 0 9 7 16 16 16 9 0 14 -5 12
-12z"/>
<path d="M668 4413 c-27 -4 -27 -5 -31 -91 l-3 -87 -2 88 -2 87 -39 0 -39 0
-5 -97 c-2 -54 -8 -108 -12 -120 -4 -13 -3 -23 2 -23 12 0 33 45 33 71 0 18
25 37 36 27 9 -10 -9 -68 -22 -68 -8 0 -14 -4 -14 -8 0 -12 22 -32 35 -32 18
0 52 71 60 123 4 31 11 47 18 44 17 -6 13 -117 -4 -128 -12 -7 -11 -11 3 -26
10 -9 21 -13 25 -9 12 12 20 240 8 248 -5 4 -12 7 -15 6 -3 0 -17 -3 -32 -5z
m-63 -48 c0 -10 -6 -20 -12 -22 -8 -3 -13 5 -13 22 0 17 5 25 13 23 6 -3 12
-13 12 -23z m95 5 c0 -11 -7 -20 -15 -20 -8 0 -15 9 -15 20 0 11 7 20 15 20 8
0 15 -9 15 -20z m-92 -62 c-6 -18 -28 -21 -28 -4 0 9 7 16 16 16 9 0 14 -5 12
-12z"/>
<path d="M668 3963 c-27 -4 -27 -5 -31 -91 l-3 -87 -2 88 -2 87 -39 0 -39 0
-5 -97 c-2 -54 -8 -108 -12 -120 -4 -13 -3 -23 2 -23 12 0 33 45 33 71 0 18
25 37 36 27 9 -10 -9 -68 -22 -68 -8 0 -14 -4 -14 -8 0 -12 22 -32 36 -32 10
0 46 63 58 103 3 9 13 17 22 17 13 0 15 -7 9 -37 -4 -21 -12 -41 -18 -45 -9
-5 -7 -12 5 -25 10 -9 21 -13 25 -9 12 12 20 240 8 248 -5 4 -12 7 -15 6 -3 0
-17 -3 -32 -5z m-63 -48 c0 -10 -6 -20 -12 -22 -8 -3 -13 5 -13 22 0 17 5 25
13 23 6 -3 12 -13 12 -23z m95 5 c0 -11 -7 -20 -15 -20 -8 0 -15 9 -15 20 0
11 7 20 15 20 8 0 15 -9 15 -20z m-2 -58 c2 -7 -3 -12 -12 -12 -9 0 -16 7 -16
16 0 17 22 14 28 -4z m-90 -4 c-6 -18 -28 -21 -28 -4 0 9 7 16 16 16 9 0 14
-5 12 -12z"/>
<path d="M763 3533 c-15 -49 -8 -54 22 -18 26 32 27 48 4 53 -9 1 -19 -12 -26
-35z"/>
<path d="M668 3513 c-27 -4 -27 -5 -31 -91 l-3 -87 -2 88 -2 87 -39 0 -39 0
-5 -97 c-2 -54 -8 -108 -12 -120 -4 -13 -3 -23 2 -23 12 0 33 45 33 71 0 18
25 37 36 27 9 -10 -9 -68 -22 -68 -8 0 -14 -4 -14 -8 0 -12 22 -32 36 -32 10
0 46 63 58 103 3 9 13 17 22 17 13 0 15 -7 9 -37 -4 -21 -12 -41 -18 -45 -9
-5 -7 -12 5 -25 10 -9 21 -13 25 -9 12 12 20 240 8 248 -5 4 -12 7 -15 6 -3 0
-17 -3 -32 -5z m-63 -48 c0 -10 -6 -20 -12 -22 -8 -3 -13 5 -13 22 0 17 5 25
13 23 6 -3 12 -13 12 -23z m95 5 c0 -11 -7 -20 -15 -20 -8 0 -15 9 -15 20 0
11 7 20 15 20 8 0 15 -9 15 -20z m-2 -58 c2 -7 -3 -12 -12 -12 -9 0 -16 7 -16
16 0 17 22 14 28 -4z m-90 -4 c-6 -18 -28 -21 -28 -4 0 9 7 16 16 16 9 0 14
-5 12 -12z"/>
<path d="M770 3102 c0 -10 -6 -26 -14 -37 -18 -27 -30 -158 -13 -152 7 2 13
27 15 63 2 44 9 67 28 91 25 33 25 53 -2 53 -8 0 -14 -8 -14 -18z"/>
<path d="M668 3063 c-27 -4 -27 -5 -31 -91 l-3 -87 -2 88 -2 87 -39 0 -39 0
-5 -97 c-2 -54 -8 -108 -12 -120 -4 -13 -3 -23 2 -23 12 0 33 45 33 71 0 18
25 37 36 27 9 -10 -9 -68 -22 -68 -8 0 -14 -4 -14 -8 0 -12 22 -32 36 -32 10
0 46 63 58 103 3 9 13 17 22 17 13 0 15 -7 9 -37 -4 -21 -12 -41 -18 -45 -9
-5 -7 -12 5 -25 10 -9 21 -13 25 -9 12 12 20 240 8 248 -5 4 -12 7 -15 6 -3 0
-17 -3 -32 -5z m-63 -48 c0 -10 -6 -20 -12 -22 -8 -3 -13 5 -13 22 0 17 5 25
13 23 6 -3 12 -13 12 -23z m95 5 c0 -11 -7 -20 -15 -20 -8 0 -15 9 -15 20 0
11 7 20 15 20 8 0 15 -9 15 -20z m-2 -58 c2 -7 -3 -12 -12 -12 -9 0 -16 7 -16
16 0 17 22 14 28 -4z m-90 -4 c-6 -18 -28 -21 -28 -4 0 9 7 16 16 16 9 0 14
-5 12 -12z"/>
<path d="M770 2652 c0 -10 -6 -26 -14 -37 -18 -27 -30 -158 -13 -152 7 2 13
23 15 48 4 75 9 88 33 82 17 -5 20 -11 15 -34 -8 -41 19 -38 33 2 16 46 15 49
-26 49 -35 0 -36 1 -19 19 19 21 14 41 -10 41 -8 0 -14 -8 -14 -18z"/>
<path d="M668 2613 c-27 -4 -27 -5 -31 -91 l-3 -87 -2 88 -2 87 -39 0 -39 0
-5 -97 c-2 -54 -8 -108 -12 -120 -4 -13 -3 -23 2 -23 12 0 33 45 33 71 0 18
25 37 36 27 9 -10 -9 -68 -22 -68 -8 0 -14 -4 -14 -8 0 -12 22 -32 36 -32 10
0 46 63 58 103 3 9 13 17 22 17 13 0 15 -7 9 -37 -4 -21 -12 -41 -18 -45 -9
-5 -7 -12 5 -25 10 -9 21 -13 25 -9 12 12 20 240 8 248 -5 4 -12 7 -15 6 -3 0
-17 -3 -32 -5z m-63 -48 c0 -10 -6 -20 -12 -22 -8 -3 -13 5 -13 22 0 17 5 25
13 23 6 -3 12 -13 12 -23z m95 5 c0 -11 -7 -20 -15 -20 -8 0 -15 9 -15 20 0
11 7 20 15 20 8 0 15 -9 15 -20z m-2 -58 c2 -7 -3 -12 -12 -12 -9 0 -16 7 -16
16 0 17 22 14 28 -4z m-90 -4 c-6 -18 -28 -21 -28 -4 0 9 7 16 16 16 9 0 14
-5 12 -12z"/>
<path d="M770 2202 c0 -10 -6 -26 -14 -37 -18 -27 -30 -158 -13 -152 7 2 13
22 15 45 2 23 7 42 12 42 4 0 16 3 24 6 12 5 15 2 10 -10 -4 -10 -1 -16 9 -16
13 0 37 46 37 71 0 5 -16 9 -37 9 -35 0 -36 1 -19 19 19 21 14 41 -10 41 -8 0
-14 -8 -14 -18z m24 -73 c-29 -11 -34 -10 -28 5 3 8 13 12 27 8 20 -5 20 -6 1
-13z"/>
<path d="M668 2163 c-27 -4 -27 -5 -31 -91 l-3 -87 -2 88 -2 87 -39 0 -39 0
-5 -97 c-2 -54 -8 -108 -12 -120 -4 -13 -3 -23 2 -23 12 0 33 45 33 71 0 18
25 37 36 27 9 -10 -9 -68 -22 -68 -8 0 -14 -4 -14 -8 0 -12 22 -32 36 -32 10
0 46 63 58 103 3 9 13 17 22 17 13 0 15 -7 9 -37 -4 -21 -12 -41 -18 -45 -9
-5 -7 -12 5 -25 10 -9 21 -13 25 -9 12 12 20 240 8 248 -5 4 -12 7 -15 6 -3 0
-17 -3 -32 -5z m-63 -48 c0 -10 -6 -20 -12 -22 -8 -3 -13 5 -13 22 0 17 5 25
13 23 6 -3 12 -13 12 -23z m95 5 c0 -11 -7 -20 -15 -20 -8 0 -15 9 -15 20 0
11 7 20 15 20 8 0 15 -9 15 -20z m-2 -58 c2 -7 -3 -12 -12 -12 -9 0 -16 7 -16
16 0 17 22 14 28 -4z m-90 -4 c-6 -18 -28 -21 -28 -4 0 9 7 16 16 16 9 0 14
-5 12 -12z"/>
<path d="M770 1752 c0 -10 -6 -26 -14 -37 -18 -27 -30 -158 -13 -152 7 2 13
16 15 30 3 23 8 27 33 27 25 0 33 6 45 35 20 50 18 55 -23 55 -35 0 -36 1 -19
19 19 21 14 41 -10 41 -8 0 -14 -8 -14 -18z m24 -73 c-29 -11 -34 -10 -28 5 3
8 13 12 27 8 20 -5 20 -6 1 -13z m11 -29 c-3 -5 -16 -10 -28 -9 -21 0 -21 1
-2 9 28 12 37 12 30 0z"/>
<path d="M668 1713 c-27 -4 -27 -5 -31 -91 l-3 -87 -2 88 -2 87 -39 0 -39 0
-5 -97 c-2 -54 -8 -108 -12 -120 -4 -13 -3 -23 2 -23 12 0 33 45 33 71 0 18
25 37 36 27 9 -10 -9 -68 -22 -68 -8 0 -14 -4 -14 -8 0 -12 22 -32 36 -32 10
0 46 63 58 103 3 9 13 17 22 17 13 0 15 -7 9 -37 -4 -21 -12 -41 -18 -45 -9
-5 -7 -12 5 -25 10 -9 21 -13 25 -9 12 12 20 240 8 248 -5 4 -12 7 -15 6 -3 0
-17 -3 -32 -5z m-63 -48 c0 -10 -6 -20 -12 -22 -8 -3 -13 5 -13 22 0 17 5 25
13 23 6 -3 12 -13 12 -23z m95 5 c0 -11 -7 -20 -15 -20 -8 0 -15 9 -15 20 0
11 7 20 15 20 8 0 15 -9 15 -20z m-2 -58 c2 -7 -3 -12 -12 -12 -9 0 -16 7 -16
16 0 17 22 14 28 -4z m-90 -4 c-6 -18 -28 -21 -28 -4 0 9 7 16 16 16 9 0 14
-5 12 -12z"/>
<path d="M770 1302 c0 -10 -6 -26 -14 -37 -16 -25 -30 -155 -15 -155 5 0 12 7
15 15 4 8 17 15 30 15 33 0 30 18 -3 23 -26 4 -25 4 5 6 28 1 35 7 48 36 20
50 18 55 -23 55 -35 0 -36 1 -19 19 19 21 14 41 -10 41 -8 0 -14 -8 -14 -18z
m24 -73 c-29 -11 -34 -10 -28 5 3 8 13 12 27 8 20 -5 20 -6 1 -13z m11 -29
c-3 -5 -16 -10 -28 -9 -21 0 -21 1 -2 9 28 12 37 12 30 0z"/>
<path d="M668 1263 c-27 -4 -27 -5 -31 -91 l-3 -87 -2 88 -2 87 -39 0 -39 0
-5 -97 c-2 -54 -8 -108 -12 -120 -4 -13 -3 -23 2 -23 12 0 33 45 33 71 0 18
25 37 36 27 9 -10 -9 -68 -22 -68 -8 0 -14 -4 -14 -8 0 -12 22 -32 36 -32 10
0 46 63 58 103 3 9 13 17 22 17 13 0 15 -7 9 -37 -4 -21 -12 -41 -18 -45 -9
-5 -7 -12 5 -25 10 -9 21 -13 25 -9 12 12 20 240 8 248 -5 4 -12 7 -15 6 -3 0
-17 -3 -32 -5z m-63 -48 c0 -10 -6 -20 -12 -22 -8 -3 -13 5 -13 22 0 17 5 25
13 23 6 -3 12 -13 12 -23z m95 5 c0 -11 -7 -20 -15 -20 -8 0 -15 9 -15 20 0
11 7 20 15 20 8 0 15 -9 15 -20z m-2 -58 c2 -7 -3 -12 -12 -12 -9 0 -16 7 -16
16 0 17 22 14 28 -4z m-90 -4 c-6 -18 -28 -21 -28 -4 0 9 7 16 16 16 9 0 14
-5 12 -12z"/>
<path d="M770 852 c0 -10 -6 -26 -14 -37 -7 -11 -16 -53 -20 -93 l-6 -72 42 6
c72 12 73 11 76 -23 4 -40 -13 -74 -33 -67 -18 7 -19 -5 -1 -28 29 -39 50 -14
65 78 11 70 6 76 -64 70 -27 -2 -40 -1 -27 1 31 6 28 21 -5 26 -26 4 -25 4 5
6 28 1 35 7 48 36 20 50 18 55 -23 55 -35 0 -36 1 -19 19 19 21 14 41 -10 41
-8 0 -14 -8 -14 -18z m24 -73 c-29 -11 -34 -10 -28 5 3 8 13 12 27 8 20 -5 20
-6 1 -13z m11 -29 c-3 -5 -16 -10 -28 -9 -21 0 -21 1 -2 9 28 12 37 12 30 0z"/>
<path d="M668 813 c-27 -4 -27 -5 -31 -91 l-3 -87 -2 88 -2 87 -39 0 -39 0 -5
-97 c-2 -54 -8 -108 -12 -120 -4 -13 -3 -23 2 -23 12 0 33 45 33 71 0 18 25
37 36 27 9 -10 -9 -68 -22 -68 -8 0 -14 -4 -14 -8 0 -12 22 -32 36 -32 10 0
46 63 58 103 3 9 13 17 22 17 13 0 15 -7 9 -37 -4 -21 -12 -41 -18 -45 -9 -5
-7 -12 5 -25 10 -9 21 -13 25 -9 12 12 20 240 8 248 -5 4 -12 7 -15 6 -3 0
-17 -3 -32 -5z m-63 -48 c0 -10 -6 -20 -12 -22 -8 -3 -13 5 -13 22 0 17 5 25
13 23 6 -3 12 -13 12 -23z m95 5 c0 -11 -7 -20 -15 -20 -8 0 -15 9 -15 20 0
11 7 20 15 20 8 0 15 -9 15 -20z m-2 -58 c2 -7 -3 -12 -12 -12 -9 0 -16 7 -16
16 0 17 22 14 28 -4z m-90 -4 c-6 -18 -28 -21 -28 -4 0 9 7 16 16 16 9 0 14
-5 12 -12z"/>
<path d="M770 402 c0 -10 -6 -26 -14 -37 -7 -11 -16 -53 -20 -93 l-6 -72 42 6
c72 12 73 11 76 -23 4 -40 -13 -74 -33 -67 -18 7 -19 -5 -1 -29 29 -38 50 -13
65 79 11 70 6 76 -64 70 -27 -2 -40 -1 -27 1 31 6 28 21 -5 26 -26 4 -25 4 5
6 28 1 35 7 48 36 20 50 18 55 -23 55 -35 0 -36 1 -19 19 19 21 14 41 -10 41
-8 0 -14 -8 -14 -18z m24 -73 c-29 -11 -34 -10 -28 5 3 8 13 12 27 8 20 -5 20
-6 1 -13z m11 -29 c-3 -5 -16 -10 -28 -9 -21 0 -21 1 -2 9 28 12 37 12 30 0z"/>
<path d="M668 363 c-27 -4 -27 -5 -31 -91 l-3 -87 -2 88 -2 87 -39 0 -39 0 -5
-97 c-2 -54 -8 -108 -12 -121 -4 -12 -3 -22 2 -22 12 0 33 45 33 71 0 18 25
37 36 27 9 -10 -9 -68 -22 -68 -8 0 -14 -4 -14 -8 0 -12 22 -32 36 -32 10 0
46 63 58 103 3 9 13 17 22 17 13 0 15 -7 9 -37 -4 -21 -12 -41 -18 -45 -9 -5
-7 -12 6 -25 11 -11 20 -14 25 -8 4 6 14 10 22 10 9 0 16 11 18 28 3 27 -12
38 -22 15 -3 -7 -4 33 -3 89 1 78 -1 104 -11 108 -8 3 -14 4 -15 4 -1 -1 -14
-4 -29 -6z m-63 -48 c0 -10 -6 -20 -12 -22 -8 -3 -13 5 -13 22 0 17 5 25 13
23 6 -3 12 -13 12 -23z m95 5 c0 -11 -7 -20 -15 -20 -8 0 -15 9 -15 20 0 11 7
20 15 20 8 0 15 -9 15 -20z m-2 -58 c2 -7 -3 -12 -12 -12 -9 0 -16 7 -16 16 0
17 22 14 28 -4z m-90 -4 c-6 -18 -28 -21 -28 -4 0 9 7 16 16 16 9 0 14 -5 12
-12z"/>
</g>
</svg>
