<?xml version="1.0" standalone="no"?>
<!DOCTYPE svg PUBLIC "-//W3C//DTD SVG 20010904//EN"
 "http://www.w3.org/TR/2001/REC-SVG-20010904/DTD/svg10.dtd">
<svg version="1.0" xmlns="http://www.w3.org/2000/svg"
 width="95.000000pt" height="725.000000pt" viewBox="0 0 95.000000 725.000000"
 preserveAspectRatio="xMidYMid meet">
<metadata>
Created by potrace 1.16, written by Peter Selinger 2001-2019
</metadata>
<g transform="translate(0.000000,725.000000) scale(0.100000,-0.100000)"
fill="#000000" stroke="none">
<path d="M310 7140 c-7 -16 -18 -30 -24 -30 -7 0 -12 -28 -13 -80 l-2 -81 37
7 c65 13 77 11 80 -15 6 -39 -7 -71 -28 -71 -23 0 -25 -8 -6 -33 17 -22 44
-13 51 17 19 78 23 121 12 129 -7 4 -37 5 -67 3 -56 -6 -58 -3 -7 8 41 9 34
28 -8 20 l-35 -6 0 41 c0 40 1 41 33 40 30 -2 30 -2 5 -6 -34 -5 -37 -20 -5
-26 l22 -4 -22 -2 c-36 -2 -27 -21 10 -21 29 0 35 5 46 36 16 44 3 58 -44 48
-30 -6 -30 -6 -12 14 11 11 16 26 12 31 -11 18 -22 12 -35 -19z"/>
<path d="M200 7111 c0 -30 -4 -41 -15 -41 -9 0 -15 9 -15 25 0 15 -6 25 -15
25 -12 0 -14 -11 -10 -55 l4 -55 -30 0 c-16 0 -29 -4 -29 -9 0 -17 15 -20 56
-11 21 4 56 11 77 14 39 7 52 26 17 26 -11 0 -20 5 -20 11 0 6 9 13 20 16 24
6 27 23 4 23 -11 0 -14 8 -12 32 2 24 -1 33 -14 36 -15 3 -18 -4 -18 -37z m0
-76 c0 -8 -7 -15 -15 -15 -8 0 -15 7 -15 15 0 8 7 15 15 15 8 0 15 -7 15 -15z"/>
<path d="M628 7073 c-34 -5 -37 -23 -4 -23 38 0 86 12 86 21 0 9 -31 10 -82 2z"/>
<path d="M163 6983 c-21 -4 -23 -10 -23 -59 0 -53 1 -54 25 -48 14 3 32 1 40
-6 24 -20 35 -1 35 61 0 58 0 59 -27 58 -16 -1 -38 -4 -50 -6z m47 -22 c0 -12
-39 -25 -48 -16 -7 7 17 25 36 25 6 0 12 -4 12 -9z m0 -46 c0 -9 -9 -15 -25
-15 -31 0 -33 17 -2 23 12 2 23 5 25 6 1 0 2 -6 2 -14z"/>
<path d="M268 6933 c-19 -5 -26 -53 -8 -53 6 0 10 7 10 16 0 11 6 14 21 9 16
-6 20 -3 17 11 -3 19 -14 24 -40 17z"/>
<path d="M310 6690 c-7 -16 -18 -30 -24 -30 -7 0 -12 -28 -13 -80 l-2 -81 37
7 c65 13 77 11 80 -15 6 -39 -7 -71 -28 -71 -23 0 -25 -8 -6 -33 17 -22 44
-13 51 17 19 78 23 121 12 129 -7 4 -37 5 -67 3 -56 -6 -58 -3 -7 8 41 9 34
28 -8 20 l-35 -6 0 41 c0 40 1 41 33 40 30 -2 30 -2 5 -6 -34 -5 -37 -20 -5
-26 l22 -4 -22 -2 c-36 -2 -27 -21 10 -21 29 0 35 5 46 36 16 44 3 58 -44 48
-30 -6 -30 -6 -12 14 11 11 16 26 12 31 -11 18 -22 12 -35 -19z"/>
<path d="M200 6661 c0 -30 -4 -41 -15 -41 -9 0 -15 9 -15 25 0 15 -6 25 -15
25 -12 0 -14 -11 -10 -55 l4 -55 -30 0 c-16 0 -29 -4 -29 -9 0 -17 15 -20 56
-11 21 4 56 11 77 14 39 7 52 26 17 26 -11 0 -20 5 -20 11 0 6 9 13 20 16 24
6 27 23 4 23 -11 0 -14 8 -12 32 2 24 -1 33 -14 36 -15 3 -18 -4 -18 -37z m0
-76 c0 -8 -7 -15 -15 -15 -8 0 -15 7 -15 15 0 8 7 15 15 15 8 0 15 -7 15 -15z"/>
<path d="M595 6628 c1 -24 3 -51 4 -60 2 -27 21 -21 21 6 0 20 6 25 45 30 25
4 45 12 45 18 0 7 -16 9 -45 5 -43 -6 -45 -5 -45 18 0 15 -6 25 -14 25 -10 0
-13 -11 -11 -42z"/>
<path d="M163 6533 c-21 -4 -23 -10 -23 -59 0 -53 1 -54 25 -48 14 3 32 1 40
-6 24 -20 35 -1 35 61 0 58 0 59 -27 58 -16 -1 -38 -4 -50 -6z m47 -22 c0 -12
-39 -25 -48 -16 -7 7 17 25 36 25 6 0 12 -4 12 -9z m0 -46 c0 -9 -9 -15 -25
-15 -31 0 -33 17 -2 23 12 2 23 5 25 6 1 0 2 -6 2 -14z"/>
<path d="M268 6483 c-19 -5 -26 -53 -8 -53 6 0 10 7 10 16 0 11 6 14 21 9 16
-6 20 -3 17 11 -3 19 -14 24 -40 17z"/>
<path d="M320 6476 c0 -9 7 -16 16 -16 17 0 14 22 -4 28 -7 2 -12 -3 -12 -12z"/>
<path d="M310 6240 c-7 -16 -18 -30 -24 -30 -7 0 -12 -28 -13 -80 l-2 -81 37
7 c65 13 77 11 80 -15 6 -39 -7 -71 -28 -71 -23 0 -25 -8 -6 -33 17 -22 44
-13 51 17 19 78 23 121 12 129 -7 4 -37 5 -67 3 -56 -6 -58 -3 -7 8 41 9 34
28 -8 20 l-35 -6 0 41 c0 40 1 41 33 40 30 -2 30 -2 5 -6 -34 -5 -37 -20 -5
-26 l22 -4 -22 -2 c-36 -2 -27 -21 10 -21 29 0 35 5 46 36 16 44 3 58 -44 48
-30 -6 -30 -6 -12 14 11 11 16 26 12 31 -11 18 -22 12 -35 -19z"/>
<path d="M200 6211 c0 -30 -4 -41 -15 -41 -9 0 -15 9 -15 25 0 15 -6 25 -15
25 -12 0 -14 -11 -10 -55 l4 -55 -30 0 c-16 0 -29 -4 -29 -9 0 -17 15 -20 56
-11 21 4 56 11 77 14 39 7 52 26 17 26 -11 0 -20 5 -20 11 0 6 9 13 20 16 24
6 27 23 4 23 -11 0 -14 8 -12 32 2 24 -1 33 -14 36 -15 3 -18 -4 -18 -37z m0
-76 c0 -8 -7 -15 -15 -15 -8 0 -15 7 -15 15 0 8 7 15 15 15 8 0 15 -7 15 -15z"/>
<path d="M650 6211 c0 -30 -4 -41 -15 -41 -9 0 -15 9 -15 25 0 15 -6 25 -14
25 -14 0 -14 -8 -7 -102 2 -28 21 -21 21 7 0 16 6 25 15 25 8 0 15 -9 15 -20
0 -11 5 -20 10 -20 6 0 10 9 10 21 0 12 8 23 20 26 24 6 27 23 4 23 -11 0 -14
8 -12 32 2 24 -1 33 -14 36 -15 3 -18 -4 -18 -37z"/>
<path d="M163 6083 c-21 -4 -23 -10 -23 -59 0 -53 1 -54 25 -48 14 3 32 1 40
-6 24 -20 35 -1 35 61 0 58 0 59 -27 58 -16 -1 -38 -4 -50 -6z m47 -22 c0 -12
-39 -25 -48 -16 -7 7 17 25 36 25 6 0 12 -4 12 -9z m0 -46 c0 -9 -9 -15 -25
-15 -31 0 -33 17 -2 23 12 2 23 5 25 6 1 0 2 -6 2 -14z"/>
<path d="M350 6041 c0 -6 -7 -8 -15 -5 -9 4 -15 0 -15 -9 0 -11 9 -15 30 -15
22 1 30 5 28 16 -3 18 -28 29 -28 13z"/>
<path d="M268 6033 c-19 -5 -26 -53 -8 -53 6 0 10 7 10 16 0 11 6 14 21 9 16
-6 20 -3 17 11 -3 19 -14 24 -40 17z"/>
<path d="M650 5761 c0 -30 -4 -41 -15 -41 -9 0 -15 9 -15 25 0 15 -6 25 -15
25 -12 0 -14 -11 -10 -55 l4 -55 -30 0 c-16 0 -29 -4 -29 -9 0 -17 15 -20 56
-11 21 4 56 11 77 14 39 7 52 26 17 26 -11 0 -20 5 -20 11 0 6 9 13 20 16 24
6 27 23 4 23 -11 0 -14 8 -12 32 2 24 -1 33 -14 36 -15 3 -18 -4 -18 -37z m0
-76 c0 -8 -7 -15 -15 -15 -8 0 -15 7 -15 15 0 8 7 15 15 15 8 0 15 -7 15 -15z"/>
<path d="M650 5311 c0 -30 -4 -41 -15 -41 -9 0 -15 9 -15 25 0 15 -6 25 -15
25 -12 0 -14 -11 -10 -55 l4 -55 -30 0 c-16 0 -29 -4 -29 -9 0 -17 15 -20 56
-11 21 4 56 11 77 14 39 7 52 26 17 26 -11 0 -20 5 -20 11 0 6 9 13 20 16 24
6 27 23 4 23 -11 0 -14 8 -12 32 2 24 -1 33 -14 36 -15 3 -18 -4 -18 -37z m0
-76 c0 -8 -7 -15 -15 -15 -8 0 -15 7 -15 15 0 8 7 15 15 15 8 0 15 -7 15 -15z"/>
<path d="M590 5125 c0 -30 5 -55 10 -55 6 0 10 25 10 55 0 30 -4 55 -10 55 -5
0 -10 -25 -10 -55z"/>
<path d="M650 4861 c0 -30 -4 -41 -15 -41 -9 0 -15 9 -15 25 0 15 -6 25 -15
25 -12 0 -14 -11 -10 -55 l4 -55 -30 0 c-16 0 -29 -4 -29 -9 0 -17 15 -20 56
-11 21 4 56 11 77 14 39 7 52 26 17 26 -11 0 -20 5 -20 11 0 6 9 13 20 16 24
6 27 23 4 23 -11 0 -14 8 -12 32 2 24 -1 33 -14 36 -15 3 -18 -4 -18 -37z m0
-76 c0 -8 -7 -15 -15 -15 -8 0 -15 7 -15 15 0 8 7 15 15 15 8 0 15 -7 15 -15z"/>
<path d="M613 4733 c-21 -4 -23 -10 -23 -59 0 -30 5 -54 10 -54 6 0 10 20 10
44 0 31 5 46 16 50 32 12 36 6 32 -46 -2 -42 0 -53 12 -53 11 0 16 15 18 63
l3 62 -28 -1 c-15 -1 -38 -4 -50 -6z"/>
<path d="M650 4411 c0 -30 -4 -41 -15 -41 -9 0 -15 9 -15 25 0 15 -6 25 -15
25 -12 0 -14 -11 -10 -55 l4 -55 -30 0 c-16 0 -29 -4 -29 -9 0 -17 15 -20 56
-11 21 4 56 11 77 14 39 7 52 26 17 26 -11 0 -20 5 -20 11 0 6 9 13 20 16 24
6 27 23 4 23 -11 0 -14 8 -12 32 2 24 -1 33 -14 36 -15 3 -18 -4 -18 -37z m0
-76 c0 -8 -7 -15 -15 -15 -8 0 -15 7 -15 15 0 8 7 15 15 15 8 0 15 -7 15 -15z"/>
<path d="M613 4283 c-21 -4 -23 -10 -23 -59 0 -30 5 -54 10 -54 6 0 10 11 10
24 0 17 7 25 25 28 22 5 24 2 22 -26 -1 -22 2 -31 13 -31 11 0 16 15 18 63 l3
62 -28 -1 c-15 -1 -38 -4 -50 -6z m47 -22 c0 -12 -39 -25 -48 -16 -7 7 17 25
36 25 6 0 12 -4 12 -9z"/>
<path d="M650 3961 c0 -30 -4 -41 -15 -41 -9 0 -15 9 -15 25 0 15 -6 25 -15
25 -12 0 -14 -11 -10 -55 l4 -55 -30 0 c-16 0 -29 -4 -29 -9 0 -17 15 -20 56
-11 21 4 56 11 77 14 39 7 52 26 17 26 -11 0 -20 5 -20 11 0 6 9 13 20 16 24
6 27 23 4 23 -11 0 -14 8 -12 32 2 24 -1 33 -14 36 -15 3 -18 -4 -18 -37z m0
-76 c0 -8 -7 -15 -15 -15 -8 0 -15 7 -15 15 0 8 7 15 15 15 8 0 15 -7 15 -15z"/>
<path d="M613 3833 c-21 -4 -23 -10 -23 -59 0 -53 1 -54 25 -48 14 3 32 1 40
-6 24 -20 35 -1 35 61 0 58 0 59 -27 58 -16 -1 -38 -4 -50 -6z m47 -22 c0 -12
-39 -25 -48 -16 -7 7 17 25 36 25 6 0 12 -4 12 -9z m0 -46 c0 -9 -9 -15 -25
-15 -31 0 -33 17 -2 23 12 2 23 5 25 6 1 0 2 -6 2 -14z"/>
<path d="M757 3534 c-10 -20 -15 -39 -12 -42 8 -8 55 50 51 62 -6 23 -23 14
-39 -20z"/>
<path d="M650 3511 c0 -30 -4 -41 -15 -41 -9 0 -15 9 -15 25 0 15 -6 25 -15
25 -12 0 -14 -11 -10 -55 l4 -55 -30 0 c-16 0 -29 -4 -29 -9 0 -17 15 -20 56
-11 21 4 56 11 77 14 39 7 52 26 17 26 -11 0 -20 5 -20 11 0 6 9 13 20 16 24
6 27 23 4 23 -11 0 -14 8 -12 32 2 24 -1 33 -14 36 -15 3 -18 -4 -18 -37z m0
-76 c0 -8 -7 -15 -15 -15 -8 0 -15 7 -15 15 0 8 7 15 15 15 8 0 15 -7 15 -15z"/>
<path d="M613 3383 c-21 -4 -23 -10 -23 -59 0 -53 1 -54 25 -48 14 3 32 1 40
-6 24 -20 35 -1 35 61 0 58 0 59 -27 58 -16 -1 -38 -4 -50 -6z m47 -22 c0 -12
-39 -25 -48 -16 -7 7 17 25 36 25 6 0 12 -4 12 -9z m0 -46 c0 -9 -9 -15 -25
-15 -31 0 -33 17 -2 23 12 2 23 5 25 6 1 0 2 -6 2 -14z"/>
<path d="M760 3090 c-7 -16 -18 -30 -24 -30 -7 0 -12 -27 -13 -75 0 -41 2 -75
7 -75 11 0 20 38 20 84 0 26 8 50 26 73 14 18 22 38 19 43 -11 17 -22 11 -35
-20z"/>
<path d="M650 3061 c0 -30 -4 -41 -15 -41 -9 0 -15 9 -15 25 0 15 -6 25 -15
25 -12 0 -14 -11 -10 -55 l4 -55 -30 0 c-16 0 -29 -4 -29 -9 0 -17 15 -20 56
-11 21 4 56 11 77 14 39 7 52 26 17 26 -11 0 -20 5 -20 11 0 6 9 13 20 16 24
6 27 23 4 23 -11 0 -14 8 -12 32 2 24 -1 33 -14 36 -15 3 -18 -4 -18 -37z m0
-76 c0 -8 -7 -15 -15 -15 -8 0 -15 7 -15 15 0 8 7 15 15 15 8 0 15 -7 15 -15z"/>
<path d="M613 2933 c-21 -4 -23 -10 -23 -59 0 -53 1 -54 25 -48 14 3 32 1 40
-6 24 -20 35 -1 35 61 0 58 0 59 -27 58 -16 -1 -38 -4 -50 -6z m47 -22 c0 -12
-39 -25 -48 -16 -7 7 17 25 36 25 6 0 12 -4 12 -9z m0 -46 c0 -9 -9 -15 -25
-15 -31 0 -33 17 -2 23 12 2 23 5 25 6 1 0 2 -6 2 -14z"/>
<path d="M760 2640 c-7 -16 -18 -30 -24 -30 -7 0 -12 -27 -13 -75 0 -41 2 -75
7 -75 11 0 20 38 20 88 0 40 1 42 31 42 29 0 30 -2 24 -30 -10 -44 18 -39 34
6 16 44 3 58 -44 48 -30 -6 -30 -6 -12 14 11 11 16 26 12 31 -11 18 -22 12
-35 -19z"/>
<path d="M650 2611 c0 -30 -4 -41 -15 -41 -9 0 -15 9 -15 25 0 15 -6 25 -15
25 -12 0 -14 -11 -10 -55 l4 -55 -30 0 c-16 0 -29 -4 -29 -9 0 -17 15 -20 56
-11 21 4 56 11 77 14 39 7 52 26 17 26 -11 0 -20 5 -20 11 0 6 9 13 20 16 24
6 27 23 4 23 -11 0 -14 8 -12 32 2 24 -1 33 -14 36 -15 3 -18 -4 -18 -37z m0
-76 c0 -8 -7 -15 -15 -15 -8 0 -15 7 -15 15 0 8 7 15 15 15 8 0 15 -7 15 -15z"/>
<path d="M613 2483 c-21 -4 -23 -10 -23 -59 0 -53 1 -54 25 -48 14 3 32 1 40
-6 24 -20 35 -1 35 61 0 58 0 59 -27 58 -16 -1 -38 -4 -50 -6z m47 -22 c0 -12
-39 -25 -48 -16 -7 7 17 25 36 25 6 0 12 -4 12 -9z m0 -46 c0 -9 -9 -15 -25
-15 -31 0 -33 17 -2 23 12 2 23 5 25 6 1 0 2 -6 2 -14z"/>
<path d="M760 2190 c-7 -16 -18 -30 -24 -30 -7 0 -12 -27 -13 -75 0 -41 2 -75
7 -75 11 0 20 38 20 88 0 41 1 42 33 41 30 -2 30 -2 5 -6 -32 -5 -38 -23 -8
-23 11 0 20 -7 20 -15 0 -29 26 -15 39 21 16 44 3 58 -44 48 -30 -6 -30 -6
-12 14 11 11 16 26 12 31 -11 18 -22 12 -35 -19z"/>
<path d="M650 2161 c0 -30 -4 -41 -15 -41 -9 0 -15 9 -15 25 0 15 -6 25 -15
25 -12 0 -14 -11 -10 -55 l4 -55 -30 0 c-16 0 -29 -4 -29 -9 0 -17 15 -20 56
-11 21 4 56 11 77 14 39 7 52 26 17 26 -11 0 -20 5 -20 11 0 6 9 13 20 16 24
6 27 23 4 23 -11 0 -14 8 -12 32 2 24 -1 33 -14 36 -15 3 -18 -4 -18 -37z m0
-76 c0 -8 -7 -15 -15 -15 -8 0 -15 7 -15 15 0 8 7 15 15 15 8 0 15 -7 15 -15z"/>
<path d="M613 2033 c-21 -4 -23 -10 -23 -59 0 -53 1 -54 25 -48 14 3 32 1 40
-6 24 -20 35 -1 35 61 0 58 0 59 -27 58 -16 -1 -38 -4 -50 -6z m47 -22 c0 -12
-39 -25 -48 -16 -7 7 17 25 36 25 6 0 12 -4 12 -9z m0 -46 c0 -9 -9 -15 -25
-15 -31 0 -33 17 -2 23 12 2 23 5 25 6 1 0 2 -6 2 -14z"/>
<path d="M760 1740 c-7 -16 -18 -30 -24 -30 -7 0 -12 -27 -13 -75 0 -41 2 -75
7 -75 11 0 20 38 20 88 0 41 1 42 33 41 30 -2 30 -2 5 -6 -34 -5 -37 -20 -5
-26 l22 -4 -22 -2 c-36 -2 -27 -21 10 -21 29 0 35 5 46 36 16 44 3 58 -44 48
-30 -6 -30 -6 -12 14 11 11 16 26 12 31 -11 18 -22 12 -35 -19z"/>
<path d="M650 1711 c0 -30 -4 -41 -15 -41 -9 0 -15 9 -15 25 0 15 -6 25 -15
25 -12 0 -14 -11 -10 -55 l4 -55 -30 0 c-16 0 -29 -4 -29 -9 0 -17 15 -20 56
-11 21 4 56 11 77 14 39 7 52 26 17 26 -11 0 -20 5 -20 11 0 6 9 13 20 16 24
6 27 23 4 23 -11 0 -14 8 -12 32 2 24 -1 33 -14 36 -15 3 -18 -4 -18 -37z m0
-76 c0 -8 -7 -15 -15 -15 -8 0 -15 7 -15 15 0 8 7 15 15 15 8 0 15 -7 15 -15z"/>
<path d="M613 1583 c-21 -4 -23 -10 -23 -59 0 -53 1 -54 25 -48 14 3 32 1 40
-6 24 -20 35 -1 35 61 0 58 0 59 -27 58 -16 -1 -38 -4 -50 -6z m47 -22 c0 -12
-39 -25 -48 -16 -7 7 17 25 36 25 6 0 12 -4 12 -9z m0 -46 c0 -9 -9 -15 -25
-15 -31 0 -33 17 -2 23 12 2 23 5 25 6 1 0 2 -6 2 -14z"/>
<path d="M760 1290 c-7 -16 -18 -30 -24 -30 -7 0 -12 -27 -13 -75 -1 -70 7
-95 21 -60 3 8 14 15 25 15 27 0 51 10 51 22 0 5 -15 6 -35 2 l-35 -6 0 41 c0
40 1 41 33 40 30 -2 30 -2 5 -6 -34 -5 -37 -20 -5 -26 l22 -4 -22 -2 c-36 -2
-27 -21 10 -21 29 0 35 5 46 36 16 44 3 58 -44 48 -30 -6 -30 -6 -12 14 11 11
16 26 12 31 -11 18 -22 12 -35 -19z"/>
<path d="M650 1261 c0 -30 -4 -41 -15 -41 -9 0 -15 9 -15 25 0 15 -6 25 -15
25 -12 0 -14 -11 -10 -55 l4 -55 -30 0 c-16 0 -29 -4 -29 -9 0 -17 15 -20 56
-11 21 4 56 11 77 14 39 7 52 26 17 26 -11 0 -20 5 -20 11 0 6 9 13 20 16 24
6 27 23 4 23 -11 0 -14 8 -12 32 2 24 -1 33 -14 36 -15 3 -18 -4 -18 -37z m0
-76 c0 -8 -7 -15 -15 -15 -8 0 -15 7 -15 15 0 8 7 15 15 15 8 0 15 -7 15 -15z"/>
<path d="M613 1133 c-21 -4 -23 -10 -23 -59 0 -53 1 -54 25 -48 14 3 32 1 40
-6 24 -20 35 -1 35 61 0 58 0 59 -27 58 -16 -1 -38 -4 -50 -6z m47 -22 c0 -12
-39 -25 -48 -16 -7 7 17 25 36 25 6 0 12 -4 12 -9z m0 -46 c0 -9 -9 -15 -25
-15 -31 0 -33 17 -2 23 12 2 23 5 25 6 1 0 2 -6 2 -14z"/>
<path d="M760 840 c-7 -16 -18 -30 -24 -30 -7 0 -12 -28 -13 -80 l-2 -81 37 7
c65 13 77 11 80 -15 6 -39 -7 -71 -28 -71 -23 0 -25 -8 -6 -33 17 -22 44 -13
51 17 19 78 23 121 12 129 -7 4 -37 5 -67 3 -56 -6 -58 -3 -7 8 41 9 34 28 -8
20 l-35 -6 0 41 c0 40 1 41 33 40 30 -2 30 -2 5 -6 -34 -5 -37 -20 -5 -26 l22
-4 -22 -2 c-36 -2 -27 -21 10 -21 29 0 35 5 46 36 16 44 3 58 -44 48 -30 -6
-30 -6 -12 14 11 11 16 26 12 31 -11 18 -22 12 -35 -19z"/>
<path d="M650 811 c0 -30 -4 -41 -15 -41 -9 0 -15 9 -15 25 0 15 -6 25 -15 25
-12 0 -14 -11 -10 -55 l4 -55 -30 0 c-16 0 -29 -4 -29 -9 0 -17 15 -20 56 -11
21 4 56 11 77 14 39 7 52 26 17 26 -11 0 -20 5 -20 11 0 6 9 13 20 16 24 6 27
23 4 23 -11 0 -14 8 -12 32 2 24 -1 33 -14 36 -15 3 -18 -4 -18 -37z m0 -76
c0 -8 -7 -15 -15 -15 -8 0 -15 7 -15 15 0 8 7 15 15 15 8 0 15 -7 15 -15z"/>
<path d="M613 683 c-21 -4 -23 -10 -23 -59 0 -53 1 -54 25 -48 14 3 32 1 40
-6 24 -20 35 -1 35 61 0 58 0 59 -27 58 -16 -1 -38 -4 -50 -6z m47 -22 c0 -12
-39 -25 -48 -16 -7 7 17 25 36 25 6 0 12 -4 12 -9z m0 -46 c0 -9 -9 -15 -25
-15 -31 0 -33 17 -2 23 12 2 23 5 25 6 1 0 2 -6 2 -14z"/>
<path d="M760 390 c-7 -16 -18 -30 -24 -30 -7 0 -12 -28 -13 -80 l-2 -81 37 7
c65 13 77 11 80 -15 6 -39 -7 -71 -28 -71 -23 0 -25 -8 -6 -33 17 -22 44 -13
51 17 19 78 23 121 12 129 -7 4 -37 5 -67 3 -56 -6 -58 -3 -7 8 41 9 34 28 -8
20 l-35 -6 0 41 c0 40 1 41 33 40 30 -2 30 -2 5 -6 -34 -5 -37 -20 -5 -26 l22
-4 -22 -2 c-36 -2 -27 -21 10 -21 29 0 35 5 46 36 16 44 3 58 -44 48 -30 -6
-30 -6 -12 14 11 11 16 26 12 31 -11 18 -22 12 -35 -19z"/>
<path d="M650 361 c0 -30 -4 -41 -15 -41 -9 0 -15 9 -15 25 0 15 -6 25 -15 25
-12 0 -14 -11 -10 -55 l4 -55 -30 0 c-16 0 -29 -4 -29 -9 0 -17 15 -20 56 -11
21 4 56 11 77 14 39 7 52 26 17 26 -11 0 -20 5 -20 11 0 6 9 13 20 16 24 6 27
23 4 23 -11 0 -14 8 -12 32 2 24 -1 33 -14 36 -15 3 -18 -4 -18 -37z m0 -76
c0 -8 -7 -15 -15 -15 -8 0 -15 7 -15 15 0 8 7 15 15 15 8 0 15 -7 15 -15z"/>
<path d="M613 233 c-21 -4 -23 -10 -23 -59 0 -53 1 -54 25 -48 14 3 32 1 40
-6 24 -20 35 -1 35 61 0 58 0 59 -27 58 -16 -1 -38 -4 -50 -6z m47 -22 c0 -12
-39 -25 -48 -16 -7 7 17 25 36 25 6 0 12 -4 12 -9z m0 -46 c0 -9 -9 -15 -25
-15 -31 0 -33 17 -2 23 12 2 23 5 25 6 1 0 2 -6 2 -14z"/>
<path d="M700 155 c0 -14 5 -25 10 -25 6 0 10 4 10 9 0 5 3 16 6 25 4 11 1 16
-10 16 -10 0 -16 -9 -16 -25z"/>
</g>
</svg>
