<?xml version="1.0" standalone="no"?>
<!DOCTYPE svg PUBLIC "-//W3C//DTD SVG 20010904//EN"
 "http://www.w3.org/TR/2001/REC-SVG-20010904/DTD/svg10.dtd">
<svg version="1.0" xmlns="http://www.w3.org/2000/svg"
 width="95.000000pt" height="725.000000pt" viewBox="0 0 95.000000 725.000000"
 preserveAspectRatio="xMidYMid meet">
<metadata>
Created by potrace 1.16, written by Peter Selinger 2001-2019
</metadata>
<g transform="translate(0.000000,725.000000) scale(0.100000,-0.100000)"
fill="#000000" stroke="none">
<path d="M311 7135 c-7 -19 -19 -35 -27 -35 -9 0 -14 -11 -14 -35 0 -19 -4
-35 -10 -35 -5 0 -10 7 -10 15 0 8 -9 15 -20 15 -11 0 -20 5 -20 10 0 6 7 10
15 10 21 0 19 20 -2 20 -15 1 -14 4 5 20 23 19 22 40 -2 40 -15 0 -39 -47 -31
-61 4 -5 -3 -9 -13 -9 -12 0 -19 6 -18 16 1 18 -29 42 -40 31 -4 -3 -2 -12 3
-19 15 -19 12 -78 -4 -78 -19 0 -16 -18 5 -23 9 -3 2 -5 -15 -6 -18 0 -33 -5
-33 -11 0 -5 15 -10 33 -10 31 -1 31 -1 12 -16 -14 -11 -17 -17 -8 -22 9 -6 5
-16 -13 -36 -32 -33 -25 -45 12 -21 27 17 27 17 21 -5 -6 -25 1 -50 14 -50 5
0 9 24 9 54 0 30 5 58 10 61 6 4 10 -18 10 -59 0 -37 4 -66 10 -66 6 0 10 24
10 53 1 40 3 48 11 35 5 -10 14 -18 19 -18 16 0 11 40 -5 46 -8 4 -15 10 -15
15 0 5 7 9 15 9 8 0 15 9 15 20 0 12 7 20 16 20 12 0 15 -6 11 -23 -10 -36 4
-49 40 -36 48 16 89 9 85 -16 -7 -53 -13 -65 -32 -65 -23 0 -24 -4 -10 -31 13
-24 21 -24 47 0 25 24 41 130 21 143 -12 7 -57 3 -100 -9 -14 -3 -18 2 -18 21
0 23 4 26 36 26 31 0 37 4 50 35 17 42 12 55 -22 55 -22 0 -23 2 -12 20 11 17
10 22 -2 30 -23 14 -25 13 -39 -25z m44 -55 c-3 -5 -18 -10 -33 -9 -24 0 -25
1 -7 9 28 12 47 12 40 0z m-12 -37 c-7 -2 -21 -2 -30 0 -10 3 -4 5 12 5 17 0
24 -2 18 -5z"/>
<path d="M570 7133 c0 -5 7 -17 15 -27 11 -15 18 -17 27 -8 8 8 8 15 -2 27
-13 15 -40 21 -40 8z"/>
<path d="M310 7000 c0 -5 14 -10 30 -10 17 0 30 5 30 10 0 6 -13 10 -30 10
-16 0 -30 -4 -30 -10z"/>
<path d="M311 6685 c-7 -19 -19 -35 -27 -35 -9 0 -14 -11 -14 -35 0 -19 -4
-35 -10 -35 -5 0 -10 7 -10 15 0 8 -9 15 -20 15 -11 0 -20 5 -20 10 0 6 7 10
15 10 21 0 19 20 -2 20 -15 1 -14 4 5 20 23 19 22 40 -2 40 -15 0 -39 -47 -31
-61 4 -5 -3 -9 -13 -9 -12 0 -19 6 -18 16 1 18 -29 42 -40 31 -4 -3 -2 -12 3
-19 15 -19 12 -78 -4 -78 -19 0 -16 -18 5 -23 9 -3 2 -5 -15 -6 -18 0 -33 -5
-33 -11 0 -5 15 -10 33 -10 31 -1 31 -1 12 -16 -14 -11 -17 -17 -8 -22 9 -6 5
-16 -13 -36 -32 -33 -25 -45 12 -21 27 17 27 17 21 -5 -6 -25 1 -50 14 -50 5
0 9 24 9 54 0 30 5 58 10 61 6 4 10 -18 10 -59 0 -37 4 -66 10 -66 6 0 10 23
10 50 l0 50 20 -20 c11 -11 20 -27 20 -36 0 -9 6 -14 13 -12 15 5 22 68 8 68
-6 0 -11 -6 -12 -12 0 -7 -4 -3 -9 10 -5 12 -14 22 -20 22 -5 0 -10 5 -10 10
0 6 7 10 15 10 8 0 15 9 15 20 0 12 7 20 16 20 12 0 15 -6 11 -23 -10 -36 4
-49 40 -36 48 16 89 9 85 -16 -7 -53 -13 -65 -32 -65 -23 0 -24 -4 -10 -31 13
-24 21 -24 47 0 25 24 41 130 21 143 -12 7 -57 3 -100 -9 -14 -3 -18 2 -18 21
0 23 4 26 36 26 31 0 37 4 50 35 17 42 12 55 -22 55 -22 0 -23 2 -12 20 11 17
10 22 -2 30 -23 14 -25 13 -39 -25z m44 -55 c-3 -5 -18 -10 -33 -9 -24 0 -25
1 -7 9 28 12 47 12 40 0z m-12 -37 c-7 -2 -21 -2 -30 0 -10 3 -4 5 12 5 17 0
24 -2 18 -5z"/>
<path d="M651 6684 c-6 -15 -10 -29 -7 -31 7 -8 56 31 52 42 -6 21 -33 15 -45
-11z"/>
<path d="M570 6683 c0 -5 7 -17 15 -27 11 -15 18 -17 27 -8 8 8 8 15 -2 27
-13 15 -40 21 -40 8z"/>
<path d="M310 6550 c0 -5 14 -10 30 -10 17 0 30 5 30 10 0 6 -13 10 -30 10
-16 0 -30 -4 -30 -10z"/>
<path d="M311 6235 c-7 -19 -19 -35 -27 -35 -9 0 -14 -11 -14 -35 0 -19 -4
-35 -10 -35 -5 0 -10 7 -10 15 0 8 -9 15 -20 15 -11 0 -20 5 -20 10 0 6 7 10
15 10 21 0 19 20 -2 20 -15 1 -14 4 5 20 23 19 22 40 -2 40 -15 0 -39 -47 -31
-61 4 -5 -3 -9 -13 -9 -12 0 -19 6 -18 16 1 18 -29 42 -40 31 -4 -3 -2 -12 3
-19 15 -19 12 -78 -4 -78 -19 0 -16 -18 5 -23 9 -3 2 -5 -15 -6 -18 0 -33 -5
-33 -11 0 -5 15 -10 33 -10 31 -1 31 -1 12 -16 -14 -11 -17 -17 -8 -22 9 -6 5
-16 -13 -36 -32 -33 -25 -45 12 -21 27 17 27 17 21 -5 -6 -25 1 -50 14 -50 5
0 9 24 9 54 0 30 5 58 10 61 6 4 10 -18 10 -59 0 -37 4 -66 10 -66 6 0 10 23
10 50 l0 50 20 -20 c11 -11 20 -27 20 -36 0 -9 6 -14 13 -12 15 5 22 68 8 68
-6 0 -11 -6 -12 -12 0 -7 -4 -3 -9 10 -5 12 -14 22 -20 22 -5 0 -10 5 -10 10
0 6 7 10 15 10 8 0 15 9 15 20 0 12 7 20 16 20 12 0 15 -6 11 -23 -10 -36 4
-49 40 -36 48 16 89 9 85 -16 -7 -53 -13 -65 -32 -65 -23 0 -24 -4 -10 -31 13
-24 21 -24 47 0 25 24 41 130 21 143 -12 7 -57 3 -100 -9 -14 -3 -18 2 -18 21
0 23 4 26 36 26 31 0 37 4 50 35 17 42 12 55 -22 55 -22 0 -23 2 -12 20 11 17
10 22 -2 30 -23 14 -25 13 -39 -25z m44 -55 c-3 -5 -18 -10 -33 -9 -24 0 -25
1 -7 9 28 12 47 12 40 0z m-12 -37 c-7 -2 -21 -2 -30 0 -10 3 -4 5 12 5 17 0
24 -2 18 -5z"/>
<path d="M651 6234 c-6 -14 -9 -30 -6 -35 4 -5 -3 -9 -13 -9 -12 0 -19 6 -18
16 1 18 -29 42 -40 31 -4 -4 -2 -13 4 -19 7 -7 12 -20 12 -30 0 -19 32 -24 78
-12 26 7 30 24 5 24 -15 1 -14 4 5 20 13 11 21 24 17 30 -11 18 -31 11 -44
-16z"/>
<path d="M310 6100 c0 -5 14 -10 30 -10 17 0 30 5 30 10 0 6 -13 10 -30 10
-16 0 -30 -4 -30 -10z"/>
<path d="M280 6022 c0 -19 12 -42 22 -42 14 0 5 43 -9 48 -7 2 -13 -1 -13 -6z"/>
<path d="M311 5785 c-7 -19 -19 -35 -27 -35 -9 0 -14 -11 -14 -35 0 -19 -4
-35 -10 -35 -5 0 -10 7 -10 15 0 8 -9 15 -20 15 -11 0 -20 5 -20 10 0 6 7 10
15 10 21 0 19 20 -2 20 -15 1 -14 4 5 20 23 19 22 40 -2 40 -15 0 -39 -47 -31
-61 4 -5 -3 -9 -13 -9 -12 0 -19 6 -18 16 1 18 -29 42 -40 31 -4 -3 -2 -12 3
-19 15 -19 12 -78 -4 -78 -19 0 -16 -18 5 -23 9 -3 2 -5 -15 -6 -18 0 -33 -5
-33 -11 0 -5 15 -10 33 -10 31 -1 31 -1 12 -16 -14 -11 -17 -17 -8 -22 9 -6 5
-16 -13 -36 -32 -33 -25 -45 12 -21 27 17 27 17 21 -5 -6 -25 1 -50 14 -50 5
0 9 24 9 54 0 30 5 58 10 61 6 4 10 -18 10 -59 0 -37 4 -66 10 -66 6 0 10 23
10 50 l0 50 20 -20 c11 -11 20 -27 20 -36 0 -9 6 -14 13 -12 15 5 22 68 8 68
-6 0 -11 -6 -12 -12 0 -7 -4 -3 -9 10 -5 12 -14 22 -20 22 -5 0 -10 5 -10 10
0 6 7 10 15 10 8 0 15 9 15 20 0 12 7 20 16 20 12 0 15 -6 11 -23 -10 -36 4
-49 40 -36 48 16 89 9 85 -16 -7 -53 -13 -65 -32 -65 -23 0 -24 -4 -10 -31 13
-24 21 -24 47 0 25 24 41 130 21 143 -12 7 -57 3 -100 -9 -14 -3 -18 2 -18 21
0 23 4 26 36 26 31 0 37 4 50 35 17 42 12 55 -22 55 -22 0 -23 2 -12 20 11 17
10 22 -2 30 -23 14 -25 13 -39 -25z m44 -55 c-3 -5 -18 -10 -33 -9 -24 0 -25
1 -7 9 28 12 47 12 40 0z m-12 -37 c-7 -2 -21 -2 -30 0 -10 3 -4 5 12 5 17 0
24 -2 18 -5z"/>
<path d="M651 5784 c-6 -14 -9 -30 -6 -35 4 -5 -3 -9 -13 -9 -12 0 -19 6 -18
16 1 18 -29 42 -40 31 -4 -4 -2 -13 4 -19 7 -7 12 -20 12 -30 0 -19 32 -24 78
-12 26 7 30 24 5 24 -15 1 -14 4 5 20 13 11 21 24 17 30 -11 18 -31 11 -44
-16z"/>
<path d="M603 5697 c-53 -12 -58 -32 -5 -23 20 4 46 10 56 13 17 5 18 1 13
-26 -8 -37 17 -45 27 -8 16 60 2 67 -91 44z"/>
<path d="M310 5650 c0 -5 14 -10 30 -10 17 0 30 5 30 10 0 6 -13 10 -30 10
-16 0 -30 -4 -30 -10z"/>
<path d="M280 5572 c0 -19 12 -42 22 -42 14 0 5 43 -9 48 -7 2 -13 -1 -13 -6z"/>
<path d="M322 5563 c5 -25 28 -28 28 -4 0 12 -6 21 -16 21 -9 0 -14 -7 -12
-17z"/>
<path d="M311 5335 c-7 -19 -19 -35 -27 -35 -9 0 -14 -11 -14 -35 0 -19 -4
-35 -10 -35 -5 0 -10 7 -10 15 0 8 -9 15 -20 15 -11 0 -20 5 -20 10 0 6 7 10
15 10 21 0 19 20 -2 20 -15 1 -14 4 5 20 23 19 22 40 -2 40 -15 0 -39 -47 -31
-61 4 -5 -3 -9 -13 -9 -12 0 -19 6 -18 16 1 18 -29 42 -40 31 -4 -3 -2 -12 3
-19 15 -19 12 -78 -4 -78 -19 0 -16 -18 5 -23 9 -3 2 -5 -15 -6 -18 0 -33 -5
-33 -11 0 -5 15 -10 33 -10 31 -1 31 -1 12 -16 -14 -11 -17 -17 -8 -22 9 -6 5
-16 -13 -36 -32 -33 -25 -45 12 -21 27 17 27 17 21 -5 -6 -25 1 -50 14 -50 5
0 9 24 9 54 0 30 5 58 10 61 6 4 10 -18 10 -59 0 -37 4 -66 10 -66 6 0 10 23
10 50 l0 50 20 -20 c11 -11 20 -27 20 -36 0 -9 6 -14 13 -12 15 5 22 68 8 68
-6 0 -11 -6 -12 -12 0 -7 -4 -3 -9 10 -5 12 -14 22 -20 22 -5 0 -10 5 -10 10
0 6 7 10 15 10 8 0 15 9 15 20 0 12 7 20 16 20 12 0 15 -6 11 -23 -9 -35 5
-50 37 -37 33 12 83 13 90 1 10 -15 -7 -21 -22 -8 -12 9 -16 9 -19 0 -3 -7
-11 -13 -20 -13 -8 0 -13 -7 -11 -17 4 -23 28 -29 28 -6 0 14 2 15 9 4 5 -8
14 -10 22 -6 9 6 11 3 6 -9 -4 -10 -7 -20 -7 -22 0 -2 -9 -4 -20 -4 -23 0 -24
-4 -10 -31 13 -24 21 -24 47 0 25 24 41 130 21 143 -12 7 -57 3 -100 -9 -14
-3 -18 2 -18 21 0 23 4 26 36 26 31 0 37 4 50 35 17 42 12 55 -22 55 -22 0
-23 2 -12 20 11 17 10 22 -2 30 -23 14 -25 13 -39 -25z m44 -55 c-3 -5 -18
-10 -33 -9 -24 0 -25 1 -7 9 28 12 47 12 40 0z m-12 -37 c-7 -2 -21 -2 -30 0
-10 3 -4 5 12 5 17 0 24 -2 18 -5z"/>
<path d="M651 5334 c-6 -14 -9 -30 -6 -35 4 -5 -3 -9 -13 -9 -12 0 -19 6 -18
16 1 18 -29 42 -40 31 -4 -4 -2 -13 4 -19 7 -7 12 -20 12 -30 0 -19 32 -24 78
-12 26 7 30 24 5 24 -15 1 -14 4 5 20 13 11 21 24 17 30 -11 18 -31 11 -44
-16z"/>
<path d="M603 5247 c-53 -12 -58 -32 -5 -23 20 4 45 10 56 13 11 3 16 1 12 -5
-3 -6 -35 -14 -71 -17 -36 -4 -65 -12 -65 -18 0 -6 23 -7 65 -3 42 4 65 3 65
-4 0 -5 7 -10 15 -10 8 0 15 7 15 15 0 8 7 15 15 15 8 0 15 5 15 10 0 6 -4 10
-10 10 -5 0 -10 7 -10 15 0 17 -32 18 -97 2z"/>
<path d="M310 5200 c0 -5 14 -10 30 -10 17 0 30 5 30 10 0 6 -13 10 -30 10
-16 0 -30 -4 -30 -10z"/>
<path d="M280 5122 c0 -19 12 -42 22 -42 14 0 5 43 -9 48 -7 2 -13 -1 -13 -6z"/>
<path d="M651 4884 c-6 -14 -9 -30 -6 -35 4 -5 -3 -9 -13 -9 -12 0 -19 6 -18
16 1 18 -29 42 -40 31 -4 -4 -2 -13 4 -19 7 -7 12 -20 12 -30 0 -19 32 -24 78
-12 26 7 30 24 5 24 -15 1 -14 4 5 20 13 11 21 24 17 30 -11 18 -31 11 -44
-16z"/>
<path d="M603 4797 c-53 -12 -58 -32 -5 -23 20 4 45 10 56 13 11 3 16 1 12 -5
-3 -6 -35 -14 -71 -17 -88 -10 -86 -30 3 -22 42 4 60 3 47 -3 -11 -5 -29 -9
-40 -9 -23 -1 -52 -17 -44 -25 3 -3 33 -1 67 5 50 9 62 15 62 30 0 10 7 19 15
19 8 0 15 5 15 10 0 6 -4 10 -10 10 -5 0 -10 7 -10 15 0 17 -32 18 -97 2z"/>
<path d="M651 4434 c-6 -14 -9 -30 -6 -35 4 -5 -3 -9 -13 -9 -12 0 -19 6 -18
16 1 18 -29 42 -40 31 -4 -3 -2 -12 3 -19 15 -19 12 -78 -4 -78 -19 0 -16 -18
5 -23 9 -3 2 -5 -15 -6 -18 0 -33 -5 -33 -11 0 -5 15 -10 33 -10 29 -1 30 -2
15 -14 -22 -16 -23 -26 -2 -26 12 0 15 -9 14 -42 -3 -57 -2 -68 10 -68 5 0 10
26 12 58 3 57 3 57 41 66 26 7 37 15 37 28 0 10 7 18 15 18 8 0 15 5 15 10 0
6 -4 10 -10 10 -5 0 -10 7 -10 16 0 14 -7 16 -40 11 -49 -6 -53 8 -5 17 36 7
49 26 18 26 -15 1 -14 4 5 20 13 11 21 24 17 30 -11 18 -31 11 -44 -16z m14
-104 c-3 -5 -16 -10 -28 -9 -21 0 -21 1 -2 9 28 12 37 12 30 0z m-5 -34 c0 -2
-9 -6 -20 -9 -11 -3 -20 -1 -20 4 0 5 9 9 20 9 11 0 20 -2 20 -4z"/>
<path d="M651 3984 c-6 -14 -9 -30 -6 -35 4 -5 -3 -9 -13 -9 -12 0 -19 6 -18
16 1 18 -29 42 -40 31 -4 -3 -2 -12 3 -19 15 -19 12 -78 -4 -78 -19 0 -16 -18
5 -23 9 -3 2 -5 -15 -6 -18 0 -33 -5 -33 -11 0 -5 15 -10 33 -10 29 -1 30 -2
15 -14 -22 -16 -23 -26 -2 -26 12 0 15 -9 14 -42 -3 -57 -2 -68 10 -68 6 0 10
24 10 54 0 30 5 58 10 61 6 4 10 -18 10 -59 0 -37 4 -66 10 -66 6 0 10 29 10
66 0 57 3 67 20 71 11 3 20 14 20 24 0 11 7 19 15 19 8 0 15 5 15 10 0 6 -4
10 -10 10 -5 0 -10 7 -10 15 0 8 -9 15 -20 15 -11 0 -20 5 -20 10 0 6 7 10 15
10 21 0 19 20 -2 20 -15 1 -14 4 5 20 13 11 21 24 17 30 -11 18 -31 11 -44
-16z"/>
<path d="M651 3534 c-6 -14 -9 -30 -6 -35 4 -5 -3 -9 -13 -9 -12 0 -19 6 -18
16 1 18 -29 42 -40 31 -4 -3 -2 -12 3 -19 15 -19 12 -78 -4 -78 -19 0 -16 -18
5 -23 9 -3 2 -5 -15 -6 -18 0 -33 -5 -33 -11 0 -5 15 -10 33 -10 31 -1 31 -1
12 -16 -14 -11 -17 -17 -8 -22 9 -6 5 -16 -13 -36 -32 -33 -25 -45 12 -21 27
17 27 17 21 -5 -6 -25 1 -50 14 -50 5 0 9 24 9 54 0 30 5 58 10 61 6 4 10 -18
10 -59 0 -37 4 -66 10 -66 6 0 10 29 10 66 0 57 3 67 20 71 11 3 20 14 20 24
0 11 7 19 15 19 8 0 15 5 15 10 0 6 -4 10 -10 10 -5 0 -10 7 -10 15 0 8 -9 15
-20 15 -11 0 -20 5 -20 10 0 6 7 10 15 10 21 0 19 20 -2 20 -15 1 -14 4 5 20
13 11 21 24 17 30 -11 18 -31 11 -44 -16z"/>
<path d="M651 3084 c-6 -14 -9 -30 -6 -35 4 -5 -3 -9 -13 -9 -12 0 -19 6 -18
16 1 18 -29 42 -40 31 -4 -3 -2 -12 3 -19 15 -19 12 -78 -4 -78 -19 0 -16 -18
5 -23 9 -3 2 -5 -15 -6 -18 0 -33 -5 -33 -11 0 -5 15 -10 33 -10 31 -1 31 -1
12 -16 -14 -11 -17 -17 -8 -22 9 -6 5 -16 -13 -36 -32 -33 -25 -45 12 -21 27
17 27 17 21 -5 -6 -25 1 -50 14 -50 5 0 9 24 9 54 0 30 5 58 10 61 6 4 10 -18
10 -59 0 -37 4 -66 10 -66 6 0 10 24 10 53 1 40 3 48 11 35 5 -10 14 -18 19
-18 16 0 11 40 -5 46 -8 4 -15 10 -15 15 0 5 7 9 15 9 8 0 15 9 15 20 0 11 7
20 15 20 8 0 15 5 15 10 0 6 -4 10 -10 10 -5 0 -10 7 -10 15 0 8 -9 15 -20 15
-11 0 -20 5 -20 10 0 6 7 10 15 10 21 0 19 20 -2 20 -15 1 -14 4 5 20 13 11
21 24 17 30 -11 18 -31 11 -44 -16z"/>
<path d="M761 2634 c-7 -19 -10 -38 -7 -41 8 -8 56 37 56 53 0 9 -21 24 -34
24 -1 0 -8 -16 -15 -36z"/>
<path d="M651 2634 c-6 -14 -9 -30 -6 -35 4 -5 -3 -9 -13 -9 -12 0 -19 6 -18
16 1 18 -29 42 -40 31 -4 -3 -2 -12 3 -19 15 -19 12 -78 -4 -78 -19 0 -16 -18
5 -23 9 -3 2 -5 -15 -6 -18 0 -33 -5 -33 -11 0 -5 15 -10 33 -10 31 -1 31 -1
12 -16 -14 -11 -17 -17 -8 -22 9 -6 5 -16 -13 -36 -32 -33 -25 -45 12 -21 27
17 27 17 21 -5 -6 -25 1 -50 14 -50 5 0 9 24 9 54 0 30 5 58 10 61 6 4 10 -18
10 -59 0 -37 4 -66 10 -66 6 0 10 24 10 53 1 40 3 48 11 35 5 -10 14 -18 19
-18 16 0 11 40 -5 46 -8 4 -15 10 -15 15 0 5 7 9 15 9 8 0 15 9 15 20 0 11 7
20 15 20 8 0 15 5 15 10 0 6 -4 10 -10 10 -5 0 -10 7 -10 15 0 8 -9 15 -20 15
-11 0 -20 5 -20 10 0 6 7 10 15 10 21 0 19 20 -2 20 -15 1 -14 4 5 20 13 11
21 24 17 30 -11 18 -31 11 -44 -16z"/>
<path d="M761 2185 c-7 -19 -19 -35 -27 -35 -9 0 -14 -11 -14 -35 0 -19 -4
-35 -10 -35 -5 0 -10 7 -10 15 0 8 -9 15 -20 15 -11 0 -20 5 -20 10 0 6 7 10
15 10 21 0 19 20 -2 20 -15 1 -14 4 5 20 23 19 22 40 -2 40 -15 0 -39 -47 -31
-61 4 -5 -3 -9 -13 -9 -12 0 -19 6 -18 16 1 18 -29 42 -40 31 -4 -3 -2 -12 3
-19 15 -19 12 -78 -4 -78 -19 0 -16 -18 5 -23 9 -3 2 -5 -15 -6 -18 0 -33 -5
-33 -11 0 -5 15 -10 33 -10 31 -1 31 -1 12 -16 -14 -11 -17 -17 -8 -22 9 -6 5
-16 -13 -36 -32 -33 -25 -45 12 -21 27 17 27 17 21 -5 -6 -25 1 -50 14 -50 5
0 9 24 9 54 0 30 5 58 10 61 6 4 10 -18 10 -59 0 -37 4 -66 10 -66 6 0 10 24
10 53 1 40 3 48 11 35 5 -10 14 -18 19 -18 16 0 11 40 -5 46 -8 4 -15 10 -15
15 0 5 7 9 15 9 8 0 15 9 15 20 0 12 7 20 16 20 12 0 15 -6 10 -25 -5 -18 -2
-25 8 -25 13 0 26 47 26 98 0 13 13 34 30 49 33 27 38 48 14 57 -9 3 -17 6
-18 6 -1 0 -8 -16 -15 -35z"/>
<path d="M761 1735 c-7 -19 -19 -35 -27 -35 -9 0 -14 -11 -14 -35 0 -19 -4
-35 -10 -35 -5 0 -10 7 -10 15 0 8 -9 15 -20 15 -11 0 -20 5 -20 10 0 6 7 10
15 10 21 0 19 20 -2 20 -15 1 -14 4 5 20 23 19 22 40 -2 40 -15 0 -39 -47 -31
-61 4 -5 -3 -9 -13 -9 -12 0 -19 6 -18 16 1 18 -29 42 -40 31 -4 -3 -2 -12 3
-19 15 -19 12 -78 -4 -78 -19 0 -16 -18 5 -23 9 -3 2 -5 -15 -6 -18 0 -33 -5
-33 -11 0 -5 15 -10 33 -10 31 -1 31 -1 12 -16 -14 -11 -17 -17 -8 -22 9 -6 5
-16 -13 -36 -32 -33 -25 -45 12 -21 27 17 27 17 21 -5 -6 -25 1 -50 14 -50 5
0 9 24 9 54 0 30 5 58 10 61 6 4 10 -18 10 -59 0 -37 4 -66 10 -66 6 0 10 24
10 53 1 40 3 48 11 35 5 -10 14 -18 19 -18 16 0 11 40 -5 46 -8 4 -15 10 -15
15 0 5 7 9 15 9 8 0 15 9 15 20 0 12 7 20 16 20 12 0 15 -6 10 -25 -5 -18 -2
-25 8 -25 11 0 17 17 22 60 4 33 9 60 13 60 3 0 16 3 29 6 22 6 23 5 17 -30
-9 -48 11 -48 31 -1 17 42 12 55 -22 55 -22 0 -23 2 -12 20 11 17 10 22 -2 30
-23 14 -25 13 -39 -25z"/>
<path d="M761 1285 c-7 -19 -19 -35 -27 -35 -9 0 -14 -11 -14 -35 0 -19 -4
-35 -10 -35 -5 0 -10 7 -10 15 0 8 -9 15 -20 15 -11 0 -20 5 -20 10 0 6 7 10
15 10 21 0 19 20 -2 20 -15 1 -14 4 5 20 23 19 22 40 -2 40 -15 0 -39 -47 -31
-61 4 -5 -3 -9 -13 -9 -12 0 -19 6 -18 16 1 18 -29 42 -40 31 -4 -3 -2 -12 3
-19 15 -19 12 -78 -4 -78 -19 0 -16 -18 5 -23 9 -3 2 -5 -15 -6 -18 0 -33 -5
-33 -11 0 -5 15 -10 33 -10 31 -1 31 -1 12 -16 -14 -11 -17 -17 -8 -22 9 -6 5
-16 -13 -36 -32 -33 -25 -45 12 -21 27 17 27 17 21 -5 -6 -25 1 -50 14 -50 5
0 9 24 9 54 0 30 5 58 10 61 6 4 10 -18 10 -59 0 -37 4 -66 10 -66 6 0 10 24
10 53 1 40 3 48 11 35 5 -10 14 -18 19 -18 16 0 11 40 -5 46 -8 4 -15 10 -15
15 0 5 7 9 15 9 8 0 15 9 15 20 0 12 7 20 16 20 12 0 15 -6 10 -25 -5 -18 -2
-25 8 -25 9 0 16 16 20 45 6 39 10 45 32 45 15 0 24 -6 24 -15 0 -27 21 -16
36 20 17 42 12 55 -22 55 -22 0 -23 2 -12 20 11 17 10 22 -2 30 -23 14 -25 13
-39 -25z m44 -55 c-3 -5 -18 -10 -33 -9 -24 0 -25 1 -7 9 28 12 47 12 40 0z"/>
<path d="M761 835 c-7 -19 -19 -35 -27 -35 -9 0 -14 -11 -14 -35 0 -19 -4 -35
-10 -35 -5 0 -10 7 -10 15 0 8 -9 15 -20 15 -11 0 -20 5 -20 10 0 6 7 10 15
10 21 0 19 20 -2 20 -15 1 -14 4 5 20 23 19 22 40 -2 40 -15 0 -39 -47 -31
-61 4 -5 -3 -9 -13 -9 -12 0 -19 6 -18 16 1 18 -29 42 -40 31 -4 -3 -2 -12 3
-19 15 -19 12 -78 -4 -78 -19 0 -16 -18 5 -23 9 -3 2 -5 -15 -6 -18 0 -33 -5
-33 -11 0 -5 15 -10 33 -10 31 -1 31 -1 12 -16 -14 -11 -17 -17 -8 -22 9 -6 5
-16 -13 -36 -32 -33 -25 -45 12 -21 27 17 27 17 21 -5 -6 -25 1 -50 14 -50 5
0 9 24 9 54 0 30 5 58 10 61 6 4 10 -18 10 -59 0 -37 4 -66 10 -66 6 0 10 24
10 53 1 40 3 48 11 35 5 -10 14 -18 19 -18 16 0 11 40 -5 46 -8 4 -15 10 -15
15 0 5 7 9 15 9 8 0 15 9 15 20 0 12 7 20 16 20 12 0 15 -6 10 -25 -5 -18 -2
-25 8 -25 9 0 16 12 18 28 3 23 8 27 41 30 33 3 41 8 53 38 17 41 12 54 -22
54 -22 0 -23 2 -12 20 11 17 10 22 -2 30 -23 14 -25 13 -39 -25z m44 -55 c-3
-5 -18 -10 -33 -9 -24 0 -25 1 -7 9 28 12 47 12 40 0z m-12 -37 c-7 -2 -21 -2
-30 0 -10 3 -4 5 12 5 17 0 24 -2 18 -5z"/>
<path d="M761 385 c-7 -19 -19 -35 -27 -35 -9 0 -14 -11 -14 -35 0 -19 -4 -35
-10 -35 -5 0 -10 7 -10 15 0 8 -9 15 -20 15 -11 0 -20 5 -20 10 0 6 7 10 15
10 21 0 19 20 -2 20 -15 1 -14 4 5 20 23 19 22 40 -2 40 -15 0 -39 -47 -31
-61 4 -5 -3 -9 -13 -9 -12 0 -19 6 -18 16 1 18 -29 42 -40 31 -4 -3 -2 -12 3
-19 15 -19 12 -78 -4 -78 -19 0 -16 -18 5 -23 9 -3 2 -5 -15 -6 -18 0 -33 -5
-33 -11 0 -5 15 -10 33 -10 31 -1 31 -1 12 -16 -14 -11 -17 -17 -8 -22 9 -6 5
-16 -13 -36 -32 -33 -25 -45 12 -21 27 17 27 17 21 -5 -6 -25 1 -50 14 -50 5
0 9 24 9 54 0 30 5 58 10 61 6 4 10 -18 10 -59 0 -37 4 -66 10 -66 6 0 10 24
10 53 1 40 3 48 11 35 5 -10 14 -18 19 -18 16 0 11 40 -5 46 -8 4 -15 10 -15
15 0 5 7 9 15 9 8 0 15 9 15 20 0 12 7 20 16 20 12 0 15 -6 10 -25 -5 -19 -2
-25 9 -25 9 0 18 12 22 30 5 26 10 30 40 30 30 0 36 5 49 35 17 42 12 55 -22
55 -22 0 -23 2 -12 20 11 17 10 22 -2 30 -23 14 -25 13 -39 -25z m44 -55 c-3
-5 -18 -10 -33 -9 -24 0 -25 1 -7 9 28 12 47 12 40 0z m-12 -37 c-7 -2 -21 -2
-30 0 -10 3 -4 5 12 5 17 0 24 -2 18 -5z"/>
<path d="M760 250 c0 -5 14 -10 30 -10 17 0 30 5 30 10 0 6 -13 10 -30 10 -16
0 -30 -4 -30 -10z"/>
</g>
</svg>
