<?xml version="1.0" standalone="no"?>
<!DOCTYPE svg PUBLIC "-//W3C//DTD SVG 20010904//EN"
 "http://www.w3.org/TR/2001/REC-SVG-20010904/DTD/svg10.dtd">
<svg version="1.0" xmlns="http://www.w3.org/2000/svg"
 width="95.000000pt" height="725.000000pt" viewBox="0 0 95.000000 725.000000"
 preserveAspectRatio="xMidYMid meet">
<metadata>
Created by potrace 1.16, written by Peter Selinger 2001-2019
</metadata>
<g transform="translate(0.000000,725.000000) scale(0.100000,-0.100000)"
fill="#000000" stroke="none">
<path d="M307 7140 c-4 -18 -13 -30 -22 -30 -12 0 -15 -14 -15 -75 0 -72 15
-105 22 -47 3 23 8 27 40 30 32 3 38 8 48 38 17 50 7 68 -32 60 -30 -6 -30 -5
-15 12 22 24 21 42 -2 42 -13 0 -20 -9 -24 -30z m33 -60 c-19 -12 -40 -13 -40
-1 0 9 40 20 50 13 2 -2 -2 -7 -10 -12z m5 -30 c-3 -5 -18 -10 -33 -9 l-27 1
25 8 c35 11 42 11 35 0z"/>
<path d="M137 7120 c-4 -16 -18 -48 -32 -71 -27 -42 -27 -62 0 -39 13 11 15 6
15 -34 0 -53 23 -106 45 -106 8 0 15 4 15 9 0 5 9 7 20 4 11 -3 20 0 20 6 0 5
7 8 15 5 10 -4 15 0 15 15 0 12 -6 21 -15 21 -8 0 -15 -4 -15 -9 0 -5 -9 -7
-20 -4 -11 3 -20 0 -20 -6 0 -9 -5 -9 -20 -1 -30 16 -24 30 13 30 41 0 77 10
77 21 0 5 -9 9 -20 9 -11 0 -20 5 -20 10 0 6 7 10 15 10 21 0 19 18 -2 23 -17
4 -17 5 0 6 21 1 23 21 2 21 -8 0 -15 5 -15 10 0 6 9 10 20 10 11 0 20 7 20
15 0 8 -6 15 -14 15 -8 0 -16 7 -20 15 -9 24 -36 18 -33 -7 1 -14 -4 -23 -16
-26 -15 -3 -16 0 -6 22 12 25 7 56 -9 56 -5 0 -12 -13 -15 -30z m38 -80 c-3
-5 -10 -10 -16 -10 -5 0 -9 5 -9 10 0 6 7 10 16 10 8 0 12 -4 9 -10z m-2 -37
c-7 -2 -19 -2 -25 0 -7 3 -2 5 12 5 14 0 19 -2 13 -5z m7 -33 c0 -5 -9 -10
-20 -10 -11 0 -20 5 -20 10 0 6 9 10 20 10 11 0 20 -4 20 -10z"/>
<path d="M587 7120 c-4 -16 -18 -48 -32 -71 -30 -47 -26 -63 9 -30 30 28 60
95 53 115 -10 25 -24 19 -30 -14z"/>
<path d="M94 6885 c-7 -29 -1 -41 15 -30 14 8 14 55 1 55 -5 0 -12 -11 -16
-25z"/>
<path d="M307 6690 c-4 -18 -13 -30 -22 -30 -12 0 -15 -14 -15 -75 0 -43 4
-75 10 -75 6 0 10 4 10 10 0 5 18 13 40 16 22 4 40 11 40 17 0 6 -16 7 -41 3
-26 -4 -38 -3 -34 4 3 5 21 10 40 10 29 0 35 4 45 35 17 51 7 69 -32 61 -30
-6 -30 -5 -15 12 22 24 21 42 -2 42 -13 0 -20 -9 -24 -30z m33 -60 c-19 -12
-40 -13 -40 -1 0 9 40 20 50 13 2 -2 -2 -7 -10 -12z m5 -30 c-3 -5 -18 -10
-33 -9 l-27 1 25 8 c35 11 42 11 35 0z"/>
<path d="M137 6670 c-4 -16 -18 -48 -32 -71 -27 -42 -27 -62 0 -39 13 11 15 6
15 -34 0 -53 23 -106 45 -106 8 0 15 4 15 9 0 5 9 7 20 4 11 -3 20 0 20 6 0 5
7 8 15 5 10 -4 15 0 15 15 0 12 -6 21 -15 21 -8 0 -15 -4 -15 -9 0 -5 -9 -7
-20 -4 -11 3 -20 0 -20 -6 0 -9 -5 -9 -20 -1 -30 16 -24 30 13 30 41 0 77 10
77 21 0 5 -9 9 -20 9 -11 0 -20 5 -20 10 0 6 7 10 15 10 21 0 19 18 -2 23 -17
4 -17 5 0 6 21 1 23 21 2 21 -8 0 -15 5 -15 10 0 6 9 10 20 10 11 0 20 7 20
15 0 8 -6 15 -14 15 -8 0 -16 7 -20 15 -9 24 -36 18 -33 -7 1 -14 -4 -23 -16
-26 -15 -3 -16 0 -6 22 12 25 7 56 -9 56 -5 0 -12 -13 -15 -30z m38 -80 c-3
-5 -10 -10 -16 -10 -5 0 -9 5 -9 10 0 6 7 10 16 10 8 0 12 -4 9 -10z m-2 -37
c-7 -2 -19 -2 -25 0 -7 3 -2 5 12 5 14 0 19 -2 13 -5z m7 -33 c0 -5 -9 -10
-20 -10 -11 0 -20 5 -20 10 0 6 9 10 20 10 11 0 20 -4 20 -10z"/>
<path d="M587 6671 c-4 -17 -18 -49 -32 -72 -27 -42 -27 -62 0 -39 13 11 15 6
15 -39 0 -28 5 -51 10 -51 6 0 10 21 10 48 0 26 5 65 11 87 15 56 16 87 3 92
-6 2 -14 -10 -17 -26z"/>
<path d="M94 6435 c-7 -29 -1 -41 15 -30 14 8 14 55 1 55 -5 0 -12 -11 -16
-25z"/>
<path d="M307 6240 c-4 -18 -13 -30 -22 -30 -12 0 -15 -15 -16 -70 -1 -38 -2
-76 -3 -82 -1 -7 8 -12 19 -10 11 1 41 5 68 8 46 7 47 6 47 -20 0 -38 -17 -66
-40 -66 -26 0 -25 -12 0 -35 18 -17 22 -17 36 -3 8 8 21 41 29 74 13 53 12 60
-2 71 -9 7 -26 11 -37 8 -57 -11 -100 -14 -81 -5 11 5 30 9 43 9 12 1 22 6 22
12 0 8 -13 9 -41 5 -26 -4 -38 -3 -34 4 3 5 21 10 40 10 29 0 35 4 45 35 17
51 7 69 -32 61 -30 -6 -30 -5 -15 12 22 24 21 42 -2 42 -13 0 -20 -9 -24 -30z
m33 -60 c-19 -12 -40 -13 -40 -1 0 9 40 20 50 13 2 -2 -2 -7 -10 -12z m5 -30
c-3 -5 -18 -10 -33 -9 l-27 1 25 8 c35 11 42 11 35 0z"/>
<path d="M137 6220 c-4 -16 -18 -48 -32 -71 -27 -42 -27 -62 0 -39 13 11 15 6
15 -34 0 -53 23 -106 45 -106 8 0 15 4 15 9 0 5 9 7 20 4 11 -3 20 0 20 6 0 5
7 8 15 5 10 -4 15 0 15 15 0 12 -6 21 -15 21 -8 0 -15 -4 -15 -9 0 -5 -9 -7
-20 -4 -11 3 -20 0 -20 -6 0 -9 -5 -9 -20 -1 -30 16 -24 30 13 30 41 0 77 10
77 21 0 5 -9 9 -20 9 -11 0 -20 5 -20 10 0 6 7 10 15 10 21 0 19 18 -2 23 -17
4 -17 5 0 6 21 1 23 21 2 21 -8 0 -15 5 -15 10 0 6 9 10 20 10 11 0 20 7 20
15 0 8 -6 15 -14 15 -8 0 -16 7 -20 15 -9 24 -36 18 -33 -7 1 -14 -4 -23 -16
-26 -15 -3 -16 0 -6 22 12 25 7 56 -9 56 -5 0 -12 -13 -15 -30z m38 -80 c-3
-5 -10 -10 -16 -10 -5 0 -9 5 -9 10 0 6 7 10 16 10 8 0 12 -4 9 -10z m-2 -37
c-7 -2 -19 -2 -25 0 -7 3 -2 5 12 5 14 0 19 -2 13 -5z m7 -33 c0 -5 -9 -10
-20 -10 -11 0 -20 5 -20 10 0 6 9 10 20 10 11 0 20 -4 20 -10z"/>
<path d="M587 6221 c-4 -17 -18 -49 -32 -72 -27 -42 -27 -62 0 -39 13 11 15 6
15 -39 0 -28 5 -51 10 -51 6 0 10 21 10 48 0 26 5 65 11 87 15 56 16 87 3 92
-6 2 -14 -10 -17 -26z"/>
<path d="M634 6205 c3 -9 6 -19 6 -21 0 -2 7 -4 16 -4 22 0 13 34 -10 38 -14
3 -17 0 -12 -13z"/>
<path d="M94 5985 c-7 -29 -1 -41 15 -30 14 8 14 55 1 55 -5 0 -12 -11 -16
-25z"/>
<path d="M307 5790 c-4 -18 -13 -30 -22 -30 -12 0 -15 -15 -16 -70 -1 -38 -2
-76 -3 -82 -1 -7 8 -12 19 -10 11 1 41 5 68 8 46 7 47 6 47 -20 0 -38 -17 -66
-40 -66 -26 0 -25 -12 0 -35 18 -17 22 -17 36 -3 8 8 21 41 29 74 13 53 12 60
-2 71 -9 7 -26 11 -37 8 -57 -11 -100 -14 -81 -5 11 5 30 9 43 9 12 1 22 6 22
12 0 8 -13 9 -41 5 -26 -4 -38 -3 -34 4 3 5 21 10 40 10 29 0 35 4 45 35 17
51 7 69 -32 61 -30 -6 -30 -5 -15 12 22 24 21 42 -2 42 -13 0 -20 -9 -24 -30z
m33 -60 c-19 -12 -40 -13 -40 -1 0 9 40 20 50 13 2 -2 -2 -7 -10 -12z m5 -30
c-3 -5 -18 -10 -33 -9 l-27 1 25 8 c35 11 42 11 35 0z"/>
<path d="M137 5770 c-4 -16 -18 -48 -32 -71 -27 -42 -27 -62 0 -39 13 11 15 6
15 -34 0 -53 23 -106 45 -106 8 0 15 4 15 10 0 5 7 7 16 3 9 -3 19 0 24 6 5 9
11 8 23 -4 21 -20 37 -11 37 21 0 25 -15 33 -23 12 -4 -10 -6 -10 -6 0 -1 14
-31 17 -31 3 0 -5 -9 -7 -20 -4 -11 3 -20 0 -20 -6 0 -9 -5 -9 -20 -1 -30 16
-24 30 13 30 41 0 77 10 77 21 0 5 -9 9 -20 9 -11 0 -20 5 -20 10 0 6 7 10 15
10 21 0 19 18 -2 23 -17 4 -17 5 0 6 21 1 23 21 2 21 -8 0 -15 5 -15 10 0 6 9
10 20 10 11 0 20 7 20 15 0 8 -6 15 -14 15 -8 0 -16 7 -20 15 -9 24 -36 18
-33 -7 1 -14 -4 -23 -16 -26 -15 -3 -16 0 -6 22 12 25 7 56 -9 56 -5 0 -12
-13 -15 -30z m38 -80 c-3 -5 -10 -10 -16 -10 -5 0 -9 5 -9 10 0 6 7 10 16 10
8 0 12 -4 9 -10z m-2 -37 c-7 -2 -19 -2 -25 0 -7 3 -2 5 12 5 14 0 19 -2 13
-5z m7 -33 c0 -5 -9 -10 -20 -10 -11 0 -20 5 -20 10 0 6 9 10 20 10 11 0 20
-4 20 -10z"/>
<path d="M587 5770 c-4 -16 -18 -48 -32 -71 -27 -42 -27 -62 0 -39 13 11 15 6
15 -39 0 -28 5 -51 10 -51 6 0 10 22 10 49 0 72 5 80 61 87 32 4 49 11 49 20
0 8 -6 14 -14 14 -8 0 -16 7 -20 15 -9 24 -36 18 -33 -7 1 -14 -4 -23 -16 -26
-15 -3 -16 0 -6 22 12 25 7 56 -9 56 -5 0 -12 -13 -15 -30z"/>
<path d="M94 5535 c-7 -29 -1 -41 15 -30 14 8 14 55 1 55 -5 0 -12 -11 -16
-25z"/>
<path d="M307 5340 c-4 -18 -13 -30 -22 -30 -12 0 -15 -15 -16 -70 -1 -38 -2
-76 -3 -82 -1 -7 8 -12 19 -10 11 1 41 5 68 8 46 7 47 6 47 -20 0 -38 -17 -66
-40 -66 -26 0 -25 -12 0 -35 18 -17 22 -17 36 -3 8 8 21 41 29 74 13 53 12 60
-2 71 -9 7 -26 11 -37 8 -57 -11 -100 -14 -81 -5 11 5 30 9 43 9 12 1 22 6 22
12 0 8 -13 9 -41 5 -26 -4 -38 -3 -34 4 3 5 21 10 40 10 29 0 35 4 45 35 17
51 7 69 -32 61 -30 -6 -30 -5 -15 12 22 24 21 42 -2 42 -13 0 -20 -9 -24 -30z
m33 -60 c-19 -12 -40 -13 -40 -1 0 9 40 20 50 13 2 -2 -2 -7 -10 -12z m5 -30
c-3 -5 -18 -10 -33 -9 l-27 1 25 8 c35 11 42 11 35 0z"/>
<path d="M137 5320 c-4 -16 -18 -48 -32 -71 -27 -42 -27 -62 0 -39 13 11 15 6
15 -34 0 -53 23 -106 45 -106 8 0 15 4 15 10 0 5 7 7 16 3 9 -3 19 0 24 6 5 9
11 8 23 -4 19 -18 37 -12 37 12 0 13 3 13 15 3 18 -15 30 -7 22 15 -8 18 -53
20 -60 3 -4 -10 -6 -10 -6 0 -1 14 -31 17 -31 3 0 -5 -9 -7 -20 -4 -11 3 -20
0 -20 -6 0 -9 -5 -9 -20 -1 -30 16 -24 30 13 30 41 0 77 10 77 21 0 5 -9 9
-20 9 -11 0 -20 5 -20 10 0 6 7 10 15 10 21 0 19 18 -2 23 -17 4 -17 5 0 6 21
1 23 21 2 21 -8 0 -15 5 -15 10 0 6 9 10 20 10 11 0 20 7 20 15 0 8 -6 15 -14
15 -8 0 -16 7 -20 15 -9 24 -36 18 -33 -7 1 -14 -4 -23 -16 -26 -15 -3 -16 0
-6 22 12 25 7 56 -9 56 -5 0 -12 -13 -15 -30z m38 -80 c-3 -5 -10 -10 -16 -10
-5 0 -9 5 -9 10 0 6 7 10 16 10 8 0 12 -4 9 -10z m-2 -37 c-7 -2 -19 -2 -25 0
-7 3 -2 5 12 5 14 0 19 -2 13 -5z m7 -33 c0 -5 -9 -10 -20 -10 -11 0 -20 5
-20 10 0 6 9 10 20 10 11 0 20 -4 20 -10z"/>
<path d="M587 5320 c-4 -16 -18 -48 -32 -71 -27 -42 -27 -62 0 -39 13 11 15 6
15 -39 0 -28 5 -51 10 -51 6 0 10 20 10 45 l0 44 50 7 c63 8 68 29 5 22 -62
-7 -57 10 5 18 32 4 50 11 50 20 0 8 -6 14 -14 14 -8 0 -16 7 -20 15 -9 24
-36 18 -33 -7 1 -14 -4 -23 -16 -26 -15 -3 -16 0 -6 22 12 25 7 56 -9 56 -5 0
-12 -13 -15 -30z"/>
<path d="M94 5085 c-7 -29 -1 -41 15 -30 14 8 14 55 1 55 -5 0 -12 -11 -16
-25z"/>
<path d="M307 4890 c-4 -18 -13 -30 -22 -30 -12 0 -15 -15 -16 -70 -1 -38 -2
-76 -3 -82 -1 -7 8 -12 19 -10 11 1 41 5 68 8 46 7 47 6 47 -20 0 -38 -17 -66
-40 -66 -26 0 -25 -12 0 -35 18 -17 22 -17 36 -3 8 8 21 41 29 74 13 53 12 60
-2 71 -9 7 -26 11 -37 8 -57 -11 -100 -14 -81 -5 11 5 30 9 43 9 12 1 22 6 22
12 0 8 -13 9 -41 5 -26 -4 -38 -3 -34 4 3 5 21 10 40 10 29 0 35 4 45 35 17
51 7 69 -32 61 -30 -6 -30 -5 -15 12 22 24 21 42 -2 42 -13 0 -20 -9 -24 -30z
m33 -60 c-19 -12 -40 -13 -40 -1 0 9 40 20 50 13 2 -2 -2 -7 -10 -12z m5 -30
c-3 -5 -18 -10 -33 -9 l-27 1 25 8 c35 11 42 11 35 0z"/>
<path d="M137 4870 c-4 -16 -18 -48 -32 -71 -27 -42 -27 -62 0 -39 13 11 15 6
15 -34 0 -53 23 -106 45 -106 8 0 15 4 15 10 0 5 7 7 16 3 9 -3 19 0 24 6 5 9
11 8 23 -4 19 -18 37 -12 37 12 0 13 2 13 17 2 12 -10 17 -11 20 -2 2 7 11 9
19 6 8 -3 14 1 14 10 0 19 -22 35 -27 20 -2 -5 -15 -8 -29 -5 -16 3 -30 -1
-35 -9 -6 -10 -9 -10 -9 -1 0 6 -7 12 -15 12 -8 0 -15 -4 -15 -9 0 -5 -9 -7
-20 -4 -11 3 -20 0 -20 -6 0 -9 -5 -9 -20 -1 -30 16 -24 30 13 30 41 0 77 10
77 21 0 5 -9 9 -20 9 -11 0 -20 5 -20 10 0 6 7 10 15 10 21 0 19 18 -2 23 -17
4 -17 5 0 6 21 1 23 21 2 21 -8 0 -15 5 -15 10 0 6 9 10 20 10 11 0 20 7 20
15 0 8 -6 15 -14 15 -8 0 -16 7 -20 15 -9 24 -36 18 -33 -7 1 -14 -4 -23 -16
-26 -15 -3 -16 0 -6 22 12 25 7 56 -9 56 -5 0 -12 -13 -15 -30z m38 -80 c-3
-5 -10 -10 -16 -10 -5 0 -9 5 -9 10 0 6 7 10 16 10 8 0 12 -4 9 -10z m-2 -37
c-7 -2 -19 -2 -25 0 -7 3 -2 5 12 5 14 0 19 -2 13 -5z m7 -33 c0 -5 -9 -10
-20 -10 -11 0 -20 5 -20 10 0 6 9 10 20 10 11 0 20 -4 20 -10z"/>
<path d="M587 4870 c-4 -16 -18 -48 -32 -71 -27 -42 -27 -62 0 -39 13 11 15 6
15 -39 0 -28 5 -51 10 -51 6 0 10 14 10 30 0 26 4 30 28 30 37 0 72 11 72 22
0 5 -24 6 -52 4 -38 -4 -46 -3 -28 3 14 5 37 9 53 10 15 1 27 6 27 12 0 8 -15
10 -45 7 -62 -7 -57 10 5 18 32 4 50 11 50 20 0 8 -6 14 -14 14 -8 0 -16 7
-20 15 -9 24 -36 18 -33 -7 1 -14 -4 -23 -16 -26 -15 -3 -16 0 -6 22 12 25 7
56 -9 56 -5 0 -12 -13 -15 -30z"/>
<path d="M94 4635 c-7 -29 -1 -41 15 -30 14 8 14 55 1 55 -5 0 -12 -11 -16
-25z"/>
<path d="M307 4440 c-4 -18 -13 -30 -22 -30 -12 0 -15 -15 -16 -70 -1 -38 -2
-76 -3 -82 -1 -7 8 -12 19 -10 11 1 41 5 68 8 46 7 47 6 47 -20 0 -38 -17 -66
-40 -66 -26 0 -25 -12 0 -35 18 -17 22 -17 36 -3 8 8 21 41 29 74 13 53 12 60
-2 71 -9 7 -26 11 -37 8 -57 -11 -100 -14 -81 -5 11 5 30 9 43 9 12 1 22 6 22
12 0 8 -13 9 -41 5 -26 -4 -38 -3 -34 4 3 5 21 10 40 10 29 0 35 4 45 35 17
51 7 69 -32 61 -30 -6 -30 -5 -15 12 22 24 21 42 -2 42 -13 0 -20 -9 -24 -30z
m33 -60 c-19 -12 -40 -13 -40 -1 0 9 40 20 50 13 2 -2 -2 -7 -10 -12z m5 -30
c-3 -5 -18 -10 -33 -9 l-27 1 25 8 c35 11 42 11 35 0z"/>
<path d="M137 4420 c-4 -16 -18 -48 -32 -71 -27 -42 -27 -62 0 -39 13 11 15 6
15 -34 0 -53 23 -106 45 -106 8 0 15 4 15 10 0 5 7 7 16 3 9 -3 19 0 24 6 5 9
11 8 23 -4 19 -18 37 -12 37 12 0 13 2 13 17 2 12 -10 17 -11 20 -2 2 7 11 9
19 6 8 -3 14 1 14 10 0 19 -22 35 -27 20 -2 -5 -15 -8 -29 -5 -16 3 -30 -1
-35 -9 -6 -10 -9 -10 -9 -1 0 6 -7 12 -15 12 -8 0 -15 -4 -15 -9 0 -5 -9 -7
-20 -4 -11 3 -20 0 -20 -6 0 -9 -5 -9 -20 -1 -30 16 -24 30 13 30 41 0 77 10
77 21 0 5 -9 9 -20 9 -11 0 -20 5 -20 10 0 6 7 10 15 10 21 0 19 18 -2 23 -17
4 -17 5 0 6 21 1 23 21 2 21 -8 0 -15 5 -15 10 0 6 9 10 20 10 11 0 20 7 20
15 0 8 -6 15 -14 15 -8 0 -16 7 -20 15 -9 24 -36 18 -33 -7 1 -14 -4 -23 -16
-26 -15 -3 -16 0 -6 22 12 25 7 56 -9 56 -5 0 -12 -13 -15 -30z m38 -80 c-3
-5 -10 -10 -16 -10 -5 0 -9 5 -9 10 0 6 7 10 16 10 8 0 12 -4 9 -10z m-2 -37
c-7 -2 -19 -2 -25 0 -7 3 -2 5 12 5 14 0 19 -2 13 -5z m7 -33 c0 -5 -9 -10
-20 -10 -11 0 -20 5 -20 10 0 6 9 10 20 10 11 0 20 -4 20 -10z"/>
<path d="M587 4420 c-4 -16 -18 -48 -32 -71 -27 -42 -27 -62 0 -39 13 11 15 6
15 -39 0 -28 5 -51 10 -51 6 0 10 14 10 30 0 23 4 30 20 30 11 0 20 -4 20 -10
0 -5 7 -10 15 -10 8 0 15 7 15 15 0 8 7 15 15 15 21 0 19 18 -2 23 -17 4 -17
5 0 6 21 1 23 21 2 21 -8 0 -15 5 -15 10 0 6 9 10 20 10 11 0 20 7 20 15 0 8
-6 15 -14 15 -8 0 -16 7 -20 15 -9 24 -36 18 -33 -7 1 -14 -4 -23 -16 -26 -15
-3 -16 0 -6 22 12 25 7 56 -9 56 -5 0 -12 -13 -15 -30z m38 -80 c-3 -5 -10
-10 -16 -10 -5 0 -9 5 -9 10 0 6 7 10 16 10 8 0 12 -4 9 -10z m-2 -37 c-7 -2
-19 -2 -25 0 -7 3 -2 5 12 5 14 0 19 -2 13 -5z"/>
<path d="M350 4244 c0 -13 21 -44 30 -44 16 0 11 37 -6 44 -19 7 -24 8 -24 0z"/>
<path d="M94 4185 c-7 -29 -1 -41 15 -30 14 8 14 55 1 55 -5 0 -12 -11 -16
-25z"/>
<path d="M587 3970 c-4 -16 -18 -48 -32 -71 -27 -42 -27 -62 0 -39 13 11 15 6
15 -39 0 -28 5 -51 10 -51 6 0 10 5 10 10 0 6 15 10 33 10 41 0 77 10 77 21 0
5 -9 9 -20 9 -11 0 -20 5 -20 10 0 6 7 10 15 10 21 0 19 18 -2 23 -17 4 -17 5
0 6 21 1 23 21 2 21 -8 0 -15 5 -15 10 0 6 9 10 20 10 11 0 20 7 20 15 0 8 -6
15 -14 15 -8 0 -16 7 -20 15 -9 24 -36 18 -33 -7 1 -14 -4 -23 -16 -26 -15 -3
-16 0 -6 22 12 25 7 56 -9 56 -5 0 -12 -13 -15 -30z m38 -80 c-3 -5 -10 -10
-16 -10 -5 0 -9 5 -9 10 0 6 7 10 16 10 8 0 12 -4 9 -10z m-2 -37 c-7 -2 -19
-2 -25 0 -7 3 -2 5 12 5 14 0 19 -2 13 -5z m7 -33 c0 -5 -9 -10 -20 -10 -11 0
-20 5 -20 10 0 6 9 10 20 10 11 0 20 -4 20 -10z"/>
<path d="M587 3520 c-4 -16 -18 -48 -32 -71 -27 -42 -27 -62 0 -39 13 11 15 6
15 -39 0 -28 5 -51 10 -51 6 0 10 5 10 10 0 6 15 10 33 10 41 0 77 10 77 21 0
5 -9 9 -20 9 -11 0 -20 5 -20 10 0 6 7 10 15 10 21 0 19 18 -2 23 -17 4 -17 5
0 6 21 1 23 21 2 21 -8 0 -15 5 -15 10 0 6 9 10 20 10 11 0 20 7 20 15 0 8 -6
15 -14 15 -8 0 -16 7 -20 15 -9 24 -36 18 -33 -7 1 -14 -4 -23 -16 -26 -15 -3
-16 0 -6 22 12 25 7 56 -9 56 -5 0 -12 -13 -15 -30z m38 -80 c-3 -5 -10 -10
-16 -10 -5 0 -9 5 -9 10 0 6 7 10 16 10 8 0 12 -4 9 -10z m-2 -37 c-7 -2 -19
-2 -25 0 -7 3 -2 5 12 5 14 0 19 -2 13 -5z m7 -33 c0 -5 -9 -10 -20 -10 -11 0
-20 5 -20 10 0 6 9 10 20 10 11 0 20 -4 20 -10z"/>
<path d="M544 3285 c-7 -29 -1 -41 15 -30 14 8 14 55 1 55 -5 0 -12 -11 -16
-25z"/>
<path d="M587 3070 c-4 -16 -18 -48 -32 -71 -27 -42 -27 -62 0 -39 13 11 15 6
15 -34 0 -53 23 -106 45 -106 22 0 18 28 -5 40 -30 16 -24 30 13 30 41 0 77
10 77 21 0 5 -9 9 -20 9 -11 0 -20 5 -20 10 0 6 7 10 15 10 21 0 19 18 -2 23
-17 4 -17 5 0 6 21 1 23 21 2 21 -8 0 -15 5 -15 10 0 6 9 10 20 10 11 0 20 7
20 15 0 8 -6 15 -14 15 -8 0 -16 7 -20 15 -9 24 -36 18 -33 -7 1 -14 -4 -23
-16 -26 -15 -3 -16 0 -6 22 12 25 7 56 -9 56 -5 0 -12 -13 -15 -30z m38 -80
c-3 -5 -10 -10 -16 -10 -5 0 -9 5 -9 10 0 6 7 10 16 10 8 0 12 -4 9 -10z m-2
-37 c-7 -2 -19 -2 -25 0 -7 3 -2 5 12 5 14 0 19 -2 13 -5z m7 -33 c0 -5 -9
-10 -20 -10 -11 0 -20 5 -20 10 0 6 9 10 20 10 11 0 20 -4 20 -10z"/>
<path d="M544 2835 c-7 -29 -1 -41 15 -30 14 8 14 55 1 55 -5 0 -12 -11 -16
-25z"/>
<path d="M587 2620 c-4 -16 -18 -48 -32 -71 -27 -42 -27 -62 0 -39 13 11 15 6
15 -34 0 -53 23 -106 45 -106 8 0 15 4 15 9 0 5 9 7 20 4 14 -4 20 0 20 11 0
20 -32 35 -38 18 -3 -9 -9 -9 -23 -2 -29 16 -23 30 14 30 41 0 77 10 77 21 0
5 -9 9 -20 9 -11 0 -20 5 -20 10 0 6 7 10 15 10 21 0 19 18 -2 23 -17 4 -17 5
0 6 21 1 23 21 2 21 -8 0 -15 5 -15 10 0 6 9 10 20 10 11 0 20 7 20 15 0 8 -6
15 -14 15 -8 0 -16 7 -20 15 -9 24 -36 18 -33 -7 1 -14 -4 -23 -16 -26 -15 -3
-16 0 -6 22 12 25 7 56 -9 56 -5 0 -12 -13 -15 -30z m38 -80 c-3 -5 -10 -10
-16 -10 -5 0 -9 5 -9 10 0 6 7 10 16 10 8 0 12 -4 9 -10z m-2 -37 c-7 -2 -19
-2 -25 0 -7 3 -2 5 12 5 14 0 19 -2 13 -5z m7 -33 c0 -5 -9 -10 -20 -10 -11 0
-20 5 -20 10 0 6 9 10 20 10 11 0 20 -4 20 -10z"/>
<path d="M544 2385 c-7 -29 -1 -41 15 -30 14 8 14 55 1 55 -5 0 -12 -11 -16
-25z"/>
<path d="M587 2170 c-4 -16 -18 -48 -32 -71 -27 -42 -27 -62 0 -39 13 11 15 6
15 -34 0 -53 23 -106 45 -106 8 0 15 4 15 9 0 5 9 7 20 4 11 -3 20 0 20 6 0 5
7 8 15 5 10 -4 15 0 15 15 0 12 -6 21 -15 21 -8 0 -15 -4 -15 -9 0 -5 -9 -7
-20 -4 -11 3 -20 0 -20 -6 0 -9 -5 -9 -20 -1 -30 16 -24 30 13 30 41 0 77 10
77 21 0 5 -9 9 -20 9 -11 0 -20 5 -20 10 0 6 7 10 15 10 21 0 19 18 -2 23 -17
4 -17 5 0 6 21 1 23 21 2 21 -8 0 -15 5 -15 10 0 6 9 10 20 10 11 0 20 7 20
15 0 8 -6 15 -14 15 -8 0 -16 7 -20 15 -9 24 -36 18 -33 -7 1 -14 -4 -23 -16
-26 -15 -3 -16 0 -6 22 12 25 7 56 -9 56 -5 0 -12 -13 -15 -30z m38 -80 c-3
-5 -10 -10 -16 -10 -5 0 -9 5 -9 10 0 6 7 10 16 10 8 0 12 -4 9 -10z m-2 -37
c-7 -2 -19 -2 -25 0 -7 3 -2 5 12 5 14 0 19 -2 13 -5z m7 -33 c0 -5 -9 -10
-20 -10 -11 0 -20 5 -20 10 0 6 9 10 20 10 11 0 20 -4 20 -10z"/>
<path d="M544 1935 c-7 -29 -1 -41 15 -30 14 8 14 55 1 55 -5 0 -12 -11 -16
-25z"/>
<path d="M757 1743 c-7 -36 -2 -40 23 -18 25 23 26 45 1 45 -12 0 -20 -9 -24
-27z"/>
<path d="M587 1720 c-4 -16 -18 -48 -32 -71 -27 -42 -27 -62 0 -39 13 11 15 6
15 -34 0 -53 23 -106 45 -106 8 0 15 4 15 9 0 5 9 7 20 4 11 -3 20 0 20 6 0 5
7 8 15 5 10 -4 15 0 15 15 0 12 -6 21 -15 21 -8 0 -15 -4 -15 -9 0 -5 -9 -7
-20 -4 -11 3 -20 0 -20 -6 0 -9 -5 -9 -20 -1 -30 16 -24 30 13 30 41 0 77 10
77 21 0 5 -9 9 -20 9 -11 0 -20 5 -20 10 0 6 7 10 15 10 21 0 19 18 -2 23 -17
4 -17 5 0 6 21 1 23 21 2 21 -8 0 -15 5 -15 10 0 6 9 10 20 10 11 0 20 7 20
15 0 8 -6 15 -14 15 -8 0 -16 7 -20 15 -9 24 -36 18 -33 -7 1 -14 -4 -23 -16
-26 -15 -3 -16 0 -6 22 12 25 7 56 -9 56 -5 0 -12 -13 -15 -30z m38 -80 c-3
-5 -10 -10 -16 -10 -5 0 -9 5 -9 10 0 6 7 10 16 10 8 0 12 -4 9 -10z m-2 -37
c-7 -2 -19 -2 -25 0 -7 3 -2 5 12 5 14 0 19 -2 13 -5z m7 -33 c0 -5 -9 -10
-20 -10 -11 0 -20 5 -20 10 0 6 9 10 20 10 11 0 20 -4 20 -10z"/>
<path d="M544 1485 c-7 -29 -1 -41 15 -30 14 8 14 55 1 55 -5 0 -12 -11 -16
-25z"/>
<path d="M757 1290 c-4 -18 -13 -30 -22 -30 -12 0 -15 -14 -15 -75 0 -41 4
-75 9 -75 4 0 11 32 15 71 5 60 10 75 31 91 30 23 33 48 6 48 -13 0 -20 -9
-24 -30z"/>
<path d="M587 1270 c-4 -16 -18 -48 -32 -71 -27 -42 -27 -62 0 -39 13 11 15 6
15 -34 0 -53 23 -106 45 -106 8 0 15 4 15 9 0 5 9 7 20 4 11 -3 20 0 20 6 0 5
7 8 15 5 10 -4 15 0 15 15 0 12 -6 21 -15 21 -8 0 -15 -4 -15 -9 0 -5 -9 -7
-20 -4 -11 3 -20 0 -20 -6 0 -9 -5 -9 -20 -1 -30 16 -24 30 13 30 41 0 77 10
77 21 0 5 -9 9 -20 9 -11 0 -20 5 -20 10 0 6 7 10 15 10 21 0 19 18 -2 23 -17
4 -17 5 0 6 21 1 23 21 2 21 -8 0 -15 5 -15 10 0 6 9 10 20 10 11 0 20 7 20
15 0 8 -6 15 -14 15 -8 0 -16 7 -20 15 -9 24 -36 18 -33 -7 1 -14 -4 -23 -16
-26 -15 -3 -16 0 -6 22 12 25 7 56 -9 56 -5 0 -12 -13 -15 -30z m38 -80 c-3
-5 -10 -10 -16 -10 -5 0 -9 5 -9 10 0 6 7 10 16 10 8 0 12 -4 9 -10z m-2 -37
c-7 -2 -19 -2 -25 0 -7 3 -2 5 12 5 14 0 19 -2 13 -5z m7 -33 c0 -5 -9 -10
-20 -10 -11 0 -20 5 -20 10 0 6 9 10 20 10 11 0 20 -4 20 -10z"/>
<path d="M544 1035 c-7 -29 -1 -41 15 -30 14 8 14 55 1 55 -5 0 -12 -11 -16
-25z"/>
<path d="M757 840 c-4 -18 -13 -30 -22 -30 -12 0 -15 -14 -15 -75 0 -43 4 -75
10 -75 6 0 10 15 10 34 0 66 10 94 37 99 24 4 25 3 19 -34 -8 -51 17 -54 34
-4 17 51 7 69 -32 61 -30 -6 -30 -5 -15 12 22 24 21 42 -2 42 -13 0 -20 -9
-24 -30z"/>
<path d="M587 820 c-4 -16 -18 -48 -32 -71 -27 -42 -27 -62 0 -39 13 11 15 6
15 -34 0 -53 23 -106 45 -106 8 0 15 4 15 9 0 5 9 7 20 4 11 -3 20 0 20 6 0 5
7 8 15 5 10 -4 15 0 15 15 0 12 -6 21 -15 21 -8 0 -15 -4 -15 -9 0 -5 -9 -7
-20 -4 -11 3 -20 0 -20 -6 0 -9 -5 -9 -20 -1 -30 16 -24 30 13 30 41 0 77 10
77 21 0 5 -9 9 -20 9 -11 0 -20 5 -20 10 0 6 7 10 15 10 21 0 19 18 -2 23 -17
4 -17 5 0 6 21 1 23 21 2 21 -8 0 -15 5 -15 10 0 6 9 10 20 10 11 0 20 7 20
15 0 8 -6 15 -14 15 -8 0 -16 7 -20 15 -9 24 -36 18 -33 -7 1 -14 -4 -23 -16
-26 -15 -3 -16 0 -6 22 12 25 7 56 -9 56 -5 0 -12 -13 -15 -30z m38 -80 c-3
-5 -10 -10 -16 -10 -5 0 -9 5 -9 10 0 6 7 10 16 10 8 0 12 -4 9 -10z m-2 -37
c-7 -2 -19 -2 -25 0 -7 3 -2 5 12 5 14 0 19 -2 13 -5z m7 -33 c0 -5 -9 -10
-20 -10 -11 0 -20 5 -20 10 0 6 9 10 20 10 11 0 20 -4 20 -10z"/>
<path d="M544 585 c-7 -29 -1 -41 15 -30 14 8 14 55 1 55 -5 0 -12 -11 -16
-25z"/>
<path d="M757 390 c-4 -18 -13 -30 -22 -30 -12 0 -15 -14 -15 -75 0 -43 4 -75
10 -75 6 0 10 20 10 45 0 32 4 45 14 45 8 0 21 3 29 6 12 4 14 0 10 -15 -10
-37 24 -24 37 14 17 51 7 69 -32 61 -30 -6 -30 -5 -15 12 22 24 21 42 -2 42
-13 0 -20 -9 -24 -30z m33 -60 c-19 -12 -40 -13 -40 -1 0 9 40 20 50 13 2 -2
-2 -7 -10 -12z"/>
<path d="M587 370 c-4 -16 -18 -48 -32 -71 -27 -42 -27 -62 0 -39 13 11 15 6
15 -34 0 -53 23 -106 45 -106 8 0 15 4 15 9 0 5 9 7 20 4 11 -3 20 0 20 6 0 5
7 8 15 5 10 -4 15 0 15 15 0 12 -6 21 -15 21 -8 0 -15 -4 -15 -9 0 -5 -9 -7
-20 -4 -11 3 -20 0 -20 -6 0 -9 -5 -9 -20 -1 -30 16 -24 30 13 30 41 0 77 10
77 21 0 5 -9 9 -20 9 -11 0 -20 5 -20 10 0 6 7 10 15 10 21 0 19 18 -2 23 -17
4 -17 5 0 6 21 1 23 21 2 21 -8 0 -15 5 -15 10 0 6 9 10 20 10 11 0 20 7 20
15 0 8 -6 15 -14 15 -8 0 -16 7 -20 15 -9 24 -36 18 -33 -7 1 -14 -4 -23 -16
-26 -15 -3 -16 0 -6 22 12 25 7 56 -9 56 -5 0 -12 -13 -15 -30z m38 -80 c-3
-5 -10 -10 -16 -10 -5 0 -9 5 -9 10 0 6 7 10 16 10 8 0 12 -4 9 -10z m-2 -37
c-7 -2 -19 -2 -25 0 -7 3 -2 5 12 5 14 0 19 -2 13 -5z m7 -33 c0 -5 -9 -10
-20 -10 -11 0 -20 5 -20 10 0 6 9 10 20 10 11 0 20 -4 20 -10z"/>
<path d="M544 135 c-7 -29 -1 -41 15 -30 14 8 14 55 1 55 -5 0 -12 -11 -16
-25z"/>
</g>
</svg>
