<?xml version="1.0" standalone="no"?>
<!DOCTYPE svg PUBLIC "-//W3C//DTD SVG 20010904//EN"
 "http://www.w3.org/TR/2001/REC-SVG-20010904/DTD/svg10.dtd">
<svg version="1.0" xmlns="http://www.w3.org/2000/svg"
 width="95.000000pt" height="725.000000pt" viewBox="0 0 95.000000 725.000000"
 preserveAspectRatio="xMidYMid meet">
<metadata>
Created by potrace 1.16, written by Peter Selinger 2001-2019
</metadata>
<g transform="translate(0.000000,725.000000) scale(0.100000,-0.100000)"
fill="#000000" stroke="none">
<path d="M280 7133 c0 -10 -14 -42 -30 -72 -30 -55 -32 -70 -8 -55 7 4 27 7
45 5 19 -1 33 2 33 8 0 6 -11 11 -25 11 -25 0 -25 0 -10 30 9 17 17 30 20 30
2 0 18 -20 36 -45 27 -38 38 -45 66 -45 41 0 43 14 4 29 -36 16 -96 77 -96 99
0 9 -8 18 -17 20 -12 2 -18 -3 -18 -15z"/>
<path d="M128 7090 c3 -33 1 -50 -7 -50 -18 0 -13 -18 7 -23 16 -4 16 -5 0 -6
-10 0 -18 -5 -18 -11 0 -5 8 -10 18 -11 13 0 14 -2 2 -6 -8 -3 -18 -11 -22
-17 -4 -6 -8 6 -8 27 0 23 -5 37 -13 37 -9 0 -13 -25 -15 -90 -2 -58 1 -90 7
-90 6 0 11 4 11 9 0 5 17 11 38 14 26 3 41 0 50 -11 23 -30 33 1 30 94 l-3 89
-28 0 c-37 -1 -32 29 6 33 34 4 36 22 2 22 -15 0 -25 6 -25 14 0 11 -20 26
-34 26 -2 0 -1 -22 2 -50z m49 -92 c-3 -7 -5 -2 -5 12 0 14 2 19 5 13 2 -7 2
-19 0 -25z m-74 -85 c-5 -12 -2 -15 10 -10 9 3 19 2 22 -3 4 -6 -5 -10 -19
-10 -19 0 -26 5 -26 20 0 11 4 20 10 20 5 0 6 -8 3 -17z"/>
<path d="M574 7124 c3 -9 6 -33 6 -55 0 -54 16 -49 25 7 5 34 3 49 -7 55 -20
13 -31 10 -24 -7z"/>
<path d="M259 6968 c-1 -17 -2 -19 -6 -5 -2 9 -11 17 -20 17 -12 0 -14 -6 -8
-27 8 -34 5 -32 38 -26 22 4 27 11 27 34 0 35 -29 41 -31 7z"/>
<path d="M280 6683 c0 -10 -14 -42 -30 -72 -30 -55 -32 -70 -8 -55 7 4 27 7
45 5 19 -1 33 2 33 8 0 6 -11 11 -25 11 -25 0 -25 0 -10 30 9 17 17 30 20 30
2 0 18 -20 36 -45 27 -38 38 -45 66 -45 41 0 43 14 4 29 -36 16 -96 77 -96 99
0 9 -8 18 -17 20 -12 2 -18 -3 -18 -15z"/>
<path d="M128 6640 c3 -33 1 -50 -7 -50 -18 0 -13 -18 7 -23 16 -4 16 -5 0 -6
-10 0 -18 -5 -18 -11 0 -5 8 -10 18 -11 13 0 14 -2 2 -6 -8 -3 -18 -11 -22
-17 -4 -6 -8 6 -8 27 0 23 -5 37 -13 37 -9 0 -13 -25 -15 -90 -2 -58 1 -90 7
-90 6 0 11 4 11 9 0 5 17 11 38 14 26 3 41 0 50 -11 23 -30 33 1 30 94 l-3 89
-28 0 c-37 -1 -32 29 6 33 34 4 36 22 2 22 -15 0 -25 6 -25 14 0 11 -20 26
-34 26 -2 0 -1 -22 2 -50z m49 -92 c-3 -7 -5 -2 -5 12 0 14 2 19 5 13 2 -7 2
-19 0 -25z m-74 -85 c-5 -12 -2 -15 10 -10 9 3 19 2 22 -3 4 -6 -5 -10 -19
-10 -19 0 -26 5 -26 20 0 11 4 20 10 20 5 0 6 -8 3 -17z"/>
<path d="M574 6674 c3 -9 6 -33 6 -55 0 -42 16 -54 22 -16 2 16 11 23 31 25
34 4 36 22 2 22 -15 0 -25 6 -25 14 0 8 -7 17 -16 20 -24 9 -27 8 -20 -10z"/>
<path d="M259 6518 c-1 -17 -2 -19 -6 -5 -2 9 -11 17 -20 17 -12 0 -14 -6 -8
-27 8 -34 5 -32 38 -26 22 4 27 11 27 34 0 35 -29 41 -31 7z"/>
<path d="M303 6519 c4 -13 7 -27 7 -31 0 -5 5 -8 11 -8 15 0 6 53 -10 58 -10
4 -12 -1 -8 -19z"/>
<path d="M280 6233 c0 -10 -14 -42 -30 -72 -30 -55 -32 -70 -8 -55 7 4 27 7
45 5 19 -1 33 2 33 8 0 6 -11 11 -25 11 -25 0 -25 0 -10 30 9 17 17 30 20 30
2 0 18 -20 36 -45 27 -38 38 -45 66 -45 41 0 43 14 4 29 -36 16 -96 77 -96 99
0 9 -8 18 -17 20 -12 2 -18 -3 -18 -15z"/>
<path d="M128 6190 c3 -33 1 -50 -7 -50 -18 0 -13 -18 7 -23 16 -4 16 -5 0 -6
-10 0 -18 -5 -18 -11 0 -5 8 -10 18 -11 13 0 14 -2 2 -6 -8 -3 -18 -11 -22
-17 -4 -6 -8 6 -8 27 0 23 -5 37 -13 37 -9 0 -13 -25 -15 -90 -2 -58 1 -90 7
-90 6 0 11 4 11 9 0 5 17 11 38 14 26 3 41 0 50 -11 23 -30 33 1 30 94 l-3 89
-28 0 c-37 -1 -32 29 6 33 34 4 36 22 2 22 -15 0 -25 6 -25 14 0 11 -20 26
-34 26 -2 0 -1 -22 2 -50z m49 -92 c-3 -7 -5 -2 -5 12 0 14 2 19 5 13 2 -7 2
-19 0 -25z m-74 -85 c-5 -12 -2 -15 10 -10 9 3 19 2 22 -3 4 -6 -5 -10 -19
-10 -19 0 -26 5 -26 20 0 11 4 20 10 20 5 0 6 -8 3 -17z"/>
<path d="M574 6224 c3 -9 6 -33 6 -55 0 -42 16 -54 22 -16 2 16 11 23 31 25
34 4 36 22 2 22 -15 0 -25 6 -25 14 0 8 -7 17 -16 20 -24 9 -27 8 -20 -10z"/>
<path d="M522 6040 c-4 -102 12 -122 22 -29 9 91 8 119 -7 119 -9 0 -13 -25
-15 -90z"/>
<path d="M328 6093 c-30 -5 -31 -6 -22 -40 8 -28 24 -30 24 -3 0 11 5 20 10
20 6 0 10 -7 10 -15 0 -22 18 -18 25 5 6 20 -1 41 -13 39 -4 -1 -19 -4 -34 -6z"/>
<path d="M259 6068 c-1 -17 -2 -19 -6 -5 -2 9 -11 17 -20 17 -12 0 -14 -6 -8
-27 8 -34 5 -32 38 -26 22 4 27 11 27 34 0 35 -29 41 -31 7z"/>
<path d="M280 5783 c0 -10 -14 -42 -30 -72 -30 -55 -32 -70 -8 -55 7 4 27 7
45 5 19 -1 33 2 33 8 0 6 -11 11 -25 11 -25 0 -25 0 -10 30 9 17 17 30 20 30
2 0 18 -20 36 -45 27 -38 38 -45 66 -45 41 0 43 14 4 29 -36 16 -96 77 -96 99
0 9 -8 18 -17 20 -12 2 -18 -3 -18 -15z"/>
<path d="M128 5740 c3 -33 1 -50 -7 -50 -18 0 -13 -18 7 -23 16 -4 16 -5 0 -6
-10 0 -18 -5 -18 -11 0 -5 8 -10 18 -11 13 0 14 -2 2 -6 -8 -3 -18 -11 -22
-17 -4 -6 -8 6 -8 27 0 23 -5 37 -13 37 -9 0 -13 -25 -15 -90 -2 -58 1 -90 7
-90 6 0 11 4 11 9 0 5 17 11 38 14 26 3 41 0 50 -11 23 -30 33 1 30 94 l-3 89
-28 0 c-37 -1 -32 29 6 33 34 4 36 22 2 22 -15 0 -25 6 -25 14 0 11 -20 26
-34 26 -2 0 -1 -22 2 -50z m49 -92 c-3 -7 -5 -2 -5 12 0 14 2 19 5 13 2 -7 2
-19 0 -25z m-74 -85 c-5 -12 -2 -15 10 -10 9 3 19 2 22 -3 4 -6 -5 -10 -19
-10 -19 0 -26 5 -26 20 0 11 4 20 10 20 5 0 6 -8 3 -17z"/>
<path d="M578 5740 c3 -33 1 -50 -7 -50 -6 0 -11 -5 -11 -11 0 -7 14 -10 36
-7 l35 4 -2 -83 c-2 -45 0 -86 4 -90 18 -18 28 20 25 103 l-3 89 -28 0 c-37
-1 -32 29 6 33 34 4 36 22 2 22 -15 0 -25 6 -25 14 0 11 -20 26 -34 26 -2 0
-1 -22 2 -50z"/>
<path d="M522 5590 c-4 -102 12 -122 22 -29 9 91 8 119 -7 119 -9 0 -13 -25
-15 -90z"/>
<path d="M327 5643 c-26 -4 -28 -8 -22 -31 9 -34 8 -34 38 -26 15 3 29 15 32
25 6 19 -1 40 -13 38 -4 -1 -20 -4 -35 -6z m23 -27 c0 -3 -4 -8 -10 -11 -5 -3
-10 -1 -10 4 0 6 5 11 10 11 6 0 10 -2 10 -4z"/>
<path d="M259 5618 c-1 -17 -2 -19 -6 -5 -2 9 -11 17 -20 17 -12 0 -14 -6 -8
-27 8 -34 5 -32 38 -26 22 4 27 11 27 34 0 35 -29 41 -31 7z"/>
<path d="M280 5333 c0 -10 -14 -42 -30 -72 -30 -55 -32 -70 -8 -55 7 4 27 7
45 5 19 -1 33 2 33 8 0 6 -11 11 -25 11 -25 0 -25 0 -10 30 9 17 17 30 20 30
2 0 18 -20 36 -45 27 -38 38 -45 66 -45 41 0 43 14 4 29 -36 16 -96 77 -96 99
0 9 -8 18 -17 20 -12 2 -18 -3 -18 -15z"/>
<path d="M128 5290 c3 -33 1 -50 -7 -50 -18 0 -13 -18 7 -23 16 -4 16 -5 0 -6
-10 0 -18 -5 -18 -11 0 -5 8 -10 18 -11 13 0 14 -2 2 -6 -8 -3 -18 -11 -22
-17 -4 -6 -8 6 -8 27 0 23 -5 37 -13 37 -9 0 -13 -25 -15 -90 -2 -58 1 -90 7
-90 6 0 11 4 11 9 0 5 17 11 38 14 26 3 41 0 50 -11 23 -30 33 1 30 94 l-3 89
-28 0 c-37 -1 -32 29 6 33 34 4 36 22 2 22 -15 0 -25 6 -25 14 0 11 -20 26
-34 26 -2 0 -1 -22 2 -50z m49 -92 c-3 -7 -5 -2 -5 12 0 14 2 19 5 13 2 -7 2
-19 0 -25z m-74 -85 c-5 -12 -2 -15 10 -10 9 3 19 2 22 -3 4 -6 -5 -10 -19
-10 -19 0 -26 5 -26 20 0 11 4 20 10 20 5 0 6 -8 3 -17z"/>
<path d="M578 5290 c3 -33 1 -50 -7 -50 -6 0 -11 -4 -11 -10 0 -5 7 -10 15
-10 21 0 19 -28 -5 -75 -11 -21 -17 -41 -15 -44 11 -10 38 29 56 81 l19 53 -2
-87 c-1 -48 1 -91 5 -95 18 -18 28 20 25 103 l-3 89 -28 0 c-37 -1 -32 29 6
33 34 4 36 22 2 22 -15 0 -25 6 -25 14 0 11 -20 26 -34 26 -2 0 -1 -22 2 -50z"/>
<path d="M522 5140 c-4 -102 12 -122 22 -29 9 91 8 119 -7 119 -9 0 -13 -25
-15 -90z"/>
<path d="M327 5193 c-26 -4 -28 -8 -22 -31 9 -34 8 -34 38 -26 15 3 29 15 32
25 6 19 -1 40 -13 38 -4 -1 -20 -4 -35 -6z m23 -27 c0 -3 -4 -8 -10 -11 -5 -3
-10 -1 -10 4 0 6 5 11 10 11 6 0 10 -2 10 -4z"/>
<path d="M259 5168 c-1 -17 -2 -19 -6 -5 -2 9 -11 17 -20 17 -12 0 -14 -6 -8
-27 3 -16 11 -29 16 -31 5 -2 4 -12 -2 -24 -15 -28 -2 -35 22 -11 27 27 39
103 15 103 -10 0 -16 -9 -17 -22z"/>
<path d="M280 4883 c0 -10 -14 -42 -30 -72 -30 -55 -32 -70 -8 -55 7 4 27 7
45 5 19 -1 33 2 33 8 0 6 -11 11 -25 11 -25 0 -25 0 -10 30 9 17 17 30 20 30
2 0 18 -20 36 -45 27 -38 38 -45 66 -45 41 0 43 14 4 29 -36 16 -96 77 -96 99
0 9 -8 18 -17 20 -12 2 -18 -3 -18 -15z"/>
<path d="M128 4840 c3 -33 1 -50 -7 -50 -18 0 -13 -18 7 -23 16 -4 16 -5 0 -6
-10 0 -18 -5 -18 -11 0 -5 8 -10 18 -11 13 0 14 -2 2 -6 -8 -3 -18 -11 -22
-17 -4 -6 -8 6 -8 27 0 23 -5 37 -13 37 -9 0 -13 -25 -15 -90 -2 -58 1 -90 7
-90 6 0 11 4 11 9 0 5 17 11 38 14 26 3 41 0 50 -11 23 -30 33 1 30 94 l-3 89
-28 0 c-37 -1 -32 29 6 33 34 4 36 22 2 22 -15 0 -25 6 -25 14 0 11 -20 26
-34 26 -2 0 -1 -22 2 -50z m49 -92 c-3 -7 -5 -2 -5 12 0 14 2 19 5 13 2 -7 2
-19 0 -25z m-74 -85 c-5 -12 -2 -15 10 -10 9 3 19 2 22 -3 4 -6 -5 -10 -19
-10 -19 0 -26 5 -26 20 0 11 4 20 10 20 5 0 6 -8 3 -17z"/>
<path d="M578 4840 c3 -33 1 -50 -7 -50 -6 0 -11 -4 -11 -10 0 -5 7 -10 15
-10 8 0 15 -9 15 -20 0 -11 -7 -20 -15 -20 -8 0 -15 -4 -15 -10 0 -5 5 -10 11
-10 7 0 5 -10 -6 -26 -20 -31 -10 -47 13 -19 16 19 18 20 34 3 10 -10 15 -23
13 -30 -3 -7 -1 -20 5 -28 20 -32 31 6 28 96 l-3 89 -28 0 c-37 -1 -32 29 6
33 34 4 36 22 2 22 -15 0 -25 6 -25 14 0 11 -20 26 -34 26 -2 0 -1 -22 2 -50z
m52 -102 c0 -28 -3 -39 -10 -32 -9 9 -3 74 6 74 2 0 4 -19 4 -42z"/>
<path d="M522 4690 c-4 -102 12 -122 22 -29 9 91 8 119 -7 119 -9 0 -13 -25
-15 -90z"/>
<path d="M327 4743 c-26 -4 -28 -8 -22 -31 9 -34 8 -34 38 -26 15 3 29 15 32
25 6 19 -1 40 -13 38 -4 -1 -20 -4 -35 -6z m23 -27 c0 -3 -4 -8 -10 -11 -5 -3
-10 -1 -10 4 0 6 5 11 10 11 6 0 10 -2 10 -4z"/>
<path d="M259 4718 c-1 -17 -2 -19 -6 -5 -2 9 -11 17 -20 17 -12 0 -14 -6 -8
-27 3 -15 10 -30 15 -33 5 -3 5 -12 0 -20 -14 -22 -12 -33 4 -27 7 3 19 0 25
-6 14 -14 27 -1 14 15 -6 8 -7 22 -2 33 13 35 10 75 -6 75 -9 0 -15 -10 -16
-22z"/>
<path d="M280 4433 c0 -10 -14 -42 -30 -72 -30 -55 -32 -70 -8 -55 7 4 27 7
45 5 19 -1 33 2 33 8 0 6 -11 11 -25 11 -25 0 -25 0 -10 30 9 17 17 30 20 30
2 0 18 -20 36 -45 27 -38 38 -45 66 -45 41 0 43 14 4 29 -36 16 -96 77 -96 99
0 9 -8 18 -17 20 -12 2 -18 -3 -18 -15z"/>
<path d="M128 4390 c3 -33 1 -50 -7 -50 -18 0 -13 -18 7 -23 16 -4 16 -5 0 -6
-10 0 -18 -5 -18 -11 0 -5 8 -10 18 -11 13 0 14 -2 2 -6 -8 -3 -18 -11 -22
-17 -4 -6 -8 6 -8 27 0 23 -5 37 -13 37 -9 0 -13 -25 -15 -90 -2 -58 1 -90 7
-90 6 0 11 4 11 9 0 5 17 11 38 14 26 3 41 0 50 -11 23 -30 33 1 30 94 l-3 89
-28 0 c-37 -1 -32 29 6 33 34 4 36 22 2 22 -15 0 -25 6 -25 14 0 11 -20 26
-34 26 -2 0 -1 -22 2 -50z m49 -92 c-3 -7 -5 -2 -5 12 0 14 2 19 5 13 2 -7 2
-19 0 -25z m-74 -85 c-5 -12 -2 -15 10 -10 9 3 19 2 22 -3 4 -6 -5 -10 -19
-10 -19 0 -26 5 -26 20 0 11 4 20 10 20 5 0 6 -8 3 -17z"/>
<path d="M578 4390 c3 -33 1 -50 -7 -50 -18 0 -13 -18 7 -23 16 -4 16 -5 0 -6
-10 0 -18 -5 -18 -10 0 -5 8 -12 18 -14 16 -4 16 -5 0 -6 -19 -1 -25 -21 -7
-21 7 0 5 -10 -6 -26 -20 -31 -10 -47 13 -19 16 19 18 20 34 3 10 -10 15 -23
13 -30 -3 -7 -1 -20 5 -28 20 -32 31 6 28 96 l-3 89 -28 0 c-37 -1 -32 29 6
33 34 4 36 22 2 22 -15 0 -25 6 -25 14 0 11 -20 26 -34 26 -2 0 -1 -22 2 -50z
m52 -102 c0 -28 -3 -39 -10 -32 -9 9 -3 74 6 74 2 0 4 -19 4 -42z"/>
<path d="M522 4240 c-4 -102 12 -122 22 -29 9 91 8 119 -7 119 -9 0 -13 -25
-15 -90z"/>
<path d="M327 4293 c-26 -4 -28 -8 -22 -31 4 -15 11 -30 17 -33 7 -5 4 -19
-10 -44 -25 -41 -26 -45 -12 -45 13 0 65 79 57 86 -3 4 1 13 9 21 16 16 15 45
-1 48 -5 1 -23 0 -38 -2z m23 -27 c0 -3 -4 -8 -10 -11 -5 -3 -10 -1 -10 4 0 6
5 11 10 11 6 0 10 -2 10 -4z"/>
<path d="M259 4268 c-1 -17 -2 -19 -6 -5 -2 9 -11 17 -20 17 -12 0 -14 -6 -8
-27 3 -15 10 -30 15 -33 5 -3 5 -12 0 -20 -14 -22 -12 -33 4 -27 7 3 19 0 25
-6 14 -14 27 -1 14 15 -6 8 -7 22 -2 33 13 35 10 75 -6 75 -9 0 -15 -10 -16
-22z"/>
<path d="M280 3983 c0 -10 -14 -42 -30 -72 -30 -55 -32 -70 -8 -55 7 4 27 7
45 5 19 -1 33 2 33 8 0 6 -11 11 -25 11 -25 0 -25 0 -10 30 9 17 17 30 20 30
2 0 18 -20 36 -45 27 -38 38 -45 66 -45 41 0 43 14 4 29 -36 16 -96 77 -96 99
0 9 -8 18 -17 20 -12 2 -18 -3 -18 -15z"/>
<path d="M128 3940 c3 -33 1 -50 -7 -50 -18 0 -13 -18 7 -23 16 -4 16 -5 0 -6
-10 0 -18 -5 -18 -11 0 -5 8 -10 18 -11 13 0 14 -2 2 -6 -8 -3 -18 -11 -22
-17 -4 -6 -8 6 -8 27 0 23 -5 37 -13 37 -9 0 -13 -25 -15 -90 -2 -58 1 -90 7
-90 6 0 11 4 11 9 0 5 17 11 38 14 26 3 41 0 50 -11 23 -30 33 1 30 94 l-3 89
-28 0 c-37 -1 -32 29 6 33 34 4 36 22 2 22 -15 0 -25 6 -25 14 0 11 -20 26
-34 26 -2 0 -1 -22 2 -50z m49 -92 c-3 -7 -5 -2 -5 12 0 14 2 19 5 13 2 -7 2
-19 0 -25z m-74 -85 c-5 -12 -2 -15 10 -10 9 3 19 2 22 -3 4 -6 -5 -10 -19
-10 -19 0 -26 5 -26 20 0 11 4 20 10 20 5 0 6 -8 3 -17z"/>
<path d="M578 3940 c3 -33 1 -50 -7 -50 -18 0 -13 -18 7 -23 16 -4 16 -5 0 -6
-10 0 -18 -5 -18 -11 0 -5 8 -10 18 -11 13 0 14 -2 2 -6 -8 -3 -18 -11 -22
-17 -4 -6 -8 6 -8 27 0 23 -5 37 -13 37 -9 0 -13 -25 -15 -90 -2 -58 1 -90 7
-90 6 0 11 18 11 40 0 22 4 40 10 40 5 0 7 -7 4 -15 -9 -21 14 -19 27 4 12 17
13 17 30 0 10 -10 16 -24 14 -31 -3 -7 -1 -20 5 -28 20 -32 31 6 28 96 l-3 89
-28 0 c-37 -1 -32 29 6 33 34 4 36 22 2 22 -15 0 -25 6 -25 14 0 11 -20 26
-34 26 -2 0 -1 -22 2 -50z m52 -102 c0 -28 -3 -39 -10 -32 -9 9 -3 74 6 74 2
0 4 -19 4 -42z"/>
<path d="M327 3843 c-26 -4 -28 -8 -22 -31 4 -15 11 -30 17 -33 7 -5 4 -20
-11 -44 -25 -42 -19 -62 9 -28 l18 23 25 -20 c30 -24 47 -25 47 -4 0 9 -13 21
-30 27 -31 12 -36 40 -12 66 14 15 13 43 -3 46 -5 1 -23 0 -38 -2z m23 -27 c0
-3 -4 -8 -10 -11 -5 -3 -10 -1 -10 4 0 6 5 11 10 11 6 0 10 -2 10 -4z"/>
<path d="M259 3818 c-1 -17 -2 -19 -6 -5 -2 9 -11 17 -20 17 -12 0 -14 -6 -8
-27 3 -15 10 -30 15 -33 5 -3 5 -12 0 -20 -14 -22 -12 -33 4 -27 7 3 19 0 25
-6 14 -14 27 -1 14 15 -6 8 -7 22 -2 33 13 35 10 75 -6 75 -9 0 -15 -10 -16
-22z"/>
<path d="M578 3490 c3 -33 1 -50 -7 -50 -18 0 -13 -18 7 -23 16 -4 16 -5 0 -6
-10 0 -18 -5 -18 -11 0 -5 8 -10 18 -11 13 0 14 -2 2 -6 -8 -3 -18 -11 -22
-17 -4 -6 -8 6 -8 27 0 23 -5 37 -13 37 -9 0 -13 -25 -15 -90 -2 -58 1 -90 7
-90 6 0 11 18 11 40 0 22 4 40 10 40 5 0 7 -7 4 -15 -9 -21 14 -19 27 4 12 17
13 17 30 0 10 -10 16 -24 14 -31 -3 -7 -1 -20 5 -28 20 -32 31 6 28 96 l-3 89
-28 0 c-37 -1 -32 29 6 33 34 4 36 22 2 22 -15 0 -25 6 -25 14 0 11 -20 26
-34 26 -2 0 -1 -22 2 -50z m49 -92 c-3 -7 -5 -2 -5 12 0 14 2 19 5 13 2 -7 2
-19 0 -25z"/>
<path d="M578 3040 c3 -33 1 -50 -7 -50 -18 0 -13 -18 7 -23 16 -4 16 -5 0 -6
-10 0 -18 -5 -18 -11 0 -5 8 -10 18 -11 13 0 14 -2 2 -6 -8 -3 -18 -11 -22
-17 -4 -6 -8 6 -8 27 0 23 -5 37 -13 37 -9 0 -13 -25 -15 -90 -2 -58 1 -90 7
-90 6 0 11 18 11 40 0 22 4 40 10 40 5 0 6 -8 3 -17 -5 -12 -2 -15 9 -11 9 4
21 1 28 -5 10 -9 14 -9 17 1 7 19 25 14 19 -5 -8 -25 10 -51 24 -37 7 7 10 45
8 100 l-3 89 -28 0 c-37 -1 -32 29 6 33 34 4 36 22 2 22 -15 0 -25 6 -25 14 0
11 -20 26 -34 26 -2 0 -1 -22 2 -50z m49 -92 c-3 -7 -5 -2 -5 12 0 14 2 19 5
13 2 -7 2 -19 0 -25z"/>
<path d="M578 2590 c3 -33 1 -50 -7 -50 -18 0 -13 -18 7 -23 16 -4 16 -5 0 -6
-10 0 -18 -5 -18 -11 0 -5 8 -10 18 -11 13 0 14 -2 2 -6 -8 -3 -18 -11 -22
-17 -4 -6 -8 6 -8 27 0 23 -5 37 -13 37 -9 0 -13 -25 -15 -90 -2 -58 1 -90 7
-90 6 0 11 4 11 9 0 5 17 11 38 14 26 3 41 0 50 -11 23 -30 33 1 30 94 l-3 89
-28 0 c-37 -1 -32 29 6 33 34 4 36 22 2 22 -15 0 -25 6 -25 14 0 11 -20 26
-34 26 -2 0 -1 -22 2 -50z m49 -92 c-3 -7 -5 -2 -5 12 0 14 2 19 5 13 2 -7 2
-19 0 -25z m-74 -85 c-5 -12 -2 -15 10 -10 9 3 19 2 22 -3 4 -6 -5 -10 -19
-10 -19 0 -26 5 -26 20 0 11 4 20 10 20 5 0 6 -8 3 -17z"/>
<path d="M730 2183 c0 -10 -14 -42 -30 -72 -17 -30 -28 -57 -25 -59 16 -17
103 117 90 138 -10 17 -35 11 -35 -7z"/>
<path d="M578 2140 c3 -33 1 -50 -7 -50 -18 0 -13 -18 7 -23 16 -4 16 -5 0 -6
-10 0 -18 -5 -18 -11 0 -5 8 -10 18 -11 13 0 14 -2 2 -6 -8 -3 -18 -11 -22
-17 -4 -6 -8 6 -8 27 0 23 -5 37 -13 37 -9 0 -13 -25 -15 -90 -2 -58 1 -90 7
-90 6 0 11 4 11 9 0 5 17 11 38 14 26 3 41 0 50 -11 23 -30 33 1 30 94 l-3 89
-28 0 c-37 -1 -32 29 6 33 34 4 36 22 2 22 -15 0 -25 6 -25 14 0 11 -20 26
-34 26 -2 0 -1 -22 2 -50z m49 -92 c-3 -7 -5 -2 -5 12 0 14 2 19 5 13 2 -7 2
-19 0 -25z m-74 -85 c-5 -12 -2 -15 10 -10 9 3 19 2 22 -3 4 -6 -5 -10 -19
-10 -19 0 -26 5 -26 20 0 11 4 20 10 20 5 0 6 -8 3 -17z"/>
<path d="M730 1733 c0 -10 -14 -42 -30 -72 -17 -30 -27 -57 -24 -60 6 -6 51
42 70 74 9 17 14 14 44 -28 28 -40 38 -47 67 -47 41 0 43 14 4 29 -36 16 -96
77 -96 99 0 9 -8 18 -17 20 -12 2 -18 -3 -18 -15z"/>
<path d="M578 1690 c3 -33 1 -50 -7 -50 -18 0 -13 -18 7 -23 16 -4 16 -5 0 -6
-10 0 -18 -5 -18 -11 0 -5 8 -10 18 -11 13 0 14 -2 2 -6 -8 -3 -18 -11 -22
-17 -4 -6 -8 6 -8 27 0 23 -5 37 -13 37 -9 0 -13 -25 -15 -90 -2 -58 1 -90 7
-90 6 0 11 4 11 9 0 5 17 11 38 14 26 3 41 0 50 -11 23 -30 33 1 30 94 l-3 89
-28 0 c-37 -1 -32 29 6 33 34 4 36 22 2 22 -15 0 -25 6 -25 14 0 11 -20 26
-34 26 -2 0 -1 -22 2 -50z m49 -92 c-3 -7 -5 -2 -5 12 0 14 2 19 5 13 2 -7 2
-19 0 -25z m-74 -85 c-5 -12 -2 -15 10 -10 9 3 19 2 22 -3 4 -6 -5 -10 -19
-10 -19 0 -26 5 -26 20 0 11 4 20 10 20 5 0 6 -8 3 -17z"/>
<path d="M730 1283 c0 -10 -14 -42 -30 -72 -30 -55 -32 -70 -8 -55 7 4 27 7
45 5 19 -1 33 2 33 8 0 6 -11 11 -25 11 -25 0 -25 0 -10 30 9 17 17 30 20 30
2 0 18 -20 36 -45 27 -38 38 -45 66 -45 41 0 43 14 4 29 -36 16 -96 77 -96 99
0 9 -8 18 -17 20 -12 2 -18 -3 -18 -15z"/>
<path d="M578 1240 c3 -33 1 -50 -7 -50 -18 0 -13 -18 7 -23 16 -4 16 -5 0 -6
-10 0 -18 -5 -18 -11 0 -5 8 -10 18 -11 13 0 14 -2 2 -6 -8 -3 -18 -11 -22
-17 -4 -6 -8 6 -8 27 0 23 -5 37 -13 37 -9 0 -13 -25 -15 -90 -2 -58 1 -90 7
-90 6 0 11 4 11 9 0 5 17 11 38 14 26 3 41 0 50 -11 23 -30 33 1 30 94 l-3 89
-28 0 c-37 -1 -32 29 6 33 34 4 36 22 2 22 -15 0 -25 6 -25 14 0 11 -20 26
-34 26 -2 0 -1 -22 2 -50z m49 -92 c-3 -7 -5 -2 -5 12 0 14 2 19 5 13 2 -7 2
-19 0 -25z m-74 -85 c-5 -12 -2 -15 10 -10 9 3 19 2 22 -3 4 -6 -5 -10 -19
-10 -19 0 -26 5 -26 20 0 11 4 20 10 20 5 0 6 -8 3 -17z"/>
<path d="M730 833 c0 -10 -14 -42 -30 -72 -30 -55 -32 -70 -8 -55 7 4 27 7 45
5 19 -1 33 2 33 8 0 6 -11 11 -25 11 -25 0 -25 0 -10 30 9 17 17 30 20 30 2 0
18 -20 36 -45 27 -38 38 -45 66 -45 41 0 43 14 4 29 -36 16 -96 77 -96 99 0 9
-8 18 -17 20 -12 2 -18 -3 -18 -15z"/>
<path d="M578 790 c3 -33 1 -50 -7 -50 -18 0 -13 -18 7 -23 16 -4 16 -5 0 -6
-10 0 -18 -5 -18 -11 0 -5 8 -10 18 -11 13 0 14 -2 2 -6 -8 -3 -18 -11 -22
-17 -4 -6 -8 6 -8 27 0 23 -5 37 -13 37 -9 0 -13 -25 -15 -90 -2 -58 1 -90 7
-90 6 0 11 4 11 9 0 5 17 11 38 14 26 3 41 0 50 -11 23 -30 33 1 30 94 l-3 89
-28 0 c-37 -1 -32 29 6 33 34 4 36 22 2 22 -15 0 -25 6 -25 14 0 11 -20 26
-34 26 -2 0 -1 -22 2 -50z m49 -92 c-3 -7 -5 -2 -5 12 0 14 2 19 5 13 2 -7 2
-19 0 -25z m-74 -85 c-5 -12 -2 -15 10 -10 9 3 19 2 22 -3 4 -6 -5 -10 -19
-10 -19 0 -26 5 -26 20 0 11 4 20 10 20 5 0 6 -8 3 -17z"/>
<path d="M675 653 c8 -32 13 -39 21 -30 10 9 -5 57 -17 57 -7 0 -9 -10 -4 -27z"/>
<path d="M730 383 c0 -10 -14 -42 -30 -72 -30 -55 -32 -70 -8 -55 7 4 27 7 45
5 19 -1 33 2 33 8 0 6 -11 11 -25 11 -25 0 -25 0 -10 30 9 17 17 30 20 30 2 0
18 -20 36 -45 27 -38 38 -45 66 -45 41 0 43 14 4 29 -36 16 -96 77 -96 99 0 9
-8 18 -17 20 -12 2 -18 -3 -18 -15z"/>
<path d="M578 340 c3 -33 1 -50 -7 -50 -18 0 -13 -18 7 -23 16 -4 16 -5 0 -6
-10 0 -18 -5 -18 -11 0 -5 8 -10 18 -11 13 0 14 -2 2 -6 -8 -3 -18 -11 -22
-17 -4 -6 -8 6 -8 27 0 23 -5 37 -13 37 -9 0 -13 -25 -15 -90 -2 -58 1 -90 7
-90 6 0 11 4 11 9 0 5 17 11 38 14 26 3 41 0 50 -11 23 -30 33 1 30 94 l-3 89
-28 0 c-37 -1 -32 29 6 33 34 4 36 22 2 22 -15 0 -25 6 -25 14 0 11 -20 26
-34 26 -2 0 -1 -22 2 -50z m49 -92 c-3 -7 -5 -2 -5 12 0 14 2 19 5 13 2 -7 2
-19 0 -25z m-74 -85 c-5 -12 -2 -15 10 -10 9 3 19 2 22 -3 4 -6 -5 -10 -19
-10 -19 0 -26 5 -26 20 0 11 4 20 10 20 5 0 6 -8 3 -17z"/>
<path d="M710 215 c0 -16 6 -25 15 -25 9 0 15 9 15 25 0 16 -6 25 -15 25 -9 0
-15 -9 -15 -25z"/>
<path d="M674 208 c3 -13 6 -26 6 -30 0 -5 5 -8 10 -8 6 0 10 14 10 30 0 21
-5 30 -16 30 -12 0 -15 -6 -10 -22z"/>
</g>
</svg>
