<?xml version="1.0" standalone="no"?>
<!DOCTYPE svg PUBLIC "-//W3C//DTD SVG 20010904//EN"
 "http://www.w3.org/TR/2001/REC-SVG-20010904/DTD/svg10.dtd">
<svg version="1.0" xmlns="http://www.w3.org/2000/svg"
 width="50.000000pt" height="725.000000pt" viewBox="0 0 50.000000 725.000000"
 preserveAspectRatio="xMidYMid meet">
<metadata>
Created by potrace 1.16, written by Peter Selinger 2001-2019
</metadata>
<g transform="translate(0.000000,725.000000) scale(0.100000,-0.100000)"
fill="#000000" stroke="none">
<path d="M250 7174 c0 -16 23 -44 35 -44 20 0 19 36 -1 44 -20 8 -34 8 -34 0z"/>
<path d="M255 6711 c5 -16 -1 -20 -45 -26 -68 -9 -66 -29 3 -21 28 3 80 9 115
12 69 7 84 24 21 24 -23 0 -47 7 -55 15 -22 22 -47 19 -39 -4z"/>
<path d="M255 6261 c5 -16 -1 -20 -43 -26 l-49 -7 4 -42 c6 -49 -19 -156 -48
-205 -26 -44 -14 -55 17 -16 28 34 50 104 60 187 7 65 4 63 117 73 80 7 107
25 36 25 -23 0 -47 7 -55 15 -22 22 -47 19 -39 -4z"/>
<path d="M255 5811 c5 -16 -1 -20 -43 -26 l-49 -7 4 -42 c6 -49 -19 -156 -48
-205 -26 -44 -14 -55 17 -16 26 32 54 112 54 154 0 42 11 49 88 56 69 7 72 7
72 -14 0 -28 14 -27 30 4 21 39 5 47 -76 35 -87 -12 -104 -12 -104 -1 0 13 22
18 113 26 80 7 107 25 36 25 -23 0 -47 7 -55 15 -22 22 -47 19 -39 -4z"/>
<path d="M255 5361 c5 -16 -1 -20 -43 -26 l-49 -7 4 -42 c6 -49 -19 -156 -48
-205 -26 -44 -14 -55 17 -16 25 31 54 112 54 151 0 12 3 29 6 38 8 20 44 21
44 1 0 -22 17 -18 23 5 4 16 14 20 46 20 34 0 41 -3 41 -20 0 -27 14 -25 29 4
20 37 7 47 -55 40 -36 -5 -54 -3 -54 4 0 6 27 14 60 18 68 7 81 24 19 24 -23
0 -47 7 -55 15 -22 22 -47 19 -39 -4z m-15 -62 c0 -5 -9 -9 -20 -9 -22 0 -27
16 -7 23 15 5 27 -1 27 -14z"/>
<path d="M255 4911 c5 -16 -1 -20 -43 -26 l-49 -7 4 -42 c6 -49 -19 -156 -48
-205 -26 -44 -14 -55 17 -16 25 31 54 112 54 151 0 12 3 29 6 38 8 20 44 21
44 1 0 -22 17 -18 23 5 6 23 27 27 27 5 0 -8 4 -15 9 -15 5 0 11 7 15 15 8 22
36 18 36 -5 0 -27 14 -25 29 4 18 32 6 49 -30 42 -22 -4 -29 -2 -29 9 0 10 11
15 35 15 19 0 35 5 35 10 0 6 -18 10 -41 10 -23 0 -47 7 -55 15 -22 22 -47 19
-39 -4z m-15 -62 c0 -5 -9 -9 -20 -9 -22 0 -27 16 -7 23 15 5 27 -1 27 -14z
m50 11 c0 -5 -4 -10 -10 -10 -5 0 -10 5 -10 10 0 6 5 10 10 10 6 0 10 -4 10
-10z"/>
<path d="M255 4461 c5 -16 -1 -20 -43 -26 l-49 -7 4 -42 c6 -49 -19 -156 -48
-205 -26 -44 -14 -55 17 -16 24 29 54 111 54 146 0 20 38 29 120 29 50 0 58 3
69 24 18 32 6 49 -30 42 -22 -4 -29 -2 -29 9 0 10 11 15 35 15 19 0 35 5 35
10 0 6 -18 10 -41 10 -23 0 -47 7 -55 15 -22 22 -47 19 -39 -4z m-15 -62 c0
-5 -9 -9 -20 -9 -22 0 -27 16 -7 23 15 5 27 -1 27 -14z m50 11 c0 -5 -4 -10
-10 -10 -5 0 -10 5 -10 10 0 6 5 10 10 10 6 0 10 -4 10 -10z m0 -40 c0 -5 -7
-10 -16 -10 -8 0 -12 5 -9 10 3 6 10 10 16 10 5 0 9 -4 9 -10z m57 4 c-3 -3
-12 -4 -19 -1 -8 3 -5 6 6 6 11 1 17 -2 13 -5z m-117 -14 c-19 -13 -30 -13
-30 0 0 6 10 10 23 10 18 0 19 -2 7 -10z"/>
<path d="M255 4011 c5 -16 -1 -20 -43 -26 l-49 -7 4 -42 c6 -49 -19 -156 -48
-205 -26 -44 -14 -55 17 -16 24 29 54 111 54 146 0 20 38 29 120 29 50 0 58 3
69 24 18 32 6 49 -30 42 -22 -4 -29 -2 -29 9 0 10 11 15 35 15 19 0 35 5 35
10 0 6 -18 10 -41 10 -23 0 -47 7 -55 15 -22 22 -47 19 -39 -4z m-15 -62 c0
-5 -9 -9 -20 -9 -22 0 -27 16 -7 23 15 5 27 -1 27 -14z m50 11 c0 -5 -4 -10
-10 -10 -5 0 -10 5 -10 10 0 6 5 10 10 10 6 0 10 -4 10 -10z m0 -40 c0 -5 -7
-10 -16 -10 -8 0 -12 5 -9 10 3 6 10 10 16 10 5 0 9 -4 9 -10z m57 4 c-3 -3
-12 -4 -19 -1 -8 3 -5 6 6 6 11 1 17 -2 13 -5z m-117 -14 c-19 -13 -30 -13
-30 0 0 6 10 10 23 10 18 0 19 -2 7 -10z"/>
<path d="M230 3860 c0 -5 9 -10 20 -10 11 0 20 5 20 10 0 6 -9 10 -20 10 -11
0 -20 -4 -20 -10z"/>
<path d="M255 3561 c5 -16 -1 -20 -43 -26 l-49 -7 4 -42 c6 -49 -19 -156 -48
-205 -26 -44 -14 -55 17 -16 24 30 54 111 54 147 0 10 5 18 10 18 6 0 10 -20
10 -45 0 -50 5 -53 38 -26 27 24 28 34 2 26 -11 -4 -20 -2 -20 4 0 6 9 11 20
11 11 0 20 5 20 10 0 6 -9 10 -20 10 -11 0 -20 5 -20 10 0 6 29 10 68 10 62 0
70 2 81 24 18 32 6 49 -30 42 -22 -4 -29 -2 -29 9 0 10 11 15 35 15 19 0 35 5
35 10 0 6 -18 10 -41 10 -23 0 -47 7 -55 15 -22 22 -47 19 -39 -4z m-15 -62
c0 -5 -9 -9 -20 -9 -22 0 -27 16 -7 23 15 5 27 -1 27 -14z m50 11 c0 -5 -4
-10 -10 -10 -5 0 -10 5 -10 10 0 6 5 10 10 10 6 0 10 -4 10 -10z m0 -40 c0 -5
-7 -10 -16 -10 -8 0 -12 5 -9 10 3 6 10 10 16 10 5 0 9 -4 9 -10z m57 4 c-3
-3 -12 -4 -19 -1 -8 3 -5 6 6 6 11 1 17 -2 13 -5z m-117 -14 c-19 -13 -30 -13
-30 0 0 6 10 10 23 10 18 0 19 -2 7 -10z"/>
<path d="M255 3111 c5 -16 -1 -20 -43 -26 l-49 -7 4 -42 c6 -49 -19 -156 -48
-205 -26 -44 -14 -55 17 -16 24 30 54 111 54 147 0 10 5 18 10 18 6 0 10 -20
10 -45 0 -50 5 -53 38 -26 27 24 28 34 2 26 -11 -4 -20 -2 -20 4 0 6 9 11 20
11 11 0 20 5 20 10 0 6 -9 10 -20 10 -11 0 -20 5 -20 10 0 6 29 10 68 10 62 0
70 2 81 24 18 32 6 49 -30 42 -22 -4 -29 -2 -29 9 0 10 11 15 35 15 19 0 35 5
35 10 0 6 -18 10 -41 10 -23 0 -47 7 -55 15 -22 22 -47 19 -39 -4z m-15 -62
c0 -5 -9 -9 -20 -9 -22 0 -27 16 -7 23 15 5 27 -1 27 -14z m50 11 c0 -5 -4
-10 -10 -10 -5 0 -10 5 -10 10 0 6 5 10 10 10 6 0 10 -4 10 -10z m0 -40 c0 -5
-7 -10 -16 -10 -8 0 -12 5 -9 10 3 6 10 10 16 10 5 0 9 -4 9 -10z m57 4 c-3
-3 -12 -4 -19 -1 -8 3 -5 6 6 6 11 1 17 -2 13 -5z m-117 -14 c-19 -13 -30 -13
-30 0 0 6 10 10 23 10 18 0 19 -2 7 -10z"/>
<path d="M333 2973 c-28 -5 -30 -23 -4 -23 26 0 51 10 51 21 0 9 -8 10 -47 2z"/>
<path d="M255 2661 c5 -16 -1 -20 -43 -26 l-49 -7 4 -42 c6 -49 -19 -156 -48
-205 -26 -44 -14 -55 17 -16 24 30 54 111 54 147 0 10 5 18 10 18 6 0 10 -20
10 -45 0 -50 5 -53 38 -26 27 24 28 34 2 26 -11 -4 -20 -2 -20 4 0 6 9 11 20
11 11 0 20 5 20 10 0 6 -9 10 -20 10 -11 0 -20 5 -20 10 0 6 13 10 29 10 30 0
41 -14 41 -55 0 -27 25 -36 76 -28 25 4 34 11 34 24 0 20 -15 25 -25 9 -8 -12
-65 -13 -65 -1 0 5 14 11 30 15 17 3 30 10 30 17 0 7 -11 8 -30 4 -19 -4 -30
-3 -30 4 0 6 10 11 23 11 15 0 29 9 36 24 18 32 6 49 -30 42 -22 -4 -29 -2
-29 9 0 10 11 15 35 15 19 0 35 5 35 10 0 6 -18 10 -41 10 -23 0 -47 7 -55 15
-22 22 -47 19 -39 -4z m-15 -62 c0 -5 -9 -9 -20 -9 -22 0 -27 16 -7 23 15 5
27 -1 27 -14z m50 11 c0 -5 -4 -10 -10 -10 -5 0 -10 5 -10 10 0 6 5 10 10 10
6 0 10 -4 10 -10z m0 -40 c0 -5 -7 -10 -16 -10 -8 0 -12 5 -9 10 3 6 10 10 16
10 5 0 9 -4 9 -10z m57 4 c-3 -3 -12 -4 -19 -1 -8 3 -5 6 6 6 11 1 17 -2 13
-5z m-117 -14 c-19 -13 -30 -13 -30 0 0 6 10 10 23 10 18 0 19 -2 7 -10z"/>
<path d="M255 2211 c5 -16 -1 -20 -43 -26 l-49 -7 4 -42 c6 -49 -19 -156 -48
-205 -26 -44 -14 -55 17 -16 24 30 54 111 54 147 0 10 5 18 10 18 6 0 10 -20
10 -45 0 -50 5 -53 38 -26 27 24 28 34 2 26 -11 -4 -20 -2 -20 4 0 6 9 11 20
11 11 0 20 5 20 10 0 6 -9 10 -20 10 -11 0 -20 5 -20 10 0 6 13 10 30 10 23 0
31 -5 36 -25 9 -35 -2 -55 -36 -68 -28 -11 -41 -27 -21 -27 5 0 38 9 73 20 34
11 71 20 81 20 10 0 17 8 17 20 0 21 -15 27 -25 10 -8 -12 -65 -13 -65 -1 0 5
14 11 30 15 17 3 30 10 30 17 0 7 -11 8 -30 4 -19 -4 -30 -3 -30 4 0 6 10 11
23 11 15 0 29 9 36 24 18 32 6 49 -30 42 -22 -4 -29 -2 -29 9 0 10 11 15 35
15 19 0 35 5 35 10 0 6 -18 10 -41 10 -23 0 -47 7 -55 15 -22 22 -47 19 -39
-4z m-15 -62 c0 -5 -9 -9 -20 -9 -22 0 -27 16 -7 23 15 5 27 -1 27 -14z m50
11 c0 -5 -4 -10 -10 -10 -5 0 -10 5 -10 10 0 6 5 10 10 10 6 0 10 -4 10 -10z
m0 -40 c0 -5 -7 -10 -16 -10 -8 0 -12 5 -9 10 3 6 10 10 16 10 5 0 9 -4 9 -10z
m57 4 c-3 -3 -12 -4 -19 -1 -8 3 -5 6 6 6 11 1 17 -2 13 -5z m-117 -14 c-19
-13 -30 -13 -30 0 0 6 10 10 23 10 18 0 19 -2 7 -10z"/>
<path d="M255 1761 c5 -16 -1 -20 -43 -26 l-49 -7 4 -42 c6 -49 -19 -156 -48
-205 -26 -44 -14 -55 17 -16 24 30 54 111 54 147 0 10 5 18 10 18 6 0 10 -20
10 -45 0 -50 5 -53 38 -26 27 24 28 34 2 26 -11 -4 -20 -2 -20 4 0 6 9 11 20
11 11 0 20 5 20 10 0 6 -9 10 -20 10 -11 0 -20 5 -20 10 0 6 13 10 30 10 23 0
31 -5 36 -25 9 -35 -2 -55 -36 -68 -28 -11 -41 -27 -21 -27 5 0 38 9 73 20 34
11 71 20 81 20 10 0 17 8 17 20 0 21 -15 27 -25 10 -8 -12 -65 -13 -65 -1 0 5
14 11 30 15 17 3 30 10 30 17 0 7 -11 8 -30 4 -19 -4 -30 -3 -30 4 0 6 10 11
23 11 15 0 29 9 36 24 18 32 6 49 -30 42 -22 -4 -29 -2 -29 9 0 10 11 15 35
15 19 0 35 5 35 10 0 6 -18 10 -41 10 -23 0 -47 7 -55 15 -22 22 -47 19 -39
-4z m-15 -62 c0 -5 -9 -9 -20 -9 -22 0 -27 16 -7 23 15 5 27 -1 27 -14z m50
11 c0 -5 -4 -10 -10 -10 -5 0 -10 5 -10 10 0 6 5 10 10 10 6 0 10 -4 10 -10z
m0 -40 c0 -5 -7 -10 -16 -10 -8 0 -12 5 -9 10 3 6 10 10 16 10 5 0 9 -4 9 -10z
m57 4 c-3 -3 -12 -4 -19 -1 -8 3 -5 6 6 6 11 1 17 -2 13 -5z m-117 -14 c-19
-13 -30 -13 -30 0 0 6 10 10 23 10 18 0 19 -2 7 -10z"/>
<path d="M253 1511 c-51 -6 -72 -15 -61 -26 3 -3 34 -1 69 5 35 5 81 10 102
10 20 0 37 5 37 10 0 11 -63 11 -147 1z"/>
<path d="M255 1311 c5 -16 -1 -20 -43 -26 l-49 -7 4 -42 c6 -49 -19 -156 -48
-205 -26 -44 -14 -55 17 -16 24 30 54 111 54 147 0 10 5 18 10 18 6 0 10 -20
10 -45 0 -50 5 -53 38 -26 27 24 28 34 2 26 -11 -4 -20 -2 -20 4 0 6 9 11 20
11 11 0 20 5 20 10 0 6 -9 10 -20 10 -11 0 -20 5 -20 10 0 6 13 10 30 10 23 0
31 -5 36 -25 9 -35 -2 -55 -36 -68 -33 -13 -42 -32 -10 -24 11 3 23 1 26 -4 3
-5 -8 -9 -25 -9 -36 0 -61 -9 -61 -22 0 -5 18 -6 45 -2 l45 6 0 -41 c0 -54 18
-53 22 2 l3 42 48 3 c63 4 61 22 -3 22 -27 0 -50 4 -50 8 0 9 67 32 94 32 9 0
16 8 16 20 0 21 -15 27 -25 10 -8 -12 -65 -13 -65 -1 0 5 14 11 30 15 17 3 30
10 30 17 0 7 -11 8 -30 4 -19 -4 -30 -3 -30 4 0 6 10 11 23 11 15 0 29 9 36
24 18 32 6 49 -30 42 -22 -4 -29 -2 -29 9 0 10 11 15 35 15 19 0 35 5 35 10 0
6 -18 10 -41 10 -23 0 -47 7 -55 15 -22 22 -47 19 -39 -4z m-15 -62 c0 -5 -9
-9 -20 -9 -22 0 -27 16 -7 23 15 5 27 -1 27 -14z m50 11 c0 -5 -4 -10 -10 -10
-5 0 -10 5 -10 10 0 6 5 10 10 10 6 0 10 -4 10 -10z m0 -40 c0 -5 -7 -10 -16
-10 -8 0 -12 5 -9 10 3 6 10 10 16 10 5 0 9 -4 9 -10z m57 4 c-3 -3 -12 -4
-19 -1 -8 3 -5 6 6 6 11 1 17 -2 13 -5z m-117 -14 c-19 -13 -30 -13 -30 0 0 6
10 10 23 10 18 0 19 -2 7 -10z"/>
<path d="M255 861 c5 -16 -1 -20 -43 -26 l-49 -7 4 -42 c6 -49 -19 -156 -48
-205 -26 -44 -14 -55 17 -16 24 30 54 111 54 147 0 10 5 18 10 18 6 0 10 -20
10 -45 0 -50 5 -53 38 -26 27 24 28 34 2 26 -11 -4 -20 -2 -20 4 0 6 9 11 20
11 11 0 20 5 20 10 0 6 -9 10 -20 10 -11 0 -20 5 -20 10 0 6 13 10 30 10 23 0
31 -5 36 -25 9 -35 -2 -55 -36 -68 -33 -13 -42 -32 -10 -24 11 3 23 1 26 -4 3
-5 -8 -9 -25 -9 -36 0 -61 -9 -61 -22 0 -5 18 -6 45 -2 l45 6 0 -41 c0 -54 18
-53 22 2 l3 42 48 3 c63 4 61 22 -3 22 -27 0 -50 4 -50 8 0 9 67 32 94 32 9 0
16 8 16 20 0 21 -15 27 -25 10 -8 -12 -65 -13 -65 -1 0 5 14 11 30 15 17 3 30
10 30 17 0 7 -11 8 -30 4 -19 -4 -30 -3 -30 4 0 6 10 11 23 11 15 0 29 9 36
24 18 32 6 49 -30 42 -22 -4 -29 -2 -29 9 0 10 11 15 35 15 19 0 35 5 35 10 0
6 -18 10 -41 10 -23 0 -47 7 -55 15 -22 22 -47 19 -39 -4z m-15 -62 c0 -5 -9
-9 -20 -9 -22 0 -27 16 -7 23 15 5 27 -1 27 -14z m50 11 c0 -5 -4 -10 -10 -10
-5 0 -10 5 -10 10 0 6 5 10 10 10 6 0 10 -4 10 -10z m0 -40 c0 -5 -7 -10 -16
-10 -8 0 -12 5 -9 10 3 6 10 10 16 10 5 0 9 -4 9 -10z m57 4 c-3 -3 -12 -4
-19 -1 -8 3 -5 6 6 6 11 1 17 -2 13 -5z m-117 -14 c-19 -13 -30 -13 -30 0 0 6
10 10 23 10 18 0 19 -2 7 -10z"/>
<path d="M210 555 c-13 -14 -21 -28 -18 -31 10 -9 68 26 68 41 0 23 -24 18
-50 -10z"/>
<path d="M255 411 c5 -16 -1 -20 -43 -26 l-49 -7 4 -42 c6 -49 -19 -156 -48
-205 -26 -44 -14 -55 17 -16 24 30 54 111 54 147 0 10 5 18 10 18 6 0 10 -20
10 -45 0 -50 5 -53 38 -26 27 24 28 34 2 26 -11 -4 -20 -2 -20 4 0 6 9 11 20
11 11 0 20 5 20 10 0 6 -9 10 -20 10 -11 0 -20 5 -20 10 0 6 13 10 30 10 23 0
31 -5 36 -25 9 -35 -2 -55 -36 -68 -33 -13 -42 -32 -10 -24 11 3 23 1 26 -4 3
-5 -8 -9 -25 -9 -36 0 -61 -9 -61 -22 0 -5 18 -6 45 -2 l45 6 0 -41 c0 -54 18
-53 22 2 l3 42 48 3 c63 4 61 22 -3 22 -27 0 -50 4 -50 8 0 9 67 32 94 32 9 0
16 8 16 20 0 21 -15 27 -25 10 -8 -12 -65 -13 -65 -1 0 5 14 11 30 15 17 3 30
10 30 17 0 7 -11 8 -30 4 -19 -4 -30 -3 -30 4 0 6 10 11 23 11 15 0 29 9 36
24 18 32 6 49 -30 42 -22 -4 -29 -2 -29 9 0 10 11 15 35 15 19 0 35 5 35 10 0
6 -18 10 -41 10 -23 0 -47 7 -55 15 -22 22 -47 19 -39 -4z m-15 -62 c0 -5 -9
-9 -20 -9 -22 0 -27 16 -7 23 15 5 27 -1 27 -14z m50 11 c0 -5 -4 -10 -10 -10
-5 0 -10 5 -10 10 0 6 5 10 10 10 6 0 10 -4 10 -10z m0 -40 c0 -5 -7 -10 -16
-10 -8 0 -12 5 -9 10 3 6 10 10 16 10 5 0 9 -4 9 -10z m57 4 c-3 -3 -12 -4
-19 -1 -8 3 -5 6 6 6 11 1 17 -2 13 -5z m-117 -14 c-19 -13 -30 -13 -30 0 0 6
10 10 23 10 18 0 19 -2 7 -10z"/>
<path d="M210 105 c-13 -14 -21 -28 -18 -31 10 -9 68 26 68 41 0 23 -24 18
-50 -10z"/>
<path d="M330 122 c0 -8 54 -52 65 -52 3 0 5 9 5 20 0 13 -10 24 -26 30 -31
12 -44 13 -44 2z"/>
</g>
</svg>
