<?xml version="1.0" standalone="no"?>
<!DOCTYPE svg PUBLIC "-//W3C//DTD SVG 20010904//EN"
 "http://www.w3.org/TR/2001/REC-SVG-20010904/DTD/svg10.dtd">
<svg version="1.0" xmlns="http://www.w3.org/2000/svg"
 width="50.000000pt" height="725.000000pt" viewBox="0 0 50.000000 725.000000"
 preserveAspectRatio="xMidYMid meet">
<metadata>
Created by potrace 1.16, written by Peter Selinger 2001-2019
</metadata>
<g transform="translate(0.000000,725.000000) scale(0.100000,-0.100000)"
fill="#000000" stroke="none">
<path d="M143 7103 c-40 -8 -26 -26 15 -19 20 3 45 6 55 6 9 0 17 5 17 10 0
10 -44 11 -87 3z"/>
<path d="M162 6689 c2 -29 0 -34 -19 -37 -31 -5 -29 -22 2 -22 20 0 25 -5 25
-25 0 -14 5 -25 10 -25 6 0 10 14 10 30 0 23 4 30 20 30 11 0 20 5 20 10 0 6
-9 10 -19 10 -14 0 -21 8 -23 27 -5 41 -30 43 -26 2z"/>
<path d="M162 6239 c2 -29 0 -34 -19 -37 -16 -2 -23 -10 -23 -26 0 -12 -5 -27
-12 -34 -6 -6 -9 -15 -5 -18 10 -11 48 28 43 43 -3 7 1 13 9 13 9 0 15 -10 15
-25 0 -14 5 -25 10 -25 6 0 10 14 10 30 0 23 4 30 20 30 11 0 20 5 20 10 0 6
-9 10 -19 10 -14 0 -21 8 -23 27 -5 41 -30 43 -26 2z"/>
<path d="M162 5789 c2 -29 0 -34 -19 -37 -17 -2 -23 -10 -23 -27 0 -13 -4 -27
-10 -30 -17 -11 -11 -23 16 -29 30 -8 39 -3 28 16 -13 21 -12 48 3 48 7 0 13
-11 13 -25 0 -14 5 -25 10 -25 6 0 10 14 10 30 0 23 4 30 20 30 11 0 20 5 20
10 0 6 -9 10 -19 10 -14 0 -21 8 -23 27 -5 41 -30 43 -26 2z"/>
<path d="M162 5339 c2 -29 0 -34 -19 -37 -17 -2 -23 -10 -23 -27 0 -13 -4 -27
-10 -30 -17 -11 -11 -23 16 -29 30 -8 39 -3 28 16 -13 21 -12 48 3 48 7 0 13
-11 13 -25 0 -31 29 -34 54 -6 22 24 13 61 -14 61 -13 0 -20 8 -22 27 -5 41
-30 43 -26 2z m48 -63 c0 -8 -4 -18 -10 -21 -5 -3 -10 3 -10 14 0 12 5 21 10
21 6 0 10 -6 10 -14z"/>
<path d="M162 4889 c2 -29 0 -34 -19 -37 -17 -2 -23 -10 -23 -27 0 -13 -4 -27
-10 -30 -17 -11 -11 -23 16 -29 30 -8 39 -3 28 16 -13 21 -12 48 3 48 7 0 13
-11 13 -26 0 -23 3 -26 25 -22 14 3 25 1 25 -3 0 -5 7 -9 15 -9 17 0 20 16 5
25 -6 4 -8 11 -5 16 11 17 -6 49 -25 49 -13 0 -20 8 -22 27 -5 41 -30 43 -26
2z m48 -63 c0 -8 -4 -18 -10 -21 -5 -3 -10 3 -10 14 0 12 5 21 10 21 6 0 10
-6 10 -14z"/>
<path d="M162 4439 c2 -29 0 -34 -19 -37 -17 -2 -23 -10 -23 -27 0 -13 -4 -27
-10 -30 -17 -10 -11 -22 13 -29 21 -6 21 -7 -12 -36 -19 -16 -32 -32 -29 -36
10 -10 62 22 97 62 20 21 37 32 39 26 4 -14 32 -16 32 -3 0 6 -5 13 -10 16 -6
4 -8 11 -5 16 11 17 -6 49 -25 49 -13 0 -20 8 -22 27 -5 41 -30 43 -26 2z m48
-63 c0 -8 -4 -18 -10 -21 -5 -3 -10 3 -10 14 0 12 5 21 10 21 6 0 10 -6 10
-14z m-40 -22 c0 -15 -5 -24 -12 -22 -16 6 -18 48 -1 48 7 0 13 -11 13 -26z"/>
<path d="M162 3989 c2 -29 0 -34 -19 -37 -17 -2 -23 -10 -23 -27 0 -13 -4 -27
-10 -30 -17 -10 -11 -22 13 -29 21 -6 21 -7 -12 -36 -19 -16 -32 -32 -29 -36
8 -7 61 20 77 40 17 20 35 20 51 1 16 -19 30 -19 30 0 0 8 -12 21 -26 28 -22
11 -24 15 -10 20 9 4 16 2 16 -3 0 -6 7 -10 15 -10 17 0 20 16 5 25 -6 4 -8
11 -5 16 11 17 -6 49 -25 49 -13 0 -20 8 -22 27 -5 41 -30 43 -26 2z m48 -63
c0 -8 -4 -18 -10 -21 -5 -3 -10 3 -10 14 0 12 5 21 10 21 6 0 10 -6 10 -14z
m-40 -22 c0 -15 -5 -24 -12 -22 -16 6 -18 48 -1 48 7 0 13 -11 13 -26z"/>
<path d="M162 3539 c2 -29 0 -34 -19 -37 -17 -2 -23 -10 -23 -27 0 -13 -4 -27
-10 -30 -17 -10 -11 -22 13 -29 21 -6 21 -7 -12 -36 -42 -35 -36 -48 11 -24
l33 17 -24 -27 c-34 -36 -19 -43 23 -11 39 30 42 35 24 53 -9 9 -8 12 4 12 8
0 21 -7 28 -15 16 -19 30 -19 30 0 0 8 -12 21 -26 28 -22 11 -24 15 -10 20 9
4 16 2 16 -3 0 -6 7 -10 15 -10 17 0 20 16 5 25 -6 4 -8 11 -5 16 11 17 -6 49
-25 49 -13 0 -20 8 -22 27 -5 41 -30 43 -26 2z m48 -63 c0 -8 -4 -18 -10 -21
-5 -3 -10 3 -10 14 0 12 5 21 10 21 6 0 10 -6 10 -14z m-40 -22 c0 -15 -5 -24
-12 -22 -16 6 -18 48 -1 48 7 0 13 -11 13 -26z"/>
<path d="M162 3089 c2 -29 0 -34 -19 -37 -17 -2 -23 -10 -23 -27 0 -13 -4 -27
-10 -30 -17 -10 -11 -22 13 -29 21 -6 21 -7 -12 -36 -42 -35 -36 -48 11 -24
l33 17 -24 -27 c-32 -34 -21 -44 18 -15 51 38 49 10 -3 -37 -55 -50 -55 -68
-1 -34 42 26 81 74 90 112 6 22 2 29 -20 41 -22 11 -24 15 -11 20 9 4 16 2 16
-3 0 -6 7 -10 15 -10 17 0 20 16 5 25 -6 4 -8 11 -5 16 11 17 -6 49 -25 49
-13 0 -20 8 -22 27 -5 41 -30 43 -26 2z m48 -63 c0 -8 -4 -18 -10 -21 -5 -3
-10 3 -10 14 0 12 5 21 10 21 6 0 10 -6 10 -14z m-40 -22 c0 -15 -5 -24 -12
-22 -16 6 -18 48 -1 48 7 0 13 -11 13 -26z m40 -69 c10 -12 10 -15 -3 -15 -8
0 -20 7 -27 15 -10 12 -10 15 3 15 8 0 20 -7 27 -15z"/>
<path d="M162 2639 c2 -29 0 -34 -19 -37 -17 -2 -23 -10 -23 -27 0 -13 -4 -27
-10 -30 -17 -10 -11 -22 13 -29 21 -6 21 -7 -12 -36 -42 -35 -36 -48 11 -24
l33 17 -22 -25 c-26 -27 -29 -40 -10 -37 38 5 40 -4 8 -31 -45 -39 -32 -50 18
-17 l40 27 74 -36 c69 -33 78 -34 116 -24 57 15 55 40 -2 40 -43 0 -145 25
-160 39 -4 4 -1 21 8 37 21 40 19 51 -11 67 -22 11 -24 15 -10 20 9 4 16 2 16
-3 0 -6 7 -10 15 -10 17 0 20 16 5 25 -6 4 -8 11 -5 16 11 17 -6 49 -25 49
-13 0 -20 8 -22 27 -5 41 -30 43 -26 2z m48 -63 c0 -8 -4 -18 -10 -21 -5 -3
-10 3 -10 14 0 12 5 21 10 21 6 0 10 -6 10 -14z m-40 -22 c0 -15 -5 -24 -12
-22 -16 6 -18 48 -1 48 7 0 13 -11 13 -26z m40 -69 c10 -12 10 -15 -3 -15 -8
0 -20 7 -27 15 -10 12 -10 15 3 15 8 0 20 -7 27 -15z m-20 -45 c0 -5 -10 -10
-22 -10 -19 0 -20 2 -8 10 19 13 30 13 30 0z"/>
<path d="M162 2189 c2 -29 0 -34 -19 -37 -17 -2 -23 -10 -23 -27 0 -13 -4 -27
-10 -30 -17 -10 -11 -22 13 -29 21 -6 21 -7 -12 -36 -42 -35 -36 -48 11 -24
l33 17 -22 -25 c-26 -27 -29 -40 -10 -37 38 5 40 -4 8 -31 -45 -39 -32 -50 18
-17 l40 27 74 -36 c69 -33 78 -34 116 -24 57 15 55 40 -2 40 -43 0 -145 25
-160 39 -4 4 -1 21 8 37 21 40 19 51 -11 67 -22 11 -24 15 -10 20 9 4 16 2 16
-3 0 -6 7 -10 15 -10 17 0 20 16 5 25 -6 4 -8 11 -5 16 11 17 -6 49 -25 49
-13 0 -20 8 -22 27 -5 41 -30 43 -26 2z m48 -63 c0 -8 -4 -18 -10 -21 -5 -3
-10 3 -10 14 0 12 5 21 10 21 6 0 10 -6 10 -14z m-40 -22 c0 -15 -5 -24 -12
-22 -16 6 -18 48 -1 48 7 0 13 -11 13 -26z m40 -69 c10 -12 10 -15 -3 -15 -8
0 -20 7 -27 15 -10 12 -10 15 3 15 8 0 20 -7 27 -15z m-20 -45 c0 -5 -10 -10
-22 -10 -19 0 -20 2 -8 10 19 13 30 13 30 0z"/>
<path d="M283 2113 c-27 -5 -31 -23 -5 -23 37 0 92 13 92 21 0 9 -46 10 -87 2z"/>
<path d="M162 1739 c2 -29 0 -34 -19 -37 -17 -2 -23 -10 -23 -27 0 -13 -4 -27
-10 -30 -17 -10 -11 -22 13 -29 21 -6 21 -7 -12 -36 -42 -35 -36 -48 11 -24
l33 17 -22 -25 c-26 -27 -29 -40 -10 -37 38 5 40 -4 8 -31 -45 -39 -32 -50 18
-17 l40 27 74 -36 c69 -33 78 -34 116 -24 57 15 55 40 -2 40 -43 0 -145 25
-160 39 -4 4 0 21 8 38 14 28 22 32 86 41 39 6 74 13 77 16 14 15 -13 17 -77
6 -57 -9 -74 -9 -96 3 -22 11 -24 15 -11 20 9 4 16 2 16 -3 0 -6 7 -10 15 -10
17 0 20 16 5 25 -6 4 -8 11 -5 16 11 17 -6 49 -25 49 -13 0 -20 8 -22 27 -5
41 -30 43 -26 2z m48 -63 c0 -8 -4 -18 -10 -21 -5 -3 -10 3 -10 14 0 12 5 21
10 21 6 0 10 -6 10 -14z m-40 -22 c0 -15 -5 -24 -12 -22 -16 6 -18 48 -1 48 7
0 13 -11 13 -26z m40 -69 c10 -12 10 -15 -3 -15 -8 0 -20 7 -27 15 -10 12 -10
15 3 15 8 0 20 -7 27 -15z m-20 -45 c0 -5 -10 -10 -22 -10 -19 0 -20 2 -8 10
19 13 30 13 30 0z"/>
<path d="M283 1663 c-27 -5 -31 -23 -5 -23 37 0 92 13 92 21 0 9 -46 10 -87 2z"/>
<path d="M162 1289 c2 -29 0 -34 -19 -37 -17 -2 -23 -10 -23 -27 0 -13 -4 -27
-10 -30 -17 -10 -11 -22 13 -29 21 -6 21 -7 -12 -36 -42 -35 -36 -48 11 -24
l33 17 -22 -25 c-26 -27 -29 -40 -10 -37 38 5 40 -4 8 -31 -45 -39 -32 -50 18
-17 l40 27 74 -36 c69 -33 78 -34 116 -24 57 15 55 40 -2 40 -43 0 -145 25
-160 39 -4 4 0 22 9 39 11 23 22 32 41 32 25 0 25 -1 9 -25 -19 -30 -20 -35
-3 -35 7 0 21 15 29 34 13 26 25 35 52 40 48 9 48 31 0 23 -29 -5 -35 -3 -32
11 2 9 13 18 26 20 27 4 29 22 2 22 -17 0 -20 7 -20 39 0 34 -12 51 -35 51 -2
0 -1 -22 2 -50 5 -46 4 -50 -16 -50 -11 0 -21 -4 -21 -10 0 -5 9 -10 20 -10
29 0 25 -28 -5 -36 -31 -8 -93 15 -73 27 7 5 14 4 16 -1 5 -13 32 -13 32 -1 0
6 -5 13 -10 16 -6 4 -8 11 -5 16 11 17 -6 49 -25 49 -13 0 -20 8 -22 27 -5 41
-30 43 -26 2z m48 -63 c0 -8 -4 -18 -10 -21 -5 -3 -10 3 -10 14 0 12 5 21 10
21 6 0 10 -6 10 -14z m-40 -22 c0 -15 -5 -24 -12 -22 -16 6 -18 48 -1 48 7 0
13 -11 13 -26z m40 -69 c10 -12 10 -15 -3 -15 -8 0 -20 7 -27 15 -10 12 -10
15 3 15 8 0 20 -7 27 -15z m-20 -45 c0 -5 -10 -10 -22 -10 -19 0 -20 2 -8 10
19 13 30 13 30 0z"/>
<path d="M162 839 c2 -29 0 -34 -19 -37 -17 -2 -23 -10 -23 -27 0 -13 -4 -27
-10 -30 -17 -10 -11 -22 13 -29 21 -6 21 -7 -12 -36 -42 -35 -36 -48 11 -24
l33 17 -22 -25 c-26 -27 -29 -40 -10 -37 38 5 40 -4 8 -31 -45 -39 -32 -50 18
-17 l40 27 74 -36 c69 -33 78 -34 116 -24 57 15 55 40 -2 40 -43 0 -145 25
-160 39 -4 4 0 22 9 39 11 23 22 32 41 32 25 0 25 -1 9 -25 -20 -30 -20 -35
-2 -35 8 0 18 9 21 20 9 27 16 25 50 -10 34 -35 45 -38 45 -10 0 13 -14 29
-37 43 l-37 21 37 9 c48 12 49 32 1 24 -29 -5 -35 -3 -32 11 2 9 13 18 26 20
27 4 29 22 2 22 -17 0 -20 7 -20 39 0 34 -12 51 -35 51 -2 0 -1 -22 2 -50 5
-46 4 -50 -16 -50 -11 0 -21 -4 -21 -10 0 -5 9 -10 20 -10 29 0 25 -28 -5 -36
-31 -8 -93 15 -73 27 7 5 14 4 16 -1 5 -13 32 -13 32 -1 0 6 -5 13 -10 16 -6
4 -8 11 -5 16 11 17 -6 49 -25 49 -13 0 -20 8 -22 27 -5 41 -30 43 -26 2z m48
-63 c0 -8 -4 -18 -10 -21 -5 -3 -10 3 -10 14 0 12 5 21 10 21 6 0 10 -6 10
-14z m-40 -22 c0 -15 -5 -24 -12 -22 -16 6 -18 48 -1 48 7 0 13 -11 13 -26z
m40 -69 c10 -12 10 -15 -3 -15 -8 0 -20 7 -27 15 -10 12 -10 15 3 15 8 0 20
-7 27 -15z m-20 -45 c0 -5 -10 -10 -22 -10 -19 0 -20 2 -8 10 19 13 30 13 30
0z"/>
</g>
</svg>
