<?xml version="1.0" standalone="no"?>
<!DOCTYPE svg PUBLIC "-//W3C//DTD SVG 20010904//EN"
 "http://www.w3.org/TR/2001/REC-SVG-20010904/DTD/svg10.dtd">
<svg version="1.0" xmlns="http://www.w3.org/2000/svg"
 width="95.000000pt" height="725.000000pt" viewBox="0 0 95.000000 725.000000"
 preserveAspectRatio="xMidYMid meet">
<metadata>
Created by potrace 1.16, written by Peter Selinger 2001-2019
</metadata>
<g transform="translate(0.000000,725.000000) scale(0.100000,-0.100000)"
fill="#000000" stroke="none">
<path d="M133 7133 c-24 -2 -43 -6 -43 -8 0 -2 5 -27 11 -54 10 -47 13 -50 35
-45 15 4 24 2 24 -5 0 -6 -9 -11 -20 -11 -11 0 -20 -4 -20 -10 0 -5 9 -10 21
-10 11 0 17 -4 14 -10 -3 -5 -17 -10 -31 -10 -15 0 -24 -6 -24 -16 0 -11 5
-14 18 -9 9 3 38 9 65 12 49 6 66 23 22 23 -14 0 -25 5 -25 10 0 6 7 10 15 10
8 0 15 5 15 10 0 6 -7 10 -16 10 -8 0 -13 4 -10 9 10 15 44 1 42 -17 -1 -11 6
-16 17 -16 17 2 17 0 2 -22 -21 -33 -20 -58 3 -49 9 4 29 10 45 13 30 5 36 28
11 46 -14 10 -13 15 6 39 12 15 18 31 15 37 -11 17 -25 11 -35 -15 -5 -14 -14
-25 -20 -25 -15 0 -13 8 11 41 11 16 18 36 15 44 -8 22 -23 18 -29 -7 -4 -13
-13 -32 -22 -43 -13 -15 -15 -16 -11 -3 2 9 8 33 12 52 l6 36 -38 -2 c-22 -1
-58 -3 -81 -5z m87 -24 c0 -5 -5 -7 -11 -3 -6 3 -15 0 -20 -7 -7 -11 -9 -10
-9 4 0 10 8 17 20 17 11 0 20 -5 20 -11z m-70 -9 c0 -5 -7 -7 -15 -4 -8 4 -15
8 -15 10 0 2 7 4 15 4 8 0 15 -4 15 -10z m60 -30 c0 -5 -8 -10 -17 -10 -15 0
-16 2 -3 10 19 12 20 12 20 0z m-55 -10 c-3 -5 -12 -10 -18 -10 -7 0 -6 4 3
10 19 12 23 12 15 0z m135 -94 c0 -2 -7 -7 -16 -10 -8 -3 -12 -2 -9 4 6 10 25
14 25 6z"/>
<path d="M360 7116 c0 -45 -13 -86 -26 -86 -17 0 -19 -17 -3 -22 17 -6 2 -61
-27 -104 -26 -38 -26 -51 1 -40 17 6 65 100 65 127 0 9 7 22 15 29 13 11 15 7
14 -31 -2 -73 -12 -104 -33 -101 -22 4 -17 -17 7 -32 11 -7 20 -7 27 0 12 12
40 175 33 187 -3 5 -16 7 -29 4 -22 -4 -22 -2 -17 45 5 40 3 48 -11 48 -10 0
-16 -8 -16 -24z"/>
<path d="M540 7125 c0 -26 24 -105 32 -105 10 0 3 84 -9 103 -5 8 -23 10 -23
2z"/>
<path d="M190 6942 c0 -19 12 -42 22 -42 14 0 5 43 -9 48 -7 2 -13 -1 -13 -6z"/>
<path d="M150 6933 c0 -5 4 -15 10 -23 11 -18 25 -7 17 15 -6 15 -27 21 -27 8z"/>
<path d="M76 6904 c-10 -27 -7 -56 7 -52 14 5 23 68 9 68 -6 0 -13 -7 -16 -16z"/>
<path d="M120 6900 c0 -11 5 -20 10 -20 6 0 10 9 10 20 0 11 -4 20 -10 20 -5
0 -10 -9 -10 -20z"/>
<path d="M620 6680 c0 -5 12 -10 26 -10 19 0 24 -4 20 -17 -17 -59 -18 -73 -3
-73 9 0 19 17 26 44 16 64 15 66 -29 66 -22 0 -40 -4 -40 -10z"/>
<path d="M540 6675 c0 -2 5 -27 11 -55 14 -63 34 -68 25 -5 -7 41 -5 45 13 45
12 0 21 5 21 10 0 6 -16 10 -35 10 -19 0 -35 -2 -35 -5z"/>
<path d="M620 6230 c0 -5 12 -10 26 -10 19 0 24 -4 20 -17 -17 -59 -18 -73 -3
-73 9 0 19 17 26 44 16 64 15 66 -29 66 -22 0 -40 -4 -40 -10z"/>
<path d="M540 6225 c0 -2 5 -27 11 -55 11 -49 29 -69 29 -30 0 11 5 20 10 20
17 0 11 28 -7 39 -16 9 -16 10 5 11 12 0 22 5 22 10 0 6 -16 10 -35 10 -19 0
-35 -2 -35 -5z"/>
<path d="M620 5780 c0 -5 11 -10 25 -10 14 0 25 -5 25 -11 0 -5 -5 -7 -11 -3
-6 3 -15 0 -20 -7 -13 -21 -11 -32 6 -25 12 4 14 0 9 -19 -4 -18 -2 -25 9 -25
9 0 19 17 26 44 16 64 15 66 -29 66 -22 0 -40 -4 -40 -10z"/>
<path d="M540 5775 c0 -2 5 -27 11 -55 11 -49 29 -69 29 -30 0 11 5 20 10 20
17 0 11 28 -7 39 -16 9 -16 10 5 11 12 0 22 5 22 10 0 6 -16 10 -35 10 -19 0
-35 -2 -35 -5z"/>
<path d="M620 5330 c0 -5 11 -10 25 -10 14 0 25 -5 25 -11 0 -5 -5 -7 -11 -3
-6 3 -15 0 -20 -7 -13 -21 -11 -32 6 -25 8 3 15 2 15 -3 0 -5 -10 -11 -22 -15
-27 -7 -68 -7 -50 1 18 7 15 30 -5 42 -16 9 -16 10 5 11 12 0 22 5 22 10 0 6
-16 10 -35 10 -19 0 -35 -2 -35 -5 0 -2 5 -27 11 -55 9 -43 14 -50 30 -45 10
4 36 6 58 7 38 0 40 2 50 44 16 62 15 64 -29 64 -22 0 -40 -4 -40 -10z"/>
<path d="M620 4880 c0 -5 11 -10 25 -10 14 0 25 -5 25 -11 0 -5 -5 -7 -11 -3
-6 3 -15 0 -20 -7 -13 -21 -11 -32 6 -25 8 3 15 2 15 -3 0 -5 -10 -11 -22 -15
-27 -7 -68 -7 -50 1 18 7 15 30 -5 42 -16 9 -16 10 5 11 12 0 22 5 22 10 0 6
-16 10 -35 10 -19 0 -35 -2 -35 -5 0 -2 5 -27 11 -55 9 -43 14 -50 30 -45 10
4 36 6 58 7 38 0 40 2 50 44 16 62 15 64 -29 64 -22 0 -40 -4 -40 -10z"/>
<path d="M598 4763 c-33 -5 -37 -23 -5 -23 33 0 67 11 67 21 0 9 -12 9 -62 2z"/>
<path d="M583 4433 c-24 -2 -43 -6 -43 -8 0 -2 5 -27 11 -54 10 -47 13 -50 35
-45 15 4 24 2 24 -5 0 -6 -9 -11 -20 -11 -11 0 -20 -4 -20 -10 0 -5 9 -10 20
-10 11 0 20 -4 20 -10 0 -5 5 -10 10 -10 6 0 10 7 10 15 0 8 7 15 15 15 8 0
15 5 15 10 0 6 -7 10 -16 10 -8 0 -13 4 -10 9 3 5 14 7 25 4 15 -4 20 4 30 41
18 73 22 70 -106 59z m87 -24 c0 -5 -5 -7 -11 -3 -6 3 -15 0 -20 -7 -7 -11 -9
-10 -9 4 0 10 8 17 20 17 11 0 20 -5 20 -11z m-70 -9 c0 -5 -7 -7 -15 -4 -8 4
-15 8 -15 10 0 2 7 4 15 4 8 0 15 -4 15 -10z m60 -30 c0 -5 -8 -10 -17 -10
-15 0 -16 2 -3 10 19 12 20 12 20 0z m-55 -10 c-3 -5 -12 -10 -18 -10 -7 0 -6
4 3 10 19 12 23 12 15 0z"/>
<path d="M583 3983 c-24 -2 -43 -6 -43 -8 0 -2 5 -27 11 -54 10 -47 13 -50 35
-45 15 4 24 2 24 -5 0 -6 -9 -11 -20 -11 -11 0 -20 -4 -20 -10 0 -5 9 -10 21
-10 11 0 17 -4 14 -10 -3 -5 -17 -10 -31 -10 -15 0 -24 -6 -24 -16 0 -11 5
-14 18 -9 9 3 38 9 65 12 49 6 66 23 22 23 -14 0 -25 5 -25 10 0 6 7 10 15 10
8 0 15 5 15 10 0 6 -7 10 -16 10 -8 0 -13 4 -10 9 3 5 14 7 25 4 15 -4 20 4
30 41 18 73 22 70 -106 59z m87 -24 c0 -5 -5 -7 -11 -3 -6 3 -15 0 -20 -7 -7
-11 -9 -10 -9 4 0 10 8 17 20 17 11 0 20 -5 20 -11z m-70 -9 c0 -5 -7 -7 -15
-4 -8 4 -15 8 -15 10 0 2 7 4 15 4 8 0 15 -4 15 -10z m60 -30 c0 -5 -8 -10
-17 -10 -15 0 -16 2 -3 10 19 12 20 12 20 0z m-55 -10 c-3 -5 -12 -10 -18 -10
-7 0 -6 4 3 10 19 12 23 12 15 0z"/>
<path d="M583 3533 c-24 -2 -43 -6 -43 -8 0 -2 5 -27 11 -54 10 -47 13 -50 35
-45 15 4 24 2 24 -5 0 -6 -9 -11 -20 -11 -11 0 -20 -4 -20 -10 0 -5 9 -10 21
-10 11 0 17 -4 14 -10 -3 -5 -17 -10 -31 -10 -15 0 -24 -6 -24 -16 0 -11 5
-14 18 -9 9 3 38 9 65 12 49 6 66 23 22 23 -14 0 -25 5 -25 10 0 6 7 10 15 10
8 0 15 5 15 10 0 6 -7 10 -16 10 -8 0 -13 4 -10 9 3 5 14 7 25 4 15 -4 20 4
30 41 18 73 22 70 -106 59z m87 -24 c0 -5 -5 -7 -11 -3 -6 3 -15 0 -20 -7 -7
-11 -9 -10 -9 4 0 10 8 17 20 17 11 0 20 -5 20 -11z m-70 -9 c0 -5 -7 -7 -15
-4 -8 4 -15 8 -15 10 0 2 7 4 15 4 8 0 15 -4 15 -10z m60 -30 c0 -5 -8 -10
-17 -10 -15 0 -16 2 -3 10 19 12 20 12 20 0z m-55 -10 c-3 -5 -12 -10 -18 -10
-7 0 -6 4 3 10 19 12 23 12 15 0z"/>
<path d="M526 3304 c-10 -27 -7 -56 7 -52 14 5 23 68 9 68 -6 0 -13 -7 -16
-16z"/>
<path d="M583 3083 c-24 -2 -43 -6 -43 -8 0 -2 5 -27 11 -54 10 -47 13 -50 35
-45 15 4 24 2 24 -5 0 -6 -9 -11 -20 -11 -11 0 -20 -4 -20 -10 0 -5 9 -10 21
-10 11 0 17 -4 14 -10 -3 -5 -17 -10 -31 -10 -15 0 -24 -6 -24 -16 0 -11 5
-14 18 -9 9 3 38 9 65 12 49 6 66 23 22 23 -14 0 -25 5 -25 10 0 6 7 10 15 10
8 0 15 5 15 10 0 6 -7 10 -16 10 -8 0 -13 4 -10 9 3 5 14 7 25 4 15 -4 20 4
30 41 18 73 22 70 -106 59z m87 -24 c0 -5 -5 -7 -11 -3 -6 3 -15 0 -20 -7 -7
-11 -9 -10 -9 4 0 10 8 17 20 17 11 0 20 -5 20 -11z m-70 -9 c0 -5 -7 -7 -15
-4 -8 4 -15 8 -15 10 0 2 7 4 15 4 8 0 15 -4 15 -10z m60 -30 c0 -5 -8 -10
-17 -10 -15 0 -16 2 -3 10 19 12 20 12 20 0z m-55 -10 c-3 -5 -12 -10 -18 -10
-7 0 -6 4 3 10 19 12 23 12 15 0z"/>
<path d="M526 2854 c-10 -27 -7 -56 7 -52 14 5 23 68 9 68 -6 0 -13 -7 -16
-16z"/>
<path d="M570 2850 c0 -11 5 -20 10 -20 6 0 10 9 10 20 0 11 -4 20 -10 20 -5
0 -10 -9 -10 -20z"/>
<path d="M583 2633 c-24 -2 -43 -6 -43 -8 0 -2 5 -27 11 -54 10 -47 13 -50 35
-45 15 4 24 2 24 -5 0 -6 -9 -11 -20 -11 -11 0 -20 -4 -20 -10 0 -5 9 -10 21
-10 11 0 17 -4 14 -10 -3 -5 -17 -10 -31 -10 -15 0 -24 -6 -24 -16 0 -11 5
-14 18 -9 9 3 38 9 65 12 49 6 66 23 22 23 -14 0 -25 5 -25 10 0 6 7 10 15 10
8 0 15 5 15 10 0 6 -7 10 -16 10 -8 0 -13 4 -10 9 3 5 14 7 25 4 15 -4 20 4
30 41 18 73 22 70 -106 59z m87 -24 c0 -5 -5 -7 -11 -3 -6 3 -15 0 -20 -7 -7
-11 -9 -10 -9 4 0 10 8 17 20 17 11 0 20 -5 20 -11z m-70 -9 c0 -5 -7 -7 -15
-4 -8 4 -15 8 -15 10 0 2 7 4 15 4 8 0 15 -4 15 -10z m60 -30 c0 -5 -8 -10
-17 -10 -15 0 -16 2 -3 10 19 12 20 12 20 0z m-55 -10 c-3 -5 -12 -10 -18 -10
-7 0 -6 4 3 10 19 12 23 12 15 0z"/>
<path d="M600 2433 c0 -5 4 -15 10 -23 11 -18 25 -7 17 15 -6 15 -27 21 -27 8z"/>
<path d="M526 2404 c-10 -27 -7 -56 7 -52 14 5 23 68 9 68 -6 0 -13 -7 -16
-16z"/>
<path d="M570 2400 c0 -11 5 -20 10 -20 6 0 10 9 10 20 0 11 -4 20 -10 20 -5
0 -10 -9 -10 -20z"/>
<path d="M583 2183 c-24 -2 -43 -6 -43 -8 0 -2 5 -27 11 -54 10 -47 13 -50 35
-45 15 4 24 2 24 -5 0 -6 -9 -11 -20 -11 -11 0 -20 -4 -20 -10 0 -5 9 -10 21
-10 11 0 17 -4 14 -10 -3 -5 -17 -10 -31 -10 -15 0 -24 -6 -24 -16 0 -11 5
-14 18 -9 9 3 38 9 65 12 49 6 66 23 22 23 -14 0 -25 5 -25 10 0 6 7 10 15 10
8 0 15 5 15 10 0 6 -7 10 -16 10 -8 0 -13 4 -10 9 3 5 14 7 25 4 15 -4 20 4
30 41 18 73 22 70 -106 59z m87 -24 c0 -5 -5 -7 -11 -3 -6 3 -15 0 -20 -7 -7
-11 -9 -10 -9 4 0 10 8 17 20 17 11 0 20 -5 20 -11z m-70 -9 c0 -5 -7 -7 -15
-4 -8 4 -15 8 -15 10 0 2 7 4 15 4 8 0 15 -4 15 -10z m60 -30 c0 -5 -8 -10
-17 -10 -15 0 -16 2 -3 10 19 12 20 12 20 0z m-55 -10 c-3 -5 -12 -10 -18 -10
-7 0 -6 4 3 10 19 12 23 12 15 0z"/>
<path d="M640 1992 c0 -19 12 -42 22 -42 14 0 5 43 -9 48 -7 2 -13 -1 -13 -6z"/>
<path d="M600 1983 c0 -5 4 -15 10 -23 11 -18 25 -7 17 15 -6 15 -27 21 -27 8z"/>
<path d="M526 1954 c-10 -27 -7 -56 7 -52 14 5 23 68 9 68 -6 0 -13 -7 -16
-16z"/>
<path d="M570 1950 c0 -11 5 -20 10 -20 6 0 10 9 10 20 0 11 -4 20 -10 20 -5
0 -10 -9 -10 -20z"/>
<path d="M583 1733 c-24 -2 -43 -6 -43 -8 0 -2 5 -27 11 -54 10 -47 13 -50 35
-45 15 4 24 2 24 -5 0 -6 -9 -11 -20 -11 -11 0 -20 -4 -20 -10 0 -5 9 -10 21
-10 11 0 17 -4 14 -10 -3 -5 -17 -10 -31 -10 -15 0 -24 -6 -24 -16 0 -11 5
-14 18 -9 9 3 38 9 65 12 49 6 66 23 22 23 -14 0 -25 5 -25 10 0 6 7 10 15 10
8 0 15 5 15 10 0 6 -7 10 -16 10 -8 0 -13 4 -10 9 10 15 44 1 42 -17 -1 -12 6
-16 23 -14 32 3 39 11 22 22 -11 6 -10 14 9 39 12 18 19 38 16 46 -8 22 -23
18 -29 -7 -4 -13 -13 -32 -22 -43 -13 -15 -15 -16 -11 -3 2 9 8 33 12 52 l6
36 -38 -2 c-22 -1 -58 -3 -81 -5z m87 -24 c0 -5 -5 -7 -11 -3 -6 3 -15 0 -20
-7 -7 -11 -9 -10 -9 4 0 10 8 17 20 17 11 0 20 -5 20 -11z m-70 -9 c0 -5 -7
-7 -15 -4 -8 4 -15 8 -15 10 0 2 7 4 15 4 8 0 15 -4 15 -10z m60 -30 c0 -5 -8
-10 -17 -10 -15 0 -16 2 -3 10 19 12 20 12 20 0z m-55 -10 c-3 -5 -12 -10 -18
-10 -7 0 -6 4 3 10 19 12 23 12 15 0z"/>
<path d="M640 1542 c0 -19 12 -42 22 -42 14 0 5 43 -9 48 -7 2 -13 -1 -13 -6z"/>
<path d="M600 1533 c0 -5 4 -15 10 -23 11 -18 25 -7 17 15 -6 15 -27 21 -27 8z"/>
<path d="M526 1504 c-10 -27 -7 -56 7 -52 14 5 23 68 9 68 -6 0 -13 -7 -16
-16z"/>
<path d="M570 1500 c0 -11 5 -20 10 -20 6 0 10 9 10 20 0 11 -4 20 -10 20 -5
0 -10 -9 -10 -20z"/>
<path d="M583 1283 c-24 -2 -43 -6 -43 -8 0 -2 5 -27 11 -54 10 -47 13 -50 35
-45 15 4 24 2 24 -5 0 -6 -9 -11 -20 -11 -11 0 -20 -4 -20 -10 0 -5 9 -10 21
-10 11 0 17 -4 14 -10 -3 -5 -17 -10 -31 -10 -15 0 -24 -6 -24 -16 0 -11 5
-14 18 -9 9 3 38 9 65 12 49 6 66 23 22 23 -14 0 -25 5 -25 10 0 6 7 10 15 10
8 0 15 5 15 10 0 6 -7 10 -16 10 -8 0 -13 4 -10 9 10 15 44 1 42 -17 -1 -11 6
-16 17 -16 17 2 17 0 2 -22 -14 -22 -21 -54 -10 -54 2 0 16 5 30 12 27 12 36
34 9 24 -10 -4 -1 14 20 44 34 47 39 70 15 70 -5 0 -14 -11 -19 -25 -5 -14
-14 -25 -20 -25 -15 0 -13 8 11 41 11 16 18 36 15 44 -8 22 -23 18 -29 -7 -4
-13 -13 -32 -22 -43 -13 -15 -15 -16 -11 -3 2 9 8 33 12 52 l6 36 -38 -2 c-22
-1 -58 -3 -81 -5z m87 -24 c0 -5 -5 -7 -11 -3 -6 3 -15 0 -20 -7 -7 -11 -9
-10 -9 4 0 10 8 17 20 17 11 0 20 -5 20 -11z m-70 -9 c0 -5 -7 -7 -15 -4 -8 4
-15 8 -15 10 0 2 7 4 15 4 8 0 15 -4 15 -10z m60 -30 c0 -5 -8 -10 -17 -10
-15 0 -16 2 -3 10 19 12 20 12 20 0z m-55 -10 c-3 -5 -12 -10 -18 -10 -7 0 -6
4 3 10 19 12 23 12 15 0z"/>
<path d="M640 1092 c0 -19 12 -42 22 -42 14 0 5 43 -9 48 -7 2 -13 -1 -13 -6z"/>
<path d="M600 1083 c0 -5 4 -15 10 -23 11 -18 25 -7 17 15 -6 15 -27 21 -27 8z"/>
<path d="M526 1054 c-10 -27 -7 -56 7 -52 14 5 23 68 9 68 -6 0 -13 -7 -16
-16z"/>
<path d="M570 1050 c0 -11 5 -20 10 -20 6 0 10 9 10 20 0 11 -4 20 -10 20 -5
0 -10 -9 -10 -20z"/>
<path d="M583 833 c-24 -2 -43 -6 -43 -8 0 -2 5 -27 11 -54 10 -47 13 -50 35
-45 15 4 24 2 24 -5 0 -6 -9 -11 -20 -11 -11 0 -20 -4 -20 -10 0 -5 9 -10 21
-10 11 0 17 -4 14 -10 -3 -5 -17 -10 -31 -10 -15 0 -24 -6 -24 -16 0 -11 5
-14 18 -9 9 3 38 9 65 12 49 6 66 23 22 23 -14 0 -25 5 -25 10 0 6 7 10 15 10
8 0 15 5 15 10 0 6 -7 10 -16 10 -8 0 -13 4 -10 9 10 15 44 1 42 -17 -1 -11 6
-16 17 -16 17 2 17 0 2 -22 -21 -33 -20 -58 3 -49 9 4 29 10 45 13 30 5 36 28
11 46 -14 10 -13 15 6 39 12 15 18 31 15 37 -11 17 -25 11 -35 -15 -5 -14 -14
-25 -20 -25 -15 0 -13 8 11 41 11 16 18 36 15 44 -8 22 -23 18 -29 -7 -4 -13
-13 -32 -22 -43 -13 -15 -15 -16 -11 -3 2 9 8 33 12 52 l6 36 -38 -2 c-22 -1
-58 -3 -81 -5z m87 -24 c0 -5 -5 -7 -11 -3 -6 3 -15 0 -20 -7 -7 -11 -9 -10
-9 4 0 10 8 17 20 17 11 0 20 -5 20 -11z m-70 -9 c0 -5 -7 -7 -15 -4 -8 4 -15
8 -15 10 0 2 7 4 15 4 8 0 15 -4 15 -10z m60 -30 c0 -5 -8 -10 -17 -10 -15 0
-16 2 -3 10 19 12 20 12 20 0z m-55 -10 c-3 -5 -12 -10 -18 -10 -7 0 -6 4 3
10 19 12 23 12 15 0z m135 -94 c0 -2 -7 -7 -16 -10 -8 -3 -12 -2 -9 4 6 10 25
14 25 6z"/>
<path d="M640 642 c0 -19 12 -42 22 -42 14 0 5 43 -9 48 -7 2 -13 -1 -13 -6z"/>
<path d="M600 633 c0 -5 4 -15 10 -23 11 -18 25 -7 17 15 -6 15 -27 21 -27 8z"/>
<path d="M526 604 c-10 -27 -7 -56 7 -52 14 5 23 68 9 68 -6 0 -13 -7 -16 -16z"/>
<path d="M570 600 c0 -11 5 -20 10 -20 6 0 10 9 10 20 0 11 -4 20 -10 20 -5 0
-10 -9 -10 -20z"/>
<path d="M583 383 c-24 -2 -43 -6 -43 -8 0 -2 5 -27 11 -54 10 -47 13 -50 35
-45 15 4 24 2 24 -5 0 -6 -9 -11 -20 -11 -11 0 -20 -4 -20 -10 0 -5 9 -10 21
-10 11 0 17 -4 14 -10 -3 -5 -17 -10 -31 -10 -15 0 -24 -6 -24 -16 0 -11 5
-14 18 -9 9 3 38 9 65 12 49 6 66 23 22 23 -14 0 -25 5 -25 10 0 6 7 10 15 10
8 0 15 5 15 10 0 6 -7 10 -16 10 -8 0 -13 4 -10 9 10 15 44 1 42 -17 -1 -11 6
-16 17 -16 17 2 17 0 2 -22 -21 -33 -20 -58 3 -49 9 4 29 10 45 13 30 5 36 28
11 46 -14 10 -13 15 6 39 12 15 18 31 15 37 -11 17 -25 11 -35 -15 -5 -14 -14
-25 -20 -25 -15 0 -13 8 11 41 11 16 18 36 15 44 -8 22 -23 18 -29 -7 -4 -13
-13 -32 -22 -43 -13 -15 -15 -16 -11 -3 2 9 8 33 12 52 l6 36 -38 -2 c-22 -1
-58 -3 -81 -5z m87 -24 c0 -5 -5 -7 -11 -3 -6 3 -15 0 -20 -7 -7 -11 -9 -10
-9 4 0 10 8 17 20 17 11 0 20 -5 20 -11z m-70 -9 c0 -5 -7 -7 -15 -4 -8 4 -15
8 -15 10 0 2 7 4 15 4 8 0 15 -4 15 -10z m60 -30 c0 -5 -8 -10 -17 -10 -15 0
-16 2 -3 10 19 12 20 12 20 0z m-55 -10 c-3 -5 -12 -10 -18 -10 -7 0 -6 4 3
10 19 12 23 12 15 0z m135 -94 c0 -2 -7 -7 -16 -10 -8 -3 -12 -2 -9 4 6 10 25
14 25 6z"/>
<path d="M808 288 c-21 -6 -38 -14 -38 -19 0 -11 7 -11 48 0 l32 10 -1 -42
c-2 -72 -12 -102 -33 -99 -22 4 -17 -17 7 -32 11 -7 20 -7 27 0 11 11 40 174
33 187 -5 9 -28 8 -75 -5z"/>
<path d="M640 192 c0 -19 12 -42 22 -42 14 0 5 43 -9 48 -7 2 -13 -1 -13 -6z"/>
<path d="M600 183 c0 -5 4 -15 10 -23 11 -18 25 -7 17 15 -6 15 -27 21 -27 8z"/>
<path d="M526 154 c-10 -27 -7 -56 7 -52 14 5 23 68 9 68 -6 0 -13 -7 -16 -16z"/>
<path d="M570 150 c0 -11 5 -20 10 -20 6 0 10 9 10 20 0 11 -4 20 -10 20 -5 0
-10 -9 -10 -20z"/>
</g>
</svg>
