<?xml version="1.0" standalone="no"?>
<!DOCTYPE svg PUBLIC "-//W3C//DTD SVG 20010904//EN"
 "http://www.w3.org/TR/2001/REC-SVG-20010904/DTD/svg10.dtd">
<svg version="1.0" xmlns="http://www.w3.org/2000/svg"
 width="50.000000pt" height="725.000000pt" viewBox="0 0 50.000000 725.000000"
 preserveAspectRatio="xMidYMid meet">
<metadata>
Created by potrace 1.16, written by Peter Selinger 2001-2019
</metadata>
<g transform="translate(0.000000,725.000000) scale(0.100000,-0.100000)"
fill="#000000" stroke="none">
<path d="M250 7105 c0 -42 3 -55 15 -55 12 0 15 13 15 55 0 42 -3 55 -15 55
-12 0 -15 -13 -15 -55z"/>
<path d="M250 6655 c0 -42 3 -55 15 -55 8 0 15 9 15 20 0 14 9 21 35 26 19 3
35 11 35 16 0 6 -16 8 -35 6 -31 -4 -35 -1 -35 19 0 14 -6 23 -15 23 -12 0
-15 -13 -15 -55z"/>
<path d="M250 6205 c0 -42 3 -55 15 -55 8 0 15 9 15 20 0 14 9 21 35 26 19 3
35 11 35 16 0 6 -16 8 -35 6 -31 -4 -35 -1 -35 19 0 14 -6 23 -15 23 -12 0
-15 -13 -15 -55z"/>
<path d="M184 6189 c3 -17 6 -35 6 -40 0 -5 5 -9 10 -9 6 0 10 18 10 40 0 30
-4 40 -16 40 -13 0 -15 -7 -10 -31z"/>
<path d="M248 5758 c-2 -41 -7 -54 -20 -56 -15 -3 -18 4 -18 32 0 26 -4 36
-16 36 -13 0 -15 -7 -10 -34 6 -29 3 -34 -16 -40 -13 -3 -35 -6 -50 -6 -29 0
-38 -14 -15 -23 6 -2 46 2 87 9 41 7 110 13 153 14 42 0 77 4 77 9 0 16 -30
21 -86 15 -45 -6 -54 -4 -54 9 0 10 12 18 35 23 19 3 35 11 35 16 0 6 -16 8
-35 6 -31 -4 -35 -1 -35 19 0 13 -6 23 -14 23 -11 0 -16 -15 -18 -52z"/>
<path d="M248 5308 c-2 -41 -7 -54 -20 -56 -15 -3 -18 4 -18 32 0 26 -4 36
-16 36 -13 0 -15 -7 -10 -34 6 -29 3 -34 -16 -40 -13 -3 -35 -6 -50 -6 -16 0
-28 -4 -28 -9 0 -16 26 -20 66 -10 54 12 56 12 44 -10 -13 -26 -13 -31 3 -31
7 0 21 14 30 30 18 30 19 30 103 30 46 0 84 4 84 9 0 16 -30 21 -86 15 -45 -6
-54 -4 -54 9 0 10 12 18 35 23 19 3 35 11 35 16 0 6 -16 8 -35 6 -31 -4 -35
-1 -35 19 0 13 -6 23 -14 23 -11 0 -16 -15 -18 -52z"/>
<path d="M248 4858 c-2 -41 -7 -54 -20 -56 -15 -3 -18 4 -18 32 0 26 -4 36
-16 36 -13 0 -15 -7 -10 -34 6 -29 3 -34 -16 -40 -13 -3 -35 -6 -50 -6 -16 0
-28 -4 -28 -9 0 -16 26 -20 66 -10 54 12 56 12 44 -12 -14 -25 -14 -25 28 -34
33 -7 47 10 17 21 -11 5 -12 11 -4 25 8 16 21 19 94 19 47 0 85 4 85 9 0 16
-30 21 -86 15 -45 -6 -54 -4 -54 9 0 10 12 18 35 23 19 3 35 11 35 16 0 6 -16
8 -35 6 -31 -4 -35 -1 -35 19 0 13 -6 23 -14 23 -11 0 -16 -15 -18 -52z"/>
<path d="M248 4408 c-2 -41 -7 -54 -20 -56 -15 -3 -18 4 -18 32 0 26 -4 36
-16 36 -13 0 -15 -7 -10 -34 6 -29 3 -34 -16 -40 -13 -3 -35 -6 -50 -6 -16 0
-28 -4 -28 -9 0 -16 26 -20 66 -10 54 12 56 12 44 -12 -14 -25 -14 -25 26 -33
23 -5 37 -1 57 14 15 12 27 28 27 36 0 10 14 14 55 14 30 0 55 4 55 9 0 16
-30 21 -86 15 -45 -6 -54 -4 -54 9 0 10 12 18 35 23 19 3 35 11 35 16 0 6 -16
8 -35 6 -31 -4 -35 -1 -35 19 0 13 -6 23 -14 23 -11 0 -16 -15 -18 -52z m32
-74 c0 -18 -22 -42 -35 -38 -11 5 -12 11 -4 25 9 17 39 27 39 13z"/>
<path d="M248 3958 c-2 -41 -7 -54 -20 -56 -15 -3 -18 4 -18 32 0 26 -4 36
-16 36 -13 0 -15 -7 -10 -34 6 -29 3 -34 -16 -40 -13 -3 -35 -6 -50 -6 -16 0
-28 -4 -28 -9 0 -16 26 -20 66 -10 54 12 56 12 44 -10 -5 -11 -10 -22 -10 -24
0 -11 64 -16 81 -6 15 7 24 7 35 -2 20 -16 31 -2 16 21 -21 34 -14 40 43 40
30 0 55 4 55 9 0 16 -30 21 -86 15 -45 -6 -54 -4 -54 9 0 10 12 18 35 23 19 3
35 11 35 16 0 6 -16 8 -35 6 -31 -4 -35 -1 -35 19 0 13 -6 23 -14 23 -11 0
-16 -15 -18 -52z m32 -74 c0 -18 -22 -42 -35 -38 -11 5 -12 11 -4 25 9 17 39
27 39 13z"/>
<path d="M248 3508 c-2 -41 -7 -54 -20 -56 -15 -3 -18 4 -18 32 0 26 -4 36
-16 36 -13 0 -15 -7 -10 -34 6 -29 3 -34 -16 -40 -13 -3 -35 -6 -50 -6 -16 0
-28 -4 -28 -9 0 -16 26 -20 66 -10 54 12 56 12 44 -10 -5 -11 -10 -22 -10 -24
0 -11 64 -16 81 -6 11 5 25 7 31 3 18 -11 -19 -22 -74 -23 -29 -1 -48 -6 -48
-12 0 -9 22 -10 76 -6 42 3 78 8 81 11 3 2 -2 19 -11 37 -9 18 -16 36 -16 41
0 4 25 8 55 8 30 0 55 4 55 9 0 16 -30 21 -86 15 -45 -6 -54 -4 -54 9 0 10 12
18 35 23 19 3 35 11 35 16 0 6 -16 8 -35 6 -31 -4 -35 -1 -35 19 0 13 -6 23
-14 23 -11 0 -16 -15 -18 -52z m32 -74 c0 -18 -22 -42 -35 -38 -11 5 -12 11
-4 25 9 17 39 27 39 13z"/>
<path d="M248 3058 c-2 -41 -7 -54 -20 -56 -15 -3 -18 4 -18 32 0 26 -4 36
-16 36 -13 0 -15 -7 -10 -34 6 -29 3 -34 -16 -40 -13 -3 -35 -6 -50 -6 -16 0
-28 -4 -28 -9 0 -16 26 -20 66 -10 54 12 56 12 44 -10 -5 -11 -10 -22 -10 -24
0 -11 64 -16 81 -6 11 5 25 7 31 3 18 -11 -19 -22 -74 -23 -29 -1 -48 -6 -48
-12 0 -9 22 -10 76 -6 42 3 78 8 81 11 3 2 -2 19 -11 37 -9 18 -16 36 -16 41
0 4 25 8 55 8 30 0 55 4 55 9 0 16 -30 21 -86 15 -45 -6 -54 -4 -54 9 0 10 12
18 35 23 19 3 35 11 35 16 0 6 -16 8 -35 6 -31 -4 -35 -1 -35 19 0 13 -6 23
-14 23 -11 0 -16 -15 -18 -52z m32 -74 c0 -18 -22 -42 -35 -38 -11 5 -12 11
-4 25 9 17 39 27 39 13z"/>
<path d="M195 2854 c-9 -14 -14 -28 -11 -32 7 -6 56 37 56 50 0 18 -29 6 -45
-18z"/>
<path d="M248 2608 c-2 -41 -7 -54 -20 -56 -15 -3 -18 4 -18 32 0 26 -4 36
-16 36 -13 0 -15 -7 -10 -34 6 -29 3 -34 -16 -40 -13 -3 -35 -6 -50 -6 -16 0
-28 -4 -28 -9 0 -16 26 -20 66 -10 54 12 56 12 44 -10 -5 -11 -10 -22 -10 -24
0 -11 64 -16 81 -6 11 5 25 7 31 3 18 -11 -19 -22 -74 -23 -29 -1 -48 -6 -48
-12 0 -9 22 -10 76 -6 42 3 78 8 81 11 3 2 -2 19 -11 37 -9 18 -16 36 -16 41
0 4 25 8 55 8 30 0 55 4 55 9 0 16 -30 21 -86 15 -45 -6 -54 -4 -54 9 0 10 12
18 35 23 19 3 35 11 35 16 0 6 -16 8 -35 6 -31 -4 -35 -1 -35 19 0 13 -6 23
-14 23 -11 0 -16 -15 -18 -52z m32 -74 c0 -18 -22 -42 -35 -38 -11 5 -12 11
-4 25 9 17 39 27 39 13z"/>
<path d="M195 2404 c-18 -28 -13 -43 8 -25 8 6 23 8 32 4 15 -5 17 -3 12 11
-4 10 -7 22 -7 27 0 19 -28 8 -45 -17z"/>
<path d="M248 2158 c-2 -41 -7 -54 -20 -56 -15 -3 -18 4 -18 32 0 26 -4 36
-16 36 -13 0 -15 -7 -10 -34 6 -29 3 -34 -16 -40 -13 -3 -35 -6 -50 -6 -16 0
-28 -4 -28 -9 0 -16 26 -20 66 -10 54 12 56 12 44 -10 -5 -11 -10 -22 -10 -24
0 -11 64 -16 81 -6 11 5 25 7 31 3 18 -11 -19 -22 -74 -23 -27 -1 -48 -5 -48
-11 0 -5 23 -10 50 -10 54 0 56 -1 38 -30 -18 -28 -1 -37 24 -12 18 17 19 23
8 36 -11 14 -9 16 14 16 24 0 26 3 21 23 -4 12 -11 26 -16 32 -23 24 -8 35 46
35 30 0 55 4 55 9 0 16 -30 21 -86 15 -45 -6 -54 -4 -54 9 0 10 12 18 35 23
19 3 35 11 35 16 0 6 -16 8 -35 6 -31 -4 -35 -1 -35 19 0 13 -6 23 -14 23 -11
0 -16 -15 -18 -52z m32 -74 c0 -18 -22 -42 -35 -38 -11 5 -12 11 -4 25 9 17
39 27 39 13z"/>
<path d="M195 1954 c-18 -28 -13 -43 8 -25 8 6 23 8 32 4 15 -5 17 -3 12 11
-4 10 -7 22 -7 27 0 19 -28 8 -45 -17z"/>
<path d="M248 1708 c-2 -41 -7 -54 -20 -56 -15 -3 -18 4 -18 32 0 26 -4 36
-16 36 -13 0 -15 -7 -10 -34 6 -29 3 -34 -16 -40 -13 -3 -35 -6 -50 -6 -16 0
-28 -4 -28 -9 0 -16 26 -20 66 -10 54 12 56 12 44 -10 -5 -11 -10 -22 -10 -24
0 -11 64 -16 81 -6 11 5 25 7 31 3 18 -11 -19 -22 -74 -23 -27 -1 -48 -5 -48
-11 0 -5 23 -10 50 -10 47 0 63 -11 40 -25 -22 -14 -9 -31 25 -32 40 -1 44 9
14 40 l-20 22 26 3 c21 3 25 7 19 25 -3 12 -10 26 -15 32 -23 24 -8 35 46 35
30 0 55 4 55 9 0 16 -30 21 -86 15 -45 -6 -54 -4 -54 9 0 10 12 18 35 23 19 3
35 11 35 16 0 6 -16 8 -35 6 -31 -4 -35 -1 -35 19 0 13 -6 23 -14 23 -11 0
-16 -15 -18 -52z m32 -74 c0 -18 -22 -42 -35 -38 -11 5 -12 11 -4 25 9 17 39
27 39 13z"/>
<path d="M195 1504 c-18 -28 -13 -43 8 -25 8 6 23 8 32 4 15 -5 17 -3 12 11
-4 10 -7 22 -7 27 0 19 -28 8 -45 -17z"/>
<path d="M248 1258 c-2 -41 -7 -54 -20 -56 -15 -3 -18 4 -18 32 0 26 -4 36
-16 36 -13 0 -15 -7 -10 -34 6 -29 3 -34 -16 -40 -13 -3 -35 -6 -50 -6 -16 0
-28 -4 -28 -9 0 -16 26 -20 66 -10 54 12 56 12 44 -10 -5 -11 -10 -22 -10 -24
0 -11 64 -16 81 -6 11 5 25 7 31 3 18 -11 -19 -22 -74 -23 -27 -1 -48 -5 -48
-11 0 -5 23 -10 50 -10 47 0 63 -11 40 -25 -5 -3 -10 -13 -10 -21 0 -11 6 -13
20 -9 11 4 20 2 20 -4 0 -6 -21 -11 -51 -11 -32 0 -48 4 -44 10 4 6 16 8 27 4
17 -5 20 -3 15 11 -4 9 -7 21 -7 26 0 20 -30 7 -47 -21 -9 -16 -21 -30 -25
-30 -4 0 -8 29 -8 65 0 46 -4 65 -13 65 -10 0 -12 -21 -11 -82 1 -75 3 -83 20
-81 10 0 57 6 103 12 82 10 109 19 84 28 -7 3 -13 9 -13 14 0 6 -9 20 -21 32
l-20 22 26 3 c21 3 25 7 19 25 -3 12 -10 26 -15 32 -23 24 -8 35 46 35 30 0
55 4 55 9 0 16 -30 21 -86 15 -45 -6 -54 -4 -54 9 0 10 12 18 35 23 19 3 35
11 35 16 0 6 -16 8 -35 6 -31 -4 -35 -1 -35 19 0 13 -6 23 -14 23 -11 0 -16
-15 -18 -52z m32 -74 c0 -18 -22 -42 -35 -38 -11 5 -12 11 -4 25 9 17 39 27
39 13z"/>
<path d="M248 808 c-2 -41 -7 -54 -20 -56 -15 -3 -18 4 -18 32 0 26 -4 36 -16
36 -13 0 -15 -7 -10 -34 6 -29 3 -34 -16 -40 -13 -3 -35 -6 -50 -6 -16 0 -28
-4 -28 -9 0 -16 26 -20 66 -10 54 12 56 12 44 -10 -5 -11 -10 -22 -10 -24 0
-11 64 -16 81 -6 11 5 25 7 31 3 18 -11 -19 -22 -74 -23 -27 -1 -48 -5 -48
-11 0 -5 23 -10 50 -10 47 0 63 -11 40 -25 -5 -3 -10 -13 -10 -21 0 -11 6 -13
20 -9 11 4 20 2 20 -4 0 -6 -21 -11 -51 -11 -32 0 -48 4 -44 10 4 6 16 8 27 4
17 -5 20 -3 15 11 -4 9 -7 21 -7 26 0 20 -30 7 -47 -21 -9 -16 -21 -30 -25
-30 -4 0 -8 29 -8 65 0 46 -4 65 -13 65 -10 0 -12 -21 -11 -82 1 -75 3 -83 20
-81 10 1 55 6 99 11 49 7 81 7 83 1 2 -5 9 -9 16 -9 9 0 15 22 20 61 9 92 8
109 -9 109 -12 0 -15 -14 -15 -65 0 -37 -4 -65 -10 -65 -5 0 -10 5 -10 10 0 6
-9 21 -21 33 l-20 22 26 3 c21 3 25 7 19 25 -3 12 -10 26 -15 31 -23 25 -8 36
46 36 30 0 55 4 55 9 0 16 -30 21 -86 15 -45 -6 -54 -4 -54 9 0 10 12 18 35
23 19 3 35 11 35 16 0 6 -16 8 -35 6 -31 -4 -35 -1 -35 19 0 13 -6 23 -14 23
-11 0 -16 -15 -18 -52z m32 -74 c0 -18 -22 -42 -35 -38 -11 5 -12 11 -4 25 9
17 39 27 39 13z"/>
</g>
</svg>
