<?xml version="1.0" standalone="no"?>
<!DOCTYPE svg PUBLIC "-//W3C//DTD SVG 20010904//EN"
 "http://www.w3.org/TR/2001/REC-SVG-20010904/DTD/svg10.dtd">
<svg version="1.0" xmlns="http://www.w3.org/2000/svg"
 width="95.000000pt" height="725.000000pt" viewBox="0 0 95.000000 725.000000"
 preserveAspectRatio="xMidYMid meet">
<metadata>
Created by potrace 1.16, written by Peter Selinger 2001-2019
</metadata>
<g transform="translate(0.000000,725.000000) scale(0.100000,-0.100000)"
fill="#000000" stroke="none">
<path d="M210 7135 c-11 -19 -44 -55 -72 -80 -28 -25 -48 -48 -45 -51 11 -11
93 44 122 81 l27 37 44 -43 c24 -24 42 -44 40 -46 -2 -2 -36 -6 -77 -9 -41 -2
-82 -7 -91 -10 -19 -6 -23 -30 -10 -51 12 -19 52 -4 53 21 0 21 0 21 9 -1 12
-30 48 -30 59 -1 5 15 10 18 15 9 17 -27 -3 -39 -74 -46 l-72 -7 6 -30 c3 -17
6 -43 6 -59 0 -16 5 -29 10 -29 6 0 10 11 10 25 0 16 6 25 15 25 8 0 15 -4 15
-10 0 -5 7 -10 15 -10 8 0 15 7 15 15 0 8 6 15 14 15 9 0 12 -7 9 -21 -4 -16
-2 -20 8 -17 8 2 15 14 17 26 2 14 11 22 23 22 23 0 25 -16 4 -28 -20 -11 -9
-44 13 -40 18 4 30 36 31 91 1 30 -3 39 -21 47 -17 6 -18 9 -6 9 9 1 18 11 20
24 2 12 10 22 18 23 8 1 27 2 43 2 39 3 33 16 -14 35 -51 20 -126 76 -132 100
-8 26 -23 21 -47 -18z m36 -152 c-10 -10 -19 5 -10 18 6 11 8 11 12 0 2 -7 1
-15 -2 -18z m74 17 c0 -5 -4 -10 -10 -10 -5 0 -10 5 -10 10 0 6 5 10 10 10 6
0 10 -4 10 -10z m-140 -10 c0 -5 -4 -10 -10 -10 -5 0 -10 5 -10 10 0 6 5 10
10 10 6 0 10 -4 10 -10z m138 -68 c2 -7 -5 -12 -17 -12 -14 0 -19 5 -14 15 6
17 25 15 31 -3z m-60 -4 c-6 -18 -28 -21 -28 -4 0 9 7 16 16 16 9 0 14 -5 12
-12z m-60 -9 c-2 -6 -8 -10 -13 -10 -5 0 -11 4 -13 10 -2 6 4 11 13 11 9 0 15
-5 13 -11z"/>
<path d="M661 7136 c-12 -19 -45 -56 -73 -81 -28 -25 -48 -48 -45 -51 21 -21
174 120 164 150 -7 22 -26 15 -46 -18z"/>
<path d="M228 7063 c-16 -2 -28 -9 -28 -14 0 -15 83 -6 88 9 4 12 -7 13 -60 5z"/>
<path d="M660 6685 c-11 -19 -44 -55 -72 -80 -28 -25 -48 -48 -45 -51 11 -11
93 44 121 81 l28 36 59 -56 c39 -37 65 -55 75 -51 9 3 24 6 35 6 32 0 21 16
-22 33 -51 20 -126 76 -132 100 -8 26 -23 21 -47 -18z"/>
<path d="M660 6235 c-11 -19 -44 -55 -72 -80 -28 -25 -48 -48 -45 -51 11 -11
93 44 121 81 l28 36 59 -56 c39 -37 65 -55 75 -51 9 3 24 6 35 6 32 0 21 16
-22 33 -51 20 -126 76 -132 100 -8 26 -23 21 -47 -18z"/>
<path d="M678 6163 c-16 -2 -28 -9 -28 -14 0 -15 83 -6 88 9 4 12 -7 13 -60 5z"/>
<path d="M660 5785 c-11 -19 -44 -55 -72 -80 -28 -25 -48 -48 -45 -51 11 -11
93 44 121 81 l28 36 59 -56 c39 -37 65 -55 75 -51 9 3 24 6 35 6 32 0 21 16
-22 33 -51 20 -126 76 -132 100 -8 26 -23 21 -47 -18z"/>
<path d="M678 5713 c-16 -2 -28 -9 -28 -14 0 -15 83 -6 88 9 4 12 -7 13 -60 5z"/>
<path d="M590 5643 c0 -20 17 -50 24 -43 2 3 2 17 -1 33 -6 30 -23 37 -23 10z"/>
<path d="M660 5335 c-11 -19 -44 -55 -72 -80 -28 -25 -48 -48 -45 -51 11 -11
93 44 121 81 l28 36 59 -56 c39 -37 65 -55 75 -51 9 3 24 6 35 6 32 0 21 16
-22 33 -51 20 -126 76 -132 100 -8 26 -23 21 -47 -18z"/>
<path d="M678 5263 c-16 -2 -28 -9 -28 -14 0 -15 83 -6 88 9 4 12 -7 13 -60 5z"/>
<path d="M601 5211 c-15 -10 -8 -61 9 -61 6 0 8 11 4 25 -4 15 -2 25 5 25 6 0
11 -7 11 -15 0 -8 5 -15 10 -15 6 0 10 11 10 25 0 26 -22 33 -49 16z"/>
<path d="M660 4885 c-11 -19 -44 -55 -72 -80 -28 -25 -48 -48 -45 -51 11 -11
93 44 121 81 l28 36 59 -56 c39 -37 65 -55 75 -51 9 3 24 6 35 6 32 0 21 16
-22 33 -51 20 -126 76 -132 100 -8 26 -23 21 -47 -18z"/>
<path d="M678 4813 c-16 -2 -28 -9 -28 -14 0 -15 83 -6 88 9 4 12 -7 13 -60 5z"/>
<path d="M603 4763 c-31 -12 -8 -65 25 -56 16 4 22 13 22 34 0 29 -15 36 -47
22z m27 -23 c0 -5 -4 -10 -10 -10 -5 0 -10 5 -10 10 0 6 5 10 10 10 6 0 10 -4
10 -10z"/>
<path d="M660 4435 c-11 -19 -44 -55 -72 -80 -28 -25 -48 -48 -45 -51 11 -11
93 44 121 81 l28 36 59 -56 c39 -37 65 -55 75 -51 9 3 24 6 35 6 32 0 21 16
-22 33 -51 20 -126 76 -132 100 -8 26 -23 21 -47 -18z"/>
<path d="M678 4363 c-16 -2 -28 -9 -28 -14 0 -15 83 -6 88 9 4 12 -7 13 -60 5z"/>
<path d="M603 4313 c-14 -5 -17 -32 -5 -50 12 -19 52 -4 53 21 0 21 0 21 9 -1
5 -13 14 -23 21 -23 6 0 8 7 5 16 -3 9 -6 22 -6 30 0 14 -49 19 -77 7z m27
-23 c0 -5 -4 -10 -10 -10 -5 0 -10 5 -10 10 0 6 5 10 10 10 6 0 10 -4 10 -10z"/>
<path d="M660 3985 c-11 -19 -44 -55 -72 -80 -28 -25 -48 -48 -45 -51 11 -11
93 44 121 81 l28 36 59 -56 c39 -37 65 -55 75 -51 9 3 24 6 35 6 32 0 21 16
-22 33 -51 20 -126 76 -132 100 -8 26 -23 21 -47 -18z"/>
<path d="M678 3913 c-16 -2 -28 -9 -28 -14 0 -15 83 -6 88 9 4 12 -7 13 -60 5z"/>
<path d="M665 3873 c-60 -7 -75 -14 -75 -31 0 -28 14 -42 38 -35 14 3 22 13
23 27 0 21 0 21 9 -1 11 -28 34 -31 25 -4 -3 11 -1 22 5 26 5 3 10 -1 10 -9 0
-21 16 -21 24 0 7 19 -1 35 -17 33 -7 -1 -25 -4 -42 -6z m-35 -33 c0 -5 -4
-10 -10 -10 -5 0 -10 5 -10 10 0 6 5 10 10 10 6 0 10 -4 10 -10z"/>
<path d="M660 3535 c-11 -19 -44 -55 -72 -80 -28 -25 -48 -48 -45 -51 11 -11
93 44 121 81 l28 36 59 -56 c39 -37 65 -55 75 -51 9 3 24 6 35 6 32 0 21 16
-22 33 -51 20 -126 76 -132 100 -8 26 -23 21 -47 -18z"/>
<path d="M678 3463 c-16 -2 -28 -9 -28 -14 0 -15 83 -6 88 9 4 12 -7 13 -60 5z"/>
<path d="M665 3423 c-60 -7 -75 -14 -75 -31 0 -28 14 -42 38 -35 14 3 22 13
23 27 0 21 0 21 9 -1 13 -32 48 -30 60 3 11 28 6 45 -13 43 -7 -1 -25 -4 -42
-6z m31 -40 c-10 -10 -19 5 -10 18 6 11 8 11 12 0 2 -7 1 -15 -2 -18z m-66 7
c0 -5 -4 -10 -10 -10 -5 0 -10 5 -10 10 0 6 5 10 10 10 6 0 10 -4 10 -10z"/>
<path d="M660 3085 c-11 -19 -44 -55 -72 -80 -28 -25 -48 -48 -45 -51 11 -11
93 44 121 81 l28 36 59 -56 c39 -37 65 -55 75 -51 9 3 24 6 35 6 32 0 21 16
-22 33 -51 20 -126 76 -132 100 -8 26 -23 21 -47 -18z"/>
<path d="M678 3013 c-16 -2 -28 -9 -28 -14 0 -15 83 -6 88 9 4 12 -7 13 -60 5z"/>
<path d="M665 2973 c-60 -7 -75 -14 -75 -31 0 -28 14 -42 38 -35 14 3 22 13
23 27 0 21 0 21 9 -1 6 -14 18 -23 30 -23 12 0 24 9 30 23 l9 22 7 -22 c9 -33
28 -29 19 4 -4 16 -7 29 -8 30 -6 6 -57 10 -82 6z m31 -40 c-10 -10 -19 5 -10
18 6 11 8 11 12 0 2 -7 1 -15 -2 -18z m-66 7 c0 -5 -4 -10 -10 -10 -5 0 -10 5
-10 10 0 6 5 10 10 10 6 0 10 -4 10 -10z"/>
<path d="M660 2635 c-11 -19 -44 -55 -72 -80 -28 -25 -48 -48 -45 -51 11 -11
93 44 122 81 l27 37 44 -43 c24 -24 42 -44 40 -46 -2 -2 -36 -6 -77 -9 -41 -2
-82 -7 -91 -10 -19 -6 -23 -30 -10 -51 12 -19 52 -4 53 21 0 21 0 21 9 -1 6
-14 18 -23 30 -23 12 0 24 9 30 23 l9 22 7 -22 c9 -32 28 -29 20 2 -4 14 -2
25 4 25 5 0 10 -7 10 -15 0 -21 18 -19 22 2 2 10 10 18 18 19 8 1 27 2 43 2
39 3 33 16 -14 35 -51 20 -126 76 -132 100 -8 26 -23 21 -47 -18z m36 -152
c-10 -10 -19 5 -10 18 6 11 8 11 12 0 2 -7 1 -15 -2 -18z m-66 7 c0 -5 -4 -10
-10 -10 -5 0 -10 5 -10 10 0 6 5 10 10 10 6 0 10 -4 10 -10z"/>
<path d="M678 2563 c-16 -2 -28 -9 -28 -14 0 -15 83 -6 88 9 4 12 -7 13 -60 5z"/>
<path d="M660 2185 c-11 -19 -44 -55 -72 -80 -28 -25 -48 -48 -45 -51 11 -11
93 44 122 81 l27 37 44 -43 c24 -24 42 -44 40 -46 -2 -2 -36 -6 -77 -9 -41 -2
-82 -7 -91 -10 -19 -6 -23 -30 -10 -51 12 -19 52 -4 53 21 0 21 0 21 9 -1 6
-14 18 -23 30 -23 12 0 24 9 30 23 l9 22 7 -23 c4 -15 12 -21 21 -18 8 3 18 6
23 6 5 0 10 10 12 23 2 12 10 22 18 23 8 1 27 2 43 2 39 3 33 16 -14 35 -51
20 -126 76 -132 100 -8 26 -23 21 -47 -18z m36 -152 c-10 -10 -19 5 -10 18 6
11 8 11 12 0 2 -7 1 -15 -2 -18z m74 17 c0 -5 -4 -10 -10 -10 -5 0 -10 5 -10
10 0 6 5 10 10 10 6 0 10 -4 10 -10z m-140 -10 c0 -5 -4 -10 -10 -10 -5 0 -10
5 -10 10 0 6 5 10 10 10 6 0 10 -4 10 -10z"/>
<path d="M678 2113 c-16 -2 -28 -9 -28 -14 0 -15 83 -6 88 9 4 12 -7 13 -60 5z"/>
<path d="M660 1735 c-11 -19 -44 -55 -72 -80 -28 -25 -48 -48 -45 -51 11 -11
93 44 122 81 l27 37 44 -43 c24 -24 42 -44 40 -46 -2 -2 -36 -6 -77 -9 -41 -2
-82 -7 -91 -10 -19 -6 -23 -30 -10 -51 12 -19 52 -4 53 21 0 21 0 21 9 -1 6
-14 18 -23 30 -23 12 0 24 9 30 23 l9 22 7 -23 c4 -15 12 -21 21 -18 8 3 18 6
23 6 5 0 10 10 12 23 2 12 10 22 18 23 8 1 27 2 43 2 39 3 33 16 -14 35 -51
20 -126 76 -132 100 -8 26 -23 21 -47 -18z m36 -152 c-10 -10 -19 5 -10 18 6
11 8 11 12 0 2 -7 1 -15 -2 -18z m74 17 c0 -5 -4 -10 -10 -10 -5 0 -10 5 -10
10 0 6 5 10 10 10 6 0 10 -4 10 -10z m-140 -10 c0 -5 -4 -10 -10 -10 -5 0 -10
5 -10 10 0 6 5 10 10 10 6 0 10 -4 10 -10z"/>
<path d="M678 1663 c-16 -2 -28 -9 -28 -14 0 -15 83 -6 88 9 4 12 -7 13 -60 5z"/>
<path d="M594 1509 c3 -17 6 -44 6 -60 0 -16 5 -29 10 -29 6 0 10 27 10 60 0
49 -3 60 -16 60 -13 0 -15 -7 -10 -31z"/>
<path d="M660 1285 c-11 -19 -44 -55 -72 -80 -28 -25 -48 -48 -45 -51 11 -11
93 44 122 81 l27 37 44 -43 c24 -24 42 -44 40 -46 -2 -2 -36 -6 -77 -9 -41 -2
-82 -7 -91 -10 -19 -6 -23 -30 -10 -51 12 -19 52 -4 53 21 0 21 0 21 9 -1 12
-30 48 -30 59 -1 5 15 10 18 15 9 15 -23 -2 -41 -39 -41 -19 0 -35 -5 -35 -11
0 -7 19 -10 53 -7 51 3 52 3 55 -27 2 -18 -2 -33 -12 -41 -20 -14 -10 -46 12
-42 18 4 30 36 31 91 1 30 -3 39 -21 47 -17 6 -18 9 -6 9 9 1 18 11 20 24 2
12 10 22 18 23 8 1 27 2 43 2 39 3 33 16 -14 35 -51 20 -126 76 -132 100 -8
26 -23 21 -47 -18z m36 -152 c-10 -10 -19 5 -10 18 6 11 8 11 12 0 2 -7 1 -15
-2 -18z m74 17 c0 -5 -4 -10 -10 -10 -5 0 -10 5 -10 10 0 6 5 10 10 10 6 0 10
-4 10 -10z m-140 -10 c0 -5 -4 -10 -10 -10 -5 0 -10 5 -10 10 0 6 5 10 10 10
6 0 10 -4 10 -10z"/>
<path d="M678 1213 c-16 -2 -28 -9 -28 -14 0 -15 83 -6 88 9 4 12 -7 13 -60 5z"/>
<path d="M594 1059 c3 -17 6 -44 6 -60 0 -16 5 -29 10 -29 6 0 10 23 10 50 0
38 4 50 15 50 8 0 15 5 15 10 0 6 -14 10 -31 10 -30 0 -31 -2 -25 -31z"/>
<path d="M660 835 c-11 -19 -44 -55 -72 -80 -28 -25 -48 -48 -45 -51 11 -11
93 44 122 81 l27 37 44 -43 c24 -24 42 -44 40 -46 -2 -2 -36 -6 -77 -9 -41 -2
-82 -7 -91 -10 -19 -6 -23 -30 -10 -51 12 -19 52 -4 53 21 0 21 0 21 9 -1 12
-30 48 -30 59 -1 5 15 10 18 15 9 15 -23 -2 -41 -39 -41 -19 0 -35 -5 -35 -11
0 -7 19 -10 52 -7 33 2 53 -1 55 -9 3 -7 -19 -14 -64 -19 -80 -8 -77 -8 -81 5
-2 6 3 11 12 11 9 0 16 5 16 10 0 6 -14 10 -31 10 -30 0 -31 -2 -25 -31 3 -17
6 -44 6 -60 0 -16 5 -29 10 -29 6 0 10 11 10 24 0 26 5 28 103 41 47 6 63 -5
32 -23 -20 -11 -9 -44 13 -40 18 4 30 36 31 91 1 30 -3 39 -21 47 -17 6 -18 9
-6 9 9 1 18 11 20 24 2 12 10 22 18 23 8 1 27 2 43 2 39 3 33 16 -14 35 -51
20 -126 76 -132 100 -8 26 -23 21 -47 -18z m36 -152 c-10 -10 -19 5 -10 18 6
11 8 11 12 0 2 -7 1 -15 -2 -18z m74 17 c0 -5 -4 -10 -10 -10 -5 0 -10 5 -10
10 0 6 5 10 10 10 6 0 10 -4 10 -10z m-140 -10 c0 -5 -4 -10 -10 -10 -5 0 -10
5 -10 10 0 6 5 10 10 10 6 0 10 -4 10 -10z"/>
<path d="M678 763 c-16 -2 -28 -9 -28 -14 0 -15 83 -6 88 9 4 12 -7 13 -60 5z"/>
<path d="M660 385 c-11 -19 -44 -55 -72 -80 -28 -25 -48 -48 -45 -51 11 -11
93 44 122 81 l27 37 44 -43 c24 -24 42 -44 40 -46 -2 -2 -36 -6 -77 -9 -41 -2
-82 -7 -91 -10 -19 -6 -23 -30 -10 -51 12 -19 52 -4 53 21 0 21 0 21 9 -1 12
-30 48 -30 59 -1 5 15 10 18 15 9 17 -27 -3 -39 -74 -46 l-72 -7 6 -30 c3 -17
6 -43 6 -59 0 -16 5 -29 10 -29 6 0 10 11 10 25 0 16 6 25 15 25 8 0 15 -4 15
-10 0 -5 7 -10 15 -10 8 0 15 6 15 14 0 8 16 16 41 20 48 8 62 0 36 -19 -21
-15 -12 -47 11 -43 18 4 30 36 31 91 1 30 -3 39 -21 47 -17 6 -18 9 -6 9 9 1
18 11 20 24 2 12 10 22 18 23 8 1 27 2 43 2 39 3 33 16 -14 35 -51 20 -126 76
-132 100 -8 26 -23 21 -47 -18z m36 -152 c-10 -10 -19 5 -10 18 6 11 8 11 12
0 2 -7 1 -15 -2 -18z m74 17 c0 -5 -4 -10 -10 -10 -5 0 -10 5 -10 10 0 6 5 10
10 10 6 0 10 -4 10 -10z m-140 -10 c0 -5 -4 -10 -10 -10 -5 0 -10 5 -10 10 0
6 5 10 10 10 6 0 10 -4 10 -10z m135 -61 c9 -14 7 -15 -42 -23 -34 -5 -43 -3
-43 8 0 13 14 18 67 25 6 0 15 -4 18 -10z m-117 -20 c-2 -6 -8 -10 -13 -10 -5
0 -11 4 -13 10 -2 6 4 11 13 11 9 0 15 -5 13 -11z"/>
<path d="M678 313 c-16 -2 -28 -9 -28 -14 0 -15 83 -6 88 9 4 12 -7 13 -60 5z"/>
</g>
</svg>
