<?xml version="1.0" standalone="no"?>
<!DOCTYPE svg PUBLIC "-//W3C//DTD SVG 20010904//EN"
 "http://www.w3.org/TR/2001/REC-SVG-20010904/DTD/svg10.dtd">
<svg version="1.0" xmlns="http://www.w3.org/2000/svg"
 width="50.000000pt" height="725.000000pt" viewBox="0 0 50.000000 725.000000"
 preserveAspectRatio="xMidYMid meet">
<metadata>
Created by potrace 1.16, written by Peter Selinger 2001-2019
</metadata>
<g transform="translate(0.000000,725.000000) scale(0.100000,-0.100000)"
fill="#000000" stroke="none">
<path d="M100 7101 c0 -18 20 -22 65 -15 63 9 56 24 -10 24 -30 0 -55 -4 -55
-9z"/>
<path d="M100 6650 c0 -6 7 -13 15 -16 20 -8 19 -27 -6 -75 -11 -23 -18 -43
-15 -46 11 -11 34 18 57 72 16 36 30 55 42 55 9 0 17 5 17 10 0 6 -25 10 -55
10 -31 0 -55 -4 -55 -10z"/>
<path d="M100 6200 c0 -6 7 -13 15 -16 20 -8 19 -27 -6 -76 -19 -37 -19 -42
-5 -50 9 -5 16 -20 16 -33 0 -14 5 -25 11 -25 6 0 9 19 8 48 -3 60 28 142 54
142 9 0 17 5 17 10 0 6 -25 10 -55 10 -31 0 -55 -4 -55 -10z"/>
<path d="M100 5750 c0 -6 7 -13 15 -16 20 -8 19 -27 -6 -76 -19 -37 -19 -42
-5 -50 9 -5 16 -20 16 -33 0 -14 5 -25 10 -25 6 0 10 18 10 40 0 33 3 40 20
40 16 0 20 -7 20 -35 0 -44 14 -45 29 -4 19 55 16 61 -32 58 l-43 -4 20 47
c13 30 27 48 39 48 9 0 17 5 17 10 0 6 -25 10 -55 10 -31 0 -55 -4 -55 -10z"/>
<path d="M100 5300 c0 -6 7 -13 15 -16 20 -8 19 -27 -6 -76 -19 -37 -19 -42
-5 -50 9 -5 16 -20 16 -34 0 -23 2 -24 43 -18 23 4 43 7 43 8 1 1 5 21 9 45
l7 43 -44 -3 -44 -4 20 47 c13 30 27 48 39 48 9 0 17 5 17 10 0 6 -25 10 -55
10 -31 0 -55 -4 -55 -10z m80 -144 c0 -15 -7 -26 -20 -29 -17 -4 -20 0 -20 24
0 22 5 29 20 29 14 0 20 -7 20 -24z"/>
<path d="M100 4850 c0 -6 7 -13 15 -16 20 -8 19 -27 -6 -76 -19 -37 -19 -42
-5 -50 9 -5 16 -20 16 -34 0 -23 2 -24 43 -18 23 4 43 7 43 8 1 1 5 21 9 45
l7 43 -44 -3 -44 -4 20 47 c13 30 27 48 39 48 9 0 17 5 17 10 0 6 -25 10 -55
10 -31 0 -55 -4 -55 -10z m80 -144 c0 -15 -7 -26 -20 -29 -17 -4 -20 0 -20 24
0 22 5 29 20 29 14 0 20 -7 20 -24z"/>
<path d="M302 4807 c-58 -7 -91 -14 -89 -21 4 -12 15 -12 135 -1 79 8 99 16
66 29 -9 3 -16 5 -17 4 -1 -1 -44 -6 -95 -11z"/>
<path d="M304 4403 l1 -48 -48 -3 c-32 -2 -47 -7 -44 -15 3 -7 20 -11 46 -9
l41 2 0 -40 c0 -66 21 -50 32 25 3 16 12 21 51 23 26 2 47 7 47 12 0 13 -22
18 -57 12 -31 -4 -32 -4 -35 39 -2 30 -8 45 -19 47 -12 2 -15 -7 -15 -45z"/>
<path d="M100 4400 c0 -6 7 -13 15 -16 20 -8 19 -27 -6 -76 -19 -37 -19 -42
-5 -50 9 -5 16 -20 16 -34 0 -23 2 -24 43 -18 23 4 43 7 43 8 1 1 5 21 9 45
l7 43 -44 -3 -44 -4 20 47 c13 30 27 48 39 48 9 0 17 5 17 10 0 6 -25 10 -55
10 -31 0 -55 -4 -55 -10z m80 -144 c0 -15 -7 -26 -20 -29 -17 -4 -20 0 -20 24
0 22 5 29 20 29 14 0 20 -7 20 -24z"/>
<path d="M304 3953 l1 -48 -48 -3 c-32 -2 -47 -7 -44 -15 3 -7 20 -11 46 -9
l41 2 0 -40 c0 -66 21 -50 32 25 3 16 12 21 51 23 26 2 47 7 47 12 0 13 -22
18 -57 12 -31 -4 -32 -4 -35 39 -2 30 -8 45 -19 47 -12 2 -15 -7 -15 -45z"/>
<path d="M100 3950 c0 -6 7 -13 15 -16 20 -8 19 -27 -6 -76 -19 -37 -19 -42
-5 -50 9 -5 16 -20 16 -34 0 -23 2 -24 43 -18 23 4 43 7 43 8 1 1 5 21 9 45
l7 43 -44 -3 -44 -4 20 47 c13 30 27 48 39 48 9 0 17 5 17 10 0 6 -25 10 -55
10 -31 0 -55 -4 -55 -10z m80 -144 c0 -15 -7 -26 -20 -29 -17 -4 -20 0 -20 24
0 22 5 29 20 29 14 0 20 -7 20 -24z"/>
<path d="M244 3788 c3 -13 8 -40 11 -60 8 -52 25 -48 25 6 0 54 -8 76 -26 76
-10 0 -13 -8 -10 -22z"/>
<path d="M304 3503 l1 -48 -48 -3 c-32 -2 -47 -7 -44 -15 3 -7 20 -11 46 -9
41 2 41 2 41 -33 0 -32 -2 -35 -30 -35 -26 0 -30 -3 -26 -22 3 -13 8 -40 11
-60 9 -55 25 -47 25 12 l0 50 41 0 41 0 -6 -35 c-10 -51 18 -46 33 6 14 46 6
59 -37 59 -20 0 -23 4 -20 33 3 31 5 32 51 35 26 2 47 7 47 12 0 13 -22 18
-57 12 -31 -4 -32 -4 -35 39 -2 30 -8 45 -19 47 -12 2 -15 -7 -15 -45z"/>
<path d="M100 3500 c0 -6 7 -13 15 -16 20 -8 19 -27 -6 -76 -19 -37 -19 -42
-5 -50 9 -5 16 -20 16 -34 0 -23 2 -24 43 -18 23 4 43 7 43 8 1 1 5 21 9 45
l7 43 -44 -3 -44 -4 20 47 c13 30 27 48 39 48 9 0 17 5 17 10 0 6 -25 10 -55
10 -31 0 -55 -4 -55 -10z m80 -144 c0 -15 -7 -26 -20 -29 -17 -4 -20 0 -20 24
0 22 5 29 20 29 14 0 20 -7 20 -24z"/>
<path d="M304 3053 l1 -48 -48 -3 c-32 -2 -47 -7 -44 -15 3 -7 20 -11 46 -9
41 2 41 2 41 -33 0 -32 -2 -35 -30 -35 -26 0 -30 -3 -26 -22 3 -13 8 -40 11
-60 3 -21 10 -38 15 -38 6 0 10 5 10 10 0 6 22 10 48 10 l48 0 12 47 c14 51 8
63 -36 63 -20 0 -23 4 -20 33 3 31 5 32 51 35 26 2 47 7 47 12 0 13 -22 18
-57 12 -31 -4 -32 -4 -35 39 -2 30 -8 45 -19 47 -12 2 -15 -7 -15 -45z m56
-177 c0 -33 -13 -46 -46 -46 -31 0 -34 3 -34 30 0 28 2 30 40 30 28 0 40 -4
40 -14z"/>
<path d="M100 3050 c0 -6 7 -13 15 -16 20 -8 19 -27 -6 -76 -19 -37 -19 -42
-5 -50 9 -5 16 -20 16 -34 0 -23 2 -24 43 -18 23 4 43 7 43 8 1 1 5 21 9 45
l7 43 -44 -3 -44 -4 20 47 c13 30 27 48 39 48 9 0 17 5 17 10 0 6 -25 10 -55
10 -31 0 -55 -4 -55 -10z m80 -144 c0 -15 -7 -26 -20 -29 -17 -4 -20 0 -20 24
0 22 5 29 20 29 14 0 20 -7 20 -24z"/>
</g>
</svg>
